<?xml version="1.0" encoding="UTF-8"?>
<!-- Generator: visioncortex VTracer 0.6.12 -->
<svg version="1.1" xmlns="http://www.w3.org/2000/svg" width="375" height="331">
<path d="M0 0 C123.75 0 247.5 0 375 0 C375 109.23 375 218.46 375 331 C251.25 331 127.5 331 0 331 C0 221.77 0 112.54 0 0 Z " fill="#0E0E0E" transform="translate(0,0)"/>
<path d="M0 0 C1.32 0 2.64 0 4 0 C4 109.23 4 218.46 4 331 C-119.75 331 -243.5 331 -371 331 C-371 329.68 -371 328.36 -371 327 C-248.57 327 -126.14 327 0 327 C0 219.09 0 111.18 0 0 Z " fill="#FBFBFA" transform="translate(371,0)"/>
<path d="M0 0 C122.1 0 244.2 0 370 0 C365.693 3.23 364.884 3.376 359.792 3.385 C358.509 3.394 357.226 3.404 355.904 3.413 C354.478 3.409 353.051 3.404 351.624 3.399 C350.111 3.404 348.598 3.411 347.085 3.419 C342.921 3.437 338.757 3.436 334.593 3.433 C330.105 3.432 325.617 3.449 321.129 3.463 C313.351 3.486 305.573 3.498 297.795 3.502 C286.55 3.509 275.304 3.532 264.059 3.559 C245.815 3.602 227.57 3.632 209.326 3.654 C191.602 3.675 173.877 3.702 156.152 3.738 C155.06 3.74 153.968 3.742 152.843 3.744 C147.364 3.755 141.885 3.766 136.405 3.778 C90.937 3.871 45.469 3.943 0 4 C0 2.68 0 1.36 0 0 Z " fill="#DDDEDE" transform="translate(0,327)"/>
</svg>
