<?xml version="1.0" encoding="UTF-8"?>
<!-- Generator: visioncortex VTracer 0.6.12 -->
<svg version="1.1" xmlns="http://www.w3.org/2000/svg" width="375" height="331">
<path d="M0 0 C123.75 0 247.5 0 375 0 C375 109.23 375 218.46 375 331 C251.25 331 127.5 331 0 331 C0 221.77 0 112.54 0 0 Z " fill="#FD7E01" transform="translate(0,0)"/>
<path d="M0 0 C123.75 0 247.5 0 375 0 C375 109.23 375 218.46 375 331 C251.25 331 127.5 331 0 331 C0 221.77 0 112.54 0 0 Z M3 2 C3 110.24 3 218.48 3 330 C125.43 330 247.86 330 374 330 C374 221.76 374 113.52 374 2 C251.57 2 129.14 2 3 2 Z " fill="#FCF0E2" transform="translate(0,0)"/>
<path d="M0 0 C123.75 0 247.5 0 375 0 C375 109.23 375 218.46 375 331 C374.34 330.67 373.68 330.34 373 330 C373.33 221.76 373.66 113.52 374 2 C251.57 2.33 129.14 2.66 3 3 C2.67 5.31 2.34 7.62 2 10 C1.34 9.34 0.68 8.68 0 8 C0 5.36 0 2.72 0 0 Z " fill="#FDFCFA" transform="translate(0,0)"/>
<path d="M0 0 C122.1 0 244.2 0 370 0 C370 103.95 370 207.9 370 315 C369.67 315 369.34 315 369 315 C369 211.38 369 107.76 369 1 C277.192 1.211 277.192 1.211 238.947 1.307 C230.192 1.329 221.438 1.351 212.683 1.372 C212.134 1.374 212.134 1.374 209.358 1.381 C191.617 1.425 173.877 1.465 156.136 1.505 C137.944 1.545 119.752 1.589 101.56 1.637 C90.325 1.666 79.09 1.693 67.855 1.715 C60.162 1.731 52.469 1.75 44.775 1.773 C40.33 1.785 35.884 1.797 31.439 1.803 C27.376 1.81 23.313 1.821 19.25 1.835 C17.773 1.839 16.297 1.842 14.82 1.843 C12.827 1.845 10.833 1.853 8.839 1.861 C8.283 1.863 8.283 1.863 5.471 1.869 C3 2 3 2 2 3 C1.898 4.72 1.866 6.444 1.861 8.167 C1.856 9.295 1.85 10.422 1.845 11.583 C1.844 12.837 1.843 14.091 1.842 15.383 C1.837 16.702 1.832 18.022 1.827 19.382 C1.813 23.063 1.806 26.743 1.799 30.423 C1.791 34.386 1.778 38.349 1.765 42.311 C1.743 49.182 1.725 56.053 1.709 62.924 C1.686 72.858 1.658 82.793 1.629 92.727 C1.581 108.843 1.538 124.96 1.497 141.076 C1.458 156.735 1.417 172.395 1.372 188.054 C1.37 189.019 1.367 189.984 1.364 190.977 C1.35 195.816 1.337 200.654 1.323 205.493 C1.209 245.662 1.102 285.831 1 326 C1.66 326.33 2.32 326.66 3 327 C2.01 327 1.02 327 0 327 C0 219.09 0 111.18 0 0 Z " fill="#FA7105" transform="translate(3,3)"/>
</svg>
