<?xml version="1.0" encoding="UTF-8"?>
<!-- Generator: visioncortex VTracer 0.6.12 -->
<svg version="1.1" xmlns="http://www.w3.org/2000/svg" width="375" height="331">
<path d="M0 0 C123.75 0 247.5 0 375 0 C375 109.23 375 218.46 375 331 C251.25 331 127.5 331 0 331 C0 221.77 0 112.54 0 0 Z " fill="#DF0308" transform="translate(0,0)"/>
<path d="M0 0 C123.75 0 247.5 0 375 0 C375 109.23 375 218.46 375 331 C374.34 331 373.68 331 373 331 C373 223.09 373 115.18 373 4 C250.57 4 128.14 4 2 4 C2 111.91 2 219.82 2 331 C1.34 331 0.68 331 0 331 C0 221.77 0 112.54 0 0 Z " fill="#FCEEED" transform="translate(0,0)"/>
</svg>
