<?xml version="1.0" encoding="UTF-8"?>
<!-- Generator: visioncortex VTracer 0.6.12 -->
<svg version="1.1" xmlns="http://www.w3.org/2000/svg" width="375" height="331">
<path d="M0 0 C123.75 0 247.5 0 375 0 C375 109.23 375 218.46 375 331 C251.25 331 127.5 331 0 331 C0 221.77 0 112.54 0 0 Z " fill="#FDFDFC" transform="translate(0,0)"/>
<path d="M0 0 C123.75 0 247.5 0 375 0 C375 109.23 375 218.46 375 331 C374.34 331 373.68 331 373 331 C373 223.42 373 115.84 373 5 C251.23 5 129.46 5 4 5 C4 112.58 4 220.16 4 331 C2.68 331 1.36 331 0 331 C0 221.77 0 112.54 0 0 Z " fill="#E5E6E6" transform="translate(0,0)"/>
</svg>
