<?xml version="1.0" encoding="UTF-8"?>
<!-- Generator: visioncortex VTracer 0.6.12 -->
<svg version="1.1" xmlns="http://www.w3.org/2000/svg" width="164" height="170">
<path d="M0 0 C54.12 0 108.24 0 164 0 C164 56.1 164 112.2 164 170 C109.88 170 55.76 170 0 170 C0 113.9 0 57.8 0 0 Z " fill="#FCF7EC" transform="translate(0,0)"/>
<path d="M0 0 C3.297 0.33 4.623 0.623 7 3 C8.906 11.981 8.22 21.891 8.24 31.041 C8.25 33.665 8.281 36.288 8.312 38.912 C8.379 49.654 7.428 59.521 5 70 C4.896 70.459 4.896 70.459 4.37 72.781 C4.048 74.184 3.723 75.586 3.395 76.988 C2.961 79.201 2.754 81.379 2.562 83.625 C2.216 87.1 1.389 89.852 -0.137 93.027 C-1.186 95.426 -1.877 97.866 -2.625 100.375 C-4.439 105.951 -6.895 111.017 -9.625 116.188 C-10.022 116.943 -10.418 117.698 -10.827 118.476 C-13.739 123.87 -13.739 123.87 -16 125 C-15.503 120.625 -14.631 118.44 -12 115 C-10.091 110.837 -9 107.627 -9 103 C-12 104 -12 104 -13.188 106.062 C-13.456 106.702 -13.724 107.341 -14 108 C-15.32 108 -16.64 108 -18 108 C-19.747 104.173 -20.349 100.876 -20.625 96.688 C-20.7 95.619 -20.775 94.55 -20.852 93.449 C-20.901 92.641 -20.95 91.833 -21 91 C-21.516 91.165 -21.516 91.165 -24.125 92 C-27.484 92.972 -30.491 93.171 -34 93 C-34 91.68 -34 90.36 -34 89 C-35.32 88.34 -36.64 87.68 -38 87 C-37.67 85.68 -37.34 84.36 -37 83 C-39.64 83 -42.28 83 -45 83 C-45 81.68 -45 80.36 -45 79 C-47.64 79 -50.28 79 -53 79 C-52.505 78.835 -52.505 78.835 -50 78 C-49.835 77.505 -49.835 77.505 -49 75 C-48.505 75.165 -48.505 75.165 -46 76 C-46.66 73.855 -46.66 73.855 -50 63 C-55 67 -55 67 -57 70 C-58.65 69.67 -60.3 69.34 -62 69 C-62.248 69.681 -62.495 70.361 -62.75 71.062 C-64.242 74.569 -66.068 77.716 -68 81 C-69.18 77.511 -69.044 77.095 -67.375 73.461 C-66.598 72.091 -65.805 70.729 -65 69.375 C-64.589 68.667 -64.177 67.958 -63.753 67.228 C-54.513 51.504 -54.513 51.504 -50 50 C-48.221 47.594 -46.567 45.191 -44.938 42.688 C-41.343 37.331 -37.692 32.073 -33.625 27.062 C-32.854 26.105 -32.083 25.147 -31.289 24.16 C-28.709 21.726 -27.4 21.571 -24 21 C-22.262 19.434 -22.262 19.434 -20.688 17.438 C-15.099 10.697 -10.369 5.013 -2 2 C-1.34 1.34 -0.68 0.68 0 0 Z " fill="#7C471C" transform="translate(103,8)"/>
<path d="M0 0 C2 1 2 1 2.852 2.926 C3.107 3.713 3.362 4.501 3.625 5.312 C3.755 5.702 3.755 5.702 4.414 7.676 C5 10 5 10 5 14 C4.01 14 3.02 14 2 14 C1.67 14.66 1.34 15.32 1 16 C2.65 16.33 4.3 16.66 6 17 C6 18.32 6 19.64 6 21 C6.66 20.67 7.32 20.34 8 20 C10 19.96 12 19.957 14 20 C14.165 20.33 14.165 20.33 15 22 C14.835 22.495 14.835 22.495 14 25 C14.99 25.66 15.98 26.32 17 27 C17 28.32 17 29.64 17 31 C17.603 30.856 18.207 30.711 18.828 30.562 C19.627 30.377 20.427 30.191 21.25 30 C22.039 29.814 22.828 29.629 23.641 29.438 C26 29 26 29 30 29 C30.121 29.808 30.242 30.616 30.367 31.449 C30.535 32.518 30.702 33.586 30.875 34.688 C31.037 35.743 31.2 36.799 31.367 37.887 C31.959 40.798 32.803 43.29 34 46 C37.376 44.553 39.463 42.625 42 40 C42.33 40 42.66 40 43 40 C42.367 46.203 40.787 51.25 37.375 56.5 C36 59 36 59 35.75 62.188 C34.482 68.635 29.977 74.688 25 79 C24.01 79.33 23.02 79.66 22 80 C21.378 81.337 20.8 82.694 20.25 84.062 C18.941 86.234 18.941 86.234 17 88 C1.23 91.58 -15.974 83.132 -29 75 C-32.431 72.638 -35.532 70.385 -38 67 C-38.194 63.177 -37.46 61.092 -36 57.625 C-35.057 55.148 -34.857 53.561 -34.699 50.961 C-34.127 45.465 -32.145 40.964 -29.812 36 C-29.438 35.162 -29.064 34.324 -28.678 33.461 C-26.027 27.687 -23.099 21.894 -19 17 C-18.01 16.67 -17.02 16.34 -16 16 C-14.719 13.969 -14.719 13.969 -13.5 11.5 C-12.281 9.031 -12.281 9.031 -11 7 C-10.01 6.67 -9.02 6.34 -8 6 C-8 6.66 -8 7.32 -8 8 C-6.851 7.046 -5.706 6.086 -4.562 5.125 C-3.924 4.591 -3.286 4.058 -2.629 3.508 C-1 2 -1 2 0 0 Z " fill="#D5AD5C" transform="translate(52,70)"/>
<path d="M0 0 C1.65 0 3.3 0 5 0 C5 56.1 5 112.2 5 170 C-49.12 170 -103.24 170 -159 170 C-159 168.02 -159 166.04 -159 164 C-158.215 164.002 -157.43 164.004 -156.622 164.006 C-137.535 164.05 -118.448 164.083 -99.361 164.104 C-90.131 164.114 -80.901 164.128 -71.67 164.151 C-63.626 164.171 -55.582 164.184 -47.538 164.188 C-43.278 164.191 -39.018 164.197 -34.758 164.211 C-30.749 164.225 -26.741 164.229 -22.732 164.226 C-21.26 164.227 -19.787 164.231 -18.315 164.238 C-16.307 164.248 -14.298 164.245 -12.289 164.241 C-11.165 164.242 -10.04 164.244 -8.882 164.246 C-6.021 164.002 -4.375 163.579 -2 162 C-0.593 159.185 -0.859 156.835 -0.842 153.685 C-0.837 153.03 -0.832 152.375 -0.827 151.7 C-0.811 149.495 -0.803 147.29 -0.795 145.085 C-0.785 143.509 -0.775 141.932 -0.765 140.356 C-0.738 136.067 -0.717 131.778 -0.697 127.489 C-0.675 123.01 -0.647 118.531 -0.621 114.052 C-0.571 105.566 -0.526 97.08 -0.483 88.595 C-0.433 78.936 -0.378 69.277 -0.323 59.618 C-0.209 39.745 -0.102 19.873 0 0 Z " fill="#FDFDFD" transform="translate(159,0)"/>
<path d="M0 0 C2.5 0.082 3.835 0.191 6.062 1.375 C7.584 4.323 7.177 7.043 7.062 10.312 C7.36 11.654 7.685 12.991 8.062 14.312 C8.813 14.361 9.563 14.41 10.336 14.461 C29.62 15.87 29.62 15.87 35.062 21.312 C33.188 27.187 33.188 27.187 32.062 28.312 C30.396 28.353 28.729 28.355 27.062 28.312 C27.062 28.972 27.062 29.632 27.062 30.312 C28.053 30.642 29.042 30.972 30.062 31.312 C29.614 36.241 27.223 39.65 24.062 43.312 C20.58 45.054 16.861 44.902 13.177 43.694 C11.157 42.81 9.195 41.851 7.23 40.848 C6.513 40.495 5.795 40.142 5.055 39.779 C2.78 38.657 0.515 37.516 -1.75 36.375 C-3.29 35.611 -4.831 34.849 -6.373 34.088 C-10.235 32.178 -14.088 30.249 -17.938 28.312 C-18.598 27.983 -19.258 27.653 -19.938 27.312 C-19.485 20.941 -17.877 16.412 -14.875 10.812 C-14.686 10.449 -14.686 10.449 -13.732 8.609 C-12.812 6.838 -11.876 5.074 -10.938 3.312 C-10.277 3.312 -9.617 3.312 -8.938 3.312 C-8.938 4.302 -8.938 5.293 -8.938 6.312 C-8.277 6.312 -7.617 6.312 -6.938 6.312 C-6.814 5.694 -6.69 5.075 -6.562 4.438 C-5.382 0.424 -4.134 0.328 0 0 Z " fill="#FDEAB9" transform="translate(38.9375,97.6875)"/>
<path d="M0 0 C0.33 0 0.66 0 1 0 C1 1.65 1 3.3 1 5 C1.66 5 2.32 5 3 5 C3 4.34 3 3.68 3 3 C12.41 0.704 12.41 0.704 17 1 C17 1.99 17 2.98 17 4 C17.598 4.289 18.196 4.578 18.812 4.875 C21 6 21 6 24 8 C23.691 8.578 23.381 9.155 23.062 9.75 C22.074 11.843 21.483 13.745 21 16 C21.99 16.33 22.98 16.66 24 17 C24.33 15.68 24.66 14.36 25 13 C27.31 12.34 29.62 11.68 32 11 C32.086 11.785 32.173 12.57 32.262 13.379 C33.551 23.016 33.551 23.016 36.688 26.938 C39 30 39 30 38.688 32.812 C38.461 33.534 38.234 34.256 38 35 C38.66 35.66 39.32 36.32 40 37 C40 38.32 40 39.64 40 41 C40.557 40.526 41.114 40.051 41.688 39.562 C44.183 37.876 46.045 37.41 49 37 C48.979 38.114 48.959 39.227 48.938 40.375 C49 44 49 44 50 46 C48.775 49.088 47.447 52.013 46 55 C45.688 55.651 45.375 56.301 45.053 56.972 C44.003 59.152 42.941 61.327 41.875 63.5 C41.526 64.219 41.178 64.938 40.819 65.678 C38.232 70.884 38.232 70.884 36 72 C36.497 67.625 37.369 65.44 40 62 C41.909 57.837 43 54.627 43 50 C40 51 40 51 38.812 53.062 C38.544 53.702 38.276 54.341 38 55 C36.68 55 35.36 55 34 55 C32.253 51.173 31.651 47.876 31.375 43.688 C31.3 42.619 31.225 41.55 31.148 40.449 C31.099 39.641 31.05 38.833 31 38 C30.484 38.165 30.484 38.165 27.875 39 C24.516 39.972 21.509 40.171 18 40 C18 38.68 18 37.36 18 36 C16.68 35.34 15.36 34.68 14 34 C14.33 32.68 14.66 31.36 15 30 C12.36 30 9.72 30 7 30 C7 28.68 7 27.36 7 26 C4.36 26 1.72 26 -1 26 C-0.01 25.67 0.98 25.34 2 25 C2.33 24.01 2.66 23.02 3 22 C3.99 22.33 4.98 22.66 6 23 C4.68 18.71 3.36 14.42 2 10 C-3 14 -3 14 -5 17 C-6.32 16.67 -7.64 16.34 -9 16 C-7.007 10.383 -4.246 4.246 0 0 Z " fill="#C17434" transform="translate(51,61)"/>
<path d="M0 0 C0.66 0 1.32 0 2 0 C2.068 0.262 2.068 0.262 2.41 1.59 C4.027 7.407 6.149 12.888 8.5 18.438 C11.205 24.864 13.479 31.177 15 38 C15.204 38.873 15.407 39.745 15.617 40.645 C16.687 45.533 17.217 50 17 55 C18.32 55.33 19.64 55.66 21 56 C21 58.31 21 60.62 21 63 C21.99 63 22.98 63 24 63 C24.33 62.01 24.66 61.02 25 60 C25.495 60.33 25.495 60.33 28 62 C28.33 60.35 28.66 58.7 29 57 C29.33 57 29.66 57 30 57 C30.734 63.755 28.276 68.185 25 74 C24.67 74 24.34 74 24 74 C24 71.69 24 69.38 24 67 C23.618 67.155 23.618 67.155 21.688 67.938 C19.812 68.679 17.913 69.362 16 70 C14.502 66.629 14 64.796 14 61 C13.054 58.744 11.94 56.918 10.5 54.938 C8.247 50.525 7.725 45.867 7 41 C6.01 41.165 6.01 41.165 1 42 C0.67 43.32 0.34 44.64 0 46 C-1.32 45.67 -2.64 45.34 -4 45 C-3.691 44.237 -3.381 43.474 -3.062 42.688 C-2.321 40.812 -1.638 38.913 -1 37 C-1.99 36.402 -2.98 35.804 -4 35.188 C-4.99 34.466 -5.98 33.744 -7 33 C-7 32.01 -7 31.02 -7 30 C-11.62 30.66 -16.24 31.32 -21 32 C-21 32.66 -21 33.32 -21 34 C-21.66 34 -22.32 34 -23 34 C-23.33 32.68 -23.66 31.36 -24 30 C-28.307 35.7 -31.645 41.703 -35 48 C-35.954 49.731 -36.912 51.461 -37.875 53.188 C-38.08 53.556 -38.08 53.556 -39.117 55.418 C-39.263 55.679 -39.263 55.679 -40 57 C-41.18 53.511 -41.044 53.095 -39.375 49.461 C-38.597 48.091 -37.805 46.729 -37 45.375 C-36.591 44.667 -36.182 43.96 -35.76 43.23 C-32.468 37.61 -28.901 32.218 -25 27 C-23.68 27.33 -22.36 27.66 -21 28 C-20.655 27.486 -20.655 27.486 -18.91 24.887 C-6.421 6.421 -6.421 6.421 0 0 Z " fill="#925826" transform="translate(75,32)"/>
<path d="M0 0 C6.507 9.761 3.932 30.834 1.75 42.125 C1.192 44.759 0.613 47.379 0 50 C-0.176 50.773 -0.353 51.546 -0.535 52.343 C-1.653 57.238 -2.811 62.122 -4 67 C-4.99 67 -5.98 67 -7 67 C-7.165 66.67 -7.165 66.67 -8 65 C-8.33 65.66 -8.66 66.32 -9 67 C-9.99 67 -10.98 67 -12 67 C-12.33 64.69 -12.66 62.38 -13 60 C-13.99 59.67 -14.98 59.34 -16 59 C-16.159 57.958 -16.317 56.917 -16.48 55.844 C-18.328 44.286 -20.791 32.917 -25.719 22.227 C-27 19 -27 19 -26 16 C-25.518 16.976 -25.036 17.952 -24.539 18.957 C-23.901 20.242 -23.263 21.527 -22.625 22.812 C-22.308 23.455 -21.991 24.098 -21.664 24.76 C-20.235 27.632 -18.782 30.327 -17 33 C-14.688 32.562 -14.688 32.562 -12 31 C-10.6 28.105 -9.786 25.111 -9 22 C-8.803 21.389 -8.606 20.778 -8.402 20.148 C-7.825 17.067 -8.144 14.125 -8.312 11 C-8.386 4.552 -8.386 4.552 -6.738 2.195 C-4.554 0.746 -2.633 0 0 0 Z " fill="#6E3E18" transform="translate(108,28)"/>
<path d="M0 0 C0.33 0.66 0.66 1.32 1 2 C0.67 2.66 0.34 3.32 0 4 C0.99 4.33 1.98 4.66 3 5 C3 5.99 3 6.98 3 8 C3.99 8 4.98 8 6 8 C6.33 7.01 6.66 6.02 7 5 C8.898 5.427 10.794 5.867 12.688 6.312 C13.743 6.556 14.799 6.8 15.887 7.051 C19.07 8.021 21.41 8.901 24 11 C24.277 13.34 24.277 13.34 23.938 15.938 C23.797 18.617 23.797 18.617 24 21 C27.348 24.192 30.431 25.463 35 26 C35.165 26.825 35.165 26.825 36 31 C36.66 31 37.32 31 38 31 C37.01 33.97 36.02 36.94 35 40 C34.34 40 33.68 40 33 40 C32.773 40.701 32.546 41.403 32.312 42.125 C30.648 45.771 28.905 48.224 26 51 C19.647 52.271 13.82 49.357 8 47 C8.99 46.34 9.98 45.68 11 45 C16.605 39.805 16.605 39.805 18 36 C18 35.01 18 34.02 18 33 C17.34 32.67 16.68 32.34 16 32 C16 31.34 16 30.68 16 30 C17.65 29.67 19.3 29.34 21 29 C21.66 27.02 22.32 25.04 23 23 C17.11 18.232 11.357 17.983 3.992 17.311 C1.566 17.028 -0.671 16.738 -3 16 C-5.147 12.856 -5.053 11.469 -4.625 7.688 C-4.419 6.801 -4.212 5.914 -4 5 C-4.32 4.856 -4.32 4.856 -5.938 4.125 C-8 3 -8 3 -9 1 C-5.68 -1.09 -3.732 -1.21 0 0 Z " fill="#FCD38E" transform="translate(50,96)"/>
<path d="M0 0 C0 1.32 0 2.64 0 4 C0.66 3.67 1.32 3.34 2 3 C4 2.96 6 2.957 8 3 C8.165 3.33 8.165 3.33 9 5 C8.67 5.99 8.34 6.98 8 8 C8.99 8.66 9.98 9.32 11 10 C11 11.32 11 12.64 11 14 C11.603 13.856 12.207 13.711 12.828 13.562 C13.627 13.377 14.427 13.191 15.25 13 C16.039 12.814 16.828 12.629 17.641 12.438 C20 12 20 12 24 12 C24.121 12.808 24.242 13.616 24.367 14.449 C24.451 14.984 24.451 14.984 24.875 17.688 C24.956 18.215 24.956 18.215 25.367 20.887 C25.959 23.798 26.803 26.29 28 29 C31.376 27.553 33.463 25.625 36 23 C36.33 23 36.66 23 37 23 C36.327 29.592 34.685 34.473 31 40 C30.01 40 29.02 40 28 40 C27.67 38.35 27.34 36.7 27 35 C26.443 35.248 25.886 35.495 25.312 35.75 C23 36 23 36 20.438 34.25 C19.633 33.507 18.829 32.765 18 32 C17.402 31.567 16.804 31.134 16.188 30.688 C14.242 27.923 14.763 25.265 15 22 C15.33 21.34 15.66 20.68 16 20 C10.344 18.293 4.685 16.607 -1 15 C-1.33 15.66 -1.66 16.32 -2 17 C-2.99 17 -3.98 17 -5 17 C-5.33 16.01 -5.66 15.02 -6 14 C-6.66 13.67 -7.32 13.34 -8 13 C-8.625 10.937 -8.625 10.937 -9 9 C-14.55 9.793 -20.196 10.975 -25 14 C-25.33 14.99 -25.66 15.98 -26 17 C-26.66 17 -27.32 17 -28 17 C-28 16.01 -28 15.02 -28 14 C-28.66 14 -29.32 14 -30 14 C-29.11 11.007 -28.459 9.348 -25.938 7.438 C-17.41 3.264 -9.727 -0.397 0 0 Z " fill="#F4B366" transform="translate(58,87)"/>
<path d="M0 0 C4.578 0.613 8.276 2.507 12.312 4.625 C39.123 18.349 39.123 18.349 52 20 C51.453 23.375 50.945 25.082 49 28 C41.148 29.149 34.252 27.864 27 25 C25.022 24.394 23.042 23.79 21.062 23.188 C11.959 20.145 4.487 14.897 -3 9 C-2.502 5.265 -2.125 3.188 0 0 Z " fill="#FAE5AC" transform="translate(19,128)"/>
<path d="M0 0 C0.639 -0.008 0.639 -0.008 3.871 -0.051 C7.94 0.35 11.582 1.332 14.562 4.312 C14.53 6.022 14.461 7.73 14.375 9.438 C14.295 15.026 15.458 17.752 18.562 22.312 C18.562 22.972 18.562 23.632 18.562 24.312 C19.14 23.983 19.718 23.653 20.312 23.312 C22.562 22.312 22.562 22.312 26.562 22.312 C26.727 21.817 26.727 21.817 27.562 19.312 C28.979 23.563 27.756 26.031 26.562 30.312 C25.903 29.323 25.243 28.332 24.562 27.312 C21.562 28.312 21.562 28.312 20.375 30.375 C20.107 31.014 19.839 31.654 19.562 32.312 C18.243 32.312 16.922 32.312 15.562 32.312 C13.816 28.485 13.214 25.188 12.938 21 C12.863 19.931 12.788 18.863 12.711 17.762 C12.662 16.953 12.613 16.145 12.562 15.312 C11.531 15.642 10.5 15.972 9.438 16.312 C6.078 17.284 3.071 17.484 -0.438 17.312 C-0.438 15.993 -0.438 14.672 -0.438 13.312 C-1.757 12.653 -3.078 11.993 -4.438 11.312 C-4.108 9.993 -3.778 8.672 -3.438 7.312 C-6.078 7.312 -8.718 7.312 -11.438 7.312 C-11.767 5.662 -12.097 4.013 -12.438 2.312 C-8.213 0.277 -4.665 0.014 0 0 Z " fill="#DF8E45" transform="translate(69.4375,83.6875)"/>
<path d="M0 0 C0.33 0 0.66 0 1 0 C2.715 9.675 1.085 17.65 -1.444 26.939 C-2.346 30.281 -3.168 33.641 -4 37 C-4.99 37 -5.98 37 -7 37 C-7.33 36.34 -7.66 35.68 -8 35 C-8.33 35.66 -8.66 36.32 -9 37 C-9.99 37 -10.98 37 -12 37 C-12.33 34.69 -12.66 32.38 -13 30 C-13.99 29.67 -14.98 29.34 -16 29 C-16.205 27.831 -16.41 26.662 -16.621 25.457 C-16.893 23.909 -17.165 22.361 -17.438 20.812 C-17.505 20.428 -17.505 20.428 -17.846 18.482 C-18.521 14.645 -19.212 10.816 -20 7 C-18.091 5.965 -16.173 4.947 -14.25 3.938 C-13.716 3.653 -13.716 3.653 -11.016 2.215 C-7.974 0.99 -6.951 0.747 -4 2 C-5.29 3.376 -6.627 4.708 -8 6 C-8.66 6 -9.32 6 -10 6 C-9.988 6.557 -9.977 7.114 -9.965 7.688 C-9.918 11.621 -9.994 15.362 -10.625 19.25 C-11 22.996 -10.738 24.729 -9 28 C-8.34 28 -7.68 28 -7 28 C-6.89 27.357 -6.781 26.714 -6.668 26.051 C-3.056 5.467 -3.056 5.467 0 0 Z " fill="#834B1F" transform="translate(108,58)"/>
<path d="M0 0 C2 1 2 1 2.852 2.926 C3.107 3.713 3.362 4.501 3.625 5.312 C3.755 5.702 3.755 5.702 4.414 7.676 C5 10 5 10 5 14 C4.01 14 3.02 14 2 14 C1.319 14.763 0.639 15.526 -0.062 16.312 C-3.484 19.443 -6.047 20.094 -10.434 21.258 C-16.195 22.924 -21.057 25.4 -25 30 C-24.607 24.63 -22.676 20.857 -19 17 C-18.01 16.67 -17.02 16.34 -16 16 C-14.719 13.969 -14.719 13.969 -13.5 11.5 C-12.281 9.031 -12.281 9.031 -11 7 C-10.01 6.67 -9.02 6.34 -8 6 C-8 6.66 -8 7.32 -8 8 C-6.851 7.046 -5.706 6.086 -4.562 5.125 C-3.924 4.591 -3.286 4.058 -2.629 3.508 C-1 2 -1 2 0 0 Z " fill="#E19046" transform="translate(52,70)"/>
<path d="M0 0 C7.188 0.327 12.741 3.685 19 7 C20.092 7.519 21.184 8.039 22.309 8.574 C25 10 25 10 26 11.938 C26 14.439 25.165 15.82 24 18 C14.056 17.829 4.704 13.201 -3 7 C-2.387 4.038 -1.746 2.619 0 0 Z " fill="#FCEEC2" transform="translate(24,134)"/>
<path d="M0 0 C1.208 3.623 0.543 4.641 -1 8 C-1.66 8 -2.32 8 -3 8 C-3.227 8.701 -3.454 9.403 -3.688 10.125 C-5.352 13.771 -7.095 16.224 -10 19 C-16.353 20.271 -22.18 17.357 -28 15 C-27.01 14.34 -26.02 13.68 -25 13 C-20.771 9.3 -18.92 6.155 -17 1 C-15.845 1.495 -15.845 1.495 -10 4 C-10 4.66 -10 5.32 -10 6 C-8.68 6.33 -7.36 6.66 -6 7 C-5.752 6.402 -5.505 5.804 -5.25 5.188 C-3.836 2.714 -2.349 1.566 0 0 Z " fill="#F4D897" transform="translate(86,128)"/>
<path d="M0 0 C2.5 1.375 2.5 1.375 5 3 C5 3.66 5 4.32 5 5 C6.32 5.66 7.64 6.32 9 7 C9 9.31 9 11.62 9 14 C10.32 14.33 11.64 14.66 13 15 C13 17.31 13 19.62 13 22 C13.99 22 14.98 22 16 22 C16.33 21.01 16.66 20.02 17 19 C17.99 19.66 18.98 20.32 20 21 C20.33 19.35 20.66 17.7 21 16 C21.33 16 21.66 16 22 16 C22.734 22.755 20.276 27.185 17 33 C16.67 33 16.34 33 16 33 C16 30.69 16 28.38 16 26 C15.618 26.155 15.618 26.155 13.688 26.938 C11.812 27.679 9.913 28.362 8 29 C6.502 25.629 6 23.796 6 20 C5.041 17.714 3.937 15.916 2.438 13.938 C0.258 9.484 0.249 4.901 0 0 Z " fill="#A76229" transform="translate(83,73)"/>
<path d="M0 0 C0.33 0.66 0.66 1.32 1 2 C3.145 2.273 3.145 2.273 5.812 2.375 C10.674 2.744 10.674 2.744 13.625 5.062 C13.852 5.382 13.852 5.382 15 7 C13.02 7 11.04 7 9 7 C5.923 12.415 5.923 12.415 6.312 15.375 C6.426 15.643 6.426 15.643 7 17 C7.928 17.144 8.856 17.289 9.812 17.438 C13 18 13 18 16 19 C15.67 19.825 15.67 19.825 14 24 C9.447 23.382 5.715 21.532 1.688 19.438 C1.042 19.108 0.397 18.779 -0.268 18.439 C-1.848 17.632 -3.424 16.817 -5 16 C-4.556 9.79 -3.085 5.395 0 0 Z " fill="#FCEDC0" transform="translate(24,109)"/>
<path d="M0 0 C2.136 6.205 3.365 11.427 3 18 C2.34 18 1.68 18 1 18 C0.67 17.34 0.34 16.68 0 16 C-0.99 16.33 -1.98 16.66 -3 17 C-3.72 18.981 -4.38 20.985 -5 23 C-5.956 24.692 -6.944 26.368 -8 28 C-9.65 27.67 -11.3 27.34 -13 27 C-12.355 23.515 -10.899 20.972 -9 18 C-9.99 17.34 -10.98 16.68 -12 16 C-11.057 10.463 -6.508 0 0 0 Z " fill="#955B29" transform="translate(77,32)"/>
<path d="M0 0 C1.32 0 2.64 0 4 0 C4.121 0.808 4.242 1.616 4.367 2.449 C4.535 3.518 4.702 4.586 4.875 5.688 C5.037 6.743 5.2 7.799 5.367 8.887 C5.959 11.798 6.803 14.29 8 17 C11.376 15.553 13.463 13.625 16 11 C16.33 11 16.66 11 17 11 C16.327 17.592 14.685 22.473 11 28 C10.01 28 9.02 28 8 28 C7.67 26.35 7.34 24.7 7 23 C6.701 23.113 6.701 23.113 5.188 23.688 C3 24 3 24 1.312 23 C-0.655 20.002 -1.226 17.52 -1 14 C0.103 9.583 1.495 5.295 3 1 C2.01 0.67 1.02 0.34 0 0 Z " fill="#E7A455" transform="translate(78,99)"/>
<path d="M0 0 C0.66 0 1.32 0 2 0 C2.66 4.62 3.32 9.24 4 14 C1.544 15.338 -0.914 16.671 -3.375 18 C-4.074 18.382 -4.772 18.763 -5.492 19.156 C-10.773 22 -10.773 22 -13 22 C-14 19 -14 19 -14 15 C-12.273 12.704 -10.345 10.917 -8.207 9 C-6.127 7.115 -4.392 5.175 -2.625 3 C-1.759 2.01 -0.892 1.02 0 0 Z " fill="#955C2C" transform="translate(93,16)"/>
<path d="M0 0 C0.722 0.474 1.444 0.949 2.188 1.438 C4.895 2.942 6.962 3.566 10 4 C10.33 5.65 10.66 7.3 11 9 C11.66 9 12.32 9 13 9 C11.489 12.022 8.77 13.153 6 15 C5.67 15.66 5.34 16.32 5 17 C2.689 16.602 1.334 16.35 -0.312 14.625 C-2.848 12.183 -5.739 11.292 -9 10 C-9 9.34 -9 8.68 -9 8 C-8.257 7.979 -7.515 7.959 -6.75 7.938 C-3.572 6.854 -3.272 6.255 -1.688 3.438 C-1.131 2.303 -0.574 1.169 0 0 Z " fill="#F2CB81" transform="translate(75,118)"/>
<path d="M0 0 C0.993 0.531 1.985 1.062 3.008 1.609 C15.838 8.342 30.151 14.937 45 12 C47.43 9.465 47.43 9.465 49 7 C49.66 7.99 50.32 8.98 51 10 C54.3 9.34 57.6 8.68 61 8 C54.916 14.084 46.657 14.396 38.38 14.518 C37.244 14.512 36.108 14.506 34.938 14.5 C33.758 14.499 32.578 14.497 31.362 14.496 C9.109 14.109 9.109 14.109 3 8 C2.959 6.334 2.957 4.666 3 3 C2.01 2.67 1.02 2.34 0 2 C0 1.34 0 0.68 0 0 Z " fill="#E6D4AD" transform="translate(24,145)"/>
<path d="M0 0 C5.28 1.32 10.56 2.64 16 4 C15 9 15 9 13 12 C5.853 12.941 -1.161 12.146 -8 10 C-8 9.67 -8 9.34 -8 9 C-7.051 8.814 -6.102 8.629 -5.125 8.438 C-4.094 7.963 -3.062 7.489 -2 7 C-1.34 4.69 -0.68 2.38 0 0 Z " fill="#F0D491" transform="translate(55,144)"/>
<path d="M0 0 C0.33 0 0.66 0 1 0 C2.715 9.675 1.085 17.65 -1.444 26.939 C-2.346 30.281 -3.168 33.641 -4 37 C-4.99 37 -5.98 37 -7 37 C-7.33 36.34 -7.66 35.68 -8 35 C-8.33 35.66 -8.66 36.32 -9 37 C-9.99 37 -10.98 37 -12 37 C-11.67 35.68 -11.34 34.36 -11 33 C-10.34 33 -9.68 33 -9 33 C-3.64 13.075 -3.64 13.075 -2.457 5.91 C-1.937 3.736 -1.065 1.959 0 0 Z " fill="#825127" transform="translate(108,58)"/>
<path d="M0 0 C3.297 0.33 4.623 0.623 7 3 C7.195 5.602 7.195 5.602 7.125 8.625 C7.107 9.628 7.089 10.631 7.07 11.664 C7.047 12.435 7.024 13.206 7 14 C5.68 12.68 4.36 11.36 3 10 C1.35 12.97 -0.3 15.94 -2 19 C-2.99 18.67 -3.98 18.34 -5 18 C-5.941 15.178 -6.036 13.808 -5.875 10.938 C-5.896 10.288 -5.896 10.288 -6 7 C-6.99 6.34 -7.98 5.68 -9 5 C-7.886 4.546 -6.772 4.093 -5.625 3.625 C-2 2 -2 2 0 0 Z " fill="#865D39" transform="translate(103,8)"/>
<path d="M0 0 C0.33 0.66 0.66 1.32 1 2 C1.99 2.33 2.98 2.66 4 3 C3.552 7.929 1.16 11.338 -2 15 C-5.079 16.54 -7.588 16.224 -11 16 C-14.527 14.688 -14.527 14.688 -17.938 13 C-19.081 12.443 -20.224 11.886 -21.402 11.312 C-21.831 11.096 -21.831 11.096 -24 10 C-24 9.67 -24 9.34 -24 9 C-20.354 8.926 -17.138 8.97 -13.562 9.75 C-8.894 10.078 -5.682 8.89 -2 6 C-1.062 3.312 -1.062 3.312 -1 1 C-0.67 0.67 -0.34 0.34 0 0 Z " fill="#FAE3A8" transform="translate(65,126)"/>
<path d="M0 0 C0.949 0.041 1.898 0.082 2.875 0.125 C2.421 0.641 1.968 1.156 1.5 1.688 C-0.536 4.742 -1.345 7.55 -2.125 11.125 C-1.795 12.115 -1.465 13.105 -1.125 14.125 C0.525 14.455 2.175 14.785 3.875 15.125 C3.545 15.785 3.215 16.445 2.875 17.125 C-0.937 16.452 -4.457 15.348 -8.125 14.125 C-9.786 13.764 -11.451 13.42 -13.125 13.125 C-14.125 10.125 -14.125 10.125 -13.348 8.301 C-12.273 6.576 -11.199 4.85 -10.125 3.125 C-9.465 3.125 -8.805 3.125 -8.125 3.125 C-8.125 4.115 -8.125 5.105 -8.125 6.125 C-7.465 6.125 -6.805 6.125 -6.125 6.125 C-6.001 5.506 -5.877 4.888 -5.75 4.25 C-4.699 0.677 -3.695 0.148 0 0 Z " fill="#FCDF9F" transform="translate(38.125,97.875)"/>
<path d="M0 0 C4.429 5.143 4.429 5.143 5 9 C5.578 8.67 6.155 8.34 6.75 8 C9 7 9 7 13 7 C13.33 6.01 13.66 5.02 14 4 C15.417 8.251 14.193 10.719 13 15 C12.34 14.01 11.68 13.02 11 12 C8 13 8 13 6.812 15.062 C6.544 15.702 6.276 16.341 6 17 C4.68 17 3.36 17 2 17 C-0.363 12.275 -0.88 7.228 -1 2 C-0.67 1.34 -0.34 0.68 0 0 Z " fill="#D3843D" transform="translate(83,99)"/>
<path d="M0 0 C2.041 6.122 2.274 9.379 -0.551 15.148 C-1.029 16.089 -1.507 17.03 -2 18 C-2.662 19.366 -3.322 20.734 -3.98 22.102 C-4.694 23.568 -5.409 25.034 -6.125 26.5 C-6.474 27.219 -6.822 27.938 -7.181 28.679 C-9.769 33.885 -9.769 33.885 -12 35 C-11.503 30.625 -10.631 28.44 -8 25 C-6.917 22.338 -5.927 19.715 -5 17 C-4.859 16.596 -4.859 16.596 -4.145 14.551 C-2 8.298 -2 8.298 -2 6 C-2.33 6.66 -2.66 7.32 -3 8 C-4.65 8 -6.3 8 -8 8 C-5.662 2.338 -5.662 2.338 -2.312 0.625 C-1.549 0.419 -0.786 0.213 0 0 Z " fill="#B76A2F" transform="translate(99,98)"/>
<path d="M0 0 C2.46 1.059 4.918 2.121 7.375 3.188 C8.112 3.507 8.848 3.827 9.607 4.156 C13.5 5.859 17.308 7.63 21.062 9.625 C26.386 12.373 31.981 14.091 37.68 15.887 C40.29 16.762 42.598 17.678 45 19 C44.34 19.66 43.68 20.32 43 21 C43 20.34 43 19.68 43 19 C42.129 19.041 41.257 19.083 40.359 19.125 C31.584 18.798 22.608 13.446 14.625 9.938 C13.876 9.609 13.128 9.281 12.356 8.943 C7.73 6.879 3.359 4.582 -1 2 C-0.67 1.34 -0.34 0.68 0 0 Z " fill="#E8C87C" transform="translate(28,129)"/>
<path d="M0 0 C0.33 0 0.66 0 1 0 C1.055 1.541 1.093 3.083 1.125 4.625 C1.148 5.484 1.171 6.342 1.195 7.227 C0.954 10.651 0.562 12.912 -1 16 C-3.444 17.845 -6.089 19.063 -8.875 20.312 C-9.596 20.659 -10.316 21.005 -11.059 21.361 C-14.351 22.916 -17.438 24.196 -21 25 C-21.412 23.886 -21.825 22.773 -22.25 21.625 C-23.159 19.173 -24.104 16.755 -25.125 14.348 C-25.496 13.47 -25.868 12.592 -26.25 11.688 C-26.428 11.277 -26.428 11.277 -27.328 9.199 C-28 7 -28 7 -27 4 C-26.518 4.976 -26.036 5.952 -25.539 6.957 C-24.901 8.242 -24.263 9.527 -23.625 10.812 C-23.308 11.455 -22.991 12.098 -22.664 12.76 C-21.235 15.632 -19.782 18.327 -18 21 C-15.701 20.1 -13.412 19.181 -11.125 18.25 C-10.474 17.997 -9.823 17.745 -9.152 17.484 C-4.387 15.519 -4.387 15.519 -2.625 13.156 C-1.865 10.533 -1.324 7.944 -0.875 5.25 C-0.707 4.265 -0.54 3.28 -0.367 2.266 C-0.246 1.518 -0.125 0.77 0 0 Z " fill="#5D3210" transform="translate(109,40)"/>
<path d="M0 0 C0.33 0 0.66 0 1 0 C0.67 2.31 0.34 4.62 0 7 C-0.99 7.33 -1.98 7.66 -3 8 C-3.555 9.996 -3.555 9.996 -3.875 12.438 C-4.328 14.898 -4.328 14.898 -5 17 C-7.625 18.562 -7.625 18.562 -10 19 C-11 16 -11 16 -11 12 C-9.221 9.672 -7.272 7.832 -5.078 5.895 C-3.076 4.069 -1.6 2.173 0 0 Z " fill="#8E5626" transform="translate(90,19)"/>
<path d="M0 0 C0.66 0.99 1.32 1.98 2 3 C0.923 4.754 -0.162 6.503 -1.25 8.25 C-1.853 9.225 -2.457 10.199 -3.078 11.203 C-5.667 14.971 -7.61 17.537 -12 19 C-13.035 20.848 -13.035 20.848 -14.062 23.062 C-15.328 25.254 -15.328 25.254 -17 27 C-20.425 27.709 -23.552 27.482 -27 27 C-27 26.67 -27 26.34 -27 26 C-25.804 26.021 -24.608 26.041 -23.375 26.062 C-20.363 25.717 -19.314 25.365 -17.309 23.035 C-16.304 21.417 -15.324 19.784 -14.367 18.137 C-12.663 15.474 -10.693 14.588 -8 13 C-6.569 10.941 -5.327 8.838 -4.113 6.645 C-3.746 6.102 -3.379 5.559 -3 5 C-2.34 5 -1.68 5 -1 5 C-0.67 3.35 -0.34 1.7 0 0 Z " fill="#C89B47" transform="translate(86,131)"/>
<path d="M0 0 C6.4 0.492 6.4 0.492 9.438 3.062 C9.695 3.382 9.695 3.382 11 5 C9.32 7.053 8.479 7.928 5.809 8.328 C5.417 8.315 5.417 8.315 3.438 8.25 C3.045 8.242 3.045 8.242 1.059 8.203 C-1 8 -1 8 -3 7 C-2.387 4.038 -1.746 2.619 0 0 Z " fill="#FDF5D9" transform="translate(24,134)"/>
<path d="M0 0 C-0.717 0.527 -1.433 1.054 -2.172 1.598 C-5.303 4.258 -7.763 7.195 -10.25 10.438 C-10.721 11.044 -11.192 11.65 -11.677 12.274 C-16.356 18.353 -20.719 24.636 -25 31 C-25.99 30.34 -26.98 29.68 -28 29 C-27.46 28.51 -26.92 28.02 -26.363 27.516 C-23.234 24.185 -20.769 20.512 -18.188 16.75 C-6.137 -0.488 -6.137 -0.488 0 0 Z " fill="#673E1F" transform="translate(79,30)"/>
<path d="M0 0 C2.147 0.809 4.293 1.622 6.438 2.438 C7.632 2.89 8.827 3.342 10.059 3.809 C13 5 13 5 14 6 C13.4 12.6 13.4 12.6 11 15 C7.875 15.125 7.875 15.125 5 15 C5.66 14.67 6.32 14.34 7 14 C7.407 11.678 7.744 9.343 8 7 C5.36 5.68 2.72 4.36 0 3 C0 2.01 0 1.02 0 0 Z " fill="#F8E1A7" transform="translate(41,138)"/>
<path d="M0 0 C0.66 0.33 1.32 0.66 2 1 C1.55 6.853 -1.038 11.082 -4 16 C-5.65 15.67 -7.3 15.34 -9 15 C-8.399 10.993 -6.334 8.445 -3.938 5.25 C-3.571 4.758 -3.571 4.758 -1.715 2.266 C-1.149 1.518 -0.583 0.77 0 0 Z " fill="#AD723E" transform="translate(73,44)"/>
<path d="M0 0 C1.32 0.66 2.64 1.32 4 2 C3.67 3.65 3.34 5.3 3 7 C2.34 5.68 1.68 4.36 1 3 C-3.307 8.7 -6.645 14.703 -10 21 C-10.954 22.731 -11.912 24.461 -12.875 26.188 C-13.285 26.924 -13.695 27.66 -14.117 28.418 C-14.409 28.94 -14.7 29.462 -15 30 C-16.18 26.511 -16.044 26.095 -14.375 22.461 C-13.597 21.091 -12.805 19.729 -12 18.375 C-11.591 17.667 -11.182 16.96 -10.76 16.23 C-7.468 10.61 -3.901 5.218 0 0 Z " fill="#8F4A1E" transform="translate(50,59)"/>
<path d="M0 0 C0 0.99 0 1.98 0 3 C-2.208 3.572 -4.373 4.062 -6.625 4.438 C-9 5 -9 5 -11 7 C-11.195 9.164 -11.195 9.164 -11.125 11.625 C-11.107 12.442 -11.089 13.26 -11.07 14.102 C-11.047 14.728 -11.024 15.355 -11 16 C-14.338 12.359 -14.979 8.714 -16 4 C-15.34 4 -14.68 4 -14 4 C-14 3.34 -14 2.68 -14 2 C-4.59 -0.296 -4.59 -0.296 0 0 Z " fill="#B16F36" transform="translate(68,62)"/>
<path d="M0 0 C-0.461 4.702 -1.032 8.233 -4 12 C-4.99 12 -5.98 12 -7 12 C-8.42 9.159 -8.315 7.145 -8 4 C-5.325 0.369 -4.647 0 0 0 Z " fill="#D69050" transform="translate(64,65)"/>
<path d="M0 0 C0.99 0 1.98 0 3 0 C2.63 6.79 0.595 11.269 -3 17 C-3.99 16.67 -4.98 16.34 -6 16 C-7.283 12.15 -7.066 9.053 -7 5 C-6.67 5 -6.34 5 -6 5 C-6 6.98 -6 8.96 -6 11 C-3.72 8.829 -1.694 6.662 0 4 C0 2.68 0 1.36 0 0 Z " fill="#905825" transform="translate(104,10)"/>
<path d="M0 0 C4.29 2.31 8.58 4.62 13 7 C12.67 7.99 12.34 8.98 12 10 C14.64 10.66 17.28 11.32 20 12 C15.501 13.125 14.078 12.632 9.812 11.125 C9.279 10.941 9.279 10.941 6.582 10.008 C4 9 4 9 3 8 C2.959 6.334 2.957 4.666 3 3 C2.01 2.67 1.02 2.34 0 2 C0 1.34 0 0.68 0 0 Z " fill="#EBDCB7" transform="translate(24,145)"/>
<path d="M0 0 C0.33 0 0.66 0 1 0 C1.326 6.848 0.112 12.861 -1.5 19.5 C-1.738 20.513 -1.977 21.526 -2.223 22.57 C-2.807 25.049 -3.4 27.525 -4 30 C-4.99 30 -5.98 30 -7 30 C-6.746 28.924 -6.492 27.847 -6.23 26.738 C-4.131 17.831 -2.048 8.92 0 0 Z " fill="#603516" transform="translate(108,65)"/>
<path d="M0 0 C0.66 1.32 1.32 2.64 2 4 C1.56 4.571 1.121 5.142 0.668 5.73 C-0.904 7.87 -2.289 10.057 -3.688 12.312 C-7.265 17.723 -11.718 22.906 -18 25 C-17 22 -17 22 -14.656 20.602 C-7.683 16.397 -3.694 7.047 0 0 Z " fill="#ECD8B2" transform="translate(91,127)"/>
<path d="M0 0 C0.66 0.99 1.32 1.98 2 3 C1.67 3.66 1.34 4.32 1 5 C1.543 4.7 2.085 4.399 2.645 4.09 C3.36 3.71 4.075 3.329 4.812 2.938 C5.52 2.555 6.228 2.172 6.957 1.777 C9 1 9 1 12 2 C11.518 2.229 11.518 2.229 9.078 3.391 C7.802 4.01 6.526 4.63 5.25 5.25 C4.933 5.4 4.933 5.4 3.328 6.16 C-0.417 7.994 -3.248 9.859 -6 13 C-5.582 7.29 -3.425 4.39 0 0 Z " fill="#D18A3E" transform="translate(33,87)"/>
<path d="M0 0 C6.491 0.423 11.335 2.911 17 6 C17 6.99 17 7.98 17 9 C10.599 7.608 5.383 4.715 0 1 C0 0.67 0 0.34 0 0 Z " fill="#F4D895" transform="translate(24,142)"/>
<path d="M0 0 C-0.549 4.571 -1.417 8.674 -3 13 C-3.99 12.01 -4.98 11.02 -6 10 C-6.33 10.165 -6.33 10.165 -8 11 C-8.33 9.68 -8.66 8.36 -9 7 C-7.69 5.83 -6.377 4.664 -5.062 3.5 C-4.697 3.175 -4.697 3.175 -2.848 1.531 C-1 0 -1 0 0 0 Z " fill="#E29D54" transform="translate(95,110)"/>
<path d="M0 0 C0.66 0 1.32 0 2 0 C4.232 3.348 4.423 5.11 4.75 9.062 C4.848 10.126 4.946 11.189 5.047 12.285 C5 15 5 15 3 17 C2.34 18.32 1.68 19.64 1 21 C0.67 14.07 0.34 7.14 0 0 Z " fill="#74461E" transform="translate(106,28)"/>
<path d="M0 0 C8.36 1.645 16.42 4.042 24 8 C23.34 8.66 22.68 9.32 22 10 C22 9.34 22 8.68 22 8 C21.574 8.024 21.574 8.024 19.418 8.145 C15.597 7.983 12.863 7.085 9.312 5.688 C8.195 5.258 7.077 4.829 5.926 4.387 C3.313 3.148 1.821 2.194 0 0 Z " fill="#E0BA69" transform="translate(49,140)"/>
<path d="M0 0 C2.699 0.662 4.764 1.879 7.008 3.492 C6.348 4.812 5.688 6.132 5.008 7.492 C5.008 6.832 5.008 6.172 5.008 5.492 C4.081 5.371 3.154 5.25 2.199 5.125 C1.6 5.041 1.6 5.041 -1.43 4.617 C-2.625 4.455 -3.82 4.292 -5.051 4.125 C-6.021 3.916 -6.992 3.707 -7.992 3.492 C-8.322 2.832 -8.652 2.172 -8.992 1.492 C-5.55 -0.803 -3.991 -0.604 0 0 Z " fill="#FAC67D" transform="translate(66.9921875,103.5078125)"/>
<path d="M0 0 C-5.094 6.862 -5.094 6.862 -8.875 7.438 C-9.576 7.293 -10.278 7.149 -11 7 C-11 5.68 -11 4.36 -11 3 C-4.036 -1.42 -4.036 -1.42 0 0 Z " fill="#9D6434" transform="translate(93,36)"/>
<path d="M0 0 C1.98 0.66 3.96 1.32 6 2 C5.67 2.165 5.67 2.165 4 3 C3.316 4.325 2.65 5.659 2 7 C1.34 7.66 0.68 8.32 0 9 C-0.99 8.34 -1.98 7.68 -3 7 C-2.25 2.25 -2.25 2.25 0 0 Z " fill="#FBEABA" transform="translate(20,131)"/>
<path d="M0 0 C0.99 0 1.98 0 3 0 C1.763 3.424 0.647 6.447 -2 9 C-5.188 9.25 -5.188 9.25 -8 9 C-7.043 7.874 -6.084 6.749 -5.125 5.625 C-4.591 4.999 -4.058 4.372 -3.508 3.727 C-2.386 2.442 -1.206 1.206 0 0 Z " fill="#F9E5B0" transform="translate(79,137)"/>
<path d="M0 0 C0.388 0.512 0.776 1.024 1.176 1.551 C3 3 3 3 5.48 2.855 C5.927 2.745 5.927 2.745 8.188 2.188 C9.089 1.975 9.99 1.762 10.918 1.543 C11.605 1.364 12.292 1.185 13 1 C10.63 3.767 8.535 4.727 5.062 5.75 C4.208 6.013 3.353 6.276 2.473 6.547 C-0.091 7.017 -1.561 6.837 -4 6 C-2.68 4.02 -1.36 2.04 0 0 Z " fill="#ECDCBB" transform="translate(72,152)"/>
<path d="M0 0 C-2.694 3.328 -6.104 4.428 -10 6 C-11.34 6.653 -12.677 7.312 -14 8 C-14 6.68 -14 5.36 -14 4 C-12.425 3.131 -10.839 2.28 -9.25 1.438 C-8.368 0.962 -7.487 0.486 -6.578 -0.004 C-3.793 -1.08 -2.73 -1.065 0 0 Z " fill="#8F5525" transform="translate(104,60)"/>
<path d="M0 0 C0.66 0.99 1.32 1.98 2 3 C0.932 4.821 -0.155 6.632 -1.25 8.438 C-1.552 8.942 -1.552 8.942 -3.078 11.496 C-5 14 -5 14 -7.234 14.848 C-7.817 14.898 -8.4 14.948 -9 15 C-8.051 13.328 -7.09 11.663 -6.125 10 C-5.591 9.072 -5.058 8.144 -4.508 7.188 C-4.01 6.466 -3.513 5.744 -3 5 C-2.34 5 -1.68 5 -1 5 C-0.67 3.35 -0.34 1.7 0 0 Z " fill="#D3A553" transform="translate(86,131)"/>
<path d="M0 0 C0.33 0 0.66 0 1 0 C1.734 6.755 -0.724 11.185 -4 17 C-4.33 17 -4.66 17 -5 17 C-5.201 13.375 -4.858 11.135 -3 8 C-3.66 7.67 -4.32 7.34 -5 7 C-4.34 6.34 -3.68 5.68 -3 5 C-2.34 5 -1.68 5 -1 5 C-0.67 3.35 -0.34 1.7 0 0 Z " fill="#985326" transform="translate(104,89)"/>
<path d="M0 0 C-0.615 3.999 -2.603 6.804 -5 10 C-5.66 10 -6.32 10 -7 10 C-7.312 7.25 -7.312 7.25 -7 4 C-3 0 -3 0 0 0 Z " fill="#AA6E36" transform="translate(105,11)"/>
<path d="M0 0 C0.66 0.99 1.32 1.98 2 3 C-0.64 7.62 -3.28 12.24 -6 17 C-7.212 12.151 -5.929 10.306 -3.562 6.25 C-3.224 5.648 -2.886 5.046 -2.537 4.426 C-1.702 2.944 -0.853 1.471 0 0 Z " fill="#A25824" transform="translate(41,72)"/>
<path d="M0 0 C0.99 0.33 1.98 0.66 3 1 C4 7.625 4 7.625 4 11 C3.34 11 2.68 11 2 11 C-1.077 4.6 -1.077 4.6 -0.688 1.562 C-0.461 1.047 -0.234 0.531 0 0 Z " fill="#AF733E" transform="translate(76,39)"/>
<path d="M0 0 C1.32 0 2.64 0 4 0 C2.125 5.875 2.125 5.875 1 7 C-1.671 7.141 -4.324 7.042 -7 7 C-6.381 6.917 -5.763 6.835 -5.125 6.75 C-3 6 -3 6 -1.812 4.062 C-1.544 3.382 -1.276 2.701 -1 2 C-0.67 1.34 -0.34 0.68 0 0 Z " fill="#F6DD9C" transform="translate(67,149)"/>
<path d="M0 0 C0.949 0.041 1.898 0.082 2.875 0.125 C1.312 3.062 1.312 3.062 -1.125 6.125 C-4.875 7 -4.875 7 -8.125 7.125 C-7.465 6.795 -6.805 6.465 -6.125 6.125 C-5.782 4.794 -5.449 3.461 -5.125 2.125 C-3.125 0.125 -3.125 0.125 0 0 Z " fill="#FACB86" transform="translate(38.125,97.875)"/>
<path d="M0 0 C0.99 0.33 1.98 0.66 3 1 C3 5.29 3 9.58 3 14 C-0.304 9.594 -0.867 7.23 -2 2 C-1.34 2 -0.68 2 0 2 C0 1.34 0 0.68 0 0 Z " fill="#B3682B" transform="translate(54,64)"/>
<path d="M0 0 C0.99 0.33 1.98 0.66 3 1 C2.67 2.65 2.34 4.3 2 6 C0.02 6.33 -1.96 6.66 -4 7 C-3.398 4.98 -2.727 2.979 -2 1 C-1.34 0.67 -0.68 0.34 0 0 Z " fill="#ECA258" transform="translate(49,80)"/>
<path d="M0 0 C2.795 1.398 2.927 2.984 4 5.875 C5.143 8.938 6.171 11.257 8 14 C7.625 17.188 7.625 17.188 7 20 C6.67 20 6.34 20 6 20 C5.909 19.68 5.909 19.68 5.449 18.059 C4.258 13.96 3.068 9.959 1.312 6.062 C0 3 0 3 0 0 Z " fill="#6D3B14" transform="translate(81,44)"/>
<path d="M0 0 C0 0.99 0 1.98 0 3 C-1.98 3.33 -3.96 3.66 -6 4 C-6.33 5.32 -6.66 6.64 -7 8 C-8.32 7.67 -9.64 7.34 -11 7 C-10.34 5.35 -9.68 3.7 -9 2 C-8.536 2.021 -8.536 2.021 -6.188 2.125 C-3 2 -3 2 0 0 Z " fill="#995E29" transform="translate(82,70)"/>
<path d="M0 0 C0.66 0.66 1.32 1.32 2 2 C1.938 4.5 1.938 4.5 1 7 C-1.562 8.312 -1.562 8.312 -4 9 C-3.469 5.179 -2.503 2.938 0 0 Z " fill="#76461B" transform="translate(106,17)"/>
<path d="M0 0 C0.368 0.046 0.368 0.046 2.23 0.281 C1.509 0.817 0.787 1.354 0.043 1.906 C-3.017 4.491 -5.282 7.154 -7.77 10.281 C-8.76 9.951 -9.75 9.621 -10.77 9.281 C-9.558 7.767 -8.325 6.27 -7.082 4.781 C-6.398 3.946 -5.713 3.111 -5.008 2.25 C-2.77 0.281 -2.77 0.281 0 0 Z " fill="#6C4828" transform="translate(76.76953125,29.71875)"/>
<path d="M0 0 C-0.33 0.66 -0.66 1.32 -1 2 C1.64 2.66 4.28 3.32 7 4 C2.472 5.132 1.038 4.601 -3.25 3.062 C-4.328 2.682 -5.405 2.302 -6.516 1.91 C-7.335 1.61 -8.155 1.309 -9 1 C-9 0.67 -9 0.34 -9 0 C-3.375 -1.125 -3.375 -1.125 0 0 Z " fill="#EEE0C3" transform="translate(37,153)"/>
<path d="M0 0 C0.99 0 1.98 0 3 0 C3 0.66 3 1.32 3 2 C4.32 2.66 5.64 3.32 7 4 C6.67 4.495 6.67 4.495 5 7 C4.01 7 3.02 7 2 7 C1.67 6.01 1.34 5.02 1 4 C0.34 3.67 -0.32 3.34 -1 3 C-0.67 2.01 -0.34 1.02 0 0 Z " fill="#FAC378" transform="translate(51,97)"/>
<path d="M0 0 C0.33 0 0.66 0 1 0 C0.67 2.64 0.34 5.28 0 8 C-0.66 8 -1.32 8 -2 8 C-2.33 8.66 -2.66 9.32 -3 10 C-3.99 10 -4.98 10 -6 10 C-5.67 8.68 -5.34 7.36 -5 6 C-4.34 6 -3.68 6 -3 6 C-2.01 4.02 -1.02 2.04 0 0 Z " fill="#8F5627" transform="translate(102,85)"/>
<path d="M0 0 C0.33 0 0.66 0 1 0 C0.75 3.375 0.75 3.375 0 7 C-1.938 8.375 -1.938 8.375 -4 9 C-4.33 9.165 -4.33 9.165 -6 10 C-4.632 6.01 -2.796 3.157 0 0 Z " fill="#BF6B2B" transform="translate(51,61)"/>
<path d="M0 0 C1.281 0.102 2.563 0.204 3.883 0.309 C4.87 0.392 5.858 0.476 6.875 0.562 C6.875 0.893 6.875 1.222 6.875 1.562 C4.772 1.784 2.668 1.99 0.562 2.188 C-0.609 2.304 -1.781 2.42 -2.988 2.539 C-6.125 2.562 -6.125 2.562 -9.125 0.562 C-6.072 -0.964 -3.367 -0.275 0 0 Z " fill="#D9B468" transform="translate(60.125,155.4375)"/>
<path d="M0 0 C0.99 0.33 1.98 0.66 3 1 C0.36 3.64 -2.28 6.28 -5 9 C-5.33 8.34 -5.66 7.68 -6 7 C-4.02 4.69 -2.04 2.38 0 0 Z " fill="#623E21" transform="translate(85,22)"/>
<path d="M0 0 C0 1.32 0 2.64 0 4 C-0.99 4 -1.98 4 -3 4 C-3.66 5.32 -4.32 6.64 -5 8 C-5.188 5.125 -5.188 5.125 -5 2 C-2 0 -2 0 0 0 Z " fill="#78441A" transform="translate(105,30)"/>
<path d="M0 0 C1.65 0 3.3 0 5 0 C5 0.66 5 1.32 5 2 C5.66 2.33 6.32 2.66 7 3 C3.527 4.158 0.639 4.069 -3 4 C-2.01 3.67 -1.02 3.34 0 3 C0 2.01 0 1.02 0 0 Z " fill="#CE7931" transform="translate(53,83)"/>
<path d="M0 0 C0.66 0.99 1.32 1.98 2 3 C1.34 3.99 1.34 3.99 -2 9 C-2.688 7.312 -2.688 7.312 -3 5 C-1.562 2.25 -1.562 2.25 0 0 Z " fill="#C47935" transform="translate(90,124)"/>
<path d="M0 0 C1.32 0.66 1.32 0.66 8 4 C3.706 5.073 2.805 4.797 -1 3 C-0.67 2.01 -0.34 1.02 0 0 Z " fill="#DDB96A" transform="translate(20,125)"/>
<path d="M0 0 C0.66 0.99 1.32 1.98 2 3 C0 5 0 5 -2.383 5.195 C-3.288 5.172 -4.193 5.149 -5.125 5.125 C-5.58 5.116 -5.58 5.116 -7.883 5.07 C-8.581 5.047 -9.28 5.024 -10 5 C-10 4.67 -10 4.34 -10 4 C-8.991 3.919 -8.991 3.919 -3.945 3.512 C-2 3 -2 3 0 0 Z " fill="#CDA24D" transform="translate(69,153)"/>
<path d="M0 0 C0.66 0 1.32 0 2 0 C1.67 2.64 1.34 5.28 1 8 C-1 6 -1 6 -1.188 3.438 C-1 1 -1 1 0 0 Z " fill="#9A602F" transform="translate(92,17)"/>
</svg>
