<?xml version="1.0" encoding="UTF-8"?>
<!-- Generator: visioncortex VTracer 0.6.12 -->
<svg version="1.1" xmlns="http://www.w3.org/2000/svg" width="164" height="142">
<path d="M0 0 C54.12 0 108.24 0 164 0 C164 46.86 164 93.72 164 142 C109.88 142 55.76 142 0 142 C0 95.14 0 48.28 0 0 Z " fill="#FCF6EA" transform="translate(0,0)"/>
<path d="M0 0 C3.291 0.581 5.576 1.396 8.055 3.699 C12.181 10.487 8.842 22.268 7.188 29.562 C6.546 31.571 5.886 33.573 5.188 35.562 C11.265 27.061 17.077 18.695 21.461 9.174 C22.888 6.246 23.663 4.777 26.738 3.52 C29.188 3.562 29.188 3.562 32 5.688 C34.188 8.563 34.188 8.563 34.5 11.375 C34.397 12.097 34.294 12.819 34.188 13.562 C34.827 13.872 35.466 14.181 36.125 14.5 C38.188 15.562 38.188 15.562 39.188 16.562 C39.053 23.018 36.381 27.702 32.188 32.562 C31.692 32.727 31.692 32.727 29.188 33.562 C29.188 34.222 29.188 34.883 29.188 35.562 C29.737 35.209 30.286 34.856 30.852 34.493 C33.357 32.887 35.866 31.287 38.375 29.688 C38.807 29.41 38.807 29.41 40.994 28.004 C41.415 27.736 41.415 27.736 43.543 26.383 C44.313 25.891 45.083 25.398 45.876 24.891 C50.346 22.322 53.986 20.997 59.188 21.562 C61.062 22.625 61.062 22.625 62.188 24.562 C62.789 28.626 62.816 30.696 60.375 34.062 C55.018 38.696 48.565 42.516 42.188 45.562 C42.224 45.931 42.224 45.931 42.406 47.793 C42.131 51.281 41.066 52.369 38.688 54.875 C38.038 55.572 37.388 56.27 36.719 56.988 C36.466 57.248 36.466 57.248 35.188 58.562 C35.779 58.285 36.371 58.008 36.98 57.723 C44.293 54.371 51.05 52.451 59.188 53.562 C61.496 55.078 61.496 55.078 63.188 56.562 C62.736 61.417 61.856 64.261 58.188 67.562 C56.078 68.184 53.973 68.538 51.809 68.926 C36.848 72.56 25.325 84.95 14.465 95.109 C7.195 101.858 0.067 107.912 -9.062 111.938 C-14.566 114.52 -16.913 118.385 -19.812 123.562 C-20.813 124.562 -20.813 124.562 -23.5 124.938 C-28.066 124.421 -29.806 122.999 -32.812 119.562 C-33.845 115.401 -33.21 112.357 -31.312 108.562 C-30.818 107.903 -30.322 107.243 -29.812 106.562 C-30.699 107.346 -31.586 108.13 -32.5 108.938 C-34.437 110.559 -35.817 111.564 -38.188 112.5 C-40.885 113.592 -42.409 114.835 -44.625 116.688 C-47.473 118.884 -49.44 120.026 -53.062 120.188 C-56.812 119.562 -56.812 119.562 -59.375 118 C-60.812 115.562 -60.812 115.562 -61 112.188 C-59.435 107.41 -56.816 105.416 -52.812 102.562 C-53.442 102.439 -53.442 102.439 -56.625 101.812 C-59.41 101.108 -60.646 100.713 -62.812 98.75 C-64.043 96.058 -64.205 94.499 -63.812 91.562 C-61.906 89.789 -61.906 89.789 -59.312 88.188 C-55.063 85.429 -51.301 82.503 -47.547 79.109 C-45.812 77.562 -45.812 77.562 -43.25 75.625 C-39.681 72.605 -36.798 69.152 -33.812 65.562 C-33.37 65.037 -32.927 64.512 -32.47 63.971 C-24.95 55.018 -18.335 45.882 -12.812 35.562 C-12.287 34.592 -11.761 33.621 -11.219 32.621 C-7.856 25.593 -7.011 18.75 -6.531 11.06 C-5.846 1.169 -5.846 1.169 0 0 Z " fill="#75AA2A" transform="translate(83.8125,4.4375)"/>
<path d="M0 0 C2.867 0.573 3.861 0.861 6 3 C6.532 7.028 6.607 9.163 4.188 12.5 C-1.17 17.134 -7.623 20.954 -14 24 C-13.964 24.368 -13.964 24.368 -13.781 26.23 C-14.057 29.719 -15.121 30.806 -17.5 33.312 C-18.15 34.01 -18.799 34.707 -19.469 35.426 C-19.721 35.686 -19.721 35.686 -21 37 C-20.408 36.723 -19.817 36.446 -19.207 36.16 C-11.895 32.808 -5.137 30.889 3 32 C5.309 33.516 5.309 33.516 7 35 C6.548 39.855 5.668 42.698 2 46 C-0.109 46.621 -2.215 46.976 -4.379 47.363 C-19.34 50.998 -30.863 63.388 -41.723 73.547 C-48.993 80.296 -56.121 86.349 -65.25 90.375 C-70.754 92.958 -73.101 96.822 -76 102 C-77 103 -77 103 -79.688 103.375 C-84.353 102.847 -85.805 101.423 -89 98 C-89.375 95.188 -89.375 95.188 -89 93 C-88.752 93.598 -88.505 94.196 -88.25 94.812 C-86.785 97.377 -85.526 98.484 -83 100 C-80.25 100.687 -80.25 100.687 -78 101 C-78 100.34 -78 99.68 -78 99 C-77.417 98.434 -76.835 97.868 -76.234 97.285 C-73.578 94.569 -72.056 91.778 -70.25 88.438 C-66.631 81.91 -62.57 75.911 -58 70 C-57.352 69.158 -56.703 68.316 -56.035 67.449 C-51.981 62.287 -47.694 57.394 -43.266 52.551 C-41.016 50.018 -38.914 47.407 -36.812 44.75 C-28.715 34.818 -19.715 25.99 -9.5 18.25 C-8.842 17.749 -8.184 17.247 -7.506 16.731 C-3.8 14.012 -0.506 12.196 4 11 C3.385 3.492 3.385 3.492 1.438 1 C0.963 0.67 0.489 0.34 0 0 Z " fill="#518720" transform="translate(140,26)"/>
<path d="M0 0 C1.98 0 3.96 0 6 0 C6.002 0.698 6.005 1.396 6.007 2.116 C6.066 19.091 6.142 36.066 6.236 53.041 C6.281 61.25 6.32 69.459 6.346 77.668 C6.369 84.822 6.403 91.976 6.449 99.129 C6.473 102.918 6.491 106.707 6.498 110.496 C6.504 114.061 6.524 117.625 6.554 121.19 C6.567 123.125 6.565 125.061 6.563 126.996 C6.576 128.144 6.588 129.293 6.601 130.476 C6.606 131.476 6.61 132.476 6.615 133.507 C7 136 7 136 8.087 137.783 C12.518 140.602 18.327 140.125 23.422 140.12 C24.046 140.121 24.046 140.121 27.2 140.124 C28.563 140.121 29.926 140.117 31.289 140.114 C32.738 140.113 34.187 140.113 35.637 140.114 C39.556 140.114 43.474 140.108 47.393 140.101 C51.495 140.095 55.596 140.095 59.697 140.093 C67.457 140.09 75.216 140.082 82.975 140.072 C91.812 140.061 100.649 140.055 109.486 140.05 C127.657 140.04 145.829 140.022 164 140 C164 140.66 164 141.32 164 142 C109.88 142 55.76 142 0 142 C0 95.14 0 48.28 0 0 Z " fill="#FDFDFC" transform="translate(0,0)"/>
<path d="M0 0 C-0.476 4.998 -1.874 8.071 -5 12 C-5.592 12.263 -6.183 12.526 -6.793 12.797 C-10.018 14.555 -12.118 17.268 -14.5 20 C-19.469 25.572 -24.715 30.298 -30.602 34.879 C-32.855 36.872 -33.932 38.23 -35 41 C-35.66 41 -36.32 41 -37 41 C-37.273 41.581 -37.547 42.163 -37.828 42.762 C-40.444 47.757 -44.197 52.124 -47.875 56.375 C-54.635 64.196 -60.243 71.797 -65 81 C-65.763 82.317 -66.533 83.63 -67.312 84.938 C-68.709 87.472 -69.399 89.244 -70 92 C-71.456 92.222 -72.915 92.427 -74.375 92.625 C-75.187 92.741 -75.999 92.857 -76.836 92.977 C-77.55 92.984 -78.264 92.992 -79 93 C-79.66 92.34 -80.32 91.68 -81 91 C-81 89.68 -81 88.36 -81 87 C-79.02 87 -77.04 87 -75 87 C-75 86.34 -75 85.68 -75 85 C-76.65 85 -78.3 85 -80 85 C-78.463 80.606 -76.15 76.897 -73.562 73.062 C-73.121 72.407 -72.68 71.752 -72.226 71.077 C-64.865 60.277 -56.667 50.39 -47.703 40.891 C-45.56 38.599 -43.513 36.279 -41.5 33.875 C-35.106 26.481 -27.382 20.145 -20.008 13.758 C-16.731 10.889 -13.517 7.949 -10.297 5.016 C-4.581 0 -4.581 0 0 0 Z " fill="#A1CB44" transform="translate(120,20)"/>
<path d="M0 0 C0.99 0 1.98 0 3 0 C2.724 6.482 0.235 11.091 -4 16 C-4.495 16.165 -4.495 16.165 -7 17 C-7 17.66 -7 18.32 -7 19 C-6.229 18.483 -5.458 17.966 -4.664 17.434 C-3.661 16.775 -2.658 16.116 -1.625 15.438 C-0.627 14.776 0.37 14.115 1.398 13.434 C2.257 12.961 3.115 12.487 4 12 C4.33 12.165 4.33 12.165 6 13 C5.117 13.594 4.234 14.189 3.324 14.801 C-4.019 19.838 -10.381 25.041 -16.555 31.484 C-18.626 33.616 -20.721 35.537 -23 37.438 C-41.844 53.682 -55.145 75.435 -67 97 C-68.044 93.867 -67.934 93.01 -67 90 C-67.351 90.392 -67.351 90.392 -69.125 92.375 C-72.092 95.084 -74.158 96.017 -78 97 C-78 95.35 -78 93.7 -78 92 C-76.35 92 -74.7 92 -73 92 C-72.67 90.68 -72.34 89.36 -72 88 C-72 88.99 -72 89.98 -72 91 C-71.34 91 -70.68 91 -70 91 C-69.959 90.584 -69.959 90.584 -69.75 88.48 C-68.837 84.242 -67.15 81.043 -65 77.312 C-64.6 76.611 -64.2 75.909 -63.788 75.186 C-60.126 68.925 -55.828 63.411 -51 58 C-49.729 56.563 -48.458 55.126 -47.188 53.688 C-46.629 53.057 -46.071 52.427 -45.496 51.777 C-43.434 49.328 -41.717 46.699 -40 44 C-38.375 41.625 -38.375 41.625 -37 40 C-36.34 40 -35.68 40 -35 40 C-34.801 39.288 -34.603 38.577 -34.398 37.844 C-32.563 34.11 -29.815 32.033 -26.625 29.5 C-20.816 24.737 -15.674 19.669 -10.733 14.014 C-9.524 12.644 -8.266 11.317 -7 10 C-6.34 10 -5.68 10 -5 10 C-3.35 6.7 -1.7 3.4 0 0 Z " fill="#6FA629" transform="translate(120,21)"/>
<path d="M0 0 C-0.426 3.39 -1.121 6.12 -3 9 C-5.893 10.228 -8.666 10.718 -11.754 11.293 C-22.065 13.539 -29.887 20.897 -37.553 27.716 C-39.472 29.419 -41.427 31.081 -43.375 32.75 C-45.905 34.966 -48.28 37.277 -50.625 39.688 C-53.54 42.649 -56.405 44.91 -60 47 C-60.66 47 -61.32 47 -62 47 C-62.33 47.99 -62.66 48.98 -63 50 C-66.379 52.466 -67.706 53 -72 53 C-70.069 48.188 -66.277 45.591 -62.41 42.316 C-60 40 -60 40 -58.613 37.684 C-56.287 33.814 -53.229 30.759 -50.125 27.5 C-49.513 26.849 -48.9 26.198 -48.27 25.527 C-46.523 23.676 -44.763 21.836 -43 20 C-42.509 19.478 -42.017 18.956 -41.511 18.418 C-40.38 17.24 -39.195 16.113 -38 15 C-37.34 15 -36.68 15 -36 15 C-35.67 14.01 -35.34 13.02 -35 12 C-30.438 8.959 -26.118 7.271 -20.82 5.906 C-19 5 -19 5 -18.242 2.906 C-18.162 2.277 -18.082 1.648 -18 1 C-5.273 -2.636 -5.273 -2.636 0 0 Z " fill="#6DA52B" transform="translate(145,61)"/>
<path d="M0 0 C1 2 1 2 1 5 C-0.799 7.185 -2.608 9.214 -4.562 11.25 C-5.116 11.839 -5.67 12.428 -6.24 13.035 C-8.951 15.907 -11.704 18.712 -14.562 21.438 C-28.546 35.252 -39.178 53.121 -49 70 C-51.97 69.34 -54.94 68.68 -58 68 C-43.335 37.642 -43.335 37.642 -35.5 34.062 C-31.761 32.089 -30.213 29.615 -28 26 C-26.378 24.29 -24.706 22.627 -23 21 C-22.404 20.384 -21.809 19.768 -21.195 19.133 C-20.574 18.491 -19.953 17.849 -19.312 17.188 C-18.731 16.583 -18.15 15.978 -17.551 15.355 C-16 14 -16 14 -14 14 C-13.752 13.443 -13.505 12.886 -13.25 12.312 C-10.876 7.92 -5.541 0 0 0 Z " fill="#A1CA40" transform="translate(111,50)"/>
<path d="M0 0 C0.66 0 1.32 0 2 0 C2.66 0.99 3.32 1.98 4 3 C6.125 4.188 6.125 4.188 8 5 C5.177 27.797 5.177 27.797 0.375 34.871 C-2.11 38.718 -4.015 42.879 -6 47 C-7.32 47 -8.64 47 -10 47 C-10.228 47.548 -10.456 48.096 -10.691 48.66 C-12.384 51.687 -14.558 53.918 -16.938 56.438 C-20.126 59.814 -22.671 62.993 -25 67 C-26.667 68.667 -28.333 70.333 -30 72 C-30.153 72.324 -30.153 72.324 -30.93 73.966 C-32.171 76.325 -33.431 77.389 -35.555 78.98 C-36.252 79.504 -36.949 80.028 -37.668 80.568 C-38.396 81.103 -39.125 81.637 -39.875 82.188 C-40.596 82.733 -41.316 83.279 -42.059 83.842 C-48.264 88.453 -48.264 88.453 -52 89 C-52.66 88.67 -53.32 88.34 -54 88 C-54 87.34 -54 86.68 -54 86 C-52.503 84.955 -52.503 84.955 -50.449 83.809 C-45.932 81.094 -42.458 77.838 -38.812 74.062 C-38.223 73.468 -37.633 72.873 -37.025 72.26 C-34.298 69.484 -31.68 66.67 -29.211 63.66 C-27 61 -27 61 -24.812 59.375 C-22.714 57.783 -22.132 56.339 -21 54 C-20.01 53.34 -19.02 52.68 -18 52 C-17.301 50.369 -16.607 48.735 -15.953 47.086 C-14.144 43.127 -11.747 39.375 -9 36 C-8.34 36 -7.68 36 -7 36 C-6.897 35.113 -6.794 34.226 -6.688 33.312 C-6 30 -6 30 -4.469 27.688 C-2.693 24.439 -2.691 22.36 -2.812 18.688 C-2.84 17.619 -2.867 16.55 -2.895 15.449 C-2.912 15.045 -2.912 15.045 -3 13 C-2.34 13 -1.68 13 -1 13 C-0.835 10.855 -0.835 10.855 0 0 Z " fill="#9FCA45" transform="translate(80,8)"/>
<path d="M0 0 C3.291 0.581 5.576 1.396 8.055 3.699 C12.254 10.606 8.66 22.147 7.188 29.562 C6.528 28.903 5.868 28.242 5.188 27.562 C4.957 28.264 4.726 28.965 4.488 29.688 C1.408 38.647 -2.153 45.245 -9.004 51.801 C-12.153 54.869 -14.964 58.217 -17.812 61.562 C-18.541 62.402 -19.269 63.241 -20.02 64.105 C-25.777 70.848 -30.996 77.834 -35.995 85.156 C-39.6 90.309 -43.552 95.017 -48.812 98.562 C-49.803 98.562 -50.793 98.562 -51.812 98.562 C-52.803 96.582 -53.793 94.603 -54.812 92.562 C-54.468 92.314 -54.468 92.314 -52.723 91.059 C-49.744 88.905 -46.778 86.735 -43.812 84.562 C-42.933 83.931 -42.054 83.299 -41.148 82.648 C-40.357 82.063 -39.565 81.478 -38.75 80.875 C-38.037 80.356 -37.324 79.836 -36.59 79.301 C-34.474 77.232 -33.841 75.307 -32.812 72.562 C-31.162 71.209 -29.495 69.876 -27.812 68.562 C-27.37 67.814 -26.928 67.065 -26.473 66.293 C-24.533 63.102 -22.237 60.6 -19.688 57.875 C-14.911 52.759 -14.911 52.759 -13.812 50.562 C-12.493 50.562 -11.172 50.562 -9.812 50.562 C-9.765 50.211 -9.765 50.211 -9.527 48.434 C-8.679 45.026 -7.221 42.607 -5.375 39.625 C0.592 29.971 2.302 19.723 3.188 8.562 C2.362 8.109 1.537 7.655 0.688 7.188 C-0.138 6.651 -0.963 6.115 -1.812 5.562 C-1.812 4.902 -1.812 4.242 -1.812 3.562 C-2.472 3.562 -3.132 3.562 -3.812 3.562 C-3.789 4.455 -3.766 5.347 -3.742 6.266 C-3.724 7.436 -3.706 8.607 -3.688 9.812 C-3.664 10.973 -3.641 12.133 -3.617 13.328 C-3.802 16.39 -4.204 18.005 -5.812 20.562 C-5.894 17.979 -5.953 15.397 -6 12.812 C-6.025 12.083 -6.05 11.353 -6.076 10.602 C-6.121 7.336 -6.041 4.986 -4.477 2.082 C-2.812 0.562 -2.812 0.562 0 0 Z " fill="#629E2A" transform="translate(83.8125,4.4375)"/>
<path d="M0 0 C-0.476 4.998 -1.874 8.071 -5 12 C-5.592 12.263 -6.183 12.526 -6.793 12.797 C-10.018 14.555 -12.118 17.268 -14.5 20 C-19.469 25.572 -24.715 30.298 -30.602 34.879 C-32.855 36.872 -33.932 38.23 -35 41 C-35.66 41 -36.32 41 -37 41 C-37.273 41.581 -37.547 42.163 -37.828 42.762 C-40.444 47.757 -44.197 52.124 -47.875 56.375 C-54.635 64.196 -60.243 71.797 -65 81 C-65.763 82.317 -66.533 83.63 -67.312 84.938 C-68.709 87.472 -69.399 89.244 -70 92 C-71.456 92.222 -72.915 92.427 -74.375 92.625 C-75.187 92.741 -75.999 92.857 -76.836 92.977 C-77.55 92.984 -78.264 92.992 -79 93 C-79.66 92.34 -80.32 91.68 -81 91 C-81 89.68 -81 88.36 -81 87 C-79.02 87 -77.04 87 -75 87 C-74.896 86.438 -74.791 85.876 -74.684 85.297 C-73.874 82.576 -72.638 80.607 -71.062 78.25 C-70.538 77.451 -70.013 76.652 -69.473 75.828 C-68.987 75.225 -68.501 74.622 -68 74 C-67.34 74 -66.68 74 -66 74 C-65.814 73.196 -65.629 72.391 -65.438 71.562 C-63.451 66.639 -60.353 63.076 -57 59 C-56.304 58.107 -55.608 57.213 -54.891 56.293 C-50.423 50.629 -45.727 45.774 -40.277 41.055 C-37.775 38.797 -35.696 36.383 -33.573 33.777 C-31.951 31.944 -30.246 30.402 -28.383 28.816 C-23.8 24.857 -19.396 20.726 -15 16.562 C-14.225 15.831 -13.451 15.099 -12.652 14.346 C-10.767 12.565 -8.883 10.783 -7 9 C-7.165 8.835 -7.165 8.835 -8 8 C-10.954 9.372 -13.44 10.989 -16 13 C-16.66 12.67 -17.32 12.34 -18 12 C-16.419 10.56 -14.835 9.123 -13.25 7.688 C-12.368 6.887 -11.487 6.086 -10.578 5.262 C-4.58 0 -4.58 0 0 0 Z " fill="#93C039" transform="translate(120,20)"/>
<path d="M0 0 C0 1.32 0 2.64 0 4 C-2.236 5.916 -4.388 7.545 -6.812 9.188 C-8.192 10.152 -9.57 11.119 -10.945 12.09 C-11.631 12.573 -12.318 13.056 -13.024 13.554 C-16.788 16.309 -20.25 19.414 -23.73 22.516 C-26 24 -26 24 -28.301 23.734 C-28.862 23.492 -29.422 23.25 -30 23 C-29.67 22.34 -29.34 21.68 -29 21 C-31.438 21.812 -31.438 21.812 -34 23 C-34.165 23.495 -34.165 23.495 -35 26 C-35.66 26 -36.32 26 -37 26 C-37.248 26.557 -37.495 27.114 -37.75 27.688 C-41.132 33.944 -47.131 40.71 -54 43 C-55.012 44.805 -55.012 44.805 -56 47 C-61.619 55.734 -61.619 55.734 -67 57 C-62.988 48.12 -55.014 40.812 -48.438 33.75 C-48.131 33.42 -48.131 33.42 -46.581 31.747 C-42.843 27.775 -38.947 24.113 -34.806 20.563 C-32.585 18.641 -30.492 16.598 -28.375 14.562 C-22.527 9.26 -15.947 5.649 -9 2 C-8.63 1.8 -8.63 1.8 -6.758 0.785 C-4.445 -0.248 -2.501 -0.139 0 0 Z " fill="#86B934" transform="translate(140,29)"/>
<path d="M0 0 C3.374 0.22 5.363 0.406 7.875 2.75 C9.182 5.363 9.24 7.115 9 10 C10.32 10.66 11.64 11.32 13 12 C12.67 12.66 12.34 13.32 12 14 C11.274 13.752 10.549 13.505 9.801 13.25 C7 13 7 13 4.605 14.625 C3.808 15.409 3.01 16.192 2.188 17 C1.324 17.826 0.46 18.653 -0.43 19.504 C-1.278 20.328 -2.126 21.151 -3 22 C-4.469 23.323 -5.948 24.637 -7.438 25.938 C-8.055 26.483 -8.672 27.028 -9.309 27.59 C-11 29 -11 29 -14 31 C-15.18 28.773 -15.18 28.773 -16 26 C-14.945 23.852 -14.945 23.852 -13.125 21.625 C-9.324 16.639 -6.448 11.462 -3.579 5.915 C-1.071 1.071 -1.071 1.071 0 0 Z " fill="#629A2F" transform="translate(109,8)"/>
<path d="M0 0 C0.165 0.33 0.165 0.33 1 2 C-0.281 3.707 -1.618 5.374 -3 7 C-3.66 7 -4.32 7 -5 7 C-5 7.66 -5 8.32 -5 9 C-4.615 8.742 -4.615 8.742 -2.664 7.434 C-1.661 6.775 -0.658 6.116 0.375 5.438 C1.373 4.776 2.37 4.115 3.398 3.434 C4.257 2.961 5.115 2.487 6 2 C6.33 2.165 6.33 2.165 8 3 C7.117 3.594 6.234 4.189 5.324 4.801 C-2.019 9.838 -8.381 15.041 -14.555 21.484 C-16.626 23.616 -18.721 25.537 -21 27.438 C-39.844 43.682 -53.145 65.435 -65 87 C-66.044 83.867 -65.934 83.01 -65 80 C-65.66 79.67 -66.32 79.34 -67 79 C-63.16 72.633 -58.61 67.092 -53.74 61.51 C-50.176 57.412 -46.764 53.229 -43.438 48.938 C-24.102 24.104 -24.102 24.104 -12.242 14.848 C-10 13 -10 13 -8.5 10 C-6.807 6.613 -5.002 5.233 -2 3 C-1.34 2.01 -0.68 1.02 0 0 Z " fill="#447F18" transform="translate(118,31)"/>
<path d="M0 0 C0 0.99 0 1.98 0 3 C-2.942 5.865 -5.796 6.613 -9.75 7.438 C-19.463 9.763 -24.843 13.478 -32.133 20.344 C-35.757 23.702 -39.567 26.785 -43.414 29.883 C-46.514 32.421 -49.489 35.078 -52.441 37.785 C-54 39 -54 39 -56 39 C-54.327 34.819 -51.292 31.845 -48.25 28.625 C-47.737 28.073 -47.224 27.522 -46.695 26.953 C-45.142 25.29 -43.574 23.643 -42 22 C-41.453 21.422 -40.906 20.844 -40.342 20.249 C-38.934 18.793 -37.471 17.391 -36 16 C-35.34 16 -34.68 16 -34 16 C-33.67 15.01 -33.34 14.02 -33 13 C-28.438 9.959 -24.118 8.271 -18.82 6.906 C-17 6 -17 6 -16.242 3.906 C-16.162 3.277 -16.082 2.648 -16 2 C-10.429 0.408 -5.789 -0.207 0 0 Z " fill="#8BBC38" transform="translate(143,60)"/>
<path d="M0 0 C0.33 0 0.66 0 1 0 C1.506 6.199 0.168 8.911 -3 14 C-3.093 14.371 -3.093 14.371 -3.562 16.25 C-4.138 18.551 -5.325 19.325 -7 21 C-8.055 22.434 -9.074 23.894 -10.062 25.375 C-10.569 26.125 -11.076 26.875 -11.598 27.648 C-13 30 -13 30 -13.996 32.664 C-15 35 -15 35 -18 37 C-18.433 37.763 -18.866 38.526 -19.312 39.312 C-21.018 42.028 -22.853 43.604 -25.348 45.574 C-27.156 47.135 -28.641 48.805 -30.188 50.625 C-33.209 54.143 -36.334 57.546 -39.562 60.875 C-40.451 61.801 -41.339 62.726 -42.254 63.68 C-45.132 66.112 -47.378 67.075 -51 68 C-51 68.99 -51 69.98 -51 71 C-50.34 71.454 -49.68 71.907 -49 72.375 C-48.34 72.911 -47.68 73.448 -47 74 C-46.75 76.688 -46.75 76.688 -47 79 C-49.187 79.812 -49.187 79.812 -52 80 C-54.984 77.745 -56.78 76.297 -57.418 72.531 C-57 70 -57 70 -55.094 68.227 C-54.666 67.962 -54.666 67.962 -52.5 66.625 C-48.25 63.866 -44.489 60.941 -40.734 57.547 C-39 56 -39 56 -36.438 54.062 C-32.868 51.042 -29.986 47.59 -27 44 C-26.557 43.475 -26.114 42.949 -25.658 42.408 C-14.655 29.31 -6.262 15.937 0 0 Z " fill="#5C9B2B" transform="translate(77,26)"/>
<path d="M0 0 C0.66 0.66 1.32 1.32 2 2 C1.34 2.33 0.68 2.66 0 3 C-0.304 3.771 -0.608 4.542 -0.922 5.336 C-2.052 8.127 -3.162 9.492 -5.25 11.625 C-10.259 17.055 -14.505 23.003 -18.812 28.997 C-28.424 42.283 -28.424 42.283 -34 46 C-34.99 46 -35.98 46 -37 46 C-37.99 44.02 -38.98 42.04 -40 40 C-39.31 39.504 -38.621 39.007 -37.91 38.496 C-34.931 36.343 -31.965 34.172 -29 32 C-28.121 31.368 -27.242 30.737 -26.336 30.086 C-25.94 29.793 -25.94 29.793 -23.938 28.312 C-23.225 27.793 -22.512 27.274 -21.777 26.738 C-19.662 24.669 -19.029 22.745 -18 20 C-16.35 18.646 -14.683 17.313 -13 16 C-12.559 15.254 -12.118 14.507 -11.664 13.738 C-9.703 10.511 -7.379 7.954 -4.812 5.188 C-4.581 4.936 -4.581 4.936 -3.408 3.666 C-2.276 2.44 -1.139 1.22 0 0 Z " fill="#7EB432" transform="translate(69,57)"/>
<path d="M0 0 C2 2 2 2 2.75 5.75 C2.68 7.934 2.68 7.934 2 10 C-0.141 11.81 -2.399 12.956 -4.883 14.254 C-8.53 16.297 -11.725 18.665 -15 21.25 C-15.594 21.717 -16.188 22.185 -16.801 22.667 C-21.587 26.512 -25.839 30.69 -30.012 35.199 C-32 37 -32 37 -35 37 C-33.415 33.062 -30.685 30.456 -27.688 27.562 C-27.214 27.098 -26.74 26.633 -26.252 26.154 C-24.837 24.767 -23.419 23.383 -22 22 C-19.532 19.546 -17.083 17.087 -14.688 14.562 C-5.707 6 -5.707 6 -2 6 C-2 4.68 -2 3.36 -2 2 C-6.721 3.543 -11.417 5.078 -16 7 C-16.33 6.34 -16.66 5.68 -17 5 C-15.114 3.962 -13.215 2.945 -11.312 1.938 C-10.257 1.369 -9.201 0.801 -8.113 0.215 C-4.745 -1.1 -3.357 -1.217 0 0 Z " fill="#71A92A" transform="translate(142,27)"/>
<path d="M0 0 C0.66 0 1.32 0 2 0 C2.66 0.99 3.32 1.98 4 3 C6.125 4.188 6.125 4.188 8 5 C5.177 27.797 5.177 27.797 0.375 34.871 C-2.11 38.718 -4.015 42.879 -6 47 C-6.99 47 -7.98 47 -9 47 C-7.346 41.631 -5.027 36.684 -2.566 31.654 C-0.575 27.497 0.848 23.466 2 19 C1.34 19.33 1.34 19.33 -2 21 C-2.33 18.36 -2.66 15.72 -3 13 C-2.34 13 -1.68 13 -1 13 C-0.67 8.71 -0.34 4.42 0 0 Z " fill="#91BF3B" transform="translate(80,8)"/>
<path d="M0 0 C0.66 0.33 1.32 0.66 2 1 C1 4 1 4 -0.82 5.027 C-1.581 5.328 -2.341 5.628 -3.125 5.938 C-9.838 8.75 -14.863 11.726 -20 17 C-20.874 17.862 -21.748 18.725 -22.648 19.613 C-36.435 33.262 -36.435 33.262 -39.5 38.625 C-41.706 42.118 -44.792 44.442 -48 47 C-48 42.967 -46.391 41.165 -44 38 C-43.34 38 -42.68 38 -42 38 C-41.884 37.405 -41.768 36.809 -41.648 36.196 C-40.587 32.602 -37.99 30.081 -35.562 27.312 C-35.023 26.692 -34.483 26.071 -33.927 25.432 C-24.538 14.799 -13.447 5.109 0 0 Z " fill="#5A9620" transform="translate(125,62)"/>
<path d="M0 0 C0.165 0.33 0.165 0.33 1 2 C2.65 1.34 4.3 0.68 6 0 C3.392 2.656 0.761 5.246 -2.016 7.727 C-19.432 23.296 -19.432 23.296 -22 31 C-22.66 31 -23.32 31 -24 31 C-24.128 31.266 -24.128 31.266 -24.773 32.609 C-26.285 35.556 -27.949 38.394 -29.625 41.25 C-30.257 42.328 -30.888 43.405 -31.539 44.516 C-32.021 45.335 -32.503 46.155 -33 47 C-32.34 47.33 -31.68 47.66 -31 48 C-31.594 48.236 -32.189 48.472 -32.801 48.715 C-35.497 50.29 -36.542 51.927 -38.188 54.562 C-40.978 58.978 -40.978 58.978 -42 60 C-44.922 60.408 -47.091 60.495 -49.73 59.059 C-51.375 57.812 -51.375 57.812 -54 55 C-54.375 52.188 -54.375 52.188 -54 50 C-53.752 50.598 -53.505 51.196 -53.25 51.812 C-51.785 54.377 -50.526 55.484 -48 57 C-45.25 57.688 -45.25 57.688 -43 58 C-43 57.34 -43 56.68 -43 56 C-42.417 55.434 -41.835 54.868 -41.234 54.285 C-38.578 51.569 -37.056 48.778 -35.25 45.438 C-31.631 38.91 -27.57 32.911 -23 27 C-22.352 26.158 -21.703 25.316 -21.035 24.449 C-16.93 19.223 -12.597 14.25 -8.121 9.34 C-5.348 6.281 -2.67 3.149 0 0 Z " fill="#447F16" transform="translate(105,69)"/>
<path d="M0 0 C0.11 0.566 0.219 1.132 0.332 1.715 C0.491 2.448 0.649 3.182 0.812 3.938 C0.963 4.668 1.114 5.399 1.27 6.152 C1.511 6.762 1.752 7.372 2 8 C2.99 8.33 3.98 8.66 5 9 C3.848 11.468 2.952 13.048 1 15 C-0.32 15 -1.64 15 -3 15 C-3 15.66 -3 16.32 -3 17 C-5.75 17.75 -5.75 17.75 -9 18 C-11.859 16.044 -12.819 14.825 -13.562 11.438 C-13 9 -13 9 -10.625 7.188 C-8 6 -8 6 -6 6 C-6 5.34 -6 4.68 -6 4 C-2.471 0 -2.471 0 0 0 Z " fill="#76A72C" transform="translate(36,106)"/>
<path d="M0 0 C0.66 0.33 1.32 0.66 2 1 C-1.466 8.895 -9.585 14.498 -16 20 C-17.501 21.311 -19.001 22.624 -20.5 23.938 C-21.667 24.958 -22.833 25.979 -24 27 C-24.66 26.34 -25.32 25.68 -26 25 C-25.346 18.144 -17.757 12.45 -12.762 8.309 C-9.986 6.247 -7.032 4.659 -4 3 C-2.646 2.028 -1.301 1.041 0 0 Z " fill="#A6CE47" transform="translate(112,26)"/>
<path d="M0 0 C0.66 0.33 1.32 0.66 2 1 C1.01 1.33 0.02 1.66 -1 2 C-1.33 2.99 -1.66 3.98 -2 5 C-2.66 5 -3.32 5 -4 5 C-4.248 5.557 -4.495 6.114 -4.75 6.688 C-8.132 12.944 -14.131 19.71 -21 22 C-22.012 23.805 -22.012 23.805 -23 26 C-28.619 34.734 -28.619 34.734 -34 36 C-29.953 27.043 -21.886 19.678 -15.25 12.562 C-14.612 11.876 -13.975 11.19 -13.318 10.483 C-5.019 1.673 -5.019 1.673 0 0 Z " fill="#93BE39" transform="translate(107,50)"/>
<path d="M0 0 C0.66 0.33 1.32 0.66 2 1 C1.505 1.66 1.01 2.32 0.5 3 C-1.39 6.78 -1.938 9.847 -1 14 C1.5 17 1.5 17 4 19 C2.02 18.67 0.04 18.34 -2 18 C-2.33 16.68 -2.66 15.36 -3 14 C-4.031 14.165 -5.062 14.33 -6.125 14.5 C-12.389 15.303 -18.698 15.08 -25 15 C-25 14.67 -25 14.34 -25 14 C-24.432 13.925 -23.863 13.85 -23.277 13.773 C-17.715 12.826 -14.621 11.267 -10.559 7.383 C-8.572 5.62 -6.465 4.933 -4 4 C-1.688 1.875 -1.688 1.875 0 0 Z " fill="#E2D6A9" transform="translate(53,110)"/>
<path d="M0 0 C1 2 1 2 0.312 5.438 C-0.523 7.324 -0.523 7.324 -2 9 C-4.998 10.147 -7.912 10.769 -11.062 11.375 C-14 12 -14 12 -17.312 13.75 C-20.869 15.404 -23.24 14.827 -27 14 C-21.792 7.535 -14.369 5.712 -6.5 3.938 C-3.26 3.07 -1.933 2.658 0 0 Z " fill="#7CB031" transform="translate(144,61)"/>
<path d="M0 0 C0 4 0 4 -1.329 5.464 C-1.939 5.904 -2.548 6.344 -3.176 6.797 C-3.839 7.28 -4.502 7.764 -5.186 8.262 C-5.887 8.753 -6.589 9.244 -7.312 9.75 C-8.003 10.257 -8.693 10.763 -9.404 11.285 C-14.586 15 -14.586 15 -18 15 C-17.34 13.68 -16.68 12.36 -16 11 C-16.66 11 -17.32 11 -18 11 C-18.33 10.01 -18.66 9.02 -19 8 C-5.751 -0.507 -5.751 -0.507 0 0 Z " fill="#89BA38" transform="translate(140,29)"/>
<path d="M0 0 C1.65 0.33 3.3 0.66 5 1 C5.33 1.99 5.66 2.98 6 4 C5.67 4.165 5.67 4.165 4 5 C4.137 5.358 4.137 5.358 4.832 7.168 C5 10 5 10 2.762 12.676 C1.752 13.572 0.726 14.45 -0.312 15.312 C-0.569 15.54 -0.569 15.54 -1.865 16.689 C-5.684 20 -5.684 20 -8 20 C-8.364 15.758 -7.539 13.418 -5 10 C-4.34 10 -3.68 10 -3 10 C-2.01 6.7 -1.02 3.4 0 0 Z " fill="#679D28" transform="translate(109,10)"/>
<path d="M0 0 C2.301 1.52 2.301 1.52 4 3 C3.548 7.855 2.668 10.698 -1 14 C-3.147 14.649 -5.269 15.024 -7.48 15.398 C-11.285 16.307 -14.511 18.123 -17.934 19.977 C-20 21 -20 21 -22 21 C-21 18 -21 18 -19.066 16.684 C-14.504 14.413 -10.644 12.815 -5.562 12.188 C-3.074 11.801 -3.074 11.801 -1 11 C0.829 8.321 1.271 6.229 2 3 C-7.559 2.827 -7.559 2.827 -12 3.625 C-12.99 3.749 -13.98 3.873 -15 4 C-15.66 3.34 -16.32 2.68 -17 2 C-11.435 0.064 -5.889 -0.917 0 0 Z " fill="#4E8325" transform="translate(143,58)"/>
<path d="M0 0 C0.33 0 0.66 0 1 0 C0.67 2.97 0.34 5.94 0 9 C1.32 7.35 2.64 5.7 4 4 C4.66 4.33 5.32 4.66 6 5 C5.427 8.316 4.515 9.814 2.008 12.031 C1.39 12.589 0.772 13.147 0.135 13.722 C-0.196 14.015 -0.196 14.015 -1.875 15.5 C-7.927 20.978 -13.522 26.655 -18.926 32.77 C-21 35 -21 35 -23 36 C-21.644 32.565 -19.492 30.329 -16.912 27.736 C-8.695 19.457 -4.249 10.844 0 0 Z " fill="#438315" transform="translate(89,31)"/>
<path d="M0 0 C0.99 0.66 1.98 1.32 3 2 C-1.75 5 -1.75 5 -4 5 C-4 5.99 -4 6.98 -4 8 C-3.34 8.454 -2.68 8.907 -2 9.375 C-1.34 9.911 -0.68 10.448 0 11 C0.25 13.688 0.25 13.688 0 16 C-2.188 16.812 -2.188 16.812 -5 17 C-7.968 14.757 -9.762 13.292 -10.449 9.559 C-10 7 -10 7 -7.812 4.98 C-6.884 4.389 -5.956 3.797 -5 3.188 C-4.072 2.583 -3.144 1.978 -2.188 1.355 C-1.827 1.132 -1.827 1.132 0 0 Z " fill="#689F33" transform="translate(30,89)"/>
<path d="M0 0 C0.66 0.66 1.32 1.32 2 2 C1.649 2.248 1.649 2.248 -0.125 3.5 C-2.488 5.555 -3.782 7.001 -5.5 9.5 C-9.278 14.758 -14.085 18.866 -18.879 23.168 C-21.683 25.687 -24.356 28.312 -27 31 C-29.333 33.333 -31.667 35.667 -34 38 C-34 34.068 -32.606 32.836 -30 30 C-29.34 30 -28.68 30 -28 30 C-27.801 29.288 -27.603 28.577 -27.398 27.844 C-25.562 24.11 -22.815 22.033 -19.625 19.5 C-12.404 13.566 -6.168 7.004 0 0 Z " fill="#79AB2E" transform="translate(113,31)"/>
<path d="M0 0 C0.66 0.33 1.32 0.66 2 1 C1 4 1 4 -0.82 5.027 C-1.581 5.328 -2.341 5.628 -3.125 5.938 C-9.811 8.739 -14.931 11.678 -20 17 C-22.3 19.04 -24.645 21.025 -27 23 C-27 18.449 -24.333 16.523 -21.34 13.277 C-15.428 7.524 -7.71 2.93 0 0 Z " fill="#619B24" transform="translate(125,62)"/>
<path d="M0 0 C0.99 0 1.98 0 3 0 C2.558 4.599 2.252 7.64 -1 11 C-2.123 11.92 -3.248 12.836 -4.375 13.75 C-7.083 15.986 -8.815 18.082 -10.562 21.125 C-12.814 25.042 -15.077 26.81 -19 29 C-18.408 25.782 -17.425 23.99 -15.25 21.562 C-14.709 20.951 -14.167 20.34 -13.609 19.711 C-12.296 18.315 -10.907 16.989 -9.5 15.688 C-5.334 11.209 -1.939 5.818 0 0 Z " fill="#62982A" transform="translate(120,21)"/>
<path d="M0 0 C0.66 0.33 1.32 0.66 2 1 C1.506 1.892 1.013 2.784 0.504 3.703 C-0.143 4.885 -0.791 6.068 -1.438 7.25 C-1.763 7.837 -2.088 8.423 -2.424 9.027 C-4.029 11.973 -5.416 14.679 -6 18 C-7.456 18.222 -8.915 18.427 -10.375 18.625 C-10.781 18.683 -10.781 18.683 -12.836 18.977 C-13.55 18.984 -14.264 18.992 -15 19 C-15.66 18.34 -16.32 17.68 -17 17 C-17 15.68 -17 14.36 -17 13 C-16.397 13.009 -15.793 13.018 -15.172 13.027 C-12.625 12.933 -10.448 12.725 -8 12 C-5.688 8.75 -5.688 8.75 -4.84 6.855 C-3.65 4.226 -1.857 2.188 0 0 Z " fill="#77AD28" transform="translate(56,94)"/>
<path d="M0 0 C1.453 4.358 0.425 7.703 -1 12 C-2.095 14.056 -3.317 15.945 -4.625 17.871 C-7.11 21.718 -9.015 25.879 -11 30 C-11.99 30 -12.98 30 -14 30 C-12.558 25.36 -10.708 21.005 -8.625 16.625 C-8.315 15.967 -8.005 15.31 -7.685 14.632 C-1.445 1.445 -1.445 1.445 0 0 Z " fill="#88BC36" transform="translate(85,25)"/>
<path d="M0 0 C0.33 0.66 0.66 1.32 1 2 C2.65 1.34 4.3 0.68 6 0 C3.392 2.656 0.761 5.246 -2.016 7.727 C-8.387 13.425 -14.06 19.132 -19.293 25.918 C-21 28 -21 28 -23 29 C-21.637 24.962 -19.859 22.456 -16.938 19.375 C-12.736 14.848 -8.811 10.163 -4.945 5.348 C-3.371 3.448 -1.783 1.699 0 0 Z " fill="#3A7714" transform="translate(105,69)"/>
<path d="M0 0 C0 0.99 0 1.98 0 3 C-4.2 6.412 -8.481 8.875 -13.398 11.105 C-15 12 -15 12 -16 14 C-14.02 14 -12.04 14 -10 14 C-10.33 14.66 -10.66 15.32 -11 16 C-12.65 16 -14.3 16 -16 16 C-16.33 16.99 -16.66 17.98 -17 19 C-18.889 21.04 -20.252 21.931 -23.043 22.188 C-25.03 22.188 -27.016 22.099 -29 22 C-29 21.67 -29 21.34 -29 21 C-28.134 20.856 -27.267 20.711 -26.375 20.562 C-22.654 18.84 -22.298 18.155 -20.375 14.75 C-17.226 9.546 -13.389 7.738 -7.902 5.387 C-4.862 3.934 -2.546 2.191 0 0 Z " fill="#D8D69E" transform="translate(87,108)"/>
<path d="M0 0 C0.66 0.33 1.32 0.66 2 1 C1.505 1.392 1.01 1.784 0.5 2.188 C-1 4 -1 4 -0.871 6.348 C-1.081 10.667 -3.744 12.474 -6.754 15.328 C-9.945 17.704 -12.072 18 -16 18 C-11.373 11.267 -5.869 5.66 0 0 Z " fill="#9AC63E" transform="translate(88,44)"/>
<path d="M0 0 C0 3.377 -0.421 3.924 -2.379 6.52 C-2.632 6.863 -2.632 6.863 -3.913 8.6 C-4.457 9.33 -5.002 10.06 -5.562 10.812 C-10.958 18.218 -15.24 25.646 -19 34 C-19.66 33.67 -20.32 33.34 -21 33 C-12.936 16.319 -12.936 16.319 -8.031 9.797 C-7 8 -7 8 -7 4 C-4.69 2.68 -2.38 1.36 0 0 Z " fill="#BEE058" transform="translate(79,82)"/>
<path d="M0 0 C1.525 0.089 3.047 0.245 4.562 0.438 C5.389 0.539 6.215 0.641 7.066 0.746 C7.704 0.83 8.343 0.914 9 1 C9 1.66 9 2.32 9 3 C7.02 3 5.04 3 3 3 C4.125 5.972 5.223 8.334 7 11 C6.256 14.626 5.098 15.917 2.25 18.312 C-1.212 20.11 -3.166 20.365 -7 20 C-5.68 19.67 -4.36 19.34 -3 19 C-3 18.34 -3 17.68 -3 17 C-2.216 16.752 -1.432 16.505 -0.625 16.25 C2.323 14.846 2.902 13.993 4 11 C3.361 10.464 2.721 9.927 2.062 9.375 C-0.397 6.543 -0.754 4.697 -1 1 C-0.67 0.67 -0.34 0.34 0 0 Z " fill="#55891D" transform="translate(36,104)"/>
<path d="M0 0 C0 0.66 0 1.32 0 2 C-1.12 2.554 -2.24 3.109 -3.395 3.68 C-4.867 4.411 -6.34 5.143 -7.812 5.875 C-8.55 6.24 -9.288 6.605 -10.049 6.98 C-10.761 7.335 -11.473 7.689 -12.207 8.055 C-12.862 8.379 -13.516 8.704 -14.191 9.039 C-16 10 -16 10 -19 12 C-20.464 12.563 -21.945 13.082 -23.438 13.562 C-23.818 13.687 -23.818 13.687 -25.746 14.316 C-27.819 14.945 -29.893 15.496 -32 16 C-31.67 15.01 -31.34 14.02 -31 13 C-30.196 12.876 -29.391 12.752 -28.562 12.625 C-27.717 12.419 -26.871 12.213 -26 12 C-25.67 11.34 -25.34 10.68 -25 10 C-22.284 8.779 -19.583 7.647 -16.812 6.562 C-12.658 4.916 -8.57 3.286 -4.574 1.277 C-2 0 -2 0 0 0 Z " fill="#F3E8D0" transform="translate(102,111)"/>
<path d="M0 0 C0.99 0.33 1.98 0.66 3 1 C-5.586 12.223 -5.586 12.223 -11 16 C-11.99 16 -12.98 16 -14 16 C-14.33 14.68 -14.66 13.36 -15 12 C-14.42 11.72 -13.84 11.441 -13.242 11.152 C-7.568 8.24 -3.775 5.137 0 0 Z " fill="#70A729" transform="translate(46,87)"/>
<path d="M0 0 C0.66 0 1.32 0 2 0 C1.682 6.998 -1.216 13.16 -5 19 C-7.199 20.355 -7.199 20.355 -9 21 C-7.515 15.577 -6.113 10.737 -3 6 C-2.32 4.339 -1.651 2.673 -1 1 C-0.67 0.67 -0.34 0.34 0 0 Z " fill="#B6D653" transform="translate(80,27)"/>
<path d="M0 0 C0.928 0.082 1.856 0.165 2.812 0.25 C2.483 0.91 2.153 1.57 1.812 2.25 C1.153 2.25 0.493 2.25 -0.188 2.25 C0.142 2.745 0.142 2.745 1.812 5.25 C4.438 5.438 4.438 5.438 6.812 5.25 C6.812 6.24 6.812 7.23 6.812 8.25 C3.438 8 3.438 8 -0.188 7.25 C-1.625 5.188 -1.625 5.188 -2.188 3.25 C-2.847 3.25 -3.507 3.25 -4.188 3.25 C-4.164 4.142 -4.141 5.034 -4.117 5.953 C-4.099 7.124 -4.081 8.294 -4.062 9.5 C-4.039 10.66 -4.016 11.82 -3.992 13.016 C-4.177 16.078 -4.579 17.692 -6.188 20.25 C-6.269 17.666 -6.328 15.085 -6.375 12.5 C-6.4 11.77 -6.425 11.041 -6.451 10.289 C-6.496 7.031 -6.404 4.662 -4.875 1.75 C-3.188 0.25 -3.188 0.25 0 0 Z " fill="#5F9626" transform="translate(84.1875,4.75)"/>
<path d="M0 0 C-0.875 5.75 -0.875 5.75 -2 8 C-2.722 7.773 -3.444 7.546 -4.188 7.312 C-9.085 6.768 -12.286 10.112 -16 13 C-16.66 12.67 -17.32 12.34 -18 12 C-16.419 10.56 -14.835 9.123 -13.25 7.688 C-12.368 6.887 -11.487 6.086 -10.578 5.262 C-4.58 0 -4.58 0 0 0 Z " fill="#97C53C" transform="translate(120,20)"/>
<path d="M0 0 C0.66 0.33 1.32 0.66 2 1 C2 2.65 2 4.3 2 6 C3.32 6.66 4.64 7.32 6 8 C5.67 8.66 5.34 9.32 5 10 C4.277 9.75 3.554 9.5 2.809 9.242 C0 9 0 9 -2.465 10.695 C-3.281 11.497 -4.097 12.299 -4.938 13.125 C-5.8 13.951 -6.662 14.778 -7.551 15.629 C-8.359 16.411 -9.167 17.194 -10 18 C-11.971 19.707 -13.98 21.352 -16 23 C-16.66 22.67 -17.32 22.34 -18 22 C-14.022 17.927 -10.061 14.012 -5.625 10.438 C-1.868 7.24 -0.789 4.831 0 0 Z " fill="#4F8923" transform="translate(116,12)"/>
<path d="M0 0 C0 4.614 -2.852 6.838 -6 10 C-11.006 14.086 -11.006 14.086 -14.875 13.75 C-15.576 13.502 -16.277 13.255 -17 13 C-15.01 10.926 -12.991 9.177 -10.645 7.52 C-10.023 7.078 -9.401 6.637 -8.76 6.182 C-8.438 5.956 -8.438 5.956 -6.812 4.812 C-6.158 4.349 -5.504 3.886 -4.83 3.408 C-3.222 2.27 -1.611 1.134 0 0 Z " fill="#8BBC34" transform="translate(46,85)"/>
<path d="M0 0 C0 3 0 3 -1.906 5.234 C-2.762 6.065 -3.618 6.895 -4.5 7.75 C-5.41 8.633 -6.32 9.516 -7.258 10.426 C-10.759 13.713 -14.291 16.947 -18 20 C-18.673 20.579 -19.346 21.158 -20.039 21.754 C-20.686 22.165 -21.333 22.576 -22 23 C-22.99 22.67 -23.98 22.34 -25 22 C-24.31 21.455 -23.621 20.909 -22.91 20.348 C-17.263 15.816 -12 11.14 -6.949 5.953 C-4.772 3.771 -2.476 1.837 0 0 Z " fill="#E4DFB0" transform="translate(113,85)"/>
<path d="M0 0 C0.66 0.33 1.32 0.66 2 1 C-0.206 3.377 -2.416 5.751 -4.625 8.125 C-5.242 8.79 -5.86 9.455 -6.496 10.141 C-10.255 14.176 -14.076 18.125 -18 22 C-18.99 21.67 -19.98 21.34 -21 21 C-14 14 -7 7 0 0 Z " fill="#4C8B27" transform="translate(52,68)"/>
<path d="M0 0 C0 4.429 -2.849 6.458 -5.75 9.5 C-6.019 9.791 -6.019 9.791 -7.383 11.262 C-10.083 14.139 -12.719 16.77 -16 19 C-16 16 -16 16 -14.625 14.312 C-13 13 -13 13 -11 13 C-10.865 12.713 -10.865 12.713 -10.184 11.262 C-8.971 8.944 -7.614 6.917 -6.062 4.812 C-5.558 4.118 -5.054 3.423 -4.535 2.707 C-3 1 -3 1 0 0 Z " fill="#97C439" transform="translate(112,52)"/>
<path d="M0 0 C0.33 2.64 0.66 5.28 1 8 C-2 10 -2 10 -5.188 9.625 C-5.652 9.522 -5.652 9.522 -8 9 C-8 8.01 -8 7.02 -8 6 C-7.34 6 -6.68 6 -6 6 C-6 5.34 -6 4.68 -6 4 C-2.471 0 -2.471 0 0 0 Z " fill="#9EC63C" transform="translate(36,106)"/>
<path d="M0 0 C0.66 0.33 1.32 0.66 2 1 C-1.396 5.086 -4.803 8.949 -8.875 12.375 C-13.73 16.478 -17.837 21.211 -22 26 C-22.33 25.34 -22.66 24.68 -23 24 C-18.656 17.665 -13.534 10.511 -6 8 C-5.315 6.676 -4.651 5.341 -4 4 C-2.705 2.629 -1.378 1.287 0 0 Z " fill="#BBDC53" transform="translate(103,56)"/>
<path d="M0 0 C0.66 0.33 1.32 0.66 2 1 C0.612 4.341 -0.816 5.902 -3.875 7.812 C-4.553 8.252 -5.231 8.692 -5.93 9.145 C-8.408 10.168 -9.525 9.905 -12 9 C-12 8.34 -12 7.68 -12 7 C-10.391 5.781 -10.391 5.781 -8.25 4.5 C-7.554 4.077 -6.858 3.654 -6.141 3.219 C-1.859 0.781 -1.859 0.781 0 0 Z " fill="#B1D551" transform="translate(38,87)"/>
<path d="M0 0 C0 3 0 3 -2.23 5.559 C-3.209 6.526 -4.195 7.485 -5.188 8.438 C-5.67 8.915 -6.153 9.393 -6.65 9.885 C-14.944 18 -14.944 18 -18 18 C-17 15 -17 15 -14.438 13 C-13.633 12.34 -12.829 11.68 -12 11 C-12 10.01 -12 9.02 -12 8 C-11.567 7.897 -11.567 7.897 -9.375 7.375 C-5.079 5.625 -3.11 3.406 0 0 Z " fill="#AFD64C" transform="translate(86,53)"/>
<path d="M0 0 C0.33 0 0.66 0 1 0 C0.67 2.97 0.34 5.94 0 9 C1.32 7.35 2.64 5.7 4 4 C4.66 4.33 5.32 4.66 6 5 C5.668 8.1 4.945 9.055 2.688 11.312 C0 13 0 13 -2.168 12.605 C-2.773 12.406 -3.377 12.206 -4 12 C-3.525 10.186 -3.045 8.374 -2.562 6.562 C-2.296 5.553 -2.029 4.544 -1.754 3.504 C-1 1 -1 1 0 0 Z " fill="#45831F" transform="translate(89,31)"/>
<path d="M0 0 C0.66 0.66 1.32 1.32 2 2 C1.022 3.48 0.043 4.959 -0.938 6.438 C-1.483 7.261 -2.028 8.085 -2.59 8.934 C-4 11 -4 11 -5 12 C-7.922 12.408 -10.091 12.495 -12.73 11.059 C-14.375 9.812 -14.375 9.812 -17 7 C-17.375 4.188 -17.375 4.188 -17 2 C-16.752 2.598 -16.505 3.196 -16.25 3.812 C-14.785 6.377 -13.526 7.484 -11 9 C-8.25 9.688 -8.25 9.688 -6 10 C-6 9.34 -6 8.68 -6 8 C-5.333 7.333 -5.333 7.333 -2 4 C-0.75 1.75 -0.75 1.75 0 0 Z " fill="#5F8E23" transform="translate(68,117)"/>
<path d="M0 0 C0.66 0.66 1.32 1.32 2 2 C1.527 2.51 1.054 3.021 0.566 3.547 C-5.066 9.74 -10.065 16.248 -15 23 C-15.33 22.01 -15.66 21.02 -16 20 C-14.368 17.595 -12.723 15.416 -10.875 13.188 C-10.388 12.584 -9.9 11.98 -9.398 11.357 C-6.307 7.538 -3.152 3.77 0 0 Z " fill="#4A8B1E" transform="translate(65,66)"/>
<path d="M0 0 C0.66 0 1.32 0 2 0 C0.446 3.602 -1.747 6.169 -4.375 9.062 C-5.146 9.92 -5.917 10.777 -6.711 11.66 C-8.706 13.699 -10.665 15.374 -13 17 C-13.66 16.67 -14.32 16.34 -15 16 C-11.727 11.265 -9.104 7.821 -4 5 C-2.653 3.345 -1.317 1.68 0 0 Z " fill="#A4D049" transform="translate(67,56)"/>
<path d="M0 0 C0.99 0.33 1.98 0.66 3 1 C1.568 6.011 -0.984 7.945 -5 11 C-5.99 10.01 -6.98 9.02 -8 8 C-5.36 5.36 -2.72 2.72 0 0 Z " fill="#649729" transform="translate(123,52)"/>
<path d="M0 0 C0 1.32 0 2.64 0 4 C-2.901 5.934 -3.897 6.301 -7.188 6.625 C-8.446 6.749 -9.704 6.873 -11 7 C-11 5.68 -11 4.36 -11 3 C-7.142 0.847 -4.449 -0.393 0 0 Z " fill="#9AC840" transform="translate(140,29)"/>
<path d="M0 0 C0.66 0.99 1.32 1.98 2 3 C1.123 4.801 0.223 6.591 -0.688 8.375 C-1.186 9.373 -1.685 10.37 -2.199 11.398 C-4.239 14.345 -5.605 15.04 -9 16 C-7.567 12.041 -5.669 8.713 -3.375 5.188 C-2.743 4.212 -2.112 3.236 -1.461 2.23 C-1.22 1.862 -1.22 1.862 0 0 Z " fill="#A1C843" transform="translate(49,89)"/>
<path d="M0 0 C0.33 0.66 0.66 1.32 1 2 C-1 5 -1 5 -2.738 5.82 C-6.116 7.582 -8.518 10.19 -11.188 12.875 C-11.733 13.405 -12.279 13.935 -12.842 14.48 C-15.609 17.244 -17.283 19.156 -18 23 C-18.66 23 -19.32 23 -20 23 C-20.33 22.01 -20.66 21.02 -21 20 C-18.254 17.225 -15.503 14.456 -12.75 11.688 C-11.973 10.902 -11.195 10.116 -10.395 9.307 C-9.64 8.549 -8.886 7.792 -8.109 7.012 C-7.418 6.315 -6.727 5.619 -6.015 4.901 C-4.102 3.096 -2.136 1.531 0 0 Z " fill="#467E17" transform="translate(126,48)"/>
<path d="M0 0 C0.33 0.66 0.66 1.32 1 2 C-0.281 3.707 -1.618 5.374 -3 7 C-3.66 7 -4.32 7 -5 7 C-5 7.66 -5 8.32 -5 9 C-4.615 8.742 -4.615 8.742 -2.664 7.434 C-1.661 6.775 -0.658 6.116 0.375 5.438 C0.874 5.107 0.874 5.107 3.398 3.434 C4.257 2.961 5.115 2.487 6 2 C6.66 2.33 7.32 2.66 8 3 C6.256 4.32 4.504 5.631 2.75 6.938 C1.775 7.668 0.801 8.399 -0.203 9.152 C-2.667 10.78 -4.162 11.504 -7 12 C-7.33 12.165 -7.33 12.165 -9 13 C-7.743 7.973 -6.155 6.012 -2 3 C-1.34 2.01 -0.68 1.02 0 0 Z " fill="#4A7F1F" transform="translate(118,31)"/>
<path d="M0 0 C3.151 0.341 4.608 0.581 6.812 2.938 C8 5 8 5 8 7 C8.66 7.33 9.32 7.66 10 8 C9.34 9.98 8.68 11.96 8 14 C7.34 14 6.68 14 6 14 C6 14.66 6 15.32 6 16 C2.538 19 2.538 19 0 19 C0 18.34 0 17.68 0 17 C1.531 15.492 1.531 15.492 3.5 13.875 C4.15 13.336 4.799 12.797 5.469 12.242 C5.721 12.037 5.721 12.037 7 11 C6.01 10.34 5.02 9.68 4 9 C4.66 9 5.32 9 6 9 C4.839 4.645 3.923 2.354 0 0 Z " fill="#53871B" transform="translate(24,96)"/>
<path d="M0 0 C0.99 0 1.98 0 3 0 C2.583 4.857 0.2 7.451 -3.062 10.812 C-3.535 11.315 -4.007 11.817 -4.494 12.334 C-5.654 13.564 -6.826 14.783 -8 16 C-9 13 -9 13 -7.75 10.312 C-7.172 9.549 -6.595 8.786 -6 8 C-5.01 8 -4.02 8 -3 8 C-2.938 7.618 -2.938 7.618 -2.625 5.688 C-2 3 -2 3 0 0 Z " fill="#6BA627" transform="translate(77,47)"/>
<path d="M0 0 C2 1.438 2 1.438 4 4 C4.797 8.966 4.323 13.499 2 18 C1.67 18 1.34 18 1 18 C1 15.69 1 13.38 1 11 C0.67 11 0.34 11 0 11 C0 7.37 0 3.74 0 0 Z " fill="#A9D14B" transform="translate(81,8)"/>
<path d="M0 0 C1 3 1 3 0.062 5.188 C-0.113 5.487 -0.113 5.487 -1 7 C-0.01 7.66 0.98 8.32 2 9 C2 9.99 2 10.98 2 12 C0.515 11.67 0.515 11.67 -7 10 C-4.143 2.429 -4.143 2.429 0 0 Z " fill="#ACD247" transform="translate(60,108)"/>
<path d="M0 0 C-1.175 3.524 -2.193 4.15 -5.125 6.312 C-8.167 8.593 -11.096 10.913 -13.938 13.438 C-17 16 -17 16 -19 16 C-17.5 12.245 -15.365 10.439 -12.188 8 C-11.335 7.34 -10.483 6.68 -9.605 6 C-8.746 5.34 -7.886 4.68 -7 4 C-6.555 3.629 -6.555 3.629 -4.301 1.75 C-2 0 -2 0 0 0 Z " fill="#488024" transform="translate(121,78)"/>
<path d="M0 0 C0.66 0.33 1.32 0.66 2 1 C1 4 1 4 -0.926 5.133 C-1.713 5.46 -2.501 5.788 -3.312 6.125 C-4.092 6.458 -4.872 6.79 -5.676 7.133 C-7.774 7.916 -9.818 8.511 -12 9 C-12 8.01 -12 7.02 -12 6 C-10.047 4.97 -8.087 3.951 -6.125 2.938 C-5.034 2.369 -3.944 1.801 -2.82 1.215 C-2.355 1.014 -2.355 1.014 0 0 Z " fill="#6AA729" transform="translate(125,62)"/>
<path d="M0 0 C0.99 0 1.98 0 3 0 C0.908 4.462 -1.982 8.13 -5 12 C-5.473 12.611 -5.946 13.222 -6.434 13.852 C-7.572 15.277 -8.78 16.645 -10 18 C-10.66 18 -11.32 18 -12 18 C-10.209 13.988 -7.609 11.203 -4.656 8 C-3.051 6.062 -2.028 4.285 -1 2 C-0.67 1.34 -0.34 0.68 0 0 Z " fill="#BCDD55" transform="translate(65,72)"/>
<path d="M0 0 C-1.107 3.32 -1.946 4.058 -4.562 6.25 C-5.275 6.855 -5.988 7.459 -6.723 8.082 C-7.474 8.715 -8.226 9.348 -9 10 C-10.503 11.309 -12.003 12.622 -13.5 13.938 C-14.667 14.958 -15.833 15.979 -17 17 C-17.66 15.68 -18.32 14.36 -19 13 C-17.68 13.33 -16.36 13.66 -15 14 C-15 13.34 -15 12.68 -15 12 C-13.426 10.449 -13.426 10.449 -11.312 8.688 C-8.802 6.564 -6.392 4.445 -4.125 2.062 C-2 0 -2 0 0 0 Z " fill="#B1D750" transform="translate(105,36)"/>
<path d="M0 0 C5.75 0.75 5.75 0.75 8 3 C8 4.32 8 5.64 8 7 C2.25 6.25 2.25 6.25 0 4 C0 2.68 0 1.36 0 0 Z " fill="#A3C53E" transform="translate(53,120)"/>
<path d="M0 0 C0.66 0.33 1.32 0.66 2 1 C2 1.33 2 1.66 2 2 C2.66 1.67 3.32 1.34 4 1 C3.439 4.255 2.669 5.998 0 8 C-2.796 8.769 -5.094 9 -8 9 C-5.36 6.03 -2.72 3.06 0 0 Z " fill="#93C03D" transform="translate(53,69)"/>
<path d="M0 0 C4.813 0.118 7.176 1.959 10.535 5.25 C10.736 5.467 10.736 5.467 11.75 6.562 C9.938 7.188 9.938 7.188 7.75 7.562 C6.76 6.903 5.77 6.243 4.75 5.562 C4.75 4.573 4.75 3.582 4.75 2.562 C2.77 2.728 2.77 2.728 -7.25 3.562 C-3.787 0.099 -3.787 0.099 0 0 Z " fill="#F2E5C8" transform="translate(45.25,121.4375)"/>
<path d="M0 0 C1.65 0.33 3.3 0.66 5 1 C5.33 1.99 5.66 2.98 6 4 C5.01 3.67 4.02 3.34 3 3 C1.68 5.64 0.36 8.28 -1 11 C-1.66 11 -2.32 11 -3 11 C-2.691 9.541 -2.378 8.083 -2.062 6.625 C-1.888 5.813 -1.714 5.001 -1.535 4.164 C-1 2 -1 2 0 0 Z " fill="#9FC845" transform="translate(109,10)"/>
<path d="M0 0 C0.66 0.33 1.32 0.66 2 1 C1.688 2.875 1.688 2.875 1 5 C0.01 5.66 -0.98 6.32 -2 7 C-3.012 8.659 -4.013 10.326 -5 12 C-5.33 12.165 -5.33 12.165 -7 13 C-7.66 12.34 -8.32 11.68 -9 11 C-8.518 10.457 -8.036 9.915 -7.539 9.355 C-6.907 8.64 -6.276 7.925 -5.625 7.188 C-5.312 6.834 -5.312 6.834 -3.727 5.043 C-2 3 -2 3 0 0 Z " fill="#669E33" transform="translate(61,56)"/>
<path d="M0 0 C0.66 0.33 1.32 0.66 2 1 C2 1.66 2 2.32 2 3 C2.66 3 3.32 3 4 3 C3.651 6.255 2.979 7.019 0.438 9.25 C-0.367 9.828 -1.171 10.405 -2 11 C-2.66 10.67 -3.32 10.34 -4 10 C-2.35 8.68 -0.7 7.36 1 6 C0.01 5.835 0.01 5.835 -5 5 C-3.35 3.35 -1.7 1.7 0 0 Z " fill="#76AB2D" transform="translate(120,37)"/>
<path d="M0 0 C1.32 0.66 2.64 1.32 4 2 C2.827 5.337 1.811 7.774 -1 10 C-1.66 10 -2.32 10 -3 10 C-3.366 5.727 -2.408 3.512 0 0 Z " fill="#7FB332" transform="translate(104,20)"/>
<path d="M0 0 C-1 1 -1 1 -3.562 1.062 C-3.965 1.052 -3.965 1.052 -6 1 C-6.33 1.99 -6.66 2.98 -7 4 C-8.889 6.04 -10.252 6.931 -13.043 7.188 C-15.03 7.188 -17.016 7.099 -19 7 C-19 6.67 -19 6.34 -19 6 C-18.051 5.732 -17.102 5.464 -16.125 5.188 C-13 4 -13 4 -11 1 C-8.906 0.234 -8.906 0.234 -6.5 -0.25 C-6.103 -0.335 -6.103 -0.335 -4.094 -0.766 C-2 -1 -2 -1 0 0 Z " fill="#D5D6A3" transform="translate(77,123)"/>
<path d="M0 0 C2 -0.043 4 -0.041 6 0 C7 1 7 1 7.062 3.562 C7.042 4.367 7.021 5.171 7 6 C4.625 6.125 4.625 6.125 2 6 C1.34 5.34 0.68 4.68 0 4 C0 2.68 0 1.36 0 0 Z " fill="#9CC838" transform="translate(39,107)"/>
<path d="M0 0 C0.33 0.66 0.66 1.32 1 2 C2.65 1.34 4.3 0.68 6 0 C4.333 1.667 2.667 3.333 1 5 C0.742 5.289 0.742 5.289 -0.562 6.75 C-2.305 8.265 -3.749 8.612 -6 9 C-4.688 5.063 -3.081 2.773 0 0 Z " fill="#356D12" transform="translate(105,69)"/>
<path d="M0 0 C-0.33 3.3 -0.66 6.6 -1 10 C-1.99 9.34 -2.98 8.68 -4 8 C-4 7.34 -4 6.68 -4 6 C-4.66 6 -5.32 6 -6 6 C-6 4.35 -6 2.7 -6 1 C-3 0 -3 0 0 0 Z " fill="#60962D" transform="translate(92,24)"/>
<path d="M0 0 C0.33 0.66 0.66 1.32 1 2 C-1.624 2.388 -4.248 2.761 -6.875 3.125 C-7.621 3.237 -8.368 3.349 -9.137 3.465 C-11.082 3.728 -13.042 3.872 -15 4 C-15.66 3.34 -16.32 2.68 -17 2 C-11.216 -0.012 -6.098 -0.221 0 0 Z " fill="#659D37" transform="translate(143,58)"/>
<path d="M0 0 C0.33 0.66 0.66 1.32 1 2 C1.887 1.897 2.774 1.794 3.688 1.688 C8.03 2.097 9.189 3.798 12 7 C12.66 7.33 13.32 7.66 14 8 C13.01 8.33 12.02 8.66 11 9 C10.67 9.66 10.34 10.32 10 11 C9.794 10.216 9.587 9.433 9.375 8.625 C8 6 8 6 4.875 4.688 C3.926 4.461 2.977 4.234 2 4 C1.67 4.99 1.34 5.98 1 7 C0.67 4.69 0.34 2.38 0 0 Z " fill="#74A328" transform="translate(51,116)"/>
<path d="M0 0 C2.375 -0.125 2.375 -0.125 5 0 C7 2 7 2 7 6 C4.625 6.125 4.625 6.125 2 6 C1.34 5.34 0.68 4.68 0 4 C0 2.68 0 1.36 0 0 Z " fill="#98C13B" transform="translate(23,98)"/>
<path d="M0 0 C0.99 0.66 1.98 1.32 3 2 C2.547 6.874 1.291 9.39 -2 13 C-2.99 12.835 -2.99 12.835 -8 12 C-8 11.67 -8 11.34 -8 11 C-7.072 11 -6.144 11 -5.188 11 C-2 10 -2 10 -0.934 8.152 C-0.19 6.117 0.455 4.097 1 2 C0.34 1.67 -0.32 1.34 -1 1 C-0.67 0.67 -0.34 0.34 0 0 Z " fill="#589427" transform="translate(144,59)"/>
<path d="M0 0 C0.66 1.32 1.32 2.64 2 4 C-1.019 7.483 -3.569 8.792 -8 10 C-8 8.35 -8 6.7 -8 5 C-6.35 5 -4.7 5 -3 5 C-2.67 3.68 -2.34 2.36 -2 1 C-2 1.99 -2 2.98 -2 4 C-1.34 4 -0.68 4 0 4 C0 2.68 0 1.36 0 0 Z " fill="#6A992A" transform="translate(50,108)"/>
<path d="M0 0 C0.99 0 1.98 0 3 0 C1.41 5.089 -1.745 8.875 -5 13 C-6.32 12.67 -7.64 12.34 -9 12 C-8.381 11.938 -7.763 11.876 -7.125 11.812 C-5 11 -5 11 -3.938 8.812 C-3.628 7.884 -3.319 6.956 -3 6 C-2.015 3.992 -1.018 1.991 0 0 Z " fill="#B4D94E" transform="translate(50,92)"/>
<path d="M0 0 C0.66 0.33 1.32 0.66 2 1 C-1.79 6.47 -5.75 10.9 -11 15 C-9.573 12.072 -8.131 9.486 -6 7 C-5.34 7 -4.68 7 -4 7 C-3.711 6.216 -3.422 5.432 -3.125 4.625 C-2 2 -2 2 0 0 Z " fill="#83B530" transform="translate(89,54)"/>
<path d="M0 0 C0.33 0.66 0.66 1.32 1 2 C1.66 2.33 2.32 2.66 3 3 C1.194 7.155 0.182 9.22 -4 11 C-3.525 9.353 -3.045 7.707 -2.562 6.062 C-2.296 5.146 -2.029 4.229 -1.754 3.285 C-1 1 -1 1 0 0 Z " fill="#ABD44A" transform="translate(75,37)"/>
<path d="M0 0 C0.66 1.32 1.32 2.64 2 4 C-0.106 6.949 -2.394 9.484 -5 12 C-5.66 10.35 -6.32 8.7 -7 7 C-6.216 6.587 -5.433 6.175 -4.625 5.75 C-1.941 3.961 -1.119 2.95 0 0 Z " fill="#63A127" transform="translate(100,27)"/>
<path d="M0 0 C0.33 0.66 0.66 1.32 1 2 C1.99 2.33 2.98 2.66 4 3 C2.951 5.622 2.351 6.794 -0.125 8.25 C-0.744 8.498 -1.362 8.745 -2 9 C-2 8.01 -2 7.02 -2 6 C-2.33 5.01 -2.66 4.02 -3 3 C-2.01 2.67 -1.02 2.34 0 2 C0 1.34 0 0.68 0 0 Z " fill="#70AA27" transform="translate(37,112)"/>
<path d="M0 0 C1.069 3.207 0.949 4.35 0.25 7.562 C0.09 8.348 -0.07 9.133 -0.234 9.941 C-1 12 -1 12 -4 14 C-3.912 12.416 -3.804 10.832 -3.688 9.25 C-3.658 8.809 -3.658 8.809 -3.512 6.578 C-2.936 3.677 -1.924 2.208 0 0 Z " fill="#7FB530" transform="translate(85,25)"/>
<path d="M0 0 C0.66 0 1.32 0 2 0 C0.533 5.722 -2.412 10.369 -6 15 C-6.33 15.165 -6.33 15.165 -8 16 C-6.573 12.21 -4.838 8.729 -2.875 5.188 C-2.336 4.212 -1.797 3.236 -1.242 2.23 C-0.832 1.494 -0.422 0.758 0 0 Z " fill="#4D8729" transform="translate(103,18)"/>
<path d="M0 0 C0 3.396 -0.522 4.066 -2.5 6.688 C-2.964 7.31 -3.428 7.933 -3.906 8.574 C-4.267 9.045 -4.628 9.515 -5 10 C-5.66 9.34 -6.32 8.68 -7 8 C-7 6.68 -7 5.36 -7 4 C-4.69 2.68 -2.38 1.36 0 0 Z " fill="#B0D550" transform="translate(79,82)"/>
<path d="M0 0 C1.32 0.66 2.64 1.32 4 2 C1.36 4.97 -1.28 7.94 -4 11 C-4.99 10.67 -5.98 10.34 -7 10 C-6.402 9.649 -5.804 9.299 -5.188 8.938 C-2.195 6.287 -1.405 3.722 0 0 Z " fill="#95C43C" transform="translate(65,53)"/>
<path d="M0 0 C-1.312 3.937 -3.196 4.827 -6.562 7.188 C-7.574 7.903 -8.586 8.618 -9.629 9.355 C-10.411 9.898 -11.194 10.441 -12 11 C-12.33 10.01 -12.66 9.02 -13 8 C-11.213 6.661 -9.42 5.329 -7.625 4 C-6.627 3.258 -5.63 2.515 -4.602 1.75 C-2 0 -2 0 0 0 Z " fill="#4F8328" transform="translate(140,39)"/>
<path d="M0 0 C1.525 0.089 3.047 0.245 4.562 0.438 C4.976 0.488 4.976 0.488 7.066 0.746 C7.704 0.83 8.343 0.914 9 1 C9 1.66 9 2.32 9 3 C7.02 3 5.04 3 3 3 C2.67 4.32 2.34 5.64 2 7 C1.34 7 0.68 7 0 7 C-0.381 5.009 -0.713 3.007 -1 1 C-0.67 0.67 -0.34 0.34 0 0 Z " fill="#61941F" transform="translate(36,104)"/>
<path d="M0 0 C2.438 0.75 2.438 0.75 5 2 C5.812 4.125 5.812 4.125 6 6 C4.334 6.043 2.666 6.041 1 6 C0 5 0 5 -0.062 2.438 C-0.042 1.633 -0.021 0.829 0 0 Z " fill="#A1C93E" transform="translate(26,116)"/>
<path d="M0 0 C-0.66 1.65 -1.32 3.3 -2 5 C-2.33 4.34 -2.66 3.68 -3 3 C-3.825 3.495 -3.825 3.495 -8 6 C-8 5.34 -8 4.68 -8 4 C-8.66 3.67 -9.32 3.34 -10 3 C-3.375 -1.125 -3.375 -1.125 0 0 Z " fill="#3D7612" transform="translate(41,101)"/>
<path d="M0 0 C-3.96 1.98 -7.92 3.96 -12 6 C-12.66 5.34 -13.32 4.68 -14 4 C-12.425 3.131 -10.839 2.28 -9.25 1.438 C-8.368 0.962 -7.487 0.486 -6.578 -0.004 C-4 -1 -4 -1 0 0 Z " fill="#5C942C" transform="translate(139,28)"/>
<path d="M0 0 C2.125 0.375 2.125 0.375 4 1 C1.651 3.505 -0.091 4.906 -3.559 5.266 C-6.05 5.251 -8.515 5.174 -11 5 C-11 4.67 -11 4.34 -11 4 C-10.374 3.879 -9.747 3.758 -9.102 3.633 C-8.284 3.465 -7.467 3.298 -6.625 3.125 C-5.813 2.963 -5.001 2.8 -4.164 2.633 C-2 2 -2 2 0 0 Z " fill="#D9D3A3" transform="translate(39,120)"/>
<path d="M0 0 C-2.66 3.442 -5.903 3.995 -10 5 C-7.562 0.246 -7.562 0.246 -5 -0.875 C-3 -1 -3 -1 0 0 Z " fill="#76A82D" transform="translate(136,67)"/>
<path d="M0 0 C0.66 0.33 1.32 0.66 2 1 C1.375 2.938 1.375 2.938 0 5 C-3.125 5.75 -3.125 5.75 -6 6 C-4.985 3.464 -4.315 2.206 -2 0.688 C-1.34 0.461 -0.68 0.234 0 0 Z " fill="#B7D958" transform="translate(38,87)"/>
<path d="M0 0 C-1.555 3.817 -4.036 6.192 -7 9 C-7.99 8.67 -8.98 8.34 -10 8 C-8.715 6.661 -7.421 5.329 -6.125 4 C-5.765 3.629 -5.765 3.629 -3.945 1.75 C-2 0 -2 0 0 0 Z " fill="#58942C" transform="translate(41,81)"/>
<path d="M0 0 C0.66 0.66 1.32 1.32 2 2 C1.67 2.165 1.67 2.165 0 3 C-0.144 3.413 -0.144 3.413 -0.875 5.5 C-2 8 -2 8 -4.125 8.812 C-4.744 8.874 -5.362 8.936 -6 9 C-4.688 5.063 -3.081 2.773 0 0 Z " fill="#79AF2F" transform="translate(69,57)"/>
<path d="M0 0 C0.66 0 1.32 0 2 0 C2 2.97 2 5.94 2 9 C1.67 9.165 1.67 9.165 0 10 C-1.491 7.018 -1.119 4.284 -1 1 C-0.67 0.67 -0.34 0.34 0 0 Z " fill="#7FB52E" transform="translate(88,13)"/>
<path d="M0 0 C4.75 0.75 4.75 0.75 7 3 C7.125 5.625 7.125 5.625 7 8 C6.34 8 5.68 8 5 8 C4.732 7.196 4.464 6.391 4.188 5.562 C3.796 4.717 3.404 3.871 3 3 C2.01 2.67 1.02 2.34 0 2 C0 1.34 0 0.68 0 0 Z " fill="#81B532" transform="translate(137,26)"/>
<path d="M0 0 C0 3 0 3 -2.5 5.688 C-3.325 6.451 -4.15 7.214 -5 8 C-5.66 7.67 -6.32 7.34 -7 7 C-5.75 4.062 -5.75 4.062 -4 1 C-1.812 0.125 -1.812 0.125 0 0 Z " fill="#306F0E" transform="translate(88,42)"/>
<path d="M0 0 C0.66 1.32 1.32 2.64 2 4 C1.01 4.825 1.01 4.825 -4 9 C-4 5.001 -2.274 3.198 0 0 Z " fill="#548C1A" transform="translate(81,100)"/>
<path d="M0 0 C0.66 0.66 1.32 1.32 2 2 C-0.31 4.31 -2.62 6.62 -5 9 C-5.66 8.34 -6.32 7.68 -7 7 C-4.69 4.69 -2.38 2.38 0 0 Z " fill="#558A29" transform="translate(101,93)"/>
<path d="M0 0 C0.66 0.33 1.32 0.66 2 1 C0.35 3.97 -1.3 6.94 -3 10 C-3.33 10 -3.66 10 -4 10 C-3.385 3.477 -3.385 3.477 -1.438 1.062 C-1.2 0.887 -1.2 0.887 0 0 Z " fill="#84B430" transform="translate(56,94)"/>
<path d="M0 0 C0.66 0 1.32 0 2 0 C0.523 5.662 0.523 5.662 -2.125 7.375 C-2.434 7.478 -2.434 7.478 -4 8 C-3.403 4.658 -2.264 2.536 0 0 Z " fill="#3A7314" transform="translate(66,90)"/>
<path d="M0 0 C0.66 0.33 1.32 0.66 2 1 C0.75 4.653 0.329 5.781 -3 8 C-3 3.732 -2.624 3.061 0 0 Z " fill="#9AC23D" transform="translate(71,87)"/>
<path d="M0 0 C0.66 0.66 1.32 1.32 2 2 C-0.31 4.64 -2.62 7.28 -5 10 C-5.66 9.34 -6.32 8.68 -7 8 C-4.69 5.36 -2.38 2.72 0 0 Z " fill="#539121" transform="translate(65,66)"/>
<path d="M0 0 C0 3 0 3 -1.312 4.387 C-2.875 5.591 -4.438 6.796 -6 8 C-6.66 7.67 -7.32 7.34 -8 7 C-3.375 1.125 -3.375 1.125 0 0 Z " fill="#AFD64E" transform="translate(60,65)"/>
<path d="M0 0 C0.66 0 1.32 0 2 0 C1.602 2.886 1.21 3.822 -1.062 5.75 C-1.702 6.162 -2.341 6.575 -3 7 C-2.25 2.25 -2.25 2.25 0 0 Z " fill="#9CC53E" transform="translate(90,65)"/>
<path d="M0 0 C0.33 0.66 0.66 1.32 1 2 C1.66 2.33 2.32 2.66 3 3 C1.879 3.839 0.753 4.671 -0.375 5.5 C-0.688 5.732 -0.688 5.732 -2.273 6.906 C-4 8 -4 8 -6 8 C-6 6 -6 6 -3.562 3.438 C-2.717 2.633 -1.871 1.829 -1 1 C-0.67 0.67 -0.34 0.34 0 0 Z " fill="#C2D69F" transform="translate(119,32)"/>
<path d="M0 0 C0.33 0 0.66 0 1 0 C1 3.63 1 7.26 1 11 C0.34 11 -0.32 11 -1 11 C-1.33 11.66 -1.66 12.32 -2 13 C-2.66 12.67 -3.32 12.34 -4 12 C-3.34 10.68 -2.68 9.36 -2 8 C-1.67 8.33 -1.34 8.66 -1 9 C-0.67 6.03 -0.34 3.06 0 0 Z " fill="#6CA928" transform="translate(90,13)"/>
<path d="M0 0 C0.99 0.33 1.98 0.66 3 1 C1.35 3.97 -0.3 6.94 -2 10 C-3.392 5.824 -1.823 3.865 0 0 Z " fill="#558C21" transform="translate(55,108)"/>
<path d="M0 0 C0.66 0.33 1.32 0.66 2 1 C-0.31 3.31 -2.62 5.62 -5 8 C-5.99 7.67 -6.98 7.34 -8 7 C-5.36 4.69 -2.72 2.38 0 0 Z " fill="#3C7814" transform="translate(112,41)"/>
<path d="M0 0 C4.248 0.472 6.2 2.967 9 6 C8.01 5.835 8.01 5.835 3 5 C2.876 4.361 2.752 3.721 2.625 3.062 C2.522 2.722 2.522 2.722 2 1 C1.34 0.67 0.68 0.34 0 0 Z " fill="#E8E8C3" transform="translate(48,123)"/>
<path d="M0 0 C0.99 0 1.98 0 3 0 C2.67 1.98 2.34 3.96 2 6 C1.01 6.33 0.02 6.66 -1 7 C-1.625 5.188 -1.625 5.188 -2 3 C-1.34 2.01 -0.68 1.02 0 0 Z " fill="#82B72F" transform="translate(63,117)"/>
<path d="M0 0 C0.206 0.619 0.413 1.237 0.625 1.875 C2.548 4.847 4.666 5.13 8 6 C7.34 6.66 6.68 7.32 6 8 C3.5 7.875 3.5 7.875 1 7 C-0.375 5.125 -0.375 5.125 -1 3 C-0.67 2.01 -0.34 1.02 0 0 Z " fill="#68912C" transform="translate(22,98)"/>
<path d="M0 0 C0.66 0.33 1.32 0.66 2 1 C1.458 4.796 -0.201 6.472 -3 9 C-2.443 5.656 -1.648 2.967 0 0 Z " fill="#E0ECCC" transform="translate(91,32)"/>
<path d="M0 0 C2 1 2 1 3 3 C1.713 3.697 0.421 4.382 -0.875 5.062 C-1.235 5.254 -1.235 5.254 -3.055 6.223 C-3.376 6.351 -3.376 6.351 -5 7 C-5.66 6.67 -6.32 6.34 -7 6 C-4.69 4.02 -2.38 2.04 0 0 Z " fill="#DDE9C8" transform="translate(123,58)"/>
<path d="M0 0 C0.99 0.33 1.98 0.66 3 1 C1.523 5.677 1.523 5.677 -1.125 7.312 C-1.434 7.426 -1.434 7.426 -3 8 C-3 7.01 -3 6.02 -3 5 C-2.01 4.34 -1.02 3.68 0 3 C0 2.01 0 1.02 0 0 Z " fill="#578827" transform="translate(123,52)"/>
<path d="M0 0 C0.33 0 0.66 0 1 0 C1.25 2.75 1.25 2.75 1 6 C-1 8.375 -1 8.375 -3 10 C-3 6.133 -1.581 3.491 0 0 Z " fill="#6DAA28" transform="translate(120,21)"/>
<path d="M0 0 C3 3.625 3 3.625 3 7 C1.35 7.33 -0.3 7.66 -2 8 C-1.34 5.36 -0.68 2.72 0 0 Z " fill="#7BAF2F" transform="translate(111,12)"/>
<path d="M0 0 C1.65 0.33 3.3 0.66 5 1 C5.33 1.99 5.66 2.98 6 4 C3.667 4 1.333 4 -1 4 C-0.67 2.68 -0.34 1.36 0 0 Z " fill="#95C53A" transform="translate(109,10)"/>
<path d="M0 0 C-1 1 -1 1 -3.562 1.062 C-3.965 1.052 -3.965 1.052 -6 1 C-6.33 1.99 -6.66 2.98 -7 4 C-7.99 4 -8.98 4 -10 4 C-9.67 3.01 -9.34 2.02 -9 1 C-2.632 -1.316 -2.632 -1.316 0 0 Z " fill="#EADAB9" transform="translate(77,123)"/>
<path d="M0 0 C0.66 0.33 1.32 0.66 2 1 C1.34 1.99 1.34 1.99 -2 7 C-2.66 6.67 -3.32 6.34 -4 6 C-2.848 3.532 -1.952 1.952 0 0 Z " fill="#E3E7B9" transform="translate(53,110)"/>
<path d="M0 0 C0.66 0.33 1.32 0.66 2 1 C1.34 2.65 0.68 4.3 0 6 C-1.32 6 -2.64 6 -4 6 C-2.848 3.532 -1.952 1.952 0 0 Z " fill="#639D25" transform="translate(77,108)"/>
<path d="M0 0 C0.66 0 1.32 0 2 0 C2.33 2.64 2.66 5.28 3 8 C2.732 7.361 2.464 6.721 2.188 6.062 C1 4 1 4 -2 3 C-1.34 2.01 -0.68 1.02 0 0 Z " fill="#8DBB33" transform="translate(34,106)"/>
<path d="M0 0 C-1.688 2.062 -1.688 2.062 -4 4 C-6.75 3.75 -6.75 3.75 -9 3 C-7.143 -0.713 -3.694 -0.1 0 0 Z " fill="#AAD049" transform="translate(45,85)"/>
<path d="M0 0 C0.66 0.33 1.32 0.66 2 1 C1.01 1.33 0.02 1.66 -1 2 C-1.33 2.99 -1.66 3.98 -2 5 C-3.32 4.67 -4.64 4.34 -6 4 C-3.948 1.752 -2.993 0.998 0 0 Z " fill="#95C23A" transform="translate(107,50)"/>
<path d="M0 0 C0.825 0.165 0.825 0.165 5 1 C5.33 1.99 5.66 2.98 6 4 C4.35 3.67 2.7 3.34 1 3 C0.67 2.01 0.34 1.02 0 0 Z " fill="#9EC845" transform="translate(84,7)"/>
</svg>
