<?xml version="1.0" encoding="UTF-8"?>
<!-- Generator: visioncortex VTracer 0.6.12 -->
<svg version="1.1" xmlns="http://www.w3.org/2000/svg" width="164" height="185">
<path d="M0 0 C54.12 0 108.24 0 164 0 C164 61.05 164 122.1 164 185 C109.88 185 55.76 185 0 185 C0 123.95 0 62.9 0 0 Z " fill="#FBF6E9" transform="translate(0,0)"/>
<path d="M0 0 C2.375 0.688 2.375 0.688 4 1 C4.33 0.67 4.66 0.34 5 0 C15.062 -1.196 23.936 1.013 31.938 7.312 C34 10 34 10 35.082 12.023 C38.118 17.649 38.118 17.649 41.141 18.852 C42.707 19.158 44.28 19.426 45.859 19.656 C52.004 20.643 55.84 25.617 59.812 30 C61.285 32.48 61.236 34.164 61 37 C61.66 37 62.32 37 63 37 C66.877 42.583 67.364 47.293 67 54 C66.887 54.608 66.887 54.608 66.312 57.688 C66 61 66 61 67.438 63.25 C70.335 68.35 69.563 74.221 68.426 79.832 C67.215 84.208 66.227 86.808 63 90 C62.866 90.557 62.866 90.557 62.188 93.375 C60.647 98.078 59.054 99.27 55 102 C54.01 102 53.02 102 52 102 C51.959 102.577 51.917 103.155 51.875 103.75 C50.527 107.217 48.176 108.202 45 110 C40.357 111.866 36.367 112.297 31.375 112.312 C30.083 112.329 28.792 112.346 27.461 112.363 C23.77 111.976 22.797 111.217 20 109 C14.918 109.307 11.367 113.552 8 117 C2.497 123.601 0.346 132.034 -1.516 140.285 C-2.207 143.301 -2.658 144.738 -5.16 146.652 C-13.385 150.555 -23.708 148.111 -31.949 145.273 C-38.344 142.604 -44.452 139.332 -49 134 C-49 129.031 -47.523 126.216 -44.918 122.105 C-43.3 118.395 -43.35 114.477 -43.176 110.477 C-43 108 -43 108 -42 107 C-41.914 105.657 -41.893 104.31 -41.902 102.965 C-41.906 102.156 -41.909 101.347 -41.912 100.514 C-41.92 99.664 -41.929 98.813 -41.938 97.938 C-41.942 97.083 -41.947 96.229 -41.951 95.35 C-41.963 93.233 -41.981 91.117 -42 89 C-42.608 89.162 -43.217 89.323 -43.843 89.49 C-46.321 90.076 -48.58 90.169 -51.125 90.188 C-51.994 90.202 -52.863 90.216 -53.758 90.23 C-56 90 -56 90 -58 88 C-58.804 87.711 -59.609 87.422 -60.438 87.125 C-63.347 85.848 -64.394 84.704 -66 82 C-66 81.34 -66 80.68 -66 80 C-66.619 79.711 -67.237 79.422 -67.875 79.125 C-70 78 -70 78 -72 76 C-72.608 73.975 -73.011 71.945 -73.438 69.875 C-74 68 -74 68 -76 66 C-77.062 60.217 -77.665 54.813 -75.625 49.25 C-74 47 -74 47 -73 46 C-72.754 44.482 -72.529 42.96 -72.312 41.438 C-71.269 35.935 -69.017 31.914 -65 28 C-64.01 27.67 -63.02 27.34 -62 27 C-61.691 26.381 -61.381 25.763 -61.062 25.125 C-59.382 21.764 -56.917 20.459 -53.625 18.812 C-50.635 17.887 -48.113 17.855 -45 18 C-44.752 17.278 -44.505 16.556 -44.25 15.812 C-41.676 10.021 -38.643 7.649 -33 5 C-31.322 3.681 -29.654 2.349 -28 1 C-19.902 -3.654 -8.513 -2.783 0 0 Z " fill="#307A27" transform="translate(92,28)"/>
<path d="M0 0 C1.333 0.667 2.667 1.333 4 2 C4.701 2.206 5.403 2.412 6.125 2.625 C9.276 4.936 9.277 8.267 10 12 C10.33 11.01 10.66 10.02 11 9 C14 10 14 10 15 12 C20.934 13.911 26.303 14.256 32.5 14.125 C33.322 14.116 34.145 14.107 34.992 14.098 C36.995 14.074 38.998 14.039 41 14 C40.34 15.98 39.68 17.96 39 20 C39.578 19.505 40.155 19.01 40.75 18.5 C43 17 43 17 47 17 C47 17.66 47 18.32 47 19 C48.32 18.835 48.32 18.835 55 18 C55.289 18.804 55.578 19.609 55.875 20.438 C57 23 57 23 59 24 C57.369 27.494 55.709 29.441 52.656 31.848 C42.455 40.114 37.051 49.58 35.062 62.562 C34.43 65.945 34.08 66.907 31.75 69.625 C21.564 73.36 10.75 71.07 1 67 C-4.266 64.342 -9.135 61.531 -13 57 C-13 52.031 -11.523 49.216 -8.918 45.105 C-7.3 41.395 -7.35 37.477 -7.176 33.477 C-7 31 -7 31 -6 30 C-5.914 28.657 -5.893 27.31 -5.902 25.965 C-5.906 25.156 -5.909 24.347 -5.912 23.514 C-5.92 22.664 -5.929 21.813 -5.938 20.938 C-5.94 20.51 -5.94 20.51 -5.951 18.35 C-5.963 16.233 -5.981 14.117 -6 12 C-6.66 11.67 -7.32 11.34 -8 11 C-7.34 11 -6.68 11 -6 11 C-6.66 8.69 -7.32 6.38 -8 4 C-6.866 3.526 -5.731 3.051 -4.562 2.562 C-1 1 -1 1 0 0 Z " fill="#619C19" transform="translate(56,105)"/>
<path d="M0 0 C7.451 1.291 7.451 1.291 10.098 4.648 C10.098 5.308 10.098 5.968 10.098 6.648 C10.861 6.587 11.624 6.525 12.41 6.461 C15.098 6.648 15.098 6.648 16.91 7.961 C18.098 9.648 18.098 9.648 18.098 12.648 C16.118 13.308 14.138 13.968 12.098 14.648 C12.263 15.638 12.263 15.638 13.098 20.648 C11.448 21.968 9.798 23.288 8.098 24.648 C8.304 25.226 8.51 25.803 8.723 26.398 C9.184 29.168 8.527 30.294 7.098 32.648 C6.108 32.648 5.118 32.648 4.098 32.648 C4.428 32.978 4.758 33.308 5.098 33.648 C5.473 35.898 5.473 35.898 5.098 38.648 C2.973 41.523 2.973 41.523 0.098 43.648 C-3.027 43.711 -3.027 43.711 -5.902 42.648 C-7.777 40.586 -7.777 40.586 -8.902 38.648 C-9.562 39.638 -10.222 40.628 -10.902 41.648 C-10.407 42.061 -9.912 42.473 -9.402 42.898 C-7.902 44.648 -7.902 44.648 -7.902 48.648 C-8.892 48.813 -8.892 48.813 -13.902 49.648 C-13.242 47.668 -12.582 45.688 -11.902 43.648 C-12.274 44.102 -12.645 44.556 -13.027 45.023 C-16.168 47.746 -19.393 48.72 -23.527 48.523 C-26.42 47.458 -27.895 45.953 -29.902 43.648 C-29.242 45.298 -28.582 46.948 -27.902 48.648 C-30.212 48.648 -32.522 48.648 -34.902 48.648 C-35.067 48.153 -35.067 48.153 -35.902 45.648 C-36.47 45.659 -36.47 45.659 -39.34 45.711 C-42.902 45.648 -42.902 45.648 -43.902 44.648 C-44.032 41.736 -44.06 39.218 -43.277 36.398 C-43.154 35.821 -43.03 35.243 -42.902 34.648 C-43.562 33.988 -44.222 33.328 -44.902 32.648 C-45.569 27.872 -44.375 25.216 -41.902 21.309 C-40.902 19.648 -40.902 19.648 -40.027 17.023 C-38.333 13.447 -36.148 11.921 -32.902 9.648 C-31.582 9.648 -30.262 9.648 -28.902 9.648 C-28.779 8.865 -28.655 8.081 -28.527 7.273 C-27.902 4.648 -27.902 4.648 -25.902 2.648 C-24.789 2.669 -23.675 2.69 -22.527 2.711 C-18.902 2.648 -18.902 2.648 -17.027 1.164 C-12.385 -2.147 -5.412 -0.656 0 0 Z " fill="#4C9730" transform="translate(100.90234375,54.3515625)"/>
<path d="M0 0 C54.12 0 108.24 0 164 0 C164 1.98 164 3.96 164 6 C163.215 6.002 162.43 6.005 161.622 6.007 C142.535 6.066 123.448 6.142 104.361 6.236 C95.131 6.281 85.901 6.32 76.67 6.346 C68.626 6.369 60.582 6.403 52.538 6.449 C48.278 6.473 44.018 6.491 39.758 6.498 C35.749 6.504 31.741 6.524 27.732 6.554 C26.26 6.563 24.787 6.567 23.315 6.565 C21.307 6.563 19.298 6.582 17.289 6.601 C16.165 6.606 15.04 6.61 13.882 6.615 C10.559 7.059 9.188 7.447 7 10 C6.492 13.102 6.492 13.102 6.481 17.004 C6.474 17.722 6.466 18.439 6.458 19.178 C6.438 21.587 6.446 23.996 6.454 26.405 C6.445 28.13 6.435 29.854 6.423 31.579 C6.395 36.266 6.392 40.954 6.392 45.642 C6.389 50.539 6.364 55.435 6.341 60.332 C6.3 69.607 6.28 78.883 6.267 88.158 C6.251 98.717 6.212 109.275 6.172 119.834 C6.089 141.556 6.035 163.278 6 185 C4.02 185 2.04 185 0 185 C0 123.95 0 62.9 0 0 Z " fill="#FEFDFC" transform="translate(0,0)"/>
<path d="M0 0 C1.875 0.125 1.875 0.125 4 1 C5.167 3.742 6 6.006 6 9 C6.928 9.227 7.856 9.454 8.812 9.688 C12.534 11.22 13.277 12.463 15 16 C15.33 16.33 15.66 16.66 16 17 C16.041 18.666 16.043 20.334 16 22 C17.65 22 19.3 22 21 22 C21.165 22.33 21.165 22.33 22 24 C20.68 24.66 19.36 25.32 18 26 C18.165 26.66 18.165 26.66 19 30 C22.375 29.453 24.082 28.945 27 27 C28.655 26.615 30.322 26.272 32 26 C32.99 23.03 33.98 20.06 35 17 C35.66 17 36.32 17 37 17 C37 13.7 37 10.4 37 7 C37.33 7.165 37.33 7.165 39 8 C39.072 12.09 39.064 15.654 38.312 19.688 C38 23 38 23 39.438 25.25 C42.335 30.35 41.563 36.221 40.426 41.832 C39.215 46.208 38.227 48.808 35 52 C34.732 53.114 34.464 54.227 34.188 55.375 C32.647 60.078 31.054 61.27 27 64 C26.01 64 25.02 64 24 64 C23.959 64.577 23.918 65.155 23.875 65.75 C22.527 69.217 20.176 70.202 17 72 C10.145 74.724 3.277 74.815 -4 74 C-7.042 72.653 -8.59 71.352 -11 69 C-10.196 68.381 -9.391 67.762 -8.562 67.125 C-6 65 -6 65 -5 63 C-5.495 62.835 -5.495 62.835 -8 62 C-8.33 60.35 -8.66 58.7 -9 57 C-11.64 57.33 -14.28 57.66 -17 58 C-17 57.34 -17 56.68 -17 56 C-20.083 57.199 -23.063 58.477 -26 60 C-25.01 57.69 -24.02 55.38 -23 53 C-23.928 53.165 -24.856 53.33 -25.812 53.5 C-34.199 54.654 -41.232 54.518 -49 51 C-49.33 51.99 -49.66 52.98 -50 54 C-50.124 53.196 -50.248 52.391 -50.375 51.562 C-50.581 50.717 -50.787 49.871 -51 49 C-51.33 48.835 -51.33 48.835 -53 48 C-53 49.65 -53 51.3 -53 53 C-55.233 50.767 -55.306 50.054 -55.812 47.062 C-56.55 43.876 -56.827 43.154 -59.375 40.875 C-62 40 -62 40 -63.938 40.75 C-64.618 41.162 -65.299 41.575 -66 42 C-67.991 42.383 -69.991 42.726 -72 43 C-71.67 43.598 -71.34 44.196 -71 44.812 C-70 47 -70 47 -70 50 C-73.15 51.846 -75.489 52.272 -79.125 52.25 C-79.559 52.253 -79.559 52.253 -81.758 52.266 C-84 52 -84 52 -86 50 C-87.658 49.312 -89.325 48.644 -91 48 C-92 47 -92 47 -92.062 43.938 C-92.042 42.968 -92.021 41.999 -92 41 C-90.969 41.33 -89.938 41.66 -88.875 42 C-85.516 42.972 -82.509 43.171 -79 43 C-78.67 42.34 -78.34 41.68 -78 41 C-76.02 41 -74.04 41 -72 41 C-72.33 39.02 -72.66 37.04 -73 35 C-72.34 35 -71.68 35 -71 35 C-71 35.66 -71 36.32 -71 37 C-69.02 36.34 -67.04 35.68 -65 35 C-65.021 33.783 -65.041 32.566 -65.062 31.312 C-65.068 28.08 -64.788 25.151 -64 22 C-63.01 22.33 -62.02 22.66 -61 23 C-61.095 23.641 -61.191 24.281 -61.289 24.941 C-62.014 30.599 -61.981 34.641 -60 40 C-58.35 40.33 -56.7 40.66 -55 41 C-54.835 41.66 -54.835 41.66 -54 45 C-53.402 45.103 -52.804 45.206 -52.188 45.312 C-50 46 -50 46 -48.625 47.438 C-43.716 52.158 -36.434 51.236 -30.125 51.125 C-29.15 51.116 -28.176 51.107 -27.172 51.098 C-24.781 51.074 -22.391 51.041 -20 51 C-19.67 51.99 -19.34 52.98 -19 54 C-16.602 54.136 -14.212 54.234 -11.812 54.312 C-11.476 54.333 -11.476 54.333 -9.771 54.439 C-5.773 54.537 -4.269 54.24 -1.242 51.539 C-0.502 50.701 0.238 49.863 1 49 C2.217 48.691 3.434 48.381 4.688 48.062 C5.781 47.712 6.874 47.361 8 47 C9.312 43.937 9.312 43.937 10 41 C10.66 40.67 11.32 40.34 12 40 C12.374 37.673 12.708 35.339 13 33 C13.33 32.67 13.66 32.34 14 32 C14.125 29 14.125 29 14 26 C13.67 25.67 13.34 25.34 13 25 C12.505 22.49 12.1 19.971 11.695 17.445 C10.927 14.744 10.21 13.691 8 12 C5.312 11.312 5.312 11.312 3 11 C2.867 10.374 2.734 9.747 2.598 9.102 C2.509 8.693 2.509 8.693 2.062 6.625 C1.975 6.219 1.975 6.219 1.535 4.164 C1 2 1 2 0 0 Z " fill="#2D7325" transform="translate(120,66)"/>
<path d="M0 0 C0.165 0.495 0.165 0.495 1 3 C1.33 3.165 1.33 3.165 3 4 C3 4.99 3 5.98 3 7 C3.99 6.979 4.98 6.959 6 6.938 C10.99 7.591 13.403 11.214 16.496 14.871 C18 17 18 17 18 19 C15.03 19.33 12.06 19.66 9 20 C8.67 19.505 8.67 19.505 7 17 C6.505 16.835 6.505 16.835 4 16 C4.062 16.763 4.124 17.526 4.188 18.312 C4 21 4 21 2.812 22.812 C0.44 24.367 -1.22 24.225 -4 24 C-4.165 23.34 -4.165 23.34 -5 20 C-5.41 20.072 -5.41 20.072 -7.484 20.438 C-8.562 20.623 -9.64 20.809 -10.75 21 C-11.817 21.186 -12.885 21.371 -13.984 21.562 C-17 22 -17 22 -21 22 C-21.557 22.928 -22.114 23.856 -22.688 24.812 C-25.488 28.673 -27.403 29.152 -31.879 30.262 C-34 31 -34 31 -35.547 32.57 C-37 34 -37 34 -40.688 34.188 C-41.234 34.157 -41.234 34.157 -44 34 C-44.33 34.66 -44.66 35.32 -45 36 C-44.34 36 -43.68 36 -43 36 C-43.75 40.75 -43.75 40.75 -46 43 C-46.99 43 -47.98 43 -49 43 C-48.835 42.402 -48.67 41.804 -48.5 41.188 C-48 39 -48 39 -48 36 C-48.66 36.66 -49.32 37.32 -50 38 C-50.588 38.165 -50.588 38.165 -53.562 39 C-54.13 39.165 -54.13 39.165 -57 40 C-57.33 40.66 -57.66 41.32 -58 42 C-56.35 42.66 -54.7 43.32 -53 44 C-53.33 45.98 -53.66 47.96 -54 50 C-56.667 50 -59.333 50 -62 50 C-64.062 50.75 -64.062 50.75 -66 52 C-66.75 54.125 -66.75 54.125 -67 56 C-68.32 56 -69.64 56 -71 56 C-71.188 53.188 -71.188 53.188 -71 50 C-69.5 48.312 -69.5 48.312 -68 47 C-68 46.01 -68 45.02 -68 44 C-68.66 44.66 -69.32 45.32 -70 46 C-70.771 39.962 -69.089 36.886 -65.703 31.918 C-63.912 29.901 -62.417 29.117 -60 28 C-59.316 26.675 -58.65 25.341 -58 24 C-53.413 19.888 -49.093 18.717 -43 19 C-42.752 18.278 -42.505 17.556 -42.25 16.812 C-39.676 11.021 -36.643 8.649 -31 6 C-29.322 4.681 -27.654 3.349 -26 2 C-18.765 -2.158 -7.894 -1.974 0 0 Z " fill="#5BA635" transform="translate(90,27)"/>
<path d="M0 0 C2.062 2.327 2.943 3.729 4.188 6.438 C5.428 8.782 5.999 9.584 8.512 10.535 C10.089 10.845 11.673 11.124 13.262 11.371 C19.43 12.445 23.242 17.327 27.25 21.75 C28.722 24.23 28.674 25.914 28.438 28.75 C29.097 28.75 29.757 28.75 30.438 28.75 C33.622 32.767 33.68 35.572 33.125 40.562 C33.005 41.724 32.885 42.885 32.762 44.082 C32.655 44.962 32.548 45.843 32.438 46.75 C31.778 46.75 31.118 46.75 30.438 46.75 C30.398 47.353 30.358 47.957 30.316 48.578 C29.972 51.218 29.536 53.318 28.438 55.75 C24.418 58.729 19.365 60.114 14.438 60.75 C13.778 59.43 13.118 58.11 12.438 56.75 C13.757 55.43 15.077 54.11 16.438 52.75 C14.787 52.42 13.137 52.09 11.438 51.75 C11.149 50.801 10.86 49.852 10.562 48.875 C9.438 45.75 9.438 45.75 7.438 43.75 C7.438 42.76 7.438 41.77 7.438 40.75 C6.839 40.647 6.241 40.544 5.625 40.438 C3.012 39.616 2.091 38.929 0.438 36.75 C0.149 35.801 -0.14 34.852 -0.438 33.875 C-2.148 29.124 -5.237 26.633 -9.375 23.875 C-11.562 21.75 -11.562 21.75 -11.875 18 C-11.823 17.464 -11.823 17.464 -11.562 14.75 C-8.593 13.76 -5.623 12.77 -2.562 11.75 C-2.562 12.41 -2.562 13.07 -2.562 13.75 C-1.903 13.75 -1.243 13.75 -0.562 13.75 C-0.562 12.76 -0.562 11.77 -0.562 10.75 C-1.25 10.834 -1.937 10.918 -2.645 11.004 C-3.546 11.106 -4.447 11.208 -5.375 11.312 C-6.268 11.417 -7.162 11.521 -8.082 11.629 C-10.562 11.75 -10.562 11.75 -13.562 10.75 C-13.562 9.43 -13.562 8.11 -13.562 6.75 C-12.243 6.75 -10.922 6.75 -9.562 6.75 C-9.562 6.09 -9.562 5.43 -9.562 4.75 C-10.326 4.791 -11.089 4.832 -11.875 4.875 C-15.91 4.687 -18.264 2.254 -21.25 -0.25 C-21.873 -0.766 -22.495 -1.281 -23.137 -1.812 C-24.562 -3.25 -24.562 -3.25 -24.562 -5.25 C-14.651 -6.396 -7.847 -6.89 0 0 Z " fill="#3D8125" transform="translate(124.5625,36.25)"/>
<path d="M0 0 C1.65 0.33 3.3 0.66 5 1 C5 1.66 5 2.32 5 3 C5.578 3.248 6.155 3.495 6.75 3.75 C9.329 5.183 11.061 6.784 13 9 C13 9.66 13 10.32 13 11 C13.66 11 14.32 11 15 11 C15.33 12.32 15.66 13.64 16 15 C17.32 12.69 18.64 10.38 20 8 C20.99 8.33 21.98 8.66 23 9 C23 9.99 23 10.98 23 12 C23.99 11.67 24.98 11.34 26 11 C26.66 11.33 27.32 11.66 28 12 C28.043 14 28.041 16 28 18 C27.835 18.165 27.835 18.165 27 19 C26.716 21.515 26.552 24.03 26.379 26.555 C26 29 26 29 24 32 C23.526 33.558 23.059 35.119 22.637 36.691 C21.793 39.75 20.866 42.779 19.938 45.812 C19.596 46.933 19.254 48.053 18.902 49.207 C18 52 18 52 17 54 C7.897 53.787 -0.06 51.07 -7 45 C-8.179 38.579 -5.366 33.324 -2 28 C-1.34 27.67 -0.68 27.34 0 27 C2.36 27.936 4.696 28.933 7 30 C7 28.68 7 27.36 7 26 C6.381 25.691 5.763 25.381 5.125 25.062 C3.75 24.375 2.375 23.688 1 23 C0.67 15.41 0.34 7.82 0 0 Z " fill="#B3D73B" transform="translate(53,118)"/>
<path d="M0 0 C1.312 2.562 1.312 2.562 2 5 C-0.089 7.399 -1.522 8.837 -4.562 9.875 C-7 10 -7 10 -10 8 C-9.835 8.495 -9.835 8.495 -9 11 C-9.763 11.392 -10.526 11.784 -11.312 12.188 C-14.263 14.177 -15.213 15.995 -17 19 C-17.99 19 -18.98 19 -20 19 C-20 19.66 -20 20.32 -20 21 C-19.113 20.484 -18.226 19.969 -17.312 19.438 C-13.8 17.913 -12.553 17.851 -9 19 C-9.144 19.825 -9.289 20.65 -9.438 21.5 C-10.053 25.327 -10.536 29.152 -11 33 C-11.825 33.165 -11.825 33.165 -16 34 C-18.29 30.565 -18.178 29.015 -18 25 C-18.66 25 -19.32 25 -20 25 C-20 25.66 -20 26.32 -20 27 C-20.639 27.103 -21.279 27.206 -21.938 27.312 C-22.618 27.539 -23.299 27.766 -24 28 C-24.33 28.99 -24.66 29.98 -25 31 C-23.35 30.34 -21.7 29.68 -20 29 C-17.706 32.441 -17 33.723 -17 38 C-22.75 41 -22.75 41 -25 41 C-27.296 38.439 -28 37.52 -28 34 C-29.32 33.67 -30.64 33.34 -32 33 C-31.464 33.743 -30.927 34.485 -30.375 35.25 C-29.921 36.157 -29.468 37.065 -29 38 C-29.812 40.312 -29.812 40.312 -31 42 C-33.375 42.125 -33.375 42.125 -36 42 C-38 40 -38 40 -38.062 37.438 C-38.042 36.633 -38.021 35.829 -38 35 C-38.33 34.67 -38.66 34.34 -39 34 C-39 36.31 -39 38.62 -39 41 C-41.31 40.34 -43.62 39.68 -46 39 C-45.979 37.866 -45.959 36.731 -45.938 35.562 C-46 32 -46 32 -47 31 C-47.141 28.329 -47.042 25.676 -47 23 C-46.67 24.32 -46.34 25.64 -46 27 C-44.68 27 -43.36 27 -42 27 C-42 25.35 -42 23.7 -42 22 C-41.701 21.959 -41.701 21.959 -40.188 21.75 C-37.403 20.795 -36.567 19.429 -35 17 C-35 18.32 -35 19.64 -35 21 C-33.02 21 -31.04 21 -29 21 C-29 19.02 -29 17.04 -29 15 C-29.825 14.835 -29.825 14.835 -34 14 C-33.5 12.188 -33.5 12.188 -32 10 C-28.398 8.141 -25.062 7 -21 7 C-21.309 7.598 -21.619 8.196 -21.938 8.812 C-23 11 -23 11 -24 14 C-19.2 11.538 -19.2 11.538 -18.188 8.812 C-18.157 8.513 -18.157 8.513 -18 7 C-18.66 7 -19.32 7 -20 7 C-19.67 6.01 -19.34 5.02 -19 4 C-16.69 4.33 -14.38 4.66 -12 5 C-11.67 4.01 -11.34 3.02 -11 2 C-7.145 -0.453 -4.358 -1.937 0 0 Z " fill="#449430" transform="translate(65,56)"/>
<path d="M0 0 C1.875 0.125 1.875 0.125 4 1 C5.167 3.742 6 6.006 6 9 C6.928 9.227 7.856 9.454 8.812 9.688 C12.534 11.22 13.277 12.463 15 16 C15.33 16.33 15.66 16.66 16 17 C16.041 18.666 16.043 20.334 16 22 C17.65 22 19.3 22 21 22 C21.165 22.33 21.165 22.33 22 24 C20.68 24.66 19.36 25.32 18 26 C18.165 26.66 18.165 26.66 19 30 C21.763 29.477 24.326 28.891 27 28 C26.688 29.938 26.688 29.938 26 32 C22.527 33.158 19.639 33.069 16 33 C15.959 33.928 15.918 34.856 15.875 35.812 C15.121 41.452 11.848 46.183 9 51 C9.495 51.165 9.495 51.165 12 52 C9.536 52.758 7.85 52.986 5.25 52.75 C0.642 53.104 -2.299 55.37 -6 58 C-4.699 61.904 -3.2 63.4 0 66 C6.388 68.514 13.247 68.227 20 68 C20.266 67.192 20.531 66.384 20.805 65.551 C21.199 64.709 21.594 63.867 22 63 C25.125 62.188 25.125 62.188 28 62 C27.835 62.33 27.835 62.33 27 64 C26.01 64 25.02 64 24 64 C23.959 64.577 23.918 65.155 23.875 65.75 C22.527 69.217 20.176 70.202 17 72 C10.145 74.724 3.277 74.815 -4 74 C-7.042 72.653 -8.59 71.352 -11 69 C-10.196 68.381 -9.391 67.762 -8.562 67.125 C-6 65 -6 65 -5 63 C-5.495 62.835 -5.495 62.835 -8 62 C-8.33 60.35 -8.66 58.7 -9 57 C-11.64 57.33 -14.28 57.66 -17 58 C-17 57.34 -17 56.68 -17 56 C-20.083 57.199 -23.063 58.477 -26 60 C-25.01 57.69 -24.02 55.38 -23 53 C-23.928 53.165 -24.856 53.33 -25.812 53.5 C-34.199 54.654 -41.232 54.518 -49 51 C-49.33 51.99 -49.66 52.98 -50 54 C-50.124 53.196 -50.248 52.391 -50.375 51.562 C-50.581 50.717 -50.787 49.871 -51 49 C-51.33 48.835 -51.33 48.835 -53 48 C-53 49.65 -53 51.3 -53 53 C-55.233 50.767 -55.306 50.054 -55.812 47.062 C-56.55 43.876 -56.827 43.154 -59.375 40.875 C-62 40 -62 40 -63.938 40.75 C-64.618 41.162 -65.299 41.575 -66 42 C-67.991 42.383 -69.991 42.726 -72 43 C-71.67 43.598 -71.34 44.196 -71 44.812 C-70 47 -70 47 -70 50 C-73.15 51.846 -75.489 52.272 -79.125 52.25 C-79.559 52.253 -79.559 52.253 -81.758 52.266 C-84 52 -84 52 -86 50 C-87.658 49.312 -89.325 48.644 -91 48 C-92 47 -92 47 -92.062 43.938 C-92.042 42.968 -92.021 41.999 -92 41 C-90.969 41.33 -89.938 41.66 -88.875 42 C-85.516 42.972 -82.509 43.171 -79 43 C-78.67 42.34 -78.34 41.68 -78 41 C-76.02 41 -74.04 41 -72 41 C-72.33 39.02 -72.66 37.04 -73 35 C-72.34 35 -71.68 35 -71 35 C-71 35.66 -71 36.32 -71 37 C-69.02 36.34 -67.04 35.68 -65 35 C-65.021 33.783 -65.041 32.566 -65.062 31.312 C-65.068 28.08 -64.788 25.151 -64 22 C-63.01 22.33 -62.02 22.66 -61 23 C-61.095 23.641 -61.191 24.281 -61.289 24.941 C-62.014 30.599 -61.981 34.641 -60 40 C-58.35 40.33 -56.7 40.66 -55 41 C-54.835 41.66 -54.835 41.66 -54 45 C-53.402 45.103 -52.804 45.206 -52.188 45.312 C-50 46 -50 46 -48.625 47.438 C-43.716 52.158 -36.434 51.236 -30.125 51.125 C-29.15 51.116 -28.176 51.107 -27.172 51.098 C-24.781 51.074 -22.391 51.041 -20 51 C-19.67 51.99 -19.34 52.98 -19 54 C-16.602 54.136 -14.212 54.234 -11.812 54.312 C-11.476 54.333 -11.476 54.333 -9.771 54.439 C-5.773 54.537 -4.269 54.24 -1.242 51.539 C-0.502 50.701 0.238 49.863 1 49 C2.217 48.691 3.434 48.381 4.688 48.062 C5.781 47.712 6.874 47.361 8 47 C9.312 43.937 9.312 43.937 10 41 C10.66 40.67 11.32 40.34 12 40 C12.374 37.673 12.708 35.339 13 33 C13.33 32.67 13.66 32.34 14 32 C14.125 29 14.125 29 14 26 C13.67 25.67 13.34 25.34 13 25 C12.505 22.49 12.1 19.971 11.695 17.445 C10.927 14.744 10.21 13.691 8 12 C5.312 11.312 5.312 11.312 3 11 C2.867 10.374 2.734 9.747 2.598 9.102 C2.509 8.693 2.509 8.693 2.062 6.625 C1.975 6.219 1.975 6.219 1.535 4.164 C1 2 1 2 0 0 Z " fill="#175715" transform="translate(120,66)"/>
<path d="M0 0 C2.149 0.421 4.294 0.863 6.438 1.312 C7.035 1.434 7.035 1.434 10.059 2.051 C11.029 2.364 12 2.677 13 3 C13.33 3.99 13.66 4.98 14 6 C14.66 5.67 15.32 5.34 16 5 C16 6.65 16 8.3 16 10 C15.34 10 14.68 10 14 10 C13.67 12.31 13.34 14.62 13 17 C13.531 16.567 14.062 16.134 14.609 15.688 C15.316 15.131 16.022 14.574 16.75 14 C17.446 13.443 18.142 12.886 18.859 12.312 C21 11 21 11 25 11 C25 12.65 25 14.3 25 16 C25.66 16 26.32 16 27 16 C25.455 19.307 23.572 22.247 21.5 25.25 C20.892 26.142 20.283 27.034 19.656 27.953 C19.383 28.291 19.383 28.291 18 30 C17.34 30 16.68 30 16 30 C15.67 28.68 15.34 27.36 15 26 C14.34 26.33 13.68 26.66 13 27 C13 27.99 13 28.98 13 30 C11.35 30.66 9.7 31.32 8 32 C13.75 33 13.75 33 16 33 C15.693 35.647 15.379 38.292 15.062 40.938 C14.975 41.692 14.888 42.447 14.799 43.225 C14.113 48.887 14.113 48.887 13 50 C11.511 50.087 10.019 50.107 8.527 50.098 C7.628 50.094 6.729 50.091 5.803 50.088 C5.33 50.084 5.33 50.084 2.938 50.062 C1.988 50.058 1.039 50.053 0.061 50.049 C-2.293 50.037 -4.646 50.021 -7 50 C-6.505 49.835 -6.505 49.835 -4 49 C-3.121 46.672 -3.121 46.672 -2.438 43.75 C-1.541 40.002 -0.448 36.568 1 33 C1.382 31.591 1.739 30.174 2.062 28.75 C3 25 3 25 4 24 C4.186 22.463 4.323 20.919 4.438 19.375 C4.827 15.003 5.642 11.165 7 7 C5.35 7 3.7 7 2 7 C1.67 6.01 1.34 5.02 1 4 C0.34 3.34 -0.32 2.68 -1 2 C-0.67 1.34 -0.34 0.68 0 0 Z " fill="#8ABA26" transform="translate(74,123)"/>
<path d="M0 0 C0 0.66 0 1.32 0 2 C2.31 2.33 4.62 2.66 7 3 C7.165 3.495 7.165 3.495 8 6 C7.29 6.266 6.579 6.531 5.848 6.805 C4.929 7.158 4.009 7.511 3.062 7.875 C2.146 8.223 1.229 8.571 0.285 8.93 C-2 10 -2 10 -3 12 C-5.31 12 -7.62 12 -10 12 C-10.33 12.66 -10.66 13.32 -11 14 C-10.34 14 -9.68 14 -9 14 C-9.75 18.75 -9.75 18.75 -12 21 C-12.99 21 -13.98 21 -15 21 C-14.835 20.402 -14.67 19.804 -14.5 19.188 C-14 17 -14 17 -14 14 C-14.66 14.66 -15.32 15.32 -16 16 C-17.176 16.33 -18.351 16.66 -19.562 17 C-20.697 17.33 -21.831 17.66 -23 18 C-23.33 18.66 -23.66 19.32 -24 20 C-23.175 20.33 -23.175 20.33 -19 22 C-19.33 23.98 -19.66 25.96 -20 28 C-22.667 28 -25.333 28 -28 28 C-30.062 28.75 -30.062 28.75 -32 30 C-32.75 32.125 -32.75 32.125 -33 34 C-34.32 34 -35.64 34 -37 34 C-37.188 31.188 -37.188 31.188 -37 28 C-35.5 26.312 -35.5 26.312 -34 25 C-34 24.01 -34 23.02 -34 22 C-34.66 22.66 -35.32 23.32 -36 24 C-36.125 20.625 -36.125 20.625 -36 17 C-35.34 16.34 -34.68 15.68 -34 15 C-33.67 15.33 -33.34 15.66 -33 16 C-32.67 15.34 -32.34 14.68 -32 14 C-31.01 14 -30.02 14 -29 14 C-29 12.35 -29 10.7 -29 9 C-27.35 8.67 -25.7 8.34 -24 8 C-23.979 7.422 -23.959 6.845 -23.938 6.25 C-22.699 3.277 -20.775 2.227 -17.988 0.75 C-14.963 -0.391 -12.183 -0.26 -9 0 C-9.33 1.32 -9.66 2.64 -10 4 C-10.66 4 -11.32 4 -12 4 C-11.67 5.65 -11.34 7.3 -11 9 C-8.562 8.625 -8.562 8.625 -6 8 C-5.67 7.34 -5.34 6.68 -5 6 C-6.65 6 -8.3 6 -10 6 C-8.459 2.918 -7.516 1.277 -4.438 -0.375 C-2 -1 -2 -1 0 0 Z " fill="#4E9D33" transform="translate(56,49)"/>
<path d="M0 0 C0 0.66 0 1.32 0 2 C0.66 2 1.32 2 2 2 C2 1.34 2 0.68 2 0 C5.716 -0.201 6.772 -0.152 10 2 C10.557 1.99 10.557 1.99 13.375 1.938 C17.368 2.006 18.952 2.475 22 5 C24.105 8.789 24.498 12.732 25 17 C23.35 16.34 21.7 15.68 20 15 C19.67 15.99 19.34 16.98 19 18 C14.886 18.861 12.069 18.852 8 18 C6.479 18.074 4.958 18.158 3.438 18.25 C1.078 18.285 1.078 18.285 -1 18 C-3.312 15.688 -3.312 15.688 -5 13 C-5.743 12.546 -6.485 12.093 -7.25 11.625 C-9 10 -9 10 -9.25 6.312 C-9.168 5.219 -9.085 4.126 -9 3 C-2.25 0 -2.25 0 0 0 Z " fill="#66A831" transform="translate(122,48)"/>
<path d="M0 0 C0.289 0.804 0.578 1.609 0.875 2.438 C2 5 2 5 4 6 C2.369 9.494 0.709 11.441 -2.344 13.848 C-13.208 22.651 -18.668 33.122 -20.348 46.977 C-21 49 -21 49 -22.574 50.762 C-25.943 52.481 -29.066 52.323 -32.75 52.188 C-33.447 52.174 -34.145 52.16 -34.863 52.146 C-36.576 52.111 -38.288 52.057 -40 52 C-40 51.67 -40 51.34 -40 51 C-37.36 50.67 -37.36 50.67 -24 49 C-23.01 43.72 -22.02 38.44 -21 33 C-21.99 33.165 -21.99 33.165 -27 34 C-28.875 32.562 -28.875 32.562 -30 31 C-28.02 30.34 -26.04 29.68 -24 29 C-24.99 28.01 -25.98 27.02 -27 26 C-25.35 26 -23.7 26 -22 26 C-21.67 27.32 -21.34 28.64 -21 30 C-17.735 26.969 -15.412 23.735 -13 20 C-12.011 18.658 -11.016 17.321 -10 16 C-10.66 16 -11.32 16 -12 16 C-12 14.35 -12 12.7 -12 11 C-19.126 13.824 -19.126 13.824 -22 17 C-22.66 17 -23.32 17 -24 17 C-23.67 14.69 -23.34 12.38 -23 10 C-22.34 10 -21.68 10 -21 10 C-20.34 8.02 -19.68 6.04 -19 4 C-18.67 4.66 -18.34 5.32 -18 6 C-17.492 5.651 -16.984 5.301 -16.461 4.941 C-10.835 1.222 -6.809 0 0 0 Z " fill="#74A81F" transform="translate(111,123)"/>
<path d="M0 0 C1.32 0.66 2.64 1.32 4 2 C4 2.66 4 3.32 4 4 C9.369 3.501 14.692 2.978 20 2 C20.75 4.188 20.75 4.188 21 7 C19.188 9.812 19.188 9.812 17 12 C16.34 12 15.68 12 15 12 C15 12.99 15 13.98 15 15 C14.381 15.289 13.763 15.578 13.125 15.875 C11 17 11 17 9 19 C8.67 17.68 8.34 16.36 8 15 C7.856 15.474 7.856 15.474 7.125 17.875 C6 21 6 21 4 23 C1.667 23.042 -0.667 23.041 -3 23 C-3.99 23.33 -4.98 23.66 -6 24 C-8.401 22.199 -8.959 21.26 -9.438 18.25 C-8.956 14.674 -7.901 12.671 -6.012 9.668 C-5 8 -5 8 -3.938 5.25 C-2.957 2.896 -1.914 1.653 0 0 Z " fill="#53A232" transform="translate(65,66)"/>
<path d="M0 0 C3.078 0.915 4.681 1.576 6.637 4.176 C9.675 10.47 8.87 18.036 6.945 24.594 C5.713 27.773 4.37 30.879 3 34 C2.313 35.993 1.64 37.991 1 40 C-0.46 39.718 -1.918 39.424 -3.375 39.125 C-4.187 38.963 -4.999 38.8 -5.836 38.633 C-8 38 -8 38 -10 36 C-9.776 30.399 -8.021 25.675 -5 21 C-4.34 20.67 -3.68 20.34 -3 20 C-0.64 20.936 1.696 21.933 4 23 C4 21.68 4 20.36 4 19 C3.381 18.691 2.763 18.381 2.125 18.062 C0.75 17.375 -0.625 16.688 -2 16 C-2.207 10.211 -1.592 5.571 0 0 Z " fill="#BADC47" transform="translate(56,125)"/>
<path d="M0 0 C0.33 0.99 0.66 1.98 1 3 C1.66 3.33 2.32 3.66 3 4 C3 4.99 3 5.98 3 7 C3.99 6.979 4.98 6.959 6 6.938 C10.99 7.591 13.403 11.214 16.496 14.871 C18 17 18 17 18 19 C15.03 19.33 12.06 19.66 9 20 C8.34 19.01 7.68 18.02 7 17 C6.01 16.67 5.02 16.34 4 16 C4.062 16.763 4.124 17.526 4.188 18.312 C4 21 4 21 2.812 22.812 C0.44 24.367 -1.22 24.225 -4 24 C-4.124 23.361 -4.248 22.721 -4.375 22.062 C-4.581 21.382 -4.787 20.701 -5 20 C-5.66 19.67 -6.32 19.34 -7 19 C-6.67 16.36 -6.34 13.72 -6 11 C-7.32 11 -8.64 11 -10 11 C-10 10.01 -10 9.02 -10 8 C-8.682 6.98 -7.348 5.98 -6 5 C-5.67 4.01 -5.34 3.02 -5 2 C-5.349 2.048 -5.349 2.048 -7.117 2.289 C-8.027 2.4 -8.937 2.511 -9.875 2.625 C-10.327 2.683 -10.327 2.683 -12.617 2.977 C-13.404 2.984 -14.19 2.992 -15 3 C-15.66 2.34 -16.32 1.68 -17 1 C-11.992 -2.339 -5.57 -1.393 0 0 Z " fill="#549B32" transform="translate(90,27)"/>
<path d="M0 0 C4.469 0.175 6.519 0.58 9.938 3.562 C11.741 6.049 12.413 8.063 12.625 11.125 C12 15 12 15 9.812 17.562 C7 19 7 19 4.188 18.75 C3.466 18.502 2.744 18.255 2 18 C1.443 18.949 0.886 19.898 0.312 20.875 C-2.13 24.176 -3.093 25.07 -7 26 C-10.312 26.125 -10.312 26.125 -13 26 C-12.5 23.125 -12.5 23.125 -11 20 C-8.317 18.817 -5.932 18.473 -3 18 C-3.453 16.727 -3.913 15.457 -4.375 14.188 C-4.63 13.48 -4.885 12.772 -5.148 12.043 C-6 10 -6 10 -8 7 C-6.21 6.056 -4.419 5.112 -2.629 4.168 C-1 3 -1 3 0 0 Z " fill="#458D2C" transform="translate(121,76)"/>
<path d="M0 0 C0 0.66 0 1.32 0 2 C2.31 2.33 4.62 2.66 7 3 C7.33 3.99 7.66 4.98 8 6 C7.29 6.266 6.579 6.531 5.848 6.805 C4.929 7.158 4.009 7.511 3.062 7.875 C2.604 8.049 2.604 8.049 0.285 8.93 C-2 10 -2 10 -3 12 C-5.31 12 -7.62 12 -10 12 C-10.33 12.66 -10.66 13.32 -11 14 C-10.34 14 -9.68 14 -9 14 C-9.75 18.75 -9.75 18.75 -12 21 C-12.99 21 -13.98 21 -15 21 C-14.835 20.402 -14.67 19.804 -14.5 19.188 C-14 17 -14 17 -14 14 C-14.289 14.165 -14.289 14.165 -15.75 15 C-18 16 -18 16 -22 16 C-22.66 15.67 -23.32 15.34 -24 15 C-21.375 10.125 -21.375 10.125 -18 9 C-18 6.36 -18 3.72 -18 1 C-15.043 -0.478 -12.258 -0.06 -9 0 C-9.33 1.32 -9.66 2.64 -10 4 C-10.66 4 -11.32 4 -12 4 C-11.67 5.65 -11.34 7.3 -11 9 C-8.562 8.625 -8.562 8.625 -6 8 C-5.67 7.34 -5.34 6.68 -5 6 C-6.65 6 -8.3 6 -10 6 C-8.459 2.918 -7.516 1.277 -4.438 -0.375 C-2 -1 -2 -1 0 0 Z " fill="#5DAD3A" transform="translate(56,49)"/>
<path d="M0 0 C-1.32 0.33 -2.64 0.66 -4 1 C-4 1.66 -4 2.32 -4 3 C-3.577 2.938 -3.577 2.938 -1.438 2.625 C3.322 3.144 5.868 5.481 9 9 C10.902 12.088 11 13.165 11 17 C9.804 16.814 8.608 16.629 7.375 16.438 C3.699 15.963 0.652 16.321 -3 17 C-3.99 16.67 -4.98 16.34 -6 16 C-6 14.68 -6 13.36 -6 12 C-4.68 12 -3.36 12 -2 12 C-2 11.34 -2 10.68 -2 10 C-2.763 10.041 -3.526 10.082 -4.312 10.125 C-8.348 9.937 -10.702 7.504 -13.688 5 C-14.31 4.484 -14.933 3.969 -15.574 3.438 C-17 2 -17 2 -17 0 C-5.478 -1.333 -5.478 -1.333 0 0 Z " fill="#3C8324" transform="translate(117,31)"/>
<path d="M0 0 C0 5.61 0 11.22 0 17 C1.32 17.66 2.64 18.32 4 19 C4.66 19.33 5.32 19.66 6 20 C6 21.32 6 22.64 6 24 C3.36 23.34 0.72 22.68 -2 22 C-8.426 33.406 -8.426 33.406 -7 39 C2.037 48.165 16.974 48.695 29 49 C29.33 49.99 29.66 50.98 30 52 C15.232 52.797 2.105 49.918 -9.277 40.02 C-11 38 -11 38 -11 34.688 C-10.073 31.27 -8.789 29.057 -6.918 26.105 C-5.3 22.395 -5.35 18.477 -5.176 14.477 C-5 12 -5 12 -4 11 C-3.718 8.42 -3.552 5.84 -3.379 3.25 C-3.254 2.507 -3.129 1.765 -3 1 C-1 0 -1 0 0 0 Z " fill="#569023" transform="translate(54,124)"/>
<path d="M0 0 C2.64 0 5.28 0 8 0 C7.67 0.66 7.34 1.32 7 2 C10.3 2 13.6 2 17 2 C15.755 6.978 14.201 7.375 10 10 C9.67 10.66 9.34 11.32 9 12 C10.65 12 12.3 12 14 12 C14 12.66 14 13.32 14 14 C13.408 14.014 12.817 14.028 12.207 14.043 C6.288 14.4 4.063 15.472 0 20 C-1.32 20 -2.64 20 -4 20 C-3.812 17.688 -3.812 17.688 -3 15 C0.078 12.691 3.406 11.335 7 10 C5.375 9.312 5.375 9.312 3 9 C2.01 9.495 1.02 9.99 0 10.5 C-3 12 -3 12 -5.375 11.688 C-5.911 11.461 -6.447 11.234 -7 11 C-6.938 8.75 -6.938 8.75 -6 6 C-3.769 4.322 -1.526 3.24 1 2 C0.67 1.34 0.34 0.68 0 0 Z " fill="#70B542" transform="translate(68,27)"/>
<path d="M0 0 C-3.034 2.023 -6.132 3.904 -9.258 5.781 C-11 7 -11 7 -12 9 C-13.134 9.474 -14.269 9.949 -15.438 10.438 C-19 12 -19 12 -21 15 C-21.072 15.567 -21.072 15.567 -21.438 18.438 C-21.997 21.981 -22.622 23.415 -25 26 C-23.68 26.33 -22.36 26.66 -21 27 C-21.66 28.32 -22.32 29.64 -23 31 C-25.438 30.625 -25.438 30.625 -28 30 C-28.33 29.34 -28.66 28.68 -29 28 C-28.67 27.01 -28.34 26.02 -28 25 C-27.34 25 -26.68 25 -26 25 C-25.67 23.68 -25.34 22.36 -25 21 C-34.961 22.845 -34.961 22.845 -39 26 C-39.33 26.99 -39.66 27.98 -40 29 C-42.062 29.688 -42.062 29.688 -44 30 C-44.33 31.65 -44.66 33.3 -45 35 C-45.99 35 -46.98 35 -48 35 C-48.33 35.99 -48.66 36.98 -49 38 C-49.676 36.234 -49.676 36.234 -50 34 C-48.855 32.078 -48.855 32.078 -47.188 30.25 C-46.645 29.636 -46.102 29.023 -45.543 28.391 C-44 27 -44 27 -42 27 C-41.752 26.402 -41.505 25.804 -41.25 25.188 C-38.933 21.132 -35.371 19.353 -31 18 C-27.688 17.875 -27.688 17.875 -25 18 C-24.752 17.278 -24.505 16.556 -24.25 15.812 C-21.676 10.021 -18.643 7.649 -13 5 C-11.311 3.695 -9.64 2.366 -8 1 C-5.291 -0.354 -2.991 -0.065 0 0 Z " fill="#3A7639" transform="translate(72,28)"/>
<path d="M0 0 C0.539 0.014 0.539 0.014 3.266 0.082 C4.085 0.117 4.905 0.152 5.75 0.188 C5.75 1.508 5.75 2.828 5.75 4.188 C4.75 5.188 4.75 5.188 1.688 5.25 C0.718 5.229 -0.251 5.209 -1.25 5.188 C-1.25 7.168 -1.25 9.148 -1.25 11.188 C-8 13.312 -8 13.312 -10.25 12.188 C-10.25 11.198 -10.25 10.207 -10.25 9.188 C-13.274 9.776 -16.268 10.414 -19.25 11.188 C-19.938 8.875 -19.938 8.875 -20.25 6.188 C-19.25 4.375 -19.25 4.375 -17.25 3.188 C-14.917 3.188 -12.583 3.188 -10.25 3.188 C-9.645 2.696 -9.041 2.205 -8.418 1.699 C-5.501 -0.335 -3.515 -0.115 0 0 Z " fill="#63A936" transform="translate(92.25,53.8125)"/>
<path d="M0 0 C0.66 1.65 1.32 3.3 2 5 C0.377 5.671 -1.249 6.337 -2.875 7 C-3.78 7.371 -4.685 7.742 -5.617 8.125 C-8 9 -8 9 -10 9 C-10.289 9.578 -10.578 10.155 -10.875 10.75 C-11.917 12.833 -12.958 14.917 -14 17 C-14.33 16.34 -14.66 15.68 -15 15 C-16.32 15.33 -17.64 15.66 -19 16 C-19.144 15.237 -19.289 14.474 -19.438 13.688 C-20 11 -20 11 -21 8 C-18.824 3.145 -18.824 3.145 -16 1 C-10.683 -0.15 -5.411 0 0 0 Z " fill="#3D8829" transform="translate(85,47)"/>
<path d="M0 0 C1.98 0 3.96 0 6 0 C5.34 0.33 5.34 0.33 2 2 C7.75 3 7.75 3 10 3 C9.693 5.647 9.379 8.292 9.062 10.938 C9.019 11.315 9.019 11.315 8.799 13.225 C8.113 18.887 8.113 18.887 7 20 C3.331 20.143 -0.327 20.042 -4 20 C-2.68 13.4 -1.36 6.8 0 0 Z " fill="#7FB321" transform="translate(80,153)"/>
<path d="M0 0 C7.26 0 14.52 0 22 0 C21.34 1.98 20.68 3.96 20 6 C20.578 5.505 21.155 5.01 21.75 4.5 C24 3 24 3 28 3 C28 3.66 28 4.32 28 5 C26.355 6.324 26.355 6.324 24.188 7.688 C23.48 8.145 22.772 8.603 22.043 9.074 C20 10 20 10 17 9 C16.67 9.495 16.67 9.495 15 12 C14.67 11.34 14.34 10.68 14 10 C13.67 10.165 13.67 10.165 12 11 C12 9.68 12 8.36 12 7 C11.397 6.963 10.793 6.925 10.172 6.887 C2.234 6.234 2.234 6.234 -1 3 C-0.67 2.01 -0.34 1.02 0 0 Z " fill="#649E1A" transform="translate(75,119)"/>
<path d="M0 0 C0.567 0.238 1.134 0.477 1.719 0.723 C1.222 1.051 0.726 1.38 0.215 1.719 C-9.802 8.733 -15.502 17.496 -17.824 29.539 C-18.112 31.231 -18.373 32.927 -18.594 34.629 C-19.558 37.565 -20.526 38.323 -23.281 39.723 C-25.954 39.936 -28.374 40.008 -31.031 39.91 C-31.729 39.897 -32.426 39.883 -33.145 39.869 C-34.857 39.834 -36.569 39.78 -38.281 39.723 C-38.281 39.393 -38.281 39.063 -38.281 38.723 C-35.641 38.393 -35.641 38.393 -22.281 36.723 C-21.291 31.443 -20.301 26.163 -19.281 20.723 C-21.261 21.053 -23.241 21.383 -25.281 21.723 C-27.156 20.285 -27.156 20.285 -28.281 18.723 C-26.301 18.063 -24.321 17.403 -22.281 16.723 C-23.271 15.733 -24.261 14.743 -25.281 13.723 C-23.631 13.723 -21.981 13.723 -20.281 13.723 C-19.951 15.043 -19.621 16.363 -19.281 17.723 C-16.988 15.593 -15.237 13.651 -13.594 10.973 C-5.326 -0.647 -5.326 -0.647 0 0 Z " fill="#418210" transform="translate(109.28125,135.27734375)"/>
<path d="M0 0 C0.33 0.165 0.33 0.165 2 1 C2 1.66 2 2.32 2 3 C5.024 2.412 8.018 1.773 11 1 C11.33 1.66 11.66 2.32 12 3 C11.01 3.33 10.02 3.66 9 4 C9.75 6.938 9.75 6.938 11 10 C13.125 10.875 13.125 10.875 15 11 C15 10.01 15 9.02 15 8 C23.429 5.714 23.429 5.714 28 6 C28 7.98 28 9.96 28 12 C27.359 11.965 26.719 11.93 26.059 11.895 C21.704 11.758 18.109 11.653 14.125 13.562 C11 15 11 15 8.875 15 C6.057 13.497 4.157 11.327 2 9 C1.34 8.34 0.68 7.68 0 7 C-0.125 3.375 -0.125 3.375 0 0 Z " fill="#579B2C" transform="translate(113,51)"/>
<path d="M0 0 C0.66 0.33 1.32 0.66 2 1 C2.072 5.09 2.064 8.654 1.312 12.688 C1 16 1 16 2.438 18.25 C5.335 23.35 4.563 29.221 3.426 34.832 C2.235 39.136 1.316 41.939 -2 45 C-3.188 47.188 -3.188 47.188 -4 49 C-4.337 44.175 -3.471 42.052 -1 38 C-0.312 34.188 -0.312 34.188 0 31 C0.66 31 1.32 31 2 31 C1.67 27.04 1.34 23.08 1 19 C0.536 19.34 0.536 19.34 -1.812 21.062 C-2.864 21.702 -3.916 22.341 -5 23 C-5.99 22.67 -6.98 22.34 -8 22 C-7.54 21.602 -7.08 21.203 -6.605 20.793 C-4.733 18.701 -4.126 16.986 -3.312 14.312 C-3.061 13.504 -2.81 12.696 -2.551 11.863 C-2.46 11.556 -2.46 11.556 -2 10 C-1.34 10 -0.68 10 0 10 C0 6.7 0 3.4 0 0 Z " fill="#275925" transform="translate(157,73)"/>
<path d="M0 0 C0.825 0.165 0.825 0.165 5 1 C5 1.66 5 2.32 5 3 C5.289 3.124 5.289 3.124 6.75 3.75 C9.329 5.183 11.061 6.784 13 9 C13 9.66 13 10.32 13 11 C13.66 11 14.32 11 15 11 C16.388 17.055 15.491 20.32 13 26 C12.67 26 12.34 26 12 26 C11.963 25.348 11.925 24.695 11.887 24.023 C11.49 18.755 11.056 14.475 8 10 C5.312 8.125 5.312 8.125 3 7 C2.67 9.64 2.34 12.28 2 15 C1.67 15 1.34 15 1 15 C0.67 10.05 0.34 5.1 0 0 Z " fill="#94C32A" transform="translate(53,118)"/>
<path d="M0 0 C2.915 1.074 4.778 1.778 7 4 C7 5.32 7 6.64 7 8 C13.75 8.125 13.75 8.125 16 7 C18.333 6.96 20.667 6.957 23 7 C22.01 7.33 21.02 7.66 20 8 C20 8.99 20 9.98 20 11 C19.34 11 18.68 11 18 11 C18 10.34 18 9.68 18 9 C17.01 9.66 16.02 10.32 15 11 C13.345 11.385 11.678 11.728 10 12 C10 14.97 10 17.94 10 21 C9.01 21.33 8.02 21.66 7 22 C6.257 21.216 5.515 20.433 4.75 19.625 C2.456 17.435 0.878 16.173 -2 15 C0.31 14.34 2.62 13.68 5 13 C4.599 7.785 3.95 5.44 0 2 C0 1.34 0 0.68 0 0 Z " fill="#2B701D" transform="translate(104,39)"/>
<path d="M0 0 C-0.526 3.788 -1.381 6.172 -4 9 C-4.66 9 -5.32 9 -6 9 C-6 9.99 -6 10.98 -6 12 C-6.619 12.289 -7.237 12.578 -7.875 12.875 C-10 14 -10 14 -12 16 C-11.441 12.648 -10.642 9.975 -9 7 C-8.67 6.34 -8.34 5.68 -8 5 C-8.99 5.66 -9.98 6.32 -11 7 C-13.188 6.625 -13.188 6.625 -15 6 C-14.766 4.113 -14.766 4.113 -14 2 C-9.652 -0.488 -4.815 -1.709 0 0 Z " fill="#66B039" transform="translate(86,69)"/>
<path d="M0 0 C3.2 -0.56 5.277 -0.466 8.039 1.312 C11.465 4.187 14.058 6.728 15.938 10.812 C18 14 18 14 20.062 14.777 C21.643 15.092 23.231 15.373 24.824 15.621 C30.992 16.695 34.804 21.577 38.812 26 C40.285 28.48 40.236 30.164 40 33 C38 31 38 31 36.625 28 C34.887 24.791 34.231 24.313 31 23 C29.981 22.02 28.978 21.022 28 20 C25.288 18.644 22.932 19.07 19.973 19.258 C18 19 18 19 16.328 17.734 C14.893 15.861 14.333 14.383 13.688 12.125 C12.062 7.527 10.095 5.65 6 3 C2.625 2.188 2.625 2.188 0 2 C0 1.34 0 0.68 0 0 Z " fill="#275D25" transform="translate(113,32)"/>
<path d="M0 0 C2.377 0.257 4.751 0.53 7.125 0.812 C7.458 0.848 7.458 0.848 9.141 1.025 C13.641 1.577 17.068 2.764 21 5 C21 5.66 21 6.32 21 7 C17.85 8.846 15.511 9.272 11.875 9.25 C11.441 9.253 11.441 9.253 9.242 9.266 C7 9 7 9 5 7 C4.319 6.732 3.639 6.464 2.938 6.188 C1 5 1 5 0.379 2.426 C0.254 1.625 0.129 0.825 0 0 Z " fill="#276625" transform="translate(29,109)"/>
<path d="M0 0 C0 5.61 0 11.22 0 17 C1.32 17.66 2.64 18.32 4 19 C4.66 19.33 5.32 19.66 6 20 C6 21.32 6 22.64 6 24 C4.014 23.382 2.029 22.763 0.043 22.145 C-2 22 -2 22 -3.762 23.449 C-4.17 23.961 -4.579 24.473 -5 25 C-5.027 22.854 -5.046 20.708 -5.062 18.562 C-5.074 17.368 -5.086 16.173 -5.098 14.941 C-5 12 -5 12 -4 11 C-3.718 8.42 -3.552 5.84 -3.379 3.25 C-3.254 2.507 -3.129 1.765 -3 1 C-1 0 -1 0 0 0 Z " fill="#7CAF25" transform="translate(54,124)"/>
<path d="M0 0 C2.437 1.787 2.979 3.538 3.875 6.375 C4.535 6.375 5.195 6.375 5.875 6.375 C5.875 7.695 5.875 9.015 5.875 10.375 C6.184 10.427 6.184 10.427 7.75 10.688 C9.875 11.375 9.875 11.375 11.875 14.375 C12.865 15.035 13.855 15.695 14.875 16.375 C13.906 18.06 12.905 19.727 11.875 21.375 C11.545 21.375 11.215 21.375 10.875 21.375 C10.875 19.725 10.875 18.075 10.875 16.375 C10.215 16.375 9.555 16.375 8.875 16.375 C8.875 15.715 8.875 15.055 8.875 14.375 C8.586 14.251 8.586 14.251 7.125 13.625 C4.546 12.192 2.814 10.591 0.875 8.375 C0.875 7.715 0.875 7.055 0.875 6.375 C-0.775 6.045 -2.425 5.715 -4.125 5.375 C-4.455 6.695 -4.785 8.015 -5.125 9.375 C-5.455 6.405 -5.785 3.435 -6.125 0.375 C-2.125 -0.625 -2.125 -0.625 0 0 Z " fill="#78AB21" transform="translate(57.125,112.625)"/>
<path d="M0 0 C2.494 1.204 4.681 2.454 7 4 C6.67 4.165 6.67 4.165 5 5 C5 6.98 5 8.96 5 11 C4.464 10.505 3.928 10.01 3.375 9.5 C0.406 7.625 -1.553 7.765 -5 8 C-4.67 9.217 -4.34 10.434 -4 11.688 C-2.621 17.766 -2.828 23.801 -3 30 C-3.33 30 -3.66 30 -4 30 C-4.121 28.712 -4.242 27.424 -4.367 26.098 C-4.536 24.419 -4.705 22.741 -4.875 21.062 C-4.954 20.212 -5.032 19.362 -5.113 18.486 C-5.197 17.677 -5.281 16.869 -5.367 16.035 C-5.404 15.661 -5.404 15.661 -5.589 13.766 C-5.657 13.475 -5.657 13.475 -6 12 C-6.66 11.67 -7.32 11.34 -8 11 C-7.34 11 -6.68 11 -6 11 C-6.66 8.69 -7.32 6.38 -8 4 C-6.866 3.526 -5.731 3.051 -4.562 2.562 C-1 1 -1 1 0 0 Z " fill="#498518" transform="translate(56,105)"/>
<path d="M0 0 C0.33 0.99 0.66 1.98 1 3 C1.99 2.67 2.98 2.34 4 2 C4.363 7.802 3.257 11.64 1 17 C-1.962 16.387 -3.381 15.746 -6 14 C-5.211 8.634 -2.986 4.48 0 0 Z " fill="#CCE660" transform="translate(56,148)"/>
<path d="M0 0 C1.875 0.125 1.875 0.125 4 1 C5.167 3.742 6 6.006 6 9 C6.928 9.227 7.856 9.454 8.812 9.688 C12.534 11.22 13.277 12.463 15 16 C15.33 16.33 15.66 16.66 16 17 C16.041 18.666 16.043 20.334 16 22 C17.65 22 19.3 22 21 22 C21.33 22.66 21.66 23.32 22 24 C21.34 24.33 21.34 24.33 18 26 C18 26.66 18 27.32 18 28 C17.34 28 16.68 28 16 28 C15.67 28.99 15.34 29.98 15 31 C13.329 26.464 12.413 22.026 11.66 17.27 C10.907 14.679 10.116 13.641 8 12 C5.312 11.312 5.312 11.312 3 11 C2.867 10.374 2.734 9.747 2.598 9.102 C2.421 8.284 2.244 7.467 2.062 6.625 C1.975 6.219 1.975 6.219 1.535 4.164 C1 2 1 2 0 0 Z " fill="#25691C" transform="translate(120,66)"/>
<path d="M0 0 C0 0.66 0 1.32 0 2 C2.31 2.33 4.62 2.66 7 3 C7.33 3.99 7.66 4.98 8 6 C6.42 6.675 4.836 7.34 3.25 8 C2.809 8.186 2.809 8.186 0.578 9.125 C-2 10 -2 10 -6 10 C-5.67 8.68 -5.34 7.36 -5 6 C-6.65 6 -8.3 6 -10 6 C-8.459 2.918 -7.516 1.277 -4.438 -0.375 C-2 -1 -2 -1 0 0 Z " fill="#5EA735" transform="translate(56,49)"/>
<path d="M0 0 C0.289 0.804 0.578 1.609 0.875 2.438 C2 5 2 5 4 6 C3.34 7.32 2.68 8.64 2 10 C0.02 9.34 -1.96 8.68 -4 8 C-3.67 7.34 -3.34 6.68 -3 6 C-6.11 4.445 -8.563 4.714 -12 5 C-15.312 7 -15.312 7 -18 9 C-18.66 9 -19.32 9 -20 9 C-20.33 9.99 -20.66 10.98 -21 12 C-21.33 11.34 -21.66 10.68 -22 10 C-21.066 7.969 -20.068 5.965 -19 4 C-18.67 4.66 -18.34 5.32 -18 6 C-17.492 5.651 -16.984 5.301 -16.461 4.941 C-10.835 1.222 -6.809 0 0 0 Z " fill="#649F18" transform="translate(111,123)"/>
<path d="M0 0 C-1.32 0.33 -2.64 0.66 -4 1 C-4.041 1.577 -4.083 2.155 -4.125 2.75 C-5.473 6.217 -7.824 7.202 -11 9 C-15.729 10.964 -19.298 11.104 -24.375 10.625 C-25.62 10.514 -26.865 10.403 -28.148 10.289 C-29.089 10.194 -30.03 10.098 -31 10 C-31 9.67 -31 9.34 -31 9 C-29.02 9 -27.04 9 -25 9 C-25 8.01 -25 7.02 -25 6 C-19.334 4.775 -13.763 4.908 -8 5 C-7.711 4.196 -7.423 3.391 -7.125 2.562 C-5.354 -1.471 -3.856 -1.157 0 0 Z " fill="#19561B" transform="translate(148,129)"/>
<path d="M0 0 C0.375 3.25 0.375 3.25 0 7 C-2.75 9.062 -2.75 9.062 -6 11 C-7.394 12.959 -8.743 14.951 -10 17 C-10.33 17 -10.66 17 -11 17 C-11.33 13.7 -11.66 10.4 -12 7 C-10.35 6.67 -8.7 6.34 -7 6 C-6.897 5.381 -6.794 4.763 -6.688 4.125 C-5.523 0.525 -3.585 0 0 0 Z " fill="#76BA45" transform="translate(39,51)"/>
<path d="M0 0 C-1.32 0.33 -2.64 0.66 -4 1 C-3.794 1.784 -3.588 2.568 -3.375 3.375 C-3.251 4.241 -3.127 5.108 -3 6 C-3.66 6.66 -4.32 7.32 -5 8 C-9.436 7.916 -11.49 7.423 -14.938 4.562 C-17 2 -17 2 -17 0 C-5.478 -1.333 -5.478 -1.333 0 0 Z " fill="#55A335" transform="translate(117,31)"/>
<path d="M0 0 C1.65 0.33 3.3 0.66 5 1 C4.856 1.825 4.711 2.65 4.562 3.5 C3.947 7.327 3.464 11.152 3 15 C1.35 15.33 -0.3 15.66 -2 16 C-4.202 12.696 -4.535 11.831 -4 8 C-2.722 5.964 -1.393 3.959 0 2 C0 1.34 0 0.68 0 0 Z " fill="#3B8B2D" transform="translate(51,74)"/>
<path d="M0 0 C0.99 0.33 1.98 0.66 3 1 C2.952 1.32 2.952 1.32 2.711 2.941 C1.986 8.599 2.019 12.641 4 18 C5.65 18.33 7.3 18.66 9 19 C9.33 20.32 9.66 21.64 10 23 C11.32 23.33 12.64 23.66 14 24 C12.68 24.33 11.36 24.66 10 25 C9.67 26.32 9.34 27.64 9 29 C8.918 28.381 8.918 28.381 8.5 25.25 C7.839 22.554 7.391 21.322 5.227 19.543 C0.035 16.812 0.035 16.812 -3.258 17.41 C-3.833 17.605 -4.408 17.799 -5 18 C-5 17.01 -5 16.02 -5 15 C-3.68 14.34 -2.36 13.68 -1 13 C-1.021 11.783 -1.041 10.566 -1.062 9.312 C-1.068 6.08 -0.788 3.151 0 0 Z " fill="#1D631B" transform="translate(56,88)"/>
<path d="M0 0 C0.784 0.041 1.567 0.083 2.375 0.125 C2.705 1.445 3.035 2.765 3.375 4.125 C2.529 4.393 1.684 4.661 0.812 4.938 C-2.625 6.125 -2.625 6.125 -6.25 7.688 C-8.763 8.758 -10.968 9.594 -13.625 10.125 C-14.312 7.812 -14.312 7.812 -14.625 5.125 C-13.625 3.312 -13.625 3.312 -11.625 2.125 C-9.292 2.084 -6.958 2.083 -4.625 2.125 C-2.625 0.125 -2.625 0.125 0 0 Z " fill="#76B63D" transform="translate(86.625,54.875)"/>
<path d="M0 0 C2.152 1.703 2.927 2.654 3.5 5.375 C2.763 9.245 1.125 10.69 -2 13 C-5.312 12.812 -5.312 12.812 -8 12 C-8.625 10.125 -8.625 10.125 -9 8 C-8.34 7.34 -7.68 6.68 -7 6 C-6.01 6 -5.02 6 -4 6 C-1.812 3 -1.812 3 0 0 Z " fill="#418F2D" transform="translate(103,85)"/>
<path d="M0 0 C0.99 0.99 1.98 1.98 3 3 C2.691 3.681 2.381 4.361 2.062 5.062 C1 8 1 8 0.5 11.625 C0 15 0 15 -2 18 C-1.34 18 -0.68 18 0 18 C0 18.66 0 19.32 0 20 C-6.417 20.103 -12.627 19.745 -19 19 C-19 18.67 -19 18.34 -19 18 C-18.264 17.963 -17.528 17.925 -16.77 17.887 C-15.794 17.821 -14.818 17.755 -13.812 17.688 C-12.85 17.629 -11.887 17.571 -10.895 17.512 C-7.494 16.911 -5.645 16.241 -3 14 C-1.855 10.645 -1.855 10.645 -1.188 6.812 C-0.954 5.54 -0.721 4.268 -0.48 2.957 C-0.401 2.469 -0.401 2.469 0 0 Z " fill="#E1D9B1" transform="translate(92,158)"/>
<path d="M0 0 C-1.623 1.709 -3.293 3.374 -5 5 C-5.66 5 -6.32 5 -7 5 C-7 5.66 -7 6.32 -7 7 C-8.093 7.433 -9.186 7.866 -10.312 8.312 C-13.138 9.509 -14.926 10.707 -17 13 C-17.66 13 -18.32 13 -19 13 C-18.67 10.69 -18.34 8.38 -18 6 C-17.34 6.33 -16.68 6.66 -16 7 C-15.722 6.701 -15.722 6.701 -14.312 5.188 C-9.603 0.733 -6.533 -0.384 0 0 Z " fill="#689C1A" transform="translate(106,127)"/>
<path d="M0 0 C0.33 0.99 0.66 1.98 1 3 C0.175 3.371 -0.65 3.743 -1.5 4.125 C-4.406 5.682 -6.54 7.192 -9.062 9.25 C-12.612 12.016 -12.612 12.016 -16 11.875 C-16.33 11.731 -16.33 11.731 -18 11 C-17.427 8.133 -17.139 7.139 -15 5 C-15 4.34 -15 3.68 -15 3 C-14.196 3.248 -13.391 3.495 -12.562 3.75 C-7.632 4.096 -4.309 2.231 0 0 Z " fill="#348529" transform="translate(70,61)"/>
<path d="M0 0 C0.99 0.33 1.98 0.66 3 1 C3 1.66 3 2.32 3 3 C7.75 2.125 7.75 2.125 10 1 C9.544 5.743 8.877 8.284 6 12 C5.312 15.25 5.312 15.25 5 18 C4.34 17.67 3.68 17.34 3 17 C4 9.571 4 9.571 5 6 C-2.429 7 -2.429 7 -6 8 C-6 7.34 -6 6.68 -6 6 C-5.381 5.752 -4.763 5.505 -4.125 5.25 C-1.649 3.794 -1.049 2.622 0 0 Z " fill="#2C7524" transform="translate(51,69)"/>
<path d="M0 0 C6.792 4.134 6.792 4.134 8 8 C8 9.32 8 10.64 8 12 C6.783 11.814 5.566 11.629 4.312 11.438 C0.97 11.01 -1.72 11.077 -5 12 C-4.361 10.948 -3.721 9.896 -3.062 8.812 C-1.382 5.892 -0.41 3.383 0 0 Z " fill="#387D21" transform="translate(120,36)"/>
<path d="M0 0 C0.33 1.32 0.66 2.64 1 4 C0.01 3.835 0.01 3.835 -5 3 C-5 3.66 -5 4.32 -5 5 C-5.638 5.326 -6.276 5.652 -6.934 5.988 C-7.76 6.425 -8.586 6.862 -9.438 7.312 C-10.261 7.742 -11.085 8.171 -11.934 8.613 C-14 10 -14 10 -15 13 C-17.062 13.688 -17.062 13.688 -19 14 C-19.33 15.65 -19.66 17.3 -20 19 C-20.99 19 -21.98 19 -23 19 C-23.33 19.99 -23.66 20.98 -24 22 C-24.676 20.234 -24.676 20.234 -25 18 C-23.855 16.078 -23.855 16.078 -22.188 14.25 C-21.645 13.636 -21.102 13.023 -20.543 12.391 C-19 11 -19 11 -17 11 C-16.752 10.402 -16.505 9.804 -16.25 9.188 C-13.933 5.132 -10.371 3.353 -6 2 C-2.688 1.875 -2.688 1.875 0 2 C0 1.34 0 0.68 0 0 Z " fill="#428043" transform="translate(47,44)"/>
<path d="M0 0 C0.99 0.33 1.98 0.66 3 1 C3 1.99 3 2.98 3 4 C3.99 3.67 4.98 3.34 6 3 C6.66 3.33 7.32 3.66 8 4 C8.179 7.947 8.094 10.598 6 14 C4.35 13.67 2.7 13.34 1 13 C1.66 10.36 2.32 7.72 3 5 C1.02 5.66 -0.96 6.32 -3 7 C-1.125 1.125 -1.125 1.125 0 0 Z " fill="#A2CB36" transform="translate(73,126)"/>
<path d="M0 0 C0.387 0.169 0.387 0.169 2.344 1.023 C8.188 3.526 13.777 5.684 20 7 C16.219 9.521 14.472 9.104 10 8.75 C9.381 8.706 9.381 8.706 6.25 8.484 C3 8 3 8 0 6 C0.66 6 1.32 6 2 6 C1.34 4.02 0.68 2.04 0 0 Z " fill="#E7DFB7" transform="translate(50,168)"/>
<path d="M0 0 C0.99 0.33 1.98 0.66 3 1 C3 6.28 3 11.56 3 17 C1.35 16.67 -0.3 16.34 -2 16 C-2.207 10.211 -1.592 5.571 0 0 Z " fill="#C9E65E" transform="translate(56,125)"/>
<path d="M0 0 C2.729 0.033 5.297 0.564 8 1 C1.699 5.201 -5.809 4.184 -13.125 4.188 C-14.317 4.2 -15.51 4.212 -16.738 4.225 C-17.309 4.226 -17.309 4.226 -20.195 4.23 C-20.716 4.233 -20.716 4.233 -23.352 4.243 C-26 4 -26 4 -29 2 C-26.307 0.653 -24.41 1.016 -21.406 1.191 C-20.294 1.249 -19.181 1.306 -18.035 1.365 C-15.678 1.497 -13.321 1.632 -10.965 1.771 C-9.852 1.828 -8.74 1.884 -7.594 1.941 C-7.082 1.971 -7.082 1.971 -4.49 2.119 C-2 2 -2 2 0 0 Z " fill="#F5EAD2" transform="translate(94,175)"/>
<path d="M0 0 C0.33 0.99 0.66 1.98 1 3 C-0.263 4.176 -1.535 5.34 -2.812 6.5 C-3.166 6.825 -3.166 6.825 -4.957 8.469 C-7 10 -7 10 -10 10 C-9.401 3.655 -9.401 3.655 -7.812 1.062 C-5.194 -0.473 -2.971 -0.198 0 0 Z " fill="#79BA42" transform="translate(60,38)"/>
<path d="M0 0 C0.57 0.235 1.14 0.469 1.727 0.711 C1.478 0.875 1.478 0.875 0.223 1.707 C-7.558 7.155 -13.033 13.752 -16.273 22.711 C-16.933 22.711 -17.593 22.711 -18.273 22.711 C-17.796 13.406 -10.912 6.991 -4.422 1.047 C-2.273 -0.289 -2.273 -0.289 0 0 Z " fill="#367419" transform="translate(109.2734375,135.2890625)"/>
<path d="M0 0 C-0.293 3.511 -0.81 4.805 -3.312 7.375 C-6 9 -6 9 -8.312 8.75 C-8.869 8.502 -9.426 8.255 -10 8 C-9.812 5.688 -9.812 5.688 -9 3 C-5.68 0.398 -4.307 0 0 0 Z " fill="#87C84C" transform="translate(71,30)"/>
<path d="M0 0 C0.536 0.133 1.072 0.266 1.625 0.402 C9.699 2.222 17.76 2.612 26 3 C26.33 3.99 26.66 4.98 27 6 C17.192 6.529 9.211 5.427 0 2 C0 1.34 0 0.68 0 0 Z " fill="#66992C" transform="translate(57,170)"/>
<path d="M0 0 C5 1 5 1 6.812 3.375 C8 6 8 6 8 9 C7.175 8.67 7.175 8.67 3 7 C2.67 9.64 2.34 12.28 2 15 C1.67 15 1.34 15 1 15 C0.67 10.05 0.34 5.1 0 0 Z " fill="#A3CD36" transform="translate(53,118)"/>
<path d="M0 0 C2 3 2 3 1.812 4.938 C1 7 1 7 -0.477 8.645 C-2.547 11.846 -2.805 15.042 -3.188 18.75 C-3.269 19.447 -3.351 20.145 -3.436 20.863 C-3.635 22.574 -3.819 24.287 -4 26 C-4.33 26 -4.66 26 -5 26 C-6.713 12.088 -6.713 12.088 -3 7 C-2.34 6.34 -1.68 5.68 -1 5 C-0.375 2.375 -0.375 2.375 0 0 Z " fill="#45814B" transform="translate(21,68)"/>
<path d="M0 0 C1.98 0 3.96 0 6 0 C7.607 3.215 7.057 6.436 7 10 C4.69 9.34 2.38 8.68 0 8 C0 5.36 0 2.72 0 0 Z " fill="#35862A" transform="translate(19,87)"/>
<path d="M0 0 C0.33 0 0.66 0 1 0 C1.33 2.64 1.66 5.28 2 8 C-0.647 9.461 -1.894 10 -5 10 C-5.66 10.66 -6.32 11.32 -7 12 C-7.125 8.625 -7.125 8.625 -7 5 C-6.34 4.34 -5.68 3.68 -5 3 C-4.67 3.33 -4.34 3.66 -4 4 C-3.67 3.34 -3.34 2.68 -3 2 C-2.01 2 -1.02 2 0 2 C0 1.34 0 0.68 0 0 Z " fill="#6EB249" transform="translate(27,61)"/>
<path d="M0 0 C1.32 0 2.64 0 4 0 C3.67 1.65 3.34 3.3 3 5 C2.01 5.33 1.02 5.66 0 6 C-0.688 8.062 -0.688 8.062 -1 10 C-2.32 10 -3.64 10 -5 10 C-5.125 7.125 -5.125 7.125 -5 4 C-4.34 3.34 -3.68 2.68 -3 2 C-2.01 2 -1.02 2 0 2 C0 1.34 0 0.68 0 0 Z " fill="#71B942" transform="translate(24,73)"/>
<path d="M0 0 C0 1.98 0 3.96 0 6 C-3.96 6 -7.92 6 -12 6 C-12.33 4.68 -12.66 3.36 -13 2 C-4.571 -0.286 -4.571 -0.286 0 0 Z " fill="#4D8F28" transform="translate(141,57)"/>
<path d="M0 0 C1.65 0 3.3 0 5 0 C5.33 1.32 5.66 2.64 6 4 C6.66 4 7.32 4 8 4 C8 6.97 8 9.94 8 13 C6 10 6 10 6 7 C5.536 7.113 5.536 7.113 3.188 7.688 C0 8 0 8 -1.875 6.562 C-2.061 6.305 -2.061 6.305 -3 5 C-1.02 4.34 0.96 3.68 3 3 C2.01 2.01 1.02 1.02 0 0 Z " fill="#5B9514" transform="translate(84,149)"/>
<path d="M0 0 C7.75 -0.125 7.75 -0.125 10 1 C10 2.65 10 4.3 10 6 C3.6 6.492 3.6 6.492 0.562 4 C0.047 3.34 -0.469 2.68 -1 2 C-0.67 1.34 -0.34 0.68 0 0 Z " fill="#337333" transform="translate(113,134)"/>
<path d="M0 0 C3.557 -0.081 6.568 0.11 10 1 C10.33 0.67 10.66 0.34 11 0 C12.955 -0.125 14.916 -0.176 16.875 -0.188 C17.41 -0.195 17.41 -0.195 20.117 -0.23 C23 0 23 0 26 2 C21.858 3.25 17.944 3.032 13.656 2.938 C11 3 11 3 8.891 3.59 C5.508 4.324 3.027 2.455 0 1 C0 0.67 0 0.34 0 0 Z " fill="#306F2F" transform="translate(86,28)"/>
<path d="M0 0 C1.65 0 3.3 0 5 0 C4.67 0.165 4.67 0.165 3 1 C2.653 2.998 2.32 4.998 2 7 C1.67 7.495 1.67 7.495 0 10 C-1.32 9.67 -2.64 9.34 -4 9 C-4.33 6.69 -4.66 4.38 -5 2 C-4.34 2 -3.68 2 -3 2 C-3 2.99 -3 3.98 -3 5 C-2.34 4.67 -1.68 4.34 -1 4 C-0.375 1.938 -0.375 1.938 0 0 Z " fill="#508B1D" transform="translate(72,118)"/>
<path d="M0 0 C0.33 0 0.66 0 1 0 C1.317 7.695 1.43 14.007 -2 21 C-2.66 21.66 -3.32 22.32 -4 23 C-4.697 24.317 -5.37 25.649 -6 27 C-6.337 22.175 -5.471 20.052 -3 16 C-2.312 12.188 -2.312 12.188 -2 9 C-1.34 9 -0.68 9 0 9 C0 6.03 0 3.06 0 0 Z " fill="#144915" transform="translate(159,95)"/>
<path d="M0 0 C3.125 0.375 3.125 0.375 6 1 C6 1.66 6 2.32 6 3 C5.01 3 4.02 3 3 3 C3.506 5.169 4 7 5 9 C3 9.043 1 9.041 -1 9 C-2 8 -2 8 -2.188 5.062 C-2 2 -2 2 0 0 Z " fill="#529F34" transform="translate(59,91)"/>
<path d="M0 0 C-0.66 1.98 -1.32 3.96 -2 6 C-1.422 5.505 -0.845 5.01 -0.25 4.5 C2 3 2 3 6 3 C6 3.66 6 4.32 6 5 C4.32 6.289 4.32 6.289 2.125 7.625 C1.406 8.071 0.686 8.517 -0.055 8.977 C-2 10 -2 10 -4 10 C-3.67 7.36 -3.34 4.72 -3 2 C-4.32 1.67 -5.64 1.34 -7 1 C-4.509 0.313 -2.621 0 0 0 Z " fill="#437D13" transform="translate(97,119)"/>
<path d="M0 0 C0.66 0 1.32 0 2 0 C2 0.66 2 1.32 2 2 C2.66 2 3.32 2 4 2 C4.33 1.34 4.66 0.68 5 0 C5 0.66 5 1.32 5 2 C8.3 2.66 11.6 3.32 15 4 C11 6 11 6 7 6 C7 5.34 7 4.68 7 4 C3.917 5.199 0.937 6.477 -2 8 C-1.835 7.433 -1.835 7.433 -1 4.562 C0 1 0 1 0 0 Z " fill="#245D13" transform="translate(96,118)"/>
<path d="M0 0 C0.33 1.32 0.66 2.64 1 4 C2.98 3.67 4.96 3.34 7 3 C7.33 3.99 7.66 4.98 8 6 C8.66 6.33 9.32 6.66 10 7 C10 7.99 10 8.98 10 10 C6.7 9.34 3.4 8.68 0 8 C0 5.36 0 2.72 0 0 Z " fill="#54A137" transform="translate(18,79)"/>
<path d="M0 0 C0.33 0 0.66 0 1 0 C1.197 1.728 1.382 3.458 1.562 5.188 C1.667 6.15 1.771 7.113 1.879 8.105 C1.998 10.963 1.658 13.23 1 16 C0.928 16.526 0.928 16.526 0.562 19.188 C0 22 0 22 -2 24 C-2.027 21.854 -2.046 19.708 -2.062 17.562 C-2.074 16.368 -2.086 15.173 -2.098 13.941 C-2 11 -2 11 -1 10 C-0.767 8.318 -0.587 6.629 -0.438 4.938 C-0.354 4.018 -0.27 3.099 -0.184 2.152 C-0.123 1.442 -0.062 0.732 0 0 Z " fill="#6F9F49" transform="translate(51,125)"/>
<path d="M0 0 C2.494 1.204 4.681 2.454 7 4 C6.67 4.165 6.67 4.165 5 5 C5 6.98 5 8.96 5 11 C2.69 9.02 0.38 7.04 -2 5 C-1.34 3.35 -0.68 1.7 0 0 Z " fill="#558F16" transform="translate(56,105)"/>
<path d="M0 0 C0.99 0.33 1.98 0.66 3 1 C3.25 3.25 3.25 3.25 3 6 C1.125 8.312 1.125 8.312 -1 10 C-1.66 10 -2.32 10 -3 10 C-3 11.32 -3 12.64 -3 14 C-4.32 13.67 -5.64 13.34 -7 13 C-5.055 9.304 -3.743 7.747 0 6 C0.33 5.01 0.66 4.02 1 3 C0.34 3 -0.32 3 -1 3 C-0.67 2.01 -0.34 1.02 0 0 Z " fill="#22681E" transform="translate(103,103)"/>
<path d="M0 0 C0.99 0.33 1.98 0.66 3 1 C2.125 5.875 2.125 5.875 1 7 C-1.339 6.713 -3.674 6.381 -6 6 C-6.33 5.01 -6.66 4.02 -7 3 C-6.216 3.062 -5.433 3.124 -4.625 3.188 C-3.759 3.126 -2.892 3.064 -2 3 C-1.34 2.01 -0.68 1.02 0 0 Z " fill="#338127" transform="translate(80,88)"/>
<path d="M0 0 C4.706 0.706 4.706 0.706 6 2 C6.041 4 6.043 6 6 8 C4.35 7.67 2.7 7.34 1 7 C0.34 5.02 -0.32 3.04 -1 1 C-0.67 0.67 -0.34 0.34 0 0 Z " fill="#539D31" transform="translate(124,77)"/>
<path d="M0 0 C4.75 0.75 4.75 0.75 7 3 C7 3.99 7 4.98 7 6 C1.25 7.125 1.25 7.125 -1 6 C-0.67 4.02 -0.34 2.04 0 0 Z " fill="#549E30" transform="translate(112,61)"/>
<path d="M0 0 C1.98 0 3.96 0 6 0 C6 4.724 4.776 6.299 2 10 C1.67 10 1.34 10 1 10 C0.67 6.7 0.34 3.4 0 0 Z " fill="#80C449" transform="translate(27,58)"/>
<path d="M0 0 C-0.33 0.66 -0.66 1.32 -1 2 C-2.073 1.938 -3.145 1.876 -4.25 1.812 C-8 2 -8 2 -10 3.562 C-12 5 -12 5 -15.75 4.688 C-16.286 4.574 -16.286 4.574 -19 4 C-13.155 -1.845 -7.632 -1.127 0 0 Z " fill="#2D711F" transform="translate(94,53)"/>
<path d="M0 0 C3.302 -0.578 5.319 -0.469 8.109 1.453 C11.202 4.139 13.718 6.578 16 10 C16.125 13.187 16.125 13.187 16 16 C15.732 15.443 15.464 14.886 15.188 14.312 C12.717 9.501 10.628 6.014 6 3 C2.688 2.25 2.688 2.25 0 2 C0 1.34 0 0.68 0 0 Z " fill="#215621" transform="translate(113,32)"/>
<path d="M0 0 C0.485 0.01 0.485 0.01 2.938 0.062 C2.608 2.043 2.278 4.022 1.938 6.062 C-0.043 6.062 -2.023 6.062 -4.062 6.062 C-4.105 4.396 -4.103 2.729 -4.062 1.062 C-3.062 0.062 -3.062 0.062 0 0 Z " fill="#75BA41" transform="translate(34.0625,70.9375)"/>
<path d="M0 0 C0.33 0 0.66 0 1 0 C1 2.97 1 5.94 1 9 C-3.554 9.369 -3.554 9.369 -5.812 7.5 C-6.204 7.005 -6.596 6.51 -7 6 C-5.61 3.22 -3.813 3.125 -1 2 C-0.67 1.34 -0.34 0.68 0 0 Z " fill="#39852A" transform="translate(63,43)"/>
<path d="M0 0 C3.63 1.32 7.26 2.64 11 4 C11 3.34 11 2.68 11 2 C11.66 2 12.32 2 13 2 C12.34 3.98 11.68 5.96 11 8 C6.514 6.748 3.407 5.206 0 2 C0 1.34 0 0.68 0 0 Z " fill="#9DC62D" transform="translate(46,161)"/>
<path d="M0 0 C0.66 0 1.32 0 2 0 C1.34 5.28 0.68 10.56 0 16 C-0.99 16 -1.98 16 -3 16 C-2.41 10.492 -1.433 5.351 0 0 Z " fill="#87B92C" transform="translate(88,156)"/>
<path d="M0 0 C-1.32 0.33 -2.64 0.66 -4 1 C-4.083 1.598 -4.165 2.196 -4.25 2.812 C-5 5 -5 5 -6.5 6.812 C-10.355 8.644 -13.895 7.728 -18 7 C-18 6.67 -18 6.34 -18 6 C-14.7 5.67 -11.4 5.34 -8 5 C-7.711 4.196 -7.423 3.391 -7.125 2.562 C-5.354 -1.471 -3.856 -1.157 0 0 Z " fill="#144918" transform="translate(148,129)"/>
<path d="M0 0 C1.938 0.625 1.938 0.625 4 2 C4.75 5.125 4.75 5.125 5 8 C3.68 8.33 2.36 8.66 1 9 C-0.619 6.428 -1.044 5.323 -0.625 2.25 C-0.419 1.508 -0.213 0.765 0 0 Z " fill="#4B932C" transform="translate(146,56)"/>
<path d="M0 0 C0 0.99 0 1.98 0 3 C-1.581 3.223 -3.165 3.428 -4.75 3.625 C-5.191 3.683 -5.191 3.683 -7.422 3.977 C-10.229 4.002 -11.634 3.448 -14 2 C-9.352 -0.399 -5.089 -0.2 0 0 Z " fill="#74B139" transform="translate(140,62)"/>
<path d="M0 0 C0.66 0.66 1.32 1.32 2 2 C1.67 2.495 1.67 2.495 0 5 C1.32 5.33 2.64 5.66 4 6 C3.34 7.32 2.68 8.64 2 10 C-0.438 9.625 -0.438 9.625 -3 9 C-3.33 8.34 -3.66 7.68 -4 7 C-3.67 6.01 -3.34 5.02 -3 4 C-2.34 4 -1.68 4 -1 4 C-0.67 2.68 -0.34 1.36 0 0 Z " fill="#3C932E" transform="translate(47,49)"/>
<path d="M0 0 C1.65 0 3.3 0 5 0 C5.66 1.98 6.32 3.96 7 6 C6.34 6.33 6.34 6.33 3 8 C2.67 6.68 2.34 5.36 2 4 C1.34 4 0.68 4 0 4 C0 2.68 0 1.36 0 0 Z " fill="#3B872D" transform="translate(23,78)"/>
<path d="M0 0 C0.99 0.66 1.98 1.32 3 2 C2.67 3.65 2.34 5.3 2 7 C0.35 7.33 -1.3 7.66 -3 8 C-3.369 3.446 -3.369 3.446 -1.5 1.188 C-1.005 0.796 -0.51 0.404 0 0 Z " fill="#7CC345" transform="translate(65,66)"/>
<path d="M0 0 C0.66 1.32 1.32 2.64 2 4 C0.68 4.33 -0.64 4.66 -2 5 C-2.33 6.65 -2.66 8.3 -3 10 C-3.99 10 -4.98 10 -6 10 C-6.33 10.99 -6.66 11.98 -7 13 C-7.676 11.234 -7.676 11.234 -8 9 C-6.855 7.078 -6.855 7.078 -5.188 5.25 C-4.645 4.636 -4.102 4.023 -3.543 3.391 C-2 2 -2 2 0 2 C0 1.34 0 0.68 0 0 Z " fill="#3A8032" transform="translate(30,53)"/>
<path d="M0 0 C0.66 0.66 1.32 1.32 2 2 C4.164 2.633 4.164 2.633 6.625 3.125 C7.034 3.209 7.034 3.209 9.102 3.633 C9.728 3.754 10.355 3.875 11 4 C10.67 4.66 10.34 5.32 10 6 C8.223 6.484 8.223 6.484 6.062 6.75 C5.352 6.848 4.642 6.946 3.91 7.047 C2 7 2 7 0 5 C-0.125 2.375 -0.125 2.375 0 0 Z " fill="#3E7336" transform="translate(129,44)"/>
<path d="M0 0 C0.33 1.32 0.66 2.64 1 4 C2.32 4.33 3.64 4.66 5 5 C5 5.66 5 6.32 5 7 C3.35 7.33 1.7 7.66 0 8 C-0.619 7.216 -1.237 6.433 -1.875 5.625 C-4 3 -4 3 -6 1 C-3.924 0.447 -2.156 0 0 0 Z " fill="#499529" transform="translate(121,58)"/>
<path d="M0 0 C0.33 0 0.66 0 1 0 C1.33 5.94 1.66 11.88 2 18 C1.34 18 0.68 18 0 18 C-0.33 18.66 -0.66 19.32 -1 20 C-1.381 17.674 -1.713 15.339 -2 13 C-1.67 12.67 -1.34 12.34 -1 12 C-0.766 9.984 -0.587 7.962 -0.438 5.938 C-0.354 4.833 -0.27 3.728 -0.184 2.59 C-0.123 1.735 -0.062 0.881 0 0 Z " fill="#73AC20" transform="translate(53,124)"/>
<path d="M0 0 C0.66 0.33 1.32 0.66 2 1 C0.379 2.172 -1.247 3.338 -2.875 4.5 C-3.78 5.15 -4.685 5.799 -5.617 6.469 C-8 8 -8 8 -10 8 C-10.33 8.99 -10.66 9.98 -11 11 C-11.33 10.34 -11.66 9.68 -12 9 C-11.066 6.969 -10.068 4.965 -9 3 C-8.67 3.66 -8.34 4.32 -8 5 C-7.446 4.627 -6.891 4.255 -6.32 3.871 C-5.596 3.398 -4.871 2.925 -4.125 2.438 C-3.406 1.962 -2.686 1.486 -1.945 0.996 C-1.303 0.667 -0.661 0.339 0 0 Z " fill="#3D7413" transform="translate(101,124)"/>
<path d="M0 0 C0 0.99 0 1.98 0 3 C-4.074 5.037 -6.589 5.026 -11 4 C-7.635 0.13 -5.04 0 0 0 Z " fill="#578F17" transform="translate(111,123)"/>
<path d="M0 0 C0.464 0.113 0.464 0.113 2.812 0.688 C1.493 2.338 0.172 3.987 -1.188 5.688 C-2.838 5.358 -4.487 5.028 -6.188 4.688 C-6.188 2.688 -6.188 2.688 -5.062 1 C-3.188 -0.312 -3.188 -0.312 0 0 Z " fill="#41912D" transform="translate(86.1875,75.3125)"/>
<path d="M0 0 C0.617 1.789 0.617 1.789 1 4 C0.03 5.746 -0.947 7.491 -2.008 9.184 C-3.385 11.705 -3.724 14.166 -4 17 C-4.66 16.67 -5.32 16.34 -6 16 C-5.597 9.684 -3.288 5.35 0 0 Z " fill="#1F671D" transform="translate(60,70)"/>
<path d="M0 0 C3 1 3 1 4 3 C4.66 3.33 5.32 3.66 6 4 C5.34 5.65 4.68 7.3 4 9 C3.34 9 2.68 9 2 9 C2 8.01 2 7.02 2 6 C1.01 5.67 0.02 5.34 -1 5 C-0.67 3.35 -0.34 1.7 0 0 Z " fill="#598F3D" transform="translate(67,114)"/>
<path d="M0 0 C0.495 0.33 0.495 0.33 3 2 C3.688 5.625 3.688 5.625 4 9 C2.68 9.33 1.36 9.66 0 10 C0 6.7 0 3.4 0 0 Z " fill="#24661C" transform="translate(114,85)"/>
<path d="M0 0 C2.625 0.375 2.625 0.375 5 1 C4.25 2.938 4.25 2.938 3 5 C0.875 5.75 0.875 5.75 -1 6 C-1.625 4.125 -1.625 4.125 -2 2 C-1.34 1.34 -0.68 0.68 0 0 Z " fill="#77BE45" transform="translate(73,70)"/>
<path d="M0 0 C1.32 0 2.64 0 4 0 C5.097 3.29 4.8 4.713 4 8 C2.02 7.01 0.04 6.02 -2 5 C-1.34 3.35 -0.68 1.7 0 0 Z " fill="#4C952C" transform="translate(114,34)"/>
<path d="M0 0 C2.625 0.375 2.625 0.375 5 1 C5 1.99 5 2.98 5 4 C3.02 4.66 1.04 5.32 -1 6 C-1.625 4.125 -1.625 4.125 -2 2 C-1.34 1.34 -0.68 0.68 0 0 Z " fill="#38882A" transform="translate(96,91)"/>
<path d="M0 0 C0.33 0.99 0.66 1.98 1 3 C0.072 3.433 -0.856 3.866 -1.812 4.312 C-4.472 5.72 -6.081 6.761 -8 9 C-8.66 8.67 -9.32 8.34 -10 8 C-9.67 7.01 -9.34 6.02 -9 5 C-8.34 5 -7.68 5 -7 5 C-7 4.34 -7 3.68 -7 3 C-4.69 2.01 -2.38 1.02 0 0 Z " fill="#2D7822" transform="translate(70,61)"/>
<path d="M0 0 C3.125 0.375 3.125 0.375 6 1 C3.647 3.724 1.375 4.814 -2 6 C-2 2 -2 2 0 0 Z " fill="#7EBE45" transform="translate(53,54)"/>
<path d="M0 0 C2.97 0 5.94 0 9 0 C8.67 0.99 8.34 1.98 8 3 C6.02 3.33 4.04 3.66 2 4 C1.34 2.68 0.68 1.36 0 0 Z " fill="#71B840" transform="translate(100,31)"/>
<path d="M0 0 C1.98 0 3.96 0 6 0 C4.218 2.301 2.837 3.8 -0.047 4.488 C-2.025 4.723 -4.013 4.868 -6 5 C-6 4.34 -6 3.68 -6 3 C-4.02 2.67 -2.04 2.34 0 2 C0 1.34 0 0.68 0 0 Z " fill="#7EC245" transform="translate(78,29)"/>
<path d="M0 0 C0.66 0 1.32 0 2 0 C2.66 0.99 3.32 1.98 4 3 C4.99 3.66 5.98 4.32 7 5 C6.031 6.685 5.03 8.352 4 10 C3.67 10 3.34 10 3 10 C3 8.35 3 6.7 3 5 C2.34 5 1.68 5 1 5 C0.67 3.35 0.34 1.7 0 0 Z " fill="#6FA41B" transform="translate(65,124)"/>
<path d="M0 0 C-0.33 1.32 -0.66 2.64 -1 4 C-2.485 4.165 -2.485 4.165 -10 5 C-9.67 3.68 -9.34 2.36 -9 1 C-8.402 1.206 -7.804 1.412 -7.188 1.625 C-4.013 2.169 -3.111 0 0 0 Z " fill="#1F611A" transform="translate(147,94)"/>
<path d="M0 0 C1.32 0 2.64 0 4 0 C3.427 2.867 3.139 3.861 1 6 C0.01 6 -0.98 6 -2 6 C-1.125 1.125 -1.125 1.125 0 0 Z " fill="#77B840" transform="translate(68,83)"/>
<path d="M0 0 C0.66 0 1.32 0 2 0 C1.67 2.31 1.34 4.62 1 7 C0.34 6.34 -0.32 5.68 -1 5 C-3.125 5.375 -3.125 5.375 -5 6 C-4.67 4.68 -4.34 3.36 -4 2 C-2.68 2 -1.36 2 0 2 C0 1.34 0 0.68 0 0 Z " fill="#2F8329" transform="translate(45,81)"/>
<path d="M0 0 C0.66 0 1.32 0 2 0 C2.33 1.32 2.66 2.64 3 4 C0.428 5.619 -0.677 6.044 -3.75 5.625 C-4.493 5.419 -5.235 5.213 -6 5 C-5.196 4.361 -4.391 3.721 -3.562 3.062 C-1 1 -1 1 0 0 Z " fill="#448E2C" transform="translate(80,64)"/>
<path d="M0 0 C1.698 0.252 3.385 0.576 5.062 0.938 C5.982 1.132 6.901 1.327 7.848 1.527 C8.203 1.605 8.203 1.605 10 2 C6.55 4.3 5.054 4.431 1 4 C0.34 3.01 -0.32 2.02 -1 1 C-0.67 0.67 -0.34 0.34 0 0 Z " fill="#E4DCB2" transform="translate(60,173)"/>
<path d="M0 0 C0.99 0 1.98 0 3 0 C3.66 1.65 4.32 3.3 5 5 C2.69 5 0.38 5 -2 5 C-1.125 1.125 -1.125 1.125 0 0 Z " fill="#347F25" transform="translate(103,73)"/>
<path d="M0 0 C-3.534 2.12 -6.944 2.532 -11 3 C-11 2.01 -11 1.02 -11 0 C-7.182 -1.374 -3.927 -0.68 0 0 Z " fill="#235525" transform="translate(137,137)"/>
<path d="M0 0 C1.65 0.33 3.3 0.66 5 1 C5 1.99 5 2.98 5 4 C3.02 4.99 1.04 5.98 -1 7 C-0.67 4.69 -0.34 2.38 0 0 Z " fill="#5EA738" transform="translate(84,82)"/>
<path d="M0 0 C0.361 0.124 0.361 0.124 2.188 0.75 C1.197 1.08 0.207 1.41 -0.812 1.75 C-1.142 2.41 -1.472 3.07 -1.812 3.75 C-3.793 3.75 -5.773 3.75 -7.812 3.75 C-3.505 -0.312 -3.505 -0.312 0 0 Z M-2.812 3.75 C-2.153 4.08 -2.153 4.08 1.188 5.75 C0.197 6.08 -0.792 6.41 -1.812 6.75 C-2.142 5.76 -2.472 4.77 -2.812 3.75 Z " fill="#519A31" transform="translate(57.8125,45.25)"/>
<path d="M0 0 C-9 6 -9 6 -12 6 C-11.053 3.632 -10.347 2.248 -8.25 0.75 C-5.422 -0.193 -2.96 -0.135 0 0 Z " fill="#276A2A" transform="translate(72,28)"/>
<path d="M0 0 C0.99 0 1.98 0 3 0 C2.387 2.962 1.746 4.381 0 7 C-0.66 7 -1.32 7 -2 7 C-2.125 4.625 -2.125 4.625 -2 2 C-1.34 1.34 -0.68 0.68 0 0 Z " fill="#85CA44" transform="translate(62,77)"/>
<path d="M0 0 C0.99 0 1.98 0 3 0 C2.427 2.867 2.139 3.861 0 6 C-0.99 6 -1.98 6 -3 6 C-2.427 3.133 -2.139 2.139 0 0 Z " fill="#72B645" transform="translate(44,64)"/>
<path d="M0 0 C2.938 -0.375 2.938 -0.375 6 0 C7.875 1.5 7.875 1.5 9 3 C6.69 3 4.38 3 2 3 C1.67 3.66 1.34 4.32 1 5 C1.66 5.33 2.32 5.66 3 6 C1.062 5.625 1.062 5.625 -1 5 C-1.33 4.34 -1.66 3.68 -2 3 C-1.34 2.01 -0.68 1.02 0 0 Z " fill="#4FA335" transform="translate(44,58)"/>
<path d="M0 0 C0.33 0 0.66 0 1 0 C1 2.31 1 4.62 1 7 C-1.64 6.67 -4.28 6.34 -7 6 C-7 5.34 -7 4.68 -7 4 C-5.35 4 -3.7 4 -2 4 C-1.34 2.68 -0.68 1.36 0 0 Z " fill="#236F1F" transform="translate(49,43)"/>
<path d="M0 0 C0 0.66 0 1.32 0 2 C-0.547 2.072 -0.547 2.072 -3.312 2.438 C-7 3 -7 3 -10 4 C-10.66 3.34 -11.32 2.68 -12 2 C-8.1 -0.6 -4.526 -0.151 0 0 Z " fill="#2F702D" transform="translate(85,26)"/>
<path d="M0 0 C0.66 0 1.32 0 2 0 C1.691 1.459 1.378 2.917 1.062 4.375 C0.888 5.187 0.714 5.999 0.535 6.836 C0 9 0 9 -1 11 C-1.66 11 -2.32 11 -3 11 C-2.328 7.194 -1.273 3.648 0 0 Z " fill="#BDE045" transform="translate(64,148)"/>
<path d="M0 0 C0.66 0 1.32 0 2 0 C2.66 1.32 3.32 2.64 4 4 C5.65 3.67 7.3 3.34 9 3 C8.34 4.32 7.68 5.64 7 7 C5.35 7 3.7 7 2 7 C1.34 4.69 0.68 2.38 0 0 Z " fill="#135316" transform="translate(47,101)"/>
<path d="M0 0 C0 2.31 0 4.62 0 7 C-0.33 6.01 -0.66 5.02 -1 4 C-2.32 4 -3.64 4 -5 4 C-5 4.66 -5 5.32 -5 6 C-5.66 5.67 -6.32 5.34 -7 5 C-6.67 4.01 -6.34 3.02 -6 2 C-1.789 0 -1.789 0 0 0 Z " fill="#55A438" transform="translate(29,69)"/>
<path d="M0 0 C-0.33 1.32 -0.66 2.64 -1 4 C-3.31 4.33 -5.62 4.66 -8 5 C-8 4.01 -8 3.02 -8 2 C-5.094 0.743 -3.204 0 0 0 Z " fill="#72B339" transform="translate(91,62)"/>
<path d="M0 0 C-1.32 1.32 -2.64 2.64 -4 4 C-4.99 3.67 -5.98 3.34 -7 3 C-7 2.01 -7 1.02 -7 0 C-3.867 -1.044 -3.01 -0.934 0 0 Z " fill="#398426" transform="translate(91,41)"/>
<path d="M0 0 C0.99 0.99 1.98 1.98 3 3 C2.01 5.97 1.02 8.94 0 12 C-0.33 12 -0.66 12 -1 12 C-1.143 3.429 -1.143 3.429 0 0 Z " fill="#E9E3BF" transform="translate(92,158)"/>
<path d="M0 0 C0.688 1.688 0.688 1.688 1 4 C-0.312 6.75 -0.312 6.75 -2 9 C-2.66 9 -3.32 9 -4 9 C-3.469 5.179 -2.503 2.938 0 0 Z " fill="#D5EB71" transform="translate(54,153)"/>
<path d="M0 0 C-0.33 1.65 -0.66 3.3 -1 5 C-2.65 4.67 -4.3 4.34 -6 4 C-5.67 3.01 -5.34 2.02 -5 1 C-3 0 -3 0 0 0 Z " fill="#BFDE52" transform="translate(76,131)"/>
<path d="M0 0 C3.564 -0.081 6.566 0.114 10 1 C11.666 1.038 13.334 1.046 15 1 C9.857 3.755 9.857 3.755 7 4 C4.55 3.174 2.339 2.125 0 1 C0 0.67 0 0.34 0 0 Z " fill="#19571D" transform="translate(86,28)"/>
<path d="M0 0 C0.66 0 1.32 0 2 0 C1.01 2.97 0.02 5.94 -1 9 C-1.66 9 -2.32 9 -3 9 C-2.502 5.265 -2.125 3.188 0 0 Z " fill="#4A8721" transform="translate(94,149)"/>
<path d="M0 0 C1.155 0.495 1.155 0.495 7 3 C7 3.99 7 4.98 7 6 C6.34 6 5.68 6 5 6 C5 5.01 5 4.02 5 3 C2.69 3.33 0.38 3.66 -2 4 C-1.34 2.68 -0.68 1.36 0 0 Z " fill="#A2C53B" transform="translate(52,145)"/>
<path d="M0 0 C0 0.66 0 1.32 0 2 C-5.273 5.223 -5.273 5.223 -7 6 C-7.66 5.67 -8.32 5.34 -9 5 C-4.5 0 -4.5 0 0 0 Z " fill="#BED1AC" transform="translate(103,122)"/>
<path d="M0 0 C0.825 0.165 0.825 0.165 5 1 C5.33 2.65 5.66 4.3 6 6 C4.125 5.812 4.125 5.812 2 5 C0.75 2.438 0.75 2.438 0 0 Z " fill="#317E28" transform="translate(33,89)"/>
<path d="M0 0 C0.66 0.33 1.32 0.66 2 1 C1.67 3.64 1.34 6.28 1 9 C0.34 8.67 -0.32 8.34 -1 8 C-1.042 5.667 -1.041 3.333 -1 1 C-0.67 0.67 -0.34 0.34 0 0 Z " fill="#246121" transform="translate(18,87)"/>
<path d="M0 0 C0 1.98 0 3.96 0 6 C-1.32 6 -2.64 6 -4 6 C-4.33 5.01 -4.66 4.02 -5 3 C-1.125 0 -1.125 0 0 0 Z " fill="#60B13C" transform="translate(41,58)"/>
<path d="M0 0 C-0.33 1.32 -0.66 2.64 -1 4 C-1.619 3.649 -2.237 3.299 -2.875 2.938 C-3.226 2.783 -3.226 2.783 -5 2 C-5.33 2.165 -5.33 2.165 -7 3 C-7.66 2.34 -8.32 1.68 -9 1 C-6.043 -0.478 -3.258 -0.06 0 0 Z " fill="#57A438" transform="translate(47,49)"/>
<path d="M0 0 C1.32 0.33 2.64 0.66 4 1 C1.03 2.98 -1.94 4.96 -5 7 C-5 6.01 -5 5.02 -5 4 C-2.75 1.75 -2.75 1.75 0 0 Z " fill="#4C7C2B" transform="translate(107,135)"/>
<path d="M0 0 C0.66 0 1.32 0 2 0 C2.062 0.402 2.062 0.402 2.375 2.438 C2.581 3.283 2.787 4.129 3 5 C3.66 5.33 4.32 5.66 5 6 C5.33 5.01 5.66 4.02 6 3 C5.67 4.65 5.34 6.3 5 8 C3.68 7.67 2.36 7.34 1 7 C0.67 4.69 0.34 2.38 0 0 Z " fill="#2F6911" transform="translate(67,120)"/>
<path d="M0 0 C2 3 2 3 1.938 5 C0.62 7.812 -1.296 8.613 -4 10 C-3.711 9.464 -3.422 8.927 -3.125 8.375 C-1.833 5.647 -0.914 2.874 0 0 Z " fill="#27722B" transform="translate(21,68)"/>
<path d="M0 0 C0.33 0.99 0.66 1.98 1 3 C-0.98 3.66 -2.96 4.32 -5 5 C-5.33 4.01 -5.66 3.02 -6 2 C-4.02 1.34 -2.04 0.68 0 0 Z " fill="#5FA336" transform="translate(72,63)"/>
<path d="M0 0 C1.65 0 3.3 0 5 0 C5 1.32 5 2.64 5 4 C3.68 4 2.36 4 1 4 C0.67 2.68 0.34 1.36 0 0 Z " fill="#76B53D" transform="translate(93,54)"/>
<path d="M0 0 C1.65 0 3.3 0 5 0 C4.34 1.32 3.68 2.64 3 4 C1.68 4 0.36 4 -1 4 C-0.67 2.68 -0.34 1.36 0 0 Z " fill="#7EC346" transform="translate(49,50)"/>
<path d="M0 0 C1.354 1.312 2.687 2.646 4 4 C4 4.33 4 4.66 4 5 C1.69 5 -0.62 5 -3 5 C-3.33 4.34 -3.66 3.68 -4 3 C-2.68 3 -1.36 3 0 3 C0 2.01 0 1.02 0 0 Z " fill="#46932C" transform="translate(100,36)"/>
<path d="M0 0 C0 0.66 0 1.32 0 2 C-6.625 2.25 -6.625 2.25 -10 0 C-3.375 -1.125 -3.375 -1.125 0 0 Z " fill="#F0E4C9" transform="translate(60,174)"/>
<path d="M0 0 C1.65 0 3.3 0 5 0 C3.25 3.875 3.25 3.875 1 5 C0.67 4.34 0.34 3.68 0 3 C-0.33 3.165 -0.33 3.165 -2 4 C-1.34 2.68 -0.68 1.36 0 0 Z " fill="#B5D740" transform="translate(51,148)"/>
<path d="M0 0 C0.66 0.33 1.32 0.66 2 1 C1.67 2.65 1.34 4.3 1 6 C-0.98 5.34 -2.96 4.68 -5 4 C-4.361 3.711 -3.721 3.422 -3.062 3.125 C-1 2 -1 2 0 0 Z " fill="#5FAC36" transform="translate(67,71)"/>
<path d="M0 0 C0.66 0.33 1.32 0.66 2 1 C2 1.66 2 2.32 2 3 C2.66 3.33 3.32 3.66 4 4 C2.68 5.32 1.36 6.64 0 8 C-1.125 2.25 -1.125 2.25 0 0 Z " fill="#4D9A2F" transform="translate(64,47)"/>
<path d="M0 0 C0.99 0.33 1.98 0.66 3 1 C2.34 1.99 2.34 1.99 -1 7 C-1.625 5.188 -1.625 5.188 -2 3 C-1.34 2.01 -0.68 1.02 0 0 Z " fill="#59A33C" transform="translate(49,75)"/>
<path d="M0 0 C0 0.66 0 1.32 0 2 C0.66 2.33 1.32 2.66 2 3 C-4.055 3.977 -4.055 3.977 -6 4 C-6.66 3.34 -7.32 2.68 -8 2 C-2.25 0 -2.25 0 0 0 Z " fill="#5D9C2E" transform="translate(122,48)"/>
<path d="M0 0 C0.66 0.33 1.32 0.66 2 1 C2 2.32 2 3.64 2 5 C1.01 4.835 1.01 4.835 -4 4 C-2.68 2.68 -1.36 1.36 0 0 Z " fill="#66AF38" transform="translate(60,41)"/>
<path d="M0 0 C2.31 0.66 4.62 1.32 7 2 C7 3.32 7 4.64 7 6 C4.506 4.796 2.319 3.546 0 2 C0 1.34 0 0.68 0 0 Z " fill="#8EB928" transform="translate(46,161)"/>
<path d="M0 0 C2.569 1.284 2.947 2.366 4 5 C4 6.32 4 7.64 4 9 C3.34 8.67 2.68 8.34 2 8 C2.33 7.34 2.66 6.68 3 6 C2.01 5.67 1.02 5.34 0 5 C-0.33 4.01 -0.66 3.02 -1 2 C-0.67 1.34 -0.34 0.68 0 0 Z " fill="#236114" transform="translate(112,123)"/>
<path d="M0 0 C1.98 0 3.96 0 6 0 C6.33 0.66 6.66 1.32 7 2 C6.062 4.125 6.062 4.125 5 6 C4.959 5.691 4.959 5.691 4.75 4.125 C4 2 4 2 1.938 0.75 C1.298 0.502 0.659 0.255 0 0 Z " fill="#428D30" transform="translate(19,87)"/>
<path d="M0 0 C1.32 0 2.64 0 4 0 C3.67 1.65 3.34 3.3 3 5 C2.34 5 1.68 5 1 5 C0.67 3.35 0.34 1.7 0 0 Z " fill="#82C447" transform="translate(24,73)"/>
<path d="M0 0 C0 0.66 0 1.32 0 2 C-1.32 2.33 -2.64 2.66 -4 3 C-4 3.66 -4 4.32 -4 5 C-4.99 4.67 -5.98 4.34 -7 4 C-3.375 0 -3.375 0 0 0 Z " fill="#358328" transform="translate(38,65)"/>
<path d="M0 0 C1.938 0.312 1.938 0.312 4 1 C4.33 1.99 4.66 2.98 5 4 C3.35 3.67 1.7 3.34 0 3 C0 2.01 0 1.02 0 0 Z " fill="#6EB435" transform="translate(123,58)"/>
<path d="M0 0 C1.65 0 3.3 0 5 0 C5 1.32 5 2.64 5 4 C3.062 3.688 3.062 3.688 1 3 C0.67 2.01 0.34 1.02 0 0 Z " fill="#6AB13C" transform="translate(95,35)"/>
</svg>
