<?xml version="1.0" encoding="UTF-8"?>
<svg xmlns="http://www.w3.org/2000/svg" viewBox="0 0 164 164" role="img" aria-label="韭菜">
  <rect width="164" height="164" rx="0" fill="#fcf7ea"/>
  <ellipse cx="82" cy="142" rx="52" ry="9" fill="#eadfc8" opacity=".55"/>
  <g stroke-linecap="round" stroke-linejoin="round">
    <path d="M62 138 C62 103 55 72 46 29" stroke="#2f7f17" stroke-width="12" fill="none"/>
    <path d="M72 139 C70 101 70 67 68 21" stroke="#398e1c" stroke-width="11" fill="none"/>
    <path d="M82 140 C84 101 88 65 96 18" stroke="#2c7b16" stroke-width="12" fill="none"/>
    <path d="M93 139 C101 101 111 72 128 31" stroke="#3f941f" stroke-width="11" fill="none"/>
    <path d="M104 139 C114 108 125 82 145 49" stroke="#2b7318" stroke-width="10" fill="none"/>
    <path d="M55 139 C49 111 39 83 22 49" stroke="#489d23" stroke-width="10" fill="none"/>
    <path d="M83 139 C76 106 75 79 78 45" stroke="#56ae2b" stroke-width="5" fill="none" opacity=".8"/>
    <path d="M95 137 C104 105 113 78 126 48" stroke="#5ab333" stroke-width="4" fill="none" opacity=".7"/>
    <path d="M65 136 C60 104 55 80 48 48" stroke="#5ab333" stroke-width="4" fill="none" opacity=".75"/>
  </g>
  <g>
    <path d="M48 134 C62 128 91 128 114 135 C106 146 62 148 48 134Z" fill="#eef0c9"/>
    <path d="M54 135 C70 132 94 132 110 137 C96 142 68 142 54 135Z" fill="#d9df98"/>
    <path d="M56 144 C52 148 48 151 43 153" stroke="#d5a95c" stroke-width="5" stroke-linecap="round"/>
    <path d="M72 145 C69 150 66 154 62 158" stroke="#d5a95c" stroke-width="5" stroke-linecap="round"/>
    <path d="M90 145 C90 150 90 154 91 159" stroke="#d5a95c" stroke-width="5" stroke-linecap="round"/>
    <path d="M108 143 C112 148 116 151 121 154" stroke="#d5a95c" stroke-width="5" stroke-linecap="round"/>
  </g>
  <g opacity=".22">
    <path d="M42 40 C57 66 64 103 66 135" stroke="#ffffff" stroke-width="3" stroke-linecap="round"/>
    <path d="M92 26 C88 61 84 98 84 134" stroke="#ffffff" stroke-width="3" stroke-linecap="round"/>
    <path d="M129 49 C113 81 103 108 97 135" stroke="#ffffff" stroke-width="3" stroke-linecap="round"/>
  </g>
</svg>
