<?xml version="1.0" encoding="UTF-8"?>
<!-- Generator: visioncortex VTracer 0.6.12 -->
<svg version="1.1" xmlns="http://www.w3.org/2000/svg" width="164" height="185">
<path d="M0 0 C54.12 0 108.24 0 164 0 C164 61.05 164 122.1 164 185 C109.88 185 55.76 185 0 185 C0 123.95 0 62.9 0 0 Z " fill="#FCF6EA" transform="translate(0,0)"/>
<path d="M0 0 C3.795 0.949 5.524 1.674 8 4.75 C8.448 11.466 5.759 17.391 2.938 23.312 C2.56 24.13 2.183 24.948 1.795 25.791 C0.875 27.783 -0.057 29.769 -1 31.75 C-0.649 31.363 -0.649 31.363 1.125 29.406 C15.93 13.13 15.93 13.13 21 9.75 C25.315 9.75 26.721 10.483 29.875 13.5 C32.108 16.915 32.536 17.843 32 21.75 C30.594 23.828 30.594 23.828 28.5 26 C27.697 26.848 26.894 27.696 26.066 28.57 C25.596 29.057 25.126 29.543 24.641 30.044 C22.69 32.073 20.764 34.125 18.84 36.18 C14.904 40.38 10.955 44.568 7 48.75 C7.382 48.441 7.382 48.441 9.312 46.875 C14.529 42.75 14.529 42.75 18 42.75 C18 43.74 18 44.73 18 45.75 C18.447 45.377 18.895 45.005 19.355 44.621 C24.234 40.803 24.234 40.803 27.688 40.562 C31.065 42.297 32.269 44.417 34 47.75 C34.688 50.25 34.688 50.25 34 52.75 C29.339 57.639 23.587 61.044 17.967 64.73 C10.986 69.345 4.469 74.45 -2 79.75 C-2.544 80.19 -3.088 80.629 -3.649 81.083 C-19.32 93.798 -34.469 108.121 -46 124.75 C-46.663 122.969 -46.663 122.969 -47 120.75 C-45.984 118.998 -45.984 118.998 -44.395 117.254 C-44.109 116.933 -44.109 116.933 -42.662 115.311 C-42.052 114.651 -41.441 113.992 -40.812 113.312 C-39.631 112.002 -38.45 110.691 -37.27 109.379 C-36.987 109.07 -36.987 109.07 -35.557 107.504 C-34.207 105.983 -32.944 104.386 -31.699 102.777 C-31.138 102.108 -30.578 101.439 -30 100.75 C-29.34 100.75 -28.68 100.75 -28 100.75 C-27.711 100.131 -27.422 99.513 -27.125 98.875 C-26 96.75 -26 96.75 -24 94.75 C-24.375 92.125 -24.375 92.125 -25 89.75 C-29.98 91.259 -33.243 94.307 -37 97.75 C-35.36 93.082 -35.36 93.082 -33.375 91.25 C-32.921 90.755 -32.468 90.26 -32 89.75 C-32.045 88.978 -32.09 88.206 -32.137 87.41 C-31.96 83.965 -30.858 83.07 -28.438 80.688 C-26.434 78.715 -26.434 78.715 -25 76.75 C-25.18 76.12 -25.361 75.491 -25.546 74.842 C-26 72.75 -26 72.75 -25.171 71.033 C-24.726 70.467 -24.282 69.9 -23.824 69.316 C-23.331 68.674 -22.838 68.031 -22.329 67.369 C-21.788 66.691 -21.246 66.012 -20.688 65.312 C-20.139 64.606 -19.59 63.9 -19.024 63.172 C-17.897 61.721 -16.765 60.275 -15.628 58.832 C-14.155 56.948 -12.714 55.045 -11.289 53.125 C-6.329 46.468 -1.07 40.424 5 34.75 C-1.569 39.676 -7.069 45.444 -12.062 51.938 C-14.356 54.888 -16.332 57.205 -19.5 59.188 C-23.862 61.949 -26.351 66.109 -29.203 70.324 C-31 72.75 -31 72.75 -34 74.75 C-33.34 72.77 -32.68 70.79 -32 68.75 C-34.996 69.072 -36.563 69.287 -38.669 71.516 C-39.146 72.265 -39.622 73.014 -40.113 73.785 C-40.639 74.594 -41.164 75.403 -41.705 76.236 C-42.236 77.086 -42.766 77.937 -43.312 78.812 C-43.862 79.667 -44.412 80.521 -44.979 81.4 C-46.333 83.509 -47.673 85.625 -49 87.75 C-49.165 87.42 -49.165 87.42 -50 85.75 C-49.109 83.938 -49.109 83.938 -47.75 81.75 C-45.809 78.427 -44.488 75.405 -43.5 71.688 C-42.562 68.2 -41.415 65.604 -39.375 62.625 C-36.685 58.667 -36.254 55.496 -36 50.75 C-39.533 56.97 -42.637 62.998 -45 69.75 C-45.968 72.098 -46.982 74.423 -48 76.75 C-48.66 76.75 -49.32 76.75 -50 76.75 C-50.248 77.615 -50.495 78.48 -50.75 79.371 C-52.085 82.981 -53.793 85.668 -56 88.812 C-59.82 94.269 -59.82 94.269 -60.938 97.258 C-62.377 100.635 -64.52 102.87 -67 105.562 C-67.887 106.538 -68.774 107.514 -69.688 108.52 C-72 110.75 -72 110.75 -74 110.75 C-72.999 107.192 -71.401 104.965 -68.938 102.312 C-59.857 92.234 -53.664 79.973 -48 67.75 C-47.633 66.961 -47.267 66.173 -46.889 65.36 C-40.249 50.929 -34.678 36.137 -29.29 21.204 C-29.02 20.46 -28.75 19.717 -28.471 18.951 C-27.96 17.544 -27.454 16.136 -26.953 14.725 C-25.915 11.871 -25.175 9.925 -23 7.75 C-17.763 7.193 -17.763 7.193 -15.293 8.996 C-14 10.75 -14 10.75 -13.891 12.836 C-14.009 13.591 -14.128 14.347 -14.25 15.125 C-14.358 15.875 -14.467 16.625 -14.578 17.398 C-15.019 19.856 -15.499 22.304 -16 24.75 C-15.481 23.688 -14.961 22.626 -14.426 21.531 C-12.321 17.252 -10.169 12.997 -8 8.75 C-7.763 8.281 -7.763 8.281 -6.566 5.906 C-4.725 2.575 -3.783 0.946 0 0 Z " fill="#387621" transform="translate(107,17.25)"/>
<path d="M0 0 C0 3 0 3 -1.871 5.059 C-2.718 5.844 -3.565 6.629 -4.438 7.438 C-9.497 12.355 -13.652 17.563 -17.752 23.291 C-19.15 25.206 -20.593 27.081 -22.043 28.957 C-23.07 30.305 -24.098 31.652 -25.125 33 C-25.374 33.318 -25.374 33.318 -26.635 34.925 C-28.008 36.75 -28.008 36.75 -30 40 C-29.7 41.341 -29.369 42.676 -29 44 C-30.615 46.214 -32.482 47.982 -34.434 49.902 C-36.374 52.501 -36.086 53.834 -36 57 C-37.408 59.319 -39.136 60.997 -41 63 C-38.561 61.074 -36.199 59.199 -34 57 C-32.68 57 -31.36 57 -30 57 C-30 58.32 -30 59.64 -30 61 C-29.34 61.33 -28.68 61.66 -28 62 C-31.169 65.893 -34.448 69.448 -38 73 C-41.041 76.297 -44.049 79.622 -47 83 C-47.752 83.825 -48.503 84.65 -49.277 85.5 C-51.278 88.403 -51.098 89.579 -51 93 C-52.18 95.184 -52.18 95.184 -53.875 97.438 C-54.508 98.293 -55.141 99.149 -55.793 100.031 C-56.521 101.011 -57.25 101.991 -58 103 C-58.854 104.216 -59.704 105.435 -60.551 106.656 C-60.987 107.282 -61.424 107.908 -61.874 108.553 C-62.735 109.788 -63.593 111.025 -64.447 112.265 C-66.656 115.397 -68.655 118.063 -72 120 C-75.25 120.188 -75.25 120.188 -78 120 C-78 121.98 -78 123.96 -78 126 C-79.32 125.67 -80.64 125.34 -82 125 C-82 123.68 -82 122.36 -82 121 C-82.66 121 -83.32 121 -84 121 C-84 122.65 -84 124.3 -84 126 C-84.66 126.165 -84.66 126.165 -88 127 C-88.99 124.36 -89.98 121.72 -91 119 C-91.66 120.32 -92.32 121.64 -93 123 C-94.32 122.67 -95.64 122.34 -97 122 C-96.67 120.02 -96.34 118.04 -96 116 C-98.64 116.33 -101.28 116.66 -104 117 C-102.951 114.378 -102.351 113.206 -99.875 111.75 C-99.566 111.626 -99.566 111.626 -98 111 C-98 110.34 -98 109.68 -98 109 C-99.98 109 -101.96 109 -104 109 C-104.33 108.01 -104.66 107.02 -105 106 C-102.36 105.67 -99.72 105.34 -97 105 C-97.124 103.866 -97.248 102.731 -97.375 101.562 C-97.293 92.197 -88.74 85.393 -82.586 79.188 C-80.025 77.022 -79.075 76.752 -76 76 C-70.488 71.013 -66.714 65.908 -64 59 C-62.278 56.419 -60.471 53.92 -58.621 51.43 C-57.011 49.017 -55.974 46.723 -55 44 C-54.34 44 -53.68 44 -53 44 C-52.752 43.031 -52.505 42.061 -52.25 41.062 C-50.94 36.499 -49.028 32.284 -47 28 C-46.571 27.089 -46.141 26.177 -45.699 25.238 C-42.262 18.131 -42.262 18.131 -40 17 C-40.222 23.886 -41.776 27.717 -45.512 33.449 C-47.414 36.71 -48.362 39.931 -49.262 43.578 C-50.176 46.579 -51.545 49.227 -53 52 C-52.846 51.758 -52.846 51.758 -52.07 50.531 C-50.668 48.342 -49.241 46.171 -47.812 44 C-47.33 43.237 -46.847 42.474 -46.35 41.688 C-44.992 39.647 -43.7 37.766 -42 36 C-39.137 35.5 -39.137 35.5 -37 36 C-37.33 37.65 -37.66 39.3 -38 41 C-37.469 40.336 -36.938 39.672 -36.391 38.988 C-34.26 36.326 -32.13 33.663 -30 31 C-29.319 30.111 -28.639 29.221 -27.938 28.305 C-26 26 -26 26 -22.75 23.812 C-18.742 21.087 -16.189 17.603 -13.266 13.781 C-9.226 8.823 -4.593 4.441 0 0 Z " fill="#B5D94C" transform="translate(112,50)"/>
<path d="M0 0 C3.377 1.734 4.582 3.854 6.312 7.188 C7 9.688 7 9.688 6.312 12.188 C1.651 17.076 -4.1 20.482 -9.721 24.167 C-16.701 28.783 -23.218 33.887 -29.688 39.188 C-30.232 39.627 -30.776 40.067 -31.336 40.52 C-47.008 53.236 -62.157 67.559 -73.688 84.188 C-74.35 82.406 -74.35 82.406 -74.688 80.188 C-73.671 78.436 -73.671 78.436 -72.082 76.691 C-71.796 76.371 -71.796 76.371 -70.35 74.748 C-69.739 74.089 -69.129 73.429 -68.5 72.75 C-67.318 71.439 -66.137 70.128 -64.957 68.816 C-64.392 68.198 -63.827 67.579 -63.245 66.942 C-61.895 65.421 -60.632 63.823 -59.387 62.215 C-58.826 61.546 -58.265 60.877 -57.688 60.188 C-57.028 60.188 -56.368 60.188 -55.688 60.188 C-55.543 59.878 -55.543 59.878 -54.812 58.312 C-53.688 56.188 -53.688 56.188 -51.688 54.188 C-52.062 51.562 -52.062 51.562 -52.688 49.188 C-54.338 49.188 -55.987 49.188 -57.688 49.188 C-56.189 43.759 -52.45 40.472 -48.625 36.562 C-44.285 32.038 -40.027 27.539 -36.125 22.625 C-30.406 15.432 -24.008 8.849 -17.688 2.188 C-17.688 5.705 -18.512 6.559 -20.688 9.188 C-20.416 8.935 -20.416 8.935 -19.043 7.656 C-18.685 7.331 -18.685 7.331 -16.875 5.688 C-16.521 5.363 -16.521 5.363 -14.73 3.719 C-12.688 2.188 -12.688 2.188 -9.688 2.188 C-9.688 3.178 -9.688 4.167 -9.688 5.188 C-9.24 4.815 -8.793 4.442 -8.332 4.059 C-3.453 0.241 -3.453 0.241 0 0 Z " fill="#2E7714" transform="translate(134.6875,57.8125)"/>
<path d="M0 0 C0 3.463 -0.509 3.836 -2.562 6.438 C-5.08 10.22 -5.054 12.159 -4.188 16.562 C-3.136 24.195 -6.94 28.582 -11.289 34.434 C-11.751 35.038 -12.213 35.642 -12.688 36.265 C-14.511 38.676 -16.185 41.182 -17.875 43.688 C-20.002 46.782 -22.177 49.506 -25 52 C-27.75 52.25 -27.75 52.25 -30 52 C-30.33 50.68 -30.66 49.36 -31 48 C-31.361 48.031 -31.361 48.031 -33.188 48.188 C-36.553 47.963 -38.235 46.868 -41 45 C-41.66 44.67 -42.32 44.34 -43 44 C-42.78 33.666 -34.292 27.099 -27.352 20.328 C-24.549 17.589 -21.94 14.817 -19.5 11.75 C-18.675 10.843 -17.85 9.935 -17 9 C-13 9 -13 9 -10.188 9.562 C-5.469 8.73 -4.011 5.742 -1.32 1.969 C-0.885 1.319 -0.449 0.669 0 0 Z " fill="#FCFBEF" transform="translate(60,109)"/>
<path d="M0 0 C0.34 0.155 0.34 0.155 2.062 0.938 C2.836 3.148 2.836 3.148 3.062 5.938 C1.227 8.289 1.227 8.289 -1.312 10.562 C-5.852 14.68 -5.852 14.68 -6.938 17.938 C-5.947 17.608 -4.958 17.278 -3.938 16.938 C-4.688 21.688 -4.688 21.688 -6.938 23.938 C-7.082 24.34 -7.082 24.34 -7.812 26.375 C-9.144 29.409 -10.215 30.098 -12.938 31.938 C-17.921 35.874 -22.115 40.206 -26.188 45.062 C-27.319 46.391 -28.452 47.717 -29.586 49.043 C-30.146 49.698 -30.707 50.354 -31.284 51.029 C-33.739 53.862 -36.267 56.623 -38.812 59.375 C-39.696 60.334 -40.579 61.293 -41.488 62.281 C-43.026 63.949 -44.565 65.616 -46.105 67.281 C-49.272 70.781 -51.237 73.515 -52.938 77.938 C-57.754 84.346 -57.754 84.346 -60.938 85.938 C-59.297 81.27 -59.297 81.27 -57.312 79.438 C-56.859 78.942 -56.405 78.448 -55.938 77.938 C-55.983 77.165 -56.028 76.393 -56.074 75.598 C-55.897 72.152 -54.795 71.257 -52.375 68.875 C-50.371 66.902 -50.371 66.902 -48.938 64.938 C-49.118 64.308 -49.298 63.678 -49.484 63.029 C-49.938 60.938 -49.938 60.938 -49.108 59.221 C-48.664 58.654 -48.22 58.088 -47.762 57.504 C-47.268 56.861 -46.775 56.219 -46.267 55.557 C-45.725 54.878 -45.183 54.199 -44.625 53.5 C-44.351 53.147 -44.351 53.147 -42.962 51.359 C-41.834 49.909 -40.702 48.462 -39.565 47.02 C-38.092 45.135 -36.652 43.233 -35.227 41.312 C-30.266 34.656 -25.007 28.611 -18.938 22.938 C-26.449 28.571 -32.439 35.299 -37.98 42.836 C-40.159 45.175 -41.917 45.988 -44.938 46.938 C-41.199 40.868 -37 35.58 -32.164 30.348 C-30.185 28.206 -28.272 26.026 -26.375 23.812 C-22.755 19.656 -18.871 15.796 -14.938 11.938 C-14.092 11.092 -13.246 10.246 -12.375 9.375 C-11.571 8.571 -10.766 7.766 -9.938 6.938 C-9.382 6.312 -8.826 5.687 -8.254 5.043 C-3.559 -0.076 -3.559 -0.076 0 0 Z " fill="#387B19" transform="translate(130.9375,29.0625)"/>
<path d="M0 0 C0.66 0.66 1.32 1.32 2 2 C1.252 2.724 0.505 3.449 -0.266 4.195 C-1.261 5.172 -2.255 6.148 -3.25 7.125 C-3.741 7.599 -4.232 8.074 -4.738 8.562 C-8.904 12.673 -12.85 17.04 -14.25 22.875 C-14.498 23.906 -14.745 24.938 -15 26 C-14.567 26.144 -14.567 26.144 -12.375 26.875 C-11.261 27.246 -10.148 27.618 -9 28 C-7.907 28.309 -6.814 28.619 -5.688 28.938 C-5.244 29.113 -5.244 29.113 -3 30 C-2.67 30.99 -2.34 31.98 -2 33 C2.486 33.366 2.486 33.366 4.668 31.812 C7.578 28.342 10.152 24.817 12.496 20.941 C12.931 20.223 13.366 19.504 13.814 18.764 C14.68 17.31 15.529 15.847 16.36 14.373 C19.386 9.231 19.386 9.231 22.66 8 C24.968 8 26.814 8.271 29 9 C29.755 13.96 29.024 16.455 26.125 20.562 C24.754 22.378 23.378 24.19 22 26 C21.144 27.212 20.294 28.429 19.449 29.648 C19.231 29.962 19.231 29.962 18.126 31.549 C17.266 32.786 16.408 34.025 15.553 35.266 C13.343 38.397 11.345 41.063 8 43 C4.75 43.188 4.75 43.188 2 43 C2 44.98 2 46.96 2 49 C0.68 48.67 -0.64 48.34 -2 48 C-2 46.68 -2 45.36 -2 44 C-2.66 44 -3.32 44 -4 44 C-4 45.65 -4 47.3 -4 49 C-4.66 49.165 -4.66 49.165 -8 50 C-8.99 47.36 -9.98 44.72 -11 42 C-11.66 43.32 -12.32 44.64 -13 46 C-14.32 45.67 -15.64 45.34 -17 45 C-16.835 44.01 -16.835 44.01 -16 39 C-18.64 39.33 -21.28 39.66 -24 40 C-22.951 37.378 -22.351 36.206 -19.875 34.75 C-19.256 34.502 -18.637 34.255 -18 34 C-18 33.34 -18 32.68 -18 32 C-19.98 32 -21.96 32 -24 32 C-24.33 31.01 -24.66 30.02 -25 29 C-23.68 28.835 -23.68 28.835 -17 28 C-17.124 26.866 -17.247 25.731 -17.375 24.562 C-17.302 16.19 -10.695 10.486 -5.125 4.938 C-3.429 3.278 -1.719 1.636 0 0 Z " fill="#C49133" transform="translate(32,127)"/>
<path d="M0 0 C0 3 0 3 -1.871 5.059 C-2.718 5.844 -3.565 6.629 -4.438 7.438 C-9.497 12.355 -13.652 17.563 -17.752 23.291 C-19.15 25.206 -20.593 27.081 -22.043 28.957 C-23.07 30.305 -24.098 31.652 -25.125 33 C-25.623 33.635 -26.121 34.27 -26.635 34.925 C-28.008 36.75 -28.008 36.75 -30 40 C-29.7 41.341 -29.369 42.676 -29 44 C-30.615 46.214 -32.482 47.982 -34.434 49.902 C-36.374 52.501 -36.086 53.834 -36 57 C-37.408 59.319 -39.136 60.997 -41 63 C-38.561 61.074 -36.199 59.199 -34 57 C-32.68 57 -31.36 57 -30 57 C-30 58.32 -30 59.64 -30 61 C-29.34 61.33 -28.68 61.66 -28 62 C-31.169 65.893 -34.448 69.448 -38 73 C-40.288 75.518 -42.555 78.055 -44.816 80.598 C-45.537 81.39 -46.258 82.183 -47 83 C-47.674 83.767 -48.348 84.534 -49.043 85.324 C-51 87 -51 87 -54.75 86.75 C-55.286 86.626 -55.286 86.626 -58 86 C-57.566 83.067 -56.899 81.881 -54.938 79.562 C-53 77 -53 77 -53.156 74.777 C-52.93 70.765 -50.818 68.179 -48.562 65 C-48.116 64.352 -47.67 63.703 -47.209 63.035 C-45.816 61.016 -44.408 59.008 -43 57 C-42.109 55.711 -41.22 54.42 -40.332 53.129 C-38.232 50.078 -36.12 47.037 -34 44 C-34.165 43.835 -34.165 43.835 -35 43 C-35.66 43.99 -36.32 44.98 -37 46 C-37.66 45.67 -38.32 45.34 -39 45 C-39.99 45.99 -40.98 46.98 -42 48 C-42.66 47.67 -43.32 47.34 -44 47 C-42.024 44.366 -40.221 42.168 -37.594 40.164 C-34.838 37.865 -33.169 35.604 -31.188 32.625 C-28.144 28.303 -25.318 25.513 -20.988 22.57 C-17.839 20.083 -15.652 16.921 -13.23 13.746 C-9.209 8.795 -4.58 4.429 0 0 Z " fill="#7EB72A" transform="translate(112,50)"/>
<path d="M0 0 C54.12 0 108.24 0 164 0 C164 61.05 164 122.1 164 185 C163.34 185 162.68 185 162 185 C162.001 184.086 162.002 183.173 162.003 182.231 C162.025 160.015 162.041 137.799 162.052 115.582 C162.057 104.839 162.064 94.095 162.075 83.352 C162.085 73.989 162.092 64.627 162.094 55.264 C162.095 50.305 162.098 45.347 162.106 40.388 C162.113 35.722 162.115 31.057 162.113 26.392 C162.113 24.678 162.115 22.964 162.119 21.25 C162.124 18.913 162.123 16.576 162.12 14.239 C162.121 12.93 162.122 11.621 162.123 10.272 C162.024 7.628 161.796 5.502 161 3 C140.304 2.977 119.607 2.959 98.911 2.948 C89.301 2.943 79.692 2.936 70.083 2.925 C61.71 2.915 53.337 2.908 44.964 2.906 C40.529 2.905 36.093 2.902 31.658 2.894 C27.486 2.888 23.315 2.885 19.144 2.887 C17.61 2.887 16.075 2.885 14.541 2.881 C12.453 2.876 10.365 2.877 8.277 2.88 C7.106 2.879 5.935 2.878 4.729 2.877 C2 3 2 3 0 4 C0 2.68 0 1.36 0 0 Z " fill="#FEFDFA" transform="translate(0,0)"/>
<path d="M0 0 C3.594 -0.334 5.667 -0.163 8.938 1.438 C11 4 11 4 11.125 5.883 C10.443 12.016 8.581 17.015 5.938 22.562 C5.56 23.38 5.183 24.198 4.795 25.041 C3.875 27.033 2.943 29.019 2 31 C2.701 30.227 3.403 29.453 4.125 28.656 C18.93 12.38 18.93 12.38 24 9 C28.315 9 29.721 9.733 32.875 12.75 C35.116 16.178 35.582 17.079 35 21 C33.277 23.465 33.277 23.465 30.938 25.938 C30.123 26.8 29.308 27.662 28.469 28.551 C25.438 31.558 22.32 34.316 19 37 C19.159 36.693 19.159 36.693 19.961 35.141 C20.956 33.09 21.524 31.221 22 29 C21.34 29 20.68 29 20 29 C20.666 24.175 23.873 22.152 27.383 19.098 C29 17 29 17 28.742 14.246 C28.497 13.505 28.252 12.764 28 12 C24.029 12.12 22.188 13.538 19.5 16.25 C18.33 17.497 17.164 18.747 16 20 C13.425 22.601 10.824 25.172 8.203 27.727 C-1.488 37.202 -9.761 47.494 -17.752 58.431 C-20.594 62.285 -23.519 65.709 -27 69 C-25.5 64.526 -22.999 61.097 -20.188 57.375 C-15.903 51.539 -12.639 45.77 -10 39 C-9.292 37.187 -8.584 35.375 -7.875 33.562 C-7.729 33.171 -7.729 33.171 -6.992 31.191 C-6 29 -6 29 -4.504 27.012 C-2.866 24.82 -2.012 22.81 -1.062 20.25 C0.199 16.954 1.55 13.814 3.188 10.688 C4.674 7.813 5.594 5.246 6 2 C3.69 2 1.38 2 -1 2 C-0.67 1.34 -0.34 0.68 0 0 Z " fill="#286D14" transform="translate(104,18)"/>
<path d="M0 0 C0.488 2.633 0.488 2.633 0 6 C-2.29 8.411 -5.022 10.091 -7.812 11.875 C-9.384 12.931 -10.956 13.986 -12.527 15.043 C-12.912 15.297 -12.912 15.297 -14.859 16.58 C-27.748 25.13 -39.273 34.899 -50 46 C-49.835 46.165 -49.835 46.165 -49 47 C-48.01 47 -47.02 47 -46 47 C-45.34 47 -44.68 47 -44 47 C-45.401 50.194 -47.046 52.252 -49.562 54.652 C-50.273 55.341 -50.983 56.029 -51.715 56.739 C-52.092 57.101 -52.092 57.101 -54 58.938 C-61.071 65.853 -67.285 72.926 -73 81 C-73.663 79.219 -73.663 79.219 -74 77 C-72.984 75.248 -72.984 75.248 -71.395 73.504 C-71.109 73.183 -71.109 73.183 -69.662 71.561 C-69.052 70.901 -68.441 70.242 -67.812 69.562 C-66.631 68.252 -65.45 66.941 -64.27 65.629 C-63.704 65.01 -63.139 64.392 -62.557 63.754 C-61.207 62.233 -59.944 60.636 -58.699 59.027 C-58.138 58.358 -57.578 57.689 -57 57 C-56.34 57 -55.68 57 -55 57 C-54.856 56.691 -54.856 56.691 -54.125 55.125 C-53 53 -53 53 -51 51 C-51.375 48.375 -51.375 48.375 -52 46 C-53.32 45.67 -54.64 45.34 -56 45 C-46.066 33.926 -35.848 23.999 -24 15 C-23.427 14.562 -22.854 14.124 -22.264 13.672 C-19.733 11.742 -17.188 9.833 -14.625 7.945 C-12.939 6.696 -11.27 5.421 -9.625 4.117 C-9.274 3.84 -9.274 3.84 -7.5 2.438 C-6.912 1.962 -6.324 1.486 -5.719 0.996 C-4 0 -4 0 0 0 Z " fill="#3A841C" transform="translate(134,61)"/>
<path d="M0 0 C0.66 0 1.32 0 2 0 C1.34 2.64 0.68 5.28 0 8 C-0.66 8 -1.32 8 -2 8 C-2.227 8.804 -2.454 9.609 -2.688 10.438 C-4.055 14.149 -5.791 17.349 -7.781 20.754 C-9 23 -9 23 -9.828 25.207 C-11.587 29.398 -13.943 33.215 -16.25 37.125 C-19.932 43.407 -23.527 49.699 -26.879 56.164 C-28 58 -28 58 -30 59 C-28.65 54.482 -26.799 50.698 -24.438 46.625 C-22.114 42.375 -20.385 39.067 -20.168 34.238 C-19.926 31.009 -19.231 27.917 -18.562 24.75 C-18.316 23.569 -18.07 22.388 -17.816 21.172 C-17.118 18.458 -16.274 16.456 -15 14 C-14.578 12.428 -14.203 10.844 -13.875 9.25 C-13.707 8.451 -13.54 7.652 -13.367 6.828 C-13.246 6.225 -13.125 5.622 -13 5 C-14.32 5 -15.64 5 -17 5 C-17.17 5.727 -17.34 6.454 -17.516 7.203 C-19.899 17.093 -22.785 26.727 -27 36 C-27.66 36 -28.32 36 -29 36 C-28.44 29.13 -26.011 23.089 -23.562 16.688 C-23.155 15.591 -22.747 14.495 -22.326 13.365 C-19.262 5.262 -19.262 5.262 -17 3 C-11.763 2.443 -11.763 2.443 -9.293 4.246 C-8 6 -8 6 -7.891 8.086 C-8.009 8.841 -8.128 9.597 -8.25 10.375 C-8.358 11.125 -8.467 11.875 -8.578 12.648 C-9.019 15.106 -9.499 17.554 -10 20 C-9.446 18.891 -8.891 17.783 -8.32 16.641 C-6.934 13.867 -6.934 13.867 0 0 Z " fill="#276414" transform="translate(101,22)"/>
<path d="M0 0 C2.64 0 5.28 0 8 0 C7.719 6.179 5.325 10.703 2.484 16.141 C1.349 18.327 0.314 20.476 -0.625 22.75 C-1.636 25.14 -2.69 27.388 -3.875 29.688 C-5.587 33.034 -6.991 36.443 -8.375 39.938 C-10.659 45.488 -13.482 50.159 -17 55 C-18.275 56.768 -19.546 58.538 -20.812 60.312 C-21.396 61.113 -21.98 61.914 -22.582 62.738 C-23.943 64.909 -24.419 66.545 -25 69 C-27.063 70.75 -27.063 70.75 -29 72 C-28.691 71.402 -28.381 70.804 -28.062 70.188 C-27 68 -27 68 -26 65 C-26.66 64.67 -27.32 64.34 -28 64 C-27.683 63.571 -27.366 63.141 -27.039 62.699 C-22.739 56.582 -19.332 50.085 -15.905 43.457 C-12.694 37.261 -9.327 31.174 -5.78 25.164 C-3.833 21.794 -2.48 18.881 -2 15 C-2.66 14.67 -3.32 14.34 -4 14 C-3.67 12.68 -3.34 11.36 -3 10 C-2.34 10 -1.68 10 -1 10 C-0.67 6.7 -0.34 3.4 0 0 Z " fill="#448B19" transform="translate(102,20)"/>
<path d="M0 0 C0 3.463 -0.509 3.836 -2.562 6.438 C-5.08 10.22 -5.054 12.159 -4.188 16.562 C-3.136 24.195 -6.94 28.582 -11.289 34.434 C-11.751 35.038 -12.213 35.642 -12.688 36.265 C-14.511 38.676 -16.185 41.182 -17.875 43.688 C-20.002 46.782 -22.177 49.506 -25 52 C-27.75 52.25 -27.75 52.25 -30 52 C-30.33 50.68 -30.66 49.36 -31 48 C-31.361 48.031 -31.361 48.031 -33.188 48.188 C-36.553 47.963 -38.235 46.868 -41 45 C-41.66 44.67 -42.32 44.34 -43 44 C-42.67 41.69 -42.34 39.38 -42 37 C-41.67 38.32 -41.34 39.64 -41 41 C-40.34 40.835 -40.34 40.835 -37 40 C-37 40.66 -37 41.32 -37 42 C-36.237 42.144 -35.474 42.289 -34.688 42.438 C-32 43 -32 43 -29 44 C-29 44.99 -29 45.98 -29 47 C-23.336 42.567 -19.598 37.983 -15.75 31.938 C-15.234 31.148 -14.719 30.358 -14.188 29.545 C-12.775 27.373 -11.386 25.189 -10 23 C-9.39 22.069 -8.781 21.139 -8.152 20.18 C-6.521 17.094 -6.799 14.425 -7 11 C-8.98 10.67 -10.96 10.34 -13 10 C-12.402 9.856 -11.804 9.711 -11.188 9.562 C-6.903 8.461 -5.369 7.516 -2.812 3.938 C-2.283 3.204 -1.753 2.471 -1.207 1.715 C-0.809 1.149 -0.41 0.583 0 0 Z " fill="#F0E2B6" transform="translate(60,109)"/>
<path d="M0 0 C0.99 0 1.98 0 3 0 C2.571 6.195 -0.385 10.841 -3.375 16.125 C-4.464 18.081 -5.552 20.036 -6.641 21.992 C-7.197 22.984 -7.753 23.977 -8.326 24.999 C-9.961 27.929 -11.571 30.872 -13.172 33.82 C-13.669 34.734 -14.166 35.648 -14.678 36.589 C-15.627 38.335 -16.575 40.081 -17.521 41.829 C-17.95 42.612 -18.379 43.396 -18.82 44.203 C-19.007 44.547 -19.007 44.547 -19.954 46.286 C-21 48 -21 48 -23 50 C-22.625 52.125 -22.625 52.125 -22 54 C-22.33 53.34 -22.66 52.68 -23 52 C-24.65 52 -26.3 52 -28 52 C-25.287 45.696 -22.329 39.569 -19.125 33.5 C-18.906 33.083 -18.906 33.083 -17.797 30.974 C-15.171 26.038 -12.392 21.34 -9.164 16.77 C-7.364 14.033 -6.261 11.015 -5 8 C-1.93 2.266 -1.93 2.266 0 0 Z " fill="#589822" transform="translate(98,34)"/>
<path d="M0 0 C-0.859 5.944 -6.038 9.839 -10 14 C-10.369 14.389 -10.369 14.389 -12.234 16.359 C-17.461 21.743 -17.461 21.743 -19.902 22.906 C-22.877 24.458 -24.889 26.625 -27.25 29 C-27.732 29.483 -28.213 29.967 -28.709 30.465 C-32.55 34.383 -35.922 38.562 -39.148 43.004 C-41.267 45.288 -43.059 46.065 -46 47 C-42.262 40.931 -38.063 35.642 -33.227 30.41 C-31.248 28.268 -29.335 26.089 -27.438 23.875 C-23.818 19.718 -19.933 15.858 -16 12 C-15.154 11.154 -14.309 10.309 -13.438 9.438 C-12.633 8.633 -11.829 7.829 -11 7 C-10.433 6.386 -9.866 5.773 -9.281 5.141 C-8.977 4.818 -8.977 4.818 -7.438 3.188 C-6.879 2.583 -6.321 1.978 -5.746 1.355 C-4 0 -4 0 0 0 Z " fill="#549821" transform="translate(132,29)"/>
<path d="M0 0 C0.299 0.103 0.299 0.103 1.812 0.625 C0.14 5.526 -2.567 9.629 -5.375 13.938 C-5.867 14.694 -6.359 15.451 -6.865 16.231 C-10.941 22.416 -14.952 28.468 -21.188 32.625 C-22.508 32.625 -23.828 32.625 -25.188 32.625 C-25.517 30.975 -25.847 29.325 -26.188 27.625 C-25.356 27.194 -24.525 26.764 -23.668 26.32 C-18.609 22.947 -15.744 17.512 -12.5 12.5 C-11.189 10.494 -9.872 8.491 -8.551 6.492 C-7.976 5.606 -7.402 4.721 -6.81 3.808 C-4.832 1.147 -3.474 -0.596 0 0 Z " fill="#E6D7A4" transform="translate(59.1875,135.375)"/>
<path d="M0 0 C0 3.517 -0.824 4.371 -3 7 C-2.443 6.649 -1.886 6.299 -1.312 5.938 C1.539 4.782 3.085 5.19 6 6 C2.36 9.79 -1.462 13.052 -5.625 16.25 C-6.869 17.218 -8.113 18.187 -9.355 19.156 C-9.97 19.634 -10.584 20.113 -11.216 20.605 C-20.543 27.897 -28.887 35.351 -36.52 44.398 C-38 46 -38 46 -40 47 C-38.501 41.571 -34.762 38.285 -30.938 34.375 C-26.598 29.851 -22.34 25.352 -18.438 20.438 C-12.718 13.245 -6.32 6.662 0 0 Z " fill="#0F4A04" transform="translate(117,60)"/>
<path d="M0 0 C0.619 0.186 1.237 0.371 1.875 0.562 C4 1 4 1 6 0 C7.997 2.157 9 3.318 9 6.312 C7.828 9.463 6.088 11.648 4.062 14.301 C2.639 16.577 2.929 18.368 3 21 C1 23.312 1 23.312 -1 25 C-3.553 16.141 -3.553 16.141 -2 12 C-0.437 9.26 1.24 6.617 3 4 C0.857 7.195 -1.311 10.241 -4 13 C-7.312 13.5 -7.312 13.5 -10 13 C-10.33 13.165 -10.33 13.165 -12 14 C-12.33 13.01 -12.66 12.02 -13 11 C-11.68 9.68 -10.36 8.36 -9 7 C-8.67 7.66 -8.34 8.32 -8 9 C-7.34 9 -6.68 9 -6 9 C-5.752 8.443 -5.505 7.886 -5.25 7.312 C-3.784 4.6 -1.97 2.364 0 0 Z " fill="#BEDC55" transform="translate(57,106)"/>
<path d="M0 0 C2.375 2.004 3.813 3.355 4.688 6.375 C2.871 13.311 -6.347 17.251 -12.033 20.98 C-24.136 28.982 -35.075 38.486 -46 48 C-46.66 47.34 -47.32 46.68 -48 46 C-41.334 39.78 -34.401 34.061 -27.199 28.48 C-26.658 28.061 -26.117 27.641 -25.56 27.208 C-24.09 26.07 -22.617 24.935 -21.145 23.801 C-19 22 -19 22 -18 20 C-17.257 19.773 -16.515 19.546 -15.75 19.312 C-12.358 17.693 -11.397 15.877 -9.398 12.797 C-7.861 10.821 -6.361 9.764 -4.25 8.438 C-1.329 6.537 -1.079 6.28 -0.062 2.688 C-0.042 1.801 -0.021 0.914 0 0 Z " fill="#27631C" transform="translate(137,61)"/>
<path d="M0 0 C0.956 3.024 1.003 4.899 0.125 7.938 C-0.478 10.074 -1.012 12.087 -1.32 14.289 C-2.426 18.701 -4.87 22.468 -7.117 26.385 C-8.764 29.345 -9.937 31.581 -10.449 34.965 C-11.239 39.318 -13.429 42.449 -15.812 46.125 C-16.251 46.828 -16.69 47.53 -17.143 48.254 C-19.464 51.903 -21.759 55.084 -25 58 C-21.125 48.312 -21.125 48.312 -20.074 45.699 C-19.356 43.894 -18.65 42.084 -17.957 40.27 C-17.621 39.397 -17.284 38.524 -16.938 37.625 C-16.637 36.834 -16.337 36.042 -16.027 35.227 C-15 33 -15 33 -13.52 31.105 C-11.591 28.434 -10.775 25.817 -9.75 22.688 C-7.053 14.843 -3.623 7.454 0 0 Z " fill="#2F7813" transform="translate(82,47)"/>
<path d="M0 0 C1.32 0 2.64 0 4 0 C3.67 5.02 3.135 9.347 0.941 13.945 C-0.285 16.623 -1.284 19.366 -2.312 22.125 C-4.897 28.909 -7.879 35.447 -11 42 C-11.99 41.67 -12.98 41.34 -14 41 C-13.858 39.562 -13.711 38.125 -13.562 36.688 C-13.481 35.887 -13.4 35.086 -13.316 34.262 C-13 32 -13 32 -12 29 C-12 29.66 -12 30.32 -12 31 C-11.34 31 -10.68 31 -10 31 C-9.918 30.216 -9.835 29.433 -9.75 28.625 C-8.961 24.813 -7.678 21.591 -6.188 18.012 C-3.858 12.104 -1.964 6.037 0 0 Z " fill="#62A42A" transform="translate(84,27)"/>
<path d="M0 0 C4.235 1.355 5.718 3.319 8.125 7 C8.672 10.386 8.386 11.626 6.402 14.465 C6.016 14.873 6.016 14.873 4.062 16.938 C3.248 17.8 2.433 18.662 1.594 19.551 C-1.437 22.558 -4.555 25.316 -7.875 28 C-7.716 27.693 -7.716 27.693 -6.914 26.141 C-5.919 24.09 -5.351 22.221 -4.875 20 C-5.535 20 -6.195 20 -6.875 20 C-6.209 15.175 -3.002 13.152 0.508 10.098 C2.125 8 2.125 8 1.867 5.246 C1.622 4.505 1.377 3.764 1.125 3 C-3.958 3.154 -6.233 6.021 -9.52 9.504 C-9.967 9.998 -10.414 10.491 -10.875 11 C-11.535 10.34 -12.195 9.68 -12.875 9 C-11.774 7.872 -10.669 6.748 -9.562 5.625 C-8.948 4.999 -8.333 4.372 -7.699 3.727 C-5.107 1.273 -3.643 0 0 0 Z " fill="#296A14" transform="translate(130.875,27)"/>
<path d="M0 0 C0.99 0 1.98 0 3 0 C4.027 4.237 4.303 6.359 2.41 10.359 C1.648 11.504 0.864 12.633 0.062 13.75 C-0.347 14.351 -0.757 14.951 -1.178 15.57 C-2.432 17.395 -3.713 19.198 -5 21 C-5.74 22.06 -6.48 23.119 -7.242 24.211 C-13.205 32.604 -13.205 32.604 -17 36 C-17.66 36 -18.32 36 -19 36 C-18.731 31.566 -16.786 29.486 -13.895 26.285 C-11.439 23.323 -9.305 20.209 -7.188 17 C-6.79 16.419 -6.393 15.837 -5.984 15.239 C-3.325 11.143 -2.537 7.802 -2 3 C-1.34 2.01 -0.68 1.02 0 0 Z " fill="#FAF5DD" transform="translate(50,120)"/>
<path d="M0 0 C0.66 0 1.32 0 2 0 C1.34 2.64 0.68 5.28 0 8 C-0.66 8 -1.32 8 -2 8 C-2.227 8.804 -2.454 9.609 -2.688 10.438 C-4.055 14.149 -5.791 17.349 -7.781 20.754 C-9 23 -9 23 -9.828 25.207 C-11.587 29.398 -13.943 33.215 -16.25 37.125 C-19.932 43.407 -23.527 49.699 -26.879 56.164 C-28 58 -28 58 -30 59 C-28.731 54.585 -26.903 50.858 -24.673 46.882 C-18.255 35.415 -13.975 23.495 -10 11 C-9.024 14.383 -9.141 16.566 -10 20 C-9.446 18.891 -8.891 17.783 -8.32 16.641 C-6.934 13.867 -6.934 13.867 0 0 Z " fill="#215C17" transform="translate(101,22)"/>
<path d="M0 0 C1.579 4.736 -0.891 7.591 -3 12 C-1.185 10.02 -1.185 10.02 8 0 C8.66 0.33 9.32 0.66 10 1 C1.504 10.575 1.504 10.575 -2.5 14.438 C-10.131 21.981 -16.437 30.786 -22.751 39.429 C-25.594 43.284 -28.518 46.709 -32 50 C-30.446 45.346 -27.89 41.831 -25 37.938 C-20.192 31.419 -20.192 31.419 -19 28.816 C-18 27 -18 27 -15.625 25.133 C-12.589 22.666 -11.002 20.226 -9 16.875 C-8.66 16.308 -8.319 15.741 -7.969 15.157 C-5.049 10.233 -2.432 5.18 0 0 Z " fill="#0F5006" transform="translate(109,37)"/>
<path d="M0 0 C0.66 0.66 1.32 1.32 2 2 C2.66 1.67 3.32 1.34 4 1 C2.702 4.816 1.25 7.071 -1.688 9.812 C-12.348 20.104 -12.348 20.104 -15 27 C-19.816 33.408 -19.816 33.408 -23 35 C-21.36 30.332 -21.36 30.332 -19.375 28.5 C-18.921 28.005 -18.468 27.51 -18 27 C-18.049 26.236 -18.098 25.471 -18.148 24.684 C-17.952 21.124 -16.71 20.081 -14.25 17.562 C-11.781 14.954 -9.521 12.491 -7.625 9.438 C-7.089 8.633 -6.552 7.829 -6 7 C-5.34 7 -4.68 7 -4 7 C-3.711 6.216 -3.422 5.433 -3.125 4.625 C-2 2 -2 2 0 0 Z " fill="#3D8115" transform="translate(93,80)"/>
<path d="M0 0 C0.34 0.155 0.34 0.155 2.062 0.938 C1.7 1.357 1.338 1.777 0.965 2.209 C-1.721 5.333 -4.387 8.47 -7.008 11.648 C-8.026 12.87 -9.044 14.091 -10.062 15.312 C-10.574 15.94 -11.086 16.568 -11.613 17.215 C-12.115 17.812 -12.616 18.409 -13.133 19.023 C-13.576 19.56 -14.02 20.097 -14.477 20.65 C-16.234 22.198 -17.656 22.54 -19.938 22.938 C-19.176 16.13 -14.297 11.889 -9.938 6.938 C-9.611 6.557 -9.611 6.557 -7.961 4.633 C-3.666 -0.078 -3.666 -0.078 0 0 Z " fill="#2C7113" transform="translate(113.9375,60.0625)"/>
<path d="M0 0 C0.33 0 0.66 0 1 0 C0.778 6.884 -0.773 10.717 -4.512 16.445 C-6.449 19.771 -7.365 23.094 -8.344 26.793 C-9.148 29.496 -10.387 31.695 -12 34 C-13.32 33.34 -14.64 32.68 -16 32 C-15.34 30.35 -14.68 28.7 -14 27 C-13.34 27 -12.68 27 -12 27 C-11.752 26.031 -11.505 25.061 -11.25 24.062 C-9.131 16.682 -5.444 5.444 0 0 Z " fill="#83C137" transform="translate(71,67)"/>
<path d="M0 0 C0 3.517 -0.824 4.371 -3 7 C-2.443 6.649 -1.886 6.299 -1.312 5.938 C1.539 4.782 3.085 5.19 6 6 C2.883 9.325 -0.444 12.32 -3.938 15.25 C-4.751 15.936 -5.564 16.622 -6.402 17.328 C-9.323 19.208 -11.572 19.661 -15 20 C-11.351 14.337 -11.351 14.337 -9.375 12.438 C-8 11 -8 11 -7.188 8.688 C-5.516 4.904 -3.014 2.817 0 0 Z " fill="#1A5608" transform="translate(117,60)"/>
<path d="M0 0 C0.66 0 1.32 0 2 0 C0.348 3.579 -1.783 6.748 -4 10 C-3.34 9.67 -2.68 9.34 -2 9 C-3.443 13.761 -6.019 17.972 -10 21 C-13.875 20.938 -13.875 20.938 -17 20 C-12.738 13.279 -7.706 7.548 -2 2 C-1.34 1.34 -0.68 0.68 0 0 Z " fill="#8FBF2C" transform="translate(72,116)"/>
<path d="M0 0 C0.33 0.66 0.66 1.32 1 2 C0.34 1.67 -0.32 1.34 -1 1 C-0.67 0.67 -0.34 0.34 0 0 Z M-2 2 C-1.67 2.66 -1.34 3.32 -1 4 C-2.254 7.543 -4.232 9.215 -7.188 11.438 C-10.519 14.004 -13.742 16.622 -16.891 19.41 C-17.559 20.002 -18.228 20.594 -18.917 21.203 C-20.253 22.391 -21.583 23.584 -22.909 24.783 C-23.217 25.056 -23.217 25.056 -24.777 26.438 C-25.326 26.931 -25.875 27.425 -26.441 27.934 C-28 29 -28 29 -31 29 C-22.022 18.938 -12.917 9.94 -2 2 Z " fill="#367D14" transform="translate(110,76)"/>
<path d="M0 0 C0.66 0.66 1.32 1.32 2 2 C1.252 2.724 0.505 3.449 -0.266 4.195 C-1.261 5.172 -2.255 6.148 -3.25 7.125 C-3.741 7.599 -4.232 8.074 -4.738 8.562 C-8.904 12.673 -12.85 17.04 -14.25 22.875 C-14.498 23.906 -14.745 24.938 -15 26 C-14.34 26.33 -13.68 26.66 -13 27 C-13.33 27.99 -13.66 28.98 -14 30 C-17.3 30.66 -20.6 31.32 -24 32 C-24.33 31.01 -24.66 30.02 -25 29 C-23.68 28.835 -23.68 28.835 -17 28 C-17.124 26.866 -17.247 25.731 -17.375 24.562 C-17.302 16.19 -10.695 10.486 -5.125 4.938 C-3.429 3.278 -1.719 1.636 0 0 Z " fill="#C0B45D" transform="translate(32,127)"/>
<path d="M0 0 C-1.401 3.194 -3.046 5.252 -5.562 7.652 C-5.918 7.997 -5.918 7.997 -7.715 9.739 C-8.469 10.464 -9.223 11.19 -10 11.938 C-17.071 18.853 -23.285 25.926 -29 34 C-29.663 32.219 -29.663 32.219 -30 30 C-28.984 28.248 -28.984 28.248 -27.395 26.504 C-26.823 25.863 -26.251 25.221 -25.662 24.561 C-25.357 24.231 -25.357 24.231 -23.812 22.562 C-22.631 21.252 -21.45 19.941 -20.27 18.629 C-19.704 18.01 -19.139 17.392 -18.557 16.754 C-17.207 15.233 -15.944 13.636 -14.699 12.027 C-14.419 11.693 -14.419 11.693 -13 10 C-12.34 10 -11.68 10 -11 10 C-10.742 9.407 -10.484 8.814 -10.219 8.203 C-8.902 5.823 -7.574 4.49 -5.5 2.75 C-5.196 2.49 -5.196 2.49 -3.656 1.172 C-2 0 -2 0 0 0 Z " fill="#417A24" transform="translate(90,108)"/>
<path d="M0 0 C-1 3 -1 3 -2.734 3.875 C-3.482 4.246 -4.23 4.617 -5 5 C-6.801 6.611 -8.546 8.286 -10.25 10 C-10.732 10.483 -11.213 10.967 -11.709 11.465 C-15.55 15.383 -18.922 19.562 -22.148 24.004 C-24.267 26.288 -26.059 27.065 -29 28 C-25.195 21.822 -20.903 16.468 -15.953 11.164 C-14 9 -14 9 -12 6 C-10.357 4.962 -8.688 3.964 -7 3 C-6.299 2.443 -5.597 1.886 -4.875 1.312 C-3 0 -3 0 0 0 Z " fill="#5DA022" transform="translate(115,48)"/>
<path d="M0 0 C2.64 0 5.28 0 8 0 C7.503 4.973 6.447 8.638 4 13 C3.01 13 2.02 13 1 13 C0.34 13.66 -0.32 14.32 -1 15 C-1.99 14.67 -2.98 14.34 -4 14 C-3.67 12.68 -3.34 11.36 -3 10 C-2.34 10 -1.68 10 -1 10 C-0.67 6.7 -0.34 3.4 0 0 Z " fill="#448A1E" transform="translate(102,20)"/>
<path d="M0 0 C0.66 0.66 1.32 1.32 2 2 C1.728 5.742 -0.146 7.411 -2.812 9.875 C-5.387 12.326 -7.164 14.264 -9.062 17.312 C-11.667 20.925 -13.841 21.536 -18 23 C-18.66 23.33 -19.32 23.66 -20 24 C-18.669 21.029 -17.229 19.005 -14.883 16.758 C-14.276 16.166 -13.669 15.574 -13.043 14.965 C-11.772 13.746 -10.501 12.527 -9.23 11.309 C-5.593 7.764 -2.643 4.343 0 0 Z " fill="#387D19" transform="translate(132,30)"/>
<path d="M0 0 C0.66 0 1.32 0 2 0 C1.457 4.598 -0.575 7.894 -3.062 11.688 C-7 17.752 -7 17.752 -7 20 C-7.33 20.99 -7.66 21.98 -8 23 C-8 22.34 -8 21.68 -8 21 C-9.65 21 -11.3 21 -13 21 C-11.69 17.989 -10.351 14.993 -9 12 C-8.665 11.238 -8.33 10.476 -7.984 9.691 C-7.66 8.989 -7.335 8.286 -7 7.562 C-6.711 6.924 -6.422 6.286 -6.125 5.629 C-4.711 3.582 -3.225 3.036 -1 2 C-0.67 1.34 -0.34 0.68 0 0 Z " fill="#70B22A" transform="translate(83,65)"/>
<path d="M0 0 C0.619 0.186 1.237 0.371 1.875 0.562 C4 1 4 1 6 0 C4.437 3.836 1.936 6.136 -1 9 C-1.474 9.763 -1.949 10.526 -2.438 11.312 C-4 13 -4 13 -7.062 13.188 C-8.032 13.126 -9.001 13.064 -10 13 C-10.33 13.165 -10.33 13.165 -12 14 C-12.33 13.01 -12.66 12.02 -13 11 C-11.68 9.68 -10.36 8.36 -9 7 C-8.67 7.66 -8.34 8.32 -8 9 C-7.34 9 -6.68 9 -6 9 C-5.752 8.443 -5.505 7.886 -5.25 7.312 C-3.784 4.6 -1.97 2.364 0 0 Z " fill="#CFEA6D" transform="translate(57,106)"/>
<path d="M0 0 C0.66 0.66 1.32 1.32 2 2 C-0.383 5.592 -2.784 9.172 -5.188 12.75 C-5.524 13.258 -5.524 13.258 -7.229 15.828 C-7.889 16.808 -8.55 17.787 -9.23 18.797 C-9.833 19.698 -10.435 20.598 -11.055 21.526 C-13.895 25.138 -16.624 27.541 -21 29 C-21 28.34 -21 27.68 -21 27 C-21.557 26.897 -22.114 26.794 -22.688 26.688 C-25.442 25.869 -27.587 24.541 -30 23 C-29.67 22.34 -29.34 21.68 -29 21 C-27.35 21.33 -25.7 21.66 -24 22 C-23.67 22.99 -23.34 23.98 -23 25 C-18.514 25.366 -18.514 25.366 -16.332 23.812 C-11.235 17.733 -7.15 11.084 -3.039 4.316 C-1 1 -1 1 0 0 Z " fill="#C5A95B" transform="translate(53,135)"/>
<path d="M0 0 C0.66 0.99 1.32 1.98 2 3 C0.408 5.288 -1.189 7.572 -2.793 9.852 C-4.391 12.131 -5.975 14.417 -7.551 16.711 C-8.429 17.974 -9.308 19.237 -10.188 20.5 C-10.603 21.111 -11.019 21.722 -11.447 22.352 C-13.634 25.472 -15.336 27.72 -19 29 C-19.66 28.34 -20.32 27.68 -21 27 C-20.55 26.704 -20.1 26.407 -19.637 26.102 C-11.98 20.301 -7.793 11.964 -3.11 3.768 C-2 2 -2 2 0 0 Z " fill="#BBA35B" transform="translate(59,140)"/>
<path d="M0 0 C2.125 0.938 2.125 0.938 3.125 2.938 C2.846 4.614 2.517 6.284 2.125 7.938 C1.135 8.267 0.145 8.597 -0.875 8.938 C-0.875 8.278 -0.875 7.618 -0.875 6.938 C-1.535 6.608 -2.195 6.278 -2.875 5.938 C-2.215 5.938 -1.555 5.938 -0.875 5.938 C-0.875 4.947 -0.875 3.957 -0.875 2.938 C-3.504 3.887 -5.625 4.736 -7.812 6.5 C-10.438 8.33 -12.73 8.58 -15.875 8.938 C-16.535 7.948 -17.195 6.957 -17.875 5.938 C-13.25 1.938 -13.25 1.938 -9.875 1.938 C-9.875 2.928 -9.875 3.917 -9.875 4.938 C-9.428 4.565 -8.98 4.192 -8.52 3.809 C-3.554 -0.077 -3.554 -0.077 0 0 Z " fill="#2A6A14" transform="translate(134.875,58.0625)"/>
<path d="M0 0 C0.99 0.33 1.98 0.66 3 1 C-19.315 19.654 -19.315 19.654 -28 26 C-28 23 -28 23 -26.777 21.598 C-26.17 21.091 -25.563 20.584 -24.938 20.062 C-24.218 19.459 -23.499 18.856 -22.758 18.234 C-17.421 13.91 -12.078 9.592 -6.678 5.346 C-5.162 4.13 -3.693 2.855 -2.23 1.574 C-1.862 1.314 -1.862 1.314 0 0 Z " fill="#1C5015" transform="translate(118,83)"/>
<path d="M0 0 C0.66 0.33 1.32 0.66 2 1 C1.34 2.98 0.68 4.96 0 7 C1.65 5.02 3.3 3.04 5 1 C5.33 1.99 5.66 2.98 6 4 C5.67 4.495 5.67 4.495 4 7 C3.34 7 2.68 7 2 7 C1.732 7.804 1.464 8.609 1.188 9.438 C0.796 10.283 0.404 11.129 0 12 C-0.99 12.33 -1.98 12.66 -3 13 C-2.67 11.02 -2.34 9.04 -2 7 C-4.64 7.33 -7.28 7.66 -10 8 C-8.287 4.047 -6.375 2.637 -2.438 0.812 C-1.633 0.544 -0.829 0.276 0 0 Z " fill="#D6A956" transform="translate(18,159)"/>
<path d="M0 0 C2 3 2 3 1.922 5.637 C0.691 10.127 -1.421 13.804 -3.75 17.812 C-4.181 18.569 -4.611 19.325 -5.055 20.104 C-5.923 21.628 -6.796 23.151 -7.674 24.67 C-9.474 27.833 -11.188 31.042 -12.896 34.257 C-14 36 -14 36 -16 37 C-14.431 31.517 -11.853 26.841 -9.125 21.875 C-5.269 14.731 -2.105 7.87 0 0 Z " fill="#145705" transform="translate(87,44)"/>
<path d="M0 0 C0.66 0.33 1.32 0.66 2 1 C0.837 8.236 -2.009 11.787 -7 17 C-8.346 18.657 -9.686 20.318 -11 22 C-11.814 19.691 -12.22 18.509 -11.227 16.217 C-10.816 15.628 -10.404 15.04 -9.98 14.434 C-9.535 13.783 -9.09 13.133 -8.631 12.463 C-8.155 11.795 -7.678 11.126 -7.188 10.438 C-6.723 9.765 -6.258 9.093 -5.779 8.4 C-4.912 7.148 -4.04 5.898 -3.161 4.654 C-2.084 3.119 -1.04 1.56 0 0 Z " fill="#90BE30" transform="translate(71,104)"/>
<path d="M0 0 C1.32 0.33 2.64 0.66 4 1 C3.34 2.65 2.68 4.3 2 6 C2.66 5.67 3.32 5.34 4 5 C5.54 4.93 7.083 4.915 8.625 4.938 C9.034 4.942 9.034 4.942 11.102 4.965 C11.415 4.971 11.415 4.971 13 5 C6.833 8.136 1.905 9.446 -5 9 C-7.5 8 -7.5 8 -9 7 C-8.34 6.67 -7.68 6.34 -7 6 C-6.375 3.438 -6.375 3.438 -6 1 C-5.34 1 -4.68 1 -4 1 C-3.897 1.639 -3.794 2.279 -3.688 2.938 C-3.461 3.618 -3.234 4.299 -3 5 C-2.01 5.33 -1.02 5.66 0 6 C0 4.02 0 2.04 0 0 Z " fill="#EEDFC1" transform="translate(34,170)"/>
<path d="M0 0 C0.66 0.33 1.32 0.66 2 1 C0.722 5.58 -0.921 8.408 -4 12 C-5.092 13.431 -6.174 14.869 -7.25 16.312 C-7.771 17.01 -8.292 17.707 -8.828 18.426 C-9.021 18.686 -9.021 18.686 -10 20 C-10.99 19.67 -11.98 19.34 -13 19 C-11.473 14.357 -8.934 11.022 -5.938 7.25 C-5.478 6.661 -5.018 6.072 -4.545 5.465 C-1.23 1.23 -1.23 1.23 0 0 Z " fill="#599C20" transform="translate(94,73)"/>
<path d="M0 0 C1.452 2.305 2.057 3.537 1.719 6.281 C0.917 9.315 -0.228 11.973 -1.562 14.812 C-2.018 15.788 -2.473 16.764 -2.941 17.77 C-3.291 18.506 -3.64 19.242 -4 20 C-4.99 19.67 -5.98 19.34 -7 19 C-6.858 17.562 -6.711 16.125 -6.562 14.688 C-6.481 13.887 -6.4 13.086 -6.316 12.262 C-6 10 -6 10 -5 7 C-5 7.66 -5 8.32 -5 9 C-4.34 9 -3.68 9 -3 9 C-2.876 8.072 -2.752 7.144 -2.625 6.188 C-2 3 -2 3 0 0 Z " fill="#63A32F" transform="translate(77,49)"/>
<path d="M0 0 C0.33 1.32 0.66 2.64 1 4 C2.32 3.67 3.64 3.34 5 3 C5 3.66 5 4.32 5 5 C5.763 5.144 6.526 5.289 7.312 5.438 C10 6 10 6 13 7 C13.688 9.062 13.688 9.062 14 11 C13.67 11.165 13.67 11.165 12 12 C12 10.68 12 9.36 12 8 C11.34 8 10.68 8 10 8 C9.67 8.99 9.34 9.98 9 11 C5.331 10.294 2.295 8.723 -1 7 C-0.67 4.69 -0.34 2.38 0 0 Z " fill="#FAECC7" transform="translate(18,146)"/>
<path d="M0 0 C0.66 0.33 1.32 0.66 2 1 C0.06 10.551 -3.731 19.262 -11 26 C-7.125 16.313 -7.125 16.313 -6.082 13.711 C-5.345 11.864 -4.613 10.015 -3.887 8.164 C-3.532 7.264 -3.178 6.365 -2.812 5.438 C-2.489 4.611 -2.165 3.785 -1.832 2.934 C-1 1 -1 1 0 0 Z " fill="#55991A" transform="translate(68,79)"/>
<path d="M0 0 C1.65 0.33 3.3 0.66 5 1 C5.875 3 5.875 3 6 6 C4.263 8.891 2.19 11.442 0 14 C-1.208 10.377 -0.543 9.359 1 6 C-0.98 6.66 -2.96 7.32 -5 8 C-4.67 7.01 -4.34 6.02 -4 5 C-4.99 4.67 -5.98 4.34 -7 4 C-4.69 3.34 -2.38 2.68 0 2 C0 1.34 0 0.68 0 0 Z " fill="#C58B28" transform="translate(18,154)"/>
<path d="M0 0 C0 3.463 -0.509 3.836 -2.562 6.438 C-5.712 11.157 -5.031 14.946 -4.102 20.363 C-4 23 -4 23 -5.461 24.855 C-5.969 25.233 -6.477 25.611 -7 26 C-7.66 25.67 -8.32 25.34 -9 25 C-8.114 19.43 -8.114 19.43 -7.438 16.875 C-7 15 -7 15 -7 11 C-7.99 10.835 -7.99 10.835 -13 10 C-12.402 9.856 -11.804 9.711 -11.188 9.562 C-6.903 8.461 -5.369 7.516 -2.812 3.938 C-2.548 3.571 -2.548 3.571 -1.207 1.715 C-0.809 1.149 -0.41 0.583 0 0 Z " fill="#E8EC9D" transform="translate(60,109)"/>
<path d="M0 0 C0 1.32 0 2.64 0 4 C0.66 4.33 1.32 4.66 2 5 C0.35 6.98 -1.3 8.96 -3 11 C-3.66 10.34 -4.32 9.68 -5 9 C-5 8.01 -5 7.02 -5 6 C-5.99 6.66 -6.98 7.32 -8 8 C-8.99 7.67 -9.98 7.34 -11 7 C-9.93 5.821 -8.843 4.657 -7.75 3.5 C-7.147 2.85 -6.543 2.201 -5.922 1.531 C-4 0 -4 0 0 0 Z " fill="#69A51B" transform="translate(82,107)"/>
<path d="M0 0 C1 3 1 3 -0.188 5.445 C-5.008 12.572 -5.008 12.572 -8.027 13.875 C-9.938 14.125 -9.938 14.125 -13 14 C-12.381 13.278 -11.763 12.556 -11.125 11.812 C-9 9 -9 9 -7.938 6.312 C-7 4 -7 4 -4 2 C-3.67 2.33 -3.34 2.66 -3 3 C-2.01 2.01 -1.02 1.02 0 0 Z " fill="#ACD444" transform="translate(78,91)"/>
<path d="M0 0 C0.33 0.99 0.66 1.98 1 3 C-0.648 5.146 -2.52 6.957 -4.434 8.867 C-6.348 11.474 -6.131 12.846 -6 16 C-8 17.812 -8 17.812 -10 19 C-10.666 14.503 -10.75 12.193 -8.289 8.277 C-2.812 1.406 -2.812 1.406 0 0 Z " fill="#73AE25" transform="translate(82,91)"/>
<path d="M0 0 C0.66 0.33 1.32 0.66 2 1 C-2.297 5.004 -2.297 5.004 -4 6 C-6.203 5.652 -6.203 5.652 -8 5 C-6.715 4.136 -5.422 3.284 -4.125 2.438 C-3.765 2.2 -3.765 2.2 -1.945 0.996 C-1.303 0.667 -0.661 0.339 0 0 Z M-8 6 C-9.25 9.749 -10.638 10.39 -13.875 12.562 C-14.759 13.162 -15.644 13.761 -16.555 14.379 C-17.362 14.914 -18.169 15.449 -19 16 C-19.99 16.66 -20.98 17.32 -22 18 C-22.99 17.67 -23.98 17.34 -25 17 C-22.547 15.159 -20.087 13.329 -17.625 11.5 C-17.276 11.238 -17.276 11.238 -15.508 9.91 C-14.838 9.414 -14.167 8.918 -13.477 8.406 C-12.859 7.945 -12.241 7.485 -11.604 7.01 C-10 6 -10 6 -8 6 Z " fill="#276F11" transform="translate(135,66)"/>
<path d="M0 0 C4.235 1.355 5.718 3.319 8.125 7 C8.438 9.875 8.438 9.875 8.125 12 C7.795 12.165 7.795 12.165 6.125 13 C5.857 11.907 5.589 10.814 5.312 9.688 C3.639 4.49 3.639 4.49 1.125 3 C-1.949 2.829 -3.456 3.635 -5.754 5.637 C-7.51 7.385 -9.211 9.164 -10.875 11 C-11.535 10.34 -12.195 9.68 -12.875 9 C-11.774 7.872 -10.669 6.748 -9.562 5.625 C-8.948 4.999 -8.333 4.372 -7.699 3.727 C-5.107 1.273 -3.643 0 0 0 Z " fill="#235920" transform="translate(130.875,27)"/>
<path d="M0 0 C2.125 3.188 2.502 5.265 3 9 C1.542 9.027 0.083 9.046 -1.375 9.062 C-2.187 9.074 -2.999 9.086 -3.836 9.098 C-6 9 -6 9 -8 8 C-7.67 6.02 -7.34 4.04 -7 2 C-5.35 2.99 -3.7 3.98 -2 5 C-1.34 3.35 -0.68 1.7 0 0 Z " fill="#F5E7CB" transform="translate(21,168)"/>
<path d="M0 0 C0 3.491 -0.357 3.74 -2.703 6.102 C-3.272 6.674 -3.84 7.246 -4.426 7.836 C-5.028 8.426 -5.63 9.017 -6.25 9.625 C-6.543 9.924 -6.543 9.924 -8.027 11.438 C-8.601 12.007 -9.175 12.577 -9.766 13.164 C-10.289 13.684 -10.813 14.205 -11.353 14.741 C-13.215 16.164 -14.712 16.589 -17 17 C-7.261 3.266 -7.261 3.266 0 0 Z " fill="#4E961F" transform="translate(115,51)"/>
<path d="M0 0 C1.579 4.736 -0.891 7.591 -3 12 C0.63 8.04 4.26 4.08 8 0 C8.66 0.33 9.32 0.66 10 1 C8.609 2.588 7.212 4.17 5.812 5.75 C5.035 6.632 4.258 7.513 3.457 8.422 C1.115 10.879 -1.302 12.949 -4 15 C-4.927 11.919 -5.143 10.383 -4.004 7.324 C-3.528 6.454 -3.053 5.584 -2.562 4.688 C-2.089 3.804 -1.616 2.921 -1.129 2.012 C-0.756 1.348 -0.384 0.684 0 0 Z " fill="#184D0F" transform="translate(109,37)"/>
<path d="M0 0 C0.99 0 1.98 0 3 0 C2.587 5.501 0.453 9.762 -3 14 C-3.66 14 -4.32 14 -5 14 C-5.657 8.747 -4.073 5.848 -1.387 1.539 C-0.929 1.031 -0.471 0.523 0 0 Z " fill="#5AA324" transform="translate(98,34)"/>
<path d="M0 0 C0.324 3.559 0.388 5.418 -1.625 8.438 C-4 10 -4 10 -7.25 9.75 C-8.157 9.502 -9.065 9.255 -10 9 C-4.2 0 -4.2 0 0 0 Z " fill="#B8CD52" transform="translate(65,127)"/>
<path d="M0 0 C-17.473 7.009 -17.473 7.009 -26.172 9.422 C-28 10 -28 10 -29 11 C-30.666 11.041 -32.334 11.043 -34 11 C-32.68 10.67 -31.36 10.34 -30 10 C-30 9.34 -30 8.68 -30 8 C-3.509 -1.755 -3.509 -1.755 0 0 Z " fill="#F6EAD3" transform="translate(77,166)"/>
<path d="M0 0 C0.66 0.33 1.32 0.66 2 1 C1.732 1.619 1.464 2.237 1.188 2.875 C0.141 5.63 -0.801 8.378 -1.688 11.188 C-1.823 11.617 -1.823 11.617 -2.512 13.793 C-3 16 -3 16 -2 18 C-2.66 18.66 -3.32 19.32 -4 20 C-6.57 11.081 -6.57 11.081 -5 7 C-3.449 4.572 -1.773 2.27 0 0 Z " fill="#CDE368" transform="translate(60,111)"/>
<path d="M0 0 C0.66 1.32 1.32 2.64 2 4 C0.73 5.432 -0.539 6.865 -1.809 8.297 C-3 10 -3 10 -3.438 12 C-4.182 14.646 -5.438 15.55 -7.562 17.25 C-8.203 17.771 -8.844 18.292 -9.504 18.828 C-9.998 19.215 -10.491 19.602 -11 20 C-9.36 15.332 -9.36 15.332 -7.375 13.5 C-6.921 13.005 -6.468 12.51 -6 12 C-6.062 11.257 -6.124 10.515 -6.188 9.75 C-5.892 5.41 -2.933 3.029 0 0 Z " fill="#5B981B" transform="translate(81,95)"/>
<path d="M0 0 C0.99 0 1.98 0 3 0 C3.934 5.417 4.208 8.805 2 14 C0.68 13.67 -0.64 13.34 -2 13 C-2 11.35 -2 9.7 -2 8 C-1.67 8 -1.34 8 -1 8 C-0.67 5.36 -0.34 2.72 0 0 Z " fill="#CF9F49" transform="translate(25,163)"/>
<path d="M0 0 C0.33 0.99 0.66 1.98 1 3 C1.66 3 2.32 3 3 3 C3.33 3.99 3.66 4.98 4 6 C0.7 9.63 -2.6 13.26 -6 17 C-6.33 16.34 -6.66 15.68 -7 15 C-5.926 12.395 -4.8 9.9 -3.562 7.375 C-3.224 6.669 -2.886 5.962 -2.537 5.234 C-1.698 3.486 -0.85 1.743 0 0 Z " fill="#E4EBDA" transform="translate(112,33)"/>
<path d="M0 0 C0.33 0 0.66 0 1 0 C1 1.65 1 3.3 1 5 C1.66 5.33 2.32 5.66 3 6 C2.01 7.98 1.02 9.96 0 12 C-0.66 12 -1.32 12 -2 12 C-3.373 13.292 -4.71 14.624 -6 16 C-6.33 15.34 -6.66 14.68 -7 14 C-6.074 12.266 -6.074 12.266 -4.688 10.25 C-2.506 6.929 -1.061 3.86 0 0 Z " fill="#559624" transform="translate(92,43)"/>
<path d="M0 0 C0.66 0 1.32 0 2 0 C1.529 6.911 -1.206 12.722 -4 19 C-4.66 19 -5.32 19 -6 19 C-5.529 12.089 -2.794 6.278 0 0 Z " fill="#306F20" transform="translate(70,59)"/>
<path d="M0 0 C0.66 0.33 1.32 0.66 2 1 C1.526 5.317 -1.034 7.336 -4.062 10.25 C-4.982 11.142 -5.901 12.034 -6.848 12.953 C-7.558 13.629 -8.268 14.304 -9 15 C-9 12 -9 12 -7 10 C-6.732 9.051 -6.464 8.102 -6.188 7.125 C-4.796 3.463 -3.187 2.181 0 0 Z " fill="#255E16" transform="translate(133,40)"/>
<path d="M0 0 C-1.651 4.292 -4.738 6.879 -8 10 C-7.67 10.33 -7.34 10.66 -7 11 C-7 11.99 -7 12.98 -7 14 C-7.99 14 -8.98 14 -10 14 C-10 12.68 -10 11.36 -10 10 C-11.32 9.67 -12.64 9.34 -14 9 C-13.319 8.629 -12.639 8.257 -11.938 7.875 C-8.843 5.9 -6.257 3.673 -3.551 1.207 C-2 0 -2 0 0 0 Z " fill="#4E941C" transform="translate(92,97)"/>
<path d="M0 0 C0.66 0.33 1.32 0.66 2 1 C0.473 7.395 -0.813 11.794 -6 16 C-7 13 -7 13 -5.566 9.863 C-4.909 8.674 -4.24 7.491 -3.562 6.312 C-3.224 5.706 -2.886 5.099 -2.537 4.475 C-1.7 2.978 -0.851 1.488 0 0 Z " fill="#3C8519" transform="translate(103,32)"/>
<path d="M0 0 C1.141 1.691 1.141 1.691 2 4 C1.172 6.402 1.172 6.402 -0.25 8.938 C-2.068 12.241 -3.662 15.472 -5 19 C-7 16 -7 16 -6.68 13.984 C-4.877 8.979 -2.796 4.531 0 0 Z " fill="#408A17" transform="translate(90,56)"/>
<path d="M0 0 C0.66 0.33 1.32 0.66 2 1 C1.394 6.76 -0.757 11.72 -3 17 C-3.66 16.67 -4.32 16.34 -5 16 C-4.551 13.707 -4.09 11.415 -3.625 9.125 C-3.37 7.849 -3.115 6.573 -2.852 5.258 C-2 2 -2 2 0 0 Z " fill="#266E10" transform="translate(85,43)"/>
<path d="M0 0 C1.32 0 2.64 0 4 0 C3.67 2.97 3.34 5.94 3 9 C2.34 9 1.68 9 1 9 C0.67 9.495 0.67 9.495 -1 12 C-2.188 10.5 -2.188 10.5 -3 8 C-2.271 5.212 -1.184 2.623 0 0 Z " fill="#579923" transform="translate(84,27)"/>
<path d="M0 0 C0.33 0.66 0.66 1.32 1 2 C0.039 4.023 0.039 4.023 -1.375 6.375 C-3.9 10.593 -3.9 10.593 -4.535 13.18 C-5.205 15.804 -6.793 16.576 -9 18 C-8.238 14.746 -7.268 11.6 -6.188 8.438 C-5.872 7.487 -5.556 6.537 -5.23 5.559 C-3.878 2.746 -2.619 1.631 0 0 Z " fill="#226B0D" transform="translate(101,46)"/>
<path d="M0 0 C0.371 0.062 0.371 0.062 2.25 0.375 C1.708 4.171 0.049 5.847 -2.75 8.375 C-4.07 7.715 -5.39 7.055 -6.75 6.375 C-3.427 0.467 -3.427 0.467 0 0 Z " fill="#A6D343" transform="translate(72.75,85.625)"/>
<path d="M0 0 C0.66 0.66 1.32 1.32 2 2 C1.598 7.637 -0.63 12.937 -3 18 C-3.66 18 -4.32 18 -5 18 C-4.429 11.58 -2.327 5.984 0 0 Z " fill="#3A7028" transform="translate(77,40)"/>
<path d="M0 0 C0.66 0.33 1.32 0.66 2 1 C-2.935 6.763 -7.583 11.904 -14 16 C-12.341 11.675 -9.129 8.906 -5.875 5.75 C-5.312 5.196 -4.748 4.641 -4.168 4.07 C-2.783 2.709 -1.392 1.354 0 0 Z " fill="#EDF0E1" transform="translate(137,41)"/>
<path d="M0 0 C0.33 0 0.66 0 1 0 C1.295 5.023 0.985 7.895 -2 12 C-3.32 11.34 -4.64 10.68 -6 10 C-5.34 8.35 -4.68 6.7 -4 5 C-3.34 5 -2.68 5 -2 5 C-1.34 3.35 -0.68 1.7 0 0 Z " fill="#94C933" transform="translate(61,89)"/>
<path d="M0 0 C0.33 0.99 0.66 1.98 1 3 C-0.573 5.361 -2.152 7.499 -3.938 9.688 C-4.419 10.294 -4.9 10.901 -5.396 11.525 C-6.588 13.024 -7.793 14.513 -9 16 C-9.809 14.391 -9.809 14.391 -10 12 C-8.424 9.727 -6.899 7.789 -5.062 5.75 C-4.822 5.473 -4.822 5.473 -3.604 4.07 C-2.414 2.704 -1.208 1.35 0 0 Z " fill="#52821A" transform="translate(70,126)"/>
<path d="M0 0 C0 4.127 -2.2 5.832 -4.875 8.688 C-5.335 9.199 -5.795 9.71 -6.27 10.236 C-7.466 11.535 -8.729 12.773 -10 14 C-10.66 14 -11.32 14 -12 14 C-10.362 8.596 -6.802 3.54 -1.805 0.793 C-1.209 0.531 -0.614 0.27 0 0 Z " fill="#77A832" transform="translate(45,114)"/>
<path d="M0 0 C0.66 0.33 1.32 0.66 2 1 C-3.46 5.98 -8.999 10.683 -15 15 C-15 14.01 -15 13.02 -15 12 C-12.734 9.844 -12.734 9.844 -9.75 7.5 C-8.775 6.727 -7.801 5.953 -6.797 5.156 C-4.544 3.419 -2.284 1.696 0 0 Z " fill="#418B1F" transform="translate(107,83)"/>
<path d="M0 0 C1.208 3.623 0.543 4.641 -1 8 C-1.66 8 -2.32 8 -3 8 C-3.66 9.32 -4.32 10.64 -5 12 C-6.5 10.75 -6.5 10.75 -8 9 C-8 7.68 -8 6.36 -8 5 C-6.845 4.835 -6.845 4.835 -1 4 C-0.67 2.68 -0.34 1.36 0 0 Z " fill="#245F14" transform="translate(112,30)"/>
<path d="M0 0 C1.32 0.33 2.64 0.66 4 1 C2.354 6.685 -0.29 11.767 -3 17 C-4.291 13.128 -3.223 10.558 -2.062 6.812 C-1.965 6.485 -1.965 6.485 -1.471 4.83 C-0.988 3.218 -0.495 1.609 0 0 Z " fill="#CBDEC0" transform="translate(93,29)"/>
<path d="M0 0 C0.33 0 0.66 0 1 0 C1.124 1.114 1.248 2.227 1.375 3.375 C2 7 2 7 4 9 C2.756 9.535 1.504 10.052 0.25 10.562 C-0.446 10.853 -1.142 11.143 -1.859 11.441 C-4.3 12.078 -5.64 11.802 -8 11 C-8 10.34 -8 9.68 -8 9 C-5.36 8.67 -2.72 8.34 0 8 C0 5.36 0 2.72 0 0 Z " fill="#D9B066" transform="translate(15,147)"/>
<path d="M0 0 C-1.555 4.011 -4.142 6.072 -7.438 8.75 C-8.406 9.549 -9.374 10.348 -10.371 11.172 C-13 13 -13 13 -16 13 C-12.876 9.775 -9.637 6.706 -6.312 3.688 C-5.546 2.99 -4.779 2.293 -3.988 1.574 C-2 0 -2 0 0 0 Z " fill="#20581A" transform="translate(105,95)"/>
<path d="M0 0 C0.33 0.99 0.66 1.98 1 3 C-0.293 5.559 -0.293 5.559 -2.188 8.438 C-2.8 9.385 -3.412 10.332 -4.043 11.309 C-5.86 13.807 -7.751 15.891 -10 18 C-10.66 17.67 -11.32 17.34 -12 17 C-11.693 16.596 -11.693 16.596 -10.137 14.551 C-9.32 13.471 -8.504 12.392 -7.688 11.312 C-7.283 10.782 -6.879 10.252 -6.463 9.705 C-4.099 6.573 -1.952 3.404 0 0 Z " fill="#EFE1B5" transform="translate(52,147)"/>
<path d="M0 0 C2 1.5 2 1.5 4 4 C4.358 6.759 4.187 9.201 4 12 C3.67 12.165 3.67 12.165 2 13 C1.34 12.34 0.68 11.68 0 11 C-0.33 11.165 -0.33 11.165 -2 12 C-1.67 11.134 -1.34 10.267 -1 9.375 C-0.013 6.043 0.164 3.448 0 0 Z " fill="#2F721C" transform="translate(133,30)"/>
<path d="M0 0 C1 2 1 2 0.375 4.438 C-1.311 7.579 -2.845 8.422 -6 10 C-6.763 10.392 -7.526 10.784 -8.312 11.188 C-8.869 11.456 -9.426 11.724 -10 12 C-8.523 8.548 -6.562 6.35 -3.875 3.75 C-3.151 3.044 -2.426 2.337 -1.68 1.609 C-1.125 1.078 -0.571 0.547 0 0 Z " fill="#42871B" transform="translate(122,42)"/>
<path d="M0 0 C0.66 0.99 1.32 1.98 2 3 C0.38 5.316 -1.246 7.628 -2.875 9.938 C-3.335 10.597 -3.795 11.256 -4.27 11.936 C-7.773 16.887 -7.773 16.887 -10 18 C-8.58 14.082 -6.715 10.797 -4.438 7.312 C-1.067 2.135 -1.067 2.135 0 0 Z " fill="#498423" transform="translate(52,99)"/>
<path d="M0 0 C2 3 2 3 1.875 5.812 C0.87 9.472 -0.758 11.962 -3 15 C-4.285 11.145 -3.405 9.597 -2.062 5.812 C-1.682 4.726 -1.302 3.639 -0.91 2.52 C-0.61 1.688 -0.309 0.857 0 0 Z " fill="#0F4C06" transform="translate(87,44)"/>
<path d="M0 0 C0.66 1.32 1.32 2.64 2 4 C0.02 6.97 -1.96 9.94 -4 13 C-4.66 11.68 -5.32 10.36 -6 9 C-4.02 6.03 -2.04 3.06 0 0 Z " fill="#9EC637" transform="translate(65,113)"/>
<path d="M0 0 C0.99 0.33 1.98 0.66 3 1 C2.01 3.97 1.02 6.94 0 10 C-0.66 9.67 -1.32 9.34 -2 9 C-2.812 6.125 -2.812 6.125 -3 3 C-1.562 1.125 -1.562 1.125 0 0 Z " fill="#579D25" transform="translate(80,44)"/>
<path d="M0 0 C1.32 0 2.64 0 4 0 C3.508 6.523 3.508 6.523 0.938 8.938 C0.298 9.288 -0.341 9.639 -1 10 C-0.34 8.35 0.32 6.7 1 5 C0.01 5 -0.98 5 -2 5 C-1.34 3.35 -0.68 1.7 0 0 Z " fill="#A6D03F" transform="translate(54,100)"/>
<path d="M0 0 C-0.33 2.97 -0.66 5.94 -1 9 C-2.65 9.33 -4.3 9.66 -6 10 C-3.903 0 -3.903 0 0 0 Z " fill="#357F18" transform="translate(89,35)"/>
<path d="M0 0 C1.32 0.33 2.64 0.66 4 1 C3.01 2.98 2.02 4.96 1 7 C-0.98 7 -2.96 7 -5 7 C-5.33 5.02 -5.66 3.04 -6 1 C-5.34 1 -4.68 1 -4 1 C-3.897 1.639 -3.794 2.279 -3.688 2.938 C-3.461 3.618 -3.234 4.299 -3 5 C-2.01 5.33 -1.02 5.66 0 6 C0 4.02 0 2.04 0 0 Z " fill="#E6D0A0" transform="translate(34,170)"/>
<path d="M0 0 C0.66 0.33 1.32 0.66 2 1 C0.35 3.31 -1.3 5.62 -3 8 C-4.65 7.67 -6.3 7.34 -8 7 C-5.422 4.352 -3.084 2.056 0 0 Z " fill="#D9ED7A" transform="translate(56,111)"/>
<path d="M0 0 C0.33 0.99 0.66 1.98 1 3 C-2.3 6.63 -5.6 10.26 -9 14 C-9.33 13.34 -9.66 12.68 -10 12 C-9.529 11.469 -9.059 10.938 -8.574 10.391 C-7.952 9.684 -7.329 8.978 -6.688 8.25 C-6.073 7.554 -5.458 6.858 -4.824 6.141 C-3.127 4.149 -1.545 2.111 0 0 Z " fill="#1C5907" transform="translate(87,93)"/>
<path d="M0 0 C0.66 0.66 1.32 1.32 2 2 C-1.63 6.62 -5.26 11.24 -9 16 C-9 11.86 -6.832 9.544 -4.5 6.312 C-4.071 5.706 -3.641 5.099 -3.199 4.475 C-2.139 2.979 -1.07 1.489 0 0 Z " fill="#21670A" transform="translate(87,71)"/>
<path d="M0 0 C1.246 3.5 0.789 5.291 -0.75 8.625 C-1.095 9.401 -1.441 10.177 -1.797 10.977 C-3 13 -3 13 -6 15 C-4.36 9.767 -2.61 4.848 0 0 Z " fill="#438C1D" transform="translate(78,56)"/>
<path d="M0 0 C0.99 0.33 1.98 0.66 3 1 C2.01 3.64 1.02 6.28 0 9 C-1.32 8.67 -2.64 8.34 -4 8 C-3.67 6.68 -3.34 5.36 -3 4 C-2.34 4 -1.68 4 -1 4 C-0.67 2.68 -0.34 1.36 0 0 Z " fill="#4F9320" transform="translate(102,26)"/>
<path d="M0 0 C0.66 0.99 1.32 1.98 2 3 C-0.31 5.97 -2.62 8.94 -5 12 C-5.33 11.01 -5.66 10.02 -6 9 C-4.785 6.738 -4.785 6.738 -3.062 4.312 C-2.497 3.504 -1.931 2.696 -1.348 1.863 C-0.903 1.248 -0.458 0.634 0 0 Z " fill="#B3AA51" transform="translate(59,140)"/>
<path d="M0 0 C0.289 0.113 0.289 0.113 1.75 0.688 C1 3.125 1 3.125 -0.25 5.688 C-2.375 6.5 -2.375 6.5 -4.25 6.688 C-4.91 5.368 -5.57 4.048 -6.25 2.688 C-2.804 -0.389 -2.804 -0.389 0 0 Z " fill="#DCD38F" transform="translate(59.25,135.3125)"/>
<path d="M0 0 C0.99 0 1.98 0 3 0 C3.812 2.188 3.812 2.188 4 5 C1.562 7.812 1.562 7.812 -1 10 C-0.979 9.216 -0.959 8.433 -0.938 7.625 C-1 5 -1 5 -2 3 C-1.34 2.01 -0.68 1.02 0 0 Z " fill="#F7F3C8" transform="translate(50,120)"/>
<path d="M0 0 C0.66 0.66 1.32 1.32 2 2 C0.759 3.632 -0.493 5.255 -1.75 6.875 C-2.446 7.78 -3.142 8.685 -3.859 9.617 C-5.866 11.85 -7.243 12.92 -10 14 C-10 10.717 -7.257 9.257 -5 7 C-3.247 4.717 -1.63 2.375 0 0 Z " fill="#EAD9B4" transform="translate(51,156)"/>
<path d="M0 0 C-0.498 3.688 -1.101 5.605 -4 8 C-4.66 7.67 -5.32 7.34 -6 7 C-6 4 -6 4 -4.125 1.812 C-2 0 -2 0 0 0 Z " fill="#EDEEAE" transform="translate(45,118)"/>
<path d="M0 0 C0.33 0.99 0.66 1.98 1 3 C-1.516 5.606 -4.051 7.894 -7 10 C-7.188 7.125 -7.188 7.125 -7 4 C-6.01 3.34 -5.02 2.68 -4 2 C-3.67 2.33 -3.34 2.66 -3 3 C-2.01 2.01 -1.02 1.02 0 0 Z " fill="#A2D03D" transform="translate(78,91)"/>
<path d="M0 0 C0.66 0.33 1.32 0.66 2 1 C0.375 6.75 0.375 6.75 -3 9 C-3.66 8.67 -4.32 8.34 -5 8 C-3.814 4.625 -2.724 2.353 0 0 Z " fill="#50951D" transform="translate(94,73)"/>
<path d="M0 0 C2 3 2 3 2 6 C-3.75 7 -3.75 7 -6 7 C-5.67 6.01 -5.34 5.02 -5 4 C-4.01 4.33 -3.02 4.66 -2 5 C-1.34 3.35 -0.68 1.7 0 0 Z " fill="#E9D09D" transform="translate(21,168)"/>
<path d="M0 0 C0 3.441 -0.837 5.076 -2.375 8.125 C-2.816 9.014 -3.257 9.904 -3.711 10.82 C-5 13 -5 13 -7 14 C-5.432 8.547 -3.962 4.235 0 0 Z " fill="#2F7610" transform="translate(93,58)"/>
<path d="M0 0 C0.825 0.165 0.825 0.165 5 1 C5.33 2.32 5.66 3.64 6 5 C5.34 4.67 4.68 4.34 4 4 C3.67 5.65 3.34 7.3 3 9 C2.34 9 1.68 9 1 9 C0.67 6.03 0.34 3.06 0 0 Z " fill="#A76E11" transform="translate(27,161)"/>
<path d="M0 0 C0.33 0.99 0.66 1.98 1 3 C0.67 3.66 0.34 4.32 0 5 C0.99 5.33 1.98 5.66 3 6 C1.02 6.33 -0.96 6.66 -3 7 C-3.33 5.35 -3.66 3.7 -4 2 C-2.68 1.34 -1.36 0.68 0 0 Z " fill="#E1CD94" transform="translate(37,161)"/>
<path d="M0 0 C-1.491 3.795 -3.757 5.61 -7 8 C-7.66 7.34 -8.32 6.68 -9 6 C-7.88 4.994 -6.754 3.995 -5.625 3 C-5.312 2.722 -5.312 2.722 -3.727 1.312 C-2 0 -2 0 0 0 Z " fill="#336C23" transform="translate(90,108)"/>
<path d="M0 0 C0 2 0 2 -1.609 3.656 C-2.316 4.265 -3.022 4.873 -3.75 5.5 C-4.446 6.108 -5.142 6.717 -5.859 7.344 C-7.845 8.88 -9.719 9.972 -12 11 C-2.73 0 -2.73 0 0 0 Z " fill="#4D8F20" transform="translate(122,37)"/>
<path d="M0 0 C0.66 0 1.32 0 2 0 C1.505 1.815 1.505 1.815 -1 11 C-0.34 11.33 0.32 11.66 1 12 C0.01 12 -0.98 12 -2 12 C-2.054 10.563 -2.093 9.125 -2.125 7.688 C-2.148 6.887 -2.171 6.086 -2.195 5.262 C-2 3 -2 3 0 0 Z " fill="#BFA155" transform="translate(18,142)"/>
<path d="M0 0 C0.66 0 1.32 0 2 0 C1.47 4.508 -0.252 7.42 -3 11 C-3.66 11 -4.32 11 -5 11 C-4.732 10.484 -4.464 9.969 -4.188 9.438 C-2.677 6.336 -1.344 3.177 0 0 Z " fill="#71B42F" transform="translate(83,65)"/>
<path d="M0 0 C1.033 2.788 1.045 3.868 0.062 6.75 C-0.288 7.493 -0.639 8.235 -1 9 C-1.99 8.67 -2.98 8.34 -4 8 C-3.401 5.648 -2.731 3.314 -2 1 C-1.34 0.67 -0.68 0.34 0 0 Z " fill="#73B234" transform="translate(74,60)"/>
<path d="M0 0 C0.33 0.66 0.66 1.32 1 2 C-1.31 4.64 -3.62 7.28 -6 10 C-6.66 9.34 -7.32 8.68 -8 8 C-5.36 5.36 -2.72 2.72 0 0 Z " fill="#3B841A" transform="translate(112,56)"/>
<path d="M0 0 C0.66 0.33 1.32 0.66 2 1 C-0.31 3.64 -2.62 6.28 -5 9 C-5.99 8.67 -6.98 8.34 -8 8 C-5.36 5.36 -2.72 2.72 0 0 Z " fill="#1F491A" transform="translate(117,37)"/>
<path d="M0 0 C0.33 1.32 0.66 2.64 1 4 C1.99 4 2.98 4 4 4 C4 5.32 4 6.64 4 8 C2.35 7.67 0.7 7.34 -1 7 C-0.67 4.69 -0.34 2.38 0 0 Z " fill="#EEDBAB" transform="translate(18,146)"/>
<path d="M0 0 C0.934 3.01 1.044 3.867 0 7 C-0.99 6.835 -0.99 6.835 -6 6 C-4 4 -2 2 0 0 Z " fill="#CACF6F" transform="translate(61,130)"/>
<path d="M0 0 C1.32 0 2.64 0 4 0 C2.75 3.653 2.329 4.781 -1 7 C-1.33 6.34 -1.66 5.68 -2 5 C-1.062 2.375 -1.062 2.375 0 0 Z " fill="#B5DB4D" transform="translate(51,105)"/>
<path d="M0 0 C0.33 0.99 0.66 1.98 1 3 C2.98 3 4.96 3 7 3 C7 3.66 7 4.32 7 5 C4.36 5.33 1.72 5.66 -1 6 C-1.043 4.334 -1.041 2.666 -1 1 C-0.67 0.67 -0.34 0.34 0 0 Z " fill="#B88F3A" transform="translate(33,165)"/>
<path d="M0 0 C-1.555 3.817 -4.036 6.192 -7 9 C-4.4 0 -4.4 0 0 0 Z " fill="#CFDFC2" transform="translate(112,41)"/>
<path d="M0 0 C0.33 0.99 0.66 1.98 1 3 C0.67 3.495 0.67 3.495 -1 6 C-1.66 6 -2.32 6 -3 6 C-3.66 7.32 -4.32 8.64 -5 10 C-5.33 9.34 -5.66 8.68 -6 8 C-4.02 5.36 -2.04 2.72 0 0 Z " fill="#E7C06A" transform="translate(23,160)"/>
<path d="M0 0 C2.007 0.287 4.009 0.619 6 1 C3.351 3.649 0.338 5.331 -3 7 C-1.125 1.125 -1.125 1.125 0 0 Z " fill="#F5EAD1" transform="translate(55,150)"/>
<path d="M0 0 C0.66 0.66 1.32 1.32 2 2 C-0.31 4.31 -2.62 6.62 -5 9 C-5.33 8.34 -5.66 7.68 -6 7 C-4.02 4.69 -2.04 2.38 0 0 Z " fill="#437F0F" transform="translate(76,106)"/>
<path d="M0 0 C1.65 0 3.3 0 5 0 C4.34 2.31 3.68 4.62 3 7 C2.897 6.361 2.794 5.721 2.688 5.062 C2.461 4.382 2.234 3.701 2 3 C1.01 2.67 0.02 2.34 -1 2 C-0.67 1.34 -0.34 0.68 0 0 Z " fill="#AED74A" transform="translate(65,93)"/>
<path d="M0 0 C-1 2 -2 4 -3 6 C-3.66 6 -4.32 6 -5 6 C-5.33 5.01 -5.66 4.02 -6 3 C-3.375 0 -3.375 0 0 0 Z " fill="#5BA222" transform="translate(132,30)"/>
<path d="M0 0 C0.66 0.33 1.32 0.66 2 1 C1.312 2.938 1.312 2.938 0 5 C-2.625 5.75 -2.625 5.75 -5 6 C-3.35 4.02 -1.7 2.04 0 0 Z " fill="#F6F4D8" transform="translate(38,124)"/>
<path d="M0 0 C0.66 0.33 1.32 0.66 2 1 C1.34 3.64 0.68 6.28 0 9 C-2 6 -2 6 -1.688 3.375 C-1 1 -1 1 0 0 Z " fill="#85B72C" transform="translate(71,104)"/>
<path d="M0 0 C0.66 0 1.32 0 2 0 C0.792 4.431 -0.517 6.981 -4 10 C-3.524 8.52 -3.044 7.041 -2.562 5.562 C-2.296 4.739 -2.029 3.915 -1.754 3.066 C-1 1 -1 1 0 0 Z " fill="#256F0B" transform="translate(70,81)"/>
<path d="M0 0 C0.66 0 1.32 0 2 0 C1.25 6.625 1.25 6.625 -1 10 C-2.158 5.946 -1.837 3.782 0 0 Z " fill="#3A7824" transform="translate(70,59)"/>
<path d="M0 0 C0.66 0.66 1.32 1.32 2 2 C0.02 4.31 -1.96 6.62 -4 9 C-4.33 8.01 -4.66 7.02 -5 6 C-3.596 3.736 -1.803 1.979 0 0 Z " fill="#9AAC2D" transform="translate(59,127)"/>
<path d="M0 0 C0.66 0.99 1.32 1.98 2 3 C0.35 4.32 -1.3 5.64 -3 7 C-3.33 6.01 -3.66 5.02 -4 4 C-2.68 2.68 -1.36 1.36 0 0 Z " fill="#C6DF58" transform="translate(48,113)"/>
<path d="M0 0 C0.402 0.01 0.402 0.01 2.438 0.062 C1.864 2.93 1.576 3.924 -0.562 6.062 C-0.892 5.073 -1.222 4.082 -1.562 3.062 C-2.222 2.403 -2.882 1.743 -3.562 1.062 C-2.562 0.062 -2.562 0.062 0 0 Z " fill="#99CC3C" transform="translate(72.5625,85.9375)"/>
<path d="M0 0 C0.66 0.66 1.32 1.32 2 2 C-0.64 4.31 -3.28 6.62 -6 9 C-6.66 8.67 -7.32 8.34 -8 8 C-5.36 5.36 -2.72 2.72 0 0 Z " fill="#BFD4AF" transform="translate(120,59)"/>
<path d="M0 0 C0.33 0.66 0.66 1.32 1 2 C-0.312 4.625 -0.312 4.625 -2 7 C-2.66 7 -3.32 7 -4 7 C-3.688 4.625 -3.688 4.625 -3 2 C-2.01 1.34 -1.02 0.68 0 0 Z " fill="#66AE2A" transform="translate(97,41)"/>
<path d="M0 0 C0.33 0.99 0.66 1.98 1 3 C0.01 3.825 0.01 3.825 -5 8 C-5 5 -5 5 -2.5 2.312 C-1.675 1.549 -0.85 0.786 0 0 Z " fill="#336823" transform="translate(124,30)"/>
<path d="M0 0 C0.66 0.99 1.32 1.98 2 3 C1.125 6.688 1.125 6.688 0 10 C-0.66 10 -1.32 10 -2 10 C-1.542 6.531 -1.109 3.326 0 0 Z " fill="#306421" transform="translate(80,32)"/>
<path d="M0 0 C2.125 0.938 2.125 0.938 4 2 C3.67 2.66 3.34 3.32 3 4 C-0.062 4.625 -0.062 4.625 -3 5 C-2.625 3.062 -2.625 3.062 -2 1 C-1.34 0.67 -0.68 0.34 0 0 Z " fill="#2B6F12" transform="translate(108,30)"/>
<path d="M0 0 C0.33 0.99 0.66 1.98 1 3 C-0.938 6.188 -0.938 6.188 -3 9 C-4 6 -4 6 -3.188 3.375 C-2 1 -2 1 0 0 Z " fill="#B97A19" transform="translate(21,159)"/>
<path d="M0 0 C0.66 0 1.32 0 2 0 C0.375 6.75 0.375 6.75 -3 9 C-2.443 5.656 -1.648 2.967 0 0 Z " fill="#296515" transform="translate(56,92)"/>
<path d="M0 0 C0.66 0.66 1.32 1.32 2 2 C1.67 5.297 1.377 6.623 -1 9 C-2.033 6.212 -2.045 5.132 -1.062 2.25 C-0.712 1.507 -0.361 0.765 0 0 Z " fill="#3E8715" transform="translate(71,72)"/>
<path d="M0 0 C0.33 0 0.66 0 1 0 C0.67 2.31 0.34 4.62 0 7 C-0.99 6.67 -1.98 6.34 -3 6 C-1.125 1.125 -1.125 1.125 0 0 Z " fill="#8AC542" transform="translate(71,67)"/>
<path d="M0 0 C0 0.99 0 1.98 0 3 C-1.98 3.66 -3.96 4.32 -6 5 C-6 4.01 -6 3.02 -6 2 C-3 0 -3 0 0 0 Z " fill="#356F28" transform="translate(125,60)"/>
<path d="M0 0 C0.33 0.66 0.66 1.32 1 2 C0.004 3.945 0.004 3.945 -1.438 6.125 C-1.911 6.849 -2.384 7.574 -2.871 8.32 C-3.244 8.875 -3.616 9.429 -4 10 C-4.33 9.01 -4.66 8.02 -5 7 C-4.004 5.176 -4.004 5.176 -2.562 3.312 C-2.089 2.69 -1.616 2.067 -1.129 1.426 C-0.756 0.955 -0.384 0.485 0 0 Z " fill="#69AB30" transform="translate(90,54)"/>
<path d="M0 0 C0.66 0 1.32 0 2 0 C2 0.99 2 1.98 2 3 C2.66 3 3.32 3 4 3 C3.34 4.32 2.68 5.64 2 7 C1.34 6.67 0.68 6.34 0 6 C0.33 4.68 0.66 3.36 1 2 C0.34 1.67 -0.32 1.34 -1 1 C-0.67 0.67 -0.34 0.34 0 0 Z " fill="#9BC033" transform="translate(64,125)"/>
<path d="M0 0 C-1.393 3.367 -2.979 4.986 -6 7 C-5.372 3.355 -4.147 0 0 0 Z " fill="#306E13" transform="translate(77,121)"/>
<path d="M0 0 C1.32 0.33 2.64 0.66 4 1 C3.01 1.825 3.01 1.825 -2 6 C-2.66 5.67 -3.32 5.34 -4 5 C-2.68 3.35 -1.36 1.7 0 0 Z " fill="#65A626" transform="translate(90,70)"/>
<path d="M0 0 C0 0.99 0 1.98 0 3 C-2.31 2.67 -4.62 2.34 -7 2 C-7 1.34 -7 0.68 -7 0 C-4.333 -1.333 -2.833 -0.671 0 0 Z " fill="#305F28" transform="translate(137,59)"/>
<path d="M0 0 C0.99 0.33 1.98 0.66 3 1 C3.33 3.97 3.66 6.94 4 10 C3.34 9.67 2.68 9.34 2 9 C1.438 6.688 1.438 6.688 1 4 C0.675 2.665 0.345 1.33 0 0 Z " fill="#2D721A" transform="translate(110,21)"/>
</svg>
