<?xml version="1.0" encoding="UTF-8"?>
<!-- Generator: visioncortex VTracer 0.6.12 -->
<svg version="1.1" xmlns="http://www.w3.org/2000/svg" width="164" height="185">
<path d="M0 0 C54.12 0 108.24 0 164 0 C164 61.05 164 122.1 164 185 C109.88 185 55.76 185 0 185 C0 123.95 0 62.9 0 0 Z " fill="#FCF7EB" transform="translate(0,0)"/>
<path d="M0 0 C0.369 -0.008 0.369 -0.008 2.236 -0.047 C7.434 -0.01 10.445 1.089 14.562 4.5 C14.727 4.83 14.727 4.83 15.562 6.5 C16.532 6.974 17.501 7.449 18.5 7.938 C21.562 9.5 21.562 9.5 23.562 12.5 C23.941 14.727 23.941 14.727 24.125 17.125 C24.464 21.402 24.464 21.402 25.562 22.5 C25.662 24.102 25.692 25.708 25.688 27.312 C25.689 27.749 25.689 27.749 25.695 29.957 C25.573 32.305 25.171 34.241 24.562 36.5 C24.399 37.852 24.253 39.207 24.125 40.562 C23.562 44.5 23.562 44.5 21.562 47.5 C21.192 49.071 20.885 50.657 20.625 52.25 C19.806 56.717 18.518 60.411 16.562 64.5 C17.157 64.283 17.751 64.067 18.363 63.844 C24.737 61.703 30.831 60.6 37.562 61.5 C38.222 62.16 38.882 62.82 39.562 63.5 C39.437 66.808 38.875 68.177 36.559 70.57 C35.714 71.248 34.87 71.926 34 72.625 C28.129 77.644 23.04 83.544 19.562 90.5 C20.016 90.562 20.016 90.562 22.312 90.875 C25.152 91.421 27.088 92.073 29.562 93.5 C29.562 95.15 29.562 96.8 29.562 98.5 C29.067 98.748 29.067 98.748 26.562 100.004 C25.229 100.69 23.896 101.376 22.562 102.062 C22.238 102.224 22.238 102.224 20.598 103.041 C11.71 107.661 5.815 113.977 0.25 122.188 C-5.144 129.888 -10.791 136.843 -17.438 143.5 C-18.122 144.196 -18.806 144.892 -19.512 145.609 C-27.663 153.347 -38.386 157.313 -49.5 157.75 C-54.93 158.086 -54.93 158.086 -57.191 159.93 C-57.644 160.489 -58.096 161.049 -58.562 161.625 C-60.299 163.739 -60.952 164.425 -63.699 164.848 C-71.321 164.369 -77.023 161.082 -83 156.562 C-84.98 153.722 -84.785 151.902 -84.438 148.5 C-84.19 147.654 -83.942 146.809 -83.688 145.938 C-83.438 143.5 -83.438 143.5 -85.125 141.312 C-85.888 140.384 -86.651 139.456 -87.438 138.5 C-93.225 129.341 -92.909 116.819 -91.074 106.447 C-89.996 101.951 -88.29 97.722 -86.438 93.5 C-86.073 92.668 -85.709 91.836 -85.333 90.979 C-83.049 85.807 -80.708 80.666 -78.298 75.552 C-76.382 70.983 -76.277 66.688 -76.227 61.777 C-76.199 60.255 -76.17 58.732 -76.141 57.209 C-76.099 54.817 -76.062 52.425 -76.036 50.033 C-76.009 47.718 -75.963 45.404 -75.914 43.09 C-75.911 42.374 -75.908 41.658 -75.904 40.921 C-75.831 37.969 -75.77 35.968 -74.033 33.52 C-72.438 32.5 -72.438 32.5 -70.434 32.594 C-64.36 35.351 -60.052 44.635 -57.438 50.5 C-57.438 51.49 -57.438 52.48 -57.438 53.5 C-54.963 51.497 -54.245 50.031 -53 47 C-51.438 43.5 -51.438 43.5 -49.5 42.062 C-46.742 39.973 -45.843 37.56 -44.465 34.438 C-43.348 32.332 -42.3 30.986 -40.438 29.5 C-39.447 29.5 -38.458 29.5 -37.438 29.5 C-37.396 28.613 -37.355 27.726 -37.312 26.812 C-36.151 22.417 -34.032 21.16 -30.438 18.5 C-28.303 16.502 -26.541 14.367 -24.75 12.062 C-22.007 8.815 -19.367 7.14 -15.465 5.52 C-13.438 4.5 -13.438 4.5 -11.219 2.418 C-7.419 -0.203 -4.507 -0.094 0 0 Z " fill="#E9A305" transform="translate(116.4375,14.5)"/>
<path d="M0 0 C5.982 2.716 10.576 12.04 12.996 17.906 C13.36 20.414 13.267 22.364 12.996 24.906 C12.336 24.906 11.676 24.906 10.996 24.906 C10.996 27.876 10.996 30.846 10.996 33.906 C10.666 34.071 10.666 34.071 8.996 34.906 C8.969 37.031 8.95 39.156 8.934 41.281 C8.922 42.465 8.91 43.648 8.898 44.867 C8.996 47.906 8.996 47.906 9.996 49.906 C9.006 50.566 8.016 51.226 6.996 51.906 C6.555 54.699 6.555 54.699 6.434 58.094 C6.297 61.648 6.106 64.577 4.977 67.961 C3.198 73.713 3.79 79.893 3.871 85.844 C3.88 87.1 3.889 88.356 3.898 89.65 C3.922 92.736 3.955 95.821 3.996 98.906 C4.71 98.178 5.424 97.45 6.16 96.699 C23.164 79.953 45.45 65.257 68.621 59.223 C74.567 57.536 74.567 57.536 76.871 54.156 C77.242 53.084 77.614 52.011 77.996 50.906 C78.706 49.262 79.415 47.617 80.125 45.973 C80.803 44.365 81.45 42.745 82.086 41.121 C85.258 33.429 85.258 33.429 88.996 30.781 C93.62 29.433 97.86 28.752 102.684 28.719 C103.16 28.712 103.16 28.712 105.57 28.676 C107.996 28.906 107.996 28.906 109.996 30.906 C109.871 34.215 109.309 35.583 106.992 37.977 C106.148 38.655 105.304 39.333 104.434 40.031 C98.562 45.05 93.474 50.951 89.996 57.906 C90.45 57.968 90.45 57.968 92.746 58.281 C95.586 58.827 97.522 59.479 99.996 60.906 C99.996 62.556 99.996 64.206 99.996 65.906 C99.501 66.154 99.501 66.154 96.996 67.41 C95.662 68.096 94.329 68.782 92.996 69.469 C92.672 69.63 92.672 69.63 91.031 70.447 C82.144 75.067 76.249 81.383 70.684 89.594 C65.29 97.294 59.643 104.249 52.996 110.906 C52.312 111.602 51.627 112.298 50.922 113.016 C42.771 120.753 32.048 124.719 20.934 125.156 C15.503 125.493 15.503 125.493 13.242 127.336 C12.79 127.895 12.337 128.455 11.871 129.031 C10.134 131.145 9.481 131.832 6.734 132.254 C-0.887 131.775 -6.589 128.488 -12.566 123.969 C-14.546 121.128 -14.351 119.308 -14.004 115.906 C-13.756 115.061 -13.509 114.215 -13.254 113.344 C-13.004 110.906 -13.004 110.906 -14.691 108.719 C-15.455 107.791 -16.218 106.863 -17.004 105.906 C-22.792 96.747 -22.476 84.225 -20.641 73.853 C-19.562 69.357 -17.856 65.128 -16.004 60.906 C-15.64 60.074 -15.275 59.242 -14.9 58.385 C-12.616 53.214 -10.274 48.072 -7.864 42.958 C-5.948 38.389 -5.843 34.094 -5.793 29.184 C-5.765 27.661 -5.736 26.138 -5.707 24.615 C-5.666 22.223 -5.629 19.831 -5.603 17.439 C-5.575 15.124 -5.529 12.811 -5.48 10.496 C-5.477 9.78 -5.474 9.065 -5.471 8.327 C-5.397 5.375 -5.336 3.375 -3.599 0.926 C-2.004 -0.094 -2.004 -0.094 0 0 Z " fill="#65A30F" transform="translate(46.00390625,47.09375)"/>
<path d="M0 0 C4.255 0.288 7.223 0.619 11.062 2.5 C13.315 5.406 13.241 6.15 12.938 9.688 C12.59 12.074 12.59 12.074 12 14 C11.34 14.33 10.68 14.66 10 15 C10 16.32 10 17.64 10 19 C10.866 19.227 11.733 19.454 12.625 19.688 C16.792 21.308 18.906 22.758 22 26 C22.5 29.188 22.5 29.188 22 32 C21.67 32.33 21.67 32.33 20 34 C18.68 34 17.36 34 16 34 C16.33 34.66 16.66 35.32 17 36 C17.409 40.597 16.9 43.348 14 47 C13.01 47 12.02 47 11 47 C11.083 47.928 11.165 48.856 11.25 49.812 C11 53 11 53 9.344 54.719 C6.337 56.362 4.617 56.128 1.25 55.688 C0.265 55.568 -0.72 55.448 -1.734 55.324 C-2.482 55.217 -3.23 55.11 -4 55 C-4.625 52.625 -4.625 52.625 -5 50 C-4.34 49.34 -3.68 48.68 -3 48 C-2.286 46.016 -1.614 44.017 -1 42 C0.32 42 1.64 42 3 42 C2.125 37.125 2.125 37.125 1 36 C0.34 36.66 -0.32 37.32 -1 38 C-5.67 37.733 -9.098 35.372 -13 33 C-13 33.66 -13 34.32 -13 35 C-12.257 35.083 -11.515 35.165 -10.75 35.25 C-7.325 36.184 -6.056 37.106 -4 40 C-3.575 43.458 -3.299 45.832 -5.125 48.875 C-7.674 50.404 -10.072 50.675 -13 51 C-12.34 51.66 -11.68 52.32 -11 53 C-10.444 59.889 -10.444 59.889 -12.25 63.5 C-14 65 -14 65 -18 65 C-17.983 65.307 -17.983 65.307 -17.895 66.863 C-17.867 67.672 -17.84 68.48 -17.812 69.312 C-17.795 69.713 -17.795 69.713 -17.707 71.738 C-18 74 -18 74 -19.348 75.758 C-21 77 -21 77 -23.625 77.562 C-28.725 76.713 -33.33 73.67 -37 70 C-37.468 65.792 -36.58 63.344 -34 60 C-33.01 60 -32.02 60 -31 60 C-31 58.35 -31 56.7 -31 55 C-32.65 55.66 -34.3 56.32 -36 57 C-35.67 57.99 -35.34 58.98 -35 60 C-36.073 62.517 -37.548 64.668 -39 67 C-43.564 66.52 -43.564 66.52 -45.312 64.438 C-46.335 60.814 -46.243 57.769 -46 54 C-45.34 53.34 -44.68 52.68 -44 52 C-44.33 51.67 -44.66 51.34 -45 51 C-45.073 48.814 -45.084 46.625 -45.062 44.438 C-45.053 43.24 -45.044 42.042 -45.035 40.809 C-45.024 39.882 -45.012 38.955 -45 38 C-44.505 37.835 -44.505 37.835 -42 37 C-42.035 36.374 -42.07 35.747 -42.105 35.102 C-42.119 34.693 -42.119 34.693 -42.188 32.625 C-42.222 31.813 -42.257 31.001 -42.293 30.164 C-42.196 29.45 -42.1 28.736 -42 28 C-38.607 25.738 -37.937 25.572 -34 26 C-28.796 27.275 -24.317 28.529 -21 33 C-21 33.66 -21 34.32 -21 35 C-19.02 34.01 -17.04 33.02 -15 32 C-15.33 31.67 -15.66 31.34 -16 31 C-15.699 25.777 -14.793 22.681 -11 19 C-10.01 19 -9.02 19 -8 19 C-8.062 18.093 -8.124 17.185 -8.188 16.25 C-7.981 12.671 -7.653 11.379 -5 9 C-2.312 8.75 -2.312 8.75 0 9 C-0.186 7.886 -0.371 6.773 -0.562 5.625 C-1 2 -1 2 0 0 Z " fill="#F5B70C" transform="translate(99,44)"/>
<path d="M0 0 C5.982 2.716 10.576 12.04 12.996 17.906 C13.36 20.414 13.267 22.364 12.996 24.906 C12.336 24.906 11.676 24.906 10.996 24.906 C10.996 27.876 10.996 30.846 10.996 33.906 C10.666 34.071 10.666 34.071 8.996 34.906 C8.969 37.031 8.95 39.156 8.934 41.281 C8.922 42.465 8.91 43.648 8.898 44.867 C8.996 47.906 8.996 47.906 9.996 49.906 C9.006 50.566 8.016 51.226 6.996 51.906 C6.555 54.699 6.555 54.699 6.434 58.094 C6.297 61.648 6.106 64.577 4.977 67.961 C3.198 73.713 3.79 79.893 3.871 85.844 C3.88 87.1 3.889 88.356 3.898 89.65 C3.922 92.736 3.955 95.821 3.996 98.906 C4.71 98.178 5.424 97.45 6.16 96.699 C23.164 79.953 45.45 65.257 68.621 59.223 C74.567 57.536 74.567 57.536 76.871 54.156 C77.242 53.084 77.614 52.011 77.996 50.906 C78.706 49.262 79.415 47.617 80.125 45.973 C80.803 44.365 81.45 42.745 82.086 41.121 C85.258 33.429 85.258 33.429 88.996 30.781 C93.62 29.433 97.86 28.752 102.684 28.719 C103.16 28.712 103.16 28.712 105.57 28.676 C107.996 28.906 107.996 28.906 109.996 30.906 C109.871 34.215 109.309 35.583 106.992 37.977 C106.148 38.655 105.304 39.333 104.434 40.031 C98.562 45.05 93.474 50.951 89.996 57.906 C90.45 57.968 90.45 57.968 92.746 58.281 C95.586 58.827 97.522 59.479 99.996 60.906 C99.996 62.556 99.996 64.206 99.996 65.906 C99.501 66.154 99.501 66.154 96.996 67.41 C95.662 68.096 94.329 68.782 92.996 69.469 C92.672 69.63 92.672 69.63 91.031 70.447 C82.144 75.067 76.249 81.383 70.684 89.594 C65.29 97.294 59.643 104.249 52.996 110.906 C52.312 111.602 51.627 112.298 50.922 113.016 C42.771 120.753 32.048 124.719 20.934 125.156 C15.503 125.493 15.503 125.493 13.242 127.336 C12.79 127.895 12.337 128.455 11.871 129.031 C10.134 131.145 9.481 131.832 6.734 132.254 C-0.887 131.775 -6.589 128.488 -12.566 123.969 C-14.546 121.128 -14.351 119.308 -14.004 115.906 C-13.756 115.061 -13.509 114.215 -13.254 113.344 C-13.004 110.906 -13.004 110.906 -14.691 108.719 C-15.455 107.791 -16.218 106.863 -17.004 105.906 C-22.792 96.747 -22.476 84.225 -20.641 73.853 C-19.562 69.357 -17.856 65.128 -16.004 60.906 C-15.64 60.074 -15.275 59.242 -14.9 58.385 C-12.616 53.214 -10.274 48.072 -7.864 42.958 C-5.948 38.389 -5.843 34.094 -5.793 29.184 C-5.765 27.661 -5.736 26.138 -5.707 24.615 C-5.666 22.223 -5.629 19.831 -5.603 17.439 C-5.575 15.124 -5.529 12.811 -5.48 10.496 C-5.477 9.78 -5.474 9.065 -5.471 8.327 C-5.397 5.375 -5.336 3.375 -3.599 0.926 C-2.004 -0.094 -2.004 -0.094 0 0 Z M-2.004 1.906 C-3.476 4.85 -3.189 7.537 -3.25 10.82 C-3.283 12.236 -3.316 13.651 -3.35 15.066 C-3.397 17.291 -3.441 19.516 -3.481 21.741 C-3.695 33.201 -4.99 42.236 -9.879 52.719 C-15.044 64.067 -19.171 74.145 -19.254 86.719 C-19.275 87.488 -19.295 88.257 -19.316 89.049 C-19.362 95.853 -18.137 102.12 -13.254 107.219 C-11.379 109.602 -10.976 110.498 -11.188 113.578 C-11.354 114.532 -11.52 115.486 -11.691 116.469 C-12.117 119.312 -12.117 119.312 -12.004 121.906 C-9.801 124.761 -7.185 126.281 -4.004 127.906 C-3.591 128.133 -3.591 128.133 -1.504 129.281 C2.137 130.192 5.24 130.153 8.996 129.906 C9.326 129.576 9.326 129.576 10.996 127.906 C10.695 123.768 10.317 121.388 7.996 117.906 C8.574 117.968 8.574 117.968 11.496 118.281 C16.279 118.274 20.426 116.983 24.871 115.344 C25.506 115.117 26.141 114.89 26.795 114.656 C37.964 110.326 46.415 103.104 54.653 94.661 C56.209 93.068 57.782 91.491 59.357 89.916 C66.996 82.202 66.996 82.202 66.996 79.906 C67.512 79.679 68.027 79.453 68.559 79.219 C71.92 77.409 74.925 75.166 77.996 72.906 C77.996 73.566 77.996 74.226 77.996 74.906 C81.432 74.259 83.867 72.894 86.809 71.031 C90.784 68.581 94.653 66.606 98.996 64.906 C98.996 63.916 98.996 62.926 98.996 61.906 C85.33 57.332 69.907 58.739 56.996 64.906 C50.845 67.981 44.905 71.393 38.996 74.906 C38.363 75.277 37.731 75.648 37.079 76.03 C29.985 80.196 23.307 84.628 16.996 89.906 C16.212 90.544 15.429 91.182 14.621 91.84 C10.11 95.646 6.738 99.261 3.871 104.438 C3.582 104.922 3.294 105.407 2.996 105.906 C2.666 105.906 2.336 105.906 1.996 105.906 C1.946 100.981 1.91 96.055 1.886 91.13 C1.876 89.459 1.863 87.788 1.845 86.117 C1.75 76.795 1.909 68.043 3.996 58.906 C6.771 42.777 5.207 26.786 1.454 10.988 C0.792 7.977 0.382 4.964 -0.004 1.906 C-0.664 1.906 -1.324 1.906 -2.004 1.906 Z " fill="#5B9B0D" transform="translate(46.00390625,47.09375)"/>
<path d="M0 0 C1.32 0 2.64 0 4 0 C10.692 0.692 10.692 0.692 13 3 C13 4.32 13 5.64 13 7 C15.31 7.33 17.62 7.66 20 8 C20.165 9.485 20.165 9.485 21 17 C19.35 16.67 17.7 16.34 16 16 C16.165 16.33 16.165 16.33 17 18 C17.25 21.438 17.25 21.438 17 25 C16.502 25.474 16.005 25.949 15.492 26.438 C14 28 14 28 13.742 30.191 C13.786 30.974 13.83 31.756 13.875 32.562 C14.085 36.83 14.085 36.83 13 39 C11.35 39 9.7 39 8 39 C8.66 39.99 9.32 40.98 10 42 C10.553 47.309 10.553 47.309 8.5 49.875 C8.005 50.246 7.51 50.618 7 51 C7 50.34 7 49.68 7 49 C6.428 49.211 5.855 49.423 5.266 49.641 C2.302 50.111 1.241 49.355 -1.25 47.75 C-1.956 47.312 -2.663 46.873 -3.391 46.422 C-3.922 45.953 -4.453 45.483 -5 45 C-5 44.01 -5 43.02 -5 42 C-4.34 41.67 -3.68 41.34 -3 41 C-2.691 40.175 -2.381 39.35 -2.062 38.5 C-1.712 37.675 -1.361 36.85 -1 36 C-0.01 35.67 0.98 35.34 2 35 C1.887 34.742 1.887 34.742 1.312 33.438 C0.832 29.691 2.271 27.272 4 24 C4.99 23.67 5.98 23.34 7 23 C6.835 22.505 6.835 22.505 6 20 C7.438 16.813 7.438 16.813 9 14 C10.32 14 11.64 14 13 14 C12.835 13.67 12.835 13.67 12 12 C9.438 11.375 9.438 11.375 7 11 C6.969 11.629 6.969 11.629 6.812 14.812 C6.555 17.02 6.555 17.02 6 19 C3.438 21 3.438 21 1 22 C1.206 22.763 1.412 23.526 1.625 24.312 C2 27 2 27 0 30 C-5.541 29.432 -10.037 27.371 -15 25 C-15 24.34 -15 23.68 -15 23 C-15.99 23 -16.98 23 -18 23 C-18.062 23.361 -18.062 23.361 -18.375 25.188 C-18.99 27.957 -19.884 30.397 -21 33 C-21.99 33 -22.98 33 -24 33 C-24.103 33.681 -24.206 34.361 -24.312 35.062 C-25.147 38.629 -26.495 41.662 -28 45 C-30.169 44.494 -32 44 -34 43 C-34 43.66 -34 44.32 -34 45 C-33.34 45 -32.68 45 -32 45 C-31.611 48.403 -31.896 49.827 -33.688 52.812 C-36 55 -36 55 -38.75 55.312 C-39.493 55.209 -40.235 55.106 -41 55 C-41 54.01 -41 53.02 -41 52 C-42.65 51.67 -44.3 51.34 -46 51 C-46 50.34 -46 49.68 -46 49 C-46.99 49 -47.98 49 -49 49 C-49 49.66 -49 50.32 -49 51 C-49.66 51 -50.32 51 -51 51 C-51.853 48.611 -52.126 47.377 -51.312 44.938 C-49.739 42.614 -48.475 41.344 -46 40 C-43.25 40.312 -43.25 40.312 -41 41 C-40.67 40.34 -40.34 39.68 -40 39 C-41.32 38.67 -42.64 38.34 -44 38 C-43.67 36.68 -43.34 35.36 -43 34 C-42.34 34 -41.68 34 -41 34 C-40.691 33.381 -40.381 32.763 -40.062 32.125 C-39.375 30.75 -38.688 29.375 -38 28 C-37.01 28 -36.02 28 -35 28 C-35.062 27.258 -35.124 26.515 -35.188 25.75 C-34.963 22.451 -34.366 21.284 -32 19 C-31.154 18.856 -30.309 18.711 -29.438 18.562 C-28.633 18.377 -27.829 18.191 -27 18 C-26.732 17.299 -26.464 16.597 -26.188 15.875 C-24.37 11.475 -20.921 8.628 -17 6 C-14.238 5.297 -14.238 5.297 -12 5 C-11.67 4.01 -11.34 3.02 -11 2 C-7.54 -0.529 -4.149 -0.148 0 0 Z " fill="#FAC515" transform="translate(116,17)"/>
<path d="M0 0 C0.66 0 1.32 0 2 0 C2.459 2.437 2.917 4.875 3.375 7.312 C3.501 7.983 3.628 8.654 3.758 9.346 C4.026 10.775 4.292 12.206 4.555 13.636 C4.867 15.295 5.197 16.95 5.539 18.602 C6.859 25.212 7.315 31.516 7.25 38.25 C7.245 39.244 7.241 40.238 7.236 41.263 C7.127 50.17 6.838 59.486 4 68 C3.903 70.556 3.86 73.084 3.867 75.641 C3.866 76.4 3.865 77.159 3.864 77.941 C3.864 79.555 3.865 81.169 3.87 82.783 C3.875 85.199 3.87 87.615 3.863 90.031 C3.862 102.798 3.862 102.798 4.337 108.412 C4.395 109.101 4.453 109.789 4.513 110.499 C4.684 112.363 4.881 114.224 5.079 116.085 C5 119 5 119 3.695 120.919 C2 122 2 122 -0.812 121.812 C-3.938 121.016 -6.963 120.085 -10 119 C-9.847 118.406 -9.693 117.811 -9.535 117.199 C-8.424 111.292 -9.032 108.183 -12.375 103.125 C-13.022 102.241 -13.669 101.356 -14.336 100.445 C-18.854 93.807 -17.626 83.725 -17 76 C-16.106 71.455 -14.714 67.297 -13 63 C-12.603 61.984 -12.206 60.968 -11.797 59.922 C-9.413 54.038 -6.777 48.285 -4.016 42.57 C-1.957 37.359 -1.848 32.034 -1.719 26.484 C-1.681 25.055 -1.643 23.625 -1.605 22.195 C-1.552 19.961 -1.499 17.727 -1.448 15.493 C-1.396 13.323 -1.339 11.154 -1.281 8.984 C-1.251 7.692 -1.221 6.4 -1.189 5.069 C-1 2 -1 2 0 0 Z " fill="#97C723" transform="translate(44,49)"/>
<path d="M0 0 C54.12 0 108.24 0 164 0 C164 0.66 164 1.32 164 2 C163.208 2.004 162.416 2.008 161.601 2.013 C142.356 2.116 123.111 2.225 103.866 2.339 C94.56 2.395 85.253 2.448 75.947 2.497 C67.838 2.54 59.728 2.586 51.619 2.637 C47.323 2.663 43.028 2.688 38.732 2.709 C34.692 2.729 30.652 2.753 26.612 2.78 C25.126 2.79 23.64 2.798 22.154 2.803 C20.132 2.812 18.109 2.827 16.087 2.842 C14.953 2.848 13.819 2.855 12.651 2.861 C10 3 10 3 8 4 C6.964 7.107 6.845 9.33 6.795 12.591 C6.775 13.763 6.755 14.936 6.734 16.144 C6.718 17.442 6.701 18.741 6.684 20.078 C6.663 21.474 6.642 22.871 6.62 24.267 C6.564 28.117 6.515 31.967 6.468 35.818 C6.438 38.247 6.406 40.676 6.373 43.105 C5.753 90.401 5.907 137.702 6 185 C4.02 185 2.04 185 0 185 C0 123.95 0 62.9 0 0 Z " fill="#FDFDFC" transform="translate(0,0)"/>
<path d="M0 0 C5.763 5.319 5.763 5.319 6 9 C5.794 9.619 5.587 10.237 5.375 10.875 C4.795 14.16 6.404 16.191 8 19 C8.99 18.01 9.98 17.02 11 16 C12.163 21.041 12.219 25.963 11 31 C10.34 31.33 9.68 31.66 9 32 C8.973 34.125 8.954 36.25 8.938 38.375 C8.926 39.558 8.914 40.742 8.902 41.961 C9 45 9 45 10 47 C9.01 47.66 8.02 48.32 7 49 C6.559 51.793 6.559 51.793 6.438 55.188 C6.301 58.742 6.11 61.671 4.98 65.055 C3.202 70.806 3.794 76.987 3.875 82.938 C3.884 84.194 3.893 85.45 3.902 86.744 C3.926 89.83 3.959 92.915 4 96 C4.714 95.272 5.428 94.543 6.164 93.793 C23.168 77.047 45.454 62.351 68.625 56.316 C74.57 54.63 74.57 54.63 76.875 51.25 C77.246 50.178 77.618 49.105 78 48 C78.709 46.355 79.419 44.711 80.129 43.066 C80.806 41.459 81.454 39.839 82.09 38.215 C85.262 30.523 85.262 30.523 89 27.875 C93.624 26.526 97.864 25.845 102.688 25.812 C103.164 25.805 103.164 25.805 105.574 25.77 C108 26 108 26 110 28 C109.874 31.308 109.312 32.677 106.996 35.07 C106.152 35.748 105.307 36.426 104.438 37.125 C98.566 42.144 93.478 48.044 90 55 C90.454 55.062 90.454 55.062 92.75 55.375 C95.59 55.921 97.526 56.573 100 58 C100 59.65 100 61.3 100 63 C96.37 64.65 92.74 66.3 89 68 C88.67 67.34 88.34 66.68 88 66 C89.267 65.326 90.539 64.661 91.812 64 C92.52 63.629 93.228 63.257 93.957 62.875 C96 62 96 62 99 62 C99 61.01 99 60.02 99 59 C75.643 55.17 58.897 61.172 39 73 C38.367 73.371 37.734 73.742 37.083 74.124 C29.985 78.293 23.337 82.748 17 88 C16.301 88.541 15.603 89.083 14.883 89.641 C9.486 93.999 6.241 98.899 3 105 C0.497 102.497 0.754 100.983 0.722 97.567 C0.726 96.824 0.73 96.082 0.734 95.316 C0.732 94.546 0.731 93.776 0.729 92.983 C0.727 91.346 0.731 89.709 0.739 88.073 C0.75 85.603 0.739 83.135 0.727 80.666 C0.719 72.208 1.127 64.285 3 56 C5.643 40.636 4.438 25.23 0.875 10.152 C0.076 6.71 -0.182 3.548 0 0 Z " fill="#5E930F" transform="translate(46,50)"/>
<path d="M0 0 C0.872 -0.005 1.745 -0.011 2.644 -0.017 C7.086 0.033 10.654 0.225 14.688 2.312 C10.979 3.518 7.558 3.308 3.688 3.188 C-5.744 3.044 -14.94 4.847 -23.312 9.312 C-23.642 10.302 -23.972 11.293 -24.312 12.312 C-26.419 13.678 -28.48 14.884 -30.688 16.062 C-31.96 16.763 -33.23 17.467 -34.5 18.172 C-34.819 18.349 -34.819 18.349 -36.434 19.244 C-40.839 21.749 -45.071 24.542 -49.312 27.312 C-42.521 23.726 -36.003 19.916 -29.625 15.633 C-27.312 14.312 -27.312 14.312 -24.312 14.312 C-24.148 14.808 -24.148 14.808 -23.312 17.312 C-24.303 17.642 -25.292 17.972 -26.312 18.312 C-26.312 18.972 -26.312 19.632 -26.312 20.312 C-27.746 21.723 -27.746 21.723 -29.75 23.375 C-32.842 25.992 -35.699 28.7 -38.5 31.625 C-48.612 41.771 -62.647 53.254 -77.312 55.312 C-79.101 51.735 -79.041 48.203 -78.312 44.312 C-70.732 30.423 -54.42 21.754 -41.25 14.125 C-40.226 13.522 -39.202 12.92 -38.146 12.299 C-32.338 8.918 -26.534 5.859 -20.312 3.312 C-19.941 3.158 -19.941 3.158 -18.059 2.377 C-12.169 0.047 -6.247 0.029 0 0 Z " fill="#80B716" transform="translate(128.3125,106.6875)"/>
<path d="M0 0 C0.33 0 0.66 0 1 0 C1.66 3.63 2.32 7.26 3 11 C4.65 11.33 6.3 11.66 8 12 C10.471 6.071 10.471 6.071 11 3 C10.67 2.34 10.34 1.68 10 1 C11.98 0.67 13.96 0.34 16 0 C16 1.65 16 3.3 16 5 C15.01 5.33 14.02 5.66 13 6 C10.967 8.996 10.571 11.428 11 15 C14.465 18.55 18.551 20.789 23.438 21.5 C26 21 26 21 28 19 C28.414 16.836 28.414 16.836 28.625 14.375 C28.7 13.558 28.775 12.74 28.852 11.898 C28.901 11.272 28.95 10.645 29 10 C30.114 9.629 31.227 9.257 32.375 8.875 C35.614 7.521 35.893 7.238 37.438 3.812 C37.53 3.348 37.53 3.348 38 1 C43.371 1.43 46.904 2.403 51 6 C51.41 8.469 51.41 8.469 51 11 C49.375 12.484 49.375 12.484 47 13.75 C46.085 14.258 45.17 14.766 44.227 15.289 C43.162 15.854 42.097 16.418 41 17 C26.385 24.791 11.754 33.841 0.125 45.812 C-0.576 46.534 -1.278 47.256 -2 48 C-4.667 45.333 -3.186 37.464 -3.188 33.875 C-3.2 32.65 -3.212 31.426 -3.225 30.164 C-3.235 23.98 -2.959 18.848 -1 13 C-0.729 10.694 -0.518 8.38 -0.375 6.062 C-0.3 4.919 -0.225 3.776 -0.148 2.598 C-0.099 1.74 -0.05 0.883 0 0 Z " fill="#ECAB08" transform="translate(52,99)"/>
<path d="M0 0 C0.33 0 0.66 0 1 0 C1 5.61 1 11.22 1 17 C1.66 17 2.32 17 3 17 C5.088 21.177 4.185 26.661 4.188 31.25 C4.2 32.383 4.212 33.516 4.225 34.684 C4.226 35.233 4.226 35.233 4.23 38.016 C4.235 39.019 4.239 40.022 4.243 41.056 C3.976 44.293 3.138 46.968 2 50 C1.505 49.835 1.505 49.835 -1 49 C-14.102 82.032 -14.102 82.032 -7 99 C-5.778 101.115 -4.437 103.018 -3 105 C-3 105.66 -3 106.32 -3 107 C-2.34 107 -1.68 107 -1 107 C-1.66 101.06 -2.32 95.12 -3 89 C-2.67 88.835 -2.67 88.835 -1 88 C-0.34 88.99 0.32 89.98 1 91 C1.66 91 2.32 91 3 91 C3 84.4 3 77.8 3 71 C3.33 71 3.66 71 4 71 C4.025 71.861 4.05 72.721 4.076 73.608 C4.173 76.879 4.272 80.15 4.372 83.421 C4.415 84.822 4.457 86.223 4.497 87.624 C4.557 89.667 4.62 91.711 4.684 93.754 C4.704 94.432 4.723 95.11 4.744 95.808 C4.86 99.307 5.049 102.782 5.364 106.269 C5.423 106.953 5.482 107.637 5.543 108.342 C5.713 110.231 5.903 112.117 6.094 114.004 C6 117 6 117 4.693 118.928 C3 120 3 120 0.188 119.812 C-2.938 119.016 -5.963 118.085 -9 117 C-8.847 116.406 -8.693 115.811 -8.535 115.199 C-7.424 109.292 -8.032 106.183 -11.375 101.125 C-12.022 100.241 -12.669 99.356 -13.336 98.445 C-17.854 91.807 -16.626 81.725 -16 74 C-15.106 69.455 -13.714 65.297 -12 61 C-11.603 59.984 -11.206 58.968 -10.797 57.922 C-8.413 52.038 -5.777 46.285 -3.016 40.57 C-0.951 35.345 -0.839 29.979 -0.684 24.414 C-0.663 23.712 -0.642 23.01 -0.621 22.287 C-0.556 20.067 -0.497 17.846 -0.438 15.625 C-0.394 14.111 -0.351 12.596 -0.307 11.082 C-0.2 7.388 -0.099 3.694 0 0 Z " fill="#8BBD1C" transform="translate(43,51)"/>
<path d="M0 0 C0.99 0.66 1.98 1.32 3 2 C3 3.32 3 4.64 3 6 C5.31 6.33 7.62 6.66 10 7 C10.33 9.97 10.66 12.94 11 16 C10.175 15.835 10.175 15.835 6 15 C6.33 15.66 6.66 16.32 7 17 C7.25 20.438 7.25 20.438 7 24 C6.502 24.474 6.005 24.949 5.492 25.438 C4 27 4 27 3.742 29.191 C3.786 29.974 3.83 30.756 3.875 31.562 C4.085 35.83 4.085 35.83 3 38 C1.35 38 -0.3 38 -2 38 C-1.34 38.99 -0.68 39.98 0 41 C0.553 46.309 0.553 46.309 -1.5 48.875 C-1.995 49.246 -2.49 49.618 -3 50 C-3 49.34 -3 48.68 -3 48 C-3.572 48.211 -4.145 48.423 -4.734 48.641 C-7.698 49.111 -8.759 48.355 -11.25 46.75 C-11.956 46.312 -12.663 45.873 -13.391 45.422 C-13.922 44.953 -14.453 44.483 -15 44 C-15 43.01 -15 42.02 -15 41 C-14.67 40.835 -14.67 40.835 -13 40 C-12.691 39.175 -12.381 38.35 -12.062 37.5 C-11.712 36.675 -11.361 35.85 -11 35 C-10.505 34.835 -10.505 34.835 -8 34 C-8.227 33.484 -8.454 32.969 -8.688 32.438 C-9.168 28.691 -7.729 26.272 -6 23 C-5.01 22.67 -4.02 22.34 -3 22 C-3.33 21.01 -3.66 20.02 -4 19 C-2.562 15.812 -2.562 15.812 -1 13 C0.32 13 1.64 13 3 13 C2.67 12.34 2.34 11.68 2 11 C-0.562 10.375 -0.562 10.375 -3 10 C-3.33 12.64 -3.66 15.28 -4 18 C-10.75 18.125 -10.75 18.125 -13 17 C-13 16.01 -13 15.02 -13 14 C-10.094 11.197 -9.212 11 -5 11 C-5 10.34 -5 9.68 -5 9 C-5.99 8.67 -6.98 8.34 -8 8 C-7.34 7.01 -6.68 6.02 -6 5 C-4.68 5 -3.36 5 -2 5 C-2 3.68 -2 2.36 -2 1 C-1.34 0.67 -0.68 0.34 0 0 Z " fill="#F8C00D" transform="translate(126,18)"/>
<path d="M0 0 C5.763 5.319 5.763 5.319 6 9 C5.794 9.619 5.587 10.237 5.375 10.875 C4.795 14.16 6.404 16.191 8 19 C8.99 18.01 9.98 17.02 11 16 C12.163 21.041 12.219 25.963 11 31 C10.34 31.33 9.68 31.66 9 32 C8.973 34.125 8.954 36.25 8.938 38.375 C8.926 39.558 8.914 40.742 8.902 41.961 C9 45 9 45 10 47 C9.01 47.66 8.02 48.32 7 49 C6.559 51.793 6.559 51.793 6.438 55.188 C6.301 58.742 6.11 61.671 4.98 65.055 C3.202 70.806 3.794 76.987 3.875 82.938 C3.884 84.194 3.893 85.45 3.902 86.744 C3.926 89.83 3.959 92.915 4 96 C4.714 95.272 5.428 94.543 6.164 93.793 C17.915 82.22 31.513 73.392 45.812 65.312 C46.596 64.866 47.379 64.419 48.186 63.959 C48.915 63.556 49.644 63.153 50.395 62.738 C50.719 62.558 50.719 62.558 52.359 61.646 C52.9 61.433 53.442 61.22 54 61 C54.33 61.165 54.33 61.165 56 62 C53.483 64.837 50.671 66.457 47.371 68.293 C46.253 68.924 45.135 69.555 43.982 70.205 C41.649 71.512 39.312 72.813 36.975 74.111 C29.753 78.195 23.325 82.641 17 88 C15.584 89.126 14.168 90.251 12.75 91.375 C8.372 95.21 5.708 99.903 3 105 C0.497 102.497 0.754 100.983 0.722 97.567 C0.726 96.824 0.73 96.082 0.734 95.316 C0.732 94.546 0.731 93.776 0.729 92.983 C0.727 91.346 0.731 89.709 0.739 88.073 C0.75 85.603 0.739 83.135 0.727 80.666 C0.719 72.208 1.127 64.285 3 56 C5.643 40.636 4.438 25.23 0.875 10.152 C0.076 6.71 -0.182 3.548 0 0 Z " fill="#588A09" transform="translate(46,50)"/>
<path d="M0 0 C4.885 0.718 8.779 2.52 12.875 5.25 C14.742 8.154 14.358 10.659 14 14 C12.875 15.875 12.875 15.875 11 17 C7.812 17.688 7.812 17.688 5 18 C5.66 18.66 6.32 19.32 7 20 C6.734 23.852 4.7 26.373 2 29 C-3.404 30.105 -7.427 27.6 -12 25 C-12.314 18.086 -12.314 18.086 -10 15 C-7.375 13.75 -7.375 13.75 -5 13 C-5.103 11.969 -5.206 10.938 -5.312 9.875 C-4.907 4.843 -3.45 3.537 0 0 Z " fill="#FCCF20" transform="translate(81,77)"/>
<path d="M0 0 C3.769 1.071 7.491 2.246 11 4 C11.333 8.245 11.439 10.355 9 13.938 C8.34 14.618 7.68 15.299 7 16 C4.071 15.372 1.639 14.414 -1 13 C-1.33 13.33 -1.66 13.66 -2 14 C-1.216 14.289 -0.433 14.578 0.375 14.875 C3 16 3 16 5 18 C4.612 21.586 3.414 24.7 2 28 C1.34 28 0.68 28 0 28 C0 27.34 0 26.68 0 26 C-0.887 26.392 -1.774 26.784 -2.688 27.188 C-6 28 -6 28 -8.688 26.969 C-11 25 -11 25 -11.488 21.863 C-11.43 20.692 -11.372 19.52 -11.312 18.312 C-11.267 17.133 -11.222 15.954 -11.176 14.738 C-11.118 13.835 -11.06 12.931 -11 12 C-10.01 11.67 -9.02 11.34 -8 11 C-8.035 10.374 -8.07 9.747 -8.105 9.102 C-8.119 8.693 -8.119 8.693 -8.188 6.625 C-8.222 5.813 -8.257 5.001 -8.293 4.164 C-8.196 3.45 -8.1 2.736 -8 2 C-4.607 -0.262 -3.937 -0.428 0 0 Z " fill="#EBA805" transform="translate(65,70)"/>
<path d="M0 0 C5.982 2.716 10.576 12.04 12.996 17.906 C13.36 20.414 13.267 22.364 12.996 24.906 C10.996 21.906 10.996 21.906 9.996 19.906 C9.336 21.226 8.676 22.546 7.996 23.906 C4.877 18.632 3.932 16.027 4.996 9.906 C3.004 6.206 1.501 4.243 -2.004 1.906 C-2.024 2.894 -2.044 3.882 -2.064 4.9 C-2.141 8.598 -2.229 12.296 -2.321 15.993 C-2.359 17.587 -2.394 19.182 -2.426 20.776 C-2.472 23.08 -2.53 25.384 -2.59 27.688 C-2.596 28.039 -2.596 28.039 -2.625 29.816 C-2.814 36.287 -4.055 42.327 -6.809 48.238 C-7.143 48.969 -7.477 49.7 -7.822 50.452 C-8.171 51.2 -8.52 51.948 -8.879 52.719 C-14.044 64.067 -18.171 74.145 -18.254 86.719 C-18.275 87.488 -18.295 88.257 -18.316 89.049 C-18.362 95.853 -17.137 102.12 -12.254 107.219 C-10.377 109.606 -9.983 110.525 -10.152 113.613 C-10.31 114.576 -10.467 115.539 -10.629 116.531 C-11.051 119.379 -11.051 119.379 -11.004 121.906 C-9.11 124.456 -6.859 125.611 -4.004 126.906 C-3.2 127.339 -2.395 127.772 -1.566 128.219 C2.253 129.244 5.02 129.348 8.996 128.906 C9.292 128.492 9.292 128.492 10.789 126.398 C12.996 123.906 12.996 123.906 16.449 123.418 C17.702 123.476 18.955 123.534 20.246 123.594 C21.509 123.639 22.773 123.684 24.074 123.73 C25.038 123.788 26.003 123.846 26.996 123.906 C26.996 124.236 26.996 124.566 26.996 124.906 C26.598 124.908 26.598 124.908 24.582 124.914 C15.83 125.233 15.83 125.233 13.215 127.344 C12.771 127.901 12.328 128.458 11.871 129.031 C10.134 131.145 9.481 131.832 6.734 132.254 C-0.887 131.775 -6.589 128.488 -12.566 123.969 C-14.546 121.128 -14.351 119.308 -14.004 115.906 C-13.756 115.061 -13.509 114.215 -13.254 113.344 C-13.004 110.906 -13.004 110.906 -14.691 108.719 C-15.455 107.791 -16.218 106.863 -17.004 105.906 C-22.792 96.747 -22.476 84.225 -20.641 73.853 C-19.562 69.357 -17.856 65.128 -16.004 60.906 C-15.64 60.074 -15.275 59.242 -14.9 58.385 C-12.616 53.214 -10.274 48.072 -7.864 42.958 C-5.948 38.389 -5.843 34.094 -5.793 29.184 C-5.765 27.661 -5.736 26.138 -5.707 24.615 C-5.666 22.223 -5.629 19.831 -5.603 17.439 C-5.575 15.124 -5.529 12.811 -5.48 10.496 C-5.477 9.78 -5.474 9.065 -5.471 8.327 C-5.397 5.375 -5.336 3.375 -3.599 0.926 C-2.004 -0.094 -2.004 -0.094 0 0 Z " fill="#5D9317" transform="translate(46.00390625,47.09375)"/>
<path d="M0 0 C0.369 -0.008 0.369 -0.008 2.236 -0.047 C7.434 -0.01 10.445 1.089 14.562 4.5 C14.727 4.83 14.727 4.83 15.562 6.5 C16.532 6.974 17.501 7.449 18.5 7.938 C21.562 9.5 21.562 9.5 23.562 12.5 C23.941 14.727 23.941 14.727 24.125 17.125 C24.464 21.402 24.464 21.402 25.562 22.5 C25.662 24.102 25.692 25.708 25.688 27.312 C25.689 27.749 25.689 27.749 25.695 29.957 C25.573 32.305 25.171 34.241 24.562 36.5 C24.399 37.852 24.253 39.207 24.125 40.562 C23.562 44.5 23.562 44.5 21.562 47.5 C21.171 49.154 20.842 50.823 20.562 52.5 C19.986 55.962 19.562 57.501 17.562 60.5 C17.438 63.188 17.438 63.188 17.562 65.5 C16.903 65.5 16.243 65.5 15.562 65.5 C15.439 65.882 15.439 65.882 14.812 67.812 C13.744 70.964 12.668 74.111 11.562 77.25 C11.233 78.194 10.903 79.137 10.562 80.109 C9.562 82.5 9.562 82.5 7.562 84.5 C7.233 85.346 6.903 86.191 6.562 87.062 C5.562 89.5 5.562 89.5 3.562 90.5 C3.82 88.914 4.094 87.332 4.375 85.75 C4.526 84.868 4.677 83.987 4.832 83.078 C5.622 80.29 6.796 78.759 8.562 76.5 C8.727 75.489 8.892 74.479 9.062 73.438 C9.562 70.5 9.562 70.5 10.996 69.098 C12.896 67.16 13.37 65.589 14.125 63 C15.018 59.974 15.771 58.187 17.562 55.5 C17.621 53.221 17.434 51.024 17.242 48.754 C17.562 46.5 17.562 46.5 19.492 44.855 C22.749 41.15 22.491 37.038 22.812 32.25 C22.89 31.314 22.967 30.378 23.047 29.414 C23.235 27.11 23.406 24.806 23.562 22.5 C22.903 22.5 22.243 22.5 21.562 22.5 C21.544 22.151 21.544 22.151 21.449 20.383 C21.383 19.473 21.318 18.563 21.25 17.625 C21.192 16.72 21.134 15.815 21.074 14.883 C20.562 12.5 20.562 12.5 17.562 10.5 C17.14 10.448 17.14 10.448 15 10.188 C14.196 9.961 13.391 9.734 12.562 9.5 C11.25 6.938 11.25 6.938 10.562 4.5 C6.828 3.925 3.35 3.5 -0.438 3.5 C-1.593 3.479 -2.748 3.459 -3.938 3.438 C-6.719 3.487 -8.822 3.663 -11.438 4.5 C-11.479 5.119 -11.52 5.738 -11.562 6.375 C-11.707 6.726 -11.707 6.726 -12.438 8.5 C-15.312 9.688 -15.312 9.688 -18.438 10.5 C-19.428 10.83 -20.417 11.16 -21.438 11.5 C-21.767 12.49 -22.097 13.48 -22.438 14.5 C-23.727 15.876 -25.064 17.208 -26.438 18.5 C-26.953 19.078 -27.469 19.655 -28 20.25 C-29.438 21.5 -29.438 21.5 -32.438 21.5 C-33.427 24.47 -34.418 27.44 -35.438 30.5 C-36.427 30.5 -37.418 30.5 -38.438 30.5 C-38.706 31.098 -38.974 31.696 -39.25 32.312 C-40.438 34.5 -40.438 34.5 -42.062 36.062 C-43.438 37.5 -43.438 37.5 -43.438 40.5 C-42.448 40.83 -41.457 41.16 -40.438 41.5 C-40.767 42.49 -41.097 43.48 -41.438 44.5 C-41.767 43.84 -42.097 43.18 -42.438 42.5 C-46.414 43.825 -48.549 45.512 -51.438 48.5 C-52.097 48.5 -52.758 48.5 -53.438 48.5 C-51.927 43.843 -51.927 43.843 -49.562 42.188 C-46.809 40.001 -45.866 37.613 -44.465 34.438 C-43.348 32.332 -42.3 30.986 -40.438 29.5 C-39.448 29.5 -38.457 29.5 -37.438 29.5 C-37.396 28.613 -37.355 27.726 -37.312 26.812 C-36.151 22.417 -34.032 21.16 -30.438 18.5 C-28.303 16.502 -26.541 14.367 -24.75 12.062 C-22.007 8.815 -19.367 7.14 -15.465 5.52 C-13.438 4.5 -13.438 4.5 -11.219 2.418 C-7.419 -0.203 -4.507 -0.094 0 0 Z " fill="#DF9918" transform="translate(116.4375,14.5)"/>
<path d="M0 0 C0.99 0 1.98 0 3 0 C3 0.66 3 1.32 3 2 C5.31 2.33 7.62 2.66 10 3 C9.67 5.31 9.34 7.62 9 10 C6.69 9.67 4.38 9.34 2 9 C2 9.66 2 10.32 2 11 C2.99 11.33 3.98 11.66 5 12 C4.67 12.99 4.34 13.98 4 15 C3.34 15 2.68 15 2 15 C2 16.65 2 18.3 2 20 C0.68 20 -0.64 20 -2 20 C-2 20.99 -2 21.98 -2 23 C-4.31 23.33 -6.62 23.66 -9 24 C-9 25.32 -9 26.64 -9 28 C-10.98 28 -12.96 28 -15 28 C-15 27.01 -15 26.02 -15 25 C-15.99 25 -16.98 25 -18 25 C-17.476 21.224 -16.673 18.776 -14 16 C-13.01 16 -12.02 16 -11 16 C-11.062 15.258 -11.124 14.515 -11.188 13.75 C-10.963 10.451 -10.366 9.284 -8 7 C-7.154 6.856 -6.309 6.711 -5.438 6.562 C-5.035 6.47 -5.035 6.47 -3 6 C-1.75 3.5 -1.75 3.5 -1 1 C-0.67 0.67 -0.34 0.34 0 0 Z " fill="#FBCB1F" transform="translate(92,29)"/>
<path d="M0 0 C1.317 0.423 2.629 0.864 3.938 1.312 C4.668 1.556 5.399 1.8 6.152 2.051 C8 3 8 3 9 6 C9.66 6 10.32 6 11 6 C11.321 10.606 10.91 13.335 8 17 C7.01 17 6.02 17 5 17 C5.041 17.464 5.041 17.464 5.25 19.812 C5 23 5 23 3.344 24.719 C0.337 26.362 -1.383 26.128 -4.75 25.688 C-5.735 25.568 -6.72 25.448 -7.734 25.324 C-8.482 25.217 -9.23 25.11 -10 25 C-10.625 22.625 -10.625 22.625 -11 20 C-10.34 19.34 -9.68 18.68 -9 18 C-8.286 16.016 -7.614 14.017 -7 12 C-5.68 12 -4.36 12 -3 12 C-3.124 11.66 -3.124 11.66 -3.75 9.938 C-4.117 5.621 -2.327 3.596 0 0 Z " fill="#F6B707" transform="translate(105,74)"/>
<path d="M0 0 C0.872 -0.005 1.745 -0.011 2.644 -0.017 C7.086 0.033 10.654 0.225 14.688 2.312 C10.979 3.518 7.558 3.308 3.688 3.188 C-9.349 3.047 -19.928 7.45 -31.312 13.312 C-31.941 13.635 -32.57 13.957 -33.218 14.289 C-42.935 19.338 -51.869 25.308 -60.751 31.703 C-61.156 31.995 -61.156 31.995 -63.207 33.469 C-63.927 33.993 -64.648 34.517 -65.39 35.057 C-67.312 36.312 -67.312 36.312 -70.312 37.312 C-71.25 39 -71.25 39 -72.312 41.312 C-73.628 43.324 -74.958 45.326 -76.312 47.312 C-76.965 45.551 -76.965 45.551 -77.312 43.312 C-70.672 29.837 -53.602 21.28 -41.25 14.125 C-40.226 13.522 -39.202 12.92 -38.146 12.299 C-32.338 8.918 -26.534 5.859 -20.312 3.312 C-19.941 3.158 -19.941 3.158 -18.059 2.377 C-12.169 0.047 -6.247 0.029 0 0 Z " fill="#A9D437" transform="translate(128.3125,106.6875)"/>
<path d="M0 0 C4.255 0.288 7.223 0.619 11.062 2.5 C13.347 5.448 13.195 6.172 12.812 9.75 C12.567 11.171 12.304 12.59 12 14 C11.01 14 10.02 14 9 14 C8.67 14.99 8.34 15.98 8 17 C6.68 16.67 5.36 16.34 4 16 C3.67 16.99 3.34 17.98 3 19 C-0.63 18.67 -4.26 18.34 -8 18 C-7.25 11.25 -7.25 11.25 -5 9 C-2.375 8.875 -2.375 8.875 0 9 C-0.186 7.886 -0.371 6.773 -0.562 5.625 C-1 2 -1 2 0 0 Z " fill="#FAC515" transform="translate(99,44)"/>
<path d="M0 0 C0.99 0 1.98 0 3 0 C3 0.66 3 1.32 3 2 C3.99 2.268 4.98 2.536 6 2.812 C10.096 3.977 14.028 5.467 18 7 C16.246 8.113 16.246 8.113 14 9 C12.035 8.355 12.035 8.355 10.062 7.188 C7.026 5.502 4.491 4.436 1 4 C1 6.97 1 9.94 1 13 C0.051 13.165 -0.898 13.33 -1.875 13.5 C-5 15 -5 15 -5.738 16.879 C-6.034 18.318 -6.283 19.767 -6.48 21.223 C-6.652 21.809 -6.823 22.396 -7 23 C-7.99 23.33 -8.98 23.66 -10 24 C-12.331 26.93 -13.885 28.99 -14.312 32.75 C-14 35 -14 35 -13 37 C-15.31 37.66 -17.62 38.32 -20 39 C-20.226 38.375 -20.451 37.75 -20.684 37.105 C-22.447 34.286 -23.885 34.104 -27.062 33.312 C-31.94 32.06 -31.94 32.06 -33 31 C-35 30.959 -37 30.957 -39 31 C-39 28 -39 28 -37.562 26.438 C-37.047 25.963 -36.531 25.489 -36 25 C-35.67 24.34 -35.34 23.68 -35 23 C-34.34 23.33 -33.68 23.66 -33 24 C-33 25.32 -33 26.64 -33 28 C-32.34 28 -31.68 28 -31 28 C-31 27.34 -31 26.68 -31 26 C-30.01 26 -29.02 26 -28 26 C-27.67 26.66 -27.34 27.32 -27 28 C-24.938 28.625 -24.938 28.625 -23 29 C-23 29.99 -23 30.98 -23 32 C-17.25 30.375 -17.25 30.375 -15 27 C-14.615 25.345 -14.272 23.678 -14 22 C-14.66 22 -15.32 22 -16 22 C-16 21.34 -16 20.68 -16 20 C-14.02 20.33 -12.04 20.66 -10 21 C-9.34 19.185 -9.34 19.185 -6 10 C-5.01 10 -4.02 10 -3 10 C-2.01 6.7 -1.02 3.4 0 0 Z " fill="#F2B209" transform="translate(98,40)"/>
<path d="M0 0 C5.763 5.319 5.763 5.319 6 9 C5.794 9.619 5.587 10.237 5.375 10.875 C4.795 14.16 6.404 16.191 8 19 C8.99 18.01 9.98 17.02 11 16 C12.163 21.041 12.219 25.963 11 31 C10.34 31.33 9.68 31.66 9 32 C8.973 34.125 8.954 36.25 8.938 38.375 C8.926 39.558 8.914 40.742 8.902 41.961 C9 45 9 45 10 47 C9.01 47.66 8.02 48.32 7 49 C6.559 51.934 6.559 51.934 6.438 55.438 C6.207 61.69 6.207 61.69 4 65 C4.021 63.923 4.042 62.847 4.063 61.737 C4.732 24.171 4.732 24.171 0.875 9.59 C0.056 6.229 -0.172 3.44 0 0 Z " fill="#5E9B0E" transform="translate(46,50)"/>
<path d="M0 0 C0.33 0 0.66 0 1 0 C1 5.61 1 11.22 1 17 C1.66 17 2.32 17 3 17 C5.088 21.177 4.185 26.661 4.188 31.25 C4.2 32.383 4.212 33.516 4.225 34.684 C4.226 35.233 4.226 35.233 4.23 38.016 C4.235 39.019 4.239 40.022 4.243 41.056 C3.976 44.293 3.138 46.968 2 50 C1.01 49.67 0.02 49.34 -1 49 C-1.96 51.541 -2.918 54.083 -3.875 56.625 C-4.01 56.981 -4.01 56.981 -4.691 58.785 C-6.213 62.831 -7.664 66.887 -9 71 C-10.509 67.093 -9.422 64.431 -8.125 60.562 C-4.575 49.85 -4.575 49.85 -6 47 C-5.258 45.047 -5.258 45.047 -4.125 42.75 C-1.184 36.786 -0.868 31.001 -0.684 24.414 C-0.663 23.712 -0.642 23.01 -0.621 22.287 C-0.556 20.067 -0.497 17.846 -0.438 15.625 C-0.394 14.111 -0.351 12.596 -0.307 11.082 C-0.2 7.388 -0.099 3.694 0 0 Z " fill="#74B315" transform="translate(43,51)"/>
<path d="M0 0 C0.33 0 0.66 0 1 0 C1 1.98 1 3.96 1 6 C1.66 6.165 1.66 6.165 5 7 C5.33 5.35 5.66 3.7 6 2 C6.33 2 6.66 2 7 2 C7.165 3.073 7.33 4.145 7.5 5.25 C8.205 7.844 8.691 8.781 10.914 10.355 C12.917 11.336 14.912 12.218 17 13 C13.508 16.595 9.855 19.788 6 23 C4.292 24.632 2.646 26.305 1 28 C0 27 0 27 -0.114 24.408 C-0.108 23.282 -0.103 22.156 -0.098 20.996 C-0.094 19.781 -0.091 18.566 -0.088 17.314 C-0.08 16.035 -0.071 14.756 -0.062 13.438 C-0.058 12.154 -0.053 10.871 -0.049 9.549 C-0.037 6.366 -0.021 3.183 0 0 Z " fill="#E9A203" transform="translate(49,119)"/>
<path d="M0 0 C-0.66 0.66 -1.32 1.32 -2 2 C-0.02 1.835 -0.02 1.835 10 1 C6.695 4.305 6.695 4.305 3.062 4.812 C-3.173 6.008 -8.443 9.04 -14 12 C-15.331 12.671 -16.664 13.34 -18 14 C-18 12.35 -18 10.7 -18 9 C-24.933 12.324 -31.344 16.236 -37.816 20.373 C-38.586 20.855 -39.356 21.336 -40.148 21.832 C-40.841 22.273 -41.534 22.713 -42.248 23.167 C-42.826 23.442 -43.404 23.717 -44 24 C-44.66 23.67 -45.32 23.34 -46 23 C-39.844 18.746 -33.506 14.856 -27.054 11.073 C-23.815 9.158 -21.181 7.434 -18.777 4.516 C-16.266 2.374 -13.707 1.706 -10.562 0.75 C-9.429 0.394 -8.296 0.038 -7.129 -0.328 C-4.179 -0.962 -2.765 -1.06 0 0 Z " fill="#649F0B" transform="translate(124,111)"/>
<path d="M0 0 C-1.634 3.985 -4.405 6.845 -7.312 9.938 C-7.786 10.45 -8.26 10.962 -8.748 11.49 C-18.12 21.58 -26.114 28.495 -40 31 C-40 30.34 -40 29.68 -40 29 C-38.5 27.978 -36.946 27.035 -35.375 26.125 C-28.551 21.919 -22.692 16.799 -16.702 11.498 C-14.342 9.421 -11.953 7.378 -9.562 5.336 C-8.121 4.103 -6.685 2.865 -5.25 1.625 C-3 0 -3 0 0 0 Z " fill="#7CB414" transform="translate(106,128)"/>
<path d="M0 0 C3.533 -0.505 4.785 -0.151 7.75 1.938 C10.382 5.52 10.658 7.774 10.859 12.109 C11 14 11 14 12 15 C12.099 16.602 12.13 18.208 12.125 19.812 C12.126 20.249 12.126 20.249 12.133 22.457 C12.01 24.805 11.608 26.741 11 29 C10.836 30.352 10.691 31.707 10.562 33.062 C10 37 10 37 8 40 C7.608 41.654 7.279 43.323 7 45 C6.423 48.462 5.999 50.001 4 53 C3.875 55.688 3.875 55.688 4 58 C3.34 58 2.68 58 2 58 C1.752 58.763 1.505 59.526 1.25 60.312 C0.182 63.464 -0.895 66.611 -2 69.75 C-2.33 70.694 -2.66 71.637 -3 72.609 C-4 75 -4 75 -6 77 C-6.165 77.423 -6.165 77.423 -7 79.562 C-8 82 -8 82 -10 83 C-9.743 81.414 -9.469 79.832 -9.188 78.25 C-9.037 77.368 -8.886 76.487 -8.73 75.578 C-7.941 72.79 -6.766 71.259 -5 69 C-4.835 67.989 -4.67 66.979 -4.5 65.938 C-4 63 -4 63 -2.566 61.598 C-0.667 59.66 -0.193 58.089 0.562 55.5 C1.455 52.474 2.208 50.687 4 48 C4.059 45.721 3.872 43.524 3.68 41.254 C4 39 4 39 5.93 37.355 C9.187 33.65 8.928 29.538 9.25 24.75 C9.327 23.814 9.405 22.878 9.484 21.914 C9.672 19.61 9.844 17.306 10 15 C9.34 15 8.68 15 8 15 C7.963 14.301 7.925 13.603 7.887 12.883 C7.821 11.973 7.755 11.063 7.688 10.125 C7.629 9.22 7.571 8.315 7.512 7.383 C7 5 7 5 4 3 C2.345 2.615 0.678 2.272 -1 2 C-0.67 1.34 -0.34 0.68 0 0 Z " fill="#CF8314" transform="translate(130,22)"/>
<path d="M0 0 C4.716 0.873 8.335 3.111 12.375 5.625 C11.126 9.084 9.7 11.772 7.375 14.625 C-3.125 13.125 -3.125 13.125 -5.625 10.625 C-5.966 7.553 -5.655 5.699 -4.5 2.812 C-2.625 0.625 -2.625 0.625 0 0 Z " fill="#FCCE1F" transform="translate(67.625,103.375)"/>
<path d="M0 0 C0.99 0.33 1.98 0.66 3 1 C2.429 1.38 1.858 1.761 1.27 2.152 C-7.022 8.176 -12.532 15.834 -18.546 24.026 C-27.983 36.835 -39.317 51.191 -56 54 C-61.332 54.316 -66.665 54.177 -72 54 C-72 53.67 -72 53.34 -72 53 C-71.129 52.986 -70.257 52.972 -69.359 52.957 C-58.21 52.511 -49.688 50.093 -41 43 C-40.051 42.588 -39.102 42.175 -38.125 41.75 C-31.01 37.766 -26.176 29.791 -21.312 23.375 C-20.758 22.651 -20.203 21.926 -19.631 21.18 C-17.285 18.101 -15.034 15.053 -12.953 11.785 C-10.757 8.654 -8.394 6.48 -5.438 4.062 C-4.487 3.27 -3.537 2.477 -2.559 1.66 C-1.714 1.112 -0.87 0.564 0 0 Z " fill="#3B7816" transform="translate(132,117)"/>
<path d="M0 0 C3.062 1.562 3.062 1.562 5 4 C5 7.629 4.937 9.971 2.438 12.715 C1.963 13.139 1.489 13.563 1 14 C-0.604 13.521 -2.208 13.042 -3.812 12.562 C-4.706 12.296 -5.599 12.029 -6.52 11.754 C-8.355 11.196 -10.18 10.607 -12 10 C-11.41 3.748 -11.41 3.748 -9.938 1.062 C-6.723 -0.7 -3.515 -0.601 0 0 Z " fill="#FDD528" transform="translate(95,65)"/>
<path d="M0 0 C0.33 0 0.66 0 1 0 C0.984 0.655 0.969 1.31 0.952 1.984 C0.89 4.989 0.851 7.994 0.812 11 C0.787 12.03 0.762 13.06 0.736 14.121 C0.663 21.744 1.206 28.524 6.75 34.312 C8.627 36.7 9.021 37.619 8.852 40.707 C8.694 41.67 8.537 42.633 8.375 43.625 C7.953 46.473 7.953 46.473 8 49 C9.894 51.549 12.145 52.705 15 54 C15.804 54.433 16.609 54.866 17.438 55.312 C21.257 56.337 24.024 56.442 28 56 C28.592 55.172 29.183 54.345 29.793 53.492 C32 51 32 51 35.453 50.512 C36.08 50.541 36.08 50.541 39.25 50.688 C40.513 50.733 41.777 50.778 43.078 50.824 C43.56 50.853 43.56 50.853 46 51 C46 51.33 46 51.66 46 52 C45.602 52.001 45.602 52.001 43.586 52.008 C34.834 52.327 34.834 52.327 32.219 54.438 C31.775 54.994 31.332 55.551 30.875 56.125 C29.138 58.239 28.485 58.925 25.738 59.348 C18.117 58.869 12.415 55.582 6.438 51.062 C4.458 48.222 4.653 46.402 5 43 C5.248 42.154 5.495 41.309 5.75 40.438 C6 38 6 38 4.312 35.812 C3.549 34.884 2.786 33.956 2 33 C-3.704 23.973 -2.387 13.231 -2 3 C-1.34 3 -0.68 3 0 3 C0 2.01 0 1.02 0 0 Z " fill="#548B1C" transform="translate(27,120)"/>
<path d="M0 0 C0.99 0.33 1.98 0.66 3 1 C3 1.33 3 1.66 3 2 C3.66 2.33 4.32 2.66 5 3 C4.542 3.416 4.542 3.416 2.227 5.52 C1.026 6.617 -0.175 7.715 -1.375 8.812 C-1.978 9.36 -2.582 9.907 -3.203 10.471 C-3.493 10.737 -3.493 10.737 -4.961 12.082 C-5.228 12.326 -5.228 12.326 -6.58 13.558 C-8 15 -8 15 -10 18 C-9.216 17.794 -8.432 17.588 -7.625 17.375 C-7.192 17.313 -7.192 17.313 -5 17 C-4.34 17.66 -3.68 18.32 -3 19 C-4.456 19.671 -5.915 20.337 -7.375 21 C-7.781 21.186 -7.781 21.186 -9.836 22.125 C-12 23 -12 23 -14 23 C-15.203 20.595 -15.101 19.05 -15.062 16.375 C-15.053 15.558 -15.044 14.74 -15.035 13.898 C-15.024 13.272 -15.012 12.645 -15 12 C-14.01 12 -13.02 12 -12 12 C-10.806 10.308 -9.616 8.613 -8.461 6.895 C-6.049 3.766 -3.395 2.012 0 0 Z " fill="#78AF13" transform="translate(65,139)"/>
<path d="M0 0 C0.488 0.009 0.488 0.009 2.957 0.055 C3.693 0.078 4.429 0.101 5.188 0.125 C4.922 1.98 4.922 1.98 4.188 4.125 C2.516 5.363 2.516 5.363 0.438 6.438 C-4.01 8.988 -5.996 11.9 -8.812 16.125 C-9.472 16.125 -10.132 16.125 -10.812 16.125 C-11.143 17.445 -11.472 18.765 -11.812 20.125 C-13.132 19.795 -14.452 19.465 -15.812 19.125 C-15.482 18.465 -15.153 17.805 -14.812 17.125 C-15.472 17.125 -16.132 17.125 -16.812 17.125 C-15.329 13.213 -13.323 12.214 -9.812 10.125 C-7.5 7.438 -7.5 7.438 -5.812 5.125 C-6.803 4.96 -6.803 4.96 -11.812 4.125 C-10.812 2.125 -10.812 2.125 -8.613 1.008 C-5.572 0.049 -3.179 -0.077 0 0 Z " fill="#76AF16" transform="translate(149.8125,77.875)"/>
<path d="M0 0 C0.99 0 1.98 0 3 0 C3 0.66 3 1.32 3 2 C5.31 2.33 7.62 2.66 10 3 C9.67 5.31 9.34 7.62 9 10 C6.69 9.67 4.38 9.34 2 9 C2 9.66 2 10.32 2 11 C2.99 11.33 3.98 11.66 5 12 C4.67 12.99 4.34 13.98 4 15 C3.34 15 2.68 15 2 15 C2 15.66 2 16.32 2 17 C-1.623 18.208 -2.641 17.543 -6 16 C-5.494 13.831 -5 12 -4 10 C-1.938 8.875 -1.938 8.875 0 8 C-0.33 7.67 -0.66 7.34 -1 7 C-1.125 4 -1.125 4 -1 1 C-0.67 0.67 -0.34 0.34 0 0 Z " fill="#FCD633" transform="translate(92,29)"/>
<path d="M0 0 C1.875 0.25 1.875 0.25 4 1 C5.125 2.938 5.125 2.938 6 5 C6.66 5.66 7.32 6.32 8 7 C7.444 11.556 7.444 11.556 6 13 C-1.005 13.764 -6.162 11.94 -12 8 C-13.793 5.828 -13.793 5.828 -15 4 C-14.175 4.144 -13.35 4.289 -12.5 4.438 C-8.673 5.053 -4.848 5.536 -1 6 C-0.67 4.02 -0.34 2.04 0 0 Z " fill="#73AA16" transform="translate(49,164)"/>
<path d="M0 0 C3.375 0.812 3.375 0.812 5.375 1.812 C5.708 6.057 5.814 8.168 3.375 11.75 C2.715 12.431 2.055 13.111 1.375 13.812 C-2.137 13.162 -4.831 12.063 -7.625 9.812 C-8.324 6.162 -8.07 4.507 -6.062 1.375 C-3.625 -0.188 -3.625 -0.188 0 0 Z " fill="#FCD128" transform="translate(70.625,72.1875)"/>
<path d="M0 0 C0.678 0.422 1.356 0.843 2.055 1.277 C7.981 4.766 13.908 8.236 21 7 C22.893 5.626 24.214 4.185 25.684 2.371 C27 1 27 1 29.875 0.625 C30.226 0.687 30.226 0.687 32 1 C30.35 2.65 28.7 4.3 27 6 C27.578 5.917 27.578 5.917 30.5 5.5 C34.699 4.968 38.771 4.924 43 5 C43 5.66 43 6.32 43 7 C29.429 10.234 15.353 12.482 2 7 C0 5 0 5 -0.125 2.375 C-0.084 1.591 -0.042 0.808 0 0 Z " fill="#ECE5C6" transform="translate(34,171)"/>
<path d="M0 0 C1.926 0.051 1.926 0.051 4.312 0.312 C4.702 0.352 4.702 0.352 6.676 0.551 C9.082 1.016 10.871 1.807 13 3 C12.67 5.31 12.34 7.62 12 10 C6.872 11.82 2.823 9.86 -2 8 C-1.125 1.125 -1.125 1.125 0 0 Z " fill="#A2CA28" transform="translate(36,160)"/>
<path d="M0 0 C0.33 0 0.66 0 1 0 C1.194 4.553 1.372 9.106 1.537 13.66 C1.595 15.206 1.657 16.752 1.724 18.297 C1.819 20.531 1.899 22.765 1.977 25 C2.009 25.681 2.041 26.361 2.074 27.062 C2.273 33.572 0.949 39.422 -1.805 45.332 C-2.139 46.063 -2.474 46.794 -2.818 47.547 C-3.167 48.295 -3.516 49.042 -3.875 49.812 C-6.902 56.445 -9.683 63.08 -12 70 C-12.66 70 -13.32 70 -14 70 C-14.33 70.99 -14.66 71.98 -15 73 C-14.487 66.641 -12.294 61.531 -9.688 55.75 C-8.096 52.179 -6.54 48.594 -5 45 C-4.618 44.175 -4.235 43.349 -3.841 42.499 C-0.212 33.937 -0.332 25.457 -0.25 16.312 C-0.222 14.725 -0.192 13.137 -0.16 11.549 C-0.087 7.699 -0.037 3.85 0 0 Z " fill="#609C36" transform="translate(41,50)"/>
<path d="M0 0 C0.436 -0.003 0.436 -0.003 2.643 -0.016 C7.086 0.033 10.654 0.225 14.688 2.312 C10.979 3.518 7.558 3.308 3.688 3.188 C-6.366 3.046 -14.992 5.407 -24.059 9.641 C-26.812 10.461 -28.574 10.066 -31.312 9.312 C-27.96 6.496 -24.367 4.854 -20.312 3.312 C-19.662 3.03 -19.011 2.748 -18.34 2.457 C-12.281 0.181 -6.398 0.025 0 0 Z " fill="#9BCB23" transform="translate(128.3125,106.6875)"/>
<path d="M0 0 C3.998 1.537 3.998 1.537 5.438 3.938 C5.125 7.625 5.125 7.625 4.438 10.938 C-0.278 11.862 -3.235 12.167 -7.562 9.938 C-7.248 6.475 -6.86 4.352 -4.812 1.5 C-2.562 -0.062 -2.562 -0.062 0 0 Z " fill="#FDD82D" transform="translate(83.5625,77.0625)"/>
<path d="M0 0 C2.162 2.343 2.967 3.621 3.249 6.841 C3.22 7.375 3.22 7.375 3.074 10.078 C3.019 11.238 2.965 12.398 2.908 13.594 C2.835 14.8 2.763 16.007 2.688 17.25 C2.626 18.472 2.565 19.694 2.502 20.953 C2.349 23.97 2.181 26.985 2 30 C1.01 30.33 0.02 30.66 -1 31 C-2.973 27.054 -2.185 22.088 -2.188 17.75 C-2.194 17.231 -2.194 17.231 -2.225 14.605 C-2.235 9.347 -2.141 4.909 0 0 Z " fill="#A5D330" transform="translate(44,112)"/>
<path d="M0 0 C0 0.66 0 1.32 0 2 C0.99 2.165 0.99 2.165 6 3 C6 3.66 6 4.32 6 5 C5.34 5 4.68 5 4 5 C4 5.99 4 6.98 4 8 C2.68 8 1.36 8 0 8 C0.33 8.99 0.66 9.98 1 11 C-0.65 11 -2.3 11 -4 11 C-4 10.34 -4 9.68 -4 9 C-4.99 9 -5.98 9 -7 9 C-7 9.66 -7 10.32 -7 11 C-7.66 11 -8.32 11 -9 11 C-9.853 8.611 -10.126 7.377 -9.312 4.938 C-6.629 0.976 -4.821 0 0 0 Z " fill="#F8C710" transform="translate(74,57)"/>
<path d="M0 0 C6.187 0.121 9.332 2.285 14 6 C13.67 6.66 13.34 7.32 13 8 C11.68 7.67 10.36 7.34 9 7 C8.67 7.99 8.34 8.98 8 10 C4.37 9.67 0.74 9.34 -3 9 C-2.25 2.25 -2.25 2.25 0 0 Z " fill="#FDD42A" transform="translate(94,53)"/>
<path d="M0 0 C0.33 0.66 0.66 1.32 1 2 C0.34 2 -0.32 2 -1 2 C-1 3.32 -1 4.64 -1 6 C-2.65 6.66 -4.3 7.32 -6 8 C-5.34 9.32 -4.68 10.64 -4 12 C-6.652 13.075 -9.284 14.095 -12 15 C-12 15.66 -12 16.32 -12 17 C-13.65 16.67 -15.3 16.34 -17 16 C-16.669 12.938 -16.399 11.399 -14.188 9.188 C-12 8 -12 8 -8 8 C-8.062 7.237 -8.124 6.474 -8.188 5.688 C-8 3 -8 3 -6.812 1.188 C-4.44 -0.367 -2.78 -0.225 0 0 Z " fill="#FCD838" transform="translate(125,17)"/>
<path d="M0 0 C3.375 0.25 3.375 0.25 7 1 C8.438 3.062 8.438 3.062 9 5 C5.25 10.75 5.25 10.75 3 13 C-0.125 12.625 -0.125 12.625 -3 12 C-3 8 -3 8 -1 5 C-0.615 3.345 -0.272 1.678 0 0 Z " fill="#FCC110" transform="translate(90,100)"/>
<path d="M0 0 C2 1.188 2 1.188 3 3 C3 5.562 3 5.562 2 8 C-0.808 9.716 -2.417 10.068 -5.688 9.688 C-8 9 -8 9 -10 8 C-10.219 5.297 -10.329 3.56 -8.938 1.188 C-5.906 -0.67 -3.466 -0.371 0 0 Z " fill="#FDD433" transform="translate(67,85)"/>
<path d="M0 0 C4.557 0.438 7.577 0.85 11 4 C9.941 7.403 8.991 10.014 7 13 C2.436 12.52 2.436 12.52 0.688 10.438 C-0.312 6.893 -0.123 3.678 0 0 Z " fill="#FCCF2E" transform="translate(53,98)"/>
<path d="M0 0 C0.99 0.33 1.98 0.66 3 1 C3.33 7.152 2.407 11.375 0 17 C-0.33 17.99 -0.66 18.98 -1 20 C-3.062 20.688 -3.062 20.688 -5 21 C-4.179 6.641 -4.179 6.641 -2 1 C-1.34 0.67 -0.68 0.34 0 0 Z " fill="#B2D63C" transform="translate(38,111)"/>
<path d="M0 0 C3.375 0.547 5.082 1.055 8 3 C7.25 9.75 7.25 9.75 5 12 C2 12.25 2 12.25 -1 12 C-1.66 11.34 -2.32 10.68 -3 10 C-2.75 8.25 -2.75 8.25 -2 6 C-1.649 4.927 -1.299 3.855 -0.938 2.75 C-0.783 2.296 -0.783 2.296 0 0 Z " fill="#EDA908" transform="translate(118,83)"/>
<path d="M0 0 C2.375 1.562 2.375 1.562 4 3 C3.427 5.867 3.139 6.861 1 9 C-4.333 9.333 -4.333 9.333 -7 8 C-7 7.34 -7 6.68 -7 6 C-7.66 6 -8.32 6 -9 6 C-8.625 3.062 -8.625 3.062 -8 0 C-5.059 -1.471 -3.147 -0.755 0 0 Z " fill="#FDCD1E" transform="translate(66,118)"/>
<path d="M0 0 C0.165 0.66 0.165 0.66 1 4 C-3.09 7.592 -7.188 10.441 -12 13 C-12.753 13.449 -13.506 13.897 -14.281 14.359 C-20.667 17.957 -25.73 18.622 -33 18 C-29.877 16.313 -26.77 15.271 -23.375 14.25 C-14.229 11.242 -7.068 6.454 0 0 Z " fill="#64A210" transform="translate(99,151)"/>
<path d="M0 0 C0.33 0.99 0.66 1.98 1 3 C1.66 3 2.32 3 3 3 C3 3.66 3 4.32 3 5 C8.373 5.352 8.373 5.352 11 5 C13 3 13 3 14 1 C17 2 17 2 19 5 C12.05 10.95 12.05 10.95 8.375 11.125 C5.222 9.632 2.661 8.29 0 6 C-0.375 2.75 -0.375 2.75 0 0 Z " fill="#F9BA05" transform="translate(56,121)"/>
<path d="M0 0 C3.257 0.418 4.634 0.634 7 3 C7.339 9.323 7.339 9.323 6 12 C0.25 11.125 0.25 11.125 -2 10 C-1.86 8.52 -1.712 7.041 -1.562 5.562 C-1.481 4.739 -1.4 3.915 -1.316 3.066 C-1 1 -1 1 0 0 Z " fill="#F5B00C" transform="translate(123,72)"/>
<path d="M0 0 C0.99 0.66 1.98 1.32 3 2 C2.502 5.688 1.899 7.605 -1 10 C-6 8 -6 8 -8.375 6.875 C-11.667 5.778 -14.554 5.865 -18 6 C-17 4 -17 4 -14 3 C-11.192 3.008 -8.399 3.13 -5.594 3.258 C-3 3 -3 3 -1.156 1.492 C-0.775 1 -0.393 0.507 0 0 Z " fill="#FBCA1A" transform="translate(105,59)"/>
<path d="M0 0 C0.66 0.33 1.32 0.66 2 1 C-5.477 6.815 -14.559 9.726 -24 9 C-24 9.66 -24 10.32 -24 11 C-18.39 11.33 -12.78 11.66 -7 12 C-7 12.33 -7 12.66 -7 13 C-7.976 13.037 -8.952 13.075 -9.957 13.113 C-10.593 13.146 -10.593 13.146 -13.812 13.312 C-14.445 13.342 -14.445 13.342 -17.645 13.488 C-21 14 -21 14 -24 17 C-24.99 14.03 -25.98 11.06 -27 8 C-26.308 7.925 -25.616 7.85 -24.902 7.773 C-17.694 6.805 -11.517 4.854 -4.902 1.945 C-3.289 1.246 -1.646 0.617 0 0 Z " fill="#559609" transform="translate(81,157)"/>
<path d="M0 0 C4.296 0.488 6.662 1.293 10 4 C8.547 5.339 7.088 6.671 5.625 8 C5.219 8.371 5.219 8.371 3.164 10.25 C1 12 1 12 -1 12 C-2.369 7.483 -1.471 4.412 0 0 Z " fill="#F0AD04" transform="translate(54,130)"/>
<path d="M0 0 C0 0.66 0 1.32 0 2 C-13.958 6.935 -26.149 9.361 -41 9 C-41 8.67 -41 8.34 -41 8 C-40.387 7.9 -39.774 7.8 -39.143 7.696 C-27.598 5.792 -16.195 3.756 -4.887 0.734 C-2 0 -2 0 0 0 Z " fill="#F5EAD3" transform="translate(106,171)"/>
<path d="M0 0 C0.66 0.33 1.32 0.66 2 1 C-6.316 9.489 -6.316 9.489 -10.688 13.188 C-17.158 18.722 -23.022 24.946 -29 31 C-29.66 30.67 -30.32 30.34 -31 30 C-24 23 -17 16 -10 9 C-9.128 8.118 -8.256 7.236 -7.358 6.327 C-5.026 4.025 -2.593 2 0 0 Z M-32 31 C-31.67 31.66 -31.34 32.32 -31 33 C-31.99 32.67 -32.98 32.34 -34 32 C-33.34 31.67 -32.68 31.34 -32 31 Z M-37 34 C-36.34 34.33 -35.68 34.66 -35 35 C-35.66 35.33 -35.66 35.33 -39 37 C-38.34 36.01 -37.68 35.02 -37 34 Z " fill="#53920C" transform="translate(122,120)"/>
<path d="M0 0 C0.825 0.165 0.825 0.165 5 1 C5.33 1.99 5.66 2.98 6 4 C5.34 4.66 4.68 5.32 4 6 C3.375 8.625 3.375 8.625 3 11 C6.735 11.575 10.213 12 14 12 C13.67 13.32 13.34 14.64 13 16 C12.34 16 11.68 16 11 16 C11 15.34 11 14.68 11 14 C10.113 14.392 9.226 14.784 8.312 15.188 C5 16 5 16 2.312 14.969 C0 13 0 13 -0.488 9.863 C-0.43 8.692 -0.372 7.52 -0.312 6.312 C-0.267 5.133 -0.222 3.954 -0.176 2.738 C-0.118 1.835 -0.06 0.931 0 0 Z " fill="#F7BC0D" transform="translate(54,82)"/>
<path d="M0 0 C3.775 1.091 6.47 1.908 9 5 C8 8 8 8 6.375 9.25 C3.048 10.301 0.38 9.65 -3 9 C-2.443 5.656 -1.648 2.967 0 0 Z " fill="#FDCF26" transform="translate(110,64)"/>
<path d="M0 0 C0.33 0 0.66 0 1 0 C1.66 2.31 2.32 4.62 3 7 C2.608 7.041 2.608 7.041 0.625 7.25 C-2 8 -2 8 -3.25 9.812 C-3.953 11.863 -4.546 13.88 -5 16 C-6.32 16.33 -7.64 16.66 -9 17 C-9 16.34 -9 15.68 -9 15 C-9.99 14.67 -10.98 14.34 -12 14 C-11.01 14 -10.02 14 -9 14 C-9.062 13.258 -9.124 12.515 -9.188 11.75 C-8.963 8.451 -8.366 7.284 -6 5 C-3.312 4.25 -3.312 4.25 -1 4 C-0.67 2.68 -0.34 1.36 0 0 Z " fill="#F6C015" transform="translate(90,31)"/>
<path d="M0 0 C0.33 0 0.66 0 1 0 C1 12.54 1 25.08 1 38 C0.34 38 -0.32 38 -1 38 C-2.533 31.662 -3.484 25.499 -4 19 C-2.68 19.33 -1.36 19.66 0 20 C0 13.4 0 6.8 0 0 Z " fill="#91C220" transform="translate(46,122)"/>
<path d="M0 0 C1.32 0.66 2.64 1.32 4 2 C4.389 5.403 4.104 6.827 2.312 9.812 C0 12 0 12 -2.75 12.312 C-3.121 12.261 -3.121 12.261 -5 12 C-5 11.01 -5 10.02 -5 9 C-6.32 8.67 -7.64 8.34 -9 8 C-7.68 8 -6.36 8 -5 8 C-5.66 6.68 -6.32 5.36 -7 4 C-5.35 4.33 -3.7 4.66 -2 5 C-2 4.01 -2 3.02 -2 2 C-1.34 2 -0.68 2 0 2 C0 1.34 0 0.68 0 0 Z " fill="#FCD22B" transform="translate(80,60)"/>
<path d="M0 0 C0.33 0.66 0.66 1.32 1 2 C0.264 2.049 -0.472 2.098 -1.23 2.148 C-1.718 2.186 -1.718 2.186 -4.188 2.375 C-5.15 2.445 -6.113 2.514 -7.105 2.586 C-10.015 3.002 -12.329 3.799 -15 5 C-15 5.99 -15 6.98 -15 8 C-20.625 11 -20.625 11 -24 11 C-23.34 10.422 -22.68 9.845 -22 9.25 C-20 7 -20 7 -20 3 C-13.213 0.184 -7.311 -0.369 0 0 Z " fill="#629813" transform="translate(154,76)"/>
<path d="M0 0 C1.5 1.125 1.5 1.125 3 3 C3.375 6 3.375 6 3 9 C1.5 10.875 1.5 10.875 0 12 C0 11.34 0 10.68 0 10 C-0.536 10.248 -1.073 10.495 -1.625 10.75 C-5.311 11.138 -7.17 9.186 -10 7 C-10 6.67 -10 6.34 -10 6 C-9.546 5.876 -9.546 5.876 -7.25 5.25 C-3.896 3.96 -2.323 2.68 0 0 Z " fill="#FABD0B" transform="translate(123,56)"/>
<path d="M0 0 C0.33 1.32 0.66 2.64 1 4 C0.01 4.33 -0.98 4.66 -2 5 C-2.124 5.887 -2.248 6.774 -2.375 7.688 C-2.969 10.834 -3.421 13.219 -5 16 C-8.125 17.812 -8.125 17.812 -11 19 C-14 17 -14 17 -15 14 C-14.443 13.938 -14.443 13.938 -11.625 13.625 C-8 13 -8 13 -6 11 C-5.586 8.836 -5.586 8.836 -5.375 6.375 C-5.3 5.558 -5.225 4.74 -5.148 3.898 C-5.099 3.272 -5.05 2.645 -5 2 C-3.35 1.34 -1.7 0.68 0 0 Z " fill="#E39B02" transform="translate(86,107)"/>
<path d="M0 0 C5 1 5 1 6 2 C6.141 4.671 6.042 7.324 6 10 C2.713 10.8 1.29 11.097 -2 10 C-1.34 6.7 -0.68 3.4 0 0 Z " fill="#F5B208" transform="translate(132,49)"/>
<path d="M0 0 C3.821 0.531 6.062 1.497 9 4 C4.375 7 4.375 7 1 7 C0.67 8.65 0.34 10.3 0 12 C-1.32 12 -2.64 12 -4 12 C-3.335 7.611 -1.812 4.019 0 0 Z " fill="#FDCE23" transform="translate(98,86)"/>
<path d="M0 0 C2.875 0.312 2.875 0.312 6 1 C6.66 1.99 7.32 2.98 8 4 C5.938 6.5 5.938 6.5 3 9 C-0.812 9.312 -0.812 9.312 -4 9 C-4 8.01 -4 7.02 -4 6 C-3.34 5.67 -2.68 5.34 -2 5 C-1.278 3.356 -0.606 1.689 0 0 Z " fill="#FCCC20" transform="translate(115,53)"/>
<path d="M0 0 C-0.55 3.848 -2.32 5.32 -5 8 C-5 8.99 -5 9.98 -5 11 C-4.01 11.33 -3.02 11.66 -2 12 C-2.33 12.99 -2.66 13.98 -3 15 C-3.33 14.34 -3.66 13.68 -4 13 C-7.976 14.325 -10.112 16.012 -13 19 C-13.66 19 -14.32 19 -15 19 C-13.49 14.343 -13.49 14.343 -11.125 12.688 C-8.372 10.501 -7.429 8.113 -6.027 4.938 C-4.562 2.173 -3.289 0 0 0 Z " fill="#E8A81D" transform="translate(78,44)"/>
<path d="M0 0 C0.33 0 0.66 0 1 0 C1 5.61 1 11.22 1 17 C1.66 17 2.32 17 3 17 C4.331 19.662 4.113 21.687 4.098 24.664 C4.094 25.786 4.091 26.907 4.088 28.062 C4.08 29.238 4.071 30.414 4.062 31.625 C4.058 32.808 4.053 33.992 4.049 35.211 C4.037 38.141 4.021 41.07 4 44 C3.67 44 3.34 44 3 44 C3 38.39 3 32.78 3 27 C2.34 27 1.68 27 1 27 C-0.33 18.022 -0.088 9.052 0 0 Z " fill="#80B51A" transform="translate(43,51)"/>
<path d="M0 0 C2.007 0.287 4.009 0.619 6 1 C7 4 7 4 6.125 6.062 C5.754 6.702 5.382 7.341 5 8 C4.67 8.66 4.34 9.32 4 10 C3.01 10 2.02 10 1 10 C1 9.34 1 8.68 1 8 C0.01 8 -0.98 8 -2 8 C-1.125 1.125 -1.125 1.125 0 0 Z " fill="#FBD024" transform="translate(120,41)"/>
<path d="M0 0 C0.845 2.401 1.11 3.654 0.328 6.113 C-0.028 6.839 -0.383 7.565 -0.75 8.312 C-1.125 9.099 -1.5 9.885 -1.887 10.695 C-2.254 11.456 -2.621 12.216 -3 13 C-3.529 14.226 -4.05 15.455 -4.562 16.688 C-8.494 25.747 -8.494 25.747 -11 27 C-10.743 25.414 -10.469 23.832 -10.188 22.25 C-10.037 21.368 -9.886 20.487 -9.73 19.578 C-8.941 16.79 -7.766 15.259 -6 13 C-5.835 11.989 -5.67 10.979 -5.5 9.938 C-4.946 6.683 -4.384 6.097 -2 4 C-0.812 1.812 -0.812 1.812 0 0 Z " fill="#C88704" transform="translate(131,78)"/>
<path d="M0 0 C0.66 0.33 1.32 0.66 2 1 C2.366 4.938 2.302 6.565 0 9.875 C-0.66 10.576 -1.32 11.278 -2 12 C-4.891 11.598 -6.672 11.256 -9 9.438 C-11.489 7.648 -13.003 7.75 -16 8 C-16 7.01 -16 6.02 -16 5 C-15.698 5.072 -15.698 5.072 -14.172 5.438 C-13.373 5.623 -12.573 5.809 -11.75 6 C-10.961 6.186 -10.172 6.371 -9.359 6.562 C-7 7 -7 7 -3 7 C-2.01 4.69 -1.02 2.38 0 0 Z " fill="#F9C513" transform="translate(100,70)"/>
<path d="M0 0 C0.66 0.66 1.32 1.32 2 2 C4.323 2.4 6.657 2.74 9 3 C9 3.99 9 4.98 9 6 C7.68 6 6.36 6 5 6 C5 6.99 5 7.98 5 9 C2.69 9.33 0.38 9.66 -2 10 C-2 10.99 -2 11.98 -2 13 C-3.65 13 -5.3 13 -7 13 C-6.427 10.133 -6.139 9.139 -4 7 C-0.875 7.375 -0.875 7.375 2 8 C2 7.34 2 6.68 2 6 C0.68 5.34 -0.64 4.68 -2 4 C-1.34 4 -0.68 4 0 4 C0 2.68 0 1.36 0 0 Z " fill="#FCD93A" transform="translate(85,43)"/>
<path d="M0 0 C5.255 0.375 8.62 2.285 13 5 C11.875 7.972 10.777 10.334 9 13 C8.34 13 7.68 13 7 13 C7.33 11.68 7.66 10.36 8 9 C8.66 9 9.32 9 10 9 C10 8.34 10 7.68 10 7 C8.68 6.34 7.36 5.68 6 5 C6 4.34 6 3.68 6 3 C4.02 3 2.04 3 0 3 C0 3.99 0 4.98 0 6 C-0.66 6 -1.32 6 -2 6 C-1.125 1.125 -1.125 1.125 0 0 Z " fill="#FDD93E" transform="translate(67,104)"/>
<path d="M0 0 C5.538 -0.369 5.538 -0.369 7.875 1.5 C8.246 1.995 8.618 2.49 9 3 C8.67 3.66 8.34 4.32 8 5 C7.34 5 6.68 5 6 5 C6 5.66 6 6.32 6 7 C2.377 8.208 1.359 7.543 -2 6 C-1.494 3.831 -1 2 0 0 Z " fill="#FDDF44" transform="translate(88,39)"/>
<path d="M0 0 C3.875 0.312 3.875 0.312 4.875 1.312 C5.125 3.75 5.125 3.75 4.875 6.312 C3.885 6.973 2.895 7.633 1.875 8.312 C-0.812 7.438 -0.812 7.438 -3.125 6.312 C-3.125 5.322 -3.125 4.332 -3.125 3.312 C-4.445 3.642 -5.765 3.973 -7.125 4.312 C-5.319 0.7 -3.881 0.021 0 0 Z " fill="#FDD933" transform="translate(103.125,22.6875)"/>
<path d="M0 0 C0.743 0.248 1.485 0.495 2.25 0.75 C1.051 3.833 -0.227 6.813 -1.75 9.75 C-3.4 9.75 -5.05 9.75 -6.75 9.75 C-7.077 6.15 -7.154 4.334 -5.062 1.312 C-2.75 -0.25 -2.75 -0.25 0 0 Z " fill="#FEDD43" transform="translate(69.75,72.25)"/>
<path d="M0 0 C0.66 0.33 1.32 0.66 2 1 C2 2.32 2 3.64 2 5 C2.66 5 3.32 5 4 5 C4 4.34 4 3.68 4 3 C4.99 3 5.98 3 7 3 C10 6.333 10 6.333 10 9 C7.667 9.042 5.333 9.041 3 9 C2.67 8.67 2.34 8.34 2 8 C0 7.959 -2 7.957 -4 8 C-4 5 -4 5 -2.562 3.438 C-2.047 2.963 -1.531 2.489 -1 2 C-0.67 1.34 -0.34 0.68 0 0 Z " fill="#ECB106" transform="translate(63,63)"/>
<path d="M0 0 C0.33 1.32 0.66 2.64 1 4 C0.215 4.69 -0.57 5.379 -1.379 6.09 C-7.602 11.631 -13.188 17.138 -18 24 C-18 19.411 -16.81 16.875 -13.688 13.5 C-12.801 12.675 -11.914 11.85 -11 11 C-10.175 10.134 -9.35 9.267 -8.5 8.375 C-6 6 -6 6 -3.25 4.375 C-1 3 -1 3 0 0 Z " fill="#4F8A1C" transform="translate(155,78)"/>
<path d="M0 0 C-0.006 0.302 -0.006 0.302 -0.035 1.828 C-0.044 2.627 -0.053 3.427 -0.062 4.25 C-0.074 5.039 -0.086 5.828 -0.098 6.641 C-0.004 8.907 0.368 10.829 1 13 C-0.32 13.99 -1.64 14.98 -3 16 C-4 15 -4 15 -4.098 11.84 C-4.092 11.196 -4.092 11.196 -4.062 7.938 C-4.053 6.647 -4.044 5.357 -4.035 4.027 C-4.024 3.028 -4.012 2.029 -4 1 C-1 0 -1 0 0 0 Z " fill="#CF9202" transform="translate(53,131)"/>
<path d="M0 0 C0.33 0.99 0.66 1.98 1 3 C-3.131 9.441 -10.739 17.235 -18 20 C-18.99 19.67 -19.98 19.34 -21 19 C-20.466 18.683 -19.933 18.366 -19.383 18.039 C-11.857 13.326 -4.954 7.431 0 0 Z " fill="#E4E2BD" transform="translate(108,147)"/>
<path d="M0 0 C0.743 0.248 1.485 0.495 2.25 0.75 C2.25 2.07 2.25 3.39 2.25 4.75 C0.6 5.08 -1.05 5.41 -2.75 5.75 C-2.42 6.74 -2.09 7.73 -1.75 8.75 C-3.4 8.75 -5.05 8.75 -6.75 8.75 C-7.116 5.46 -7.012 4.119 -5.062 1.375 C-2.75 -0.25 -2.75 -0.25 0 0 Z " fill="#FDE24F" transform="translate(83.75,77.25)"/>
<path d="M0 0 C0.66 0.33 1.32 0.66 2 1 C1.526 1.433 1.051 1.866 0.562 2.312 C-1 4 -1 4 -2 7 C-5.444 10 -5.444 10 -8 10 C-8.248 10.536 -8.495 11.072 -8.75 11.625 C-10.297 14.564 -12.13 17.258 -14 20 C-14.652 18.238 -14.652 18.238 -15 16 C-11.952 9.814 -6.223 5.301 -1 1 C-0.67 0.67 -0.34 0.34 0 0 Z " fill="#ABD02E" transform="translate(66,134)"/>
<path d="M0 0 C0.33 0.99 0.66 1.98 1 3 C-0.312 5.188 -0.312 5.188 -2 7 C-2.66 7 -3.32 7 -4 7 C-4 7.66 -4 8.32 -4 9 C-2.02 9 -0.04 9 2 9 C-1.225 10.737 -4.513 11.891 -8 13 C-7.67 11.02 -7.34 9.04 -7 7 C-8.32 6.34 -9.64 5.68 -11 5 C-9 4 -9 4 -6.062 4.188 C-3 4 -3 4 -1.125 2 C-0.754 1.34 -0.382 0.68 0 0 Z " fill="#CE9103" transform="translate(110,98)"/>
<path d="M0 0 C0.33 0 0.66 0 1 0 C1.061 0.915 1.121 1.83 1.184 2.773 C1.267 3.962 1.351 5.15 1.438 6.375 C1.478 6.967 1.478 6.967 1.684 9.961 C2 13 2 13 3 15 C2.01 15.66 1.02 16.32 0 17 C-0.441 19.934 -0.441 19.934 -0.562 23.438 C-0.793 29.69 -0.793 29.69 -3 33 C-3.352 16.886 -3.352 16.886 -1 9 C-0.57 6.008 -0.265 3.011 0 0 Z " fill="#8C9607" transform="translate(53,82)"/>
<path d="M0 0 C0.66 0.66 1.32 1.32 2 2 C-0.617 3.701 -3.245 5.383 -5.875 7.062 C-6.621 7.548 -7.368 8.033 -8.137 8.533 C-8.852 8.988 -9.568 9.442 -10.305 9.91 C-10.965 10.334 -11.624 10.759 -12.304 11.196 C-12.584 11.328 -12.584 11.328 -14 12 C-14.66 11.67 -15.32 11.34 -16 11 C-14.557 6.67 -11.292 5.755 -7.438 3.812 C-6.727 3.444 -6.016 3.076 -5.283 2.697 C-3.527 1.789 -1.764 0.894 0 0 Z " fill="#73AD11" transform="translate(103,116)"/>
<path d="M0 0 C0 1.32 0 2.64 0 4 C-1.32 4.33 -2.64 4.66 -4 5 C-4 5.99 -4 6.98 -4 8 C-5.65 8 -7.3 8 -9 8 C-9.222 5.259 -9.348 3.56 -7.875 1.188 C-5.225 -0.491 -3.068 -0.205 0 0 Z " fill="#FDE255" transform="translate(93,65)"/>
<path d="M0 0 C-2.826 1.884 -3.781 2.256 -6.938 2.75 C-12.25 3.814 -16.659 6.199 -21.398 8.758 C-24 10 -24 10 -27 10 C-20.369 4.032 -9.158 -2.784 0 0 Z " fill="#57950A" transform="translate(134,113)"/>
<path d="M0 0 C3 3 3 3 3.145 6.906 C3.05 8.439 2.939 9.97 2.812 11.5 C2.768 12.272 2.724 13.044 2.678 13.84 C2.411 17.633 2.144 19.785 0 23 C0 15.41 0 7.82 0 0 Z " fill="#4A8A09" transform="translate(51,71)"/>
<path d="M0 0 C2.188 -0.312 2.188 -0.312 5 0 C7.691 2.018 9.665 3.644 10.495 7.005 C10.715 9.285 10.795 11.523 10.812 13.812 C10.825 14.207 10.825 14.207 10.889 16.201 C10.947 18.134 10.977 20.067 11 22 C10.67 22 10.34 22 10 22 C10 19.69 10 17.38 10 15 C9.34 15 8.68 15 8 15 C7.963 14.301 7.925 13.603 7.887 12.883 C7.821 11.973 7.755 11.063 7.688 10.125 C7.658 9.673 7.658 9.673 7.512 7.383 C7 5 7 5 4 3 C2.345 2.615 0.678 2.272 -1 2 C-0.67 1.34 -0.34 0.68 0 0 Z " fill="#DA8F14" transform="translate(130,22)"/>
<path d="M0 0 C0.784 0.041 1.567 0.083 2.375 0.125 C2.375 1.445 2.375 2.765 2.375 4.125 C2.045 4.29 2.045 4.29 0.375 5.125 C0.045 6.115 -0.285 7.105 -0.625 8.125 C-2.275 8.125 -3.925 8.125 -5.625 8.125 C-4.594 0.219 -4.594 0.219 0 0 Z " fill="#FEE75B" transform="translate(96.625,52.875)"/>
<path d="M0 0 C1.32 0 2.64 0 4 0 C3.328 3.806 2.273 7.352 1 11 C0.01 11 -0.98 11 -2 11 C-2.054 9.542 -2.093 8.084 -2.125 6.625 C-2.137 6.219 -2.137 6.219 -2.195 4.164 C-2 2 -2 2 0 0 Z " fill="#FBC518" transform="translate(60,70)"/>
<path d="M0 0 C0.66 0.33 1.32 0.66 2 1 C2.125 3.875 2.125 3.875 2 7 C1.34 7.66 0.68 8.32 0 9 C-2.963 8.605 -5.383 7.402 -8 6 C-5.614 4.108 -3.928 2.976 -1 2 C-0.67 1.34 -0.34 0.68 0 0 Z " fill="#F6B90B" transform="translate(119,69)"/>
<path d="M0 0 C5.75 0.75 5.75 0.75 8 3 C6.35 3.99 6.35 3.99 -2 9 C-2.33 8.34 -2.66 7.68 -3 7 C-2.064 4.64 -1.067 2.304 0 0 Z " fill="#FACA1B" transform="translate(84,113)"/>
<path d="M0 0 C0.99 0.165 0.99 0.165 6 1 C4.25 6.75 4.25 6.75 2 9 C1.01 9 0.02 9 -1 9 C-0.67 6.03 -0.34 3.06 0 0 Z " fill="#F5AD08" transform="translate(112,95)"/>
<path d="M0 0 C0.743 0.248 1.485 0.495 2.25 0.75 C2.25 1.41 2.25 2.07 2.25 2.75 C1.59 2.75 0.93 2.75 0.25 2.75 C0.25 3.74 0.25 4.73 0.25 5.75 C-1.07 5.75 -2.39 5.75 -3.75 5.75 C-3.42 6.74 -3.09 7.73 -2.75 8.75 C-4.07 8.75 -5.39 8.75 -6.75 8.75 C-7.116 5.46 -7.012 4.119 -5.062 1.375 C-2.75 -0.25 -2.75 -0.25 0 0 Z " fill="#FDE555" transform="translate(77.75,59.25)"/>
<path d="M0 0 C0.33 0.99 0.66 1.98 1 3 C-0.362 5.207 -1.723 7.158 -3.312 9.188 C-3.73 9.746 -4.147 10.305 -4.576 10.881 C-5.662 12.299 -6.826 13.655 -8 15 C-8.66 15 -9.32 15 -10 15 C-8.602 9.407 -5.759 5.28 -2 1 C-1.34 0.67 -0.68 0.34 0 0 Z " fill="#64A614" transform="translate(113,134)"/>
<path d="M0 0 C2.31 0 4.62 0 7 0 C6.67 1.98 6.34 3.96 6 6 C2.284 6.201 1.228 6.152 -2 4 C-1.34 2.68 -0.68 1.36 0 0 Z " fill="#FCDC42" transform="translate(109,17)"/>
<path d="M0 0 C3.63 1.98 7.26 3.96 11 6 C10.67 6.99 10.34 7.98 10 9 C8.721 8.711 7.443 8.423 6.125 8.125 C5.406 7.963 4.686 7.8 3.945 7.633 C2 7 2 7 0 5 C0 3.35 0 1.7 0 0 Z " fill="#ECE4C2" transform="translate(34,171)"/>
<path d="M0 0 C6.93 0 13.86 0 21 0 C21 0.99 21 1.98 21 3 C17.7 3.66 14.4 4.32 11 5 C11.33 4.01 11.66 3.02 12 2 C8.04 1.67 4.08 1.34 0 1 C0 0.67 0 0.34 0 0 Z " fill="#6EA813" transform="translate(124,109)"/>
<path d="M0 0 C-1.247 0.651 -2.498 1.296 -3.75 1.938 C-4.446 2.297 -5.142 2.657 -5.859 3.027 C-10.593 5.178 -15.122 5.121 -20.25 5.062 C-20.995 5.058 -21.74 5.053 -22.508 5.049 C-24.339 5.037 -26.169 5.019 -28 5 C-28 4.67 -28 4.34 -28 4 C-27.553 3.987 -27.553 3.987 -25.289 3.922 C-18.211 3.59 -12.47 2.901 -6.086 -0.258 C-3.626 -1.133 -2.422 -0.866 0 0 Z " fill="#2D710B" transform="translate(88,166)"/>
<path d="M0 0 C5.348 0.535 9.358 2.467 14 5 C10.305 7.07 10.305 7.07 7.562 6.438 C4.49 4.714 2.377 2.581 0 0 Z " fill="#6AA012" transform="translate(34,168)"/>
<path d="M0 0 C2.007 0.287 4.009 0.619 6 1 C6 2.32 6 3.64 6 5 C5 6 5 6 1.938 6.062 C1.453 6.052 1.453 6.052 -1 6 C-1.043 4.334 -1.041 2.666 -1 1 C-0.67 0.67 -0.34 0.34 0 0 Z " fill="#FAC214" transform="translate(54,130)"/>
<path d="M0 0 C0.66 0.33 1.32 0.66 2 1 C2.25 3.812 2.25 3.812 2 7 C0.375 8.875 0.375 8.875 -2 10 C-5.25 10.188 -5.25 10.188 -8 10 C-7.422 9.464 -6.845 8.927 -6.25 8.375 C-3.785 5.773 -1.921 3.019 0 0 Z " fill="#F8B808" transform="translate(108,90)"/>
<path d="M0 0 C0.66 0 1.32 0 2 0 C2.33 4.62 2.66 9.24 3 14 C2.505 14.33 2.505 14.33 0 16 C0 10.72 0 5.44 0 0 Z " fill="#A3CD2E" transform="translate(44,49)"/>
<path d="M0 0 C5.571 5.143 5.571 5.143 6 9 C5.01 9.33 4.02 9.66 3 10 C2.34 10.66 1.68 11.32 1 12 C0.67 8.04 0.34 4.08 0 0 Z " fill="#74AD14" transform="translate(46,50)"/>
<path d="M0 0 C1.65 0.33 3.3 0.66 5 1 C5 3.97 5 6.94 5 10 C4.34 10 3.68 10 3 10 C3 8.68 3 7.36 3 6 C1.68 6.33 0.36 6.66 -1 7 C-0.67 4.69 -0.34 2.38 0 0 Z " fill="#F5B60F" transform="translate(135,36)"/>
<path d="M0 0 C1.65 0 3.3 0 5 0 C4.67 2.31 4.34 4.62 4 7 C3.01 6.835 3.01 6.835 -2 6 C-1.34 4.02 -0.68 2.04 0 0 Z " fill="#BDDE45" transform="translate(37,162)"/>
<path d="M0 0 C0 1.65 0 3.3 0 5 C-0.99 5.33 -1.98 5.66 -3 6 C-4.688 9.562 -4.688 9.562 -6 13 C-6.66 12.67 -7.32 12.34 -8 12 C-7.691 11.257 -7.381 10.515 -7.062 9.75 C-6.184 7.477 -5.413 5.397 -5 3 C-5.33 2.34 -5.66 1.68 -6 1 C-3.924 0.447 -2.156 0 0 0 Z " fill="#EFAE06" transform="translate(68,99)"/>
<path d="M0 0 C0.33 0.99 0.66 1.98 1 3 C4.735 3.575 8.213 4 12 4 C11.67 5.32 11.34 6.64 11 8 C10.34 8 9.68 8 9 8 C9 7.34 9 6.68 9 6 C8.072 6.371 7.144 6.743 6.188 7.125 C5.136 7.414 4.084 7.703 3 8 C2.01 7.34 1.02 6.68 0 6 C-0.188 2.875 -0.188 2.875 0 0 Z " fill="#FCCA1A" transform="translate(56,90)"/>
<path d="M0 0 C1.675 0.286 3.344 0.618 5 1 C4.67 2.65 4.34 4.3 4 6 C1.69 5.67 -0.62 5.34 -3 5 C-1.125 1.125 -1.125 1.125 0 0 Z " fill="#FDEC79" transform="translate(96,31)"/>
<path d="M0 0 C0.66 0.33 1.32 0.66 2 1 C2 2.65 2 4.3 2 6 C-0.572 7.619 -1.677 8.044 -4.75 7.625 C-5.493 7.419 -6.235 7.212 -7 7 C-6.67 6.34 -6.34 5.68 -6 5 C-4.68 5 -3.36 5 -2 5 C-2 3.68 -2 2.36 -2 1 C-1.34 0.67 -0.68 0.34 0 0 Z " fill="#FCCF20" transform="translate(126,18)"/>
<path d="M0 0 C-0.33 3.63 -0.66 7.26 -1 11 C-1.33 10.34 -1.66 9.68 -2 9 C-3.32 9 -4.64 9 -6 9 C-3.4 0 -3.4 0 0 0 Z " fill="#9ACC2B" transform="translate(43,103)"/>
<path d="M0 0 C2.31 0.33 4.62 0.66 7 1 C7 2.65 7 4.3 7 6 C6.34 6 5.68 6 5 6 C5 5.34 5 4.68 5 4 C3.35 4.33 1.7 4.66 0 5 C0 3.35 0 1.7 0 0 Z " fill="#FEEC64" transform="translate(99,44)"/>
<path d="M0 0 C0.722 0.103 1.444 0.206 2.188 0.312 C1.806 0.601 1.806 0.601 -0.125 2.062 C-2.812 4.312 -2.812 4.312 -4.125 6.562 C-5.812 8.312 -5.812 8.312 -7.773 8.562 C-9.788 8.562 -11.802 8.444 -13.812 8.312 C-13.812 7.982 -13.812 7.653 -13.812 7.312 C-13.369 7.199 -13.369 7.199 -11.125 6.625 C-7.812 5.312 -7.812 5.312 -5.25 2.688 C-2.812 0.312 -2.812 0.312 0 0 Z " fill="#D7D49E" transform="translate(63.8125,171.6875)"/>
<path d="M0 0 C1.32 1.32 2.64 2.64 4 4 C1.36 5.98 -1.28 7.96 -4 10 C-4.33 9.01 -4.66 8.02 -5 7 C-4.68 6.701 -4.68 6.701 -3.062 5.188 C-1 3 -1 3 0 0 Z " fill="#E9B106" transform="translate(71,122)"/>
<path d="M0 0 C0.976 0.009 1.952 0.018 2.957 0.027 C3.693 0.039 4.429 0.051 5.188 0.062 C5.517 0.722 5.847 1.382 6.188 2.062 C4.417 2.231 2.646 2.397 0.875 2.562 C-0.111 2.655 -1.097 2.748 -2.113 2.844 C-7.487 3.279 -7.487 3.279 -10.812 1.062 C-7.139 0.21 -3.768 -0.045 0 0 Z " fill="#5E9D1E" transform="translate(148.8125,75.9375)"/>
<path d="M0 0 C0.99 0.33 1.98 0.66 3 1 C2.125 5.75 2.125 5.75 1 8 C-1.562 8.625 -1.562 8.625 -4 9 C-2.941 5.597 -1.991 2.986 0 0 Z " fill="#FDD83A" transform="translate(105,74)"/>
<path d="M0 0 C-1.37 2.95 -2.826 5.565 -5 8 C-5.99 8 -6.98 8 -8 8 C-7.664 4.893 -7.41 3.396 -5.125 1.188 C-3 0 -3 0 0 0 Z " fill="#FCE149" transform="translate(73,57)"/>
<path d="M0 0 C1.265 0.046 2.529 0.093 3.832 0.141 C4.468 0.159 4.468 0.159 7.688 0.25 C8.663 0.296 9.639 0.343 10.645 0.391 C10.645 0.721 10.645 1.051 10.645 1.391 C10.246 1.392 10.246 1.392 8.23 1.398 C-0.418 1.714 -0.418 1.714 -3.348 3.828 C-4.696 5.338 -6.027 6.863 -7.355 8.391 C-9.512 8.07 -9.512 8.07 -11.355 7.391 C-10.592 6.978 -9.829 6.566 -9.043 6.141 C-6.355 4.391 -6.355 4.391 -5.137 2.297 C-3.355 0.391 -3.355 0.391 0 0 Z " fill="#518424" transform="translate(62.35546875,170.609375)"/>
<path d="M0 0 C-0.33 0.99 -0.66 1.98 -1 3 C-7.127 5.617 -13.409 6.373 -20 6 C-20 5.67 -20 5.34 -20 5 C-18.868 4.723 -17.736 4.446 -16.57 4.16 C-15.089 3.794 -13.607 3.429 -12.125 3.062 C-11.379 2.88 -10.632 2.698 -9.863 2.51 C-6.615 1.705 -3.272 0 0 0 Z " fill="#DAD7A5" transform="translate(87,167)"/>
<path d="M0 0 C0.33 0 0.66 0 1 0 C1.027 1.583 1.046 3.167 1.062 4.75 C1.074 5.632 1.086 6.513 1.098 7.422 C1.007 9.804 0.636 11.717 0 14 C-0.35 16.331 -0.686 18.664 -1 21 C-1.33 21 -1.66 21 -2 21 C-2.224 13.637 -1.901 7.13 0 0 Z " fill="#D08D2C" transform="translate(141,37)"/>
<path d="M0 0 C1.65 0.99 3.3 1.98 5 3 C4.34 5.31 3.68 7.62 3 10 C2.01 9.67 1.02 9.34 0 9 C0.33 7.68 0.66 6.36 1 5 C0.67 5 0.34 5 0 5 C0 3.35 0 1.7 0 0 Z " fill="#FDD124" transform="translate(106,45)"/>
<path d="M0 0 C0.33 0 0.66 0 1 0 C1 1.98 1 3.96 1 6 C1.66 6.165 1.66 6.165 5 7 C5.33 5.35 5.66 3.7 6 2 C6.33 2 6.66 2 7 2 C7 4.64 7 7.28 7 10 C4.69 9.34 2.38 8.68 0 8 C0 5.36 0 2.72 0 0 Z " fill="#D19102" transform="translate(49,119)"/>
<path d="M0 0 C0.66 0.33 1.32 0.66 2 1 C2.188 3.875 2.188 3.875 2 7 C1.505 7.33 1.505 7.33 -1 9 C-2.033 6.212 -2.045 5.132 -1.062 2.25 C-0.712 1.507 -0.361 0.765 0 0 Z M-6 7 C-5.34 7.165 -5.34 7.165 -2 8 C-3.65 8.33 -5.3 8.66 -7 9 C-6.67 8.34 -6.34 7.68 -6 7 Z " fill="#FCC917" transform="translate(108,75)"/>
<path d="M0 0 C0.66 0 1.32 0 2 0 C2.33 2.31 2.66 4.62 3 7 C1.02 7 -0.96 7 -3 7 C-3.33 6.01 -3.66 5.02 -4 4 C-3.01 4 -2.02 4 -1 4 C-0.67 2.68 -0.34 1.36 0 0 Z " fill="#ECAB06" transform="translate(96,46)"/>
<path d="M0 0 C0 2 0 2 -2.312 4.5 C-5 7 -5 7 -8 9 C-8.201 5.284 -8.152 4.228 -6 1 C-3 0 -3 0 0 0 Z " fill="#FCDE46" transform="translate(90,35)"/>
<path d="M0 0 C5.274 -0.502 7.91 0.671 12 4 C12.33 4.99 12.66 5.98 13 7 C12.01 7.33 11.02 7.66 10 8 C9.835 7.381 9.67 6.762 9.5 6.125 C7.098 2.722 3.998 2.774 0 2 C0 1.34 0 0.68 0 0 Z " fill="#E09B22" transform="translate(119,15)"/>
<path d="M0 0 C0.33 0 0.66 0 1 0 C1.124 0.969 1.248 1.939 1.375 2.938 C1.581 3.948 1.788 4.959 2 6 C2.66 6.33 3.32 6.66 4 7 C3.341 10.693 2.471 11.706 0 15 C0 10.05 0 5.1 0 0 Z " fill="#518206" transform="translate(48,140)"/>
<path d="M0 0 C2.938 0.375 2.938 0.375 6 1 C6.33 1.66 6.66 2.32 7 3 C3.772 5.152 2.716 5.201 -1 5 C-0.67 3.35 -0.34 1.7 0 0 Z " fill="#FDDE58" transform="translate(60,117)"/>
<path d="M0 0 C1.32 1.32 2.64 2.64 4 4 C4.33 3.34 4.66 2.68 5 2 C5 2.99 5 3.98 5 5 C3.02 5 1.04 5 -1 5 C-1 5.99 -1 6.98 -1 8 C-0.01 8 0.98 8 2 8 C2 8.99 2 9.98 2 11 C0.68 10.67 -0.64 10.34 -2 10 C-2.179 6.053 -2.094 3.402 0 0 Z " fill="#FBD11B" transform="translate(71,92)"/>
<path d="M0 0 C3.875 0.875 3.875 0.875 5 2 C5.041 4.333 5.042 6.667 5 9 C4.34 9 3.68 9 3 9 C0 3.375 0 3.375 0 0 Z " fill="#F7BB13" transform="translate(133,49)"/>
<path d="M0 0 C-0.33 3.96 -0.66 7.92 -1 12 C-1.66 12 -2.32 12 -3 12 C-3 8.37 -3 4.74 -3 1 C-1 0 -1 0 0 0 Z " fill="#E38D00" transform="translate(53,131)"/>
<path d="M0 0 C1.32 0.33 2.64 0.66 4 1 C1.69 3.64 -0.62 6.28 -3 9 C-3.99 8.67 -4.98 8.34 -6 8 C-4.188 5.5 -4.188 5.5 -2 3 C-1.01 3 -0.02 3 1 3 C0.67 2.01 0.34 1.02 0 0 Z " fill="#659E0F" transform="translate(141,82)"/>
<path d="M0 0 C0.99 0 1.98 0 3 0 C3 2.97 3 5.94 3 9 C2.01 9.33 1.02 9.66 0 10 C0 6.7 0 3.4 0 0 Z " fill="#858F07" transform="translate(54,72)"/>
<path d="M0 0 C0.99 0.165 0.99 0.165 6 1 C5.25 2.938 5.25 2.938 4 5 C1.875 5.75 1.875 5.75 0 6 C0 4.02 0 2.04 0 0 Z " fill="#FDDC45" transform="translate(120,41)"/>
<path d="M0 0 C0.99 0.33 1.98 0.66 3 1 C1.213 2.339 -0.58 3.671 -2.375 5 C-3.373 5.743 -4.37 6.485 -5.398 7.25 C-8 9 -8 9 -10 9 C-10 8.34 -10 7.68 -10 7 C-7.918 5.238 -7.918 5.238 -5.188 3.312 C-4.294 2.669 -3.401 2.026 -2.48 1.363 C-2.071 1.138 -2.071 1.138 0 0 Z " fill="#52840A" transform="translate(73,127)"/>
<path d="M0 0 C0.33 0.99 0.66 1.98 1 3 C0.326 2.847 -0.348 2.693 -1.043 2.535 C-4.469 1.915 -7.839 1.665 -11.312 1.438 C-12.567 1.354 -13.821 1.27 -15.113 1.184 C-15.59 1.153 -15.59 1.153 -18 1 C-18 0.67 -18 0.34 -18 0 C-5.33 -1.333 -5.33 -1.333 0 0 Z " fill="#6AA215" transform="translate(142,106)"/>
<path d="M0 0 C1.32 0.66 2.64 1.32 4 2 C3.175 3.32 3.175 3.32 -1 10 C-2.312 6.063 -1.243 3.875 0 0 Z " fill="#F6B611" transform="translate(128,60)"/>
<path d="M0 0 C0.66 1.32 1.32 2.64 2 4 C0.667 5.333 -0.667 6.667 -2 8 C-2.536 8.578 -3.073 9.155 -3.625 9.75 C-5 11 -5 11 -7 11 C-5.702 6.996 -4.389 5.405 -1 3 C-0.67 2.01 -0.34 1.02 0 0 Z " fill="#E4A436" transform="translate(70,52)"/>
<path d="M0 0 C0 0.66 0 1.32 0 2 C-0.953 2.061 -1.905 2.121 -2.887 2.184 C-4.141 2.267 -5.395 2.351 -6.688 2.438 C-7.929 2.519 -9.17 2.6 -10.449 2.684 C-13.382 2.945 -16.134 3.348 -19 4 C-17.272 1.793 -16.175 1.047 -13.438 0.312 C-8.949 -0.096 -4.503 -0.08 0 0 Z " fill="#EADCB9" transform="translate(77,176)"/>
<path d="M0 0 C0.33 0.99 0.66 1.98 1 3 C1.99 3 2.98 3 4 3 C3.67 3.99 3.34 4.98 3 6 C0.69 6 -1.62 6 -4 6 C-4 4 -4 4 -2 1.875 C-1.34 1.256 -0.68 0.638 0 0 Z " fill="#EC9F03" transform="translate(110,101)"/>
<path d="M0 0 C0.33 1.32 0.66 2.64 1 4 C-1.64 6.31 -4.28 8.62 -7 11 C-7.66 10.01 -8.32 9.02 -9 8 C-8.434 7.674 -7.868 7.348 -7.285 7.012 C-6.552 6.575 -5.818 6.138 -5.062 5.688 C-4.332 5.258 -3.601 4.829 -2.848 4.387 C-1 3 -1 3 0 0 Z " fill="#599221" transform="translate(155,78)"/>
<path d="M0 0 C0.66 0.99 1.32 1.98 2 3 C0.02 5.64 -1.96 8.28 -4 11 C-5 7 -5 7 -4.004 5.078 C-3.528 4.475 -3.053 3.872 -2.562 3.25 C-2.089 2.636 -1.616 2.023 -1.129 1.391 C-0.756 0.932 -0.384 0.473 0 0 Z " fill="#9BCA26" transform="translate(56,143)"/>
<path d="M0 0 C0.99 0 1.98 0 3 0 C3.688 1.812 3.688 1.812 4 4 C2.158 6.486 0.995 7.002 -2 8 C-1.34 5.36 -0.68 2.72 0 0 Z " fill="#FCD33A" transform="translate(90,100)"/>
<path d="M0 0 C0.66 0 1.32 0 2 0 C1.67 2.31 1.34 4.62 1 7 C-0.65 7 -2.3 7 -4 7 C-2.68 4.69 -1.36 2.38 0 0 Z " fill="#F3A503" transform="translate(119,98)"/>
<path d="M0 0 C0.485 0.01 0.485 0.01 2.938 0.062 C2.608 1.053 2.278 2.042 1.938 3.062 C-0.5 4.188 -0.5 4.188 -3.062 5.062 C-3.392 5.227 -3.392 5.227 -5.062 6.062 C-3.989 0.081 -3.989 0.081 0 0 Z " fill="#FDEF8D" transform="translate(108.0625,34.9375)"/>
<path d="M0 0 C0.33 0.99 0.66 1.98 1 3 C-0.429 4.033 -1.868 5.051 -3.312 6.062 C-3.713 6.347 -3.713 6.347 -5.738 7.785 C-6.485 8.186 -7.231 8.587 -8 9 C-8.99 8.67 -9.98 8.34 -11 8 C-10.374 7.59 -9.747 7.18 -9.102 6.758 C-8.284 6.219 -7.467 5.68 -6.625 5.125 C-6.219 4.858 -6.219 4.858 -4.164 3.508 C-2 2 -2 2 0 0 Z " fill="#E1DCB0" transform="translate(98,158)"/>
<path d="M0 0 C0.33 0.66 0.66 1.32 1 2 C1.66 2.33 2.32 2.66 3 3 C2.402 3.536 1.804 4.073 1.188 4.625 C-1.213 7.231 -2.54 9.788 -4 13 C-4.33 12.34 -4.66 11.68 -5 11 C-4.004 8.398 -4.004 8.398 -2.562 5.375 C-2.089 4.372 -1.616 3.369 -1.129 2.336 C-0.756 1.565 -0.384 0.794 0 0 Z " fill="#7A940B" transform="translate(132,80)"/>
<path d="M0 0 C0.99 0 1.98 0 3 0 C3 0.99 3 1.98 3 3 C5.31 2.34 7.62 1.68 10 1 C9.34 2.32 8.68 3.64 8 5 C5.03 4.67 2.06 4.34 -1 4 C-0.34 3.67 0.32 3.34 1 3 C0.67 2.01 0.34 1.02 0 0 Z " fill="#F9C20F" transform="translate(72,69)"/>
<path d="M0 0 C1.506 1.964 2.891 3.783 4 6 C4.33 5.34 4.66 4.68 5 4 C5.66 4 6.32 4 7 4 C6.67 5.65 6.34 7.3 6 9 C5.01 9.33 4.02 9.66 3 10 C0 3.375 0 3.375 0 0 Z " fill="#F4F1D9" transform="translate(56,58)"/>
<path d="M0 0 C0.33 0 0.66 0 1 0 C1.33 2.64 1.66 5.28 2 8 C0.125 8.625 0.125 8.625 -2 9 C-2.66 8.34 -3.32 7.68 -4 7 C-3.01 6.67 -2.02 6.34 -1 6 C-0.67 4.02 -0.34 2.04 0 0 Z " fill="#80B01A" transform="translate(49,164)"/>
<path d="M0 0 C0.103 0.639 0.206 1.279 0.312 1.938 C0.539 2.618 0.766 3.299 1 4 C1.99 4.33 2.98 4.66 4 5 C4.688 7.062 4.688 7.062 5 9 C3.68 8.67 2.36 8.34 1 8 C1 7.34 1 6.68 1 6 C0.34 6 -0.32 6 -1 6 C-0.67 4.02 -0.34 2.04 0 0 Z " fill="#FCC80F" transform="translate(58,118)"/>
<path d="M0 0 C0.33 0 0.66 0 1 0 C1.369 6.4 1.369 6.4 -0.5 9.438 C-0.995 9.953 -1.49 10.469 -2 11 C-2.25 3.375 -2.25 3.375 0 0 Z " fill="#BADC45" transform="translate(37,113)"/>
<path d="M0 0 C0.812 1.688 0.812 1.688 1 4 C-1.438 6.75 -1.438 6.75 -4 9 C-4.33 8.34 -4.66 7.68 -5 7 C-2.545 1.273 -2.545 1.273 0 0 Z " fill="#85C01E" transform="translate(38,99)"/>
<path d="M0 0 C0.66 0 1.32 0 2 0 C2.201 3.716 2.152 4.772 0 8 C-0.99 8 -1.98 8 -3 8 C-1.125 1.125 -1.125 1.125 0 0 Z " fill="#FBDB4A" transform="translate(115,53)"/>
<path d="M0 0 C1.65 0 3.3 0 5 0 C5 1.32 5 2.64 5 4 C4.01 3.835 4.01 3.835 -1 3 C-0.67 2.01 -0.34 1.02 0 0 Z " fill="#FDF07D" transform="translate(82,48)"/>
<path d="M0 0 C1.32 0.66 2.64 1.32 4 2 C3.67 2.99 3.34 3.98 3 5 C1.35 5 -0.3 5 -2 5 C-1.125 1.125 -1.125 1.125 0 0 Z " fill="#FEF490" transform="translate(88,40)"/>
<path d="M0 0 C5.61 0.33 11.22 0.66 17 1 C17 1.33 17 1.66 17 2 C14.542 2.194 12.084 2.381 9.625 2.562 C8.926 2.619 8.228 2.675 7.508 2.732 C2.227 3.113 2.227 3.113 0 2 C0 1.34 0 0.68 0 0 Z " fill="#4B8E08" transform="translate(57,168)"/>
<path d="M0 0 C0.825 0.33 0.825 0.33 5 2 C3.68 2.33 2.36 2.66 1 3 C1 3.99 1 4.98 1 6 C0.01 5.67 -0.98 5.34 -2 5 C-1.125 1.125 -1.125 1.125 0 0 Z " fill="#FDEB63" transform="translate(74,90)"/>
<path d="M0 0 C0.99 0 1.98 0 3 0 C2.67 1.32 2.34 2.64 2 4 C-0.375 4.625 -0.375 4.625 -3 5 C-3.66 4.34 -4.32 3.68 -5 3 C-4.361 2.876 -3.721 2.752 -3.062 2.625 C-2.722 2.522 -2.722 2.522 -1 2 C-0.67 1.34 -0.34 0.68 0 0 Z " fill="#FDD837" transform="translate(69,79)"/>
<path d="M0 0 C-0.33 0.722 -0.66 1.444 -1 2.188 C-2.006 5.017 -2.17 7.029 -2 10 C-2.66 10 -3.32 10 -4 10 C-5.344 4.623 -5.344 4.623 -3.688 1.625 C-2 0 -2 0 0 0 Z " fill="#CF8F1C" transform="translate(136,70)"/>
<path d="M0 0 C0.99 0.33 1.98 0.66 3 1 C2.188 3.438 2.188 3.438 1 6 C0.01 6.33 -0.98 6.66 -2 7 C-1.125 1.125 -1.125 1.125 0 0 Z " fill="#FEDE49" transform="translate(110,64)"/>
<path d="M0 0 C1.32 0 2.64 0 4 0 C3.67 1.98 3.34 3.96 3 6 C2.34 6 1.68 6 1 6 C1 5.34 1 4.68 1 4 C0.34 4 -0.32 4 -1 4 C-0.67 2.68 -0.34 1.36 0 0 Z " fill="#FCDD3D" transform="translate(125,32)"/>
<path d="M0 0 C3.125 -0.188 3.125 -0.188 6 0 C5.67 1.32 5.34 2.64 5 4 C4.01 4 3.02 4 2 4 C2 3.34 2 2.68 2 2 C0.68 2.33 -0.64 2.66 -2 3 C-1.34 2.01 -0.68 1.02 0 0 Z " fill="#FCED7E" transform="translate(98,24)"/>
<path d="M0 0 C0.99 0 1.98 0 3 0 C3.33 1.32 3.66 2.64 4 4 C2.02 4.66 0.04 5.32 -2 6 C-1.125 1.125 -1.125 1.125 0 0 Z " fill="#FDEA69" transform="translate(119,18)"/>
<path d="M0 0 C0.33 0.66 0.66 1.32 1 2 C2.65 2 4.3 2 6 2 C3.312 4.252 1.354 5.882 -2 7 C-1.34 4.69 -0.68 2.38 0 0 Z " fill="#E9BD0F" transform="translate(83,115)"/>
<path d="M0 0 C0.99 0.33 1.98 0.66 3 1 C3 3.64 3 6.28 3 9 C1.028 7.028 0.168 5.491 -1 3 C-1.33 2.34 -1.66 1.68 -2 1 C-1.34 0.67 -0.68 0.34 0 0 Z " fill="#A8D033" transform="translate(38,111)"/>
<path d="M0 0 C0.99 0.165 0.99 0.165 6 1 C5.67 1.99 5.34 2.98 5 4 C4.01 3.835 4.01 3.835 -1 3 C-0.67 2.01 -0.34 1.02 0 0 Z " fill="#FEEF82" transform="translate(60,85)"/>
<path d="M0 0 C1.688 1.438 1.688 1.438 3 4 C2.351 7.143 1.232 10.043 0 13 C-1.45 10.659 -2.043 9.42 -1.758 6.641 C-1.549 5.852 -1.34 5.063 -1.125 4.25 C-0.921 3.451 -0.718 2.652 -0.508 1.828 C-0.34 1.225 -0.173 0.622 0 0 Z " fill="#F7BA11" transform="translate(76,75)"/>
<path d="M0 0 C0.99 0.99 1.98 1.98 3 3 C2.763 3.186 2.763 3.186 1.562 4.125 C-0.522 6.626 -0.646 8.816 -1 12 C-2.188 10.5 -2.188 10.5 -3 8 C-2.271 5.212 -1.184 2.623 0 0 Z " fill="#F7BB13" transform="translate(64,70)"/>
<path d="M0 0 C0.701 0.144 1.403 0.289 2.125 0.438 C5.076 1.015 8.033 1.517 11 2 C11 2.99 11 3.98 11 5 C6.437 5.37 6.437 5.37 4.375 3.625 C3.921 3.089 3.468 2.552 3 2 C2.01 1.34 1.02 0.68 0 0 Z " fill="#F3B106" transform="translate(112,64)"/>
<path d="M0 0 C-1.333 2.667 -2.667 5.333 -4 8 C-4.66 8 -5.32 8 -6 8 C-5.624 5.218 -5.327 3.412 -3.562 1.188 C-2 0 -2 0 0 0 Z " fill="#FDEA6B" transform="translate(80,46)"/>
<path d="M0 0 C1.32 0 2.64 0 4 0 C4 0.99 4 1.98 4 3 C1.36 3.33 -1.28 3.66 -4 4 C-3.67 3.01 -3.34 2.02 -3 1 C-2.34 1 -1.68 1 -1 1 C-0.67 0.67 -0.34 0.34 0 0 Z " fill="#FDE14B" transform="translate(106,38)"/>
<path d="M0 0 C1.65 0 3.3 0 5 0 C5 0.99 5 1.98 5 3 C3.02 3.33 1.04 3.66 -1 4 C-0.67 2.68 -0.34 1.36 0 0 Z " fill="#FDF18D" transform="translate(111,26)"/>
<path d="M0 0 C0.99 0.33 1.98 0.66 3 1 C2.67 1.66 2.34 2.32 2 3 C1.01 3 0.02 3 -1 3 C-1.33 4.32 -1.66 5.64 -2 7 C-3.32 6.67 -4.64 6.34 -6 6 C-4 4 -2 2 0 0 Z " fill="#E6A61A" transform="translate(106,16)"/>
<path d="M0 0 C0.99 0.66 1.98 1.32 3 2 C1.68 2.66 1.68 2.66 -5 6 C-5.66 5.34 -6.32 4.68 -7 4 C-4.69 2.68 -2.38 1.36 0 0 Z " fill="#658D0B" transform="translate(81,122)"/>
<path d="M0 0 C0.66 0.66 1.32 1.32 2 2 C0.845 2.99 0.845 2.99 -5 8 C-5 5 -5 5 -2.5 2.312 C-1.675 1.549 -0.85 0.786 0 0 Z " fill="#E4ECD5" transform="translate(128,122)"/>
<path d="M0 0 C1.32 0 2.64 0 4 0 C3 2 2 4 1 6 C0.34 6 -0.32 6 -1 6 C-1.625 4.125 -1.625 4.125 -2 2 C-1.34 1.34 -0.68 0.68 0 0 Z " fill="#FDC815" transform="translate(104,90)"/>
<path d="M0 0 C1.98 0.66 3.96 1.32 6 2 C6 2.99 6 3.98 6 5 C3.831 4.494 2 4 0 3 C0 2.01 0 1.02 0 0 Z " fill="#FDE45B" transform="translate(57,90)"/>
<path d="M0 0 C0.66 0.165 0.66 0.165 4 1 C4 2.32 4 3.64 4 5 C2.35 4.67 0.7 4.34 -1 4 C-0.67 2.68 -0.34 1.36 0 0 Z " fill="#FDE459" transform="translate(98,86)"/>
<path d="M0 0 C0.825 0.165 0.825 0.165 5 1 C4.67 1.99 4.34 2.98 4 4 C1.938 4.688 1.938 4.688 0 5 C0 3.35 0 1.7 0 0 Z " fill="#FDEC75" transform="translate(67,72)"/>
<path d="M0 0 C0 1.32 0 2.64 0 4 C0.66 4.33 1.32 4.66 2 5 C0.68 5.99 -0.64 6.98 -2 8 C-2.66 5.69 -3.32 3.38 -4 1 C-2 0 -2 0 0 0 Z " fill="#DC9502" transform="translate(133,43)"/>
<path d="M0 0 C1.32 0 2.64 0 4 0 C4 0.66 4 1.32 4 2 C3.01 2 2.02 2 1 2 C0.876 2.619 0.752 3.238 0.625 3.875 C0 6 0 6 -2 8 C-1.125 1.125 -1.125 1.125 0 0 Z " fill="#AAD329" transform="translate(36,160)"/>
<path d="M0 0 C3.96 0 7.92 0 12 0 C12 0.33 12 0.66 12 1 C10.185 1.495 10.185 1.495 1 4 C1.33 3.01 1.66 2.02 2 1 C1.34 0.67 0.68 0.34 0 0 Z " fill="#91C220" transform="translate(108,110)"/>
<path d="M0 0 C2 3.75 2 3.75 2 6 C1.01 5.835 1.01 5.835 -4 5 C-4 4.34 -4 3.68 -4 3 C-3.01 2.67 -2.02 2.34 -1 2 C-0.67 1.34 -0.34 0.68 0 0 Z " fill="#EBA406" transform="translate(74,84)"/>
<path d="M0 0 C0.99 0 1.98 0 3 0 C2.688 2.375 2.688 2.375 2 5 C1.505 5.33 1.505 5.33 -1 7 C-0.67 4.69 -0.34 2.38 0 0 Z " fill="#FCEB64" transform="translate(61,70)"/>
<path d="M0 0 C1.98 0 3.96 0 6 0 C5.67 0.99 5.34 1.98 5 3 C3.02 3 1.04 3 -1 3 C-0.67 2.01 -0.34 1.02 0 0 Z " fill="#FEF280" transform="translate(87,65)"/>
<path d="M0 0 C2.062 2.312 2.062 2.312 4 5 C3.67 5.99 3.34 6.98 3 8 C2.34 8 1.68 8 1 8 C-0.354 5.291 -0.065 2.991 0 0 Z " fill="#64942B" transform="translate(53,56)"/>
<path d="M0 0 C1.65 0 3.3 0 5 0 C5.33 0.99 5.66 1.98 6 3 C3.69 3 1.38 3 -1 3 C-0.67 2.01 -0.34 1.02 0 0 Z " fill="#FEEE71" transform="translate(94,53)"/>
<path d="M0 0 C2 1 2 1 2.75 2.75 C3.072 5.644 2.227 7.401 1 10 C-1.567 6.15 -0.833 4.414 0 0 Z " fill="#F4B50C" transform="translate(112,49)"/>
<path d="M0 0 C0.825 0.33 0.825 0.33 5 2 C5 2.99 5 3.98 5 5 C3.35 4.67 1.7 4.34 0 4 C0 2.68 0 1.36 0 0 Z " fill="#FAC40C" transform="translate(99,50)"/>
<path d="M0 0 C2.31 0.66 4.62 1.32 7 2 C7 2.66 7 3.32 7 4 C5.02 4 3.04 4 1 4 C0.67 2.68 0.34 1.36 0 0 Z " fill="#E2A101" transform="translate(122,27)"/>
<path d="M0 0 C0.66 0.66 1.32 1.32 2 2 C1.01 2.825 1.01 2.825 -4 7 C-4.33 6.01 -4.66 5.02 -5 4 C-3.35 2.68 -1.7 1.36 0 0 Z " fill="#60950D" transform="translate(62,135)"/>
<path d="M0 0 C0.99 0.66 1.98 1.32 3 2 C2.01 2.825 2.01 2.825 -3 7 C-3.33 6.01 -3.66 5.02 -4 4 C-2.68 2.68 -1.36 1.36 0 0 Z " fill="#EBB90A" transform="translate(61,132)"/>
<path d="M0 0 C1.32 0 2.64 0 4 0 C3.67 1.65 3.34 3.3 3 5 C2.01 5 1.02 5 0 5 C0 3.35 0 1.7 0 0 Z " fill="#FDCE22" transform="translate(54,130)"/>
<path d="M0 0 C0 3.731 -1.18 5.781 -3 9 C-3.33 9.165 -3.33 9.165 -5 10 C-4.746 8.518 -4.471 7.039 -4.188 5.562 C-4.037 4.739 -3.886 3.915 -3.73 3.066 C-3.489 2.384 -3.248 1.703 -3 1 C-2.01 0.67 -1.02 0.34 0 0 Z " fill="#9D7904" transform="translate(125,95)"/>
<path d="M0 0 C1.32 0.33 2.64 0.66 4 1 C3.67 1.99 3.34 2.98 3 4 C1.35 4 -0.3 4 -2 4 C-1.34 2.68 -0.68 1.36 0 0 Z " fill="#FDF07B" transform="translate(81,77)"/>
<path d="M0 0 C0.66 0.33 1.32 0.66 2 1 C1.812 3.375 1.812 3.375 1 6 C-1.562 7.312 -1.562 7.312 -4 8 C-4 5 -4 5 -2.562 3.438 C-2.047 2.963 -1.531 2.489 -1 2 C-0.67 1.34 -0.34 0.68 0 0 Z " fill="#CA8C10" transform="translate(63,63)"/>
<path d="M0 0 C2.64 0 5.28 0 8 0 C7.67 1.32 7.34 2.64 7 4 C7 3.34 7 2.68 7 2 C6.216 2.186 5.433 2.371 4.625 2.562 C2 3 2 3 0 2 C0 1.34 0 0.68 0 0 Z " fill="#F5BF16" transform="translate(94,38)"/>
<path d="M0 0 C0.66 0.33 1.32 0.66 2 1 C1.188 2.938 1.188 2.938 0 5 C-0.99 5.33 -1.98 5.66 -3 6 C-3.66 5.34 -4.32 4.68 -5 4 C-3.35 2.68 -1.7 1.36 0 0 Z " fill="#478A13" transform="translate(91,160)"/>
<path d="M0 0 C0.66 0.33 1.32 0.66 2 1 C1.75 2.875 1.75 2.875 1 5 C-1.062 6.25 -1.062 6.25 -3 7 C-1.125 1.125 -1.125 1.125 0 0 Z " fill="#8BC222" transform="translate(42,99)"/>
<path d="M0 0 C0 1.32 0 2.64 0 4 C-2.438 3.625 -2.438 3.625 -5 3 C-5.33 2.34 -5.66 1.68 -6 1 C-3.924 0.447 -2.156 0 0 0 Z " fill="#E29E02" transform="translate(68,99)"/>
<path d="M0 0 C1.245 2.491 0.777 3.411 0 6 C-1.65 6.33 -3.3 6.66 -5 7 C-3.35 4.69 -1.7 2.38 0 0 Z " fill="#B97F03" transform="translate(127,89)"/>
<path d="M0 0 C0.66 0.165 0.66 0.165 4 1 C3.67 1.99 3.34 2.98 3 4 C0.938 4.688 0.938 4.688 -1 5 C-0.67 3.35 -0.34 1.7 0 0 Z " fill="#FBC516" transform="translate(115,68)"/>
<path d="M0 0 C0 0.66 0 1.32 0 2 C-0.66 2 -1.32 2 -2 2 C-2 2.99 -2 3.98 -2 5 C-2.99 5 -3.98 5 -5 5 C-5 3.68 -5 2.36 -5 1 C-3 0 -3 0 0 0 Z " fill="#FDED7F" transform="translate(80,60)"/>
<path d="M0 0 C0.33 0.99 0.66 1.98 1 3 C2.65 2.67 4.3 2.34 6 2 C6 2.66 6 3.32 6 4 C6.66 4.33 7.32 4.66 8 5 C4.377 6.208 3.359 5.543 0 4 C0 2.68 0 1.36 0 0 Z " fill="#FCD730" transform="translate(98,46)"/>
<path d="M0 0 C0.99 0.33 1.98 0.66 3 1 C3 1.66 3 2.32 3 3 C3.66 3.33 4.32 3.66 5 4 C3.35 4.33 1.7 4.66 0 5 C-0.33 4.01 -0.66 3.02 -1 2 C-0.67 1.34 -0.34 0.68 0 0 Z " fill="#FBCB1C" transform="translate(123,35)"/>
<path d="M0 0 C0.33 0 0.66 0 1 0 C1.66 2.31 2.32 4.62 3 7 C1.35 7.33 -0.3 7.66 -2 8 C-2 7.34 -2 6.68 -2 6 C-1.34 6 -0.68 6 0 6 C-0.093 5.691 -0.093 5.691 -0.562 4.125 C-1 2 -1 2 0 0 Z " fill="#F3B30E" transform="translate(90,31)"/>
<path d="M0 0 C1.65 0 3.3 0 5 0 C5 0.99 5 1.98 5 3 C3.68 2.67 2.36 2.34 1 2 C1 2.66 1 3.32 1 4 C1.99 4.33 2.98 4.66 4 5 C2.68 5 1.36 5 0 5 C-0.33 4.01 -0.66 3.02 -1 2 C-0.67 1.34 -0.34 0.68 0 0 Z " fill="#FACD23" transform="translate(95,26)"/>
<path d="M0 0 C0.99 0 1.98 0 3 0 C2.67 1.65 2.34 3.3 2 5 C1.01 5 0.02 5 -1 5 C-0.67 3.35 -0.34 1.7 0 0 Z " fill="#FCDE41" transform="translate(130,24)"/>
</svg>
