<?xml version="1.0" encoding="UTF-8"?>
<!-- Generator: visioncortex VTracer 0.6.12 -->
<svg version="1.1" xmlns="http://www.w3.org/2000/svg" width="164" height="185">
<path d="M0 0 C54.12 0 108.24 0 164 0 C164 61.05 164 122.1 164 185 C109.88 185 55.76 185 0 185 C0 123.95 0 62.9 0 0 Z " fill="#FBF7EB" transform="translate(0,0)"/>
<path d="M0 0 C2.312 0.938 2.312 0.938 4.312 2.938 C4.105 5.941 3.219 7.042 1.188 9.312 C-0.688 11.938 -0.688 11.938 -0.625 14.875 C1.872 23.032 1.872 23.032 5.5 25.312 C6.098 25.519 6.696 25.725 7.312 25.938 C6.938 27.875 6.938 27.875 6.312 29.938 C3.604 31.292 1.303 31.003 -1.688 30.938 C-1.364 32.036 -1.04 33.134 -0.707 34.266 C0.572 39.411 0.657 44.407 0.625 49.688 C0.619 50.665 0.614 51.642 0.608 52.649 C0.488 59.803 -0.226 66.177 -2.688 72.938 C-2.889 73.513 -2.889 73.513 -3.906 76.426 C-13.743 103.327 -33.974 131.205 -59.812 144.438 C-60.129 144.601 -60.129 144.601 -61.729 145.427 C-71.417 150.093 -81.101 150.188 -91.688 150 C-94.104 149.966 -96.521 149.936 -98.938 149.91 C-99.995 149.892 -101.052 149.874 -102.141 149.856 C-104.688 149.938 -104.688 149.938 -106.688 150.938 C-109.688 151.125 -109.688 151.125 -112.688 150.938 C-114.688 148.938 -114.688 148.938 -114.875 145.438 C-114.688 141.938 -114.688 141.938 -113.688 139.938 C-113.593 137.966 -113.504 135.995 -113.449 134.022 C-112.828 113.912 -104.876 99.155 -91.758 84.43 C-88.778 81.08 -85.995 77.606 -83.25 74.062 C-66.523 52.547 -66.523 52.547 -57.688 42.938 C-57.437 42.655 -57.437 42.655 -56.172 41.227 C-48.793 33.311 -38.521 26.416 -28.688 21.938 C-28.028 21.938 -27.368 21.938 -26.688 21.938 C-27.183 21.216 -27.677 20.494 -28.188 19.75 C-29.767 16.789 -29.969 15.225 -29.688 11.938 C-27.702 12.003 -25.716 12.068 -23.73 12.133 C-21.688 11.938 -21.688 11.938 -18.688 9.938 C-16.426 9.742 -16.426 9.742 -14 9.812 C-13.596 9.822 -13.596 9.822 -11.551 9.867 C-11.243 9.879 -11.243 9.879 -9.688 9.938 C-9.461 9.216 -9.234 8.494 -9 7.75 C-7.071 3.616 -4.907 -0.114 0 0 Z " fill="#58951D" transform="translate(127.6875,17.0625)"/>
<path d="M0 0 C-2.822 3.072 -5.467 4.95 -9.188 6.812 C-14.634 9.688 -19.27 13.079 -24 17 C-25.031 17.804 -26.062 18.609 -27.125 19.438 C-38.302 29.4 -47.237 42.462 -56.512 54.18 C-58 56 -58 56 -60 58 C-60 58.99 -60 59.98 -60 61 C-61.539 63.164 -61.539 63.164 -63.625 65.625 C-67.427 70.225 -70.793 74.971 -74 80 C-73.505 79.67 -73.505 79.67 -71 78 C-67.134 75.815 -64.469 74.606 -60 75 C-60.082 73.804 -60.165 72.608 -60.25 71.375 C-60.242 66.877 -58.97 64.451 -56 61 C-53.437 59.25 -53.437 59.25 -51 58 C-50.01 57.34 -49.02 56.68 -48 56 C-44.58 55.6 -41.127 55.436 -38 57 C-35.359 61.011 -34.431 64.165 -35.309 68.969 C-36.621 72.825 -38.671 75.644 -42 78 C-45.026 78.828 -47.871 79.049 -51 79 C-50.175 79.825 -49.35 80.65 -48.5 81.5 C-46.39 84.035 -45.6 85.755 -45.5 89.062 C-46.161 94.27 -47.6 96.827 -51.629 100.203 C-52.597 100.879 -53.565 101.554 -54.562 102.25 C-55.533 102.936 -56.504 103.622 -57.504 104.328 C-61.597 107.07 -64.018 107.422 -69 107 C-71.938 105 -71.938 105 -74 103 C-73.01 104.65 -72.02 106.3 -71 108 C-72.621 109.172 -74.247 110.338 -75.875 111.5 C-76.327 111.825 -76.327 111.825 -78.617 113.469 C-81 115 -81 115 -83 115 C-83.165 115.33 -83.165 115.33 -84 117 C-54.632 104.912 -54.632 104.912 -43.234 94.113 C-41.36 92.34 -39.454 90.73 -37.438 89.125 C-32.62 85.031 -28.912 79.932 -25 75 C-24.352 74.241 -23.703 73.481 -23.035 72.699 C-9.678 56.883 -0.044 38.013 5 18 C5.536 15.894 6.077 13.79 6.625 11.688 C6.844 10.804 7.063 9.921 7.289 9.012 C8 7 8 7 10 6 C10.595 14.479 8.454 21.972 6 30 C5.83 30.574 5.83 30.574 4.973 33.48 C0.383 47.676 -7.896 60.281 -17 72 C-17.623 72.815 -18.245 73.629 -18.887 74.469 C-34.142 94.025 -53.888 113.309 -79.113 118.164 C-82.839 119.243 -85.69 120.985 -89 123 C-88.39 97.977 -84.193 80.446 -67.415 61.627 C-65.043 58.899 -62.838 56.045 -60.625 53.188 C-37.257 23.206 -37.257 23.206 -27.473 15.227 C-26 14 -26 14 -24.125 12 C-20.759 8.832 -16.894 6.469 -13 4 C-12.682 3.79 -12.682 3.79 -11.07 2.727 C-7.234 0.323 -4.51 -0.44 0 0 Z " fill="#356E0D" transform="translate(105,41)"/>
<path d="M0 0 C-1.562 2.062 -1.562 2.062 -4 4 C-4.99 3.773 -5.98 3.546 -7 3.312 C-12.123 2.181 -15.934 5.453 -20.133 8.043 C-23 10 -23 10 -25.742 12.238 C-28 14 -28 14 -30 14 C-30.33 14.99 -30.66 15.98 -31 17 C-32.496 18.437 -32.496 18.437 -34.438 20 C-42.981 27.279 -49.897 35.965 -56.637 44.879 C-60.833 50.421 -65.138 55.87 -69.695 61.121 C-83.672 77.25 -91.897 92.538 -92.625 114.125 C-92.664 115.081 -92.702 116.038 -92.742 117.023 C-92.835 119.349 -92.921 121.674 -93 124 C-92.157 123.388 -91.314 122.775 -90.445 122.145 C-87.096 119.915 -83.76 118.774 -79.875 117.688 C-78.676 117.341 -77.477 116.994 -76.242 116.637 C-73.258 116.051 -71.784 115.927 -69 117 C-69.33 117.66 -69.66 118.32 -70 119 C-48.89 116.126 -31.004 104.588 -17.875 87.812 C-16.197 85.576 -14.584 83.303 -13 81 C-12.316 80.022 -11.631 79.043 -10.926 78.035 C-7.775 73.214 -7.775 73.214 -7 71 C-7.863 68.727 -7.863 68.727 -9 67 C-8.714 66.745 -8.714 66.745 -7.266 65.453 C-4.506 62.465 -2.697 59.299 -0.75 55.75 C-0.386 55.1 -0.023 54.451 0.352 53.781 C1.24 52.191 2.121 50.596 3 49 C3.99 49 4.98 49 6 49 C8.01 41.073 8.243 33.524 8.125 25.375 C8.116 24.18 8.107 22.985 8.098 21.754 C8.074 18.836 8.042 15.918 8 13 C7.34 13 6.68 13 6 13 C6 11.35 6 9.7 6 8 C9 7 9 7 11.5 7.75 C13.964 8.982 15.37 9.799 17 12 C19.973 24.096 19.236 39.367 15 51 C14.598 52.151 14.196 53.302 13.781 54.488 C3.945 81.389 -16.287 109.267 -42.125 122.5 C-42.441 122.663 -42.441 122.663 -44.042 123.49 C-53.73 128.156 -63.413 128.251 -74 128.062 C-76.417 128.028 -78.833 127.998 -81.25 127.973 C-82.307 127.955 -83.364 127.937 -84.453 127.918 C-87 128 -87 128 -89 129 C-92 129.188 -92 129.188 -95 129 C-97 127 -97 127 -97.188 123.5 C-97 120 -97 120 -96 118 C-95.906 116.029 -95.817 114.057 -95.761 112.085 C-95.141 91.974 -87.189 77.218 -74.07 62.492 C-71.09 59.142 -68.307 55.669 -65.562 52.125 C-48.836 30.61 -48.836 30.61 -40 21 C-39.5 20.435 -39 19.871 -38.484 19.289 C-33.093 13.505 -26.581 9.294 -20 5 C-19.19 4.444 -18.381 3.889 -17.547 3.316 C-11.748 -0.365 -6.768 -0.569 0 0 Z " fill="#4A8819" transform="translate(110,39)"/>
<path d="M0 0 C54.12 0 108.24 0 164 0 C164 0.66 164 1.32 164 2 C163.209 2.002 162.418 2.005 161.603 2.007 C142.375 2.066 123.146 2.142 103.918 2.236 C94.619 2.281 85.321 2.32 76.022 2.346 C67.919 2.369 59.816 2.403 51.713 2.449 C47.421 2.473 43.129 2.491 38.837 2.498 C34.8 2.504 30.763 2.524 26.725 2.554 C25.241 2.563 23.757 2.567 22.273 2.565 C20.251 2.563 18.229 2.582 16.207 2.601 C15.074 2.606 13.941 2.61 12.774 2.615 C10 3 10 3 8.137 4.078 C6.366 7.072 6.613 9.7 6.601 13.156 C6.595 13.89 6.588 14.623 6.581 15.379 C6.562 17.844 6.565 20.308 6.568 22.772 C6.559 24.536 6.548 26.3 6.537 28.064 C6.509 32.859 6.5 37.654 6.494 42.449 C6.485 47.458 6.458 52.467 6.434 57.476 C6.39 66.964 6.362 76.452 6.339 85.94 C6.312 96.74 6.268 107.54 6.222 118.341 C6.129 140.56 6.058 162.78 6 185 C4.02 185 2.04 185 0 185 C0 123.95 0 62.9 0 0 Z " fill="#FDFDFC" transform="translate(0,0)"/>
<path d="M0 0 C2.415 1.085 3.952 2.275 6 4 C5.421 9.465 4.05 14.14 2.062 19.25 C1.798 19.956 1.533 20.663 1.26 21.391 C0.065 24.52 -1.134 27.202 -3 30 C-5.625 30.188 -5.625 30.188 -8 30 C-7.959 30.303 -7.959 30.303 -7.754 31.836 C-7.23 38.789 -9.018 42.459 -13.176 47.969 C-15.735 50.818 -17.534 51.912 -21.312 52.625 C-25 52 -25 52 -26.543 50.316 C-27.525 48.881 -28.492 47.435 -29.445 45.98 C-31.85 42.917 -34.348 42.169 -38 41 C-38.714 34.456 -37.379 31.231 -33.605 25.883 C-30.046 21.709 -26.098 21.17 -21 20 C-21.082 19.01 -21.165 18.02 -21.25 17 C-21.241 12.363 -19.571 8.802 -17 5 C-11.569 -0.043 -7.274 -0.856 0 0 Z " fill="#56951A" transform="translate(103,54)"/>
<path d="M0 0 C-2.822 3.072 -5.467 4.95 -9.188 6.812 C-14.634 9.688 -19.27 13.079 -24 17 C-25.031 17.804 -26.062 18.609 -27.125 19.438 C-38.14 29.255 -46.944 42.133 -56.109 53.648 C-58.214 56.266 -60.357 58.85 -62.5 61.438 C-74.245 75.826 -83.967 89.401 -84.625 108.438 C-84.664 109.36 -84.702 110.282 -84.742 111.232 C-84.836 113.488 -84.921 115.744 -85 118 C-84.356 117.668 -83.712 117.336 -83.048 116.993 C-78.479 114.646 -73.9 112.521 -69.125 110.625 C-59.261 106.553 -50.987 101.459 -43.234 94.113 C-41.36 92.34 -39.454 90.73 -37.438 89.125 C-32.62 85.031 -28.912 79.932 -25 75 C-24.352 74.241 -23.703 73.481 -23.035 72.699 C-9.678 56.883 -0.044 38.013 5 18 C5.536 15.894 6.077 13.79 6.625 11.688 C6.844 10.804 7.063 9.921 7.289 9.012 C8 7 8 7 10 6 C10.595 14.479 8.454 21.972 6 30 C5.83 30.574 5.83 30.574 4.973 33.48 C0.383 47.676 -7.896 60.281 -17 72 C-17.623 72.815 -18.245 73.629 -18.887 74.469 C-34.142 94.025 -53.888 113.309 -79.113 118.164 C-82.839 119.243 -85.69 120.985 -89 123 C-88.39 97.977 -84.193 80.446 -67.415 61.627 C-65.043 58.899 -62.838 56.045 -60.625 53.188 C-37.257 23.206 -37.257 23.206 -27.473 15.227 C-26 14 -26 14 -24.125 12 C-20.759 8.832 -16.894 6.469 -13 4 C-12.682 3.79 -12.682 3.79 -11.07 2.727 C-7.234 0.323 -4.51 -0.44 0 0 Z " fill="#9BC83F" transform="translate(105,41)"/>
<path d="M0 0 C-0.141 1.771 -0.288 3.542 -0.438 5.312 C-0.519 6.299 -0.6 7.285 -0.684 8.301 C-1 11 -1 11 -2 14 C-4.315 14.729 -6.651 15.392 -9 16 C-12.78 18.52 -13.366 20.84 -15 25 C-15.33 25.66 -15.66 26.32 -16 27 C-16.069 28.373 -16.085 29.75 -16.062 31.125 C-16.042 32.404 -16.021 33.683 -16 35 C-15.464 35.196 -15.464 35.196 -12.75 36.188 C-9.084 37.768 -7.135 39.552 -5 43 C-3.218 48.495 -3.008 54.054 -5.625 59.188 C-9.617 63.915 -12.584 67.101 -18.875 67.812 C-20.249 67.896 -21.624 67.966 -23 68 C-25 65 -27 62 -29 59 C-28.336 58.997 -27.672 58.995 -26.988 58.992 C-22.191 58.782 -19.713 58.596 -15.938 55.438 C-13.574 51.244 -13.079 48.792 -13 44 C-13.66 43.01 -14.32 42.02 -15 41 C-15 40.01 -15 39.02 -15 38 C-25.702 37.439 -25.702 37.439 -30 41 C-30.443 41.34 -30.443 41.34 -32.688 43.062 C-35.856 47.087 -36.35 51.005 -37 56 C-37.58 56.17 -38.16 56.34 -38.758 56.516 C-43.804 58.081 -47.76 59.847 -52 63 C-50.12 56.983 -45.954 52.416 -42.051 47.59 C-41.415 46.797 -40.78 46.004 -40.125 45.188 C-39.529 44.459 -38.934 43.731 -38.32 42.98 C-37 41 -37 41 -37 38 C-35.637 36.23 -35.637 36.23 -33.688 34.188 C-30.094 30.289 -26.798 26.256 -23.562 22.062 C-19.539 16.866 -15.35 11.906 -10.875 7.086 C-9 5 -9 5 -7.379 2.773 C-5.309 0.111 -3.239 0 0 0 Z " fill="#4A8615" transform="translate(82,60)"/>
<path d="M0 0 C4.235 2.387 7.251 4.518 9.438 8.938 C10.329 14.386 10.022 19.215 8.25 24.438 C5.517 28.207 2.862 30.463 -1.562 31.938 C-6.803 32.439 -11.19 32.587 -16 30.312 C-19.761 26.827 -22.237 24.352 -22.945 19.094 C-23.12 14.387 -22.959 10.846 -21.062 6.5 C-14.646 -0.077 -9.166 -2.734 0 0 Z " fill="#7BB621" transform="translate(122.5625,137.0625)"/>
<path d="M0 0 C4.881 2.266 7.7 5.135 10 10 C10.765 15.167 10.803 20.186 8.438 24.938 C4.783 29.529 1.841 31.515 -3.84 32.484 C-9.523 32.857 -13.198 32.5 -17.625 28.75 C-21.208 25.212 -23.277 21.908 -23.5 16.812 C-23.379 11.178 -20.765 7.068 -17 3 C-11.648 -0.965 -6.427 -0.776 0 0 Z " fill="#5B9A2A" transform="translate(150,106)"/>
<path d="M0 0 C0.33 0 0.66 0 1 0 C1.595 8.479 -0.546 15.972 -3 24 C-3.17 24.574 -3.17 24.574 -4.027 27.48 C-8.617 41.676 -16.896 54.281 -26 66 C-26.623 66.815 -27.245 67.629 -27.887 68.469 C-38.584 82.182 -51.072 96.305 -67 104 C-67.99 103.67 -68.98 103.34 -70 103 C-70 102.34 -70 101.68 -70 101 C-68.52 100 -66.986 99.078 -65.438 98.188 C-31.699 77.198 -11.009 40.471 -1.569 2.911 C-1 1 -1 1 0 0 Z " fill="#A9D246" transform="translate(114,47)"/>
<path d="M0 0 C2.312 0.938 2.312 0.938 4.312 2.938 C4.108 5.897 3.244 7.014 1.25 9.25 C-1.266 12.74 -1.14 14.713 -0.688 18.938 C0.366 22.505 1.658 24.403 4.312 26.938 C4.312 27.597 4.312 28.258 4.312 28.938 C1.125 29.25 1.125 29.25 -2.688 28.938 C-5.625 26.438 -5.625 26.438 -7.688 23.938 C-7.894 24.185 -7.894 24.185 -8.938 25.438 C-10.688 26.938 -10.688 26.938 -14.688 26.938 C-15.017 24.297 -15.347 21.657 -15.688 18.938 C-16.017 19.267 -16.347 19.597 -16.688 19.938 C-22.923 20.408 -22.923 20.408 -26.125 18.438 C-26.641 17.942 -27.156 17.448 -27.688 16.938 C-27.358 15.617 -27.028 14.297 -26.688 12.938 C-25.037 13.267 -23.388 13.598 -21.688 13.938 C-21.358 12.947 -21.028 11.957 -20.688 10.938 C-18.282 9.735 -16.738 9.837 -14.062 9.875 C-13.654 9.88 -13.654 9.88 -11.586 9.902 C-11.273 9.908 -11.273 9.908 -9.688 9.938 C-9.461 9.216 -9.234 8.494 -9 7.75 C-7.071 3.616 -4.907 -0.114 0 0 Z " fill="#48841A" transform="translate(127.6875,17.0625)"/>
<path d="M0 0 C2 2 2 2 2.117 3.855 C-0.921 33.108 -16.882 57.802 -35.719 79.515 C-36.857 80.834 -37.977 82.17 -39.094 83.508 C-49.64 95.912 -63.056 104.773 -78 111 C-78.469 111.197 -78.469 111.197 -80.844 112.195 C-87.669 115 -87.669 115 -90 115 C-89.67 113.68 -89.34 112.36 -89 111 C-89 111.66 -89 112.32 -89 113 C-85.37 110.69 -81.74 108.38 -78 106 C-78.99 104.68 -79.98 103.36 -81 102 C-80.835 101.67 -80.835 101.67 -80 100 C-79.66 100.33 -79.66 100.33 -77.938 102 C-74.225 104.528 -72.433 104.425 -68 104 C-64.797 102.426 -64.797 102.426 -61.75 100.312 C-61.242 99.97 -61.242 99.97 -58.672 98.238 C-54.101 94.409 -52.68 90.847 -52 85 C-51.432 84.925 -50.863 84.85 -50.277 84.773 C-44.161 83.732 -40.091 81.736 -36 77 C-33.998 73.842 -33.777 71.457 -33.875 67.75 C-33.893 66.858 -33.911 65.966 -33.93 65.047 C-33.953 64.371 -33.976 63.696 -34 63 C-33.359 62.972 -32.719 62.943 -32.059 62.914 C-27.874 62.453 -24.973 61.893 -21.812 58.992 C-17.478 53.23 -15.893 48.18 -16 41 C-15.241 40.983 -14.481 40.966 -13.699 40.949 C-11 40 -11 40 -9.27 36.832 C-8.763 35.5 -8.278 34.159 -7.812 32.812 C-7.566 32.152 -7.319 31.491 -7.064 30.811 C-6.35 28.882 -5.673 26.943 -5 25 C-4.604 23.918 -4.209 22.837 -3.801 21.723 C-2.844 18.468 -3.222 16.267 -4 13 C-3.34 13 -2.68 13 -2 13 C-1.34 8.71 -0.68 4.42 0 0 Z " fill="#255F07" transform="translate(111,43)"/>
<path d="M0 0 C3.184 1.592 3.752 3.732 5 7 C5.091 12.71 3.969 16.503 0.016 20.715 C-3.949 23.242 -8.509 22.767 -13 22 C-15.336 20.965 -15.336 20.965 -17 20 C-17.913 10.647 -17.913 10.647 -15.77 6.781 C-10.849 1.046 -7.454 -0.355 0 0 Z " fill="#99C932" transform="translate(65,97)"/>
<path d="M0 0 C0.866 -0.028 1.733 -0.057 2.625 -0.086 C5 0.375 5 0.375 6.785 2.09 C8.896 6.061 8.645 10.001 8 14.375 C5.866 18.033 3.855 19.768 0 21.375 C-4.981 21.981 -9.485 21.705 -14 19.375 C-14.714 12.831 -13.379 9.606 -9.605 4.258 C-6.665 0.81 -4.373 0.065 0 0 Z " fill="#96C632" transform="translate(79,75.625)"/>
<path d="M0 0 C-1.562 2.062 -1.562 2.062 -4 4 C-4.99 3.773 -5.98 3.546 -7 3.312 C-12.123 2.181 -15.934 5.453 -20.133 8.043 C-23 10 -23 10 -25.742 12.238 C-28 14 -28 14 -30 14 C-30.33 14.99 -30.66 15.98 -31 17 C-32.496 18.437 -32.496 18.437 -34.438 20 C-42.981 27.279 -49.897 35.965 -56.637 44.879 C-60.833 50.421 -65.138 55.87 -69.695 61.121 C-83.503 77.055 -91.547 91.964 -92.604 113.221 C-92.868 118.071 -93.555 122.376 -95 127 C-93.02 127 -91.04 127 -89 127 C-89 127.66 -89 128.32 -89 129 C-91.875 129.125 -91.875 129.125 -95 129 C-97 127 -97 127 -97.188 123.5 C-97 120 -97 120 -96 118 C-95.906 116.029 -95.817 114.057 -95.761 112.085 C-95.141 91.974 -87.189 77.218 -74.07 62.492 C-71.09 59.142 -68.307 55.669 -65.562 52.125 C-48.836 30.61 -48.836 30.61 -40 21 C-39.5 20.435 -39 19.871 -38.484 19.289 C-33.093 13.505 -26.581 9.294 -20 5 C-19.19 4.444 -18.381 3.889 -17.547 3.316 C-11.748 -0.365 -6.768 -0.569 0 0 Z " fill="#3C7621" transform="translate(110,39)"/>
<path d="M0 0 C0.619 0.021 0.619 0.021 3.75 0.125 C4.224 1.094 4.699 2.064 5.188 3.062 C6.75 6.125 6.75 6.125 7.75 7.125 C7.584 11.454 7.204 13.587 4.375 16.938 C0.868 19.86 -1.13 21.406 -5.688 21.375 C-6.449 21.38 -7.211 21.385 -7.996 21.391 C-10.464 21.1 -12.108 20.355 -14.25 19.125 C-15.159 10.761 -15.159 10.761 -13.055 6.973 C-9.337 2.554 -5.975 -0.199 0 0 Z " fill="#97C831" transform="translate(43.25,117.875)"/>
<path d="M0 0 C3.886 0.576 6.112 2.416 9 5 C11.487 8.73 11.6 11.1 11.504 15.5 C10.761 19.185 9.057 20.564 6.062 22.684 C5.382 23.118 4.701 23.552 4 24 C3.67 24.243 3.67 24.243 2 25.473 C-2.362 28.531 -5.537 29.928 -11 29 C-15.275 26.474 -17.305 23.638 -19 19 C-19.226 16.277 -19.142 13.741 -19 11 C-18.67 11 -18.34 11 -18 11 C-18 13.31 -18 15.62 -18 18 C-12.185 19.618 -7.022 20.029 -1.562 17.25 C1.69 14.394 2.78 12.757 3.312 8.5 C2.94 5.521 1.886 4.279 0 2 C0 1.34 0 0.68 0 0 Z " fill="#599519" transform="translate(47,119)"/>
<path d="M0 0 C0.33 0.99 0.66 1.98 1 3 C1.66 3 2.32 3 3 3 C4.358 8.017 3.445 11.065 1.438 15.75 C-0.57 18.892 -2.506 19.751 -6.043 20.676 C-10.548 21.422 -12.983 21.118 -17 19 C-17.372 14.346 -17.465 10.948 -15.375 6.688 C-10.655 1.346 -7.191 -0.575 0 0 Z " fill="#96C833" transform="translate(100,54)"/>
<path d="M0 0 C5.029 1.437 6.957 3.942 10 8 C11.609 11.218 11.463 14.51 11 18 C8.57 22.766 5.458 26.056 1 29 C-2.002 29.668 -4.929 29.925 -8 30 C-10 27 -12 24 -14 21 C-13.336 20.997 -12.672 20.995 -11.988 20.992 C-7.191 20.782 -4.713 20.596 -0.938 17.438 C1.426 13.244 1.921 10.792 2 6 C1.34 5.01 0.68 4.02 0 3 C0 2.01 0 1.02 0 0 Z " fill="#58971B" transform="translate(67,98)"/>
<path d="M0 0 C3.09 1.632 5.048 3.124 7.312 5.75 C6.983 6.74 6.653 7.73 6.312 8.75 C6.013 8.441 6.013 8.441 4.5 6.875 C1.13 3.601 -0.929 2.459 -5.562 2.438 C-10.784 2.544 -13.501 3.876 -17.438 7.25 C-20.473 10.893 -20.071 15.581 -20.047 20.078 C-19.688 22.75 -19.688 22.75 -17.312 25.875 C-12.531 29.29 -8.473 29.431 -2.688 28.75 C-0.272 27.665 1.264 26.475 3.312 24.75 C2.312 24.75 2.312 24.75 0.25 26.25 C-3.675 28.254 -6.317 27.972 -10.688 27.75 C-11.017 26.76 -11.347 25.77 -11.688 24.75 C-11.397 24.724 -11.397 24.724 -9.93 24.594 C-6.162 24.047 -3.545 23.631 -0.824 20.836 C0.2 19.397 1.185 17.928 2.121 16.43 C2.514 15.875 2.907 15.321 3.312 14.75 C3.972 14.75 4.632 14.75 5.312 14.75 C5.642 16.4 5.972 18.05 6.312 19.75 C6.972 16.78 7.632 13.81 8.312 10.75 C8.642 10.75 8.972 10.75 9.312 10.75 C9.635 16.787 9.881 21.582 6.312 26.75 C1.116 31.557 -3.094 32.109 -9.961 32.027 C-15.116 31.503 -17.632 28.862 -21.062 25.25 C-23.464 20.078 -23.428 15.356 -22.688 9.75 C-18.547 0.261 -9.543 -3.235 0 0 Z " fill="#539214" transform="translate(122.6875,137.25)"/>
<path d="M0 0 C0.66 0 1.32 0 2 0 C1.412 4.708 -0.623 8.44 -2.938 12.5 C-3.138 12.852 -3.138 12.852 -4.153 14.636 C-17.002 36.694 -36.209 57.376 -60.68 65.938 C-71.211 68.49 -83.62 67.795 -94 65 C-94 64.67 -94 64.34 -94 64 C-93.306 64.016 -92.611 64.031 -91.896 64.048 C-88.68 64.111 -85.465 64.149 -82.25 64.188 C-81.158 64.213 -80.066 64.238 -78.941 64.264 C-60.98 64.423 -47.429 57.57 -34 46 C-33.337 45.482 -32.675 44.964 -31.992 44.43 C-19.328 34.226 -5.108 15.323 0 0 Z " fill="#306A13" transform="translate(118,100)"/>
<path d="M0 0 C-2.822 3.072 -5.467 4.95 -9.188 6.812 C-14.634 9.688 -19.27 13.079 -24 17 C-25.031 17.804 -26.062 18.609 -27.125 19.438 C-36.729 27.998 -44.626 39.025 -52.477 49.188 C-53.165 50.074 -53.853 50.961 -54.562 51.875 C-55.141 52.636 -55.72 53.396 -56.316 54.18 C-58.086 56.093 -59.61 57.006 -62 58 C-59.839 52.167 -56.876 47.977 -52.875 43.25 C-51.7 41.837 -50.526 40.425 -49.352 39.012 C-48.778 38.328 -48.205 37.644 -47.614 36.939 C-46.209 35.252 -44.828 33.55 -43.461 31.832 C-17.264 -0.983 -17.264 -0.983 0 0 Z " fill="#A4D046" transform="translate(105,41)"/>
<path d="M0 0 C0.404 0.005 0.404 0.005 2.449 0.027 C2.757 0.033 2.757 0.033 4.312 0.062 C4.768 4.711 5.008 7.973 2.438 12 C-2.118 15.006 -7.524 16.694 -12.996 15.602 C-13.554 15.424 -14.112 15.246 -14.688 15.062 C-14.519 10.164 -14.322 7.196 -10.812 3.625 C-7.437 0.512 -4.518 -0.065 0 0 Z " fill="#A0CF36" transform="translate(116.6875,138.9375)"/>
<path d="M0 0 C0.33 0 0.66 0 1 0 C1.082 1.895 1.139 3.791 1.188 5.688 C1.205 6.215 1.205 6.215 1.293 8.887 C0.961 12.42 0.102 14.172 -2 17 C-7.148 21.053 -11.595 21.728 -18.109 21.531 C-22.5 20.724 -25.369 18.576 -28 15 C-28 14.34 -28 13.68 -28 13 C-26.68 12.34 -25.36 11.68 -24 11 C-23.01 11.66 -22.02 12.32 -21 13 C-15.605 12.739 -12.553 11.954 -8 9 C-5.188 8.312 -5.188 8.312 -3 8 C-2.67 9.32 -2.34 10.64 -2 12 C-0.783 9.566 -0.68 7.582 -0.438 4.875 C-0.354 3.965 -0.27 3.055 -0.184 2.117 C-0.153 1.768 -0.153 1.768 0 0 Z " fill="#52911A" transform="translate(158,117)"/>
<path d="M0 0 C0.887 -0.014 1.774 -0.028 2.688 -0.043 C5 0.188 5 0.188 7 2.188 C6.601 3.63 6.18 5.066 5.75 6.5 C5.518 7.301 5.286 8.101 5.047 8.926 C3.745 11.739 2.71 12.686 0 14.188 C-3.234 14.918 -3.234 14.918 -6.75 15.375 C-7.92 15.534 -9.091 15.692 -10.297 15.855 C-11.189 15.965 -12.081 16.075 -13 16.188 C-12.836 9.476 -11.85 5.92 -7 1.188 C-4.522 -0.051 -2.763 0.02 0 0 Z " fill="#A3D040" transform="translate(143,107.8125)"/>
<path d="M0 0 C2.97 0.33 5.94 0.66 9 1 C8.67 1.66 8.34 2.32 8 3 C6.35 2.67 4.7 2.34 3 2 C3.375 3.938 3.375 3.938 4 6 C6.986 7.493 9.709 7.118 13 7 C13.66 6.67 14.32 6.34 15 6 C15 8.97 15 11.94 15 15 C17.972 13.875 20.334 12.777 23 11 C23.516 11.804 24.031 12.609 24.562 13.438 C27.632 16.664 29.649 16.749 34 17 C33.598 16.567 33.598 16.567 31.562 14.375 C29.031 11.371 28.283 8.968 28 5 C30 6 30 6 31.375 8.938 C33.038 12.072 33.74 12.876 37 14 C36.625 15.938 36.625 15.938 36 18 C33.291 19.354 30.991 19.065 28 19 C28 20.65 28 22.3 28 24 C26 21 26 21 25 19 C23.062 18.25 23.062 18.25 21 18 C20.34 18.66 19.68 19.32 19 20 C18.67 19.34 18.34 18.68 18 18 C15.937 16.875 15.937 16.875 14 16 C14 15.34 14 14.68 14 14 C13.093 14.784 12.185 15.568 11.25 16.375 C8.948 18.301 6.784 19.822 4 21 C5.354 14.477 5.354 14.477 8.625 12.062 C9.409 11.712 10.192 11.361 11 11 C8.36 11 5.72 11 3 11 C0.847 7.142 -0.393 4.449 0 0 Z " fill="#2F6D08" transform="translate(98,29)"/>
<path d="M0 0 C0.33 0.66 0.66 1.32 1 2 C3.062 2.625 3.062 2.625 5 3 C5.375 6.25 5.375 6.25 5 10 C-2.532 16.361 -11.669 15.617 -21 15 C-24.442 14.446 -25.994 13.879 -29 12 C-30 8.812 -30 8.812 -30 6 C-27.526 6.442 -26.162 6.861 -24.23 8.52 C-21.358 10.426 -19.486 10.401 -16.062 10.375 C-15.043 10.383 -14.023 10.39 -12.973 10.398 C-9.639 9.952 -7.781 8.828 -5 7 C-4.34 7 -3.68 7 -3 7 C-2.691 6.216 -2.381 5.433 -2.062 4.625 C-1 2 -1 2 0 0 Z " fill="#F7EDD9" transform="translate(159,127)"/>
<path d="M0 0 C4.31 1.759 4.31 1.759 6.062 4.25 C7.392 9.623 7.246 14.936 7.25 20.438 C7.262 21.447 7.274 22.457 7.287 23.498 C7.288 23.98 7.288 23.98 7.293 26.418 C7.297 27.297 7.301 28.177 7.305 29.083 C7.062 31.25 7.062 31.25 5.062 33.25 C4.733 26.98 4.403 20.71 4.062 14.25 C3.733 16.89 3.403 19.53 3.062 22.25 C1.412 22.91 -0.237 23.57 -1.938 24.25 C-2.267 17.98 -2.597 11.71 -2.938 5.25 C-3.597 5.25 -4.257 5.25 -4.938 5.25 C-4.938 3.6 -4.938 1.95 -4.938 0.25 C-2.938 -0.75 -2.938 -0.75 0 0 Z " fill="#3E7B16" transform="translate(120.9375,46.75)"/>
<path d="M0 0 C0.33 0.66 0.66 1.32 1 2 C1.66 2 2.32 2 3 2 C3.124 2.598 3.124 2.598 3.75 5.625 C4.761 9.703 6.479 12.613 9 16 C9.66 16.99 10.32 17.98 11 19 C9.379 20.172 7.753 21.338 6.125 22.5 C5.22 23.15 4.315 23.799 3.383 24.469 C1 26 1 26 -1 26 C-1 26.99 -1 27.98 -1 29 C-1.66 29 -2.32 29 -3 29 C-3.088 25.854 -3.141 22.709 -3.188 19.562 C-3.213 18.684 -3.238 17.806 -3.264 16.9 C-3.332 10.72 -2.328 5.725 0 0 Z " fill="#37700D" transform="translate(23,130)"/>
<path d="M0 0 C0.33 0 0.66 0 1 0 C1.33 3.3 1.66 6.6 2 10 C2.99 10 3.98 10 5 10 C5.66 10.33 6.32 10.66 7 11 C7.312 13.75 7.312 13.75 7 17 C4.75 19.375 4.75 19.375 2 21 C0.68 21 -0.64 21 -2 21 C-2.33 21.99 -2.66 22.98 -3 24 C-5.834 24.109 -8.665 24.188 -11.5 24.25 C-11.896 24.267 -11.896 24.267 -13.898 24.352 C-19.997 24.452 -23.732 23.069 -29 20 C-28.67 19.01 -28.34 18.02 -28 17 C-27.237 17.495 -26.474 17.99 -25.688 18.5 C-19.619 20.969 -13.665 20.952 -7.5 18.75 C-3.812 16.168 -2.273 14.211 -1.27 9.766 C-1.119 8.605 -0.968 7.445 -0.812 6.25 C-0.654 5.08 -0.495 3.909 -0.332 2.703 C-0.277 2.257 -0.277 2.257 0 0 Z " fill="#EEE2C4" transform="translate(132,148)"/>
<path d="M0 0 C0.99 0 1.98 0 3 0 C1.118 4.277 -1.716 9.858 -6 12 C-5.938 12.681 -5.876 13.361 -5.812 14.062 C-6.059 17.919 -7.358 20.511 -9 24 C-9.99 24 -10.98 24 -12 24 C-12.33 21.69 -12.66 19.38 -13 17 C-13.33 17.33 -13.66 17.66 -14 18 C-20.235 18.471 -20.235 18.471 -23.438 16.5 C-23.953 16.005 -24.469 15.51 -25 15 C-24.67 13.68 -24.34 12.36 -24 11 C-22.35 11.33 -20.7 11.66 -19 12 C-18.67 11.01 -18.34 10.02 -18 9 C-17.01 9.33 -16.02 9.66 -15 10 C-9.911 10.17 -9.911 10.17 -7 9 C-4.888 6.779 -3.224 4.493 -1.543 1.934 C-1.034 1.296 -0.525 0.657 0 0 Z " fill="#71AA22" transform="translate(125,19)"/>
<path d="M0 0 C0 0.66 0 1.32 0 2 C-1.75 3.289 -1.75 3.289 -4 4.625 C-4.742 5.071 -5.485 5.517 -6.25 5.977 C-6.539 6.145 -6.539 6.145 -8 7 C-7.01 7.66 -6.02 8.32 -5 9 C-11.211 9.049 -17.423 9.086 -23.634 9.11 C-25.748 9.12 -27.861 9.134 -29.975 9.151 C-33.011 9.175 -36.046 9.186 -39.082 9.195 C-39.556 9.2 -39.556 9.2 -41.952 9.227 C-42.832 9.227 -43.713 9.227 -44.62 9.227 C-45.395 9.231 -46.17 9.236 -46.969 9.241 C-49 9 -49 9 -52 7 C-44.282 4.105 -36.432 4.926 -28.311 5.166 C-18.332 5.329 -9.048 0 0 0 Z " fill="#E2D9B3" transform="translate(68,161)"/>
<path d="M0 0 C0.66 0 1.32 0 2 0 C0.529 4.382 -1.848 7.729 -4.688 11.312 C-5.141 11.888 -5.595 12.463 -6.062 13.056 C-6.966 14.198 -7.874 15.337 -8.785 16.474 C-9.772 17.714 -10.734 18.973 -11.688 20.238 C-17.702 27.803 -27.117 35.087 -36 39 C-36.165 38.505 -36.165 38.505 -37 36 C-36.394 35.599 -35.788 35.198 -35.164 34.785 C-22.235 26.013 -11.197 15.147 -2.059 2.461 C-1 1 -1 1 0 0 Z " fill="#53911D" transform="translate(100,112)"/>
<path d="M0 0 C0.825 0.495 0.825 0.495 5 3 C4.67 3.99 4.34 4.98 4 6 C3.67 5.67 3.34 5.34 3 5 C2.979 6.031 2.959 7.062 2.938 8.125 C1.714 13.181 -0.728 15.221 -5 18 C-9.019 19.34 -12.798 19.603 -17 19 C-19.062 17 -19.062 17 -20 15 C-17.759 12.759 -13.014 13.037 -9.98 12.598 C-7.244 12.049 -5.286 11.589 -3 10 C-2.375 6.563 -2.375 6.563 -2 3 C-1.34 2.01 -0.68 1.02 0 0 Z " fill="#86BD2D" transform="translate(150,109)"/>
<path d="M0 0 C2.962 0.613 4.381 1.254 7 3 C8.019 7.25 7.782 11.396 5.863 15.332 C2.895 19.531 -0.003 22.401 -5 24 C-8.927 24.396 -13.367 24.677 -17 23 C-19.821 19.474 -19.143 15.283 -19 11 C-18.67 11 -18.34 11 -18 11 C-18 13.31 -18 15.62 -18 18 C-12.185 19.618 -7.022 20.029 -1.562 17.25 C1.69 14.394 2.78 12.757 3.312 8.5 C2.94 5.521 1.886 4.279 0 2 C0 1.34 0 0.68 0 0 Z " fill="#71AB21" transform="translate(47,119)"/>
<path d="M0 0 C0.99 0.33 1.98 0.66 3 1 C3 6.28 3 11.56 3 17 C4.402 16.278 5.805 15.556 7.25 14.812 C11.27 12.811 15.32 10.916 19.438 9.125 C20.426 8.694 21.415 8.264 22.434 7.82 C25 7 25 7 28 8 C28 8.66 28 9.32 28 10 C21.78 13.481 15.958 15.74 8.957 17.129 C6 18 6 18 -1 22 C-0.67 14.74 -0.34 7.48 0 0 Z " fill="#90C133" transform="translate(17,142)"/>
<path d="M0 0 C0.66 0 1.32 0 2 0 C1.67 1.98 1.34 3.96 1 6 C5.677 4.523 5.677 4.523 7.312 1.875 C7.539 1.256 7.766 0.638 8 0 C8.33 0 8.66 0 9 0 C8.67 4.62 8.34 9.24 8 14 C4.269 13.254 1.426 12.468 -2 11 C-2 10.34 -2 9.68 -2 9 C-3.485 9.165 -3.485 9.165 -11 10 C-8.248 7.044 -5.58 4.884 -2 3 C-1.34 3 -0.68 3 0 3 C0 2.01 0 1.02 0 0 Z " fill="#346E0B" transform="translate(102,43)"/>
<path d="M0 0 C0.99 0 1.98 0 3 0 C6.038 3.038 6.082 5.902 6.25 10.062 C6 14 6 14 4.5 16 C4.005 16.33 3.51 16.66 3 17 C2.67 15.68 2.34 14.36 2 13 C1.34 13.268 0.68 13.536 0 13.812 C-0.99 14.204 -1.98 14.596 -3 15 C-3.639 15.276 -4.279 15.552 -4.938 15.836 C-8.947 17.491 -11.738 18.63 -16 17 C-16.66 16.34 -17.32 15.68 -18 15 C-17.276 14.914 -16.551 14.827 -15.805 14.738 C-9.426 13.811 -5.19 13.072 -1 8 C-0.239 5.229 -0.099 2.907 0 0 Z " fill="#69A722" transform="translate(152,113)"/>
<path d="M0 0 C3.337 1.173 5.774 2.189 8 5 C8 5.66 8 6.32 8 7 C7.34 7 6.68 7 6 7 C6.062 8.052 6.124 9.104 6.188 10.188 C5.991 14.191 5.462 15.9 3 19 C2.01 19.33 1.02 19.66 0 20 C-0.33 20.99 -0.66 21.98 -1 23 C-3.341 24.171 -4.894 24.199 -7.5 24.25 C-8.294 24.276 -9.088 24.302 -9.906 24.328 C-10.597 24.22 -11.288 24.112 -12 24 C-12.66 23.01 -13.32 22.02 -14 21 C-13.336 20.997 -12.672 20.995 -11.988 20.992 C-7.191 20.782 -4.713 20.596 -0.938 17.438 C1.426 13.244 1.921 10.792 2 6 C1.34 5.01 0.68 4.02 0 3 C0 2.01 0 1.02 0 0 Z " fill="#71AC23" transform="translate(67,98)"/>
<path d="M0 0 C1.32 0.99 2.64 1.98 4 3 C3.34 3 2.68 3 2 3 C2 3.99 2 4.98 2 6 C2.66 6 3.32 6 4 6 C2.669 11.989 1.244 15.494 -4 19 C-7.262 19.68 -7.262 19.68 -10.688 19.875 C-11.826 19.955 -12.964 20.035 -14.137 20.117 C-17 20 -17 20 -19 18 C-19 17.01 -19 16.02 -19 15 C-18.031 15.062 -17.061 15.124 -16.062 15.188 C-11.472 15.188 -7.112 14.035 -3 12 C-0.976 8.965 -0.679 7.806 -0.375 4.312 C-0.3 3.504 -0.225 2.696 -0.148 1.863 C-0.099 1.248 -0.05 0.634 0 0 Z " fill="#88BE27" transform="translate(121,139)"/>
<path d="M0 0 C3.323 1.168 5.834 2.149 8 5 C8 5.99 8 6.98 8 8 C7.34 8 6.68 8 6 8 C6.041 8.516 6.041 8.516 6.25 11.125 C5.955 15.7 4.925 17.521 2 21 C-1.051 23.474 -2.744 23.974 -6.688 24.375 C-7.781 24.251 -8.874 24.127 -10 24 C-10.66 23.01 -11.32 22.02 -12 21 C-11.408 20.914 -10.817 20.827 -10.207 20.738 C-6.207 20.027 -3.375 19.245 0.062 17 C2.801 12.76 2.761 8.926 2 4 C0.973 1.691 0.973 1.691 0 0 Z " fill="#6CA721" transform="translate(84,76)"/>
<path d="M0 0 C3.09 1.632 5.048 3.124 7.312 5.75 C6.983 6.74 6.653 7.73 6.312 8.75 C6.013 8.441 6.013 8.441 4.5 6.875 C1.13 3.601 -0.929 2.459 -5.562 2.438 C-9.763 2.523 -12.353 3.022 -15.688 5.75 C-15.945 5.952 -15.945 5.952 -17.25 6.973 C-19.279 9.481 -19.356 11.702 -19.75 14.875 C-20.16 18.133 -20.16 18.133 -20.688 20.75 C-21.347 21.08 -22.007 21.41 -22.688 21.75 C-23.304 11.163 -23.304 11.163 -21.188 6.312 C-14.76 -0.276 -9.144 -3.1 0 0 Z " fill="#6FA833" transform="translate(122.6875,137.25)"/>
<path d="M0 0 C-2.822 3.072 -5.467 4.95 -9.188 6.812 C-13.91 9.297 -17.996 12.115 -22.125 15.484 C-24 17 -24 17 -27 19 C-27.66 18.01 -28.32 17.02 -29 16 C-23.941 11.479 -18.732 7.625 -13 4 C-12.367 3.582 -11.734 3.165 -11.082 2.734 C-7.242 0.327 -4.516 -0.441 0 0 Z " fill="#97C63B" transform="translate(105,41)"/>
<path d="M0 0 C0.99 0.165 0.99 0.165 6 1 C6 1.66 6 2.32 6 3 C7.792 2.859 9.584 2.712 11.375 2.562 C12.373 2.481 13.37 2.4 14.398 2.316 C17 2 17 2 19 1 C18.67 1.99 18.34 2.98 18 4 C16.515 4.165 16.515 4.165 9 5 C9.33 5.66 9.66 6.32 10 7 C16.169 7.425 18.973 6.95 24 3 C24.66 2.67 25.32 2.34 26 2 C24.473 6.277 21.999 8 18 10 C12.876 10.832 9.135 10.588 4.5 8.188 C2 6 2 6 0 3 C0 2.01 0 1.02 0 0 Z " fill="#6AA91C" transform="translate(102,157)"/>
<path d="M0 0 C2.094 3.402 2.179 6.053 2 10 C-4.426 14.782 -10.185 14.423 -18 14 C-18.33 13.01 -18.66 12.02 -19 11 C-18.18 10.879 -17.36 10.758 -16.516 10.633 C-15.438 10.465 -14.36 10.298 -13.25 10.125 C-12.183 9.963 -11.115 9.8 -10.016 9.633 C-7.291 9.061 -5.328 8.501 -3 7 C-1.812 4.5 -1.812 4.5 -1 2 C-0.67 1.34 -0.34 0.68 0 0 Z " fill="#EAE0BF" transform="translate(159,127)"/>
<path d="M0 0 C0.33 0 0.66 0 1 0 C1.735 10.479 -1.648 20.171 -5 30 C-6.32 30 -7.64 30 -9 30 C-8.608 28.742 -8.216 27.484 -7.812 26.188 C-5.93 19.953 -4.319 13.649 -2.714 7.339 C-2.507 6.535 -2.3 5.731 -2.086 4.902 C-1.901 4.175 -1.716 3.448 -1.525 2.699 C-1 1 -1 1 0 0 Z " fill="#9DCA42" transform="translate(114,47)"/>
<path d="M0 0 C-22.401 9.695 -43.765 10.649 -68 8 C-68 7.67 -68 7.34 -68 7 C-61.73 7.165 -61.73 7.165 -30 8 C-30 7.34 -30 6.68 -30 6 C-28.961 5.83 -27.922 5.66 -26.852 5.484 C-19.52 4.228 -12.775 2.934 -6.016 -0.328 C-3.612 -1.129 -2.357 -0.828 0 0 Z " fill="#F3E8D0" transform="translate(93,162)"/>
<path d="M0 0 C0.609 1.785 0.609 1.785 1 4 C-0.335 6.638 -1.697 8.981 -3.312 11.438 C-3.538 11.789 -3.538 11.789 -4.678 13.565 C-9.762 21.369 -15.199 29.593 -22 36 C-22.66 35.67 -23.32 35.34 -24 35 C-23.504 34.394 -23.007 33.788 -22.496 33.164 C-15.157 24.112 -8.821 15.05 -3.48 4.688 C-2 2 -2 2 0 0 Z " fill="#518F20" transform="translate(115,102)"/>
<path d="M0 0 C-3.926 9.917 -18.782 17.784 -28.137 22.32 C-30.804 23.293 -33.201 23.28 -36 23 C-32.469 20.057 -28.5 18.256 -24.375 16.312 C-16.573 12.53 -9.893 8.064 -3.859 1.766 C-2 0 -2 0 0 0 Z " fill="#549021" transform="translate(91,139)"/>
<path d="M0 0 C0.66 0 1.32 0 2 0 C2.347 3.732 2.292 5.541 0.25 8.75 C-3.245 12.245 -5.363 13.099 -10.25 13.125 C-10.869 13.104 -10.869 13.104 -14 13 C-14.33 12.01 -14.66 11.02 -15 10 C-14.42 9.948 -13.84 9.897 -13.242 9.844 C-9.475 9.297 -6.858 8.881 -4.137 6.086 C-3.112 4.647 -2.127 3.178 -1.191 1.68 C-0.995 1.403 -0.995 1.403 0 0 Z " fill="#589911" transform="translate(126,152)"/>
<path d="M0 0 C0.804 0.66 1.609 1.32 2.438 2 C6.434 4.722 10.333 4.373 15 4 C12.324 7.248 9.077 8.457 5.25 10.062 C4.654 10.316 4.654 10.316 1.641 11.598 C-1.892 12.958 -5.348 14.022 -9 15 C-8.67 13.68 -8.34 12.36 -8 11 C-8 11.66 -8 12.32 -8 13 C-4.37 10.69 -0.74 8.38 3 6 C2.01 4.68 1.02 3.36 0 2 C0 1.34 0 0.68 0 0 Z " fill="#225B06" transform="translate(30,143)"/>
<path d="M0 0 C0.33 0 0.66 0 1 0 C1.33 2.97 1.66 5.94 2 9 C3.073 9.392 4.145 9.784 5.25 10.188 C8.905 11.749 10.809 13.629 13 17 C13.33 17.99 13.66 18.98 14 20 C13.34 20 12.68 20 12 20 C11.443 19.237 10.886 18.474 10.312 17.688 C7.577 14.508 5.027 12.952 1 12 C-2.351 11.775 -5.648 11.818 -9 12 C-8.67 11.34 -8.34 10.68 -8 10 C-5.678 9.593 -3.343 9.256 -1 9 C-1.021 7.701 -1.041 6.401 -1.062 5.062 C-1.084 3.708 -1.071 2.352 -1 1 C-0.67 0.67 -0.34 0.34 0 0 Z " fill="#4A8411" transform="translate(64,86)"/>
<path d="M0 0 C0.66 0 1.32 0 2 0 C1.379 4.783 -0.583 8.549 -2.812 12.75 C-3.156 13.434 -3.5 14.119 -3.854 14.824 C-6.498 19.835 -6.498 19.835 -9.132 20.7 C-9.748 20.799 -10.365 20.898 -11 21 C-11.33 20.01 -11.66 19.02 -12 18 C-11.428 17.49 -10.855 16.979 -10.266 16.453 C-7.506 13.465 -5.697 10.299 -3.75 6.75 C-3.386 6.1 -3.023 5.451 -2.648 4.781 C-1.76 3.191 -0.879 1.596 0 0 Z " fill="#50901B" transform="translate(113,88)"/>
<path d="M0 0 C2.861 0.395 3.791 0.739 5.637 3.047 C6.087 3.691 6.536 4.336 7 5 C5.713 6.006 4.42 7.004 3.125 8 C2.765 8.278 2.765 8.278 0.945 9.688 C-1 11 -1 11 -3 11 C-3.369 4.6 -3.369 4.6 -1.5 1.562 C-1.005 1.047 -0.51 0.531 0 0 Z " fill="#478312" transform="translate(27,144)"/>
<path d="M0 0 C0.934 3.01 1.044 3.867 0 7 C-0.067 8.394 -0.085 9.792 -0.062 11.188 C-0.042 12.446 -0.021 13.704 0 15 C0.33 15 0.66 15 1 15 C1 17.64 1 20.28 1 23 C0.34 23 -0.32 23 -1 23 C-1 23.99 -1 24.98 -1 26 C-1.66 26 -2.32 26 -3 26 C-3.088 22.792 -3.141 19.584 -3.188 16.375 C-3.213 15.471 -3.238 14.568 -3.264 13.637 C-3.322 8.29 -2.949 4.66 0 0 Z " fill="#2E680A" transform="translate(23,133)"/>
<path d="M0 0 C0.934 3.01 1.044 3.867 0 7 C-0.232 11.247 -0.332 14.356 2 18 C1.34 18.33 1.34 18.33 -2 20 C-4.448 15.663 -4.706 11.893 -4 7 C-2.903 4.387 -1.608 2.361 0 0 Z " fill="#659C3E" transform="translate(131,111)"/>
<path d="M0 0 C1.125 1.75 1.125 1.75 2 4 C1.125 6.25 1.125 6.25 0 8 C-0.66 7.67 -1.32 7.34 -2 7 C-2.33 7.66 -2.66 8.32 -3 9 C-3.66 9 -4.32 9 -5 9 C-5.227 9.639 -5.454 10.279 -5.688 10.938 C-7 13 -7 13 -9.625 13.75 C-10.409 13.832 -11.192 13.915 -12 14 C-11.01 13.67 -10.02 13.34 -9 13 C-8.876 12.113 -8.752 11.226 -8.625 10.312 C-8.056 7.296 -7.234 4.797 -6 2 C-4.02 2.66 -2.04 3.32 0 4 C0 2.68 0 1.36 0 0 Z " fill="#5D971A" transform="translate(125,30)"/>
<path d="M0 0 C0.33 0.99 0.66 1.98 1 3 C-1.232 5.232 -3.464 7.463 -5.699 9.691 C-7.319 11.317 -8.917 12.963 -10.5 14.625 C-14.103 18.048 -18.039 21.006 -22 24 C-22.99 23.34 -23.98 22.68 -25 22 C-24.49 21.694 -23.979 21.389 -23.453 21.074 C-18.457 17.929 -14.029 14.416 -9.688 10.438 C-9.184 9.979 -8.681 9.52 -8.163 9.048 C-5.141 6.232 -2.501 3.285 0 0 Z " fill="#E1DEB2" transform="translate(97,136)"/>
<path d="M0 0 C1.32 0.33 2.64 0.66 4 1 C3.835 1.66 3.67 2.32 3.5 3 C2.547 8.72 2.35 13.699 5 19 C4.34 19.33 3.68 19.66 3 20 C0.583 15.771 -0.348 12.877 0 8 C-0.66 8 -1.32 8 -2 8 C-1.125 2.25 -1.125 2.25 0 0 Z " fill="#296006" transform="translate(26,124)"/>
<path d="M0 0 C0.99 0 1.98 0 3 0 C6.038 3.038 6.082 5.902 6.25 10.062 C6 14 6 14 3 17 C3 13.7 3 10.4 3 7 C2.34 7.66 1.68 8.32 1 9 C-0.478 6.043 -0.06 3.258 0 0 Z " fill="#75B029" transform="translate(152,113)"/>
<path d="M0 0 C1.194 3.581 0.756 4.152 -0.812 7.438 C-1.17 8.199 -1.527 8.961 -1.895 9.746 C-2.92 11.836 -3.953 13.921 -5 16 C-5.66 16 -6.32 16 -7 16 C-7.766 10.027 -5.321 5.781 -2 1 C-1.34 0.67 -0.68 0.34 0 0 Z " fill="#AAD24A" transform="translate(107,76)"/>
<path d="M0 0 C0.99 0.639 1.98 1.279 3 1.938 C8.583 4.8 14.448 4.63 20.586 4.824 C24 5 24 5 26 6 C23.869 8.131 19.37 7.278 16.438 7.312 C15.651 7.342 14.864 7.371 14.053 7.4 C7.994 7.465 4.235 6.04 -1 3 C-0.67 2.01 -0.34 1.02 0 0 Z " fill="#EFE7C9" transform="translate(104,165)"/>
<path d="M0 0 C0.66 0 1.32 0 2 0 C1.608 3.294 1.108 5.793 -0.438 8.75 C-2.498 13.037 -3.216 17.334 -4 22 C-5.77 18.811 -6.266 16.82 -5.625 13.148 C-4.289 8.557 -2.099 4.283 0 0 Z " fill="#43782B" transform="translate(22,120)"/>
<path d="M0 0 C1.32 0.33 2.64 0.66 4 1 C3.01 1 2.02 1 1 1 C1.351 1.578 1.701 2.155 2.062 2.75 C3.19 5.456 2.899 6.271 2 9 C0.57 11.449 -0.888 13.818 -2.438 16.188 C-2.641 16.508 -2.641 16.508 -3.674 18.131 C-6.742 22.871 -6.742 22.871 -9 24 C-9.99 23.34 -10.98 22.68 -12 22 C-11.113 21.505 -10.226 21.01 -9.312 20.5 C-4.538 17.264 -1.569 12.939 -0.469 7.258 C-0.221 4.832 -0.055 2.437 0 0 Z " fill="#1B5207" transform="translate(95,84)"/>
<path d="M0 0 C0.33 0 0.66 0 1 0 C1 1.98 1 3.96 1 6 C1.536 6.062 2.073 6.124 2.625 6.188 C7.21 7.756 10.36 11.041 13 15 C15.625 15.688 15.625 15.688 18 16 C18 16.33 18 16.66 18 17 C16.35 17 14.7 17 13 17 C12.67 17.66 12.34 18.32 12 19 C11.608 18.257 11.216 17.515 10.812 16.75 C8.789 13.68 7.103 11.975 4 10 C0.188 9.25 0.188 9.25 -3 9 C-2.01 8.34 -1.02 7.68 0 7 C0.188 3.375 0.188 3.375 0 0 Z " fill="#42810F" transform="translate(82,67)"/>
<path d="M0 0 C0.99 0.33 1.98 0.66 3 1 C3 6.61 3 12.22 3 18 C1.68 18 0.36 18 -1 18 C-0.835 15.03 -0.835 15.03 0 0 Z " fill="#7CB02C" transform="translate(17,142)"/>
<path d="M0 0 C0.278 0.382 0.278 0.382 1.688 2.312 C4.888 6.032 7.435 7.76 12.332 8.512 C13.481 8.57 14.629 8.628 15.812 8.688 C16.974 8.753 18.135 8.819 19.332 8.887 C20.212 8.924 21.093 8.961 22 9 C19.436 11.564 18.312 11.326 14.75 11.375 C9.699 11.282 6.848 10.463 3 7 C0.584 4.342 0 3.647 0 0 Z " fill="#478215" transform="translate(101,158)"/>
<path d="M0 0 C2.446 0.437 3.86 0.886 5.812 2.469 C8.331 4.232 10.237 4.672 13.25 5.188 C14.142 5.346 15.034 5.505 15.953 5.668 C16.629 5.778 17.304 5.887 18 6 C18 6.33 18 6.66 18 7 C11.771 8.133 7.083 7.704 1 6 C0.67 4.02 0.34 2.04 0 0 Z " fill="#EBE5BD" transform="translate(129,133)"/>
<path d="M0 0 C0.33 0 0.66 0 1 0 C1.014 0.615 1.028 1.23 1.043 1.863 C1.188 4.328 1.411 6.601 2 9 C4.25 10.688 4.25 10.688 7 12 C11.796 16.583 11.796 16.583 12.312 20.168 C12.312 22.375 12.312 22.375 12 26 C11.67 26 11.34 26 11 26 C10.959 25.474 10.959 25.474 10.75 22.812 C9.921 18.6 9.047 16.965 6 14 C3 12.312 3 12.312 0 11 C-1.333 10.333 -2.667 9.667 -4 9 C-2.68 9 -1.36 9 0 9 C0 6.03 0 3.06 0 0 Z " fill="#3D750E" transform="translate(47,108)"/>
<path d="M0 0 C0.402 0.01 0.402 0.01 2.438 0.062 C2.438 4.062 2.438 4.062 1.188 5.875 C-0.562 7.062 -0.562 7.062 -2.75 6.75 C-3.348 6.523 -3.946 6.296 -4.562 6.062 C-3.49 0.085 -3.49 0.085 0 0 Z " fill="#D5EE7A" transform="translate(57.5625,100.9375)"/>
<path d="M0 0 C0.33 0.99 0.66 1.98 1 3 C-3.62 7.62 -8.24 12.24 -13 17 C-13.66 16.34 -14.32 15.68 -15 15 C-14.42 14.504 -13.84 14.007 -13.242 13.496 C-8.384 9.271 -4.06 4.996 0 0 Z " fill="#66A023" transform="translate(79,123)"/>
<path d="M0 0 C-0.672 3.806 -1.727 7.352 -3 11 C-3.99 11 -4.98 11 -6 11 C-6.49 4.636 -6.49 4.636 -4.125 1.562 C-2 0 -2 0 0 0 Z " fill="#7FBC22" transform="translate(119,32)"/>
<path d="M0 0 C-0.66 1.32 -1.32 2.64 -2 4 C-8.115 4.097 -13.933 3.77 -20 3 C-20 2.67 -20 2.34 -20 2 C-17.229 1.665 -14.459 1.332 -11.688 1 C-10.902 0.905 -10.116 0.809 -9.307 0.711 C-8.549 0.621 -7.792 0.53 -7.012 0.438 C-6.315 0.354 -5.619 0.27 -4.901 0.184 C-3 0 -3 0 0 0 Z " fill="#D6D1A2" transform="translate(58,165)"/>
<path d="M0 0 C0.402 0.01 0.402 0.01 2.438 0.062 C1.688 4.812 1.688 4.812 -0.562 7.062 C-2.688 6.688 -2.688 6.688 -4.562 6.062 C-3.49 0.085 -3.49 0.085 0 0 Z " fill="#D8ED7F" transform="translate(38.5625,121.9375)"/>
<path d="M0 0 C0.66 1.32 1.32 2.64 2 4 C1.102 6.359 1.102 6.359 -0.375 8.75 C-0.857 9.549 -1.339 10.348 -1.836 11.172 C-2.22 11.775 -2.604 12.378 -3 13 C-3.99 12.01 -4.98 11.02 -6 10 C-4.02 6.7 -2.04 3.4 0 0 Z " fill="#A1CC3F" transform="translate(93,98)"/>
<path d="M0 0 C-1.37 3.161 -1.989 3.993 -5 6 C-7.5 6.312 -7.5 6.312 -10 6 C-11.656 4.48 -11.656 4.48 -13 3 C-11.586 2.492 -10.169 1.994 -8.75 1.5 C-7.961 1.222 -7.172 0.943 -6.359 0.656 C-4 0 -4 0 0 0 Z " fill="#6FAE26" transform="translate(101,72)"/>
<path d="M0 0 C1.32 0 2.64 0 4 0 C4.125 2.375 4.125 2.375 4 5 C3.34 5.66 2.68 6.32 2 7 C-0.625 6.625 -0.625 6.625 -3 6 C-2.427 3.133 -2.139 2.139 0 0 Z " fill="#CFED78" transform="translate(91,58)"/>
<path d="M0 0 C0 3.867 -1.419 6.509 -3 10 C-5.02 9.398 -7.021 8.727 -9 8 C-9.33 7.34 -9.66 6.68 -10 6 C-9.216 5.732 -8.433 5.464 -7.625 5.188 C-5 4 -5 4 -3 1 C-2.01 0.67 -1.02 0.34 0 0 Z " fill="#407E0C" transform="translate(128,24)"/>
<path d="M0 0 C0.99 0.33 1.98 0.66 3 1 C3 2.98 3 4.96 3 7 C0.69 6.67 -1.62 6.34 -4 6 C-2.25 1.125 -2.25 1.125 0 0 Z " fill="#619920" transform="translate(106,47)"/>
<path d="M0 0 C-3.287 3.813 -6.397 5.23 -11 7 C-11 6.34 -11 5.68 -11 5 C-11.66 4.67 -12.32 4.34 -13 4 C-8.39 1.05 -5.635 -0.55 0 0 Z " fill="#76AB29" transform="translate(105,41)"/>
<path d="M0 0 C0.66 0.33 1.32 0.66 2 1 C1.67 1.495 1.67 1.495 0 4 C-0.66 4 -1.32 4 -2 4 C-2 4.66 -2 5.32 -2 6 C-4.751 6.917 -6.359 7.109 -9.188 7.062 C-9.817 7.052 -9.817 7.052 -13 7 C-13.33 6.01 -13.66 5.02 -14 4 C-13.578 3.939 -13.578 3.939 -11.445 3.633 C-10.35 3.465 -9.254 3.298 -8.125 3.125 C-7.034 2.963 -5.944 2.8 -4.82 2.633 C-2 2 -2 2 0 0 Z " fill="#D3D3A4" transform="translate(154,134)"/>
<path d="M0 0 C2.375 0.312 2.375 0.312 5 1 C5.66 1.99 6.32 2.98 7 4 C6.34 4 5.68 4 5 4 C5.031 4.629 5.031 4.629 5.188 7.812 C5.208 11.722 5.208 11.722 3.5 14 C3.005 14.33 2.51 14.66 2 15 C1.67 14.34 1.34 13.68 1 13 C1.309 12.237 1.619 11.474 1.938 10.688 C3.042 7.894 3.17 5.969 3 3 C2.34 3 1.68 3 1 3 C0.67 2.01 0.34 1.02 0 0 Z " fill="#70AB22" transform="translate(100,54)"/>
<path d="M0 0 C2 1 2 1 3.375 3.938 C5.038 7.072 5.74 7.876 9 9 C8.67 10.32 8.34 11.64 8 13 C6.125 13.625 6.125 13.625 4 14 C3.34 13.34 2.68 12.68 2 12 C3.32 12 4.64 12 6 12 C5.598 11.567 5.598 11.567 3.562 9.375 C1.031 6.371 0.283 3.968 0 0 Z " fill="#346D1B" transform="translate(126,34)"/>
<path d="M0 0 C1.675 0.286 3.344 0.618 5 1 C4.67 2.32 4.34 3.64 4 5 C2.02 5.33 0.04 5.66 -2 6 C-1.125 1.125 -1.125 1.125 0 0 Z " fill="#D7EE85" transform="translate(137,111)"/>
<path d="M0 0 C0.66 0 1.32 0 2 0 C1.422 4.062 0.109 6.848 -2.062 10.312 C-2.61 11.196 -3.158 12.079 -3.723 12.988 C-4.144 13.652 -4.566 14.316 -5 15 C-5.648 13.254 -5.648 13.254 -6 11 C-5.039 8.965 -5.039 8.965 -3.625 6.938 C-1.968 4.527 -0.937 2.812 0 0 Z " fill="#2C641A" transform="translate(118,100)"/>
<path d="M0 0 C0.825 0.33 0.825 0.33 5 2 C5.081 3.437 5.139 4.874 5.188 6.312 C5.222 7.113 5.257 7.914 5.293 8.738 C4.938 11.479 4.106 12.292 2 14 C2.065 12.014 2.13 10.029 2.195 8.043 C2 6 2 6 0 3 C0 2.01 0 1.02 0 0 Z " fill="#81B826" transform="translate(67,98)"/>
<path d="M0 0 C1.461 3.842 0.496 6.39 -0.812 10.188 C-0.991 10.721 -0.991 10.721 -1.895 13.418 C-3 16 -3 16 -5 17 C-4.462 10.818 -2.454 5.673 0 0 Z " fill="#286115" transform="translate(125,82)"/>
<path d="M0 0 C0.33 0 0.66 0 1 0 C1 3.63 1 7.26 1 11 C-2.3 11.33 -5.6 11.66 -9 12 C-8.67 11.34 -8.34 10.68 -8 10 C-5.678 9.593 -3.343 9.256 -1 9 C-1.021 7.701 -1.041 6.401 -1.062 5.062 C-1.084 3.708 -1.071 2.352 -1 1 C-0.67 0.67 -0.34 0.34 0 0 Z " fill="#2E6B0B" transform="translate(64,86)"/>
<path d="M0 0 C-2.071 4.619 -4.381 6.929 -9 9 C-6.833 0 -6.833 0 0 0 Z " fill="#286707" transform="translate(111,41)"/>
<path d="M0 0 C2.97 0.33 5.94 0.66 9 1 C8.67 1.66 8.34 2.32 8 3 C6.35 2.67 4.7 2.34 3 2 C3.573 4.867 3.861 5.861 6 8 C5.67 8.66 5.34 9.32 5 10 C4.34 10 3.68 10 3 10 C0.461 6.582 -0.364 4.242 0 0 Z " fill="#427721" transform="translate(98,29)"/>
<path d="M0 0 C0.66 0 1.32 0 2 0 C1.719 2.314 1.425 4.626 1.125 6.938 C0.963 8.225 0.8 9.513 0.633 10.84 C0.424 11.883 0.215 12.926 0 14 C-0.33 14.165 -0.33 14.165 -2 15 C-2.054 13.063 -2.093 11.125 -2.125 9.188 C-2.148 8.109 -2.171 7.03 -2.195 5.918 C-2 3 -2 3 0 0 Z " fill="#55951E" transform="translate(102,144)"/>
<path d="M0 0 C1.32 0 2.64 0 4 0 C3.67 1.65 3.34 3.3 3 5 C1.35 5.33 -0.3 5.66 -2 6 C-2 2 -2 2 0 0 Z " fill="#DAF283" transform="translate(110,142)"/>
<path d="M0 0 C5.371 -0.273 8.587 -0.404 13 3 C14.812 4.688 14.812 4.688 16 6 C15.67 6.99 15.34 7.98 15 9 C14.464 8.402 13.927 7.804 13.375 7.188 C9.431 3.555 5.28 1.776 0 1 C0 0.67 0 0.34 0 0 Z " fill="#518D18" transform="translate(114,137)"/>
<path d="M0 0 C2.125 0.375 2.125 0.375 4 1 C3.125 4.875 3.125 4.875 2 6 C0.334 6.041 -1.334 6.043 -3 6 C-2.427 3.133 -2.139 2.139 0 0 Z " fill="#D1EB70" transform="translate(74,79)"/>
<path d="M0 0 C0.722 0.784 1.444 1.568 2.188 2.375 C4.833 4.844 6.604 5.933 10 7 C8.68 7.33 7.36 7.66 6 8 C6 9.65 6 11.3 6 13 C0 4 0 4 0 0 Z " fill="#22520A" transform="translate(120,40)"/>
<path d="M0 0 C2.48 0.113 4.958 0.24 7.438 0.375 C8.145 0.406 8.852 0.437 9.58 0.469 C11.392 0.573 13.198 0.779 15 1 C15.33 1.66 15.66 2.32 16 3 C14.271 3.054 12.542 3.093 10.812 3.125 C9.85 3.148 8.887 3.171 7.895 3.195 C4.872 2.991 2.732 2.269 0 1 C0 0.67 0 0.34 0 0 Z " fill="#EBDEB9" transform="translate(32,167)"/>
<path d="M0 0 C0.33 0.66 0.66 1.32 1 2 C1.66 2 2.32 2 3 2 C4.231 8.4 4.231 8.4 3.062 11.438 C2.712 11.953 2.361 12.469 2 13 C1.34 13 0.68 13 0 13 C0.012 12.374 0.023 11.747 0.035 11.102 C0.044 10.284 0.053 9.467 0.062 8.625 C0.068 8.219 0.068 8.219 0.098 6.164 C0 4 0 4 -1 2 C-0.67 1.34 -0.34 0.68 0 0 Z " fill="#417B12" transform="translate(23,130)"/>
<path d="M0 0 C0.33 0.99 0.66 1.98 1 3 C-0.293 5.41 -0.293 5.41 -2.188 8.062 C-2.8 8.94 -3.412 9.818 -4.043 10.723 C-5.955 12.947 -7.303 13.941 -10 15 C-9.083 13.625 -8.167 12.25 -7.25 10.875 C-6.706 10.059 -6.162 9.243 -5.602 8.402 C-3.734 5.602 -1.867 2.801 0 0 Z " fill="#E6E5BF" transform="translate(110,119)"/>
<path d="M0 0 C0.536 0.268 1.072 0.536 1.625 0.812 C-4.125 4.812 -4.125 4.812 -6.375 4.812 C-6.705 6.463 -7.035 8.112 -7.375 9.812 C-8.035 9.812 -8.695 9.812 -9.375 9.812 C-9.166 6.151 -8.226 4.333 -5.562 1.938 C-2.375 -0.188 -2.375 -0.188 0 0 Z " fill="#97C93A" transform="translate(140.375,108.1875)"/>
<path d="M0 0 C0.66 0.33 1.32 0.66 2 1 C2.625 3.062 2.625 3.062 3 5 C2.093 5.247 1.185 5.495 0.25 5.75 C-3.104 7.04 -4.677 8.32 -7 11 C-5.514 6.407 -3.15 3.564 0 0 Z " fill="#599618" transform="translate(128,19)"/>
<path d="M0 0 C0.99 0 1.98 0 3 0 C1.257 3.961 -1.147 7.744 -4 11 C-4.66 11 -5.32 11 -6 11 C-5.39 7.937 -4.423 5.799 -2.625 3.25 C-2.205 2.636 -1.785 2.023 -1.352 1.391 C-0.906 0.932 -0.46 0.473 0 0 Z " fill="#88C22E" transform="translate(125,19)"/>
<path d="M0 0 C0.33 0 0.66 0 1 0 C1.277 2.08 1.52 4.164 1.75 6.25 C1.889 7.41 2.028 8.57 2.172 9.766 C2 13 2 13 0.016 15.422 C-0.65 15.943 -1.315 16.463 -2 17 C-2.66 16.67 -3.32 16.34 -4 16 C-3.763 15.608 -3.763 15.608 -2.562 13.625 C-0.603 9.078 -0.281 4.901 0 0 Z " fill="#C6D29B" transform="translate(132,148)"/>
<path d="M0 0 C0.33 0.99 0.66 1.98 1 3 C-1.97 5.31 -4.94 7.62 -8 10 C-8.99 9.34 -9.98 8.68 -11 8 C-10.374 7.59 -9.747 7.18 -9.102 6.758 C-8.284 6.219 -7.467 5.68 -6.625 5.125 C-6.219 4.858 -6.219 4.858 -4.164 3.508 C-2 2 -2 2 0 0 Z " fill="#DCD5AA" transform="translate(83,150)"/>
<path d="M0 0 C1.98 0 3.96 0 6 0 C6.33 0.99 6.66 1.98 7 3 C6.216 3.309 5.433 3.619 4.625 3.938 C2 5 2 5 0 6 C0 4.02 0 2.04 0 0 Z " fill="#34700C" transform="translate(60,129)"/>
<path d="M0 0 C1.32 0.33 2.64 0.66 4 1 C2.312 4 2.312 4 0 7 C-2.75 7.375 -2.75 7.375 -5 7 C-3.35 4.69 -1.7 2.38 0 0 Z " fill="#9CCB3F" transform="translate(54,82)"/>
<path d="M0 0 C2.438 0.812 2.438 0.812 5 2 C6.312 5.937 5.243 8.125 4 12 C3.67 12 3.34 12 3 12 C2.938 11.381 2.938 11.381 2.625 8.25 C2.243 5.124 1.695 2.711 0 0 Z " fill="#7BB422" transform="translate(84,76)"/>
<path d="M0 0 C0.66 0.33 1.32 0.66 2 1 C0.68 4.63 -0.64 8.26 -2 12 C-4 8 -4 8 -3.32 5.859 C-2.926 5.163 -2.531 4.467 -2.125 3.75 C-1.736 3.044 -1.346 2.337 -0.945 1.609 C-0.633 1.078 -0.321 0.547 0 0 Z " fill="#4F8D18" transform="translate(105,67)"/>
<path d="M0 0 C0.33 1.32 0.66 2.64 1 4 C-0.485 4.165 -0.485 4.165 -8 5 C-3.161 0 -3.161 0 0 0 Z " fill="#45860F" transform="translate(99,48)"/>
<path d="M0 0 C1.535 2.433 2.031 3.671 1.758 6.578 C1.549 7.46 1.34 8.342 1.125 9.25 C0.921 10.142 0.718 11.034 0.508 11.953 C0.34 12.629 0.173 13.304 0 14 C-0.66 13.67 -1.32 13.34 -2 13 C-2.625 9.938 -2.625 9.938 -3 7 C-2.34 7 -1.68 7 -1 7 C-0.67 4.69 -0.34 2.38 0 0 Z " fill="#6BA720" transform="translate(130,144)"/>
<path d="M0 0 C0.33 0 0.66 0 1 0 C2.193 3.877 3 6.916 3 11 C2.01 11.33 1.02 11.66 0 12 C-1.532 7.916 -0.631 4.205 0 0 Z " fill="#65A125" transform="translate(129,119)"/>
<path d="M0 0 C2.288 1.659 3.565 2.623 5 5 C5.442 8.703 5.293 12.288 5 16 C4.67 16 4.34 16 4 16 C3.938 15.381 3.938 15.381 3.625 12.25 C3.234 9.08 2.596 6.793 1 4 C0.632 2.676 0.288 1.344 0 0 Z " fill="#679734" transform="translate(155,111)"/>
<path d="M0 0 C0 3 0 3 -1.438 5.125 C-3.544 9.001 -3.725 12.65 -4 17 C-4.33 17 -4.66 17 -5 17 C-5.767 7.423 -5.767 7.423 -3.887 3.934 C-2.5 2.312 -2.5 2.312 0 0 Z " fill="#2A6608" transform="translate(51,100)"/>
<path d="M0 0 C0.33 0 0.66 0 1 0 C0.67 4.62 0.34 9.24 0 14 C-1.32 13.01 -2.64 12.02 -4 11 C-3.01 11 -2.02 11 -1 11 C-1.048 10.687 -1.048 10.687 -1.289 9.102 C-1.4 8.284 -1.511 7.467 -1.625 6.625 C-1.741 5.813 -1.857 5.001 -1.977 4.164 C-1.984 3.45 -1.992 2.736 -2 2 C-1.34 1.34 -0.68 0.68 0 0 Z " fill="#3B770D" transform="translate(110,43)"/>
<path d="M0 0 C0.66 0.33 1.32 0.66 2 1 C0.599 6.292 -2.855 8.775 -7 12 C-5.617 9.131 -4.079 6.44 -2.375 3.75 C-1.929 3.044 -1.483 2.337 -1.023 1.609 C-0.686 1.078 -0.348 0.547 0 0 Z " fill="#184C05" transform="translate(78,114)"/>
<path d="M0 0 C1.65 0 3.3 0 5 0 C4.34 2.31 3.68 4.62 3 7 C2.34 6.67 1.68 6.34 1 6 C0.375 2.938 0.375 2.938 0 0 Z " fill="#2C7109" transform="translate(79,108)"/>
<path d="M0 0 C0.33 0 0.66 0 1 0 C1 1.98 1 3.96 1 6 C2.32 6.33 3.64 6.66 5 7 C5 7.66 5 8.32 5 9 C2.36 9 -0.28 9 -3 9 C-2.01 8.34 -1.02 7.68 0 7 C0.188 3.375 0.188 3.375 0 0 Z " fill="#5C941A" transform="translate(82,67)"/>
<path d="M0 0 C-5.176 3.223 -5.176 3.223 -7 4 C-7.99 3.67 -8.98 3.34 -10 3 C-9.34 3 -8.68 3 -8 3 C-8.33 2.01 -8.66 1.02 -9 0 C-2.25 -1.125 -2.25 -1.125 0 0 Z " fill="#194904" transform="translate(45,148)"/>
<path d="M0 0 C2.169 0.506 4 1 6 2 C5.34 3.32 4.68 4.64 4 6 C2.624 4.71 1.292 3.373 0 2 C0 1.34 0 0.68 0 0 Z " fill="#81B528" transform="translate(47,119)"/>
<path d="M0 0 C-2.97 1.65 -5.94 3.3 -9 5 C-9 3.68 -9 2.36 -9 1 C-3.375 -1.125 -3.375 -1.125 0 0 Z " fill="#93C438" transform="translate(25,159)"/>
<path d="M0 0 C0.66 0.33 1.32 0.66 2 1 C-0.31 3.64 -2.62 6.28 -5 9 C-5.33 8.34 -5.66 7.68 -6 7 C-4.02 4.69 -2.04 2.38 0 0 Z " fill="#306B1D" transform="translate(40,97)"/>
<path d="M0 0 C0.99 0.33 1.98 0.66 3 1 C2.34 2.32 1.68 3.64 1 5 C1.99 5.66 2.98 6.32 4 7 C2.35 7 0.7 7 -1 7 C-1.625 4.625 -1.625 4.625 -2 2 C-1.34 1.34 -0.68 0.68 0 0 Z " fill="#AED647" transform="translate(107,142)"/>
<path d="M0 0 C0.66 0.66 1.32 1.32 2 2 C1.977 4.164 1.977 4.164 1.625 6.625 C1.514 7.442 1.403 8.26 1.289 9.102 C1.194 9.728 1.098 10.355 1 11 C-1.309 7.016 -0.865 4.499 0 0 Z " fill="#548532" transform="translate(17,131)"/>
<path d="M0 0 C2.136 3.204 2.231 4.019 2.125 7.688 C2.107 8.496 2.089 9.304 2.07 10.137 C2.047 10.752 2.024 11.366 2 12 C1.67 12 1.34 12 1 12 C1 10.02 1 8.04 1 6 C0.34 6 -0.32 6 -1 6 C-0.67 4.02 -0.34 2.04 0 0 Z " fill="#336F0A" transform="translate(25,126)"/>
<path d="M0 0 C-0.33 0.99 -0.66 1.98 -1 3 C-4.63 2.67 -8.26 2.34 -12 2 C-12 1.67 -12 1.34 -12 1 C-10.563 0.831 -9.125 0.665 -7.688 0.5 C-6.887 0.407 -6.086 0.314 -5.262 0.219 C-3 0 -3 0 0 0 Z " fill="#C4CC90" transform="translate(124,168)"/>
<path d="M0 0 C3.63 0.33 7.26 0.66 11 1 C6.846 3.077 6.165 3.315 2 2 C1.34 1.34 0.68 0.68 0 0 Z " fill="#64A421" transform="translate(134,128)"/>
<path d="M0 0 C0.33 0.66 0.66 1.32 1 2 C1.66 2 2.32 2 3 2 C3 2.66 3 3.32 3 4 C4.98 4 6.96 4 9 4 C9 4.33 9 4.66 9 5 C7.515 5.165 7.515 5.165 0 6 C0 4.02 0 2.04 0 0 Z " fill="#93C936" transform="translate(130,118)"/>
<path d="M0 0 C1.097 3.29 0.8 4.713 0 8 C-0.99 7.67 -1.98 7.34 -3 7 C-2.387 4.038 -1.746 2.619 0 0 Z " fill="#8DC139" transform="translate(29,113)"/>
<path d="M0 0 C0.99 0 1.98 0 3 0 C2.494 2.169 2 4 1 6 C0.34 6 -0.32 6 -1 6 C-1.043 4.334 -1.041 2.666 -1 1 C-0.67 0.67 -0.34 0.34 0 0 Z " fill="#AED64E" transform="translate(95,96)"/>
<path d="M0 0 C0.66 0.33 1.32 0.66 2 1 C1.01 2.32 1.01 2.32 -4 9 C-4.33 8.01 -4.66 7.02 -5 6 C-3.596 3.736 -1.803 1.979 0 0 Z " fill="#307216" transform="translate(56,77)"/>
<path d="M0 0 C-1.32 1.32 -2.64 2.64 -4 4 C-4.825 3.67 -4.825 3.67 -9 2 C-5.565 -0.29 -4.015 -0.178 0 0 Z " fill="#519216" transform="translate(110,39)"/>
<path d="M0 0 C1.32 0.33 2.64 0.66 4 1 C4 2.65 4 4.3 4 6 C3.01 6 2.02 6 1 6 C0.67 4.02 0.34 2.04 0 0 Z " fill="#EFECCD" transform="translate(129,133)"/>
<path d="M0 0 C0.66 0.66 1.32 1.32 2 2 C0.35 3.32 -1.3 4.64 -3 6 C-3 5.01 -3 4.02 -3 3 C-3.66 2.67 -4.32 2.34 -5 2 C-3.35 1.34 -1.7 0.68 0 0 Z " fill="#2F6A0D" transform="translate(70,125)"/>
<path d="M0 0 C0.66 0 1.32 0 2 0 C2.33 1.32 2.66 2.64 3 4 C2.505 4.33 2.505 4.33 0 6 C-0.66 4.68 -1.32 3.36 -2 2 C-1.34 1.34 -0.68 0.68 0 0 Z " fill="#A0C943" transform="translate(80,116)"/>
<path d="M0 0 C0.33 0 0.66 0 1 0 C1.33 3.63 1.66 7.26 2 11 C1.01 10.835 1.01 10.835 -4 10 C-2.68 9.67 -1.36 9.34 0 9 C0 6.03 0 3.06 0 0 Z " fill="#579117" transform="translate(47,108)"/>
<path d="M0 0 C0.99 0.33 1.98 0.66 3 1 C1.625 2.5 1.625 2.5 0 4 C-0.66 4 -1.32 4 -2 4 C-2.33 4.99 -2.66 5.98 -3 7 C-3.33 6.01 -3.66 5.02 -4 4 C-2.68 2.68 -1.36 1.36 0 0 Z " fill="#66A120" transform="translate(69,114)"/>
<path d="M0 0 C0.66 0.33 1.32 0.66 2 1 C0.35 2.98 -1.3 4.96 -3 7 C-3.99 6.67 -4.98 6.34 -6 6 C-4.02 4.02 -2.04 2.04 0 0 Z " fill="#427B12" transform="translate(50,93)"/>
<path d="M0 0 C0.66 0 1.32 0 2 0 C0.731 3.914 -0.512 5.791 -4 8 C-3.403 4.658 -2.264 2.536 0 0 Z " fill="#3D7112" transform="translate(58,82)"/>
</svg>
