<?xml version="1.0" encoding="UTF-8"?>
<!-- Generator: visioncortex VTracer 0.6.12 -->
<svg version="1.1" xmlns="http://www.w3.org/2000/svg" width="164" height="185">
<path d="M0 0 C54.12 0 108.24 0 164 0 C164 61.05 164 122.1 164 185 C109.88 185 55.76 185 0 185 C0 123.95 0 62.9 0 0 Z " fill="#FCF7EA" transform="translate(0,0)"/>
<path d="M0 0 C1.362 0.961 2.699 1.959 4 3 C6.75 3.688 6.75 3.688 9 4 C9.66 2.68 10.32 1.36 11 0 C11.99 0.33 12.98 0.66 14 1 C13.546 1.433 13.093 1.866 12.625 2.312 C11 4 11 4 9 7 C8.01 6.67 7.02 6.34 6 6 C6.062 6.928 6.124 7.856 6.188 8.812 C6 12 6 12 4.688 13.875 C3 15 3 15 0 15 C0.66 16.32 1.32 17.64 2 19 C3.32 19 4.64 19 6 19 C6.66 21.31 7.32 23.62 8 26 C8.638 26.133 9.276 26.266 9.934 26.402 C10.76 26.579 11.586 26.756 12.438 26.938 C13.261 27.112 14.085 27.286 14.934 27.465 C17 28 17 28 18 29 C20 29.041 22 29.043 24 29 C24.767 20.224 24.767 20.224 22.887 17.223 C21.5 15.875 21.5 15.875 19 14 C20 12.438 20 12.438 22 11 C24.766 11.033 27.26 11.506 30 12 C30.143 3.429 30.143 3.429 29 0 C32.875 2.625 32.875 2.625 34 6 C37.875 5.125 37.875 5.125 39 4 C43.356 3.481 47.994 2.981 51.992 5.012 C54.876 7.401 57.709 10.127 58.301 13.938 C58.332 19.41 58.332 19.41 56.875 22 C54.211 23.421 51.965 23.198 49 23 C49.33 23.825 49.33 23.825 51 28 C51.784 27.196 52.567 26.391 53.375 25.562 C56.412 22.597 57.075 22.089 61.25 21.688 C65.737 22.061 67.61 23.073 71 26 C73.891 30.336 74.753 33.824 74 39 C71.659 42.144 70.295 43.784 66.375 44.438 C64 44 64 44 61 42 C59.354 44.963 58.443 47.632 58 51 C58.33 51.66 58.66 52.32 59 53 C59.536 52.34 60.073 51.68 60.625 51 C63 49 63 49 65.875 48.438 C69.187 49.034 71.364 50.006 73.859 52.305 C75.735 55.092 75.692 57.626 75.457 60.906 C75 63 75 63 73.312 65.562 C70.56 67.273 69.188 67.319 66 67 C61.632 67 61.253 67.228 58.25 70 C57.943 70.278 57.943 70.278 56.391 71.688 C55.932 72.121 55.473 72.554 55 73 C55.887 72.897 56.774 72.794 57.688 72.688 C61 73 61 73 63.938 75.062 C66 78 66 78 65.938 81.688 C65 85 65 85 63 87 C61.783 86.918 60.566 86.835 59.312 86.75 C54.82 86.643 52.425 88.153 49.211 91.199 C48 93 48 93 48.062 96.875 C48.372 97.906 48.681 98.938 49 100 C48.443 100.389 47.886 100.779 47.312 101.18 C37.471 108.395 31.329 117.725 25 128 C23.217 130.807 21.425 133.609 19.633 136.41 C18.585 138.071 17.557 139.745 16.555 141.434 C16.124 142.157 15.694 142.88 15.25 143.625 C14.884 144.257 14.518 144.888 14.141 145.539 C13 147 13 147 10 148 C10 148.66 10 149.32 10 150 C7.259 152.808 5.72 153.938 1.766 154.277 C-5.246 153.6 -11.452 152.59 -18 150 C-19.155 149.67 -20.31 149.34 -21.5 149 C-22.325 148.67 -23.15 148.34 -24 148 C-24.33 147.01 -24.66 146.02 -25 145 C-25.722 145.103 -26.444 145.206 -27.188 145.312 C-31.144 144.873 -32.338 142.862 -35 140 C-36.646 138.966 -38.31 137.959 -40 137 C-42 135 -42 135 -42.082 132.418 C-41.506 125.509 -40.475 118.976 -38.719 112.266 C-36.761 103.369 -36.877 94.514 -36.938 85.438 C-36.94 84.79 -36.94 84.79 -36.951 81.514 C-36.963 78.342 -36.979 75.171 -37 72 C-36.505 71.835 -36.505 71.835 -34 71 C-34.66 66.38 -35.32 61.76 -36 57 C-37.65 56.67 -39.3 56.34 -41 56 C-42 55 -42 55 -42.375 52.25 C-42 49 -42 49 -39.875 46.125 C-37 44 -37 44 -33.875 43.5 C-30.642 44.062 -29.881 44.384 -28 47 C-27.742 49.848 -27.742 49.848 -27.875 53.062 C-28.085 58.831 -28.085 58.831 -27 61 C-26.971 57.792 -26.953 54.583 -26.938 51.375 C-26.929 50.471 -26.921 49.568 -26.912 48.637 C-26.895 43.971 -27.032 39.59 -28 35 C-28.969 34.691 -29.939 34.381 -30.938 34.062 C-34 33 -34 33 -35 32 C-35.594 27.078 -35.561 24.059 -32.562 20 C-30.01 17.369 -28.163 16.473 -24.5 16.25 C-19.641 16.612 -17.334 18.58 -14 22 C-13.67 21.01 -13.34 20.02 -13 19 C-12.34 19 -11.68 19 -11 19 C-11 18.34 -11 17.68 -11 17 C-11.619 16.897 -12.237 16.794 -12.875 16.688 C-15 16 -15 16 -17 13 C-17.068 9.405 -16.888 6.996 -14.438 4.246 C-9.304 -0.192 -6.907 -1.429 0 0 Z " fill="#E0C17F" transform="translate(57,20)"/>
<path d="M0 0 C0.825 0.165 0.825 0.165 5 1 C5.164 5.28 4.709 8.626 3.375 12.688 C3.009 13.826 2.643 14.964 2.266 16.137 C2.164 16.446 2.164 16.446 1.65 18.013 C0.454 21.669 -0.71 25.334 -1.875 29 C-2.132 29.803 -2.389 30.606 -2.654 31.433 C-3.987 35.64 -5.253 39.852 -6.402 44.113 C-9.767 56.555 -14.119 68.27 -19.269 80.087 C-20 82 -20 82 -20 84 C-19.765 83.429 -19.53 82.858 -19.288 82.27 C-11.144 62.629 -1.768 43.754 10.07 26.062 C12.639 21.987 14.656 17.725 16.613 13.328 C18.15 10.749 19.222 10.019 22 9 C21.047 15.831 18.539 21.061 15.125 27 C14.786 27.603 14.447 28.207 14.098 28.828 C12 32.496 9.669 35.734 7 39 C5.664 41.115 4.404 43.262 3.148 45.426 C2.959 45.686 2.959 45.686 2 47 C1.34 47 0.68 47 0 47 C-2 52.75 -2 52.75 -2 55 C-1.34 54.34 -0.68 53.68 0 53 C0.737 57.714 -1.199 60.089 -3.703 63.824 C-5.417 66.7 -6.282 69.63 -7.242 72.82 C-8.016 75.045 -8.987 76.915 -10.188 78.938 C-12 82 -12 82 -12 84 C-11.71 83.428 -11.42 82.856 -11.121 82.266 C-1.772 64.023 9.151 48.452 23.558 33.856 C26.569 30.768 28.854 28.281 30 24 C29.959 23.134 29.918 22.267 29.875 21.375 C30 19 30 19 31.688 17.188 C34.342 15.824 36.056 15.755 39 16 C39.031 15.722 39.031 15.722 39.188 14.312 C40.334 11.05 42.494 9.313 45 7 C46.32 7.66 47.64 8.32 49 9 C48.497 13.401 46.912 15.712 44 19 C44.165 19.33 44.165 19.33 45 21 C45.454 27.236 45.454 27.236 43.812 30 C42 31 42 31 39.5 30.812 C37 30 37 30 34 28 C33.835 28.825 33.835 28.825 33 33 C32.34 33 31.68 33 31 33 C30.756 33.554 30.513 34.109 30.262 34.68 C28.74 37.478 26.871 39.695 24.812 42.125 C12.915 56.515 3.195 72.779 -6 89 C-5.371 88.154 -4.742 87.309 -4.094 86.438 C3.664 76.123 3.664 76.123 8.375 71.688 C10.892 69.295 12.466 67.383 13.812 64.188 C15.61 60.112 18.409 57.139 21.5 54 C21.975 53.507 22.451 53.013 22.941 52.505 C25.924 49.571 26.627 49 31 49 C30.488 53.303 27.768 56.078 25.062 59.25 C24.607 59.804 24.151 60.359 23.682 60.93 C22.504 62.33 21.257 63.67 20 65 C19.34 65 18.68 65 18 65 C18.33 66.32 18.66 67.64 19 69 C18.34 69 17.68 69 17 69 C16.764 69.687 16.528 70.374 16.285 71.082 C14.737 74.598 12.68 77.592 10.438 80.688 C9.997 81.301 9.557 81.915 9.103 82.547 C5.655 87.274 1.883 91.602 -2.094 95.895 C-6.28 100.518 -8.645 105.327 -11 111 C-11.66 111.99 -12.32 112.98 -13 114 C-15.625 114.188 -15.625 114.188 -18 114 C-18.883 111.533 -19.131 110.361 -18.223 107.859 C-17.84 107.163 -17.457 106.467 -17.062 105.75 C-16.872 105.397 -16.872 105.397 -15.91 103.609 C-15.61 103.078 -15.309 102.547 -15 102 C-15.66 102 -16.32 102 -17 102 C-17.289 102.928 -17.578 103.856 -17.875 104.812 C-19 108 -19 108 -21 111 C-22.98 110.34 -24.96 109.68 -27 109 C-26.222 103.945 -25.141 98.983 -24 94 C-24.277 94.855 -24.554 95.709 -24.84 96.59 C-25.202 97.695 -25.564 98.799 -25.938 99.938 C-26.297 101.04 -26.657 102.142 -27.027 103.277 C-28 106 -28 106 -29 107 C-30.666 107.041 -32.334 107.043 -34 107 C-33.355 101.062 -31.795 95.698 -30 90 C-31.98 94.95 -33.96 99.9 -36 105 C-37.65 105 -39.3 105 -41 105 C-41.242 99.32 -40.36 94.525 -39 89 C-40.32 93.62 -41.64 98.24 -43 103 C-46.702 103.925 -47.635 104.082 -51 103 C-50.678 100.749 -50.357 98.498 -50.034 96.247 C-49.759 94.312 -49.485 92.378 -49.214 90.443 C-48.643 86.394 -48.063 82.359 -47.355 78.332 C-45.393 66.966 -45.816 55.494 -46 44 C-45.34 44 -44.68 44 -44 44 C-43.01 52.58 -42.02 61.16 -41 70 C-39.68 62.08 -38.36 54.16 -37 46 C-36.01 46 -35.02 46 -34 46 C-33.114 48.659 -32.82 50.481 -32.684 53.23 C-32.642 54.033 -32.6 54.835 -32.557 55.662 C-32.517 56.495 -32.478 57.329 -32.438 58.188 C-32.394 59.032 -32.351 59.877 -32.307 60.748 C-32.201 62.832 -32.1 64.916 -32 67 C-31.855 66.417 -31.855 66.417 -31.121 63.469 C-30.438 60.736 -29.743 58.008 -29.035 55.281 C-24.852 39.019 -22.262 22.623 -20 6 C-18.68 6.33 -17.36 6.66 -16 7 C-15.372 21.473 -17.099 35.103 -19.633 49.347 C-19.991 51.937 -20.066 54.39 -20 57 C-12.705 38.199 -6.272 19.16 0 0 Z " fill="#FCF4D6" transform="translate(68,49)"/>
<path d="M0 0 C3.875 2.625 3.875 2.625 5 6 C8.875 5.125 8.875 5.125 10 4 C14.356 3.481 18.994 2.981 22.992 5.012 C25.876 7.401 28.709 10.127 29.301 13.938 C29.332 19.41 29.332 19.41 27.875 22 C25.211 23.421 22.965 23.198 20 23 C20.33 23.825 20.33 23.825 22 28 C22.784 27.196 23.567 26.391 24.375 25.562 C27.412 22.597 28.075 22.089 32.25 21.688 C36.737 22.061 38.61 23.073 42 26 C44.891 30.336 45.753 33.824 45 39 C42.659 42.144 41.295 43.784 37.375 44.438 C35 44 35 44 32 42 C30.354 44.963 29.443 47.632 29 51 C29.33 51.66 29.66 52.32 30 53 C30.536 52.34 31.073 51.68 31.625 51 C34 49 34 49 36.875 48.438 C40.187 49.034 42.364 50.006 44.859 52.305 C46.735 55.092 46.692 57.626 46.457 60.906 C46 63 46 63 44.312 65.562 C41.56 67.273 40.188 67.319 37 67 C32.632 67 32.253 67.228 29.25 70 C28.943 70.278 28.943 70.278 27.391 71.688 C26.932 72.121 26.473 72.554 26 73 C26.887 72.897 27.774 72.794 28.688 72.688 C32 73 32 73 34.938 75.062 C37 78 37 78 36.938 81.688 C36 85 36 85 34 87 C32.783 86.918 31.566 86.835 30.312 86.75 C25.82 86.643 23.425 88.153 20.211 91.199 C19 93 19 93 19.062 96.875 C19.372 97.906 19.681 98.938 20 100 C19.443 100.389 18.886 100.779 18.312 101.18 C8.471 108.395 2.329 117.725 -4 128 C-5.783 130.807 -7.575 133.609 -9.367 136.41 C-10.415 138.071 -11.443 139.745 -12.445 141.434 C-12.876 142.157 -13.306 142.88 -13.75 143.625 C-14.116 144.257 -14.482 144.888 -14.859 145.539 C-16 147 -16 147 -19 148 C-19 148.66 -19 149.32 -19 150 C-21.741 152.808 -23.28 153.938 -27.234 154.277 C-34.246 153.6 -40.452 152.59 -47 150 C-48.155 149.67 -49.31 149.34 -50.5 149 C-51.325 148.67 -52.15 148.34 -53 148 C-53.33 147.01 -53.66 146.02 -54 145 C-54.722 145.103 -55.444 145.206 -56.188 145.312 C-60.144 144.873 -61.338 142.862 -64 140 C-65.646 138.966 -67.31 137.959 -69 137 C-71 135 -71 135 -71.082 132.418 C-70.506 125.509 -69.475 118.976 -67.719 112.266 C-65.761 103.369 -65.877 94.514 -65.938 85.438 C-65.94 84.79 -65.94 84.79 -65.951 81.514 C-65.963 78.342 -65.979 75.171 -66 72 C-65.505 71.835 -65.505 71.835 -63 71 C-63 68.69 -63 66.38 -63 64 C-62.67 64 -62.34 64 -62 64 C-61.67 67.3 -61.34 70.6 -61 74 C-61.99 73.67 -62.98 73.34 -64 73 C-63.835 73.99 -63.67 74.98 -63.5 76 C-61.183 95.008 -65.35 113.443 -69 132 C-66.69 132 -64.38 132 -62 132 C-61.734 131.001 -61.469 130.002 -61.195 128.973 C-60.839 127.669 -60.482 126.366 -60.125 125.062 C-59.951 124.403 -59.777 123.744 -59.598 123.064 C-59.125 121.358 -58.568 119.677 -58 118 C-57.67 117.835 -57.67 117.835 -56 117 C-56.747 122.724 -57.829 128.349 -59 134 C-57.35 134 -55.7 134 -54 134 C-53.818 133.276 -53.636 132.551 -53.449 131.805 C-52.078 126.532 -50.693 121.745 -48 117 C-46.758 120.726 -47.452 121.792 -48.875 125.375 C-50.27 128.917 -51.358 132.243 -52 136 C-50.35 135.67 -48.7 135.34 -47 135 C-46.734 134.145 -46.469 133.291 -46.195 132.41 C-45.842 131.305 -45.489 130.201 -45.125 129.062 C-44.777 127.96 -44.429 126.858 -44.07 125.723 C-43 123 -43 123 -41 122 C-41.513 126.356 -42.36 129.954 -44 134 C-44 135.32 -44 136.64 -44 138 C-42.35 138.66 -40.7 139.32 -39 140 C-37.477 137.063 -36.199 134.083 -35 131 C-34.34 131 -33.68 131 -33 131 C-32.67 130.01 -32.34 129.02 -32 128 C-31.67 128.66 -31.34 129.32 -31 130 C-31.996 132.059 -31.996 132.059 -33.438 134.438 C-36 138.676 -36 138.676 -36 142 C-33.688 142.312 -33.688 142.312 -31 142 C-28.944 139.391 -27.919 136.789 -26.727 133.691 C-25.109 129.912 -22.745 127.024 -20 124 C-15.74 119.141 -11.753 114.153 -7.938 108.938 C-7.705 108.622 -7.705 108.622 -6.529 107.025 C-4.421 104.121 -2.453 101.291 -1 98 C-0.34 98 0.32 98 1 98 C0.732 97.443 0.464 96.886 0.188 96.312 C0.126 95.549 0.064 94.786 0 94 C2 91.75 2 91.75 3.391 90.492 C5.303 88.719 7.02 86.827 8.75 84.875 C9.343 84.212 9.936 83.55 10.547 82.867 C12 81 12 81 13 78 C4.449 80.875 -0.718 87.975 -4.637 95.758 C-6.761 99.252 -9.695 101.79 -12.648 104.586 C-16 108.027 -18.655 111.862 -21.371 115.812 C-23 118 -23 118 -25 119 C-23.266 113.809 -20.252 109.444 -17.312 104.875 C-16.213 103.156 -15.115 101.438 -14.016 99.719 C-13.752 99.308 -13.752 99.308 -12.42 97.23 C-11.298 95.468 -10.199 93.689 -9.109 91.906 C-4.144 83.782 1.706 76.316 7.572 68.829 C8.821 67.229 10.047 65.612 11.27 63.992 C11.841 63.335 12.412 62.677 13 62 C13.66 62 14.32 62 15 62 C15.33 60.35 15.66 58.7 16 57 C16.557 57.351 17.114 57.701 17.688 58.062 C20.559 59.227 22.071 58.871 25 58 C26 57 26 57 26.125 53.625 C26 50 26 50 25 47 C25.846 46.278 26.691 45.556 27.562 44.812 C30 42 30 42 29.812 39.188 C29.678 38.827 29.678 38.827 29 37 C26.122 38.29 24.038 39.574 22 42 C21.67 42.99 21.34 43.98 21 45 C18.69 45.743 16.354 46.411 14 47 C13.67 47.33 13.34 47.66 13 48 C13 49.134 13 50.269 13 51.438 C13 55 13 55 12 57 C11.34 57 10.68 57 10 57 C9.403 49.481 10.856 45.26 15 39 C13.02 39.33 11.04 39.66 9 40 C9.33 38.68 9.66 37.36 10 36 C10.557 36.021 10.557 36.021 13.375 36.125 C17 36 17 36 19 34 C19.214 30.155 19.179 26.684 18 23 C17.34 23 16.68 23 16 23 C16 21.35 16 19.7 16 18 C15.505 17.835 15.505 17.835 13 17 C13 16.34 13 15.68 13 15 C17.668 16.64 17.668 16.64 19.5 18.625 C21 20 21 20 23.688 20.188 C24.451 20.126 25.214 20.064 26 20 C26.312 16.813 26.312 16.813 26 13 C23.562 10.125 23.562 10.125 21 8 C20.835 7.835 20.835 7.835 20 7 C18.004 6.832 18.004 6.832 15.562 6.812 C14.759 6.798 13.956 6.784 13.129 6.77 C11 7 11 7 9 9 C8.875 12.125 8.875 12.125 9 15 C8.01 14.34 7.02 13.68 6 13 C6 11.68 6 10.36 6 9 C5.546 9.413 5.546 9.413 3.25 11.5 C0.464 14.033 0.127 14 -4 14 C-3.835 14.33 -3.835 14.33 -3 16 C-1.713 19.861 -1.862 22.942 -2 27 C-2.33 27 -2.66 27 -3 27 C-3.041 25.948 -3.082 24.896 -3.125 23.812 C-4.272 18.815 -5.902 17.877 -10 15 C-9.01 13.68 -8.02 12.36 -7 11 C-4.36 11.33 -1.72 11.66 1 12 C1.143 3.429 1.143 3.429 0 0 Z " fill="#E9CC8B" transform="translate(86,20)"/>
<path d="M0 0 C54.12 0 108.24 0 164 0 C164 61.05 164 122.1 164 185 C109.88 185 55.76 185 0 185 C0.33 184.01 0.66 183.02 1 182 C1.392 182.002 1.392 182.002 3.378 182.011 C22.465 182.099 41.552 182.166 60.639 182.207 C69.869 182.228 79.099 182.256 88.33 182.302 C96.374 182.342 104.418 182.367 112.462 182.376 C116.722 182.382 120.982 182.394 125.242 182.423 C129.251 182.45 133.259 182.458 137.268 182.452 C138.74 182.454 140.213 182.462 141.685 182.477 C143.693 182.497 145.702 182.49 147.711 182.481 C148.273 182.483 148.273 182.483 151.118 182.492 C154 182 154 182 156.363 180.41 C158.594 177.126 158.492 174.91 158.481 170.951 C158.484 170.241 158.488 169.531 158.491 168.8 C158.498 166.421 158.476 164.044 158.454 161.665 C158.453 159.96 158.454 158.255 158.456 156.55 C158.457 151.92 158.433 147.291 158.406 142.661 C158.381 137.823 158.378 132.985 158.373 128.147 C158.361 118.985 158.328 109.823 158.288 100.661 C158.243 90.23 158.221 79.8 158.201 69.37 C158.159 47.913 158.089 26.457 158 5 C154.515 3.93 151.307 3.877 147.673 3.88 C146.371 3.878 145.07 3.877 143.729 3.876 C142.289 3.879 140.849 3.883 139.409 3.886 C137.891 3.887 136.374 3.887 134.856 3.886 C130.736 3.886 126.617 3.892 122.497 3.899 C118.192 3.905 113.886 3.905 109.581 3.907 C101.428 3.91 93.276 3.918 85.123 3.928 C75.841 3.939 66.56 3.945 57.278 3.95 C38.185 3.96 19.093 3.978 0 4 C0 2.68 0 1.36 0 0 Z " fill="#FDFDFC" transform="translate(0,0)"/>
<path d="M0 0 C3.656 0.964 5.577 2.896 8.191 5.578 C8.521 4.918 8.851 4.258 9.191 3.578 C12.772 2.201 16.412 2.241 20.191 2.578 C22.629 4.203 22.629 4.203 24.191 6.578 C24.566 9.703 24.566 9.703 24.191 12.578 C21.424 15.346 19.613 14.942 15.754 15.016 C15.177 15.036 15.177 15.036 12.258 15.137 C9.191 14.578 9.191 14.578 7.281 12.051 C6.922 11.235 6.562 10.419 6.191 9.578 C5.531 10.898 4.871 12.218 4.191 13.578 C3.201 13.578 2.211 13.578 1.191 13.578 C1.191 14.238 1.191 14.898 1.191 15.578 C3.171 14.918 5.151 14.258 7.191 13.578 C7.521 14.073 7.521 14.073 9.191 16.578 C9.851 16.578 10.511 16.578 11.191 16.578 C13.096 34.498 11.804 57.309 3.191 73.578 C2.776 74.983 2.399 76.401 2.066 77.828 C1.922 78.447 1.922 78.447 1.191 81.578 C0.861 81.578 0.531 81.578 0.191 81.578 C0.026 77.783 0.026 77.783 -0.809 58.578 C-1.799 58.578 -2.789 58.578 -3.809 58.578 C-3.846 59.45 -3.883 60.321 -3.922 61.219 C-4.37 69.331 -5.537 76.779 -7.809 84.578 C-8.139 84.578 -8.469 84.578 -8.809 84.578 C-8.864 83.802 -8.919 83.026 -8.976 82.227 C-9.231 78.677 -9.488 75.128 -9.746 71.578 C-9.833 70.357 -9.92 69.137 -10.01 67.879 C-10.457 61.75 -10.964 55.665 -11.809 49.578 C-12.139 49.578 -12.469 49.578 -12.809 49.578 C-13.139 46.608 -13.469 43.638 -13.809 40.578 C-14.613 40.434 -15.417 40.289 -16.246 40.141 C-18.809 39.578 -18.809 39.578 -19.809 38.578 C-20.358 34.546 -20.137 33.023 -17.684 29.703 C-14.809 27.578 -14.809 27.578 -11.684 27.078 C-8.451 27.64 -7.689 27.962 -5.809 30.578 C-5.551 33.426 -5.551 33.426 -5.684 36.641 C-5.893 42.409 -5.893 42.409 -4.809 44.578 C-4.779 41.37 -4.762 38.162 -4.746 34.953 C-4.738 34.049 -4.729 33.146 -4.721 32.215 C-4.704 27.549 -4.84 23.168 -5.809 18.578 C-6.778 18.269 -7.747 17.959 -8.746 17.641 C-11.809 16.578 -11.809 16.578 -12.809 15.578 C-13.403 10.656 -13.37 7.637 -10.371 3.578 C-7.173 0.281 -4.518 -0.336 0 0 Z " fill="#E8CE92" transform="translate(34.80859375,36.421875)"/>
<path d="M0 0 C1.32 0.66 2.64 1.32 4 2 C3.497 6.401 1.912 8.712 -1 12 C-0.835 12.33 -0.835 12.33 0 14 C0.454 20.236 0.454 20.236 -1.188 23 C-3 24 -3 24 -5.5 23.812 C-8 23 -8 23 -11 21 C-11.165 21.825 -11.165 21.825 -12 26 C-12.66 26 -13.32 26 -14 26 C-14.244 26.554 -14.487 27.109 -14.738 27.68 C-16.26 30.478 -18.129 32.695 -20.188 35.125 C-32.085 49.515 -41.805 65.779 -51 82 C-50.685 81.577 -50.685 81.577 -49.094 79.438 C-41.336 69.123 -41.336 69.123 -36.625 64.688 C-34.108 62.295 -32.534 60.383 -31.188 57.188 C-29.39 53.112 -26.591 50.139 -23.5 47 C-23.025 46.507 -22.549 46.013 -22.059 45.505 C-19.076 42.571 -18.373 42 -14 42 C-14.512 46.303 -17.232 49.078 -19.938 52.25 C-20.393 52.804 -20.849 53.359 -21.318 53.93 C-22.496 55.33 -23.743 56.67 -25 58 C-25.66 58 -26.32 58 -27 58 C-26.835 58.66 -26.835 58.66 -26 62 C-26.66 62 -27.32 62 -28 62 C-28.236 62.687 -28.472 63.374 -28.715 64.082 C-30.263 67.598 -32.32 70.592 -34.562 73.688 C-35.003 74.301 -35.443 74.915 -35.897 75.547 C-39.345 80.274 -43.117 84.602 -47.094 88.895 C-51.28 93.518 -53.645 98.327 -56 104 C-56.66 104.99 -57.32 105.98 -58 107 C-60.625 107.188 -60.625 107.188 -63 107 C-63.874 104.56 -64.165 103.414 -63.188 100.965 C-62.796 100.296 -62.404 99.627 -62 98.938 C-60.812 96.902 -60.812 96.902 -60 95 C-60.33 94.01 -60.66 93.02 -61 92 C-60.074 89.957 -60.074 89.957 -58.688 87.812 C-58.238 87.097 -57.788 86.382 -57.324 85.645 C-56.887 85.102 -56.45 84.559 -56 84 C-55.34 84 -54.68 84 -54 84 C-53.888 83.452 -53.776 82.904 -53.66 82.34 C-51.638 74.21 -47.491 67.726 -43.071 60.723 C-41.688 58.499 -40.413 56.218 -39.125 53.938 C-33.593 44.728 -23.705 28.853 -14 24 C-14.082 23.474 -14.082 23.474 -14.5 20.812 C-15.337 14.428 -15.337 14.428 -15 12 C-12.763 9.597 -11.537 9.037 -8.25 8.812 C-7.507 8.874 -6.765 8.936 -6 9 C-5.969 8.722 -5.969 8.722 -5.812 7.312 C-4.666 4.05 -2.506 2.313 0 0 Z " fill="#F6E1AE" transform="translate(113,56)"/>
<path d="M0 0 C0.825 0.165 0.825 0.165 5 1 C4.67 2.65 4.34 4.3 4 6 C4.66 6 5.32 6 6 6 C8.33 9.64 8.386 12.751 8 17 C6.938 18.938 6.938 18.938 5 20 C1.312 20.188 1.312 20.188 -2 20 C-2 20.66 -2 21.32 -2 22 C-0.35 22 1.3 22 3 22 C2.529 24.542 1.989 26.015 0.438 28.125 C-1.162 31.325 -0.971 32.308 -0.625 35.75 C-0.521 39.102 -0.657 40.538 -2.676 43.262 C-4.234 44.761 -5.824 46.228 -7.438 47.668 C-11.826 51.661 -15.325 56.36 -19 61 C-19.781 61.929 -20.562 62.859 -21.367 63.816 C-27.702 71.579 -32.431 79.87 -37.066 88.749 C-37.549 89.672 -38.033 90.596 -38.531 91.547 C-38.96 92.381 -39.388 93.214 -39.83 94.073 C-41 96 -41 96 -43 97 C-42.43 93.354 -41.458 90.718 -39.562 87.562 C-37.558 84.098 -36.243 80.81 -35 77 C-34.314 75.758 -33.604 74.529 -32.875 73.312 C-31 70 -31 70 -31 67 C-31.99 67.99 -32.98 68.98 -34 70 C-33.056 63.583 -30.501 59.501 -26 55 C-24.208 52.409 -22.609 49.708 -21 47 C-19.98 45.291 -18.959 43.583 -17.938 41.875 C-17.435 41.027 -16.932 40.179 -16.414 39.305 C-15 37 -15 37 -12.812 34 C-10.335 29.9 -9.203 25.612 -8 21 C-8.66 20.67 -9.32 20.34 -10 20 C-8 17 -8 17 -5 16 C-5.804 15.691 -6.609 15.381 -7.438 15.062 C-10 14 -10 14 -11 13 C-11.375 10.188 -11.375 10.188 -11 7 C-8.265 3.943 -6.798 3.06 -2.688 2.75 C-2.244 2.791 -2.244 2.791 0 3 C0 2.01 0 1.02 0 0 Z " fill="#E9CD8C" transform="translate(98,37)"/>
<path d="M0 0 C3.875 2.625 3.875 2.625 5 6 C8.875 5.125 8.875 5.125 10 4 C14.356 3.481 18.994 2.981 22.992 5.012 C25.876 7.401 28.709 10.127 29.301 13.938 C29.332 19.41 29.332 19.41 27.875 22 C25.211 23.421 22.965 23.198 20 23 C20.66 24.65 21.32 26.3 22 28 C22.784 27.196 23.567 26.391 24.375 25.562 C27.412 22.597 28.075 22.089 32.25 21.688 C36.737 22.061 38.61 23.073 42 26 C44.891 30.336 45.753 33.824 45 39 C42.659 42.144 41.295 43.784 37.375 44.438 C35 44 35 44 32 42 C31.691 42.639 31.381 43.279 31.062 43.938 C30 46 30 46 29 47 C28.868 48.769 28.77 50.541 28.688 52.312 C28.384 55.798 28.202 57.666 26.375 60.688 C24 62 24 62 20.812 61.625 C16.021 62.096 15.301 63.399 12.188 66.938 C11.439 67.854 10.69 68.771 9.918 69.715 C8 72 8 72 6 73 C7.489 68.399 9.746 65.498 13 62 C13.66 62 14.32 62 15 62 C15.33 60.35 15.66 58.7 16 57 C16.557 57.351 17.114 57.701 17.688 58.062 C20.559 59.227 22.071 58.871 25 58 C26 57 26 57 26.125 53.625 C26 50 26 50 25 47 C25.846 46.278 26.691 45.556 27.562 44.812 C30 42 30 42 29.812 39.188 C29.544 38.466 29.276 37.744 29 37 C26.122 38.29 24.038 39.574 22 42 C21.67 42.99 21.34 43.98 21 45 C18.69 45.743 16.354 46.411 14 47 C13.67 47.33 13.34 47.66 13 48 C13 49.134 13 50.269 13 51.438 C13 55 13 55 12 57 C11.34 57 10.68 57 10 57 C9.403 49.481 10.856 45.26 15 39 C14.01 39.165 14.01 39.165 9 40 C9.33 38.68 9.66 37.36 10 36 C10.557 36.021 10.557 36.021 13.375 36.125 C17 36 17 36 19 34 C19.214 30.155 19.179 26.684 18 23 C17.34 23 16.68 23 16 23 C16 21.35 16 19.7 16 18 C15.01 17.67 14.02 17.34 13 17 C13 16.34 13 15.68 13 15 C17.668 16.64 17.668 16.64 19.5 18.625 C21 20 21 20 23.688 20.188 C24.451 20.126 25.214 20.064 26 20 C26.312 16.813 26.312 16.813 26 13 C23.562 10.125 23.562 10.125 21 8 C20.67 7.67 20.34 7.34 20 7 C18.004 6.832 18.004 6.832 15.562 6.812 C14.759 6.798 13.956 6.784 13.129 6.77 C11 7 11 7 9 9 C8.875 12.125 8.875 12.125 9 15 C8.01 14.34 7.02 13.68 6 13 C6 11.68 6 10.36 6 9 C5.093 9.825 4.185 10.65 3.25 11.5 C0.464 14.033 0.127 14 -4 14 C-3.67 14.66 -3.34 15.32 -3 16 C-1.713 19.861 -1.862 22.942 -2 27 C-2.33 27 -2.66 27 -3 27 C-3.021 26.474 -3.021 26.474 -3.125 23.812 C-4.272 18.815 -5.902 17.877 -10 15 C-9.01 13.68 -8.02 12.36 -7 11 C-4.36 11.33 -1.72 11.66 1 12 C1.143 3.429 1.143 3.429 0 0 Z " fill="#DCBC7B" transform="translate(86,20)"/>
<path d="M0 0 C2 1.625 2 1.625 3 4 C2.673 10.327 2.673 10.327 0 13 C-2.344 12.749 -4.68 12.414 -7 12 C-10.498 12 -12.83 15.047 -15.375 17.25 C-15.953 17.741 -16.53 18.232 -17.125 18.738 C-20.21 21.38 -23.174 24.077 -26 27 C-25.518 26.639 -25.036 26.278 -24.539 25.906 C-23.907 25.442 -23.276 24.978 -22.625 24.5 C-21.999 24.036 -21.372 23.572 -20.727 23.094 C-19 22 -19 22 -17 22 C-17.475 26.273 -19.843 28.274 -23 31 C-23.757 31.267 -24.513 31.534 -25.293 31.809 C-28.839 33.369 -31.312 35.784 -34.062 38.438 C-37.255 41.47 -40.397 44.451 -44 47 C-39.896 46.482 -38.043 44.354 -35.25 41.438 C-34.451 40.611 -33.652 39.785 -32.828 38.934 C-32.526 38.615 -32.526 38.615 -31 37 C-30.67 37.66 -30.34 38.32 -30 39 C-30.762 40.076 -31.524 41.153 -32.309 42.262 C-33.352 43.737 -34.395 45.212 -35.438 46.688 C-35.983 47.458 -36.529 48.229 -37.091 49.023 C-39.999 53.139 -42.877 57.272 -45.709 61.442 C-53.482 72.858 -53.482 72.858 -58 77 C-58.66 77 -59.32 77 -60 77 C-58.651 73.163 -56.922 70.348 -54.375 67.188 C-53.743 66.397 -53.112 65.607 -52.461 64.793 C-51.979 64.201 -51.497 63.61 -51 63 C-53.368 65.303 -55.492 67.584 -57.438 70.25 C-60 73 -60 73 -62.812 73.375 C-63.173 73.313 -63.173 73.313 -65 73 C-63.193 67.759 -60.056 63.953 -56.68 59.621 C-55 57 -55 57 -55 53 C-53.453 50.984 -53.453 50.984 -51.25 48.75 C-47.143 44.392 -43.585 39.839 -40.062 35 C-31.612 23.562 -22.02 14.593 -10 7 C-9.34 7 -8.68 7 -8 7 C-8.875 2.25 -8.875 2.25 -10 0 C-6.205 -1.265 -3.876 -0.9 0 0 Z " fill="#F3DDA9" transform="translate(120,94)"/>
<path d="M0 0 C3.656 0.964 5.577 2.896 8.191 5.578 C8.521 4.918 8.851 4.258 9.191 3.578 C12.772 2.201 16.412 2.241 20.191 2.578 C22.629 4.203 22.629 4.203 24.191 6.578 C24.566 9.703 24.566 9.703 24.191 12.578 C21.424 15.346 19.613 14.942 15.754 15.016 C15.177 15.036 15.177 15.036 12.258 15.137 C9.191 14.578 9.191 14.578 7.281 12.051 C6.922 11.235 6.562 10.419 6.191 9.578 C5.531 10.898 4.871 12.218 4.191 13.578 C3.201 13.578 2.211 13.578 1.191 13.578 C1.191 14.238 1.191 14.898 1.191 15.578 C1.851 15.578 2.511 15.578 3.191 15.578 C3.24 15.891 3.24 15.891 3.488 17.477 C3.638 18.294 3.787 19.111 3.941 19.953 C4.081 20.765 4.22 21.577 4.363 22.414 C5.191 24.578 5.191 24.578 7.27 25.867 C7.904 26.102 8.538 26.336 9.191 26.578 C7.871 26.908 6.551 27.238 5.191 27.578 C5.287 28.459 5.382 29.339 5.48 30.246 C5.591 31.408 5.702 32.569 5.816 33.766 C5.932 34.914 6.048 36.063 6.168 37.246 C6.192 40.611 5.666 42.59 4.191 45.578 C3.861 45.578 3.531 45.578 3.191 45.578 C2.861 50.198 2.531 54.818 2.191 59.578 C1.531 59.578 0.871 59.578 0.191 59.578 C0.191 58.588 0.191 57.598 0.191 56.578 C-0.799 56.578 -1.789 56.578 -2.809 56.578 C-2.809 51.298 -2.809 46.018 -2.809 40.578 C-3.139 40.578 -3.469 40.578 -3.809 40.578 C-3.869 39.493 -3.93 38.407 -3.992 37.289 C-4.077 35.844 -4.161 34.398 -4.246 32.953 C-4.285 32.24 -4.325 31.527 -4.365 30.793 C-4.612 26.66 -5.043 22.655 -5.809 18.578 C-6.778 18.269 -7.747 17.959 -8.746 17.641 C-11.809 16.578 -11.809 16.578 -12.809 15.578 C-13.403 10.656 -13.37 7.637 -10.371 3.578 C-7.173 0.281 -4.518 -0.336 0 0 Z " fill="#E0C280" transform="translate(34.80859375,36.421875)"/>
<path d="M0 0 C3.21 2.675 3.144 3.704 3.562 7.75 C3.824 12.79 3.824 12.79 2.625 15.188 C-0.015 14.858 -2.655 14.527 -5.375 14.188 C-6.125 15.938 -6.125 15.938 -6.375 18.188 C-5.736 18.724 -5.096 19.26 -4.438 19.812 C-1.543 23.145 -2.018 25.766 -2.137 30.043 C-2.375 32.188 -2.375 32.188 -3.375 33.188 C-7.407 33.45 -8.934 33.482 -12.375 31.188 C-13.551 31.023 -14.726 30.858 -15.938 30.688 C-19.375 30.188 -19.375 30.188 -21.375 28.188 C-21.5 25.062 -21.5 25.062 -21.375 22.188 C-23.025 22.517 -24.675 22.847 -26.375 23.188 C-26.705 21.538 -27.035 19.888 -27.375 18.188 C-26.571 17.816 -25.766 17.445 -24.938 17.062 C-22.375 15.188 -22.375 15.188 -21.562 12 C-21.501 11.072 -21.439 10.144 -21.375 9.188 C-20.385 9.188 -19.395 9.188 -18.375 9.188 C-16.188 6.688 -16.188 6.688 -14.375 4.188 C-14.705 3.527 -15.035 2.867 -15.375 2.188 C-10.183 -1.589 -6.108 -1.47 0 0 Z " fill="#F0DBAC" transform="translate(84.375,16.8125)"/>
<path d="M0 0 C0.33 0 0.66 0 1 0 C1.33 3.3 1.66 6.6 2 10 C1.01 9.67 0.02 9.34 -1 9 C-0.835 9.99 -0.67 10.98 -0.5 12 C0.937 23.787 0.001 35.346 -2 47 C-2.256 48.566 -2.512 50.133 -2.766 51.699 C-4.857 64.501 -4.857 64.501 -6 70 C-1.25 72.875 -1.25 72.875 1 74 C1 73.01 1 72.02 1 71 C3.886 71.398 4.822 71.79 6.75 74.062 C6.956 74.382 6.956 74.382 8 76 C6.35 75.67 4.7 75.34 3 75 C3.33 75.99 3.66 76.98 4 78 C4.949 78.103 5.898 78.206 6.875 78.312 C10 79 10 79 12 82 C14.68 82.914 14.68 82.914 17.875 83.625 C18.924 83.865 19.974 84.105 21.055 84.352 C22.027 84.566 22.999 84.78 24 85 C24.668 85.171 25.335 85.343 26.023 85.52 C28.582 86.141 31.158 86.6 33.75 87.062 C34.735 87.239 35.72 87.416 36.734 87.598 C37.482 87.73 38.23 87.863 39 88 C39.233 87.465 39.467 86.93 39.707 86.379 C41.379 83.303 43.515 80.666 45.688 77.938 C49.53 73.034 52.987 68.029 56.262 62.723 C59.284 57.989 62.647 53.502 66 49 C63.233 51.157 60.808 53.211 58.438 55.812 C57.633 56.534 56.829 57.256 56 58 C53.848 57.637 53.848 57.637 52 57 C54.417 54.816 56.837 52.636 59.262 50.461 C60.939 48.954 62.61 47.44 64.27 45.914 C67.762 42.749 70.527 40.615 75 39 C77.716 36.661 78.857 35.43 80 32 C76.7 34.31 73.4 36.62 70 39 C69.34 38.67 68.68 38.34 68 38 C74.79 31.701 81.68 25.685 89 20 C89.66 20.33 90.32 20.66 91 21 C90.669 21.248 90.669 21.248 88.996 22.504 C82.182 27.987 82.182 27.987 81.625 31.09 C81.938 33 81.938 33 83 36 C82.443 36.389 81.886 36.779 81.312 37.18 C71.471 44.395 65.329 53.725 59 64 C57.217 66.807 55.425 69.609 53.633 72.41 C52.585 74.071 51.557 75.745 50.555 77.434 C50.124 78.157 49.694 78.88 49.25 79.625 C48.884 80.257 48.518 80.888 48.141 81.539 C47 83 47 83 44 84 C44 84.66 44 85.32 44 86 C41.259 88.808 39.72 89.938 35.766 90.277 C28.754 89.6 22.548 88.59 16 86 C14.845 85.67 13.69 85.34 12.5 85 C11.675 84.67 10.85 84.34 10 84 C9.67 83.01 9.34 82.02 9 81 C8.278 81.103 7.556 81.206 6.812 81.312 C2.856 80.873 1.662 78.862 -1 76 C-2.646 74.966 -4.31 73.959 -6 73 C-8 71 -8 71 -8.082 68.418 C-7.506 61.509 -6.475 54.976 -4.719 48.266 C-2.761 39.369 -2.877 30.514 -2.938 21.438 C-2.94 20.79 -2.94 20.79 -2.951 17.514 C-2.963 14.342 -2.979 11.171 -3 8 C-2.01 7.67 -1.02 7.34 0 7 C0 4.69 0 2.38 0 0 Z " fill="#D3B16D" transform="translate(23,84)"/>
<path d="M0 0 C3.875 2.625 3.875 2.625 5 6 C8.875 5.125 8.875 5.125 10 4 C14.356 3.481 18.994 2.981 22.992 5.012 C25.876 7.401 28.709 10.127 29.301 13.938 C29.332 19.41 29.332 19.41 27.875 22 C25.243 23.404 22.939 23.064 20 23 C20.384 23.82 20.768 24.64 21.164 25.484 C21.646 26.562 22.128 27.64 22.625 28.75 C22.869 29.284 22.869 29.284 24.102 31.984 C25 35 25 35 24.305 37.219 C22.435 39.771 20.349 41.886 18 44 C17.34 44 16.68 44 16 44 C16 44.66 16 45.32 16 46 C15.01 46.66 14.02 47.32 13 48 C12.875 51.5 12.875 51.5 13 55 C12.67 55.66 12.34 56.32 12 57 C11.34 57 10.68 57 10 57 C9.403 49.481 10.856 45.26 15 39 C14.01 39.165 14.01 39.165 9 40 C9.33 38.68 9.66 37.36 10 36 C10.557 36.021 10.557 36.021 13.375 36.125 C17 36 17 36 19 34 C19.214 30.155 19.179 26.684 18 23 C17.34 23 16.68 23 16 23 C16 21.35 16 19.7 16 18 C15.01 17.67 14.02 17.34 13 17 C13 16.34 13 15.68 13 15 C17.668 16.64 17.668 16.64 19.5 18.625 C21 20 21 20 23.688 20.188 C24.451 20.126 25.214 20.064 26 20 C26.312 16.813 26.312 16.813 26 13 C23.562 10.125 23.562 10.125 21 8 C20.67 7.67 20.34 7.34 20 7 C18.004 6.832 18.004 6.832 15.562 6.812 C14.759 6.798 13.956 6.784 13.129 6.77 C11 7 11 7 9 9 C8.875 12.125 8.875 12.125 9 15 C8.01 14.34 7.02 13.68 6 13 C6 11.68 6 10.36 6 9 C5.093 9.825 4.185 10.65 3.25 11.5 C0.464 14.033 0.127 14 -4 14 C-3.67 14.66 -3.34 15.32 -3 16 C-1.713 19.861 -1.862 22.942 -2 27 C-2.33 27 -2.66 27 -3 27 C-3.021 26.474 -3.021 26.474 -3.125 23.812 C-4.272 18.815 -5.902 17.877 -10 15 C-9.01 13.68 -8.02 12.36 -7 11 C-4.36 11.33 -1.72 11.66 1 12 C1.143 3.429 1.143 3.429 0 0 Z " fill="#DDBF83" transform="translate(86,20)"/>
<path d="M0 0 C0.33 0 0.66 0 1 0 C1.538 8.726 0.437 16.294 -1.859 24.691 C-3.109 29.276 -4.059 33.906 -5 38.562 C-6.688 46.809 -8.764 54.886 -11 63 C-11.685 65.663 -12.346 68.33 -13 71 C-12.34 71.33 -11.68 71.66 -11 72 C-12.32 75.63 -13.64 79.26 -15 83 C-16.65 83 -18.3 83 -20 83 C-20.226 77.901 -19.606 74.199 -17.812 69.438 C-15.152 62.044 -13.414 54.534 -11.788 46.853 C-10.71 41.832 -9.4 37.043 -7.714 32.193 C-6.519 28.522 -5.734 24.774 -4.938 21 C-4.613 19.5 -4.289 18 -3.965 16.5 C-3.807 15.765 -3.65 15.03 -3.488 14.273 C-2.976 11.89 -2.462 9.507 -1.941 7.125 C-1.863 6.765 -1.863 6.765 -1.467 4.945 C-1 3 -1 3 0 0 Z " fill="#FDF7DE" transform="translate(47,71)"/>
<path d="M0 0 C0.934 3.01 1.044 3.867 0 7 C0.99 6.67 1.98 6.34 3 6 C3.369 12.523 3.369 12.523 1.5 14.938 C1.252 15.113 1.252 15.113 0 16 C-0.33 15.67 -0.66 15.34 -1 15 C-1.66 16.98 -2.32 18.96 -3 21 C-6.375 20.453 -8.082 19.945 -11 18 C-11 19.32 -11 20.64 -11 22 C-10.01 21.67 -9.02 21.34 -8 21 C-8.798 24.401 -9.933 27.601 -11.188 30.863 C-11.707 32.229 -12.208 33.601 -12.688 34.98 C-14.565 40.325 -17.14 45.117 -20 50 C-20.33 50 -20.66 50 -21 50 C-20.556 44.119 -19.156 39.211 -17.035 33.711 C-14.587 27.3 -12.986 20.87 -11.5 14.189 C-10.613 10.298 -9.626 6.666 -8 3 C-6.35 3 -4.7 3 -3 3 C-3 3.99 -3 4.98 -3 6 C-2.01 4.02 -1.02 2.04 0 0 Z " fill="#EACE91" transform="translate(83,49)"/>
<path d="M0 0 C3.537 0.063 5.509 0.557 8.25 2.812 C11.318 6.034 11.719 6.55 11.875 11 C11.75 14.438 11.75 14.438 10.75 15.438 C8.562 15.812 8.562 15.812 5.75 15.438 C3.729 13.796 1.73 12.128 -0.25 10.438 C-3.125 9.625 -3.125 9.625 -5.25 9.438 C-5.25 10.758 -5.25 12.078 -5.25 13.438 C-12.679 15.58 -12.679 15.58 -16.25 16.438 C-18.874 13.376 -19.25 12.706 -19.25 8.438 C-18.301 8.169 -17.353 7.901 -16.375 7.625 C-13.25 6.438 -13.25 6.438 -11.25 3.438 C-10.59 3.438 -9.93 3.438 -9.25 3.438 C-8.59 4.758 -7.93 6.078 -7.25 7.438 C-7.126 6.654 -7.002 5.87 -6.875 5.062 C-5.852 0.768 -4.128 0.119 0 0 Z " fill="#F9EAC2" transform="translate(101.25,25.5625)"/>
<path d="M0 0 C1.487 3.867 0.34 6.203 -1 10 C-1.375 12.327 -1.719 14.66 -2 17 C-0.35 17 1.3 17 3 17 C3.182 16.276 3.364 15.551 3.551 14.805 C4.922 9.532 6.307 4.745 9 0 C10.242 3.726 9.548 4.792 8.125 8.375 C6.73 11.917 5.642 15.243 5 19 C6.65 18.67 8.3 18.34 10 18 C10.266 17.145 10.531 16.291 10.805 15.41 C11.158 14.305 11.511 13.201 11.875 12.062 C12.223 10.96 12.571 9.858 12.93 8.723 C14 6 14 6 16 5 C15.487 9.356 14.64 12.954 13 17 C13 18.32 13 19.64 13 21 C13.99 21.66 14.98 22.32 16 23 C15.67 23.66 15.34 24.32 15 25 C16.98 25.66 18.96 26.32 21 27 C17.306 28.231 14.794 27.644 11 27 C11 27.66 11 28.32 11 29 C9.02 29 7.04 29 5 29 C4.67 28.01 4.34 27.02 4 26 C2.02 26 0.04 26 -2 26 C-2.66 24.68 -3.32 23.36 -4 22 C-2.68 22 -1.36 22 0 22 C-2 19 -2 19 -5 18 C-5 18.99 -5 19.98 -5 21 C-10.75 19.25 -10.75 19.25 -13 17 C-12.625 14.875 -12.625 14.875 -12 13 C-12 13.66 -12 14.32 -12 15 C-9.69 15 -7.38 15 -5 15 C-4.723 14.001 -4.446 13.002 -4.16 11.973 C-3.794 10.669 -3.429 9.366 -3.062 8.062 C-2.88 7.403 -2.698 6.744 -2.51 6.064 C-1.113 1.113 -1.113 1.113 0 0 Z " fill="#EFD294" transform="translate(29,137)"/>
<path d="M0 0 C0.825 0.165 0.825 0.165 5 1 C5.164 5.28 4.709 8.626 3.375 12.688 C3.009 13.826 2.643 14.964 2.266 16.137 C2.063 16.756 1.86 17.375 1.65 18.013 C0.454 21.669 -0.711 25.334 -1.875 29 C-2.128 29.794 -2.382 30.588 -2.643 31.407 C-4.864 38.432 -6.887 45.509 -8.82 52.619 C-10.479 58.596 -12.593 64.284 -15 70 C-15.33 70 -15.66 70 -16 70 C-16.409 64.576 -15.001 60.671 -13 55.75 C-10 48.209 -10 48.209 -10 46 C-10.403 46.953 -10.806 47.905 -11.222 48.886 C-12.734 52.46 -14.248 56.032 -15.762 59.605 C-16.414 61.144 -17.065 62.683 -17.717 64.222 C-21.083 72.176 -24.452 80.125 -28 88 C-28.66 87.67 -29.32 87.34 -30 87 C-27.67 81.332 -25.336 75.666 -23 70 C-22.584 68.989 -22.167 67.979 -21.738 66.938 C-19.829 62.328 -17.888 57.734 -15.902 53.156 C-8.895 36.988 -2.749 20.977 2 4 C1.01 4.33 0.02 4.66 -1 5 C-0.67 3.35 -0.34 1.7 0 0 Z " fill="#FBEDC8" transform="translate(68,49)"/>
<path d="M0 0 C-0.652 6.089 -2.261 11.677 -4.125 17.5 C-4.436 18.475 -4.746 19.449 -5.066 20.454 C-7.345 27.416 -10.097 33.898 -13.328 40.461 C-15.036 44.077 -16.46 47.742 -17.812 51.5 C-20.382 58.585 -23.269 65.516 -26.25 72.438 C-26.687 73.464 -27.124 74.49 -27.573 75.547 C-27.988 76.499 -28.402 77.452 -28.828 78.434 C-29.198 79.29 -29.569 80.147 -29.95 81.029 C-31 83 -31 83 -33 84 C-32.408 79.168 -31.623 74.6 -30 70 C-29.505 69.67 -29.505 69.67 -27 68 C-26.128 66.239 -26.128 66.239 -25.422 64.098 C-25.287 63.699 -25.287 63.699 -24.604 61.682 C-24.322 60.817 -24.04 59.953 -23.75 59.062 C-23.129 57.22 -22.507 55.377 -21.883 53.535 C-21.569 52.602 -21.254 51.669 -20.931 50.708 C-19.578 46.773 -18.1 42.89 -16.625 39 C-14.461 33.256 -12.482 27.469 -10.629 21.617 C-10.426 20.978 -10.224 20.34 -10.015 19.681 C-9.004 16.484 -8.006 13.284 -7.02 10.078 C-6.656 8.915 -6.293 7.753 -5.918 6.555 C-5.596 5.508 -5.274 4.461 -4.942 3.382 C-3.788 0.463 -3.115 0 0 0 Z " fill="#FDF7DE" transform="translate(70,53)"/>
<path d="M0 0 C0.165 0.495 0.165 0.495 1 3 C0.374 3.687 -0.253 4.374 -0.898 5.082 C-1.716 5.983 -2.533 6.884 -3.375 7.812 C-4.187 8.706 -4.999 9.599 -5.836 10.52 C-8 13 -8 13 -10 16 C-10.66 16 -11.32 16 -12 16 C-11.835 16.66 -11.835 16.66 -11 20 C-11.66 20 -12.32 20 -13 20 C-13.236 20.687 -13.472 21.374 -13.715 22.082 C-15.263 25.598 -17.32 28.592 -19.562 31.688 C-20.003 32.301 -20.443 32.915 -20.897 33.547 C-24.345 38.274 -28.117 42.602 -32.094 46.895 C-36.28 51.518 -38.645 56.327 -41 62 C-41.66 62.99 -42.32 63.98 -43 65 C-45.625 65.188 -45.625 65.188 -48 65 C-47.67 64.835 -47.67 64.835 -46 64 C-46 63.34 -46 62.68 -46 62 C-45.34 62 -44.68 62 -44 62 C-43.938 61.154 -43.876 60.309 -43.812 59.438 C-42.92 55.662 -41.579 53.798 -39.258 50.793 C-38 49 -38 49 -36.5 45.375 C-34.827 41.611 -32.927 39.868 -30 37 C-28.313 35.017 -26.646 33.017 -25 31 C-22.538 27.984 -20.165 25.153 -17.312 22.5 C-15 20 -15 20 -14.102 17.148 C-12.537 12.675 -9.646 9.973 -6.375 6.625 C-5.764 5.984 -5.153 5.344 -4.523 4.684 C-3.024 3.114 -1.513 1.556 0 0 Z " fill="#F8E3AF" transform="translate(98,98)"/>
<path d="M0 0 C1.65 0.33 3.3 0.66 5 1 C4.67 2.65 4.34 4.3 4 6 C4.66 6 5.32 6 6 6 C8.33 9.64 8.386 12.751 8 17 C6.812 18.938 6.812 18.938 5 20 C2.625 20.438 2.625 20.438 0 20 C-1.707 18.719 -3.374 17.382 -5 16 C-6.648 15.288 -8.312 14.61 -10 14 C-11 13 -11 13 -11.375 10.188 C-11 7 -11 7 -8.875 4.625 C-5.608 2.778 -3.692 2.657 0 3 C0 2.01 0 1.02 0 0 Z " fill="#F8EAC5" transform="translate(98,37)"/>
<path d="M0 0 C0.33 0 0.66 0 1 0 C0.538 5.926 -1.286 9.845 -4.25 14.938 C-7.916 21.473 -10.536 27.831 -12.415 35.086 C-12.862 36.748 -13.422 38.379 -14 40 C-14.495 40.165 -14.495 40.165 -17 41 C-16.67 39.02 -16.34 37.04 -16 35 C-22.107 45.447 -22.107 45.447 -23.062 50.188 C-24.053 54.214 -25.513 56.708 -27.879 60.043 C-29 62 -29 62 -29.469 64.379 C-30.112 67.554 -31.373 69.919 -32.938 72.75 C-33.462 73.714 -33.987 74.678 -34.527 75.672 C-36 78 -36 78 -38 79 C-37.43 75.354 -36.458 72.718 -34.562 69.562 C-32.558 66.098 -31.243 62.81 -30 59 C-29.314 57.758 -28.604 56.529 -27.875 55.312 C-26 52 -26 52 -26 49 C-26.99 49.99 -27.98 50.98 -29 52 C-28.056 45.583 -25.501 41.501 -21 37 C-19.208 34.409 -17.609 31.708 -16 29 C-14.98 27.291 -13.959 25.583 -12.938 23.875 C-12.435 23.027 -11.932 22.179 -11.414 21.305 C-10 19 -10 19 -7.812 16 C-5.335 11.9 -4.203 7.612 -3 3 C-3.66 2.67 -4.32 2.34 -5 2 C-4.01 1.67 -3.02 1.34 -2 1 C-1.34 1.33 -0.68 1.66 0 2 C0 1.34 0 0.68 0 0 Z " fill="#FBEEC9" transform="translate(93,55)"/>
<path d="M0 0 C0.66 0 1.32 0 2 0 C2.086 0.767 2.171 1.533 2.26 2.323 C2.649 5.799 3.043 9.275 3.438 12.75 C3.572 13.957 3.707 15.163 3.846 16.406 C3.978 17.566 4.11 18.727 4.246 19.922 C4.306 20.456 4.306 20.456 4.611 23.159 C5 26 5 26 5.597 28.157 C6.184 30.841 5.331 33.072 4.614 35.668 C3.458 40.059 2.706 44.538 1.875 49 C1.693 49.966 1.511 50.931 1.324 51.926 C0.881 54.283 0.439 56.642 0 59 C0.66 59.33 1.32 59.66 2 60 C-0.31 59.67 -2.62 59.34 -5 59 C-4.678 56.749 -4.357 54.498 -4.034 52.247 C-3.759 50.312 -3.485 48.378 -3.214 46.443 C-2.643 42.394 -2.063 38.359 -1.355 34.332 C0.607 22.966 0.184 11.494 0 0 Z " fill="#F7E7BB" transform="translate(22,93)"/>
<path d="M0 0 C0.66 0.33 1.32 0.66 2 1 C1.894 5.893 0.841 8.53 -2.098 12.453 C-6.334 18.344 -9.871 24.528 -13.375 30.875 C-13.699 31.459 -14.023 32.044 -14.357 32.646 C-20.183 43.17 -25.332 53.914 -30 65 C-30.577 66.349 -31.155 67.698 -31.734 69.047 C-31.943 69.534 -31.943 69.534 -33 72 C-34.311 68.395 -33.701 66.598 -32.121 63.168 C-31.909 62.691 -31.909 62.691 -30.836 60.28 C-30.374 59.259 -29.913 58.239 -29.438 57.188 C-25.269 47.664 -22.165 38.257 -19.802 28.137 C-19.696 27.683 -19.696 27.683 -19.156 25.383 C-18.979 24.582 -18.802 23.782 -18.619 22.958 C-18 21 -18 21 -16 19 C-15 21 -15 21 -15.559 23.242 C-15.849 24.111 -16.139 24.98 -16.438 25.875 C-17.566 29.265 -18 31.343 -18 35 C-14.864 29.722 -12.614 24.951 -11 19 C-9.406 14.969 -7.713 10.982 -6 7 C-6.66 7.33 -6.66 7.33 -10 9 C-9.67 7.35 -9.34 5.7 -9 4 C-8.237 4.33 -7.474 4.66 -6.688 5 C-4 6 -4 6 -1 6 C-0.67 4.02 -0.34 2.04 0 0 Z " fill="#F1D9A1" transform="translate(81,63)"/>
<path d="M0 0 C0.99 0.33 1.98 0.66 3 1 C2.611 1.398 2.223 1.796 1.823 2.206 C0.059 4.023 -1.689 5.855 -3.438 7.688 C-4.049 8.313 -4.661 8.939 -5.291 9.584 C-8.634 13.112 -10.172 15.154 -11 20 C-13.25 22.438 -13.25 22.438 -16 25 C-17.687 26.983 -19.354 28.983 -21 31 C-23.467 34.022 -25.895 36.898 -28.684 39.629 C-30.757 41.751 -31.888 43.266 -33.062 45.938 C-34.282 48.57 -35.472 50.695 -37.125 53.125 C-39.023 56.036 -40.049 58.673 -41 62 C-41.66 62 -42.32 62 -43 62 C-43 62.66 -43 63.32 -43 64 C-43.99 64 -44.98 64 -46 64 C-42.616 48.62 -29.213 34.365 -19 23 C-16.384 20.063 -14.139 17.268 -12.312 13.75 C-9.375 8.281 -4.455 4.226 0 0 Z " fill="#FCF6D8" transform="translate(95,98)"/>
<path d="M0 0 C3.169 1.936 5.422 3.373 6.699 6.969 C7.287 10.358 7.288 12.499 5.562 15.5 C5.047 15.995 4.531 16.49 4 17 C1.188 16.812 1.188 16.812 -2 16 C-3.038 14.357 -4.036 12.688 -5 11 C-8.188 9.188 -8.188 9.188 -11 8 C-11.48 2.596 -11.48 2.596 -9.438 0.062 C-5.849 -1.502 -3.748 -1.034 0 0 Z " fill="#F2DEAE" transform="translate(122,45)"/>
<path d="M0 0 C0.66 0.33 1.32 0.66 2 1 C0.35 2.98 -1.3 4.96 -3 7 C-2.67 7 -2.34 7 -2 7 C-1.672 9.77 -1.672 9.77 -2 13 C-4.203 14.949 -4.203 14.949 -7.25 16.688 C-18.457 23.631 -27.005 32.562 -35 43 C-35 39.368 -33.986 37.897 -32.125 34.812 C-31.591 33.911 -31.058 33.01 -30.508 32.082 C-30.01 31.395 -29.513 30.708 -29 30 C-28.34 30 -27.68 30 -27 30 C-27.268 29.443 -27.536 28.886 -27.812 28.312 C-27.874 27.549 -27.936 26.786 -28 26 C-25.812 23.5 -25.812 23.5 -23 21 C-22.237 20.237 -21.474 19.474 -20.688 18.688 C-20.131 18.131 -19.574 17.574 -19 17 C-18.34 17.33 -17.68 17.66 -17 18 C-18.65 19.98 -20.3 21.96 -22 24 C-21.34 24 -20.68 24 -20 24 C-19.888 23.729 -19.888 23.729 -19.324 22.359 C-17.579 19.25 -15.247 16.821 -12.812 14.25 C-11.822 13.188 -10.833 12.126 -9.844 11.062 C-9.36 10.544 -8.877 10.026 -8.379 9.492 C-5.514 6.392 -2.755 3.197 0 0 Z " fill="#DEBE78" transform="translate(114,88)"/>
<path d="M0 0 C3.662 0.319 6.291 0.938 9 3.562 C9.312 7.25 9.312 7.25 9 10.562 C6.253 11.478 3.86 11.58 1 11.5 C-2.189 11.446 -4.277 11.747 -7 13.562 C-7.99 12.903 -8.98 12.242 -10 11.562 C-9.473 5.588 -6.406 0.242 0 0 Z " fill="#F5E1B1" transform="translate(52,21.4375)"/>
<path d="M0 0 C0.66 0.33 0.66 0.33 4 2 C5.274 5.822 5.124 9.407 5.098 13.387 C5.096 14.204 5.095 15.021 5.093 15.863 C5.088 18.471 5.075 21.079 5.062 23.688 C5.057 25.456 5.053 27.225 5.049 28.994 C5.038 33.329 5.021 37.665 5 42 C4.34 42 3.68 42 3 42 C3 41.01 3 40.02 3 39 C2.01 39 1.02 39 0 39 C0 26.13 0 13.26 0 0 Z " fill="#FCF3D6" transform="translate(32,54)"/>
<path d="M0 0 C1.32 0 2.64 0 4 0 C4.793 9.662 2.709 16.888 -1 25.75 C-1.477 26.936 -1.954 28.122 -2.445 29.344 C-3.612 32.237 -4.797 35.122 -6 38 C-6.33 38 -6.66 38 -7 38 C-7.304 31.094 -6.177 24.437 -5.125 17.625 C-4.951 16.425 -4.777 15.225 -4.598 13.988 C-4.424 12.85 -4.25 11.712 -4.07 10.539 C-3.913 9.5 -3.756 8.46 -3.594 7.389 C-3.398 6.601 -3.202 5.812 -3 5 C-2.34 4.67 -1.68 4.34 -1 4 C-0.375 1.938 -0.375 1.938 0 0 Z " fill="#EBD092" transform="translate(54,70)"/>
<path d="M0 0 C0.33 0 0.66 0 1 0 C1.33 3.3 1.66 6.6 2 10 C1.01 9.67 0.02 9.34 -1 9 C-0.835 9.99 -0.67 10.98 -0.5 12 C0.937 23.787 0.001 35.346 -2 47 C-2.256 48.566 -2.512 50.133 -2.766 51.699 C-4.857 64.501 -4.857 64.501 -6 70 C-1.25 72.875 -1.25 72.875 1 74 C1 73.01 1 72.02 1 71 C3.886 71.398 4.822 71.79 6.75 74.062 C6.956 74.382 6.956 74.382 8 76 C7.237 75.794 6.474 75.588 5.688 75.375 C3 75 3 75 0 77 C-5.75 73.25 -5.75 73.25 -8 71 C-8.246 63.268 -6.666 55.706 -4.719 48.266 C-2.761 39.369 -2.877 30.514 -2.938 21.438 C-2.94 20.79 -2.94 20.79 -2.951 17.514 C-2.963 14.342 -2.979 11.171 -3 8 C-2.01 7.67 -1.02 7.34 0 7 C0 4.69 0 2.38 0 0 Z " fill="#E1C68B" transform="translate(23,84)"/>
<path d="M0 0 C2.438 1.625 2.438 1.625 4 4 C4.375 7.125 4.375 7.125 4 10 C2 12 2 12 -0.969 12.266 C-2.134 12.26 -3.299 12.255 -4.5 12.25 C-5.665 12.255 -6.831 12.26 -8.031 12.266 C-11 12 -11 12 -13 10 C-13.5 7.688 -13.5 7.688 -13 5 C-8.945 0.549 -6.216 -1.036 0 0 Z " fill="#F2DDAC" transform="translate(55,39)"/>
<path d="M0 0 C0.66 0.66 1.32 1.32 2 2 C1.578 2.459 1.157 2.918 0.723 3.391 C0.449 3.697 0.449 3.697 -0.938 5.25 C-1.483 5.853 -2.028 6.457 -2.59 7.078 C-4.062 9.085 -4.575 10.57 -5 13 C-4.34 12.67 -3.68 12.34 -3 12 C-6.519 19.332 -10.535 25.019 -16 31 C-20.616 36.147 -24.937 41.404 -29 47 C-29 43.746 -28.573 42.938 -26.91 40.262 C-26.46 39.531 -26.01 38.8 -25.546 38.047 C-25.057 37.269 -24.567 36.49 -24.062 35.688 C-23.563 34.883 -23.063 34.078 -22.547 33.25 C-21.039 30.828 -19.52 28.414 -18 26 C-17.194 24.707 -16.388 23.414 -15.582 22.121 C-10.757 14.443 -5.55 7.164 0 0 Z " fill="#E6CA89" transform="translate(91,92)"/>
<path d="M0 0 C2 1.625 2 1.625 3 4 C2.673 10.327 2.673 10.327 0 13 C-2.344 12.749 -4.68 12.414 -7 12 C-9.625 12 -10.536 12.952 -12.625 14.5 C-13.257 14.964 -13.888 15.428 -14.539 15.906 C-15.021 16.267 -15.503 16.628 -16 17 C-14.664 11.497 -14.664 11.497 -13 9 C-10.375 7.75 -10.375 7.75 -8 7 C-8.875 2.25 -8.875 2.25 -10 0 C-6.205 -1.265 -3.876 -0.9 0 0 Z " fill="#E8CC8D" transform="translate(120,94)"/>
<path d="M0 0 C1.65 0 3.3 0 5 0 C4.336 3.767 2.613 6.512 0.625 9.75 C-1.455 13.222 -3.318 16.459 -4.562 20.312 C-6.25 24.641 -8.526 27.903 -12 31 C-12.66 31 -13.32 31 -14 31 C-12.726 23.204 -9.769 17.264 -5.875 10.438 C-5.593 9.933 -5.593 9.933 -4.168 7.381 C-2.789 4.915 -1.399 2.455 0 0 Z " fill="#F5DEAA" transform="translate(96,59)"/>
<path d="M0 0 C0.66 0.33 1.32 0.66 2 1 C1.339 1.496 0.677 1.993 -0.004 2.504 C-6.818 7.987 -6.818 7.987 -7.375 11.09 C-7.062 13 -7.062 13 -6 16 C-6.296 16.224 -6.296 16.224 -7.793 17.355 C-15.034 22.895 -15.034 22.895 -17.812 25.875 C-20 28 -20 28 -21.855 28.344 C-25.789 29.547 -28.099 33.178 -30.781 36.164 C-31.513 36.77 -32.246 37.376 -33 38 C-35.281 37.773 -35.281 37.773 -37 37 C-34.583 34.816 -32.163 32.636 -29.738 30.461 C-28.061 28.954 -26.39 27.44 -24.73 25.914 C-21.238 22.749 -18.473 20.615 -14 19 C-11.284 16.661 -10.143 15.43 -9 12 C-12.3 14.31 -15.6 16.62 -19 19 C-19.66 18.67 -20.32 18.34 -21 18 C-14.21 11.701 -7.32 5.685 0 0 Z " fill="#DEC180" transform="translate(112,104)"/>
<path d="M0 0 C3.812 0.5 3.812 0.5 5.812 2.5 C5.938 5.125 5.938 5.125 5.812 7.5 C5.153 7.5 4.492 7.5 3.812 7.5 C3.483 8.16 3.153 8.82 2.812 9.5 C-0.783 11.543 -4.059 13.028 -8.188 13.5 C-9.188 12.5 -9.188 12.5 -9.562 9.812 C-8.907 4.019 -5.99 0.153 0 0 Z " fill="#FDFBF0" transform="translate(33.1875,38.5)"/>
<path d="M0 0 C3.345 0.182 6.011 0.426 8.938 2.125 C10.626 5.105 10.299 7.654 10 11 C9.67 11.495 9.67 11.495 8 14 C5.586 14.422 5.586 14.422 3 14 C1.164 12.391 1.164 12.391 -0.375 10.25 C-0.898 9.554 -1.422 8.858 -1.961 8.141 C-3 6 -3 6 -2.789 3.859 C-2 2 -2 2 0 0 Z " fill="#F4E2B5" transform="translate(120,71)"/>
<path d="M0 0 C0.557 0.474 1.114 0.949 1.688 1.438 C4 3 4 3 6.625 3.5 C9 4 9 4 11 7 C14.004 7.914 14.004 7.914 17.562 8.625 C23.92 9.92 23.92 9.92 25 11 C27.263 11.316 29.536 11.553 31.812 11.75 C32.434 11.809 32.434 11.809 35.582 12.109 C39.238 11.992 40.433 11.509 43 9 C42.67 10.65 42.34 12.3 42 14 C38.958 14.027 35.917 14.047 32.875 14.062 C32.019 14.071 31.163 14.079 30.281 14.088 C25.733 14.105 21.476 13.932 17 13 C17 12.34 17 11.68 17 11 C16.093 11.062 15.185 11.124 14.25 11.188 C10.534 10.973 9.861 10.167 7 8 C3.25 7.312 3.25 7.312 0 7 C-0.381 5.009 -0.713 3.007 -1 1 C-0.67 0.67 -0.34 0.34 0 0 Z " fill="#F0E1C0" transform="translate(23,161)"/>
<path d="M0 0 C0.33 0 0.66 0 1 0 C0.538 5.926 -1.286 9.845 -4.25 14.938 C-7.916 21.473 -10.536 27.831 -12.415 35.086 C-12.862 36.748 -13.422 38.379 -14 40 C-14.495 40.165 -14.495 40.165 -17 41 C-15.568 31.685 -12.831 24.39 -8.203 16.207 C-5.918 12.015 -3.942 7.708 -3 3 C-3.66 2.67 -4.32 2.34 -5 2 C-4.01 1.67 -3.02 1.34 -2 1 C-1.34 1.33 -0.68 1.66 0 2 C0 1.34 0 0.68 0 0 Z " fill="#F3DDA6" transform="translate(93,55)"/>
<path d="M0 0 C0.66 0 1.32 0 2 0 C2.66 1.32 3.32 2.64 4 4 C4.33 2.68 4.66 1.36 5 0 C5 0.66 5 1.32 5 2 C5.99 2.33 6.98 2.66 8 3 C8 3.99 8 4.98 8 6 C7.34 6 6.68 6 6 6 C6 7.32 6 8.64 6 10 C-1.429 12.143 -1.429 12.143 -5 13 C-7.624 9.939 -8 9.268 -8 5 C-7.051 4.732 -6.103 4.464 -5.125 4.188 C-2 3 -2 3 0 0 Z " fill="#EED294" transform="translate(90,29)"/>
<path d="M0 0 C4.295 2.466 4.295 2.466 6 5 C6.739 8.147 6.688 10.847 6 14 C4.312 16.562 4.312 16.562 2 18 C-0.5 18.25 -0.5 18.25 -3 18 C-4.32 18 -5.64 18 -7 18 C-7.66 18 -8.32 18 -9 18 C-8.34 15.69 -7.68 13.38 -7 11 C-7.547 11.33 -7.547 11.33 -10.312 13 C-12.937 14.585 -13.826 15 -17 15 C-16.526 14.66 -16.526 14.66 -14.125 12.938 C-10.667 10.095 -10.043 7.333 -9 3 C-6.652 -0.639 -4.128 -0.647 0 0 Z M-7.875 3.25 C-9 5 -9 5 -8.711 6.875 C-7.524 10.422 -5.617 13.332 -3 16 C-0.312 16.625 -0.312 16.625 2 16 C4.488 12.267 4.542 10.416 4 6 C1.55 3.27 -0.001 2.166 -3.625 1.562 C-6 2 -6 2 -7.875 3.25 Z " fill="#D8BA79" transform="translate(126,69)"/>
<path d="M0 0 C1.095 3.248 0.932 4.883 -0.438 8 C-1.794 11.115 -2 12.392 -2 16 C-1.01 16.66 -0.02 17.32 1 18 C0.67 18.66 0.34 19.32 0 20 C1.98 20.66 3.96 21.32 6 22 C2.306 23.231 -0.206 22.644 -4 22 C-4 22.66 -4 23.32 -4 24 C-5.98 24 -7.96 24 -10 24 C-10 23.01 -10 22.02 -10 21 C-8.68 21.33 -7.36 21.66 -6 22 C-7.521 20.479 -9.275 19.28 -11 18 C-10.25 16.062 -10.25 16.062 -9 14 C-8.359 13.916 -7.719 13.832 -7.059 13.746 C-6.379 13.5 -5.7 13.254 -5 13 C-3.77 10.312 -3.77 10.312 -2.812 7 C-1.052 1.052 -1.052 1.052 0 0 Z " fill="#F3D99E" transform="translate(44,142)"/>
<path d="M0 0 C0.402 0.01 0.402 0.01 2.438 0.062 C2.438 2.043 2.438 4.022 2.438 6.062 C1.447 5.733 0.457 5.403 -0.562 5.062 C-0.233 6.052 0.097 7.043 0.438 8.062 C1.229 17.374 0.745 30.102 -4.562 38.062 C-4.807 31.092 -4.031 24.508 -3 17.613 C-2.428 12.973 -2.443 8.873 -3.125 4.25 C-3.269 3.198 -3.414 2.146 -3.562 1.062 C-2.562 0.062 -2.562 0.062 0 0 Z " fill="#FAEEC7" transform="translate(42.5625,62.9375)"/>
<path d="M0 0 C0.99 0.66 1.98 1.32 3 2 C3.328 4.934 3.328 4.934 3.25 8.438 C3.235 9.591 3.219 10.745 3.203 11.934 C3 15 3 15 2 18 C1.34 18 0.68 18 0 18 C0.33 15.69 0.66 13.38 1 11 C-0.98 11.66 -2.96 12.32 -5 13 C-5.33 12.34 -5.66 11.68 -6 11 C-6.99 11 -7.98 11 -9 11 C-9.66 14.3 -10.32 17.6 -11 21 C-11.33 21 -11.66 21 -12 21 C-12 18.03 -12 15.06 -12 12 C-12.99 12.33 -13.98 12.66 -15 13 C-15.33 11.68 -15.66 10.36 -16 9 C-17.98 9.66 -19.96 10.32 -22 11 C-22 10.34 -22 9.68 -22 9 C-21.01 9 -20.02 9 -19 9 C-18.876 8.381 -18.752 7.763 -18.625 7.125 C-18 5 -18 5 -16 3 C-15.34 4.98 -14.68 6.96 -14 9 C-11.854 9.027 -9.708 9.046 -7.562 9.062 C-6.965 9.068 -6.965 9.068 -3.941 9.098 C-1 9 -1 9 0 8 C0.071 6.648 0.084 5.292 0.062 3.938 C0.042 2.638 0.021 1.339 0 0 Z " fill="#DEBC78" transform="translate(58,41)"/>
<path d="M0 0 C0.66 0 1.32 0 2 0 C3.242 6.601 3.184 13.053 3.188 19.75 C3.2 20.975 3.212 22.199 3.225 23.461 C3.236 30.557 2.759 37.115 1 44 C0.34 44 -0.32 44 -1 44 C-1.028 42.542 -1.047 41.083 -1.062 39.625 C-1.074 38.813 -1.086 38.001 -1.098 37.164 C-1.017 34.543 -0.795 32.038 -0.5 29.438 C0.134 23.412 0.11 17.428 0.062 11.375 C0.058 10.275 0.053 9.176 0.049 8.043 C0.037 5.362 0.021 2.681 0 0 Z " fill="#FCF6DA" transform="translate(22,93)"/>
<path d="M0 0 C0.66 0.33 1.32 0.66 2 1 C1.866 7.186 -0.501 10.587 -4.148 15.488 C-5.858 17.808 -7.384 20.161 -8.875 22.625 C-9.576 23.739 -10.278 24.852 -11 26 C-11.33 26 -11.66 26 -12 26 C-11.529 19.089 -8.794 13.278 -6 7 C-6.66 7.33 -6.66 7.33 -10 9 C-9.67 7.35 -9.34 5.7 -9 4 C-8.618 4.165 -8.618 4.165 -6.688 5 C-4 6 -4 6 -1 6 C-0.67 4.02 -0.34 2.04 0 0 Z " fill="#ECCD8E" transform="translate(81,63)"/>
<path d="M0 0 C0.66 0 1.32 0 2 0 C1.202 3.401 0.067 6.601 -1.188 9.863 C-1.707 11.229 -2.208 12.601 -2.688 13.98 C-4.565 19.325 -7.14 24.117 -10 29 C-10.33 29 -10.66 29 -11 29 C-10.207 18.489 -6.403 8.433 0 0 Z " fill="#FBEFC7" transform="translate(73,70)"/>
<path d="M0 0 C1.916 2.873 2.292 3.775 2.633 7.012 C2.717 7.769 2.8 8.526 2.887 9.307 C2.965 10.092 3.044 10.878 3.125 11.688 C3.211 12.485 3.298 13.282 3.387 14.104 C3.598 16.068 3.8 18.034 4 20 C4.33 15.05 4.66 10.1 5 5 C5.33 5 5.66 5 6 5 C8.52 15.213 5.878 26.119 3 36 C2.67 36 2.34 36 2 36 C1.661 31.688 1.33 27.375 1 23.062 C0.905 21.85 0.809 20.638 0.711 19.389 C0.219 12.903 -0.112 6.504 0 0 Z " fill="#EED59B" transform="translate(24,85)"/>
<path d="M0 0 C0.66 0 1.32 0 2 0 C3.12 5.489 2.792 8.834 1 14 C0.34 14 -0.32 14 -1 14 C-1.66 15.65 -2.32 17.3 -3 19 C-4.98 18.34 -6.96 17.68 -9 17 C-8.441 13.757 -7.587 12.069 -5 10 C-4.34 10 -3.68 10 -3 10 C-2.938 9.546 -2.938 9.546 -2.625 7.25 C-2.079 4.41 -1.427 2.474 0 0 Z " fill="#EBD198" transform="translate(63,50)"/>
<path d="M0 0 C0.99 0.66 1.98 1.32 3 2 C2.34 3.65 1.68 5.3 1 7 C-3.62 7 -8.24 7 -13 7 C-12.67 5.35 -12.34 3.7 -12 2 C-8.163 -0.37 -4.417 -0.327 0 0 Z " fill="#FDFBEF" transform="translate(82,19)"/>
<path d="M0 0 C4.87 2.435 7.187 4.863 9 10 C9.635 14.523 9.566 16.24 6.812 19.938 C3.8 22.147 2.627 22.518 -1 22 C1 20 1 20 3.062 19.25 C5 18 5 18 5.875 15.188 C6.013 11.662 5.823 10.012 4 7 C1.312 4.625 1.312 4.625 -2 3 C-5.875 3.25 -5.875 3.25 -9 4 C-9.66 5.65 -10.32 7.3 -11 9 C-11.66 7.68 -12.32 6.36 -13 5 C-8.601 0.454 -6.471 -0.539 0 0 Z " fill="#DFC48A" transform="translate(122,42)"/>
<path d="M0 0 C0.907 0.003 1.815 0.005 2.75 0.008 C3.204 0.007 3.204 0.007 5.5 0 C7.75 0.133 7.75 0.133 8.75 1.133 C8.875 4.133 8.875 4.133 8.75 7.133 C7.75 8.133 7.75 8.133 4.5 8.32 C1.018 8.146 -1.152 7.635 -4.25 6.133 C-3.183 0.188 -3.183 0.188 0 0 Z " fill="#FDFBEE" transform="translate(92.25,40.8671875)"/>
<path d="M0 0 C2 1 2 1 3.562 4.625 C4.082 6.789 4.082 6.789 4 9 C2.113 11.888 -0.173 14.033 -3 16 C-3.66 16 -4.32 16 -5 16 C-5 16.66 -5 17.32 -5 18 C-5.99 18.66 -6.98 19.32 -8 20 C-8.125 23.5 -8.125 23.5 -8 27 C-8.33 27.66 -8.66 28.32 -9 29 C-9.66 29 -10.32 29 -11 29 C-11.578 21.719 -10.546 16.851 -6 11 C-5.093 10.484 -4.185 9.969 -3.25 9.438 C-1 8 -1 8 -0.465 6.055 C-0.216 4.046 -0.099 2.022 0 0 Z " fill="#E3C584" transform="translate(107,48)"/>
<path d="M0 0 C0.495 0.33 0.495 0.33 3 2 C4.011 2.144 5.021 2.289 6.062 2.438 C7.032 2.623 8.001 2.809 9 3 C9.33 3.495 9.33 3.495 11 6 C13.68 6.914 13.68 6.914 16.875 7.625 C17.924 7.865 18.974 8.105 20.055 8.352 C21.027 8.566 21.999 8.78 23 9 C23.67 9.183 24.341 9.366 25.031 9.555 C28.485 10.336 32.014 10.454 35.539 10.719 C38 11 38 11 40 12 C38 14 38 14 35.059 14.082 C27.893 13.549 21.674 12.639 15 10 C13.845 9.67 12.69 9.34 11.5 9 C10.675 8.67 9.85 8.34 9 8 C8.67 7.01 8.34 6.02 8 5 C7.237 5.062 6.474 5.124 5.688 5.188 C3 5 3 5 1.188 3.625 C0 2 0 2 0 0 Z " fill="#CEAD66" transform="translate(24,160)"/>
<path d="M0 0 C0.66 0.33 1.32 0.66 2 1 C0.35 2.98 -1.3 4.96 -3 7 C-2.67 7 -2.34 7 -2 7 C-1.438 9.625 -1.438 9.625 -2 13 C-4.772 15.399 -7.807 17.213 -11 19 C-11.99 18.34 -12.98 17.68 -14 17 C-12.704 14.171 -11.308 12.03 -9.18 9.766 C-8.645 9.192 -8.11 8.618 -7.559 8.027 C-7.003 7.441 -6.447 6.854 -5.875 6.25 C-5.312 5.648 -4.748 5.046 -4.168 4.426 C-2.783 2.947 -1.392 1.473 0 0 Z " fill="#E4C98D" transform="translate(114,88)"/>
<path d="M0 0 C-0.33 2.64 -0.66 5.28 -1 8 C-1.701 8.227 -2.403 8.454 -3.125 8.688 C-6.693 10.317 -9.065 12.406 -12 15 C-12.66 14.34 -13.32 13.68 -14 13 C-13.883 9.959 -12.9 8.891 -10.82 6.641 C-9.931 5.852 -9.041 5.063 -8.125 4.25 C-7.683 3.85 -7.683 3.85 -5.445 1.828 C-3 0 -3 0 0 0 Z " fill="#F1D9A4" transform="translate(119,80)"/>
<path d="M0 0 C0.66 0 1.32 0 2 0 C0.667 2.667 -0.667 5.333 -2 8 C-1.34 8.33 -0.68 8.66 0 9 C0 9.66 0 10.32 0 11 C-0.99 11 -1.98 11 -3 11 C-3 11.66 -3 12.32 -3 13 C-4.979 14.364 -6.982 15.694 -9 17 C-10.875 18.75 -10.875 18.75 -12 20 C-12.99 19.67 -13.98 19.34 -15 19 C-13.393 15.15 -10.894 12.527 -8.062 9.5 C-3.23 4.319 -3.23 4.319 -1.309 1.656 C-0.877 1.11 -0.445 0.563 0 0 Z " fill="#F2D79A" transform="translate(103,81)"/>
<path d="M0 0 C1.98 1.18 1.98 1.18 4 3 C4.426 5.445 4.426 5.445 4.312 8.125 C4.288 9.014 4.264 9.904 4.238 10.82 C4 13 4 13 3 14 C-1.032 14.263 -2.559 14.294 -6 12 C-8.324 11.606 -10.658 11.265 -13 11 C-13 10.01 -13 9.02 -13 8 C-7.375 7.75 -7.375 7.75 -4 10 C-3.01 9.67 -2.02 9.34 -1 9 C0 2.25 0 2.25 0 0 Z " fill="#F2DAA5" transform="translate(78,36)"/>
<path d="M0 0 C1.125 5.75 1.125 5.75 0 8 C-3.63 8 -7.26 8 -11 8 C-11 3 -11 3 -9.438 1.188 C-6.196 -0.392 -3.557 -0.205 0 0 Z " fill="#FDFAED" transform="translate(75,35)"/>
<path d="M0 0 C0.66 0.33 1.32 0.66 2 1 C2 1.66 2 2.32 2 3 C-2.673 6.533 -7.999 10 -14 10 C-13.592 6.463 -11.905 3.873 -9.602 1.199 C-6.546 -1.089 -3.671 -0.421 0 0 Z " fill="#FDFAE8" transform="translate(56,22)"/>
<path d="M0 0 C3 2 3 2 4.188 5.5 C5.151 10.436 5.213 15.362 5.25 20.375 C5.259 21.172 5.269 21.97 5.278 22.791 C5.257 26.701 5.215 28.677 3 32 C2.945 31.41 2.889 30.82 2.832 30.212 C2.579 27.537 2.321 24.862 2.062 22.188 C1.975 21.259 1.888 20.33 1.799 19.373 C1.712 18.48 1.625 17.588 1.535 16.668 C1.457 15.846 1.378 15.024 1.297 14.177 C1 12 1 12 0 9 C-0.067 7.439 -0.085 5.875 -0.062 4.312 C-0.053 3.504 -0.044 2.696 -0.035 1.863 C-0.024 1.248 -0.012 0.634 0 0 Z " fill="#FCF4D4" transform="translate(24,76)"/>
<path d="M0 0 C0.99 0.33 1.98 0.66 3 1 C2.611 1.398 2.223 1.796 1.823 2.206 C0.059 4.023 -1.689 5.855 -3.438 7.688 C-4.049 8.313 -4.661 8.939 -5.291 9.584 C-8.562 13.035 -10.387 15.161 -11 20 C-12.806 22.026 -14.804 23.365 -17 25 C-17.33 24.01 -17.66 23.02 -18 22 C-16.719 20.293 -15.374 18.634 -14 17 C-13.464 15.948 -12.927 14.896 -12.375 13.812 C-9.391 8.329 -4.482 4.251 0 0 Z " fill="#FCF0C9" transform="translate(95,98)"/>
<path d="M0 0 C1.362 0.961 2.699 1.959 4 3 C6.75 3.688 6.75 3.688 9 4 C9 4.33 9 4.66 9 5 C3.471 5.251 3.471 5.251 1.125 4 C-2.209 2.431 -5.451 2.185 -9 3 C-11.429 4.794 -12.364 6.342 -14 9 C-14 10.32 -14 11.64 -14 13 C-12 14.75 -12 14.75 -10 16 C-11.32 16.33 -12.64 16.66 -14 17 C-16.523 14.477 -16.991 13.248 -17.125 9.625 C-15.636 4.827 -13.054 2.79 -9 0 C-5.849 -1.576 -3.374 -0.698 0 0 Z " fill="#E3C98E" transform="translate(57,20)"/>
<path d="M0 0 C1.32 0.66 2.64 1.32 4 2 C3.711 5.373 2.927 7.107 1 9.938 C-2 12 -2 12 -4.332 11.867 C-6.609 11.358 -8.793 10.755 -11 10 C-11 9.67 -11 9.34 -11 9 C-9.35 9 -7.7 9 -6 9 C-5.938 8.443 -5.876 7.886 -5.812 7.312 C-4.666 4.05 -2.506 2.313 0 0 Z " fill="#EACE91" transform="translate(113,56)"/>
<path d="M0 0 C1.354 2.709 1.065 5.009 1 8 C-2.3 8 -5.6 8 -9 8 C-9.33 6.35 -9.66 4.7 -10 3 C-6.682 -0.063 -4.448 -0.303 0 0 Z " fill="#FDFAE8" transform="translate(54,39)"/>
<path d="M0 0 C3.656 0.964 5.577 2.896 8.191 5.578 C8.521 4.918 8.851 4.258 9.191 3.578 C9.191 4.568 9.191 5.558 9.191 6.578 C8.201 6.908 7.211 7.238 6.191 7.578 C5.004 10.141 5.004 10.141 4.191 12.578 C2.211 12.578 0.231 12.578 -1.809 12.578 C-0.819 12.248 0.171 11.918 1.191 11.578 C1.521 10.588 1.851 9.598 2.191 8.578 C2.851 8.908 3.511 9.238 4.191 9.578 C3.531 7.598 2.871 5.618 2.191 3.578 C-3.013 3.144 -3.013 3.144 -5.809 3.578 C-8.598 6.22 -10.256 9.084 -11.809 12.578 C-12.684 10.516 -12.684 10.516 -12.809 7.578 C-9.942 1.891 -6.348 -0.473 0 0 Z " fill="#E2C588" transform="translate(34.80859375,36.421875)"/>
<path d="M0 0 C1.32 0.33 2.64 0.66 4 1 C3.506 1.759 3.013 2.519 2.504 3.301 C2.184 3.798 2.184 3.798 0.562 6.312 C-0.076 7.299 -0.714 8.285 -1.371 9.301 C-3 12 -3 12 -4 15 C-3.34 15.33 -2.68 15.66 -2 16 C-3.785 18.173 -5.577 20.338 -7.375 22.5 C-7.883 23.12 -8.391 23.74 -8.914 24.379 C-10.232 25.957 -11.612 27.483 -13 29 C-13.66 29 -14.32 29 -15 29 C-13.329 24.24 -10.756 21.02 -7.559 17.184 C-5.991 14.987 -5.582 13.582 -5 11 C-3.771 8.901 -2.423 6.916 -1.059 4.902 C0 3 0 3 0 0 Z " fill="#F0D79D" transform="translate(75,142)"/>
<path d="M0 0 C1.65 0 3.3 0 5 0 C5 0.99 5 1.98 5 3 C5.66 3 6.32 3 7 3 C7.66 3.66 8.32 4.32 9 5 C10.32 5 11.64 5 13 5 C12.938 6.093 12.876 7.186 12.812 8.312 C13.018 12.355 13.256 12.495 16 15 C15.688 17.188 15.688 17.188 15 19 C15 18.01 15 17.02 15 16 C13 17 13 17 11 20 C10.986 19.241 10.972 18.481 10.957 17.699 C10.565 9.533 10.565 9.533 7.812 6.938 C7.348 6.783 7.348 6.783 5 6 C3.907 5.608 2.814 5.216 1.688 4.812 C0.801 4.544 -0.086 4.276 -1 4 C-0.67 2.68 -0.34 1.36 0 0 Z " fill="#E8CB8C" transform="translate(50,34)"/>
<path d="M0 0 C0.803 -0.026 1.606 -0.052 2.434 -0.078 C2.785 -0.024 2.785 -0.024 4.562 0.25 C6.714 3.478 6.763 4.534 6.562 8.25 C1.848 7.771 -2.103 7.282 -6.438 5.25 C-5.378 0.558 -4.839 0.093 0 0 Z " fill="#FCF8E3" transform="translate(101.4375,25.75)"/>
<path d="M0 0 C3.488 2.209 4.731 4.086 6 8 C5.34 8 4.68 8 4 8 C3.794 8.804 3.588 9.609 3.375 10.438 C2.921 11.283 2.468 12.129 2 13 C-1.125 13.812 -1.125 13.812 -4 14 C-3.67 14.66 -3.34 15.32 -3 16 C-1.713 19.861 -1.862 22.942 -2 27 C-2.33 27 -2.66 27 -3 27 C-3.021 26.474 -3.021 26.474 -3.125 23.812 C-4.272 18.815 -5.902 17.877 -10 15 C-9.01 13.68 -8.02 12.36 -7 11 C-4.36 11.33 -1.72 11.66 1 12 C1.143 3.429 1.143 3.429 0 0 Z " fill="#DCB771" transform="translate(86,20)"/>
<path d="M0 0 C0.33 0.66 0.66 1.32 1 2 C-0.021 3.167 -1.042 4.333 -2.062 5.5 C-2.702 6.232 -3.341 6.964 -4 7.719 C-5.265 9.161 -6.535 10.6 -7.812 12.031 C-11.798 16.515 -15.476 21.146 -19 26 C-19 21.504 -16.599 18.669 -14.25 14.938 C-13.807 14.205 -13.363 13.472 -12.906 12.717 C-12.687 12.366 -12.687 12.366 -11.578 10.59 C-11.18 9.949 -10.782 9.308 -10.372 8.648 C-8.775 6.73 -7.232 6.06 -5 5 C-4.317 3.675 -3.649 2.342 -3 1 C-2.01 0.67 -1.02 0.34 0 0 Z " fill="#E7CA8A" transform="translate(81,113)"/>
<path d="M0 0 C1.32 0 2.64 0 4 0 C3.572 8.274 0.956 15.333 -2 23 C-2.33 23 -2.66 23 -3 23 C-2.484 15.212 -1.551 7.651 0 0 Z " fill="#F8E8BC" transform="translate(54,70)"/>
<path d="M0 0 C0.66 1.65 1.32 3.3 2 5 C-0.171 7.171 -1.158 7.486 -4.062 8.188 C-4.419 8.277 -4.419 8.277 -6.223 8.73 C-6.809 8.819 -7.396 8.908 -8 9 C-9 8 -9 8 -9.25 5.625 C-9 3 -9 3 -7.875 1.188 C-5.225 -0.491 -3.068 -0.205 0 0 Z " fill="#F5E2B4" transform="translate(26,66)"/>
<path d="M0 0 C0.66 0.33 1.32 0.66 2 1 C1.67 2.65 1.34 4.3 1 6 C-2.553 7.149 -3.8 7.087 -7.312 5.562 C-8.199 5.047 -9.086 4.531 -10 4 C-9.625 2.062 -9.625 2.062 -9 0 C-5.909 -1.545 -3.322 -0.593 0 0 Z " fill="#FCF6DF" transform="translate(122,45)"/>
<path d="M0 0 C0.33 0 0.66 0 1 0 C1.061 0.82 1.121 1.64 1.184 2.484 C1.267 3.562 1.351 4.64 1.438 5.75 C1.519 6.817 1.6 7.885 1.684 8.984 C2 12 2 12 2.562 14.168 C3.177 16.74 2.639 19.056 2.25 21.637 C1.86 25.32 2.031 28.983 2.16 32.68 C2 35 2 35 0 37 C-0.33 34.69 -0.66 32.38 -1 30 C-1.66 30 -2.32 30 -3 30 C-3 29.01 -3 28.02 -3 27 C-3.99 26.67 -4.98 26.34 -6 26 C-4.68 25.67 -3.36 25.34 -2 25 C-2 25.99 -2 26.98 -2 28 C-1.34 28 -0.68 28 0 28 C0 18.76 0 9.52 0 0 Z " fill="#F3DEAA" transform="translate(37,68)"/>
<path d="M0 0 C0.33 0.99 0.66 1.98 1 3 C2.75 4 2.75 4 5 5 C5.804 5.536 6.609 6.072 7.438 6.625 C10.273 8.146 11.834 8.342 15 8 C15.66 7.67 16.32 7.34 17 7 C17.625 8.875 17.625 8.875 18 11 C16 13 16 13 13.688 13.375 C10.164 12.883 8.682 11.28 6 9 C4.352 8.288 2.688 7.61 1 7 C0 6 0 6 -0.062 2.938 C-0.042 1.968 -0.021 0.999 0 0 Z " fill="#F6E2B0" transform="translate(87,44)"/>
<path d="M0 0 C3.875 0.875 3.875 0.875 5 2 C5.041 3.666 5.043 5.334 5 7 C4.34 7 3.68 7 3 7 C2.67 7.66 2.34 8.32 2 9 C-1.626 11.06 -4.872 12.393 -9 13 C-9.33 12.01 -9.66 11.02 -10 10 C-6.629 8.502 -4.796 8 -1 8 C-0.67 5.36 -0.34 2.72 0 0 Z " fill="#F8E6B9" transform="translate(34,39)"/>
<path d="M0 0 C0.66 0 1.32 0 2 0 C-0.425 8.859 -2.675 14.303 -10 20 C-8.796 12.176 -4.915 6.143 0 0 Z " fill="#FDF9E2" transform="translate(56,134)"/>
<path d="M0 0 C2.64 0 5.28 0 8 0 C8.33 2.31 8.66 4.62 9 7 C6.812 7.75 6.812 7.75 4 8 C1.188 6.062 1.188 6.062 -1 4 C-0.67 2.68 -0.34 1.36 0 0 Z " fill="#FCF8E5" transform="translate(100,66)"/>
<path d="M0 0 C0.66 0.66 1.32 1.32 2 2 C1.157 2.976 0.314 3.952 -0.555 4.957 C-1.662 6.242 -2.768 7.527 -3.875 8.812 C-4.431 9.455 -4.986 10.098 -5.559 10.76 C-6.094 11.382 -6.629 12.004 -7.18 12.645 C-7.426 12.93 -7.426 12.93 -8.671 14.374 C-12 18.447 -12 18.447 -12 22 C-13.938 24.4 -14.994 24.998 -18 26 C-17.398 22.886 -16.441 20.934 -14.5 18.438 C-13.969 17.752 -13.438 17.066 -12.891 16.359 C-9.946 12.684 -6.96 9.043 -3.953 5.418 C-2 3 -2 3 0 0 Z " fill="#EFD599" transform="translate(77,130)"/>
<path d="M0 0 C0.66 0.33 1.32 0.66 2 1 C2.25 7.625 2.25 7.625 0 11 C-2.438 11.5 -2.438 11.5 -5 11 C-8 6.966 -8 6.966 -8 5 C-6.02 5 -4.04 5 -2 5 C-2 4.34 -2 3.68 -2 3 C-1.34 3 -0.68 3 0 3 C0 2.01 0 1.02 0 0 Z " fill="#EFD8A5" transform="translate(128,74)"/>
<path d="M0 0 C0.99 0 1.98 0 3 0 C4.25 7.625 4.25 7.625 2 11 C-0.125 11.688 -0.125 11.688 -2 12 C-2 11.34 -2 10.68 -2 10 C-5.3 10 -8.6 10 -12 10 C-12 8.35 -12 6.7 -12 5 C-11.67 5.99 -11.34 6.98 -11 8 C-7.37 8 -3.74 8 0 8 C0 5.36 0 2.72 0 0 Z " fill="#FAEDC5" transform="translate(75,35)"/>
<path d="M0 0 C0.66 0 1.32 0 2 0 C0.665 3.671 -1.037 6.859 -3.098 10.156 C-4 12 -4 12 -4.438 14.359 C-5.113 17.529 -6.372 19.918 -7.938 22.75 C-8.462 23.714 -8.987 24.678 -9.527 25.672 C-11 28 -11 28 -13 29 C-12.43 25.354 -11.458 22.718 -9.562 19.562 C-8.083 17.003 -6.939 14.817 -6 12 C-4.563 7.689 -2.28 3.916 0 0 Z " fill="#F7E2AC" transform="translate(68,105)"/>
<path d="M0 0 C1.65 0.33 3.3 0.66 5 1 C5.229 5.717 4.462 9.397 3 13.875 C2.629 15.027 2.257 16.18 1.875 17.367 C1.586 18.236 1.297 19.105 1 20 C-1 17 -1 17 -0.793 14.879 C-0.593 14.114 -0.393 13.35 -0.188 12.562 C0.005 11.801 0.197 11.039 0.395 10.254 C0.594 9.51 0.794 8.766 1 8 C1.335 6.667 1.669 5.334 2 4 C1.01 4.33 0.02 4.66 -1 5 C-0.67 3.35 -0.34 1.7 0 0 Z " fill="#F6E4B5" transform="translate(68,49)"/>
<path d="M0 0 C0.33 0 0.66 0 1 0 C-1.841 21.779 -1.841 21.779 -7 26 C-6.411 20.106 -5.227 14.721 -3.5 9.062 C-3.274 8.296 -3.049 7.53 -2.816 6.74 C-1.14 1.14 -1.14 1.14 0 0 Z " fill="#E3C483" transform="translate(72,57)"/>
<path d="M0 0 C1.65 0 3.3 0 5 0 C5 0.99 5 1.98 5 3 C5.66 2.67 6.32 2.34 7 2 C6.67 4.31 6.34 6.62 6 9 C3.69 9 1.38 9 -1 9 C-1.125 2.25 -1.125 2.25 0 0 Z " fill="#F1D8A0" transform="translate(75,52)"/>
<path d="M0 0 C1.32 0.66 2.64 1.32 4 2 C4 4.64 4 7.28 4 10 C2.418 10.082 0.834 10.139 -0.75 10.188 C-1.632 10.222 -2.513 10.257 -3.422 10.293 C-6.492 9.944 -7.81 9.15 -10 7 C-10.25 4.312 -10.25 4.312 -10 2 C-9.284 2.651 -9.284 2.651 -5.703 5.906 C-4 7 -4 7 0 7 C0 4.69 0 2.38 0 0 Z " fill="#F6E5BC" transform="translate(108,66)"/>
<path d="M0 0 C2 2 2 2 2 4 C1.01 3.67 0.02 3.34 -1 3 C-2.518 2.884 -4.04 2.825 -5.562 2.812 C-6.348 2.798 -7.133 2.784 -7.941 2.77 C-10 3 -10 3 -12 5 C-12.125 8.125 -12.125 8.125 -12 11 C-12.99 10.34 -13.98 9.68 -15 9 C-15 7.68 -15 6.36 -15 5 C-15.66 4.67 -16.32 4.34 -17 4 C-11.777 -0.517 -6.792 -0.954 0 0 Z " fill="#E1C488" transform="translate(107,24)"/>
<path d="M0 0 C6.36 0.48 6.36 0.48 9 2.625 C10.441 6.048 9.856 8.446 9 12 C7 14 7 14 4.375 14.125 C3.591 14.084 2.808 14.043 2 14 C2 13.34 2 12.68 2 12 C3.32 11.67 4.64 11.34 6 11 C6 8.69 6 6.38 6 4 C4.02 3.34 2.04 2.68 0 2 C0 1.34 0 0.68 0 0 Z " fill="#E0C286" transform="translate(113,93)"/>
<path d="M0 0 C0.33 0.66 0.66 1.32 1 2 C1.578 2.289 2.155 2.578 2.75 2.875 C5.515 4.257 7.693 5.95 10 8 C10 8.66 10 9.32 10 10 C10.99 10.33 11.98 10.66 13 11 C12.01 11.33 11.02 11.66 10 12 C9.67 12.66 9.34 13.32 9 14 C8.814 13.618 8.814 13.618 7.875 11.688 C5.637 8.48 3.558 7.502 0 6 C0 4.02 0 2.04 0 0 Z " fill="#F1D9A2" transform="translate(111,47)"/>
<path d="M0 0 C2 2 2 2 2.188 5.562 C2 9 2 9 1 10 C-1.375 10.312 -1.375 10.312 -4 10 C-5.812 8 -5.812 8 -7 6 C-6.031 5.381 -5.061 4.763 -4.062 4.125 C-1 2 -1 2 0 0 Z " fill="#F4E0B3" transform="translate(111,31)"/>
<path d="M0 0 C0.99 0 1.98 0 3 0 C7 4.343 7 4.343 7 7 C6.196 7.309 5.391 7.619 4.562 7.938 C2 9 2 9 1 10 C-0.666 10.041 -2.334 10.043 -4 10 C-3.526 9.464 -3.051 8.928 -2.562 8.375 C-0.718 5.572 -0.375 3.304 0 0 Z " fill="#FBF6E7" transform="translate(63,26)"/>
<path d="M0 0 C1.32 0.33 2.64 0.66 4 1 C4.081 2.77 4.139 4.541 4.188 6.312 C4.222 7.299 4.257 8.285 4.293 9.301 C4 12 4 12 2.488 13.855 C1.997 14.233 1.506 14.611 1 15 C-0.095 11.715 -0.1 9.263 -0.062 5.812 C-0.053 4.726 -0.044 3.639 -0.035 2.52 C-0.024 1.688 -0.012 0.857 0 0 Z " fill="#FCF5D9" transform="translate(48,55)"/>
<path d="M0 0 C3.438 1.5 3.438 1.5 6 3 C5.67 3.495 5.67 3.495 4 6 C3.01 5.34 2.02 4.68 1 4 C-2.278 3.821 -5.133 3.766 -8.312 4.625 C-8.869 4.749 -9.426 4.872 -10 5 C-10.66 4.34 -11.32 3.68 -12 3 C-7.887 0.009 -5.049 -0.531 0 0 Z " fill="#E4C991" transform="translate(81,16)"/>
<path d="M0 0 C0.579 2.234 1.018 4.25 1.188 6.562 C2 9 2 9 5.062 10.812 C5.547 11.008 5.547 11.008 8 12 C8 11.01 8 10.02 8 9 C10.886 9.398 11.822 9.79 13.75 12.062 C14.163 12.702 14.575 13.341 15 14 C14.237 13.794 13.474 13.588 12.688 13.375 C10 13 10 13 7 15 C1.25 11.25 1.25 11.25 -1 9 C-1.339 2.677 -1.339 2.677 0 0 Z " fill="#DBBA74" transform="translate(16,146)"/>
<path d="M0 0 C4.027 -0.479 5.809 -0.11 9.375 1.938 C11.316 3.706 11.934 4.667 12.445 7.266 C12.498 9.611 12.47 11.7 12 14 C11.34 14.66 10.68 15.32 10 16 C9 13 9 13 9.188 9.5 C9 6 9 6 7.312 4.188 C4.919 2.958 2.531 1.914 0 1 C0 0.67 0 0.34 0 0 Z " fill="#DDBE81" transform="translate(120,69)"/>
<path d="M0 0 C-1.32 0.33 -2.64 0.66 -4 1 C-4 1.66 -4 2.32 -4 3 C-6.31 3 -8.62 3 -11 3 C-11 3.66 -11 4.32 -11 5 C-12.746 5.533 -14.497 6.051 -16.25 6.562 C-17.225 6.853 -18.199 7.143 -19.203 7.441 C-21.962 7.992 -23.391 7.938 -26 7 C-24.418 6.351 -22.834 5.706 -21.25 5.062 C-20.368 4.703 -19.487 4.343 -18.578 3.973 C-16.383 3.144 -14.277 2.538 -12 2 C-11.526 1.825 -11.526 1.825 -9.125 0.938 C-5.91 -0.027 -3.334 -0.159 0 0 Z " fill="#F4E8CF" transform="translate(91,166)"/>
<path d="M0 0 C-1 3 -1 3 -2.812 3.926 C-3.534 4.28 -4.256 4.635 -5 5 C-7.089 7.069 -9.038 9.229 -11 11.418 C-13 13 -13 13 -15.25 12.738 C-15.828 12.495 -16.405 12.251 -17 12 C-16.313 11.385 -15.626 10.77 -14.918 10.137 C-14.017 9.328 -13.116 8.52 -12.188 7.688 C-11.294 6.887 -10.401 6.086 -9.48 5.262 C-7 3 -7 3 -5.426 1.207 C-4 0 -4 0 0 0 Z " fill="#E5C887" transform="translate(92,129)"/>
<path d="M0 0 C0.66 0.33 1.32 0.66 2 1 C1.255 8.745 1.255 8.745 -2 12 C-2.66 12 -3.32 12 -4 12 C-4.66 10.68 -5.32 9.36 -6 8 C-7.32 8.33 -8.64 8.66 -10 9 C-9.67 7.35 -9.34 5.7 -9 4 C-8.618 4.165 -8.618 4.165 -6.688 5 C-4 6 -4 6 -1 6 C-0.67 4.02 -0.34 2.04 0 0 Z " fill="#E5C685" transform="translate(81,63)"/>
<path d="M0 0 C0.66 0.33 1.32 0.66 2 1 C2.893 5.121 3.333 7.822 2.188 11.875 C-1.244 15.209 -5.371 15.418 -10 16 C-9.67 14.68 -9.34 13.36 -9 12 C-8.443 12.021 -8.443 12.021 -5.625 12.125 C-2 12 -2 12 0 10 C0.195 7.617 0.195 7.617 0.125 4.875 C0.107 3.965 0.089 3.055 0.07 2.117 C0.047 1.419 0.024 0.72 0 0 Z " fill="#D7B97A" transform="translate(105,44)"/>
<path d="M0 0 C0 3.757 -1.142 5.127 -3.188 8.25 C-3.505 8.735 -3.505 8.735 -5.109 11.191 C-7.344 14.511 -9.634 17.773 -12 21 C-12.33 20.01 -12.66 19.02 -13 18 C-12.028 16.115 -12.028 16.115 -10.508 14.023 C-9.968 13.271 -9.428 12.518 -8.871 11.742 C-8.295 10.961 -7.719 10.18 -7.125 9.375 C-6.557 8.586 -5.988 7.797 -5.402 6.984 C-1.265 1.265 -1.265 1.265 0 0 Z " fill="#CDAC67" transform="translate(91,131)"/>
<path d="M0 0 C4.706 0.706 4.706 0.706 6 2 C6.041 4 6.043 6 6 8 C5.34 8 4.68 8 4 8 C4 7.34 4 6.68 4 6 C2.35 6 0.7 6 -1 6 C-1.043 4.334 -1.041 2.666 -1 1 C-0.67 0.67 -0.34 0.34 0 0 Z " fill="#F7E9C6" transform="translate(114,95)"/>
<path d="M0 0 C0.66 0.33 1.32 0.66 2 1 C0.395 5.669 -1.975 10.093 -5 14 C-5.66 14 -6.32 14 -7 14 C-7.66 14.66 -8.32 15.32 -9 16 C-8.47 11.492 -6.748 8.58 -4 5 C-3.34 5 -2.68 5 -2 5 C-1.34 3.35 -0.68 1.7 0 0 Z " fill="#F8E4B2" transform="translate(61,135)"/>
<path d="M0 0 C1.047 3.142 0.979 4.051 0.293 7.16 C0.118 7.954 -0.056 8.747 -0.236 9.564 C-0.331 9.977 -0.331 9.977 -0.812 12.062 C-0.991 12.891 -1.17 13.719 -1.354 14.572 C-2.745 20.745 -2.745 20.745 -5 23 C-3.333 3.333 -3.333 3.333 0 0 Z " fill="#FAEAC0" transform="translate(44,102)"/>
<path d="M0 0 C0.33 0 0.66 0 1 0 C1 7.26 1 14.52 1 22 C-2.376 17.499 -2.376 17.499 -1.75 12.688 C-1.691 12.207 -1.691 12.207 -1.395 9.773 C-1.264 8.858 -1.134 7.943 -1 7 C-0.95 6.625 -0.95 6.625 -0.699 4.727 C-0.483 3.149 -0.245 1.574 0 0 Z " fill="#F9F3D9" transform="translate(30,61)"/>
<path d="M0 0 C0.99 0.66 1.98 1.32 3 2 C2.34 4.31 1.68 6.62 1 9 C-3.314 8.521 -5.166 7.254 -8 4 C-6.02 4 -4.04 4 -2 4 C-1.34 2.68 -0.68 1.36 0 0 Z " fill="#F7E5BA" transform="translate(124,47)"/>
<path d="M0 0 C0 3.63 0 7.26 0 11 C-0.99 11.33 -1.98 11.66 -3 12 C-4.283 8.15 -4.066 5.053 -4 1 C-2 0 -2 0 0 0 Z " fill="#F4DDA6" transform="translate(42,50)"/>
<path d="M0 0 C0.66 0.33 1.32 0.66 2 1 C-0.038 8.118 -2.403 15.067 -5 22 C-5.33 22 -5.66 22 -6 22 C-6 19.36 -6 16.72 -6 14 C-5.34 14 -4.68 14 -4 14 C-3.795 13.241 -3.59 12.481 -3.379 11.699 C-3.109 10.705 -2.84 9.711 -2.562 8.688 C-2.296 7.701 -2.029 6.715 -1.754 5.699 C-1.219 3.785 -0.629 1.886 0 0 Z " fill="#EDD194" transform="translate(56,79)"/>
<path d="M0 0 C0.66 0.99 1.32 1.98 2 3 C2.979 4.02 3.979 5.021 5 6 C5.66 6.66 6.32 7.32 7 8 C6.618 8.217 6.618 8.217 4.688 9.312 C1.06 11.59 -0.636 12.907 -2 17 C-3.65 17 -5.3 17 -7 17 C-2 12 -2 12 -0.312 10.625 C1 9 1 9 1.074 6.738 C0.947 5.938 0.819 5.137 0.688 4.312 C0.568 3.504 0.448 2.696 0.324 1.863 C0.217 1.248 0.11 0.634 0 0 Z " fill="#D9B770" transform="translate(109,48)"/>
<path d="M0 0 C0.66 0.99 1.32 1.98 2 3 C3.945 3.512 3.945 3.512 6.125 3.688 C7.404 3.791 8.683 3.894 10 4 C8.094 6.435 6.994 7.002 3.938 7.812 C3.453 7.843 3.453 7.843 1 8 C-1 6 -1 6 -1.188 3.438 C-1 1 -1 1 0 0 Z " fill="#F8E6B8" transform="translate(43,43)"/>
<path d="M0 0 C2 3 2 3 3 5 C3.639 4.979 3.639 4.979 6.875 4.875 C9.055 4.805 9.055 4.805 11 5 C11.66 5.66 12.32 6.32 13 7 C12.34 7.66 11.68 8.32 11 9 C11 8.34 11 7.68 11 7 C9.35 7 7.7 7 6 7 C6 7.66 6 8.32 6 9 C6.66 9.33 7.32 9.66 8 10 C5.688 10.312 5.688 10.312 3 10 C1.25 7.625 1.25 7.625 0 5 C-0.33 4.34 -0.66 3.68 -1 3 C-0.67 2.01 -0.34 1.02 0 0 Z " fill="#E4C88D" transform="translate(67,24)"/>
<path d="M0 0 C0.66 0 1.32 0 2 0 C3.055 4.954 2.956 9.378 2.562 14.375 C2.51 15.111 2.458 15.847 2.404 16.605 C2.276 18.404 2.139 20.202 2 22 C1.67 22 1.34 22 1 22 C0.67 14.74 0.34 7.48 0 0 Z " fill="#FAF1D0" transform="translate(22,93)"/>
<path d="M0 0 C0.688 1.75 0.688 1.75 1 4 C-0.438 6.25 -0.438 6.25 -2 8 C-3.65 7.67 -5.3 7.34 -7 7 C-3.862 0 -3.862 0 0 0 Z " fill="#F5DFAB" transform="translate(114,57)"/>
<path d="M0 0 C0.33 0 0.66 0 1 0 C0.036 9.41 0.036 9.41 -1 14 C-1.99 14 -2.98 14 -4 14 C-3.663 8.671 -3.385 4.372 0 0 Z " fill="#FCF5DA" transform="translate(21,138)"/>
<path d="M0 0 C0.33 0.66 0.66 1.32 1 2 C-0.328 4.531 -0.328 4.531 -2.25 7.5 C-2.874 8.48 -3.498 9.459 -4.141 10.469 C-6 13 -6 13 -9 15 C-8.336 11.485 -6.905 8.862 -5.062 5.812 C-4.538 4.932 -4.013 4.052 -3.473 3.145 C-2 1 -2 1 0 0 Z " fill="#E2C47E" transform="translate(82,106)"/>
<path d="M0 0 C0.99 0.33 1.98 0.66 3 1 C2.687 1.277 2.687 1.277 1.102 2.68 C0.284 3.404 -0.533 4.129 -1.375 4.875 C-2.187 5.594 -2.999 6.314 -3.836 7.055 C-5.258 8.333 -6.648 9.648 -8 11 C-8.66 9.68 -9.32 8.36 -10 7 C-7.627 4.252 -5.352 3.289 -2 2 C-1.34 1.34 -0.68 0.68 0 0 Z " fill="#DABA75" transform="translate(100,121)"/>
<path d="M0 0 C0.33 0.99 0.66 1.98 1 3 C-0.452 4.673 -1.911 6.338 -3.375 8 C-4.187 8.928 -4.999 9.856 -5.836 10.812 C-6.55 11.534 -7.264 12.256 -8 13 C-8.66 13 -9.32 13 -10 13 C-8.484 9.522 -6.423 7.044 -3.875 4.25 C-3.151 3.451 -2.426 2.652 -1.68 1.828 C-1.403 1.526 -1.403 1.526 0 0 Z " fill="#FAE9BC" transform="translate(98,98)"/>
<path d="M0 0 C1.461 2.647 2 3.894 2 7 C1.67 7.99 1.34 8.98 1 10 C0.34 10 -0.32 10 -1 10 C-0.979 10.474 -0.979 10.474 -0.875 12.875 C-1 16 -1 16 -3 18 C-4.324 14.027 -3.181 11.19 -2.062 7.312 C-1.965 6.962 -1.965 6.962 -1.471 5.186 C-0.988 3.455 -0.495 1.727 0 0 Z " fill="#EFD293" transform="translate(73,57)"/>
<path d="M0 0 C0.66 0 1.32 0 2 0 C1.527 4.167 0.953 6.929 -2 10 C-2.66 10 -3.32 10 -4 10 C-4.403 6.477 -4.134 5.201 -2.125 2.188 C-1.424 1.466 -0.722 0.744 0 0 Z " fill="#FDF7E0" transform="translate(88,58)"/>
<path d="M0 0 C-0.99 1.65 -1.98 3.3 -3 5 C-4.485 4.67 -4.485 4.67 -12 3 C-12 2.67 -12 2.34 -12 2 C-10.35 2 -8.7 2 -7 2 C-7 1.34 -7 0.68 -7 0 C-4.333 -1.333 -2.833 -0.671 0 0 Z " fill="#EDD190" transform="translate(47,164)"/>
<path d="M0 0 C0.33 0.66 0.66 1.32 1 2 C0.074 4.059 0.074 4.059 -1.312 6.438 C-1.762 7.22 -2.212 8.002 -2.676 8.809 C-3.739 10.567 -4.86 12.29 -6 14 C-7.32 14 -8.64 14 -10 14 C-10 13.34 -10 12.68 -10 12 C-9.01 12 -8.02 12 -7 12 C-5.477 9.063 -4.199 6.083 -3 3 C-2.34 3 -1.68 3 -1 3 C-0.67 2.01 -0.34 1.02 0 0 Z " fill="#E8C67D" transform="translate(54,148)"/>
<path d="M0 0 C0.33 0 0.66 0 1 0 C1.054 2.938 1.094 5.875 1.125 8.812 C1.133 9.229 1.133 9.229 1.176 11.338 C1.182 12.14 1.189 12.943 1.195 13.77 C1.206 14.508 1.216 15.246 1.227 16.007 C1 18 1 18 -1 21 C-1.33 16.38 -1.66 11.76 -2 7 C-1.67 7 -1.34 7 -1 7 C-0.67 4.69 -0.34 2.38 0 0 Z " fill="#FBEFC8" transform="translate(28,87)"/>
<path d="M0 0 C0.66 0.33 1.32 0.66 2 1 C1.861 1.332 1.861 1.332 1.16 3.012 C0.979 3.453 0.979 3.453 0.062 5.688 C-0.297 6.558 -0.657 7.428 -1.027 8.324 C-2 11 -2 11 -2.441 13.707 C-3 16 -3 16 -6 18 C-4.838 11.533 -2.875 5.904 0 0 Z " fill="#EBD296" transform="translate(85,76)"/>
<path d="M0 0 C0.33 0 0.66 0 1 0 C0.508 6.4 0.508 6.4 -2.062 9.438 C-2.382 9.695 -2.382 9.695 -4 11 C-5 9 -5 9 -4.062 5.875 C-3.712 4.926 -3.361 3.977 -3 3 C-3.66 2.67 -4.32 2.34 -5 2 C-4.01 1.67 -3.02 1.34 -2 1 C-1.34 1.33 -0.68 1.66 0 2 C0 1.34 0 0.68 0 0 Z " fill="#F5E2B2" transform="translate(93,55)"/>
<path d="M0 0 C0.33 0 0.66 0 1 0 C1 6.27 1 12.54 1 19 C0.67 18.34 0.34 17.68 0 17 C-0.99 16.67 -1.98 16.34 -3 16 C-2.845 15.608 -2.845 15.608 -2.062 13.625 C-0.737 9.101 -0.352 4.686 0 0 Z " fill="#FCF1D0" transform="translate(34,98)"/>
<path d="M0 0 C2.625 0.375 2.625 0.375 5 1 C4.375 2.938 4.375 2.938 3 5 C-0.125 5.75 -0.125 5.75 -3 6 C-2.427 3.133 -2.139 2.139 0 0 Z " fill="#FCF7E6" transform="translate(20,66)"/>
<path d="M0 0 C0.33 0 0.66 0 1 0 C1 2.31 1 4.62 1 7 C-2.325 8.108 -4.622 7.845 -8 7 C-5.312 4.748 -3.354 3.118 0 2 C0 1.34 0 0.68 0 0 Z " fill="#F1DAA6" transform="translate(60,25)"/>
<path d="M0 0 C0.66 0 1.32 0 2 0 C1.812 1.875 1.812 1.875 1 4 C-3.076 6.218 -6.267 6.084 -10.812 5.625 C-11.393 5.57 -11.393 5.57 -14.332 5.289 C-15.212 5.194 -16.093 5.098 -17 5 C-16.67 3.68 -16.34 2.36 -16 1 C-16 1.99 -16 2.98 -16 4 C-13.708 3.913 -11.416 3.805 -9.125 3.688 C-7.849 3.629 -6.573 3.571 -5.258 3.512 C-4.183 3.343 -3.108 3.174 -2 3 C-1.34 2.01 -0.68 1.02 0 0 Z " fill="#F9EDCC" transform="translate(85,22)"/>
<path d="M0 0 C0.33 0.99 0.66 1.98 1 3 C-0.625 6.188 -0.625 6.188 -3 9 C-5.75 9.375 -5.75 9.375 -8 9 C-7.34 8.67 -6.68 8.34 -6 8 C-6 7.34 -6 6.68 -6 6 C-5.34 6 -4.68 6 -4 6 C-3.897 5.381 -3.794 4.762 -3.688 4.125 C-3 2 -3 2 0 0 Z " fill="#F7DFA8" transform="translate(58,154)"/>
<path d="M0 0 C0 0.66 0 1.32 0 2 C-0.99 2 -1.98 2 -3 2 C-3 2.66 -3 3.32 -3 4 C-8.294 8 -8.294 8 -12 8 C-11.196 7.237 -10.391 6.474 -9.562 5.688 C-7 3 -7 3 -6 0 C-3.509 -1.245 -2.589 -0.777 0 0 Z " fill="#F9EABE" transform="translate(103,90)"/>
<path d="M0 0 C0.99 0 1.98 0 3 0 C2.67 1.65 2.34 3.3 2 5 C0.742 5.248 -0.516 5.495 -1.812 5.75 C-4.685 6.464 -5.774 6.766 -7.875 8.938 C-8.061 9.278 -8.061 9.278 -9 11 C-9.66 11.99 -10.32 12.98 -11 14 C-10.74 10.191 -10.417 8.44 -7.75 5.625 C-4.809 3.887 -3.345 3.618 0 4 C0 2.68 0 1.36 0 0 Z " fill="#DFBC75" transform="translate(96,35)"/>
<path d="M0 0 C2.041 1.616 4.041 3.286 6 5 C6 5.66 6 6.32 6 7 C4.02 7 2.04 7 0 7 C-0.381 5.009 -0.713 3.007 -1 1 C-0.67 0.67 -0.34 0.34 0 0 Z " fill="#F1E4C5" transform="translate(23,161)"/>
<path d="M0 0 C0.688 1.625 0.688 1.625 1 4 C-0.438 7.25 -0.438 7.25 -2 10 C-2.66 10 -3.32 10 -4 10 C-4.66 10.66 -5.32 11.32 -6 12 C-5.598 6.371 -3.711 3.996 0 0 Z " fill="#FCEEC8" transform="translate(61,131)"/>
<path d="M0 0 C0.66 0.33 1.32 0.66 2 1 C1.67 1.99 1.34 2.98 1 4 C0.34 4 -0.32 4 -1 4 C-0.67 5.32 -0.34 6.64 0 8 C-0.66 8 -1.32 8 -2 8 C-2.289 8.784 -2.578 9.567 -2.875 10.375 C-4 13 -4 13 -6 15 C-3.3 3.3 -3.3 3.3 0 0 Z " fill="#F5DDA6" transform="translate(87,110)"/>
<path d="M0 0 C3 3 3 3 3.145 5.191 C3.035 5.974 2.925 6.756 2.812 7.562 C2.764 7.955 2.764 7.955 2.52 9.941 C2 12 2 12 0 14 C0 9.38 0 4.76 0 0 Z " fill="#E0C17E" transform="translate(38,68)"/>
<path d="M0 0 C0.66 0 1.32 0 2 0 C3.354 2.709 3.065 5.009 3 8 C1.02 7.34 -0.96 6.68 -3 6 C-2.427 3.133 -2.139 2.139 0 0 Z " fill="#FCF4D7" transform="translate(57,61)"/>
<path d="M0 0 C0.66 0 1.32 0 2 0 C2.196 4.219 1.802 7.17 0 11 C-0.66 11 -1.32 11 -2 11 C-2.286 3.571 -2.286 3.571 0 0 Z " fill="#F4DBA6" transform="translate(63,50)"/>
<path d="M0 0 C0.33 0 0.66 0 1 0 C1.268 0.949 1.536 1.898 1.812 2.875 C3 6 3 6 6 8 C5.67 8.66 5.34 9.32 5 10 C4.01 10 3.02 10 2 10 C1.67 8.68 1.34 7.36 1 6 C-0.98 6.66 -2.96 7.32 -5 8 C-5 7.34 -5 6.68 -5 6 C-4.01 6 -3.02 6 -2 6 C-1.928 5.691 -1.928 5.691 -1.562 4.125 C-1 2 -1 2 0 0 Z " fill="#D9B66E" transform="translate(41,44)"/>
<path d="M0 0 C1.65 0 3.3 0 5 0 C5.66 1.32 6.32 2.64 7 4 C6.34 4 5.68 4 5 4 C4.67 4.99 4.34 5.98 4 7 C2 5.188 2 5.188 0 3 C0 2.01 0 1.02 0 0 Z " fill="#FCF6DF" transform="translate(120,71)"/>
<path d="M0 0 C0.66 0.165 0.66 0.165 4 1 C4 5.29 4 9.58 4 14 C3.67 14 3.34 14 3 14 C3 11.03 3 8.06 3 5 C1.68 4.67 0.36 4.34 -1 4 C-0.67 2.68 -0.34 1.36 0 0 Z " fill="#F3DCA6" transform="translate(49,51)"/>
<path d="M0 0 C2 3 2 3 1.625 5.688 C1.419 6.451 1.212 7.214 1 8 C0.34 8 -0.32 8 -1 8 C-1 8.66 -1 9.32 -1 10 C-1.99 10 -2.98 10 -4 10 C-3.294 6.331 -1.723 3.295 0 0 Z " fill="#FBF0C8" transform="translate(53,152)"/>
<path d="M0 0 C0.66 0.33 1.32 0.66 2 1 C-1.864 5.487 -5.748 9.877 -10 14 C-9.468 9.862 -7.221 7.729 -4.438 4.75 C-3.611 3.858 -2.785 2.966 -1.934 2.047 C-1.296 1.371 -0.657 0.696 0 0 Z " fill="#D9B872" transform="translate(114,88)"/>
<path d="M0 0 C0.371 0.474 0.742 0.949 1.125 1.438 C3.626 3.522 5.816 3.646 9 4 C8.01 4.33 7.02 4.66 6 5 C5.938 5.474 5.938 5.474 5.625 7.875 C5 11 5 11 3 13 C3.33 10.69 3.66 8.38 4 6 C3.01 5.67 2.02 5.34 1 5 C0.67 3.35 0.34 1.7 0 0 Z " fill="#DAB975" transform="translate(62,43)"/>
<path d="M0 0 C0.66 0.33 1.32 0.66 2 1 C0.68 2.65 -0.64 4.3 -2 6 C-0.35 6.33 1.3 6.66 3 7 C3 7.33 3 7.66 3 8 C0.03 8.66 -2.94 9.32 -6 10 C-4.807 5.226 -3.204 3.614 0 0 Z " fill="#FBF3D8" transform="translate(48,22)"/>
<path d="M0 0 C-0.385 2.539 -0.701 3.728 -2.629 5.484 C-3.267 5.902 -3.905 6.32 -4.562 6.75 C-5.203 7.178 -5.844 7.606 -6.504 8.047 C-6.751 8.204 -6.751 8.204 -8 9 C-7.309 6.083 -6.525 3.602 -5 1 C-3 0 -3 0 0 0 Z " fill="#EFD7A1" transform="translate(112,102)"/>
<path d="M0 0 C0.66 0.66 1.32 1.32 2 2 C1.216 2.248 0.433 2.495 -0.375 2.75 C-3.323 4.154 -3.902 5.007 -5 8 C-5.99 5.69 -6.98 3.38 -8 1 C-6.866 1.021 -5.731 1.041 -4.562 1.062 C-1 1 -1 1 0 0 Z " fill="#F8EFD5" transform="translate(113,41)"/>
<path d="M0 0 C1.98 0 3.96 0 6 0 C7.354 2.709 7.065 5.009 7 8 C5.35 8 3.7 8 2 8 C2.66 6.02 3.32 4.04 4 2 C2.68 1.34 1.36 0.68 0 0 Z " fill="#FBF1D0" transform="translate(48,39)"/>
<path d="M0 0 C1.32 0.66 2.64 1.32 4 2 C3.34 3.65 2.68 5.3 2 7 C-2.29 7 -6.58 7 -11 7 C-11 6.67 -11 6.34 -11 6 C-7.04 6 -3.08 6 1 6 C0.67 4.02 0.34 2.04 0 0 Z " fill="#FDF6DF" transform="translate(81,19)"/>
<path d="M0 0 C0.33 0.99 0.66 1.98 1 3 C-0.375 4.5 -0.375 4.5 -2 6 C-2.66 6 -3.32 6 -4 6 C-4 6.66 -4 7.32 -4 8 C-5.65 8.33 -7.3 8.66 -9 9 C-8.242 7.825 -7.468 6.66 -6.688 5.5 C-6.258 4.85 -5.829 4.201 -5.387 3.531 C-5.158 3.279 -5.158 3.279 -4 2 C-3.01 2 -2.02 2 -1 2 C-0.67 1.34 -0.34 0.68 0 0 Z " fill="#DBBC7D" transform="translate(71,162)"/>
<path d="M0 0 C0.33 0.66 0.66 1.32 1 2 C-1.31 4.64 -3.62 7.28 -6 10 C-6.33 9.01 -6.66 8.02 -7 7 C-3.787 1.262 -3.787 1.262 0 0 Z " fill="#F0D89B" transform="translate(81,113)"/>
<path d="M0 0 C2.062 0.438 2.062 0.438 4 1 C4 1.99 4 2.98 4 4 C1 6 1 6 -2 6 C-1.125 1.125 -1.125 1.125 0 0 Z " fill="#FCF4D2" transform="translate(76,62)"/>
<path d="M0 0 C0 3.588 -0.884 4.7 -2.875 7.625 C-3.409 8.422 -3.942 9.218 -4.492 10.039 C-6 12 -6 12 -8 13 C-6.41 7.911 -3.255 4.125 0 0 Z " fill="#DDBA71" transform="translate(61,154)"/>
<path d="M0 0 C0.66 0 1.32 0 2 0 C0.881 4.851 -0.133 7.778 -4 11 C-4.33 10.01 -4.66 9.02 -5 8 C-4.34 7.34 -3.68 6.68 -3 6 C-2.312 4.342 -1.644 2.675 -1 1 C-0.67 0.67 -0.34 0.34 0 0 Z " fill="#FCEFC7" transform="translate(50,149)"/>
<path d="M0 0 C0.33 0.66 0.66 1.32 1 2 C-0.155 3.65 -0.155 3.65 -6 12 C-6.33 10.68 -6.66 9.36 -7 8 C-5.566 5.859 -5.566 5.859 -3.562 3.75 C-3.233 3.397 -3.233 3.397 -1.566 1.609 C-1.049 1.078 -0.533 0.547 0 0 Z " fill="#F1DAA4" transform="translate(89,131)"/>
<path d="M0 0 C0.99 0.33 1.98 0.66 3 1 C2.073 2.175 1.133 3.34 0.188 4.5 C-0.335 5.15 -0.857 5.799 -1.395 6.469 C-3 8 -3 8 -6 8 C-4.557 4.634 -2.667 2.49 0 0 Z " fill="#F8E5B7" transform="translate(111,84)"/>
<path d="M0 0 C0.33 0.99 0.66 1.98 1 3 C-0.363 5.043 -0.363 5.043 -2.312 7.188 C-2.948 7.903 -3.584 8.618 -4.238 9.355 C-6 11 -6 11 -8 11 C-8 10.01 -8 9.02 -8 8 C-7.34 8 -6.68 8 -6 8 C-6 7.34 -6 6.68 -6 6 C-5.34 6 -4.68 6 -4 6 C-3.34 4.68 -2.68 3.36 -2 2 C-1.34 2 -0.68 2 0 2 C0 1.34 0 0.68 0 0 Z " fill="#F4DCA4" transform="translate(90,79)"/>
<path d="M0 0 C0.25 2.25 0.25 2.25 0 5 C-2 7.312 -2 7.312 -4 9 C-4 6.36 -4 3.72 -4 1 C-2 0 -2 0 0 0 Z " fill="#EECF8E" transform="translate(59,52)"/>
<path d="M0 0 C0.66 0.99 1.32 1.98 2 3 C-0.31 6.63 -2.62 10.26 -5 14 C-5.33 13.34 -5.66 12.68 -6 12 C-4.785 9.18 -4.785 9.18 -3.062 5.875 C-2.497 4.779 -1.931 3.684 -1.348 2.555 C-0.903 1.712 -0.458 0.869 0 0 Z " fill="#E3C483" transform="translate(92,62)"/>
<path d="M0 0 C1.65 0.33 3.3 0.66 5 1 C4.67 2.32 4.34 3.64 4 5 C0.7 4.67 -2.6 4.34 -6 4 C-6 3.67 -6 3.34 -6 3 C-4.02 3 -2.04 3 0 3 C0 2.01 0 1.02 0 0 Z " fill="#F1DBAA" transform="translate(98,37)"/>
<path d="M0 0 C2.375 0.625 2.375 0.625 5 2 C6.312 5.125 6.312 5.125 7 8 C6.34 8.66 5.68 9.32 5 10 C5 9.34 5 8.68 5 8 C4.34 8 3.68 8 3 8 C3 6.35 3 4.7 3 3 C2.01 2.67 1.02 2.34 0 2 C0 1.34 0 0.68 0 0 Z " fill="#E1C58A" transform="translate(99,35)"/>
<path d="M0 0 C1.32 0.33 2.64 0.66 4 1 C4.25 7.625 4.25 7.625 2 11 C1.856 9.927 1.711 8.855 1.562 7.75 C1.163 5.083 0.724 2.586 0 0 Z " fill="#E4C279" transform="translate(42,68)"/>
<path d="M0 0 C0.825 0.165 0.825 0.165 5 1 C5.125 3.875 5.125 3.875 5 7 C4.34 7.66 3.68 8.32 3 9 C3 7.02 3 5.04 3 3 C2.01 3 1.02 3 0 3 C0 2.01 0 1.02 0 0 Z " fill="#F0D8A1" transform="translate(68,49)"/>
<path d="M0 0 C0.66 0.66 1.32 1.32 2 2 C1.381 2.742 0.762 3.485 0.125 4.25 C-1.604 6.488 -2.861 8.437 -4 11 C-4.812 8.875 -4.812 8.875 -5 6 C-3.556 3.699 -1.891 1.984 0 0 Z " fill="#E6D099" transform="translate(27,38)"/>
<path d="M0 0 C5.75 -0.125 5.75 -0.125 8 1 C8 1.66 8 2.32 8 3 C5.36 3 2.72 3 0 3 C0 2.01 0 1.02 0 0 Z " fill="#F6E2AF" transform="translate(65,44)"/>
<path d="M0 0 C0.66 0.33 1.32 0.66 2 1 C2 1.99 2 2.98 2 4 C-1.228 6.152 -2.284 6.201 -6 6 C-4.71 4.624 -3.373 3.292 -2 2 C-1.34 2 -0.68 2 0 2 C0 1.34 0 0.68 0 0 Z " fill="#F9EBC5" transform="translate(58,23)"/>
<path d="M0 0 C-0.33 0.495 -0.33 0.495 -2 3 C-2.99 2.34 -3.98 1.68 -5 1 C-7.262 0.805 -7.262 0.805 -9.688 0.875 C-10.496 0.893 -11.304 0.911 -12.137 0.93 C-12.752 0.953 -13.366 0.976 -14 1 C-13.67 0.34 -13.34 -0.32 -13 -1 C-7.951 -2.01 -4.685 -2.489 0 0 Z " fill="#EDD7AD" transform="translate(87,19)"/>
<path d="M0 0 C1 0.667 1 0.667 6 4 C4.68 4.33 3.36 4.66 2 5 C1.67 6.32 1.34 7.64 1 9 C0.34 9 -0.32 9 -1 9 C-0.67 6.03 -0.34 3.06 0 0 Z " fill="#E9D09A" transform="translate(38,59)"/>
<path d="M0 0 C-0.392 0.144 -0.392 0.144 -2.375 0.875 C-5 2 -5 2 -7 4 C-7.33 2.35 -7.66 0.7 -8 -1 C-4.597 -2.215 -3.067 -1.862 0 0 Z " fill="#EFD192" transform="translate(90,35)"/>
<path d="M0 0 C0.33 0.99 0.66 1.98 1 3 C0.67 3.66 0.34 4.32 0 5 C-2.31 4.67 -4.62 4.34 -7 4 C-4.778 1.778 -2.915 1.074 0 0 Z " fill="#F1DAA5" transform="translate(87,27)"/>
<path d="M0 0 C2.812 0.688 2.812 0.688 5 1 C5 1.33 5 1.66 5 2 C0.93 2.185 -1.441 1.891 -5 0 C-6.991 -0.383 -8.991 -0.726 -11 -1 C-11 -1.33 -11 -1.66 -11 -2 C-6.042 -3.268 -4.194 -2.796 0 0 Z " fill="#E6CE9B" transform="translate(61,23)"/>
<path d="M0 0 C0.66 0 1.32 0 2 0 C2.66 1.65 3.32 3.3 4 5 C2.68 6.32 1.36 7.64 0 9 C0.021 8.216 0.041 7.432 0.062 6.625 C0 4 0 4 -1 2 C-0.67 1.34 -0.34 0.68 0 0 Z " fill="#E7C885" transform="translate(85,52)"/>
<path d="M0 0 C1.32 0 2.64 0 4 0 C4.33 1.65 4.66 3.3 5 5 C3.68 4.34 2.36 3.68 1 3 C1 4.65 1 6.3 1 8 C0.67 8 0.34 8 0 8 C0 5.36 0 2.72 0 0 Z " fill="#F2D89D" transform="translate(31,51)"/>
<path d="M0 0 C0.66 0.66 1.32 1.32 2 2 C-0.64 4.97 -3.28 7.94 -6 11 C-6 7.394 -5.183 6.587 -3 3.812 C-2.443 3.097 -1.886 2.382 -1.312 1.645 C-0.879 1.102 -0.446 0.559 0 0 Z " fill="#E7CA89" transform="translate(77,130)"/>
<path d="M0 0 C1 3 1 3 0.223 4.824 C-0.314 5.687 -0.314 5.687 -3 10 C-3.75 8.375 -3.75 8.375 -4 6 C-2.062 2.75 -2.062 2.75 0 0 Z " fill="#ECCF90" transform="translate(60,103)"/>
<path d="M0 0 C1.32 0 2.64 0 4 0 C4 1.32 4 2.64 4 4 C2.35 4.33 0.7 4.66 -1 5 C-0.67 3.35 -0.34 1.7 0 0 Z " fill="#FDFAEA" transform="translate(40,63)"/>
<path d="M0 0 C0.66 0 1.32 0 2 0 C2.33 1.98 2.66 3.96 3 6 C1.35 5.67 -0.3 5.34 -2 5 C-1.34 3.35 -0.68 1.7 0 0 Z " fill="#FAF1D1" transform="translate(90,29)"/>
<path d="M0 0 C0 3 0 3 -1.312 4.625 C-3 6 -3 6 -6 7 C-5.812 5.188 -5.812 5.188 -5 3 C-2.438 1.25 -2.438 1.25 0 0 Z " fill="#EACC8B" transform="translate(65,149)"/>
<path d="M0 0 C0.33 0 0.66 0 1 0 C0.67 2.31 0.34 4.62 0 7 C-0.99 7 -1.98 7 -3 7 C-2.25 2.25 -2.25 2.25 0 0 Z " fill="#FAECC6" transform="translate(81,54)"/>
<path d="M0 0 C0.66 0.33 1.32 0.66 2 1 C2 1.99 2 2.98 2 4 C-1.435 6.29 -2.985 6.178 -7 6 C-7.33 5.34 -7.66 4.68 -8 4 C-6.02 4 -4.04 4 -2 4 C-1.34 2.68 -0.68 1.36 0 0 Z " fill="#F9EAC4" transform="translate(124,47)"/>
<path d="M0 0 C0.66 0.165 0.66 0.165 4 1 C3.34 2.32 2.68 3.64 2 5 C1.01 4.67 0.02 4.34 -1 4 C-0.67 2.68 -0.34 1.36 0 0 Z " fill="#FAF0CA" transform="translate(85,36)"/>
<path d="M0 0 C0.99 0.165 0.99 0.165 6 1 C5.67 1.99 5.34 2.98 5 4 C2.938 4.688 2.938 4.688 1 5 C0.67 3.35 0.34 1.7 0 0 Z " fill="#F0D8A3" transform="translate(57,35)"/>
<path d="M0 0 C0.66 0.66 1.32 1.32 2 2 C1.01 4.64 0.02 7.28 -1 10 C-1.33 10 -1.66 10 -2 10 C-2 7.36 -2 4.72 -2 2 C-1.34 2 -0.68 2 0 2 C0 1.34 0 0.68 0 0 Z " fill="#F3DBA6" transform="translate(52,91)"/>
<path d="M0 0 C0.66 0 1.32 0 2 0 C1.387 2.962 0.746 4.381 -1 7 C-1.66 7 -2.32 7 -3 7 C-1.125 1.125 -1.125 1.125 0 0 Z " fill="#FBF3D3" transform="translate(73,70)"/>
<path d="M0 0 C0.33 0 0.66 0 1 0 C1 1.98 1 3.96 1 6 C-0.32 6.33 -1.64 6.66 -3 7 C-2.387 4.038 -1.746 2.619 0 0 Z " fill="#FEFBEA" transform="translate(63,70)"/>
<path d="M0 0 C0.33 0 0.66 0 1 0 C1 1.65 1 3.3 1 5 C-0.875 5.625 -0.875 5.625 -3 6 C-3.66 5.34 -4.32 4.68 -5 4 C-3.35 3.34 -1.7 2.68 0 2 C0 1.34 0 0.68 0 0 Z " fill="#F7E0A9" transform="translate(80,64)"/>
<path d="M0 0 C2.31 0.66 4.62 1.32 7 2 C5 3 3 4 1 5 C0.67 3.35 0.34 1.7 0 0 Z " fill="#DFBC75" transform="translate(87,51)"/>
<path d="M0 0 C0.33 0.66 0.66 1.32 1 2 C-0.888 4.697 -2.198 6.132 -5 8 C-4.65 4.758 -4.438 3.385 -1.938 1.188 C-1.618 0.992 -1.618 0.992 0 0 Z " fill="#F4DBA3" transform="translate(57,143)"/>
<path d="M0 0 C1.32 0 2.64 0 4 0 C3.67 0.99 3.34 1.98 3 3 C-0.062 4.188 -0.062 4.188 -3 5 C-1.125 1.125 -1.125 1.125 0 0 Z " fill="#E0C27E" transform="translate(88,129)"/>
<path d="M0 0 C1.32 0 2.64 0 4 0 C4 0.66 4 1.32 4 2 C4.66 2.33 5.32 2.66 6 3 C4.35 3.33 2.7 3.66 1 4 C0.67 2.68 0.34 1.36 0 0 Z " fill="#EFD8A7" transform="translate(114,101)"/>
<path d="M0 0 C0.33 0 0.66 0 1 0 C1.33 3.3 1.66 6.6 2 10 C0.68 9.34 -0.64 8.68 -2 8 C-1.34 7.67 -0.68 7.34 0 7 C0 4.69 0 2.38 0 0 Z " fill="#DEC17E" transform="translate(23,84)"/>
<path d="M0 0 C0.99 0 1.98 0 3 0 C2.67 2.64 2.34 5.28 2 8 C1.01 8 0.02 8 -1 8 C-0.649 7.051 -0.299 6.103 0.062 5.125 C1 2 1 2 0 0 Z " fill="#E9CE92" transform="translate(116,80)"/>
<path d="M0 0 C3 3.75 3 3.75 3 6 C2.34 6 1.68 6 1 6 C0.67 6.66 0.34 7.32 0 8 C-0.381 5.674 -0.713 3.339 -1 1 C-0.67 0.67 -0.34 0.34 0 0 Z " fill="#EAD29B" transform="translate(28,79)"/>
<path d="M0 0 C1.125 3.75 1.125 3.75 0 6 C-1.98 6 -3.96 6 -6 6 C-5.01 5.67 -4.02 5.34 -3 5 C-2.67 4.01 -2.34 3.02 -2 2 C-1.34 2.33 -0.68 2.66 0 3 C0 2.01 0 1.02 0 0 Z " fill="#F1D799" transform="translate(39,43)"/>
<path d="M0 0 C2 1.062 2 1.062 4 3 C4.25 6.688 4.25 6.688 4 10 C1.166 6.797 0.479 4.219 0 0 Z " fill="#F6E0AD" transform="translate(78,36)"/>
<path d="M0 0 C3.815 2.462 3.815 2.462 4.75 5.188 C4.832 5.786 4.915 6.384 5 7 C4.34 7 3.68 7 3 7 C2.67 7.66 2.34 8.32 2 9 C1.34 6.03 0.68 3.06 0 0 Z " fill="#E2C389" transform="translate(86,20)"/>
</svg>
