<?xml version="1.0" encoding="UTF-8"?>
<!-- Generator: visioncortex VTracer 0.6.12 -->
<svg version="1.1" xmlns="http://www.w3.org/2000/svg" width="164" height="185">
<path d="M0 0 C54.12 0 108.24 0 164 0 C164 61.05 164 122.1 164 185 C109.88 185 55.76 185 0 185 C0 123.95 0 62.9 0 0 Z " fill="#956029" transform="translate(0,0)"/>
<path d="M0 0 C54.12 0 108.24 0 164 0 C164 61.05 164 122.1 164 185 C109.88 185 55.76 185 0 185 C0 148.7 0 112.4 0 75 C1.32 75.99 2.64 76.98 4 78 C6.359 78.512 6.359 78.512 8.75 78.688 C9.549 78.753 10.348 78.819 11.172 78.887 C11.775 78.924 12.378 78.961 13 79 C13.015 79.932 13.029 80.863 13.044 81.823 C13.106 85.344 13.18 88.864 13.262 92.385 C13.295 93.897 13.323 95.408 13.346 96.92 C13.541 109.425 14.235 121.47 20.875 132.438 C21.204 132.994 21.204 132.994 22.867 135.809 C25.647 139.968 28.442 143.801 32.438 146.875 C35.376 149.312 37.309 151.975 39.473 155.098 C41.658 157.819 43.648 159.694 47.105 160.477 C47.449 160.501 47.449 160.501 49.188 160.625 C53 161 53 161 54 162 C55.495 162.207 56.997 162.367 58.5 162.5 C62.889 162.889 62.889 162.889 64 164 C83.245 166.116 83.245 166.116 90.375 161.5 C93.664 158.67 96.453 155.344 99.195 151.988 C101.1 149.889 103.068 148.39 105.375 146.75 C118.374 136.912 124.409 121.125 129 106 C129.82 105.914 130.64 105.827 131.484 105.738 C140.225 104.599 140.225 104.599 143.75 101.875 C146.039 96.611 145.513 92.594 143.812 87.312 C141.294 82.709 138.338 79.892 134 77 C130.863 76.586 130.863 76.586 127.312 76.375 C126.133 76.3 124.954 76.225 123.738 76.148 C123.286 76.124 123.286 76.124 121 76 C121 75.34 121 74.68 121 74 C121.964 73.986 122.928 73.972 123.922 73.957 C125.185 73.909 126.448 73.862 127.75 73.812 C129.003 73.778 130.256 73.743 131.547 73.707 C135 73 135 73 137.418 70.781 C140.02 66.206 139.819 62.113 139 57 C136.745 51.173 132.258 46.322 127 43 C122.575 41.168 118.894 40.778 114.125 40.875 C112.973 40.893 111.82 40.911 110.633 40.93 C109.764 40.953 108.895 40.976 108 41 C107.853 40.432 107.706 39.863 107.555 39.277 C105.219 31.238 101.672 26.326 94.375 22.125 C87.322 18.388 79.074 17.486 71.355 19.789 C67.585 21.427 64.12 23.287 61 26 C59.007 25.015 57.035 24.02 55.098 22.93 C48.02 19.262 40.367 18.501 32.637 20.66 C26.432 23.443 20.573 28.629 18 35 C17.734 37 17.734 37 17.75 39 C17.745 39.66 17.74 40.32 17.734 41 C18.043 43.326 18.856 44.967 20 47 C19.359 47.147 18.719 47.294 18.059 47.445 C9.63 49.631 5.185 53.087 0 60 C0 40.2 0 20.4 0 0 Z " fill="#FCF7EB" transform="translate(0,0)"/>
<path d="M0 0 C4.95 0 9.9 0 15 0 C15.165 0.66 15.165 0.66 16 4 C16.33 3.01 16.66 2.02 17 1 C18.32 1 19.64 1 21 1 C20.34 4.96 19.68 8.92 19 13 C18.34 13 17.68 13 17 13 C17.599 16.397 18.204 19.792 18.812 23.188 C18.993 24.194 19.173 25.2 19.358 26.237 C20.341 31.643 21.42 36.981 22.75 42.312 C23.978 47.376 24.252 51.8 24 57 C24 57.99 24 58.98 24 60 C24.173 59.377 24.345 58.755 24.523 58.113 C27.026 49.884 30.566 42.346 34.382 34.652 C37.978 27.333 40.956 20.143 42 12 C48.418 12.605 48.418 12.605 50.938 14.312 C52 16 52 16 52 20 C52.66 20 53.32 20 54 20 C57.315 26.629 54.265 40.12 52.16 46.965 C49.665 53.494 46.747 59.846 43.8 66.182 C43 68 43 68 42 71 C42.594 69.84 43.189 68.68 43.801 67.484 C48.501 58.542 53.257 51.085 60.32 43.871 C66.846 36.879 72.072 28.71 76 20 C80.565 20.543 83.973 21.795 88 24 C84.057 44.37 73.777 62.128 56.969 74.438 C55.079 75.937 53.676 77.425 52.188 79.312 C49.578 82.518 47.744 83.752 43.65 84.335 C42.804 84.373 41.958 84.41 41.086 84.449 C40.16 84.492 39.235 84.536 38.281 84.58 C37.322 84.616 36.363 84.651 35.375 84.688 C34.408 84.735 33.441 84.782 32.445 84.83 C25.271 85.136 25.271 85.136 23 84 C20.669 83.692 18.338 83.491 15.996 83.281 C14 83 14 83 13 82 C11.763 81.897 10.525 81.794 9.25 81.688 C5.061 81.18 2.971 80.132 0 77 C-1.235 75.04 -2.396 73.044 -3.562 71.043 C-5.11 68.843 -6.663 67.6 -8.812 66 C-18.255 58.239 -23.309 42.742 -25 31 C-25.078 28.691 -25.108 26.38 -25.098 24.07 C-25.094 22.781 -25.091 21.492 -25.088 20.164 C-25.08 18.818 -25.071 17.471 -25.062 16.125 C-25.057 14.755 -25.053 13.385 -25.049 12.016 C-25.037 8.677 -25.021 5.339 -25 2 C-19.511 1.901 -15.721 1.945 -11 5 C-9.737 7.895 -9.454 10.891 -9 14 C-8.523 16.068 -8.022 18.13 -7.5 20.188 C-7.263 21.15 -7.026 22.113 -6.781 23.105 C-6 26 -6 26 -4.961 28.859 C-3.825 32.573 -3.468 36.217 -3.125 40.062 C-2.022 50.639 0.541 59.841 6 69 C5.59 67.973 5.18 66.945 4.758 65.887 C-3.829 44.008 -2.804 23.084 0 0 Z " fill="#ECCE97" transform="translate(40,78)"/>
<path d="M0 0 C2.256 1.086 4.374 2.233 6.5 3.562 C8.742 4.852 10.481 5.533 13 6 C13.33 7.32 13.66 8.64 14 10 C14.33 8.02 14.66 6.04 15 4 C21.7 3.748 27.503 4.323 34 6 C34 8.97 34 11.94 34 15 C34.66 12.69 35.32 10.38 36 8 C37.32 8 38.64 8 40 8 C40.113 8.536 40.113 8.536 40.688 11.25 C42.345 15.985 44.598 17.799 49 20 C48.67 21.32 48.34 22.64 48 24 C48.66 24 49.32 24 50 24 C51.32 26.31 52.64 28.62 54 31 C52.125 26.125 52.125 26.125 51 25 C50.959 23 50.957 21 51 19 C56.661 19.497 60.877 20.545 66 23 C66.5 25.688 66.5 25.688 66 29 C62.71 31.968 59.468 34 55 34 C54.835 35.279 54.67 36.558 54.5 37.875 C54.407 38.594 54.314 39.314 54.219 40.055 C53.795 43.824 54.535 46.483 56 50 C58.062 51.188 58.062 51.188 60 52 C61 55 61 55 59.988 57.461 C56.517 63.498 52.884 68.448 48.062 73.438 C42.248 79.46 38.126 85.685 34 93 C33.321 94.163 32.64 95.324 31.957 96.484 C30.292 99.316 28.641 102.154 27 105 C26 102 26 102 27.547 98.453 C28.271 97.047 29.006 95.646 29.75 94.25 C37.261 79.872 40 67.243 40 51 C39.34 51 38.68 51 38 51 C38 49.68 38 48.36 38 47 C37.01 46.67 36.02 46.34 35 46 C35 45.34 35 44.68 35 44 C32.69 43.67 30.38 43.34 28 43 C27.969 43.608 27.969 43.608 27.812 46.688 C26.868 54.808 23.439 62.182 19.809 69.426 C14.448 80.159 11.022 90.163 9 102 C8.67 102 8.34 102 8 102 C7.905 97.15 8.048 92.762 9 88 C9.468 79.931 7.825 72.71 6 64.875 C5.431 62.416 4.868 59.955 4.312 57.492 C4.061 56.413 3.81 55.334 3.551 54.222 C2.959 50.759 2.907 47.507 3 44 C3.66 44 4.32 44 5 44 C5.061 43.385 5.121 42.77 5.184 42.137 C5.267 41.328 5.351 40.52 5.438 39.688 C5.519 38.887 5.6 38.086 5.684 37.262 C6 35 6 35 7 32 C6.34 31.67 5.68 31.34 5 31 C5.598 30.897 6.196 30.794 6.812 30.688 C9.443 29.861 10.328 29.192 12 27 C12.512 24.082 12.512 24.082 12.688 20.812 C12.753 19.726 12.819 18.639 12.887 17.52 C12.924 16.688 12.961 15.857 13 15 C12.34 15 11.68 15 11 15 C10.484 14.113 9.969 13.226 9.438 12.312 C6.744 7.968 2.481 6.164 -2 4 C-1.34 2.68 -0.68 1.36 0 0 Z " fill="#98632A" transform="translate(54,47)"/>
<path d="M0 0 C6.205 3.63 12.061 8.411 14.391 15.398 C14.578 18.273 14.578 18.273 14.391 20.398 C15.051 20.068 15.711 19.738 16.391 19.398 C24.833 18.518 31.699 19.629 38.398 25.012 C43.709 30.023 46.5 34.486 46.891 41.898 C46.719 46.085 46.441 49.371 43.434 52.449 C38.556 54.716 32.626 53.781 27.391 53.398 C27.391 54.058 27.391 54.718 27.391 55.398 C28.248 55.34 29.105 55.282 29.988 55.223 C41.316 54.776 41.316 54.776 46.027 58.902 C51.038 64.401 52.815 68.98 52.746 76.363 C52.099 80.07 50.075 81.839 47.391 84.398 C43.889 85.566 41.064 85.532 37.391 85.398 C36.731 85.068 36.071 84.738 35.391 84.398 C35.391 83.408 35.391 82.418 35.391 81.398 C33.975 80.917 32.558 80.439 31.141 79.961 C30.352 79.694 29.563 79.427 28.75 79.152 C26.642 78.479 24.543 77.907 22.391 77.398 C22.226 77.893 22.226 77.893 21.391 80.398 C21.061 79.738 20.731 79.078 20.391 78.398 C18.739 77.696 17.071 77.029 15.391 76.398 C14.391 75.398 14.391 75.398 14.328 72.836 C14.349 72.032 14.369 71.227 14.391 70.398 C14.061 70.233 14.061 70.233 12.391 69.398 C13.208 65.088 14 61.514 17.523 58.688 C23.436 55.398 23.436 55.398 26.391 55.398 C26.391 53.418 26.391 51.438 26.391 49.398 C25.849 49.266 25.308 49.133 24.75 48.996 C22.037 48.309 19.34 47.575 16.641 46.836 C15.656 46.567 14.671 46.297 13.656 46.02 C12.909 45.815 12.161 45.61 11.391 45.398 C12.393 49.191 13.201 52.114 15.391 55.398 C15.016 57.586 15.016 57.586 14.391 59.398 C10.391 52.648 10.391 52.648 10.391 50.398 C9.731 50.398 9.071 50.398 8.391 50.398 C8.721 49.078 9.051 47.758 9.391 46.398 C8.648 46.151 7.906 45.903 7.141 45.648 C4.063 44.249 2.42 43.105 0.391 40.398 C0.141 37.148 0.141 37.148 0.391 34.398 C-0.269 34.563 -0.269 34.563 -3.609 35.398 C-4.269 38.368 -4.929 41.338 -5.609 44.398 C-5.939 44.398 -6.269 44.398 -6.609 44.398 C-6.279 40.438 -5.949 36.478 -5.609 32.398 C-11.879 31.738 -18.149 31.078 -24.609 30.398 C-24.939 33.368 -25.269 36.338 -25.609 39.398 C-25.939 39.398 -26.269 39.398 -26.609 39.398 C-26.609 37.088 -26.609 34.778 -26.609 32.398 C-27.476 32.378 -28.342 32.357 -29.234 32.336 C-33.837 31.057 -36.04 28.344 -38.609 24.398 C-38.609 23.738 -38.609 23.078 -38.609 22.398 C-37.949 22.398 -37.289 22.398 -36.609 22.398 C-36.279 21.738 -35.949 21.078 -35.609 20.398 C-35.022 20.574 -35.022 20.574 -32.047 21.461 C-22.18 23.643 -11.884 22.141 -2.609 18.398 C-2.582 16.815 -2.563 15.232 -2.547 13.648 C-2.535 12.767 -2.524 11.885 -2.512 10.977 C-2.603 8.578 -2.775 6.646 -3.609 4.398 C-6.047 3.211 -6.047 3.211 -8.609 2.398 C-9.269 2.068 -9.929 1.738 -10.609 1.398 C-12.65 1.328 -14.693 1.314 -16.734 1.336 C-17.83 1.345 -18.926 1.354 -20.055 1.363 C-20.476 1.369 -20.476 1.369 -22.609 1.398 C-22.609 0.408 -22.609 -0.582 -22.609 -1.602 C-15.171 -4.081 -7.068 -3.215 0 0 Z " fill="#94602A" transform="translate(93.609375,20.6015625)"/>
<path d="M0 0 C6.418 0.605 6.418 0.605 8.938 2.312 C10 4 10 4 10 8 C10.66 8 11.32 8 12 8 C15.315 14.629 12.265 28.12 10.16 34.965 C7.665 41.494 4.747 47.846 1.8 54.182 C1 56 1 56 0 59 C0.297 58.42 0.297 58.42 1.801 55.484 C6.501 46.542 11.257 39.085 18.32 31.871 C24.846 24.879 30.072 16.71 34 8 C38.565 8.543 41.973 9.795 46 12 C42.057 32.37 31.777 50.128 14.969 62.438 C13.079 63.937 11.676 65.425 10.188 67.312 C7.578 70.519 5.738 71.741 1.65 72.351 C-1.108 72.495 -3.865 72.635 -6.625 72.75 C-7.592 72.805 -8.559 72.861 -9.555 72.918 C-10.016 72.939 -10.016 72.939 -12.352 73.047 C-12.773 73.067 -12.773 73.067 -14.909 73.167 C-17 73 -17 73 -19 71 C-18.34 71 -17.68 71 -17 71 C-16.34 69.68 -15.68 68.36 -15 67 C-14.34 67 -13.68 67 -13 67 C-12.752 66.423 -12.505 65.845 -12.25 65.25 C-11 63 -11 63 -9.203 61.426 C-6.085 57.992 -4.42 54.13 -2.5 49.938 C-2.105 49.089 -1.71 48.24 -1.303 47.365 C3.418 37.103 6.978 27.658 7.688 16.375 C7.747 15.599 7.807 14.823 7.869 14.023 C7.996 12.019 8.006 10.008 8 8 C5.537 5.537 3.293 5.002 0 4 C0 2.68 0 1.36 0 0 Z " fill="#E9CB93" transform="translate(82,90)"/>
<path d="M0 0 C6.972 -0.591 6.972 -0.591 10.938 1.688 C13.663 6.064 13.562 9.652 13.762 14.73 C14.029 18.401 14.94 21.257 16.238 24.664 C17.495 28.519 17.987 32.492 18.57 36.496 C19 39 19 39 20 41 C20.095 42.498 20.13 43.999 20.125 45.5 C20.126 45.897 20.126 45.897 20.133 47.906 C20 50 20 50 19 52 C18.849 53.447 18.751 54.899 18.684 56.352 C18.642 57.202 18.6 58.053 18.557 58.93 C18.517 59.819 18.478 60.709 18.438 61.625 C18.394 62.522 18.351 63.419 18.307 64.344 C18.2 66.562 18.098 68.781 18 71 C16.02 71 14.04 71 12 71 C0.145 47.808 -6.197 26.229 0 0 Z " fill="#FCEFD1" transform="translate(40,86)"/>
<path d="M0 0 C2.256 1.086 4.374 2.233 6.5 3.562 C8.742 4.852 10.481 5.533 13 6 C13.33 7.32 13.66 8.64 14 10 C14.33 9.01 14.66 8.02 15 7 C24.186 6.689 24.186 6.689 28 9 C28.812 11.125 28.812 11.125 29 13 C29.99 13 30.98 13 32 13 C32 14.98 32 16.96 32 19 C31.397 19.28 30.793 19.559 30.172 19.848 C24.375 22.756 21.416 24.908 19 31 C18.407 35.3 18.488 37.189 20.812 40.875 C23 43 23 43 26 44 C25.291 56.281 18.519 67.248 13 78 C12.34 78 11.68 78 11 78 C10.146 74.567 9.321 71.128 8.5 67.688 C8.262 66.73 8.023 65.773 7.777 64.787 C5.539 55.291 5.373 46.55 7.312 37 C7.556 35.742 7.8 34.484 8.051 33.188 C9 30 9 30 10.562 28.449 C12.806 26.188 12.521 23.914 12.688 20.812 C12.753 19.726 12.819 18.639 12.887 17.52 C12.924 16.688 12.961 15.857 13 15 C12.34 15 11.68 15 11 15 C10.484 14.113 9.969 13.226 9.438 12.312 C6.744 7.968 2.481 6.164 -2 4 C-1.34 2.68 -0.68 1.36 0 0 Z " fill="#FAE9C5" transform="translate(54,47)"/>
<path d="M0 0 C6.75 1.625 6.75 1.625 9 5 C9.061 7.605 9.008 10.039 8.812 12.625 C8.76 13.351 8.707 14.076 8.653 14.824 C8.191 20.29 7.131 24.935 5 30 C4.576 31.128 4.152 32.256 3.715 33.418 C-5.057 56.607 -5.057 56.607 -14.398 63.73 C-16 65 -16 65 -17 67 C-17.66 67 -18.32 67 -19 67 C-19.083 64.624 -19.142 62.252 -19.188 59.875 C-19.213 59.229 -19.238 58.583 -19.264 57.918 C-19.439 45.614 -15.428 34.695 -10.062 23.812 C-6.274 15.989 -2.789 8.241 0 0 Z " fill="#FCEFD0" transform="translate(82,94)"/>
<path d="M0 0 C0.812 2.25 0.812 2.25 1 4 C1.66 4 2.32 4 3 4 C3.081 5.937 3.139 7.875 3.188 9.812 C3.205 10.352 3.205 10.352 3.293 13.082 C3 16 3 16 1.613 17.699 C1.081 18.128 0.549 18.558 0 19 C-0.66 19.99 -1.32 20.98 -2 22 C-2 21.34 -2 20.68 -2 20 C-3.65 20.33 -5.3 20.66 -7 21 C-7 24.63 -7 28.26 -7 32 C-7.33 32 -7.66 32 -8 32 C-8.33 28.04 -8.66 24.08 -9 20 C-11.646 19.973 -14.292 19.953 -16.938 19.938 C-17.692 19.929 -18.447 19.921 -19.225 19.912 C-21.15 19.903 -23.075 19.948 -25 20 C-25.33 20.33 -25.66 20.66 -26 21 C-29.375 20.875 -29.375 20.875 -33 20 C-35.551 17.202 -35.96 15.312 -36.438 11.562 C-35.904 7.216 -34.791 5.363 -32 2 C-31.572 1.46 -31.144 0.92 -30.703 0.363 C-25.915 -4.733 -20.139 -5.164 -13.523 -5.969 C-7.744 -6.02 -4.16 -3.929 0 0 Z " fill="#93612A" transform="translate(64,58)"/>
<path d="M0 0 C0.66 1.98 1.32 3.96 2 6 C5.3 6.66 8.6 7.32 12 8 C12.33 7.34 12.66 6.68 13 6 C13.028 7.667 13.047 9.333 13.062 11 C13.074 11.928 13.086 12.856 13.098 13.812 C13.005 16.843 12.637 19.766 12.238 22.769 C10.451 39.524 11.971 55.328 19.109 70.672 C19.256 71.056 19.256 71.056 20 73 C19.67 73.66 19.34 74.32 19 75 C12.21 64.33 8.981 52.213 8.27 39.664 C7.95 36.506 7.063 34.027 5.828 31.129 C3.22 24.424 1.811 17.134 1 10 C-3.334 8.415 -7.433 7.603 -12 7 C-11.93 10.911 -11.842 14.821 -11.738 18.731 C-11.689 20.699 -11.654 22.668 -11.619 24.637 C-11.178 40.441 -7.27 56.537 3 69 C4.746 70.594 6.547 72.064 8.402 73.527 C10.136 75.125 11.084 76.614 12.188 78.688 C14.753 83.377 14.753 83.377 18 85 C20.665 85.48 23.301 85.735 26 86 C26.33 86.33 26.66 86.66 27 87 C28.474 87.208 29.955 87.367 31.438 87.5 C35.781 87.89 35.781 87.89 38 89 C41.419 89.141 44.833 88.948 48.25 88.812 C49.192 88.794 50.135 88.775 51.105 88.756 C57.743 88.491 61.867 87.318 66.582 82.324 C66.785 82.054 66.785 82.054 67.812 80.688 C70.096 77.873 72.445 75.818 75.375 73.688 C89.605 62.866 96.041 45.594 101 29 C101.165 29.495 101.165 29.495 102 32 C102.66 32.33 103.32 32.66 104 33 C103.34 33 102.68 33 102 33 C101.853 33.632 101.706 34.263 101.555 34.914 C97.301 51.879 89.829 66.027 76 77 C74.766 78.036 73.537 79.078 72.312 80.125 C71.743 80.61 71.173 81.094 70.586 81.594 C69.143 82.873 67.784 84.245 66.438 85.625 C61.101 90.825 57.417 92.467 50.057 92.4 C49.11 92.371 48.163 92.342 47.188 92.312 C46.221 92.303 45.255 92.293 44.26 92.283 C37.169 92.169 37.169 92.169 36 91 C34.505 90.793 33.003 90.633 31.5 90.5 C27.111 90.111 27.111 90.111 26 89 C25.339 88.928 24.677 88.856 23.996 88.781 C18.393 88.165 15.43 86.994 11.688 82.688 C10.45 81.132 9.22 79.57 8 78 C7.175 77.196 6.35 76.391 5.5 75.562 C-9.149 60.548 -14.455 45.385 -14.264 24.705 C-14.239 23.033 -14.213 21.36 -14.188 19.688 C-14.172 17.964 -14.159 16.241 -14.146 14.518 C-14.114 10.345 -14.062 6.173 -14 2 C-9.124 0.513 -5.112 -0.209 0 0 Z " fill="#CBA266" transform="translate(27,73)"/>
<path d="M0 0 C0.66 0 1.32 0 2 0 C2 58.08 2 116.16 2 176 C-52.12 176 -106.24 176 -162 176 C-161.835 175.34 -161.835 175.34 -161 172 C-160.34 172.33 -159.68 172.66 -159 173 C-156.982 173.1 -154.961 173.135 -152.94 173.14 C-151.647 173.146 -150.354 173.152 -149.023 173.158 C-147.582 173.159 -146.141 173.16 -144.7 173.161 C-143.189 173.166 -141.678 173.171 -140.167 173.176 C-136.055 173.189 -131.943 173.196 -127.832 173.2 C-125.265 173.203 -122.697 173.207 -120.13 173.212 C-112.102 173.225 -104.073 173.235 -96.045 173.239 C-86.77 173.243 -77.495 173.261 -68.219 173.29 C-61.055 173.311 -53.89 173.322 -46.726 173.323 C-42.445 173.324 -38.163 173.33 -33.882 173.348 C-29.855 173.364 -25.829 173.366 -21.802 173.358 C-20.323 173.357 -18.844 173.361 -17.366 173.371 C-15.349 173.384 -13.331 173.376 -11.314 173.367 C-10.185 173.369 -9.055 173.37 -7.892 173.372 C-4.653 172.955 -3.265 172.329 -1 170 C-0.565 167.334 -0.397 165.068 -0.393 162.394 C-0.376 161.602 -0.36 160.81 -0.343 159.994 C-0.293 157.303 -0.273 154.613 -0.254 151.922 C-0.226 149.975 -0.197 148.028 -0.167 146.081 C-0.074 139.388 -0.033 132.694 0 126 C0.003 125.385 0.003 125.385 0.019 122.271 C0.106 103.751 0.102 85.232 0.072 66.713 C0.061 59.413 0.055 52.114 0.05 44.814 C0.04 29.876 0.023 14.938 0 0 Z " fill="#FDFDFB" transform="translate(162,9)"/>
<path d="M0 0 C0.99 0 1.98 0 3 0 C3 0.66 3 1.32 3 2 C3.66 1.67 4.32 1.34 5 1 C11.832 0.238 16.469 0.851 22 5 C24.872 8.496 24.342 12.692 24 17 C21.945 20.506 17.81 21.995 14 23 C5.538 24.169 -1.768 24.195 -10 22 C-10.99 22.33 -11.98 22.66 -13 23 C-13.299 17.924 -13.048 15.1 -10 11 C-9.237 9.948 -8.474 8.896 -7.688 7.812 C-4.801 4.791 -2.952 4.078 1 3 C1.33 2.34 1.66 1.68 2 1 C1.34 0.67 0.68 0.34 0 0 Z " fill="#B67C3F" transform="translate(68,20)"/>
<path d="M0 0 C5.766 0.867 5.766 0.867 7.875 2.062 C9.358 4.617 9.139 6.783 8.91 9.672 C9.008 12.21 9.65 14.361 10.387 16.779 C11.761 21.759 12.634 26.87 13.625 31.938 C13.854 33.098 14.084 34.259 14.32 35.455 C14.883 38.303 15.443 41.151 16 44 C16.66 44 17.32 44 18 44 C19.035 46.076 20.053 48.161 21.062 50.25 C21.631 51.41 22.199 52.57 22.785 53.766 C23.965 56.906 24.302 57.994 23 61 C20.783 59.798 18.577 58.581 16.383 57.336 C14.533 56.299 12.647 55.324 10.75 54.375 C6.534 50.734 4.923 46.144 3 41 C2.735 40.41 2.469 39.82 2.196 39.213 C-0.914 31.552 -0.33 23.546 -0.188 15.438 C-0.172 13.937 -0.159 12.436 -0.146 10.936 C-0.114 7.29 -0.062 3.645 0 0 Z " fill="#FCEFD2" transform="translate(16,83)"/>
<path d="M0 0 C0 0.66 0 1.32 0 2 C0.639 2.206 1.279 2.413 1.938 2.625 C4 4 4 4 5.062 6.812 C5 10 5 10 3 12.625 C-0.226 15.179 -3.369 17.078 -7 19 C-5.35 19 -3.7 19 -2 19 C-2.33 20.32 -2.66 21.64 -3 23 C0.96 23.33 4.92 23.66 9 24 C9 25.65 9 27.3 9 29 C8.252 29.133 7.505 29.266 6.734 29.402 C6.242 29.491 6.242 29.491 3.75 29.938 C2.775 30.112 1.801 30.286 0.797 30.465 C-1.484 30.901 -3.747 31.437 -6 32 C-6.66 29.36 -7.32 26.72 -8 24 C-8.66 24 -9.32 24 -10 24 C-9.67 25.65 -9.34 27.3 -9 29 C-10.65 28.34 -10.65 28.34 -19 25 C-19.33 25.33 -19.66 25.66 -20 26 C-22 26.041 -24 26.043 -26 26 C-24.68 25.34 -23.36 24.68 -22 24 C-22.33 23.01 -22.66 22.02 -23 21 C-22.283 15.794 -21.299 10.492 -17.062 7.062 C-16.557 6.722 -16.557 6.722 -14 5 C-13.639 4.629 -13.639 4.629 -11.812 2.75 C-8.311 -0.631 -4.615 -0.087 0 0 Z " fill="#B27A3E" transform="translate(41,22)"/>
<path d="M0 0 C8.555 -0.29 8.555 -0.29 13 2 C13.33 2.33 13.66 2.66 14 3 C15.525 2.911 17.047 2.755 18.562 2.562 C19.389 2.461 20.215 2.359 21.066 2.254 C21.385 2.212 21.385 2.212 23 2 C23.412 2.784 23.825 3.567 24.25 4.375 C26.093 7.14 27.103 7.648 30 9 C31 12 31 12 29.988 14.461 C26.517 20.498 22.884 25.448 18.062 30.438 C12.248 36.46 8.126 42.685 4 50 C3.321 51.163 2.64 52.324 1.957 53.484 C0.292 56.316 -1.359 59.154 -3 62 C-4 59 -4 59 -2.453 55.453 C-1.729 54.047 -0.994 52.646 -0.25 51.25 C7.261 36.872 10 24.243 10 8 C9.34 8 8.68 8 8 8 C8 6.68 8 5.36 8 4 C7.01 3.67 6.02 3.34 5 3 C5 2.34 5 1.68 5 1 C3.35 1 1.7 1 0 1 C0 0.67 0 0.34 0 0 Z " fill="#AD7F41" transform="translate(84,90)"/>
<path d="M0 0 C6.7 -0.252 12.503 0.323 19 2 C19 4.97 19 7.94 19 11 C19.66 8.69 20.32 6.38 21 4 C22.32 4 23.64 4 25 4 C25.113 4.536 25.113 4.536 25.688 7.25 C27.345 11.985 29.598 13.799 34 16 C33.67 16.66 33.34 17.32 33 18 C31.02 17.34 29.04 16.68 27 16 C27.495 16.825 27.99 17.65 28.5 18.5 C30.398 22.928 30.617 25.221 30 30 C27.818 32.575 26.1 33.848 22.714 34.315 C20.028 34.394 17.373 34.349 14.688 34.25 C14.222 34.241 14.222 34.241 11.865 34.195 C9.576 34.148 7.288 34.083 5 34 C4.808 28.227 5.283 25.543 9 21 C11.062 19.25 11.062 19.25 13 18 C13.99 17.34 14.98 16.68 16 16 C16.688 12.375 16.688 12.375 17 9 C16.01 9 15.02 9 14 9 C13.67 8.01 13.34 7.02 13 6 C8.878 3.751 4.598 3.468 0 3 C0 2.01 0 1.02 0 0 Z " fill="#B2793D" transform="translate(69,51)"/>
<path d="M0 0 C9.364 0 9.364 0 14 3 C15.263 5.895 15.546 8.891 16 12 C16.477 14.068 16.978 16.13 17.5 18.188 C17.737 19.15 17.974 20.113 18.219 21.105 C19 24 19 24 20.039 26.859 C21.175 30.573 21.532 34.217 21.875 38.062 C22.814 47.066 24.415 56.03 29.188 63.875 C31.287 67.495 31.664 69.884 32 74 C28.812 74.438 28.812 74.438 25 74 C22.562 70.938 22.562 70.938 21.391 69.008 C19.314 66.01 16.599 63.942 13.77 61.676 C11.903 59.908 10.999 58.351 10 56 C14.972 57.764 19.434 60.394 24 63 C23.407 59.475 22.466 56.539 20.938 53.312 C19 49.21 19 49.21 19 47 C18.34 47 17.68 47 17 47 C14.747 39.508 12.703 32.122 11.438 24.391 C11 22 11 22 9.875 18.312 C9.104 15.395 8.976 13.676 9.125 10.75 C9 7 9 7 7.25 5.062 C5 4 5 4 1 3 C1 11.58 1 20.16 1 29 C0.67 29 0.34 29 0 29 C0 19.43 0 9.86 0 0 Z " fill="#F5DEB0" transform="translate(15,80)"/>
<path d="M0 0 C3.188 -0.312 3.188 -0.312 6 0 C7.99 5.036 5.422 9.706 3.582 14.461 C1.39 19.366 -1.427 23.035 -5 27 C-5.654 27.794 -6.307 28.588 -6.98 29.406 C-10.925 34.106 -14.381 37.466 -20 40 C-20.99 40 -21.98 40 -23 40 C-22.644 33.232 -18.737 26.737 -14 22 C-13.86 21.542 -13.86 21.542 -13.152 19.223 C-11.839 15.551 -10.107 13.375 -7.562 10.438 C-5.238 7.738 -3.162 5.288 -1.414 2.18 C-0.947 1.46 -0.481 0.741 0 0 Z " fill="#FCECC9" transform="translate(112,106)"/>
<path d="M0 0 C2.625 2.188 2.625 2.188 4 5 C4 10.147 0.773 14.162 -2.688 17.75 C-8.695 20.997 -15.311 21.243 -22 21 C-22.37 16.371 -22.487 12.973 -20.375 8.75 C-14.623 2.09 -9.027 -1.448 0 0 Z " fill="#AF763B" transform="translate(23,50)"/>
<path d="M0 0 C0 0.99 0 1.98 0 3 C1.32 3.66 2.64 4.32 4 5 C4.321 8.453 4.249 10.525 2.625 13.625 C-3.314 18.998 -10.121 20.474 -17.969 20.238 C-20 20 -20 20 -22 19 C-22.506 14.951 -22.806 12.356 -20.688 8.793 C-14.804 1.715 -9.044 -0.476 0 0 Z " fill="#B77E40" transform="translate(51,53)"/>
<path d="M0 0 C-0.33 0.165 -0.33 0.165 -2 1 C-1.773 1.196 -1.773 1.196 -0.625 2.188 C1.318 4.355 2.166 6.218 3 9 C2.67 9.99 2.34 10.98 2 12 C1.67 11.67 1.34 11.34 1 11 C1 11.99 1 12.98 1 14 C0.374 15.682 -0.288 17.352 -1 19 C-8.287 19.548 -13.61 18.624 -20 15 C-20.33 14.67 -20.66 14.34 -21 14 C-20.812 10.625 -20.812 10.625 -20 7 C-18.062 5.312 -18.062 5.312 -16 4 C-15.728 3.33 -15.456 2.659 -15.176 1.969 C-14 0 -14 0 -11.758 -0.645 C-11.323 -0.672 -11.323 -0.672 -9.125 -0.812 C-8.261 -0.881 -7.398 -0.949 -6.508 -1.02 C-4.142 -1.001 -2.253 -0.686 0 0 Z " fill="#AE763B" transform="translate(134,77)"/>
<path d="M0 0 C3.716 -0.432 5.572 -0.257 8.812 1.688 C11.705 6.067 11.559 9.572 11.762 14.73 C12.029 18.401 12.94 21.257 14.238 24.664 C15.495 28.519 15.987 32.492 16.57 36.496 C17 39 17 39 18 41 C18.095 42.498 18.13 43.999 18.125 45.5 C18.126 45.897 18.126 45.897 18.133 47.906 C18 50 18 50 17 52 C16.849 53.447 16.751 54.899 16.684 56.352 C16.642 57.202 16.6 58.053 16.557 58.93 C16.517 59.819 16.478 60.709 16.438 61.625 C16.394 62.522 16.351 63.419 16.307 64.344 C16.2 66.562 16.098 68.781 16 71 C14.02 71 12.04 71 10 71 C8.683 68.419 7.371 65.835 6.062 63.25 C5.689 62.52 5.316 61.791 4.932 61.039 C4.574 60.33 4.216 59.621 3.848 58.891 C3.518 58.241 3.188 57.592 2.848 56.923 C1.985 54.967 1.456 53.085 1 51 C3.606 53.516 5.894 56.051 8 59 C9.875 58.688 9.875 58.688 12 58 C15.195 53.208 14.461 48.357 13.395 42.906 C12.873 40.683 12.339 38.463 11.793 36.246 C10.313 30.186 9.193 24.107 8.574 17.898 C8.499 17.182 8.424 16.466 8.346 15.728 C8.202 14.314 8.073 12.898 7.961 11.481 C7.623 8.191 7.208 6.259 5.117 3.652 C3.465 2.363 1.744 1.162 0 0 Z " fill="#F6DEB2" transform="translate(42,86)"/>
<path d="M0 0 C6.75 1.625 6.75 1.625 9 5 C9.061 7.605 9.008 10.039 8.812 12.625 C8.76 13.351 8.707 14.076 8.653 14.824 C8.191 20.29 7.131 24.935 5 30 C4.576 31.128 4.152 32.256 3.715 33.418 C-5.057 56.607 -5.057 56.607 -14.398 63.73 C-16 65 -16 65 -17 67 C-17.66 67 -18.32 67 -19 67 C-19.027 64.479 -19.047 61.958 -19.062 59.438 C-19.071 58.733 -19.079 58.029 -19.088 57.303 C-19.109 52.76 -18.748 48.482 -18 44 C-17.67 44 -17.34 44 -17 44 C-16.34 47.3 -15.68 50.6 -15 54 C-9.208 52.552 -7.053 48.97 -4 44 C-3.016 41.427 -2.287 38.897 -1.617 36.227 C-0.859 33.492 0.466 31.371 2 29 C2.905 26.067 3.179 23.293 3.316 20.234 C3.358 19.345 3.4 18.455 3.443 17.539 C3.483 16.619 3.522 15.698 3.562 14.75 C3.606 13.814 3.649 12.878 3.693 11.914 C3.799 9.61 3.901 7.305 4 5 C3.175 4.835 3.175 4.835 -1 4 C-0.67 2.68 -0.34 1.36 0 0 Z " fill="#F6E0B3" transform="translate(82,94)"/>
<path d="M0 0 C1.604 -0.054 3.208 -0.093 4.812 -0.125 C5.706 -0.148 6.599 -0.171 7.52 -0.195 C10 0 10 0 13 2 C13.949 6.133 14.408 8.719 13.125 12.75 C9.551 16.534 5.059 18.82 -0.191 19.129 C-4.414 18.736 -7.582 17.457 -11 15 C-6.375 10.125 -6.375 10.125 -3 9 C-2.051 6.934 -2.051 6.934 -1.312 4.438 C-1.061 3.611 -0.81 2.785 -0.551 1.934 C-0.369 1.296 -0.187 0.657 0 0 Z " fill="#B2793C" transform="translate(113,43)"/>
<path d="M0 0 C0.165 0.495 0.165 0.495 1 3 C1.33 3.165 1.33 3.165 3 4 C2.34 4 1.68 4 1 4 C0.853 4.632 0.706 5.263 0.555 5.914 C-3.699 22.879 -11.171 37.027 -25 48 C-26.234 49.036 -27.463 50.078 -28.688 51.125 C-28.972 51.367 -28.972 51.367 -30.414 52.594 C-31.857 53.873 -33.216 55.245 -34.562 56.625 C-39.899 61.825 -43.583 63.467 -50.943 63.4 C-51.89 63.371 -52.837 63.342 -53.812 63.312 C-54.296 63.308 -54.296 63.308 -56.74 63.283 C-63.831 63.169 -63.831 63.169 -65 62 C-66.495 61.793 -67.997 61.633 -69.5 61.5 C-73.889 61.111 -73.889 61.111 -75 60 C-75.661 59.928 -76.323 59.856 -77.004 59.781 C-82.572 59.169 -85.604 57.983 -89.375 53.75 C-92.128 50.3 -94.687 46.758 -97 43 C-94.152 43.651 -92.424 44.412 -90.695 46.809 C-89.852 48.236 -89.011 49.664 -88.172 51.094 C-86.69 53.504 -85.561 54.756 -83 56 C-80.335 56.476 -77.699 56.735 -75 57 C-74.835 57.165 -74.835 57.165 -74 58 C-72.526 58.208 -71.045 58.367 -69.562 58.5 C-65.219 58.89 -65.219 58.89 -63 60 C-59.581 60.141 -56.167 59.948 -52.75 59.812 C-51.808 59.794 -50.865 59.775 -49.895 59.756 C-43.257 59.491 -39.133 58.318 -34.418 53.324 C-34.012 52.784 -33.606 52.244 -33.188 51.688 C-30.904 48.873 -28.555 46.818 -25.625 44.688 C-11.395 33.866 -4.959 16.594 0 0 Z " fill="#BA9250" transform="translate(128,102)"/>
<path d="M0 0 C6.519 0.272 10.201 2.672 15 7 C18.284 10.63 20.898 13.763 21.125 18.75 C21.084 19.492 21.042 20.235 21 21 C21.66 20.67 22.32 20.34 23 20 C24.789 19.878 26.582 19.825 28.375 19.812 C29.331 19.798 30.288 19.784 31.273 19.77 C34.03 20.003 35.649 20.591 38 22 C38 22.66 38 23.32 38 24 C34.04 23.67 30.08 23.34 26 23 C25.732 24.423 25.464 25.846 25.188 27.312 C24.387 29.797 24.387 29.797 23 32 C18.554 34.213 13.94 35 9 35 C9 37.31 9 39.62 9 42 C8.34 41.67 7.68 41.34 7 41 C7 39.02 7 37.04 7 35 C6.34 35.165 6.34 35.165 3 36 C2.34 38.97 1.68 41.94 1 45 C0.67 45 0.34 45 0 45 C0.33 41.04 0.66 37.08 1 33 C-5.27 32.34 -11.54 31.68 -18 31 C-18.33 33.97 -18.66 36.94 -19 40 C-19.33 40 -19.66 40 -20 40 C-21.125 32.375 -21.125 32.375 -20 29 C-3.049 28.476 -3.049 28.476 4 32 C6.023 32.168 6.023 32.168 8.375 32.188 C9.146 32.202 9.917 32.216 10.711 32.23 C13.252 31.975 14.83 31.326 17 30 C19.55 26.557 19.358 23.157 19 19 C16.775 13.066 13.114 7.587 7.387 4.668 C4.944 3.69 2.506 2.798 0 2 C0 1.34 0 0.68 0 0 Z " fill="#865623" transform="translate(87,20)"/>
<path d="M0 0 C0.66 0 1.32 0 2 0 C3.717 7.257 1.348 12.539 -2 19 C-4.729 22.63 -7.799 25.788 -11 29 C-12.262 30.427 -13.512 31.864 -14.75 33.312 C-20.854 40.267 -27.437 47.586 -37 49 C-38 46 -38 46 -37.107 43.751 C-36.637 42.89 -36.168 42.028 -35.684 41.141 C-35.166 40.189 -34.648 39.238 -34.115 38.258 C-33.562 37.265 -33.008 36.273 -32.438 35.25 C-31.911 34.273 -31.384 33.296 -30.842 32.289 C-27.711 26.602 -24.419 21.758 -20 17 C-19.433 18.888 -19.433 18.888 -19 21 C-20.074 22.789 -20.074 22.789 -21.688 24.625 C-25.261 29.04 -27.144 33.672 -29 39 C-17.909 34.729 -9.075 25.767 -4 15 C0 4.677 0 4.677 0 0 Z " fill="#EFD4A0" transform="translate(118,107)"/>
<path d="M0 0 C0 0.99 0 1.98 0 3 C-0.66 3.33 -0.66 3.33 -4 5 C-2.68 3.35 -1.36 1.7 0 0 Z M-5 6 C-5 6.66 -5 7.32 -5 8 C-6.863 9.656 -6.863 9.656 -9.312 11.5 C-9.713 11.804 -9.713 11.804 -11.738 13.344 C-13.461 14.606 -15.223 15.815 -17 17 C-15.561 13.613 -13.779 11.641 -11 9.25 C-10.299 8.636 -9.597 8.023 -8.875 7.391 C-7 6 -7 6 -5 6 Z M8 16 C6.503 16.776 5.002 17.546 3.5 18.312 C3.082 18.527 3.082 18.527 0.969 19.613 C-5.852 22.799 -12.285 24.664 -19.75 25.688 C-20.657 25.813 -21.565 25.938 -22.5 26.067 C-36.143 27.8 -49.815 28.46 -63 24 C-64.237 23.608 -65.475 23.216 -66.75 22.812 C-67.121 22.678 -67.121 22.678 -69 22 C-69 21.01 -69 20.02 -69 19 C-67.354 19.14 -65.708 19.287 -64.062 19.438 C-63.604 19.478 -63.604 19.478 -61.285 19.684 C-59 20 -59 20 -58 21 C-56.505 21.207 -55.003 21.367 -53.5 21.5 C-49.111 21.889 -49.111 21.889 -48 23 C-37.727 24.139 -26.998 24.758 -18.449 18.312 C-18.21 18.096 -18.21 18.096 -17 17 C-18.875 20.875 -18.875 20.875 -20 22 C-11.753 20.988 -4.526 18.939 3.164 15.926 C6 15 6 15 8 16 Z " fill="#F0E3C7" transform="translate(112,141)"/>
<path d="M0 0 C2.585 1.292 2.899 2.359 4 5 C5.287 9.504 5.734 14.363 5 19 C3.062 21.625 3.062 21.625 0 23 C-3.079 23.01 -5.985 22.604 -9 22 C-9 22.66 -9 23.32 -9 24 C-10.438 23.858 -11.875 23.711 -13.312 23.562 C-14.113 23.481 -14.914 23.4 -15.738 23.316 C-18 23 -18 23 -21 22 C-21.33 22.99 -21.66 23.98 -22 25 C-24.915 23.926 -26.778 23.222 -29 21 C-29.27 18.312 -29.087 15.709 -29 13 C-25.37 12.01 -21.74 11.02 -18 10 C-20 14 -20 14 -22 16 C-16.454 18.432 -13.057 19.57 -7 18 C-3.93 16.784 -1.723 15.888 0.375 13.312 C1.316 9.832 1.12 6.6 1 3 C0.34 2.67 -0.32 2.34 -1 2 C-0.67 1.34 -0.34 0.68 0 0 Z " fill="#956029" transform="translate(125,42)"/>
<path d="M0 0 C0.66 3.3 1.32 6.6 2 10 C-2.62 9.01 -7.24 8.02 -12 7 C-11.925 10.911 -11.842 14.821 -11.738 18.731 C-11.689 20.699 -11.654 22.668 -11.619 24.637 C-11.158 41.152 -6.72 55.574 3 69 C3.66 69.99 4.32 70.98 5 72 C4.01 72 3.02 72 2 72 C-1.031 68.607 -3.48 64.782 -6 61 C-6.504 60.248 -7.008 59.497 -7.527 58.723 C-14.853 46.765 -14.395 33.196 -14.188 19.688 C-14.172 17.964 -14.159 16.241 -14.146 14.518 C-14.114 10.345 -14.062 6.173 -14 2 C-9.124 0.513 -5.112 -0.209 0 0 Z " fill="#C69F5F" transform="translate(27,73)"/>
<path d="M0 0 C4.95 0 9.9 0 15 0 C15.33 1.32 15.66 2.64 16 4 C16.33 3.01 16.66 2.02 17 1 C18.32 1 19.64 1 21 1 C20.34 4.96 19.68 8.92 19 13 C18.34 13 17.68 13 17 13 C17.082 13.495 17.082 13.495 17.5 16 C18.085 20.027 18.071 23.935 18 28 C16.68 28.33 15.36 28.66 14 29 C12.588 24.765 12.721 20.572 12.574 16.129 C11.893 12.415 11.014 11.219 8 9 C5.859 8.391 5.859 8.391 3.75 8.25 C2.513 8.168 1.275 8.085 0 8 C0 5.36 0 2.72 0 0 Z " fill="#EACB95" transform="translate(40,78)"/>
<path d="M0 0 C2.458 3.686 2.358 5.916 2.562 10.312 C2.789 14.957 3.142 19.427 4 24 C10.327 20.025 10.327 20.025 12.438 16.812 C13.154 13.232 13.05 9.846 12.875 6.207 C13 4 13 4 15 2 C16.32 2.66 17.64 3.32 19 4 C18.291 16.281 11.519 27.248 6 38 C5.34 38 4.68 38 4 38 C3.146 34.567 2.321 31.128 1.5 27.688 C1.262 26.73 1.023 25.773 0.777 24.787 C-1.202 16.39 -1.889 8.475 0 0 Z " fill="#E3BF83" transform="translate(61,87)"/>
<path d="M0 0 C2.256 1.086 4.374 2.233 6.5 3.562 C8.742 4.852 10.481 5.533 13 6 C13.33 7.32 13.66 8.64 14 10 C14.33 9.01 14.66 8.02 15 7 C24.186 6.689 24.186 6.689 28 9 C28.812 11.125 28.812 11.125 29 13 C29.99 13 30.98 13 32 13 C32 14.98 32 16.96 32 19 C25.25 23 25.25 23 23 23 C22.918 21.907 22.835 20.814 22.75 19.688 C22 16 22 16 19.938 14.062 C19.298 13.712 18.659 13.361 18 13 C18.33 12.34 18.66 11.68 19 11 C17.68 11 16.36 11 15 11 C14.67 15.62 14.34 20.24 14 25 C13.67 25 13.34 25 13 25 C13 21.7 13 18.4 13 15 C12.34 15 11.68 15 11 15 C10.484 14.113 9.969 13.226 9.438 12.312 C6.744 7.968 2.481 6.164 -2 4 C-1.34 2.68 -0.68 1.36 0 0 Z " fill="#DFBF8F" transform="translate(54,47)"/>
<path d="M0 0 C0.99 0 1.98 0 3 0 C4.126 3.377 3.82 4.595 3.062 8 C0.84 19.757 2.743 29.633 5.633 41.068 C6 43 6 43 6 47 C6.66 47 7.32 47 8 47 C8.249 46.179 8.498 45.358 8.754 44.512 C10.198 40.443 12.034 36.681 13.938 32.812 C17.06 26.35 19.536 20.061 21 13 C21.66 13 22.32 13 23 13 C22.461 22.168 18.881 30.305 14.809 38.43 C9.446 49.16 6.022 59.164 4 71 C3.67 71 3.34 71 3 71 C2.905 66.15 3.048 61.762 4 57 C4.468 48.931 2.825 41.71 1 33.875 C0.431 31.416 -0.132 28.955 -0.688 26.492 C-0.939 25.413 -1.19 24.334 -1.449 23.222 C-2.041 19.759 -2.093 16.507 -2 13 C-1.34 13 -0.68 13 0 13 C0.03 12.693 0.03 12.693 0.184 11.137 C0.225 10.733 0.225 10.733 0.438 8.688 C0.519 7.887 0.6 7.086 0.684 6.262 C1 4 1 4 2 1 C1.34 0.67 0.68 0.34 0 0 Z " fill="#C09655" transform="translate(59,78)"/>
<path d="M0 0 C0 0.66 0 1.32 0 2 C3.3 2.33 6.6 2.66 10 3 C11.247 8.143 12.027 12.848 9.688 17.75 C5.689 21.097 1.119 22.234 -4 23 C-4.99 22.67 -5.98 22.34 -7 22 C0.714 16 0.714 16 4 16 C4.75 12.75 4.75 12.75 5 9 C3.062 6.687 3.062 6.687 1 5 C1 4.34 1 3.68 1 3 C-0.605 3.31 -2.209 3.623 -3.812 3.938 C-4.706 4.112 -5.599 4.286 -6.52 4.465 C-9 5 -9 5 -12 6 C-12.702 7.315 -13.365 8.651 -14 10 C-15.5 11.75 -15.5 11.75 -17 13 C-17.66 13 -18.32 13 -19 13 C-19.66 16.63 -20.32 20.26 -21 24 C-21.66 24 -22.32 24 -23 24 C-23.423 17.869 -23.141 14.848 -19 10 C-8.439 -0.482 -8.439 -0.482 0 0 Z " fill="#A97135" transform="translate(40,19)"/>
<path d="M0 0 C0.66 0.33 1.32 0.66 2 1 C1.835 1.66 1.67 2.32 1.5 3 C0.547 8.72 0.35 13.699 3 19 C3.66 19 4.32 19 5 19 C5.99 15.7 6.98 12.4 8 9 C11 12 11 12 11.398 14.926 C11.318 26.538 11.318 26.538 8 31 C3.684 35 3.684 35 1 35 C-1.495 29.121 -1.516 23.224 -1.75 16.938 C-1.805 15.862 -1.861 14.786 -1.918 13.678 C-1.961 12.638 -2.003 11.598 -2.047 10.527 C-2.087 9.586 -2.126 8.645 -2.167 7.676 C-1.984 4.752 -1.224 2.645 0 0 Z " fill="#F2D5A3" transform="translate(64,76)"/>
<path d="M0 0 C1.938 0.312 1.938 0.312 4 1 C5 4 5 4 3.988 6.461 C0.517 12.498 -3.116 17.448 -7.938 22.438 C-13.752 28.46 -17.874 34.685 -22 42 C-22.679 43.163 -23.36 44.324 -24.043 45.484 C-25.708 48.316 -27.359 51.154 -29 54 C-30 51 -30 51 -28.453 47.453 C-27.729 46.047 -26.994 44.646 -26.25 43.25 C-20.302 31.863 -17.021 21.875 -16 9 C-13.415 13.38 -14.185 16.111 -15 21 C-14.34 21 -13.68 21 -13 21 C-13 21.99 -13 22.98 -13 24 C-5.871 18.129 -2.014 8.863 0 0 Z " fill="#BA8D4D" transform="translate(110,98)"/>
<path d="M0 0 C0.33 0.99 0.66 1.98 1 3 C1.784 2.814 2.567 2.629 3.375 2.438 C6 2 6 2 8 3 C7.522 7.304 5.243 9.309 2 12 C-1.284 13.921 -4.248 15.413 -8.07 14.512 C-10 13.688 -10 13.688 -13 12 C-12.453 8.625 -11.945 6.918 -10 4 C-9.34 4 -8.68 4 -8 4 C-8 3.34 -8 2.68 -8 2 C-4.772 -0.152 -3.716 -0.201 0 0 Z " fill="#C68D4F" transform="translate(74,25)"/>
<path d="M0 0 C1.98 0.66 3.96 1.32 6 2 C6.994 6.099 7.525 9.797 7 14 C5.193 16.118 3.317 17.378 1 19 C-1 21 -1 21 -2 23 C-0.02 23.33 1.96 23.66 4 24 C4 24.33 4 24.66 4 25 C3.428 24.994 3.428 24.994 0.535 24.965 C-0.956 24.955 -2.447 24.946 -3.938 24.938 C-4.692 24.929 -5.447 24.921 -6.225 24.912 C-8.15 24.903 -10.075 24.948 -12 25 C-12.33 25.33 -12.66 25.66 -13 26 C-16.375 25.875 -16.375 25.875 -20 25 C-22.734 22.001 -22.987 20.257 -23.188 16.188 C-23.126 15.136 -23.064 14.084 -23 13 C-22.67 13 -22.34 13 -22 13 C-22 14.98 -22 16.96 -22 19 C-14.045 19.492 -6.959 19.279 0 15 C2.32 12.427 2.955 11.375 3.375 7.875 C3.251 6.926 3.127 5.977 3 5 C2.01 4.34 1.02 3.68 0 3 C0 2.01 0 1.02 0 0 Z " fill="#9F692E" transform="translate(51,53)"/>
<path d="M0 0 C-0.33 0.165 -0.33 0.165 -2 1 C-1.34 1.99 -0.68 2.98 0 4 C-0.023 6.48 -0.023 6.48 -0.375 9.188 C-0.43 9.638 -0.43 9.638 -0.711 11.918 C-0.759 12.262 -0.759 12.262 -1 14 C-5.622 16.219 -8.768 17.383 -14 17 C-13.34 16.67 -12.68 16.34 -12 16 C-12.66 14.68 -13.32 13.36 -14 12 C-14.99 12.33 -15.98 12.66 -17 13 C-16.513 8.723 -15.422 6.979 -12.125 4.25 C-11.426 3.657 -10.728 3.064 -10.008 2.453 C-6.69 0.052 -3.974 -0.107 0 0 Z " fill="#B98144" transform="translate(19,50)"/>
<path d="M0 0 C0.281 4.62 -0.331 7.34 -2.59 11.363 C-3.127 12.332 -3.664 13.301 -4.217 14.299 C-4.785 15.293 -5.352 16.288 -5.938 17.312 C-6.501 18.326 -7.065 19.34 -7.646 20.385 C-11.786 27.786 -11.786 27.786 -13 29 C-18.736 29.273 -18.736 29.273 -21 29 C-21.66 28.34 -22.32 27.68 -23 27 C-22.34 27 -21.68 27 -21 27 C-20.34 25.68 -19.68 24.36 -19 23 C-18.34 23 -17.68 23 -17 23 C-16.752 22.423 -16.505 21.845 -16.25 21.25 C-15 19 -15 19 -13.145 17.273 C-9.743 13.667 -7.902 9.295 -5.684 4.898 C-2.838 0 -2.838 0 0 0 Z " fill="#EDD19A" transform="translate(86,134)"/>
<path d="M0 0 C1.65 0 3.3 0 5 0 C5.963 2.987 6.732 5.867 7 9 C5.269 12.254 3.823 13.545 0.625 15.312 C-2.395 16.103 -4.891 16.276 -8 16 C-8.66 15.34 -9.32 14.68 -10 14 C-10 12.68 -10 11.36 -10 10 C-9.01 10 -8.02 10 -7 10 C-6.897 9.402 -6.794 8.804 -6.688 8.188 C-5.895 5.666 -5.084 4.603 -3 3 C-2.01 3 -1.02 3 0 3 C0 2.01 0 1.02 0 0 Z " fill="#C1884A" transform="translate(41,54)"/>
<path d="M0 0 C2.125 1.812 2.125 1.812 4 5 C3.895 11.809 1.728 17.407 -2 23 C-4.31 23 -6.62 23 -9 23 C-9.526 16.824 -8.077 12.372 -5 7 C-2.812 4.625 -2.812 4.625 -1 3 C-0.67 2.01 -0.34 1.02 0 0 Z " fill="#D5A968" transform="translate(106,92)"/>
<path d="M0 0 C4.565 0.543 7.973 1.795 12 4 C10.743 10.492 9.343 17.221 6 23 C3.867 24.285 3.867 24.285 2 25 C2.144 24.216 2.289 23.433 2.438 22.625 C3.14 18.098 3.576 13.561 4 9 C1.69 8.67 -0.62 8.34 -3 8 C-1.125 2.25 -1.125 2.25 0 0 Z " fill="#E3C080" transform="translate(116,98)"/>
<path d="M0 0 C3.671 5.506 8 14.31 8 21 C4.812 21.438 4.812 21.438 1 21 C-1.438 17.938 -1.438 17.938 -2.609 16.008 C-4.686 13.01 -7.401 10.942 -10.23 8.676 C-12.097 6.908 -13.001 5.351 -14 3 C-9.015 4.769 -4.588 7.398 0 10 C0 6.7 0 3.4 0 0 Z " fill="#F2D9A9" transform="translate(39,133)"/>
<path d="M0 0 C-0.33 0.495 -0.33 0.495 -2 3 C-1.67 3.33 -1.34 3.66 -1 4 C-0.54 8.37 -0.54 8.37 -2.16 10.59 C-4.604 12.463 -6.66 12.725 -9.688 13.188 C-10.681 13.346 -11.675 13.505 -12.699 13.668 C-13.458 13.778 -14.218 13.887 -15 14 C-15.419 9.144 -15.459 6.856 -13.125 2.5 C-9.555 -1.329 -4.837 -0.507 0 0 Z " fill="#BE8546" transform="translate(95,68)"/>
<path d="M0 0 C-0.33 0.99 -0.66 1.98 -1 3 C-1.887 3.247 -2.774 3.495 -3.688 3.75 C-8.102 5.416 -10.369 8.153 -13 12 C-14.351 16.053 -14.821 19.775 -14 24 C-12.197 26.287 -10.489 27.392 -8 29 C-8.99 29.33 -9.98 29.66 -11 30 C-11.99 29.01 -12.98 28.02 -14 27 C-14.99 27.33 -15.98 27.66 -17 28 C-16.67 29.32 -16.34 30.64 -16 32 C-18.97 32 -21.94 32 -25 32 C-24.67 31.34 -24.34 30.68 -24 30 C-22.68 30 -21.36 30 -20 30 C-20 28.35 -20 26.7 -20 25 C-25.28 25 -30.56 25 -36 25 C-36 24.67 -36 24.34 -36 24 C-29.73 23.34 -23.46 22.68 -17 22 C-17 19.69 -17 17.38 -17 15 C-16.125 12.926 -16.125 12.926 -15 11.312 C-13 8 -13 8 -13 4 C-12.258 3.897 -11.515 3.794 -10.75 3.688 C-8 3 -8 3 -5.938 1.438 C-4 0 -4 0 0 0 Z " fill="#885724" transform="translate(70,21)"/>
<path d="M0 0 C5.661 0.497 9.877 1.545 15 4 C15.5 6.688 15.5 6.688 15 10 C12.198 12.476 8.835 15 5 15 C4.723 14.434 4.446 13.868 4.16 13.285 C3.798 12.552 3.436 11.818 3.062 11.062 C2.703 10.332 2.343 9.601 1.973 8.848 C1 7 1 7 0 6 C-0.041 4 -0.043 2 0 0 Z " fill="#C49354" transform="translate(105,66)"/>
<path d="M0 0 C0.825 0.165 0.825 0.165 5 1 C5.268 2.237 5.536 3.475 5.812 4.75 C9.138 19.678 9.138 19.678 11.055 24.84 C12.215 28.719 12.45 32.349 12.625 36.375 C12.664 37.111 12.702 37.847 12.742 38.605 C12.836 40.403 12.919 42.202 13 44 C8.67 37.506 6.717 30.504 5.496 22.863 C4.626 17.839 3.279 12.932 2 8 C1.602 6.417 1.206 4.834 0.812 3.25 C0.544 2.177 0.276 1.105 0 0 Z " fill="#E8C891" transform="translate(24,82)"/>
<path d="M0 0 C4.875 1.75 4.875 1.75 6 4 C6.255 8.5 6.214 12.016 4 16 C-0.382 19.958 -4.309 20.158 -10.062 20.188 C-11.312 20.202 -12.561 20.216 -13.848 20.23 C-17 20 -17 20 -19 18 C-16.569 15.569 -10.809 16.008 -7.516 15.598 C-4.387 15.066 -1.873 14.31 1 13 C1.027 11.396 1.046 9.792 1.062 8.188 C1.074 7.294 1.086 6.401 1.098 5.48 C1 3 1 3 0 0 Z " fill="#A76F34" transform="translate(90,26)"/>
<path d="M0 0 C0.33 0.99 0.66 1.98 1 3 C1.66 3.33 2.32 3.66 3 4 C2.34 4 1.68 4 1 4 C0.853 4.632 0.706 5.263 0.555 5.914 C-3.544 22.261 -10.859 38.009 -25 48 C-28 49.438 -28 49.438 -30 50 C-30 49.34 -30 48.68 -30 48 C-28.708 46.947 -27.364 45.958 -26 45 C-11.579 33.964 -5.046 16.885 0 0 Z " fill="#B99455" transform="translate(128,102)"/>
<path d="M0 0 C2.585 1.292 2.899 2.359 4 5 C5.288 9.509 5.726 14.358 5 19 C3.125 21.625 3.125 21.625 0 23 C-4.967 23.158 -8.83 22.78 -13 20 C-12.157 19.685 -11.314 19.371 -10.445 19.047 C-9.35 18.619 -8.254 18.191 -7.125 17.75 C-6.034 17.332 -4.944 16.915 -3.82 16.484 C-1 15 -1 15 0.375 13.094 C1.043 10.857 1.203 9.078 1.125 6.75 C1.084 5.513 1.043 4.275 1 3 C0.34 2.67 -0.32 2.34 -1 2 C-0.67 1.34 -0.34 0.68 0 0 Z " fill="#A16A30" transform="translate(125,42)"/>
<path d="M0 0 C0.66 0 1.32 0 2 0 C3.717 7.257 1.348 12.539 -2 19 C-4.73 22.631 -7.81 25.777 -11 29 C-12.237 30.493 -13.467 31.993 -14.688 33.5 C-17.459 36.712 -19.734 38.168 -24 39 C-23.639 38.642 -23.639 38.642 -21.812 36.832 C0 14.868 0 14.868 0 0 Z " fill="#F4DCAD" transform="translate(118,107)"/>
<path d="M0 0 C0.99 0 1.98 0 3 0 C2.503 7.786 -0.791 13.954 -6.188 19.562 C-9 22 -9 22 -11 22 C-10.374 17.368 -10.374 17.368 -8.547 15.57 C-6.81 13.807 -6.305 12.526 -5.562 10.188 C-4.181 6.274 -2.6 3.25 0 0 Z " fill="#FDF0D4" transform="translate(111,108)"/>
<path d="M0 0 C9.186 -0.311 9.186 -0.311 13 2 C13.812 4.125 13.812 4.125 14 6 C14.99 6 15.98 6 17 6 C17 7.98 17 9.96 17 12 C15.68 12.66 15.68 12.66 9 16 C10 12 10 12 11 10 C7.934 5.34 5.413 4.145 0 3 C0 2.01 0 1.02 0 0 Z " fill="#E4C188" transform="translate(69,54)"/>
<path d="M0 0 C0.66 3.3 1.32 6.6 2 10 C1.01 9.67 0.02 9.34 -1 9 C-5.086 7.813 -8.763 7.851 -13 8 C-13 6.02 -13 4.04 -13 2 C-8.496 0.243 -4.824 -0.193 0 0 Z " fill="#DBB376" transform="translate(27,73)"/>
<path d="M0 0 C2 2 2 2 2 4 C3.32 4.33 4.64 4.66 6 5 C6 5.66 6 6.32 6 7 C7.114 6.34 8.227 5.68 9.375 5 C12.75 3 12.75 3 15 3 C13.827 6.285 12.007 8.366 9.062 10.25 C4.576 11.881 -0.312 11.208 -5 11 C-3.35 7.37 -1.7 3.74 0 0 Z " fill="#E3C183" transform="translate(79,151)"/>
<path d="M0 0 C6.7 -0.252 12.503 0.323 19 2 C18.67 6.29 18.34 10.58 18 15 C17.67 15 17.34 15 17 15 C17 13.02 17 11.04 17 9 C16.01 9 15.02 9 14 9 C13.67 8.01 13.34 7.02 13 6 C8.878 3.751 4.598 3.468 0 3 C0 2.01 0 1.02 0 0 Z " fill="#D1A566" transform="translate(69,51)"/>
<path d="M0 0 C1.272 0.009 2.545 0.018 3.855 0.027 C4.343 0.033 4.343 0.033 6.812 0.062 C6.812 1.712 6.812 3.362 6.812 5.062 C6.065 5.195 5.317 5.328 4.547 5.465 C4.054 5.553 4.054 5.553 1.562 6 C0.588 6.174 -0.387 6.348 -1.391 6.527 C-3.685 6.966 -5.93 7.466 -8.188 8.062 C-8.847 5.752 -9.508 3.443 -10.188 1.062 C-6.627 -0.124 -3.749 -0.034 0 0 Z " fill="#D0A265" transform="translate(43.1875,45.9375)"/>
<path d="M0 0 C0.99 0.33 1.98 0.66 3 1 C1.47 4.442 -0.627 7.092 -3 10 C-4.798 13.597 -4.346 17.537 -3.438 21.375 C-2 23 -2 23 1.312 23.812 C4.515 23.975 6.931 23.837 10 23 C8.437 25.062 8.437 25.062 6 27 C2.375 26.809 -0.565 26.145 -4 25 C-6 22 -6 22 -6 19 C-8.145 19.165 -8.145 19.165 -19 20 C-14.602 17.801 -11.814 17.481 -7 17 C-6.949 16.566 -6.949 16.566 -6.691 14.367 C-5.955 10.779 -4.753 8.292 -2.938 5.125 C-2.39 4.158 -1.842 3.191 -1.277 2.195 C-0.856 1.471 -0.434 0.746 0 0 Z " fill="#84531D" transform="translate(33,54)"/>
<path d="M0 0 C7 0 7 0 9.312 1.312 C11.923 5.469 12.806 10.112 13 15 C12.67 15.495 12.67 15.495 11 18 C8.892 14.838 8.821 14.491 9.125 11 C9.221 7.245 9.221 7.245 7.25 5.062 C5 4 5 4 1 3 C1 11.58 1 20.16 1 29 C0.67 29 0.34 29 0 29 C0 19.43 0 9.86 0 0 Z " fill="#F0D5A3" transform="translate(15,80)"/>
<path d="M0 0 C0.33 0 0.66 0 1 0 C1.33 4.29 1.66 8.58 2 13 C2.66 13 3.32 13 4 13 C3.988 13.785 3.977 14.57 3.965 15.379 C3.926 19.957 3.904 24.337 4.562 28.875 C5.026 32.186 4.713 34.751 4 38 C2 37 2 37 0.887 34.398 C-0.088 30.664 -0.227 27.489 -0.195 23.633 C-0.192 22.953 -0.19 22.274 -0.187 21.573 C-0.176 19.424 -0.151 17.275 -0.125 15.125 C-0.115 13.659 -0.106 12.193 -0.098 10.727 C-0.076 7.151 -0.041 3.575 0 0 Z " fill="#FCF5DD" transform="translate(16,84)"/>
<path d="M0 0 C1.98 0.66 3.96 1.32 6 2 C6.994 6.099 7.525 9.797 7 14 C4.786 16.657 2.093 18.453 -1 20 C-2.54 20.07 -4.083 20.085 -5.625 20.062 C-6.034 20.058 -6.034 20.058 -8.102 20.035 C-8.728 20.024 -9.355 20.012 -10 20 C-7.03 18.02 -4.071 16.584 -0.84 15.098 C1 14 1 14 3 11 C3.312 7.938 3.312 7.938 3 5 C2.01 4.34 1.02 3.68 0 3 C0 2.01 0 1.02 0 0 Z " fill="#A76E32" transform="translate(51,53)"/>
<path d="M0 0 C0.33 0 0.66 0 1 0 C1.037 0.92 1.075 1.841 1.113 2.789 C1.773 15.491 3.692 27.027 9.109 38.672 C9.403 39.44 9.697 40.208 10 41 C9.67 41.66 9.34 42.32 9 43 C1.373 31.014 -3.072 16.327 -0.48 2.16 C-0.322 1.447 -0.163 0.734 0 0 Z " fill="#C8A061" transform="translate(37,105)"/>
<path d="M0 0 C0.33 0 0.66 0 1 0 C1.937 4.823 2.208 9.562 2.316 14.461 C2.337 15.252 2.358 16.042 2.379 16.857 C2.444 19.363 2.504 21.869 2.562 24.375 C2.606 26.082 2.649 27.789 2.693 29.496 C2.8 33.664 2.901 37.832 3 42 C-0.1 37.35 -0.133 34.179 -0.098 28.711 C-0.096 27.893 -0.095 27.074 -0.093 26.231 C-0.088 23.612 -0.075 20.994 -0.062 18.375 C-0.057 16.602 -0.053 14.828 -0.049 13.055 C-0.038 8.703 -0.021 4.352 0 0 Z " fill="#BD9154" transform="translate(13,75)"/>
<path d="M0 0 C0.66 0 1.32 0 2 0 C1.3 11.903 -4.552 22.61 -10 33 C-10.33 33 -10.66 33 -11 33 C-10.493 27.655 -9.073 23.54 -6.625 18.75 C-3.627 12.645 -1.456 6.67 0 0 Z " fill="#C09556" transform="translate(80,91)"/>
<path d="M0 0 C2.333 -0.042 4.667 -0.041 7 0 C7.33 0.33 7.66 0.66 8 1 C9.495 1.207 10.997 1.367 12.5 1.5 C16.889 1.889 16.889 1.889 18 3 C21.238 3.073 24.465 2.996 27.703 2.938 C30.628 2.993 33.166 3.318 36 4 C34 6 34 6 31.649 6.167 C31.168 6.147 31.168 6.147 28.73 6.047 C27.677 6.004 26.623 5.962 25.537 5.918 C24.432 5.863 23.326 5.807 22.188 5.75 C21.641 5.73 21.641 5.73 18.873 5.629 C13.775 5.399 9.699 5.124 5 3 C5 2.34 5 1.68 5 1 C3.35 1 1.7 1 0 1 C0 0.67 0 0.34 0 0 Z " fill="#E9D5AF" transform="translate(46,161)"/>
<path d="M0 0 C1.32 0 2.64 0 4 0 C4.227 1.072 4.454 2.145 4.688 3.25 C6.345 7.985 8.598 9.799 13 12 C12.67 12.66 12.34 13.32 12 14 C11.154 13.526 10.309 13.051 9.438 12.562 C5.874 10.943 2.874 10.387 -1 10 C-1.027 8.521 -1.046 7.042 -1.062 5.562 C-1.074 4.739 -1.086 3.915 -1.098 3.066 C-1 1 -1 1 0 0 Z " fill="#F3EDDF" transform="translate(90,55)"/>
<path d="M0 0 C0.825 0.165 0.825 0.165 5 1 C8.644 16.283 8.644 16.283 7.062 20.5 C6.712 20.995 6.361 21.49 6 22 C3.718 18.227 3.161 14.153 2.438 9.875 C1.12 2.24 1.12 2.24 0 0 Z " fill="#E4C084" transform="translate(24,82)"/>
<path d="M0 0 C4 2 8 4 12 6 C12 8.64 12 11.28 12 14 C11.576 13.613 11.152 13.227 10.715 12.828 C6.697 9.261 2.746 6.518 -2 4 C-1.34 2.68 -0.68 1.36 0 0 Z " fill="#F4EEE2" transform="translate(54,47)"/>
<path d="M0 0 C11.25 -0.268 11.25 -0.268 15 2 C15 2.66 15 3.32 15 4 C11.04 3.67 7.08 3.34 3 3 C2.01 5.97 1.02 8.94 0 12 C-0.66 11.67 -1.32 11.34 -2 11 C-1.34 7.37 -0.68 3.74 0 0 Z " fill="#895A29" transform="translate(110,40)"/>
<path d="M0 0 C0.33 0 0.66 0 1 0 C1.649 10.488 -0.292 20.695 -2 31 C-2.66 31 -3.32 31 -4 31 C-5.423 27.177 -6.24 24.087 -6 20 C-5.01 21.32 -4.02 22.64 -3 24 C-2.945 23.344 -2.889 22.688 -2.832 22.012 C-2.58 19.049 -2.321 16.087 -2.062 13.125 C-1.975 12.092 -1.888 11.06 -1.799 9.996 C-1.712 9.01 -1.625 8.024 -1.535 7.008 C-1.457 6.097 -1.378 5.185 -1.297 4.247 C-1 2 -1 2 0 0 Z " fill="#B88B4B" transform="translate(39,79)"/>
<path d="M0 0 C0.66 0 1.32 0 2 0 C3.65 3.63 5.3 7.26 7 11 C-0.262 11.615 -0.262 11.615 -4 8.5 C-4.66 7.675 -5.32 6.85 -6 6 C-2.99 5.066 -2.133 4.956 1 6 C0.67 4.02 0.34 2.04 0 0 Z " fill="#E7C88F" transform="translate(46,148)"/>
<path d="M0 0 C0.33 0.99 0.66 1.98 1 3 C3.97 3 6.94 3 10 3 C10 3.33 10 3.66 10 4 C9.371 4.014 8.742 4.028 8.094 4.043 C1.642 4.402 -3.09 5.655 -8 10 C-10.413 13.82 -10.485 17.553 -10 22 C-8 24.438 -8 24.438 -6 26 C-10.875 24.125 -10.875 24.125 -12 23 C-12.041 21.334 -12.043 19.666 -12 18 C-12.66 17.67 -13.32 17.34 -14 17 C-13.183 12.69 -12.391 9.116 -8.867 6.289 C-2.954 3 -2.954 3 0 3 C0 2.01 0 1.02 0 0 Z " fill="#84531E" transform="translate(120,73)"/>
<path d="M0 0 C4.95 0 9.9 0 15 0 C14.67 1.98 14.34 3.96 14 6 C13.34 6 12.68 6 12 6 C12 5.34 12 4.68 12 4 C8.04 4 4.08 4 0 4 C0 2.68 0 1.36 0 0 Z " fill="#DAB171" transform="translate(40,78)"/>
<path d="M0 0 C1.04 -0.014 2.081 -0.028 3.152 -0.043 C6.013 0.184 7.639 0.71 10.062 2.188 C9.073 2.188 8.082 2.188 7.062 2.188 C7.062 2.848 7.062 3.508 7.062 4.188 C8.052 4.188 9.043 4.188 10.062 4.188 C9.733 5.178 9.403 6.168 9.062 7.188 C8.32 6.692 7.578 6.197 6.812 5.688 C1.947 3.184 -3.623 3.955 -8.938 4.188 C-8.938 3.197 -8.938 2.207 -8.938 1.188 C-5.746 0.124 -3.353 0.021 0 0 Z " fill="#906B40" transform="translate(79.9375,17.8125)"/>
<path d="M0 0 C0.99 0 1.98 0 3 0 C4.111 3.332 3.859 4.46 3.125 7.812 C1.797 14.505 1.377 21.197 1 28 C-1.77 25.23 -1.398 23.235 -1.625 19.375 C-1.7 18.186 -1.775 16.998 -1.852 15.773 C-1.901 14.858 -1.95 13.943 -2 13 C-1.34 13 -0.68 13 0 13 C0.03 12.693 0.03 12.693 0.184 11.137 C0.225 10.733 0.225 10.733 0.438 8.688 C0.519 7.887 0.6 7.086 0.684 6.262 C1 4 1 4 2 1 C1.34 0.67 0.68 0.34 0 0 Z " fill="#AF8245" transform="translate(59,78)"/>
<path d="M0 0 C2.64 0 5.28 0 8 0 C8 0.99 8 1.98 8 3 C7.34 3 6.68 3 6 3 C5.691 3.639 5.381 4.279 5.062 4.938 C4 7 4 7 3 8 C1 8.041 -1 8.043 -3 8 C-2.372 5.071 -1.414 2.639 0 0 Z " fill="#B17A3B" transform="translate(120,77)"/>
<path d="M0 0 C-0.337 3.12 -0.621 4.621 -2.875 6.875 C-3.576 7.246 -4.277 7.618 -5 8 C-8.423 6.859 -9.148 5.999 -11 3 C-11 2.01 -11 1.02 -11 0 C-3.375 -1.125 -3.375 -1.125 0 0 Z " fill="#9B652E" transform="translate(12,71)"/>
<path d="M0 0 C0 0.99 0 1.98 0 3 C-0.66 3.33 -0.66 3.33 -4 5 C-2.68 3.35 -1.36 1.7 0 0 Z M-5 6 C-5 6.66 -5 7.32 -5 8 C-6.863 9.656 -6.863 9.656 -9.312 11.5 C-9.713 11.804 -9.713 11.804 -11.738 13.344 C-13.461 14.606 -15.223 15.815 -17 17 C-15.561 13.613 -13.779 11.641 -11 9.25 C-10.299 8.636 -9.597 8.023 -8.875 7.391 C-7 6 -7 6 -5 6 Z M-18 17 C-18 20.517 -18.824 21.371 -21 24 C-22.65 23.67 -24.3 23.34 -26 23 C-23.385 20.88 -20.804 18.869 -18 17 Z " fill="#EAD6B0" transform="translate(112,141)"/>
<path d="M0 0 C0.33 0.165 0.33 0.165 2 1 C2 1.66 2 2.32 2 3 C2.99 3.33 3.98 3.66 5 4 C4.67 6.31 4.34 8.62 4 11 C4.66 11 5.32 11 6 11 C6.33 10.34 6.66 9.68 7 9 C6.67 13.29 6.34 17.58 6 22 C1.928 17.928 1.602 12.129 0.875 6.625 C0.707 5.38 0.54 4.135 0.367 2.852 C0.246 1.911 0.125 0.97 0 0 Z " fill="#AC7E3F" transform="translate(27,76)"/>
<path d="M0 0 C0.99 0.33 1.98 0.66 3 1 C2.723 1.229 2.723 1.229 1.32 2.391 C0.596 3.004 -0.129 3.618 -0.875 4.25 C-1.594 4.853 -2.314 5.457 -3.055 6.078 C-6.788 9.767 -7.31 12.816 -7.375 18 C-7.403 19.031 -7.432 20.062 -7.461 21.125 C-6.898 24.639 -5.702 25.779 -3 28 C-5.867 27.427 -6.861 27.139 -9 25 C-9.336 21.734 -9.336 21.734 -9.375 17.75 C-9.403 16.445 -9.432 15.141 -9.461 13.797 C-8.792 8.288 -6.382 5.315 -2.438 1.562 C-1.633 1.047 -0.829 0.531 0 0 Z " fill="#875727" transform="translate(9,50)"/>
<path d="M0 0 C0.33 0.99 0.66 1.98 1 3 C1.66 3.33 2.32 3.66 3 4 C2.34 4 1.68 4 1 4 C0.915 4.339 0.915 4.339 0.484 6.055 C-1.219 12.598 -3.344 18.784 -6 25 C-6.66 25 -7.32 25 -8 25 C-7.487 20.131 -5.915 16.087 -4.055 11.613 C-2.517 7.802 -1.248 3.914 0 0 Z " fill="#B58C50" transform="translate(128,102)"/>
<path d="M0 0 C4.565 0.543 7.973 1.795 12 4 C11.67 5.98 11.34 7.96 11 10 C10.67 9.34 10.34 8.68 10 8 C6.523 5.994 2.692 4.562 -1 3 C-0.67 2.01 -0.34 1.02 0 0 Z " fill="#D6AC6E" transform="translate(116,98)"/>
<path d="M0 0 C1.32 0 2.64 0 4 0 C3.34 3.96 2.68 7.92 2 12 C1.34 12 0.68 12 0 12 C0 13.98 0 15.96 0 18 C-0.33 18 -0.66 18 -1 18 C-2.295 13.142 -2.499 7.992 -2 3 C-1.34 2.01 -0.68 1.02 0 0 Z " fill="#D2AF77" transform="translate(57,79)"/>
<path d="M0 0 C1.534 3.069 0.55 5.701 0 9 C0.598 8.794 1.196 8.588 1.812 8.375 C4 8 4 8 7 10 C5.384 12.041 3.714 14.041 2 16 C1.34 16 0.68 16 0 16 C0 15.01 0 14.02 0 13 C-0.66 13 -1.32 13 -2 13 C-1.86 11.02 -1.713 9.041 -1.562 7.062 C-1.481 5.96 -1.4 4.858 -1.316 3.723 C-1 1 -1 1 0 0 Z " fill="#C49654" transform="translate(97,106)"/>
<path d="M0 0 C0.66 0.66 1.32 1.32 2 2 C-1.889 7.111 -5.961 11.508 -12 14 C-14.818 14.375 -17.143 14.255 -20 14 C-19.67 13.01 -19.34 12.02 -19 11 C-18.668 10.951 -18.668 10.951 -16.988 10.703 C-8.814 9.319 -5.008 6.677 0 0 Z " fill="#C49F5C" transform="translate(97,151)"/>
<path d="M0 0 C4.921 -0.167 8.503 -0.248 13 2 C12.67 4.64 12.34 7.28 12 10 C11.34 10 10.68 10 10 10 C10 9.34 10 8.68 10 8 C9.34 8 8.68 8 8 8 C8 6.68 8 5.36 8 4 C7.01 3.67 6.02 3.34 5 3 C5 2.34 5 1.68 5 1 C3.35 1 1.7 1 0 1 C0 0.67 0 0.34 0 0 Z " fill="#D6AB6C" transform="translate(84,90)"/>
<path d="M0 0 C0.33 0 0.66 0 1 0 C0.717 3.677 0.481 6.297 -1.625 9.375 C-4.703 11.481 -7.323 11.717 -11 12 C-11 14.31 -11 16.62 -11 19 C-11.66 18.67 -12.32 18.34 -13 18 C-13 16.02 -13 14.04 -13 12 C-14.32 11.67 -15.64 11.34 -17 11 C-16.169 10.818 -15.337 10.636 -14.48 10.449 C-13.937 10.324 -13.937 10.324 -11.188 9.688 C-10.109 9.444 -9.03 9.2 -7.918 8.949 C-5.011 8.004 -3.818 7.392 -2 5 C-0.812 2.313 -0.812 2.313 0 0 Z " fill="#784B1C" transform="translate(107,43)"/>
<path d="M0 0 C0 0.66 0 1.32 0 2 C-1.961 3.389 -3.962 4.726 -6 6 C-10 0.25 -10 0.25 -10 -2 C-5.622 -3.376 -3.624 -2.795 0 0 Z " fill="#D4A767" transform="translate(116,73)"/>
<path d="M0 0 C3.375 0.547 5.082 1.055 8 3 C7.67 5.31 7.34 7.62 7 10 C6.814 9.361 6.629 8.721 6.438 8.062 C5 6 5 6 1.375 5.25 C0.261 5.168 -0.853 5.085 -2 5 C-1.34 3.35 -0.68 1.7 0 0 Z " fill="#ECCE99" transform="translate(115,101)"/>
<path d="M0 0 C0.99 0.33 1.98 0.66 3 1 C-0.097 4.273 -2.95 6.975 -7 9 C-7.99 9 -8.98 9 -10 9 C-9.67 7.02 -9.34 5.04 -9 3 C-8.34 3.33 -7.68 3.66 -7 4 C-1.556 1.556 -1.556 1.556 0 0 Z " fill="#F8E5BC" transform="translate(99,137)"/>
<path d="M0 0 C0.66 0 1.32 0 2 0 C3.664 3.328 2.819 6.997 2.562 10.625 C2.51 11.427 2.458 12.229 2.404 13.055 C2.275 15.037 2.138 17.018 2 19 C1.67 19 1.34 19 1 19 C-0.868 13.513 -1.236 8.778 -1 3 C-0.34 3 0.32 3 1 3 C0.67 2.01 0.34 1.02 0 0 Z " fill="#E5C388" transform="translate(92,98)"/>
<path d="M0 0 C-0.312 2.375 -0.312 2.375 -1 5 C-4 7 -4 7 -6.688 6.625 C-7.451 6.419 -8.214 6.212 -9 6 C-8.688 4.125 -8.688 4.125 -8 2 C-4.772 -0.152 -3.716 -0.201 0 0 Z " fill="#DAA56A" transform="translate(74,25)"/>
<path d="M0 0 C1.627 0.282 3.251 0.576 4.875 0.875 C5.78 1.037 6.685 1.2 7.617 1.367 C10 2 10 2 12 4 C8.37 3.34 4.74 2.68 1 2 C2.002 5.793 2.81 8.715 5 12 C4.625 14.188 4.625 14.188 4 16 C0 9.25 0 9.25 0 7 C-0.66 7 -1.32 7 -2 7 C-1.34 4.69 -0.68 2.38 0 0 Z " fill="#82521F" transform="translate(104,64)"/>
<path d="M0 0 C0.402 0.01 0.402 0.01 2.438 0.062 C2.125 2.437 2.125 2.437 1.438 5.062 C-1.562 7.062 -1.562 7.062 -4.25 6.688 C-5.013 6.481 -5.776 6.275 -6.562 6.062 C-3.031 0.074 -3.031 0.074 0 0 Z " fill="#D39E63" transform="translate(32.5625,25.9375)"/>
<path d="M0 0 C2.64 0.66 5.28 1.32 8 2 C8 2.66 8 3.32 8 4 C12.584 5.093 17.125 5.323 21.812 5.562 C22.601 5.606 23.389 5.649 24.201 5.693 C26.134 5.799 28.067 5.9 30 6 C30 6.33 30 6.66 30 7 C19.236 7.431 10.074 7.425 0 3 C0 2.01 0 1.02 0 0 Z " fill="#EFE0C3" transform="translate(43,160)"/>
<path d="M0 0 C4.62 0 9.24 0 14 0 C14 1.65 14 3.3 14 5 C12.02 5 10.04 5 8 5 C8 4.34 8 3.68 8 3 C5.326 2.109 2.763 1.523 0 1 C0 0.67 0 0.34 0 0 Z " fill="#C49556" transform="translate(36,46)"/>
<path d="M0 0 C-1.29 1.376 -2.627 2.708 -4 4 C-4.66 4 -5.32 4 -6 4 C-6.66 7.63 -7.32 11.26 -8 15 C-8.66 15 -9.32 15 -10 15 C-10.418 8.942 -10.123 5.81 -6 1 C-2.6 -1.3 -2.6 -1.3 0 0 Z " fill="#956E44" transform="translate(27,28)"/>
<path d="M0 0 C-15.431 8 -15.431 8 -21 8 C-21 7.34 -21 6.68 -21 6 C-18.959 5.207 -16.917 4.415 -14.875 3.625 C-13.738 3.184 -12.601 2.743 -11.43 2.289 C-2.291 -1.146 -2.291 -1.146 0 0 Z " fill="#F7EBD5" transform="translate(120,157)"/>
<path d="M0 0 C1.125 1.743 1.125 1.743 2 4 C1.309 6.015 1.309 6.015 0.008 8.109 C-0.45 8.863 -0.907 9.618 -1.379 10.395 C-1.873 11.172 -2.366 11.949 -2.875 12.75 C-3.361 13.543 -3.847 14.336 -4.348 15.152 C-5.551 17.111 -6.769 19.059 -8 21 C-9 18 -9 18 -8.395 16.222 C-8.061 15.581 -7.727 14.939 -7.383 14.277 C-7.203 13.926 -7.203 13.926 -6.293 12.146 C-5.908 11.418 -5.522 10.689 -5.125 9.938 C-4.747 9.205 -4.37 8.472 -3.98 7.717 C-3.279 6.358 -2.574 5.002 -1.864 3.648 C-1.23 2.439 -0.611 1.221 0 0 Z " fill="#C19854" transform="translate(89,131)"/>
<path d="M0 0 C0.33 0 0.66 0 1 0 C2 6 3 12 4 18 C1 17 1 17 -1 14 C-1.239 9.147 -0.956 4.78 0 0 Z " fill="#F3DAA9" transform="translate(56,113)"/>
<path d="M0 0 C6.418 0.605 6.418 0.605 8.938 2.312 C10 4 10 4 10 8 C9.464 7.711 8.927 7.422 8.375 7.125 C5.647 5.833 2.874 4.914 0 4 C0 2.68 0 1.36 0 0 Z " fill="#E5C289" transform="translate(82,90)"/>
<path d="M0 0 C-0.33 1.65 -0.66 3.3 -1 5 C-3.478 5.885 -4.661 6.116 -7.188 5.25 C-9 4 -9 4 -10 1 C-6.527 -0.158 -3.639 -0.069 0 0 Z " fill="#C89B5B" transform="translate(27,73)"/>
<path d="M0 0 C0.66 0 1.32 0 2 0 C5.256 7.212 5.256 7.212 4.188 10.5 C3.796 10.995 3.404 11.49 3 12 C2.34 12 1.68 12 1 12 C0.639 10.189 0.286 8.376 -0.062 6.562 C-0.26 5.553 -0.457 4.544 -0.66 3.504 C-0.772 2.678 -0.884 1.851 -1 1 C-0.67 0.67 -0.34 0.34 0 0 Z " fill="#D8B06D" transform="translate(64,113)"/>
<path d="M0 0 C0 0.99 0 1.98 0 3 C-1.663 4.006 -3.33 5.006 -5 6 C-6.312 8.188 -6.312 8.188 -7 10 C-7.99 10 -8.98 10 -10 10 C-10.33 10.66 -10.66 11.32 -11 12 C-10.516 7.688 -9.38 5.941 -6.062 3.188 C-5.352 2.583 -4.642 1.978 -3.91 1.355 C-2 0 -2 0 0 0 Z " fill="#B78041" transform="translate(41,54)"/>
<path d="M0 0 C1.32 0 2.64 0 4 0 C3.25 4.75 3.25 4.75 1 7 C-0.32 7 -1.64 7 -3 7 C-2.25 2.25 -2.25 2.25 0 0 Z " fill="#D6A168" transform="translate(9,55)"/>
<path d="M0 0 C0 3.562 -0.761 4.411 -2.875 7.188 C-3.409 7.903 -3.942 8.618 -4.492 9.355 C-4.99 9.898 -5.487 10.441 -6 11 C-6.66 11 -7.32 11 -8 11 C-7.25 4.25 -7.25 4.25 -5 2 C-4.01 2 -3.02 2 -2 2 C-1.34 1.34 -0.68 0.68 0 0 Z " fill="#AB7E3C" transform="translate(98,122)"/>
<path d="M0 0 C6.75 1.625 6.75 1.625 9 5 C8.34 5.66 7.68 6.32 7 7 C0.125 4.25 0.125 4.25 -1 2 C-0.67 1.34 -0.34 0.68 0 0 Z " fill="#F2D8AA" transform="translate(82,94)"/>
<path d="M0 0 C0.33 1.32 0.66 2.64 1 4 C1.99 4 2.98 4 4 4 C4 5.98 4 7.96 4 10 C2.68 10.33 1.36 10.66 0 11 C-0.194 9.355 -0.38 7.709 -0.562 6.062 C-0.667 5.146 -0.771 4.229 -0.879 3.285 C-0.919 2.531 -0.959 1.777 -1 1 C-0.67 0.67 -0.34 0.34 0 0 Z " fill="#DCB477" transform="translate(82,56)"/>
<path d="M0 0 C0.402 0.01 0.402 0.01 2.438 0.062 C2.125 1.938 2.125 1.938 1.438 4.062 C-1.562 6.062 -1.562 6.062 -4.562 6.062 C-3.49 0.085 -3.49 0.085 0 0 Z " fill="#D6A164" transform="translate(39.5625,57.9375)"/>
<path d="M0 0 C3.3 0 6.6 0 10 0 C10 3 10 3 9 5 C5.7 4.34 2.4 3.68 -1 3 C-0.67 2.01 -0.34 1.02 0 0 Z " fill="#A76F35" transform="translate(113,43)"/>
<path d="M0 0 C-0.541 3.786 -2.117 5.554 -5 8 C-5.66 8 -6.32 8 -7 8 C-6.63 5.259 -6.314 3.414 -4.625 1.188 C-3 0 -3 0 0 0 Z " fill="#FDF8E4" transform="translate(107,122)"/>
<path d="M0 0 C0.33 0.99 0.66 1.98 1 3 C-1.987 6.272 -4.063 6.951 -8.562 7.188 C-12 7 -12 7 -14 5 C-13.67 4.34 -13.34 3.68 -13 3 C-12.01 3.33 -11.02 3.66 -10 4 C-6.5 4.312 -6.5 4.312 -3 4 C-1.062 2 -1.062 2 0 0 Z " fill="#7F4F1C" transform="translate(143,99)"/>
<path d="M0 0 C-0.33 1.65 -0.66 3.3 -1 5 C-2.98 5.33 -4.96 5.66 -7 6 C-6.688 4.125 -6.688 4.125 -6 2 C-3 0 -3 0 0 0 Z " fill="#CC995E" transform="translate(87,71)"/>
<path d="M0 0 C1.65 0 3.3 0 5 0 C5.33 1.98 5.66 3.96 6 6 C4.68 5.67 3.36 5.34 2 5 C1.67 5.66 1.34 6.32 1 7 C1 6.01 1 5.02 1 4 C-0.32 3.67 -1.64 3.34 -3 3 C-2.01 3 -1.02 3 0 3 C0 2.01 0 1.02 0 0 Z " fill="#C69052" transform="translate(41,54)"/>
<path d="M0 0 C0.99 0.33 1.98 0.66 3 1 C3 2.65 3 4.3 3 6 C2.01 6 1.02 6 0 6 C0 7.65 0 9.3 0 11 C-0.99 10.67 -1.98 10.34 -3 10 C-2.01 6.7 -1.02 3.4 0 0 Z " fill="#E7C68A" transform="translate(123,105)"/>
<path d="M0 0 C2.125 0.141 4.25 0.288 6.375 0.438 C6.967 0.478 6.967 0.478 9.961 0.684 C13 1 13 1 15 2 C15 2.66 15 3.32 15 4 C13.02 4.33 11.04 4.66 9 5 C8.67 4.34 8.34 3.68 8 3 C6.152 2.367 6.152 2.367 3.938 1.875 C3.204 1.707 2.471 1.54 1.715 1.367 C1.149 1.246 0.583 1.125 0 1 C0 0.67 0 0.34 0 0 Z " fill="#865621" transform="translate(88,89)"/>
<path d="M0 0 C1.675 0.286 3.344 0.618 5 1 C4.67 2.32 4.34 3.64 4 5 C2.02 5 0.04 5 -2 5 C-1.125 1.125 -1.125 1.125 0 0 Z " fill="#CC9556" transform="translate(119,80)"/>
<path d="M0 0 C6.055 -0.195 6.055 -0.195 8 0 C8.66 0.66 9.32 1.32 10 2 C6.218 3.837 4.054 4.158 0 3 C0 2.01 0 1.02 0 0 Z " fill="#BA8143" transform="translate(112,46)"/>
<path d="M0 0 C0.99 0.33 1.98 0.66 3 1 C1.47 4.442 -0.627 7.092 -3 10 C-3.33 10.66 -3.66 11.32 -4 12 C-4.66 11.67 -5.32 11.34 -6 11 C-4.02 7.37 -2.04 3.74 0 0 Z " fill="#895923" transform="translate(33,54)"/>
<path d="M0 0 C3.96 0 7.92 0 12 0 C12 0.66 12 1.32 12 2 C10.35 2 8.7 2 7 2 C7 2.33 7 2.66 7 3 C4.69 3.33 2.38 3.66 0 4 C0 2.68 0 1.36 0 0 Z " fill="#E9C78C" transform="translate(40,82)"/>
<path d="M0 0 C0 0.66 0 1.32 0 2 C-1.433 2.841 -2.872 3.673 -4.312 4.5 C-4.713 4.732 -4.713 4.732 -6.738 5.906 C-9 7 -9 7 -12 7 C-10.761 5.821 -9.509 4.657 -8.25 3.5 C-7.554 2.85 -6.858 2.201 -6.141 1.531 C-4 0 -4 0 0 0 Z " fill="#885727" transform="translate(34,21)"/>
<path d="M0 0 C0.66 0.99 1.32 1.98 2 3 C0.35 6.3 -1.3 9.6 -3 13 C-3.33 13 -3.66 13 -4 13 C-3.503 8.027 -2.447 4.362 0 0 Z " fill="#C59E61" transform="translate(73,111)"/>
<path d="M0 0 C0.536 0.113 0.536 0.113 3.25 0.688 C2.92 2.007 2.59 3.328 2.25 4.688 C-1.05 4.028 -4.35 3.368 -7.75 2.688 C-3.75 -0.312 -3.75 -0.312 0 0 Z " fill="#EFD29E" transform="translate(48.75,83.3125)"/>
<path d="M0 0 C0.801 0.139 1.601 0.278 2.426 0.422 C3.234 0.551 4.042 0.68 4.875 0.812 C5.182 0.872 5.182 0.872 6.738 1.172 C6.408 1.832 6.078 2.492 5.738 3.172 C3.234 3.586 3.234 3.586 0.176 3.797 C-0.836 3.872 -1.848 3.946 -2.891 4.023 C-3.673 4.072 -4.456 4.121 -5.262 4.172 C-2.895 0.22 -2.895 0.22 0 0 Z " fill="#9D672E" transform="translate(126.26171875,69.828125)"/>
<path d="M0 0 C0.99 0.33 1.98 0.66 3 1 C3.688 3.062 3.688 3.062 4 5 C4.66 5 5.32 5 6 5 C6 8.3 6 11.6 6 15 C5.67 15 5.34 15 5 15 C4.945 14.698 4.945 14.698 4.668 13.172 C3.783 8.713 3.072 5.491 0 2 C0 1.34 0 0.68 0 0 Z " fill="#845420" transform="translate(61,57)"/>
<path d="M0 0 C1.177 0.079 2.354 0.157 3.566 0.238 C4.514 0.387 5.461 0.535 6.438 0.688 C6.767 1.347 7.098 2.008 7.438 2.688 C6.777 3.347 6.117 4.008 5.438 4.688 C5.108 3.697 4.777 2.708 4.438 1.688 C3.667 1.783 2.896 1.878 2.102 1.977 C1.099 2.087 0.096 2.198 -0.938 2.312 C-1.935 2.429 -2.933 2.545 -3.961 2.664 C-4.819 2.672 -5.678 2.68 -6.562 2.688 C-7.223 2.028 -7.883 1.367 -8.562 0.688 C-5.64 -0.774 -3.235 -0.238 0 0 Z " fill="#9F6A36" transform="translate(18.5625,48.3125)"/>
<path d="M0 0 C1.676 2.514 2.94 4.829 4.188 7.562 C4.552 8.348 4.917 9.133 5.293 9.941 C5.526 10.621 5.76 11.3 6 12 C5.67 12.66 5.34 13.32 5 14 C2.531 10.121 0.62 6.293 -1 2 C-0.67 1.34 -0.34 0.68 0 0 Z " fill="#CEAB6E" transform="translate(41,134)"/>
<path d="M0 0 C8.571 -0.286 8.571 -0.286 12 2 C12 2.33 12 2.66 12 3 C8.04 2.67 4.08 2.34 0 2 C0 1.34 0 0.68 0 0 Z " fill="#855526" transform="translate(40,19)"/>
<path d="M0 0 C0.33 0 0.66 0 1 0 C1 1.98 1 3.96 1 6 C0.34 6.33 0.34 6.33 -3 8 C-3.99 7.01 -4.98 6.02 -6 5 C-5.381 4.732 -4.763 4.464 -4.125 4.188 C-2 3 -2 3 0 0 Z " fill="#F8E4BA" transform="translate(56,141)"/>
<path d="M0 0 C0.99 0.33 1.98 0.66 3 1 C3.73 2.848 3.73 2.848 4.188 5.062 C4.346 5.796 4.505 6.529 4.668 7.285 C4.723 7.568 4.723 7.568 5 9 C4.505 9.33 4.505 9.33 2 11 C0.807 7.123 0 4.084 0 0 Z " fill="#D0B17F" transform="translate(14,114)"/>
<path d="M0 0 C0.33 0.165 0.33 0.165 2 1 C2 1.66 2 2.32 2 3 C2.99 3.33 3.98 3.66 5 4 C4.34 7.3 3.68 10.6 3 14 C2.67 14 2.34 14 2 14 C1.34 9.38 0.68 4.76 0 0 Z " fill="#B98E53" transform="translate(27,76)"/>
<path d="M0 0 C2.36 2.36 2.491 3.779 3 7 C2.01 6.835 2.01 6.835 -3 6 C-3 4.68 -3 3.36 -3 2 C-2.01 2 -1.02 2 0 2 C0 1.34 0 0.68 0 0 Z " fill="#D8AF6C" transform="translate(26,76)"/>
<path d="M0 0 C3.875 1.75 3.875 1.75 5 4 C4.34 4 3.68 4 3 4 C2.67 4.66 2.34 5.32 2 6 C0.68 5.34 -0.64 4.68 -2 4 C-1.34 2.68 -0.68 1.36 0 0 Z " fill="#EDE3D0" transform="translate(54,47)"/>
<path d="M0 0 C0.33 0.66 0.66 1.32 1 2 C-4.625 5 -4.625 5 -8 5 C-8.33 3.68 -8.66 2.36 -9 1 C-7.515 0.835 -7.515 0.835 0 0 Z " fill="#D6AC6B" transform="translate(43,49)"/>
<path d="M0 0 C5.419 -0.226 9.775 0.533 15 2 C12 4 12 4 9.75 3.75 C6.491 2.861 3.241 1.953 0 1 C0 0.67 0 0.34 0 0 Z " fill="#C59F5F" transform="translate(56,161)"/>
<path d="M0 0 C2.333 -0.042 4.667 -0.041 7 0 C7.33 0.33 7.66 0.66 8 1 C9.515 1.232 11.038 1.412 12.562 1.562 C13.389 1.646 14.215 1.73 15.066 1.816 C15.704 1.877 16.343 1.938 17 2 C17 2.33 17 2.66 17 3 C13.04 3 9.08 3 5 3 C5 2.34 5 1.68 5 1 C3.35 1 1.7 1 0 1 C0 0.67 0 0.34 0 0 Z " fill="#E0C799" transform="translate(46,161)"/>
<path d="M0 0 C0.66 0 1.32 0 2 0 C2.99 2.31 3.98 4.62 5 7 C2.36 7 -0.28 7 -3 7 C-1.68 6.34 -0.36 5.68 1 5 C0.67 3.35 0.34 1.7 0 0 Z " fill="#DFBC7D" transform="translate(48,152)"/>
<path d="M0 0 C0.33 0 0.66 0 1 0 C1.33 3.63 1.66 7.26 2 11 C1.505 11.33 1.505 11.33 -1 13 C-0.67 8.71 -0.34 4.42 0 0 Z " fill="#F4DAA6" transform="translate(64,138)"/>
<path d="M0 0 C1 2 1 2 0.25 4.5 C-1 7 -1 7 -4 9 C-4.66 8.34 -5.32 7.68 -6 7 C-4.02 4.69 -2.04 2.38 0 0 Z " fill="#F6E2BC" transform="translate(105,116)"/>
<path d="M0 0 C0.66 0 1.32 0 2 0 C2.33 1.32 2.66 2.64 3 4 C1.68 4.99 0.36 5.98 -1 7 C-1.66 6.34 -2.32 5.68 -3 5 C-2 2 -2 2 0 0 Z " fill="#BD8F4B" transform="translate(95,119)"/>
<path d="M0 0 C3.753 1.453 3.753 1.453 4.875 3.938 C5 6 5 6 3 9 C0 3.375 0 3.375 0 0 Z " fill="#F7E3BD" transform="translate(20,84)"/>
<path d="M0 0 C1.32 0 2.64 0 4 0 C3.414 6.152 3.414 6.152 3 8 C2.67 8.165 2.67 8.165 1 9 C0.67 6.03 0.34 3.06 0 0 Z " fill="#F4EBD3" transform="translate(57,79)"/>
<path d="M0 0 C1.65 0 3.3 0 5 0 C4.67 2.31 4.34 4.62 4 7 C1.5 4.826 0.564 3.27 0 0 Z " fill="#E4B978" transform="translate(107,72)"/>
<path d="M0 0 C0.33 0 0.66 0 1 0 C1 1.98 1 3.96 1 6 C0.01 6.33 -0.98 6.66 -2 7 C-2.33 7.99 -2.66 8.98 -3 10 C-3.66 9.67 -4.32 9.34 -5 9 C-3.35 6.03 -1.7 3.06 0 0 Z " fill="#E7C689" transform="translate(87,140)"/>
<path d="M0 0 C0.66 0 1.32 0 2 0 C2.33 1.98 2.66 3.96 3 6 C3.33 6 3.66 6 4 6 C4 7.65 4 9.3 4 11 C3.01 10.67 2.02 10.34 1 10 C0.67 6.7 0.34 3.4 0 0 Z " fill="#E8C68D" transform="translate(74,91)"/>
<path d="M0 0 C0.66 0.165 0.66 0.165 4 1 C2.68 3.64 1.36 6.28 0 9 C-0.33 9 -0.66 9 -1 9 C-0.67 6.03 -0.34 3.06 0 0 Z " fill="#F2E8CC" transform="translate(98,94)"/>
<path d="M0 0 C0.66 0 1.32 0 2 0 C1.67 0.99 1.34 1.98 1 3 C0.67 2.01 0.34 1.02 0 0 Z M-1 3 C-0.34 3 0.32 3 1 3 C1 3.99 1 4.98 1 6 C-2.333 9 -2.333 9 -5 9 C-3.848 6.532 -2.952 4.952 -1 3 Z " fill="#CB9B5B" transform="translate(115,72)"/>
<path d="M0 0 C0.99 0.165 0.99 0.165 6 1 C6 3.31 6 5.62 6 8 C5.34 7.01 4.68 6.02 4 5 C3.67 5.165 3.67 5.165 2 6 C2 4.35 2 2.7 2 1 C1.34 0.67 0.68 0.34 0 0 Z " fill="#B78949" transform="translate(82,52)"/>
<path d="M0 0 C0.66 0.99 1.32 1.98 2 3 C0.02 4.98 -1.96 6.96 -4 9 C-4.66 8.67 -5.32 8.34 -6 8 C-4.02 5.36 -2.04 2.72 0 0 Z " fill="#F4E8CF" transform="translate(119,131)"/>
<path d="M0 0 C0.33 0.99 0.66 1.98 1 3 C-0.32 4.32 -1.64 5.64 -3 7 C-3 5.68 -3 4.36 -3 3 C-4.32 2.34 -5.64 1.68 -7 1 C-5.845 0.835 -5.845 0.835 0 0 Z " fill="#BF9154" transform="translate(105,92)"/>
<path d="M0 0 C4.95 0.33 9.9 0.66 15 1 C15 1.33 15 1.66 15 2 C10.05 2.33 5.1 2.66 0 3 C0 2.01 0 1.02 0 0 Z " fill="#94602D" transform="translate(71,19)"/>
<path d="M0 0 C2.19 3.285 2.998 6.207 4 10 C3.67 10.165 3.67 10.165 2 11 C-0.326 7.366 -0.163 4.229 0 0 Z " fill="#EDD29E" transform="translate(39,133)"/>
<path d="M0 0 C0.33 0 0.66 0 1 0 C0.25 6.625 0.25 6.625 -2 10 C-2.33 8.02 -2.66 6.04 -3 4 C-2.34 4 -1.68 4 -1 4 C-0.67 2.68 -0.34 1.36 0 0 Z " fill="#BF9554" transform="translate(68,121)"/>
<path d="M0 0 C1.65 0.33 3.3 0.66 5 1 C3.688 3.5 3.688 3.5 2 6 C1.01 6 0.02 6 -1 6 C-0.67 4.02 -0.34 2.04 0 0 Z " fill="#CBA05E" transform="translate(99,114)"/>
<path d="M0 0 C2.31 0.33 4.62 0.66 7 1 C7 1.66 7 2.32 7 3 C4.69 3.33 2.38 3.66 0 4 C0 2.68 0 1.36 0 0 Z " fill="#E0B77A" transform="translate(82,90)"/>
<path d="M0 0 C0.66 0.33 1.32 0.66 2 1 C1.401 3.352 0.731 5.686 0 8 C-0.33 8.165 -0.33 8.165 -2 9 C-1.125 1.125 -1.125 1.125 0 0 Z " fill="#E9C891" transform="translate(64,76)"/>
<path d="M0 0 C0.99 0 1.98 0 3 0 C3 1.65 3 3.3 3 5 C1.02 5 -0.96 5 -3 5 C-2.505 4.546 -2.01 4.093 -1.5 3.625 C0 2 0 2 0 0 Z " fill="#8C5822" transform="translate(10,74)"/>
<path d="M0 0 C0.371 0.113 0.371 0.113 2.25 0.688 C2.25 1.017 2.25 1.348 2.25 1.688 C1.684 1.809 1.118 1.93 0.535 2.055 C0.168 2.138 0.168 2.138 -1.688 2.562 C-2.418 2.725 -3.149 2.887 -3.902 3.055 C-5.75 3.688 -5.75 3.688 -6.75 5.688 C-6.75 2.688 -6.75 2.688 -5.062 0.938 C-2.75 -0.312 -2.75 -0.312 0 0 Z " fill="#BE8649" transform="translate(71.75,23.3125)"/>
<path d="M0 0 C1.32 0.33 2.64 0.66 4 1 C3.01 1 2.02 1 1 1 C1 1.66 1 2.32 1 3 C1.99 3 2.98 3 4 3 C3.67 3.99 3.34 4.98 3 6 C1.02 5.01 -0.96 4.02 -3 3 C-2.01 2.67 -1.02 2.34 0 2 C0 1.34 0 0.68 0 0 Z " fill="#A3703A" transform="translate(86,19)"/>
<path d="M0 0 C1.32 0.33 2.64 0.66 4 1 C4.33 1.99 4.66 2.98 5 4 C4.34 4 3.68 4 3 4 C2.67 5.32 2.34 6.64 2 8 C1.34 5.36 0.68 2.72 0 0 Z " fill="#F4DEB1" transform="translate(40,129)"/>
<path d="M0 0 C0.33 0 0.66 0 1 0 C1.25 2.312 1.25 2.312 1 5 C-1 6.812 -1 6.812 -3 8 C-3.66 7.67 -4.32 7.34 -5 7 C-4.192 5.831 -3.378 4.664 -2.562 3.5 C-2.11 2.85 -1.658 2.201 -1.191 1.531 C-0.798 1.026 -0.405 0.521 0 0 Z " fill="#F4DDB4" transform="translate(111,108)"/>
<path d="M0 0 C3.3 0 6.6 0 10 0 C9.01 0.33 8.02 0.66 7 1 C7 1.66 7 2.32 7 3 C4.625 3.188 4.625 3.188 2 3 C1.34 2.01 0.68 1.02 0 0 Z " fill="#8C5A22" transform="translate(75,88)"/>
<path d="M0 0 C2.25 -0.25 2.25 -0.25 5 0 C7.312 2 7.312 2 9 4 C5.306 4 3.222 2.718 0 1 C0 0.67 0 0.34 0 0 Z " fill="#8A592C" transform="translate(131,77)"/>
<path d="M0 0 C2.64 0.33 5.28 0.66 8 1 C7.67 1.66 7.34 2.32 7 3 C4.69 3 2.38 3 0 3 C0 2.01 0 1.02 0 0 Z " fill="#D9AF70" transform="translate(69,51)"/>
<path d="M0 0 C0.66 0.33 1.32 0.66 2 1 C-0.528 3.799 -2.204 5.458 -6 6 C-4.985 3.464 -4.315 2.206 -2 0.688 C-1.34 0.461 -0.68 0.234 0 0 Z " fill="#A5723E" transform="translate(25,27)"/>
<path d="M0 0 C1.938 0.312 1.938 0.312 4 1 C4.33 1.99 4.66 2.98 5 4 C4.01 4.99 3.02 5.98 2 7 C2 5.68 2 4.36 2 3 C1.34 3.66 0.68 4.32 0 5 C0 3.35 0 1.7 0 0 Z " fill="#B08346" transform="translate(110,98)"/>
<path d="M0 0 C1.32 0 2.64 0 4 0 C3.002 2.993 2.248 3.948 0 6 C-0.382 4.344 -0.714 2.675 -1 1 C-0.67 0.67 -0.34 0.34 0 0 Z " fill="#E4DAC9" transform="translate(90,55)"/>
<path d="M0 0 C0 0.66 0 1.32 0 2 C-2.875 2.625 -2.875 2.625 -6 3 C-6.66 2.34 -7.32 1.68 -8 1 C-5.072 0.024 -3.044 -0.082 0 0 Z " fill="#966A3C" transform="translate(40,19)"/>
</svg>
