<?xml version="1.0" encoding="UTF-8"?>
<!-- Generator: visioncortex VTracer 0.6.12 -->
<svg version="1.1" xmlns="http://www.w3.org/2000/svg" width="164" height="185">
<path d="M0 0 C54.12 0 108.24 0 164 0 C164 61.05 164 122.1 164 185 C109.88 185 55.76 185 0 185 C0 123.95 0 62.9 0 0 Z " fill="#FDF7EC" transform="translate(0,0)"/>
<path d="M0 0 C0.901 -0.049 1.802 -0.098 2.73 -0.148 C7.238 0.617 10.764 1.846 13.812 5.375 C14.71 9.394 14.385 13.23 14.062 17.312 C13.349 28.304 13.349 28.304 15.32 32.855 C18.41 35.979 21.543 37.786 25.438 39.75 C38.408 46.693 48.948 55.245 54.941 69.059 C56.874 76.415 57.222 86.146 54.812 93.375 C55.679 92.529 56.545 91.684 57.438 90.812 C58.914 89.371 58.914 89.371 60.812 88.375 C64.023 88.723 64.023 88.723 66.812 89.375 C71.114 100.763 73.2 112.045 68.812 123.75 C64.128 133.499 57.829 139.39 47.812 143.375 C40.225 145.904 31.468 145.137 24.234 141.852 C18.941 138.624 14.346 134.253 10.258 129.609 C7.771 127.485 4.922 128.199 1.812 128.375 C1.812 129.035 1.812 129.695 1.812 130.375 C-0.25 130.402 -2.312 130.421 -4.375 130.438 C-5.524 130.449 -6.672 130.461 -7.855 130.473 C-10.781 130.387 -13.351 130.053 -16.188 129.375 C-16.188 128.715 -16.188 128.055 -16.188 127.375 C-18.498 127.375 -20.807 127.375 -23.188 127.375 C-23.188 126.715 -23.188 126.055 -23.188 125.375 C-23.805 125.372 -24.422 125.37 -25.059 125.367 C-32.744 125.016 -38.322 122.423 -43.672 116.82 C-45.468 115.107 -47.275 114.217 -49.5 113.125 C-57.591 108.706 -61.786 101.805 -65.188 93.375 C-68.427 80.662 -65.512 69.697 -59 58.688 C-51.459 47.456 -40.209 39.911 -27.25 36.25 C-22.301 34.849 -19.234 33.742 -16.188 29.375 C-12.533 21.935 -11.991 15.801 -11.664 7.59 C-11.188 4.375 -11.188 4.375 -9.836 2.504 C-6.71 0.363 -3.685 0.135 0 0 Z " fill="#EDD7B3" transform="translate(77.1875,26.625)"/>
<path d="M0 0 C0 0.66 0 1.32 0 2 C-1.65 2.66 -3.3 3.32 -5 4 C-5.226 8.585 -5.387 13.168 -5.494 17.757 C-5.539 19.311 -5.6 20.865 -5.679 22.417 C-6.218 33.325 -4.852 40.283 1.801 49.084 C6.289 55.035 8.697 60.471 8 68 C7.823 69.058 7.647 70.117 7.465 71.207 C6.892 75.88 7.072 80.444 7.391 85.127 C7.51 89.017 7.035 90.945 4.922 94.246 C2 97 2 97 -5 101 C-4.67 95.39 -4.34 89.78 -4 84 C-4.983 86.948 -5.196 89.229 -5.375 92.312 C-5.769 96.835 -6.34 100.199 -9 104 C-11.449 105.933 -13.179 106.863 -16.25 107.375 C-21.419 106.67 -26.442 105.753 -30 101.75 C-31.18 98.506 -31.664 95.429 -32 92 C-32.014 92.759 -32.028 93.519 -32.043 94.301 C-32.434 102.45 -32.434 102.45 -35.25 105.188 C-38.088 106.026 -40.072 106.475 -43 106 C-43.66 105.01 -44.32 104.02 -45 103 C-45.33 103.33 -45.33 103.33 -47 105 C-51.439 103.605 -53.98 101.523 -57 98 C-57.812 95.688 -57.812 95.688 -58 94 C-58.66 94 -59.32 94 -60 94 C-59.856 95.258 -59.711 96.516 -59.562 97.812 C-59.481 98.52 -59.4 99.228 -59.316 99.957 C-59 102 -59 102 -58 105 C-63.65 103.63 -66.823 99.6 -70 95 C-75.056 85.613 -75.531 74.931 -72.875 64.688 C-68.054 51.028 -57.396 41.894 -44.754 35.664 C-40.006 33.467 -35.127 32.023 -30 31 C-30 31.66 -30 32.32 -30 33 C-22.021 25.243 -20.991 18.296 -20.745 7.531 C-20.653 4.945 -20.542 2.531 -20 0 C-13.957 -5.583 -6.549 -3.274 0 0 Z " fill="#FDF5E3" transform="translate(88,32)"/>
<path d="M0 0 C0 0.66 0 1.32 0 2 C-1.65 2.66 -3.3 3.32 -5 4 C-5.226 8.585 -5.387 13.168 -5.494 17.757 C-5.539 19.311 -5.6 20.865 -5.679 22.417 C-6.218 33.325 -4.852 40.283 1.801 49.084 C6.289 55.035 8.697 60.471 8 68 C7.823 69.058 7.647 70.117 7.465 71.207 C6.892 75.88 7.072 80.444 7.391 85.127 C7.51 89.017 7.035 90.945 4.922 94.246 C2 97 2 97 -5 101 C-4.67 95.39 -4.34 89.78 -4 84 C-4.983 86.948 -5.196 89.229 -5.375 92.312 C-5.769 96.835 -6.34 100.199 -9 104 C-11.449 105.933 -13.179 106.863 -16.25 107.375 C-21.419 106.67 -26.442 105.753 -30 101.75 C-31.18 98.506 -31.664 95.429 -32 92 C-32.014 92.759 -32.028 93.519 -32.043 94.301 C-32.434 102.45 -32.434 102.45 -35.25 105.188 C-38.088 106.026 -40.072 106.475 -43 106 C-43.66 105.01 -44.32 104.02 -45 103 C-45.33 103.33 -45.33 103.33 -47 105 C-51.439 103.605 -53.98 101.523 -57 98 C-57.812 95.688 -57.812 95.688 -58 94 C-58.66 94 -59.32 94 -60 94 C-59.856 95.258 -59.711 96.516 -59.562 97.812 C-59.481 98.52 -59.4 99.228 -59.316 99.957 C-59 102 -59 102 -58 105 C-63.65 103.63 -66.823 99.6 -70 95 C-74.366 86.893 -74.475 79.041 -74 70 C-72.68 70.99 -71.36 71.98 -70 73 C-69.67 72.835 -69.67 72.835 -68 72 C-68 75.63 -68 79.26 -68 83 C-64 81 -64 81 -62 78 C-61.34 78 -60.68 78 -60 78 C-59.897 77.134 -59.794 76.267 -59.688 75.375 C-58.966 71.833 -57.729 69.157 -56 66 C-55.34 66 -54.68 66 -54 66 C-54.217 66.701 -54.433 67.403 -54.656 68.125 C-56.371 73.968 -57.344 78.916 -57 85 C-56.34 85.33 -55.68 85.66 -55 86 C-54.375 89.062 -54.375 89.062 -54 92 C-53.34 92 -52.68 92 -52 92 C-52 92.66 -52 93.32 -52 94 C-50.68 94.33 -49.36 94.66 -48 95 C-47.974 93.973 -47.948 92.945 -47.922 91.887 C-47.604 83.255 -46.634 75.977 -43 68 C-41.655 71.722 -42.378 74.298 -43.375 78.062 C-44.858 84.049 -45.643 89.851 -46 96 C-41.079 95.035 -38.217 94.053 -35.066 89.863 C-33.115 86.454 -32.031 82.773 -31 79 C-30.34 79 -29.68 79 -29 79 C-28.867 79.831 -28.734 80.663 -28.598 81.52 C-28.421 82.606 -28.244 83.693 -28.062 84.812 C-27.888 85.891 -27.714 86.97 -27.535 88.082 C-27 91 -27 91 -26 94 C-24.35 94.33 -22.7 94.66 -21 95 C-20.951 93.94 -20.902 92.881 -20.852 91.789 C-20.777 90.401 -20.701 89.013 -20.625 87.625 C-20.61 87.276 -20.61 87.276 -20.531 85.508 C-20.227 80.227 -20.227 80.227 -18 78 C-18.33 83.61 -18.66 89.22 -19 95 C-10.209 91.232 -10.209 91.232 -8 87 C-7.498 83.153 -7.578 79.372 -7.688 75.5 C-7.695 74.964 -7.695 74.964 -7.734 72.254 C-7.87 64.813 -8.19 57.401 -9 50 C-8.34 50.33 -7.68 50.66 -7 51 C-6.4 53.636 -5.916 56.209 -5.5 58.875 C-5.244 60.423 -4.987 61.971 -4.73 63.52 C-4.607 64.281 -4.484 65.042 -4.357 65.827 C-3.878 68.745 -3.349 71.654 -2.812 74.562 C-2.654 75.43 -2.495 76.298 -2.332 77.191 C-2.277 77.49 -2.277 77.49 -2 79 C0.822 70.534 -0.129 56.98 -3.988 48.941 C-4.343 48.383 -4.697 47.825 -5.062 47.25 C-7.499 43.162 -7.788 39.679 -8 35 C-8.66 37.31 -9.32 39.62 -10 42 C-12.934 39.066 -12.462 35.817 -12.625 31.875 C-12.644 31.498 -12.644 31.498 -12.742 29.59 C-12.837 27.727 -12.919 25.864 -13 24 C-13.193 24.782 -13.387 25.565 -13.586 26.371 C-13.846 27.383 -14.107 28.395 -14.375 29.438 C-14.63 30.447 -14.885 31.456 -15.148 32.496 C-16 35 -16 35 -18 36 C-17.856 34.891 -17.711 33.783 -17.562 32.641 C-17.375 31.177 -17.187 29.714 -17 28.25 C-16.905 27.52 -16.809 26.791 -16.711 26.039 C-16.28 22.651 -16 19.421 -16 16 C-16.079 16.351 -16.079 16.351 -16.48 18.125 C-18.061 24.553 -20.111 29.636 -24 35 C-24.33 34.835 -24.33 34.835 -26 34 C-25.01 32.02 -24.02 30.04 -23 28 C-23.66 28.495 -23.66 28.495 -27 31 C-26.059 28.394 -25.241 26.29 -23.46 24.147 C-21.703 21.564 -21.573 20.001 -21.445 16.902 C-21.416 16.419 -21.416 16.419 -21.27 13.975 C-21.173 11.946 -21.084 9.918 -21.004 7.889 C-20.54 0.501 -20.54 0.501 -17.672 -2.16 C-10.916 -4.284 -6.098 -3.049 0 0 Z " fill="#F6E5C8" transform="translate(88,32)"/>
<path d="M0 0 C2.133 0.402 2.133 0.402 4 1 C7.313 12.3 8.708 21.961 4 33 C3.722 33.701 3.443 34.403 3.156 35.125 C0.094 42.095 -4.679 46.135 -11.5 49.375 C-19.732 52.349 -29.367 52.644 -37.438 49.062 C-43.644 45.415 -48.449 40.227 -51.562 33.75 C-52.046 30.708 -51.924 28.932 -51 26 C-43.858 19.651 -33.451 16.96 -24.633 13.789 C-16.4 10.748 -8.86 7.273 -2.125 1.562 C-1.774 1.305 -1.774 1.305 0 0 Z " fill="#EFCE93" transform="translate(139,117)"/>
<path d="M0 0 C0.901 -0.049 1.802 -0.098 2.73 -0.148 C7.238 0.617 10.764 1.846 13.812 5.375 C14.71 9.394 14.385 13.23 14.062 17.312 C13.349 28.304 13.349 28.304 15.32 32.855 C18.41 35.979 21.543 37.786 25.438 39.75 C38.408 46.693 48.948 55.245 54.941 69.059 C56.874 76.415 57.222 86.146 54.812 93.375 C55.679 92.529 56.545 91.684 57.438 90.812 C58.914 89.371 58.914 89.371 60.812 88.375 C64.023 88.723 64.023 88.723 66.812 89.375 C71.114 100.763 73.2 112.045 68.812 123.75 C64.128 133.499 57.829 139.39 47.812 143.375 C40.225 145.904 31.468 145.137 24.234 141.852 C18.941 138.624 14.346 134.253 10.258 129.609 C7.771 127.485 4.922 128.199 1.812 128.375 C1.812 129.035 1.812 129.695 1.812 130.375 C-0.25 130.402 -2.312 130.421 -4.375 130.438 C-5.524 130.449 -6.672 130.461 -7.855 130.473 C-10.781 130.387 -13.351 130.053 -16.188 129.375 C-16.188 128.715 -16.188 128.055 -16.188 127.375 C-18.498 127.375 -20.807 127.375 -23.188 127.375 C-23.188 126.715 -23.188 126.055 -23.188 125.375 C-23.805 125.372 -24.422 125.37 -25.059 125.367 C-32.744 125.016 -38.322 122.423 -43.672 116.82 C-45.468 115.107 -47.275 114.217 -49.5 113.125 C-57.591 108.706 -61.786 101.805 -65.188 93.375 C-68.427 80.662 -65.512 69.697 -59 58.688 C-51.459 47.456 -40.209 39.911 -27.25 36.25 C-22.301 34.849 -19.234 33.742 -16.188 29.375 C-12.533 21.935 -11.991 15.801 -11.664 7.59 C-11.188 4.375 -11.188 4.375 -9.836 2.504 C-6.71 0.363 -3.685 0.135 0 0 Z M-9.188 5.375 C-9.931 8.848 -9.919 12.333 -10 15.875 C-10.498 25.609 -12.007 31.394 -19.188 38.375 C-19.188 37.715 -19.188 37.055 -19.188 36.375 C-34.997 39.53 -48.537 47.571 -57.902 60.797 C-63.641 70.445 -64.802 81.445 -62.57 92.406 C-60.406 99.225 -56.685 104.758 -51.188 109.375 C-48.937 110.117 -48.937 110.117 -47.188 110.375 C-47.352 109.932 -47.352 109.932 -48.188 107.688 C-49.109 104.634 -49.273 102.513 -49.188 99.375 C-48.98 100.076 -48.772 100.778 -48.559 101.5 C-45.835 109.886 -41.771 116.569 -34.188 121.375 C-28.934 123.304 -24.428 123.58 -18.938 123.375 C-11.59 123.107 -11.59 123.107 -8.188 125.375 C-2.795 126.961 3.484 127.151 8.812 125.375 C8.754 124.772 8.696 124.168 8.637 123.547 C8.27 117.049 8.27 117.049 10.625 114.125 C14.399 112.053 18.244 110.242 22.191 108.523 C23.056 108.144 23.921 107.765 24.812 107.375 C25.543 107.161 26.274 106.947 27.027 106.727 C29.521 104.839 29.887 102.66 30.499 99.684 C31.035 95.739 31.022 91.848 30.938 87.875 C30.928 87.053 30.919 86.23 30.91 85.383 C30.887 83.38 30.851 81.377 30.812 79.375 C31.646 82.33 31.991 85.076 32.129 88.141 C32.171 89.03 32.213 89.92 32.256 90.836 C32.295 91.756 32.334 92.677 32.375 93.625 C32.397 94.093 32.397 94.093 32.506 96.461 C32.612 98.765 32.714 101.07 32.812 103.375 C36.768 102.718 40.235 101.531 43.938 100 C44.971 99.58 46.005 99.16 47.07 98.727 C50.232 97.168 52.187 95.994 53.477 92.656 C55.057 81.926 54.571 71.812 48.812 62.375 C41.913 53.1 31.636 43.819 20.812 39.375 C18.016 39.719 18.016 39.719 15.812 40.375 C15.524 39.632 15.235 38.89 14.938 38.125 C13.812 35.375 13.812 35.375 12.768 33.583 C11.54 30.744 11.489 28.385 11.398 25.297 C11.36 24.137 11.321 22.977 11.281 21.781 C11.25 20.575 11.219 19.368 11.188 18.125 C11.149 16.903 11.11 15.681 11.07 14.422 C10.976 11.406 10.89 8.391 10.812 5.375 C4.087 2.312 -2.979 -0.361 -9.188 5.375 Z M59.508 91.816 C58.66 92.516 57.811 93.216 56.938 93.938 C50.664 98.706 44.117 101.551 36.812 104.375 C34.22 105.378 31.629 106.383 29.041 107.396 C27.307 108.073 25.57 108.741 23.828 109.396 C18.527 111.455 14.308 113.884 9.812 117.375 C9.949 124.855 12.564 129.107 17.812 134.375 C26.502 141.252 33.953 142.153 44.812 141.375 C51.426 139.85 57.497 136.691 61.812 131.375 C67.918 121.194 70.483 111.785 68.141 99.992 C67.416 97.102 66.651 94.234 65.812 91.375 C62.982 90.169 62.173 90.149 59.508 91.816 Z " fill="#D5B584" transform="translate(77.1875,26.625)"/>
<path d="M0 0 C0.712 0.383 1.424 0.766 2.157 1.16 C3.052 8.911 0.573 14.795 -3.843 21.16 C-6.926 24.035 -10.161 26.129 -13.843 28.16 C-14.895 28.799 -15.947 29.439 -17.03 30.097 C-24.193 32.094 -33.058 32.587 -40.155 29.972 C-43.257 27.88 -43.713 26.636 -44.843 23.16 C-46.968 21.347 -46.968 21.347 -48.843 20.16 C-42.275 15.666 -35.549 12.941 -28.093 10.222 C-20.207 7.334 -12.797 4.27 -5.49 0.099 C-2.843 -0.84 -2.843 -0.84 0 0 Z " fill="#FCEDCB" transform="translate(138.8427734375,121.840087890625)"/>
<path d="M0 0 C54.12 0 108.24 0 164 0 C164 1.65 164 3.3 164 5 C163.47 4.676 162.94 4.351 162.394 4.017 C159.36 2.728 156.99 2.742 153.693 2.733 C153.044 2.728 153.044 2.728 149.763 2.707 C148.327 2.707 146.892 2.708 145.457 2.709 C143.944 2.703 142.431 2.697 140.918 2.689 C136.811 2.671 132.703 2.667 128.596 2.665 C125.169 2.664 121.742 2.656 118.315 2.649 C110.232 2.633 102.15 2.628 94.067 2.629 C85.723 2.631 77.378 2.609 69.034 2.578 C61.873 2.552 54.712 2.541 47.551 2.542 C43.272 2.543 38.994 2.537 34.715 2.516 C30.694 2.497 26.673 2.496 22.652 2.511 C21.175 2.513 19.697 2.508 18.22 2.496 C16.207 2.481 14.193 2.492 12.18 2.506 C11.616 2.505 11.616 2.505 8.763 2.502 C6 3 6 3 4.136 4.578 C2.573 7.909 2.631 10.56 2.639 14.239 C2.637 14.969 2.634 15.699 2.631 16.452 C2.627 18.899 2.643 21.346 2.659 23.794 C2.66 25.548 2.66 27.302 2.658 29.057 C2.657 33.821 2.675 38.585 2.696 43.349 C2.715 48.327 2.716 53.305 2.72 58.283 C2.729 67.711 2.754 77.139 2.784 86.566 C2.817 97.299 2.834 108.031 2.849 118.764 C2.88 140.843 2.933 162.921 3 185 C2.01 185 1.02 185 0 185 C0 123.95 0 62.9 0 0 Z " fill="#FEFDFC" transform="translate(0,0)"/>
<path d="M0 0 C2.461 3.691 2.238 5.611 2.188 10 C2.181 11.237 2.175 12.475 2.168 13.75 C2 17 2 17 1 20 C1.866 19.154 2.733 18.309 3.625 17.438 C5.102 15.996 5.102 15.996 7 15 C10.211 15.348 10.211 15.348 13 16 C17.302 27.388 19.387 38.67 15 50.375 C10.316 60.124 4.016 66.015 -6 70 C-13.587 72.529 -22.344 71.762 -29.578 68.477 C-34.871 65.249 -39.466 60.878 -43.555 56.234 C-46.042 54.11 -48.89 54.824 -52 55 C-52 55.66 -52 56.32 -52 57 C-54.062 57.027 -56.125 57.046 -58.188 57.062 C-59.336 57.074 -60.485 57.086 -61.668 57.098 C-64.593 57.012 -67.163 56.678 -70 56 C-70 55.34 -70 54.68 -70 54 C-72.31 54 -74.62 54 -77 54 C-76.67 53.34 -76.34 52.68 -76 52 C-73.785 51.551 -73.785 51.551 -71.062 51.312 C-70.167 51.226 -69.271 51.14 -68.348 51.051 C-66 51 -66 51 -64 52 C-62.552 52.083 -61.099 52.107 -59.648 52.098 C-59.223 52.096 -59.223 52.096 -57.07 52.088 C-56.626 52.084 -56.626 52.084 -54.375 52.062 C-53.478 52.058 -52.581 52.053 -51.656 52.049 C-49.437 52.037 -47.219 52.021 -45 52 C-45.098 51.382 -45.197 50.764 -45.298 50.128 C-45.411 49.317 -45.524 48.507 -45.641 47.672 C-45.7 47.27 -45.7 47.27 -46.001 45.237 C-46 43 -46 43 -43.75 40.25 C-38.388 36.617 -32.123 34.041 -26 32 C-23.856 25.811 -23.752 19.997 -23.875 13.5 C-23.884 12.582 -23.893 11.664 -23.902 10.719 C-23.926 8.479 -23.958 6.24 -24 4 C-21.358 6.642 -21.069 8.617 -20.886 12.29 C-20.892 13.107 -20.897 13.924 -20.902 14.766 C-20.906 15.655 -20.909 16.545 -20.912 17.461 C-20.916 17.921 -20.916 17.921 -20.938 20.25 C-20.942 21.186 -20.947 22.122 -20.951 23.086 C-20.963 25.391 -20.979 27.695 -21 30 C-18.206 28.881 -15.415 27.755 -12.625 26.625 C-11.831 26.308 -11.037 25.991 -10.219 25.664 C-9.838 25.509 -9.838 25.509 -7.914 24.727 C-7.212 24.444 -6.511 24.161 -5.788 23.87 C-4 23 -4 23 -2 21 C-1.126 18.301 -0.833 15.714 -0.684 12.891 C-0.642 12.137 -0.6 11.382 -0.557 10.605 C-0.517 9.828 -0.478 9.051 -0.438 8.25 C-0.416 7.854 -0.416 7.854 -0.307 5.848 C-0.201 3.899 -0.1 1.949 0 0 Z M5.695 18.441 C4.847 19.141 3.999 19.841 3.125 20.562 C-3.148 25.331 -9.695 28.176 -17 31 C-19.592 32.003 -22.184 33.008 -24.772 34.021 C-26.505 34.698 -28.243 35.366 -29.984 36.021 C-35.285 38.08 -39.505 40.509 -44 44 C-43.864 51.48 -41.249 55.732 -36 61 C-27.31 67.877 -19.859 68.778 -9 68 C-2.386 66.475 3.684 63.316 8 58 C14.106 47.819 16.67 38.41 14.328 26.617 C13.604 23.727 12.838 20.859 12 18 C9.17 16.794 8.361 16.774 5.695 18.441 Z " fill="#C59D5D" transform="translate(131,100)"/>
<path d="M0 0 C1.65 0 3.3 0 5 0 C5 0.66 5 1.32 5 2 C7.31 2 9.62 2 12 2 C12 2.66 12 3.32 12 4 C12.797 3.988 13.593 3.977 14.414 3.965 C24.938 3.875 24.938 3.875 30 5 C30 4.34 30 3.68 30 3 C34.812 1.425 34.812 1.425 38 2 C40.504 4.276 42.5 6.78 44.625 9.41 C48.841 14.007 54.182 16.061 60 18 C62.573 18.07 65.116 18.094 67.688 18.062 C68.389 18.058 69.091 18.053 69.814 18.049 C71.543 18.037 73.272 18.019 75 18 C75 18.33 75 18.66 75 19 C80.29 18.553 85.006 17.898 90 16 C90.893 15.687 91.787 15.374 92.707 15.051 C100.596 12.27 100.596 12.27 104 10 C101.894 15.183 97.944 16.842 93 19 C90.621 19.685 88.285 20.211 85.848 20.641 C84 21 84 21 82 22 C80.523 22.096 79.042 22.131 77.562 22.133 C77.115 22.133 77.115 22.133 74.848 22.137 C73.908 22.133 72.968 22.129 72 22.125 C71.091 22.129 70.182 22.133 69.246 22.137 C63.108 22.128 57.094 21.725 51 21 C51 20.34 51 19.68 51 19 C48.69 18.67 46.38 18.34 44 18 C43.876 17.031 43.752 16.061 43.625 15.062 C43.419 14.052 43.213 13.041 43 12 C39.731 10.365 36.093 10.634 32.492 10.465 C31.652 10.422 30.811 10.379 29.945 10.335 C27.255 10.198 24.565 10.068 21.875 9.938 C20.053 9.846 18.232 9.754 16.41 9.662 C11.94 9.437 7.47 9.217 3 9 C3.66 8.34 4.32 7.68 5 7 C4.188 4.562 4.188 4.562 3 2 C2.01 1.67 1.02 1.34 0 1 C0 0.67 0 0.34 0 0 Z " fill="#E8D7B5" transform="translate(49,152)"/>
<path d="M0 0 C0.33 0 0.66 0 1 0 C1.505 12.258 -0.129 20.38 -8 30 C-11.188 32.375 -11.188 32.375 -14 34 C-14.454 34.557 -14.907 35.114 -15.375 35.688 C-18.264 38.021 -21.434 38.083 -25 38 C-32.761 37.003 -40.831 35.358 -46 29 C-46.5 25.625 -46.5 25.625 -46 23 C-45.67 24.32 -45.34 25.64 -45 27 C-35.344 30.066 -25.694 30.812 -16.375 26.25 C-7.965 21.586 -4.191 17.027 -1 8 C-0.415 5.273 -0.158 2.795 0 0 Z " fill="#F6D9A2" transform="translate(141,123)"/>
<path d="M0 0 C0.33 0 0.66 0 1 0 C1.026 0.822 1.052 1.645 1.078 2.492 C1.508 10.95 3.235 17.47 7 25 C0.996 27.001 -5.216 26.593 -11.023 24.094 C-18.345 20.042 -23.527 14.067 -26 6 C-25.621 3.699 -25.621 3.699 -25 2 C-22 6.75 -22 6.75 -22 9 C-19.383 10.402 -16.963 11.605 -14 12 C-13.34 11.34 -12.68 10.68 -12 10 C-11.67 10.495 -11.67 10.495 -10 13 C-8.701 12.856 -7.401 12.711 -6.062 12.562 C-5.332 12.481 -4.601 12.4 -3.848 12.316 C-2 12 -2 12 -1 11 C-0.766 9.151 -0.587 7.295 -0.438 5.438 C-0.354 4.426 -0.27 3.414 -0.184 2.371 C-0.153 1.98 -0.153 1.98 0 0 Z " fill="#EFDAB6" transform="translate(55,124)"/>
<path d="M0 0 C0.66 0 1.32 0 2 0 C1.523 1.792 1.044 3.584 0.562 5.375 C0.296 6.373 0.029 7.37 -0.246 8.398 C-1 11 -1 11 -2 13 C-2.232 15.546 -2.419 18.074 -2.562 20.625 C-2.606 21.331 -2.649 22.038 -2.693 22.766 C-2.799 24.51 -2.9 26.255 -3 28 C-3.33 28 -3.66 28 -4 28 C-3.856 29.258 -3.711 30.516 -3.562 31.812 C-3.522 32.166 -3.522 32.166 -3.316 33.957 C-3 36 -3 36 -2 39 C-7.65 37.63 -10.823 33.6 -14 29 C-18.366 20.893 -18.475 13.041 -18 4 C-16.68 4.99 -15.36 5.98 -14 7 C-13.34 6.67 -12.68 6.34 -12 6 C-12 9.63 -12 13.26 -12 17 C-8 15 -8 15 -6 12 C-5.34 12 -4.68 12 -4 12 C-3.897 11.134 -3.794 10.267 -3.688 9.375 C-2.966 5.833 -1.729 3.157 0 0 Z " fill="#F7E6CA" transform="translate(32,98)"/>
<path d="M0 0 C0.66 0.33 1.32 0.66 2 1 C2 1.66 2 2.32 2 3 C4.31 3.33 6.62 3.66 9 4 C8.67 15.22 8.34 26.44 8 38 C7.67 38 7.34 38 7 38 C6.67 32.72 6.34 27.44 6 22 C5.546 23.794 5.093 25.589 4.625 27.438 C3.852 30.496 3.852 30.496 3 33 C2.67 33.165 2.67 33.165 1 34 C1.144 32.891 1.289 31.783 1.438 30.641 C1.625 29.177 1.813 27.714 2 26.25 C2.095 25.52 2.191 24.791 2.289 24.039 C2.72 20.651 3 17.421 3 14 C2.841 14.701 2.683 15.403 2.52 16.125 C0.939 22.553 -1.111 27.636 -5 33 C-5.66 32.67 -6.32 32.34 -7 32 C-6.01 30.02 -5.02 28.04 -4 26 C-5.32 26.99 -6.64 27.98 -8 29 C-7.063 26.405 -6.229 24.283 -4.485 22.126 C-2.804 19.72 -2.44 18.124 -2.051 15.234 C-1.988 14.79 -1.988 14.79 -1.67 12.539 C-1.552 11.619 -1.434 10.698 -1.312 9.75 C-1.248 9.282 -1.248 9.282 -0.92 6.914 C-0.603 4.611 -0.296 2.306 0 0 Z " fill="#FAEBD0" transform="translate(69,34)"/>
<path d="M0 0 C0.009 0.69 0.019 1.381 0.028 2.092 C0.082 5.25 0.166 8.406 0.25 11.562 C0.264 12.649 0.278 13.735 0.293 14.854 C0.494 21.48 1.245 25.525 5 31 C5 31.66 5 32.32 5 33 C5.825 32.835 5.825 32.835 10 32 C10.33 33.32 10.66 34.64 11 36 C10.01 36.66 9.02 37.32 8 38 C2.537 34.951 -0.012 31.447 -3 26 C-2.4 29.683 -1.752 33.345 -1 37 C-4.319 34.133 -5.821 31.236 -6.175 26.816 C-6.233 24.229 -6.223 21.65 -6.188 19.062 C-6.187 18.181 -6.186 17.3 -6.186 16.393 C-6.155 11.822 -5.926 7.496 -5 3 C-5.66 2.67 -6.32 2.34 -7 2 C-4.353 0.539 -3.106 0 0 0 Z " fill="#E9CEA5" transform="translate(88,34)"/>
<path d="M0 0 C0.33 0 0.66 0 1 0 C1.086 1.039 1.173 2.078 1.262 3.148 C2.38 14.878 4.515 23.595 13.742 31.625 C19.339 35.033 24.927 35.236 31.25 35 C38.598 34.732 38.598 34.732 42 37 C43.655 37.385 45.322 37.728 47 38 C47 38.33 47 38.66 47 39 C40.548 39.127 40.548 39.127 37.562 38.438 C35 38 35 38 31.438 38.625 C25.05 39.531 18.298 37.964 12.77 34.672 C11.466 33.683 10.186 32.662 8.934 31.609 C6.841 29.868 4.661 28.414 2.375 26.938 C-5.402 21.735 -10.426 16.82 -14 8 C-14.164 5.156 -14.164 5.156 -14 3 C-11.766 5.854 -9.955 8.777 -8.188 11.938 C-5.61 16.311 -3.114 19.062 1 22 C1 20 1 20 0 17 C-0.08 15.665 -0.108 14.326 -0.098 12.988 C-0.094 12.231 -0.091 11.474 -0.088 10.693 C-0.08 9.908 -0.071 9.122 -0.062 8.312 C-0.058 7.515 -0.053 6.718 -0.049 5.896 C-0.037 3.931 -0.019 1.965 0 0 Z " fill="#C8AA7B" transform="translate(27,114)"/>
<path d="M0 0 C0 0.66 0 1.32 0 2 C-2.962 4.172 -5.507 5.836 -9 7 C-9 7.99 -9 8.98 -9 10 C-9 13.708 -10.272 14.457 -12.625 17.117 C-15.812 21.481 -17.306 26.917 -19 32 C-20.938 33.25 -20.938 33.25 -23 34 C-23.66 33.67 -24.32 33.34 -25 33 C-25.59 23.566 -22.08 17.048 -16 10 C-5.243 -1.748 -5.243 -1.748 0 0 Z " fill="#FBEFDA" transform="translate(40,72)"/>
<path d="M0 0 C-0.99 1.32 -1.98 2.64 -3 4 C-3.66 3.67 -4.32 3.34 -5 3 C-15.265 3 -27.279 11.032 -34.375 17.812 C-43.824 27.817 -46.242 37.22 -46.168 50.73 C-46.02 53.604 -45.658 56.206 -45 59 C-46.32 58.67 -47.64 58.34 -49 58 C-51.932 45.081 -49.445 34.527 -42.812 23.312 C-35.458 12.358 -23.832 4.222 -11.18 0.422 C-7.41 -0.308 -3.828 -0.182 0 0 Z " fill="#DBC399" transform="translate(61,62)"/>
<path d="M0 0 C0.99 0.495 1.98 0.99 3 1.5 C3 2.16 3 2.82 3 3.5 C1.35 4.16 -0.3 4.82 -2 5.5 C-2.33 12.76 -2.66 20.02 -3 27.5 C-4.32 26.84 -5.64 26.18 -7 25.5 C-7 19.56 -7 13.62 -7 7.5 C-9.31 7.17 -11.62 6.84 -14 6.5 C-14.33 5.84 -14.66 5.18 -15 4.5 C-15.33 6.15 -15.66 7.8 -16 9.5 C-16.33 9.5 -16.66 9.5 -17 9.5 C-17.234 6.645 -17.425 4.296 -17 1.5 C-12.342 -3.158 -5.638 -2.397 0 0 Z " fill="#EFD5AA" transform="translate(85,30.5)"/>
<path d="M0 0 C0 0.99 0 1.98 0 3 C-4.625 6.469 -8.963 8.936 -14.625 10.062 C-16.982 10.536 -18.847 10.923 -21 12 C-22.477 12.096 -23.958 12.131 -25.438 12.133 C-26.333 12.134 -27.229 12.135 -28.152 12.137 C-29.092 12.133 -30.032 12.129 -31 12.125 C-31.909 12.129 -32.818 12.133 -33.754 12.137 C-39.892 12.128 -45.906 11.725 -52 11 C-52 10.34 -52 9.68 -52 9 C-54.31 8.67 -56.62 8.34 -59 8 C-59.934 4.99 -60.044 4.133 -59 1 C-55.143 2.446 -51.522 4.213 -47.867 6.098 C-43.654 8.134 -39.883 8.118 -35.312 8.062 C-34.611 8.058 -33.909 8.053 -33.186 8.049 C-31.457 8.037 -29.728 8.019 -28 8 C-28 8.33 -28 8.66 -28 9 C-22.71 8.553 -17.994 7.898 -13 6 C-12.095 5.687 -11.19 5.374 -10.258 5.051 C-2.255 2.255 -2.255 2.255 0 0 Z " fill="#F5EAD4" transform="translate(152,162)"/>
<path d="M0 0 C1.307 3.659 0.646 6.059 -0.375 9.75 C-1.871 15.752 -2.459 21.467 -2.708 27.618 C-2.843 30.869 -3.032 33.882 -4 37 C-9.007 35.426 -12.198 32.663 -15.137 28.32 C-16.376 24.989 -16.211 21.75 -16.125 18.25 C-16.116 17.553 -16.107 16.855 -16.098 16.137 C-16.074 14.424 -16.038 12.712 -16 11 C-15.67 11 -15.34 11 -15 11 C-14.876 11.969 -14.753 12.939 -14.625 13.938 C-14.522 14.443 -14.522 14.443 -14 17 C-13.34 17.33 -12.68 17.66 -12 18 C-11.375 21.062 -11.375 21.062 -11 24 C-10.34 24 -9.68 24 -9 24 C-9 24.66 -9 25.32 -9 26 C-7.68 26.33 -6.36 26.66 -5 27 C-4.974 25.973 -4.948 24.945 -4.922 23.887 C-4.604 15.255 -3.634 7.977 0 0 Z " fill="#F9EAD0" transform="translate(45,100)"/>
<path d="M0 0 C4.372 0.635 8.416 1.703 12.637 2.992 C21.918 5.62 31.224 5.83 40.812 6.125 C43.402 6.213 45.991 6.306 48.58 6.411 C50.174 6.474 51.769 6.528 53.364 6.571 C58.776 6.776 58.776 6.776 61 9 C40.931 11.59 18.122 11.015 0 1 C0 0.67 0 0.34 0 0 Z " fill="#F4E9D2" transform="translate(31,155)"/>
<path d="M0 0 C0.33 0 0.66 0 1 0 C1.765 12.449 0.455 21.912 -7.688 31.938 C-12.919 37.417 -20.427 41.858 -28.137 42.098 C-29.308 42.086 -30.48 42.074 -31.688 42.062 C-32.277 42.058 -32.277 42.058 -35.262 42.035 C-36.165 42.024 -37.069 42.012 -38 42 C-37.34 41.01 -36.68 40.02 -36 39 C-33.75 38.629 -33.75 38.629 -31 38.562 C-23.563 38.065 -16.025 35.897 -10.379 30.75 C-6.151 25.385 -3.054 18.745 -2 12 C-1.67 12 -1.34 12 -1 12 C-0.67 8.04 -0.34 4.08 0 0 Z " fill="#CDAA6F" transform="translate(147,129)"/>
<path d="M0 0 C0 0.99 0 1.98 0 3 C-0.66 3 -1.32 3 -2 3 C-2.227 3.743 -2.454 4.485 -2.688 5.25 C-4.339 8.709 -5.731 9.983 -9 12 C-14.645 13.907 -20.087 14.215 -26 14 C-26.33 12.68 -26.66 11.36 -27 10 C-26.345 9.997 -25.69 9.995 -25.016 9.992 C-15.398 9.585 -7.525 5.942 0 0 Z " fill="#FAE3B4" transform="translate(134,143)"/>
<path d="M0 0 C1 3 1 3 0.074 4.98 C-0.155 5.345 -0.155 5.345 -1.312 7.188 C-6.903 16.878 -7.558 28.132 -5 39 C-6.32 38.67 -7.64 38.34 -9 38 C-11.57 26.673 -10.36 16.306 -4.398 6.316 C-2.983 4.167 -1.532 2.068 0 0 Z " fill="#D3B890" transform="translate(21,82)"/>
<path d="M0 0 C0.33 0 0.66 0 1 0 C1.049 1.158 1.098 2.315 1.148 3.508 C1.224 5.047 1.299 6.586 1.375 8.125 C1.406 8.886 1.437 9.646 1.469 10.43 C1.702 14.946 2.327 18.742 4 23 C-1.595 21.644 -4.77 17.496 -8 13 C-9.438 9.5 -9.438 9.5 -10 7 C-9.34 6.34 -8.68 5.68 -8 5 C-7.794 5.619 -7.587 6.237 -7.375 6.875 C-5.452 9.847 -3.334 10.13 0 11 C0 7.37 0 3.74 0 0 Z " fill="#EED8B2" transform="translate(26,114)"/>
<path d="M0 0 C-0.688 1.938 -0.688 1.938 -2 4 C-4.625 4.75 -4.625 4.75 -7 5 C-7 5.66 -7 6.32 -7 7 C-12.61 7 -18.22 7 -24 7 C-23.67 5.68 -23.34 4.36 -23 3 C-22.238 2.963 -21.476 2.925 -20.691 2.887 C-14.636 2.501 -9.392 1.779 -3.742 -0.477 C-2 -1 -2 -1 0 0 Z " fill="#ECC788" transform="translate(132,158)"/>
<path d="M0 0 C3.862 0.761 7.704 0.916 11.629 1.117 C12.023 1.139 12.023 1.139 14.018 1.248 C15.95 1.353 17.883 1.455 19.816 1.555 C19.156 2.215 18.496 2.875 17.816 3.555 C16.826 3.555 15.836 3.555 14.816 3.555 C14.816 4.215 14.816 4.875 14.816 5.555 C12.754 5.582 10.691 5.601 8.629 5.617 C7.48 5.629 6.332 5.64 5.148 5.652 C2.223 5.567 -0.347 5.233 -3.184 4.555 C-3.184 3.895 -3.184 3.235 -3.184 2.555 C-5.494 2.555 -7.804 2.555 -10.184 2.555 C-9.854 1.895 -9.524 1.235 -9.184 0.555 C-5.987 -0.121 -3.231 -0.659 0 0 Z " fill="#BF914B" transform="translate(64.18359375,151.4453125)"/>
<path d="M0 0 C3.9 0.78 7.368 2.415 11 4 C15.338 5.446 19.673 5.006 24.195 4.873 C28.033 4.813 29.724 4.816 33 7 C34.655 7.385 36.322 7.728 38 8 C38 8.33 38 8.66 38 9 C31.548 9.127 31.548 9.127 28.562 8.438 C26 8 26 8 22.438 8.625 C15.642 9.618 8.035 7.584 2.25 3.938 C1.508 3.298 0.765 2.659 0 2 C0 1.34 0 0.68 0 0 Z " fill="#C29F67" transform="translate(36,144)"/>
<path d="M0 0 C0.99 0.495 1.98 0.99 3 1.5 C3 2.16 3 2.82 3 3.5 C-0.208 4.569 -2.63 4.667 -6 4.688 C-7.052 4.702 -8.104 4.716 -9.188 4.73 C-12 4.5 -12 4.5 -15 2.5 C-15 1.51 -15 0.52 -15 -0.5 C-9.765 -2.245 -5.028 -2.167 0 0 Z " fill="#F9EBCA" transform="translate(85,30.5)"/>
<path d="M0 0 C0.66 0 1.32 0 2 0 C2.06 4.668 2.054 9.332 2 14 C1.996 14.875 1.992 15.751 1.988 16.652 C1.716 21.985 -0.076 25.302 -3.234 29.566 C-5.565 31.459 -7.078 31.273 -10 31 C-9.801 30.805 -9.801 30.805 -8.793 29.82 C-0.727 21.303 -0.472 11.29 0 0 Z " fill="#C7A268" transform="translate(66,31)"/>
<path d="M0 0 C0.66 0 1.32 0 2 0 C0.761 8.424 -4.028 14.226 -10 20 C-12.299 21.685 -14.393 22.77 -17 24 C-17.866 24.412 -18.733 24.825 -19.625 25.25 C-22.207 26.065 -24.309 26.154 -27 26 C-24.789 23.789 -23.942 23.647 -21 22.938 C-13.55 20.514 -8.046 15.393 -4.035 8.742 C-2.588 5.861 -1.239 2.977 0 0 Z " fill="#FBE6BB" transform="translate(139,123)"/>
<path d="M0 0 C4.631 2.736 7.41 5.119 10 10 C10.25 12.875 10.25 12.875 10 15 C7.006 14.663 6.012 14.012 3.859 11.82 C3.163 10.931 2.467 10.041 1.75 9.125 C1.044 8.241 0.337 7.356 -0.391 6.445 C-2 4 -2 4 -2 1 C-1.34 0.67 -0.68 0.34 0 0 Z " fill="#F9E8CB" transform="translate(101,78)"/>
<path d="M0 0 C2.671 2.595 4.984 4.979 7.188 8 C13.889 16.026 24.203 17.054 34 18 C34 18.33 34 18.66 34 19 C23.289 19.643 15.58 19.169 6.906 12.355 C2.761 8.593 1.008 5.491 0 0 Z " fill="#C09855" transform="translate(87,151)"/>
<path d="M0 0 C0.33 0 0.66 0 1 0 C1.049 0.543 1.049 0.543 1.297 3.289 C1.447 4.734 1.598 6.18 1.75 7.625 C1.812 8.338 1.874 9.051 1.938 9.785 C2.489 14.797 3.713 18.008 7 22 C9.141 23.68 9.141 23.68 11.25 24.875 C11.956 25.285 12.663 25.695 13.391 26.117 C13.922 26.409 14.453 26.7 15 27 C11.87 27.884 10.126 27.938 7 27 C6.34 27 5.68 27 5 27 C-1.627 18.906 -0.478 9.85 0 0 Z " fill="#CEAD7C" transform="translate(88,40)"/>
<path d="M0 0 C0 6.27 0 12.54 0 19 C-0.33 19 -0.66 19 -1 19 C-1.33 15.04 -1.66 11.08 -2 7 C-4.318 9.318 -3.461 14.956 -3.621 18.094 C-3.746 19.053 -3.871 20.012 -4 21 C-4.66 21.33 -5.32 21.66 -6 22 C-6.027 19.958 -6.047 17.917 -6.062 15.875 C-6.074 14.738 -6.086 13.601 -6.098 12.43 C-6.005 9.187 -5.614 6.181 -5 3 C-5.66 2.67 -6.32 2.34 -7 2 C-4.353 0.539 -3.106 0 0 0 Z " fill="#E6C99B" transform="translate(88,34)"/>
<path d="M0 0 C0.33 0.99 0.66 1.98 1 3 C-7.077 9.638 -13.155 12.345 -23.68 12.301 C-26 12 -26 12 -28 10 C-25.36 9.835 -25.36 9.835 -12 9 C-12 8.34 -12 7.68 -12 7 C-11.301 6.662 -10.603 6.325 -9.883 5.977 C-8.973 5.531 -8.063 5.085 -7.125 4.625 C-6.673 4.405 -6.673 4.405 -4.383 3.289 C-2 2 -2 2 0 0 Z " fill="#F5DAA9" transform="translate(137,156)"/>
<path d="M0 0 C3.953 3.655 6.678 7.32 9.312 12 C9.672 12.603 10.031 13.207 10.4 13.828 C12.414 17.356 13.455 19.925 13 24 C10.052 20.234 7.76 16.198 5.402 12.047 C4.94 11.371 4.477 10.696 4 10 C3.34 10 2.68 10 2 10 C-0.429 6.356 -0.162 4.288 0 0 Z " fill="#FAECD4" transform="translate(81,69)"/>
<path d="M0 0 C4.29 3.994 7.267 8.366 9 14 C8.625 16.312 8.625 16.312 8 18 C6.68 16.68 5.36 15.36 4 14 C3.67 14.66 3.34 15.32 3 16 C0.894 10.472 -0.379 5.93 0 0 Z " fill="#ECD5AF" transform="translate(99,87)"/>
<path d="M0 0 C1.98 0.99 3.96 1.98 6 3 C5.67 5.31 5.34 7.62 5 10 C3.68 10 2.36 10 1 10 C0.67 10.66 0.34 11.32 0 12 C-1.621 7.9 -2.34 5.262 -1 1 C-0.67 0.67 -0.34 0.34 0 0 Z " fill="#E2BA75" transform="translate(89,142)"/>
<path d="M0 0 C0.433 0.144 0.433 0.144 2.625 0.875 C5.863 9.972 5.947 18.367 5.625 27.875 C5.295 27.875 4.965 27.875 4.625 27.875 C4.588 27.076 4.55 26.277 4.512 25.453 C4.043 17.622 2.785 10.413 0.625 2.875 C-2.719 3.599 -4.718 4.692 -7.375 6.875 C-8.035 6.545 -8.695 6.215 -9.375 5.875 C-4.438 -0.164 -4.438 -0.164 0 0 Z " fill="#C29553" transform="translate(141.375,115.125)"/>
<path d="M0 0 C3.207 3.207 3.129 6.593 3.316 10.984 C3.358 11.919 3.4 12.854 3.443 13.816 C3.483 14.784 3.522 15.753 3.562 16.75 C3.606 17.734 3.649 18.717 3.693 19.73 C3.799 22.154 3.901 24.577 4 27 C3.01 27.33 2.02 27.66 1 28 C-0.357 25.286 -0.112 23.152 -0.098 20.117 C-0.094 18.951 -0.091 17.784 -0.088 16.582 C-0.08 15.359 -0.071 14.135 -0.062 12.875 C-0.058 11.644 -0.053 10.413 -0.049 9.145 C-0.037 6.096 -0.021 3.048 0 0 Z " fill="#CEAC7B" transform="translate(107,104)"/>
<path d="M0 0 C1.812 0.125 1.812 0.125 4 1 C5 3 6 5 7 7 C8.938 7.625 8.938 7.625 11 8 C13.125 9.938 13.125 9.938 15 12 C15.66 12.66 16.32 13.32 17 14 C11.854 14.385 9.764 12.776 5.871 9.656 C3.567 7.617 1.677 5.585 0 3 C0 2.01 0 1.02 0 0 Z " fill="#F1D5A1" transform="translate(90,152)"/>
<path d="M0 0 C0.681 0.846 1.361 1.691 2.062 2.562 C1.733 3.222 1.403 3.882 1.062 4.562 C-0.73 4.449 -2.521 4.321 -4.312 4.188 C-4.811 4.153 -4.811 4.153 -7.336 3.977 C-9.938 3.562 -9.938 3.562 -11.938 1.562 C-11.278 1.562 -10.618 1.562 -9.938 1.562 C-9.938 0.572 -9.938 -0.417 -9.938 -1.438 C-3.661 -3.037 -3.661 -3.037 0 0 Z " fill="#E1CCA4" transform="translate(88.9375,156.4375)"/>
<path d="M0 0 C5.471 1.824 7.517 8.172 10.09 13.078 C11.329 15.704 12.061 17.522 11.688 20.438 C11.461 20.953 11.234 21.469 11 22 C8.671 19.143 7.305 16.523 6.062 13.062 C4.547 9.083 2.768 6.262 0 3 C0 2.01 0 1.02 0 0 Z " fill="#CBAD7F" transform="translate(121,81)"/>
<path d="M0 0 C0.991 0.327 1.983 0.655 3.004 0.992 C7.018 2.139 10.759 2.199 14.938 2.125 C15.621 2.116 16.305 2.107 17.01 2.098 C18.673 2.074 20.337 2.039 22 2 C22 2.33 22 2.66 22 3 C22.825 3.165 22.825 3.165 27 4 C27 4.33 27 4.66 27 5 C24.167 5.027 21.333 5.047 18.5 5.062 C18.104 5.067 18.104 5.067 16.102 5.088 C10.976 5.109 6.042 4.976 1 4 C0.34 3.01 -0.32 2.02 -1 1 C-0.67 0.67 -0.34 0.34 0 0 Z " fill="#E9D8B9" transform="translate(102,168)"/>
<path d="M0 0 C0.33 0 0.66 0 1 0 C1.034 0.609 1.069 1.218 1.104 1.845 C2.467 24.172 2.467 24.172 8 33 C4.663 31.633 3.244 30.478 1.75 27.188 C-1.47 18.697 -0.32 8.928 0 0 Z " fill="#E6CFAA" transform="translate(56,116)"/>
<path d="M0 0 C-7.575 3.907 -14.536 6.01 -23 7 C-23 6.34 -23 5.68 -23 5 C-19.922 3.962 -16.837 2.948 -13.75 1.938 C-12.877 1.643 -12.005 1.348 -11.105 1.045 C-10.261 0.771 -9.417 0.497 -8.547 0.215 C-7.772 -0.042 -6.997 -0.298 -6.198 -0.563 C-3.774 -1.045 -2.322 -0.779 0 0 Z " fill="#FDF6DE" transform="translate(119,137)"/>
<path d="M0 0 C3.918 1.306 6.326 2.831 9 6 C9 6.66 9 7.32 9 8 C6.03 7.67 3.06 7.34 0 7 C-1 3 -1 3 0 0 Z " fill="#F1E3C9" transform="translate(93,163)"/>
<path d="M0 0 C0.66 0 1.32 0 2 0 C2.904 6.326 2.904 11.674 2 18 C2.66 18.33 3.32 18.66 4 19 C2.35 19.66 0.7 20.32 -1 21 C-0.67 14.07 -0.34 7.14 0 0 Z " fill="#DFC499" transform="translate(123,105)"/>
<path d="M0 0 C0.66 0 1.32 0 2 0 C1.523 1.792 1.044 3.584 0.562 5.375 C0.296 6.373 0.029 7.37 -0.246 8.398 C-1 11 -1 11 -2 13 C-2.232 15.546 -2.419 18.074 -2.562 20.625 C-2.606 21.331 -2.649 22.038 -2.693 22.766 C-2.799 24.51 -2.9 26.255 -3 28 C-3.33 28 -3.66 28 -4 28 C-5.121 17.213 -5.326 9.684 0 0 Z " fill="#E9D2AE" transform="translate(32,98)"/>
<path d="M0 0 C0.33 0 0.66 0 1 0 C1.11 1.062 1.219 2.124 1.332 3.219 C2.137 10.543 2.898 17.232 6 24 C4.68 24 3.36 24 2 24 C0.155 18.529 -0.253 13.812 -0.125 8.062 C-0.116 7.283 -0.107 6.504 -0.098 5.701 C-0.074 3.801 -0.038 1.9 0 0 Z " fill="#D9BE92" transform="translate(27,114)"/>
<path d="M0 0 C0.99 0.66 1.98 1.32 3 2 C4.655 2.385 6.322 2.728 8 3 C8 3.33 8 3.66 8 4 C1.548 4.127 1.548 4.127 -1.438 3.438 C-3.987 3.002 -5.658 3.171 -8.188 3.562 C-9.446 3.707 -10.704 3.851 -12 4 C-12.66 3.34 -13.32 2.68 -14 2 C-9.161 0.42 -5.159 -0.397 0 0 Z " fill="#C1985C" transform="translate(66,149)"/>
<path d="M0 0 C0.66 0.66 1.32 1.32 2 2 C1.67 2.66 1.34 3.32 1 4 C-1.97 4 -4.94 4 -8 4 C-8 3.34 -8 2.68 -8 2 C-8.99 1.67 -9.98 1.34 -11 1 C-7.077 -0.308 -4.14 -0.197 0 0 Z " fill="#F5DEB2" transform="translate(81,29)"/>
<path d="M0 0 C3.964 0.536 7.814 1.394 11.688 2.375 C12.619 2.61 13.551 2.844 14.512 3.086 C17.07 4.026 18.272 4.932 20 7 C12.714 6.108 6.486 4.48 0 1 C0 0.67 0 0.34 0 0 Z " fill="#F6EBD4" transform="translate(31,155)"/>
<path d="M0 0 C2 3 2 3 2 6 C-0.882 6.961 -2.699 7.106 -5.688 7.062 C-6.092 7.058 -6.092 7.058 -8.137 7.035 C-8.444 7.029 -8.444 7.029 -10 7 C-10 6.67 -10 6.34 -10 6 C-8.35 5.67 -6.7 5.34 -5 5 C-5 4.34 -5 3.68 -5 3 C-2.5 1.375 -2.5 1.375 0 0 Z " fill="#E4C99F" transform="translate(84,146)"/>
<path d="M0 0 C0 6.27 0 12.54 0 19 C-0.33 19 -0.66 19 -1 19 C-1 14.05 -1 9.1 -1 4 C-1.99 3.835 -1.99 3.835 -7 3 C-3.375 0 -3.375 0 0 0 Z " fill="#E1C190" transform="translate(88,34)"/>
<path d="M0 0 C0.66 0 1.32 0 2 0 C0.617 4.703 -2.086 8.102 -6 11 C-6.99 11 -7.98 11 -9 11 C-7.755 7.265 -6.054 6.399 -3 4 C-2.443 3.257 -1.886 2.515 -1.312 1.75 C-0.879 1.173 -0.446 0.595 0 0 Z " fill="#C39F63" transform="translate(141,154)"/>
<path d="M0 0 C4.29 3.994 7.267 8.366 9 14 C8.625 16.312 8.625 16.312 8 18 C6.226 15.338 5.15 13.08 4 10.125 C3.835 9.703 3.835 9.703 3 7.57 C2.835 7.146 2.835 7.146 2 5 C1.335 3.333 0.669 1.666 0 0 Z " fill="#DEC297" transform="translate(99,87)"/>
<path d="M0 0 C0 0.66 0 1.32 0 2 C-1.65 2.66 -3.3 3.32 -5 4 C-5 3.34 -5 2.68 -5 2 C-7.31 2 -9.62 2 -12 2 C-11.67 1.34 -11.34 0.68 -11 0 C-7.082 -0.813 -3.821 -1.376 0 0 Z " fill="#A66C1C" transform="translate(66,152)"/>
<path d="M0 0 C1.65 0 3.3 0 5 0 C5 0.66 5 1.32 5 2 C7.31 2 9.62 2 12 2 C12 2.66 12 3.32 12 4 C12.66 4.33 13.32 4.66 14 5 C13.01 5 12.02 5 11 5 C11 4.34 11 3.68 11 3 C9.35 3.33 7.7 3.66 6 4 C5.67 4.99 5.34 5.98 5 7 C4.732 6.196 4.464 5.391 4.188 4.562 C3.796 3.717 3.404 2.871 3 2 C2.01 1.67 1.02 1.34 0 1 C0 0.67 0 0.34 0 0 Z " fill="#DBC090" transform="translate(49,152)"/>
<path d="M0 0 C0.33 0 0.66 0 1 0 C1.108 2.082 1.186 4.166 1.25 6.25 C1.296 7.41 1.343 8.57 1.391 9.766 C0.93 13.577 -0.051 14.655 -3 17 C-3.33 16.34 -3.66 15.68 -4 15 C-3.267 13.335 -2.531 11.671 -1.77 10.02 C-0.516 6.73 -0.307 3.495 0 0 Z " fill="#F9E0B0" transform="translate(141,123)"/>
<path d="M0 0 C0.33 0.66 0.66 1.32 1 2 C1.66 2.33 2.32 2.66 3 3 C2.34 3 1.68 3 1 3 C0.794 3.536 0.588 4.072 0.375 4.625 C-1.58 8.002 -4.182 10.305 -7 13 C-7.66 12.67 -8.32 12.34 -9 12 C-8.518 11.469 -8.036 10.938 -7.539 10.391 C-6.907 9.684 -6.276 8.978 -5.625 8.25 C-5.312 7.902 -5.312 7.902 -3.727 6.141 C-2.125 4.155 -1.035 2.32 0 0 Z " fill="#F2E2C5" transform="translate(144,152)"/>
<path d="M0 0 C0.33 0 0.66 0 1 0 C1.66 6.6 2.32 13.2 3 20 C2.67 19.34 2.34 18.68 2 18 C1.34 18 0.68 18 0 18 C0 12.06 0 6.12 0 0 Z " fill="#C29C64" transform="translate(88,40)"/>
<path d="M0 0 C3.04 3.649 4.965 7.744 7 12 C6.01 12.33 5.02 12.66 4 13 C-0.592 4.738 -0.592 4.738 0 0 Z " fill="#CFB285" transform="translate(13,117)"/>
<path d="M0 0 C0.825 0.165 0.825 0.165 5 1 C5 2.32 5 3.64 5 5 C3.35 5 1.7 5 0 5 C0 3.35 0 1.7 0 0 Z " fill="#F6DCA9" transform="translate(88,145)"/>
<path d="M0 0 C-0.33 1.65 -0.66 3.3 -1 5 C-3.31 5 -5.62 5 -8 5 C-3.375 0 -3.375 0 0 0 Z " fill="#F1D9A7" transform="translate(142,117)"/>
<path d="M0 0 C0.33 0 0.66 0 1 0 C1 2.64 1 5.28 1 8 C0.67 8 0.34 8 0 8 C-0.33 9.98 -0.66 11.96 -1 14 C-1.33 14 -1.66 14 -2 14 C-2.054 12.042 -2.093 10.084 -2.125 8.125 C-2.148 7.034 -2.171 5.944 -2.195 4.82 C-2 2 -2 2 0 0 Z " fill="#F8E7CB" transform="translate(80,59)"/>
<path d="M0 0 C0.33 1.32 0.66 2.64 1 4 C-0.65 4.33 -2.3 4.66 -4 5 C-4.33 3.68 -4.66 2.36 -5 1 C-3 0 -3 0 0 0 Z " fill="#E3D0AA" transform="translate(60,155)"/>
<path d="M0 0 C3.3 0 6.6 0 10 0 C10 0.99 10 1.98 10 3 C5.061 3.337 4.215 3.161 0 0 Z " fill="#B3823B" transform="translate(69,154)"/>
<path d="M0 0 C1.98 0.33 1.98 0.33 12 2 C12 2.33 12 2.66 12 3 C10.586 3.224 9.168 3.428 7.75 3.625 C6.961 3.741 6.172 3.857 5.359 3.977 C2.678 4.003 1.273 3.366 -1 2 C-0.67 1.34 -0.34 0.68 0 0 Z " fill="#C7A56F" transform="translate(45,148)"/>
<path d="M0 0 C0.33 0.99 0.66 1.98 1 3 C0.67 3.66 0.34 4.32 0 5 C-2.314 5.731 -4.648 6.401 -7 7 C-7.66 6.34 -8.32 5.68 -9 5 C-8.434 4.807 -7.868 4.613 -7.285 4.414 C-6.552 4.154 -5.818 3.893 -5.062 3.625 C-4.697 3.497 -4.697 3.497 -2.848 2.852 C-1 2 -1 2 0 0 Z " fill="#CEAA6E" transform="translate(106,130)"/>
<path d="M0 0 C3 3.75 3 3.75 3 6 C1.02 6.99 -0.96 7.98 -3 9 C-2.301 5.853 -1.239 2.974 0 0 Z " fill="#CBA76C" transform="translate(130,117)"/>
<path d="M0 0 C2.706 1.353 2.962 2.81 4.125 5.562 C4.478 6.389 4.831 7.215 5.195 8.066 C5.461 8.704 5.726 9.343 6 10 C2.156 8.234 2.156 8.234 0.75 6.125 C0 4 0 4 0 0 Z " fill="#D6B98C" transform="translate(58,139)"/>
<path d="M0 0 C0.33 0 0.66 0 1 0 C1.33 5.28 1.66 10.56 2 16 C1.01 16.33 0.02 16.66 -1 17 C-0.67 11.39 -0.34 5.78 0 0 Z " fill="#E5D1B0" transform="translate(133,103)"/>
<path d="M0 0 C0.99 0 1.98 0 3 0 C3 0.66 3 1.32 3 2 C6.3 2.33 9.6 2.66 13 3 C13 3.33 13 3.66 13 4 C11.396 4.054 9.792 4.093 8.188 4.125 C7.294 4.148 6.401 4.171 5.48 4.195 C3 4 3 4 0 2 C0 1.34 0 0.68 0 0 Z " fill="#FCF2D8" transform="translate(70,31)"/>
<path d="M0 0 C0.66 0 1.32 0 2 0 C4.092 4.431 4.092 4.431 3.625 7.312 C3.419 7.869 3.213 8.426 3 9 C0.903 6.64 0.031 5.454 -0.188 2.25 C-0.126 1.507 -0.064 0.765 0 0 Z " fill="#CEB289" transform="translate(129,94)"/>
<path d="M0 0 C2.812 -0.25 2.812 -0.25 6 0 C7.875 2 7.875 2 9 4 C8.01 4.33 7.02 4.66 6 5 C5.567 4.546 5.134 4.093 4.688 3.625 C3 2 3 2 0 0 Z " fill="#CBB182" transform="translate(29,140)"/>
<path d="M0 0 C3.688 0.498 5.605 1.101 8 4 C4.284 4.201 3.228 4.152 0 2 C0 1.34 0 0.68 0 0 Z " fill="#F3DAAC" transform="translate(99,162)"/>
<path d="M0 0 C0.33 0.99 0.66 1.98 1 3 C0.34 3.66 -0.32 4.32 -1 5 C-2.667 5 -4.333 5 -6 5 C-3.993 1.989 -3.161 1.37 0 0 Z " fill="#F2D49F" transform="translate(139,153)"/>
<path d="M0 0 C0.66 0.66 1.32 1.32 2 2 C1.625 4.125 1.625 4.125 1 6 C1.66 6 2.32 6 3 6 C2 8 2 8 0 9 C-0.879 2.848 -0.879 2.848 -1 1 C-0.67 0.67 -0.34 0.34 0 0 Z " fill="#F2DEBE" transform="translate(95,102)"/>
<path d="M0 0 C1.32 0.33 2.64 0.66 4 1 C4 3.97 4 6.94 4 10 C3.67 10 3.34 10 3 10 C2.876 9.031 2.752 8.061 2.625 7.062 C2.419 6.052 2.213 5.041 2 4 C1.34 3.67 0.68 3.34 0 3 C0 2.01 0 1.02 0 0 Z " fill="#F8E5C3" transform="translate(74,37)"/>
</svg>
