<?xml version="1.0" encoding="UTF-8"?>
<!-- Generator: visioncortex VTracer 0.6.12 -->
<svg version="1.1" xmlns="http://www.w3.org/2000/svg" width="164" height="185">
<path d="M0 0 C54.12 0 108.24 0 164 0 C164 61.05 164 122.1 164 185 C109.88 185 55.76 185 0 185 C0 123.95 0 62.9 0 0 Z " fill="#FCF7EB" transform="translate(0,0)"/>
<path d="M0 0 C7.37 1.623 12.247 6.722 16.531 12.648 C17.652 14.626 18.19 16.356 18.625 18.578 C19.15 18.543 19.15 18.543 21.809 18.367 C29.8 17.999 34.997 17.864 41.414 23.125 C44.948 25.448 48.704 25.566 52.828 26.105 C59.051 27.157 63.35 30.611 67.182 35.52 C71.904 42.256 73.218 48.465 72.938 56.578 C72.928 57.416 72.918 58.254 72.908 59.117 C72.764 67.223 71.964 74.915 69.875 82.766 C68.622 87.518 67.459 92.269 66.461 97.082 C61.078 122.86 61.078 122.86 51.434 130.492 C45.741 133.91 40.514 133.885 34 134.039 C30.061 134.668 28.544 135.943 25.625 138.578 C19.958 141.722 14.001 142.461 7.625 141.578 C3.261 140.299 -0.825 138.815 -4.402 135.961 C-6.687 134.359 -7.814 134.281 -10.562 134.266 C-17.291 133.722 -22.09 129.925 -26.688 125.203 C-30.832 118.757 -33.1 112.677 -34.48 105.152 C-34.65 104.283 -34.82 103.414 -34.994 102.518 C-35.528 99.769 -36.046 97.018 -36.562 94.266 C-37.093 91.497 -37.627 88.728 -38.163 85.96 C-38.494 84.244 -38.821 82.528 -39.145 80.811 C-39.744 77.657 -40.358 74.628 -41.375 71.578 C-41.688 67.563 -41.699 63.542 -41.75 59.516 C-41.787 58.421 -41.825 57.326 -41.863 56.197 C-41.966 46.596 -39.489 39.707 -32.938 32.641 C-28.372 28.477 -24.562 26.573 -18.375 26.203 C-14.758 25.954 -12.846 25.573 -10.188 23.078 C-6.86 20.121 -4.743 19.84 -0.375 19.578 C-0.375 18.918 -0.375 18.258 -0.375 17.578 C-1.612 17.681 -2.85 17.784 -4.125 17.891 C-7.544 17.885 -8.136 17.781 -10.875 15.453 C-12.666 12.021 -13.076 10.392 -12.375 6.578 C-9.222 0.903 -6.473 -0.424 0 0 Z " fill="#225806" transform="translate(60.375,30.421875)"/>
<path d="M0 0 C6.716 4.012 10.432 8.989 13.027 16.34 C14.568 24.02 14.011 31.964 13.723 39.76 C13.773 42.059 13.773 42.059 14.308 44.165 C15.073 47.28 13.981 49.877 13.148 52.934 C11.844 57.796 10.624 62.651 9.602 67.582 C4.24 93.33 4.24 93.33 -5.418 100.973 C-11.111 104.391 -16.337 104.365 -22.852 104.52 C-26.791 105.149 -28.308 106.423 -31.227 109.059 C-36.893 112.203 -42.851 112.942 -49.227 112.059 C-53.572 110.785 -57.66 109.312 -61.219 106.465 C-63.581 104.811 -65.125 104.581 -67.977 104.371 C-68.776 104.305 -69.575 104.24 -70.398 104.172 C-71.002 104.134 -71.605 104.097 -72.227 104.059 C-72.227 103.729 -72.227 103.399 -72.227 103.059 C-70.577 102.894 -70.577 102.894 -62.227 102.059 C-62.783 101.46 -63.34 100.862 -63.914 100.246 C-69.017 93.213 -72.573 84.789 -73.227 76.059 C-72.766 73.773 -72.766 73.773 -72.227 72.059 C-71.84 72.734 -71.453 73.41 -71.055 74.105 C-70.794 74.551 -70.794 74.551 -69.477 76.809 C-68.966 77.69 -68.456 78.572 -67.93 79.48 C-64.711 84.352 -60.822 88.232 -55 89.57 C-47.306 90.678 -40.944 89.322 -34.602 84.746 C-27.732 78.34 -24.02 67.719 -21.734 58.852 C-21.227 57.059 -21.227 57.059 -20.227 56.059 C-20.069 54.353 -19.976 52.641 -19.91 50.93 C-19.889 50.412 -19.889 50.412 -19.783 47.795 C-19.744 46.706 -19.705 45.618 -19.664 44.496 C-19.621 43.404 -19.578 42.311 -19.533 41.186 C-19.427 38.477 -19.325 35.768 -19.227 33.059 C-18.567 32.894 -18.567 32.894 -15.227 32.059 C-11.497 36.786 -11.872 41.141 -12.039 46.871 C-12.046 47.313 -12.046 47.313 -12.08 49.549 C-12.115 51.719 -12.169 53.889 -12.227 56.059 C-10.266 49.442 -9.797 43.256 -9.727 36.371 C-9.685 35.352 -9.644 34.333 -9.602 33.283 C-9.526 26.024 -9.526 26.024 -11.514 23.286 C-14.114 21.082 -17.091 19.385 -20.227 18.059 C-18.817 14.587 -17.321 13.178 -14.102 11.309 C-13.377 10.881 -12.653 10.453 -11.906 10.012 C-11.352 9.697 -10.798 9.383 -10.227 9.059 C-12.207 7.409 -14.187 5.759 -16.227 4.059 C-15.414 2.121 -15.414 2.121 -14.227 0.059 C-9.458 -1.531 -4.722 -1.997 0 0 Z " fill="#367215" transform="translate(117.2265625,59.94140625)"/>
<path d="M0 0 C3.125 1.125 3.125 1.125 5.25 2.25 C7.784 3.433 9.339 3.449 12.125 3.125 C14.485 2.189 16.821 1.192 19.125 0.125 C24.57 -1.69 30.126 -1.615 35.5 0.375 C40.976 4.026 42.591 6.685 44.125 13.125 C44.831 21.69 44.47 29.182 41.125 37.125 C40.795 37.125 40.465 37.125 40.125 37.125 C40.135 36.54 40.146 35.955 40.157 35.353 C40.198 32.693 40.224 30.034 40.25 27.375 C40.258 26.915 40.258 26.915 40.301 24.586 C40.307 23.696 40.314 22.807 40.32 21.891 C40.331 21.074 40.341 20.257 40.352 19.415 C40.103 16.906 39.382 15.291 38.125 13.125 C36.805 13.125 35.485 13.125 34.125 13.125 C34.141 13.78 34.156 14.435 34.173 15.109 C34.235 18.114 34.274 21.119 34.312 24.125 C34.338 25.155 34.363 26.185 34.389 27.246 C34.45 33.684 33.769 38.254 31.125 44.125 C30.737 45.156 30.349 46.188 29.949 47.25 C26.305 56.466 22.063 64.242 13.125 69.125 C6.729 71.78 0.429 71.712 -6.047 69.324 C-14.152 65.004 -19.027 55.586 -21.875 47.125 C-22.771 43.401 -23.43 39.652 -24.062 35.875 C-24.24 34.902 -24.417 33.929 -24.6 32.926 C-27.72 14.784 -27.72 14.784 -23.156 6.848 C-17.01 -1.416 -9.574 -2.162 0 0 Z " fill="#44851B" transform="translate(63.875,79.875)"/>
<path d="M0 0 C54.12 0 108.24 0 164 0 C164 61.05 164 122.1 164 185 C162.35 185 160.7 185 159 185 C158.999 184.107 158.999 183.214 158.998 182.294 C158.983 160.578 158.941 138.863 158.868 117.147 C158.833 106.645 158.808 96.144 158.804 85.643 C158.801 76.491 158.781 67.34 158.739 58.188 C158.718 53.341 158.706 48.494 158.714 43.647 C158.721 39.087 158.706 34.527 158.672 29.966 C158.664 28.291 158.664 26.615 158.673 24.94 C158.685 22.655 158.666 20.372 158.639 18.087 C158.636 16.807 158.634 15.528 158.631 14.21 C158 11 158 11 155.861 8.587 C152.482 6.713 150.441 6.506 146.59 6.519 C145.943 6.516 145.943 6.516 142.668 6.502 C141.241 6.516 139.814 6.531 138.387 6.546 C136.879 6.547 135.371 6.546 133.863 6.544 C129.775 6.543 125.686 6.566 121.598 6.594 C117.323 6.619 113.048 6.622 108.774 6.627 C100.681 6.639 92.589 6.672 84.496 6.712 C75.282 6.757 66.068 6.779 56.854 6.799 C37.903 6.841 18.951 6.911 0 7 C0 4.69 0 2.38 0 0 Z " fill="#FDFDFD" transform="translate(0,0)"/>
<path d="M0 0 C1.582 0.359 3.166 0.713 4.75 1.062 C5.549 1.239 6.348 1.416 7.172 1.598 C7.775 1.73 8.378 1.863 9 2 C7.125 5.875 7.125 5.875 6 7 C3.329 7.141 0.676 7.042 -2 7 C-1.237 7.743 -0.474 8.485 0.312 9.25 C5.974 15.043 5.974 15.043 6.062 18.312 C5.006 20.985 4.029 22.224 2.125 24.312 C-3.624 30.766 -4.429 36.804 -4.238 45.324 C-3.81 51.924 -2.941 58.457 -2 65 C-1.67 65 -1.34 65 -1 65 C-0.298 68.247 0.384 71.498 1.062 74.75 C1.262 75.67 1.461 76.591 1.666 77.539 C1.85 78.429 2.033 79.318 2.223 80.234 C2.395 81.051 2.568 81.868 2.746 82.71 C3.103 85.933 2.434 88.132 1 91 C1.584 93.86 2.571 96.456 4 99 C6.688 100.5 6.688 100.5 9 101 C9 101.66 9 102.32 9 103 C1.923 104.53 1.923 104.53 -1.938 102.312 C-10.199 96.074 -13.298 87.427 -15.105 77.574 C-15.275 76.705 -15.445 75.835 -15.619 74.94 C-16.153 72.191 -16.671 69.439 -17.188 66.688 C-17.718 63.918 -18.252 61.15 -18.788 58.382 C-19.119 56.666 -19.446 54.95 -19.77 53.233 C-20.369 50.079 -20.983 47.05 -22 44 C-22.313 39.985 -22.324 35.964 -22.375 31.938 C-22.412 30.842 -22.45 29.747 -22.488 28.619 C-22.591 19.015 -20.113 12.132 -13.562 5.062 C-9.341 1.181 -5.777 -1.713 0 0 Z " fill="#3B7819" transform="translate(41,58)"/>
<path d="M0 0 C13.37 7.098 17.244 18.126 21.426 31.767 C21.954 33.51 22.478 35.255 23 37 C23.66 37 24.32 37 25 37 C24.34 36.01 23.68 35.02 23 34 C29.523 34.615 29.523 34.615 31.938 36.562 C32.288 37.037 32.639 37.511 33 38 C32.34 39.98 31.68 41.96 31 44 C30.203 44.11 29.407 44.219 28.586 44.332 C22.755 45.205 18.269 46.301 13 49 C9.114 48.795 5.665 47.1 2.07 45.699 C-0.94 44.683 -3.845 44.329 -7 44 C-7 42.02 -7 40.04 -7 38 C-5.711 37.328 -4.419 36.663 -3.125 36 C-2.406 35.629 -1.686 35.257 -0.945 34.875 C1 34 1 34 3 34 C2.67 34.99 2.34 35.98 2 37 C1.67 37.165 1.67 37.165 0 38 C0.99 38 1.98 38 3 38 C4.79 32.629 5.084 26.122 3.211 20.727 C1.506 17.643 -0.056 15.963 -3 14 C-4.176 13.835 -5.351 13.67 -6.562 13.5 C-10 13 -10 13 -12 11 C-12.34 7.991 -12.55 5.903 -12 3 C-8.342 -1.545 -5.413 -1.624 0 0 Z " fill="#5F9110" transform="translate(62,33)"/>
<path d="M0 0 C6.716 4.012 10.432 8.989 13.027 16.34 C14.568 24.02 14.011 31.964 13.723 39.76 C13.773 42.059 13.773 42.059 14.315 44.136 C15.101 47.431 13.84 50.555 12.961 53.746 C12.584 55.177 12.207 56.608 11.832 58.039 C11.649 58.728 11.466 59.417 11.277 60.126 C10.333 63.747 9.557 67.401 8.773 71.059 C8.113 70.729 7.453 70.399 6.773 70.059 C6.543 71.049 6.312 72.039 6.074 73.059 C1.877 90.323 1.877 90.323 -5.227 95.059 C-5.557 96.049 -5.887 97.039 -6.227 98.059 C-11.254 101.187 -11.254 101.187 -14.602 100.746 C-15.138 100.519 -15.674 100.292 -16.227 100.059 C-13.961 98.128 -12.577 97.117 -9.602 96.621 C-8.818 96.435 -8.034 96.25 -7.227 96.059 C-6.203 94.293 -6.203 94.293 -5.227 92.059 C-4.897 91.361 -4.567 90.664 -4.227 89.945 C-3.897 89.22 -3.567 88.494 -3.227 87.746 C-2.897 87.028 -2.567 86.31 -2.227 85.57 C-0.043 80.087 1.132 74.481 2.148 68.684 C3.479 61.291 5.14 54.003 6.906 46.703 C7.192 45.5 7.479 44.298 7.773 43.059 C7.972 42.268 8.17 41.478 8.375 40.664 C8.991 36.635 8.999 32.629 9.023 28.559 C9.044 27.717 9.065 26.875 9.086 26.008 C9.116 21.166 8.868 18.033 5.773 14.059 C5.67 14.667 5.67 14.667 5.148 17.746 C3.914 22.639 2.054 24.424 -2.227 27.059 C-5.102 27.809 -5.102 27.809 -8.227 27.059 C-10.406 25.428 -12.35 23.686 -14.297 21.785 C-16.192 20.09 -17.911 19.077 -20.227 18.059 C-18.817 14.587 -17.321 13.178 -14.102 11.309 C-13.739 11.095 -13.739 11.095 -11.906 10.012 C-11.352 9.697 -10.798 9.383 -10.227 9.059 C-12.207 7.409 -14.187 5.759 -16.227 4.059 C-15.414 2.121 -15.414 2.121 -14.227 0.059 C-9.458 -1.531 -4.722 -1.997 0 0 Z " fill="#417D1D" transform="translate(117.2265625,59.94140625)"/>
<path d="M0 0 C4.043 0.296 5.876 0.903 9.125 3.438 C12.333 5.933 14.991 6.513 19 7.062 C26.71 8.12 31.697 10.717 36.558 16.942 C41.28 23.68 42.611 29.945 42.375 38.062 C42.374 38.909 42.372 39.755 42.371 40.627 C42.296 46.049 41.505 50.792 40 56 C39.67 56 39.34 56 39 56 C39.026 55.311 39.052 54.622 39.079 53.911 C40.029 25.139 40.029 25.139 32.473 16.191 C27.845 12.035 23.863 10.742 17.75 10.875 C17.211 10.884 17.211 10.884 14.484 10.93 C14.074 10.941 14.074 10.941 12 11 C11.67 12.32 11.34 13.64 11 15 C12.32 15.99 13.64 16.98 15 18 C12.647 20.724 10.375 21.814 7 23 C5.291 21.377 3.626 19.707 2 18 C2 17.34 2 16.68 2 16 C-0.97 16 -3.94 16 -7 16 C-8.43 11.328 -9.404 6.869 -10 2 C-6.7 2 -3.4 2 0 2 C0 1.34 0 0.68 0 0 Z " fill="#215110" transform="translate(91,49)"/>
<path d="M0 0 C1.582 0.359 3.166 0.713 4.75 1.062 C5.549 1.239 6.348 1.416 7.172 1.598 C7.775 1.73 8.378 1.863 9 2 C7.125 5.875 7.125 5.875 6 7 C3.329 7.141 0.676 7.042 -2 7 C-1.237 7.743 -0.474 8.485 0.312 9.25 C4.767 13.808 4.767 13.808 6 16 C5.759 19.37 5.412 20.588 3 23 C-0.477 24.692 -3.144 25.22 -7 25 C-7.248 25.536 -7.495 26.073 -7.75 26.625 C-9.297 29.564 -11.13 32.258 -13 35 C-15.351 33.189 -15.956 32.321 -16.363 29.328 C-16.267 23.478 -15.918 18.528 -14 13 C-13.959 12.567 -13.959 12.567 -13.75 10.375 C-12.557 6.597 -10.219 5.253 -7 3 C-6.01 3 -5.02 3 -4 3 C-4 2.34 -4 1.68 -4 1 C-4.66 0.67 -5.32 0.34 -6 0 C-3.445 -1.277 -2.694 -0.78 0 0 Z " fill="#4A8A21" transform="translate(41,58)"/>
<path d="M0 0 C0.763 0.804 1.526 1.609 2.312 2.438 C5.619 5.59 7.502 5.619 11.914 5.762 C14 6 14 6 17 8 C17 10.688 17 10.688 16 14 C12.294 17.659 8.373 19.307 3.188 19.375 C0.468 19.25 -1.375 18.875 -4 18 C-3.67 18.66 -3.34 19.32 -3 20 C-2.741 24.051 -2.696 25.543 -5 29 C-8 28 -8 28 -9.102 26.461 C-10.393 22.923 -10.896 19.34 -11.375 15.625 C-11.495 14.882 -11.615 14.14 -11.738 13.375 C-12.283 9.155 -12.22 7.418 -10.164 3.523 C-6.957 -0.216 -4.866 -0.573 0 0 Z " fill="#579624" transform="translate(56,85)"/>
<path d="M0 0 C7.704 0.768 13.411 2.275 19.844 6.66 C24.72 9.69 30.421 9.635 36 9 C38.523 8.092 40.821 7.033 43.188 5.777 C43.786 5.521 44.384 5.264 45 5 C45.66 5.33 46.32 5.66 47 6 C46.01 7.32 45.02 8.64 44 10 C47.505 10.14 50.363 10.23 53.688 9.031 C57.789 7.754 61.605 7.549 65.875 7.375 C66.659 7.336 67.442 7.298 68.25 7.258 C70.166 7.164 72.083 7.081 74 7 C73.67 7.66 73.34 8.32 73 9 C70.794 9.611 68.557 10.114 66.312 10.562 C65.092 10.811 63.871 11.06 62.613 11.316 C54.398 12.871 46.543 13.28 38.188 13.312 C37.841 13.314 37.841 13.314 36.089 13.322 C11.54 13.36 11.54 13.36 2 7 C2.66 6.67 3.32 6.34 4 6 C3.67 5.783 3.67 5.783 2 4.688 C1.34 4.131 0.68 3.574 0 3 C0 2.01 0 1.02 0 0 Z " fill="#F3E8CE" transform="translate(42,162)"/>
<path d="M0 0 C4.971 4.971 4.971 4.971 5.098 9.477 C5.091 10.859 5.079 12.242 5.062 13.625 C5.058 14.331 5.053 15.038 5.049 15.766 C5.037 17.51 5.019 19.255 5 21 C6.105 20.785 7.209 20.569 8.348 20.348 C9.553 20.233 10.758 20.118 12 20 C14.438 22.438 14.438 22.438 16 25 C9.479 30.123 9.479 30.123 5.75 29.812 C3.471 29.139 1.334 28.366 -0.875 27.5 C-4.603 26.047 -8.028 25.414 -12 25 C-12 23.02 -12 21.04 -12 19 C-10.711 18.328 -9.419 17.663 -8.125 17 C-7.406 16.629 -6.686 16.257 -5.945 15.875 C-4 15 -4 15 -2 15 C-2.33 15.99 -2.66 16.98 -3 18 C-3.66 18.33 -4.32 18.66 -5 19 C-2.831 18.494 -1 18 1 17 C0.67 11.39 0.34 5.78 0 0 Z " fill="#84B01D" transform="translate(67,52)"/>
<path d="M0 0 C7.34 6.739 9.232 18.755 12 28 C12.66 28 13.32 28 14 28 C13.34 27.01 12.68 26.02 12 25 C18.523 25.615 18.523 25.615 20.938 27.562 C21.288 28.037 21.639 28.511 22 29 C21.34 30.98 20.68 32.96 20 35 C16.646 35.646 13.421 36.152 10 36 C7.812 33.562 7.812 33.562 6 31 C2.25 30.688 2.25 30.688 -1 31 C-1 30.34 -1 29.68 -1 29 C0.32 29 1.64 29 3 29 C2.771 21.065 2.258 14.225 -1.16 6.988 C-2 5 -2 5 -2 2 C-1.34 2 -0.68 2 0 2 C0 1.34 0 0.68 0 0 Z " fill="#4E800A" transform="translate(73,42)"/>
<path d="M0 0 C0.382 0.113 0.382 0.113 2.312 0.688 C2.312 3.328 2.312 5.968 2.312 8.688 C3.633 9.017 4.953 9.347 6.312 9.688 C5.983 11.007 5.653 12.328 5.312 13.688 C3.663 13.688 2.013 13.688 0.312 13.688 C0.189 13.956 0.189 13.956 -0.438 15.312 C-1.984 18.252 -3.818 20.945 -5.688 23.688 C-8.049 21.87 -8.644 20.982 -9.086 17.98 C-9.033 10.985 -8.422 6.541 -4.312 0.75 C-2.688 -0.312 -2.688 -0.312 0 0 Z " fill="#59962A" transform="translate(33.6875,69.3125)"/>
<path d="M0 0 C1.32 0.33 2.64 0.66 4 1 C3.67 1.33 3.34 1.66 3 2 C4.32 2.825 4.32 2.825 11 7 C10.67 7.66 10.34 8.32 10 9 C7.934 9.633 7.934 9.633 5.438 10.125 C4.611 10.293 3.785 10.46 2.934 10.633 C2.296 10.754 1.657 10.875 1 11 C1 12.65 1 14.3 1 16 C-1.64 16 -4.28 16 -7 16 C-8.43 11.328 -9.404 6.869 -10 2 C-6.7 2 -3.4 2 0 2 C0 1.34 0 0.68 0 0 Z " fill="#356F11" transform="translate(91,49)"/>
<path d="M0 0 C0.33 0 0.66 0 1 0 C0.722 4.23 0.425 8.459 0.125 12.688 C0.086 13.287 0.086 13.287 -0.113 16.318 C-0.197 17.475 -0.281 18.632 -0.367 19.824 C-0.404 20.356 -0.404 20.356 -0.589 23.046 C-1.002 26.016 -1.67 28.318 -3 31 C-4.938 32.062 -4.938 32.062 -7 33 C-9.351 35.603 -10 36.421 -10 40 C-12.062 41.438 -12.062 41.438 -15 43 C-15.566 43.367 -16.132 43.735 -16.715 44.113 C-19.652 45.984 -21.41 47.05 -24.938 46.75 C-25.618 46.502 -26.299 46.255 -27 46 C-24 44 -24 44 -21.695 42.773 C-12.211 37.613 -9.159 31.607 -5.977 21.516 C-4.598 16.554 -3.418 11.552 -2.306 6.524 C-1.097 1.097 -1.097 1.097 0 0 Z " fill="#22590A" transform="translate(105,123)"/>
<path d="M0 0 C5.763 0.118 8.942 1.991 13.496 5.43 C15 7 15 7 15 10 C14.01 10.66 13.02 11.32 12 12 C12 13.32 12 14.64 12 16 C9.472 14.833 7.355 13.547 5.062 11.938 C2.19 10.12 0.327 9.391 -3 9 C-2.692 7.686 -2.378 6.374 -2.062 5.062 C-1.888 4.332 -1.714 3.601 -1.535 2.848 C-1 1 -1 1 0 0 Z " fill="#7CAD1E" transform="translate(57,33)"/>
<path d="M0 0 C-0.33 4.29 -0.66 8.58 -1 13 C-7.736 13 -7.736 13 -11.25 9.562 C-14.924 6.038 -14.924 6.038 -17 5 C-13.713 -2.277 -7.214 -0.071 0 0 Z " fill="#33680E" transform="translate(66,53)"/>
<path d="M0 0 C2.838 2.838 2.986 6.131 3.75 9.938 C5.64 18.688 9.04 25.559 14 33 C10.37 33 6.74 33 3 33 C2.67 32.34 2.34 31.68 2 31 C3.98 31 5.96 31 8 31 C8 30.34 8 29.68 8 29 C7.618 28.969 7.618 28.969 5.688 28.812 C3 28 3 28 1.25 25.812 C-0.07 22.843 -0.626 20.218 -1 17 C-0.34 16.67 0.32 16.34 1 16 C0.835 15.031 0.67 14.061 0.5 13.062 C-0.134 8.705 -0.09 4.394 0 0 Z " fill="#27600C" transform="translate(42,130)"/>
<path d="M0 0 C2.375 1.125 2.375 1.125 4 3 C4.459 6.151 4.522 8.078 2.938 10.875 C-0.151 12.668 -2.511 12.428 -6 12 C-8.886 10.002 -9.827 8.886 -10.5 5.438 C-10 3 -10 3 -8.375 1.188 C-5.319 -0.34 -3.381 -0.423 0 0 Z " fill="#B3D272" transform="translate(56,85)"/>
<path d="M0 0 C2.375 0.688 2.375 0.688 5 2 C6.312 4.625 6.312 4.625 7 7 C3.772 9.152 2.716 9.201 -1 9 C-0.34 9.784 0.32 10.567 1 11.375 C3 14 3 14 3 16 C0.69 16.66 -1.62 17.32 -4 18 C-4.021 17.474 -4.021 17.474 -4.125 14.812 C-5.276 9.798 -6.976 8.997 -11 6 C-11 5.34 -11 4.68 -11 4 C-9.742 3.897 -8.484 3.794 -7.188 3.688 C-4.395 3.351 -3.256 3.2 -1 1.438 C-0.67 0.963 -0.34 0.489 0 0 Z " fill="#316E0E" transform="translate(50,61)"/>
<path d="M0 0 C7.37 1.623 12.247 6.722 16.531 12.648 C17.625 14.578 17.625 14.578 18.625 18.578 C22.585 18.578 26.545 18.578 30.625 18.578 C30.625 19.238 30.625 19.898 30.625 20.578 C26.995 20.578 23.365 20.578 19.625 20.578 C19.295 21.238 18.965 21.898 18.625 22.578 C18.273 21.854 17.921 21.129 17.559 20.383 C13.341 12.123 8.659 5.778 -0.375 2.578 C-6.691 2.894 -6.691 2.894 -9.375 5.578 C-9.703 8.293 -9.506 10.83 -9.375 13.578 C-7.809 15.144 -5.95 15.189 -3.812 15.641 C-2.986 15.817 -2.16 15.994 -1.309 16.176 C-0.671 16.309 -0.032 16.441 0.625 16.578 C0.625 17.568 0.625 18.558 0.625 19.578 C0.295 18.918 -0.035 18.258 -0.375 17.578 C-1.612 17.681 -2.85 17.784 -4.125 17.891 C-7.544 17.885 -8.136 17.781 -10.875 15.453 C-12.666 12.021 -13.076 10.392 -12.375 6.578 C-9.222 0.903 -6.473 -0.424 0 0 Z " fill="#2C5615" transform="translate(60.375,30.421875)"/>
<path d="M0 0 C0.33 0 0.66 0 1 0 C0.769 11.665 -1.8 22.908 -10.188 31.477 C-15.706 36.115 -21.143 36.42 -28 36 C-28 35.67 -28 35.34 -28 35 C-25.69 35 -23.38 35 -21 35 C-21 34.34 -21 33.68 -21 33 C-15.25 30 -15.25 30 -13 30 C-12.938 29.443 -12.876 28.886 -12.812 28.312 C-12 26 -12 26 -9.688 23.875 C-3.733 17.505 -2.076 8.271 0 0 Z " fill="#1F4C11" transform="translate(124,128)"/>
<path d="M0 0 C0.33 0.99 0.66 1.98 1 3 C0.34 3 -0.32 3 -1 3 C-0.651 3.776 -0.301 4.552 0.059 5.352 C3.637 13.847 4.847 20.752 5 30 C4.34 30.33 3.68 30.66 3 31 C2.01 30.67 1.02 30.34 0 30 C-0.024 29.571 -0.024 29.571 -0.148 27.402 C-0.607 20.387 -1.478 14.44 -3.75 7.812 C-4.088 5.359 -3.259 4.074 -2 2 C-1.34 2 -0.68 2 0 2 C0 1.34 0 0.68 0 0 Z " fill="#6C9D15" transform="translate(72,41)"/>
<path d="M0 0 C0.639 0.495 1.279 0.99 1.938 1.5 C0.948 1.83 -0.043 2.16 -1.062 2.5 C-1.062 3.49 -1.062 4.48 -1.062 5.5 C-0.403 5.83 0.257 6.16 0.938 6.5 C-1.308 6.803 -3.56 7.067 -5.812 7.312 C-7.065 7.463 -8.318 7.614 -9.609 7.77 C-13.062 7.5 -13.062 7.5 -15.516 5.012 C-16.026 4.183 -16.537 3.354 -17.062 2.5 C-13.323 -3.109 -5.681 -2.783 0 0 Z " fill="#519022" transform="translate(118.0625,60.5)"/>
<path d="M0 0 C0 0.66 0 1.32 0 2 C0.66 2 1.32 2 2 2 C2.25 4.312 2.25 4.312 2 7 C-0.314 9.591 -2.098 10.023 -5.5 10.812 C-8.893 10.994 -10.251 10.869 -13 9 C-11.607 5.623 -10.177 4.129 -7.062 2.25 C-6.373 1.822 -5.683 1.394 -4.973 0.953 C-3 0 -3 0 0 0 Z " fill="#4B8A1D" transform="translate(110,69)"/>
<path d="M0 0 C0.66 0.66 1.32 1.32 2 2 C1.861 6.868 -0.717 10.594 -4 14 C-9.98 18.717 -15.291 22 -23 22 C-25.75 21.625 -25.75 21.625 -28 21 C-28.763 20.814 -29.526 20.629 -30.312 20.438 C-30.869 20.293 -31.426 20.149 -32 20 C-29.203 17.203 -27.28 17.734 -23.375 17.625 C-16.307 17.184 -11.2 16.429 -6.258 11.133 C-3.521 7.662 -1.329 4.254 0 0 Z " fill="#DBDDC5" transform="translate(121,146)"/>
<path d="M0 0 C0.66 0.66 1.32 1.32 2 2 C1.67 2.99 1.34 3.98 1 5 C0.433 12.804 1.487 20.227 2.938 27.875 C3.029 28.378 3.029 28.378 3.49 30.922 C4.287 35.29 5.123 39.648 6 44 C5.505 44.165 5.505 44.165 3 45 C2.34 42.36 1.68 39.72 1 37 C0.67 37 0.34 37 0 37 C-3.478 9.33 -3.478 9.33 0 0 Z " fill="#2B640E" transform="translate(38,88)"/>
<path d="M0 0 C0.404 0.005 0.404 0.005 2.449 0.027 C2.757 0.033 2.757 0.033 4.312 0.062 C4.312 0.392 4.312 0.722 4.312 1.062 C2.828 1.227 2.828 1.227 -4.688 2.062 C-5.017 3.383 -5.347 4.703 -5.688 6.062 C-4.368 7.052 -3.047 8.043 -1.688 9.062 C-4.04 11.787 -6.312 12.877 -9.688 14.062 C-11.338 12.412 -12.987 10.763 -14.688 9.062 C-13.193 5.258 -10.993 3.401 -7.688 1.062 C-4.805 0.102 -2.989 -0.043 0 0 Z " fill="#387511" transform="translate(107.6875,57.9375)"/>
<path d="M0 0 C4.219 3.853 6.551 8.825 7.351 14.477 C7.463 17.017 7.449 19.521 7.375 22.062 C7.374 22.909 7.372 23.755 7.371 24.627 C7.296 30.049 6.505 34.792 5 40 C4.67 40 4.34 40 4 40 C4.021 39.3 4.042 38.601 4.063 37.88 C4.148 34.649 4.199 31.419 4.25 28.188 C4.284 27.087 4.317 25.987 4.352 24.854 C4.433 17.984 3.594 12.659 0.866 6.333 C0 4 0 4 0 0 Z " fill="#2D591E" transform="translate(126,65)"/>
<path d="M0 0 C1 3 1 3 -0.312 5.812 C-3.917 10.889 -10.208 14.069 -16 16 C-22.454 16.587 -27.254 15.998 -33 13 C-30.456 11.728 -29.685 12.273 -27 13 C-19.846 13.711 -12.695 12.977 -6.949 8.348 C-4.26 5.714 -2.092 3.138 0 0 Z " fill="#427D1D" transform="translate(94,153)"/>
<path d="M0 0 C2.505 2.246 3.836 4.366 5.188 7.438 C5.532 8.199 5.876 8.961 6.23 9.746 C7 12 7 12 7 16 C6.34 16 5.68 16 5 16 C4.67 17.98 4.34 19.96 4 22 C3.67 22 3.34 22 3 22 C2.89 21.276 2.781 20.551 2.668 19.805 C1.769 14.321 0.703 9.915 -2 5 C-2 4.01 -2 3.02 -2 2 C-1.34 2 -0.68 2 0 2 C0 1.34 0 0.68 0 0 Z " fill="#588B11" transform="translate(73,42)"/>
<path d="M0 0 C0.382 0.113 0.382 0.113 2.312 0.688 C2.674 7.078 2.674 7.078 1.125 9.688 C-0.688 10.688 -0.688 10.688 -3.375 10.375 C-4.138 10.148 -4.901 9.921 -5.688 9.688 C-6.049 3.297 -6.049 3.297 -4.5 0.688 C-2.688 -0.312 -2.688 -0.312 0 0 Z " fill="#B9DA7D" transform="translate(33.6875,69.3125)"/>
<path d="M0 0 C0.66 0 1.32 0 2 0 C2.054 1.916 2.093 3.833 2.125 5.75 C2.148 6.817 2.171 7.885 2.195 8.984 C2.005 11.925 1.527 13.524 0 16 C-1.32 15.67 -2.64 15.34 -4 15 C-2.68 13.68 -1.36 12.36 0 11 C-3.126 12.13 -6.133 13.307 -9 15 C-10.062 17.75 -10.062 17.75 -10 20 C-10.052 19.68 -10.052 19.68 -10.312 18.062 C-10.539 17.382 -10.766 16.701 -11 16 C-11.99 15.67 -12.98 15.34 -14 15 C-13.67 14.34 -13.34 13.68 -13 13 C-12.34 12.856 -11.68 12.711 -11 12.562 C-10.34 12.377 -9.68 12.191 -9 12 C-8.67 11.01 -8.34 10.02 -8 9 C-5.36 9.33 -2.72 9.66 0 10 C0 6.7 0 3.4 0 0 Z " fill="#2C5F05" transform="translate(65,56)"/>
<path d="M0 0 C-0.33 0.99 -0.66 1.98 -1 3 C-1.33 3.165 -1.33 3.165 -3 4 C-2.34 4.33 -1.68 4.66 -1 5 C-2.875 8.875 -2.875 8.875 -4 10 C-6 10.041 -8 10.043 -10 10 C-10 8.02 -10 6.04 -10 4 C-8.711 3.328 -7.419 2.663 -6.125 2 C-5.406 1.629 -4.686 1.257 -3.945 0.875 C-2 0 -2 0 0 0 Z " fill="#70A513" transform="translate(65,67)"/>
<path d="M0 0 C1.32 0.33 2.64 0.66 4 1 C3.738 2.887 3.738 2.887 3 5 C1.293 6.082 1.293 6.082 -0.812 6.812 C-1.5 7.066 -2.187 7.32 -2.895 7.582 C-5.269 8.053 -6.723 7.752 -9 7 C-9.33 5.35 -9.66 3.7 -10 2 C-6.7 2 -3.4 2 0 2 C0 1.34 0 0.68 0 0 Z " fill="#529420" transform="translate(91,49)"/>
<path d="M0 0 C0.91 0.009 1.82 0.018 2.758 0.027 C3.456 0.039 4.155 0.051 4.875 0.062 C4.875 0.722 4.875 1.383 4.875 2.062 C4.215 2.062 3.555 2.062 2.875 2.062 C2.875 2.722 2.875 3.383 2.875 4.062 C-0.528 6.157 -3.169 6.32 -7.125 6.062 C-7.785 5.733 -8.445 5.403 -9.125 5.062 C-6.914 0.166 -5.241 -0.067 0 0 Z " fill="#5A8E27" transform="translate(58.125,52.9375)"/>
<path d="M0 0 C2.607 2.607 3.916 5.659 5.5 8.938 C7.19 12.413 8.85 15.775 11 19 C7.37 19 3.74 19 0 19 C-0.33 18.34 -0.66 17.68 -1 17 C0.98 17 2.96 17 5 17 C4.639 16.108 4.278 15.216 3.906 14.297 C3.674 13.712 3.674 13.712 2.5 10.75 C2.036 9.59 1.572 8.43 1.094 7.234 C0 4 0 4 0 0 Z " fill="#194B06" transform="translate(45,144)"/>
<path d="M0 0 C5.875 1.875 5.875 1.875 7 3 C8.666 3.044 10.334 3.04 12 3 C12.99 3 13.98 3 15 3 C13.35 4.98 11.7 6.96 10 9 C5.007 7.723 2.424 5.827 -1 2 C-0.67 1.34 -0.34 0.68 0 0 Z " fill="#3C7914" transform="translate(64,80)"/>
<path d="M0 0 C6.44 -0.671 9.838 1.246 15 5 C13 7 13 7 10.188 7.312 C6.651 6.966 4.806 6.146 2 4 C2 3.34 2 2.68 2 2 C1.34 2 0.68 2 0 2 C0 1.34 0 0.68 0 0 Z " fill="#E7DDBF" transform="translate(49,165)"/>
<path d="M0 0 C0 4.1 -1.174 6.031 -3.812 9.125 C-8.844 13.438 -13.672 13.248 -20 13 C-20 12.67 -20 12.34 -20 12 C-17.69 12 -15.38 12 -13 12 C-13 11.34 -13 10.68 -13 10 C-7.25 7 -7.25 7 -5 7 C-4.918 6.402 -4.835 5.804 -4.75 5.188 C-3.795 2.403 -2.429 1.567 0 0 Z " fill="#265B12" transform="translate(116,151)"/>
<path d="M0 0 C0.996 1.98 1.982 3.961 2.93 5.965 C4.888 10.052 6.866 13.664 10 17 C10.99 17.33 11.98 17.66 13 18 C13 18.66 13 19.32 13 20 C10.243 19.919 8.5 19.452 6.438 17.586 C3.311 14.037 0.622 10.483 -1 6 C-0.688 2.625 -0.688 2.625 0 0 Z " fill="#285B19" transform="translate(30,141)"/>
<path d="M0 0 C6.523 0.615 6.523 0.615 8.938 2.562 C9.288 3.037 9.639 3.511 10 4 C9.34 5.65 8.68 7.3 8 9 C4.73 8.436 3.174 7.5 1 5 C1.66 4.67 2.32 4.34 3 4 C2.01 2.68 1.02 1.36 0 0 Z " fill="#56890A" transform="translate(85,67)"/>
<path d="M0 0 C0 0.99 0 1.98 0 3 C-2.188 4.75 -2.188 4.75 -5 6 C-7.812 5.688 -7.812 5.688 -10 5 C-9.75 3.125 -9.75 3.125 -9 1 C-5.842 -1.368 -3.693 -1.026 0 0 Z " fill="#77AF3F" transform="translate(90,85)"/>
<path d="M0 0 C2.814 0.281 5.626 0.574 8.438 0.875 C9.24 0.954 10.042 1.032 10.869 1.113 C12.922 1.338 14.963 1.662 17 2 C17.33 2.66 17.66 3.32 18 4 C15.55 5.225 13.858 5.167 11.125 5.188 C10.693 5.195 10.693 5.195 8.508 5.23 C5.809 4.982 4.262 4.474 2 3 C1.34 2.01 0.68 1.02 0 0 Z " fill="#3B6A23" transform="translate(62,167)"/>
<path d="M0 0 C0 0.66 0 1.32 0 2 C-0.887 2.392 -1.774 2.784 -2.688 3.188 C-8.822 6.544 -11.818 10.99 -15 17 C-15.75 15.375 -15.75 15.375 -16 13 C-12.816 6.77 -7.268 0 0 0 Z " fill="#1D5114" transform="translate(37,59)"/>
<path d="M0 0 C-1 2 -1 2 -2.938 3.188 C-7.72 4.456 -13.508 4.246 -18 2 C-15.166 -0.834 -12.949 -0.441 -9 -0.688 C-7.742 -0.774 -6.484 -0.86 -5.188 -0.949 C-2 -1 -2 -1 0 0 Z " fill="#CECCA2" transform="translate(107,164)"/>
<path d="M0 0 C5.198 1.361 8.095 3.467 12 7 C11.67 7.165 11.67 7.165 10 8 C9.01 7.34 8.02 6.68 7 6 C4.957 5.805 4.957 5.805 2.812 5.875 C1.554 5.916 0.296 5.957 -1 6 C-1.043 4.334 -1.041 2.666 -1 1 C-0.67 0.67 -0.34 0.34 0 0 Z " fill="#95C02C" transform="translate(56,35)"/>
<path d="M0 0 C2.75 0.25 2.75 0.25 5 1 C4.688 2.875 4.688 2.875 4 5 C1 7 1 7 -1.125 6.75 C-3 6 -3 6 -4 4 C-2.312 1.938 -2.312 1.938 0 0 Z " fill="#A5D167" transform="translate(107,72)"/>
<path d="M0 0 C3.082 2.784 3.952 3.808 5 8 C8.96 8 12.92 8 17 8 C17 8.66 17 9.32 17 10 C13.37 10 9.74 10 6 10 C5.67 10.66 5.34 11.32 5 12 C4.162 10.378 3.33 8.752 2.5 7.125 C2.036 6.22 1.572 5.315 1.094 4.383 C0 2 0 2 0 0 Z " fill="#275512" transform="translate(74,41)"/>
<path d="M0 0 C0.33 0.165 0.33 0.165 2 1 C4.001 7.225 4.209 13.523 4 20 C0.264 16.264 0.156 9.854 -0.125 4.719 C-0.125 3.145 -0.07 1.572 0 0 Z " fill="#225617" transform="translate(23,112)"/>
<path d="M0 0 C0.66 0.99 1.32 1.98 2 3 C1.67 3.99 1.34 4.98 1 6 C1 5.34 1 4.68 1 4 C-3.29 4 -7.58 4 -12 4 C-7.784 0.838 -5.172 0 0 0 Z " fill="#295712" transform="translate(63,49)"/>
<path d="M0 0 C6.044 1.36 9.635 4.857 14 9 C13.34 9.66 12.68 10.32 12 11 C11.553 10.602 11.105 10.203 10.645 9.793 C7.862 7.354 5.252 5.15 2.062 3.25 C1.382 2.837 0.701 2.425 0 2 C0 1.34 0 0.68 0 0 Z " fill="#3F6922" transform="translate(61,31)"/>
<path d="M0 0 C1.813 0.14 3.625 0.287 5.438 0.438 C5.942 0.478 5.942 0.478 8.496 0.684 C11 1 11 1 12 2 C13.519 2.072 15.042 2.084 16.562 2.062 C17.389 2.053 18.215 2.044 19.066 2.035 C19.385 2.029 19.385 2.029 21 2 C20.67 2.99 20.34 3.98 20 5 C12.969 4.566 6.671 3.257 0 1 C0 0.67 0 0.34 0 0 Z " fill="#F7ECD7" transform="translate(44,169)"/>
<path d="M0 0 C2.837 2.837 3.435 6.136 4 10 C3.625 13.5 3.625 13.5 3 16 C0.307 11.961 -0.133 9.045 -0.062 4.25 C-0.053 3.451 -0.044 2.652 -0.035 1.828 C-0.024 1.225 -0.012 0.622 0 0 Z " fill="#1F5908" transform="translate(42,130)"/>
<path d="M0 0 C0.66 0.33 1.32 0.66 2 1 C-4 7 -4 7 -6.562 7.062 C-6.965 7.052 -6.965 7.052 -9 7 C-9 6.01 -9 5.02 -9 4 C-7.546 3.303 -6.087 2.618 -4.625 1.938 C-4.219 1.746 -4.219 1.746 -2.164 0.777 C-1.45 0.521 -0.736 0.264 0 0 Z " fill="#D5CFA9" transform="translate(87,167)"/>
<path d="M0 0 C-0.33 0.66 -0.66 1.32 -1 2 C-3.249 2.608 -5.527 3.113 -7.812 3.562 C-9.056 3.811 -10.3 4.06 -11.582 4.316 C-12.146 4.429 -12.146 4.429 -15 5 C-16.336 5.322 -17.671 5.649 -19 6 C-19.33 5.34 -19.66 4.68 -20 4 C-13.161 1.447 -7.338 -0.564 0 0 Z " fill="#F8EDD9" transform="translate(116,169)"/>
<path d="M0 0 C2.714 0.933 3.78 1.627 5.25 4.125 C5.498 4.744 5.745 5.362 6 6 C2.867 7.044 2.01 6.934 -1 6 C-1.33 4.35 -1.66 2.7 -2 1 C-1.34 0.67 -0.68 0.34 0 0 Z " fill="#73A216" transform="translate(77,72)"/>
<path d="M0 0 C6.4 0.492 6.4 0.492 9.438 3.062 C9.695 3.382 9.695 3.382 11 5 C6.123 5.348 3.229 4.417 -1 2 C-0.67 1.34 -0.34 0.68 0 0 Z " fill="#8FBD27" transform="translate(57,33)"/>
<path d="M0 0 C0.706 0.052 1.413 0.104 2.141 0.158 C3.886 0.288 5.63 0.425 7.375 0.562 C3.898 2.706 1.163 2.775 -2.875 2.688 C-3.953 2.669 -5.03 2.651 -6.141 2.633 C-6.96 2.61 -7.78 2.586 -8.625 2.562 C-8.955 1.903 -9.285 1.243 -9.625 0.562 C-6.527 -0.986 -3.363 -0.27 0 0 Z " fill="#F1E4C8" transform="translate(72.625,171.4375)"/>
<path d="M0 0 C1.488 1.145 1.488 1.145 3 3 C3.293 5.699 3.293 5.699 3.188 8.688 C3.16 9.681 3.133 10.675 3.105 11.699 C3.071 12.458 3.036 13.218 3 14 C-0.133 10.867 -0.055 8.027 -0.062 3.75 C-0.052 3.131 -0.052 3.131 0 0 Z " fill="#91BA2C" transform="translate(69,55)"/>
<path d="M0 0 C0.825 0.33 0.825 0.33 5 2 C4.67 3.32 4.34 4.64 4 6 C2.35 5.67 0.7 5.34 -1 5 C-1.33 4.01 -1.66 3.02 -2 2 C-1.34 1.34 -0.68 0.68 0 0 Z " fill="#6FA536" transform="translate(35,77)"/>
<path d="M0 0 C0.404 0.005 0.404 0.005 2.449 0.027 C2.757 0.033 2.757 0.033 4.312 0.062 C4.312 0.392 4.312 0.722 4.312 1.062 C3.686 1.088 3.06 1.114 2.414 1.141 C1.597 1.197 0.78 1.254 -0.062 1.312 C-0.875 1.359 -1.687 1.405 -2.523 1.453 C-4.688 2.062 -4.688 2.062 -5.977 4.109 C-6.211 4.754 -6.446 5.398 -6.688 6.062 C-7.347 6.062 -8.007 6.062 -8.688 6.062 C-8.358 4.413 -8.028 2.763 -7.688 1.062 C-4.805 0.102 -2.989 -0.043 0 0 Z " fill="#457E1D" transform="translate(107.6875,57.9375)"/>
<path d="M0 0 C0.33 0 0.66 0 1 0 C0.885 1.917 0.758 3.834 0.625 5.75 C0.555 6.817 0.486 7.885 0.414 8.984 C0.027 11.802 -0.557 13.583 -2 16 C-3.133 11.895 -2.783 9.24 -1.562 5.188 C-1.275 4.212 -0.988 3.236 -0.691 2.23 C-0.463 1.494 -0.235 0.758 0 0 Z " fill="#275319" transform="translate(124,128)"/>
<path d="M0 0 C0.66 0.33 1.32 0.66 2 1 C1.67 1.495 1.67 1.495 0 4 C-2.602 4.293 -2.602 4.293 -5.625 4.188 C-6.126 4.174 -6.126 4.174 -8.664 4.105 C-9.049 4.088 -9.049 4.088 -11 4 C-11 3.34 -11 2.68 -11 2 C-10.29 1.939 -9.579 1.879 -8.848 1.816 C-8.388 1.775 -8.388 1.775 -6.062 1.562 C-5.146 1.481 -4.229 1.4 -3.285 1.316 C-1 1 -1 1 0 0 Z " fill="#1A4903" transform="translate(95,75)"/>
<path d="M0 0 C-3 2 -3 2 -5 2 C-4 4 -4 4 -1 6 C-6.75 6.125 -6.75 6.125 -9 5 C-6.816 0.164 -5.206 -0.137 0 0 Z " fill="#438217" transform="translate(58,53)"/>
<path d="M0 0 C-4.875 4 -4.875 4 -6 4 C-6.33 5.65 -6.66 7.3 -7 9 C-7.66 9 -8.32 9 -9 9 C-9.25 6.188 -9.25 6.188 -9 3 C-6.247 -0.059 -4.004 -0.334 0 0 Z " fill="#6EA318" transform="translate(60,32)"/>
<path d="M0 0 C3.188 -0.312 3.188 -0.312 6 0 C5.438 1.938 5.438 1.938 4 4 C0.375 4.75 0.375 4.75 -3 5 C-1.875 2.5 -1.875 2.5 0 0 Z " fill="#B0D340" transform="translate(64,72)"/>
<path d="M0 0 C-2.502 1.668 -4.411 2.624 -7.188 3.625 C-7.545 3.755 -7.545 3.755 -9.355 4.414 C-9.898 4.607 -10.441 4.801 -11 5 C-11.66 4.34 -12.32 3.68 -13 3 C-4.738 -1.777 -4.738 -1.777 0 0 Z " fill="#285C06" transform="translate(86,79)"/>
<path d="M0 0 C2.02 0.602 4.021 1.273 6 2 C6.33 2.66 6.66 3.32 7 4 C6.34 4 5.68 4 5 4 C5 4.66 5 5.32 5 6 C4.175 5.67 4.175 5.67 0 4 C0 2.667 0 1.333 0 0 Z " fill="#346D10" transform="translate(64,80)"/>
<path d="M0 0 C-1.65 0.99 -1.65 0.99 -10 6 C-10.33 4.68 -10.66 3.36 -11 2 C-10.711 1.938 -10.711 1.938 -9.25 1.625 C-7 1 -7 1 -4.938 -0.125 C-3 -1 -3 -1 0 0 Z " fill="#286507" transform="translate(108,69)"/>
<path d="M0 0 C2.64 0 5.28 0 8 0 C6.25 2.062 6.25 2.062 4 4 C1.75 3.75 1.75 3.75 0 3 C0 2.01 0 1.02 0 0 Z " fill="#85BA15" transform="translate(56,73)"/>
<path d="M0 0 C1.32 0.33 2.64 0.66 4 1 C3.67 2.32 3.34 3.64 3 5 C1.35 5.33 -0.3 5.66 -2 6 C-1.67 5.01 -1.34 4.02 -1 3 C-1.66 2.67 -2.32 2.34 -3 2 C-2.01 2 -1.02 2 0 2 C0 1.34 0 0.68 0 0 Z " fill="#458024" transform="translate(91,49)"/>
<path d="M0 0 C6.4 0.492 6.4 0.492 9.438 3.062 C9.695 3.382 9.695 3.382 11 5 C6.872 4.393 3.668 2.962 0 1 C0 0.67 0 0.34 0 0 Z " fill="#2B571C" transform="translate(92,50)"/>
<path d="M0 0 C1.98 0.66 3.96 1.32 6 2 C6 2.66 6 3.32 6 4 C3.69 4 1.38 4 -1 4 C-0.67 2.68 -0.34 1.36 0 0 Z " fill="#B4D941" transform="translate(56,35)"/>
<path d="M0 0 C2.97 0 5.94 0 9 0 C8.67 1.32 8.34 2.64 8 4 C5.36 3.34 2.72 2.68 0 2 C0 1.34 0 0.68 0 0 Z " fill="#75A518" transform="translate(54,40)"/>
<path d="M0 0 C-5.75 4 -5.75 4 -8 4 C-5.977 -0.48 -4.796 -1.439 0 0 Z M-10 4 C-8 5 -8 5 -8 5 Z " fill="#E5DBB9" transform="translate(114,162)"/>
<path d="M0 0 C0.99 0.33 1.98 0.66 3 1 C1.35 2.65 -0.3 4.3 -2 6 C-2.99 5.67 -3.98 5.34 -5 5 C-3.35 3.35 -1.7 1.7 0 0 Z " fill="#EDE6C8" transform="translate(117,155)"/>
<path d="M0 0 C0 2 0 4 0 6 C-1.98 6.66 -3.96 7.32 -6 8 C-2.25 1.125 -2.25 1.125 0 0 Z " fill="#164405" transform="translate(95,157)"/>
<path d="M0 0 C2.667 1.333 5.333 2.667 8 4 C8 4.66 8 5.32 8 6 C5.218 5.624 3.412 5.327 1.188 3.562 C0 2 0 2 0 0 Z " fill="#1F4A14" transform="translate(35,155)"/>
<path d="M0 0 C0.33 0 0.66 0 1 0 C0.67 2.31 0.34 4.62 0 7 C-0.99 7.33 -1.98 7.66 -3 8 C-1.125 1.125 -1.125 1.125 0 0 Z " fill="#3F801A" transform="translate(97,144)"/>
<path d="M0 0 C2.31 0 4.62 0 7 0 C7 0.66 7 1.32 7 2 C4.36 2.66 1.72 3.32 -1 4 C-0.67 2.68 -0.34 1.36 0 0 Z " fill="#DEE9D0" transform="translate(53,48)"/>
<path d="M0 0 C2.938 0.75 2.938 0.75 6 2 C6.875 4.125 6.875 4.125 7 6 C4.69 4.68 2.38 3.36 0 2 C0 1.34 0 0.68 0 0 Z " fill="#40721B" transform="translate(61,31)"/>
<path d="M0 0 C2.25 0.25 2.25 0.25 4 1 C4 1.66 4 2.32 4 3 C1.237 3.597 -1.16 4 -4 4 C-2.25 1.938 -2.25 1.938 0 0 Z " fill="#38671D" transform="translate(46,158)"/>
<path d="M0 0 C2.125 3.188 2.502 5.265 3 9 C2.01 8.67 1.02 8.34 0 8 C0 5.36 0 2.72 0 0 Z " fill="#235515" transform="translate(21,102)"/>
<path d="M0 0 C0.402 0.01 0.402 0.01 2.438 0.062 C0.787 1.712 -0.862 3.362 -2.562 5.062 C-3.125 3.125 -3.125 3.125 -3.562 1.062 C-2.562 0.062 -2.562 0.062 0 0 Z " fill="#2B5E0D" transform="translate(94.5625,58.9375)"/>
</svg>
