<?xml version="1.0" encoding="UTF-8"?>
<!-- Generator: visioncortex VTracer 0.6.12 -->
<svg version="1.1" xmlns="http://www.w3.org/2000/svg" width="164" height="142">
<path d="M0 0 C54.12 0 108.24 0 164 0 C164 46.86 164 93.72 164 142 C109.88 142 55.76 142 0 142 C0 95.14 0 48.28 0 0 Z " fill="#355428" transform="translate(0,0)"/>
<path d="M0 0 C54.12 0 108.24 0 164 0 C164 46.86 164 93.72 164 142 C109.88 142 55.76 142 0 142 C0 95.14 0 48.28 0 0 Z M66 9 C64.441 9.152 62.878 9.261 61.312 9.312 C51.576 10.172 43.357 14.814 36 21 C35.205 21.594 34.409 22.189 33.59 22.801 C30.648 25.299 28.32 28.065 26 31.125 C25.782 31.411 25.782 31.411 24.68 32.858 C17.137 42.983 13.642 52.735 13.688 65.375 C13.671 66.27 13.655 67.164 13.639 68.086 C13.634 74.263 14.681 79.286 17 85 C17.353 85.896 17.706 86.792 18.07 87.715 C23.41 98.968 30.897 105.69 42 111 C42.949 111.536 43.898 112.073 44.875 112.625 C50.395 115.678 54.952 117.328 61.25 118 C66.884 118.611 69.795 119.721 74.016 123.41 C86.665 133.545 104.717 133.268 120 132 C132.626 129.959 144.146 123.18 152.281 113.395 C158.74 104.397 161.384 95.168 161.312 84.188 C161.308 83.298 161.303 82.409 161.298 81.493 C161.109 70.96 157.958 63.211 153 54 C148.452 53.822 145.121 54.002 141 56 C140.979 54.804 140.959 53.608 140.938 52.375 C139.452 39.588 130.054 26.664 120.266 18.805 C115.144 15.347 110.188 13.146 104.215 11.617 C101.275 10.798 98.723 9.361 96 8 C91.172 6.952 86.477 6.817 81.562 6.812 C80.837 6.8 80.112 6.788 79.365 6.775 C74.561 6.762 70.624 7.57 66 9 Z " fill="#FBF6EA" transform="translate(0,0)"/>
<path d="M0 0 C7.375 13.7 10.987 28.03 6.875 43.5 C3.576 52.552 -1.981 61.438 -10.188 66.625 C-11.068 67.195 -11.948 67.765 -12.855 68.352 C-20.107 72.153 -26.717 73.538 -34.875 73.438 C-35.753 73.428 -36.632 73.419 -37.537 73.41 C-50.331 73.069 -59.927 68.046 -69 59.008 C-76.535 50.094 -83 36.794 -83 25 C-74.418 21.246 -67.166 20.836 -57.938 21.125 C-48.5 21.344 -41.812 20.78 -34 15 C-32.967 14.242 -31.935 13.484 -30.871 12.703 C-28.795 11.144 -26.729 9.57 -24.676 7.98 C-21.431 5.579 -18.823 4.274 -15 3 C-14.185 2.725 -13.371 2.451 -12.531 2.168 C-8.195 0.772 -4.589 -0.171 0 0 Z " fill="#FCAE03" transform="translate(151,54)"/>
<path d="M0 0 C-1.48 2.96 -3.575 3.151 -6.625 4.312 C-11.712 6.352 -15.723 8.598 -20 12 C-19.553 11.747 -19.553 11.747 -17.289 10.469 C-10.095 6.552 -4.426 3.777 4 5 C4 9.701 3.321 10.187 0.312 13.562 C-6.83 22.206 -9.455 30.954 -11.558 41.822 C-12.466 46.298 -13.519 50.741 -14.562 55.188 C-14.773 56.109 -14.983 57.031 -15.199 57.98 C-15.403 58.846 -15.607 59.713 -15.816 60.605 C-15.996 61.38 -16.176 62.155 -16.362 62.954 C-17 65 -17 65 -19 68 C-23.858 67.558 -25.753 66.571 -29 63 C-29.722 62.649 -30.444 62.299 -31.188 61.938 C-33 61 -33 61 -34 58 C-34.66 57.67 -35.32 57.34 -36 57 C-36.638 41.887 -34.38 31.878 -26 19 C-29.192 21.886 -30.93 24.494 -32.625 28.438 C-33.03 29.364 -33.435 30.291 -33.852 31.246 C-34.231 32.155 -34.61 33.064 -35 34 C-35.347 34.777 -35.694 35.553 -36.051 36.354 C-37.658 40.835 -37.381 45.344 -37.375 50.062 C-37.376 51.092 -37.378 52.122 -37.379 53.183 C-37.284 59.999 -36.592 65.5 -33.875 71.793 C-33 74 -33 74 -33 78 C-39.265 75.398 -43.331 69.02 -45.938 62.938 C-46.288 61.968 -46.639 60.999 -47 60 C-47.99 60 -48.98 60 -50 60 C-51.797 53.818 -52.384 48.178 -52.375 41.75 C-52.376 40.831 -52.378 39.911 -52.379 38.964 C-52.266 31.67 -51.093 25.67 -48 19 C-47.34 19.33 -46.68 19.66 -46 20 C-45.66 19.359 -45.319 18.719 -44.969 18.059 C-39.35 8.032 -33.045 2.401 -22 -1 C-14.474 -2.843 -7.29 -2.482 0 0 Z " fill="#4B6B36" transform="translate(66,24)"/>
<path d="M0 0 C3.046 0.8 4.184 2.943 5.86 5.469 C7.787 8.848 9.063 12.354 10.288 16.035 C10.416 16.395 10.416 16.395 11.062 18.219 C13.292 24.71 14.182 30.975 14.226 37.848 C14.24 38.875 14.254 39.902 14.269 40.961 C14.038 43.535 14.038 43.535 12.038 45.535 C9.718 45.625 9.718 45.625 6.913 45.473 C1.48 45.352 -1.984 46.475 -6.962 48.535 C-9.688 48.629 -9.688 48.629 -11.962 48.535 C-9.894 56.448 -7.67 63.785 -4.013 71.133 C-2.929 73.611 -2.407 75.875 -1.962 78.535 C-1.637 79.871 -1.307 81.205 -0.962 82.535 C-3.962 83.535 -3.962 83.535 -6.024 82.785 C-7.962 81.535 -7.962 81.535 -9.962 78.535 C-10.292 79.855 -10.622 81.175 -10.962 82.535 C-11.622 81.875 -12.282 81.215 -12.962 80.535 C-13.622 80.535 -14.282 80.535 -14.962 80.535 C-18.354 74.316 -18.914 68.549 -17.962 61.535 C-16.601 57.371 -14.909 53.457 -12.962 49.535 C-13.622 49.535 -14.282 49.535 -14.962 49.535 C-16.765 54.836 -18.469 60.138 -19.962 65.535 C-23.508 61.734 -24.477 59.411 -24.528 54.23 C-24.542 53.014 -24.555 51.798 -24.569 50.545 C-24.555 49.263 -24.54 47.981 -24.524 46.66 C-24.513 45.351 -24.502 44.041 -24.491 42.692 C-24.159 27.873 -20.597 16.159 -10.962 4.535 C-7.292 1.174 -4.967 -0.386 0 0 Z " fill="#476733" transform="translate(79.9619140625,30.46484375)"/>
<path d="M0 0 C0 0.66 0 1.32 0 2 C-5.967 3.834 -11.931 5.539 -18 7 C-17.732 7.66 -17.464 8.32 -17.188 9 C-16.992 9.495 -16.992 9.495 -16 12 C-15.464 13.196 -14.928 14.392 -14.375 15.625 C-11.899 22.367 -11.962 29.252 -14.75 35.875 C-17.372 41 -20.308 45.502 -25.555 48.262 C-32.185 50.264 -40.246 50.297 -46.793 48.035 C-55.525 42.85 -60.118 33.317 -62.59 23.801 C-62.725 23.207 -62.861 22.612 -63 22 C-59.538 20.893 -56.605 21.087 -53 21.312 C-41.406 21.364 -33.502 14.815 -24.676 7.98 C-21.431 5.579 -18.823 4.274 -15 3 C-14.185 2.725 -13.371 2.451 -12.531 2.168 C-8.195 0.772 -4.589 -0.171 0 0 Z " fill="#F08D03" transform="translate(151,54)"/>
<path d="M0 0 C1.98 0 3.96 0 6 0 C6.002 0.704 6.005 1.408 6.007 2.134 C6.066 19.251 6.142 36.367 6.236 53.484 C6.281 61.762 6.32 70.039 6.346 78.316 C6.369 85.529 6.403 92.742 6.449 99.954 C6.473 103.775 6.491 107.596 6.498 111.417 C6.504 115.01 6.524 118.603 6.554 122.197 C6.567 124.15 6.565 126.104 6.563 128.057 C6.576 129.212 6.588 130.368 6.601 131.558 C6.606 132.567 6.61 133.575 6.615 134.614 C6.742 135.402 6.869 136.189 7 137 C10.91 139.607 14.232 139.307 18.771 139.319 C19.672 139.329 20.574 139.339 21.502 139.349 C24.509 139.38 27.516 139.397 30.523 139.414 C32.642 139.433 34.76 139.452 36.879 139.473 C42.543 139.525 48.207 139.564 53.871 139.601 C58.521 139.633 63.171 139.672 67.82 139.711 C99.88 139.98 131.94 140.156 164 140 C164 140.66 164 141.32 164 142 C109.88 142 55.76 142 0 142 C0 95.14 0 48.28 0 0 Z " fill="#FEFDFB" transform="translate(0,0)"/>
<path d="M0 0 C0.712 -0.008 1.424 -0.015 2.158 -0.023 C15.815 0.026 32.66 6.008 42.777 15.336 C50.394 23.502 58.802 33.766 58.875 45.438 C58.772 46.696 58.669 47.954 58.562 49.25 C56.562 47.25 56.562 47.25 55.75 43.75 C53.593 34.678 49.481 27.379 41.562 22.25 C32.879 17.484 24.158 17.817 14.562 18.25 C16.213 19.9 17.862 21.55 19.562 23.25 C17.582 22.92 17.582 22.92 7.562 21.25 C7.398 20.59 7.398 20.59 6.562 17.25 C6.274 17.889 5.985 18.529 5.688 19.188 C4.562 21.25 4.562 21.25 2.562 22.25 C0.32 22.453 0.32 22.453 -2.312 22.5 C-2.744 22.513 -2.744 22.513 -4.93 22.578 C-7.438 22.25 -7.438 22.25 -11.438 19.25 C-10.778 15.29 -10.118 11.33 -9.438 7.25 C-10.097 7.25 -10.757 7.25 -11.438 7.25 C-11.273 8.075 -11.273 8.075 -10.438 12.25 C-11.428 12.91 -12.418 13.57 -13.438 14.25 C-13.438 14.58 -13.438 14.91 -13.438 15.25 C-14.675 15.085 -15.912 14.92 -17.188 14.75 C-26.253 13.766 -34.608 13.895 -43.438 16.25 C-37.328 9.585 -31.256 6.77 -22.438 5.25 C-23.427 4.59 -24.418 3.93 -25.438 3.25 C-24.797 3.201 -24.156 3.152 -23.496 3.102 C-22.631 3.027 -21.766 2.952 -20.875 2.875 C-20.452 2.84 -20.452 2.84 -18.309 2.664 C-15.438 2.25 -15.438 2.25 -12.125 1.227 C-7.949 0.121 -4.29 -0.046 0 0 Z " fill="#304B26" transform="translate(81.4375,6.75)"/>
<path d="M0 0 C10.037 5.382 16.013 13.913 19.938 24.5 C20.772 27.789 21.099 30.274 19.938 33.5 C17.639 36.197 15.019 37.797 11.938 39.5 C11.589 39.713 11.589 39.713 9.824 40.789 C3.498 44.189 -2.118 43.581 -9.062 42.5 C-7.743 41.84 -6.422 41.18 -5.062 40.5 C-9.68 11.604 -9.68 11.604 -16.891 2.27 C-18.062 0.5 -18.062 0.5 -18.062 -2.5 C-11.648 -4.638 -5.924 -2.707 0 0 Z " fill="#425F2E" transform="translate(102.0625,32.5)"/>
<path d="M0 0 C10.996 0 18.58 2.661 26.75 10.215 C31.794 15.858 34.713 22.834 35.625 30.312 C36.285 29.653 36.945 28.992 37.625 28.312 C37.625 29.962 37.625 31.612 37.625 33.312 C36.085 33.796 34.543 34.274 33 34.75 C32.141 35.017 31.283 35.284 30.398 35.559 C27.489 36.349 24.604 36.863 21.625 37.312 C21.129 36.25 20.632 35.188 20.121 34.094 C14.902 23.144 10.131 15.191 -0.359 8.625 C-2.688 7.109 -4.527 5.382 -6.375 3.312 C-7.035 2.652 -7.695 1.992 -8.375 1.312 C-6.395 -0.667 -2.696 0.024 0 0 Z " fill="#365529" transform="translate(103.375,23.6875)"/>
<path d="M0 0 C0 0.99 0 1.98 0 3 C-3.841 6.841 -7.962 8.292 -13 10 C-11.68 10.33 -10.36 10.66 -9 11 C-8.951 11.675 -8.902 12.351 -8.852 13.047 C-8.777 13.939 -8.702 14.831 -8.625 15.75 C-8.555 16.632 -8.486 17.513 -8.414 18.422 C-8.001 20.991 -7.288 22.758 -6 25 C-5.34 24.34 -4.68 23.68 -4 23 C-3.567 23.969 -3.134 24.939 -2.688 25.938 C-1 29 -1 29 2 30 C1.562 25.443 1.15 22.423 -2 19 C-1.34 19 -0.68 19 0 19 C0 18.34 0 17.68 0 17 C1.875 17.188 1.875 17.188 4 18 C4.697 19.654 5.361 21.323 6 23 C8.125 24.812 8.125 24.812 10 26 C8.35 26.33 6.7 26.66 5 27 C5.66 28.98 6.32 30.96 7 33 C2.919 36.934 -1.546 36.589 -6.855 36.544 C-13.251 36.297 -17.542 34.771 -22 30 C-27.111 23.584 -30.184 16.974 -32 9 C-28.538 7.893 -25.605 8.087 -22 8.312 C-13.313 8.42 -7.06 4.707 0 0 Z " fill="#F38D02" transform="translate(120,67)"/>
<path d="M0 0 C0.66 0 1.32 0 2 0 C3.153 2.393 4.297 4.789 5.438 7.188 C5.763 7.861 6.088 8.535 6.424 9.229 C11.631 20.234 11.989 34.985 8.438 46.625 C2.756 60.758 -7.261 69.135 -21 75 C-27.505 77.526 -33.034 78.337 -40 78 C-40 77.34 -40 76.68 -40 76 C-40.825 76.058 -41.65 76.116 -42.5 76.176 C-52.629 76.571 -60.596 74.539 -70 71 C-70.828 70.701 -71.655 70.402 -72.508 70.094 C-78.405 67.596 -82.058 62.907 -86 58 C-85.01 57.34 -84.02 56.68 -83 56 C-82 55 -82 55 -81 53 C-80.608 53.804 -80.216 54.609 -79.812 55.438 C-78 58 -78 58 -75.312 58.812 C-74.931 58.843 -74.931 58.843 -73 59 C-73.33 57.845 -73.33 57.845 -75 52 C-74.34 52 -73.68 52 -73 52 C-71.808 53.485 -70.672 55.015 -69.562 56.562 C-62.914 65.066 -53.414 70.956 -42.581 72.3 C-40.087 72.436 -37.622 72.468 -35.125 72.438 C-34.248 72.43 -33.371 72.422 -32.468 72.415 C-25.69 72.243 -20.028 71.253 -14 68 C-13.205 67.588 -12.409 67.175 -11.59 66.75 C-2.233 61.251 3.866 51.162 6.582 40.773 C8.401 28.703 7.937 15.953 1.363 5.363 C0 3 0 3 0 0 Z " fill="#3D6319" transform="translate(151,54)"/>
<path d="M0 0 C2.25 0.062 2.25 0.062 5 1 C6.737 3.402 7.844 5.323 9 8 C9.302 8.678 9.603 9.356 9.914 10.055 C13.62 20.065 13.712 33.716 10.051 43.762 C6.192 51.98 1.605 59.7 -6.188 64.625 C-7.068 65.195 -7.948 65.765 -8.855 66.352 C-16.109 70.154 -22.716 71.534 -30.875 71.438 C-31.311 71.435 -31.311 71.435 -33.517 71.423 C-40.865 71.255 -48.575 70.425 -54 65 C-49.784 65.363 -45.844 65.719 -41.812 67.062 C-35.971 68.499 -29.987 68.528 -24 68 C-23.67 67.67 -23.67 67.67 -22 66 C-20.685 65.298 -19.348 64.637 -18 64 C-17.184 63.586 -16.368 63.172 -15.527 62.746 C-14.673 62.314 -13.818 61.882 -12.938 61.438 C-12.08 61.003 -11.223 60.569 -10.34 60.121 C-8 59 -8 59 -5 58 C-5 57.34 -5 56.68 -5 56 C-4.278 55.34 -3.556 54.68 -2.812 54 C4.109 47.354 7.03 37.176 7.375 27.875 C7.284 20.752 5.335 14.667 3 8 C2.005 4.856 1.908 4.275 3 1 C2.01 0.67 1.02 0.34 0 0 Z " fill="#F8BE0B" transform="translate(147,56)"/>
<path d="M0 0 C0.632 0.338 1.263 0.675 1.914 1.023 C7.395 3.756 12.074 5.311 18.188 5.938 C23.825 6.587 26.789 7.717 31.016 11.41 C43.664 21.544 61.718 21.27 77 20 C86.938 18.382 95.65 13.395 104 8 C102.574 11.452 100.903 13.101 97.875 15.25 C97.151 15.771 96.426 16.292 95.68 16.828 C95.125 17.215 94.571 17.602 94 18 C95.65 18 97.3 18 99 18 C98 20 98 20 95.699 20.816 C88.434 22.616 81.479 23.726 74 24 C73.631 24.014 73.631 24.014 71.763 24.083 C58.145 24.516 45.964 23.504 33 19 C33 18.34 33 17.68 33 17 C32.01 17 31.02 17 30 17 C29.67 16.01 29.34 15.02 29 14 C15.367 11.888 15.367 11.888 9 11 C9.33 10.01 9.66 9.02 10 8 C9.278 7.59 8.556 7.18 7.812 6.758 C7.348 6.488 7.348 6.488 5 5.125 C4.072 4.591 3.144 4.058 2.188 3.508 C1.466 3.01 0.744 2.513 0 2 C0 1.34 0 0.68 0 0 Z " fill="#E3D7B5" transform="translate(43,111)"/>
<path d="M0 0 C0.753 -0.014 1.506 -0.028 2.281 -0.043 C4.749 0.213 6.364 0.959 8.5 2.188 C7.84 2.847 7.18 3.507 6.5 4.188 C6.851 5.384 7.201 6.58 7.562 7.812 C9.005 12.766 7.628 15.603 5.5 20.188 C6.49 20.188 7.48 20.188 8.5 20.188 C8.83 18.537 9.16 16.888 9.5 15.188 C10.82 14.858 12.14 14.528 13.5 14.188 C13.872 20.754 13.872 20.754 12 22.938 C11.505 23.35 11.01 23.763 10.5 24.188 C10.5 25.177 10.5 26.168 10.5 27.188 C2.766 24.757 -1.759 18.046 -5.5 11.188 C-6.727 7.9 -7.688 4.6 -8.5 1.188 C-5.613 0.367 -3 0.026 0 0 Z " fill="#EB8302" transform="translate(96.5,74.8125)"/>
<path d="M0 0 C0.66 0 1.32 0 2 0 C1.67 0.99 1.34 1.98 1 3 C0.339 3.3 -0.323 3.601 -1.004 3.91 C-3 5 -3 5 -3.715 7.059 C-3.788 7.844 -3.862 8.629 -3.938 9.438 C-4.029 10.22 -4.121 11.002 -4.215 11.809 C-4 14 -4 14 -2.504 15.785 C-2.008 16.186 -1.511 16.587 -1 17 C-1.66 17 -2.32 17 -3 17 C-3 17.66 -3 18.32 -3 19 C-1.35 19 0.3 19 2 19 C2.33 19.66 2.66 20.32 3 21 C2.34 21 1.68 21 1 21 C1 21.66 1 22.32 1 23 C-1.929 22.372 -4.361 21.414 -7 20 C-7 21.32 -7 22.64 -7 24 C-6.34 24.66 -5.68 25.32 -5 26 C-4.875 29.625 -4.875 29.625 -5 33 C-7.886 32.602 -8.822 32.21 -10.75 29.938 C-11.162 29.298 -11.575 28.659 -12 28 C-12.66 28.33 -13.32 28.66 -14 29 C-16.09 23.687 -17.611 19.713 -16 14 C-17.65 14 -19.3 14 -21 14 C-18.729 11.43 -16.68 10.297 -13.5 9.062 C-9.864 7.532 -8.207 6.311 -6 3 C-3.375 1.812 -3.375 1.812 -1 1 C-0.67 0.67 -0.34 0.34 0 0 Z " fill="#F99E03" transform="translate(127,64)"/>
<path d="M0 0 C-1.397 5.586 -4.105 9.826 -8 14 C-10.625 15.375 -10.625 15.375 -13 16 C-13.681 16.371 -14.361 16.742 -15.062 17.125 C-17 18 -17 18 -21 18 C-21.144 18.619 -21.289 19.237 -21.438 19.875 C-22 22 -22 22 -23 24 C-24.328 24.354 -25.662 24.685 -27 25 C-27.495 25.33 -27.495 25.33 -30 27 C-30.33 24.69 -30.66 22.38 -31 20 C-30.34 20.33 -29.68 20.66 -29 21 C-28.66 20.359 -28.319 19.719 -27.969 19.059 C-22.816 9.864 -17.271 4.442 -7.395 0.629 C-4.835 -0.043 -2.635 -0.117 0 0 Z " fill="#51703A" transform="translate(49,23)"/>
<path d="M0 0 C0.986 0.048 1.972 0.097 2.988 0.146 C3.505 0.175 3.505 0.175 6.117 0.316 C7.157 0.369 8.198 0.421 9.27 0.475 C11.844 0.605 14.418 0.739 16.992 0.879 C17.157 1.209 17.157 1.209 17.992 2.879 C17.002 2.856 16.012 2.832 14.992 2.809 C8.054 2.696 1.66 2.702 -5.008 4.879 C-4.018 5.539 -3.028 6.199 -2.008 6.879 C-2.008 8.199 -2.008 9.519 -2.008 10.879 C-2.998 11.539 -3.988 12.199 -5.008 12.879 C-5.008 13.209 -5.008 13.539 -5.008 13.879 C-6.245 13.714 -7.483 13.549 -8.758 13.379 C-17.824 12.395 -26.178 12.524 -35.008 14.879 C-28.898 8.214 -22.826 5.399 -14.008 3.879 C-14.998 3.219 -15.988 2.559 -17.008 1.879 C-16.658 1.849 -16.658 1.849 -14.891 1.695 C-13.981 1.612 -13.07 1.528 -12.133 1.441 C-11.228 1.36 -10.323 1.279 -9.391 1.195 C-0.28 -0.014 -0.28 -0.014 0 0 Z " fill="#546E45" transform="translate(73.0078125,8.12109375)"/>
<path d="M0 0 C1.98 0 3.96 0 6 0 C4.68 0.66 3.36 1.32 2 2 C2.361 2.811 2.722 3.622 3.094 4.457 C7.013 13.809 8.792 21.379 5.562 31.188 C2.756 37.471 -2.296 42.189 -8.453 45.199 C-14.767 47.184 -22.041 46.769 -28.098 44.094 C-36.108 39.488 -41.866 32.352 -44.812 23.582 C-45.282 21.739 -45.654 19.871 -46 18 C-46.892 18.3 -47.784 18.601 -48.703 18.91 C-49.874 19.29 -51.044 19.671 -52.25 20.062 C-53.41 20.445 -54.57 20.828 -55.766 21.223 C-58.801 21.952 -60.157 22.119 -63 21 C-49.471 14.926 -49.471 14.926 -44 17 C-42.629 19.66 -42.629 19.66 -41.562 23.062 C-39.005 30.328 -35.686 37.744 -28.375 41.367 C-21.631 43.164 -13.676 43.358 -7.102 40.93 C-0.701 37.038 1.709 31.874 4 25 C4.712 17.983 3.897 12.56 0.875 6.191 C0 4 0 4 0 0 Z " fill="#FDC61E" transform="translate(133,60)"/>
<path d="M0 0 C0.66 0 1.32 0 2 0 C3.508 1.68 3.508 1.68 5.125 3.875 C5.664 4.594 6.203 5.314 6.758 6.055 C8 8 8 8 8 10 C8.99 10.825 9.98 11.65 11 12.5 C11.99 13.325 12.98 14.15 14 15 C14 15.66 14 16.32 14 17 C13.34 17 12.68 17 12 17 C12 17.66 12 18.32 12 19 C13.65 19.33 15.3 19.66 17 20 C17 19.34 17 18.68 17 18 C20.821 18.531 23.062 19.497 26 22 C25.67 22.66 25.34 23.32 25 24 C20.935 23.358 16.94 22.585 12.938 21.625 C11.936 21.39 10.934 21.156 9.902 20.914 C6.9 19.969 4.661 18.66 2 17 C1.161 16.704 0.322 16.407 -0.543 16.102 C-3.623 14.721 -5.147 12.944 -7.312 10.375 C-8.01 9.558 -8.707 8.74 -9.426 7.898 C-9.686 7.585 -9.686 7.585 -11 6 C-10.01 5.34 -9.02 4.68 -8 4 C-7 3 -7 3 -6 1 C-5.608 1.804 -5.216 2.609 -4.812 3.438 C-3 6 -3 6 -0.312 6.812 C0.069 6.843 0.069 6.843 2 7 C1.34 4.69 0.68 2.38 0 0 Z " fill="#42632C" transform="translate(76,106)"/>
<path d="M0 0 C0.66 0.33 1.32 0.66 2 1 C2 2.98 2 4.96 2 7 C2.557 7.026 3.114 7.052 3.688 7.078 C14.509 7.882 21.75 13.042 29 21 C32.353 25.81 35.23 30.653 37.062 36.238 C38 39 38 39 40 41 C38.35 41.99 36.7 42.98 35 44 C34.925 43.322 34.85 42.644 34.773 41.945 C33.714 34.445 31.363 29.154 27 23 C26.569 22.35 26.139 21.701 25.695 21.031 C21.088 14.815 13.805 11.068 6.328 9.406 C3.216 9.04 0.131 9 -3 9 C-2.422 9.99 -1.845 10.98 -1.25 12 C-0.496 13.331 0.253 14.665 1 16 C1.347 16.614 1.694 17.227 2.051 17.859 C7.771 28.548 8.818 40.138 10 52 C10.495 52.165 10.495 52.165 13 53 C11.02 53 9.04 53 7 53 C6.925 51.826 6.85 50.651 6.773 49.441 C6.113 40.833 5.029 32.789 2.125 24.625 C1.881 23.931 1.636 23.237 1.384 22.522 C-0.179 18.397 -2.179 15.358 -5 12 C-5 11.34 -5 10.68 -5 10 C-7.97 10 -10.94 10 -14 10 C-14 9.34 -14 8.68 -14 8 C-14.99 7.67 -15.98 7.34 -17 7 C-16.34 6.67 -15.68 6.34 -15 6 C-14.34 6.33 -13.68 6.66 -13 7 C-11.357 7.121 -9.709 7.175 -8.062 7.188 C-7.625 7.195 -7.625 7.195 -5.41 7.23 C-3 7 -3 7 0 5 C0.188 2.375 0.188 2.375 0 0 Z " fill="#2C451D" transform="translate(87,21)"/>
<path d="M0 0 C2.176 0.742 2.176 0.742 4 2 C4.609 4.023 4.609 4.023 4.75 6.375 C4.807 7.146 4.863 7.917 4.922 8.711 C4.993 10.806 5 12.903 5 15 C1.794 17.137 0.775 17.296 -2.938 17.312 C-3.792 17.329 -4.647 17.346 -5.527 17.363 C-8.442 16.935 -9.813 15.923 -12 14 C-11.745 12.04 -11.471 10.082 -11.188 8.125 C-11.037 7.034 -10.886 5.944 -10.73 4.82 C-9.251 -0.891 -5.072 -0.356 0 0 Z " fill="#CC9F3C" transform="translate(82,12)"/>
<path d="M0 0 C0.66 0 1.32 0 2 0 C2.839 2.269 3.672 4.54 4.5 6.812 C4.619 7.134 4.619 7.134 5.223 8.76 C6.271 11.649 7 13.901 7 17 C6.34 17 5.68 17 5 17 C5.33 18.98 5.66 20.96 6 23 C5.34 23 4.68 23 4 23 C4.33 24.98 4.66 26.96 5 29 C4.01 28.34 3.02 27.68 2 27 C1.34 27 0.68 27 0 27 C-3.698 20.22 -4.32 12.953 -2.32 5.449 C-1.63 3.599 -0.827 1.793 0 0 Z " fill="#506F37" transform="translate(65,84)"/>
<path d="M0 0 C0.99 0 1.98 0 3 0 C4.473 1.723 4.473 1.723 6.062 4.062 C11.959 11.946 19.473 16.693 29 19 C32.521 19.446 36.016 19.596 39.562 19.688 C40.019 19.705 40.019 19.705 42.33 19.791 C44.553 19.872 46.776 19.942 49 20 C44.617 24.081 40.312 23.415 34.605 23.297 C30.575 22.965 27.133 22.131 23.332 20.801 C19.626 19.528 15.832 18.803 12 18 C11.948 17.68 11.948 17.68 11.688 16.062 C11.461 15.382 11.234 14.701 11 14 C10.01 13.67 9.02 13.34 8 13 C6.211 10.82 6.211 10.82 4.375 8.125 C3.764 7.241 3.153 6.356 2.523 5.445 C1 3 1 3 0 0 Z " fill="#F8C108" transform="translate(78,102)"/>
<path d="M0 0 C5.382 5.382 5.331 13.805 5.375 21 C5.238 34.412 0.916 44.847 -8 55 C-13.53 59.226 -19.143 62.629 -26 64 C-26.33 63.34 -26.66 62.68 -27 62 C-25.845 61.835 -25.845 61.835 -20 61 C-20 60.34 -20 59.68 -20 59 C-19.01 59 -18.02 59 -17 59 C-16.67 58.01 -16.34 57.02 -16 56 C-15.175 55.835 -15.175 55.835 -11 55 C-11 54.34 -11 53.68 -11 53 C-9.677 51.657 -8.342 50.325 -7 49 C0.91 37.976 3.427 27.158 1.543 13.746 C1.198 11.724 0.832 9.705 0.438 7.691 C0.012 5.074 -0.077 2.646 0 0 Z " fill="#D8B60A" transform="translate(154,62)"/>
<path d="M0 0 C-3.449 1.895 -6.988 2.996 -10.75 4.125 C-11.92 4.478 -13.091 4.831 -14.297 5.195 C-14.743 5.328 -14.743 5.328 -17 6 C-16.34 6.33 -15.68 6.66 -15 7 C-14.082 9.412 -13.265 11.789 -12.5 14.25 C-10.156 21.622 -10.156 21.622 -8.844 24.797 C-8 27 -8 27 -8 30 C-6.539 32.445 -6.539 32.445 -4.625 35.125 C-3.999 36.014 -3.372 36.904 -2.727 37.82 C-1 40 -1 40 1 41 C0.67 41.66 0.34 42.32 0 43 C-1.694 41.356 -3.351 39.688 -5 38 C-5.235 37.775 -5.235 37.775 -6.422 36.637 C-10.144 32.764 -12.476 28.393 -14.75 23.562 C-15.044 22.942 -15.337 22.321 -15.64 21.682 C-18.239 15.938 -20 10.369 -20 4 C-6.367 -0.592 -6.367 -0.592 0 0 Z " fill="#EEA809" transform="translate(88,75)"/>
<path d="M0 0 C4.24 1.986 7.988 4.624 11.855 7.246 C19.238 11.364 25.868 12.452 34.25 12.25 C35.121 12.245 35.993 12.24 36.891 12.234 C41.041 12.184 44.955 12.036 49 11 C48.781 12.891 48.781 12.891 48 15 C42.091 18.142 35.531 18.316 29 18 C29 17.34 29 16.68 29 16 C25.7 16 22.4 16 19 16 C18.67 15.01 18.34 14.02 18 13 C14.438 11.312 14.438 11.312 11 10 C11 10.66 11 11.32 11 12 C9.35 11.67 7.7 11.34 6 11 C6 10.34 6 9.68 6 9 C6.66 9 7.32 9 8 9 C7.237 8.257 6.474 7.515 5.688 6.75 C3.561 4.574 1.744 2.478 0 0 Z " fill="#4D6B25" transform="translate(82,114)"/>
<path d="M0 0 C0.299 0.103 0.299 0.103 1.812 0.625 C0.863 3.979 -0.085 7.317 -1.188 10.625 C-0.198 10.625 0.793 10.625 1.812 10.625 C2.142 8.975 2.472 7.325 2.812 5.625 C4.132 5.295 5.453 4.965 6.812 4.625 C7.184 11.191 7.184 11.191 5.312 13.375 C4.817 13.787 4.323 14.2 3.812 14.625 C3.812 15.615 3.812 16.605 3.812 17.625 C0.338 16.37 -2.602 15.297 -5.188 12.625 C-6.412 9.684 -7.338 6.693 -8.188 3.625 C-7.198 3.625 -6.207 3.625 -5.188 3.625 C-5.188 2.965 -5.188 2.305 -5.188 1.625 C-2.188 -0.375 -2.188 -0.375 0 0 Z " fill="#F89202" transform="translate(103.1875,84.375)"/>
<path d="M0 0 C2.708 -0.027 5.417 -0.047 8.125 -0.062 C8.886 -0.071 9.646 -0.079 10.43 -0.088 C14.739 -0.106 18.755 0.139 23 1 C22.67 1.66 22.34 2.32 22 3 C22.66 3.66 23.32 4.32 24 5 C22.713 6.006 21.42 7.004 20.125 8 C19.406 8.557 18.686 9.114 17.945 9.688 C16 11 16 11 14 11 C14 12.65 14 14.3 14 16 C13.67 16 13.34 16 13 16 C13 13.03 13 10.06 13 7 C8.686 5.922 4.128 4.936 0 7 C-0.99 6.34 -1.98 5.68 -3 5 C3.745 2.364 9.822 2.865 17 3 C11.06 2.67 5.12 2.34 -1 2 C-0.67 1.34 -0.34 0.68 0 0 Z " fill="#455A2C" transform="translate(73,7)"/>
<path d="M0 0 C1.532 2.297 2.621 4.275 3.75 6.75 C6.053 11.433 9.209 16.605 14 19 C13.711 18.203 13.422 17.407 13.125 16.586 C12.754 15.526 12.383 14.467 12 13.375 C11.814 12.853 11.814 12.853 10.875 10.211 C9.995 6.982 9.84 4.328 10 1 C11.887 3.83 12.68 5.924 13.688 9.125 C15.752 15.021 18.904 19.34 23 24 C22.34 24.33 22.34 24.33 19 26 C10.257 20.766 3.258 14.404 -1 5 C-0.75 2.062 -0.75 2.062 0 0 Z " fill="#304B2A" transform="translate(19,83)"/>
<path d="M0 0 C5.346 0.062 9.407 0.845 14.236 3.26 C11.236 4.26 11.236 4.26 9.236 4.26 C9.236 6.24 9.236 8.22 9.236 10.26 C4.895 9.766 2.645 8.899 -0.764 6.26 C-1.568 6.115 -2.372 5.971 -3.201 5.822 C-6.496 5.099 -8.27 3.469 -10.764 1.26 C-8.551 -0.953 -3.081 0.014 0 0 Z " fill="#466532" transform="translate(105.763671875,23.740234375)"/>
<path d="M0 0 C2.333 2.333 4.667 4.667 7 7 C11.704 9.254 16.464 10.817 21.473 12.254 C23.284 12.789 25.075 13.397 26.848 14.051 C30.412 15.124 33.662 15.415 37.375 15.625 C38.62 15.7 39.865 15.775 41.148 15.852 C42.089 15.901 43.03 15.95 44 16 C44 16.66 44 17.32 44 18 C29.038 18.552 15.133 17.046 3.375 6.688 C-0.149 4.184 -3.764 4.185 -8 4 C-8 3.67 -8 3.34 -8 3 C-5.36 2.67 -2.72 2.34 0 2 C0 1.34 0 0.68 0 0 Z " fill="#344C27" transform="translate(67,114)"/>
<path d="M0 0 C0.985 0.009 1.97 0.018 2.984 0.027 C3.358 0.033 3.358 0.033 5.25 0.062 C5.25 0.393 5.25 0.723 5.25 1.062 C4.283 1.209 3.316 1.356 2.32 1.508 C-6.138 2.918 -12.706 4.91 -19.75 10.062 C-20.499 10.557 -21.248 11.053 -22.02 11.562 C-22.591 12.057 -23.162 12.553 -23.75 13.062 C-23.75 14.053 -23.75 15.043 -23.75 16.062 C-25.289 17.352 -25.289 17.352 -27.375 18.688 C-31.483 21.589 -33.846 24.732 -36.426 29.012 C-37.698 30.983 -39.032 32.476 -40.75 34.062 C-39.073 22.819 -28.849 13.517 -20.281 6.859 C-13.817 2.271 -7.929 -0.094 0 0 Z " fill="#2A4826" transform="translate(59.75,10.9375)"/>
<path d="M0 0 C0 0.66 0 1.32 0 2 C-1.32 2 -2.64 2 -4 2 C-4 2.99 -4 3.98 -4 5 C-6.437 5.222 -8.874 5.428 -11.312 5.625 C-11.658 5.657 -11.658 5.657 -13.404 5.82 C-17.256 6.118 -18.689 6.208 -22 4 C-21.67 3.01 -21.34 2.02 -21 1 C-13.925 -2.351 -7.331 -3.665 0 0 Z " fill="#476434" transform="translate(112,16)"/>
<path d="M0 0 C0.33 0 0.66 0 1 0 C1.169 1.416 1.335 2.833 1.5 4.25 C1.593 5.039 1.686 5.828 1.781 6.641 C2 9 2 9 2 13 C-1.314 15.209 -2.345 15.225 -6.188 15.125 C-7.089 15.107 -7.99 15.089 -8.918 15.07 C-9.605 15.047 -10.292 15.024 -11 15 C-9.68 14.67 -8.36 14.34 -7 14 C-7 11.36 -7 8.72 -7 6 C-7.66 6 -8.32 6 -9 6 C-9.33 6.99 -9.66 7.98 -10 9 C-10.33 7.02 -10.66 5.04 -11 3 C-10.371 3.031 -10.371 3.031 -7.188 3.188 C-3.269 3.208 -3.269 3.208 -1.062 1.5 C-0.712 1.005 -0.361 0.51 0 0 Z " fill="#977119" transform="translate(85,14)"/>
<path d="M0 0 C0.66 0 1.32 0 2 0 C1.929 0.558 1.857 1.116 1.783 1.691 C0.921 9.181 0.885 16.593 0.938 24.125 C0.942 25.368 0.947 26.61 0.951 27.891 C0.963 30.927 0.979 33.964 1 37 C-2.241 34.182 -2.859 31.965 -3.161 27.761 C-3.207 25.111 -3.235 22.462 -3.25 19.812 C-3.271 18.904 -3.291 17.996 -3.312 17.061 C-3.348 10.835 -2.35 5.765 0 0 Z " fill="#4A6642" transform="translate(17,46)"/>
<path d="M0 0 C0.33 0.66 0.66 1.32 1 2 C-0.98 2.99 -2.96 3.98 -5 5 C-2.582 5.108 -0.169 5.187 2.25 5.25 C2.932 5.284 3.614 5.317 4.316 5.352 C7.922 5.422 9.641 5.292 12.484 2.984 C12.985 2.33 13.485 1.675 14 1 C14.99 1.33 15.98 1.66 17 2 C17 3.32 17 4.64 17 6 C16.01 6.66 15.02 7.32 14 8 C14 8.33 14 8.66 14 9 C12.763 8.835 11.525 8.67 10.25 8.5 C1.184 7.516 -7.171 7.645 -16 10 C-11.604 5.204 -6.661 1.066 0 0 Z " fill="#476832" transform="translate(54,13)"/>
<path d="M0 0 C6.09 -0.351 11.071 0.681 16.945 2.266 C21.267 3.305 25.573 3.716 30 4 C30.33 5.32 30.66 6.64 31 8 C31.99 8 32.98 8 34 8 C34 8.66 34 9.32 34 10 C40.962 11.624 47.941 12.877 55 14 C55 14.33 55 14.66 55 15 C45.562 15.337 38.483 13.045 30 9 C30 8.01 30 7.02 30 6 C28.989 6.062 27.979 6.124 26.938 6.188 C17.851 6.204 8.657 3.562 0 1 C0 0.67 0 0.34 0 0 Z " fill="#F6EBD5" transform="translate(42,120)"/>
<path d="M0 0 C1.98 0 3.96 0 6 0 C5.34 0.33 5.34 0.33 2 2 C2.361 2.811 2.722 3.622 3.094 4.457 C7.07 13.946 8.871 21.503 5.312 31.375 C3.471 35.49 1.536 38.209 -2 41 C-2.66 41 -3.32 41 -4 41 C-2.849 38.506 -1.577 36.391 0 34.125 C4.123 27.683 4.875 21.522 4 14 C3.126 11.283 2.098 8.768 0.875 6.191 C0 4 0 4 0 0 Z " fill="#FDCF3E" transform="translate(133,60)"/>
<path d="M0 0 C0.66 0 1.32 0 2 0 C2.839 2.269 3.672 4.54 4.5 6.812 C4.619 7.134 4.619 7.134 5.223 8.76 C6.271 11.649 7 13.901 7 17 C6.34 17 5.68 17 5 17 C5.33 18.98 5.66 20.96 6 23 C3.224 20.224 3.139 17.697 2.375 13.875 C2.115 12.594 1.854 11.312 1.586 9.992 C1.393 9.005 1.199 8.017 1 7 C0.876 8.299 0.752 9.599 0.625 10.938 C0.414 13.152 0.414 13.152 0 15 C-0.33 15.165 -0.33 15.165 -2 16 C-2.054 14.271 -2.093 12.542 -2.125 10.812 C-2.148 9.85 -2.171 8.887 -2.195 7.895 C-1.991 4.872 -1.269 2.732 0 0 Z " fill="#5F8241" transform="translate(65,84)"/>
<path d="M0 0 C1.65 0.33 3.3 0.66 5 1 C4.402 4.266 3.341 6.174 1.188 8.688 C0.686 9.289 0.185 9.891 -0.332 10.512 C-2.21 12.188 -3.543 12.6 -6 13 C-6.715 10.77 -6.715 10.77 -7 8 C-5.566 5.762 -5.566 5.762 -3.562 3.688 C-3.233 3.339 -3.233 3.339 -1.566 1.574 C-1.049 1.055 -0.533 0.535 0 0 Z " fill="#889E5D" transform="translate(48,38)"/>
<path d="M0 0 C0.66 0 1.32 0 2 0 C2.33 1.155 2.66 2.31 3 3.5 C4.58 8.24 6.66 12.657 8.875 17.125 C9.202 17.793 9.53 18.462 9.867 19.15 C15.792 30.896 15.792 30.896 20 33 C19.67 33.66 19.34 34.32 19 35 C17.306 33.356 15.649 31.688 14 30 C13.765 29.775 13.765 29.775 12.578 28.637 C8.858 24.766 6.488 20.378 4.188 15.562 C3.885 14.942 3.583 14.321 3.272 13.682 C1.179 9.109 0.427 5.01 0 0 Z " fill="#D8B90A" transform="translate(69,83)"/>
<path d="M0 0 C1.333 0.667 2.667 1.333 4 2 C4.681 2.309 5.361 2.619 6.062 2.938 C8 4 8 4 9.375 5.438 C13.556 9.458 18.387 10.439 24 11 C24 11.99 24 12.98 24 14 C17.884 12.96 11.934 11.816 6 10 C4.669 9.659 3.336 9.321 2 9 C2 8.34 2 7.68 2 7 C2.66 6.67 3.32 6.34 4 6 C3.34 5.196 2.68 4.391 2 3.562 C0 1 0 1 0 0 Z " fill="#415E30" transform="translate(37,101)"/>
<path d="M0 0 C1.875 0.188 1.875 0.188 4 1 C4.697 2.654 5.361 4.323 6 6 C8.125 7.812 8.125 7.812 10 9 C9.216 9.082 8.433 9.165 7.625 9.25 C6.759 9.498 5.892 9.745 5 10 C4.67 10.66 4.34 11.32 4 12 C3.67 12.66 3.34 13.32 3 14 C0.375 14.75 0.375 14.75 -2 15 C-4.097 12.64 -4.969 11.454 -5.188 8.25 C-5.126 7.507 -5.064 6.765 -5 6 C-4.333 7 -4.333 7 -1 12 C-0.01 12.33 0.98 12.66 2 13 C1.562 8.443 1.15 5.423 -2 2 C-1.34 2 -0.68 2 0 2 C0 1.34 0 0.68 0 0 Z " fill="#E57A01" transform="translate(120,84)"/>
<path d="M0 0 C5.75 0.75 5.75 0.75 8 3 C11.039 3.414 11.039 3.414 14.625 3.625 C15.814 3.7 17.002 3.775 18.227 3.852 C19.142 3.901 20.057 3.95 21 4 C21 4.33 21 4.66 21 5 C16.38 5.33 11.76 5.66 7 6 C8.65 7.65 10.3 9.3 12 11 C10.02 10.67 10.02 10.67 0 9 C0 7.35 0 5.7 0 4 C0.66 4 1.32 4 2 4 C2 3.34 2 2.68 2 2 C1.34 2 0.68 2 0 2 C0 1.34 0 0.68 0 0 Z " fill="#345326" transform="translate(89,19)"/>
<path d="M0 0 C0.66 0 1.32 0 2 0 C2.499 6.118 1.249 9.025 -2 14 C-3.32 13.67 -4.64 13.34 -6 13 C-5.633 6.876 -4.213 4.213 0 0 Z " fill="#839A5B" transform="translate(68,42)"/>
<path d="M0 0 C-0.388 2.487 -0.71 3.723 -2.559 5.484 C-3.179 5.902 -3.799 6.32 -4.438 6.75 C-5.055 7.178 -5.672 7.606 -6.309 8.047 C-8 9 -8 9 -10 9 C-10.66 10.32 -11.32 11.64 -12 13 C-12.66 13 -13.32 13 -14 13 C-13.67 11.35 -13.34 9.7 -13 8 C-12.01 7.67 -11.02 7.34 -10 7 C-9.856 6.381 -9.711 5.763 -9.562 5.125 C-9 3 -9 3 -7.25 1.25 C-4.621 -0.211 -2.963 -0.247 0 0 Z " fill="#899E5D" transform="translate(44,28)"/>
<path d="M0 0 C1.355 0.117 2.709 0.244 4.062 0.375 C4.44 0.41 4.44 0.41 6.348 0.586 C9 1 9 1 12.25 1.969 C16.483 3.133 20.582 3.67 24.938 4.125 C25.327 4.168 25.327 4.168 27.299 4.387 C29.199 4.597 31.099 4.799 33 5 C33 5.33 33 5.66 33 6 C10.502 6.793 10.502 6.793 2 2 C1.34 1.34 0.68 0.68 0 0 Z " fill="#E0B807" transform="translate(93,121)"/>
<path d="M0 0 C0 3.554 -0.829 4.571 -2.75 7.5 C-9.503 18.585 -10.938 29.298 -12 42 C-12.33 42 -12.66 42 -13 42 C-14.028 26.988 -12.578 14.452 -2.562 2.5 C-1.717 1.675 -0.871 0.85 0 0 Z " fill="#2D4D23" transform="translate(41,40)"/>
<path d="M0 0 C0.66 0 1.32 0 2 0 C8.723 13.324 10.512 21.952 9 37 C8.67 37 8.34 37 8 37 C7.987 36.456 7.987 36.456 7.922 33.703 C7.575 23.649 6.8 14.146 1.367 5.359 C0 3 0 3 0 0 Z " fill="#4A6C21" transform="translate(151,54)"/>
<path d="M0 0 C0 0.66 0 1.32 0 2 C-2.375 2.712 -4.75 3.425 -7.125 4.137 C-9.001 4.7 -10.876 5.265 -12.75 5.832 C-13.616 6.094 -14.482 6.355 -15.375 6.625 C-16.166 6.865 -16.958 7.105 -17.773 7.352 C-20 8 -20 8 -22.211 8.457 C-24 9 -24 9 -25.25 11.062 C-25.498 11.702 -25.745 12.341 -26 13 C-27.32 12.67 -28.64 12.34 -30 12 C-21.506 5.183 -11.201 -0.419 0 0 Z " fill="#D38313" transform="translate(151,54)"/>
<path d="M0 0 C-1.396 5.586 -4.105 9.827 -8 14 C-10.615 15.427 -12.069 16 -15 16 C-15 15.34 -15 14.68 -15 14 C-12.763 12.378 -10.423 10.977 -8.066 9.535 C-6 8 -6 8 -5 5 C-5.99 4.67 -6.98 4.34 -8 4 C-8.33 3.34 -8.66 2.68 -9 2 C-5.865 0.142 -3.625 -0.201 0 0 Z " fill="#5A7840" transform="translate(49,23)"/>
<path d="M0 0 C5.113 1.939 6.387 5.704 8.625 10.438 C9.88 13.688 10.58 16.555 11 20 C11.66 19.34 12.32 18.68 13 18 C13 19.65 13 21.3 13 23 C11.35 22.67 9.7 22.34 8 22 C7.902 21.443 7.804 20.886 7.703 20.312 C6.733 15.364 5.334 11.239 2.953 6.797 C1.786 4.597 0.874 2.33 0 0 Z " fill="#405F32" transform="translate(128,34)"/>
<path d="M0 0 C2.779 3.473 4.985 7.041 7 11 C6.67 11.99 6.34 12.98 6 14 C3.125 13.312 3.125 13.312 0 12 C-2.202 8.397 -2.193 5.151 -2 1 C-1.34 0.67 -0.68 0.34 0 0 Z " fill="#527235" transform="translate(72,100)"/>
<path d="M0 0 C4.386 0.497 6.035 2.507 9.312 5.375 C11.309 6.053 13.308 6.722 15.312 7.375 C15.642 8.365 15.972 9.355 16.312 10.375 C11.971 9.882 9.721 9.014 6.312 6.375 C5.508 6.231 4.704 6.086 3.875 5.938 C0.581 5.214 -1.193 3.584 -3.688 1.375 C-2.688 0.375 -2.688 0.375 0 0 Z " fill="#54713B" transform="translate(98.6875,23.625)"/>
<path d="M0 0 C0.66 0 1.32 0 2 0 C0.693 3.922 -1.638 4.95 -5 7 C-6.458 7.916 -7.917 8.833 -9.375 9.75 C-10.583 10.501 -11.791 11.251 -13 12 C-12.34 12.33 -11.68 12.66 -11 13 C-11 13.66 -11 14.32 -11 15 C-14.3 14.67 -17.6 14.34 -21 14 C-18.218 11.218 -16.987 10.417 -13.5 9.062 C-9.864 7.532 -8.207 6.311 -6 3 C-3.375 1.812 -3.375 1.812 -1 1 C-0.67 0.67 -0.34 0.34 0 0 Z " fill="#FBC120" transform="translate(127,64)"/>
<path d="M0 0 C0 0.66 0 1.32 0 2 C-2.525 3.803 -4.399 4.925 -7.5 5.312 C-11.326 6.365 -12.724 8.863 -15 12 C-16.312 14.375 -16.312 14.375 -17 16 C-17.66 15.67 -18.32 15.34 -19 15 C-18.35 9.311 -15.531 6.419 -11.438 2.625 C-10.633 2.089 -9.829 1.553 -9 1 C-8.01 1.33 -7.02 1.66 -6 2 C-3 0 -3 0 0 0 Z " fill="#608142" transform="translate(57,34)"/>
<path d="M0 0 C2.64 0 5.28 0 8 0 C7.34 0.66 6.68 1.32 6 2 C6.66 2.66 7.32 3.32 8 4 C3.139 6.592 -1.653 6.187 -7 6 C-5.188 4 -5.188 4 -3 2 C-2.01 2 -1.02 2 0 2 C0 1.34 0 0.68 0 0 Z " fill="#69874A" transform="translate(55,13)"/>
<path d="M0 0 C6.625 -0.25 6.625 -0.25 10 2 C9.67 2.99 9.34 3.98 9 5 C6.229 6.386 4.067 6.188 1 6 C0.01 5.34 -0.98 4.68 -2 4 C-1.34 2.68 -0.68 1.36 0 0 Z " fill="#EABF56" transform="translate(75,12)"/>
<path d="M0 0 C1.887 2.83 2.68 4.924 3.688 8.125 C5.752 14.021 8.904 18.34 13 23 C12.34 23.33 12.34 23.33 9 25 C8.01 24.01 7.02 23.02 6 22 C6.66 21.67 7.32 21.34 8 21 C7.59 20.42 7.18 19.84 6.758 19.242 C2.35 12.852 -0.379 7.966 0 0 Z " fill="#25441D" transform="translate(29,84)"/>
<path d="M0 0 C3.298 1.552 6.269 3.436 9.312 5.438 C13.451 8.1 17.403 10.264 22 12 C19.83 12.955 18.437 13.144 16.176 12.398 C14.432 11.641 12.714 10.824 11 10 C11 10.66 11 11.32 11 12 C9.35 11.67 7.7 11.34 6 11 C6 10.34 6 9.68 6 9 C6.66 9 7.32 9 8 9 C7.237 8.257 6.474 7.515 5.688 6.75 C3.561 4.574 1.744 2.478 0 0 Z " fill="#34561B" transform="translate(82,114)"/>
<path d="M0 0 C1.98 0.99 3.96 1.98 6 3 C6.125 9.75 6.125 9.75 5 12 C5.66 12.33 6.32 12.66 7 13 C5.68 13.33 4.36 13.66 3 14 C3.33 10.7 3.66 7.4 4 4 C3.01 4.33 2.02 4.66 1 5 C-0.188 7.562 -0.188 7.562 -1 10 C-1.99 10 -2.98 10 -4 10 C-3.427 7.133 -3.139 6.139 -1 4 C-0.375 1.875 -0.375 1.875 0 0 Z " fill="#D16502" transform="translate(106,85)"/>
<path d="M0 0 C1.918 0.06 3.834 0.149 5.75 0.25 C6.284 0.273 6.284 0.273 8.984 0.391 C12.524 1.106 13.739 2.256 16 5 C15 6 15 6 12.438 6.062 C12.035 6.052 12.035 6.052 10 6 C10 5.67 10 5.34 10 5 C6.37 4.34 2.74 3.68 -1 3 C-0.67 2.01 -0.34 1.02 0 0 Z " fill="#DBCEA7" transform="translate(56,117)"/>
<path d="M0 0 C0.66 0 1.32 0 2 0 C1.39 2.688 0.637 4.816 -0.5 7.375 C-2.816 13.317 -2.743 19.697 -3 26 C-5.589 23.411 -5.357 22.235 -5.438 18.625 C-5.362 11.655 -3.064 6.172 0 0 Z " fill="#26461C" transform="translate(65,80)"/>
<path d="M0 0 C0.404 0.02 0.404 0.02 2.449 0.12 C2.891 0.141 2.891 0.141 5.123 0.249 C5.585 0.277 5.585 0.277 7.922 0.417 C8.842 0.457 9.762 0.497 10.709 0.538 C17.599 0.91 17.599 0.91 20.985 3.167 C17.755 3.196 14.526 3.214 11.297 3.229 C10.841 3.234 10.841 3.234 8.533 3.255 C7.647 3.258 6.761 3.261 5.848 3.265 C5.036 3.27 4.224 3.275 3.388 3.281 C0.836 3.16 -1.526 2.727 -4.015 2.167 C-2.015 0.167 -2.015 0.167 0 0 Z " fill="#EEDFBE" transform="translate(96.015380859375,131.8330078125)"/>
<path d="M0 0 C5.75 4.625 5.75 4.625 8 8 C8 8.99 8 9.98 8 11 C4.717 9.509 2.069 7.614 -0.75 5.375 C-1.549 4.743 -2.348 4.112 -3.172 3.461 C-3.775 2.979 -4.378 2.497 -5 2 C-4.01 1.67 -3.02 1.34 -2 1 C-1.34 1.33 -0.68 1.66 0 2 C0 1.34 0 0.68 0 0 Z " fill="#223B1C" transform="translate(125,25)"/>
<path d="M0 0 C0 0.66 0 1.32 0 2 C-5.476 7 -5.476 7 -8 7 C-10.139 4.861 -10.427 3.867 -11 1 C-7.326 -0.176 -3.831 -0.074 0 0 Z " fill="#FA9203" transform="translate(100,76)"/>
<path d="M0 0 C0.33 0 0.66 0 1 0 C1.061 0.999 1.121 1.998 1.184 3.027 C1.267 4.318 1.351 5.608 1.438 6.938 C1.519 8.225 1.6 9.513 1.684 10.84 C2 14 2 14 3 15 C3.072 16.853 3.084 18.708 3.062 20.562 C3.053 21.574 3.044 22.586 3.035 23.629 C3.024 24.411 3.012 25.194 3 26 C0.778 24.25 0.055 23.398 -0.341 20.548 C-0.325 19.6 -0.309 18.652 -0.293 17.676 C-0.288 17.162 -0.288 17.162 -0.264 14.561 C-0.239 13.489 -0.213 12.417 -0.188 11.312 C-0.181 10.771 -0.181 10.771 -0.146 8.029 C-0.111 5.352 -0.062 2.676 0 0 Z " fill="#274622" transform="translate(15,57)"/>
<path d="M0 0 C0.629 0.193 1.258 0.387 1.906 0.586 C7.242 2.209 12.578 3.695 18 5 C18.33 4.34 18.66 3.68 19 3 C19.33 3.99 19.66 4.98 20 6 C12.981 7.472 9.269 6.717 2.969 3.324 C1 2 1 2 0 0 Z " fill="#2B3F20" transform="translate(43,110)"/>
<path d="M0 0 C2.438 0.375 2.438 0.375 5 1 C5.33 1.66 5.66 2.32 6 3 C6.66 2.67 7.32 2.34 8 2 C8 4.97 8 7.94 8 11 C6.68 11 5.36 11 4 11 C4 8.36 4 5.72 4 3 C3.34 3 2.68 3 2 3 C1.67 3.99 1.34 4.98 1 6 C0.67 4.02 0.34 2.04 0 0 Z " fill="#BA8A25" transform="translate(74,17)"/>
<path d="M0 0 C6.6 0 13.2 0 20 0 C15.917 3.062 15.435 3.372 10.75 3.188 C9.858 3.16 8.966 3.133 8.047 3.105 C7.371 3.071 6.696 3.036 6 3 C6 2.34 6 1.68 6 1 C4.02 1 2.04 1 0 1 C0 0.67 0 0.34 0 0 Z " fill="#275027" transform="translate(108,128)"/>
<path d="M0 0 C0.598 0.206 1.196 0.412 1.812 0.625 C1.153 2.935 0.493 5.245 -0.188 7.625 C-1.507 7.625 -2.828 7.625 -4.188 7.625 C-4.517 5.645 -4.847 3.665 -5.188 1.625 C-2.188 -0.375 -2.188 -0.375 0 0 Z " fill="#FBA907" transform="translate(103.1875,84.375)"/>
<path d="M0 0 C0.99 0 1.98 0 3 0 C3.33 1.32 3.66 2.64 4 4 C4.99 4 5.98 4 7 4 C7 4.99 7 5.98 7 7 C7.99 7.33 8.98 7.66 10 8 C9.01 8 8.02 8 7 8 C7 8.66 7 9.32 7 10 C5.109 9.785 5.109 9.785 3 9 C1.953 6.934 1.953 6.934 1.25 4.438 C1.008 3.611 0.765 2.785 0.516 1.934 C0.345 1.296 0.175 0.657 0 0 Z " fill="#F48501" transform="translate(95,88)"/>
<path d="M0 0 C-1.144 3.873 -2.233 7.003 -5 10 C-5.66 10 -6.32 10 -7 10 C-7.333 6.339 -7.462 4.605 -5.188 1.625 C-3 0 -3 0 0 0 Z " fill="#698349" transform="translate(56,44)"/>
<path d="M0 0 C0.701 0.289 1.403 0.578 2.125 0.875 C2.125 1.865 2.125 2.855 2.125 3.875 C1.465 3.875 0.805 3.875 0.125 3.875 C-0.205 3.215 -0.535 2.555 -0.875 1.875 C-1.863 2.782 -2.84 3.701 -3.812 4.625 C-4.358 5.135 -4.903 5.646 -5.465 6.172 C-7.035 8.069 -7.462 9.472 -7.875 11.875 C-8.535 11.875 -9.195 11.875 -9.875 11.875 C-9.634 6.815 -8.105 4.279 -4.508 0.934 C-2.875 -0.125 -2.875 -0.125 0 0 Z " fill="#8EA561" transform="translate(50.875,38.125)"/>
<path d="M0 0 C3.012 0.644 5.517 1.65 8.25 3.062 C8.956 3.425 9.663 3.787 10.391 4.16 C10.922 4.437 11.453 4.714 12 5 C12 5.66 12 6.32 12 7 C10.297 7.684 10.297 7.684 8 8 C5.641 6.785 5.641 6.785 3.25 5.062 C2.451 4.497 1.652 3.931 0.828 3.348 C0.225 2.903 -0.378 2.458 -1 2 C-0.67 1.34 -0.34 0.68 0 0 Z " fill="#436232" transform="translate(102,29)"/>
<path d="M0 0 C6.75 -0.125 6.75 -0.125 9 1 C9 1.66 9 2.32 9 3 C8.34 3 7.68 3 7 3 C6.34 4.32 5.68 5.64 5 7 C3.68 6.67 2.36 6.34 1 6 C1.66 5.67 2.32 5.34 3 5 C2.01 3.35 1.02 1.7 0 0 Z " fill="#507338" transform="translate(59,12)"/>
<path d="M0 0 C0 0.99 0 1.98 0 3 C-3.335 6.237 -6.48 7.942 -11 9 C-13.184 8.543 -13.184 8.543 -15 8 C-14.169 7.59 -13.337 7.18 -12.48 6.758 C-11.394 6.219 -10.307 5.68 -9.188 5.125 C-8.109 4.591 -7.03 4.058 -5.918 3.508 C-3 2 -3 2 0 0 Z " fill="#D57E08" transform="translate(120,67)"/>
<path d="M0 0 C-2.407 2.407 -4.114 2.791 -7.375 3.688 C-7.853 3.823 -7.853 3.823 -10.273 4.512 C-12.971 4.995 -14.45 4.9 -17 4 C-10.998 1.345 -6.654 -0.151 0 0 Z " fill="#FAD433" transform="translate(87,77)"/>
<path d="M0 0 C8.193 0.35 8.193 0.35 11.562 3.062 C12.037 3.702 12.511 4.341 13 5 C8.027 4.503 4.362 3.447 0 1 C0 0.67 0 0.34 0 0 Z " fill="#CCB20D" transform="translate(93,121)"/>
<path d="M0 0 C0.33 1.32 0.66 2.64 1 4 C-1.31 4 -3.62 4 -6 4 C-6 2.68 -6 1.36 -6 0 C-3.509 -1.245 -2.589 -0.777 0 0 Z " fill="#F7A70B" transform="translate(131,74)"/>
<path d="M0 0 C-4.625 3 -4.625 3 -8 3 C-8.66 4.32 -9.32 5.64 -10 7 C-11.32 6.67 -12.64 6.34 -14 6 C-12.71 5.019 -11.418 4.04 -10.125 3.062 C-9.765 2.79 -9.765 2.79 -7.945 1.41 C-4.797 -0.872 -3.688 -1.106 0 0 Z " fill="#D57E07" transform="translate(135,60)"/>
<path d="M0 0 C2.962 0.613 4.381 1.254 7 3 C7.99 3.33 8.98 3.66 10 4 C9.67 4.99 9.34 5.98 9 7 C2.298 5.064 2.298 5.064 0 2 C0 1.34 0 0.68 0 0 Z " fill="#39592F" transform="translate(116,20)"/>
<path d="M0 0 C3.039 0.461 3.039 0.461 6.625 1.375 C7.814 1.671 9.002 1.968 10.227 2.273 C11.142 2.513 12.057 2.753 13 3 C12.34 3.66 11.68 4.32 11 5 C6.241 4.688 2.351 4.039 -2 2 C-1.34 1.34 -0.68 0.68 0 0 Z " fill="#E1D5B0" transform="translate(83,128)"/>
<path d="M0 0 C1.675 0.286 3.344 0.618 5 1 C5 1.99 5 2.98 5 4 C2 6 2 6 -1 6 C-1.043 4.334 -1.041 2.666 -1 1 C-0.67 0.67 -0.34 0.34 0 0 Z " fill="#5F7C3F" transform="translate(74,47)"/>
<path d="M0 0 C-4.022 2.968 -7.001 4.524 -12 5 C-10.151 1.737 -9.046 1.017 -5.438 -0.312 C-2 -1 -2 -1 0 0 Z " fill="#30571F" transform="translate(141,123)"/>
<path d="M0 0 C0.66 0 1.32 0 2 0 C3.289 1.75 3.289 1.75 4.625 4 C5.071 4.742 5.517 5.485 5.977 6.25 C6.314 6.828 6.652 7.405 7 8 C6.01 8.33 5.02 8.66 4 9 C0.062 5.677 0.062 5.677 -0.25 2.25 C-0.168 1.508 -0.085 0.765 0 0 Z " fill="#3C5A2A" transform="translate(80,31)"/>
<path d="M0 0 C0.598 0.206 1.196 0.412 1.812 0.625 C0.523 2.001 -0.814 3.333 -2.188 4.625 C-2.847 4.625 -3.507 4.625 -4.188 4.625 C-4.188 5.285 -4.188 5.945 -4.188 6.625 C-4.847 6.625 -5.507 6.625 -6.188 6.625 C-5.875 4.25 -5.875 4.25 -5.188 1.625 C-2.188 -0.375 -2.188 -0.375 0 0 Z " fill="#BF5802" transform="translate(102.1875,81.375)"/>
<path d="M0 0 C0.66 0.33 1.32 0.66 2 1 C1.711 1.536 1.422 2.072 1.125 2.625 C-0.167 5.353 -1.086 8.126 -2 11 C-2.99 10.67 -3.98 10.34 -5 10 C-4.497 5.599 -2.912 3.288 0 0 Z " fill="#597940" transform="translate(43,39)"/>
<path d="M0 0 C2.125 0.375 2.125 0.375 4 1 C3.67 1.33 3.34 1.66 3 2 C3.66 2.66 4.32 3.32 5 4 C2.647 5.177 1.119 5.166 -1.5 5.188 C-2.294 5.202 -3.088 5.216 -3.906 5.23 C-6 5 -6 5 -8 3 C-7.526 2.938 -7.526 2.938 -5.125 2.625 C-2 2 -2 2 0 0 Z " fill="#4A673A" transform="translate(92,8)"/>
<path d="M0 0 C3 0 3 0 6 2 C6 2.99 6 3.98 6 5 C2.527 6.158 -0.361 6.069 -4 6 C-4 5.67 -4 5.34 -4 5 C-2.02 5 -0.04 5 2 5 C1.34 3.35 0.68 1.7 0 0 Z " fill="#1E3A18" transform="translate(61,111)"/>
<path d="M0 0 C0.33 0 0.66 0 1 0 C1 2.31 1 4.62 1 7 C0.67 7.165 0.67 7.165 -1 8 C-1.66 7.34 -2.32 6.68 -3 6 C-3.99 7.32 -4.98 8.64 -6 10 C-6 8.02 -6 6.04 -6 4 C-5.598 3.856 -5.598 3.856 -3.562 3.125 C-1 2 -1 2 0 0 Z " fill="#A87C1F" transform="translate(85,14)"/>
<path d="M0 0 C4.714 0.479 8.666 0.968 13 3 C13 3.33 13 3.66 13 4 C11.397 4.108 9.793 4.186 8.188 4.25 C7.294 4.296 6.401 4.343 5.48 4.391 C3 4 3 4 1.176 1.984 C0.788 1.33 0.4 0.675 0 0 Z " fill="#36512D" transform="translate(93,9)"/>
<path d="M0 0 C0.66 0 1.32 0 2 0 C1.493 3.719 0.884 6.735 -1 10 C-1.33 10 -1.66 10 -2 10 C-2.25 3.375 -2.25 3.375 0 0 Z " fill="#668344" transform="translate(39,53)"/>
<path d="M0 0 C-1 3 -1 3 -2.875 4.25 C-5 5 -5 5 -8 4 C-8.33 3.34 -8.66 2.68 -9 2 C-5.865 0.142 -3.625 -0.201 0 0 Z " fill="#6D884B" transform="translate(49,23)"/>
<path d="M0 0 C0.99 0 1.98 0 3 0 C3 1.98 3 3.96 3 6 C1.68 6.33 0.36 6.66 -1 7 C-1.043 5 -1.041 3 -1 1 C-0.67 0.67 -0.34 0.34 0 0 Z " fill="#FCA905" transform="translate(107,89)"/>
<path d="M0 0 C1.32 0 2.64 0 4 0 C3.67 1.98 3.34 3.96 3 6 C2.01 6.33 1.02 6.66 0 7 C0 4.69 0 2.38 0 0 Z " fill="#648346" transform="translate(61,61)"/>
<path d="M0 0 C0.66 0 1.32 0 2 0 C2.39 1.6 2.762 3.206 3.125 4.812 C3.334 5.706 3.543 6.599 3.758 7.52 C4 10 4 10 2 13 C1.661 11.585 1.329 10.168 1 8.75 C0.814 7.961 0.629 7.172 0.438 6.359 C0 4 0 4 0 0 Z " fill="#304D24" transform="translate(91,49)"/>
<path d="M0 0 C0.33 0 0.66 0 1 0 C1.249 2.77 1.475 5.539 1.688 8.312 C1.76 9.098 1.833 9.884 1.908 10.693 C1.963 11.451 2.018 12.208 2.074 12.988 C2.132 13.685 2.189 14.381 2.249 15.099 C2 17 2 17 -1 20 C-0.67 13.4 -0.34 6.8 0 0 Z " fill="#A8BEA6" transform="translate(161,78)"/>
<path d="M0 0 C2.343 0.256 4.678 0.593 7 1 C7.33 1.66 7.66 2.32 8 3 C7.34 3 6.68 3 6 3 C6 3.66 6 4.32 6 5 C4.125 4.75 4.125 4.75 2 4 C0.75 1.938 0.75 1.938 0 0 Z " fill="#FCC625" transform="translate(122,82)"/>
<path d="M0 0 C0.33 1.32 0.66 2.64 1 4 C-2.058 4.544 -4.888 5 -8 5 C-8 4.34 -8 3.68 -8 3 C-2.25 0 -2.25 0 0 0 Z " fill="#527539" transform="translate(57,31)"/>
<path d="M0 0 C2.884 1.442 4.765 3.706 7 6 C2.781 5.521 0.203 4.834 -3 2 C-2.01 1.34 -1.02 0.68 0 0 Z " fill="#41612E" transform="translate(94,24)"/>
<path d="M0 0 C0.33 0 0.66 0 1 0 C1.33 1.65 1.66 3.3 2 5 C2.66 4.34 3.32 3.68 4 3 C4 4.65 4 6.3 4 8 C2.35 7.67 0.7 7.34 -1 7 C-0.67 4.69 -0.34 2.38 0 0 Z " fill="#536B3E" transform="translate(137,49)"/>
<path d="M0 0 C0.66 0.99 1.32 1.98 2 3 C1.34 3 0.68 3 0 3 C-0.66 4.32 -1.32 5.64 -2 7 C-2.66 7 -3.32 7 -4 7 C-3.688 4.625 -3.688 4.625 -3 2 C-2.01 1.34 -1.02 0.68 0 0 Z " fill="#76904F" transform="translate(34,34)"/>
<path d="M0 0 C3.63 0 7.26 0 11 0 C11.33 0.99 11.66 1.98 12 3 C10.02 3 8.04 3 6 3 C6 2.34 6 1.68 6 1 C4.02 1 2.04 1 0 1 C0 0.67 0 0.34 0 0 Z " fill="#1E4E1D" transform="translate(108,128)"/>
<path d="M0 0 C1.32 0 2.64 0 4 0 C3.67 1.32 3.34 2.64 3 4 C2.402 4.124 1.804 4.248 1.188 4.375 C-1 5 -1 5 -4 7 C-2.926 4.085 -2.222 2.222 0 0 Z " fill="#607E43" transform="translate(23,43)"/>
<path d="M0 0 C0.66 0.66 1.32 1.32 2 2 C1.175 3.32 1.175 3.32 -3 10 C-4 6 -4 6 -2.062 2.75 C-1.382 1.843 -0.701 0.935 0 0 Z " fill="#325131" transform="translate(23,35)"/>
<path d="M0 0 C0.66 1.32 1.32 2.64 2 4 C0.35 5.65 -1.3 7.3 -3 9 C-2.443 5.656 -1.648 2.967 0 0 Z " fill="#3D6418" transform="translate(154,104)"/>
<path d="M0 0 C0.33 0.66 0.66 1.32 1 2 C-0.98 2.99 -2.96 3.98 -5 5 C-4.67 5.66 -4.34 6.32 -4 7 C-4.99 7 -5.98 7 -7 7 C-7.33 5.68 -7.66 4.36 -8 3 C-5.36 2.01 -2.72 1.02 0 0 Z " fill="#526F3A" transform="translate(54,13)"/>
<path d="M0 0 C1.65 0 3.3 0 5 0 C4.34 1.65 3.68 3.3 3 5 C1.68 4.34 0.36 3.68 -1 3 C-0.67 2.01 -0.34 1.02 0 0 Z " fill="#57753E" transform="translate(95,15)"/>
<path d="M0 0 C5.75 0.75 5.75 0.75 8 3 C5.125 3.625 5.125 3.625 2 4 C1.34 3.34 0.68 2.68 0 2 C0 1.34 0 0.68 0 0 Z " fill="#DCAB41" transform="translate(75,12)"/>
<path d="M0 0 C0 0.99 0 1.98 0 3 C-2.31 3 -4.62 3 -7 3 C-7.33 2.34 -7.66 1.68 -8 1 C-5.108 0.174 -3.113 0 0 0 Z " fill="#E4D4AC" transform="translate(128,130)"/>
<path d="M0 0 C0.66 0.33 1.32 0.66 2 1 C2 1.66 2 2.32 2 3 C0.515 3.165 0.515 3.165 -7 4 C-7 3.01 -7 2.02 -7 1 C-4.69 1.33 -2.38 1.66 0 2 C0 1.34 0 0.68 0 0 Z " fill="#304C28" transform="translate(61,113)"/>
<path d="M0 0 C0.33 0 0.66 0 1 0 C1 2.31 1 4.62 1 7 C-0.32 6.67 -1.64 6.34 -3 6 C-3 5.01 -3 4.02 -3 3 C-2.01 3 -1.02 3 0 3 C0 2.01 0 1.02 0 0 Z " fill="#F9A303" transform="translate(121,90)"/>
<path d="M0 0 C2.31 0 4.62 0 7 0 C7 0.66 7 1.32 7 2 C4.69 2.33 2.38 2.66 0 3 C0 2.01 0 1.02 0 0 Z " fill="#F8B30D" transform="translate(93,76)"/>
<path d="M0 0 C0.33 0 0.66 0 1 0 C1.213 4.468 0.591 7.823 -1 12 C-1.33 12 -1.66 12 -2 12 C-2.054 10.563 -2.093 9.125 -2.125 7.688 C-2.148 6.887 -2.171 6.086 -2.195 5.262 C-2 3 -2 3 0 0 Z " fill="#3F5F2F" transform="translate(27,67)"/>
<path d="M0 0 C0.485 0.01 0.485 0.01 2.938 0.062 C2.278 0.392 2.278 0.392 -1.062 2.062 C-0.732 3.383 -0.403 4.703 -0.062 6.062 C-0.722 6.062 -1.382 6.062 -2.062 6.062 C-2.722 4.412 -3.382 2.763 -4.062 1.062 C-3.062 0.062 -3.062 0.062 0 0 Z " fill="#FCCC2B" transform="translate(136.0625,59.9375)"/>
<path d="M0 0 C0.66 0.66 1.32 1.32 2 2 C1.625 4.625 1.625 4.625 1 7 C1.66 7.33 2.32 7.66 3 8 C1.68 8.33 0.36 8.66 -1 9 C-0.67 6.03 -0.34 3.06 0 0 Z " fill="#DB7802" transform="translate(110,90)"/>
<path d="M0 0 C0.99 0.33 1.98 0.66 3 1 C4.062 3.375 4.062 3.375 5 6 C5.33 6.495 5.33 6.495 7 9 C6.01 9 5.02 9 4 9 C0 2.25 0 2.25 0 0 Z " fill="#DD7000" transform="translate(121,84)"/>
<path d="M0 0 C1.735 2.603 2.611 3.987 3 7 C2.34 7.66 1.68 8.32 1 9 C-0.619 6.428 -1.044 5.323 -0.625 2.25 C-0.419 1.507 -0.212 0.765 0 0 Z " fill="#34502F" transform="translate(19,83)"/>
<path d="M0 0 C-3.203 2.834 -5.781 3.521 -10 4 C-7.161 -0.258 -4.814 -0.13 0 0 Z " fill="#4A5326" transform="translate(83,74)"/>
<path d="M0 0 C2.375 0.188 2.375 0.188 5 1 C6.312 3.562 6.312 3.562 7 6 C6.01 6 5.02 6 4 6 C3.67 4.35 3.34 2.7 3 1 C2.01 0.67 1.02 0.34 0 0 Z " fill="#D4B20C" transform="translate(147,56)"/>
<path d="M0 0 C0.66 0 1.32 0 2 0 C1.502 3.735 1.125 5.812 -1 9 C-1.125 2.25 -1.125 2.25 0 0 Z " fill="#324F30" transform="translate(17,46)"/>
<path d="M0 0 C0.66 0 1.32 0 2 0 C0.375 5.75 0.375 5.75 -3 8 C-3 4.401 -2.042 2.905 0 0 Z " fill="#59773F" transform="translate(53,39)"/>
<path d="M0 0 C2 1 2 1 4 4 C1.69 4 -0.62 4 -3 4 C-2.67 3.01 -2.34 2.02 -2 1 C-1.34 0.67 -0.68 0.34 0 0 Z " fill="#4B6D38" transform="translate(93,16)"/>
</svg>
