<?xml version="1.0" encoding="UTF-8"?>
<!-- Generator: visioncortex VTracer 0.6.12 -->
<svg version="1.1" xmlns="http://www.w3.org/2000/svg" width="164" height="170">
<path d="M0 0 C54.12 0 108.24 0 164 0 C164 56.1 164 112.2 164 170 C109.88 170 55.76 170 0 170 C0 113.9 0 57.8 0 0 Z " fill="#FCF7EC" transform="translate(0,0)"/>
<path d="M0 0 C1.165 -0.001 2.331 -0.003 3.531 -0.004 C4.758 -0 5.986 0.004 7.25 0.008 C7.864 0.006 7.864 0.006 10.969 -0.004 C11.551 -0.003 11.551 -0.003 14.5 0 C15.578 0.001 16.655 0.002 17.766 0.003 C20.25 0.133 20.25 0.133 21.25 1.133 C21.25 3.773 21.25 6.413 21.25 9.133 C27.52 9.133 33.79 9.133 40.25 9.133 C40.678 24.1 40.678 24.1 37.25 30.133 C36.081 32.471 36.187 33.682 36.293 36.273 C36.304 36.685 36.304 36.685 36.357 38.77 C36.41 40.497 36.475 42.223 36.553 43.949 C36.672 49.615 35.92 52.568 32.25 57.133 C31.534 58.779 30.847 60.44 30.25 62.133 C36.298 56.244 37.668 52.371 38.285 44.201 C38.779 39.221 40.013 36.121 43.25 32.133 C44.261 31.473 45.271 30.813 46.312 30.133 C49.874 27.708 50.824 26.185 52.25 22.133 C52.588 19.552 52.81 17.001 52.941 14.402 C53.25 12.133 53.25 12.133 55.25 9.133 C65.474 8.978 74.191 12.789 83.25 17.133 C85.25 19.133 85.25 19.133 85.312 21.383 C83.943 24.928 81.89 26.316 78.98 28.656 C76.715 30.589 75.345 32.359 74.25 35.133 C75.007 37.632 76.138 39.008 77.875 40.945 C80.032 44.377 80.047 46.146 79.25 50.133 C77.075 52.351 74.737 54.257 72.336 56.227 C70.25 58.133 70.25 58.133 68.938 61.195 C69.291 64.519 70.543 66.547 72.305 69.344 C73.939 72.437 73.805 74.739 73.25 78.133 C70.131 83.163 66.472 85.416 61.238 88.055 C59.25 89.133 59.25 89.133 57.25 91.133 C57.23 93.742 57.23 93.742 57.438 96.883 C57.543 103.655 57.543 103.655 55.125 106.633 C52.294 109.095 49.446 111.172 46.25 113.133 C45.92 113.463 45.59 113.793 45.25 114.133 C45.309 116.363 45.398 118.592 45.5 120.82 C45.549 128.795 45.549 128.795 43.125 131.82 C40.269 134.117 37.514 135.501 34.25 137.133 C32.381 139.027 30.86 141.002 29.25 143.133 C24.495 142.556 21.28 140.582 17.25 138.133 C17.106 138.917 16.961 139.7 16.812 140.508 C16.25 143.133 16.25 143.133 15.25 145.133 C11.253 145.533 8.809 145.06 5.375 143.133 C1.942 141.278 -0.327 141.014 -4.266 141.25 C-7.818 141.082 -11.145 140.176 -14.562 139.258 C-15.221 139.084 -15.88 138.91 -16.559 138.73 C-19.72 137.852 -21.993 136.97 -24.75 135.133 C-24.75 134.143 -24.75 133.153 -24.75 132.133 C-28.05 131.803 -31.35 131.473 -34.75 131.133 C-35.562 129.133 -35.562 129.133 -35.75 126.133 C-34.703 124.23 -34.703 124.23 -33.312 122.195 C-30.919 118.641 -29.989 116.508 -30.75 112.133 C-31.245 111.143 -31.74 110.153 -32.25 109.133 C-33.988 105.656 -34.376 103.965 -33.75 100.133 C-32.625 98.445 -32.625 98.445 -31.25 96.695 C-29.161 94 -28.75 93.13 -28.25 89.57 C-28.75 86.133 -28.75 86.133 -30.25 83.195 C-32.089 79.441 -32.642 76.201 -31.75 72.133 C-30.625 70.418 -30.625 70.418 -29.25 68.758 C-26.216 65.047 -26.291 61.937 -26.477 57.27 C-26.75 55.133 -26.75 55.133 -27.75 53.133 C-28.35 45.936 -28.35 45.936 -25.738 42.438 C-23.121 38.087 -23.359 34.957 -23.625 30.008 C-23.694 28.422 -23.754 26.836 -23.805 25.25 C-23.841 24.555 -23.877 23.86 -23.914 23.144 C-23.75 21.133 -23.75 21.133 -21.75 17.133 C-16.14 17.463 -10.53 17.793 -4.75 18.133 C-5.08 16.442 -5.41 14.75 -5.75 13.008 C-6.479 8.995 -7.073 5.226 -6.75 1.133 C-4.976 -0.642 -2.4 0.003 0 0 Z " fill="#335E0E" transform="translate(53.75,8.8671875)"/>
<path d="M0 0 C1.165 -0.001 2.331 -0.003 3.531 -0.004 C4.758 -0 5.986 0.004 7.25 0.008 C7.864 0.006 7.864 0.006 10.969 -0.004 C11.551 -0.003 11.551 -0.003 14.5 0 C15.578 0.001 16.655 0.002 17.766 0.003 C20.25 0.133 20.25 0.133 21.25 1.133 C21.25 3.773 21.25 6.413 21.25 9.133 C27.52 9.133 33.79 9.133 40.25 9.133 C40.25 12.433 40.25 15.733 40.25 19.133 C39.92 19.133 39.59 19.133 39.25 19.133 C39.25 16.493 39.25 13.853 39.25 11.133 C35.62 11.133 31.99 11.133 28.25 11.133 C28.187 11.782 28.187 11.782 27.867 15.07 C27.336 19.84 26.419 24.453 25.375 29.133 C23.998 35.514 22.671 41.898 21.5 48.32 C21.436 48.655 21.436 48.655 21.114 50.35 C20.502 53.779 20.201 57.043 20.258 60.516 C20.25 64.133 20.25 64.133 18.875 65.82 C18.339 66.253 17.803 66.687 17.25 67.133 C14.851 71.789 14.182 77.025 13.25 82.133 C13.91 82.133 14.57 82.133 15.25 82.133 C15.58 82.793 15.91 83.453 16.25 84.133 C17.24 83.803 18.23 83.473 19.25 83.133 C19.25 82.473 19.25 81.813 19.25 81.133 C19.91 80.803 20.57 80.473 21.25 80.133 C23.732 76.08 24.427 71.489 25.469 66.91 C26.25 64.133 26.25 64.133 28.25 61.133 C28.25 62.123 28.25 63.113 28.25 64.133 C28.91 64.463 29.57 64.793 30.25 65.133 C29.783 65.65 29.317 66.167 28.836 66.699 C26.253 70.663 26.029 75.112 25.289 79.723 C23.867 84.39 21.173 86.576 17.465 89.578 C15.62 91.939 15.875 94.06 15.812 97.008 C15.578 100.902 15.451 102.794 13.438 106.195 C11.25 108.133 11.25 108.133 9.176 109.418 C6.635 111.681 6.616 113.171 6.25 116.508 C5.558 121.152 4.71 123.777 1.25 127.133 C0.249 128.132 -0.751 129.131 -1.75 130.133 C-2.696 122.568 -2.696 122.568 -0.414 119.105 C0.135 118.475 0.684 117.845 1.25 117.195 C4.539 113.301 4.897 110.537 4.598 105.52 C4.128 102.298 3.151 99.257 2.25 96.133 C2.345 91.878 3.793 89.084 5.812 85.445 C9.972 77.463 8.707 70.486 6.25 62.133 C6.53 57.369 7.264 56.114 10.25 52.133 C9.59 56.423 8.93 60.713 8.25 65.133 C8.91 65.133 9.57 65.133 10.25 65.133 C12.185 60.052 12.99 55.889 11.562 50.57 C11.25 48.133 11.25 48.133 12.719 45.875 C14.555 42.587 14.561 40.553 14.438 36.82 C14.41 35.752 14.383 34.683 14.355 33.582 C14.338 33.178 14.338 33.178 14.25 31.133 C14.91 30.803 15.57 30.473 16.25 30.133 C16.699 28.32 16.699 28.32 16.938 26.133 C17.024 25.411 17.11 24.689 17.199 23.945 C17.216 23.347 17.233 22.749 17.25 22.133 C16.92 21.803 16.59 21.473 16.25 21.133 C15.59 24.103 14.93 27.073 14.25 30.133 C13.59 29.803 12.93 29.473 12.25 29.133 C12.25 25.173 12.25 21.213 12.25 17.133 C11.59 17.463 11.59 17.463 8.25 19.133 C8.58 13.853 8.91 8.573 9.25 3.133 C8.26 3.133 7.27 3.133 6.25 3.133 C6.23 3.823 6.21 4.514 6.19 5.225 C6.094 8.382 5.985 11.539 5.875 14.695 C5.86 15.238 5.86 15.238 5.781 17.986 C5.573 23.702 5.158 28.728 3.25 34.133 C2.59 34.133 1.93 34.133 1.25 34.133 C1.213 35.062 1.175 35.992 1.137 36.949 C0.484 49.228 0.484 49.228 -2.75 55.133 C-3.08 54.473 -3.41 53.813 -3.75 53.133 C-4.41 53.133 -5.07 53.133 -5.75 53.133 C-5.75 54.123 -5.75 55.113 -5.75 56.133 C-6.41 56.133 -7.07 56.133 -7.75 56.133 C-7.502 57.205 -7.255 58.278 -7 59.383 C-6.75 63.133 -6.75 63.133 -8.5 65.195 C-9.242 65.835 -9.985 66.474 -10.75 67.133 C-11.266 68.185 -11.781 69.237 -12.312 70.32 C-13.75 73.133 -13.75 73.133 -16.75 74.133 C-16.75 73.143 -16.75 72.153 -16.75 71.133 C-17.41 71.133 -18.07 71.133 -18.75 71.133 C-19.08 72.783 -19.41 74.433 -19.75 76.133 C-19.255 75.968 -19.255 75.968 -16.75 75.133 C-16.75 76.123 -16.75 77.113 -16.75 78.133 C-16.09 78.133 -15.43 78.133 -14.75 78.133 C-14.75 76.813 -14.75 75.493 -14.75 74.133 C-11.78 74.133 -8.81 74.133 -5.75 74.133 C-5.75 78.093 -5.75 82.053 -5.75 86.133 C-6.74 86.133 -7.73 86.133 -8.75 86.133 C-8.75 86.793 -8.75 87.453 -8.75 88.133 C-9.245 87.968 -9.245 87.968 -11.75 87.133 C-11.738 87.976 -11.727 88.819 -11.715 89.688 C-11.706 90.783 -11.697 91.879 -11.688 93.008 C-11.676 94.098 -11.664 95.189 -11.652 96.312 C-11.75 99.133 -11.75 99.133 -12.75 101.133 C-12.976 102.836 -13.159 104.546 -13.312 106.258 C-13.396 107.168 -13.48 108.078 -13.566 109.016 C-13.597 109.365 -13.597 109.365 -13.75 111.133 C-14.08 111.133 -14.41 111.133 -14.75 111.133 C-14.777 109.341 -14.796 107.55 -14.812 105.758 C-14.824 104.76 -14.836 103.762 -14.848 102.734 C-14.75 100.133 -14.75 100.133 -13.75 98.133 C-14.41 98.133 -15.07 98.133 -15.75 98.133 C-16.565 103.803 -17.118 107.804 -14.75 113.133 C-15.058 119.754 -18.076 126.187 -21.312 131.883 C-25.622 134.093 -30.226 132.287 -34.75 131.133 C-36.031 126.706 -36.031 126.706 -34.754 124.105 C-34.278 123.475 -33.803 122.845 -33.312 122.195 C-30.919 118.641 -29.989 116.508 -30.75 112.133 C-31.245 111.143 -31.74 110.153 -32.25 109.133 C-33.988 105.656 -34.376 103.965 -33.75 100.133 C-32.625 98.445 -32.625 98.445 -31.25 96.695 C-29.161 94 -28.75 93.13 -28.25 89.57 C-28.75 86.133 -28.75 86.133 -30.25 83.195 C-32.089 79.441 -32.642 76.201 -31.75 72.133 C-30.625 70.418 -30.625 70.418 -29.25 68.758 C-26.216 65.047 -26.291 61.937 -26.477 57.27 C-26.75 55.133 -26.75 55.133 -27.75 53.133 C-28.35 45.936 -28.35 45.936 -25.738 42.438 C-23.121 38.087 -23.359 34.957 -23.625 30.008 C-23.694 28.422 -23.754 26.836 -23.805 25.25 C-23.841 24.555 -23.877 23.86 -23.914 23.144 C-23.75 21.133 -23.75 21.133 -21.75 17.133 C-16.14 17.463 -10.53 17.793 -4.75 18.133 C-5.08 16.442 -5.41 14.75 -5.75 13.008 C-6.479 8.995 -7.073 5.226 -6.75 1.133 C-4.976 -0.642 -2.4 0.003 0 0 Z " fill="#2A5008" transform="translate(53.75,8.8671875)"/>
<path d="M0 0 C0.165 0.495 0.165 0.495 1 3 C2.023 5.264 2.959 6.954 4.625 8.812 C6.782 12.244 6.797 14.014 6 18 C3.825 20.218 1.487 22.124 -0.914 24.094 C-3 26 -3 26 -4.312 29.062 C-3.959 32.386 -2.707 34.414 -0.945 37.211 C0.689 40.304 0.555 42.606 0 46 C-3.119 51.03 -6.778 53.283 -12.012 55.922 C-14 57 -14 57 -16 59 C-16.02 61.609 -16.02 61.609 -15.812 64.75 C-15.707 71.522 -15.707 71.522 -18.125 74.5 C-20.956 76.962 -23.804 79.039 -27 81 C-27.33 81.33 -27.66 81.66 -28 82 C-27.941 84.23 -27.852 86.459 -27.75 88.688 C-27.701 96.662 -27.701 96.662 -30.125 99.688 C-32.981 101.985 -35.736 103.368 -39 105 C-40.869 106.894 -42.39 108.869 -44 111 C-47.941 110.437 -50.751 109.321 -54 107 C-54 106.34 -54 105.68 -54 105 C-54.99 105 -55.98 105 -57 105 C-56.25 97.25 -56.25 97.25 -54 95 C-54 95.99 -54 96.98 -54 98 C-51.69 96.35 -49.38 94.7 -47 93 C-47.99 92.34 -48.98 91.68 -50 91 C-49.196 90.567 -48.391 90.134 -47.562 89.688 C-44.117 86.074 -44.478 83.449 -44.215 78.621 C-43.936 75.221 -43.308 73.532 -41 71 C-38.989 69.669 -36.964 68.452 -34.84 67.309 C-32.557 65.685 -31.936 64.641 -31 62 C-30.436 58.38 -30.05 54.76 -29.66 51.117 C-29 48 -29 48 -26 46 C-26.33 48.31 -26.66 50.62 -27 53 C-26.662 52.495 -26.325 51.989 -25.977 51.469 C-25.531 50.819 -25.085 50.169 -24.625 49.5 C-24.184 48.85 -23.743 48.201 -23.289 47.531 C-22.864 47.026 -22.438 46.521 -22 46 C-21.34 46 -20.68 46 -20 46 C-20 45.01 -20 44.02 -20 43 C-20.33 42.835 -20.33 42.835 -22 42 C-21.01 41.34 -20.02 40.68 -19 40 C-18.41 37.828 -18.41 37.828 -18.062 35.25 C-16.859 28.549 -14.324 24.85 -8.875 20.812 C-8.192 20.345 -7.509 19.877 -6.805 19.395 C-5 18 -5 18 -3 15 C-2.656 12.187 -2.656 12.187 -2.5 9 C-2.222 3.333 -2.222 3.333 0 0 Z " fill="#254E10" transform="translate(127,41)"/>
<path d="M0 0 C0.99 0 1.98 0 3 0 C3 4.95 3 9.9 3 15 C4.32 14.34 5.64 13.68 7 13 C7 17.29 7 21.58 7 26 C7.289 24.701 7.578 23.401 7.875 22.062 C8.367 19.848 8.367 19.848 9 18 C9.66 17.67 10.32 17.34 11 17 C12.231 23.4 12.231 23.4 11.062 26.438 C10.887 26.695 10.887 26.695 10 28 C9.34 28 8.68 28 8 28 C8.165 28.33 8.165 28.33 9 30 C9.805 38.745 9.805 38.745 7.438 42.438 C5.348 46.163 6.34 49.192 6.871 53.328 C7.042 56.88 5.967 59.088 4 62 C3.34 62 2.68 62 2 62 C2 59.36 2 56.72 2 54 C0.829 57.865 1.326 60.145 2.496 63.934 C4.227 71.03 3.594 76.446 -0.062 82.75 C-4.122 89.976 -3.198 96.028 -2 104 C-2.603 103.683 -3.207 103.366 -3.828 103.039 C-6.208 101.901 -8.407 101.432 -11 101 C-10.67 99.68 -10.34 98.36 -10 97 C-9.34 97 -8.68 97 -8 97 C-8 96.34 -8 95.68 -8 95 C-8.66 95.165 -8.66 95.165 -12 96 C-12.33 95.01 -12.66 94.02 -13 93 C-13.33 95.31 -13.66 97.62 -14 100 C-14.825 100.165 -14.825 100.165 -19 101 C-19 103.31 -19 105.62 -19 108 C-19.33 108 -19.66 108 -20 108 C-20.027 106.375 -20.046 104.75 -20.062 103.125 C-20.074 102.22 -20.086 101.315 -20.098 100.383 C-20 98 -20 98 -19 96 C-18.929 93.793 -18.916 91.583 -18.938 89.375 C-18.947 88.186 -18.956 86.998 -18.965 85.773 C-18.976 84.858 -18.988 83.943 -19 83 C-17.68 83.66 -16.36 84.32 -15 85 C-15 84.34 -15 83.68 -15 83 C-14.01 83 -13.02 83 -12 83 C-12 79.04 -12 75.08 -12 71 C-14.97 71 -17.94 71 -21 71 C-21 72.32 -21 73.64 -21 75 C-21.66 75 -22.32 75 -23 75 C-23.33 74.34 -23.66 73.68 -24 73 C-24.66 73 -25.32 73 -26 73 C-25.67 71.35 -25.34 69.7 -25 68 C-24.278 68.165 -23.556 68.33 -22.812 68.5 C-20 68 -20 68 -18.625 66.219 C-17.755 64.748 -16.917 63.258 -16.113 61.75 C-15.93 61.461 -15.93 61.461 -15 60 C-14.34 60 -13.68 60 -13 60 C-13.33 57.69 -13.66 55.38 -14 53 C-13.34 53 -12.68 53 -12 53 C-12 52.01 -12 51.02 -12 50 C-11.01 50.33 -10.02 50.66 -9 51 C-7.371 46.552 -6.495 42.317 -5.875 37.625 C-5.707 36.38 -5.54 35.135 -5.367 33.852 C-5.246 32.911 -5.125 31.97 -5 31 C-4.34 31 -3.68 31 -3 31 C-3.021 30.031 -3.041 29.061 -3.062 28.062 C-3 25 -3 25 -2 24 C-1.856 22.645 -1.773 21.283 -1.719 19.922 C-1.681 19.09 -1.644 18.259 -1.605 17.402 C-1.571 16.527 -1.536 15.652 -1.5 14.75 C-1.079 4.352 -1.079 4.352 0 0 Z M-22 95 C-21.34 95 -20.68 95 -20 95 C-20 102.26 -20 109.52 -20 117 C-22.215 113.678 -22.492 111.921 -23 108 C-23.116 107.257 -23.232 106.515 -23.352 105.75 C-23.462 104.966 -23.573 104.183 -23.688 103.375 C-23.794 102.64 -23.901 101.905 -24.012 101.148 C-23.998 98.607 -23.279 97.166 -22 95 Z " fill="#4B7311" transform="translate(60,12)"/>
<path d="M0 0 C0.66 0 1.32 0 2 0 C2 56.1 2 112.2 2 170 C-52.12 170 -106.24 170 -162 170 C-162 167.69 -162 165.38 -162 163 C-161.01 163.33 -160.02 163.66 -159 164 C-156.957 164.098 -154.91 164.135 -152.864 164.14 C-151.58 164.146 -150.296 164.152 -148.973 164.158 C-147.546 164.159 -146.12 164.16 -144.694 164.161 C-143.194 164.166 -141.694 164.171 -140.195 164.176 C-136.118 164.189 -132.042 164.196 -127.965 164.2 C-125.419 164.203 -122.873 164.207 -120.326 164.212 C-112.36 164.225 -104.395 164.235 -96.429 164.239 C-87.231 164.243 -78.033 164.261 -68.836 164.29 C-61.727 164.312 -54.619 164.322 -47.51 164.323 C-43.264 164.324 -39.018 164.33 -34.772 164.348 C-30.778 164.364 -26.784 164.366 -22.79 164.358 C-21.325 164.357 -19.859 164.361 -18.394 164.371 C-16.393 164.384 -14.391 164.376 -12.39 164.367 C-11.83 164.368 -11.83 164.368 -8.996 164.372 C-5.574 163.947 -3.69 163.146 -1 161 C-0.459 157.956 -0.279 155.46 -0.293 152.402 C-0.278 151.473 -0.263 150.544 -0.247 149.587 C-0.202 146.37 -0.195 143.154 -0.188 139.938 C-0.164 137.618 -0.14 135.298 -0.114 132.978 C-0.037 124.921 -0.017 116.864 -0.004 108.807 C0 105.786 0.006 102.765 0.012 99.745 C0.078 66.496 0.061 33.248 0 0 Z " fill="#FDFDFC" transform="translate(162,0)"/>
<path d="M0 0 C0.33 0 0.66 0 1 0 C1 2.31 1 4.62 1 7 C7.27 7 13.54 7 20 7 C20 10.3 20 13.6 20 17 C19.67 17 19.34 17 19 17 C19 14.36 19 11.72 19 9 C15.37 9 11.74 9 8 9 C7.937 9.65 7.937 9.65 7.617 12.938 C7.086 17.707 6.169 22.32 5.125 27 C3.748 33.381 2.421 39.765 1.25 46.188 C1.186 46.522 1.186 46.522 0.864 48.217 C0.252 51.647 -0.049 54.911 0.008 58.383 C0 62 0 62 -1.375 63.688 C-1.911 64.121 -2.448 64.554 -3 65 C-5.399 69.656 -6.068 74.892 -7 80 C-6.34 80 -5.68 80 -5 80 C-4.835 80.33 -4.835 80.33 -4 82 C-3.505 81.835 -3.505 81.835 -1 81 C-1 80.34 -1 79.68 -1 79 C-0.67 78.835 -0.67 78.835 1 78 C3.482 73.948 4.177 69.356 5.219 64.777 C6 62 6 62 8 59 C8 59.99 8 60.98 8 62 C8.66 62.33 9.32 62.66 10 63 C9.767 63.258 9.767 63.258 8.586 64.566 C6.003 68.53 5.779 72.979 5.039 77.59 C3.617 82.257 0.923 84.443 -2.785 87.445 C-4.63 89.806 -4.375 91.927 -4.438 94.875 C-4.672 98.769 -4.799 100.661 -6.812 104.062 C-9 106 -9 106 -11.074 107.285 C-13.615 109.548 -13.634 111.038 -14 114.375 C-14.692 119.019 -15.54 121.645 -19 125 C-20.001 125.999 -21.001 126.999 -22 128 C-22.946 120.435 -22.946 120.435 -20.664 116.973 C-20.115 116.342 -19.566 115.712 -19 115.062 C-15.711 111.168 -15.353 108.404 -15.652 103.387 C-16.122 100.165 -17.099 97.125 -18 94 C-17.905 89.745 -16.457 86.951 -14.438 83.312 C-10.278 75.331 -11.543 68.353 -14 60 C-13.72 55.236 -12.986 53.981 -10 50 C-10.66 54.29 -11.32 58.58 -12 63 C-11.34 63 -10.68 63 -10 63 C-8.065 57.92 -7.26 53.757 -8.688 48.438 C-9 46 -9 46 -7.531 43.742 C-5.695 40.454 -5.689 38.42 -5.812 34.688 C-5.84 33.619 -5.867 32.55 -5.895 31.449 C-5.912 31.045 -5.912 31.045 -6 29 C-5.34 28.67 -4.68 28.34 -4 28 C-3.367 25.496 -3.367 25.496 -2.875 22.438 C-2.707 21.426 -2.54 20.414 -2.367 19.371 C-2.246 18.589 -2.125 17.806 -2 17 C-2.99 17 -3.98 17 -5 17 C-4.533 14.481 -3.937 12.906 -2.5 10.75 C-0.512 7.105 -0.349 4.124 0 0 Z " fill="#285008" transform="translate(74,11)"/>
<path d="M0 0 C1.084 0.005 2.168 0.01 3.285 0.016 C3.87 0.017 3.87 0.017 6.83 0.026 C8.062 0.034 9.293 0.042 10.562 0.051 C11.18 0.053 11.18 0.053 14.306 0.065 C17.371 0.077 20.435 0.093 23.5 0.114 C25.148 3.41 24.38 6.668 23.5 10.114 C22.033 13.245 20.336 16.186 18.5 19.114 C19.49 19.114 20.48 19.114 21.5 19.114 C21.335 19.609 21.335 19.609 20.5 22.114 C20.17 21.784 19.84 21.454 19.5 21.114 C18.84 24.084 18.18 27.054 17.5 30.114 C16.84 29.784 16.18 29.454 15.5 29.114 C15.5 25.154 15.5 21.194 15.5 17.114 C14.84 17.444 14.84 17.444 11.5 19.114 C11.83 13.834 12.16 8.554 12.5 3.114 C11.51 3.114 10.52 3.114 9.5 3.114 C9.48 3.804 9.46 4.494 9.44 5.206 C9.344 8.363 9.234 11.519 9.125 14.676 C9.109 15.219 9.109 15.219 9.031 17.967 C8.823 23.682 8.407 28.709 6.5 34.114 C5.84 34.114 5.18 34.114 4.5 34.114 C4.462 35.043 4.425 35.972 4.386 36.93 C3.733 49.208 3.733 49.208 0.5 55.114 C0.17 54.454 -0.16 53.794 -0.5 53.114 C-1.16 53.114 -1.82 53.114 -2.5 53.114 C-2.5 54.104 -2.5 55.094 -2.5 56.114 C-3.16 56.114 -3.82 56.114 -4.5 56.114 C-4.253 57.186 -4.005 58.259 -3.75 59.364 C-3.5 63.114 -3.5 63.114 -5.25 65.176 C-5.993 65.815 -6.735 66.455 -7.5 67.114 C-8.56 69.082 -9.575 71.078 -10.5 73.114 C-11.25 71.551 -11.25 71.551 -11.5 69.114 C-10.557 67.496 -9.608 65.882 -8.629 64.285 C-4.918 57.145 -4.153 49.845 -5.156 41.985 C-5.546 38.727 -5.724 35.518 -5.813 32.239 C-5.831 31.714 -5.831 31.714 -5.926 29.059 C-5.395 25.387 -3.927 23.852 -1.5 21.114 C-0.342 17.64 -0.432 14.753 -0.5 11.114 C-0.83 11.279 -0.83 11.279 -2.5 12.114 C-2.694 10.302 -2.88 8.489 -3.063 6.676 C-3.167 5.667 -3.272 4.657 -3.379 3.617 C-3.419 2.791 -3.459 1.965 -3.5 1.114 C-2.5 0.114 -2.5 0.114 0 0 Z " fill="#517A12" transform="translate(50.500244140625,8.886474609375)"/>
<path d="M0 0 C0.66 0.33 1.32 0.66 2 1 C2.5 7.128 1.282 10.028 -2 15 C-2.33 15.33 -2.66 15.66 -3 16 C-3.073 18.53 -3.092 21.033 -3.062 23.562 C-3.058 24.273 -3.053 24.984 -3.049 25.717 C-3.037 27.478 -3.019 29.239 -3 31 C-4.32 31.33 -5.64 31.66 -7 32 C-6.505 32.433 -6.01 32.866 -5.5 33.312 C-4 35 -4 35 -4 38 C-5.134 37.979 -6.269 37.959 -7.438 37.938 C-11 38 -11 38 -12 39 C-12.327 41.667 -12.612 44.327 -12.875 47 C-13.551 53.374 -14.605 59.012 -17 65 C-24.75 65.125 -24.75 65.125 -27 64 C-26.055 61.384 -25.244 59.289 -23.441 57.148 C-21.674 54.514 -21.656 53.015 -21.75 49.875 C-21.765 49.006 -21.781 48.137 -21.797 47.242 C-22 45 -22 45 -23 43 C-23.6 35.803 -23.6 35.803 -20.988 32.305 C-18.371 27.954 -18.609 24.825 -18.875 19.875 C-18.944 18.289 -19.004 16.703 -19.055 15.117 C-19.091 14.422 -19.127 13.727 -19.164 13.011 C-19 11 -19 11 -17 7 C-11.39 7.33 -5.78 7.66 0 8 C0 5.36 0 2.72 0 0 Z " fill="#31570C" transform="translate(49,19)"/>
<path d="M0 0 C0.99 0 1.98 0 3 0 C3 4.95 3 9.9 3 15 C4.32 14.34 5.64 13.68 7 13 C7 17.29 7 21.58 7 26 C7.289 24.701 7.578 23.401 7.875 22.062 C8.367 19.848 8.367 19.848 9 18 C9.66 17.67 10.32 17.34 11 17 C12.231 23.4 12.231 23.4 11.062 26.438 C10.887 26.695 10.887 26.695 10 28 C9.34 28 8.68 28 8 28 C8.33 28.66 8.66 29.32 9 30 C9.805 38.745 9.805 38.745 7.438 42.438 C5.348 46.163 6.34 49.192 6.871 53.328 C7.042 56.88 5.967 59.088 4 62 C3.34 62 2.68 62 2 62 C2 59.36 2 56.72 2 54 C1.835 54.165 1.835 54.165 1 55 C0.67 53.68 0.34 52.36 0 51 C-0.33 54.63 -0.66 58.26 -1 62 C-1.66 62.165 -1.66 62.165 -5 63 C-5 62.34 -5 61.68 -5 61 C-5.66 61 -6.32 61 -7 61 C-7.062 61.567 -7.062 61.567 -7.375 64.438 C-7.478 65.025 -7.478 65.025 -8 68 C-8.33 68.165 -8.33 68.165 -10 69 C-10.33 66.03 -10.66 63.06 -11 60 C-11.66 60 -12.32 60 -13 60 C-13.33 57.69 -13.66 55.38 -14 53 C-13.34 53 -12.68 53 -12 53 C-12 52.01 -12 51.02 -12 50 C-11.01 50.33 -10.02 50.66 -9 51 C-7.371 46.552 -6.495 42.317 -5.875 37.625 C-5.707 36.38 -5.54 35.135 -5.367 33.852 C-5.246 32.911 -5.125 31.97 -5 31 C-4.34 31 -3.68 31 -3 31 C-3.021 30.031 -3.041 29.061 -3.062 28.062 C-3 25 -3 25 -2 24 C-1.856 22.645 -1.773 21.283 -1.719 19.922 C-1.681 19.09 -1.644 18.259 -1.605 17.402 C-1.571 16.527 -1.536 15.652 -1.5 14.75 C-1.079 4.352 -1.079 4.352 0 0 Z " fill="#47710F" transform="translate(60,12)"/>
<path d="M0 0 C0.103 0.598 0.206 1.196 0.312 1.812 C1.111 4.354 2.101 5.174 4 7 C7.035 11.046 7.706 13.972 7 19 C3.881 24.03 0.222 26.283 -5.012 28.922 C-7 30 -7 30 -9 32 C-9.02 34.609 -9.02 34.609 -8.812 37.75 C-8.707 44.522 -8.707 44.522 -11.125 47.5 C-18.6 54 -18.6 54 -23 54 C-24.671 54.311 -26.339 54.641 -28 55 C-26.41 49.911 -23.255 46.125 -20 42 C-19.67 42.99 -19.34 43.98 -19 45 C-19.66 45.66 -20.32 46.32 -21 47 C-18.133 46.427 -17.139 46.139 -15 44 C-14.672 41.285 -14.869 38.748 -15 36 C-15.33 35.67 -15.66 35.34 -16 35 C-15.823 30.903 -15.489 28.608 -12.891 25.375 C-12.019 24.591 -11.148 23.808 -10.25 23 C-7.149 20.103 -4.37 17.401 -2 13.875 C-1.34 12.926 -0.68 11.977 0 11 C0.66 11 1.32 11 2 11 C2 10.34 2 9.68 2 9 C1.34 9 0.68 9 0 9 C-0.879 2.848 -0.879 2.848 -1 1 C-0.67 0.67 -0.34 0.34 0 0 Z " fill="#2E561D" transform="translate(120,68)"/>
<path d="M0 0 C0.66 0 1.32 0 2 0 C7.126 8.24 7.126 8.24 6.816 12.562 C6.188 14.938 6.188 14.938 5.418 17.09 C5.28 17.72 5.142 18.351 5 19 C5.66 19.99 6.32 20.98 7 22 C6.707 24.006 6.374 26.007 6 28 C6.33 28.99 6.66 29.98 7 31 C7.403 38.891 7.471 46.433 5 54 C1.7 53.67 -1.6 53.34 -5 53 C-5.812 51 -5.812 51 -6 48 C-4.953 46.098 -4.953 46.098 -3.562 44.062 C-1.169 40.508 -0.239 38.375 -1 34 C-1.495 33.01 -1.99 32.02 -2.5 31 C-4.238 27.524 -4.626 25.832 -4 22 C-3.206 20.908 -2.367 19.847 -1.5 18.812 C2.068 14.296 1.59 9.508 1 4 C0.699 2.659 0.378 1.321 0 0 Z " fill="#2A520A" transform="translate(24,87)"/>
<path d="M0 0 C0.33 0 0.66 0 1 0 C1.369 10.558 1.369 10.558 -1 15 C-0.34 14.67 0.32 14.34 1 14 C3.096 18.986 3.04 23.063 2.312 28.312 C2.217 29.061 2.122 29.809 2.024 30.58 C1.279 35.996 0.036 40.91 -2 46 C-9.75 46.125 -9.75 46.125 -12 45 C-11.055 42.384 -10.244 40.289 -8.441 38.148 C-6.674 35.514 -6.656 34.015 -6.75 30.875 C-6.765 30.006 -6.781 29.137 -6.797 28.242 C-7 26 -7 26 -8 24 C-8.581 16.91 -8.581 16.91 -6.125 13.062 C-4 11 -4 11 -2 10 C-2.041 8.721 -2.082 7.443 -2.125 6.125 C-2.195 3.945 -2.195 3.945 -2 2 C-1.34 1.34 -0.68 0.68 0 0 Z " fill="#345C0D" transform="translate(34,38)"/>
<path d="M0 0 C0.66 0 1.32 0 2 0 C2 0.99 2 1.98 2 3 C2.66 3 3.32 3 4 3 C4.535 15.255 4.535 15.255 1 21 C1 21.99 1 22.98 1 24 C1.543 22.94 2.085 21.881 2.645 20.789 C3.367 19.401 4.089 18.013 4.812 16.625 C5.169 15.926 5.525 15.228 5.893 14.508 C6.068 14.173 6.068 14.173 6.957 12.477 C7.276 11.859 7.596 11.241 7.925 10.604 C9 9 9 9 12 7 C11.832 7.545 11.665 8.091 11.492 8.652 C10.737 12.253 11.089 15.783 11.258 19.441 C11 22 11 22 9.711 23.727 C8 25 8 25 4.5 26.812 C0.827 28.808 -0.483 31.074 -2 35 C-2.625 33.188 -2.625 33.188 -3 31 C-2.34 30.01 -1.68 29.02 -1 28 C-1.578 27.856 -2.155 27.711 -2.75 27.562 C-4.833 27.042 -6.917 26.521 -9 26 C-9 25.34 -9 24.68 -9 24 C-9.99 24 -10.98 24 -12 24 C-12 23.34 -12 22.68 -12 22 C-10.32 20.816 -10.32 20.816 -8.125 19.562 C-5.089 17.827 -4.009 17.013 -2 14 C-1.621 11.152 -1.621 11.152 -1.438 7.938 C-1.096 2.193 -1.096 2.193 0 0 Z " fill="#4F781C" transform="translate(110,21)"/>
<path d="M0 0 C1.084 0.005 2.168 0.01 3.285 0.016 C3.87 0.017 3.87 0.017 6.83 0.026 C7.446 0.03 7.446 0.03 10.562 0.051 C11.18 0.053 11.18 0.053 14.306 0.065 C17.371 0.077 20.435 0.093 23.5 0.114 C25.148 3.41 24.38 6.668 23.5 10.114 C22.033 13.245 20.336 16.186 18.5 19.114 C19.49 19.114 20.48 19.114 21.5 19.114 C21.17 20.104 20.84 21.094 20.5 22.114 C20.17 21.784 19.84 21.454 19.5 21.114 C18.84 24.084 18.18 27.054 17.5 30.114 C16.84 29.784 16.18 29.454 15.5 29.114 C15.5 25.154 15.5 21.194 15.5 17.114 C14.84 17.444 14.84 17.444 11.5 19.114 C11.827 16.446 12.161 13.78 12.5 11.114 C12.582 10.464 12.582 10.464 13 7.176 C13.5 4.114 13.5 4.114 14.5 3.114 C9.22 3.114 3.94 3.114 -1.5 3.114 C-1.5 5.094 -1.5 7.074 -1.5 9.114 C-3.5 7.114 -3.5 7.114 -3.688 4.051 C-3.439 0.156 -3.439 0.156 0 0 Z " fill="#4A7412" transform="translate(50.500244140625,8.886474609375)"/>
<path d="M0 0 C0.99 0 1.98 0 3 0 C3 4.95 3 9.9 3 15 C4.32 14.34 5.64 13.68 7 13 C7 17.29 7 21.58 7 26 C7.289 24.701 7.578 23.401 7.875 22.062 C8.367 19.848 8.367 19.848 9 18 C9.66 17.67 10.32 17.34 11 17 C12.231 23.4 12.231 23.4 11.062 26.438 C10.712 26.953 10.361 27.469 10 28 C9.34 28 8.68 28 8 28 C7.691 28.639 7.381 29.279 7.062 29.938 C6 32 6 32 5 33 C3 33.041 1 33.043 -1 33 C-0.979 32.258 -0.959 31.515 -0.938 30.75 C-1 28 -1 28 -1.509 26.101 C-2.041 23.822 -2.042 21.962 -1.914 19.629 C-1.87 18.807 -1.826 17.985 -1.781 17.139 C-1.73 16.289 -1.678 15.438 -1.625 14.562 C-1.581 13.716 -1.537 12.87 -1.492 11.998 C-1.262 7.916 -0.966 3.988 0 0 Z " fill="#78A023" transform="translate(60,12)"/>
<path d="M0 0 C0.33 0.99 0.66 1.98 1 3 C1.66 3.33 2.32 3.66 3 4 C2.533 4.517 2.067 5.034 1.586 5.566 C-0.997 9.53 -1.221 13.979 -1.961 18.59 C-3.383 23.257 -6.077 25.443 -9.785 28.445 C-11.63 30.806 -11.375 32.927 -11.438 35.875 C-11.672 39.769 -11.799 41.661 -13.812 45.062 C-16 47 -16 47 -18.074 48.285 C-20.615 50.548 -20.634 52.038 -21 55.375 C-21.692 60.019 -22.54 62.645 -26 66 C-27.001 66.999 -28.001 67.999 -29 69 C-29.954 61.372 -29.954 61.372 -27.664 58.078 C-27.115 57.475 -26.566 56.872 -26 56.25 C-22.053 51.691 -22.512 47.366 -22.789 41.562 C-22.859 40.717 -22.928 39.871 -23 39 C-22.34 39.33 -21.68 39.66 -21 40 C-21 41.65 -21 43.3 -21 45 C-17.796 42.869 -16.215 41.654 -14.996 37.941 C-14.812 36.826 -14.627 35.711 -14.438 34.562 C-13.587 29.498 -12.356 26.875 -9 23 C-8.67 22.01 -8.34 21.02 -8 20 C-7.34 19.67 -6.68 19.34 -6 19 C-4.066 15.831 -3.287 12.528 -2.438 8.938 C-1.713 5.902 -0.987 2.961 0 0 Z " fill="#1E4304" transform="translate(81,70)"/>
<path d="M0 0 C3.3 0 6.6 0 10 0 C9.065 7.385 8.002 13.644 4 20 C3.659 20.168 3.659 20.168 1.934 21.02 C0 22 0 22 -1.062 25.062 C-1.217 25.547 -1.217 25.547 -2 28 C-2.99 28.33 -3.98 28.66 -5 29 C-3.924 19.136 -2.473 9.627 0 0 Z " fill="#355F0E" transform="translate(82,20)"/>
<path d="M0 0 C0.578 0.608 1.155 1.217 1.75 1.844 C4.709 4.679 7.299 5.242 11.25 6.25 C11.586 6.336 11.586 6.336 13.285 6.773 C16.727 7.614 19.897 8.198 23.438 8 C27.56 8 29.585 9.076 33.102 11.043 C35.663 12.334 38.165 12.716 41 13 C41.66 10.69 42.32 8.38 43 6 C47.234 7.311 51.074 8.944 55 11 C47.624 15.917 36.718 15.767 28.25 14.188 C23.699 13.215 19.234 11.992 14.758 10.723 C11.171 9.783 7.555 9.133 3.898 8.527 C3.272 8.353 2.645 8.179 2 8 C1.67 7.34 1.34 6.68 1 6 C-0.644 5.278 -2.311 4.606 -4 4 C-4 3.34 -4 2.68 -4 2 C-4.66 1.67 -5.32 1.34 -6 1 C-3.25 0.25 -3.25 0.25 0 0 Z " fill="#EADEBD" transform="translate(28,141)"/>
<path d="M0 0 C0.33 0.66 0.66 1.32 1 2 C1.66 2.33 2.32 2.66 3 3 C2.01 8.94 1.02 14.88 0 21 C0.99 21.33 1.98 21.66 3 22 C2.34 22 1.68 22 1 22 C-0.73 25.83 -1.626 29.627 -2.5 33.711 C-3.192 36.878 -3.974 39.922 -5 43 C-5.33 43.165 -5.33 43.165 -7 44 C-7.33 41.03 -7.66 38.06 -8 35 C-8.66 35 -9.32 35 -10 35 C-10.33 32.69 -10.66 30.38 -11 28 C-10.34 28 -9.68 28 -9 28 C-9 27.01 -9 26.02 -9 25 C-8.01 25.33 -7.02 25.66 -6 26 C-4.371 21.552 -3.495 17.317 -2.875 12.625 C-2.707 11.38 -2.54 10.135 -2.367 8.852 C-2.246 7.911 -2.125 6.97 -2 6 C-1.34 6 -0.68 6 0 6 C0 4.02 0 2.04 0 0 Z " fill="#5D8318" transform="translate(57,37)"/>
<path d="M0 0 C2.33 3.496 2.588 4.887 2 9 C-0.172 11.312 -2.419 12.702 -5.23 14.145 C-10.272 16.735 -13.033 18.362 -15 24 C-16.32 24 -17.64 24 -19 24 C-18.638 18.209 -17.48 15.802 -13.188 11.938 C-7.546 6.674 -7.546 6.674 -5.625 3.438 C-4 1 -4 1 -1.75 0.125 C-1.172 0.084 -0.595 0.043 0 0 Z " fill="#396321" transform="translate(123,79)"/>
<path d="M0 0 C0.33 0 0.66 0 1 0 C1.986 7.234 2.655 12.533 -1 19 C-2.262 21.525 -2.099 23.312 -2.062 26.125 C-2.058 26.58 -2.058 26.58 -2.035 28.883 C-2.024 29.581 -2.012 30.28 -2 31 C-2.66 31 -3.32 31 -4 31 C-4.33 31.66 -4.66 32.32 -5 33 C-5 32.34 -5 31.68 -5 31 C-7.31 31.33 -9.62 31.66 -12 32 C-12.303 24.11 -12.303 24.11 -10 21 C-9.361 20.732 -8.721 20.464 -8.062 20.188 C-4.86 18.344 -3.993 15.395 -3 12 C-2.777 10.609 -2.589 9.213 -2.438 7.812 C-2.064 4.559 -1.698 2.717 0 0 Z " fill="#3C671A" transform="translate(92,20)"/>
<path d="M0 0 C1.772 0.114 3.542 0.242 5.312 0.375 C5.806 0.41 5.806 0.41 8.301 0.586 C11 1 11 1 14 3 C13.67 3.165 13.67 3.165 12 4 C12.825 4.33 12.825 4.33 17 6 C13.266 10.764 13.266 10.764 11.586 12.254 C8.48 15.674 6.717 20.08 4.621 24.164 C3 27 3 27 1 28 C1.758 22.438 1.758 22.438 3 20.188 C4.297 17.351 4.423 14.853 4.625 11.75 C4.7 10.672 4.775 9.595 4.852 8.484 C4.901 7.665 4.95 6.845 5 6 C4.34 6 3.68 6 3 6 C3 5.01 3 4.02 3 3 C1.68 3 0.36 3 -1 3 C-0.67 2.01 -0.34 1.02 0 0 Z " fill="#46721C" transform="translate(109,18)"/>
<path d="M0 0 C0.33 0.99 0.66 1.98 1 3 C0.01 3.99 -0.98 4.98 -2 6 C-1.01 6.33 -0.02 6.66 1 7 C0.834 7.813 0.667 8.627 0.496 9.465 C-0.179 14.272 -0.012 18.968 0.127 23.811 C0.191 28.017 -0.092 31.222 -2 35 C-4.082 33.296 -4.924 32.37 -5.477 29.695 C-5.526 28.847 -5.575 27.999 -5.625 27.125 C-5.812 24.478 -5.993 22.031 -6.562 19.438 C-7.392 14.816 -8.108 10.225 -5.953 5.898 C-4.227 3.43 -2.732 1.366 0 0 Z " fill="#3B6409" transform="translate(53,29)"/>
<path d="M0 0 C0.99 0.165 0.99 0.165 6 1 C5.67 6.28 5.34 11.56 5 17 C3.35 17.33 1.7 17.66 0 18 C0 20.31 0 22.62 0 25 C-0.33 25 -0.66 25 -1 25 C-1.027 23.375 -1.046 21.75 -1.062 20.125 C-1.074 19.22 -1.086 18.315 -1.098 17.383 C-1 15 -1 15 0 13 C0.071 10.793 0.084 8.583 0.062 6.375 C0.053 5.186 0.044 3.998 0.035 2.773 C0.024 1.858 0.012 0.943 0 0 Z M-3 12 C-2.34 12 -1.68 12 -1 12 C-1 19.26 -1 26.52 -1 34 C-3.215 30.678 -3.492 28.921 -4 25 C-4.116 24.257 -4.232 23.515 -4.352 22.75 C-4.462 21.966 -4.573 21.183 -4.688 20.375 C-4.794 19.64 -4.901 18.905 -5.012 18.148 C-4.998 15.607 -4.279 14.166 -3 12 Z " fill="#4F7819" transform="translate(41,95)"/>
<path d="M0 0 C0.66 0 1.32 0 2 0 C7.105 8.206 7.105 8.206 6.852 12.527 C6.25 14.875 6.25 14.875 5.516 16.992 C5 19 5 19 5.547 21.07 C5.696 21.707 5.846 22.344 6 23 C4 26 4 26 2 26.625 C1.34 26.749 0.68 26.873 0 27 C-0.66 27.33 -1.32 27.66 -2 28 C-3.312 25.438 -3.312 25.438 -4 22 C-2.758 20.333 -1.507 18.669 -0.188 17.062 C2.407 12.556 1.582 6.592 0.477 1.668 C0.319 1.118 0.162 0.567 0 0 Z " fill="#3B650E" transform="translate(24,87)"/>
<path d="M0 0 C3.3 0 6.6 0 10 0 C11.073 4.294 10.797 5.195 9 9 C8.34 9 7.68 9 7 9 C6.734 9.531 6.469 10.062 6.195 10.609 C4.464 14.073 2.732 17.536 1 21 C0.875 14.25 0.875 14.25 2 12 C1.01 12 0.02 12 -1 12 C-0.67 8.04 -0.34 4.08 0 0 Z " fill="#3C660C" transform="translate(52,85)"/>
<path d="M0 0 C2.97 0 5.94 0 9 0 C9 3.96 9 7.92 9 12 C8.01 12 7.02 12 6 12 C6 12.66 6 13.32 6 14 C4.35 13.67 2.7 13.34 1 13 C0.634 11.586 0.283 10.169 -0.062 8.75 C-0.26 7.961 -0.457 7.172 -0.66 6.359 C-1 4 -1 4 0 0 Z " fill="#39630B" transform="translate(39,83)"/>
<path d="M0 0 C0.66 0 1.32 0 2 0 C2 0.66 2 1.32 2 2 C2.66 2 3.32 2 4 2 C3.795 2.666 3.59 3.333 3.379 4.02 C1.926 8.99 0.862 13.566 0.625 18.75 C0.238 24.273 -1.271 26.924 -5 31 C-7.313 32.438 -7.313 32.438 -9 33 C-8.494 28.574 -6.882 26.332 -4 23 C-2.826 20.651 -2.885 19.262 -2.902 16.648 C-2.906 15.798 -2.909 14.947 -2.912 14.07 C-2.92 13.181 -2.929 12.291 -2.938 11.375 C-2.94 10.926 -2.94 10.926 -2.951 8.656 C-2.963 6.437 -2.979 4.219 -3 2 C-2.34 2 -1.68 2 -1 2 C-0.67 1.34 -0.34 0.68 0 0 Z " fill="#F1F4EA" transform="translate(92,39)"/>
<path d="M0 0 C0.66 0 1.32 0 2 0 C2 0.99 2 1.98 2 3 C2.66 3 3.32 3 4 3 C4.549 7.127 4.753 10.89 4 15 C0.656 19.327 -3.329 21.56 -8.562 22.938 C-9.367 22.958 -10.171 22.979 -11 23 C-6 18 -6 18 -3.871 16.211 C-1.458 13.36 -1.444 11.567 -1.312 7.875 C-1.067 2.134 -1.067 2.134 0 0 Z " fill="#7AA03B" transform="translate(110,21)"/>
<path d="M0 0 C1.652 4.956 1.01 9.923 0 15 C-2.312 18.062 -2.312 18.062 -5 20 C-5.722 20.598 -6.444 21.196 -7.188 21.812 C-9 23 -9 23 -11 23 C-11 23.66 -11 24.32 -11 25 C-10.01 25.33 -9.02 25.66 -8 26 C-8.99 26 -9.98 26 -11 26 C-11.33 26.99 -11.66 27.98 -12 29 C-14.063 30.188 -14.063 30.188 -16 31 C-15.546 26.117 -14.427 23.522 -11 20 C-10.154 19.526 -9.309 19.051 -8.438 18.562 C-5.119 16.436 -4.346 14.702 -3 11 C-2.659 8.354 -2.44 5.739 -2.309 3.074 C-2.207 2.39 -2.105 1.705 -2 1 C-1.34 0.67 -0.68 0.34 0 0 Z " fill="#385E1E" transform="translate(109,20)"/>
<path d="M0 0 C0.33 0 0.66 0 1 0 C1 2.31 1 4.62 1 7 C7.27 7 13.54 7 20 7 C20 10.3 20 13.6 20 17 C19.67 17 19.34 17 19 17 C19 14.36 19 11.72 19 9 C13.39 9 7.78 9 2 9 C1.01 12.96 0.02 16.92 -1 21 C-1.33 19.68 -1.66 18.36 -2 17 C-2.99 17 -3.98 17 -5 17 C-4.533 14.481 -3.937 12.906 -2.5 10.75 C-0.512 7.105 -0.349 4.124 0 0 Z " fill="#1B3F08" transform="translate(74,11)"/>
<path d="M0 0 C0.33 0 0.66 0 1 0 C1.081 2.083 1.139 4.166 1.188 6.25 C1.222 7.41 1.257 8.57 1.293 9.766 C0.973 13.299 0.223 14.363 -2 17 C-2 17.99 -2 18.98 -2 20 C-6.343 24 -6.343 24 -9 24 C-9.66 22.35 -10.32 20.7 -11 19 C-10.765 18.853 -10.765 18.853 -9.574 18.109 C-3.998 14.092 -2.798 10.149 -1.508 3.512 C-1 1 -1 1 0 0 Z " fill="#3A6A14" transform="translate(82,115)"/>
<path d="M0 0 C1.333 2.667 0.671 4.167 0 7 C0.66 6.67 1.32 6.34 2 6 C1.67 6.99 1.34 7.98 1 9 C0.34 9 -0.32 9 -1 9 C-0.959 10.052 -0.918 11.104 -0.875 12.188 C-1.086 18.618 -4.091 23.951 -8 29 C-8.66 29 -9.32 29 -10 29 C-10.33 29.66 -10.66 30.32 -11 31 C-10.387 28.038 -9.746 26.619 -8 24 C-8.949 24.763 -9.897 25.526 -10.875 26.312 C-11.409 26.742 -11.942 27.171 -12.492 27.613 C-14 29 -14 29 -16 32 C-15.517 27.656 -14.345 25.788 -11 23 C-10.134 22.505 -9.267 22.01 -8.375 21.5 C-5.624 19.762 -5.162 18.99 -4 16 C-3.398 12.381 -2.987 8.761 -2.562 5.117 C-2 2 -2 2 0 0 Z " fill="#1B440A" transform="translate(100,87)"/>
<path d="M0 0 C0.66 0 1.32 0 2 0 C2 0.99 2 1.98 2 3 C2.99 3.33 3.98 3.66 5 4 C3.35 6.97 1.7 9.94 0 13 C-2.31 13 -4.62 13 -7 13 C-7 12.34 -7 11.68 -7 11 C-7.66 11 -8.32 11 -9 11 C-8.188 9.062 -8.188 9.062 -7 7 C-6.01 6.67 -5.02 6.34 -4 6 C-3.67 5.34 -3.34 4.68 -3 4 C-2.34 4 -1.68 4 -1 4 C-0.67 2.68 -0.34 1.36 0 0 Z " fill="#5F8C2C" transform="translate(93,65)"/>
<path d="M0 0 C0.99 0.33 1.98 0.66 3 1 C3.457 6.717 2.523 9.486 -1 14 C0.37 17.161 0.989 17.993 4 20 C0.7 19.67 -2.6 19.34 -6 19 C-6.688 16.688 -6.688 16.688 -7 14 C-5.638 12.229 -4.171 11.125 -2.375 9.812 C-0.126 6.848 -0.3 3.66 0 0 Z " fill="#3C6713" transform="translate(25,121)"/>
<path d="M0 0 C0.66 0.66 1.32 1.32 2 2 C1.967 4.729 1.436 7.297 1 10 C0.01 10.33 -0.98 10.66 -2 11 C-3.125 13 -3.125 13 -4 15 C-5 16 -5 16 -8.062 16.062 C-9.032 16.042 -10.001 16.021 -11 16 C-10.67 13.69 -10.34 11.38 -10 9 C-7.69 9 -5.38 9 -3 9 C-2.867 8.434 -2.734 7.868 -2.598 7.285 C-2.421 6.552 -2.244 5.818 -2.062 5.062 C-1.888 4.332 -1.714 3.601 -1.535 2.848 C-1 1 -1 1 0 0 Z " fill="#538017" transform="translate(70,29)"/>
<path d="M0 0 C3.607 5.411 4.198 8.745 3.387 15.109 C3 17 3 17 2 18 C-0.671 18.141 -3.324 18.042 -6 18 C-5.403 14.658 -4.264 12.536 -2 10 C-1.34 10 -0.68 10 0 10 C0 6.7 0 3.4 0 0 Z " fill="#426911" transform="translate(30,66)"/>
<path d="M0 0 C0.66 0.33 1.32 0.66 2 1 C2.119 10.53 2.119 10.53 -0.52 13.996 C-2.285 15.487 -4.043 16.774 -6 18 C-9 20 -9 20 -10.5 22.562 C-12 25 -12 25 -15 26 C-14.581 21.108 -12.6 19.2 -9 16 C-7.94 15.122 -6.878 14.247 -5.812 13.375 C-2.285 10.397 -0.819 8.33 -0.375 3.812 C-0.251 2.554 -0.127 1.296 0 0 Z " fill="#1B4007" transform="translate(125,48)"/>
<path d="M0 0 C3.625 0.375 3.625 0.375 7 1 C7 4 7 4 4.688 6.5 C3.801 7.325 2.914 8.15 2 9 C1.402 9.598 0.804 10.196 0.188 10.812 C-0.204 11.204 -0.596 11.596 -1 12 C-0.67 9.69 -0.34 7.38 0 5 C-2.402 9.804 -2.611 14.731 -3 20 C-3.33 20 -3.66 20 -4 20 C-4.144 18.886 -4.289 17.773 -4.438 16.625 C-5 13 -5 13 -6 11 C-5.293 8.906 -5.293 8.906 -4.188 6.5 C-3.83 5.706 -3.473 4.912 -3.105 4.094 C-2 2 -2 2 0 0 Z " fill="#386318" transform="translate(100,83)"/>
<path d="M0 0 C0.33 0 0.66 0 1 0 C1.33 2.31 1.66 4.62 2 7 C2.66 5.68 3.32 4.36 4 3 C4 6.96 4 10.92 4 15 C4.66 15.33 5.32 15.66 6 16 C5.01 16 4.02 16 3 16 C3 15.01 3 14.02 3 13 C2.34 13 1.68 13 1 13 C0.67 14.32 0.34 15.64 0 17 C-0.66 17 -1.32 17 -2 17 C-2.33 17.99 -2.66 18.98 -3 20 C-5.437 21.25 -5.437 21.25 -8 22 C-8.66 21.67 -9.32 21.34 -10 21 C-9.67 20.01 -9.34 19.02 -9 18 C-8.34 18 -7.68 18 -7 18 C-2.654 14.061 -0.789 11.176 -0.375 5.312 C-0.3 4.319 -0.225 3.325 -0.148 2.301 C-0.099 1.542 -0.05 0.782 0 0 Z " fill="#436929" transform="translate(92,52)"/>
<path d="M0 0 C1.084 0.005 2.168 0.01 3.285 0.016 C3.87 0.017 3.87 0.017 6.83 0.026 C7.446 0.03 7.446 0.03 10.562 0.051 C11.18 0.053 11.18 0.053 14.306 0.065 C17.371 0.077 20.435 0.093 23.5 0.114 C23.83 0.774 24.16 1.434 24.5 2.114 C15.92 2.444 7.34 2.774 -1.5 3.114 C-1.5 5.094 -1.5 7.074 -1.5 9.114 C-3.5 7.114 -3.5 7.114 -3.688 4.051 C-3.439 0.156 -3.439 0.156 0 0 Z " fill="#3A5F25" transform="translate(50.500244140625,8.886474609375)"/>
<path d="M0 0 C0 3.477 -0.664 5.794 -2 9 C-5.2 12 -5.2 12 -8 12 C-8.99 12.33 -9.98 12.66 -11 13 C-10.25 5.25 -10.25 5.25 -8 3 C-8 3.99 -8 4.98 -8 6 C-5.36 4.02 -2.72 2.04 0 0 Z " fill="#193D08" transform="translate(81,133)"/>
<path d="M0 0 C-0.33 4.62 -0.66 9.24 -1 14 C-6 13 -6 13 -7 12 C-6.829 7.556 -6.42 5.494 -3.5 2.062 C-1 0 -1 0 0 0 Z " fill="#88A835" transform="translate(67,25)"/>
<path d="M0 0 C1.301 2.601 0.931 4.187 0.625 7.062 C0.535 7.961 0.445 8.859 0.352 9.785 C0 12 0 12 -1 13 C-2.666 13.041 -4.334 13.043 -6 13 C-6.303 5.11 -6.303 5.11 -4 2 C-1.875 0.75 -1.875 0.75 0 0 Z " fill="#5A852B" transform="translate(86,39)"/>
<path d="M0 0 C0.454 0.639 0.907 1.279 1.375 1.938 C3 4 3 4 5 5 C3.68 7.31 2.36 9.62 1 12 C1.99 12.33 2.98 12.66 4 13 C3.01 12.835 3.01 12.835 -2 12 C-2 11.01 -2 10.02 -2 9 C-2.969 8.876 -3.939 8.752 -4.938 8.625 C-5.948 8.419 -6.959 8.213 -8 8 C-8.33 7.34 -8.66 6.68 -9 6 C-7.02 6 -5.04 6 -3 6 C-2.01 4.02 -1.02 2.04 0 0 Z " fill="#406A16" transform="translate(43,136)"/>
<path d="M0 0 C0.33 0 0.66 0 1 0 C0.979 0.743 0.959 1.485 0.938 2.25 C1 5 1 5 1.625 7.125 C1.749 7.744 1.873 8.362 2 9 C0 12 0 12 -2 12.625 C-2.66 12.749 -3.32 12.873 -4 13 C-4.33 13.165 -4.33 13.165 -6 14 C-6.66 12.02 -7.32 10.04 -8 8 C-7.618 7.804 -7.618 7.804 -5.688 6.812 C-2.748 4.83 -1.663 3.076 0 0 Z " fill="#416B13" transform="translate(28,101)"/>
<path d="M0 0 C0.33 0.66 0.66 1.32 1 2 C0.519 2.869 0.038 3.738 -0.457 4.633 C-2.28 8.611 -2.15 11.65 -1.688 15.875 C-1.657 16.219 -1.657 16.219 -1.502 17.961 C-1.35 19.642 -1.177 21.321 -1 23 C-3.469 21.695 -3.469 21.695 -6 20 C-7.038 13.512 -4.886 6.863 -1.312 1.438 C-0.879 0.963 -0.446 0.489 0 0 Z " fill="#446F11" transform="translate(59,93)"/>
<path d="M0 0 C0.66 0.33 1.32 0.66 2 1 C1.67 5.62 1.34 10.24 1 15 C-0.32 15.33 -1.64 15.66 -3 16 C-4.559 12.881 -4.283 10.455 -4 7 C-2.873 4.461 -1.528 2.34 0 0 Z " fill="#8AAD40" transform="translate(58,59)"/>
<path d="M0 0 C0.33 0 0.66 0 1 0 C1 2.97 1 5.94 1 9 C0.34 9 -0.32 9 -1 9 C-1.33 13.62 -1.66 18.24 -2 23 C-4.739 20.261 -4.299 18.634 -4.312 14.812 C-4.241 9.45 -4.037 4.037 0 0 Z " fill="#4D780D" transform="translate(56,34)"/>
<path d="M0 0 C0.66 0.66 1.32 1.32 2 2 C0.35 3.65 -1.3 5.3 -3 7 C-2.34 7.33 -1.68 7.66 -1 8 C-5.308 11.077 -5.308 11.077 -8.812 10.688 C-9.534 10.461 -10.256 10.234 -11 10 C-7.91 5.033 -5.614 1.871 0 0 Z " fill="#EEE3C6" transform="translate(94,142)"/>
<path d="M0 0 C0.33 0.66 0.66 1.32 1 2 C0.34 1.67 -0.32 1.34 -1 1 C-0.67 0.67 -0.34 0.34 0 0 Z M3 1 C3.99 1.33 4.98 1.66 6 2 C5.216 2.743 4.433 3.485 3.625 4.25 C1.435 6.544 0.173 8.122 -1 11 C-2.32 11 -3.64 11 -5 11 C-4.688 7.625 -4.688 7.625 -4 4 C-1 2 -1 2 1 2 C1.66 1.67 2.32 1.34 3 1 Z " fill="#417227" transform="translate(109,92)"/>
<path d="M0 0 C0.33 0 0.66 0 1 0 C0.587 5.993 -0.319 9.25 -4 14 C-5.98 13.34 -7.96 12.68 -10 12 C-8.68 11.67 -7.36 11.34 -6 11 C-5.34 7.7 -4.68 4.4 -4 1 C-3.67 1 -3.34 1 -3 1 C-3 2.65 -3 4.3 -3 6 C-2.34 6 -1.68 6 -1 6 C-0.67 4.02 -0.34 2.04 0 0 Z " fill="#214704" transform="translate(35,128)"/>
<path d="M0 0 C0.33 0 0.66 0 1 0 C2.931 11.646 2.931 11.646 -0.188 16.125 C-2.18 18.412 -4.072 20.024 -7 21 C-6.494 16.574 -4.882 14.332 -2 11 C-0.852 8.704 -0.692 6.923 -0.438 4.375 C-0.354 3.558 -0.27 2.74 -0.184 1.898 C-0.123 1.272 -0.062 0.645 0 0 Z " fill="#E6EEDF" transform="translate(90,51)"/>
<path d="M0 0 C4.234 1.311 8.074 2.944 12 5 C8.788 6.906 6.461 7.223 2.75 7.125 C1.858 7.107 0.966 7.089 0.047 7.07 C-0.291 7.059 -0.291 7.059 -2 7 C-1.34 4.69 -0.68 2.38 0 0 Z " fill="#DDD4B1" transform="translate(71,147)"/>
<path d="M0 0 C0.66 0.33 1.32 0.66 2 1 C1.845 1.258 1.845 1.258 1.062 2.562 C-1.22 7.798 -1.115 13.372 -1 19 C-1.99 19.33 -2.98 19.66 -4 20 C-4.108 17.416 -4.187 14.836 -4.25 12.25 C-4.284 11.52 -4.317 10.791 -4.352 10.039 C-4.419 6.329 -4.343 4.428 -1.984 1.484 C-1.33 0.995 -0.675 0.505 0 0 Z " fill="#EAE4CB" transform="translate(102,119)"/>
<path d="M0 0 C0.66 0 1.32 0 2 0 C1.67 5.61 1.34 11.22 1 17 C-0.32 16.67 -1.64 16.34 -3 16 C-2.67 14.68 -2.34 13.36 -2 12 C-1.34 12 -0.68 12 0 12 C0 11.34 0 10.68 0 10 C-0.66 10 -1.32 10 -2 10 C-2.195 3.945 -2.195 3.945 -2 2 C-1.34 1.34 -0.68 0.68 0 0 Z " fill="#4F7C17" transform="translate(52,97)"/>
<path d="M0 0 C1 3 1 3 0.411 4.762 C0.083 5.397 -0.244 6.033 -0.582 6.688 C-0.937 7.386 -1.292 8.085 -1.658 8.805 C-2.039 9.529 -2.42 10.254 -2.812 11 C-3.182 11.724 -3.551 12.449 -3.932 13.195 C-5.504 16.255 -7.088 19.131 -9 22 C-9.66 22 -10.32 22 -11 22 C-10.499 16.491 -10.499 16.491 -8.156 14.188 C-5.601 11.595 -4.317 9.027 -2.75 5.75 C-2.229 4.672 -1.708 3.595 -1.172 2.484 C-0.785 1.665 -0.398 0.845 0 0 Z " fill="#436D16" transform="translate(104,61)"/>
<path d="M0 0 C0.33 0.66 0.66 1.32 1 2 C1.66 2.33 2.32 2.66 3 3 C2.34 7.62 1.68 12.24 1 17 C0.01 17.33 -0.98 17.66 -2 18 C-2 14.04 -2 10.08 -2 6 C-1.34 6 -0.68 6 0 6 C0 4.02 0 2.04 0 0 Z " fill="#699119" transform="translate(57,37)"/>
<path d="M0 0 C1 3 1 3 -0.547 6.504 C-1.271 7.862 -2.006 9.215 -2.75 10.562 C-3.111 11.248 -3.472 11.933 -3.844 12.639 C-5.637 15.949 -6.821 17.88 -10 20 C-9.429 15.323 -7.363 11.733 -5 7.75 C-4.816 7.432 -4.816 7.432 -3.883 5.82 C-1.174 1.174 -1.174 1.174 0 0 Z " fill="#5F8729" transform="translate(121,28)"/>
<path d="M0 0 C0.66 0 1.32 0 2 0 C2 7.26 2 14.52 2 22 C-0.215 18.678 -0.492 16.921 -1 13 C-1.116 12.257 -1.232 11.515 -1.352 10.75 C-1.462 9.966 -1.573 9.183 -1.688 8.375 C-1.794 7.64 -1.901 6.905 -2.012 6.148 C-1.998 3.607 -1.279 2.166 0 0 Z " fill="#89A470" transform="translate(38,107)"/>
<path d="M0 0 C1.102 3.307 1.039 5.476 0.812 8.938 C0.757 9.978 0.702 11.018 0.645 12.09 C-0.117 15.53 -1.33 16.779 -4 19 C-4.625 17.25 -4.625 17.25 -5 15 C-4.688 14.401 -4.376 13.801 -4.055 13.184 C-2.48 9.923 -2.553 6.717 -2.344 3.145 C-2.23 2.437 -2.117 1.729 -2 1 C-1.34 0.67 -0.68 0.34 0 0 Z " fill="#355D22" transform="translate(109,20)"/>
<path d="M0 0 C2 1.812 2 1.812 4 4 C7.25 5.25 7.25 5.25 10 6 C6.772 8.152 5.716 8.201 2 8 C1.67 7.34 1.34 6.68 1 6 C-0.644 5.278 -2.311 4.606 -4 4 C-4 3.34 -4 2.68 -4 2 C-4.66 1.67 -5.32 1.34 -6 1 C-3.25 0.25 -3.25 0.25 0 0 Z " fill="#F0E6C9" transform="translate(28,141)"/>
<path d="M0 0 C0.33 0.99 0.66 1.98 1 3 C0.34 3.66 -0.32 4.32 -1 5 C-0.34 5.66 0.32 6.32 1 7 C-2.323 11.8 -2.323 11.8 -5.75 12.812 C-6.493 12.874 -7.235 12.936 -8 13 C-6.41 7.911 -3.255 4.125 0 0 Z " fill="#37651D" transform="translate(100,110)"/>
<path d="M0 0 C-1.059 3.403 -2.009 6.014 -4 9 C-4.66 9 -5.32 9 -6 9 C-6.33 9.66 -6.66 10.32 -7 11 C-6.387 8.038 -5.746 6.619 -4 4 C-4.949 4.763 -5.897 5.526 -6.875 6.312 C-7.409 6.742 -7.942 7.171 -8.492 7.613 C-10 9 -10 9 -12 12 C-11.517 7.656 -10.345 5.788 -7 3 C-2.5 0 -2.5 0 0 0 Z " fill="#18360B" transform="translate(96,107)"/>
<path d="M0 0 C0.66 0.33 1.32 0.66 2 1 C-1.276 3.867 -4.402 6.282 -8.188 8.438 C-11.905 10.669 -13.463 12.87 -15 17 C-15.75 15.375 -15.75 15.375 -16 13 C-13.414 7.051 -9.012 5.05 -3.363 2.199 C-1 1 -1 1 0 0 Z " fill="#214617" transform="translate(124,88)"/>
<path d="M0 0 C0.66 0.33 1.32 0.66 2 1 C2.348 5.877 1.417 8.771 -1 13 C-1.66 13 -2.32 13 -3 13 C-3.274 7.606 -3.361 4.481 0 0 Z " fill="#D7E1CD" transform="translate(65,61)"/>
<path d="M0 0 C0.33 1.32 0.66 2.64 1 4 C-0.65 4.33 -2.3 4.66 -4 5 C-4.33 6.98 -4.66 8.96 -5 11 C-6.938 10.438 -6.938 10.438 -9 9 C-9.75 5.375 -9.75 5.375 -10 2 C-9.34 1.67 -8.68 1.34 -8 1 C-7.67 2.32 -7.34 3.64 -7 5 C-6.01 4.34 -5.02 3.68 -4 3 C-3.34 3 -2.68 3 -2 3 C-1.34 2.01 -0.68 1.02 0 0 Z " fill="#325C10" transform="translate(30,109)"/>
<path d="M0 0 C0.33 0 0.66 0 1 0 C1.25 1.434 1.474 2.873 1.688 4.312 C1.815 5.113 1.943 5.914 2.074 6.738 C2 9 2 9 0.719 10.688 C-1.677 12.517 -4.277 13.729 -7 15 C-6.724 14.459 -6.448 13.917 -6.164 13.359 C-4.843 10.681 -3.606 7.971 -2.375 5.25 C-1.929 4.265 -1.483 3.28 -1.023 2.266 C-0.686 1.518 -0.348 0.77 0 0 Z " fill="#4B731B" transform="translate(119,34)"/>
<path d="M0 0 C0.33 0.66 0.66 1.32 1 2 C3.062 2.625 3.062 2.625 5 3 C4.34 3 3.68 3 3 3 C2.67 4.65 2.34 6.3 2 8 C0.02 8 -1.96 8 -4 8 C-3.401 4.644 -2.154 2.622 0 0 Z " fill="#3D691A" transform="translate(68,144)"/>
<path d="M0 0 C0.33 0 0.66 0 1 0 C1.121 0.603 1.242 1.207 1.367 1.828 C1.535 2.627 1.702 3.427 1.875 4.25 C2.037 5.039 2.2 5.828 2.367 6.641 C3 9 3 9 4.062 11.062 C5.485 14.003 5.123 16.791 5 20 C4.34 20 3.68 20 3 20 C2.711 18.763 2.422 17.525 2.125 16.25 C1.547 13.873 1.066 12.111 -0.188 10 C-1.55 6.645 -0.587 3.519 0 0 Z " fill="#DAE1D2" transform="translate(21,82)"/>
<path d="M0 0 C2.314 2.314 2.366 2.904 2.5 6.062 C2.425 11.853 -0.504 15.599 -4 20 C-4.33 19.01 -4.66 18.02 -5 17 C-4.002 15.37 -3.002 13.74 -1.992 12.117 C-0.199 8.291 -0.168 4.172 0 0 Z " fill="#6E9625" transform="translate(51,17)"/>
<path d="M0 0 C2.018 0.065 4.036 0.13 6.055 0.195 C4.666 3.552 3.138 5.268 0.055 7.195 C-0.605 7.195 -1.265 7.195 -1.945 7.195 C-2.605 5.545 -3.265 3.895 -3.945 2.195 C-1.945 0.195 -1.945 0.195 0 0 Z " fill="#748E61" transform="translate(74.9453125,131.8046875)"/>
<path d="M0 0 C0.33 0 0.66 0 1 0 C1.506 6.986 1.033 11.202 -3 17 C-3.66 17 -4.32 17 -5 17 C-3.125 11.125 -3.125 11.125 -2 10 C-2.032 7.97 -2.068 5.939 -2.16 3.91 C-2 2 -2 2 0 0 Z " fill="#4E7518" transform="translate(34,38)"/>
<path d="M0 0 C0.904 2.507 1.092 3.717 0.258 6.289 C0.071 6.674 0.071 6.674 -0.875 8.625 C-1.244 9.401 -1.612 10.177 -1.992 10.977 C-2.66 12.318 -3.33 13.659 -4 15 C-4.66 15 -5.32 15 -6 15 C-5.284 11.801 -4.222 8.853 -3 5.812 C-2.649 4.932 -2.299 4.052 -1.938 3.145 C-1 1 -1 1 0 0 Z " fill="#4A7618" transform="translate(38,127)"/>
<path d="M0 0 C0.33 0 0.66 0 1 0 C1.054 1.604 1.093 3.208 1.125 4.812 C1.148 5.706 1.171 6.599 1.195 7.52 C1 10 1 10 -1 13 C-2.32 13 -3.64 13 -5 13 C-5 12.34 -5 11.68 -5 11 C-4.526 10.608 -4.051 10.216 -3.562 9.812 C-1.262 7.144 -1.381 4.426 -1 1 C-0.67 0.67 -0.34 0.34 0 0 Z " fill="#3C6C16" transform="translate(95,95)"/>
<path d="M0 0 C0.33 0 0.66 0 1 0 C0.727 6.143 -0.09 10.024 -4 15 C-4.66 15.99 -5.32 16.98 -6 18 C-5.53 12.237 -3.98 8.936 -1 4 C-0.25 1.562 -0.25 1.562 0 0 Z " fill="#1F4203" transform="translate(43,65)"/>
<path d="M0 0 C0.99 0.33 1.98 0.66 3 1 C3.33 1.99 3.66 2.98 4 4 C4.99 4.66 5.98 5.32 7 6 C3.7 5.67 0.4 5.34 -3 5 C-3 4.01 -3 3.02 -3 2 C-2.01 1.34 -1.02 0.68 0 0 Z " fill="#436629" transform="translate(22,135)"/>
<path d="M0 0 C0.33 0 0.66 0 1 0 C1.528 5.285 1.528 5.285 1 8 C-2 10.5 -2 10.5 -5 12 C-5.66 11.67 -6.32 11.34 -7 11 C-5.625 9.5 -5.625 9.5 -4 8 C-3.34 8 -2.68 8 -2 8 C-1.856 6.866 -1.711 5.731 -1.562 4.562 C-1 1 -1 1 0 0 Z " fill="#457415" transform="translate(108,73)"/>
<path d="M0 0 C0.395 0.003 0.395 0.003 2.396 0.016 C2.823 0.017 2.823 0.017 4.984 0.026 C5.882 0.034 6.78 0.042 7.705 0.051 C8.607 0.056 9.508 0.06 10.437 0.065 C12.672 0.077 14.907 0.093 17.142 0.114 C17.142 0.444 17.142 0.774 17.142 1.114 C4.863 3.6 4.863 3.6 -0.858 3.114 C-1.518 2.454 -2.178 1.794 -2.858 1.114 C-1.858 0.114 -1.858 0.114 0 0 Z " fill="#ECE4CA" transform="translate(61.857666015625,152.886474609375)"/>
<path d="M0 0 C1.19 3.57 0.758 4.246 -0.75 7.562 C-1.095 8.348 -1.441 9.133 -1.797 9.941 C-3 12 -3 12 -6 14 C-5.419 10.24 -4.348 7.47 -2.438 4.188 C-1.982 3.397 -1.527 2.607 -1.059 1.793 C-0.884 1.497 -0.884 1.497 0 0 Z " fill="#1F4204" transform="translate(64,86)"/>
<path d="M0 0 C0.492 6.4 0.492 6.4 -2 9.438 C-2.33 9.695 -2.33 9.695 -4 11 C-4 7.7 -4 4.4 -4 1 C-1 0 -1 0 0 0 Z " fill="#2D570A" transform="translate(97,50)"/>
<path d="M0 0 C3.821 0.531 6.062 1.497 9 4 C5.185 5.467 2.71 4.433 -1 3 C-0.67 2.01 -0.34 1.02 0 0 Z " fill="#E2D7B2" transform="translate(52,149)"/>
<path d="M0 0 C0.99 0.33 1.98 0.66 3 1 C3 1.66 3 2.32 3 3 C2.34 3 1.68 3 1 3 C0.67 3.99 0.34 4.98 0 6 C-2.438 7.25 -2.438 7.25 -5 8 C-5.66 7.67 -6.32 7.34 -7 7 C-6.67 6.01 -6.34 5.02 -6 4 C-5.34 4 -4.68 4 -4 4 C-2.627 2.708 -1.29 1.376 0 0 Z " fill="#416926" transform="translate(89,66)"/>
<path d="M0 0 C-1.455 3.396 -3.409 5.409 -6 8 C-7.25 10.25 -7.25 10.25 -8 12 C-8.66 12 -9.32 12 -10 12 C-8.887 7.325 -5.685 0 0 0 Z " fill="#3B6213" transform="translate(118,61)"/>
<path d="M0 0 C0.33 0.66 0.66 1.32 1 2 C0.074 4.348 0.074 4.348 -1.312 7.062 C-1.537 7.512 -1.537 7.512 -2.676 9.785 C-4 12 -4 12 -6 13 C-5.499 7.738 -3.79 3.79 0 0 Z " fill="#416B12" transform="translate(116,33)"/>
<path d="M0 0 C0.33 0 0.66 0 1 0 C1.536 2.858 1.784 4.257 1 7 C-1.713 10.041 -4.767 12.53 -8 15 C-8 14.01 -8 13.02 -8 12 C-6.367 10.625 -4.698 9.294 -3 8 C-1.055 5.082 -0.547 3.375 0 0 Z " fill="#457215" transform="translate(70,106)"/>
<path d="M0 0 C0.66 0.33 1.32 0.66 2 1 C2.503 6.286 1.269 8.866 -2 13 C-2.33 13.165 -2.33 13.165 -4 14 C-3.856 13.68 -3.856 13.68 -3.125 12.062 C-1.675 8.116 -0.842 4.113 0 0 Z " fill="#2E541A" transform="translate(26,95)"/>
<path d="M0 0 C0.66 0 1.32 0 2 0 C2.125 7.75 2.125 7.75 1 10 C0.34 10 -0.32 10 -1 10 C-1.33 7.69 -1.66 5.38 -2 3 C-1.34 3 -0.68 3 0 3 C0 2.01 0 1.02 0 0 Z " fill="#678C22" transform="translate(48,62)"/>
<path d="M0 0 C0.66 0 1.32 0 2 0 C1.387 2.962 0.746 4.381 -1 7 C-3.625 7.688 -3.625 7.688 -6 8 C-2.25 2.25 -2.25 2.25 0 0 Z " fill="#E0D7B3" transform="translate(89,144)"/>
<path d="M0 0 C0.33 0 0.66 0 1 0 C1.027 1.458 1.046 2.917 1.062 4.375 C1.074 5.187 1.086 5.999 1.098 6.836 C1 9 1 9 0 11 C-0.226 12.704 -0.409 14.413 -0.562 16.125 C-0.604 16.58 -0.604 16.58 -0.816 18.883 C-0.877 19.581 -0.938 20.28 -1 21 C-1.33 21 -1.66 21 -2 21 C-2.369 6.219 -2.369 6.219 0 0 Z " fill="#31550F" transform="translate(41,99)"/>
<path d="M0 0 C1.125 1.562 1.125 1.562 2 4 C1.312 7.688 1.312 7.688 0 11 C-0.99 11.33 -1.98 11.66 -3 12 C-2.692 10.187 -2.379 8.374 -2.062 6.562 C-1.975 6.058 -1.975 6.058 -1.535 3.504 C-1 1 -1 1 0 0 Z " fill="#6C9122" transform="translate(54,60)"/>
<path d="M0 0 C0.66 0.66 1.32 1.32 2 2 C1.67 2.495 1.67 2.495 0 5 C-0.414 7.043 -0.414 7.043 -0.625 9.188 C-0.749 10.446 -0.872 11.704 -1 13 C-1.66 13 -2.32 13 -3 13 C-3.274 7.606 -3.361 4.481 0 0 Z " fill="#345622" transform="translate(29,49)"/>
<path d="M0 0 C0.66 1.32 1.32 2.64 2 4 C-0.667 5.333 -2.167 4.671 -5 4 C-4.67 5.98 -4.34 7.96 -4 10 C-4.66 10 -5.32 10 -6 10 C-6 7.36 -6 4.72 -6 2 C-5.01 2.33 -4.02 2.66 -3 3 C-2.67 2.34 -2.34 1.68 -2 1 C-1.34 0.67 -0.68 0.34 0 0 Z " fill="#426911" transform="translate(34,52)"/>
<path d="M0 0 C0.66 0 1.32 0 2 0 C4.296 2.561 5 3.48 5 7 C4.01 6.835 4.01 6.835 -1 6 C-0.67 4.02 -0.34 2.04 0 0 Z " fill="#4C7218" transform="translate(40,50)"/>
<path d="M0 0 C0.33 0.99 0.66 1.98 1 3 C0.67 3.495 0.67 3.495 -1 6 C-1.414 8.48 -1.414 8.48 -1.625 11.188 C-1.7 12.089 -1.775 12.99 -1.852 13.918 C-1.901 14.605 -1.95 15.292 -2 16 C-2.33 16 -2.66 16 -3 16 C-3.33 11.38 -3.66 6.76 -4 2 C-2.68 1.34 -1.36 0.68 0 0 Z " fill="#4B7B1A" transform="translate(126,39)"/>
<path d="M0 0 C-4.625 4.875 -4.625 4.875 -8 6 C-7.75 3.625 -7.75 3.625 -7 1 C-4.127 -1.107 -3.467 -1.156 0 0 Z " fill="#375E1A" transform="translate(26,132)"/>
<path d="M0 0 C-1.652 3.58 -3.731 6.78 -6 10 C-6.33 10 -6.66 10 -7 10 C-7.312 7.812 -7.312 7.812 -7 5 C-2.778 0 -2.778 0 0 0 Z " fill="#B6C8AD" transform="translate(92,111)"/>
<path d="M0 0 C0 3.396 -0.522 4.066 -2.5 6.688 C-2.964 7.31 -3.428 7.933 -3.906 8.574 C-4.267 9.045 -4.628 9.515 -5 10 C-5.613 8.168 -5.613 8.168 -6 6 C-4.215 3.353 -2.88 1.44 0 0 Z " fill="#D3DCCB" transform="translate(105,85)"/>
<path d="M0 0 C3 2 3 2 3.512 3.945 C3.674 5.964 3.837 7.982 4 10 C3.34 10 2.68 10 2 10 C1.67 10.66 1.34 11.32 1 12 C-0.262 9.475 -0.099 7.688 -0.062 4.875 C-0.053 3.965 -0.044 3.055 -0.035 2.117 C-0.024 1.419 -0.012 0.72 0 0 Z " fill="#416527" transform="translate(86,41)"/>
<path d="M0 0 C0.33 0 0.66 0 1 0 C1.249 2.437 1.475 4.872 1.688 7.312 C1.724 7.658 1.724 7.658 1.908 9.404 C2.074 11.426 2.074 11.426 2 15 C1.01 15.99 0.02 16.98 -1 18 C-0.835 15.03 -0.835 15.03 0 0 Z " fill="#C4D1C0" transform="translate(94,19)"/>
<path d="M0 0 C2 2 2 2 2.312 4.5 C2.209 5.325 2.106 6.15 2 7 C1.505 7.33 1.505 7.33 -1 9 C-1.625 6.188 -1.625 6.188 -2 3 C-1.34 2.01 -0.68 1.02 0 0 Z " fill="#E1EAD9" transform="translate(70,29)"/>
<path d="M0 0 C0.66 0.33 1.32 0.66 2 1 C0.25 5.875 0.25 5.875 -2 7 C-2.625 9.562 -2.625 9.562 -3 12 C-3.33 12 -3.66 12 -4 12 C-4.492 4.615 -4.492 4.615 -2 1.5 C-1.34 1.005 -0.68 0.51 0 0 Z " fill="#DFE2D5" transform="translate(102,119)"/>
<path d="M0 0 C1.32 0.99 2.64 1.98 4 3 C3.67 5.64 3.34 8.28 3 11 C2.34 11 1.68 11 1 11 C0.67 7.37 0.34 3.74 0 0 Z " fill="#497213" transform="translate(41,95)"/>
<path d="M0 0 C1 3 1 3 0.004 5.262 C-0.472 6.062 -0.947 6.863 -1.438 7.688 C-1.911 8.496 -2.384 9.304 -2.871 10.137 C-3.057 10.444 -3.057 10.444 -4 12 C-4.33 12 -4.66 12 -5 12 C-5.583 8.152 -4.7 6.237 -2.5 3.188 C-1.678 2.116 -0.848 1.051 0 0 Z " fill="#70972F" transform="translate(121,28)"/>
<path d="M0 0 C0.66 1.32 1.32 2.64 2 4 C1.67 4.495 1.67 4.495 0 7 C-2.625 7.188 -2.625 7.188 -5 7 C-3.35 4.69 -1.7 2.38 0 0 Z " fill="#5C801E" transform="translate(55,29)"/>
<path d="M0 0 C-0.33 4.62 -0.66 9.24 -1 14 C-2.32 13.67 -3.64 13.34 -5 13 C-4.01 13 -3.02 13 -2 13 C-2 9.7 -2 6.4 -2 3 C-2.66 2.67 -3.32 2.34 -4 2 C-1 0 -1 0 0 0 Z " fill="#6F9429" transform="translate(67,25)"/>
<path d="M0 0 C3.3 0.33 6.6 0.66 10 1 C10 1.99 10 2.98 10 4 C6.053 4.179 3.402 4.094 0 2 C0 1.34 0 0.68 0 0 Z " fill="#385A1E" transform="translate(59,150)"/>
<path d="M0 0 C-0.66 0.33 -0.66 0.33 -4 2 C-4 2.66 -4 3.32 -4 4 C-5.32 4 -6.64 4 -8 4 C-8.66 2.68 -9.32 1.36 -10 0 C-6.306 -1.231 -3.794 -0.644 0 0 Z " fill="#F7EFDA" transform="translate(28,141)"/>
<path d="M0 0 C0.33 0 0.66 0 1 0 C1 3.96 1 7.92 1 12 C1.66 12.33 2.32 12.66 3 13 C2.01 13 1.02 13 0 13 C0 12.01 0 11.02 0 10 C-0.66 10 -1.32 10 -2 10 C-1.34 6.7 -0.68 3.4 0 0 Z " fill="#4D7E17" transform="translate(95,55)"/>
<path d="M0 0 C0.66 0.33 1.32 0.66 2 1 C2 2.98 2 4.96 2 7 C-1.63 7 -5.26 7 -9 7 C-9 6.67 -9 6.34 -9 6 C-6.36 5.67 -3.72 5.34 -1 5 C-0.67 3.35 -0.34 1.7 0 0 Z " fill="#CFDCC9" transform="translate(47,20)"/>
<path d="M0 0 C0.66 0.33 1.32 0.66 2 1 C1.67 2.65 1.34 4.3 1 6 C-0.98 6 -2.96 6 -5 6 C-3.63 2.839 -3.011 2.007 0 0 Z " fill="#36671C" transform="translate(93,137)"/>
<path d="M0 0 C0.33 0.66 0.66 1.32 1 2 C1.66 2.33 2.32 2.66 3 3 C2.01 3.825 2.01 3.825 -3 8 C-2.25 2.25 -2.25 2.25 0 0 Z " fill="#447317" transform="translate(83,74)"/>
<path d="M0 0 C0.66 0 1.32 0 2 0 C1.34 2.97 0.68 5.94 0 9 C-0.66 9 -1.32 9 -2 9 C-2.125 5.625 -2.125 5.625 -2 2 C-1.34 1.34 -0.68 0.68 0 0 Z " fill="#5B8620" transform="translate(52,97)"/>
<path d="M0 0 C0.99 0 1.98 0 3 0 C2.502 3.688 1.899 5.605 -1 8 C-1.931 5.394 -2.149 4.358 -1.062 1.75 C-0.712 1.172 -0.361 0.595 0 0 Z " fill="#446E26" transform="translate(106,31)"/>
<path d="M0 0 C0.33 0.99 0.66 1.98 1 3 C0.026 4.682 -0.977 6.347 -2 8 C-2.688 10.812 -2.688 10.812 -3 13 C-3.33 13 -3.66 13 -4 13 C-4.492 5.738 -4.492 5.738 -2 2 C-1.34 1.34 -0.68 0.68 0 0 Z " fill="#21450F" transform="translate(91,35)"/>
<path d="M0 0 C0.33 0 0.66 0 1 0 C1 4.29 1 8.58 1 13 C-0.663 9.674 -1.639 7.607 -2 4 C-1.062 1.688 -1.062 1.688 0 0 Z " fill="#567D15" transform="translate(57,24)"/>
<path d="M0 0 C0.66 0 1.32 0 2 0 C0.875 2.972 -0.223 5.334 -2 8 C-2.66 8 -3.32 8 -4 8 C-3.403 4.658 -2.264 2.536 0 0 Z " fill="#4C751A" transform="translate(28,76)"/>
<path d="M0 0 C0.33 0 0.66 0 1 0 C1.196 4.219 0.802 7.17 -1 11 C-1.33 11 -1.66 11 -2 11 C-1.86 9.354 -1.713 7.708 -1.562 6.062 C-1.481 5.146 -1.4 4.229 -1.316 3.285 C-1 1 -1 1 0 0 Z " fill="#406C15" transform="translate(77,61)"/>
<path d="M0 0 C0.33 0 0.66 0 1 0 C0.25 7.625 0.25 7.625 -2 11 C-2.25 3.375 -2.25 3.375 0 0 Z " fill="#3F6B14" transform="translate(81,30)"/>
<path d="M0 0 C1.231 3.694 0.644 6.206 0 10 C-0.66 9.67 -1.32 9.34 -2 9 C-2 6.36 -2 3.72 -2 1 C-1.34 0.67 -0.68 0.34 0 0 Z " fill="#274F0C" transform="translate(68,29)"/>
<path d="M0 0 C0.33 0.99 0.66 1.98 1 3 C-0.32 4.32 -1.64 5.64 -3 7 C-3.99 6.67 -4.98 6.34 -6 6 C-2.25 1.125 -2.25 1.125 0 0 Z " fill="#446B0E" transform="translate(53,29)"/>
<path d="M0 0 C0.66 0 1.32 0 2 0 C2.625 2.312 2.625 2.312 3 5 C1 8 1 8 -1 9 C-0.67 6.03 -0.34 3.06 0 0 Z " fill="#54761D" transform="translate(49,12)"/>
<path d="M0 0 C2.64 0.33 5.28 0.66 8 1 C8 1.33 8 1.66 8 2 C6.02 2 4.04 2 2 2 C2 3.98 2 5.96 2 8 C0 6 0 6 -0.125 2.875 C-0.084 1.926 -0.042 0.977 0 0 Z " fill="#335812" transform="translate(47,10)"/>
<path d="M0 0 C0.33 0 0.66 0 1 0 C1 2.31 1 4.62 1 7 C-0.32 7 -1.64 7 -3 7 C-1.125 1.125 -1.125 1.125 0 0 Z " fill="#437410" transform="translate(50,140)"/>
<path d="M0 0 C-1.75 4.875 -1.75 4.875 -4 6 C-4 5.34 -4 4.68 -4 4 C-4.99 4.33 -5.98 4.66 -7 5 C-6 2 -6 2 -4.062 0.812 C-2 0 -2 0 0 0 Z " fill="#567F2D" transform="translate(27,106)"/>
<path d="M0 0 C0 3 0 3 -2.375 5.688 C-5 8 -5 8 -7 8 C-5.509 4.205 -3.243 2.39 0 0 Z " fill="#446B17" transform="translate(77,93)"/>
<path d="M0 0 C0.75 1.688 0.75 1.688 1 4 C-0.812 6.75 -0.812 6.75 -3 9 C-3.66 9 -4.32 9 -5 9 C-3.751 5.541 -2.325 2.853 0 0 Z " fill="#305420" transform="translate(27,74)"/>
<path d="M0 0 C0.33 0 0.66 0 1 0 C1.33 3.96 1.66 7.92 2 12 C1.67 12.165 1.67 12.165 0 13 C-0.967 9.878 -0.99 7.479 -0.562 4.25 C-0.461 3.451 -0.359 2.652 -0.254 1.828 C-0.17 1.225 -0.086 0.622 0 0 Z " fill="#A9BE9F" transform="translate(90,51)"/>
<path d="M0 0 C0.99 0.33 1.98 0.66 3 1 C2.34 2.98 1.68 4.96 1 7 C0.01 7 -0.98 7 -2 7 C-1.34 4.69 -0.68 2.38 0 0 Z " fill="#E4DCB7" transform="translate(71,147)"/>
<path d="M0 0 C0.66 0.33 0.66 0.33 4 2 C4 2.66 4 3.32 4 4 C4.99 4.165 4.99 4.165 10 5 C8.375 5.688 8.375 5.688 6 6 C2.75 4.562 2.75 4.562 0 3 C0 2.01 0 1.02 0 0 Z " fill="#55693C" transform="translate(29,141)"/>
<path d="M0 0 C0.99 0 1.98 0 3 0 C3.688 2.312 3.688 2.312 4 5 C2.562 6.812 2.562 6.812 1 8 C0.67 5.36 0.34 2.72 0 0 Z " fill="#34601A" transform="translate(105,103)"/>
<path d="M0 0 C0.33 0 0.66 0 1 0 C1 2.64 1 5.28 1 8 C0.01 8.33 -0.98 8.66 -2 9 C-1.125 2.25 -1.125 2.25 0 0 Z " fill="#436E15" transform="translate(119,34)"/>
<path d="M0 0 C0.33 0 0.66 0 1 0 C0.67 2.31 0.34 4.62 0 7 C-0.99 7.33 -1.98 7.66 -3 8 C-1.125 1.125 -1.125 1.125 0 0 Z " fill="#476E0C" transform="translate(56,34)"/>
<path d="M0 0 C0.66 0 1.32 0 2 0 C3.257 2.906 4 4.796 4 8 C3.34 8 2.68 8 2 8 C1.34 5.36 0.68 2.72 0 0 Z " fill="#2E5406" transform="translate(40,83)"/>
<path d="M0 0 C0.66 0.99 1.32 1.98 2 3 C0.35 5.31 -1.3 7.62 -3 10 C-4 7 -4 7 -3.223 5.176 C-2.148 3.451 -1.074 1.725 0 0 Z " fill="#638A1C" transform="translate(50,27)"/>
</svg>
