<?xml version="1.0" encoding="UTF-8"?>
<!-- Generator: visioncortex VTracer 0.6.12 -->
<svg version="1.1" xmlns="http://www.w3.org/2000/svg" width="164" height="185">
<path d="M0 0 C54.12 0 108.24 0 164 0 C164 61.05 164 122.1 164 185 C109.88 185 55.76 185 0 185 C0 123.95 0 62.9 0 0 Z " fill="#FCF7EB" transform="translate(0,0)"/>
<path d="M0 0 C4.881 0.71 9.015 2.353 13.438 4.5 C14.09 4.804 14.742 5.108 15.414 5.422 C17.062 6.438 17.062 6.438 19.438 9.5 C19.797 12.744 19.751 15.795 19.551 19.051 C19.446 22.248 19.742 25.189 20.182 28.351 C22.026 43.855 19.924 56.84 12.836 70.762 C12.118 72.183 11.401 73.605 10.685 75.028 C10.499 75.395 10.499 75.395 9.563 77.254 C8.08 80.214 6.624 83.187 5.17 86.161 C3.685 89.199 2.189 92.232 0.693 95.264 C-0.061 96.796 -0.811 98.331 -1.557 99.866 C-13.842 125.119 -28.867 148.819 -56.562 158.5 C-65.643 160.809 -75.013 160.253 -83.562 156.5 C-84.238 156.245 -84.913 155.99 -85.609 155.727 C-93.668 152.322 -98.826 145.674 -102.562 137.938 C-106.054 128.616 -106.113 118.499 -102.562 109.188 C-94.117 91.904 -78.209 77.062 -63 65.562 C-52.734 56.876 -45.377 44.569 -38.438 33.188 C-32.515 23.562 -26.904 16.492 -16.562 11.5 C-14.882 10.523 -13.213 9.526 -11.562 8.5 C-10.531 7.861 -9.5 7.221 -8.438 6.562 C-5.562 4.5 -5.562 4.5 -4.062 2.25 C-2.562 0.5 -2.562 0.5 0 0 Z " fill="#61A319" transform="translate(124.5625,13.5)"/>
<path d="M0 0 C4.881 0.71 9.015 2.353 13.438 4.5 C14.09 4.804 14.742 5.108 15.414 5.422 C17.062 6.438 17.062 6.438 19.438 9.5 C19.797 12.744 19.751 15.795 19.551 19.051 C19.446 22.248 19.742 25.189 20.182 28.351 C22.026 43.855 19.924 56.84 12.836 70.762 C12.118 72.183 11.401 73.605 10.685 75.028 C10.499 75.395 10.499 75.395 9.563 77.254 C8.08 80.214 6.624 83.187 5.17 86.161 C3.685 89.199 2.189 92.232 0.693 95.264 C-0.061 96.796 -0.811 98.331 -1.557 99.866 C-13.842 125.119 -28.867 148.819 -56.562 158.5 C-65.643 160.809 -75.013 160.253 -83.562 156.5 C-84.238 156.245 -84.913 155.99 -85.609 155.727 C-93.668 152.322 -98.826 145.674 -102.562 137.938 C-106.054 128.616 -106.113 118.499 -102.562 109.188 C-94.117 91.904 -78.209 77.062 -63 65.562 C-52.734 56.876 -45.377 44.569 -38.438 33.188 C-32.515 23.562 -26.904 16.492 -16.562 11.5 C-14.882 10.523 -13.213 9.526 -11.562 8.5 C-10.531 7.861 -9.5 7.221 -8.438 6.562 C-5.562 4.5 -5.562 4.5 -4.062 2.25 C-2.562 0.5 -2.562 0.5 0 0 Z M-31.508 25.629 C-34.564 29.9 -37.114 34.431 -39.715 38.989 C-49.115 55.306 -61.875 68.852 -76.562 80.5 C-88.219 90.061 -99.827 102.416 -101.895 118.004 C-102.102 122.67 -101.505 125.699 -98.562 129.5 C-97.903 129.335 -97.903 129.335 -94.562 128.5 C-94.233 127.18 -93.903 125.86 -93.562 124.5 C-93.645 125.593 -93.727 126.686 -93.812 127.812 C-93.562 131.5 -93.562 131.5 -91.875 133.5 C-89.006 134.741 -87.506 134.399 -84.562 133.5 C-84.233 131.52 -83.903 129.54 -83.562 127.5 C-82.903 127.5 -82.243 127.5 -81.562 127.5 C-81.888 129.518 -82.214 131.536 -82.539 133.555 C-82.547 134.197 -82.555 134.839 -82.562 135.5 C-80.086 137.977 -79.127 137.908 -75.688 138.062 C-64.43 137.755 -56.373 130.026 -48.858 122.392 C-38.472 111.367 -30.24 98.498 -22.562 85.5 C-21.853 84.332 -21.142 83.166 -20.43 82 C-16.23 75.111 -12.16 68.148 -8.188 61.125 C-7.771 60.4 -7.354 59.676 -6.924 58.929 C-4.48 54.562 -2.668 50.283 -1.221 45.489 C-0.563 43.5 -0.563 43.5 1.125 40.188 C3.116 34.594 3.826 27.719 1.418 22.137 C1.094 21.597 0.771 21.056 0.438 20.5 C-1.731 21.006 -3.562 21.5 -5.562 22.5 C-4.903 21.18 -4.243 19.86 -3.562 18.5 C-4.676 18.5 -5.79 18.5 -6.938 18.5 C-8.812 18.5 -10.688 18.5 -12.562 18.5 C-11.243 17.84 -9.922 17.18 -8.562 16.5 C-8.727 16.005 -8.727 16.005 -9.562 13.5 C-18.501 12.089 -26.143 19.241 -31.508 25.629 Z " fill="#3C7C11" transform="translate(124.5625,13.5)"/>
<path d="M0 0 C0.99 0.33 1.98 0.66 3 1 C2.564 1.461 2.127 1.923 1.677 2.398 C-3.031 7.55 -6.557 12.912 -9.938 19 C-10.431 19.87 -10.924 20.74 -11.432 21.637 C-12.629 23.753 -13.819 25.874 -15 28 C-10.307 23.307 -6.424 17.564 -2.375 12.312 C0.63 8.43 3.772 4.7 7 1 C8.32 1.33 9.64 1.66 11 2 C11.66 3.715 11.66 3.715 12 6 C10.996 8.191 10.996 8.191 9.438 10.562 C7.22 14.051 5.127 17.537 3.188 21.188 C-3.088 32.758 -9.835 43.647 -18 54 C-18.634 54.816 -19.268 55.632 -19.922 56.473 C-23.747 61.333 -27.724 66.056 -31.75 70.75 C-32.255 71.339 -32.76 71.928 -33.281 72.535 C-35.921 75.606 -38.578 78.659 -41.262 81.691 C-46.179 87.281 -50.693 92.519 -54.051 99.223 C-55.328 101.614 -56.883 103.321 -59 105 C-59.66 105 -60.32 105 -61 105 C-61.33 107.31 -61.66 109.62 -62 112 C-64.25 112.688 -64.25 112.688 -67 113 C-69.156 111.844 -69.156 111.844 -71 110 C-71.391 107.52 -71.391 107.52 -71.25 104.812 C-71.214 103.911 -71.178 103.01 -71.141 102.082 C-71.094 101.395 -71.048 100.708 -71 100 C-71.33 102.31 -71.66 104.62 -72 107 C-72.66 107.165 -72.66 107.165 -76 108 C-78.94 104.202 -79.533 101.176 -79.34 96.516 C-78.027 86.795 -73.058 79.47 -67 72 C-66.685 71.608 -66.685 71.608 -65.09 69.625 C-60.821 64.576 -56.089 60.491 -50.93 56.375 C-36.765 44.892 -24.282 31.118 -15.75 14.875 C-13.788 11.652 -12.273 10.756 -9 9 C-7.292 7.376 -5.624 5.708 -4 4 C-2.667 2.667 -1.333 1.333 0 0 Z " fill="#8BBF2C" transform="translate(102,35)"/>
<path d="M0 0 C54.12 0 108.24 0 164 0 C164 0.99 164 1.98 164 3 C163.209 3.004 162.418 3.008 161.603 3.013 C142.375 3.116 123.146 3.225 103.918 3.339 C94.619 3.395 85.321 3.448 76.022 3.497 C67.919 3.54 59.816 3.586 51.713 3.637 C47.421 3.663 43.129 3.688 38.837 3.709 C34.8 3.729 30.763 3.753 26.725 3.78 C25.241 3.79 23.757 3.798 22.273 3.803 C20.251 3.812 18.229 3.827 16.207 3.842 C15.641 3.845 15.641 3.845 12.774 3.861 C10 4 10 4 7 5 C7 63.08 7 121.16 7 181 C10.695 181.924 13.512 182.137 17.289 182.158 C18.582 182.168 19.875 182.178 21.207 182.188 C22.638 182.194 24.068 182.2 25.499 182.205 C27.007 182.215 28.515 182.225 30.023 182.235 C34.115 182.262 38.208 182.283 42.301 182.303 C46.578 182.325 50.856 182.353 55.133 182.379 C63.233 182.429 71.332 182.474 79.432 182.517 C88.653 182.567 97.874 182.622 107.095 182.677 C126.063 182.791 145.032 182.898 164 183 C164 183.66 164 184.32 164 185 C109.88 185 55.76 185 0 185 C0 123.95 0 62.9 0 0 Z " fill="#FDFDFC" transform="translate(0,0)"/>
<path d="M0 0 C4.881 0.71 9.015 2.353 13.438 4.5 C14.09 4.804 14.742 5.108 15.414 5.422 C17.062 6.438 17.062 6.438 19.438 9.5 C19.797 12.744 19.751 15.795 19.551 19.051 C19.446 22.236 19.757 25.146 20.199 28.294 C20.655 32.518 20.54 36.757 20.5 41 C20.495 41.918 20.491 42.836 20.486 43.781 C20.475 46.021 20.458 48.26 20.438 50.5 C19.942 50.665 19.942 50.665 17.438 51.5 C17.438 49.52 17.438 47.54 17.438 45.5 C13.314 49.225 10.963 52.801 8.625 57.812 C8.314 58.458 8.002 59.103 7.682 59.768 C6.924 61.341 6.18 62.92 5.438 64.5 C4.463 61.922 4.319 60.807 5.328 58.195 C5.777 57.347 6.225 56.499 6.688 55.625 C10.904 46.863 14.633 35.087 11.438 25.5 C9.547 25.746 9.547 25.746 7.438 26.5 C6.391 28.348 6.391 28.348 5.688 30.562 C5.566 30.929 5.566 30.929 4.953 32.785 C4.783 33.351 4.613 33.917 4.438 34.5 C4.108 34.5 3.778 34.5 3.438 34.5 C3.449 33.585 3.461 32.67 3.473 31.727 C3.482 30.538 3.491 29.35 3.5 28.125 C3.512 26.942 3.523 25.758 3.535 24.539 C3.438 21.5 3.438 21.5 2.438 19.5 C-3.527 17.512 -8.817 18.202 -14.562 20.5 C-13.273 19.124 -11.936 17.792 -10.562 16.5 C-9.903 16.5 -9.243 16.5 -8.562 16.5 C-8.727 16.17 -8.727 16.17 -9.562 14.5 C-15.12 13.623 -18.608 15.774 -23.121 18.699 C-30.373 24.049 -34.266 31.266 -38.667 38.94 C-48.312 55.59 -61.483 69.666 -76.562 81.5 C-85.205 88.427 -91.303 96.467 -97.562 105.5 C-98.694 101.748 -98.694 101.748 -97.508 99.52 C-87.363 87.22 -75.737 75.193 -63 65.562 C-52.734 56.876 -45.377 44.569 -38.438 33.188 C-32.515 23.562 -26.904 16.492 -16.562 11.5 C-14.882 10.523 -13.213 9.526 -11.562 8.5 C-10.531 7.861 -9.5 7.221 -8.438 6.562 C-5.562 4.5 -5.562 4.5 -4.062 2.25 C-2.562 0.5 -2.562 0.5 0 0 Z " fill="#417A1F" transform="translate(124.5625,13.5)"/>
<path d="M0 0 C0 7.643 -12.554 16.682 -17.75 21.938 C-18.116 22.31 -18.116 22.31 -19.97 24.198 C-23.462 27.695 -26.634 30.609 -31 33 C-31.33 33.66 -31.66 34.32 -32 35 C-33.134 35.309 -34.269 35.619 -35.438 35.938 C-39 37 -39 37 -41 40 C-40.34 39.835 -40.34 39.835 -37 39 C-38.152 42.073 -39.485 44.969 -41 47.875 C-44.439 54.728 -45.422 61.439 -46 69 C-43.36 69 -40.72 69 -38 69 C-38.33 70.98 -38.66 72.96 -39 75 C-41.25 75.688 -41.25 75.688 -44 76 C-46.156 74.844 -46.156 74.844 -48 73 C-48.391 70.52 -48.391 70.52 -48.25 67.812 C-48.214 66.911 -48.178 66.01 -48.141 65.082 C-48.094 64.395 -48.048 63.708 -48 63 C-48.33 65.31 -48.66 67.62 -49 70 C-49.66 70.165 -49.66 70.165 -53 71 C-55.94 67.202 -56.533 64.176 -56.34 59.516 C-54.49 45.826 -44.378 33.028 -34.012 24.332 C-29.504 21 -29.504 21 -27 21 C-26.639 20.701 -26.639 20.701 -24.812 19.188 C-21.574 16.669 -18.853 15.381 -15 14 C-14.34 14.33 -13.68 14.66 -13 15 C-12.87 14.7 -12.87 14.7 -12.211 13.184 C-10.917 10.851 -9.705 9.702 -7.625 8.062 C-4.659 5.629 -2.284 3.106 0 0 Z " fill="#6FAE1F" transform="translate(79,72)"/>
<path d="M0 0 C1.125 1.687 1.125 1.687 2 4 C0.615 8.143 -1.407 12.041 -3.309 15.969 C-3.631 16.638 -3.954 17.306 -4.286 17.996 C-31.311 73.955 -31.311 73.955 -45 86 C-46.992 86.664 -46.992 86.664 -49 87 C-51.335 87.662 -53.668 88.327 -56 89 C-54.607 85.747 -53.05 83.966 -50.312 81.75 C-42.59 75.17 -37.193 67.674 -32 59 C-31.698 58.504 -31.698 58.504 -30.168 55.992 C-25.28 47.729 -21.167 39.175 -17.085 30.49 C-13.895 23.745 -10.471 17.249 -6.656 10.84 C-4.971 7.95 -3.466 5.007 -2 2 C-1.34 2 -0.68 2 0 2 C0 1.34 0 0.68 0 0 Z " fill="#407E19" transform="translate(139,71)"/>
<path d="M0 0 C4.881 0.71 9.015 2.353 13.438 4.5 C14.09 4.804 14.742 5.108 15.414 5.422 C17.062 6.438 17.062 6.438 19.438 9.5 C19.811 12.715 19.741 15.752 19.582 18.984 C19.368 24.2 19.914 29.315 20.438 34.5 C19.942 34.665 19.942 34.665 17.438 35.5 C17.767 32.53 18.097 29.56 18.438 26.5 C17.118 25.84 15.798 25.18 14.438 24.5 C13.778 23.84 13.118 23.18 12.438 22.5 C11.282 22.376 10.127 22.252 8.938 22.125 C8.36 22.022 8.36 22.022 5.438 21.5 C5.136 20.846 4.834 20.193 4.523 19.52 C4.165 18.853 3.807 18.187 3.438 17.5 C1.195 16.848 1.195 16.848 -1.438 16.562 C-5.204 15.953 -6.297 15.746 -9.188 13.062 C-10.562 10.5 -10.562 10.5 -10.562 7.5 C-8.912 6.474 -7.243 5.477 -5.562 4.5 C-5.088 3.778 -4.614 3.056 -4.125 2.312 C-2.562 0.5 -2.562 0.5 0 0 Z " fill="#457722" transform="translate(124.5625,13.5)"/>
<path d="M0 0 C0.99 0.33 1.98 0.66 3 1 C2.562 1.465 2.124 1.93 1.673 2.409 C-2.946 7.476 -6.471 12.716 -9.812 18.688 C-10.289 19.516 -10.765 20.344 -11.256 21.197 C-13.461 25.07 -15.36 28.853 -17 33 C-19.312 35.5 -19.312 35.5 -22 38 C-22.763 38.784 -23.526 39.567 -24.312 40.375 C-27.211 43.206 -30.239 45.83 -33.328 48.449 C-35 50 -35 50 -36 52 C-36.749 52.144 -37.498 52.289 -38.27 52.438 C-41.365 53.075 -43.12 54.186 -45.688 56 C-49.924 58.962 -49.924 58.962 -52 60 C-50.376 55.537 -46.893 52.991 -43.438 49.938 C-32.461 39.973 -22.677 28.061 -15.75 14.875 C-13.788 11.652 -12.273 10.756 -9 9 C-7.292 7.376 -5.624 5.708 -4 4 C-2.667 2.667 -1.333 1.333 0 0 Z " fill="#81B727" transform="translate(102,35)"/>
<path d="M0 0 C0.33 0.495 0.33 0.495 2 3 C1.05 4.339 0.089 5.671 -0.875 7 C-1.409 7.743 -1.942 8.485 -2.492 9.25 C-2.99 9.827 -3.487 10.405 -4 11 C-4.66 11 -5.32 11 -6 11 C-6.236 11.568 -6.472 12.137 -6.715 12.723 C-11.348 20.933 -21.211 27.07 -30 30 C-29.67 30.33 -29.34 30.66 -29 31 C-26.487 30.561 -24.026 29.962 -21.543 29.375 C-18.979 28.997 -17.432 29.184 -15 30 C-16.895 30.65 -18.791 31.295 -20.688 31.938 C-21.215 32.117 -21.215 32.117 -23.887 33.027 C-37.908 37.408 -55.523 36.797 -69 31 C-69.935 30.626 -70.869 30.252 -71.832 29.867 C-72.19 29.724 -72.19 29.724 -74 29 C-74 27.35 -74 25.7 -74 24 C-73.727 24.127 -73.727 24.127 -72.348 24.77 C-69.912 25.881 -67.462 26.948 -65 28 C-64.292 28.308 -63.585 28.616 -62.855 28.934 C-51.865 33.195 -40.651 31.416 -30 27 C-16.722 20.458 -8.583 11.697 0 0 Z " fill="#ECE0C2" transform="translate(106,141)"/>
<path d="M0 0 C6.405 0.331 9.623 1.186 14 6 C14.25 8.625 14.25 8.625 14 11 C14.33 11.495 14.33 11.495 16 14 C16.142 16.767 16.188 19.427 16.125 22.188 C16.116 22.937 16.107 23.687 16.098 24.459 C16.074 26.306 16.038 28.153 16 30 C15.01 30.33 14.02 30.66 13 31 C13 29.02 13 27.04 13 25 C8.877 28.725 6.525 32.301 4.188 37.312 C3.876 37.958 3.565 38.603 3.244 39.268 C2.487 40.841 1.742 42.42 1 44 C0.026 41.422 -0.119 40.307 0.891 37.695 C1.339 36.847 1.788 35.999 2.25 35.125 C6.467 26.363 10.196 14.587 7 5 C5.109 5.246 5.109 5.246 3 6 C1.953 7.848 1.953 7.848 1.25 10.062 C1.008 10.796 0.765 11.529 0.516 12.285 C0.431 12.568 0.431 12.568 0 14 C-0.33 14 -0.66 14 -1 14 C-0.67 9.38 -0.34 4.76 0 0 Z " fill="#2A660C" transform="translate(129,34)"/>
<path d="M0 0 C1.318 2.996 0.934 4.199 -0.125 7.375 C-2.712 12.854 -6.334 17.513 -12 20 C-15.25 20.25 -15.25 20.25 -18 20 C-19 19 -19 19 -19.328 16.262 C-18.912 12.122 -17.604 10.782 -14.75 7.812 C-14.356 7.393 -14.356 7.393 -12.359 5.27 C-8.08 1.153 -6.084 -0.415 0 0 Z " fill="#BADB5A" transform="translate(60,102)"/>
<path d="M0 0 C0.66 0.33 1.32 0.66 2 1 C1.37 5.066 0.052 8.328 -1.738 12.023 C-2.022 12.611 -2.022 12.611 -3.456 15.584 C-4.074 16.848 -4.693 18.112 -5.312 19.375 C-5.625 20.017 -5.938 20.658 -6.261 21.32 C-8.489 25.889 -10.74 30.447 -13 35 C-13.553 36.116 -14.106 37.233 -14.675 38.383 C-28.384 65.891 -28.384 65.891 -39 76 C-39.66 75.67 -40.32 75.34 -41 75 C-40.348 74.094 -39.695 73.188 -39.023 72.254 C-36.75 69.09 -34.489 65.917 -32.235 62.739 C-31.243 61.342 -30.245 59.95 -29.246 58.559 C-25.161 52.692 -22.067 46.374 -18.956 39.956 C-17.947 37.892 -16.918 35.84 -15.883 33.789 C-15.705 33.437 -15.705 33.437 -14.806 31.655 C-14.123 30.3 -13.438 28.947 -12.752 27.594 C-10.673 23.455 -8.787 19.274 -7 15 C-6.34 15 -5.68 15 -5 15 C-4.67 13.02 -4.34 11.04 -4 9 C-3.34 9 -2.68 9 -2 9 C-1.856 8.072 -1.711 7.144 -1.562 6.188 C-1 3 -1 3 0 0 Z " fill="#2B6018" transform="translate(137,76)"/>
<path d="M0 0 C-0.784 0.536 -1.567 1.073 -2.375 1.625 C-5.906 4.82 -6.678 7.802 -7.355 12.43 C-8.092 15.367 -9.145 16.86 -11.062 19.188 C-11.685 19.956 -12.308 20.724 -12.949 21.516 C-13.626 22.335 -14.303 23.155 -15 24 C-16.461 25.81 -17.92 27.623 -19.375 29.438 C-19.709 29.849 -19.709 29.849 -21.398 31.934 C-23 34 -23 34 -24 36 C-24.66 35.67 -25.32 35.34 -26 35 C-15.049 15.049 -15.049 15.049 -8 8 C-12.235 9.512 -13.598 12.359 -16 16 C-16.99 16.33 -17.98 16.66 -19 17 C-19.66 17.66 -20.32 18.32 -21 19 C-21.66 19 -22.32 19 -23 19 C-20.229 11.05 -14.056 4.957 -6.832 0.797 C-4.466 -0.232 -2.543 -0.397 0 0 Z " fill="#69A320" transform="translate(112,28)"/>
<path d="M0 0 C1.459 0.06 2.918 0.149 4.375 0.25 C4.781 0.273 4.781 0.273 6.836 0.391 C9 1 9 1 10.406 2.688 C11.235 5.914 10.363 7.692 9.125 10.75 C8.736 11.735 8.346 12.72 7.945 13.734 C7.633 14.482 7.321 15.23 7 16 C6.624 15.838 6.624 15.838 4.723 15.02 C2 14 2 14 -1.562 13.688 C-5 13 -5 13 -7.438 10.438 C-7.953 9.633 -8.469 8.829 -9 8 C-8.434 7.59 -7.868 7.18 -7.285 6.758 C-6.918 6.488 -6.918 6.488 -5.062 5.125 C-4.332 4.591 -3.601 4.058 -2.848 3.508 C-1 2 -1 2 0 0 Z " fill="#68A10E" transform="translate(123,16)"/>
<path d="M0 0 C0.99 0.33 1.98 0.66 3 1 C2.67 1.66 2.34 2.32 2 3 C2.99 3.66 3.98 4.32 5 5 C5 5.66 5 6.32 5 7 C6.072 6.959 7.145 6.918 8.25 6.875 C13.324 7.044 13.324 7.044 16 9 C16.165 9.495 16.165 9.495 17 12 C16.34 12.33 15.68 12.66 15 13 C14.835 12.67 14.835 12.67 14 11 C8.036 9.012 2.745 9.702 -3 12 C-1.71 10.624 -0.373 9.292 1 8 C1.66 8 2.32 8 3 8 C2.835 7.67 2.835 7.67 2 6 C-3.555 5.123 -7.04 7.274 -11.555 10.191 C-18.603 15.404 -22.703 22.489 -26.981 29.984 C-29.804 34.902 -29.804 34.902 -32 36 C-31.454 31.391 -29.446 28.048 -26.938 24.25 C-26.533 23.635 -26.129 23.019 -25.713 22.385 C-19.93 13.741 -14.415 7.609 -5 3 C-4.051 2.381 -3.102 1.762 -2.125 1.125 C-1.424 0.754 -0.722 0.383 0 0 Z " fill="#377416" transform="translate(113,22)"/>
<path d="M0 0 C0.66 0.99 1.32 1.98 2 3 C1.539 4.945 1.539 4.945 0.625 7.125 C-1.319 12.421 -2.372 17.957 0.02 23.262 C0.343 23.835 0.667 24.409 1 25 C1.99 25 2.98 25 4 25 C4.66 21.7 5.32 18.4 6 15 C6.33 15 6.66 15 7 15 C6.451 21.352 5.835 27.679 5 34 C3.333 33 1.667 32 0 31 C-0.87 30.624 -1.74 30.247 -2.637 29.859 C-5 28 -5 28 -5.664 24.629 C-5.684 23.274 -5.669 21.917 -5.625 20.562 C-5.615 19.855 -5.606 19.148 -5.596 18.42 C-5.32 11.637 -3.172 5.981 0 0 Z " fill="#4E9211" transform="translate(25,117)"/>
<path d="M0 0 C0 5.531 -5.329 9.162 -9 13 C-9.535 13.568 -10.07 14.135 -10.622 14.72 C-12.318 16.514 -14.031 18.29 -15.75 20.062 C-16.292 20.635 -16.835 21.207 -17.393 21.796 C-20.484 24.931 -22.573 26.631 -27 27 C-27.99 27.33 -28.98 27.66 -30 28 C-30 27.34 -30 26.68 -30 26 C-31.32 26.33 -32.64 26.66 -34 27 C-32.63 23.839 -32.011 23.007 -29 21 C-28.34 21 -27.68 21 -27 21 C-26.278 20.402 -25.556 19.804 -24.812 19.188 C-21.574 16.669 -18.853 15.381 -15 14 C-14.34 14.33 -13.68 14.66 -13 15 C-12.87 14.7 -12.87 14.7 -12.211 13.184 C-10.917 10.851 -9.705 9.702 -7.625 8.062 C-4.659 5.629 -2.284 3.106 0 0 Z " fill="#7AB122" transform="translate(79,72)"/>
<path d="M0 0 C0.66 0.99 1.32 1.98 2 3 C1.05 4.339 0.089 5.671 -0.875 7 C-1.409 7.743 -1.942 8.485 -2.492 9.25 C-2.99 9.827 -3.487 10.405 -4 11 C-4.66 11 -5.32 11 -6 11 C-6.236 11.568 -6.472 12.137 -6.715 12.723 C-11.348 20.933 -21.211 27.07 -30 30 C-30 30.66 -30 31.32 -30 32 C-30.639 31.814 -31.279 31.629 -31.938 31.438 C-32.278 31.365 -32.278 31.365 -34 31 C-34.33 31.33 -34.66 31.66 -35 32 C-36.812 32.688 -36.812 32.688 -39 33 C-40.355 32.378 -41.692 31.716 -43 31 C-42.201 30.792 -41.402 30.585 -40.578 30.371 C-22.056 25.175 -11.037 15.04 0 0 Z " fill="#DFD6AF" transform="translate(106,141)"/>
<path d="M0 0 C2.188 0.312 2.188 0.312 4 1 C5.017 3.655 5.13 4.692 4.004 7.359 C3.528 8.148 3.053 8.937 2.562 9.75 C2.089 10.549 1.616 11.348 1.129 12.172 C0.756 12.775 0.384 13.378 0 14 C-0.66 14 -1.32 14 -2 14 C-2.33 13.34 -2.66 12.68 -3 12 C-3.99 12 -4.98 12 -6 12 C-7.352 13.75 -7.352 13.75 -8.625 16 C-9.396 17.345 -10.182 18.682 -11 20 C-11.33 20 -11.66 20 -12 20 C-12.451 16.454 -12.053 15.086 -10.137 11.992 C-9.328 10.964 -8.52 9.935 -7.688 8.875 C-6.887 7.841 -6.086 6.807 -5.262 5.742 C-1.66 1.375 -1.66 1.375 0 0 Z " fill="#98C537" transform="translate(109,36)"/>
<path d="M0 0 C1.312 3.937 0.243 6.125 -1 10 C0.815 9.835 0.815 9.835 10 9 C8.745 11.511 7.499 11.871 5 13 C5 13.66 5 14.32 5 15 C10.61 15 16.22 15 22 15 C22 15.66 22 16.32 22 17 C19.083 18.459 16.307 18.312 13.062 18.5 C6.33 18.89 6.33 18.89 3 20 C2.888 19.385 2.776 18.77 2.66 18.137 C2.015 15.492 1.359 13.366 0 11 C-2.882 9.344 -5.744 8.594 -9 8 C-9 6.35 -9 4.7 -9 3 C-8.34 3 -7.68 3 -7 3 C-7 4.32 -7 5.64 -7 7 C-5.188 6.875 -5.188 6.875 -3 6 C-1.25 2.938 -1.25 2.938 0 0 Z " fill="#387206" transform="translate(40,146)"/>
<path d="M0 0 C3.914 0.178 5.722 0.778 8.812 3.25 C11.013 6.016 11.806 7.508 12 11 C11 12 11 12 8.312 12.438 C4.238 11.899 2.826 10.636 0.129 7.664 C-1 6 -1 6 -1.438 3.188 C-1 1 -1 1 0 0 Z " fill="#CFA71E" transform="translate(31,154)"/>
<path d="M0 0 C0.66 0.33 1.32 0.66 2 1 C-7.956 10.898 -20.835 17.094 -34.938 17.25 C-38.326 17.202 -40.779 17.074 -44 16 C-44 15.34 -44 14.68 -44 14 C-43.698 13.998 -43.698 13.998 -42.171 13.988 C-16.146 13.677 -16.146 13.677 -5 4 C-4.67 3.34 -4.34 2.68 -4 2 C-2.062 0.812 -2.062 0.812 0 0 Z " fill="#35661C" transform="translate(91,156)"/>
<path d="M0 0 C2.95 1.37 5.565 2.826 8 5 C8 5.99 8 6.98 8 8 C7.34 8 6.68 8 6 8 C5.67 8.66 5.34 9.32 5 10 C5 9.34 5 8.68 5 8 C4.34 8 3.68 8 3 8 C3 9.98 3 11.96 3 14 C2.67 14.165 2.67 14.165 1 15 C0.67 14.01 0.34 13.02 0 12 C-0.33 12.495 -0.33 12.495 -2 15 C-2.99 14.67 -3.98 14.34 -5 14 C-4.546 12.415 -4.087 10.832 -3.625 9.25 C-3.37 8.368 -3.115 7.487 -2.852 6.578 C-2.079 4.239 -1.164 2.166 0 0 Z " fill="#5F980C" transform="translate(134,19)"/>
<path d="M0 0 C0.371 0.309 0.371 0.309 2.25 1.875 C4.488 3.604 6.437 4.861 9 6 C8.34 7.32 7.68 8.64 7 10 C5.68 10 4.36 10 3 10 C3 8.68 3 7.36 3 6 C2.34 6 1.68 6 1 6 C0.67 9.3 0.34 12.6 0 16 C-3.329 13.016 -5.321 10.154 -7 6 C-6.67 5.01 -6.34 4.02 -6 3 C-5.175 3.66 -5.175 3.66 -1 7 C-0.67 4.69 -0.34 2.38 0 0 Z " fill="#3E7B09" transform="translate(30,143)"/>
<path d="M0 0 C0.66 0 1.32 0 2 0 C1.967 2.051 1.935 4.102 1.902 6.152 C2 8 2 8 3 9 C4.682 9.233 6.371 9.413 8.062 9.562 C8.982 9.646 9.901 9.73 10.848 9.816 C11.558 9.877 12.268 9.938 13 10 C10.228 12.984 7.986 13.984 4 15 C2 15.032 -0 15.036 -2 15 C-1.859 13.062 -1.712 11.125 -1.562 9.188 C-1.481 8.109 -1.4 7.03 -1.316 5.918 C-1 3 -1 3 0 0 Z " fill="#458810" transform="translate(41,141)"/>
<path d="M0 0 C0.33 0 0.66 0 1 0 C1 4.29 1 8.58 1 13 C3.64 13 6.28 13 9 13 C8.67 14.98 8.34 16.96 8 19 C5.127 19.878 3.618 20.289 0.848 18.992 C-1.436 16.529 -1.442 14.791 -1.4 11.502 C-1.371 10.821 -1.342 10.139 -1.312 9.438 C-1.303 8.752 -1.293 8.067 -1.283 7.361 C-1.17 2.34 -1.17 2.34 0 0 Z " fill="#5FA617" transform="translate(32,128)"/>
<path d="M0 0 C1.65 0.33 3.3 0.66 5 1 C4.548 2.606 4.088 4.21 3.625 5.812 C3.37 6.706 3.115 7.599 2.852 8.52 C2 11 2 11 0 14 C-1.98 13.01 -3.96 12.02 -6 11 C-4.187 7.223 -2.093 3.627 0 0 Z " fill="#9AC725" transform="translate(129,18)"/>
<path d="M0 0 C0.33 0 0.66 0 1 0 C1.268 1.238 1.536 2.475 1.812 3.75 C2.657 7.151 3.698 9.314 6 12 C6.268 12.619 6.536 13.238 6.812 13.875 C10.797 21.005 16.571 23.504 24 26 C24 26.33 24 26.66 24 27 C18.895 27.638 15.124 25.825 11 23 C5.503 18.012 0.953 12.264 -1 5 C-0.75 1.938 -0.75 1.938 0 0 Z " fill="#2B6111" transform="translate(22,143)"/>
<path d="M0 0 C6.517 0.337 9.325 1.442 14 6 C13.67 7.32 13.34 8.64 13 10 C12.34 9.01 11.68 8.02 11 7 C10.67 7.495 10.67 7.495 9 10 C8.34 8.35 7.68 6.7 7 5 C5.109 5.246 5.109 5.246 3 6 C1.953 7.848 1.953 7.848 1.25 10.062 C1.008 10.796 0.765 11.529 0.516 12.285 C0.431 12.568 0.431 12.568 0 14 C-0.33 14 -0.66 14 -1 14 C-0.67 9.38 -0.34 4.76 0 0 Z " fill="#255D06" transform="translate(129,34)"/>
<path d="M0 0 C0.99 0.33 1.98 0.66 3 1 C2.261 1.62 1.523 2.24 0.762 2.879 C-7.532 10.048 -13.815 17.978 -20 27 C-20.575 25.133 -20.575 25.133 -21 23 C-16.047 14.21 -7.192 6.994 0 0 Z " fill="#357318" transform="translate(47,92)"/>
<path d="M0 0 C0.99 0.33 1.98 0.66 3 1 C3 1.99 3 2.98 3 4 C2.257 4.433 1.515 4.866 0.75 5.312 C-2.588 7.361 -3.883 9.754 -6 13 C-6.99 13.33 -7.98 13.66 -9 14 C-9.66 14.66 -10.32 15.32 -11 16 C-11.66 16 -12.32 16 -13 16 C-11.643 12.028 -9.883 9.406 -7.062 6.312 C-6.718 5.929 -6.718 5.929 -4.973 3.988 C-3 2 -3 2 0 0 Z " fill="#74AC21" transform="translate(102,31)"/>
<path d="M0 0 C0.66 0.99 1.32 1.98 2 3 C1.355 5.426 1.355 5.426 0.188 8.312 C-2.308 15.177 -2.785 21.743 -3 29 C-3.66 28.67 -4.32 28.34 -5 28 C-5.601 17.476 -5.072 9.565 0 0 Z " fill="#417826" transform="translate(25,117)"/>
<path d="M0 0 C1.65 0 3.3 0 5 0 C5 3.96 5 7.92 5 12 C1 10 1 10 0 9 C-2.328 8.632 -4.662 8.298 -7 8 C-5.68 6.02 -4.36 4.04 -3 2 C-2.34 3.32 -1.68 4.64 -1 6 C-0.67 4.02 -0.34 2.04 0 0 Z " fill="#548B0C" transform="translate(137,27)"/>
<path d="M0 0 C0.545 0.254 1.091 0.508 1.652 0.77 C7.007 3.213 12.383 5.247 18 7 C14.576 9.283 13.102 9.094 9.141 8.492 C5.861 7.738 3.031 6.452 0 5 C0 3.35 0 1.7 0 0 Z " fill="#E5DDB9" transform="translate(32,165)"/>
<path d="M0 0 C0.99 0.33 1.98 0.66 3 1 C3.33 1.99 3.66 2.98 4 4 C9.61 4 15.22 4 21 4 C21 4.66 21 5.32 21 6 C18.083 7.459 15.307 7.312 12.062 7.5 C5.33 7.89 5.33 7.89 2 9 C1.34 6.03 0.68 3.06 0 0 Z " fill="#2D6D09" transform="translate(41,157)"/>
<path d="M0 0 C1.98 0 3.96 0 6 0 C6.33 0.99 6.66 1.98 7 3 C6.216 3.413 5.433 3.825 4.625 4.25 C1.847 6.102 1.293 7.044 0 10 C-1.625 11.75 -1.625 11.75 -3 13 C-3.99 12.67 -4.98 12.34 -6 12 C-5.34 11.34 -4.68 10.68 -4 10 C-3.845 9.505 -3.845 9.505 -3.062 7 C-2 4 -2 4 1 2 C0.67 1.34 0.34 0.68 0 0 Z " fill="#559416" transform="translate(109,27)"/>
<path d="M0 0 C8.814 -0.294 8.814 -0.294 12 2 C13.564 5.127 13.4 8.58 13 12 C12.67 12.495 12.67 12.495 11 15 C10.34 11.04 9.68 7.08 9 3 C8.175 3.495 8.175 3.495 4 6 C3.01 6 2.02 6 1 6 C2.32 4.35 3.64 2.7 5 1 C3.35 1 1.7 1 0 1 C0 0.67 0 0.34 0 0 Z " fill="#46890F" transform="translate(116,31)"/>
<path d="M0 0 C2.625 0.023 2.625 0.023 6 0.375 C14.676 1.142 23.296 1.089 32 1 C32 1.33 32 1.66 32 2 C28.419 2.818 25.108 3.128 21.438 3.133 C20.915 3.133 20.915 3.133 18.273 3.137 C17.193 3.133 16.113 3.129 15 3.125 C14.46 3.127 14.46 3.127 11.727 3.137 C10.682 3.135 9.638 3.134 8.562 3.133 C7.615 3.132 6.668 3.131 5.691 3.129 C3.032 3.002 0.592 2.592 -2 2 C-1.34 1.34 -0.68 0.68 0 0 Z " fill="#F6EBD4" transform="translate(47,173)"/>
<path d="M0 0 C0.66 0 1.32 0 2 0 C1.388 3.92 -0.537 6.416 -2.875 9.562 C-3.574 10.513 -4.272 11.463 -4.992 12.441 C-6.575 14.459 -8.132 16.255 -10 18 C-10.66 17.67 -11.32 17.34 -12 17 C-11.301 16.024 -10.603 15.048 -9.883 14.043 C-8.964 12.758 -8.044 11.473 -7.125 10.188 C-6.665 9.545 -6.205 8.902 -5.73 8.24 C-5.286 7.618 -4.841 6.996 -4.383 6.355 C-3.974 5.785 -3.566 5.214 -3.145 4.626 C-2.071 3.101 -1.034 1.551 0 0 Z " fill="#25590F" transform="translate(108,134)"/>
<path d="M0 0 C0.66 0.33 1.32 0.66 2 1 C1.564 1.606 1.129 2.212 0.68 2.836 C-3.069 8.111 -6.536 13.442 -9.738 19.066 C-11 21 -11 21 -13 22 C-12.473 17.222 -10.228 13.788 -7.625 9.875 C-7.225 9.255 -6.826 8.635 -6.414 7.996 C-4.498 5.065 -2.634 2.328 0 0 Z " fill="#2B6817" transform="translate(94,36)"/>
<path d="M0 0 C0.66 0.33 1.32 0.66 2 1 C-0.167 3.275 -2.396 5.236 -5 7 C-5.66 7 -6.32 7 -7 7 C-7 7.66 -7 8.32 -7 9 C-7.639 8.814 -8.279 8.629 -8.938 8.438 C-9.278 8.365 -9.278 8.365 -11 8 C-11.33 8.33 -11.66 8.66 -12 9 C-13.812 9.688 -13.812 9.688 -16 10 C-17.355 9.378 -18.692 8.716 -20 8 C-19.571 7.879 -19.571 7.879 -17.402 7.266 C-6.912 4.191 -6.912 4.191 -2.812 1.688 C-2.348 1.409 -2.348 1.409 0 0 Z " fill="#D0CBA0" transform="translate(83,164)"/>
<path d="M0 0 C0.66 0.33 1.32 0.66 2 1 C-5.74 8.695 -14.867 14.572 -26 15 C-21.793 12.801 -17.388 11.145 -12.973 9.414 C-9.272 7.654 -5.877 5.753 -4 2 C-2.062 0.812 -2.062 0.812 0 0 Z " fill="#184D09" transform="translate(91,156)"/>
<path d="M0 0 C1.32 0 2.64 0 4 0 C2.46 3.465 0.651 6.276 -2 9 C-5.25 9.812 -5.25 9.812 -8 10 C-8 9.01 -8 8.02 -8 7 C-6.027 5.627 -4.025 4.296 -2 3 C-1.34 2.01 -0.68 1.02 0 0 Z " fill="#A8D427" transform="translate(123,16)"/>
<path d="M0 0 C0.66 0.33 1.32 0.66 2 1 C2.557 0.99 2.557 0.99 5.375 0.938 C8.734 0.995 10.334 1.052 13 3 C13.33 3.99 13.66 4.98 14 6 C13.67 6.165 13.67 6.165 12 7 C11.67 6.34 11.34 5.68 11 5 C5.036 3.012 -0.255 3.702 -6 6 C-4.71 4.624 -3.373 3.292 -2 2 C-1.34 2 -0.68 2 0 2 C0 1.34 0 0.68 0 0 Z " fill="#397808" transform="translate(116,28)"/>
<path d="M0 0 C3.77 0.41 5.801 0.867 9 3 C8.67 4.32 8.34 5.64 8 7 C7.34 7 6.68 7 6 7 C6 6.34 6 5.68 6 5 C3.69 5.33 1.38 5.66 -1 6 C-1.043 4.334 -1.041 2.666 -1 1 C-0.67 0.67 -0.34 0.34 0 0 Z " fill="#DAA91F" transform="translate(31,154)"/>
<path d="M0 0 C-14.716 8.802 -14.716 8.802 -23 8 C-19.183 5.455 -15.197 3.974 -10.938 2.312 C-10.109 1.979 -9.281 1.646 -8.428 1.303 C-7.636 0.993 -6.843 0.683 -6.027 0.363 C-5.665 0.22 -5.665 0.22 -3.832 -0.503 C-2 -1 -2 -1 0 0 Z " fill="#F5EAD3" transform="translate(114,162)"/>
<path d="M0 0 C0.99 0.33 1.98 0.66 3 1 C1.781 5.033 0.44 8.543 -2 12 C-2.66 12 -3.32 12 -4 12 C-4.33 10.68 -4.66 9.36 -5 8 C-3.68 7.34 -2.36 6.68 -1 6 C-1.021 5.196 -1.041 4.391 -1.062 3.562 C-1 1 -1 1 0 0 Z " fill="#98C73D" transform="translate(111,38)"/>
<path d="M0 0 C2.95 1.369 5.525 2.878 8 5 C8 5.66 8 6.32 8 7 C6.35 6.67 4.7 6.34 3 6 C3 5.01 3 4.02 3 3 C2.34 3 1.68 3 1 3 C0.67 4.98 0.34 6.96 0 9 C-0.99 8.67 -1.98 8.34 -3 8 C-1.125 2.25 -1.125 2.25 0 0 Z " fill="#72A916" transform="translate(134,19)"/>
<path d="M0 0 C0.66 0.33 1.32 0.66 2 1 C-4.266 7.445 -4.266 7.445 -8 10 C-8.99 9.67 -9.98 9.34 -11 9 C-9.731 7.873 -8.46 6.748 -7.188 5.625 C-6.48 4.999 -5.772 4.372 -5.043 3.727 C-3 2 -3 2 0 0 Z " fill="#3D6F24" transform="translate(105,26)"/>
<path d="M0 0 C0.99 0.33 1.98 0.66 3 1 C0.855 2.98 0.855 2.98 -10 13 C-10.66 12.67 -11.32 12.34 -12 12 C-8.04 8.04 -4.08 4.08 0 0 Z " fill="#286B0D" transform="translate(47,92)"/>
<path d="M0 0 C0.541 0.276 1.083 0.552 1.641 0.836 C4.319 2.157 7.029 3.394 9.75 4.625 C10.242 4.848 10.242 4.848 12.734 5.977 C13.108 6.145 13.108 6.145 15 7 C15 7.33 15 7.66 15 8 C10.103 8.612 5.94 6.818 2 4 C0.762 1.859 0.762 1.859 0 0 Z " fill="#27500E" transform="translate(31,162)"/>
<path d="M0 0 C-1.37 3.161 -1.989 3.993 -5 6 C-7.188 5.625 -7.188 5.625 -9 5 C-6.816 0.164 -5.206 -0.137 0 0 Z " fill="#7FBA29" transform="translate(47,107)"/>
<path d="M0 0 C2.31 0.66 4.62 1.32 7 2 C6.34 3.65 5.68 5.3 5 7 C3.68 7 2.36 7 1 7 C0.67 4.69 0.34 2.38 0 0 Z " fill="#438B09" transform="translate(32,146)"/>
<path d="M0 0 C2.296 3.445 2.54 5.938 3 10 C2.01 10.33 1.02 10.66 0 11 C0 9.02 0 7.04 0 5 C-0.66 4.67 -1.32 4.34 -2 4 C-1.34 2.68 -0.68 1.36 0 0 Z " fill="#336A19" transform="translate(142,54)"/>
<path d="M0 0 C1.32 0.66 2.64 1.32 4 2 C3.01 2 2.02 2 1 2 C0.773 2.598 0.546 3.196 0.312 3.812 C-1.338 6.564 -3.197 7.525 -6 9 C-6.66 8.34 -7.32 7.68 -8 7 C-7.237 6.587 -6.474 6.175 -5.688 5.75 C-3.063 4.041 -1.697 2.59 0 0 Z " fill="#56891D" transform="translate(122,14)"/>
<path d="M0 0 C1.32 0.33 2.64 0.66 4 1 C4.382 2.656 4.714 4.325 5 6 C4 7 4 7 0.938 7.062 C0.453 7.052 0.453 7.052 -2 7 C-1.01 6.67 -0.02 6.34 1 6 C0.67 4.02 0.34 2.04 0 0 Z " fill="#BF9B16" transform="translate(38,159)"/>
<path d="M0 0 C0 3 0 3 -1.68 4.824 C-2.404 5.439 -3.129 6.054 -3.875 6.688 C-4.594 7.31 -5.314 7.933 -6.055 8.574 C-8 10 -8 10 -10 10 C-8.574 6.548 -6.903 4.899 -3.875 2.75 C-3.151 2.229 -2.426 1.708 -1.68 1.172 C-1.125 0.785 -0.571 0.398 0 0 Z " fill="#48861C" transform="translate(93,150)"/>
<path d="M0 0 C0.66 0.99 1.32 1.98 2 3 C0.02 5.97 -1.96 8.94 -4 12 C-4.66 11.34 -5.32 10.68 -6 10 C-4.02 6.7 -2.04 3.4 0 0 Z " fill="#E5E3C9" transform="translate(113,130)"/>
<path d="M0 0 C0.99 0.33 1.98 0.66 3 1 C1.625 3 1.625 3 0 5 C-0.66 5 -1.32 5 -2 5 C-2 6.98 -2 8.96 -2 11 C-2.33 11.165 -2.33 11.165 -4 12 C-3.969 11.608 -3.969 11.608 -3.812 9.625 C-3.874 8.759 -3.936 7.892 -4 7 C-4.99 6.34 -5.98 5.68 -7 5 C-5.68 5 -4.36 5 -3 5 C-2.67 4.01 -2.34 3.02 -2 2 C-1.34 2 -0.68 2 0 2 C0 1.34 0 0.68 0 0 Z " fill="#A4CE40" transform="translate(64,96)"/>
<path d="M0 0 C0 3.54 -0.734 4.411 -2.812 7.188 C-3.335 7.903 -3.857 8.618 -4.395 9.355 C-4.924 9.898 -5.454 10.441 -6 11 C-6.99 11 -7.98 11 -9 11 C-6.03 7.37 -3.06 3.74 0 0 Z " fill="#9FCD3D" transform="translate(85,67)"/>
<path d="M0 0 C1.125 1.562 1.125 1.562 2 4 C1.125 7.75 1.125 7.75 0 11 C-0.825 10.67 -0.825 10.67 -5 9 C-4.361 8.072 -3.721 7.144 -3.062 6.188 C-1 3 -1 3 0 0 Z " fill="#91C01E" transform="translate(130,21)"/>
<path d="M0 0 C0.99 0.33 1.98 0.66 3 1 C1.882 2.339 0.755 3.671 -0.375 5 C-1.001 5.742 -1.628 6.485 -2.273 7.25 C-2.558 7.539 -2.558 7.539 -4 9 C-4.66 9 -5.32 9 -6 9 C-4.688 5.063 -3.081 2.773 0 0 Z " fill="#A9D349" transform="translate(102,35)"/>
<path d="M0 0 C2.64 0 5.28 0 8 0 C8.33 0.99 8.66 1.98 9 3 C4.375 6 4.375 6 1 6 C2.32 4.35 3.64 2.7 5 1 C3.35 1 1.7 1 0 1 C0 0.67 0 0.34 0 0 Z " fill="#529412" transform="translate(116,31)"/>
<path d="M0 0 C0.66 1.32 1.32 2.64 2 4 C2.66 2.68 3.32 1.36 4 0 C4 2.31 4 4.62 4 7 C1.36 6.67 -1.28 6.34 -4 6 C-2.68 4.02 -1.36 2.04 0 0 Z " fill="#4C8108" transform="translate(134,29)"/>
<path d="M0 0 C1.65 0.33 3.3 0.66 5 1 C4.34 2.65 3.68 4.3 3 6 C1.68 5.67 0.36 5.34 -1 5 C-0.67 3.35 -0.34 1.7 0 0 Z " fill="#A8D12D" transform="translate(129,18)"/>
<path d="M0 0 C0.66 0.99 1.32 1.98 2 3 C1.539 5.262 1.539 5.262 0.625 7.688 C0.477 8.092 0.477 8.092 -0.273 10.137 C-0.513 10.752 -0.753 11.366 -1 12 C-3.102 8.391 -3.102 8.391 -2.188 4.875 C-1.508 3.229 -0.797 1.593 0 0 Z " fill="#4C8226" transform="translate(25,117)"/>
<path d="M0 0 C0.66 0 1.32 0 2 0 C0.758 3.439 -0.557 6.252 -3 9 C-3.66 9 -4.32 9 -5 9 C-4.188 6.062 -4.188 6.062 -3 3 C-2.01 2.67 -1.02 2.34 0 2 C0 1.34 0 0.68 0 0 Z " fill="#AAD448" transform="translate(80,78)"/>
<path d="M0 0 C0.66 0.99 1.32 1.98 2 3 C-1.625 7.875 -1.625 7.875 -5 9 C-3.751 5.541 -2.325 2.853 0 0 Z " fill="#E4DEBB" transform="translate(106,141)"/>
<path d="M0 0 C0.66 0 1.32 0 2 0 C1.435 3.958 0.191 6.666 -2 10 C-2.688 8.375 -2.688 8.375 -3 6 C-1.562 2.75 -1.562 2.75 0 0 Z " fill="#20580F" transform="translate(124,104)"/>
<path d="M0 0 C0.66 0 1.32 0 2 0 C0.606 4.435 -1.606 6.874 -5 10 C-4.385 6.001 -2.397 3.196 0 0 Z " fill="#609D1B" transform="translate(99,42)"/>
<path d="M0 0 C0.99 0.33 1.98 0.66 3 1 C3.73 2.848 3.73 2.848 4.188 5.062 C4.346 5.796 4.505 6.529 4.668 7.285 C4.723 7.568 4.723 7.568 5 9 C4.01 9 3.02 9 2 9 C1.34 6.03 0.68 3.06 0 0 Z " fill="#2D5704" transform="translate(41,157)"/>
<path d="M0 0 C0.66 0.33 1.32 0.66 2 1 C1.435 4.958 0.191 7.666 -2 11 C-3 9 -3 9 -2.441 6.836 C-2.151 6.024 -1.861 5.212 -1.562 4.375 C-1.275 3.558 -0.988 2.74 -0.691 1.898 C-0.463 1.272 -0.235 0.645 0 0 Z " fill="#215A12" transform="translate(137,76)"/>
<path d="M0 0 C0.66 0.33 1.32 0.66 2 1 C0.68 2.155 0.68 2.155 -6 8 C-6 5 -6 5 -4 2 C-2 0.75 -2 0.75 0 0 Z " fill="#26590F" transform="translate(91,156)"/>
<path d="M0 0 C0.66 0.33 1.32 0.66 2 1 C-0.188 3.562 -0.188 3.562 -3 6 C-5.812 5.812 -5.812 5.812 -8 5 C-7.67 4.34 -7.34 3.68 -7 3 C-6.01 3.33 -5.02 3.66 -4 4 C-2.68 2.68 -1.36 1.36 0 0 Z " fill="#94CA1C" transform="translate(122,20)"/>
<path d="M0 0 C0.33 0.66 0.66 1.32 1 2 C0.004 3.945 0.004 3.945 -1.438 6.125 C-1.911 6.849 -2.384 7.574 -2.871 8.32 C-3.244 8.875 -3.616 9.429 -4 10 C-4.33 9.34 -4.66 8.68 -5 8 C-3.623 4.852 -2.438 2.438 0 0 Z " fill="#80B728" transform="translate(96,52)"/>
<path d="M0 0 C1.32 0.66 2.64 1.32 4 2 C3.67 2.165 3.67 2.165 2 3 C1.375 5.062 1.375 5.062 1 7 C0.34 7 -0.32 7 -1 7 C-1.625 4.625 -1.625 4.625 -2 2 C-1.34 1.34 -0.68 0.68 0 0 Z " fill="#89B532" transform="translate(109,36)"/>
<path d="M0 0 C0.66 0.33 1.32 0.66 2 1 C0.35 3.31 -1.3 5.62 -3 8 C-3.99 7.67 -4.98 7.34 -6 7 C-4.02 4.69 -2.04 2.38 0 0 Z " fill="#31651F" transform="translate(94,36)"/>
<path d="M0 0 C-1.507 3.013 -4.032 3.611 -7 5 C-7 4.34 -7 3.68 -7 3 C-7.66 2.34 -8.32 1.68 -9 1 C-5.927 0.089 -3.199 -0.089 0 0 Z " fill="#2E6E0A" transform="translate(50,155)"/>
<path d="M0 0 C0.66 0.33 1.32 0.66 2 1 C-0.657 4.739 -2.581 6.65 -7 8 C-6.021 6.854 -5.042 5.708 -4.062 4.562 C-3.517 3.924 -2.972 3.286 -2.41 2.629 C-1.632 1.73 -0.841 0.841 0 0 Z " fill="#90C12F" transform="translate(67,77)"/>
<path d="M0 0 C2.64 0 5.28 0 8 0 C8.66 1.32 9.32 2.64 10 4 C9.67 4.165 9.67 4.165 8 5 C7.67 4.34 7.34 3.68 7 3 C4.686 2.269 2.352 1.599 0 1 C0 0.67 0 0.34 0 0 Z " fill="#2F6B05" transform="translate(120,30)"/>
<path d="M0 0 C0.33 0.99 0.66 1.98 1 3 C-0.438 5.187 -0.438 5.187 -2 7 C-3.32 6.67 -4.64 6.34 -6 6 C-4 4 -2 2 0 0 Z " fill="#7DB416" transform="translate(125,19)"/>
<path d="M0 0 C2.125 0.375 2.125 0.375 4 1 C3 3 3 3 1 6 C0.01 4.68 -0.98 3.36 -2 2 C-1.34 1.34 -0.68 0.68 0 0 Z " fill="#C29D1A" transform="translate(33,158)"/>
<path d="M0 0 C0.99 0 1.98 0 3 0 C2.34 1.65 1.68 3.3 1 5 C0.01 5 -0.98 5 -2 5 C-1.34 3.35 -0.68 1.7 0 0 Z " fill="#A1CF41" transform="translate(40,125)"/>
<path d="M0 0 C0.66 0 1.32 0 2 0 C2.33 0.99 2.66 1.98 3 3 C1.35 4.32 -0.3 5.64 -2 7 C-1.125 2.25 -1.125 2.25 0 0 Z " fill="#619E18" transform="translate(30,121)"/>
<path d="M0 0 C0.66 0 1.32 0 2 0 C1.188 2.438 1.188 2.438 0 5 C-0.99 5.33 -1.98 5.66 -3 6 C-2.427 3.133 -2.139 2.139 0 0 Z " fill="#ACD649" transform="translate(71,88)"/>
<path d="M0 0 C0.66 0.99 1.32 1.98 2 3 C1.68 3.392 1.68 3.392 0.062 5.375 C-2 8 -2 8 -3 10 C-3.66 9.67 -4.32 9.34 -5 9 C-3.35 6.03 -1.7 3.06 0 0 Z " fill="#72AA1F" transform="translate(91,54)"/>
</svg>
