<?xml version="1.0" encoding="UTF-8"?>
<!-- Generator: visioncortex VTracer 0.6.12 -->
<svg version="1.1" xmlns="http://www.w3.org/2000/svg" width="164" height="170">
<path d="M0 0 C54.12 0 108.24 0 164 0 C164 56.1 164 112.2 164 170 C109.88 170 55.76 170 0 170 C0 113.9 0 57.8 0 0 Z " fill="#FCF6EB" transform="translate(0,0)"/>
<path d="M0 0 C0.91 0.008 1.82 0.015 2.758 0.023 C22.961 0.508 42.153 8.393 56.289 22.918 C64.525 32.619 67.429 41.25 67.441 53.738 C66.619 59.106 64.285 62.165 60.312 65.75 C53.529 70.447 43.652 68.852 35.875 67.438 C34.926 68.909 33.991 70.39 33.062 71.875 C32.54 72.699 32.018 73.522 31.48 74.371 C27.257 82.438 25.819 91.202 24.062 100.062 C20.523 117.03 16.936 132.208 1.688 142.5 C-5.987 147.198 -17.459 146.274 -26.008 145.012 C-34.951 142.727 -43.166 136.225 -48.125 128.438 C-51.528 120.118 -51.468 109.989 -48.156 101.617 C-45.709 96.444 -42.892 91.502 -40.035 86.547 C-35.502 78.672 -31.189 71.023 -28.125 62.438 C-27.84 61.767 -27.555 61.097 -27.262 60.406 C-25.064 55.156 -24.461 50.098 -24.125 44.438 C-24.723 44.324 -24.723 44.324 -27.75 43.75 C-33.456 42.306 -36.651 39.599 -40 34.688 C-41.71 29.748 -42.262 25.281 -40.281 20.328 C-34.194 9.716 -24.187 4.402 -12.836 1.075 C-8.542 0.066 -4.396 -0.052 0 0 Z " fill="#FCEDC9" transform="translate(76.125,10.5625)"/>
<path d="M0 0 C0.91 0.008 1.82 0.015 2.758 0.023 C22.961 0.508 42.153 8.393 56.289 22.918 C64.525 32.619 67.429 41.25 67.441 53.738 C66.619 59.106 64.285 62.165 60.312 65.75 C56.503 68.387 53.528 68.597 49 68.625 C47.971 68.639 46.943 68.653 45.883 68.668 C42.82 68.433 40.643 67.729 37.875 66.438 C37.875 65.448 37.875 64.457 37.875 63.438 C40.781 60.635 41.663 60.438 45.875 60.438 C43.456 55.166 39.8 53.17 34.938 50.438 C34.174 50 33.411 49.563 32.624 49.113 C17.037 40.336 -0.253 34.48 -18.188 33.812 C-18.62 33.793 -18.62 33.793 -20.811 33.695 C-22.915 33.602 -25.02 33.519 -27.125 33.438 C-26.135 36.737 -25.145 40.038 -24.125 43.438 C-28.466 44.089 -30.833 43.282 -34.312 40.812 C-38.338 37.511 -40.606 34.603 -41.469 29.34 C-41.894 23.145 -40.079 19.129 -36.125 14.438 C-26.405 4.282 -13.932 -0.165 0 0 Z " fill="#9D652A" transform="translate(76.125,10.5625)"/>
<path d="M0 0 C10.824 -0.306 20.589 -0.35 31 3 C32.008 3.267 33.016 3.534 34.055 3.809 C47.158 7.413 63.279 14.279 73 24 C73 24.99 73 25.98 73 27 C71.866 27.433 70.731 27.866 69.562 28.312 C68.387 28.869 67.211 29.426 66 30 C65.835 30.495 65.835 30.495 65 33 C64.618 33.34 64.618 33.34 62.688 35.062 C59.117 38.965 57.76 43.081 56 48 C55.678 48.751 55.357 49.502 55.025 50.276 C53.923 53.205 53.295 56.014 52.703 59.086 C44.922 98.19 44.922 98.19 28.812 109.062 C21.138 113.761 9.666 112.837 1.117 111.574 C-7.826 109.289 -16.041 102.787 -21 95 C-24.403 86.68 -24.343 76.551 -21.031 68.18 C-18.584 63.007 -15.767 58.065 -12.91 53.109 C-8.377 45.234 -4.064 37.586 -1 29 C-0.715 28.33 -0.43 27.659 -0.137 26.969 C2.061 21.719 2.664 16.66 3 11 C2.34 10.67 1.68 10.34 1 10 C1 8.68 1 7.36 1 6 C0.692 3.996 0.363 1.995 0 0 Z M6 14 C5.769 14.944 5.539 15.887 5.301 16.859 C3.393 24.439 1.161 31.548 -2.047 38.707 C-3 41 -3 41 -3 43 C-3.66 43 -4.32 43 -5 43 C-6.756 46.142 -8.504 49.29 -10.25 52.438 C-10.741 53.316 -11.232 54.194 -11.738 55.1 C-18.447 67.221 -22.439 76.566 -20.5 90.625 C-16.172 100.363 -8.318 105.398 1.188 109.312 C12.197 111.298 21.602 110.595 31.145 104.668 C37.603 99.79 41.32 92.504 44 85 C44.188 81.063 44.188 81.063 44 78 C41.745 80.594 40.398 83.244 39.062 86.375 C37.398 90.236 35.483 93.586 33 97 C32.361 97.887 31.721 98.774 31.062 99.688 C26.574 104.72 22.509 105.403 16.012 105.887 C15.348 105.924 14.684 105.961 14 106 C14 105.34 14 104.68 14 104 C14.99 103.67 15.98 103.34 17 103 C16.67 102.835 16.67 102.835 15 102 C16.807 99.992 18.373 98.788 20.75 97.438 C34.119 88.536 37.337 68.275 40.733 53.819 C42.503 46.456 44.873 39.769 48.094 32.926 C49 30 49 30 48.344 27.168 C47 25 47 25 44 24 C43.34 24.99 42.68 25.98 42 27 C42 24.69 42 22.38 42 20 C41.01 19.67 40.02 19.34 39 19 C38.67 19.33 38.34 19.66 38 20 C37.792 19.769 37.792 19.769 36.738 18.602 C30.443 12.802 20.615 12.89 12.586 12.867 C10.238 12.988 8.246 13.336 6 14 Z M44 75 C45 78 45 78 45 78 Z " fill="#EDD096" transform="translate(49,44)"/>
<path d="M0 0 C1.98 0 3.96 0 6 0 C6.33 53.79 6.66 107.58 7 163 C10.696 163.924 13.435 164.115 17.209 164.098 C18.484 164.094 19.76 164.091 21.074 164.088 C21.76 164.084 22.446 164.08 23.154 164.075 C25.361 164.062 27.568 164.055 29.776 164.05 C32.982 164.042 36.188 164.031 39.394 164.018 C47.965 163.986 56.535 163.974 65.105 163.969 C65.992 163.968 66.878 163.968 67.792 163.967 C88.613 163.96 109.431 164.206 130.25 164.5 C131.106 164.512 131.962 164.524 132.844 164.536 C143.229 164.683 153.615 164.837 164 165 C164 166.65 164 168.3 164 170 C109.88 170 55.76 170 0 170 C0 113.9 0 57.8 0 0 Z " fill="#FDFDFC" transform="translate(0,0)"/>
<path d="M0 0 C3.742 1.449 3.742 1.449 4.789 3.688 C5.097 7.062 3.838 9.176 2.438 12.25 C-0.479 18.991 -2.316 25.797 -4 32.938 C-12.001 66.333 -12.001 66.333 -24.375 74 C-25.043 74.351 -25.71 74.701 -26.398 75.062 C-28 76 -28 76 -29 78 C-28.67 78.165 -28.67 78.165 -27 79 C-27.99 79.33 -28.98 79.66 -30 80 C-30 80.66 -30 81.32 -30 82 C-23.632 81.748 -18.95 81.387 -14 77 C-7.983 70.182 -4.462 62.309 -1 54 C-0.67 54 -0.34 54 0 54 C0.539 63.007 -3.457 70.756 -9.152 77.578 C-17.061 85.084 -24.776 86.613 -35.5 86.348 C-45.103 85.394 -53.582 81.242 -59.824 73.836 C-61.274 71.923 -62.664 69.993 -64 68 C-63.835 67.67 -63.835 67.67 -63 66 C-62.01 66 -61.02 66 -60 66 C-60 65.34 -60 64.68 -60 64 C-53.002 63.606 -47.493 64.372 -41 67 C-40.536 67.186 -40.536 67.186 -38.188 68.125 C-37.466 68.414 -36.744 68.702 -36 69 C-34.129 69.738 -34.129 69.738 -32 70 C-20.428 63.931 -15.687 48.657 -12 37 C-5.975 18.289 -5.975 18.289 -1.883 10.066 C-1 8 -1 8 -1 5 C-1.66 5.33 -2.32 5.66 -3 6 C-2 4 -1 2 0 0 Z " fill="#F3DAA4" transform="translate(93,68)"/>
<path d="M0 0 C10.824 -0.306 20.589 -0.35 31 3 C32.008 3.267 33.016 3.534 34.055 3.809 C47.158 7.413 63.279 14.279 73 24 C73 24.99 73 25.98 73 27 C71.866 27.433 70.731 27.866 69.562 28.312 C68.387 28.869 67.211 29.426 66 30 C65.835 30.495 65.835 30.495 65 33 C64.618 33.34 64.618 33.34 62.688 35.062 C59.117 38.965 57.76 43.081 56 48 C55.678 48.751 55.357 49.502 55.025 50.276 C53.923 53.205 53.295 56.014 52.703 59.086 C44.922 98.19 44.922 98.19 28.812 109.062 C21.138 113.761 9.666 112.837 1.117 111.574 C-7.826 109.289 -16.041 102.787 -21 95 C-24.403 86.68 -24.343 76.551 -21.031 68.18 C-18.584 63.007 -15.767 58.065 -12.91 53.109 C-8.377 45.234 -4.064 37.586 -1 29 C-0.715 28.33 -0.43 27.659 -0.137 26.969 C2.061 21.719 2.664 16.66 3 11 C2.34 10.67 1.68 10.34 1 10 C1 8.68 1 7.36 1 6 C0.692 3.996 0.363 1.995 0 0 Z M1 1 C1.66 1.33 2.32 1.66 3 2 C5.19 11.59 4.723 20.949 1 30 C0.264 31.977 -0.465 33.956 -1.188 35.938 C-1.532 36.854 -1.876 37.771 -2.23 38.715 C-3 41 -3 41 -3 43 C-3.66 43 -4.32 43 -5 43 C-6.756 46.142 -8.504 49.29 -10.25 52.438 C-10.741 53.316 -11.232 54.194 -11.738 55.1 C-18.447 67.221 -22.439 76.566 -20.5 90.625 C-16.172 100.363 -8.318 105.398 1.188 109.312 C12.241 111.306 21.472 110.503 31.109 104.738 C44.394 94.929 46.949 76.409 50.123 61.335 C51.755 53.679 53.636 46.679 56.943 39.524 C57.995 37.011 58.562 34.682 59 32 C57.35 32.99 55.7 33.98 54 35 C54 33.35 54 31.7 54 30 C53.34 30 52.68 30 52 30 C52.361 29.518 52.722 29.036 53.094 28.539 C53.558 27.907 54.022 27.276 54.5 26.625 C54.964 25.999 55.428 25.372 55.906 24.727 C57 23 57 23 57 21 C56.196 21 55.391 21 54.562 21 C53.375 21 52.188 21 51 21 C51 20.34 51 19.68 51 19 C50.031 18.546 49.061 18.093 48.062 17.625 C45 16 45 16 44 14 C39.546 12.428 35.713 11.77 31 12 C30.835 11.505 30.835 11.505 30 9 C28.02 9.33 26.04 9.66 24 10 C24 10.99 24 11.98 24 13 C23.34 13 22.68 13 22 13 C22 10.03 22 7.06 22 4 C20.68 4 19.36 4 18 4 C18 4.99 18 5.98 18 7 C17.34 7 16.68 7 16 7 C16 5.02 16 3.04 16 1 C11.05 1 6.1 1 1 1 Z " fill="#C7A25D" transform="translate(49,44)"/>
<path d="M0 0 C13.306 1.351 25.74 9.695 34.316 19.703 C36.36 22.398 38.214 25.129 40 28 C40.455 28.705 40.91 29.41 41.379 30.137 C44.02 34.968 44.396 39.753 44.5 45.188 C44.509 45.526 44.509 45.526 44.557 47.241 C44.492 52.274 43.114 55.115 40 59 C35.416 63.137 32.233 64.149 26.125 64.188 C25.096 64.202 24.068 64.216 23.008 64.23 C19.945 63.996 17.768 63.292 15 62 C15 61.01 15 60.02 15 59 C17.906 56.197 18.788 56 23 56 C20.581 50.729 16.925 48.732 12.062 46 C11.299 45.563 10.536 45.126 9.749 44.675 C-5.838 35.899 -23.128 30.043 -41.062 29.375 C-41.928 29.336 -42.794 29.298 -43.686 29.258 C-45.79 29.165 -47.895 29.081 -50 29 C-49.01 32.3 -48.02 35.6 -47 39 C-51.341 39.651 -53.708 38.844 -57.188 36.375 C-61.213 33.073 -63.481 30.166 -64.344 24.902 C-64.768 18.721 -62.936 14.691 -59 10 C-56.845 7.746 -54.725 5.543 -52 4 C-51.01 4.33 -50.02 4.66 -49 5 C-49.349 5.29 -49.349 5.29 -51.117 6.758 C-52.027 7.539 -52.937 8.32 -53.875 9.125 C-54.78 9.891 -55.685 10.656 -56.617 11.445 C-59.952 15.02 -60.824 18.273 -61.312 23.062 C-60.95 26.475 -60.087 28.294 -58 31 C-57.01 31.33 -56.02 31.66 -55 32 C-54.711 31.361 -54.422 30.721 -54.125 30.062 C-53 28 -53 28 -51 27 C-28.522 24.661 -5.258 31.481 14 43 C14 43.66 14 44.32 14 45 C14.681 45.186 15.361 45.371 16.062 45.562 C20.207 47.591 23.182 50.356 26 54 C27.506 58.988 27.506 58.988 26 62 C27.628 61.772 29.253 61.517 30.875 61.25 C31.78 61.111 32.685 60.972 33.617 60.828 C36 60 36 60 37.219 58.09 C37.477 57.4 37.734 56.711 38 56 C38.536 55.113 39.072 54.226 39.625 53.312 C42.326 46.806 41.373 40.77 39 34.277 C37.559 30.996 35.826 27.922 33.988 24.848 C33 23 33 23 33 21 C32.402 20.732 31.804 20.464 31.188 20.188 C29.002 19.001 27.587 17.904 26 16 C26 15.34 26 14.68 26 14 C25.502 13.751 25.005 13.502 24.492 13.246 C16.328 9.164 8.164 5.082 0 1 C0 0.67 0 0.34 0 0 Z " fill="#6A3E12" transform="translate(99,15)"/>
<path d="M0 0 C10.818 -0.306 20.597 -0.362 31 3 C32.043 3.29 33.086 3.58 34.16 3.879 C42.197 6.168 49.506 9.321 57 13 C57 14.32 57 15.64 57 17 C58.65 17.33 60.3 17.66 62 18 C61.67 18.66 61.34 19.32 61 20 C62.32 20.66 63.64 21.32 65 22 C63.68 23.65 62.36 25.3 61 27 C62.32 26.67 63.64 26.34 65 26 C65 28 65 28 63.125 30 C62.774 30.33 62.774 30.33 61 32 C60.34 32.66 59.68 33.32 59 34 C58.01 34 57.02 34 56 34 C55.01 34.66 54.02 35.32 53 36 C53.33 34.02 53.66 32.04 54 30 C53.34 30 52.68 30 52 30 C53.249 26.541 54.675 23.853 57 21 C54.69 21.66 52.38 22.32 50 23 C50.33 21.68 50.66 20.36 51 19 C50.031 18.732 49.061 18.464 48.062 18.188 C47.052 17.796 46.041 17.404 45 17 C44.835 16.505 44.835 16.505 44 14 C43.073 13.879 42.146 13.758 41.191 13.633 C40.593 13.549 40.593 13.549 37.562 13.125 C36.368 12.963 35.173 12.8 33.941 12.633 C32.971 12.424 32 12.215 31 12 C30.67 11.34 30.34 10.68 30 10 C28.02 10 26.04 10 24 10 C24 10.99 24 11.98 24 13 C23.34 13 22.68 13 22 13 C22 10.03 22 7.06 22 4 C20.68 4 19.36 4 18 4 C18 4.99 18 5.98 18 7 C17.34 7 16.68 7 16 7 C16 5.02 16 3.04 16 1 C14.35 1 12.7 1 11 1 C10.67 1.66 10.34 2.32 10 3 C10 2.34 10 1.68 10 1 C6.7 1.33 3.4 1.66 0 2 C0 1.34 0 0.68 0 0 Z " fill="#DBAD62" transform="translate(49,44)"/>
<path d="M0 0 C4.95 0 9.9 0 15 0 C15 1.98 15 3.96 15 6 C15.66 6 16.32 6 17 6 C17 5.01 17 4.02 17 3 C18.32 3 19.64 3 21 3 C21 5.97 21 8.94 21 12 C21.66 12 22.32 12 23 12 C23 11.01 23 10.02 23 9 C24.155 8.835 24.155 8.835 30 8 C30 8.99 30 9.98 30 11 C30.687 11.061 31.374 11.121 32.082 11.184 C32.533 11.225 32.533 11.225 34.812 11.438 C35.706 11.519 36.599 11.6 37.52 11.684 C40 12 40 12 43 13 C43.66 13.99 44.32 14.98 45 16 C47.625 17.188 47.625 17.188 50 18 C50 18.99 50 19.98 50 21 C50.165 20.835 50.165 20.835 51 20 C52.666 19.959 54.334 19.957 56 20 C55.711 20.557 55.422 21.114 55.125 21.688 C54 24 54 24 53 26.688 C52 29 52 29 50 30 C48.763 28.47 47.526 26.94 46.289 25.41 C45 24 45 24 43 23 C42.34 24.32 41.68 25.64 41 27 C40.019 23.947 40.019 22.053 41 19 C40.01 19 39.02 19 38 19 C37.34 19.66 36.68 20.32 36 21 C36 19.68 36 18.36 36 17 C25.404 13.881 16.069 12.427 5 13 C5 14.65 5 16.3 5 18 C4.67 18 4.34 18 4 18 C3.939 17.276 3.879 16.551 3.816 15.805 C2.841 4.551 2.841 4.551 2 1 C1.34 0.67 0.68 0.34 0 0 Z " fill="#EBC682" transform="translate(50,45)"/>
<path d="M0 0 C0.33 0 0.66 0 1 0 C1.054 1.416 1.093 2.833 1.125 4.25 C1.148 5.039 1.171 5.828 1.195 6.641 C0.981 9.233 0.165 10.706 -1 13 C-1 14.32 -1 15.64 -1 17 C-0.01 15.02 0.98 13.04 2 11 C3.238 14.714 2.643 15.367 0.973 18.797 C0.514 19.749 0.055 20.701 -0.418 21.682 C-0.919 22.695 -1.421 23.707 -1.938 24.75 C-2.189 25.266 -2.189 25.266 -3.461 27.874 C-14.116 49.595 -14.116 49.595 -19 56 C-19.712 57.648 -20.39 59.312 -21 61 C-21.99 61 -22.98 61 -24 61 C-23.967 58.982 -23.935 56.964 -23.902 54.945 C-24 53 -24 53 -25 51 C-23.936 48.486 -22.811 46.109 -21.562 43.688 C-21.201 42.975 -20.839 42.262 -20.466 41.528 C-16.991 34.788 -13.068 28.395 -9 22 C-5.085 15.573 -5.085 15.573 -4.562 12.062 C-4 9 -4 9 -2 6 C-1.298 4.012 -0.626 2.013 0 0 Z " fill="#FDF7E5" transform="translate(63,60)"/>
<path d="M0 0 C5.919 2.749 11.351 5.351 16 10 C16 10.99 16 11.98 16 13 C14.866 13.433 13.731 13.866 12.562 14.312 C11.387 14.869 10.211 15.426 9 16 C8.835 16.495 8.835 16.495 8 19 C7.237 19.681 6.474 20.361 5.688 21.062 C2.117 24.965 0.76 29.081 -1 34 C-1.322 34.751 -1.643 35.502 -1.975 36.276 C-3.077 39.205 -3.705 42.014 -4.297 45.086 C-12.005 83.823 -12.005 83.823 -26.59 93.766 C-29 95 -29 95 -32 95 C-32 94.34 -32 93.68 -32 93 C-30.969 92.484 -29.938 91.969 -28.875 91.438 C-19.313 85.858 -14.614 75.334 -11.847 64.949 C-10.787 60.632 -9.854 56.287 -8.938 51.938 C-3.126 24.597 -3.126 24.597 6 14 C6.66 14 7.32 14 8 14 C8 13.34 8 12.68 8 12 C6.02 12.66 4.04 13.32 2 14 C3.65 12.02 5.3 10.04 7 8 C5.68 7.34 4.36 6.68 3 6 C3 5.34 3 4.68 3 4 C2.01 3.67 1.02 3.34 0 3 C0 2.01 0 1.02 0 0 Z " fill="#BD944F" transform="translate(106,58)"/>
<path d="M0 0 C0 0.99 0 1.98 0 3 C0.639 2.67 1.279 2.34 1.938 2 C5.937 0.694 9.821 0.442 14 1 C14.66 1.66 15.32 2.32 16 3 C15.938 4.875 15.938 4.875 15 7 C13.374 8.382 11.707 9.719 10 11 C9.67 11.66 9.34 12.32 9 13 C3.39 13 -2.22 13 -8 13 C-8.66 11.68 -9.32 10.36 -10 9 C-4.4 0 -4.4 0 0 0 Z " fill="#B47B3D" transform="translate(51,20)"/>
<path d="M0 0 C0.33 0 0.66 0 1 0 C0.464 9.653 -3.327 17.014 -10.352 23.625 C-12 25 -12 25 -15 27 C-14.01 27.33 -13.02 27.66 -12 28 C-17.875 31.916 -22.481 32.314 -29.375 32.25 C-30.2 32.258 -31.025 32.265 -31.875 32.273 C-36.943 32.257 -41.135 31.56 -46 30 C-47.432 29.792 -48.87 29.616 -50.312 29.5 C-54 29 -54 29 -56 27 C-58.318 26.281 -60.651 25.609 -63 25 C-63 23.02 -63 21.04 -63 19 C-59.77 19.629 -58.654 20.263 -55.875 22.375 C-47.304 28.613 -37.283 28.856 -27 28 C-17.628 25.758 -10.32 21.161 -5 13 C-3.069 8.748 -1.466 4.432 0 0 Z " fill="#F0E3C9" transform="translate(95,127)"/>
<path d="M0 0 C0.99 0.165 0.99 0.165 6 1 C6 2.32 6 3.64 6 5 C7.65 5.33 9.3 5.66 11 6 C10.67 6.66 10.34 7.32 10 8 C11.32 8.66 12.64 9.32 14 10 C12.68 11.65 11.36 13.3 10 15 C11.32 14.67 12.64 14.34 14 14 C14 16 14 16 12.125 18 C11.424 18.66 10.722 19.32 10 20 C9.34 20.66 8.68 21.32 8 22 C7.01 22 6.02 22 5 22 C4.01 22.66 3.02 23.32 2 24 C2.33 22.02 2.66 20.04 3 18 C2.34 18 1.68 18 1 18 C2.249 14.541 3.675 11.853 6 9 C3.69 9.66 1.38 10.32 -1 11 C-0.67 9.68 -0.34 8.36 0 7 C-1.32 6.34 -2.64 5.68 -4 5 C-2.68 3.35 -1.36 1.7 0 0 Z " fill="#D3A55B" transform="translate(100,56)"/>
<path d="M0 0 C4.95 0 9.9 0 15 0 C15 1.98 15 3.96 15 6 C15.66 6 16.32 6 17 6 C17 5.01 17 4.02 17 3 C18.32 3 19.64 3 21 3 C21 4.65 21 6.3 21 8 C19.68 8 18.36 8 17 8 C17 9.32 17 10.64 17 12 C15.02 12.165 15.02 12.165 5 13 C5 14.65 5 16.3 5 18 C4.67 18 4.34 18 4 18 C3.939 17.276 3.879 16.551 3.816 15.805 C2.841 4.551 2.841 4.551 2 1 C1.34 0.67 0.68 0.34 0 0 Z " fill="#E0B367" transform="translate(50,45)"/>
<path d="M0 0 C13.306 1.351 25.74 9.695 34.316 19.703 C38.243 24.881 42.392 30.605 44 37 C43.59 39.254 43.59 39.254 43 41 C42.34 41 41.68 41 41 41 C40.841 40.455 40.683 39.909 40.52 39.348 C38.897 34.103 36.806 29.56 33.988 24.848 C33 23 33 23 33 21 C32.701 20.866 32.701 20.866 31.188 20.188 C29.002 19.001 27.587 17.904 26 16 C26 15.34 26 14.68 26 14 C25.502 13.751 25.005 13.502 24.492 13.246 C16.328 9.164 8.164 5.082 0 1 C0 0.67 0 0.34 0 0 Z " fill="#6D421B" transform="translate(99,15)"/>
<path d="M0 0 C1.988 0.371 1.988 0.371 3.988 2.371 C3.621 5.306 3.124 6.235 0.988 8.371 C-2.604 9.701 -6.226 9.444 -10.012 9.371 C-10.672 8.051 -11.332 6.731 -12.012 5.371 C-8.28 0.556 -5.79 -0.165 0 0 Z " fill="#DCAA6F" transform="translate(63.01171875,20.62890625)"/>
<path d="M0 0 C0.33 0 0.66 0 1 0 C0.464 9.653 -3.327 17.014 -10.352 23.625 C-12 25 -12 25 -15 27 C-14.01 27.33 -13.02 27.66 -12 28 C-15.853 30.569 -18.542 31.19 -23.109 30.879 C-23.863 30.831 -24.618 30.782 -25.395 30.732 C-26.172 30.676 -26.949 30.62 -27.75 30.562 C-28.543 30.51 -29.336 30.458 -30.152 30.404 C-32.102 30.275 -34.051 30.138 -36 30 C-36 29.67 -36 29.34 -36 29 C-35.022 28.925 -34.043 28.85 -33.035 28.773 C-24.701 27.938 -18.372 26.79 -12 21 C-11.366 20.434 -10.732 19.868 -10.078 19.285 C-4.653 13.802 -2.388 7.22 0 0 Z " fill="#EBD8B2" transform="translate(95,127)"/>
<path d="M0 0 C5.927 0.39 10.704 1.242 16 4 C16.33 4.66 16.66 5.32 17 6 C17.66 5.67 18.32 5.34 19 5 C19.66 5.33 20.32 5.66 21 6 C20.67 8.64 20.34 11.28 20 14 C19.402 13.649 18.804 13.299 18.188 12.938 C16 12 16 12 13 13 C13.082 12.237 13.165 11.474 13.25 10.688 C13 8 13 8 11 6.188 C10.34 5.796 9.68 5.404 9 5 C8.67 6.32 8.34 7.64 8 9 C7.34 9 6.68 9 6 9 C6.33 6.69 6.66 4.38 7 2 C5.35 1.67 3.7 1.34 2 1 C1.67 3.64 1.34 6.28 1 9 C0.34 9 -0.32 9 -1 9 C-1.125 2.25 -1.125 2.25 0 0 Z " fill="#F7DEAD" transform="translate(70,58)"/>
<path d="M0 0 C0.99 0.33 1.98 0.66 3 1 C2.651 1.29 2.651 1.29 0.883 2.758 C-0.027 3.539 -0.937 4.32 -1.875 5.125 C-2.78 5.891 -3.685 6.656 -4.617 7.445 C-7.911 10.977 -8.773 14.225 -9.375 18.938 C-8.88 22.978 -7.499 25.803 -5 29 C-1.898 31.307 1.386 32.658 5 34 C5 34.33 5 34.66 5 35 C0.659 35.651 -1.708 34.844 -5.188 32.375 C-9.213 29.073 -11.481 26.166 -12.344 20.902 C-12.768 14.721 -10.936 10.691 -7 6 C-4.845 3.746 -2.725 1.543 0 0 Z " fill="#674522" transform="translate(47,19)"/>
<path d="M0 0 C5.919 2.749 11.351 5.351 16 10 C16 10.99 16 11.98 16 13 C8.571 16.286 8.571 16.286 5 17 C5.33 16.01 5.66 15.02 6 14 C6.66 14 7.32 14 8 14 C8 13.34 8 12.68 8 12 C6.02 12.66 4.04 13.32 2 14 C3.65 12.02 5.3 10.04 7 8 C5.68 7.34 4.36 6.68 3 6 C3 5.34 3 4.68 3 4 C2.01 3.67 1.02 3.34 0 3 C0 2.01 0 1.02 0 0 Z " fill="#D0A258" transform="translate(106,58)"/>
<path d="M0 0 C0.33 0 0.66 0 1 0 C2.509 5.848 2.926 11.663 0.688 17.312 C0.409 17.756 0.409 17.756 -1 20 C-1.454 20.743 -1.907 21.485 -2.375 22.25 C-5.114 25.2 -7.854 25.949 -11.812 26.125 C-12.534 26.084 -13.256 26.043 -14 26 C-13.979 25.072 -13.959 24.144 -13.938 23.188 C-14 20 -14 20 -15 17 C-14.34 17 -13.68 17 -13 17 C-11.375 19 -11.375 19 -10 21 C-7.688 20.875 -7.688 20.875 -5 20 C-1.27 15.204 -1.488 9.568 -1.211 3.73 C-1 1 -1 1 0 0 Z " fill="#8F5B21" transform="translate(139,51)"/>
<path d="M0 0 C3.118 4.678 2.588 9.524 2 15 C-0.159 19.479 -2.93 22.182 -7 25 C-10.285 26.095 -12.737 26.1 -16.188 26.062 C-16.731 26.058 -16.731 26.058 -19.48 26.035 C-20.312 26.024 -21.143 26.012 -22 26 C-22 25.34 -22 24.68 -22 24 C-21.264 23.939 -20.528 23.879 -19.77 23.816 C-19.282 23.775 -19.282 23.775 -16.812 23.562 C-15.85 23.481 -14.887 23.4 -13.895 23.316 C-11.198 23.022 -8.626 22.679 -6 22 C-4.875 20.312 -4.875 20.312 -4 18 C-3.742 17.588 -3.742 17.588 -2.438 15.5 C-0.362 10.447 -0.254 5.416 0 0 Z " fill="#613C19" transform="translate(141,53)"/>
<path d="M0 0 C1.98 0.66 3.96 1.32 6 2 C6 2.99 6 3.98 6 5 C6.33 4.67 6.66 4.34 7 4 C8.666 3.959 10.334 3.957 12 4 C11.856 4.278 11.856 4.278 11.125 5.688 C10 8 10 8 9 10.688 C8 13 8 13 6 14 C4.796 12.47 3.591 10.94 2.387 9.41 C1 8 1 8 -2 7 C-1.125 2.25 -1.125 2.25 0 0 Z " fill="#E7C17C" transform="translate(94,61)"/>
<path d="M0 0 C0.33 0 0.66 0 1 0 C1.361 5.524 0.354 9.363 -2.188 14.188 C-2.479 14.79 -2.771 15.393 -3.072 16.014 C-5.108 20.002 -7.339 22.452 -11 25 C-11.66 24.34 -12.32 23.68 -13 23 C-12.807 22.758 -12.807 22.758 -11.828 21.531 C-6.614 14.821 -3.252 7.805 0 0 Z " fill="#F3DEB1" transform="translate(92,122)"/>
<path d="M0 0 C0 0.99 0 1.98 0 3 C0.33 3.99 0.66 4.98 1 6 C3.64 6.33 6.28 6.66 9 7 C8.67 8.32 8.34 9.64 8 11 C4.04 11.99 0.08 12.98 -4 14 C-4.492 5.754 -4.492 5.754 -2 1.938 C-1.34 1.298 -0.68 0.659 0 0 Z " fill="#A76F33" transform="translate(42,26)"/>
<path d="M0 0 C0.763 0.474 1.526 0.949 2.312 1.438 C5 3 5 3 8 4 C8 4.99 8 5.98 8 7 C9.98 6.67 11.96 6.34 14 6 C14 7.32 14 8.64 14 10 C9.61 9.167 5.275 8.132 0.938 7.062 C0.23 6.893 -0.477 6.723 -1.205 6.549 C-4.687 5.689 -7.885 4.804 -11 3 C-7.579 0.895 -4.957 0.912 -1 1 C-0.67 0.67 -0.34 0.34 0 0 Z " fill="#996025" transform="translate(84,36)"/>
<path d="M0 0 C0.33 0.66 0.66 1.32 1 2 C1.722 1.814 2.444 1.629 3.188 1.438 C6.128 0.98 8.141 1.265 11 2 C11 3.65 11 5.3 11 7 C7.7 7.33 4.4 7.66 1 8 C1 9.65 1 11.3 1 13 C0.67 13 0.34 13 0 13 C0 8.71 0 4.42 0 0 Z " fill="#ECC988" transform="translate(54,50)"/>
<path d="M0 0 C0.66 0 1.32 0 2 0 C1.593 5.803 0.564 11.304 -0.875 16.938 C-1.036 17.6 -1.198 18.263 -1.364 18.946 C-2.354 22.672 -2.675 23.783 -6 26 C-5.506 16.943 -2.678 8.606 0 0 Z " fill="#F1D8A3" transform="translate(99,92)"/>
<path d="M0 0 C2 2 2 2 2 5 C2.66 5.33 3.32 5.66 4 6 C3.67 6.66 3.34 7.32 3 8 C0.715 8.414 0.715 8.414 -2.062 8.625 C-2.982 8.7 -3.901 8.775 -4.848 8.852 C-5.203 8.876 -5.203 8.876 -7 9 C-7.66 8.01 -8.32 7.02 -9 6 C-4.5 2 -4.5 2 0 2 C0 1.34 0 0.68 0 0 Z " fill="#6B4318" transform="translate(122,69)"/>
<path d="M0 0 C0.985 0.009 1.97 0.018 2.984 0.027 C3.358 0.033 3.358 0.033 5.25 0.062 C4.26 0.392 3.27 0.722 2.25 1.062 C2.25 2.383 2.25 3.703 2.25 5.062 C1.59 5.062 0.93 5.062 0.25 5.062 C0.25 3.742 0.25 2.422 0.25 1.062 C-0.41 1.062 -1.07 1.062 -1.75 1.062 C-2.08 3.042 -2.41 5.023 -2.75 7.062 C-5.75 8.062 -5.75 8.062 -8.75 8.062 C-9.08 5.752 -9.41 3.443 -9.75 1.062 C-6.439 0.061 -3.449 -0.041 0 0 Z " fill="#F7E1B3" transform="translate(64.75,56.9375)"/>
<path d="M0 0 C3.083 1.199 6.063 2.477 9 4 C9 4.66 9 5.32 9 6 C9.34 6.093 9.34 6.093 11.062 6.562 C15.193 8.584 18.143 11.412 21 15 C21.938 17.938 21.938 17.938 22 20 C21.34 20 20.68 20 20 20 C19.711 19.154 19.422 18.309 19.125 17.438 C15.675 10.488 6.573 6.572 0 3 C0 2.01 0 1.02 0 0 Z " fill="#643A0F" transform="translate(104,54)"/>
<path d="M0 0 C2.979 -0.055 5.958 -0.094 8.938 -0.125 C9.353 -0.133 9.353 -0.133 11.455 -0.176 C17.275 -0.221 22.36 0.554 28 2 C26.68 2.33 25.36 2.66 24 3 C24 4.65 24 6.3 24 8 C23.34 6.68 22.68 5.36 22 4 C20.68 4 19.36 4 18 4 C18 4.99 18 5.98 18 7 C17.34 7 16.68 7 16 7 C16 5.02 16 3.04 16 1 C14.35 1 12.7 1 11 1 C10.67 1.66 10.34 2.32 10 3 C10 2.34 10 1.68 10 1 C6.7 1.33 3.4 1.66 0 2 C0 1.34 0 0.68 0 0 Z " fill="#CC9C53" transform="translate(49,44)"/>
<path d="M0 0 C3.724 1.213 7.378 2.509 11 4 C9.02 6.31 7.04 8.62 5 11 C4.01 10.34 3.02 9.68 2 9 C2 8.34 2 7.68 2 7 C1.01 6.67 0.02 6.34 -1 6 C-0.835 5.196 -0.67 4.391 -0.5 3.562 C0 1 0 1 0 0 Z " fill="#D1A257" transform="translate(91,51)"/>
<path d="M0 0 C-0.473 4.167 -1.047 6.929 -4 10 C-4.66 10 -5.32 10 -6 10 C-6 10.66 -6 11.32 -6 12 C-7.32 11.67 -8.64 11.34 -10 11 C-8.858 6.089 -5.881 0 0 0 Z " fill="#C08848" transform="translate(51,20)"/>
<path d="M0 0 C0.975 0.009 1.949 0.018 2.953 0.027 C5.344 0.051 7.734 0.084 10.125 0.125 C10.455 0.785 10.785 1.445 11.125 2.125 C10.566 2.15 10.008 2.175 9.432 2.201 C6.85 2.318 4.269 2.44 1.688 2.562 C0.809 2.602 -0.069 2.641 -0.975 2.682 C-6.644 2.954 -12.239 3.443 -17.875 4.125 C-16.875 2.125 -16.875 2.125 -14.492 1.008 C-9.613 -0.183 -5 -0.088 0 0 Z " fill="#734F2D" transform="translate(76.875,10.875)"/>
<path d="M0 0 C0.66 0 1.32 0 2 0 C3.646 4.331 4.272 7.934 4.25 12.562 C4.255 13.657 4.26 14.751 4.266 15.879 C4.002 18.981 3.315 21.198 2 24 C1.67 24 1.34 24 1 24 C1.33 19.05 1.66 14.1 2 9 C1.34 8.67 0.68 8.34 0 8 C0 5.333 0 2.667 0 0 Z " fill="#C29652" transform="translate(50,46)"/>
<path d="M0 0 C0.33 0.66 0.66 1.32 1 2 C-4.584 3.943 -9.079 4.127 -14.938 3.625 C-15.717 3.568 -16.496 3.512 -17.299 3.453 C-19.2 3.313 -21.1 3.158 -23 3 C-23 2.67 -23 2.34 -23 2 C-7.255 -0.296 -7.255 -0.296 0 0 Z " fill="#E9D8B8" transform="translate(82,154)"/>
<path d="M0 0 C0 2 0 2 -1.875 4 C-2.576 4.66 -3.278 5.32 -4 6 C-4.66 6.66 -5.32 7.32 -6 8 C-6.99 8 -7.98 8 -9 8 C-9.495 8.33 -9.495 8.33 -12 10 C-12.188 6.625 -12.188 6.625 -12 3 C-11.01 2.34 -10.02 1.68 -9 1 C-8.67 1.99 -8.34 2.98 -8 4 C-7.237 3.34 -6.474 2.68 -5.688 2 C-3 0 -3 0 0 0 Z " fill="#E3BB74" transform="translate(114,70)"/>
<path d="M0 0 C2 3 2 3 1.785 4.766 C0.725 7.784 -0.4 10.769 -1.562 13.75 C-1.79 14.335 -1.79 14.335 -2.941 17.297 C-3.291 18.189 -3.64 19.081 -4 20 C-4.99 19.67 -5.98 19.34 -7 19 C-5.585 14.536 -3.844 10.302 -2 6 C-1.312 4.007 -0.637 2.01 0 0 Z " fill="#CEAC71" transform="translate(50,67)"/>
<path d="M0 0 C0.402 0.01 0.402 0.01 2.438 0.062 C2.088 0.545 1.739 1.027 1.379 1.523 C0.924 2.155 0.469 2.787 0 3.438 C-0.452 4.064 -0.905 4.69 -1.371 5.336 C-2.562 7.062 -2.562 7.062 -3.562 9.062 C-4.222 9.062 -4.882 9.062 -5.562 9.062 C-6.222 8.403 -6.882 7.743 -7.562 7.062 C-8.058 7.392 -8.058 7.392 -10.562 9.062 C-9.565 5.706 -8.944 4.323 -6 2.312 C-5.598 2.106 -5.598 2.106 -3.562 1.062 C-2.562 0.062 -2.562 0.062 0 0 Z " fill="#DEB36B" transform="translate(111.5625,64.9375)"/>
<path d="M0 0 C1.32 0 2.64 0 4 0 C4 1.32 4 2.64 4 4 C4.66 4 5.32 4 6 4 C6 3.01 6 2.02 6 1 C7.98 1 9.96 1 12 1 C12 2.65 12 4.3 12 6 C10.02 5.67 10.02 5.67 0 4 C0 2.68 0 1.36 0 0 Z " fill="#EFCB8A" transform="translate(67,53)"/>
<path d="M0 0 C3.692 4.088 6.454 8.698 8 14 C7.605 16.277 7.605 16.277 7 18 C6.34 18 5.68 18 5 18 C4.818 17.408 4.636 16.817 4.449 16.207 C3.3 12.595 2.263 9.422 0.25 6.188 C-1 4 -1 4 -0.688 1.688 C-0.461 1.131 -0.234 0.574 0 0 Z " fill="#724C29" transform="translate(135,38)"/>
<path d="M0 0 C0.33 0 0.66 0 1 0 C1 7.26 1 14.52 1 22 C0.34 21.67 -0.32 21.34 -1 21 C-2.158 17.526 -2.168 14.722 -2.188 11.062 C-2.202 9.837 -2.216 8.611 -2.23 7.348 C-2.017 4.244 -1.64 2.586 0 0 Z " fill="#C09853" transform="translate(28,115)"/>
<path d="M0 0 C1.937 -0.054 3.875 -0.093 5.812 -0.125 C6.891 -0.148 7.97 -0.171 9.082 -0.195 C12 0 12 0 15 2 C14.34 2 13.68 2 13 2 C12.67 2.99 12.34 3.98 12 5 C10.02 4.505 10.02 4.505 0 2 C0 1.34 0 0.68 0 0 Z " fill="#AA6E2E" transform="translate(61,34)"/>
<path d="M0 0 C-0.33 0.99 -0.66 1.98 -1 3 C-1.33 3.165 -1.33 3.165 -3 4 C-4.125 6.063 -4.125 6.063 -5 8 C-5.371 7.361 -5.743 6.721 -6.125 6.062 C-8.581 3.361 -10.446 3.316 -14 3 C-10.22 0.795 -4.078 -2.039 0 0 Z " fill="#B8803F" transform="translate(73,18)"/>
<path d="M0 0 C2.438 0.25 2.438 0.25 5 1 C5.66 1.99 6.32 2.98 7 4 C4.64 6.36 3.221 6.491 0 7 C0 6.34 0 5.68 0 5 C-0.66 5 -1.32 5 -2 5 C-1.125 1.125 -1.125 1.125 0 0 Z " fill="#CB9252" transform="translate(71,25)"/>
<path d="M0 0 C1.32 0.33 2.64 0.66 4 1 C3.602 1.519 3.203 2.039 2.793 2.574 C-0.022 6.279 -2.714 9.936 -5 14 C-5.684 12.328 -5.684 12.328 -6 10 C-4.785 7.422 -4.785 7.422 -3.062 4.75 C-2.497 3.858 -1.931 2.966 -1.348 2.047 C-0.903 1.371 -0.458 0.696 0 0 Z " fill="#B7904E" transform="translate(110,75)"/>
<path d="M0 0 C0.309 0.175 0.309 0.175 1.875 1.062 C2.576 1.372 3.278 1.681 4 2 C4.66 1.67 5.32 1.34 6 1 C6.33 2.98 6.66 4.96 7 7 C2.248 6.568 0.08 5.672 -3 2 C-2.01 2 -1.02 2 0 2 C0 1.34 0 0.68 0 0 Z " fill="#7C4D18" transform="translate(44,45)"/>
<path d="M0 0 C0.33 0.66 0.66 1.32 1 2 C-0.145 4.566 -0.145 4.566 -1.812 7.562 C-2.084 8.058 -2.084 8.058 -3.457 10.566 C-5 13 -5 13 -7 14 C-6.405 9.242 -4.509 5.053 -2 1 C-1.34 0.67 -0.68 0.34 0 0 Z " fill="#C6A25E" transform="translate(44,85)"/>
<path d="M0 0 C2 2 2 2 2 5 C2.66 5.33 3.32 5.66 4 6 C3.67 6.66 3.34 7.32 3 8 C1.68 8 0.36 8 -1 8 C-1 7.34 -1 6.68 -1 6 C-1.99 5.67 -2.98 5.34 -4 5 C-4 4.01 -4 3.02 -4 2 C-2.68 2 -1.36 2 0 2 C0 1.34 0 0.68 0 0 Z " fill="#7C4F18" transform="translate(122,69)"/>
<path d="M0 0 C1.189 0.009 2.377 0.018 3.602 0.027 C4.517 0.039 5.432 0.051 6.375 0.062 C6.375 0.392 6.375 0.722 6.375 1.062 C4.395 1.227 4.395 1.227 -5.625 2.062 C-5.955 3.383 -6.285 4.703 -6.625 6.062 C-7.615 5.403 -8.605 4.742 -9.625 4.062 C-9.295 3.072 -8.965 2.083 -8.625 1.062 C-5.741 -0.38 -3.208 -0.031 0 0 Z " fill="#62360C" transform="translate(54.625,41.9375)"/>
<path d="M0 0 C0.66 0 1.32 0 2 0 C1.47 4.508 -0.252 7.42 -3 11 C-3.66 11 -4.32 11 -5 11 C-4.329 6.806 -2.144 3.597 0 0 Z " fill="#FDF5DE" transform="translate(58,97)"/>
<path d="M0 0 C0.66 0.66 1.32 1.32 2 2 C2.66 1.67 3.32 1.34 4 1 C4.66 1.33 5.32 1.66 6 2 C5.67 4.64 5.34 7.28 5 10 C4.361 9.34 3.721 8.68 3.062 8 C1 6 1 6 0 6 C0 4.02 0 2.04 0 0 Z " fill="#F7DAA1" transform="translate(85,62)"/>
<path d="M0 0 C0.66 0 1.32 0 2 0 C2 0.99 2 1.98 2 3 C3.98 2.67 5.96 2.34 8 2 C8 3.32 8 4.64 8 6 C3.617 5.178 -0.679 4.098 -5 3 C-5 2.67 -5 2.34 -5 2 C-3.35 2 -1.7 2 0 2 C0 1.34 0 0.68 0 0 Z " fill="#90591F" transform="translate(90,40)"/>
<path d="M0 0 C1.32 0.33 2.64 0.66 4 1 C4.124 1.619 4.248 2.238 4.375 2.875 C5 5 5 5 7 7 C4.69 6.67 2.38 6.34 0 6 C0 4.02 0 2.04 0 0 Z " fill="#F4E9D3" transform="translate(32,146)"/>
<path d="M0 0 C0.66 0.66 1.32 1.32 2 2 C-0.991 5.336 -3.932 7.151 -8 9 C-8.66 8.34 -9.32 7.68 -10 7 C-9.446 6.662 -8.891 6.325 -8.32 5.977 C-7.596 5.531 -6.871 5.085 -6.125 4.625 C-5.765 4.405 -5.765 4.405 -3.945 3.289 C-2 2 -2 2 0 0 Z " fill="#E3D0A5" transform="translate(85,146)"/>
<path d="M0 0 C2 1.312 2 1.312 4 3 C4 3.99 4 4.98 4 6 C1.69 6.66 -0.62 7.32 -3 8 C-2.625 5.562 -2.625 5.562 -2 3 C-1.34 2.67 -0.68 2.34 0 2 C0 1.34 0 0.68 0 0 Z " fill="#C6974E" transform="translate(118,65)"/>
<path d="M0 0 C0.825 0.33 0.825 0.33 5 2 C5 2.66 5 3.32 5 4 C6.32 4.66 7.64 5.32 9 6 C6.69 6.66 4.38 7.32 2 8 C2.33 6.68 2.66 5.36 3 4 C1.68 3.34 0.36 2.68 -1 2 C-0.67 1.34 -0.34 0.68 0 0 Z " fill="#DDB168" transform="translate(97,59)"/>
<path d="M0 0 C1.98 0.66 3.96 1.32 6 2 C4.725 4.549 3.566 4.868 1 6 C0.01 6.33 -0.98 6.66 -2 7 C-1.125 2.25 -1.125 2.25 0 0 Z " fill="#E4BB76" transform="translate(94,61)"/>
<path d="M0 0 C0.99 0.33 1.98 0.66 3 1 C0.03 3.64 -2.94 6.28 -6 9 C-6.33 8.01 -6.66 7.02 -7 6 C-5.907 4.967 -4.8 3.949 -3.688 2.938 C-3.073 2.369 -2.458 1.801 -1.824 1.215 C-1.523 1.014 -1.523 1.014 0 0 Z " fill="#653F18" transform="translate(47,19)"/>
<path d="M0 0 C1.98 0.99 3.96 1.98 6 3 C6 3.99 6 4.98 6 6 C6.66 6.66 7.32 7.32 8 8 C6.062 7.688 6.062 7.688 4 7 C3.67 6.01 3.34 5.02 3 4 C2.01 3.67 1.02 3.34 0 3 C0 2.01 0 1.02 0 0 Z " fill="#F0E2C5" transform="translate(36,148)"/>
<path d="M0 0 C0.33 0.66 0.66 1.32 1 2 C0.67 2.99 0.34 3.98 0 5 C1.65 4.67 3.3 4.34 5 4 C4.67 4.99 4.34 5.98 4 7 C3.01 7 2.02 7 1 7 C0.505 7.33 0.505 7.33 -2 9 C-2.125 5.625 -2.125 5.625 -2 2 C-1.34 1.34 -0.68 0.68 0 0 Z " fill="#E7C27E" transform="translate(104,71)"/>
<path d="M0 0 C-0.312 1.875 -0.312 1.875 -1 4 C-1.99 4.66 -2.98 5.32 -4 6 C-4.99 5.34 -5.98 4.68 -7 4 C-2.25 0 -2.25 0 0 0 Z " fill="#B37B3D" transform="translate(51,20)"/>
<path d="M0 0 C-0.33 0.99 -0.66 1.98 -1 3 C-2.98 3 -4.96 3 -7 3 C-7.33 2.34 -7.66 1.68 -8 1 C-2.25 -1.125 -2.25 -1.125 0 0 Z " fill="#C68D4D" transform="translate(73,18)"/>
<path d="M0 0 C0.99 0.33 1.98 0.66 3 1 C2.67 2.32 2.34 3.64 2 5 C0.35 5.33 -1.3 5.66 -3 6 C-2 4 -1 2 0 0 Z " fill="#F7E0AC" transform="translate(93,68)"/>
<path d="M0 0 C0.66 0 1.32 0 2 0 C3.158 3.473 3.069 6.361 3 10 C2.01 9.34 1.02 8.68 0 8 C0 5.333 0 2.667 0 0 Z " fill="#B2843E" transform="translate(50,46)"/>
<path d="M0 0 C0.464 0.113 0.464 0.113 2.812 0.688 C2.483 1.347 2.153 2.007 1.812 2.688 C-0.828 2.688 -3.468 2.688 -6.188 2.688 C-4.15 -0.143 -3.591 -0.352 0 0 Z " fill="#F4DFAF" transform="translate(69.1875,150.3125)"/>
<path d="M0 0 C0.66 1.32 1.32 2.64 2 4 C0.68 5.32 -0.64 6.64 -2 8 C-2 4.233 -1.765 3.088 0 0 Z " fill="#BF9853" transform="translate(89,136)"/>
<path d="M0 0 C3.937 1.312 6.227 2.919 9 6 C8.01 6.33 7.02 6.66 6 7 C6 6.34 6 5.68 6 5 C5.381 4.691 4.763 4.381 4.125 4.062 C2.75 3.375 1.375 2.688 0 2 C0 1.34 0 0.68 0 0 Z " fill="#633816" transform="translate(119,24)"/>
<path d="M0 0 C1.65 0 3.3 0 5 0 C4.67 1.32 4.34 2.64 4 4 C2.68 3.67 1.36 3.34 0 3 C0 2.01 0 1.02 0 0 Z " fill="#ECCE8C" transform="translate(33,133)"/>
<path d="M0 0 C0.99 0.33 1.98 0.66 3 1 C2.34 2.98 1.68 4.96 1 7 C0.34 7 -0.32 7 -1 7 C-0.67 4.69 -0.34 2.38 0 0 Z " fill="#FCF5E1" transform="translate(51,111)"/>
<path d="M0 0 C0.66 0 1.32 0 2 0 C1.502 3.688 0.899 5.605 -2 8 C-1.125 2.25 -1.125 2.25 0 0 Z " fill="#B18840" transform="translate(106,81)"/>
<path d="M0 0 C-0.66 1.98 -1.32 3.96 -2 6 C-3.32 5.01 -4.64 4.02 -6 3 C-2.25 0 -2.25 0 0 0 Z " fill="#EDC887" transform="translate(99,64)"/>
</svg>
