<?xml version="1.0" encoding="UTF-8"?>
<!-- Generator: visioncortex VTracer 0.6.12 -->
<svg version="1.1" xmlns="http://www.w3.org/2000/svg" width="164" height="185">
<path d="M0 0 C54.12 0 108.24 0 164 0 C164 61.05 164 122.1 164 185 C109.88 185 55.76 185 0 185 C0 123.95 0 62.9 0 0 Z " fill="#FCF8EE" transform="translate(0,0)"/>
<path d="M0 0 C6.32 0.596 6.32 0.596 9 2.188 C10.54 4.979 9.752 6.992 9 10 C8.67 10.99 8.34 11.98 8 13 C7.598 17.263 7.517 19.306 10 22.875 C12.567 26.887 12.803 30.329 12 35 C11.67 35.33 11.67 35.33 10 37 C9.396 38.558 8.863 40.145 8.371 41.742 C8.062 42.717 7.754 43.693 7.436 44.697 C7.106 45.746 6.777 46.795 6.438 47.875 C2.749 59.327 -1.817 70.154 -7 81 C-5.782 80.495 -4.564 79.989 -3.309 79.469 C-1.685 78.812 -0.061 78.156 1.562 77.5 C2.362 77.166 3.162 76.832 3.986 76.488 C8.782 74.57 12.752 73.265 18 74 C20.117 75.504 20.117 75.504 21.875 77.562 C25.312 81.368 28.895 84.266 33.117 87.164 C36.569 90.53 37.093 94.438 37.195 99.086 C37.182 100.516 37.159 101.946 37.125 103.375 C37.116 104.111 37.107 104.847 37.098 105.605 C37.074 107.404 37.038 109.202 37 111 C36.01 111.33 35.02 111.66 34 112 C32.765 114.561 31.957 117.142 31.125 119.859 C29.782 123.31 28.698 125.427 26 128 C21.484 129.264 16.859 129.006 12.215 128.875 C8.261 128.862 6.045 129.269 3 132 C1.213 134.577 -0.244 137.282 -1.688 140.062 C-2.459 141.513 -3.234 142.963 -4.012 144.41 C-4.346 145.051 -4.681 145.692 -5.026 146.352 C-6 148 -6 148 -8 150 C-12.535 150.705 -17.105 150.742 -21.688 150.875 C-22.955 150.967 -24.223 151.058 -25.529 151.152 C-29.365 151.245 -32.339 151.168 -36 150 C-38.566 147.146 -40.061 144.454 -41.642 140.967 C-43.211 137.538 -45.144 135.362 -47.836 132.793 C-49.618 130.048 -49.674 127.205 -50 124 C-50.536 124.276 -51.071 124.551 -51.623 124.835 C-62.791 130.559 -74.045 136.058 -85.5 141.188 C-86.555 141.669 -87.61 142.15 -88.697 142.646 C-89.196 142.866 -89.196 142.866 -91.719 143.98 C-92.595 144.371 -93.471 144.762 -94.373 145.165 C-97.417 146.133 -99.824 146.285 -103 146 C-105 144 -105 144 -105.438 140.594 C-105.277 134.671 -102.546 129.737 -100 124.5 C-99.497 123.438 -98.995 122.377 -98.477 121.283 C-97.001 118.18 -95.504 115.089 -94 112 C-93.617 111.203 -93.234 110.407 -92.839 109.586 C-90.638 105.015 -88.361 100.491 -86 96 C-85.658 95.346 -85.316 94.693 -84.963 94.019 C-79.492 83.663 -73.175 74.249 -66 65 C-65.31 64.108 -64.621 63.216 -63.91 62.297 C-56.084 52.374 -47.825 42.812 -39.285 33.5 C-36.132 30.05 -33.05 26.542 -30 23 C-29.763 22.728 -29.763 22.728 -28.566 21.352 C-26.612 19.066 -24.926 16.869 -23.438 14.25 C-21.775 11.648 -20.831 11.121 -18 10 C-16.359 9.837 -14.711 9.736 -13.062 9.688 C-9.227 9.372 -8.207 9.163 -5.062 6.688 C-4.382 5.801 -3.701 4.914 -3 4 C-2.402 3.237 -1.804 2.474 -1.188 1.688 C-0.796 1.131 -0.404 0.574 0 0 Z " fill="#367D07" transform="translate(109,16)"/>
<path d="M0 0 C6.32 0.596 6.32 0.596 9 2.188 C10.54 4.979 9.752 6.992 9 10 C8.67 10.99 8.34 11.98 8 13 C7.598 17.263 7.517 19.306 10 22.875 C12.653 27.02 12.383 30.216 12 35 C11.422 34.484 10.845 33.969 10.25 33.438 C8 32 8 32 6.004 32.027 C4 33 4 33 2.762 35.633 C2.407 36.785 2.053 37.938 1.688 39.125 C-4 56.447 -12.95 73.124 -23.375 88.062 C-23.78 88.652 -24.184 89.242 -24.601 89.85 C-26.322 92.231 -27.501 93.81 -30.289 94.871 C-30.571 94.892 -30.571 94.892 -32 95 C-32 95.66 -32 96.32 -32 97 C-32.66 97 -33.32 97 -34 97 C-34.268 97.557 -34.536 98.114 -34.812 98.688 C-35.204 99.451 -35.596 100.214 -36 101 C-36.454 101.887 -36.907 102.774 -37.375 103.688 C-39.316 106.449 -39.879 106.25 -43 107 C-45.79 108.617 -48.015 110.452 -50 113 C-50.59 115.425 -50.751 117.555 -50.734 120.047 C-50.822 120.691 -50.91 121.336 -51 122 C-54 124 -54 124 -55.875 123.73 C-56.576 123.551 -57.278 123.372 -58 123.188 C-63.648 122.391 -66.713 124.909 -71.203 128.074 C-75.242 130.855 -79.572 132.916 -84 135 C-83.67 135.99 -83.34 136.98 -83 138 C-83.603 138.193 -84.207 138.387 -84.828 138.586 C-85.627 138.846 -86.427 139.107 -87.25 139.375 C-88.039 139.63 -88.828 139.885 -89.641 140.148 C-92 141 -92 141 -94.062 142.094 C-97.007 143.471 -99.804 143.123 -103 143 C-100.741 110.621 -72.487 74.933 -52.438 51 C-51.937 50.394 -51.436 49.787 -50.92 49.163 C-49.68 47.715 -48.347 46.349 -47 45 C-46.01 45 -45.02 45 -44 45 C-43.34 45.66 -42.68 46.32 -42 47 C-43.27 48.432 -44.539 49.865 -45.809 51.297 C-47 53 -47 53 -47.417 54.895 C-48.075 57.271 -48.958 58.492 -50.527 60.379 C-51.063 61.038 -51.598 61.698 -52.15 62.377 C-52.74 63.098 -53.33 63.819 -53.938 64.562 C-69.06 83.581 -81.729 104.247 -93.554 125.432 C-94.808 127.659 -96.104 129.853 -97.414 132.047 C-99 135 -99 135 -99 138 C-92.676 132.647 -86.781 126.932 -80.938 121.062 C-80.078 120.207 -79.219 119.352 -78.334 118.471 C-73.891 114.021 -69.614 109.501 -65.517 104.731 C-63.48 102.407 -61.29 100.267 -59.062 98.125 C-54.835 93.975 -51.203 89.601 -47.691 84.836 C-47.133 84.23 -46.575 83.624 -46 83 C-45.01 83 -44.02 83 -43 83 C-42.856 82.706 -42.856 82.706 -42.129 81.219 C-39.321 75.7 -35.852 70.763 -32.062 65.875 C-27.622 60.029 -23.634 53.938 -19.688 47.75 C-19.089 46.815 -18.49 45.881 -17.873 44.917 C-15.282 40.82 -12.831 36.782 -10.77 32.391 C-9 29 -9 29 -6 28 C-5.835 27.505 -5.835 27.505 -5 25 C-2.36 25 0.28 25 3 25 C3.165 25.33 3.165 25.33 4 27 C3.37 21.452 3.37 21.452 1.312 18.938 C0.879 18.298 0.446 17.659 0 17 C0.563 14.812 0.563 14.812 2 12 C2.714 10.399 3.422 8.794 4.125 7.188 C4.749 5.791 5.374 4.395 6 3 C4.35 2.67 2.7 2.34 1 2 C0.876 2.371 0.876 2.371 0.25 4.25 C-1.113 7.248 -2.501 8.88 -5 11 C-8.015 12.005 -10.042 12.103 -13.188 12.062 C-14.089 12.053 -14.99 12.044 -15.918 12.035 C-16.605 12.024 -17.292 12.012 -18 12 C-18 11.34 -18 10.68 -18 10 C-17.336 9.986 -16.672 9.972 -15.988 9.957 C-8.717 9.564 -8.717 9.564 -5.062 6.688 C-4.382 5.801 -3.701 4.914 -3 4 C-2.402 3.237 -1.804 2.474 -1.188 1.688 C-0.796 1.131 -0.404 0.574 0 0 Z " fill="#3F8909" transform="translate(109,16)"/>
<path d="M0 0 C1.65 0.33 3.3 0.66 5 1 C4.544 2.396 4.085 3.792 3.625 5.188 C3.357 6.01 3.089 6.832 2.812 7.68 C2 10 2 10 0.625 12.812 C0.419 13.534 0.213 14.256 0 15 C0.956 16.365 1.964 17.695 3 19 C3.688 22.75 3.688 22.75 4 26 C3.34 25.67 2.68 25.34 2 25 C2 24.34 2 23.68 2 23 C-0.64 23 -3.28 23 -6 23 C-6.33 24.32 -6.66 25.64 -7 27 C-7.99 27 -8.98 27 -10 27 C-10.227 27.815 -10.454 28.629 -10.688 29.469 C-12.311 33.838 -14.544 37.553 -17 41.5 C-17.485 42.287 -17.971 43.073 -18.471 43.884 C-23.725 52.305 -29.256 60.62 -35.688 68.195 C-38.012 71.015 -39.43 73.717 -41 77 C-43.483 80.828 -43.483 80.828 -47 82 C-48.33 83.512 -49.59 85.087 -50.812 86.688 C-55.151 92.141 -59.867 97.022 -64.863 101.876 C-67.792 104.736 -70.591 107.634 -73.258 110.742 C-77.84 116.051 -82.795 120.979 -87.75 125.938 C-88.705 126.904 -89.659 127.871 -90.613 128.838 C-91.519 129.746 -92.426 130.654 -93.359 131.59 C-94.179 132.413 -94.998 133.237 -95.843 134.086 C-98 136 -98 136 -101 137 C-100.395 132.314 -98.407 128.535 -96.188 124.438 C-95.791 123.699 -95.394 122.961 -94.985 122.201 C-83.108 100.349 -69.465 79.714 -53.863 60.348 C-53.546 59.95 -53.546 59.95 -51.938 57.938 C-51.39 57.266 -50.842 56.594 -50.277 55.902 C-48.928 53.893 -48.532 52.337 -48 50 C-46.712 47.97 -45.384 45.965 -44 44 C-44.99 44.33 -45.98 44.66 -47 45 C-46.406 41.16 -44.65 39.013 -42.188 36.062 C-41.388 35.102 -40.589 34.142 -39.766 33.152 C-37.818 30.892 -35.801 28.718 -33.734 26.566 C-33.188 25.993 -32.641 25.42 -32.077 24.83 C-31 23.71 -29.912 22.601 -28.811 21.504 C-25.033 17.585 -25.033 17.585 -24.848 14.305 C-24.898 13.544 -24.948 12.784 -25 12 C-23.898 10.187 -23.898 10.187 -22 9 C-18.704 8.791 -15.522 9.006 -12.227 9.188 C-8.563 8.975 -6.896 8.206 -4 6 C-1.688 2.813 -1.688 2.813 0 0 Z " fill="#61A716" transform="translate(110,18)"/>
<path d="M0 0 C1.438 0.289 2.876 0.581 4.312 0.875 C5.1 0.933 5.888 0.991 6.699 1.051 C13.825 1.8 17.453 5.161 22.379 10.172 C24.58 13.25 25.242 15.102 25.312 18.875 C24.238 21.078 24.238 21.078 22.625 23.125 C19.639 27.199 17.843 31.155 16.172 35.906 C15.312 37.875 15.312 37.875 13.312 38.875 C4.662 39.761 -3.997 40.005 -12.688 39.875 C-12.955 39.365 -13.222 38.856 -13.498 38.33 C-14.705 36.032 -15.915 33.735 -17.125 31.438 C-17.546 30.635 -17.967 29.833 -18.4 29.006 C-18.803 28.242 -19.206 27.478 -19.621 26.691 C-19.993 25.984 -20.365 25.277 -20.748 24.549 C-21.688 22.875 -21.688 22.875 -22.688 21.875 C-23.168 19.195 -23.168 19.195 -22.688 15.875 C-20.762 13.458 -18.427 11.646 -16 9.75 C-15.374 9.238 -14.748 8.726 -14.104 8.199 C-12.877 7.2 -11.642 6.211 -10.398 5.234 C-8.885 4.032 -7.419 2.77 -5.961 1.5 C-3.688 -0.125 -3.688 -0.125 0 0 Z " fill="#CED55D" transform="translate(82.6875,113.125)"/>
<path d="M0 0 C2.134 1.484 3.95 3.132 5.828 4.93 C8 7 8 7 10.547 9.07 C11.377 9.748 12.207 10.426 13.062 11.125 C13.837 11.746 14.612 12.368 15.41 13.008 C17 15 17 15 16.926 17.469 C15.951 20.133 14.789 22.082 13.125 24.375 C11.17 27.169 9.553 29.76 8.312 32.938 C7 36 7 36 4 38 C0.683 38.477 -2.652 38.416 -6 38.438 C-6.915 38.47 -7.83 38.503 -8.773 38.537 C-11.278 38.557 -13.547 38.507 -16 38 C-17.832 35.789 -17.832 35.789 -19 33 C-20.552 31.303 -22.115 29.616 -23.688 27.938 C-27.921 22.832 -29.257 19.154 -28.668 12.535 C-28 10 -28 10 -25.75 7.5 C-24.117 6.727 -24.117 6.727 -22 6 C-21.033 5.657 -20.066 5.314 -19.07 4.961 C-16.992 4.254 -14.903 3.576 -12.805 2.93 C-2.606 -0.451 -2.606 -0.451 0 0 Z " fill="#E8EC83" transform="translate(126,92)"/>
<path d="M0 0 C0 4.254 -2.422 6.41 -5 9.562 C-5.252 9.877 -5.252 9.877 -6.53 11.469 C-7.548 12.737 -8.57 14.003 -9.594 15.267 C-11.389 17.479 -13.163 19.709 -14.938 21.938 C-16.739 24.185 -18.542 26.431 -20.347 28.675 C-34.525 46.306 -48.533 63.978 -59.965 83.555 C-61.842 86.766 -63.842 89.885 -65.875 93 C-68.386 96.897 -70.363 100.666 -72 105 C-70.725 103.441 -69.455 101.877 -68.188 100.312 C-67.48 99.442 -66.772 98.572 -66.043 97.676 C-64.147 95.193 -62.598 92.679 -61 90 C-59.564 88.026 -58.104 86.068 -56.625 84.125 C-54.064 80.755 -51.554 77.384 -49.188 73.875 C-47.182 71.239 -46.096 70.032 -43 69 C-42.67 69.33 -42.67 69.33 -41 71 C-35.089 65.196 -29.305 59.366 -24 53 C-23.388 52.265 -22.775 51.53 -22.145 50.773 C-16.843 44.277 -11.978 37.498 -7.158 30.643 C-6.119 29.168 -5.07 27.701 -4.02 26.234 C6.932 10.859 6.932 10.859 9 3 C9.99 3.33 10.98 3.66 12 4 C9.843 15.249 1.071 26.179 -5.125 35.5 C-5.806 36.526 -6.486 37.553 -7.188 38.61 C-10.851 44.054 -14.678 49.07 -19 54 C-20.046 55.976 -21.054 57.974 -22 60 C-24.483 63.828 -24.483 63.828 -28 65 C-29.33 66.512 -30.59 68.087 -31.812 69.688 C-36.151 75.141 -40.867 80.022 -45.863 84.876 C-48.792 87.736 -51.591 90.634 -54.258 93.742 C-58.84 99.051 -63.795 103.979 -68.75 108.938 C-69.705 109.904 -70.659 110.871 -71.613 111.838 C-72.519 112.746 -73.426 113.654 -74.359 114.59 C-75.179 115.413 -75.998 116.237 -76.843 117.086 C-79 119 -79 119 -82 120 C-81.395 115.314 -79.407 111.535 -77.188 107.438 C-76.791 106.699 -76.394 105.961 -75.985 105.201 C-64.646 84.339 -51.672 64.658 -37 46 C-36.192 44.938 -35.386 43.874 -34.582 42.809 C-29.829 36.518 -24.877 30.479 -19.694 24.538 C-14.948 19.046 -10.552 13.307 -6.188 7.509 C-5.67 6.82 -5.151 6.131 -4.617 5.422 C-4.159 4.809 -3.702 4.197 -3.23 3.565 C-2 2 -2 2 0 0 Z " fill="#8EC738" transform="translate(91,35)"/>
<path d="M0 0 C0.66 0 1.32 0 2 0 C0.356 4.086 -2.568 6.934 -5.562 10.062 C-10.203 14.992 -14.565 20.054 -18.801 25.34 C-21.046 28.055 -23.403 30.617 -25.812 33.188 C-48.851 58.301 -69.544 92.944 -78 126 C-73.088 125.477 -68.768 124.372 -64.113 122.719 C-62.091 122.031 -60.078 121.488 -58 121 C-58 120.34 -58 119.68 -58 119 C-58.66 118.67 -59.32 118.34 -60 118 C-54.589 114.529 -49.087 111.363 -43.418 108.332 C-41 107 -41 107 -38 105 C-35.809 105.059 -35.809 105.059 -33.438 105.438 C-29.198 106.099 -29.198 106.099 -27 105 C-26.926 103.648 -26.917 102.292 -26.938 100.938 C-26.58 96.285 -24.907 94.474 -21.438 91.438 C-19.977 90.268 -18.503 89.114 -17 88 C-16.34 88.33 -15.68 88.66 -15 89 C-15.578 89.436 -16.155 89.871 -16.75 90.32 C-22.724 95.112 -22.724 95.112 -23.875 98.812 C-22.773 102.828 -20.759 105.798 -18.52 109.285 C-16.517 112.862 -15.671 116.419 -14.699 120.375 C-13.681 124.196 -12.517 127.894 -10 131 C-6.75 132 -6.75 132 -4 132 C-4 132.33 -4 132.66 -4 133 C-8.277 134.048 -8.277 134.048 -11 133 C-13.111 130.175 -14.667 127.237 -16.293 124.109 C-18.111 120.798 -20.123 118.383 -22.836 115.793 C-24.618 113.048 -24.674 110.205 -25 107 C-25.536 107.276 -26.071 107.551 -26.623 107.835 C-37.791 113.559 -49.045 119.058 -60.5 124.188 C-61.555 124.669 -62.61 125.15 -63.697 125.646 C-64.196 125.866 -64.196 125.866 -66.719 126.98 C-67.595 127.371 -68.471 127.762 -69.373 128.165 C-72.417 129.133 -74.824 129.285 -78 129 C-80 127 -80 127 -80.438 123.594 C-80.277 117.671 -77.546 112.737 -75 107.5 C-74.497 106.438 -73.995 105.377 -73.477 104.283 C-72.001 101.18 -70.504 98.089 -69 95 C-68.617 94.203 -68.234 93.407 -67.839 92.586 C-65.638 88.015 -63.361 83.491 -61 79 C-60.658 78.346 -60.316 77.693 -59.963 77.019 C-54.492 66.663 -48.175 57.249 -41 48 C-40.31 47.108 -39.621 46.216 -38.91 45.297 C-31.084 35.374 -22.825 25.812 -14.285 16.5 C-10.119 11.942 -6.051 7.318 -2.188 2.5 C-1.466 1.675 -0.744 0.85 0 0 Z " fill="#2A651B" transform="translate(84,33)"/>
<path d="M0 0 C3.046 5.28 4.033 11.994 3 18 C1.919 20.107 0.663 21.972 -0.695 23.91 C-2.511 26.818 -3.393 29.836 -4.324 33.117 C-5 35 -5 35 -7 37 C-9.044 37.259 -9.044 37.259 -11.543 37.266 C-11.998 37.267 -11.998 37.267 -14.299 37.273 C-15.252 37.266 -16.205 37.258 -17.188 37.25 C-18.121 37.258 -19.055 37.265 -20.018 37.273 C-25.365 37.258 -30.022 37.041 -35 35 C-36.523 33.266 -36.523 33.266 -37.375 31.25 C-37.677 30.544 -37.978 29.837 -38.289 29.109 C-39.193 26.429 -39.719 23.813 -40 21 C-39.34 21.33 -38.68 21.66 -38 22 C-38 22.66 -38 23.32 -38 24 C-33.708 23.694 -29.416 23.379 -25.125 23.062 C-24.513 23.019 -24.513 23.019 -21.418 22.799 C-20.251 22.712 -19.085 22.625 -17.883 22.535 C-16.804 22.457 -15.725 22.378 -14.614 22.297 C-12 22 -12 22 -10 21 C-9.333 19.315 -8.74 17.601 -8.188 15.875 C-6.434 10.798 -4.262 7.231 -1 3 C-0.67 2.01 -0.34 1.02 0 0 Z " fill="#307805" transform="translate(108,129)"/>
<path d="M0 0 C1.65 0 3.3 0 5 0 C5.33 0.99 5.66 1.98 6 3 C5.67 3.66 5.34 4.32 5 5 C6.32 5.33 7.64 5.66 9 6 C9.562 7.937 9.562 7.937 10 10 C9.67 10.33 9.34 10.66 9 11 C9.495 11.165 9.495 11.165 12 12 C11.598 13.566 11.178 15.128 10.75 16.688 C10.518 17.558 10.286 18.428 10.047 19.324 C8.706 22.752 7.837 24.579 5 27 C1.3 27.722 -2.305 27.652 -6.062 27.562 C-7.069 27.573 -8.075 27.584 -9.111 27.596 C-14.675 27.54 -14.675 27.54 -17 27 C-19.569 24.252 -20.487 21.917 -21.188 18.25 C-21.346 17.451 -21.505 16.652 -21.668 15.828 C-21.778 15.225 -21.887 14.622 -22 14 C-20.721 13.876 -19.442 13.752 -18.125 13.625 C-14.25 13.25 -14.25 13.25 -12 11 C-11.375 8.375 -11.375 8.375 -11 6 C-8.69 5.34 -6.38 4.68 -4 4 C-4 4.66 -4 5.32 -4 6 C-1.216 4.608 -1.021 2.844 0 0 Z " fill="#F1EE98" transform="translate(89,123)"/>
<path d="M0 0 C0.99 0 1.98 0 3 0 C3.66 0.66 4.32 1.32 5 2 C3.73 3.432 2.461 4.865 1.191 6.297 C0 8 0 8 -0.417 9.895 C-1.075 12.271 -1.958 13.492 -3.527 15.379 C-4.063 16.038 -4.598 16.698 -5.15 17.377 C-5.74 18.098 -6.33 18.819 -6.938 19.562 C-22.061 38.583 -34.723 59.249 -46.555 80.431 C-47.807 82.657 -49.096 84.855 -50.398 87.051 C-52.031 90.057 -52.407 91.643 -52 95 C-52.66 95.165 -52.66 95.165 -56 96 C-54.477 89.487 -52.599 83.654 -49.379 77.777 C-48.158 75.319 -47.155 72.888 -46.164 70.332 C-44.042 64.952 -41.514 59.859 -38.812 54.75 C-38.328 53.833 -37.844 52.916 -37.345 51.972 C-28.484 35.393 -17.508 20.385 -5.438 6 C-4.937 5.394 -4.436 4.788 -3.921 4.164 C-2.681 2.716 -1.347 1.349 0 0 Z " fill="#49920B" transform="translate(62,61)"/>
<path d="M0 0 C2 0.312 2 0.312 4 1 C4.165 1.33 4.165 1.33 5 3 C4.175 5.347 3.29 7.592 2.312 9.875 C0.387 14.5 -1.403 19.081 -2.875 23.875 C-6.738 35.803 -12.808 47.14 -19 58 C-18.34 58 -17.68 58 -17 58 C-17 60.97 -17 63.94 -17 67 C-19.31 67 -21.62 67 -24 67 C-23.67 66.361 -23.34 65.721 -23 65.062 C-22 63 -22 63 -22 62 C-22.258 62.34 -22.258 62.34 -23.562 64.062 C-26 66 -26 66 -29.5 65.688 C-30.655 65.461 -31.81 65.234 -33 65 C-35.437 65.437 -35.437 65.437 -37 66 C-37 65.34 -37 64.68 -37 64 C-36.407 63.758 -35.814 63.515 -35.203 63.266 C-21.735 55.528 -11.797 26.806 -6.094 12.703 C-5.021 10.053 -3.902 7.429 -2.75 4.812 C-2.593 4.455 -2.593 4.455 -1.797 2.645 C-1 1 -1 1 0 0 Z " fill="#2E750B" transform="translate(114,47)"/>
<path d="M0 0 C0.33 0 0.66 0 1 0 C1 41.58 1 83.16 1 126 C-53.12 126 -107.24 126 -163 126 C-163 124.35 -163 122.7 -163 121 C-162.735 121.162 -162.735 121.162 -161.394 121.985 C-158.358 123.272 -155.998 123.249 -152.699 123.247 C-151.404 123.251 -150.108 123.256 -148.774 123.26 C-147.34 123.254 -145.906 123.249 -144.473 123.243 C-142.961 123.244 -141.45 123.246 -139.939 123.249 C-135.835 123.254 -131.732 123.246 -127.629 123.236 C-123.336 123.227 -119.043 123.229 -114.75 123.229 C-107.541 123.228 -100.331 123.219 -93.122 123.206 C-84.786 123.19 -76.449 123.185 -68.113 123.186 C-60.095 123.186 -52.077 123.181 -44.06 123.173 C-40.647 123.169 -37.234 123.167 -33.821 123.167 C-29.802 123.166 -25.784 123.16 -21.765 123.15 C-20.29 123.147 -18.814 123.146 -17.339 123.146 C-15.326 123.147 -13.313 123.14 -11.301 123.134 C-10.737 123.133 -10.737 123.133 -7.886 123.129 C-5 123 -5 123 -1 122 C-0.835 101.87 -0.835 101.87 0 0 Z " fill="#FDFCFA" transform="translate(163,59)"/>
<path d="M0 0 C2.134 1.484 3.95 3.132 5.828 4.93 C8 7 8 7 10.547 9.07 C11.377 9.748 12.207 10.426 13.062 11.125 C13.837 11.746 14.612 12.368 15.41 13.008 C17 15 17 15 16.926 17.469 C15.951 20.133 14.789 22.082 13.125 24.375 C11.17 27.169 9.553 29.76 8.312 32.938 C7 36 7 36 4 38 C0.683 38.477 -2.652 38.416 -6 38.438 C-6.915 38.47 -7.83 38.503 -8.773 38.537 C-11.278 38.557 -13.547 38.507 -16 38 C-17.832 35.789 -17.832 35.789 -19 33 C-20.552 31.303 -22.115 29.616 -23.688 27.938 C-27.921 22.832 -29.257 19.154 -28.668 12.535 C-28 10 -28 10 -25.75 7.5 C-24.117 6.727 -24.117 6.727 -22 6 C-21.033 5.657 -20.066 5.314 -19.07 4.961 C-16.992 4.254 -14.903 3.576 -12.805 2.93 C-2.606 -0.451 -2.606 -0.451 0 0 Z M-10.438 4.875 C-13.255 6.227 -15.911 7.343 -18.938 8.125 C-22 9 -22 9 -24 11 C-24.23 13.75 -24.23 13.75 -24.188 17 C-24.181 18.072 -24.175 19.145 -24.168 20.25 C-24 23 -24 23 -23 25 C-22.691 24.918 -22.691 24.918 -21.125 24.5 C-19 24 -19 24 -17 24 C-17.66 24.66 -18.32 25.32 -19 26 C-19 26.99 -19 27.98 -19 29 C-16.125 29.188 -16.125 29.188 -13 29 C-12.34 28.01 -11.68 27.02 -11 26 C-11.812 28.438 -11.812 28.438 -13 31 C-13.99 31.33 -14.98 31.66 -16 32 C-15.67 32.99 -15.34 33.98 -15 35 C-8.73 35 -2.46 35 4 35 C7 29 7 29 7.938 26.438 C9 24 9 24 11.188 21.5 C13 19 13 19 12.969 16.707 C11.63 12.967 9.195 10.779 6.312 8.188 C5.795 7.685 5.277 7.183 4.744 6.666 C2.143 4.285 0.404 3.057 -3.117 2.559 C-5.919 2.988 -7.918 3.608 -10.438 4.875 Z " fill="#88BC1F" transform="translate(126,92)"/>
<path d="M0 0 C1.438 0.289 2.876 0.581 4.312 0.875 C5.1 0.933 5.888 0.991 6.699 1.051 C13.825 1.8 17.453 5.161 22.379 10.172 C24.58 13.25 25.242 15.102 25.312 18.875 C24.238 21.078 24.238 21.078 22.625 23.125 C19.639 27.199 17.843 31.155 16.172 35.906 C15.312 37.875 15.312 37.875 13.312 38.875 C4.662 39.761 -3.997 40.005 -12.688 39.875 C-12.955 39.365 -13.222 38.856 -13.498 38.33 C-14.705 36.032 -15.915 33.735 -17.125 31.438 C-17.546 30.635 -17.967 29.833 -18.4 29.006 C-18.803 28.242 -19.206 27.478 -19.621 26.691 C-19.993 25.984 -20.365 25.277 -20.748 24.549 C-21.688 22.875 -21.688 22.875 -22.688 21.875 C-23.168 19.195 -23.168 19.195 -22.688 15.875 C-20.762 13.458 -18.427 11.646 -16 9.75 C-15.374 9.238 -14.748 8.726 -14.104 8.199 C-12.877 7.2 -11.642 6.211 -10.398 5.234 C-8.885 4.032 -7.419 2.77 -5.961 1.5 C-3.688 -0.125 -3.688 -0.125 0 0 Z M-12.688 10.875 C-14.03 12.055 -15.383 13.223 -16.75 14.375 C-17.719 15.2 -18.689 16.025 -19.688 16.875 C-19.208 20.83 -17.784 23.64 -15.738 27.031 C-14.675 28.897 -13.824 30.769 -13 32.75 C-11.688 35.875 -11.688 35.875 -10.688 36.875 C-7.093 37.21 -3.483 37.2 0.125 37.25 C1.136 37.287 2.148 37.325 3.189 37.363 C10.639 37.452 10.639 37.452 13.879 34.676 C15.23 32.036 16.433 29.477 17.438 26.688 C19.11 22.077 19.11 22.077 21.312 19.875 C20.891 14.066 17.3 10.778 13.312 6.875 C10.387 4.766 7.882 3.385 4.312 2.875 C3.096 2.689 1.879 2.504 0.625 2.312 C-5.347 2.368 -8.714 6.916 -12.688 10.875 Z " fill="#93C31E" transform="translate(82.6875,113.125)"/>
<path d="M0 0 C0.193 0.615 0.387 1.23 0.586 1.863 C0.716 2.267 0.716 2.267 1.375 4.312 C1.63 5.113 1.885 5.914 2.148 6.738 C3 9 3 9 5 12 C4.01 12 3.02 12 2 12 C-2.875 12.488 -7.137 13.638 -11.73 15.234 C-16.747 16.927 -21.652 18.334 -27 18 C-27 18.66 -27 19.32 -27 20 C-30.038 20.706 -33.081 21.386 -36.125 22.062 C-36.981 22.262 -37.837 22.461 -38.719 22.666 C-43.473 23.708 -47.181 24.256 -52 23 C-52 22.67 -52 22.34 -52 22 C-51.726 21.932 -51.726 21.932 -50.34 21.585 C-42.136 19.346 -34.645 15.766 -27 12.125 C-25.685 11.506 -24.37 10.887 -23.055 10.27 C-16.602 7.23 -10.187 4.132 -3.855 0.843 C-2 0 -2 0 0 0 Z " fill="#E9DDBB" transform="translate(59,140)"/>
<path d="M0 0 C0.33 0 0.66 0 1 0 C1.083 1.332 1.14 2.666 1.188 4 C1.205 4.371 1.205 4.371 1.293 6.25 C0.967 9.309 0.026 11.886 -1.106 14.733 C-2.067 17.17 -2.936 19.628 -3.797 22.102 C-7.208 31.785 -10.732 41.149 -15.555 50.223 C-16.881 52.772 -17.944 55.331 -19 58 C-19.33 58.33 -19.66 58.66 -20 59 C-20.98 63.585 -21.529 68.507 -18.98 72.663 C-17.173 74.953 -15.214 77.068 -13.219 79.194 C-7.633 85.22 -4.688 91.669 -5 100 C-4.663 99.913 -4.663 99.913 -2.957 99.473 C0.585 98.906 3.741 99.137 7.312 99.438 C8.567 99.539 9.821 99.641 11.113 99.746 C11.59 99.788 11.59 99.788 14 100 C14 100.33 14 100.66 14 101 C13.452 101.019 13.452 101.019 10.676 101.113 C9.221 101.179 7.767 101.245 6.312 101.312 C5.591 101.335 4.87 101.358 4.127 101.381 C-0.325 101.604 -3.476 102.022 -7 105 C-9.02 108.137 -9.02 108.137 -10.812 111.688 C-11.124 112.294 -11.435 112.901 -11.756 113.525 C-12.516 115.011 -13.26 116.505 -14 118 C-14.997 115.375 -15.131 114.317 -14.039 111.676 C-13.572 110.896 -13.106 110.116 -12.625 109.312 C-12.164 108.525 -11.702 107.737 -11.227 106.926 C-10 105 -10 105 -9 104 C-8.851 101.268 -8.848 98.722 -9 96 C-9.044 95.207 -9.088 94.414 -9.133 93.598 C-10.09 85.831 -14.272 81.109 -20 76 C-23.294 73.728 -26.073 72.53 -30 71.812 C-30.412 71.733 -30.412 71.733 -32.5 71.332 C-39.152 70.449 -39.152 70.449 -42.02 72.312 C-42.611 72.869 -43.203 73.426 -43.812 74 C-44.417 74.557 -45.022 75.114 -45.645 75.688 C-46.092 76.121 -46.539 76.554 -47 77 C-47.66 76.67 -48.32 76.34 -49 76 C-46.304 72.242 -44.883 70.369 -40.562 68.562 C-37 68 -37 68 -33.875 68.75 C-32.926 68.832 -31.977 68.915 -31 69 C-28.881 67.198 -27.607 65.315 -26 63 C-25.67 63.99 -25.34 64.98 -25 66 C-26.938 68.688 -26.938 68.688 -29 71 C-26.69 71 -24.38 71 -22 71 C-22 68.03 -22 65.06 -22 62 C-22.66 62 -23.32 62 -24 62 C-22.611 57.343 -20.62 53.278 -18.25 49.062 C-14.172 41.595 -10.943 33.989 -8 26 C-7.734 25.285 -7.468 24.569 -7.194 23.832 C-4.292 15.979 -1.502 8.26 0 0 Z " fill="#225B06" transform="translate(119,43)"/>
<path d="M0 0 C0.66 0.33 1.32 0.66 2 1 C1.711 1.218 1.711 1.218 0.25 2.32 C-5.724 7.112 -5.724 7.112 -6.875 10.812 C-5.773 14.828 -3.759 17.798 -1.52 21.285 C0.483 24.862 1.329 28.419 2.301 32.375 C3.319 36.196 4.483 39.894 7 43 C10.25 44 10.25 44 13 44 C13 44.33 13 44.66 13 45 C8.723 46.048 8.723 46.048 6 45 C3.889 42.175 2.333 39.237 0.707 36.109 C-1.111 32.798 -3.123 30.383 -5.836 27.793 C-7.618 25.048 -7.674 22.205 -8 19 C-8.635 19.328 -9.27 19.656 -9.924 19.994 C-12.82 21.484 -15.722 22.961 -18.625 24.438 C-19.624 24.954 -20.623 25.47 -21.652 26.002 C-22.626 26.495 -23.599 26.988 -24.602 27.496 C-25.492 27.952 -26.382 28.407 -27.299 28.877 C-30.216 30.09 -32.879 30.574 -36 31 C-36.454 31.113 -36.454 31.113 -38.75 31.688 C-39.492 31.791 -40.235 31.894 -41 32 C-41.66 31.34 -42.32 30.68 -43 30 C-37.589 26.529 -32.087 23.363 -26.418 20.332 C-24 19 -24 19 -21 17 C-18.809 17.059 -18.809 17.059 -16.438 17.438 C-12.198 18.099 -12.198 18.099 -10 17 C-9.926 15.648 -9.917 14.292 -9.938 12.938 C-9.58 8.285 -7.907 6.474 -4.438 3.438 C-2.977 2.268 -1.503 1.114 0 0 Z " fill="#28640A" transform="translate(67,121)"/>
<path d="M0 0 C2.166 1.777 3.998 3.698 5.875 5.777 C8.661 8.691 11.802 10.888 15.117 13.164 C18.569 16.53 19.093 20.438 19.195 25.086 C19.182 26.516 19.159 27.946 19.125 29.375 C19.116 30.111 19.107 30.847 19.098 31.605 C19.074 33.404 19.038 35.202 19 37 C18.01 37.33 17.02 37.66 16 38 C15.281 39.645 14.63 41.319 14 43 C12.394 46.034 10.702 49.018 9 52 C8.34 52 7.68 52 7 52 C7.33 50.35 7.66 48.7 8 47 C8.66 47 9.32 47 10 47 C10.049 46.022 10.098 45.043 10.148 44.035 C11.248 24.752 11.248 24.752 15 21 C15.034 18.257 14.499 16.592 12.723 14.486 C11.051 12.845 9.328 11.291 7.562 9.75 C6.964 9.209 6.365 8.667 5.748 8.109 C0.142 3.088 0.142 3.088 -3.754 2.789 C-7.328 3.021 -9.688 3.898 -12.938 5.375 C-17.269 7.279 -21.415 8.854 -26 10 C-26 8.68 -26 7.36 -26 6 C-24.721 5.752 -23.442 5.505 -22.125 5.25 C-18.503 4.464 -15.275 3.346 -11.875 1.875 C-7.646 0.165 -4.593 -1.021 0 0 Z " fill="#36790A" transform="translate(127,90)"/>
<path d="M0 0 C3.051 0.195 5.234 0.453 7.75 2.25 C9.273 4.382 10.134 6.536 11 9 C9.691 11.465 9.691 11.465 7 14 C3.308 14.751 -0.308 14.652 -4.062 14.562 C-5.069 14.573 -6.075 14.584 -7.111 14.596 C-12.675 14.54 -12.675 14.54 -15 14 C-17.198 11.713 -17.983 10.698 -18.062 7.5 C-16.505 3.835 -14.53 2.732 -11 1 C-7.625 1.25 -7.625 1.25 -5 2 C-4.188 4.188 -4.188 4.188 -4 7 C-6.438 9.812 -6.438 9.812 -9 12 C-5.37 12 -1.74 12 2 12 C1.34 11.464 0.68 10.928 0 10.375 C-2 8 -2 8 -2.375 4.875 C-2 2 -2 2 0 0 Z " fill="#C7CC46" transform="translate(87,136)"/>
<path d="M0 0 C2.611 1.306 4.13 2.756 6 5 C6.562 7.5 6.562 7.5 6 10 C3.75 12.125 3.75 12.125 1 14 C0.383 14.516 -0.234 15.033 -0.869 15.564 C-3.316 17.213 -4.928 17.526 -7.844 17.844 C-8.76 17.956 -9.677 18.068 -10.621 18.184 C-12.54 18.395 -14.46 18.605 -16.379 18.816 C-17.295 18.929 -18.212 19.041 -19.156 19.156 C-19.99 19.247 -20.823 19.338 -21.682 19.432 C-26.461 20.603 -29.78 24.45 -33 28 C-34.812 31.312 -34.812 31.312 -36 34 C-35.175 33.835 -35.175 33.835 -31 33 C-32 34.938 -32 34.938 -34 37 C-36.656 37.574 -39.289 37.74 -42 38 C-40.78 35.62 -39.549 33.246 -38.312 30.875 C-37.973 30.21 -37.633 29.545 -37.283 28.859 C-31.5 17.833 -31.5 17.833 -26 16 C-24.593 15.855 -23.182 15.754 -21.77 15.684 C-21.368 15.663 -21.368 15.663 -19.338 15.557 C-18.505 15.517 -17.671 15.478 -16.812 15.438 C-15.968 15.394 -15.123 15.351 -14.252 15.307 C-12.168 15.201 -10.084 15.1 -8 15 C-7.59 14.169 -7.18 13.337 -6.758 12.48 C-6.219 11.394 -5.68 10.307 -5.125 9.188 C-4.591 8.109 -4.058 7.03 -3.508 5.918 C-2 3 -2 3 0 0 Z " fill="#EDE4C8" transform="translate(143,128)"/>
<path d="M0 0 C0.825 0.165 0.825 0.165 5 1 C4.544 2.396 4.085 3.792 3.625 5.188 C3.357 6.01 3.089 6.832 2.812 7.68 C2 10 2 10 0.625 12.812 C0.522 13.173 0.522 13.173 0 15 C0.956 16.365 1.964 17.695 3 19 C3.688 22.75 3.688 22.75 4 26 C3.34 25.67 2.68 25.34 2 25 C2 24.34 2 23.68 2 23 C0.927 23.124 -0.145 23.248 -1.25 23.375 C-5 23 -5 23 -7.438 20.125 C-9 17 -9 17 -9 15 C-11.64 15 -14.28 15 -17 15 C-17.66 13.68 -18.32 12.36 -19 11 C-17.259 9.259 -14.622 9.582 -12.25 9.312 C-5.484 8.259 -5.484 8.259 -2.812 5 C-1.824 3.363 -0.855 1.71 0 0 Z " fill="#7CB21A" transform="translate(110,18)"/>
<path d="M0 0 C2.224 1.84 4.139 3.833 6.098 5.953 C8.218 8.234 10.511 10.133 13 12 C12.663 15.03 12.109 16.84 10.375 19.375 C8 21 8 21 4.25 20.75 C3.178 20.502 2.105 20.255 1 20 C1 19.34 1 18.68 1 18 C2.65 17.67 4.3 17.34 6 17 C6 15.68 6 14.36 6 13 C5.051 12.691 4.102 12.381 3.125 12.062 C0 11 0 11 -2 10 C-2 8.68 -2 7.36 -2 6 C-2.743 6.021 -3.485 6.041 -4.25 6.062 C-6.705 6.007 -8.661 5.693 -11 5 C-11.33 6.65 -11.66 8.3 -12 10 C-12.66 9.67 -13.32 9.34 -14 9 C-16 8.96 -18 8.957 -20 9 C-20.66 10.65 -21.32 12.3 -22 14 C-23.125 12.25 -23.125 12.25 -24 10 C-23.457 7.992 -23.457 7.992 -22 6 C-19.066 4.805 -19.066 4.805 -15.562 3.875 C-0.725 -0.137 -0.725 -0.137 0 0 Z " fill="#D4E365" transform="translate(126,95)"/>
<path d="M0 0 C-0.021 1.093 -0.041 2.186 -0.062 3.312 C0 7 0 7 1 10 C0.099 13.397 -0.497 15.497 -3 18 C-5.688 18.27 -8.291 18.087 -11 18 C-11.33 18.66 -11.66 19.32 -12 20 C-13.813 17.462 -14.963 15.715 -15.125 12.562 C-13.399 8.631 -10.343 6.58 -7 4 C-6.072 3.216 -5.144 2.433 -4.188 1.625 C-2 0 -2 0 0 0 Z " fill="#C3C440" transform="translate(78,119)"/>
<path d="M0 0 C1.75 0.812 1.75 0.812 2.75 2.812 C3.74 2.483 4.73 2.153 5.75 1.812 C5.75 3.793 5.75 5.772 5.75 7.812 C7.07 7.812 8.39 7.812 9.75 7.812 C9.875 3.062 9.875 3.062 8.75 0.812 C12.625 2.688 12.625 2.688 13.75 3.812 C13.791 5.479 13.793 7.146 13.75 8.812 C12.76 9.142 11.77 9.472 10.75 9.812 C10.75 10.472 10.75 11.132 10.75 11.812 C12.4 11.153 14.05 10.493 15.75 9.812 C15.42 10.802 15.09 11.793 14.75 12.812 C8.48 12.812 2.21 12.812 -4.25 12.812 C-4.58 11.823 -4.91 10.832 -5.25 9.812 C-3.93 9.153 -2.61 8.493 -1.25 7.812 C-1.25 6.823 -1.25 5.832 -1.25 4.812 C-1.58 5.472 -1.91 6.132 -2.25 6.812 C-4.23 6.812 -6.21 6.812 -8.25 6.812 C-8.062 5 -8.062 5 -7.25 2.812 C-4.722 0.831 -3.254 -0.271 0 0 Z " fill="#D7E66C" transform="translate(115.25,114.1875)"/>
<path d="M0 0 C0.33 0 0.66 0 1 0 C1.33 3.96 1.66 7.92 2 12 C2.454 11.742 2.454 11.742 4.75 10.438 C8 9 8 9 10.375 9.312 C10.911 9.539 11.448 9.766 12 10 C11.598 10.217 11.598 10.217 9.562 11.312 C7 13 7 13 6 16 C7.98 16 9.96 16 12 16 C12.66 14.68 13.32 13.36 14 12 C14.33 12.99 14.66 13.98 15 15 C13.75 17.188 13.75 17.188 12 19 C11.01 19 10.02 19 9 19 C9.33 19.66 9.66 20.32 10 21 C16.27 21 22.54 21 29 21 C29.66 19.35 30.32 17.7 31 16 C31.33 16 31.66 16 32 16 C32.188 19.375 32.188 19.375 32 23 C27.734 25.844 24.019 25.406 19 25.438 C18.085 25.47 17.17 25.503 16.227 25.537 C13.719 25.557 11.455 25.516 9 25 C7.074 22.66 7.074 22.66 6 20 C4.954 18.982 3.892 17.981 2.812 17 C-1.075 12.69 -0.473 8.132 -0.211 2.598 C-0.141 1.74 -0.072 0.883 0 0 Z " fill="#9EB727" transform="translate(101,105)"/>
<path d="M0 0 C1.695 1.644 3.352 3.31 5 5 C5.578 5.57 6.155 6.14 6.75 6.727 C12.101 12.331 15.825 18.926 16.098 26.832 C16.082 27.19 16.082 27.19 16 29 C16.674 28.826 17.348 28.652 18.043 28.473 C21.585 27.906 24.741 28.137 28.312 28.438 C29.567 28.539 30.821 28.641 32.113 28.746 C32.59 28.788 32.59 28.788 35 29 C35 29.33 35 29.66 35 30 C33.903 30.037 32.806 30.075 31.676 30.113 C30.221 30.179 28.767 30.245 27.312 30.312 C26.952 30.324 26.952 30.324 25.127 30.381 C20.675 30.604 17.524 31.022 14 34 C11.98 37.137 11.98 37.137 10.188 40.688 C9.876 41.294 9.565 41.901 9.244 42.525 C8.484 44.011 7.74 45.505 7 47 C6.003 44.375 5.869 43.317 6.961 40.676 C7.194 40.286 7.194 40.286 8.375 38.312 C8.836 37.525 9.298 36.737 9.773 35.926 C11 34 11 34 12 33 C12.149 30.268 12.152 27.722 12 25 C11.956 24.207 11.912 23.414 11.867 22.598 C11.016 15.687 7.921 12.011 3.094 7.129 C1 5 1 5 -1 2 C-0.67 1.34 -0.34 0.68 0 0 Z " fill="#226202" transform="translate(98,114)"/>
<path d="M0 0 C1.32 0 2.64 0 4 0 C4.33 1.32 4.66 2.64 5 4 C4.67 4.165 4.67 4.165 3 5 C2.773 5.949 2.546 6.897 2.312 7.875 C1 11 1 11 -2.438 12.875 C-6 14 -6 14 -9 14 C-10.262 11.475 -10.099 9.688 -10.062 6.875 C-10.053 5.965 -10.044 5.055 -10.035 4.117 C-10.024 3.419 -10.012 2.72 -10 2 C-6.445 0.054 -4.068 -0.17 0 0 Z " fill="#ABBA2B" transform="translate(112,103)"/>
<path d="M0 0 C1.316 3.948 2.116 7.933 3 12 C-1.29 12 -5.58 12 -10 12 C-9.67 11.34 -9.34 10.68 -9 10 C-9.966 7.983 -10.967 5.983 -12 4 C-12 3.34 -12 2.68 -12 2 C-12.99 1.67 -13.98 1.34 -15 1 C-10.05 0.67 -5.1 0.34 0 0 Z " fill="#378605" transform="translate(96,151)"/>
<path d="M0 0 C2 0.312 2 0.312 4 1 C4.33 1.66 4.66 2.32 5 3 C4.132 5.449 3.208 7.803 2.188 10.188 C0.121 15.075 -1.635 19.867 -3 25 C-3.33 24.34 -3.66 23.68 -4 23 C-4.99 22.67 -5.98 22.34 -7 22 C-6.34 22 -5.68 22 -5 22 C-5.66 21.34 -6.32 20.68 -7 20 C-6.881 13.466 -4.77 4.77 0 0 Z " fill="#347A0C" transform="translate(114,47)"/>
<path d="M0 0 C2.166 1.777 3.998 3.698 5.875 5.777 C8.055 8.057 10.315 9.791 12.875 11.625 C16.537 14.405 18.298 16.286 19 21 C19.25 24.25 19.25 24.25 19 27 C18.34 27.66 17.68 28.32 17 29 C17.018 28.285 17.036 27.569 17.055 26.832 C16.578 18.816 13.782 14.981 8 9.812 C0.366 3.105 0.366 3.105 -3.754 2.789 C-7.328 3.021 -9.688 3.898 -12.938 5.375 C-17.269 7.279 -21.415 8.854 -26 10 C-26 8.68 -26 7.36 -26 6 C-24.721 5.752 -23.442 5.505 -22.125 5.25 C-18.503 4.464 -15.275 3.346 -11.875 1.875 C-7.646 0.165 -4.593 -1.021 0 0 Z " fill="#35711A" transform="translate(127,90)"/>
<path d="M0 0 C6.32 0.596 6.32 0.596 9 2.188 C10.54 4.979 9.752 6.992 9 10 C8.67 10.99 8.34 11.98 8 13 C7.598 17.263 7.517 19.306 10 22.875 C12.653 27.02 12.383 30.216 12 35 C11.67 35 11.34 35 11 35 C10.876 33.928 10.752 32.855 10.625 31.75 C9.918 27.506 8.909 25.179 6.312 21.812 C4.394 17.701 5.227 14.365 6 10 C6.186 8.824 6.371 7.649 6.562 6.438 C6.707 5.633 6.851 4.829 7 4 C5.02 3.34 3.04 2.68 1 2 C0.752 2.742 0.505 3.485 0.25 4.25 C-1.113 7.248 -2.501 8.88 -5 11 C-8.015 12.005 -10.042 12.103 -13.188 12.062 C-13.638 12.058 -13.638 12.058 -15.918 12.035 C-16.605 12.024 -17.292 12.012 -18 12 C-18 11.34 -18 10.68 -18 10 C-17.336 9.986 -16.672 9.972 -15.988 9.957 C-8.717 9.564 -8.717 9.564 -5.062 6.688 C-4.382 5.801 -3.701 4.914 -3 4 C-2.402 3.237 -1.804 2.474 -1.188 1.688 C-0.796 1.131 -0.404 0.574 0 0 Z " fill="#3F7521" transform="translate(109,16)"/>
<path d="M0 0 C0.393 0.03 0.393 0.03 2.383 0.18 C9.511 0.917 13.141 4.287 18.066 9.297 C20.23 12.322 20.824 14.307 21 18 C19.562 19.875 19.562 19.875 18 21 C17.897 19.928 17.794 18.855 17.688 17.75 C17.007 14.04 16.605 12.605 14 10 C11.625 8.438 11.625 8.438 9 7 C8.154 6.464 7.309 5.927 6.438 5.375 C1.654 2.677 -2.59 2.738 -8 3 C-8.66 3.66 -9.32 4.32 -10 5 C-12.125 4.625 -12.125 4.625 -14 4 C-9.234 -0.885 -6.681 -1.498 0 0 Z " fill="#81B717" transform="translate(87,114)"/>
<path d="M0 0 C0.697 0.16 1.395 0.32 2.113 0.484 C1.618 1.248 1.123 2.011 0.613 2.797 C-0.887 5.484 -0.887 5.484 -0.887 8.484 C-2.5 10.637 -4.124 12.65 -5.887 14.672 C-6.125 14.951 -6.125 14.951 -7.332 16.365 C-8.51 17.744 -9.698 19.115 -10.887 20.484 C-11.505 20.299 -12.124 20.113 -12.762 19.922 C-14.887 19.484 -14.887 19.484 -16.887 20.484 C-14.769 16.027 -11.977 12.208 -9.074 8.234 C-8.814 7.862 -8.814 7.862 -7.494 5.977 C-3.547 0.595 -3.547 0.595 0 0 Z " fill="#5DA410" transform="translate(94.88671875,34.515625)"/>
<path d="M0 0 C0.99 0.99 1.98 1.98 3 3 C-0.636 8.252 -4.635 12.852 -9.125 17.375 C-9.382 17.637 -9.382 17.637 -10.685 18.962 C-13.269 21.527 -15.591 23.646 -19 25 C-17.367 21.342 -15.114 18.364 -12.688 15.188 C-10.101 11.793 -7.545 8.391 -5.125 4.875 C-3 2 -3 2 0 0 Z " fill="#89C335" transform="translate(47,104)"/>
<path d="M0 0 C2.938 0.75 2.938 0.75 6 2 C6.938 4.062 6.938 4.062 7 6 C6.67 6.33 6.34 6.66 6 7 C6.99 7.33 7.98 7.66 9 8 C7.909 11.775 7.092 14.47 4 17 C3.732 16.216 3.464 15.433 3.188 14.625 C2 12 2 12 -1 10 C-2.507 7.74 -3.07 6.595 -2.75 3.875 C-2 2 -2 2 0 0 Z " fill="#E1E87A" transform="translate(92,127)"/>
<path d="M0 0 C0.66 0.33 1.32 0.66 2 1 C1.856 1.804 1.711 2.609 1.562 3.438 C1.377 4.613 1.191 5.789 1 7 C0.87 7.735 0.74 8.47 0.605 9.227 C-0.186 14.426 0.086 16.516 3 21 C3.553 23.987 3.809 26.97 4 30 C1.062 28.5 1.062 28.5 -2 26 C-2.562 23.924 -2.686 22.032 -2.781 19.887 C-3 18 -3 18 -4.688 15.812 C-5.121 15.214 -5.554 14.616 -6 14 C-5.438 11.812 -5.438 11.812 -4 9 C-3.286 7.399 -2.578 5.794 -1.875 4.188 C-1.251 2.791 -0.626 1.395 0 0 Z " fill="#65A20D" transform="translate(115,19)"/>
<path d="M0 0 C0.75 0.005 1.499 0.009 2.271 0.014 C4.119 0.025 5.966 0.043 7.812 0.062 C7.812 0.393 7.812 0.722 7.812 1.062 C3.192 1.393 -1.428 1.722 -6.188 2.062 C-6.188 2.722 -6.188 3.382 -6.188 4.062 C-7.503 5.086 -8.841 6.08 -10.188 7.062 C-13.912 10.424 -16.159 13.471 -18.188 18.062 C-16.537 17.733 -14.888 17.403 -13.188 17.062 C-14.188 19 -14.188 19 -16.188 21.062 C-18.843 21.636 -21.476 21.803 -24.188 22.062 C-22.967 19.683 -21.737 17.309 -20.5 14.938 C-20.16 14.272 -19.821 13.607 -19.471 12.922 C-14.569 3.577 -10.957 -0.124 0 0 Z " fill="#E0DBB6" transform="translate(125.1875,143.9375)"/>
<path d="M0 0 C1.98 0 3.96 0 6 0 C6.66 1.98 7.32 3.96 8 6 C8.33 5.34 8.66 4.68 9 4 C9 4.66 9 5.32 9 6 C10.98 6.66 12.96 7.32 15 8 C14.67 9.65 14.34 11.3 14 13 C12.009 13.381 10.007 13.713 8 14 C7 13 7 13 6.938 10.438 C6.958 9.633 6.979 8.829 7 8 C6.01 7.835 6.01 7.835 1 7 C0.67 4.69 0.34 2.38 0 0 Z " fill="#D4D85B" transform="translate(118,100)"/>
<path d="M0 0 C0.33 0 0.66 0 1 0 C1.083 1.332 1.14 2.666 1.188 4 C1.205 4.371 1.205 4.371 1.293 6.25 C0.967 9.307 0.029 11.883 -1.102 14.729 C-2.071 17.18 -2.956 19.651 -3.832 22.137 C-7.46 32.328 -11.171 42.305 -16 52 C-16.66 51.01 -17.32 50.02 -18 49 C-17.48 47.062 -17.48 47.062 -16.402 44.859 C-16.015 44.043 -15.628 43.227 -15.229 42.385 C-14.803 41.516 -14.377 40.646 -13.938 39.75 C-10.449 32.357 -7.474 25.071 -5.07 17.262 C-4.278 14.848 -3.435 12.638 -2.41 10.328 C-0.931 6.838 -0.383 3.756 0 0 Z " fill="#215913" transform="translate(119,43)"/>
<path d="M0 0 C0.33 2.64 0.66 5.28 1 8 C1.32 8.052 1.32 8.052 2.938 8.312 C3.278 8.426 3.278 8.426 5 9 C6 12 6 12 5.062 14.188 C4.712 14.786 4.361 15.384 4 16 C3.01 16 2.02 16 1 16 C0.34 17.32 -0.32 18.64 -1 20 C-1 18.68 -1 17.36 -1 16 C-2.32 15.67 -3.64 15.34 -5 15 C-5 11.894 -4.461 10.647 -3 8 C-2.34 8 -1.68 8 -1 8 C-1.33 7.402 -1.66 6.804 -2 6.188 C-3 4 -3 4 -3 1 C-1 0 -1 0 0 0 Z " fill="#F3F3A2" transform="translate(118,99)"/>
<path d="M0 0 C-1.349 5.128 -3.813 9.129 -6.66 13.535 C-8.046 16.084 -8.477 18.17 -9 21 C-9.973 22.844 -9.973 22.844 -11.062 24.5 C-12.856 27.46 -13.427 29.477 -13 33 C-13.66 33.165 -13.66 33.165 -17 34 C-15.449 27.367 -13.461 21.507 -10.262 15.492 C-8.562 12.135 -7.274 8.663 -5.992 5.129 C-4.636 2.219 -3.389 0 0 0 Z " fill="#509A10" transform="translate(23,123)"/>
<path d="M0 0 C0 1.32 0 2.64 0 4 C-1.155 4.495 -1.155 4.495 -7 7 C-7 7.66 -7 8.32 -7 9 C-7.887 9.144 -8.774 9.289 -9.688 9.438 C-13 10 -13 10 -15.75 10.688 C-16.492 10.791 -17.235 10.894 -18 11 C-18.66 10.34 -19.32 9.68 -20 9 C-15.778 6.296 -11.515 3.658 -7.188 1.125 C-6.459 0.694 -5.731 0.264 -4.98 -0.18 C-3 -1 -3 -1 0 0 Z " fill="#337E08" transform="translate(44,142)"/>
<path d="M0 0 C0.99 0.99 1.98 1.98 3 3 C1.926 5.915 1.222 7.778 -1 10 C-4.625 10.479 -8.284 10.37 -11.938 10.375 C-12.953 10.399 -13.968 10.424 -15.014 10.449 C-15.988 10.453 -16.961 10.457 -17.965 10.461 C-18.858 10.469 -19.751 10.477 -20.672 10.486 C-23 10 -23 10 -24.834 8.143 C-26 6 -26 6 -25.688 3.25 C-25.461 2.507 -25.234 1.765 -25 1 C-24.34 1 -23.68 1 -23 1 C-22.752 1.784 -22.505 2.567 -22.25 3.375 C-20.779 6.464 -20.127 6.825 -17 8 C-14.344 8.266 -14.344 8.266 -11.5 8.25 C-11.031 8.253 -11.031 8.253 -8.656 8.266 C-5.901 7.99 -4.283 7.553 -2 6 C-0.75 2.875 -0.75 2.875 0 0 Z " fill="#D0E35F" transform="translate(95,140)"/>
<path d="M0 0 C0.33 0.99 0.66 1.98 1 3 C0.362 3.266 -0.276 3.531 -0.934 3.805 C-1.76 4.158 -2.586 4.511 -3.438 4.875 C-3.849 5.049 -3.849 5.049 -5.934 5.93 C-8 7 -8 7 -9 9 C-9.229 11.037 -9.41 13.08 -9.562 15.125 C-9.646 16.221 -9.73 17.316 -9.816 18.445 C-9.877 19.288 -9.938 20.131 -10 21 C-12.373 19.171 -12.96 18.222 -13.504 15.223 C-13.563 12.053 -13.528 9.128 -13 6 C-9.328 2.239 -4.993 1.198 0 0 Z " fill="#85BD1D" transform="translate(111,96)"/>
<path d="M0 0 C1.916 -0.054 3.833 -0.093 5.75 -0.125 C6.284 -0.137 6.284 -0.137 8.984 -0.195 C11.925 -0.005 13.524 0.473 16 2 C16 3.98 16 5.96 16 8 C15.01 8.33 14.02 8.66 13 9 C11.5 7.625 11.5 7.625 10 6 C10 5.34 10 4.68 10 4 C7.36 4 4.72 4 2 4 C1.34 2.68 0.68 1.36 0 0 Z " fill="#AFD436" transform="translate(91,29)"/>
<path d="M0 0 C1.75 1.375 1.75 1.375 2.812 3.688 C2.75 6.375 2.75 6.375 0.75 9.25 C-2.25 11.375 -2.25 11.375 -6.062 11.188 C-7.114 10.919 -8.166 10.651 -9.25 10.375 C-9.25 9.715 -9.25 9.055 -9.25 8.375 C-7.6 8.045 -5.95 7.715 -4.25 7.375 C-4.25 6.055 -4.25 4.735 -4.25 3.375 C-5.24 3.045 -6.23 2.715 -7.25 2.375 C-7.25 1.715 -7.25 1.055 -7.25 0.375 C-4.53 -0.381 -2.748 -0.763 0 0 Z " fill="#CAE656" transform="translate(136.25,104.625)"/>
<path d="M0 0 C0.66 0.33 1.32 0.66 2 1 C-0.52 2.273 -3.041 3.544 -5.562 4.812 C-6.267 5.169 -6.971 5.525 -7.697 5.893 C-21.199 12.675 -21.199 12.675 -27 12 C-27.66 11.34 -28.32 10.68 -29 10 C-28.625 7.875 -28.625 7.875 -28 6 C-28 6.99 -28 7.98 -28 9 C-18.54 8.14 -10.788 5.052 -2.285 0.891 C-1.531 0.597 -0.777 0.303 0 0 Z " fill="#1A570C" transform="translate(33,150)"/>
<path d="M0 0 C0.66 0.66 1.32 1.32 2 2 C0.979 3.75 -0.042 5.5 -1.062 7.25 C-1.695 8.338 -2.328 9.426 -2.98 10.547 C-4.303 12.816 -5.641 15.073 -6.988 17.328 C-7.611 18.375 -8.234 19.422 -8.875 20.5 C-9.45 21.459 -10.025 22.418 -10.617 23.406 C-12 26 -12 26 -12.57 28.281 C-12.712 28.848 -12.854 29.416 -13 30 C-13.66 30.33 -14.32 30.66 -15 31 C-15.713 29.394 -15.713 29.394 -16 27 C-14.645 24.067 -14.645 24.067 -12.598 20.703 C-12.241 20.109 -11.885 19.516 -11.517 18.904 C-10.377 17.012 -9.22 15.131 -8.062 13.25 C-7.286 11.968 -6.511 10.686 -5.736 9.402 C-3.837 6.26 -1.923 3.128 0 0 Z " fill="#80BC2E" transform="translate(31,113)"/>
<path d="M0 0 C0.433 0.072 0.433 0.072 2.625 0.438 C8.711 1.32 14.868 1.6 21 2 C21 2.33 21 2.66 21 3 C20.452 3.019 20.452 3.019 17.676 3.113 C16.221 3.179 14.767 3.245 13.312 3.312 C12.591 3.335 11.87 3.358 11.127 3.381 C6.675 3.604 3.524 4.022 0 7 C-2.02 10.137 -2.02 10.137 -3.812 13.688 C-4.124 14.294 -4.435 14.901 -4.756 15.525 C-5.516 17.011 -6.26 18.505 -7 20 C-7.977 17.406 -8.132 16.326 -7.074 13.711 C-6.617 12.94 -6.159 12.169 -5.688 11.375 C-5.463 10.987 -5.463 10.987 -4.324 9.023 C-3 7 -3 7 -1 5 C-0.375 2.375 -0.375 2.375 0 0 Z " fill="#245D0E" transform="translate(112,141)"/>
<path d="M0 0 C0.66 0 1.32 0 2 0 C2.121 0.423 2.121 0.423 2.734 2.562 C6.683 15.927 6.683 15.927 10 21 C13.25 22 13.25 22 16 22 C16 22.33 16 22.66 16 23 C11.709 24.051 11.709 24.051 9 23 C6.876 20.13 5.291 17.151 3.645 13.984 C2.253 11.458 1.198 9.915 -0.938 8.062 C-3 6 -3 6 -3.312 3.188 C-3.209 2.466 -3.106 1.744 -3 1 C-2.67 1.495 -2.67 1.495 -1 4 C-0.34 4.66 0.32 5.32 1 6 C0.67 4.02 0.34 2.04 0 0 Z " fill="#215E0B" transform="translate(64,143)"/>
<path d="M0 0 C0.33 0 0.66 0 1 0 C0.67 4.29 0.34 8.58 0 13 C1.32 12.67 2.64 12.34 4 12 C2.908 14.319 1.802 16.629 0.688 18.938 C0.379 19.597 0.07 20.256 -0.248 20.936 C-1.09 22.663 -2.039 24.336 -3 26 C-3.99 26.33 -4.98 26.66 -6 27 C-5.67 25.35 -5.34 23.7 -5 22 C-4.34 22 -3.68 22 -3 22 C-2.951 20.998 -2.902 19.997 -2.852 18.965 C-2.776 17.622 -2.701 16.28 -2.625 14.938 C-2.59 14.282 -2.59 14.282 -2.414 10.965 C-2.002 7.019 -1.202 3.759 0 0 Z " fill="#2C6B08" transform="translate(140,115)"/>
<path d="M0 0 C0.66 0.99 1.32 1.98 2 3 C2.351 3.423 2.351 3.423 4.125 5.562 C6 8 6 8 6 10 C4.185 10.495 4.185 10.495 -5 13 C-2.054 3.893 -2.054 3.893 0 0 Z " fill="#ECEDD6" transform="translate(107,84)"/>
<path d="M0 0 C1.32 0 2.64 0 4 0 C4.651 1.953 5.302 3.906 5.953 5.859 C7 8 7 8 11 12 C6.05 12 1.1 12 -4 12 C-2.35 10.68 -0.7 9.36 1 8 C1.938 4.875 1.938 4.875 2 2 C1.34 1.34 0.68 0.68 0 0 Z " fill="#E9EC89" transform="translate(80,137)"/>
<path d="M0 0 C2 0.312 2 0.312 4 1 C4.33 1.66 4.66 2.32 5 3 C4.062 5.625 4.062 5.625 3 8 C2.34 6.68 1.68 5.36 1 4 C0.674 4.904 0.348 5.807 0.012 6.738 C-0.425 7.918 -0.862 9.097 -1.312 10.312 C-1.742 11.484 -2.171 12.656 -2.613 13.863 C-3.839 16.637 -4.688 18.122 -7 20 C-6.626 13.384 -4.872 4.872 0 0 Z " fill="#286D07" transform="translate(114,47)"/>
<path d="M0 0 C3.161 1.37 3.993 1.989 6 5 C6.562 8.965 6.79 12.744 4.625 16.188 C4.089 16.786 3.552 17.384 3 18 C2.276 19.98 1.597 21.978 1 24 C0.01 24 -0.98 24 -2 24 C-1.073 19.521 -0.422 16.615 2.188 12.812 C4 10 4 10 3.938 7.438 C2.898 4.735 1.588 2.417 0 0 Z " fill="#A3D22F" transform="translate(99,123)"/>
<path d="M0 0 C3 1.5 4.706 2.479 6.375 5.438 C7.028 8.113 6.945 9.449 6 12 C5.67 11.01 5.34 10.02 5 9 C2.69 9 0.38 9 -2 9 C-2.33 8.01 -2.66 7.02 -3 6 C-2.01 5.67 -1.02 5.34 0 5 C0 3.35 0 1.7 0 0 Z " fill="#84BF15" transform="translate(107,32)"/>
<path d="M0 0 C1.283 -0.014 2.565 -0.028 3.887 -0.043 C7.031 0.169 8.702 0.515 11.312 2.188 C3.255 4.701 -6.458 3.504 -14.688 2.188 C-14.688 1.857 -14.688 1.528 -14.688 1.188 C-9.751 0.389 -5.015 0.025 0 0 Z " fill="#C9CEA4" transform="translate(88.6875,164.8125)"/>
<path d="M0 0 C0.66 0.99 1.32 1.98 2 3 C1.461 4.805 1.461 4.805 0.375 6.875 C-2.457 12.702 -4.196 18.793 -6 25 C-8 22 -8 22 -7.848 19.336 C-6.797 15.202 -5.205 11.497 -3.438 7.625 C-3.108 6.889 -2.779 6.153 -2.439 5.395 C-1.633 3.594 -0.817 1.796 0 0 Z " fill="#347123" transform="translate(12,134)"/>
<path d="M0 0 C-0.66 2.31 -1.32 4.62 -2 7 C-2.66 6.67 -3.32 6.34 -4 6 C-6 5.96 -8 5.957 -10 6 C-10.66 7.65 -11.32 9.3 -12 11 C-13.125 9.25 -13.125 9.25 -14 7 C-13.367 4.969 -13.367 4.969 -12 3 C-9.688 1.953 -9.688 1.953 -7 1.25 C-6.113 1.008 -5.226 0.765 -4.312 0.516 C-2 0 -2 0 0 0 Z " fill="#CBDF4F" transform="translate(116,98)"/>
<path d="M0 0 C0.66 0.33 1.32 0.66 2 1 C1.285 5.764 0.205 10.342 -1 15 C-2.65 14.67 -4.3 14.34 -6 14 C-4.165 9.26 -2.081 4.636 0 0 Z " fill="#508C09" transform="translate(115,19)"/>
<path d="M0 0 C4.83 4.986 5 9.249 5 16 C-0.552 10.74 -0.552 10.74 -2 7 C-2.134 6.66 -2.134 6.66 -2.812 4.938 C-3 3 -3 3 -1.562 1.25 C-1.047 0.838 -0.531 0.425 0 0 Z " fill="#407F10" transform="translate(61,136)"/>
<path d="M0 0 C0.75 0.005 1.499 0.009 2.271 0.014 C4.119 0.025 5.966 0.043 7.812 0.062 C7.812 0.393 7.812 0.722 7.812 1.062 C3.192 1.393 -1.427 1.722 -6.188 2.062 C-6.188 2.722 -6.188 3.382 -6.188 4.062 C-8.663 6.184 -11.238 7.693 -14.188 9.062 C-14.553 4.55 -14.553 4.55 -12.875 2.312 C-8.958 -0.589 -4.634 -0.053 0 0 Z " fill="#CBD0A9" transform="translate(125.1875,143.9375)"/>
<path d="M0 0 C3.875 1.875 3.875 1.875 5 3 C5.25 5.438 5.25 5.438 5 8 C1.767 10.155 0.748 10.469 -3 10 C-4.812 8.812 -4.812 8.812 -6 7 C-6.188 4.312 -6.188 4.312 -6 2 C-5.01 1.67 -4.02 1.34 -3 1 C-3 2.98 -3 4.96 -3 7 C-1.68 7 -0.36 7 1 7 C1.125 2.25 1.125 2.25 0 0 Z " fill="#BEC730" transform="translate(124,115)"/>
<path d="M0 0 C0.66 0.33 1.32 0.66 2 1 C0.608 3.784 -1.156 3.979 -4 5 C-3.01 5.66 -2.02 6.32 -1 7 C-2 8 -2 8 -4.941 8.098 C-5.539 8.092 -5.539 8.092 -8.562 8.062 C-9.161 8.058 -9.161 8.058 -12.191 8.035 C-13.118 8.024 -14.045 8.012 -15 8 C-11.969 5.558 -8.91 3.87 -5.375 2.25 C-4.413 1.801 -3.452 1.353 -2.461 0.891 C-1.649 0.597 -0.837 0.303 0 0 Z " fill="#D7D3AB" transform="translate(34,151)"/>
<path d="M0 0 C0.293 6.055 0.293 6.055 0 8 C-3 10 -3 10 -5.688 9.625 C-6.451 9.419 -7.214 9.213 -8 9 C-7.825 6.643 -7.3 5.303 -5.633 3.621 C-1.321 0 -1.321 0 0 0 Z M-10 7 C-8 8 -8 8 -8 8 Z " fill="#327909" transform="translate(58,130)"/>
<path d="M0 0 C-0.021 1.093 -0.041 2.186 -0.062 3.312 C0 7 0 7 1 10 C-2.61 10 -5.558 9.039 -9 8 C-7.474 4.115 -4.498 0 0 0 Z " fill="#DDE778" transform="translate(78,119)"/>
<path d="M0 0 C0.66 0.99 1.32 1.98 2 3 C1.375 5.188 1.375 5.188 0 8 C-0.317 8.659 -0.634 9.317 -0.961 9.996 C-2.5 13.15 -4.048 16.072 -6 19 C-6.769 10.352 -6.769 10.352 -4.922 7.105 C-3.671 5.685 -2.338 4.338 -1 3 C-0.67 2.01 -0.34 1.02 0 0 Z " fill="#9CCF27" transform="translate(139,108)"/>
<path d="M0 0 C1.98 0.66 3.96 1.32 6 2 C6 2.33 6 2.66 6 3 C4.02 3.66 2.04 4.32 0 5 C-0.125 9.75 -0.125 9.75 1 12 C0.34 12 -0.32 12 -1 12 C-1.33 12.66 -1.66 13.32 -2 14 C-3.894 11.348 -5.018 9.748 -4.938 6.438 C-3.82 3.533 -2.328 2.027 0 0 Z " fill="#C4DB4B" transform="translate(68,125)"/>
<path d="M0 0 C0.33 0 0.66 0 1 0 C1.042 2.333 1.041 4.667 1 7 C-1.027 9.027 -5.037 8.185 -7.812 8.188 C-8.538 8.2 -9.263 8.212 -10.01 8.225 C-14.152 8.236 -16.201 7.899 -20 6 C-14.06 5.67 -8.12 5.34 -2 5 C-1.34 3.35 -0.68 1.7 0 0 Z " fill="#A8CF2D" transform="translate(132,121)"/>
<path d="M0 0 C1 2 2 4 3 6 C4.155 6.165 5.31 6.33 6.5 6.5 C7.655 6.665 8.81 6.83 10 7 C10.33 7.66 10.66 8.32 11 9 C4.375 12 4.375 12 1 12 C-0.262 9.475 -0.099 7.688 -0.062 4.875 C-0.053 3.965 -0.044 3.055 -0.035 2.117 C-0.024 1.419 -0.012 0.72 0 0 Z " fill="#DFED7B" transform="translate(102,105)"/>
<path d="M0 0 C0 0.66 0 1.32 0 2 C-12.485 7.371 -12.485 7.371 -19 9 C-19 7.68 -19 6.36 -19 5 C-18.443 4.89 -17.886 4.781 -17.312 4.668 C-13.267 3.827 -9.421 2.869 -5.562 1.375 C-2 0 -2 0 0 0 Z " fill="#436E20" transform="translate(120,91)"/>
<path d="M0 0 C0.33 1.32 0.66 2.64 1 4 C-0.031 3.938 -1.062 3.876 -2.125 3.812 C-6.258 4.012 -8.436 5.011 -12 7 C-12.66 7 -13.32 7 -14 7 C-14 6.01 -14 5.02 -14 4 C-9.226 1.286 -5.656 -0.566 0 0 Z " fill="#93CA25" transform="translate(126,92)"/>
<path d="M0 0 C-8.23 5.487 -19.155 8.41 -29 8 C-29 7.67 -29 7.34 -29 7 C-28.166 6.818 -27.332 6.636 -26.473 6.449 C-18.039 4.566 -8.512 -0.224 0 0 Z " fill="#F6EBD5" transform="translate(61,151)"/>
<path d="M0 0 C0.33 0.165 0.33 0.165 2 1 C2 1.66 2 2.32 2 3 C4.31 3 6.62 3 9 3 C8.34 3.33 8.34 3.33 5 5 C5.495 6.114 5.99 7.227 6.5 8.375 C8 12 8 12 8 14 C7.01 14 6.02 14 5 14 C2.467 9.358 0.535 5.348 0 0 Z " fill="#3A8808" transform="translate(68,150)"/>
<path d="M0 0 C0.99 0 1.98 0 3 0 C2.625 1.938 2.625 1.938 2 4 C-5.248 7.624 -18.021 6.149 -26 6 C-26 5.67 -26 5.34 -26 5 C-25.319 4.955 -24.638 4.91 -23.936 4.864 C-20.852 4.653 -17.77 4.42 -14.688 4.188 C-13.616 4.117 -12.544 4.047 -11.439 3.975 C-10.925 3.934 -10.925 3.934 -8.324 3.73 C-7.376 3.662 -6.428 3.594 -5.452 3.524 C-2.642 2.923 -1.908 2.048 0 0 Z " fill="#7DBA13" transform="translate(96,147)"/>
<path d="M0 0 C3.82 0.395 5.517 2.197 8 5 C8.299 5.32 8.299 5.32 9.812 6.938 C11 9 11 9 10.688 11.75 C10.461 12.493 10.234 13.235 10 14 C9.01 14 8.02 14 7 14 C7.33 12.68 7.66 11.36 8 10 C7.361 9.773 6.721 9.546 6.062 9.312 C5.382 8.879 4.701 8.446 4 8 C3.667 6.333 3.333 4.667 3 3 C0.938 1.688 0.938 1.688 -1 1 C-0.67 0.67 -0.34 0.34 0 0 Z " fill="#A5B527" transform="translate(90,120)"/>
<path d="M0 0 C0 6.537 -8.086 12.136 -12.438 16.5 C-13.956 18.003 -15.476 19.503 -17 21 C-17.66 20.67 -18.32 20.34 -19 20 C-18.131 19.143 -17.262 18.286 -16.367 17.402 C-4.99 6.13 -4.99 6.13 0 0 Z " fill="#4D920F" transform="translate(44,120)"/>
<path d="M0 0 C0.33 0 0.66 0 1 0 C1.33 3.96 1.66 7.92 2 12 C2.454 11.742 2.454 11.742 4.75 10.438 C8 9 8 9 10.375 9.312 C10.911 9.539 11.448 9.766 12 10 C11.618 10.206 11.618 10.206 9.688 11.25 C7.063 12.959 5.697 14.41 4 17 C1.051 14.655 0.07 13.577 -0.391 9.766 C-0.344 8.605 -0.298 7.445 -0.25 6.25 C-0.214 5.08 -0.178 3.909 -0.141 2.703 C-0.094 1.811 -0.048 0.919 0 0 Z " fill="#B1CD38" transform="translate(101,105)"/>
<path d="M0 0 C0.699 1.648 0.699 1.648 1 4 C-0.293 6.727 -0.293 6.727 -2.188 9.625 C-2.494 10.106 -2.494 10.106 -4.043 12.539 C-5.952 14.94 -7.172 15.934 -10 17 C-8.514 12.783 -6.388 9.375 -3.875 5.688 C-3.151 4.619 -2.426 3.55 -1.68 2.449 C-1.403 2.045 -1.403 2.045 0 0 Z " fill="#509610" transform="translate(91,61)"/>
<path d="M0 0 C4.159 1.879 6.398 4.208 9 8 C8.812 10.875 8.812 10.875 8 13 C6.68 13.33 5.36 13.66 4 14 C4.268 13.175 4.536 12.35 4.812 11.5 C5.077 6.558 2.847 3.882 0 0 Z " fill="#D0E869" transform="translate(95,121)"/>
<path d="M0 0 C2.625 0.375 2.625 0.375 5 1 C5 2.32 5 3.64 5 5 C4 6 4 6 1.438 6.062 C1.035 6.052 1.035 6.052 -1 6 C-1.625 4.125 -1.625 4.125 -2 2 C-1.34 1.34 -0.68 0.68 0 0 Z " fill="#F3EEA9" transform="translate(71,129)"/>
<path d="M0 0 C0.66 0.33 1.32 0.66 2 1 C0.68 2.98 0.68 2.98 -6 13 C-7.108 9.677 -6.933 8.308 -6 5 C-4.106 3.106 -2.155 1.58 0 0 Z " fill="#82C02E" transform="translate(84,69)"/>
<path d="M0 0 C0.99 0 1.98 0 3 0 C1.55 4.11 -0.511 7.433 -3 11 C-4.32 10.67 -5.64 10.34 -7 10 C-6.578 9.446 -6.157 8.891 -5.723 8.32 C-5.175 7.596 -4.627 6.871 -4.062 6.125 C-3.517 5.406 -2.972 4.686 -2.41 3.945 C-1 2 -1 2 0 0 Z " fill="#A1D02E" transform="translate(110,18)"/>
<path d="M0 0 C1.675 0.286 3.344 0.618 5 1 C5.562 2.938 5.562 2.938 6 5 C5 6 5 6 1.938 6.062 C1.453 6.052 1.453 6.052 -1 6 C-1.043 4.334 -1.041 2.666 -1 1 C-0.67 0.67 -0.34 0.34 0 0 Z " fill="#F4F5C9" transform="translate(107,104)"/>
<path d="M0 0 C2.504 0.835 4.668 1.794 7 3 C6.484 3.124 5.969 3.248 5.438 3.375 C2.273 4.186 -0.861 5.095 -4 6 C-4.66 5.34 -5.32 4.68 -6 4 C-3.188 1.938 -3.188 1.938 0 0 Z " fill="#327406" transform="translate(30,147)"/>
<path d="M0 0 C2.375 -0.125 2.375 -0.125 5 0 C5.66 0.66 6.32 1.32 7 2 C6.67 5.297 6.377 6.623 4 9 C0.875 9.125 0.875 9.125 -2 9 C-2 8.34 -2 7.68 -2 7 C-0.35 6.67 1.3 6.34 3 6 C3 4.68 3 3.36 3 2 C2.01 1.34 1.02 0.68 0 0 Z " fill="#AABE26" transform="translate(129,106)"/>
<path d="M0 0 C-0.945 2.363 -1.58 3.73 -3.75 5.125 C-6.403 6.157 -8.414 6.2 -11.25 6.125 C-12.142 6.107 -13.034 6.089 -13.953 6.07 C-14.291 6.059 -14.291 6.059 -16 6 C-16 5.34 -16 4.68 -16 4 C-15.325 3.963 -14.649 3.925 -13.953 3.887 C-13.061 3.821 -12.169 3.755 -11.25 3.688 C-10.368 3.629 -9.487 3.571 -8.578 3.512 C-5.174 2.836 -3.329 0 0 0 Z " fill="#3D841C" transform="translate(107,22)"/>
<path d="M0 0 C0.402 0.01 0.402 0.01 2.438 0.062 C2.438 1.382 2.438 2.703 2.438 4.062 C-0.562 6.312 -0.562 6.312 -3.562 8.062 C-3.605 5.73 -3.603 3.395 -3.562 1.062 C-2.562 0.062 -2.562 0.062 0 0 Z " fill="#F4F3AD" transform="translate(91.5625,122.9375)"/>
<path d="M0 0 C0.99 0.66 1.98 1.32 3 2 C1.545 2.838 0.086 3.671 -1.375 4.5 C-1.781 4.732 -1.781 4.732 -3.836 5.906 C-6 7 -6 7 -8 7 C-8.33 5.35 -8.66 3.7 -9 2 C-6.949 1.772 -4.898 1.544 -2.848 1.316 C-1 1 -1 1 0 0 Z " fill="#E6EB83" transform="translate(76,135)"/>
<path d="M0 0 C0.402 0.01 0.402 0.01 2.438 0.062 C3 2 3 2 3.438 4.062 C2.438 5.062 2.438 5.062 -0.625 5.125 C-1.594 5.104 -2.564 5.084 -3.562 5.062 C-3.562 0.087 -3.562 0.087 0 0 Z " fill="#F4F4B4" transform="translate(95.5625,128.9375)"/>
<path d="M0 0 C0 3 0 3 -2.266 5.629 C-3.253 6.615 -4.248 7.592 -5.25 8.562 C-5.741 9.057 -6.232 9.551 -6.738 10.061 C-9.305 12.59 -11.638 14.647 -15 16 C-13.405 11.777 -10.233 9.223 -6.938 6.312 C-6.383 5.814 -5.828 5.316 -5.256 4.803 C-3.84 3.532 -2.42 2.266 -1 1 C-0.67 0.67 -0.34 0.34 0 0 Z " fill="#7CB62B" transform="translate(43,113)"/>
<path d="M0 0 C1 2 1 2 -0.062 5.375 C-1.86 9.399 -4.206 10.892 -8 13 C-6.532 9.893 -4.8 7.095 -2.875 4.25 C-2.606 3.85 -2.606 3.85 -1.242 1.828 C-1.037 1.526 -1.037 1.526 0 0 Z " fill="#8ECA3B" transform="translate(95,50)"/>
<path d="M0 0 C2.312 2.625 2.312 2.625 4 6 C3.25 9.375 3.25 9.375 2 12 C1.34 12 0.68 12 0 12 C0.186 11.051 0.371 10.102 0.562 9.125 C1 6 1 6 0 4 C-1.65 4 -3.3 4 -5 4 C-5 3.01 -5 2.02 -5 1 C-3 0 -3 0 0 0 Z " fill="#549A0A" transform="translate(101,33)"/>
<path d="M0 0 C0.66 0.99 1.32 1.98 2 3 C1.752 3.361 1.752 3.361 0.5 5.188 C-1.079 8.148 -1.282 9.713 -1 13 C-2.32 13.33 -3.64 13.66 -5 14 C-4.549 12.227 -4.089 10.457 -3.625 8.688 C-3.37 7.701 -3.115 6.715 -2.852 5.699 C-2 3 -2 3 0 0 Z " fill="#5EA615" transform="translate(11,143)"/>
<path d="M0 0 C0.402 0.01 0.402 0.01 2.438 0.062 C2.438 1.713 2.438 3.362 2.438 5.062 C0.787 5.392 -0.862 5.722 -2.562 6.062 C-2.945 4.406 -3.276 2.738 -3.562 1.062 C-2.562 0.062 -2.562 0.062 0 0 Z " fill="#F2F3A3" transform="translate(123.5625,116.9375)"/>
<path d="M0 0 C2.846 1.276 5.181 2.415 7 5 C6.688 7.688 6.688 7.688 6 10 C3.228 8.614 2.519 6.659 1 4 C0.34 3.01 -0.32 2.02 -1 1 C-0.67 0.67 -0.34 0.34 0 0 Z " fill="#82BE16" transform="translate(136,102)"/>
<path d="M0 0 C0.66 0 1.32 0 2 0 C0.484 3.478 -1.577 5.956 -4.125 8.75 C-4.849 9.549 -5.574 10.348 -6.32 11.172 C-6.875 11.775 -7.429 12.378 -8 13 C-8.99 12.67 -9.98 12.34 -11 12 C-10.541 11.553 -10.082 11.105 -9.609 10.645 C-6.796 7.873 -4.135 5.171 -1.688 2.062 C-1.131 1.382 -0.574 0.701 0 0 Z " fill="#2F6A21" transform="translate(84,33)"/>
<path d="M0 0 C1.65 0.33 3.3 0.66 5 1 C4.67 2.65 4.34 4.3 4 6 C2.35 5.67 0.7 5.34 -1 5 C-0.67 3.35 -0.34 1.7 0 0 Z " fill="#F5F3B4" transform="translate(88,138)"/>
<path d="M0 0 C1.32 0 2.64 0 4 0 C4 1.65 4 3.3 4 5 C2.35 5.33 0.7 5.66 -1 6 C-1.625 4.125 -1.625 4.125 -2 2 C-1.34 1.34 -0.68 0.68 0 0 Z " fill="#F3F2B7" transform="translate(76,139)"/>
<path d="M0 0 C2.625 0.375 2.625 0.375 5 1 C4.361 1.268 3.721 1.536 3.062 1.812 C1 3 1 3 0 6 C1.98 6.66 3.96 7.32 6 8 C6 8.33 6 8.66 6 9 C-0.75 8.25 -0.75 8.25 -3 6 C-2.633 3.065 -2.136 2.136 0 0 Z " fill="#C9CA4A" transform="translate(92,127)"/>
<path d="M0 0 C0.433 0.155 0.433 0.155 2.625 0.938 C8.57 2.673 14.851 2.676 21 3 C21 3.33 21 3.66 21 4 C14.4 4 7.8 4 1 4 C0.67 2.68 0.34 1.36 0 0 Z " fill="#7EB512" transform="translate(109,126)"/>
<path d="M0 0 C0.402 0.01 0.402 0.01 2.438 0.062 C2.108 1.713 1.778 3.362 1.438 5.062 C-0.543 5.062 -2.522 5.062 -4.562 5.062 C-3.438 0.084 -3.438 0.084 0 0 Z " fill="#F4F2B8" transform="translate(111.5625,115.9375)"/>
<path d="M0 0 C0 0.66 0 1.32 0 2 C-1.011 1.876 -2.021 1.752 -3.062 1.625 C-8.266 2.121 -10.447 4.372 -14 8 C-14.66 7.67 -15.32 7.34 -16 7 C-11.631 1.088 -7.721 -2.271 0 0 Z " fill="#236603" transform="translate(86,112)"/>
<path d="M0 0 C1.667 1.667 3.333 3.333 5 5 C2.605 7.899 0.688 8.502 -3 9 C-2.01 6.03 -1.02 3.06 0 0 Z " fill="#E2E5C4" transform="translate(105,88)"/>
<path d="M0 0 C-0.66 0.66 -1.32 1.32 -2 2 C-4.82 1.977 -4.82 1.977 -8.125 1.625 C-9.221 1.514 -10.316 1.403 -11.445 1.289 C-12.288 1.194 -13.131 1.098 -14 1 C-14 0.67 -14 0.34 -14 0 C-12.421 -0.392 -10.836 -0.763 -9.25 -1.125 C-8.368 -1.334 -7.487 -1.543 -6.578 -1.758 C-3.671 -2.031 -2.433 -1.535 0 0 Z " fill="#346918" transform="translate(103,164)"/>
<path d="M0 0 C0.949 0.041 1.897 0.082 2.875 0.125 C3.205 1.445 3.535 2.765 3.875 4.125 C1.565 3.465 -0.745 2.805 -3.125 2.125 C-3.125 4.105 -3.125 6.085 -3.125 8.125 C-3.785 7.795 -4.445 7.465 -5.125 7.125 C-5.25 4.75 -5.25 4.75 -5.125 2.125 C-3.125 0.125 -3.125 0.125 0 0 Z " fill="#9FAE27" transform="translate(82.125,118.875)"/>
<path d="M0 0 C1.65 0 3.3 0 5 0 C4.67 1.65 4.34 3.3 4 5 C2.35 4.67 0.7 4.34 -1 4 C-0.67 2.68 -0.34 1.36 0 0 Z " fill="#F1F2AB" transform="translate(128,108)"/>
<path d="M0 0 C1 3 1 3 0.375 5.438 C-1.266 8.496 -3.194 10.006 -6 12 C-4.681 7.385 -2.786 3.901 0 0 Z " fill="#175103" transform="translate(101,93)"/>
<path d="M0 0 C0.99 0.99 1.98 1.98 3 3 C2.312 5.438 2.312 5.438 1 8 C-1.5 8.938 -1.5 8.938 -4 9 C-4.66 8.34 -5.32 7.68 -6 7 C-5.598 6.887 -5.598 6.887 -3.562 6.312 C-2.717 5.879 -1.871 5.446 -1 5 C-0.188 2.375 -0.188 2.375 0 0 Z " fill="#D8E369" transform="translate(95,140)"/>
<path d="M0 0 C1.32 0.33 2.64 0.66 4 1 C3.688 3.375 3.688 3.375 3 6 C0 8 0 8 -3 8 C-3 7.34 -3 6.68 -3 6 C-2.34 5.67 -1.68 5.34 -1 5 C-0.375 2.438 -0.375 2.438 0 0 Z " fill="#DCE871" transform="translate(129,118)"/>
<path d="M0 0 C0.33 1.32 0.66 2.64 1 4 C3.64 3.34 6.28 2.68 9 2 C8.67 3.32 8.34 4.64 8 6 C5.36 6 2.72 6 0 6 C-1 3 -1 3 0 0 Z " fill="#C4CE4D" transform="translate(105,106)"/>
<path d="M0 0 C0.66 0.33 1.32 0.66 2 1 C1.385 6.538 1.385 6.538 -0.562 8.875 C-1.037 9.246 -1.511 9.617 -2 10 C-2.688 8.375 -2.688 8.375 -3 6 C-1.562 2.75 -1.562 2.75 0 0 Z " fill="#5A9711" transform="translate(115,19)"/>
<path d="M0 0 C0.66 0.33 1.32 0.66 2 1 C1.01 3.64 0.02 6.28 -1 9 C-1.99 9 -2.98 9 -4 9 C-3.718 7.685 -3.424 6.373 -3.125 5.062 C-2.963 4.332 -2.8 3.601 -2.633 2.848 C-2 1 -2 1 0 0 Z " fill="#95C61E" transform="translate(101,138)"/>
<path d="M0 0 C2.932 2.853 5.643 5.651 8 9 C5 9 5 9 3.395 7.469 C2.872 6.819 2.35 6.169 1.812 5.5 C1.283 4.85 0.753 4.201 0.207 3.531 C-0.191 3.026 -0.59 2.521 -1 2 C-0.67 1.34 -0.34 0.68 0 0 Z " fill="#347505" transform="translate(98,114)"/>
<path d="M0 0 C0.33 0.99 0.66 1.98 1 3 C-1.97 5.64 -4.94 8.28 -8 11 C-8.66 10.67 -9.32 10.34 -10 10 C-6.7 6.7 -3.4 3.4 0 0 Z " fill="#5CA016" transform="translate(55,109)"/>
<path d="M0 0 C2.375 -0.125 2.375 -0.125 5 0 C5.66 0.66 6.32 1.32 7 2 C6.625 5.125 6.625 5.125 6 8 C5.34 7.67 4.68 7.34 4 7 C4 5.68 4 4.36 4 3 C2.35 3 0.7 3 -1 3 C-0.67 2.01 -0.34 1.02 0 0 Z " fill="#A2B327" transform="translate(120,98)"/>
<path d="M0 0 C6 7.714 6 7.714 6 11 C4.125 10.875 4.125 10.875 2 10 C0.402 6.403 0 3.966 0 0 Z " fill="#A3D224" transform="translate(62,131)"/>
<path d="M0 0 C0.99 0.33 1.98 0.66 3 1 C2.67 2.98 2.34 4.96 2 7 C0.35 7.33 -1.3 7.66 -3 8 C-2.01 5.36 -1.02 2.72 0 0 Z " fill="#D9D4AC" transform="translate(138,136)"/>
<path d="M0 0 C1.32 0 2.64 0 4 0 C4.33 1.32 4.66 2.64 5 4 C4.34 4.33 4.34 4.33 1 6 C0 5 0 5 -0.062 2.438 C-0.042 1.633 -0.021 0.829 0 0 Z " fill="#F1F2B8" transform="translate(79,121)"/>
<path d="M0 0 C0.99 0.99 1.98 1.98 3 3 C1.35 4.98 -0.3 6.96 -2 9 C-2 6 -2 6 0 3 C-0.66 3.33 -0.66 3.33 -4 5 C-3 2 -3 2 0 0 Z " fill="#7EBA2C" transform="translate(47,104)"/>
<path d="M0 0 C0.825 0.165 0.825 0.165 5 1 C5 2.32 5 3.64 5 5 C3.35 5 1.7 5 0 5 C0 3.35 0 1.7 0 0 Z " fill="#F0F0B0" transform="translate(120,100)"/>
<path d="M0 0 C0.66 0.99 1.32 1.98 2 3 C1.047 6.467 -0.287 8.657 -3 11 C-3.75 9.438 -3.75 9.438 -4 7 C-2.869 4.497 -1.479 2.33 0 0 Z " fill="#79B32B" transform="translate(19,133)"/>
<path d="M0 0 C0.99 0 1.98 0 3 0 C3 1.65 3 3.3 3 5 C3.99 5.33 4.98 5.66 6 6 C5.67 6.165 5.67 6.165 4 7 C3.67 7.66 3.34 8.32 3 9 C0.706 5.559 0 4.277 0 0 Z " fill="#D4E764" transform="translate(63,130)"/>
<path d="M0 0 C3.3 0 6.6 0 10 0 C8.68 0.33 7.36 0.66 6 1 C6 1.66 6 2.32 6 3 C4.68 3.33 3.36 3.66 2 4 C1.34 2.68 0.68 1.36 0 0 Z " fill="#BEDE41" transform="translate(91,29)"/>
<path d="M0 0 C0.66 0.33 1.32 0.66 2 1 C0.585 3.034 -0.55 3.904 -2.98 4.422 C-4.982 4.663 -6.991 4.835 -9 5 C-7.25 3 -7.25 3 -5 1 C-3.68 1 -2.36 1 -1 1 C-0.67 0.67 -0.34 0.34 0 0 Z " fill="#E6DFC1" transform="translate(110,161)"/>
<path d="M0 0 C5.538 0.615 5.538 0.615 7.875 2.562 C8.061 2.8 8.061 2.8 9 4 C6.16 4 3.763 3.597 1 3 C0.67 2.01 0.34 1.02 0 0 Z " fill="#BBD847" transform="translate(87,117)"/>
<path d="M0 0 C0.33 0 0.66 0 1 0 C1 2.31 1 4.62 1 7 C-0.65 7 -2.3 7 -4 7 C-2.796 4.506 -1.546 2.319 0 0 Z " fill="#DDEDD6" transform="translate(95,106)"/>
<path d="M0 0 C0.33 0.99 0.66 1.98 1 3 C0 4 0 4 -2.066 4.098 C-2.89 4.086 -3.714 4.074 -4.562 4.062 C-5.389 4.053 -6.215 4.044 -7.066 4.035 C-7.704 4.024 -8.343 4.012 -9 4 C-6.314 1.314 -3.624 0.94 0 0 Z " fill="#79B31A" transform="translate(111,96)"/>
<path d="M0 0 C1.858 3.135 2.201 5.375 2 9 C0 7.812 0 7.812 -2 6 C-2.25 3.312 -2.25 3.312 -2 1 C-1.34 0.67 -0.68 0.34 0 0 Z " fill="#5C9710" transform="translate(117,40)"/>
<path d="M0 0 C0 0.66 0 1.32 0 2 C-3.205 4.622 -4.62 5.031 -8.812 4.688 C-9.338 4.574 -9.338 4.574 -12 4 C-12 3.67 -12 3.34 -12 3 C-10.376 2.497 -8.751 1.997 -7.125 1.5 C-6.22 1.222 -5.315 0.943 -4.383 0.656 C-2 0 -2 0 0 0 Z " fill="#CDD0AA" transform="translate(19,159)"/>
<path d="M0 0 C0.598 0.206 1.196 0.412 1.812 0.625 C1.812 1.285 1.812 1.945 1.812 2.625 C-0.168 3.285 -2.148 3.945 -4.188 4.625 C-4.517 3.635 -4.848 2.645 -5.188 1.625 C-2.188 -0.375 -2.188 -0.375 0 0 Z " fill="#368109" transform="translate(24.1875,151.375)"/>
<path d="M0 0 C0.99 0.33 1.98 0.66 3 1 C3 2.98 3 4.96 3 7 C1.35 7.33 -0.3 7.66 -2 8 C-1.34 7.01 -0.68 6.02 0 5 C0.125 2.312 0.125 2.312 0 0 Z " fill="#B2B71E" transform="translate(92,138)"/>
<path d="M0 0 C2.375 -0.125 2.375 -0.125 5 0 C5.66 0.66 6.32 1.32 7 2 C6.625 4.625 6.625 4.625 6 7 C5.01 7 4.02 7 3 7 C3.33 5.68 3.66 4.36 4 3 C2.68 2.01 1.36 1.02 0 0 Z " fill="#9FB11A" transform="translate(94,127)"/>
<path d="M0 0 C0.99 0.33 1.98 0.66 3 1 C2.34 1.66 1.68 2.32 1 3 C1.375 5.625 1.375 5.625 2 8 C0.68 7.67 -0.64 7.34 -2 7 C-2.125 4.625 -2.125 4.625 -2 2 C-1.34 1.34 -0.68 0.68 0 0 Z " fill="#97A714" transform="translate(69,128)"/>
<path d="M0 0 C0 3.589 -0.664 4.109 -3 6.688 C-3.557 7.31 -4.114 7.933 -4.688 8.574 C-5.121 9.045 -5.554 9.515 -6 10 C-6.66 9.67 -7.32 9.34 -8 9 C-5.36 6.03 -2.72 3.06 0 0 Z " fill="#599916" transform="translate(44,120)"/>
<path d="M0 0 C0.99 0 1.98 0 3 0 C2.34 2.97 1.68 5.94 1 9 C-1 6 -1 6 -0.625 2.812 C-0.419 1.884 -0.213 0.956 0 0 Z " fill="#347718" transform="translate(5,150)"/>
<path d="M0 0 C1 3 1 3 -0.438 6.188 C-0.695 6.652 -0.695 6.652 -2 9 C-2.66 9 -3.32 9 -4 9 C-3.67 7.35 -3.34 5.7 -3 4 C-2.34 4 -1.68 4 -1 4 C-0.67 2.68 -0.34 1.36 0 0 Z " fill="#215B09" transform="translate(138,133)"/>
<path d="M0 0 C1 3 1 3 0.004 5.043 C-0.472 5.751 -0.947 6.458 -1.438 7.188 C-1.911 7.903 -2.384 8.618 -2.871 9.355 C-3.244 9.898 -3.616 10.441 -4 11 C-5 8 -5 8 -4.004 5.957 C-3.528 5.249 -3.053 4.542 -2.562 3.812 C-2.089 3.097 -1.616 2.382 -1.129 1.645 C-0.756 1.102 -0.384 0.559 0 0 Z " fill="#87C535" transform="translate(25,124)"/>
<path d="M0 0 C2.884 1.293 4.872 2.659 7 5 C6.67 5.99 6.34 6.98 6 8 C3.333 5.51 1.443 3.366 0 0 Z " fill="#CBE455" transform="translate(95,121)"/>
<path d="M0 0 C0.99 0.165 0.99 0.165 6 1 C5.691 1.113 5.691 1.113 4.125 1.688 C1.386 3.379 0.95 4.992 0 8 C-1.125 6.25 -1.125 6.25 -2 4 C-1.125 1.75 -1.125 1.75 0 0 Z " fill="#BBDA3A" transform="translate(104,101)"/>
<path d="M0 0 C0 0.66 0 1.32 0 2 C-2.75 3.625 -2.75 3.625 -6 5 C-8.375 4.188 -8.375 4.188 -10 3 C-8.71 2.496 -7.418 1.997 -6.125 1.5 C-5.765 1.361 -5.765 1.361 -3.945 0.656 C-2 0 -2 0 0 0 Z " fill="#50852C" transform="translate(120,91)"/>
<path d="M0 0 C2.125 0.375 2.125 0.375 4 1 C4 2.65 4 4.3 4 6 C2.02 4.68 0.04 3.36 -2 2 C-1.34 1.34 -0.68 0.68 0 0 Z " fill="#8DC81E" transform="translate(95,117)"/>
<path d="M0 0 C2.188 0.312 2.188 0.312 4 1 C3.01 1.825 3.01 1.825 -2 6 C-2.33 5.01 -2.66 4.02 -3 3 C-1.75 1.438 -1.75 1.438 0 0 Z " fill="#9ECA26" transform="translate(72,119)"/>
<path d="M0 0 C0.66 0.33 1.32 0.66 2 1 C0.02 3.31 -1.96 5.62 -4 8 C-4.66 7.67 -5.32 7.34 -6 7 C-4.02 4.69 -2.04 2.38 0 0 Z " fill="#205F13" transform="translate(58,63)"/>
<path d="M0 0 C0.33 0.99 0.66 1.98 1 3 C3.64 3 6.28 3 9 3 C6.397 4.735 5.013 5.611 2 6 C1.34 5.34 0.68 4.68 0 4 C0 2.68 0 1.36 0 0 Z " fill="#2A6E0E" transform="translate(4,156)"/>
<path d="M0 0 C1.32 0 2.64 0 4 0 C4 2.64 4 5.28 4 8 C1.537 5.537 1.002 3.293 0 0 Z " fill="#8ABD1A" transform="translate(65,142)"/>
<path d="M0 0 C0.495 0.33 0.495 0.33 3 2 C4.655 2.385 6.322 2.728 8 3 C7.67 3.66 7.34 4.32 7 5 C4.625 5.125 4.625 5.125 2 5 C1.34 4.34 0.68 3.68 0 3 C0 2.01 0 1.02 0 0 Z " fill="#AEBE1E" transform="translate(72,142)"/>
<path d="M0 0 C1.461 2.923 2.341 4.925 3 8 C1.68 8.33 0.36 8.66 -1 9 C-0.67 6.03 -0.34 3.06 0 0 Z " fill="#1B6003" transform="translate(58,130)"/>
<path d="M0 0 C0.66 1.32 1.32 2.64 2 4 C-0.31 4.33 -2.62 4.66 -5 5 C-3.35 3.35 -1.7 1.7 0 0 Z " fill="#E9ED8B" transform="translate(117,120)"/>
<path d="M0 0 C0.33 0.99 0.66 1.98 1 3 C-0.32 4.32 -1.64 5.64 -3 7 C-3 6.34 -3 5.68 -3 5 C-4.32 4.67 -5.64 4.34 -7 4 C-5.35 4 -3.7 4 -2 4 C-1.34 2.68 -0.68 1.36 0 0 Z " fill="#C1C537" transform="translate(115,117)"/>
<path d="M0 0 C2.051 0.033 4.102 0.065 6.152 0.098 C4.178 2.62 3.185 3.091 -0.035 3.785 C-0.499 3.837 -0.499 3.837 -2.848 4.098 C-2.848 0.151 -2.848 0.151 0 0 Z " fill="#BBD242" transform="translate(80.84765625,115.90234375)"/>
<path d="M0 0 C1.32 0.66 2.64 1.32 4 2 C2.68 2.33 1.36 2.66 0 3 C-0.33 4.65 -0.66 6.3 -1 8 C-1.66 7.67 -2.32 7.34 -3 7 C-2.25 2.25 -2.25 2.25 0 0 Z " fill="#CDD253" transform="translate(128,106)"/>
<path d="M0 0 C0.66 0 1.32 0 2 0 C0.557 3.366 -1.333 5.51 -4 8 C-4 4.068 -2.606 2.836 0 0 Z " fill="#559F0C" transform="translate(87,47)"/>
<path d="M0 0 C0.99 0 1.98 0 3 0 C1.125 4.75 1.125 4.75 0 7 C-0.66 7 -1.32 7 -2 7 C-1.125 2.25 -1.125 2.25 0 0 Z " fill="#B0D93A" transform="translate(110,18)"/>
<path d="M0 0 C0.33 0.66 0.66 1.32 1 2 C0.093 2.144 -0.815 2.289 -1.75 2.438 C-4.215 2.864 -6.588 3.351 -9 4 C-9 3.34 -9 2.68 -9 2 C-5.565 -0.29 -4.015 -0.178 0 0 Z " fill="#2F6E10" transform="translate(36,149)"/>
<path d="M0 0 C0.66 0 1.32 0 2 0 C2 0.66 2 1.32 2 2 C4.31 2 6.62 2 9 2 C9 2.33 9 2.66 9 3 C5.04 3 1.08 3 -3 3 C-2.01 2.01 -1.02 1.02 0 0 Z " fill="#E0EB77" transform="translate(79,146)"/>
<path d="M0 0 C0.66 0.99 1.32 1.98 2 3 C1.01 4.98 0.02 6.96 -1 9 C-1.66 8.34 -2.32 7.68 -3 7 C-2.01 4.69 -1.02 2.38 0 0 Z " fill="#357224" transform="translate(21,115)"/>
<path d="M0 0 C0.66 0.66 1.32 1.32 2 2 C1.01 4.64 0.02 7.28 -1 10 C-1.33 10 -1.66 10 -2 10 C-1.86 8.52 -1.712 7.041 -1.562 5.562 C-1.481 4.739 -1.4 3.915 -1.316 3.066 C-1 1 -1 1 0 0 Z " fill="#8CC11E" transform="translate(135,117)"/>
<path d="M0 0 C2.31 0 4.62 0 7 0 C7.66 1.32 8.32 2.64 9 4 C8.01 4 7.02 4 6 4 C5.34 3.34 4.68 2.68 4 2 C2.683 1.303 1.351 0.63 0 0 Z " fill="#D3E260" transform="translate(80,117)"/>
</svg>
