<?xml version="1.0" encoding="UTF-8"?>
<!-- Generator: visioncortex VTracer 0.6.12 -->
<svg version="1.1" xmlns="http://www.w3.org/2000/svg" width="164" height="185">
<path d="M0 0 C54.12 0 108.24 0 164 0 C164 61.05 164 122.1 164 185 C109.88 185 55.76 185 0 185 C0 123.95 0 62.9 0 0 Z " fill="#FCF6EA" transform="translate(0,0)"/>
<path d="M0 0 C3.181 0.087 4.292 0.434 7.188 2.062 C9.187 4.375 9.187 4.375 9.75 6.688 C8.959 10.467 7.238 13.107 5.188 16.375 C5.756 16.401 6.324 16.427 6.91 16.453 C11.885 16.819 14.936 17.652 19.195 20.41 C21.746 21.645 24.067 21.896 26.875 22.25 C38.165 23.901 47.173 29.431 54.188 38.375 C64.768 54.078 67.028 69.426 64.688 88.062 C61.721 101.381 53.698 113.398 43.125 121.812 C40.284 123.324 37.44 124.404 34.402 125.453 C30.884 126.918 27.771 128.999 24.582 131.07 C20.374 133.363 16.348 133.513 11.625 133.5 C10.696 133.503 9.766 133.505 8.809 133.508 C6.187 133.375 6.187 133.375 4.098 132.746 C1.507 132.243 0.461 133.033 -1.812 134.312 C-7.453 136.962 -12.673 137.343 -18.812 136.375 C-21.424 135.262 -23.799 133.946 -26.258 132.531 C-29.214 131.193 -31.456 131.038 -34.688 130.938 C-46.878 130.388 -55.679 122.717 -63.812 114.375 C-64.617 113.653 -65.421 112.931 -66.25 112.188 C-69.218 108.93 -71.288 105.487 -73.48 101.68 C-74.525 99.872 -75.654 98.112 -76.812 96.375 C-81.33 83.465 -82.472 66.047 -76.812 53.375 C-76.557 52.721 -76.302 52.068 -76.039 51.395 C-73.204 44.88 -68.447 39.676 -63.812 34.375 C-63.245 33.7 -62.678 33.024 -62.094 32.328 C-56.326 25.938 -48.302 21.313 -39.625 20.812 C-39.22 20.797 -39.22 20.797 -37.168 20.719 C-34.382 20.312 -32.791 19.334 -30.438 17.812 C-25.139 14.523 -19.885 14.712 -13.812 15.375 C-13.483 15.54 -13.483 15.54 -11.812 16.375 C-11.782 15.962 -11.782 15.962 -11.625 13.875 C-10.176 7.632 -6.759 0.665 0 0 Z " fill="#EB8203" transform="translate(86.8125,34.625)"/>
<path d="M0 0 C8.114 5.358 14.157 14.783 16.559 24.188 C19.231 41.214 15.959 56.705 5.871 70.633 C2.38 75.049 -1.312 78.875 -6 82 C-6.99 82 -7.98 82 -9 82 C-8.732 81.34 -8.464 80.68 -8.188 80 C-7.796 79.01 -7.404 78.02 -7 77 C-6.724 76.372 -6.448 75.744 -6.164 75.098 C-4.266 70.561 -3.884 67.909 -5 63 C-4.675 61.665 -4.34 60.332 -4 59 C-3.751 55.107 -3.769 51.212 -3.75 47.312 C-3.729 46.261 -3.709 45.21 -3.688 44.127 C-3.654 37.483 -4.456 32.135 -7 26 C-7.327 25.118 -7.655 24.237 -7.992 23.328 C-10.019 18.558 -12.063 15.39 -16 12 C-16 15.663 -13.751 18.919 -12.191 22.176 C-8.33 31.33 -8.365 45.739 -12 55 C-14.878 60.998 -17.742 66.132 -24 69 C-27.25 69.438 -27.25 69.438 -30 69 C-32.121 65.818 -32.369 64.434 -32.746 60.723 C-32.859 59.661 -32.973 58.6 -33.089 57.506 C-33.204 56.37 -33.319 55.233 -33.438 54.062 C-33.697 51.698 -33.959 49.333 -34.223 46.969 C-34.353 45.792 -34.483 44.615 -34.618 43.402 C-37.29 19.618 -37.29 19.618 -42.012 11.289 C-43.265 8.386 -43.229 6.132 -43 3 C-42.67 2.34 -42.34 1.68 -42 1 C-39.351 0.406 -36.708 0.258 -34 0 C-34 -0.66 -34 -1.32 -34 -2 C-23.3 -8.264 -10.335 -5.778 0 0 Z " fill="#EA8103" transform="translate(133,73)"/>
<path d="M0 0 C5.35 2.871 10.606 9.909 12.576 15.689 C13.169 18.921 13.203 22.131 13.238 25.406 C13.246 26.127 13.254 26.847 13.263 27.59 C13.277 29.116 13.287 30.643 13.295 32.169 C13.307 33.709 13.327 35.249 13.357 36.788 C13.583 48.508 13.155 60.68 5 70 C-1.248 74.718 -7.78 75.457 -15.496 74.781 C-20.846 73.843 -24.18 71.998 -28 68 C-35.092 57.863 -34.038 44.147 -32.5 32.312 C-30.297 22.202 -24.237 9.375 -15.605 3.32 C-10.107 0.602 -6.143 -0.937 0 0 Z " fill="#FC960A" transform="translate(80,75)"/>
<path d="M0 0 C3.181 0.087 4.292 0.434 7.188 2.062 C9.187 4.375 9.187 4.375 9.75 6.688 C8.959 10.467 7.238 13.107 5.188 16.375 C5.756 16.401 6.324 16.427 6.91 16.453 C11.885 16.819 14.936 17.652 19.195 20.41 C21.746 21.645 24.067 21.896 26.875 22.25 C38.165 23.901 47.173 29.431 54.188 38.375 C64.768 54.078 67.028 69.426 64.688 88.062 C61.721 101.381 53.698 113.398 43.125 121.812 C40.284 123.324 37.44 124.404 34.402 125.453 C30.884 126.918 27.771 128.999 24.582 131.07 C20.374 133.363 16.348 133.513 11.625 133.5 C10.696 133.503 9.766 133.505 8.809 133.508 C6.187 133.375 6.187 133.375 4.098 132.746 C1.507 132.243 0.461 133.033 -1.812 134.312 C-7.453 136.962 -12.673 137.343 -18.812 136.375 C-21.424 135.262 -23.799 133.946 -26.258 132.531 C-29.214 131.193 -31.456 131.038 -34.688 130.938 C-46.878 130.388 -55.679 122.717 -63.812 114.375 C-64.617 113.653 -65.421 112.931 -66.25 112.188 C-69.218 108.93 -71.288 105.487 -73.48 101.68 C-74.525 99.872 -75.654 98.112 -76.812 96.375 C-81.33 83.465 -82.472 66.047 -76.812 53.375 C-76.557 52.721 -76.302 52.068 -76.039 51.395 C-71.226 40.334 -60.861 28.49 -49.812 23.375 C-46.875 23.125 -46.875 23.125 -44.812 23.375 C-48.48 26.251 -52.398 28.437 -56.473 30.68 C-59.174 32.637 -60.111 34.532 -61.812 37.375 C-63.319 38.593 -64.827 39.81 -66.346 41.013 C-68.846 43.335 -70.099 46.143 -71.562 49.188 C-72.135 50.349 -72.707 51.51 -73.297 52.707 C-76.35 60.095 -77.201 66.645 -77.188 74.562 C-77.187 75.023 -77.187 75.023 -77.185 77.354 C-77.014 87.278 -74.608 95.627 -69.812 104.375 C-69.153 104.705 -68.493 105.035 -67.812 105.375 C-67.153 104.055 -66.493 102.735 -65.812 101.375 C-65.377 102.16 -64.941 102.945 -64.492 103.754 C-61.063 109.804 -57.663 115.371 -52.812 120.375 C-52.337 120.896 -51.861 121.417 -51.371 121.953 C-47.525 125.461 -42.401 126.562 -37.312 126.562 C-36.735 126.532 -36.735 126.532 -33.812 126.375 C-34.112 125.87 -34.112 125.87 -35.625 123.312 C-39.905 115.8 -41.95 109.393 -41.91 100.762 C-41.907 99.515 -41.904 98.267 -41.9 96.982 C-41.896 96.336 -41.896 96.336 -41.875 93.062 C-41.87 91.75 -41.866 90.437 -41.861 89.084 C-41.85 85.848 -41.833 82.611 -41.812 79.375 C-41.483 79.375 -41.153 79.375 -40.812 79.375 C-40.808 79.952 -40.804 80.53 -40.8 81.125 C-40.675 91.238 -40.438 101.071 -37.5 110.812 C-37.299 111.478 -37.099 112.144 -36.892 112.83 C-34.898 118.894 -32.272 124.696 -27.188 128.75 C-26.892 128.991 -26.892 128.991 -25.398 130.211 C-21.801 132.851 -18.365 132.594 -14.062 132.625 C-13.359 132.646 -12.655 132.666 -11.93 132.688 C-8.182 132.715 -6.1 132.52 -2.672 130.797 C0.901 129.02 2.347 129.532 6.188 130.375 C8.98 130.508 11.768 130.47 14.562 130.438 C14.931 130.435 14.931 130.435 16.793 130.424 C18.591 130.412 20.389 130.394 22.188 130.375 C22.188 129.715 22.188 129.055 22.188 128.375 C28.938 124.375 28.938 124.375 31.188 124.375 C32.491 121.774 33.782 119.167 35.062 116.555 C35.771 115.12 36.479 113.685 37.188 112.25 C37.543 111.522 37.899 110.793 38.266 110.043 C38.611 109.346 38.957 108.648 39.312 107.93 C39.624 107.295 39.936 106.661 40.258 106.007 C41.188 104.375 41.188 104.375 43.188 102.375 C42.843 109.613 41.085 114.291 37.188 120.375 C48.164 114.775 55.958 105.302 60.062 93.625 C63.578 82.321 64.402 66.245 59.188 55.375 C57.716 52.927 56.175 50.592 54.492 48.285 C53.188 46.375 53.188 46.375 52.188 43.375 C50.367 42.344 50.367 42.344 48.188 41.375 C46.234 40.141 44.308 38.872 42.383 37.594 C37.217 34.726 32.614 34.101 26.75 34.125 C25.493 34.12 24.236 34.115 22.941 34.109 C19.008 34.388 15.917 35.162 12.188 36.375 C12.188 37.035 12.188 37.695 12.188 38.375 C11.512 38.568 10.837 38.762 10.141 38.961 C9.695 39.091 9.695 39.091 7.438 39.75 C6.556 40.005 5.674 40.26 4.766 40.523 C2.188 41.375 2.188 41.375 0 42.531 C-0.598 42.81 -1.196 43.088 -1.812 43.375 C-3.485 42.724 -5.151 42.055 -6.812 41.375 C-11.676 41.143 -16.023 41.417 -20.812 42.375 C-20.977 41.715 -20.977 41.715 -21.812 38.375 C-23.133 38.045 -24.453 37.715 -25.812 37.375 C-26.125 35.125 -26.125 35.125 -25.812 32.375 C-23.35 29.912 -21.491 28.564 -18.125 27.625 C-15.812 26.375 -15.812 26.375 -15.055 24.477 C-14.553 22.463 -14.175 20.419 -13.812 18.375 C-17.112 18.045 -20.412 17.715 -23.812 17.375 C-23.812 17.045 -23.812 16.715 -23.812 16.375 C-19.852 16.375 -15.892 16.375 -11.812 16.375 C-11.782 15.962 -11.782 15.962 -11.625 13.875 C-10.176 7.632 -6.759 0.665 0 0 Z " fill="#C16010" transform="translate(86.8125,34.625)"/>
<path d="M0 0 C0.99 0.66 1.98 1.32 3 2 C1.47 3.4 -0.06 4.799 -1.59 6.199 C-3.354 8.452 -3.442 10.196 -4 13 C-5.249 15.556 -6.536 18.056 -7.875 20.562 C-16.492 37.504 -17.626 56.709 -12.926 75.176 C-11.646 79.08 -10.046 82.436 -8 86 C-7.326 87.33 -6.657 88.662 -6 90 C-13.113 90.452 -17.715 89.328 -24 86 C-24 85.34 -24 84.68 -24 84 C-24.293 83.881 -24.293 83.881 -25.773 83.277 C-28.458 81.737 -29.781 80.036 -31.625 77.562 C-32.215 76.78 -32.806 75.998 -33.414 75.191 C-39.878 66.259 -41.382 57.101 -41.438 46.312 C-41.442 45.879 -41.442 45.879 -41.467 43.688 C-41.271 28.683 -34.496 17.328 -24 7 C-20.875 4.562 -20.875 4.562 -18 3 C-16.948 2.422 -15.896 1.845 -14.812 1.25 C-10.126 -0.668 -4.97 -0.609 0 0 Z " fill="#F79107" transform="translate(60,72)"/>
<path d="M0 0 C-0.66 0.66 -1.32 1.32 -2 2 C-1.34 2.33 -0.68 2.66 0 3 C0.25 8.625 0.25 8.625 -2 12 C-3.875 12.957 -3.875 12.957 -6 13.812 C-9.371 15.382 -9.854 15.683 -11.5 19.25 C-11.665 20.157 -11.83 21.065 -12 22 C-11.216 22.103 -10.432 22.206 -9.625 22.312 C-7 23 -7 23 -5 26 C-4.34 26.33 -3.68 26.66 -3 27 C-4.176 27.454 -5.351 27.907 -6.562 28.375 C-16.131 33.193 -20.751 45.253 -23.973 54.918 C-24.686 57.27 -25.366 59.625 -26 62 C-26.33 62 -26.66 62 -27 62 C-27.308 52.921 -24.107 46.459 -19.91 38.699 C-18.632 36.331 -17.765 34.289 -16.91 31.699 C-15.729 28.196 -13.72 26.434 -11 24 C-15.048 21.976 -19.609 22.433 -24 23 C-34.938 26.8 -42.833 33.684 -48 44 C-48.873 46.255 -49.634 48.507 -50.324 50.824 C-51 53 -51 53 -52.062 55.133 C-53.478 59.461 -53.328 63.664 -53.312 68.188 C-53.329 69.083 -53.345 69.978 -53.361 70.9 C-53.366 77.388 -52.178 82.9 -50 89 C-50.66 88.67 -51.32 88.34 -52 88 C-52.66 88.99 -53.32 89.98 -54 91 C-57.381 87.994 -59.014 85.249 -60.688 81.062 C-61.104 80.043 -61.52 79.023 -61.949 77.973 C-66.473 65.174 -65.529 48.256 -60 36 C-57.081 29.976 -53.942 25.336 -48.516 21.352 C-47 20 -47 20 -46.109 18.035 C-44.595 15.257 -42.732 14.357 -40 12.812 C-39.557 12.558 -39.557 12.558 -37.312 11.27 C-35.889 10.488 -34.453 9.726 -33 9 C-33.33 8.34 -33.66 7.68 -34 7 C-33.583 6.957 -33.583 6.957 -31.473 6.738 C-21.16 5.451 -21.16 5.451 -16.438 2.375 C-11.212 -0.95 -6.001 -0.457 0 0 Z " fill="#D9790B" transform="translate(73,50)"/>
<path d="M0 0 C9.597 -1.02 17.221 1.457 24.844 7.449 C26 9 26 9 26 13 C26.744 14.842 27.564 16.654 28.438 18.438 C33.211 28.215 33.694 41.367 30.82 51.91 C28.178 58.641 24.785 64.89 18 68 C14.75 68.438 14.75 68.438 12 68 C9.879 64.818 9.631 63.434 9.254 59.723 C9.141 58.661 9.027 57.6 8.911 56.506 C8.796 55.37 8.681 54.233 8.562 53.062 C8.303 50.698 8.041 48.333 7.777 45.969 C7.647 44.792 7.517 43.615 7.382 42.402 C4.71 18.618 4.71 18.618 -0.012 10.289 C-1.265 7.386 -1.229 5.132 -1 2 C-0.67 1.34 -0.34 0.68 0 0 Z " fill="#FC950A" transform="translate(91,74)"/>
<path d="M0 0 C54.12 0 108.24 0 164 0 C164 61.05 164 122.1 164 185 C163.34 185 162.68 185 162 185 C162.005 184.113 162.009 183.226 162.014 182.312 C162.124 160.738 162.207 139.164 162.259 117.59 C162.285 107.157 162.32 96.724 162.377 86.291 C162.427 77.198 162.459 68.106 162.47 59.013 C162.477 54.198 162.492 49.383 162.529 44.568 C162.563 40.036 162.573 35.505 162.566 30.973 C162.567 29.309 162.577 27.646 162.596 25.982 C162.621 23.71 162.615 21.441 162.601 19.169 C162.606 17.898 162.61 16.627 162.615 15.317 C161.818 11.016 160.51 9.561 157 7 C153.988 6.382 153.988 6.382 150.572 6.392 C149.274 6.384 147.976 6.375 146.638 6.367 C145.207 6.383 143.775 6.399 142.343 6.417 C140.83 6.416 139.317 6.414 137.804 6.409 C133.701 6.404 129.598 6.429 125.495 6.46 C121.201 6.488 116.908 6.488 112.615 6.491 C105.407 6.5 98.199 6.528 90.992 6.568 C80.822 6.625 70.653 6.647 60.483 6.663 C53.443 6.676 46.402 6.696 39.361 6.719 C37.653 6.724 35.945 6.729 34.237 6.734 C29.369 6.748 24.501 6.768 19.634 6.795 C18.158 6.803 16.682 6.809 15.206 6.814 C13.195 6.82 11.184 6.833 9.174 6.846 C8.047 6.852 6.921 6.857 5.76 6.863 C3 7 3 7 0 8 C0 5.36 0 2.72 0 0 Z " fill="#FDFDFC" transform="translate(0,0)"/>
<path d="M0 0 C3.181 0.087 4.292 0.434 7.188 2.062 C9.188 4.375 9.188 4.375 9.75 6.75 C9.188 9.375 9.188 9.375 7.188 11.938 C4.258 16.972 4.856 21.681 5.188 27.375 C5.581 27.527 5.581 27.527 7.57 28.297 C11.645 29.975 11.645 29.975 13.188 32.375 C12.875 35.563 12.875 35.563 12.188 38.375 C11.512 38.568 10.837 38.762 10.141 38.961 C9.249 39.221 8.357 39.482 7.438 39.75 C6.556 40.005 5.674 40.26 4.766 40.523 C2.188 41.375 2.188 41.375 0 42.531 C-0.598 42.81 -1.196 43.088 -1.812 43.375 C-3.485 42.724 -5.151 42.055 -6.812 41.375 C-11.676 41.143 -16.023 41.417 -20.812 42.375 C-21.142 41.055 -21.472 39.735 -21.812 38.375 C-23.133 38.045 -24.453 37.715 -25.812 37.375 C-26.125 35.125 -26.125 35.125 -25.812 32.375 C-23.35 29.912 -21.491 28.564 -18.125 27.625 C-15.812 26.375 -15.812 26.375 -15.055 24.477 C-14.553 22.463 -14.175 20.419 -13.812 18.375 C-17.112 18.045 -20.412 17.715 -23.812 17.375 C-23.812 17.045 -23.812 16.715 -23.812 16.375 C-19.853 16.375 -15.892 16.375 -11.812 16.375 C-11.751 15.55 -11.689 14.725 -11.625 13.875 C-10.176 7.632 -6.759 0.665 0 0 Z " fill="#315200" transform="translate(86.8125,34.625)"/>
<path d="M0 0 C0 0.99 0 1.98 0 3 C-0.895 3.208 -1.789 3.415 -2.711 3.629 C-14.357 6.596 -22.808 10.909 -29.469 21.262 C-36.101 33.123 -38.126 44.609 -39 58 C-39.99 57.67 -40.98 57.34 -42 57 C-42.33 57.66 -42.66 58.32 -43 59 C-46.344 53.616 -46.507 49.084 -46.438 42.938 C-46.43 42.004 -46.422 41.071 -46.415 40.11 C-46.126 27.933 -42.809 15.796 -33.965 6.969 C-25.088 -0.421 -11.005 -6.646 0 0 Z " fill="#FA950A" transform="translate(55,67)"/>
<path d="M0 0 C0.33 2.31 0.66 4.62 1 7 C1.99 6.34 2.98 5.68 4 5 C7 4.562 7 4.562 10 5 C12.471 7.718 12.96 9.763 13.562 13.375 C12.812 18.214 10.551 20.744 7 24 C2.348 26.326 -4.074 24.985 -9 24 C-9.062 24.547 -9.062 24.547 -9.375 27.312 C-10 31 -10 31 -12 34 C-12.66 34 -13.32 34 -14 34 C-15.721 30.558 -15.121 26.782 -15 23 C-14.983 22.175 -14.966 21.35 -14.949 20.5 C-14.525 12.749 -11.942 6.942 -6.438 1.438 C-4 0 -4 0 0 0 Z " fill="#FCA019" transform="translate(69,83)"/>
<path d="M0 0 C0.65 -0.003 0.65 -0.003 3.941 -0.016 C8.342 0.319 10.243 0.989 13.254 4.168 C19.721 12.573 21.956 18.638 21.438 29.25 C20.447 29.25 19.458 29.25 18.438 29.25 C16.689 27.31 15.096 25.371 13.5 23.312 C6.236 14.378 -1.652 6.64 -13.562 5.25 C-12.562 2.25 -12.562 2.25 -10.473 1.078 C-6.888 0.058 -3.725 -0.015 0 0 Z " fill="#FA9308" transform="translate(113.5625,67.75)"/>
<path d="M0 0 C0 0.66 0 1.32 0 2 C-0.907 2.351 -1.815 2.701 -2.75 3.062 C-9.092 5.78 -16.194 9.174 -21.074 14.089 C-25.266 16.827 -28.777 16.504 -33.676 16.391 C-34.601 16.385 -35.526 16.379 -36.479 16.373 C-39.424 16.351 -42.368 16.301 -45.312 16.25 C-47.313 16.23 -49.314 16.212 -51.314 16.195 C-56.21 16.151 -61.105 16.082 -66 16 C-66 15.34 -66 14.68 -66 14 C-66.784 14.041 -67.567 14.083 -68.375 14.125 C-72.992 13.966 -77.604 13.479 -82 12 C-84 9 -84 9 -84 6 C-84.99 6.33 -85.98 6.66 -87 7 C-87 6.34 -87 5.68 -87 5 C-88.32 4.67 -89.64 4.34 -91 4 C-90.67 3.34 -90.34 2.68 -90 2 C-89.49 2.277 -88.979 2.554 -88.453 2.84 C-82.823 5.645 -78.075 6.488 -71.797 6.629 C-68.523 7.063 -66.748 8.21 -64 10 C-57.888 12.9 -50.776 13.335 -44.359 11.066 C-42.862 10.35 -41.384 9.591 -39.938 8.777 C-37.486 7.794 -36.49 8.236 -34 9 C-22.994 9.901 -15.718 7.496 -7 1 C-4.48 0.188 -2.683 0 0 0 Z " fill="#EBD8B6" transform="translate(127,158)"/>
<path d="M0 0 C1.258 -0.041 2.516 -0.083 3.812 -0.125 C4.52 -0.148 5.228 -0.171 5.957 -0.195 C8 0 8 0 11 2 C11 2.99 11 3.98 11 5 C9.02 5.33 7.04 5.66 5 6 C4.01 9.96 3.02 13.92 2 18 C1.34 17.67 0.68 17.34 0 17 C-1.65 20.3 -1.383 23.991 -1.562 27.625 C-1.606 28.427 -1.649 29.229 -1.693 30.055 C-1.8 32.036 -1.9 34.018 -2 36 C-5.96 36 -9.92 36 -14 36 C-13 32 -13 32 -11.543 29.645 C-9.813 26.679 -9.083 24.025 -8.312 20.688 C-8.061 19.619 -7.81 18.55 -7.551 17.449 C-7.46 17.045 -7.46 17.045 -7 15 C-7.99 14.67 -8.98 14.34 -10 14 C-9.34 14 -8.68 14 -8 14 C-7.948 13.711 -7.948 13.711 -7.688 12.25 C-6.894 9.655 -5.663 8.129 -4 6 C-3.304 4.682 -2.628 3.352 -2 2 C-1.34 2 -0.68 2 0 2 C0 1.34 0 0.68 0 0 Z " fill="#598409" transform="translate(83,37)"/>
<path d="M0 0 C0.299 0.103 0.299 0.103 1.812 0.625 C1.812 2.275 1.812 3.925 1.812 5.625 C3.462 6.285 5.112 6.945 6.812 7.625 C5.888 12.524 3.188 16.045 -0.188 19.625 C-3.771 21.111 -6.479 20.579 -10.188 19.625 C-10.847 21.11 -10.847 21.11 -14.188 28.625 C-15.178 28.625 -16.168 28.625 -17.188 28.625 C-17.965 20.386 -15.309 13.84 -10.402 7.215 C-3.694 -0.633 -3.694 -0.633 0 0 Z " fill="#FCA51D" transform="translate(43.1875,79.375)"/>
<path d="M0 0 C5.222 0.55 10.03 1.276 15 3 C15.33 3.66 15.66 4.32 16 5 C17.735 5.308 19.473 5.605 21.22 5.836 C30.032 7.019 36.539 9.552 43 16 C44.289 18.254 44.289 18.254 45 20 C42.672 18.836 40.36 17.66 38.062 16.438 C32.603 13.875 27.122 13.741 21.188 13.438 C20.399 13.394 19.611 13.351 18.799 13.307 C16.866 13.201 14.933 13.1 13 13 C12.67 12.01 12.34 11.02 12 10 C10.68 10 9.36 10 8 10 C7.34 10.66 6.68 11.32 6 12 C4.02 11.01 2.04 10.02 0 9 C0 6.03 0 3.06 0 0 Z " fill="#EA8303" transform="translate(91,53)"/>
<path d="M0 0 C1.604 -0.027 3.208 -0.046 4.812 -0.062 C5.706 -0.074 6.599 -0.086 7.52 -0.098 C10 0 10 0 13 1 C12.077 9.141 10.396 15.059 6 22 C9.96 22 13.92 22 18 22 C17.965 20.808 17.93 19.615 17.895 18.387 C17.866 16.82 17.839 15.254 17.812 13.688 C17.787 12.902 17.762 12.116 17.736 11.307 C17.727 10.549 17.717 9.792 17.707 9.012 C17.691 8.315 17.676 7.619 17.659 6.901 C18.098 4.455 19.134 3.573 21 2 C22.703 5.406 22.348 9.292 22.523 13.055 C23.043 16.268 23.971 17.535 26 20 C26.188 22.75 26.188 22.75 26 25 C24.312 26.125 24.312 26.125 22 27 C20.327 26.349 18.661 25.68 17 25 C12.136 24.768 7.79 25.042 3 26 C2.67 24.68 2.34 23.36 2 22 C0.68 21.67 -0.64 21.34 -2 21 C-2.312 18.75 -2.312 18.75 -2 16 C0.463 13.537 2.322 12.189 5.688 11.25 C8 10 8 10 8.758 8.102 C9.26 6.088 9.637 4.044 10 2 C6.7 1.67 3.4 1.34 0 1 C0 0.67 0 0.34 0 0 Z " fill="#554F01" transform="translate(63,51)"/>
<path d="M0 0 C0.568 0.218 1.137 0.436 1.723 0.66 C1.094 1.061 0.465 1.462 -0.184 1.875 C-12.741 10.215 -19.884 20.02 -23.277 34.66 C-23.666 38.174 -23.699 41.628 -23.652 45.16 C-23.664 46.033 -23.676 46.906 -23.688 47.805 C-23.659 54.186 -22.401 59.657 -20.277 65.66 C-20.937 65.33 -21.597 65 -22.277 64.66 C-22.937 65.65 -23.597 66.64 -24.277 67.66 C-27.686 64.631 -29.365 61.804 -31.09 57.598 C-31.529 56.555 -31.969 55.512 -32.422 54.438 C-33.277 51.66 -33.277 51.66 -32.277 48.66 C-30.957 49.32 -29.637 49.98 -28.277 50.66 C-28.179 49.656 -28.081 48.652 -27.98 47.617 C-26.318 31.892 -22.678 17.326 -11.277 5.66 C-3.515 -0.525 -3.515 -0.525 0 0 Z " fill="#C86301" transform="translate(43.27734375,73.33984375)"/>
<path d="M0 0 C2.896 3.429 5.116 6.801 7.125 10.812 C7.623 11.788 8.12 12.764 8.633 13.77 C11.559 20.685 12.34 26.893 12.25 34.312 C12.24 35.152 12.231 35.992 12.221 36.857 C11.905 53.173 6.708 67.189 -4.812 79.07 C-7.71 81.627 -10.506 83.364 -14 85 C-13.053 81.093 -11.324 79.271 -8.312 76.812 C1.518 68.588 7.66 56.707 9 44 C9.83 31.158 9.173 20.724 1.402 10.008 C0.049 8.07 -0.998 6.137 -2 4 C-1.34 4 -0.68 4 0 4 C0 2.68 0 1.36 0 0 Z " fill="#B45313" transform="translate(140,73)"/>
<path d="M0 0 C0.33 0.66 0.66 1.32 1 2 C1.629 2.01 1.629 2.01 4.812 2.062 C12.471 2.689 20.119 9.321 25 15 C25.844 16.797 25.844 16.797 26.5 18.75 C27.441 21.439 28.431 24 29.562 26.625 C34.706 38.7 35.964 52.363 32 65 C31.67 65 31.34 65 31 65 C30.985 64.199 30.971 63.398 30.956 62.573 C30.881 58.902 30.784 55.232 30.688 51.562 C30.676 50.932 30.676 50.932 30.619 47.744 C30.414 40.615 29.774 34.586 27 28 C26.854 27.582 26.854 27.582 26.113 25.469 C22.083 15.559 15.575 9.521 5.922 5.086 C2.179 3.695 -1.02 3.153 -5 3 C-5 2.67 -5 2.34 -5 2 C-3.35 2 -1.7 2 0 2 C0 1.34 0 0.68 0 0 Z " fill="#C66300" transform="translate(99,71)"/>
<path d="M0 0 C0.328 2.219 0.328 2.219 0 5 C-2.266 7.281 -2.266 7.281 -5.25 9.5 C-10.005 13.072 -14.072 16.217 -16 22 C-16.66 22 -17.32 22 -18 22 C-18 22.66 -18 23.32 -18 24 C-18.66 24 -19.32 24 -20 24 C-19.247 18.481 -19.247 18.481 -17.875 15.812 C-17 14 -17 14 -18 11 C-13.868 4.453 -8.101 -0.715 0 0 Z " fill="#F99D10" transform="translate(37,67)"/>
<path d="M0 0 C0.726 6.683 -1.573 11.319 -5 17 C-5.66 17.66 -6.32 18.32 -7 19 C-11.556 18.444 -11.556 18.444 -13 17 C-13.754 11.845 -12.169 8.903 -9.363 4.77 C-6.382 0.9 -4.948 0 0 0 Z " fill="#FCBF4F" transform="translate(69,83)"/>
<path d="M0 0 C1.881 2.328 3.237 4.484 4.562 7.188 C6 10 6 10 8 11 C8.66 9.68 9.32 8.36 10 7 C10.436 7.785 10.871 8.57 11.32 9.379 C14.75 15.429 18.15 20.996 23 26 C23.424 26.512 23.848 27.024 24.285 27.551 C29.951 32.339 39.771 33.433 47 34 C47 34.33 47 34.66 47 35 C33.802 35.543 26.969 33.649 17 25 C15.295 23.373 13.621 21.711 12 20 C11.598 19.639 11.598 19.639 9.562 17.812 C4.889 12.683 1.042 6.945 0 0 Z " fill="#B75A0C" transform="translate(11,129)"/>
<path d="M0 0 C3.181 0.087 4.292 0.434 7.188 2.062 C9.188 4.375 9.188 4.375 9.75 6.75 C9.004 10.233 7.221 12.478 5.188 15.375 C4.438 17.75 4.438 17.75 4.188 19.375 C3.528 19.375 2.868 19.375 2.188 19.375 C1.858 20.695 1.528 22.015 1.188 23.375 C0.858 23.375 0.528 23.375 0.188 23.375 C-0.727 17.813 -1.133 13.699 1.188 8.375 C3.168 8.045 5.148 7.715 7.188 7.375 C6.858 6.385 6.528 5.395 6.188 4.375 C2.888 3.715 -0.412 3.055 -3.812 2.375 C-3.812 3.035 -3.812 3.695 -3.812 4.375 C-4.472 4.375 -5.132 4.375 -5.812 4.375 C-5.957 4.808 -5.957 4.808 -6.688 7 C-7.729 10.125 -8.771 13.25 -9.812 16.375 C-10.142 16.375 -10.472 16.375 -10.812 16.375 C-11.554 10.442 -9.224 6.965 -5.812 2.375 C-3.812 0.375 -3.812 0.375 0 0 Z " fill="#3C5F18" transform="translate(86.8125,34.625)"/>
<path d="M0 0 C0.543 0.005 0.543 0.005 3.293 0.027 C4.124 0.039 4.956 0.051 5.812 0.062 C6.062 5.688 6.062 5.688 3.812 9.062 C1.25 10.125 1.25 10.125 -2.188 10.062 C-5.405 8.341 -8.295 6.28 -11.188 4.062 C-8.114 -0.548 -5.194 -0.056 0 0 Z " fill="#EA8905" transform="translate(67.1875,52.9375)"/>
<path d="M0 0 C1.094 -0.026 2.189 -0.052 3.316 -0.078 C6.78 0.286 8.654 1.198 11.438 3.25 C11.438 3.58 11.438 3.91 11.438 4.25 C8.118 4.979 4.961 5.405 1.566 5.531 C0.662 5.569 -0.242 5.606 -1.174 5.645 C-1.64 5.662 -1.64 5.662 -4 5.75 C-15.163 6.168 -15.163 6.168 -20.562 7.25 C-14.551 0.809 -8.632 0.122 0 0 Z " fill="#ED8704" transform="translate(50.5625,58.75)"/>
<path d="M0 0 C5.179 0.545 10.099 1.138 15 3 C16.195 5.074 16.195 5.074 17 7 C16.374 7.193 15.747 7.387 15.102 7.586 C14.284 7.846 13.467 8.107 12.625 8.375 C11.813 8.63 11.001 8.885 10.164 9.148 C8 10 8 10 6 12 C4.02 11.01 2.04 10.02 0 9 C0 6.03 0 3.06 0 0 Z " fill="#C16200" transform="translate(91,53)"/>
<path d="M0 0 C5.736 0.877 10.097 1.896 15.043 5.07 C17.575 6.273 19.91 6.522 22.688 6.875 C33.675 8.47 41.822 13.682 49 22 C48.34 22.66 47.68 23.32 47 24 C46.691 23.66 46.691 23.66 45.125 21.938 C36.17 13.23 28.091 10.575 16 9 C15.67 8.01 15.34 7.02 15 6 C14.626 5.934 14.626 5.934 12.734 5.598 C11.75 5.421 10.765 5.244 9.75 5.062 C9.263 4.975 9.263 4.975 6.797 4.535 C4.503 4.096 2.257 3.597 0 3 C0 2.01 0 1.02 0 0 Z " fill="#B65C19" transform="translate(91,50)"/>
<path d="M0 0 C-0.468 4.719 -2.349 6.918 -5.562 10.312 C-6.389 11.196 -7.215 12.079 -8.066 12.988 C-8.704 13.652 -9.343 14.316 -10 15 C-11.32 14.67 -12.64 14.34 -14 14 C-13.898 9.009 -13.131 6.701 -9.562 3.125 C-6.124 -0.077 -4.639 -1.392 0 0 Z " fill="#FDCA60" transform="translate(45,80)"/>
<path d="M0 0 C3.128 3.128 2.396 6.781 2.559 11.055 C3.046 14.306 4.076 15.438 6 18 C5.67 19.32 5.34 20.64 5 22 C-0.94 21.67 -6.88 21.34 -13 21 C-13 20.67 -13 20.34 -13 20 C-9.37 20 -5.74 20 -2 20 C-2.023 18.808 -2.046 17.615 -2.07 16.387 C-2.089 14.82 -2.107 13.254 -2.125 11.688 C-2.142 10.902 -2.159 10.116 -2.176 9.307 C-2.182 8.549 -2.189 7.792 -2.195 7.012 C-2.206 6.315 -2.216 5.619 -2.227 4.901 C-2 3 -2 3 0 0 Z " fill="#4A7403" transform="translate(83,53)"/>
<path d="M0 0 C0.66 0.33 1.32 0.66 2 1 C1.951 1.887 1.902 2.774 1.852 3.688 C2.01 7.218 2.715 8.929 4.375 12 C8.495 20.555 9.727 30.549 9 40 C8.34 40.66 7.68 41.32 7 42 C6.902 40.924 6.804 39.847 6.703 38.738 C4.308 14.539 4.308 14.539 -4 6 C-4 5.34 -4 4.68 -4 4 C-5.32 3.34 -6.64 2.68 -8 2 C-6 1 -6 1 -4 1.562 C-3.67 1.635 -3.67 1.635 -2 2 C-1.34 1.34 -0.68 0.68 0 0 Z " fill="#D06E00" transform="translate(89,75)"/>
<path d="M0 0 C0.33 0 0.66 0 1 0 C1.004 0.577 1.008 1.155 1.012 1.75 C1.138 11.863 1.374 21.696 4.312 31.438 C4.513 32.103 4.714 32.769 4.921 33.455 C7.023 39.847 9.932 45.475 15 50 C11.7 49.67 8.4 49.34 5 49 C5.99 48.34 6.98 47.68 8 47 C7.402 45.989 6.804 44.979 6.188 43.938 C1.907 36.425 -0.137 30.018 -0.098 21.387 C-0.094 20.14 -0.091 18.892 -0.088 17.607 C-0.084 16.961 -0.084 16.961 -0.062 13.688 C-0.058 12.375 -0.053 11.062 -0.049 9.709 C-0.037 6.473 -0.021 3.236 0 0 Z " fill="#D06B00" transform="translate(45,114)"/>
<path d="M0 0 C1.258 -0.041 2.516 -0.083 3.812 -0.125 C4.52 -0.148 5.228 -0.171 5.957 -0.195 C8 0 8 0 11 2 C11 2.99 11 3.98 11 5 C9.515 5.165 9.515 5.165 2 6 C1.818 6.638 1.636 7.276 1.449 7.934 C1.198 8.76 0.946 9.586 0.688 10.438 C0.444 11.261 0.2 12.085 -0.051 12.934 C-0.364 13.616 -0.677 14.297 -1 15 C-1.99 15.33 -2.98 15.66 -4 16 C-4.979 12.924 -4.986 10.976 -4.125 7.875 C-3.942 7.192 -3.759 6.509 -3.57 5.805 C-3 4 -3 4 -2 2 C-1.34 2 -0.68 2 0 2 C0 1.34 0 0.68 0 0 Z " fill="#7BA010" transform="translate(83,37)"/>
<path d="M0 0 C0.33 0 0.66 0 1 0 C1.028 0.3 1.028 0.3 1.168 1.817 C1.423 4.565 1.68 7.314 1.938 10.062 C2.025 11.005 2.112 11.948 2.201 12.92 C2.676 17.972 3.228 22.985 4 28 C1.181 26.966 0.131 26.217 -1.449 23.609 C-5.591 14.046 -5.591 14.046 -6 9 C-5.175 9.33 -5.175 9.33 -1 11 C-0.67 7.37 -0.34 3.74 0 0 Z " fill="#E07404" transform="translate(16,113)"/>
<path d="M0 0 C-0.33 0.66 -0.66 1.32 -1 2 C-2.031 2.33 -3.062 2.66 -4.125 3 C-11.965 6.213 -15.769 15.918 -18.934 23.238 C-20.549 27.421 -21.845 31.669 -23 36 C-23.33 36 -23.66 36 -24 36 C-24.369 25.118 -19.691 14.939 -13.02 6.492 C-9.037 2.433 -5.911 -0.32 0 0 Z " fill="#CC6601" transform="translate(70,76)"/>
<path d="M0 0 C0.248 0.598 0.495 1.196 0.75 1.812 C2.164 4.286 3.651 5.434 6 7 C5.717 8.772 5.423 10.543 5.125 12.312 C4.963 13.299 4.8 14.285 4.633 15.301 C4 18 4 18 2 21 C1.34 21 0.68 21 0 21 C-2.926 15.148 -0.733 6.272 0 0 Z " fill="#FDAD2C" transform="translate(55,96)"/>
<path d="M0 0 C0.66 0 1.32 0 2 0 C2.33 1.32 2.66 2.64 3 4 C4.32 4.33 5.64 4.66 7 5 C7 6.98 7 8.96 7 11 C3.04 11 -0.92 11 -5 11 C-3.903 6.612 -2.298 3.855 0 0 Z " fill="#618E07" transform="translate(74,62)"/>
<path d="M0 0 C2.229 -0.081 4.458 -0.139 6.688 -0.188 C7.308 -0.205 7.308 -0.205 10.449 -0.293 C14 0 14 0 16.461 1.492 C19.91 3.54 23.048 3.403 26.938 3.312 C27.628 3.316 28.318 3.319 29.029 3.322 C33.38 3.277 36.957 2.588 41 1 C40.001 3.724 39.417 4.793 36.773 6.105 C31.188 7.907 24.885 8.213 19.418 5.914 C17.806 5.013 16.201 4.102 14.602 3.18 C9.963 1.076 5.031 1.095 0 1 C0 0.67 0 0.34 0 0 Z " fill="#BC6C22" transform="translate(46,164)"/>
<path d="M0 0 C0 0.66 0 1.32 0 2 C0.825 2.165 0.825 2.165 5 3 C5.33 3.99 5.66 4.98 6 6 C4.736 7.009 3.464 8.007 2.188 9 C1.834 9.278 1.834 9.278 0.043 10.688 C-2 12 -2 12 -5 12 C-3.557 8.634 -1.667 6.49 1 4 C-1.559 2.72 -3.455 2.832 -6.312 2.812 C-7.257 2.798 -8.202 2.784 -9.176 2.77 C-12.144 3.012 -14.309 3.76 -17 5 C-17.33 4.01 -17.66 3.02 -18 2 C-11.846 0.177 -6.404 -0.236 0 0 Z " fill="#CD6A02" transform="translate(61,70)"/>
<path d="M0 0 C6.069 -0.253 11.162 0.302 17 2 C17 2.66 17 3.32 17 4 C30.2 4 43.4 4 57 4 C57 4.33 57 4.66 57 5 C51.381 5.05 45.762 5.086 40.142 5.11 C38.235 5.12 36.329 5.133 34.422 5.151 C6.408 5.401 6.408 5.401 0 0 Z " fill="#F4E9D3" transform="translate(44,170)"/>
<path d="M0 0 C0.33 0 0.66 0 1 0 C1.061 1.132 1.121 2.264 1.184 3.43 C1.268 4.911 1.353 6.393 1.438 7.875 C1.477 8.621 1.516 9.368 1.557 10.137 C1.887 15.773 1.887 15.773 3 18 C3.454 17.031 3.908 16.061 4.375 15.062 C6 12 6 12 8 11 C7.67 15.95 7.34 20.9 7 26 C6.01 25.67 5.02 25.34 4 25 C3.67 25.66 3.34 26.32 3 27 C-0.582 21.415 -0.356 16.517 -0.188 10.125 C-0.174 9.15 -0.16 8.176 -0.146 7.172 C-0.111 4.781 -0.062 2.391 0 0 Z " fill="#F18806" transform="translate(9,99)"/>
<path d="M0 0 C-0.363 2.827 -0.891 3.894 -2.961 5.922 C-3.758 6.525 -4.554 7.128 -5.375 7.75 C-6.166 8.364 -6.958 8.977 -7.773 9.609 C-10 11 -10 11 -13 11 C-12.929 7.929 -12.733 5.765 -10.551 3.488 C-7.067 0.851 -4.514 -0.684 0 0 Z " fill="#FDC55A" transform="translate(37,69)"/>
<path d="M0 0 C5.743 6.802 10.588 14.943 11 24 C9 21 9 21 8.125 19.125 C6.715 16.461 4.903 14.338 3 12 C1.307 9.685 -0.346 7.344 -2 5 C-1.34 4.67 -0.68 4.34 0 4 C0 2.68 0 1.36 0 0 Z " fill="#C1661F" transform="translate(140,73)"/>
<path d="M0 0 C-2 3 -2 3 -4.969 3.625 C-7.323 3.875 -9.677 4.125 -12.031 4.375 C-15 5 -15 5 -17 8 C-20.039 8.293 -20.039 8.293 -23.625 8.188 C-24.814 8.16 -26.002 8.133 -27.227 8.105 C-28.142 8.071 -29.057 8.036 -30 8 C-27 6 -27 6 -23.812 5.125 C-20.753 4.222 -18.958 3.44 -16.312 1.875 C-11.123 -0.889 -5.724 -0.343 0 0 Z " fill="#BB5C0E" transform="translate(73,50)"/>
<path d="M0 0 C0.289 0.619 0.578 1.237 0.875 1.875 C2 4 2 4 4 6 C2.35 9.96 0.7 13.92 -1 18 C-1.99 18 -2.98 18 -4 18 C-4.511 11.096 -2.87 6.252 0 0 Z " fill="#FDAD2F" transform="translate(30,90)"/>
<path d="M0 0 C0 0.99 0 1.98 0 3 C-6.75 2.125 -6.75 2.125 -9 1 C-17.834 0.206 -24.932 1.378 -33 5 C-33 4.01 -33 3.02 -33 2 C-22.888 -2.494 -10.745 -2.125 0 0 Z " fill="#CF6701" transform="translate(60,65)"/>
<path d="M0 0 C1.136 -0.026 2.271 -0.052 3.441 -0.078 C6.438 0.25 6.438 0.25 8.34 1.766 C8.702 2.255 9.064 2.745 9.438 3.25 C2.688 3.375 2.688 3.375 0.438 2.25 C0.438 2.91 0.438 3.57 0.438 4.25 C-3.523 4.25 -7.483 4.25 -11.562 4.25 C-11.233 3.26 -10.903 2.27 -10.562 1.25 C-7.206 -0.115 -3.579 0.049 0 0 Z " fill="#F79507" transform="translate(50.5625,58.75)"/>
<path d="M0 0 C3.231 0.557 5.024 1.332 7 4 C7 5.32 7 6.64 7 8 C3.688 8.25 3.688 8.25 0 8 C-1.938 6.125 -1.938 6.125 -3 4 C-3 3.34 -3 2.68 -3 2 C-2.01 2 -1.02 2 0 2 C0 1.34 0 0.68 0 0 Z " fill="#3E6001" transform="translate(91,64)"/>
<path d="M0 0 C0.66 0.33 1.32 0.66 2 1 C-3.178 4.403 -7.427 5.142 -13.562 5.125 C-14.027 5.126 -14.027 5.126 -16.379 5.133 C-18.75 5.013 -20.714 4.58 -23 4 C-25.75 4.438 -25.75 4.438 -28 5 C-27.01 3.68 -26.02 2.36 -25 1 C-24.572 1.081 -24.572 1.081 -22.406 1.488 C-19.055 1.992 -15.887 2.167 -12.5 2.188 C-11.959 2.195 -11.959 2.195 -9.219 2.23 C-5.852 1.989 -3.178 1.082 0 0 Z " fill="#B26625" transform="translate(112,163)"/>
<path d="M0 0 C0.99 0 1.98 0 3 0 C4.286 7.429 4.286 7.429 3 11 C2.34 11 1.68 11 1 11 C0.67 12.32 0.34 13.64 0 15 C-0.33 15 -0.66 15 -1 15 C-1.915 9.438 -2.321 5.324 0 0 Z M2 2 C3 4 3 4 3 4 Z " fill="#3E6305" transform="translate(88,43)"/>
<path d="M0 0 C1.604 -0.027 3.208 -0.046 4.812 -0.062 C5.706 -0.074 6.599 -0.086 7.52 -0.098 C10 0 10 0 13 1 C12.34 4.96 11.68 8.92 11 13 C10.01 13 9.02 13 8 13 C5.988 13.631 3.986 14.294 2 15 C1.67 14.34 1.34 13.68 1 13 C2.114 12.67 3.228 12.34 4.375 12 C6.848 10.976 7.778 10.484 8.91 8.02 C9.438 5.812 9.438 5.812 10 2 C6.7 1.67 3.4 1.34 0 1 C0 0.67 0 0.34 0 0 Z " fill="#5E5202" transform="translate(63,51)"/>
<path d="M0 0 C2.375 0.312 2.375 0.312 5 1 C7.152 4.228 7.201 5.284 7 9 C5.68 9.33 4.36 9.66 3 10 C0.592 6.488 -0.366 4.273 0 0 Z " fill="#FDBB4A" transform="translate(95,82)"/>
<path d="M0 0 C4.545 4.545 4.088 14.491 4.25 20.75 C4 24 4 24 2 26 C1.867 24.842 1.734 23.685 1.598 22.492 C1.419 20.953 1.241 19.414 1.062 17.875 C0.975 17.114 0.888 16.354 0.799 15.57 C0.41 12.228 -0.011 8.943 -0.629 5.633 C-1 3 -1 3 0 0 Z " fill="#DE7600" transform="translate(94,91)"/>
<path d="M0 0 C0.66 0.99 1.32 1.98 2 3 C0.68 5.31 -0.64 7.62 -2 10 C-2.825 9.67 -2.825 9.67 -7 8 C-6.875 5.688 -6.875 5.688 -6 3 C-2.938 1.188 -2.938 1.188 0 0 Z " fill="#477402" transform="translate(71,63)"/>
<path d="M0 0 C2 2 2 2 2.195 4.82 C2.184 5.366 2.184 5.366 2.125 8.125 C2.107 9.221 2.089 10.316 2.07 11.445 C2.047 12.288 2.024 13.131 2 14 C0.68 14 -0.64 14 -2 14 C-2.054 12.23 -2.093 10.459 -2.125 8.688 C-2.148 7.701 -2.171 6.715 -2.195 5.699 C-2 3 -2 3 0 0 Z " fill="#3E6A02" transform="translate(83,53)"/>
<path d="M0 0 C2.8 -0.669 5.088 -0.239 8 0 C8 0.99 8 1.98 8 3 C8.66 3.66 9.32 4.32 10 5 C5.71 5 1.42 5 -3 5 C-2.01 3.35 -1.02 1.7 0 0 Z " fill="#F98E03" transform="translate(109,60)"/>
<path d="M0 0 C0.33 0 0.66 0 1 0 C1.33 1.98 1.66 3.96 2 6 C2.66 5.01 3.32 4.02 4 3 C4.33 6.96 4.66 10.92 5 15 C3.68 15.33 2.36 15.66 1 16 C-1.481 5.626 -1.481 5.626 0 0 Z " fill="#305501" transform="translate(86,51)"/>
<path d="M0 0 C3.958 0.565 6.666 1.809 10 4 C10.33 3.34 10.66 2.68 11 2 C13 3.25 13 3.25 15 5 C15 6.32 15 7.64 15 9 C14.01 9.33 13.02 9.66 12 10 C10.517 8.814 9.04 7.618 7.629 6.348 C5.307 4.427 2.732 3.236 0 2 C0 1.34 0 0.68 0 0 Z " fill="#C76302" transform="translate(125,68)"/>
<path d="M0 0 C0.33 0.99 0.66 1.98 1 3 C1.66 3.33 2.32 3.66 3 4 C2.361 4.763 1.721 5.526 1.062 6.312 C-1 9 -1 9 -2 12 C-2.66 12 -3.32 12 -4 12 C-4 12.66 -4 13.32 -4 14 C-4.66 14 -5.32 14 -6 14 C-5.572 8.294 -3.157 4.589 0 0 Z " fill="#FDAA27" transform="translate(23,77)"/>
<path d="M0 0 C0.99 0 1.98 0 3 0 C3.531 1.935 4.049 3.873 4.562 5.812 C4.853 6.891 5.143 7.97 5.441 9.082 C6 12 6 12 5 15 C3.967 13.069 2.949 11.13 1.938 9.188 C1.653 8.648 1.653 8.648 0.215 5.918 C-1 3 -1 3 0 0 Z " fill="#E87E03" transform="translate(14,126)"/>
<path d="M0 0 C0.33 0.66 0.66 1.32 1 2 C2.32 1.67 3.64 1.34 5 1 C4.719 2.814 4.425 4.626 4.125 6.438 C3.963 7.447 3.8 8.456 3.633 9.496 C3.424 10.322 3.215 11.149 3 12 C2.67 12.165 2.67 12.165 1 13 C1 11.35 1 9.7 1 8 C0.34 8 -0.32 8 -1 8 C-0.67 5.36 -0.34 2.72 0 0 Z " fill="#4D7804" transform="translate(75,54)"/>
<path d="M0 0 C7.75 0.875 7.75 0.875 10 2 C10 2.66 10 3.32 10 4 C6.7 4.66 3.4 5.32 0 6 C0 4.02 0 2.04 0 0 Z " fill="#F4970B" transform="translate(91,53)"/>
<path d="M0 0 C1.32 0.33 2.64 0.66 4 1 C4 2.98 4 4.96 4 7 C1.69 7 -0.62 7 -3 7 C-1.125 2.25 -1.125 2.25 0 0 Z " fill="#7EA215" transform="translate(77,66)"/>
<path d="M0 0 C0.99 0.33 1.98 0.66 3 1 C2.578 2.65 2.137 4.295 1.688 5.938 C1.444 6.854 1.2 7.771 0.949 8.715 C0.636 9.469 0.323 10.223 0 11 C-0.99 11.33 -1.98 11.66 -3 12 C-3.981 9.353 -4.056 8.176 -3.188 5.438 C-2 3 -2 3 0 0 Z " fill="#8DB21F" transform="translate(82,41)"/>
<path d="M0 0 C0.557 0.268 1.114 0.536 1.688 0.812 C1.688 1.472 1.688 2.132 1.688 2.812 C0.043 4.32 0.043 4.32 -2.125 5.938 C-2.833 6.476 -3.54 7.015 -4.27 7.57 C-6.312 8.812 -6.312 8.812 -9.312 8.812 C-7.665 4.769 -4.807 -0.39 0 0 Z " fill="#DE7B02" transform="translate(65.3125,73.1875)"/>
<path d="M0 0 C0.33 0 0.66 0 1 0 C1.33 2.64 1.66 5.28 2 8 C2.763 8.268 3.526 8.536 4.312 8.812 C8.497 10.661 8.497 10.661 10 13 C9.688 16.188 9.688 16.188 9 19 C7.68 18.67 6.36 18.34 5 18 C5.99 18 6.98 18 8 18 C7.67 16.02 7.34 14.04 7 12 C6.031 11.691 5.061 11.381 4.062 11.062 C1 10 1 10 0 9 C-0.072 7.481 -0.084 5.958 -0.062 4.438 C-0.053 3.611 -0.044 2.785 -0.035 1.934 C-0.024 1.296 -0.012 0.657 0 0 Z " fill="#4F4B00" transform="translate(90,54)"/>
<path d="M0 0 C1.32 0.33 2.64 0.66 4 1 C4 1.66 4 2.32 4 3 C-1.234 6.271 -4.166 6.106 -10 5 C-6.555 2.704 -4.062 2.46 0 2 C0 1.34 0 0.68 0 0 Z " fill="#E07901" transform="translate(101,55)"/>
<path d="M0 0 C0.99 0.66 1.98 1.32 3 2 C3 3.32 3 4.64 3 6 C2.34 6 1.68 6 1 6 C0.34 8.31 -0.32 10.62 -1 13 C-1.99 12.34 -2.98 11.68 -4 11 C-3.67 8.69 -3.34 6.38 -3 4 C-2.34 4.66 -1.68 5.32 -1 6 C-0.67 4.02 -0.34 2.04 0 0 Z " fill="#D66F02" transform="translate(132,128)"/>
<path d="M0 0 C2.97 0 5.94 0 9 0 C8.67 0.66 8.34 1.32 8 2 C7.34 2 6.68 2 6 2 C6.33 2.99 6.66 3.98 7 5 C4.237 4.477 1.674 3.891 -1 3 C-0.67 2.01 -0.34 1.02 0 0 Z " fill="#F9A61D" transform="translate(61,53)"/>
<path d="M0 0 C3.268 3.147 6.131 6.494 9 10 C5.7 9.67 2.4 9.34 -1 9 C-0.01 8.34 0.98 7.68 2 7 C1.34 6.01 0.68 5.02 0 4 C0 2.68 0 1.36 0 0 Z " fill="#C36103" transform="translate(51,154)"/>
<path d="M0 0 C0.33 0 0.66 0 1 0 C0.885 1.418 0.757 2.834 0.625 4.25 C0.555 5.039 0.486 5.828 0.414 6.641 C-0.015 9.086 -0.786 10.848 -2 13 C-2.99 13 -3.98 13 -5 13 C-4.546 11.582 -4.086 10.166 -3.625 8.75 C-3.497 8.356 -3.497 8.356 -2.852 6.359 C-2.048 4.134 -1.103 2.091 0 0 Z " fill="#C25C01" transform="translate(129,137)"/>
<path d="M0 0 C1.04 3.38 1.08 6.478 1 10 C0.01 10.33 -0.98 10.66 -2 11 C-2 9.68 -2 8.36 -2 7 C-2.99 6.67 -3.98 6.34 -5 6 C-4.34 6 -3.68 6 -3 6 C-2.876 5.381 -2.752 4.763 -2.625 4.125 C-2 2 -2 2 0 0 Z " fill="#6C9019" transform="translate(78,45)"/>
<path d="M0 0 C1.096 0.009 2.191 0.018 3.32 0.027 C4.163 0.039 5.006 0.051 5.875 0.062 C5.545 0.557 5.545 0.557 3.875 3.062 C1.055 3.355 1.055 3.355 -2.25 3.25 C-2.798 3.236 -2.798 3.236 -5.57 3.168 C-6.413 3.133 -7.256 3.098 -8.125 3.062 C-8.125 2.403 -8.125 1.742 -8.125 1.062 C-5.36 -0.32 -3.079 -0.033 0 0 Z " fill="#D07D33" transform="translate(67.125,49.9375)"/>
<path d="M0 0 C0.804 0.144 1.609 0.289 2.438 0.438 C6.614 1.097 10.796 1.561 15 2 C15 2.33 15 2.66 15 3 C14.12 2.988 13.239 2.977 12.332 2.965 C11.171 2.956 10.009 2.947 8.812 2.938 C7.664 2.926 6.515 2.914 5.332 2.902 C2.407 2.988 -0.163 3.322 -3 4 C-2.01 2.68 -1.02 1.36 0 0 Z " fill="#B35409" transform="translate(87,164)"/>
<path d="M0 0 C0.99 0.33 1.98 0.66 3 1 C3 1.66 3 2.32 3 3 C4.98 3 6.96 3 9 3 C6.378 5.154 4.356 6.401 1 7 C0.34 5.02 -0.32 3.04 -1 1 C-0.67 0.67 -0.34 0.34 0 0 Z " fill="#C56600" transform="translate(99,64)"/>
<path d="M0 0 C2.97 0.33 5.94 0.66 9 1 C8.67 1.66 8.34 2.32 8 3 C3.38 3 -1.24 3 -6 3 C-6 2.67 -6 2.34 -6 2 C-4.02 1.67 -2.04 1.34 0 1 C0 0.67 0 0.34 0 0 Z " fill="#EEDFC1" transform="translate(67,171)"/>
<path d="M0 0 C5.35 0.373 7.509 1.996 11 6 C10.01 6.33 9.02 6.66 8 7 C5.957 5.82 5.957 5.82 3.812 4.125 C3.097 3.571 2.382 3.016 1.645 2.445 C1.102 1.968 0.559 1.491 0 1 C0 0.67 0 0.34 0 0 Z " fill="#F58F04" transform="translate(109,74)"/>
<path d="M0 0 C5.458 -0.111 10.615 0.083 16 1 C15.67 1.495 15.67 1.495 14 4 C9.38 3.01 4.76 2.02 0 1 C0 0.67 0 0.34 0 0 Z " fill="#494B00" transform="translate(73,74)"/>
<path d="M0 0 C0.66 0.33 1.32 0.66 2 1 C2 1.99 2 2.98 2 4 C-2.343 8 -2.343 8 -5 8 C-3.628 5.046 -2.011 2.56 0 0 Z " fill="#F29107" transform="translate(62,80)"/>
<path d="M0 0 C3.375 0.547 5.082 1.055 8 3 C8 3.99 8 4.98 8 6 C5.028 4.875 2.666 3.777 0 2 C0 1.34 0 0.68 0 0 Z " fill="#FDB134" transform="translate(112,72)"/>
<path d="M0 0 C-0.66 1.65 -1.32 3.3 -2 5 C-3.65 5 -5.3 5 -7 5 C-5.227 1.074 -4.52 0 0 0 Z " fill="#629009" transform="translate(71,64)"/>
<path d="M0 0 C0.66 0 1.32 0 2 0 C1.25 4.75 1.25 4.75 -1 7 C-1.99 7 -2.98 7 -4 7 C-2.796 4.506 -1.546 2.319 0 0 Z " fill="#75A414" transform="translate(73,65)"/>
<path d="M0 0 C1 3 1 3 -0.188 5.625 C-2 8 -2 8 -6 9 C-4.02 6.03 -2.04 3.06 0 0 Z " fill="#F4E6D8" transform="translate(143,141)"/>
<path d="M0 0 C0.66 0.33 1.32 0.66 2 1 C1.39 4.558 0.422 7.683 -1 11 C-1.66 10.34 -2.32 9.68 -3 9 C-2.01 6.03 -1.02 3.06 0 0 Z " fill="#B8531B" transform="translate(148,124)"/>
<path d="M0 0 C0.66 0.66 1.32 1.32 2 2 C1.625 5.625 1.625 5.625 1 9 C0.01 9.33 -0.98 9.66 -2 10 C-1.542 6.531 -1.109 3.326 0 0 Z " fill="#D36C03" transform="translate(20,97)"/>
<path d="M0 0 C0 0.99 0 1.98 0 3 C-3.135 4.858 -5.375 5.201 -9 5 C-2.409 0 -2.409 0 0 0 Z " fill="#BE6010" transform="translate(118,159)"/>
<path d="M0 0 C-0.33 0.99 -0.66 1.98 -1 3 C-3.64 2.67 -6.28 2.34 -9 2 C-5.865 0.142 -3.625 -0.201 0 0 Z " fill="#FAAA21" transform="translate(49,59)"/>
<path d="M0 0 C0.66 0.33 1.32 0.66 2 1 C1.34 2.32 0.68 3.64 0 5 C-0.99 5 -1.98 5 -3 5 C-1.125 1.125 -1.125 1.125 0 0 Z " fill="#ED8103" transform="translate(59,77)"/>
<path d="M0 0 C0.495 0.33 0.495 0.33 3 2 C3 2.66 3 3.32 3 4 C4.32 4.66 5.64 5.32 7 6 C6.01 6.33 5.02 6.66 4 7 C2 5.188 2 5.188 0 3 C0 2.01 0 1.02 0 0 Z " fill="#F3E3CF" transform="translate(18,144)"/>
<path d="M0 0 C0.66 0.33 1.32 0.66 2 1 C1.34 2.65 0.68 4.3 0 6 C-0.99 6 -1.98 6 -3 6 C-2 4 -1 2 0 0 Z " fill="#F78C05" transform="translate(55,81)"/>
<path d="M0 0 C0.33 0.66 0.66 1.32 1 2 C0.67 2.66 0.34 3.32 0 4 C0.66 4.33 1.32 4.66 2 5 C-1 7 -1 7 -4 8 C-2.875 5.028 -1.777 2.666 0 0 Z " fill="#EE850B" transform="translate(19,76)"/>
<path d="M0 0 C2.019 1.304 4.019 2.638 6 4 C6 4.33 6 4.66 6 5 C4.35 5 2.7 5 1 5 C0.34 3.68 -0.32 2.36 -1 1 C-0.67 0.67 -0.34 0.34 0 0 Z " fill="#466B01" transform="translate(90,67)"/>
<path d="M0 0 C0.289 0.186 0.289 0.186 1.75 1.125 C-0.625 2.688 -0.625 2.688 -3.25 4.125 C-5.25 3.125 -5.25 3.125 -6.25 1.125 C-2.804 -1.09 -2.804 -1.09 0 0 Z " fill="#CC6C18" transform="translate(59.25,52.875)"/>
</svg>
