<?xml version="1.0" encoding="UTF-8"?>
<!-- Generator: visioncortex VTracer 0.6.12 -->
<svg version="1.1" xmlns="http://www.w3.org/2000/svg" width="164" height="142">
<path d="M0 0 C54.12 0 108.24 0 164 0 C164 46.86 164 93.72 164 142 C109.88 142 55.76 142 0 142 C0 95.14 0 48.28 0 0 Z " fill="#641231" transform="translate(0,0)"/>
<path d="M0 0 C54.12 0 108.24 0 164 0 C164 46.86 164 93.72 164 142 C109.88 142 55.76 142 0 142 C0 95.14 0 48.28 0 0 Z M74 7 C72.063 7.081 70.125 7.139 68.188 7.188 C61.799 7.621 57.393 9.376 51.844 12.465 C49.194 13.895 46.653 14.898 43.812 15.875 C35.999 18.895 30.16 24.828 26 32 C25.043 33.584 24.084 35.167 23.125 36.75 C22.617 37.606 22.109 38.462 21.586 39.344 C20.523 41.124 19.445 42.895 18.352 44.656 C13.011 53.305 11.341 59.767 12 70 C12.33 70.66 12.66 71.32 13 72 C13.13 74.207 13.23 76.416 13.312 78.625 C13.774 85.781 15.173 90.23 19.5 96 C20.932 97.909 21.641 99.507 22.562 101.688 C26.599 109.961 34.691 115.562 43 119 C43.342 119.073 43.342 119.073 45.07 119.441 C48.144 120.331 49.802 122.747 52 125 C54.923 126.791 57 127.23 60.406 127.125 C60.819 127.117 60.819 127.117 62.91 127.078 C63.765 127.052 64.619 127.027 65.5 127 C67.198 126.949 68.896 126.907 70.594 126.875 C71.343 126.852 72.093 126.829 72.865 126.805 C75.318 127.029 76.83 127.874 79 129 C81.612 129.22 84.078 129.333 86.688 129.312 C87.401 129.309 88.114 129.306 88.849 129.302 C95.096 129.173 100.907 128.43 105.949 124.469 C108.206 122.853 109.869 122.403 112.562 121.812 C123.758 118.602 131.423 110.232 138 101 C138.425 100.411 138.849 99.822 139.287 99.216 C142.753 94.109 144.238 89.354 145.312 83.312 C145.477 82.442 145.642 81.571 145.811 80.675 C147.035 73.792 147.744 66.99 147 60 C146.67 59.67 146.34 59.34 146 59 C145.959 57.783 145.917 56.566 145.875 55.312 C144.771 44.821 138.673 35.817 131.051 28.887 C129.291 27.267 127.96 25.734 126.562 23.812 C120.765 17.45 112.738 14.25 104.848 11.168 C102 10 102 10 99.871 8.801 C94.849 6 78.573 2.427 74 7 Z " fill="#FCF6EB" transform="translate(0,0)"/>
<path d="M0 0 C0.473 0.476 0.947 0.952 1.435 1.443 C3.128 3.127 4.653 3.999 6.793 5.043 C7.505 5.394 8.217 5.746 8.951 6.107 C9.689 6.464 10.427 6.82 11.188 7.188 C11.562 7.372 11.562 7.372 13.459 8.303 C15.303 9.207 17.151 10.104 19 11 C18.228 9.892 17.453 8.787 16.676 7.684 C16.244 7.068 15.813 6.452 15.368 5.818 C13.459 3.281 11.308 1.176 9 -1 C14.715 0.386 17.769 4.369 21 9 C23.894 13.963 26.494 19.086 29.058 24.226 C30 26 30 26 32 29 C32.66 27.35 33.32 25.7 34 24 C34.33 24 34.66 24 35 24 C34.125 30.875 34.125 30.875 33 32 C32.765 37.529 32.765 37.529 34 40 C34.151 41.52 34.249 43.045 34.316 44.57 C34.358 45.466 34.4 46.362 34.443 47.285 C34.483 48.222 34.522 49.159 34.562 50.125 C34.606 51.07 34.649 52.015 34.693 52.988 C34.8 55.325 34.902 57.663 35 60 C38.894 54.483 41.893 49.438 44 43 C44.33 43 44.66 43 45 43 C44.587 49.329 43.142 53.238 39.688 58.5 C38.863 59.814 38.04 61.129 37.219 62.445 C36.829 63.063 36.44 63.681 36.039 64.317 C33.709 68.091 31.835 72.05 30.09 76.125 C24.903 88.221 18.228 99.997 6.012 105.973 C-2.385 109.273 -11.611 109.157 -20 106 C-20 105.67 -20 105.34 -20 105 C-19.227 104.902 -18.453 104.804 -17.656 104.703 C-10.175 103.629 -3.213 102.614 2 96.75 C3.418 92.851 3.396 90.158 3 86 C1.5 83.625 1.5 83.625 0 82 C0 81.34 0 80.68 0 80 C-0.681 79.732 -1.361 79.464 -2.062 79.188 C-4.241 78.307 -6.383 77.333 -8.5 76.312 C-13.547 74.42 -17.201 76.013 -22.25 77.438 C-26.516 78.631 -30.763 79.605 -35.125 80.375 C-37 81 -37 81 -38.5 82.562 C-40 84 -40 84 -44 84 C-43.579 79.087 -41.384 77.384 -38 74 C-37.188 71.188 -37.188 71.188 -37 69 C-37.568 69.023 -38.137 69.046 -38.723 69.07 C-39.495 69.088 -40.267 69.106 -41.062 69.125 C-41.817 69.148 -42.571 69.171 -43.348 69.195 C-46.737 68.946 -49.764 68.006 -53 67 C-53.147 63.813 -53.234 60.627 -53.312 57.438 C-53.354 56.542 -53.396 55.647 -53.439 54.725 C-53.545 48.982 -52.828 45.919 -49.143 41.495 C-47.566 39.432 -47.437 37.682 -47.312 35.125 C-46.405 29.147 -42.858 26.776 -38.344 23.098 C-35.16 20.248 -34.312 18.014 -33 14 C-31.235 10.117 -30.536 9.22 -26.5 7.562 C-23 6 -23 6 -21.5 3 C-20 -0 -20 -0 -16.75 -1.938 C-10.76 -3.635 -5.679 -2.323 0 0 Z " fill="#C1417E" transform="translate(95,19)"/>
<path d="M0 0 C1.365 0.02 2.73 0.038 4.096 0.055 C7.419 0.102 10.74 0.167 14.062 0.25 C12.788 2.799 11.571 2.996 9.062 4.25 C8.62 4.742 8.178 5.235 7.723 5.742 C5.655 7.62 4.099 7.924 1.375 8.438 C0.567 8.596 -0.241 8.755 -1.074 8.918 C-1.689 9.028 -2.304 9.137 -2.938 9.25 C-3.041 10.013 -3.144 10.776 -3.25 11.562 C-4.019 14.567 -4.503 15.403 -6.938 17.25 C-7.886 17.601 -8.835 17.951 -9.812 18.312 C-13.282 20.464 -13.632 21.331 -15.188 24.938 C-17.624 30.411 -21.031 33.193 -25.828 36.656 C-27.938 38.25 -27.938 38.25 -28.938 40.25 C-29.014 41.645 -29.075 43.041 -29.125 44.438 C-29.48 48.282 -30.239 49.948 -33 52.625 C-35.19 54.846 -35.89 55.804 -36.227 58.953 C-36.159 60.883 -36.066 62.811 -35.945 64.738 C-35.935 67.965 -37.197 69.602 -38.938 72.25 C-38.801 75.591 -38.539 77.523 -36.391 80.121 C-34.6 82.745 -34.728 84.112 -34.812 87.25 C-34.419 93.785 -31.334 97.492 -27.262 102.426 C-24.919 105.273 -22.934 108.156 -20.938 111.25 C-32.776 110.07 -41.044 106.034 -49.258 97.391 C-51.461 94.583 -52.781 91.734 -54.066 88.422 C-54.924 86.284 -55.941 84.41 -57.125 82.438 C-59.787 77.757 -60.125 73.857 -60.5 68.5 C-60.584 67.33 -60.668 66.159 -60.754 64.953 C-60.784 64.507 -60.784 64.507 -60.938 62.25 C-61.928 62.25 -62.918 62.25 -63.938 62.25 C-64.985 45.321 -56.677 33.466 -46.938 20.25 C-46.467 19.599 -45.996 18.948 -45.512 18.277 C-40.131 11.381 -32.605 7.328 -24.238 5.086 C-21.938 4.25 -21.938 4.25 -19.102 2.18 C-13.36 -1.195 -6.431 -0.165 0 0 Z " fill="#CC518A" transform="translate(75.9375,7.75)"/>
<path d="M0 0 C0.473 0.476 0.947 0.952 1.435 1.443 C3.128 3.127 4.653 3.999 6.793 5.043 C7.505 5.394 8.217 5.746 8.951 6.107 C9.689 6.464 10.427 6.82 11.188 7.188 C11.562 7.372 11.562 7.372 13.459 8.303 C15.303 9.207 17.151 10.104 19 11 C18.228 9.892 17.453 8.787 16.676 7.684 C16.244 7.068 15.813 6.452 15.368 5.818 C13.459 3.281 11.308 1.176 9 -1 C14.548 0.345 17.942 4.404 21 9 C21.75 12.75 21.75 12.75 22 16 C22.455 16.603 22.91 17.207 23.379 17.828 C29.098 25.49 29.596 35.815 29 45 C26.671 42.809 24.94 40.499 23.125 37.875 C18.508 31.802 12.358 28.044 6 24 C8.235 26.363 10.619 28.22 13.25 30.125 C20.772 35.99 25.589 41.646 26.785 51.309 C26.856 52.197 26.927 53.085 27 54 C27.081 54.775 27.162 55.549 27.246 56.348 C27.607 62.543 25.597 67.448 23 73 C22.34 73 21.68 73 21 73 C20.67 71.866 20.34 70.731 20 69.562 C17.375 62.601 12.182 57.3 6 53.312 C0.079 49.213 -2.784 42.245 -6 36 C-5.714 36.562 -5.428 37.124 -5.133 37.703 C-3.986 40.029 -2.922 42.378 -1.875 44.75 C-1.698 45.15 -1.698 45.15 -0.805 47.172 C-0.539 47.775 -0.274 48.378 0 49 C-1.667 48.667 -3.333 48.334 -5 48 C-6.079 47.807 -7.158 47.613 -8.27 47.414 C-16.867 45.499 -20.9 43.015 -25.645 35.559 C-27 33 -27 33 -28 30 C-30.063 29.312 -30.063 29.312 -32 29 C-30.625 27.5 -30.625 27.5 -29 26 C-28.34 26 -27.68 26 -27 26 C-27 24.68 -27 23.36 -27 22 C-32.912 22.126 -36.55 24.076 -41.105 27.824 C-44.226 31.408 -44.951 35.322 -45 40 C-44.67 40.99 -44.34 41.98 -44 43 C-41.69 43.33 -39.38 43.66 -37 44 C-39.421 45.937 -41.75 47.402 -44.5 48.875 C-47.812 50.713 -49.824 52.866 -52 56 C-53.746 48.378 -53.746 48.378 -52.023 45.195 C-51.109 44.077 -50.181 42.969 -49.242 41.871 C-47.713 39.568 -47.591 37.859 -47.312 35.125 C-46.405 29.147 -42.858 26.776 -38.344 23.098 C-35.16 20.248 -34.312 18.014 -33 14 C-31.235 10.117 -30.536 9.22 -26.5 7.562 C-23 6 -23 6 -21.5 3 C-20 -0 -20 -0 -16.75 -1.938 C-10.76 -3.635 -5.679 -2.323 0 0 Z " fill="#C03E7C" transform="translate(95,19)"/>
<path d="M0 0 C4.128 2.9 7.291 6.381 10.488 10.262 C12.312 12.313 12.312 12.313 14.543 13.832 C15.127 14.321 15.711 14.809 16.312 15.312 C16.312 16.633 16.312 17.953 16.312 19.312 C16.972 19.312 17.632 19.312 18.312 19.312 C19.963 22.282 21.613 25.252 23.312 28.312 C23.972 28.312 24.632 28.312 25.312 28.312 C26.078 32.054 26.359 34.651 25.312 38.312 C25.642 38.972 25.972 39.633 26.312 40.312 C27.287 52.527 25.517 66.526 19.312 77.312 C17.436 79.222 15.458 80.691 13.312 82.312 C12.688 84.312 12.688 84.312 12.312 86.312 C8.84 91.811 2.892 96.449 -3.473 97.984 C-4.204 98.093 -4.934 98.201 -5.688 98.312 C-5.266 97.721 -4.844 97.129 -4.41 96.52 C-3.862 95.729 -3.314 94.939 -2.75 94.125 C-2.205 93.348 -1.659 92.57 -1.098 91.77 C0.374 89.206 0.811 87.201 1.312 84.312 C2.145 82.426 2.145 82.426 3.125 80.625 C4.713 77.598 5.998 74.579 7.188 71.375 C8.886 67.013 11.102 63.446 13.785 59.629 C16.356 55.729 18.322 51.531 20.312 47.312 C17.956 49.669 16.53 53.088 14.883 55.965 C13.312 58.312 13.312 58.312 10.312 60.312 C10.3 60 10.3 60 10.237 58.417 C10.121 55.59 9.998 52.764 9.875 49.938 C9.836 48.953 9.796 47.968 9.756 46.953 C9.714 46.012 9.672 45.071 9.629 44.102 C9.592 43.232 9.556 42.363 9.518 41.467 C9.312 39.312 9.312 39.312 8.312 37.312 C8.169 33.934 8.237 31.539 9.312 28.312 C8.322 28.312 7.333 28.312 6.312 28.312 C6.059 27.787 6.059 27.787 4.773 25.129 C-5.69 3.692 -5.69 3.692 -13.688 -0.688 C-13.205 -0.312 -12.723 0.063 -12.227 0.449 C-8.559 3.421 -5.941 5.576 -4.688 10.312 C-8.93 8.706 -12.958 6.736 -17 4.688 C-17.645 4.363 -18.29 4.038 -18.955 3.703 C-20.533 2.908 -22.111 2.111 -23.688 1.312 C-23.688 0.652 -23.688 -0.008 -23.688 -0.688 C-25.172 -1.017 -25.172 -1.017 -32.688 -2.688 C-32.688 -3.678 -32.688 -4.668 -32.688 -5.688 C-20.684 -8.372 -10.427 -6.41 0 0 Z " fill="#942255" transform="translate(118.6875,19.6875)"/>
<path d="M0 0 C0.473 0.476 0.947 0.952 1.435 1.443 C3.128 3.127 4.653 3.999 6.793 5.043 C7.505 5.394 8.217 5.746 8.951 6.107 C9.689 6.464 10.427 6.82 11.188 7.188 C11.562 7.372 11.562 7.372 13.459 8.303 C15.303 9.207 17.151 10.104 19 11 C18.228 9.892 17.453 8.787 16.676 7.684 C16.244 7.068 15.813 6.452 15.368 5.818 C13.459 3.281 11.308 1.176 9 -1 C14.548 0.345 17.942 4.404 21 9 C21.75 12.75 21.75 12.75 22 16 C22.455 16.603 22.91 17.207 23.379 17.828 C29.098 25.49 29.596 35.815 29 45 C26.671 42.809 24.94 40.499 23.125 37.875 C19.137 32.635 14.246 29.388 8.793 25.848 C6 24 6 24 4 22 C1.671 21.635 -0.663 21.306 -3 21 C-4.072 20.649 -5.145 20.299 -6.25 19.938 C-12.726 18.319 -19.014 17.865 -25 21 C-26.196 21.041 -27.392 21.082 -28.625 21.125 C-34.659 21.794 -39.119 25.529 -43 30 C-44.897 34.514 -45.557 38.33 -44 43 C-41.69 43.33 -39.38 43.66 -37 44 C-39.421 45.937 -41.75 47.402 -44.5 48.875 C-47.812 50.713 -49.824 52.866 -52 56 C-53.746 48.378 -53.746 48.378 -52.023 45.195 C-51.109 44.077 -50.181 42.969 -49.242 41.871 C-47.713 39.568 -47.591 37.859 -47.312 35.125 C-46.405 29.147 -42.858 26.776 -38.344 23.098 C-35.16 20.248 -34.312 18.014 -33 14 C-31.235 10.117 -30.536 9.22 -26.5 7.562 C-23 6 -23 6 -21.5 3 C-20 -0 -20 -0 -16.75 -1.938 C-10.76 -3.635 -5.679 -2.323 0 0 Z " fill="#B83573" transform="translate(95,19)"/>
<path d="M0 0 C5.28 0.66 10.56 1.32 16 2 C16 7.598 16 7.598 13.062 10.625 C10.886 12.9 10.023 13.931 9 17 C11.556 16.077 13.654 15.294 15.738 13.523 C18.716 11.518 21.419 11.095 24.938 10.438 C31.533 9.189 31.533 9.189 34.703 7.906 C38.259 6.503 41.42 6.985 45 8 C50.43 10.464 54.413 13.503 57 19 C57.657 22.835 57.352 26.089 55.938 29.75 C51.421 34.996 45.588 36.772 39 38 C38.67 37.835 38.67 37.835 37 37 C35.499 37.058 33.999 37.146 32.5 37.25 C25.166 37.324 19.786 34.18 14.125 29.75 C11.743 26.667 10.489 23.656 9.047 20.062 C8 18 8 18 5.25 15.938 C3 14 3 14 2.789 12.129 C2.846 10.718 2.924 9.307 3.023 7.898 C2.99 5.206 1.779 3.928 0 2 C0 1.34 0 0.68 0 0 Z " fill="#9A245B" transform="translate(42,86)"/>
<path d="M0 0 C1.365 0.02 2.73 0.038 4.096 0.055 C7.419 0.102 10.74 0.167 14.062 0.25 C12.788 2.799 11.571 2.996 9.062 4.25 C8.65 4.745 8.237 5.24 7.812 5.75 C5.057 8.112 1.627 8.796 -1.938 9.25 C-2.597 8.92 -3.257 8.59 -3.938 8.25 C-16.14 7.556 -27.724 8.078 -37.938 15.25 C-38.532 15.632 -39.126 16.013 -39.738 16.406 C-46.317 21.166 -50.66 29.218 -54.031 36.441 C-54.937 38.25 -54.937 38.25 -57.125 41.438 C-60.249 46.285 -60.049 50.578 -59.938 56.25 C-58.617 55.26 -57.297 54.27 -55.938 53.25 C-55.91 55.021 -55.891 56.792 -55.875 58.562 C-55.863 59.549 -55.852 60.535 -55.84 61.551 C-55.938 64.25 -55.938 64.25 -56.938 67.25 C-56.938 68.57 -56.938 69.89 -56.938 71.25 C-55.617 69.93 -54.297 68.61 -52.938 67.25 C-51.906 68.054 -50.875 68.859 -49.812 69.688 C-47.146 71.637 -46.137 72.23 -42.75 72.562 C-39.937 73.25 -39.937 73.25 -38.711 75.043 C-37.706 77.086 -36.819 79.152 -35.938 81.25 C-35.773 81.415 -35.773 81.415 -34.938 82.25 C-34.938 83.854 -34.938 85.458 -34.938 87.062 C-34.431 93.659 -31.383 97.433 -27.262 102.426 C-24.919 105.273 -22.934 108.156 -20.938 111.25 C-32.776 110.07 -41.044 106.034 -49.258 97.391 C-51.461 94.583 -52.781 91.734 -54.066 88.422 C-54.924 86.284 -55.941 84.41 -57.125 82.438 C-59.787 77.757 -60.125 73.857 -60.5 68.5 C-60.584 67.33 -60.668 66.159 -60.754 64.953 C-60.784 64.507 -60.784 64.507 -60.938 62.25 C-61.928 62.25 -62.918 62.25 -63.938 62.25 C-64.985 45.321 -56.677 33.466 -46.938 20.25 C-46.467 19.599 -45.996 18.948 -45.512 18.277 C-40.131 11.381 -32.605 7.328 -24.238 5.086 C-21.938 4.25 -21.938 4.25 -19.102 2.18 C-13.36 -1.195 -6.431 -0.165 0 0 Z " fill="#BE407B" transform="translate(75.9375,7.75)"/>
<path d="M0 0 C2.272 2.091 3.691 4.023 5.043 6.793 C5.394 7.505 5.746 8.217 6.107 8.951 C6.464 9.689 6.82 10.427 7.188 11.188 C7.556 11.937 7.924 12.687 8.303 13.459 C9.207 15.303 10.104 17.151 11 19 C13 17 13 17 15 14 C14.125 20.875 14.125 20.875 13 22 C12.866 23.639 12.796 25.282 12.754 26.926 C12.723 27.944 12.692 28.963 12.659 30.012 C12.627 31.101 12.595 32.19 12.562 33.312 C11.742 55.042 7.675 73.147 -8.625 88.625 C-11.972 91.468 -14.456 93 -19 93 C-17.726 90.962 -16.389 88.961 -15 87 C-14.34 87 -13.68 87 -13 87 C-12.732 86.422 -12.464 85.845 -12.188 85.25 C-10.592 82.228 -8.536 79.686 -6.438 77 C-2.67 71.759 -2.243 67.354 -3 61 C-5.313 53.256 -10.69 47.801 -17.59 43.891 C-27.639 38.509 -37.647 35.29 -49 34 C-49 33.67 -49 33.34 -49 33 C-43.405 31.925 -39.434 31.797 -34.195 34.098 C-29.946 35.844 -25.44 36.849 -21 38 C-21.338 37.408 -21.675 36.817 -22.023 36.207 C-24.276 32.215 -26.462 28.334 -28 24 C-24.209 27.217 -22.109 30.487 -19.75 34.875 C-16.85 40.037 -13.959 43.048 -9.148 46.414 C-4.756 49.656 -1.086 53.927 1 59 C1 60.32 1 61.64 1 63 C1.66 63 2.32 63 3 63 C3.124 62.278 3.248 61.556 3.375 60.812 C4 58 4 58 5.062 55.75 C6.424 51.755 6.285 48.181 6 44 C5.943 43.117 5.887 42.234 5.828 41.324 C4.822 32.853 1.03 26.999 -5.646 21.691 C-9.324 18.959 -13.126 16.445 -17 14 C-16.01 13.67 -15.02 13.34 -14 13 C-11.599 14.369 -9.469 15.751 -7.25 17.375 C-6.623 17.827 -5.997 18.28 -5.351 18.746 C0.249 22.927 4.847 27.694 8 34 C8.641 27.151 7.81 21.394 5.625 14.938 C5.404 14.283 5.182 13.628 4.954 12.953 C3.936 10.101 3.166 8.166 1 6 C0.602 4.012 0.262 2.011 0 0 Z " fill="#E295A1" transform="translate(115,29)"/>
<path d="M0 0 C0.66 0 1.32 0 2 0 C2.825 1.485 2.825 1.485 7 9 C7.66 9 8.32 9 9 9 C9.765 12.742 10.046 15.339 9 19 C9.33 19.66 9.66 20.32 10 21 C10.974 33.214 9.205 47.214 3 58 C1.124 59.909 -0.854 61.379 -3 63 C-3.625 65 -3.625 65 -4 67 C-7.473 72.498 -13.421 77.137 -19.785 78.672 C-20.516 78.78 -21.247 78.888 -22 79 C-21.578 78.408 -21.157 77.817 -20.723 77.207 C-20.175 76.417 -19.627 75.627 -19.062 74.812 C-18.517 74.035 -17.972 73.258 -17.41 72.457 C-15.939 69.893 -15.501 67.888 -15 65 C-14.168 63.113 -14.168 63.113 -13.188 61.312 C-11.6 58.285 -10.314 55.267 -9.125 52.062 C-7.761 48.56 -6.196 45.594 -4.062 42.5 C-3.557 41.756 -3.052 41.012 -2.531 40.246 C-1.525 38.77 -0.504 37.303 0.531 35.848 C5.283 28.126 4.898 18.689 3 10 C1.449 7.133 1.449 7.133 0 5 C-0.188 2.188 -0.188 2.188 0 0 Z " fill="#A03061" transform="translate(135,39)"/>
<path d="M0 0 C0.66 0 1.32 0 2 0 C2.002 0.343 2.002 0.343 2.013 2.079 C2.116 18.771 2.225 35.463 2.339 52.155 C2.395 60.227 2.448 68.3 2.497 76.372 C2.54 83.408 2.587 90.443 2.637 97.479 C2.663 101.204 2.688 104.93 2.709 108.655 C2.732 112.814 2.763 116.973 2.795 121.132 C2.8 122.367 2.806 123.602 2.812 124.874 C2.822 126.008 2.832 127.143 2.842 128.312 C2.848 129.295 2.855 130.279 2.861 131.292 C2.998 133.954 3.407 136.405 4 139 C23.921 139.787 43.783 140.12 63.722 139.932 C67.193 139.901 70.663 139.876 74.133 139.85 C79.918 139.805 85.704 139.756 91.489 139.703 C98.17 139.642 104.852 139.59 111.533 139.541 C118.019 139.494 124.504 139.441 130.99 139.386 C133.732 139.363 136.474 139.341 139.216 139.321 C143.013 139.293 146.81 139.258 150.607 139.221 C151.738 139.214 152.87 139.207 154.036 139.199 C155.062 139.188 156.089 139.177 157.147 139.165 C158.041 139.157 158.936 139.149 159.857 139.141 C162 139 162 139 164 138 C164 139.32 164 140.64 164 142 C109.88 142 55.76 142 0 142 C0 95.14 0 48.28 0 0 Z " fill="#FEFDFB" transform="translate(0,0)"/>
<path d="M0 0 C5.61 2.409 9.327 7.236 12.438 12.375 C13.753 18.516 14.087 23.897 10.688 29.375 C9.811 30.598 8.917 31.808 8 33 C7.443 33.825 6.886 34.65 6.312 35.5 C5.879 35.995 5.446 36.49 5 37 C4.34 37 3.68 37 3 37 C2.794 35.824 2.588 34.649 2.375 33.438 C1.084 28.502 -0.966 25.163 -5 22 C-8.894 20.008 -12.888 18.478 -17 17 C-18.669 16.339 -20.337 15.675 -22 15 C-21.67 14.01 -21.34 13.02 -21 12 C-19.109 11.445 -19.109 11.445 -16.75 11.125 C-12.172 10.263 -9.913 8.759 -7 5 C-7 4.34 -7 3.68 -7 3 C-5.845 2.835 -5.845 2.835 0 2 C0 1.34 0 0.68 0 0 Z " fill="#AC336C" transform="translate(100,75)"/>
<path d="M0 0 C-0.927 0.482 -1.854 0.964 -2.809 1.461 C-4.018 2.099 -5.228 2.737 -6.438 3.375 C-7.049 3.692 -7.661 4.009 -8.291 4.336 C-12.887 6.773 -12.887 6.773 -14 9 C-13.42 8.856 -12.84 8.711 -12.242 8.562 C-7.756 7.496 -3.647 6.651 1 7 C2 8 2 8 2.25 11.75 C2.158 15.735 1.645 17.874 -1 21 C-2.515 22.071 -4.036 23.133 -5.562 24.188 C-9.337 26.957 -10.676 28.824 -11.562 33.438 C-11.746 34.954 -11.905 36.475 -12 38 C-14.688 38.312 -14.688 38.312 -18 38 C-20.614 35.909 -22.452 34.175 -23.875 31.125 C-24.058 28.009 -23.486 25.076 -23 22 C-22.965 20.334 -22.95 18.666 -23 17 C-24.65 17.33 -26.3 17.66 -28 18 C-7.879 -2.791 -7.879 -2.791 0 0 Z " fill="#D1578E" transform="translate(58,18)"/>
<path d="M0 0 C2.439 2.439 2.287 3.214 2.414 6.57 C2.433 7.018 2.433 7.018 2.531 9.285 C2.562 10.222 2.593 11.159 2.625 12.125 C2.644 12.597 2.644 12.597 2.742 14.988 C2.837 17.325 2.922 19.662 3 22 C6.894 16.483 9.893 11.438 12 5 C12.33 5 12.66 5 13 5 C12.587 11.329 11.142 15.238 7.688 20.5 C6.863 21.814 6.04 23.129 5.219 24.445 C4.829 25.063 4.44 25.681 4.039 26.317 C1.709 30.091 -0.165 34.05 -1.91 38.125 C-7.097 50.221 -13.772 61.997 -25.988 67.973 C-34.385 71.273 -43.611 71.157 -52 68 C-52 67.67 -52 67.34 -52 67 C-51.227 66.902 -50.453 66.804 -49.656 66.703 C-42.175 65.629 -35.213 64.614 -30 58.75 C-28.582 54.851 -28.604 52.158 -29 48 C-30.5 45.625 -30.5 45.625 -32 44 C-32 43.34 -32 42.68 -32 42 C-32.681 41.732 -33.361 41.464 -34.062 41.188 C-36.72 40.113 -39.35 38.991 -41.977 37.844 C-43.458 37.226 -44.955 36.648 -46.461 36.094 C-51.885 34.074 -55.79 31.989 -60 28 C-59.67 27.34 -59.34 26.68 -59 26 C-58.203 26.755 -57.407 27.511 -56.586 28.289 C-52.675 31.549 -48.413 32.836 -43.625 34.375 C-36.007 36.996 -29.005 39.61 -24.883 47.004 C-23.448 50.249 -22.94 52.408 -23 56 C-25.018 59 -27.397 61.501 -30 64 C-21.12 62.002 -16.029 55.573 -11.25 48.25 C-1.797 33.184 -0.732 17.347 0 0 Z " fill="#CD7587" transform="translate(127,57)"/>
<path d="M0 0 C0.763 0.763 1.526 1.526 2.312 2.312 C6.564 5.919 11.664 6.832 17 8 C16.691 9.891 16.691 9.891 16 12 C12.938 13.75 12.938 13.75 10 15 C12.739 16.37 14.971 16.126 18 16 C18.66 15.67 19.32 15.34 20 15 C20.414 13.152 20.414 13.152 20.625 10.938 C20.749 9.638 20.873 8.339 21 7 C21.33 7 21.66 7 22 7 C21.968 7.655 21.936 8.31 21.902 8.984 C22.003 16.899 24.7 21.148 29.676 27.176 C32.019 30.023 34.003 32.906 36 36 C24.164 34.82 15.896 30.786 7.684 22.145 C5.463 19.315 4.099 16.445 2.812 13.102 C2 11 2 11 0.188 7.75 C-1.164 4.62 -1.034 3.196 0 0 Z " fill="#AE316B" transform="translate(19,83)"/>
<path d="M0 0 C4.384 1.389 6.662 3.387 9.688 6.812 C10.071 7.239 10.071 7.239 12.012 9.395 C15.703 14.232 16.537 19.037 17 25 C17.033 25.357 17.033 25.357 17.199 27.164 C17.523 33.476 15.651 38.33 13 44 C12.34 44 11.68 44 11 44 C10.608 42.804 10.216 41.608 9.812 40.375 C8.635 37.159 7.743 35.713 5.375 33.062 C2.245 29.026 2.256 25.951 2 21 C1.684 18.997 1.358 16.996 1 15 C1.66 15 2.32 15 3 15 C2.886 13.062 2.758 11.124 2.625 9.188 C2.555 8.109 2.486 7.03 2.414 5.918 C2 3 2 3 0 0 Z " fill="#A92F69" transform="translate(105,48)"/>
<path d="M0 0 C0 1.32 0 2.64 0 4 C-0.66 4 -1.32 4 -2 4 C-2.33 4.99 -2.66 5.98 -3 7 C-2.257 7.701 -1.515 8.403 -0.75 9.125 C1.975 11.974 4.122 14.532 6 18 C5.75 20.875 5.75 20.875 5 23 C2.03 23 -0.94 23 -4 23 C-4 22.67 -4 22.34 -4 22 C-8.29 22 -12.58 22 -17 22 C-19.022 16.944 -19.429 15.333 -18.152 10.359 C-14.736 3.364 -7.725 -1.343 0 0 Z " fill="#CC4C88" transform="translate(68,41)"/>
<path d="M0 0 C1.365 0.02 2.73 0.038 4.096 0.055 C7.419 0.102 10.74 0.167 14.062 0.25 C12.788 2.799 11.571 2.996 9.062 4.25 C8.65 4.745 8.237 5.24 7.812 5.75 C5.057 8.112 1.627 8.796 -1.938 9.25 C-2.597 8.92 -3.257 8.59 -3.938 8.25 C-16.14 7.556 -27.724 8.078 -37.938 15.25 C-38.532 15.632 -39.126 16.013 -39.738 16.406 C-46.275 21.136 -50.594 29.117 -53.961 36.289 C-55.692 39.764 -57.826 42.996 -59.938 46.25 C-60.774 43.89 -61.107 42.691 -60.197 40.315 C-59.798 39.655 -59.399 38.996 -58.988 38.316 C-58.552 37.585 -58.116 36.853 -57.666 36.1 C-57.199 35.345 -56.731 34.59 -56.25 33.812 C-55.802 33.062 -55.354 32.311 -54.893 31.537 C-52.478 27.54 -49.948 23.832 -46.938 20.25 C-46.491 19.653 -46.045 19.056 -45.586 18.441 C-40.128 11.46 -32.732 7.362 -24.238 5.086 C-21.937 4.25 -21.937 4.25 -19.102 2.18 C-13.36 -1.195 -6.431 -0.165 0 0 Z " fill="#A83369" transform="translate(75.9375,7.75)"/>
<path d="M0 0 C2.628 1.342 4.898 2.898 7 5 C7.452 8.347 7.282 9.617 5.25 12.375 C4.507 12.911 3.765 13.448 3 14 C1.659 13.7 0.326 13.362 -1 13 C-2.543 13.054 -4.085 13.14 -5.625 13.25 C-11.633 13.357 -15.933 11.019 -21 8 C-21 7.01 -21 6.02 -21 5 C-7.759 -2.729 -7.759 -2.729 0 0 Z " fill="#902153" transform="translate(80,110)"/>
<path d="M0 0 C0.33 0 0.66 0 1 0 C1.037 0.592 1.075 1.183 1.113 1.793 C1.179 2.583 1.245 3.373 1.312 4.188 C1.371 4.965 1.429 5.742 1.488 6.543 C2 9 2 9 3.508 11.328 C6.545 16.766 5.934 23.937 5 30 C2.835 36.474 0.489 40.883 -5 45 C-5.33 36.42 -5.66 27.84 -6 19 C-5.34 19.66 -4.68 20.32 -4 21 C-3.914 20.435 -3.829 19.87 -3.74 19.288 C-3.351 16.733 -2.957 14.179 -2.562 11.625 C-2.428 10.736 -2.293 9.846 -2.154 8.93 C-2.022 8.079 -1.89 7.228 -1.754 6.352 C-1.633 5.566 -1.513 4.781 -1.389 3.971 C-1 2 -1 2 0 0 Z " fill="#871C4D" transform="translate(134,35)"/>
<path d="M0 0 C6.393 1.998 12.383 6.347 16 12 C19.455 20.32 20.581 28.048 20 37 C17.579 34.711 15.656 32.246 13.688 29.562 C10.764 25.731 8.075 23.485 4 21 C4 19 4 19 5.5 17.375 C5.748 17.148 5.748 17.148 7 16 C6.404 14.414 5.798 12.831 5.188 11.25 C4.851 10.368 4.515 9.487 4.168 8.578 C3.031 6.069 1.656 4.183 0 2 C0 1.34 0 0.68 0 0 Z " fill="#9F255C" transform="translate(104,27)"/>
<path d="M0 0 C2.549 4.779 2.803 9.724 2 15 C0.681 17.967 -1.025 20.434 -3 23 C-3.278 23.412 -3.278 23.412 -4.688 25.5 C-5.121 25.995 -5.554 26.49 -6 27 C-6.66 27 -7.32 27 -8 27 C-8.206 25.824 -8.412 24.649 -8.625 23.438 C-9.667 19.085 -11.71 16.644 -14.855 13.543 C-15.233 13.034 -15.611 12.525 -16 12 C-14.75 8.251 -13.362 7.61 -10.125 5.438 C-9.241 4.838 -8.356 4.239 -7.445 3.621 C-6.638 3.086 -5.831 2.551 -5 2 C-2 0 -2 0 0 0 Z " fill="#9C295E" transform="translate(111,85)"/>
<path d="M0 0 C0.33 0 0.66 0 1 0 C1.061 0.71 1.121 1.421 1.184 2.152 C1.267 3.071 1.351 3.991 1.438 4.938 C1.519 5.854 1.6 6.771 1.684 7.715 C2 10 2 10 3 11 C3.134 12.977 3.232 14.957 3.312 16.938 C3.8 23.983 5.253 30.342 9.555 36.07 C11 38 11 38 12.25 41.312 C15.06 48.076 20.97 52.597 27.312 55.934 C32.67 58.06 38.34 59.01 44 60 C44 60.66 44 61.32 44 62 C44.804 62.083 45.609 62.165 46.438 62.25 C50.959 63.202 54.847 65.016 59 67 C59 67.33 59 67.66 59 68 C42.426 68.905 42.426 68.905 36.285 64.289 C35 63 35 63 34 61 C32.522 60.381 31.016 59.83 29.5 59.312 C18.12 54.907 11.159 46.81 6 36 C5.484 35.319 4.969 34.639 4.438 33.938 C-2.203 24.988 -0.158 10.56 0 0 Z " fill="#6B1935" transform="translate(13,59)"/>
<path d="M0 0 C0.165 0.495 0.165 0.495 1 3 C-3.857 6.192 -8.591 8.817 -14 11 C-15.609 11.656 -17.213 12.323 -18.812 13 C-19.187 13.155 -19.187 13.155 -21.082 13.938 C-23 15 -23 15 -25 18 C-37.58 21.53 -53.94 19.655 -66.75 17.938 C-67.517 17.853 -68.283 17.769 -69.073 17.683 C-72.102 17.202 -74.412 16.625 -76.549 14.352 C-77.891 12.441 -77.891 12.441 -79.001 10.561 C-80 9 -80 9 -82 8 C-82 7.34 -82 6.68 -82 6 C-78.152 6.55 -76.647 8.27 -74 11 C-71.072 12.775 -68.997 13.23 -65.594 13.125 C-65.181 13.117 -65.181 13.117 -63.09 13.078 C-62.663 13.065 -62.663 13.065 -60.5 13 C-58.802 12.949 -57.104 12.907 -55.406 12.875 C-54.657 12.852 -53.907 12.829 -53.135 12.805 C-50.682 13.029 -49.17 13.874 -47 15 C-44.388 15.22 -41.922 15.333 -39.312 15.312 C-38.599 15.309 -37.886 15.306 -37.151 15.302 C-30.913 15.174 -25.097 14.435 -20.062 10.477 C-17.77 8.836 -15.981 8.327 -13.25 7.688 C-7.895 6.21 -4.169 3.598 0 0 Z " fill="#E2CDAB" transform="translate(126,113)"/>
<path d="M0 0 C-0.927 0.482 -1.854 0.964 -2.809 1.461 C-4.018 2.099 -5.228 2.737 -6.438 3.375 C-7.049 3.692 -7.661 4.009 -8.291 4.336 C-12.887 6.773 -12.887 6.773 -14 9 C-13.42 8.856 -12.84 8.711 -12.242 8.562 C-7.756 7.496 -3.647 6.651 1 7 C2 8 2 8 2.25 11.75 C2.209 15.596 1.427 17.92 -1 21 C-1.66 21.33 -2.32 21.66 -3 22 C-2.67 19.36 -2.34 16.72 -2 14 C-2.66 14 -3.32 14 -4 14 C-4.33 14.99 -4.66 15.98 -5 17 C-6.98 17.33 -8.96 17.66 -11 18 C-11 17.01 -11 16.02 -11 15 C-11.557 15.133 -12.114 15.266 -12.688 15.402 C-17.786 16.582 -22.798 17.432 -28 18 C-7.879 -2.791 -7.879 -2.791 0 0 Z " fill="#D05D92" transform="translate(58,18)"/>
<path d="M0 0 C0.11 0.773 0.219 1.547 0.332 2.344 C1.786 11.894 1.786 11.894 3.688 16.5 C5.313 20.834 5.313 20.834 4 24 C2.152 25.922 2.152 25.922 -0.062 27.75 C-0.429 28.057 -0.429 28.057 -2.285 29.609 C-2.851 30.068 -3.417 30.527 -4 31 C-4.66 30.67 -5.32 30.34 -6 30 C-5.67 29.01 -5.34 28.02 -5 27 C-4.932 25.272 -4.915 23.542 -4.938 21.812 C-4.947 20.911 -4.956 20.01 -4.965 19.082 C-4.976 18.395 -4.988 17.708 -5 17 C-6.32 17.99 -7.64 18.98 -9 20 C-9.36 13.396 -8.894 6.596 -4.582 1.238 C-3 0 -3 0 0 0 Z " fill="#C34682" transform="translate(24,45)"/>
<path d="M0 0 C0.33 0.66 0.66 1.32 1 2 C1.66 2 2.32 2 3 2 C2.77 4.21 2.515 6.418 2.25 8.625 C2.111 9.855 1.972 11.085 1.828 12.352 C0.315 19.02 -3.648 22.908 -8.625 27.375 C-9.106 27.812 -9.106 27.812 -11.539 30.023 C-14 32 -14 32 -16 32 C-13.081 21.207 -8.092 8.092 0 0 Z " fill="#8C2051" transform="translate(138,71)"/>
<path d="M0 0 C9.011 -0.577 15.585 -0.492 23 5 C22.67 5.99 22.34 6.98 22 8 C19.812 8.879 19.812 8.879 17 9.562 C16.01 9.811 15.02 10.06 14 10.316 C10.639 11.082 7.27 11.776 3.875 12.375 C2 13 2 13 0.5 14.562 C-1 16 -1 16 -5 16 C-4.579 11.087 -2.384 9.384 1 6 C1.812 3.188 1.812 3.188 2 1 C1.34 0.67 0.68 0.34 0 0 Z " fill="#B63673" transform="translate(56,87)"/>
<path d="M0 0 C-1.99 4.714 -3.53 6.609 -8 9 C-10.06 10.604 -12.02 12.296 -14 14 C-14.33 12.35 -14.66 10.7 -15 9 C-26.522 9.964 -26.522 9.964 -32 11 C-25.406 3.555 -9.587 -6.462 0 0 Z " fill="#B83C78" transform="translate(74,17)"/>
<path d="M0 0 C0.66 0.33 1.32 0.66 2 1 C1.01 2.32 0.02 3.64 -1 5 C-0.34 5 0.32 5 1 5 C1 6.32 1 7.64 1 9 C0.704 9.062 0.704 9.062 -0.793 9.375 C-5.472 10.596 -8.288 11.656 -10.875 15.875 C-11.612 17.235 -12.324 18.609 -13 20 C-14.891 23.781 -16.575 25.436 -20.062 27.688 C-23.574 30.166 -24.681 31.977 -25.562 36.188 C-26.042 39.406 -26.048 40.857 -25 44 C-22.69 44.33 -20.38 44.66 -18 45 C-20.421 46.937 -22.75 48.402 -25.5 49.875 C-28.812 51.713 -30.824 53.866 -33 57 C-34.746 49.378 -34.746 49.378 -33.023 46.195 C-32.109 45.077 -31.181 43.969 -30.242 42.871 C-28.713 40.568 -28.591 38.859 -28.312 36.125 C-27.405 30.147 -23.858 27.776 -19.344 24.098 C-16.16 21.248 -15.312 19.014 -14 15 C-12.235 11.117 -11.536 10.22 -7.5 8.562 C-3.299 6.687 -2.637 5.183 -1 1 C-0.67 0.67 -0.34 0.34 0 0 Z " fill="#A62B64" transform="translate(76,18)"/>
<path d="M0 0 C3.28 1.093 3.733 1.621 5.664 4.309 C6.146 4.973 6.628 5.638 7.125 6.322 C7.62 7.02 8.115 7.718 8.625 8.438 C8.876 8.785 8.876 8.785 10.148 10.541 C13.818 15.636 13.818 15.636 15 18 C6.54 17.157 -0.249 15.354 -7 10 C-8.777 7.805 -8.777 7.805 -10 6 C-9.34 5.67 -8.68 5.34 -8 5 C-7.375 2.938 -7.375 2.938 -7 1 C-6.01 1.165 -6.01 1.165 -1 2 C-0.67 1.34 -0.34 0.68 0 0 Z " fill="#97255A" transform="translate(40,101)"/>
<path d="M0 0 C3.791 3.217 5.891 6.487 8.25 10.875 C11.15 16.037 14.041 19.048 18.852 22.414 C23.244 25.656 26.914 29.927 29 35 C29 36.32 29 37.64 29 39 C29.66 39 30.32 39 31 39 C30.67 40.65 30.34 42.3 30 44 C28.667 44 27.333 44 26 44 C25.917 43.01 25.835 42.02 25.75 41 C24.737 34.212 21.421 28.473 16.434 23.797 C5.432 15.674 -7.525 11.531 -21 10 C-21 9.67 -21 9.34 -21 9 C-15.405 7.925 -11.434 7.797 -6.195 10.098 C-1.946 11.844 2.56 12.849 7 14 C6.662 13.408 6.325 12.817 5.977 12.207 C3.724 8.215 1.538 4.334 0 0 Z " fill="#E57DA9" transform="translate(87,53)"/>
<path d="M0 0 C2 2 2 2 2.688 5.25 C4.021 9.061 4.376 9.568 7.375 11.812 C10.592 14.266 11.611 16.154 12.812 20 C14.688 25.453 17.685 27.3 22.66 29.941 C26.885 31.853 30.077 32.108 34.688 32.062 C35.867 32.053 37.046 32.044 38.262 32.035 C39.165 32.024 40.069 32.012 41 32 C40.835 32.33 40.835 32.33 40 34 C37.438 34.625 37.438 34.625 35 35 C35.66 35.66 36.32 36.32 37 37 C31.242 36.733 26.853 35.805 21.824 32.938 C19.901 31.949 18.109 31.447 16 31 C16 30.34 16 29.68 16 29 C15.717 28.896 15.717 28.896 14.285 28.367 C11.15 26.491 9.571 24.077 7.438 21.125 C6.673 20.076 5.909 19.026 5.121 17.945 C4.421 16.973 3.721 16.001 3 15 C2.417 14.332 1.835 13.665 1.234 12.977 C-0.436 10.302 -0.299 8.372 -0.188 5.25 C-0.16 4.265 -0.133 3.28 -0.105 2.266 C-0.071 1.518 -0.036 0.77 0 0 Z " fill="#5F092A" transform="translate(41,90)"/>
<path d="M0 0 C3.875 1.75 3.875 1.75 5 4 C5.35 9.34 5.468 12.665 2 17 C-0.629 19.382 -1.388 20 -5 20 C-5.121 19.434 -5.242 18.868 -5.367 18.285 C-5.535 17.552 -5.702 16.818 -5.875 16.062 C-6.037 15.332 -6.2 14.601 -6.367 13.848 C-7 12 -7 12 -9 11 C-8.1 6.699 -6.902 4.612 -3.375 2.125 C-2.261 1.424 -1.147 0.722 0 0 Z " fill="#932154" transform="translate(94,101)"/>
<path d="M0 0 C2.75 2.188 2.75 2.188 5 5 C5.846 5.825 6.691 6.65 7.562 7.5 C14 14.103 14 14.103 14 17 C9.757 15.394 5.73 13.423 1.688 11.375 C1.042 11.05 0.397 10.725 -0.268 10.391 C-1.846 9.596 -3.423 8.798 -5 8 C-5 7.34 -5 6.68 -5 6 C-6.485 5.67 -6.485 5.67 -14 4 C-14 3.01 -14 2.02 -14 1 C-9.42 -0.182 -4.689 -0.761 0 0 Z " fill="#AB2965" transform="translate(100,13)"/>
<path d="M0 0 C0 0.33 0 0.66 0 1 C-0.938 1.156 -0.938 1.156 -5.625 1.938 C-6.669 2.112 -7.713 2.286 -8.789 2.465 C-10.896 2.816 -13.01 3.131 -15.129 3.406 C-22.673 4.966 -28.551 11.212 -33.859 16.461 C-36.442 18.318 -37.888 18.316 -41 18 C-39.422 11.492 -33.952 7.813 -28.52 4.477 C-19.391 -0.189 -10.045 -0.046 0 0 Z " fill="#CA5089" transform="translate(70,15)"/>
<path d="M0 0 C0.598 0.206 1.196 0.412 1.812 0.625 C0.774 1.133 -0.265 1.641 -1.336 2.164 C-4.966 3.949 -8.58 5.766 -12.183 7.604 C-13.838 8.447 -15.498 9.278 -17.16 10.105 C-26.659 15.239 -32.618 23.584 -37.059 33.254 C-38.796 36.902 -40.973 40.251 -43.188 43.625 C-44.024 41.265 -44.357 40.066 -43.447 37.69 C-43.048 37.03 -42.649 36.371 -42.238 35.691 C-41.802 34.96 -41.366 34.228 -40.916 33.475 C-40.449 32.72 -39.981 31.965 -39.5 31.188 C-39.052 30.437 -38.604 29.686 -38.143 28.912 C-35.728 24.915 -33.198 21.207 -30.188 17.625 C-29.741 17.028 -29.295 16.431 -28.836 15.816 C-23.26 8.683 -15.713 4.705 -7.098 2.266 C-0.226 -0.039 -0.226 -0.039 0 0 Z " fill="#722141" transform="translate(59.1875,10.375)"/>
<path d="M0 0 C0.66 0 1.32 0 2 0 C3.65 2.97 5.3 5.94 7 9 C7.66 9 8.32 9 9 9 C9.765 12.742 10.046 15.339 9 19 C9.33 19.66 9.66 20.32 10 21 C10.071 23.207 10.084 25.417 10.062 27.625 C10.053 28.814 10.044 30.002 10.035 31.227 C10.024 32.142 10.012 33.057 10 34 C9.67 34 9.34 34 9 34 C8.67 30.37 8.34 26.74 8 23 C7.34 24.98 6.68 26.96 6 29 C5.67 29 5.34 29 5 29 C4.945 28.343 4.945 28.343 4.668 25.02 C4.508 23.284 4.348 21.548 4.188 19.812 C4.152 19.38 4.152 19.38 3.975 17.193 C3.509 12.332 2.852 9.093 0 5 C-0.188 2.188 -0.188 2.188 0 0 Z " fill="#932A58" transform="translate(135,39)"/>
<path d="M0 0 C0.165 0.33 0.165 0.33 1 2 C-11.319 8.16 -24.356 8.439 -37.816 8.281 C-40.524 8.25 -43.23 8.24 -45.938 8.234 C-47.677 8.225 -49.417 8.215 -51.156 8.203 C-51.956 8.199 -52.756 8.195 -53.581 8.19 C-57.823 8.136 -61.821 7.832 -66 7 C-66 6.67 -66 6.34 -66 6 C-65.12 6.01 -64.239 6.021 -63.332 6.032 C-41.5 6.257 -21.269 5.484 0 0 Z " fill="#EFE1C7" transform="translate(129,125)"/>
<path d="M0 0 C2.007 0.287 4.009 0.619 6 1 C3.439 7.287 -2.475 11.823 -8.125 15.312 C-10 16 -10 16 -13 15 C-12.196 14.113 -11.391 13.226 -10.562 12.312 C-8.686 10.103 -8.04 9.244 -7.562 6.312 C-7.377 5.549 -7.191 4.786 -7 4 C-4 2.25 -4 2.25 -1 1 C-0.67 0.67 -0.34 0.34 0 0 Z " fill="#851E50" transform="translate(126,102)"/>
<path d="M0 0 C0.66 0 1.32 0 2 0 C2.931 2.606 3.149 3.642 2.062 6.25 C1.887 6.539 1.887 6.539 1 8 C-2.333 8 -5.667 8 -9 8 C-10.625 10 -10.625 10 -12 12 C-12.66 12 -13.32 12 -14 12 C-15.858 8.865 -16.201 6.625 -16 3 C-12.865 1.142 -10.625 0.799 -7 1 C-7 1.99 -7 2.98 -7 4 C-4.98 3.398 -2.979 2.727 -1 2 C-0.67 1.34 -0.34 0.68 0 0 Z " fill="#DF699E" transform="translate(54,32)"/>
<path d="M0 0 C1.125 1.75 1.125 1.75 2 4 C1.125 6.25 1.125 6.25 0 8 C0.66 8.33 1.32 8.66 2 9 C-8.35 21.288 -8.35 21.288 -16 22 C-14.726 19.962 -13.389 17.961 -12 16 C-11.34 16 -10.68 16 -10 16 C-9.732 15.422 -9.464 14.845 -9.188 14.25 C-7.592 11.228 -5.536 8.686 -3.438 6 C-2.048 4.067 -1.001 2.155 0 0 Z " fill="#DC8B95" transform="translate(112,100)"/>
<path d="M0 0 C2.272 2.091 3.691 4.023 5.043 6.793 C5.394 7.505 5.746 8.217 6.107 8.951 C6.464 9.689 6.82 10.427 7.188 11.188 C7.556 11.937 7.924 12.687 8.303 13.459 C9.207 15.303 10.104 17.151 11 19 C13 17 13 17 15 14 C14.125 20.875 14.125 20.875 13 22 C12.842 23.779 12.749 25.563 12.684 27.348 C12.642 28.427 12.6 29.507 12.557 30.619 C12.517 31.755 12.478 32.892 12.438 34.062 C12.394 35.203 12.351 36.343 12.307 37.518 C12.2 40.345 12.098 43.172 12 46 C11.67 46 11.34 46 11 46 C10.986 44.779 10.972 43.559 10.957 42.301 C10.702 31.774 9.574 23.598 5 14 C2.966 9.384 1.294 4.876 0 0 Z " fill="#E382A4" transform="translate(115,29)"/>
<path d="M0 0 C0.48 0.378 0.48 0.378 2.91 2.289 C7.138 5.31 11.532 6.783 16.438 8.375 C24.071 11.015 30.904 13.664 35.145 20.973 C36.381 23.903 36.637 26.858 37 30 C36.34 30 35.68 30 35 30 C34.67 28.35 34.34 26.7 34 25 C33.34 26.32 32.68 27.64 32 29 C31.879 28.397 31.758 27.793 31.633 27.172 C31.465 26.373 31.298 25.573 31.125 24.75 C31.044 24.356 31.044 24.356 30.633 22.359 C30 20 29.26 18.091 28 16 C25.812 14.938 25.812 14.938 23 14 C21.34 13.284 19.68 12.567 18.023 11.844 C16.542 11.226 15.045 10.648 13.539 10.094 C8.138 8.083 4.098 6.098 0 2 C0 1.34 0 0.68 0 0 Z " fill="#D35D91" transform="translate(67,83)"/>
<path d="M0 0 C2 2 2 2 2.195 4.383 C2.172 5.288 2.149 6.193 2.125 7.125 C2.107 8.035 2.089 8.945 2.07 9.883 C2.047 10.581 2.024 11.28 2 12 C3.32 11.01 4.64 10.02 6 9 C6.027 10.771 6.046 12.542 6.062 14.312 C6.074 15.299 6.086 16.285 6.098 17.301 C6 20 6 20 5 23 C4.928 23.412 4.928 23.412 4.562 25.5 C4 28 4 28 2 31 C1.67 26.71 1.34 22.42 1 18 C0.01 18 -0.98 18 -2 18 C-2.369 5.33 -2.369 5.33 0 0 Z " fill="#B83E78" transform="translate(14,52)"/>
<path d="M0 0 C0.33 0 0.66 0 1 0 C1.66 3.63 2.32 7.26 3 11 C5.31 11.33 7.62 11.66 10 12 C7.579 13.937 5.25 15.402 2.5 16.875 C-0.812 18.713 -2.824 20.866 -5 24 C-6.745 16.381 -6.745 16.381 -4.988 13.125 C-4.077 11.997 -3.152 10.88 -2.215 9.773 C-0.115 6.708 -0.192 3.647 0 0 Z " fill="#A72862" transform="translate(48,51)"/>
<path d="M0 0 C4.017 0.626 7.034 2.737 10.312 5 C10.888 5.397 11.464 5.794 12.058 6.204 C17.035 9.773 20.649 13.866 24 19 C24.66 19.99 25.32 20.98 26 22 C26.266 24.34 26.266 24.34 26.25 26.938 C26.255 27.792 26.26 28.647 26.266 29.527 C25.987 32.12 25.307 33.765 24 36 C23.876 34.961 23.752 33.922 23.625 32.852 C22.203 22.623 19.882 15.326 11.358 8.729 C8.488 6.624 5.558 4.638 2.562 2.715 C1.717 2.149 0.871 1.583 0 1 C0 0.67 0 0.34 0 0 Z " fill="#DE6D9F" transform="translate(98,42)"/>
<path d="M0 0 C0.66 0 1.32 0 2 0 C2.66 1.65 3.32 3.3 4 5 C5.32 5 6.64 5 8 5 C8.33 5 8.66 5 9 5 C9 7.64 9 10.28 9 13 C6.312 13.312 6.312 13.312 3 13 C0.307 10.846 -1.492 9.047 -3 5.938 C-3 3.148 -1.896 1.966 0 0 Z " fill="#EB84B1" transform="translate(37,43)"/>
<path d="M0 0 C2.611 2.611 2.257 3.748 2.266 7.383 C2.268 8.468 2.271 9.554 2.273 10.672 C2.266 11.811 2.258 12.951 2.25 14.125 C2.258 15.241 2.265 16.358 2.273 17.508 C2.256 24.93 1.346 30.962 -1 38 C-1.66 38 -2.32 38 -3 38 C-3.055 36.5 -3.093 35 -3.125 33.5 C-3.148 32.665 -3.171 31.829 -3.195 30.969 C-2.994 27.912 -2.267 25.198 -1.481 22.248 C-0.582 18.046 -0.524 13.783 -0.375 9.5 C-0.336 8.582 -0.298 7.664 -0.258 6.719 C-0.165 4.479 -0.079 2.24 0 0 Z " fill="#F2A8B6" transform="translate(124,54)"/>
<path d="M0 0 C2.738 0.391 3.83 0.818 5.75 2.875 C10.587 7.443 16.664 8.32 23.117 8.691 C25 9 25 9 27 11 C29.602 11.414 29.602 11.414 32.625 11.625 C33.628 11.7 34.631 11.775 35.664 11.852 C36.435 11.901 37.206 11.95 38 12 C38 12.33 38 12.66 38 13 C30.615 13.398 23.381 12.891 16.062 11.938 C15.654 11.895 15.654 11.895 13.589 11.682 C7.827 10.848 7.827 10.848 5.394 8.352 C4.059 6.441 4.059 6.441 2.97 4.561 C2 3 2 3 0 2 C0 1.34 0 0.68 0 0 Z " fill="#E8D8B9" transform="translate(44,119)"/>
<path d="M0 0 C-0.557 0.242 -1.114 0.485 -1.688 0.734 C-6.263 2.744 -10.753 4.841 -15.176 7.168 C-19.699 9.231 -24.156 9.183 -29.062 9.188 C-29.782 9.2 -30.502 9.212 -31.244 9.225 C-35.043 9.235 -36.764 9.158 -40 7 C-36.146 6.067 -32.763 6.009 -28.812 6.188 C-21.131 6.266 -15.347 4.231 -9 0 C-5.405 -0.824 -3.534 -1.178 0 0 Z " fill="#692030" transform="translate(116,120)"/>
<path d="M0 0 C1.32 0.66 2.64 1.32 4 2 C3.716 4.709 3.423 7.417 3.125 10.125 C3.046 10.886 2.968 11.646 2.887 12.43 C2.39 16.86 1.596 20.802 0 25 C-0.99 25 -1.98 25 -3 25 C-3.25 19.375 -3.25 19.375 -1 16 C-0.988 13.695 -0.988 13.695 -1.312 11.125 C-1.421 10.243 -1.529 9.362 -1.641 8.453 C-2.008 5.946 -2.424 3.468 -3 1 C-1 2 -1 2 0 4 C0 2.68 0 1.36 0 0 Z " fill="#9C2C5E" transform="translate(130,32)"/>
<path d="M0 0 C5.524 1.339 8.982 5.396 12 10 C12.438 13.5 12.438 13.5 12 16 C11.394 15.613 10.788 15.227 10.164 14.828 C-0.25 8.355 -10.769 4.287 -23 3 C-23 2.34 -23 1.68 -23 1 C-18.608 0.831 -15.831 0.91 -12 3 C-10.886 3.227 -9.773 3.454 -8.625 3.688 C-1.985 5.215 4.011 8.854 10 12 C6.946 7.55 3.925 3.701 0 0 Z " fill="#C1467F" transform="translate(104,18)"/>
<path d="M0 0 C0 1.32 0 2.64 0 4 C-0.66 4 -1.32 4 -2 4 C-2.33 4.99 -2.66 5.98 -3 7 C-4.623 7.362 -6.249 7.715 -7.875 8.062 C-8.78 8.26 -9.685 8.457 -10.617 8.66 C-13 9 -13 9 -15 8 C-12.742 1.226 -6.71 -0.685 0 0 Z " fill="#D66098" transform="translate(68,41)"/>
<path d="M0 0 C0.414 -0.006 0.414 -0.006 2.512 -0.037 C2.911 -0.038 2.911 -0.038 4.93 -0.043 C5.662 -0.047 6.394 -0.051 7.148 -0.055 C10.738 0.386 13.291 3.062 16.125 5.188 C11.505 5.188 6.885 5.188 2.125 5.188 C3.115 4.527 4.105 3.867 5.125 3.188 C-2.795 3.188 -10.715 3.188 -18.875 3.188 C-18.875 2.857 -18.875 2.527 -18.875 2.188 C-18.556 2.157 -18.556 2.157 -16.941 2.004 C-16.528 1.962 -16.528 1.962 -14.438 1.75 C-13.614 1.669 -12.79 1.588 -11.941 1.504 C-2.13 0.002 -2.13 0.002 0 0 Z " fill="#6E223E" transform="translate(83.875,5.8125)"/>
<path d="M0 0 C1.734 0.949 1.734 0.949 3.734 3.949 C0.764 3.949 -2.206 3.949 -5.266 3.949 C-5.266 3.619 -5.266 3.289 -5.266 2.949 C-9.556 2.949 -13.846 2.949 -18.266 2.949 C-18.266 2.289 -18.266 1.629 -18.266 0.949 C-11.492 -2.921 -7.078 -2.592 0 0 Z " fill="#D65C95" transform="translate(69.265625,60.05078125)"/>
<path d="M0 0 C3.245 0.304 4.619 0.563 6.801 3.066 C8.201 5.378 9.6 7.689 11 10 C9.02 9.67 9.02 9.67 -1 8 C-2.208 4.377 -1.543 3.359 0 0 Z " fill="#9F285D" transform="translate(44,109)"/>
<path d="M0 0 C0.037 0.603 0.075 1.207 0.113 1.828 C0.667 8.565 0.667 8.565 2.625 11.125 C4 13 4 13 3.688 16.75 C3.461 17.823 3.234 18.895 3 20 C0.238 17.238 0.421 14.793 0 11 C-0.99 10.67 -1.98 10.34 -3 10 C-6.078 5.933 -6.078 5.933 -5.812 2.75 C-4.457 -0.169 -3.128 0 0 0 Z " fill="#750E3A" transform="translate(42,79)"/>
<path d="M0 0 C0.33 0.99 0.66 1.98 1 3 C-3.249 6.938 -6.253 8.642 -12 10 C-13.676 10.642 -15.348 11.299 -17 12 C-15.591 8.478 -14.439 7.487 -11 6 C-9.827 5.344 -8.661 4.676 -7.5 4 C-5.037 2.58 -2.564 1.231 0 0 Z " fill="#AA3C6F" transform="translate(137,94)"/>
<path d="M0 0 C4.29 0.66 8.58 1.32 13 2 C12.01 3.98 11.02 5.96 10 8 C5.18 7.587 3.09 5.62 0 2 C0 1.34 0 0.68 0 0 Z " fill="#AD2F6A" transform="translate(42,86)"/>
<path d="M0 0 C-0.112 4.609 -1.385 6.729 -4.562 9.875 C-5.697 10.929 -6.839 11.975 -8 13 C-9.446 10.109 -8.542 7.918 -7.734 4.91 C-6.227 0.988 -4.027 0 0 0 Z " fill="#DC659E" transform="translate(53,67)"/>
<path d="M0 0 C-0.33 0.99 -0.66 1.98 -1 3 C-5.547 5.034 -10.429 5.661 -15.316 6.438 C-18.051 7.011 -20.442 7.89 -23 9 C-20.333 6.333 -17.667 3.667 -15 1 C-14.34 1.33 -13.68 1.66 -13 2 C-13.33 2.33 -13.66 2.66 -14 3 C-11.312 2.539 -8.964 1.985 -6.438 0.938 C-4 0 -4 0 0 0 Z " fill="#EF99BF" transform="translate(53,27)"/>
<path d="M0 0 C0.361 0.083 0.361 0.083 2.188 0.5 C5 1 5 1 8.062 0.438 C11 0 11 0 15 2 C12.03 2.66 9.06 3.32 6 4 C6 4.99 6 5.98 6 7 C3.69 7 1.38 7 -1 7 C-1.043 5 -1.041 3 -1 1 C-0.67 0.67 -0.34 0.34 0 0 Z " fill="#C74885" transform="translate(52,48)"/>
<path d="M0 0 C-0.046 0.608 -0.093 1.217 -0.141 1.844 C-0.506 10.705 1.625 18.55 4 27 C2.68 27.33 1.36 27.66 0 28 C0.227 27.34 0.454 26.68 0.688 26 C1.046 22.56 0.142 20.47 -1.164 17.324 C-3.021 12.161 -4 6.483 -4 1 C-2 0 -2 0 0 0 Z " fill="#E87EAF" transform="translate(27,42)"/>
<path d="M0 0 C0.33 -0.66 0.66 -1.32 1 -2 C1.33 -1.01 1.66 -0.02 2 1 C-1.725 2.352 -4.244 1.598 -8 0.562 C-14.448 -1.044 -20.386 -1.322 -27 -1 C-27 -1.66 -27 -2.32 -27 -3 C-18.871 -7.065 -8.001 -2.616 0 0 Z " fill="#D04F8C" transform="translate(99,41)"/>
<path d="M0 0 C-1.394 4.435 -3.606 6.874 -7 10 C-9.152 6.772 -9.201 5.716 -9 2 C-5.865 0.142 -3.625 -0.201 0 0 Z " fill="#ED87B5" transform="translate(47,33)"/>
<path d="M0 0 C6.295 -0.656 10.079 1.039 15 5 C16.478 7.957 16.06 10.742 16 14 C14.35 14.33 12.7 14.66 11 15 C11.66 14.01 12.32 13.02 13 12 C13.5 9.562 13.5 9.562 13 7 C8.904 3.403 5.371 2.43 0 2 C0 1.34 0 0.68 0 0 Z " fill="#AC3D6C" transform="translate(73,108)"/>
<path d="M0 0 C6.303 0.368 11.333 1.166 17 4 C17 4.33 17 4.66 17 5 C15.105 5.082 13.209 5.139 11.312 5.188 C10.785 5.205 10.785 5.205 8.113 5.293 C4.618 4.964 2.771 4.123 0 2 C0 1.34 0 0.68 0 0 Z " fill="#912251" transform="translate(51,120)"/>
<path d="M0 0 C5.273 0.445 10.018 1.084 15 3 C11.579 5.281 10.318 5.219 6.312 5.125 C5.816 5.116 5.816 5.116 3.301 5.07 C2.542 5.047 1.782 5.024 1 5 C0.67 3.35 0.34 1.7 0 0 Z " fill="#BA3374" transform="translate(84,40)"/>
<path d="M0 0 C0.33 0.66 0.66 1.32 1 2 C-7.266 6.133 -16.763 8.295 -26 8 C-26 7.67 -26 7.34 -26 7 C-21.71 6.34 -17.42 5.68 -13 5 C-13 4.34 -13 3.68 -13 3 C-8.71 2.01 -4.42 1.02 0 0 Z " fill="#F6EBD5" transform="translate(129,125)"/>
<path d="M0 0 C0.33 0 0.66 0 1 0 C1.054 1.77 1.093 3.541 1.125 5.312 C1.148 6.299 1.171 7.285 1.195 8.301 C1 11 1 11 -1 14 C-3.64 13.67 -6.28 13.34 -9 13 C-9.33 12.01 -9.66 11.02 -10 10 C-7.03 9.34 -4.06 8.68 -1 8 C-0.67 5.36 -0.34 2.72 0 0 Z " fill="#A82D65" transform="translate(40,90)"/>
<path d="M0 0 C4.844 4.624 4.844 4.624 5.266 8.34 C5.26 9.197 5.255 10.054 5.25 10.938 C5.253 11.365 5.253 11.365 5.266 13.527 C4.987 16.12 4.307 17.765 3 20 C2.496 17.417 1.996 14.834 1.5 12.25 C1.357 11.52 1.214 10.791 1.066 10.039 C0.411 6.607 0 3.508 0 0 Z " fill="#D96C93" transform="translate(119,58)"/>
<path d="M0 0 C2.624 3.061 3 3.732 3 8 C3.66 8 4.32 8 5 8 C4.67 9.65 4.34 11.3 4 13 C2.667 13 1.333 13 0 13 C-0.144 11.927 -0.289 10.855 -0.438 9.75 C-0.837 7.083 -1.276 4.586 -2 2 C-1.34 2 -0.68 2 0 2 C0 1.34 0 0.68 0 0 Z " fill="#D88099" transform="translate(113,84)"/>
<path d="M0 0 C1.258 -0.041 2.516 -0.082 3.812 -0.125 C4.52 -0.148 5.228 -0.171 5.957 -0.195 C8 0 8 0 11 2 C11 2.66 11 3.32 11 4 C6.71 4 2.42 4 -2 4 C-1.34 2.68 -0.68 1.36 0 0 Z " fill="#D35591" transform="translate(67,30)"/>
<path d="M0 0 C0 3 0 3 -2.188 5.438 C-9.959 12.518 -9.959 12.518 -14 14 C-14.99 13.67 -15.98 13.34 -17 13 C-14.894 10.685 -13.05 9.424 -10.188 8.188 C-5.879 6.141 -3.195 3.514 0 0 Z " fill="#AF4470" transform="translate(130,104)"/>
<path d="M0 0 C4 1.333 4.838 3.496 7 7 C1.768 7.383 -1.378 6.219 -6 4 C-6 3.67 -6 3.34 -6 3 C-5.196 2.876 -4.391 2.752 -3.562 2.625 C-2.717 2.419 -1.871 2.213 -1 2 C-0.67 1.34 -0.34 0.68 0 0 Z " fill="#891D4D" transform="translate(40,101)"/>
<path d="M0 0 C0.99 0 1.98 0 3 0 C3.375 2.188 3.375 2.188 3 5 C1.16 6.99 -0.792 8.39 -3 10 C-3.33 9.01 -3.66 8.02 -4 7 C-4.66 6.67 -5.32 6.34 -6 6 C-5.01 5.67 -4.02 5.34 -3 5 C-2.505 4.154 -2.01 3.309 -1.5 2.438 C-1.005 1.633 -0.51 0.829 0 0 Z " fill="#9D245E" transform="translate(55,88)"/>
<path d="M0 0 C0.822 0.291 1.645 0.581 2.492 0.881 C4.5 1.593 6.501 2.326 8.5 3.062 C8.17 3.722 7.84 4.382 7.5 5.062 C6.345 4.629 5.19 4.196 4 3.75 C-2.979 1.397 -10.261 0.315 -17.5 -0.938 C-17.5 -1.267 -17.5 -1.597 -17.5 -1.938 C-10.778 -3.287 -6.365 -2.369 0 0 Z " fill="#EB82B2" transform="translate(83.5,63.9375)"/>
<path d="M0 0 C0.66 0.66 1.32 1.32 2 2 C1.977 4.602 1.977 4.602 1.625 7.625 C1.57 8.126 1.57 8.126 1.289 10.664 C1.241 11.049 1.241 11.049 1 13 C0.01 13 -0.98 13 -2 13 C-2.66 14.32 -3.32 15.64 -4 17 C-4.99 16.67 -5.98 16.34 -7 16 C-6.196 15.361 -5.391 14.721 -4.562 14.062 C-1.558 10.471 -1.354 8.512 -1.141 3.988 C-1 2 -1 2 0 0 Z " fill="#6F1339" transform="translate(47,46)"/>
<path d="M0 0 C0.33 0.66 0.66 1.32 1 2 C-2.75 7.75 -2.75 7.75 -5 10 C-3.68 10.33 -2.36 10.66 -1 11 C-1 11.66 -1 12.32 -1 13 C-4.3 13 -7.6 13 -11 13 C-10.113 11.969 -9.226 10.938 -8.312 9.875 C-5.511 6.608 -2.747 3.313 0 0 Z " fill="#7B1C41" transform="translate(119,107)"/>
<path d="M0 0 C-0.33 0.66 -0.66 1.32 -1 2 C1.64 2 4.28 2 7 2 C7 2.33 7 2.66 7 3 C4.959 3.055 2.917 3.093 0.875 3.125 C0.307 3.137 0.307 3.137 -2.57 3.195 C-6.058 2.997 -8.755 2.252 -12 1 C-12 0.67 -12 0.34 -12 0 C-3.429 -1.286 -3.429 -1.286 0 0 Z " fill="#C4657E" transform="translate(87,124)"/>
<path d="M0 0 C0.33 0.66 0.66 1.32 1 2 C0.096 2.133 -0.807 2.266 -1.738 2.402 C-2.328 2.491 -2.328 2.491 -5.312 2.938 C-5.898 3.025 -5.898 3.025 -8.863 3.465 C-12 4 -12 4 -15 5 C-14 2 -14 2 -11.438 0.25 C-6.978 -1.371 -4.604 -1.014 0 0 Z " fill="#B93674" transform="translate(92,69)"/>
<path d="M0 0 C0.33 0.99 0.66 1.98 1 3 C-3.817 6.166 -8.498 9.201 -14 11 C-16.203 10.066 -16.203 10.066 -18 9 C-17.371 8.853 -16.742 8.706 -16.094 8.555 C-9.611 6.856 -5.064 4.371 0 0 Z " fill="#E1C8B2" transform="translate(126,113)"/>
<path d="M0 0 C0.66 0.66 1.32 1.32 2 2 C1.983 4.593 1.862 7.053 1.625 9.625 C1.568 10.331 1.512 11.038 1.453 11.766 C1.312 13.511 1.157 15.256 1 17 C0.01 17.33 -0.98 17.66 -2 18 C-2.369 5.33 -2.369 5.33 0 0 Z " fill="#984B6A" transform="translate(14,52)"/>
<path d="M0 0 C0.99 0.33 1.98 0.66 3 1 C2.651 1.237 2.651 1.237 0.883 2.434 C-7.476 8.507 -7.476 8.507 -8.625 14 C-8.791 15.329 -8.932 16.663 -9 18 C-9.33 18 -9.66 18 -10 18 C-10.565 14.443 -10.874 12.423 -10 9 C-7.025 5.524 -3.644 2.752 0 0 Z " fill="#AF356E" transform="translate(59,40)"/>
<path d="M0 0 C4 4.75 4 4.75 4 7 C2.721 6.711 1.442 6.422 0.125 6.125 C-0.594 5.963 -1.314 5.8 -2.055 5.633 C-4 5 -4 5 -6 3 C-6 2.34 -6 1.68 -6 1 C-5.01 1.165 -5.01 1.165 0 2 C0 1.34 0 0.68 0 0 Z " fill="#C64984" transform="translate(69,55)"/>
<path d="M0 0 C0.33 0.66 0.66 1.32 1 2 C-0.071 2.869 -1.157 3.72 -2.25 4.562 C-2.853 5.038 -3.457 5.514 -4.078 6.004 C-6 7 -6 7 -8.234 6.652 C-8.817 6.437 -9.4 6.222 -10 6 C-9.67 5.01 -9.34 4.02 -9 3 C-6.09 1.584 -3.153 0.701 0 0 Z " fill="#DC659E" transform="translate(63,43)"/>
<path d="M0 0 C2.64 0 5.28 0 8 0 C8.33 0.66 8.66 1.32 9 2 C9.99 2.66 10.98 3.32 12 4 C7.38 4 2.76 4 -2 4 C-1.01 3.34 -0.02 2.68 1 2 C0.67 1.34 0.34 0.68 0 0 Z " fill="#821A47" transform="translate(88,7)"/>
<path d="M0 0 C3.848 0.55 5.353 2.27 8 5 C10.25 6.25 10.25 6.25 12 7 C12 7.66 12 8.32 12 9 C5.633 8.633 5.633 8.633 2.625 5.625 C1 3 1 3 0 0 Z " fill="#E1CBAC" transform="translate(44,119)"/>
<path d="M0 0 C0.66 1.32 1.32 2.64 2 4 C-0.31 6.97 -2.62 9.94 -5 13 C-5.66 12.34 -6.32 11.68 -7 11 C-6.578 10.374 -6.157 9.747 -5.723 9.102 C-5.449 8.693 -5.449 8.693 -4.062 6.625 C-3.517 5.813 -2.972 5.001 -2.41 4.164 C-1 2 -1 2 0 0 Z " fill="#D4788D" transform="translate(112,100)"/>
<path d="M0 0 C-5.761 1.298 -11.087 2.257 -17 2 C-16.67 1.34 -16.34 0.68 -16 0 C-13.164 -0.703 -13.164 -0.703 -9.625 -1.25 C-8.462 -1.441 -7.3 -1.632 -6.102 -1.828 C-3 -2 -3 -2 0 0 Z " fill="#CF548E" transform="translate(96,72)"/>
<path d="M0 0 C0.33 0 0.66 0 1 0 C0.729 7.324 -1.962 11.973 -6 18 C-6.99 17.67 -7.98 17.34 -9 17 C-8.602 16.443 -8.203 15.886 -7.793 15.312 C-4.337 10.335 -1.885 5.759 0 0 Z " fill="#BE527D" transform="translate(139,62)"/>
<path d="M0 0 C0.33 0 0.66 0 1 0 C1 2.64 1 5.28 1 8 C-1.75 8.25 -1.75 8.25 -5 8 C-7.375 6 -7.375 6 -9 4 C-5.377 2.792 -4.359 3.457 -1 5 C-0.67 3.35 -0.34 1.7 0 0 Z " fill="#E073A3" transform="translate(45,48)"/>
<path d="M0 0 C4.947 5.936 4.947 5.936 6 9 C5.625 11.75 5.625 11.75 5 14 C4.732 13.443 4.464 12.886 4.188 12.312 C3 10 3 10 1.375 7.375 C0 5 0 5 0 3 C-0.66 3 -1.32 3 -2 3 C-1 1 -1 1 0 0 Z " fill="#70203E" transform="translate(137,36)"/>
<path d="M0 0 C0.33 0 0.66 0 1 0 C1.111 5.458 0.917 10.615 0 16 C-0.33 16 -0.66 16 -1 16 C-1.33 14.02 -1.66 12.04 -2 10 C-2.33 10.165 -2.33 10.165 -4 11 C-2.787 7.276 -1.491 3.622 0 0 Z " fill="#5C0427" transform="translate(41,70)"/>
<path d="M0 0 C0.99 0 1.98 0 3 0 C5.12 3.534 5.532 6.944 6 11 C5.34 11 4.68 11 4 11 C3.67 9.35 3.34 7.7 3 6 C2.34 7.32 1.68 8.64 1 10 C0.67 6.7 0.34 3.4 0 0 Z " fill="#C45A7D" transform="translate(98,102)"/>
<path d="M0 0 C2 1 2 1 3.125 3.5 C4.189 7.756 4.174 11.641 4 16 C3.67 16 3.34 16 3 16 C2.67 14.35 2.34 12.7 2 11 C1.67 11 1.34 11 1 11 C0.67 7.37 0.34 3.74 0 0 Z " fill="#A33663" transform="translate(120,45)"/>
<path d="M0 0 C1 3 1 3 0.062 5.188 C-0.113 5.487 -0.113 5.487 -1 7 C-1.99 5.68 -2.98 4.36 -4 3 C-2.68 2.01 -1.36 1.02 0 0 Z M-6 4 C-5.34 4.33 -4.68 4.66 -4 5 C-4.99 5.825 -4.99 5.825 -10 10 C-8.848 7.532 -7.952 5.952 -6 4 Z " fill="#C0457E" transform="translate(41,20)"/>
<path d="M0 0 C2 3 2 3 1.688 6 C1 9 1 9 0 12 C-0.66 12 -1.32 12 -2 12 C-2.054 10.375 -2.093 8.75 -2.125 7.125 C-2.148 6.22 -2.171 5.315 -2.195 4.383 C-2 2 -2 2 0 0 Z " fill="#EAA1AA" transform="translate(123,80)"/>
<path d="M0 0 C0.471 0.41 0.941 0.82 1.426 1.242 C2.048 1.781 2.671 2.32 3.312 2.875 C3.62 3.142 3.62 3.142 5.176 4.492 C7 6 7 6 10 8 C9.67 8.99 9.34 9.98 9 11 C1.315 5.906 1.315 5.906 0 2.125 C0 1.424 0 0.722 0 0 Z " fill="#4E031D" transform="translate(42,99)"/>
<path d="M0 0 C0.66 0.33 1.32 0.66 2 1 C2.293 7.055 2.293 7.055 2 9 C1.505 9.33 1.505 9.33 -1 11 C-2.238 7.285 -1.706 4.812 -1 1 C-0.67 0.67 -0.34 0.34 0 0 Z " fill="#A53264" transform="translate(141,52)"/>
<path d="M0 0 C1.32 0.33 2.64 0.66 4 1 C2.845 1.99 2.845 1.99 -3 7 C-3.33 5.68 -3.66 4.36 -4 3 C-2.25 1.438 -2.25 1.438 0 0 Z " fill="#510725" transform="translate(52,42)"/>
<path d="M0 0 C-0.33 0.99 -0.66 1.98 -1 3 C-1.66 3 -2.32 3 -3 3 C-3.33 3.66 -3.66 4.32 -4 5 C-4.99 4.34 -5.98 3.68 -7 3 C-9.043 2.586 -9.043 2.586 -11.188 2.375 C-12.446 2.251 -13.704 2.127 -15 2 C-15 1.67 -15 1.34 -15 1 C-13.063 0.832 -11.125 0.665 -9.188 0.5 C-8.648 0.454 -8.648 0.454 -5.918 0.219 C-3 0 -3 0 0 0 Z " fill="#D4BA9A" transform="translate(75,126)"/>
<path d="M0 0 C-1.437 0.648 -2.874 1.293 -4.312 1.938 C-5.113 2.297 -5.914 2.657 -6.738 3.027 C-9 4 -9 4 -12 5 C-12 4.01 -12 3.02 -12 2 C-7.932 -0.712 -4.693 -1.564 0 0 Z " fill="#65192F" transform="translate(116,120)"/>
<path d="M0 0 C0.33 0 0.66 0 1 0 C1 3.63 1 7.26 1 11 C0.67 11.165 0.67 11.165 -1 12 C-2.117 7.31 -1.806 4.462 0 0 Z " fill="#B03670" transform="translate(19,61)"/>
<path d="M0 0 C1.281 0.102 2.563 0.204 3.883 0.309 C4.87 0.392 5.858 0.476 6.875 0.562 C6.875 0.892 6.875 1.222 6.875 1.562 C4.772 1.784 2.668 1.99 0.562 2.188 C-0.609 2.304 -1.781 2.42 -2.988 2.539 C-6.125 2.562 -6.125 2.562 -9.125 0.562 C-6.072 -0.964 -3.367 -0.275 0 0 Z " fill="#742838" transform="translate(85.125,126.4375)"/>
<path d="M0 0 C-1.502 4.206 -4.286 5.739 -8 8 C-8.66 7.67 -9.32 7.34 -10 7 C-3.35 0 -3.35 0 0 0 Z " fill="#64152D" transform="translate(127,111)"/>
<path d="M0 0 C0 0.33 0 0.66 0 1 C-5.006 2.317 -9.865 3.358 -15 4 C-10.299 -0.701 -6.395 -1.407 0 0 Z " fill="#821A4A" transform="translate(78,110)"/>
<path d="M0 0 C0 0.66 0 1.32 0 2 C-0.784 2.247 -1.567 2.495 -2.375 2.75 C-5.323 4.154 -5.902 5.007 -7 8 C-7.66 8 -8.32 8 -9 8 C-8.669 4.938 -8.399 3.399 -6.188 1.188 C-4 0 -4 0 0 0 Z " fill="#570A25" transform="translate(70,25)"/>
<path d="M0 0 C2.938 0.812 2.938 0.812 6 2 C6.33 2.99 6.66 3.98 7 5 C6.01 5.99 5.02 6.98 4 8 C0 2.25 0 2.25 0 0 Z " fill="#741036" transform="translate(47,107)"/>
<path d="M0 0 C0.66 0.33 1.32 0.66 2 1 C0.546 2.172 -0.913 3.338 -2.375 4.5 C-3.187 5.15 -3.999 5.799 -4.836 6.469 C-7 8 -7 8 -9 8 C-8.004 5.509 -7.42 4.244 -5.062 2.875 C-4.382 2.586 -3.701 2.297 -3 2 C-2.01 1.34 -1.02 0.68 0 0 Z " fill="#B04B75" transform="translate(129,98)"/>
<path d="M0 0 C0.33 0 0.66 0 1 0 C0.67 3.3 0.34 6.6 0 10 C-0.66 9.67 -1.32 9.34 -2 9 C-2.625 5.938 -2.625 5.938 -3 3 C-2.01 2.67 -1.02 2.34 0 2 C0 1.34 0 0.68 0 0 Z " fill="#831747" transform="translate(127,39)"/>
<path d="M0 0 C3.312 0.75 3.312 0.75 6 2 C5.67 2.66 5.34 3.32 5 4 C1.7 4 -1.6 4 -5 4 C-2.875 1.875 -2.875 1.875 0 0 Z " fill="#A02660" transform="translate(57,12)"/>
<path d="M0 0 C1.966 2.949 2.739 4.52 3 8 C1.512 9.656 1.512 9.656 0 11 C-0.195 9.543 -0.381 8.084 -0.562 6.625 C-0.667 5.813 -0.771 5.001 -0.879 4.164 C-1 2 -1 2 0 0 Z " fill="#941C54" transform="translate(43,64)"/>
<path d="M0 0 C0.99 0 1.98 0 3 0 C3.688 2.812 3.688 2.812 4 6 C3.01 6.99 2.02 7.98 1 9 C0.67 6.03 0.34 3.06 0 0 Z " fill="#DA6A9C" transform="translate(35,35)"/>
<path d="M0 0 C1.32 0 2.64 0 4 0 C4 0.99 4 1.98 4 3 C3.34 3 2.68 3 2 3 C1.34 4.32 0.68 5.64 0 7 C-1 6 -1 6 -1.125 3.5 C-1 1 -1 1 0 0 Z " fill="#EF90BB" transform="translate(39,34)"/>
<path d="M0 0 C-0.33 0.99 -0.66 1.98 -1 3 C-1.33 2.34 -1.66 1.68 -2 1 C-2.615 1.168 -3.23 1.335 -3.863 1.508 C-4.267 1.61 -4.267 1.61 -6.312 2.125 C-6.713 2.229 -6.713 2.229 -8.738 2.758 C-11 3 -11 3 -14 1 C-12.231 0.637 -10.46 0.285 -8.688 -0.062 C-7.701 -0.26 -6.715 -0.457 -5.699 -0.66 C-3 -1 -3 -1 0 0 Z " fill="#D76B9B" transform="translate(49,32)"/>
<path d="M0 0 C-0.33 0.99 -0.66 1.98 -1 3 C-3.31 2.835 -3.31 2.835 -15 2 C-15 1.67 -15 1.34 -15 1 C-13.063 0.832 -11.125 0.665 -9.188 0.5 C-8.648 0.454 -8.648 0.454 -5.918 0.219 C-3 0 -3 0 0 0 Z " fill="#CEB097" transform="translate(98,128)"/>
<path d="M0 0 C0.33 0 0.66 0 1 0 C1.054 1.77 1.093 3.541 1.125 5.312 C1.148 6.299 1.171 7.285 1.195 8.301 C1 11 1 11 -1 14 C-1.66 14 -2.32 14 -3 14 C-2.845 13.588 -2.845 13.588 -2.062 11.5 C-0.881 7.609 -0.418 4.038 0 0 Z " fill="#9E2B5F" transform="translate(40,90)"/>
<path d="M0 0 C0.33 0 0.66 0 1 0 C0.385 6.523 0.385 6.523 -1.562 8.938 C-2.037 9.288 -2.511 9.639 -3 10 C-4.429 7.646 -5.087 6.52 -4.625 3.75 C-4.419 3.172 -4.213 2.595 -4 2 C-3.67 2.495 -3.67 2.495 -2 5 C-1.34 3.35 -0.68 1.7 0 0 Z " fill="#C35987" transform="translate(129,43)"/>
<path d="M0 0 C1.32 0.66 2.64 1.32 4 2 C3.188 3.938 3.188 3.938 2 6 C1.01 6.33 0.02 6.66 -1 7 C-1.043 5 -1.041 3 -1 1 C-0.67 0.67 -0.34 0.34 0 0 Z " fill="#CF538E" transform="translate(52,48)"/>
<path d="M0 0 C2.993 1.098 3.846 1.677 5.25 4.625 C5.498 5.409 5.745 6.192 6 7 C3.562 6.312 3.562 6.312 1 5 C0.188 2.375 0.188 2.375 0 0 Z " fill="#9B2057" transform="translate(108,23)"/>
<path d="M0 0 C0.66 1.32 1.32 2.64 2 4 C-0.31 4 -2.62 4 -5 4 C-5 3.01 -5 2.02 -5 1 C-3.35 0.67 -1.7 0.34 0 0 Z " fill="#932255" transform="translate(91,13)"/>
<path d="M0 0 C0.99 0.99 1.98 1.98 3 3 C3.66 2.67 4.32 2.34 5 2 C4.67 4.31 4.34 6.62 4 9 C3.34 9 2.68 9 2 9 C1.34 6.03 0.68 3.06 0 0 Z " fill="#99285A" transform="translate(114,83)"/>
<path d="M0 0 C0.66 0 1.32 0 2 0 C0.814 3.375 -0.276 5.647 -3 8 C-3.33 6.02 -3.66 4.04 -4 2 C-3.34 1.67 -2.68 1.34 -2 1 C-1.34 1.33 -0.68 1.66 0 2 C0 1.34 0 0.68 0 0 Z " fill="#CE708C" transform="translate(130,80)"/>
<path d="M0 0 C0.825 0.33 0.825 0.33 5 2 C5 4.628 4.802 7.082 4.5 9.688 C4.407 10.496 4.314 11.304 4.219 12.137 C4.147 12.752 4.074 13.366 4 14 C3.67 14 3.34 14 3 14 C2.951 13.241 2.902 12.481 2.852 11.699 C2.777 10.705 2.702 9.711 2.625 8.688 C2.555 7.701 2.486 6.715 2.414 5.699 C2 3 2 3 0 0 Z " fill="#B33773" transform="translate(105,48)"/>
<path d="M0 0 C0.66 0.33 1.32 0.66 2 1 C-0.64 2.98 -3.28 4.96 -6 7 C-6.33 6.34 -6.66 5.68 -7 5 C-5.625 3 -5.625 3 -4 1 C-3.34 1 -2.68 1 -2 1 C-1.34 0.67 -0.68 0.34 0 0 Z " fill="#C0467E" transform="translate(29,37)"/>
<path d="M0 0 C2.007 0.287 4.009 0.619 6 1 C6.33 1.99 6.66 2.98 7 4 C1.25 3.25 1.25 3.25 -1 1 C-0.67 0.67 -0.34 0.34 0 0 Z " fill="#BA3876" transform="translate(89,18)"/>
<path d="M0 0 C3 3.75 3 3.75 3 6 C1.35 5.67 -0.3 5.34 -2 5 C-2 4.01 -2 3.02 -2 2 C-1.34 2 -0.68 2 0 2 C0 1.34 0 0.68 0 0 Z " fill="#D77094" transform="translate(113,84)"/>
<path d="M0 0 C0.66 0 1.32 0 2 0 C1.387 2.962 0.746 4.381 -1 7 C-1.66 7 -2.32 7 -3 7 C-2.387 4.038 -1.746 2.619 0 0 Z " fill="#ECDAD2" transform="translate(134,104)"/>
<path d="M0 0 C0.66 0.66 1.32 1.32 2 2 C1.01 2.825 1.01 2.825 -4 7 C-3.688 4.625 -3.688 4.625 -3 2 C-2.01 1.34 -1.02 0.68 0 0 Z " fill="#902356" transform="translate(126,105)"/>
<path d="M0 0 C0.33 0 0.66 0 1 0 C1.33 2.97 1.66 5.94 2 9 C-1.679 5.321 -1.679 5.321 -2 2 C-1.34 1.34 -0.68 0.68 0 0 Z " fill="#962453" transform="translate(122,55)"/>
<path d="M0 0 C0.66 0 1.32 0 2 0 C1.67 0.578 1.34 1.155 1 1.75 C0 4 0 4 0 8 C-0.99 7.67 -1.98 7.34 -3 7 C-2.25 2.25 -2.25 2.25 0 0 Z " fill="#EE8DB6" transform="translate(37,43)"/>
<path d="M0 0 C0.66 0.33 1.32 0.66 2 1 C2 1.66 2 2.32 2 3 C0.35 4.354 -1.317 5.687 -3 7 C-3.33 7.66 -3.66 8.32 -4 9 C-4.66 8.67 -5.32 8.34 -6 8 C-4.02 5.36 -2.04 2.72 0 0 Z " fill="#D86399" transform="translate(46,35)"/>
<path d="M0 0 C5.75 0.75 5.75 0.75 8 3 C5.69 3 3.38 3 1 3 C0.67 2.01 0.34 1.02 0 0 Z " fill="#A22B60" transform="translate(51,120)"/>
<path d="M0 0 C0.66 0.99 1.32 1.98 2 3 C1.01 3.99 0.02 4.98 -1 6 C-1.99 5.67 -2.98 5.34 -4 5 C-2.68 3.35 -1.36 1.7 0 0 Z " fill="#D3828F" transform="translate(107,116)"/>
<path d="M0 0 C1.65 0 3.3 0 5 0 C5 1.32 5 2.64 5 4 C4.01 4.33 3.02 4.66 2 5 C2 3.68 2 2.36 2 1 C1.34 0.67 0.68 0.34 0 0 Z " fill="#AA2E69" transform="translate(56,87)"/>
<path d="M0 0 C2.64 0.99 5.28 1.98 8 3 C8 3.66 8 4.32 8 5 C4.625 4.453 2.918 3.945 0 2 C0 1.34 0 0.68 0 0 Z " fill="#AA2F69" transform="translate(27,79)"/>
<path d="M0 0 C-0.33 0.99 -0.66 1.98 -1 3 C-3.062 3.688 -3.062 3.688 -5 4 C-5 3.34 -5 2.68 -5 2 C-5.99 1.67 -6.98 1.34 -8 1 C-5.108 0.174 -3.113 0 0 0 Z " fill="#E789B2" transform="translate(53,27)"/>
<path d="M0 0 C0.99 0.165 0.99 0.165 6 1 C6.33 2.65 6.66 4.3 7 6 C4.5 4.625 4.5 4.625 2 3 C2 2.34 2 1.68 2 1 C1.34 0.67 0.68 0.34 0 0 Z " fill="#A1245B" transform="translate(100,13)"/>
</svg>
