<?xml version="1.0" encoding="UTF-8"?>
<!-- Generator: visioncortex VTracer 0.6.12 -->
<svg version="1.1" xmlns="http://www.w3.org/2000/svg" width="164" height="185">
<path d="M0 0 C54.12 0 108.24 0 164 0 C164 61.05 164 122.1 164 185 C109.88 185 55.76 185 0 185 C0 123.95 0 62.9 0 0 Z " fill="#FCF7EC" transform="translate(0,0)"/>
<path d="M0 0 C9.122 7.795 14.549 16.426 18.078 27.828 C18.408 28.818 18.738 29.808 19.078 30.828 C20.521 50.18 16.172 63.785 4.078 78.828 C3.316 79.783 2.554 80.739 1.77 81.723 C1.211 82.417 0.653 83.112 0.078 83.828 C0.511 84.446 0.944 85.063 1.391 85.699 C4.664 90.678 7.009 94.603 6.527 100.668 C5.016 107.935 1.13 112.7 -4.922 116.828 C-11.663 120.84 -17.985 122.658 -25.922 121.828 C-32.65 119.541 -36.402 114.514 -39.797 108.516 C-40.922 105.828 -40.922 105.828 -40.922 103.828 C-41.492 103.989 -42.063 104.15 -42.65 104.315 C-58.211 107.828 -75.611 104.18 -88.922 95.828 C-96.301 90.243 -101.986 84.232 -105.922 75.828 C-106.333 74.972 -106.744 74.116 -107.168 73.234 C-112.494 60.112 -111.388 44.523 -106.465 31.445 C-97.298 9.956 -81.101 -2.505 -60.152 -11.34 C-40.024 -18.091 -16.586 -12.328 0 0 Z " fill="#AE6E2C" transform="translate(115.921875,42.171875)"/>
<path d="M0 0 C3.979 -0.088 7.958 -0.141 11.938 -0.188 C13.054 -0.213 14.171 -0.238 15.322 -0.264 C22.167 -0.324 27.706 0.283 34 3 C35.185 3.498 36.369 3.995 37.59 4.508 C51.297 11.13 61.995 20.354 67.375 34.938 C67.932 36.62 68.476 38.307 69 40 C69.33 40.99 69.66 41.98 70 43 C71.443 62.352 67.094 75.957 55 91 C54.238 91.955 53.476 92.91 52.691 93.895 C52.133 94.589 51.575 95.284 51 96 C51.433 96.617 51.866 97.235 52.312 97.871 C55.586 102.85 57.931 106.775 57.449 112.84 C55.938 120.107 52.052 124.872 46 129 C39.259 133.012 32.937 134.83 25 134 C18.272 131.713 14.52 126.686 11.125 120.688 C10 118 10 118 10 116 C9.43 116.161 8.859 116.322 8.271 116.487 C-7.289 119.999 -24.69 116.352 -38 108 C-45.379 102.415 -51.064 96.404 -55 88 C-55.411 87.144 -55.822 86.288 -56.246 85.406 C-61.573 72.284 -60.466 56.695 -55.543 43.617 C-47.374 24.467 -32.939 10.858 -13.93 2.704 C-9.714 1.167 -5.452 0.849 -1 1 C-3.917 2.945 -5.987 3.662 -9.312 4.625 C-25.701 10.022 -40.432 20.808 -49 36 C-53.071 44.437 -55.335 52.611 -55 62 C-54.34 61.34 -53.68 60.68 -53 60 C-51.68 60 -50.36 60 -49 60 C-49.66 61.98 -50.32 63.96 -51 66 C-51.66 66 -52.32 66 -53 66 C-51.68 69.96 -50.36 73.92 -49 78 C-48.01 76.35 -47.02 74.7 -46 73 C-45 75 -45 75 -45.625 78.438 C-46 82 -46 82 -44.562 83.812 C-44.047 84.204 -43.531 84.596 -43 85 C-43 85.66 -43 86.32 -43 87 C-42.425 87.286 -41.85 87.572 -41.258 87.867 C-39.811 88.593 -38.368 89.327 -36.93 90.07 C-36.252 90.418 -35.574 90.766 -34.875 91.125 C-34.192 91.478 -33.509 91.831 -32.805 92.195 C-31 93 -31 93 -29 93 C-28.01 90.36 -27.02 87.72 -26 85 C-25 89 -25.193 91.055 -26 95 C-25.01 95.33 -24.02 95.66 -23 96 C-22.67 94.02 -22.34 92.04 -22 90 C-21.67 90 -21.34 90 -21 90 C-20.67 91.98 -20.34 93.96 -20 96 C-18.701 95.814 -17.401 95.629 -16.062 95.438 C-13.848 95.121 -13.848 95.121 -12 95 C-11.67 95.33 -11.34 95.66 -11 96 C-9.653 96.231 -8.296 96.412 -6.938 96.562 C-5.638 96.707 -4.339 96.851 -3 97 C-2.835 96.505 -2.835 96.505 -2 94 C-1.295 94.195 -0.59 94.389 0.137 94.59 C3.477 95.068 5.597 94.531 8.812 93.562 C9.788 93.275 10.764 92.988 11.77 92.691 C12.138 92.577 12.138 92.577 14 92 C13.835 90.845 13.835 90.845 13 85 C16 88.75 16 88.75 16 91 C17.274 90.573 18.544 90.133 19.812 89.688 C20.52 89.444 21.228 89.2 21.957 88.949 C24.165 87.923 25.333 86.745 27 85 C29 84 31 83 33 82 C38.133 78.664 40.932 74.173 44 69 C44.616 67.976 45.232 66.953 45.867 65.898 C50.991 56.651 52.381 48.436 53 38 C52.01 38 51.02 38 50 38 C50 37.34 50 36.68 50 36 C50.66 36 51.32 36 52 36 C49.512 24.864 43.585 15.401 34 9 C24.776 3.733 16.938 2.313 6.52 2.203 C3 2 3 2 0 0 Z " fill="#834B16" transform="translate(65,30)"/>
<path d="M0 0 C0.66 0.33 1.32 0.66 2 1 C1.697 1.59 1.394 2.18 1.082 2.788 C-0.285 5.46 -1.643 8.136 -3 10.812 C-3.477 11.741 -3.954 12.67 -4.445 13.627 C-4.896 14.52 -5.348 15.412 -5.812 16.332 C-6.231 17.154 -6.65 17.976 -7.082 18.823 C-8 21 -8 21 -8 24 C-7.835 23.835 -7.835 23.835 -7 23 C-3.654 22.746 -0.292 22.815 3.062 22.812 C3.993 22.8 4.923 22.788 5.881 22.775 C13.437 22.759 19.906 23.108 26 28 C21.801 28.716 17.602 29.428 13.402 30.136 C11.974 30.378 10.547 30.62 9.119 30.864 C7.064 31.214 5.009 31.561 2.953 31.906 C2.335 32.011 2.335 32.011 -0.792 32.541 C-4 33 -4 33 -8 33 C-7.432 33.666 -6.863 34.333 -6.277 35.02 C-0.945 41.384 3.799 47.821 8 55 C8.414 55.682 8.828 56.364 9.254 57.066 C10.171 59.442 9.843 60.641 9 63 C4.017 58.973 -0.953 54.952 -5.742 50.695 C-6.054 50.42 -6.054 50.42 -7.634 49.026 C-8.869 47.934 -10.096 46.833 -11.315 45.724 C-12.811 44.405 -14.4 43.192 -16 42 C-19 43 -19 43 -20.087 44.883 C-20.417 45.693 -20.746 46.504 -21.086 47.34 C-21.46 48.239 -21.834 49.138 -22.219 50.064 C-22.41 50.539 -22.41 50.539 -23.375 52.938 C-26.313 60.117 -29.432 67.109 -33 74 C-33.33 74 -33.66 74 -34 74 C-34.461 61.369 -34.768 50.536 -29 39 C-46.798 42.782 -46.798 42.782 -52.438 44.812 C-56 46 -56 46 -59 45 C-52.487 37.402 -45.436 32.342 -36 29 C-32.07 28.816 -32.07 28.816 -29 29 C-29.626 28.036 -30.253 27.072 -30.898 26.078 C-31.724 24.802 -32.55 23.526 -33.375 22.25 C-33.788 21.616 -34.2 20.982 -34.625 20.328 C-40 12.006 -40 12.006 -40 8 C-31.561 9.258 -25.178 15.48 -19 21 C-18.743 20.455 -18.487 19.909 -18.223 19.348 C-14.133 11.291 -8.193 4.124 0 0 Z " fill="#FBEECB" transform="translate(81,40)"/>
<path d="M0 0 C4 -0.059 8 -0.094 12 -0.125 C13.125 -0.142 14.251 -0.159 15.41 -0.176 C21.65 -0.212 27.032 0.142 33 2 C32.34 2.33 31.68 2.66 31 3 C31 3.66 31 4.32 31 5 C31.592 5.182 32.183 5.364 32.793 5.551 C41.305 8.259 41.305 8.259 45 11 C45 11.66 45 12.32 45 13 C44.67 13.33 44.34 13.66 44 14 C44.392 14.382 44.392 14.382 46.375 16.312 C51 21.048 51 21.048 51 25 C51.66 25 52.32 25 53 25 C55.472 30.788 56.494 35.415 56.375 41.688 C56.365 42.471 56.355 43.255 56.344 44.063 C55.939 59.452 50.899 72.055 40 83 C39.429 83.594 38.858 84.189 38.27 84.801 C32.414 90.431 25.375 93.805 18 97 C16.822 97.512 15.644 98.024 14.43 98.551 C-0.711 104.355 -16.857 103.47 -32 98 C-35.547 96.253 -38.784 94.292 -42 92 C-42.99 91.34 -43.98 90.68 -45 90 C-45.66 89.01 -46.32 88.02 -47 87 C-47.66 87 -48.32 87 -49 87 C-49.33 85.68 -49.66 84.36 -50 83 C-50.66 83 -51.32 83 -52 83 C-52 82.34 -52 81.68 -52 81 C-52.66 81 -53.32 81 -54 81 C-56.995 75.385 -56.674 69.003 -55.312 62.938 C-54 61 -54 61 -51.375 60.188 C-50.591 60.126 -49.808 60.064 -49 60 C-49.66 61.98 -50.32 63.96 -51 66 C-51.66 66 -52.32 66 -53 66 C-51.68 69.96 -50.36 73.92 -49 78 C-48.01 76.35 -47.02 74.7 -46 73 C-45 75 -45 75 -45.625 78.438 C-46 82 -46 82 -44.562 83.812 C-44.047 84.204 -43.531 84.596 -43 85 C-43 85.66 -43 86.32 -43 87 C-42.425 87.286 -41.85 87.572 -41.258 87.867 C-39.811 88.593 -38.368 89.327 -36.93 90.07 C-36.252 90.418 -35.574 90.766 -34.875 91.125 C-34.192 91.478 -33.509 91.831 -32.805 92.195 C-31 93 -31 93 -29 93 C-28.01 90.36 -27.02 87.72 -26 85 C-25 89 -25.193 91.055 -26 95 C-25.505 95.165 -25.505 95.165 -23 96 C-22.67 94.02 -22.34 92.04 -22 90 C-21.67 90 -21.34 90 -21 90 C-20.67 91.98 -20.34 93.96 -20 96 C-18.701 95.814 -17.401 95.629 -16.062 95.438 C-13.848 95.121 -13.848 95.121 -12 95 C-11.67 95.33 -11.34 95.66 -11 96 C-9.653 96.231 -8.296 96.412 -6.938 96.562 C-5.638 96.707 -4.339 96.851 -3 97 C-2.835 96.505 -2.835 96.505 -2 94 C-1.295 94.195 -0.59 94.389 0.137 94.59 C3.477 95.068 5.597 94.531 8.812 93.562 C9.788 93.275 10.764 92.988 11.77 92.691 C12.138 92.577 12.138 92.577 14 92 C13.835 90.845 13.835 90.845 13 85 C16 88.75 16 88.75 16 91 C17.274 90.573 18.544 90.133 19.812 89.688 C20.52 89.444 21.228 89.2 21.957 88.949 C24.165 87.923 25.333 86.745 27 85 C29 84 31 83 33 82 C38.133 78.664 40.932 74.173 44 69 C44.616 67.976 45.232 66.953 45.867 65.898 C50.991 56.651 52.381 48.436 53 38 C52.01 38 51.02 38 50 38 C50 37.34 50 36.68 50 36 C50.66 36 51.32 36 52 36 C49.512 24.864 43.585 15.401 34 9 C24.776 3.733 16.938 2.313 6.52 2.203 C3 2 3 2 0 0 Z " fill="#995B1F" transform="translate(65,30)"/>
<path d="M0 0 C0.165 0.33 0.165 0.33 1 2 C1.99 2.33 2.98 2.66 4 3 C4 2.34 4 1.68 4 1 C15.923 -1.385 15.923 -1.385 21 2 C19.065 5.462 16.855 8.371 14.273 11.375 C12.166 14.065 10.621 16.997 9 20 C8.515 19.567 8.515 19.567 6.062 17.375 C0.544 12.652 -5.163 8.543 -12 6 C-10.924 8.233 -9.84 10.461 -8.75 12.688 C-8.45 13.313 -8.149 13.939 -7.84 14.584 C-5.927 18.47 -3.748 21.626 -1 25 C-1 25.66 -1 26.32 -1 27 C-1.594 27.075 -2.189 27.15 -2.801 27.227 C-15.892 29.303 -25.018 36.769 -34 46 C-35 47 -36 48 -37 49 C-37 48.34 -37 47.68 -37 47 C-37.99 47 -38.98 47 -40 47 C-40 46.34 -40 45.68 -40 45 C-39.01 44.34 -38.02 43.68 -37 43 C-36.312 40.375 -36.312 40.375 -36 38 C-36.66 37.67 -37.32 37.34 -38 37 C-37.382 35.684 -36.756 34.372 -36.125 33.062 C-35.777 32.332 -35.429 31.601 -35.07 30.848 C-34 29 -34 29 -32 28 C-32 27.01 -32 26.02 -32 25 C-31.137 24.642 -31.137 24.642 -26.824 22.852 C-25 22 -25 22 -22 20 C-23.32 19.67 -24.64 19.34 -26 19 C-26 14.389 -23.01 12.271 -20 9 C-19.34 8.216 -18.68 7.432 -18 6.625 C-15.396 4.509 -13.294 4.517 -10 4 C-8.747 3.357 -7.517 2.667 -6.312 1.938 C-3 0 -3 0 0 0 Z " fill="#C18340" transform="translate(53,42)"/>
<path d="M0 0 C3.568 1.736 4.634 4.336 6 7.938 C6.876 14.069 7.173 17.553 3.562 22.75 C-1.598 28.741 -8.1 32.467 -15.953 33.594 C-21.513 33.758 -25.092 33.456 -29.688 30.125 C-31.453 28.258 -31.453 28.258 -32.938 26.25 C-33.188 25.921 -33.188 25.921 -34.453 24.258 C-35.831 21.878 -36.291 19.831 -36.688 17.125 C-35.756 16.845 -34.824 16.566 -33.863 16.277 C-23.667 13.112 -13.2 9.465 -5.188 2.125 C-2.688 0.125 -2.688 0.125 0 0 Z " fill="#E3BE7C" transform="translate(113.6875,127.875)"/>
<path d="M0 0 C11.938 1.536 21.463 9.444 29.039 18.414 C33.354 24.199 35.876 30.135 38 37 C38.33 37.99 38.66 38.98 39 40 C40.31 57.573 37.14 71.214 26.402 85.305 C24.272 87.695 22.959 88.92 20 90 C20.25 88.125 20.25 88.125 21 86 C21.66 85.691 22.32 85.381 23 85.062 C23.66 84.712 24.32 84.361 25 84 C25.143 83.252 25.286 82.505 25.434 81.734 C26.082 78.606 27.237 76.79 29.062 74.188 C29.61 73.397 30.158 72.607 30.723 71.793 C31.144 71.201 31.566 70.61 32 70 C31.835 69.67 31.835 69.67 31 68 C30.67 68.165 30.67 68.165 29 69 C29.165 68.505 29.165 68.505 30 66 C30.578 58.722 30.578 58.722 28 55.5 C27.34 55.005 26.68 54.51 26 54 C25.01 54.66 24.02 55.32 23 56 C23.161 54.871 23.322 53.742 23.488 52.578 C24.063 47.96 24.184 43.4 24.188 38.75 C24.2 37.961 24.212 37.172 24.225 36.359 C24.235 32.291 24.08 29.584 22 26 C22 24.68 22 23.36 22 22 C21.34 22 20.68 22 20 22 C16.125 15.375 16.125 15.375 15 12 C12.938 11.312 12.938 11.312 11 11 C11.33 10.34 11.66 9.68 12 9 C12.66 9.33 13.32 9.66 14 10 C14 9.34 14 8.68 14 8 C13.361 7.752 12.721 7.505 12.062 7.25 C8 5.592 4.003 3.796 0 2 C0 1.34 0 0.68 0 0 Z " fill="#844E1A" transform="translate(96,33)"/>
<path d="M0 0 C0.33 0 0.66 0 1 0 C1 19.47 1 38.94 1 59 C-53.12 59 -107.24 59 -163 59 C-163 58.01 -163 57.02 -163 56 C-162.188 56.003 -161.377 56.006 -160.541 56.008 C-140.812 56.075 -121.083 56.124 -101.354 56.155 C-91.813 56.171 -82.272 56.192 -72.731 56.226 C-64.417 56.256 -56.103 56.276 -47.789 56.282 C-43.386 56.286 -38.982 56.295 -34.578 56.317 C-30.436 56.338 -26.293 56.344 -22.151 56.339 C-20.628 56.34 -19.106 56.346 -17.583 56.358 C-15.508 56.372 -13.434 56.369 -11.359 56.361 C-10.197 56.364 -9.034 56.366 -7.837 56.369 C-5 56 -5 56 -3.13 54.668 C-1.303 51.971 -1.556 49.413 -1.488 46.199 C-1.47 45.526 -1.452 44.854 -1.434 44.16 C-1.38 42.003 -1.346 39.845 -1.312 37.688 C-1.279 36.278 -1.245 34.868 -1.209 33.459 C-1.022 25.605 -0.976 17.759 -1.038 9.903 C-0.993 6.501 -0.636 3.337 0 0 Z " fill="#FDFDFC" transform="translate(163,126)"/>
<path d="M0 0 C-0.205 0.675 -0.41 1.351 -0.621 2.047 C-0.891 2.939 -1.16 3.831 -1.438 4.75 C-1.704 5.632 -1.971 6.513 -2.246 7.422 C-3.301 11.028 -4.117 14.348 -4.316 18.109 C-4.358 18.863 -4.4 19.618 -4.443 20.395 C-4.483 21.172 -4.522 21.949 -4.562 22.75 C-4.606 23.543 -4.649 24.336 -4.693 25.152 C-4.799 27.101 -4.9 29.051 -5 31 C-5.33 31 -5.66 31 -6 31 C-6.33 28.69 -6.66 26.38 -7 24 C-9.31 23.67 -11.62 23.34 -14 23 C-14.553 20.924 -15 19.156 -15 17 C-15.454 17.66 -15.907 18.32 -16.375 19 C-16.911 19.66 -17.447 20.32 -18 21 C-18.66 21 -19.32 21 -20 21 C-20.33 19.68 -20.66 18.36 -21 17 C-21.619 16.959 -22.238 16.918 -22.875 16.875 C-25 16 -25 16 -26.25 13.188 C-27 10 -27 10 -27 6 C-24.46 5.182 -21.918 4.371 -19.375 3.562 C-18.662 3.332 -17.949 3.102 -17.215 2.865 C-11.467 1.046 -6.076 -0.179 0 0 Z " fill="#C58643" transform="translate(52,79)"/>
<path d="M0 0 C3.029 5.211 3.029 5.211 2.906 8.52 C1.667 11.912 0.148 12.445 -3.062 14 C-7.281 16.126 -11.284 18.355 -15.246 20.922 C-21.739 24.913 -21.739 24.913 -26 24 C-28.355 21.918 -30.337 19.669 -32 17 C-32 16.01 -32 15.02 -32 14 C-30.515 13.835 -30.515 13.835 -23 13 C-23 12.01 -23 11.02 -23 10 C-21.35 10 -19.7 10 -18 10 C-18 9.34 -18 8.68 -18 8 C-16.948 7.732 -15.896 7.464 -14.812 7.188 C-11.412 6.128 -8.982 4.875 -6 3 C-5.34 3 -4.68 3 -4 3 C-4 2.34 -4 1.68 -4 1 C-2 0 -2 0 0 0 Z " fill="#F4D7A0" transform="translate(112,136)"/>
<path d="M0 0 C5.359 2.267 9.6 5.685 12 11 C13.295 12.371 14.622 13.713 16 15 C15.097 16.012 14.177 17.009 13.25 18 C12.74 18.557 12.229 19.114 11.703 19.688 C10 21 10 21 6 21 C5.67 21.66 5.34 22.32 5 23 C1.845 23.956 -0.883 23.953 -4.125 23.75 C-5.404 23.832 -6.682 23.915 -8 24 C-9.875 26.25 -9.875 26.25 -11 29 C-11.392 29.763 -11.784 30.526 -12.188 31.312 C-12.456 31.869 -12.724 32.426 -13 33 C-14.021 30.345 -14.055 29.166 -13.151 26.422 C-12.704 25.469 -12.257 24.517 -11.797 23.535 C-11.311 22.488 -10.825 21.44 -10.324 20.361 C-9.805 19.273 -9.285 18.184 -8.75 17.062 C-8.246 15.978 -7.742 14.893 -7.223 13.775 C-5.004 9.039 -2.752 4.453 0 0 Z " fill="#C58541" transform="translate(63,81)"/>
<path d="M0 0 C-0.66 2.64 -1.32 5.28 -2 8 C-4.31 8 -6.62 8 -9 8 C-8.299 8.887 -7.597 9.774 -6.875 10.688 C-5 14 -5 14 -5.438 16.688 C-7.278 19.411 -9.168 20.402 -12 22 C-12.592 21.12 -13.183 20.239 -13.793 19.332 C-14.591 18.159 -15.389 16.985 -16.188 15.812 C-16.381 15.523 -16.381 15.523 -17.361 14.061 C-19.356 11.142 -21.281 8.719 -23.801 6.199 C-24.527 5.473 -25.252 4.748 -26 4 C-26 3.34 -26 2.68 -26 2 C-8.509 -2.127 -8.509 -2.127 0 0 Z " fill="#BD7D3A" transform="translate(99,71)"/>
<path d="M0 0 C5.155 0.483 8.816 3.186 13 6 C12.67 6.66 12.34 7.32 12 8 C11.381 7.67 10.763 7.34 10.125 7 C8 6 8 6 6 6 C6.358 6.433 6.717 6.867 7.086 7.313 C8.71 9.287 10.324 11.268 11.938 13.25 C12.501 13.932 13.065 14.614 13.646 15.316 C13.916 15.648 13.916 15.648 15.277 17.328 C15.775 17.936 16.272 18.543 16.785 19.169 C18.077 21.116 18.575 22.716 19 25 C18.273 25.098 17.546 25.196 16.797 25.297 C5.882 26.92 -3.925 29.571 -13 36 C-13.99 36.66 -14.98 37.32 -16 38 C-16.99 37.67 -17.98 37.34 -19 37 C-12.487 29.402 -5.436 24.342 4 21 C7.93 20.816 7.93 20.816 11 21 C10.374 20.036 9.747 19.072 9.102 18.078 C8.276 16.802 7.45 15.526 6.625 14.25 C6.212 13.616 5.8 12.982 5.375 12.328 C0 4.006 0 4.006 0 0 Z " fill="#F6D8A3" transform="translate(41,48)"/>
<path d="M0 0 C8 9.429 8 9.429 8 14 C5.272 15.293 2.542 16.585 -0.188 17.875 C-0.956 18.24 -1.725 18.605 -2.518 18.98 C-13.15 24 -13.15 24 -17 24 C-16.546 22.582 -16.086 21.166 -15.625 19.75 C-15.497 19.356 -15.497 19.356 -14.852 17.359 C-12.674 11.326 -12.674 11.326 -10.062 10.062 C-7.275 8.627 -6.589 6.67 -5 4 C-2.312 1.688 -2.312 1.688 0 0 Z " fill="#CE914C" transform="translate(40,53)"/>
<path d="M0 0 C-0.92 0.268 -1.841 0.536 -2.789 0.812 C-21.417 6.475 -38.181 16.589 -48 34 C-52.596 43.525 -54.325 52.378 -54.188 62.875 C-54.187 63.34 -54.187 63.34 -54.186 65.691 C-54.147 71.845 -53.722 77.89 -53 84 C-55.605 82.697 -55.67 81.751 -56.594 79.035 C-58.131 74.12 -58.54 69.566 -58.5 64.438 C-58.494 63.571 -58.489 62.705 -58.483 61.812 C-57.959 42.591 -48.499 26.896 -34.766 13.883 C-29.847 9.641 -24.57 6.503 -18.812 3.562 C-18.147 3.22 -17.482 2.878 -16.797 2.525 C-11.451 -0.083 -5.884 -2.118 0 0 Z " fill="#6D4521" transform="translate(64,32)"/>
<path d="M0 0 C0.701 0.268 1.403 0.536 2.125 0.812 C2.29 1.308 2.29 1.308 3.125 3.812 C1.721 6.62 0.017 6.78 -2.875 7.812 C-3.865 8.143 -4.855 8.472 -5.875 8.812 C-5.875 9.472 -5.875 10.132 -5.875 10.812 C-9.43 13.79 -12.74 15.711 -17.375 16.125 C-18.2 16.022 -19.025 15.919 -19.875 15.812 C-19.875 16.472 -19.875 17.132 -19.875 17.812 C-21.525 17.812 -23.175 17.812 -24.875 17.812 C-24.545 19.132 -24.215 20.452 -23.875 21.812 C-27.175 21.812 -30.475 21.812 -33.875 21.812 C-34.205 22.472 -34.535 23.132 -34.875 23.812 C-36.336 21.165 -36.875 19.918 -36.875 16.812 C-35.943 16.533 -35.011 16.253 -34.051 15.965 C-23.854 12.8 -13.388 9.152 -5.375 1.812 C-2.875 -0.188 -2.875 -0.188 0 0 Z " fill="#D8B06C" transform="translate(113.875,128.1875)"/>
<path d="M0 0 C0.722 0.474 1.444 0.949 2.188 1.438 C5 3 5 3 7.562 3.438 C10.826 4.191 12.035 5.308 14 8 C14.125 11.062 14.125 11.062 14 14 C14.66 14.99 15.32 15.98 16 17 C16 17.99 16 18.98 16 20 C16.99 19.67 17.98 19.34 19 19 C19.165 19.495 19.165 19.495 20 22 C19.01 22.33 18.02 22.66 17 23 C15.313 24.562 15.313 24.562 14 26 C14 25.01 14 24.02 14 23 C13.607 23.22 13.607 23.22 11.621 24.336 C7.192 26.372 2.79 27.493 -1.938 28.625 C-2.806 28.842 -3.674 29.058 -4.568 29.281 C-9.367 30.456 -14.096 31.4 -19 32 C-9.891 24.159 2.117 20.515 14 21 C10.195 15.033 6.078 9.497 1.539 4.066 C0 2 0 2 0 0 Z " fill="#FBEFCD" transform="translate(46,52)"/>
<path d="M0 0 C0 0.99 0 1.98 0 3 C0.99 3.66 1.98 4.32 3 5 C3.701 7.663 3.777 10.24 4 13 C3.361 13.433 2.721 13.866 2.062 14.312 C0 16 0 16 -1 19 C0.98 19.66 2.96 20.32 5 21 C4.34 21.99 3.68 22.98 3 24 C-0.125 24.188 -0.125 24.188 -3 24 C-3.33 23.34 -3.66 22.68 -4 22 C-4.33 22.825 -4.33 22.825 -6 27 C-8 26 -8 26 -8.852 24.039 C-9.107 23.242 -9.362 22.446 -9.625 21.625 C-9.885 20.834 -10.146 20.042 -10.414 19.227 C-11 17 -11 17 -11 14 C-10.34 13.67 -9.68 13.34 -9 13 C-8.041 11.313 -7.084 9.624 -6.152 7.922 C-4.399 4.998 -2.247 2.559 0 0 Z " fill="#B3712F" transform="translate(23,82)"/>
<path d="M0 0 C2.672 0.265 3.73 0.682 5.484 2.75 C8.58 8.253 10.191 12.684 9 19 C6.539 26.903 1.018 31.552 -6.125 35.312 C-12.56 38.284 -19.33 39.248 -26.125 36.938 C-31.614 33.239 -35.605 28.198 -38 22 C-37.67 21.01 -37.34 20.02 -37 19 C-35.865 20.703 -34.743 22.415 -33.668 24.156 C-33.424 24.543 -33.424 24.543 -32.188 26.5 C-31.947 26.887 -31.947 26.887 -30.73 28.844 C-28.075 32.152 -25.48 33.723 -21.309 34.504 C-12.213 34.69 -4.733 32.308 2.086 26.102 C4.777 22.905 6.342 20.153 6.562 15.938 C5.951 11.658 4.921 8.841 3 5 C2.835 4.67 2.835 4.67 2 3 C1.01 2.34 0.02 1.68 -1 1 C-0.67 0.67 -0.34 0.34 0 0 Z " fill="#AE7F3A" transform="translate(113,126)"/>
<path d="M0 0 C0.66 0.33 1.32 0.66 2 1 C0.586 5.115 -1.509 8.519 -3.879 12.133 C-5 14 -5 14 -6 17 C-6.33 17.227 -6.33 17.227 -8 18.375 C-10 20 -10 20 -10.438 22.562 C-10.623 23.367 -10.809 24.171 -11 25 C-12.658 25.688 -14.327 26.351 -16 27 C-17.601 28.135 -19.165 29.324 -20.688 30.562 C-25.165 34.182 -27.158 35.127 -33 35 C-33 34.34 -33 33.68 -33 33 C-31.378 31.87 -29.7 30.822 -28 29.812 C-17.781 23.441 -9.751 15.815 -4.457 4.785 C-3 2 -3 2 0 0 Z " fill="#8D551C" transform="translate(127,100)"/>
<path d="M0 0 C4.272 0.818 6.088 2.781 9 6 C11 9 11 9 10.625 11.188 C10.522 11.487 10.522 11.487 10 13 C7.69 13.33 5.38 13.66 3 14 C5.97 14.33 8.94 14.66 12 15 C12 15.33 12 15.66 12 16 C11.398 16.03 11.398 16.03 8.352 16.184 C6.776 16.268 5.201 16.353 3.625 16.438 C2.831 16.477 2.037 16.516 1.219 16.557 C-4.773 16.887 -4.773 16.887 -7 18 C-6.444 13.311 -5.118 9.801 -2.938 5.625 C-2.39 4.565 -1.842 3.506 -1.277 2.414 C-0.856 1.617 -0.434 0.821 0 0 Z " fill="#C78C47" transform="translate(79,47)"/>
<path d="M0 0 C0.364 0.736 0.727 1.472 1.102 2.23 C4.594 9.009 7.421 14.474 15 17 C24.281 17.64 32.75 14.942 40 9 C41.924 6.754 43.421 4.517 45 2 C45.33 2.495 45.33 2.495 47 5 C44.298 8.521 41.89 11.219 38.188 13.688 C37.136 14.451 36.084 15.214 35 16 C35 16.99 35 17.98 35 19 C35 19.33 35 19.66 35 20 C17.857 22.286 17.857 22.286 11 20 C11 19.01 11 18.02 11 17 C10.242 16.773 9.484 16.546 8.703 16.312 C5.384 14.701 4.516 13.198 2.75 10 C2.5 9.557 2.5 9.557 1.234 7.312 C0.472 5.884 -0.276 4.448 -1 3 C-7.27 2.67 -13.54 2.34 -20 2 C-20 1.67 -20 1.34 -20 1 C-17.417 0.832 -14.833 0.665 -12.25 0.5 C-11.52 0.452 -10.791 0.405 -10.039 0.355 C-6.682 0.142 -3.366 0 0 0 Z " fill="#E8D7B2" transform="translate(75,146)"/>
<path d="M0 0 C4 -0.059 8 -0.094 12 -0.125 C13.125 -0.142 14.251 -0.159 15.41 -0.176 C21.65 -0.212 27.032 0.142 33 2 C32.34 2.33 31.68 2.66 31 3 C31 3.66 31 4.32 31 5 C31.592 5.182 32.183 5.364 32.793 5.551 C41.305 8.259 41.305 8.259 45 11 C45 11.66 45 12.32 45 13 C44.67 13.33 44.34 13.66 44 14 C44.784 14.763 45.567 15.526 46.375 16.312 C51 21.048 51 21.048 51 25 C51.66 25.33 52.32 25.66 53 26 C52.01 26.33 51.02 26.66 50 27 C49.515 26.287 49.031 25.574 48.531 24.84 C40.989 14.063 33.185 6.331 20 3 C15.515 2.363 11.043 2.251 6.52 2.203 C3 2 3 2 0 0 Z " fill="#94581C" transform="translate(65,30)"/>
<path d="M0 0 C0.66 0.33 1.32 0.66 2 1 C0.68 3.64 -0.64 6.28 -2 9 C-2.99 9 -3.98 9 -5 9 C-6.628 11.33 -8.045 13.597 -9.438 16.062 C-9.82 16.719 -10.202 17.376 -10.596 18.053 C-11.742 20.029 -12.873 22.013 -14 24 C-14.761 25.332 -15.523 26.664 -16.285 27.996 C-16.851 28.987 -17.417 29.979 -18 31 C-20.062 28.812 -20.062 28.812 -22 26 C-21.75 23.188 -21.75 23.188 -21 21 C-20.34 21 -19.68 21 -19 21 C-18.743 20.455 -18.487 19.909 -18.223 19.348 C-14.133 11.291 -8.193 4.124 0 0 Z " fill="#F5D8A3" transform="translate(81,40)"/>
<path d="M0 0 C0 3.098 -0.447 4.273 -1.75 7 C-5.536 15.311 -8.307 23.184 -9.508 32.273 C-10.011 35.061 -10.862 37.414 -12 40 C-12.33 40 -12.66 40 -13 40 C-13.461 27.369 -13.768 16.536 -8 5 C-8.99 4.67 -9.98 4.34 -11 4 C-10.374 3.795 -9.747 3.59 -9.102 3.379 C-8.284 3.109 -7.467 2.84 -6.625 2.562 C-5.813 2.296 -5.001 2.029 -4.164 1.754 C-2 1 -2 1 0 0 Z " fill="#F5D8A6" transform="translate(60,74)"/>
<path d="M0 0 C0.99 0 1.98 0 3 0 C4.535 -0.023 6.07 -0.046 7.605 -0.07 C9.466 -0.089 11.327 -0.107 13.188 -0.125 C14.109 -0.142 15.03 -0.159 15.979 -0.176 C21.682 -0.216 26.559 0.238 32 2 C32.66 2.66 33.32 3.32 34 4 C33.342 4.024 33.342 4.024 30.012 4.148 C20.839 4.526 11.996 5.061 3 7 C0.67 7.37 -1.661 7.688 -4 8 C-2.875 5.028 -1.777 2.666 0 0 Z " fill="#F6D9A4" transform="translate(71,63)"/>
<path d="M0 0 C0.165 0.33 0.165 0.33 1 2 C-16.78 17.73 -37.387 24.585 -61.019 23.246 C-63.567 22.93 -65.713 22.153 -68 21 C-68 20.67 -68 20.34 -68 20 C-67.205 19.991 -66.411 19.981 -65.592 19.972 C-42.567 19.632 -23.452 18.677 -4.875 3.516 C-3 2 -3 2 0 0 Z " fill="#653B12" transform="translate(114,124)"/>
<path d="M0 0 C0.289 0.639 0.578 1.279 0.875 1.938 C2 4 2 4 4 5 C2.751 5.794 1.501 6.585 0.25 7.375 C-0.446 7.816 -1.142 8.257 -1.859 8.711 C-5.707 11.028 -8.403 12.589 -13 12 C-14.812 10.625 -14.812 10.625 -16 9 C-16 7 -16 7 -14.25 4.875 C-12 3 -12 3 -8 3 C-8 2.34 -8 1.68 -8 1 C-5.072 0.024 -3.044 -0.082 0 0 Z " fill="#FDEFCE" transform="translate(99,148)"/>
<path d="M0 0 C0 0.99 0 1.98 0 3 C-1.393 3.652 -2.789 4.297 -4.188 4.938 C-4.576 5.117 -4.576 5.117 -6.543 6.027 C-10.991 7.788 -15.28 8.142 -20.035 8.281 C-21.174 8.319 -22.313 8.356 -23.486 8.395 C-25.874 8.465 -28.262 8.535 -30.65 8.605 C-31.788 8.643 -32.926 8.68 -34.098 8.719 C-35.134 8.749 -36.171 8.779 -37.239 8.811 C-40 9 -40 9 -42.181 9.643 C-44 10 -44 10 -47 8 C-46.34 7.67 -45.68 7.34 -45 7 C-46.32 6.34 -47.64 5.68 -49 5 C-46.563 4.156 -45.06 3.989 -42.496 4.449 C-27.772 6.769 -13.881 5.155 0 0 Z " fill="#965C20" transform="translate(89,136)"/>
<path d="M0 0 C1.32 0 2.64 0 4 0 C3.34 1.98 2.68 3.96 2 6 C1.34 6 0.68 6 0 6 C1.32 9.96 2.64 13.92 4 18 C4.99 16.35 5.98 14.7 7 13 C8.45 15.901 7.454 17.56 6.562 20.625 C6.275 21.628 5.988 22.631 5.691 23.664 C5.463 24.435 5.235 25.206 5 26 C4.34 25.67 3.68 25.34 3 25 C3 24.34 3 23.68 3 23 C2.34 23 1.68 23 1 23 C1 22.34 1 21.68 1 21 C0.34 21 -0.32 21 -1 21 C-3.569 16.182 -3.445 11.316 -3 6 C-1.676 1.676 -1.676 1.676 0 0 Z " fill="#A26223" transform="translate(12,90)"/>
<path d="M0 0 C3.562 0.688 3.562 0.688 5.562 2.688 C4.572 2.523 4.572 2.523 -0.438 1.688 C-0.108 3.008 0.222 4.328 0.562 5.688 C0.008 6.158 -0.546 6.629 -1.117 7.113 C-1.842 7.736 -2.566 8.359 -3.312 9 C-3.672 9.307 -3.672 9.307 -5.492 10.863 C-7.438 12.688 -7.438 12.688 -9.438 15.688 C-12.062 15.875 -12.062 15.875 -14.438 15.688 C-14.108 14.697 -13.777 13.707 -13.438 12.688 C-13.438 11.697 -13.438 10.707 -13.438 9.688 C-10.017 5.103 -6.09 0.089 0 0 Z " fill="#C0813D" transform="translate(41.4375,46.3125)"/>
<path d="M0 0 C0.33 0 0.66 0 1 0 C1.816 10.606 -1.975 19.115 -8 27.625 C-8.427 28.229 -8.854 28.833 -9.294 29.456 C-11.544 32.486 -13.39 34.713 -17 36 C-16.75 34.125 -16.75 34.125 -16 32 C-15.67 31.845 -15.67 31.845 -14 31.062 C-13.34 30.712 -12.68 30.361 -12 30 C-11.862 29.255 -11.724 28.51 -11.582 27.742 C-10.895 24.505 -9.614 22.74 -7.688 20.062 C-3.459 13.694 -1.734 7.378 0 0 Z " fill="#623918" transform="translate(133,87)"/>
<path d="M0 0 C1.688 0.125 1.688 0.125 4 1 C5.671 2.997 7.338 4.997 9 7 C9.99 7 10.98 7 12 7 C12.66 6.34 13.32 5.68 14 5 C14.702 6.242 15.386 7.494 16.062 8.75 C16.445 9.446 16.828 10.142 17.223 10.859 C18.131 13.361 17.883 14.533 17 17 C10.939 12.068 4.905 7.118 -1 2 C-0.67 1.34 -0.34 0.68 0 0 Z " fill="#F8E8C2" transform="translate(73,86)"/>
<path d="M0 0 C0.66 0 1.32 0 2 0 C1.382 4.772 -0.577 8.505 -2.812 12.688 C-3.156 13.364 -3.5 14.04 -3.854 14.736 C-7.052 20.767 -7.052 20.767 -11 22 C-10.553 16.214 -8.126 12.377 -5.062 7.625 C-4.607 6.889 -4.151 6.153 -3.682 5.395 C-1.15 1.399 -1.15 1.399 0 0 Z " fill="#FCF6DD" transform="translate(76,48)"/>
<path d="M0 0 C11.847 1.524 21.133 9.363 28.844 18.086 C29.225 18.718 29.607 19.349 30 20 C29.67 20.99 29.34 21.98 29 23 C28.501 22.371 28.002 21.742 27.488 21.094 C19.829 11.963 10.962 6.515 0 2 C0 1.34 0 0.68 0 0 Z " fill="#683C18" transform="translate(96,33)"/>
<path d="M0 0 C0.66 0.289 1.32 0.577 2 0.875 C2.33 1.865 2.66 2.855 3 3.875 C1.589 6.697 -0.079 6.813 -3 7.875 C-3.928 8.246 -4.856 8.618 -5.812 9 C-6.534 9.289 -7.256 9.577 -8 9.875 C-8.33 8.885 -8.66 7.895 -9 6.875 C-9.66 6.545 -10.32 6.215 -11 5.875 C-3.945 -0.164 -3.945 -0.164 0 0 Z " fill="#D6AE6C" transform="translate(114,128.125)"/>
<path d="M0 0 C6.152 0.586 6.152 0.586 8 1 C9.607 4.215 9.057 7.436 9 11 C3.99 9.569 1.894 7.17 -1 3 C-0.67 2.01 -0.34 1.02 0 0 Z " fill="#CD8F4D" transform="translate(77,72)"/>
<path d="M0 0 C3.077 5.292 3.077 5.292 2.688 8.875 C2.461 9.576 2.234 10.278 2 11 C0.68 11.33 -0.64 11.66 -2 12 C-4.503 9.062 -5.469 6.821 -6 3 C-5.34 3 -4.68 3 -4 3 C-4 2.34 -4 1.68 -4 1 C-2 0 -2 0 0 0 Z " fill="#EBCC92" transform="translate(112,136)"/>
<path d="M0 0 C2.8 0.503 3.699 1.241 5.438 3.438 C5.108 4.097 4.778 4.757 4.438 5.438 C3.448 4.778 2.457 4.118 1.438 3.438 C2.757 4.757 4.078 6.077 5.438 7.438 C2.323 9.283 0.054 9.901 -3.562 9.438 C-5.375 8.062 -5.375 8.062 -6.562 6.438 C-6.562 4.438 -6.562 4.438 -4.875 2.312 C-2.562 0.438 -2.562 0.438 0 0 Z " fill="#FAE6BE" transform="translate(89.5625,150.5625)"/>
<path d="M0 0 C6.109 4.346 9.943 9.761 14 16 C13.34 16.66 12.68 17.32 12 18 C5.294 11.778 5.294 11.778 3.938 8.188 C3 6 3 6 -0.125 4.688 C-1.074 4.461 -2.022 4.234 -3 4 C-3 3.01 -3 2.02 -3 1 C-2.01 0.67 -1.02 0.34 0 0 Z " fill="#F7DFB2" transform="translate(72,74)"/>
<path d="M0 0 C1.135 1.703 2.257 3.415 3.332 5.156 C8.457 13.269 8.457 13.269 13 15 C15.68 15.496 18.276 15.769 21 16 C21.33 16.99 21.66 17.98 22 19 C16.403 19.289 12.797 19.233 8 16 C4.089 12.214 0.975 8.113 -1 3 C-0.67 2.01 -0.34 1.02 0 0 Z " fill="#B38A47" transform="translate(76,145)"/>
<path d="M0 0 C0.66 0 1.32 0 2 0 C3.203 2.405 3.101 3.95 3.062 6.625 C3.053 7.442 3.044 8.26 3.035 9.102 C3.024 9.728 3.012 10.355 3 11 C2.34 11.33 2.34 11.33 -1 13 C-2.32 9.7 -3.64 6.4 -5 3 C-3.35 2.67 -1.7 2.34 0 2 C0 1.34 0 0.68 0 0 Z " fill="#E5C385" transform="translate(116,132)"/>
<path d="M0 0 C-0.25 2.375 -0.25 2.375 -1 5 C-3.898 7.099 -5.284 7 -9 7 C-9.33 7.66 -9.66 8.32 -10 9 C-11.461 6.353 -12 5.106 -12 2 C-10.378 1.47 -8.752 0.951 -7.125 0.438 C-6.22 0.147 -5.315 -0.143 -4.383 -0.441 C-2 -1 -2 -1 0 0 Z " fill="#D6AF6C" transform="translate(89,143)"/>
<path d="M0 0 C0.536 0.113 0.536 0.113 3.25 0.688 C9.257 1.76 15.095 1.804 21.188 1.75 C21.673 1.748 21.673 1.748 24.127 1.736 C26.501 1.725 28.876 1.708 31.25 1.688 C27.961 3.646 25.475 3.944 21.672 3.953 C20.593 3.956 19.514 3.958 18.402 3.961 C17.841 3.957 17.841 3.957 15 3.938 C13.893 3.945 12.785 3.953 11.645 3.961 C5.493 3.946 0.137 3.497 -5.75 1.688 C-2.75 -0.312 -2.75 -0.312 0 0 Z " fill="#F8EEDB" transform="translate(78.75,164.3125)"/>
<path d="M0 0 C4.062 -0.058 8.125 -0.094 12.188 -0.125 C13.338 -0.142 14.488 -0.159 15.674 -0.176 C16.786 -0.182 17.897 -0.189 19.043 -0.195 C20.064 -0.206 21.085 -0.216 22.137 -0.227 C25.126 0.01 27.294 0.744 30 2 C30 2.66 30 3.32 30 4 C29.615 3.922 29.615 3.922 27.668 3.527 C21.95 2.705 16.205 2.643 10.436 2.482 C9.98 2.465 9.98 2.465 7.676 2.379 C6.85 2.354 6.024 2.329 5.173 2.303 C3 2 3 2 0 0 Z " fill="#774618" transform="translate(65,30)"/>
<path d="M0 0 C-0.512 0.163 -0.512 0.163 -3.105 0.988 C-4.466 1.429 -5.827 1.871 -7.188 2.312 C-7.861 2.526 -8.535 2.739 -9.229 2.959 C-12.4 3.996 -14.921 4.948 -17.738 6.793 C-18.485 7.191 -19.231 7.59 -20 8 C-22.312 7.188 -22.312 7.188 -24 6 C-21.985 5.009 -19.963 4.033 -17.938 3.062 C-16.812 2.517 -15.687 1.972 -14.527 1.41 C-9.695 -0.522 -5.048 -1.817 0 0 Z " fill="#7A4B1E" transform="translate(64,32)"/>
<path d="M0 0 C1.376 1.29 2.708 2.627 4 4 C4 4.66 4 5.32 4 6 C-0.385 9 -0.385 9 -3 9 C-5 6 -5 6 -5 2 C-3.35 1.34 -1.7 0.68 0 0 Z " fill="#F7DFAE" transform="translate(106,143)"/>
<path d="M0 0 C0 3.338 -0.554 4.261 -2.312 7 C-2.742 7.681 -3.171 8.361 -3.613 9.062 C-4.94 10.916 -6.341 12.443 -8 14 C-12 10 -16 6 -20 2 C-15.02 3.509 -11.757 6.557 -8 10 C-7.506 9.362 -7.013 8.724 -6.504 8.066 C-5.863 7.24 -5.223 6.414 -4.562 5.562 C-3.924 4.739 -3.286 3.915 -2.629 3.066 C-1 1 -1 1 0 0 Z " fill="#B47A39" transform="translate(69,48)"/>
<path d="M0 0 C3.794 0.541 5.153 1.988 7.5 4.938 C9.801 7.819 11.577 9.566 15 11 C14.34 12.32 13.68 13.64 13 15 C8.677 11.66 5.987 8.635 3 4 C2.01 3.34 1.02 2.68 0 2 C0 1.34 0 0.68 0 0 Z " fill="#FDF4D7" transform="translate(71,80)"/>
<path d="M0 0 C7.75 0.875 7.75 0.875 10 2 C10 1.34 10 0.68 10 0 C10.99 0.33 11.98 0.66 13 1 C12.34 1 11.68 1 11 1 C11 1.66 11 2.32 11 3 C13.97 3.99 16.94 4.98 20 6 C20 6.66 20 7.32 20 8 C15.786 8.511 13.461 7.285 9.914 5.09 C6.761 3.295 3.418 2.199 0 1 C0 0.67 0 0.34 0 0 Z " fill="#985F24" transform="translate(85,32)"/>
<path d="M0 0 C1.688 2 1.688 2 3 4 C1.761 4.869 0.508 5.72 -0.75 6.562 C-1.098 6.8 -1.098 6.8 -2.859 8.004 C-5 9 -5 9 -7.266 8.652 C-7.838 8.437 -8.41 8.222 -9 8 C-8.01 7.67 -7.02 7.34 -6 7 C-6.33 5.35 -6.66 3.7 -7 2 C-4.353 0.539 -3.106 0 0 0 Z " fill="#E2BC7A" transform="translate(105,135)"/>
<path d="M0 0 C-2.445 2.965 -4.446 3.556 -8.188 4.188 C-9.089 4.346 -9.99 4.505 -10.918 4.668 C-11.262 4.723 -11.262 4.723 -13 5 C-13.33 4.01 -13.66 3.02 -14 2 C-9.127 0.409 -5.192 -0.212 0 0 Z " fill="#FDF5DB" transform="translate(59,74)"/>
<path d="M0 0 C7.26 0 14.52 0 22 0 C15.784 3.108 9.011 3.753 2.25 2.062 C1.507 1.712 0.765 1.361 0 1 C0 0.67 0 0.34 0 0 Z " fill="#F9E8BF" transform="translate(85,67)"/>
<path d="M0 0 C-0.339 3.047 -0.831 4.775 -2.688 7.25 C-5.466 9.353 -7.568 9.688 -11 10 C-10.064 8.894 -9.126 7.791 -8.188 6.688 C-7.665 6.073 -7.143 5.458 -6.605 4.824 C-2.36 0 -2.36 0 0 0 Z " fill="#F4D095" transform="translate(33,76)"/>
<path d="M0 0 C3.516 1.953 6.438 3.869 9 7 C9 8.32 9 9.64 9 11 C5.554 9.851 4.908 8.924 2.812 6.062 C2.283 5.352 1.753 4.642 1.207 3.91 C0 2 0 2 0 0 Z " fill="#FDF2D4" transform="translate(46,52)"/>
<path d="M0 0 C2.923 2.631 4.828 5.741 7 9 C8.622 11.043 10.302 13.019 12 15 C11.67 15.66 11.34 16.32 11 17 C9.724 15.609 8.454 14.212 7.188 12.812 C6.48 12.035 5.772 11.258 5.043 10.457 C0 4.392 0 4.392 0 0 Z " fill="#613918" transform="translate(11,117)"/>
<path d="M0 0 C2 2 2 2 2.135 4.338 C2.083 5.291 2.031 6.245 1.977 7.227 C1.925 8.258 1.873 9.289 1.82 10.352 C1.756 11.432 1.691 12.512 1.625 13.625 C1.568 14.713 1.512 15.801 1.453 16.922 C1.311 19.615 1.16 22.308 1 25 C0.67 25 0.34 25 0 25 C-0.197 21.396 -0.381 17.792 -0.562 14.188 C-0.619 13.163 -0.675 12.139 -0.732 11.084 C-0.781 10.101 -0.829 9.118 -0.879 8.105 C-0.926 7.199 -0.973 6.294 -1.022 5.36 C-1 3 -1 3 0 0 Z " fill="#815020" transform="translate(8,79)"/>
<path d="M0 0 C3.3 0.33 6.6 0.66 10 1 C10.33 1.99 10.66 2.98 11 4 C10.34 4.66 9.68 5.32 9 6 C5.375 5.625 5.375 5.625 2 5 C2.66 4.34 3.32 3.68 4 3 C2.68 2.34 1.36 1.68 0 1 C0 0.67 0 0.34 0 0 Z " fill="#8D5C2A" transform="translate(40,140)"/>
<path d="M0 0 C2.844 1.275 5.138 2.451 7 5 C6.688 7.188 6.688 7.188 6 9 C3.352 6.422 1.056 4.084 -1 1 C-0.67 0.67 -0.34 0.34 0 0 Z " fill="#FBE6BA" transform="translate(53,55)"/>
<path d="M0 0 C-1.818 2.315 -2.756 2.954 -5.699 3.512 C-6.685 3.57 -7.671 3.628 -8.688 3.688 C-9.681 3.753 -10.675 3.819 -11.699 3.887 C-12.458 3.924 -13.218 3.961 -14 4 C-13.67 3.34 -13.34 2.68 -13 2 C-8.555 0.666 -4.668 -0.292 0 0 Z " fill="#F5E9D1" transform="translate(124,162)"/>
<path d="M0 0 C3.459 1.249 6.147 2.675 9 5 C7.188 6.062 7.188 6.062 5 7 C4.01 6.67 3.02 6.34 2 6 C2 5.01 2 4.02 2 3 C1.34 3 0.68 3 0 3 C0 2.01 0 1.02 0 0 Z " fill="#C78441" transform="translate(19,99)"/>
<path d="M0 0 C1.75 0.125 1.75 0.125 4 1 C6.25 4.062 6.25 4.062 8 7 C3.61 7 2.231 4.872 -1 2 C-0.67 1.34 -0.34 0.68 0 0 Z " fill="#F9E7BC" transform="translate(73,86)"/>
<path d="M0 0 C0.33 0.66 0.66 1.32 1 2 C3.31 2 5.62 2 8 2 C8 2.33 8 2.66 8 3 C0.961 3.939 -5.903 4.108 -13 4 C-13 3.67 -13 3.34 -13 3 C-12.656 2.976 -12.656 2.976 -10.918 2.852 C-10.467 2.814 -10.467 2.814 -8.188 2.625 C-7.294 2.555 -6.401 2.486 -5.48 2.414 C-3 2 -3 2 0 0 Z " fill="#EDDFC2" transform="translate(102,163)"/>
<path d="M0 0 C2.248 2.052 3.002 3.007 4 6 C4.069 7.895 4.085 9.792 4.062 11.688 C4.053 12.681 4.044 13.675 4.035 14.699 C4.024 15.458 4.012 16.218 4 17 C3.67 17 3.34 17 3 17 C2.496 14.73 1.997 12.459 1.5 10.188 C1.361 9.555 1.361 9.555 0.656 6.355 C0 3 0 3 0 0 Z " fill="#5F330F" transform="translate(130,64)"/>
<path d="M0 0 C2.333 0.339 4.666 0.673 7 1 C7 1.33 7 1.66 7 2 C5.084 2.054 3.167 2.093 1.25 2.125 C0.716 2.137 0.716 2.137 -1.984 2.195 C-4.925 2.005 -6.524 1.527 -9 0 C-5.429 -1.19 -3.67 -0.706 0 0 Z " fill="#F5E9D2" transform="translate(82,165)"/>
<path d="M0 0 C0.99 0.33 1.98 0.66 3 1 C2.34 1.66 1.68 2.32 1 3 C1.99 3.66 2.98 4.32 4 5 C2.35 5 0.7 5 -1 5 C-0.67 6.32 -0.34 7.64 0 9 C-1.32 8.34 -2.64 7.68 -4 7 C-3.34 7 -2.68 7 -2 7 C-2.227 6.402 -2.454 5.804 -2.688 5.188 C-2.791 4.466 -2.894 3.744 -3 3 C-1.562 1.25 -1.562 1.25 0 0 Z " fill="#E0BD7D" transform="translate(90,141)"/>
<path d="M0 0 C4.035 1.59 8.018 3.282 12 5 C11.34 5.33 11.34 5.33 8 7 C6.664 6.025 5.331 5.045 4 4.062 C3.258 3.517 2.515 2.972 1.75 2.41 C1.172 1.945 0.595 1.479 0 1 C0 0.67 0 0.34 0 0 Z " fill="#653C1B" transform="translate(24,134)"/>
<path d="M0 0 C1.562 1.75 1.562 1.75 3 4 C2.688 6.25 2.688 6.25 2 8 C0.68 6.68 -0.64 5.36 -2 4 C-1.34 2.68 -0.68 1.36 0 0 Z " fill="#F1D29D" transform="translate(88,95)"/>
<path d="M0 0 C0.66 0.99 1.32 1.98 2 3 C0.35 4.98 -1.3 6.96 -3 9 C-3.33 8.01 -3.66 7.02 -4 6 C-2.062 2.812 -2.062 2.812 0 0 Z " fill="#F0E1C0" transform="translate(120,148)"/>
<path d="M0 0 C0.33 0 0.66 0 1 0 C1.195 6.055 1.195 6.055 1 8 C0.34 8.66 -0.32 9.32 -1 10 C-2.32 9.34 -3.64 8.68 -5 8 C-4.68 7.804 -4.68 7.804 -3.062 6.812 C-0.562 4.615 -0.35 3.242 0 0 Z " fill="#D1A965" transform="translate(119,138)"/>
<path d="M0 0 C0.66 0.66 1.32 1.32 2 2 C1.546 2.743 1.093 3.485 0.625 4.25 C-0.686 6.469 -1.883 8.68 -3 11 C-3.75 9.438 -3.75 9.438 -4 7 C-2.869 4.497 -1.479 2.33 0 0 Z " fill="#BA7A38" transform="translate(53,103)"/>
<path d="M0 0 C5.75 0.75 5.75 0.75 8 3 C5.03 3 2.06 3 -1 3 C-0.67 2.01 -0.34 1.02 0 0 Z " fill="#EECB93" transform="translate(97,64)"/>
<path d="M0 0 C0 0.66 0 1.32 0 2 C-0.639 2.124 -1.279 2.248 -1.938 2.375 C-2.618 2.581 -3.299 2.787 -4 3 C-4.33 3.66 -4.66 4.32 -5 5 C-5.33 3.35 -5.66 1.7 -6 0 C-2.25 -1.125 -2.25 -1.125 0 0 Z " fill="#EAC786" transform="translate(86,150)"/>
<path d="M0 0 C0.66 0.33 1.32 0.66 2 1 C-0.625 4.875 -0.625 4.875 -4 6 C-4.66 5.34 -5.32 4.68 -6 4 C-4.02 2.68 -2.04 1.36 0 0 Z " fill="#EECA8E" transform="translate(81,40)"/>
<path d="M0 0 C0.825 0.33 0.825 0.33 5 2 C4.67 2.99 4.34 3.98 4 5 C3.01 5 2.02 5 1 5 C0.67 3.35 0.34 1.7 0 0 Z " fill="#744214" transform="translate(103,120)"/>
<path d="M0 0 C0.66 0.33 1.32 0.66 2 1 C0.906 1.867 -0.201 2.718 -1.312 3.562 C-1.927 4.038 -2.542 4.514 -3.176 5.004 C-3.778 5.333 -4.38 5.661 -5 6 C-5.99 5.67 -6.98 5.34 -8 5 C-6.715 4.136 -5.422 3.284 -4.125 2.438 C-3.765 2.2 -3.765 2.2 -1.945 0.996 C-1.303 0.667 -0.661 0.339 0 0 Z " fill="#93561C" transform="translate(99,45)"/>
<path d="M0 0 C-5.75 4 -5.75 4 -8 4 C-8 3.34 -8 2.68 -8 2 C-3.61 -1.203 -3.61 -1.203 0 0 Z " fill="#6C3C14" transform="translate(42,40)"/>
</svg>
