<?xml version="1.0" encoding="UTF-8"?>
<!-- Generator: visioncortex VTracer 0.6.12 -->
<svg version="1.1" xmlns="http://www.w3.org/2000/svg" width="164" height="185">
<path d="M0 0 C54.12 0 108.24 0 164 0 C164 61.05 164 122.1 164 185 C109.88 185 55.76 185 0 185 C0 123.95 0 62.9 0 0 Z " fill="#2E7B09" transform="translate(0,0)"/>
<path d="M0 0 C54.12 0 108.24 0 164 0 C164 61.05 164 122.1 164 185 C109.88 185 55.76 185 0 185 C0 123.95 0 62.9 0 0 Z M52 30 C48.746 35.029 47.558 39.815 46.57 45.672 C45.768 48.946 43.94 51.284 42 54 C42 55.32 42 56.64 42 58 C41.336 57.518 40.672 57.036 39.988 56.539 C39.105 55.907 38.222 55.276 37.312 54.625 C36.442 53.999 35.572 53.372 34.676 52.727 C28.978 49.05 23.707 47.858 17 49 C12.148 51.252 9.74 54.939 7.832 59.816 C5.438 66.734 5.447 73.371 5.562 80.625 C5.555 81.883 5.548 83.141 5.541 84.438 C5.598 92.764 5.907 100.069 11.191 106.785 C11.974 107.537 12.756 108.288 13.562 109.062 C17.809 113.487 18.855 116.082 20 122 C22.26 126.997 25.001 130.841 29.965 133.328 C33.186 134.391 36.392 134.641 39.766 134.824 C42 135 42 135 45 136 C44.964 136.904 44.929 137.807 44.892 138.738 C44.763 142.079 44.639 145.421 44.518 148.762 C44.464 150.211 44.409 151.659 44.352 153.107 C44.27 155.185 44.195 157.262 44.121 159.34 C44.074 160.591 44.027 161.843 43.978 163.133 C44 166 44 166 45 167 C47 167.041 49 167.043 51 167 C51.33 168.32 51.66 169.64 52 171 C53.114 170.959 54.227 170.917 55.375 170.875 C59 171 59 171 61 173 C64.974 173.53 66.542 173.319 69.875 171 C70.226 170.67 70.226 170.67 72 169 C72.66 170.32 73.32 171.64 74 173 C77.467 173.296 79.427 173.358 82.422 171.488 C89.989 164.417 96.262 156.607 102 148 C104.758 147.629 104.758 147.629 108.125 147.562 C115.856 147.111 120.913 145.52 126.25 139.812 C128.365 137.181 129.576 134.715 130.75 131.562 C132.785 126.512 136.165 124.337 140.457 121.18 C147.103 115.483 151.489 106.729 153.438 98.293 C153.898 96.415 154.454 94.56 155.035 92.715 C156.047 88.821 156.368 85.393 156.438 81.375 C156.477 80.104 156.517 78.833 156.559 77.523 C156 74 156 74 153.859 71.062 C150.497 68.637 148.903 68.432 144.812 68.625 C144.29 68.642 144.29 68.642 141.645 68.727 C139 69 139 69 137 70 C137.322 68.753 137.645 67.507 137.977 66.223 C139.216 60.615 139.368 55.163 139.375 49.438 C139.399 48.448 139.424 47.459 139.449 46.439 C139.478 39.28 138.235 34.053 133.729 28.408 C130.992 25.688 128.56 24.661 124.812 24.5 C114.629 25.167 107.604 28.295 100 35 C98.989 35.804 97.979 36.609 96.938 37.438 C96.618 37.695 96.618 37.695 95 39 C94.897 38.598 94.897 38.598 94.375 36.562 C91.048 27.943 85.766 21.97 78 17 C66.039 13.013 58.768 20.908 52 30 Z " fill="#FBF6EB" transform="translate(0,0)"/>
<path d="M0 0 C3.282 1.386 4.622 2.331 6.375 5.438 C7.554 10.273 5.473 13.821 3 18 C1.097 19.859 -0.87 21.39 -3 23 C-3.165 22.505 -3.165 22.505 -4 20 C-4.33 22.64 -4.66 25.28 -5 28 C-7.906 29.257 -9.796 30 -13 30 C-13.33 29.67 -13.66 29.34 -14 29 C-13.804 29.443 -13.804 29.443 -12.812 31.688 C-12 35 -12 35 -13.25 37.875 C-13.828 38.576 -14.405 39.278 -15 40 C-15.66 40 -16.32 40 -17 40 C-17.33 41.65 -17.66 43.3 -18 45 C-18.99 45 -19.98 45 -21 45 C-20.835 45.99 -20.835 45.99 -20 51 C-18.68 50.01 -17.36 49.02 -16 48 C-14.68 49.98 -14.68 49.98 -8 60 C-7.505 55.38 -7.505 55.38 -5 32 C-4.67 32 -4.34 32 -4 32 C-4.03 33.153 -4.061 34.306 -4.092 35.494 C-4.206 39.857 -4.317 44.22 -4.427 48.583 C-4.475 50.456 -4.523 52.328 -4.573 54.2 C-4.886 66.137 -5.071 78.059 -5 90 C-4.67 89.505 -4.67 89.505 -3 87 C-2.34 87 -1.68 87 -1 87 C-1.289 87.639 -1.578 88.279 -1.875 88.938 C-3.325 92.884 -4.158 96.887 -5 101 C-4.67 100.34 -4.34 99.68 -4 99 C-2.68 99 -1.36 99 0 99 C-1.203 101.506 -2.496 103.775 -4 106.125 C-7.178 111.615 -8 117.736 -8 124 C-7.914 123.325 -7.827 122.649 -7.738 121.953 C-6.576 114.576 -6.576 114.576 -3.375 111.375 C-2.591 110.921 -1.808 110.468 -1 110 C-1 111.98 -1 113.96 -1 116 C-0.34 116 0.32 116 1 116 C1 117.32 1 118.64 1 120 C4.283 113.383 6.283 107.372 6.875 100 C7.613 91.481 10.868 84.453 16.711 78.156 C18.617 74.968 18.32 71.844 18.188 68.25 C18.174 67.553 18.16 66.855 18.146 66.137 C18.111 64.424 18.057 62.712 18 61 C17.546 61.495 17.093 61.99 16.625 62.5 C15 64 15 64 13 64 C13 64.66 13 65.32 13 66 C10.188 67.562 10.188 67.562 7 69 C6.505 68.835 6.505 68.835 4 68 C4.165 67.505 4.165 67.505 5 65 C5.66 65 6.32 65 7 65 C7 64.34 7 63.68 7 63 C5.02 63.33 3.04 63.66 1 64 C0.439 57.545 2.365 52.846 5 47 C5.66 47 6.32 47 7 47 C8.5 44.144 9.618 41.29 10.688 38.25 C12.851 32.785 15.99 29.205 20 25 C21.148 23.606 22.294 22.21 23.438 20.812 C27.724 15.941 32.447 12.165 39 11.188 C39.99 11.126 40.98 11.064 42 11 C42 10.34 42 9.68 42 9 C45.3 9 48.6 9 52 9 C52.515 14.404 51.118 16.669 48 21 C46.59 23.63 45.285 26.307 44 29 C43.34 29 42.68 29 42 29 C40.375 31 40.375 31 39 33 C38.835 32.34 38.835 32.34 38 29 C37.835 29.495 37.835 29.495 37 32 C35.35 32 33.7 32 32 32 C32 29.69 32 27.38 32 25 C31.01 27.64 30.02 30.28 29 33 C28.34 33 27.68 33 27 33 C27.33 36.96 27.33 36.96 29 57 C32.375 50.062 32.375 50.062 33.427 47.875 C35.778 43.111 35.778 43.111 38 42 C36.007 48.393 33.585 54.47 30.812 60.562 C30.444 61.38 30.076 62.198 29.697 63.041 C28.802 65.029 27.902 67.015 27 69 C27.739 68.783 28.477 68.567 29.238 68.344 C36.326 66.399 42.663 65.61 50 66 C51.253 70.733 50.591 72.767 48.309 76.938 C45.407 81.511 42.263 86.132 37 88 C34.749 88.014 32.497 87.943 30.25 87.812 C24.6 87.73 20.916 88.151 16.355 91.555 C14.465 93.57 14 95.263 14 98 C14.392 97.67 14.392 97.67 16.375 96 C19 94 19 94 21 94 C19.313 98.498 17.183 102.729 15 107 C15.578 106.484 16.155 105.969 16.75 105.438 C19 104 19 104 21.141 104.41 C21.754 104.605 22.368 104.799 23 105 C22.325 105.329 21.649 105.657 20.953 105.996 C14.046 109.679 11.476 112.691 9 120 C8.422 121.114 7.845 122.228 7.25 123.375 C6 126 6 126 6 129 C7.65 127.35 9.3 125.7 11 124 C11 125.98 11 127.96 11 130 C13.31 126.04 15.62 122.08 18 118 C18.66 119.32 19.32 120.64 20 122 C20.33 122.495 20.33 122.495 22 125 C22.235 124.675 22.235 124.675 23.426 123.031 C24.048 122.196 24.671 121.361 25.312 120.5 C25.927 119.665 26.542 118.829 27.176 117.969 C27.477 117.644 27.477 117.644 29 116 C29.99 116 30.98 116 32 116 C30.212 119.667 28.183 123.165 26.121 126.684 C25 129 25 129 24.629 131.391 C23.763 134.983 21.754 137.472 19.5 140.312 C19.054 140.88 18.607 141.447 18.147 142.032 C10.146 151.98 10.146 151.98 5 155 C1.734 155.199 1.734 155.199 -1 155 C-1.66 153.68 -2.32 152.36 -3 151 C-3.351 151.33 -3.351 151.33 -5.125 153 C-8.496 155.345 -9.981 155.513 -14 155 C-15.341 154.35 -16.675 153.684 -18 153 C-20.75 152.875 -20.75 152.875 -23 153 C-23.33 151.68 -23.66 150.36 -24 149 C-24.485 149.01 -24.485 149.01 -26.938 149.062 C-30 149 -30 149 -31 148 C-31.017 146.071 -30.963 144.142 -30.879 142.215 C-30.831 141.045 -30.782 139.875 -30.732 138.67 C-30.676 137.438 -30.62 136.207 -30.562 134.938 C-30.51 133.702 -30.458 132.466 -30.404 131.193 C-30.274 128.129 -30.139 125.064 -30 122 C-29.67 122 -29.34 122 -29 122 C-28.546 115.537 -29.406 112.391 -33 107 C-32.34 107 -31.68 107 -31 107 C-31.479 105.396 -31.958 103.792 -32.438 102.188 C-32.704 101.294 -32.971 100.401 -33.246 99.48 C-33.804 97.645 -34.393 95.82 -35 94 C-35.369 92.441 -35.722 90.878 -36.062 89.312 C-36.239 88.504 -36.416 87.696 -36.598 86.863 C-36.664 86.556 -36.664 86.556 -37 85 C-37.732 85.382 -38.464 85.763 -39.219 86.156 C-42 87 -42 87 -44.281 86.094 C-48.898 82.777 -52.712 79.666 -56 75 C-56 74.34 -56 73.68 -56 73 C-57.65 72.67 -59.3 72.34 -61 72 C-61 72.66 -61 73.32 -61 74 C-60.701 74.043 -60.701 74.043 -59.188 74.262 C-56.387 75.207 -55.651 76.394 -54 78.812 C-51.867 81.828 -49.727 84.483 -47 87 C-49.5 87.875 -49.5 87.875 -53 88 C-56.099 86.445 -58.557 84.447 -61 82 C-61.521 81.498 -62.042 80.996 -62.579 80.479 C-67.325 75.23 -67.66 70.764 -67.416 63.832 C-67.341 62.609 -67.265 61.385 -67.188 60.125 C-67.155 58.909 -67.122 57.694 -67.088 56.441 C-66.693 48.023 -65.17 40.733 -59.467 34.26 C-56.951 32.099 -54.413 32.468 -51.23 32.598 C-49 33 -49 33 -45.938 34.938 C-43.313 39.086 -43.337 42.218 -44 47 C-45 50.562 -45 50.562 -46 53 C-48.341 50.872 -49.707 48.884 -51 46 C-49.829 50.002 -48.25 53.278 -46.125 56.848 C-44.186 60.558 -42.868 64.515 -41.41 68.434 C-39.972 72.071 -38.336 75.546 -36.625 79.062 C-32.273 88.072 -29.155 97.519 -26 107 C-25.67 107.99 -25.34 108.98 -25 110 C-24.932 111.728 -24.915 113.458 -24.938 115.188 C-24.947 116.089 -24.956 116.99 -24.965 117.918 C-24.976 118.605 -24.988 119.292 -25 120 C-24.34 120 -23.68 120 -23 120 C-22.67 117.36 -22.34 114.72 -22 112 C-21.34 112 -20.68 112 -20 112 C-19.67 112.66 -19.34 113.32 -19 114 C-18.01 114.33 -17.02 114.66 -16 115 C-15.67 115.66 -15.34 116.32 -15 117 C-13.621 103.768 -13.621 103.768 -16.828 99.656 C-19.152 97.963 -21.537 96.482 -24 95 C-29.381 90.104 -31.576 84.233 -32.5 77.188 C-32.155 68.833 -26.845 61.46 -22 55 C-21.67 54.01 -21.34 53.02 -21 52 C-22.32 52 -23.64 52 -25 52 C-25 53.98 -25 55.96 -25 58 C-28 58 -28 58 -30.688 55.625 C-33.439 52.082 -33.653 49 -33.434 44.605 C-32.581 39.485 -30.693 34.693 -27 31 C-26.577 29.408 -26.21 27.8 -25.875 26.188 C-23.229 16.032 -17.52 7.135 -9 1 C-5.936 -0.532 -3.383 -0.229 0 0 Z " fill="#509C18" transform="translate(75,18)"/>
<path d="M0 0 C0.33 0 0.66 0 1 0 C1 1.98 1 3.96 1 6 C1.66 5.67 2.32 5.34 3 5 C4.931 4.8 6.872 4.687 8.812 4.625 C9.85 4.576 10.888 4.527 11.957 4.477 C16.135 5.195 17.515 6.606 20 10 C20.594 13.453 20.594 13.453 20.5 17.25 C20.484 17.915 20.467 18.579 20.451 19.264 C20.26 23.852 19.493 27.794 17.777 32.031 C16.998 34.006 16.588 35.857 16.188 37.938 C14.033 46.932 7.547 55.687 -0.062 60.75 C-4.28 63.742 -5.258 66.75 -6.879 71.527 C-9.139 76.513 -13.514 79.772 -18.34 82.156 C-22.516 83.481 -26.688 83.457 -31.039 83.656 C-34 84 -34 84 -37 86 C-36.348 82.782 -35.185 80.283 -33.562 77.438 C-33.131 76.673 -32.699 75.909 -32.254 75.121 C-31.225 73.38 -30.122 71.683 -29 70 C-33.942 72.4 -36.043 75.523 -39 80 C-40.506 78.036 -41.891 76.217 -43 74 C-45.31 77.63 -47.62 81.26 -50 85 C-51 83 -51 83 -51 79 C-52.65 80.65 -54.3 82.3 -56 84 C-55.389 78.749 -54.202 74.999 -50.219 71.383 C-47.563 69.727 -45.919 69.639 -42.812 69.562 C-35.293 69.061 -28.338 66.49 -23 61 C-18.694 54.736 -17.475 47.329 -16 40 C-15.34 40 -14.68 40 -14 40 C-13.938 39.443 -13.876 38.886 -13.812 38.312 C-12.672 35.066 -10.424 33.424 -8 31 C-3.17 24.15 -1.749 16.866 -1.438 8.625 C-1.123 1.123 -1.123 1.123 0 0 Z " fill="#2E780C" transform="translate(136,64)"/>
<path d="M0 0 C3.282 1.386 4.622 2.331 6.375 5.438 C7.554 10.273 5.473 13.821 3 18 C1.097 19.859 -0.87 21.39 -3 23 C-3.33 22.01 -3.66 21.02 -4 20 C-4.33 22.64 -4.66 25.28 -5 28 C-7.906 29.257 -9.796 30 -13 30 C-13.33 29.67 -13.66 29.34 -14 29 C-13.608 29.887 -13.216 30.774 -12.812 31.688 C-12 35 -12 35 -13.25 37.875 C-13.828 38.576 -14.405 39.278 -15 40 C-15.66 40 -16.32 40 -17 40 C-17.33 41.65 -17.66 43.3 -18 45 C-18.99 45 -19.98 45 -21 45 C-20.67 46.98 -20.34 48.96 -20 51 C-18.68 50.01 -17.36 49.02 -16 48 C-9.574 55.56 -5.827 61.225 -6.488 71.527 C-6.653 73.019 -6.824 74.51 -7 76 C-7.052 76.494 -7.052 76.494 -7.318 78.993 C-9.522 99.522 -9.522 99.522 -11 101 C-11.395 102.846 -11.742 104.702 -12.062 106.562 C-12.151 107.068 -12.151 107.068 -12.598 109.629 C-12.73 110.411 -12.863 111.194 -13 112 C-13.33 112 -13.66 112 -14 112 C-13.984 111.68 -13.984 111.68 -13.902 110.059 C-13.996 103.066 -13.996 103.066 -16.895 99.988 C-18.478 98.82 -20.084 97.682 -21.711 96.574 C-27.302 92.729 -30.379 87.523 -32 81 C-33.323 70.913 -27.849 62.799 -22 55 C-21.67 54.01 -21.34 53.02 -21 52 C-22.32 52 -23.64 52 -25 52 C-25 53.98 -25 55.96 -25 58 C-28 58 -28 58 -30.688 55.625 C-33.439 52.082 -33.653 49 -33.434 44.605 C-32.581 39.485 -30.693 34.693 -27 31 C-26.577 29.408 -26.21 27.8 -25.875 26.188 C-23.229 16.032 -17.52 7.135 -9 1 C-5.936 -0.532 -3.383 -0.229 0 0 Z " fill="#479511" transform="translate(75,18)"/>
<path d="M0 0 C3.3 0 6.6 0 10 0 C10.515 5.404 9.118 7.669 6 12 C4.59 14.63 3.285 17.307 2 20 C1.34 20 0.68 20 0 20 C-1.625 22 -1.625 22 -3 24 C-3.165 23.34 -3.165 23.34 -4 20 C-4.165 20.495 -4.165 20.495 -5 23 C-6.65 23 -8.3 23 -10 23 C-10 20.69 -10 18.38 -10 16 C-10.99 18.64 -11.98 21.28 -13 24 C-13.66 24 -14.32 24 -15 24 C-14.913 24.72 -14.826 25.439 -14.737 26.18 C-11.51 54.271 -11.51 54.271 -18 63 C-19.65 63.99 -21.3 64.98 -23 66 C-23.33 61.38 -23.66 56.76 -24 52 C-24.99 52.99 -25.98 53.98 -27 55 C-27.66 55 -28.32 55 -29 55 C-29 55.66 -29 56.32 -29 57 C-31.813 58.563 -31.813 58.563 -35 60 C-35.99 59.67 -36.98 59.34 -38 59 C-37.67 58.01 -37.34 57.02 -37 56 C-36.34 56 -35.68 56 -35 56 C-35 55.34 -35 54.68 -35 54 C-35.99 54.165 -35.99 54.165 -41 55 C-41.561 48.545 -39.635 43.846 -37 38 C-36.34 38 -35.68 38 -35 38 C-33.5 35.144 -32.382 32.29 -31.312 29.25 C-29.149 23.785 -26.01 20.205 -22 16 C-20.852 14.606 -19.706 13.21 -18.562 11.812 C-14.276 6.941 -9.553 3.165 -3 2.188 C-2.01 2.126 -1.02 2.064 0 2 C0 1.34 0 0.68 0 0 Z " fill="#4F9E13" transform="translate(117,27)"/>
<path d="M0 0 C1.93 0.809 1.93 0.809 4.805 2.309 C4.475 2.969 4.145 3.629 3.805 4.309 C4.394 4.591 4.983 4.873 5.59 5.164 C8.186 6.683 9.929 7.94 11.805 10.309 C12.628 17.002 10.938 23.02 8.805 29.309 C8.64 30.567 8.475 31.825 8.305 33.121 C8.14 34.173 7.975 35.225 7.805 36.309 C7.475 36.474 7.475 36.474 5.805 37.309 C4.848 33.311 4.701 29.601 4.742 25.496 C4.751 24.335 4.76 23.173 4.77 21.977 C4.781 21.096 4.793 20.216 4.805 19.309 C4.684 20.007 4.562 20.706 4.438 21.426 C4.27 22.336 4.102 23.246 3.93 24.184 C3.767 25.089 3.605 25.993 3.438 26.926 C2.805 29.309 2.805 29.309 0.805 31.309 C0.392 30.133 -0.02 28.957 -0.445 27.746 C-1.536 24.788 -2.794 22.18 -4.445 19.496 C-5.023 18.444 -5.6 17.392 -6.195 16.309 C-5.865 15.319 -5.535 14.329 -5.195 13.309 C-3.875 15.619 -2.555 17.929 -1.195 20.309 C-0.865 20.309 -0.535 20.309 -0.195 20.309 C1.206 14.877 2.188 8.774 -0.633 3.746 C-4.341 1.666 -8.035 1.458 -12.195 2.309 C-17.822 7.143 -19.38 13.899 -20.016 21.031 C-20.137 23.477 -20.238 25.924 -20.32 28.371 C-20.4 29.599 -20.48 30.827 -20.562 32.092 C-20.831 39.017 -20.536 43.457 -15.851 48.75 C-13.05 51.387 -10.576 53.403 -7.195 55.309 C-4.258 55.121 -4.258 55.121 -2.195 54.309 C-2.917 53.793 -3.639 53.277 -4.383 52.746 C-7.218 50.289 -8.986 47.928 -10.984 44.797 C-12.195 43.309 -12.195 43.309 -15.195 42.309 C-15.195 41.649 -15.195 40.989 -15.195 40.309 C-12.062 40.624 -10.593 40.877 -8.422 43.234 C-7.893 44.022 -7.365 44.81 -6.82 45.621 C-3.635 49.956 -1.237 52.348 3.805 54.309 C6.742 53.559 6.742 53.559 8.805 52.309 C10.886 56.732 11.805 59.432 11.805 64.309 C12.062 64.886 12.062 64.886 13.367 67.809 C14.805 71.309 14.805 71.309 14.242 73.871 C14.098 74.675 13.953 75.48 13.805 76.309 C14.128 76.711 14.128 76.711 15.762 78.75 C18.944 83.283 18.233 88.364 18.055 93.684 C18.037 94.706 18.019 95.728 18 96.781 C17.953 99.291 17.887 101.799 17.805 104.309 C17.475 104.309 17.145 104.309 16.805 104.309 C16.64 101.339 16.64 101.339 15.805 86.309 C14.804 86.185 14.804 86.185 9.742 85.559 C3.076 84.489 -1.625 83.733 -5.875 78.07 C-8.246 74.333 -10.011 71.061 -11.07 66.746 C-12.503 62.369 -14.951 60.077 -18.223 56.91 C-24.062 49.209 -23.685 40.23 -23.633 30.934 C-23.653 29.683 -23.673 28.433 -23.693 27.145 C-23.688 17.804 -22.756 8.682 -16.07 1.621 C-11.207 -1.99 -5.612 -1.768 0 0 Z " fill="#388212" transform="translate(29.1953125,49.69140625)"/>
<path d="M0 0 C0.165 0.33 0.165 0.33 1 2 C0.104 4.522 0.104 4.522 -1.309 7.664 C-1.808 8.786 -2.308 9.907 -2.822 11.062 C-3.355 12.238 -3.888 13.414 -4.438 14.625 C-4.702 15.217 -4.702 15.217 -6.041 18.211 C-7.354 21.144 -8.674 24.073 -10 27 C-9.206 26.786 -8.413 26.571 -7.595 26.35 C2.907 23.602 2.907 23.602 8.25 23.812 C9.163 23.84 10.075 23.867 11.016 23.895 C11.67 23.929 12.325 23.964 13 24 C14.253 28.733 13.591 30.767 11.309 34.938 C8.407 39.511 5.263 44.132 0 46 C-2.251 46.014 -4.503 45.943 -6.75 45.812 C-12.4 45.73 -16.084 46.151 -20.645 49.555 C-22.535 51.57 -23 53.263 -23 56 C-22.216 55.34 -21.433 54.68 -20.625 54 C-18 52 -18 52 -16 52 C-17.687 56.498 -19.817 60.729 -22 65 C-21.422 64.484 -20.845 63.969 -20.25 63.438 C-18 62 -18 62 -15.859 62.41 C-15.246 62.605 -14.632 62.799 -14 63 C-14.338 63.164 -14.338 63.164 -16.047 63.996 C-16.493 64.234 -16.493 64.234 -18.75 65.438 C-19.632 65.89 -20.513 66.342 -21.422 66.809 C-24.507 69.431 -25.434 71.674 -26.923 75.371 C-28.974 80.379 -31.511 85.166 -33.938 90 C-34.194 90.514 -34.194 90.514 -35.49 93.117 C-38.517 99.163 -41.655 105.124 -45 111 C-46.666 111.043 -48.334 111.041 -50 111 C-51 110 -51 110 -51.254 107.258 C-50.962 103.514 -50.064 101.931 -47.938 98.875 C-47.298 97.919 -46.659 96.962 -46 95.977 C-45.67 95.485 -45.67 95.485 -44 93 C-36.978 81.953 -31.168 70.952 -30.062 57.812 C-29.187 47.52 -24.007 39.397 -17 32 C-16.01 31.34 -15.02 30.68 -14 30 C-12.895 27.523 -12.895 27.523 -11.812 24.375 C-9.777 18.809 -7.418 13.541 -4.75 8.25 C-4.397 7.547 -4.043 6.843 -3.679 6.119 C-1.148 1.148 -1.148 1.148 0 0 Z " fill="#59A218" transform="translate(112,60)"/>
<path d="M0 0 C54.12 0 108.24 0 164 0 C164 61.05 164 122.1 164 185 C163.34 185 162.68 185 162 185 C162.003 184.102 162.006 183.204 162.008 182.278 C162.075 160.437 162.124 138.597 162.155 116.756 C162.171 106.194 162.192 95.632 162.226 85.07 C162.256 75.866 162.276 66.661 162.282 57.457 C162.286 52.582 162.295 47.707 162.317 42.832 C162.338 38.246 162.344 33.659 162.339 29.073 C162.34 27.388 162.346 25.703 162.358 24.018 C162.373 21.72 162.369 19.423 162.361 17.125 C162.364 15.838 162.366 14.551 162.369 13.225 C161.969 9.728 161.686 8.275 159 6 C156.185 5.505 156.185 5.505 152.692 5.512 C152.05 5.508 151.408 5.504 150.746 5.5 C148.59 5.491 146.435 5.511 144.279 5.53 C142.735 5.53 141.191 5.527 139.647 5.523 C135.451 5.518 131.255 5.537 127.059 5.561 C122.673 5.583 118.287 5.582 113.901 5.584 C106.536 5.591 99.171 5.612 91.806 5.643 C82.344 5.684 72.882 5.701 63.42 5.711 C55.295 5.719 47.17 5.736 39.046 5.756 C36.429 5.762 33.812 5.767 31.196 5.772 C27.089 5.781 22.983 5.795 18.876 5.814 C17.366 5.82 15.856 5.824 14.346 5.827 C12.291 5.831 10.236 5.842 8.181 5.853 C7.029 5.857 5.877 5.861 4.69 5.866 C2 6 2 6 0 7 C0 4.69 0 2.38 0 0 Z " fill="#FEFDFC" transform="translate(0,0)"/>
<path d="M0 0 C0 1.98 0 3.96 0 6 C0.66 6 1.32 6 2 6 C2.787 12.86 0.227 16.943 -3.312 22.688 C-3.562 23.108 -3.562 23.108 -4.826 25.236 C-8.51 31.389 -8.51 31.389 -10.657 34.066 C-12.513 36.739 -12.216 38.826 -12 42 C-10.35 42.33 -8.7 42.66 -7 43 C-6.887 42.443 -6.773 41.886 -6.656 41.312 C-5.902 38.655 -4.79 36.455 -3.496 34.016 C-3.003 33.081 -2.51 32.146 -2.002 31.184 C-1.486 30.216 -0.969 29.247 -0.438 28.25 C0.083 27.266 0.603 26.283 1.139 25.27 C2.422 22.844 3.709 20.421 5 18 C5.66 18.33 6.32 18.66 7 19 C8.65 17.35 10.3 15.7 12 14 C12 15.98 12 17.96 12 20 C14.31 16.04 16.62 12.08 19 8 C19.66 9.32 20.32 10.64 21 12 C21.66 12.99 22.32 13.98 23 15 C23.471 14.35 23.941 13.701 24.426 13.031 C25.048 12.196 25.671 11.361 26.312 10.5 C26.927 9.665 27.542 8.829 28.176 7.969 C28.778 7.319 29.38 6.669 30 6 C30.99 6 31.98 6 33 6 C31.212 9.667 29.183 13.165 27.121 16.684 C26 19 26 19 25.629 21.391 C24.763 24.983 22.754 27.472 20.5 30.312 C20.054 30.88 19.607 31.447 19.147 32.032 C11.146 41.98 11.146 41.98 6 45 C2.734 45.199 2.734 45.199 0 45 C-0.66 43.68 -1.32 42.36 -2 41 C-2.701 41.66 -3.403 42.32 -4.125 43 C-7.458 45.319 -9.026 45.53 -13 45 C-15 43 -15 43 -15.312 40.121 C-15.152 34.609 -13.456 29.345 -12 24.062 C-11.714 22.997 -11.428 21.932 -11.133 20.834 C-10.43 18.22 -9.719 15.609 -9 13 C-8.34 13.33 -7.68 13.66 -7 14 C-6.902 13.325 -6.804 12.649 -6.703 11.953 C-5.47 4.599 -5.47 4.599 -2.938 1.375 C-1 0 -1 0 0 0 Z " fill="#377B07" transform="translate(74,128)"/>
<path d="M0 0 C5.456 4.322 10.176 8.29 11.75 15.375 C11.833 16.241 11.915 17.108 12 18 C10.564 19.126 9.126 20.251 7.688 21.375 C7.287 21.688 7.287 21.688 5.262 23.273 C3.553 24.578 1.788 25.808 0 27 C0.33 25.35 0.66 23.7 1 22 C0.674 22.554 0.348 23.109 0.012 23.68 C-0.425 24.404 -0.862 25.129 -1.312 25.875 C-1.742 26.594 -2.171 27.314 -2.613 28.055 C-4 30 -4 30 -7 32 C-6.381 32.722 -5.763 33.444 -5.125 34.188 C-3.081 36.893 -1.918 38.76 -1 42 C-1.645 44.648 -1.645 44.648 -2.812 47.375 C-4.545 51.685 -5.59 55.386 -6 60 C-6.66 60.165 -6.66 60.165 -10 61 C-10 53.74 -10 46.48 -10 39 C-10.66 45.27 -11.32 51.54 -12 58 C-16.345 53.655 -18.278 51.142 -21 46 C-22.32 46.66 -23.64 47.32 -25 48 C-25.33 46.02 -25.66 44.04 -26 42 C-25.01 42 -24.02 42 -23 42 C-22.67 40.35 -22.34 38.7 -22 37 C-21.34 37 -20.68 37 -20 37 C-18.812 33.875 -18.812 33.875 -18 30 C-18.932 27.967 -19.935 25.966 -21 24 C-21.188 20.125 -21.188 20.125 -21 17 C-20.67 17 -20.34 17 -20 17 C-19.34 20.3 -18.68 23.6 -18 27 C-15.69 26.34 -13.38 25.68 -11 25 C-10.34 19.06 -9.68 13.12 -9 7 C-8.67 7 -8.34 7 -8 7 C-7.67 10.96 -7.34 14.92 -7 19 C-3.332 15.629 -0.671 12.736 1 8 C0.945 5.215 0.523 2.755 0 0 Z " fill="#3A870C" transform="translate(80,21)"/>
<path d="M0 0 C0.625 1.875 0.625 1.875 1 4 C0.34 4.66 -0.32 5.32 -1 6 C-4.245 12.74 -4.333 18.594 -4 26 C-3.01 26.33 -2.02 26.66 -1 27 C0.688 28.562 0.688 28.562 2 30 C2.33 28.02 2.66 26.04 3 24 C4.32 24 5.64 24 7 24 C7.33 25.32 7.66 26.64 8 28 C7.34 28 6.68 28 6 28 C1.458 33.795 -3.153 41.586 -3.562 49.062 C-2.106 59.259 1.876 64.807 10 71 C10.373 71.207 10.373 71.207 12.258 72.254 C14 74 14 74 14.461 77.469 C14.453 78.813 14.424 80.157 14.375 81.5 C14.374 82.177 14.372 82.854 14.371 83.551 C14.306 87.22 14.081 88.878 12 92 C12 90.35 12 88.7 12 87 C10.68 86.67 9.36 86.34 8 86 C8 85.34 8 84.68 8 84 C7.34 84 6.68 84 6 84 C6 87.3 6 90.6 6 94 C5.835 93.67 5.835 93.67 5 92 C4.34 92 3.68 92 3 92 C2.974 91.664 2.974 91.664 2.844 89.965 C0.982 73.565 -5.614 57.607 -13.293 43.115 C-15.606 38.599 -16.429 36.081 -15 31 C-14.799 29.377 -14.61 27.752 -14.438 26.125 C-14.396 25.734 -14.396 25.734 -14.184 23.758 C-14.123 23.178 -14.062 22.598 -14 22 C-13.34 22.33 -12.68 22.66 -12 23 C-12.012 24.143 -12.023 25.287 -12.035 26.465 C-12.045 27.956 -12.054 29.447 -12.062 30.938 C-12.071 31.692 -12.079 32.447 -12.088 33.225 C-12.097 35.15 -12.052 37.075 -12 39 C-11.67 39.33 -11.34 39.66 -11 40 C-10.867 39.145 -10.734 38.291 -10.598 37.41 C-10.509 36.858 -10.509 36.858 -10.062 34.062 C-9.975 33.511 -9.975 33.511 -9.535 30.723 C-9 28 -9 28 -8 27 C-7.04 22.615 -6.528 18.474 -7 14 C-9.24 11.139 -11.744 9.56 -15 8 C-14.01 7.67 -13.02 7.34 -12 7 C-10.176 7.996 -10.176 7.996 -8.312 9.438 C-7.69 9.911 -7.067 10.384 -6.426 10.871 C-5.955 11.244 -5.485 11.616 -5 12 C-4.918 11.134 -4.835 10.267 -4.75 9.375 C-3.894 5.523 -2.326 3.152 0 0 Z " fill="#175503" transform="translate(47,46)"/>
<path d="M0 0 C3.282 1.386 4.622 2.331 6.375 5.438 C7.554 10.273 5.473 13.821 3 18 C1.097 19.859 -0.87 21.39 -3 23 C-3.33 22.01 -3.66 21.02 -4 20 C-4.33 22.64 -4.66 25.28 -5 28 C-7.906 29.257 -9.796 30 -13 30 C-15.12 26.466 -15.532 23.056 -16 19 C-16.33 20.32 -16.66 21.64 -17 23 C-18.32 23.33 -19.64 23.66 -21 24 C-21 25.98 -21 27.96 -21 30 C-20.01 30.33 -19.02 30.66 -18 31 C-18 31.99 -18 32.98 -18 34 C-18.784 34.248 -19.568 34.495 -20.375 34.75 C-23.323 36.154 -23.902 37.007 -25 40 C-25.66 40 -26.32 40 -27 40 C-27.33 41.65 -27.66 43.3 -28 45 C-28.99 44.67 -29.98 44.34 -31 44 C-30.913 42.395 -30.804 40.791 -30.688 39.188 C-30.629 38.294 -30.571 37.401 -30.512 36.48 C-29.917 33.598 -29.059 32.99 -27 31 C-26.332 28.758 -26.332 28.758 -25.812 26.125 C-23.239 15.981 -17.489 7.112 -9 1 C-5.936 -0.532 -3.383 -0.229 0 0 Z " fill="#549F18" transform="translate(75,18)"/>
<path d="M0 0 C3.3 0 6.6 0 10 0 C10.515 5.404 9.118 7.669 6 12 C4.59 14.63 3.285 17.307 2 20 C1.34 20 0.68 20 0 20 C-1.625 22 -1.625 22 -3 24 C-3.33 22.68 -3.66 21.36 -4 20 C-4.33 20.99 -4.66 21.98 -5 23 C-6.65 23 -8.3 23 -10 23 C-10 20.69 -10 18.38 -10 16 C-10.33 16.825 -10.33 16.825 -12 21 C-13.32 20.67 -14.64 20.34 -16 20 C-16.33 20.66 -16.66 21.32 -17 22 C-18.333 23.333 -19.667 24.667 -21 26 C-21.33 26.66 -21.66 27.32 -22 28 C-24.903 29.375 -26.761 30 -30 30 C-29.838 23.515 -26.189 20.457 -22 16 C-20.853 14.605 -19.707 13.209 -18.562 11.812 C-14.276 6.941 -9.553 3.165 -3 2.188 C-2.01 2.126 -1.02 2.064 0 2 C0 1.34 0 0.68 0 0 Z " fill="#57A31A" transform="translate(117,27)"/>
<path d="M0 0 C0.33 0 0.66 0 1 0 C1 1.98 1 3.96 1 6 C1.66 5.67 2.32 5.34 3 5 C4.707 4.93 6.417 4.916 8.125 4.938 C9.035 4.947 9.945 4.956 10.883 4.965 C11.232 4.971 11.232 4.971 13 5 C13 5.33 13 5.66 13 6 C11.35 6 9.7 6 8 6 C7.969 6.639 7.969 6.639 7.812 9.875 C6.715 19.453 1.361 26.161 -5 33 C-14.8 43.657 -14.8 43.657 -14.906 51.145 C-15.041 53.805 -16.288 55.024 -18 57 C-19.038 59.316 -20.042 61.649 -21 64 C-22.318 66.635 -23.322 66.56 -26.062 67.5 C-32.136 70.031 -35.314 74.737 -39 80 C-40.506 78.036 -41.891 76.217 -43 74 C-45.31 77.63 -47.62 81.26 -50 85 C-51 83 -51 83 -51 79 C-52.65 80.65 -54.3 82.3 -56 84 C-55.389 78.749 -54.202 74.999 -50.219 71.383 C-47.563 69.727 -45.919 69.639 -42.812 69.562 C-35.293 69.061 -28.338 66.49 -23 61 C-18.694 54.736 -17.475 47.329 -16 40 C-15.34 40 -14.68 40 -14 40 C-13.938 39.443 -13.876 38.886 -13.812 38.312 C-12.672 35.066 -10.424 33.424 -8 31 C-3.17 24.15 -1.749 16.866 -1.438 8.625 C-1.123 1.123 -1.123 1.123 0 0 Z " fill="#155902" transform="translate(136,64)"/>
<path d="M0 0 C2.062 3.093 2.591 4.99 2.523 8.684 C1.64 12.594 -0.74 15.393 -3.176 18.508 C-7.032 23.777 -8.326 28.01 -8.812 34.5 C-9.599 42.838 -12.285 49.523 -16 57 C-17 54 -17 54 -16 51 C-16.66 51 -17.32 51 -18 51 C-18.33 49.35 -18.66 47.7 -19 46 C-21.97 48.444 -22.499 50.374 -23.062 54.125 C-23.473 56.82 -23.473 56.82 -24 59 C-24.33 59.165 -24.33 59.165 -26 60 C-25.72 51.732 -25.111 43.761 -19.492 37.254 C-18 36 -18 36 -16 36 C-16.165 35.505 -16.165 35.505 -17 33 C-17.306 27.273 -17.215 21.622 -16 16 C-15.01 16.99 -14.02 17.98 -13 19 C-8.888 13.478 -7.383 9.907 -8 3 C-6.866 2.876 -5.731 2.752 -4.562 2.625 C-3.387 2.419 -2.211 2.213 -1 2 C-0.67 1.34 -0.34 0.68 0 0 Z " fill="#266F05" transform="translate(92,83)"/>
<path d="M0 0 C2.629 1.522 4.844 2.844 7 5 C7.857 9.393 6.689 11.928 4.375 15.562 C1.606 19.422 -1.012 22.399 -5 25 C-7.18 24.617 -7.18 24.617 -9 24 C-9.242 24.603 -9.485 25.207 -9.734 25.828 C-10.07 26.627 -10.405 27.427 -10.75 28.25 C-11.075 29.039 -11.4 29.828 -11.734 30.641 C-13 33 -13 33 -14.938 34.906 C-17.446 37.453 -18.711 40.032 -20.25 43.25 C-20.771 44.328 -21.292 45.405 -21.828 46.516 C-22.215 47.335 -22.602 48.155 -23 49 C-23.33 49 -23.66 49 -24 49 C-24.843 40.643 -25.122 32.398 -25 24 C-24.34 24 -23.68 24 -23 24 C-22.01 20.7 -21.02 17.4 -20 14 C-19 18 -19 18 -19 22 C-17.68 22.33 -16.36 22.66 -15 23 C-15 21.02 -15 19.04 -15 17 C-13 20 -13 20 -12 22 C-7.92 18.114 -5.472 14.051 -3 9 C-2.34 8.01 -1.68 7.02 -1 6 C-0.61 4.01 -0.268 2.01 0 0 Z " fill="#428F11" transform="translate(127,27)"/>
<path d="M0 0 C1 3 1 3 0 6 C0.99 5.34 1.98 4.68 3 4 C5.188 4.375 5.188 4.375 7 5 C6.325 5.329 5.649 5.657 4.953 5.996 C4.061 6.472 3.169 6.947 2.25 7.438 C1.368 7.89 0.487 8.342 -0.422 8.809 C-3.507 11.431 -4.434 13.674 -5.923 17.371 C-7.974 22.379 -10.511 27.166 -12.938 32 C-13.194 32.514 -13.194 32.514 -14.49 35.117 C-17.517 41.163 -20.655 47.124 -24 53 C-25.666 53.043 -27.334 53.041 -29 53 C-30 52 -30 52 -30.254 49.258 C-29.962 45.514 -29.064 43.931 -26.938 40.875 C-26.299 39.922 -25.661 38.97 -25.004 37.988 C-24.343 37.002 -23.681 36.016 -23 35 C-18.619 27.989 -15.002 21.068 -12.141 13.301 C-11.764 12.542 -11.388 11.782 -11 11 C-10.01 10.67 -9.02 10.34 -8 10 C-6.636 8.021 -5.306 6.018 -4 4 C-2.703 2.631 -1.382 1.283 0 0 Z " fill="#63A617" transform="translate(91,118)"/>
<path d="M0 0 C6.518 -0.354 11.175 -0.039 17 3 C16.67 3.66 16.34 4.32 16 5 C16.589 5.282 17.178 5.565 17.785 5.855 C20.381 7.374 22.125 8.632 24 11 C24.823 17.694 23.134 23.711 21 30 C20.835 31.258 20.67 32.516 20.5 33.812 C20.335 34.864 20.17 35.916 20 37 C19.67 37.165 19.67 37.165 18 38 C17.044 34.002 16.896 30.292 16.938 26.188 C16.947 25.026 16.956 23.865 16.965 22.668 C16.976 21.788 16.988 20.907 17 20 C16.879 20.699 16.758 21.397 16.633 22.117 C16.465 23.027 16.298 23.937 16.125 24.875 C15.963 25.78 15.8 26.685 15.633 27.617 C15 30 15 30 13 32 C12.587 30.824 12.175 29.649 11.75 28.438 C10.659 25.479 9.402 22.871 7.75 20.188 C7.172 19.136 6.595 18.084 6 17 C6.33 16.01 6.66 15.02 7 14 C8.32 16.31 9.64 18.62 11 21 C11.33 21 11.66 21 12 21 C13.389 15.617 14.417 9.464 11.562 4.5 C7.859 2.332 4.232 2.181 0 2 C0 1.34 0 0.68 0 0 Z " fill="#2D780B" transform="translate(17,49)"/>
<path d="M0 0 C-0.585 3.558 -1.912 5.288 -4.375 7.875 C-8.227 12.121 -10.903 16.294 -12 22 C-13.32 22.33 -14.64 22.66 -16 23 C-16 24.98 -16 26.96 -16 29 C-15.01 29.33 -14.02 29.66 -13 30 C-13 30.99 -13 31.98 -13 33 C-13.784 33.248 -14.568 33.495 -15.375 33.75 C-18.323 35.154 -18.902 36.007 -20 39 C-20.66 39 -21.32 39 -22 39 C-22.33 40.65 -22.66 42.3 -23 44 C-23.99 43.67 -24.98 43.34 -26 43 C-25.913 41.395 -25.804 39.791 -25.688 38.188 C-25.629 37.294 -25.571 36.401 -25.512 35.48 C-24.917 32.598 -24.059 31.99 -22 30 C-21.332 27.758 -21.332 27.758 -20.812 25.125 C-18.405 15.634 -11.26 0 0 0 Z " fill="#65AC24" transform="translate(70,19)"/>
<path d="M0 0 C2.806 5.555 2.806 5.555 3 8 C1.566 10.141 1.566 10.141 -0.438 12.25 C-1.096 12.956 -1.755 13.663 -2.434 14.391 C-2.951 14.922 -3.467 15.453 -4 16 C-3.386 15.519 -2.773 15.038 -2.141 14.543 C-0.017 13.012 1.455 12.455 4 12 C3.444 16.221 0.922 19.128 -1.625 22.375 C-2.076 22.952 -2.527 23.529 -2.991 24.124 C-11.383 34.666 -11.383 34.666 -16.938 35.375 C-17.278 35.313 -17.278 35.313 -19 35 C-18.164 30.376 -15.352 28.223 -11.938 25.25 C-11.37 24.743 -10.802 24.237 -10.217 23.715 C-8.818 22.469 -7.41 21.233 -6 20 C-8.64 21.98 -11.28 23.96 -14 26 C-12.658 22.444 -11.078 19.209 -9.18 15.918 C-8.645 14.987 -8.11 14.055 -7.559 13.096 C-7.003 12.136 -6.447 11.176 -5.875 10.188 C-5.312 9.208 -4.748 8.229 -4.168 7.221 C-2.782 4.812 -1.392 2.405 0 0 Z " fill="#74AF1F" transform="translate(93,136)"/>
<path d="M0 0 C0.33 0 0.66 0 1 0 C1.049 1.025 1.098 2.05 1.148 3.105 C1.224 4.466 1.299 5.827 1.375 7.188 C1.406 7.861 1.437 8.535 1.469 9.229 C1.646 12.256 1.893 14.752 3.102 17.551 C4.356 20.972 3.633 23.435 3 27 C2.749 29.809 2.595 32.622 2.438 35.438 C2.394 36.169 2.351 36.901 2.307 37.654 C2.202 39.436 2.101 41.218 2 43 C-0.62 39.069 -2.617 34.928 -4.688 30.688 C-5.116 29.845 -5.545 29.003 -5.986 28.135 C-8.329 23.311 -9.596 20.353 -8 15 C-7.799 13.377 -7.61 11.752 -7.438 10.125 C-7.354 9.344 -7.27 8.563 -7.184 7.758 C-7.123 7.178 -7.062 6.598 -7 6 C-6.34 6.33 -5.68 6.66 -5 7 C-5.012 8.143 -5.023 9.287 -5.035 10.465 C-5.045 11.956 -5.054 13.447 -5.062 14.938 C-5.071 15.692 -5.079 16.447 -5.088 17.225 C-5.097 19.15 -5.052 21.075 -5 23 C-4.67 23.33 -4.34 23.66 -4 24 C-3.867 23.145 -3.734 22.291 -3.598 21.41 C-3.421 20.305 -3.244 19.201 -3.062 18.062 C-2.975 17.511 -2.975 17.511 -2.535 14.723 C-2 12 -2 12 -1 11 C-0.766 9.151 -0.587 7.295 -0.438 5.438 C-0.354 4.426 -0.27 3.414 -0.184 2.371 C-0.123 1.589 -0.062 0.806 0 0 Z " fill="#246D05" transform="translate(40,62)"/>
<path d="M0 0 C0.33 0 0.66 0 1 0 C0.985 0.576 0.985 0.576 0.908 3.494 C0.794 7.857 0.683 12.22 0.573 16.583 C0.525 18.456 0.477 20.328 0.427 22.2 C0.114 34.137 -0.071 46.059 0 58 C0.66 57.01 1.32 56.02 2 55 C2.66 55 3.32 55 4 55 C3.711 55.639 3.422 56.279 3.125 56.938 C1.675 60.884 0.842 64.887 0 69 C0.165 68.67 0.165 68.67 1 67 C2.32 67 3.64 67 5 67 C3.81 69.479 2.526 71.757 1.062 74.094 C-1.292 78.198 -2.288 82.337 -3.25 86.938 C-3.423 87.717 -3.595 88.496 -3.773 89.299 C-4.193 91.197 -4.598 93.098 -5 95 C-5.33 95 -5.66 95 -6 95 C-6.405 87.616 -5.723 80.696 -4.5 73.438 C-3.3 66.113 -2.788 59.128 -2.914 51.715 C-3.199 34.466 -2.728 17.056 0 0 Z " fill="#5CA317" transform="translate(70,50)"/>
<path d="M0 0 C5 2 5 2 6 4 C6.66 4 7.32 4 8 4 C8.952 13.605 6.365 22.002 3.573 31.068 C2.99 33.034 2.483 35.008 2 37 C0.68 36.67 -0.64 36.34 -2 36 C-1.476 30.132 -0.239 25.451 2 20 C1.34 20 0.68 20 0 20 C0 13.4 0 6.8 0 0 Z " fill="#BCDF55" transform="translate(54,131)"/>
<path d="M0 0 C0.66 0.33 1.32 0.66 2 1 C2.081 2.937 2.139 4.875 2.188 6.812 C2.205 7.352 2.205 7.352 2.293 10.082 C2 13 2 13 0.613 14.887 C-1 16 -1 16 -3 16 C-3 16.66 -3 17.32 -3 18 C-3.907 18.433 -4.815 18.866 -5.75 19.312 C-9 21 -9 21 -10.812 22.688 C-14.316 24.79 -18.013 24.23 -22 24 C-22.3 24.624 -22.601 25.248 -22.91 25.891 C-24.048 28.092 -25.068 29.455 -27 31 C-27.99 31 -28.98 31 -30 31 C-30 30.01 -30 29.02 -30 28 C-30.784 28.66 -31.567 29.32 -32.375 30 C-35 32 -35 32 -37 32 C-37.312 29.75 -37.312 29.75 -37 27 C-33.296 23.399 -29.971 21.033 -24.758 20.945 C-24.158 20.975 -24.158 20.975 -21.125 21.125 C-16.948 21.164 -14.387 21.159 -10.5 19.562 C-4.812 13.732 -1.458 8.02 0 0 Z " fill="#216A04" transform="translate(126,84)"/>
<path d="M0 0 C0.33 0 0.66 0 1 0 C1.369 9.789 0.743 18.923 -0.867 28.575 C-1.712 33.736 -2.2 38.711 -2.375 43.938 C-2.835 53.899 -5.457 63.394 -8 73 C-10 72 -10 72 -10.777 69.957 C-11.084 65.886 -9.81 62.503 -8.562 58.688 C-6.241 51.075 -5.668 44.569 -5.953 36.656 C-6.017 31.635 -5.334 26.841 -4 22 C-3.67 21.67 -3.34 21.34 -3 21 C-2.786 19.612 -2.63 18.215 -2.5 16.816 C-2.418 15.971 -2.335 15.126 -2.25 14.256 C-2.168 13.367 -2.085 12.478 -2 11.562 C-1.837 9.813 -1.67 8.065 -1.5 6.316 C-1.428 5.537 -1.356 4.758 -1.281 3.955 C-1 2 -1 2 0 0 Z " fill="#9AC732" transform="translate(67,97)"/>
<path d="M0 0 C2.209 3.314 2.225 4.345 2.125 8.188 C2.107 9.089 2.089 9.99 2.07 10.918 C2.059 11.262 2.059 11.262 2 13 C2.66 13 3.32 13 4 13 C4.33 10.36 4.66 7.72 5 5 C5.66 5.33 6.32 5.66 7 6 C6.67 12.6 6.34 19.2 6 26 C6.66 26 7.32 26 8 26 C7.576 29.041 7.117 31.717 5.938 34.562 C4.918 37.213 4.839 39.186 5 42 C6.65 42.33 8.3 42.66 10 43 C9.67 43.99 9.34 44.98 9 46 C7.35 46 5.7 46 4 46 C3.67 44.68 3.34 43.36 3 42 C2.031 42.021 1.061 42.041 0.062 42.062 C-3 42 -3 42 -4 41 C-4.041 39.334 -4.043 37.666 -4 36 C-3.67 36.99 -3.34 37.98 -3 39 C-1.68 39 -0.36 39 1 39 C1.105 25.959 1.167 12.998 0 0 Z " fill="#4A891F" transform="translate(48,125)"/>
<path d="M0 0 C0.33 0 0.66 0 1 0 C0.965 0.906 0.93 1.812 0.895 2.746 C0.747 9.382 0.925 14.737 3.316 20.926 C5.533 27.651 3.906 33.191 0.875 39.348 C0.586 39.893 0.297 40.438 0 41 C-1 38 -1 38 0 35 C-0.66 35 -1.32 35 -2 35 C-2.33 33.35 -2.66 31.7 -3 30 C-5.97 32.444 -6.499 34.374 -7.062 38.125 C-7.473 40.82 -7.473 40.82 -8 43 C-8.33 43.165 -8.33 43.165 -10 44 C-9.72 35.732 -9.111 27.761 -3.492 21.254 C-2 20 -2 20 0 20 C-0.33 19.01 -0.66 18.02 -1 17 C-1.306 11.273 -1.215 5.622 0 0 Z " fill="#1A5C03" transform="translate(76,99)"/>
<path d="M0 0 C0.99 0 1.98 0 3 0 C1.212 3.667 -0.817 7.165 -2.879 10.684 C-4 13 -4 13 -4.371 15.391 C-5.237 18.983 -7.246 21.472 -9.5 24.312 C-9.946 24.88 -10.393 25.447 -10.853 26.032 C-18.854 35.98 -18.854 35.98 -24 39 C-27.266 39.199 -27.266 39.199 -30 39 C-30.144 38.68 -30.144 38.68 -30.875 37.062 C-32 35 -32 35 -34 34 C-32.35 33.01 -30.7 32.02 -29 31 C-29 34 -29 34 -30 37 C-20.666 35.808 -15.91 27.555 -10.5 20.562 C-8.768 18.258 -7.93 16.79 -7 14 C-9 15.333 -11 16.667 -13 18 C-13.99 18.66 -14.98 19.32 -16 20 C-13.444 13.958 -8.556 9.556 -4 5 C-3.299 4.072 -2.597 3.144 -1.875 2.188 C-1.256 1.466 -0.638 0.744 0 0 Z " fill="#437D15" transform="translate(104,134)"/>
<path d="M0 0 C0.66 0 1.32 0 2 0 C2.33 2.31 2.66 4.62 3 7 C-3.625 8.125 -3.625 8.125 -7 7 C-6.67 7.66 -6.34 8.32 -6 9 C-5.204 13.661 -6.466 16.089 -9 19.875 C-9.987 21.259 -10.983 22.638 -12 24 C-15.325 19.013 -17.699 15.148 -17 9 C-16.34 8.34 -15.68 7.68 -15 7 C-14.375 4.875 -14.375 4.875 -14 3 C-12.35 2.67 -10.7 2.34 -9 2 C-9 2.66 -9 3.32 -9 4 C-9.33 4.165 -9.33 4.165 -11 5 C-11 5.66 -11 6.32 -11 7 C-8.36 6.34 -5.72 5.68 -3 5 C-3 4.34 -3 3.68 -3 3 C-2.34 3 -1.68 3 -1 3 C-0.67 2.01 -0.34 1.02 0 0 Z " fill="#2C7807" transform="translate(91,79)"/>
<path d="M0 0 C3.577 0.063 4.668 0.323 7.812 2.312 C10.437 6.461 10.413 9.593 9.75 14.375 C8.75 17.938 8.75 17.938 7.75 20.375 C5.469 18.203 3.601 15.92 1.75 13.375 C1.472 13.045 1.472 13.045 0.062 11.375 C-1.25 9.375 -1.25 9.375 -1.25 5.375 C-2.24 5.045 -3.23 4.715 -4.25 4.375 C-4.58 3.385 -4.91 2.395 -5.25 1.375 C-3.69 -0.185 -2.161 0.093 0 0 Z " fill="#4D9818" transform="translate(21.25,50.625)"/>
<path d="M0 0 C0.99 0 1.98 0 3 0 C3.281 4.077 2.557 6.428 0.586 9.984 C0.329 10.452 0.329 10.452 -0.973 12.82 C-1.245 13.304 -1.245 13.304 -2.625 15.75 C-2.886 16.226 -2.886 16.226 -4.207 18.633 C-6.742 23.203 -9.365 27.717 -12.148 32.141 C-12.375 32.502 -12.375 32.502 -13.521 34.329 C-15.269 36.304 -16.428 36.635 -19 37 C-18.346 33.604 -17.032 31.125 -15.234 28.184 C-14.674 27.254 -14.113 26.323 -13.535 25.365 C-12.361 23.44 -11.187 21.516 -10.012 19.592 C-6.185 13.241 -2.914 6.819 0 0 Z " fill="#BADF5A" transform="translate(80,130)"/>
<path d="M0 0 C6.875 3.875 6.875 3.875 8 5 C8.127 7.472 8.185 9.903 8.188 12.375 C8.2 13.061 8.212 13.747 8.225 14.453 C8.236 18.193 8.127 19.81 6 23 C6 21.35 6 19.7 6 18 C4.68 17.67 3.36 17.34 2 17 C2 16.34 2 15.68 2 15 C1.34 15 0.68 15 0 15 C0 18.3 0 21.6 0 25 C-0.33 25 -0.66 25 -1 25 C-1.027 22.542 -1.047 20.083 -1.062 17.625 C-1.071 16.926 -1.079 16.228 -1.088 15.508 C-1.113 10.227 -1.113 10.227 0 8 C0.069 6.627 0.085 5.25 0.062 3.875 C0.042 2.596 0.021 1.317 0 0 Z " fill="#165403" transform="translate(53,115)"/>
<path d="M0 0 C0.33 0 0.66 0 1 0 C1.481 1.895 1.959 3.791 2.438 5.688 C2.571 6.215 2.571 6.215 3.246 8.887 C3.495 9.914 3.744 10.941 4 12 C4.258 12.825 4.516 13.65 4.781 14.5 C5.096 18.093 3.754 20.171 2.062 23.312 C1.497 24.381 0.931 25.45 0.348 26.551 C0.125 26.955 0.125 26.955 -1 29 C-1.33 29 -1.66 29 -2 29 C-2.843 20.643 -3.122 12.398 -3 4 C-2.34 4 -1.68 4 -1 4 C-0.67 2.68 -0.34 1.36 0 0 Z " fill="#297605" transform="translate(105,47)"/>
<path d="M0 0 C1.619 2.572 2.044 3.677 1.625 6.75 C1.419 7.493 1.213 8.235 1 9 C1.784 8.34 2.567 7.68 3.375 7 C6 5 6 5 8 5 C6.484 9.115 5.19 11.123 1.625 13.75 C-1.247 16.212 -2.93 18.859 -5 22 C-5.66 22 -6.32 22 -7 22 C-6.781 18.872 -6.519 15.749 -6.25 12.625 C-6.188 11.736 -6.126 10.846 -6.062 9.93 C-5.985 9.079 -5.908 8.228 -5.828 7.352 C-5.765 6.566 -5.702 5.781 -5.638 4.971 C-5 3 -5 3 -3.011 1.791 C-2.347 1.53 -1.684 1.269 -1 1 C-0.67 0.67 -0.34 0.34 0 0 Z " fill="#63AD14" transform="translate(88,107)"/>
<path d="M0 0 C0.33 0.66 0.66 1.32 1 2 C-0.977 7.436 -4.171 10.962 -9 14 C-11.89 15.099 -14.76 16.031 -17.742 16.848 C-18.487 17.228 -19.232 17.608 -20 18 C-20.82 20.621 -20.82 20.621 -21 23 C-19.68 22.835 -19.68 22.835 -13 22 C-17.622 24.504 -22.7 27 -28 27 C-27.424 22.97 -26.609 20.162 -24 17 C-19.699 14.295 -15.532 12.246 -10.5 11.438 C-9.675 11.293 -8.85 11.149 -8 11 C-7.296 9.686 -6.635 8.349 -6 7 C-4.996 5.72 -3.953 4.469 -2.875 3.25 C-2.336 2.636 -1.797 2.023 -1.242 1.391 C-0.832 0.932 -0.422 0.473 0 0 Z " fill="#1C6403" transform="translate(130,60)"/>
<path d="M0 0 C-1 2.065 -2.028 4.046 -3.243 5.994 C-7.847 13.845 -7.988 21.788 -8.312 30.625 C-8.384 32.121 -8.458 33.617 -8.533 35.113 C-8.712 38.741 -8.864 42.37 -9 46 C-9.66 45.67 -10.32 45.34 -11 45 C-11.1 41.072 -11.172 37.144 -11.22 33.214 C-11.249 31.234 -11.3 29.255 -11.352 27.275 C-11.443 18.211 -10.917 8.767 -4.375 1.812 C-2 0 -2 0 0 0 Z " fill="#3C7928" transform="translate(17,50)"/>
<path d="M0 0 C1.32 0.33 2.64 0.66 4 1 C6.255 9.909 6.597 18.863 7 28 C6.67 27.34 6.34 26.68 6 26 C4.68 26 3.36 26 2 26 C1.34 27.32 0.68 28.64 0 30 C0.291 23.581 1.452 19.379 5 14 C4.34 14 3.68 14 3 14 C2.34 15.32 1.68 16.64 1 18 C0.67 18 0.34 18 0 18 C0 12.06 0 6.12 0 0 Z " fill="#38830A" transform="translate(69,91)"/>
<path d="M0 0 C2.383 -0.293 2.383 -0.293 5.125 -0.188 C6.035 -0.16 6.945 -0.133 7.883 -0.105 C8.581 -0.071 9.28 -0.036 10 0 C10 0.33 10 0.66 10 1 C8.35 1 6.7 1 5 1 C4.938 2.279 4.876 3.558 4.812 4.875 C4.198 10.492 2.083 15.286 -1 20 C-1.495 20.33 -1.495 20.33 -4 22 C-5.166 18.502 -4.499 16.665 -3.539 13.195 C-3.003 11.014 -2.722 8.92 -2.5 6.688 C-2 3 -2 3 0 0 Z " fill="#1E6306" transform="translate(139,69)"/>
<path d="M0 0 C0.66 0.33 1.32 0.66 2 1 C1.01 1.66 0.02 2.32 -1 3 C-1.66 2.67 -2.32 2.34 -3 2 C-7.387 1.386 -10.281 1.779 -13.938 4.188 C-22.37 11.143 -26.974 21.47 -29 32 C-31.208 28.688 -31.276 27.228 -30.66 23.375 C-27.9 13.445 -21.357 6.285 -13.5 0 C-8.905 -1.838 -4.646 -1.549 0 0 Z " fill="#2E741A" transform="translate(78,17)"/>
<path d="M0 0 C0 1.98 0 3.96 0 6 C0.66 6 1.32 6 2 6 C2.454 11.744 1.244 15.238 -1.875 19.938 C-2.24 20.526 -2.605 21.114 -2.98 21.721 C-3.92 23.192 -4.954 24.603 -6 26 C-6.66 26 -7.32 26 -8 26 C-7.772 25.096 -7.544 24.193 -7.309 23.262 C-7.021 22.082 -6.734 20.903 -6.438 19.688 C-6.147 18.516 -5.857 17.344 -5.559 16.137 C-5 13 -5 13 -6 10 C-3.857 0 -3.857 0 0 0 Z " fill="#33780F" transform="translate(74,128)"/>
<path d="M0 0 C-0.361 0.309 -0.361 0.309 -2.188 1.875 C-7.094 6.753 -9.521 13.66 -12 20 C-12.66 20 -13.32 20 -14 20 C-14.33 19.34 -14.66 18.68 -15 18 C-16.32 19.32 -17.64 20.64 -19 22 C-17.612 13.415 -12.36 5.218 -5.375 0.062 C-3 -1 -3 -1 0 0 Z " fill="#6AAE1F" transform="translate(103,90)"/>
<path d="M0 0 C0 1.98 0 3.96 0 6 C-0.66 5.34 -1.32 4.68 -2 4 C-4.31 7.63 -6.62 11.26 -9 15 C-10 13 -10 13 -10 9 C-11.65 10.65 -13.3 12.3 -15 14 C-14.376 8.631 -13.024 5.096 -9.25 1.188 C-6.117 -0.466 -3.482 -0.201 0 0 Z " fill="#256109" transform="translate(95,134)"/>
<path d="M0 0 C2.757 5.146 2.757 5.146 3 8 C1.375 10.297 1.375 10.297 -1 12.75 C-1.824 13.619 -2.647 14.488 -3.496 15.383 C-4.322 16.246 -5.149 17.11 -6 18 C-7.363 19.534 -8.719 21.074 -10.062 22.625 C-10.631 23.277 -11.199 23.93 -11.785 24.602 C-12.186 25.063 -12.587 25.525 -13 26 C-13 22.743 -12.485 21.714 -10.918 18.945 C-10.48 18.165 -10.043 17.386 -9.592 16.582 C-9.128 15.771 -8.665 14.96 -8.188 14.125 C-7.736 13.322 -7.284 12.519 -6.818 11.691 C-4.6 7.76 -2.349 3.855 0 0 Z " fill="#EEF4E0" transform="translate(93,136)"/>
<path d="M0 0 C5 2 5 2 7 4 C6.723 6.199 6.723 6.199 6 9 C5.876 9.55 5.876 9.55 5.246 12.332 C4.979 13.481 4.712 14.629 4.438 15.812 C4.168 16.974 3.899 18.135 3.621 19.332 C3.416 20.212 3.211 21.093 3 22 C2.67 21.34 2.34 20.68 2 20 C1.34 20 0.68 20 0 20 C0 13.4 0 6.8 0 0 Z " fill="#6DA144" transform="translate(54,131)"/>
<path d="M0 0 C2.163 4.326 2.241 6.433 2.188 11.188 C2.181 11.851 2.175 12.514 2.168 13.198 C2.09 18.193 1.694 23.057 1 28 C-0.32 28 -1.64 28 -3 28 C-4.147 22.749 -3.931 17.935 -3.562 12.625 C-3.51 11.794 -3.458 10.962 -3.404 10.105 C-3.276 8.07 -3.139 6.035 -3 4 C-2.67 4 -2.34 4 -2 4 C-1.67 8.29 -1.34 12.58 -1 17 C-0.67 11.39 -0.34 5.78 0 0 Z " fill="#96C646" transform="translate(48,136)"/>
<path d="M0 0 C2.564 2.066 4.348 4.249 6.172 6.984 C6.297 9.672 6.297 9.672 6.172 11.984 C5.512 10.994 4.852 10.004 4.172 8.984 C-0.267 3.265 -0.267 3.265 -2.828 1.984 C-4.699 1.757 -6.575 1.575 -8.453 1.422 C-9.456 1.338 -10.459 1.254 -11.492 1.168 C-12.263 1.107 -13.034 1.047 -13.828 0.984 C-13.828 1.644 -13.828 2.304 -13.828 2.984 C-14.42 3.166 -15.011 3.348 -15.621 3.535 C-20.041 4.941 -23.954 6.36 -27.828 8.984 C-27.828 7.994 -27.828 7.004 -27.828 5.984 C-21.614 0.278 -7.928 -4.404 0 0 Z " fill="#256419" transform="translate(130.828125,26.015625)"/>
<path d="M0 0 C0.99 0 1.98 0 3 0 C2.727 0.543 2.453 1.085 2.172 1.645 C1.328 3.34 0.508 5.047 -0.297 6.762 C-0.776 7.727 -1.256 8.693 -1.75 9.688 C-2.219 10.661 -2.688 11.634 -3.172 12.637 C-5 15 -5 15 -8.023 15.703 C-9.006 15.801 -9.988 15.899 -11 16 C-13.875 18.062 -13.875 18.062 -16 20 C-13.444 13.958 -8.556 9.556 -4 5 C-3.299 4.072 -2.597 3.144 -1.875 2.188 C-1.256 1.466 -0.638 0.744 0 0 Z " fill="#4F9112" transform="translate(104,134)"/>
<path d="M0 0 C0.33 0 0.66 0 1 0 C2.066 11.446 -1.101 22.027 -4 33 C-4.66 32.67 -5.32 32.34 -6 32 C-7.147 28.292 -6.947 25.801 -5.82 22.129 C-5.551 21.225 -5.281 20.32 -5.004 19.389 C-4.714 18.456 -4.424 17.523 -4.125 16.562 C-0.681 5.234 -0.681 5.234 0 0 Z " fill="#78B51D" transform="translate(63,137)"/>
<path d="M0 0 C0.66 0.33 1.32 0.66 2 1 C2.33 1.99 2.66 2.98 3 4 C3.66 4.33 4.32 4.66 5 5 C6.71 15.585 5.845 26.375 5 37 C4.67 37 4.34 37 4 37 C3.991 36.401 3.981 35.801 3.972 35.183 C3.918 32.434 3.834 29.686 3.75 26.938 C3.736 25.995 3.722 25.052 3.707 24.08 C3.492 17.896 2.539 14.103 -1 9 C-0.34 9 0.32 9 1 9 C0.67 6.03 0.34 3.06 0 0 Z " fill="#7CB726" transform="translate(43,116)"/>
<path d="M0 0 C0.66 0 1.32 0 2 0 C2.562 1.938 2.562 1.938 3 4 C2.67 4.33 2.34 4.66 2 5 C1.768 6.515 1.588 8.038 1.438 9.562 C1.354 10.389 1.27 11.215 1.184 12.066 C1.123 12.704 1.062 13.343 1 14 C0.34 14 -0.32 14 -1 14 C-1.33 15.32 -1.66 16.64 -2 18 C-3.562 17 -3.562 17 -5 15 C-4.823 9.608 -4.022 4.022 0 0 Z " fill="#84BD3A" transform="translate(15,53)"/>
<path d="M0 0 C7.38 6.354 11.398 20.718 14 30 C13.67 30.66 13.34 31.32 13 32 C12.567 31.402 12.134 30.804 11.688 30.188 C10 28 10 28 8.375 26.75 C6.563 24.444 6.749 22.438 6.516 19.594 C5.567 14.821 3.299 10.474 1.277 6.074 C0 3 0 3 0 0 Z " fill="#62A11F" transform="translate(33,89)"/>
<path d="M0 0 C1.32 0 2.64 0 4 0 C9 8.754 9 8.754 9 13.188 C8 16 8 16 6.438 19.188 C4.889 22.476 4.947 25.079 5.125 28.688 C5.303 33.674 5.303 33.674 2.5 36.688 C1.675 37.121 0.85 37.554 0 38 C0.16 37.739 0.16 37.739 0.973 36.418 C2.291 33.315 2.315 30.677 2.438 27.312 C2.678 22.858 3.088 19.105 4.688 14.938 C6.061 11.289 6.061 11.289 5.438 8.312 C3.686 5.495 1.899 2.721 0 0 Z " fill="#196102" transform="translate(72,52)"/>
<path d="M0 0 C0.66 0.66 1.32 1.32 2 2 C1.664 6.14 -0.039 9.239 -2.062 12.812 C-2.61 13.788 -3.158 14.764 -3.723 15.77 C-4.144 16.506 -4.566 17.242 -5 18 C-6.65 18 -8.3 18 -10 18 C-10.33 16.68 -10.66 15.36 -11 14 C-10.243 13.622 -9.487 13.245 -8.707 12.855 C-5.514 10.667 -4.423 8.743 -2.688 5.312 C-2.432 4.816 -2.432 4.816 -1.137 2.301 C-0.762 1.542 -0.386 0.782 0 0 Z " fill="#80B626" transform="translate(72,153)"/>
<path d="M0 0 C0.625 1.875 0.625 1.875 1 4 C0.34 4.66 -0.32 5.32 -1 6 C-4.206 12.411 -4.21 17.812 -3.91 24.926 C-4 28 -4 28 -6 31 C-5.99 30.421 -5.99 30.421 -5.938 27.492 C-6.003 15.331 -6.003 15.331 -8.848 11.535 C-10.851 10.09 -12.723 8.949 -15 8 C-14.01 7.67 -13.02 7.34 -12 7 C-10.176 7.996 -10.176 7.996 -8.312 9.438 C-7.69 9.911 -7.067 10.384 -6.426 10.871 C-5.955 11.244 -5.485 11.616 -5 12 C-4.918 11.134 -4.835 10.267 -4.75 9.375 C-3.894 5.523 -2.326 3.152 0 0 Z " fill="#115503" transform="translate(47,46)"/>
<path d="M0 0 C1.667 1.667 3.333 3.333 5 5 C5.763 5.557 6.526 6.114 7.312 6.688 C10.04 10.425 9.307 14.525 9 19 C8.34 19 7.68 19 7 19 C3.626 12.834 1.655 6.822 0 0 Z " fill="#256905" transform="translate(58,79)"/>
<path d="M0 0 C0.66 0 1.32 0 2 0 C1.928 0.495 1.928 0.495 1.562 3 C0.991 6.994 0.492 10.995 0 15 C1.65 15.33 3.3 15.66 5 16 C4.67 16.99 4.34 17.98 4 19 C2.35 19 0.7 19 -1 19 C-1.33 17.68 -1.66 16.36 -2 15 C-2.485 15.01 -2.485 15.01 -4.938 15.062 C-8 15 -8 15 -9 14 C-9.041 12.334 -9.043 10.666 -9 9 C-8.67 9.495 -8.67 9.495 -7 12 C-4.875 12.688 -4.875 12.688 -3 13 C-2.867 12.397 -2.734 11.793 -2.598 11.172 C-2.421 10.373 -2.244 9.573 -2.062 8.75 C-1.888 7.961 -1.714 7.172 -1.535 6.359 C-1.052 4.231 -0.538 2.115 0 0 Z " fill="#478416" transform="translate(53,152)"/>
<path d="M0 0 C-1.875 5.75 -1.875 5.75 -3 8 C-5.903 9.375 -7.761 10 -11 10 C-10.69 6.593 -10.312 4.44 -8.312 1.625 C-5.376 -0.439 -3.514 -0.319 0 0 Z " fill="#6DB92B" transform="translate(98,47)"/>
<path d="M0 0 C0.66 0.99 1.32 1.98 2 3 C0.295 5.045 -1.414 7.086 -3.125 9.125 C-3.599 9.695 -4.074 10.265 -4.562 10.852 C-13.653 21.662 -13.653 21.662 -17.336 22.586 C-18.009 22.516 -18.682 22.447 -19.375 22.375 C-20.571 22.251 -21.767 22.127 -23 22 C-23 21.67 -23 21.34 -23 21 C-22.175 20.814 -21.35 20.629 -20.5 20.438 C-11.142 16.594 -5.659 7.977 0 0 Z " fill="#E5E2BF" transform="translate(98,152)"/>
<path d="M0 0 C0.33 0 0.66 0 1 0 C1.058 3.458 1.094 6.916 1.125 10.375 C1.142 11.36 1.159 12.345 1.176 13.359 C1.182 14.3 1.189 15.241 1.195 16.211 C1.206 17.08 1.216 17.95 1.227 18.845 C1 21 1 21 -1 23 C-1.206 22.412 -1.206 22.412 -2.25 19.438 C-3.341 16.479 -4.598 13.871 -6.25 11.188 C-6.828 10.136 -7.405 9.084 -8 8 C-7.67 7.01 -7.34 6.02 -7 5 C-5.68 7.31 -4.36 9.62 -3 12 C-2.67 12 -2.34 12 -2 12 C-1.34 8.04 -0.68 4.08 0 0 Z " fill="#39860C" transform="translate(31,58)"/>
<path d="M0 0 C-0.575 3.859 -2.358 5.895 -4.938 8.75 C-5.648 9.549 -6.358 10.348 -7.09 11.172 C-9 13 -9 13 -11 13 C-10.763 5.994 -10.763 5.994 -8.738 3.355 C-5.619 0.629 -4.212 0 0 0 Z " fill="#7DB934" transform="translate(70,19)"/>
<path d="M0 0 C0.99 0 1.98 0 3 0 C3.778 5.389 1.031 9.279 -1.5 13.812 C-1.929 14.601 -2.359 15.389 -2.801 16.201 C-3.858 18.139 -4.925 20.072 -6 22 C-7.015 18.847 -7.136 18.285 -5.625 15.125 C-5.089 14.094 -4.552 13.062 -4 12 C-3.835 11.01 -3.67 10.02 -3.5 9 C-2.929 5.571 -1.661 3.034 0 0 Z " fill="#AAD33E" transform="translate(80,130)"/>
<path d="M0 0 C0.33 0.66 0.66 1.32 1 2 C0.012 4.614 0.012 4.614 -1.527 7.883 C-2.072 9.049 -2.617 10.216 -3.178 11.418 C-3.764 12.654 -4.351 13.889 -4.938 15.125 C-5.521 16.368 -6.104 17.612 -6.686 18.855 C-8.117 21.907 -9.555 24.955 -11 28 C-10.01 28 -9.02 28 -8 28 C-8.33 28.66 -8.66 29.32 -9 30 C-10.32 30 -11.64 30 -13 30 C-12.434 24.089 -10.075 19.201 -7.625 13.875 C-7.225 12.982 -6.826 12.088 -6.414 11.168 C-4.566 7.102 -2.788 3.514 0 0 Z " fill="#62AC19" transform="translate(112,60)"/>
<path d="M0 0 C0.99 0.33 1.98 0.66 3 1 C3.125 6.75 3.125 6.75 2 9 C1.77 11.204 1.589 13.414 1.438 15.625 C1.354 16.814 1.27 18.002 1.184 19.227 C1.123 20.142 1.062 21.057 1 22 C0.34 22 -0.32 22 -1 22 C-1.389 19.543 -1.761 17.086 -2.125 14.625 C-2.237 13.926 -2.349 13.228 -2.465 12.508 C-2.728 10.682 -2.872 8.84 -3 7 C-2.34 6.34 -1.68 5.68 -1 5 C-0.375 2.375 -0.375 2.375 0 0 Z " fill="#39800F" transform="translate(51,116)"/>
<path d="M0 0 C0.33 0 0.66 0 1 0 C1.342 11.174 0.935 21.135 -2 32 C-2.33 32 -2.66 32 -3 32 C-3.597 21.124 -1.789 10.692 0 0 Z " fill="#5F9E13" transform="translate(67,113)"/>
<path d="M0 0 C-0.498 3.689 -1.024 5.685 -4 8 C-6.323 9.306 -8.459 10.153 -11 11 C-11.312 8.75 -11.312 8.75 -11 6 C-7.978 3.062 -4.383 0 0 0 Z " fill="#327C05" transform="translate(100,105)"/>
<path d="M0 0 C1.32 0 2.64 0 4 0 C4.33 1.32 4.66 2.64 5 4 C4.34 4 3.68 4 3 4 C1.616 5.965 0.288 7.97 -1 10 C-1.989 11.342 -2.984 12.679 -4 14 C-4.506 12.564 -5.004 11.126 -5.5 9.688 C-5.778 8.887 -6.057 8.086 -6.344 7.262 C-7 5 -7 5 -7 2 C-4.007 2.998 -3.052 3.752 -1 6 C-0.67 4.02 -0.34 2.04 0 0 Z " fill="#2A7306" transform="translate(50,70)"/>
<path d="M0 0 C0.66 0 1.32 0 2 0 C2.33 2.31 2.66 4.62 3 7 C-3.625 8.125 -3.625 8.125 -7 7 C-6.67 7.66 -6.34 8.32 -6 9 C-5.538 14.423 -5.538 14.423 -7.5 16.875 C-7.995 17.246 -8.49 17.618 -9 18 C-9 14.333 -9 10.667 -9 7 C-7.02 6.34 -5.04 5.68 -3 5 C-3 4.34 -3 3.68 -3 3 C-2.34 3 -1.68 3 -1 3 C-0.67 2.01 -0.34 1.02 0 0 Z " fill="#38890A" transform="translate(91,79)"/>
<path d="M0 0 C0.33 0 0.66 0 1 0 C1.33 1.65 1.66 3.3 2 5 C2.99 5.165 2.99 5.165 8 6 C8.33 6.99 8.66 7.98 9 9 C10.114 8.938 11.227 8.876 12.375 8.812 C12.973 8.843 12.973 8.843 16 9 C16.33 9.495 16.33 9.495 18 12 C17 13 17 13 14.25 13.25 C10.588 12.968 9.017 12.011 6 10 C4.339 9.32 2.673 8.651 1 8 C0 7 0 7 -0.062 3.438 C-0.042 2.303 -0.021 1.169 0 0 Z " fill="#E3E3BF" transform="translate(43,161)"/>
<path d="M0 0 C2.252 2.688 3.882 4.646 5 8 C4.34 8 3.68 8 3 8 C5.132 12.672 7.025 16.593 11 20 C8 20 8 20 6.246 18.391 C5.948 18.037 5.948 18.037 4.438 16.25 C3.838 15.554 3.239 14.858 2.621 14.141 C-1.015 9.34 -1.015 9.34 -0.977 5.859 C-0.651 3.906 -0.326 1.953 0 0 Z " fill="#336F16" transform="translate(8,92)"/>
<path d="M0 0 C0.66 0 1.32 0 2 0 C0.484 4.115 -0.81 6.123 -4.375 8.75 C-7.247 11.212 -8.93 13.859 -11 17 C-11.66 17 -12.32 17 -13 17 C-12.016 14.048 -10.803 11.69 -9.25 9 C-8.76 8.134 -8.27 7.267 -7.766 6.375 C-5.786 3.713 -3.907 2.54 -1 1 C-0.67 0.67 -0.34 0.34 0 0 Z " fill="#4F9C0C" transform="translate(94,112)"/>
<path d="M0 0 C-0.188 1.812 -0.188 1.812 -1 4 C-4.205 6.404 -7.054 7.436 -11 8 C-11 7.34 -11 6.68 -11 6 C-11.66 6 -12.32 6 -13 6 C-12.67 5.01 -12.34 4.02 -12 3 C-10.039 2.051 -10.039 2.051 -7.625 1.312 C-6.834 1.061 -6.042 0.81 -5.227 0.551 C-3 0 -3 0 0 0 Z " fill="#7DBF39" transform="translate(120,28)"/>
<path d="M0 0 C0.66 0 1.32 0 2 0 C3.252 2.505 3.114 4.209 3.098 7.008 C3.094 7.994 3.091 8.98 3.088 9.996 C3.08 11.029 3.071 12.061 3.062 13.125 C3.058 14.165 3.053 15.206 3.049 16.277 C3.037 18.852 3.021 21.426 3 24 C2.67 24 2.34 24 2 24 C1.67 18.06 1.34 12.12 1 6 C0.01 5.67 -0.98 5.34 -2 5 C-2 4.34 -2 3.68 -2 3 C-4.64 3 -7.28 3 -10 3 C-10 2.67 -10 2.34 -10 2 C-6.7 2 -3.4 2 0 2 C0 1.34 0 0.68 0 0 Z " fill="#2F740E" transform="translate(44,130)"/>
<path d="M0 0 C3.161 1.37 3.993 1.989 6 5 C5.67 5.99 5.34 6.98 5 8 C5 7.34 5 6.68 5 6 C4.505 6.103 4.505 6.103 2 6.625 C-2.378 7.279 -5.793 6.255 -10 5 C-10 4.34 -10 3.68 -10 3 C-7.03 3 -4.06 3 -1 3 C-0.67 2.01 -0.34 1.02 0 0 Z " fill="#266D07" transform="translate(35,109)"/>
<path d="M0 0 C0.66 0 1.32 0 2 0 C3.625 2 3.625 2 5 4 C3.375 6.938 3.375 6.938 1 10 C-2.25 10.875 -2.25 10.875 -5 11 C-3.55 7.209 -1.848 3.613 0 0 Z " fill="#478E08" transform="translate(79,150)"/>
<path d="M0 0 C-0.62 3.356 -1.845 5.523 -3.875 8.25 C-4.388 8.956 -4.901 9.663 -5.43 10.391 C-5.948 10.922 -6.466 11.453 -7 12 C-7.99 12 -8.98 12 -10 12 C-9.34 10.68 -8.68 9.36 -8 8 C-8.99 7.34 -9.98 6.68 -11 6 C-10.257 5.567 -9.515 5.134 -8.75 4.688 C-6 3 -6 3 -3.812 1.312 C-2 0 -2 0 0 0 Z " fill="#6BAE19" transform="translate(97,148)"/>
<path d="M0 0 C3.294 0.549 6.108 1.302 9 3 C10.947 6.173 12.038 9.416 13 13 C12.34 13 11.68 13 11 13 C11 12.34 11 11.68 11 11 C10.216 10.691 9.432 10.381 8.625 10.062 C6 9 6 9 4 8 C4 6.68 4 5.36 4 4 C2 1.75 2 1.75 0 0 Z " fill="#3C890C" transform="translate(20,78)"/>
<path d="M0 0 C1.414 2.639 2.372 5.071 3 8 C0.062 10.503 -2.179 11.469 -6 12 C-4.434 7.692 -2.317 3.938 0 0 Z " fill="#E3EBDD" transform="translate(93,136)"/>
<path d="M0 0 C0.33 0 0.66 0 1 0 C0.977 0.941 0.954 1.882 0.93 2.852 C0.912 4.097 0.894 5.342 0.875 6.625 C0.852 7.855 0.829 9.085 0.805 10.352 C0.998 13.962 1.773 16.626 3 20 C3.125 23.375 3.125 23.375 3 26 C2.01 26 1.02 26 0 26 C-1.135 17.346 -1.861 8.606 0 0 Z " fill="#0F5101" transform="translate(76,99)"/>
<path d="M0 0 C2 1 2 1 3.125 3.188 C4.367 7.178 4.679 10.435 2.992 14.324 C1.874 17.341 1.798 19.609 1.875 22.812 C1.893 23.788 1.911 24.764 1.93 25.77 C1.953 26.506 1.976 27.242 2 28 C1.34 28 0.68 28 0 28 C-0.161 16.092 -0.161 16.092 0.562 11.188 C1.108 7.213 0.624 3.955 0 0 Z " fill="#145B01" transform="translate(42,74)"/>
<path d="M0 0 C0.99 0.66 0.99 0.66 6 4 C5.34 6.97 4.68 9.94 4 13 C0.622 9.622 -0.015 7.598 -1 3 C-0.67 2.01 -0.34 1.02 0 0 Z " fill="#236C04" transform="translate(46,111)"/>
<path d="M0 0 C0.33 0 0.66 0 1 0 C1.185 16.708 1.185 16.708 0 25 C-0.33 25 -0.66 25 -1 25 C-1.863 16.258 -2.435 8.552 0 0 Z " fill="#8AC528" transform="translate(67,97)"/>
<path d="M0 0 C2 2 2 2 2.266 4.828 C2.26 5.957 2.255 7.087 2.25 8.25 C2.253 8.809 2.253 8.809 2.266 11.641 C1.995 15.061 1.22 17.806 0 21 C-1.32 20.67 -2.64 20.34 -4 20 C-3.01 20 -2.02 20 -1 20 C-1.021 18.742 -1.041 17.484 -1.062 16.188 C-1.071 10.755 -0.565 5.399 0 0 Z " fill="#77B221" transform="translate(50,144)"/>
<path d="M0 0 C0.99 0.33 1.98 0.66 3 1 C1.02 2.98 -0.96 4.96 -3 7 C0.96 7.33 4.92 7.66 9 8 C9 8.33 9 8.66 9 9 C8.096 9.049 7.193 9.098 6.262 9.148 C5.672 9.186 5.672 9.186 2.688 9.375 C2.102 9.41 2.102 9.41 -0.863 9.586 C-4 10 -4 10 -7 12 C-6.326 7.787 -4.225 4.574 -2 1 C-1.34 0.67 -0.68 0.34 0 0 Z " fill="#347617" transform="translate(106,138)"/>
<path d="M0 0 C0.825 0.33 0.825 0.33 5 2 C4.718 3.793 4.424 5.585 4.125 7.375 C3.963 8.373 3.8 9.37 3.633 10.398 C3 13 3 13 1 15 C0.153 9.919 -0.09 5.152 0 0 Z " fill="#EAF3E2" transform="translate(54,131)"/>
<path d="M0 0 C0.33 0 0.66 0 1 0 C1.66 3.96 2.32 7.92 3 12 C2.67 11.34 2.34 10.68 2 10 C0.68 10 -0.64 10 -2 10 C-2.66 11.32 -3.32 12.64 -4 14 C-3.663 8.671 -3.385 4.372 0 0 Z " fill="#41890D" transform="translate(73,107)"/>
<path d="M0 0 C0.33 0 0.66 0 1 0 C1.33 1.98 1.66 3.96 2 6 C3.98 4.35 5.96 2.7 8 1 C8.33 1.66 8.66 2.32 9 3 C6.212 7.749 5.355 8.858 0 11 C0 7.37 0 3.74 0 0 Z " fill="#2F7C06" transform="translate(71,42)"/>
<path d="M0 0 C0.66 0.33 1.32 0.66 2 1 C1.67 1.495 1.67 1.495 0 4 C0.33 4.66 0.66 5.32 1 6 C-0.375 8 -0.375 8 -2 10 C-2.66 10 -3.32 10 -4 10 C-4 9.34 -4 8.68 -4 8 C-5.65 8.66 -7.3 9.32 -9 10 C-8.064 8.894 -7.126 7.791 -6.188 6.688 C-5.665 6.073 -5.143 5.458 -4.605 4.824 C-3.128 3.146 -1.6 1.561 0 0 Z " fill="#81C122" transform="translate(88,155)"/>
<path d="M0 0 C-0.351 0.299 -0.351 0.299 -2.125 1.812 C-6.16 5.789 -8.455 11.006 -11 16 C-12 13 -12 13 -10.625 10.125 C-10.089 9.094 -9.552 8.062 -9 7 C-8.876 6.113 -8.752 5.226 -8.625 4.312 C-8 2 -8 2 -5.625 0.125 C-3 -1 -3 -1 0 0 Z " fill="#87C634" transform="translate(103,90)"/>
<path d="M0 0 C0.33 0 0.66 0 1 0 C1.286 4.039 1.456 7.97 1 12 C-1.5 14.75 -1.5 14.75 -4 16 C-4 13.36 -4 10.72 -4 8 C-3.01 7.67 -2.02 7.34 -1 7 C-0.67 4.69 -0.34 2.38 0 0 Z " fill="#2F7606" transform="translate(74,74)"/>
<path d="M0 0 C4.248 0.49 7.15 2.997 10 6 C11.83 8.58 13.453 11.242 15 14 C14.67 14.495 14.67 14.495 13 17 C12.526 15.845 12.051 14.69 11.562 13.5 C9.243 8.768 5.849 5.881 1.828 2.566 C1.225 2.049 0.622 1.533 0 1 C0 0.67 0 0.34 0 0 Z " fill="#296117" transform="translate(78,19)"/>
<path d="M0 0 C0.66 0.33 1.32 0.66 2 1 C1.01 1.66 0.02 2.32 -1 3 C-1.66 2.67 -2.32 2.34 -3 2 C-8.259 1.595 -11.453 2.338 -16 5 C-16 4.01 -16 3.02 -16 2 C-11.164 -2.081 -5.751 -1.917 0 0 Z " fill="#3A7827" transform="translate(78,17)"/>
<path d="M0 0 C0.33 0 0.66 0 1 0 C1.185 11.522 1.185 11.522 0 17 C-0.66 16.67 -1.32 16.34 -2 16 C-3.31 11.97 -2.767 9.186 -1.562 5.188 C-1.275 4.212 -0.988 3.236 -0.691 2.23 C-0.463 1.494 -0.235 0.758 0 0 Z " fill="#88BD27" transform="translate(59,153)"/>
<path d="M0 0 C-2.31 2.97 -4.62 5.94 -7 9 C-9 6 -9 6 -8.625 2.812 C-8.419 1.884 -8.213 0.956 -8 0 C-4.713 -0.8 -3.29 -1.097 0 0 Z " fill="#236506" transform="translate(104,135)"/>
<path d="M0 0 C0.33 0 0.66 0 1 0 C1 1.98 1 3.96 1 6 C1.66 6 2.32 6 3 6 C2.393 10.128 0.962 13.332 -1 17 C-2.12 13.641 -1.696 11.38 -1.184 7.934 C-0.977 5.756 -1.436 4.094 -2 2 C-1.34 1.34 -0.68 0.68 0 0 Z " fill="#71A64F" transform="translate(73,128)"/>
<path d="M0 0 C0.33 0.165 0.33 0.165 2 1 C2.625 3.562 2.625 3.562 3 6 C4.65 6.33 6.3 6.66 8 7 C8.33 5.68 8.66 4.36 9 3 C9.33 3.495 9.33 3.495 11 6 C9.875 7.5 9.875 7.5 8 9 C4.938 9.312 4.938 9.312 2 9 C0 7 0 7 -0.125 3.375 C-0.084 2.261 -0.042 1.148 0 0 Z " fill="#447D11" transform="translate(59,164)"/>
<path d="M0 0 C0.33 0 0.66 0 1 0 C1 2.31 1 4.62 1 7 C0.34 7 -0.32 7 -1 7 C-1.33 8.32 -1.66 9.64 -2 11 C-3.5 9.812 -3.5 9.812 -5 8 C-5.188 5.312 -5.188 5.312 -5 3 C-4.361 2.876 -3.721 2.752 -3.062 2.625 C-2.722 2.522 -2.722 2.522 -1 2 C-0.67 1.34 -0.34 0.68 0 0 Z " fill="#7DB635" transform="translate(15,60)"/>
<path d="M0 0 C0.99 0.33 1.98 0.66 3 1 C2.63 3.741 2.314 5.586 0.625 7.812 C-1 9 -1 9 -4 9 C-3.355 5.515 -1.899 2.972 0 0 Z " fill="#C3E361" transform="translate(65,158)"/>
<path d="M0 0 C1.619 2.572 2.044 3.677 1.625 6.75 C1.419 7.493 1.213 8.235 1 9 C0.01 9 -0.98 9 -2 9 C-2 8.34 -2 7.68 -2 7 C-2.99 7 -3.98 7 -5 7 C-4.602 4.114 -4.21 3.178 -1.938 1.25 C-1.298 0.838 -0.659 0.425 0 0 Z " fill="#5BA413" transform="translate(88,107)"/>
<path d="M0 0 C0.66 0.33 1.32 0.66 2 1 C0.781 2.301 -0.451 3.59 -1.688 4.875 C-2.372 5.594 -3.056 6.314 -3.762 7.055 C-6.096 9.083 -8.085 10.03 -11 11 C-10.398 8.98 -9.727 6.979 -9 5 C-8.34 4.67 -7.68 4.34 -7 4 C-6.67 4.66 -6.34 5.32 -6 6 C-4.02 4.02 -2.04 2.04 0 0 Z " fill="#2C6807" transform="translate(86,155)"/>
<path d="M0 0 C0.66 0.33 1.32 0.66 2 1 C1.541 1.329 1.082 1.657 0.609 1.996 C-4.516 5.969 -6.83 9.934 -9 16 C-10.274 13.453 -9.802 12.572 -9.062 9.875 C-8.868 9.151 -8.673 8.426 -8.473 7.68 C-8.317 7.125 -8.161 6.571 -8 6 C-7.34 6 -6.68 6 -6 6 C-5.67 5.01 -5.34 4.02 -5 3 C-2.562 1.25 -2.562 1.25 0 0 Z " fill="#1D5A15" transform="translate(137,121)"/>
<path d="M0 0 C0.99 0.33 1.98 0.66 3 1 C2.257 1.681 1.515 2.361 0.75 3.062 C-2.244 6.031 -4.034 9.287 -6 13 C-6.75 11.438 -6.75 11.438 -7 9 C-5.349 4.97 -3.648 2.432 0 0 Z " fill="#154F02" transform="translate(87,135)"/>
<path d="M0 0 C0.66 0.33 1.32 0.66 2 1 C0.064 7.702 0.064 7.702 -3 10 C-3.66 10 -4.32 10 -5 10 C-3.844 6.088 -2.645 3.125 0 0 Z " fill="#277804" transform="translate(111,67)"/>
<path d="M0 0 C-3.22 2.147 -6.438 3.5 -10 5 C-11.34 5.653 -12.677 6.312 -14 7 C-14 6.01 -14 5.02 -14 4 C-9.706 0.033 -5.756 -1.871 0 0 Z " fill="#347622" transform="translate(117,28)"/>
<path d="M0 0 C0.99 0.33 1.98 0.66 3 1 C2.59 1.471 2.18 1.941 1.758 2.426 C1.488 2.737 1.488 2.737 0.125 4.312 C-0.409 4.927 -0.942 5.542 -1.492 6.176 C-3 8 -3 8 -5 11 C-5.66 11 -6.32 11 -7 11 C-5.514 6.407 -3.15 3.564 0 0 Z " fill="#90C53F" transform="translate(67,20)"/>
<path d="M0 0 C2.209 3.314 2.225 4.345 2.125 8.188 C2.107 9.089 2.089 9.99 2.07 10.918 C2.059 11.262 2.059 11.262 2 13 C2.66 13 3.32 13 4 13 C4 15.64 4 18.28 4 21 C1.233 18.233 1.305 15.348 0.875 11.625 C0.832 11.289 0.832 11.289 0.613 9.586 C0.212 6.353 0 3.265 0 0 Z " fill="#609F1A" transform="translate(48,125)"/>
<path d="M0 0 C0.33 0.66 0.66 1.32 1 2 C-0.782 6.652 -2.519 8.82 -7 11 C-7 7.221 -6.003 6.539 -3.5 3.812 C-2.85 3.097 -2.201 2.382 -1.531 1.645 C-1.026 1.102 -0.521 0.559 0 0 Z " fill="#247004" transform="translate(130,60)"/>
<path d="M0 0 C1.32 0 2.64 0 4 0 C4.33 1.32 4.66 2.64 5 4 C4.34 4 3.68 4 3 4 C1.375 6.5 1.375 6.5 0 9 C-0.99 8.67 -1.98 8.34 -3 8 C-2.67 7.34 -2.34 6.68 -2 6 C-1.67 6 -1.34 6 -1 6 C-0.67 4.02 -0.34 2.04 0 0 Z " fill="#337F09" transform="translate(50,70)"/>
<path d="M0 0 C0.66 0 1.32 0 2 0 C2.66 1.32 3.32 2.64 4 4 C3 5 3 5 0.496 5.098 C-0.009 5.092 -0.009 5.092 -2.562 5.062 C-3.574 5.053 -4.586 5.044 -5.629 5.035 C-6.411 5.024 -7.194 5.012 -8 5 C-8 4.67 -8 4.34 -8 4 C-7.526 3.856 -7.526 3.856 -5.125 3.125 C-2 2 -2 2 0 0 Z " fill="#DEE0B2" transform="translate(70,169)"/>
<path d="M0 0 C0.99 0 1.98 0 3 0 C1.502 3.112 -0.199 6.053 -2 9 C-2.66 7.68 -3.32 6.36 -4 5 C-2.188 2.5 -2.188 2.5 0 0 Z " fill="#5AA014" transform="translate(104,134)"/>
<path d="M0 0 C1.98 0 3.96 0 6 0 C5.188 2.938 5.188 2.938 4 6 C3.01 6.33 2.02 6.66 1 7 C0.67 4.69 0.34 2.38 0 0 Z " fill="#78C02F" transform="translate(92,47)"/>
<path d="M0 0 C1.604 -0.054 3.208 -0.093 4.812 -0.125 C5.706 -0.148 6.599 -0.171 7.52 -0.195 C10 0 10 0 13 2 C13 2.66 13 3.32 13 4 C8.71 3.34 4.42 2.68 0 2 C0 1.34 0 0.68 0 0 Z " fill="#2E7120" transform="translate(17,49)"/>
<path d="M0 0 C0.33 0 0.66 0 1 0 C1.268 1.217 1.536 2.434 1.812 3.688 C2.696 7.222 3.834 10.022 6 13 C6.66 13.33 7.32 13.66 8 14 C7.67 14.99 7.34 15.98 7 17 C6.34 17 5.68 17 5 17 C1.724 11.185 -0.734 6.755 0 0 Z " fill="#2F7808" transform="translate(59,38)"/>
<path d="M0 0 C2.31 0 4.62 0 7 0 C7 1.98 7 3.96 7 6 C6.34 5.34 5.68 4.68 5 4 C4.01 4.99 3.02 5.98 2 7 C2 5.02 2 3.04 2 1 C1.34 0.67 0.68 0.34 0 0 Z " fill="#2C661A" transform="translate(88,134)"/>
<path d="M0 0 C1.562 1.25 1.562 1.25 3 3 C2.938 5 2.938 5 2 7 C-0.062 8.75 -0.062 8.75 -2 10 C-1.86 8.52 -1.712 7.041 -1.562 5.562 C-1.481 4.739 -1.4 3.915 -1.316 3.066 C-1 1 -1 1 0 0 Z " fill="#297106" transform="translate(70,131)"/>
<path d="M0 0 C0.66 0.33 1.32 0.66 2 1 C2.33 1.99 2.66 2.98 3 4 C3.66 4.33 4.32 4.66 5 5 C4.67 6.32 4.34 7.64 4 9 C3.67 8.34 3.34 7.68 3 7 C2.67 8.65 2.34 10.3 2 12 C1.01 11.01 0.02 10.02 -1 9 C-0.34 9 0.32 9 1 9 C0.67 6.03 0.34 3.06 0 0 Z " fill="#6FB020" transform="translate(43,116)"/>
<path d="M0 0 C-0.33 1.32 -0.66 2.64 -1 4 C-3.763 4.597 -6.16 5 -9 5 C-8.67 4.01 -8.34 3.02 -8 2 C-5.104 0.552 -3.258 0 0 0 Z " fill="#8ECD40" transform="translate(120,28)"/>
<path d="M0 0 C0.33 0.99 0.66 1.98 1 3 C-0.5 5 -0.5 5 -3 7 C-5.759 7.358 -8.201 7.187 -11 7 C-11 6.67 -11 6.34 -11 6 C-10.557 5.876 -10.557 5.876 -8.312 5.25 C-4.896 3.961 -2.72 2.4 0 0 Z " fill="#DCDCAF" transform="translate(86,167)"/>
<path d="M0 0 C0.33 0 0.66 0 1 0 C1.33 1.98 1.66 3.96 2 6 C4.97 6.33 7.94 6.66 11 7 C11 7.33 11 7.66 11 8 C9.02 8.165 9.02 8.165 -1 9 C-0.67 6.03 -0.34 3.06 0 0 Z " fill="#9EB892" transform="translate(138,61)"/>
<path d="M0 0 C0.625 1.875 0.625 1.875 1 4 C0.34 4.66 -0.32 5.32 -1 6 C-1.714 7.984 -2.386 9.983 -3 12 C-3.66 11.67 -4.32 11.34 -5 11 C-4.469 6.485 -2.634 3.653 0 0 Z " fill="#1F5D16" transform="translate(47,46)"/>
<path d="M0 0 C0.66 0.33 1.32 0.66 2 1 C1.469 4.821 0.503 7.062 -2 10 C-2.688 8.375 -2.688 8.375 -3 6 C-1.562 2.75 -1.562 2.75 0 0 Z " fill="#77B21C" transform="translate(76,146)"/>
<path d="M0 0 C-0.33 0.99 -0.66 1.98 -1 3 C-5.629 4.016 -9.345 3.838 -14 3 C-14 2.67 -14 2.34 -14 2 C-13.687 1.97 -13.687 1.97 -12.102 1.816 C-11.693 1.775 -11.693 1.775 -9.625 1.562 C-8.813 1.481 -8.001 1.4 -7.164 1.316 C-4.391 0.911 -2.912 0 0 0 Z " fill="#E1E5CD" transform="translate(120,145)"/>
<path d="M0 0 C0.99 0.33 1.98 0.66 3 1 C2.67 4.96 2.34 8.92 2 13 C1.67 13 1.34 13 1 13 C0.67 8.71 0.34 4.42 0 0 Z " fill="#A4CA40" transform="translate(61,130)"/>
<path d="M0 0 C0.66 0.66 1.32 1.32 2 2 C1.175 3.98 1.175 3.98 -3 14 C-3.66 13.67 -4.32 13.34 -5 13 C-4.526 12.134 -4.051 11.267 -3.562 10.375 C-2.065 7.14 -1.488 4.5 -1 1 C-0.67 0.67 -0.34 0.34 0 0 Z " fill="#4E9B15" transform="translate(117,46)"/>
<path d="M0 0 C0.66 0 1.32 0 2 0 C1.532 4.056 1.12 7.466 -1 11 C-2.601 6.998 -1.293 3.954 0 0 Z " fill="#3A7C0A" transform="translate(53,152)"/>
<path d="M0 0 C0.66 1.32 1.32 2.64 2 4 C1.639 4.041 1.639 4.041 -0.188 4.25 C-3.553 5.148 -5.416 6.711 -8 9 C-6.075 4.705 -3.905 2.603 0 0 Z " fill="#599620" transform="translate(96,145)"/>
<path d="M0 0 C0.33 0 0.66 0 1 0 C1.081 1.437 1.139 2.874 1.188 4.312 C1.205 4.713 1.205 4.713 1.293 6.738 C0.938 9.479 0.106 10.292 -2 12 C-2.178 7.452 -1.998 4.121 0 0 Z " fill="#C5E559" transform="translate(61,135)"/>
<path d="M0 0 C0.892 0.018 1.784 0.036 2.703 0.055 C3.041 0.066 3.041 0.066 4.75 0.125 C4.75 0.455 4.75 0.785 4.75 1.125 C-4.66 3.606 -4.66 3.606 -9.25 2.125 C-6.038 0.219 -3.711 -0.098 0 0 Z " fill="#65AF1F" transform="translate(119.25,83.875)"/>
<path d="M0 0 C0.33 1.32 0.66 2.64 1 4 C3.64 3.67 6.28 3.34 9 3 C5.775 4.737 2.487 5.891 -1 7 C-1.043 5 -1.041 3 -1 1 C-0.67 0.67 -0.34 0.34 0 0 Z " fill="#236C03" transform="translate(108,79)"/>
<path d="M0 0 C0.773 2.982 1.412 5.976 2 9 C0.68 9.33 -0.64 9.66 -2 10 C-1.86 8.52 -1.712 7.041 -1.562 5.562 C-1.481 4.739 -1.4 3.915 -1.316 3.066 C-1 1 -1 1 0 0 Z " fill="#2C7304" transform="translate(64,148)"/>
<path d="M0 0 C0.66 1.32 1.32 2.64 2 4 C-0.31 5.98 -2.62 7.96 -5 10 C-3.665 6.406 -2.04 3.245 0 0 Z " fill="#C9DEAA" transform="translate(84,152)"/>
<path d="M0 0 C0.66 0 1.32 0 2 0 C3.219 1.461 3.219 1.461 4.5 3.375 C5.922 5.483 7.192 7.192 9 9 C6 9 6 9 4.395 7.539 C4.133 7.223 4.133 7.223 2.812 5.625 C2.548 5.312 2.548 5.312 1.207 3.727 C0 2 0 2 0 0 Z " fill="#1E5E14" transform="translate(10,103)"/>
<path d="M0 0 C0.33 0.99 0.66 1.98 1 3 C1.66 3.33 2.32 3.66 3 4 C0 6 0 6 -3 6 C-2.625 3.562 -2.625 3.562 -2 1 C-1.34 0.67 -0.68 0.34 0 0 Z " fill="#1A5902" transform="translate(105,81)"/>
<path d="M0 0 C2 1 2 1 3.125 3.312 C4 6 4 6 4 10 C3.34 10 2.68 10 2 10 C0.684 6.38 0 3.904 0 0 Z " fill="#0E4E01" transform="translate(42,74)"/>
<path d="M0 0 C0.66 0.99 1.32 1.98 2 3 C1.539 5.262 1.539 5.262 0.625 7.688 C0.477 8.092 0.477 8.092 -0.273 10.137 C-0.513 10.752 -0.753 11.366 -1 12 C-1.66 11.67 -2.32 11.34 -3 11 C-2.01 7.37 -1.02 3.74 0 0 Z " fill="#257404" transform="translate(78,63)"/>
<path d="M0 0 C0.66 0 1.32 0 2 0 C2.33 1.65 2.66 3.3 3 5 C1.35 5 -0.3 5 -2 5 C-1.125 1.125 -1.125 1.125 0 0 Z " fill="#84BB29" transform="translate(76,166)"/>
<path d="M0 0 C0.66 0 1.32 0 2 0 C3.625 2 3.625 2 5 4 C4.34 4.99 4.34 4.99 1 10 C0 7 0 7 1 4 C0.562 1.812 0.562 1.812 0 0 Z " fill="#417D11" transform="translate(79,150)"/>
<path d="M0 0 C0.99 0.33 1.98 0.66 3 1 C3.125 3.875 3.125 3.875 3 7 C2.34 7.66 1.68 8.32 1 9 C0.67 6.03 0.34 3.06 0 0 Z " fill="#2E7808" transform="translate(51,116)"/>
<path d="M0 0 C0.66 0 1.32 0 2 0 C2.33 2.31 2.66 4.62 3 7 C1.68 6.67 0.36 6.34 -1 6 C-1.043 4.334 -1.041 2.666 -1 1 C-0.67 0.67 -0.34 0.34 0 0 Z " fill="#2B8007" transform="translate(91,79)"/>
<path d="M0 0 C0.66 0 1.32 0 2 0 C1.886 1.48 1.759 2.959 1.625 4.438 C1.59 4.849 1.59 4.849 1.414 6.934 C1.277 7.616 1.141 8.297 1 9 C0.67 9.165 0.67 9.165 -1 10 C-1.027 8.521 -1.046 7.042 -1.062 5.562 C-1.074 4.739 -1.086 3.915 -1.098 3.066 C-1 1 -1 1 0 0 Z " fill="#408D0C" transform="translate(94,65)"/>
<path d="M0 0 C0.99 0 1.98 0 3 0 C3 1.65 3 3.3 3 5 C2.01 5.33 1.02 5.66 0 6 C-0.382 4.344 -0.714 2.675 -1 1 C-0.67 0.67 -0.34 0.34 0 0 Z " fill="#99C930" transform="translate(80,130)"/>
<path d="M0 0 C0.66 0.33 1.32 0.66 2 1 C2 2.65 2 4.3 2 6 C2.66 6.33 3.32 6.66 4 7 C2.68 7 1.36 7 0 7 C-0.66 5.35 -1.32 3.7 -2 2 C-1.34 1.34 -0.68 0.68 0 0 Z " fill="#67B124" transform="translate(91,48)"/>
<path d="M0 0 C0.66 0.66 1.32 1.32 2 2 C1.977 4.164 1.977 4.164 1.625 6.625 C1.514 7.442 1.403 8.26 1.289 9.102 C1.194 9.728 1.098 10.355 1 11 C-1.786 6.82 -0.796 4.853 0 0 Z " fill="#357721" transform="translate(48,38)"/>
<path d="M0 0 C0 1.65 0 3.3 0 5 C-1.65 5 -3.3 5 -5 5 C-5 4.01 -5 3.02 -5 2 C-1.125 0 -1.125 0 0 0 Z " fill="#A2CA3B" transform="translate(66,165)"/>
<path d="M0 0 C0.33 0 0.66 0 1 0 C1 2.64 1 5.28 1 8 C0.34 7.67 -0.32 7.34 -1 7 C-1.75 4.562 -1.75 4.562 -2 2 C-1.34 1.34 -0.68 0.68 0 0 Z " fill="#7DB425" transform="translate(58,162)"/>
<path d="M0 0 C0.66 0.33 1.32 0.66 2 1 C0.312 3.5 0.312 3.5 -2 6 C-4.75 6.312 -4.75 6.312 -7 6 C-4.801 3.801 -2.439 1.926 0 0 Z " fill="#76B52A" transform="translate(93,149)"/>
<path d="M0 0 C0.66 0.33 1.32 0.66 2 1 C1.25 5.75 1.25 5.75 -1 8 C-1.931 5.394 -2.149 4.358 -1.062 1.75 C-0.712 1.173 -0.361 0.595 0 0 Z " fill="#6CA216" transform="translate(79,140)"/>
<path d="M0 0 C1.32 0 2.64 0 4 0 C2.63 3.161 2.011 3.993 -1 6 C-0.67 4.02 -0.34 2.04 0 0 Z " fill="#5CA21B" transform="translate(71,117)"/>
<path d="M0 0 C2.312 0.188 2.312 0.188 5 1 C6.812 3.562 6.812 3.562 8 6 C7.01 6 6.02 6 5 6 C4.34 5.01 3.68 4.02 3 3 C2.01 2.67 1.02 2.34 0 2 C0 1.34 0 0.68 0 0 Z " fill="#448D12" transform="translate(14,90)"/>
<path d="M0 0 C4.833 0.414 6.827 2.464 10 6 C6.005 5.385 3.225 3.345 0 1 C0 0.67 0 0.34 0 0 Z " fill="#245815" transform="translate(32,53)"/>
<path d="M0 0 C0.99 0 1.98 0 3 0 C2.34 2.97 1.68 5.94 1 9 C0.67 9 0.34 9 0 9 C0 6.03 0 3.06 0 0 Z " fill="#6AA71D" transform="translate(60,151)"/>
<path d="M0 0 C1.65 0 3.3 0 5 0 C4.67 2.31 4.34 4.62 4 7 C3.67 7 3.34 7 3 7 C3 5.35 3 3.7 3 2 C2.01 2 1.02 2 0 2 C0 1.34 0 0.68 0 0 Z " fill="#255811" transform="translate(56,131)"/>
<path d="M0 0 C0.625 1.812 0.625 1.812 1 4 C0.67 4.495 0.67 4.495 -1 7 C-1.99 7 -2.98 7 -4 7 C-2.926 4.085 -2.222 2.222 0 0 Z " fill="#72B422" transform="translate(94,93)"/>
<path d="M0 0 C0.99 0.33 1.98 0.66 3 1 C2.01 1.825 2.01 1.825 -3 6 C-3 5.34 -3 4.68 -3 4 C-3.66 3.67 -4.32 3.34 -5 3 C-2.688 1.438 -2.688 1.438 0 0 Z " fill="#7DB828" transform="translate(100,89)"/>
<path d="M0 0 C0.33 0 0.66 0 1 0 C1 2.31 1 4.62 1 7 C0.34 7 -0.32 7 -1 7 C-1.33 8.32 -1.66 9.64 -2 11 C-3 9 -3 9 -2.441 6.836 C-2.151 6.024 -1.861 5.212 -1.562 4.375 C-1.275 3.558 -0.988 2.74 -0.691 1.898 C-0.463 1.272 -0.235 0.645 0 0 Z " fill="#6DAB2C" transform="translate(15,60)"/>
<path d="M0 0 C0 0.99 0 1.98 0 3 C-4.222 6 -4.222 6 -7 6 C-7 5.01 -7 4.02 -7 3 C-4.69 2.01 -2.38 1.02 0 0 Z " fill="#227204" transform="translate(122,54)"/>
</svg>
