<?xml version="1.0" encoding="UTF-8"?>
<!-- Generator: visioncortex VTracer 0.6.12 -->
<svg version="1.1" xmlns="http://www.w3.org/2000/svg" width="164" height="185">
<path d="M0 0 C54.12 0 108.24 0 164 0 C164 61.05 164 122.1 164 185 C109.88 185 55.76 185 0 185 C0 123.95 0 62.9 0 0 Z " fill="#FDF6EA" transform="translate(0,0)"/>
<path d="M0 0 C1.32 0 2.64 0 4 0 C5.5 2.25 5.5 2.25 7 5 C8.562 7.375 8.562 7.375 11 9 C13.589 8.987 16.01 8.686 18.562 8.262 C21.026 7.997 22.661 8.247 25 9 C25.982 7.877 26.96 6.752 27.938 5.625 C28.21 5.312 28.21 5.312 29.59 3.727 C31 2 31 2 32 0 C33.65 0.33 35.3 0.66 37 1 C37.125 7.625 37.125 7.625 36 11 C39.598 11.866 43.031 12.101 46.725 12.188 C53.052 12.375 58.376 12.852 63.812 16.355 C65 18 65 18 64.898 20.879 C65 24 65 24 66.977 26.422 C67.851 27.19 68.725 27.958 69.625 28.75 C79.54 38.119 85.44 50.28 86 64 C86.052 64.84 86.103 65.681 86.156 66.547 C86.749 83.635 80.016 99.618 68.938 112.375 C57.058 124.934 40.864 132.495 23.578 133.219 C14.328 133.463 5.814 133.104 -3 130 C-4.004 129.648 -5.008 129.296 -6.043 128.934 C-13.123 126.214 -19.005 122.612 -25 118 C-26.011 117.278 -27.021 116.556 -28.062 115.812 C-40.989 104.649 -46.906 89.154 -48.285 72.57 C-48.705 57.343 -43.548 44.065 -33.562 32.562 C-29.266 28.045 -24.614 23.807 -19 21 C-20.98 21.33 -22.96 21.66 -25 22 C-25.33 20.68 -25.66 19.36 -26 18 C-19.232 13.338 -15.201 12.916 -7.129 13.062 C-4 13 -4 13 0 12 C0 8.04 0 4.08 0 0 Z " fill="#F23516" transform="translate(67,35)"/>
<path d="M0 0 C1.32 0 2.64 0 4 0 C5.5 2.25 5.5 2.25 7 5 C8.562 7.375 8.562 7.375 11 9 C13.589 8.987 16.01 8.686 18.562 8.262 C21.026 7.997 22.661 8.247 25 9 C25.982 7.877 26.96 6.752 27.938 5.625 C28.21 5.312 28.21 5.312 29.59 3.727 C31 2 31 2 32 0 C32.825 0.165 32.825 0.165 37 1 C37.579 4.885 37.69 6.937 35.512 10.293 C34.28 11.816 33.019 13.316 31.727 14.789 C29.916 17.108 28.961 19.234 28 22 C28.699 21.578 29.397 21.157 30.117 20.723 C31.027 20.175 31.937 19.627 32.875 19.062 C33.78 18.517 34.685 17.972 35.617 17.41 C40.249 14.669 43.694 14.783 49 14.75 C49.833 14.729 50.665 14.709 51.523 14.688 C52.32 14.682 53.117 14.677 53.938 14.672 C54.668 14.663 55.399 14.653 56.152 14.644 C56.762 14.761 57.372 14.879 58 15 C58.33 15.495 58.33 15.495 60 18 C59.371 18.014 58.742 18.028 58.094 18.043 C51.739 18.397 46.818 19.648 42 24 C41.835 24.495 41.835 24.495 41 27 C41.846 27.041 42.691 27.082 43.562 27.125 C49.206 28.562 52.817 32.226 56 37 C56.125 39.688 56.125 39.688 56 42 C51.848 41.389 48.732 39.866 45 38 C41.027 36.964 37.282 36.896 33.188 36.938 C32.607 36.942 32.607 36.942 29.668 36.965 C29.228 36.971 29.228 36.971 27 37 C26.625 38.071 26.25 39.142 25.863 40.246 C25.347 41.644 24.83 43.041 24.312 44.438 C24.068 45.145 23.824 45.852 23.572 46.58 C22.801 48.621 22.801 48.621 21 52 C18.293 52.973 18.293 52.973 16 53 C15.367 51.817 14.744 50.628 14.125 49.438 C13.951 49.107 13.951 49.107 13.07 47.434 C11.721 44.366 10.87 41.233 10 38 C-6.287 37.281 -6.287 37.281 -13.227 41.043 C-15.418 42.226 -17.54 42.683 -20 43 C-20.237 40.102 -20.242 38.425 -18.785 35.867 C-14.381 30.774 -10.589 28.434 -4 27 C-7.239 23.619 -10.413 21.216 -15.25 20.812 C-17.507 20.812 -19.746 20.889 -22 21 C-23.32 21 -24.64 21 -26 21 C-25.703 19.141 -25.703 19.141 -25 17 C-18.987 12.837 -14.164 12.641 -6.953 12.957 C-4 13 -4 13 0 12 C0 8.04 0 4.08 0 0 Z " fill="#3D5003" transform="translate(67,35)"/>
<path d="M0 0 C54.12 0 108.24 0 164 0 C164 3.3 164 6.6 164 10 C163.304 9.513 162.608 9.026 161.891 8.524 C158.544 6.76 156.502 6.623 152.738 6.619 C152.107 6.615 152.107 6.615 148.914 6.593 C147.524 6.599 146.133 6.605 144.742 6.612 C143.272 6.608 141.801 6.602 140.331 6.596 C136.343 6.582 132.356 6.588 128.368 6.597 C124.193 6.605 120.018 6.598 115.843 6.593 C108.832 6.587 101.821 6.595 94.811 6.609 C86.707 6.625 78.605 6.62 70.501 6.603 C63.542 6.59 56.582 6.588 49.622 6.596 C45.466 6.6 41.311 6.601 37.155 6.591 C33.248 6.582 29.341 6.588 25.434 6.606 C24.001 6.61 22.568 6.609 21.135 6.602 C19.177 6.594 17.22 6.606 15.262 6.619 C14.715 6.62 14.715 6.62 11.944 6.622 C8.571 7.055 6.689 7.939 4 10 C2.836 13.491 2.877 16.206 2.88 19.891 C2.879 20.595 2.878 21.3 2.877 22.027 C2.876 24.394 2.881 26.762 2.886 29.13 C2.887 30.825 2.887 32.52 2.886 34.215 C2.886 38.822 2.892 43.429 2.899 48.036 C2.905 52.849 2.905 57.661 2.907 62.474 C2.91 71.59 2.918 80.706 2.928 89.822 C2.939 100.199 2.945 110.576 2.95 120.953 C2.96 142.302 2.978 163.651 3 185 C2.01 185 1.02 185 0 185 C0 123.95 0 62.9 0 0 Z " fill="#FEFDFD" transform="translate(0,0)"/>
<path d="M0 0 C0.165 0.33 0.165 0.33 1 2 C4.547 3.042 8.046 3.101 11.725 3.188 C18.052 3.375 23.376 3.852 28.812 7.355 C30 9 30 9 29.898 11.879 C30 15 30 15 31.977 17.422 C32.851 18.19 33.725 18.958 34.625 19.75 C44.54 29.119 50.44 41.28 51 55 C51.052 55.84 51.103 56.681 51.156 57.547 C51.749 74.635 45.016 90.618 33.938 103.375 C22.058 115.934 5.864 123.495 -11.422 124.219 C-20.672 124.463 -29.186 124.104 -38 121 C-38.502 120.824 -38.502 120.824 -41.043 119.934 C-48.123 117.214 -54.005 113.612 -60 109 C-61.011 108.278 -62.021 107.556 -63.062 106.812 C-71.105 99.867 -78.945 88.594 -81 78 C-81.039 75.667 -81.045 73.333 -81 71 C-80.34 71 -79.68 71 -79 71 C-78.792 71.799 -78.585 72.598 -78.371 73.422 C-75.442 83.864 -71.323 93.717 -63 101 C-62.501 101.539 -62.002 102.078 -61.488 102.633 C-51.446 113.447 -36.182 119.548 -21.516 120.273 C-1.937 120.81 15.403 116.657 30.191 102.945 C35.611 97.117 39.896 90.315 43 83 C43.373 82.199 43.745 81.399 44.129 80.574 C49.547 67.226 48.65 51.43 43.477 38.164 C39.631 29.923 34.228 22.632 27 17 C23.399 15.887 19.939 15.892 16.188 15.938 C15.7 15.942 15.7 15.942 13.23 15.965 C12.494 15.976 11.758 15.988 11 16 C11 16.99 11 17.98 11 19 C9.35 18.67 7.7 18.34 6 18 C6.378 15.536 6.695 14.289 8.531 12.551 C13.666 9.321 17.943 8.154 24 8 C21.631 5.631 15.329 6.633 12.015 6.602 C5.474 6.695 1.295 8.127 -4 12 C-4.99 12.33 -5.98 12.66 -7 13 C-6.66 7.558 -3.297 4.063 0 0 Z " fill="#C31A12" transform="translate(102,44)"/>
<path d="M0 0 C1.32 0 2.64 0 4 0 C5.5 2.25 5.5 2.25 7 5 C8.562 7.375 8.562 7.375 11 9 C13.653 8.987 16.14 8.685 18.758 8.262 C21 8 21 8 23 9 C23.029 12.312 23.047 15.625 23.062 18.938 C23.071 19.883 23.079 20.829 23.088 21.803 C23.091 22.702 23.094 23.601 23.098 24.527 C23.103 25.36 23.108 26.193 23.114 27.051 C23 29 23 29 22 30 C19.329 30.141 16.676 30.042 14 30 C13.691 30.639 13.381 31.279 13.062 31.938 C12 34 12 34 11 35 C8.691 35.214 6.377 35.37 4.062 35.5 C-1.977 35.857 -7.987 36.335 -14 37 C-14 37.66 -14 38.32 -14 39 C-14.99 39 -15.98 39 -17 39 C-14.926 34.136 -11.429 31.703 -7 29 C-4.643 28.063 -2.496 27.52 0 27 C-3.008 23.076 -5.893 22.182 -10.555 21.305 C-14.387 20.827 -18.147 20.867 -22 21 C-23.32 21 -24.64 21 -26 21 C-25.703 19.141 -25.703 19.141 -25 17 C-18.987 12.837 -14.164 12.641 -6.953 12.957 C-4 13 -4 13 0 12 C0 8.04 0 4.08 0 0 Z " fill="#386A07" transform="translate(67,35)"/>
<path d="M0 0 C9.152 4.156 14.27 12.957 18.262 21.793 C23.467 35.91 22.834 52.258 16.969 66.051 C9.546 81.716 -2.611 93.24 -18.812 99.551 C-34.463 105.08 -52.506 105.28 -68 99 C-68.33 98.34 -68.66 97.68 -69 97 C-68.392 96.99 -68.392 96.99 -65.312 96.938 C-64.628 96.926 -63.944 96.914 -63.238 96.902 C-61 97 -61 97 -58.654 97.489 C-42.181 100.661 -23.343 98.103 -9.266 88.719 C2.837 79.537 12.701 68.065 15.684 52.777 C17.082 40.501 16.907 28.649 10 18 C9.546 16.866 9.093 15.731 8.625 14.562 C6.685 10.31 4.331 6.165 0 4 C0 2.68 0 1.36 0 0 Z " fill="#EF3B2A" transform="translate(129,62)"/>
<path d="M0 0 C0.842 0.514 1.684 1.029 2.551 1.559 C7.304 4.271 12.064 6.397 17.176 8.309 C17.51 8.436 17.51 8.436 19.204 9.078 C33.207 14.211 52.307 13.98 66.013 8.069 C70.723 5.882 75.307 3.487 79.863 0.996 C80.193 1.326 80.193 1.326 81.863 2.996 C74.1 7.791 66.883 11.867 57.863 13.559 C57.203 13.703 56.543 13.847 55.863 13.996 C55.533 14.656 55.203 15.316 54.863 15.996 C57.668 15.831 57.668 15.831 71.863 14.996 C65.068 19.526 55.996 18.196 48.113 18.184 C47.766 18.183 47.766 18.183 46.008 18.182 C27.262 18.137 8.623 17.381 -8.137 7.996 C-8.503 3.484 -8.503 3.484 -6.824 1.246 C-4.307 -0.618 -2.92 -1.372 0 0 Z " fill="#F0E1C6" transform="translate(45.13671875,155.00390625)"/>
<path d="M0 0 C0.33 0.66 0.66 1.32 1 2 C4.547 3.042 8.046 3.101 11.725 3.188 C18.052 3.375 23.376 3.852 28.812 7.355 C30 9 30 9 29.898 11.879 C30 15 30 15 31.977 17.422 C32.851 18.19 33.725 18.958 34.625 19.75 C45.565 30.088 50.633 42.928 51.086 57.828 C51.147 62.391 51.012 66.534 50 71 C49.67 71 49.34 71 49 71 C48.99 70.69 48.99 70.69 48.94 69.12 C48.845 66.309 48.735 63.498 48.625 60.688 C48.594 59.711 48.563 58.735 48.531 57.729 C48.512 57.26 48.512 57.26 48.414 54.887 C48.383 54.023 48.351 53.159 48.319 52.268 C48 50 48 50 46 47 C45.384 45.135 44.805 43.259 44.25 41.375 C41.034 31.586 35.18 23.374 27 17 C23.399 15.887 19.939 15.892 16.188 15.938 C15.212 15.947 14.236 15.956 13.23 15.965 C12.494 15.976 11.758 15.988 11 16 C11 16.99 11 17.98 11 19 C9.35 18.67 7.7 18.34 6 18 C6.378 15.536 6.695 14.289 8.531 12.551 C13.666 9.321 17.943 8.154 24 8 C21.631 5.631 15.329 6.633 12.015 6.602 C5.474 6.695 1.295 8.127 -4 12 C-4.99 12.33 -5.98 12.66 -7 13 C-6.66 7.558 -3.297 4.063 0 0 Z " fill="#C4110E" transform="translate(102,44)"/>
<path d="M0 0 C10.277 -1.011 16.199 -0.337 24.805 5.859 C27.013 8.013 27.808 8.959 28 12 C27.67 12.66 27.34 13.32 27 14 C28.32 14.33 29.64 14.66 31 15 C29.941 16.957 29.941 16.957 28 19 C24.777 19.574 24.777 19.574 20.938 19.688 C19.591 19.741 18.245 19.796 16.898 19.852 C16.255 19.876 16.255 19.876 13 20 C11.019 20.169 9.039 20.353 7.062 20.562 C6.666 20.604 6.666 20.604 4.66 20.816 C4.112 20.877 3.564 20.938 3 21 C3 21.66 3 22.32 3 23 C2.01 23 1.02 23 0 23 C2.074 18.136 5.571 15.703 10 13 C12.357 12.063 14.504 11.52 17 11 C12.603 6.053 6.752 1.633 0 1 C0 0.67 0 0.34 0 0 Z " fill="#437408" transform="translate(50,51)"/>
<path d="M0 0 C3.875 0.688 3.875 0.688 6.438 2.188 C8.165 5.192 8.182 7.33 7.543 10.719 C6.404 14.076 4.721 15.646 1.875 17.688 C-1.625 18.812 -1.625 18.812 -5.125 18.688 C-8.476 16.334 -9.857 14.81 -10.812 10.812 C-9.554 5.092 -6.213 0.314 0 0 Z " fill="#FDDCBA" transform="translate(50.125,84.3125)"/>
<path d="M0 0 C2.436 1.211 4.682 2.563 7 4 C7 4.66 7 5.32 7 6 C4.69 6.66 2.38 7.32 0 8 C-0.206 7.361 -0.413 6.721 -0.625 6.062 C-2 4 -2 4 -4.777 3.125 C-8 3 -8 3 -10.527 4.59 C-13.042 7.039 -15.551 9.485 -18 12 C-18.656 12.647 -19.312 13.294 -19.988 13.961 C-29.446 23.901 -33.102 36.109 -33.625 49.5 C-33.664 50.322 -33.702 51.145 -33.742 51.992 C-33.835 53.994 -33.919 55.997 -34 58 C-34.66 58 -35.32 58 -36 58 C-39.363 47.91 -36.704 36.17 -32.559 26.711 C-27.143 15.981 -14.288 -3.922 0 0 Z " fill="#C1150C" transform="translate(56,56)"/>
<path d="M0 0 C2.688 1 2.688 1 4.688 3 C4.688 4.32 4.688 5.64 4.688 7 C2.438 9 2.438 9 -0.312 11 C-0.931 11.619 -1.55 12.237 -2.188 12.875 C-6.82 17.508 -11.249 21.338 -17.312 24 C-16.986 18.67 -15.858 15.804 -12.469 11.676 C-11.312 10 -11.312 10 -10.855 8 C-9.527 3.106 -4.839 0 0 0 Z " fill="#F85226" transform="translate(51.3125,58)"/>
<path d="M0 0 C0.33 0 0.66 0 1 0 C1.943 19.673 2.131 35.508 -11.199 51.055 C-11.793 51.697 -12.388 52.339 -13 53 C-13.605 53.683 -14.209 54.366 -14.832 55.07 C-19.761 60.35 -25.453 64.88 -32 68 C-32.99 67.67 -33.98 67.34 -35 67 C-32.349 64.034 -29.207 62.142 -25.875 60 C-16.129 53.45 -9.496 44.833 -5 34 C-4.62 33.169 -4.239 32.337 -3.848 31.48 C0.183 21.454 -0.165 10.656 0 0 Z " fill="#BA1411" transform="translate(150,93)"/>
<path d="M0 0 C0.824 -0.016 1.647 -0.032 2.496 -0.049 C3.284 -0.049 4.071 -0.05 4.883 -0.051 C5.601 -0.054 6.319 -0.057 7.059 -0.06 C8.875 0.312 8.875 0.312 10.875 3.312 C10.211 3.35 9.547 3.387 8.863 3.426 C3.691 3.811 0.199 4.274 -4.125 7.312 C-6.431 8.385 -8.775 9.337 -11.125 10.312 C-11.455 10.477 -11.455 10.477 -13.125 11.312 C-14.665 11.382 -16.208 11.397 -17.75 11.375 C-18.159 11.37 -18.159 11.37 -20.227 11.348 C-20.54 11.342 -20.54 11.342 -22.125 11.312 C-22.125 10.322 -22.125 9.332 -22.125 8.312 C-20.297 6.777 -20.297 6.777 -17.875 5.25 C-17.086 4.743 -16.297 4.237 -15.484 3.715 C-10.016 0.464 -6.307 -0.025 0 0 Z " fill="#699D1C" transform="translate(116.125,49.6875)"/>
<path d="M0 0 C0.66 0.66 1.32 1.32 2 2 C-5.707 6.76 -12.932 10.967 -21.938 12.5 C-24 13 -24 13 -26 16 C-28.367 16.281 -28.367 16.281 -31.305 16.145 C-32.363 16.099 -33.421 16.053 -34.512 16.006 C-35.622 15.942 -36.731 15.878 -37.875 15.812 C-38.977 15.768 -40.079 15.724 -41.215 15.678 C-49.864 15.252 -49.864 15.252 -54 13 C-54.66 13 -55.32 13 -56 13 C-56 12.34 -56 11.68 -56 11 C-57.32 11.33 -58.64 11.66 -60 12 C-60 11.01 -60 10.02 -60 9 C-59.426 9.144 -58.853 9.289 -58.262 9.438 C-37.24 14.031 -18.602 10.171 0 0 Z " fill="#E5C9A8" transform="translate(125,156)"/>
<path d="M0 0 C6.572 0.043 14.179 0.366 19.062 5.25 C21.188 5.875 21.188 5.875 23.062 6.25 C23.392 5.26 23.722 4.27 24.062 3.25 C24.062 5.23 24.062 7.21 24.062 9.25 C19.117 9.745 16.193 8.576 11.992 6.223 C7.754 4.087 3.771 3.998 -0.938 4.25 C-3.604 5.194 -4.681 5.816 -6.133 8.273 C-6.286 8.661 -6.286 8.661 -7.062 10.625 C-9.737 17.235 -9.737 17.235 -10.938 19.25 C-13.562 20 -13.562 20 -15.938 20.25 C-16.267 19.26 -16.597 18.27 -16.938 17.25 C-16.343 17.24 -15.749 17.229 -15.137 17.219 C-12.938 16.25 -12.938 16.25 -11.27 12.906 C-10.747 11.527 -10.241 10.141 -9.75 8.75 C-6.549 0.092 -6.549 0.092 0 0 Z " fill="#CA2606" transform="translate(99.9375,70.75)"/>
<path d="M0 0 C0 0.66 0 1.32 0 2 C-16.409 8.426 -34.991 11.437 -52 5 C-52.99 4.34 -53.98 3.68 -55 3 C-54.58 3.036 -54.58 3.036 -52.457 3.219 C-48.306 3.539 -44.158 3.791 -40 4 C-39.176 4.042 -38.352 4.084 -37.502 4.128 C-25.928 4.641 -16.141 3.85 -5.176 -0.004 C-2 -1 -2 -1 0 0 Z " fill="#C11A12" transform="translate(116,160)"/>
<path d="M0 0 C1.65 0.33 3.3 0.66 5 1 C5.57 4.83 5.677 6.922 3.582 10.258 C2.351 11.806 1.095 13.335 -0.184 14.844 C-1.742 16.694 -3.041 18.513 -4.312 20.562 C-4.869 21.367 -5.426 22.171 -6 23 C-6.66 23 -7.32 23 -8 23 C-8.081 21.397 -8.139 19.792 -8.188 18.188 C-8.222 17.294 -8.257 16.401 -8.293 15.48 C-7.943 12.519 -7.132 11.953 -5 10 C-5 9.01 -5 8.02 -5 7 C-3.713 5.297 -2.379 3.629 -1 2 C-0.67 1.34 -0.34 0.68 0 0 Z " fill="#3E6D07" transform="translate(99,35)"/>
<path d="M0 0 C3 0.25 3 0.25 5 2.25 C5.799 8.639 3.6 13.48 1 19.25 C0.34 19.25 -0.32 19.25 -1 19.25 C-5.795 8.611 -5.795 8.611 -5 2.25 C-3 0.25 -3 0.25 0 0 Z " fill="#4D8710" transform="translate(85,66.75)"/>
<path d="M0 0 C0.33 0.66 0.66 1.32 1 2 C5.855 3.413 11.005 3.298 16.029 3.43 C20.706 3.642 23.968 4.64 28 7 C27.34 7.99 26.68 8.98 26 10 C23.18 10.512 23.18 10.512 19.875 10.688 C19.327 10.72 19.327 10.72 16.555 10.887 C15.712 10.924 14.869 10.961 14 11 C14.33 10.34 14.66 9.68 15 9 C17.066 8.586 17.066 8.586 19.562 8.375 C19.976 8.338 19.976 8.338 22.066 8.148 C22.385 8.124 22.385 8.124 24 8 C21.631 5.631 15.329 6.633 12.015 6.602 C5.474 6.695 1.295 8.127 -4 12 C-4.99 12.33 -5.98 12.66 -7 13 C-6.66 7.558 -3.297 4.063 0 0 Z " fill="#704612" transform="translate(102,44)"/>
<path d="M0 0 C5.625 0.45 8.615 1.684 13 5 C10.795 7.205 9.751 7.461 6.812 8.25 C1.915 9.793 -1.505 12.265 -5 16 C-5.33 16.66 -5.66 17.32 -6 18 C-5.01 18 -4.02 18 -3 18 C-3 17.34 -3 16.68 -3 16 C2.016 14.982 6.786 14.881 11.875 14.938 C12.659 14.942 13.442 14.947 14.25 14.951 C16.167 14.963 18.083 14.981 20 15 C20 15.33 20 15.66 20 16 C19.511 16.013 19.511 16.013 17.035 16.078 C10.054 16.38 4.11 16.79 -2.191 20.078 C-4.403 21.205 -6.546 21.683 -9 22 C-9.237 19.102 -9.242 17.425 -7.785 14.867 C-3.381 9.774 0.411 7.434 7 6 C4.803 3.752 2.548 1.845 0 0 Z " fill="#4E4006" transform="translate(56,56)"/>
<path d="M0 0 C0.276 0.161 0.276 0.161 1.672 0.977 C1.672 1.307 1.672 1.637 1.672 1.977 C-1.628 2.307 -4.928 2.637 -8.328 2.977 C-7.008 4.297 -5.688 5.617 -4.328 6.977 C-10.328 6.977 -16.328 6.977 -22.328 6.977 C-21.957 4.591 -21.724 3.319 -19.867 1.711 C-13.754 -1.433 -6.514 -2.863 0 0 Z " fill="#406516" transform="translate(63.328125,49.0234375)"/>
<path d="M0 0 C12.67 -0.554 12.67 -0.554 18 3 C15.786 5.214 14.233 5.926 11.099 6.114 C10.402 6.108 9.706 6.103 8.988 6.098 C8.61 6.096 8.61 6.096 6.693 6.088 C5.908 6.08 5.122 6.071 4.312 6.062 C3.515 6.058 2.718 6.053 1.896 6.049 C-0.069 6.037 -2.035 6.019 -4 6 C-4 5.34 -4 4.68 -4 4 C-2.68 3.34 -1.36 2.68 0 2 C0 1.34 0 0.68 0 0 Z " fill="#539413" transform="translate(96,63)"/>
<path d="M0 0 C0.36 -0.008 0.36 -0.008 2.18 -0.049 C4.266 -0.051 4.266 -0.051 7.75 0.312 C9.75 3.312 9.75 3.312 9.75 6.312 C9.379 6.147 9.379 6.147 7.5 5.312 C-1.001 3.046 -8.347 3.691 -16.191 7.633 C-16.871 7.857 -17.55 8.081 -18.25 8.312 C-19.24 7.653 -20.23 6.993 -21.25 6.312 C-14.146 2.05 -8.314 -0.038 0 0 Z " fill="#DC2608" transform="translate(69.25,71.6875)"/>
<path d="M0 0 C0.514 -0.013 0.514 -0.013 3.117 -0.078 C6.5 0.291 8.364 1.314 11.125 3.25 C10.795 4.57 10.465 5.89 10.125 7.25 C3.168 6.68 -3.189 5.237 -9.875 3.25 C-7.948 -0.605 -3.846 0.058 0 0 Z " fill="#FD693D" transform="translate(66.875,74.75)"/>
<path d="M0 0 C0.99 0.33 1.98 0.66 3 1 C3.692 2.714 4.381 4.429 5.039 6.156 C6.142 8.272 7.307 9.302 9.188 10.75 C9.652 11.121 9.652 11.121 12 13 C12 13.99 12 14.98 12 16 C11.01 16 10.02 16 9 16 C8.67 16.99 8.34 17.98 8 19 C4 14.25 4 14.25 4 12 C3.01 12 2.02 12 1 12 C-0.262 9.475 -0.099 7.688 -0.062 4.875 C-0.053 3.965 -0.044 3.055 -0.035 2.117 C-0.024 1.419 -0.012 0.72 0 0 Z " fill="#569217" transform="translate(67,35)"/>
<path d="M0 0 C5.517 4.613 7.945 13.688 8.812 20.625 C8.907 22.082 8.967 23.541 9 25 C9.027 25.931 9.054 26.861 9.082 27.82 C9.149 32.386 9.013 36.531 8 41 C7.67 41 7.34 41 7 41 C6.98 40.38 6.96 39.759 6.94 39.12 C6.845 36.309 6.735 33.498 6.625 30.688 C6.594 29.711 6.563 28.735 6.531 27.729 C6.493 26.791 6.454 25.853 6.414 24.887 C6.383 24.023 6.351 23.159 6.319 22.268 C6 20 6 20 4 17 C3.27 15.015 2.586 13.013 1.938 11 C1.596 9.948 1.254 8.896 0.902 7.812 C0.605 6.884 0.307 5.956 0 5 C-0.33 4.01 -0.66 3.02 -1 2 C-0.67 1.34 -0.34 0.68 0 0 Z " fill="#C23030" transform="translate(144,74)"/>
<path d="M0 0 C0.99 0.33 1.98 0.66 3 1 C-0.941 7.449 -5.295 13.003 -11 18 C-11.33 18 -11.66 18 -12 18 C-11.636 12.059 -10.061 8.386 -6 4 C-4.029 2.276 -2.358 1.23 0 0 Z " fill="#FD7845" transform="translate(46,64)"/>
<path d="M0 0 C0 0.66 0 1.32 0 2 C-1.853 2.484 -3.707 2.962 -5.562 3.438 C-6.595 3.704 -7.628 3.971 -8.691 4.246 C-14.781 5.634 -20.72 6.158 -26.953 6.168 C-27.324 6.17 -27.324 6.17 -29.198 6.178 C-30.758 6.183 -32.318 6.185 -33.877 6.185 C-36.23 6.187 -38.581 6.206 -40.934 6.225 C-49.166 6.254 -56.946 5.947 -65 4 C-65 3.67 -65 3.34 -65 3 C-64.239 3.069 -63.478 3.137 -62.695 3.208 C-54.021 3.938 -45.391 4.265 -36.688 4.312 C-36.349 4.314 -36.349 4.314 -34.635 4.324 C-25.312 4.35 -16.799 3.755 -7.898 0.875 C-5.086 0.026 -2.915 -0.173 0 0 Z " fill="#F7ECD7" transform="translate(129,168)"/>
<path d="M0 0 C0.33 0.66 0.66 1.32 1 2 C1.615 1.905 2.23 1.809 2.863 1.711 C3.267 1.656 3.267 1.656 5.312 1.375 C5.713 1.317 5.713 1.317 7.738 1.023 C10 1 10 1 13 3 C12.374 3.277 11.747 3.554 11.102 3.84 C10.284 4.202 9.467 4.564 8.625 4.938 C7.813 5.297 7.001 5.657 6.164 6.027 C4.763 6.657 3.374 7.313 2 8 C0.46 8.07 -1.083 8.085 -2.625 8.062 C-3.034 8.058 -3.034 8.058 -5.102 8.035 C-5.415 8.029 -5.415 8.029 -7 8 C-7 7.01 -7 6.02 -7 5 C-5.469 3.613 -5.469 3.613 -3.5 2.312 C-2.85 1.876 -2.201 1.439 -1.531 0.988 C-1.279 0.825 -1.279 0.825 0 0 Z " fill="#5E8913" transform="translate(101,53)"/>
<path d="M0 0 C0.33 0 0.66 0 1 0 C1.125 7.52 1.125 7.52 0.514 9.863 C-0.014 12.058 -0.204 14.075 -0.316 16.328 C-0.358 17.127 -0.4 17.927 -0.443 18.75 C-0.483 19.575 -0.522 20.4 -0.562 21.25 C-0.606 22.09 -0.649 22.931 -0.693 23.797 C-0.799 25.864 -0.9 27.932 -1 30 C-1.66 30 -2.32 30 -3 30 C-6.015 20.956 -3.818 10.835 -1 2 C-0.67 1.34 -0.34 0.68 0 0 Z " fill="#C3241D" transform="translate(23,84)"/>
<path d="M0 0 C0.33 0.66 0.66 1.32 1 2 C1.99 2 2.98 2 4 2 C5.641 3.863 5.641 3.863 7.25 6.312 C7.521 6.713 7.521 6.713 8.891 8.738 C10 11 10 11 9 14 C7.201 12.929 5.411 11.843 3.625 10.75 C2.627 10.147 1.63 9.543 0.602 8.922 C-1.951 7.036 -2.925 5.928 -4 3 C-2.68 2.67 -1.36 2.34 0 2 C0 1.34 0 0.68 0 0 Z " fill="#8F2A06" transform="translate(67,45)"/>
<path d="M0 0 C2.48 0.14 4.959 0.287 7.438 0.438 C8.145 0.477 8.852 0.516 9.58 0.557 C14.887 0.887 14.887 0.887 16 2 C17.413 2.156 18.834 2.251 20.254 2.316 C21.108 2.358 21.962 2.4 22.842 2.443 C23.74 2.483 24.637 2.522 25.562 2.562 C26.464 2.606 27.366 2.649 28.295 2.693 C30.53 2.8 32.765 2.902 35 3 C34.67 3.66 34.34 4.32 34 5 C8.577 5.718 8.577 5.718 0 0 Z " fill="#B92C1F" transform="translate(61,163)"/>
<path d="M0 0 C0.653 0.137 1.305 0.274 1.978 0.416 C9.07 1.817 15.97 2.403 23.188 2.625 C24.235 2.664 25.282 2.702 26.361 2.742 C28.907 2.835 31.453 2.921 34 3 C34 3.33 34 3.66 34 4 C31.125 4.337 28.25 4.67 25.375 5 C24.567 5.095 23.759 5.191 22.926 5.289 C10.693 6.681 10.693 6.681 6 4 C5.34 4 4.68 4 4 4 C4 3.34 4 2.68 4 2 C2.68 2.33 1.36 2.66 0 3 C0 2.01 0 1.02 0 0 Z " fill="#EAD6B4" transform="translate(65,165)"/>
<path d="M0 0 C0.66 0.33 1.32 0.66 2 1 C1.34 2.32 0.68 3.64 0 5 C0.846 5.041 1.691 5.082 2.562 5.125 C7.136 6.289 9.665 8.774 13 12 C12.67 12.66 12.34 13.32 12 14 C10.34 12.763 8.68 11.526 7.02 10.289 C2.208 7.218 -1.625 6.769 -7.312 6.875 C-8.567 6.893 -9.821 6.911 -11.113 6.93 C-11.59 6.941 -11.59 6.941 -14 7 C-14.33 5.68 -14.66 4.36 -15 3 C-14.668 3.017 -14.668 3.017 -12.988 3.105 C-7.67 3.269 -4.457 3.203 0 0 Z " fill="#3B5A03" transform="translate(108,57)"/>
<path d="M0 0 C2.5 2 2.5 2 4 4 C1.355 5.322 -0.678 5.097 -3.625 5.062 C-4.628 5.053 -5.631 5.044 -6.664 5.035 C-7.435 5.024 -8.206 5.012 -9 5 C-9 5.99 -9 6.98 -9 8 C-10.65 7.67 -12.3 7.34 -14 7 C-13.7 4.105 -13.191 3.162 -10.938 1.25 C-6.874 -0.479 -4.415 -0.491 0 0 Z " fill="#C52406" transform="translate(122,55)"/>
<path d="M0 0 C-0.743 0.309 -1.485 0.619 -2.25 0.938 C-6.192 3.894 -7.224 7.525 -9 12 C-9.949 14.238 -9.949 14.238 -11 16 C-13.625 16.75 -13.625 16.75 -16 17 C-16.33 16.01 -16.66 15.02 -17 14 C-16.696 13.985 -16.696 13.985 -15.156 13.906 C-13 13 -13 13 -11.656 10.094 C-11.275 8.908 -10.893 7.722 -10.5 6.5 C-9.344 2.906 -9.344 2.906 -8 0 C-5.054 -1.365 -3.043 -0.978 0 0 Z " fill="#EB2308" transform="translate(100,74)"/>
<path d="M0 0 C2.418 -0.108 4.831 -0.187 7.25 -0.25 C7.591 -0.267 7.591 -0.267 9.316 -0.352 C12.922 -0.422 14.641 -0.292 17.484 2.016 C17.985 2.67 18.485 3.325 19 4 C18.67 4.165 18.67 4.165 17 5 C17 5.99 17 6.98 17 8 C13.847 7.382 11.708 6.302 9.062 4.5 C6.048 2.545 3.645 1.342 0 1 C0 0.67 0 0.34 0 0 Z " fill="#61A826" transform="translate(50,51)"/>
<path d="M0 0 C0.901 0.009 1.802 0.018 2.73 0.027 C3.418 0.039 4.105 0.051 4.812 0.062 C4.812 0.722 4.812 1.382 4.812 2.062 C3.678 2.124 2.544 2.186 1.375 2.25 C-3.124 2.786 -6.375 4.573 -10.207 6.906 C-12.188 8.062 -12.188 8.062 -15.188 9.062 C-15.188 9.722 -15.188 10.382 -15.188 11.062 C-16.178 11.062 -17.167 11.062 -18.188 11.062 C-16.779 7.698 -15.191 6.005 -12.25 3.875 C-11.56 3.366 -10.871 2.857 -10.16 2.332 C-6.74 0.131 -3.962 -0.051 0 0 Z " fill="#61A322" transform="translate(68.1875,62.9375)"/>
<path d="M0 0 C5.595 0.595 5.595 0.595 8 3 C8 4.32 8 5.64 8 7 C5.625 9.125 5.625 9.125 3 11 C2.34 11.66 1.68 12.32 1 13 C1 11.68 1 10.36 1 9 C1.66 9 2.32 9 3 9 C2.67 7.68 2.34 6.36 2 5 C-0.606 4.069 -1.642 3.851 -4.25 4.938 C-4.828 5.288 -5.405 5.639 -6 6 C-4 4 -2 2 0 0 Z " fill="#F33F19" transform="translate(48,58)"/>
<path d="M0 0 C0 0.66 0 1.32 0 2 C-0.71 2.133 -1.421 2.266 -2.152 2.402 C-3.071 2.579 -3.991 2.756 -4.938 2.938 C-5.854 3.112 -6.771 3.286 -7.715 3.465 C-10 4 -10 4 -11 5 C-11.072 6.519 -11.084 8.042 -11.062 9.562 C-11.053 10.389 -11.044 11.215 -11.035 12.066 C-11.024 12.704 -11.012 13.343 -11 14 C-11.66 14 -12.32 14 -13 14 C-13.227 13.031 -13.454 12.061 -13.688 11.062 C-16 8 -16 8 -19.094 7.379 C-22.403 7.145 -25.683 7.009 -29 7 C-29 6.67 -29 6.34 -29 6 C-27.952 5.974 -26.904 5.948 -25.824 5.922 C-24.445 5.866 -23.066 5.808 -21.688 5.75 C-20.997 5.736 -20.307 5.722 -19.596 5.707 C-17.574 5.609 -17.574 5.609 -14 5 C-12.27 3 -12.27 3 -11 1 C-9.062 0.391 -9.062 0.391 -7 0.25 C-6.319 0.193 -5.639 0.137 -4.938 0.078 C-3.293 0.012 -1.646 0 0 0 Z " fill="#285102" transform="translate(92,64)"/>
<path d="M0 0 C6.705 4.114 6.705 4.114 7.938 7.812 C7.958 8.534 7.979 9.256 8 10 C7.505 9.732 7.01 9.464 6.5 9.188 C0.744 6.453 -4.651 4.661 -11 4 C-11 3.67 -11 3.34 -11 3 C-10.374 2.867 -9.747 2.734 -9.102 2.598 C-8.284 2.421 -7.467 2.244 -6.625 2.062 C-5.813 1.888 -5.001 1.714 -4.164 1.535 C-2 1 -2 1 0 0 Z " fill="#487D0F" transform="translate(114,66)"/>
<path d="M0 0 C3 1 3 1 5 4 C4.67 4.66 4.34 5.32 4 6 C-0.95 6 -5.9 6 -11 6 C-11.33 5.34 -11.66 4.68 -12 4 C-8.1 1.4 -4.526 1.849 0 2 C0 1.34 0 0.68 0 0 Z " fill="#48860A" transform="translate(73,63)"/>
<path d="M0 0 C2.31 0 4.62 0 7 0 C6.67 0.99 6.34 1.98 6 3 C5.01 3.33 4.02 3.66 3 4 C3 7.96 3 11.92 3 16 C2.01 16.33 1.02 16.66 0 17 C0 11.39 0 5.78 0 0 Z " fill="#5C9317" transform="translate(81,46)"/>
<path d="M0 0 C0.99 0.33 1.98 0.66 3 1 C3 3.31 3 5.62 3 8 C-0.452 8.395 -1.702 8.218 -4.562 6.125 C-5.367 5.424 -6.171 4.722 -7 4 C-8.319 3.306 -9.651 2.633 -11 2 C-10.29 1.939 -9.579 1.879 -8.848 1.816 C-8.388 1.775 -8.388 1.775 -6.062 1.562 C-5.146 1.481 -4.229 1.4 -3.285 1.316 C-1 1 -1 1 0 0 Z " fill="#BA140C" transform="translate(129,52)"/>
<path d="M0 0 C0.947 -0.014 1.895 -0.028 2.871 -0.043 C5.608 0.191 7.227 0.79 9.562 2.188 C9.562 2.517 9.562 2.847 9.562 3.188 C6.263 3.517 2.962 3.847 -0.438 4.188 C0.222 4.847 0.883 5.508 1.562 6.188 C-1.407 5.858 -4.377 5.528 -7.438 5.188 C-7.108 4.197 -6.778 3.208 -6.438 2.188 C-7.097 1.858 -7.758 1.528 -8.438 1.188 C-5.386 0.17 -3.196 0.022 0 0 Z " fill="#4C7725" transform="translate(55.4375,47.8125)"/>
<path d="M0 0 C4.364 0.291 7.476 1.409 11 4 C11 4.66 11 5.32 11 6 C8.69 6.66 6.38 7.32 4 8 C3.752 7.381 3.505 6.763 3.25 6.125 C1.794 3.649 0.622 3.049 -2 2 C-1.34 1.34 -0.68 0.68 0 0 Z " fill="#DF1D04" transform="translate(52,56)"/>
<path d="M0 0 C0.33 0.66 0.66 1.32 1 2 C3.337 2.468 5.697 2.827 8.062 3.125 C8.708 3.209 8.708 3.209 11.973 3.633 C12.972 3.754 13.971 3.875 15 4 C15 4.33 15 4.66 15 5 C14.276 5.037 13.551 5.075 12.805 5.113 C7.154 5.498 2.971 6.068 -2 9 C-2.66 9 -3.32 9 -4 9 C-3.355 5.515 -1.899 2.972 0 0 Z " fill="#B12110" transform="translate(102,44)"/>
<path d="M0 0 C0.66 0 1.32 0 2 0 C1.389 6.476 1.389 6.476 -0.438 8.938 C-2 10 -2 10 -4 10 C-5.373 11.292 -6.71 12.624 -8 14 C-8.438 11.938 -8.438 11.938 -8 9 C-6.336 7.012 -4.545 5.296 -2.629 3.551 C-1 2 -1 2 0 0 Z " fill="#5B951F" transform="translate(99,39)"/>
<path d="M0 0 C1.65 0.33 3.3 0.66 5 1 C5 3.31 5 5.62 5 8 C4.01 8 3.02 8 2 8 C2 6.68 2 5.36 2 4 C1.34 4 0.68 4 0 4 C-0.248 4.639 -0.495 5.279 -0.75 5.938 C-2 8 -2 8 -6 9 C-4.02 6.03 -2.04 3.06 0 0 Z " fill="#436C23" transform="translate(99,35)"/>
<path d="M0 0 C1.32 0.33 2.64 0.66 4 1 C4.625 2.812 4.625 2.812 5 5 C4.67 5.495 4.67 5.495 3 8 C0.375 8.188 0.375 8.188 -2 8 C-2.688 6.25 -2.688 6.25 -3 4 C-1.562 1.75 -1.562 1.75 0 0 Z " fill="#FD7444" transform="translate(63,93)"/>
<path d="M0 0 C0.66 0.66 1.32 1.32 2 2 C-10.485 9.852 -10.485 9.852 -17 10 C-14.599 6.398 -13.037 5.974 -9.062 4.438 C-5.731 3.138 -2.984 1.989 0 0 Z " fill="#EBCDB3" transform="translate(125,156)"/>
<path d="M0 0 C2.626 -0.081 5.249 -0.14 7.875 -0.188 C8.248 -0.2 8.248 -0.2 10.137 -0.264 C12.305 -0.293 12.305 -0.293 16 0 C18 3 18 3 18 6 C14.597 4.941 11.986 3.991 9 2 C6.738 1.586 6.738 1.586 4.312 1.375 C3.504 1.3 2.696 1.225 1.863 1.148 C1.248 1.099 0.634 1.05 0 1 C0 0.67 0 0.34 0 0 Z " fill="#C92007" transform="translate(61,72)"/>
<path d="M0 0 C4.29 0 8.58 0 13 0 C13 0.66 13 1.32 13 2 C13.66 2.33 14.32 2.66 15 3 C11.453 4.182 9.025 3.893 5.312 3.562 C4.133 3.461 2.954 3.359 1.738 3.254 C1.286 3.212 1.286 3.212 -1 3 C-0.67 2.01 -0.34 1.02 0 0 Z " fill="#CE1904" transform="translate(94,71)"/>
<path d="M0 0 C0 0.99 0 1.98 0 3 C-3.402 5.094 -6.053 5.179 -10 5 C-9.688 3.062 -9.688 3.062 -9 1 C-5.804 -0.065 -3.343 -0.074 0 0 Z " fill="#FB5C2F" transform="translate(103,78)"/>
<path d="M0 0 C0.99 0 1.98 0 3 0 C4.046 1.638 5.04 3.31 6 5 C8 7.312 8 7.312 10 9 C10.99 9 11.98 9 13 9 C13 10.32 13 11.64 13 13 C9.11 12.424 6.858 10.633 4 8 C2.292 5.316 2 4.238 2 1 C1.34 0.67 0.68 0.34 0 0 Z " fill="#4A5D19" transform="translate(68,35)"/>
<path d="M0 0 C0.66 0.66 1.32 1.32 2 2 C1.075 3.508 0.135 5.006 -0.812 6.5 C-1.335 7.335 -1.857 8.171 -2.395 9.031 C-2.924 9.681 -3.454 10.331 -4 11 C-4.99 11 -5.98 11 -7 11 C-6.682 5.6 -3.8 3.477 0 0 Z " fill="#F53E1B" transform="translate(39,66)"/>
<path d="M0 0 C1.812 1.562 1.812 1.562 3 3 C0.475 4.262 -1.312 4.099 -4.125 4.062 C-5.035 4.053 -5.945 4.044 -6.883 4.035 C-7.581 4.024 -8.28 4.012 -9 4 C-6.795 -0.883 -5.198 -1.521 0 0 Z " fill="#E1220A" transform="translate(123,56)"/>
<path d="M0 0 C1.457 -0.081 2.916 -0.139 4.375 -0.188 C5.187 -0.222 5.999 -0.257 6.836 -0.293 C7.55 -0.196 8.264 -0.1 9 0 C9.66 0.99 10.32 1.98 11 3 C9.396 3.169 7.792 3.335 6.188 3.5 C5.294 3.593 4.401 3.686 3.48 3.781 C1 4 1 4 -2 4 C-1.34 2.68 -0.68 1.36 0 0 Z " fill="#5F7B0D" transform="translate(116,50)"/>
<path d="M0 0 C0.33 0 0.66 0 1 0 C1.313 8.136 1.313 8.136 -1 11 C-3.625 11.75 -3.625 11.75 -6 12 C-6.33 11.01 -6.66 10.02 -7 9 C-6.376 8.919 -5.752 8.838 -5.109 8.754 C-3 8 -3 8 -1.953 6.152 C-1.837 5.787 -1.837 5.787 -1.25 3.938 C-1.008 3.204 -0.765 2.471 -0.516 1.715 C-0.345 1.149 -0.175 0.583 0 0 Z " fill="#CE2808" transform="translate(90,79)"/>
<path d="M0 0 C-1.667 1 -1.667 1 -10 6 C-10.447 6.291 -10.447 6.291 -12.707 7.762 C-13.464 8.17 -14.22 8.579 -15 9 C-15.66 8.67 -16.32 8.34 -17 8 C-6.158 -1.912 -6.158 -1.912 0 0 Z " fill="#AC1C11" transform="translate(54,56)"/>
<path d="M0 0 C1.132 0.908 2.255 1.827 3.375 2.75 C4.001 3.26 4.628 3.771 5.273 4.297 C7.083 6.082 8.001 7.679 9 10 C7.35 9.67 5.7 9.34 4 9 C3.67 8.01 3.34 7.02 3 6 C2.34 6 1.68 6 1 6 C0.67 4.02 0.34 2.04 0 0 Z " fill="#629F1E" transform="translate(70,40)"/>
<path d="M0 0 C3.596 3.494 6.835 7.111 10 11 C5.635 9.809 2.742 8.691 0 5 C-0.25 2.25 -0.25 2.25 0 0 Z " fill="#D11C11" transform="translate(35,141)"/>
<path d="M0 0 C0.66 0 1.32 0 2 0 C2 0.66 2 1.32 2 2 C2.846 2.041 3.691 2.083 4.562 2.125 C9.136 3.289 11.665 5.774 15 9 C14.67 9.66 14.34 10.32 14 11 C13.484 10.618 13.484 10.618 10.875 8.688 C8.47 6.952 6.326 5.675 3.625 4.375 C1 3 1 3 0 0 Z " fill="#563E05" transform="translate(106,60)"/>
<path d="M0 0 C0.33 0.99 0.66 1.98 1 3 C-0.188 4.562 -0.188 4.562 -2 6 C-4.688 5.688 -4.688 5.688 -7 5 C-7 4.34 -7 3.68 -7 3 C-7.99 2.67 -8.98 2.34 -10 2 C-8.709 1.664 -7.417 1.331 -6.125 1 C-5.406 0.814 -4.686 0.629 -3.945 0.438 C-2 0 -2 0 0 0 Z " fill="#EB3123" transform="translate(107,157)"/>
<path d="M0 0 C3.63 0 7.26 0 11 0 C11.66 1.65 12.32 3.3 13 5 C9.625 4.453 7.918 3.945 5 2 C3.345 1.615 1.678 1.272 0 1 C0 0.67 0 0.34 0 0 Z " fill="#72AA34" transform="translate(50,51)"/>
<path d="M0 0 C-1.936 0.982 -3.874 1.96 -5.812 2.938 C-6.352 3.21 -6.352 3.21 -9.082 4.59 C-12 6 -12 6 -15 7 C-14.625 4.562 -14.625 4.562 -14 2 C-13.34 1.67 -12.68 1.34 -12 1 C-12 1.66 -12 2.32 -12 3 C-11.734 2.85 -11.734 2.85 -10.391 2.09 C-9.684 1.71 -8.978 1.329 -8.25 0.938 C-7.902 0.746 -7.902 0.746 -6.141 -0.223 C-3.639 -1.131 -2.467 -0.883 0 0 Z " fill="#7B2002" transform="translate(110,50)"/>
<path d="M0 0 C0.66 0.99 1.32 1.98 2 3 C-1.512 5.408 -3.727 6.366 -8 6 C-8 5.01 -8 4.02 -8 3 C-6.866 2.691 -5.731 2.381 -4.562 2.062 C-1 1 -1 1 0 0 Z " fill="#FCD1A9" transform="translate(53,97)"/>
<path d="M0 0 C0 0.66 0 1.32 0 2 C0.66 2.66 1.32 3.32 2 4 C-0.97 4 -3.94 4 -7 4 C-7 3.01 -7 2.02 -7 1 C-4.537 -0.231 -2.72 -0.072 0 0 Z " fill="#497D09" transform="translate(101,57)"/>
<path d="M0 0 C0.99 0.33 1.98 0.66 3 1 C2.519 1.398 2.038 1.797 1.543 2.207 C-0.374 4.435 -0.477 5.788 -0.688 8.688 C-0.72 9.092 -0.72 9.092 -0.887 11.137 C-0.924 11.752 -0.961 12.366 -1 13 C-1.66 13 -2.32 13 -3 13 C-2.887 11.02 -2.759 9.041 -2.625 7.062 C-2.555 5.96 -2.486 4.858 -2.414 3.723 C-2.277 2.824 -2.141 1.926 -2 1 C-1.34 0.67 -0.68 0.34 0 0 Z " fill="#4D4606" transform="translate(92,44)"/>
<path d="M0 0 C1.708 1.634 2.935 2.869 4 5 C4.04 7 4.043 9 4 11 C3.34 11 2.68 11 2 11 C1.47 9.545 0.951 8.086 0.438 6.625 C0.147 5.813 -0.143 5.001 -0.441 4.164 C-1 2 -1 2 0 0 Z " fill="#CA1F1D" transform="translate(144,74)"/>
<path d="M0 0 C2.64 0 5.28 0 8 0 C8 1.32 8 2.64 8 4 C4.312 3.502 2.395 2.899 0 0 Z " fill="#6DA924" transform="translate(100,63)"/>
<path d="M0 0 C0.99 0.33 1.98 0.66 3 1 C3 2.32 3 3.64 3 5 C-1.62 4.34 -6.24 3.68 -11 3 C-11 2.67 -11 2.34 -11 2 C-10.29 1.939 -9.579 1.879 -8.848 1.816 C-8.388 1.775 -8.388 1.775 -6.062 1.562 C-5.146 1.481 -4.229 1.4 -3.285 1.316 C-1 1 -1 1 0 0 Z " fill="#9B1509" transform="translate(129,52)"/>
<path d="M0 0 C0.66 0 1.32 0 2 0 C2 1.65 2 3.3 2 5 C1.34 5 0.68 5 0 5 C-0.66 6.32 -1.32 7.64 -2 9 C-2.66 8.01 -3.32 7.02 -4 6 C-3.67 5.01 -3.34 4.02 -3 3 C-2.01 3 -1.02 3 0 3 C0 2.01 0 1.02 0 0 Z " fill="#447406" transform="translate(79,48)"/>
<path d="M0 0 C0.66 0 1.32 0 2 0 C3.255 3.766 2.371 5.372 1 9 C0.34 9 -0.32 9 -1 9 C-2.033 6.212 -2.045 5.132 -1.062 2.25 C-0.712 1.507 -0.361 0.765 0 0 Z " fill="#488C0F" transform="translate(85,77)"/>
<path d="M0 0 C0.66 1.32 1.32 2.64 2 4 C1.67 4.165 1.67 4.165 0 5 C0.99 5.99 1.98 6.98 3 8 C0.625 7.75 0.625 7.75 -2 7 C-3.312 4.938 -3.312 4.938 -4 3 C-2.68 2.67 -1.36 2.34 0 2 C0 1.34 0 0.68 0 0 Z " fill="#B23C22" transform="translate(67,45)"/>
<path d="M0 0 C0.99 0 1.98 0 3 0 C4.125 4.75 4.125 4.75 3 7 C2.01 6.67 1.02 6.34 0 6 C0 4.02 0 2.04 0 0 Z " fill="#80BB32" transform="translate(82,72)"/>
<path d="M0 0 C0.825 0.165 0.825 0.165 5 1 C5.33 2.65 5.66 4.3 6 6 C4 5 2 4 0 3 C0 2.01 0 1.02 0 0 Z " fill="#387609" transform="translate(116,70)"/>
<path d="M0 0 C5.28 0 10.56 0 16 0 C16 1.65 16 3.3 16 5 C15.821 4.76 15.821 4.76 14.918 3.543 C12.149 1.316 9.818 1.486 6.312 1.312 C5.723 1.28 5.723 1.28 2.738 1.113 C1.835 1.076 0.931 1.039 0 1 C0 0.67 0 0.34 0 0 Z " fill="#3F3D01" transform="translate(63,70)"/>
<path d="M0 0 C2.64 0.66 5.28 1.32 8 2 C7.67 3.65 7.34 5.3 7 7 C5.83 6.024 4.664 5.044 3.5 4.062 C2.85 3.517 2.201 2.972 1.531 2.41 C1.026 1.945 0.521 1.479 0 1 C0 0.67 0 0.34 0 0 Z " fill="#CD330E" transform="translate(115,64)"/>
<path d="M0 0 C0.66 0 1.32 0 2 0 C1.443 3.344 0.648 6.033 -1 9 C-1.66 9 -2.32 9 -3 9 C-2.01 6.03 -1.02 3.06 0 0 Z M-5 9 C-3 10 -3 10 -3 10 Z " fill="#FB5A2D" transform="translate(58,91)"/>
<path d="M0 0 C0.825 0.33 0.825 0.33 5 2 C4.67 3.32 4.34 4.64 4 6 C3.67 5.34 3.34 4.68 3 4 C2.01 4 1.02 4 0 4 C-0.33 3.01 -0.66 2.02 -1 1 C-0.67 0.67 -0.34 0.34 0 0 Z " fill="#F95931" transform="translate(73,76)"/>
<path d="M0 0 C0.66 0.33 1.32 0.66 2 1 C2 2.98 2 4.96 2 7 C1.67 7.165 1.67 7.165 0 8 C-0.66 6.02 -1.32 4.04 -2 2 C-1.34 1.34 -0.68 0.68 0 0 Z " fill="#5EA21B" transform="translate(87,71)"/>
<path d="M0 0 C0.66 0 1.32 0 2 0 C2 0.66 2 1.32 2 2 C1.34 2 0.68 2 0 2 C0.375 4.938 0.375 4.938 1 8 C1.66 8.33 2.32 8.66 3 9 C2.67 9.99 2.34 10.98 2 12 C0.5 11 0.5 11 -1 9 C-1.332 6.245 -1.18 3.796 -1 1 C-0.67 0.67 -0.34 0.34 0 0 Z " fill="#61A11B" transform="translate(82,70)"/>
<path d="M0 0 C-0.33 1.32 -0.66 2.64 -1 4 C-1.99 3.835 -1.99 3.835 -7 3 C-4.5 -0.001 -4.262 0 0 0 Z " fill="#3E7C1A" transform="translate(49,50)"/>
<path d="M0 0 C0.33 0.165 0.33 0.165 2 1 C2.414 3.066 2.414 3.066 2.625 5.562 C2.7 6.389 2.775 7.215 2.852 8.066 C2.876 8.385 2.876 8.385 3 10 C2.34 10 1.68 10 1 10 C-0.607 6.785 -0.057 3.564 0 0 Z " fill="#30590B" transform="translate(67,37)"/>
<path d="M0 0 C1.815 0.33 1.815 0.33 11 2 C7 4 7 4 4 4 C4 3.34 4 2.68 4 2 C2.68 2.33 1.36 2.66 0 3 C0 2.01 0 1.02 0 0 Z " fill="#ECD3B0" transform="translate(65,165)"/>
<path d="M0 0 C0.66 0.33 1.32 0.66 2 1 C2 2.32 2 3.64 2 5 C0.35 5 -1.3 5 -3 5 C-3 4.01 -3 3.02 -3 2 C-2.01 1.34 -1.02 0.68 0 0 Z " fill="#FD582B" transform="translate(51,80)"/>
<path d="M0 0 C0.33 0.99 0.66 1.98 1 3 C3.062 3.688 3.062 3.688 5 4 C2 6 2 6 -1 6 C-1.043 4.334 -1.041 2.666 -1 1 C-0.67 0.67 -0.34 0.34 0 0 Z " fill="#504504" transform="translate(48,72)"/>
<path d="M0 0 C0.66 0.33 1.32 0.66 2 1 C2 3.31 2 5.62 2 8 C1.567 7.34 1.134 6.68 0.688 6 C0.409 5.67 0.409 5.67 -1 4 C-1.99 4 -2.98 4 -4 4 C-3.34 3.67 -2.68 3.34 -2 3 C-2 2.34 -2 1.68 -2 1 C-1.34 0.67 -0.68 0.34 0 0 Z " fill="#538F13" transform="translate(88,68)"/>
<path d="M0 0 C0.99 0 1.98 0 3 0 C3 0.66 3 1.32 3 2 C1.367 3.375 -0.302 4.706 -2 6 C-2.66 6.66 -3.32 7.32 -4 8 C-4 6.68 -4 5.36 -4 4 C-3.34 4 -2.68 4 -2 4 C-1.34 2.68 -0.68 1.36 0 0 Z " fill="#E44819" transform="translate(53,63)"/>
<path d="M0 0 C1.546 2.319 2.796 4.506 4 7 C3.01 7 2.02 7 1 7 C-0.062 5.188 -0.062 5.188 -1 3 C-0.67 2.01 -0.34 1.02 0 0 Z " fill="#F4D7CC" transform="translate(132,54)"/>
<path d="M0 0 C0.99 0.99 1.98 1.98 3 3 C0.381 4.746 -1.038 5.387 -4 6 C-2.25 1.125 -2.25 1.125 0 0 Z " fill="#4B9512" transform="translate(69,54)"/>
<path d="M0 0 C2.31 0.33 4.62 0.66 7 1 C7.66 2.65 8.32 4.3 9 6 C7 6 7 6 5.625 4.688 C5.089 4.131 4.553 3.574 4 3 C2.68 1.982 1.35 0.978 0 0 Z " fill="#614305" transform="translate(56,56)"/>
<path d="M0 0 C0.33 1.32 0.66 2.64 1 4 C-0.65 5.32 -2.3 6.64 -4 8 C-4.66 7.67 -5.32 7.34 -6 7 C-4.02 4.69 -2.04 2.38 0 0 Z " fill="#F7DFD7" transform="translate(140,141)"/>
<path d="M0 0 C3 1 3 1 4 3 C4.04 5 4.043 7 4 9 C1.497 6.062 0.531 3.821 0 0 Z " fill="#523703" transform="translate(79,78)"/>
<path d="M0 0 C-0.66 0 -1.32 0 -2 0 C-1.67 0.99 -1.34 1.98 -1 3 C-3.31 2.67 -5.62 2.34 -8 2 C-6.142 -1.716 -3.445 -1.069 0 0 Z " fill="#FC5025" transform="translate(65,76)"/>
<path d="M0 0 C0.33 0.165 0.33 0.165 2 1 C1.67 1.66 1.34 2.32 1 3 C1.99 3 2.98 3 4 3 C4 2.34 4 1.68 4 1 C5.32 1 6.64 1 8 1 C8 1.66 8 2.32 8 3 C5.291 4.354 2.991 4.065 0 4 C0 2.68 0 1.36 0 0 Z " fill="#345105" transform="translate(49,71)"/>
<path d="M0 0 C0.99 0.33 1.98 0.66 3 1 C3 1.66 3 2.32 3 3 C0.69 3.66 -1.62 4.32 -4 5 C-3.67 4.01 -3.34 3.02 -3 2 C-2.34 2.33 -1.68 2.66 -1 3 C-0.67 2.01 -0.34 1.02 0 0 Z " fill="#D42F05" transform="translate(60,59)"/>
<path d="M0 0 C0.66 0 1.32 0 2 0 C1.01 2.97 0.02 5.94 -1 9 C-1.33 9 -1.66 9 -2 9 C-2.25 3.375 -2.25 3.375 0 0 Z " fill="#BF0C08" transform="translate(26,79)"/>
<path d="M0 0 C0.99 0.33 1.98 0.66 3 1 C1.188 3 1.188 3 -1 5 C-1.99 5 -2.98 5 -4 5 C-2.25 1.125 -2.25 1.125 0 0 Z " fill="#FD814F" transform="translate(46,64)"/>
<path d="M0 0 C0.99 0 1.98 0 3 0 C3 2.31 3 4.62 3 7 C2.01 6.67 1.02 6.34 0 6 C0 4.02 0 2.04 0 0 Z " fill="#254900" transform="translate(77,57)"/>
</svg>
