<?xml version="1.0" encoding="UTF-8"?>
<!-- Generator: visioncortex VTracer 0.6.12 -->
<svg version="1.1" xmlns="http://www.w3.org/2000/svg" width="164" height="170">
<path d="M0 0 C54.12 0 108.24 0 164 0 C164 56.1 164 112.2 164 170 C109.88 170 55.76 170 0 170 C0 113.9 0 57.8 0 0 Z " fill="#FCF7EB" transform="translate(0,0)"/>
<path d="M0 0 C3.755 0.996 4.979 3.283 6.973 6.523 C6.973 7.843 6.973 9.163 6.973 10.523 C8.066 10.462 9.159 10.4 10.285 10.336 C13.973 10.523 13.973 10.523 15.668 11.715 C17.909 14.822 17.551 17.864 17.477 21.582 C16.649 26.413 14.052 29.812 10.973 33.523 C11.366 33.51 11.366 33.51 13.359 33.441 C15.973 33.523 15.973 33.523 17.785 34.836 C18.973 36.523 18.973 36.523 18.973 39.523 C19.798 38.863 20.623 38.203 21.473 37.523 C25.471 34.886 28.246 34.848 32.973 35.523 C36.035 37.648 36.035 37.648 37.973 40.523 C37.894 44.477 37.175 46.22 34.973 49.523 C35.633 49.523 36.293 49.523 36.973 49.523 C37.91 52.148 37.91 52.148 37.973 55.523 C35.161 59.253 32.03 61.254 27.535 62.398 C26.69 62.44 25.844 62.481 24.973 62.523 C26.973 65.523 26.973 65.523 28.918 66.035 C29.637 66.093 30.357 66.151 31.098 66.211 C32.376 66.314 33.655 66.417 34.973 66.523 C34.973 68.173 34.973 69.823 34.973 71.523 C35.648 71.465 36.324 71.407 37.02 71.348 C44.266 70.981 44.266 70.981 47.66 73.586 C49.41 77.502 49.196 79.423 47.973 83.523 C44.397 89.222 40.182 91.224 33.973 93.523 C34.488 94.245 35.004 94.967 35.535 95.711 C36.973 98.523 36.973 98.523 36.973 101.086 C35.56 104.53 34.227 105.693 30.973 107.523 C27.941 107.843 25.009 107.762 21.973 107.523 C21.643 108.183 21.643 108.183 19.973 111.523 C17.973 111.566 15.972 111.564 13.973 111.523 C13.643 111.193 13.313 110.863 12.973 110.523 C11.625 110.293 10.269 110.112 8.91 109.961 C7.611 109.817 6.311 109.672 4.973 109.523 C5.653 110.41 6.334 111.297 7.035 112.211 C8.973 115.523 8.973 115.523 8.91 118.273 C7.973 120.523 7.973 120.523 4.973 122.523 C1.765 122.639 -1.374 122.567 -4.578 122.445 C-8.333 122.356 -9.808 122.377 -13.027 124.523 C-13.4 126.182 -13.734 127.849 -14.027 129.523 C-16.362 131.858 -17.506 131.95 -20.672 132.637 C-26.819 134.392 -29.776 137.866 -33.715 142.711 C-39.946 150.348 -39.946 150.348 -44.797 151.137 C-48.027 150.523 -48.027 150.523 -51.027 148.523 C-53.328 147.933 -55.633 147.516 -57.969 147.086 C-60.027 146.523 -60.027 146.523 -62.027 144.523 C-62.027 143.533 -62.027 142.543 -62.027 141.523 C-62.77 141.606 -63.512 141.688 -64.277 141.773 C-67.027 141.523 -67.027 141.523 -69.402 139.898 C-71.027 137.523 -71.027 137.523 -70.82 134.871 C-70.058 131.651 -69.027 128.774 -67.805 125.711 C-64.232 116.676 -63.265 109.216 -64.027 99.523 C-63.532 99.358 -63.532 99.358 -61.027 98.523 C-61.426 97.932 -61.824 97.34 -62.234 96.73 C-63.325 95.104 -64.411 93.473 -65.492 91.84 C-66.617 90.143 -67.756 88.455 -68.902 86.773 C-70.227 84.123 -70.423 82.449 -70.027 79.523 C-68.027 77.523 -68.027 77.523 -65.027 77.336 C-62.027 77.523 -62.027 77.523 -60.027 78.523 C-61.836 74.526 -63.9 71.47 -66.75 68.152 C-70.154 63.811 -72.105 60.159 -71.84 54.586 C-71.027 51.523 -71.027 51.523 -70.027 50.523 C-67.699 50.156 -65.366 49.821 -63.027 49.523 C-63.316 48.967 -63.605 48.41 -63.902 47.836 C-66.54 42.413 -67.651 38.553 -67.027 32.523 C-66.367 31.533 -65.707 30.543 -65.027 29.523 C-61.948 29.267 -59.816 29.129 -57.027 30.523 C-57.185 29.954 -57.342 29.384 -57.504 28.797 C-58.523 24.372 -59.047 19.809 -57.156 15.57 C-55.965 13.898 -55.965 13.898 -53.027 11.523 C-49.402 11.398 -49.402 11.398 -46.027 12.523 C-45.021 13.852 -44.02 15.185 -43.027 16.523 C-41.028 16.565 -39.027 16.565 -37.027 16.523 C-35.152 17.586 -35.152 17.586 -34.027 19.523 C-33.84 23.211 -33.84 23.211 -34.027 26.523 C-33.079 26.317 -32.13 26.111 -31.152 25.898 C-30.637 25.837 -30.637 25.837 -28.027 25.523 C-27.367 26.183 -26.707 26.843 -26.027 27.523 C-26.085 26.426 -26.143 25.329 -26.203 24.199 C-26.25 22.745 -26.296 21.29 -26.34 19.836 C-26.382 19.115 -26.424 18.393 -26.467 17.65 C-26.562 13.463 -26.374 11.968 -23.699 8.535 C-21.027 6.523 -21.027 6.523 -17.965 6.023 C-14.807 6.561 -13.356 7.374 -11.027 9.523 C-10.945 8.781 -10.862 8.038 -10.777 7.273 C-9.202 1.498 -5.984 -0.291 0 0 Z " fill="#66A327" transform="translate(96.02734375,4.4765625)"/>
<path d="M0 0 C0.165 0.33 0.165 0.33 1 2 C-0.433 4.729 -1.817 6.817 -4 9 C-4.633 10.945 -4.633 10.945 -5.125 13.125 C-5.414 14.404 -5.703 15.683 -6 17 C-4.35 16.34 -2.7 15.68 -1 15 C-1.371 15.763 -1.743 16.526 -2.125 17.312 C-2.269 17.756 -2.269 17.756 -3 20 C-2.34 20.99 -1.68 21.98 -1 23 C-1.32 23.144 -1.32 23.144 -2.938 23.875 C-5 25 -5 25 -6 27 C-5.34 27.33 -4.68 27.66 -4 28 C-4.99 28.99 -5.98 29.98 -7 31 C-0.429 31.468 3.768 31.484 9 27 C9.66 26.257 10.32 25.515 11 24.75 C13 23 13 23 16.25 22.75 C17.157 22.832 18.065 22.915 19 23 C19 24.65 19 26.3 19 28 C19.675 27.942 20.351 27.884 21.047 27.824 C28.293 27.458 28.293 27.458 31.688 30.062 C33.437 33.979 33.223 35.9 32 40 C28.425 45.698 24.21 47.7 18 50 C18.516 50.722 19.031 51.444 19.562 52.188 C21 55 21 55 21 57.562 C19.587 61.006 18.255 62.169 15 64 C11.968 64.32 9.036 64.238 6 64 C5.67 64.66 5.67 64.66 4 68 C2 68.043 -0 68.041 -2 68 C-2.33 67.67 -2.66 67.34 -3 67 C-4.347 66.769 -5.704 66.588 -7.062 66.438 C-8.362 66.293 -9.661 66.149 -11 66 C-10.66 66.443 -10.66 66.443 -8.938 68.688 C-7 72 -7 72 -7.062 74.75 C-8 77 -8 77 -11 79 C-14.208 79.116 -17.347 79.044 -20.551 78.922 C-24.306 78.833 -25.78 78.854 -29 81 C-29.373 82.658 -29.707 84.326 -30 86 C-32.318 88.318 -33.55 88.501 -36.688 89.25 C-41.935 90.72 -45.228 93.14 -49 97 C-45.975 90.446 -41.527 85.072 -36.812 79.688 C-36.237 79.028 -35.662 78.369 -35.07 77.689 C-30.579 72.58 -25.955 67.664 -21 63 C-20.645 62.66 -20.645 62.66 -18.848 60.938 C-15.215 57.582 -13.018 55.692 -8 55 C-8 54.01 -8 53.02 -8 52 C-5.852 50.457 -3.782 49.124 -1.5 47.812 C-0.88 47.444 -0.26 47.076 0.379 46.697 C1.913 45.788 3.456 44.893 5 44 C1.213 45.158 -1.965 46.414 -5.25 48.625 C-8.792 51 -8.792 51 -11 51 C-10.783 50.374 -10.567 49.747 -10.344 49.102 C-10.065 48.284 -9.787 47.467 -9.5 46.625 C-9.222 45.813 -8.943 45.001 -8.656 44.164 C-8 42 -8 42 -8 40 C-8.461 41.062 -8.923 42.124 -9.398 43.219 C-13.421 52.071 -17.198 59.027 -26 64 C-26.66 64 -27.32 64 -28 64 C-28 62.68 -28 61.36 -28 60 C-28.215 60.57 -28.43 61.141 -28.652 61.728 C-32.158 69.828 -37.618 75.32 -43.839 81.381 C-45.577 83.076 -47.292 84.793 -49.006 86.514 C-50.108 87.605 -51.212 88.696 -52.316 89.785 C-52.827 90.295 -53.337 90.806 -53.863 91.332 C-56.431 93.814 -58.364 95.615 -62 96 C-61.216 94.989 -60.432 93.979 -59.625 92.938 C-56.504 88.756 -53.509 84.493 -50.562 80.188 C-50.101 79.529 -49.64 78.871 -49.165 78.193 C-48.029 76.514 -47.005 74.761 -46 73 C-46.33 72.01 -46.66 71.02 -47 70 C-47.66 70 -48.32 70 -49 70 C-49.245 70.715 -49.49 71.431 -49.742 72.168 C-51.154 75.346 -52.913 77.636 -55.125 80.312 C-55.487 80.754 -55.487 80.754 -57.32 82.988 C-57.597 83.32 -57.597 83.32 -59 85 C-59.872 82.564 -60.102 81.32 -59.307 78.821 C-58.052 76.269 -56.793 73.721 -55.5 71.188 C-55.077 70.31 -54.654 69.433 -54.219 68.529 C-51.362 62.845 -48.279 57.725 -43 54 C-39.254 52.879 -39.254 52.879 -35.562 52.562 C-34.326 52.44 -33.09 52.318 -31.816 52.191 C-31.352 52.16 -31.352 52.16 -29 52 C-29 50.68 -29 49.36 -29 48 C-28.01 48 -27.02 48 -26 48 C-26 47.34 -26 46.68 -26 46 C-29.96 45.67 -33.92 45.34 -38 45 C-35.579 40.157 -33.851 37.784 -28.828 35.656 C-28.238 35.465 -28.238 35.465 -25.25 34.5 C-12.086 30.021 -12.086 30.021 -8 26.062 C-6.788 23.562 -6.771 21.745 -7 19 C-9.31 18.34 -11.62 17.68 -14 17 C-13.776 13.077 -13.04 12.039 -10.125 9.25 C-7 7 -7 7 -4 6 C-2.603 4.044 -1.262 2.046 0 0 Z " fill="#4E8E1A" transform="translate(112,48)"/>
<path d="M0 0 C3.759 1.253 4.134 2.104 6.375 5.125 C9.438 5.25 9.438 5.25 12.375 5.125 C14.717 7.467 14.67 7.945 14.688 11.125 C14.593 16.433 13.12 21.148 11.375 26.125 C12.035 25.795 12.695 25.465 13.375 25.125 C14.008 23.059 14.008 23.059 14.5 20.562 C14.668 19.736 14.835 18.91 15.008 18.059 C15.068 17.74 15.068 17.74 15.375 16.125 C16.035 16.455 16.695 16.785 17.375 17.125 C17.045 17.785 16.715 18.445 16.375 19.125 C15.934 24.346 16.34 28.292 18.375 33.125 C18.451 35.457 18.466 37.793 18.375 40.125 C15.322 41.106 13.428 41.106 10.375 40.125 C8.765 43.345 8.899 46.632 9.375 50.125 C10.27 52.113 10.27 52.113 11.375 54.062 C13.791 58.374 13.99 62.265 13.375 67.125 C13.045 67.785 12.715 68.445 12.375 69.125 C10.065 68.465 7.755 67.805 5.375 67.125 C5.517 68.563 5.664 70 5.812 71.438 C5.853 71.838 5.853 71.838 6.059 73.863 C6.375 76.125 6.375 76.125 7.375 79.125 C7.518 80.767 7.595 82.415 7.625 84.062 C7.651 84.917 7.677 85.772 7.703 86.652 C7.314 89.586 6.309 90.932 4.375 93.125 C4.705 91.145 5.035 89.165 5.375 87.125 C4.715 87.125 4.055 87.125 3.375 87.125 C3.293 88.198 3.21 89.27 3.125 90.375 C2.319 94.404 1.593 95.687 -1.625 98.125 C-2.285 98.125 -2.945 98.125 -3.625 98.125 C-3.484 96.021 -3.337 93.916 -3.188 91.812 C-3.106 90.641 -3.025 89.469 -2.941 88.262 C-2.625 85.125 -2.625 85.125 -1.625 82.125 C-1.334 79.67 -1.084 77.228 -0.871 74.766 C-0.806 74.032 -0.74 73.299 -0.673 72.543 C-0.464 70.154 -0.262 67.765 -0.062 65.375 C-0.028 64.971 -0.028 64.971 0.145 62.927 C1.258 49.637 1.749 36.465 1.375 23.125 C1.338 24.265 1.3 25.404 1.262 26.578 C0.789 38.594 -0.639 50.27 -2.625 62.125 C-3.285 62.125 -3.945 62.125 -4.625 62.125 C-5.45 60.31 -5.45 60.31 -9.625 51.125 C-8.986 52.692 -8.346 54.26 -7.688 55.875 C-3.284 66.67 -4.255 76.365 -6.938 87.562 C-7.151 88.529 -7.364 89.495 -7.584 90.49 C-8.66 95.124 -9.537 98.413 -12.625 102.125 C-14.906 98.704 -14.844 97.443 -14.75 93.438 C-14.732 92.444 -14.714 91.45 -14.695 90.426 C-14.672 89.667 -14.649 88.907 -14.625 88.125 C-14.13 87.96 -14.13 87.96 -11.625 87.125 C-12.023 86.533 -12.422 85.942 -12.832 85.332 C-13.923 83.705 -15.009 82.075 -16.09 80.441 C-17.214 78.745 -18.353 77.057 -19.5 75.375 C-20.825 72.725 -21.02 71.051 -20.625 68.125 C-18.625 66.125 -18.625 66.125 -15.625 65.938 C-12.625 66.125 -12.625 66.125 -10.625 67.125 C-12.433 63.128 -14.498 60.071 -17.348 56.754 C-20.752 52.413 -22.703 48.761 -22.438 43.188 C-21.625 40.125 -21.625 40.125 -20.625 39.125 C-18.297 38.757 -15.963 38.423 -13.625 38.125 C-13.914 37.568 -14.203 37.011 -14.5 36.438 C-17.138 31.015 -18.249 27.154 -17.625 21.125 C-16.965 20.135 -16.305 19.145 -15.625 18.125 C-12.546 17.868 -10.414 17.731 -7.625 19.125 C-7.782 18.555 -7.94 17.985 -8.102 17.398 C-9.12 12.974 -9.644 8.411 -7.754 4.172 C-5.405 0.876 -4.035 0.139 0 0 Z " fill="#5F9E29" transform="translate(46.625,15.875)"/>
<path d="M0 0 C0.33 0 0.66 0 1 0 C3.352 16.461 2.015 33.124 0.688 49.625 C0.658 50.008 0.658 50.008 0.509 51.945 C-0.243 61.555 -1.616 70.635 -4 80 C-4.7 83.327 -5.359 86.661 -6 90 C-5.34 90 -4.68 90 -4 90 C-3.34 88.68 -2.68 87.36 -2 86 C-1.34 87.32 -0.68 88.64 0 90 C3.403 84.037 6.729 78.036 10 72 C10.415 71.243 10.831 70.485 11.259 69.705 C16.386 60.228 19.96 52.067 18 41 C17.108 38.393 16.119 36.075 14.777 33.672 C14.521 33.12 14.264 32.568 14 32 C14.33 31.34 14.66 30.68 15 30 C19.427 35.496 20.478 41.152 22 48 C23.98 43.38 25.96 38.76 28 34 C28.66 34 29.32 34 30 34 C29.692 35.48 29.378 36.959 29.062 38.438 C28.888 39.261 28.714 40.085 28.535 40.934 C28 43 28 43 27 44 C26.959 45.666 26.957 47.334 27 49 C27.641 48.506 28.281 48.013 28.941 47.504 C34.006 43.753 37.621 41.139 44 41 C42.055 42.945 40.763 43.681 38.312 44.812 C29.493 49.206 26.059 52.959 22 62 C21.09 63.766 20.18 65.532 19.262 67.293 C16.798 72.048 14.656 76.499 13.664 81.793 C12.457 85.806 10.353 89.477 8.387 93.166 C6.896 96 6 97.745 6 101 C6.615 100.169 7.23 99.337 7.863 98.48 C8.68 97.383 9.496 96.285 10.312 95.188 C10.515 94.914 10.515 94.914 11.537 93.529 C13.543 90.839 15.529 88.279 18 86 C18.33 86.165 18.33 86.165 20 87 C19.449 90.7 18.543 93.082 16.348 96.102 C15.818 96.839 15.289 97.576 14.744 98.336 C14.189 99.091 13.634 99.847 13.062 100.625 C11.97 102.138 10.878 103.651 9.785 105.164 C9.299 105.829 8.813 106.493 8.313 107.178 C7.173 108.76 6.082 110.377 5 112 C11.136 106.76 16.996 101.28 22.75 95.625 C23.587 94.826 24.423 94.027 25.285 93.203 C29.823 88.73 33.058 84.848 35.255 78.826 C36 77 36 77 38 75 C37.67 76.98 37.34 78.96 37 81 C37.699 80.422 38.397 79.845 39.117 79.25 C40.027 78.507 40.937 77.765 41.875 77 C42.78 76.257 43.685 75.515 44.617 74.75 C47 73 47 73 49 73 C49.268 72.304 49.536 71.608 49.812 70.891 C51.092 67.776 52.512 64.77 54 61.75 C54.516 60.693 55.031 59.636 55.562 58.547 C57 56 57 56 59 55 C57.581 59.474 55.866 63.701 54 68 C54.976 67.411 55.952 66.822 56.957 66.215 C58.242 65.455 59.527 64.696 60.812 63.938 C61.134 63.743 61.134 63.743 62.76 62.756 C64.463 61.759 66.229 60.872 68 60 C68.495 60.165 68.495 60.165 71 61 C68.69 62.485 68.69 62.485 57 70 C60.96 70.33 64.92 70.66 69 71 C69 71.33 69 71.66 69 72 C67.97 71.959 66.94 71.918 65.879 71.875 C54.766 71.984 48.859 75.519 41.126 83.333 C39.046 85.524 37.017 87.751 35 90 C34.359 90.701 33.718 91.402 33.058 92.125 C19.602 106.905 19.602 106.905 16.98 113.605 C15.171 118.025 11.787 121.177 8 124 C3.413 124.752 1.863 124.575 -2 122 C-4.301 121.409 -6.606 120.992 -8.941 120.562 C-11 120 -11 120 -13 118 C-13 117.01 -13 116.02 -13 115 C-13.742 115.082 -14.485 115.165 -15.25 115.25 C-18 115 -18 115 -20.375 113.375 C-22 111 -22 111 -21.824 108.5 C-20.704 103.744 -19.092 99.218 -17.438 94.625 C-17.108 93.698 -16.779 92.771 -16.439 91.816 C-15.631 89.543 -14.817 87.271 -14 85 C-13.34 85 -12.68 85 -12 85 C-11.734 83.938 -11.469 82.876 -11.195 81.781 C-10.487 78.948 -9.779 76.115 -9.07 73.281 C-8.895 72.574 -8.719 71.868 -8.539 71.139 C-8.18 69.714 -7.812 68.291 -7.434 66.87 C-4.696 56.444 -5.909 48.837 -10 39 C-10.677 37.003 -11.35 35.005 -12 33 C-8.286 36.202 -6.668 39.414 -5 44 C-5 44.99 -5 45.98 -5 47 C-4.34 47 -3.68 47 -3 47 C-2.97 46.613 -2.97 46.613 -2.816 44.656 C-2.733 43.615 -2.649 42.573 -2.562 41.5 C-2.481 40.479 -2.4 39.458 -2.316 38.406 C-2.101 36.088 -1.826 33.774 -1.5 31.469 C-0.714 25.343 -0.636 19.166 -0.438 13 C-0.394 11.748 -0.351 10.497 -0.307 9.207 C-0.201 6.138 -0.099 3.069 0 0 Z " fill="#C6DC69" transform="translate(47,31)"/>
<path d="M0 0 C0.165 0.33 0.165 0.33 1 2 C-0.433 4.729 -1.817 6.817 -4 9 C-4.633 10.945 -4.633 10.945 -5.125 13.125 C-5.414 14.404 -5.703 15.683 -6 17 C-4.35 16.34 -2.7 15.68 -1 15 C-1.371 15.763 -1.743 16.526 -2.125 17.312 C-2.269 17.756 -2.269 17.756 -3 20 C-2.34 20.99 -1.68 21.98 -1 23 C-1.32 23.144 -1.32 23.144 -2.938 23.875 C-5 25 -5 25 -6 27 C-5.34 27.33 -4.68 27.66 -4 28 C-4.99 28.99 -5.98 29.98 -7 31 C-0.429 31.468 3.768 31.484 9 27 C9.681 26.257 10.361 25.515 11.062 24.75 C13 23 13 23 15.75 22.75 C16.493 22.832 17.235 22.915 18 23 C17.67 23.66 17.34 24.32 17 25 C16.196 25.124 15.391 25.248 14.562 25.375 C12 26 12 26 10.688 27.875 C10 30 10 30 10 33 C9.257 33.557 8.515 34.114 7.75 34.688 C5.019 36.984 4.556 37.752 3.312 40.875 C0.885 46.254 -3.798 48.608 -9 51 C-9.66 51 -10.32 51 -11 51 C-10.783 50.374 -10.567 49.747 -10.344 49.102 C-10.065 48.284 -9.787 47.467 -9.5 46.625 C-9.222 45.813 -8.943 45.001 -8.656 44.164 C-8 42 -8 42 -8 40 C-8.461 41.062 -8.923 42.124 -9.398 43.219 C-13.421 52.071 -17.198 59.027 -26 64 C-26.66 64 -27.32 64 -28 64 C-28 62.68 -28 61.36 -28 60 C-28.215 60.57 -28.43 61.141 -28.652 61.728 C-32.158 69.828 -37.618 75.32 -43.839 81.381 C-45.577 83.076 -47.292 84.793 -49.006 86.514 C-50.108 87.605 -51.212 88.696 -52.316 89.785 C-52.827 90.295 -53.337 90.806 -53.863 91.332 C-56.431 93.814 -58.364 95.615 -62 96 C-61.216 94.989 -60.432 93.979 -59.625 92.938 C-56.504 88.756 -53.509 84.493 -50.562 80.188 C-50.101 79.529 -49.64 78.871 -49.165 78.193 C-48.029 76.514 -47.005 74.761 -46 73 C-46.33 72.01 -46.66 71.02 -47 70 C-47.66 70 -48.32 70 -49 70 C-49.245 70.715 -49.49 71.431 -49.742 72.168 C-51.154 75.346 -52.913 77.636 -55.125 80.312 C-55.487 80.754 -55.487 80.754 -57.32 82.988 C-57.597 83.32 -57.597 83.32 -59 85 C-59.872 82.564 -60.102 81.32 -59.307 78.821 C-58.052 76.269 -56.793 73.721 -55.5 71.188 C-55.077 70.31 -54.654 69.433 -54.219 68.529 C-51.362 62.845 -48.279 57.725 -43 54 C-39.254 52.879 -39.254 52.879 -35.562 52.562 C-34.326 52.44 -33.09 52.318 -31.816 52.191 C-31.352 52.16 -31.352 52.16 -29 52 C-29 50.68 -29 49.36 -29 48 C-28.01 48 -27.02 48 -26 48 C-26 47.34 -26 46.68 -26 46 C-29.96 45.67 -33.92 45.34 -38 45 C-35.579 40.157 -33.851 37.784 -28.828 35.656 C-28.238 35.465 -28.238 35.465 -25.25 34.5 C-12.086 30.021 -12.086 30.021 -8 26.062 C-6.788 23.562 -6.771 21.745 -7 19 C-9.31 18.34 -11.62 17.68 -14 17 C-13.776 13.077 -13.04 12.039 -10.125 9.25 C-7 7 -7 7 -4 6 C-2.603 4.044 -1.262 2.046 0 0 Z " fill="#2B6A0C" transform="translate(112,48)"/>
<path d="M0 0 C0.33 0.99 0.66 1.98 1 3 C2.258 2.773 3.516 2.546 4.812 2.312 C7.433 1.84 8.487 1.655 10.727 3.16 C13.362 6.968 12.752 11.609 12 16 C10.356 19.321 8.362 22.153 6 25 C6.788 24.973 7.575 24.946 8.387 24.918 C11 25 11 25 12.812 26.312 C14 28 14 28 14 31 C14.825 30.34 15.65 29.68 16.5 29 C20.499 26.363 23.273 26.325 28 27 C31.062 29.125 31.062 29.125 33 32 C32.921 35.953 32.202 37.696 30 41 C30.66 41 31.32 41 32 41 C32.938 43.625 32.938 43.625 33 47 C30.188 50.73 27.057 52.731 22.562 53.875 C21.717 53.916 20.871 53.958 20 54 C21.32 55.65 22.64 57.3 24 59 C16.592 66.831 16.592 66.831 11.238 67.18 C8.485 67.187 5.75 67.13 3 67 C3.248 66.711 3.248 66.711 4.5 65.25 C6 63 6 63 6 59 C6.99 58.34 7.98 57.68 9 57 C8.34 56.01 7.68 55.02 7 54 C7.66 53.01 8.32 52.02 9 51 C8.34 51.165 8.34 51.165 5 52 C5.495 44.582 5.495 44.582 8.062 41.625 C8.702 41.089 9.341 40.553 10 40 C10 39.34 10 38.68 10 38 C9.825 38.289 9.825 38.289 8.938 39.75 C7.08 41.907 5.956 42.666 3.5 43.938 C0.108 45.726 -1.131 47.635 -3 51 C-3.99 51 -4.98 51 -6 51 C-5.466 47.156 -4.717 44.808 -2 42 C-0.826 41.33 0.363 40.686 1.562 40.062 C4.339 38.592 4.91 38.173 6.438 35.25 C6.623 34.508 6.809 33.765 7 33 C8.32 33.33 9.64 33.66 11 34 C11.33 32.02 11.66 30.04 12 28 C7.38 28.33 2.76 28.66 -2 29 C-1.67 27.02 -1.34 25.04 -1 23 C-1.66 23 -2.32 23 -3 23 C-3.206 23.66 -3.412 24.32 -3.625 25 C-5.216 28.471 -7.292 31.157 -9.66 34.133 C-11 36 -11 36 -12 39 C-15.444 42 -15.444 42 -18 42 C-17.675 40.332 -17.339 38.665 -17 37 C-16.898 36.497 -16.898 36.497 -16.379 33.949 C-14.415 26.101 -12.025 22.324 -5.395 17.703 C-3.261 16.186 -1.838 14.861 -0.25 12.812 C2.255 9.681 4.863 7.48 8 5 C5.36 5 2.72 5 0 5 C0 3.35 0 1.7 0 0 Z " fill="#53911F" transform="translate(101,13)"/>
<path d="M0 0 C0.99 0 1.98 0 3 0 C3 53.46 3 106.92 3 162 C3.66 162 4.32 162 5 162 C5 162.66 5 163.32 5 164 C24.993 164.047 44.985 164.082 64.978 164.104 C74.261 164.114 83.544 164.128 92.827 164.151 C100.917 164.171 109.008 164.184 117.098 164.188 C121.383 164.191 125.667 164.197 129.951 164.211 C133.984 164.225 138.016 164.229 142.049 164.226 C143.528 164.227 145.008 164.231 146.488 164.238 C148.51 164.248 150.531 164.245 152.552 164.241 C153.683 164.242 154.814 164.244 155.98 164.246 C159.038 163.997 161.237 163.298 164 162 C164 164.64 164 167.28 164 170 C109.88 170 55.76 170 0 170 C0 113.9 0 57.8 0 0 Z " fill="#FEFDFD" transform="translate(0,0)"/>
<path d="M0 0 C0.66 0 1.32 0 2 0 C1.67 1.98 1.34 3.96 1 6 C1.32 5.918 1.32 5.918 2.938 5.5 C6.976 4.841 10.918 4.92 15 5 C14.67 6.98 14.34 8.96 14 11 C12.68 10.67 11.36 10.34 10 10 C9.969 10.371 9.969 10.371 9.812 12.25 C8.743 15.871 7.131 16.987 4 19 C3.01 19 2.02 19 1 19 C-0.523 21.937 -1.801 24.917 -3 28 C-2.374 28.049 -1.747 28.098 -1.102 28.148 C-0.284 28.223 0.533 28.298 1.375 28.375 C2.187 28.445 2.999 28.514 3.836 28.586 C6 29 6 29 8 31 C8 35.214 7.53 37.364 4.812 40.625 C0.561 43.769 -4.59 45.164 -9.562 46.789 C-14.375 48.484 -18.729 50.024 -21.875 54.188 C-22.576 55.116 -23.278 56.044 -24 57 C-19.71 57 -15.42 57 -11 57 C-11.33 57.99 -11.66 58.98 -12 60 C-12.99 60 -13.98 60 -15 60 C-14.814 60.639 -14.629 61.279 -14.438 61.938 C-14.293 62.618 -14.149 63.299 -14 64 C-15.845 65.845 -19.139 65.356 -21.625 65.562 C-26.961 66.254 -29.843 66.988 -33.375 71.125 C-34.289 72.39 -35.179 73.673 -36 75 C-37.16 71.537 -37.018 71.043 -35.488 67.391 C-34.775 66.004 -34.049 64.624 -33.312 63.25 C-33.136 62.911 -33.136 62.911 -32.244 61.195 C-31.528 59.818 -30.803 58.445 -30.071 57.076 C-29.36 55.697 -28.691 54.296 -28.068 52.875 C-25.766 47.707 -23.21 45.042 -18.438 42.062 C-17.861 41.678 -17.284 41.293 -16.689 40.896 C-14.154 39.232 -11.888 37.963 -9 37 C-13.349 37.564 -16.178 39.154 -19.812 41.562 C-20.3 41.883 -20.3 41.883 -22.77 43.504 C-23.506 43.998 -24.242 44.491 -25 45 C-24.338 42.998 -23.67 40.999 -23 39 C-22.607 37.817 -22.214 36.633 -21.809 35.414 C-18.789 26.86 -15.633 21.335 -8 16 C-7.296 15.5 -6.592 15 -5.867 14.484 C-5.549 14.26 -5.549 14.26 -3.938 13.125 C-2.968 12.424 -1.999 11.722 -1 11 C-1 10.34 -1 9.68 -1 9 C-1.763 9.804 -2.526 10.609 -3.312 11.438 C-6 14 -6 14 -9 15 C-7.383 11.605 -5.491 8.438 -3.5 5.25 C-3.196 4.758 -3.196 4.758 -1.656 2.266 C-1.11 1.518 -0.563 0.77 0 0 Z " fill="#69A625" transform="translate(98,36)"/>
<path d="M0 0 C0.33 0 0.66 0 1 0 C1.402 6.166 -0.032 11.177 -2 17 C-1.34 16.67 -0.68 16.34 0 16 C0.633 13.934 0.633 13.934 1.125 11.438 C1.293 10.611 1.46 9.785 1.633 8.934 C1.754 8.296 1.875 7.657 2 7 C2.66 7.33 3.32 7.66 4 8 C3.67 8.66 3.34 9.32 3 10 C2.559 15.221 2.965 19.167 5 24 C5.076 26.332 5.091 28.668 5 31 C1.947 31.981 0.053 31.981 -3 31 C-4.61 34.22 -4.476 37.507 -4 41 C-3.105 42.988 -3.105 42.988 -2 44.938 C0.416 49.249 0.615 53.14 0 58 C-0.33 58.66 -0.66 59.32 -1 60 C-3.31 59.34 -5.62 58.68 -8 58 C-7.858 59.438 -7.711 60.875 -7.562 62.312 C-7.522 62.713 -7.522 62.713 -7.316 64.738 C-7 67 -7 67 -6 70 C-5.857 71.642 -5.78 73.29 -5.75 74.938 C-5.737 75.365 -5.737 75.365 -5.672 77.527 C-6.061 80.461 -7.066 81.807 -9 84 C-8.67 82.02 -8.34 80.04 -8 78 C-8.66 78 -9.32 78 -10 78 C-10.082 79.073 -10.165 80.145 -10.25 81.25 C-11.056 85.279 -11.782 86.562 -15 89 C-15.66 89 -16.32 89 -17 89 C-16.859 86.896 -16.712 84.791 -16.562 82.688 C-16.481 81.516 -16.4 80.344 -16.316 79.137 C-16 76 -16 76 -15 73 C-14.733 70.357 -14.508 67.726 -14.316 65.078 C-14.192 63.479 -14.068 61.88 -13.943 60.281 C-13.752 57.769 -13.563 55.257 -13.378 52.744 C-13.197 50.313 -13.007 47.883 -12.816 45.453 C-12.764 44.711 -12.712 43.969 -12.658 43.205 C-12.064 35.761 -10.772 30.194 -5.438 24.688 C-1.054 20.107 -1.054 20.107 0 18 C-1.32 18.33 -2.64 18.66 -4 19 C-3.263 12.515 -1.647 6.308 0 0 Z " fill="#377B15" transform="translate(60,25)"/>
<path d="M0 0 C0.33 0.99 0.66 1.98 1 3 C2.258 2.773 3.516 2.546 4.812 2.312 C7.433 1.84 8.487 1.655 10.727 3.16 C13.362 6.968 12.752 11.609 12 16 C10.356 19.321 8.362 22.153 6 25 C6.784 24.959 7.567 24.918 8.375 24.875 C11 25 11 25 13 27 C13.125 29.625 13.125 29.625 13 32 C13.99 32 14.98 32 16 32 C16 33.65 16 35.3 16 37 C16.66 37 17.32 37 18 37 C16.584 40.127 14.877 42.539 12.625 45.125 C12.04 45.808 11.455 46.491 10.852 47.195 C8.993 49.007 7.372 49.987 5 51 C5.401 45.785 6.05 43.44 10 40 C10 39.34 10 38.68 10 38 C9.825 38.289 9.825 38.289 8.938 39.75 C7.08 41.907 5.956 42.666 3.5 43.938 C0.108 45.726 -1.131 47.635 -3 51 C-3.99 51 -4.98 51 -6 51 C-5.466 47.156 -4.717 44.808 -2 42 C-0.826 41.33 0.363 40.686 1.562 40.062 C4.339 38.592 4.91 38.173 6.438 35.25 C6.623 34.508 6.809 33.765 7 33 C8.32 33.33 9.64 33.66 11 34 C11.33 32.02 11.66 30.04 12 28 C7.38 28.33 2.76 28.66 -2 29 C-1.67 27.02 -1.34 25.04 -1 23 C-1.66 23 -2.32 23 -3 23 C-3.206 23.66 -3.412 24.32 -3.625 25 C-5.216 28.471 -7.292 31.157 -9.66 34.133 C-11 36 -11 36 -12 39 C-15.444 42 -15.444 42 -18 42 C-17.675 40.332 -17.339 38.665 -17 37 C-16.898 36.497 -16.898 36.497 -16.379 33.949 C-14.415 26.101 -12.025 22.324 -5.395 17.703 C-3.261 16.186 -1.838 14.861 -0.25 12.812 C2.255 9.681 4.863 7.48 8 5 C5.36 5 2.72 5 0 5 C0 3.35 0 1.7 0 0 Z " fill="#4C8B1A" transform="translate(101,13)"/>
<path d="M0 0 C0.33 0 0.66 0 1 0 C3.352 16.461 2.015 33.124 0.688 49.625 C0.658 50.008 0.658 50.008 0.509 51.945 C-0.243 61.555 -1.616 70.635 -4 80 C-4.7 83.327 -5.359 86.661 -6 90 C-5.505 89.835 -5.505 89.835 -3 89 C-3.66 91.97 -4.32 94.94 -5 98 C-5.99 98 -6.98 98 -8 98 C-8.091 98.332 -8.091 98.332 -8.551 100.012 C-9.895 104.735 -11.15 108.928 -14 113 C-15.32 112.67 -16.64 112.34 -18 112 C-19.409 106.48 -18.709 103.844 -16.242 98.816 C-9.498 83.525 -2.095 60.399 -7.875 44.188 C-8.575 42.455 -9.282 40.725 -10 39 C-10.677 37.003 -11.35 35.005 -12 33 C-8.286 36.202 -6.668 39.414 -5 44 C-5 44.99 -5 45.98 -5 47 C-4.34 47 -3.68 47 -3 47 C-2.97 46.613 -2.97 46.613 -2.816 44.656 C-2.733 43.615 -2.649 42.573 -2.562 41.5 C-2.481 40.479 -2.4 39.458 -2.316 38.406 C-2.101 36.088 -1.826 33.774 -1.5 31.469 C-0.714 25.343 -0.636 19.166 -0.438 13 C-0.394 11.748 -0.351 10.497 -0.307 9.207 C-0.201 6.138 -0.099 3.069 0 0 Z " fill="#B3D15A" transform="translate(47,31)"/>
<path d="M0 0 C0.33 0 0.66 0 1 0 C-0.131 13.983 -3.684 26.074 -9 39 C2.706 31.886 2.706 31.886 7 27 C5.636 31.969 2.679 34.111 -1.375 36.938 C-8.281 41.77 -11.748 46.695 -14.625 54.75 C-16.79 60.79 -16.79 60.79 -19 63 C-18.218 58.153 -16.602 53.623 -15 49 C-15.66 49 -16.32 49 -17 49 C-17.182 49.58 -17.364 50.16 -17.551 50.758 C-19.042 55.391 -20.683 59.698 -23 64 C-23.33 64 -23.66 64 -24 64 C-24.205 63.096 -24.41 62.193 -24.621 61.262 C-24.756 60.672 -24.756 60.672 -25.438 57.688 C-25.704 56.516 -25.971 55.344 -26.246 54.137 C-27 51 -27 51 -28 48 C-27.835 47.835 -27.835 47.835 -27 47 C-26.766 44.984 -26.587 42.962 -26.438 40.938 C-26.396 40.385 -26.396 40.385 -26.184 37.59 C-26.123 36.735 -26.062 35.881 -26 35 C-25.34 35 -24.68 35 -24 35 C-24.33 31.7 -24.66 28.4 -25 25 C-23.68 25.99 -22.36 26.98 -21 28 C-21 28.66 -21 29.32 -21 30 C-18 29 -18 29 -16 26 C-14.683 31.006 -13.692 35.86 -13 41 C-7.851 27.495 -3.376 14.057 0 0 Z " fill="#76B12F" transform="translate(92,16)"/>
<path d="M0 0 C0.165 0.33 0.165 0.33 1 2 C0.004 4.602 0.004 4.602 -1.438 7.625 C-1.911 8.628 -2.384 9.631 -2.871 10.664 C-3.244 11.435 -3.616 12.206 -4 13 C-3.024 12.411 -2.048 11.822 -1.043 11.215 C0.242 10.455 1.527 9.696 2.812 8.938 C3.455 8.548 4.098 8.158 4.76 7.756 C6.463 6.759 8.229 5.872 10 5 C10.99 5.33 11.98 5.66 13 6 C10.69 7.485 10.69 7.485 -1 15 C2.96 15.33 6.92 15.66 11 16 C11 16.33 11 16.66 11 17 C9.97 16.959 8.94 16.918 7.879 16.875 C-3.234 16.984 -9.141 20.519 -16.874 28.333 C-18.954 30.524 -20.983 32.751 -23 35 C-23.32 35.351 -23.32 35.351 -24.942 37.125 C-30.439 43.163 -35.472 49.198 -40 56 C-41.629 57.379 -43.297 58.713 -45 60 C-46.686 61.647 -48.356 63.311 -50 65 C-52 67 -52 67 -54.625 67.125 C-55.409 67.084 -56.193 67.043 -57 67 C-57.66 65.68 -58.32 64.36 -59 63 C-56.052 59.954 -52.999 57.108 -49.812 54.312 C-44.639 49.656 -39.608 44.859 -34.625 40 C-33.84 39.253 -33.054 38.505 -32.245 37.736 C-27.869 33.424 -24.908 29.638 -22.767 23.848 C-22 22 -22 22 -20 20 C-20.33 21.98 -20.66 23.96 -21 26 C-20.301 25.422 -19.603 24.845 -18.883 24.25 C-17.973 23.507 -17.063 22.765 -16.125 22 C-15.22 21.257 -14.315 20.515 -13.383 19.75 C-11 18 -11 18 -9 18 C-8.733 17.304 -8.466 16.608 -8.191 15.891 C-6.904 12.767 -5.451 9.77 -3.938 6.75 C-3.41 5.693 -2.883 4.636 -2.34 3.547 C-1 1 -1 1 0 0 Z " fill="#B2D14B" transform="translate(105,86)"/>
<path d="M0 0 C0.33 0 0.66 0 1 0 C1.055 0.398 1.055 0.398 1.332 2.414 C2.202 8.229 3.25 12.762 6 18 C5.688 20.375 5.688 20.375 5 22 C2.36 22 -0.28 22 -3 22 C-3.854 27.55 -1.761 30.48 1.344 34.809 C1.89 35.532 2.437 36.255 3 37 C3.464 37.63 3.928 38.261 4.406 38.91 C5.688 40.563 5.688 40.563 8 43 C8.99 43 9.98 43 11 43 C14.503 50.006 11.413 60.235 9.688 67.438 C9.474 68.404 9.261 69.37 9.041 70.365 C7.965 74.999 7.088 78.288 4 82 C1.719 78.579 1.781 77.318 1.875 73.312 C1.893 72.319 1.911 71.325 1.93 70.301 C1.953 69.542 1.976 68.782 2 68 C2.495 67.835 2.495 67.835 5 67 C4.602 66.408 4.203 65.817 3.793 65.207 C2.702 63.58 1.616 61.95 0.535 60.316 C-0.589 58.62 -1.728 56.932 -2.875 55.25 C-4.2 52.6 -4.395 50.926 -4 48 C-2 46 -2 46 1 45.812 C4 46 4 46 6 47 C4.192 43.003 2.127 39.946 -0.723 36.629 C-4.127 32.288 -6.078 28.636 -5.812 23.062 C-5 20 -5 20 -4 19 C-1.672 18.632 0.662 18.298 3 18 C2.711 17.443 2.422 16.886 2.125 16.312 C-0.513 10.89 -1.538 7.026 -1 1 C-0.67 0.67 -0.34 0.34 0 0 Z " fill="#579922" transform="translate(30,36)"/>
<path d="M0 0 C5.678 4.503 6.644 11.218 8 18 C9.98 13.38 11.96 8.76 14 4 C14.66 4 15.32 4 16 4 C14.105 14.334 9.886 23.454 5.121 32.762 C3.608 35.783 2.324 38.892 1 42 C0.041 43.949 -0.94 45.884 -1.938 47.812 C-2.807 49.602 -3.605 51.426 -4.383 53.258 C-6.061 57.209 -7.945 61.041 -9.875 64.875 C-10.224 65.572 -10.574 66.268 -10.934 66.986 C-13.494 72.064 -16.154 77.075 -19 82 C-20.98 82 -22.96 82 -25 82 C-24.306 78.175 -22.578 75.197 -20.684 71.828 C-20.351 71.233 -20.019 70.638 -19.676 70.024 C-18.967 68.754 -18.255 67.485 -17.542 66.216 C-15.698 62.933 -13.869 59.641 -12.043 56.348 C-11.686 55.705 -11.33 55.062 -10.962 54.399 C-7.079 47.371 -3.496 40.226 0 33 C0.353 32.358 0.706 31.716 1.07 31.055 C4.675 24.381 4.893 18.529 4 11 C3.16 8.375 2.185 6.091 0.875 3.672 C0 2 0 2 0 0 Z " fill="#E7F299" transform="translate(61,61)"/>
<path d="M0 0 C-0.162 4.137 -0.505 6.406 -3.188 9.625 C-7.439 12.769 -12.59 14.164 -17.562 15.789 C-22.375 17.484 -26.729 19.024 -29.875 23.188 C-30.576 24.116 -31.278 25.044 -32 26 C-27.71 26 -23.42 26 -19 26 C-19.33 26.99 -19.66 27.98 -20 29 C-20.99 29 -21.98 29 -23 29 C-22.814 29.639 -22.629 30.279 -22.438 30.938 C-22.293 31.618 -22.149 32.299 -22 33 C-23.845 34.845 -27.139 34.356 -29.625 34.562 C-34.961 35.254 -37.843 35.988 -41.375 40.125 C-42.289 41.39 -43.179 42.673 -44 44 C-45.16 40.537 -45.018 40.043 -43.488 36.391 C-42.775 35.004 -42.049 33.624 -41.312 32.25 C-41.136 31.911 -41.136 31.911 -40.244 30.195 C-39.53 28.822 -38.81 27.451 -38.084 26.084 C-36.657 23.341 -35.331 20.551 -34.016 17.753 C-32.079 14.412 -29.611 12.339 -26 11 C-22.914 10.867 -19.9 11.002 -16.816 11.156 C-12.458 10.914 -10.932 9.087 -8 6 C-7.34 6 -6.68 6 -6 6 C-5.732 5.381 -5.464 4.763 -5.188 4.125 C-4.006 2.011 -2.764 0 0 0 Z " fill="#53901D" transform="translate(106,67)"/>
<path d="M0 0 C0.99 0 1.98 0 3 0 C1.872 2.768 0.737 4.256 -1.438 6.375 C-4 9 -4 9 -5.188 11.938 C-7.928 16.567 -12.227 18.691 -17 21 C-17.66 21 -18.32 21 -19 21 C-18.783 20.374 -18.567 19.747 -18.344 19.102 C-18.065 18.284 -17.787 17.467 -17.5 16.625 C-17.222 15.813 -16.943 15.001 -16.656 14.164 C-16 12 -16 12 -16 10 C-16.461 11.062 -16.923 12.124 -17.398 13.219 C-21.421 22.071 -25.198 29.027 -34 34 C-34.66 34 -35.32 34 -36 34 C-36.155 24.727 -36.155 24.727 -35 22 C-32.969 21.023 -32.969 21.023 -30.5 20.375 C-28.031 19.711 -28.031 19.711 -26 19 C-25.67 18.34 -25.34 17.68 -25 17 C-26.32 17.33 -27.64 17.66 -29 18 C-29.33 16.02 -29.66 14.04 -30 12 C-28.68 11.67 -27.36 11.34 -26 11 C-25.67 11.99 -25.34 12.98 -25 14 C-24.34 13.67 -23.68 13.34 -23 13 C-22.897 12.402 -22.794 11.804 -22.688 11.188 C-21.66 7.92 -19.84 6.807 -17 5 C-14.188 4.75 -14.188 4.75 -12 5 C-12 5.99 -12 6.98 -12 8 C-11.825 7.783 -11.825 7.783 -10.938 6.688 C-8.267 4.362 -5.25 3.359 -2 2 C-1.34 1.34 -0.68 0.68 0 0 Z " fill="#36770F" transform="translate(120,78)"/>
<path d="M0 0 C3 1 3 1 4 3 C5.98 3 7.96 3 10 3 C11.704 5.572 12.045 6.702 11.574 9.805 C11.282 10.818 10.989 11.831 10.688 12.875 C9.547 16.911 8.626 20.85 8 25 C8.99 25 9.98 25 11 25 C9.487 28.453 7.453 30.956 4.938 33.75 C4.225 34.549 3.512 35.348 2.777 36.172 C2.191 36.775 1.604 37.378 1 38 C0.67 38 0.34 38 0 38 C-0.02 37.26 -0.04 36.519 -0.06 35.756 C-0.156 32.358 -0.265 28.96 -0.375 25.562 C-0.39 24.98 -0.39 24.98 -0.469 22.033 C-0.692 15.425 -1.317 9.398 -3 3 C-2.01 2.67 -1.02 2.34 0 2 C0 1.34 0 0.68 0 0 Z " fill="#4E8F20" transform="translate(49,18)"/>
<path d="M0 0 C0.33 0 0.66 0 1 0 C3.724 11.133 3.162 18.129 -2.617 28.07 C-3.009 28.715 -3.4 29.36 -3.804 30.024 C-5.02 32.033 -6.176 34.067 -7.32 36.117 C-9.176 39.434 -11.075 42.723 -13 46 C-13.99 45.01 -14.98 44.02 -16 43 C-16.33 43.66 -16.66 44.32 -17 45 C-17.66 45 -18.32 45 -19 45 C-18.67 41.7 -18.34 38.4 -18 35 C-16.68 35.66 -15.36 36.32 -14 37 C-12.277 33.705 -10.706 30.669 -10 27 C-9.34 27 -8.68 27 -8 27 C-8 28.32 -8 29.64 -8 31 C-5.747 26.493 -6.546 20.39 -8.062 15.75 C-8.372 14.843 -8.681 13.935 -9 13 C-8.625 9.625 -8.625 9.625 -8 7 C-3.25 7.875 -3.25 7.875 -1 9 C-0.67 6.03 -0.34 3.06 0 0 Z " fill="#549721" transform="translate(60,76)"/>
<path d="M0 0 C0.66 0.33 1.32 0.66 2 1 C1.449 4.677 0.559 7.061 -1.617 10.066 C-2.142 10.799 -2.666 11.532 -3.207 12.287 C-3.757 13.038 -4.308 13.789 -4.875 14.562 C-5.418 15.317 -5.96 16.072 -6.52 16.85 C-8.506 19.606 -10.507 22.348 -12.555 25.058 C-13.754 26.669 -14.886 28.329 -16 30 C-16.66 30 -17.32 30 -18 30 C-17.67 31.65 -17.34 33.3 -17 35 C-14.75 35.25 -14.75 35.25 -12 35 C-9.812 33 -9.812 33 -8 31 C-7.34 31 -6.68 31 -6 31 C-5.711 30.361 -5.422 29.721 -5.125 29.062 C-4 27 -4 27 -2 26 C-1.67 26.99 -1.34 27.98 -1 29 C-8.668 37.764 -8.668 37.764 -13.875 38.688 C-17 38 -17 38 -20 36 C-22.324 35.606 -24.658 35.265 -27 35 C-27 34.34 -27 33.68 -27 33 C-26.609 32.965 -26.609 32.965 -24.629 32.785 C-22 32 -22 32 -20.777 29.996 C-20.5 29.152 -20.223 28.307 -19.938 27.438 C-18.277 22.727 -16.298 18.433 -14 14 C-13.01 14 -12.02 14 -11 14 C-9.347 11.882 -7.883 9.814 -6.438 7.562 C-2.233 1.116 -2.233 1.116 0 0 Z " fill="#92B336" transform="translate(65,117)"/>
<path d="M0 0 C1.114 0.186 2.227 0.371 3.375 0.562 C7 1 7 1 9 0 C9 2.64 9 5.28 9 8 C8.01 8 7.02 8 6 8 C6.643 9.929 7.323 11.846 8.047 13.746 C9.097 17.331 9.266 20.333 9.25 24.062 C9.255 25.25 9.26 26.437 9.266 27.66 C9.01 30.875 8.377 33.109 7 36 C4.356 33.356 4.583 31.685 4.188 28 C3.414 22.3 1.804 18.276 -0.949 13.289 C-2.628 9.631 -2.488 6.97 -2 3 C-1.34 2.01 -0.68 1.02 0 0 Z " fill="#6DA82C" transform="translate(57,55)"/>
<path d="M0 0 C0.543 0.005 0.543 0.005 3.293 0.027 C4.124 0.039 4.956 0.051 5.812 0.062 C5.812 1.382 5.812 2.703 5.812 4.062 C7.792 4.062 9.773 4.062 11.812 4.062 C11.812 4.722 11.812 5.382 11.812 6.062 C10.764 6.039 9.716 6.016 8.637 5.992 C7.258 5.973 5.879 5.955 4.5 5.938 C3.81 5.921 3.119 5.904 2.408 5.887 C-1.359 5.85 -2.972 5.919 -6.188 8.062 C-6.561 9.721 -6.895 11.388 -7.188 13.062 C-9.506 15.381 -10.738 15.563 -13.875 16.312 C-19.122 17.782 -22.415 20.203 -26.188 24.062 C-23.289 17.783 -19.057 12.495 -14.625 7.25 C-14.144 6.665 -13.662 6.081 -13.166 5.479 C-8.947 0.471 -6.387 -0.069 0 0 Z " fill="#478418" transform="translate(89.1875,120.9375)"/>
<path d="M0 0 C0.33 0 0.66 0 1 0 C1.389 14.671 0.657 28.559 -2 43 C-2.66 43 -3.32 43 -4 43 C-6.049 38.781 -6.212 35.346 -6.125 30.688 C-6.107 29.433 -6.089 28.179 -6.07 26.887 C-6.059 26.41 -6.059 26.41 -6 24 C-5.34 24 -4.68 24 -4 24 C-4.474 23.01 -4.949 22.02 -5.438 21 C-7.168 17.008 -7.621 13.319 -8 9 C-6.02 8.34 -4.04 7.68 -2 7 C-1.67 7.66 -1.34 8.32 -1 9 C-0.67 6.03 -0.34 3.06 0 0 Z " fill="#529521" transform="translate(46,35)"/>
<path d="M0 0 C0.33 0 0.66 0 1 0 C1.934 6.341 2.193 12.532 2.188 18.938 C2.187 19.947 2.186 20.957 2.185 21.998 C2.114 30.793 1.296 39.311 0 48 C-0.156 49.17 -0.312 50.341 -0.473 51.547 C-1.434 58.433 -2.51 65.476 -5 72 C-5.33 72.165 -5.33 72.165 -7 73 C-7.072 68.705 -7.044 65.154 -6 61 C-5.188 52.787 -6.867 46.533 -10 39 C-10.677 37.003 -11.35 35.005 -12 33 C-8.286 36.202 -6.668 39.414 -5 44 C-5 44.99 -5 45.98 -5 47 C-4.34 47 -3.68 47 -3 47 C-2.939 46.227 -2.879 45.453 -2.816 44.656 C-2.733 43.615 -2.649 42.573 -2.562 41.5 C-2.481 40.479 -2.4 39.458 -2.316 38.406 C-2.101 36.088 -1.826 33.774 -1.5 31.469 C-0.714 25.343 -0.636 19.166 -0.438 13 C-0.394 11.748 -0.351 10.497 -0.307 9.207 C-0.201 6.138 -0.099 3.069 0 0 Z " fill="#BED964" transform="translate(47,31)"/>
<path d="M0 0 C0.66 0.66 1.32 1.32 2 2 C2.66 1.67 3.32 1.34 4 1 C3.835 1.578 3.67 2.155 3.5 2.75 C3 5 3 5 3 9 C4.32 8.01 5.64 7.02 7 6 C8.25 8.562 8.25 8.562 9 12 C7.369 15.503 5.819 18.093 3.25 20.938 C1.296 24.162 1.806 27.33 2 31 C2 32.32 2 33.64 2 35 C2.66 35 3.32 35 4 35 C3.812 36.812 3.812 36.812 3 39 C0.438 40.75 0.438 40.75 -2 42 C-3.068 37.065 -2.908 32.524 -2.441 27.539 C-2.373 26.748 -2.305 25.958 -2.235 25.143 C-2.018 22.637 -1.79 20.131 -1.562 17.625 C-1.413 15.918 -1.264 14.211 -1.115 12.504 C-0.751 8.335 -0.378 4.167 0 0 Z " fill="#3E8419" transform="translate(48,62)"/>
<path d="M0 0 C0.33 0 0.66 0 1 0 C-0.131 13.983 -3.684 26.074 -9 39 C2.706 31.886 2.706 31.886 7 27 C5.636 31.969 2.679 34.111 -1.375 36.938 C-8.281 41.77 -11.748 46.695 -14.625 54.75 C-16.79 60.79 -16.79 60.79 -19 63 C-18.552 60.683 -18.094 58.376 -17.523 56.086 C-15.983 49.763 -15.417 43.487 -15 37 C-14.34 38.32 -13.68 39.64 -13 41 C-7.851 27.495 -3.376 14.057 0 0 Z " fill="#C9E16E" transform="translate(92,16)"/>
<path d="M0 0 C3.062 0.125 3.062 0.125 5.062 1.125 C5.062 1.785 5.062 2.445 5.062 3.125 C6.383 3.125 7.703 3.125 9.062 3.125 C9.062 5.765 9.062 8.405 9.062 11.125 C8.072 10.465 7.082 9.805 6.062 9.125 C6.423 9.896 6.784 10.667 7.156 11.461 C7.62 12.464 8.084 13.467 8.562 14.5 C9.027 15.498 9.491 16.495 9.969 17.523 C11.062 20.125 11.062 20.125 11.062 22.125 C10.072 22.455 9.082 22.785 8.062 23.125 C6.433 21.212 4.809 19.295 3.188 17.375 C2.727 16.836 2.267 16.297 1.793 15.742 C-2.441 10.71 -4.381 7.778 -3.938 1.125 C-2.938 0.125 -2.938 0.125 0 0 Z " fill="#74B031" transform="translate(29.9375,56.875)"/>
<path d="M0 0 C0.66 0.33 1.32 0.66 2 1 C2.027 2.458 2.046 3.917 2.062 5.375 C2.074 6.187 2.086 6.999 2.098 7.836 C2 10 2 10 1 12 C-1.31 11.34 -3.62 10.68 -6 10 C-5.858 11.438 -5.711 12.875 -5.562 14.312 C-5.481 15.113 -5.4 15.914 -5.316 16.738 C-5 19 -5 19 -4 22 C-3.857 23.642 -3.78 25.29 -3.75 26.938 C-3.737 27.365 -3.737 27.365 -3.672 29.527 C-4.061 32.461 -5.066 33.807 -7 36 C-6.835 35.01 -6.835 35.01 -6 30 C-6.66 30 -7.32 30 -8 30 C-8.082 31.073 -8.165 32.145 -8.25 33.25 C-9.056 37.279 -9.782 38.562 -13 41 C-13.66 41 -14.32 41 -15 41 C-14.67 36.71 -14.34 32.42 -14 28 C-13.34 28 -12.68 28 -12 28 C-11.67 28.66 -11.34 29.32 -11 30 C-9.68 29.01 -8.36 28.02 -7 27 C-8 25 -8 25 -10 23 C-9.552 17.447 -9.125 12.688 -6 8 C-5.34 8 -4.68 8 -4 8 C-3.856 7.711 -3.856 7.711 -3.125 6.25 C-2.083 4.167 -1.042 2.083 0 0 Z " fill="#276A0D" transform="translate(58,73)"/>
<path d="M0 0 C0.99 0.33 1.98 0.66 3 1 C2.34 1.639 1.68 2.279 1 2.938 C-2.857 6.783 -6.408 10.909 -10 15 C-4.419 14.366 0.823 13.037 6.23 11.523 C8.96 11.008 10.42 11.076 13 12 C8.287 14.649 4.067 15.773 -1.188 16.625 C-8.734 17.911 -8.734 17.911 -12 19 C-21.045 19.783 -28.969 18.207 -37 14 C-37 13.34 -37 12.68 -37 12 C-37.99 11.67 -38.98 11.34 -40 11 C-40 10.01 -40 9.02 -40 8 C-38.68 8 -37.36 8 -36 8 C-35.762 8.637 -35.523 9.274 -35.277 9.93 C-34 12 -34 12 -31.941 12.758 C-31.549 12.818 -31.549 12.818 -29.562 13.125 C-26.229 13.663 -24.921 14.053 -22 16 C-18.812 16.625 -18.812 16.625 -15 16 C-11.939 13.679 -9.506 10.898 -7 8 C-6.319 7.237 -5.639 6.474 -4.938 5.688 C-3.272 3.807 -1.628 1.913 0 0 Z " fill="#F5EAD2" transform="translate(70,138)"/>
<path d="M0 0 C0.66 0 1.32 0 2 0 C3.669 5.771 2.103 8.822 -0.625 13.812 C-0.992 14.514 -1.36 15.215 -1.738 15.938 C-2.808 17.968 -3.899 19.986 -5 22 C-5.544 23.004 -6.088 24.008 -6.648 25.043 C-7.747 27.04 -8.86 29.026 -10 31 C-11.98 31 -13.96 31 -16 31 C-15.305 27.133 -13.533 24.109 -11.621 20.703 C-11.29 20.109 -10.958 19.516 -10.616 18.904 C-9.561 17.017 -8.499 15.133 -7.438 13.25 C-6.719 11.968 -6.001 10.685 -5.283 9.402 C-3.527 6.265 -1.765 3.132 0 0 Z " fill="#E9F1A2" transform="translate(52,112)"/>
<path d="M0 0 C0.33 0 0.66 0 1 0 C1.055 0.398 1.055 0.398 1.332 2.414 C2.202 8.229 3.25 12.762 6 18 C5.688 20.375 5.688 20.375 5 22 C2.36 22 -0.28 22 -3 22 C-3.861 27.596 -1.69 30.519 1.398 34.902 C3 37 3 37 5.375 39.625 C7.566 42.828 7.297 45.21 7 49 C6.34 49.165 6.34 49.165 3 50 C3 49.34 3 48.68 3 48 C1.35 48 -0.3 48 -2 48 C-0 56.571 -0 56.571 2 60 C-1.319 57.191 -2.851 55.586 -3.938 51.312 C-3.958 50.219 -3.979 49.126 -4 48 C-2 46 -2 46 1 45.812 C4 46 4 46 6 47 C4.192 43.003 2.127 39.946 -0.723 36.629 C-4.127 32.288 -6.078 28.636 -5.812 23.062 C-5 20 -5 20 -4 19 C-1.672 18.632 0.662 18.298 3 18 C2.711 17.443 2.422 16.886 2.125 16.312 C-0.513 10.89 -1.538 7.026 -1 1 C-0.67 0.67 -0.34 0.34 0 0 Z " fill="#4A8726" transform="translate(30,36)"/>
<path d="M0 0 C0.66 0.99 1.32 1.98 2 3 C1.391 5.996 1.391 5.996 0.25 9.438 C-0.116 10.571 -0.482 11.704 -0.859 12.871 C-2 16 -2 16 -3.164 18.176 C-4.532 21.161 -3.602 23.872 -3 27 C-2.01 27 -1.02 27 0 27 C2.323 21.395 4.467 15.875 6 10 C6.33 10.495 6.33 10.495 8 13 C8.99 9.04 9.98 5.08 11 1 C12 3 13 5 14 7 C13.211 8.74 13.211 8.74 11.945 10.809 C11.495 11.556 11.046 12.303 10.582 13.072 C10.342 13.463 10.342 13.463 9.125 15.438 C8.188 16.976 7.253 18.517 6.32 20.059 C5.9 20.742 5.48 21.426 5.047 22.131 C4 24 4 24 3 27 C3.66 27.33 4.32 27.66 5 28 C4.01 28 3.02 28 2 28 C1.67 28.99 1.34 29.98 1 31 C-6.233 28.91 -6.233 28.91 -8 26 C-7.509 20.269 -5.372 14.995 -3.438 9.625 C-3.108 8.698 -2.779 7.771 -2.439 6.816 C-1.631 4.543 -0.817 2.271 0 0 Z " fill="#99B83E" transform="translate(33,116)"/>
<path d="M0 0 C-0.33 0.99 -0.66 1.98 -1 3 C-1.99 3 -2.98 3 -4 3 C-3.814 3.639 -3.629 4.279 -3.438 4.938 C-3.293 5.618 -3.149 6.299 -3 7 C-4.845 8.845 -8.139 8.356 -10.625 8.562 C-15.961 9.254 -18.843 9.988 -22.375 14.125 C-23.289 15.39 -24.179 16.673 -25 18 C-26.008 15.348 -26.064 14.19 -25.145 11.457 C-24.925 11.021 -24.925 11.021 -23.812 8.812 C-23.386 7.932 -22.959 7.052 -22.52 6.145 C-21 4 -21 4 -18.941 3.262 C-18.301 3.175 -17.66 3.089 -17 3 C-16.381 2.67 -15.763 2.34 -15.125 2 C-10.312 -0.265 -5.226 -0.105 0 0 Z " fill="#589B1D" transform="translate(87,93)"/>
<path d="M0 0 C0 8.55 -5.681 14.249 -11.359 19.963 C-12.49 21.082 -13.624 22.195 -14.763 23.305 C-16.51 25.01 -18.234 26.735 -19.957 28.465 C-21.064 29.561 -22.172 30.656 -23.281 31.75 C-23.538 32.007 -23.538 32.007 -24.838 33.306 C-27.412 35.796 -29.352 37.618 -33 38 C-32.836 37.787 -32.836 37.787 -32.004 36.707 C-27.119 30.287 -22.562 23.651 -18 17 C-17.01 17.66 -16.02 18.32 -15 19 C-9.853 14.415 -6.225 10.431 -3.887 3.883 C-3 2 -3 2 0 0 Z " fill="#59901A" transform="translate(83,106)"/>
<path d="M0 0 C0.99 0 1.98 0 3 0 C1.872 2.768 0.737 4.256 -1.438 6.375 C-4 9 -4 9 -5.188 11.938 C-7.928 16.567 -12.227 18.691 -17 21 C-17.66 21 -18.32 21 -19 21 C-18.807 20.432 -18.613 19.863 -18.414 19.277 C-16.819 14.546 -15.331 9.812 -14 5 C-12 6 -12 6 -11 7 C-10.278 6.567 -9.556 6.134 -8.812 5.688 C-6.962 4.577 -5.108 3.473 -3.25 2.375 C-1 1 -1 1 0 0 Z " fill="#438713" transform="translate(120,78)"/>
<path d="M0 0 C0.66 0 1.32 0 2 0 C2.478 3.189 2.412 5.314 0.734 8.109 C-1.372 10.91 -3.521 13.521 -6 16 C-6.66 15.34 -7.32 14.68 -8 14 C-8.66 14 -9.32 14 -10 14 C-10.245 14.715 -10.49 15.431 -10.742 16.168 C-12.154 19.346 -13.913 21.636 -16.125 24.312 C-16.849 25.196 -17.574 26.079 -18.32 26.988 C-18.597 27.32 -18.597 27.32 -20 29 C-20.788 26.705 -21.136 25.42 -20.379 23.077 C-20.039 22.428 -19.698 21.778 -19.348 21.109 C-18.983 20.4 -18.619 19.691 -18.244 18.961 C-18.049 18.596 -18.049 18.596 -17.062 16.75 C-16.676 16.005 -16.29 15.26 -15.893 14.492 C-14.939 12.656 -13.971 10.827 -13 9 C-12.67 9.66 -12.34 10.32 -12 11 C-10.68 11 -9.36 11 -8 11 C-5.141 7.967 -3.093 4.588 -1 1 C-0.67 0.67 -0.34 0.34 0 0 Z " fill="#38760F" transform="translate(73,104)"/>
<path d="M0 0 C-1.945 1.945 -3.237 2.681 -5.688 3.812 C-14.507 8.206 -17.941 11.959 -22 21 C-22.91 22.767 -23.82 24.533 -24.739 26.295 C-29.199 34.897 -29.199 34.897 -30.125 39.562 C-31.167 43.655 -32.812 45.315 -36 48 C-34.915 41.384 -32.846 36.554 -29.512 30.758 C-28.103 28.188 -26.987 25.67 -25.938 22.938 C-24.572 19.397 -23.12 15.932 -21.5 12.5 C-21.118 11.685 -20.737 10.871 -20.344 10.031 C-18.755 7.63 -17.62 7.113 -15 6 C-12.5 4.431 -10.014 2.844 -7.535 1.242 C-4.771 -0.112 -3.036 -0.25 0 0 Z " fill="#BBD560" transform="translate(91,72)"/>
<path d="M0 0 C-1.536 5.462 -5.204 8.975 -9 13 C-9.469 13.506 -9.937 14.013 -10.42 14.535 C-11.973 16.205 -13.546 17.854 -15.125 19.5 C-15.628 20.041 -16.13 20.582 -16.648 21.139 C-19.038 23.581 -20.411 24.929 -23.867 25.344 C-24.571 25.23 -25.275 25.117 -26 25 C-24.441 21.01 -21.646 18.628 -18.5 15.875 C-13.441 11.364 -8.659 6.689 -3.961 1.801 C-2 0 -2 0 0 0 Z " fill="#D1E477" transform="translate(74,124)"/>
<path d="M0 0 C0.33 0 0.66 0 1 0 C0.466 7.932 -1.644 15.013 -4.062 22.562 C-4.44 23.762 -4.817 24.961 -5.205 26.197 C-6.129 29.134 -7.061 32.068 -8 35 C-9.32 35 -10.64 35 -12 35 C-11.505 30.943 -10.44 27.701 -8.8 23.978 C-7.12 19.826 -6.064 15.458 -4.895 11.141 C-3.738 7.029 -2.511 3.529 0 0 Z " fill="#EEF2B6" transform="translate(40,105)"/>
<path d="M0 0 C0.33 0.66 0.66 1.32 1 2 C0.004 4.602 0.004 4.602 -1.438 7.625 C-1.911 8.628 -2.384 9.631 -2.871 10.664 C-3.244 11.435 -3.616 12.206 -4 13 C-3.024 12.411 -2.048 11.822 -1.043 11.215 C0.242 10.455 1.527 9.696 2.812 8.938 C3.455 8.548 4.098 8.158 4.76 7.756 C6.463 6.759 8.229 5.872 10 5 C10.99 5.33 11.98 5.66 13 6 C8.38 8.97 3.76 11.94 -1 15 C2.96 15.33 6.92 15.66 11 16 C11 16.33 11 16.66 11 17 C9.808 17.121 8.615 17.242 7.387 17.367 C5.82 17.536 4.254 17.705 2.688 17.875 C1.902 17.954 1.116 18.032 0.307 18.113 C-0.072 18.155 -0.072 18.155 -1.988 18.367 C-2.685 18.441 -3.381 18.514 -4.099 18.589 C-6 19 -6 19 -9 21 C-9.99 20.34 -10.98 19.68 -12 19 C-11.01 18.67 -10.02 18.34 -9 18 C-8.004 15.828 -8.004 15.828 -7 13 C-5.999 10.907 -4.977 8.824 -3.938 6.75 C-3.41 5.693 -2.883 4.636 -2.34 3.547 C-1 1 -1 1 0 0 Z " fill="#85B331" transform="translate(105,86)"/>
<path d="M0 0 C0.66 0.66 1.32 1.32 2 2 C1.147 8.721 -1.242 13.635 -4.602 19.469 C-6.126 22.228 -7.178 24.957 -8 28 C-10 27 -10 27 -10.859 24.441 C-11.05 19.777 -9.444 16.962 -7.25 12.938 C-6.889 12.243 -6.528 11.549 -6.156 10.834 C-4.224 7.147 -2.184 3.545 0 0 Z " fill="#DEEA92" transform="translate(64,89)"/>
<path d="M0 0 C0.66 0 1.32 0 2 0 C2 1.32 2 2.64 2 4 C2.66 4 3.32 4 4 4 C3.422 8.062 2.109 10.848 -0.062 14.312 C-0.61 15.196 -1.158 16.079 -1.723 16.988 C-2.144 17.652 -2.566 18.316 -3 19 C-3.99 18.01 -4.98 17.02 -6 16 C-6.33 16.66 -6.66 17.32 -7 18 C-7.66 18 -8.32 18 -9 18 C-8.67 14.7 -8.34 11.4 -8 8 C-6.68 8.66 -5.36 9.32 -4 10 C-2.277 6.705 -0.706 3.669 0 0 Z " fill="#4A8718" transform="translate(50,103)"/>
<path d="M0 0 C0 0.33 0 0.66 0 1 C-2.97 1 -5.94 1 -9 1 C-9.66 2.32 -10.32 3.64 -11 5 C-13.152 8.996 -15.705 11.883 -19 15 C-19 14.34 -19 13.68 -19 13 C-19.66 13 -20.32 13 -21 13 C-20.873 7.809 -19.036 4.829 -15.387 1.348 C-10.656 -1.323 -5.249 -0.497 0 0 Z " fill="#246409" transform="translate(82,102)"/>
<path d="M0 0 C0.33 0.66 0.66 1.32 1 2 C0.562 2.354 0.123 2.709 -0.328 3.074 C-5.635 7.529 -10.25 12.422 -14.786 17.643 C-17.426 20.607 -19.088 22.291 -23 23 C-22.361 22.381 -21.721 21.763 -21.062 21.125 C-20.039 20.086 -19.018 19.044 -18 18 C-17.218 17.214 -16.435 16.427 -15.629 15.617 C-15.216 15.185 -15.216 15.185 -13.125 13 C-12.323 12.175 -11.521 11.35 -10.695 10.5 C-9 8 -9 8 -9.305 5.301 C-9.534 4.542 -9.764 3.782 -10 3 C-7.764 -1.053 -4.168 -0.236 0 0 Z " fill="#6DA627" transform="translate(129,42)"/>
<path d="M0 0 C1.099 3.296 0.958 3.857 -0.145 6.977 C-0.277 7.353 -0.277 7.353 -0.947 9.258 C-1.09 9.648 -1.09 9.648 -1.812 11.625 C-2.086 12.414 -2.36 13.203 -2.643 14.016 C-4.74 19.87 -4.74 19.87 -7 21 C-7.962 14.626 -8.107 8.441 -8 2 C-7.01 1.67 -6.02 1.34 -5 1 C-4.34 2.32 -3.68 3.64 -3 5 C-2.34 5 -1.68 5 -1 5 C-0.67 3.35 -0.34 1.7 0 0 Z " fill="#589420" transform="translate(85,37)"/>
<path d="M0 0 C0.33 0 0.66 0 1 0 C1.456 9.833 0.803 18.71 -5 27 C-6.938 26.688 -6.938 26.688 -9 26 C-9.33 25.01 -9.66 24.02 -10 23 C-8.68 23 -7.36 23 -6 23 C-5.752 21.804 -5.505 20.608 -5.25 19.375 C-3.806 12.834 -1.883 6.425 0 0 Z " fill="#C2DA67" transform="translate(38,117)"/>
<path d="M0 0 C0 3 0 3 -2.562 5.625 C-5.848 8.236 -8.805 8.748 -13 9 C-13 9.99 -13 10.98 -13 12 C-15.5 13.688 -15.5 13.688 -18 15 C-17.01 15.66 -16.02 16.32 -15 17 C-16.65 17.33 -18.3 17.66 -20 18 C-22 15 -22 15 -21.875 13 C-20.718 10.355 -19.423 9.565 -17 8 C-15.042 7.292 -13.06 6.649 -11.062 6.062 C-6.64 4.664 -3.346 3.346 0 0 Z " fill="#1D5808" transform="translate(104,74)"/>
<path d="M0 0 C0.66 0.66 1.32 1.32 2 2 C2.66 1.67 3.32 1.34 4 1 C3.835 1.578 3.67 2.155 3.5 2.75 C3 5 3 5 3 9 C4.32 8.01 5.64 7.02 7 6 C7.66 7.65 8.32 9.3 9 11 C8.529 11.387 8.059 11.773 7.574 12.172 C6.952 12.693 6.329 13.213 5.688 13.75 C5.073 14.26 4.458 14.771 3.824 15.297 C2 17 2 17 -1 21 C-0.67 14.07 -0.34 7.14 0 0 Z " fill="#68A82B" transform="translate(48,62)"/>
<path d="M0 0 C0.33 0 0.66 0 1 0 C1.963 6.45 2.155 12.734 2.125 19.25 C2.123 20.263 2.121 21.277 2.119 22.321 C2.079 29.259 1.83 36.105 1 43 C-1.043 40.758 -1.979 39.566 -2.094 36.485 C-1.971 35.547 -1.849 34.608 -1.723 33.641 C-0.945 26.677 -0.669 19.75 -0.438 12.75 C-0.394 11.516 -0.351 10.283 -0.307 9.012 C-0.202 6.008 -0.1 3.004 0 0 Z " fill="#A1C753" transform="translate(47,31)"/>
<path d="M0 0 C0.99 0.66 1.98 1.32 3 2 C2.01 2.99 1.02 3.98 0 5 C2.64 5.33 5.28 5.66 8 6 C8 6.33 8 6.66 8 7 C7.336 7.026 6.672 7.052 5.988 7.078 C0.166 7.452 -2.49 8.184 -7 12 C-9.961 12.912 -12.946 13.494 -16 14 C-16 13.34 -16 12.68 -16 12 C-15.34 12 -14.68 12 -14 12 C-14 11.01 -14 10.02 -14 9 C-12.783 8.588 -11.566 8.175 -10.312 7.75 C-6.034 6.149 -2.121 4.243 0 0 Z " fill="#408212" transform="translate(105,74)"/>
<path d="M0 0 C-0.973 1.027 -1.983 2.017 -3 3 C-3.846 3.887 -4.691 4.774 -5.562 5.688 C-9.124 8.699 -12.534 8.408 -17.023 8.176 C-17.676 8.118 -18.328 8.06 -19 8 C-19.33 7.34 -19.66 6.68 -20 6 C-4.571 -2.286 -4.571 -2.286 0 0 Z " fill="#6BA725" transform="translate(101,71)"/>
<path d="M0 0 C0.99 0.33 1.98 0.66 3 1 C3.33 2.65 3.66 4.3 4 6 C5.65 6.33 7.3 6.66 9 7 C9 8.65 9 10.3 9 12 C7.35 12.66 5.7 13.32 4 14 C3.67 13.01 3.34 12.02 3 11 C3.99 11 4.98 11 6 11 C6 10.34 6 9.68 6 9 C2.04 8.67 -1.92 8.34 -6 8 C-4.218 4.437 -2.832 2.644 0 0 Z " fill="#347814" transform="translate(80,85)"/>
<path d="M0 0 C1.32 0.33 2.64 0.66 4 1 C1.855 6.668 0.077 8.998 -5.324 11.883 C-7.675 13.45 -8.649 15.568 -10 18 C-10.99 18 -11.98 18 -13 18 C-12.466 14.156 -11.717 11.808 -9 9 C-7.826 8.33 -6.637 7.686 -5.438 7.062 C-2.661 5.592 -2.09 5.173 -0.562 2.25 C-0.377 1.508 -0.191 0.765 0 0 Z " fill="#52941B" transform="translate(108,46)"/>
<path d="M0 0 C2.562 2.188 2.562 2.188 5 5 C4.812 7.812 4.812 7.812 4 10 C0.522 11.159 -1.459 10.708 -5 10 C-5.33 9.01 -5.66 8.02 -6 7 C-5.01 6.67 -4.02 6.34 -3 6 C-3.33 4.68 -3.66 3.36 -4 2 C-2.68 1.34 -1.36 0.68 0 0 Z " fill="#559625" transform="translate(100,115)"/>
<path d="M0 0 C0.33 0 0.66 0 1 0 C0.033 11.957 -2.354 22.921 -7 34 C-7.99 34 -8.98 34 -10 34 C-8.364 28.511 -6.701 23.032 -5 17.562 C-3.203 11.742 -1.558 5.889 0 0 Z " fill="#A8CD53" transform="translate(92,16)"/>
<path d="M0 0 C1.149 0.954 2.294 1.914 3.438 2.875 C3.757 3.142 3.757 3.142 5.371 4.492 C7 6 7 6 8 8 C8.04 10.333 8.043 12.667 8 15 C6.68 15.33 5.36 15.66 4 16 C4 15.34 4 14.68 4 14 C2.35 14 0.7 14 -1 14 C1 22.571 1 22.571 3 26 C-0.319 23.191 -1.851 21.586 -2.938 17.312 C-2.958 16.219 -2.979 15.126 -3 14 C-1 12 -1 12 2 11.812 C5 12 5 12 7 13 C5.546 9.802 4.311 7.311 1.812 4.812 C1.214 4.214 0.616 3.616 0 3 C0 2.01 0 1.02 0 0 Z " fill="#478123" transform="translate(29,70)"/>
<path d="M0 0 C0.66 0.99 1.32 1.98 2 3 C1.391 5.996 1.391 5.996 0.25 9.438 C-0.116 10.571 -0.482 11.704 -0.859 12.871 C-2 16 -2 16 -3.164 18.145 C-4.199 20.442 -4.036 21.786 -3.625 24.25 C-3.522 24.869 -3.522 24.869 -3 28 C-3.99 28 -4.98 28 -6 28 C-6.66 27.34 -7.32 26.68 -8 26 C-7.65 20.305 -5.355 14.949 -3.438 9.625 C-3.108 8.698 -2.779 7.771 -2.439 6.816 C-1.631 4.543 -0.817 2.271 0 0 Z " fill="#9DBF47" transform="translate(33,116)"/>
<path d="M0 0 C0.66 0.33 1.32 0.66 2 1 C2.081 3.083 2.139 5.166 2.188 7.25 C2.222 8.41 2.257 9.57 2.293 10.766 C1.98 14.223 1.343 15.516 -1 18 C-3.281 14.579 -3.219 13.318 -3.125 9.312 C-3.107 8.319 -3.089 7.325 -3.07 6.301 C-3.047 5.542 -3.024 4.782 -3 4 C-2.01 3.67 -1.02 3.34 0 3 C0 2.01 0 1.02 0 0 Z " fill="#337511" transform="translate(35,100)"/>
<path d="M0 0 C2.603 2.712 2.995 3.891 3.188 7.75 C3.126 8.822 3.064 9.895 3 11 C-0.053 11.981 -1.947 11.981 -5 11 C-6.148 13.296 -6.308 15.077 -6.562 17.625 C-6.646 18.442 -6.73 19.26 -6.816 20.102 C-6.877 20.728 -6.938 21.355 -7 22 C-7.66 21.67 -8.32 21.34 -9 21 C-9.293 16.027 -9.165 12.956 -6 9 C-5.319 8.711 -4.639 8.422 -3.938 8.125 C-2 7 -2 7 -0.75 3.375 C-0.626 2.818 -0.626 2.818 0 0 Z " fill="#266A0E" transform="translate(62,45)"/>
<path d="M0 0 C0 7.094 -3.769 12.042 -8.573 16.918 C-11.017 19.315 -13.493 21.67 -16 24 C-16.66 23.67 -17.32 23.34 -18 23 C-17.397 22.348 -16.793 21.695 -16.172 21.023 C-6.209 10.128 -6.209 10.128 -3.938 4.25 C-3 2 -3 2 0 0 Z " fill="#458612" transform="translate(83,106)"/>
<path d="M0 0 C0.66 0 1.32 0 2 0 C2.478 3.189 2.412 5.314 0.734 8.109 C-1.372 10.91 -3.521 13.521 -6 16 C-6.66 15.34 -7.32 14.68 -8 14 C-8 10.036 -6.501 9.001 -4 6 C-2.983 4.343 -1.979 2.679 -1 1 C-0.67 0.67 -0.34 0.34 0 0 Z " fill="#70A726" transform="translate(73,104)"/>
<path d="M0 0 C2.854 0.608 4.196 2.126 5.906 4.406 C5.576 5.066 5.246 5.726 4.906 6.406 C4.576 5.911 4.246 5.416 3.906 4.906 C0.731 2.524 -2.196 3.215 -6.094 3.406 C-6.733 4.52 -7.373 5.634 -8.031 6.781 C-8.211 7.094 -8.211 7.094 -9.121 8.68 C-9.811 9.904 -10.465 11.149 -11.094 12.406 C-11.63 12.117 -12.166 11.829 -12.719 11.531 C-15.447 10.239 -18.22 9.321 -21.094 8.406 C-21.094 7.746 -21.094 7.086 -21.094 6.406 C-15.678 6.037 -15.678 6.037 -12.719 7.906 C-12.183 8.401 -11.646 8.896 -11.094 9.406 C-11.011 8.664 -10.929 7.921 -10.844 7.156 C-9.209 1.162 -5.822 -0.261 0 0 Z " fill="#508724" transform="translate(96.09375,4.59375)"/>
<path d="M0 0 C-1.561 3.832 -4.029 6.174 -7 9 C-7.495 9.598 -7.99 10.196 -8.5 10.812 C-10.645 12.51 -12.35 12.215 -15 12 C-15.66 10.68 -16.32 9.36 -17 8 C-16.34 7.34 -15.68 6.68 -15 6 C-15 6.66 -15 7.32 -15 8 C-10.058 6.823 -7.628 4.966 -4.395 1.242 C-3 0 -3 0 0 0 Z " fill="#C6D666" transform="translate(63,141)"/>
<path d="M0 0 C0.66 0 1.32 0 2 0 C2.766 2.188 2.766 2.188 3 5 C1.234 7.5 1.234 7.5 -1.25 10 C-3.749 12.547 -5.833 14.709 -7.609 17.812 C-8.068 18.534 -8.527 19.256 -9 20 C-9.99 20 -10.98 20 -12 20 C-12 17 -12 17 -10.355 15.133 C-9.64 14.47 -8.925 13.808 -8.188 13.125 C-4.094 9.176 -1.06 5.725 0 0 Z " fill="#B4D255" transform="translate(74,122)"/>
<path d="M0 0 C0.99 0.33 1.98 0.66 3 1 C2.67 1.495 2.67 1.495 1 4 C0.34 4 -0.32 4 -1 4 C-1 4.99 -1 5.98 -1 7 C-2.68 8.754 -2.68 8.754 -4.875 10.562 C-5.594 11.162 -6.314 11.761 -7.055 12.379 C-7.697 12.914 -8.339 13.449 -9 14 C-9.66 14.66 -10.32 15.32 -11 16 C-10.553 12.538 -9.496 9.466 -8.188 6.25 C-8.03 5.861 -8.03 5.861 -7.23 3.891 C-6 2 -6 2 -3.988 1.297 C-3.332 1.199 -2.676 1.101 -2 1 C-1.34 0.67 -0.68 0.34 0 0 Z " fill="#76AE2D" transform="translate(72,95)"/>
<path d="M0 0 C0.99 0.33 1.98 0.66 3 1 C2.34 1.639 1.68 2.279 1 2.938 C-1.511 5.455 -3.922 8.055 -6.312 10.688 C-7.01 11.454 -7.707 12.221 -8.426 13.012 C-10 15 -10 15 -10 17 C-12.751 17.917 -14.359 18.109 -17.188 18.062 C-17.817 18.052 -17.817 18.052 -21 18 C-21 17.67 -21 17.34 -21 17 C-19.989 16.814 -18.979 16.629 -17.938 16.438 C-13.016 15.021 -10.301 11.751 -7 8 C-6.341 7.261 -5.683 6.523 -5.004 5.762 C-3.32 3.854 -1.653 1.934 0 0 Z " fill="#E0DDAA" transform="translate(70,138)"/>
<path d="M0 0 C0.236 3.377 0.116 5.702 -1.125 8.875 C-3 11 -3 11 -6.188 11.312 C-7.116 11.209 -8.044 11.106 -9 11 C-8.136 6.97 -7.157 4.013 -4 1.25 C-2 0 -2 0 0 0 Z " fill="#F0F4BB" transform="translate(45,132)"/>
<path d="M0 0 C0.33 0 0.66 0 1 0 C0.43 6.957 -1.013 13.314 -3 20 C-3.66 19.34 -4.32 18.68 -5 18 C-5.66 18.33 -6.32 18.66 -7 19 C-2.124 2.124 -2.124 2.124 0 0 Z " fill="#E3EC95" transform="translate(40,105)"/>
<path d="M0 0 C0.33 0.66 0.66 1.32 1 2 C0.67 2.495 0.67 2.495 -1 5 C-4.625 5.688 -4.625 5.688 -8 6 C-9.062 4.188 -9.062 4.188 -10 2 C-9.67 1.01 -9.34 0.02 -9 -1 C-5.21 -2.263 -3.625 -1.497 0 0 Z " fill="#B1C751" transform="translate(44,145)"/>
<path d="M0 0 C0.33 0.99 0.66 1.98 1 3 C-0.938 6.188 -0.938 6.188 -3 9 C-2.216 8.959 -1.433 8.918 -0.625 8.875 C2 9 2 9 4 11 C4.125 13.625 4.125 13.625 4 16 C4.99 16 5.98 16 7 16 C6.67 16.99 6.34 17.98 6 19 C5.01 19.33 4.02 19.66 3 20 C2.174 17.108 2 15.113 2 12 C-0.31 11.67 -2.62 11.34 -5 11 C-5.312 8.312 -5.312 8.312 -5 5 C-2.5 2.125 -2.5 2.125 0 0 Z " fill="#3F761A" transform="translate(110,29)"/>
<path d="M0 0 C0.99 0.33 1.98 0.66 3 1 C3.875 3.688 3.875 3.688 4 7 C1.334 10.228 -0.231 11.773 -4.406 12.309 C-6.627 12.312 -8.791 12.221 -11 12 C-11.33 12.66 -11.66 13.32 -12 14 C-12 12.68 -12 11.36 -12 10 C-12.66 9.67 -13.32 9.34 -14 9 C-13.578 9.006 -13.578 9.006 -11.445 9.035 C-10.35 9.044 -9.254 9.053 -8.125 9.062 C-7.58 9.068 -7.58 9.068 -4.82 9.098 C-2 9 -2 9 0 8 C0 5.36 0 2.72 0 0 Z " fill="#4B8427" transform="translate(129,100)"/>
<path d="M0 0 C0.33 0 0.66 0 1 0 C0.191 20.532 0.191 20.532 -2 30 C-2.66 29.67 -3.32 29.34 -4 29 C-4.237 23.183 -3.684 18.614 -2 13 C-1.248 8.679 -0.614 4.343 0 0 Z " fill="#95BC3D" transform="translate(46,79)"/>
<path d="M0 0 C1.32 0.66 2.64 1.32 4 2 C4.33 1.34 4.66 0.68 5 0 C5.66 0 6.32 0 7 0 C5.592 3.215 3.897 5.322 1.375 7.75 C1.059 8.057 1.059 8.057 -0.539 9.609 C-1.021 10.068 -1.503 10.527 -2 11 C-2.66 10.67 -3.32 10.34 -4 10 C-3.435 6.042 -2.191 3.334 0 0 Z " fill="#30760A" transform="translate(70,115)"/>
<path d="M0 0 C0.33 0 0.66 0 1 0 C1.054 2.229 1.093 4.458 1.125 6.688 C1.148 7.929 1.171 9.17 1.195 10.449 C1.01 13.812 0.458 15.999 -1 19 C-3.233 16.767 -3.368 16.081 -3.75 13.062 C-3.848 12.373 -3.946 11.683 -4.047 10.973 C-4 9 -4 9 -2 6 C-1.34 6 -0.68 6 0 6 C0 4.02 0 2.04 0 0 Z " fill="#77B331" transform="translate(65,72)"/>
<path d="M0 0 C1.32 0 2.64 0 4 0 C4.119 0.319 4.119 0.319 4.723 1.934 C6 4 6 4 8.059 4.723 C8.451 4.779 8.451 4.779 10.438 5.062 C14 5.585 15.656 6.218 18 9 C13.258 10.581 8.966 8.885 4.5 6.875 C4.005 6.586 3.51 6.298 3 6 C3 5.34 3 4.68 3 4 C2.01 3.67 1.02 3.34 0 3 C0 2.01 0 1.02 0 0 Z " fill="#EAE4BC" transform="translate(30,146)"/>
<path d="M0 0 C0.66 0.99 1.32 1.98 2 3 C1.391 5.594 1.391 5.594 0.25 8.5 C0.067 8.98 0.067 8.98 -0.859 11.406 C-2 14 -2 14 -4 17 C-5.32 16.34 -6.64 15.68 -8 15 C-7.34 14.67 -6.68 14.34 -6 14 C-5.281 12.355 -4.63 10.681 -4 9 C-3.3 7.392 -2.591 5.788 -1.875 4.188 C-1.522 3.397 -1.169 2.607 -0.805 1.793 C-0.539 1.201 -0.274 0.61 0 0 Z " fill="#D3E182" transform="translate(48,129)"/>
<path d="M0 0 C-1.564 3.838 -3.835 6.35 -7 9 C-9.812 9.312 -9.812 9.312 -12 9 C-9.942 3.443 -5.884 0 0 0 Z " fill="#E7EC99" transform="translate(60,140)"/>
<path d="M0 0 C0.66 0 1.32 0 2 0 C2.33 0.99 2.66 1.98 3 3 C4.32 2.67 5.64 2.34 7 2 C7.33 2.99 7.66 3.98 8 5 C6.88 6.006 5.754 7.005 4.625 8 C4.312 8.278 4.312 8.278 2.727 9.688 C1 11 1 11 -1 11 C-1.125 3.375 -1.125 3.375 0 0 Z " fill="#519014" transform="translate(85,101)"/>
<path d="M0 0 C0.66 0 1.32 0 2 0 C1.63 6.164 0.298 8.8 -4 13 C-6.812 14.375 -6.812 14.375 -9 15 C-7.383 11.605 -5.491 8.438 -3.5 5.25 C-2.892 4.265 -2.283 3.28 -1.656 2.266 C-1.11 1.518 -0.563 0.77 0 0 Z " fill="#73A928" transform="translate(98,36)"/>
<path d="M0 0 C0.745 0.057 1.49 0.113 2.258 0.172 C4.089 0.313 5.92 0.468 7.75 0.625 C7.75 1.285 7.75 1.945 7.75 2.625 C6.737 2.602 5.724 2.579 4.68 2.555 C3.328 2.536 1.977 2.518 0.625 2.5 C0.292 2.492 0.292 2.492 -1.391 2.449 C-5.745 2.407 -9.206 3.025 -13.25 4.625 C-12.25 1.625 -12.25 1.625 -10.703 0.414 C-7.112 -0.741 -3.697 -0.327 0 0 Z " fill="#457A23" transform="translate(93.25,124.375)"/>
<path d="M0 0 C0.99 0.33 1.98 0.66 3 1 C0.712 2.506 -1.58 4.005 -3.875 5.5 C-4.526 5.929 -5.177 6.359 -5.848 6.801 C-10.773 10 -10.773 10 -13 10 C-13 10.66 -13 11.32 -13 12 C-13.66 12 -14.32 12 -15 12 C-13.497 7.947 -11.128 6.513 -7.5 4.312 C-7.01 4.012 -7.01 4.012 -4.531 2.488 C-3.046 1.615 -1.541 0.771 0 0 Z " fill="#A1CA3E" transform="translate(115,91)"/>
<path d="M0 0 C5.508 4.368 6.831 10.867 7.688 17.562 C7.791 18.697 7.894 19.831 8 21 C7.34 21 6.68 21 6 21 C5.67 21.99 5.34 22.98 5 24 C4.987 23.583 4.987 23.583 4.922 21.473 C4.589 14.872 3.911 9.598 0.84 3.707 C0 2 0 2 0 0 Z " fill="#BBDB64" transform="translate(61,61)"/>
<path d="M0 0 C0.59 1.859 0.59 1.859 1 4 C-0.438 6.25 -0.438 6.25 -2 8 C-0.845 7.835 -0.845 7.835 5 7 C3 10 3 10 0.75 10.688 C-2.191 11.022 -5.042 11.069 -8 11 C-6.636 8.008 -5.051 5.71 -2.875 3.25 C-2.336 2.636 -1.797 2.023 -1.242 1.391 C-1.037 1.161 -1.037 1.161 0 0 Z " fill="#7EB736" transform="translate(93,62)"/>
<path d="M0 0 C0.33 0.66 0.66 1.32 1 2 C-1.814 5.812 -4.693 8.465 -8.562 11.188 C-9.513 11.862 -10.463 12.536 -11.441 13.23 C-13.283 14.504 -15.137 15.758 -17 17 C-16.938 14.75 -16.938 14.75 -16 12 C-13.653 10.465 -11.497 9.214 -9 8 C-5 5.86 -2.681 3.674 0 0 Z " fill="#B6D55E" transform="translate(98,43)"/>
<path d="M0 0 C0 3 0 3 -2.562 5.625 C-5.848 8.236 -8.805 8.748 -13 9 C-13 9.99 -13 10.98 -13 12 C-13.66 11.67 -14.32 11.34 -15 11 C-14.67 10.34 -14.34 9.68 -14 9 C-14.99 8.67 -15.98 8.34 -17 8 C-16.192 7.758 -15.384 7.515 -14.551 7.266 C-3.937 3.937 -3.937 3.937 0 0 Z " fill="#2C690F" transform="translate(104,74)"/>
<path d="M0 0 C0.33 0 0.66 0 1 0 C2.249 7.651 2.091 15.274 2 23 C0.316 19.745 -0.888 16.495 -2 13 C-1.67 12.67 -1.34 12.34 -1 12 C-0.766 9.984 -0.587 7.962 -0.438 5.938 C-0.354 4.833 -0.27 3.728 -0.184 2.59 C-0.123 1.735 -0.062 0.881 0 0 Z " fill="#82B933" transform="translate(66,51)"/>
<path d="M0 0 C2.051 0.033 4.102 0.065 6.152 0.098 C3.793 2.457 2.373 2.589 -0.848 3.098 C-1.196 7.974 -0.265 10.868 2.152 15.098 C1.822 15.263 1.822 15.263 0.152 16.098 C-2.37 11.929 -3.897 9.135 -3.66 4.16 C-2.593 0.137 -2.593 0.137 0 0 Z " fill="#579137" transform="translate(27.84765625,54.90234375)"/>
<path d="M0 0 C2.248 2.052 3.002 3.007 4 6 C2.35 7.32 0.7 8.64 -1 10 C-3 7 -3 7 -2.75 4.438 C-2 2 -2 2 0 0 Z " fill="#378113" transform="translate(48,94)"/>
<path d="M0 0 C1 2 2 4 3 6 C1.855 8.348 1.855 8.348 0.188 11.062 C-0.355 11.961 -0.898 12.859 -1.457 13.785 C-3 16 -3 16 -5 17 C-5 15.68 -5 14.36 -5 13 C-4.34 12.67 -3.68 12.34 -3 12 C-2.148 9.277 -2.148 9.277 -1.375 5.938 C-1.115 4.833 -0.854 3.728 -0.586 2.59 C-0.393 1.735 -0.199 0.881 0 0 Z " fill="#85AF2E" transform="translate(44,117)"/>
<path d="M0 0 C0.33 0.66 0.66 1.32 1 2 C1.66 2 2.32 2 3 2 C2.01 5.3 1.02 8.6 0 12 C-0.66 11.67 -1.32 11.34 -2 11 C-3.095 7.293 -3.315 5.63 -1.562 2.125 C-1.047 1.424 -0.531 0.722 0 0 Z " fill="#E0EC91" transform="translate(56,105)"/>
<path d="M0 0 C0.66 0 1.32 0 2 0 C0.833 5.929 -0.755 11.388 -3 17 C-4.125 15.375 -4.125 15.375 -5 13 C-3.895 8.478 -1.872 4.254 0 0 Z " fill="#DAEB91" transform="translate(75,65)"/>
<path d="M0 0 C0.33 0 0.66 0 1 0 C1.054 2.271 1.093 4.542 1.125 6.812 C1.148 8.077 1.171 9.342 1.195 10.645 C1 14 1 14 -1 17 C-1.133 16.264 -1.266 15.528 -1.402 14.77 C-1.579 13.794 -1.756 12.818 -1.938 11.812 C-2.025 11.331 -2.025 11.331 -2.465 8.895 C-2.952 6.258 -3.467 3.628 -4 1 C-3.01 1.99 -2.02 2.98 -1 4 C-0.67 2.68 -0.34 1.36 0 0 Z " fill="#47891C" transform="translate(45,52)"/>
<path d="M0 0 C0.33 0 0.66 0 1 0 C0.885 2.397 0.759 4.792 0.625 7.188 C0.594 7.861 0.563 8.535 0.531 9.229 C0.299 13.197 -0.284 16.407 -2 20 C-2.33 20 -2.66 20 -3 20 C-3.409 12.919 -1.904 6.801 0 0 Z " fill="#DAE785" transform="translate(43,84)"/>
<path d="M0 0 C0.66 0.33 1.32 0.66 2 1 C0.02 2.98 -1.96 4.96 -4 7 C-2.68 7.66 -1.36 8.32 0 9 C-1.485 9.165 -1.485 9.165 -9 10 C-7.193 6.387 -6.336 5.163 -3.375 2.75 C-2.743 2.229 -2.112 1.708 -1.461 1.172 C-1.22 0.979 -1.22 0.979 0 0 Z " fill="#478910" transform="translate(94,109)"/>
<path d="M0 0 C0.33 0 0.66 0 1 0 C0.451 6.786 -0.543 13.35 -2 20 C-4 17 -4 17 -3.86 15.099 C-3.682 14.402 -3.504 13.706 -3.32 12.988 C-3.133 12.231 -2.946 11.474 -2.754 10.693 C-2.546 9.908 -2.339 9.122 -2.125 8.312 C-1.925 7.515 -1.725 6.718 -1.52 5.896 C-1.024 3.928 -0.514 1.964 0 0 Z " fill="#8BBD3C" transform="translate(92,16)"/>
<path d="M0 0 C0.722 0.124 1.444 0.248 2.188 0.375 C2.188 1.035 2.188 1.695 2.188 2.375 C1.723 2.427 1.723 2.427 -0.625 2.688 C-3.812 4.375 -3.812 4.375 -4.879 6.957 C-5.622 9.752 -6.271 12.535 -6.812 15.375 C-7.142 15.375 -7.472 15.375 -7.812 15.375 C-8.284 10.66 -8.622 6.718 -5.625 2.812 C-2.812 0.375 -2.812 0.375 0 0 Z " fill="#5F953F" transform="translate(45.8125,15.625)"/>
<path d="M0 0 C0.825 0.33 0.825 0.33 5 2 C4.01 2.66 3.02 3.32 2 4 C0.59 5.192 -0.805 6.401 -2.188 7.625 C-2.903 8.257 -3.618 8.888 -4.355 9.539 C-4.898 10.021 -5.441 10.503 -6 11 C-6 7.394 -5.183 6.587 -3 3.812 C-2.443 3.097 -1.886 2.382 -1.312 1.645 C-0.879 1.102 -0.446 0.559 0 0 Z " fill="#59921D" transform="translate(70,134)"/>
<path d="M0 0 C0.66 0.99 1.32 1.98 2 3 C1.32 6.137 1.32 6.137 0.125 9.688 C-0.264 10.867 -0.654 12.046 -1.055 13.262 C-1.367 14.165 -1.679 15.069 -2 16 C-3.117 14.391 -3.117 14.391 -4 12 C-3.32 8.984 -3.32 8.984 -2.125 5.75 C-1.736 4.672 -1.346 3.595 -0.945 2.484 C-0.633 1.665 -0.321 0.845 0 0 Z " fill="#A0C554" transform="translate(33,116)"/>
<path d="M0 0 C0.66 0.33 1.32 0.66 2 1 C1.502 4.688 0.899 6.605 -2 9 C-2.99 8.01 -3.98 7.02 -5 6 C-2.25 1.125 -2.25 1.125 0 0 Z " fill="#84B42E" transform="translate(65,117)"/>
<path d="M0 0 C3.912 5.1 3.912 5.1 4 8 C2.062 10.75 2.062 10.75 0 13 C-1.067 9.8 -0.948 8.115 -0.562 4.812 C-0.461 3.911 -0.359 3.01 -0.254 2.082 C-0.17 1.395 -0.086 0.708 0 0 Z " fill="#6AA930" transform="translate(54,95)"/>
<path d="M0 0 C3.161 1.37 3.993 1.989 6 5 C5.625 8.688 5.625 8.688 5 12 C4.34 12 3.68 12 3 12 C2.938 11.381 2.938 11.381 2.625 8.25 C2.243 5.124 1.695 2.711 0 0 Z " fill="#5B8D3A" transform="translate(139,76)"/>
<path d="M0 0 C0.33 0.99 0.66 1.98 1 3 C2.32 2.01 3.64 1.02 5 0 C5.66 0.33 6.32 0.66 7 1 C6.835 1.928 6.67 2.856 6.5 3.812 C6 7 6 7 6 10 C5.01 9.67 4.02 9.34 3 9 C3 7.35 3 5.7 3 4 C2.01 4 1.02 4 0 4 C0 2.68 0 1.36 0 0 Z " fill="#5D952D" transform="translate(114,41)"/>
<path d="M0 0 C0.33 0 0.66 0 1 0 C2.066 5.864 2.407 11.389 0 17 C-0.99 17.33 -1.98 17.66 -3 18 C-2.195 11.963 -1.115 5.987 0 0 Z " fill="#9CBE76" transform="translate(61,24)"/>
<path d="M0 0 C-0.35 3.242 -0.562 4.615 -3.062 6.812 C-3.702 7.204 -4.341 7.596 -5 8 C-5.99 7.34 -6.98 6.68 -8 6 C-7.048 4.994 -6.088 3.995 -5.125 3 C-4.591 2.443 -4.058 1.886 -3.508 1.312 C-2 0 -2 0 0 0 Z " fill="#DCE686" transform="translate(65,133)"/>
<path d="M0 0 C0.66 0.33 1.32 0.66 2 1 C2 1.99 2 2.98 2 4 C0.346 5.349 -1.322 6.681 -3 8 C-4.312 10.25 -4.312 10.25 -5 12 C-5.66 12 -6.32 12 -7 12 C-5.451 7.61 -3.33 3.33 0 0 Z " fill="#A4C440" transform="translate(56,129)"/>
<path d="M0 0 C2.629 -0.242 2.629 -0.242 5.562 0.125 C6.533 0.231 7.504 0.336 8.504 0.445 C11 1 11 1 13 3 C10.36 3.165 10.36 3.165 -3 4 C-2.01 2.68 -1.02 1.36 0 0 Z " fill="#6A9F28" transform="translate(84,118)"/>
<path d="M0 0 C0.99 0.33 1.98 0.66 3 1 C2.25 6.75 2.25 6.75 0 9 C-2.152 5.772 -2.201 4.716 -2 1 C-1.34 0.67 -0.68 0.34 0 0 Z " fill="#5B9929" transform="translate(34,109)"/>
<path d="M0 0 C0.66 0.66 1.32 1.32 2 2 C2.66 1.67 3.32 1.34 4 1 C3.424 3.386 2.778 5.667 2 8 C2.33 8.99 2.66 9.98 3 11 C2.062 13.688 2.062 13.688 1 16 C0.67 16 0.34 16 0 16 C0 10.72 0 5.44 0 0 Z " fill="#539221" transform="translate(48,62)"/>
<path d="M0 0 C0.99 0.33 1.98 0.66 3 1 C3.33 3.31 3.66 5.62 4 8 C2.35 8 0.7 8 -1 8 C-1.042 5.667 -1.041 3.333 -1 1 C-0.67 0.67 -0.34 0.34 0 0 Z " fill="#549817" transform="translate(100,34)"/>
<path d="M0 0 C0.99 0 1.98 0 3 0 C2.125 5.75 2.125 5.75 1 8 C0.01 8 -0.98 8 -2 8 C-1.125 1.125 -1.125 1.125 0 0 Z " fill="#E6F0A6" transform="translate(59,99)"/>
<path d="M0 0 C0.66 0 1.32 0 2 0 C2.367 6.483 2.367 6.483 0.625 8.938 C-1 10 -1 10 -3 10 C-2.39 6.442 -1.422 3.317 0 0 Z " fill="#568F22" transform="translate(86,45)"/>
<path d="M0 0 C0.33 0 0.66 0 1 0 C1 1.98 1 3.96 1 6 C1.99 5.67 2.98 5.34 4 5 C3.443 8.344 2.648 11.033 1 14 C0.67 14 0.34 14 0 14 C0 9.38 0 4.76 0 0 Z " fill="#619C26" transform="translate(68,66)"/>
<path d="M0 0 C0.99 0 1.98 0 3 0 C1.484 3.478 -0.577 5.956 -3.125 8.75 C-3.849 9.549 -4.574 10.348 -5.32 11.172 C-5.875 11.775 -6.429 12.378 -7 13 C-7 9.216 -5.832 7.89 -3.688 4.812 C-3.38 4.362 -3.38 4.362 -1.824 2.082 C-1.523 1.738 -1.523 1.738 0 0 Z " fill="#519324" transform="translate(57,43)"/>
<path d="M0 0 C1.32 0.66 2.64 1.32 4 2 C3.67 2.165 3.67 2.165 2 3 C2.66 3.33 3.32 3.66 4 4 C4 4.66 4 5.32 4 6 C5.98 6.66 7.96 7.32 10 8 C7 9 7 9 4.957 8.004 C4.249 7.528 3.542 7.053 2.812 6.562 C2.097 6.089 1.382 5.616 0.645 5.129 C0.102 4.756 -0.441 4.384 -1 4 C-0.67 2.68 -0.34 1.36 0 0 Z " fill="#F6EED7" transform="translate(29,146)"/>
<path d="M0 0 C0.967 3.868 0.98 5.082 0.062 8.75 C-0.132 9.549 -0.327 10.348 -0.527 11.172 C-0.683 11.775 -0.839 12.378 -1 13 C-2.938 12.688 -2.938 12.688 -5 12 C-5.33 11.01 -5.66 10.02 -6 9 C-4.68 9 -3.36 9 -2 9 C-1.34 6.03 -0.68 3.06 0 0 Z " fill="#D7E48A" transform="translate(34,131)"/>
<path d="M0 0 C0.99 0.66 1.98 1.32 3 2 C3 2.99 3 3.98 3 5 C1.02 5.33 -0.96 5.66 -3 6 C-3.66 5.01 -4.32 4.02 -5 3 C-3.35 2.01 -1.7 1.02 0 0 Z " fill="#3E860F" transform="translate(76,130)"/>
<path d="M0 0 C2.31 0 4.62 0 7 0 C7 1.65 7 3.3 7 5 C5.35 5.66 3.7 6.32 2 7 C1.67 6.01 1.34 5.02 1 4 C1.99 4 2.98 4 4 4 C4 3.34 4 2.68 4 2 C2.68 1.34 1.36 0.68 0 0 Z " fill="#478A13" transform="translate(82,92)"/>
<path d="M0 0 C1.65 0 3.3 0 5 0 C4.34 2.31 3.68 4.62 3 7 C2.01 6.67 1.02 6.34 0 6 C0 4.02 0 2.04 0 0 Z " fill="#66A230" transform="translate(28,84)"/>
<path d="M0 0 C1.103 3.31 1.135 5.681 0 9 C-2.051 10.148 -2.051 10.148 -4 11 C-3.523 9.541 -3.043 8.083 -2.562 6.625 C-2.296 5.813 -2.029 5.001 -1.754 4.164 C-1 2 -1 2 0 0 Z " fill="#90BD32" transform="translate(84,106)"/>
<path d="M0 0 C0.66 0 1.32 0 2 0 C2 1.98 2 3.96 2 6 C0.02 6.33 -1.96 6.66 -4 7 C-2.926 4.085 -2.222 2.222 0 0 Z " fill="#4E8815" transform="translate(73,104)"/>
<path d="M0 0 C0.66 0.99 1.32 1.98 2 3 C1.32 5.699 1.32 5.699 0.125 8.688 C-0.264 9.681 -0.654 10.675 -1.055 11.699 C-1.211 12.079 -1.211 12.079 -2 14 C-3.086 10.743 -2.904 9.678 -2.125 6.438 C-1.942 5.652 -1.759 4.867 -1.57 4.059 C-1 2 -1 2 0 0 Z " fill="#CEDF76" transform="translate(48,129)"/>
<path d="M0 0 C0.33 0.99 0.66 1.98 1 3 C-1.31 5.31 -3.62 7.62 -6 10 C-6.66 9.67 -7.32 9.34 -8 9 C-5.36 6.03 -2.72 3.06 0 0 Z " fill="#448312" transform="translate(73,120)"/>
<path d="M0 0 C0.99 0.33 1.98 0.66 3 1 C1.814 4.375 0.724 6.647 -2 9 C-3 6 -3 6 -1.562 2.812 C-1.047 1.884 -0.531 0.956 0 0 Z " fill="#468416" transform="translate(59,115)"/>
<path d="M0 0 C0.33 0.99 0.66 1.98 1 3 C1.66 3 2.32 3 3 3 C1.63 6.161 1.011 6.993 -2 9 C-2 5.204 -1.498 3.371 0 0 Z " fill="#508D1B" transform="translate(116,47)"/>
<path d="M0 0 C0.33 0.66 0.66 1.32 1 2 C1.66 2.144 2.32 2.289 3 2.438 C3.33 2.53 3.33 2.53 5 3 C5.33 3.99 5.66 4.98 6 6 C4.35 6 2.7 6 1 6 C-0.062 4.125 -0.062 4.125 -1 2 C-0.67 1.34 -0.34 0.68 0 0 Z " fill="#BACF5C" transform="translate(47,147)"/>
<path d="M0 0 C0.66 0.33 1.32 0.66 2 1 C1.01 2.32 1.01 2.32 -4 9 C-4.33 8.01 -4.66 7.02 -5 6 C-3.596 3.736 -1.803 1.979 0 0 Z " fill="#98BA38" transform="translate(56,133)"/>
<path d="M0 0 C0.853 2.389 1.126 3.623 0.312 6.062 C-1.185 8.273 -2.79 9.527 -5 11 C-4.125 6.25 -4.125 6.25 -3 4 C-2.34 4 -1.68 4 -1 4 C-0.67 2.68 -0.34 1.36 0 0 Z " fill="#AECC4F" transform="translate(60,109)"/>
<path d="M0 0 C0.99 0 1.98 0 3 0 C3 1.98 3 3.96 3 6 C2.01 6.33 1.02 6.66 0 7 C-0.381 5.009 -0.713 3.007 -1 1 C-0.67 0.67 -0.34 0.34 0 0 Z " fill="#468810" transform="translate(91,89)"/>
<path d="M0 0 C2.36 2.36 2.491 3.779 3 7 C2.01 6.835 2.01 6.835 -3 6 C-1.125 1.125 -1.125 1.125 0 0 Z " fill="#E8EDD8" transform="translate(110,32)"/>
<path d="M0 0 C-0.66 1.32 -1.32 2.64 -2 4 C-5 4 -5 4 -8 3 C-4.939 0.376 -4.268 0 0 0 Z " fill="#A5CB43" transform="translate(96,106)"/>
<path d="M0 0 C0.66 0 1.32 0 2 0 C1.188 1.938 1.188 1.938 0 4 C-0.99 4.33 -1.98 4.66 -3 5 C-4.688 7.062 -4.688 7.062 -6 9 C-6.33 8.34 -6.66 7.68 -7 7 C-4.667 4.667 -2.333 2.333 0 0 Z " fill="#58981E" transform="translate(122,80)"/>
<path d="M0 0 C0.66 0 1.32 0 2 0 C2 0.66 2 1.32 2 2 C2.66 2.33 3.32 2.66 4 3 C2.68 4.65 1.36 6.3 0 8 C-0.99 7.67 -1.98 7.34 -3 7 C-2.752 6.794 -2.752 6.794 -1.5 5.75 C0 4 0 4 0 0 Z " fill="#4A8D17" transform="translate(107,72)"/>
<path d="M0 0 C0.66 0.33 1.32 0.66 2 1 C2 1.66 2 2.32 2 3 C3.32 3.66 4.64 4.32 6 5 C3.69 5 1.38 5 -1 5 C-1.66 3.68 -2.32 2.36 -3 1 C-2.01 0.67 -1.02 0.34 0 0 Z " fill="#C9D9BA" transform="translate(124,66)"/>
<path d="M0 0 C0.99 0.33 1.98 0.66 3 1 C2.401 3.352 1.731 5.686 1 8 C0.67 8.165 0.67 8.165 -1 9 C-1.125 2.25 -1.125 2.25 0 0 Z " fill="#75AA33" transform="translate(79,49)"/>
<path d="M0 0 C0.33 0 0.66 0 1 0 C1.33 3.3 1.66 6.6 2 10 C0.68 10.33 -0.64 10.66 -2 11 C-2.33 10.34 -2.66 9.68 -3 9 C-2.01 9 -1.02 9 0 9 C0 6.03 0 3.06 0 0 Z " fill="#40801A" transform="translate(39,26)"/>
<path d="M0 0 C2.375 0.312 2.375 0.312 5 1 C5.66 1.99 6.32 2.98 7 4 C5.02 4 3.04 4 1 4 C0.67 2.68 0.34 1.36 0 0 Z " fill="#D4E47A" transform="translate(36,145)"/>
<path d="M0 0 C0.66 0.99 1.32 1.98 2 3 C1.01 3.825 1.01 3.825 -4 8 C-4.66 7.67 -5.32 7.34 -6 7 C-4.02 4.69 -2.04 2.38 0 0 Z " fill="#739B23" transform="translate(56,136)"/>
<path d="M0 0 C2.64 0 5.28 0 8 0 C8 0.66 8 1.32 8 2 C6.02 2.66 4.04 3.32 2 4 C1.34 2.68 0.68 1.36 0 0 Z " fill="#E6ECDB" transform="translate(101,114)"/>
<path d="M0 0 C3.875 1.875 3.875 1.875 5 3 C5.072 4.686 5.084 6.375 5.062 8.062 C5.053 8.982 5.044 9.901 5.035 10.848 C5.024 11.558 5.012 12.268 5 13 C4.67 13 4.34 13 4 13 C3.67 10.03 3.34 7.06 3 4 C2.34 4 1.68 4 1 4 C0.67 2.68 0.34 1.36 0 0 Z " fill="#4F8A1F" transform="translate(33,97)"/>
<path d="M0 0 C0.99 0.33 1.98 0.66 3 1 C2.75 3.375 2.75 3.375 2 6 C-0.062 7.312 -0.062 7.312 -2 8 C-1.125 1.125 -1.125 1.125 0 0 Z " fill="#E6E7C6" transform="translate(83,127)"/>
<path d="M0 0 C1.125 3.75 1.125 3.75 0 6 C-1.65 5.67 -3.3 5.34 -5 5 C-3.35 3.35 -1.7 1.7 0 0 Z " fill="#5A961D" transform="translate(98,73)"/>
<path d="M0 0 C0.33 0.66 0.66 1.32 1 2 C-1.39 5.243 -3.205 7.509 -7 9 C-7.33 8.34 -7.66 7.68 -8 7 C-7.711 6.887 -7.711 6.887 -6.25 6.312 C-3.434 4.67 -1.919 2.605 0 0 Z " fill="#9AC446" transform="translate(98,43)"/>
<path d="M0 0 C2.139 2.139 2.427 3.133 3 6 C1.68 6.33 0.36 6.66 -1 7 C-1.625 4.625 -1.625 4.625 -2 2 C-1.34 1.34 -0.68 0.68 0 0 Z " fill="#5F9D25" transform="translate(79,44)"/>
<path d="M0 0 C-1.29 1.376 -2.627 2.708 -4 4 C-4.66 4 -5.32 4 -6 4 C-6 3.34 -6 2.68 -6 2 C-6.66 1.67 -7.32 1.34 -8 1 C-4.933 -0.862 -3.403 -1.215 0 0 Z " fill="#CEDB71" transform="translate(58,148)"/>
<path d="M0 0 C1.376 3.821 0.813 7.082 0 11 C-0.33 11.165 -0.33 11.165 -2 12 C-1.858 10.562 -1.711 9.125 -1.562 7.688 C-1.481 6.887 -1.4 6.086 -1.316 5.262 C-1 3 -1 3 0 0 Z " fill="#8BB533" transform="translate(39,126)"/>
<path d="M0 0 C0.66 0.99 1.32 1.98 2 3 C1.01 3.825 1.01 3.825 -4 8 C-3.401 4.644 -2.154 2.622 0 0 Z " fill="#54901C" transform="translate(78,114)"/>
<path d="M0 0 C0.688 1.812 0.688 1.812 1 4 C-0.438 5.75 -0.438 5.75 -2 7 C-2 6.34 -2 5.68 -2 5 C-2.66 5 -3.32 5 -4 5 C-4 4.34 -4 3.68 -4 3 C-2 1.375 -2 1.375 0 0 Z " fill="#1E5C08" transform="translate(75,111)"/>
<path d="M0 0 C0 0.99 0 1.98 0 3 C-2.343 2.744 -4.678 2.407 -7 2 C-7.33 1.34 -7.66 0.68 -8 0 C-2.25 -1.125 -2.25 -1.125 0 0 Z " fill="#DFE8D1" transform="translate(36,80)"/>
<path d="M0 0 C0.99 0 1.98 0 3 0 C2.67 1.98 2.34 3.96 2 6 C1.01 5.67 0.02 5.34 -1 5 C-0.67 3.35 -0.34 1.7 0 0 Z " fill="#5DA020" transform="translate(110,41)"/>
<path d="M0 0 C0.66 0.99 1.32 1.98 2 3 C0.625 6.688 0.625 6.688 -1 10 C-2.467 6.185 -1.433 3.71 0 0 Z " fill="#BFD75F" transform="translate(50,128)"/>
<path d="M0 0 C1 2 2 4 3 6 C2.01 6.99 1.02 7.98 0 9 C-1.125 2.25 -1.125 2.25 0 0 Z " fill="#6EA028" transform="translate(44,117)"/>
<path d="M0 0 C0.66 0.33 0.66 0.33 4 2 C3.67 3.65 3.34 5.3 3 7 C2.34 6.67 1.68 6.34 1 6 C0.375 2.938 0.375 2.938 0 0 Z " fill="#DAE989" transform="translate(53,110)"/>
<path d="M0 0 C0.33 0.99 0.66 1.98 1 3 C-0.32 4.32 -1.64 5.64 -3 7 C-3.99 6.01 -4.98 5.02 -6 4 C-5.598 3.856 -5.598 3.856 -3.562 3.125 C-1 2 -1 2 0 0 Z " fill="#639720" transform="translate(73,108)"/>
<path d="M0 0 C0.33 0 0.66 0 1 0 C1 2.64 1 5.28 1 8 C1.66 8 2.32 8 3 8 C2.34 9.32 1.68 10.64 1 12 C0.67 12 0.34 12 0 12 C0 8.04 0 4.08 0 0 Z " fill="#559222" transform="translate(46,84)"/>
<path d="M0 0 C1.392 4.176 -0.177 6.135 -2 10 C-2.66 8.68 -3.32 7.36 -4 6 C-3.01 5.67 -2.02 5.34 -1 5 C-0.67 3.35 -0.34 1.7 0 0 Z " fill="#468619" transform="translate(85,37)"/>
</svg>
