<?xml version="1.0" encoding="UTF-8"?>
<!-- Generator: visioncortex VTracer 0.6.12 -->
<svg version="1.1" xmlns="http://www.w3.org/2000/svg" width="164" height="142">
<path d="M0 0 C54.12 0 108.24 0 164 0 C164 46.86 164 93.72 164 142 C109.88 142 55.76 142 0 142 C0 95.14 0 48.28 0 0 Z " fill="#FCF7EB" transform="translate(0,0)"/>
<path d="M0 0 C10.716 4.795 17.729 13.322 25.207 22.07 C29.489 26.733 34.402 30.777 39.184 34.914 C41.139 36.608 43.079 38.316 45.012 40.035 C45.619 40.564 46.226 41.092 46.852 41.637 C53.942 48.185 59.363 57.463 60.198 67.214 C60.279 69.554 60.285 71.882 60.262 74.223 C60.266 74.619 60.266 74.619 60.285 76.627 C60.272 80.655 60.168 83.525 58.012 87.035 C57.723 88.314 57.434 89.593 57.137 90.91 C55.903 96.126 53.172 100.599 49.012 104.035 C48.517 104.2 48.517 104.2 46.012 105.035 C45.455 105.943 44.898 106.85 44.324 107.785 C40.926 112.56 36.541 115.192 31.012 117.035 C27.692 117.343 24.371 117.544 21.043 117.754 C18.012 118.035 18.012 118.035 15.012 119.035 C3.018 120.181 -8.035 118.018 -17.863 110.785 C-30.299 100.083 -36.707 87.145 -40.363 71.285 C-41.692 65.645 -43.687 60.44 -45.919 55.11 C-49.712 46.052 -50.86 35.397 -48.047 25.836 C-45.854 21.238 -43.46 17.694 -38.988 15.035 C-38.328 15.035 -37.668 15.035 -36.988 15.035 C-37.133 14.169 -37.277 13.303 -37.426 12.41 C-36.865 8.088 -35.467 6.771 -32.117 4.145 C-29.034 2.538 -26.564 2.827 -23.168 3.09 C-20.184 3.015 -18.37 1.519 -15.914 -0.051 C-10.784 -2.486 -5.243 -1.693 0 0 Z " fill="#BAD539" transform="translate(82.98828125,10.96484375)"/>
<path d="M0 0 C10.716 4.795 17.729 13.322 25.207 22.07 C29.489 26.733 34.402 30.777 39.184 34.914 C41.139 36.608 43.079 38.316 45.012 40.035 C45.619 40.564 46.226 41.092 46.852 41.637 C53.942 48.185 59.363 57.463 60.198 67.214 C60.279 69.554 60.285 71.882 60.262 74.223 C60.266 74.619 60.266 74.619 60.285 76.627 C60.272 80.655 60.168 83.525 58.012 87.035 C57.723 88.314 57.434 89.593 57.137 90.91 C55.903 96.126 53.172 100.599 49.012 104.035 C48.517 104.2 48.517 104.2 46.012 105.035 C45.455 105.943 44.898 106.85 44.324 107.785 C40.926 112.56 36.541 115.192 31.012 117.035 C27.692 117.343 24.371 117.544 21.043 117.754 C18.012 118.035 18.012 118.035 15.012 119.035 C3.018 120.181 -8.035 118.018 -17.863 110.785 C-27.954 102.101 -34.762 92.044 -37.988 79.035 C-38.176 75.973 -38.176 75.973 -37.988 74.035 C-34.718 75.67 -34.319 79.247 -33.176 82.535 C-28.521 95.338 -22.779 105.894 -9.988 112.035 C-0.794 115.642 7.998 117.971 17.574 114.66 C21.012 113.035 21.012 113.035 22.012 111.035 C21.334 111.058 20.656 111.082 19.957 111.105 C7.146 111.354 -3.85 108.617 -14.301 100.785 C-20.043 94.909 -26.988 86.652 -26.988 78.035 C-26.328 78.035 -25.668 78.035 -24.988 78.035 C-24.709 78.615 -24.429 79.195 -24.141 79.793 C-20.403 87.076 -16.363 92.006 -8.551 94.91 C-3.801 96.259 1.2 97.42 5.844 95.133 C7.512 94.035 7.512 94.035 10.012 92.035 C9.012 84.607 9.012 84.607 8.012 81.035 C9.002 81.695 9.992 82.355 11.012 83.035 C16.049 85.911 20.24 85.638 25.887 84.41 C28.882 82.472 29.117 80.409 30.012 77.035 C30.342 76.54 30.342 76.54 32.012 74.035 C33.183 63.217 30.241 54.784 24.012 46.035 C21.504 43.175 18.841 40.575 16.012 38.035 C15.166 37.272 14.32 36.509 13.449 35.723 C10.424 33.628 7.435 32.378 4.012 31.035 C4.672 30.375 5.332 29.715 6.012 29.035 C3.991 26.083 1.942 23.151 -0.113 20.223 C-0.683 19.389 -1.253 18.556 -1.84 17.697 C-5.701 12.235 -8.728 8.804 -15.586 7.566 C-22.359 7.481 -22.359 7.481 -25.613 10.348 C-26.397 11.235 -27.181 12.121 -27.988 13.035 C-29.922 13.719 -29.922 13.719 -32.051 14.285 C-34.856 15.181 -35.774 15.701 -37.391 18.219 C-38.377 20.468 -39.243 22.696 -39.988 25.035 C-40.648 24.045 -41.308 23.055 -41.988 22.035 C-47.125 29.823 -46.783 37.993 -46.988 47.035 C-47.648 46.705 -48.308 46.375 -48.988 46.035 C-49.985 26.939 -49.985 26.939 -43.988 19.035 C-39.893 15.035 -39.893 15.035 -36.988 15.035 C-37.133 14.169 -37.277 13.303 -37.426 12.41 C-36.865 8.088 -35.467 6.771 -32.117 4.145 C-29.034 2.538 -26.564 2.827 -23.168 3.09 C-20.184 3.015 -18.37 1.519 -15.914 -0.051 C-10.784 -2.486 -5.243 -1.693 0 0 Z " fill="#9DBF2A" transform="translate(82.98828125,10.96484375)"/>
<path d="M0 0 C10.716 4.795 17.729 13.322 25.207 22.07 C29.489 26.733 34.402 30.777 39.184 34.914 C41.139 36.608 43.079 38.316 45.012 40.035 C45.619 40.564 46.226 41.092 46.852 41.637 C53.942 48.185 59.363 57.463 60.198 67.214 C60.279 69.554 60.285 71.882 60.262 74.223 C60.266 74.619 60.266 74.619 60.285 76.627 C60.272 80.655 60.168 83.525 58.012 87.035 C57.723 88.314 57.434 89.593 57.137 90.91 C55.903 96.126 53.172 100.599 49.012 104.035 C48.517 104.2 48.517 104.2 46.012 105.035 C45.455 105.943 44.898 106.85 44.324 107.785 C40.926 112.56 36.541 115.192 31.012 117.035 C27.692 117.343 24.371 117.544 21.043 117.754 C18.012 118.035 18.012 118.035 15.012 119.035 C3.018 120.181 -8.035 118.018 -17.863 110.785 C-27.954 102.101 -34.762 92.044 -37.988 79.035 C-38.176 75.973 -38.176 75.973 -37.988 74.035 C-34.718 75.67 -34.319 79.247 -33.176 82.535 C-28.521 95.338 -22.779 105.894 -9.988 112.035 C-0.794 115.642 7.998 117.971 17.574 114.66 C21.012 113.035 21.012 113.035 22.012 111.035 C21.334 111.058 20.656 111.082 19.957 111.105 C7.076 111.355 -4.263 108.656 -14.551 100.41 C-16.643 98.372 -18.449 96.515 -19.988 94.035 C-19.988 93.375 -19.988 92.715 -19.988 92.035 C-19.328 92.035 -18.668 92.035 -17.988 92.035 C-16.832 93.355 -16.832 93.355 -15.488 95.16 C-8.813 103.164 1.027 107.353 11.25 108.352 C18.29 108.603 23.125 107.997 29.012 104.035 C29.177 103.54 29.177 103.54 30.012 101.035 C29.517 100.87 29.517 100.87 27.012 100.035 C30.012 99.035 30.012 99.035 32.949 98.785 C36.952 97.805 37.889 96.522 40.012 93.035 C41.942 87.565 42.264 82.807 42.137 77.098 C42.128 76.318 42.119 75.539 42.109 74.736 C42.086 72.836 42.05 70.935 42.012 69.035 C44.012 70.035 44.012 70.035 44.68 71.969 C46.434 80.424 46.213 87.925 43.012 96.035 C47.875 95.618 49.877 93.665 53.012 90.035 C58.402 83.359 56.985 72.941 56.421 64.849 C55.454 58.207 51.992 53.315 48.012 48.035 C47.673 47.507 47.673 47.507 45.961 44.832 C44.23 42.348 43.037 40.998 40.574 39.348 C36.677 36.571 32.988 33.609 29.324 30.535 C29.051 30.31 29.051 30.31 27.668 29.169 C23.092 25.314 19.36 21.22 16.199 16.098 C10.709 8.411 4.155 4.321 -4.988 2.035 C-9.876 1.554 -13.428 2.255 -17.988 4.035 C-17.328 4.695 -16.668 5.355 -15.988 6.035 C-16.592 6.194 -17.195 6.352 -17.816 6.516 C-23.265 8.106 -25.485 9.481 -28.988 14.035 C-29.566 14.159 -29.566 14.159 -32.488 14.785 C-35.988 16.035 -35.988 16.035 -37.328 18.152 C-38.322 20.423 -39.209 22.683 -39.988 25.035 C-40.648 24.045 -41.308 23.055 -41.988 22.035 C-47.125 29.823 -46.783 37.993 -46.988 47.035 C-47.648 46.705 -48.308 46.375 -48.988 46.035 C-49.985 26.939 -49.985 26.939 -43.988 19.035 C-39.893 15.035 -39.893 15.035 -36.988 15.035 C-37.133 14.169 -37.277 13.303 -37.426 12.41 C-36.865 8.088 -35.467 6.771 -32.117 4.145 C-29.034 2.538 -26.564 2.827 -23.168 3.09 C-20.184 3.015 -18.37 1.519 -15.914 -0.051 C-10.784 -2.486 -5.243 -1.693 0 0 Z " fill="#659016" transform="translate(82.98828125,10.96484375)"/>
<path d="M0 0 C1.65 0 3.3 0 5 0 C5.003 0.704 5.007 1.408 5.01 2.134 C5.091 19.251 5.183 36.367 5.288 53.484 C5.338 61.762 5.384 70.039 5.422 78.316 C5.455 85.529 5.495 92.742 5.543 99.954 C5.568 103.775 5.59 107.596 5.603 111.417 C5.616 115.01 5.638 118.603 5.667 122.197 C5.681 124.15 5.684 126.104 5.688 128.057 C5.699 129.212 5.71 130.368 5.722 131.558 C5.727 132.567 5.733 133.575 5.738 134.614 C6 137 6 137 8 139 C10.682 139.262 10.682 139.262 14.163 139.278 C15.478 139.29 16.794 139.301 18.149 139.312 C19.615 139.315 21.081 139.317 22.547 139.319 C24.085 139.328 25.622 139.338 27.159 139.349 C31.341 139.377 35.522 139.392 39.704 139.405 C44.071 139.42 48.438 139.447 52.804 139.473 C61.077 139.52 69.351 139.556 77.624 139.589 C87.041 139.628 96.458 139.677 105.875 139.727 C125.25 139.831 144.625 139.92 164 140 C164 140.66 164 141.32 164 142 C109.88 142 55.76 142 0 142 C0 95.14 0 48.28 0 0 Z " fill="#FEFDFB" transform="translate(0,0)"/>
<path d="M0 0 C0.33 0 0.66 0 1 0 C1 1.32 1 2.64 1 4 C1.732 12.065 6.194 19.012 10 26 C11 24 11.494 22.169 12 20 C18.963 34.602 18.963 34.602 17 41 C16.496 39.71 15.997 38.418 15.5 37.125 C15.361 36.765 15.361 36.765 14.656 34.945 C14 33 14 33 14 31 C13.34 31 12.68 31 12 31 C16.933 60.782 16.933 60.782 27.164 68.668 C29.075 69.873 30.984 70.982 33 72 C33.33 71.34 33.66 70.68 34 70 C34.557 70.398 35.114 70.797 35.688 71.207 C46.888 78.983 56.473 80.2 70 80 C68.552 83.504 68.134 83.933 64.5 85.75 C55.01 88.834 46.024 86.769 37 83 C33.382 80.964 30.193 78.646 27 76 C26.353 75.488 25.706 74.976 25.039 74.449 C16.698 67.11 13.483 55.224 10 45 C9.34 45.66 8.68 46.32 8 47 C7.853 46.308 7.706 45.616 7.555 44.902 C6.172 38.873 4.388 33.601 1.75 28 C-2.35 18.885 -1.083 9.695 0 0 Z " fill="#9EBF2C" transform="translate(36,41)"/>
<path d="M0 0 C10.716 4.795 17.729 13.322 25.207 22.07 C29.489 26.733 34.402 30.777 39.184 34.914 C41.139 36.608 43.079 38.316 45.012 40.035 C45.619 40.564 46.226 41.092 46.852 41.637 C53.947 48.189 59.368 57.472 60.198 67.23 C60.279 69.586 60.285 71.929 60.262 74.285 C60.266 74.686 60.266 74.686 60.285 76.715 C60.272 80.656 60.243 82.688 58.012 86.035 C56.413 80.338 56.028 75.767 56.387 69.848 C56.552 60.727 53.048 55.378 48.012 48.035 C47.335 46.968 46.658 45.9 45.961 44.801 C44.231 42.346 43.019 40.987 40.574 39.348 C36.677 36.571 32.988 33.609 29.324 30.535 C29.051 30.31 29.051 30.31 27.668 29.169 C23.092 25.314 19.36 21.22 16.199 16.098 C10.709 8.411 4.155 4.321 -4.988 2.035 C-9.876 1.554 -13.428 2.255 -17.988 4.035 C-17.328 4.695 -16.668 5.355 -15.988 6.035 C-16.592 6.194 -17.195 6.352 -17.816 6.516 C-23.265 8.106 -25.485 9.481 -28.988 14.035 C-29.566 14.159 -29.566 14.159 -32.488 14.785 C-35.988 16.035 -35.988 16.035 -37.328 18.152 C-38.322 20.423 -39.209 22.683 -39.988 25.035 C-40.648 24.045 -41.308 23.055 -41.988 22.035 C-47.125 29.823 -46.783 37.993 -46.988 47.035 C-47.648 46.705 -48.308 46.375 -48.988 46.035 C-49.985 26.939 -49.985 26.939 -43.988 19.035 C-39.893 15.035 -39.893 15.035 -36.988 15.035 C-37.133 14.169 -37.277 13.303 -37.426 12.41 C-36.865 8.088 -35.467 6.771 -32.117 4.145 C-29.034 2.538 -26.564 2.827 -23.168 3.09 C-20.184 3.015 -18.37 1.519 -15.914 -0.051 C-10.784 -2.486 -5.243 -1.693 0 0 Z " fill="#7A9F1F" transform="translate(82.98828125,10.96484375)"/>
<path d="M0 0 C2 1 2 1 2.668 2.934 C4.422 11.389 4.201 18.89 1 27 C5.861 26.583 7.764 24.498 11 21 C11.66 20.67 12.32 20.34 13 20 C12.63 26.169 11.242 28.758 7 33 C6.66 33.165 6.66 33.165 4.938 34 C3 35 3 35 1.062 38 C-1.236 41.343 -2.237 41.835 -6 43 C-6.949 43.536 -7.898 44.072 -8.875 44.625 C-12.475 46.209 -15.108 46.233 -19 46 C-18.578 45.241 -18.157 44.481 -17.723 43.699 C-17.175 42.705 -16.627 41.711 -16.062 40.688 C-15.517 39.701 -14.972 38.715 -14.41 37.699 C-13 35 -13 35 -12 32 C-12.99 31.67 -13.98 31.34 -15 31 C-12 30 -12 30 -9.062 29.75 C-5.06 28.77 -4.123 27.487 -2 24 C-0.07 18.53 0.252 13.772 0.125 8.062 C0.116 7.283 0.107 6.504 0.098 5.701 C0.074 3.801 0.038 1.9 0 0 Z " fill="#648B0D" transform="translate(125,80)"/>
<path d="M0 0 C0.33 0.495 0.33 0.495 2 3 C1.469 3.447 0.938 3.895 0.391 4.355 C-5.616 9.497 -5.616 9.497 -8 12.625 C-10.44 15.522 -13.11 17.049 -16.391 18.887 C-16.922 19.254 -17.453 19.621 -18 20 C-18 20.66 -18 21.32 -18 22 C-18 22.66 -18 23.32 -18 24 C-32.176 28.725 -51.046 25.405 -65 21 C-68.323 20.257 -71.652 19.628 -75 19 C-75.66 15.7 -76.32 12.4 -77 9 C-75.68 9.907 -74.36 10.815 -73 11.75 C-61.896 19.13 -52.477 21.728 -39 21 C-38.01 20.67 -37.02 20.34 -36 20 C-33.898 19.848 -31.793 19.727 -29.688 19.625 C-24.745 19.269 -21.213 18.774 -17 16 C-15.948 15.381 -14.896 14.763 -13.812 14.125 C-10.893 11.919 -9.827 10.099 -8 7 C-6.352 5.97 -4.685 4.969 -3 4 C-1.188 1.812 -1.188 1.812 0 0 Z " fill="#E3D7AB" transform="translate(137,108)"/>
<path d="M0 0 C0 0.66 0 1.32 0 2 C-0.915 2.133 -1.83 2.266 -2.773 2.402 C-3.962 2.579 -5.15 2.756 -6.375 2.938 C-7.558 3.112 -8.742 3.286 -9.961 3.465 C-13 4 -13 4 -15 5 C-14.34 5.66 -13.68 6.32 -13 7 C-13.603 7.159 -14.207 7.317 -14.828 7.48 C-20.277 9.071 -22.497 10.446 -26 15 C-26.578 15.124 -26.578 15.124 -29.5 15.75 C-33 17 -33 17 -34.34 19.117 C-35.334 21.388 -36.221 23.648 -37 26 C-37.66 25.01 -38.32 24.02 -39 23 C-44.137 30.788 -43.794 38.958 -44 48 C-44.66 47.67 -45.32 47.34 -46 47 C-46.997 27.904 -46.997 27.904 -41 20 C-36.905 16 -36.905 16 -34 16 C-34.144 15.134 -34.289 14.267 -34.438 13.375 C-33.877 9.052 -32.479 7.735 -29.129 5.109 C-26.046 3.503 -23.575 3.792 -20.18 4.055 C-17.2 3.98 -15.391 2.515 -12.973 0.891 C-8.936 -0.932 -4.332 -0.282 0 0 Z " fill="#80A41B" transform="translate(80,10)"/>
<path d="M0 0 C0.33 0 0.66 0 1 0 C1 1.32 1 2.64 1 4 C1.732 12.065 6.194 19.012 10 26 C11 24 11.494 22.169 12 20 C18.963 34.602 18.963 34.602 17 41 C16.496 39.71 15.997 38.418 15.5 37.125 C15.361 36.765 15.361 36.765 14.656 34.945 C14 33 14 33 14 31 C13.34 31 12.68 31 12 31 C12.33 33.64 12.66 36.28 13 39 C12.505 39.165 12.505 39.165 10 40 C9.036 37.815 8.079 35.627 7.125 33.438 C6.856 32.828 6.586 32.219 6.309 31.592 C4.948 28.457 3.794 25.407 2.93 22.098 C2.623 21.075 2.316 20.053 2 19 C1.34 18.67 0.68 18.34 0 18 C-0.33 18.66 -0.66 19.32 -1 20 C-0.67 13.4 -0.34 6.8 0 0 Z " fill="#AAC82F" transform="translate(36,41)"/>
<path d="M0 0 C3.27 1.635 3.669 5.212 4.812 8.5 C9.446 21.244 15.199 31.954 28 38 C32.289 39.508 36.615 40.803 41 42 C41 42.66 41 43.32 41 44 C44.96 44 48.92 44 53 44 C53 44.33 53 44.66 53 45 C39.92 45.895 28.247 43.74 18.023 34.941 C8.893 26.182 0.617 15.075 -0.188 1.938 C-0.126 1.298 -0.064 0.659 0 0 Z " fill="#75981C" transform="translate(45,85)"/>
<path d="M0 0 C0.66 0.454 0.66 0.454 4 2.75 C17.105 11.439 29.852 13.944 45.438 14.562 C46.455 14.606 47.473 14.649 48.521 14.693 C51.014 14.799 53.507 14.901 56 15 C56 15.33 56 15.66 56 16 C40.662 16.42 26.698 16.64 12 12 C8.677 11.257 5.348 10.628 2 10 C1.34 6.7 0.68 3.4 0 0 Z " fill="#EBE0BC" transform="translate(60,117)"/>
<path d="M0 0 C5.276 0.703 8.302 3.542 11.75 7.5 C11.75 8.16 11.75 8.82 11.75 9.5 C11.09 9.5 10.43 9.5 9.75 9.5 C10.08 11.15 10.41 12.8 10.75 14.5 C7.489 13.011 4.845 11.107 2 8.938 C-2.579 5.663 -5.66 4.604 -11.25 4.5 C-7.433 1.364 -4.81 0.74 0 0 Z " fill="#B4CF38" transform="translate(74.25,11.5)"/>
<path d="M0 0 C0.66 0 1.32 0 2 0 C2.195 6.055 2.195 6.055 2 8 C-0.277 10.277 -2.011 10.845 -5 12 C-5.949 12.536 -6.898 13.073 -7.875 13.625 C-11.475 15.209 -14.108 15.233 -18 15 C-15.2 8.549 -15.2 8.549 -11.906 7.043 C-10.338 6.596 -8.765 6.166 -7.188 5.754 C-3.988 4.651 -2.213 2.482 0 0 Z " fill="#93BA28" transform="translate(124,111)"/>
<path d="M0 0 C6.045 5.182 9.51 13.326 10.19 21.2 C10.267 23.554 10.273 25.896 10.25 28.25 C10.258 29.052 10.265 29.854 10.273 30.68 C10.26 34.621 10.232 36.652 8 40 C6.397 34.29 5.983 29.564 6.25 23.625 C6.385 16.903 5.041 12.908 1.312 7.367 C-0.18 4.676 -0.259 3.029 0 0 Z " fill="#80A52B" transform="translate(133,57)"/>
<path d="M0 0 C0.66 0 1.32 0 2 0 C3.156 1.32 3.156 1.32 4.5 3.125 C10.348 10.136 19.022 14.571 28 16 C33.017 16.222 37.98 16.181 43 16 C43.165 16.66 43.165 16.66 44 20 C43.34 19.67 42.68 19.34 42 19 C40.333 18.98 38.666 19.008 37 19.062 C24.2 19.112 12.31 15.072 3 6 C0 2.5 0 2.5 0 0 Z " fill="#7DA31B" transform="translate(63,103)"/>
<path d="M0 0 C2.312 -0.25 2.312 -0.25 5 0 C6.812 1.562 6.812 1.562 8 4 C8.188 7.75 8.188 7.75 8 11 C7.34 11.33 7.34 11.33 4 13 C2 11.562 2 11.562 0 9 C-0.354 5.972 -0.233 3.035 0 0 Z " fill="#D7E56F" transform="translate(63,68)"/>
<path d="M0 0 C0.33 0 0.66 0 1 0 C0.63 6.169 -0.758 8.758 -5 13 C-7.188 14.25 -7.188 14.25 -9 15 C-9.66 15.66 -10.32 16.32 -11 17 C-11 15.02 -11 13.04 -11 11 C-11.66 10.67 -12.32 10.34 -13 10 C-12 8 -12 8 -10.293 7.324 C-9.598 7.114 -8.903 6.904 -8.188 6.688 C-4.202 5.302 -2.391 3.538 0 0 Z " fill="#6D9B14" transform="translate(137,100)"/>
<path d="M0 0 C2 1 2 1 2.668 2.934 C4.473 11.633 4.667 20.166 0 28 C-2.688 28.938 -2.688 28.938 -5 29 C-4.723 28.469 -4.446 27.938 -4.16 27.391 C-3.798 26.684 -3.436 25.978 -3.062 25.25 C-2.703 24.554 -2.343 23.858 -1.973 23.141 C-0.413 19.709 0.126 16.647 0.098 12.891 C0.094 12.137 0.091 11.382 0.088 10.605 C0.08 9.828 0.071 9.051 0.062 8.25 C0.06 7.854 0.06 7.854 0.049 5.848 C0.037 3.898 0.019 1.949 0 0 Z " fill="#789F18" transform="translate(125,80)"/>
<path d="M0 0 C-10.877 6.066 -21.411 7.46 -33.75 7.188 C-34.343 7.181 -34.343 7.181 -37.344 7.146 C-40.23 7.112 -43.115 7.063 -46 7 C-46 6.67 -46 6.34 -46 6 C-45.279 5.985 -44.559 5.971 -43.816 5.956 C-40.523 5.881 -37.23 5.784 -33.938 5.688 C-32.804 5.665 -31.67 5.642 -30.502 5.619 C-24.184 5.417 -19.628 4.856 -14 2 C-11.911 1.365 -9.806 0.778 -7.688 0.25 C-6.66 -0.013 -5.633 -0.276 -4.574 -0.547 C-2 -1 -2 -1 0 0 Z " fill="#F6ECD6" transform="translate(137,127)"/>
<path d="M0 0 C0.99 0.33 1.98 0.66 3 1 C4.017 3.325 4.853 5.533 5.625 7.938 C7.972 14.945 7.972 14.945 9 17 C9.134 19.672 9.043 22.323 9 25 C6.364 21.869 5.15 18.956 3.938 15.062 C3.006 12.105 2.096 9.224 0.879 6.371 C0 4 0 4 0 0 Z " fill="#7CA11F" transform="translate(36,59)"/>
<path d="M0 0 C2.438 0.25 2.438 0.25 5 1 C7 4 7 4 6.625 6.688 C6.419 7.451 6.213 8.214 6 9 C3.625 9.188 3.625 9.188 1 9 C-1.148 5.778 -1.294 4.722 -1 1 C-0.67 0.67 -0.34 0.34 0 0 Z " fill="#D5E56C" transform="translate(80,56)"/>
<path d="M0 0 C0 0.99 0 1.98 0 3 C-6.271 6.716 -10.755 7.534 -18 7 C-18 6.34 -18 5.68 -18 5 C-16.804 4.732 -15.608 4.464 -14.375 4.188 C-11.524 3.487 -9.418 2.709 -6.75 1.375 C-4 0 -4 0 0 0 Z " fill="#A7C732" transform="translate(112,113)"/>
<path d="M0 0 C5.398 1.151 10.71 2.424 16 4 C16 4.66 16 5.32 16 6 C19.96 6 23.92 6 28 6 C28 6.33 28 6.66 28 7 C17.278 7.733 9.798 6.169 0 2 C0 1.34 0 0.68 0 0 Z " fill="#87A436" transform="translate(70,123)"/>
<path d="M0 0 C1.472 2.944 0.849 5.374 0.562 8.625 C0.461 9.814 0.359 11.002 0.254 12.227 C0.17 13.142 0.086 14.057 0 15 C-0.66 15 -1.32 15 -2 15 C-2.66 15.66 -3.32 16.32 -4 17 C-4.326 10.886 -4.422 6.338 -1 1 C-0.67 0.67 -0.34 0.34 0 0 Z " fill="#CFE25E" transform="translate(41,32)"/>
<path d="M0 0 C2.125 0.375 2.125 0.375 4 1 C3.75 4.375 3.75 4.375 3 8 C0.938 9.438 0.938 9.438 -1 10 C-2.381 7.237 -2.191 5.053 -2 2 C-1.34 1.34 -0.68 0.68 0 0 Z " fill="#DBE977" transform="translate(48,31)"/>
<path d="M0 0 C1 3 1 3 -0.109 5.262 C-0.651 6.062 -1.192 6.863 -1.75 7.688 C-2.281 8.496 -2.812 9.304 -3.359 10.137 C-3.901 10.752 -4.442 11.366 -5 12 C-5.99 12 -6.98 12 -8 12 C-7.394 8.914 -6.415 6.846 -4.562 4.312 C-4.131 3.711 -3.699 3.109 -3.254 2.488 C-2 1 -2 1 0 0 Z " fill="#93B729" transform="translate(139,93)"/>
<path d="M0 0 C-0.33 0.99 -0.66 1.98 -1 3 C-1.66 3 -2.32 3 -3 3 C-3.227 3.639 -3.454 4.279 -3.688 4.938 C-5 7 -5 7 -7.625 7.75 C-8.017 7.791 -8.017 7.791 -10 8 C-9.875 5.688 -9.875 5.688 -9 3 C-5.793 0.978 -3.808 0 0 0 Z " fill="#AECE34" transform="translate(58,16)"/>
<path d="M0 0 C4.828 2.646 9.341 5.864 13 10 C12.67 10.66 12.34 11.32 12 12 C11.492 11.529 10.984 11.059 10.461 10.574 C4.281 4.985 -0.515 1.848 -9 1 C-5.595 -1.144 -3.83 -1.065 0 0 Z " fill="#94B323" transform="translate(72,17)"/>
<path d="M0 0 C-1.388 3.354 -2.886 5.113 -6 7 C-6.99 7 -7.98 7 -9 7 C-9 5.35 -9 3.7 -9 2 C-3.375 -1.125 -3.375 -1.125 0 0 Z " fill="#819B16" transform="translate(124,111)"/>
<path d="M0 0 C0 0.66 0 1.32 0 2 C-0.892 2.121 -1.784 2.242 -2.703 2.367 C-3.874 2.535 -5.044 2.702 -6.25 2.875 C-7.41 3.037 -8.57 3.2 -9.766 3.367 C-13 4 -13 4 -15.234 5.133 C-17 6 -17 6 -20 5 C-13.28 0.354 -8.106 -0.682 0 0 Z " fill="#82A831" transform="translate(80,10)"/>
<path d="M0 0 C0.66 0 1.32 0 2 0 C2.055 2.041 2.093 4.083 2.125 6.125 C2.148 7.262 2.171 8.399 2.195 9.57 C1.997 13.058 1.252 15.755 0 19 C-0.66 19 -1.32 19 -2 19 C-1.847 18.326 -1.693 17.652 -1.535 16.957 C-0.915 13.531 -0.665 10.161 -0.438 6.688 C-0.354 5.433 -0.27 4.179 -0.184 2.887 C-0.123 1.934 -0.062 0.981 0 0 Z " fill="#A7C734" transform="translate(124,84)"/>
<path d="M0 0 C2.062 0.438 2.062 0.438 4 1 C4.688 2.812 4.688 2.812 5 5 C3.562 6.75 3.562 6.75 2 8 C1.01 7.67 0.02 7.34 -1 7 C-1.043 5 -1.041 3 -1 1 C-0.67 0.67 -0.34 0.34 0 0 Z " fill="#D8EA72" transform="translate(59,23)"/>
<path d="M0 0 C1.32 0.66 2.64 1.32 4 2 C-2.844 6.129 -7.099 7.657 -15 6 C-14.67 5.34 -14.34 4.68 -14 4 C-12.969 4.062 -11.938 4.124 -10.875 4.188 C-6.663 3.984 -3.079 3.079 0 0 Z " fill="#71981F" transform="translate(120,121)"/>
<path d="M0 0 C0.66 0.66 1.32 1.32 2 2 C1.381 2.516 0.763 3.031 0.125 3.562 C-2.479 6.549 -2.967 9.214 -4 13 C-5.625 14.938 -5.625 14.938 -7 16 C-7.66 15.67 -8.32 15.34 -9 15 C-8.188 13.062 -8.188 13.062 -7 11 C-6.01 10.67 -5.02 10.34 -4 10 C-4.082 9.093 -4.165 8.185 -4.25 7.25 C-4 4 -4 4 -2 1.625 C-1.34 1.089 -0.68 0.552 0 0 Z " fill="#759E1C" transform="translate(50,16)"/>
<path d="M0 0 C3 1.688 3 1.688 6 4 C6.375 6.75 6.375 6.75 6 9 C6.66 9.33 7.32 9.66 8 10 C6.02 10 4.04 10 2 10 C1.34 6.7 0.68 3.4 0 0 Z " fill="#EFE7C6" transform="translate(60,117)"/>
<path d="M0 0 C0.33 0.99 0.66 1.98 1 3 C-0.688 5.688 -0.688 5.688 -3 8 C-4.32 8 -5.64 8 -7 8 C-5.509 4.205 -3.243 2.39 0 0 Z " fill="#8EB628" transform="translate(135,105)"/>
<path d="M0 0 C0.33 0.66 0.66 1.32 1 2 C1.99 2.33 2.98 2.66 4 3 C3.34 4.32 2.68 5.64 2 7 C1.67 6.01 1.34 5.02 1 4 C0.01 5.98 -0.98 7.96 -2 10 C-2.66 8.68 -3.32 7.36 -4 6 C-2.68 4.02 -1.36 2.04 0 0 Z " fill="#89B029" transform="translate(40,29)"/>
<path d="M0 0 C2.913 1.457 3.092 3.362 4.188 6.375 C4.552 7.352 4.917 8.329 5.293 9.336 C6 12 6 12 5 15 C4 13 3 11 2 9 C1.608 8.319 1.216 7.639 0.812 6.938 C-0.196 4.532 -0.143 2.582 0 0 Z " fill="#81A619" transform="translate(45,85)"/>
<path d="M0 0 C0.66 0.99 1.32 1.98 2 3 C-0.64 5.31 -3.28 7.62 -6 10 C-6.66 9.01 -7.32 8.02 -8 7 C-7.237 6.588 -6.474 6.175 -5.688 5.75 C-3.063 4.041 -1.697 2.59 0 0 Z " fill="#E3E0B8" transform="translate(137,108)"/>
<path d="M0 0 C2 2 2 2 2.125 4.625 C2.084 5.409 2.043 6.192 2 7 C1.01 7.33 0.02 7.66 -1 8 C-1.66 8.66 -2.32 9.32 -3 10 C-2.886 8.52 -2.759 7.041 -2.625 5.562 C-2.555 4.739 -2.486 3.915 -2.414 3.066 C-2.277 2.384 -2.141 1.703 -2 1 C-1.34 0.67 -0.68 0.34 0 0 Z " fill="#9CBC31" transform="translate(47,78)"/>
<path d="M0 0 C3.96 0 7.92 0 12 0 C12 0.99 12 1.98 12 3 C4 3.154 4 3.154 1 2 C0.67 1.34 0.34 0.68 0 0 Z " fill="#D4CD95" transform="translate(101,128)"/>
<path d="M0 0 C3.817 1.555 6.192 4.036 9 7 C8.67 7.165 8.67 7.165 7 8 C5.827 7.049 4.662 6.089 3.5 5.125 C2.85 4.591 2.201 4.058 1.531 3.508 C1.026 3.01 0.521 2.513 0 2 C0 1.34 0 0.68 0 0 Z " fill="#749A16" transform="translate(110,37)"/>
<path d="M0 0 C2 2 2 2 2.125 5.625 C2.084 6.739 2.043 7.852 2 9 C-0.526 6.637 -1.888 5.335 -3 2 C-2.01 1.34 -1.02 0.68 0 0 Z " fill="#C7DE51" transform="translate(62,29)"/>
<path d="M0 0 C0.99 0.33 1.98 0.66 3 1 C3.33 2.98 3.66 4.96 4 7 C3.01 7 2.02 7 1 7 C0.67 4.69 0.34 2.38 0 0 Z " fill="#89A922" transform="translate(36,59)"/>
<path d="M0 0 C0.66 0.66 1.32 1.32 2 2 C1.625 4.125 1.625 4.125 1 6 C0.01 6 -0.98 6 -2 6 C-2.33 6.66 -2.66 7.32 -3 8 C-2.25 2.25 -2.25 2.25 0 0 Z " fill="#A2BD33" transform="translate(38,53)"/>
<path d="M0 0 C0 0.66 0 1.32 0 2 C-2.64 2.33 -5.28 2.66 -8 3 C-8 2.34 -8 1.68 -8 1 C-5.291 -0.354 -2.991 -0.065 0 0 Z " fill="#7EA634" transform="translate(59,14)"/>
<path d="M0 0 C0.66 0 1.32 0 2 0 C2 2.64 2 5.28 2 8 C1.67 7.01 1.34 6.02 1 5 C0.01 4.67 -0.98 4.34 -2 4 C-1.34 2.68 -0.68 1.36 0 0 Z " fill="#8FB727" transform="translate(124,111)"/>
<path d="M0 0 C0.99 0.33 1.98 0.66 3 1 C2.67 2.32 2.34 3.64 2 5 C1.01 5 0.02 5 -1 5 C-0.67 3.35 -0.34 1.7 0 0 Z " fill="#CADD59" transform="translate(71,80)"/>
<path d="M0 0 C0.66 0 1.32 0 2 0 C3.354 2.709 3.065 5.009 3 8 C1.5 6.812 1.5 6.812 0 5 C-0.188 2.312 -0.188 2.312 0 0 Z " fill="#769F23" transform="translate(138,67)"/>
</svg>
