<?xml version="1.0" encoding="UTF-8"?>
<!-- Generator: visioncortex VTracer 0.6.12 -->
<svg version="1.1" xmlns="http://www.w3.org/2000/svg" width="164" height="142">
<path d="M0 0 C54.12 0 108.24 0 164 0 C164 46.86 164 93.72 164 142 C109.88 142 55.76 142 0 142 C0 95.14 0 48.28 0 0 Z " fill="#F8F1D5" transform="translate(0,0)"/>
<path d="M0 0 C54.12 0 108.24 0 164 0 C164 46.86 164 93.72 164 142 C109.88 142 55.76 142 0 142 C0 95.14 0 48.28 0 0 Z M14.742 23.574 C10.037 29.66 7.219 35.674 5 43 C4.644 43.944 4.288 44.887 3.922 45.859 C-0.058 59.416 4.07 74.699 10.25 86.875 C23.065 109.018 48.861 121.972 72.324 130.16 C86.413 133.379 100.678 131.722 112.984 124.168 C125.405 115.658 133.714 103.436 137.562 88.812 C139.906 73.745 137.364 60.57 129.172 47.633 C123.582 40.856 116.584 36.193 109.125 31.688 C108.21 31.13 107.295 30.572 106.353 29.998 C78.149 12.919 41.689 -7.149 14.742 23.574 Z " fill="#FCF7EB" transform="translate(0,0)"/>
<path d="M0 0 C0.873 -0.012 1.747 -0.024 2.646 -0.037 C27.512 -0.093 59.949 19.165 77.523 36.074 C87.403 47.744 90.631 61.037 89.571 76.03 C87.867 90.24 79.935 103.875 69.102 113.062 C56.144 122.791 43.099 124.745 27.312 123.188 C22.957 122.415 19.318 121.041 15.312 119.188 C14.963 119.034 14.963 119.034 13.197 118.26 C-9.347 108.372 -31.605 95.655 -41.621 72.02 C-47.568 56.226 -47.503 41.545 -40.688 26.188 C-32.496 10.048 -18.157 0.013 0 0 Z M11.57 42.555 C2.121 53.574 -2.111 67.26 -1.965 81.645 C-1.01 93.842 4.531 105.363 13.461 113.723 C23.105 121.352 35.449 122.535 47.312 121.188 C55.355 119.217 62.177 115.721 68.312 110.188 C68.989 109.591 69.666 108.994 70.363 108.379 C79.819 99.529 86.397 87.237 87.312 74.188 C87.376 73.317 87.439 72.447 87.504 71.551 C88.077 57.4 83.001 46.234 73.625 35.938 C65.007 27.619 54.649 25.774 43.137 25.977 C30.219 26.689 20.313 33.373 11.57 42.555 Z " fill="#72AB4A" transform="translate(48.6875,7.8125)"/>
<path d="M0 0 C3.43 2.593 5.974 5.524 8.562 8.938 C8.872 9.319 8.872 9.319 10.438 11.25 C13.167 17.77 11.898 23.782 9.375 30.188 C5.964 37.598 2.675 42.183 -5.09 45.32 C-9.814 46.562 -13.857 45.464 -18.438 43.938 C-19.201 44.185 -19.964 44.433 -20.75 44.688 C-23.438 44.938 -23.438 44.938 -26.688 42.75 C-30.335 39.02 -30.335 39.02 -30.438 35.938 C-30.108 34.947 -29.778 33.958 -29.438 32.938 C-30.427 32.608 -31.418 32.278 -32.438 31.938 C-34.999 27.967 -34.612 24.003 -34.043 19.496 C-33.059 15.337 -31.003 12.3 -28.438 8.938 C-28.043 8.381 -27.649 7.824 -27.242 7.25 C-20.327 -1.909 -10.672 -3.299 0 0 Z " fill="#F5E6B9" transform="translate(103.4375,59.0625)"/>
<path d="M0 0 C1.65 0 3.3 0 5 0 C5 46.86 5 93.72 5 142 C-49.12 142 -103.24 142 -159 142 C-158.67 141.01 -158.34 140.02 -158 139 C-157.209 139.004 -156.418 139.007 -155.603 139.011 C-136.375 139.099 -117.147 139.166 -97.918 139.207 C-88.619 139.228 -79.321 139.256 -70.022 139.302 C-61.919 139.342 -53.816 139.367 -45.713 139.376 C-41.421 139.382 -37.129 139.394 -32.837 139.423 C-28.8 139.45 -24.763 139.458 -20.725 139.452 C-19.241 139.454 -17.757 139.462 -16.273 139.477 C-14.251 139.497 -12.229 139.49 -10.207 139.481 C-9.074 139.485 -7.941 139.488 -6.774 139.492 C-4 139 -4 139 -2.137 137.32 C-0.753 134.495 -0.616 132.539 -0.601 129.394 C-0.589 128.252 -0.576 127.111 -0.563 125.935 C-0.565 124.687 -0.566 123.439 -0.568 122.153 C-0.557 120.836 -0.547 119.519 -0.537 118.161 C-0.509 114.552 -0.5 110.943 -0.494 107.334 C-0.485 103.561 -0.458 99.788 -0.434 96.015 C-0.39 88.872 -0.362 81.729 -0.339 74.585 C-0.312 66.452 -0.268 58.319 -0.222 50.186 C-0.129 33.458 -0.058 16.729 0 0 Z " fill="#FDFDFC" transform="translate(159,0)"/>
<path d="M0 0 C10.508 8.407 15.888 17.091 18.812 30.25 C20.15 43.572 16.637 58.306 8.5 69.062 C7.293 70.477 6.063 71.874 4.812 73.25 C4.217 73.949 3.621 74.647 3.008 75.367 C-4.076 83.156 -14.575 88.747 -25.141 89.551 C-26.573 89.57 -28.005 89.574 -29.438 89.562 C-30.189 89.557 -30.94 89.551 -31.715 89.545 C-42.731 89.306 -50.254 86.11 -58.098 78.363 C-67.145 68.586 -70.845 56.768 -70.469 43.508 C-69.181 28.588 -62.748 16.661 -52.188 6.25 C-51.611 5.663 -51.035 5.077 -50.441 4.473 C-36.529 -8.639 -16.048 -8.811 0 0 Z M-30.188 -2.75 C-30.188 -2.09 -30.188 -1.43 -30.188 -0.75 C-31.116 -0.75 -32.044 -0.75 -33 -0.75 C-42.378 0.614 -51.358 10.282 -57.188 17.25 C-64.127 26.977 -68.612 40.622 -66.793 52.598 C-64.061 64.565 -59.546 74.169 -49.188 81.25 C-38.54 86.986 -27.776 87.705 -16.188 84.25 C-10.733 82 -5.465 79.385 -1.188 75.25 C-1.188 74.59 -1.188 73.93 -1.188 73.25 C-0.588 72.988 0.011 72.727 0.629 72.457 C8.307 68.213 11.43 58.14 13.812 50.25 C16.251 36.626 16.102 23.724 8.238 11.879 C4.224 6.929 -0.687 3.405 -6.188 0.25 C-7.076 -0.297 -7.964 -0.843 -8.879 -1.406 C-13.231 -3.174 -16.921 -3.082 -21.562 -2.938 C-22.394 -2.924 -23.225 -2.91 -24.082 -2.896 C-26.117 -2.861 -28.153 -2.808 -30.188 -2.75 Z " fill="#D9DEA1" transform="translate(117.1875,39.75)"/>
<path d="M0 0 C20.726 1.196 49.496 19.729 64.211 33.887 C74.09 45.556 77.318 58.849 76.259 73.842 C74.554 88.053 66.622 101.688 55.789 110.875 C42.832 120.603 29.787 122.557 14 121 C9.645 120.228 6.006 118.853 2 117 C1.651 116.847 1.651 116.847 -0.115 116.072 C-23.418 105.852 -44.156 93.227 -55.25 69.445 C-56.063 66.794 -55.954 65.563 -55 63 C-55 63.66 -55 64.32 -55 65 C-54.34 65 -53.68 65 -53 65 C-52.781 65.545 -52.562 66.091 -52.336 66.652 C-44.134 86.158 -29.561 98.819 -10.688 107.625 C-7 109 -7 109 -4 109 C-4.66 107.68 -5.32 106.36 -6 105 C-5.515 105.443 -5.515 105.443 -3.062 107.688 C7.307 116.549 18.461 119.06 31.864 118.243 C40.671 117.242 48.5 112.838 55 107 C55.603 106.477 56.207 105.953 56.828 105.414 C65.971 96.947 72.126 84.46 73 72 C73.063 71.13 73.126 70.26 73.191 69.363 C73.667 57.615 70.425 47.147 63 38 C62.743 37.682 62.743 37.682 61.445 36.07 C56.817 30.911 51.383 28.481 45 26 C43.989 25.587 42.979 25.175 41.938 24.75 C38.409 23.849 35.001 23.664 31.367 23.539 C28.242 22.827 27.178 21.311 25 19 C23.18 17.84 21.322 16.739 19.438 15.688 C13.497 12.312 7.734 8.713 2 5 C5.766 3.745 7.372 4.629 11 6 C11 5.34 11 4.68 11 4 C7.37 3.01 3.74 2.02 0 1 C0 0.67 0 0.34 0 0 Z " fill="#5B933F" transform="translate(62,10)"/>
<path d="M0 0 C0.598 0.206 1.196 0.412 1.812 0.625 C1.688 2.5 1.688 2.5 0.812 4.625 C-2.25 5.875 -2.25 5.875 -5.188 6.625 C-2.547 7.945 0.093 9.265 2.812 10.625 C2.483 12.275 2.153 13.925 1.812 15.625 C0.823 15.79 0.823 15.79 -4.188 16.625 C-3.858 18.935 -3.528 21.245 -3.188 23.625 C-5 24.312 -5 24.312 -7.188 24.625 C-8.875 23.562 -8.875 23.562 -10.188 21.625 C-10.875 18.437 -10.875 18.437 -11.188 15.625 C-11.847 15.625 -12.507 15.625 -13.188 15.625 C-12.858 16.45 -12.528 17.275 -12.188 18.125 C-10.996 22.294 -10.904 25.301 -11.188 29.625 C-11.847 30.615 -12.507 31.605 -13.188 32.625 C-16.657 32.167 -19.861 31.734 -23.188 30.625 C-23.951 30.873 -24.714 31.12 -25.5 31.375 C-28.188 31.625 -28.188 31.625 -31.438 29.438 C-34.188 26.625 -34.188 26.625 -35.25 24.625 C-35.159 21.716 -33.817 19.972 -32.188 17.625 C-32.703 17.233 -33.219 16.841 -33.75 16.438 C-35.188 14.625 -35.188 14.625 -34.938 12 C-34.188 9.625 -34.188 9.625 -33.188 8.625 C-31.435 8.663 -29.684 8.781 -27.938 8.938 C-26.984 9.016 -26.03 9.095 -25.047 9.176 C-22.172 9.627 -19.836 10.441 -17.188 11.625 C-17.188 12.285 -17.188 12.945 -17.188 13.625 C-16.28 13.419 -15.373 13.213 -14.438 13 C-11.077 12.612 -9.947 12.821 -7.188 14.625 C-7.868 14.047 -8.549 13.47 -9.25 12.875 C-11.188 10.625 -11.188 10.625 -11.25 8.688 C-9.229 4.764 -4.75 -0.814 0 0 Z " fill="#F3E2B2" transform="translate(108.1875,72.375)"/>
<path d="M0 0 C0.99 0 1.98 0 3 0 C4 5.75 4 5.75 4 8 C4.578 7.175 5.155 6.35 5.75 5.5 C6.493 4.675 7.235 3.85 8 3 C9.32 3 10.64 3 12 3 C11.858 8.678 9.313 11.333 5.594 15.266 C4 17 4 17 3 19 C1.68 18.34 0.36 17.68 -1 17 C-1 16.34 -1 15.68 -1 15 C-1.66 15 -2.32 15 -3 15 C-3 16.32 -3 17.64 -3 19 C-3.66 19 -4.32 19 -5 19 C-5 18.34 -5 17.68 -5 17 C-5.66 17 -6.32 17 -7 17 C-7.33 16.34 -7.66 15.68 -8 15 C-8.392 15.516 -8.784 16.031 -9.188 16.562 C-11 18 -11 18 -13.562 17.938 C-16 17 -16 17 -17.312 14.938 C-17.539 14.298 -17.766 13.659 -18 13 C-16.188 11.938 -16.188 11.938 -14 11 C-13.01 11.33 -12.02 11.66 -11 12 C-11.041 10.886 -11.082 9.773 -11.125 8.625 C-11 5 -11 5 -9 3 C-4.444 3.556 -4.444 3.556 -3 5 C-2.783 4.588 -2.783 4.588 -1.688 2.5 C-1.131 1.675 -0.574 0.85 0 0 Z " fill="#F5E3B6" transform="translate(93,61)"/>
<path d="M0 0 C0.33 0.66 0.66 1.32 1 2 C1.66 2 2.32 2 3 2 C3.219 2.545 3.438 3.091 3.664 3.652 C11.866 23.158 26.439 35.819 45.312 44.625 C49 46 49 46 52 46 C51.34 44.68 50.68 43.36 50 42 C50.447 42.398 50.895 42.797 51.355 43.207 C54.141 45.648 56.713 47.835 59.938 49.688 C60.618 50.121 61.299 50.554 62 51 C62 51.99 62 52.98 62 54 C56.791 53.414 52.668 51.739 48 49.5 C47.255 49.144 46.51 48.788 45.743 48.421 C26.063 38.793 7.449 25.489 0 4 C0 2.68 0 1.36 0 0 Z " fill="#40712C" transform="translate(6,73)"/>
<path d="M0 0 C0.33 0.66 0.33 0.66 2 4 C-2.625 8.875 -2.625 8.875 -6 10 C-6.33 10.99 -6.66 11.98 -7 13 C-9.473 14.636 -12.044 15.995 -14.652 17.402 C-17 19 -17 19 -17.879 21.129 C-18.249 21.746 -18.619 22.364 -19 23 C-25.881 24.337 -32.823 24.222 -39.803 24.24 C-41.967 24.25 -44.13 24.281 -46.293 24.312 C-58.033 24.402 -68.847 22.897 -80 19 C-79.01 18.67 -78.02 18.34 -77 18 C-77.33 16.02 -77.66 14.04 -78 12 C-77.461 12.232 -76.922 12.464 -76.367 12.703 C-73.892 13.764 -71.415 14.82 -68.938 15.875 C-68.09 16.24 -67.242 16.605 -66.369 16.98 C-53.048 22.638 -37.892 25.004 -23.875 20 C-13.83 15.368 -6.203 9.145 0 0 Z " fill="#E1D5AD" transform="translate(128,108)"/>
<path d="M0 0 C6.553 3.734 12.962 7.471 19 12 C18.67 10.68 18.34 9.36 18 8 C18.66 8 19.32 8 20 8 C23.12 11.304 24 12.324 24 17 C25.32 17 26.64 17 28 17 C28.33 16.34 28.66 15.68 29 15 C29.66 15 30.32 15 31 15 C32.919 17.878 34.497 20.888 36 24 C36.165 24.33 36.165 24.33 37 26 C28.668 24.925 21.276 20.193 14.375 15.688 C13.663 15.24 12.952 14.792 12.219 14.33 C7.197 11.079 3.068 7.379 -1 3 C-0.67 2.01 -0.34 1.02 0 0 Z " fill="#5C973E" transform="translate(23,95)"/>
<path d="M0 0 C0.299 0.103 0.299 0.103 1.812 0.625 C1.688 2.5 1.688 2.5 0.812 4.625 C-2.25 5.875 -2.25 5.875 -5.188 6.625 C-2.547 7.945 0.093 9.265 2.812 10.625 C2.483 12.275 2.153 13.925 1.812 15.625 C-0.168 15.955 -2.148 16.285 -4.188 16.625 C-3.858 18.935 -3.528 21.245 -3.188 23.625 C-5 24.312 -5 24.312 -7.188 24.625 C-8.938 23.562 -8.938 23.562 -10.188 21.625 C-10.375 18.438 -10.375 18.438 -10.188 15.625 C-9.198 15.295 -8.207 14.965 -7.188 14.625 C-7.868 14.047 -8.549 13.47 -9.25 12.875 C-11.188 10.625 -11.188 10.625 -11.25 8.688 C-9.229 4.764 -4.75 -0.814 0 0 Z " fill="#F1DB9C" transform="translate(108.1875,72.375)"/>
<path d="M0 0 C2.258 1.756 2.898 2.567 3.562 5.375 C2.873 8.592 1.464 10.087 -1.145 12.051 C-4.586 13.811 -7.191 13.5 -11 13 C-13 11.875 -13 11.875 -14 10 C-14.519 6.514 -14.399 4.688 -12.625 1.625 C-8.677 -0.819 -4.529 -0.839 0 0 Z " fill="#C4DC8D" transform="translate(43,22)"/>
<path d="M0 0 C0 0.66 0 1.32 0 2 C-1.029 2.398 -2.057 2.797 -3.117 3.207 C-11.644 6.874 -20.37 14.34 -24 23 C-29.501 37.152 -30.021 49.028 -27 64 C-27.99 63.67 -28.98 63.34 -30 63 C-34.512 49.464 -32.665 35.764 -27 23 C-21.996 13.141 -12.146 0 0 0 Z " fill="#599143" transform="translate(35,11)"/>
<path d="M0 0 C0.33 0 0.66 0 1 0 C1.061 0.664 1.121 1.328 1.184 2.012 C2.016 10.782 2.016 10.782 3 15 C3.66 15 4.32 15 5 15 C5.219 15.773 5.438 16.547 5.664 17.344 C8.745 27.463 12.881 33.427 21 40 C21 40.66 21 41.32 21 42 C21.495 42.165 21.495 42.165 24 43 C24 43.66 24 44.32 24 45 C24.99 45 25.98 45 27 45 C27 45.66 27 46.32 27 47 C17.501 44.286 11.047 38.187 5.707 30.023 C0.553 20.426 -0.461 10.746 0 0 Z " fill="#D6DC9C" transform="translate(47,80)"/>
<path d="M0 0 C2.961 0.698 5.803 1.601 8.688 2.562 C16.387 4.862 22.891 4.261 30.641 2.438 C33.143 1.974 35.461 1.928 38 2 C38.165 2.33 38.165 2.33 39 4 C32.389 7.198 26.394 8.388 19.125 8.375 C18.762 8.376 18.762 8.376 16.928 8.379 C12.872 8.296 9.651 7.79 6 6 C6 5.34 6 4.68 6 4 C5.01 4 4.02 4 3 4 C1.312 2 1.312 2 0 0 Z " fill="#D8DC9F" transform="translate(68,121)"/>
<path d="M0 0 C-1.437 0.648 -2.874 1.293 -4.312 1.938 C-4.713 2.117 -4.713 2.117 -6.738 3.027 C-11.333 5.003 -15.469 5.347 -20.406 5.719 C-23 6 -23 6 -26 7 C-29.641 7.234 -33.289 7.19 -36.938 7.188 C-37.455 7.188 -37.455 7.188 -40.076 7.189 C-47.246 7.14 -54.007 6.684 -61 5 C-57.27 3.8 -53.778 3.933 -49.883 4.008 C-48.456 4.025 -47.029 4.042 -45.602 4.059 C-43.379 4.089 -41.158 4.124 -38.936 4.171 C-27.291 4.405 -17.032 3.169 -5.812 -0.25 C-3 -1 -3 -1 0 0 Z " fill="#F3E5C8" transform="translate(126,127)"/>
<path d="M0 0 C0.597 0.217 1.194 0.433 1.809 0.656 C7.875 2.603 13.486 3.302 19.812 3.312 C20.529 3.318 21.246 3.323 21.984 3.328 C26.373 3.271 29.896 2.49 34 1 C36.375 1.375 36.375 1.375 38 2 C31.551 6.12 26.364 6.208 18.875 6.25 C18.425 6.26 18.425 6.26 16.148 6.312 C9.629 6.35 4.129 5.198 -2 3 C-1.34 2.67 -0.68 2.34 0 2 C0 1.34 0 0.68 0 0 Z " fill="#649848" transform="translate(68,125)"/>
<path d="M0 0 C5.94 0 11.88 0 18 0 C18 1.32 18 2.64 18 4 C17.094 3.977 16.188 3.954 15.254 3.93 C5.722 3.788 -2.051 4.787 -11 8 C-10.036 5.591 -9.348 4.24 -7.188 2.75 C-4.677 1.889 -2.637 1.854 0 2 C0 1.34 0 0.68 0 0 Z " fill="#EBE9BA" transform="translate(87,37)"/>
<path d="M0 0 C0.33 0.66 0.66 1.32 1 2 C1.66 2 2.32 2 3 2 C3.219 2.545 3.438 3.091 3.664 3.652 C7.465 12.692 13.053 20.261 19 28 C18.01 28.33 17.02 28.66 16 29 C10.599 23.829 6.821 18.33 3.5 11.688 C3.15 10.994 2.8 10.3 2.439 9.586 C0.751 6.087 0 3.95 0 0 Z " fill="#467E34" transform="translate(6,73)"/>
<path d="M0 0 C-5.605 5.78 -11.656 11.043 -18 16 C-19 13 -19 13 -18 10.75 C-11.539 1.866 -11.539 1.866 -6.949 0.301 C-4.611 -0.06 -2.362 -0.066 0 0 Z " fill="#E3E3AC" transform="translate(78,41)"/>
<path d="M0 0 C2.741 8.909 2.661 17.864 1 27 C0.67 26.01 0.34 25.02 0 24 C-0.66 24 -1.32 24 -2 24 C-2.33 16.41 -2.66 8.82 -3 1 C-1 0 -1 0 0 0 Z " fill="#CFD89B" transform="translate(134,62)"/>
<path d="M0 0 C2.062 -0.438 2.062 -0.438 5 0 C10.878 4.408 15.652 10.565 16.75 17.938 C16.791 18.443 16.791 18.443 17 21 C16.01 21 15.02 21 14 21 C13.89 20.68 13.89 20.68 13.336 19.059 C11.106 12.976 8.554 8.591 4 4 C3.216 3.196 2.433 2.391 1.625 1.562 C1.089 1.047 0.552 0.531 0 0 Z " fill="#DBE0A7" transform="translate(116,43)"/>
<path d="M0 0 C2.678 0.079 4.458 0.524 6.492 2.309 C11.694 8.144 16.217 15.331 18 23 C17.625 25.375 17.625 25.375 17 27 C16.34 26.67 15.68 26.34 15 26 C14.359 24.031 14.359 24.031 13.75 21.5 C11.309 12.902 5.866 6.564 0 0 Z " fill="#789F54" transform="translate(119,41)"/>
<path d="M0 0 C1.149 3.673 0.493 5.858 -0.512 9.543 C-2.32 18.644 -0.812 28.023 1 37 C0.01 36.67 -0.98 36.34 -2 36 C-5.916 24.252 -5.288 11.143 0 0 Z " fill="#548A41" transform="translate(7,38)"/>
<path d="M0 0 C0.33 0 0.66 0 1 0 C1.124 0.804 1.248 1.609 1.375 2.438 C1.478 2.86 1.478 2.86 2 5 C2.66 5.33 3.32 5.66 4 6 C4 4.02 4 2.04 4 0 C4.66 0.33 5.32 0.66 6 1 C6.25 8.625 6.25 8.625 4 12 C-2.875 11.125 -2.875 11.125 -4 10 C-4.041 8.334 -4.043 6.666 -4 5 C-3.34 4.67 -2.68 4.34 -2 4 C-0.875 1.938 -0.875 1.938 0 0 Z " fill="#F0DAA2" transform="translate(91,93)"/>
<path d="M0 0 C0.66 1.32 1.32 2.64 2 4 C-2.625 8.875 -2.625 8.875 -6 10 C-6.33 10.99 -6.66 11.98 -7 13 C-9.473 14.636 -12.044 15.995 -14.652 17.402 C-17.138 19.094 -17.952 20.228 -19 23 C-20.32 22.67 -21.64 22.34 -23 22 C-23 21.01 -23 20.02 -23 19 C-22.383 18.732 -21.765 18.464 -21.129 18.188 C-12.24 14.075 -4.933 8.579 0 0 Z " fill="#E1DCB1" transform="translate(128,108)"/>
<path d="M0 0 C1.356 4.068 0.951 7.075 -0.961 10.945 C-1.936 12.653 -2.964 14.329 -4 16 C-4.66 16 -5.32 16 -6 16 C-6.33 16.99 -6.66 17.98 -7 19 C-7.66 19 -8.32 19 -9 19 C-8.4 15.272 -7.338 12.297 -5.625 8.938 C-5.205 8.101 -4.785 7.264 -4.352 6.402 C-3.058 4.103 -1.633 2.068 0 0 Z " fill="#E1E1A9" transform="translate(59,52)"/>
<path d="M0 0 C0.66 0 1.32 0 2 0 C1.592 5.205 0.864 8.357 -3 12 C-4.32 12 -5.64 12 -7 12 C-7.312 9.812 -7.312 9.812 -7 7 C-4.625 4.312 -4.625 4.312 -2 2 C-1.34 1.34 -0.68 0.68 0 0 Z " fill="#E8C776" transform="translate(86,87)"/>
<path d="M0 0 C1.203 3.608 0.644 4.791 -0.438 8.375 C-3.226 19.105 -2.551 27.927 1.223 38.32 C2 41 2 41 1 44 C0.351 42.418 -0.294 40.834 -0.938 39.25 C-1.297 38.368 -1.657 37.487 -2.027 36.578 C-3 34 -3 34 -3.504 31.797 C-4 30 -4 30 -6 28 C-5.34 28 -4.68 28 -4 28 C-4.035 26.961 -4.07 25.922 -4.105 24.852 C-4.311 15.968 -4.064 8.128 0 0 Z " fill="#5B9538" transform="translate(50,65)"/>
<path d="M0 0 C0.66 0.99 1.32 1.98 2 3 C-9.234 13.578 -9.234 13.578 -15 16 C-17.195 15.082 -17.195 15.082 -19 14 C-18.383 13.743 -17.765 13.487 -17.129 13.223 C-10.013 10.006 -5.206 5.772 0 0 Z " fill="#6D9D49" transform="translate(123,111)"/>
<path d="M0 0 C2.5 0.25 2.5 0.25 4.5 2.25 C4.125 4.375 4.125 4.375 3.5 6.25 C1.19 6.58 -1.12 6.91 -3.5 7.25 C-4.125 4.875 -4.125 4.875 -4.5 2.25 C-2.5 0.25 -2.5 0.25 0 0 Z " fill="#E9CB82" transform="translate(77.5,80.75)"/>
<path d="M0 0 C-0.432 4.752 -1.328 6.92 -5 10 C-5.99 9.67 -6.98 9.34 -8 9 C-7.396 3.566 -7.396 3.566 -5.688 1.125 C-4 0 -4 0 0 0 Z " fill="#E5C573" transform="translate(105,64)"/>
<path d="M0 0 C2.625 0.375 2.625 0.375 5 1 C5 3.64 5 6.28 5 9 C3.35 8.67 1.7 8.34 0 8 C-0.66 6.02 -1.32 4.04 -2 2 C-1.34 1.34 -0.68 0.68 0 0 Z " fill="#EAC97E" transform="translate(84,64)"/>
<path d="M0 0 C2.938 1.25 2.938 1.25 6 3 C6.165 3.681 6.33 4.361 6.5 5.062 C6.665 5.702 6.83 6.341 7 7 C10.062 8.25 10.062 8.25 13 9 C9.282 10.239 7.561 9.57 3.812 8.562 C3.269 8.419 3.269 8.419 0.52 7.691 C0.104 7.577 0.104 7.577 -2 7 C-1.01 6.67 -0.02 6.34 1 6 C0.67 4.02 0.34 2.04 0 0 Z " fill="#E6DBB5" transform="translate(50,120)"/>
<path d="M0 0 C2.915 1.074 4.778 1.778 7 4 C6.625 6.625 6.625 6.625 6 9 C3.133 8.427 2.139 8.139 0 6 C-0.125 2.875 -0.125 2.875 0 0 Z " fill="#E1B960" transform="translate(98,88)"/>
<path d="M0 0 C-1 3 -1 3 -3 4.625 C-6.955 6.438 -10.693 6.728 -15 7 C-12.739 4.471 -10.601 3.161 -7.5 1.812 C-6.727 1.468 -5.953 1.124 -5.156 0.77 C-3 0 -3 0 0 0 Z " fill="#CCDA94" transform="translate(86,35)"/>
<path d="M0 0 C0.66 0 1.32 0 2 0 C3.75 2.188 3.75 2.188 5 5 C4.188 7.812 4.188 7.812 3 10 C2.34 10 1.68 10 1 10 C1 9.34 1 8.68 1 8 C0.01 7.67 -0.98 7.34 -2 7 C-2.33 6.01 -2.66 5.02 -3 4 C-2.01 4 -1.02 4 0 4 C0 2.68 0 1.36 0 0 Z " fill="#FBF1D0" transform="translate(90,76)"/>
<path d="M0 0 C1.98 0.66 3.96 1.32 6 2 C5.67 3.65 5.34 5.3 5 7 C2.625 6.75 2.625 6.75 0 6 C-1.312 3.938 -1.312 3.938 -2 2 C-1.34 1.34 -0.68 0.68 0 0 Z " fill="#E5C273" transform="translate(77,72)"/>
<path d="M0 0 C0.99 0 1.98 0 3 0 C4.231 5.415 4.231 5.415 3.062 8.375 C2.712 8.911 2.361 9.448 2 10 C1.34 10 0.68 10 0 10 C-1.491 7.018 -1.119 4.284 -1 1 C-0.67 0.67 -0.34 0.34 0 0 Z " fill="#E7C778" transform="translate(93,61)"/>
<path d="M0 0 C0.33 0.99 0.66 1.98 1 3 C1.66 3 2.32 3 3 3 C3.454 3.619 3.907 4.237 4.375 4.875 C6.103 7.134 7.408 7.928 10 9 C9.01 9 8.02 9 7 9 C6.67 9.99 6.34 10.98 6 12 C3.219 10.98 2.182 10.336 0.75 7.688 C-0.005 4.982 -0.16 2.793 0 0 Z " fill="#F6E9C5" transform="translate(69,81)"/>
<path d="M0 0 C-0.33 0.66 -0.66 1.32 -1 2 C-4 3 -5.974 3.116 -9.105 3.098 C-10.088 3.094 -11.071 3.091 -12.084 3.088 C-13.108 3.08 -14.132 3.071 -15.188 3.062 C-16.223 3.058 -17.259 3.053 -18.326 3.049 C-20.884 3.037 -23.442 3.021 -26 3 C-26 2.67 -26 2.34 -26 2 C-24.842 1.951 -23.685 1.902 -22.492 1.852 C-20.953 1.776 -19.414 1.701 -17.875 1.625 C-17.495 1.61 -17.495 1.61 -15.57 1.531 C-10.355 1.261 -4.758 -1.586 0 0 Z " fill="#D1D19C" transform="translate(106,129)"/>
<path d="M0 0 C0.99 0.33 1.98 0.66 3 1 C4.261 4.784 3.912 7.141 3 11 C0.938 12.438 0.938 12.438 -1 13 C-0.463 9.623 0.111 6.303 1 3 C0.01 2.67 -0.98 2.34 -2 2 C-1.34 1.34 -0.68 0.68 0 0 Z " fill="#F6E6B6" transform="translate(88,83)"/>
<path d="M0 0 C0.598 0.206 1.196 0.412 1.812 0.625 C0.938 4.5 0.938 4.5 -0.188 5.625 C-1.854 5.666 -3.521 5.668 -5.188 5.625 C-5.188 4.305 -5.188 2.985 -5.188 1.625 C-2.188 -0.375 -2.188 -0.375 0 0 Z " fill="#E6C36C" transform="translate(108.1875,72.375)"/>
<path d="M0 0 C2.97 0 5.94 0 9 0 C9.33 1.32 9.66 2.64 10 4 C10.33 4.495 10.33 4.495 12 7 C7.25 6.125 7.25 6.125 5 5 C5 4.34 5 3.68 5 3 C3.35 2.67 1.7 2.34 0 2 C0 1.34 0 0.68 0 0 Z " fill="#69A346" transform="translate(48,114)"/>
<path d="M0 0 C0.33 0.99 0.66 1.98 1 3 C1.66 3 2.32 3 3 3 C2.67 5.97 2.34 8.94 2 12 C0.68 12.33 -0.64 12.66 -2 13 C-1.34 8.71 -0.68 4.42 0 0 Z " fill="#DFE1AC" transform="translate(131,83)"/>
<path d="M0 0 C0.429 0.101 0.429 0.101 2.598 0.613 C3.452 0.803 4.307 0.992 5.188 1.188 C7.524 1.885 9.524 2.761 11.66 3.926 C0.139 4.11 0.139 4.11 -5.34 2.926 C-3.584 0.652 -2.949 -0.094 0 0 Z " fill="#E8DCB3" transform="translate(68.33984375,128.07421875)"/>
<path d="M0 0 C0.33 0 0.66 0 1 0 C1.049 0.664 1.098 1.328 1.148 2.012 C1.778 9.444 1.778 9.444 3.125 12.812 C4.227 15.568 3.802 17.194 3 20 C-0.112 15.332 -0.118 11.824 -0.062 6.25 C-0.053 5.08 -0.044 3.909 -0.035 2.703 C-0.024 1.811 -0.012 0.919 0 0 Z " fill="#B9CF80" transform="translate(47,80)"/>
<path d="M0 0 C2.31 0.33 4.62 0.66 7 1 C6.67 1.66 6.34 2.32 6 3 C6.66 3.33 7.32 3.66 8 4 C7.67 5.32 7.34 6.64 7 8 C7 7.01 7 6.02 7 5 C6.01 5.33 5.02 5.66 4 6 C1.812 5.062 1.812 5.062 0 4 C0 2.68 0 1.36 0 0 Z " fill="#F5DFA7" transform="translate(81,82)"/>
<path d="M0 0 C2.31 0.33 4.62 0.66 7 1 C6.67 2.65 6.34 4.3 6 6 C4.35 6 2.7 6 1 6 C0.34 4.68 -0.32 3.36 -1 2 C-0.34 2 0.32 2 1 2 C1 2.66 1 3.32 1 4 C1.99 4 2.98 4 4 4 C4 3.34 4 2.68 4 2 C2.68 1.34 1.36 0.68 0 0 Z " fill="#E7C470" transform="translate(104,82)"/>
<path d="M0 0 C4.58 -0.467 7.249 -0.173 10.938 2.5 C11.948 3.325 12.959 4.15 14 5 C10.084 6.305 8.961 5.322 5.312 3.562 C4.319 3.089 3.325 2.616 2.301 2.129 C1.542 1.756 0.782 1.384 0 1 C0 0.67 0 0.34 0 0 Z " fill="#689745" transform="translate(107,35)"/>
<path d="M0 0 C2.972 1.125 5.334 2.223 8 4 C8 4.66 8 5.32 8 6 C8.99 6 9.98 6 11 6 C11 6.66 11 7.32 11 8 C3.348 5.565 3.348 5.565 1 4 C0.25 1.875 0.25 1.875 0 0 Z " fill="#CCD890" transform="translate(63,119)"/>
<path d="M0 0 C0.33 0 0.66 0 1 0 C1.33 1.65 1.66 3.3 2 5 C2.99 5 3.98 5 5 5 C4.67 6.32 4.34 7.64 4 9 C2.35 8.67 0.7 8.34 -1 8 C-1.042 5.667 -1.041 3.333 -1 1 C-0.67 0.67 -0.34 0.34 0 0 Z " fill="#E5C065" transform="translate(91,93)"/>
<path d="M0 0 C0.99 0.33 1.98 0.66 3 1 C-2.362 3.614 -7.034 5.492 -13 6 C-10.789 3.789 -9.443 3.35 -6.5 2.438 C-4.225 1.725 -2.133 1.066 0 0 Z " fill="#F7EDD8" transform="translate(123,126)"/>
<path d="M0 0 C1.27 3.809 0.521 5.816 -0.438 9.688 C-0.581 10.277 -0.581 10.277 -1.309 13.262 C-1.423 13.714 -1.423 13.714 -2 16 C-2.33 16 -2.66 16 -3 16 C-3.081 13.896 -3.139 11.792 -3.188 9.688 C-3.222 8.516 -3.257 7.344 -3.293 6.137 C-3 3 -3 3 -1.488 1.082 C-0.997 0.725 -0.506 0.368 0 0 Z " fill="#E4E3AF" transform="translate(53,68)"/>
<path d="M0 0 C1 3 1 3 1 7 C0.01 7 -0.98 7 -2 7 C-2.66 8.32 -3.32 9.64 -4 11 C-4.66 11 -5.32 11 -6 11 C-4.55 6.89 -2.489 3.567 0 0 Z " fill="#CEDC97" transform="translate(59,52)"/>
<path d="M0 0 C0.33 0.66 0.66 1.32 1 2 C1.66 2 2.32 2 3 2 C4.604 5.508 5.22 8.144 5 12 C2.266 9.639 1.089 7.435 0 4 C0 2.68 0 1.36 0 0 Z " fill="#417B2F" transform="translate(6,73)"/>
<path d="M0 0 C0.447 0.387 0.895 0.773 1.355 1.172 C4.852 4.184 8.374 7.143 12 10 C6.5 9.389 6.5 9.389 4.312 7.688 C3.879 7.131 3.446 6.574 3 6 C2.443 5.319 1.886 4.639 1.312 3.938 C0 2 0 2 0 0 Z " fill="#4D8530" transform="translate(56,115)"/>
<path d="M0 0 C0.66 1.32 1.32 2.64 2 4 C-0.808 6.964 -3.183 9.445 -7 11 C-5.221 6.956 -2.605 3.539 0 0 Z " fill="#ECE9CD" transform="translate(128,108)"/>
<path d="M0 0 C-0.125 1.75 -0.125 1.75 -1 4 C-4.175 6.399 -7.439 8.254 -11 10 C-10.064 8.894 -9.126 7.791 -8.188 6.688 C-7.665 6.073 -7.143 5.458 -6.605 4.824 C-2.36 0 -2.36 0 0 0 Z " fill="#D5E39F" transform="translate(71,42)"/>
<path d="M0 0 C2.062 0.438 2.062 0.438 4 1 C4 1.99 4 2.98 4 4 C2.35 4.33 0.7 4.66 -1 5 C-1 1 -1 1 0 0 Z " fill="#A8CF71" transform="translate(49,31)"/>
<path d="M0 0 C0.66 0.99 1.32 1.98 2 3 C1.01 3.825 1.01 3.825 -4 8 C-4.66 7.34 -5.32 6.68 -6 6 C-4.02 4.02 -2.04 2.04 0 0 Z " fill="#78A456" transform="translate(123,111)"/>
<path d="M0 0 C5.802 -0.363 9.64 0.743 15 3 C11.282 4.239 9.561 3.57 5.812 2.562 C4.726 2.275 3.639 1.988 2.52 1.691 C1.688 1.463 0.857 1.235 0 1 C0 0.67 0 0.34 0 0 Z " fill="#EDE2C5" transform="translate(48,126)"/>
<path d="M0 0 C1.65 0.33 3.3 0.66 5 1 C5 3.31 5 5.62 5 8 C4.67 8 4.34 8 4 8 C3.67 6.35 3.34 4.7 3 3 C2.01 2.67 1.02 2.34 0 2 C0 2.66 0 3.32 0 4 C-0.66 4 -1.32 4 -2 4 C-1.34 2.68 -0.68 1.36 0 0 Z " fill="#DFB75F" transform="translate(84,64)"/>
<path d="M0 0 C1.155 0.495 1.155 0.495 7 3 C7 3.33 7 3.66 7 4 C4.03 3.67 1.06 3.34 -2 3 C-1.34 2.67 -0.68 2.34 0 2 C0 1.34 0 0.68 0 0 Z " fill="#5C8B42" transform="translate(68,125)"/>
<path d="M0 0 C0.33 0.99 0.66 1.98 1 3 C1.99 3 2.98 3 4 3 C3.67 3.99 3.34 4.98 3 6 C1.68 6 0.36 6 -1 6 C-1.043 4.334 -1.041 2.666 -1 1 C-0.67 0.67 -0.34 0.34 0 0 Z " fill="#DDB14C" transform="translate(80,93)"/>
<path d="M0 0 C2.375 0.312 2.375 0.312 5 1 C5.66 1.99 6.32 2.98 7 4 C6.34 4.66 5.68 5.32 5 6 C3.35 4.02 1.7 2.04 0 0 Z " fill="#7DA357" transform="translate(119,41)"/>
<path d="M0 0 C1.98 0.99 3.96 1.98 6 3 C6 3.33 6 3.66 6 4 C3.03 3.67 0.06 3.34 -3 3 C-2.01 2.01 -1.02 1.02 0 0 Z " fill="#568C3C" transform="translate(107,31)"/>
<path d="M0 0 C0.66 0.33 1.32 0.66 2 1 C1.381 1.742 0.763 2.485 0.125 3.25 C-1.604 5.488 -2.861 7.437 -4 10 C-4.25 7.25 -4.25 7.25 -4 4 C-2 1.625 -2 1.625 0 0 Z " fill="#BBD984" transform="translate(33,22)"/>
<path d="M0 0 C1.32 1.65 2.64 3.3 4 5 C3.34 6.32 2.68 7.64 2 9 C0.502 5.629 0 3.796 0 0 Z " fill="#DFE2AA" transform="translate(54,105)"/>
<path d="M0 0 C0.66 0.66 1.32 1.32 2 2 C1.625 4.625 1.625 4.625 1 7 C0.01 7.33 -0.98 7.66 -2 8 C-1.477 5.237 -0.891 2.674 0 0 Z " fill="#D0DB97" transform="translate(52,63)"/>
<path d="M0 0 C1.5 1.062 1.5 1.062 3 3 C3.188 6.688 3.188 6.688 3 10 C0.704 6.555 0.46 4.062 0 0 Z " fill="#E0E1A6" transform="translate(48,85)"/>
<path d="M0 0 C0.99 0.33 1.98 0.66 3 1 C3.33 1.99 3.66 2.98 4 4 C3.67 4.66 3.34 5.32 3 6 C2.34 6 1.68 6 1 6 C1 5.01 1 4.02 1 3 C0.01 2.67 -0.98 2.34 -2 2 C-1.34 1.34 -0.68 0.68 0 0 Z " fill="#FAEBBF" transform="translate(88,83)"/>
<path d="M0 0 C0.99 1.32 1.98 2.64 3 4 C3.99 4.66 4.98 5.32 6 6 C4.68 6 3.36 6 2 6 C1.67 7.32 1.34 8.64 1 10 C0.67 6.7 0.34 3.4 0 0 Z " fill="#F1DBA2" transform="translate(82,68)"/>
<path d="M0 0 C0.33 0 0.66 0 1 0 C1 2.31 1 4.62 1 7 C0.01 7.33 -0.98 7.66 -2 8 C-2.125 5.125 -2.125 5.125 -2 2 C-1.34 1.34 -0.68 0.68 0 0 Z " fill="#F0DBA4" transform="translate(91,64)"/>
<path d="M0 0 C0.99 0.66 1.98 1.32 3 2 C1.75 3.562 1.75 3.562 0 5 C-2.188 4.688 -2.188 4.688 -4 4 C-2.68 2.68 -1.36 1.36 0 0 Z " fill="#629C4A" transform="translate(19,19)"/>
</svg>
