<?xml version="1.0" encoding="UTF-8"?>
<!-- Generator: visioncortex VTracer 0.6.12 -->
<svg version="1.1" xmlns="http://www.w3.org/2000/svg" width="164" height="185">
<path d="M0 0 C54.12 0 108.24 0 164 0 C164 61.05 164 122.1 164 185 C109.88 185 55.76 185 0 185 C0 123.95 0 62.9 0 0 Z " fill="#FDF7EC" transform="translate(0,0)"/>
<path d="M0 0 C6.173 2.977 10.003 7.967 13 14 C14.005 17.015 14.103 19.042 14.062 22.188 C14.053 23.089 14.044 23.99 14.035 24.918 C14.024 25.605 14.012 26.292 14 27 C14.443 27.041 14.443 27.041 16.688 27.25 C20 28 20 28 22.125 30 C25.404 32.281 26.778 32.273 30.688 32.438 C38.98 32.906 45.16 35.671 50.875 41.75 C56.753 48.544 58.674 56.021 58.438 64.812 C58.423 65.694 58.408 66.576 58.393 67.484 C58.195 74.355 57.163 80.464 55 87 C54.521 88.52 54.045 90.041 53.57 91.562 C52.786 94.07 51.996 96.575 51.188 99.076 C49.839 103.257 48.621 107.405 47.625 111.688 C44.804 122.229 39.645 134.202 30 140 C25.425 142.585 21.726 143.098 16.5 142.875 C11.431 142.699 8.69 143.809 4.656 146.809 C-0.112 150.239 -6.421 149.268 -12 149 C-16.621 148.242 -18.894 147.208 -22.062 143.938 C-25.507 140.695 -28.22 140.625 -32.875 140.5 C-40.896 140.245 -45.192 137.816 -50.773 132.223 C-52.284 130.539 -53.658 128.819 -55 127 C-55.557 126.257 -56.114 125.515 -56.688 124.75 C-64.043 109.339 -63.098 90.305 -63.286 73.618 C-63.312 71.67 -63.357 69.721 -63.403 67.773 C-63.475 56.141 -60.963 46.694 -53 38 C-48.119 33.156 -43.94 31.089 -37.125 30.688 C-31.707 30.26 -29.162 28.397 -25 25 C-21.423 23.808 -18.158 23.854 -14.438 23.875 C-13.752 23.871 -13.067 23.867 -12.361 23.863 C-7.253 23.873 -7.253 23.873 -5 25 C-5 23.35 -5 21.7 -5 20 C-5.629 19.969 -5.629 19.969 -8.812 19.812 C-11.986 19.402 -12.728 19.289 -15 16.875 C-16.266 13.237 -16.538 10.832 -16 7 C-12.01 0.394 -7.399 -1.217 0 0 Z " fill="#FAB804" transform="translate(91,22)"/>
<path d="M0 0 C3.542 0.329 5.487 0.517 8.125 3 C11.404 5.281 12.778 5.273 16.688 5.438 C24.98 5.906 31.16 8.671 36.875 14.75 C42.753 21.544 44.674 29.021 44.438 37.812 C44.423 38.694 44.408 39.576 44.393 40.484 C44.195 47.355 43.163 53.464 41 60 C40.521 61.52 40.045 63.041 39.57 64.562 C38.536 67.866 37.487 71.165 36.43 74.461 C34.794 79.599 33.338 84.777 32 90 C31.34 90 30.68 90 30 90 C29.878 90.387 29.878 90.387 29.258 92.344 C26.301 100.582 22.549 105.457 15 110 C14.34 110 13.68 110 13 110 C13 110.66 13 111.32 13 112 C10.005 112.872 7.364 113.108 4.25 113.062 C3.451 113.053 2.652 113.044 1.828 113.035 C1.225 113.024 0.622 113.012 0 113 C0 112.34 0 111.68 0 111 C0.66 111 1.32 111 2 111 C2.248 110.34 2.495 109.68 2.75 109 C4 106 4 106 5.812 102.688 C9.145 96.185 10.933 88.98 13 82 C12.67 81.67 12.34 81.34 12 81 C11.814 81.528 11.628 82.057 11.437 82.601 C1.956 109.389 1.956 109.389 -9.625 117.938 C-15.003 119.631 -20.408 119.224 -26 119 C-26.165 118.67 -26.165 118.67 -27 117 C-26.56 116.939 -26.56 116.939 -24.332 116.633 C-23.171 116.465 -22.009 116.298 -20.812 116.125 C-19.664 115.963 -18.515 115.8 -17.332 115.633 C-12.061 114.632 -8.744 113.174 -4.938 109.375 C-4.287 108.743 -3.636 108.112 -2.965 107.461 C2.367 100.783 4.747 92.486 7.464 84.501 C8.123 82.567 8.793 80.638 9.465 78.709 C12.622 69.508 15.315 61.232 15.125 51.438 C15.107 50.219 15.089 49.001 15.07 47.746 C15.047 46.84 15.024 45.934 15 45 C13.68 45 12.36 45 11 45 C10.937 45.923 10.874 46.846 10.809 47.797 C9.374 63.074 5.347 79.233 -5 91 C-5.492 91.599 -5.985 92.199 -6.492 92.816 C-11.532 98.47 -17.153 100.105 -24.5 100.562 C-29.471 100.39 -32.576 99.227 -36.344 95.984 C-39.308 92.432 -40.716 88.397 -42 84 C-42.176 83.412 -42.352 82.825 -42.533 82.219 C-43.577 77.26 -43.185 72.047 -43.188 67 C-43.2 65.831 -43.212 64.662 -43.225 63.457 C-43.262 41.172 -43.262 41.172 -36 33 C-30.803 28.278 -26.635 25.897 -19.562 25.75 C-18.821 25.724 -18.08 25.698 -17.316 25.672 C-15 26 -15 26 -12.859 27.535 C-8.501 29.768 -4.474 29.07 0.312 28.688 C0.778 28.657 0.778 28.657 3.135 28.502 C5.425 28.349 7.712 28.182 10 28 C7.062 22.719 3.802 19.934 -2 18 C-2.276 11.799 -1.229 6.068 0 0 Z " fill="#FDCB09" transform="translate(105,49)"/>
<path d="M0 0 C2.5 1.812 2.5 1.812 3.5 6.812 C-0.13 6.812 -3.76 6.812 -7.5 6.812 C-5.266 11.28 -5.266 11.28 -1.688 12.812 C1.803 14.415 4.591 16.267 7.5 18.812 C7.179 22.347 6.157 24.478 4.062 27.25 C-4.417 38.686 -1.624 56.263 -1.5 69.812 C-2.16 69.812 -2.82 69.812 -3.5 69.812 C-3.388 73.438 -3.258 77.063 -3.125 80.688 C-3.11 81.194 -3.11 81.194 -3.031 83.758 C-2.78 90.29 -2.001 96.449 -0.5 102.812 C-11.159 103.433 -11.159 103.433 -15.875 101.25 C-31.517 86.726 -31.773 67.534 -32.65 47.353 C-32.764 43.922 -32.831 40.495 -32.875 37.062 C-32.888 36.54 -32.888 36.54 -32.954 33.895 C-32.979 23.428 -30.656 14.074 -23.234 6.43 C-15.93 -0.381 -9.83 -3.335 0 0 Z " fill="#FCC507" transform="translate(62.5,56.1875)"/>
<path d="M0 0 C3.542 0.329 5.487 0.517 8.125 3 C11.404 5.281 12.778 5.273 16.688 5.438 C24.98 5.906 31.16 8.671 36.875 14.75 C42.753 21.544 44.674 29.021 44.438 37.812 C44.423 38.694 44.408 39.576 44.393 40.484 C44.195 47.355 43.163 53.464 41 60 C40.521 61.52 40.045 63.041 39.57 64.562 C38.536 67.866 37.487 71.165 36.43 74.461 C34.794 79.599 33.338 84.777 32 90 C31.34 90 30.68 90 30 90 C29.755 90.773 29.51 91.547 29.258 92.344 C26.301 100.582 22.549 105.457 15 110 C14.34 110 13.68 110 13 110 C13 110.66 13 111.32 13 112 C10.005 112.872 7.364 113.108 4.25 113.062 C3.451 113.053 2.652 113.044 1.828 113.035 C1.225 113.024 0.622 113.012 0 113 C0 112.34 0 111.68 0 111 C0.66 111 1.32 111 2 111 C2.248 110.34 2.495 109.68 2.75 109 C4 106 4 106 5.812 102.688 C7.926 98.517 9.384 94.19 10.812 89.75 C11.044 89.052 11.275 88.354 11.513 87.635 C13.124 82.467 13.124 82.467 12.478 80.035 C11.883 77.502 12.335 76.262 13.215 73.832 C13.49 73.029 13.764 72.226 14.047 71.399 C14.341 70.545 14.635 69.692 14.938 68.812 C17.112 62.046 18.607 55.754 18.625 48.625 C18.63 48.284 18.63 48.284 18.656 46.558 C18.52 41.656 17.049 38.771 14 35 C8.736 31.078 4.513 30.114 -2 31 C-3.011 31.412 -4.021 31.825 -5.062 32.25 C-8.885 33.226 -10.229 31.865 -13.5 29.961 C-18.7 27.962 -24.517 28.723 -30 29 C-26.938 25.938 -23.775 25.838 -19.562 25.75 C-18.821 25.724 -18.08 25.698 -17.316 25.672 C-15 26 -15 26 -12.859 27.535 C-8.501 29.768 -4.474 29.07 0.312 28.688 C0.778 28.657 0.778 28.657 3.135 28.502 C5.425 28.349 7.712 28.182 10 28 C7.062 22.719 3.802 19.934 -2 18 C-2.276 11.799 -1.229 6.068 0 0 Z " fill="#F9B503" transform="translate(105,49)"/>
<path d="M0 0 C54.12 0 108.24 0 164 0 C164 1.65 164 3.3 164 5 C163.682 5 163.682 5 162.074 4.997 C146.476 4.975 130.878 4.958 115.28 4.948 C107.736 4.943 100.193 4.936 92.649 4.925 C86.06 4.914 79.471 4.908 72.883 4.906 C69.406 4.905 65.93 4.902 62.454 4.894 C48.726 4.868 35.002 4.924 21.279 5.319 C20.73 5.33 20.73 5.33 17.953 5.386 C16.948 5.421 15.942 5.456 14.907 5.492 C14.467 5.504 14.467 5.504 12.243 5.569 C10 6 10 6 8.218 7.092 C6.34 10.034 6.614 12.577 6.601 16.042 C6.595 16.764 6.588 17.485 6.581 18.228 C6.562 20.651 6.565 23.074 6.568 25.497 C6.559 27.231 6.548 28.966 6.537 30.7 C6.509 35.415 6.5 40.129 6.494 44.844 C6.485 49.769 6.458 54.693 6.434 59.618 C6.39 68.946 6.362 78.275 6.339 87.603 C6.312 98.222 6.268 108.841 6.222 119.46 C6.129 141.307 6.058 163.153 6 185 C4.02 185 2.04 185 0 185 C0 123.95 0 62.9 0 0 Z " fill="#FEFDFC" transform="translate(0,0)"/>
<path d="M0 0 C6.173 2.977 10.003 7.967 13 14 C14.288 17.864 14.191 21.535 14.188 25.562 C14.188 26.369 14.189 27.175 14.189 28.005 C14.138 33.85 13.589 39.352 12 45 C12.746 45.106 13.493 45.211 14.262 45.32 C17.191 46.047 18.565 46.907 20.812 48.875 C21.417 49.388 22.022 49.901 22.645 50.43 C24 52 24 52 24 55 C20.642 56.679 16.884 56.512 13.188 56.75 C12.784 56.784 12.784 56.784 10.74 56.957 C5.766 57.275 3.196 56.934 -1 54 C-6.831 53.026 -12.413 54.375 -18 56 C-19.036 54.931 -20.053 53.844 -21.062 52.75 C-21.631 52.147 -22.199 51.543 -22.785 50.922 C-24 49 -24 49 -24.008 46.906 C-22.146 43.385 -18.399 42.946 -14.812 41.75 C-11.776 40.94 -9.131 40.662 -6 41 C-1.962 26.075 -1.962 26.075 -5 20 C-6.279 19.897 -7.558 19.794 -8.875 19.688 C-12.737 19.279 -12.737 19.279 -15 16.875 C-16.266 13.237 -16.538 10.832 -16 7 C-12.01 0.394 -7.399 -1.217 0 0 Z " fill="#4D8F13" transform="translate(91,22)"/>
<path d="M0 0 C3.542 0.329 5.487 0.517 8.125 3 C11.404 5.281 12.778 5.273 16.688 5.438 C24.98 5.906 31.16 8.671 36.875 14.75 C42.753 21.544 44.674 29.021 44.438 37.812 C44.423 38.694 44.408 39.576 44.393 40.484 C44.195 47.357 43.156 53.461 41 60 C40.521 61.555 40.045 63.111 39.57 64.668 C37.252 72.199 34.823 79.641 32 87 C31.67 87 31.34 87 31 87 C30.833 82.079 30.752 78.497 33 74 C33.66 74 34.32 74 35 74 C35.431 72.023 35.862 70.045 36.289 68.066 C36.821 65.771 37.409 63.489 38.023 61.215 C40.03 53.663 41.373 46.527 41.375 38.688 C41.376 38.332 41.376 38.332 41.379 36.533 C41.299 32.815 40.846 30.215 39 27 C38.897 25.866 38.794 24.731 38.688 23.562 C37.835 19.146 36.4 17.859 33 15 C32.134 14.258 31.267 13.515 30.375 12.75 C25.515 9.169 19.82 9.201 14 10 C11.635 11.442 10.655 12.717 9 15 C12.378 15.845 14.675 16.108 18 15 C18.66 15.99 19.32 16.98 20 18 C21.945 18.512 21.945 18.512 24.125 18.688 C25.404 18.791 26.683 18.894 28 19 C28 19.99 28 20.98 28 22 C27.01 22.165 27.01 22.165 22 23 C22 23.66 22 24.32 22 25 C21.175 25.474 20.35 25.949 19.5 26.438 C18.675 26.953 17.85 27.469 17 28 C17 28.99 17 29.98 17 31 C17 31.99 17 32.98 17 34 C17.969 35.685 18.97 37.352 20 39 C21.215 42.646 21.184 46.017 21.188 49.812 C21.2 50.512 21.212 51.211 21.225 51.932 C21.237 56.346 20.628 59.901 19 64 C18.67 64 18.34 64 18 64 C18.021 63.335 18.042 62.669 18.063 61.984 C18.147 58.948 18.199 55.912 18.25 52.875 C18.284 51.828 18.317 50.782 18.352 49.703 C18.431 43.457 18.267 39.703 14 35 C8.736 31.078 4.513 30.114 -2 31 C-3.011 31.412 -4.021 31.825 -5.062 32.25 C-8.885 33.226 -10.229 31.865 -13.5 29.961 C-18.7 27.962 -24.517 28.723 -30 29 C-26.938 25.938 -23.775 25.838 -19.562 25.75 C-18.821 25.724 -18.08 25.698 -17.316 25.672 C-15 26 -15 26 -12.859 27.535 C-8.501 29.768 -4.474 29.07 0.312 28.688 C0.778 28.657 0.778 28.657 3.135 28.502 C5.425 28.349 7.712 28.182 10 28 C7.062 22.719 3.802 19.934 -2 18 C-2.276 11.799 -1.229 6.068 0 0 Z " fill="#F9C007" transform="translate(105,49)"/>
<path d="M0 0 C0.33 0.66 0.66 1.32 1 2 C0.371 2.086 -0.258 2.173 -0.906 2.262 C-10.013 3.757 -16.516 7.305 -22.354 14.554 C-27.772 22.604 -28.611 31.812 -28.375 41.25 C-28.359 42.365 -28.343 43.479 -28.327 44.628 C-27.424 89.731 -27.424 89.731 -15.418 101.559 C-11.109 105.26 -8.459 106.147 -2.875 106.562 C-2.327 106.604 -2.327 106.604 0.445 106.816 C1.288 106.877 2.131 106.938 3 107 C2.786 106.407 2.571 105.814 2.35 105.204 C0.143 98.603 -0.377 92.8 -0.188 85.875 C-0.181 85.397 -0.181 85.397 -0.146 82.977 C-0.112 80.65 -0.063 78.326 0 76 C0.33 75.835 0.33 75.835 2 75 C2.04 75.68 2.079 76.36 2.12 77.06 C2.312 80.187 2.531 83.312 2.75 86.438 C2.812 87.507 2.874 88.576 2.938 89.678 C3.542 97.919 5.094 104.497 10.438 110.938 C17.052 116.261 24.924 115.825 33 115 C36.274 113.875 38.482 112.349 41 110 C41.516 109.562 42.031 109.123 42.562 108.672 C50.147 101.167 53.564 88.512 57.176 78.723 C58 77 58 77 60 76 C57.858 87.102 54.898 98.865 48 108 C47.34 108 46.68 108 46 108 C46 108.66 46 109.32 46 110 C50.29 109.67 54.58 109.34 59 109 C59 108.34 59 107.68 59 107 C60.971 105.625 62.977 104.298 65 103 C69.522 99.962 71.397 96.723 73.312 91.75 C73.444 91.425 73.444 91.425 74.111 89.781 C74.754 88.193 75.379 86.597 76 85 C77.53 89.589 75.535 92.553 73.641 96.852 C69.711 104.392 64.756 109.629 56.645 112.445 C52.92 113.227 49.399 112.984 45.617 112.812 C41.884 113.08 39.609 114.613 36.656 116.809 C31.888 120.239 25.579 119.268 20 119 C15.379 118.242 13.106 117.208 9.938 113.938 C6.493 110.695 3.78 110.625 -0.875 110.5 C-8.896 110.245 -13.192 107.816 -18.773 102.223 C-20.284 100.539 -21.658 98.819 -23 97 C-23.557 96.257 -24.114 95.515 -24.688 94.75 C-32.043 79.339 -31.098 60.305 -31.286 43.618 C-31.312 41.67 -31.357 39.721 -31.403 37.773 C-31.475 26.141 -28.963 16.694 -21 8 C-14.609 1.657 -8.679 0.64 0 0 Z " fill="#D9910A" transform="translate(59,52)"/>
<path d="M0 0 C5.612 2.01 10.722 6.083 14 11 C14.339 13.332 14.672 15.666 15 18 C15.333 18.57 15.665 19.14 16.008 19.727 C17.464 23.063 17.383 26.358 17.375 29.938 C17.374 30.315 17.374 30.315 17.37 32.225 C17.218 39.3 15.521 45.399 13 52 C12.618 53.071 12.237 54.142 11.844 55.246 C10.919 57.84 9.971 60.423 9 63 C8.34 63 7.68 63 7 63 C7.409 57.885 8.457 53.504 10.062 48.625 C12.348 40.989 14.701 28.403 11 21 C10.769 21.531 10.539 22.062 10.301 22.609 C8.221 27.114 6.453 30.44 2 33 C-1.784 32.664 -3.647 30.757 -6.25 28.125 C-6.956 27.426 -7.663 26.728 -8.391 26.008 C-10 24 -10 24 -10 21 C-8.188 18.312 -8.188 18.312 -6 16 C-5.01 16 -4.02 16 -3 16 C-3 15.34 -3 14.68 -3 14 C-1.02 13.34 0.96 12.68 3 12 C3 11.67 3 11.34 3 11 C0.982 10.837 -1.036 10.674 -3.055 10.512 C-5 10 -5 10 -7 7 C-7.454 7.103 -7.454 7.103 -9.75 7.625 C-13.11 8.013 -14.241 7.804 -17 6 C-11.926 -0.597 -8.149 -0.823 0 0 Z " fill="#FBC80D" transform="translate(130,58)"/>
<path d="M0 0 C0.33 0 0.66 0 1 0 C1.81 14.365 1.81 14.365 -2 19 C-5.29 20.288 -8.382 20.929 -11.871 21.465 C-14.683 21.946 -16.566 22.57 -19 24 C-18.495 28.379 -15.822 30.817 -13 34 C-13.371 34.34 -13.371 34.34 -15.25 36.062 C-22.238 43.228 -23.386 51.499 -25 61 C-25.66 61 -26.32 61 -27 61 C-26.632 50.138 -24.105 42.841 -18 34 C-17.67 33.01 -17.34 32.02 -17 31 C-17.536 30.752 -18.073 30.505 -18.625 30.25 C-21.566 28.702 -24.244 26.856 -27 25 C-27.949 24.505 -28.898 24.01 -29.875 23.5 C-30.576 23.005 -31.278 22.51 -32 22 C-32 20.68 -32 19.36 -32 18 C-28.37 18.33 -24.74 18.66 -21 19 C-23 14 -23 14 -25.188 12.75 C-28.442 11.882 -31.657 11.393 -35 11 C-35 10.67 -35 10.34 -35 10 C-32.36 10 -29.72 10 -27 10 C-26.752 9.402 -26.505 8.804 -26.25 8.188 C-24.224 4.642 -21.82 3.273 -18 2 C-15.467 1.904 -12.969 1.861 -10.438 1.875 C-9.752 1.871 -9.067 1.867 -8.361 1.863 C-3.253 1.873 -3.253 1.873 -1 3 C-0.67 2.01 -0.34 1.02 0 0 Z " fill="#E29E02" transform="translate(87,44)"/>
<path d="M0 0 C4.649 6.974 3.577 17.631 2 25.562 C1.675 27.044 1.345 28.524 1 30 C1.746 30.106 2.493 30.211 3.262 30.32 C6.191 31.047 7.565 31.907 9.812 33.875 C10.417 34.388 11.022 34.901 11.645 35.43 C13 37 13 37 13 40 C8.055 41.484 2.988 41.126 -2 40 C-4.375 38 -4.375 38 -6 36 C-8.102 35.375 -8.102 35.375 -10 35 C-9.557 30.852 -9.093 26.707 -8.625 22.562 C-8.562 21.97 -8.562 21.97 -8.242 18.975 C-8.113 17.85 -7.984 16.725 -7.852 15.566 C-7.736 14.524 -7.621 13.482 -7.502 12.408 C-7.337 11.614 -7.171 10.819 -7 10 C-6.34 9.67 -5.68 9.34 -5 9 C-4.593 6.678 -4.256 4.343 -4 2 C-3.34 2.33 -2.68 2.66 -2 3 C-1.34 2.01 -0.68 1.02 0 0 Z " fill="#357707" transform="translate(102,37)"/>
<path d="M0 0 C3.264 0.556 4.351 1.541 6.938 3.5 C9.261 3.894 11.595 4.235 13.938 4.5 C14.938 5.5 14.938 5.5 15.438 8.75 C14.908 12.72 14.819 13.139 11.875 15.438 C7.425 18.185 3.546 18.035 -1.5 17 C-2.016 16.835 -2.531 16.67 -3.062 16.5 C-3.001 17.531 -2.939 18.562 -2.875 19.625 C-3.074 23.735 -4.007 25.989 -6.062 29.5 C-6.722 29.5 -7.382 29.5 -8.062 29.5 C-9.822 24.991 -10.581 21.337 -10.062 16.5 C-8.062 13.062 -8.062 13.062 -6.062 10.5 C-6.722 10.5 -7.382 10.5 -8.062 10.5 C-8.375 8.312 -8.375 8.312 -8.062 5.5 C-5.558 2.186 -4.148 0.677 0 0 Z " fill="#FDD524" transform="translate(78.0625,81.5)"/>
<path d="M0 0 C3.542 0.329 5.487 0.517 8.125 3 C11.404 5.281 12.778 5.273 16.688 5.438 C24.98 5.906 31.16 8.671 36.875 14.75 C42.753 21.544 44.674 29.021 44.438 37.812 C44.423 38.694 44.408 39.576 44.393 40.484 C44.195 47.357 43.156 53.461 41 60 C40.521 61.555 40.045 63.111 39.57 64.668 C37.252 72.199 34.823 79.641 32 87 C31.67 87 31.34 87 31 87 C30.833 82.079 30.752 78.497 33 74 C33.66 74 34.32 74 35 74 C35.431 72.023 35.862 70.045 36.289 68.066 C36.821 65.771 37.409 63.489 38.023 61.215 C40.03 53.663 41.373 46.527 41.375 38.688 C41.376 38.332 41.376 38.332 41.379 36.533 C41.299 32.815 40.846 30.215 39 27 C38.948 26.433 38.948 26.433 38.688 23.562 C37.835 19.146 36.4 17.859 33 15 C32.175 14.278 31.35 13.556 30.5 12.812 C24.524 8.48 18.193 7.895 11 9 C6.731 11.303 3.637 14.967 1 19 C0.01 18.67 -0.98 18.34 -2 18 C-2.276 11.799 -1.229 6.068 0 0 Z " fill="#DB8C13" transform="translate(105,49)"/>
<path d="M0 0 C2.974 3.611 3.32 6.411 3 11 C3.969 10.979 4.939 10.959 5.938 10.938 C9 11 9 11 10 12 C10.25 15.438 10.25 15.438 10 19 C6.471 21.353 5.157 21.408 1 21 C-2.375 19.5 -2.375 19.5 -5 18 C-5.66 21.63 -6.32 25.26 -7 29 C-7.99 29.33 -8.98 29.66 -10 30 C-13.76 24.36 -12.421 16.61 -11.375 10.125 C-8.919 4.542 -6.408 0 0 0 Z " fill="#FDD72C" transform="translate(47,66)"/>
<path d="M0 0 C0.165 0.66 0.165 0.66 1 4 C-4.791 9.759 -10.198 13.853 -18.617 14.066 C-20.335 14.023 -22.052 13.971 -23.77 13.91 C-26.816 14.033 -28.604 15.185 -31 17 C-31.99 17.33 -32.98 17.66 -34 18 C-30.019 19.327 -26.15 19.069 -22 19 C-22 19.33 -22 19.66 -22 20 C-28.517 21.248 -34.98 21.222 -41.587 21.24 C-43.758 21.25 -45.927 21.281 -48.098 21.312 C-49.477 21.319 -50.855 21.324 -52.234 21.328 C-53.484 21.337 -54.735 21.347 -56.022 21.356 C-57.005 21.239 -57.988 21.121 -59 21 C-59.66 20.01 -60.32 19.02 -61 18 C-63.526 17.505 -65.887 17.165 -68.438 16.938 C-75.624 16.251 -75.624 16.251 -79 14 C-79 12.68 -79 11.36 -79 10 C-79.598 9.876 -80.196 9.752 -80.812 9.625 C-83 9 -83 9 -86 7 C-85.67 6.01 -85.34 5.02 -85 4 C-84.567 4.32 -84.567 4.32 -82.375 5.938 C-78.586 8.172 -75.355 8.259 -71 8.375 C-65.136 8.617 -62.521 9.4 -58.484 13.566 C-54.063 17.837 -46.859 17.471 -41.074 17.398 C-36.89 16.856 -33.769 15.305 -30.156 13.191 C-26.663 11.261 -24.38 10.98 -20.375 11.188 C-14.325 11.233 -8.502 9.318 -4.031 5.176 C-2.59 3.501 -1.256 1.817 0 0 Z " fill="#EFDFBF" transform="translate(129,153)"/>
<path d="M0 0 C0.33 0.66 0.66 1.32 1 2 C0.371 2.086 -0.258 2.173 -0.906 2.262 C-10.013 3.757 -16.516 7.305 -22.354 14.554 C-27.772 22.604 -28.611 31.812 -28.375 41.25 C-28.359 42.365 -28.343 43.479 -28.327 44.628 C-27.424 89.731 -27.424 89.731 -15.418 101.559 C-10.402 105.867 -7.144 106.195 -0.727 106.523 C2.296 107.052 3.729 107.987 6 110 C-2.128 110.624 -8.501 110.983 -15.102 105.781 C-18.024 103.039 -20.621 100.226 -23 97 C-23.557 96.257 -24.114 95.515 -24.688 94.75 C-32.043 79.339 -31.098 60.305 -31.286 43.618 C-31.312 41.67 -31.357 39.721 -31.403 37.773 C-31.475 26.141 -28.963 16.694 -21 8 C-14.609 1.657 -8.679 0.64 0 0 Z " fill="#D7911D" transform="translate(59,52)"/>
<path d="M0 0 C4.587 2.428 8.135 5.676 11 10 C11 10.66 11 11.32 11 12 C10.34 12 9.68 12 9 12 C7.598 10.539 7.598 10.539 6.062 8.625 C4.08 6.161 2.693 4.795 0 3 C-2.48 2.805 -2.48 2.805 -5.188 2.875 C-5.638 2.884 -5.638 2.884 -7.918 2.93 C-8.262 2.941 -8.262 2.941 -10 3 C-10.33 3.99 -10.66 4.98 -11 6 C-11.66 6 -12.32 6 -13 6 C-13.021 7.279 -13.041 8.558 -13.062 9.875 C-13.074 10.594 -13.086 11.314 -13.098 12.055 C-13 14 -13 14 -12 16 C-10.886 16.124 -9.773 16.248 -8.625 16.375 C-5 17 -5 17 -3.293 18.547 C-1.496 21.956 -1.601 25.12 -1.688 28.875 C-1.686 29.222 -1.686 29.222 -1.678 30.98 C-1.734 36.398 -2.462 40.892 -5.688 45.312 C-8.722 47.527 -11.304 47.716 -15 48 C-13.68 47.01 -12.36 46.02 -11 45 C-15.219 44.804 -18.17 45.198 -22 47 C-19.093 51.228 -19.093 51.228 -17 53 C-13.188 53.375 -13.188 53.375 -10 53 C-12.649 54.419 -15.08 55.319 -18 56 C-19.036 54.931 -20.053 53.844 -21.062 52.75 C-21.631 52.147 -22.199 51.543 -22.785 50.922 C-24 49 -24 49 -24.008 46.906 C-22.146 43.385 -18.399 42.946 -14.812 41.75 C-11.776 40.94 -9.131 40.662 -6 41 C-1.962 26.075 -1.962 26.075 -5 20 C-6.279 19.897 -7.558 19.794 -8.875 19.688 C-12.737 19.279 -12.737 19.279 -15 16.875 C-16.266 13.237 -16.538 10.832 -16 7 C-12.026 0.421 -7.384 -1.258 0 0 Z " fill="#396404" transform="translate(91,22)"/>
<path d="M0 0 C0.66 0 1.32 0 2 0 C1.859 1.771 1.712 3.542 1.562 5.312 C1.481 6.299 1.4 7.285 1.316 8.301 C1 11 1 11 0 14 C0.949 14.082 1.898 14.165 2.875 14.25 C3.906 14.498 4.938 14.745 6 15 C6.66 16.32 7.32 17.64 8 19 C11.3 19 14.6 19 18 19 C18 19.33 18 19.66 18 20 C15.605 20.25 13.211 20.476 10.812 20.688 C10.139 20.76 9.465 20.833 8.771 20.908 C4.007 21.303 1.976 20.393 -2 18 C-5.429 17.895 -8.705 18.022 -12.117 18.293 C-16.185 18.47 -17.761 18.19 -21 15.617 C-23 13 -23 13 -23 11 C-18.706 7.511 -15.281 7.731 -10 8 C-11.32 8.99 -12.64 9.98 -14 11 C-11.84 13.16 -10.91 13.454 -8 14 C-7.34 14 -6.68 14 -6 14 C-6 12.68 -6 11.36 -6 10 C-5.34 10 -4.68 10 -4 10 C-3.711 9.093 -3.422 8.185 -3.125 7.25 C-2.235 4.678 -1.285 2.387 0 0 Z " fill="#4B8C0A" transform="translate(92,58)"/>
<path d="M0 0 C0.703 0.322 1.405 0.645 2.129 0.977 C2.129 2.957 2.129 4.937 2.129 6.977 C1.799 7.142 1.799 7.142 0.129 7.977 C-0.861 7.647 -1.851 7.317 -2.871 6.977 C-2.871 7.967 -2.871 8.957 -2.871 9.977 C-4.686 10.472 -4.686 10.472 -13.871 12.977 C-14.201 11.657 -14.531 10.337 -14.871 8.977 C-15.49 8.915 -16.109 8.853 -16.746 8.789 C-18.871 7.977 -18.871 7.977 -20.121 5.414 C-20.369 4.61 -20.616 3.805 -20.871 2.977 C-14.983 -2.257 -7.349 -2.62 0 0 Z " fill="#FAC008" transform="translate(84.87109375,49.0234375)"/>
<path d="M0 0 C0.33 0 0.66 0 1 0 C1.498 9.349 0.334 17.021 -2.625 25.875 C-2.989 27.005 -3.353 28.134 -3.728 29.298 C-14.182 61.307 -14.182 61.307 -27.824 70.188 C-30.857 71.32 -33.526 71.189 -36.75 71.125 C-37.92 71.107 -39.091 71.089 -40.297 71.07 C-41.189 71.047 -42.081 71.024 -43 71 C-43.33 70.34 -43.66 69.68 -44 69 C-43.12 68.879 -42.239 68.758 -41.332 68.633 C-40.171 68.465 -39.009 68.298 -37.812 68.125 C-36.664 67.963 -35.515 67.8 -34.332 67.633 C-29.061 66.632 -25.744 65.174 -21.938 61.375 C-21.287 60.743 -20.636 60.112 -19.965 59.461 C-14.668 52.827 -12.291 44.599 -9.591 36.666 C-8.943 34.765 -8.283 32.869 -7.623 30.973 C-4.136 20.814 -1.031 10.723 0 0 Z " fill="#FBC513" transform="translate(122,97)"/>
<path d="M0 0 C0.165 0.66 0.165 0.66 1 4 C-4.791 9.759 -10.198 13.853 -18.617 14.066 C-20.335 14.023 -22.052 13.971 -23.77 13.91 C-26.816 14.033 -28.604 15.185 -31 17 C-31.99 17.33 -32.98 17.66 -34 18 C-30.019 19.327 -26.15 19.069 -22 19 C-22 19.33 -22 19.66 -22 20 C-27.343 21.105 -32.509 21.149 -37.938 21.125 C-38.372 21.127 -38.372 21.127 -40.568 21.137 C-53.68 21.117 -53.68 21.117 -57.438 17.938 C-57.695 17.618 -57.695 17.618 -59 16 C-58.67 15.34 -58.34 14.68 -58 14 C-57.505 14.33 -57.505 14.33 -55 16 C-46.065 18.305 -38.144 17.864 -30.156 13.191 C-26.663 11.261 -24.38 10.98 -20.375 11.188 C-14.325 11.233 -8.502 9.318 -4.031 5.176 C-2.59 3.501 -1.256 1.817 0 0 Z " fill="#ECDBBB" transform="translate(129,153)"/>
<path d="M0 0 C4.649 6.974 3.577 17.631 2 25.562 C1.675 27.044 1.345 28.524 1 30 C1.746 30.106 2.493 30.211 3.262 30.32 C6.191 31.047 7.565 31.907 9.812 33.875 C10.115 34.132 10.115 34.132 11.645 35.43 C13 37 13 37 13 40 C8.207 41.392 3.849 40.687 -1 40 C0.32 39.34 1.64 38.68 3 38 C2.346 37.464 1.693 36.928 1.02 36.375 C-1.536 33.37 -1.453 31.886 -1.312 28 C-1.288 26.969 -1.264 25.938 -1.238 24.875 C-1 22 -1 22 -0.491 20.091 C0.03 17.874 0.114 15.946 0.098 13.672 C0.094 12.873 0.091 12.073 0.088 11.25 C0.08 10.425 0.071 9.6 0.062 8.75 C0.06 8.33 0.06 8.33 0.049 6.203 C0.037 4.135 0.019 2.068 0 0 Z " fill="#2F6105" transform="translate(102,37)"/>
<path d="M0 0 C0.741 -0.026 1.482 -0.052 2.246 -0.078 C4.562 0.25 4.562 0.25 6.734 1.785 C10.957 3.972 14.73 3.329 19.375 2.938 C19.817 2.907 19.817 2.907 22.053 2.752 C24.224 2.599 26.393 2.427 28.562 2.25 C28.562 2.91 28.562 3.57 28.562 4.25 C29.099 4.312 29.635 4.374 30.188 4.438 C33.572 5.595 36.29 7.516 38.562 10.25 C40.584 14.896 40.869 19.252 40.812 24.25 C40.816 24.593 40.816 24.593 40.836 26.328 C40.819 30.675 40.153 34.211 38.562 38.25 C38.233 38.25 37.903 38.25 37.562 38.25 C37.583 37.585 37.604 36.919 37.626 36.234 C37.71 33.198 37.761 30.162 37.812 27.125 C37.846 26.078 37.88 25.032 37.914 23.953 C37.993 17.707 37.83 13.953 33.562 9.25 C28.299 5.328 24.076 4.364 17.562 5.25 C16.552 5.662 15.541 6.075 14.5 6.5 C10.678 7.476 9.334 6.115 6.062 4.211 C0.862 2.212 -4.955 2.973 -10.438 3.25 C-7.375 0.188 -4.212 0.088 0 0 Z " fill="#E09C00" transform="translate(85.4375,74.75)"/>
<path d="M0 0 C2.5 1.812 2.5 1.812 3.156 4.426 C3.27 5.213 3.383 6.001 3.5 6.812 C1.082 6.698 -1.333 6.572 -3.75 6.438 C-4.091 6.422 -4.091 6.422 -5.816 6.344 C-9.487 6.13 -12.363 5.802 -15.5 3.812 C-17.81 5.462 -20.12 7.112 -22.5 8.812 C-22.5 7.823 -22.5 6.832 -22.5 5.812 C-15.519 -0.692 -9.393 -3.187 0 0 Z " fill="#FAC80E" transform="translate(62.5,56.1875)"/>
<path d="M0 0 C0.33 0.66 0.66 1.32 1 2 C0.371 2.086 -0.258 2.173 -0.906 2.262 C-9.938 3.744 -16.599 7.295 -22.395 14.496 C-30.606 27.302 -29.911 42.325 -30 57 C-30.33 57 -30.66 57 -31 57 C-31.1 52.929 -31.172 48.859 -31.22 44.787 C-31.24 43.407 -31.267 42.027 -31.302 40.647 C-31.617 27.897 -29.8 17.608 -21 8 C-14.609 1.657 -8.679 0.64 0 0 Z " fill="#DF9B1F" transform="translate(59,52)"/>
<path d="M0 0 C2.812 0.438 2.812 0.438 4.812 2.438 C5.25 5.312 5.25 5.312 4.812 8.438 C2.351 11.109 0.803 12.296 -2.812 12.812 C-5.188 12.438 -5.188 12.438 -8.188 10.438 C-8.688 8.125 -8.688 8.125 -8.188 5.438 C-5.624 2.045 -4.265 0.585 0 0 Z " fill="#FDEB85" transform="translate(78.1875,81.5625)"/>
<path d="M0 0 C3.85 -0.22 6.6 0.121 10 2 C11.562 4.25 11.562 4.25 13 7 C14.325 9.006 15.656 11.007 17 13 C16.093 13.619 15.185 14.237 14.25 14.875 C7.334 20.682 6.223 30.533 5 39 C4.34 39 3.68 39 3 39 C3.368 28.138 5.895 20.841 12 12 C12.33 11.01 12.66 10.02 13 9 C12.732 8.876 12.732 8.876 11.375 8.25 C9 7 9 7 5.938 4.938 C3 3 3 3 0 2 C0 1.34 0 0.68 0 0 Z " fill="#DC9A02" transform="translate(57,66)"/>
<path d="M0 0 C2.033 2.541 2.914 4.401 3.375 7.625 C3 10 3 10 1.875 11.812 C-0.86 13.545 -2.837 13.404 -6 13 C-8.327 9.509 -8.503 8.108 -8 4 C-5.325 0.369 -4.647 0 0 0 Z " fill="#FDEE8C" transform="translate(47,66)"/>
<path d="M0 0 C0.312 2.688 0.312 2.688 0 6 C-2.173 8.573 -3.98 10.49 -7 12 C-6.34 12.66 -5.68 13.32 -5 14 C-10.875 13.125 -10.875 13.125 -12 12 C-12.438 8.147 -12.306 6.459 -10.125 3.188 C-6.76 -0.276 -4.714 -0.102 0 0 Z " fill="#75AB21" transform="translate(89,24)"/>
<path d="M0 0 C0.675 0.3 1.351 0.601 2.047 0.91 C2.939 1.29 3.831 1.671 4.75 2.062 C5.191 2.254 5.191 2.254 7.422 3.223 C10.153 4.046 11.369 3.977 14 3 C14 3.99 14 4.98 14 6 C14.99 6 15.98 6 17 6 C17 6.66 17 7.32 17 8 C15.73 8.648 14.459 9.294 13.188 9.938 C12.48 10.297 11.772 10.657 11.043 11.027 C9 12 9 12 6 13 C4.796 11.503 3.591 10.005 2.387 8.508 C1 7 1 7 -2 5 C-1.34 3.35 -0.68 1.7 0 0 Z " fill="#F1AC00" transform="translate(109,63)"/>
<path d="M0 0 C0.33 0 0.66 0 1 0 C1.04 0.68 1.079 1.36 1.12 2.06 C1.312 5.187 1.531 8.312 1.75 11.438 C1.812 12.507 1.874 13.576 1.938 14.678 C2.443 21.565 3.744 26.916 7 33 C7.669 34.332 8.336 35.665 9 37 C8.01 37 7.02 37 6 37 C5.835 36.505 5.835 36.505 5 34 C1.04 34 -2.92 34 -7 34 C-7 33.67 -7 33.34 -7 33 C-4.36 32.67 -1.72 32.34 1 32 C0.858 31.406 0.716 30.813 0.569 30.201 C-0.874 23.701 -1.277 17.582 -1.188 10.938 C-1.187 9.989 -1.186 9.041 -1.186 8.064 C-1.141 1.141 -1.141 1.141 0 0 Z " fill="#E59901" transform="translate(60,127)"/>
<path d="M0 0 C0 0.33 0 0.66 0 1 C-0.701 0.942 -1.403 0.884 -2.125 0.824 C-8.416 0.525 -12.247 1.019 -17.344 4.809 C-22.42 8.46 -30.298 7.578 -36.203 6.656 C-39.651 5.757 -42.423 4.474 -45 2 C-45 1.34 -45 0.68 -45 0 C-43.824 0.495 -42.649 0.99 -41.438 1.5 C-34.834 3.687 -25.464 5.064 -18.973 2.062 C-18.466 1.691 -17.959 1.32 -17.438 0.938 C-11.883 -2.193 -6.159 -0.786 0 0 Z " fill="#DB9514" transform="translate(113,164)"/>
<path d="M0 0 C0.33 0 0.66 0 1 0 C1.09 6.149 1.012 11.931 0 18 C-0.088 22.001 -0.058 25.998 0 30 C-1.98 29.67 -3.96 29.34 -6 29 C-5.557 24.852 -5.093 20.707 -4.625 16.562 C-4.562 15.97 -4.562 15.97 -4.242 12.975 C-4.113 11.85 -3.984 10.725 -3.852 9.566 C-3.736 8.524 -3.621 7.482 -3.502 6.408 C-3.337 5.614 -3.171 4.819 -3 4 C-2.34 3.67 -1.68 3.34 -1 3 C-0.67 2.01 -0.34 1.02 0 0 Z " fill="#387A08" transform="translate(98,43)"/>
<path d="M0 0 C4.587 2.428 8.135 5.676 11 10 C11 10.66 11 11.32 11 12 C10.34 12 9.68 12 9 12 C7.598 10.539 7.598 10.539 6.062 8.625 C4.08 6.161 2.693 4.795 0 3 C-2.48 2.805 -2.48 2.805 -5.188 2.875 C-5.638 2.884 -5.638 2.884 -7.918 2.93 C-8.262 2.941 -8.262 2.941 -10 3 C-10.33 3.99 -10.66 4.98 -11 6 C-11.66 6 -12.32 6 -13 6 C-13.021 7.279 -13.041 8.558 -13.062 9.875 C-13.074 10.594 -13.086 11.314 -13.098 12.055 C-13 14 -13 14 -12 16 C-9.678 16.407 -7.343 16.744 -5 17 C-5 17.33 -5 17.66 -5 18 C-6.32 18.165 -6.32 18.165 -13 19 C-15.978 14.905 -16.707 12.035 -16 7 C-12.026 0.421 -7.384 -1.258 0 0 Z " fill="#346B21" transform="translate(91,22)"/>
<path d="M0 0 C3.323 1.168 5.834 2.149 8 5 C8 5.99 8 6.98 8 8 C7.34 8 6.68 8 6 8 C5.918 8.784 5.835 9.568 5.75 10.375 C5 13 5 13 2.938 14.312 C2.618 14.426 2.618 14.426 1 15 C0.34 14.01 -0.32 13.02 -1 12 C-3.125 10.812 -3.125 10.812 -5 10 C-4.361 9.464 -3.721 8.928 -3.062 8.375 C-0.615 5.556 -0.333 3.661 0 0 Z " fill="#5BA216" transform="translate(89,24)"/>
<path d="M0 0 C1.152 3.457 0.819 4.311 -0.293 7.676 C-0.594 8.587 -0.895 9.497 -1.205 10.436 C-1.529 11.385 -1.853 12.334 -2.188 13.312 C-2.492 14.25 -2.797 15.188 -3.111 16.154 C-4.852 21.333 -6.702 25.634 -10 30 C-10.66 29.67 -11.32 29.34 -12 29 C-10.533 24.444 -8.854 19.998 -7.062 15.562 C-6.81 14.933 -6.558 14.303 -6.299 13.654 C-1.357 1.357 -1.357 1.357 0 0 Z " fill="#DE9400" transform="translate(118,128)"/>
<path d="M0 0 C0.409 0.005 0.409 0.005 2.477 0.027 C2.79 0.033 2.79 0.033 4.375 0.062 C4.375 3.062 4.375 3.062 3.375 6.062 C2.828 6.135 2.828 6.135 0.062 6.5 C-3.625 7.062 -3.625 7.062 -6.625 8.062 C-8.812 7.125 -8.812 7.125 -10.625 6.062 C-7.116 1.501 -5.762 -0.082 0 0 Z " fill="#FDCD11" transform="translate(123.625,57.9375)"/>
<path d="M0 0 C3.25 0.562 3.25 0.562 4.758 2.137 C7.534 6.301 8.89 9.443 8.25 14.562 C7.59 14.562 6.93 14.562 6.25 14.562 C5.92 16.212 5.59 17.862 5.25 19.562 C4.92 19.562 4.59 19.562 4.25 19.562 C4.226 19.183 4.226 19.183 4.102 17.262 C4.064 16.765 4.064 16.765 3.875 14.25 C3.805 13.264 3.736 12.278 3.664 11.262 C3.25 8.562 3.25 8.562 1.25 5.562 C-1.078 5.195 -3.412 4.86 -5.75 4.562 C-6.08 3.903 -6.41 3.242 -6.75 2.562 C-5.76 2.233 -4.77 1.903 -3.75 1.562 C-2.75 0.562 -2.75 0.562 0 0 Z " fill="#3D7F0C" transform="translate(84.75,34.4375)"/>
<path d="M0 0 C0.66 0 1.32 0 2 0 C0.678 6.319 -0.959 12.419 -2.938 18.562 C-3.19 19.361 -3.442 20.16 -3.701 20.982 C-5.317 26.052 -7.094 31.032 -9 36 C-9.33 36 -9.66 36 -10 36 C-10.167 31.079 -10.248 27.497 -8 23 C-7.34 23 -6.68 23 -6 23 C-5.866 22.381 -5.866 22.381 -5.188 19.25 C-1.627 3.255 -1.627 3.255 0 0 Z " fill="#DC911C" transform="translate(146,100)"/>
<path d="M0 0 C-4.07 2.821 -7.995 3.903 -12.812 4.688 C-13.574 4.815 -14.335 4.942 -15.119 5.073 C-25.673 6.638 -36.363 6.264 -47 6 C-47 5.67 -47 5.34 -47 5 C-46.4 4.987 -46.4 4.987 -43.363 4.922 C-31.533 4.558 -10.347 -3.449 0 0 Z " fill="#F6ECD6" transform="translate(128,169)"/>
<path d="M0 0 C8.87 0.739 8.87 0.739 12 4 C12 4.66 12 5.32 12 6 C15.3 6 18.6 6 22 6 C22 6.33 22 6.66 22 7 C19.605 7.25 17.211 7.476 14.812 7.688 C14.476 7.724 14.476 7.724 12.771 7.908 C8.17 8.29 5.7 7.735 2 5 C0.674 4.319 -0.657 3.647 -2 3 C-1.34 2.01 -0.68 1.02 0 0 Z " fill="#519011" transform="translate(88,71)"/>
<path d="M0 0 C0.33 0 0.66 0 1 0 C1.348 6.377 0.281 11.072 -2 17 C-2.286 17.775 -2.572 18.549 -2.867 19.348 C-3.567 21.236 -4.282 23.119 -5 25 C-5.66 25 -6.32 25 -7 25 C-6.43 19.238 -5.293 14.06 -3.5 8.562 C-3.274 7.844 -3.049 7.125 -2.816 6.385 C-1.144 1.144 -1.144 1.144 0 0 Z " fill="#FCCD21" transform="translate(144,96)"/>
<path d="M0 0 C0.66 0 1.32 0 2 0 C2.574 6.885 1.475 11.027 -2 17 C-2.66 17 -3.32 17 -4 17 C-4 18.32 -4 19.64 -4 21 C-5.98 21.33 -7.96 21.66 -10 22 C-10 21.01 -10 20.02 -10 19 C-9.237 18.856 -8.474 18.711 -7.688 18.562 C-4.056 16.451 -3.743 14.384 -2.625 10.465 C-2.419 9.651 -2.213 8.838 -2 8 C-1.794 7.218 -1.588 6.435 -1.375 5.629 C-0.895 3.758 -0.444 1.88 0 0 Z " fill="#6AA61D" transform="translate(90,51)"/>
<path d="M0 0 C0.741 -0.026 1.482 -0.052 2.246 -0.078 C4.562 0.25 4.562 0.25 6.734 1.785 C10.957 3.972 14.73 3.329 19.375 2.938 C19.817 2.907 19.817 2.907 22.053 2.752 C24.224 2.599 26.393 2.427 28.562 2.25 C28.562 2.91 28.562 3.57 28.562 4.25 C28.2 4.274 28.2 4.274 26.367 4.398 C18.073 5.04 18.073 5.04 14.375 6.562 C10.661 7.47 9.235 6.057 6.062 4.211 C0.862 2.212 -4.955 2.973 -10.438 3.25 C-7.375 0.188 -4.212 0.088 0 0 Z " fill="#D29700" transform="translate(85.4375,74.75)"/>
<path d="M0 0 C4.687 0.284 7.209 2.514 10.645 5.43 C12 7 12 7 12 10 C9.812 10.812 9.812 10.812 7 11 C4.312 8.688 4.312 8.688 2 6 C1.34 5.34 0.68 4.68 0 4 C0 2.68 0 1.36 0 0 Z " fill="#416002" transform="translate(103,67)"/>
<path d="M0 0 C0.33 0 0.66 0 1 0 C1 3.3 1 6.6 1 10 C0.34 8.68 -0.32 7.36 -1 6 C-4.174 4.668 -7.593 4.801 -11 4.75 C-12.031 4.724 -13.062 4.698 -14.125 4.672 C-17.329 5.038 -18.651 5.854 -21 8 C-21.66 7.67 -22.32 7.34 -23 7 C-23 6.01 -23 5.02 -23 4 C-18.688 1.89 -15.078 1.761 -10.312 1.812 C-9.974 1.813 -9.974 1.813 -8.264 1.814 C-3.282 1.859 -3.282 1.859 -1 3 C-0.67 2.01 -0.34 1.02 0 0 Z " fill="#D2971F" transform="translate(87,44)"/>
<path d="M0 0 C0.99 0.33 1.98 0.66 3 1 C3 1.99 3 2.98 3 4 C2.34 4 1.68 4 1 4 C1.33 5.32 1.66 6.64 2 8 C0.334 8.043 -1.334 8.041 -3 8 C-3.33 7.67 -3.66 7.34 -4 7 C-6 6.959 -8 6.957 -10 7 C-10.66 5.68 -11.32 4.36 -12 3 C-11.67 2.67 -11.34 2.34 -11 2 C-9.142 2.09 -7.288 2.246 -5.438 2.438 C-4.932 2.488 -4.932 2.488 -2.371 2.746 C-1.589 2.83 -0.806 2.914 0 3 C0 2.01 0 1.02 0 0 Z " fill="#F3B301" transform="translate(66,60)"/>
<path d="M0 0 C4.167 0.473 6.929 1.047 10 4 C10 4.66 10 5.32 10 6 C5.647 10 5.647 10 2 10 C2 9.01 2 8.02 2 7 C1.67 7.165 1.67 7.165 0 8 C0 5.36 0 2.72 0 0 Z " fill="#E8A604" transform="translate(105,51)"/>
<path d="M0 0 C0.99 0.66 1.98 1.32 3 2 C3 2.66 3 3.32 3 4 C3.99 4 4.98 4 6 4 C8.399 8.648 8.2 12.911 8 18 C7.67 18 7.34 18 7 18 C6.34 14.7 5.68 11.4 5 8 C4.67 8.495 4.67 8.495 3 11 C2.67 10.67 2.34 10.34 2 10 C1.34 10.66 0.68 11.32 0 12 C-0.66 8.7 -1.32 5.4 -2 2 C-1.34 2 -0.68 2 0 2 C0 1.34 0 0.68 0 0 Z " fill="#4B8422" transform="translate(97,30)"/>
<path d="M0 0 C0.33 0.66 0.66 1.32 1 2 C0.415 3.702 -0.221 5.386 -0.875 7.062 C-4.348 17.649 -3.85 28.959 -4 40 C-4.33 40 -4.66 40 -5 40 C-5.075 35.892 -5.129 31.785 -5.165 27.677 C-5.18 26.283 -5.2 24.89 -5.226 23.496 C-5.373 15.496 -5.332 8.415 -2 1 C-1.34 0.67 -0.68 0.34 0 0 Z " fill="#DC9C34" transform="translate(33,69)"/>
<path d="M0 0 C1.65 0 3.3 0 5 0 C4.34 2.31 3.68 4.62 3 7 C1.02 7.165 1.02 7.165 -9 8 C-9 7.01 -9 6.02 -9 5 C-2.25 3 -2.25 3 0 3 C0 2.01 0 1.02 0 0 Z " fill="#E7A702" transform="translate(82,56)"/>
<path d="M0 0 C0.66 0 1.32 0 2 0 C1.563 6.771 0.43 13.039 -3 19 C-3.99 19.33 -4.98 19.66 -6 20 C-4.852 12.901 -2.885 6.583 0 0 Z " fill="#FBC51D" transform="translate(135,124)"/>
<path d="M0 0 C3 0 3 0 5 1 C4.67 1.495 4.67 1.495 3 4 C3.743 3.526 4.485 3.051 5.25 2.562 C7.611 1.221 9.366 0.488 12 0 C11.257 0.701 10.515 1.403 9.75 2.125 C7.022 4.977 5.087 7.676 3 11 C1.68 10.67 0.36 10.34 -1 10 C-1.125 3.375 -1.125 3.375 0 0 Z " fill="#C99000" transform="translate(104,57)"/>
<path d="M0 0 C0.66 0.33 1.32 0.66 2 1 C2 12.22 2 23.44 2 35 C1.34 35 0.68 35 0 35 C-1.277 32.447 -1.133 30.601 -1.125 27.75 C-1.128 26.817 -1.13 25.883 -1.133 24.922 C-1 22 -1 22 -0.496 19.164 C0.112 15.284 0.109 11.544 0.062 7.625 C0.058 6.889 0.053 6.153 0.049 5.395 C0.037 3.596 0.019 1.798 0 0 Z " fill="#2B6B05" transform="translate(98,39)"/>
<path d="M0 0 C0.312 2.688 0.312 2.688 0 6 C-2.5 8.875 -2.5 8.875 -5 11 C-5.99 10.67 -6.98 10.34 -8 10 C-7.196 9.422 -6.391 8.845 -5.562 8.25 C-3.021 6.019 -2.349 5.255 -2 2 C-2.99 2 -3.98 2 -5 2 C-5.33 3.65 -5.66 5.3 -6 7 C-7.32 7 -8.64 7 -10 7 C-9.609 4.73 -9.113 3.166 -7.812 1.25 C-5.213 -0.543 -3.077 -0.205 0 0 Z " fill="#94C131" transform="translate(89,24)"/>
<path d="M0 0 C2.654 1.327 2.866 2.607 4 5.312 C5.248 8.262 6.539 11.15 8 14 C7.01 14 6.02 14 5 14 C4.67 13.01 4.34 12.02 4 11 C0.04 11 -3.92 11 -8 11 C-8 10.67 -8 10.34 -8 10 C-5.36 9.67 -2.72 9.34 0 9 C0 6.03 0 3.06 0 0 Z " fill="#D78B05" transform="translate(61,150)"/>
<path d="M0 0 C0.66 0.99 1.32 1.98 2 3 C1 6 1 6 -1 9 C-2.292 11.592 -3.538 14.204 -4.781 16.82 C-6 19 -6 19 -8 20 C-8.125 13.25 -8.125 13.25 -7 11 C-6.01 10.67 -5.02 10.34 -4 10 C-2.832 7.715 -2.832 7.715 -1.812 4.938 C-1.468 4.018 -1.124 3.099 -0.77 2.152 C-0.516 1.442 -0.262 0.732 0 0 Z " fill="#ECA913" transform="translate(135,133)"/>
<path d="M0 0 C-0.66 1.32 -1.32 2.64 -2 4 C-3.32 4 -4.64 4 -6 4 C-9.511 5.141 -12.144 6.673 -15 9 C-15 8.01 -15 7.02 -15 6 C-10.225 1.225 -6.807 0 0 0 Z " fill="#FBCC16" transform="translate(55,56)"/>
<path d="M0 0 C0 0.33 0 0.66 0 1 C-0.701 0.942 -1.403 0.884 -2.125 0.824 C-8.461 0.523 -12.255 1.025 -17.344 4.906 C-19 6 -19 6 -22 6 C-20.858 2.575 -19.578 1.452 -16.453 -0.281 C-11.139 -1.838 -5.412 -0.691 0 0 Z " fill="#D59626" transform="translate(113,164)"/>
<path d="M0 0 C2 -0.043 4 -0.041 6 0 C7 1 7 1 7.062 4.062 C7.042 5.032 7.021 6.001 7 7 C6.01 6.67 5.02 6.34 4 6 C1.941 5.777 -0.122 5.593 -2.188 5.438 C-3.274 5.354 -4.361 5.27 -5.48 5.184 C-6.312 5.123 -7.143 5.062 -8 5 C-8 4.67 -8 4.34 -8 4 C-5.03 4 -2.06 4 1 4 C0.67 2.68 0.34 1.36 0 0 Z " fill="#E2DEC2" transform="translate(80,41)"/>
<path d="M0 0 C0.625 1.875 0.625 1.875 1 4 C-1 6 -1 6 -3.5 6.312 C-4.325 6.209 -5.15 6.106 -6 6 C-6.66 5.01 -7.32 4.02 -8 3 C-5.534 -0.115 -3.892 -0.316 0 0 Z " fill="#FEEC82" transform="translate(128,75)"/>
<path d="M0 0 C0.33 0 0.66 0 1 0 C1.081 1.958 1.139 3.916 1.188 5.875 C1.222 6.966 1.257 8.056 1.293 9.18 C1.196 10.11 1.1 11.041 1 12 C0.505 12.33 0.505 12.33 -2 14 C-3 13 -3 13 -3.098 10.934 C-3.086 10.11 -3.074 9.286 -3.062 8.438 C-3.053 7.611 -3.044 6.785 -3.035 5.934 C-3.024 5.296 -3.012 4.657 -3 4 C-2.34 3.67 -1.68 3.34 -1 3 C-0.67 2.01 -0.34 1.02 0 0 Z " fill="#3E840B" transform="translate(98,43)"/>
<path d="M0 0 C0.66 0.99 1.32 1.98 2 3 C1.092 4.132 0.173 5.255 -0.75 6.375 C-1.26 7.001 -1.771 7.628 -2.297 8.273 C-4.125 10.126 -5.553 11.123 -8 12 C-8.99 11.67 -9.98 11.34 -11 11 C-9.927 10.299 -8.855 9.597 -7.75 8.875 C-4.155 6.33 -2.201 3.786 0 0 Z " fill="#FBC116" transform="translate(126,148)"/>
<path d="M0 0 C1.536 4.609 -0.585 7.646 -2.453 11.969 C-4.492 15.964 -6.875 18.802 -10 22 C-10 19 -10 19 -9 16 C-8.376 15.407 -7.752 14.814 -7.109 14.203 C-4.589 11.57 -3.574 9.133 -2.25 5.75 C-1.822 4.672 -1.394 3.595 -0.953 2.484 C-0.639 1.665 -0.324 0.845 0 0 Z " fill="#C98219" transform="translate(135,137)"/>
<path d="M0 0 C2.491 3.737 2.207 5.745 2.125 10.188 C2.107 11.46 2.089 12.732 2.07 14.043 C2.059 14.531 2.059 14.531 2 17 C1.34 17 0.68 17 0 17 C-0.195 14.73 -0.381 12.459 -0.562 10.188 C-0.667 8.923 -0.771 7.658 -0.879 6.355 C-1 3 -1 3 0 0 Z " fill="#40800F" transform="translate(101,38)"/>
<path d="M0 0 C3.776 0.524 6.224 1.327 9 4 C9 4.99 9 5.98 9 7 C4.712 6.524 2.734 5.341 0 2 C0 1.34 0 0.68 0 0 Z " fill="#417A06" transform="translate(103,69)"/>
<path d="M0 0 C3.63 1.65 7.26 3.3 11 5 C10.67 5.165 10.67 5.165 9 6 C9 7.65 9 9.3 9 11 C8.34 10.67 7.68 10.34 7 10 C7 8.68 7 7.36 7 6 C6.402 5.876 5.804 5.752 5.188 5.625 C3 5 3 5 0 3 C0 2.01 0 1.02 0 0 Z " fill="#F4E5C6" transform="translate(43,157)"/>
<path d="M0 0 C0.33 0 0.66 0 1 0 C0.476 5.868 -0.761 10.549 -3 16 C-3.33 16 -3.66 16 -4 16 C-4.167 11.079 -4.248 7.497 -2 3 C-1.34 3 -0.68 3 0 3 C0 2.01 0 1.02 0 0 Z " fill="#D68B0D" transform="translate(140,120)"/>
<path d="M0 0 C0.376 -0.013 0.376 -0.013 2.281 -0.078 C4.5 0.25 4.5 0.25 8.5 3.25 C2.23 3.25 -4.04 3.25 -10.5 3.25 C-7.421 0.171 -4.234 0.087 0 0 Z " fill="#BE9301" transform="translate(85.5,74.75)"/>
<path d="M0 0 C1.031 4.124 0.947 4.984 -0.438 8.75 C-0.725 9.549 -1.012 10.348 -1.309 11.172 C-1.537 11.775 -1.765 12.378 -2 13 C-2.66 13 -3.32 13 -4 13 C-4.33 14.32 -4.66 15.64 -5 17 C-5 16.01 -5 15.02 -5 14 C-5.66 14 -6.32 14 -7 14 C-6.67 12.02 -6.34 10.04 -6 8 C-5.67 8.99 -5.34 9.98 -5 11 C-4.34 11 -3.68 11 -3 11 C-2.01 7.37 -1.02 3.74 0 0 Z " fill="#F4B712" transform="translate(142,110)"/>
<path d="M0 0 C0.33 0.66 0.66 1.32 1 2 C0.348 2.11 -0.305 2.219 -0.977 2.332 C-6.171 3.274 -10.293 4.529 -15 7 C-15.66 6.67 -16.32 6.34 -17 6 C-14.663 2.494 -13.96 2.155 -10 1 C-6.674 0.552 -3.347 0.247 0 0 Z " fill="#E19F2C" transform="translate(59,52)"/>
<path d="M0 0 C2.743 -0.499 4.453 -0.348 6.82 1.16 C10.363 4.058 12.793 6.44 14 11 C13.34 11 12.68 11 12 11 C10.703 9.574 10.703 9.574 9.25 7.688 C6.534 4.383 4.015 2.625 0 1 C0 0.67 0 0.34 0 0 Z " fill="#2D601A" transform="translate(88,23)"/>
<path d="M0 0 C2.275 3.539 1.991 5.709 1.125 9.75 C0.921 10.735 0.718 11.72 0.508 12.734 C0.34 13.482 0.173 14.23 0 15 C-0.66 15 -1.32 15 -2 15 C-1.859 13.062 -1.712 11.125 -1.562 9.188 C-1.481 8.109 -1.4 7.03 -1.316 5.918 C-1 3 -1 3 0 0 Z " fill="#EBA202" transform="translate(62,90)"/>
<path d="M0 0 C0.66 0.33 1.32 0.66 2 1 C2.124 1.619 2.248 2.237 2.375 2.875 C3 5 3 5 4.688 6.75 C7.604 8.327 9.733 8.223 13 8 C10.351 9.419 7.92 10.319 5 11 C3.964 9.931 2.947 8.844 1.938 7.75 C1.369 7.147 0.801 6.543 0.215 5.922 C-1 4 -1 4 -0.684 1.766 C-0.458 1.183 -0.232 0.6 0 0 Z " fill="#5A6903" transform="translate(68,67)"/>
<path d="M0 0 C1.263 0.195 2.527 0.389 3.828 0.59 C4.792 0.746 5.757 0.902 6.75 1.062 C6.75 1.392 6.75 1.722 6.75 2.062 C4.313 2.311 1.878 2.537 -0.562 2.75 C-0.908 2.786 -0.908 2.786 -2.654 2.971 C-7.807 3.394 -7.807 3.394 -10.23 1.582 C-10.567 1.081 -10.903 0.579 -11.25 0.062 C-7.359 -1.342 -4.019 -0.633 0 0 Z " fill="#657E05" transform="translate(103.25,75.9375)"/>
<path d="M0 0 C2.886 0.398 3.822 0.79 5.75 3.062 C5.956 3.382 5.956 3.382 7 5 C5.515 5.165 5.515 5.165 -2 6 C-2.66 5.01 -3.32 4.02 -4 3 C-3.01 2.67 -2.02 2.34 -1 2 C-0.34 2.33 0.32 2.66 1 3 C0.67 2.01 0.34 1.02 0 0 Z " fill="#468105" transform="translate(76,70)"/>
<path d="M0 0 C2 1.625 2 1.625 4 4 C4.25 7.25 4.25 7.25 4 10 C2.828 9.217 1.662 8.423 0.5 7.625 C-0.15 7.184 -0.799 6.743 -1.469 6.289 C-1.974 5.864 -2.479 5.438 -3 5 C-3 4.34 -3 3.68 -3 3 C-1.68 3.33 -0.36 3.66 1 4 C0.67 2.68 0.34 1.36 0 0 Z " fill="#F0AD06" transform="translate(140,65)"/>
<path d="M0 0 C3 0 3 0 5 1 C4.67 1.495 4.67 1.495 3 4 C3.66 4.33 4.32 4.66 5 5 C3.625 7 3.625 7 2 9 C1.34 9 0.68 9 0 9 C0 6.03 0 3.06 0 0 Z " fill="#E0A201" transform="translate(104,57)"/>
<path d="M0 0 C0.485 0.01 0.485 0.01 2.938 0.062 C2.608 1.382 2.278 2.703 1.938 4.062 C0.287 4.392 -1.362 4.722 -3.062 5.062 C-3.625 3.125 -3.625 3.125 -4.062 1.062 C-3.062 0.062 -3.062 0.062 0 0 Z " fill="#FDE663" transform="translate(107.0625,84.9375)"/>
<path d="M0 0 C0.825 0.165 0.825 0.165 5 1 C4.75 3.375 4.75 3.375 4 6 C1.938 7.312 1.938 7.312 0 8 C0 5.36 0 2.72 0 0 Z " fill="#F8C80E" transform="translate(105,51)"/>
<path d="M0 0 C0.485 0.01 0.485 0.01 2.938 0.062 C3.267 0.722 3.597 1.383 3.938 2.062 C3.608 2.722 3.278 3.383 2.938 4.062 C-0.032 4.062 -3.002 4.062 -6.062 4.062 C-6.392 3.403 -6.722 2.742 -7.062 2.062 C-6.073 1.733 -5.082 1.403 -4.062 1.062 C-3.062 0.062 -3.062 0.062 0 0 Z " fill="#4D900E" transform="translate(85.0625,34.9375)"/>
<path d="M0 0 C0.501 0.005 0.501 0.005 3.039 0.027 C3.81 0.039 4.581 0.051 5.375 0.062 C5.705 1.053 6.035 2.042 6.375 3.062 C4.417 3.116 2.459 3.155 0.5 3.188 C-0.591 3.211 -1.681 3.234 -2.805 3.258 C-5.625 3.062 -5.625 3.062 -7.625 1.062 C-4.98 -0.26 -2.947 -0.034 0 0 Z " fill="#F9B80C" transform="translate(55.625,155.9375)"/>
<path d="M0 0 C3.3 0.33 6.6 0.66 10 1 C9.67 1.99 9.34 2.98 9 4 C6.36 3.67 3.72 3.34 1 3 C0.67 2.01 0.34 1.02 0 0 Z " fill="#FDDB39" transform="translate(118,60)"/>
<path d="M0 0 C2.64 0 5.28 0 8 0 C8 0.99 8 1.98 8 3 C4.7 3.33 1.4 3.66 -2 4 C-2 3.34 -2 2.68 -2 2 C-1.34 2 -0.68 2 0 2 C0 1.34 0 0.68 0 0 Z " fill="#E9EEE1" transform="translate(83,19)"/>
<path d="M0 0 C1.184 3.552 0.695 4.698 -0.438 8.188 C-0.725 9.089 -1.012 9.99 -1.309 10.918 C-1.537 11.605 -1.765 12.292 -2 13 C-2.66 12.34 -3.32 11.68 -4 11 C-3.828 8.906 -3.828 8.906 -3.25 6.5 C-3.07 5.706 -2.889 4.912 -2.703 4.094 C-2 2 -2 2 0 0 Z " fill="#E69E02" transform="translate(118,128)"/>
<path d="M0 0 C0 2.97 0 5.94 0 9 C-0.99 9 -1.98 9 -3 9 C-3 6.69 -3 4.38 -3 2 C-3.66 1.67 -4.32 1.34 -5 1 C-1.125 0 -1.125 0 0 0 Z " fill="#5B9D14" transform="translate(95,49)"/>
<path d="M0 0 C5.619 0.401 8.087 2.18 12 6 C12 6.66 12 7.32 12 8 C11.34 8 10.68 8 10 8 C9.422 7.381 8.845 6.763 8.25 6.125 C5.639 3.659 3.43 2.935 0 2 C0 1.34 0 0.68 0 0 Z " fill="#D78A0B" transform="translate(105,49)"/>
<path d="M0 0 C0.423 0.041 0.423 0.041 2.562 0.25 C3.222 1.24 3.882 2.23 4.562 3.25 C1.854 4.604 -0.447 4.315 -3.438 4.25 C-3.438 0.353 -3.438 0.353 0 0 Z " fill="#F6B101" transform="translate(76.4375,59.75)"/>
<path d="M0 0 C2.31 0 4.62 0 7 0 C7.33 0.66 7.66 1.32 8 2 C7.361 2.124 6.721 2.248 6.062 2.375 C5.382 2.581 4.701 2.788 4 3 C3.67 3.66 3.34 4.32 3 5 C2.01 5 1.02 5 0 5 C0 3.35 0 1.7 0 0 Z " fill="#FDE663" transform="translate(67,50)"/>
<path d="M0 0 C0.66 0.33 1.32 0.66 2 1 C0.71 2.376 -0.627 3.708 -2 5 C-2.66 5 -3.32 5 -4 5 C-4 5.66 -4 6.32 -4 7 C-5.32 6.67 -6.64 6.34 -8 6 C-8 5.34 -8 4.68 -8 4 C-6.713 3.303 -5.421 2.618 -4.125 1.938 C-3.406 1.555 -2.686 1.172 -1.945 0.777 C-1.303 0.521 -0.661 0.264 0 0 Z " fill="#E7D1A8" transform="translate(99,166)"/>
<path d="M0 0 C1.65 0 3.3 0 5 0 C5 1.32 5 2.64 5 4 C1.865 5.858 -0.375 6.201 -4 6 C-0.375 3 -0.375 3 3 3 C3 2.34 3 1.68 3 1 C2.01 0.67 1.02 0.34 0 0 Z " fill="#266202" transform="translate(80,64)"/>
<path d="M0 0 C4.431 1.208 6.981 2.517 10 6 C5.833 5.527 3.071 4.953 0 2 C0 1.34 0 0.68 0 0 Z " fill="#CE8F22" transform="translate(68,164)"/>
<path d="M0 0 C0 0.66 0 1.32 0 2 C-1.27 2.648 -2.541 3.294 -3.812 3.938 C-4.52 4.297 -5.228 4.657 -5.957 5.027 C-8 6 -8 6 -11 7 C-9.905 3.826 -9.018 3.011 -6.062 1.25 C-3 0 -3 0 0 0 Z " fill="#D39201" transform="translate(126,69)"/>
<path d="M0 0 C-0.66 1.32 -1.32 2.64 -2 4 C-3.32 4 -4.64 4 -6 4 C-6.66 3.34 -7.32 2.68 -8 2 C-5.094 0.743 -3.204 0 0 0 Z " fill="#FDDA28" transform="translate(55,56)"/>
<path d="M0 0 C0.33 1.32 0.66 2.64 1 4 C1.99 4 2.98 4 4 4 C4.33 3.01 4.66 2.02 5 1 C6.32 1.33 7.64 1.66 9 2 C8.01 2 7.02 2 6 2 C5.67 2.99 5.34 3.98 5 5 C3.35 5 1.7 5 0 5 C-0.66 3.68 -1.32 2.36 -2 1 C-1.34 0.67 -0.68 0.34 0 0 Z " fill="#FCD124" transform="translate(66,51)"/>
<path d="M0 0 C0.812 1.688 0.812 1.688 1 4 C-1.312 6.75 -1.312 6.75 -4 9 C-4.66 9 -5.32 9 -6 9 C-4.473 5.564 -2.401 2.881 0 0 Z " fill="#F1E2C4" transform="translate(129,153)"/>
<path d="M0 0 C0.66 0.165 0.66 0.165 4 1 C3.67 2.32 3.34 3.64 3 5 C1.68 4.67 0.36 4.34 -1 4 C-0.67 2.68 -0.34 1.36 0 0 Z " fill="#FDE361" transform="translate(52,78)"/>
<path d="M0 0 C0.66 0.33 1.32 0.66 2 1 C1.691 1.598 1.381 2.196 1.062 2.812 C0 5 0 5 -1 8 C-2.32 7.34 -3.64 6.68 -5 6 C-3.867 2.601 -2.875 1.947 0 0 Z " fill="#F5B501" transform="translate(119,73)"/>
<path d="M0 0 C1.169 0.808 2.336 1.622 3.5 2.438 C3.825 2.664 3.825 2.664 5.469 3.809 C5.721 4.005 5.721 4.005 7 5 C7 5.33 7 5.66 7 6 C4.03 6 1.06 6 -2 6 C-0.68 5.34 0.64 4.68 2 4 C1.01 3.01 0.02 2.02 -1 1 C-0.67 0.67 -0.34 0.34 0 0 Z " fill="#316903" transform="translate(103,71)"/>
<path d="M0 0 C3.856 -0.22 6.492 0.396 10 2 C9.01 2.66 8.02 3.32 7 4 C3.312 3.125 3.312 3.125 0 2 C0 1.34 0 0.68 0 0 Z " fill="#E6A202" transform="translate(57,66)"/>
<path d="M0 0 C2.31 0.33 4.62 0.66 7 1 C7.33 1.99 7.66 2.98 8 4 C6.02 4 4.04 4 2 4 C1.34 2.68 0.68 1.36 0 0 Z " fill="#53940B" transform="translate(69,69)"/>
<path d="M0 0 C1.32 0 2.64 0 4 0 C3.67 1.32 3.34 2.64 3 4 C1.35 3.67 -0.3 3.34 -2 3 C-1.34 2.01 -0.68 1.02 0 0 Z " fill="#6AA422" transform="translate(81,69)"/>
<path d="M0 0 C2.97 0.99 5.94 1.98 9 3 C8.34 3.66 7.68 4.32 7 5 C3.875 4.625 3.875 4.625 1 4 C0.67 2.68 0.34 1.36 0 0 Z " fill="#EBD7AE" transform="translate(70,167)"/>
<path d="M0 0 C-0.33 0.99 -0.66 1.98 -1 3 C-4.562 4.188 -4.562 4.188 -8 5 C-8.66 4.34 -9.32 3.68 -10 3 C-8.71 2.496 -7.418 1.997 -6.125 1.5 C-5.765 1.361 -5.765 1.361 -3.945 0.656 C-2 0 -2 0 0 0 Z " fill="#ECD6AC" transform="translate(123,161)"/>
<path d="M0 0 C0.66 0.66 1.32 1.32 2 2 C-0.31 3.65 -2.62 5.3 -5 7 C-3.926 2.706 -3.492 2.253 0 0 Z " fill="#D29103" transform="translate(72,77)"/>
<path d="M0 0 C0.99 0 1.98 0 3 0 C3.33 1.65 3.66 3.3 4 5 C3.01 4.835 3.01 4.835 -2 4 C-1.34 2.68 -0.68 1.36 0 0 Z " fill="#6A9E15" transform="translate(88,71)"/>
<path d="M0 0 C0.66 0.33 1.32 0.66 2 1 C1.477 3.763 0.891 6.326 0 9 C-0.66 9 -1.32 9 -2 9 C-1.34 6.03 -0.68 3.06 0 0 Z " fill="#326205" transform="translate(87,54)"/>
<path d="M0 0 C0.66 0.66 1.32 1.32 2 2 C4.323 2.4 6.657 2.74 9 3 C9 3.33 9 3.66 9 4 C6.36 4.33 3.72 4.66 1 5 C0.34 3.68 -0.32 2.36 -1 1 C-0.67 0.67 -0.34 0.34 0 0 Z " fill="#3C7020" transform="translate(77,36)"/>
<path d="M0 0 C0.99 0 1.98 0 3 0 C2.625 2.438 2.625 2.438 2 5 C1.67 5.165 1.67 5.165 0 6 C-1.125 2.25 -1.125 2.25 0 0 Z " fill="#70A219" transform="translate(84,26)"/>
<path d="M0 0 C0.66 0 1.32 0 2 0 C2 1.65 2 3.3 2 5 C0.68 5 -0.64 5 -2 5 C-1.125 1.125 -1.125 1.125 0 0 Z " fill="#A5CA3E" transform="translate(81,26)"/>
</svg>
