<?xml version="1.0" encoding="UTF-8"?>
<!-- Generator: visioncortex VTracer 0.6.12 -->
<svg version="1.1" xmlns="http://www.w3.org/2000/svg" width="175" height="190">
<path d="M0 0 C57.75 0 115.5 0 175 0 C175 62.7 175 125.4 175 190 C117.25 190 59.5 190 0 190 C0 127.3 0 64.6 0 0 Z " fill="#FDF8ED" transform="translate(0,0)"/>
<path d="M0 0 C4.981 2.906 9.583 6.295 14 10 C13.812 11.813 13.812 11.813 13 14 C11.36 15.043 9.685 16.032 8 17 C5.945 18.782 3.948 20.615 1.965 22.477 C-0.071 24.055 -1.485 24.585 -4 25 C-4 25.66 -4 26.32 -4 27 C-3.34 27.186 -2.68 27.371 -2 27.562 C6.194 31.489 11.009 38.041 15 46 C15.415 46.786 15.83 47.573 16.258 48.383 C22.335 61.94 19.888 78.558 14.787 92.035 C10.902 101.736 6.047 110.207 -1 118 C-1.638 118.719 -2.276 119.439 -2.934 120.18 C-11.698 129.526 -23.635 136.016 -36.625 136.438 C-40.268 136.308 -43.256 135.697 -46.688 134.5 C-52.486 132.493 -58.132 132.903 -64.168 133.188 C-74.469 132.683 -83.165 125.185 -90.062 118.062 C-104.212 101.799 -111.114 81.613 -110.175 60.139 C-109.092 46.885 -101.743 35.482 -91.828 27.012 C-80.387 18.873 -68.027 16.206 -54.238 18.449 C-52.473 18.896 -50.731 19.435 -49 20 C-49.165 19.402 -49.165 19.402 -50 16.375 C-50.874 12.831 -51.436 9.667 -51 6 C-47.53 3.687 -46.075 3.66 -42 4 C-41.01 4.66 -40.02 5.32 -39 6 C-39.608 10.345 -40.262 14.676 -41 19 C-38.165 16.705 -37.225 14.143 -35.859 10.832 C-32.712 4.123 -27.485 1.048 -21 -2 C-13.845 -4.385 -6.735 -3.124 0 0 Z " fill="#E72A22" transform="translate(135,35)"/>
<path d="M0 0 C4.981 2.906 9.583 6.295 14 10 C13.812 11.812 13.812 11.812 13 14 C11.36 15.043 9.685 16.032 8 17 C5.945 18.782 3.948 20.615 1.965 22.477 C-0.071 24.055 -1.485 24.585 -4 25 C-4 25.66 -4 26.32 -4 27 C-3.34 27.186 -2.68 27.371 -2 27.562 C6.194 31.489 11.009 38.041 15 46 C15.415 46.786 15.83 47.573 16.258 48.383 C22.335 61.94 19.888 78.558 14.787 92.035 C10.902 101.736 6.047 110.207 -1 118 C-1.638 118.719 -2.276 119.439 -2.934 120.18 C-11.698 129.526 -23.635 136.016 -36.625 136.438 C-40.268 136.308 -43.256 135.697 -46.688 134.5 C-52.486 132.493 -58.132 132.903 -64.168 133.188 C-74.469 132.683 -83.165 125.185 -90.062 118.062 C-104.946 100.956 -110.047 82.295 -109 60 C-108.67 60 -108.34 60 -108 60 C-107.974 60.969 -107.948 61.939 -107.922 62.938 C-107.117 84.447 -100.43 102.742 -86 119 C-82.597 122.079 -79.119 124.941 -75 127 C-74.67 126.34 -74.34 125.68 -74 125 C-73.67 125.33 -73.34 125.66 -73 126 C-65.657 127.16 -58.288 127.34 -50.869 127.605 C-49.929 127.643 -48.988 127.68 -48.02 127.719 C-47.175 127.749 -46.33 127.779 -45.46 127.811 C-43 128 -43 128 -40.386 128.537 C-37.214 129.153 -34.613 128.662 -31.438 128.125 C-30.322 127.942 -29.207 127.759 -28.059 127.57 C-25.672 127.125 -23.343 126.63 -21 126 C-21 125.34 -21 124.68 -21 124 C-20.01 123.505 -19.02 123.01 -18 122.5 C-3.263 113.918 5.588 95.928 10 80 C11.094 74.708 11.64 69.386 12 64 C12.33 64.66 12.66 65.32 13 66 C13.66 66 14.32 66 15 66 C14.739 53.964 10.558 43.387 3 34 C0.692 31.902 -1.234 30.383 -4 29 C-4 29.66 -4 30.32 -4 31 C-3.34 31.33 -2.68 31.66 -2 32 C-8.564 35.196 -11.901 36.366 -19 34 C-25.68 33.921 -31.029 35.134 -37 38 C-46.221 40.601 -51.952 38.481 -60 34 C-61.538 33.221 -63.079 32.45 -64.625 31.688 C-65.739 31.131 -66.852 30.574 -68 30 C-64.377 28.792 -63.359 29.457 -60 31 C-60.33 30.01 -60.66 29.02 -61 28 C-61.66 27.67 -62.32 27.34 -63 27 C-63 26.34 -63 25.68 -63 25 C-60.03 25.99 -57.06 26.98 -54 28 C-54 28.66 -54 29.32 -54 30 C-52.35 30 -50.7 30 -49 30 C-49.052 29.361 -49.052 29.361 -49.312 26.125 C-49.342 25.765 -49.342 25.765 -49.488 23.945 C-50 22 -50 22 -53 20 C-51.68 20 -50.36 20 -49 20 C-49.165 19.402 -49.165 19.402 -50 16.375 C-50.874 12.831 -51.436 9.667 -51 6 C-47.53 3.687 -46.075 3.66 -42 4 C-41.01 4.66 -40.02 5.32 -39 6 C-39.608 10.345 -40.262 14.676 -41 19 C-38.165 16.705 -37.225 14.143 -35.859 10.832 C-32.712 4.123 -27.485 1.048 -21 -2 C-13.845 -4.385 -6.735 -3.124 0 0 Z " fill="#CC2B2D" transform="translate(135,35)"/>
<path d="M0 0 C4.981 2.906 9.583 6.295 14 10 C13.812 11.812 13.812 11.812 13 14 C11.36 15.043 9.685 16.032 8 17 C6.78 18.134 5.573 19.281 4.375 20.438 C-3.563 27.415 -12.194 28.664 -22.543 28.402 C-26.422 27.951 -28.999 26.994 -32.281 24.957 C-35.091 23.393 -37.827 23.264 -41 23 C-41 23.66 -41 24.32 -41 25 C-41.66 25 -42.32 25 -43 25 C-43 29.29 -43 33.58 -43 38 C-44.98 38 -46.96 38 -49 38 C-48.977 36.877 -48.954 35.754 -48.93 34.598 C-48.817 26.708 -48.987 19.676 -51 12 C-51.312 8.562 -51.312 8.562 -51 6 C-47.53 3.687 -46.075 3.66 -42 4 C-41.01 4.66 -40.02 5.32 -39 6 C-39.608 10.345 -40.262 14.676 -41 19 C-38.165 16.705 -37.225 14.143 -35.859 10.832 C-32.712 4.123 -27.485 1.048 -21 -2 C-13.845 -4.385 -6.735 -3.124 0 0 Z " fill="#7A9E0B" transform="translate(135,35)"/>
<path d="M0 0 C0.66 0.33 1.32 0.66 2 1 C0.68 2.65 -0.64 4.3 -2 6 C-0.763 6 0.475 6 1.75 6 C4.5 6 7.25 6 10 6 C10.926 5.988 11.851 5.977 12.805 5.965 C22.936 5.875 22.936 5.875 28 7 C27.175 6.34 27.175 6.34 23 3 C23.33 2.34 23.66 1.68 24 1 C25.485 2.155 25.485 2.155 33 8 C32 12 32 12 29.938 13.312 C28.968 13.869 27.999 14.426 27 15 C25.78 16.134 24.573 17.281 23.375 18.438 C15.31 25.526 6.657 26.443 -3.715 26.336 C-6.747 26.026 -8.525 25.731 -11 24 C-11.688 22.342 -12.356 20.675 -13 19 C-13.99 18.67 -14.98 18.34 -16 18 C-16 17.34 -16 16.68 -16 16 C-13.783 14.03 -11.77 12.328 -9.027 11.16 C-6.42 9.668 -5.395 7.972 -3.812 5.438 C-1.022 1.022 -1.022 1.022 0 0 Z " fill="#6D960C" transform="translate(116,37)"/>
<path d="M0 0 C0.825 0.165 0.825 0.165 5 1 C5.027 3.083 5.046 5.167 5.062 7.25 C5.074 8.41 5.086 9.57 5.098 10.766 C5.018 13.41 4.786 15.498 4 18 C5.98 18 7.96 18 10 18 C10 13.71 10 9.42 10 5 C10.66 5 11.32 5 12 5 C12 4.34 12 3.68 12 3 C16.321 2.64 18.798 2.695 22.5 5 C29.289 8.76 38.292 7.676 45.684 6.328 C50.382 5.863 52.132 7.428 55.793 10.129 C62.834 16.098 68.531 23.14 69.75 32.5 C69.832 33.655 69.915 34.81 70 36 C67.912 32.868 66.461 29.725 64.875 26.312 C61.253 18.82 56.797 12.527 49 9 C49 9.66 49 10.32 49 11 C49.33 11.165 49.33 11.165 51 12 C44.436 15.196 41.099 16.366 34 14 C27.32 13.921 21.971 15.134 16 18 C6.779 20.601 1.048 18.481 -7 14 C-8.538 13.221 -10.079 12.45 -11.625 11.688 C-12.739 11.131 -13.853 10.574 -15 10 C-11.377 8.792 -10.359 9.457 -7 11 C-7.33 10.01 -7.66 9.02 -8 8 C-8.66 7.67 -9.32 7.34 -10 7 C-10 6.34 -10 5.68 -10 5 C-7.03 5.99 -4.06 6.98 -1 8 C-1 8.66 -1 9.32 -1 10 C0.65 10 2.3 10 4 10 C3.897 8.721 3.794 7.443 3.688 6.125 C3.629 5.406 3.571 4.686 3.512 3.945 C3 2 3 2 0 0 Z " fill="#BA1914" transform="translate(82,55)"/>
<path d="M0 0 C0.165 0.495 0.165 0.495 1 3 C-0.576 4.321 -2.161 5.631 -3.75 6.938 C-4.632 7.668 -5.513 8.399 -6.422 9.152 C-8.763 10.83 -10.197 11.587 -13 12 C-12.835 12.495 -12.835 12.495 -12 15 C-11.175 15.165 -11.175 15.165 -7 16 C-14.053 20.702 -24.29 19.322 -32.562 19.375 C-33.291 19.381 -34.019 19.386 -34.77 19.392 C-47.716 19.442 -59.559 17.726 -72 14 C-72 12.68 -72 11.36 -72 10 C-72.66 10 -73.32 10 -74 10 C-73.67 9.34 -73.34 8.68 -73 8 C-72.629 8.237 -72.629 8.237 -70.75 9.438 C-65.924 12.179 -61.825 12.033 -56.375 11.875 C-50.534 11.775 -45.892 12.391 -40.34 14.312 C-30.748 17.131 -21.795 13.972 -13 10 C-8.107 7.282 -3.729 4.215 0 0 Z " fill="#DEBA96" transform="translate(131,155)"/>
<path d="M0 0 C0.99 0.66 1.98 1.32 3 2 C2.404 6.869 1.43 11.328 0 16 C1.134 16.124 2.269 16.248 3.438 16.375 C4.025 16.478 4.025 16.478 7 17 C7.33 17.66 7.66 18.32 8 19 C5.69 19 3.38 19 1 19 C1 19.66 1 20.32 1 21 C0.34 21 -0.32 21 -1 21 C-1 25.29 -1 29.58 -1 34 C-2.98 34 -4.96 34 -7 34 C-6.977 32.877 -6.954 31.754 -6.93 30.598 C-6.817 22.708 -6.987 15.676 -9 8 C-9.312 4.562 -9.312 4.562 -9 2 C-5.53 -0.313 -4.075 -0.34 0 0 Z " fill="#86460B" transform="translate(93,39)"/>
<path d="M0 0 C2.875 1 2.875 1 5 3 C5.641 6.912 5.951 9.37 3.938 12.82 C2.171 14.997 0.524 16.738 -2 18 C-9.467 18.356 -9.467 18.356 -13 16 C-13.293 13.617 -13.293 13.617 -13.188 10.875 C-13.16 9.965 -13.133 9.055 -13.105 8.117 C-13.071 7.419 -13.036 6.72 -13 6 C-12.34 6 -11.68 6 -11 6 C-10.732 5.381 -10.464 4.763 -10.188 4.125 C-7.72 -0.291 -4.651 -0.465 0 0 Z " fill="#FDB59E" transform="translate(60,74)"/>
<path d="M0 0 C1.98 0.99 3.96 1.98 6 3 C6 3.99 6 4.98 6 6 C6.66 6 7.32 6 8 6 C8 7.32 8 8.64 8 10 C9.031 10.103 10.062 10.206 11.125 10.312 C14.935 10.769 18.562 11.612 22.289 12.52 C30.301 14.25 38.088 14.464 46.25 14.375 C46.61 14.374 46.61 14.374 48.432 14.366 C59.573 14.312 70.089 13.312 81 11 C83.663 10.618 86.326 10.304 89 10 C89 10.66 89 11.32 89 12 C75.366 17.101 60.168 16.209 45.803 16.24 C43.07 16.25 40.337 16.281 37.604 16.312 C9.28 16.485 9.28 16.485 2 10 C2.66 10 3.32 10 4 10 C3.67 8.02 3.34 6.04 3 4 C2.34 4 1.68 4 1 4 C1 3.34 1 2.68 1 2 C0.34 1.67 -0.32 1.34 -1 1 C-0.67 0.67 -0.34 0.34 0 0 Z " fill="#F2E0C6" transform="translate(51,159)"/>
<path d="M0 0 C0.33 0 0.66 0 1 0 C1.026 0.969 1.052 1.939 1.078 2.938 C1.908 25.121 9.037 45.765 25.547 61.414 C32.811 67.468 38.914 70.485 48.375 70 C54.917 69.813 59.911 70.343 66 73 C66 73.33 66 73.66 66 74 C65.6 73.964 65.6 73.964 63.578 73.781 C57.893 73.301 52.331 72.966 46.625 73.125 C36.447 73.165 28.731 67.346 21.453 60.66 C8.007 46.776 -0.441 28.961 -0.312 9.562 C-0.25 6.372 -0.15 3.187 0 0 Z " fill="#B92421" transform="translate(26,95)"/>
<path d="M0 0 C0.66 0.33 1.32 0.66 2 1 C0.68 2.65 -0.64 4.3 -2 6 C-0.763 6 0.475 6 1.75 6 C4.5 6 7.25 6 10 6 C10.926 5.988 11.851 5.977 12.805 5.965 C22.936 5.875 22.936 5.875 28 7 C27.175 6.34 27.175 6.34 23 3 C23.33 2.34 23.66 1.68 24 1 C25.485 2.155 25.485 2.155 33 8 C32.67 9.32 32.34 10.64 32 12 C30.68 11.67 29.36 11.34 28 11 C28 10.67 28 10.34 28 10 C15.527 7.277 4.004 8.18 -7.836 13.203 C-10 14 -10 14 -13 13 C-12.134 12.691 -11.267 12.381 -10.375 12.062 C-5.768 9.247 -3.768 5.525 -1 1 C-0.67 0.67 -0.34 0.34 0 0 Z " fill="#618604" transform="translate(116,37)"/>
<path d="M0 0 C0 0.66 0 1.32 0 2 C0.99 2.66 1.98 3.32 3 4 C1.866 4.124 0.731 4.248 -0.438 4.375 C-1.025 4.478 -1.025 4.478 -4 5 C-4.33 5.66 -4.66 6.32 -5 7 C-4.196 6.979 -3.391 6.959 -2.562 6.938 C0 7 0 7 1 8 C1.188 10.438 1.188 10.438 1 13 C-1 15 -1 15 -4.125 15.125 C-5.074 15.084 -6.022 15.043 -7 15 C-7.33 14.01 -7.66 13.02 -8 12 C-8.33 12.165 -8.33 12.165 -10 13 C-10.33 13.99 -10.66 14.98 -11 16 C-10.01 16.33 -9.02 16.66 -8 17 C-8 17.33 -8 17.66 -8 18 C-9.65 18 -11.3 18 -13 18 C-13.75 15.812 -13.75 15.812 -14 13 C-12.699 11.308 -11.362 9.643 -10 8 C-9.25 4.688 -9.25 4.688 -9 2 C-8.01 2.33 -7.02 2.66 -6 3 C-1.696 0 -1.696 0 0 0 Z " fill="#F85542" transform="translate(74,77)"/>
<path d="M0 0 C0.697 0.005 1.395 0.009 2.113 0.014 C3.826 0.025 5.538 0.043 7.25 0.062 C7.415 0.392 7.415 0.392 8.25 2.062 C7.784 2.075 7.784 2.075 5.426 2.141 C-10.144 2.833 -21.594 6.29 -32.5 17.875 C-36.118 22.168 -38.479 26.956 -40.75 32.062 C-41.41 31.733 -42.07 31.403 -42.75 31.062 C-40.421 21.23 -32.867 12.745 -24.75 7.062 C-16.308 2.509 -9.56 -0.117 0 0 Z " fill="#CC241F" transform="translate(70.75,52.9375)"/>
<path d="M0 0 C0.66 0.33 1.32 0.66 2 1 C1.01 4.96 0.02 8.92 -1 13 C0.134 13.124 1.269 13.248 2.438 13.375 C3.613 13.581 4.789 13.788 6 14 C6.33 14.66 6.66 15.32 7 16 C4.69 16 2.38 16 0 16 C0 16.66 0 17.32 0 18 C-0.66 18 -1.32 18 -2 18 C-2 22.29 -2 26.58 -2 31 C-3.98 31 -5.96 31 -8 31 C-7.67 29.68 -7.34 28.36 -7 27 C-7 27.99 -7 28.98 -7 30 C-6.01 30 -5.02 30 -4 30 C-4.33 20.76 -4.66 11.52 -5 2 C-3.35 1.34 -1.7 0.68 0 0 Z " fill="#5F3106" transform="translate(94,42)"/>
<path d="M0 0 C3.307 -0.231 5.729 -0.094 8.875 1 C11 3 11 3 11.625 6.812 C11.344 11.569 9.342 13.737 6 17 C2.873 18.564 -0.58 18.4 -4 18 C-4.99 17.34 -5.98 16.68 -7 16 C-7.293 13.617 -7.293 13.617 -7.188 10.875 C-7.16 9.965 -7.133 9.055 -7.105 8.117 C-7.071 7.419 -7.036 6.72 -7 6 C-6.67 6.495 -6.67 6.495 -5 9 C-4.34 9 -3.68 9 -3 9 C-2.67 10.32 -2.34 11.64 -2 13 C3.625 13.25 3.625 13.25 7 11 C7.431 6.946 7.3 5.45 5 2 C2.375 1.312 2.375 1.312 0 1 C0 0.67 0 0.34 0 0 Z " fill="#FB927D" transform="translate(54,74)"/>
<path d="M0 0 C0.743 0.186 1.485 0.371 2.25 0.562 C5 1 5 1 7.062 0.312 C7.382 0.261 7.382 0.261 9 0 C11.25 1.938 11.25 1.938 13 4 C12.67 4.66 12.34 5.32 12 6 C12.66 6.66 13.32 7.32 14 8 C12.763 8.248 11.525 8.495 10.25 8.75 C6.486 9.671 4.469 10.913 2 14 C1.01 13.67 0.02 13.34 -1 13 C-1.33 11.35 -1.66 9.7 -2 8 C-3.65 7.67 -5.3 7.34 -7 7 C-7 6.34 -7 5.68 -7 5 C-3.04 5.33 0.92 5.66 5 6 C5.33 5.34 5.66 4.68 6 4 C5.196 3.711 4.391 3.422 3.562 3.125 C1 2 1 2 0 0 Z " fill="#7FA70B" transform="translate(113,48)"/>
<path d="M0 0 C-0.361 0.248 -0.361 0.248 -2.188 1.5 C-4.733 3.762 -5.732 5.119 -7.312 8 C-9.92 12.451 -13.163 14.377 -18 16 C-18.66 16 -19.32 16 -20 16 C-18.687 9.17 -15.652 5.124 -10.066 1.195 C-6.686 -0.76 -3.592 -1.796 0 0 Z " fill="#84AA0F" transform="translate(119,36)"/>
<path d="M0 0 C0.681 0.392 1.361 0.784 2.062 1.188 C2.805 1.559 3.547 1.93 4.312 2.312 C4.89 2.601 5.468 2.89 6.062 3.188 C5.733 4.178 5.403 5.168 5.062 6.188 C-3.509 5.188 -3.509 5.188 -6.938 4.188 C-6.938 4.847 -6.938 5.508 -6.938 6.188 C-5.287 6.517 -3.638 6.847 -1.938 7.188 C-1.608 8.837 -1.278 10.487 -0.938 12.188 C0.052 12.517 1.043 12.847 2.062 13.188 C0.06 12.869 -1.94 12.533 -3.938 12.188 C-4.309 12.136 -4.309 12.136 -6.188 11.875 C-8.618 10.92 -8.859 9.488 -9.938 7.188 C-10.927 6.858 -11.918 6.528 -12.938 6.188 C-12.938 5.528 -12.938 4.867 -12.938 4.188 C-11.668 3.539 -10.397 2.894 -9.125 2.25 C-8.417 1.89 -7.71 1.531 -6.98 1.16 C-2.416 -1.013 -2.416 -1.013 0 0 Z " fill="#739E07" transform="translate(112.9375,48.8125)"/>
<path d="M0 0 C8.628 2.538 16.836 0.651 25.188 -2.062 C25.352 -1.567 25.352 -1.567 26.188 0.938 C18.189 4.539 10.739 4.077 2.202 3.474 C-0.136 3.312 -2.474 3.183 -4.814 3.059 C-6.31 2.966 -7.805 2.871 -9.301 2.773 C-9.996 2.736 -10.69 2.698 -11.406 2.659 C-15.414 2.355 -17.866 1.725 -20.812 -1.062 C-13.571 -2.027 -6.979 -2.637 0 0 Z " fill="#D1AB85" transform="translate(89.8125,169.0625)"/>
<path d="M0 0 C0.295 0.069 0.295 0.069 1.785 0.42 C9.35 2.081 16.685 2.394 24.404 2.566 C25.342 2.596 26.28 2.626 27.246 2.656 C28.088 2.675 28.931 2.694 29.799 2.713 C32 3 32 3 35 5 C33.727 6.551 33.727 6.551 32 8 C29.991 7.55 27.986 7.081 26 6.539 C21.41 5.714 16.852 5.948 12.205 6.163 C7.024 6.309 3.638 5.331 -1 3 C-0.67 2.01 -0.34 1.02 0 0 Z " fill="#D72829" transform="translate(60,160)"/>
<path d="M0 0 C2.31 0 4.62 0 7 0 C7.103 0.639 7.206 1.279 7.312 1.938 C7.426 2.278 7.426 2.278 8 4 C8.99 4.33 9.98 4.66 11 5 C9.71 6.376 8.373 7.708 7 9 C6.34 9 5.68 9 5 9 C4.67 10.32 4.34 11.64 4 13 C2.35 13.33 0.7 13.66 -1 14 C-1.027 12.042 -1.046 10.083 -1.062 8.125 C-1.074 7.034 -1.086 5.944 -1.098 4.82 C-1 2 -1 2 0 0 Z " fill="#BB1D12" transform="translate(94,58)"/>
<path d="M0 0 C3.316 0.553 6.151 1.168 9 3 C9.33 3.99 9.66 4.98 10 6 C11.627 7.706 13.29 9.378 15 11 C14.113 10.835 13.226 10.67 12.312 10.5 C6.582 9.659 0.776 9.922 -5 10 C-4.691 8.109 -4.691 8.109 -4 6 C-0.938 4.25 -0.938 4.25 2 3 C1.34 2.01 0.68 1.02 0 0 Z " fill="#6D940C" transform="translate(130,34)"/>
<path d="M0 0 C1.401 0.107 2.8 0.242 4.195 0.402 C4.89 0.456 5.585 0.509 6.301 0.564 C10.553 0.945 14.333 1.834 18.32 3.34 C17.99 4.33 17.66 5.32 17.32 6.34 C14.32 7.34 14.32 7.34 11.129 6.41 C7.024 5.257 3.634 5.14 -0.617 5.215 C-1.301 5.224 -1.985 5.233 -2.689 5.242 C-4.353 5.265 -6.016 5.301 -7.68 5.34 C-5.391 1.539 -4.528 0.418 0 0 Z " fill="#CA1713" transform="translate(108.6796875,63.66015625)"/>
<path d="M0 0 C5.75 1.875 5.75 1.875 8 3 C9.448 3.083 10.901 3.107 12.352 3.098 C12.777 3.096 12.777 3.096 14.93 3.088 C15.374 3.084 15.374 3.084 17.625 3.062 C18.074 3.06 18.074 3.06 20.344 3.049 C22.563 3.037 24.781 3.021 27 3 C23.848 5.101 23.012 5.254 19.402 5.309 C18.519 5.334 17.635 5.359 16.725 5.385 C14.863 5.42 13.001 5.451 11.139 5.479 C10.256 5.505 9.374 5.531 8.465 5.559 C7.657 5.572 6.848 5.586 6.015 5.599 C5.683 5.665 5.683 5.665 4 6 C3.67 6.495 3.67 6.495 2 9 C3.32 9.33 4.64 9.66 6 10 C4.632 10.681 3.255 11.344 1.875 12 C1.492 12.186 1.492 12.186 -0.445 13.125 C-3 14 -3 14 -9 14 C-9 9.71 -9 5.42 -9 1 C-8.67 1 -8.34 1 -8 1 C-8 4.96 -8 8.92 -8 13 C-6.35 12.67 -4.7 12.34 -3 12 C-2.67 10.68 -2.34 9.36 -2 8 C-1.34 8 -0.68 8 0 8 C0.33 7.01 0.66 6.02 1 5 C1.66 4.67 2.32 4.34 3 4 C2.505 3.526 2.01 3.051 1.5 2.562 C0 1 0 1 0 0 Z " fill="#95210B" transform="translate(101,59)"/>
<path d="M0 0 C1.917 0.79 3.834 1.582 5.75 2.375 C6.284 2.595 6.284 2.595 8.984 3.711 C12 5 12 5 13.74 6.041 C16.887 7.377 19.764 7.437 23.172 7.633 C23.854 7.674 24.537 7.716 25.24 7.759 C27.409 7.889 29.58 8.007 31.75 8.125 C33.225 8.211 34.701 8.299 36.176 8.387 C39.783 8.6 43.391 8.803 47 9 C47 9.33 47 9.66 47 10 C31.427 10.474 17.087 10.072 2 6 C2 4.68 2 3.36 2 2 C1.34 2 0.68 2 0 2 C0 1.34 0 0.68 0 0 Z " fill="#DDC19C" transform="translate(57,163)"/>
<path d="M0 0 C0.66 0 1.32 0 2 0 C2.473 10.167 2.653 19.737 -0.312 29.562 C-0.525 30.269 -0.738 30.976 -0.958 31.705 C-2.086 35.124 -3.111 37.755 -6 40 C-5.723 38.926 -5.446 37.852 -5.16 36.746 C-4.794 35.31 -4.428 33.874 -4.062 32.438 C-3.88 31.733 -3.698 31.029 -3.51 30.303 C-1.64 22.926 -0.834 15.646 -0.438 8.062 C-0.416 7.673 -0.416 7.673 -0.307 5.701 C-0.202 3.801 -0.1 1.9 0 0 Z " fill="#B82223" transform="translate(152,92)"/>
<path d="M0 0 C1 1 1 1 1.098 2.848 C1.081 3.873 1.081 3.873 1 9 C-0.65 9 -2.3 9 -4 9 C-4 8.34 -4 7.68 -4 7 C-6.31 6.34 -8.62 5.68 -11 5 C-11 4.01 -11 3.02 -11 2 C-7.367 -0.325 -4.233 -0.24 0 0 Z " fill="#EE3128" transform="translate(85,56)"/>
<path d="M0 0 C0.66 0.33 1.32 0.66 2 1 C1.397 1.401 0.793 1.802 0.172 2.215 C-5.744 6.423 -8.757 10.083 -11 17 C-9.68 16.67 -8.36 16.34 -7 16 C-7.33 16.66 -7.66 17.32 -8 18 C-8.66 18 -9.32 18 -10 18 C-10 18.66 -10 19.32 -10 20 C-8.68 20.33 -7.36 20.66 -6 21 C-5.67 22.32 -5.34 23.64 -5 25 C-6.938 24.625 -6.938 24.625 -9 24 C-9.33 23.34 -9.66 22.68 -10 22 C-12.314 21.269 -14.648 20.599 -17 20 C-16.67 19.01 -16.34 18.02 -16 17 C-16 17.66 -16 18.32 -16 19 C-13.169 16.708 -12.221 14.156 -10.875 10.84 C-8.563 5.979 -4.912 2.257 0 0 Z " fill="#647D0F" transform="translate(110,35)"/>
<path d="M0 0 C2.895 3.554 5.583 7.211 8.25 10.938 C11.613 15.472 14.824 18.863 19.566 21.914 C20.039 22.272 20.513 22.631 21 23 C21 23.66 21 24.32 21 25 C11.478 21.648 3.659 12.774 -1 4 C-0.711 1.672 -0.711 1.672 0 0 Z " fill="#E53836" transform="translate(39,137)"/>
<path d="M0 0 C0.33 0 0.66 0 1 0 C1.026 0.969 1.052 1.939 1.078 2.938 C1.603 16.888 3.925 29.355 10.926 41.645 C12 44 12 44 11 47 C2.51 30.878 -0.67 18.344 0 0 Z " fill="#C41B1A" transform="translate(26,95)"/>
<path d="M0 0 C-1.556 4.278 -3.06 6.355 -7.062 8.375 C-10.61 10 -10.61 10 -13 10 C-12.453 6.17 -10.895 4.493 -8 2 C-3.516 -1.172 -3.516 -1.172 0 0 Z " fill="#6F9A06" transform="translate(112,42)"/>
<path d="M0 0 C-0.33 0.66 -0.66 1.32 -1 2 C-4.062 2.625 -4.062 2.625 -7 3 C-7.33 3.99 -7.66 4.98 -8 6 C-10.709 7.354 -13.009 7.065 -16 7 C-16.33 6.34 -16.66 5.68 -17 5 C-14.662 1.494 -13.172 1.224 -9.176 0.34 C-6.065 -0.146 -3.143 -0.131 0 0 Z " fill="#F54531" transform="translate(71,55)"/>
<path d="M0 0 C1.666 -0.043 3.334 -0.041 5 0 C6 1 6 1 6.188 3.438 C6 6 6 6 4 8 C0.875 8.125 0.875 8.125 -2 8 C-2 4.233 -1.765 3.088 0 0 Z " fill="#FA7B66" transform="translate(69,84)"/>
<path d="M0 0 C0 1.98 0 3.96 0 6 C-0.536 5.67 -1.072 5.34 -1.625 5 C-4.738 3.689 -6.641 3.53 -10 4 C-12.27 5.481 -14.022 7.116 -16 9 C-16 5 -16 5 -14.785 3.516 C-9.842 -0.116 -6.052 -0.618 0 0 Z " fill="#FB5340" transform="translate(64,71)"/>
<path d="M0 0 C0.33 0.66 0.66 1.32 1 2 C0.045 2.037 -0.91 2.075 -1.895 2.113 C-9.98 2.524 -17.256 3.44 -25 6 C-25.33 5.34 -25.66 4.68 -26 4 C-17.093 -0.148 -9.641 -0.468 0 0 Z " fill="#D03834" transform="translate(78,53)"/>
<path d="M0 0 C-5.375 3.583 -11.615 3.145 -17.902 3.098 C-18.625 3.096 -19.347 3.095 -20.092 3.093 C-22.374 3.088 -24.656 3.075 -26.938 3.062 C-28.495 3.057 -30.053 3.053 -31.611 3.049 C-35.408 3.038 -39.204 3.021 -43 3 C-43 2.67 -43 2.34 -43 2 C-42.057 1.98 -41.114 1.96 -40.142 1.94 C-36.629 1.862 -33.116 1.775 -29.603 1.683 C-28.085 1.644 -26.567 1.61 -25.049 1.578 C-22.862 1.532 -20.675 1.474 -18.488 1.414 C-17.831 1.398 -17.831 1.398 -14.505 1.319 C-0.002 -0 -0.002 -0 0 0 Z " fill="#E8CFAE" transform="translate(124,171)"/>
<path d="M0 0 C0.66 0.33 1.32 0.66 2 1 C-4.539 5.784 -10.505 7.288 -18.688 7.312 C-19.329 7.321 -19.329 7.321 -22.574 7.363 C-26.113 6.988 -27.474 6.423 -30 4 C-29.598 4.082 -29.598 4.082 -27.562 4.5 C-18.257 5.806 -8.031 5.354 0 0 Z " fill="#5C6E0C" transform="translate(135,56)"/>
<path d="M0 0 C0 0.33 0 0.66 0 1 C-0.4 0.964 -0.4 0.964 -2.422 0.781 C-9.97 0.143 -17.426 -0.123 -25 0 C-25.33 -0.66 -25.66 -1.32 -26 -2 C-16.512 -3.069 -9.03 -3.44 0 0 Z " fill="#AB1613" transform="translate(92,168)"/>
<path d="M0 0 C-3.1 3.277 -5.971 5.931 -10 8 C-10.66 8 -11.32 8 -12 8 C-11.683 5.068 -11.368 3.41 -9.375 1.188 C-6.169 -0.416 -3.532 -0.204 0 0 Z " fill="#FA664E" transform="translate(57,66)"/>
<path d="M0 0 C0.99 0.33 1.98 0.66 3 1 C2.67 1.66 2.34 2.32 2 3 C1.847 4.739 1.751 6.482 1.684 8.227 C1.642 9.258 1.6 10.289 1.557 11.352 C1.537 11.892 1.537 11.892 1.438 14.625 C1.394 15.713 1.351 16.801 1.307 17.922 C1.2 20.614 1.098 23.307 1 26 C0.67 26 0.34 26 0 26 C-0.024 25.553 -0.024 25.553 -0.148 23.289 C-0.597 16.037 -1.321 9.074 -3 2 C-2.01 1.34 -1.02 0.68 0 0 Z " fill="#AF651C" transform="translate(88,41)"/>
<path d="M0 0 C0.33 0 0.66 0 1 0 C1 3.96 1 7.92 1 12 C2.65 11.67 4.3 11.34 6 11 C6.33 9.68 6.66 8.36 7 7 C7.66 7 8.32 7 9 7 C9 7.66 9 8.32 9 9 C10.98 8.67 12.96 8.34 15 8 C9.901 12.154 6.7 13 0 13 C0 8.71 0 4.42 0 0 Z " fill="#9D130A" transform="translate(92,60)"/>
<path d="M0 0 C0.66 0.33 1.32 0.66 2 1 C1.67 1.66 1.34 2.32 1 3 C0.01 2.67 -0.98 2.34 -2 2 C-2.33 9.59 -2.66 17.18 -3 25 C-3.33 25 -3.66 25 -4 25 C-4.33 17.41 -4.66 9.82 -5 2 C-3.35 1.34 -1.7 0.68 0 0 Z " fill="#743F0C" transform="translate(94,42)"/>
<path d="M0 0 C0.66 0.66 1.32 1.32 2 2 C3.988 2.398 5.989 2.738 8 3 C7 5 7 5 4.164 6.105 C2.996 6.463 1.828 6.82 0.625 7.188 C-0.538 7.552 -1.7 7.917 -2.898 8.293 C-6 9 -6 9 -9 8 C-8.536 7.804 -8.536 7.804 -6.188 6.812 C-2.774 4.872 -1.688 3.47 0 0 Z " fill="#537903" transform="translate(112,42)"/>
<path d="M0 0 C-0.382 0.289 -0.382 0.289 -2.312 1.75 C-5 4 -5 4 -6.688 6.25 C-6.904 6.539 -6.904 6.539 -8 8 C-8.66 8 -9.32 8 -10 8 C-10.33 9.32 -10.66 10.64 -11 12 C-11.425 7.668 -11.47 5.65 -8.875 2.062 C-5.569 -0.31 -3.976 -0.462 0 0 Z " fill="#FCA994" transform="translate(59,75)"/>
<path d="M0 0 C0.485 0.01 0.485 0.01 2.938 0.062 C3.267 1.383 3.597 2.703 3.938 4.062 C1.297 4.722 -1.343 5.382 -4.062 6.062 C-4.105 4.396 -4.103 2.729 -4.062 1.062 C-3.062 0.062 -3.062 0.062 0 0 Z " fill="#E1291B" transform="translate(97.0625,58.9375)"/>
<path d="M0 0 C0.99 0.66 1.98 1.32 3 2 C2.67 2.66 2.34 3.32 2 4 C0.886 3.794 -0.227 3.587 -1.375 3.375 C-2.571 3.251 -3.767 3.127 -5 3 C-7 5 -7 5 -9 8 C-9.188 5.125 -9.188 5.125 -9 2 C-5.53 -0.313 -4.075 -0.34 0 0 Z " fill="#8D522A" transform="translate(93,39)"/>
<path d="M0 0 C0.99 0.66 1.98 1.32 3 2 C-0.96 2 -4.92 2 -9 2 C-9 2.66 -9 3.32 -9 4 C-10.65 4 -12.3 4 -14 4 C-14.33 3.34 -14.66 2.68 -15 2 C-10.045 -0.033 -5.304 -0.687 0 0 Z " fill="#759539" transform="translate(126,32)"/>
<path d="M0 0 C2.625 0.375 2.625 0.375 5 1 C4.67 1.165 4.67 1.165 3 2 C2.375 4.062 2.375 4.062 2 6 C0.35 6.33 -1.3 6.66 -3 7 C-2.25 2.25 -2.25 2.25 0 0 Z " fill="#B4130F" transform="translate(96,65)"/>
<path d="M0 0 C0.33 0.66 0.66 1.32 1 2 C-3.083 3.083 -6.179 2.835 -10.312 2.062 C-11.381 1.868 -12.45 1.673 -13.551 1.473 C-14.359 1.317 -15.167 1.161 -16 1 C-16 0.67 -16 0.34 -16 0 C-14.084 -0.196 -12.167 -0.381 -10.25 -0.562 C-9.716 -0.615 -9.716 -0.615 -7.016 -0.879 C-4.343 -0.986 -2.476 -0.966 0 0 Z " fill="#B41913" transform="translate(129,64)"/>
<path d="M0 0 C1.98 0.99 3.96 1.98 6 3 C6 3.99 6 4.98 6 6 C6.66 6 7.32 6 8 6 C8 7.32 8 8.64 8 10 C6.68 10 5.36 10 4 10 C3.67 8.02 3.34 6.04 3 4 C2.34 4 1.68 4 1 4 C1 3.34 1 2.68 1 2 C0.34 1.67 -0.32 1.34 -1 1 C-0.67 0.67 -0.34 0.34 0 0 Z " fill="#ECD3B8" transform="translate(51,159)"/>
<path d="M0 0 C2.97 0.99 5.94 1.98 9 3 C8.67 3.66 8.34 4.32 8 5 C7.01 4.67 6.02 4.34 5 4 C4.67 4.99 4.34 5.98 4 7 C-2.75 6.25 -2.75 6.25 -5 4 C0.75 4.875 0.75 4.875 3 6 C2.67 5.01 2.34 4.02 2 3 C1.34 2.67 0.68 2.34 0 2 C0 1.34 0 0.68 0 0 Z " fill="#D61C16" transform="translate(72,60)"/>
<path d="M0 0 C3.407 2.246 6.765 4.511 10 7 C9.67 8.32 9.34 9.64 9 11 C7.68 10.67 6.36 10.34 5 10 C4.917 9.237 4.835 8.474 4.75 7.688 C3.845 4.445 2.712 3.837 0 2 C0 1.34 0 0.68 0 0 Z " fill="#5D7E22" transform="translate(139,38)"/>
<path d="M0 0 C0.33 0.66 0.66 1.32 1 2 C-0.56 2.509 -2.123 3.007 -3.688 3.5 C-4.123 3.639 -4.123 3.639 -6.324 4.344 C-8.994 4.999 -11.264 5.118 -14 5 C-12 2 -12 2 -9.18 1.27 C-8.089 1.119 -6.999 0.968 -5.875 0.812 C-4.779 0.654 -3.684 0.495 -2.555 0.332 C-1.712 0.222 -0.869 0.113 0 0 Z " fill="#F7E9D3" transform="translate(139,169)"/>
<path d="M0 0 C0 0.66 0 1.32 0 2 C0.99 2.66 1.98 3.32 3 4 C2.687 4.066 2.687 4.066 1.102 4.402 C0.693 4.491 0.693 4.491 -1.375 4.938 C-2.187 5.112 -2.999 5.286 -3.836 5.465 C-6 6 -6 6 -8 7 C-8.33 5.35 -8.66 3.7 -9 2 C-8.01 2.33 -7.02 2.66 -6 3 C-1.696 0 -1.696 0 0 0 Z " fill="#F64432" transform="translate(74,77)"/>
<path d="M0 0 C0.66 0.33 1.32 0.66 2 1 C1.385 1.436 0.77 1.871 0.137 2.32 C-4.612 5.82 -7.952 8.403 -10 14 C-10.66 14 -11.32 14 -12 14 C-10.203 8.447 -7.036 4.468 -2.312 1.062 C-1.549 0.712 -0.786 0.361 0 0 Z " fill="#668829" transform="translate(110,35)"/>
<path d="M0 0 C4.379 0.52 8.688 1.057 13 2 C12.67 2.66 12.34 3.32 12 4 C7.452 4.178 4.121 3.998 0 2 C0 1.34 0 0.68 0 0 Z " fill="#8BB010" transform="translate(106,53)"/>
<path d="M0 0 C1.98 0.825 1.98 0.825 12 5 C12 5.33 12 5.66 12 6 C8.7 6 5.4 6 2 6 C2 4.68 2 3.36 2 2 C1.34 2 0.68 2 0 2 C0 1.34 0 0.68 0 0 Z " fill="#DDB594" transform="translate(57,163)"/>
<path d="M0 0 C0.33 0.99 0.66 1.98 1 3 C-2.3 5.64 -5.6 8.28 -9 11 C-9 8 -9 8 -7.031 5.957 C-6.196 5.249 -5.361 4.542 -4.5 3.812 C-3.665 3.097 -2.829 2.382 -1.969 1.645 C-1.319 1.102 -0.669 0.559 0 0 Z " fill="#EBC9AE" transform="translate(131,155)"/>
<path d="M0 0 C-3.764 2.491 -6.866 2.031 -11.25 1.625 C-12.513 1.514 -13.777 1.403 -15.078 1.289 C-16.042 1.194 -17.007 1.098 -18 1 C-18 0.67 -18 0.34 -18 0 C-11.747 -0.833 -6.232 -1.039 0 0 Z " fill="#C48D6B" transform="translate(87,168)"/>
<path d="M0 0 C2.31 0 4.62 0 7 0 C7 1.65 7 3.3 7 5 C4.062 4.188 4.062 4.188 1 3 C0.67 2.01 0.34 1.02 0 0 Z " fill="#F73C31" transform="translate(78,56)"/>
<path d="M0 0 C0.33 0.66 0.66 1.32 1 2 C1.66 2 2.32 2 3 2 C2.67 3.98 2.34 5.96 2 8 C1.01 8.33 0.02 8.66 -1 9 C-0.67 6.03 -0.34 3.06 0 0 Z " fill="#E3E0CF" transform="translate(95,45)"/>
<path d="M0 0 C2.812 -0.25 2.812 -0.25 6 0 C7.875 2 7.875 2 9 4 C2.25 3.125 2.25 3.125 0 2 C0 1.34 0 0.68 0 0 Z " fill="#81AA0C" transform="translate(124,45)"/>
<path d="M0 0 C2.152 3.228 2.201 4.284 2 8 C-0.64 7.67 -3.28 7.34 -6 7 C-4.68 6.67 -3.36 6.34 -2 6 C-2 5.34 -2 4.68 -2 4 C-1.34 4 -0.68 4 0 4 C0 2.68 0 1.36 0 0 Z " fill="#E5CFC1" transform="translate(84,47)"/>
<path d="M0 0 C0.883 2.467 1.131 3.639 0.223 6.141 C-0.16 6.837 -0.543 7.533 -0.938 8.25 C-1.318 8.956 -1.698 9.663 -2.09 10.391 C-2.39 10.922 -2.691 11.453 -3 12 C-3.66 11.67 -4.32 11.34 -5 11 C-3.775 6.947 -2.301 3.556 0 0 Z " fill="#C63632" transform="translate(33,73)"/>
<path d="M0 0 C-1.875 4.75 -1.875 4.75 -3 7 C-4.32 6.34 -5.64 5.68 -7 5 C-7 4.34 -7 3.68 -7 3 C-2.615 0 -2.615 0 0 0 Z " fill="#EFE6D9" transform="translate(138,57)"/>
<path d="M0 0 C6.4 -0.369 6.4 -0.369 9.438 1.5 C9.953 1.995 10.469 2.49 11 3 C4.6 3.369 4.6 3.369 1.562 1.5 C1.047 1.005 0.531 0.51 0 0 Z " fill="#F6E6CE" transform="translate(53,169)"/>
<path d="M0 0 C0.75 1.688 0.75 1.688 1 4 C-0.938 6.75 -0.938 6.75 -3 9 C-3.66 8.67 -4.32 8.34 -5 8 C-4.458 4.204 -2.799 2.528 0 0 Z " fill="#FB553F" transform="translate(41,73)"/>
<path d="M0 0 C4.419 1.35 6.343 3.261 9 7 C5.131 6.427 2.848 4.61 0 2 C0 1.34 0 0.68 0 0 Z " fill="#D92B2E" transform="translate(131,64)"/>
<path d="M0 0 C0.66 0.33 1.32 0.66 2 1 C1.401 3.352 0.731 5.686 0 8 C-0.33 8.165 -0.33 8.165 -2 9 C-2.25 3.375 -2.25 3.375 0 0 Z " fill="#F53120" transform="translate(35,92)"/>
<path d="M0 0 C2.31 0 4.62 0 7 0 C6.67 0.99 6.34 1.98 6 3 C4.02 3 2.04 3 0 3 C0 2.01 0 1.02 0 0 Z " fill="#F84D3A" transform="translate(104,73)"/>
<path d="M0 0 C1.875 1.188 1.875 1.188 2.875 3.188 C0.532 2.932 -1.803 2.595 -4.125 2.188 C-4.455 1.528 -4.785 0.867 -5.125 0.188 C-2.125 -0.812 -2.125 -0.812 0 0 Z " fill="#699108" transform="translate(113.125,48.8125)"/>
<path d="M0 0 C-1.65 1.65 -3.3 3.3 -5 5 C-5 4.01 -5 3.02 -5 2 C-5.99 1.67 -6.98 1.34 -8 1 C-8 0.67 -8 0.34 -8 0 C-2.25 -1.125 -2.25 -1.125 0 0 Z " fill="#F9523F" transform="translate(60,92)"/>
<path d="M0 0 C3.63 0 7.26 0 11 0 C10.505 0.495 10.505 0.495 8 3 C5.151 2.798 2.749 1.856 0 1 C0 0.67 0 0.34 0 0 Z " fill="#D31B17" transform="translate(116,68)"/>
<path d="M0 0 C1.32 0.66 2.64 1.32 4 2 C3.67 2.66 3.34 3.32 3 4 C3.66 4.33 4.32 4.66 5 5 C3.02 5.33 1.04 5.66 -1 6 C-0.34 5.01 0.32 4.02 1 3 C0.67 2.01 0.34 1.02 0 0 Z " fill="#C61D1F" transform="translate(128,62)"/>
<path d="M0 0 C-1.98 0.99 -3.96 1.98 -6 3 C-6.99 2.01 -7.98 1.02 -9 0 C-5.622 -0.845 -3.325 -1.108 0 0 Z " fill="#789C0A" transform="translate(123,47)"/>
</svg>
