<?xml version="1.0" encoding="UTF-8"?>
<!-- Generator: visioncortex VTracer 0.6.12 -->
<svg version="1.1" xmlns="http://www.w3.org/2000/svg" width="175" height="190">
<path d="M0 0 C57.75 0 115.5 0 175 0 C175 62.7 175 125.4 175 190 C117.25 190 59.5 190 0 190 C0 127.3 0 64.6 0 0 Z " fill="#FCF8ED" transform="translate(0,0)"/>
<path d="M0 0 C0.602 0.443 1.204 0.887 1.824 1.344 C2.278 1.633 2.278 1.633 4.574 3.094 C7.88 6.399 9.802 10.159 11.824 14.344 C12.136 14.973 12.448 15.602 12.77 16.25 C14.478 20.165 14.987 23.649 15.199 27.906 C15.564 34.21 16.712 40.182 18.074 46.344 C18.292 47.331 18.51 48.318 18.735 49.335 C19.833 54.212 20.996 59.063 22.266 63.898 C25.147 74.976 26.664 84.901 25.824 96.344 C25.764 97.385 25.703 98.427 25.641 99.5 C24.057 114.043 15.48 126.771 4.824 136.344 C-9.49 147.753 -24.476 149.763 -42.176 148.344 C-46.154 147.822 -49.493 146.919 -53.176 145.344 C-54.301 144.868 -55.426 144.392 -56.586 143.902 C-69.928 137.914 -79.835 128.917 -85.457 115.223 C-87.285 109.992 -88.757 104.889 -89.176 99.344 C-89.279 98.044 -89.382 96.745 -89.488 95.406 C-89.166 74.44 -77.01 57.534 -63.261 42.831 C-56.575 35.625 -51.04 27.704 -45.68 19.491 C-32.773 -0.262 -32.773 -0.262 -23.453 -3.199 C-15.186 -4.858 -7.119 -4.737 0 0 Z " fill="#F4E969" transform="translate(113.17578125,36.65625)"/>
<path d="M0 0 C0.602 0.443 1.204 0.887 1.824 1.344 C2.278 1.633 2.278 1.633 4.574 3.094 C7.88 6.399 9.802 10.159 11.824 14.344 C12.136 14.973 12.448 15.602 12.77 16.25 C14.478 20.165 14.987 23.649 15.199 27.906 C15.564 34.21 16.712 40.182 18.074 46.344 C18.292 47.331 18.51 48.318 18.735 49.335 C19.833 54.212 20.996 59.063 22.266 63.898 C25.147 74.976 26.664 84.901 25.824 96.344 C25.764 97.385 25.703 98.427 25.641 99.5 C24.057 114.043 15.48 126.771 4.824 136.344 C-9.49 147.753 -24.476 149.763 -42.176 148.344 C-46.154 147.822 -49.493 146.919 -53.176 145.344 C-54.301 144.868 -55.426 144.392 -56.586 143.902 C-69.928 137.914 -79.835 128.917 -85.457 115.223 C-87.285 109.992 -88.757 104.889 -89.176 99.344 C-89.279 98.044 -89.382 96.745 -89.488 95.406 C-89.166 74.44 -77.01 57.534 -63.261 42.831 C-56.575 35.625 -51.04 27.704 -45.68 19.491 C-32.773 -0.262 -32.773 -0.262 -23.453 -3.199 C-15.186 -4.858 -7.119 -4.737 0 0 Z M-37.176 12.344 C-39.258 15.291 -41.09 18.364 -42.926 21.469 C-48.743 30.974 -55.266 39.268 -62.992 47.277 C-73.385 58.106 -80.714 69.549 -84.176 84.344 C-84.365 85.144 -84.555 85.945 -84.75 86.77 C-86.867 99.569 -84.749 111.546 -77.617 122.43 C-73.622 127.735 -70.265 131.39 -64.363 134.594 C-63.739 134.937 -63.114 135.281 -62.471 135.635 C-51.668 141.424 -40.318 142.053 -28.426 138.781 C-15.297 134.225 -4.662 124.451 1.547 112.102 C9.712 94.473 9.96 78.645 6.962 59.727 C5.426 49.178 5.365 38.575 5.291 27.932 C5.281 27.218 5.271 26.504 5.26 25.768 C5.232 23.816 5.22 21.863 5.209 19.91 C4.489 13.232 1.923 8.806 -3.176 4.344 C-16.598 -4.604 -27.742 1.622 -37.176 12.344 Z " fill="#335512" transform="translate(113.17578125,36.65625)"/>
<path d="M0 0 C5.823 5.823 9.526 12.277 9.625 20.625 C9.686 21.688 9.746 22.752 9.809 23.848 C10.185 34.321 8.652 42.371 1.875 50.562 C-4.347 56.91 -8.916 58.832 -17.875 59.188 C-25.452 58.969 -29.492 57.354 -34.855 52.203 C-41.228 45.251 -42.046 38.647 -41.855 29.488 C-40.784 20.871 -35.965 12.336 -29.375 6.625 C-20.278 0.129 -11.182 -4.556 0 0 Z " fill="#AF6216" transform="translate(89.375,94.375)"/>
<path d="M0 0 C2.961 1.46 4.898 3.494 7.012 5.992 C7.342 6.322 7.342 6.322 9.012 7.992 C10.876 12.498 11.273 16.391 11.32 21.242 C11.343 22.659 11.367 24.076 11.391 25.492 C11.4 26.227 11.409 26.962 11.419 27.719 C11.565 38.593 11.879 49.292 13.574 60.055 C16.555 79.362 15.931 97.985 5.012 114.992 C2.228 118.569 -0.76 121.815 -3.988 124.992 C-4.576 125.579 -5.164 126.165 -5.77 126.77 C-15.356 135.655 -26.776 138.479 -39.535 138.234 C-49.907 137.507 -59.821 132.929 -67.352 125.734 C-76.514 115.002 -79.811 102.931 -79.159 89.096 C-77.571 69.488 -66.449 55.088 -53.414 41.262 C-47.093 34.544 -42.08 27.457 -37.109 19.73 C-27.779 5.266 -18.52 -6.788 0 0 Z M-27.488 14.043 C-29.92 17.203 -31.705 20.373 -33.363 23.992 C-35.146 27.284 -37.321 29.397 -39.988 31.992 C-39.988 32.652 -39.988 33.312 -39.988 33.992 C-40.648 33.992 -41.308 33.992 -41.988 33.992 C-43.285 35.496 -43.285 35.496 -44.738 37.555 C-48.352 42.531 -52.145 47.194 -56.551 51.492 C-63.988 59.12 -63.988 59.12 -63.988 62.992 C-64.648 62.992 -65.308 62.992 -65.988 62.992 C-73.082 76.732 -75.67 89.947 -71.863 105.055 C-68.798 114.356 -63.506 121.989 -54.859 126.695 C-42.751 132.15 -32.619 132.359 -19.988 127.992 C-13.904 125.357 -9.326 121.998 -4.988 116.992 C-4.988 116.332 -4.988 115.672 -4.988 114.992 C-4.328 114.992 -3.668 114.992 -2.988 114.992 C-1.673 112.753 -0.388 110.504 0.887 108.242 C1.252 107.627 1.616 107.012 1.992 106.379 C7.483 96.496 7.321 85.432 7.218 74.392 C7.199 72.363 7.197 70.334 7.197 68.305 C7.169 61.996 6.975 55.818 6.246 49.553 C5.962 46.446 5.893 43.362 5.836 40.242 C5.824 39.649 5.824 39.649 5.764 36.648 C5.721 34.211 5.689 31.774 5.67 29.336 C5.5 22.049 4.958 15.312 1.012 8.992 C-2.855 5.704 -6.298 4.18 -11.363 3.617 C-18.854 4.392 -22.884 8.483 -27.488 14.043 Z " fill="#D9DB3E" transform="translate(106.98828125,39.0078125)"/>
<path d="M0 0 C2.533 1.985 4.709 4.035 6.844 6.445 C6.184 6.775 5.524 7.105 4.844 7.445 C5.004 8.026 5.004 8.026 5.818 10.962 C6.838 15.059 7.155 18.941 7.258 23.172 C7.277 23.882 7.297 24.592 7.316 25.324 C7.376 27.573 7.422 29.821 7.469 32.07 C7.507 33.553 7.546 35.036 7.586 36.52 C7.816 45.496 7.892 54.465 7.844 63.445 C7.514 63.445 7.184 63.445 6.844 63.445 C4.778 52.519 4.479 41.869 4.387 30.786 C4.366 28.56 4.326 26.335 4.285 24.109 C4.278 23.457 4.278 23.457 4.244 20.155 C3.668 14.818 2.034 10.986 -1.281 6.695 C-6.705 2.45 -13.094 0.745 -19.969 1.043 C-27.925 2.506 -33.545 9.272 -38.156 15.445 C-40.26 18.679 -42.239 21.989 -44.236 25.289 C-49.244 33.433 -55.354 40.523 -61.98 47.391 C-72.374 58.209 -79.697 69.659 -83.156 84.445 C-83.346 85.246 -83.535 86.046 -83.73 86.871 C-85.857 99.726 -83.716 111.732 -76.5 122.629 C-76.278 122.929 -76.278 122.929 -75.156 124.445 C-74.87 124.851 -74.87 124.851 -73.422 126.906 C-70.766 129.883 -67.861 131.735 -64.406 133.633 C-63.777 133.981 -63.148 134.329 -62.5 134.688 C-51.682 140.521 -40.337 141.165 -28.406 137.883 C-15.566 133.436 -5.574 124.266 0.531 112.238 C6.121 100.344 8.177 89.986 7.969 76.82 C7.96 75.721 7.951 74.621 7.941 73.488 C7.918 70.807 7.885 68.126 7.844 65.445 C13.006 73.189 11.342 87.173 9.656 96.07 C8.434 101.906 6.731 107.224 3.844 112.445 C3.447 113.229 3.05 114.013 2.641 114.82 C-4.634 128.2 -15.521 136.745 -29.883 141.312 C-42.746 144.293 -54.478 141.939 -66.234 136.332 C-68.156 135.445 -68.156 135.445 -70.781 134.695 C-78.649 130.554 -83.044 121.378 -86.156 113.445 C-91.102 96.471 -89.329 80.887 -80.906 65.305 C-75.876 57.085 -69.796 49.941 -63.241 42.932 C-56.555 35.727 -51.02 27.805 -45.66 19.593 C-32.753 -0.16 -32.753 -0.16 -23.434 -3.098 C-15.225 -4.745 -7.11 -4.643 0 0 Z " fill="#446026" transform="translate(113.15625,36.5546875)"/>
<path d="M0 0 C1.98 0.66 3.96 1.32 6 2 C6.66 1.34 7.32 0.68 8 0 C11.584 9.408 11.268 20.205 7.391 29.461 C4.004 35.644 -0.925 41.579 -7.535 44.406 C-14.649 46.12 -23.137 46.686 -29.625 42.875 C-34.856 38.835 -39.61 33.619 -41 27 C-41.238 21.985 -41.174 17.016 -41 12 C-40.34 11.67 -39.68 11.34 -39 11 C-38.963 11.748 -38.925 12.495 -38.887 13.266 C-38.821 14.25 -38.755 15.235 -38.688 16.25 C-38.629 17.225 -38.571 18.199 -38.512 19.203 C-37.949 22.277 -36.958 23.628 -35 26 C-35 26.66 -35 27.32 -35 28 C-33.68 27.34 -32.36 26.68 -31 26 C-30.34 26.99 -29.68 27.98 -29 29 C-28.34 29 -27.68 29 -27 29 C-27 29.66 -27 30.32 -27 31 C-26.01 30.67 -25.02 30.34 -24 30 C-23.67 30.66 -23.34 31.32 -23 32 C-23.33 32.66 -23.66 33.32 -24 34 C-9.125 30.251 -9.125 30.251 -4.688 24.215 C-0.534 16.534 0.273 8.591 0 0 Z " fill="#8B4B0F" transform="translate(89,108)"/>
<path d="M0 0 C2.961 1.46 4.898 3.494 7.012 5.992 C7.342 6.322 7.342 6.322 9.012 7.992 C10.876 12.498 11.273 16.391 11.32 21.242 C11.343 22.659 11.367 24.076 11.391 25.492 C11.4 26.227 11.409 26.962 11.419 27.719 C11.565 38.593 11.879 49.292 13.574 60.055 C16.555 79.362 15.931 97.985 5.012 114.992 C2.228 118.569 -0.76 121.815 -3.988 124.992 C-4.576 125.579 -5.164 126.165 -5.77 126.77 C-15.356 135.655 -26.776 138.479 -39.535 138.234 C-49.907 137.507 -59.821 132.929 -67.352 125.734 C-75.124 116.629 -79.197 106.122 -79.051 94.242 C-79.046 93.545 -79.042 92.847 -79.037 92.129 C-79.025 90.417 -79.007 88.704 -78.988 86.992 C-78.658 86.992 -78.328 86.992 -77.988 86.992 C-77.939 87.907 -77.89 88.823 -77.84 89.766 C-77.765 90.954 -77.69 92.143 -77.613 93.367 C-77.544 94.551 -77.474 95.734 -77.402 96.953 C-76.988 99.992 -76.988 99.992 -74.988 101.992 C-74.381 104 -73.826 106.024 -73.301 108.055 C-70.568 117.215 -65.495 124.391 -56.988 128.992 C-46.591 133.807 -35.502 135.928 -24.137 133.344 C-18.592 131.284 -13.937 128.101 -9.215 124.578 C-6.988 122.992 -6.988 122.992 -4.824 122.031 C-2.458 120.692 -2.051 119.465 -0.988 116.992 C-0.038 115.445 0.921 113.904 1.887 112.367 C7.585 102.908 10.133 94.355 10.145 83.254 C10.146 82.022 10.147 80.791 10.148 79.521 C10.145 78.254 10.141 76.986 10.137 75.68 C10.141 74.393 10.144 73.105 10.148 71.779 C10.147 70.554 10.146 69.329 10.145 68.066 C10.144 67.507 10.144 67.507 10.141 64.678 C10.012 61.992 10.012 61.992 9.012 59.992 C7.58 50.373 7.731 40.522 7.61 30.814 C7.375 13.293 7.375 13.293 4.012 6.992 C-1.153 2.347 -8.155 1.465 -14.898 1.695 C-21.668 2.657 -25.347 8.617 -29.254 13.652 C-30.547 15.397 -31.783 17.185 -32.988 18.992 C-33.978 18.662 -34.968 18.332 -35.988 17.992 C-26.743 4.026 -17.696 -6.485 0 0 Z " fill="#BCCB26" transform="translate(106.98828125,39.0078125)"/>
<path d="M0 0 C0.66 0.33 1.32 0.66 2 1 C0.667 3.95 -0.833 6.042 -3.062 8.375 C-5.815 11.476 -6.793 13.766 -7 18 C-7.66 18 -8.32 18 -9 18 C-9.268 18.804 -9.536 19.609 -9.812 20.438 C-10.431 22.292 -11.054 24.146 -11.73 25.98 C-16.444 39.115 -17.39 51.93 -12 65 C-6.054 76.702 1.048 80.616 13 85 C13 85.66 13 86.32 13 87 C16.188 86.86 19.375 86.712 22.562 86.562 C23.458 86.523 24.353 86.484 25.275 86.443 C30.246 86.207 35.088 85.802 40 85 C32.717 91.162 24.056 90.603 15 90 C11.462 89.379 8.315 88.371 5 87 C4.158 86.671 3.316 86.343 2.449 86.004 C-6.641 82.017 -12.548 75.397 -16.195 66.215 C-16.328 65.849 -16.328 65.849 -17 64 C-17.286 63.238 -17.572 62.476 -17.867 61.691 C-18.138 60.968 -18.409 60.245 -18.688 59.5 C-20 56 -20 56 -21 55 C-22.266 35.992 -17.566 20.937 -5.637 6.051 C-3.805 3.978 -1.95 1.961 0 0 Z " fill="#D3D839" transform="translate(50,84)"/>
<path d="M0 0 C2.632 3.948 3.077 6.63 3.25 11.25 C4.124 23.537 7.321 35.67 10.441 47.555 C13.322 58.632 14.839 68.557 14 80 C13.939 81.042 13.879 82.083 13.816 83.156 C12.856 91.977 8.584 104.01 1.742 109.965 C1.167 110.306 0.592 110.648 0 111 C-0.738 109.441 -0.738 109.441 -1 107 C0.186 104.537 1.417 102.275 2.812 99.938 C11.561 84.352 10.522 65.247 6.305 48.188 C5.833 46.64 5.343 45.097 4.828 43.563 C1.85 34.341 0.271 25.047 -0.812 15.438 C-0.959 14.277 -1.105 13.116 -1.256 11.92 C-1.384 10.811 -1.512 9.701 -1.645 8.559 C-1.762 7.561 -1.879 6.564 -1.999 5.537 C-2 3 -2 3 0 0 Z " fill="#456129" transform="translate(125,53)"/>
<path d="M0 0 C0 3 0 3 -1.188 4.52 C-3.337 6.275 -5.514 7.455 -8 8.688 C-8.433 8.906 -8.433 8.906 -10.625 10.012 C-13 11 -13 11 -16 11 C-16 11.66 -16 12.32 -16 13 C-10.062 13.965 -4.942 13.891 1 13.062 C1.775 12.963 2.549 12.863 3.348 12.76 C5.233 12.515 7.117 12.259 9 12 C6.496 15.049 4.156 15.717 0.375 16.625 C-4.917 17.917 -4.917 17.917 -6 19 C-11.325 19.293 -16.668 19.244 -22 19.25 C-22.788 19.252 -23.575 19.253 -24.387 19.255 C-61.791 19.26 -61.791 19.26 -71 14 C-71.938 11.062 -71.938 11.062 -72 8 C-71.34 7.01 -70.68 6.02 -70 5 C-69.583 5.205 -69.583 5.205 -67.473 6.242 C-66.347 6.781 -65.222 7.32 -64.062 7.875 C-62.96 8.409 -61.858 8.942 -60.723 9.492 C-47.8 15.1 -30.36 15.449 -17.25 10.438 C-10.927 7.838 -5.299 4.305 0 0 Z " fill="#F4E8CF" transform="translate(119,171)"/>
<path d="M0 0 C3.038 1.333 4.579 2.832 6.113 5.762 C9.097 14.601 8.419 23.745 8.164 32.949 C6.217 29.674 5.975 27.227 5.914 23.449 C5.414 16.418 3.249 10.704 -0.836 4.949 C-4.02 2.305 -7.274 2.019 -11.336 1.512 C-18.305 2.383 -22.325 5.947 -26.562 11.227 C-28.162 13.391 -29.539 15.591 -30.836 17.949 C-31.564 19.221 -32.293 20.492 -33.023 21.762 C-33.622 22.814 -34.22 23.865 -34.836 24.949 C-35.496 24.949 -36.156 24.949 -36.836 24.949 C-36.991 25.259 -36.991 25.259 -37.773 26.824 C-38.461 28.199 -39.148 29.574 -39.836 30.949 C-40.496 30.949 -41.156 30.949 -41.836 30.949 C-41.963 31.322 -41.963 31.322 -42.605 33.211 C-43.913 36.121 -45.208 37.601 -47.523 39.762 C-53.323 45.351 -58.56 51.107 -62.836 57.949 C-63.578 56.227 -63.578 56.227 -63.836 53.949 C-62.219 51.766 -62.219 51.766 -59.961 49.512 C-56.683 46.228 -55.713 44.426 -54.836 39.949 C-53.121 37.766 -53.121 37.766 -50.898 35.512 C-46.465 30.816 -42.79 25.855 -39.199 20.508 C-36.146 16.053 -36.146 16.053 -32.836 14.949 C-31.441 13.348 -31.441 13.348 -30.023 11.324 C-27.985 8.512 -25.929 5.748 -23.711 3.074 C-23.255 2.52 -22.798 1.966 -22.328 1.395 C-16.102 -4.636 -7.446 -2.234 0 0 Z " fill="#DBDE43" transform="translate(106.8359375,42.05078125)"/>
<path d="M0 0 C5.162 7.743 3.498 21.728 1.812 30.625 C0.591 36.46 -1.112 41.779 -4 47 C-4.199 47.392 -4.199 47.392 -5.203 49.375 C-12.478 62.754 -23.364 71.299 -37.727 75.867 C-50.854 78.909 -64.308 76.653 -76 70 C-83.989 64.55 -89.939 56.167 -93 47 C-93.236 44.295 -93.092 41.724 -93 39 C-91.347 42.149 -90.084 45.368 -88.812 48.688 C-83.424 61.431 -75.276 67.586 -62.809 72.941 C-52.171 76.227 -39.99 74.359 -30 70 C-15.703 61.99 -6.807 49.536 -2 34 C-0.012 26.421 0.248 19.18 0.125 11.375 C0.116 10.275 0.107 9.176 0.098 8.043 C0.074 5.362 0.042 2.681 0 0 Z " fill="#628017" transform="translate(121,102)"/>
<path d="M0 0 C0 3.618 -0.863 4.206 -3 7 C-3.284 7.739 -3.567 8.477 -3.859 9.238 C-5.21 12.509 -7.004 15.309 -8.875 18.312 C-17.066 32.34 -20.328 51.061 -16.506 67.068 C-14.109 74.073 -9.153 79.817 -4 85 C-4.33 85.66 -4.66 86.32 -5 87 C-15.946 75.999 -21.519 63.186 -22.438 47.625 C-21.679 29.915 -12.816 12.083 0 0 Z " fill="#517122" transform="translate(46,84)"/>
<path d="M0 0 C-0.53 4.508 -2.252 7.42 -5 11 C-5.66 11 -6.32 11 -7 11 C-6.897 11.681 -6.794 12.361 -6.688 13.062 C-7.137 17.283 -8.886 20.125 -12 23 C-15.75 24 -15.75 24 -19 24 C-20 23 -20 23 -20.188 20.188 C-20.004 17.068 -19.469 15.663 -18 13 C-18 12.01 -18 11.02 -18 10 C-13.593 3.94 -7.651 0 0 0 Z " fill="#C07221" transform="translate(80,94)"/>
<path d="M0 0 C0.33 0 0.66 0 1 0 C1.049 0.915 1.098 1.83 1.148 2.773 C1.223 3.962 1.298 5.15 1.375 6.375 C1.445 7.558 1.514 8.742 1.586 9.961 C2 13 2 13 4 15 C4.608 17.008 5.163 19.032 5.688 21.062 C8.42 30.223 13.493 37.399 22 42 C30.293 45.841 37.24 47.156 46.312 47.062 C47.148 47.058 47.984 47.053 48.846 47.049 C50.897 47.037 52.949 47.019 55 47 C54.67 47.99 54.34 48.98 54 50 C46.621 53.007 35.84 51.702 28.5 49.094 C16.202 43.713 8.402 37.079 3.062 24.625 C0.708 18.576 -0.142 13.75 -0.062 7.25 C-0.058 6.553 -0.053 5.855 -0.049 5.137 C-0.037 3.424 -0.019 1.712 0 0 Z " fill="#ADBF22" transform="translate(28,126)"/>
<path d="M0 0 C0 3 0 3 -1.188 4.52 C-3.337 6.275 -5.514 7.455 -8 8.688 C-8.433 8.906 -8.433 8.906 -10.625 10.012 C-13 11 -13 11 -16 11 C-16 11.66 -16 12.32 -16 13 C-15.175 13.165 -15.175 13.165 -11 14 C-11.33 14.66 -11.66 15.32 -12 16 C-18.414 17.18 -24.807 17.151 -31.312 17.125 C-32.281 17.129 -33.25 17.133 -34.248 17.137 C-43.762 17.124 -52.303 17.014 -61 13 C-63.322 12.595 -65.655 12.239 -68 12 C-68.33 10.02 -68.66 8.04 -69 6 C-68.452 6.211 -68.452 6.211 -65.676 7.277 C-64.221 7.831 -62.767 8.384 -61.312 8.938 C-60.591 9.215 -59.87 9.493 -59.127 9.779 C-58.421 10.047 -57.715 10.314 -56.988 10.59 C-56.666 10.713 -56.666 10.713 -55.036 11.336 C-41.923 15.614 -25.908 14.425 -13.453 8.801 C-8.626 6.284 -4.224 3.432 0 0 Z " fill="#CCBC8D" transform="translate(119,171)"/>
<path d="M0 0 C2.954 4.43 2.69 8.779 3 14 C3.089 14.844 3.178 15.689 3.27 16.559 C3.828 24.676 0.412 30.843 -4.664 37.027 C-6.25 38.688 -6.25 38.688 -9 41 C-9.66 41 -10.32 41 -11 41 C-11.33 41.99 -11.66 42.98 -12 44 C-19.705 45.434 -29.272 47.058 -36.312 43 C-37.199 42.34 -38.086 41.68 -39 41 C-38.67 40.34 -38.34 39.68 -38 39 C-37.744 39.16 -37.744 39.16 -36.449 39.973 C-30.577 42.436 -22.254 42.027 -16.227 40.125 C-8.312 36.019 -3.518 29.772 -0.68 21.398 C0.729 14.355 0.283 7.145 0 0 Z " fill="#DBC735" transform="translate(98,111)"/>
<path d="M0 0 C0.33 0 0.66 0 1 0 C1.41 3.929 1.819 7.857 2.227 11.786 C2.433 13.766 2.639 15.745 2.846 17.725 C3.544 24.456 4.212 31.185 4.739 37.932 C5 40 5 40 6 42 C6.268 45.598 6.232 49.205 6.25 52.812 C6.271 53.811 6.291 54.809 6.312 55.838 C6.36 64.719 6.36 64.719 3 69 C2.315 70.324 1.646 71.656 1 73 C1.005 71.962 1.01 70.924 1.016 69.854 C1.034 65.959 1.046 62.064 1.055 58.168 C1.06 56.491 1.067 54.813 1.075 53.135 C1.157 37.11 1.157 37.11 0.225 29.459 C-0.279 23.952 -0.101 18.401 -0.062 12.875 C-0.058 11.632 -0.053 10.39 -0.049 9.109 C-0.037 6.073 -0.021 3.036 0 0 Z " fill="#E1E148" transform="translate(112,59)"/>
<path d="M0 0 C0.66 0.33 1.32 0.66 2 1 C0.667 3.95 -0.833 6.042 -3.062 8.375 C-5.815 11.476 -6.793 13.766 -7 18 C-7.66 18 -8.32 18 -9 18 C-9.144 18.443 -9.144 18.443 -9.875 20.688 C-10.831 23.504 -11.868 26.251 -13 29 C-13.66 29 -14.32 29 -15 29 C-16.652 34.998 -17.545 40.812 -18.125 47 C-18.211 47.87 -18.298 48.74 -18.387 49.637 C-18.596 51.757 -18.799 53.879 -19 56 C-19.66 55.67 -20.32 55.34 -21 55 C-21.82 34.695 -17.042 18.955 -3.438 3.562 C-2.304 2.363 -1.164 1.17 0 0 Z " fill="#CCD337" transform="translate(50,84)"/>
<path d="M0 0 C1.32 0.33 2.64 0.66 4 1 C3.67 2.98 3.34 4.96 3 7 C2.01 7.33 1.02 7.66 0 8 C-1.125 9.937 -1.125 9.937 -2 12 C-2.33 12.66 -2.66 13.32 -3 14 C-3.66 14 -4.32 14 -5 14 C-5.127 14.373 -5.127 14.373 -5.77 16.262 C-7.077 19.171 -8.372 20.652 -10.688 22.812 C-16.487 28.402 -21.724 34.158 -26 41 C-26.742 39.277 -26.742 39.277 -27 37 C-25.383 34.816 -25.383 34.816 -23.125 32.562 C-19.845 29.276 -18.883 27.476 -18 23 C-16.25 20.781 -16.25 20.781 -14 18.5 C-8.615 12.778 -4.328 6.528 0 0 Z " fill="#D1D83C" transform="translate(70,59)"/>
<path d="M0 0 C-0.33 0.99 -0.66 1.98 -1 3 C-1.278 2.971 -1.278 2.971 -2.688 2.824 C-9.197 2.439 -13.028 3.812 -18 8 C-23.948 13.478 -27.935 19.992 -32.078 26.842 C-36.383 33.846 -41.497 39.916 -47 46 C-47.481 46.536 -47.963 47.072 -48.458 47.625 C-51.284 50.771 -54.131 53.894 -57 57 C-57.66 56.34 -58.32 55.68 -59 55 C-58.361 54.422 -57.721 53.845 -57.062 53.25 C-55 51 -55 51 -54.5 48.875 C-54.418 48.566 -54.418 48.566 -54 47 C-53.415 46.718 -52.83 46.435 -52.227 46.145 C-43.265 41.538 -37.476 30.007 -32.137 21.754 C-13.618 -6.809 -13.618 -6.809 0 0 Z " fill="#6C911C" transform="translate(101,35)"/>
<path d="M0 0 C3.112 0.327 4.651 0.667 6.949 2.855 C7.236 3.24 7.236 3.24 8.688 5.188 C8.978 5.566 8.978 5.566 10.449 7.48 C13.643 12.669 14.269 17.51 14.414 23.531 C14.433 24.244 14.453 24.957 14.473 25.692 C14.532 27.961 14.579 30.23 14.625 32.5 C14.663 33.992 14.702 35.484 14.742 36.977 C14.971 45.986 15.049 54.988 15 64 C14.67 64 14.34 64 14 64 C11.934 53.074 11.635 42.423 11.544 31.34 C11.522 29.115 11.483 26.89 11.441 24.664 C11.428 23.359 11.414 22.054 11.401 20.709 C10.68 14.036 8.233 9.361 3 5 C0.188 3.688 0.188 3.688 -2 3 C-1.34 2.01 -0.68 1.02 0 0 Z " fill="#5B8019" transform="translate(106,36)"/>
<path d="M0 0 C0.33 0 0.66 0 1 0 C1.548 11.416 1.067 20.194 -6.25 29.438 C-9.773 33.22 -13.065 34.615 -18 36 C-17.67 36.66 -17.34 37.32 -17 38 C-26.868 37.403 -34.685 35.94 -42 29 C-41.67 28.34 -41.34 27.68 -41 27 C-40.432 27.422 -39.863 27.843 -39.277 28.277 C-32.696 32.947 -28.038 34.608 -19.938 33.375 C-12.357 31.6 -9.295 27.669 -5.188 21.375 C-1.972 16.193 -0.859 12.397 -0.438 6.312 C-0.354 5.133 -0.27 3.954 -0.184 2.738 C-0.153 2.286 -0.153 2.286 0 0 Z " fill="#975614" transform="translate(96,115)"/>
<path d="M0 0 C3.046 1.508 4.847 3.407 7.02 6 C6.36 7.32 5.7 8.64 5.02 10 C4.731 9.237 4.442 8.474 4.145 7.688 C0.498 3.076 -4.784 2.419 -10.426 1.68 C-15.807 1.406 -18.857 2.315 -22.98 6 C-26.586 10.148 -29.932 14.427 -32.98 19 C-33.97 18.67 -34.96 18.34 -35.98 18 C-26.727 4.022 -17.705 -6.449 0 0 Z " fill="#C4D133" transform="translate(106.98046875,39)"/>
<path d="M0 0 C0.681 0.309 1.361 0.619 2.062 0.938 C2.422 4.712 2.135 6.784 0.5 10.25 C-1.938 12.938 -1.938 12.938 -5.625 13.875 C-6.718 13.896 -7.811 13.916 -8.938 13.938 C-9.938 12.938 -9.938 12.938 -10.438 10.312 C-9.786 5.917 -8.022 4.179 -4.828 1.219 C-2.938 -0.062 -2.938 -0.062 0 0 Z " fill="#DE9C51" transform="translate(69.9375,104.0625)"/>
<path d="M0 0 C0.33 0 0.66 0 1 0 C1.797 3.763 2.069 7.364 2.105 11.195 C2.281 27.228 4.346 37.277 16 49 C15.67 49.66 15.34 50.32 15 51 C3.979 39.923 -1.857 26.807 -2.312 11.062 C-2.173 7.134 -1.264 3.712 0 0 Z " fill="#496428" transform="translate(26,120)"/>
<path d="M0 0 C5.162 7.743 3.498 21.728 1.812 30.625 C0.592 36.455 -1.1 41.789 -4 47 C-4.49 47.911 -4.98 48.823 -5.484 49.762 C-8.44 55.008 -8.44 55.008 -10 57 C-10.99 57 -11.98 57 -13 57 C-12.625 56.429 -12.25 55.858 -11.863 55.27 C-3.061 41.323 0.383 27.712 0.125 11.375 C0.116 10.275 0.107 9.176 0.098 8.043 C0.074 5.362 0.042 2.681 0 0 Z " fill="#5A7A11" transform="translate(121,102)"/>
<path d="M0 0 C0.33 1.32 0.66 2.64 1 4 C1.66 4 2.32 4 3 4 C2.723 11.328 0.158 16.973 -4 23 C-6.199 24.824 -6.199 24.824 -8 26 C-9.161 22.549 -9.064 22.136 -7.383 18.574 C-6.642 17.272 -5.889 15.976 -5.125 14.688 C-2.176 9.701 -0.467 5.818 0 0 Z " fill="#3A5524" transform="translate(133,138)"/>
<path d="M0 0 C3.013 1.039 4 2.001 5.812 4.688 C7.231 8.645 6.816 10.92 6 15 C5.965 16.666 5.95 18.334 6 20 C4.667 20 3.333 20 2 20 C1.976 19.649 1.976 19.649 1.852 17.875 C1.488 13.268 1.078 8.847 -0.125 4.375 C-0.414 3.261 -0.703 2.148 -1 1 C-0.67 0.67 -0.34 0.34 0 0 Z " fill="#3B5E16" transform="translate(118,43)"/>
<path d="M0 0 C0.99 0 1.98 0 3 0 C2.879 0.583 2.758 1.165 2.633 1.766 C0.583 11.793 -1.142 21.795 -2 32 C-2.66 31.67 -3.32 31.34 -4 31 C-4.452 19.812 -4.175 10.549 0 0 Z " fill="#BFCD29" transform="translate(33,108)"/>
<path d="M0 0 C0.33 0.99 0.66 1.98 1 3 C-2.389 8.648 -7.78 13.677 -14 16 C-16.766 16.306 -19.204 16.196 -22 16 C-19.552 13.019 -17.262 11.589 -13.75 10.188 C-8.199 7.89 -4.206 4.206 0 0 Z " fill="#39501C" transform="translate(121,164)"/>
<path d="M0 0 C0.66 0 1.32 0 2 0 C1.823 8.852 -2.464 18.64 -8.734 24.926 C-9.482 25.61 -10.23 26.295 -11 27 C-11.33 26.01 -11.66 25.02 -12 24 C-10.996 22.012 -10.996 22.012 -9.438 19.688 C-5.481 13.432 -2.78 6.841 0 0 Z " fill="#B5C621" transform="translate(118,132)"/>
<path d="M0 0 C2.949 4.423 2.706 8.784 3 14 C3.033 14.44 3.033 14.44 3.199 16.664 C3.433 21.872 2.714 25.707 0.461 30.406 C-1.657 32.717 -4.032 33.187 -7 34 C-6.578 33.18 -6.157 32.36 -5.723 31.516 C-5.175 30.438 -4.627 29.36 -4.062 28.25 C-3.517 27.183 -2.972 26.115 -2.41 25.016 C-0.58 21.102 0.128 17.977 0.098 13.672 C0.094 12.873 0.091 12.073 0.088 11.25 C0.08 10.425 0.071 9.6 0.062 8.75 C0.06 8.33 0.06 8.33 0.049 6.203 C0.037 4.135 0.019 2.068 0 0 Z " fill="#D4B933" transform="translate(98,111)"/>
<path d="M0 0 C0.33 0 0.66 0 1 0 C1.289 4.089 1.574 8.178 1.854 12.268 C1.95 13.655 2.047 15.042 2.146 16.428 C2.702 24.291 3.169 32.114 3 40 C2.67 40 2.34 40 2 40 C1.297 36.774 0.615 33.544 -0.062 30.312 C-0.162 29.856 -0.162 29.856 -0.666 27.549 C-0.85 26.663 -1.033 25.776 -1.223 24.863 C-1.395 24.052 -1.568 23.24 -1.746 22.404 C-2.032 19.698 -1.617 17.639 -1 15 C-0.781 12.393 -0.59 9.798 -0.438 7.188 C-0.394 6.495 -0.351 5.802 -0.307 5.088 C-0.201 3.392 -0.1 1.696 0 0 Z " fill="#ECE856" transform="translate(111,66)"/>
<path d="M0 0 C1.646 3.128 2.878 6.321 4.125 9.625 C6.423 15.279 9.45 19.431 13.523 23.941 C14.011 24.621 14.498 25.3 15 26 C14.67 26.99 14.34 27.98 14 29 C7.145 22.11 -0.339 13.498 -0.375 3.25 C-0.251 2.178 -0.128 1.105 0 0 Z " fill="#4F721C" transform="translate(28,141)"/>
<path d="M0 0 C0.442 0.005 0.442 0.005 2.676 0.027 C3.008 0.033 3.008 0.033 4.688 0.062 C4.358 0.722 4.028 1.382 3.688 2.062 C-2.727 3.242 -9.12 3.213 -15.625 3.188 C-16.594 3.191 -17.562 3.195 -18.561 3.199 C-25.194 3.19 -31.718 2.771 -38.312 2.062 C-38.312 1.732 -38.312 1.403 -38.312 1.062 C-37.901 1.065 -37.901 1.065 -35.822 1.078 C-32.089 1.099 -28.357 1.112 -24.625 1.125 C-23.331 1.133 -22.038 1.142 -20.705 1.15 C-19.458 1.154 -18.211 1.157 -16.926 1.16 C-16.352 1.163 -16.352 1.163 -13.45 1.176 C-8.873 1.01 -4.608 -0.061 0 0 Z " fill="#E0CDA8" transform="translate(103.3125,184.9375)"/>
<path d="M0 0 C0.66 0.33 1.32 0.66 2 1 C1.5 2.875 1.5 2.875 0 5 C-6.241 7.043 -11.975 7.248 -18.5 7.125 C-19.418 7.116 -20.336 7.107 -21.281 7.098 C-23.521 7.074 -25.76 7.042 -28 7 C-28 6.67 -28 6.34 -28 6 C-27.408 5.951 -27.408 5.951 -24.414 5.703 C-9.052 4.295 -9.052 4.295 -1.75 0.707 C-1.172 0.474 -0.595 0.24 0 0 Z " fill="#E2E148" transform="translate(91,164)"/>
<path d="M0 0 C1.32 0.33 2.64 0.66 4 1 C2.753 4.741 0.807 6.258 -2 9 C-2.681 9.866 -3.361 10.733 -4.062 11.625 C-5.886 13.86 -7.625 15.388 -10 17 C-10.66 16.67 -11.32 16.34 -12 16 C-11.469 15.348 -10.938 14.695 -10.391 14.023 C-6.708 9.467 -3.129 4.955 0 0 Z " fill="#C7D233" transform="translate(70,59)"/>
<path d="M0 0 C6.697 0.291 11.637 3.058 17 7 C17.33 7.495 17.33 7.495 19 10 C18.34 10.33 18.34 10.33 15 12 C14.697 11.506 14.394 11.013 14.082 10.504 C10.63 5.225 10.63 5.225 7.375 4.062 C5.584 4.015 3.792 4 2 4 C1.34 2.68 0.68 1.36 0 0 Z " fill="#415F21" transform="translate(101,33)"/>
<path d="M0 0 C1.009 3.55 0.794 5.751 0 9.375 C-1.297 16.378 -0.771 22.959 0 30 C-0.33 29.01 -0.66 28.02 -1 27 C-1.66 27 -2.32 27 -3 27 C-3.082 23.999 -3.141 21.001 -3.188 18 C-3.213 17.161 -3.238 16.322 -3.264 15.457 C-3.332 9.596 -2.367 5.368 0 0 Z " fill="#DCDF44" transform="translate(35,113)"/>
<path d="M0 0 C2.724 2.588 4.652 5.106 6.5 8.375 C6.5 9.035 6.5 9.695 6.5 10.375 C5.84 10.375 5.18 10.375 4.5 10.375 C3.136 8.396 1.806 6.393 0.5 4.375 C-1.6 1.939 -2.347 1.426 -5.5 0.375 C-11.135 0.037 -16.083 0.999 -21.5 2.375 C-16.197 -3.433 -6.781 -3.148 0 0 Z " fill="#8B5511" transform="translate(89.5,94.625)"/>
<path d="M0 0 C2 3 2 3 3.008 4.867 C6.02 10.281 9.259 13.559 15 16 C18.31 16.902 21.603 17.534 25 18 C25 18.33 25 18.66 25 19 C18.58 19.592 14.084 19.297 8.754 15.496 C5.042 12.33 1.702 8.642 0 4 C0 2.68 0 1.36 0 0 Z " fill="#77470A" transform="translate(49,134)"/>
<path d="M0 0 C2.333 3.5 2.635 5.844 3 10 C2.921 10.307 2.921 10.307 2.523 11.863 C1.867 14.542 1.905 16.996 1.938 19.75 C1.947 20.735 1.956 21.72 1.965 22.734 C1.976 23.482 1.988 24.23 2 25 C1.67 25 1.34 25 1 25 C0.439 21.399 -0.095 17.794 -0.625 14.188 C-0.785 13.163 -0.945 12.139 -1.109 11.084 C-1.251 10.101 -1.393 9.118 -1.539 8.105 C-1.675 7.199 -1.811 6.294 -1.952 5.36 C-2 3 -2 3 0 0 Z " fill="#4D6B30" transform="translate(125,53)"/>
<path d="M0 0 C0.33 0.495 0.33 0.495 2 3 C2.66 2.34 3.32 1.68 4 1 C4.99 5.29 5.98 9.58 7 14 C5.68 14.33 4.36 14.66 3 15 C2.494 13.252 1.995 11.501 1.5 9.75 C1.222 8.775 0.943 7.801 0.656 6.797 C0 4 0 4 0 0 Z " fill="#4D6832" transform="translate(128,86)"/>
<path d="M0 0 C0.521 0.276 1.042 0.552 1.578 0.836 C4.576 2.277 7.641 3.444 10.75 4.625 C11.335 4.848 11.335 4.848 14.297 5.977 C15.189 6.314 16.081 6.652 17 7 C16.67 7.99 16.34 8.98 16 10 C12.115 9.436 9.548 8.333 6.312 6.125 C5.546 5.612 4.779 5.099 3.988 4.57 C2 3 2 3 0 0 Z " fill="#2D4212" transform="translate(42,170)"/>
<path d="M0 0 C0.66 0.33 1.32 0.66 2 1 C0.648 3.939 -0.899 6.292 -3 8.75 C-3.516 9.364 -4.031 9.977 -4.562 10.609 C-6 12 -6 12 -8 12 C-8.144 12.32 -8.144 12.32 -8.875 13.938 C-10 16 -10 16 -12 17 C-10.534 12.459 -7.955 9.237 -4.875 5.688 C-4.407 5.138 -3.939 4.588 -3.457 4.021 C-2.31 2.676 -1.156 1.337 0 0 Z " fill="#C1CF32" transform="translate(50,84)"/>
<path d="M0 0 C1.5 1.25 1.5 1.25 3 3 C3 4.32 3 5.64 3 7 C4.052 6.959 5.104 6.917 6.188 6.875 C9.74 6.991 11.849 7.472 15 9 C11.664 10.094 9.293 9.897 5.875 9.188 C5.006 9.016 4.137 8.845 3.242 8.668 C1 8 1 8 -1 6 C-0.625 2.875 -0.625 2.875 0 0 Z " fill="#E8D9B9" transform="translate(48,176)"/>
<path d="M0 0 C2.865 1.993 3.094 3.388 3.938 6.875 C4.277 8.867 4.277 8.867 4 11 C2.004 13.758 2.004 13.758 0 16 C-0.194 13.709 -0.38 11.417 -0.562 9.125 C-0.615 8.487 -0.615 8.487 -0.879 5.258 C-1 2 -1 2 0 0 Z " fill="#415D25" transform="translate(133,99)"/>
<path d="M0 0 C0.33 0 0.66 0 1 0 C2.26 8.661 2.09 17.27 2 26 C1.67 26 1.34 26 1 26 C0.67 22.37 0.34 18.74 0 15 C-0.33 15 -0.66 15 -1 15 C-1.09 9.848 -0.847 5.081 0 0 Z " fill="#9AAF1A" transform="translate(120,100)"/>
<path d="M0 0 C8.776 -0.767 8.776 -0.767 11.777 1.113 C13.125 2.5 13.125 2.5 15 5 C14.34 6.32 13.68 7.64 13 9 C12.856 8.618 12.856 8.618 12.125 6.688 C8.939 2.658 4.868 2.123 0 1 C0 0.67 0 0.34 0 0 Z " fill="#C9D538" transform="translate(99,40)"/>
<path d="M0 0 C3.607 0.095 4.799 0.799 7.375 3.375 C7.911 4.241 8.448 5.108 9 6 C8.67 6.99 8.34 7.98 8 9 C7.529 8.662 7.059 8.325 6.574 7.977 C5.952 7.531 5.329 7.085 4.688 6.625 C4.073 6.184 3.458 5.743 2.824 5.289 C1.235 4.166 -0.381 3.08 -2 2 C-1.34 1.34 -0.68 0.68 0 0 Z " fill="#7FA61F" transform="translate(106,36)"/>
<path d="M0 0 C3.63 1.65 7.26 3.3 11 5 C10.67 5.66 10.34 6.32 10 7 C7.03 6.67 4.06 6.34 1 6 C0.67 4.02 0.34 2.04 0 0 Z " fill="#D8C8A0" transform="translate(50,177)"/>
<path d="M0 0 C0.33 0.66 0.66 1.32 1 2 C-0.913 5.938 -3.385 8.488 -6.688 11.312 C-7.496 12.01 -8.304 12.707 -9.137 13.426 C-9.752 13.945 -10.366 14.465 -11 15 C-11.66 14.67 -12.32 14.34 -13 14 C-12.313 13.325 -11.626 12.649 -10.918 11.953 C-10.017 11.061 -9.116 10.169 -8.188 9.25 C-7.741 8.809 -7.741 8.809 -5.48 6.578 C-3.448 4.466 -1.682 2.392 0 0 Z " fill="#26450B" transform="translate(113,155)"/>
<path d="M0 0 C0.33 0 0.66 0 1 0 C1.567 16.14 1.567 16.14 -2 23 C-2.66 23.33 -3.32 23.66 -4 24 C-3.59 21.062 -3.196 18.446 -2 15.719 C-0.811 12.485 -0.583 9.621 -0.375 6.188 C-0.3 5.026 -0.225 3.865 -0.148 2.668 C-0.099 1.788 -0.05 0.907 0 0 Z " fill="#9D5C17" transform="translate(96,115)"/>
<path d="M0 0 C1 3 1 3 -0.145 5.445 C-0.695 6.33 -1.245 7.214 -1.812 8.125 C-2.355 9.014 -2.898 9.904 -3.457 10.82 C-5 13 -5 13 -7 14 C-6.44 10.01 -5.243 7.474 -2.938 4.188 C-2.664 3.792 -2.664 3.792 -1.277 1.793 C-1.067 1.497 -1.067 1.497 0 0 Z " fill="#486B29" transform="translate(131,149)"/>
<path d="M0 0 C1.672 3.163 2.922 6.382 4.125 9.75 C4.478 10.735 4.831 11.72 5.195 12.734 C5.461 13.482 5.726 14.23 6 15 C5.01 15 4.02 15 3 15 C0.318 9.636 -0.315 5.99 0 0 Z " fill="#5B8018" transform="translate(28,141)"/>
<path d="M0 0 C1.562 1.188 1.562 1.188 2.562 4.188 C1.714 3.87 0.866 3.553 -0.008 3.227 C-3.532 2.159 -6.644 1.787 -10.312 1.562 C-11.465 1.488 -12.617 1.413 -13.805 1.336 C-14.239 1.311 -14.239 1.311 -16.438 1.188 C-16.438 0.858 -16.438 0.528 -16.438 0.188 C-11.02 -0.896 -5.342 -1.781 0 0 Z " fill="#DBDCCA" transform="translate(109.4375,31.8125)"/>
<path d="M0 0 C0.66 0 1.32 0 2 0 C1.286 8.571 1.286 8.571 -2 12 C-3.644 7.067 -2.186 4.46 0 0 Z " fill="#A9BB1E" transform="translate(118,132)"/>
<path d="M0 0 C0.33 0.66 0.66 1.32 1 2 C1.99 2 2.98 2 4 2 C3.75 4.375 3.75 4.375 3 7 C0.938 8.312 0.938 8.312 -1 9 C-1 8.01 -1 7.02 -1 6 C-1.66 5.67 -2.32 5.34 -3 5 C-2.01 3.35 -1.02 1.7 0 0 Z " fill="#C57829" transform="translate(71,111)"/>
<path d="M0 0 C0.33 0.66 0.66 1.32 1 2 C1.99 2 2.98 2 4 2 C4.33 3.98 4.66 5.96 5 8 C4.01 8.66 3.02 9.32 2 10 C2 9.01 2 8.02 2 7 C1.01 6.67 0.02 6.34 -1 6 C-0.67 4.02 -0.34 2.04 0 0 Z " fill="#9B5F15" transform="translate(93,103)"/>
<path d="M0 0 C0.33 0.66 0.66 1.32 1 2 C0.481 2.447 -0.039 2.895 -0.574 3.355 C-4.527 6.782 -8.358 10.244 -12 14 C-11.51 9.754 -8.936 6.905 -6 4 C-4.057 2.513 -2.099 1.269 0 0 Z " fill="#915713" transform="translate(66,97)"/>
<path d="M0 0 C0 0.99 0 1.98 0 3 C-2.242 4.361 -3.478 5.061 -6.125 4.75 C-8 4 -8 4 -10 2 C-6.492 0.396 -3.856 -0.22 0 0 Z " fill="#496225" transform="translate(97,180)"/>
<path d="M0 0 C-1 2 -1 2 -3 4 C-5.754 4.369 -8.204 4.183 -11 4 C-7.4 0.152 -5.252 -1.63 0 0 Z " fill="#42651E" transform="translate(110,176)"/>
<path d="M0 0 C1.675 0.286 3.344 0.618 5 1 C4.01 2.98 3.02 4.96 2 7 C1.67 6.34 1.34 5.68 1 5 C0.01 5.33 -0.98 5.66 -2 6 C-1.125 1.125 -1.125 1.125 0 0 Z " fill="#C47825" transform="translate(60,117)"/>
<path d="M0 0 C5.94 0.66 11.88 1.32 18 2 C18 2.33 18 2.66 18 3 C12.72 3 7.44 3 2 3 C2 2.34 2 1.68 2 1 C1.34 0.67 0.68 0.34 0 0 Z " fill="#FBF3E0" transform="translate(60,187)"/>
<path d="M0 0 C0 3.292 -0.505 5.085 -2 8 C-4.125 9.312 -4.125 9.312 -6 10 C-4.792 5.569 -3.483 3.019 0 0 Z " fill="#E1DF4C" transform="translate(112,140)"/>
<path d="M0 0 C0.99 0.33 1.98 0.66 3 1 C3 4.63 3 8.26 3 12 C0.521 8.281 -0.085 5.365 -1 1 C-0.67 0.67 -0.34 0.34 0 0 Z " fill="#324B11" transform="translate(118,43)"/>
<path d="M0 0 C2.042 1.692 2.918 2.637 3.512 5.262 C3.57 6.062 3.628 6.863 3.688 7.688 C3.753 8.496 3.819 9.304 3.887 10.137 C3.924 10.752 3.961 11.366 4 12 C1.039 8.636 0.077 5.308 -1 1 C-0.67 0.67 -0.34 0.34 0 0 Z " fill="#5C8017" transform="translate(115,43)"/>
<path d="M0 0 C5.778 -0.236 10.513 0.132 16 2 C16 2.33 16 2.66 16 3 C10.211 3.207 5.571 2.592 0 1 C0 0.67 0 0.34 0 0 Z " fill="#B2C22A" transform="translate(91,37)"/>
<path d="M0 0 C0.33 0.99 0.66 1.98 1 3 C-0.464 5.3 -2.072 7.072 -4 9 C-4.99 8.34 -5.98 7.68 -7 7 C-4.69 4.69 -2.38 2.38 0 0 Z " fill="#405E23" transform="translate(121,164)"/>
<path d="M0 0 C0 3.618 -0.863 4.206 -3 7 C-3.351 7.887 -3.701 8.774 -4.062 9.688 C-5 12 -5 12 -7 13 C-5.781 7.515 -4.241 3.817 0 0 Z " fill="#4D6E18" transform="translate(46,84)"/>
<path d="M0 0 C0.33 0.66 0.66 1.32 1 2 C0.67 2.495 0.67 2.495 -1 5 C-1.66 5 -2.32 5 -3 5 C-3.66 6.32 -4.32 7.64 -5 9 C-5.66 8.34 -6.32 7.68 -7 7 C-2.25 1.125 -2.25 1.125 0 0 Z " fill="#D9DC42" transform="translate(73,62)"/>
<path d="M0 0 C4.24 0.082 4.24 0.082 6.625 2.25 C7.562 4.375 7.562 4.375 7.562 6.375 C6.573 6.375 5.582 6.375 4.562 6.375 C4.562 5.055 4.562 3.735 4.562 2.375 C0.933 2.375 -2.698 2.375 -6.438 2.375 C-4.034 -0.028 -3.298 0.054 0 0 Z " fill="#38510F" transform="translate(96.4375,32.625)"/>
<path d="M0 0 C0 3 0 3 -1.238 4.551 C-3.136 6.112 -4.97 7.133 -7.188 8.188 C-7.903 8.532 -8.618 8.876 -9.355 9.23 C-9.898 9.484 -10.441 9.738 -11 10 C-9.735 6.204 -8.218 5.513 -4.938 3.312 C-4.018 2.69 -3.099 2.067 -2.152 1.426 C-1.442 0.955 -0.732 0.485 0 0 Z " fill="#E0D1AA" transform="translate(119,171)"/>
<path d="M0 0 C0.99 1.32 1.98 2.64 3 4 C1.02 5.98 -0.96 7.96 -3 10 C-3.66 9.67 -4.32 9.34 -5 9 C-4.546 8.629 -4.093 8.257 -3.625 7.875 C-1.53 5.457 -0.88 3.046 0 0 Z " fill="#30491A" transform="translate(123,161)"/>
<path d="M0 0 C0 3 0 3 -2.25 5.5 C-4.435 7.487 -6.589 9.303 -9 11 C-8.463 7.149 -6.884 5.682 -3.938 3.25 C-3.204 2.636 -2.471 2.023 -1.715 1.391 C-1.149 0.932 -0.583 0.473 0 0 Z " fill="#CFD734" transform="translate(106,154)"/>
<path d="M0 0 C0.66 0 1.32 0 2 0 C1.492 4.318 0.803 8.033 -1 12 C-1.33 12 -1.66 12 -2 12 C-2.213 7.532 -1.591 4.177 0 0 Z " fill="#506F10" transform="translate(119,136)"/>
<path d="M0 0 C0.66 0 1.32 0 2 0 C0.606 4.435 -1.606 6.874 -5 10 C-4.385 6.001 -2.397 3.196 0 0 Z " fill="#628917" transform="translate(66,61)"/>
<path d="M0 0 C0.33 0 0.66 0 1 0 C0.48 4.379 -0.057 8.688 -1 13 C-1.33 13 -1.66 13 -2 13 C-2.054 11.396 -2.093 9.792 -2.125 8.188 C-2.148 7.294 -2.171 6.401 -2.195 5.48 C-2 3 -2 3 0 0 Z " fill="#729318" transform="translate(30,113)"/>
<path d="M0 0 C0.99 0.33 1.98 0.66 3 1 C0.422 3.648 -1.916 5.944 -5 8 C-5 5 -5 5 -2.5 2.312 C-1.675 1.549 -0.85 0.786 0 0 Z " fill="#759A21" transform="translate(84,38)"/>
<path d="M0 0 C-1.415 2.034 -2.55 2.904 -4.98 3.422 C-6.982 3.663 -8.991 3.835 -11 4 C-7.657 -0.279 -5.291 -0.407 0 0 Z " fill="#2A4411" transform="translate(105,179)"/>
<path d="M0 0 C0.33 0.66 0.66 1.32 1 2 C1.66 2 2.32 2 3 2 C3 2.66 3 3.32 3 4 C3.99 4 4.98 4 6 4 C6 4.66 6 5.32 6 6 C2.625 5.453 0.918 4.945 -2 3 C-2 2.34 -2 1.68 -2 1 C-1.34 0.67 -0.68 0.34 0 0 Z " fill="#3F5620" transform="translate(59,177)"/>
<path d="M0 0 C0.536 0.289 1.072 0.577 1.625 0.875 C4.353 2.167 7.126 3.086 10 4 C9.67 4.165 9.67 4.165 8 5 C7.67 5.66 7.34 6.32 7 7 C5.83 6.024 4.664 5.044 3.5 4.062 C2.85 3.517 2.201 2.972 1.531 2.41 C1.026 1.945 0.521 1.479 0 1 C0 0.67 0 0.34 0 0 Z " fill="#364B1B" transform="translate(42,170)"/>
<path d="M0 0 C-0.33 0.99 -0.66 1.98 -1 3 C-2.65 3.33 -4.3 3.66 -6 4 C-6 3.01 -6 2.02 -6 1 C-4 0 -4 0 0 0 Z " fill="#C1D229" transform="translate(97,167)"/>
<path d="M0 0 C1.125 1.688 1.125 1.688 2 4 C1.125 6.75 1.125 6.75 0 9 C-0.66 8.34 -1.32 7.68 -2 7 C-1.34 4.69 -0.68 2.38 0 0 Z " fill="#EDEEE2" transform="translate(138,138)"/>
<path d="M0 0 C2.899 2.395 3.502 4.312 4 8 C3.34 8 2.68 8 2 8 C2 7.34 2 6.68 2 6 C1.34 6 0.68 6 0 6 C-1.125 2.25 -1.125 2.25 0 0 Z " fill="#495C2B" transform="translate(121,45)"/>
<path d="M0 0 C0.66 0.33 1.32 0.66 2 1 C2.625 4.062 2.625 4.062 3 7 C2.01 7 1.02 7 0 7 C-0.381 5.009 -0.713 3.007 -1 1 C-0.67 0.67 -0.34 0.34 0 0 Z " fill="#B2C221" transform="translate(114,46)"/>
<path d="M0 0 C1.65 0 3.3 0 5 0 C5 1.32 5 2.64 5 4 C4.01 4 3.02 4 2 4 C1.34 2.68 0.68 1.36 0 0 Z " fill="#7D6017" transform="translate(101,33)"/>
<path d="M0 0 C2.562 0.25 2.562 0.25 5 1 C5.33 1.66 5.66 2.32 6 3 C3.688 3.625 3.688 3.625 1 4 C0.01 3.34 -0.98 2.68 -2 2 C-1.34 1.34 -0.68 0.68 0 0 Z " fill="#739925" transform="translate(106,36)"/>
<path d="M0 0 C0 3 0 3 -1 5 C-2.65 4.67 -4.3 4.34 -6 4 C-4.036 2.494 -2.217 1.109 0 0 Z " fill="#D2B72D" transform="translate(85,149)"/>
<path d="M0 0 C0.99 0 1.98 0 3 0 C3.66 1.98 4.32 3.96 5 6 C3.68 5.67 2.36 5.34 1 5 C0.67 3.35 0.34 1.7 0 0 Z " fill="#BBCA2B" transform="translate(30,146)"/>
</svg>
