<?xml version="1.0" encoding="UTF-8"?>
<!-- Generator: visioncortex VTracer 0.6.12 -->
<svg version="1.1" xmlns="http://www.w3.org/2000/svg" width="175" height="190">
<path d="M0 0 C57.75 0 115.5 0 175 0 C175 62.7 175 125.4 175 190 C117.25 190 59.5 190 0 190 C0 127.3 0 64.6 0 0 Z " fill="#FCF7EC" transform="translate(0,0)"/>
<path d="M0 0 C2 2 2 2 2.227 4.247 C2.217 5.158 2.206 6.069 2.195 7.008 C2.189 7.994 2.182 8.98 2.176 9.996 C2.167 10.512 2.167 10.512 2.125 13.125 C2.116 14.165 2.107 15.206 2.098 16.277 C2.074 18.852 2.041 21.426 2 24 C2.66 24 3.32 24 4 24 C4.208 23.439 4.415 22.879 4.629 22.301 C6.488 19.181 9.064 17.309 11.938 15.188 C12.476 14.768 13.014 14.348 13.568 13.916 C15.152 12.73 15.152 12.73 18 11 C18.99 11.33 19.98 11.66 21 12 C21.083 13.499 21.14 14.999 21.188 16.5 C21.205 16.918 21.205 16.918 21.293 19.031 C20.896 23.055 19.523 26.257 18 30 C18.626 29.964 18.626 29.964 21.797 29.781 C23.448 29.687 25.099 29.594 26.75 29.5 C27.162 29.476 27.162 29.476 29.25 29.355 C30.049 29.31 30.848 29.265 31.672 29.219 C32.405 29.177 33.138 29.135 33.894 29.092 C35.927 29.003 37.964 29 40 29 C39.494 33.424 38.05 35.781 35 39 C32.25 40.812 32.25 40.812 30 42 C30.592 42.364 31.183 42.727 31.793 43.102 C36.81 46.294 40.389 49.295 44 54 C44.66 54.33 45.32 54.66 46 55 C45.67 56.32 45.34 57.64 45 59 C42.69 59 40.38 59 38 59 C38.023 59.82 38.046 60.64 38.07 61.484 C38.088 62.562 38.106 63.64 38.125 64.75 C38.148 65.817 38.171 66.885 38.195 67.984 C38 71 38 71 36.984 72.969 C35.545 75.938 35.961 78.481 36.125 81.75 C36.2 87.752 35.89 92.265 32 97 C27.1 101 27.1 101 23 101 C23.103 102.176 23.206 103.351 23.312 104.562 C23.298 108.787 22.191 111.198 19.559 114.457 C16.241 117.741 12.809 119.846 8.062 120.25 C7.382 120.168 6.701 120.085 6 120 C5.969 120.443 5.969 120.443 5.812 122.688 C4.805 126.793 3.211 128.324 0 131 C-4.007 132.336 -7.888 132.326 -12.09 132.523 C-15.303 133.05 -16.508 134.003 -19 136 C-23.501 137.315 -27.253 137.212 -31.75 135.938 C-35 134 -35 134 -37.5 130.938 C-40.527 127.38 -42.581 127.184 -47 126 C-50.889 122.73 -54.621 119.1 -55.262 113.859 C-55.291 113.47 -55.291 113.47 -55.438 111.5 C-55.766 107.196 -57.063 105.221 -60 102 C-60 101.01 -60 100.02 -60 99 C-60.66 99 -61.32 99 -62 99 C-62.054 97.104 -62.093 95.209 -62.125 93.312 C-62.148 92.257 -62.171 91.201 -62.195 90.113 C-61.998 86.966 -61.157 84.892 -60 82 C-60.454 81.154 -60.907 80.309 -61.375 79.438 C-63.778 74.354 -63.705 69.533 -63 64 C-61.649 60.689 -59.519 58.519 -57 56 C-57.016 53.715 -57.016 53.715 -57.25 50.938 C-57.359 44.523 -55.385 40.615 -51 36 C-47.821 33.518 -45.133 32 -41 32 C-41.516 31.257 -42.031 30.515 -42.562 29.75 C-44 27 -44 27 -43.688 24.688 C-43.461 24.131 -43.234 23.574 -43 23 C-41.783 23.165 -40.566 23.33 -39.312 23.5 C-36.184 23.895 -33.158 24.099 -30 24 C-30.495 22.845 -30.99 21.69 -31.5 20.5 C-33.156 16.147 -33.248 12.625 -33 8 C-31.68 7.34 -30.36 6.68 -29 6 C-28.567 6.825 -28.134 7.65 -27.688 8.5 C-24.374 13.573 -18.928 16.653 -14 20 C-13.711 18.763 -13.422 17.525 -13.125 16.25 C-12.547 13.897 -12.012 12.023 -10.875 9.875 C-10 8 -10 8 -10.062 4.875 C-10.042 3.926 -10.021 2.977 -10 2 C-6.327 -0.449 -4.336 -0.315 0 0 Z " fill="#292832" transform="translate(84,41)"/>
<path d="M0 0 C2 2 2 2 2.227 4.247 C2.217 5.158 2.206 6.069 2.195 7.008 C2.189 7.994 2.182 8.98 2.176 9.996 C2.159 11.029 2.142 12.061 2.125 13.125 C2.116 14.165 2.107 15.206 2.098 16.277 C2.074 18.852 2.041 21.426 2 24 C2.66 24 3.32 24 4 24 C4.208 23.439 4.415 22.879 4.629 22.301 C6.488 19.181 9.064 17.309 11.938 15.188 C12.476 14.768 13.014 14.348 13.568 13.916 C15.152 12.73 15.152 12.73 18 11 C18.99 11.33 19.98 11.66 21 12 C21.083 13.499 21.14 14.999 21.188 16.5 C21.205 16.918 21.205 16.918 21.293 19.031 C20.896 23.055 19.523 26.257 18 30 C18.626 29.964 18.626 29.964 21.797 29.781 C23.448 29.687 25.099 29.594 26.75 29.5 C27.162 29.476 27.162 29.476 29.25 29.355 C30.049 29.31 30.848 29.265 31.672 29.219 C32.405 29.177 33.138 29.135 33.894 29.092 C35.927 29.003 37.964 29 40 29 C39.494 33.424 38.05 35.781 35 39 C32.25 40.812 32.25 40.812 30 42 C30.592 42.364 31.183 42.727 31.793 43.102 C36.81 46.294 40.389 49.295 44 54 C44.66 54.33 45.32 54.66 46 55 C45.67 56.32 45.34 57.64 45 59 C42.69 59 40.38 59 38 59 C37.835 59.33 37.835 59.33 37 61 C36.711 60.134 36.422 59.267 36.125 58.375 C33.443 54.116 30.455 52.624 26.082 50.297 C25.395 49.869 24.708 49.441 24 49 C24 48.34 24 47.68 24 47 C23.34 47 22.68 47 22 47 C22 49.97 22 52.94 22 56 C20.68 56 19.36 56 18 56 C16.667 54.667 15.333 53.333 14 52 C11.745 50.663 9.452 49.445 7.121 48.246 C5 47 5 47 3.473 45.285 C2.987 44.861 2.501 44.437 2 44 C0.254 44.215 0.254 44.215 -2 45 C-4.352 45.53 -6.707 46.05 -9.062 46.562 C-10.291 46.832 -11.519 47.101 -12.785 47.379 C-16 48 -16 48 -19 48 C-19 44.04 -19 40.08 -19 36 C-19.65 36.021 -19.65 36.021 -22.938 36.125 C-29.245 36.125 -35.484 35.212 -41 32 C-42.812 29.625 -42.812 29.625 -44 27 C-43.688 24.688 -43.688 24.688 -43 23 C-41.783 23.165 -40.566 23.33 -39.312 23.5 C-36.184 23.895 -33.158 24.099 -30 24 C-30.495 22.845 -30.99 21.69 -31.5 20.5 C-33.156 16.147 -33.248 12.625 -33 8 C-31.68 7.34 -30.36 6.68 -29 6 C-28.567 6.825 -28.134 7.65 -27.688 8.5 C-24.374 13.573 -18.928 16.653 -14 20 C-13.711 18.763 -13.422 17.525 -13.125 16.25 C-12.547 13.897 -12.012 12.023 -10.875 9.875 C-10 8 -10 8 -10.062 4.875 C-10.042 3.926 -10.021 2.977 -10 2 C-6.327 -0.449 -4.336 -0.315 0 0 Z " fill="#4A6E0A" transform="translate(84,41)"/>
<path d="M0 0 C5.849 1.797 11.932 2.422 18 3 C18.165 4.98 18.165 4.98 19 15 C20.072 14.649 21.145 14.299 22.25 13.938 C25.723 13.069 26.825 12.796 30 14 C30.722 14.144 31.444 14.289 32.188 14.438 C32.786 14.623 33.384 14.809 34 15 C36.27 19.539 35.766 25.634 34.234 30.363 C31.496 35.483 27.936 37.627 22.496 39.438 C18.915 40.244 16.487 40.162 13 39 C9.821 36.305 7.279 34.141 6.727 29.898 C6.494 24.115 7.192 20.272 10.555 15.496 C12 14 12 14 14.812 13 C15.534 13 16.256 13 17 13 C16.835 12.505 16.835 12.505 16 10 C11.243 12.247 9.119 15.33 7 20 C6.489 21.454 5.988 22.913 5.5 24.375 C5.005 25.571 4.51 26.767 4 28 C0.141 29.511 -3.922 29.132 -8 29 C-8.66 28.67 -9.32 28.34 -10 28 C-9.938 29.196 -9.876 30.392 -9.812 31.625 C-9.805 35.798 -10.97 38.33 -13 42 C-13.775 44.315 -14.385 46.635 -15 49 C-16.98 49 -18.96 49 -21 49 C-21 49.66 -21 50.32 -21 51 C-18.36 51 -15.72 51 -13 51 C-9.82 58.882 -8.153 64.795 -11 73 C-10.34 73 -9.68 73 -9 73 C-9 73.66 -9 74.32 -9 75 C-11.31 75 -13.62 75 -16 75 C-14 76 -14 76 -11.75 76.625 C-7.804 78.598 -5.064 81.064 -3 85 C-2.8 88.147 -3.239 90.95 -4 94 C-7.859 93.731 -9.681 93.267 -12.688 90.75 C-16.162 86.618 -18.034 83.913 -18.438 78.5 C-18.766 74.196 -20.063 72.221 -23 69 C-23 68.01 -23 67.02 -23 66 C-23.66 66 -24.32 66 -25 66 C-25.054 64.104 -25.093 62.209 -25.125 60.312 C-25.148 59.257 -25.171 58.201 -25.195 57.113 C-24.998 53.966 -24.157 51.892 -23 49 C-23.454 48.154 -23.907 47.309 -24.375 46.438 C-26.778 41.354 -26.705 36.533 -26 31 C-24.649 27.689 -22.519 25.519 -20 23 C-20.016 20.715 -20.016 20.715 -20.25 17.938 C-20.359 11.523 -18.385 7.615 -14 3 C-9.45 -0.533 -5.072 -3.382 0 0 Z " fill="#2B2934" transform="translate(47,74)"/>
<path d="M0 0 C1.32 0 2.64 0 4 0 C4.165 0.66 4.165 0.66 5 4 C5.784 3.835 6.568 3.67 7.375 3.5 C10 3 10 3 12 3 C12 3.99 12 4.98 12 6 C11.629 6.206 11.629 6.206 9.75 7.25 C4.914 10.327 3.247 15.144 1.5 20.375 C1.005 21.571 0.51 22.767 0 24 C-3.859 25.511 -7.922 25.132 -12 25 C-12.66 24.67 -13.32 24.34 -14 24 C-13.938 25.196 -13.876 26.392 -13.812 27.625 C-13.805 31.798 -14.97 34.33 -17 38 C-17.775 40.315 -18.385 42.635 -19 45 C-20.98 45 -22.96 45 -25 45 C-25 45.66 -25 46.32 -25 47 C-22.36 47 -19.72 47 -17 47 C-13.82 54.882 -12.153 60.795 -15 69 C-14.34 69 -13.68 69 -13 69 C-13 69.66 -13 70.32 -13 71 C-15.31 71 -17.62 71 -20 71 C-18 72 -18 72 -15.75 72.625 C-11.804 74.598 -9.064 77.064 -7 81 C-6.8 84.147 -7.239 86.95 -8 90 C-11.859 89.731 -13.681 89.267 -16.688 86.75 C-20.162 82.618 -22.034 79.913 -22.438 74.5 C-22.766 70.196 -24.063 68.221 -27 65 C-27 64.01 -27 63.02 -27 62 C-27.66 62 -28.32 62 -29 62 C-29.054 60.104 -29.093 58.209 -29.125 56.312 C-29.148 55.257 -29.171 54.201 -29.195 53.113 C-28.998 49.966 -28.157 47.892 -27 45 C-27.454 44.154 -27.907 43.309 -28.375 42.438 C-30.779 37.352 -30.7 32.536 -30 27 C-28.188 23.5 -28.188 23.5 -26 21 C-25.567 20.216 -25.134 19.433 -24.688 18.625 C-23 17 -23 17 -19.312 16.75 C-18.219 16.832 -17.126 16.915 -16 17 C-15.963 16.385 -15.925 15.77 -15.887 15.137 C-15.821 14.328 -15.755 13.52 -15.688 12.688 C-15.629 11.887 -15.571 11.086 -15.512 10.262 C-14.918 7.637 -14.042 6.692 -12 5 C-11.67 5.66 -11.34 6.32 -11 7 C-11.309 7.578 -11.619 8.155 -11.938 8.75 C-13.286 11.606 -13.142 13.88 -13 17 C-12.34 17.33 -11.68 17.66 -11 18 C-11 18.66 -11 19.32 -11 20 C-3.092 19.088 -3.092 19.088 0 17 C0.793 14.906 0.793 14.906 1.188 12.5 C1.953 8.095 1.953 8.095 3 6 C2.688 3.437 2.688 3.437 2 1 C1.34 0.67 0.68 0.34 0 0 Z " fill="#2E2C38" transform="translate(51,78)"/>
<path d="M0 0 C3.212 3.447 5.697 7.419 6.254 12.164 C6.052 14.234 5.63 16.019 5 18 C4.785 18.727 4.569 19.454 4.348 20.203 C3.086 23.996 2.391 25.739 -1 28 C-0.237 28.186 0.526 28.371 1.312 28.562 C4 30 4 30 5.875 33.188 C7.131 37.443 7.28 39.761 6 44 C3.236 47.17 1.681 47.915 -2.5 48.438 C-6.131 47.984 -8.069 47.131 -11 45 C-6.789 51.917 -6.789 51.917 -3 53 C1.567 53.332 4.871 53.002 9 51 C8 54 8 54 5.875 55.25 C1.022 56.516 -2.748 55.52 -7.312 53.625 C-10.352 51.787 -11.643 50.248 -12.625 46.812 C-13.946 36.904 -13.946 36.904 -11 32.5 C-10.67 32.088 -10.67 32.088 -9 30 C-9.482 29.613 -9.964 29.227 -10.461 28.828 C-11.093 28.307 -11.724 27.787 -12.375 27.25 C-13.001 26.74 -13.628 26.229 -14.273 25.703 C-17.102 22.913 -17.922 20.679 -18.375 16.75 C-17.781 10.812 -15.43 6.031 -11 2 C-7.378 -0.458 -4.273 -0.884 0 0 Z " fill="#35333F" transform="translate(52,104)"/>
<path d="M0 0 C0.33 0 0.66 0 1 0 C1 1.98 1 3.96 1 6 C0.629 6.093 0.629 6.093 -1.25 6.562 C-5.017 8.532 -6.663 11.075 -8 15 C-8.657 19.683 -8.577 23.614 -6.75 28 C-4.872 30.146 -3.624 30.947 -1 32 C5.177 32.343 10.088 30.635 15 27 C19.343 21.537 18.265 14.625 18 8 C16.02 8 14.04 8 12 8 C18.488 2.902 18.488 2.902 21.938 3.125 C24.7 4.297 26.653 6.123 29 8 C31.344 9.338 33.714 10.607 36.109 11.852 C38 13 38 13 39 15 C37.312 15.812 37.312 15.812 35 16 C34.196 15.175 33.391 14.35 32.562 13.5 C31.717 12.675 30.871 11.85 30 11 C27.176 11.131 25.505 11.747 23 13 C20.307 19.725 19 26.772 19 34 C20.995 37.178 22.106 38.736 25.75 39.812 C26.121 39.843 26.121 39.843 28 40 C27.68 40.082 27.68 40.082 26.062 40.5 C25.382 40.995 24.701 41.49 24 42 C23.708 43.979 23.427 45.962 23.281 47.957 C22.893 50.776 21.641 52.716 20 55 C19.67 54.34 19.34 53.68 19 53 C19.33 52.319 19.66 51.639 20 50.938 C21.387 46.862 21.229 43.126 20 39 C18.348 36.219 18.348 36.219 16 34 C12.941 33.625 12.941 33.625 9.562 34 C8.45 34.103 7.338 34.206 6.191 34.312 C1.902 35.237 -0.918 36.769 -3.812 40.062 C-5.565 44.397 -5.812 48.395 -5 53 C-2.654 56.151 -0.565 57.673 2.812 59.625 C3.534 60.079 4.256 60.532 5 61 C5 61.99 5 62.98 5 64 C4.67 64.165 4.67 64.165 3 65 C2.399 67.274 2.044 69.551 1.66 71.871 C1 74 1 74 -2 76 C-2.99 76 -3.98 76 -5 76 C-5.33 76.165 -5.33 76.165 -7 77 C-11.195 77.403 -13.525 77.242 -17.312 75.312 C-20.077 72.934 -21.037 71.466 -22 68 C-21.319 68.33 -20.639 68.66 -19.938 69 C-16.323 70.23 -13.797 70.475 -10 70 C-7 68.062 -7 68.062 -5 65 C-4.68 60.314 -5.395 56.908 -8 53 C-11.625 52.312 -11.625 52.312 -15 52 C-14.01 51.34 -13.02 50.68 -12 50 C-8.211 46.736 -7.049 42.788 -6 38 C-6.099 32.275 -8.016 28.717 -11 24 C-14.998 23.68 -17.528 23.778 -21.188 25.5 C-25.728 29.536 -27.673 33.631 -28.5 39.625 C-27.707 44.977 -25.281 47.894 -21.25 51.375 C-20.508 51.911 -19.765 52.447 -19 53 C-19.66 53.825 -20.32 54.65 -21 55.5 C-23.922 59.914 -23.544 64.296 -22.539 69.289 C-22.072 71.205 -21.542 73.104 -21 75 C-21.701 74.381 -22.403 73.762 -23.125 73.125 C-26.058 70.957 -28.512 69.973 -32 69 C-32 70.98 -32 72.96 -32 75 C-32.33 75 -32.66 75 -33 75 C-33 72.36 -33 69.72 -33 67 C-30.36 67.33 -27.72 67.66 -25 68 C-25 67.34 -25 66.68 -25 66 C-25.66 66 -26.32 66 -27 66 C-26.773 64.783 -26.546 63.566 -26.312 62.312 C-25.56 55.943 -27.329 50.108 -29 44 C-31.64 44 -34.28 44 -37 44 C-37 43.34 -37 42.68 -37 42 C-36.01 41.835 -36.01 41.835 -31 41 C-30.879 40.385 -30.758 39.77 -30.633 39.137 C-30.549 38.733 -30.549 38.733 -30.125 36.688 C-29.963 35.887 -29.8 35.086 -29.633 34.262 C-29 32 -29 32 -27 29 C-26.805 26.52 -26.805 26.52 -26.875 23.812 C-26.893 22.911 -26.911 22.01 -26.93 21.082 C-26.953 20.395 -26.976 19.708 -27 19 C-26.01 19.66 -25.02 20.32 -24 21 C-15.255 21.416 -15.255 21.416 -12 20 C-10.91 17.707 -10.91 17.707 -10.062 14.812 C-8.411 9.818 -6.821 6.625 -3 3 C-2.01 3 -1.02 3 0 3 C0 2.01 0 1.02 0 0 Z M-21 75 C-20.154 75.309 -19.309 75.619 -18.438 75.938 C-13.092 77.59 -8.466 78.491 -3 77 C-3.66 78.32 -4.32 79.64 -5 81 C-13.571 81.143 -13.571 81.143 -17 80 C-17.33 82.31 -17.66 84.62 -18 87 C-18.66 87 -19.32 87 -20 87 C-19.994 86.693 -19.994 86.693 -19.965 85.137 C-19.956 84.328 -19.947 83.52 -19.938 82.688 C-19.926 81.887 -19.914 81.086 -19.902 80.262 C-20 78 -20 78 -21 75 Z " fill="#1D1C23" transform="translate(63,81)"/>
<path d="M0 0 C2.542 2.542 2.258 4.193 2.278 7.664 C2.269 8.414 2.26 9.164 2.25 9.938 C2.247 10.319 2.247 10.319 2.229 12.25 C2 24.925 2 24.925 0 30 C-3.275 33 -3.275 33 -6 33 C-6.33 32.01 -6.66 31.02 -7 30 C-7.99 29.67 -8.98 29.34 -10 29 C-11.188 25.938 -11.188 25.938 -12 23 C-12.33 23 -12.66 23 -13 23 C-13 24.98 -13 26.96 -13 29 C-13.99 28.67 -14.98 28.34 -16 28 C-15.01 29.32 -14.02 30.64 -13 32 C-15.97 32 -18.94 32 -22 32 C-22 32.66 -22 33.32 -22 34 C-31.535 33.098 -31.535 33.098 -36 32.438 C-39 32 -39 32 -41 32 C-44.115 27.847 -44.115 27.847 -43.688 24.688 C-43.461 24.131 -43.234 23.574 -43 23 C-41.783 23.165 -40.566 23.33 -39.312 23.5 C-36.184 23.895 -33.158 24.099 -30 24 C-30.495 22.845 -30.99 21.69 -31.5 20.5 C-33.156 16.147 -33.248 12.625 -33 8 C-31.68 7.34 -30.36 6.68 -29 6 C-28.567 6.825 -28.134 7.65 -27.688 8.5 C-24.374 13.573 -18.928 16.653 -14 20 C-13.711 18.763 -13.422 17.525 -13.125 16.25 C-12.547 13.897 -12.012 12.023 -10.875 9.875 C-10 8 -10 8 -10.062 4.875 C-10.042 3.926 -10.021 2.977 -10 2 C-6.327 -0.449 -4.336 -0.315 0 0 Z " fill="#6D8A1F" transform="translate(84,41)"/>
<path d="M0 0 C0.99 0.33 1.98 0.66 3 1 C3 2.32 3 3.64 3 5 C3.66 5 4.32 5 5 5 C4.545 9.896 3.489 12.511 0 16 C-3.806 18.775 -7.174 20.585 -12 20 C-12.031 20.443 -12.031 20.443 -12.188 22.688 C-13.195 26.793 -14.789 28.324 -18 31 C-22.007 32.336 -25.888 32.326 -30.09 32.523 C-33.305 33.05 -34.499 34.013 -37 36 C-39.219 36.582 -39.219 36.582 -41.5 36.812 C-42.253 36.901 -43.006 36.99 -43.781 37.082 C-47.134 36.958 -49.146 35.867 -51.484 33.492 C-52.656 31.995 -53.828 30.497 -55 29 C-49.25 30.875 -49.25 30.875 -47 32 C-41.906 32.384 -39.199 31.879 -35 29 C-34.34 29 -33.68 29 -33 29 C-32.67 29.33 -32.34 29.66 -32 30 C-32 29.01 -32 28.02 -32 27 C-31.01 27 -30.02 27 -29 27 C-29.33 26.01 -29.66 25.02 -30 24 C-29.662 23.837 -29.662 23.837 -27.953 23.012 C-27.061 22.575 -26.169 22.138 -25.25 21.688 C-24.368 21.258 -23.487 20.829 -22.578 20.387 C-16.357 17.04 -16.357 17.04 -15.25 13.812 C-15.167 13.214 -15.085 12.616 -15 12 C-14.34 12 -13.68 12 -13 12 C-12.67 9.69 -12.34 7.38 -12 5 C-10.763 5.103 -9.525 5.206 -8.25 5.312 C-6.047 5.332 -6.047 5.332 -4 5 C-1.5 2.5 -1.5 2.5 0 0 Z " fill="#292832" transform="translate(102,141)"/>
<path d="M0 0 C0.33 0.99 0.66 1.98 1 3 C0.34 3 -0.32 3 -1 3 C-1 3.99 -1 4.98 -1 6 C-0.443 5.649 0.114 5.299 0.688 4.938 C3.539 3.782 5.085 4.19 8 5 C9.482 8.458 10.158 10.353 9.25 14.062 C8.837 15.032 8.425 16.001 8 17 C7.752 17.887 7.505 18.774 7.25 19.688 C5.459 23.001 3.499 23.765 0 25 C-3.434 24.766 -4.55 24.45 -7 22 C-7.33 22 -7.66 22 -8 22 C-8.178 17.452 -7.998 14.121 -6 10 C-6.66 10 -7.32 10 -8 10 C-8.66 13.63 -9.32 17.26 -10 21 C-12.333 21.042 -14.667 21.041 -17 21 C-18 20 -18 20 -18.438 16.5 C-18.357 10.92 -15.633 7.063 -12 3 C-8.198 -0.185 -4.891 -1.779 0 0 Z " fill="#3D3B44" transform="translate(45,74)"/>
<path d="M0 0 C2 0 2 0 3.375 1.355 C3.911 1.898 4.448 2.441 5 3 C6.317 3.799 7.651 4.569 9 5.312 C12.836 7.682 14.613 9.579 16 14 C16.212 16.722 16.142 19.261 16 22 C15.67 22 15.34 22 15 22 C14.934 21.698 14.934 21.698 14.598 20.172 C14.509 19.772 14.509 19.772 14.062 17.75 C13.888 16.961 13.714 16.172 13.535 15.359 C13.052 13.231 12.538 11.115 12 9 C11.01 9 10.02 9 9 9 C9.66 9.66 10.32 10.32 11 11 C13.493 14.739 13.692 17.681 13 22 C11.812 25.438 11.812 25.438 10 28 C7.562 28.812 7.562 28.812 5 29 C2.029 29.437 1.279 29.646 -0.625 32.062 C-1.079 32.702 -1.532 33.341 -2 34 C-2.66 34 -3.32 34 -4 34 C-4.33 33.34 -4.66 32.68 -5 32 C-6.65 32 -8.3 32 -10 32 C-9.789 31.693 -9.789 31.693 -8.723 30.137 C-8.175 29.328 -7.627 28.52 -7.062 27.688 C-6.517 26.887 -5.972 26.086 -5.41 25.262 C-3.456 22.127 -2.861 19.627 -2.875 16 C-2.872 15.319 -2.87 14.639 -2.867 13.938 C-3 12 -3 12 -4 9 C-2.68 9 -1.36 9 0 9 C0 6.03 0 3.06 0 0 Z " fill="#25262A" transform="translate(106,88)"/>
<path d="M0 0 C2.542 2.542 2.258 4.193 2.278 7.664 C2.269 8.414 2.26 9.164 2.25 9.938 C2.247 10.319 2.247 10.319 2.229 12.25 C2 24.925 2 24.925 0 30 C-3.275 33 -3.275 33 -6 33 C-6.165 32.505 -6.165 32.505 -7 30 C-7.99 29.67 -8.98 29.34 -10 29 C-11.175 24.889 -10.774 22.843 -9 19 C-8.25 16.449 -8 14.7 -8 12 C-8.99 12.33 -9.98 12.66 -11 13 C-10.835 12.299 -10.67 11.597 -10.5 10.875 C-10 8 -10 8 -10.125 4.812 C-10.084 3.884 -10.043 2.956 -10 2 C-6.327 -0.449 -4.336 -0.315 0 0 Z " fill="#53760C" transform="translate(84,41)"/>
<path d="M0 0 C0.488 0.014 0.488 0.014 2.957 0.082 C3.325 0.099 3.325 0.099 5.188 0.188 C7.435 4.044 7.387 6.662 6.809 10.996 C5.858 14.35 3.851 16.056 1.188 18.188 C0.858 18.517 0.528 18.847 0.188 19.188 C-1.434 19.312 -3.061 19.363 -4.688 19.375 C-5.572 19.389 -6.456 19.403 -7.367 19.418 C-9.812 19.188 -9.812 19.188 -12.812 17.188 C-12.611 14.914 -12.376 12.644 -12.125 10.375 C-11.997 9.11 -11.87 7.846 -11.738 6.543 C-10.812 3.188 -10.812 3.188 -8.594 1.25 C-5.508 0.071 -3.29 -0.119 0 0 Z " fill="#393644" transform="translate(71.8125,114.8125)"/>
<path d="M0 0 C2.468 2.013 4.358 4.271 6 7 C6.155 10.88 5.312 12.526 3.188 15.75 C1.097 17.901 -0.149 19.136 -3 20 C-7.362 19.776 -10.058 18.194 -13 15 C-13.78 11.313 -13.628 9.104 -11.75 5.805 C-8.489 1.255 -5.967 -2.251 0 0 Z " fill="#413D4B" transform="translate(48,106)"/>
<path d="M0 0 C3.125 -0.625 3.125 -0.625 7 0 C10.228 3.42 12.699 7.432 13.254 12.164 C13.052 14.234 12.63 16.019 12 18 C11.785 18.727 11.569 19.454 11.348 20.203 C10.086 23.996 9.391 25.739 6 28 C7.32 28.66 8.64 29.32 10 30 C-0.901 31.756 -0.901 31.756 -5 28.938 C-5.66 27.968 -6.32 26.999 -7 26 C-7.763 25.051 -8.526 24.102 -9.312 23.125 C-11.286 19.471 -11.327 17.092 -11 13 C-10.701 13.382 -10.701 13.382 -9.188 15.312 C-8.466 16.199 -7.744 17.086 -7 18 C-6.546 18.619 -6.093 19.237 -5.625 19.875 C-4 21 -4 21 -1.125 21 C2.807 19.742 4.473 18.249 7 15 C7.711 12.211 8 9.86 8 7 C7.422 6.773 6.845 6.546 6.25 6.312 C3.434 4.67 1.919 2.605 0 0 Z " fill="#2E2C37" transform="translate(45,104)"/>
<path d="M0 0 C1.32 0 2.64 0 4 0 C4 2.64 4 5.28 4 8 C4.603 7.856 5.207 7.711 5.828 7.562 C6.627 7.377 7.427 7.191 8.25 7 C8.644 6.907 8.644 6.907 10.641 6.438 C13 6 13 6 17 6 C17.347 9.732 17.292 11.541 15.25 14.75 C11.289 18.711 8.442 19.225 3 19.363 C0.18 18.851 -1.065 18.134 -3 16 C-3.242 12.715 -3.242 12.715 -2.875 8.938 C-2.769 7.688 -2.664 6.439 -2.555 5.152 C-2 2 -2 2 0 0 Z " fill="#3E3C4A" transform="translate(60,87)"/>
<path d="M0 0 C1.65 0.33 3.3 0.66 5 1 C6.482 4.458 7.158 6.353 6.25 10.062 C5.837 11.032 5.425 12.001 5 13 C4.752 13.887 4.505 14.774 4.25 15.688 C2.459 19.001 0.499 19.765 -3 21 C-6.434 20.766 -7.55 20.45 -10 18 C-10.33 18 -10.66 18 -11 18 C-11.364 11.692 -11.364 11.692 -9.75 8.625 C-7.789 6.804 -6.582 6.5 -4 6 C-3.34 5.34 -2.68 4.68 -2 4 C-0.68 4 0.64 4 2 4 C1.34 2.68 0.68 1.36 0 0 Z " fill="#3D3B48" transform="translate(48,78)"/>
<path d="M0 0 C0.99 0.33 1.98 0.66 3 1 C2.714 4.333 2.019 5.975 0 8.688 C-4.611 12.242 -9.232 12.639 -14.875 13.375 C-17 13 -17 13 -18.812 11 C-19.008 10.67 -19.008 10.67 -20 9 C-19.67 8.67 -19.34 8.34 -19 8 C-19.99 7.835 -19.99 7.835 -25 7 C-23.688 5.5 -23.688 5.5 -22 4 C-21.01 4 -20.02 4 -19 4 C-19 3.34 -19 2.68 -19 2 C-17.712 1.939 -16.424 1.879 -15.098 1.816 C-13.419 1.732 -11.741 1.647 -10.062 1.562 C-9.637 1.543 -9.637 1.543 -7.486 1.443 C-6.677 1.401 -5.869 1.36 -5.035 1.316 C-4.661 1.298 -4.661 1.298 -2.766 1.205 C-1 1 -1 1 0 0 Z " fill="#668B10" transform="translate(121,69)"/>
<path d="M0 0 C0.99 0.33 1.98 0.66 3 1 C3.553 8.352 2.511 13.512 -1 20 C-2.32 19.67 -3.64 19.34 -5 19 C-4.34 18.01 -3.68 17.02 -3 16 C-4.625 15.25 -4.625 15.25 -7 15 C-9.031 16.285 -11.033 17.619 -13 19 C-13.99 19 -14.98 19 -16 19 C-16 17.02 -16 15.04 -16 13 C-15.34 13 -14.68 13 -14 13 C-13.792 12.439 -13.585 11.879 -13.371 11.301 C-11.512 8.181 -8.936 6.309 -6.062 4.188 C-5.524 3.768 -4.986 3.348 -4.432 2.916 C-2.848 1.73 -2.848 1.73 0 0 Z " fill="#73951A" transform="translate(102,52)"/>
<path d="M0 0 C1.32 0.33 2.64 0.66 4 1 C0.086 6.076 -3.859 11.106 -8 16 C-7.34 16.66 -6.68 17.32 -6 18 C-10.161 20.081 -15.469 19.35 -20.047 19.405 C-22.031 19.437 -24.015 19.506 -25.998 19.576 C-33.452 19.663 -38.423 19.129 -44.459 14.59 C-46 13 -46 13 -47 10 C-46.34 9.34 -45.68 8.68 -45 8 C-44.742 8.382 -44.742 8.382 -43.438 10.312 C-40.434 13.624 -38.288 14.735 -34 16 C-29.951 16.109 -26.34 16.076 -23.102 13.477 C-20.349 11.542 -18.398 11.601 -15.062 11.5 C-10.461 11.36 -7.774 10.69 -4 8 C-1.696 5.45 -0.604 3.381 0 0 Z " fill="#E9D7B9" transform="translate(90,161)"/>
<path d="M0 0 C0.402 0.01 0.402 0.01 2.438 0.062 C2.363 0.82 2.289 1.577 2.213 2.357 C2.438 5.062 2.438 5.062 3.896 6.848 C11.042 11.868 17.411 11.808 25.938 11.5 C26.571 11.491 26.571 11.491 29.777 11.443 C46.246 11.126 46.246 11.126 52.438 9.062 C54.446 9.338 56.449 9.665 58.438 10.062 C58.438 10.393 58.438 10.722 58.438 11.062 C50.114 12.995 41.984 14.679 33.438 15.062 C32.213 15.127 30.988 15.191 29.727 15.258 C17.735 15.691 7.782 12.89 -3.562 9.062 C-3.66 2.91 -3.66 2.91 -3.562 1.062 C-2.562 0.062 -2.562 0.062 0 0 Z " fill="#F5E9D3" transform="translate(41.5625,167.9375)"/>
<path d="M0 0 C1.32 0.33 2.64 0.66 4 1 C5.194 4.73 5.41 8.108 5 12 C2.688 14.938 2.688 14.938 0 17 C-0.99 17 -1.98 17 -3 17 C-3 18.65 -3 20.3 -3 22 C-3.99 22 -4.98 22 -6 22 C-7.059 18.823 -7.2 16.4 -7.25 13.062 C-7.263 12.542 -7.263 12.542 -7.328 9.91 C-6.964 6.683 -6.164 5.363 -4 3 C-3.67 3.33 -3.34 3.66 -3 4 C-2.01 2.68 -1.02 1.36 0 0 Z " fill="#4A4452" transform="translate(28,98)"/>
<path d="M0 0 C4.756 3.805 4.756 3.805 5.402 6.973 C5.465 10.676 5.369 14.067 3 17 C-0.948 19.256 -4.521 19.471 -9 19 C-12.654 17.139 -14.532 15.936 -16.375 12.25 C-16.581 11.507 -16.788 10.765 -17 10 C-16.319 10.33 -15.639 10.66 -14.938 11 C-11.323 12.23 -8.797 12.475 -5 12 C-2.062 9.938 -2.062 9.938 0 7 C0.312 3.188 0.312 3.188 0 0 Z " fill="#282731" transform="translate(58,139)"/>
<path d="M0 0 C11.24 -1.051 11.24 -1.051 15.199 1.312 C18.17 4.535 18.953 6.508 19.375 10.938 C19.251 11.948 19.127 12.959 19 14 C15.567 14.424 14.302 14.222 11.465 12.137 C10.631 11.328 9.797 10.52 8.938 9.688 C4.158 5.114 4.158 5.114 1.691 3.332 C1.133 2.892 0.575 2.453 0 2 C0 1.34 0 0.68 0 0 Z " fill="#79A10F" transform="translate(86,78)"/>
<path d="M0 0 C0.33 0.66 0.66 1.32 1 2 C-0.32 2.33 -1.64 2.66 -3 3 C-2.383 3.28 -1.765 3.559 -1.129 3.848 C5.252 6.868 10.595 10.47 16 15 C15.67 15.99 15.34 16.98 15 18 C13.68 18 12.36 18 11 18 C10.67 18.66 10.34 19.32 10 20 C9.711 19.134 9.422 18.267 9.125 17.375 C6.443 13.116 3.455 11.624 -0.918 9.297 C-1.262 9.083 -1.262 9.083 -3 8 C-3 7.34 -3 6.68 -3 6 C-3.66 6 -4.32 6 -5 6 C-5 8.97 -5 11.94 -5 15 C-9 15 -9 15 -11.125 13.125 C-11.744 12.424 -12.362 11.722 -13 11 C-13.66 10.34 -14.32 9.68 -15 9 C-12.03 9.33 -9.06 9.66 -6 10 C-6.33 7.03 -6.66 4.06 -7 1 C-5.845 0.835 -5.845 0.835 0 0 Z " fill="#324D0A" transform="translate(111,82)"/>
<path d="M0 0 C-0.33 1.32 -0.66 2.64 -1 4 C0.65 4.33 2.3 4.66 4 5 C4 5.66 4 6.32 4 7 C5.98 6.67 7.96 6.34 10 6 C10 6.66 10 7.32 10 8 C8.952 8.41 7.904 8.82 6.824 9.242 C5.445 9.786 4.066 10.331 2.688 10.875 C1.997 11.144 1.307 11.414 0.596 11.691 C-2.51 12.922 -5.21 14.14 -8 16 C-9.728 14.272 -9.294 12.043 -9.375 9.688 C-9.334 4.399 -9.334 4.399 -6.75 1.312 C-4 0 -4 0 0 0 Z " fill="#82A516" transform="translate(74,74)"/>
<path d="M0 0 C9.335 1.314 16.874 8.231 23 15 C23.66 15.66 24.32 16.32 25 17 C20.687 16.741 17.975 16.295 14.812 13.375 C13.884 12.591 12.956 11.808 12 11 C10.105 11.281 10.105 11.281 8 12 C6.503 12.385 5.002 12.76 3.5 13.125 C2.747 13.313 1.994 13.501 1.219 13.695 C-1.163 14.022 -2.73 13.733 -5 13 C-2.877 12.163 -0.751 11.33 1.375 10.5 C2.558 10.036 3.742 9.572 4.961 9.094 C8 8 8 8 10 8 C10 7.34 10 6.68 10 6 C9.402 6.351 8.804 6.701 8.188 7.062 C6 8 6 8 3 7 C3 6.34 3 5.68 3 5 C1.68 4.67 0.36 4.34 -1 4 C-0.67 2.68 -0.34 1.36 0 0 Z " fill="#516F0D" transform="translate(74,74)"/>
<path d="M0 0 C0.66 0.33 1.32 0.66 2 1 C1.188 2.938 1.188 2.938 0 5 C-4.007 6.336 -7.888 6.326 -12.09 6.523 C-15.305 7.05 -16.499 8.013 -19 10 C-21.219 10.582 -21.219 10.582 -23.5 10.812 C-24.253 10.901 -25.006 10.99 -25.781 11.082 C-29.134 10.958 -31.146 9.867 -33.484 7.492 C-34.656 5.995 -35.828 4.497 -37 3 C-31.25 4.875 -31.25 4.875 -29 6 C-23.906 6.384 -21.199 5.879 -17 3 C-16.34 3 -15.68 3 -15 3 C-14.67 2.67 -14.34 2.34 -14 2 C-10.639 1.675 -7.277 1.486 -3.906 1.281 C-1 1 -1 1 0 0 Z " fill="#3C3B41" transform="translate(84,167)"/>
<path d="M0 0 C0.722 0.351 1.444 0.701 2.188 1.062 C5.361 2.12 6.823 1.836 10 1 C10.99 1 11.98 1 13 1 C9.375 4 9.375 4 6 4 C6 5.32 6 6.64 6 8 C5.34 8 4.68 8 4 8 C3.876 7.361 3.752 6.721 3.625 6.062 C3.419 5.382 3.213 4.701 3 4 C2.34 3.67 1.68 3.34 1 3 C0.752 3.619 0.505 4.238 0.25 4.875 C-1.258 7.438 -2.209 8.043 -5 9 C-7.75 9.125 -7.75 9.125 -10 9 C-10.66 10.98 -11.32 12.96 -12 15 C-12.66 15 -13.32 15 -14 15 C-14 11.7 -14 8.4 -14 5 C-13.241 4.89 -12.481 4.781 -11.699 4.668 C-10.705 4.509 -9.711 4.351 -8.688 4.188 C-7.701 4.037 -6.715 3.886 -5.699 3.73 C-2.873 2.966 -1.804 2.247 0 0 Z M-15 15 C-14.67 16.32 -14.34 17.64 -14 19 C-16.31 20.65 -18.62 22.3 -21 24 C-21.66 23.67 -22.32 23.34 -23 23 C-21.503 21.796 -20.005 20.591 -18.508 19.387 C-17 18 -17 18 -15 15 Z " fill="#1C1B23" transform="translate(101,138)"/>
<path d="M0 0 C0.99 0.66 1.98 1.32 3 2 C8.849 3.797 14.932 4.422 21 5 C21.33 8.96 21.66 12.92 22 17 C22.536 16.825 22.536 16.825 25.25 15.938 C29 15 29 15 33 16 C30.855 16.99 30.855 16.99 20 22 C20 17.71 20 13.42 20 9 C13.25 9.875 13.25 9.875 11 11 C11 9.35 11 7.7 11 6 C9.582 6.285 8.166 6.578 6.75 6.875 C6.356 6.956 6.356 6.956 4.359 7.367 C2.032 7.992 0.11 8.848 -2 10 C-1.34 8.35 -0.68 6.7 0 5 C0.66 5 1.32 5 2 5 C1.34 3.35 0.68 1.7 0 0 Z " fill="#252426" transform="translate(44,72)"/>
<path d="M0 0 C0.91 0.102 1.82 0.204 2.758 0.309 C3.456 0.392 4.155 0.476 4.875 0.562 C3.536 8.464 3.536 8.464 0 11.625 C-1.031 12.264 -2.062 12.904 -3.125 13.562 C-4.445 13.232 -5.765 12.903 -7.125 12.562 C-7.125 8.602 -7.125 4.642 -7.125 0.562 C-4.502 -0.749 -2.895 -0.334 0 0 Z " fill="#31303B" transform="translate(94.125,122.4375)"/>
<path d="M0 0 C4.587 1.147 5.953 2.361 8.871 5.879 C10.843 9.583 9.981 13.067 9 17 C3.65 16.627 1.491 15.004 -2 11 C-1.67 10.34 -1.34 9.68 -1 9 C-0.67 9.33 -0.34 9.66 0 10 C0 6.7 0 3.4 0 0 Z " fill="#2F2D37" transform="translate(34,151)"/>
<path d="M0 0 C0.33 0 0.66 0 1 0 C0.653 8.122 0.653 8.122 -1.812 11.438 C-6.186 14.562 -9.605 15.378 -15 16 C-15 14.68 -15 13.36 -15 12 C-14.34 12 -13.68 12 -13 12 C-12.67 9.69 -12.34 7.38 -12 5 C-11.381 5.052 -11.381 5.052 -8.25 5.312 C-6.043 5.332 -6.043 5.332 -4 5 C-1.562 2.5 -1.562 2.5 0 0 Z " fill="#292732" transform="translate(102,141)"/>
<path d="M0 0 C0.66 0 1.32 0 2 0 C3.661 3.646 4.296 6.56 4.312 10.562 C4.329 11.492 4.346 12.421 4.363 13.379 C3.945 16.394 3.002 17.755 1 20 C1.33 20.66 1.66 21.32 2 22 C1.67 22.66 1.34 23.32 1 24 C0.34 24 -0.32 24 -1 24 C-1.33 23.34 -1.66 22.68 -2 22 C-3.65 22 -5.3 22 -7 22 C-6.789 21.693 -6.789 21.693 -5.723 20.137 C-5.175 19.328 -4.627 18.52 -4.062 17.688 C-3.517 16.887 -2.972 16.086 -2.41 15.262 C-0.178 11.682 0.116 8.939 0.062 4.812 C0.053 3.911 0.044 3.01 0.035 2.082 C0.024 1.395 0.012 0.708 0 0 Z M7 8 C7.33 8 7.66 8 8 8 C8 11.3 8 14.6 8 18 C6.68 18.33 5.36 18.66 4 19 C4.99 15.37 5.98 11.74 7 8 Z " fill="#1E1C24" transform="translate(103,98)"/>
<path d="M0 0 C1.32 0 2.64 0 4 0 C4.462 6.984 4.7 13.38 0 19 C-3.167 21.289 -5.999 22.106 -9.938 21.688 C-10.618 21.461 -11.299 21.234 -12 21 C-12 20.34 -12 19.68 -12 19 C-10.927 18.649 -9.855 18.299 -8.75 17.938 C-5.083 16.346 -3.424 14.524 -1.641 10.98 C-0.55 7.609 -0.818 4.519 -1 1 C-0.67 0.67 -0.34 0.34 0 0 Z " fill="#3C3942" transform="translate(116,119)"/>
<path d="M0 0 C0.784 0.041 1.567 0.083 2.375 0.125 C2.705 1.115 3.035 2.105 3.375 3.125 C2.055 3.455 0.735 3.785 -0.625 4.125 C-0.295 4.455 0.035 4.785 0.375 5.125 C1.688 12.711 1.483 20.457 1.375 28.125 C0.385 28.125 -0.605 28.125 -1.625 28.125 C-1.746 26.956 -1.867 25.787 -1.992 24.582 C-2.161 23.034 -2.33 21.486 -2.5 19.938 C-2.539 19.553 -2.539 19.553 -2.738 17.607 C-3.204 13.433 -3.925 10.004 -5.625 6.125 C-5.187 2.295 -4.119 0.196 0 0 Z " fill="#8FA917" transform="translate(80.625,41.875)"/>
<path d="M0 0 C6.6 0 13.2 0 20 0 C20.33 0.99 20.66 1.98 21 3 C18.639 5.983 17.474 6.925 13.652 7.531 C12.426 7.521 11.201 7.511 9.938 7.5 C8.709 7.51 7.481 7.521 6.215 7.531 C3 7 3 7 1.066 5.156 C0 3 0 3 0 0 Z " fill="#88AC13" transform="translate(42,66)"/>
<path d="M0 0 C0.66 0.33 1.32 0.66 2 1 C1.67 1.495 1.67 1.495 0 4 C1.114 3.938 2.227 3.876 3.375 3.812 C3.973 3.843 3.973 3.843 7 4 C7.33 4.495 7.33 4.495 9 7 C9.99 5.68 10.98 4.36 12 3 C11.521 7.219 10.834 9.797 8 13 C7.01 12.67 6.02 12.34 5 12 C5.66 11.01 6.32 10.02 7 9 C5.375 8.25 5.375 8.25 3 8 C0.969 9.285 -1.033 10.619 -3 12 C-3.99 12 -4.98 12 -6 12 C-6 10.02 -6 8.04 -6 6 C-5.34 6 -4.68 6 -4 6 C-3.711 5.381 -3.422 4.763 -3.125 4.125 C-2 2 -2 2 0 0 Z " fill="#6D8D15" transform="translate(92,59)"/>
<path d="M0 0 C2 2 2 2 2.195 5.914 C2.182 7.484 2.158 9.055 2.125 10.625 C2.116 11.427 2.107 12.229 2.098 13.055 C2.074 15.037 2.038 17.018 2 19 C0.063 18.625 0.063 18.625 -2 18 C-3.262 15.475 -3.099 13.688 -3.062 10.875 C-3.053 9.965 -3.044 9.055 -3.035 8.117 C-3.024 7.419 -3.012 6.72 -3 6 C-3.66 5.67 -4.32 5.34 -5 5 C-3.35 4.67 -1.7 4.34 0 4 C-0.33 3.34 -0.66 2.68 -1 2 C-3.375 1.875 -3.375 1.875 -6 2 C-7.952 3.952 -8.848 5.532 -10 8 C-10.188 5.125 -10.188 5.125 -10 2 C-6.327 -0.449 -4.336 -0.315 0 0 Z " fill="#648017" transform="translate(84,41)"/>
<path d="M0 0 C0.66 0.33 1.32 0.66 2 1 C2 2.32 2 3.64 2 5 C2.66 5 3.32 5 4 5 C3.73 8.871 3.241 10.706 0.75 13.75 C-3.772 17.45 -7.172 18.389 -13 18 C-13.66 17.67 -14.32 17.34 -15 17 C-15 16.34 -15 15.68 -15 15 C-11 14 -7 13 -3 12 C-2.01 8.04 -1.02 4.08 0 0 Z " fill="#3E3D47" transform="translate(103,141)"/>
<path d="M0 0 C0.33 0.99 0.66 1.98 1 3 C2.323 3.686 3.659 4.348 5 5 C6.011 5.846 7.021 6.691 8.062 7.562 C11 10 11 10 14 11 C14.33 11.99 14.66 12.98 15 14 C12.188 14.688 12.188 14.688 9 15 C7.125 13.562 7.125 13.562 6 12 C6 12.99 6 13.98 6 15 C4.125 14.75 4.125 14.75 2 14 C-0.036 10.889 -0.221 8.416 -0.125 4.75 C-0.116 4.304 -0.116 4.304 -0.07 2.047 C-0.047 1.371 -0.024 0.696 0 0 Z " fill="#7BA011" transform="translate(53,49)"/>
<path d="M0 0 C0.268 0.175 0.268 0.175 1.625 1.062 C4.733 2.289 6.794 1.729 10 1 C9.67 2.65 9.34 4.3 9 6 C7.35 6.33 5.7 6.66 4 7 C4.33 7.66 4.66 8.32 5 9 C5.99 9.33 6.98 9.66 8 10 C8.33 13.63 8.66 17.26 9 21 C5 20 5 20 3.777 18.223 C2.714 15.182 2.608 12.317 2.441 9.121 C1.906 6.548 0.875 5.763 -1 4 C-0.688 1.812 -0.688 1.812 0 0 Z " fill="#44434D" transform="translate(26,141)"/>
<path d="M0 0 C0.998 0.023 1.995 0.046 3.023 0.07 C3.525 0.079 3.525 0.079 6.062 0.125 C6.833 0.148 7.604 0.171 8.398 0.195 C8.728 1.185 9.058 2.175 9.398 3.195 C6.397 5.808 4.602 6.565 0.633 6.488 C-0.257 6.479 -1.146 6.469 -2.062 6.459 C-2.983 6.434 -3.903 6.409 -4.852 6.383 C-5.787 6.369 -6.723 6.356 -7.688 6.342 C-9.993 6.307 -12.297 6.257 -14.602 6.195 C-14.602 5.865 -14.602 5.535 -14.602 5.195 C-13.903 5.002 -13.204 4.809 -12.484 4.609 C-11.574 4.349 -10.664 4.089 -9.727 3.82 C-8.822 3.565 -7.917 3.31 -6.984 3.047 C-3.971 1.97 -3.262 0.245 0 0 Z " fill="#DCC6A4" transform="translate(71.6015625,172.8046875)"/>
<path d="M0 0 C0.99 0.33 1.98 0.66 3 1 C2.34 1 1.68 1 1 1 C1.248 1.516 1.495 2.031 1.75 2.562 C2.137 6.331 0.242 9.045 -2 12 C-5 14 -5 14 -8 14 C-8.33 15.32 -8.66 16.64 -9 18 C-9.421 11.901 -9.09 8.863 -5 4 C-2.438 1.562 -2.438 1.562 0 0 Z " fill="#433E4C" transform="translate(38,76)"/>
<path d="M0 0 C0.33 0.66 0.66 1.32 1 2 C0.282 3.573 -0.438 5.146 -1.164 6.715 C-2.839 11.293 -3.329 16.189 -4 21 C-4.99 20.67 -5.98 20.34 -7 20 C-7 19.01 -7 18.02 -7 17 C-8.75 16.25 -8.75 16.25 -11 16 C-13.25 17.938 -13.25 17.938 -15 20 C-14.4 16.638 -13.523 14.355 -11 12 C-7.313 11.75 -7.313 11.75 -4 12 C-3.963 11.385 -3.925 10.77 -3.887 10.137 C-3.821 9.328 -3.755 8.52 -3.688 7.688 C-3.629 6.887 -3.571 6.086 -3.512 5.262 C-2.918 2.637 -2.042 1.692 0 0 Z " fill="#2B2832" transform="translate(39,83)"/>
<path d="M0 0 C2.126 0.308 4.25 0.622 6.375 0.938 C6.967 1.025 6.967 1.025 9.961 1.465 C13 2 13 2 15 3 C15 2.34 15 1.68 15 1 C16.155 0.835 16.155 0.835 22 0 C22.33 0.99 22.66 1.98 23 3 C20.095 5.137 18.536 6.013 14.879 5.926 C13.784 5.723 12.69 5.521 11.562 5.312 C10.471 5.123 9.379 4.934 8.254 4.738 C5.078 4.018 2.068 3.087 -1 2 C-0.67 1.34 -0.34 0.68 0 0 Z " fill="#54720C" transform="translate(47,72)"/>
<path d="M0 0 C6.886 0 6.886 0 10.02 2.812 C11.232 4.242 12.413 5.7 13.555 7.188 C15 9 15 9 17 10 C16.67 11.32 16.34 12.64 16 14 C15.01 13.67 14.02 13.34 13 13 C13.33 12.34 13.66 11.68 14 11 C13.713 10.867 13.713 10.867 12.258 10.191 C9.923 8.959 7.961 7.552 5.875 5.938 C2.194 3.097 2.194 3.097 0 2 C0 1.34 0 0.68 0 0 Z " fill="#668228" transform="translate(113,86)"/>
<path d="M0 0 C1.32 0 2.64 0 4 0 C4.054 1.625 4.093 3.25 4.125 4.875 C4.148 5.78 4.171 6.685 4.195 7.617 C4 10 4 10 2 12 C0.68 12 -0.64 12 -2 12 C-2.054 10.375 -2.093 8.75 -2.125 7.125 C-2.148 6.22 -2.171 5.315 -2.195 4.383 C-2 2 -2 2 0 0 Z " fill="#484650" transform="translate(60,87)"/>
<path d="M0 0 C0.402 0.01 0.402 0.01 2.438 0.062 C2.293 0.784 2.149 1.506 2 2.25 C2.438 5.062 2.438 5.062 3.996 6.508 C5.776 7.761 7.571 8.943 9.438 10.062 C6.055 11.19 4.67 10.88 1.25 10.125 C0.349 9.93 -0.552 9.736 -1.48 9.535 C-2.168 9.379 -2.855 9.223 -3.562 9.062 C-3.66 2.91 -3.66 2.91 -3.562 1.062 C-2.562 0.062 -2.562 0.062 0 0 Z " fill="#EFE2CA" transform="translate(41.5625,167.9375)"/>
<path d="M0 0 C0.33 3.3 0.66 6.6 1 10 C-1.64 10 -4.28 10 -7 10 C-7.333 6.339 -7.462 4.605 -5.188 1.625 C-3 0 -3 0 0 0 Z " fill="#544F5C" transform="translate(49,82)"/>
<path d="M0 0 C0 0.99 0 1.98 0 3 C-0.33 3.165 -0.33 3.165 -2 4 C-2.33 4.99 -2.66 5.98 -3 7 C-4.98 7.33 -6.96 7.66 -9 8 C-9.66 6.35 -10.32 4.7 -11 3 C-8.218 -1.174 -4.534 -0.223 0 0 Z " fill="#3D3844" transform="translate(53,134)"/>
<path d="M0 0 C2.31 0 4.62 0 7 0 C7.312 3.312 7.312 3.312 7 7 C4.603 8.956 3.124 10 0 10 C0 6.7 0 3.4 0 0 Z " fill="#3A3743" transform="translate(84,97)"/>
<path d="M0 0 C2.938 1.013 3.955 1.932 5.688 4.562 C7.244 8.639 8.175 12.615 8 17 C6.052 19.923 5.006 21.294 2 23 C-1.75 23.188 -1.75 23.188 -5 23 C-5 22.67 -5 22.34 -5 22 C-3.845 21.835 -3.845 21.835 2 21 C3.987 16.033 4.502 12.275 4 7 C2 4.125 2 4.125 0 2 C0 1.34 0 0.68 0 0 Z " fill="#3C3A42" transform="translate(114,95)"/>
<path d="M0 0 C2.625 0.375 2.625 0.375 5 1 C5.625 2.812 5.625 2.812 6 5 C5.67 5.495 5.67 5.495 4 8 C3.34 8 2.68 8 2 8 C2 8.99 2 9.98 2 11 C1.01 11 0.02 11 -1 11 C-1.222 9.544 -1.427 8.085 -1.625 6.625 C-1.741 5.813 -1.857 5.001 -1.977 4.164 C-1.984 3.45 -1.992 2.736 -2 2 C-1.34 1.34 -0.68 0.68 0 0 Z " fill="#47434E" transform="translate(63,116)"/>
<path d="M0 0 C1.32 0 2.64 0 4 0 C3.67 1.32 3.34 2.64 3 4 C4.65 4.33 6.3 4.66 8 5 C8 5.66 8 6.32 8 7 C9.98 6.67 11.96 6.34 14 6 C14 6.66 14 7.32 14 8 C6.788 11.256 6.788 11.256 3.5 10.188 C3.005 9.796 2.51 9.404 2 9 C2.99 7.68 3.98 6.36 5 5 C3.35 5.33 1.7 5.66 0 6 C-1 3 -1 3 0 0 Z " fill="#71950E" transform="translate(70,74)"/>
<path d="M0 0 C3 1 3 1 4.188 3.188 C6.725 7.124 10.186 9.363 14 12 C13.01 12.33 12.02 12.66 11 13 C8.124 11.562 6.264 9.264 4 7 C3.01 6.34 2.02 5.68 1 5 C0.857 12.429 0.857 12.429 2 16 C1.34 16 0.68 16 0 16 C-1.973 11.066 -2.349 7.237 -2 2 C-1.34 1.34 -0.68 0.68 0 0 Z " fill="#6F882C" transform="translate(53,47)"/>
<path d="M0 0 C0.271 0.205 0.271 0.205 1.645 1.242 C2.36 1.781 3.075 2.32 3.812 2.875 C4.52 3.409 5.228 3.942 5.957 4.492 C7.605 5.708 9.296 6.864 11 8 C10.67 8.99 10.34 9.98 10 11 C8.68 11 7.36 11 6 11 C5.67 11.66 5.34 12.32 5 13 C4.546 12.051 4.093 11.102 3.625 10.125 C2 7 2 7 0 5 C-0.125 2.375 -0.125 2.375 0 0 Z " fill="#577A0C" transform="translate(116,89)"/>
<path d="M0 0 C6.27 0 12.54 0 19 0 C19 0.33 19 0.66 19 1 C14.38 1.33 9.76 1.66 5 2 C4.67 3.32 4.34 4.64 4 6 C0.7 5.67 -2.6 5.34 -6 5 C-5.01 4.01 -4.02 3.02 -3 2 C-2.01 2 -1.02 2 0 2 C0 1.34 0 0.68 0 0 Z " fill="#678A0F" transform="translate(102,71)"/>
<path d="M0 0 C0.66 0 1.32 0 2 0 C2.956 3.998 3.104 7.708 3.062 11.812 C3.053 12.974 3.044 14.135 3.035 15.332 C3.024 16.212 3.012 17.093 3 18 C2.01 18 1.02 18 0 18 C-0.195 15.563 -0.381 13.126 -0.562 10.688 C-0.591 10.342 -0.591 10.342 -0.732 8.596 C-0.966 5.375 -1.032 3.097 0 0 Z " fill="#80A110" transform="translate(79,52)"/>
<path d="M0 0 C3.914 1.269 5.791 2.512 8 6 C5.03 6 2.06 6 -1 6 C-1 6.66 -1 7.32 -1 8 C-4.3 7.67 -7.6 7.34 -11 7 C-11 6.67 -11 6.34 -11 6 C-8.69 6 -6.38 6 -4 6 C-3.34 4.68 -2.68 3.36 -2 2 C-1.34 2 -0.68 2 0 2 C0 1.34 0 0.68 0 0 Z " fill="#6E950C" transform="translate(63,67)"/>
<path d="M0 0 C-0.186 0.722 -0.371 1.444 -0.562 2.188 C-1.02 5.128 -0.735 7.141 0 10 C-0.66 9.67 -1.32 9.34 -2 9 C-2 8.34 -2 7.68 -2 7 C-2.557 7.093 -2.557 7.093 -5.375 7.562 C-9 8 -9 8 -11 7 C-6.583 1.233 -6.583 1.233 -3.812 0.125 C-2.544 0.038 -1.272 0 0 0 Z " fill="#84A718" transform="translate(101,56)"/>
<path d="M0 0 C2 2 2 2 2 5 C3.418 4.546 4.834 4.086 6.25 3.625 C7.039 3.37 7.828 3.115 8.641 2.852 C10.866 2.048 12.909 1.103 15 0 C15.66 0.66 16.32 1.32 17 2 C14.353 3.461 13.106 4 10 4 C10 4.66 10 5.32 10 6 C6.04 6.66 2.08 7.32 -2 8 C-2.66 7.01 -3.32 6.02 -4 5 C-3.34 5 -2.68 5 -2 5 C-1.34 3.35 -0.68 1.7 0 0 Z " fill="#365907" transform="translate(85,71)"/>
<path d="M0 0 C0.66 0.33 1.32 0.66 2 1 C1.67 1.99 1.34 2.98 1 4 C-1.713 4.881 -4.289 5.579 -7.062 6.188 C-7.821 6.365 -8.58 6.542 -9.361 6.725 C-11.238 7.161 -13.119 7.582 -15 8 C-14.67 6.35 -14.34 4.7 -14 3 C-13.073 2.951 -12.146 2.902 -11.191 2.852 C-9.994 2.777 -8.796 2.702 -7.562 2.625 C-6.368 2.555 -5.173 2.486 -3.941 2.414 C-2.971 2.277 -2 2.141 -1 2 C-0.67 1.34 -0.34 0.68 0 0 Z " fill="#83A71A" transform="translate(121,69)"/>
<path d="M0 0 C1.32 0.33 2.64 0.66 4 1 C-0.463 6.86 -5.083 12.515 -10 18 C-10.99 17.67 -11.98 17.34 -13 17 C-12.01 16.34 -11.02 15.68 -10 15 C-10.66 14.34 -11.32 13.68 -12 13 C-11.457 12.685 -10.915 12.371 -10.355 12.047 C-1.916 6.999 -1.916 6.999 -0.312 1.75 C-0.261 1.461 -0.261 1.461 0 0 Z " fill="#DAC9AE" transform="translate(90,161)"/>
<path d="M0 0 C4.755 0.576 7.97 2.551 12 5 C9.238 7.762 6.793 7.579 3 8 C3 7.01 3 6.02 3 5 C1.68 4.67 0.36 4.34 -1 4 C-0.67 2.68 -0.34 1.36 0 0 Z " fill="#5E8109" transform="translate(74,74)"/>
<path d="M0 0 C1.32 0.33 2.64 0.66 4 1 C3.237 1.701 2.474 2.403 1.688 3.125 C-0.966 5.964 -2.44 8.469 -4 12 C-4.99 12 -5.98 12 -7 12 C-6.25 5.25 -6.25 5.25 -4 3 C-3.67 3.33 -3.34 3.66 -3 4 C-2.01 2.68 -1.02 1.36 0 0 Z " fill="#46434B" transform="translate(28,98)"/>
<path d="M0 0 C1.32 0 2.64 0 4 0 C5.057 5.285 5.057 5.285 5 8 C3.062 10.5 3.062 10.5 1 12 C0 11 0 11 -0.098 8.496 C-0.086 7.487 -0.074 6.477 -0.062 5.438 C-0.053 4.426 -0.044 3.414 -0.035 2.371 C-0.024 1.589 -0.012 0.806 0 0 Z " fill="#749512" transform="translate(72,53)"/>
<path d="M0 0 C2.965 1.358 5.291 2.924 7.75 5.062 C8.057 5.326 8.057 5.326 9.609 6.66 C10.068 7.102 10.527 7.544 11 8 C11 8.33 11 8.66 11 9 C5.712 8.585 2.883 7.648 -1 4 C-0.67 2.68 -0.34 1.36 0 0 Z " fill="#5F820F" transform="translate(88,82)"/>
<path d="M0 0 C0 0.66 0 1.32 0 2 C0.66 2 1.32 2 2 2 C2.33 3.32 2.66 4.64 3 6 C1.68 6.33 0.36 6.66 -1 7 C-1.33 6.01 -1.66 5.02 -2 4 C-2.66 6.31 -3.32 8.62 -4 11 C-4.33 11 -4.66 11 -5 11 C-5.33 7.7 -5.66 4.4 -6 1 C-3 0 -3 0 0 0 Z " fill="#53515B" transform="translate(29,125)"/>
<path d="M0 0 C0.33 0 0.66 0 1 0 C1.33 2.64 1.66 5.28 2 8 C3.073 7.649 4.145 7.299 5.25 6.938 C9 6 9 6 13 7 C10.855 7.99 10.855 7.99 0 13 C0 8.71 0 4.42 0 0 Z " fill="#38421B" transform="translate(64,81)"/>
<path d="M0 0 C0.99 0.33 1.98 0.66 3 1 C3.125 8.625 3.125 8.625 2 12 C-0.562 13.688 -0.562 13.688 -3 15 C-3 13.68 -3 12.36 -3 11 C-2.01 11 -1.02 11 0 11 C0 7.37 0 3.74 0 0 Z " fill="#62870B" transform="translate(82,59)"/>
<path d="M0 0 C0.99 0.66 1.98 1.32 3 2 C5.262 2.633 5.262 2.633 7.688 3.125 C8.092 3.209 8.092 3.209 10.137 3.633 C10.752 3.754 11.366 3.875 12 4 C9.335 5.776 7.435 6.619 4.438 7.562 C2.186 8.276 0.114 8.943 -2 10 C-1.34 8.35 -0.68 6.7 0 5 C0.66 5 1.32 5 2 5 C1.34 3.35 0.68 1.7 0 0 Z " fill="#292D26" transform="translate(44,72)"/>
<path d="M0 0 C1.65 0 3.3 0 5 0 C5 0.66 5 1.32 5 2 C6.32 2 7.64 2 9 2 C9.33 1.34 9.66 0.68 10 0 C10.99 0.66 11.98 1.32 13 2 C13 2.99 13 3.98 13 5 C9.947 5.294 7.043 5.445 4 5 C1.438 2.5 1.438 2.5 0 0 Z " fill="#8FB418" transform="translate(46,68)"/>
<path d="M0 0 C4.29 0 8.58 0 13 0 C12.01 0.33 11.02 0.66 10 1 C9.312 3.062 9.312 3.062 9 5 C5.625 4.75 5.625 4.75 2 4 C1.34 2.68 0.68 1.36 0 0 Z " fill="#739D0F" transform="translate(86,78)"/>
<path d="M0 0 C2.717 0.367 4.611 0.727 6.875 2.312 C8 4 8 4 7.688 6.188 C7.461 6.786 7.234 7.384 7 8 C5.02 7.34 3.04 6.68 1 6 C0.67 4.02 0.34 2.04 0 0 Z " fill="#85AD13" transform="translate(96,79)"/>
<path d="M0 0 C0.688 1.625 0.688 1.625 1 4 C-0.438 7.25 -0.438 7.25 -2 10 C-3.32 9.67 -4.64 9.34 -6 9 C-5.34 8.01 -4.68 7.02 -4 6 C-4.99 5.67 -5.98 5.34 -7 5 C-6.67 3.68 -6.34 2.36 -6 1 C-5.34 1 -4.68 1 -4 1 C-3.34 1.99 -2.68 2.98 -2 4 C-1.34 2.68 -0.68 1.36 0 0 Z " fill="#5E7F12" transform="translate(103,62)"/>
<path d="M0 0 C5.75 1.875 5.75 1.875 8 3 C9.537 3.225 11.08 3.408 12.625 3.562 C13.442 3.646 14.26 3.73 15.102 3.816 C15.728 3.877 16.355 3.938 17 4 C14.505 6.495 13.327 6.359 9.875 6.625 C8.965 6.7 8.055 6.775 7.117 6.852 C6.768 6.876 6.768 6.876 5 7 C5 6.34 5 5.68 5 5 C3.374 3.293 1.709 1.623 0 0 Z " fill="#45444E" transform="translate(47,170)"/>
<path d="M0 0 C1.196 0.186 2.392 0.371 3.625 0.562 C7.283 1.031 10.379 0.815 14 0 C14 0.99 14 1.98 14 3 C10.04 3 6.08 3 2 3 C2.33 4.98 2.66 6.96 3 9 C0.938 6.75 0.938 6.75 -1 4 C-0.75 1.688 -0.75 1.688 0 0 Z " fill="#688029" transform="translate(41,64)"/>
<path d="M0 0 C0.66 0 1.32 0 2 0 C2.75 1.688 2.75 1.688 3 4 C1.062 6.75 1.062 6.75 -1 9 C-1.66 8.67 -2.32 8.34 -3 8 C-2.453 4.625 -1.945 2.918 0 0 Z M-5 6 C-4.34 6.33 -3.68 6.66 -3 7 C-4.65 7.33 -6.3 7.66 -8 8 C-7.01 7.34 -6.02 6.68 -5 6 Z " fill="#333239" transform="translate(87,161)"/>
<path d="M0 0 C1.6 3.201 0.032 5.723 -1 9 C-0.34 9 0.32 9 1 9 C1 9.66 1 10.32 1 11 C-1.31 11 -3.62 11 -6 11 C-4.68 10.34 -3.36 9.68 -2 9 C-2 7.68 -2 6.36 -2 5 C-3.65 5.33 -5.3 5.66 -7 6 C-7 5.34 -7 4.68 -7 4 C-6.031 3.526 -5.061 3.051 -4.062 2.562 C-1 1 -1 1 0 0 Z " fill="#2B2934" transform="translate(37,138)"/>
<path d="M0 0 C0.33 0 0.66 0 1 0 C1 3.3 1 6.6 1 10 C-3 10 -3 10 -5.125 8.125 C-5.744 7.424 -6.362 6.722 -7 6 C-7.66 5.34 -8.32 4.68 -9 4 C-6.03 4.33 -3.06 4.66 0 5 C0 3.35 0 1.7 0 0 Z " fill="#4F670B" transform="translate(105,87)"/>
<path d="M0 0 C0.33 0.66 0.66 1.32 1 2 C0.271 3.689 -0.462 5.376 -1.23 7.047 C-2.378 9.96 -2.684 12.902 -3 16 C-3.33 15.34 -3.66 14.68 -4 14 C-5.98 14 -7.96 14 -10 14 C-9.34 13.34 -8.68 12.68 -8 12 C-6.68 12 -5.36 12 -4 12 C-3.963 11.385 -3.925 10.77 -3.887 10.137 C-3.821 9.328 -3.755 8.52 -3.688 7.688 C-3.629 6.887 -3.571 6.086 -3.512 5.262 C-2.918 2.637 -2.042 1.692 0 0 Z " fill="#201E2B" transform="translate(39,83)"/>
<path d="M0 0 C0.33 0.99 0.66 1.98 1 3 C-2.62 4.316 -5.096 5 -9 5 C-9.33 4.01 -9.66 3.02 -10 2 C-6.492 0.396 -3.856 -0.22 0 0 Z " fill="#769B16" transform="translate(119,76)"/>
<path d="M0 0 C0.224 0.205 0.224 0.205 1.355 1.242 C4.737 4.256 7.58 6.661 12 8 C11.01 8.66 10.02 9.32 9 10 C4.935 8.93 2.157 6.706 -1 4 C-0.67 2.68 -0.34 1.36 0 0 Z " fill="#D8C6AC" transform="translate(44,169)"/>
<path d="M0 0 C0.99 0.33 1.98 0.66 3 1 C3.717 2.982 4.383 4.984 5 7 C5.66 7.66 6.32 8.32 7 9 C3.812 9.312 3.812 9.312 0 9 C-2.938 6.5 -2.938 6.5 -5 4 C-4.175 4.33 -4.175 4.33 0 6 C0 4.02 0 2.04 0 0 Z " fill="#486F0A" transform="translate(70,63)"/>
<path d="M0 0 C0.33 0 0.66 0 1 0 C1 5.61 1 11.22 1 17 C-0.32 16.67 -1.64 16.34 -3 16 C-3 13.69 -3 11.38 -3 9 C-2.34 9.66 -1.68 10.32 -1 11 C-0.67 7.37 -0.34 3.74 0 0 Z " fill="#6D862F" transform="translate(85,43)"/>
<path d="M0 0 C2.64 0 5.28 0 8 0 C7.67 1.65 7.34 3.3 7 5 C4.625 4.75 4.625 4.75 2 4 C0.688 1.938 0.688 1.938 0 0 Z " fill="#373540" transform="translate(49,162)"/>
<path d="M0 0 C0.625 1.875 0.625 1.875 1 4 C-1.296 6.296 -2.903 7.064 -6 8 C-8.812 7.625 -8.812 7.625 -11 7 C-11 6.34 -11 5.68 -11 5 C-10.464 4.959 -10.464 4.959 -7.75 4.75 C-3.726 3.945 -2.518 3.123 0 0 Z " fill="#43414B" transform="translate(115,133)"/>
<path d="M0 0 C2 3 2 3 2.75 6.5 C4 10 4 10 7.125 11.938 C7.599 12.113 7.599 12.113 10 13 C8.375 13.812 8.375 13.812 6 14 C0.333 10 0.333 10 -1 6 C-0.724 3.991 -0.398 1.988 0 0 Z " fill="#302E35" transform="translate(45,162)"/>
<path d="M0 0 C0.33 0.66 0.66 1.32 1 2 C-1.417 5.28 -3.185 7.507 -7 9 C-9.359 9.195 -9.359 9.195 -11.75 9.125 C-12.549 9.107 -13.348 9.089 -14.172 9.07 C-14.775 9.047 -15.378 9.024 -16 9 C-16 8.67 -16 8.34 -16 8 C-14.804 7.732 -13.608 7.464 -12.375 7.188 C-7.179 5.879 -3.062 4.593 0 0 Z " fill="#383641" transform="translate(82,132)"/>
<path d="M0 0 C0.33 0 0.66 0 1 0 C0.67 3.96 0.34 7.92 0 12 C-0.99 12.33 -1.98 12.66 -3 13 C-3.316 7.739 -2.666 4.554 0 0 Z " fill="#33313C" transform="translate(57,90)"/>
<path d="M0 0 C-0.33 1.98 -0.66 3.96 -1 6 C-2.98 6 -4.96 6 -7 6 C-6.75 3.625 -6.75 3.625 -6 1 C-2.693 -1.347 -2.693 -1.347 0 0 Z " fill="#363340" transform="translate(36,89)"/>
<path d="M0 0 C1.707 1.281 3.374 2.618 5 4 C5 4.66 5 5.32 5 6 C5.66 6.33 6.32 6.66 7 7 C3.7 6.67 0.4 6.34 -3 6 C-3.33 5.01 -3.66 4.02 -4 3 C-2.68 3 -1.36 3 0 3 C0 2.01 0 1.02 0 0 Z " fill="#567A08" transform="translate(58,60)"/>
<path d="M0 0 C1.98 0.66 3.96 1.32 6 2 C5.67 2.165 5.67 2.165 4 3 C3.586 5.066 3.586 5.066 3.375 7.562 C3.3 8.389 3.225 9.215 3.148 10.066 C3.099 10.704 3.05 11.343 3 12 C2.34 12 1.68 12 1 12 C1.006 11.693 1.006 11.693 1.035 10.137 C1.044 9.328 1.053 8.52 1.062 7.688 C1.074 6.887 1.086 6.086 1.098 5.262 C1 3 1 3 0 0 Z " fill="#201E28" transform="translate(42,156)"/>
<path d="M0 0 C4.95 0.33 9.9 0.66 15 1 C12.352 3.648 10.702 3.715 7 4 C3.688 3.188 3.688 3.188 1 2 C0.67 1.34 0.34 0.68 0 0 Z " fill="#353441" transform="translate(64,158)"/>
<path d="M0 0 C2.125 0.375 2.125 0.375 4 1 C3.67 2.32 3.34 3.64 3 5 C1.68 5.33 0.36 5.66 -1 6 C-1.625 4.125 -1.625 4.125 -2 2 C-1.34 1.34 -0.68 0.68 0 0 Z " fill="#887F89" transform="translate(45,136)"/>
<path d="M0 0 C0.66 0 1.32 0 2 0 C2.33 4.62 2.66 9.24 3 14 C2.67 13.34 2.34 12.68 2 12 C1.34 12 0.68 12 0 12 C0 8.04 0 4.08 0 0 Z " fill="#424146" transform="translate(22,128)"/>
<path d="M0 0 C0.433 0.474 0.866 0.949 1.312 1.438 C3 3 3 3 6 4 C6 4.66 6 5.32 6 6 C4.35 6 2.7 6 1 6 C1 6.99 1 7.98 1 9 C0.34 8.67 -0.32 8.34 -1 8 C-1.75 5.062 -1.75 5.062 -2 2 C-1.34 1.34 -0.68 0.68 0 0 Z " fill="#383640" transform="translate(25,117)"/>
<path d="M0 0 C1.062 1.875 1.062 1.875 2 4 C0.687 6.626 -0.45 7.524 -3 9 C-6.75 9.188 -6.75 9.188 -10 9 C-10 8.67 -10 8.34 -10 8 C-8.845 7.835 -8.845 7.835 -3 7 C-2.691 6.031 -2.381 5.061 -2.062 4.062 C-1 1 -1 1 0 0 Z " fill="#43414B" transform="translate(119,109)"/>
<path d="M0 0 C3.735 0.498 5.812 0.875 9 3 C9.188 5.625 9.188 5.625 9 8 C7.68 7.34 6.36 6.68 5 6 C5 5.01 5 4.02 5 3 C4.175 2.67 4.175 2.67 0 1 C0 0.67 0 0.34 0 0 Z " fill="#405C0B" transform="translate(107,86)"/>
<path d="M0 0 C0.949 0.041 1.897 0.082 2.875 0.125 C3.857 4.178 3.957 7.964 3.875 12.125 C3.545 12.125 3.215 12.125 2.875 12.125 C2.215 8.825 1.555 5.525 0.875 2.125 C-1.105 2.125 -3.085 2.125 -5.125 2.125 C-3.125 0.125 -3.125 0.125 0 0 Z " fill="#18181D" transform="translate(80.125,86.875)"/>
<path d="M0 0 C0.99 0 1.98 0 3 0 C2.67 1.65 2.34 3.3 2 5 C0.35 5.33 -1.3 5.66 -3 6 C-2.427 3.133 -2.139 2.139 0 0 Z " fill="#998F98" transform="translate(43,108)"/>
<path d="M0 0 C0.99 0.33 1.98 0.66 3 1 C3 2.98 3 4.96 3 7 C1.35 6.67 -0.3 6.34 -2 6 C-1.125 1.125 -1.125 1.125 0 0 Z " fill="#898387" transform="translate(61,90)"/>
<path d="M0 0 C2.31 0.33 4.62 0.66 7 1 C6.34 1.66 5.68 2.32 5 3 C5.33 3.495 5.33 3.495 7 6 C5.68 6.33 4.36 6.66 3 7 C0 3.375 0 3.375 0 0 Z " fill="#7CA112" transform="translate(42,66)"/>
<path d="M0 0 C-0.33 2.64 -0.66 5.28 -1 8 C-1.99 7.835 -1.99 7.835 -7 7 C-5.849 3.548 -4.016 0 0 0 Z " fill="#16151D" transform="translate(81,106)"/>
<path d="M0 0 C0.99 0 1.98 0 3 0 C2.67 1.65 2.34 3.3 2 5 C0.68 5.33 -0.64 5.66 -2 6 C-2 2 -2 2 0 0 Z " fill="#938891" transform="translate(46,82)"/>
<path d="M0 0 C0.99 0 1.98 0 3 0 C3 0.66 3 1.32 3 2 C2.34 2 1.68 2 1 2 C1.33 2.495 1.33 2.495 3 5 C2.625 7.188 2.625 7.188 2 9 C0.68 8.67 -0.64 8.34 -2 8 C-1.333 5.333 -0.667 2.667 0 0 Z " fill="#5F880B" transform="translate(75,60)"/>
<path d="M0 0 C2.062 0.438 2.062 0.438 4 1 C3.67 2.32 3.34 3.64 3 5 C1.35 5 -0.3 5 -2 5 C-1.125 1.125 -1.125 1.125 0 0 Z " fill="#999299" transform="translate(65,118)"/>
<path d="M0 0 C4.248 0.472 6.268 2.889 9 6 C9 6.66 9 7.32 9 8 C4.726 6.417 2.735 3.494 0 0 Z " fill="#8CB718" transform="translate(89,81)"/>
<path d="M0 0 C0.825 0.165 0.825 0.165 5 1 C5.33 2.65 5.66 4.3 6 6 C4.35 6.33 2.7 6.66 1 7 C1.021 6.216 1.041 5.433 1.062 4.625 C1 2 1 2 0 0 Z " fill="#45424E" transform="translate(48,78)"/>
<path d="M0 0 C0.33 0 0.66 0 1 0 C1 2.31 1 4.62 1 7 C-0.65 7 -2.3 7 -4 7 C-4.33 5.35 -4.66 3.7 -5 2 C-4.175 2.165 -4.175 2.165 0 3 C0 2.01 0 1.02 0 0 Z " fill="#71930E" transform="translate(104,85)"/>
<path d="M0 0 C2.602 -0.293 2.602 -0.293 5.625 -0.188 C6.126 -0.174 6.126 -0.174 8.664 -0.105 C9.435 -0.071 10.206 -0.036 11 0 C11 0.33 11 0.66 11 1 C9.975 1.098 9.975 1.098 4.848 1.586 C4.238 1.723 3.628 1.859 3 2 C2.67 2.66 2.34 3.32 2 4 C0.68 3.67 -0.64 3.34 -2 3 C-1.34 2.01 -0.68 1.02 0 0 Z " fill="#B7A487" transform="translate(69,173)"/>
<path d="M0 0 C0.66 0.33 1.32 0.66 2 1 C-1.625 4 -1.625 4 -5 4 C-5 5.32 -5 6.64 -5 8 C-5.66 8 -6.32 8 -7 8 C-7.33 6.35 -7.66 4.7 -8 3 C-6.866 2.691 -5.731 2.381 -4.562 2.062 C-1 1 -1 1 0 0 Z " fill="#29262E" transform="translate(112,138)"/>
<path d="M0 0 C3.242 0.35 4.615 0.562 6.812 3.062 C7.204 3.702 7.596 4.341 8 5 C7.67 5.66 7.34 6.32 7 7 C5.83 6.024 4.664 5.044 3.5 4.062 C2.85 3.517 2.201 2.972 1.531 2.41 C1.026 1.945 0.521 1.479 0 1 C0 0.67 0 0.34 0 0 Z " fill="#709813" transform="translate(116,88)"/>
<path d="M0 0 C1.32 0 2.64 0 4 0 C3.125 4.75 3.125 4.75 2 7 C1.34 7 0.68 7 0 7 C0 4.69 0 2.38 0 0 Z " fill="#8CB318" transform="translate(65,79)"/>
<path d="M0 0 C0 0.66 0 1.32 0 2 C-0.66 2 -1.32 2 -2 2 C-2.248 2.969 -2.495 3.939 -2.75 4.938 C-3.163 5.948 -3.575 6.959 -4 8 C-6.125 8.875 -6.125 8.875 -8 9 C-6.69 5.07 -4.75 0 0 0 Z " fill="#332F3C" transform="translate(46,75)"/>
<path d="M0 0 C4.29 0.66 8.58 1.32 13 2 C13 2.33 13 2.66 13 3 C8.71 3 4.42 3 0 3 C0 2.01 0 1.02 0 0 Z " fill="#60830C" transform="translate(47,72)"/>
<path d="M0 0 C0.66 0 1.32 0 2 0 C2 0.66 2 1.32 2 2 C3.65 2 5.3 2 7 2 C5.188 4 5.188 4 3 6 C2.01 6 1.02 6 0 6 C0 4.02 0 2.04 0 0 Z " fill="#5F8611" transform="translate(86,65)"/>
<path d="M0 0 C0 0.33 0 0.66 0 1 C-2.31 1.495 -2.31 1.495 -14 4 C-14 3.34 -14 2.68 -14 2 C-8.777 -0.665 -5.918 -1.329 0 0 Z " fill="#F7ECD8" transform="translate(100,178)"/>
<path d="M0 0 C0.99 0 1.98 0 3 0 C3 1.65 3 3.3 3 5 C1.68 5 0.36 5 -1 5 C-0.67 3.35 -0.34 1.7 0 0 Z " fill="#88848E" transform="translate(87,97)"/>
<path d="M0 0 C1.32 0.33 2.64 0.66 4 1 C1.667 3.333 -0.667 5.667 -3 8 C-3.33 7.01 -3.66 6.02 -4 5 C-2.062 2.312 -2.062 2.312 0 0 Z " fill="#3D3A44" transform="translate(28,98)"/>
<path d="M0 0 C7.508 0.615 7.508 0.615 10 2.562 C10.33 3.037 10.66 3.511 11 4 C10.67 4.99 10.34 5.98 10 7 C9.649 6.361 9.299 5.721 8.938 5.062 C6.228 2.178 3.841 2.29 0 2 C0 1.34 0 0.68 0 0 Z " fill="#637F1B" transform="translate(113,86)"/>
<path d="M0 0 C-3.538 2.123 -6.921 2.622 -11 3 C-11.66 2.67 -12.32 2.34 -13 2 C-8.496 0.243 -4.824 -0.193 0 0 Z " fill="#36333B" transform="translate(77,92)"/>
<path d="M0 0 C0.99 0.33 1.98 0.66 3 1 C2.34 1 1.68 1 1 1 C1.33 2.32 1.66 3.64 2 5 C0.68 5.33 -0.64 5.66 -2 6 C-2 4.35 -2 2.7 -2 1 C-1.34 0.67 -0.68 0.34 0 0 Z " fill="#766E78" transform="translate(38,76)"/>
<path d="M0 0 C0.66 0.99 1.32 1.98 2 3 C1.67 3.99 1.34 4.98 1 6 C-0.65 5.67 -2.3 5.34 -4 5 C-4 4.34 -4 3.68 -4 3 C-2 1.375 -2 1.375 0 0 Z " fill="#1F1D28" transform="translate(81,136)"/>
<path d="M0 0 C1.32 0.33 2.64 0.66 4 1 C3.67 2.65 3.34 4.3 3 6 C2.34 6 1.68 6 1 6 C0.67 4.02 0.34 2.04 0 0 Z " fill="#484651" transform="translate(88,123)"/>
<path d="M0 0 C-0.33 1.65 -0.66 3.3 -1 5 C-1.66 5 -2.32 5 -3 5 C-3.33 4.34 -3.66 3.68 -4 3 C-4.99 2.34 -5.98 1.68 -7 1 C-3.375 -1.125 -3.375 -1.125 0 0 Z " fill="#544F5D" transform="translate(48,113)"/>
<path d="M0 0 C0 1.98 0 3.96 0 6 C-1.98 5.01 -3.96 4.02 -6 3 C-2.25 0 -2.25 0 0 0 Z " fill="#EAEBD7" transform="translate(119,80)"/>
<path d="M0 0 C2.64 0 5.28 0 8 0 C8 1.32 8 2.64 8 4 C7.34 4 6.68 4 6 4 C6 3.34 6 2.68 6 2 C4.35 2 2.7 2 1 2 C0.67 1.34 0.34 0.68 0 0 Z " fill="#232814" transform="translate(57,77)"/>
<path d="M0 0 C1.65 0.33 3.3 0.66 5 1 C3.688 3.5 3.688 3.5 2 6 C1.01 6 0.02 6 -1 6 C-0.67 4.02 -0.34 2.04 0 0 Z " fill="#4C4853" transform="translate(40,73)"/>
<path d="M0 0 C-3.259 2.172 -6.592 4.071 -10 6 C-10 5.01 -10 4.02 -10 3 C-6.626 0.397 -4.231 -0.363 0 0 Z " fill="#36333D" transform="translate(43,74)"/>
<path d="M0 0 C0.33 0 0.66 0 1 0 C1.66 3.63 2.32 7.26 3 11 C2.67 11.165 2.67 11.165 1 12 C-0.262 9.475 -0.099 7.688 -0.062 4.875 C-0.053 3.965 -0.044 3.055 -0.035 2.117 C-0.024 1.419 -0.012 0.72 0 0 Z " fill="#85AA0F" transform="translate(53,49)"/>
<path d="M0 0 C5.75 0.75 5.75 0.75 8 3 C5.688 3.625 5.688 3.625 3 4 C2.01 3.34 1.02 2.68 0 2 C0 1.34 0 0.68 0 0 Z " fill="#38353B" transform="translate(34,163)"/>
<path d="M0 0 C1.32 0.33 2.64 0.66 4 1 C3.67 1.99 3.34 2.98 3 4 C1.68 4 0.36 4 -1 4 C-1.33 4.66 -1.66 5.32 -2 6 C-2.33 4.68 -2.66 3.36 -3 2 C-2.01 1.67 -1.02 1.34 0 1 C0 0.67 0 0.34 0 0 Z " fill="#486214" transform="translate(123,96)"/>
<path d="M0 0 C2.31 0.33 4.62 0.66 7 1 C7 1.66 7 2.32 7 3 C5.35 3.33 3.7 3.66 2 4 C1.34 2.68 0.68 1.36 0 0 Z " fill="#6A920D" transform="translate(86,78)"/>
<path d="M0 0 C4.875 1.75 4.875 1.75 6 4 C3.03 4 0.06 4 -3 4 C-2.67 3.34 -2.34 2.68 -2 2 C-1.34 2 -0.68 2 0 2 C0 1.34 0 0.68 0 0 Z " fill="#789F10" transform="translate(63,67)"/>
<path d="M0 0 C1.32 0 2.64 0 4 0 C4 1.98 4 3.96 4 6 C2.68 5.34 1.36 4.68 0 4 C0 2.68 0 1.36 0 0 Z " fill="#5F890C" transform="translate(67,64)"/>
<path d="M0 0 C0.619 0.268 1.237 0.536 1.875 0.812 C2.205 1.802 2.535 2.793 2.875 3.812 C0.235 3.153 -2.405 2.493 -5.125 1.812 C-2.125 -0.188 -2.125 -0.188 0 0 Z " fill="#393541" transform="translate(46.125,105.1875)"/>
</svg>
