<?xml version="1.0" encoding="UTF-8"?>
<!-- Generator: visioncortex VTracer 0.6.12 -->
<svg version="1.1" xmlns="http://www.w3.org/2000/svg" width="175" height="190">
<path d="M0 0 C57.75 0 115.5 0 175 0 C175 62.7 175 125.4 175 190 C117.25 190 59.5 190 0 190 C0 127.3 0 64.6 0 0 Z " fill="#FDF9EF" transform="translate(0,0)"/>
<path d="M0 0 C0.66 0 1.32 0 2 0 C2.037 0.383 2.037 0.383 2.223 2.324 C3 5 3 5 4.871 6.582 C15.915 11.877 29.393 11.602 41 8 C41.659 7.642 42.317 7.283 42.996 6.914 C47.285 4.958 52.588 6.888 56.988 8.023 C62.811 9.324 68.555 9.368 74.5 9.375 C75.576 9.399 76.653 9.424 77.762 9.449 C84.374 9.473 90.489 9.002 96 5 C97.24 2.861 97.24 2.861 98 1 C101.713 2.238 103.036 4.287 104.791 7.699 C105.087 8.314 105.383 8.929 105.688 9.562 C105.996 10.188 106.304 10.813 106.621 11.458 C108.962 16.424 109.906 20.551 110 26 C111.217 26.041 112.434 26.082 113.688 26.125 C121.314 27.041 129.017 29.69 134.246 35.492 C142.274 47.681 147.106 62.026 144.312 76.582 C140.782 91.102 134.797 102.323 121.875 110.375 C110.828 116.589 97.155 117.827 84.75 115.352 C76.81 112.932 68.915 108.915 63 103 C60.437 102.805 60.437 102.805 57.215 102.875 C56.044 102.89 54.873 102.906 53.666 102.922 C51.208 102.973 48.749 103.025 46.291 103.078 C30.492 103.285 19.822 99.221 8.215 88.219 C-5.501 74.479 -12.196 57.835 -12.25 38.438 C-12.224 24.805 -10.166 10.166 0 0 Z " fill="#9EB112" transform="translate(16,71)"/>
<path d="M0 0 C4.233 3.262 6.494 6.408 7.953 11.645 C9.308 22.5 5.853 31.827 -0.438 40.594 C-9.34 51.938 -21.172 58.191 -35.047 61.645 C-35.713 61.837 -36.38 62.029 -37.066 62.227 C-46.892 64.3 -56.691 62.253 -65.359 57.457 C-69.548 54.576 -72.355 51.486 -74.047 46.645 C-75.673 35.519 -72.726 26.302 -66.609 17.082 C-51.986 -1.839 -21.692 -14.365 0 0 Z " fill="#FAF5EA" transform="translate(143.046875,105.35546875)"/>
<path d="M0 0 C0.33 0 0.66 0 1 0 C1.013 0.563 1.013 0.563 1.078 3.41 C1.703 22.496 6.183 39.303 19 54 C19.498 54.603 19.995 55.207 20.508 55.828 C27.646 63.791 38.335 69.778 49 71 C54.718 71.099 60.429 70.857 66.139 70.57 C74.221 70.371 78.105 71.558 84 77 C86.723 78.609 86.723 78.609 89.062 79.75 C89.837 80.137 90.612 80.523 91.41 80.922 C103.008 85.75 117.373 85.601 129.172 81.188 C140.842 75.76 149.351 67.001 154 55 C155.189 50.699 156.155 46.381 157 42 C157.33 42 157.66 42 158 42 C162.853 56.56 160 72.652 160 88 C106.21 88 52.42 88 -3 88 C-3 60.28 -3 32.56 -3 4 C-2.34 4 -1.68 4 -1 4 C-0.67 2.68 -0.34 1.36 0 0 Z " fill="#FBF5E7" transform="translate(3,102)"/>
<path d="M0 0 C0.66 0.33 1.32 0.66 2 1 C1.613 1.571 1.227 2.142 0.828 2.73 C-8.074 16.591 -10.825 32.807 -8.574 49.078 C-7.235 55.092 -5.022 60.718 -2.625 66.375 C-2.345 67.041 -2.065 67.708 -1.777 68.394 C0.233 72.917 2.532 76.444 6 80 C6.99 80 7.98 80 9 80 C10.124 81.396 11.244 82.795 12.348 84.207 C16.855 89.098 22.786 92.736 29 95 C29 95.99 29 96.98 29 98 C29.928 97.649 30.856 97.299 31.812 96.938 C35 96 35 96 38 97 C38.33 97.66 38.66 98.32 39 99 C45.93 99 52.86 99 60 99 C60 98.34 60 97.68 60 97 C59.34 97 58.68 97 58 97 C51.822 88.52 48.069 80.157 49.5 69.625 C52.322 57.164 59.218 48.807 68 40 C68.824 39.123 69.647 38.247 70.496 37.344 C80.576 27.909 97.473 23.587 111 24 C115.178 24.589 119.019 25.615 123 27 C123.9 27.307 124.8 27.614 125.727 27.93 C134.86 31.71 138.588 39.38 142.312 48.125 C147.678 62.724 146.743 75.775 140.68 90.125 C135.004 101.29 126.357 108.49 114.875 113.312 C100.879 116.659 86.587 116.394 73.883 109.246 C66.906 104.906 66.906 104.906 64 102 C61.437 101.805 61.437 101.805 58.215 101.875 C57.044 101.89 55.873 101.906 54.666 101.922 C52.208 101.973 49.749 102.025 47.291 102.078 C31.492 102.285 20.822 98.221 9.215 87.219 C-4.501 73.479 -11.196 56.835 -11.25 37.438 C-11.226 24.69 -9.624 9.624 0 0 Z M88 31 C87.05 31.402 86.1 31.804 85.121 32.219 C71.668 38.404 61.325 47.526 55.562 61.312 C53.306 68.279 52.253 75.758 55.105 82.684 C58.164 87.677 61.565 90.861 67 93 C67.741 93.296 68.482 93.593 69.246 93.898 C82.122 98.39 94.699 95.855 106.75 90.152 C120.035 83.348 129.427 74.753 134.875 60.562 C136.806 54.017 137.233 47.052 134.5 40.688 C130.49 33.797 123.492 30.056 116 28 C113.026 27.609 110.121 27.569 107.125 27.625 C106.729 27.63 106.729 27.63 104.724 27.656 C98.725 27.815 93.532 28.57 88 31 Z " fill="#8F551F" transform="translate(15,72)"/>
<path d="M0 0 C5.011 0.078 9.456 1.774 14.129 3.449 C14.565 3.595 14.565 3.595 16.771 4.334 C22.141 6.224 26.128 8.098 30.066 12.262 C31.527 15.453 31.527 15.453 32.441 18.824 C32.759 19.939 33.076 21.054 33.402 22.203 C34.066 25.262 34.066 25.262 34.066 29.262 C35.31 29.239 36.554 29.215 37.836 29.191 C53.722 28.982 66.579 30.384 80.129 39.137 C80.463 39.347 80.463 39.347 82.154 40.414 C86.568 43.219 90.834 46.19 95.066 49.262 C94.736 49.427 94.736 49.427 93.066 50.262 C92.974 50.643 92.974 50.643 92.504 52.574 C90.229 56.828 86.565 57.895 82.066 59.262 C77.945 59.787 73.903 59.777 69.754 59.699 C68.703 59.706 67.651 59.713 66.568 59.721 C59.928 59.668 54.048 58.744 47.673 56.884 C41.816 55.485 36.615 57.244 31.066 59.262 C20.372 62.275 8.926 61.226 -0.844 56.16 C-3.564 53.689 -3.687 51.852 -3.934 48.262 C19.213 32.262 19.213 32.262 26.066 32.262 C23.014 18.703 23.014 18.703 18.707 15.516 C15.842 14.518 13.039 13.865 10.066 13.262 C7.87 12.581 5.682 11.872 3.504 11.137 C2.513 10.825 1.521 10.513 0.5 10.191 C-1.934 9.262 -1.934 9.262 -3.934 7.262 C-4.121 4.199 -4.121 4.199 -3.934 1.262 C-2.934 0.262 -2.934 0.262 0 0 Z " fill="#FAE9BE" transform="translate(20.93359375,21.73828125)"/>
<path d="M0 0 C7.102 -0.304 12.252 1.098 17.848 5.527 C20.724 9.52 20.719 13.929 20.512 18.703 C18.845 27.358 13.178 33.495 6.348 38.715 C-0.51 43.274 -6.871 45.588 -15.152 46.152 C-15.874 46.24 -16.596 46.328 -17.34 46.418 C-23.187 46.865 -26.55 45.176 -31.305 41.855 C-34.182 39.204 -35.075 37.265 -35.348 33.355 C-35.324 32.381 -35.301 31.406 -35.277 30.402 C-35.259 29.417 -35.241 28.433 -35.223 27.418 C-35.199 26.67 -35.176 25.923 -35.152 25.152 C-35.779 25.164 -36.405 25.176 -37.051 25.188 C-37.868 25.197 -38.685 25.206 -39.527 25.215 C-40.339 25.226 -41.152 25.238 -41.988 25.25 C-44.152 25.152 -44.152 25.152 -46.152 24.152 C-45.822 23.162 -45.492 22.172 -45.152 21.152 C-44.08 21.482 -43.007 21.812 -41.902 22.152 C-38.152 23.152 -38.152 23.152 -34.152 23.152 C-32.555 21.543 -32.555 21.543 -31.09 19.402 C-30.604 18.706 -30.118 18.01 -29.617 17.293 C-29.134 16.587 -28.65 15.88 -28.152 15.152 C-27.152 13.819 -26.152 12.486 -25.152 11.152 C-24.492 10.162 -23.832 9.172 -23.152 8.152 C-21.5 7.451 -19.829 6.794 -18.152 6.152 C-16.688 5.309 -15.23 4.454 -13.777 3.59 C-9.131 0.983 -5.287 0.374 0 0 Z " fill="#F0E5D1" transform="translate(117.15234375,109.84765625)"/>
<path d="M0 0 C0.33 0 0.66 0 1 0 C3.141 5.239 3.263 9.78 3.195 15.336 C3.192 16.215 3.19 17.095 3.187 18.001 C3.176 20.792 3.151 23.584 3.125 26.375 C3.115 28.275 3.106 30.174 3.098 32.074 C3.076 36.716 3.041 41.358 3 46 C-6.171 46.046 -15.342 46.082 -24.513 46.104 C-28.771 46.114 -33.03 46.128 -37.288 46.151 C-41.399 46.173 -45.51 46.185 -49.621 46.19 C-51.188 46.193 -52.755 46.201 -54.322 46.211 C-56.52 46.226 -58.717 46.228 -60.915 46.227 C-62.165 46.231 -63.415 46.236 -64.703 46.241 C-67.907 46.007 -70.122 45.379 -73 44 C-73 43.34 -73 42.68 -73 42 C-75.31 41.34 -77.62 40.68 -80 40 C-80 38.35 -80 36.7 -80 35 C-80.361 34.987 -80.361 34.987 -82.187 34.924 C-85.438 34.808 -88.687 34.686 -91.938 34.562 C-93.074 34.523 -94.21 34.484 -95.381 34.443 C-96.46 34.401 -97.54 34.36 -98.652 34.316 C-99.653 34.28 -100.653 34.243 -101.683 34.205 C-104 34 -104 34 -105 33 C-106.299 32.897 -107.599 32.794 -108.938 32.688 C-114.221 32.145 -119.46 30.837 -124 28 C-124.781 25.863 -124.781 25.863 -125 24 C-122.121 24.937 -119.288 25.878 -116.5 27.062 C-111.624 28.891 -106.95 29.1 -101.789 28.887 C-100.626 28.856 -99.464 28.826 -98.266 28.795 C-95.846 28.724 -93.426 28.632 -91.008 28.521 C-82.884 28.355 -78.919 29.521 -73 35 C-70.277 36.609 -70.277 36.609 -67.938 37.75 C-67.55 37.943 -67.55 37.943 -65.59 38.922 C-53.992 43.75 -39.627 43.601 -27.828 39.188 C-16.158 33.76 -7.649 25.001 -3 13 C-1.811 8.699 -0.845 4.381 0 0 Z " fill="#F5EAD5" transform="translate(160,144)"/>
<path d="M0 0 C5.011 0.078 9.456 1.774 14.129 3.449 C14.565 3.595 14.565 3.595 16.771 4.334 C22.141 6.224 26.128 8.098 30.066 12.262 C31.527 15.453 31.527 15.453 32.441 18.824 C32.759 19.939 33.076 21.054 33.402 22.203 C34.066 25.262 34.066 25.262 34.066 29.262 C35.31 29.239 36.554 29.215 37.836 29.191 C53.722 28.982 66.579 30.384 80.129 39.137 C80.463 39.347 80.463 39.347 82.154 40.414 C86.568 43.219 90.834 46.19 95.066 49.262 C94.736 49.427 94.736 49.427 93.066 50.262 C92.901 50.592 92.901 50.592 92.066 52.262 C92.066 51.272 92.066 50.282 92.066 49.262 C91.49 48.983 90.913 48.705 90.319 48.418 C88.137 47.298 86.092 46.076 84.02 44.766 C83.256 44.289 82.493 43.813 81.707 43.322 C80.126 42.332 78.548 41.337 76.973 40.338 C66.388 33.758 56.98 32.242 44.629 31.699 C43.707 31.656 42.784 31.613 41.834 31.568 C39.578 31.463 37.322 31.361 35.066 31.262 C35.231 31.592 35.231 31.592 36.066 33.262 C38.196 33.641 38.196 33.641 40.984 33.824 C41.992 33.899 42.999 33.974 44.037 34.051 C44.568 34.086 44.568 34.086 47.254 34.262 C59.86 35.104 59.86 35.104 65.066 37.262 C64.566 39.074 64.566 39.074 63.066 41.262 C56.52 44.384 50.752 44.75 43.566 44.699 C43.069 44.709 43.069 44.709 40.555 44.76 C33.979 44.755 29.626 43.853 24.066 40.262 C23.736 39.272 23.406 38.282 23.066 37.262 C23.726 37.097 23.726 37.097 27.066 36.262 C27.066 35.602 27.066 34.942 27.066 34.262 C17.593 36.755 8.402 41.912 0.805 48.105 C0.231 48.487 -0.343 48.869 -0.934 49.262 C-1.924 48.932 -2.914 48.602 -3.934 48.262 C19.213 32.262 19.213 32.262 26.066 32.262 C23.014 18.703 23.014 18.703 18.707 15.516 C15.842 14.518 13.039 13.865 10.066 13.262 C7.87 12.581 5.682 11.872 3.504 11.137 C2.513 10.825 1.521 10.513 0.5 10.191 C-1.934 9.262 -1.934 9.262 -3.934 7.262 C-4.121 4.199 -4.121 4.199 -3.934 1.262 C-2.934 0.262 -2.934 0.262 0 0 Z " fill="#A7AEB1" transform="translate(20.93359375,21.73828125)"/>
<path d="M0 0 C0.66 0.33 1.32 0.66 2 1 C1.613 1.571 1.227 2.142 0.828 2.73 C-8.074 16.591 -10.825 32.807 -8.574 49.078 C-7.235 55.092 -5.022 60.718 -2.625 66.375 C-2.345 67.041 -2.065 67.708 -1.777 68.394 C0.233 72.917 2.532 76.444 6 80 C6.99 80 7.98 80 9 80 C10.124 81.396 11.244 82.795 12.348 84.207 C16.855 89.098 22.786 92.736 29 95 C29 95.99 29 96.98 29 98 C29.928 97.649 30.856 97.299 31.812 96.938 C35 96 35 96 38 97 C38.33 97.66 38.66 98.32 39 99 C45.93 99 52.86 99 60 99 C60 98.34 60 97.68 60 97 C59.34 97 58.68 97 58 97 C51.822 88.52 48.069 80.157 49.5 69.625 C52.322 57.164 59.218 48.807 68 40 C68.824 39.123 69.647 38.247 70.496 37.344 C80.576 27.909 97.473 23.587 111 24 C115.178 24.589 119.019 25.615 123 27 C123.9 27.307 124.8 27.614 125.727 27.93 C133.02 30.948 136.684 35.943 140 43 C140.684 45.844 140.684 45.844 141 48 C140.67 48 140.34 48 140 48 C139.805 50.27 139.619 52.541 139.438 54.812 C139.333 56.077 139.229 57.342 139.121 58.645 C139 62 139 62 140 65 C140.07 67.573 140.094 70.116 140.062 72.688 C140.058 73.389 140.053 74.091 140.049 74.814 C140.037 76.543 140.019 78.272 140 80 C139.34 80 138.68 80 138 80 C138 74.72 138 69.44 138 64 C137.34 64 136.68 64 136 64 C135.856 64.464 135.856 64.464 135.125 66.812 C134 70 134 70 132 73 C132.023 75.699 132.023 75.699 132.375 78.688 C132.486 79.681 132.597 80.675 132.711 81.699 C132.759 82.079 132.759 82.079 133 84 C130.64 81.64 130.509 80.221 130 77 C129.031 77.846 128.061 78.691 127.062 79.562 C122.828 83.198 118.428 86.606 114 90 C113.34 89.67 112.68 89.34 112 89 C114.753 85.473 117.477 82.53 120.938 79.688 C128.859 72.87 133.992 63.538 135.383 53.137 C135.636 47.039 134.954 41.818 131 37 C123.752 30.825 116.628 28.619 107.25 28.688 C106.449 28.693 105.647 28.699 104.822 28.705 C98.769 28.829 93.583 29.547 88 32 C87.05 32.402 86.1 32.804 85.121 33.219 C73.066 38.761 62.914 46.54 57.754 59.012 C56.774 61.659 55.855 64.31 55 67 C54.34 67 53.68 67 53 67 C53.322 80.111 54.556 89.21 64 99 C59.759 103.241 53.984 102.184 48.375 102.188 C47.895 102.194 47.895 102.194 45.465 102.225 C30.611 102.255 20.034 97.474 9.215 87.219 C-4.501 73.479 -11.196 56.835 -11.25 37.438 C-11.226 24.69 -9.624 9.624 0 0 Z " fill="#7D4D25" transform="translate(15,72)"/>
<path d="M0 0 C3.737 1.238 5.04 3.316 6.791 6.749 C7.087 7.368 7.383 7.987 7.688 8.625 C7.995 9.254 8.302 9.882 8.619 10.53 C10.786 15.132 12 18.931 12 24 C10.317 25.683 8.143 25.333 5.882 25.545 C-1.871 26.29 -8.249 27.861 -15.426 30.977 C-18 32 -18 32 -21 32 C-21.133 30.987 -21.266 29.974 -21.402 28.93 C-21.581 27.578 -21.759 26.227 -21.938 24.875 C-22.025 24.21 -22.112 23.545 -22.201 22.859 C-22.726 18.892 -23.318 14.944 -24 11 C-27.3 11 -30.6 11 -34 11 C-34 10.67 -34 10.34 -34 10 C-33.421 9.996 -32.843 9.992 -32.247 9.988 C-9.332 9.703 -9.332 9.703 -2 4 C-0.73 1.832 -0.73 1.832 0 0 Z " fill="#7B910F" transform="translate(114,72)"/>
<path d="M0 0 C0.66 0.33 1.32 0.66 2 1 C1.613 1.571 1.227 2.142 0.828 2.73 C-8.074 16.591 -10.825 32.807 -8.574 49.078 C-7.235 55.092 -5.022 60.718 -2.625 66.375 C-2.345 67.041 -2.065 67.708 -1.777 68.394 C0.233 72.917 2.532 76.444 6 80 C6.99 80 7.98 80 9 80 C10.124 81.396 11.244 82.795 12.348 84.207 C16.855 89.098 22.786 92.736 29 95 C29 95.99 29 96.98 29 98 C29.928 97.649 30.856 97.299 31.812 96.938 C35 96 35 96 38 97 C38.33 97.66 38.66 98.32 39 99 C45.93 99 52.86 99 60 99 C60 98.34 60 97.68 60 97 C59.34 97 58.68 97 58 97 C52.487 89.432 48.285 81.451 49.34 71.934 C49.808 69.26 50.349 66.635 51 64 C51.99 63.67 52.98 63.34 54 63 C53.979 63.559 53.958 64.117 53.937 64.693 C53.852 67.274 53.801 69.855 53.75 72.438 C53.716 73.316 53.683 74.194 53.648 75.1 C53.529 83.194 55.621 90.05 61.25 96.062 C61.771 96.631 62.292 97.199 62.828 97.785 C63.215 98.186 63.602 98.587 64 99 C59.759 103.241 53.984 102.184 48.375 102.188 C47.895 102.194 47.895 102.194 45.465 102.225 C30.611 102.255 20.034 97.474 9.215 87.219 C-4.501 73.479 -11.196 56.835 -11.25 37.438 C-11.226 24.69 -9.624 9.624 0 0 Z " fill="#665F11" transform="translate(15,72)"/>
<path d="M0 0 C1.217 0.33 2.434 0.66 3.688 1 C12.678 2.996 21.945 2.228 31 1 C27.313 3.458 24.303 4.012 20 5 C20.113 5.402 20.113 5.402 20.688 7.438 C21.103 12.177 20.187 15.782 18 20 C16.122 22.059 14.317 23.404 12 25 C11.67 24.34 11.34 23.68 11 23 C8.686 22.269 6.352 21.599 4 21 C4 23.31 4 25.62 4 28 C3.67 28 3.34 28 3 28 C2.614 19.146 3.431 11.488 6 3 C5.34 3 4.68 3 4 3 C3.879 3.771 3.758 4.542 3.633 5.336 C3.549 5.837 3.549 5.837 3.125 8.375 C2.963 9.373 2.8 10.37 2.633 11.398 C2 14 2 14 0 16 C-0.625 18.125 -0.625 18.125 -1 20 C-1.66 20 -2.32 20 -3 20 C-3.399 14.143 -2.171 9.13 -0.656 3.477 C0 1 0 1 0 0 Z " fill="#C7CD41" transform="translate(24,81)"/>
<path d="M0 0 C2.879 0.937 5.712 1.878 8.5 3.062 C13.376 4.891 18.05 5.1 23.211 4.887 C24.374 4.856 25.536 4.826 26.734 4.795 C29.154 4.724 31.574 4.632 33.992 4.521 C42.116 4.355 46.081 5.521 52 11 C54.723 12.609 54.723 12.609 57.062 13.75 C57.45 13.943 57.45 13.943 59.41 14.922 C73.174 20.652 88.146 18.31 102 14 C100.496 17.363 99.519 18.763 96.125 20.312 C90.498 21.55 84.719 21.19 79 21 C78.245 20.975 77.49 20.951 76.711 20.925 C53.827 20.119 53.827 20.119 45 16 C45 14.35 45 12.7 45 11 C44.639 10.987 44.639 10.987 42.813 10.924 C39.562 10.808 36.313 10.686 33.062 10.562 C32.494 10.543 32.494 10.543 29.619 10.443 C28.54 10.401 27.46 10.36 26.348 10.316 C25.848 10.298 25.848 10.298 23.317 10.205 C21 10 21 10 20 9 C18.701 8.897 17.401 8.794 16.062 8.688 C10.779 8.145 5.54 6.837 1 4 C0.219 1.863 0.219 1.863 0 0 Z " fill="#DCC89F" transform="translate(35,168)"/>
<path d="M0 0 C3 6.625 3 6.625 3 10 C4.65 10 6.3 10 8 10 C7.835 8.68 7.835 8.68 7 2 C17.281 1.768 27.118 1.706 37 5 C36.5 6.812 36.5 6.812 35 9 C28.453 12.122 22.686 12.489 15.5 12.438 C14.506 12.457 13.512 12.477 12.488 12.498 C5.912 12.494 1.56 11.592 -4 8 C-4.33 7.01 -4.66 6.02 -5 5 C-3.68 4.67 -2.36 4.34 -1 4 C-1 3.34 -1 2.68 -1 2 C-10.474 4.493 -19.665 9.651 -27.262 15.844 C-27.835 16.225 -28.409 16.607 -29 17 C-29.99 16.67 -30.98 16.34 -32 16 C-8.055 -0.552 -8.055 -0.552 0 0 Z " fill="#C3B184" transform="translate(49,54)"/>
<path d="M0 0 C0.237 0.163 0.237 0.163 1.434 0.988 C12.004 7.973 22.097 9.643 34.684 7.32 C36.915 6.798 39.141 6.246 41.355 5.656 C44 5 44 5 47 5 C47.165 5.66 47.165 5.66 48 9 C47.01 9 46.02 9 45 9 C45 8.34 45 7.68 45 7 C44.453 7.248 44.453 7.248 41.688 8.5 C38 10 38 10 35 10 C34 12 34 12 34 13 C34.99 13.66 35.98 14.32 37 15 C37 15.66 37 16.32 37 17 C31.007 16.587 27.75 15.681 23 12 C23.99 13.32 24.98 14.64 26 16 C24.35 16.33 22.7 16.66 21 17 C21.99 17.33 22.98 17.66 24 18 C22.25 18.648 22.25 18.648 20 19 C18 18.039 18 18.039 16 16.625 C13.298 14.736 11.206 13.727 8 13 C6.25 11.625 6.25 11.625 5 10 C5 9.01 5 8.02 5 7 C3.354 5.313 1.688 3.645 0 2 C0 1.34 0 0.68 0 0 Z " fill="#A16123" transform="translate(72,162)"/>
<path d="M0 0 C0.165 0.33 0.165 0.33 1 2 C0.437 2.115 -0.126 2.23 -0.706 2.348 C-18.914 6.146 -37.007 11.412 -48.438 27.375 C-51.424 32.265 -53.271 37.559 -55 43 C-55.99 42.01 -56.98 41.02 -58 40 C-55.474 29.108 -48.01 21.422 -40 14 C-39.497 13.527 -38.995 13.054 -38.477 12.566 C-28.699 3.849 -12.788 0.262 0 0 Z " fill="#694D17" transform="translate(125,96)"/>
<path d="M0 0 C0.66 0.33 1.32 0.66 2 1 C1.613 1.571 1.227 2.142 0.828 2.73 C-8.074 16.591 -10.825 32.807 -8.574 49.078 C-7.235 55.092 -5.022 60.718 -2.625 66.375 C-2.345 67.041 -2.065 67.708 -1.777 68.394 C0.233 72.917 2.532 76.444 6 80 C6.99 80 7.98 80 9 80 C10.124 81.396 11.244 82.795 12.348 84.207 C16.855 89.098 22.786 92.736 29 95 C29 95.99 29 96.98 29 98 C20.075 95.886 12.643 89.06 6 83 C5.154 82.257 4.309 81.515 3.438 80.75 C-10.141 65.43 -11.963 45.578 -11 26 C-10.006 17.465 -6.255 6.255 0 0 Z " fill="#798C24" transform="translate(15,72)"/>
<path d="M0 0 C1.292 0.668 2.578 1.348 3.855 2.043 C17.171 8.034 32.608 5.234 46.078 1.043 C44.574 4.406 43.598 5.806 40.203 7.355 C34.577 8.593 28.797 8.233 23.078 8.043 C22.701 8.031 22.701 8.031 20.79 7.968 C-2.095 7.162 -2.095 7.162 -10.922 3.043 C-10.922 1.393 -10.922 -0.257 -10.922 -1.957 C-6.651 -3.381 -3.957 -1.97 0 0 Z " fill="#E4CEAC" transform="translate(90.921875,180.95703125)"/>
<path d="M0 0 C9.769 0.766 20.887 3.363 28.812 9.375 C30.364 11.499 30.652 13.421 31 16 C29.35 16.33 27.7 16.66 26 17 C25.67 15.35 25.34 13.7 25 12 C24.441 11.914 23.881 11.827 23.305 11.738 C17.89 10.789 12.656 9.411 7.438 7.688 C6.24 7.299 5.042 6.911 3.809 6.512 C1 5 1 5 0.098 2.332 C0.065 1.562 0.033 0.793 0 0 Z " fill="#F1EFE8" transform="translate(19,24)"/>
<path d="M0 0 C0.33 0.99 0.66 1.98 1 3 C1.99 3.33 2.98 3.66 4 4 C3.371 4.522 2.742 5.044 2.094 5.582 C-6.694 13.139 -13.138 20.873 -17.07 31.836 C-18.922 36.147 -22.204 38.47 -26 41 C-22.192 27.904 -14.133 11.933 -2 5 C-0.688 2.312 -0.688 2.312 0 0 Z " fill="#8B9E0D" transform="translate(84,105)"/>
<path d="M0 0 C3 1 3 1 3.984 2.871 C6.922 12.718 6.683 24.065 4 34 C3.34 34 2.68 34 2 34 C1.867 32.964 1.734 31.927 1.598 30.859 C1.419 29.49 1.241 28.12 1.062 26.75 C0.975 26.068 0.888 25.386 0.799 24.684 C0.096 19.325 0.096 19.325 -0.594 17 C-1.253 13.752 -0.832 10.527 -0.562 7.25 C-0.536 6.901 -0.536 6.901 -0.404 5.137 C-0.275 3.424 -0.138 1.712 0 0 Z " fill="#985D27" transform="translate(154,118)"/>
<path d="M0 0 C3.161 1.37 3.993 1.989 6 5 C7.27 12.236 6.586 18.046 2.688 24.312 C-4.332 33.704 -13.405 39.674 -24.938 41.688 C-26.291 41.804 -27.645 41.908 -29 42 C-29.722 42.088 -30.444 42.175 -31.188 42.266 C-36.977 42.708 -40.58 41.143 -45.246 37.734 C-47 36 -47 36 -48.062 32.625 C-48.042 31.759 -48.021 30.892 -48 30 C-47.567 30.598 -47.134 31.196 -46.688 31.812 C-43.746 35.625 -41.627 37.449 -37 39 C-24.708 40.24 -15.244 37.867 -5.492 30.297 C0.786 24.511 3.854 18.095 4.254 9.562 C3.856 5.551 2.364 3.224 0 0 Z " fill="#E2D1B6" transform="translate(131,114)"/>
<path d="M0 0 C0.33 0 0.66 0 1 0 C1.014 0.846 1.028 1.691 1.043 2.562 C1.349 9.832 1.832 15.577 7 21 C12.207 24.778 17.823 26.359 24 28 C24 28.33 24 28.66 24 29 C25.815 29.33 25.815 29.33 35 31 C35 31.33 35 31.66 35 32 C23.769 32.758 12.893 31.588 4 24 C2.875 22.062 2.875 22.062 2 20 C1.655 19.468 1.309 18.935 0.953 18.387 C-0.443 14.891 -0.21 11.451 -0.125 7.75 C-0.116 7.005 -0.107 6.26 -0.098 5.492 C-0.074 3.661 -0.038 1.831 0 0 Z " fill="#874F1C" transform="translate(68,139)"/>
<path d="M0 0 C1.875 0.688 1.875 0.688 4 2 C4.227 2.804 4.454 3.609 4.688 4.438 C6.252 7.492 6.923 7.647 10.062 8.75 C14.098 9.914 18.067 10.484 22.25 10.789 C24 11 24 11 25 12 C27.9 12.213 30.784 12.377 33.688 12.5 C38.87 12.724 43.893 13.01 49 14 C49 15.65 49 17.3 49 19 C50.65 19.33 52.3 19.66 54 20 C51 21 51 21 47.812 19.562 C46.884 19.047 45.956 18.531 45 18 C45 17.34 45 16.68 45 16 C38.07 15.67 31.14 15.34 24 15 C24 14.34 24 13.68 24 13 C23.093 13.062 22.185 13.124 21.25 13.188 C15.666 13.222 10.342 11.474 5 10 C5 9.34 5 8.68 5 8 C4.01 8 3.02 8 2 8 C2 6.02 2 4.04 2 2 C1.34 2 0.68 2 0 2 C0 1.34 0 0.68 0 0 Z " fill="#E9D9B7" transform="translate(31,165)"/>
<path d="M0 0 C18.01 -0.438 18.01 -0.438 26 2 C26.66 2.66 27.32 3.32 28 4 C23.932 7.255 20.441 7.442 15.43 7.301 C12.181 6.899 9.811 5.634 7 4 C6.093 3.835 5.185 3.67 4.25 3.5 C2 3 2 3 0 0 Z " fill="#E8C585" transform="translate(57,56)"/>
<path d="M0 0 C4.14 8.281 1.831 16.737 -0.742 25.312 C-4.813 37.248 -11.613 45.477 -22.141 52.285 C-24.469 53.18 -25.687 52.814 -28 52 C-27.196 51.649 -26.391 51.299 -25.562 50.938 C-20.961 48.637 -16.767 45.489 -13 42 C-12.67 41.01 -12.34 40.02 -12 39 C-11.01 39 -10.02 39 -9 39 C-8.818 38.192 -8.636 37.384 -8.449 36.551 C-8.198 35.482 -7.946 34.414 -7.688 33.312 C-7.444 32.257 -7.2 31.201 -6.949 30.113 C-5.999 26.998 -4.904 24.638 -3 22 C-2.34 22 -1.68 22 -1 22 C-0.67 14.74 -0.34 7.48 0 0 Z " fill="#7F5026" transform="translate(159,130)"/>
<path d="M0 0 C16.784 -0.332 30.66 0.571 45.062 9.875 C45.397 10.086 45.397 10.086 47.088 11.152 C51.502 13.958 55.767 16.929 60 20 C59.67 20.165 59.67 20.165 58 21 C57.67 21.66 57.34 22.32 57 23 C57 22.01 57 21.02 57 20 C56.423 19.721 55.847 19.443 55.253 19.156 C53.071 18.036 51.025 16.814 48.953 15.504 C48.19 15.028 47.427 14.551 46.641 14.061 C45.06 13.07 43.482 12.075 41.906 11.076 C31.322 4.497 21.914 2.98 9.562 2.438 C8.64 2.394 7.718 2.351 6.768 2.307 C4.512 2.201 2.256 2.099 0 2 C0 1.34 0 0.68 0 0 Z " fill="#DDB874" transform="translate(56,51)"/>
<path d="M0 0 C0.33 0.99 0.66 1.98 1 3 C-0.031 4.875 -0.031 4.875 -1.5 7 C-4.755 12.442 -4.143 16.945 -3 23 C-5.36 20.64 -5.491 19.221 -6 16 C-6.969 16.846 -7.939 17.691 -8.938 18.562 C-13.172 22.198 -17.572 25.606 -22 29 C-22.66 28.67 -23.32 28.34 -24 28 C-21.247 24.473 -18.523 21.53 -15.062 18.688 C-10.241 14.596 -6.821 9.641 -4 4 C-3.01 4 -2.02 4 -1 4 C-0.67 2.68 -0.34 1.36 0 0 Z " fill="#79481D" transform="translate(151,133)"/>
<path d="M0 0 C1.131 0.153 2.261 0.307 3.426 0.465 C8.006 1.036 12.579 1.333 17.188 1.562 C17.599 1.583 17.599 1.583 19.683 1.689 C33.8 2.362 33.8 2.362 40 2 C40.33 1.67 40.66 1.34 41 1 C43.139 0.712 45.287 0.494 47.438 0.312 C48.612 0.206 49.786 0.099 50.996 -0.012 C54 0 54 0 56 2 C50.529 4.28 45.568 4.291 39.746 4.266 C38.768 4.268 37.789 4.269 36.781 4.271 C34.719 4.273 32.658 4.269 30.596 4.261 C27.445 4.25 24.294 4.261 21.143 4.273 C19.135 4.272 17.128 4.27 15.121 4.266 C14.181 4.27 13.242 4.274 12.274 4.278 C7.751 4.246 4.101 4.16 0 2 C0 1.34 0 0.68 0 0 Z " fill="#E3D0B0" transform="translate(87,186)"/>
<path d="M0 0 C1.01 2.726 2.008 5.455 3 8.188 C3.286 8.956 3.572 9.725 3.867 10.518 C5.288 14.458 6.41 17.742 6 22 C4.35 22 2.7 22 1 22 C-0.005 18.876 -1.003 15.751 -2 12.625 C-2.286 11.736 -2.572 10.846 -2.867 9.93 C-3.003 9.504 -3.003 9.504 -3.688 7.352 C-3.939 6.566 -4.19 5.781 -4.449 4.971 C-5 3 -5 3 -5 1 C-2 0 -2 0 0 0 Z " fill="#F1F0EC" transform="translate(51,42)"/>
<path d="M0 0 C5.161 0.074 9.745 1.998 14.527 3.781 C14.989 3.948 14.989 3.948 17.322 4.793 C19.582 5.613 21.837 6.442 24.09 7.281 C23.76 7.941 23.43 8.601 23.09 9.281 C22.542 9.111 21.994 8.941 21.43 8.766 C13.702 6.403 5.904 4.334 -1.91 2.281 C-1.662 4.175 -1.662 4.175 -0.91 6.281 C0.856 7.286 0.856 7.286 3.125 7.984 C3.934 8.242 4.743 8.5 5.576 8.766 C6.426 9.018 7.276 9.271 8.152 9.531 C9.006 9.799 9.86 10.068 10.74 10.344 C12.853 11.005 14.969 11.65 17.09 12.281 C16.76 12.941 16.43 13.601 16.09 14.281 C-0.03 11.161 -0.03 11.161 -3.91 7.281 C-4.035 4.281 -4.035 4.281 -3.91 1.281 C-2.91 0.281 -2.91 0.281 0 0 Z " fill="#AAB1B6" transform="translate(20.91015625,21.71875)"/>
<path d="M0 0 C3.15 0.975 5.902 1.942 8.75 3.625 C13.228 5.519 17.201 5.606 22 5 C25.625 3.5 25.625 3.5 28 2 C27.5 3.812 27.5 3.812 26 6 C18.519 10.189 10.316 9.273 2 9 C1.34 6.03 0.68 3.06 0 0 Z " fill="#D0AA64" transform="translate(58,57)"/>
<path d="M0 0 C0.949 0.846 1.898 1.691 2.875 2.562 C18.06 15.583 18.06 15.583 27 15 C27.66 14.67 28.32 14.34 29 14 C32 15 32 15 33 17 C33.598 16.99 33.598 16.99 36.625 16.938 C40.18 16.931 43.506 17.301 47 18 C47 18.33 47 18.66 47 19 C31.646 20.394 20.761 19.74 8.113 9.711 C1.226 3.679 1.226 3.679 0 0 Z " fill="#687A17" transform="translate(21,154)"/>
<path d="M0 0 C1.65 0 3.3 0 5 0 C5.124 0.516 5.248 1.031 5.375 1.562 C6 4 6 4 7.125 7.25 C8.188 11.807 8.078 14.457 7 19 C4.945 20.23 4.945 20.23 3 21 C2.867 19.903 2.734 18.806 2.598 17.676 C2.419 16.221 2.241 14.767 2.062 13.312 C1.975 12.591 1.888 11.87 1.799 11.127 C1.337 7.38 0.808 3.692 0 0 Z " fill="#8EA307" transform="translate(90,84)"/>
<path d="M0 0 C4.651 1.329 7.998 3.332 12 6 C15.375 7.25 15.375 7.25 18 8 C16.68 8.33 15.36 8.66 14 9 C14.33 9.33 14.66 9.66 15 10 C15.33 10.66 15.66 11.32 16 12 C10.951 11.519 8.122 9.867 4 7 C2.669 6.658 1.336 6.322 0 6 C-1.75 4.438 -1.75 4.438 -3 3 C-1.68 3 -0.36 3 1 3 C0.67 2.01 0.34 1.02 0 0 Z " fill="#9C5F24" transform="translate(80,169)"/>
<path d="M0 0 C0.237 0.163 0.237 0.163 1.434 0.988 C9.612 6.393 17.259 8.41 27 9 C26.67 9.165 26.67 9.165 25 10 C24 12 24 12 23 15 C18.333 12.667 13.667 10.333 9 8 C9.66 9.32 10.32 10.64 11 12 C10.34 12 9.68 12 9 12 C9 11.34 9 10.68 9 10 C8.01 9.67 7.02 9.34 6 9 C4.395 7.441 4.395 7.441 2.812 5.562 C2.548 5.254 2.548 5.254 1.207 3.691 C0 2 0 2 0 0 Z " fill="#AC6B2B" transform="translate(72,162)"/>
<path d="M0 0 C1.485 0.33 1.485 0.33 9 2 C8.01 3.32 7.02 4.64 6 6 C6 5.01 6 4.02 6 3 C5.34 3 4.68 3 4 3 C3.879 3.771 3.758 4.542 3.633 5.336 C3.549 5.837 3.549 5.837 3.125 8.375 C2.963 9.373 2.8 10.37 2.633 11.398 C2 14 2 14 0 16 C-0.625 18.125 -0.625 18.125 -1 20 C-1.66 20 -2.32 20 -3 20 C-3.399 14.143 -2.171 9.13 -0.656 3.477 C0 1 0 1 0 0 Z " fill="#B6C323" transform="translate(24,81)"/>
<path d="M0 0 C0.33 0.66 0.66 1.32 1 2 C-2.291 2.795 -5.583 3.585 -8.875 4.375 C-9.334 4.486 -9.334 4.486 -11.656 5.047 C-17.746 6.505 -23.85 7.818 -30 9 C-23.574 2.019 -11.146 0.484 -2.098 0.043 C-1.405 0.029 -0.713 0.015 0 0 Z " fill="#6C5014" transform="translate(125,96)"/>
<path d="M0 0 C0.66 0 1.32 0 2 0 C2.66 0.846 3.32 1.691 4 2.562 C8.6 8.326 15.118 12.493 22 15 C22 15.99 22 16.98 22 18 C12.708 15.799 5.297 8.86 -1 2 C-0.67 1.34 -0.34 0.68 0 0 Z " fill="#869C18" transform="translate(22,152)"/>
<path d="M0 0 C1.883 3.225 2.325 5.855 2.562 9.562 C2.769 12.666 3.011 15.034 4 18 C4.07 20.573 4.094 23.116 4.062 25.688 C4.058 26.389 4.053 27.091 4.049 27.814 C4.037 29.543 4.019 31.272 4 33 C3.34 33 2.68 33 2 33 C2.023 32.108 2.046 31.216 2.07 30.297 C2.088 29.126 2.106 27.956 2.125 26.75 C2.148 25.59 2.171 24.43 2.195 23.234 C2.01 20.172 1.608 18.558 0 16 C-0.33 16.66 -0.66 17.32 -1 18 C-1.66 18 -2.32 18 -3 18 C-2.867 17.455 -2.734 16.909 -2.598 16.348 C-1.322 10.901 -0.53 5.569 0 0 Z " fill="#865123" transform="translate(151,119)"/>
<path d="M0 0 C0.66 0.33 1.32 0.66 2 1 C0.372 3.873 -0.817 4.92 -3.875 6.25 C-9.402 7.578 -15.369 7.517 -21 7 C-21.99 6.34 -22.98 5.68 -24 5 C-23.469 4.945 -23.469 4.945 -20.781 4.668 C-13.387 3.854 -6.904 2.9 0 0 Z " fill="#CDB38C" transform="translate(135,182)"/>
<path d="M0 0 C2.062 0.156 2.062 0.156 4.375 2.156 C4.932 2.816 5.489 3.476 6.062 4.156 C2.802 5.243 2.2 5.042 -0.938 4.156 C-2.523 3.951 -4.112 3.774 -5.703 3.621 C-6.593 3.534 -7.482 3.447 -8.398 3.357 C-9.319 3.27 -10.239 3.183 -11.188 3.094 C-12.123 3.003 -13.059 2.912 -14.023 2.818 C-16.328 2.595 -18.633 2.374 -20.938 2.156 C-20.938 1.826 -20.938 1.496 -20.938 1.156 C-18.042 0.988 -15.146 0.821 -12.25 0.656 C-11.842 0.632 -11.842 0.632 -9.775 0.512 C-6.518 0.327 -3.258 0.173 0 0 Z " fill="#C0B17B" transform="translate(76.9375,172.84375)"/>
<path d="M0 0 C3.333 1.171 5.864 2.116 8 5 C8.688 7.688 8.688 7.688 9 10 C7.35 10.33 5.7 10.66 4 11 C3.67 9.35 3.34 7.7 3 6 C2.01 6 1.02 6 0 6 C-1 3 -1 3 0 0 Z " fill="#E2E1DC" transform="translate(41,30)"/>
<path d="M0 0 C1.019 0.981 2.024 1.977 3 3 C2.67 3.165 2.67 3.165 1 4 C-0.052 3.546 -1.104 3.093 -2.188 2.625 C-8.446 0.082 -15.331 0.252 -22 0 C-22 -0.33 -22 -0.66 -22 -1 C-14.446 -2.908 -6.822 -4.548 0 0 Z " fill="#865B35" transform="translate(138,100)"/>
<path d="M0 0 C1 2 1 2 0.25 5 C-1 8 -1 8 -4 10 C-4.309 10.402 -4.309 10.402 -5.875 12.438 C-8.072 15.086 -9.941 16.47 -13 18 C-13.66 18 -14.32 18 -15 18 C-15 17.34 -15 16.68 -15 16 C-14.618 15.794 -14.618 15.794 -12.688 14.75 C-9.398 12.608 -8.666 10.483 -7 7 C-6.01 6.67 -5.02 6.34 -4 6 C-2.603 4.044 -1.262 2.046 0 0 Z " fill="#9A5F27" transform="translate(151,161)"/>
<path d="M0 0 C8.25 0 16.5 0 25 0 C25 1.65 25 3.3 25 5 C25.825 5.165 25.825 5.165 30 6 C27 7 27 7 23.812 5.562 C22.884 5.047 21.956 4.531 21 4 C21 3.34 21 2.68 21 2 C14.07 1.67 7.14 1.34 0 1 C0 0.67 0 0.34 0 0 Z " fill="#F3E4C9" transform="translate(55,179)"/>
<path d="M0 0 C0.245 0.625 0.49 1.25 0.742 1.894 C2.298 4.499 3.275 4.818 6.133 5.703 C6.536 5.832 6.536 5.832 8.574 6.484 C9.416 6.737 10.258 6.99 11.125 7.25 C11.974 7.518 12.824 7.786 13.699 8.062 C15.796 8.722 17.895 9.367 20 10 C19.67 10.66 19.34 11.32 19 12 C12.392 10.721 6.034 9.065 0 6 C-1.245 3.509 -0.777 2.589 0 0 Z " fill="#B5BBBD" transform="translate(18,24)"/>
<path d="M0 0 C2.375 1.375 2.375 1.375 3.188 4 C3.249 4.784 3.311 5.567 3.375 6.375 C0.405 6.045 -2.565 5.715 -5.625 5.375 C-5.625 3.725 -5.625 2.075 -5.625 0.375 C-2.625 -0.625 -2.625 -0.625 0 0 Z " fill="#E8D3B0" transform="translate(85.625,178.625)"/>
<path d="M0 0 C-9.544 3.873 -17.949 3.297 -28 2 C-28 1.67 -28 1.34 -28 1 C-23.897 0.636 -19.792 0.285 -15.688 -0.062 C-14.52 -0.166 -13.353 -0.27 -12.15 -0.377 C-11.032 -0.47 -9.914 -0.564 -8.762 -0.66 C-7.73 -0.749 -6.698 -0.838 -5.635 -0.93 C-3 -1 -3 -1 0 0 Z " fill="#72431A" transform="translate(118,167)"/>
<path d="M0 0 C0 3 0 3 -1.25 4.562 C-5.225 7.828 -8.648 8.319 -13.75 8.625 C-14.92 8.7 -16.091 8.775 -17.297 8.852 C-18.189 8.901 -19.081 8.95 -20 9 C-20 8.67 -20 8.34 -20 8 C-19.571 7.879 -19.571 7.879 -17.402 7.266 C-11.101 5.419 -5.513 3.59 0 0 Z " fill="#895C33" transform="translate(128,158)"/>
<path d="M0 0 C0.66 0.99 1.32 1.98 2 3 C1.691 3.505 1.691 3.505 0.125 6.062 C-1.929 9.632 -3.023 13.009 -4 17 C-4.99 16.01 -5.98 15.02 -7 14 C-5.432 8.547 -3.962 4.235 0 0 Z " fill="#7D612A" transform="translate(74,122)"/>
<path d="M0 0 C5.609 1.826 5.609 1.826 8.25 3 C12.39 4.506 16.674 5.21 21 6 C21 6.33 21 6.66 21 7 C18.436 6.913 15.875 6.806 13.312 6.688 C12.952 6.676 12.952 6.676 11.127 6.619 C6.709 6.397 3.535 5.935 0 3 C0 2.01 0 1.02 0 0 Z " fill="#CEBE88" transform="translate(35,168)"/>
<path d="M0 0 C7.26 0.99 14.52 1.98 22 3 C22 3.33 22 3.66 22 4 C19.271 4.054 16.542 4.094 13.812 4.125 C13.428 4.133 13.428 4.133 11.482 4.176 C7.185 4.213 3.921 3.996 0 2 C0 1.34 0 0.68 0 0 Z " fill="#F2E4CA" transform="translate(87,186)"/>
<path d="M0 0 C0.33 0 0.66 0 1 0 C1.014 0.846 1.028 1.691 1.043 2.562 C1.408 11.242 2.818 16.818 9 23 C6 23 6 23 3.375 20.625 C-0.43 16.42 -0.124 13.318 -0.062 7.875 C-0.058 7.121 -0.053 6.367 -0.049 5.59 C-0.037 3.727 -0.019 1.863 0 0 Z " fill="#906240" transform="translate(68,139)"/>
<path d="M0 0 C0.99 0 1.98 0 3 0 C3 0.66 3 1.32 3 2 C3.639 2.062 3.639 2.062 6.875 2.375 C11.986 2.936 16.976 3.92 22 5 C22 5.33 22 5.66 22 6 C14.634 6.368 8.006 5.383 1 3 C0.34 2.34 -0.32 1.68 -1 1 C-0.67 0.67 -0.34 0.34 0 0 Z " fill="#F6EACF" transform="translate(33,173)"/>
<path d="M0 0 C0.351 0.144 0.351 0.144 2.125 0.875 C5.055 2.021 8.009 3.026 11 4 C11 5.32 11 6.64 11 8 C7.12 6.854 3.996 5.774 1 3 C0.67 2.01 0.34 1.02 0 0 Z " fill="#7F4B1F" transform="translate(71,160)"/>
<path d="M0 0 C0.33 0 0.66 0 1 0 C2.517 9.41 2.517 9.41 0 14 C-0.99 14 -1.98 14 -3 14 C-2.689 12.416 -2.376 10.833 -2.062 9.25 C-1.888 8.368 -1.714 7.487 -1.535 6.578 C-1.076 4.368 -0.567 2.185 0 0 Z " fill="#859A09" transform="translate(96,90)"/>
<path d="M0 0 C0 0.99 0 1.98 0 3 C-9.41 7.592 -9.41 7.592 -14 7 C-14.66 5.68 -15.32 4.36 -16 3 C-15.264 3.035 -14.528 3.07 -13.77 3.105 C-4.077 3.374 -4.077 3.374 0 0 Z " fill="#D8AF6A" transform="translate(85,59)"/>
<path d="M0 0 C2.916 4.374 4.303 7.705 4 13 C2.35 13 0.7 13 -1 13 C-0.67 8.71 -0.34 4.42 0 0 Z " fill="#DBDAD2" transform="translate(53,51)"/>
<path d="M0 0 C-0.687 0.338 -1.374 0.675 -2.082 1.023 C-2.983 1.469 -3.884 1.915 -4.812 2.375 C-5.259 2.595 -5.259 2.595 -7.52 3.711 C-10 5 -10 5 -13 7 C-13.188 4.625 -13.188 4.625 -13 2 C-8.632 -0.912 -5.001 -1.437 0 0 Z " fill="#7A5C21" transform="translate(101,105)"/>
<path d="M0 0 C0.392 0.498 0.784 0.995 1.188 1.508 C-2.275 2.575 -5.453 2.61 -9.062 2.57 C-10.14 2.561 -11.218 2.552 -12.328 2.543 C-13.148 2.531 -13.968 2.52 -14.812 2.508 C-12.387 -0.445 -10.575 -0.998 -6.812 -1.367 C-6.379 -1.417 -6.379 -1.417 -4.188 -1.672 C-1.812 -1.492 -1.812 -1.492 0 0 Z " fill="#E8DAC3" transform="translate(106.8125,165.4921875)"/>
<path d="M0 0 C0.33 0 0.66 0 1 0 C1.027 2.417 1.047 4.833 1.062 7.25 C1.071 7.932 1.079 8.614 1.088 9.316 C1.104 12.693 1.056 15.773 0 19 C-0.66 19 -1.32 19 -2 19 C-2.33 15.7 -2.66 12.4 -3 9 C-2.34 9.66 -1.68 10.32 -1 11 C-0.67 7.37 -0.34 3.74 0 0 Z " fill="#A0662E" transform="translate(158,133)"/>
<path d="M0 0 C0.66 0.66 1.32 1.32 2 2 C0.429 6.714 -2.938 9.292 -7 12 C-4.689 3.65 -4.689 3.65 -1.812 0.938 C-1.214 0.628 -0.616 0.319 0 0 Z " fill="#82980D" transform="translate(65,134)"/>
<path d="M0 0 C0.66 0 1.32 0 2 0 C3.158 3.473 3.069 6.361 3 10 C2.67 10.165 2.67 10.165 1 11 C0.67 9.35 0.34 7.7 0 6 C-0.495 6.33 -0.495 6.33 -3 8 C-1.125 2.25 -1.125 2.25 0 0 Z " fill="#9B5E24" transform="translate(151,136)"/>
<path d="M0 0 C3.332 2.987 5.348 5.827 7 10 C6.688 12.375 6.688 12.375 6 14 C0 4.286 0 4.286 0 0 Z " fill="#8AA41F" transform="translate(115,75)"/>
<path d="M0 0 C1.32 0.66 2.64 1.32 4 2 C1.877 4.301 -0.155 5.819 -2.938 7.25 C-3.607 7.606 -4.276 7.962 -4.965 8.328 C-7.383 9.126 -8.63 8.827 -11 8 C-10.687 7.879 -10.687 7.879 -9.102 7.266 C-8.284 6.93 -7.467 6.595 -6.625 6.25 C-5.813 5.925 -5.001 5.6 -4.164 5.266 C-1.667 3.805 -1.018 2.661 0 0 Z " fill="#7A8D19" transform="translate(114,72)"/>
<path d="M0 0 C0.33 0 0.66 0 1 0 C2.32 5.61 3.64 11.22 5 17 C4.34 17.33 3.68 17.66 3 18 C2.298 15.942 1.614 13.879 0.938 11.812 C0.555 10.664 0.172 9.515 -0.223 8.332 C-0.994 5.025 -0.961 3.209 0 0 Z " fill="#B3B7B8" transform="translate(52,39)"/>
<path d="M0 0 C3.97 1.323 5.76 4.009 8.145 7.246 C9 9 9 9 8 12 C6.849 10.567 5.704 9.128 4.562 7.688 C3.924 6.887 3.286 6.086 2.629 5.262 C1 3 1 3 0 0 Z " fill="#93AB17" transform="translate(13,141)"/>
<path d="M0 0 C3.087 3.087 3.449 3.919 4 8 C3.67 8 3.34 8 3 8 C2.67 10.97 2.34 13.94 2 17 C1.67 17 1.34 17 1 17 C0.67 11.39 0.34 5.78 0 0 Z " fill="#6E3D15" transform="translate(152,112)"/>
<path d="M0 0 C4.95 0.99 9.9 1.98 15 3 C15 3.33 15 3.66 15 4 C13.084 4.054 11.167 4.093 9.25 4.125 C8.716 4.137 8.716 4.137 6.016 4.195 C3.075 4.005 1.476 3.527 -1 2 C-0.67 1.34 -0.34 0.68 0 0 Z " fill="#DAC29C" transform="translate(96,184)"/>
<path d="M0 0 C3.335 1.38 5.186 2.85 7 6 C6.67 6.99 6.34 7.98 6 9 C0.429 3.857 0.429 3.857 0 0 Z " fill="#F0E7D5" transform="translate(70,152)"/>
<path d="M0 0 C-0.33 0.99 -0.66 1.98 -1 3 C-4.3 3.66 -7.6 4.32 -11 5 C-7.472 1.472 -5.006 0 0 0 Z " fill="#644812" transform="translate(106,100)"/>
<path d="M0 0 C0.33 0.66 0.66 1.32 1 2 C1.99 2 2.98 2 4 2 C4.33 4.31 4.66 6.62 5 9 C4.34 9 3.68 9 3 9 C2.969 8.701 2.969 8.701 2.812 7.188 C1.676 4.129 -0.173 3.45 -3 2 C-2.01 1.34 -1.02 0.68 0 0 Z " fill="#A1A9AD" transform="translate(40,34)"/>
<path d="M0 0 C2.007 0.287 4.009 0.619 6 1 C6 1.33 6 1.66 6 2 C0.871 4.104 -3.561 4.218 -9 4 C-9 3.67 -9 3.34 -9 3 C-8.434 2.867 -7.868 2.734 -7.285 2.598 C-6.918 2.509 -6.918 2.509 -5.062 2.062 C-4.332 1.888 -3.601 1.714 -2.848 1.535 C-1 1 -1 1 0 0 Z " fill="#EDDCBF" transform="translate(137,186)"/>
<path d="M0 0 C0.33 2.31 0.66 4.62 1 7 C-1.437 6.188 -1.437 6.188 -4 5 C-4.33 4.01 -4.66 3.02 -5 2 C-1.125 0 -1.125 0 0 0 Z " fill="#D5B26C" transform="translate(49,57)"/>
<path d="M0 0 C0.404 0.014 0.404 0.014 2.449 0.082 C3.064 0.117 3.679 0.152 4.312 0.188 C3.312 2.188 3.312 2.188 1.688 2.812 C-1.454 3.308 -4.514 3.249 -7.688 3.188 C-5.268 0.205 -3.789 -0.165 0 0 Z " fill="#99642C" transform="translate(111.6875,183.8125)"/>
<path d="M0 0 C2.938 0.75 2.938 0.75 6 2 C6.875 4.125 6.875 4.125 7 6 C4.062 5.25 4.062 5.25 1 4 C0.125 1.875 0.125 1.875 0 0 Z " fill="#DBCD9B" transform="translate(35,168)"/>
<path d="M0 0 C1.99 3.98 2.224 4.677 1.625 8.75 C1.514 9.549 1.403 10.348 1.289 11.172 C1.194 11.775 1.098 12.378 1 13 C0.34 13 -0.32 13 -1 13 C-0.67 8.71 -0.34 4.42 0 0 Z " fill="#8F6640" transform="translate(151,119)"/>
<path d="M0 0 C0.33 3.3 0.66 6.6 1 10 C0.01 9.67 -0.98 9.34 -2 9 C-2.33 6.36 -2.66 3.72 -3 1 C-1 0 -1 0 0 0 Z " fill="#7F9522" transform="translate(123,87)"/>
<path d="M0 0 C1.485 0.33 1.485 0.33 9 2 C5.565 4.29 4.015 4.178 0 4 C-0.33 3.34 -0.66 2.68 -1 2 C-0.67 1.34 -0.34 0.68 0 0 Z " fill="#8A572C" transform="translate(83,165)"/>
<path d="M0 0 C0.684 1.734 0.684 1.734 1 4 C-0.215 6.141 -0.215 6.141 -1.938 8.25 C-2.503 8.956 -3.069 9.663 -3.652 10.391 C-3.875 10.656 -3.875 10.656 -5 12 C-5.33 11.34 -5.66 10.68 -6 10 C-4.785 7.617 -4.785 7.617 -3.062 4.875 C-2.78 4.42 -2.78 4.42 -1.348 2.117 C-0.903 1.419 -0.458 0.72 0 0 Z " fill="#8D6036" transform="translate(147,137)"/>
<path d="M0 0 C0.66 0 1.32 0 2 0 C1.67 3.3 1.34 6.6 1 10 C0.34 10 -0.32 10 -1 10 C-1.125 3.375 -1.125 3.375 0 0 Z " fill="#C1CD34" transform="translate(24,84)"/>
<path d="M0 0 C0.33 0.99 0.66 1.98 1 3 C-0.65 4.32 -2.3 5.64 -4 7 C-4.33 6.01 -4.66 5.02 -5 4 C-3.35 2.68 -1.7 1.36 0 0 Z " fill="#6D551D" transform="translate(87,109)"/>
<path d="M0 0 C3.775 1.091 6.47 1.908 9 5 C3.375 5.25 3.375 5.25 0 3 C0 2.01 0 1.02 0 0 Z " fill="#DCB772" transform="translate(58,57)"/>
<path d="M0 0 C1.32 0.33 2.64 0.66 4 1 C-0.625 5 -0.625 5 -4 5 C-2.68 3.35 -1.36 1.7 0 0 Z " fill="#76481C" transform="translate(131,156)"/>
<path d="M0 0 C1.155 0.495 1.155 0.495 7 3 C6.67 3.66 6.34 4.32 6 5 C4.35 5 2.7 5 1 5 C0.67 3.35 0.34 1.7 0 0 Z " fill="#DAC29B" transform="translate(88,180)"/>
<path d="M0 0 C2.64 0.33 5.28 0.66 8 1 C7.67 1.99 7.34 2.98 7 4 C5.35 4 3.7 4 2 4 C1.34 2.68 0.68 1.36 0 0 Z " fill="#DCB978" transform="translate(69,62)"/>
<path d="M0 0 C1.98 0.99 3.96 1.98 6 3 C5.67 3.99 5.34 4.98 5 6 C3.02 4.68 1.04 3.36 -1 2 C-0.67 1.34 -0.34 0.68 0 0 Z " fill="#F7F1E3" transform="translate(77,159)"/>
<path d="M0 0 C1.32 1.65 2.64 3.3 4 5 C1.125 4.688 1.125 4.688 -2 4 C-2.66 3.01 -3.32 2.02 -4 1 C-2.68 0.67 -1.36 0.34 0 0 Z " fill="#88562F" transform="translate(147,104)"/>
<path d="M0 0 C0.99 0 1.98 0 3 0 C3 1.65 3 3.3 3 5 C1.35 5.66 -0.3 6.32 -2 7 C-1.34 6.01 -0.68 5.02 0 4 C0 2.68 0 1.36 0 0 Z " fill="#FCF0D1" transform="translate(85,57)"/>
</svg>
