<?xml version="1.0" encoding="UTF-8"?>
<!-- Generator: visioncortex VTracer 0.6.12 -->
<svg version="1.1" xmlns="http://www.w3.org/2000/svg" width="175" height="190">
<path d="M0 0 C57.75 0 115.5 0 175 0 C175 62.7 175 125.4 175 190 C117.25 190 59.5 190 0 190 C0 127.3 0 64.6 0 0 Z " fill="#FDF8ED" transform="translate(0,0)"/>
<path d="M0 0 C0 6.6 0 13.2 0 20 C6 13 6 13 7.625 9.688 C9.113 6.78 9.969 6.045 13 5 C15.705 7.705 15.33 9.222 15.375 13 C15.24 21.158 13.079 27.195 8.312 33.75 C4.666 39.164 5.098 45.681 5 52 C5.66 52 6.32 52 7 52 C7.392 50.742 7.784 49.484 8.188 48.188 C10.039 42.598 12.485 37.317 15 32 C16.32 32 17.64 32 19 32 C21.436 42.523 20.693 51.633 16.129 61.359 C14.419 65.358 14.362 67.678 15 72 C15.919 74.282 16.955 76.473 18.043 78.68 C19.582 82.411 19.745 85.991 20 90 C20.66 90 21.32 90 22 90 C22.182 88.819 22.364 87.638 22.551 86.422 C22.804 84.864 23.058 83.307 23.312 81.75 C23.43 80.973 23.548 80.195 23.67 79.395 C24.954 71.692 24.954 71.692 28 69 C29.32 69 30.64 69 32 69 C33.723 79.915 34.831 91.15 29 101 C27.739 102.355 26.479 103.71 25.215 105.062 C23.098 108.438 22.501 112.319 21.599 116.165 C20.075 122.365 17.377 127.585 14 133 C19.692 129.332 19.692 129.332 21.625 127.25 C23 126 23 126 27 126 C27 132.355 24.512 135.514 20.18 140.047 C16.079 143.721 12.625 144.871 7.062 145.312 C0.733 145.891 -3.747 150.629 -8 155 C-6.35 155 -4.7 155 -3 155 C-3 156.32 -3 157.64 -3 159 C-8.043 162.104 -12.229 162.6 -18 162 C-18.66 161.67 -19.32 161.34 -20 161 C-22 161.008 -23.999 161.083 -25.996 161.191 C-27.194 161.249 -28.392 161.306 -29.627 161.365 C-32.164 161.497 -34.7 161.632 -37.236 161.771 C-38.436 161.828 -39.635 161.884 -40.871 161.941 C-41.974 162 -43.077 162.059 -44.213 162.119 C-47 162 -47 162 -50 160 C-52.086 159.727 -52.086 159.727 -54.375 159.625 C-58.681 159.211 -61.076 158.381 -64 155 C-64.688 152 -64.688 152 -65 149 C-66 146.813 -66 146.813 -67 145 C-67.33 144.01 -67.66 143.02 -68 142 C-68.516 141.887 -68.516 141.887 -71.125 141.312 C-76.265 140.072 -79.032 136.15 -82 132 C-84.208 128.25 -84.167 125.342 -84 121 C-83.34 120.835 -83.34 120.835 -80 120 C-78.68 121.98 -77.36 123.96 -76 126 C-76.523 123.237 -77.109 120.674 -78 118 C-78.047 116.393 -78.038 114.783 -77.992 113.176 C-77.975 112.229 -77.959 111.282 -77.941 110.307 C-77.898 108.33 -77.846 106.353 -77.785 104.377 C-77.692 98.105 -78.526 93.755 -81 88 C-82.017 78.996 -78.712 71.933 -73.25 64.875 C-72.178 63.574 -71.099 62.278 -70 61 C-69.01 61.33 -68.02 61.66 -67 62 C-67.667 68 -68.333 74 -69 80 C-68.694 79.478 -68.389 78.956 -68.074 78.418 C-64.285 72.324 -59.733 67.605 -54.488 62.773 C-50.601 58.441 -48.909 53.841 -48.188 48.125 C-46.25 37.948 -38.362 29.735 -30 24 C-27.664 24.227 -27.664 24.227 -26 25 C-26.232 29.409 -27.624 32.228 -29.938 35.875 C-32.705 40.255 -34.06 43.924 -35 49 C-22.098 42.527 -22.098 42.527 -18.812 35.438 C-18.065 32.276 -17.88 29.604 -17.75 26.375 C-17 16.135 -12.078 8.36 -4.832 1.328 C-3 0 -3 0 0 0 Z " fill="#ED4247" transform="translate(104,20)"/>
<path d="M0 0 C0 6.6 0 13.2 0 20 C6 13 6 13 7.625 9.688 C9.113 6.78 9.969 6.045 13 5 C15.705 7.705 15.33 9.222 15.375 13 C15.24 21.158 13.079 27.195 8.312 33.75 C4.666 39.164 5.098 45.681 5 52 C5.66 52 6.32 52 7 52 C7.392 50.742 7.784 49.484 8.188 48.188 C10.039 42.598 12.485 37.317 15 32 C16.32 32 17.64 32 19 32 C21.436 42.523 20.693 51.633 16.129 61.359 C14.419 65.358 14.362 67.678 15 72 C15.919 74.282 16.955 76.473 18.043 78.68 C19.582 82.411 19.745 85.991 20 90 C20.66 90 21.32 90 22 90 C22.182 88.819 22.364 87.638 22.551 86.422 C22.804 84.864 23.058 83.307 23.312 81.75 C23.43 80.973 23.548 80.195 23.67 79.395 C24.954 71.692 24.954 71.692 28 69 C29.32 69 30.64 69 32 69 C33.723 79.915 34.831 91.15 29 101 C27.739 102.355 26.479 103.71 25.215 105.062 C23.098 108.438 22.501 112.319 21.599 116.165 C20.075 122.365 17.377 127.585 14 133 C19.692 129.332 19.692 129.332 21.625 127.25 C23 126 23 126 27 126 C27 132.355 24.512 135.514 20.18 140.047 C16.079 143.721 12.625 144.871 7.062 145.312 C0.733 145.891 -3.747 150.629 -8 155 C-6.35 155 -4.7 155 -3 155 C-3 156.32 -3 157.64 -3 159 C-8.043 162.104 -12.229 162.6 -18 162 C-18.66 161.67 -19.32 161.34 -20 161 C-22 161.008 -23.999 161.083 -25.996 161.191 C-27.194 161.249 -28.392 161.306 -29.627 161.365 C-32.164 161.497 -34.7 161.632 -37.236 161.771 C-38.436 161.828 -39.635 161.884 -40.871 161.941 C-41.974 162 -43.077 162.059 -44.213 162.119 C-47 162 -47 162 -50 160 C-52.086 159.727 -52.086 159.727 -54.375 159.625 C-58.681 159.211 -61.076 158.381 -64 155 C-64.812 151.75 -64.812 151.75 -65 149 C-61.129 149.523 -59.696 150.304 -57 153 C-54 154.125 -54 154.125 -51 155 C-50.01 155.33 -49.02 155.66 -48 156 C-47.67 156.99 -47.34 157.98 -47 159 C-45.566 159.25 -44.127 159.474 -42.688 159.688 C-41.887 159.815 -41.086 159.943 -40.262 160.074 C-38 160 -38 160 -36.266 158.641 C-34.73 156.651 -34.077 155.532 -34 153 C-36.776 149.65 -38.69 148.136 -43.039 147.684 C-44.222 147.602 -45.406 147.521 -46.625 147.438 C-47.814 147.354 -49.002 147.27 -50.227 147.184 C-51.142 147.123 -52.057 147.062 -53 147 C-53 145.68 -53 144.36 -53 143 C-52.34 142.794 -51.68 142.588 -51 142.375 C-48.211 141.097 -46.464 139.805 -44.125 137.875 C-41.336 135.69 -39.577 134.596 -36 134.625 C-35.505 134.687 -35.505 134.687 -33 135 C-33 138.63 -33 142.26 -33 146 C-32.34 146 -31.68 146 -31 146 C-30.67 146.99 -30.34 147.98 -30 149 C-29.625 148.947 -29.625 148.947 -27.727 148.676 C-22.186 148.027 -18.044 147.703 -12.812 149.812 C-9.695 150.939 -8.581 151.246 -5.484 149.938 C-3.197 148.403 -1.103 146.776 1 145 C4.435 142.71 5.985 142.822 10 143 C10 140.69 10 138.38 10 136 C1.213 136.762 -4.27 140.498 -11 146 C-11.66 145.67 -12.32 145.34 -13 145 C-12.469 144.504 -11.938 144.007 -11.391 143.496 C-7.03 139.303 -3.35 135.62 -1 130 C-1 124.307 -3.041 120.678 -6 116 C-10.95 116 -15.9 116 -21 116 C-21.33 115.34 -21.66 114.68 -22 114 C-20.989 113.526 -19.979 113.051 -18.938 112.562 C-12.868 109.098 -9.095 103.115 -5.75 97.125 C-3.014 92.239 -3.014 92.239 -1 91 C2.125 91.375 2.125 91.375 5 92 C7.711 89.289 6.934 82.605 7 79 C6.469 73.348 5.797 68.005 3 63 C4.65 63 6.3 63 8 63 C8 62.34 8 61.68 8 61 C2.945 60.703 0.138 61.044 -4 64 C-4.33 64.165 -4.33 64.165 -6 65 C-4.796 62.506 -3.546 60.319 -2 58 C-2.242 55.879 -2.242 55.879 -2.875 53.562 C-3.711 50.436 -4 48.327 -4 45 C-4.66 45 -5.32 45 -6 45 C-6 44.01 -6 43.02 -6 42 C-7.65 41.67 -9.3 41.34 -11 41 C-11 40.34 -11 39.68 -11 39 C-13.31 38.67 -15.62 38.34 -18 38 C-19 35 -19 35 -18 32 C-17.923 30.188 -17.863 28.375 -17.812 26.562 C-16.989 16.239 -12.154 8.433 -4.832 1.328 C-3 0 -3 0 0 0 Z " fill="#D42B38" transform="translate(104,20)"/>
<path d="M0 0 C0.99 0.33 1.98 0.66 3 1 C2.858 2.438 2.711 3.875 2.562 5.312 C2.481 6.113 2.4 6.914 2.316 7.738 C2 10 2 10 1 13 C0.879 15.456 0.825 17.916 0.812 20.375 C0.805 21.029 0.805 21.029 0.77 24.336 C0.984 27.738 1.519 29.967 3 33 C3.598 32.237 4.196 31.474 4.812 30.688 C5.534 29.801 6.256 28.914 7 28 C7.495 27.381 7.99 26.763 8.5 26.125 C10 25 10 25 12 25 C14.953 26.477 15.623 27.995 17 31 C18.468 35.811 19.053 40.49 19.312 45.5 C19.752 51.304 21.93 55.171 25 60 C26.699 62.965 27.325 65.349 27.625 68.75 C27.7 69.549 27.775 70.348 27.852 71.172 C27.901 71.775 27.95 72.378 28 73 C27.67 72.835 27.67 72.835 26 72 C25.508 70.145 25.508 70.145 25.125 67.812 C24.222 63.448 22.997 60.413 20 57 C16.875 55.812 16.875 55.812 14 55 C13.34 54.01 12.68 53.02 12 52 C5.19 51.231 5.19 51.231 1.758 53.449 C-0.877 57.273 -0.434 60.726 -0.25 65.25 C-0.241 65.67 -0.241 65.67 -0.195 67.797 C-0.148 69.865 -0.077 71.933 0 74 C0.66 74 1.32 74 2 74 C3.441 75.782 4.805 77.627 6.125 79.5 C6.487 80.01 6.487 80.01 8.32 82.594 C8.875 83.388 9.429 84.182 10 85 C9.505 85.165 9.505 85.165 7 86 C4.614 84.527 3.261 83.523 2 81 C0.969 80.794 -0.062 80.588 -1.125 80.375 C-6.239 79.067 -9.033 75.149 -12 71 C-14.208 67.25 -14.167 64.342 -14 60 C-13.34 59.835 -13.34 59.835 -10 59 C-8.68 60.98 -7.36 62.96 -6 65 C-6.523 62.237 -7.109 59.674 -8 57 C-8.047 55.393 -8.038 53.783 -7.992 52.176 C-7.975 51.229 -7.959 50.282 -7.941 49.307 C-7.898 47.33 -7.846 45.353 -7.785 43.377 C-7.692 37.105 -8.526 32.755 -11 27 C-12.017 17.996 -8.712 10.933 -3.25 3.875 C-2.178 2.574 -1.099 1.278 0 0 Z " fill="#E63C41" transform="translate(34,81)"/>
<path d="M0 0 C0 6.6 0 13.2 0 20 C6 13 6 13 7.625 9.688 C9.113 6.78 9.969 6.045 13 5 C15.705 7.705 15.33 9.222 15.375 13 C15.24 21.158 13.079 27.195 8.312 33.75 C4.666 39.164 5.098 45.681 5 52 C5.66 52 6.32 52 7 52 C7.392 50.742 7.784 49.484 8.188 48.188 C10.039 42.598 12.485 37.317 15 32 C16.32 32 17.64 32 19 32 C21.419 42.327 20.968 52.575 16 62 C15.34 62 14.68 62 14 62 C14 61.34 14 60.68 14 60 C13.34 60 12.68 60 12 60 C11.67 59.34 11.34 58.68 11 58 C8.69 58 6.38 58 4 58 C4 51.73 4 45.46 4 39 C2.35 39 0.7 39 -1 39 C-1.99 40.98 -2.98 42.96 -4 45 C-4.66 45 -5.32 45 -6 45 C-6 44.01 -6 43.02 -6 42 C-7.65 41.67 -9.3 41.34 -11 41 C-11 40.34 -11 39.68 -11 39 C-13.31 38.67 -15.62 38.34 -18 38 C-19 35 -19 35 -18 32 C-17.923 30.188 -17.863 28.375 -17.812 26.562 C-16.989 16.239 -12.154 8.433 -4.832 1.328 C-3 0 -3 0 0 0 Z " fill="#85931F" transform="translate(104,20)"/>
<path d="M0 0 C1.625 1.875 1.625 1.875 3 4 C3.485 4.144 3.485 4.144 5.938 4.875 C10.088 6.4 11.009 8.088 13 12 C13.854 14.974 14.485 17.95 15 21 C15.66 20.67 16.32 20.34 17 20 C19.164 20.34 19.164 20.34 21.625 20.938 C22.442 21.132 23.26 21.327 24.102 21.527 C24.728 21.683 25.355 21.839 26 22 C27.161 26.256 26.762 29.684 26 34 C25.67 34 25.34 34 25 34 C25 30.37 25 26.74 25 23 C18.747 23.133 15.753 25.408 11.113 29.504 C9 31 9 31 5 31 C5 32.32 5 33.64 5 35 C5.869 34.954 6.738 34.907 7.633 34.859 C18.225 34.528 18.225 34.528 21.75 36.75 C24 39 24 39 25.062 40.938 C24.972 43.934 23.741 45.614 22 48 C18.497 49.751 14.704 48.961 11 48 C8.313 45.562 8.313 45.562 6 43 C4.016 42.286 2.017 41.614 0 41 C-1.688 39.438 -1.688 39.438 -3 38 C-3.99 37.67 -4.98 37.34 -6 37 C-7.688 34.938 -7.688 34.938 -9 33 C-8.67 32.34 -8.34 31.68 -8 31 C-7.01 31.99 -6.02 32.98 -5 34 C-4.835 33.835 -4.835 33.835 -4 33 C-4.433 32.446 -4.866 31.891 -5.312 31.32 C-5.869 30.596 -6.426 29.871 -7 29.125 C-7.557 28.406 -8.114 27.686 -8.688 26.945 C-10 25 -10 25 -10 23 C-10.66 23 -11.32 23 -12 23 C-14.353 7.115 -14.353 7.115 -11 1.875 C-6.854 -0.716 -4.831 -0.701 0 0 Z " fill="#E93D42" transform="translate(46,132)"/>
<path d="M0 0 C1.65 0.33 3.3 0.66 5 1 C5 7.27 5 13.54 5 20 C6.155 19.835 6.155 19.835 12 19 C12.33 19.99 12.66 20.98 13 22 C13.66 22 14.32 22 15 22 C15.927 24.782 15.965 26.695 15.812 29.688 C15.733 33.988 17.169 36.879 19.043 40.68 C20.582 44.411 20.745 47.991 21 52 C21.66 52 22.32 52 23 52 C23.182 50.819 23.364 49.638 23.551 48.422 C23.804 46.864 24.058 45.307 24.312 43.75 C24.43 42.973 24.548 42.195 24.67 41.395 C25.954 33.692 25.954 33.692 29 31 C30.32 31 31.64 31 33 31 C34.9 43.031 35.599 54.381 28.762 64.906 C26.963 67.268 25.487 68.816 22.688 69.875 C22.131 69.916 21.574 69.957 21 70 C21 68.02 21 66.04 21 64 C19.375 63.312 19.375 63.312 17 63 C13.79 64.348 11.466 65.534 9 68 C8.01 68 7.02 68 6 68 C5.779 65.876 5.573 63.751 5.375 61.625 C5.259 60.442 5.143 59.258 5.023 58.039 C5.016 57.036 5.008 56.033 5 55 C5.66 54.34 6.32 53.68 7 53 C8.835 43.916 8.605 33.239 4 25 C5.65 25 7.3 25 9 25 C9 24.34 9 23.68 9 23 C3.945 22.703 1.138 23.044 -3 26 C-3.66 26.33 -4.32 26.66 -5 27 C-3.796 24.506 -2.546 22.319 -1 20 C-1.277 18.055 -1.277 18.055 -1.938 15.875 C-3.143 11.124 -3.25 6.768 -2 2 C-1.34 1.34 -0.68 0.68 0 0 Z " fill="#D7333B" transform="translate(103,58)"/>
<path d="M0 0 C1.32 0 2.64 0 4 0 C4 6.355 1.512 9.514 -2.82 14.047 C-6.921 17.721 -10.375 18.871 -15.938 19.312 C-22.267 19.891 -26.747 24.629 -31 29 C-29.35 29 -27.7 29 -26 29 C-26 30.32 -26 31.64 -26 33 C-31.043 36.104 -35.229 36.6 -41 36 C-41.33 35.835 -41.33 35.835 -43 35 C-45 35.008 -46.999 35.083 -48.996 35.191 C-50.194 35.249 -51.392 35.306 -52.627 35.365 C-55.164 35.497 -57.7 35.632 -60.236 35.771 C-61.436 35.828 -62.635 35.884 -63.871 35.941 C-64.974 36 -66.077 36.059 -67.213 36.119 C-70 36 -70 36 -73 34 C-75.086 33.727 -75.086 33.727 -77.375 33.625 C-81.681 33.211 -84.076 32.381 -87 29 C-87.812 25.75 -87.812 25.75 -88 23 C-84.129 23.523 -82.696 24.304 -80 27 C-77 28.125 -77 28.125 -74 29 C-73.01 29.33 -72.02 29.66 -71 30 C-70.67 30.99 -70.34 31.98 -70 33 C-68.566 33.25 -67.127 33.474 -65.688 33.688 C-64.887 33.815 -64.086 33.943 -63.262 34.074 C-61 34 -61 34 -59.266 32.641 C-57.73 30.651 -57.077 29.532 -57 27 C-59.776 23.65 -61.69 22.136 -66.039 21.684 C-67.222 21.602 -68.406 21.521 -69.625 21.438 C-70.814 21.354 -72.002 21.27 -73.227 21.184 C-73.684 21.153 -73.684 21.153 -76 21 C-76 19.68 -76 18.36 -76 17 C-75.34 16.794 -74.68 16.588 -74 16.375 C-71.211 15.097 -69.464 13.805 -67.125 11.875 C-64.336 9.69 -62.577 8.596 -59 8.625 C-58.01 8.749 -57.02 8.873 -56 9 C-56 12.63 -56 16.26 -56 20 C-55.34 20 -54.68 20 -54 20 C-53.835 20.495 -53.835 20.495 -53 23 C-52.25 22.893 -51.5 22.786 -50.727 22.676 C-45.186 22.027 -41.044 21.703 -35.812 23.812 C-32.695 24.939 -31.581 25.246 -28.484 23.938 C-26.197 22.403 -24.103 20.776 -22 19 C-18.565 16.71 -17.015 16.822 -13 17 C-13 14.36 -13 11.72 -13 9 C-12.397 8.685 -11.793 8.371 -11.172 8.047 C-4.444 4.444 -4.444 4.444 -1.688 1.688 C-1.131 1.131 -0.574 0.574 0 0 Z " fill="#B6282B" transform="translate(127,146)"/>
<path d="M0 0 C0.99 0.33 1.98 0.66 3 1 C2.858 2.438 2.711 3.875 2.562 5.312 C2.481 6.113 2.4 6.914 2.316 7.738 C2 10 2 10 1 13 C0.879 15.456 0.825 17.916 0.812 20.375 C0.805 21.029 0.805 21.029 0.77 24.336 C0.987 27.786 1.658 29.879 3 33 C2.638 38.522 1.431 43.671 0 49 C-1.208 53.641 -2.288 58.252 -3 63 C-6.875 60.375 -6.875 60.375 -8 57 C-8.047 55.393 -8.038 53.783 -7.992 52.176 C-7.975 51.229 -7.959 50.282 -7.941 49.307 C-7.898 47.33 -7.846 45.353 -7.785 43.377 C-7.692 37.105 -8.526 32.755 -11 27 C-12.017 17.996 -8.712 10.933 -3.25 3.875 C-2.178 2.574 -1.099 1.278 0 0 Z " fill="#E54848" transform="translate(34,81)"/>
<path d="M0 0 C1.32 0.66 2.64 1.32 4 2 C4.027 4.625 4.047 7.25 4.062 9.875 C4.071 10.621 4.079 11.368 4.088 12.137 C4.113 17.773 4.113 17.773 3 20 C2.928 22.884 2.907 25.742 2.938 28.625 C2.942 29.427 2.947 30.229 2.951 31.055 C2.963 33.036 2.981 35.018 3 37 C-0.764 35.151 -4.369 33.095 -8 31 C-8 30.34 -8 29.68 -8 29 C-12.95 29.33 -17.9 29.66 -23 30 C-17.229 18.458 -9.107 9.025 0 0 Z " fill="#C3B413" transform="translate(85,67)"/>
<path d="M0 0 C1.266 3.867 1.112 7.732 1.062 11.75 C1.058 12.447 1.053 13.145 1.049 13.863 C1.037 15.576 1.019 17.288 1 19 C2.32 19.33 3.64 19.66 5 20 C5.227 19.484 5.454 18.969 5.688 18.438 C7.177 15.672 8.931 13.217 10.781 10.684 C11.892 9.149 12.949 7.576 14 6 C14.66 5.67 15.32 5.34 16 5 C16.581 20.319 16.581 20.319 13 27 C12.551 27.892 12.103 28.784 11.641 29.703 C8.757 35.024 8.757 35.024 7 37 C4.305 37.281 4.305 37.281 2 37 C1.01 38.98 0.02 40.96 -1 43 C-1.66 43 -2.32 43 -3 43 C-5.459 32.898 -5.459 32.898 -3.625 29.312 C-3.089 28.549 -2.552 27.786 -2 27 C-1.581 23.542 -1.413 20.175 -3 17 C-3.613 10.556 -2.99 5.731 0 0 Z " fill="#99A406" transform="translate(101,22)"/>
<path d="M0 0 C0.505 11.46 -0.43 21.052 -4 32 C-6.526 29.637 -7.888 28.335 -9 25 C-13.95 25 -18.9 25 -24 25 C-24.33 24.34 -24.66 23.68 -25 23 C-23.989 22.526 -22.979 22.051 -21.938 21.562 C-15.868 18.098 -12.095 12.115 -8.75 6.125 C-5.32 0 -5.32 0 0 0 Z " fill="#B2BD19" transform="translate(107,111)"/>
<path d="M0 0 C2.036 2.538 4.063 5.08 6.07 7.641 C6.409 8.071 6.409 8.071 8.125 10.25 C8.808 11.121 9.491 11.993 10.195 12.891 C12 15 12 15 14 16 C14.66 14.02 15.32 12.04 16 10 C17.65 10 19.3 10 21 10 C21 9.34 21 8.68 21 8 C26.273 4.777 26.273 4.777 28 4 C28.66 4.33 29.32 4.66 30 5 C28.593 6.178 27.174 7.342 25.75 8.5 C24.961 9.15 24.172 9.799 23.359 10.469 C21 12 21 12 17 12 C17 13.32 17 14.64 17 16 C17.869 15.954 18.738 15.907 19.633 15.859 C30.225 15.528 30.225 15.528 33.75 17.75 C36 20 36 20 37.062 21.938 C36.972 24.934 35.741 26.614 34 29 C30.497 30.751 26.704 29.961 23 29 C20.312 26.562 20.312 26.562 18 24 C16.016 23.286 14.017 22.614 12 22 C10.312 20.438 10.312 20.438 9 19 C8.01 18.67 7.02 18.34 6 18 C4.312 15.938 4.312 15.938 3 14 C3.33 13.34 3.66 12.68 4 12 C4.99 12.99 5.98 13.98 7 15 C7.33 14.67 7.66 14.34 8 14 C7.567 13.446 7.134 12.891 6.688 12.32 C6.131 11.596 5.574 10.871 5 10.125 C4.443 9.406 3.886 8.686 3.312 7.945 C2 6 2 6 2 4 C1.34 4 0.68 4 0 4 C0 2.68 0 1.36 0 0 Z " fill="#CE2B34" transform="translate(34,151)"/>
<path d="M0 0 C0.557 0.248 1.114 0.495 1.688 0.75 C1.458 5.112 0.107 7.898 -2.188 11.5 C-4.923 15.823 -6.498 19.877 -7.77 24.816 C-8.312 26.75 -8.312 26.75 -9.312 27.75 C-10.979 27.791 -12.646 27.793 -14.312 27.75 C-14.312 28.41 -14.312 29.07 -14.312 29.75 C-15.962 29.42 -17.612 29.09 -19.312 28.75 C-20.965 22.903 -19.86 19.531 -16.973 14.246 C-14.265 10.175 -10.96 6.975 -7.312 3.75 C-6.859 3.327 -6.859 3.327 -4.562 1.188 C-2.312 -0.25 -2.312 -0.25 0 0 Z " fill="#C5D11B" transform="translate(76.3125,44.25)"/>
<path d="M0 0 C1.98 0.66 3.96 1.32 6 2 C6 2.66 6 3.32 6 4 C7.65 4.33 9.3 4.66 11 5 C11 5.99 11 6.98 11 8 C11.66 8 12.32 8 13 8 C13 9.32 13 10.64 13 12 C12.67 12.165 12.67 12.165 11 13 C11.012 13.736 11.023 14.472 11.035 15.23 C11.044 16.206 11.053 17.182 11.062 18.188 C11.074 19.15 11.086 20.113 11.098 21.105 C11.005 23.856 10.621 26.325 10 29 C9.402 29.144 8.804 29.289 8.188 29.438 C6.438 29.887 4.713 30.429 3 31 C1.762 27.287 1.644 23.687 1.438 19.812 C1.394 19.063 1.351 18.313 1.307 17.541 C1.201 15.694 1.1 13.847 1 12 C-0.32 12 -1.64 12 -3 12 C-3.66 11.34 -4.32 10.68 -5 10 C-5.99 9.67 -6.98 9.34 -8 9 C-5.36 6.03 -2.72 3.06 0 0 Z " fill="#EF4C48" transform="translate(87,57)"/>
<path d="M0 0 C1.705 10.796 2.922 22.274 -3 32 C-3.33 32.165 -3.33 32.165 -5 33 C-5.382 32.68 -5.382 32.68 -7.312 31.062 C-10 29 -10 29 -13 28 C-12.67 25.69 -12.34 23.38 -12 21 C-11.34 21 -10.68 21 -10 21 C-9.818 19.819 -9.636 18.638 -9.449 17.422 C-9.196 15.864 -8.942 14.307 -8.688 12.75 C-8.57 11.973 -8.452 11.195 -8.33 10.395 C-6.598 0 -6.598 0 0 0 Z " fill="#929A17" transform="translate(136,89)"/>
<path d="M0 0 C0.33 0.66 0.66 1.32 1 2 C0.67 2.99 0.34 3.98 0 5 C-0.093 6.685 -0.13 8.374 -0.125 10.062 C-0.128 10.94 -0.13 11.818 -0.133 12.723 C0 15 0 15 1 17 C1.475 24.24 1.475 24.24 -0.562 27.5 C-2.714 31.242 -1.779 33.823 -1 38 C-2.65 37.67 -4.3 37.34 -6 37 C-6 36.34 -6 35.68 -6 35 C-7.98 34.34 -9.96 33.68 -12 33 C-11 30 -10 27 -9 24 C-9.33 24 -9.66 24 -10 24 C-10.898 16.221 -8.082 10.554 -4 4 C-1.797 1.641 -1.797 1.641 0 0 Z " fill="#C1CB17" transform="translate(99,24)"/>
<path d="M0 0 C0.99 0.33 1.98 0.66 3 1 C4.172 4.517 4.22 7.546 4.375 11.25 C4.666 16.789 5.331 21.106 8 26 C8.33 26.99 8.66 27.98 9 29 C6.625 28.688 6.625 28.688 4 28 C3.34 27.01 2.68 26.02 2 25 C-2.194 24.729 -5.975 24.658 -10 26 C-9.691 25.381 -9.381 24.762 -9.062 24.125 C-8.083 21.245 -7.846 19.243 -7.688 16.25 C-7.173 9.886 -4.515 4.515 0 0 Z " fill="#B6BD12" transform="translate(44,108)"/>
<path d="M0 0 C0.99 0.33 1.98 0.66 3 1 C2.858 2.438 2.711 3.875 2.562 5.312 C2.481 6.113 2.4 6.914 2.316 7.738 C2 10 2 10 1 13 C0.971 15.256 1.065 17.492 1.16 19.746 C0.978 22.309 0.379 23.843 -1 26 C-3 26.625 -3 26.625 -5 27 C-5.66 27.66 -6.32 28.32 -7 29 C-7.99 29 -8.98 29 -10 29 C-11.982 25.037 -11.46 20.726 -10.352 16.566 C-8.005 10.137 -4.44 5.163 0 0 Z " fill="#B4B425" transform="translate(34,81)"/>
<path d="M0 0 C0.87 2.997 1.118 5.65 1.098 8.766 C1.094 9.655 1.091 10.545 1.088 11.461 C1.08 12.381 1.071 13.302 1.062 14.25 C1.058 15.186 1.053 16.122 1.049 17.086 C1.037 19.391 1.021 21.695 1 24 C0.34 24 -0.32 24 -1 24 C-1.33 22.68 -1.66 21.36 -2 20 C-3.98 20.33 -5.96 20.66 -8 21 C-8.33 20.01 -8.66 19.02 -9 18 C-10.65 17.67 -12.3 17.34 -14 17 C-14.33 17.99 -14.66 18.98 -15 20 C-15.33 19.34 -15.66 18.68 -16 18 C-13.341 12.726 -6.852 0 0 0 Z " fill="#C3C50F" transform="translate(84,72)"/>
<path d="M0 0 C0.66 0 1.32 0 2 0 C3 3 3 3 2.125 5.062 C1.754 5.702 1.382 6.341 1 7 C0.67 7.66 0.34 8.32 0 9 C-6.479 10.528 -13.166 10.186 -19.783 10.185 C-21.966 10.187 -24.149 10.206 -26.332 10.225 C-45.528 10.308 -45.528 10.308 -53 8 C-54.379 5.923 -54.379 5.923 -55 4 C-53.742 3.959 -52.484 3.917 -51.188 3.875 C-50.48 3.852 -49.772 3.829 -49.043 3.805 C-47 4 -47 4 -44 6 C-42.117 6.23 -42.117 6.23 -39.875 6.188 C-39.441 6.18 -39.441 6.18 -37.242 6.141 C-32.395 5.93 -27.553 5.626 -22.714 5.268 C-17.216 4.892 -17.216 4.892 -15 6 C-9.229 6.6 -5.043 6.104 0 3 C0 2.01 0 1.02 0 0 Z " fill="#DDC39B" transform="translate(101,175)"/>
<path d="M0 0 C0.165 2.805 0.165 2.805 1 17 C-4 15 -4 15 -7 13 C-10.137 12.586 -10.137 12.586 -13.688 12.375 C-14.867 12.3 -16.046 12.225 -17.262 12.148 C-18.165 12.099 -19.069 12.05 -20 12 C-20 10.68 -20 9.36 -20 8 C-19.67 7.897 -19.67 7.897 -18 7.375 C-14.563 5.8 -12.09 3.719 -9.258 1.242 C-7 0 -7 0 0 0 Z " fill="#99980D" transform="translate(71,155)"/>
<path d="M0 0 C0.33 0 0.66 0 1 0 C1.846 3.072 2.286 5.814 2 9 C0.101 12.145 -2.339 14.492 -5 17 C-5.701 17.846 -6.403 18.691 -7.125 19.562 C-9 21 -9 21 -11.625 20.875 C-14 20 -14 20 -16 18 C-16.125 15.312 -16.125 15.312 -15 12 C-11.477 8.14 -7.682 5.281 -3 3 C-1.981 2.019 -0.976 1.023 0 0 Z " fill="#FB7971" transform="translate(64,82)"/>
<path d="M0 0 C1.938 0.062 1.938 0.062 4 1 C8.455 6.483 8.96 13.692 9.312 20.5 C9.752 26.304 11.93 30.171 15 35 C16.699 37.965 17.325 40.349 17.625 43.75 C17.7 44.549 17.775 45.348 17.852 46.172 C17.876 46.474 17.876 46.474 18 48 C17.34 47.67 16.68 47.34 16 47 C15.814 45.762 15.629 44.525 15.438 43.25 C14.391 37.816 11.436 33.855 8.187 29.519 C3.783 23.6 3.765 18.556 3.395 11.4 C3.221 8.385 2.961 5.882 2 3 C-2.157 4.743 -3.327 6.676 -5.199 10.645 C-6.334 13.981 -6.442 17.225 -6.652 20.723 C-7.146 23.96 -8.689 25.763 -11 28 C-9.336 17.615 -7.697 7.697 0 0 Z " fill="#C4352A" transform="translate(44,106)"/>
<path d="M0 0 C0.66 0.33 1.32 0.66 2 1 C0.752 2.73 -0.499 4.459 -1.75 6.188 C-2.446 7.15 -3.142 8.113 -3.859 9.105 C-4.566 10.061 -5.272 11.016 -6 12 C-6.645 12.883 -7.289 13.766 -7.953 14.676 C-10.102 17.115 -12.14 18.49 -15 20 C-13.952 19.942 -12.904 19.884 -11.824 19.824 C-10.445 19.777 -9.066 19.732 -7.688 19.688 C-6.997 19.646 -6.307 19.604 -5.596 19.561 C-3.574 19.512 -3.574 19.512 0 20 C2.043 22.395 2.043 22.395 3 25 C2.67 25.66 2.34 26.32 2 27 C1.359 26.684 0.719 26.368 0.059 26.043 C-3.955 24.674 -7.723 24.502 -11.938 24.312 C-12.723 24.265 -13.509 24.218 -14.318 24.17 C-19.369 23.912 -24.362 23.681 -29 26 C-28.898 24.168 -28.898 24.168 -28 22 C-25.164 20.551 -25.164 20.551 -21.625 19.312 C-20.462 18.896 -19.3 18.48 -18.102 18.051 C-16.069 17.362 -14.036 16.679 -12 16 C-11.938 15.113 -11.876 14.226 -11.812 13.312 C-10.316 7.21 -4.702 3.828 0 0 Z " fill="#C7412E" transform="translate(98,115)"/>
<path d="M0 0 C1.32 0 2.64 0 4 0 C6.419 10.327 5.968 20.575 1 30 C0.34 30 -0.32 30 -1 30 C-1 29.34 -1 28.68 -1 28 C-1.66 28 -2.32 28 -3 28 C-4.625 26 -4.625 26 -6 24 C-5.376 23.312 -4.752 22.623 -4.109 21.914 C-1.766 18.676 -1.055 16.267 -0.25 12.375 C-0.008 11.248 0.235 10.122 0.484 8.961 C1 6 1 6 1 3 C0.34 4.65 -0.32 6.3 -1 8 C-1.931 5.394 -2.149 4.358 -1.062 1.75 C-0.712 1.172 -0.361 0.595 0 0 Z " fill="#9DA20A" transform="translate(119,52)"/>
<path d="M0 0 C2.625 0.375 2.625 0.375 5 1 C6.38 16.95 6.38 16.95 2.996 21.977 C0.75 23.91 -1.425 25.539 -4 27 C-4 26.01 -4 25.02 -4 24 C-3.464 23.464 -2.927 22.927 -2.375 22.375 C-0.702 19.485 -1.05 18.933 -1.875 15.812 C-2.084 15.034 -2.293 14.255 -2.508 13.453 C-3.282 9.594 -2.997 5.803 -2 2 C-1.34 1.34 -0.68 0.68 0 0 Z " fill="#C1312C" transform="translate(103,58)"/>
<path d="M0 0 C0.33 0 0.66 0 1 0 C1.054 2.896 1.094 5.791 1.125 8.688 C1.142 9.504 1.159 10.321 1.176 11.162 C1.213 15.713 0.766 18.776 -1 23 C-1.361 25.868 -1.461 28.738 -1.562 31.625 C-1.881 39.642 -1.881 39.642 -3 43 C0.896 42.847 4.353 42.421 8 41 C10.67 37.951 12.382 34.701 14 31 C15.174 34.521 14.891 35.227 13.375 38.5 C11.563 41.635 10.62 42.788 7.156 43.973 C4.924 44.374 2.688 44.755 0.449 45.117 C-5.324 46.595 -9.509 50.211 -14 54 C-14.66 53.67 -15.32 53.34 -16 53 C-15.469 52.504 -14.938 52.007 -14.391 51.496 C-4.172 41.669 -4.172 41.669 -3.871 35.246 C-3.916 33.173 -3.978 31.1 -4.055 29.027 C-4.001 26.064 -3.544 24.023 -2.562 21.25 C-0.181 14.397 -0.259 7.186 0 0 Z " fill="#B53327" transform="translate(107,112)"/>
<path d="M0 0 C0.715 1.781 0.715 1.781 1 4 C-0.371 5.719 -0.371 5.719 -2.438 7.5 C-6.977 11.713 -10.08 16.415 -13.336 21.656 C-13.885 22.43 -14.434 23.203 -15 24 C-15.66 24 -16.32 24 -17 24 C-17 21.69 -17 19.38 -17 17 C-16.34 16.67 -15.68 16.34 -15 16 C-13.471 12.609 -12.092 9.266 -10.875 5.75 C-8.127 1.72 -4.602 1.1 0 0 Z " fill="#F24F4C" transform="translate(82,66)"/>
<path d="M0 0 C1.32 0 2.64 0 4 0 C4 6.438 1.379 9.424 -2.895 14.082 C-4.906 15.914 -6.439 17.101 -9 18 C-9.99 17.67 -10.98 17.34 -12 17 C-11.67 16.67 -11.34 16.34 -11 16 C-10.979 14.783 -10.959 13.566 -10.938 12.312 C-10.637 9.424 -10.295 8.298 -8.227 6.207 C-6.195 4.722 -4.117 3.359 -2 2 C-1.34 1.34 -0.68 0.68 0 0 Z " fill="#7C880D" transform="translate(127,146)"/>
<path d="M0 0 C1.99 5.642 -0.16 11.546 -2 17 C-3.625 19.797 -5.296 22.182 -8 24 C-9.32 24 -10.64 24 -12 24 C-12 18.06 -12 12.12 -12 6 C-11.67 6 -11.34 6 -11 6 C-11 9.96 -11 13.92 -11 18 C-10.34 18 -9.68 18 -9 18 C-8.807 17.408 -8.613 16.817 -8.414 16.207 C-7.621 13.801 -6.812 11.4 -6 9 C-5.691 8.072 -5.381 7.144 -5.062 6.188 C-3.791 3.569 -2.151 1.936 0 0 Z " fill="#B69435" transform="translate(120,54)"/>
<path d="M0 0 C0.532 -0.013 0.532 -0.013 3.223 -0.078 C4.119 0.03 5.014 0.138 5.938 0.25 C6.597 1.24 7.257 2.23 7.938 3.25 C4.155 7.987 4.155 7.987 1.025 8.663 C-1.127 8.741 -3.225 8.687 -5.375 8.562 C-6.116 8.54 -6.856 8.517 -7.619 8.494 C-9.434 8.436 -11.249 8.346 -13.062 8.25 C-9.479 1.453 -7.951 0.116 0 0 Z " fill="#D62E3C" transform="translate(83.0625,170.75)"/>
<path d="M0 0 C0.66 0.33 1.32 0.66 2 1 C1.988 1.869 1.977 2.738 1.965 3.633 C1.956 4.785 1.947 5.938 1.938 7.125 C1.926 8.262 1.914 9.399 1.902 10.57 C1.995 13.813 2.386 16.819 3 20 C1.35 19.67 -0.3 19.34 -2 19 C-2 18.34 -2 17.68 -2 17 C-3.98 16.34 -5.96 15.68 -8 15 C-6.512 9.197 -3.409 4.824 0 0 Z " fill="#C7BE1C" transform="translate(95,42)"/>
<path d="M0 0 C3.227 6.238 3.227 6.238 2.379 9.085 C2.039 9.865 1.698 10.645 1.348 11.449 C0.983 12.297 0.619 13.144 0.244 14.018 C0.049 14.458 0.049 14.458 -0.938 16.688 C-1.324 17.58 -1.71 18.473 -2.107 19.393 C-3.063 21.599 -4.028 23.801 -5 26 C-5.66 26 -6.32 26 -7 26 C-7.998 15.288 -6.278 8.744 0 0 Z " fill="#F4F3E8" transform="translate(116,46)"/>
<path d="M0 0 C0.66 0 1.32 0 2 0 C2.877 3.907 3.298 7.075 2 10.875 C0 14 0 14 -3.562 14.875 C-4.697 14.916 -5.831 14.958 -7 15 C-7.33 15.165 -7.33 15.165 -9 16 C-11.125 15.062 -11.125 15.062 -13 14 C-12.34 13.361 -11.68 12.721 -11 12.062 C-7.724 8.815 -4.762 5.3 -1.77 1.793 C-1.186 1.201 -0.602 0.61 0 0 Z " fill="#B0BE09" transform="translate(100,119)"/>
<path d="M0 0 C1.98 0.66 3.96 1.32 6 2 C6 2.66 6 3.32 6 4 C7.65 4.33 9.3 4.66 11 5 C11 5.99 11 6.98 11 8 C11.66 8 12.32 8 13 8 C13 9.32 13 10.64 13 12 C12.34 12 11.68 12 11 12 C11 11.01 11 10.02 11 9 C9.68 8.34 8.36 7.68 7 7 C6.546 7.412 6.546 7.412 4.25 9.5 C1.464 12.033 1.127 12 -3 12 C-3.66 11.34 -4.32 10.68 -5 10 C-5.99 9.67 -6.98 9.34 -8 9 C-5.36 6.03 -2.72 3.06 0 0 Z " fill="#F3714C" transform="translate(87,57)"/>
<path d="M0 0 C0 0.66 0 1.32 0 2 C-10.067 6.195 -22.234 5.207 -32.938 5.25 C-34.205 5.271 -35.473 5.291 -36.779 5.312 C-45.251 5.347 -52.842 4.283 -61 2 C-61 1.67 -61 1.34 -61 1 C-60.327 1.07 -59.653 1.14 -58.959 1.212 C-50.816 1.982 -42.717 2.186 -34.545 2.185 C-32.371 2.188 -30.197 2.206 -28.023 2.225 C-21.187 2.251 -14.647 2.094 -7.966 0.443 C-5.293 -0.159 -2.725 -0.143 0 0 Z " fill="#F5E7CE" transform="translate(111,182)"/>
<path d="M0 0 C0.99 0 1.98 0 3 0 C5.062 2.812 5.062 2.812 7 6 C7.33 6.495 7.33 6.495 9 9 C8.758 11.262 8.758 11.262 8.125 13.688 C7.921 14.496 7.718 15.304 7.508 16.137 C7.424 16.444 7.424 16.444 7 18 C2.92 15.133 0.749 12.696 -1 8 C-1.25 4.188 -1.25 4.188 -1 1 C-0.67 0.67 -0.34 0.34 0 0 Z " fill="#979720" transform="translate(21,140)"/>
<path d="M0 0 C2.602 0.023 2.602 0.023 5.625 0.375 C6.628 0.486 7.631 0.597 8.664 0.711 C9.049 0.759 9.049 0.759 11 1 C11 2.32 11 3.64 11 5 C6.176 7.969 1.584 9.085 -4 8 C-5.77 6.477 -5.77 6.477 -7 5 C-6.216 4.546 -5.433 4.093 -4.625 3.625 C-2 2 -2 2 0 0 Z " fill="#869711" transform="translate(90,174)"/>
<path d="M0 0 C1.32 0 2.64 0 4 0 C4.469 10.88 4.003 19.725 0 30 C-0.33 30 -0.66 30 -1 30 C-1.228 20.719 -0.904 12.13 1 3 C-0.32 3.33 -1.64 3.66 -3 4 C-1.75 2 -1.75 2 0 0 Z " fill="#8E990E" transform="translate(103,111)"/>
<path d="M0 0 C0 3.106 -0.539 4.353 -2 7 C-1.01 7.33 -0.02 7.66 1 8 C2.19 12.152 1.79 14.387 0.062 18.312 C-0.318 19.196 -0.698 20.079 -1.09 20.988 C-1.39 21.652 -1.691 22.316 -2 23 C-4.777 20.223 -5.962 17.876 -6.043 13.883 C-5.625 8.103 -4.17 4.17 0 0 Z " fill="#ED3E43" transform="translate(40,93)"/>
<path d="M0 0 C-0.634 4.91 -2.396 9.792 -5 14 C-7.99 16.012 -9.225 16 -13 16 C-13.33 16.99 -13.66 17.98 -14 19 C-14.33 18.34 -14.66 17.68 -15 17 C-6.306 0 -6.306 0 0 0 Z " fill="#CBD21F" transform="translate(83,73)"/>
<path d="M0 0 C0.557 0.248 1.114 0.495 1.688 0.75 C1.458 5.112 0.107 7.898 -2.188 11.5 C-5.275 16.384 -6.956 21.158 -8.312 26.75 C-8.642 26.75 -8.972 26.75 -9.312 26.75 C-9.636 21.911 -8.793 19.058 -6.5 14.812 C-4.234 10.51 -2.153 6.249 -0.312 1.75 C-9.823 8.703 -15.461 14.49 -19.312 25.75 C-20.221 23.258 -20.396 22.02 -19.598 19.453 C-16.409 13.055 -12.655 8.474 -7.312 3.75 C-6.859 3.327 -6.859 3.327 -4.562 1.188 C-2.312 -0.25 -2.312 -0.25 0 0 Z " fill="#8E9920" transform="translate(76.3125,44.25)"/>
<path d="M0 0 C0.66 0 1.32 0 2 0 C2 0.99 2 1.98 2 3 C3.65 2.34 5.3 1.68 7 1 C6.639 1.641 6.278 2.281 5.906 2.941 C3.062 8.243 1.246 11.965 2 18 C2.33 18.66 2.66 19.32 3 20 C3.071 22.207 3.084 24.417 3.062 26.625 C3.053 27.814 3.044 29.002 3.035 30.227 C3.024 31.142 3.012 32.057 3 33 C2.34 33 1.68 33 1 33 C-2.98 5.959 -2.98 5.959 0 0 Z " fill="#DE2E36" transform="translate(88,85)"/>
<path d="M0 0 C0.846 3.072 1.286 5.814 1 9 C-0.899 12.145 -3.339 14.492 -6 17 C-6.701 17.846 -7.403 18.691 -8.125 19.562 C-10 21 -10 21 -12.625 20.875 C-15 20 -15 20 -17 18 C-16.625 14.875 -16.625 14.875 -16 12 C-13.5 13.375 -13.5 13.375 -11 15 C-11 15.66 -11 16.32 -11 17 C-10.258 16.237 -9.515 15.474 -8.75 14.688 C-6 12 -6 12 -3.75 10.562 C-1.256 8.335 -1.288 6.236 -1 3 C-1.66 3 -2.32 3 -3 3 C-3 2.34 -3 1.68 -3 1 C-1 0 -1 0 0 0 Z " fill="#FA6B64" transform="translate(65,82)"/>
<path d="M0 0 C0.99 0.33 1.98 0.66 3 1 C2.858 2.438 2.711 3.875 2.562 5.312 C2.481 6.113 2.4 6.914 2.316 7.738 C2 10 2 10 1 13 C0.971 15.256 1.065 17.492 1.16 19.746 C0.981 22.271 0.262 23.828 -1 26 C-3.73 23.27 -3.299 21.684 -3.312 17.875 C-3.243 12.199 -2.405 8.111 0 3 C-0.495 3.33 -0.495 3.33 -3 5 C-1.125 1.125 -1.125 1.125 0 0 Z " fill="#908E21" transform="translate(34,81)"/>
<path d="M0 0 C0 3.49 -0.904 5.115 -2.5 8.188 C-2.964 9.089 -3.428 9.99 -3.906 10.918 C-4.267 11.605 -4.628 12.292 -5 13 C-4.42 13.026 -3.84 13.052 -3.242 13.078 C2.209 13.474 5.71 14.338 10 18 C10.66 19.32 11.32 20.64 12 22 C9.36 20.68 6.72 19.36 4 18 C4 17.34 4 16.68 4 16 C-0.95 16.33 -5.9 16.66 -11 17 C-9.186 13.371 -7.194 10.175 -4.938 6.812 C-4.225 5.746 -3.512 4.68 -2.777 3.582 C-1 1 -1 1 0 0 Z " fill="#C67627" transform="translate(73,80)"/>
<path d="M0 0 C2.062 0.25 2.062 0.25 4 1 C5.601 4.202 5.34 7.725 5.5 11.25 C5.731 16.244 6.059 21.076 7 26 C5 25 5 25 4.406 23.41 C3.736 19.434 3.603 15.422 3.395 11.4 C3.221 8.385 2.961 5.882 2 3 C-2.157 4.743 -3.327 6.676 -5.199 10.645 C-6.334 13.981 -6.442 17.225 -6.652 20.723 C-7.146 23.96 -8.689 25.763 -11 28 C-9.336 17.615 -7.697 7.697 0 0 Z " fill="#A2681A" transform="translate(44,106)"/>
<path d="M0 0 C0.33 0 0.66 0 1 0 C1.439 7.02 -0.018 12.282 -4.188 18 C-4.786 18.66 -5.384 19.32 -6 20 C-6.99 19.67 -7.98 19.34 -9 19 C-8.766 13.256 -7.342 10.796 -3.434 6.645 C-1.661 4.611 -0.779 2.569 0 0 Z " fill="#ABBA09" transform="translate(114,28)"/>
<path d="M0 0 C0.66 0 1.32 0 2 0 C3 3 3 3 2.125 5.062 C1.754 5.702 1.382 6.341 1 7 C0.67 7.66 0.34 8.32 0 9 C-4.528 10.079 -8.956 10.129 -13.594 10.133 C-13.949 10.133 -13.949 10.133 -15.745 10.136 C-17.237 10.136 -18.73 10.135 -20.222 10.13 C-22.493 10.125 -24.764 10.13 -27.035 10.137 C-28.492 10.136 -29.949 10.135 -31.406 10.133 C-32.719 10.132 -34.032 10.131 -35.385 10.129 C-38.687 10.011 -41.761 9.631 -45 9 C-45 8.67 -45 8.34 -45 8 C-44.047 8.016 -43.095 8.031 -42.114 8.048 C-38.541 8.102 -34.968 8.137 -31.395 8.165 C-29.856 8.18 -28.317 8.2 -26.778 8.226 C-8.298 8.532 -8.298 8.532 0 3 C0 2.01 0 1.02 0 0 Z " fill="#E4D0AB" transform="translate(101,175)"/>
<path d="M0 0 C1.32 0.66 2.64 1.32 4 2 C4.027 4.625 4.047 7.25 4.062 9.875 C4.071 10.621 4.079 11.368 4.088 12.137 C4.113 17.773 4.113 17.773 3 20 C2.774 21.704 2.591 23.413 2.438 25.125 C2.354 26.035 2.27 26.945 2.184 27.883 C2.123 28.581 2.062 29.28 2 30 C1.67 30 1.34 30 1 30 C0.888 20.926 1.058 12.037 2 3 C-1.405 4.911 -4.107 6.876 -6.812 9.688 C-7.115 9.999 -7.115 9.999 -8.645 11.574 C-9.092 12.045 -9.539 12.515 -10 13 C-10 10 -10 10 -7.812 7.52 C-6.884 6.626 -5.956 5.733 -5 4.812 C-4.072 3.911 -3.144 3.01 -2.188 2.082 C-1.827 1.738 -1.827 1.738 0 0 Z " fill="#A46020" transform="translate(85,67)"/>
<path d="M0 0 C0 3.3 0 6.6 0 10 C-0.33 9.34 -0.66 8.68 -1 8 C-3.145 8.165 -3.145 8.165 -14 9 C-13.01 8.67 -12.02 8.34 -11 8 C-10.897 7.402 -10.794 6.804 -10.688 6.188 C-9.148 1.288 -4.675 0 0 0 Z " fill="#AEAF10" transform="translate(67,156)"/>
<path d="M0 0 C0.868 -0.033 1.735 -0.066 2.629 -0.1 C5.025 -0.12 7.159 -0.078 9.5 0.438 C11.656 2.84 11.656 2.84 12.5 5.438 C12.17 6.097 11.84 6.757 11.5 7.438 C10.867 7.12 10.234 6.803 9.582 6.477 C5.447 5.082 1.524 4.977 -2.812 4.812 C-3.648 4.774 -4.484 4.735 -5.346 4.695 C-7.397 4.602 -9.448 4.518 -11.5 4.438 C-11.83 3.778 -12.16 3.118 -12.5 2.438 C-8.337 -0.338 -4.895 0.033 0 0 Z " fill="#DE5739" transform="translate(88.5,134.5625)"/>
<path d="M0 0 C0.33 0.99 0.66 1.98 1 3 C1.66 3 2.32 3 3 3 C2.988 3.857 2.977 4.714 2.965 5.598 C2.918 11.509 2.918 17.182 4 23 C0.555 18.806 -0.141 15.615 -0.062 10.25 C-0.053 9.451 -0.044 8.652 -0.035 7.828 C-0.024 7.225 -0.012 6.622 0 6 C-0.99 5.67 -1.98 5.34 -3 5 C-3 4.67 -3 4.34 -3 4 C-5.97 4 -8.94 4 -12 4 C-8.411 -0.786 -5.583 -0.372 0 0 Z " fill="#E04545" transform="translate(115,77)"/>
<path d="M0 0 C0 2.31 0 4.62 0 7 C-1.622 7.389 -3.248 7.761 -4.875 8.125 C-5.78 8.334 -6.685 8.543 -7.617 8.758 C-8.404 8.838 -9.19 8.918 -10 9 C-10.66 8.34 -11.32 7.68 -12 7 C-11.34 6.67 -10.68 6.34 -10 6 C-10 4.35 -10 2.7 -10 1 C-6.527 -0.158 -3.639 -0.069 0 0 Z " fill="#D92B37" transform="translate(114,156)"/>
<path d="M0 0 C0.33 0 0.66 0 1 0 C1.34 7.449 1.333 14.18 -2 21 C-2.66 21.66 -3.32 22.32 -4 23 C-4.99 22.67 -5.98 22.34 -7 22 C-7 20.35 -7 18.7 -7 17 C-6.34 17 -5.68 17 -5 17 C-4.67 15.68 -4.34 14.36 -4 13 C-3.34 13 -2.68 13 -2 13 C-2.021 12.484 -2.021 12.484 -2.125 9.875 C-2.004 6.132 -1.351 3.463 0 0 Z " fill="#AFB612" transform="translate(131,93)"/>
<path d="M0 0 C0.371 0.052 0.371 0.052 2.25 0.312 C1.654 6.632 1.654 6.632 0.062 9.312 C-2.697 10.835 -4.787 10.037 -7.75 9.312 C-7.062 4.669 -4.92 0.559 0 0 Z " fill="#FB7F78" transform="translate(65.75,99.6875)"/>
<path d="M0 0 C0.33 0 0.66 0 1 0 C1.049 0.71 1.098 1.421 1.148 2.152 C1.223 3.071 1.298 3.991 1.375 4.938 C1.445 5.854 1.514 6.771 1.586 7.715 C1.723 8.469 1.859 9.223 2 10 C2.66 10.33 3.32 10.66 4 11 C2.35 11 0.7 11 -1 11 C-1 11.66 -1 12.32 -1 13 C-2.65 12.67 -4.3 12.34 -6 12 C-5.598 6.377 -3.766 3.954 0 0 Z " fill="#CEB824" transform="translate(63,61)"/>
<path d="M0 0 C0.33 0.66 0.66 1.32 1 2 C1.299 2.072 1.299 2.072 2.812 2.438 C5.412 3.106 6.943 4.311 9 6 C8.312 8.375 8.312 8.375 7 11 C4.375 12.312 4.375 12.312 2 13 C2 10.03 2 7.06 2 4 C-0.64 4.33 -3.28 4.66 -6 5 C-2.25 1.125 -2.25 1.125 0 0 Z " fill="#D74D3F" transform="translate(122,115)"/>
<path d="M0 0 C0.33 0 0.66 0 1 0 C1.33 4.29 1.66 8.58 2 13 C-2 9 -2 9 -3 6 C-7.95 6 -12.9 6 -18 6 C-18.33 5.34 -18.66 4.68 -19 4 C-15.31 2.77 -12.802 3.437 -9 4 C-8.67 3.67 -8.34 3.34 -8 3 C-6.845 2.856 -5.69 2.711 -4.5 2.562 C-3.922 2.47 -3.922 2.47 -1 2 C-0.67 1.34 -0.34 0.68 0 0 Z " fill="#B59F12" transform="translate(101,130)"/>
<path d="M0 0 C0.33 0.99 0.66 1.98 1 3 C-5.051 9.535 -5.051 9.535 -9.312 11.625 C-12.638 13.326 -12.877 14.544 -14 18 C-15.625 19.812 -15.625 19.812 -17 21 C-18.231 14.6 -18.231 14.6 -17.062 11.562 C-16.712 11.047 -16.361 10.531 -16 10 C-16 10.66 -16 11.32 -16 12 C-9.465 8.773 -4.191 6.069 0 0 Z " fill="#B83A2B" transform="translate(85,57)"/>
<path d="M0 0 C0.66 0 1.32 0 2 0 C1.624 5.007 -0.108 8.044 -2.793 12.121 C-5.43 16.227 -6.331 20.207 -7 25 C-7.66 25 -8.32 25 -9 25 C-10.092 21.809 -10.244 19.654 -9.059 16.48 C-7.064 12.414 -5.203 9.194 -2 6 C-0.812 2.812 -0.812 2.812 0 0 Z " fill="#AEB50E" transform="translate(74,46)"/>
<path d="M0 0 C2.375 0.25 2.375 0.25 5 1 C5.667 2.333 6.333 3.667 7 5 C10.125 6.75 10.125 6.75 13 8 C13 8.66 13 9.32 13 10 C9.02 10.312 6.643 10.364 3.125 8.375 C0.604 5.557 0.254 3.722 0 0 Z " fill="#9D8123" transform="translate(39,169)"/>
<path d="M0 0 C0.33 0.99 0.66 1.98 1 3 C1.99 3 2.98 3 4 3 C4.938 6.319 5.745 9.554 6 13 C4.188 15.375 4.188 15.375 2 17 C1.25 19.25 1.25 19.25 1 21 C-0.32 20.67 -1.64 20.34 -3 20 C-2.34 19.67 -1.68 19.34 -1 19 C0.473 15.257 0.111 11.208 0.062 7.25 C0.058 6.553 0.053 5.855 0.049 5.137 C0.037 3.424 0.019 1.712 0 0 Z " fill="#E2343A" transform="translate(97,66)"/>
<path d="M0 0 C0.99 0 1.98 0 3 0 C2.995 0.781 2.99 1.563 2.984 2.367 C2.963 5.932 2.95 9.497 2.938 13.062 C2.929 14.292 2.921 15.521 2.912 16.787 C2.896 22.628 2.915 28.252 4 34 C3.01 33.67 2.02 33.34 1 33 C0.975 32.208 0.95 31.417 0.924 30.601 C0.808 27.005 0.685 23.409 0.562 19.812 C0.523 18.567 0.484 17.321 0.443 16.037 C0.401 14.835 0.36 13.633 0.316 12.395 C0.28 11.29 0.243 10.185 0.205 9.046 C0 6 0 6 -0.582 3.163 C-0.651 2.806 -0.651 2.806 -1 1 C-0.67 0.67 -0.34 0.34 0 0 Z " fill="#A4AD0C" transform="translate(84,70)"/>
<path d="M0 0 C0.66 0.33 0.66 0.33 4 2 C4.108 4.27 4.186 6.541 4.25 8.812 C4.296 10.077 4.343 11.342 4.391 12.645 C4.262 13.752 4.133 14.859 4 16 C2.68 16.99 1.36 17.98 0 19 C0 12.73 0 6.46 0 0 Z " fill="#7C8005" transform="translate(101,41)"/>
<path d="M0 0 C0.33 0.66 0.66 1.32 1 2 C0.67 2.99 0.34 3.98 0 5 C-0.093 6.685 -0.13 8.374 -0.125 10.062 C-0.128 10.94 -0.13 11.818 -0.133 12.723 C0 15 0 15 1 17 C1.368 22.79 1.368 22.79 1 25 C0.01 25.99 -0.98 26.98 -2 28 C-2 21.07 -2 14.14 -2 7 C-2.99 7 -3.98 7 -5 7 C-3.707 4.116 -2.341 2.128 0 0 Z " fill="#B2C00E" transform="translate(99,24)"/>
<path d="M0 0 C0.495 0.33 0.495 0.33 3 2 C4.987 2.704 6.988 3.371 9 4 C9.99 4.33 10.98 4.66 12 5 C12.33 5.99 12.66 6.98 13 8 C20.039 8.939 26.903 9.108 34 9 C34 9.33 34 9.66 34 10 C15.261 11.995 15.261 11.995 9.875 9.625 C9.256 9.089 8.638 8.553 8 8 C8 7.34 8 6.68 8 6 C7.051 5.752 6.102 5.505 5.125 5.25 C2 4 2 4 0.625 1.875 C0.419 1.256 0.212 0.637 0 0 Z " fill="#AB3629" transform="translate(44,171)"/>
<path d="M0 0 C0.33 0.66 0.66 1.32 1 2 C1.99 2.33 2.98 2.66 4 3 C3.34 3.66 2.68 4.32 2 5 C1.805 8.258 1.805 8.258 1.875 12.125 C1.893 13.406 1.911 14.688 1.93 16.008 C1.953 16.995 1.976 17.983 2 19 C1.175 18.67 1.175 18.67 -3 17 C-3.33 13.37 -3.66 9.74 -4 6 C-3.34 7.32 -2.68 8.64 -2 10 C-1.34 6.7 -0.68 3.4 0 0 Z " fill="#C03130" transform="translate(32,132)"/>
<path d="M0 0 C1.35 3.757 0.686 6.602 -0.188 10.438 C-0.429 11.55 -0.67 12.662 -0.918 13.809 C-2.098 17.288 -3.418 19.398 -6 22 C-6.99 22 -7.98 22 -9 22 C-8.732 21.505 -8.464 21.01 -8.188 20.5 C-6.561 17.076 -5.305 13.559 -4 10 C-3.34 10 -2.68 10 -2 10 C-2.041 8.907 -2.082 7.814 -2.125 6.688 C-2 3 -2 3 0 0 Z " fill="#B1C210" transform="translate(120,54)"/>
<path d="M0 0 C3.336 6.672 3.108 15.046 1.102 22.207 C0.162 24.537 -0.829 26.778 -2 29 C-2.66 29 -3.32 29 -4 29 C-4 27.02 -4 25.04 -4 23 C-3.01 23 -2.02 23 -1 23 C-0.67 15.41 -0.34 7.82 0 0 Z " fill="#798E14" transform="translate(122,53)"/>
<path d="M0 0 C2.163 1.712 2.93 2.623 3.438 5.375 C2.86 8.84 1.421 10.508 -1 13 C-1.66 13 -2.32 13 -3 13 C-3.081 11.209 -3.139 9.417 -3.188 7.625 C-3.222 6.627 -3.257 5.63 -3.293 4.602 C-3.245 4.172 -3.245 4.172 -3 2 C-2.01 1.34 -1.02 0.68 0 0 Z " fill="#C6CE25" transform="translate(44,110)"/>
<path d="M0 0 C0.66 0 1.32 0 2 0 C2.87 2.997 3.118 5.65 3.098 8.766 C3.094 9.655 3.091 10.545 3.088 11.461 C3.08 12.381 3.071 13.302 3.062 14.25 C3.058 15.186 3.053 16.122 3.049 17.086 C3.037 19.391 3.021 21.695 3 24 C2.34 24 1.68 24 1 24 C0.67 19.71 0.34 15.42 0 11 C-0.33 11 -0.66 11 -1 11 C-1.1 7.504 -0.758 4.411 0 1 C0 0.67 0 0.34 0 0 Z " fill="#B2BE0B" transform="translate(82,72)"/>
<path d="M0 0 C0.99 0.33 1.98 0.66 3 1 C2.67 1.165 2.67 1.165 1 2 C0.876 2.578 0.752 3.155 0.625 3.75 C-0.233 6.839 -1.918 8.571 -4 11 C-4.407 11.545 -4.815 12.091 -5.234 12.652 C-6.5 14.312 -6.5 14.312 -9 17 C-10.32 17 -11.64 17 -13 17 C-13 12.71 -13 8.42 -13 4 C-12.67 4 -12.34 4 -12 4 C-11.67 7.63 -11.34 11.26 -11 15 C-7.216 10.796 -4.4 7.16 -2 2 C-1.34 1.34 -0.68 0.68 0 0 Z " fill="#A2AA55" transform="translate(115,25)"/>
<path d="M0 0 C0.33 0 0.66 0 1 0 C1 3.63 1 7.26 1 11 C1.66 10.67 2.32 10.34 3 10 C1.582 14.472 -0.113 18.711 -2 23 C-2.66 22.67 -3.32 22.34 -4 22 C-3.717 19.27 -3.424 16.541 -3.125 13.812 C-3.086 13.428 -3.086 13.428 -2.887 11.482 C-2.425 7.342 -1.816 3.808 0 0 Z " fill="#A4B22C" transform="translate(89,35)"/>
<path d="M0 0 C2.036 2.538 4.063 5.08 6.07 7.641 C6.409 8.071 6.409 8.071 8.125 10.25 C8.808 11.121 9.491 11.993 10.195 12.891 C12 15 12 15 14 16 C14 16.66 14 17.32 14 18 C8.627 18.352 8.627 18.352 6 18 C4 16 4 16 3 14 C3.33 13.34 3.66 12.68 4 12 C4.99 12.99 5.98 13.98 7 15 C7.33 14.67 7.66 14.34 8 14 C7.567 13.446 7.134 12.891 6.688 12.32 C6.131 11.596 5.574 10.871 5 10.125 C4.443 9.406 3.886 8.686 3.312 7.945 C2 6 2 6 2 4 C1.34 4 0.68 4 0 4 C0 2.68 0 1.36 0 0 Z " fill="#C6252E" transform="translate(34,151)"/>
<path d="M0 0 C1.98 0.66 3.96 1.32 6 2 C6 2.66 6 3.32 6 4 C7.65 4.33 9.3 4.66 11 5 C11 5.99 11 6.98 11 8 C11.66 8 12.32 8 13 8 C13 9.32 13 10.64 13 12 C12.34 12 11.68 12 11 12 C11 11.01 11 10.02 11 9 C7.153 6.916 3.099 5.503 -1 4 C-0.67 2.68 -0.34 1.36 0 0 Z " fill="#D67029" transform="translate(87,57)"/>
<path d="M0 0 C0.825 2.834 1.079 5.169 0.879 8.109 C0.831 8.863 0.782 9.618 0.732 10.395 C0.704 10.783 0.704 10.783 0.562 12.75 C0.51 13.543 0.458 14.336 0.404 15.152 C0.275 17.102 0.138 19.051 0 21 C-3.354 17.141 -3.437 14.508 -3.305 9.551 C-2.869 5.905 -1.692 3.244 0 0 Z " fill="#94AB08" transform="translate(101,22)"/>
<path d="M0 0 C1.98 0 3.96 0 6 0 C6 1.32 6 2.64 6 4 C1.176 6.969 -3.416 8.085 -9 7 C-10.77 5.477 -10.77 5.477 -12 4 C-11.085 4.023 -10.17 4.046 -9.227 4.07 C-8.632 4.079 -8.632 4.079 -5.625 4.125 C-5.033 4.137 -5.033 4.137 -2.039 4.195 C1 4 1 4 3 2 C2.01 1.34 1.02 0.68 0 0 Z " fill="#707519" transform="translate(95,175)"/>
<path d="M0 0 C3.875 0.625 3.875 0.625 5.875 3.125 C6.205 3.95 6.535 4.775 6.875 5.625 C6.38 5.46 5.885 5.295 5.375 5.125 C1.841 4.418 -1.522 4.565 -5.125 4.625 C-6.115 6.605 -7.105 8.585 -8.125 10.625 C-8.455 10.625 -8.785 10.625 -9.125 10.625 C-9.638 7.037 -9.264 5.82 -7.125 2.812 C-4.223 0.696 -3.387 0.219 0 0 Z " fill="#E55C44" transform="translate(42.125,131.375)"/>
<path d="M0 0 C0.33 0 0.66 0 1 0 C1.339 4.922 0.407 7.904 -1.875 12.25 C-2.409 13.286 -2.942 14.323 -3.492 15.391 C-5 18 -5 18 -7 20 C-8.32 20 -9.64 20 -11 20 C-11 19.34 -11 18.68 -11 18 C-10.216 17.773 -9.433 17.546 -8.625 17.312 C-5.26 15.63 -5.214 14.484 -4 11 C-3.647 10.045 -3.294 9.09 -2.93 8.105 C-2.582 7.143 -2.234 6.18 -1.875 5.188 C-1.522 4.212 -1.169 3.236 -0.805 2.23 C-0.539 1.494 -0.274 0.758 0 0 Z " fill="#DE414C" transform="translate(122,134)"/>
<path d="M0 0 C0 3 0 3 -1.562 6.125 C-3.542 10.483 -3.008 14.416 -2 19 C-1.67 19.66 -1.34 20.32 -1 21 C-1.66 21.66 -2.32 22.32 -3 23 C-5.978 17.401 -6.696 13.189 -5 7 C-3.683 4.361 -2.1 2.1 0 0 Z " fill="#BF342C" transform="translate(40,93)"/>
<path d="M0 0 C1.258 -0.041 2.516 -0.083 3.812 -0.125 C4.52 -0.148 5.228 -0.171 5.957 -0.195 C8 0 8 0 11 2 C13.043 2.414 13.043 2.414 15.188 2.625 C16.446 2.749 17.704 2.873 19 3 C19 3.33 19 3.66 19 4 C13.39 4 7.78 4 2 4 C1.34 2.68 0.68 1.36 0 0 Z " fill="#D0B186" transform="translate(46,179)"/>
<path d="M0 0 C0.66 0 1.32 0 2 0 C2.33 5.61 2.66 11.22 3 17 C-2 15 -2 15 -3 13 C-1.68 13.33 -0.36 13.66 1 14 C0.67 13.01 0.34 12.02 0 11 C-0.069 9.105 -0.085 7.208 -0.062 5.312 C-0.053 4.319 -0.044 3.325 -0.035 2.301 C-0.024 1.542 -0.012 0.782 0 0 Z " fill="#9C4D1F" transform="translate(69,155)"/>
<path d="M0 0 C2.062 0.438 2.062 0.438 4 1 C4.33 2.65 4.66 4.3 5 6 C2 6 -1 6 -4 6 C-4.66 5.34 -5.32 4.68 -6 4 C-5.196 3.526 -4.391 3.051 -3.562 2.562 C-1 1 -1 1 0 0 Z " fill="#E96845" transform="translate(30,106)"/>
<path d="M0 0 C0.66 1.32 1.32 2.64 2 4 C1.01 4.66 0.02 5.32 -1 6 C-1.66 5.67 -2.32 5.34 -3 5 C-3 5.99 -3 6.98 -3 8 C-3.99 8.33 -4.98 8.66 -6 9 C-6 6.69 -6 4.38 -6 2 C-2.25 0 -2.25 0 0 0 Z " fill="#989B0B" transform="translate(123,153)"/>
<path d="M0 0 C0.66 0.99 1.32 1.98 2 3 C4.125 3.688 4.125 3.688 6 4 C6 3.34 6 2.68 6 2 C7.65 2 9.3 2 11 2 C11.33 3.32 11.66 4.64 12 6 C10.014 5.967 8.029 5.935 6.043 5.902 C4 6 4 6 1 7 C0.34 6.67 -0.32 6.34 -1 6 C-0.67 4.02 -0.34 2.04 0 0 Z " fill="#E96941" transform="translate(56,70)"/>
<path d="M0 0 C3.131 3.131 3.937 5.932 4.195 10.332 C4.184 10.906 4.184 10.906 4.125 13.812 C4.107 14.974 4.089 16.135 4.07 17.332 C4.047 18.212 4.024 19.093 4 20 C3.34 20 2.68 20 2 20 C1.34 13.4 0.68 6.8 0 0 Z " fill="#C2352A" transform="translate(87,98)"/>
<path d="M0 0 C0.66 0 1.32 0 2 0 C2 3.3 2 6.6 2 10 C0.68 10 -0.64 10 -2 10 C-2 7.36 -2 4.72 -2 2 C-1.34 2 -0.68 2 0 2 C0 1.34 0 0.68 0 0 Z " fill="#D62F35" transform="translate(105,66)"/>
<path d="M0 0 C0.33 0.66 0.66 1.32 1 2 C3.026 2.225 5.055 2.444 7.09 2.559 C9 3 9 3 11 6 C6.05 5.67 1.1 5.34 -4 5 C-4 3.68 -4 2.36 -4 1 C-2.68 0.67 -1.36 0.34 0 0 Z " fill="#BE8023" transform="translate(55,162)"/>
<path d="M0 0 C1.32 0 2.64 0 4 0 C3.508 6.4 3.508 6.4 0.938 9.438 C0.618 9.695 0.618 9.695 -1 11 C-1.027 9.354 -1.046 7.708 -1.062 6.062 C-1.074 5.146 -1.086 4.229 -1.098 3.285 C-1 1 -1 1 0 0 Z " fill="#7B952B" transform="translate(127,146)"/>
<path d="M0 0 C8.218 0.79 8.218 0.79 11 4 C11.875 7.562 11.875 7.562 12 11 C11.34 11.66 10.68 12.32 10 13 C9.67 10.36 9.34 7.72 9 5 C8.443 4.917 7.886 4.835 7.312 4.75 C4.303 3.774 2.378 2.048 0 0 Z " fill="#DA423A" transform="translate(92,139)"/>
<path d="M0 0 C6.27 0 12.54 0 19 0 C19.33 1.32 19.66 2.64 20 4 C17.04 3.719 14.083 3.426 11.125 3.125 C10.704 3.086 10.704 3.086 8.574 2.887 C8.171 2.845 8.171 2.845 6.133 2.633 C5.389 2.559 4.646 2.486 3.879 2.411 C2 2 2 2 0 0 Z " fill="#CD7D25" transform="translate(79,135)"/>
<path d="M0 0 C0 1.32 0 2.64 0 4 C-3.135 5.858 -5.375 6.201 -9 6 C-5.615 0 -5.615 0 0 0 Z " fill="#C0C617" transform="translate(67,156)"/>
<path d="M0 0 C0.66 1.32 1.32 2.64 2 4 C0.763 4.144 -0.475 4.289 -1.75 4.438 C-4.565 4.787 -7.27 5.204 -10 6 C-9.02 3.549 -8.349 2.232 -6.125 0.75 C-4 0 -4 0 0 0 Z " fill="#C19B1D" transform="translate(44,128)"/>
<path d="M0 0 C0.66 0.66 1.32 1.32 2 2 C1 3 1 3 -1.004 3.133 C-6.43 3.116 -11.632 2.795 -17 2 C-17 1.67 -17 1.34 -17 1 C-3.93 -0.302 -3.93 -0.302 0 0 Z " fill="#D2B087" transform="translate(84,180)"/>
<path d="M0 0 C0.33 0.99 0.66 1.98 1 3 C1.66 3 2.32 3 3 3 C3 3.66 3 4.32 3 5 C2.729 4.918 2.729 4.918 1.359 4.504 C-1.402 3.914 -3.928 3.904 -6.75 3.938 C-7.735 3.947 -8.72 3.956 -9.734 3.965 C-10.108 3.971 -10.108 3.971 -12 4 C-8.411 -0.786 -5.583 -0.372 0 0 Z " fill="#D66F30" transform="translate(115,77)"/>
<path d="M0 0 C0.812 1.625 0.812 1.625 1 4 C-0.468 6.246 -2.159 8.024 -4 10 C-4.99 9.01 -5.98 8.02 -7 7 C-2.25 1.125 -2.25 1.125 0 0 Z " fill="#BACA1D" transform="translate(72,48)"/>
<path d="M0 0 C0.66 0 1.32 0 2 0 C1.403 3.341 0.369 5.543 -2 8 C-3.32 8 -4.64 8 -6 8 C-6.66 9.32 -7.32 10.64 -8 12 C-8 8.241 -7.049 7.587 -4.562 4.875 C-3.924 4.171 -3.286 3.467 -2.629 2.742 C-1.764 1.817 -0.895 0.895 0 0 Z " fill="#C0C821" transform="translate(81,73)"/>
<path d="M0 0 C2.625 0.375 2.625 0.375 5 1 C4.67 2.32 4.34 3.64 4 5 C4 4.34 4 3.68 4 3 C2.68 3 1.36 3 0 3 C-0.33 6.63 -0.66 10.26 -1 14 C-3.194 10.709 -3.215 10.152 -2.75 6.438 C-2.662 5.652 -2.575 4.867 -2.484 4.059 C-2 2 -2 2 0 0 Z " fill="#9F4D18" transform="translate(103,58)"/>
<path d="M0 0 C1.32 0.33 2.64 0.66 4 1 C3.886 2.813 3.759 4.626 3.625 6.438 C3.555 7.447 3.486 8.456 3.414 9.496 C3.277 10.322 3.141 11.149 3 12 C2.67 12.165 2.67 12.165 1 13 C1 9.7 1 6.4 1 3 C0.34 4.65 -0.32 6.3 -1 8 C-1.931 5.394 -2.149 4.358 -1.062 1.75 C-0.712 1.172 -0.361 0.595 0 0 Z " fill="#8C9F17" transform="translate(119,52)"/>
<path d="M0 0 C0.33 0 0.66 0 1 0 C1.054 2.104 1.093 4.208 1.125 6.312 C1.148 7.484 1.171 8.656 1.195 9.863 C1 13 1 13 -1 16 C-2 15 -2 15 -2.188 11.938 C-1.983 7.641 -1.159 4.128 0 0 Z " fill="#F5F3E7" transform="translate(86,39)"/>
<path d="M0 0 C0.99 0 1.98 0 3 0 C4.238 3.576 3.749 6.337 3 10 C2.01 8.68 1.02 7.36 0 6 C-0.495 6.33 -0.495 6.33 -3 8 C-1.125 2.25 -1.125 2.25 0 0 Z " fill="#D33642" transform="translate(123,126)"/>
<path d="M0 0 C1.333 0 2.667 0 4 0 C4.179 3.947 4.094 6.598 2 10 C1.34 10 0.68 10 0 10 C-1.125 3.375 -1.125 3.375 0 0 Z " fill="#ECEAD4" transform="translate(124,100)"/>
<path d="M0 0 C0.66 0.33 1.32 0.66 2 1 C1.329 5.194 -0.856 8.403 -3 12 C-3.33 12 -3.66 12 -4 12 C-4.492 4.615 -4.492 4.615 -2 1.5 C-1.34 1.005 -0.68 0.51 0 0 Z " fill="#F6F2E7" transform="translate(38,90)"/>
<path d="M0 0 C1.32 0 2.64 0 4 0 C5.484 2.969 5.209 5.699 5.25 9 C5.276 10.258 5.302 11.516 5.328 12.812 C5.22 13.864 5.112 14.916 5 16 C4.505 16.33 4.505 16.33 2 18 C2.66 13.71 3.32 9.42 4 5 C3.34 5 2.68 5 2 5 C2 4.01 2 3.02 2 2 C1.34 2 0.68 2 0 2 C0 1.34 0 0.68 0 0 Z " fill="#BC3724" transform="translate(103,61)"/>
<path d="M0 0 C0.907 0.619 1.815 1.238 2.75 1.875 C5.149 3.444 7.41 4.804 10 6 C3.945 6.977 3.945 6.977 2 7 C0 5 0 5 -0.125 2.375 C-0.084 1.591 -0.042 0.808 0 0 Z " fill="#F0E1C1" transform="translate(40,175)"/>
<path d="M0 0 C0.99 0.33 1.98 0.66 3 1 C3.33 1.99 3.66 2.98 4 4 C-1.75 9 -1.75 9 -4 9 C-2.801 5.917 -1.523 2.937 0 0 Z " fill="#E8DACF" transform="translate(122,144)"/>
<path d="M0 0 C0 0.99 0 1.98 0 3 C-2.31 4.32 -4.62 5.64 -7 7 C-7.66 5.68 -8.32 4.36 -9 3 C-3.2 0 -3.2 0 0 0 Z " fill="#EF5049" transform="translate(62,75)"/>
<path d="M0 0 C0.33 0.99 0.66 1.98 1 3 C-0.077 4.131 -1.162 5.255 -2.25 6.375 C-2.853 7.001 -3.457 7.628 -4.078 8.273 C-6.028 10.025 -7.529 11.129 -10 12 C-12.25 11.625 -12.25 11.625 -14 11 C-13.325 10.625 -12.649 10.25 -11.953 9.863 C-3.093 4.78 -3.093 4.78 0 0 Z " fill="#BD4737" transform="translate(85,57)"/>
<path d="M0 0 C-3.01 1.617 -5.971 2.676 -9.25 3.625 C-9.696 3.755 -9.696 3.755 -11.953 4.414 C-12.629 4.607 -13.304 4.801 -14 5 C-14 2 -14 2 -12 0 C-3.854 -1.445 -3.854 -1.445 0 0 Z " fill="#EBD8C0" transform="translate(119,165)"/>
<path d="M0 0 C2.964 2.808 5.445 5.183 7 9 C4.076 8.373 1.552 7.584 -1 6 C-1.33 5.01 -1.66 4.02 -2 3 C-1.34 2.01 -0.68 1.02 0 0 Z " fill="#DE3340" transform="translate(37,158)"/>
<path d="M0 0 C2.602 0.023 2.602 0.023 5.625 0.375 C6.628 0.486 7.631 0.597 8.664 0.711 C9.049 0.759 9.049 0.759 11 1 C11 1.33 11 1.66 11 2 C10.397 2.026 9.793 2.052 9.172 2.078 C2.563 2.547 2.563 2.547 -0.562 5.062 C-1.037 5.702 -1.511 6.341 -2 7 C-2.66 6.67 -3.32 6.34 -4 6 C-2.848 3.532 -1.952 1.952 0 0 Z " fill="#F65556" transform="translate(61,98)"/>
<path d="M0 0 C0.33 0.66 0.66 1.32 1 2 C-0.438 4.062 -0.438 4.062 -3 6 C-6.093 6.157 -9.021 5.858 -12 5 C-12.33 4.34 -12.66 3.68 -13 3 C-12.656 3.017 -12.656 3.017 -10.918 3.105 C-10.017 3.133 -9.116 3.16 -8.188 3.188 C-7.294 3.222 -6.401 3.257 -5.48 3.293 C-2.584 2.951 -1.774 2.246 0 0 Z " fill="#D63241" transform="translate(69,175)"/>
<path d="M0 0 C0.99 0.33 1.98 0.66 3 1 C4.022 4.067 4.166 6.287 4.188 9.5 C4.202 10.459 4.216 11.418 4.23 12.406 C4 15 4 15 2 18 C2.023 17.085 2.046 16.17 2.07 15.227 C2.088 14.038 2.106 12.85 2.125 11.625 C2.148 10.442 2.171 9.258 2.195 8.039 C2 5 2 5 0 3 C-0.99 3 -1.98 3 -3 3 C-2.01 2.01 -1.02 1.02 0 0 Z " fill="#A8B618" transform="translate(44,108)"/>
<path d="M0 0 C7.668 -0.767 7.668 -0.767 10.934 1.113 C12.562 2.5 12.562 2.5 15 5 C14.67 5.66 14.34 6.32 14 7 C11.69 5.68 9.38 4.36 7 3 C7 2.34 7 1.68 7 1 C4.69 1 2.38 1 0 1 C0 0.67 0 0.34 0 0 Z " fill="#E47734" transform="translate(70,95)"/>
<path d="M0 0 C0 1.65 0 3.3 0 5 C0.66 5 1.32 5 2 5 C1.67 6.32 1.34 7.64 1 9 C-3.8 5.554 -3.8 5.554 -4.812 2.75 C-4.874 2.172 -4.936 1.595 -5 1 C-1.125 0 -1.125 0 0 0 Z " fill="#BDAB0E" transform="translate(83,91)"/>
<path d="M0 0 C0.99 0 1.98 0 3 0 C3.25 6.625 3.25 6.625 1 10 C0.01 9.67 -0.98 9.34 -2 9 C-1.67 8.67 -1.34 8.34 -1 8 C-0.769 6.653 -0.588 5.296 -0.438 3.938 C-0.293 2.638 -0.149 1.339 0 0 Z " fill="#AC6C24" transform="translate(114,155)"/>
<path d="M0 0 C0.33 0 0.66 0 1 0 C0.41 5.508 -0.567 10.649 -2 16 C-2.33 16 -2.66 16 -3 16 C-3.38 9.801 -2.835 5.552 0 0 Z " fill="#97A912" transform="translate(34,85)"/>
<path d="M0 0 C0.66 0 1.32 0 2 0 C1.523 1.626 1.043 3.251 0.562 4.875 C0.296 5.78 0.029 6.685 -0.246 7.617 C-1 10 -1 10 -2 12 C-2.66 12 -3.32 12 -4 12 C-4 10.02 -4 8.04 -4 6 C-3.01 6 -2.02 6 -1 6 C-0.67 4.02 -0.34 2.04 0 0 Z " fill="#8C8928" transform="translate(122,70)"/>
<path d="M0 0 C0.402 0.01 0.402 0.01 2.438 0.062 C2.438 2.373 2.438 4.683 2.438 7.062 C0.457 7.062 -1.522 7.062 -3.562 7.062 C-2.243 6.732 -0.922 6.403 0.438 6.062 C0.125 4.125 0.125 4.125 -0.562 2.062 C-1.552 1.732 -2.543 1.403 -3.562 1.062 C-2.562 0.062 -2.562 0.062 0 0 Z " fill="#D6433A" transform="translate(111.5625,155.9375)"/>
<path d="M0 0 C2.97 0 5.94 0 9 0 C9 0.66 9 1.32 9 2 C8.113 2.103 7.226 2.206 6.312 2.312 C2.929 3.015 0.881 4.16 -2 6 C-2.66 6 -3.32 6 -4 6 C-4 5.34 -4 4.68 -4 4 C-3.34 4 -2.68 4 -2 4 C-1.34 2.68 -0.68 1.36 0 0 Z " fill="#E23942" transform="translate(115,119)"/>
<path d="M0 0 C3.33 2.6 3.618 5.111 4.188 9.188 C4.267 9.731 4.267 9.731 4.668 12.48 C4.778 13.312 4.887 14.143 5 15 C4.34 14.67 3.68 14.34 3 14 C2.402 12.109 2.402 12.109 1.938 9.75 C1.774 8.942 1.61 8.134 1.441 7.301 C1.296 6.542 1.15 5.782 1 5 C0.897 4.495 0.897 4.495 0.375 1.938 C0.251 1.298 0.127 0.659 0 0 Z " fill="#C52929" transform="translate(57,139)"/>
<path d="M0 0 C-3.812 3.35 -7.333 5.17 -12 7 C-11.777 5.145 -11.777 5.145 -11 3 C-9.004 1.699 -9.004 1.699 -6.562 0.688 C-5.759 0.341 -4.956 -0.006 -4.129 -0.363 C-2 -1 -2 -1 0 0 Z " fill="#CE2C30" transform="translate(81,134)"/>
<path d="M0 0 C0.33 0 0.66 0 1 0 C1.66 5.94 2.32 11.88 3 18 C2.01 17.67 1.02 17.34 0 17 C0 11.39 0 5.78 0 0 Z " fill="#AA8817" transform="translate(85,86)"/>
<path d="M0 0 C0.66 0.66 1.32 1.32 2 2 C-0.31 4.64 -2.62 7.28 -5 10 C-5 6.269 -3.82 4.219 -2 1 C-1.34 0.67 -0.68 0.34 0 0 Z " fill="#EE4044" transform="translate(75,68)"/>
<path d="M0 0 C5.538 0.492 5.538 0.492 7.875 3.062 C8.061 3.382 8.061 3.382 9 5 C6.75 5.312 6.75 5.312 4 5 C1.688 2.5 1.688 2.5 0 0 Z " fill="#DF443E" transform="translate(43,169)"/>
<path d="M0 0 C-6.143 5.571 -6.143 5.571 -11 6 C-9.625 4.5 -9.625 4.5 -8 3 C-7.34 3 -6.68 3 -6 3 C-6 2.01 -6 1.02 -6 0 C-2.25 -1.125 -2.25 -1.125 0 0 Z " fill="#7C8422" transform="translate(126,158)"/>
<path d="M0 0 C0.33 0 0.66 0 1 0 C1.492 7.262 1.492 7.262 -1 11 C-1.66 11.66 -2.32 12.32 -3 13 C-2.344 8.515 -1.299 4.331 0 0 Z " fill="#AE6921" transform="translate(36,121)"/>
<path d="M0 0 C0.33 0.99 0.66 1.98 1 3 C1.99 3 2.98 3 4 3 C4 4.98 4 6.96 4 9 C3.01 9.33 2.02 9.66 1 10 C0.67 6.7 0.34 3.4 0 0 Z " fill="#DC4B3A" transform="translate(97,66)"/>
<path d="M0 0 C1.98 0.66 3.96 1.32 6 2 C5.67 2.99 5.34 3.98 5 5 C4.01 4.835 4.01 4.835 -1 4 C-0.67 2.68 -0.34 1.36 0 0 Z " fill="#E1992F" transform="translate(87,57)"/>
<path d="M0 0 C1.5 1.25 1.5 1.25 3 3 C3 4.32 3 5.64 3 7 C1.35 6.67 -0.3 6.34 -2 6 C-1.494 3.831 -1 2 0 0 Z " fill="#C99B18" transform="translate(95,55)"/>
<path d="M0 0 C0.99 0.33 1.98 0.66 3 1 C2.67 1.165 2.67 1.165 1 2 C0.928 2.309 0.928 2.309 0.562 3.875 C-0.097 6.367 -1.083 7.333 -3 9 C-3.66 8.67 -4.32 8.34 -5 8 C-2.25 2.25 -2.25 2.25 0 0 Z " fill="#9DA92B" transform="translate(115,25)"/>
<path d="M0 0 C0.495 0.33 0.495 0.33 3 2 C4.987 2.704 6.988 3.371 9 4 C9.99 4.33 10.98 4.66 12 5 C12 5.66 12 6.32 12 7 C7.021 6.526 3.933 5.09 0 2 C0 1.34 0 0.68 0 0 Z " fill="#C2502D" transform="translate(44,171)"/>
<path d="M0 0 C0.33 0 0.66 0 1 0 C1.124 0.804 1.248 1.609 1.375 2.438 C1.581 3.283 1.787 4.129 2 5 C2.66 5.33 3.32 5.66 4 6 C3.34 8.31 2.68 10.62 2 13 C0 11 0 11 -0.195 8.398 C-0.172 7.401 -0.149 6.403 -0.125 5.375 C-0.107 4.372 -0.089 3.369 -0.07 2.336 C-0.047 1.565 -0.024 0.794 0 0 Z " fill="#D33335" transform="translate(87,87)"/>
<path d="M0 0 C3.333 0.667 6.667 1.333 10 2 C10.467 2.093 10.467 2.093 12.832 2.566 C13.547 2.709 14.263 2.853 15 3 C15 3.33 15 3.66 15 4 C9.287 5.611 5.313 4.09 0 2 C0 1.34 0 0.68 0 0 Z " fill="#FAEDD7" transform="translate(45,182)"/>
<path d="M0 0 C0.66 0.66 1.32 1.32 2 2 C1.01 2.33 0.02 2.66 -1 3 C-1 3.99 -1 4.98 -1 6 C-2.65 6 -4.3 6 -6 6 C-4.755 2.264 -3.366 1.812 0 0 Z " fill="#E2CAAB" transform="translate(102,169)"/>
<path d="M0 0 C4.29 0 8.58 0 13 0 C13 0.33 13 0.66 13 1 C11.397 1.337 9.792 1.669 8.188 2 C7.294 2.186 6.401 2.371 5.48 2.562 C3 3 3 3 0 3 C0 2.01 0 1.02 0 0 Z " fill="#D6413B" transform="translate(51,167)"/>
<path d="M0 0 C1.32 0.33 2.64 0.66 4 1 C1.03 2.98 -1.94 4.96 -5 7 C-5.66 6.67 -6.32 6.34 -7 6 C-6.031 5.381 -5.061 4.762 -4.062 4.125 C-1 2 -1 2 0 0 Z " fill="#DB3F4B" transform="translate(101,165)"/>
<path d="M0 0 C1 3 1 3 0.004 5.262 C-0.472 6.062 -0.947 6.863 -1.438 7.688 C-1.911 8.496 -2.384 9.304 -2.871 10.137 C-3.057 10.444 -3.057 10.444 -4 12 C-4.99 11.67 -5.98 11.34 -7 11 C-6.578 10.374 -6.157 9.747 -5.723 9.102 C-5.449 8.693 -5.449 8.693 -4.062 6.625 C-3.517 5.813 -2.972 5.001 -2.41 4.164 C-1 2 -1 2 0 0 Z " fill="#AA2923" transform="translate(121,143)"/>
<path d="M0 0 C-0.312 2.375 -0.312 2.375 -1 5 C-1.495 5.33 -1.495 5.33 -4 7 C-4.66 6.01 -5.32 5.02 -6 4 C-2.25 0 -2.25 0 0 0 Z " fill="#FC897E" transform="translate(57,90)"/>
<path d="M0 0 C0.33 0.66 0.66 1.32 1 2 C-0.188 5.562 -0.188 5.562 -2 9 C-4.188 9.938 -4.188 9.938 -6 10 C-4.63 6.005 -2.743 3.2 0 0 Z " fill="#ACC018" transform="translate(34,83)"/>
<path d="M0 0 C0 0.33 0 0.66 0 1 C-1.65 1 -3.3 1 -5 1 C-5 1.66 -5 2.32 -5 3 C-6.65 2.67 -8.3 2.34 -10 2 C-10 1.34 -10 0.68 -10 0 C-6.305 -0.95 -3.695 -0.95 0 0 Z " fill="#DE9B30" transform="translate(67,71)"/>
<path d="M0 0 C2 2 2 2 2 6 C1.34 6 0.68 6 0 6 C-0.33 7.32 -0.66 8.64 -1 10 C-1.66 10 -2.32 10 -3 10 C-2.01 6.7 -1.02 3.4 0 0 Z " fill="#ABB436" transform="translate(116,58)"/>
<path d="M0 0 C2.762 2.762 2.579 5.207 3 9 C2.01 9.33 1.02 9.66 0 10 C0 6.7 0 3.4 0 0 Z " fill="#AD8C0A" transform="translate(98,55)"/>
<path d="M0 0 C0.33 0.66 0.66 1.32 1 2 C1.99 2.33 2.98 2.66 4 3 C3.34 3.66 2.68 4.32 2 5 C1.602 6.988 1.262 8.989 1 11 C0.34 10.67 -0.32 10.34 -1 10 C-0.67 6.7 -0.34 3.4 0 0 Z " fill="#CE3D39" transform="translate(32,132)"/>
<path d="M0 0 C0.99 1.32 1.98 2.64 3 4 C1.509 7.795 -0.757 9.61 -4 12 C-2.796 9.506 -1.546 7.319 0 5 C0.125 2.312 0.125 2.312 0 0 Z " fill="#C8252D" transform="translate(102,73)"/>
<path d="M0 0 C0 3.528 -0.643 4.468 -3 7 C-3.99 7 -4.98 7 -6 7 C-4.607 3.633 -3.021 2.014 0 0 Z " fill="#B5B00C" transform="translate(117,69)"/>
<path d="M0 0 C0.33 0 0.66 0 1 0 C1.25 2.312 1.25 2.312 1 5 C-1.044 6.976 -2.118 8 -5 8 C-3.63 5.049 -2.068 2.517 0 0 Z " fill="#CCCB25" transform="translate(63,61)"/>
<path d="M0 0 C0.66 0 1.32 0 2 0 C1.568 4.752 0.672 6.92 -3 10 C-2.692 8.52 -2.378 7.041 -2.062 5.562 C-1.975 5.151 -1.975 5.151 -1.535 3.066 C-1 1 -1 1 0 0 Z " fill="#9BB312" transform="translate(74,46)"/>
<path d="M0 0 C1.32 0.33 2.64 0.66 4 1 C2.35 2.65 0.7 4.3 -1 6 C-1.99 5.67 -2.98 5.34 -4 5 C-2.68 3.35 -1.36 1.7 0 0 Z " fill="#978215" transform="translate(90,174)"/>
<path d="M0 0 C1.32 0.33 2.64 0.66 4 1 C2.35 2.98 0.7 4.96 -1 7 C-1.99 6.67 -2.98 6.34 -4 6 C-3.34 6 -2.68 6 -2 6 C-1.34 4.02 -0.68 2.04 0 0 Z " fill="#D04C33" transform="translate(87,172)"/>
<path d="M0 0 C2.31 0 4.62 0 7 0 C6.67 0.99 6.34 1.98 6 3 C3.69 2.67 1.38 2.34 -1 2 C-0.67 1.34 -0.34 0.68 0 0 Z " fill="#E42E39" transform="translate(77,138)"/>
<path d="M0 0 C2 2 2 2 2.375 4.438 C2 7 2 7 -2 10 C-1.34 6.7 -0.68 3.4 0 0 Z " fill="#BACB1A" transform="translate(45,111)"/>
<path d="M0 0 C2.062 0.438 2.062 0.438 4 1 C3.25 6.75 3.25 6.75 1 9 C1.33 6.69 1.66 4.38 2 2 C1.01 1.67 0.02 1.34 -1 1 C-0.67 0.67 -0.34 0.34 0 0 Z " fill="#91A33A" transform="translate(74,44)"/>
<path d="M0 0 C1.32 0 2.64 0 4 0 C4 0.66 4 1.32 4 2 C5.32 2.66 6.64 3.32 8 4 C7.67 4.165 7.67 4.165 6 5 C3.969 4.066 1.965 3.068 0 2 C0 1.34 0 0.68 0 0 Z " fill="#D64645" transform="translate(28,157)"/>
<path d="M0 0 C1.5 1.375 1.5 1.375 3 3 C3 3.66 3 4.32 3 5 C1.35 4.67 -0.3 4.34 -2 4 C-2.33 3.01 -2.66 2.02 -3 1 C-2.01 0.67 -1.02 0.34 0 0 Z " fill="#C59416" transform="translate(50,132)"/>
<path d="M0 0 C0.289 0.186 0.289 0.186 1.75 1.125 C-1.385 2.983 -3.625 3.326 -7.25 3.125 C-5.616 -0.143 -3.475 -1.351 0 0 Z " fill="#B5CD0E" transform="translate(65.25,158.875)"/>
<path d="M0 0 C0.99 0 1.98 0 3 0 C2.387 2.962 1.746 4.381 0 7 C-0.66 6.67 -1.32 6.34 -2 6 C-1.34 4.02 -0.68 2.04 0 0 Z " fill="#E65C47" transform="translate(30,150)"/>
<path d="M0 0 C0.33 0 0.66 0 1 0 C1.393 4.449 0.153 7.142 -2 11 C-2.33 11 -2.66 11 -3 11 C-2.532 6.944 -2.12 3.534 0 0 Z " fill="#B9BF1F" transform="translate(40,113)"/>
<path d="M0 0 C0.33 1.32 0.66 2.64 1 4 C-0.32 4.99 -1.64 5.98 -3 7 C-3.188 4.625 -3.188 4.625 -3 2 C-2.01 1.34 -1.02 0.68 0 0 Z " fill="#ED5949" transform="translate(82,66)"/>
<path d="M0 0 C0.784 0.041 1.567 0.083 2.375 0.125 C2 2.062 2 2.062 1.375 4.125 C1.045 4.29 1.045 4.29 -0.625 5.125 C-0.955 4.465 -1.285 3.805 -1.625 3.125 C-2.615 2.795 -3.605 2.465 -4.625 2.125 C-2.625 0.125 -2.625 0.125 0 0 Z " fill="#F46252" transform="translate(83.625,63.875)"/>
<path d="M0 0 C0.66 0.66 1.32 1.32 2 2 C1.647 5.442 0.954 7.069 -1 10 C-2.312 6.063 -1.243 3.875 0 0 Z " fill="#988F29" transform="translate(87,48)"/>
<path d="M0 0 C0.33 1.32 0.66 2.64 1 4 C-1.31 4.33 -3.62 4.66 -6 5 C-2.25 1.125 -2.25 1.125 0 0 Z " fill="#E85248" transform="translate(122,115)"/>
</svg>
