<?xml version="1.0" encoding="UTF-8"?>
<!-- Generator: visioncortex VTracer 0.6.12 -->
<svg version="1.1" xmlns="http://www.w3.org/2000/svg" width="157" height="152">
<path d="M0 0 C51.81 0 103.62 0 157 0 C157 50.16 157 100.32 157 152 C105.19 152 53.38 152 0 152 C0 101.84 0 51.68 0 0 Z " fill="#FDF7EA" transform="translate(0,0)"/>
<path d="M0 0 C0.528 0.004 0.528 0.004 3.198 0.023 C16.334 0.3 26.918 3.522 36.598 12.73 C42.428 18.845 46.721 24.698 47.562 33.25 C48.188 36.438 48.188 36.438 50.812 38.375 C51.926 39.056 53.04 39.736 54.188 40.438 C61.811 47.441 66.793 56.972 67.426 67.344 C67.744 80.493 66.27 91.3 57.188 101.438 C56.686 102.042 56.185 102.647 55.668 103.27 C48.091 111.731 37.29 115.76 26.199 116.688 C12.386 117.217 0.136 112.646 -10.121 103.344 C-11.812 101.438 -11.812 101.438 -11.812 99.438 C-12.396 99.453 -12.98 99.469 -13.582 99.485 C-16.283 99.548 -18.985 99.587 -21.688 99.625 C-22.605 99.65 -23.523 99.675 -24.469 99.701 C-36.671 99.83 -46.869 95.858 -55.887 87.52 C-64.227 78.456 -68.429 68.218 -68.059 55.844 C-66.439 40.009 -58.29 27.208 -46.251 17.131 C-32.689 6.509 -17.264 -0.174 0 0 Z " fill="#C38228" transform="translate(72.8125,30.5625)"/>
<path d="M0 0 C5.604 4.313 11.807 10 12.828 17.328 C13.001 29.081 8.797 37.881 1.492 46.918 C0.919 47.63 0.345 48.341 -0.246 49.074 C-9.07 58.899 -22.61 63.884 -35.5 65.23 C-44.245 65.594 -52.373 63.675 -59.695 58.793 C-61.508 56.918 -61.508 56.918 -62.508 54.918 C-63.498 54.588 -64.488 54.258 -65.508 53.918 C-70.508 46.775 -70.405 39.412 -69.508 30.918 C-67.81 24.357 -63.839 19.027 -59.508 13.918 C-59.018 13.333 -58.528 12.748 -58.023 12.145 C-44.189 -2.991 -18.653 -11.123 0 0 Z " fill="#FBD436" transform="translate(122.5078125,69.08203125)"/>
<path d="M0 0 C6.942 2.887 12.38 10.012 15.5 16.688 C16.662 19.597 17.061 21.618 17.375 24.812 C18 28 18 28 20.625 29.938 C21.739 30.618 22.853 31.299 24 32 C31.623 39.003 36.606 48.534 37.238 58.906 C37.557 72.055 36.082 82.862 27 93 C26.499 93.605 25.997 94.209 25.48 94.832 C17.904 103.293 7.102 107.322 -3.988 108.25 C-17.801 108.779 -30.051 104.209 -40.309 94.906 C-42 93 -42 93 -42 91 C-42.584 91.016 -43.168 91.031 -43.769 91.048 C-46.471 91.111 -49.173 91.149 -51.875 91.188 C-52.793 91.213 -53.711 91.238 -54.656 91.264 C-66.88 91.393 -77.083 87.405 -86.109 79.047 C-90.048 74.772 -92.81 70.383 -95 65 C-94.67 64.01 -94.34 63.02 -94 62 C-93.67 63.32 -93.34 64.64 -93 66 C-92.01 66 -91.02 66 -90 66 C-90.13 65.42 -90.26 64.84 -90.395 64.242 C-91.486 58.06 -91.486 58.06 -90.129 55.102 C-88.191 52.627 -86.36 51.141 -83.438 50 C-79.351 50 -77.681 51.357 -74.75 54.125 C-72.501 57.819 -72.221 60.836 -73 65 C-74.026 67.86 -75.116 69.505 -77 72 C-79.75 72.938 -79.75 72.938 -82 73 C-81.938 75.187 -81.938 75.187 -81 78 C-79.286 79.483 -77.511 80.68 -75.594 81.887 C-74 83 -74 83 -73 85 C-68.808 86.503 -66.244 87.132 -62 86 C-59.25 86.938 -59.25 86.938 -57 88 C-57 88.66 -57 89.32 -57 90 C-49.25 89.25 -49.25 89.25 -47 87 C-47.375 84.875 -47.375 84.875 -48 83 C-47.34 82.67 -46.68 82.34 -46 82 C-46 82.66 -46 83.32 -46 84 C-45.443 84.062 -44.886 84.124 -44.312 84.188 C-42 85 -42 85 -40 87.312 C-34.795 92.789 -26.254 94.228 -19 94.438 C-5.623 93.882 8.069 89.06 17.938 79.812 C26.253 70.736 31.685 60.219 31.445 47.781 C30.456 41.602 26.479 37.479 22.188 33.188 C15.075 28.306 8.8 26.307 0.188 26.5 C-0.688 26.513 -1.564 26.526 -2.467 26.539 C-17.489 27.006 -29.67 33.742 -39.988 44.523 C-45.837 51.723 -48.972 58.99 -49.562 68.188 C-49.646 69.46 -49.73 70.732 -49.816 72.043 C-49.847 72.531 -49.847 72.531 -50 75 C-50.66 75 -51.32 75 -52 75 C-52 68 -52 61 -52 54 C-51.402 53.794 -50.804 53.588 -50.188 53.375 C-47.19 51.491 -46.386 49.189 -45 46 C-44.34 46 -43.68 46 -43 46 C-43.33 45.01 -43.66 44.02 -44 43 C-42.356 41.305 -40.694 39.645 -39 38 C-38.361 37.376 -37.721 36.752 -37.062 36.109 C-36.382 35.475 -35.701 34.841 -35 34.188 C-34.361 33.583 -33.721 32.978 -33.062 32.355 C-30.535 30.694 -28.967 30.737 -26 31 C-26 30.34 -26 29.68 -26 29 C-24.732 28.494 -23.46 27.995 -22.188 27.5 C-21.48 27.222 -20.772 26.943 -20.043 26.656 C-18 26 -18 26 -15 26 C-14.67 25.34 -14.34 24.68 -14 24 C-5.213 22.531 3.514 22.229 12 25 C12.165 24.505 12.165 24.505 13 22 C13.165 22.495 13.165 22.495 14 25 C13.591 15.591 8.06 8.477 1.32 2.277 C0.885 1.856 0.449 1.434 0 1 C0 0.67 0 0.34 0 0 Z " fill="#A06116" transform="translate(103,39)"/>
<path d="M0 0 C-0.33 0.99 -0.66 1.98 -1 3 C-0.01 3.33 0.98 3.66 2 4 C0.125 9.75 0.125 9.75 -1 12 C-1.66 12 -2.32 12 -3 12 C-3 11.34 -3 10.68 -3 10 C-3.66 10 -4.32 10 -5 10 C-5 10.66 -5 11.32 -5 12 C-6.32 11.67 -7.64 11.34 -9 11 C-9 13.97 -9 16.94 -9 20 C-9.66 19.67 -10.32 19.34 -11 19 C-11 18.34 -11 17.68 -11 17 C-11.99 17 -12.98 17 -14 17 C-13.67 18.32 -13.34 19.64 -13 21 C-16 22 -16 22 -19 21 C-19 21.99 -19 22.98 -19 24 C-19.99 24.33 -20.98 24.66 -22 25 C-22.562 26.875 -22.562 26.875 -23 29 C-23.66 29.99 -24.32 30.98 -25 32 C-24.01 31.835 -24.01 31.835 -19 31 C-19 30.34 -19 29.68 -19 29 C-15.695 24.545 -11.251 23.096 -6 22 C-2.647 21.781 0.647 21.811 4 22 C4.351 25.773 4.368 27.485 2.125 30.625 C1.424 31.409 0.722 32.192 0 33 C-0.33 33.743 -0.66 34.485 -1 35.25 C-2 37 -2 37 -4 37.625 C-4.66 37.749 -5.32 37.873 -6 38 C-6.66 38.66 -7.32 39.32 -8 40 C-8 39.34 -8 38.68 -8 38 C-9.114 37.691 -10.227 37.381 -11.375 37.062 C-15 36 -15 36 -17 35 C-17 34.34 -17 33.68 -17 33 C-19.64 33 -22.28 33 -25 33 C-25 33.99 -25 34.98 -25 36 C-24.01 35.835 -24.01 35.835 -19 35 C-19.66 35.825 -19.66 35.825 -23 40 C-22.505 40.165 -22.505 40.165 -20 41 C-20 43 -20 45 -20 47 C-21.65 47 -23.3 47 -25 47 C-25 46.01 -25 45.02 -25 44 C-25.99 44 -26.98 44 -28 44 C-27.979 43.278 -27.959 42.556 -27.938 41.812 C-27.998 39.081 -28.393 36.657 -29 34 C-29.495 34.165 -29.495 34.165 -32 35 C-33.561 35.067 -35.125 35.085 -36.688 35.062 C-37.092 35.058 -37.092 35.058 -39.137 35.035 C-39.752 35.024 -40.366 35.012 -41 35 C-42.211 31.368 -41.628 29.935 -40.562 26.312 C-40.275 25.319 -39.988 24.325 -39.691 23.301 C-39.463 22.542 -39.235 21.782 -39 21 C-38.34 21 -37.68 21 -37 21 C-36.772 20.103 -36.544 19.206 -36.309 18.281 C-33.07 10.161 -23.078 4.954 -15.574 1.09 C-10.361 -1.117 -5.517 -1.552 0 0 Z " fill="#FBD63C" transform="translate(99,69)"/>
<path d="M0 0 C2.64 0 5.28 0 8 0 C8 50.16 8 100.32 8 152 C-43.81 152 -95.62 152 -149 152 C-149 151.34 -149 150.68 -149 150 C-148.229 149.997 -147.458 149.993 -146.663 149.99 C-127.919 149.909 -109.175 149.817 -90.431 149.712 C-81.367 149.662 -72.302 149.616 -63.238 149.578 C-55.34 149.545 -47.441 149.505 -39.543 149.457 C-35.359 149.432 -31.175 149.41 -26.991 149.397 C-23.056 149.384 -19.121 149.362 -15.186 149.333 C-13.739 149.324 -12.292 149.318 -10.845 149.316 C-8.875 149.312 -6.905 149.296 -4.935 149.278 C-3.831 149.273 -2.726 149.267 -1.589 149.262 C1 149 1 149 3 147 C3.254 144.532 3.254 144.532 3.261 141.358 C3.268 140.157 3.275 138.957 3.282 137.721 C3.28 136.384 3.277 135.047 3.275 133.709 C3.279 132.307 3.284 130.904 3.29 129.502 C3.304 125.685 3.304 121.869 3.302 118.053 C3.301 114.87 3.305 111.686 3.31 108.503 C3.321 100.993 3.322 93.483 3.316 85.973 C3.31 78.221 3.322 70.47 3.343 62.718 C3.361 56.068 3.367 49.417 3.364 42.767 C3.362 38.793 3.364 34.819 3.378 30.845 C3.391 27.107 3.389 23.369 3.376 19.631 C3.372 17.604 3.384 15.577 3.395 13.55 C3.388 12.345 3.381 11.139 3.374 9.896 C3.374 8.848 3.375 7.8 3.375 6.72 C2.952 3.648 2.057 2.273 0 0 Z " fill="#FDFDFC" transform="translate(149,0)"/>
<path d="M0 0 C0.66 0 1.32 0 2 0 C2 1.32 2 2.64 2 4 C3.65 3.67 5.3 3.34 7 3 C7.33 3.66 7.66 4.32 8 5 C8.99 5 9.98 5 11 5 C11.33 5.66 11.66 6.32 12 7 C12.66 6.67 13.32 6.34 14 6 C15 8 15 8 16 11 C16.99 11 17.98 11 19 11 C19.625 13.375 19.625 13.375 20 16 C19.34 16.66 18.68 17.32 18 18 C17.438 19.937 17.438 19.937 17 22 C16.835 22.495 16.835 22.495 16 25 C14.68 25 13.36 25 12 25 C12 25.66 12 26.32 12 27 C11.01 27 10.02 27 9 27 C9 28.32 9 29.64 9 31 C8.34 31 7.68 31 7 31 C7 32.98 7 34.96 7 37 C5.35 36.34 3.7 35.68 2 35 C2 36.32 2 37.64 2 39 C0.68 39 -0.64 39 -2 39 C-2 38.34 -2 37.68 -2 37 C-2.969 37.186 -3.939 37.371 -4.938 37.562 C-5.948 37.707 -6.959 37.851 -8 38 C-8.33 37.67 -8.66 37.34 -9 37 C-9.33 37.165 -9.33 37.165 -11 38 C-13 37.875 -13 37.875 -15 37 C-16.25 34.438 -16.25 34.438 -17 32 C-16.67 31.67 -16.34 31.34 -16 31 C-16.66 30.67 -17.32 30.34 -18 30 C-17.67 29.01 -17.34 28.02 -17 27 C-17 26.67 -17 26.34 -17 26 C-17.99 26 -18.98 26 -20 26 C-20 25.01 -20 24.02 -20 23 C-17.36 23 -14.72 23 -12 23 C-12 23.66 -12 24.32 -12 25 C-8.7 25.99 -5.4 26.98 -2 28 C-1.34 27.34 -0.68 26.68 0 26 C0.99 26 1.98 26 3 26 C3.99 24.02 4.98 22.04 6 20 C6.66 20 7.32 20 8 20 C8.33 17.36 8.66 14.72 9 12 C6.957 12.285 4.916 12.578 2.875 12.875 C1.738 13.037 0.601 13.2 -0.57 13.367 C-3.901 13.982 -6.874 14.695 -10 16 C-10.66 17.031 -11.32 18.062 -12 19.125 C-12.66 20.074 -13.32 21.023 -14 22 C-17.25 22.375 -17.25 22.375 -20 22 C-19.691 21.237 -19.381 20.474 -19.062 19.688 C-18.321 17.812 -17.638 15.913 -17 14 C-16.01 14 -15.02 14 -14 14 C-14 13.01 -14 12.02 -14 11 C-12.02 11 -10.04 11 -8 11 C-8.33 9.68 -8.66 8.36 -9 7 C-8.01 7 -7.02 7 -6 7 C-5.67 7.33 -5.34 7.66 -5 8 C-4.67 5.69 -4.34 3.38 -4 1 C-2.68 1.33 -1.36 1.66 0 2 C0 1.34 0 0.68 0 0 Z " fill="#DCA615" transform="translate(94,79)"/>
<path d="M0 0 C0.88 0.422 1.761 0.843 2.668 1.277 C3.829 1.825 4.991 2.373 6.188 2.938 C7.336 3.483 8.485 4.028 9.668 4.59 C14.152 6.488 18.096 7.112 22.941 7.141 C23.855 7.16 24.768 7.179 25.709 7.199 C27.615 7.233 29.521 7.251 31.428 7.254 C38.437 7.442 38.437 7.442 41.344 10.324 C41.617 10.766 41.617 10.766 43 13 C53.788 21.663 66.278 25.359 80 24 C91.751 22.227 100.341 16.906 109 9 C109 12 109 12 106.594 14.48 C105.57 15.391 104.538 16.293 103.5 17.188 C102.975 17.651 102.451 18.114 101.91 18.592 C100.613 19.735 99.308 20.869 98 22 C98.33 22.33 98.33 22.33 100 24 C99.505 24.165 99.505 24.165 97 25 C96.522 25.508 96.044 26.016 95.552 26.539 C92.807 29.124 88.966 28.404 85.387 28.363 C84.963 28.364 84.963 28.364 82.82 28.365 C81.027 28.362 79.234 28.353 77.441 28.336 C74.708 28.313 71.977 28.316 69.244 28.322 C67.5 28.317 65.756 28.31 64.012 28.301 C63.199 28.302 62.386 28.303 61.549 28.304 C56.982 28.247 53.301 27.732 49 26 C49 25.34 49 24.68 49 24 C46.03 23.01 43.06 22.02 40 21 C40 19.68 40 18.36 40 17 C38.76 17.04 37.52 17.08 36.242 17.121 C30.41 17.12 24.845 16.119 19.125 15.062 C18.094 14.88 17.062 14.698 16 14.51 C5.623 12.647 5.623 12.647 3.375 10.312 C1.738 7.559 1.488 5.14 1 2 C0.34 1.67 -0.32 1.34 -1 1 C-0.67 0.67 -0.34 0.34 0 0 Z " fill="#F1E0C2" transform="translate(22,122)"/>
<path d="M0 0 C1.238 3.576 0.749 6.337 0 10 C3.96 10 7.92 10 12 10 C12 11.32 12 12.64 12 14 C12.66 14.33 13.32 14.66 14 15 C13.67 16.65 13.34 18.3 13 20 C13.99 20 14.98 20 16 20 C16 20.99 16 21.98 16 23 C19.3 23 22.6 23 26 23 C26.33 22.01 26.66 21.02 27 20 C27.33 21.32 27.66 22.64 28 24 C28.99 23.34 29.98 22.68 31 22 C33.688 21.875 33.688 21.875 36 22 C35.67 22.165 35.67 22.165 34 23 C34 23.66 34 24.32 34 25 C33.01 25 32.02 25 31 25 C30.822 29.548 31.002 32.879 33 37 C25.208 39.597 18.525 37.503 11.016 34.973 C8 34 8 34 5.242 33.555 C3 33 3 33 0.875 30.062 C-1.411 25.603 -2.718 20.826 -4 16 C-3.67 15.67 -3.34 15.34 -3 15 C-2.627 12.861 -2.301 10.713 -2 8.562 C-1.108 2.217 -1.108 2.217 0 0 Z " fill="#FAD331" transform="translate(58,93)"/>
<path d="M0 0 C6.942 2.887 12.38 10.012 15.5 16.688 C16.662 19.597 17.061 21.618 17.375 24.812 C18 28 18 28 20.625 29.938 C21.739 30.618 22.853 31.299 24 32 C31.623 39.003 36.606 48.534 37.238 58.906 C37.516 70.478 36.796 81.743 29 91 C28.383 91.299 27.765 91.598 27.129 91.906 C24.586 93.212 22.966 94.866 20.938 96.875 C14.969 102.301 8.143 105.352 0 105 C2.201 103.839 4.365 102.864 6.699 101.992 C16.715 98.248 24.237 93.014 29.078 83.266 C32.315 75.31 32.871 66.445 34 58 C33.34 58 32.68 58 32 58 C31.67 58.99 31.34 59.98 31 61 C31.07 59.949 31.139 58.899 31.211 57.816 C31.571 50.067 31.837 44.057 26.699 37.758 C20.696 31.548 13.991 26.998 5.168 26.469 C3.508 26.452 1.847 26.463 0.188 26.5 C-0.688 26.513 -1.564 26.526 -2.467 26.539 C-17.489 27.006 -29.67 33.742 -39.988 44.523 C-45.837 51.723 -48.972 58.99 -49.562 68.188 C-49.604 68.824 -49.604 68.824 -49.816 72.043 C-49.877 73.019 -49.938 73.995 -50 75 C-50.66 75 -51.32 75 -52 75 C-52 68 -52 61 -52 54 C-51.402 53.794 -50.804 53.588 -50.188 53.375 C-47.19 51.491 -46.386 49.189 -45 46 C-44.34 46 -43.68 46 -43 46 C-43.165 45.505 -43.165 45.505 -44 43 C-42.356 41.305 -40.694 39.645 -39 38 C-38.361 37.376 -37.721 36.752 -37.062 36.109 C-36.382 35.475 -35.701 34.841 -35 34.188 C-34.68 33.885 -34.68 33.885 -33.062 32.355 C-30.535 30.694 -28.967 30.737 -26 31 C-26 30.34 -26 29.68 -26 29 C-24.732 28.494 -23.46 27.995 -22.188 27.5 C-21.48 27.222 -20.772 26.943 -20.043 26.656 C-18 26 -18 26 -15 26 C-14.67 25.34 -14.34 24.68 -14 24 C-5.213 22.531 3.514 22.229 12 25 C12.165 24.505 12.165 24.505 13 22 C13.165 22.495 13.165 22.495 14 25 C13.591 15.591 8.06 8.477 1.32 2.277 C0.885 1.856 0.449 1.434 0 1 C0 0.67 0 0.34 0 0 Z " fill="#AB6D16" transform="translate(103,39)"/>
<path d="M0 0 C2.75 2.5 2.75 2.5 5 5 C5.33 5.33 5.66 5.66 6 6 C6.548 12.352 5.874 15.869 2 21 C-0.75 21.938 -0.75 21.938 -3 22 C-2.938 24.188 -2.938 24.188 -2 27 C-0.286 28.483 1.489 29.68 3.406 30.887 C5 32 5 32 6 34 C10.192 35.503 12.756 36.132 17 35 C19.75 35.938 19.75 35.938 22 37 C22 37.66 22 38.32 22 39 C29.75 38.25 29.75 38.25 32 36 C31.625 33.875 31.625 33.875 31 32 C31.66 31.67 32.32 31.34 33 31 C34.524 33.983 35.939 36.818 37 40 C33.709 40.089 30.417 40.141 27.125 40.188 C26.666 40.2 26.666 40.2 24.344 40.264 C12.12 40.393 1.917 36.405 -7.109 28.047 C-11.048 23.772 -13.81 19.383 -16 14 C-15.67 13.01 -15.34 12.02 -15 11 C-14.67 12.32 -14.34 13.64 -14 15 C-13.01 15 -12.02 15 -11 15 C-11.13 14.42 -11.26 13.84 -11.395 13.242 C-12.501 6.974 -12.501 6.974 -11.023 4.102 C-7.449 -0.184 -5.364 -1.747 0 0 Z " fill="#955C1C" transform="translate(24,90)"/>
<path d="M0 0 C0 2.64 0 5.28 0 8 C-0.66 7.67 -1.32 7.34 -2 7 C-2 6.34 -2 5.68 -2 5 C-2.99 5 -3.98 5 -5 5 C-4.67 6.32 -4.34 7.64 -4 9 C-7 10 -7 10 -10 9 C-10 9.99 -10 10.98 -10 12 C-10.99 12.33 -11.98 12.66 -13 13 C-13.562 14.875 -13.562 14.875 -14 17 C-14.66 17.99 -15.32 18.98 -16 20 C-14.02 19.67 -12.04 19.34 -10 19 C-10 18.34 -10 17.68 -10 17 C-6.695 12.545 -2.251 11.096 3 10 C6.353 9.781 9.647 9.811 13 10 C13.351 13.773 13.368 15.485 11.125 18.625 C10.774 19.017 10.774 19.017 9 21 C8.67 21.743 8.34 22.485 8 23.25 C7 25 7 25 5 25.625 C4.34 25.749 3.68 25.873 3 26 C2.34 26.66 1.68 27.32 1 28 C1 27.34 1 26.68 1 26 C-0.114 25.691 -1.227 25.381 -2.375 25.062 C-6 24 -6 24 -8 23 C-8 22.34 -8 21.68 -8 21 C-10.64 21 -13.28 21 -16 21 C-16 21.99 -16 22.98 -16 24 C-14.02 23.67 -12.04 23.34 -10 23 C-11.32 24.65 -12.64 26.3 -14 28 C-13.01 28.33 -12.02 28.66 -11 29 C-11 31 -11 33 -11 35 C-12.65 35 -14.3 35 -16 35 C-16 34.01 -16 33.02 -16 32 C-16.99 32 -17.98 32 -19 32 C-18.979 31.278 -18.959 30.556 -18.938 29.812 C-19 27 -19 27 -19.5 24.812 C-20.25 20.592 -20.446 16.269 -20 12 C-18 10 -18 10 -15.375 9.875 C-14.591 9.916 -13.808 9.957 -13 10 C-13 9.01 -13 8.02 -13 7 C-12.34 7 -11.68 7 -11 7 C-11 6.34 -11 5.68 -11 5 C-9.68 5 -8.36 5 -7 5 C-7 4.01 -7 3.02 -7 2 C-4 0 -4 0 0 0 Z " fill="#EFC229" transform="translate(90,81)"/>
<path d="M0 0 C0.125 2.875 0.125 2.875 0 6 C-0.66 6.66 -1.32 7.32 -2 8 C-2.99 8 -3.98 8 -5 8 C-5.099 8.44 -5.099 8.44 -5.598 10.668 C-7.398 14.947 -9.743 16.667 -13.438 19.312 C-14.023 19.754 -14.609 20.196 -15.213 20.65 C-17.783 22.555 -19.948 23.983 -23 25 C-23.66 25.99 -24.32 26.98 -25 28 C-27.125 28.688 -27.125 28.688 -29 29 C-29.66 27.35 -30.32 25.7 -31 24 C-30.34 24 -29.68 24 -29 24 C-29.33 23.01 -29.66 22.02 -30 21 C-29.34 20.67 -28.68 20.34 -28 20 C-27.157 18.071 -26.535 16.105 -25.879 14.105 C-24.017 9.646 -21.644 7.53 -17.375 5.375 C-13.102 3.204 -13.102 3.204 -12 1 C-11.278 1.206 -10.556 1.413 -9.812 1.625 C-5.953 2.14 -3.679 0 0 0 Z " fill="#E8B466" transform="translate(58,47)"/>
<path d="M0 0 C5.094 6.244 5.714 9.979 5 18 C3.141 26.088 -0.827 32.601 -6 39 C-6.287 39.356 -6.287 39.356 -7.738 41.156 C-16.562 50.981 -30.102 55.966 -42.992 57.312 C-51.059 57.648 -60.185 56.484 -66.344 50.859 C-66.89 50.246 -67.437 49.632 -68 49 C-63.042 49 -59.231 50.506 -54.582 52.125 C-43.537 54.823 -29.546 52.402 -19.535 47.199 C-14.195 43.427 -10.103 39.05 -6 34 C-5.34 34 -4.68 34 -4 34 C-3.938 33.711 -3.938 33.711 -3.625 32.25 C-3 30 -3 30 -2 28.188 C1.006 21.613 0.544 13.047 0 6 C-1.012 3.605 -1.012 3.605 -2 2 C-1.34 1.34 -0.68 0.68 0 0 Z " fill="#F2C41F" transform="translate(130,77)"/>
<path d="M0 0 C0.33 0.495 0.33 0.495 2 3 C-1 4 -1 4 -4.188 2.562 C-5.116 2.047 -6.044 1.531 -7 1 C-7 0.34 -7 -0.32 -7 -1 C-23.881 -3.521 -36.5 -4.353 -51 6 C-51.394 6.275 -51.394 6.275 -53.387 7.664 C-57.979 11.021 -61.028 13.611 -63 19 C-63.66 19 -64.32 19 -65 19 C-67.014 24.357 -68.359 29.337 -68.789 35.055 C-69 37 -69 37 -70 40 C-69.223 42.918 -69.223 42.918 -68.062 46.188 C-67.682 47.274 -67.302 48.361 -66.91 49.48 C-66.61 50.312 -66.309 51.143 -66 52 C-66.66 52 -67.32 52 -68 52 C-72.805 44.643 -72.911 37.627 -72 29 C-70.303 22.439 -66.331 17.109 -62 12 C-61.51 11.415 -61.02 10.83 -60.516 10.227 C-46.103 -5.542 -18.4 -13.953 0 0 Z " fill="#E8B41C" transform="translate(125,71)"/>
<path d="M0 0 C6.517 0.894 10.467 4.834 14.484 9.855 C15.816 11.849 16.928 13.855 18 16 C18.393 16.766 18.786 17.531 19.191 18.32 C23.709 28.615 23.59 41.108 20.25 51.75 C16.254 61.908 16.254 61.908 12.129 63.906 C9.586 65.212 7.966 66.866 5.938 68.875 C-0.031 74.301 -6.857 77.352 -15 77 C-12.799 75.839 -10.635 74.864 -8.301 73.992 C1.715 70.248 9.237 65.014 14.078 55.266 C17.315 47.31 17.871 38.445 19 30 C18.34 30 17.68 30 17 30 C16.67 30.99 16.34 31.98 16 33 C16.07 31.949 16.139 30.899 16.211 29.816 C16.571 22.064 16.823 16.082 11.719 9.762 C9.262 7.244 6.836 5.096 4 3 C3.216 2.402 2.433 1.804 1.625 1.188 C1.089 0.796 0.552 0.404 0 0 Z " fill="#A56922" transform="translate(118,67)"/>
<path d="M0 0 C5.75 0.875 5.75 0.875 8 2 C8 2.66 8 3.32 8 4 C9.65 4 11.3 4 13 4 C12.67 4.99 12.34 5.98 12 7 C12.99 7 13.98 7 15 7 C15.842 10.157 16 12.726 16 16 C15.34 16.33 14.68 16.66 14 17 C13.219 18.961 13.219 18.961 12.5 21.375 C11.586 24.426 10.804 26.295 9 29 C7.68 29 6.36 29 5 29 C5 29.99 5 30.98 5 32 C4.01 32 3.02 32 2 32 C2 32.66 2 33.32 2 34 C1.34 34 0.68 34 0 34 C-0.66 34.66 -1.32 35.32 -2 36 C-2.33 33.69 -2.66 31.38 -3 29 C-2.01 29.33 -1.02 29.66 0 30 C-0.33 28.35 -0.66 26.7 -1 25 C0.32 25.33 1.64 25.66 3 26 C3 25.34 3 24.68 3 24 C4.32 24 5.64 24 7 24 C7.072 23.701 7.072 23.701 7.438 22.188 C7.887 20.438 8.429 18.713 9 17 C8.01 16.67 7.02 16.34 6 16 C6.639 15.876 7.279 15.752 7.938 15.625 C8.618 15.419 9.299 15.213 10 15 C10.33 14.34 10.66 13.68 11 13 C9.68 12.67 8.36 12.34 7 12 C7.99 12 8.98 12 10 12 C10 11.34 10 10.68 10 10 C9.01 10 8.02 10 7 10 C6.67 9.34 6.34 8.68 6 8 C4 7 4 7 1 6 C1.33 5.34 1.66 4.68 2 4 C1.34 3.67 0.68 3.34 0 3 C0 2.01 0 1.02 0 0 Z " fill="#F2C522" transform="translate(103,80)"/>
<path d="M0 0 C0.901 0.009 1.802 0.018 2.73 0.027 C3.418 0.039 4.105 0.051 4.812 0.062 C5.265 3.155 5.296 5.285 3.617 7.984 C0.906 11.282 -0.841 13.391 -5.188 14.062 C-8.812 14.25 -8.812 14.25 -12.188 14.062 C-12.847 13.403 -13.507 12.743 -14.188 12.062 C-14.108 7.791 -13.878 5.753 -10.812 2.688 C-7.045 0.355 -4.343 -0.056 0 0 Z " fill="#FDEEB1" transform="translate(98.1875,90.9375)"/>
<path d="M0 0 C0.99 0 1.98 0 3 0 C3.33 0.66 3.66 1.32 4 2 C4.99 2 5.98 2 7 2 C7.33 2.66 7.66 3.32 8 4 C8.66 3.67 9.32 3.34 10 3 C11 5 11 5 12 8 C12.99 8 13.98 8 15 8 C15.625 10.375 15.625 10.375 16 13 C15.34 13.66 14.68 14.32 14 15 C13.438 16.938 13.438 16.938 13 19 C12.67 19.99 12.34 20.98 12 22 C10.68 22 9.36 22 8 22 C8 22.66 8 23.32 8 24 C7.01 24 6.02 24 5 24 C5 25.32 5 26.64 5 28 C4.34 28 3.68 28 3 28 C0.875 23.375 0.875 23.375 2 20 C2.66 20 3.32 20 4 20 C4.124 19.361 4.248 18.721 4.375 18.062 C4.581 17.382 4.787 16.701 5 16 C5.66 15.67 6.32 15.34 7 15 C6.34 12.69 5.68 10.38 5 8 C4.01 7.835 4.01 7.835 -1 7 C-0.67 4.69 -0.34 2.38 0 0 Z " fill="#A5791C" transform="translate(98,82)"/>
<path d="M0 0 C0.66 0.66 1.32 1.32 2 2 C0.02 3.815 0.02 3.815 -10 13 C-9.34 13.66 -8.68 14.32 -8 15 C-19.575 22.235 -41.033 18.41 -53.75 16.145 C-57.548 14.807 -59.392 13.018 -62 10 C-61.67 9.01 -61.34 8.02 -61 7 C-60.613 7.205 -60.613 7.205 -58.656 8.242 C-45.354 15.124 -33.652 17.206 -18.855 13.043 C-11.264 10.27 -5.384 5.951 0 0 Z " fill="#DCC299" transform="translate(130,131)"/>
<path d="M0 0 C3.06 0.34 3.943 0.934 6 3.312 C11.205 8.789 19.746 10.228 27 10.438 C32.31 10.256 37.206 9.191 42.309 7.754 C44.86 7.039 47.397 6.487 50 6 C49.67 6.99 49.34 7.98 49 9 C46.961 9.914 46.961 9.914 44.375 10.625 C43.474 10.875 42.573 11.125 41.645 11.383 C39 12 39 12 35.062 12.5 C31.803 13.032 31.032 13.54 29 16 C28.34 16 27.68 16 27 16 C27 15.34 27 14.68 27 14 C25.907 14.021 24.814 14.041 23.688 14.062 C20 14 20 14 17 13 C17 13.66 17 14.32 17 15 C17.99 15 18.98 15 20 15 C19.67 15.99 19.34 16.98 19 18 C17.393 17.068 15.789 16.129 14.188 15.188 C13.294 14.665 12.401 14.143 11.48 13.605 C9.316 12.205 7.634 10.982 6 9 C6 8.34 6 7.68 6 7 C5.34 7 4.68 7 4 7 C3.34 5.845 3.34 5.845 0 0 Z " fill="#B07014" transform="translate(57,123)"/>
<path d="M0 0 C3.364 1.313 5.169 3.34 7.562 6 C7.892 6.33 8.223 6.66 8.562 7 C8.922 12.391 8.936 15.547 5.562 20 C4.562 21 4.562 21 1.312 21.312 C-2.962 20.956 -4.413 19.933 -7.438 17 C-7.107 16.01 -6.777 15.02 -6.438 14 C-6.066 14.495 -5.695 14.99 -5.312 15.5 C-2.691 17.598 -0.699 17.217 2.562 17 C2.981 15.422 3.371 13.838 3.75 12.25 C3.97 11.368 4.191 10.487 4.418 9.578 C4.562 7 4.562 7 3.273 4.699 C1.562 3 1.562 3 -1 2.562 C-1.804 2.707 -2.609 2.851 -3.438 3 C-3.767 3.495 -3.767 3.495 -5.438 6 C-3.457 6 -1.477 6 0.562 6 C2.041 8.957 1.623 11.742 1.562 15 C-3.188 14.25 -3.188 14.25 -5.438 12 C-5.438 11.01 -5.438 10.02 -5.438 9 C-4.777 8.67 -4.117 8.34 -3.438 8 C-4.758 7.67 -6.078 7.34 -7.438 7 C-7.068 4.324 -6.589 3.157 -4.688 1.188 C-2.438 0 -2.438 0 0 0 Z " fill="#864D0D" transform="translate(21.4375,89)"/>
<path d="M0 0 C0.55 0.205 1.101 0.41 1.668 0.621 C9.354 3.111 16.72 3.408 24.737 3.357 C31.44 3.461 31.44 3.461 34.52 6.426 C34.764 6.851 34.764 6.851 36 9 C36.982 10.017 37.975 11.026 39 12 C37 13 37 13 34.324 12.125 C33.227 11.754 32.13 11.382 31 11 C27.389 10.427 23.775 9.996 20.145 9.562 C17 9 17 9 14 7 C12.367 6.607 10.718 6.279 9.062 6 C5.679 5.428 3.006 4.674 0 3 C0 2.01 0 1.02 0 0 Z " fill="#D9BF95" transform="translate(29,126)"/>
<path d="M0 0 C1.32 0 2.64 0 4 0 C4.312 2.75 4.312 2.75 4 6 C1.755 8.307 0.148 9.791 -3.062 10.375 C-5 11 -5 11 -6.875 14.062 C-7.226 14.547 -7.226 14.547 -9 17 C-12.25 17.375 -12.25 17.375 -15 17 C-14.691 16.237 -14.381 15.474 -14.062 14.688 C-13.321 12.812 -12.638 10.913 -12 9 C-11.01 9 -10.02 9 -9 9 C-9 8.01 -9 7.02 -9 6 C-7.02 6 -5.04 6 -3 6 C-3.33 4.68 -3.66 3.36 -4 2 C-3.01 2 -2.02 2 -1 2 C-0.67 2.33 -0.34 2.66 0 3 C0 2.01 0 1.02 0 0 Z " fill="#AD8020" transform="translate(89,84)"/>
<path d="M0 0 C6.95 2.89 12.375 10.039 15.562 16.688 C17.107 20.614 17.356 23.816 17 28 C16.081 27.847 15.162 27.693 14.215 27.535 C9.021 26.793 3.8 26.645 -1.438 26.438 C-1.946 26.416 -1.946 26.416 -4.521 26.307 C-7.014 26.201 -9.507 26.099 -12 26 C-5.467 22.558 1.824 21.978 8.938 24 C9.948 24.33 10.959 24.66 12 25 C12.33 24.01 12.66 23.02 13 22 C13.33 22.99 13.66 23.98 14 25 C13.591 15.591 8.06 8.477 1.32 2.277 C1.102 2.067 1.102 2.067 0 1 C0 0.67 0 0.34 0 0 Z " fill="#A3652A" transform="translate(103,39)"/>
<path d="M0 0 C5.086 6.234 5.732 9.987 5 18 C3.254 25.02 0.127 31.096 -4 37 C-5 34 -5 34 -4.258 32.203 C-3.884 31.559 -3.51 30.914 -3.125 30.25 C0.767 22.828 0.635 14.239 0 6 C-1.012 3.605 -1.012 3.605 -2 2 C-1.34 1.34 -0.68 0.68 0 0 Z " fill="#E1AC1A" transform="translate(130,77)"/>
<path d="M0 0 C0 2.64 0 5.28 0 8 C-0.66 7.67 -1.32 7.34 -2 7 C-2 6.34 -2 5.68 -2 5 C-2.99 5 -3.98 5 -5 5 C-4.67 6.32 -4.34 7.64 -4 9 C-7 10 -7 10 -10 9 C-10 9.99 -10 10.98 -10 12 C-10.99 12.33 -11.98 12.66 -13 13 C-13.688 15.062 -13.688 15.062 -14 17 C-15.65 16.67 -17.3 16.34 -19 16 C-19.625 14.125 -19.625 14.125 -20 12 C-18 10 -18 10 -15.375 9.875 C-14.591 9.916 -13.808 9.957 -13 10 C-13 9.01 -13 8.02 -13 7 C-12.34 7 -11.68 7 -11 7 C-11 6.34 -11 5.68 -11 5 C-9.68 5 -8.36 5 -7 5 C-7 4.01 -7 3.02 -7 2 C-4 0 -4 0 0 0 Z " fill="#F1C525" transform="translate(90,81)"/>
<path d="M0 0 C7.178 0.034 12.767 2.474 18.688 6.438 C19.017 6.933 19.017 6.933 20.688 9.438 C17.688 10.438 17.688 10.438 14.5 9 C13.572 8.484 12.644 7.969 11.688 7.438 C11.688 6.778 11.688 6.118 11.688 5.438 C10.639 5.316 9.591 5.195 8.512 5.07 C7.133 4.901 5.754 4.732 4.375 4.562 C4.03 4.523 4.03 4.523 2.283 4.324 C-1.269 3.878 -3.282 3.458 -6.312 1.438 C-4.577 -0.298 -2.37 0.101 0 0 Z " fill="#F1C123" transform="translate(106.3125,64.5625)"/>
<path d="M0 0 C0.33 0.33 0.66 0.66 1 1 C3.328 1.368 5.662 1.702 8 2 C5 4 5 4 3 4 C3.062 6.188 3.062 6.188 4 9 C6.172 10.932 8.526 12.482 11 14 C10.67 14.66 10.34 15.32 10 16 C3.343 11.962 -3.434 7.698 -6 0 C-3.497 -1.251 -2.597 -0.838 0 0 Z " fill="#AC6B1C" transform="translate(18,108)"/>
<path d="M0 0 C0.99 0 1.98 0 3 0 C3.33 0.66 3.66 1.32 4 2 C4.99 2 5.98 2 7 2 C7.33 2.66 7.66 3.32 8 4 C8.66 3.67 9.32 3.34 10 3 C11 5 11 5 12 8 C12.99 8 13.98 8 15 8 C15 8.66 15 9.32 15 10 C12.36 10.33 9.72 10.66 7 11 C6.67 9.68 6.34 8.36 6 7 C5.216 7.186 4.433 7.371 3.625 7.562 C1 8 1 8 -1 7 C-0.67 4.69 -0.34 2.38 0 0 Z " fill="#835A16" transform="translate(98,82)"/>
<path d="M0 0 C1.155 0.66 1.155 0.66 7 4 C7 4.99 7 5.98 7 7 C12.236 8.929 17.531 9.984 23 11 C23 11.33 23 11.66 23 12 C20.061 11.913 17.125 11.806 14.188 11.688 C13.354 11.665 12.521 11.642 11.662 11.619 C11.261 11.601 11.261 11.601 9.23 11.512 C8.861 11.499 8.861 11.499 6.993 11.432 C4.465 10.884 3.558 10.039 2 8 C1.641 6.004 1.305 4.005 1 2 C0.34 1.67 -0.32 1.34 -1 1 C-0.67 0.67 -0.34 0.34 0 0 Z " fill="#E5CFAA" transform="translate(22,122)"/>
<path d="M0 0 C0 3.684 -1.121 5.319 -2.938 8.5 C-6.041 13.958 -7.159 17.897 -7.562 24.188 C-7.646 25.46 -7.73 26.732 -7.816 28.043 C-7.877 29.019 -7.938 29.995 -8 31 C-8.66 31 -9.32 31 -10 31 C-10 24 -10 17 -10 10 C-9.402 9.794 -8.804 9.588 -8.188 9.375 C-5.199 7.496 -4.504 5.138 -3 2 C-2.01 1.34 -1.02 0.68 0 0 Z " fill="#9A6011" transform="translate(61,83)"/>
<path d="M0 0 C0.66 0 1.32 0 2 0 C2 7.26 2 14.52 2 22 C3.32 21.01 4.64 20.02 6 19 C6.33 21.64 6.66 24.28 7 27 C6.01 27 5.02 27 4 27 C-0.64 22.36 -1.04 16.823 -1.125 10.5 C-1.089 6.914 -0.722 3.521 0 0 Z " fill="#B27A32" transform="translate(6,78)"/>
<path d="M0 0 C0 0.66 0 1.32 0 2 C0.99 1.67 1.98 1.34 3 1 C3.66 1.99 4.32 2.98 5 4 C5.99 4.33 6.98 4.66 8 5 C8.33 6.65 8.66 8.3 9 10 C8.01 10 7.02 10 6 10 C5.67 9.01 5.34 8.02 5 7 C-1.277 5.646 -1.277 5.646 -4.938 7.438 C-5.618 7.953 -6.299 8.469 -7 9 C-4.4 0 -4.4 0 0 0 Z " fill="#B4721C" transform="translate(21,84)"/>
<path d="M0 0 C0.144 0.32 0.144 0.32 0.875 1.938 C2 4 2 4 4 5 C4 4.34 4 3.68 4 3 C6.64 3.66 9.28 4.32 12 5 C8.981 8.483 6.431 9.792 2 11 C1.67 10.34 1.34 9.68 1 9 C0.01 9.33 -0.98 9.66 -2 10 C-1.67 8.68 -1.34 7.36 -1 6 C-1.66 5.67 -2.32 5.34 -3 5 C-2.01 3.35 -1.02 1.7 0 0 Z " fill="#A8661A" transform="translate(29,104)"/>
<path d="M0 0 C3.897 -0.075 7.242 0.055 11 1 C13.764 1.083 16.502 1.116 19.266 1.098 C20.059 1.096 20.852 1.095 21.67 1.093 C24.197 1.088 26.723 1.075 29.25 1.062 C30.966 1.057 32.682 1.053 34.398 1.049 C38.599 1.038 42.799 1.021 47 1 C44.387 3.613 42.539 3.248 38.981 3.278 C38.157 3.274 37.333 3.27 36.484 3.266 C36.06 3.267 36.06 3.267 33.913 3.271 C32.114 3.273 30.315 3.269 28.516 3.261 C25.775 3.25 23.034 3.261 20.293 3.273 C18.544 3.272 16.796 3.27 15.047 3.266 C14.231 3.27 13.415 3.274 12.575 3.278 C7.992 3.241 4.315 2.743 0 1 C0 0.67 0 0.34 0 0 Z " fill="#F5E7CE" transform="translate(71,147)"/>
<path d="M0 0 C0.99 0 1.98 0 3 0 C2.918 3.668 2.806 7.333 2.688 11 C2.665 12.03 2.642 13.06 2.619 14.121 C2.399 20.398 1.574 25.259 -1 31 C-1.66 30.67 -2.32 30.34 -3 30 C-2.691 28.804 -2.381 27.608 -2.062 26.375 C-0.135 17.737 0.067 8.821 0 0 Z " fill="#B0732A" transform="translate(136,90)"/>
<path d="M0 0 C2 3 2 3 2 5 C2.66 5 3.32 5 4 5 C4 5.99 4 6.98 4 8 C5.32 7.67 6.64 7.34 8 7 C7.907 7.299 7.907 7.299 7.438 8.812 C7 11 7 11 8 14 C6.35 14 4.7 14 3 14 C3 13.01 3 12.02 3 11 C2.01 11 1.02 11 0 11 C0.021 10.278 0.041 9.556 0.062 8.812 C0 6 0 6 -0.562 3.25 C-0.707 2.507 -0.851 1.765 -1 1 C-0.67 0.67 -0.34 0.34 0 0 Z " fill="#F1C01A" transform="translate(71,102)"/>
<path d="M0 0 C0.125 2.875 0.125 2.875 0 6 C-0.66 6.66 -1.32 7.32 -2 8 C-4.062 7.75 -4.062 7.75 -6 7 C-6.33 6.34 -6.66 5.68 -7 5 C-9.31 5 -11.62 5 -14 5 C-13.34 3.68 -12.68 2.36 -12 1 C-11.278 1.206 -10.556 1.413 -9.812 1.625 C-5.953 2.14 -3.679 0 0 0 Z " fill="#DFA146" transform="translate(58,47)"/>
<path d="M0 0 C2.25 -0.312 2.25 -0.312 5 0 C7.375 2.062 7.375 2.062 9 5 C8.75 8.812 8.75 8.812 8 12 C7.34 12 6.68 12 6 12 C5.34 9.36 4.68 6.72 4 4 C2.02 4 0.04 4 -2 4 C-1.34 2.68 -0.68 1.36 0 0 Z " fill="#B4731F" transform="translate(18,91)"/>
<path d="M0 0 C0.33 0 0.66 0 1 0 C1 1.65 1 3.3 1 5 C3.31 5.33 5.62 5.66 8 6 C7.34 6.66 6.68 7.32 6 8 C5.381 8.681 4.763 9.361 4.125 10.062 C1.975 12.023 0.827 12.596 -2 13 C-2.66 11.35 -3.32 9.7 -4 8 C-3.34 8 -2.68 8 -2 8 C-2.33 7.01 -2.66 6.02 -3 5 C-2.34 4.67 -1.68 4.34 -1 4 C-0.375 1.938 -0.375 1.938 0 0 Z " fill="#DD9E44" transform="translate(31,63)"/>
<path d="M0 0 C2 3 2 3 2 5 C-2.29 4.835 -2.29 4.835 -24 4 C-16.023 0.011 -8.312 0.286 0 3 C0 2.01 0 1.02 0 0 Z " fill="#AB6D14" transform="translate(115,61)"/>
<path d="M0 0 C1.65 0 3.3 0 5 0 C4.67 0.66 4.34 1.32 4 2 C3.34 2 2.68 2 2 2 C4.462 6.8 4.462 6.8 7.188 7.812 C7.786 7.874 8.384 7.936 9 8 C9 6.35 9 4.7 9 3 C9.124 3.639 9.248 4.279 9.375 4.938 C9.581 5.618 9.788 6.299 10 7 C10.66 7.33 11.32 7.66 12 8 C11.67 8.495 11.67 8.495 10 11 C6.957 11.388 4.91 11.502 2.188 10 C0.299 6.819 0.3 3.665 0 0 Z " fill="#9C6116" transform="translate(14,96)"/>
<path d="M0 0 C1.32 0 2.64 0 4 0 C4.312 2.75 4.312 2.75 4 6 C1.75 8.438 1.75 8.438 -1 10 C-3.312 9.75 -3.312 9.75 -5 9 C-4.34 9 -3.68 9 -3 9 C-3.33 6.69 -3.66 4.38 -4 2 C-3.01 2 -2.02 2 -1 2 C-0.67 2.33 -0.34 2.66 0 3 C0 2.01 0 1.02 0 0 Z " fill="#A07927" transform="translate(89,84)"/>
<path d="M0 0 C0.66 0 1.32 0 2 0 C2 1.32 2 2.64 2 4 C2.66 4 3.32 4 4 4 C3.67 5.98 3.34 7.96 3 10 C3.66 10.33 4.32 10.66 5 11 C3.02 11 1.04 11 -1 11 C-1 9.02 -1 7.04 -1 5 C-1.99 5 -2.98 5 -4 5 C-4 3.68 -4 2.36 -4 1 C-2.68 1.33 -1.36 1.66 0 2 C0 1.34 0 0.68 0 0 Z " fill="#CEA020" transform="translate(94,79)"/>
<path d="M0 0 C2.64 0 5.28 0 8 0 C8.688 3.312 8.688 3.312 9 7 C7.688 8.938 7.688 8.938 6 10 C5.34 10 4.68 10 4 10 C4 9.34 4 8.68 4 8 C3.34 7.67 2.68 7.34 2 7 C2.33 6.01 2.66 5.02 3 4 C3 3.67 3 3.34 3 3 C2.01 3 1.02 3 0 3 C0 2.01 0 1.02 0 0 Z " fill="#7C5A19" transform="translate(74,102)"/>
<path d="M0 0 C2.31 0.33 4.62 0.66 7 1 C7.33 1.99 7.66 2.98 8 4 C6.68 4 5.36 4 4 4 C4 4.66 4 5.32 4 6 C3.01 6 2.02 6 1 6 C1 7.32 1 8.64 1 10 C0.34 10 -0.32 10 -1 10 C-3.125 5.375 -3.125 5.375 -2 2 C-1.34 2 -0.68 2 0 2 C0 1.34 0 0.68 0 0 Z " fill="#8E6619" transform="translate(102,100)"/>
<path d="M0 0 C0.99 0.66 1.98 1.32 3 2 C3.99 2 4.98 2 6 2 C6 2.99 6 3.98 6 5 C3.69 5.66 1.38 6.32 -1 7 C-1 7.99 -1 8.98 -1 10 C-2.32 9.67 -3.64 9.34 -5 9 C-5 7.35 -5 5.7 -5 4 C-3.68 4 -2.36 4 -1 4 C-0.67 2.68 -0.34 1.36 0 0 Z " fill="#FBDB4C" transform="translate(84,76)"/>
<path d="M0 0 C0.99 0.33 1.98 0.66 3 1 C2.67 1.495 2.67 1.495 1 4 C0.812 6.625 0.812 6.625 1 9 C2 10 2 10 5.25 10.125 C8.336 10.022 11.014 9.724 14 9 C13.67 9.99 13.34 10.98 13 12 C11.063 12.562 11.063 12.562 9 13 C8.34 13.66 7.68 14.32 7 15 C7 14.34 7 13.68 7 13 C5.907 12.732 4.814 12.464 3.688 12.188 C0 11 0 11 -3 8 C-2.01 5.36 -1.02 2.72 0 0 Z " fill="#F4D05C" transform="translate(84,94)"/>
<path d="M0 0 C0.33 0.66 0.66 1.32 1 2 C0.67 2.66 0.34 3.32 0 4 C0.99 4.33 1.98 4.66 3 5 C2.67 5.66 2.34 6.32 2 7 C1.01 7.33 0.02 7.66 -1 8 C-2.688 10.562 -2.688 10.562 -4 13 C-6.156 9.767 -6 8.688 -6 5 C-4.041 3.286 -2.041 1.616 0 0 Z " fill="#D99A3E" transform="translate(49,61)"/>
<path d="M0 0 C5.94 0 11.88 0 18 0 C17.67 0.99 17.34 1.98 17 3 C12.71 3 8.42 3 4 3 C4 2.34 4 1.68 4 1 C2.68 0.67 1.36 0.34 0 0 Z " fill="#C19F6D" transform="translate(43,130)"/>
<path d="M0 0 C0.66 0.33 1.32 0.66 2 1 C-7.045 9.192 -7.045 9.192 -11 11 C-11.99 10.67 -12.98 10.34 -14 10 C-11.288 6.183 -9.405 4.504 -5 3 C-4.113 2.443 -3.226 1.886 -2.312 1.312 C-1.549 0.879 -0.786 0.446 0 0 Z " fill="#F9D02D" transform="translate(118,116)"/>
<path d="M0 0 C0 0.33 0 0.66 0 1 C-0.987 1.133 -1.975 1.266 -2.992 1.402 C-4.274 1.579 -5.555 1.756 -6.875 1.938 C-7.513 2.025 -7.513 2.025 -10.742 2.465 C-14 3 -14 3 -16 4 C-16.99 3.34 -17.98 2.68 -19 2 C-19 1.34 -19 0.68 -19 0 C-12.869 -2.044 -6.234 -1.039 0 0 Z " fill="#CB903D" transform="translate(76,32)"/>
<path d="M0 0 C-2.052 2.248 -3.007 3.002 -6 4 C-8.061 4.069 -10.125 4.085 -12.188 4.062 C-12.731 4.058 -12.731 4.058 -15.48 4.035 C-16.312 4.024 -17.143 4.012 -18 4 C-17.67 3.34 -17.34 2.68 -17 2 C-11.219 0.142 -6.044 -0.252 0 0 Z " fill="#F3E3C6" transform="translate(136,144)"/>
<path d="M0 0 C0.99 0 1.98 0 3 0 C5 3 5 3 5 7 C4.01 6.67 3.02 6.34 2 6 C1.67 6.495 1.67 6.495 0 9 C-0.66 9 -1.32 9 -2 9 C-2.125 5.625 -2.125 5.625 -2 2 C-1.34 1.34 -0.68 0.68 0 0 Z " fill="#8E6818" transform="translate(94,105)"/>
<path d="M0 0 C0.66 0.99 1.32 1.98 2 3 C0.926 4.466 -0.159 5.922 -1.25 7.375 C-1.853 8.187 -2.457 8.999 -3.078 9.836 C-4.972 11.968 -6.383 12.946 -9 14 C-9 10.061 -7.713 9.265 -5.062 6.438 C-1.08 2.16 -1.08 2.16 0 0 Z " fill="#AB6C16" transform="translate(128,109)"/>
<path d="M0 0 C0.33 0.66 0.66 1.32 1 2 C2.32 1.34 3.64 0.68 5 0 C5.25 5.625 5.25 5.625 3 9 C2.34 9 1.68 9 1 9 C0.67 8.01 0.34 7.02 0 6 C-0.99 6 -1.98 6 -3 6 C-1.125 1.125 -1.125 1.125 0 0 Z " fill="#815B14" transform="translate(85,108)"/>
<path d="M0 0 C0.33 1.32 0.66 2.64 1 4 C1.99 3.34 2.98 2.68 4 2 C6.688 1.875 6.688 1.875 9 2 C8.67 2.165 8.67 2.165 7 3 C7 3.66 7 4.32 7 5 C5.845 5.495 5.845 5.495 0 8 C0 7.01 0 6.02 0 5 C-1.65 5.66 -3.3 6.32 -5 7 C-5 5.68 -5 4.36 -5 3 C-4.361 2.876 -3.721 2.752 -3.062 2.625 C-2.722 2.522 -2.722 2.522 -1 2 C-0.67 1.34 -0.34 0.68 0 0 Z " fill="#F5C61E" transform="translate(85,113)"/>
<path d="M0 0 C0 0.66 0 1.32 0 2 C-0.608 1.867 -1.217 1.734 -1.844 1.598 C-10.205 -0.087 -18.502 -0.595 -27 -1 C-27 -1.33 -27 -1.66 -27 -2 C-17.381 -3.002 -9.254 -3.47 0 0 Z " fill="#ECDEC6" transform="translate(96,32)"/>
<path d="M0 0 C0.66 0.99 1.32 1.98 2 3 C2.536 3.681 3.073 4.361 3.625 5.062 C5 7 5 7 5 9 C-0.94 9 -6.88 9 -13 9 C-13 8.67 -13 8.34 -13 8 C-12.615 7.976 -12.615 7.976 -10.664 7.852 C-9.661 7.777 -8.658 7.702 -7.625 7.625 C-6.627 7.555 -5.63 7.486 -4.602 7.414 C-2 7 -2 7 0 5 C-0.438 2.938 -0.438 2.938 -1 1 C-0.67 0.67 -0.34 0.34 0 0 Z " fill="#7F4A0E" transform="translate(56,121)"/>
<path d="M0 0 C1.65 0.33 3.3 0.66 5 1 C4.67 1.99 4.34 2.98 4 4 C3.67 3.67 3.34 3.34 3 3 C2.01 4.65 1.02 6.3 0 8 C0.99 8.33 1.98 8.66 3 9 C2.34 9.66 1.68 10.32 1 11 C-1 10.938 -1 10.938 -3 10 C-4.25 7.438 -4.25 7.438 -5 5 C-3.68 4.67 -2.36 4.34 -1 4 C-0.67 2.68 -0.34 1.36 0 0 Z " fill="#E2B121" transform="translate(82,106)"/>
<path d="M0 0 C0.99 0.165 0.99 0.165 6 1 C5.67 1.165 5.67 1.165 4 2 C4 2.99 4 3.98 4 5 C3.01 5 2.02 5 1 5 C1 5.66 1 6.32 1 7 C0.34 7 -0.32 7 -1 7 C-1.66 7.66 -2.32 8.32 -3 9 C-3.33 6.69 -3.66 4.38 -4 2 C-2.68 2.33 -1.36 2.66 0 3 C0 2.01 0 1.02 0 0 Z " fill="#F8C926" transform="translate(104,107)"/>
<path d="M0 0 C0.66 2.97 1.32 5.94 2 9 C1.01 9 0.02 9 -1 9 C-1.33 10.32 -1.66 11.64 -2 13 C-3.32 13.33 -4.64 13.66 -6 14 C-5.34 12.68 -4.68 11.36 -4 10 C-3.34 10 -2.68 10 -2 10 C-1.67 7.36 -1.34 4.72 -1 2 C-2.98 2.165 -2.98 2.165 -13 3 C-12.67 2.34 -12.34 1.68 -12 1 C-9.531 0.586 -9.531 0.586 -6.5 0.375 C-5.5 0.3 -4.499 0.225 -3.469 0.148 C-1 0 -1 0 0 0 Z " fill="#F3CC4D" transform="translate(104,89)"/>
<path d="M0 0 C0.33 0.99 0.66 1.98 1 3 C0.01 3.33 -0.98 3.66 -2 4 C-2.688 6.062 -2.688 6.062 -3 8 C-4.65 7.67 -6.3 7.34 -8 7 C-8.625 5.125 -8.625 5.125 -9 3 C-6.318 0.318 -3.734 0 0 0 Z " fill="#F8CF29" transform="translate(79,90)"/>
<path d="M0 0 C0.66 1.32 1.32 2.64 2 4 C1.01 4 0.02 4 -1 4 C-1 4.66 -1 5.32 -1 6 C-1.66 5.67 -2.32 5.34 -3 5 C-2.01 3.35 -1.02 1.7 0 0 Z M-5 4 C-4.34 4.33 -3.68 4.66 -3 5 C-3.33 5.99 -3.66 6.98 -4 8 C-4.66 8 -5.32 8 -6 8 C-6.66 9.32 -7.32 10.64 -8 12 C-9.32 12 -10.64 12 -12 12 C-10.509 8.205 -8.243 6.39 -5 4 Z " fill="#DD9E3F" transform="translate(40,46)"/>
<path d="M0 0 C3.503 3.503 3.056 7.58 3.062 12.312 C3.047 13.875 3.027 15.438 3 17 C2.34 17.33 1.68 17.66 1 18 C0.951 17.18 0.902 16.36 0.852 15.516 C0.777 14.438 0.702 13.36 0.625 12.25 C0.555 11.183 0.486 10.115 0.414 9.016 C0.027 6.198 -0.557 4.417 -2 2 C-1.34 1.34 -0.68 0.68 0 0 Z " fill="#F7CB22" transform="translate(130,77)"/>
<path d="M0 0 C0.825 0.165 0.825 0.165 5 1 C5 1.66 5 2.32 5 3 C5.66 3 6.32 3 7 3 C7.33 4.98 7.66 6.96 8 9 C7.402 8.691 6.804 8.381 6.188 8.062 C4 7 4 7 1 6 C1.33 5.34 1.66 4.68 2 4 C1.34 3.67 0.68 3.34 0 3 C0 2.01 0 1.02 0 0 Z " fill="#D9A91E" transform="translate(103,80)"/>
<path d="M0 0 C0.66 0.66 1.32 1.32 2 2 C1.241 2.615 0.481 3.23 -0.301 3.863 C-1.295 4.672 -2.289 5.48 -3.312 6.312 C-4.299 7.113 -5.285 7.914 -6.301 8.738 C-8.316 10.427 -10.195 12.096 -12 14 C-12 11 -12 11 -9.938 8.688 C-6.687 5.714 -3.375 2.83 0 0 Z " fill="#B5741B" transform="translate(72,70)"/>
<path d="M0 0 C-6.234 4.156 -13.768 3.105 -21 3 C-21 2.67 -21 2.34 -21 2 C-20.432 1.951 -19.863 1.902 -19.277 1.852 C-15.417 1.478 -11.984 0.995 -8.25 -0.125 C-4.951 -1.013 -3.225 -0.977 0 0 Z " fill="#E8B41C" transform="translate(99,131)"/>
<path d="M0 0 C2.375 1.062 2.375 1.062 5 3 C6.188 6.625 6.188 6.625 7 10 C7.66 10.33 8.32 10.66 9 11 C4.25 10.25 4.25 10.25 2 8 C1.835 6.989 1.67 5.979 1.5 4.938 C1.335 3.968 1.17 2.999 1 2 C0.34 1.67 -0.32 1.34 -1 1 C-0.67 0.67 -0.34 0.34 0 0 Z " fill="#EFDCBC" transform="translate(22,122)"/>
<path d="M0 0 C0.33 0 0.66 0 1 0 C1.026 0.655 1.052 1.31 1.078 1.984 C1.545 9.492 3.364 15.974 6 23 C5.34 23 4.68 23 4 23 C-0.842 15.585 -0.399 8.517 0 0 Z " fill="#DAA419" transform="translate(53,100)"/>
<path d="M0 0 C2.918 -0.108 5.831 -0.187 8.75 -0.25 C9.163 -0.267 9.163 -0.267 11.25 -0.352 C17.423 -0.451 17.423 -0.451 20.578 2.016 C20.813 2.343 20.813 2.343 22 4 C20 5 20 5 17.336 4.133 C16.235 3.759 15.134 3.385 14 3 C11.55 2.575 9.09 2.201 6.625 1.875 C5.38 1.707 4.135 1.54 2.852 1.367 C1.911 1.246 0.97 1.125 0 1 C0 0.67 0 0.34 0 0 Z " fill="#E1C9A2" transform="translate(46,134)"/>
<path d="M0 0 C0.901 0.018 1.802 0.036 2.73 0.055 C3.418 0.078 4.105 0.101 4.812 0.125 C4.938 3 4.938 3 4.812 6.125 C4.153 6.785 3.493 7.445 2.812 8.125 C2.483 6.475 2.153 4.825 1.812 3.125 C-1.487 2.795 -4.787 2.465 -8.188 2.125 C-4.874 -0.084 -3.843 -0.1 0 0 Z " fill="#FBE48F" transform="translate(98.1875,90.875)"/>
<path d="M0 0 C-1.051 1.488 -1.051 1.488 -3 3 C-6.355 3.293 -6.355 3.293 -10.188 3.188 C-11.46 3.16 -12.732 3.133 -14.043 3.105 C-15.019 3.071 -15.995 3.036 -17 3 C-14.019 1.361 -11.27 0.481 -7.938 -0.188 C-7.08 -0.367 -6.223 -0.546 -5.34 -0.73 C-3 -1 -3 -1 0 0 Z " fill="#F5C925" transform="translate(105,128)"/>
<path d="M0 0 C2.31 0.33 4.62 0.66 7 1 C7.33 1.99 7.66 2.98 8 4 C3.982 4.841 0.982 5.054 -3 4 C-2.01 2.68 -1.02 1.36 0 0 Z " fill="#A56921" transform="translate(38,125)"/>
<path d="M0 0 C3.875 0.875 3.875 0.875 5 2 C7.328 2.368 9.662 2.702 12 3 C9 5 9 5 7 5 C6.67 5.66 6.34 6.32 6 7 C5.01 7 4.02 7 3 7 C3 5.68 3 4.36 3 3 C2.01 3 1.02 3 0 3 C0 2.01 0 1.02 0 0 Z " fill="#A26317" transform="translate(14,107)"/>
<path d="M0 0 C1 3 1 3 -0.434 5.918 C-1.095 6.997 -1.756 8.076 -2.438 9.188 C-3.096 10.274 -3.755 11.361 -4.434 12.48 C-4.692 12.896 -4.692 12.896 -6 15 C-7 12 -7 12 -6.004 9.52 C-5.528 8.626 -5.053 7.733 -4.562 6.812 C-4.089 5.911 -3.616 5.01 -3.129 4.082 C-2.756 3.395 -2.384 2.708 -2 2 C-1.34 2 -0.68 2 0 2 C0 1.34 0 0.68 0 0 Z " fill="#E9B51D" transform="translate(132,99)"/>
<path d="M0 0 C0.99 0.165 0.99 0.165 6 1 C5.361 1.248 4.721 1.495 4.062 1.75 C2 3 2 3 1.25 5.125 C1.168 5.744 1.085 6.362 1 7 C-0.32 7 -1.64 7 -3 7 C-2.387 4.038 -1.746 2.619 0 0 Z " fill="#FCDB46" transform="translate(116,102)"/>
<path d="M0 0 C1.32 0 2.64 0 4 0 C4 1.65 4 3.3 4 5 C4.99 5.33 5.98 5.66 7 6 C6.67 6.66 6.34 7.32 6 8 C4.68 8 3.36 8 2 8 C0.794 5.668 -0.165 3.504 -1 1 C-0.67 0.67 -0.34 0.34 0 0 Z " fill="#F8CA18" transform="translate(113,88)"/>
<path d="M0 0 C6.798 -0.316 13.31 0.873 20 2 C20 2.33 20 2.66 20 3 C17.792 3.054 15.583 3.093 13.375 3.125 C12.145 3.148 10.915 3.171 9.648 3.195 C6.057 3.003 3.333 2.303 0 1 C0 0.67 0 0.34 0 0 Z " fill="#F9EED9" transform="translate(71,147)"/>
<path d="M0 0 C0 0.99 0 1.98 0 3 C-2.812 5.75 -2.812 5.75 -6 8 C-6.99 7.67 -7.98 7.34 -9 7 C-7.685 3.056 -4.385 0 0 0 Z " fill="#FBDE5B" transform="translate(74,113)"/>
<path d="M0 0 C2.125 0.375 2.125 0.375 4 1 C3.312 3.375 3.312 3.375 2 6 C-0.625 7.312 -0.625 7.312 -3 8 C-2.25 2.25 -2.25 2.25 0 0 Z " fill="#B5731F" transform="translate(43,90)"/>
<path d="M0 0 C2.5 1.312 2.5 1.312 5 3 C5 3.99 5 4.98 5 6 C6.32 6.66 7.64 7.32 9 8 C3.512 7.512 3.512 7.512 1.125 5.125 C0 3 0 3 0 0 Z " fill="#E1C9A0" transform="translate(68,138)"/>
<path d="M0 0 C0.66 0 1.32 0 2 0 C3.858 3.135 4.201 5.375 4 9 C3.01 9 2.02 9 1 9 C0.67 6.03 0.34 3.06 0 0 Z " fill="#FCDA4A" transform="translate(97,116)"/>
<path d="M0 0 C2.97 0.99 5.94 1.98 9 3 C9.33 4.98 9.66 6.96 10 9 C9.34 9 8.68 9 8 9 C7.67 7.68 7.34 6.36 7 5 C6.67 5.165 6.67 5.165 5 6 C5 5.01 5 4.02 5 3 C3.35 2.67 1.7 2.34 0 2 C0 1.34 0 0.68 0 0 Z " fill="#E1AF29" transform="translate(82,104)"/>
<path d="M0 0 C0.99 0 1.98 0 3 0 C3.981 3.053 3.981 4.947 3 8 C1.68 7.67 0.36 7.34 -1 7 C-0.67 4.69 -0.34 2.38 0 0 Z " fill="#9C741D" transform="translate(98,82)"/>
<path d="M0 0 C2.31 0 4.62 0 7 0 C7.33 1.32 7.66 2.64 8 4 C7.113 3.773 6.226 3.546 5.312 3.312 C1.422 2.945 0.086 3.731 -3 6 C-2.67 4.68 -2.34 3.36 -2 2 C-1.34 2 -0.68 2 0 2 C0 1.34 0 0.68 0 0 Z " fill="#A56617" transform="translate(17,87)"/>
<path d="M0 0 C0.99 0 1.98 0 3 0 C3.33 0.66 3.66 1.32 4 2 C4.66 1.67 5.32 1.34 6 1 C5.312 2.938 5.312 2.938 4 5 C1.375 5.75 1.375 5.75 -1 6 C-1 2 -1 2 0 0 Z " fill="#8C6318" transform="translate(102,84)"/>
<path d="M0 0 C0.98 -0.014 1.959 -0.028 2.969 -0.043 C5.5 0.188 5.5 0.188 7.5 2.188 C4.365 2.353 4.365 2.353 -11.5 3.188 C-7.01 0.942 -4.952 0.033 0 0 Z " fill="#985A10" transform="translate(102.5,61.8125)"/>
<path d="M0 0 C4.62 1.32 9.24 2.64 14 4 C14 4.33 14 4.66 14 5 C12.041 4.859 10.083 4.712 8.125 4.562 C7.034 4.481 5.944 4.4 4.82 4.316 C2 4 2 4 0 3 C0 2.01 0 1.02 0 0 Z " fill="#D5B789" transform="translate(29,126)"/>
<path d="M0 0 C0.66 0.33 1.32 0.66 2 1 C2 3 2 5 2 7 C0.35 7 -1.3 7 -3 7 C-3 6.01 -3 5.02 -3 4 C-3.66 3.67 -4.32 3.34 -5 3 C-3.68 3 -2.36 3 -1 3 C-0.67 2.01 -0.34 1.02 0 0 Z " fill="#F4C729" transform="translate(77,109)"/>
<path d="M0 0 C0.66 0 1.32 0 2 0 C3.478 2.957 3.06 5.742 3 9 C0.562 8.625 0.562 8.625 -2 8 C-2.33 7.34 -2.66 6.68 -3 6 C-2.01 5.67 -1.02 5.34 0 5 C0 4.01 0 3.02 0 2 C0 1.34 0 0.68 0 0 Z " fill="#78430C" transform="translate(20,95)"/>
<path d="M0 0 C3 1 3 1 4.188 3.062 C4.456 3.702 4.724 4.341 5 5 C4.01 5.66 3.02 6.32 2 7 C2 6.01 2 5.02 2 4 C0.35 4.33 -1.3 4.66 -3 5 C-3 4.34 -3 3.68 -3 3 C-2.34 3 -1.68 3 -1 3 C-0.67 2.01 -0.34 1.02 0 0 Z " fill="#F5C821" transform="translate(99,78)"/>
<path d="M0 0 C-0.573 3.325 -1.543 4.74 -4 7 C-4.66 7.99 -5.32 8.98 -6 10 C-5.389 3.524 -5.389 3.524 -3.562 1.062 C-2 0 -2 0 0 0 Z " fill="#FCE795" transform="translate(90,93)"/>
<path d="M0 0 C-0.33 0.66 -0.66 1.32 -1 2 C-4.63 2 -8.26 2 -12 2 C-7.898 -0.735 -4.736 -1.579 0 0 Z " fill="#CFB388" transform="translate(111,146)"/>
<path d="M0 0 C-2.967 1.648 -5.656 2.443 -9 3 C-9 2.01 -9 1.02 -9 0 C-5.522 -1.159 -3.541 -0.708 0 0 Z M-12 3 C-11.01 3.33 -10.02 3.66 -9 4 C-10.65 4.33 -12.3 4.66 -14 5 C-13.34 4.34 -12.68 3.68 -12 3 Z " fill="#D4953F" transform="translate(57,35)"/>
<path d="M0 0 C3.63 1.32 7.26 2.64 11 4 C11 4.33 11 4.66 11 5 C3.571 5.286 3.571 5.286 0 3 C0 2.01 0 1.02 0 0 Z " fill="#D6B786" transform="translate(73,141)"/>
<path d="M0 0 C2.31 0.66 4.62 1.32 7 2 C7 3.32 7 4.64 7 6 C3.625 4.814 1.353 3.724 -1 1 C-0.67 0.67 -0.34 0.34 0 0 Z " fill="#EEBD1A" transform="translate(63,125)"/>
<path d="M0 0 C0 0.99 0 1.98 0 3 C-0.309 3.062 -0.309 3.062 -1.875 3.375 C-4 4 -4 4 -6 6 C-6 5.34 -6 4.68 -6 4 C-6.99 3.835 -6.99 3.835 -12 3 C-12 2.67 -12 2.34 -12 2 C-8.04 1.34 -4.08 0.68 0 0 Z " fill="#F7CA44" transform="translate(97,103)"/>
<path d="M0 0 C0.99 0.66 1.98 1.32 3 2 C3 2.66 3 3.32 3 4 C-3.055 4.195 -3.055 4.195 -5 4 C-5.66 3.34 -6.32 2.68 -7 2 C-4.69 2 -2.38 2 0 2 C0 1.34 0 0.68 0 0 Z " fill="#D6BA8B" transform="translate(60,131)"/>
<path d="M0 0 C3.27 0.564 4.826 1.5 7 4 C6.34 4.66 5.68 5.32 5 6 C3.293 4.719 1.626 3.382 0 2 C0 1.34 0 0.68 0 0 Z " fill="#FCDF53" transform="translate(108,109)"/>
<path d="M0 0 C-1.242 0.702 -2.494 1.386 -3.75 2.062 C-4.098 2.254 -4.098 2.254 -5.859 3.223 C-8.361 4.131 -9.533 3.883 -12 3 C-10.758 2.298 -9.506 1.614 -8.25 0.938 C-7.902 0.746 -7.902 0.746 -6.141 -0.223 C-3.639 -1.131 -2.467 -0.883 0 0 Z " fill="#F9CC2D" transform="translate(90,70)"/>
<path d="M0 0 C-0.688 1.938 -0.688 1.938 -2 4 C-4.625 4.75 -4.625 4.75 -7 5 C-7 4.34 -7 3.68 -7 3 C-4.439 0.704 -3.52 0 0 0 Z " fill="#FBDD4F" transform="translate(79,118)"/>
<path d="M0 0 C0.402 0.01 0.402 0.01 2.438 0.062 C2.767 1.713 3.097 3.362 3.438 5.062 C2.118 5.062 0.797 5.062 -0.562 5.062 C-0.562 4.403 -0.562 3.743 -0.562 3.062 C-1.552 2.403 -2.543 1.743 -3.562 1.062 C-2.562 0.062 -2.562 0.062 0 0 Z " fill="#EAB516" transform="translate(92.5625,112.9375)"/>
<path d="M0 0 C1.65 0.33 3.3 0.66 5 1 C4.67 1.99 4.34 2.98 4 4 C3.67 3.67 3.34 3.34 3 3 C1.68 4.65 0.36 6.3 -1 8 C-2 5 -2 5 -1.062 2.875 C-0.712 2.256 -0.361 1.638 0 1 C0 0.67 0 0.34 0 0 Z " fill="#C29321" transform="translate(82,106)"/>
<path d="M0 0 C0.66 0 1.32 0 2 0 C2 2.31 2 4.62 2 7 C1.01 7 0.02 7 -1 7 C-0.67 4.69 -0.34 2.38 0 0 Z " fill="#FCDD52" transform="translate(89,118)"/>
<path d="M0 0 C0.33 0.66 0.66 1.32 1 2 C2.98 1.67 4.96 1.34 7 1 C6.752 1.217 6.752 1.217 5.5 2.312 C4 4 4 4 4 7 C3.34 7 2.68 7 2 7 C2 6.01 2 5.02 2 4 C1.34 4 0.68 4 0 4 C0 2.68 0 1.36 0 0 Z " fill="#C99B23" transform="translate(73,103)"/>
<path d="M0 0 C1.98 0 3.96 0 6 0 C6 0.99 6 1.98 6 3 C4.02 3 2.04 3 0 3 C0 2.01 0 1.02 0 0 Z " fill="#FDDE57" transform="translate(117,98)"/>
<path d="M0 0 C1.65 0 3.3 0 5 0 C4.67 0.66 4.34 1.32 4 2 C3.34 2 2.68 2 2 2 C2.33 3.65 2.66 5.3 3 7 C2.34 7 1.68 7 1 7 C0.67 4.69 0.34 2.38 0 0 Z " fill="#B26F1B" transform="translate(14,96)"/>
<path d="M0 0 C0.464 0.031 0.464 0.031 2.812 0.188 C2.812 0.847 2.812 1.507 2.812 2.188 C1.328 2.353 1.328 2.353 -6.188 3.188 C-3.188 0.188 -3.188 0.188 0 0 Z " fill="#FCDC4F" transform="translate(123.1875,89.8125)"/>
<path d="M0 0 C2.871 2.694 4.388 5.393 6 9 C6 9.66 6 10.32 6 11 C5.01 10.67 4.02 10.34 3 10 C2.051 7.715 2.051 7.715 1.312 4.938 C1.061 4.018 0.81 3.099 0.551 2.152 C0.369 1.442 0.187 0.732 0 0 Z " fill="#9F6128" transform="translate(132,78)"/>
<path d="M0 0 C0.99 0 1.98 0 3 0 C2.398 2.02 1.727 4.021 1 6 C0.67 6.165 0.67 6.165 -1 7 C-1.043 5 -1.041 3 -1 1 C-0.67 0.67 -0.34 0.34 0 0 Z " fill="#FCDE4F" transform="translate(98,73)"/>
<path d="M0 0 C0.66 0.66 1.32 1.32 2 2 C0.377 3.709 -1.293 5.374 -3 7 C-3.66 7 -4.32 7 -5 7 C-3.707 4.116 -2.341 2.128 0 0 Z " fill="#E3CAA2" transform="translate(130,131)"/>
<path d="M0 0 C0.99 0.33 1.98 0.66 3 1 C-0.099 4.099 -2.391 3.99 -6.75 4.062 C-7.823 4.042 -8.895 4.021 -10 4 C-10 3.67 -10 3.34 -10 3 C-9.681 2.934 -9.681 2.934 -8.066 2.598 C-7.24 2.421 -6.414 2.244 -5.562 2.062 C-4.739 1.888 -3.915 1.714 -3.066 1.535 C-1 1 -1 1 0 0 Z " fill="#FDE68E" transform="translate(96,101)"/>
<path d="M0 0 C1.98 0 3.96 0 6 0 C6 0.66 6 1.32 6 2 C3.291 3.354 0.991 3.065 -2 3 C-1.34 2.67 -0.68 2.34 0 2 C0 1.34 0 0.68 0 0 Z " fill="#FDDE56" transform="translate(63,101)"/>
<path d="M0 0 C1.98 0 3.96 0 6 0 C6 0.99 6 1.98 6 3 C4.68 3.33 3.36 3.66 2 4 C1.34 2.68 0.68 1.36 0 0 Z " fill="#8A5F1C" transform="translate(80,90)"/>
<path d="M0 0 C0.66 0 1.32 0 2 0 C0.125 5.75 0.125 5.75 -1 8 C-1.66 8 -2.32 8 -3 8 C-1.125 1.125 -1.125 1.125 0 0 Z " fill="#FBDD50" transform="translate(83,119)"/>
<path d="M0 0 C1.32 0.99 2.64 1.98 4 3 C3.67 4.32 3.34 5.64 3 7 C1.5 5.75 1.5 5.75 0 4 C0 2.68 0 1.36 0 0 Z " fill="#FBDC50" transform="translate(102,113)"/>
<path d="M0 0 C0.99 0.165 0.99 0.165 6 1 C5.67 1.66 5.34 2.32 5 3 C3.02 3 1.04 3 -1 3 C-0.67 2.01 -0.34 1.02 0 0 Z " fill="#8B6217" transform="translate(75,98)"/>
<path d="M0 0 C0 0.66 0 1.32 0 2 C-2.354 3.429 -3.48 4.087 -6.25 3.625 C-6.828 3.419 -7.405 3.213 -8 3 C-3.375 0 -3.375 0 0 0 Z " fill="#FCDE5C" transform="translate(124,82)"/>
<path d="M0 0 C2 2 2 2 2.125 5.625 C2.084 6.739 2.042 7.853 2 9 C0.68 7.35 -0.64 5.7 -2 4 C-1.34 2.68 -0.68 1.36 0 0 Z " fill="#F0BF1E" transform="translate(130,77)"/>
<path d="M0 0 C0.66 0 1.32 0 2 0 C1.458 3.796 -0.201 5.472 -3 8 C-2.372 5.071 -1.414 2.639 0 0 Z " fill="#FBDF58" transform="translate(106,72)"/>
<path d="M0 0 C1.32 0 2.64 0 4 0 C3.34 1.32 2.68 2.64 2 4 C0.68 4 -0.64 4 -2 4 C-1.34 2.68 -0.68 1.36 0 0 Z " fill="#D89839" transform="translate(30,54)"/>
</svg>
