<?xml version="1.0" encoding="UTF-8"?>
<!-- Generator: visioncortex VTracer 0.6.12 -->
<svg version="1.1" xmlns="http://www.w3.org/2000/svg" width="175" height="190">
<path d="M0 0 C57.75 0 115.5 0 175 0 C175 62.7 175 125.4 175 190 C117.25 190 59.5 190 0 190 C0 127.3 0 64.6 0 0 Z " fill="#FCF7ED" transform="translate(0,0)"/>
<path d="M0 0 C2.875 0.25 2.875 0.25 6 1 C6.699 2.316 7.367 3.65 8 5 C8.804 5.144 9.609 5.289 10.438 5.438 C13 6 13 6 14.812 7.875 C16.99 13.605 16.711 20.134 15 26 C15.66 25.299 16.32 24.597 17 23.875 C21.186 19.678 26.099 16.335 30.938 12.938 C33.36 10.662 33.728 9.263 34 6 C32.02 6 30.04 6 28 6 C27.67 7.65 27.34 9.3 27 11 C27.66 11 28.32 11 29 11 C29 11.66 29 12.32 29 13 C25.125 12.125 25.125 12.125 24 11 C23.544 5.759 23.544 5.759 25.125 3.125 C27.881 1.471 29.851 1.606 33 2 C34.875 3 34.875 3 36 5 C36.526 9.588 36.499 11.961 34.5 16.125 C32.294 18.662 30.48 20.132 27.75 22 C25.641 23.477 25.641 23.477 24 25 C23.5 28.375 23.5 28.375 24 31 C24.495 31.165 24.495 31.165 27 32 C27.103 31.381 27.206 30.763 27.312 30.125 C28 28 28 28 31 26 C33.629 25.77 33.629 25.77 36.562 25.812 C37.533 25.819 38.504 25.825 39.504 25.832 C42 26 42 26 44 27 C44 27.99 44 28.98 44 30 C44.846 30.165 45.691 30.33 46.562 30.5 C51.168 32.51 54.516 35.595 57 40 C56.852 42.648 56.852 42.648 56 45 C53.437 46.813 53.437 46.813 51 48 C51.454 48.392 51.907 48.784 52.375 49.188 C54.35 51.39 55.187 53.156 56 56 C55.487 60.513 55.487 60.513 54 62 C53.763 65.181 53.604 68.354 53.482 71.541 C53.213 76.787 53.213 76.787 51 79 C49.172 78.723 49.172 78.723 47 78 C46.221 77.751 45.443 77.502 44.641 77.246 C43.852 76.979 43.063 76.712 42.25 76.438 C41.451 76.168 40.652 75.899 39.828 75.621 C39.225 75.416 38.622 75.211 38 75 C38.017 75.29 38.017 75.29 38.105 76.758 C38.286 81.971 37.986 85.52 35 90 C31.7 93 31.7 93 29 93 C29.324 93.549 29.647 94.098 29.98 94.664 C32.244 99.849 31.63 106.035 29.938 111.312 C26.789 115.68 23.159 119.28 18 121 C13.081 121.516 8.601 121.854 4.375 119 C3.591 118.34 2.808 117.68 2 117 C2.031 117.598 2.031 117.598 2.188 120.625 C2.178 125.849 0.461 129.247 -2.875 133.25 C-6.715 136.412 -9.588 137.203 -14.5 136.812 C-18.255 136.298 -20.914 135.29 -24 133 C-24.031 133.443 -24.031 133.443 -24.188 135.688 C-25.346 140.409 -27.964 142.525 -31.812 145.312 C-35.207 146.379 -38.48 146.498 -42 146 C-44.5 144.5 -44.5 144.5 -46 143 C-48.592 144.244 -51.08 145.616 -53.562 147.062 C-58.381 149.778 -62.5 150.751 -68 150 C-72.955 147.427 -76.491 144.018 -79 139 C-79.671 131.654 -79.635 126.794 -75 121 C-75 117 -75 117 -76.5 114.938 C-78.824 110.386 -78.785 106.005 -78 101 C-76.636 98.065 -75.25 96.41 -73 94 C-72.34 94 -71.68 94 -71 94 C-71.289 93.504 -71.578 93.007 -71.875 92.496 C-74.419 87.84 -75.871 84.417 -75 79 C-72.656 73.898 -69.661 70.196 -65 67 C-65.66 66.051 -66.32 65.103 -67 64.125 C-69.607 59.474 -70.049 55.214 -69 50 C-66.31 44.104 -62.689 40.034 -57 37 C-54.203 36.068 -52.457 35.865 -49.562 35.875 C-48.801 35.872 -48.039 35.87 -47.254 35.867 C-45.047 35.997 -43.12 36.391 -41 37 C-40.773 36.258 -40.546 35.515 -40.312 34.75 C-38.734 31.442 -37.004 30.051 -34 28 C-33.01 27.67 -32.02 27.34 -31 27 C-30.567 26.175 -30.134 25.35 -29.688 24.5 C-28 22 -28 22 -24.812 21.188 C-23.884 21.126 -22.956 21.064 -22 21 C-22.639 20.154 -23.279 19.309 -23.938 18.438 C-26.202 15.065 -26.625 12.049 -27 8 C-27.227 7.237 -27.454 6.474 -27.688 5.688 C-27.739 5.409 -27.739 5.409 -28 4 C-24.822 0.822 -21.026 1.41 -16.688 1.188 C-16.26 1.156 -16.26 1.156 -14.096 0.994 C-9.163 0.723 -6.04 0.777 -2 4 C-1.34 2.68 -0.68 1.36 0 0 Z " fill="#5A2966" transform="translate(107,26)"/>
<path d="M0 0 C0.165 0.495 0.165 0.495 1 3 C3.97 3 6.94 3 10 3 C10.165 3.825 10.165 3.825 11 8 C10.469 8.254 9.938 8.508 9.391 8.77 C8.684 9.114 7.978 9.458 7.25 9.812 C6.554 10.149 5.858 10.485 5.141 10.832 C3 12 3 12 1.062 13.625 C-1.55 15.367 -3.144 15.31 -6.25 15.188 C-7.142 15.16 -8.034 15.133 -8.953 15.105 C-9.629 15.071 -10.304 15.036 -11 15 C-9.68 15.99 -8.36 16.98 -7 18 C-7.718 21.896 -9.464 25.083 -11.312 28.562 C-11.907 29.698 -12.501 30.834 -13.113 32.004 C-14.9 34.841 -16.198 36.254 -19 38 C-19.619 38.412 -20.237 38.825 -20.875 39.25 C-23.916 40.323 -25.917 39.835 -29 39 C-31.375 37.438 -31.375 37.438 -33 36 C-31.801 39.083 -30.523 42.063 -29 45 C-29.66 45 -30.32 45 -31 45 C-30.175 45.309 -29.35 45.619 -28.5 45.938 C-26 48 -26 48 -25.633 49.922 C-25.625 52.308 -25.771 54.625 -26 57 C-26.057 57.77 -26.113 58.539 -26.172 59.332 C-26.35 61.233 -26.664 63.12 -27 65 C-27.33 65.165 -27.33 65.165 -29 66 C-28.505 66.165 -28.505 66.165 -26 67 C-26.082 65.845 -26.165 64.69 -26.25 63.5 C-26.219 57.743 -24.251 53.358 -20.281 49.199 C-15.532 44.983 -11.783 43.612 -5.43 43.633 C-1.301 44.257 1.734 46.509 5 49 C4.476 55.69 3.895 62.349 3 69 C3.99 69.33 4.98 69.66 6 70 C4.628 72.954 3.011 75.44 1 78 C1.557 78.186 2.114 78.371 2.688 78.562 C6.212 80.753 8.403 83.217 10 87 C10.882 93.638 11.158 99.478 7 105 C2.477 108.646 -2.818 109.762 -8.531 109.516 C-12.943 108.594 -15.992 106.287 -19 103 C-21.19 98.711 -21.575 94.767 -21 90 C-18.977 85.713 -16.966 82.644 -13 80 C-15.64 78.68 -18.28 77.36 -21 76 C-19.68 76.99 -18.36 77.98 -17 79 C-17.974 83.883 -20.541 87.713 -23 92 C-27.62 92 -32.24 92 -37 92 C-34.69 92.33 -32.38 92.66 -30 93 C-30 93.66 -30 94.32 -30 95 C-29.381 95.227 -28.763 95.454 -28.125 95.688 C-25.225 97.478 -24.791 98.693 -24 102 C-23.835 106.54 -24.416 109.254 -27.25 112.875 C-32.22 116.715 -35.74 117.245 -42 117 C-41.67 117.99 -41.34 118.98 -41 120 C-37.935 121.533 -34.732 121.103 -31.375 121.062 C-31.022 121.06 -31.022 121.06 -29.234 121.049 C-27.49 121.037 -25.745 121.019 -24 121 C-27.861 124.354 -30.562 124.512 -35.535 124.352 C-39.177 123.832 -41.237 122.377 -44 120 C-44.949 119.34 -45.898 118.68 -46.875 118 C-50.201 113.305 -49.854 108.569 -49 103 C-47.91 100.638 -46.644 99.055 -45 97 C-45 93 -45 93 -46.5 90.938 C-48.824 86.386 -48.785 82.005 -48 77 C-46.636 74.065 -45.25 72.41 -43 70 C-42.34 70 -41.68 70 -41 70 C-41.289 69.504 -41.578 69.007 -41.875 68.496 C-44.419 63.84 -45.871 60.417 -45 55 C-42.656 49.898 -39.661 46.196 -35 43 C-35.66 42.051 -36.32 41.102 -37 40.125 C-39.607 35.474 -40.049 31.214 -39 26 C-36.31 20.104 -32.689 16.034 -27 13 C-24.203 12.068 -22.457 11.865 -19.562 11.875 C-18.801 11.872 -18.039 11.87 -17.254 11.867 C-15.047 11.997 -13.12 12.391 -11 13 C-10.773 12.258 -10.546 11.515 -10.312 10.75 C-8.734 7.442 -7.004 6.051 -4 4 C-3.01 3.67 -2.02 3.34 -1 3 C-0.67 2.01 -0.34 1.02 0 0 Z " fill="#5E2B69" transform="translate(77,50)"/>
<path d="M0 0 C2.875 0.25 2.875 0.25 6 1 C6.699 2.316 7.367 3.65 8 5 C8.804 5.144 9.609 5.289 10.438 5.438 C13 6 13 6 14.812 7.875 C16.99 13.605 16.711 20.134 15 26 C15.66 25.299 16.32 24.597 17 23.875 C21.186 19.678 26.099 16.335 30.938 12.938 C33.36 10.662 33.728 9.263 34 6 C32.02 6 30.04 6 28 6 C27.67 7.65 27.34 9.3 27 11 C27.66 11 28.32 11 29 11 C29 11.66 29 12.32 29 13 C25.125 12.125 25.125 12.125 24 11 C23.544 5.759 23.544 5.759 25.125 3.125 C27.881 1.471 29.851 1.606 33 2 C34.875 3 34.875 3 36 5 C36.526 9.588 36.499 11.961 34.5 16.125 C32.294 18.662 30.48 20.132 27.75 22 C25.641 23.477 25.641 23.477 24 25 C23.5 28.375 23.5 28.375 24 31 C24.99 31.33 25.98 31.66 27 32 C27.052 31.691 27.052 31.691 27.312 30.125 C28 28 28 28 31 26 C33.629 25.77 33.629 25.77 36.562 25.812 C37.533 25.819 38.504 25.825 39.504 25.832 C42 26 42 26 44 27 C44 27.99 44 28.98 44 30 C44.846 30.165 45.691 30.33 46.562 30.5 C51.168 32.51 54.516 35.595 57 40 C56.852 42.648 56.852 42.648 56 45 C53.438 46.812 53.438 46.812 51 48 C51.454 48.392 51.907 48.784 52.375 49.188 C54.35 51.39 55.187 53.156 56 56 C55.487 60.513 55.487 60.513 54 62 C53.763 65.181 53.604 68.354 53.482 71.541 C53.213 76.787 53.213 76.787 51 79 C44.697 78.28 38.382 73.693 34.5 68.938 C33 66 33 66 32.25 63.5 C30.804 60.608 29.688 60.067 27 58.375 C24.246 56.473 23.169 55.549 22.172 52.312 C21.894 50.377 21.641 48.438 21.414 46.496 C21 44 21 44 19.125 41.438 C14.821 38.526 12.304 37.759 7 38 C7 38.99 7 39.98 7 41 C5.845 41.165 5.845 41.165 0 42 C-0.206 41.618 -0.206 41.618 -1.25 39.688 C-3.829 35.727 -6.163 34.359 -10.5 32.5 C-14 31 -14 31 -15.859 29.449 C-18.562 27.62 -20.515 27.505 -23.75 27.312 C-24.242 27.28 -24.242 27.28 -26.734 27.113 C-27.482 27.076 -28.23 27.039 -29 27 C-28.67 25.35 -28.34 23.7 -28 22 C-26.02 21.67 -24.04 21.34 -22 21 C-22.639 20.154 -23.279 19.309 -23.938 18.438 C-26.202 15.065 -26.625 12.049 -27 8 C-27.227 7.237 -27.454 6.474 -27.688 5.688 C-27.791 5.131 -27.894 4.574 -28 4 C-24.822 0.822 -21.026 1.41 -16.688 1.188 C-16.26 1.156 -16.26 1.156 -14.096 0.994 C-9.163 0.723 -6.04 0.777 -2 4 C-1.34 2.68 -0.68 1.36 0 0 Z " fill="#688F09" transform="translate(107,26)"/>
<path d="M0 0 C2.95 1.511 5.149 3.234 7 6 C7 6.99 7 7.98 7 9 C8.155 8.835 8.155 8.835 14 8 C14 7.01 14 6.02 14 5 C17.982 3.862 19.483 3.716 23.188 5.75 C28.727 10.182 28.727 10.182 30 14 C30.128 16.674 30.044 19.321 30 22 C30.722 22.227 31.444 22.454 32.188 22.688 C36.131 24.528 39.087 26.811 40.805 30.93 C41.267 32.306 41.724 33.683 42.176 35.062 C43.483 38.135 45.497 39.836 48 42 C47.01 42 46.02 42 45 42 C45.017 42.29 45.017 42.29 45.105 43.758 C45.285 48.95 45.053 52.579 42 57 C39.312 58.875 39.312 58.875 37 60 C36.505 59.67 36.505 59.67 34 58 C34.25 56.125 34.25 56.125 35 54 C35.66 53.711 36.32 53.422 37 53.125 C37.66 52.754 38.32 52.382 39 52 C39.625 49.312 39.625 49.312 40 46 C40.6 43.643 41.301 41.33 42 39 C41.67 38.67 41.34 38.34 41 38 C40.921 38.326 40.921 38.326 40.52 39.977 C38.959 45.822 37.474 49.846 33 54 C30.188 54.875 30.188 54.875 28 55 C28.398 54.553 28.797 54.105 29.207 53.645 C34.782 47.283 37.438 43.612 37 35 C36.505 34.835 36.505 34.835 34 34 C33.752 34.866 33.505 35.733 33.25 36.625 C31.569 41.165 29.89 44.934 25.562 47.375 C22.936 48.015 20.692 48.154 18 48 C17.835 47.34 17.835 47.34 17 44 C16.01 44 15.02 44 14 44 C11.337 41.051 10.728 38.551 10.875 34.688 C11.672 29.101 15.048 25.787 19 22 C17.68 22 16.36 22 15 22 C15 21.34 15 20.68 15 20 C14.34 20 13.68 20 13 20 C11.375 17.5 11.375 17.5 10 15 C9.902 15.724 9.804 16.449 9.703 17.195 C7.985 28.307 7.985 28.307 4 32 C1.229 32.493 -1.445 32.629 -4.258 32.719 C-7.083 33.009 -8.379 33.551 -10.688 35.125 C-15.205 37.682 -17.006 37.208 -22 36 C-25.827 34.253 -27.488 32.892 -29 29 C-29.871 22.275 -30.151 15.819 -26.438 9.938 C-19.435 1.027 -11.098 -1.439 0 0 Z " fill="#562961" transform="translate(100,59)"/>
<path d="M0 0 C4.011 1.375 6.747 3.31 10 6 C9.154 6.075 8.309 6.15 7.438 6.227 C-2.192 7.343 -7.325 9.59 -13.5 17 C-16.239 22.394 -15.613 29.148 -15 35 C-13.754 38.495 -13.193 38.89 -9.812 40.812 C-5.56 42.137 -3.283 42.11 1 41 C1.743 40.484 2.485 39.969 3.25 39.438 C7.623 37.152 12.16 37.771 17 38 C17.289 37.257 17.578 36.515 17.875 35.75 C19 33 19 33 20.086 30.984 C21.143 28.689 21.403 26.761 21.625 24.25 C21.7 23.451 21.775 22.652 21.852 21.828 C21.901 21.225 21.95 20.622 22 20 C23.376 21.29 24.708 22.627 26 24 C26 24.66 26 25.32 26 26 C26.66 26 27.32 26 28 26 C28 26.66 28 27.32 28 28 C29.98 27.67 31.96 27.34 34 27 C32 29 32 29 28.562 30.812 C24.43 33.124 22.664 35.765 21.312 40.312 C21.209 40.869 21.106 41.426 21 42 C20.154 41.67 19.309 41.34 18.438 41 C13.496 39.562 9.748 39.371 4.875 41.125 C0.589 43.92 -2.349 47.048 -4 52 C-4.462 59.269 -4.462 59.269 -2.5 62.375 C-2.005 62.911 -1.51 63.447 -1 64 C-1 64.66 -1 65.32 -1 66 C-0.381 66.289 0.237 66.578 0.875 66.875 C3 68 3 68 5 70 C4.01 70.33 3.02 70.66 2 71 C1.67 71.66 1.34 72.32 1 73 C1 72.34 1 71.68 1 71 C0.67 71.165 0.67 71.165 -1 72 C-1.42 76.867 -1.564 79.067 1 83.312 C4.124 86.617 7.717 87.693 12 89 C11.67 90.65 11.34 92.3 11 94 C9.35 93.67 7.7 93.34 6 93 C5.856 94.238 5.711 95.475 5.562 96.75 C4.733 103.166 4.733 103.166 4 105 C3.01 105.33 2.02 105.66 1 106 C1.99 106.66 2.98 107.32 4 108 C-1.75 107.125 -1.75 107.125 -4 106 C-4.031 106.443 -4.031 106.443 -4.188 108.688 C-5.346 113.409 -7.964 115.525 -11.812 118.312 C-15.207 119.379 -18.48 119.498 -22 119 C-24.5 117.5 -24.5 117.5 -26 116 C-28.592 117.244 -31.08 118.616 -33.562 120.062 C-38.381 122.778 -42.5 123.751 -48 123 C-52.32 120.757 -55.366 118.109 -58 114 C-57.67 113.01 -57.34 112.02 -57 111 C-56.443 111.928 -55.886 112.856 -55.312 113.812 C-52.905 117.131 -51.782 118.52 -48 120 C-44.646 120.282 -41.352 120.323 -38 120 C-37.67 119.67 -37.34 119.34 -37 119 C-37.808 119.058 -38.616 119.116 -39.449 119.176 C-48.074 119.54 -48.074 119.54 -50.91 117.887 C-52.25 116.5 -52.25 116.5 -54 114 C-53.835 113.67 -53.835 113.67 -53 112 C-52.67 112.33 -52.34 112.66 -52 113 C-46.563 113.435 -42.742 112.736 -38 110 C-35.471 106.602 -34.762 104.019 -35.062 99.875 C-36.044 95.82 -36.891 94.607 -40 92 C-40 91.34 -40 90.68 -40 90 C-42.97 90 -45.94 90 -49 90 C-47 88 -47 88 -43.742 87.805 C-42.466 87.828 -41.19 87.851 -39.875 87.875 C-39.234 87.884 -39.234 87.884 -35.992 87.93 C-35.498 87.941 -35.498 87.941 -33 88 C-32.159 86.567 -31.327 85.128 -30.5 83.688 C-30.036 82.887 -29.572 82.086 -29.094 81.262 C-28 79 -28 79 -28 76 C-30 73.813 -30 73.813 -32 72 C-27.25 73.875 -27.25 73.875 -25 75 C-23.463 75.225 -21.92 75.408 -20.375 75.562 C-19.558 75.646 -18.74 75.73 -17.898 75.816 C-17.272 75.877 -16.645 75.938 -16 76 C-16 76.33 -16 76.66 -16 77 C-16.592 77.052 -17.183 77.103 -17.793 77.156 C-21.36 77.668 -24.073 78.096 -26.711 80.668 C-29.669 85.087 -30.782 88.626 -30 94 C-28.739 98.132 -27.572 100.456 -24.438 103.438 C-19.136 105.847 -14.211 106.046 -8.648 104.234 C-3.636 101.938 -3.636 101.938 -1.812 99.25 C-0.039 94.338 -0.282 89.111 -1 84 C-2.87 80.191 -5.149 76.926 -9 75 C-7.667 72.333 -6.333 69.667 -5 67 C-5.33 66.835 -5.33 66.835 -7 66 C-7.054 63.792 -7.093 61.583 -7.125 59.375 C-7.148 58.145 -7.171 56.915 -7.195 55.648 C-7.003 52.057 -6.303 49.333 -5 46 C-5.578 45.711 -6.155 45.422 -6.75 45.125 C-8.138 44.431 -9.514 43.71 -10.867 42.949 C-15.537 40.871 -20.532 41.492 -25.25 43.125 C-30.117 46.444 -33.187 50.421 -35 56 C-35.195 58.895 -35.195 58.895 -35.125 61.812 C-35.116 62.3 -35.116 62.3 -35.07 64.77 C-35.047 65.506 -35.024 66.242 -35 67 C-35.307 66.765 -35.307 66.765 -36.859 65.574 C-38.846 64.113 -40.77 63.035 -43 62 C-41.02 62 -39.04 62 -37 62 C-37 56.39 -37 50.78 -37 45 C-38.98 44.01 -40.96 43.02 -43 42 C-42.67 41.34 -42.34 40.68 -42 40 C-41.34 40 -40.68 40 -40 40 C-40.681 39.237 -41.361 38.474 -42.062 37.688 C-42.702 36.801 -43.341 35.914 -44 35 C-43.67 34.01 -43.34 33.02 -43 32 C-42.113 32.681 -41.226 33.361 -40.312 34.062 C-37 36 -37 36 -34.5 35.938 C-28.18 33.567 -25.29 31.733 -22.188 25.562 C-21.896 24.996 -21.896 24.996 -20.418 22.129 C-19.315 19.695 -18.493 17.606 -18 15 C-18.825 14.34 -18.825 14.34 -23 11 C-22.238 11.07 -21.476 11.139 -20.691 11.211 C-13.517 11.587 -9.477 10.847 -3.84 6.312 C-2 5 -2 5 1 5 C0.835 4.175 0.835 4.175 0 0 Z " fill="#47184F" transform="translate(87,53)"/>
<path d="M0 0 C1.125 3.75 1.125 3.75 0 6 C-0.045 7.437 -0.039 8.876 0 10.312 C0.044 13.689 -0.151 16.709 -1 20 C-0.01 20.33 0.98 20.66 2 21 C0.628 23.954 -0.989 26.44 -3 29 C-2.443 29.186 -1.886 29.371 -1.312 29.562 C2.212 31.753 4.403 34.217 6 38 C6.882 44.638 7.158 50.478 3 56 C-1.523 59.646 -6.818 60.762 -12.531 60.516 C-16.943 59.594 -19.992 57.287 -23 54 C-25.19 49.711 -25.575 45.767 -25 41 C-22.977 36.713 -20.966 33.644 -17 31 C-18.98 30.01 -20.96 29.02 -23 28 C-23 26.35 -23 24.7 -23 23 C-22.18 22.902 -21.36 22.804 -20.516 22.703 C-19.438 22.554 -18.36 22.404 -17.25 22.25 C-16.183 22.111 -15.115 21.972 -14.016 21.828 C-10.578 20.884 -9.347 19.601 -7 17 C-6.34 17 -5.68 17 -5 17 C-4.974 16.276 -4.948 15.551 -4.922 14.805 C-4.56 8.638 -3.999 4.772 0 0 Z " fill="#672E72" transform="translate(81,99)"/>
<path d="M0 0 C0.962 0.015 1.923 0.031 2.914 0.047 C5.375 0.25 5.375 0.25 7.375 1.25 C7.375 2.24 7.375 3.23 7.375 4.25 C7.798 4.332 7.798 4.332 9.938 4.75 C14.543 6.76 17.891 9.845 20.375 14.25 C20.227 16.898 20.227 16.898 19.375 19.25 C16.812 21.062 16.812 21.062 14.375 22.25 C14.829 22.642 15.282 23.034 15.75 23.438 C17.725 25.64 18.562 27.406 19.375 30.25 C18.862 34.763 18.862 34.763 17.375 36.25 C17.138 39.431 16.979 42.604 16.857 45.791 C16.588 51.037 16.588 51.037 14.375 53.25 C9.197 52.632 4.305 49.526 0.375 46.25 C-2.176 41.117 -0.198 35.431 1.375 30.25 C5.045 33.527 7.068 36.965 9.375 41.25 C8.965 40.453 8.555 39.657 8.133 38.836 C7.594 37.776 7.055 36.717 6.5 35.625 C5.966 34.581 5.433 33.537 4.883 32.461 C3.46 29.432 2.363 26.444 1.375 23.25 C2.035 23.25 2.695 23.25 3.375 23.25 C3.375 22.59 3.375 21.93 3.375 21.25 C4.365 21.25 5.355 21.25 6.375 21.25 C5.104 20.77 3.834 20.291 2.562 19.812 C1.855 19.546 1.147 19.279 0.418 19.004 C-1.252 18.388 -2.937 17.813 -4.625 17.25 C-4.295 15.93 -3.965 14.61 -3.625 13.25 C-4.615 12.714 -5.605 12.178 -6.625 11.625 C-9.625 9.25 -9.625 9.25 -10.25 6.188 C-9.625 3.25 -9.625 3.25 -7.938 1.582 C-5.086 -0.061 -3.27 -0.088 0 0 Z " fill="#7EA118" transform="translate(143.625,51.75)"/>
<path d="M0 0 C0.165 0.495 0.165 0.495 1 3 C3.97 3 6.94 3 10 3 C10.165 3.825 10.165 3.825 11 8 C10.469 8.254 9.938 8.508 9.391 8.77 C8.684 9.114 7.978 9.458 7.25 9.812 C6.554 10.149 5.858 10.485 5.141 10.832 C3 12 3 12 1.062 13.625 C-1.55 15.367 -3.144 15.31 -6.25 15.188 C-7.142 15.16 -8.034 15.133 -8.953 15.105 C-9.629 15.071 -10.304 15.036 -11 15 C-9.68 15.99 -8.36 16.98 -7 18 C-7.718 21.896 -9.464 25.083 -11.312 28.562 C-11.907 29.698 -12.501 30.834 -13.113 32.004 C-14.9 34.841 -16.198 36.254 -19 38 C-19.619 38.412 -20.237 38.825 -20.875 39.25 C-23.916 40.323 -25.917 39.835 -29 39 C-31.375 37.625 -31.375 37.625 -33 36 C-33 35.01 -33 34.02 -33 33 C-33.99 33 -34.98 33 -36 33 C-36.33 33.66 -36.66 34.32 -37 35 C-37.331 29.379 -37.382 25.735 -34 21 C-33.897 20.319 -33.794 19.639 -33.688 18.938 C-32.539 15.7 -29.868 14.663 -27 13 C-24.203 12.068 -22.457 11.865 -19.562 11.875 C-18.801 11.872 -18.039 11.87 -17.254 11.867 C-15.047 11.997 -13.12 12.391 -11 13 C-10.773 12.258 -10.546 11.515 -10.312 10.75 C-8.734 7.442 -7.004 6.051 -4 4 C-3.01 3.67 -2.02 3.34 -1 3 C-0.67 2.01 -0.34 1.02 0 0 Z " fill="#87488F" transform="translate(77,50)"/>
<path d="M0 0 C2.188 2 2.188 2 4 4 C4.412 3.979 4.412 3.979 6.5 3.875 C9 4 9 4 11.375 6.438 C13.491 11.077 13.423 14.151 12 19 C9.884 23.585 7.885 27.175 3 29 C-3.264 29.808 -8.576 29.254 -14 26 C-16.907 22.794 -18.241 20.277 -18.438 16 C-18.093 10.334 -15.823 6.544 -11.812 2.625 C-7.767 -0.632 -5.086 -0.834 0 0 Z " fill="#75367C" transform="translate(100,93)"/>
<path d="M0 0 C2.875 0.25 2.875 0.25 6 1 C6.699 2.316 7.367 3.65 8 5 C8.804 5.144 9.609 5.289 10.438 5.438 C13 6 13 6 14.812 8.438 C16 11 16 11 16 13 C15.01 13 14.02 13 13 13 C12.67 13.66 12.34 14.32 12 15 C12.66 15 13.32 15 14 15 C14 17.64 14 20.28 14 23 C13.01 23 12.02 23 11 23 C11 22.34 11 21.68 11 21 C10.34 21 9.68 21 9 21 C8.835 21.495 8.835 21.495 8 24 C7.67 24 7.34 24 7 24 C7 19.05 7 14.1 7 9 C6.34 9 5.68 9 5 9 C4.67 10.65 4.34 12.3 4 14 C3.01 13.01 2.02 12.02 1 11 C0.34 13.31 -0.32 15.62 -1 18 C-6.75 16.125 -6.75 16.125 -9 15 C-8.67 15.66 -8.34 16.32 -8 17 C-9.65 17.66 -11.3 18.32 -13 19 C-10.69 19 -8.38 19 -6 19 C-6.33 20.32 -6.66 21.64 -7 23 C-10.75 24.125 -10.75 24.125 -13 23 C-13 23.66 -13 24.32 -13 25 C-15.99 26.495 -18.7 26.116 -22 26 C-22.99 25.67 -23.98 25.34 -25 25 C-24.67 24.01 -24.34 23.02 -24 22 C-23.34 22 -22.68 22 -22 22 C-22.32 21.495 -22.32 21.495 -23.938 18.938 C-26.013 15.328 -26.607 12.163 -27 8 C-27.227 7.237 -27.454 6.474 -27.688 5.688 C-27.791 5.131 -27.894 4.574 -28 4 C-24.822 0.822 -21.026 1.41 -16.688 1.188 C-16.26 1.156 -16.26 1.156 -14.096 0.994 C-9.163 0.723 -6.04 0.777 -2 4 C-1.34 2.68 -0.68 1.36 0 0 Z " fill="#85A815" transform="translate(107,26)"/>
<path d="M0 0 C2.377 2.194 3.211 3.079 3.438 6.25 C2.118 5.92 0.797 5.59 -0.562 5.25 C-0.233 5.91 0.097 6.57 0.438 7.25 C0.892 10.561 1.077 13.1 -0.586 16.09 C-4.737 21.331 -10.239 25.501 -16.93 26.66 C-21.856 26.851 -25.3 25.873 -29.562 23.25 C-30.345 16.307 -29.566 11.873 -25.352 6.23 C-18.599 -1.244 -9.387 -4.611 0 0 Z " fill="#8A4991" transform="translate(100.5625,60.75)"/>
<path d="M0 0 C0.402 0.371 0.402 0.371 2.438 2.25 C2.438 6.25 2.438 6.25 0.438 9.25 C0.199 11.336 0.199 11.336 0.125 13.625 C-0.204 17.367 -0.465 18.133 -3 21.188 C-3.846 21.868 -4.691 22.549 -5.562 23.25 C-6.222 23.91 -6.882 24.57 -7.562 25.25 C-11.404 26.727 -15.515 26.317 -19.562 26.25 C-19.233 27.57 -18.903 28.89 -18.562 30.25 C-22.347 29.034 -23.99 26.702 -25.797 23.238 C-27.727 18.226 -27.095 13.886 -25 9.125 C-19.768 -0.348 -10.078 -4.951 0 0 Z " fill="#84448C" transform="translate(77.5625,95.75)"/>
<path d="M0 0 C4.165 -0.245 7.879 -0.366 11.875 0.938 C14.633 3.614 15.284 6.171 16.227 9.844 C17.091 12.254 18.172 13.26 20 15 C20.688 17.688 20.688 17.688 21 20 C21.536 19.629 22.072 19.257 22.625 18.875 C25 18 25 18 27.75 19.062 C32.826 20.527 36.455 18.272 41 16 C41.75 18.125 41.75 18.125 42 21 C39.573 25.855 37.128 28.225 32 30 C28.1 30.542 24.972 30.583 21.5 28.5 C21.005 28.005 20.51 27.51 20 27 C17.408 28.244 14.92 29.616 12.438 31.062 C7.619 33.778 3.5 34.751 -2 34 C-6.32 31.757 -9.366 29.109 -12 25 C-11.67 24.01 -11.34 23.02 -11 22 C-10.443 22.928 -9.886 23.856 -9.312 24.812 C-6.905 28.131 -5.782 29.52 -2 31 C1.354 31.282 4.648 31.323 8 31 C8.33 30.67 8.66 30.34 9 30 C8.192 30.058 7.384 30.116 6.551 30.176 C-2.074 30.54 -2.074 30.54 -4.91 28.887 C-6.25 27.5 -6.25 27.5 -8 25 C-7.67 24.34 -7.34 23.68 -7 23 C-6.67 23.33 -6.34 23.66 -6 24 C-0.563 24.435 3.258 23.736 8 21 C10.529 17.602 11.238 15.019 10.938 10.875 C9.956 6.82 9.109 5.607 6 3 C6 2.34 6 1.68 6 1 C4.02 1 2.04 1 0 1 C0 0.67 0 0.34 0 0 Z " fill="#5E2D68" transform="translate(41,142)"/>
<path d="M0 0 C4.613 5.655 5.661 8.758 5 16 C3.591 20.07 1.527 23.403 -1.93 26.078 C-6.689 28.197 -11.958 27.814 -17 27 C-20.751 25.17 -22.697 22.454 -25 19 C-25.258 16.305 -25.089 13.715 -25 11 C-23.02 10.34 -21.04 9.68 -19 9 C-19.33 8.34 -19.66 7.68 -20 7 C-19.108 7.012 -18.216 7.023 -17.297 7.035 C-16.712 7.04 -16.712 7.04 -13.75 7.062 C-13.17 7.068 -13.17 7.068 -10.234 7.098 C-7.579 7.017 -5.475 6.924 -3 6 C-1.812 4.062 -1.812 4.062 -1 2 C-0.67 1.34 -0.34 0.68 0 0 Z " fill="#622E6E" transform="translate(110,114)"/>
<path d="M0 0 C0 0.66 0 1.32 0 2 C0.619 2.227 1.237 2.454 1.875 2.688 C4.775 4.478 5.209 5.693 6 9 C6.165 13.54 5.584 16.254 2.75 19.875 C-2.22 23.715 -5.74 24.245 -12 24 C-11.67 24.99 -11.34 25.98 -11 27 C-7.935 28.533 -4.732 28.103 -1.375 28.062 C-0.669 28.058 0.038 28.053 0.766 28.049 C2.51 28.037 4.255 28.019 6 28 C2.139 31.354 -0.562 31.512 -5.535 31.352 C-9.177 30.832 -11.237 29.377 -14 27 C-14.949 26.34 -15.898 25.68 -16.875 25 C-20.219 20.279 -19.805 15.594 -19 10 C-16.973 5.458 -14.277 2.951 -9.949 0.68 C-6.572 -0.498 -3.544 -0.249 0 0 Z " fill="#7E458B" transform="translate(47,143)"/>
<path d="M0 0 C5.187 1.352 9.043 3.922 12.215 8.219 C14.733 13.848 15.045 18.829 13.152 24.719 C11.404 28.989 9.136 31.102 5.277 33.594 C4.782 33.429 4.782 33.429 2.277 32.594 C7.277 27.594 7.277 27.594 9.027 25.969 C11.372 23.389 11.394 20.709 11.34 17.406 C11.319 16.148 11.299 14.89 11.277 13.594 C10.287 13.264 9.297 12.934 8.277 12.594 C8.03 13.46 7.782 14.326 7.527 15.219 C5.846 19.759 4.168 23.527 -0.16 25.969 C-2.786 26.609 -5.03 26.748 -7.723 26.594 C-8.053 25.274 -8.383 23.954 -8.723 22.594 C-9.713 22.594 -10.703 22.594 -11.723 22.594 C-14.386 19.645 -14.995 17.145 -14.848 13.281 C-14.104 8.563 -12.129 5.469 -8.812 2.078 C-5.814 -0.052 -3.62 -0.347 0 0 Z " fill="#7C3F87" transform="translate(125.72265625,80.40625)"/>
<path d="M0 0 C0.66 0.33 1.32 0.66 2 1 C1.01 2.32 0.02 3.64 -1 5 C0.459 4.691 1.917 4.378 3.375 4.062 C4.187 3.888 4.999 3.714 5.836 3.535 C8 3 8 3 10 2 C9.67 3.32 9.34 4.64 9 6 C9.289 6.144 9.289 6.144 10.75 6.875 C12.833 7.917 14.917 8.958 17 10 C16.67 10.165 16.67 10.165 15 11 C14.67 11.99 14.34 12.98 14 14 C14.699 14.121 15.397 14.242 16.117 14.367 C17.027 14.535 17.937 14.702 18.875 14.875 C19.78 15.037 20.685 15.2 21.617 15.367 C24 16 24 16 26 18 C25.34 18.33 24.68 18.66 24 19 C23.34 18.67 22.68 18.34 22 18 C22.33 18.99 22.66 19.98 23 21 C22.34 21.33 21.68 21.66 21 22 C21.66 22.66 22.32 23.32 23 24 C23.268 24.825 23.536 25.65 23.812 26.5 C25.179 30.527 27.064 34.09 29.074 37.828 C29.38 38.545 29.685 39.262 30 40 C29.835 40.33 29.835 40.33 29 42 C26.36 37.38 23.72 32.76 21 28 C19.435 33.476 18.779 36.576 19 42 C16.348 40.674 16.36 39.561 15.375 36.812 C13.788 32.984 12.388 31.295 8.875 29.125 C6.123 27.317 5.16 26.521 4.18 23.328 C3.897 21.386 3.64 19.441 3.41 17.492 C3 15 3 15 1.188 12.5 C-1.158 10.892 -3.514 9.381 -6 8 C-4.557 4.634 -2.667 2.49 0 0 Z " fill="#63880D" transform="translate(125,55)"/>
<path d="M0 0 C4.92 6.418 4.599 12.009 4 20 C3.237 23.338 2.809 23.713 0 26 C-2.771 26.478 -5.448 26.629 -8.258 26.719 C-11.083 27.009 -12.379 27.551 -14.688 29.125 C-19.205 31.682 -21.006 31.208 -26 30 C-28.931 28.662 -30.51 27.723 -32.312 25.062 C-33 23 -33 23 -33 19 C-30.831 19.506 -29 20 -27 21 C-19.839 22.06 -14.768 20.217 -9 16 C-6.098 13.659 -4.183 11.466 -3.703 7.617 C-3.689 5.386 -3.778 3.219 -4 1 C-2.68 1.33 -1.36 1.66 0 2 C0 1.34 0 0.68 0 0 Z " fill="#6D3075" transform="translate(104,65)"/>
<path d="M0 0 C0.33 0.165 0.33 0.165 2 1 C1.67 2.98 1.34 4.96 1 7 C1.33 7.165 1.33 7.165 3 8 C0.845 12.183 -1.953 15.072 -5.301 18.293 C-7 20 -7 20 -9.125 22.812 C-11.306 25.357 -12.88 25.886 -16 27 C-16.887 27.66 -17.774 28.32 -18.688 29 C-31.911 36.984 -53.045 34.138 -68 34 C-68 33.67 -68 33.34 -68 33 C-67.203 32.841 -66.407 32.683 -65.586 32.52 C-59.066 31.084 -54.69 29.82 -50 25 C-48 26 -46 27 -44 28 C-38.759 28.444 -34.985 28.263 -30.477 25.422 C-27.724 22.772 -27.025 19.619 -26 16 C-25.361 16.309 -24.721 16.619 -24.062 16.938 C-18.774 18.772 -14.066 19.702 -8.688 17.875 C-3.533 14.279 -1.882 11.31 -0.75 5.188 C-0.485 3.461 -0.231 1.732 0 0 Z " fill="#DEC7A7" transform="translate(109,143)"/>
<path d="M0 0 C0.655 -0.01 0.655 -0.01 3.969 -0.059 C7.5 0.438 7.5 0.438 9.941 2.25 C12.213 5.439 11.97 7.611 11.5 11.438 C9.816 15.698 7.288 17.66 3.336 19.711 C0.552 20.813 -1.556 20.895 -4.5 20.438 C-6.75 19.375 -6.75 19.375 -8.5 17.438 C-9.75 13.75 -9.75 13.75 -10.5 10.438 C-11.16 10.438 -11.82 10.438 -12.5 10.438 C-12.014 3.992 -12.014 3.992 -9.922 1.734 C-6.544 -0.074 -3.813 0.004 0 0 Z " fill="#81468C" transform="translate(69.5,132.5625)"/>
<path d="M0 0 C0 3 0 3 -1 4.75 C-2.386 7.869 -2.13 10.63 -2 14 C-1.01 14 -0.02 14 1 14 C1.103 15.093 1.206 16.186 1.312 17.312 C1.973 20.856 2.203 21.932 5 24 C4.67 24.66 4.34 25.32 4 26 C3.67 26 3.34 26 3 26 C4.65 26.99 6.3 27.98 8 29 C7.34 31.97 6.68 34.94 6 38 C5.34 38 4.68 38 4 38 C3.67 38.825 3.67 38.825 2 43 C1.362 43.049 0.724 43.098 0.066 43.148 C-0.76 43.223 -1.586 43.298 -2.438 43.375 C-2.849 43.41 -2.849 43.41 -4.934 43.586 C-5.275 43.654 -5.275 43.654 -7 44 C-7.33 44.66 -7.66 45.32 -8 46 C-8.66 46 -9.32 46 -10 46 C-11.411 41.767 -11.944 38.1 -10.059 33.906 C-7.596 29.768 -5.019 26.756 -1 24 C-1.66 23.051 -2.32 22.102 -3 21.125 C-5.607 16.535 -5.874 12.162 -5 7 C-3.765 4.253 -2.142 2.142 0 0 Z " fill="#713D79" transform="translate(43,69)"/>
<path d="M0 0 C4.011 1.375 6.747 3.31 10 6 C9.154 6.075 8.309 6.15 7.438 6.227 C-0.199 7.112 -5.667 8.267 -11 14 C-15.51 19.707 -18.305 24.131 -17.75 31.5 C-17.702 35.677 -17.702 35.677 -20.188 38.375 C-21.116 38.911 -22.044 39.447 -23 40 C-23.722 40.578 -24.444 41.155 -25.188 41.75 C-29.476 43.656 -33.417 44.168 -38 43 C-40.714 40.727 -42.62 38.267 -44 35 C-43.67 34.01 -43.34 33.02 -43 32 C-42.113 32.681 -41.226 33.361 -40.312 34.062 C-37 36 -37 36 -34.5 35.938 C-28.18 33.567 -25.29 31.733 -22.188 25.562 C-21.896 24.996 -21.896 24.996 -20.418 22.129 C-19.315 19.695 -18.493 17.606 -18 15 C-19.65 13.68 -21.3 12.36 -23 11 C-22.238 11.07 -21.476 11.139 -20.691 11.211 C-13.517 11.587 -9.477 10.847 -3.84 6.312 C-2 5 -2 5 1 5 C0.835 4.175 0.835 4.175 0 0 Z " fill="#692F72" transform="translate(87,53)"/>
<path d="M0 0 C1.65 0 3.3 0 5 0 C5.33 0.66 5.66 1.32 6 2 C5.67 2.165 5.67 2.165 4 3 C8.431 6.077 8.431 6.077 11.312 5.688 C11.591 5.574 11.591 5.574 13 5 C13 3.35 13 1.7 13 0 C14.562 1.188 14.562 1.188 16 3 C15.579 7.421 15.579 7.421 14 9 C13.763 12.181 13.604 15.354 13.482 18.541 C13.213 23.787 13.213 23.787 11 26 C5.822 25.382 0.93 22.276 -3 19 C-5.551 13.867 -3.573 8.181 -2 3 C1.67 6.277 3.693 9.715 6 14 C5.567 13.157 5.134 12.314 4.688 11.445 C4.131 10.35 3.574 9.254 3 8.125 C2.443 7.034 1.886 5.944 1.312 4.82 C0 2 0 2 0 0 Z " fill="#769B16" transform="translate(147,79)"/>
<path d="M0 0 C0.33 0.99 0.66 1.98 1 3 C1.99 3.66 2.98 4.32 4 5 C4.708 8.055 4.565 10.926 4 14 C0.716 18.025 -4.873 20.248 -10 21 C-12.277 20.07 -12.277 20.07 -14 19 C-14.66 19.66 -15.32 20.32 -16 21 C-16.399 8.557 -16.399 8.557 -14 4 C-12.125 3.312 -12.125 3.312 -10 3 C-9.691 2.742 -9.691 2.742 -8.125 1.438 C-5.322 -0.459 -3.311 -0.226 0 0 Z " fill="#82488E" transform="translate(47,117)"/>
<path d="M0 0 C1.875 1 1.875 1 3 3 C3.526 7.588 3.499 9.961 1.5 14.125 C-0.706 16.662 -2.52 18.132 -5.25 20 C-8.922 22.593 -8.922 22.593 -9.625 26.25 C-9 29 -9 29 -7 31 C-8.456 31.363 -9.915 31.715 -11.375 32.062 C-11.781 32.161 -11.781 32.161 -13.836 32.66 C-16 33 -16 33 -18 32 C-17.01 30.68 -16.02 29.36 -15 28 C-15.375 28.494 -15.75 28.987 -16.137 29.496 C-20.369 34.794 -20.369 34.794 -23.875 35.938 C-24.576 35.958 -25.278 35.979 -26 36 C-26 36.99 -26 37.98 -26 39 C-27.155 39.165 -27.155 39.165 -33 40 C-32.438 38.188 -32.438 38.188 -31 36 C-28.687 34.953 -26.351 33.957 -24 33 C-19.322 29.644 -19.322 29.644 -18 27 C-19.32 27.33 -20.64 27.66 -22 28 C-22 28.99 -22 29.98 -22 31 C-22.66 31 -23.32 31 -24 31 C-23.67 29.35 -23.34 27.7 -23 26 C-22.443 25.959 -22.443 25.959 -19.625 25.75 C-16 25 -16 25 -14.812 23.25 C-14.544 22.508 -14.276 21.765 -14 21 C-11.59 17.336 -9.053 15.324 -5.375 13.062 C-2.068 10.972 -1.137 10.295 0.562 6.625 C0.707 5.759 0.851 4.892 1 4 C-0.98 4 -2.96 4 -5 4 C-5.33 5.65 -5.66 7.3 -6 9 C-5.34 9 -4.68 9 -4 9 C-4 9.66 -4 10.32 -4 11 C-7.875 10.125 -7.875 10.125 -9 9 C-9.456 3.759 -9.456 3.759 -7.875 1.125 C-5.119 -0.529 -3.149 -0.394 0 0 Z " fill="#768D1C" transform="translate(140,28)"/>
<path d="M0 0 C0 0.66 0 1.32 0 2 C0.804 1.979 1.609 1.959 2.438 1.938 C5 2 5 2 6 3 C6.544 7.626 5.143 10.935 3 15 C0.692 17.648 -0.792 18.876 -4.324 19.238 C-6.565 19.249 -8.766 19.175 -11 19 C-12.263 14.707 -11.63 12.122 -10 8 C-10.33 7.67 -10.66 7.34 -11 7 C-12.32 8.65 -13.64 10.3 -15 12 C-14.364 6.666 -12.142 4.71 -8.145 1.383 C-5.325 -0.435 -3.276 -0.573 0 0 Z " fill="#99579E" transform="translate(68,95)"/>
<path d="M0 0 C1.32 0.66 2.64 1.32 4 2 C4.416 10.191 2.263 13.718 -3 20 C-5.107 22.107 -6.194 23.04 -9 24 C-13.373 23.938 -16.322 23.452 -20 21 C-20.293 18.617 -20.293 18.617 -20.188 15.875 C-20.16 14.965 -20.133 14.055 -20.105 13.117 C-20.071 12.419 -20.036 11.72 -20 11 C-18.68 11 -17.36 11 -16 11 C-16 12.32 -16 13.64 -16 15 C-6.909 13.022 -6.909 13.022 -3.5 9.188 C-2.075 6.16 -0.919 3.216 0 0 Z " fill="#642D6E" transform="translate(134,92)"/>
<path d="M0 0 C0.33 0.165 0.33 0.165 2 1 C-3.014 7.234 -7.258 8.029 -15 9 C-17.649 9.496 -19.596 10.283 -22.062 11.457 C-26.865 13.554 -31.831 14.078 -37 14.688 C-38.044 14.813 -39.087 14.938 -40.163 15.067 C-47.567 15.884 -54.927 16.314 -62.375 16.375 C-62.835 16.382 -62.835 16.382 -65.16 16.417 C-71.534 16.373 -77.002 15.126 -83 13 C-83.33 11.35 -83.66 9.7 -84 8 C-83.791 8.18 -83.791 8.18 -82.734 9.094 C-74.441 14.971 -64.657 13.439 -55 13 C-53.522 12.954 -52.044 12.908 -50.566 12.863 C-40.038 12.462 -30.348 11.769 -22 5 C-18.02 4.131 -14.062 4 -10 4 C-9.835 4.165 -9.835 4.165 -9 5 C-8.374 4.627 -7.747 4.255 -7.102 3.871 C-6.284 3.398 -5.467 2.925 -4.625 2.438 C-3.813 1.962 -3.001 1.486 -2.164 0.996 C-1.45 0.667 -0.736 0.339 0 0 Z " fill="#F6E9D0" transform="translate(116,163)"/>
<path d="M0 0 C2.5 2.062 2.5 2.062 4 5 C4 8.943 3.319 11.389 1.5 14.875 C-2.063 17.904 -5.441 17.893 -10 18 C-12.13 13.741 -12.906 9.683 -12 5 C-8.657 0.137 -5.816 -1.058 0 0 Z " fill="#914F96" transform="translate(99,95)"/>
<path d="M0 0 C0.165 0.495 0.165 0.495 1 3 C3.97 3 6.94 3 10 3 C10.165 3.825 10.165 3.825 11 8 C10.469 8.254 9.938 8.508 9.391 8.77 C8.684 9.114 7.978 9.458 7.25 9.812 C6.554 10.149 5.858 10.485 5.141 10.832 C3 12 3 12 1.172 13.561 C-1.45 15.298 -2.776 15.316 -5.887 15.188 C-6.826 15.164 -7.765 15.141 -8.732 15.117 C-10.683 15.04 -12.633 14.962 -14.584 14.883 C-20.996 14.725 -26.069 15.523 -32 18 C-32 17.34 -32 16.68 -32 16 C-25.442 12.185 -20.236 10.799 -12.734 12.52 C-12.162 12.678 -11.59 12.837 -11 13 C-10.773 12.258 -10.546 11.515 -10.312 10.75 C-8.734 7.442 -7.004 6.051 -4 4 C-3.01 3.67 -2.02 3.34 -1 3 C-0.67 2.01 -0.34 1.02 0 0 Z " fill="#84528D" transform="translate(77,50)"/>
<path d="M0 0 C1.65 0.66 3.3 1.32 5 2 C4.67 2.99 4.34 3.98 4 5 C2.667 5.333 1.333 5.667 0 6 C-0.33 6.99 -0.66 7.98 -1 9 C2.3 9 5.6 9 9 9 C9 9.66 9 10.32 9 11 C8.34 11 7.68 11 7 11 C6.856 11.639 6.711 12.279 6.562 12.938 C6 15 6 15 5 16 C-1.337 16.068 -5.781 14.48 -11 11 C-11.33 10.67 -11.66 10.34 -12 10 C-13.849 9.766 -15.705 9.587 -17.562 9.438 C-18.574 9.354 -19.586 9.27 -20.629 9.184 C-21.411 9.123 -22.194 9.062 -23 9 C-22.67 7.35 -22.34 5.7 -22 4 C-20.02 3.67 -18.04 3.34 -16 3 C-16.99 4.32 -17.98 5.64 -19 7 C-15.04 7 -11.08 7 -7 7 C-7 6.34 -7 5.68 -7 5 C-5.02 5 -3.04 5 -1 5 C-0.67 3.35 -0.34 1.7 0 0 Z " fill="#6D930B" transform="translate(101,44)"/>
<path d="M0 0 C0.66 0.33 1.32 0.66 2 1 C1.01 2.32 0.02 3.64 -1 5 C0.459 4.691 1.917 4.378 3.375 4.062 C4.187 3.888 4.999 3.714 5.836 3.535 C8 3 8 3 10 2 C9.67 3.32 9.34 4.64 9 6 C9.289 6.144 9.289 6.144 10.75 6.875 C12.833 7.917 14.917 8.958 17 10 C16.072 10.206 15.144 10.412 14.188 10.625 C11 12 11 12 9.125 14.688 C7.89 18.323 7.771 21.186 8 25 C8.66 25.33 9.32 25.66 10 26 C10 26.66 10 27.32 10 28 C7.566 27.336 7.566 27.336 5 26 C4.215 23.539 4.215 23.539 3.938 20.625 C3.179 15.247 3.179 15.247 1.188 12.5 C-1.158 10.892 -3.514 9.381 -6 8 C-4.557 4.634 -2.667 2.49 0 0 Z " fill="#53770C" transform="translate(125,55)"/>
<path d="M0 0 C2.155 1.58 4.106 3.106 6 5 C6.77 11.116 6.689 16.882 3 22 C-0.751 25.759 -3.928 28.879 -9.48 29.098 C-10.374 29.086 -11.267 29.074 -12.188 29.062 C-13.089 29.053 -13.99 29.044 -14.918 29.035 C-15.605 29.024 -16.292 29.012 -17 29 C-17 28.34 -17 27.68 -17 27 C-18.5 25.375 -18.5 25.375 -20 24 C-19.59 24.012 -19.59 24.012 -17.516 24.07 C-16.438 24.088 -15.36 24.106 -14.25 24.125 C-13.183 24.148 -12.115 24.171 -11.016 24.195 C-8.012 24.001 -6.46 23.684 -4 22 C0.995 14.579 1.254 8.685 0 0 Z " fill="#5D3265" transform="translate(132,118)"/>
<path d="M0 0 C0.785 0.004 1.57 0.008 2.379 0.012 C4.438 0.312 4.438 0.312 6.438 2.312 C6.343 5.823 5.482 7.258 3.25 10 C0.258 12.46 -1.786 13.526 -5.562 14.312 C-8.438 13.938 -8.438 13.938 -10.562 13.312 C-9.397 6.511 -7.979 -0.171 0 0 Z " fill="#A362A8" transform="translate(87.5625,63.6875)"/>
<path d="M0 0 C6.462 0.462 6.462 0.462 9 3 C8.381 3.206 7.762 3.412 7.125 3.625 C4.155 5.547 4.059 7.69 3 11 C0.776 13.939 -0.499 14.857 -4.062 15.875 C-7 16 -7 16 -10 14 C-9.392 7.552 -9.392 7.552 -7.625 5.062 C-6 4 -6 4 -3 4 C-2.67 3.34 -2.34 2.68 -2 2 C-1.34 1.34 -0.68 0.68 0 0 Z " fill="#8F5299" transform="translate(124,82)"/>
<path d="M0 0 C0.33 0 0.66 0 1 0 C1.027 1.896 1.046 3.792 1.062 5.688 C1.074 6.743 1.086 7.799 1.098 8.887 C1 12 1 12 0.434 14.77 C0 17 0 17 1 19 C0.432 19.075 -0.137 19.15 -0.723 19.227 C-6.899 20.278 -10.9 22.2 -15 27 C-18.556 32.85 -18.324 38.37 -18 45 C-18.614 44.529 -19.227 44.059 -19.859 43.574 C-21.846 42.113 -23.77 41.035 -26 40 C-24.02 40 -22.04 40 -20 40 C-20 34.39 -20 28.78 -20 23 C-21.98 22.01 -23.96 21.02 -26 20 C-25.67 19.34 -25.34 18.68 -25 18 C-24.718 18.16 -24.718 18.16 -23.293 18.969 C-18.404 21.167 -13.314 20.866 -8.348 19.008 C-5.737 17.548 -3.912 16.307 -2 14 C-1.466 11.282 -1.533 9.109 -1.879 6.367 C-2.019 3.638 -1.398 2.307 0 0 Z " fill="#501D58" transform="translate(70,75)"/>
<path d="M0 0 C2.871 1.507 3.441 2.311 4.5 5.312 C4.748 5.972 4.995 6.632 5.25 7.312 C5.571 9.881 4.821 11.137 3.5 13.312 C-0.661 13.394 -4.447 13.295 -8.5 12.312 C-8.034 7.562 -7.352 4.191 -4.5 0.312 C-2.5 -0.688 -2.5 -0.688 0 0 Z " fill="#874B92" transform="translate(42.5,97.6875)"/>
<path d="M0 0 C2.438 2 2.438 2 4 4 C2.617 8.149 0.832 8.98 -3 11 C-6.485 11.478 -9.787 11.607 -13 10 C-13 8.68 -13 7.36 -13 6 C-12.34 6 -11.68 6 -11 6 C-10.897 5.381 -10.794 4.763 -10.688 4.125 C-9.041 -0.965 -4.501 -0.474 0 0 Z " fill="#A163A6" transform="translate(58,68)"/>
<path d="M0 0 C0.458 0.006 0.458 0.006 2.777 0.035 C3.696 0.044 4.616 0.053 5.562 0.062 C6.273 0.074 6.983 0.086 7.715 0.098 C7.715 1.418 7.715 2.738 7.715 4.098 C10.355 3.768 12.995 3.438 15.715 3.098 C15.756 3.572 15.756 3.572 15.965 5.973 C16.715 9.098 16.715 9.098 18.777 10.473 C19.417 10.679 20.056 10.885 20.715 11.098 C18.019 12.446 16.684 11.507 13.934 10.645 C9.611 9.579 5.146 9.402 0.715 9.098 C0.715 7.778 0.715 6.458 0.715 5.098 C-0.275 5.098 -1.265 5.098 -2.285 5.098 C-2.848 3.16 -2.848 3.16 -3.285 1.098 C-2.285 0.098 -2.285 0.098 0 0 Z " fill="#85AA18" transform="translate(140.28515625,53.90234375)"/>
<path d="M0 0 C0.33 0.66 0.66 1.32 1 2 C-1.946 8.345 -1.946 8.345 -5.312 10.438 C-9.361 11.285 -13.228 12.029 -16.938 9.875 C-18.445 7.215 -18.2 4.998 -18 2 C-17.196 2.186 -16.391 2.371 -15.562 2.562 C-9.916 3.256 -4.802 3.201 0 0 Z " fill="#723A7F" transform="translate(107,124)"/>
<path d="M0 0 C0.66 0.33 1.32 0.66 2 1 C1.67 1.99 1.34 2.98 1 4 C1.699 4.121 2.397 4.242 3.117 4.367 C3.572 4.451 3.572 4.451 5.875 4.875 C6.78 5.037 7.685 5.2 8.617 5.367 C11 6 11 6 13 8 C12.67 8.165 12.67 8.165 11 9 C10.34 8.67 9.68 8.34 9 8 C9.33 8.99 9.66 9.98 10 11 C9.01 11.33 8.02 11.66 7 12 C7 12.66 7 13.32 7 14 C6.34 14 5.68 14 5 14 C4.67 13.67 4.34 13.34 4 13 C4 14.65 4 16.3 4 18 C3.34 18 2.68 18 2 18 C1.34 15.69 0.68 13.38 0 11 C-0.33 11.495 -0.33 11.495 -2 14 C-2.66 14 -3.32 14 -4 14 C-3.913 12.041 -3.805 10.083 -3.688 8.125 C-3.629 7.034 -3.571 5.944 -3.512 4.82 C-3.343 3.89 -3.174 2.959 -3 2 C-2.01 1.34 -1.02 0.68 0 0 Z " fill="#678C0D" transform="translate(138,65)"/>
<path d="M0 0 C0.66 0.99 1.32 1.98 2 3 C2.557 2.794 3.114 2.588 3.688 2.375 C6.66 1.893 8.32 2.734 11 4 C11 4.99 11 5.98 11 7 C9.35 6.67 7.7 6.34 6 6 C5.856 7.238 5.711 8.475 5.562 9.75 C4.733 16.166 4.733 16.166 4 18 C3.01 18.33 2.02 18.66 1 19 C1.99 19.66 2.98 20.32 4 21 C-1.75 20.25 -1.75 20.25 -4 18 C-3.693 17.316 -3.386 16.631 -3.07 15.926 C-1.88 12.671 -1.36 9.616 -0.875 6.188 C-0.707 5.026 -0.54 3.865 -0.367 2.668 C-0.246 1.788 -0.125 0.907 0 0 Z " fill="#50225B" transform="translate(87,140)"/>
<path d="M0 0 C0.66 0 1.32 0 2 0 C0.796 2.494 -0.454 4.681 -2 7 C-2.125 10.188 -2.125 10.188 -2 13 C-1.34 12.67 -0.68 12.34 0 12 C0.66 12.66 1.32 13.32 2 14 C0.544 14.363 -0.915 14.715 -2.375 15.062 C-2.781 15.161 -2.781 15.161 -4.836 15.66 C-7 16 -7 16 -9 15 C-8.01 13.68 -7.02 12.36 -6 11 C-6.375 11.494 -6.75 11.987 -7.137 12.496 C-11.369 17.794 -11.369 17.794 -14.875 18.938 C-15.576 18.958 -16.278 18.979 -17 19 C-17 19.99 -17 20.98 -17 22 C-19.31 22.33 -21.62 22.66 -24 23 C-23.438 21.188 -23.438 21.188 -22 19 C-19.687 17.953 -17.351 16.957 -15 16 C-10.322 12.644 -10.322 12.644 -9 10 C-10.32 10.33 -11.64 10.66 -13 11 C-13 11.99 -13 12.98 -13 14 C-13.66 14 -14.32 14 -15 14 C-14.67 12.35 -14.34 10.7 -14 9 C-13.704 8.927 -13.704 8.927 -12.207 8.555 C-6.194 6.848 -3.673 5.008 0 0 Z " fill="#8C9E1E" transform="translate(131,45)"/>
<path d="M0 0 C1.376 1.29 2.708 2.627 4 4 C4 4.66 4 5.32 4 6 C4.66 6 5.32 6 6 6 C6 6.66 6 7.32 6 8 C7.98 7.67 9.96 7.34 12 7 C10 9 10 9 6.562 10.812 C2.43 13.124 0.664 15.765 -0.688 20.312 C-0.791 20.869 -0.894 21.426 -1 22 C-1.846 21.691 -2.691 21.381 -3.562 21.062 C-7.05 19.985 -10.382 19.434 -14 19 C-14 18.67 -14 18.34 -14 18 C-11.03 18 -8.06 18 -5 18 C-4.856 17.629 -4.856 17.629 -4.125 15.75 C-3 13 -3 13 -1.969 11.125 C-0.891 8.761 -0.603 6.83 -0.375 4.25 C-0.3 3.451 -0.225 2.652 -0.148 1.828 C-0.099 1.225 -0.05 0.622 0 0 Z " fill="#45124A" transform="translate(109,73)"/>
<path d="M0 0 C0.962 0.015 1.923 0.031 2.914 0.047 C5.375 0.25 5.375 0.25 7.375 1.25 C7.375 2.24 7.375 3.23 7.375 4.25 C8.695 4.91 10.015 5.57 11.375 6.25 C9.065 6.25 6.755 6.25 4.375 6.25 C4.375 4.93 4.375 3.61 4.375 2.25 C1.075 2.58 -2.225 2.91 -5.625 3.25 C-5.295 4.24 -4.965 5.23 -4.625 6.25 C-3.305 5.92 -1.985 5.59 -0.625 5.25 C-1.285 6.9 -1.945 8.55 -2.625 10.25 C-2.065 10.305 -2.065 10.305 0.77 10.582 C2.242 10.741 3.715 10.902 5.188 11.062 C5.925 11.133 6.663 11.203 7.424 11.275 C12.925 11.898 12.925 11.898 15.387 13.824 C15.55 14.059 15.55 14.059 16.375 15.25 C15.457 15.117 14.539 14.984 13.594 14.848 C12.367 14.671 11.139 14.494 9.875 14.312 C8.599 14.127 7.323 13.941 6.008 13.75 C3.252 13.371 0.518 13.065 -2.25 12.812 C-5.696 12.238 -7.393 11.947 -9.625 9.25 C-10.125 6.25 -10.125 6.25 -9.625 3.25 C-6.553 0.193 -4.246 -0.114 0 0 Z " fill="#749710" transform="translate(143.625,51.75)"/>
<path d="M0 0 C0.66 0.33 1.32 0.66 2 1 C3.012 4.97 3.254 7.317 1.812 11.188 C-1.065 15.652 -3.724 18.71 -9 20 C-12.035 19.862 -15.002 19.483 -18 19 C-17.67 18.01 -17.34 17.02 -17 16 C-16.301 15.867 -15.603 15.734 -14.883 15.598 C-14.428 15.509 -14.428 15.509 -12.125 15.062 C-11.22 14.888 -10.315 14.714 -9.383 14.535 C-7 14 -7 14 -5 13 C-4.054 10.842 -3.19 8.648 -2.375 6.438 C-1.929 5.24 -1.483 4.042 -1.023 2.809 C-0.686 1.882 -0.348 0.955 0 0 Z " fill="#613867" transform="translate(106,143)"/>
<path d="M0 0 C1.65 0.33 3.3 0.66 5 1 C4.77 3.065 4.515 5.127 4.25 7.188 C4.111 8.336 3.972 9.485 3.828 10.668 C2.899 14.406 1.69 16.275 -1 19 C-1.99 19.33 -2.98 19.66 -4 20 C-4.99 19.34 -5.98 18.68 -7 18 C-6.75 16.125 -6.75 16.125 -6 14 C-5.34 13.711 -4.68 13.422 -4 13.125 C-3.34 12.754 -2.68 12.382 -2 12 C-1.312 9.25 -1.312 9.25 -1 6 C-0.667 4 -0.333 2 0 0 Z " fill="#5C3768" transform="translate(141,99)"/>
<path d="M0 0 C3.511 3.043 4.955 5.47 6 10 C6.146 12.693 6.093 15.299 6 18 C6.639 18.103 7.279 18.206 7.938 18.312 C8.278 18.426 8.278 18.426 10 19 C10.33 19.99 10.66 20.98 11 22 C6.378 20.68 2.627 19.205 -1 16 C-2.585 10.058 -1.766 5.817 0 0 Z " fill="#6D9212" transform="translate(145,82)"/>
<path d="M0 0 C4.623 0.338 7.977 1.586 11.652 4.324 C13.882 7.097 13.519 9.789 13.246 13.207 C13.165 13.799 13.084 14.39 13 15 C12.34 15 11.68 15 11 15 C10.34 12.03 9.68 9.06 9 6 C8.34 6 7.68 6 7 6 C6.34 7.32 5.68 8.64 5 10 C3.68 10 2.36 10 1 10 C0.34 8.68 -0.32 7.36 -1 6 C-1.66 6 -2.32 6 -3 6 C-3 5.01 -3 4.02 -3 3 C-2.01 3 -1.02 3 0 3 C0 2.01 0 1.02 0 0 Z " fill="#663D7A" transform="translate(114,64)"/>
<path d="M0 0 C0.66 0.33 1.32 0.66 2 1 C1.196 1.804 0.391 2.609 -0.438 3.438 C-3.638 7.275 -4.199 11.084 -4 16 C-3.062 19.062 -3.062 19.062 -2 21 C-2.66 21 -3.32 21 -4 21 C-4.433 20.175 -4.866 19.35 -5.312 18.5 C-5.869 17.675 -6.426 16.85 -7 16 C-8.666 15.956 -10.334 15.96 -12 16 C-14.562 14.125 -14.562 14.125 -17 12 C-18.311 11.291 -19.638 10.605 -21 10 C-15.739 9.684 -12.554 10.334 -8 13 C-7.918 12.113 -7.835 11.226 -7.75 10.312 C-6.615 5.297 -4.216 2.81 0 0 Z " fill="#612868" transform="translate(116,82)"/>
<path d="M0 0 C6.115 -0.097 11.933 0.23 18 1 C18 3.64 18 6.28 18 9 C11.692 8.589 6.285 6.503 1 3 C0.67 2.01 0.34 1.02 0 0 Z " fill="#8BAB1B" transform="translate(81,28)"/>
<path d="M0 0 C0.66 0 1.32 0 2 0 C2 0.66 2 1.32 2 2 C2.382 2.031 2.382 2.031 4.312 2.188 C7 3 7 3 8.812 5.438 C10 8 10 8 10 10 C9.01 10 8.02 10 7 10 C6.67 10.66 6.34 11.32 6 12 C6.66 12 7.32 12 8 12 C8 14.64 8 17.28 8 20 C7.01 20 6.02 20 5 20 C5 19.34 5 18.68 5 18 C4.34 18 3.68 18 3 18 C2.67 18.99 2.34 19.98 2 21 C1.67 21 1.34 21 1 21 C1.35 10.847 1.35 10.847 4.062 7.312 C4.702 6.879 5.341 6.446 6 6 C4.608 3.216 2.844 3.021 0 2 C0 1.34 0 0.68 0 0 Z " fill="#759719" transform="translate(113,29)"/>
<path d="M0 0 C5.297 0.757 9.54 2.849 13 7 C14.283 10.85 14.066 13.947 14 18 C14.722 18.227 15.444 18.454 16.188 18.688 C20.131 20.528 23.087 22.811 24.805 26.93 C25.267 28.306 25.724 29.683 26.176 31.062 C27.483 34.135 29.497 35.836 32 38 C29.085 36.926 27.222 36.222 25 34 C25 33.01 25 32.02 25 31 C24.34 31 23.68 31 23 31 C22.608 29.907 22.216 28.814 21.812 27.688 C20.266 24.053 18.614 22.717 15 21 C14.01 20.34 13.02 19.68 12 19 C11.805 16.609 11.805 16.609 11.875 13.75 C11.673 10.164 11.584 8.584 9.012 6.012 C6.725 4.542 4.403 3.266 2 2 C1.34 1.34 0.68 0.68 0 0 Z " fill="#4C492E" transform="translate(116,63)"/>
<path d="M0 0 C0.66 0.33 1.32 0.66 2 1 C0.68 2.65 -0.64 4.3 -2 6 C-1.34 6 -0.68 6 0 6 C3.832 6.504 6.057 7.493 9 10 C7.63 13.161 7.011 13.993 4 16 C3.278 15.237 2.556 14.474 1.812 13.688 C-0.698 11.289 -2.968 9.646 -6 8 C-4.557 4.634 -2.667 2.49 0 0 Z " fill="#5F7A0F" transform="translate(125,55)"/>
<path d="M0 0 C0.34 0.32 0.34 0.32 2.062 1.938 C0.082 2.267 -1.898 2.597 -3.938 2.938 C-3.608 5.907 -3.278 8.877 -2.938 11.938 C-4.257 11.278 -5.578 10.617 -6.938 9.938 C-8.113 9.463 -9.289 8.989 -10.5 8.5 C-13.938 6.938 -13.938 6.938 -16.938 3.938 C-15.123 4.432 -15.123 4.432 -5.938 6.938 C-6.267 4.627 -6.597 2.318 -6.938 -0.062 C-9.578 -0.392 -12.218 -0.723 -14.938 -1.062 C-14.938 -1.392 -14.938 -1.723 -14.938 -2.062 C-9.386 -3.576 -4.774 -3.352 0 0 Z " fill="#75941A" transform="translate(104.9375,30.0625)"/>
<path d="M0 0 C0.66 0.33 1.32 0.66 2 1 C1.814 1.619 1.629 2.237 1.438 2.875 C1 5 1 5 2 7 C3.155 6.835 3.155 6.835 9 6 C7.317 8.086 6.488 8.936 3.783 9.293 C2.934 9.258 2.085 9.223 1.211 9.188 C0.269 9.164 -0.674 9.141 -1.645 9.117 C-3.608 9.04 -5.572 8.962 -7.535 8.883 C-13.964 8.726 -19.054 9.513 -25 12 C-25 11.34 -25 10.68 -25 10 C-18.442 6.185 -13.236 4.799 -5.734 6.52 C-5.162 6.678 -4.59 6.837 -4 7 C-3.711 6.216 -3.422 5.432 -3.125 4.625 C-2 2 -2 2 0 0 Z " fill="#6F4478" transform="translate(70,56)"/>
<path d="M0 0 C0.33 0.99 0.66 1.98 1 3 C-1.31 3.33 -3.62 3.66 -6 4 C-5.979 4.392 -5.979 4.392 -5.875 6.375 C-6 9 -6 9 -8 11 C-10.625 10.625 -10.625 10.625 -13 10 C-13.75 7.75 -13.75 7.75 -14 5 C-9.693 -0.347 -6.456 -0.104 0 0 Z " fill="#7F458D" transform="translate(47,143)"/>
<path d="M0 0 C0.66 0.33 1.32 0.66 2 1 C2.502 10.241 1.279 15.854 -5 23 C-4.216 23.289 -3.433 23.577 -2.625 23.875 C0 25 0 25 2 27 C-1.375 26.453 -3.082 25.945 -6 24 C-6 25.98 -6 27.96 -6 30 C-6.33 30 -6.66 30 -7 30 C-7.33 27.69 -7.66 25.38 -8 23 C-9.98 23.66 -11.96 24.32 -14 25 C-14 24.34 -14 23.68 -14 23 C-13.469 22.769 -12.938 22.539 -12.391 22.301 C-7.815 20.188 -4.796 18.362 -2 14 C-0.997 10.992 -0.697 8.462 -0.438 5.312 C-0.354 4.319 -0.27 3.325 -0.184 2.301 C-0.123 1.542 -0.062 0.782 0 0 Z " fill="#491D53" transform="translate(115,119)"/>
<path d="M0 0 C4.011 1.375 6.747 3.31 10 6 C9.154 6.075 8.309 6.15 7.438 6.227 C-0.171 7.108 -5.574 8.403 -11 14 C-11.33 14.495 -11.33 14.495 -13 17 C-16.995 15.63 -19.8 13.743 -23 11 C-22.238 11.07 -21.476 11.139 -20.691 11.211 C-13.517 11.587 -9.477 10.847 -3.84 6.312 C-2 5 -2 5 1 5 C0.67 3.35 0.34 1.7 0 0 Z " fill="#543A48" transform="translate(87,53)"/>
<path d="M0 0 C-0.33 1.32 -0.66 2.64 -1 4 C-4.75 5.125 -4.75 5.125 -7 4 C-7 4.66 -7 5.32 -7 6 C-9.99 7.495 -12.7 7.116 -16 7 C-16.99 6.67 -17.98 6.34 -19 6 C-18.67 5.01 -18.34 4.02 -18 3 C-12.266 0.543 -6.203 -0.188 0 0 Z " fill="#8AB016" transform="translate(101,45)"/>
<path d="M0 0 C2.64 0.33 5.28 0.66 8 1 C8 1.66 8 2.32 8 3 C7.01 3 6.02 3 5 3 C4.67 4.65 4.34 6.3 4 8 C4.66 8 5.32 8 6 8 C6 7.01 6 6.02 6 5 C7.32 4.67 8.64 4.34 10 4 C8.493 8.521 4.944 10.689 1 13 C-2.438 14.312 -2.438 14.312 -5 15 C-5.66 14.01 -6.32 13.02 -7 12 C-5.35 12 -3.7 12 -2 12 C-2 11.01 -2 10.02 -2 9 C-0.68 8.67 0.64 8.34 2 8 C2 7.01 2 6.02 2 5 C1.34 5 0.68 5 0 5 C0 3.333 0 1.667 0 0 Z " fill="#4D6D09" transform="translate(112,51)"/>
<path d="M0 0 C1.134 0.021 2.269 0.041 3.438 0.062 C5.53 4.493 5.53 4.493 5.062 7.375 C4.856 7.932 4.65 8.489 4.438 9.062 C1.797 9.393 -0.843 9.722 -3.562 10.062 C-4.472 6.992 -4.735 4.263 -4.562 1.062 C-3.562 0.062 -3.562 0.062 0 0 Z " fill="#91559B" transform="translate(38.5625,121.9375)"/>
<path d="M0 0 C2.5 1.812 2.5 1.812 5 4 C5 4.99 5 5.98 5 7 C5.66 7 6.32 7 7 7 C7 7.99 7 8.98 7 10 C5.68 10.33 4.36 10.66 3 11 C3 11.99 3 12.98 3 14 C0.125 14.188 0.125 14.188 -3 14 C-3.66 13.01 -4.32 12.02 -5 11 C-4.196 10.732 -3.391 10.464 -2.562 10.188 C-1.717 9.796 -0.871 9.404 0 9 C0.33 8.01 0.66 7.02 1 6 C1.66 6 2.32 6 3 6 C3 5.34 3 4.68 3 4 C-0.3 4 -3.6 4 -7 4 C-5.68 3.34 -4.36 2.68 -3 2 C-2.01 1.34 -1.02 0.68 0 0 Z " fill="#577D06" transform="translate(107,49)"/>
<path d="M0 0 C0.33 0 0.66 0 1 0 C0.67 2.97 0.34 5.94 0 9 C2.508 6.492 3.614 5.092 5 2 C6.036 7.05 6.103 11.874 6 17 C4.035 16.129 4.035 16.129 2 15 C1.638 13.674 1.303 12.341 1 11 C0.01 10.67 -0.98 10.34 -2 10 C-2.25 3.375 -2.25 3.375 0 0 Z M4 8 C5 10 5 10 5 10 Z " fill="#5B820A" transform="translate(134,70)"/>
<path d="M0 0 C0.557 0.021 0.557 0.021 3.375 0.125 C4.035 1.775 4.695 3.425 5.375 5.125 C2.728 6.586 1.481 7.125 -1.625 7.125 C-1.955 8.115 -2.285 9.105 -2.625 10.125 C-4.913 8.314 -5.577 7.518 -5.938 4.562 C-5.4 0.374 -4.095 0.141 0 0 Z " fill="#9F5FA2" transform="translate(93.625,95.875)"/>
<path d="M0 0 C2.007 0.287 4.009 0.619 6 1 C6.312 3.25 6.312 3.25 6 6 C3.875 8.438 3.875 8.438 1 10 C-2.312 9.25 -2.312 9.25 -5 8 C-5 5.69 -5 3.38 -5 1 C-4.67 1 -4.34 1 -4 1 C-3.732 1.969 -3.464 2.939 -3.188 3.938 C-2.796 4.948 -2.404 5.959 -2 7 C-1.01 7.33 -0.02 7.66 1 8 C1 7.34 1 6.68 1 6 C0.34 6 -0.32 6 -1 6 C-1.043 4.334 -1.041 2.666 -1 1 C-0.67 0.67 -0.34 0.34 0 0 Z " fill="#EFF1DE" transform="translate(135,31)"/>
<path d="M0 0 C0.315 0.042 0.315 0.042 1.906 0.254 C7.531 0.923 12.412 0.931 18 0 C17.67 0.99 17.34 1.98 17 3 C16.34 2.67 15.68 2.34 15 2 C15 2.66 15 3.32 15 4 C11.25 6.5 9.441 6.536 5 6 C2.062 3.562 2.062 3.562 0 1 C0 0.67 0 0.34 0 0 Z " fill="#4A1E54" transform="translate(115,114)"/>
<path d="M0 0 C0 0.99 0 1.98 0 3 C-0.66 3 -1.32 3 -2 3 C-2.33 3.99 -2.66 4.98 -3 6 C-3.33 5.67 -3.66 5.34 -4 5 C-9.019 4.614 -11.907 5.023 -16 8 C-15.938 5.688 -15.938 5.688 -15 3 C-9.864 -0.039 -5.89 -0.31 0 0 Z " fill="#94569A" transform="translate(62,64)"/>
<path d="M0 0 C0.33 0.99 0.66 1.98 1 3 C-3.882 7.989 -7.023 9.657 -14 10 C-15.341 10.302 -16.681 10.615 -18 11 C-18 10.34 -18 9.68 -18 9 C-19.5 7.375 -19.5 7.375 -21 6 C-20.227 6.058 -19.453 6.116 -18.656 6.176 C-11.288 6.495 -6.716 5.776 -1 1 C-0.67 0.67 -0.34 0.34 0 0 Z " fill="#6E3D76" transform="translate(133,136)"/>
<path d="M0 0 C0.99 1.32 1.98 2.64 3 4 C2.67 4.165 2.67 4.165 1 5 C1.041 5.866 1.083 6.733 1.125 7.625 C0.992 11.214 0.457 13.722 -1 17 C-2.305 18.036 -3.635 19.044 -5 20 C-5 20.99 -5 21.98 -5 23 C-4.34 23.66 -3.68 24.32 -3 25 C-3.66 26.32 -4.32 27.64 -5 29 C-6.858 25.865 -7.201 23.625 -7 20 C-7.66 19.67 -8.32 19.34 -9 19 C-8.237 18.505 -7.474 18.01 -6.688 17.5 C-1.646 12.81 -0.691 6.637 0 0 Z " fill="#4F255A" transform="translate(140,94)"/>
<path d="M0 0 C2.97 0 5.94 0 9 0 C9.33 1.65 9.66 3.3 10 5 C4.25 8 4.25 8 2 8 C1.34 5.36 0.68 2.72 0 0 Z " fill="#714877" transform="translate(78,53)"/>
<path d="M0 0 C0.629 0.021 0.629 0.021 3.812 0.125 C3.812 1.445 3.812 2.765 3.812 4.125 C3.505 4.144 3.505 4.144 1.949 4.238 C1.141 4.304 0.333 4.37 -0.5 4.438 C-1.301 4.496 -2.101 4.554 -2.926 4.613 C-6.812 5.493 -8.038 7.901 -10.188 11.125 C-10.938 9.438 -10.938 9.438 -11.188 7.125 C-8.2 2.643 -5.552 -0.182 0 0 Z " fill="#97599A" transform="translate(88.1875,59.875)"/>
<path d="M0 0 C3.63 0 7.26 0 11 0 C10.34 1.98 9.68 3.96 9 6 C8.361 5.948 8.361 5.948 5.125 5.688 C4.765 5.658 4.765 5.658 2.945 5.512 C1 5 1 5 -1 2 C-0.67 1.34 -0.34 0.68 0 0 Z " fill="#72990C" transform="translate(96,54)"/>
<path d="M0 0 C0.66 0 1.32 0 2 0 C0.796 2.494 -0.454 4.681 -2 7 C-2.125 10.188 -2.125 10.188 -2 13 C-1.34 12.67 -0.68 12.34 0 12 C0.66 12.66 1.32 13.32 2 14 C0.544 14.363 -0.915 14.715 -2.375 15.062 C-3.187 15.26 -3.999 15.457 -4.836 15.66 C-7 16 -7 16 -9 15 C-7.68 13.68 -6.36 12.36 -5 11 C-5.66 10.67 -6.32 10.34 -7 10 C-5.326 6.043 -2.869 3.155 0 0 Z " fill="#92A61A" transform="translate(131,45)"/>
<path d="M0 0 C0.66 0.66 1.32 1.32 2 2 C1.67 2.99 1.34 3.98 1 5 C0.538 12.269 0.538 12.269 2.5 15.375 C2.748 15.643 2.748 15.643 4 17 C4 17.66 4 18.32 4 19 C3.34 19 2.68 19 2 19 C1.67 19.66 1.34 20.32 1 21 C0.01 20.34 -0.98 19.68 -2 19 C-2.363 15.918 -2.363 15.918 -2.312 12.188 C-2.309 10.964 -2.305 9.741 -2.301 8.48 C-2.018 5.211 -1.405 2.938 0 0 Z " fill="#561E5B" transform="translate(82,100)"/>
<path d="M0 0 C0.66 0.99 1.32 1.98 2 3 C-1 4 -1 4 -5 4 C-5.33 5.65 -5.66 7.3 -6 9 C-5.34 9 -4.68 9 -4 9 C-4 9.66 -4 10.32 -4 11 C-7.875 10.125 -7.875 10.125 -9 9 C-9.456 3.759 -9.456 3.759 -7.875 1.125 C-5.131 -0.521 -3.131 -0.4 0 0 Z " fill="#7E9D25" transform="translate(140,28)"/>
<path d="M0 0 C0.99 0.33 1.98 0.66 3 1 C2.67 1.165 2.67 1.165 1 2 C0.732 2.619 0.464 3.238 0.188 3.875 C-1.422 6.755 -3.046 7.556 -6 9 C-9.113 9.293 -9.113 9.293 -12.312 9.188 C-12.847 9.174 -12.847 9.174 -15.551 9.105 C-15.955 9.088 -15.955 9.088 -18 9 C-18 8.67 -18 8.34 -18 8 C-17.602 7.921 -17.602 7.921 -15.586 7.52 C-8.921 6.052 -4.979 4.596 0 0 Z " fill="#CDB295" transform="translate(59,168)"/>
<path d="M0 0 C4.818 -0.385 8.146 -0.419 12.562 1.75 C12.965 2.121 12.965 2.121 15 4 C15 5.32 15 6.64 15 8 C14.67 8.165 14.67 8.165 13 9 C13 8.01 13 7.02 13 6 C9.7 5.01 6.4 4.02 3 3 C3 2.34 3 1.68 3 1 C2.01 0.67 1.02 0.34 0 0 Z " fill="#783981" transform="translate(65,94)"/>
<path d="M0 0 C1.376 1.29 2.708 2.627 4 4 C4 4.66 4 5.32 4 6 C4.66 6 5.32 6 6 6 C6 6.66 6 7.32 6 8 C7.98 7.67 9.96 7.34 12 7 C9.73 9.27 8.026 9.991 5 11 C3.68 11 2.36 11 1 11 C-0.283 7.15 -0.066 4.053 0 0 Z " fill="#491950" transform="translate(109,73)"/>
<path d="M0 0 C3.602 0.309 4.993 0.994 7.812 3.375 C10 6 10 6 10 9 C10.66 9 11.32 9 12 9 C13.046 10.638 14.04 12.31 15 14 C15.982 15.346 16.977 16.684 18 18 C16.062 17.625 16.062 17.625 14 17 C13.67 16.34 13.34 15.68 13 15 C12.67 17.64 12.34 20.28 12 23 C11.67 23 11.34 23 11 23 C10.986 22.299 10.972 21.597 10.957 20.875 C10.613 14.033 9.481 9.275 5 4 C2.188 1.5 2.188 1.5 0 0 Z " fill="#572D57" transform="translate(97,59)"/>
<path d="M0 0 C0.485 0.003 0.485 0.003 2.941 0.02 C5.438 0.188 5.438 0.188 7.438 1.188 C7.438 2.178 7.438 3.167 7.438 4.188 C8.757 4.847 10.077 5.508 11.438 6.188 C9.127 6.188 6.817 6.188 4.438 6.188 C4.438 4.867 4.438 3.547 4.438 2.188 C2.458 2.352 2.458 2.352 -7.562 3.188 C-7.562 3.847 -7.562 4.508 -7.562 5.188 C-8.222 5.188 -8.882 5.188 -9.562 5.188 C-7.838 0.014 -4.929 -0.072 0 0 Z " fill="#75942E" transform="translate(143.5625,51.8125)"/>
<path d="M0 0 C1.382 4.145 1.382 4.145 0 7 C-4.861 9.43 -9.703 9.212 -15 9 C-15.33 8.34 -15.66 7.68 -16 7 C-15.013 6.83 -14.025 6.66 -13.008 6.484 C-11.726 6.242 -10.445 6 -9.125 5.75 C-7.849 5.518 -6.573 5.286 -5.258 5.047 C-2 4 -2 4 -0.555 1.891 C-0.372 1.267 -0.189 0.643 0 0 Z " fill="#693874" transform="translate(80,161)"/>
<path d="M0 0 C0.33 0.66 0.66 1.32 1 2 C1.66 1.67 2.32 1.34 3 1 C3 2.65 3 4.3 3 6 C2.34 6.33 2.34 6.33 -1 8 C-2.5 6.625 -2.5 6.625 -4 5 C-4 4.34 -4 3.68 -4 3 C-4.66 3 -5.32 3 -6 3 C-6 2.01 -6 1.02 -6 0 C-3 -1 -3 -1 0 0 Z " fill="#7D5088" transform="translate(117,67)"/>
<path d="M0 0 C3.383 2.256 3.601 3.362 5 7 C8.065 8.533 11.268 8.103 14.625 8.062 C15.331 8.058 16.038 8.053 16.766 8.049 C18.51 8.037 20.255 8.019 22 8 C18.142 11.351 15.444 11.506 10.477 11.359 C6.874 10.837 4.709 9.37 2 7 C0 4 0 4 0 0 Z " fill="#733D7E" transform="translate(31,163)"/>
<path d="M0 0 C-0.33 0.66 -0.66 1.32 -1 2 C-3.274 2.601 -5.551 2.956 -7.871 3.34 C-10 4 -10 4 -12 7 C-12.414 9.043 -12.414 9.043 -12.625 11.188 C-12.749 12.446 -12.873 13.704 -13 15 C-15.187 13.269 -15.942 12.438 -16.312 9.625 C-15.816 5.455 -13.43 3.954 -10.312 1.383 C-6.677 -0.791 -4.141 -0.518 0 0 Z " fill="#824287" transform="translate(100,93)"/>
<path d="M0 0 C0.32 0.155 0.32 0.155 1.938 0.938 C7.223 2.771 12.577 3.635 18 2 C16.875 4.5 16.875 4.5 15 7 C11.84 7.387 9.861 7.431 7 6 C7 5.34 7 4.68 7 4 C4.69 3.67 2.38 3.34 0 3 C0 2.01 0 1.02 0 0 Z " fill="#D4B899" transform="translate(83,159)"/>
<path d="M0 0 C1.562 1.188 1.562 1.188 3 3 C2.579 7.421 2.579 7.421 1 9 C0.763 11.526 0.578 14.031 0.438 16.562 C0.394 17.273 0.351 17.984 0.307 18.717 C0.2 20.478 0.1 22.239 0 24 C-0.33 24 -0.66 24 -1 24 C-1.33 18.06 -1.66 12.12 -2 6 C-1.34 5.67 -0.68 5.34 0 5 C0 3.35 0 1.7 0 0 Z " fill="#758F34" transform="translate(160,79)"/>
<path d="M0 0 C0.66 0 1.32 0 2 0 C2.33 1.32 2.66 2.64 3 4 C6.3 4.66 9.6 5.32 13 6 C9.565 8.29 8.015 8.178 4 8 C3.67 8.66 3.34 9.32 3 10 C2.34 10 1.68 10 1 10 C-0.158 6.527 -0.069 3.639 0 0 Z " fill="#72427C" transform="translate(32,105)"/>
<path d="M0 0 C2.31 0.66 4.62 1.32 7 2 C7.33 3.98 7.66 5.96 8 8 C5.506 6.796 3.319 5.546 1 4 C0.01 4.66 -0.98 5.32 -2 6 C-3.32 6 -4.64 6 -6 6 C-5.67 5.01 -5.34 4.02 -5 3 C-3.677 2.628 -2.343 2.294 -1 2 C-0.67 1.34 -0.34 0.68 0 0 Z " fill="#5D830B" transform="translate(106,46)"/>
<path d="M0 0 C1.98 0.33 1.98 0.33 12 2 C12 2.33 12 2.66 12 3 C11.073 3.205 10.146 3.41 9.191 3.621 C7.994 3.891 6.796 4.16 5.562 4.438 C4.368 4.704 3.173 4.971 1.941 5.246 C-1 6 -1 6 -2 7 C-3.666 7.041 -5.334 7.043 -7 7 C-6.216 6.402 -5.432 5.804 -4.625 5.188 C-2 3 -2 3 0 0 Z " fill="#D7C09D" transform="translate(60,170)"/>
<path d="M0 0 C0.99 0.33 1.98 0.66 3 1 C3.027 2.417 3.047 3.833 3.062 5.25 C3.074 6.039 3.086 6.828 3.098 7.641 C3.004 9.907 2.632 11.829 2 14 C2.66 14.33 3.32 14.66 4 15 C2.68 15.33 1.36 15.66 0 16 C0 15.34 0 14.68 0 14 C-1.98 14 -3.96 14 -6 14 C-6 13.67 -6 13.34 -6 13 C-4.35 13 -2.7 13 -1 13 C-1 12.34 -1 11.68 -1 11 C-0.34 11 0.32 11 1 11 C1 8.36 1 5.72 1 3 C0.34 3 -0.32 3 -1 3 C-0.67 2.01 -0.34 1.02 0 0 Z " fill="#688B0F" transform="translate(120,38)"/>
<path d="M0 0 C2.125 0.375 2.125 0.375 4 1 C3.25 5.75 3.25 5.75 1 8 C-1.125 7.625 -1.125 7.625 -3 7 C-2.25 2.25 -2.25 2.25 0 0 Z " fill="#D099CB" transform="translate(62,99)"/>
<path d="M0 0 C0.66 0.33 1.32 0.66 2 1 C1.598 1.423 1.598 1.423 -0.438 3.562 C-3.237 6.865 -3.579 9.701 -4 14 C-4.33 14.165 -4.33 14.165 -6 15 C-7.117 11.648 -7.146 9.356 -6 6 C-3.5 3.25 -3.5 3.25 -1 1 C-0.67 0.67 -0.34 0.34 0 0 Z " fill="#672F70" transform="translate(116,82)"/>
<path d="M0 0 C0.66 0.33 1.32 0.66 2 1 C1.886 2.459 1.758 3.917 1.625 5.375 C1.555 6.187 1.486 6.999 1.414 7.836 C1 10 1 10 -1 12 C-1.66 10.68 -2.32 9.36 -3 8 C-3.66 8.33 -3.66 8.33 -7 10 C-6.34 7.03 -5.68 4.06 -5 1 C-3.68 1.99 -2.36 2.98 -1 4 C-0.67 2.68 -0.34 1.36 0 0 Z " fill="#769D0D" transform="translate(112,35)"/>
<path d="M0 0 C0.464 0.349 0.928 0.699 1.406 1.059 C8.879 5.98 16.333 5.883 25 6 C25 6.33 25 6.66 25 7 C21.958 7.081 18.918 7.141 15.875 7.188 C15.447 7.2 15.447 7.2 13.281 7.264 C8.054 7.324 4.567 6.853 0 4 C0 2.68 0 1.36 0 0 Z " fill="#E9D8BF" transform="translate(32,171)"/>
<path d="M0 0 C0.66 0.33 1.32 0.66 2 1 C-2.402 6.473 -5.686 7.809 -12.609 8.773 C-15 9 -15 9 -17 9 C-17 8.34 -17 7.68 -17 7 C-16.051 6.959 -15.103 6.917 -14.125 6.875 C-9.444 6.262 -6.002 3.749 -2.137 1.18 C-1.432 0.79 -0.726 0.401 0 0 Z " fill="#F4E5CE" transform="translate(116,163)"/>
<path d="M0 0 C0.66 0.33 1.32 0.66 2 1 C2 1.99 2 2.98 2 4 C0.252 4.365 -1.498 4.716 -3.25 5.062 C-3.737 5.161 -3.737 5.161 -6.203 5.66 C-8.868 5.984 -10.489 5.855 -13 5 C-11.317 2.97 -10.391 2.084 -7.773 1.523 C-6.982 1.474 -6.19 1.425 -5.375 1.375 C-1.083 1.083 -1.083 1.083 0 0 Z " fill="#ECD9BB" transform="translate(104,166)"/>
<path d="M0 0 C0.33 0.99 0.66 1.98 1 3 C-2.366 6.062 -4.95 6.48 -9.438 6.75 C-9.994 6.789 -9.994 6.789 -12.809 6.984 C-15.723 6.999 -18.181 6.696 -21 6 C-20.67 4.68 -20.34 3.36 -20 2 C-19.505 2.33 -19.505 2.33 -17 4 C-11.029 4.791 -6.153 4.303 -1 1 C-0.67 0.67 -0.34 0.34 0 0 Z " fill="#D8C5BD" transform="translate(132,142)"/>
<path d="M0 0 C1.98 0 3.96 0 6 0 C6.33 1.32 6.66 2.64 7 4 C5.68 4.99 4.36 5.98 3 7 C1.68 6.34 0.36 5.68 -1 5 C-0.67 3.35 -0.34 1.7 0 0 Z " fill="#6D3978" transform="translate(122,127)"/>
<path d="M0 0 C2.169 0.506 4 1 6 2 C7.537 2.225 9.08 2.408 10.625 2.562 C11.442 2.646 12.26 2.73 13.102 2.816 C13.728 2.877 14.355 2.938 15 3 C15 3.33 15 3.66 15 4 C11.7 4.33 8.4 4.66 5 5 C5 5.66 5 6.32 5 7 C3.68 6.67 2.36 6.34 1 6 C0.67 4.02 0.34 2.04 0 0 Z " fill="#74367C" transform="translate(71,84)"/>
<path d="M0 0 C2.097 2.36 2.969 3.546 3.188 6.75 C3.126 7.492 3.064 8.235 3 9 C2.484 8.732 1.969 8.464 1.438 8.188 C-0.525 7.231 -2.538 6.379 -4.562 5.562 C-8 4 -8 4 -11 1 C-9.185 1.495 -9.185 1.495 0 4 C0 2.68 0 1.36 0 0 Z " fill="#779A0A" transform="translate(99,33)"/>
<path d="M0 0 C2.155 1.58 4.106 3.106 6 5 C6.195 7.602 6.195 7.602 6.125 10.625 C6.107 11.628 6.089 12.631 6.07 13.664 C6.059 14.049 6.059 14.049 6 16 C5.67 16 5.34 16 5 16 C4.67 13.36 4.34 10.72 4 8 C3.34 9.98 2.68 11.96 2 14 C1.143 10.919 0.731 7.932 0.438 4.75 C0.354 3.858 0.27 2.966 0.184 2.047 C0.123 1.371 0.062 0.696 0 0 Z " fill="#714978" transform="translate(132,118)"/>
<path d="M0 0 C-0.745 7.745 -0.745 7.745 -4 11 C-4.66 11 -5.32 11 -6 11 C-4.783 3.348 -4.783 3.348 -4 1 C-2 0 -2 0 0 0 Z " fill="#734283" transform="translate(143,106)"/>
<path d="M0 0 C0.66 0.33 1.32 0.66 2 1 C0.35 2.98 -1.3 4.96 -3 7 C-6.995 5.63 -9.8 3.743 -13 1 C-12.573 1.006 -12.573 1.006 -10.41 1.035 C-9.858 1.04 -9.858 1.04 -7.062 1.062 C-6.511 1.068 -6.511 1.068 -3.723 1.098 C-1 1 -1 1 0 0 Z " fill="#55225F" transform="translate(77,63)"/>
<path d="M0 0 C2.062 0.438 2.062 0.438 4 1 C3.01 1 2.02 1 1 1 C1.289 1.687 1.578 2.374 1.875 3.082 C2.246 3.983 2.618 4.884 3 5.812 C3.371 6.706 3.743 7.599 4.125 8.52 C5 11 5 11 5 14 C6.5 16.188 6.5 16.188 8 18 C7.01 18 6.02 18 5 18 C1.493 13.771 0.501 10.406 0 5 C-0.103 4.608 -0.103 4.608 -0.625 2.625 C-0.749 2.089 -0.873 1.552 -1 1 C-0.67 0.67 -0.34 0.34 0 0 Z " fill="#6C881E" transform="translate(80,29)"/>
<path d="M0 0 C1.031 0.371 2.062 0.743 3.125 1.125 C7.334 2.075 9.122 1.703 13 0 C11.438 2.062 11.438 2.062 9 4 C5.25 3.75 5.25 3.75 2 3 C2 3.66 2 4.32 2 5 C2.66 5 3.32 5 4 5 C4.33 5.99 4.66 6.98 5 8 C4.01 8 3.02 8 2 8 C0.25 5.688 0.25 5.688 -1 3 C-0.67 2.01 -0.34 1.02 0 0 Z " fill="#6E367A" transform="translate(32,135)"/>
<path d="M0 0 C0.66 0 1.32 0 2 0 C3.312 2.623 2.896 4.23 2.562 7.125 C2.461 8.035 2.359 8.945 2.254 9.883 C2.212 10.232 2.212 10.232 2 12 C0.066 10.382 -0.914 9.526 -1.328 6.992 C-1.111 1.111 -1.111 1.111 0 0 Z " fill="#582560" transform="translate(86,124)"/>
<path d="M0 0 C0.536 0.309 0.536 0.309 3.25 1.875 C5.798 3.332 8.353 4.729 11 6 C7.522 7.159 5.541 6.708 2 6 C1.67 7.65 1.34 9.3 1 11 C0.67 11 0.34 11 0 11 C-0.194 9.355 -0.38 7.709 -0.562 6.062 C-0.667 5.146 -0.771 4.229 -0.879 3.285 C-0.919 2.531 -0.959 1.777 -1 1 C-0.67 0.67 -0.34 0.34 0 0 Z " fill="#461852" transform="translate(88,137)"/>
<path d="M0 0 C1.32 0 2.64 0 4 0 C4 0.99 4 1.98 4 3 C3.34 3 2.68 3 2 3 C1.918 3.784 1.835 4.567 1.75 5.375 C1 8 1 8 -0.875 9.375 C-3 10 -3 10 -6 9 C-5.598 8.629 -5.598 8.629 -3.562 6.75 C-1.23 4.247 -0.365 3.282 0 0 Z " fill="#602264" transform="translate(105,108)"/>
<path d="M0 0 C0.406 0.012 0.406 0.012 2.461 0.07 C2.87 0.079 2.87 0.079 4.938 0.125 C5.251 0.137 5.251 0.137 6.836 0.195 C6.516 0.247 6.516 0.247 4.898 0.508 C4.218 0.735 3.537 0.962 2.836 1.195 C2.506 2.185 2.176 3.175 1.836 4.195 C-1.727 5.883 -1.727 5.883 -5.164 7.195 C-4.086 0.369 -4.086 0.369 0 0 Z " fill="#80468C" transform="translate(121.1640625,80.8046875)"/>
<path d="M0 0 C0.598 0.206 1.196 0.412 1.812 0.625 C1.5 2.5 1.5 2.5 0.812 4.625 C-2.188 6.625 -2.188 6.625 -5.188 6.625 C-5.375 4.25 -5.375 4.25 -5.188 1.625 C-2.188 -0.375 -2.188 -0.375 0 0 Z " fill="#CC95CA" transform="translate(53.1875,68.375)"/>
<path d="M0 0 C0.402 0.01 0.402 0.01 2.438 0.062 C2.108 1.713 1.778 3.362 1.438 5.062 C-0.543 5.392 -2.522 5.722 -4.562 6.062 C-3.49 0.085 -3.49 0.085 0 0 Z " fill="#D4A0D0" transform="translate(84.5625,64.9375)"/>
<path d="M0 0 C-1.25 3.653 -1.671 4.781 -5 7 C-5.66 7 -6.32 7 -7 7 C-8.382 8.626 -9.719 10.293 -11 12 C-10.516 7.688 -9.38 5.941 -6.062 3.188 C-5.352 2.583 -4.642 1.978 -3.91 1.355 C-2 0 -2 0 0 0 Z " fill="#8E5094" transform="translate(64,95)"/>
<path d="M0 0 C1.98 0.33 1.98 0.33 12 2 C12 2.99 12 3.98 12 5 C7.744 6.252 5.012 5.915 1 4 C0.67 2.68 0.34 1.36 0 0 Z " fill="#4F1F59" transform="translate(63,157)"/>
<path d="M0 0 C4.75 1.875 4.75 1.875 7 3 C8.537 3.225 10.08 3.408 11.625 3.562 C12.442 3.646 13.26 3.73 14.102 3.816 C14.728 3.877 15.355 3.938 16 4 C16 4.33 16 4.66 16 5 C15.698 5.055 15.698 5.055 14.172 5.332 C6.234 6.907 6.234 6.907 3 10 C3.248 9.093 3.495 8.185 3.75 7.25 C4 4 4 4 2.062 1.625 C1.382 1.089 0.701 0.552 0 0 Z " fill="#3F1247" transform="translate(55,125)"/>
<path d="M0 0 C1.245 2.491 0.777 3.411 0 6 C3.875 2.25 3.875 2.25 5 0 C5.66 0 6.32 0 7 0 C5.988 3.403 5.352 4.757 2.375 6.812 C1.591 7.204 0.808 7.596 0 8 C-0.99 7.34 -1.98 6.68 -3 6 C-2.427 3.133 -2.139 2.139 0 0 Z " fill="#663D6F" transform="translate(137,111)"/>
<path d="M0 0 C-0.495 0.495 -0.495 0.495 -3 3 C-1.35 3.33 0.3 3.66 2 4 C2 4.33 2 4.66 2 5 C-0.97 5 -3.94 5 -7 5 C-6.625 2.562 -6.625 2.562 -6 0 C-3.509 -1.245 -2.589 -0.777 0 0 Z " fill="#6A881D" transform="translate(85,48)"/>
<path d="M0 0 C0.33 0.99 0.66 1.98 1 3 C-0.625 6.125 -0.625 6.125 -3 9 C-5.648 9.68 -5.648 9.68 -8 10 C-7.047 8.517 -6.088 7.039 -5.125 5.562 C-4.858 5.151 -4.858 5.151 -3.508 3.066 C-2 1 -2 1 0 0 Z " fill="#7F3E86" transform="translate(110,111)"/>
<path d="M0 0 C2.31 0.33 4.62 0.66 7 1 C5.68 1.33 4.36 1.66 3 2 C2.89 2.699 2.781 3.397 2.668 4.117 C2.509 5.027 2.351 5.937 2.188 6.875 C2.037 7.78 1.886 8.685 1.73 9.617 C1 12 1 12 -2 14 C-1.34 9.38 -0.68 4.76 0 0 Z " fill="#D9D3CD" transform="translate(145,101)"/>
<path d="M0 0 C0.33 0 0.66 0 1 0 C0.67 2.97 0.34 5.94 0 9 C-1.32 9 -2.64 9 -4 9 C-4.33 9.66 -4.66 10.32 -5 11 C-5 10.01 -5 9.02 -5 8 C-4.34 8 -3.68 8 -3 8 C-3 7.01 -3 6.02 -3 5 C-3.99 4.67 -4.98 4.34 -6 4 C-5.598 3.856 -5.598 3.856 -3.562 3.125 C-1 2 -1 2 0 0 Z " fill="#6C3175" transform="translate(112,103)"/>
<path d="M0 0 C0.99 0.33 1.98 0.66 3 1 C3 1.99 3 2.98 3 4 C1.68 4.33 0.36 4.66 -1 5 C-1 5.99 -1 6.98 -1 8 C-2.98 8 -4.96 8 -7 8 C-7.33 7.34 -7.66 6.68 -8 6 C-7.051 5.752 -6.103 5.505 -5.125 5.25 C-2 4 -2 4 -0.625 1.875 C-0.419 1.256 -0.213 0.638 0 0 Z " fill="#56750D" transform="translate(111,55)"/>
<path d="M0 0 C1.32 0 2.64 0 4 0 C3.67 1.65 3.34 3.3 3 5 C1.35 5.33 -0.3 5.66 -2 6 C-1.125 1.125 -1.125 1.125 0 0 Z " fill="#CC9CCB" transform="translate(37,148)"/>
<path d="M0 0 C1.32 0 2.64 0 4 0 C3.67 1.65 3.34 3.3 3 5 C1.35 5.33 -0.3 5.66 -2 6 C-1.125 1.125 -1.125 1.125 0 0 Z " fill="#C791C6" transform="translate(38,122)"/>
<path d="M0 0 C0.33 0.99 0.66 1.98 1 3 C-2.833 8.637 -2.833 8.637 -6.812 9.875 C-7.173 9.896 -7.173 9.896 -9 10 C-8.064 8.894 -7.126 7.791 -6.188 6.688 C-5.665 6.073 -5.143 5.458 -4.605 4.824 C-3.128 3.146 -1.6 1.561 0 0 Z " fill="#7C4388" transform="translate(137,104)"/>
<path d="M0 0 C1.675 0.286 3.344 0.618 5 1 C4.67 2.32 4.34 3.64 4 5 C2.68 5.33 1.36 5.66 0 6 C-0.382 4.344 -0.714 2.675 -1 1 C-0.67 0.67 -0.34 0.34 0 0 Z " fill="#C48AC1" transform="translate(117,87)"/>
<path d="M0 0 C0.495 0.33 0.495 0.33 3 2 C3.431 6.054 3.3 7.55 1 11 C0.34 11 -0.32 11 -1 11 C-0.67 7.37 -0.34 3.74 0 0 Z " fill="#6D9A11" transform="translate(135,68)"/>
<path d="M0 0 C0.99 0.66 1.98 1.32 3 2 C1.35 2.33 -0.3 2.66 -2 3 C-2 3.99 -2 4.98 -2 6 C-4.31 6.33 -6.62 6.66 -9 7 C-7.918 3.514 -6.866 2.927 -3.562 1.125 C-2.387 0.754 -1.211 0.383 0 0 Z " fill="#8B7B26" transform="translate(116,61)"/>
<path d="M0 0 C0.825 0.33 0.825 0.33 5 2 C5 3.32 5 4.64 5 6 C3.02 6 1.04 6 -1 6 C-1.33 5.34 -1.66 4.68 -2 4 C-1.062 1.875 -1.062 1.875 0 0 Z " fill="#9C62A8" transform="translate(75,56)"/>
<path d="M0 0 C1.65 0 3.3 0 5 0 C4.67 1.32 4.34 2.64 4 4 C0.25 5.125 0.25 5.125 -2 4 C-2 4.66 -2 5.32 -2 6 C-3.98 6.33 -5.96 6.66 -8 7 C-5.385 4.88 -2.804 2.869 0 1 C0 0.67 0 0.34 0 0 Z " fill="#80A412" transform="translate(96,45)"/>
<path d="M0 0 C0.33 0 0.66 0 1 0 C1.027 1.937 1.046 3.875 1.062 5.812 C1.074 6.891 1.086 7.97 1.098 9.082 C1 12 1 12 0 15 C-0.66 14.67 -1.32 14.34 -2 14 C-2.054 12.417 -2.093 10.834 -2.125 9.25 C-2.148 8.368 -2.171 7.487 -2.195 6.578 C-1.991 3.886 -1.366 2.301 0 0 Z " fill="#58225D" transform="translate(70,75)"/>
<path d="M0 0 C0.66 0 1.32 0 2 0 C0.667 3.333 -0.667 6.667 -2 10 C-3.32 9.67 -4.64 9.34 -6 9 C-4.472 5.562 -2.498 2.81 0 0 Z " fill="#390F3E" transform="translate(84,119)"/>
<path d="M0 0 C4.29 0.66 8.58 1.32 13 2 C10.149 4.851 7.965 4.863 4 5 C1.562 3.125 1.562 3.125 0 1 C0 0.67 0 0.34 0 0 Z " fill="#421749" transform="translate(115,114)"/>
<path d="M0 0 C2.875 0.25 2.875 0.25 6 1 C7.375 3.062 7.375 3.062 8 5 C7.67 5.495 7.67 5.495 6 8 C5.67 7.01 5.34 6.02 5 5 C4.67 5.165 4.67 5.165 3 6 C2.67 5.01 2.34 4.02 2 3 C1.34 2.67 0.68 2.34 0 2 C0 1.34 0 0.68 0 0 Z " fill="#6B4269" transform="translate(114,64)"/>
<path d="M0 0 C-0.33 1.65 -0.66 3.3 -1 5 C-1.33 4.34 -1.66 3.68 -2 3 C-2.743 3.763 -3.485 4.526 -4.25 5.312 C-6.426 7.439 -8.522 9.256 -11 11 C-8.992 6.481 -5.552 0 0 0 Z " fill="#8D9A2B" transform="translate(135,42)"/>
<path d="M0 0 C-1.051 1.488 -1.051 1.488 -3 3 C-6.355 3.293 -6.355 3.293 -10.188 3.188 C-11.46 3.16 -12.732 3.133 -14.043 3.105 C-15.019 3.071 -15.995 3.036 -17 3 C-16.67 2.34 -16.34 1.68 -16 1 C-15.007 1.016 -15.007 1.016 -10.043 1.098 C-6.557 0.931 -3.596 -0.097 0 0 Z " fill="#71377A" transform="translate(78,125)"/>
<path d="M0 0 C0 0.33 0 0.66 0 1 C-1.279 1.227 -2.558 1.454 -3.875 1.688 C-6.09 2.23 -6.09 2.23 -8 3 C-9.438 5.5 -9.438 5.5 -10 8 C-10.33 8.66 -10.66 9.32 -11 10 C-11.66 10 -12.32 10 -13 10 C-12.11 6.442 -11.295 4.311 -8.75 1.625 C-5.553 -0.264 -3.651 -0.34 0 0 Z " fill="#5F3768" transform="translate(46,95)"/>
<path d="M0 0 C0.66 0 1.32 0 2 0 C2 0.66 2 1.32 2 2 C2.66 2 3.32 2 4 2 C4 2.66 4 3.32 4 4 C4.99 4.33 5.98 4.66 7 5 C7.33 5.495 7.33 5.495 9 8 C8.01 8.33 7.02 8.66 6 9 C4.991 8.072 3.993 7.132 3 6.188 C2.722 5.926 2.722 5.926 1.312 4.605 C0 3 0 3 0 0 Z " fill="#6B3877" transform="translate(109,68)"/>
<path d="M0 0 C2.104 3.155 2.264 3.561 1.812 7.062 C1.736 7.755 1.66 8.447 1.582 9.16 C1 11 1 11 -2 13 C-1.392 8.655 -0.738 4.324 0 0 Z " fill="#4B1853" transform="translate(113,103)"/>
<path d="M0 0 C0.33 0 0.66 0 1 0 C1.33 2.64 1.66 5.28 2 8 C2.66 7.67 3.32 7.34 4 7 C3.75 8.875 3.75 8.875 3 11 C2.34 11.33 2.34 11.33 -1 13 C-0.67 8.71 -0.34 4.42 0 0 Z " fill="#D1D5B7" transform="translate(123,39)"/>
<path d="M0 0 C1.32 0 2.64 0 4 0 C3.67 1.65 3.34 3.3 3 5 C1.35 5 -0.3 5 -2 5 C-1.125 1.125 -1.125 1.125 0 0 Z " fill="#C18DC3" transform="translate(64,136)"/>
<path d="M0 0 C2 1.312 2 1.312 4 3 C4 3.99 4 4.98 4 6 C2.35 6 0.7 6 -1 6 C-1 5.34 -1 4.68 -1 4 C-1.66 4 -2.32 4 -3 4 C-3 3.34 -3 2.68 -3 2 C-2.01 1.34 -1.02 0.68 0 0 Z " fill="#7B3E84" transform="translate(100,61)"/>
<path d="M0 0 C0.688 1.75 0.688 1.75 1 4 C0.014 5.344 -0.988 6.676 -2 8 C-2.688 11.25 -2.688 11.25 -3 14 C-3.33 14 -3.66 14 -4 14 C-4.432 7.739 -3.927 4.909 0 0 Z " fill="#703177" transform="translate(81,99)"/>
<path d="M0 0 C0.99 0 1.98 0 3 0 C2.718 1.627 2.424 3.251 2.125 4.875 C1.963 5.78 1.8 6.685 1.633 7.617 C1 10 1 10 -1 12 C-1.027 10.563 -1.046 9.125 -1.062 7.688 C-1.074 6.887 -1.086 6.086 -1.098 5.262 C-1 3 -1 3 0 0 Z " fill="#F0F0E6" transform="translate(161,91)"/>
<path d="M0 0 C0.99 0.66 1.98 1.32 3 2 C2.25 4.438 2.25 4.438 1 7 C-1.125 7.812 -1.125 7.812 -3 8 C-2.372 5.071 -1.414 2.639 0 0 Z " fill="#63286A" transform="translate(70,68)"/>
<path d="M0 0 C1.938 0.375 1.938 0.375 4 1 C4.33 1.66 4.66 2.32 5 3 C4.691 3.134 4.691 3.134 3.125 3.812 C1 5 1 5 -1 8 C-1.625 5.688 -1.625 5.688 -2 3 C-1.34 2.01 -0.68 1.02 0 0 Z " fill="#8D5595" transform="translate(35,145)"/>
<path d="M0 0 C1.459 0.114 2.917 0.242 4.375 0.375 C4.781 0.41 4.781 0.41 6.836 0.586 C9 1 9 1 11 3 C6.375 5.125 6.375 5.125 3 4 C1.312 1.938 1.312 1.938 0 0 Z " fill="#693C70" transform="translate(112,142)"/>
<path d="M0 0 C1.32 0 2.64 0 4 0 C4 1.65 4 3.3 4 5 C2.35 4.67 0.7 4.34 -1 4 C-0.67 2.68 -0.34 1.36 0 0 Z " fill="#D099C9" transform="translate(91,98)"/>
<path d="M0 0 C3.958 0.565 6.76 1.635 10 4 C11.145 6.105 11.145 6.105 12 8 C9.997 6.859 7.998 5.712 6 4.562 C4.886 3.924 3.772 3.286 2.625 2.629 C1.759 2.091 0.892 1.554 0 1 C0 0.67 0 0.34 0 0 Z " fill="#48392B" transform="translate(116,63)"/>
<path d="M0 0 C1.98 0 3.96 0 6 0 C3.47 3.092 0.775 3.909 -3 5 C-3.66 4.01 -4.32 3.02 -5 2 C-3.35 2 -1.7 2 0 2 C0 1.34 0 0.68 0 0 Z " fill="#4B5814" transform="translate(110,61)"/>
<path d="M0 0 C0.66 0 1.32 0 2 0 C2 2.64 2 5.28 2 8 C1.01 8 0.02 8 -1 8 C-1.042 5.667 -1.041 3.333 -1 1 C-0.67 0.67 -0.34 0.34 0 0 Z " fill="#70990B" transform="translate(119,41)"/>
<path d="M0 0 C0.66 0.33 1.32 0.66 2 1 C2.125 6.75 2.125 6.75 1 9 C0.34 9 -0.32 9 -1 9 C-1.125 2.25 -1.125 2.25 0 0 Z " fill="#779D16" transform="translate(145,82)"/>
<path d="M0 0 C-0.33 0.165 -0.33 0.165 -2 1 C-2.66 0.67 -3.32 0.34 -4 0 C-3.67 0.99 -3.34 1.98 -3 3 C-4.65 2.67 -6.3 2.34 -8 2 C-8 1.01 -8 0.02 -8 -1 C-4.597 -2.215 -3.067 -1.862 0 0 Z " fill="#77990C" transform="translate(151,73)"/>
<path d="M0 0 C2.341 2.128 3.707 4.116 5 7 C2.69 6.67 0.38 6.34 -2 6 C-1.34 5.67 -0.68 5.34 0 5 C0 3.35 0 1.7 0 0 Z " fill="#481747" transform="translate(70,87)"/>
<path d="M0 0 C2.062 0.375 2.062 0.375 4 1 C4.66 0.67 5.32 0.34 6 0 C6.66 0.66 7.32 1.32 8 2 C6.544 2.363 5.085 2.715 3.625 3.062 C3.219 3.161 3.219 3.161 1.164 3.66 C-1 4 -1 4 -3 3 C-1.75 1.438 -1.75 1.438 0 0 Z " fill="#B2BA81" transform="translate(125,57)"/>
<path d="M0 0 C0.412 0.516 0.825 1.031 1.25 1.562 C1.539 1.8 1.539 1.8 3 3 C5.188 2.688 5.188 2.688 7 2 C5.25 6.875 5.25 6.875 3 8 C3 7.01 3 6.02 3 5 C1.68 4.67 0.36 4.34 -1 4 C-0.67 2.68 -0.34 1.36 0 0 Z " fill="#779E0F" transform="translate(136,55)"/>
<path d="M0 0 C0.33 0 0.66 0 1 0 C1 1.65 1 3.3 1 5 C1.66 5.33 2.32 5.66 3 6 C1.68 6.33 0.36 6.66 -1 7 C-1 6.34 -1 5.68 -1 5 C-2.98 5 -4.96 5 -7 5 C-7 4.67 -7 4.34 -7 4 C-5.35 4 -3.7 4 -2 4 C-2 3.34 -2 2.68 -2 2 C-1.34 2 -0.68 2 0 2 C0 1.34 0 0.68 0 0 Z " fill="#5F7F0E" transform="translate(121,47)"/>
<path d="M0 0 C0 0.99 0 1.98 0 3 C-2.278 5.278 -3.508 5.966 -6.75 6.188 C-7.121 6.157 -7.121 6.157 -9 6 C-6.12 3.76 -3.151 1.838 0 0 Z " fill="#703E7D" transform="translate(104,154)"/>
<path d="M0 0 C0.99 0 1.98 0 3 0 C3 1.32 3 2.64 3 4 C1.35 4.33 -0.3 4.66 -2 5 C-1.125 1.125 -1.125 1.125 0 0 Z " fill="#B77FB9" transform="translate(41,99)"/>
<path d="M0 0 C0.66 0.66 1.32 1.32 2 2 C-1.061 4.624 -1.732 5 -6 5 C-5.67 4.01 -5.34 3.02 -5 2 C-2.438 0.812 -2.438 0.812 0 0 Z " fill="#678E09" transform="translate(106,47)"/>
<path d="M0 0 C4.536 -0.368 4.536 -0.368 6.812 1.438 C8 3 8 3 8 4 C5.688 4.25 5.688 4.25 3 4 C1.188 2 1.188 2 0 0 Z " fill="#89AE0E" transform="translate(83,41)"/>
<path d="M0 0 C0.33 0 0.66 0 1 0 C1.268 0.969 1.536 1.939 1.812 2.938 C2.204 3.948 2.596 4.959 3 6 C3.99 6.33 4.98 6.66 6 7 C6.33 6.34 6.66 5.68 7 5 C7.33 5.99 7.66 6.98 8 8 C6 9 6 9 2.875 8.062 C1.926 7.712 0.977 7.361 0 7 C0 4.69 0 2.38 0 0 Z " fill="#E2E5BF" transform="translate(130,32)"/>
<path d="M0 0 C0.99 0.33 1.98 0.66 3 1 C2.688 2.875 2.688 2.875 2 5 C1.505 5.33 1.505 5.33 -1 7 C-1 4.379 -0.687 2.491 0 0 Z " fill="#8D4993" transform="translate(74,99)"/>
<path d="M0 0 C0.66 0.33 1.32 0.66 2 1 C1.125 4.875 1.125 4.875 0 6 C-2 6.041 -4 6.043 -6 6 C-5.381 5.752 -4.763 5.505 -4.125 5.25 C-1.649 3.794 -1.049 2.622 0 0 Z " fill="#61860A" transform="translate(108,55)"/>
<path d="M0 0 C2 2 2 2 2.125 5.625 C2.084 6.739 2.042 7.852 2 9 C1.01 9 0.02 9 -1 9 C-1.098 2.848 -1.098 2.848 -1 1 C-0.67 0.67 -0.34 0.34 0 0 Z " fill="#9C5EA2" transform="translate(35,122)"/>
<path d="M0 0 C0.33 0.99 0.66 1.98 1 3 C-0.812 4.562 -0.812 4.562 -3 6 C-3.99 5.67 -4.98 5.34 -6 5 C-4.02 3.35 -2.04 1.7 0 0 Z " fill="#EBDDD3" transform="translate(132,142)"/>
<path d="M0 0 C0.33 0.99 0.66 1.98 1 3 C-0.29 4.376 -1.627 5.708 -3 7 C-3.66 7 -4.32 7 -5 7 C-3.707 4.116 -2.341 2.128 0 0 Z " fill="#7C4885" transform="translate(133,136)"/>
<path d="M0 0 C0.825 0.165 0.825 0.165 5 1 C5 1.99 5 2.98 5 4 C5.99 4.33 6.98 4.66 8 5 C4.625 4.453 2.918 3.945 0 2 C0 1.34 0 0.68 0 0 Z " fill="#69910B" transform="translate(134,59)"/>
<path d="M0 0 C2.875 -0.188 2.875 -0.188 6 0 C6.66 0.99 7.32 1.98 8 3 C7.01 3.33 6.02 3.66 5 4 C2.312 2.625 2.312 2.625 0 1 C0 0.67 0 0.34 0 0 Z " fill="#89A037" transform="translate(134,28)"/>
</svg>
