<?xml version="1.0" encoding="UTF-8"?>
<!-- Generator: visioncortex VTracer 0.6.12 -->
<svg version="1.1" xmlns="http://www.w3.org/2000/svg" width="175" height="190">
<path d="M0 0 C57.75 0 115.5 0 175 0 C175 62.7 175 125.4 175 190 C117.25 190 59.5 190 0 190 C0 127.3 0 64.6 0 0 Z " fill="#FCF8EC" transform="translate(0,0)"/>
<path d="M0 0 C0.625 2.312 0.625 2.312 1 5 C0.34 5.99 -0.32 6.98 -1 8 C-1.313 10.723 -1.133 13.244 -1 16 C-0.67 16.33 -0.34 16.66 0 17 C0.041 19.333 0.042 21.667 0 24 C0.427 23.567 0.853 23.134 1.293 22.688 C6.838 17.749 11.138 17.441 18.438 17.789 C19.283 17.859 20.129 17.928 21 18 C21 19.32 21 20.64 21 22 C21.907 21.918 22.815 21.835 23.75 21.75 C27.766 22.059 28.397 23.062 31 26 C32.659 27.012 34.326 28.013 36 29 C37.875 30.375 37.875 30.375 39 32 C38.919 35.236 38.464 36.552 36.125 38.812 C34 40 34 40 31 40 C31.253 40.302 31.253 40.302 32.531 41.828 C32.856 42.228 32.856 42.228 34.5 44.25 C35.15 45.039 35.799 45.828 36.469 46.641 C38 49 38 49 38 53 C37.34 53 36.68 53 36 53 C36.164 53.245 36.164 53.245 36.992 54.484 C38.418 58.043 38.212 61.482 38.125 65.25 C38.116 65.995 38.107 66.74 38.098 67.508 C38.074 69.339 38.038 71.169 38 73 C34.333 73 30.667 73 27 73 C26.237 73.227 25.474 73.454 24.688 73.688 C20.774 74.143 18.51 72.721 15 71 C15 71.66 15 72.32 15 73 C15.557 73.186 16.114 73.371 16.688 73.562 C20.883 76.17 23.457 80.371 25 85 C25.718 91.924 25.754 97.661 21.469 103.375 C18.331 106.847 15.961 108.838 11.172 109.234 C8.434 109.248 5.731 109.175 3 109 C2.963 109.869 2.925 110.738 2.887 111.633 C2.132 124.868 2.132 124.868 -2.426 129.426 C-7.367 133.778 -11.219 134.271 -17.547 134.234 C-20.634 133.939 -22.591 132.927 -25 131 C-24.947 131.741 -24.894 132.482 -24.84 133.246 C-25.111 137.902 -27.893 140.7 -31 144 C-35.298 147.754 -39.842 148.82 -45.5 148.578 C-50.764 147.361 -54.312 143.638 -57.16 139.188 C-58.951 135.456 -59.38 132.085 -59 128 C-58.67 127.34 -58.34 126.68 -58 126 C-58.722 125.897 -59.444 125.794 -60.188 125.688 C-64.084 124.735 -66.815 123.669 -69.203 120.305 C-71.785 115.668 -73.22 111.275 -72 106 C-70.417 102.75 -68.572 99.572 -66 97 C-66.332 96.957 -66.332 96.957 -68.012 96.738 C-73.854 95.809 -77.296 94.939 -81 90 C-84.655 84.706 -84.937 79.226 -84 73 C-81.77 67.358 -77.918 63.421 -73 60 C-72.01 60 -71.02 60 -70 60 C-70.211 59.723 -70.211 59.723 -71.277 58.32 C-71.825 57.596 -72.373 56.871 -72.938 56.125 C-73.483 55.406 -74.028 54.686 -74.59 53.945 C-77.932 49.335 -77.548 44.523 -77 39 C-74.604 33.92 -70.546 30.238 -66 27 C-62.946 25.982 -60.821 25.866 -57.625 25.875 C-57.157 25.874 -57.157 25.874 -54.789 25.867 C-52.093 25.996 -49.627 26.398 -47 27 C-47.516 26.278 -48.031 25.556 -48.562 24.812 C-50.214 21.58 -50.064 20.384 -49 17 C-48.01 17 -47.02 17 -46 17 C-46.165 16.67 -46.165 16.67 -47 15 C-46.962 10.029 -46.661 5.661 -43 2 C-37.35 2.997 -32.447 4.237 -28 8 C-27.692 7.385 -27.384 6.77 -27.066 6.137 C-23.914 2.877 -20.291 2.619 -15.938 1.812 C-14.3 1.488 -12.664 1.161 -11.027 0.832 C-10.303 0.695 -9.578 0.558 -8.832 0.417 C-3.432 -0.813 -3.432 -0.813 0 0 Z " fill="#BDBE08" transform="translate(103,38)"/>
<path d="M0 0 C0.625 2.312 0.625 2.312 1 5 C0.34 5.99 -0.32 6.98 -1 8 C-1.313 10.723 -1.133 13.244 -1 16 C-0.67 16.33 -0.34 16.66 0 17 C0.041 19.333 0.042 21.667 0 24 C0.427 23.567 0.853 23.134 1.293 22.688 C6.838 17.749 11.138 17.441 18.438 17.789 C19.283 17.859 20.129 17.928 21 18 C21 19.32 21 20.64 21 22 C21.907 21.918 22.815 21.835 23.75 21.75 C27.766 22.059 28.397 23.062 31 26 C32.659 27.012 34.326 28.013 36 29 C37.875 30.375 37.875 30.375 39 32 C38.919 35.236 38.464 36.552 36.125 38.812 C34 40 34 40 31 40 C31.253 40.302 31.253 40.302 32.531 41.828 C32.856 42.228 32.856 42.228 34.5 44.25 C35.15 45.039 35.799 45.828 36.469 46.641 C38 49 38 49 38 53 C37.34 53 36.68 53 36 53 C36.164 53.245 36.164 53.245 36.992 54.484 C38.418 58.043 38.212 61.482 38.125 65.25 C38.116 65.995 38.107 66.74 38.098 67.508 C38.074 69.339 38.038 71.169 38 73 C34.333 73 30.667 73 27 73 C26.237 73.227 25.474 73.454 24.688 73.688 C20.774 74.143 18.51 72.721 15 71 C15 71.66 15 72.32 15 73 C15.557 73.186 16.114 73.371 16.688 73.562 C20.883 76.17 23.457 80.371 25 85 C25.718 91.924 25.754 97.661 21.469 103.375 C18.331 106.847 15.961 108.838 11.172 109.234 C8.434 109.248 5.731 109.175 3 109 C2.963 109.869 2.925 110.738 2.887 111.633 C2.132 124.868 2.132 124.868 -2.426 129.426 C-7.367 133.778 -11.219 134.271 -17.547 134.234 C-20.634 133.939 -22.591 132.927 -25 131 C-24.947 131.741 -24.894 132.482 -24.84 133.246 C-25.111 137.902 -27.893 140.7 -31 144 C-35.398 147.841 -39.857 148.675 -45.621 148.473 C-49.492 147.703 -51.317 145.824 -54 143 C-51 143 -51 143 -48 145 C-42.197 145.769 -36.802 145.574 -32 142 C-28.935 138.39 -27.192 135.194 -26.438 130.5 C-27.046 126.711 -28.227 124.093 -30.125 120.797 C-31 119 -31 119 -31 116 C-31.487 116.433 -31.975 116.866 -32.477 117.312 C-38.637 122.151 -43.333 122.538 -51.059 122.113 C-54 122 -54 122 -56 123 C-55.67 121.68 -55.34 120.36 -55 119 C-54.691 119.059 -54.691 119.059 -53.129 119.359 C-46.426 120.38 -41.712 119.786 -36 116 C-32.242 112.556 -30.1 109.231 -29.867 104.039 C-29.868 103.476 -29.868 103.476 -29.875 100.625 C-29.872 99.504 -29.87 98.382 -29.867 97.227 C-29.985 94.357 -30.342 91.788 -31 89 C-31.412 89.165 -31.412 89.165 -33.5 90 C-37.7 91.2 -40.644 91.357 -45 91 C-46.738 89.48 -46.738 89.48 -48 88 C-47.602 87.981 -47.602 87.981 -45.586 87.887 C-33.042 87.108 -33.042 87.108 -28.57 82.539 C-24.404 77.714 -23.84 74.746 -23.875 68.562 C-23.871 67.881 -23.867 67.2 -23.863 66.498 C-23.869 63.394 -24.011 60.967 -25 58 C-22.03 57.01 -19.06 56.02 -16 55 C-16 55.99 -16 56.98 -16 58 C-15.01 57.67 -14.02 57.34 -13 57 C-10 62.75 -10 62.75 -10 65 C-9.645 65.175 -9.645 65.175 -7.848 66.059 C-6.929 66.514 -6.009 66.969 -5.062 67.438 C-4.146 67.89 -3.229 68.342 -2.285 68.809 C0 70 0 70 1 71 C6.243 71.545 10.679 71.613 15.5 69.375 C19.671 65.412 21.166 61.868 21.562 56.188 C21.375 50.265 18.929 46.311 15 42 C10.39 38.378 5.552 38.645 -0.098 38.602 C-3.385 39.053 -5.251 40.199 -8 42 C-8.66 42 -9.32 42 -10 42 C-10.227 40.804 -10.454 39.608 -10.688 38.375 C-11.951 33.32 -14.305 29.653 -18.859 26.859 C-22.81 25.273 -26.824 25.457 -31 26 C-34.312 27.75 -34.312 27.75 -37 30 C-37.474 30.371 -37.474 30.371 -39.875 32.25 C-40.576 32.828 -41.278 33.405 -42 34 C-45.881 30.674 -48.334 26.806 -50 22 C-49.75 19 -49.75 19 -49 17 C-48.01 17 -47.02 17 -46 17 C-46.33 16.34 -46.66 15.68 -47 15 C-46.962 10.029 -46.661 5.661 -43 2 C-37.35 2.997 -32.447 4.237 -28 8 C-27.692 7.385 -27.384 6.77 -27.066 6.137 C-23.914 2.877 -20.291 2.619 -15.938 1.812 C-14.3 1.488 -12.664 1.161 -11.027 0.832 C-10.303 0.695 -9.578 0.558 -8.832 0.417 C-3.432 -0.813 -3.432 -0.813 0 0 Z " fill="#80A220" transform="translate(103,38)"/>
<path d="M0 0 C4.987 2.493 8.497 5.994 11 11 C11.04 13 11.043 15 11 17 C11.907 16.34 12.815 15.68 13.75 15 C18.926 12.071 24.224 12.132 30 13 C35.538 14.976 39.307 18.662 42.156 23.754 C44.155 29.075 43.668 34.1 41.812 39.375 C39.422 42.837 36.759 45.12 33 47 C26.204 47.801 21.318 47.399 15.754 43.289 C14 42 14 42 11.844 41.027 C9.021 39.454 8.949 36.973 8 34 C7.01 33.67 6.02 33.34 5 33 C5 32.01 5 31.02 5 30 C2.03 30.99 -0.94 31.98 -4 33 C-3.34 33.99 -2.68 34.98 -2 36 C-1.664 39.363 -1.664 39.363 -1.625 43.312 C-1.597 44.608 -1.568 45.904 -1.539 47.238 C-2.206 52.683 -4.808 56.42 -9.062 59.812 C-14.151 63.602 -18.874 63.493 -25 63 C-29.185 62.139 -31.609 60.451 -34.438 57.188 C-37.198 51.594 -36.718 45.038 -36 39 C-33.324 33.251 -28.787 29.513 -23 27 C-20.641 26.586 -20.641 26.586 -18.25 26.375 C-17.451 26.3 -16.652 26.225 -15.828 26.148 C-15.526 26.124 -15.526 26.124 -14 26 C-15.134 25.856 -16.269 25.711 -17.438 25.562 C-21 25 -21 25 -22 24 C-22.823 17.308 -22.425 12.185 -18.438 6.656 C-12.949 0.332 -8.09 -0.896 0 0 Z " fill="#CECD13" transform="translate(82,63)"/>
<path d="M0 0 C4.286 3.409 6.811 5.925 8.75 11.188 C9.422 17.716 9.61 23.612 5.75 29.188 C5.461 29.445 5.461 29.445 4 30.75 C3.588 31.224 3.175 31.699 2.75 32.188 C3.037 35.061 3.836 37.445 4.75 40.188 C5.492 47.034 4.811 52.515 0.75 58.188 C-2.916 61.675 -5.54 63.061 -10.625 63.438 C-14.627 63.161 -16.072 62.551 -19.25 60.188 C-21.086 57.48 -21.086 57.48 -22.625 54.375 C-23.148 53.358 -23.672 52.341 -24.211 51.293 C-25.404 47.727 -25.272 45.776 -24.25 42.188 C-20.966 38.268 -18.614 37.124 -13.625 36.625 C-12.808 36.541 -11.99 36.457 -11.148 36.371 C-10.522 36.311 -9.895 36.25 -9.25 36.188 C-9.557 36.061 -9.557 36.061 -11.113 35.418 C-11.922 35.074 -12.73 34.73 -13.562 34.375 C-14.363 34.039 -15.164 33.702 -15.988 33.355 C-18.283 32.17 -19.704 31.253 -21.25 29.188 C-21.25 27.868 -21.25 26.548 -21.25 25.188 C-21.91 24.858 -22.57 24.528 -23.25 24.188 C-23.111 23.825 -23.111 23.825 -22.41 21.992 C-20.563 17.062 -18.891 12.441 -18.25 7.188 C-17.933 5.85 -17.607 4.515 -17.25 3.188 C-16.59 3.188 -15.93 3.188 -15.25 3.188 C-14.92 1.868 -14.59 0.547 -14.25 -0.812 C-9.121 -2.454 -4.758 -2.653 0 0 Z " fill="#D3D019" transform="translate(99.25,107.8125)"/>
<path d="M0 0 C0 0.99 0 1.98 0 3 C0.99 2.67 1.98 2.34 3 2 C6 7.75 6 7.75 6 10 C6.71 10.349 7.421 10.699 8.152 11.059 C9.071 11.514 9.991 11.969 10.938 12.438 C11.854 12.89 12.771 13.342 13.715 13.809 C16 15 16 15 17 16 C18.748 16.1 20.5 16.13 22.25 16.125 C23.204 16.128 24.158 16.13 25.141 16.133 C27.865 16.006 30.347 15.61 33 15 C32.34 15.33 31.68 15.66 31 16 C31 16.66 31 17.32 31 18 C31.557 18.186 32.114 18.371 32.688 18.562 C36.883 21.17 39.457 25.371 41 30 C41.718 36.924 41.754 42.661 37.469 48.375 C34.331 51.847 31.961 53.838 27.172 54.234 C24.434 54.248 21.731 54.175 19 54 C18.963 54.869 18.925 55.738 18.887 56.633 C18.132 69.868 18.132 69.868 13.574 74.426 C8.633 78.778 4.781 79.271 -1.547 79.234 C-4.634 78.939 -6.591 77.927 -9 76 C-8.947 76.741 -8.894 77.482 -8.84 78.246 C-9.111 82.902 -11.893 85.7 -15 89 C-19.398 92.841 -23.857 93.675 -29.621 93.473 C-33.492 92.703 -35.317 90.824 -38 88 C-35 88 -35 88 -32 90 C-26.197 90.769 -20.802 90.574 -16 87 C-12.935 83.39 -11.192 80.194 -10.438 75.5 C-11.046 71.711 -12.227 69.093 -14.125 65.797 C-15 64 -15 64 -15 61 C-15.487 61.433 -15.975 61.866 -16.477 62.312 C-22.637 67.151 -27.333 67.538 -35.059 67.113 C-38 67 -38 67 -40 68 C-39.67 66.68 -39.34 65.36 -39 64 C-38.691 64.059 -38.691 64.059 -37.129 64.359 C-30.426 65.38 -25.712 64.786 -20 61 C-16.242 57.556 -14.1 54.231 -13.867 49.039 C-13.868 48.476 -13.868 48.476 -13.875 45.625 C-13.872 44.504 -13.87 43.382 -13.867 42.227 C-13.985 39.357 -14.342 36.788 -15 34 C-15.412 34.165 -15.412 34.165 -17.5 35 C-21.7 36.2 -24.644 36.357 -29 36 C-30.738 34.48 -30.738 34.48 -32 33 C-31.602 32.981 -31.602 32.981 -29.586 32.887 C-17.042 32.108 -17.042 32.108 -12.57 27.539 C-8.404 22.714 -7.84 19.746 -7.875 13.562 C-7.871 12.881 -7.867 12.2 -7.863 11.498 C-7.869 8.394 -8.011 5.967 -9 3 C-2.25 0 -2.25 0 0 0 Z M-3 15 C-3 15.99 -3 16.98 -3 18 C-3.66 18 -4.32 18 -5 18 C-6.074 22.218 -7.1 26.429 -8 30.688 C-8.711 33.95 -9.62 36.945 -11 40 C-10.34 40 -9.68 40 -9 40 C-8.897 40.763 -8.794 41.526 -8.688 42.312 C-7.923 45.301 -7.317 46.062 -5 48 C-2.957 48.949 -2.957 48.949 -0.812 49.688 C-0.455 49.813 -0.455 49.813 1.355 50.449 C1.898 50.631 2.441 50.813 3 51 C2.397 51.049 1.793 51.098 1.172 51.148 C0.373 51.223 -0.427 51.298 -1.25 51.375 C-1.644 51.41 -1.644 51.41 -3.641 51.586 C-6.142 52.025 -7.851 52.655 -10 54 C-13.123 58.846 -13.123 58.846 -12.75 62.344 C-11.893 65.379 -10.683 67.912 -9.188 70.688 C-8.686 71.64 -8.185 72.593 -7.668 73.574 C-5.901 76.144 -4.912 77.005 -2 78 C3.239 78.485 6.568 77.856 11 75 C16.224 69.486 17.328 64.772 17.207 57.367 C16.968 54.631 16.103 52.5 15 50 C15.243 46.118 17.606 43.917 20 41 C21.832 35.503 22.177 29.034 20.059 23.574 C17.278 18.946 13.88 15.44 9 13 C4.445 12.742 1.122 13.001 -3 15 Z " fill="#9DA104" transform="translate(87,93)"/>
<path d="M0 0 C0.928 0.619 1.856 1.237 2.812 1.875 C3.373 2.208 3.934 2.54 4.512 2.883 C6.596 4.428 7.61 5.553 8.812 7.875 C9.756 14.306 10.208 20.389 6.965 26.168 C3.8 30.148 0.742 33.232 -4.188 34.875 C-10.514 35.45 -15.729 35.259 -21.188 31.875 C-25.863 26.48 -25.789 21.11 -25.574 14.129 C-24.923 8.651 -22.652 6.193 -18.688 2.625 C-12.596 -1.639 -7.108 -2.509 0 0 Z " fill="#D7D41B" transform="translate(71.1875,91.125)"/>
<path d="M0 0 C0.625 2.312 0.625 2.312 1 5 C0.34 5.99 -0.32 6.98 -1 8 C-1.379 9.973 -1.379 9.973 -1.562 12.062 C-2 16 -2 16 -3 18 C-2.67 18 -2.34 18 -2 18 C-2.33 20.97 -2.66 23.94 -3 27 C-4.65 27 -6.3 27 -8 27 C-7.67 25.35 -7.34 23.7 -7 22 C-7.66 22 -8.32 22 -9 22 C-9.66 22 -10.32 22 -11 22 C-11.144 22.402 -11.144 22.402 -11.875 24.438 C-13 27 -13 27 -15 28 C-14 25 -13 22 -12 19 C-14.31 19.33 -16.62 19.66 -19 20 C-17.187 16.223 -15.093 12.627 -13 9 C-13.959 10.27 -14.917 11.541 -15.875 12.812 C-16.409 13.52 -16.942 14.228 -17.492 14.957 C-18.708 16.605 -19.864 18.296 -21 20 C-21.66 20.99 -22.32 21.98 -23 23 C-23.598 22.814 -24.196 22.629 -24.812 22.438 C-27 22 -27 22 -30 23 C-30.33 20.03 -30.66 17.06 -31 14 C-31.33 14.66 -31.66 15.32 -32 16 C-33.32 15.67 -34.64 15.34 -36 15 C-35.34 17.31 -34.68 19.62 -34 22 C-35.32 21.67 -36.64 21.34 -38 21 C-37.01 22.65 -36.02 24.3 -35 26 C-36.911 29.536 -38.626 31.79 -42 34 C-45.881 30.674 -48.334 26.806 -50 22 C-49.75 19 -49.75 19 -49 17 C-48.01 17 -47.02 17 -46 17 C-46.33 16.34 -46.66 15.68 -47 15 C-46.962 10.029 -46.661 5.661 -43 2 C-37.35 2.997 -32.447 4.237 -28 8 C-27.692 7.385 -27.384 6.77 -27.066 6.137 C-23.914 2.877 -20.291 2.619 -15.938 1.812 C-14.3 1.488 -12.664 1.161 -11.027 0.832 C-10.303 0.695 -9.578 0.558 -8.832 0.417 C-3.432 -0.813 -3.432 -0.813 0 0 Z " fill="#88A621" transform="translate(103,38)"/>
<path d="M0 0 C1.822 3.644 1.228 7.926 1.25 11.938 C1.271 12.857 1.291 13.777 1.312 14.725 C1.315 15.166 1.315 15.166 1.328 17.402 C1.333 17.807 1.333 17.807 1.356 19.855 C0.916 22.507 0.023 23.298 -2 25 C-2.44 25.541 -2.879 26.083 -3.332 26.641 C-6.183 29.74 -8.091 30.918 -12.359 31.305 C-18.859 30.989 -24.226 30.641 -29 26 C-31.907 21.315 -31.614 16.336 -31 11 C-28.604 5.92 -24.546 2.238 -20 -1 C-13.713 -3.096 -6.01 -2.847 0 0 Z " fill="#D5D31D" transform="translate(57,66)"/>
<path d="M0 0 C0 3.632 -0.955 4.747 -3 7.688 C-3.557 8.496 -4.114 9.304 -4.688 10.137 C-5.121 10.752 -5.554 11.366 -6 12 C-3.36 11.34 -0.72 10.68 2 10 C1 14 1 14 0 17 C0.278 16.68 0.278 16.68 1.688 15.062 C4.221 12.803 5.683 12.369 9 12 C8.526 12.598 8.051 13.196 7.562 13.812 C6 16 6 16 5 19 C6.65 19 8.3 19 10 19 C10 16.36 10 13.72 10 11 C9.34 10.67 8.68 10.34 8 10 C8.66 8.68 9.32 7.36 10 6 C10 6.66 10 7.32 10 8 C10.99 8.33 11.98 8.66 13 9 C13 11.64 13 14.28 13 17 C13.66 17.33 14.32 17.66 15 18 C15 18.66 15 19.32 15 20 C16.32 20.66 17.64 21.32 19 22 C19.309 21.381 19.619 20.763 19.938 20.125 C20.625 18.75 21.312 17.375 22 16 C22.66 16.33 23.32 16.66 24 17 C24 17.99 24 18.98 24 20 C25.98 20 27.96 20 30 20 C30 20.66 30 21.32 30 22 C31.953 21.935 33.906 21.87 35.859 21.805 C38 22 38 22 42 24 C38.04 24 34.08 24 30 24 C29.67 24.66 29.34 25.32 29 26 C28.67 26.165 28.67 26.165 27 27 C27 30.507 27.448 31.001 29.75 33.5 C34.369 38.005 39.806 38.932 46 40 C45.835 40.33 45.835 40.33 45 42 C42.36 42 39.72 42 37 42 C39.08 46.656 42.313 50.434 45.418 54.441 C45.94 55.286 46.462 56.13 47 57 C46.67 57.99 46.34 58.98 46 60 C44.68 58.185 44.68 58.185 38 49 C37.567 50.403 37.134 51.805 36.688 53.25 C34.583 59.525 34.583 59.525 32 62 C31.01 62 30.02 62 29 62 C29.32 61.536 29.32 61.536 30.938 59.188 C34.34 53.93 34.929 49.135 34 43 C31.969 38.411 29.311 35.03 25.375 31.938 C19.486 30.302 12.737 29.481 7.254 32.523 C6.882 32.767 6.882 32.767 5 34 C4.34 34 3.68 34 3 34 C2.773 32.804 2.546 31.608 2.312 30.375 C1.047 25.314 -1.31 21.661 -5.859 18.852 C-11.621 16.56 -18.433 17.656 -24 20 C-23.67 19.01 -23.34 18.02 -23 17 C-23.938 14.812 -23.938 14.812 -25 13 C-23.68 13.33 -22.36 13.66 -21 14 C-21.3 13.446 -21.601 12.891 -21.91 12.32 C-22.29 11.596 -22.671 10.871 -23.062 10.125 C-23.445 9.406 -23.828 8.686 -24.223 7.945 C-24.479 7.303 -24.736 6.661 -25 6 C-24.67 5.34 -24.34 4.68 -24 4 C-23.67 4.495 -23.67 4.495 -22 7 C-21.01 7.33 -20.02 7.66 -19 8 C-18.34 6.68 -17.68 5.36 -17 4 C-17 7.63 -17 11.26 -17 15 C-15.68 14.34 -14.36 13.68 -13 13 C-12.01 13.33 -11.02 13.66 -10 14 C-9.34 11.36 -8.68 8.72 -8 6 C-7.34 6.66 -6.68 7.32 -6 8 C-4.02 5.36 -2.04 2.72 0 0 Z " fill="#729112" transform="translate(90,46)"/>
<path d="M0 0 C0.99 0.33 1.98 0.66 3 1 C2.34 1 1.68 1 1 1 C1 1.66 1 2.32 1 3 C1.557 3.186 2.114 3.371 2.688 3.562 C6.883 6.17 9.457 10.371 11 15 C11.73 22.041 11.596 27.477 7.484 33.379 C4.681 36.44 3.163 37.946 -1.129 38.145 C-2.262 38.035 -3.395 37.925 -4.562 37.812 C-5.698 37.716 -6.834 37.619 -8.004 37.52 C-11 37 -11 37 -14 35 C-14.938 33.188 -14.938 33.188 -15 31 C-13.125 28.438 -13.125 28.438 -11 26 C-9.942 22.825 -9.833 20.46 -9.812 17.125 C-9.798 16.096 -9.784 15.068 -9.77 14.008 C-10 11 -10 11 -12 6 C-8.04 5.01 -4.08 4.02 0 3 C0 2.01 0 1.02 0 0 Z " fill="#B2B406" transform="translate(117,108)"/>
<path d="M0 0 C4.264 5.685 4.738 10.085 4 17 C2.329 22.33 -0.246 25.952 -5 29 C-9.378 30.459 -13.249 30.802 -17.516 28.848 C-20.534 26.603 -21.71 24.547 -23.375 21.188 C-23.898 20.17 -24.422 19.153 -24.961 18.105 C-26.154 14.539 -26.022 12.589 -25 9 C-21.716 5.08 -19.364 3.936 -14.375 3.438 C-13.558 3.354 -12.74 3.27 -11.898 3.184 C-11.585 3.153 -11.585 3.153 -10 3 C-10 2.67 -10 2.34 -10 2 C-6.7 1.34 -3.4 0.68 0 0 Z " fill="#BFC00A" transform="translate(100,141)"/>
<path d="M0 0 C3.793 1.002 6.715 1.81 10 4 C12.64 4.818 15.303 5.381 18 6 C18.63 11.039 17.379 14.085 14.621 18.164 C11.07 22.186 6.885 23.826 1.625 24.312 C-1 24 -1 24 -3 23 C-2.34 23.99 -2.34 23.99 1 29 C-3.292 27.467 -5.019 25.032 -7 21 C-7.844 14.761 -7.634 9.322 -4 4 C-1.812 1.625 -1.812 1.625 0 0 Z " fill="#D6D519" transform="translate(48,127)"/>
<path d="M0 0 C2.483 0.764 3.563 1.588 5.121 3.652 C4.877 8.899 3.128 15.223 -0.273 19.34 C-2.941 21.521 -5.511 21.481 -8.879 21.652 C-12.316 20.715 -12.316 20.715 -14.879 19.652 C-15.346 13.081 -15.363 8.884 -10.879 3.652 C-10.322 2.848 -9.765 2.044 -9.191 1.215 C-5.986 -0.951 -3.738 -0.46 0 0 Z " fill="#DFDB2C" transform="translate(35.87890625,100.34765625)"/>
<path d="M0 0 C1.555 3.11 1.286 5.563 1 9 C-1.027 12.704 -2.48 14.654 -6 17 C-10.398 18.147 -12.928 18.036 -17 16 C-16.67 16.99 -16.34 17.98 -16 19 C-19.875 18.125 -19.875 18.125 -21 17 C-21.099 14.689 -21.13 12.375 -21.125 10.062 C-21.128 8.795 -21.13 7.528 -21.133 6.223 C-21 3 -21 3 -20 1 C-19.036 1.012 -18.072 1.023 -17.078 1.035 C-16.446 1.04 -16.446 1.04 -13.25 1.062 C-12.624 1.068 -12.624 1.068 -9.453 1.098 C-6.184 1.005 -3.205 0 0 0 Z " fill="#D2D016" transform="translate(67,161)"/>
<path d="M0 0 C0 1.32 0 2.64 0 4 C0.907 3.917 1.815 3.835 2.75 3.75 C6 4 6 4 8.312 5.812 C10 8 10 8 11 11 C10.34 11.66 9.68 12.32 9 13 C5.961 12.977 5.961 12.977 2.375 12.625 C1.186 12.514 -0.002 12.403 -1.227 12.289 C-2.142 12.194 -3.057 12.098 -4 12 C-4 11.34 -4 10.68 -4 10 C-6.64 10.66 -9.28 11.32 -12 12 C-11.67 10.35 -11.34 8.7 -11 7 C-12.521 8.521 -13.72 10.275 -15 12 C-17.867 11.427 -18.861 11.139 -21 9 C-21 6 -21 6 -19.707 4.395 C-13.465 -0.818 -7.888 -0.649 0 0 Z " fill="#8BAA20" transform="translate(124,56)"/>
<path d="M0 0 C4.582 0.468 6.994 1.938 10.062 5.312 C8.567 9.935 6.381 12.836 3.062 16.312 C1.062 17.062 1.062 17.062 -0.938 17.312 C-1.742 17.663 -2.546 18.014 -3.375 18.375 C-6.08 19.365 -8.083 19.476 -10.938 19.312 C-11.548 12.477 -10.173 8.693 -5.938 3.312 C-3.375 0.359 -3.375 0.359 0 0 Z " fill="#E3E037" transform="translate(70.9375,64.6875)"/>
<path d="M0 0 C3.239 1.735 5.423 3.423 8 6 C8.125 9.625 8.125 9.625 8 13 C7.01 12.67 6.02 12.34 5 12 C4.608 12.887 4.216 13.774 3.812 14.688 C1.709 18.532 -0.603 22.106 -4.863 23.695 C-7.415 24.059 -9.256 23.686 -11.75 23.062 C-12.549 22.868 -13.348 22.673 -14.172 22.473 C-14.775 22.317 -15.378 22.161 -16 22 C-11.495 17.12 -11.495 17.12 -8.938 16.5 C-5.767 15.682 -4.725 13.676 -3 11 C-2.25 7.688 -2.25 7.688 -2 5 C-3.093 4.897 -4.186 4.794 -5.312 4.688 C-8.856 4.027 -9.932 3.797 -12 1 C-8.295 -0.853 -4.043 -0.465 0 0 Z " fill="#D6D41C" transform="translate(82,63)"/>
<path d="M0 0 C0.776 0.006 1.552 0.013 2.352 0.02 C4.375 0.188 4.375 0.188 6.375 1.188 C6.158 1.817 5.942 2.446 5.719 3.094 C4.347 7.311 3.17 11.036 3.375 15.5 C3.375 19.641 3.109 21.111 0.375 24.188 C-4.166 27.245 -8.068 28.743 -13.625 28.188 C-13.625 28.847 -13.625 29.507 -13.625 30.188 C-9.335 31.178 -5.045 32.167 -0.625 33.188 C-1.285 33.847 -1.945 34.507 -2.625 35.188 C-8.632 35.188 -11.878 33.952 -16.215 29.793 C-19.918 25.577 -19.838 21.629 -19.625 16.188 C-19.295 16.188 -18.965 16.188 -18.625 16.188 C-18.625 18.168 -18.625 20.148 -18.625 22.188 C-8.655 23.795 -8.655 23.795 -4.625 21.188 C-1.559 17.1 0.262 12.622 0.5 7.5 C-0.892 4.638 -1.781 4.476 -4.688 3.375 C-5.994 2.959 -7.305 2.557 -8.625 2.188 C-5.616 0.449 -3.466 -0.064 0 0 Z " fill="#D2D015" transform="translate(39.625,97.8125)"/>
<path d="M0 0 C0.625 2.312 0.625 2.312 1 5 C0.67 5.495 0.67 5.495 -1 8 C-1.379 9.973 -1.379 9.973 -1.562 12.062 C-2 16 -2 16 -3 18 C-2.67 18 -2.34 18 -2 18 C-2.33 20.97 -2.66 23.94 -3 27 C-4.65 27 -6.3 27 -8 27 C-7.67 25.35 -7.34 23.7 -7 22 C-7.66 22 -8.32 22 -9 22 C-9.66 22 -10.32 22 -11 22 C-11.289 22.804 -11.578 23.609 -11.875 24.438 C-13 27 -13 27 -15 28 C-13.985 24.531 -12.809 21.594 -10.875 18.562 C-8.744 14.998 -8.592 12.161 -9 8 C-9.33 7.34 -9.66 6.68 -10 6 C-10.66 6 -11.32 6 -12 6 C-12.33 5.01 -12.66 4.02 -13 3 C-4.738 -1.777 -4.738 -1.777 0 0 Z " fill="#9B9220" transform="translate(103,38)"/>
<path d="M0 0 C0 0.99 0 1.98 0 3 C0.99 2.67 1.98 2.34 3 2 C6 7.75 6 7.75 6 10 C6.71 10.349 7.421 10.699 8.152 11.059 C9.071 11.514 9.991 11.969 10.938 12.438 C11.854 12.89 12.771 13.342 13.715 13.809 C16 15 16 15 17 16 C19.186 16.073 21.375 16.084 23.562 16.062 C24.76 16.053 25.958 16.044 27.191 16.035 C27.655 16.029 27.655 16.029 30 16 C30 16.66 30 17.32 30 18 C26.37 19.32 22.74 20.64 19 22 C16.982 20.21 14.964 18.419 12.945 16.629 C9.152 13.452 6.068 14.061 1.375 14.438 C0.669 14.49 -0.038 14.542 -0.766 14.596 C-2.511 14.725 -4.255 14.862 -6 15 C-6.133 14.385 -6.266 13.77 -6.402 13.137 C-6.579 12.328 -6.756 11.52 -6.938 10.688 C-7.112 9.887 -7.286 9.086 -7.465 8.262 C-8 6 -8 6 -9 3 C-2.25 0 -2.25 0 0 0 Z " fill="#A5AA05" transform="translate(87,93)"/>
<path d="M0 0 C0.99 0.66 1.98 1.32 3 2 C3.221 4.789 3.281 7.347 3.188 10.125 C3.181 10.502 3.181 10.502 3.146 12.41 C3.111 14.274 3.057 16.137 3 18 C-0.667 18 -4.333 18 -8 18 C-8.825 18.248 -9.65 18.495 -10.5 18.75 C-10.912 18.791 -10.912 18.791 -13 19 C-15.312 17.062 -15.312 17.062 -17 15 C-16.651 14.492 -16.301 13.984 -15.941 13.461 C-13.195 9.306 -11.382 6.091 -11 1 C-7.364 4.434 -4.639 7.797 -2 12 C-0.002 7.879 0.178 4.548 0 0 Z " fill="#759620" transform="translate(138,93)"/>
<path d="M0 0 C0.619 0.021 0.619 0.021 3.75 0.125 C3.75 2.435 3.75 4.745 3.75 7.125 C2.677 7.661 1.605 8.198 0.5 8.75 C-3.272 10.864 -4.934 13.485 -7.25 17.125 C-8.24 17.125 -9.23 17.125 -10.25 17.125 C-10.58 15.145 -10.91 13.165 -11.25 11.125 C-11.724 11.95 -12.199 12.775 -12.688 13.625 C-13.203 14.45 -13.719 15.275 -14.25 16.125 C-14.58 16.125 -14.91 16.125 -15.25 16.125 C-15.021 10.517 -13.634 7.78 -9.918 3.605 C-6.771 0.813 -4.188 -0.14 0 0 Z " fill="#E1DC29" transform="translate(61.25,90.875)"/>
<path d="M0 0 C0.825 0.33 0.825 0.33 5 2 C4.673 2.705 4.345 3.41 4.008 4.137 C2.916 7.239 2.796 9.54 2.875 12.812 C2.884 13.3 2.884 13.3 2.93 15.77 C2.953 16.506 2.976 17.242 3 18 C4.485 18.33 4.485 18.33 12 20 C12 20.33 12 20.66 12 21 C11.649 21.007 11.649 21.007 9.875 21.043 C1.4 21.469 -3.463 23.551 -9.5 29.438 C-12.658 36.937 -11.857 45.503 -9 53 C-13.921 48.237 -13.921 48.237 -14.168 44.355 C-14.174 43.31 -14.181 42.265 -14.188 41.188 C-14.202 40.15 -14.216 39.112 -14.23 38.043 C-13.997 34.962 -13.301 32.782 -12 30 C-23.522 29.815 -23.522 29.815 -29 31 C-28.67 30.34 -28.34 29.68 -28 29 C-27.01 29 -26.02 29 -25 29 C-25.99 27.35 -26.98 25.7 -28 24 C-27.481 24.309 -26.961 24.619 -26.426 24.938 C-21.285 27.189 -15.54 27.397 -10 27 C-7.548 25.696 -6.063 24.417 -4.234 22.348 C-3.827 21.903 -3.42 21.458 -3 21 C-2.34 21 -1.68 21 -1 21 C-0.67 14.07 -0.34 7.14 0 0 Z " fill="#B0B209" transform="translate(58,69)"/>
<path d="M0 0 C0.99 0.33 1.98 0.66 3 1 C2.34 1 1.68 1 1 1 C1 1.66 1 2.32 1 3 C1.557 3.186 2.114 3.371 2.688 3.562 C6.883 6.17 9.457 10.371 11 15 C11.73 22.041 11.596 27.477 7.484 33.379 C5.734 35.291 4.255 36.695 2 38 C-0.797 38.074 -0.797 38.074 -3.75 37.688 C-4.735 37.568 -5.72 37.448 -6.734 37.324 C-7.482 37.217 -8.23 37.11 -9 37 C-8.67 36.34 -8.34 35.68 -8 35 C-6.763 34.732 -5.525 34.464 -4.25 34.188 C0.054 33.206 2.233 31.522 5 28 C7.22 21.299 6.617 13.473 4 7 C3.01 6.67 2.02 6.34 1 6 C0.67 4.02 0.34 2.04 0 0 Z " fill="#BCBF1F" transform="translate(117,108)"/>
<path d="M0 0 C0.99 0.33 1.98 0.66 3 1 C3 1.66 3 2.32 3 3 C5.569 4.284 7.766 4.33 10.625 4.562 C11.126 4.604 11.126 4.604 13.664 4.816 C14.435 4.877 15.206 4.938 16 5 C16 5.66 16 6.32 16 7 C12.37 7 8.74 7 5 7 C4.963 7.869 4.925 8.738 4.887 9.633 C4.132 22.868 4.132 22.868 -0.426 27.426 C-5.367 31.778 -9.219 32.271 -15.547 32.234 C-18.634 31.939 -20.591 30.927 -23 29 C-22.947 29.741 -22.894 30.482 -22.84 31.246 C-23.111 35.902 -25.893 38.7 -29 42 C-33.398 45.841 -37.857 46.675 -43.621 46.473 C-47.492 45.703 -49.317 43.824 -52 41 C-49 41 -49 41 -46 43 C-40.197 43.769 -34.802 43.574 -30 40 C-26.925 36.043 -24.63 31.742 -23 27 C-21.989 27.495 -20.979 27.99 -19.938 28.5 C-14.971 30.603 -10.935 30.683 -5.812 28.875 C-1.62 26.08 0.422 22.735 2 18 C2.394 12.593 2.402 7.953 0 3 C0 2.01 0 1.02 0 0 Z " fill="#A5A519" transform="translate(101,140)"/>
<path d="M0 0 C0 3.741 -1.393 4.683 -3.754 7.398 C-7.138 11.747 -7.475 16.679 -7 22 C-5.26 26.67 -3.293 29.442 1 32 C4.305 32.892 7.616 33.501 11 34 C11 38 11 38 9.062 40.125 C8.722 40.434 8.722 40.434 7 42 C5.72 44.559 5.832 46.455 5.812 49.312 C5.805 49.785 5.805 49.785 5.77 52.176 C6.022 55.269 6.44 57.309 8 60 C10.383 61.145 10.383 61.145 13.125 61.812 C13.58 61.929 13.58 61.929 15.883 62.52 C16.581 62.678 17.28 62.837 18 63 C18.33 62.34 18.66 61.68 19 61 C19.33 61.66 19.66 62.32 20 63 C19.67 63.66 19.34 64.32 19 65 C18.772 66.871 18.59 68.747 18.438 70.625 C18.354 71.628 18.27 72.631 18.184 73.664 C18.153 74.049 18.153 74.049 18 76 C15.696 72.543 15.741 71.051 16 67 C16.33 66.34 16.66 65.68 17 65 C16.278 64.897 15.556 64.794 14.812 64.688 C10.916 63.735 8.185 62.669 5.797 59.305 C3.215 54.668 1.78 50.275 3 45 C4.583 41.75 6.428 38.572 9 36 C8.336 35.914 7.672 35.827 6.988 35.738 C1.146 34.809 -2.296 33.939 -6 29 C-9.649 23.715 -9.952 18.218 -9 12 C-7 7.229 -3.856 3.428 0 0 Z " fill="#B8B826" transform="translate(28,99)"/>
<path d="M0 0 C0.061 0.88 0.121 1.761 0.184 2.668 C0.267 3.829 0.351 4.991 0.438 6.188 C0.478 6.762 0.478 6.762 0.684 9.668 C1 13 1 13 1.625 15.812 C1.749 16.534 1.873 17.256 2 18 C0.562 19.812 0.562 19.812 -1 21 C-0.01 21.66 0.98 22.32 2 23 C2 23.66 2 24.32 2 25 C-1.802 24.457 -3.501 22.843 -6 20 C-7.971 16.058 -7.454 11.296 -7 7 C-5.773 3.989 -3.735 0 0 0 Z " fill="#CBCA16" transform="translate(40,136)"/>
<path d="M0 0 C0.474 0.412 0.474 0.412 2.875 2.5 C7.428 5.76 11.581 5.703 17 5 C20.625 4 20.625 4 23 3 C22.67 3.66 22.34 4.32 22 5 C22.848 4.836 23.696 4.673 24.57 4.504 C28.065 3.991 31.346 3.901 34.875 3.938 C36.027 3.947 37.18 3.956 38.367 3.965 C39.236 3.976 40.105 3.988 41 4 C37.234 8.406 32.529 8.45 27 9 C23.77 9.21 20.548 9.316 17.312 9.375 C16.517 9.401 15.722 9.427 14.902 9.454 C8.928 9.472 5.168 7.988 0 5 C0 3.35 0 1.7 0 0 Z " fill="#F6EAD0" transform="translate(48,180)"/>
<path d="M0 0 C0.66 1.32 1.32 2.64 2 4 C1.67 4.495 1.67 4.495 0 7 C1.32 6.34 2.64 5.68 4 5 C4.688 6.75 4.688 6.75 5 9 C3.938 11.188 3.938 11.188 2 13 C-1.188 13.75 -1.188 13.75 -4 14 C-7.14 10.587 -7.833 7.602 -8 3 C-6.002 -0.44 -3.748 -0.304 0 0 Z " fill="#DEDA29" transform="translate(51,131)"/>
<path d="M0 0 C0.66 0.33 1.32 0.66 2 1 C0.313 4.709 -1.938 7.328 -4.66 10.316 C-8.13 14.676 -7.558 20.732 -7 26 C-5.143 29.587 -2.994 32.305 0 35 C-1.188 37.5 -1.188 37.5 -3 40 C-5.688 40.312 -5.688 40.312 -8 40 C-8 39.01 -8 38.02 -8 37 C-9.5 35.312 -9.5 35.312 -11 34 C-10.01 33.34 -9.02 32.68 -8 32 C-8.144 30.735 -8.289 29.471 -8.438 28.168 C-8.625 26.508 -8.813 24.848 -9 23.188 C-9.095 22.354 -9.191 21.521 -9.289 20.662 C-9.379 19.86 -9.47 19.057 -9.562 18.23 C-9.646 17.492 -9.73 16.754 -9.816 15.993 C-10 14 -10 14 -10 11 C-10.66 10.67 -11.32 10.34 -12 10 C-11.113 9.773 -10.226 9.546 -9.312 9.312 C-5.518 7.809 -3.633 6.085 -1 3 C-0.67 2.01 -0.34 1.02 0 0 Z " fill="#BBBD06" transform="translate(49,122)"/>
<path d="M0 0 C0.648 1.27 1.294 2.541 1.938 3.812 C2.297 4.52 2.657 5.228 3.027 5.957 C4 8 4 8 5 11 C3.35 11.495 3.35 11.495 -5 14 C-5.488 11.754 -5.977 9.508 -6.465 7.262 C-7 5 -7 5 -8 2 C-5.094 0.743 -3.204 0 0 0 Z " fill="#849501" transform="translate(86,94)"/>
<path d="M0 0 C0 1.32 0 2.64 0 4 C1.32 4.33 2.64 4.66 4 5 C2.02 5 0.04 5 -2 5 C-1.67 3.68 -1.34 2.36 -1 1 C-4.438 1.812 -4.438 1.812 -8 3 C-8.33 3.99 -8.66 4.98 -9 6 C-9.99 6 -10.98 6 -12 6 C-12.309 6.619 -12.619 7.237 -12.938 7.875 C-13.625 9.25 -14.312 10.625 -15 12 C-17.867 11.427 -18.861 11.139 -21 9 C-21 6 -21 6 -19.707 4.395 C-13.465 -0.818 -7.888 -0.649 0 0 Z " fill="#82A023" transform="translate(124,56)"/>
<path d="M0 0 C2.051 0.033 4.102 0.065 6.152 0.098 C5.534 0.386 4.915 0.675 4.277 0.973 C2.152 2.098 2.152 2.098 0.152 4.098 C0.79 4.147 1.429 4.196 2.086 4.246 C2.912 4.321 3.739 4.396 4.59 4.473 C5.414 4.542 6.237 4.612 7.086 4.684 C7.427 4.752 7.427 4.752 9.152 5.098 C9.482 5.758 9.812 6.418 10.152 7.098 C9.369 7.551 8.585 8.005 7.777 8.473 C5.152 10.098 5.152 10.098 3.152 12.098 C2.162 12.407 1.172 12.716 0.152 13.035 C-2.848 14.098 -2.848 14.098 -4.848 17.098 C-5.137 11.602 -4.217 6.404 -2.848 1.098 C-1.848 0.098 -1.848 0.098 0 0 Z " fill="#DCD824" transform="translate(99.84765625,76.90234375)"/>
<path d="M0 0 C0.33 0 0.66 0 1 0 C1 1.65 1 3.3 1 5 C2.32 4.67 3.64 4.34 5 4 C4.67 5.32 4.34 6.64 4 8 C3.34 8 2.68 8 2 8 C1.974 8.594 1.948 9.189 1.922 9.801 C1.448 16.733 -0.379 22.588 -3 29 C-3.66 29 -4.32 29 -5 29 C-6.611 18.999 -6.611 18.999 -4.125 14.938 C-3.424 14.298 -2.722 13.659 -2 13 C-0.716 10.431 -0.67 8.234 -0.438 5.375 C-0.354 4.372 -0.27 3.369 -0.184 2.336 C-0.123 1.565 -0.062 0.794 0 0 Z " fill="#ABAF05" transform="translate(80,103)"/>
<path d="M0 0 C0.688 2.312 0.688 2.312 1 5 C-0.25 6.812 -0.25 6.812 -2 8 C-2.99 8 -3.98 8 -5 8 C-5.33 8.99 -5.66 9.98 -6 11 C-9 10 -9 10 -11 7 C-10.625 4.312 -10.625 4.312 -10 2 C-3.375 0 -3.375 0 0 0 Z " fill="#E5E235" transform="translate(33,104)"/>
<path d="M0 0 C1.114 0.619 2.228 1.238 3.375 1.875 C8.084 4.255 12.818 5.193 18 6 C18 6.33 18 6.66 18 7 C16.891 7.061 15.783 7.121 14.641 7.184 C13.177 7.268 11.714 7.353 10.25 7.438 C9.885 7.457 9.885 7.457 8.039 7.557 C0.77 7.986 0.77 7.986 -2 9 C-3.25 12.062 -3.25 12.062 -4 15 C-4.33 15 -4.66 15 -5 15 C-4.519 9.226 -2.815 5.041 0 0 Z " fill="#A1A402" transform="translate(79,138)"/>
<path d="M0 0 C0.33 0 0.66 0 1 0 C1.109 2.376 1.188 4.747 1.25 7.125 C1.267 7.458 1.267 7.458 1.352 9.141 C1.469 15.111 -0.582 18.335 -4.492 22.645 C-7.928 25.547 -10.527 26.681 -15 27 C-14.67 26.01 -14.34 25.02 -14 24 C-10.937 22.812 -10.937 22.812 -8 22 C-8 21.34 -8 20.68 -8 20 C-6.333 18.333 -4.667 16.667 -3 15 C-1.143 11.999 -0.791 9.877 -0.938 6.375 C-1.097 2.194 -1.097 2.194 0 0 Z " fill="#CECE16" transform="translate(79,99)"/>
<path d="M0 0 C0.66 0.33 1.32 0.66 2 1 C2 1.99 2 2.98 2 4 C3.98 4 5.96 4 8 4 C8 4.66 8 5.32 8 6 C9.953 5.935 11.906 5.87 13.859 5.805 C16 6 16 6 20 8 C16.04 8 12.08 8 8 8 C7.67 8.66 7.34 9.32 7 10 C2.125 9.125 2.125 9.125 1 8 C-1 7.959 -3 7.957 -5 8 C-5.33 7.34 -5.66 6.68 -6 6 C-5.01 6 -4.02 6 -3 6 C-2.691 5.381 -2.381 4.763 -2.062 4.125 C-1.375 2.75 -0.688 1.375 0 0 Z " fill="#739515" transform="translate(112,62)"/>
<path d="M0 0 C0.99 0.33 1.98 0.66 3 1 C2.34 1 1.68 1 1 1 C1 1.66 1 2.32 1 3 C1.557 3.186 2.114 3.371 2.688 3.562 C6.883 6.17 9.457 10.371 11 15 C11.759 22.323 11.509 27.638 7.094 33.672 C6.733 34.11 6.372 34.548 6 35 C5.34 34.67 4.68 34.34 4 34 C4.66 33.113 5.32 32.226 6 31.312 C9.072 25.895 8.881 20.029 8 14 C6.764 10.944 5.338 8.345 3 6 C2.34 6 1.68 6 1 6 C0.67 4.02 0.34 2.04 0 0 Z " fill="#ABAB2E" transform="translate(117,108)"/>
<path d="M0 0 C0.66 0 1.32 0 2 0 C2.049 0.664 2.098 1.328 2.148 2.012 C3.028 12.397 3.028 12.397 5 15 C8.263 16.331 11.567 17.221 15 18 C15.33 17.34 15.66 16.68 16 16 C16.33 16.66 16.66 17.32 17 18 C16.67 18.66 16.34 19.32 16 20 C15.772 21.871 15.59 23.747 15.438 25.625 C15.354 26.628 15.27 27.631 15.184 28.664 C15.123 29.435 15.062 30.206 15 31 C12.696 27.543 12.741 26.051 13 22 C13.33 21.34 13.66 20.68 14 20 C13.278 19.897 12.556 19.794 11.812 19.688 C7.916 18.735 5.185 17.669 2.797 14.305 C0.05 9.372 -0.4 5.594 0 0 Z " fill="#B2B32C" transform="translate(31,144)"/>
<path d="M0 0 C0.99 0.33 1.98 0.66 3 1 C2.54 1.398 2.08 1.797 1.605 2.207 C-0.267 4.299 -0.874 6.014 -1.688 8.688 C-1.939 9.496 -2.19 10.304 -2.449 11.137 C-2.631 11.752 -2.813 12.366 -3 13 C-5.861 11.641 -7.859 10.355 -10 8 C-8.25 3.125 -8.25 3.125 -6 2 C-6 2.99 -6 3.98 -6 5 C-5.381 4.361 -4.763 3.721 -4.125 3.062 C-2 1 -2 1 0 0 Z " fill="#6A7205" transform="translate(96,58)"/>
<path d="M0 0 C1.072 3.208 0.958 4.849 -0.375 7.938 C-1.608 10.95 -2.495 13.766 -3 17 C-4.32 17.33 -5.64 17.66 -7 18 C-7.612 11.147 -6.199 7.421 -2 2 C-1.34 1.34 -0.68 0.68 0 0 Z " fill="#DDD924" transform="translate(67,66)"/>
<path d="M0 0 C0.33 0.99 0.66 1.98 1 3 C-1.84 8.049 -4.487 11.162 -10 13 C-15.251 13.623 -18.81 13.904 -23.125 10.625 C-25 8 -25 8 -25 6 C-24.01 6.33 -23.02 6.66 -22 7 C-22 7.66 -22 8.32 -22 9 C-16.568 10.843 -13.152 11.466 -7.828 9.129 C-4.228 6.906 -1.889 3.777 0 0 Z " fill="#C9C711" transform="translate(75,171)"/>
<path d="M0 0 C0.66 0.33 1.32 0.66 2 1 C2.92 11.684 2.92 11.684 0.664 14.91 C-1 16.25 -1 16.25 -4 18 C-3.67 17.01 -3.34 16.02 -3 15 C-3.008 12.224 -3.13 9.464 -3.258 6.691 C-2.959 3.573 -2.071 2.293 0 0 Z " fill="#CECD0D" transform="translate(56,67)"/>
<path d="M0 0 C0.33 0 0.66 0 1 0 C1 1.98 1 3.96 1 6 C1.66 6.33 2.32 6.66 3 7 C2.691 7.784 2.381 8.567 2.062 9.375 C0.737 13.899 0.352 18.314 0 23 C-1.65 22.67 -3.3 22.34 -5 22 C-5.75 20.312 -5.75 20.312 -6 18 C-4.125 15.375 -4.125 15.375 -2 13 C-0.716 10.431 -0.67 8.234 -0.438 5.375 C-0.354 4.372 -0.27 3.369 -0.184 2.336 C-0.123 1.565 -0.062 0.794 0 0 Z " fill="#B4B606" transform="translate(92,74)"/>
<path d="M0 0 C0.99 0 1.98 0 3 0 C3.33 0.66 3.66 1.32 4 2 C4.33 2 4.66 2 5 2 C4.67 4.97 4.34 7.94 4 11 C2.35 11 0.7 11 -1 11 C-0.67 9.35 -0.34 7.7 0 6 C-0.99 6 -1.98 6 -3 6 C-1.125 1.125 -1.125 1.125 0 0 Z " fill="#9AA049" transform="translate(96,54)"/>
<path d="M0 0 C0.33 0 0.66 0 1 0 C1.222 2.249 1.427 4.499 1.625 6.75 C1.683 7.376 1.683 7.376 1.977 10.547 C2.007 15.007 1.224 16.7 -1.777 19.887 C-7.693 24.818 -12.334 26.1 -20 26 C-20.33 25.34 -20.66 24.68 -21 24 C-20.602 23.957 -20.602 23.957 -18.586 23.738 C-11.87 22.848 -7.558 22.158 -3 17 C-1.156 13.22 -0.65 9.865 -0.375 5.688 C-0.3 4.619 -0.225 3.55 -0.148 2.449 C-0.099 1.641 -0.05 0.833 0 0 Z " fill="#DCD296" transform="translate(105,148)"/>
<path d="M0 0 C0.66 0.33 1.32 0.66 2 1 C1.387 3.962 0.746 5.381 -1 8 C-4.125 8.688 -4.125 8.688 -7 9 C-9 6 -9 6 -9 3 C-8.629 3.031 -8.629 3.031 -6.75 3.188 C-3.546 2.969 -2.36 2.097 0 0 Z " fill="#E1DD2F" transform="translate(54,136)"/>
<path d="M0 0 C0.33 0.99 0.66 1.98 1 3 C-0.857 6.361 -3.447 9.289 -6.961 10.898 C-8.875 11.438 -8.875 11.438 -12 12 C-12 11.01 -12 10.02 -12 9 C-10.044 7.603 -8.034 6.281 -6 5 C-3.951 3.385 -1.982 1.699 0 0 Z " fill="#D0D00F" transform="translate(90,84)"/>
<path d="M0 0 C0.382 0.113 0.382 0.113 2.312 0.688 C2 2.625 2 2.625 1.312 4.688 C0.322 5.017 -0.668 5.347 -1.688 5.688 C-1.688 6.347 -1.688 7.007 -1.688 7.688 C-3.337 7.358 -4.987 7.028 -6.688 6.688 C-6.288 4.368 -5.782 2.824 -4.438 0.875 C-2.688 -0.312 -2.688 -0.312 0 0 Z " fill="#F2EB78" transform="translate(41.6875,69.3125)"/>
<path d="M0 0 C0 0.66 0 1.32 0 2 C-0.371 2.217 -0.371 2.217 -2.25 3.312 C-6.332 5.817 -8.507 8.027 -9.691 12.77 C-10.194 15.508 -10.633 18.24 -11 21 C-10.01 20.67 -9.02 20.34 -8 20 C-8 22.31 -8 24.62 -8 27 C-11.519 23.634 -12.186 21.627 -12.312 16.75 C-12.252 11.64 -11.517 8.887 -8 5 C-2.787 0 -2.787 0 0 0 Z " fill="#C3C422" transform="translate(38,66)"/>
<path d="M0 0 C1.65 0.33 3.3 0.66 5 1 C4.67 3.31 4.34 5.62 4 8 C2.35 8.33 0.7 8.66 -1 9 C-1.625 6.188 -1.625 6.188 -2 3 C-1.34 2.01 -0.68 1.02 0 0 Z " fill="#F1EC7A" transform="translate(84,115)"/>
<path d="M0 0 C1.281 0.009 2.563 0.018 3.883 0.027 C4.87 0.039 5.858 0.051 6.875 0.062 C6.875 0.393 6.875 0.722 6.875 1.062 C2.255 1.393 -2.365 1.722 -7.125 2.062 C-7.455 3.053 -7.785 4.042 -8.125 5.062 C-8.455 5.227 -8.455 5.227 -10.125 6.062 C-10.847 7.706 -11.519 9.373 -12.125 11.062 C-12.785 11.062 -13.445 11.062 -14.125 11.062 C-13.801 7.503 -13.515 5.528 -11.188 2.75 C-7.417 -0.335 -4.826 -0.044 0 0 Z " fill="#B6BA03" transform="translate(88.125,144.9375)"/>
<path d="M0 0 C1.32 0.99 2.64 1.98 4 3 C3.402 7.143 1.993 10.182 -0.062 13.812 C-0.61 14.788 -1.158 15.764 -1.723 16.77 C-2.144 17.506 -2.566 18.242 -3 19 C-3.33 18.01 -3.66 17.02 -4 16 C-3.546 15.154 -3.093 14.309 -2.625 13.438 C-0.52 8.985 -0.279 4.868 0 0 Z " fill="#798301" transform="translate(75,134)"/>
<path d="M0 0 C0.33 0 0.66 0 1 0 C0.688 3.375 0.688 3.375 0 7 C-3.445 9.296 -5.938 9.54 -10 10 C-8.491 5.776 -5.7 4.313 -2 2 C-1.34 1.34 -0.68 0.68 0 0 Z " fill="#7C9919" transform="translate(94,48)"/>
<path d="M0 0 C0.66 0.33 1.32 0.66 2 1 C1.715 2.418 1.422 3.834 1.125 5.25 C0.963 6.039 0.8 6.828 0.633 7.641 C0.008 9.968 -0.848 11.89 -2 14 C-2.66 14 -3.32 14 -4 14 C-4.63 5.965 -4.63 5.965 -2 1.938 C-1.34 1.298 -0.68 0.659 0 0 Z " fill="#BDBD07" transform="translate(79,118)"/>
<path d="M0 0 C1.516 4.549 -0.098 7.718 -2 12 C-4.188 15.769 -6.544 19.401 -9 23 C-9.33 22.34 -9.66 21.68 -10 21 C-8.891 18.715 -8.891 18.715 -7.25 15.938 C-4.785 11.596 -2.947 7.463 -1.543 2.68 C-1 1 -1 1 0 0 Z " fill="#AEAA21" transform="translate(98,43)"/>
<path d="M0 0 C0.825 0.33 0.825 0.33 5 2 C2.497 6.86 -1.086 10.279 -5 14 C-5.66 13.67 -6.32 13.34 -7 13 C-6.381 12.237 -5.763 11.474 -5.125 10.688 C-2.257 7.061 -0.737 4.545 0 0 Z " fill="#D9CB90" transform="translate(78,169)"/>
<path d="M0 0 C0.33 0 0.66 0 1 0 C0.631 6.154 -0.829 8.727 -5 13 C-7.709 14.354 -10.009 14.065 -13 14 C-10.572 11.946 -9.106 11.022 -5.938 10.375 C-3 9 -3 9 -1.949 6.875 C-1.198 4.597 -0.548 2.335 0 0 Z " fill="#C5C61B" transform="translate(102,156)"/>
<path d="M0 0 C6 7.714 6 7.714 6 11 C4.35 11.495 4.35 11.495 -4 14 C-4 11.69 -4 9.38 -4 7 C-3.01 8.32 -2.02 9.64 -1 11 C-0.01 10.34 0.98 9.68 2 9 C1.01 6.36 0.02 3.72 -1 1 C-0.67 0.67 -0.34 0.34 0 0 Z " fill="#768600" transform="translate(85,94)"/>
<path d="M0 0 C1.32 0 2.64 0 4 0 C4.201 3.716 4.152 4.772 2 8 C0.35 7.67 -1.3 7.34 -3 7 C-2.387 4.038 -1.746 2.619 0 0 Z " fill="#F7F195" transform="translate(55,96)"/>
<path d="M0 0 C0.91 0.009 1.82 0.018 2.758 0.027 C3.456 0.039 4.155 0.051 4.875 0.062 C4.545 2.043 4.215 4.022 3.875 6.062 C-4.839 4.205 -4.839 4.205 -7.125 1.062 C-4.6 -0.2 -2.813 -0.036 0 0 Z " fill="#D2D025" transform="translate(77.125,62.9375)"/>
<path d="M0 0 C-1 2 -1 2 -2.875 2.875 C-5.368 4.195 -6.451 5.677 -8 8 C-8.33 7.34 -8.66 6.68 -9 6 C-9.66 6 -10.32 6 -11 6 C-11.33 5.01 -11.66 4.02 -12 3 C-10.758 2.298 -9.506 1.614 -8.25 0.938 C-7.902 0.746 -7.902 0.746 -6.141 -0.223 C-3.639 -1.131 -2.467 -0.883 0 0 Z " fill="#9CB322" transform="translate(102,38)"/>
<path d="M0 0 C0.33 0.165 0.33 0.165 2 1 C3.54 1.07 5.083 1.085 6.625 1.062 C7.442 1.053 8.26 1.044 9.102 1.035 C9.728 1.024 10.355 1.012 11 1 C8.861 3.139 7.867 3.427 5 4 C5.99 4.33 6.98 4.66 8 5 C8.33 5.99 8.66 6.98 9 8 C6.36 7.67 3.72 7.34 1 7 C0.67 4.69 0.34 2.38 0 0 Z " fill="#5F820D" transform="translate(105,68)"/>
<path d="M0 0 C0.402 0.01 0.402 0.01 2.438 0.062 C1.688 4.812 1.688 4.812 -0.562 7.062 C-2.688 6.688 -2.688 6.688 -4.562 6.062 C-3.49 0.085 -3.49 0.085 0 0 Z " fill="#F3F17E" transform="translate(71.5625,67.9375)"/>
<path d="M0 0 C-2.057 4.114 -6.927 5.392 -11 7 C-11.495 7.33 -11.495 7.33 -14 9 C-12.129 4.634 -9.684 1.863 -5.438 -0.312 C-3 -1 -3 -1 0 0 Z " fill="#E2DF2B" transform="translate(43,67)"/>
<path d="M0 0 C4.875 1.875 4.875 1.875 6 3 C8.186 3.073 10.375 3.084 12.562 3.062 C13.76 3.053 14.958 3.044 16.191 3.035 C16.655 3.029 16.655 3.029 19 3 C17.311 5.068 16.384 5.921 13.73 6.469 C9.192 6.525 5.982 6.532 2.375 3.562 C0 1 0 1 0 0 Z " fill="#AFA923" transform="translate(49,180)"/>
<path d="M0 0 C0.99 0 1.98 0 3 0 C3.33 1.65 3.66 3.3 4 5 C1 7 1 7 -3 7 C-2.25 2.25 -2.25 2.25 0 0 Z " fill="#F2ED8B" transform="translate(30,104)"/>
<path d="M0 0 C0.33 0.99 0.66 1.98 1 3 C-0.259 4.2 -1.533 5.384 -2.812 6.562 C-3.166 6.893 -3.166 6.893 -4.957 8.566 C-5.631 9.039 -6.305 9.513 -7 10 C-7.99 9.67 -8.98 9.34 -10 9 C-8.711 7.684 -7.419 6.373 -6.125 5.062 C-5.765 4.697 -5.765 4.697 -3.945 2.848 C-2 1 -2 1 0 0 Z " fill="#C6C70F" transform="translate(71,147)"/>
<path d="M0 0 C1.534 3.069 0.55 5.701 0 9 C-1.32 9.33 -2.64 9.66 -4 10 C-4.25 6.688 -4.25 6.688 -4 3 C-2 1.062 -2 1.062 0 0 Z " fill="#D8D63A" transform="translate(39,136)"/>
<path d="M0 0 C0.66 0.33 1.32 0.66 2 1 C2.081 2.603 2.139 4.208 2.188 5.812 C2.205 6.259 2.205 6.259 2.293 8.52 C1.951 11.416 1.246 12.226 -1 14 C-1.027 12.229 -1.046 10.458 -1.062 8.688 C-1.074 7.701 -1.086 6.715 -1.098 5.699 C-1 3 -1 3 0 0 Z " fill="#CDCD18" transform="translate(42,134)"/>
<path d="M0 0 C1.675 0.286 3.344 0.618 5 1 C4.67 2.65 4.34 4.3 4 6 C2.35 6 0.7 6 -1 6 C-1.043 4.334 -1.041 2.666 -1 1 C-0.67 0.67 -0.34 0.34 0 0 Z " fill="#F0ED83" transform="translate(99,83)"/>
<path d="M0 0 C0.66 0 1.32 0 2 0 C2 0.99 2 1.98 2 3 C2.99 2.67 3.98 2.34 5 2 C6.562 4.812 6.562 4.812 8 8 C7.67 8.99 7.34 9.98 7 11 C2.425 8.476 1.479 4.718 0 0 Z " fill="#A7AB02" transform="translate(85,93)"/>
<path d="M0 0 C0.66 0.33 1.32 0.66 2 1 C3.32 1 4.64 1 6 1 C6.33 1.66 6.66 2.32 7 3 C3.69 4.655 0.009 4.101 -3.625 4.062 C-4.427 4.058 -5.229 4.053 -6.055 4.049 C-8.036 4.037 -10.018 4.019 -12 4 C-12 3.67 -12 3.34 -12 3 C-11.301 2.867 -10.603 2.734 -9.883 2.598 C-9.428 2.509 -9.428 2.509 -7.125 2.062 C-6.22 1.888 -5.315 1.714 -4.383 1.535 C-2 1 -2 1 0 0 Z " fill="#D8C791" transform="translate(69,183)"/>
<path d="M0 0 C1.32 0.66 2.64 1.32 4 2 C3.34 3.65 2.68 5.3 2 7 C0.68 7 -0.64 7 -2 7 C-2.125 4.625 -2.125 4.625 -2 2 C-1.34 1.34 -0.68 0.68 0 0 Z " fill="#EEE96F" transform="translate(49,131)"/>
<path d="M0 0 C0.33 0.66 0.66 1.32 1 2 C1.99 2.33 2.98 2.66 4 3 C4 5.64 4 8.28 4 11 C4.66 11.33 5.32 11.66 6 12 C4.35 12 2.7 12 1 12 C1 9.69 1 7.38 1 5 C0.34 4.67 -0.32 4.34 -1 4 C-0.67 2.68 -0.34 1.36 0 0 Z " fill="#6A7A16" transform="translate(99,52)"/>
<path d="M0 0 C0.66 0 1.32 0 2 0 C1.67 1.98 1.34 3.96 1 6 C1.99 6.66 2.98 7.32 4 8 C3.67 8.495 3.67 8.495 2 11 C1.01 11 0.02 11 -1 11 C-2.25 3.375 -2.25 3.375 0 0 Z " fill="#E9E547" transform="translate(52,97)"/>
<path d="M0 0 C3.922 3.698 7.119 7.424 10 12 C9.67 12.99 9.34 13.98 9 15 C7.491 13.069 5.993 11.131 4.5 9.188 C4.071 8.64 3.641 8.093 3.199 7.529 C0 3.34 0 3.34 0 0 Z " fill="#6B9114" transform="translate(127,91)"/>
<path d="M0 0 C4.875 4.75 4.875 4.75 6 7 C6.99 7 7.98 7 9 7 C8.34 8.32 7.68 9.64 7 11 C2.34 7.934 1.145 5.413 0 0 Z " fill="#6F8911" transform="translate(55,61)"/>
<path d="M0 0 C0.33 0.99 0.66 1.98 1 3 C-1.35 7.339 -3.586 9.793 -8 12 C-8.66 11.34 -9.32 10.68 -10 10 C-9.093 9.464 -8.185 8.928 -7.25 8.375 C-3.796 6.099 -2.089 3.536 0 0 Z " fill="#C2C015" transform="translate(75,171)"/>
<path d="M0 0 C2.062 0.438 2.062 0.438 4 1 C3.67 2.65 3.34 4.3 3 6 C1.35 5.67 -0.3 5.34 -2 5 C-1.125 1.125 -1.125 1.125 0 0 Z " fill="#E0DD4D" transform="translate(81,148)"/>
<path d="M0 0 C0.66 0.66 1.32 1.32 2 2 C4.164 2.633 4.164 2.633 6.625 3.125 C7.442 3.293 8.26 3.46 9.102 3.633 C9.728 3.754 10.355 3.875 11 4 C11 4.33 11 4.66 11 5 C6.38 5.33 1.76 5.66 -3 6 C-2.34 5.34 -1.68 4.68 -1 4 C-0.375 1.875 -0.375 1.875 0 0 Z " fill="#A1A403" transform="translate(59,85)"/>
<path d="M0 0 C0.33 0 0.66 0 1 0 C1.92 8.776 1.92 8.776 -0.336 11.777 C-2 13.125 -2 13.125 -5 15 C-4.704 14.459 -4.407 13.917 -4.102 13.359 C-2.859 10.698 -2.119 8.09 -1.375 5.25 C-1.115 4.265 -0.854 3.28 -0.586 2.266 C-0.393 1.518 -0.199 0.77 0 0 Z " fill="#C8C807" transform="translate(57,70)"/>
<path d="M0 0 C2.524 3.125 4.397 6.313 6 10 C5.67 10.66 5.34 11.32 5 12 C4.34 12 3.68 12 3 12 C2.303 10.379 1.618 8.753 0.938 7.125 C0.555 6.22 0.172 5.315 -0.223 4.383 C-1 2 -1 2 0 0 Z " fill="#A6AA03" transform="translate(74,156)"/>
<path d="M0 0 C-2.11 1.13 -3.729 1.968 -6.125 2.25 C-6.744 2.498 -7.362 2.745 -8 3 C-9.25 6.062 -9.25 6.062 -10 9 C-10.33 9 -10.66 9 -11 9 C-10.812 5.688 -10.812 5.688 -10 2 C-6.552 -1.065 -4.349 -1.367 0 0 Z " fill="#ABAF01" transform="translate(85,144)"/>
<path d="M0 0 C0.33 0 0.66 0 1 0 C1.333 4.245 1.439 6.355 -1 9.938 C-1.66 10.618 -2.32 11.299 -3 12 C-4.255 8.234 -3.371 6.628 -2 3 C-1.34 3 -0.68 3 0 3 C0 2.01 0 1.02 0 0 Z " fill="#CACA10" transform="translate(84,108)"/>
<path d="M0 0 C0.33 1.32 0.66 2.64 1 4 C4.375 3.688 4.375 3.688 8 3 C8.66 2.01 9.32 1.02 10 0 C10.66 0 11.32 0 12 0 C12 1.65 12 3.3 12 5 C8.04 5 4.08 5 0 5 C-0.33 3.68 -0.66 2.36 -1 1 C-0.67 0.67 -0.34 0.34 0 0 Z " fill="#698610" transform="translate(71,58)"/>
<path d="M0 0 C1.503 0.975 3.002 1.955 4.5 2.938 C5.335 3.483 6.171 4.028 7.031 4.59 C7.681 5.055 8.331 5.521 9 6 C9 6.33 9 6.66 9 7 C1.125 6.125 1.125 6.125 0 5 C-0.041 3.334 -0.043 1.666 0 0 Z " fill="#ECE1B5" transform="translate(48,180)"/>
<path d="M0 0 C1.488 1.113 1.488 1.113 3 3 C3.293 5.918 3.293 5.918 3.188 9.188 C3.16 10.274 3.133 11.361 3.105 12.48 C3.071 13.312 3.036 14.143 3 15 C0.73 11.596 0.635 9.835 0.375 5.812 C0.3 4.726 0.225 3.639 0.148 2.52 C0.099 1.688 0.05 0.857 0 0 Z " fill="#C7C614" transform="translate(105,116)"/>
<path d="M0 0 C0.66 0.33 1.32 0.66 2 1 C0.556 4.239 -1.258 6.62 -3.625 9.25 C-4.257 9.956 -4.888 10.663 -5.539 11.391 C-6.021 11.922 -6.503 12.453 -7 13 C-7.66 12.34 -8.32 11.68 -9 11 C-8.434 10.457 -7.868 9.915 -7.285 9.355 C-6.552 8.64 -5.818 7.925 -5.062 7.188 C-4.697 6.834 -4.697 6.834 -2.848 5.043 C-1 3 -1 3 0 0 Z " fill="#A0A505" transform="translate(49,122)"/>
<path d="M0 0 C-1.65 1.32 -3.3 2.64 -5 4 C-5.66 3.01 -6.32 2.02 -7 1 C-7.99 0.34 -8.98 -0.32 -10 -1 C-6.063 -2.312 -3.875 -1.243 0 0 Z " fill="#E3DF3E" transform="translate(110,83)"/>
<path d="M0 0 C1.32 0.33 2.64 0.66 4 1 C5.097 4.411 4.942 7.207 4.562 10.75 C4.461 11.735 4.359 12.72 4.254 13.734 C4.212 14.108 4.212 14.108 4 16 C3.67 16 3.34 16 3 16 C2.976 15.464 2.976 15.464 2.852 12.754 C2.777 11.357 2.701 9.96 2.625 8.562 C2.594 7.855 2.563 7.148 2.531 6.42 C2.427 4.608 2.221 2.802 2 1 C1.34 0.67 0.68 0.34 0 0 Z " fill="#B0B308" transform="translate(37,132)"/>
<path d="M0 0 C1.65 0 3.3 0 5 0 C4.67 1.32 4.34 2.64 4 4 C2.68 4.33 1.36 4.66 0 5 C0 3.35 0 1.7 0 0 Z " fill="#EBE972" transform="translate(51,163)"/>
<path d="M0 0 C2.97 0 5.94 0 9 0 C9 0.66 9 1.32 9 2 C6.69 2.66 4.38 3.32 2 4 C1.34 2.68 0.68 1.36 0 0 Z " fill="#858B01" transform="translate(104,111)"/>
<path d="M0 0 C0.33 0 0.66 0 1 0 C1 2.64 1 5.28 1 8 C1.99 7.67 2.98 7.34 4 7 C4 9.31 4 11.62 4 14 C0.055 10.227 0.055 10.227 -0.098 6.836 C-0.086 6.024 -0.074 5.212 -0.062 4.375 C-0.053 3.558 -0.044 2.74 -0.035 1.898 C-0.024 1.272 -0.012 0.645 0 0 Z " fill="#C1BD17" transform="translate(26,79)"/>
<path d="M0 0 C0.66 0 1.32 0 2 0 C2 1.98 2 3.96 2 6 C1.34 6.33 1.34 6.33 -2 8 C-1.477 5.237 -0.891 2.674 0 0 Z " fill="#63820B" transform="translate(95,72)"/>
<path d="M0 0 C0.33 0.99 0.66 1.98 1 3 C3.062 3.688 3.062 3.688 5 4 C5 4.66 5 5.32 5 6 C3.35 6.33 1.7 6.66 0 7 C-0.381 5.009 -0.713 3.007 -1 1 C-0.67 0.67 -0.34 0.34 0 0 Z " fill="#ECE664" transform="translate(83,117)"/>
<path d="M0 0 C0.99 0 1.98 0 3 0 C2.312 2.438 2.312 2.438 1 5 C-1.625 5.812 -1.625 5.812 -4 6 C-2.188 3 -2.188 3 0 0 Z " fill="#C6C619" transform="translate(121,100)"/>
<path d="M0 0 C1.136 3.409 0.867 4.003 -0.438 7.188 C-0.725 7.903 -1.012 8.618 -1.309 9.355 C-1.537 9.898 -1.765 10.441 -2 11 C-2.33 11 -2.66 11 -3 11 C-2.25 3.375 -2.25 3.375 0 0 Z " fill="#D0BE37" transform="translate(98,43)"/>
<path d="M0 0 C-0.33 0.495 -0.33 0.495 -2 3 C-4.31 2.34 -6.62 1.68 -9 1 C-5.649 -1.11 -3.779 -1.05 0 0 Z " fill="#D8D51B" transform="translate(40,99)"/>
<path d="M0 0 C5.104 2.418 5.104 2.418 7 4 C7.715 6.145 7.715 6.145 8 8 C7.529 7.662 7.059 7.325 6.574 6.977 C5.952 6.531 5.329 6.085 4.688 5.625 C4.073 5.184 3.458 4.743 2.824 4.289 C1.235 3.166 -0.381 2.08 -2 1 C-1.34 0.67 -0.68 0.34 0 0 Z " fill="#B4B605" transform="translate(70,89)"/>
<path d="M0 0 C1.175 0.927 2.34 1.867 3.5 2.812 C4.15 3.335 4.799 3.857 5.469 4.395 C7 6 7 6 7 9 C5.874 8.043 4.749 7.084 3.625 6.125 C2.999 5.591 2.372 5.058 1.727 4.508 C0.442 3.386 -0.794 2.206 -2 1 C-1.34 0.67 -0.68 0.34 0 0 Z " fill="#7A940E" transform="translate(116,76)"/>
<path d="M0 0 C1.32 1.32 2.64 2.64 4 4 C3.67 4.99 3.34 5.98 3 7 C1.68 7 0.36 7 -1 7 C-0.67 4.69 -0.34 2.38 0 0 Z " fill="#EAE549" transform="translate(66,71)"/>
<path d="M0 0 C1.213 2.427 1 4.335 1 7 C1.66 7.33 2.32 7.66 3 8 C2.01 8.33 1.02 8.66 0 9 C-0.99 8.01 -1.98 7.02 -3 6 C-1.125 1.125 -1.125 1.125 0 0 Z " fill="#6E7C09" transform="translate(89,60)"/>
<path d="M0 0 C0.66 0.99 1.32 1.98 2 3 C1.34 3.99 1.34 3.99 -2 9 C-2.99 8.67 -3.98 8.34 -5 8 C-4.361 7.237 -3.721 6.474 -3.062 5.688 C-1 3 -1 3 0 0 Z " fill="#A9AC04" transform="translate(107,131)"/>
<path d="M0 0 C0.66 0.99 1.32 1.98 2 3 C-2.256 4.161 -5.684 3.762 -10 3 C-10 2.67 -10 2.34 -10 2 C-6.7 1.34 -3.4 0.68 0 0 Z " fill="#AFB308" transform="translate(100,141)"/>
<path d="M0 0 C4.75 0.75 4.75 0.75 7 3 C6.01 3.66 5.02 4.32 4 5 C2 3.625 2 3.625 0 2 C0 1.34 0 0.68 0 0 Z " fill="#F1F1E3" transform="translate(118,109)"/>
<path d="M0 0 C0.66 0.33 1.32 0.66 2 1 C0.68 3.31 -0.64 5.62 -2 8 C-2.33 8 -2.66 8 -3 8 C-2.744 5.657 -2.407 3.322 -2 1 C-1.34 0.67 -0.68 0.34 0 0 Z " fill="#E4E12A" transform="translate(49,99)"/>
<path d="M0 0 C1.32 0.66 2.64 1.32 4 2 C3.67 2.99 3.34 3.98 3 5 C1.35 4.67 -0.3 4.34 -2 4 C-1.34 2.68 -0.68 1.36 0 0 Z " fill="#E5DF2B" transform="translate(58,92)"/>
<path d="M0 0 C2.25 0.25 2.25 0.25 4 1 C3.01 1.825 3.01 1.825 -2 6 C-2.66 5.34 -3.32 4.68 -4 4 C-2.25 1.938 -2.25 1.938 0 0 Z " fill="#E5E13D" transform="translate(44,71)"/>
<path d="M0 0 C2.438 0.375 2.438 0.375 5 1 C5.33 1.66 5.66 2.32 6 3 C5.34 3.66 4.68 4.32 4 5 C3.34 4.01 2.68 3.02 2 2 C1.505 2.33 1.505 2.33 -1 4 C-0.67 2.68 -0.34 1.36 0 0 Z " fill="#93B221" transform="translate(60,42)"/>
<path d="M0 0 C0.33 0.99 0.66 1.98 1 3 C3.062 3.688 3.062 3.688 5 4 C4.01 4 3.02 4 2 4 C1.67 4.99 1.34 5.98 1 7 C0.34 7 -0.32 7 -1 7 C-0.67 4.69 -0.34 2.38 0 0 Z " fill="#E9E34D" transform="translate(26,108)"/>
<path d="M0 0 C2.062 0.438 2.062 0.438 4 1 C2.71 2.376 1.373 3.708 0 5 C-0.66 5 -1.32 5 -2 5 C-1.125 1.125 -1.125 1.125 0 0 Z " fill="#F7EF9A" transform="translate(38,70)"/>
<path d="M0 0 C-0.33 0.66 -0.66 1.32 -1 2 C-3.562 2.625 -3.562 2.625 -6 3 C-6 2.01 -6 1.02 -6 0 C-3.509 -1.245 -2.589 -0.777 0 0 Z " fill="#ABAA3B" transform="translate(102,38)"/>
</svg>
