<?xml version="1.0" encoding="UTF-8"?>
<!-- Generator: visioncortex VTracer 0.6.12 -->
<svg version="1.1" xmlns="http://www.w3.org/2000/svg" width="175" height="190">
<path d="M0 0 C57.75 0 115.5 0 175 0 C175 62.7 175 125.4 175 190 C117.25 190 59.5 190 0 190 C0 127.3 0 64.6 0 0 Z " fill="#FCF7EB" transform="translate(0,0)"/>
<path d="M0 0 C6.227 5.351 11.025 10.599 13.324 18.578 C16.013 23.175 19.2 23.662 24.059 25.469 C35.264 30.443 42.355 41.45 46.699 52.516 C50.515 65.236 49.222 78.674 42.941 90.344 C36.053 101.411 27.148 108.471 14.39 111.498 C10.884 112.145 7.444 112.232 3.887 112.203 C3.142 112.197 2.398 112.192 1.63 112.186 C-12.306 111.88 -23.531 105.756 -33.156 95.844 C-34.738 93.891 -34.738 93.891 -34.738 91.891 C-35.621 91.925 -36.504 91.96 -37.414 91.996 C-52.932 92.346 -65.036 88.2 -76.738 77.891 C-77.541 77.518 -78.344 77.146 -79.172 76.762 C-82.871 74.065 -83.85 70.839 -85.426 66.641 C-85.72 65.902 -86.015 65.163 -86.318 64.402 C-91.944 50.067 -91.872 37.741 -86.332 23.199 C-79.085 7.628 -67.17 -3.198 -51.188 -9.418 C-33.472 -14.419 -14.546 -11.205 0 0 Z " fill="#9AB906" transform="translate(97.73828125,59.109375)"/>
<path d="M0 0 C0.841 0.008 1.682 0.017 2.548 0.025 C12.138 0.286 18.898 2.885 25.93 9.504 C33.655 18.001 34.37 26.336 33.862 37.412 C32.875 48.852 25.957 60.114 17.711 67.875 C6.709 76.371 -5.541 79.779 -19.312 78.438 C-28.507 76.058 -35.603 71.396 -40.652 63.285 C-45.359 54.291 -46.162 42.308 -43.188 32.562 C-37.812 19.472 -28.944 9.811 -16.312 3.438 C-15.249 2.897 -14.186 2.357 -13.09 1.801 C-8.775 -0.004 -4.626 -0.059 0 0 Z " fill="#D7DD29" transform="translate(103.3125,83.5625)"/>
<path d="M0 0 C6.227 5.351 11.025 10.599 13.324 18.578 C16.013 23.175 19.2 23.662 24.059 25.469 C35.264 30.443 42.355 41.45 46.699 52.516 C50.515 65.236 49.222 78.674 42.941 90.344 C36.053 101.411 27.148 108.471 14.39 111.498 C10.884 112.145 7.444 112.232 3.887 112.203 C3.142 112.197 2.398 112.192 1.63 112.186 C-12.306 111.88 -23.531 105.756 -33.156 95.844 C-34.738 93.891 -34.738 93.891 -34.738 91.891 C-35.621 91.925 -36.504 91.96 -37.414 91.996 C-52.932 92.346 -65.036 88.2 -76.738 77.891 C-77.541 77.518 -78.344 77.146 -79.172 76.762 C-82.871 74.065 -83.85 70.839 -85.426 66.641 C-85.72 65.902 -86.015 65.163 -86.318 64.402 C-91.944 50.067 -91.872 37.741 -86.332 23.199 C-82.376 14.699 -77.354 8.413 -70.738 1.891 C-70.078 2.221 -69.418 2.551 -68.738 2.891 C-69.378 3.489 -70.017 4.087 -70.676 4.703 C-72.738 6.891 -72.738 6.891 -73.738 9.891 C-74.501 10.633 -75.265 11.376 -76.051 12.141 C-81.863 18.088 -85.583 26.307 -85.816 34.695 C-85.791 35.42 -85.765 36.144 -85.738 36.891 C-79.988 34.266 -79.988 34.266 -77.738 30.891 C-72.977 35.191 -72.977 35.191 -72.738 38.891 C-73.398 39.881 -74.058 40.871 -74.738 41.891 C-75.398 41.891 -76.058 41.891 -76.738 41.891 C-77.068 40.241 -77.398 38.591 -77.738 36.891 C-79.613 37.516 -79.613 37.516 -81.738 38.891 C-82.988 42.016 -82.988 42.016 -83.738 44.891 C-82.913 44.726 -82.913 44.726 -78.738 43.891 C-78.738 44.551 -78.738 45.211 -78.738 45.891 C-79.398 46.551 -80.058 47.211 -80.738 47.891 C-78.086 48.966 -75.455 49.985 -72.738 50.891 C-71.613 56.641 -71.613 56.641 -72.738 58.891 C-72.078 58.891 -71.418 58.891 -70.738 58.891 C-70.738 60.541 -70.738 62.191 -70.738 63.891 C-63.892 67.153 -58.316 68.641 -50.738 67.891 C-49.439 67.787 -48.14 67.684 -46.801 67.578 C-43.738 65.891 -43.738 65.891 -42.715 63.484 C-42.197 61.577 -41.738 59.652 -41.344 57.715 C-40.738 54.891 -40.738 54.891 -39.664 52.223 C-38.738 49.891 -38.738 49.891 -38.738 46.891 C-38.227 43.466 -37.296 42.201 -34.551 40.141 C-30.525 36.897 -27.669 33.121 -24.738 28.891 C-24.078 29.221 -23.418 29.551 -22.738 29.891 C-22.078 29.561 -21.418 29.231 -20.738 28.891 C-19.698 28.411 -18.658 27.932 -17.586 27.438 C-16.324 26.839 -15.062 26.24 -13.801 25.641 C-13.167 25.353 -12.534 25.066 -11.881 24.77 C-7.791 22.8 -5.54 21.097 -3.738 16.891 C-4.051 14.328 -4.051 14.328 -4.738 11.891 C-4.738 7.891 -4.738 7.891 -3.738 5.891 C-3.698 3.891 -3.695 1.89 -3.738 -0.109 C-18.57 -8.207 -31.097 -10.945 -47.801 -7.109 C-48.666 -6.919 -49.532 -6.728 -50.424 -6.531 C-52.531 -6.066 -54.635 -5.589 -56.738 -5.109 C-43.164 -19.386 -13.075 -10.072 0 0 Z M-31.738 45.891 C-32.846 47.697 -33.91 49.531 -34.926 51.391 C-35.435 52.308 -35.944 53.226 -36.469 54.172 C-40.095 61.938 -39.895 72.561 -38.09 80.879 C-34.807 89.9 -28.358 96.734 -19.738 100.891 C-9.272 104.997 1.614 103.283 11.762 99.141 C24.319 93.272 31.995 83.527 37.262 70.891 C40.172 62.339 41.342 50.091 37.371 41.625 C31.951 33.152 24.971 27.718 15.262 24.891 C-4.39 21.736 -19.948 30.154 -31.738 45.891 Z " fill="#6F9506" transform="translate(97.73828125,59.109375)"/>
<path d="M0 0 C0.841 0.008 1.682 0.017 2.548 0.025 C12.138 0.286 18.898 2.885 25.93 9.504 C33.655 18.001 34.37 26.336 33.862 37.412 C32.875 48.852 25.957 60.114 17.711 67.875 C6.709 76.371 -5.541 79.779 -19.312 78.438 C-28.507 76.058 -35.603 71.396 -40.652 63.285 C-45.359 54.291 -46.162 42.308 -43.188 32.562 C-37.812 19.472 -28.944 9.811 -16.312 3.438 C-15.249 2.897 -14.186 2.357 -13.09 1.801 C-8.775 -0.004 -4.626 -0.059 0 0 Z M-15.312 10.438 C-16.254 10.413 -17.195 10.389 -18.164 10.363 C-22.1 10.456 -23.179 11.462 -26 14.125 C-26.746 14.809 -27.493 15.494 -28.262 16.199 C-30.969 19.154 -32.814 22.141 -34.25 25.875 C-35.555 29.023 -37.412 31.617 -39.312 34.438 C-40.194 37.082 -40.474 38.718 -40.5 41.438 C-40.514 42.118 -40.528 42.799 -40.543 43.5 C-40.312 45.438 -40.312 45.438 -38.312 48.438 C-32.552 47.758 -27.361 45.829 -21.938 43.875 C-21.011 43.546 -20.084 43.216 -19.129 42.877 C-16.855 42.068 -14.583 41.255 -12.312 40.438 C-12.312 39.118 -12.312 37.797 -12.312 36.438 C-12.642 36.108 -12.972 35.778 -13.312 35.438 C-9.475 34.63 -6.248 34.438 -2.312 34.438 C-2.312 35.097 -2.312 35.757 -2.312 36.438 C-1.653 36.767 -0.993 37.097 -0.312 37.438 C-0.642 38.428 -0.972 39.417 -1.312 40.438 C-0.983 40.767 -0.653 41.097 -0.312 41.438 C-0.972 41.438 -1.632 41.438 -2.312 41.438 C-2.312 42.097 -2.312 42.757 -2.312 43.438 C-3.303 43.438 -4.292 43.438 -5.312 43.438 C-5.341 47.542 -5.359 51.646 -5.375 55.75 C-5.379 56.334 -5.379 56.334 -5.4 59.287 C-5.404 60.405 -5.407 61.524 -5.41 62.676 C-5.415 63.707 -5.421 64.739 -5.426 65.802 C-5.312 68.438 -5.312 68.438 -4.312 71.438 C2.08 72.118 6.581 70.363 11.688 66.438 C13 63.688 13 63.688 13.688 61.438 C15.015 61.083 16.35 60.752 17.688 60.438 C20.306 57.819 21.606 56.356 21.938 52.625 C21.855 51.903 21.773 51.181 21.688 50.438 C22.678 50.438 23.667 50.438 24.688 50.438 C28.18 44.543 30.051 39.354 28.688 32.438 C27.16 30.645 27.16 30.645 25.688 29.438 C26.347 28.778 27.007 28.118 27.688 27.438 C28.439 22.739 27.728 19.922 25.125 16.062 C22.877 13.284 21.383 11.946 17.812 11.438 C16.781 11.438 15.75 11.438 14.688 11.438 C14.636 11.128 14.636 11.128 14.375 9.562 C13.688 7.438 13.688 7.438 10.688 5.438 C4.365 4.986 4.365 4.986 0.688 7.438 C0.028 6.778 -0.632 6.118 -1.312 5.438 C-7.948 4.199 -10.768 5.524 -15.312 10.438 Z " fill="#F7F5C1" transform="translate(103.3125,83.5625)"/>
<path d="M0 0 C0.66 0.33 1.32 0.66 2 1 C1.361 1.598 0.721 2.196 0.062 2.812 C-2 5 -2 5 -3 8 C-3.763 8.743 -4.526 9.485 -5.312 10.25 C-11.125 16.198 -14.844 24.416 -15.078 32.805 C-15.052 33.529 -15.027 34.254 -15 35 C-9.25 32.375 -9.25 32.375 -7 29 C-2.239 33.301 -2.239 33.301 -2 37 C-2.66 37.99 -3.32 38.98 -4 40 C-4.66 40 -5.32 40 -6 40 C-6.33 38.35 -6.66 36.7 -7 35 C-8.875 35.625 -8.875 35.625 -11 37 C-12.25 40.125 -12.25 40.125 -13 43 C-12.175 42.835 -12.175 42.835 -8 42 C-8 42.66 -8 43.32 -8 44 C-8.66 44.66 -9.32 45.32 -10 46 C-7.348 47.075 -4.716 48.095 -2 49 C-0.875 54.75 -0.875 54.75 -2 57 C-1.34 57 -0.68 57 0 57 C0 58.65 0 60.3 0 62 C6.84 65.26 12.427 66.762 20 66 C21.299 65.876 22.599 65.752 23.938 65.625 C27 64 27 64 28.023 61.676 C28.543 59.872 29.002 58.05 29.395 56.215 C29.594 55.484 29.794 54.753 30 54 C30.66 53.67 31.32 53.34 32 53 C31.918 53.505 31.918 53.505 31.5 56.062 C30.3 65.981 29.914 75.741 34 85 C34.669 86.666 35.336 88.332 36 90 C19.404 90.654 6.598 87.099 -6 76 C-6.803 75.627 -7.606 75.255 -8.434 74.871 C-12.132 72.174 -13.112 68.948 -14.688 64.75 C-14.982 64.011 -15.277 63.273 -15.58 62.512 C-21.205 48.177 -21.133 35.85 -15.594 21.309 C-11.637 12.808 -6.616 6.523 0 0 Z " fill="#638C06" transform="translate(27,61)"/>
<path d="M0 0 C1.65 0 3.3 0 5 0 C5.165 0.66 5.165 0.66 6 4 C6.99 4 7.98 4 9 4 C9.33 2.68 9.66 1.36 10 0 C10.66 0 11.32 0 12 0 C12 0.66 12 1.32 12 2 C13.32 2 14.64 2 16 2 C16 2.66 16 3.32 16 4 C14.68 4 13.36 4 12 4 C12.215 4.583 12.431 5.165 12.652 5.766 C13 8 13 8 12.004 9.922 C11.766 10.224 11.766 10.224 10.562 11.75 C10.089 12.364 9.616 12.977 9.129 13.609 C8.756 14.068 8.384 14.527 8 15 C7.835 14.505 7.835 14.505 7 12 C7.66 12 8.32 12 9 12 C9 10.35 9 8.7 9 7 C8.34 7.66 7.68 8.32 7 9 C6.835 8.34 6.835 8.34 6 5 C6.041 5.928 6.083 6.856 6.125 7.812 C6 11 6 11 4 14 C3.556 16.049 3.187 18.115 2.875 20.188 C2.791 20.731 2.791 20.731 2.367 23.48 C2.307 23.896 2.307 23.896 2 26 C2.825 25.505 2.825 25.505 7 23 C6.34 24.98 5.68 26.96 5 29 C4.835 28.67 4.835 28.67 4 27 C1.562 26.25 1.562 26.25 -1 26 C-1.66 26.66 -2.32 27.32 -3 28 C-6.625 27.625 -6.625 27.625 -10 27 C-8.35 27.99 -6.7 28.98 -5 30 C-6 33 -6 33 -8.054 34.091 C-10.948 35.157 -13.842 36.219 -16.75 37.25 C-17.753 37.626 -18.756 38.003 -19.789 38.391 C-20.275 38.566 -20.275 38.566 -22.734 39.453 C-23.624 39.774 -24.513 40.096 -25.429 40.427 C-28.344 41.077 -30.169 40.915 -33 40 C-34.614 36.772 -34.459 33.5 -34 30 C-32.58 26.151 -30.908 22.908 -28 20 C-27.608 18.969 -27.216 17.938 -26.812 16.875 C-24.459 11.117 -20.132 6.421 -15 3 C-13 2.959 -11 2.957 -9 3 C-8.34 2.67 -7.68 2.34 -7 2 C-6.01 5.63 -5.02 9.26 -4 13 C-4 9.7 -4 6.4 -4 3 C-2.68 2.67 -1.36 2.34 0 2 C0 1.34 0 0.68 0 0 Z " fill="#DCDF3A" transform="translate(97,91)"/>
<path d="M0 0 C5.057 4.215 6.884 8.856 9 15 C9.18 15.463 9.18 15.463 10.09 17.809 C13.374 29.324 11.267 42.072 5.68 52.453 C-1.209 63.52 -10.114 70.581 -22.872 73.607 C-26.377 74.254 -29.818 74.341 -33.375 74.312 C-34.12 74.307 -34.864 74.301 -35.631 74.295 C-48.235 74.018 -59.243 69.042 -68.188 60.125 C-69.472 58.762 -70.747 57.392 -72 56 C-71.67 55.34 -71.34 54.68 -71 54 C-70.573 54.531 -70.147 55.062 -69.707 55.609 C-63.32 62.826 -56.464 65.099 -47.059 66.41 C-36.31 66.98 -23.728 63.547 -15.523 56.453 C-15.021 55.974 -14.518 55.494 -14 55 C-13.154 54.257 -12.309 53.515 -11.438 52.75 C-1.648 41.706 3.308 30.078 3.234 15.293 C2.859 10.014 1.506 5.057 0 0 Z " fill="#6C9105" transform="translate(135,97)"/>
<path d="M0 0 C1.125 3.75 1.125 3.75 0 6 C0.433 5.34 0.866 4.68 1.312 4 C1.869 3.34 2.426 2.68 3 2 C3.99 2 4.98 2 6 2 C6.074 5.951 6.129 9.902 6.165 13.853 C6.187 15.859 6.225 17.865 6.264 19.871 C6.273 21.128 6.283 22.385 6.293 23.68 C6.309 24.842 6.324 26.005 6.341 27.203 C6.284 27.664 6.284 27.664 6 30 C1.746 32.836 -2.006 32.643 -7 32 C-9.613 30.958 -10.882 29.951 -13 28 C-13 27.01 -13 26.02 -13 25 C-13.866 25.144 -14.733 25.289 -15.625 25.438 C-20.056 24.863 -21.138 23.123 -23.801 19.727 C-26.134 16.367 -26.088 14.056 -26 10 C-19.834 6.626 -13.822 4.655 -7 3 C-8.667 4.667 -10.333 6.333 -12 8 C-9.36 6.68 -6.72 5.36 -4 4 C-4.66 3.34 -5.32 2.68 -6 2 C-4.02 1.34 -2.04 0.68 0 0 Z " fill="#D7DE34" transform="translate(91,125)"/>
<path d="M0 0 C1.878 2.243 2.361 3.363 2.828 6.184 C3.077 6.895 3.326 7.607 3.582 8.34 C7.605 20.001 6.31 30.79 1.828 42.184 C-5.029 55.039 -14.005 64.676 -28.109 69.184 C-39.478 72.512 -50.293 72.365 -61.172 67.184 C-67.927 62.194 -73.617 55.094 -75.781 46.867 C-78.022 31.47 -74.741 19.442 -65.578 7.023 C-57.093 -3.363 -45.108 -10.097 -31.792 -11.516 C-18.756 -12.627 -9.646 -8.977 0 0 Z M-67.172 12.184 C-68.28 13.99 -69.343 15.824 -70.359 17.684 C-70.869 18.601 -71.378 19.519 -71.902 20.465 C-75.529 28.23 -75.328 38.854 -73.523 47.172 C-70.24 56.193 -63.791 63.027 -55.172 67.184 C-44.706 71.29 -33.82 69.576 -23.672 65.434 C-11.115 59.565 -3.438 49.82 1.828 37.184 C4.738 28.632 5.908 16.384 1.938 7.918 C-3.482 -0.555 -10.462 -5.989 -20.172 -8.816 C-39.823 -11.971 -55.382 -3.553 -67.172 12.184 Z " fill="#C3CC1B" transform="translate(133.171875,92.81640625)"/>
<path d="M0 0 C0.447 0.271 0.447 0.271 2.711 1.645 C16.351 9.787 28.752 13.287 44.703 10.309 C51.58 8.397 56.606 5.601 62 1 C62.66 0.67 63.32 0.34 64 0 C62.715 2.867 61.429 4.976 59 7 C58.34 7 57.68 7 57 7 C56.856 7.639 56.711 8.279 56.562 8.938 C56 11 56 11 55 12 C60.461 13.4 64.693 12.427 70 11 C69.67 11.99 69.34 12.98 69 14 C66.375 15.062 66.375 15.062 63 16 C62.477 16.167 62.477 16.167 59.832 17.012 C55.601 18.103 51.661 18.533 47.312 18.75 C46.495 18.791 45.678 18.832 44.836 18.874 C31.96 19.349 13.963 19.591 3.062 11.938 C2.382 11.298 1.701 10.659 1 10 C-0.311 9.291 -1.638 8.605 -3 8 C-2.845 7.711 -2.845 7.711 -2.062 6.25 C-1.071 4.151 -0.525 2.249 0 0 Z " fill="#F6EAD0" transform="translate(69,159)"/>
<path d="M0 0 C0.841 0.008 1.682 0.017 2.548 0.025 C12.419 0.294 18.826 3.067 26.094 9.754 C28.558 12.357 29.688 13.789 29.688 17.438 C28.368 17.767 27.048 18.097 25.688 18.438 C25.172 17.654 24.656 16.87 24.125 16.062 C21.156 12.866 18.815 12.584 14.688 11.438 C13.375 9.375 13.375 9.375 12.688 7.438 C9.669 5.928 7.015 6.262 3.688 6.438 C2.697 7.097 1.708 7.757 0.688 8.438 C0.028 7.778 -0.632 7.118 -1.312 6.438 C-4.366 5.868 -7.257 5.889 -10.312 6.438 C-13 8.938 -13 8.938 -15.312 11.438 C-16.241 11.396 -17.169 11.355 -18.125 11.312 C-23.176 11.511 -25.938 14.897 -29.312 18.438 C-30.336 19.753 -31.343 21.081 -32.312 22.438 C-33.302 22.108 -34.293 21.778 -35.312 21.438 C-33.1 13.325 -25.799 8.815 -18.938 4.797 C-12.242 1.329 -7.536 -0.095 0 0 Z " fill="#F9F6C9" transform="translate(103.3125,83.5625)"/>
<path d="M0 0 C0.99 0 1.98 0 3 0 C3.66 1.32 4.32 2.64 5 4 C4.01 4 3.02 4 2 4 C2.33 7.3 2.66 10.6 3 14 C3.99 14.33 4.98 14.66 6 15 C6.66 13.02 7.32 11.04 8 9 C8.99 9 9.98 9 11 9 C10.01 7.35 9.02 5.7 8 4 C12.032 5.724 13.913 8.131 16.535 11.539 C18 13 18 13 21 13 C21.66 11.02 22.32 9.04 23 7 C24.32 7.33 25.64 7.66 27 8 C26.679 11.531 26.349 13.558 24.125 16.375 C22 18 22 18 19 18 C18.856 18.722 18.711 19.444 18.562 20.188 C16.17 24.493 12.513 26.236 8 28 C5.486 28.366 3.549 28.271 1 28 C-0.059 24.822 -0.115 22.574 -0.098 19.238 C-0.094 18.12 -0.091 17.002 -0.088 15.85 C-0.08 14.682 -0.071 13.515 -0.062 12.312 C-0.06 11.723 -0.06 11.723 -0.049 8.74 C-0.037 5.827 -0.021 2.913 0 0 Z " fill="#D8DD31" transform="translate(98,127)"/>
<path d="M0 0 C0.773 0.004 1.547 0.008 2.344 0.012 C4.5 0.312 4.5 0.312 7.5 2.312 C8.16 1.653 8.82 0.993 9.5 0.312 C13.299 -0.039 15.644 -0.215 18.938 1.812 C19.453 2.308 19.969 2.802 20.5 3.312 C19.967 7.537 18.623 9.853 15.938 13.125 C15.617 13.52 15.617 13.52 13.996 15.52 C13.502 16.111 13.009 16.703 12.5 17.312 C13.5 17.312 13.5 17.312 16.5 15.312 C15.069 18.474 13.325 20.935 11.062 23.562 C10.466 24.269 9.869 24.975 9.254 25.703 C7.5 27.312 7.5 27.312 4.5 27.312 C3.51 27.642 2.52 27.972 1.5 28.312 C1.291 23.191 1.935 19.182 3.5 14.312 C3.88 13.001 4.255 11.689 4.625 10.375 C4.914 9.364 5.203 8.354 5.5 7.312 C6.16 7.642 6.82 7.972 7.5 8.312 C8.16 7.983 8.82 7.653 9.5 7.312 C9.17 9.623 8.84 11.933 8.5 14.312 C7.84 14.312 7.18 14.312 6.5 14.312 C6.83 14.972 7.16 15.632 7.5 16.312 C8.16 15.219 8.82 14.126 9.5 13 C9.686 12.693 9.686 12.693 10.625 11.137 C11.5 9.312 11.5 9.312 11.5 6.312 C12.82 6.312 14.14 6.312 15.5 6.312 C15.5 5.653 15.5 4.993 15.5 4.312 C14.18 4.312 12.86 4.312 11.5 4.312 C11.5 3.653 11.5 2.993 11.5 2.312 C11.17 2.478 11.17 2.478 9.5 3.312 C9.17 4.302 8.84 5.293 8.5 6.312 C7.51 6.312 6.52 6.312 5.5 6.312 C5.17 4.993 4.84 3.672 4.5 2.312 C2.85 2.312 1.2 2.312 -0.5 2.312 C-0.5 2.972 -0.5 3.632 -0.5 4.312 C-1.82 4.642 -3.14 4.972 -4.5 5.312 C-4.17 9.602 -3.84 13.892 -3.5 18.312 C-4.16 17.983 -4.82 17.653 -5.5 17.312 C-6.934 12.611 -8.075 8.258 -7.5 3.312 C-5.267 0.34 -3.65 -0.079 0 0 Z " fill="#D4D927" transform="translate(97.5,88.6875)"/>
<path d="M0 0 C1.65 0 3.3 0 5 0 C5.33 1.32 5.66 2.64 6 4 C6.99 4 7.98 4 9 4 C9.33 2.68 9.66 1.36 10 0 C10.66 0 11.32 0 12 0 C12 0.66 12 1.32 12 2 C13.32 2 14.64 2 16 2 C16 2.66 16 3.32 16 4 C14.68 4 13.36 4 12 4 C12.215 4.583 12.431 5.165 12.652 5.766 C13 8 13 8 12.004 9.922 C11.528 10.525 11.053 11.128 10.562 11.75 C10.089 12.364 9.616 12.977 9.129 13.609 C8.756 14.068 8.384 14.527 8 15 C7.67 14.01 7.34 13.02 7 12 C7.66 12 8.32 12 9 12 C9 10.35 9 8.7 9 7 C8.34 7.66 7.68 8.32 7 9 C6.67 7.68 6.34 6.36 6 5 C6.041 5.928 6.082 6.856 6.125 7.812 C6 11 6 11 4 14 C3.556 16.049 3.187 18.115 2.875 20.188 C2.791 20.731 2.791 20.731 2.367 23.48 C2.246 24.312 2.125 25.143 2 26 C3.65 25.01 5.3 24.02 7 23 C6.34 24.98 5.68 26.96 5 29 C4.67 28.34 4.34 27.68 4 27 C2.344 26.618 0.675 26.286 -1 26 C-3 25 -3 25 -3.81 23.098 C-4.637 20.444 -5.454 17.789 -6.25 15.125 C-6.544 14.201 -6.838 13.276 -7.141 12.324 C-7.409 11.436 -7.677 10.548 -7.953 9.633 C-8.202 8.817 -8.451 8.001 -8.708 7.161 C-9 5 -9 5 -7 2 C-6.01 5.63 -5.02 9.26 -4 13 C-4 9.7 -4 6.4 -4 3 C-2.68 2.67 -1.36 2.34 0 2 C0 1.34 0 0.68 0 0 Z " fill="#DADF3C" transform="translate(97,91)"/>
<path d="M0 0 C1.875 0.625 1.875 0.625 4 2 C5.375 4.938 5.375 4.938 6 8 C5.67 8.495 5.67 8.495 4 11 C3.34 11 2.68 11 2 11 C1.67 9.35 1.34 7.7 1 6 C-0.875 6.625 -0.875 6.625 -3 8 C-4.25 11.125 -4.25 11.125 -5 14 C-3.35 13.67 -1.7 13.34 0 13 C0 13.66 0 14.32 0 15 C-0.66 15.66 -1.32 16.32 -2 17 C-1.175 17.33 -1.175 17.33 3 19 C2.01 19.33 1.02 19.66 0 20 C0.66 21.32 1.32 22.64 2 24 C1.34 24 0.68 24 0 24 C-0.124 24.639 -0.248 25.279 -0.375 25.938 C-0.581 26.618 -0.788 27.299 -1 28 C-1.66 28.33 -2.32 28.66 -3 29 C-2.01 29.701 -1.02 30.403 0 31.125 C2.612 33.282 2.952 33.648 3.438 37.188 C3 40 3 40 2 42 C0.199 41.902 0.199 41.902 -2 41 C-6.904 32.742 -9.909 23.494 -8.562 13.875 C-8.377 13.256 -8.191 12.638 -8 12 C-8.33 12 -8.66 12 -9 12 C-9 9.36 -9 6.72 -9 4 C-8.34 4.66 -7.68 5.32 -7 6 C-4.062 4.688 -4.062 4.688 -1 3 C-0.67 2.01 -0.34 1.02 0 0 Z " fill="#7CA109" transform="translate(19,90)"/>
<path d="M0 0 C0.762 0.41 1.524 0.82 2.309 1.242 C9.742 5.121 16.019 7.927 24.457 8.051 C34.081 8.242 34.081 8.242 37.23 10.84 C38.708 12.837 39.929 14.761 41 17 C39.062 18.188 39.062 18.188 36 19 C33.855 18.449 31.86 17.648 29.793 16.855 C26.351 15.801 23.014 15.45 19.438 15.062 C13.452 14.353 7.474 13.474 3 9 C2.959 7 2.957 5 3 3 C2.01 2.67 1.02 2.34 0 2 C0 1.34 0 0.68 0 0 Z " fill="#D5C491" transform="translate(28,142)"/>
<path d="M0 0 C4.077 -0.474 5.583 -0.31 8.938 2.188 C11 5 11 5 11 7.688 C10 10 10 10 7 12 C7 12.99 7 13.98 7 15 C3.509 17.327 0.291 18.134 -3.723 19.219 C-6 20 -6 20 -8 22 C-10.625 22.625 -10.625 22.625 -13 23 C-11.556 19.761 -9.742 17.38 -7.375 14.75 C-6.743 14.044 -6.112 13.337 -5.461 12.609 C-4.979 12.078 -4.497 11.547 -4 11 C-5.32 11.99 -6.64 12.98 -8 14 C-8 10.22 -6.921 9.318 -4.562 6.438 C-1.071 2.142 -1.071 2.142 0 0 Z " fill="#DCE240" transform="translate(117,95)"/>
<path d="M0 0 C2.375 0.188 2.375 0.188 5.375 2.188 C6.033 5.33 5.947 7.287 4.203 10.031 C0.527 14.504 -2.838 17.914 -8.812 18.5 C-11.625 18.188 -11.625 18.188 -13.625 16.188 C-14.164 12.213 -14.465 9.66 -12.457 6.141 C-10.202 3.335 -8.473 1.498 -5.062 0.25 C-3.373 0.207 -1.685 0.12 0 0 Z " fill="#D3DD56" transform="translate(47.625,65.8125)"/>
<path d="M0 0 C5.057 4.215 6.884 8.856 9 15 C9.36 15.927 9.719 16.854 10.09 17.809 C13.374 29.324 11.267 42.072 5.68 52.453 C2.299 57.885 -1.842 63.163 -7 67 C-10.5 67.5 -10.5 67.5 -13 67 C-12.66 66.67 -12.66 66.67 -10.938 65 C-9.955 64.003 -8.976 63.003 -8 62 C-7.434 61.43 -6.868 60.86 -6.285 60.273 C-1.374 55.05 1.273 49.577 4 43 C4.362 42.35 4.724 41.701 5.098 41.031 C6.258 38.419 6.422 36.094 6.625 33.25 C6.7 32.265 6.775 31.28 6.852 30.266 C6.876 29.892 6.876 29.892 7 28 C7.66 28.33 8.32 28.66 9 29 C8.718 26.895 8.424 24.791 8.125 22.688 C7.963 21.516 7.8 20.344 7.633 19.137 C7 16 7 16 5 13 C4.34 12.67 3.68 12.34 3 12 C2.148 9.277 2.148 9.277 1.375 5.938 C1.115 4.833 0.854 3.728 0.586 2.59 C0.393 1.735 0.199 0.881 0 0 Z " fill="#709419" transform="translate(135,97)"/>
<path d="M0 0 C0 3 0 3 -1.875 5.188 C-4 7 -4 7 -6 7 C-6.062 7.299 -6.062 7.299 -6.375 8.812 C-7 11 -7 11 -9 14 C-20.02 17.717 -35.367 15.424 -46.625 13.688 C-47.411 13.57 -48.198 13.452 -49.008 13.331 C-53.051 12.635 -55.982 11.851 -59 9 C-58.67 7.35 -58.34 5.7 -58 4 C-57.649 4.169 -57.649 4.169 -55.875 5.023 C-54.926 5.469 -53.978 5.915 -53 6.375 C-52.072 6.816 -51.144 7.257 -50.188 7.711 C-37.938 12.665 -24.262 12.639 -11.824 8.285 C-7.307 6.23 -3.504 3.504 0 0 Z " fill="#DCCB9A" transform="translate(132,159)"/>
<path d="M0 0 C8.992 1.015 16.159 4.775 24 9 C23.67 9.165 23.67 9.165 22 10 C21.34 9.67 20.68 9.34 20 9 C19.67 10.98 19.34 12.96 19 15 C17.68 15.33 16.36 15.66 15 16 C12.36 13.03 9.72 10.06 7 7 C7.33 8.32 7.66 9.64 8 11 C7.01 11.33 6.02 11.66 5 12 C3.812 15.062 3.812 15.062 3 18 C1.68 17.67 0.36 17.34 -1 17 C-1 13.37 -1 9.74 -1 6 C-0.34 5.67 0.32 5.34 1 5 C0.67 3.35 0.34 1.7 0 0 Z " fill="#DDE243" transform="translate(101,125)"/>
<path d="M0 0 C1.98 0.66 3.96 1.32 6 2 C6 2.66 6 3.32 6 4 C6.99 4.33 7.98 4.66 9 5 C8.34 5.99 7.68 6.98 7 8 C8.32 8.66 9.64 9.32 11 10 C10.175 9.835 10.175 9.835 6 9 C6 9.66 6 10.32 6 11 C5.01 11 4.02 11 3 11 C3.33 19.91 3.66 28.82 4 38 C3.34 38 2.68 38 2 38 C2 29.09 2 20.18 2 11 C-1.662 12.221 -2.163 13.368 -4.188 16.562 C-4.717 17.389 -5.247 18.215 -5.793 19.066 C-5.992 19.385 -5.992 19.385 -7 21 C-7.33 20.34 -7.66 19.68 -8 19 C-7.34 18.072 -6.68 17.144 -6 16.188 C-4 13 -4 13 -4 10 C-5.32 10.33 -6.64 10.66 -8 11 C-8 11.99 -8 12.98 -8 14 C-9.287 14.697 -10.579 15.382 -11.875 16.062 C-12.235 16.254 -12.235 16.254 -14.055 17.223 C-14.376 17.351 -14.376 17.351 -16 18 C-16.66 17.67 -17.32 17.34 -18 17 C-16.35 15.68 -14.7 14.36 -13 13 C-17.95 14.65 -22.9 16.3 -28 18 C-28.33 17.34 -28.66 16.68 -29 16 C-20.75 13.03 -12.5 10.06 -4 7 C-4 6.34 -4 5.68 -4 5 C-5.98 4.01 -7.96 3.02 -10 2 C-6.522 0.841 -4.541 1.292 -1 2 C-0.67 1.34 -0.34 0.68 0 0 Z " fill="#F3F4A4" transform="translate(95,116)"/>
<path d="M0 0 C1.65 0.66 3.3 1.32 5 2 C4 5 4 5 1.946 6.091 C-0.948 7.157 -3.842 8.219 -6.75 9.25 C-7.753 9.626 -8.756 10.003 -9.789 10.391 C-10.761 10.741 -11.733 11.092 -12.734 11.453 C-13.624 11.774 -14.513 12.096 -15.429 12.427 C-18.344 13.077 -20.169 12.915 -23 12 C-24.607 8.785 -24.057 5.564 -24 2 C-23.01 2 -22.02 2 -21 2 C-20.67 2.99 -20.34 3.98 -20 5 C-19.34 5.33 -18.68 5.66 -18 6 C-17.67 5.01 -17.34 4.02 -17 3 C-14.032 1.845 -11.095 1.865 -7.938 1.875 C-7.08 1.872 -6.223 1.87 -5.34 1.867 C-3 2 -3 2 0 3 C0 2.01 0 1.02 0 0 Z " fill="#D8DE2F" transform="translate(87,119)"/>
<path d="M0 0 C1.857 2.217 2.58 3.334 2.828 6.184 C2.391 8.434 2.391 8.434 1.828 10.184 C1.488 9.604 1.147 9.023 0.797 8.426 C-4.444 -0.022 -10.559 -5.113 -20.172 -7.816 C-32.501 -9.779 -42.846 -7.926 -53.172 -0.816 C-58.793 3.499 -63.673 7.981 -67.172 14.184 C-67.879 12.453 -67.879 12.453 -68.172 10.184 C-62.025 0.197 -50.422 -6.995 -39.379 -10.363 C-23.795 -13.563 -11.917 -11.09 0 0 Z " fill="#C9CE25" transform="translate(133.171875,92.81640625)"/>
<path d="M0 0 C0.33 0 0.66 0 1 0 C1.087 4.458 1.14 8.916 1.188 13.375 C1.213 14.646 1.238 15.917 1.264 17.227 C1.273 18.438 1.283 19.65 1.293 20.898 C1.309 22.019 1.324 23.14 1.341 24.294 C1.228 25.187 1.116 26.08 1 27 C-3.239 29.826 -7.021 29.547 -12 29 C-15.125 27.5 -15.125 27.5 -17 26 C-16.568 21.248 -15.672 19.08 -12 16 C-11.67 17.65 -11.34 19.3 -11 21 C-9.35 19.68 -7.7 18.36 -6 17 C-5.34 17.33 -4.68 17.66 -4 18 C-4 21 -4 21 -6 23.188 C-6.33 23.487 -6.33 23.487 -8 25 C-7.34 25 -6.68 25 -6 25 C-6 24.34 -6 23.68 -6 23 C-4.68 23 -3.36 23 -2 23 C-1.34 15.41 -0.68 7.82 0 0 Z " fill="#CFD723" transform="translate(96,128)"/>
<path d="M0 0 C0.66 0.33 1.32 0.66 2 1 C1.361 1.598 0.721 2.196 0.062 2.812 C-2 5 -2 5 -3 8 C-3.763 8.743 -4.526 9.485 -5.312 10.25 C-11.936 17.028 -16.168 27.533 -16.312 37.062 C-16 40 -16 40 -15.438 42 C-15 44 -15 44 -15.688 46.938 C-16.876 53.993 -13.304 62.182 -9.688 68.125 C-9.131 69.074 -8.574 70.022 -8 71 C-8.33 71.99 -8.66 72.98 -9 74 C-12.427 72.287 -13.136 68.288 -14.5 64.875 C-14.808 64.127 -15.116 63.38 -15.434 62.609 C-21.254 48.27 -21.156 35.909 -15.594 21.309 C-11.637 12.808 -6.616 6.523 0 0 Z " fill="#779923" transform="translate(27,61)"/>
<path d="M0 0 C3.648 4.169 6 9.448 6 15 C5.453 15.072 5.453 15.072 2.688 15.438 C-1 16 -1 16 -4 17 C-7.137 16.004 -7.137 16.004 -10.688 14.562 C-11.867 14.089 -13.046 13.616 -14.262 13.129 C-15.165 12.756 -16.069 12.384 -17 12 C-16.67 10.35 -16.34 8.7 -16 7 C-15.67 8.32 -15.34 9.64 -15 11 C-13.68 11.33 -13.68 11.33 -7 13 C-7.66 11.02 -8.32 9.04 -9 7 C-9.66 7 -10.32 7 -11 7 C-10.67 5.68 -10.34 4.36 -10 3 C-7.532 4.152 -5.952 5.048 -4 7 C-1.375 7.625 -1.375 7.625 1 8 C0.67 5.36 0.34 2.72 0 0 Z " fill="#E0E54C" transform="translate(86,100)"/>
<path d="M0 0 C3.282 3.282 3.195 6.87 3.312 11.375 C3.166 23.402 -0.903 33.428 -8 43 C-8.624 43.842 -9.248 44.684 -9.891 45.551 C-15.381 51.925 -22.869 56.867 -31 59 C-33.723 59.202 -36.263 59.147 -39 59 C-39 58.67 -39 58.34 -39 58 C-37.866 57.752 -36.731 57.505 -35.562 57.25 C-24.448 54.427 -14.547 48.591 -8 39 C-2.398 29.164 0.336 20.861 0.125 9.562 C0.116 8.64 0.107 7.718 0.098 6.768 C0.074 4.511 0.042 2.256 0 0 Z " fill="#D2D532" transform="translate(136,103)"/>
<path d="M0 0 C0 0.66 0 1.32 0 2 C-0.701 2.352 -1.403 2.704 -2.125 3.066 C-14.632 9.575 -23.188 18.008 -29 31 C-29.99 31 -30.98 31 -32 31 C-31.67 30.237 -31.34 29.474 -31 28.688 C-30 26 -30 26 -30 23 C-29.489 19.575 -28.558 18.311 -25.812 16.25 C-21.787 13.006 -18.931 9.23 -16 5 C-15.34 5.33 -14.68 5.66 -14 6 C-12.558 5.279 -11.121 4.547 -9.688 3.809 C-8.801 3.356 -7.914 2.904 -7 2.438 C-6.113 1.982 -5.226 1.527 -4.312 1.059 C-2 0 -2 0 0 0 Z " fill="#7CA505" transform="translate(89,83)"/>
<path d="M0 0 C2 1.562 2 1.562 4 4 C4.375 7.625 4.375 7.625 4 11 C1.539 13.461 -0.249 13.803 -3.594 14.727 C-4.15 14.881 -4.15 14.881 -6.965 15.664 C-7.548 15.823 -7.548 15.823 -10.5 16.625 C-11.083 16.787 -11.083 16.787 -14.035 17.609 C-22.704 20 -22.704 20 -25 20 C-24.67 18.68 -24.34 17.36 -24 16 C-23.34 16.33 -22.68 16.66 -22 17 C-19.22 16.073 -16.724 14.856 -14.125 13.5 C-10.756 11.883 -7.608 10.938 -4 10 C-3.897 9.381 -3.794 8.763 -3.688 8.125 C-3 6 -3 6 0 4 C0 2.68 0 1.36 0 0 Z " fill="#CDD31E" transform="translate(127,100)"/>
<path d="M0 0 C0.99 0.66 1.98 1.32 3 2 C2.637 4.671 2.254 5.773 0.215 7.598 C-12.401 15.712 -12.401 15.712 -20 15 C-20 12 -20 12 -18 10 C-18 9.67 -18 9.34 -18 9 C-17.402 8.866 -17.402 8.866 -14.375 8.188 C-8.492 6.701 -4.098 4.571 0 0 Z " fill="#F6F5BA" transform="translate(118,146)"/>
<path d="M0 0 C0.66 0 1.32 0 2 0 C2 0.66 2 1.32 2 2 C3.32 2 4.64 2 6 2 C6 2.66 6 3.32 6 4 C4.68 4 3.36 4 2 4 C2.215 4.583 2.431 5.165 2.652 5.766 C3 8 3 8 2.004 9.922 C1.528 10.525 1.053 11.128 0.562 11.75 C0.089 12.364 -0.384 12.977 -0.871 13.609 C-1.244 14.068 -1.616 14.527 -2 15 C-2.33 14.01 -2.66 13.02 -3 12 C-2.34 12 -1.68 12 -1 12 C-1 10.35 -1 8.7 -1 7 C-1.66 7.66 -2.32 8.32 -3 9 C-3.33 7.68 -3.66 6.36 -4 5 C-3.959 5.928 -3.918 6.856 -3.875 7.812 C-4 11 -4 11 -6 14 C-6.444 16.049 -6.813 18.115 -7.125 20.188 C-7.293 21.274 -7.46 22.361 -7.633 23.48 C-7.754 24.312 -7.875 25.143 -8 26 C-6.35 25.01 -4.7 24.02 -3 23 C-3.66 24.98 -4.32 26.96 -5 29 C-5.33 28.34 -5.66 27.68 -6 27 C-8.562 26.375 -8.562 26.375 -11 26 C-10.67 24.845 -10.34 23.69 -10 22.5 C-8.39 15.437 -8.841 8.196 -9 1 C-8.34 1 -7.68 1 -7 1 C-6.67 3.64 -6.34 6.28 -6 9 C-6 6.69 -6 4.38 -6 2 C-5.34 2 -4.68 2 -4 2 C-4 2.66 -4 3.32 -4 4 C-3.01 4 -2.02 4 -1 4 C-0.67 2.68 -0.34 1.36 0 0 Z " fill="#E2E548" transform="translate(107,91)"/>
<path d="M0 0 C-4.95 1.65 -9.9 3.3 -15 5 C-13.185 4.835 -13.185 4.835 -4 4 C-4.33 4.495 -4.33 4.495 -6 7 C-5.67 7.66 -5.34 8.32 -5 9 C-5.99 9 -6.98 9 -8 9 C-8.33 9.99 -8.66 10.98 -9 12 C-17.302 10.677 -17.302 10.677 -20.062 8 C-21 6 -21 6 -21 4 C-18.065 3.135 -15.128 2.283 -12.188 1.438 C-11.354 1.191 -10.521 0.944 -9.662 0.689 C-8.86 0.461 -8.057 0.232 -7.23 -0.004 C-6.492 -0.219 -5.754 -0.433 -4.993 -0.655 C-3 -1 -3 -1 0 0 Z " fill="#DFE546" transform="translate(125,115)"/>
<path d="M0 0 C1.155 0.66 1.155 0.66 7 4 C7 5.98 7 7.96 7 10 C13.723 11.519 20.441 12.494 27.289 13.214 C31.421 13.681 35.105 14.548 39 16 C38.835 16.495 38.835 16.495 38 19 C37.69 18.903 37.69 18.903 36.121 18.414 C30.517 16.766 25.123 15.709 19.312 15.062 C13.376 14.348 7.436 13.436 3 9 C2.959 7 2.957 5 3 3 C2.01 2.67 1.02 2.34 0 2 C0 1.34 0 0.68 0 0 Z " fill="#EBDAB6" transform="translate(28,142)"/>
<path d="M0 0 C0.99 0 1.98 0 3 0 C3.33 0.99 3.66 1.98 4 3 C4.382 3.072 4.382 3.072 6.312 3.438 C9 4 9 4 12 5 C13.394 5.067 14.792 5.085 16.188 5.062 C17.446 5.042 18.704 5.021 20 5 C17.197 6.868 14.758 7.999 11.625 9.188 C10.689 9.552 9.753 9.917 8.789 10.293 C5.73 11.068 3.978 10.994 1 10 C-0.607 6.785 -0.057 3.564 0 0 Z " fill="#D2D828" transform="translate(63,121)"/>
<path d="M0 0 C5.057 4.215 6.884 8.856 9 15 C9.361 15.922 9.722 16.843 10.094 17.793 C11.208 21.737 11.341 25.298 11.312 29.375 C11.311 30.126 11.31 30.877 11.309 31.65 C11.215 37.01 10.464 41.174 8 46 C6.679 43.358 7.263 42.221 7.938 39.375 C9.642 31.282 9.3 23.992 7 16 C5 13 5 13 3 12 C2.148 9.277 2.148 9.277 1.375 5.938 C1.245 5.385 1.245 5.385 0.586 2.59 C0.393 1.735 0.199 0.881 0 0 Z " fill="#708D20" transform="translate(135,97)"/>
<path d="M0 0 C0.66 0.99 1.32 1.98 2 3 C0.989 3.371 -0.021 3.743 -1.062 4.125 C-6.814 6.587 -11.576 10.763 -15 16 C-15.99 15.67 -16.98 15.34 -18 15 C-16.313 8.816 -11.436 5.221 -6.875 1.062 C-4.396 -0.342 -2.8 -0.442 0 0 Z " fill="#F8F9CF" transform="translate(86,90)"/>
<path d="M0 0 C2.856 1.298 4.881 2.699 7.125 4.875 C16.22 12.69 26.57 12.735 38 13 C31.174 17.015 22.647 15.448 15.312 13.562 C8.69 11.352 4.164 7.573 0 2 C0 1.34 0 0.68 0 0 Z " fill="#C2CD1D" transform="translate(63,149)"/>
<path d="M0 0 C1.044 0.144 2.088 0.289 3.164 0.438 C11.958 1.575 20.629 2.194 29.5 2.188 C29.947 2.188 29.947 2.188 32.209 2.189 C38.187 2.141 44.063 1.693 50 1 C39.976 8.832 22.035 4.921 10 4 C10 3.34 10 2.68 10 2 C9.453 2.021 9.453 2.021 6.688 2.125 C3 2 3 2 0 0 Z " fill="#E7D6B1" transform="translate(78,171)"/>
<path d="M0 0 C4.198 4.198 4.388 10.086 5.047 15.73 C5 18 5 18 3 21 C2.67 20.01 2.34 19.02 2 18 C-0.062 17.312 -0.062 17.312 -2 17 C-1.859 14.541 -1.713 12.083 -1.562 9.625 C-1.523 8.926 -1.484 8.228 -1.443 7.508 C-1.113 2.227 -1.113 2.227 0 0 Z " fill="#82A808" transform="translate(140,108)"/>
<path d="M0 0 C0 3 0 3 -1.875 5.188 C-4 7 -4 7 -6 7 C-6.124 7.598 -6.248 8.196 -6.375 8.812 C-7 11 -7 11 -9 14 C-12.438 15.021 -15.732 15.119 -19.301 15.098 C-20.277 15.094 -21.254 15.091 -22.26 15.088 C-23.267 15.08 -24.275 15.071 -25.312 15.062 C-26.339 15.058 -27.366 15.053 -28.424 15.049 C-30.949 15.037 -33.475 15.021 -36 15 C-36 14.67 -36 14.34 -36 14 C-34.782 13.963 -33.564 13.925 -32.309 13.887 C-30.685 13.821 -29.061 13.755 -27.438 13.688 C-26.638 13.665 -25.838 13.642 -25.014 13.619 C-16.778 13.249 -11.725 11.165 -6 5 C-4.037 3.284 -2.023 1.646 0 0 Z " fill="#DCCB9D" transform="translate(132,159)"/>
<path d="M0 0 C2.25 1.438 2.25 1.438 4 3 C4 3.66 4 4.32 4 5 C4.722 5.103 5.444 5.206 6.188 5.312 C9.259 6.063 11.402 7.218 14 9 C14 9.33 14 9.66 14 10 C8.792 10.558 6.064 10.463 1.875 7.188 C1.223 6.642 0.57 6.097 -0.102 5.535 C-2.536 3.567 -5.155 2.28 -8 1 C-4.934 -0.861 -3.366 -1.368 0 0 Z " fill="#6E921A" transform="translate(26,135)"/>
<path d="M0 0 C4.032 1.724 5.913 4.131 8.535 7.539 C10 9 10 9 13 9 C13.66 7.02 14.32 5.04 15 3 C16.32 3.33 17.64 3.66 19 4 C18.403 9.376 18.403 9.376 16.75 11.938 C15 13 15 13 12.75 13.125 C6.965 10.758 2.816 5.465 0 0 Z " fill="#CFD421" transform="translate(106,131)"/>
<path d="M0 0 C2 1 2 1 2.794 2.902 C3.601 5.557 4.405 8.212 5.188 10.875 C5.473 11.799 5.759 12.724 6.053 13.676 C6.318 14.564 6.583 15.452 6.855 16.367 C7.099 17.183 7.343 17.999 7.594 18.839 C8 21 8 21 7 24 C3.281 23.493 0.265 22.884 -3 21 C-3 20.67 -3 20.34 -3 20 C-0.36 20 2.28 20 5 20 C4.639 19.143 4.278 18.286 3.906 17.402 C-0.703 6.046 -0.703 6.046 0 0 Z " fill="#D3D72C" transform="translate(87,95)"/>
<path d="M0 0 C0 1.32 0 2.64 0 4 C-0.619 4.103 -1.237 4.206 -1.875 4.312 C-4 5 -4 5 -6 8 C-6.99 8 -7.98 8 -9 8 C-9.66 7.34 -10.32 6.68 -11 6 C-11.66 5.67 -12.32 5.34 -13 5 C-9.711 0.249 -9.711 0.249 -6.5 -0.875 C-4.066 -0.997 -2.3 -0.767 0 0 Z " fill="#BDCF22" transform="translate(60,75)"/>
<path d="M0 0 C-4.258 1.419 -7.578 0.418 -11.855 -0.527 C-19.575 -1.688 -26.505 -0.735 -34.062 1 C-34.928 1.191 -35.794 1.382 -36.686 1.578 C-38.792 2.044 -40.896 2.521 -43 3 C-33.517 -6.974 -11.774 -4.272 0 0 Z " fill="#7E9B2B" transform="translate(84,51)"/>
<path d="M0 0 C0.99 0.33 1.98 0.66 3 1 C3 1.66 3 2.32 3 3 C4.98 2.01 6.96 1.02 9 0 C9.66 0.66 10.32 1.32 11 2 C8.059 4.456 5.57 5.597 1.875 6.562 C-2.787 7.787 -2.787 7.787 -5 10 C-5.99 9.67 -6.98 9.34 -8 9 C-5.36 6.03 -2.72 3.06 0 0 Z " fill="#DADF30" transform="translate(114,107)"/>
<path d="M0 0 C0.66 0 1.32 0 2 0 C-0.069 7.267 -2.494 14.663 -9 19 C-9.824 16.669 -10.207 15.49 -9.227 13.169 C-8.816 12.561 -8.404 11.954 -7.98 11.328 C-7.535 10.664 -7.09 10 -6.631 9.316 C-6.155 8.634 -5.678 7.953 -5.188 7.25 C-4.723 6.553 -4.258 5.855 -3.779 5.137 C-2.582 3.381 -1.297 1.684 0 0 Z " fill="#DFE74B" transform="translate(93,131)"/>
<path d="M0 0 C0.33 0 0.66 0 1 0 C1.027 2.25 1.046 4.5 1.062 6.75 C1.074 8.003 1.086 9.256 1.098 10.547 C1.02 13.285 0.828 15.419 0 18 C-1.32 18 -2.64 18 -4 18 C-4 18.66 -4 19.32 -4 20 C-4.66 20 -5.32 20 -6 20 C-5.34 18.68 -4.68 17.36 -4 16 C-3.34 16 -2.68 16 -2 16 C-2.66 15.01 -3.32 14.02 -4 13 C-4.33 12.34 -4.66 11.68 -5 11 C-4.004 8.398 -4.004 8.398 -2.562 5.375 C-2.089 4.372 -1.616 3.369 -1.129 2.336 C-0.756 1.565 -0.384 0.794 0 0 Z " fill="#D8DF37" transform="translate(94,133)"/>
<path d="M0 0 C0.66 0.33 1.32 0.66 2 1 C-3.836 9.049 -12.34 15.466 -22 18 C-24.723 18.202 -27.263 18.147 -30 18 C-30 17.67 -30 17.34 -30 17 C-28.866 16.752 -27.731 16.505 -26.562 16.25 C-15.834 13.525 -7.536 8.007 0 0 Z " fill="#CCD029" transform="translate(127,144)"/>
<path d="M0 0 C0.33 1.65 0.66 3.3 1 5 C2.65 5 4.3 5 6 5 C5.34 6.32 4.68 7.64 4 9 C0.359 9.331 -1.415 9.42 -4.438 7.25 C-6 5 -6 5 -5.875 2.812 C-4.452 -0.136 -3.203 0 0 0 Z " fill="#CED722" transform="translate(74,141)"/>
<path d="M0 0 C1.875 0.625 1.875 0.625 4 2 C5.375 4.938 5.375 4.938 6 8 C5.67 8.495 5.67 8.495 4 11 C3.34 11 2.68 11 2 11 C1.67 9.35 1.34 7.7 1 6 C-3.431 7.208 -5.981 8.517 -9 12 C-9 9.36 -9 6.72 -9 4 C-8.34 4.66 -7.68 5.32 -7 6 C-4.062 4.688 -4.062 4.688 -1 3 C-0.67 2.01 -0.34 1.02 0 0 Z " fill="#89AE03" transform="translate(19,90)"/>
<path d="M0 0 C0.66 0.66 1.32 1.32 2 2 C0.68 2.33 -0.64 2.66 -2 3 C-2 3.99 -2 4.98 -2 6 C-3.287 6.697 -4.579 7.382 -5.875 8.062 C-6.594 8.445 -7.314 8.828 -8.055 9.223 C-8.376 9.351 -8.376 9.351 -10 10 C-10.66 9.67 -11.32 9.34 -12 9 C-10.35 7.68 -8.7 6.36 -7 5 C-11.95 6.65 -16.9 8.3 -22 10 C-22.33 9.34 -22.66 8.68 -23 8 C-15.41 5.36 -7.82 2.72 0 0 Z " fill="#E6EE7F" transform="translate(89,124)"/>
<path d="M0 0 C2.343 0.256 4.678 0.593 7 1 C7.33 1.66 7.66 2.32 8 3 C7.01 3 6.02 3 5 3 C5.66 4.32 6.32 5.64 7 7 C6.34 7 5.68 7 5 7 C4.67 8.32 4.34 9.64 4 11 C2.062 10.438 2.062 10.438 0 9 C-1.427 2.854 -1.427 2.854 0 0 Z " fill="#87B007" transform="translate(14,107)"/>
<path d="M0 0 C1.126 0.957 2.251 1.916 3.375 2.875 C4.001 3.409 4.628 3.942 5.273 4.492 C6.558 5.614 7.794 6.794 9 8 C10.134 8.474 11.269 8.949 12.438 9.438 C16 11 16 11 17.336 12.461 C19.689 14.638 22.146 15.239 25.188 16.188 C26.274 16.532 27.361 16.876 28.48 17.23 C28.896 17.357 28.896 17.357 31 18 C31 18.33 31 18.66 31 19 C20.166 18.816 11.352 13.659 3.688 6.188 C0 2.341 0 2.341 0 0 Z " fill="#6D8512" transform="translate(63,151)"/>
<path d="M0 0 C1.848 0.34 1.848 0.34 4.062 0.938 C4.796 1.132 5.529 1.327 6.285 1.527 C6.568 1.605 6.568 1.605 8 2 C8 2.33 8 2.66 8 3 C5.69 3.66 3.38 4.32 1 5 C1 5.66 1 6.32 1 7 C-3.29 7 -7.58 7 -12 7 C-11.34 6.67 -10.68 6.34 -10 6 C-10 5.34 -10 4.68 -10 4 C-9.362 3.795 -8.724 3.59 -8.066 3.379 C-7.24 3.109 -6.414 2.84 -5.562 2.562 C-4.739 2.296 -3.915 2.029 -3.066 1.754 C-1 1 -1 1 0 0 Z " fill="#FAF6C9" transform="translate(97,154)"/>
<path d="M0 0 C6.539 0.409 11.72 5.392 16 10 C18.242 13.363 18.471 15.043 18 19 C17.443 18.299 16.886 17.597 16.312 16.875 C15.549 15.926 14.786 14.977 14 14 C13.568 13.461 13.136 12.922 12.691 12.367 C9.23 8.115 9.23 8.115 7 7 C6.67 6.01 6.34 5.02 6 4 C2.938 2.312 2.938 2.312 0 1 C0 0.67 0 0.34 0 0 Z " fill="#91A928" transform="translate(118,84)"/>
<path d="M0 0 C2.475 0.33 2.475 0.33 15 2 C15.66 3.65 16.32 5.3 17 7 C10.18 6.567 5.084 5.092 -1 2 C-0.67 1.34 -0.34 0.68 0 0 Z " fill="#7AA104" transform="translate(79,162)"/>
<path d="M0 0 C2.774 0.033 5.54 0.1 8.312 0.188 C9.098 0.193 9.884 0.199 10.693 0.205 C11.072 0.22 11.072 0.22 12.988 0.293 C13.685 0.309 14.381 0.324 15.099 0.341 C17 1 17 1 20 6 C13.07 5.01 6.14 4.02 -1 3 C-0.67 2.01 -0.34 1.02 0 0 Z " fill="#CFBC8A" transform="translate(46,150)"/>
<path d="M0 0 C1.132 0.908 2.255 1.827 3.375 2.75 C4.001 3.26 4.628 3.771 5.273 4.297 C7.083 6.082 8.001 7.679 9 10 C7.35 11.65 5.7 13.3 4 15 C3.01 14.67 2.02 14.34 1 14 C1.66 14 2.32 14 3 14 C2.404 9.131 1.43 4.672 0 0 Z " fill="#D0D621" transform="translate(108,137)"/>
<path d="M0 0 C0 0.33 0 0.66 0 1 C-1.65 1 -3.3 1 -5 1 C-5 1.66 -5 2.32 -5 3 C-1.7 3.33 1.6 3.66 5 4 C5 4.33 5 4.66 5 5 C-2.728 5.318 -8.939 5.323 -16 2 C-11.211 -3.615 -6.385 -1.655 0 0 Z " fill="#F5F3B0" transform="translate(92,157)"/>
<path d="M0 0 C2.5 1.125 2.5 1.125 5 3 C5.125 6 5.125 6 5 9 C6.5 10.875 6.5 10.875 8 12 C4.134 10.959 0.505 9.963 -3 8 C-2.845 7.711 -2.845 7.711 -2.062 6.25 C-1.074 4.157 -0.483 2.255 0 0 Z " fill="#EDDFBC" transform="translate(69,159)"/>
<path d="M0 0 C0.66 0.33 1.32 0.66 2 1 C1.361 1.598 0.721 2.196 0.062 2.812 C-2 5 -2 5 -3 8 C-3.382 8.371 -3.382 8.371 -5.312 10.25 C-9.101 14.127 -12.123 18.517 -13 24 C-13.99 24 -14.98 24 -16 24 C-13.112 14.405 -7.437 6.623 0 0 Z " fill="#7B982D" transform="translate(27,61)"/>
<path d="M0 0 C4.604 0.609 8.565 1.847 12.875 3.562 C14.027 4.018 15.18 4.473 16.367 4.941 C16.802 5.116 16.802 5.116 19 6 C14.687 7.19 11.353 6.941 7 6 C7 5.34 7 4.68 7 4 C5.35 4.66 3.7 5.32 2 6 C1.67 4.68 1.34 3.36 1 2 C0.67 2.165 0.67 2.165 -1 3 C-0.67 2.01 -0.34 1.02 0 0 Z " fill="#DADE35" transform="translate(68,112)"/>
<path d="M0 0 C0 0.66 0 1.32 0 2 C1.98 2.66 3.96 3.32 6 4 C6 4.99 6 5.98 6 7 C4.541 6.355 3.083 5.709 1.625 5.062 C0.813 4.703 0.001 4.343 -0.836 3.973 C-2.237 3.343 -3.626 2.687 -5 2 C-7.204 1.77 -9.414 1.589 -11.625 1.438 C-12.814 1.354 -14.002 1.27 -15.227 1.184 C-15.684 1.153 -15.684 1.153 -18 1 C-11.845 -2.337 -6.418 -2.728 0 0 Z " fill="#C5D03A" transform="translate(118,83)"/>
<path d="M0 0 C-0.625 1.875 -0.625 1.875 -2 4 C-7.096 6.328 -11.45 6.085 -16.875 5.625 C-17.659 5.568 -18.442 5.512 -19.25 5.453 C-21.167 5.313 -23.084 5.158 -25 5 C-25 4.67 -25 4.34 -25 4 C-23.759 3.879 -22.517 3.758 -21.238 3.633 C-19.596 3.464 -17.954 3.295 -16.312 3.125 C-15.496 3.046 -14.679 2.968 -13.838 2.887 C-9.18 2.396 -4.44 0 0 0 Z " fill="#BEB377" transform="translate(122,167)"/>
<path d="M0 0 C0.33 0.66 0.66 1.32 1 2 C3.062 2.625 3.062 2.625 5 3 C4.34 4.32 3.68 5.64 3 7 C2.34 7 1.68 7 1 7 C0.67 6.34 0.34 5.68 0 5 C-3.444 6.448 -5.361 8.277 -7.75 11.125 C-8.364 11.849 -8.977 12.574 -9.609 13.32 C-10.068 13.875 -10.527 14.429 -11 15 C-11 10.668 -8.342 8.776 -5.5 5.812 C-4.975 5.254 -4.451 4.695 -3.91 4.119 C-2.613 2.74 -1.308 1.369 0 0 Z " fill="#E2E646" transform="translate(116,103)"/>
<path d="M0 0 C9.065 1.39 15.597 6.891 21 14 C18.312 13.938 18.312 13.938 15 13 C13.826 11.305 12.659 9.604 11.566 7.855 C8.579 4.316 4.194 2.767 0 1 C0 0.67 0 0.34 0 0 Z " fill="#6F8E14" transform="translate(83,52)"/>
<path d="M0 0 C4 4.75 4 4.75 4 7 C-0.29 6.34 -4.58 5.68 -9 5 C-8.67 4.01 -8.34 3.02 -8 2 C-5.36 2 -2.72 2 0 2 C0 1.34 0 0.68 0 0 Z " fill="#678F0E" transform="translate(59,144)"/>
<path d="M0 0 C0.66 0.33 1.32 0.66 2 1 C2.66 0.67 3.32 0.34 4 0 C3.67 2.31 3.34 4.62 3 7 C2.34 7 1.68 7 1 7 C0.876 8.134 0.752 9.269 0.625 10.438 C0.419 11.613 0.213 12.789 0 14 C-0.33 14.165 -0.33 14.165 -2 15 C-2.625 12.188 -2.625 12.188 -3 9 C-2.34 8.01 -1.68 7.02 -1 6 C-0.61 4.01 -0.268 2.01 0 0 Z " fill="#DBDD37" transform="translate(103,96)"/>
<path d="M0 0 C0.786 0.01 1.571 0.021 2.38 0.032 C3.231 0.038 4.082 0.045 4.958 0.051 C5.403 0.06 5.403 0.06 7.654 0.102 C8.102 0.107 8.102 0.107 10.373 0.129 C12.592 0.153 14.81 0.186 17.029 0.227 C17.029 0.557 17.029 0.887 17.029 1.227 C13.729 1.557 10.429 1.887 7.029 2.227 C6.699 3.217 6.369 4.207 6.029 5.227 C3.719 5.227 1.409 5.227 -0.971 5.227 C0.019 4.897 1.009 4.567 2.029 4.227 C2.029 3.567 2.029 2.907 2.029 2.227 C0.049 2.227 -1.931 2.227 -3.971 2.227 C-1.971 0.227 -1.971 0.227 0 0 Z " fill="#F7F3AF" transform="translate(95.97119140625,83.77294921875)"/>
<path d="M0 0 C3.043 0.087 6.083 0.194 9.125 0.312 C9.553 0.324 9.553 0.324 11.719 0.381 C16.862 0.598 20.498 1.247 25 4 C25 4.99 25 5.98 25 7 C24.67 6.34 24.34 5.68 24 5 C17.726 2.988 11.004 2.681 4.469 2.344 C2 2 2 2 0 0 Z " fill="#DCCB9C" transform="translate(43,153)"/>
<path d="M0 0 C0.33 0 0.66 0 1 0 C1.026 0.895 1.052 1.789 1.078 2.711 C1.411 9.806 2.153 15.645 5.16 22.109 C6 24 6 24 6 26 C3 25 3 25 1.324 22.555 C-0.394 17.942 -0.331 13.996 -0.188 9.125 C-0.174 8.246 -0.16 7.367 -0.146 6.461 C-0.111 4.307 -0.058 2.153 0 0 Z " fill="#D0D23B" transform="translate(58,123)"/>
<path d="M0 0 C2.18 0.207 2.18 0.207 4.875 0.812 C10.899 2.049 16.87 2.593 23 3 C23 3.33 23 3.66 23 4 C16.4 4 9.8 4 3 4 C3 3.34 3 2.68 3 2 C1.35 2 -0.3 2 -2 2 C-1.34 1.34 -0.68 0.68 0 0 Z " fill="#D1C18B" transform="translate(86,169)"/>
<path d="M0 0 C-0.75 7.625 -0.75 7.625 -3 11 C-4.65 10.67 -6.3 10.34 -8 10 C-7.34 9.67 -6.68 9.34 -6 9 C-5.691 8.051 -5.381 7.102 -5.062 6.125 C-2.98 0 -2.98 0 0 0 Z " fill="#D1D61C" transform="translate(131,123)"/>
<path d="M0 0 C0.99 0.165 0.99 0.165 6 1 C6.33 1.99 6.66 2.98 7 4 C6.01 4.33 5.02 4.66 4 5 C2.832 6.848 2.832 6.848 1.812 9.062 C1.64 9.429 1.64 9.429 0.77 11.285 C0.643 11.568 0.643 11.568 0 13 C-0.33 13 -0.66 13 -1 13 C-1.077 8.484 -1.102 4.409 0 0 Z " fill="#DBE037" transform="translate(125,113)"/>
<path d="M0 0 C0.99 0 1.98 0 3 0 C2 3 2 3 -0.438 4.375 C-3.48 6.305 -3.863 7.676 -5 11 C-5.33 11.165 -5.33 11.165 -7 12 C-8.125 8.25 -8.125 8.25 -7 6 C-6.34 6 -5.68 6 -5 6 C-5 5.34 -5 4.68 -5 4 C-3.35 3.34 -1.7 2.68 0 2 C0 1.34 0 0.68 0 0 Z M-8 12 C-7.67 12.99 -7.34 13.98 -7 15 C-7.66 15 -8.32 15 -9 15 C-8.67 14.01 -8.34 13.02 -8 12 Z " fill="#B0CA0F" transform="translate(36,63)"/>
<path d="M0 0 C0.66 0.33 1.32 0.66 2 1 C1.67 1.66 1.34 2.32 1 3 C1.66 3 2.32 3 3 3 C3.33 3.99 3.66 4.98 4 6 C2 8 2 8 -0.625 8.125 C-1.409 8.084 -2.193 8.043 -3 8 C-2.744 5.657 -2.407 3.322 -2 1 C-1.34 0.67 -0.68 0.34 0 0 Z " fill="#BCCE21" transform="translate(45,81)"/>
<path d="M0 0 C-5.081 5.081 -12.881 4.047 -19.562 4.062 C-21.375 4.047 -23.188 4.028 -25 4 C-25 3.67 -25 3.34 -25 3 C-21.772 2.494 -18.542 1.996 -15.312 1.5 C-14.4 1.357 -13.488 1.214 -12.549 1.066 C-12.106 0.999 -12.106 0.999 -9.863 0.656 C-9.052 0.531 -8.24 0.405 -7.404 0.275 C-4.915 -0.01 -2.503 -0.047 0 0 Z " fill="#ECDBB8" transform="translate(128,172)"/>
<path d="M0 0 C2.77 1.385 2.88 2.88 3.938 5.75 C5.067 8.726 6.134 11.217 7.812 13.938 C8.204 14.618 8.596 15.299 9 16 C8.67 16.99 8.34 17.98 8 19 C4.735 17.368 4.137 13.875 2.875 10.625 C2.598 9.939 2.321 9.253 2.035 8.547 C0.855 5.559 0 3.241 0 0 Z " fill="#61811C" transform="translate(10,116)"/>
<path d="M0 0 C0.474 0.093 0.474 0.093 2.875 0.562 C6 1 6 1 8 0 C10.019 0.606 12.023 1.269 14 2 C14 2.99 14 3.98 14 5 C12.416 4.885 10.833 4.758 9.25 4.625 C8.368 4.555 7.487 4.486 6.578 4.414 C4.009 4.001 2.242 3.288 0 2 C0 1.34 0 0.68 0 0 Z " fill="#E1E646" transform="translate(73,117)"/>
<path d="M0 0 C1.32 1.65 2.64 3.3 4 5 C2.812 6.562 2.812 6.562 1 8 C-1.688 7.688 -1.688 7.688 -4 7 C-3.01 5.35 -2.02 3.7 -1 2 C-1.99 1.67 -2.98 1.34 -4 1 C-2.68 0.67 -1.36 0.34 0 0 Z " fill="#FAF7CD" transform="translate(77,150)"/>
<path d="M0 0 C0.66 0 1.32 0 2 0 C2.33 0.99 2.66 1.98 3 3 C4.65 3.33 6.3 3.66 8 4 C6.35 5.65 4.7 7.3 3 9 C1.5 7.875 1.5 7.875 0 6 C-0.188 2.812 -0.188 2.812 0 0 Z " fill="#D7DC3C" transform="translate(65,135)"/>
<path d="M0 0 C0.99 0.66 1.98 1.32 3 2 C2.67 3.98 2.34 5.96 2 8 C1.34 8 0.68 8 0 8 C-0.66 9.32 -1.32 10.64 -2 12 C-2.66 12 -3.32 12 -4 12 C-4 7.167 -3.197 7.197 0 4 C0 2.68 0 1.36 0 0 Z " fill="#D0D826" transform="translate(127,100)"/>
<path d="M0 0 C0.99 0 1.98 0 3 0 C3.346 5.654 2.434 9.03 0 14 C-0.66 13.34 -1.32 12.68 -2 12 C-2 11.01 -2 10.02 -2 9 C-1.01 8.67 -0.02 8.34 1 8 C0.67 7.34 0.34 6.68 0 6 C-0.04 4 -0.043 2 0 0 Z " fill="#FAF9D0" transform="translate(133,120)"/>
<path d="M0 0 C1.252 4.219 0.673 7.961 0.062 12.25 C-0.037 12.995 -0.137 13.74 -0.24 14.508 C-0.487 16.339 -0.743 18.17 -1 20 C-1.33 20 -1.66 20 -2 20 C-2.251 17.794 -2.475 15.585 -2.688 13.375 C-2.815 12.145 -2.943 10.915 -3.074 9.648 C-2.992 5.619 -2.049 3.424 0 0 Z " fill="#739B03" transform="translate(58,114)"/>
<path d="M0 0 C1.98 0 3.96 0 6 0 C7.125 5.75 7.125 5.75 6 8 C6.66 8 7.32 8 8 8 C7.67 9.32 7.34 10.64 7 12 C6.67 11.34 6.34 10.68 6 10 C5.67 10.165 5.67 10.165 4 11 C4 8.36 4 5.72 4 3 C2.68 2.67 1.36 2.34 0 2 C0 1.34 0 0.68 0 0 Z " fill="#719703" transform="translate(19,110)"/>
<path d="M0 0 C0.66 0 1.32 0 2 0 C3.008 1.766 4.006 3.538 5 5.312 C5.278 5.806 5.278 5.806 6.688 8.301 C8 11 8 11 8 14 C7.01 13.67 6.02 13.34 5 13 C4.28 11.019 3.62 9.015 3 7 C2.011 5.327 1.014 3.658 0 2 C0 1.34 0 0.68 0 0 Z " fill="#7EA40F" transform="translate(102,66)"/>
<path d="M0 0 C2.396 0.142 4.792 0.288 7.188 0.438 C7.861 0.477 8.535 0.516 9.229 0.557 C12.897 0.789 16.417 1.172 20 2 C20 2.33 20 2.66 20 3 C17.792 3.054 15.583 3.093 13.375 3.125 C12.145 3.148 10.915 3.171 9.648 3.195 C6.057 3.003 3.333 2.303 0 1 C0 0.67 0 0.34 0 0 Z " fill="#F6E9CE" transform="translate(40,156)"/>
<path d="M0 0 C0.66 0 1.32 0 2 0 C2.66 1.32 3.32 2.64 4 4 C3.01 4 2.02 4 1 4 C1 10.6 1 17.2 1 24 C0.67 24 0.34 24 0 24 C0 16.08 0 8.16 0 0 Z " fill="#CDD31F" transform="translate(99,127)"/>
<path d="M0 0 C0.33 0 0.66 0 1 0 C0.67 4.29 0.34 8.58 0 13 C1.65 12.01 3.3 11.02 5 10 C4.34 11.98 3.68 13.96 3 16 C2.67 15.34 2.34 14.68 2 14 C0.35 13.67 -1.3 13.34 -3 13 C-2.01 8.71 -1.02 4.42 0 0 Z " fill="#E9EB74" transform="translate(99,104)"/>
<path d="M0 0 C0.33 0.66 0.66 1.32 1 2 C-0.215 4.602 -0.215 4.602 -1.938 7.625 C-2.503 8.628 -3.069 9.631 -3.652 10.664 C-4.097 11.435 -4.542 12.206 -5 13 C-5.99 13 -6.98 13 -8 13 C-6.244 8.024 -3.744 3.744 0 0 Z " fill="#709906" transform="translate(65,101)"/>
<path d="M0 0 C3.444 1.448 5.361 3.277 7.75 6.125 C8.364 6.849 8.977 7.574 9.609 8.32 C9.839 8.597 9.839 8.597 11 10 C8 10 8 10 5.957 8.32 C5.249 7.596 4.542 6.871 3.812 6.125 C3.455 5.765 3.455 5.765 1.645 3.945 C0 2 0 2 0 0 Z " fill="#B7C81C" transform="translate(63,149)"/>
<path d="M0 0 C0.33 0 0.66 0 1 0 C2 3 3 6 4 9 C3.01 8.835 3.01 8.835 -2 8 C-2.125 5.125 -2.125 5.125 -2 2 C-1.34 1.34 -0.68 0.68 0 0 Z " fill="#D1D71E" transform="translate(73,103)"/>
<path d="M0 0 C2.31 0.33 4.62 0.66 7 1 C7 1.66 7 2.32 7 3 C7.99 3.33 8.98 3.66 10 4 C9.01 4.66 8.02 5.32 7 6 C6.34 5.34 5.68 4.68 5 4 C2.875 4.375 2.875 4.375 1 5 C0.67 3.35 0.34 1.7 0 0 Z " fill="#B9CB20" transform="translate(29,85)"/>
<path d="M0 0 C0 1.32 0 2.64 0 4 C-7.508 4.369 -7.508 4.369 -10 2.5 C-10.33 2.005 -10.66 1.51 -11 1 C-3.375 -1.125 -3.375 -1.125 0 0 Z " fill="#F1F1A8" transform="translate(111,154)"/>
<path d="M0 0 C0.99 0.33 1.98 0.66 3 1 C2.94 2.793 2.851 4.584 2.75 6.375 C2.704 7.373 2.657 8.37 2.609 9.398 C2 12 2 12 -0.047 13.352 C-0.691 13.566 -1.336 13.78 -2 14 C-1.67 13.01 -1.34 12.02 -1 11 C-0.778 9.108 -0.594 7.211 -0.438 5.312 C-0.354 4.319 -0.27 3.325 -0.184 2.301 C-0.123 1.542 -0.062 0.782 0 0 Z " fill="#799B12" transform="translate(142,125)"/>
<path d="M0 0 C0.33 0 0.66 0 1 0 C1.25 3.312 1.25 3.312 1 7 C-1 8.938 -1 8.938 -3 10 C-3.75 8.375 -3.75 8.375 -4 6 C-2.125 2.75 -2.125 2.75 0 0 Z " fill="#DAE142" transform="translate(87,140)"/>
<path d="M0 0 C0.33 0 0.66 0 1 0 C1.049 0.664 1.098 1.328 1.148 2.012 C1.891 10.782 1.891 10.782 4 15 C3.34 15.66 2.68 16.32 2 17 C-0.166 10.917 -1.52 6.355 0 0 Z " fill="#82AC0D" transform="translate(11,105)"/>
<path d="M0 0 C0.578 0.516 1.155 1.031 1.75 1.562 C1.75 2.222 1.75 2.882 1.75 3.562 C-1.193 2.932 -3.596 1.972 -6.25 0.562 C-6.992 0.191 -7.735 -0.18 -8.5 -0.562 C-9.078 -0.851 -9.655 -1.14 -10.25 -1.438 C-6.069 -2.781 -3.691 -2.358 0 0 Z " fill="#7EA423" transform="translate(28.25,136.4375)"/>
<path d="M0 0 C8.309 6.829 8.309 6.829 10 10 C9.562 12.117 9.562 12.117 9 14 C8.613 13.397 8.227 12.793 7.828 12.172 C2.656 4.234 2.656 4.234 -1 1 C-0.67 0.67 -0.34 0.34 0 0 Z " fill="#C5D235" transform="translate(126,89)"/>
<path d="M0 0 C2.31 1.98 4.62 3.96 7 6 C6.34 7.32 5.68 8.64 5 10 C3 9 3 9 2.148 6.934 C1.893 6.11 1.638 5.286 1.375 4.438 C1.115 3.611 0.854 2.785 0.586 1.934 C0.393 1.296 0.199 0.657 0 0 Z " fill="#C8D017" transform="translate(110,139)"/>
<path d="M0 0 C1.441 0.426 2.878 0.866 4.312 1.312 C5.113 1.556 5.914 1.8 6.738 2.051 C9.1 3.042 10.339 4.081 12 6 C9.69 5.34 7.38 4.68 5 4 C4.67 4.66 4.34 5.32 4 6 C2.624 4.71 1.292 3.373 0 2 C0 1.34 0 0.68 0 0 Z " fill="#D3D72B" transform="translate(101,125)"/>
<path d="M0 0 C3.949 0.551 7.349 1.389 11 3 C7.867 4.044 7.01 3.934 4 3 C3.67 3.99 3.34 4.98 3 6 C2.34 4.68 1.68 3.36 1 2 C0.67 2.165 0.67 2.165 -1 3 C-0.67 2.01 -0.34 1.02 0 0 Z " fill="#D2D524" transform="translate(68,112)"/>
<path d="M0 0 C3.3 0.33 6.6 0.66 10 1 C9.67 2.98 9.34 4.96 9 7 C7.68 7.33 6.36 7.66 5 8 C5.33 6.68 5.66 5.36 6 4 C4.02 3.01 2.04 2.02 0 1 C0 0.67 0 0.34 0 0 Z " fill="#F1F299" transform="translate(85,117)"/>
<path d="M0 0 C0.33 0.165 0.33 0.165 2 1 C4.381 8.643 4.381 8.643 3 13 C0.334 8.446 -0.316 5.261 0 0 Z " fill="#D2D61D" transform="translate(87,95)"/>
<path d="M0 0 C-0.33 0.99 -0.66 1.98 -1 3 C-1.66 3 -2.32 3 -3 3 C-3.33 3.66 -3.66 4.32 -4 5 C-5.98 4.34 -7.96 3.68 -10 3 C-6.187 0.458 -4.525 -0.119 0 0 Z " fill="#BBCB20" transform="translate(55,63)"/>
<path d="M0 0 C3.708 -0.283 7.303 -0.463 11 0 C13.188 2.5 13.188 2.5 14 5 C11.133 4.427 10.139 4.139 8 2 C5.345 1.435 2.709 1.262 0 1 C0 0.67 0 0.34 0 0 Z " fill="#BEB772" transform="translate(52,151)"/>
<path d="M0 0 C0.66 0 1.32 0 2 0 C2.33 3.3 2.66 6.6 3 10 C1.68 9.67 0.36 9.34 -1 9 C-0.67 6.03 -0.34 3.06 0 0 Z " fill="#F9F7D2" transform="translate(63,135)"/>
<path d="M0 0 C1.32 0.66 2.64 1.32 4 2 C0.444 4.301 -2.947 5.775 -7 7 C-4.667 4.667 -2.333 2.333 0 0 Z " fill="#E3E95A" transform="translate(84,127)"/>
<path d="M0 0 C1.65 1.32 3.3 2.64 5 4 C3.35 5.32 1.7 6.64 0 8 C-0.381 5.674 -0.713 3.339 -1 1 C-0.67 0.67 -0.34 0.34 0 0 Z " fill="#6E9508" transform="translate(15,119)"/>
<path d="M0 0 C1.033 2.788 1.045 3.868 0.062 6.75 C-0.288 7.493 -0.639 8.235 -1 9 C-1.66 9 -2.32 9 -3 9 C-3 9.66 -3 10.32 -3 11 C-3.66 11 -4.32 11 -5 11 C-3.775 6.947 -2.301 3.556 0 0 Z " fill="#F5F5BB" transform="translate(66,105)"/>
<path d="M0 0 C0.33 0 0.66 0 1 0 C1.103 1.114 1.206 2.228 1.312 3.375 C1.426 3.973 1.426 3.973 2 7 C2.99 7.66 3.98 8.32 5 9 C2.69 8.67 0.38 8.34 -2 8 C-1.67 7.34 -1.34 6.68 -1 6 C-1.938 3.375 -1.938 3.375 -3 1 C-2.01 1.33 -1.02 1.66 0 2 C0 1.34 0 0.68 0 0 Z " fill="#D8DC2E" transform="translate(77,105)"/>
<path d="M0 0 C0 3 0 3 -2.5 5.688 C-3.325 6.451 -4.15 7.214 -5 8 C-5.99 7.67 -6.98 7.34 -8 7 C-5.422 4.352 -3.084 2.056 0 0 Z " fill="#648A07" transform="translate(132,152)"/>
<path d="M0 0 C-0.99 0.33 -1.98 0.66 -3 1 C-2.34 2.32 -1.68 3.64 -1 5 C-1.66 5 -2.32 5 -3 5 C-3.33 5.99 -3.66 6.98 -4 8 C-4.667 5.333 -5.333 2.667 -6 0 C-3 -1 -3 -1 0 0 Z " fill="#7FA603" transform="translate(22,109)"/>
<path d="M0 0 C1.155 0.66 1.155 0.66 7 4 C7 5.65 7 7.3 7 9 C6.34 9 5.68 9 5 9 C4.732 8.216 4.464 7.433 4.188 6.625 C3 4 3 4 0 2 C0 1.34 0 0.68 0 0 Z " fill="#E4D9AD" transform="translate(28,142)"/>
<path d="M0 0 C0 0.66 0 1.32 0 2 C0.66 2 1.32 2 2 2 C2 2.99 2 3.98 2 5 C1.01 4.835 1.01 4.835 -4 4 C-4 3.01 -4 2.02 -4 1 C-2 0 -2 0 0 0 Z " fill="#BCCD25" transform="translate(60,66)"/>
<path d="M0 0 C2.97 0.33 5.94 0.66 9 1 C9 1.66 9 2.32 9 3 C2.848 2.414 2.848 2.414 1 2 C0.67 1.34 0.34 0.68 0 0 Z " fill="#7EA907" transform="translate(83,165)"/>
<path d="M0 0 C0.99 0.33 1.98 0.66 3 1 C2.34 1 1.68 1 1 1 C1 1.66 1 2.32 1 3 C-0.961 4.389 -2.962 5.726 -5 7 C-4.619 4.237 -4.164 3.159 -2.125 1.188 C-1.424 0.796 -0.722 0.404 0 0 Z " fill="#D6DB2E" transform="translate(81,95)"/>
<path d="M0 0 C1.32 0.33 2.64 0.66 4 1 C3.67 1.165 3.67 1.165 2 2 C1.34 1.34 0.68 0.68 0 0 Z M0 2 C0.99 2.33 1.98 2.66 3 3 C3 4.32 3 5.64 3 7 C2.01 7 1.02 7 0 7 C0 5.35 0 3.7 0 2 Z " fill="#E0E354" transform="translate(82,94)"/>
<path d="M0 0 C2 0.312 2 0.312 4 1 C4.33 1.66 4.66 2.32 5 3 C2.69 3.66 0.38 4.32 -2 5 C-1.125 1.125 -1.125 1.125 0 0 Z " fill="#FAFAE0" transform="translate(83,90)"/>
<path d="M0 0 C1.532 0.252 3.053 0.576 4.562 0.938 C5.389 1.132 6.215 1.327 7.066 1.527 C7.385 1.605 7.385 1.605 9 2 C9 2.33 9 2.66 9 3 C6.25 3.688 6.25 3.688 3 4 C0.625 2.562 0.625 2.562 -1 1 C-0.67 0.67 -0.34 0.34 0 0 Z " fill="#749907" transform="translate(79,162)"/>
<path d="M0 0 C0.99 0.33 1.98 0.66 3 1 C2.67 2.98 2.34 4.96 2 7 C1.01 6.67 0.02 6.34 -1 6 C-0.67 4.02 -0.34 2.04 0 0 Z " fill="#E6D6AD" transform="translate(71,161)"/>
<path d="M0 0 C3 3.875 3 3.875 3 5 C1.02 5 -0.96 5 -3 5 C-3 4.01 -3 3.02 -3 2 C-2.01 2 -1.02 2 0 2 C0 1.34 0 0.68 0 0 Z " fill="#709C0C" transform="translate(59,144)"/>
<path d="M0 0 C2.31 0.33 4.62 0.66 7 1 C5.25 2.562 5.25 2.562 3 4 C0.75 3.688 0.75 3.688 -1 3 C-0.67 2.01 -0.34 1.02 0 0 Z " fill="#CDD41E" transform="translate(66,128)"/>
<path d="M0 0 C0.33 0 0.66 0 1 0 C1.33 3.63 1.66 7.26 2 11 C1.34 11.33 1.34 11.33 -2 13 C-1.34 8.71 -0.68 4.42 0 0 Z " fill="#F3F1AC" transform="translate(132,117)"/>
<path d="M0 0 C0.99 0 1.98 0 3 0 C1.749 3.754 0.435 4.241 -3 6 C-3.66 6 -4.32 6 -5 6 C-5 5.34 -5 4.68 -5 4 C-3.35 3.34 -1.7 2.68 0 2 C0 1.34 0 0.68 0 0 Z " fill="#B6CE19" transform="translate(36,63)"/>
<path d="M0 0 C0.99 0.33 1.98 0.66 3 1 C4.188 4.062 4.188 4.062 5 7 C4.01 7 3.02 7 2 7 C1.34 4.69 0.68 2.38 0 0 Z " fill="#708E28" transform="translate(14,127)"/>
<path d="M0 0 C1.32 0.33 2.64 0.66 4 1 C3.67 2.65 3.34 4.3 3 6 C2.01 5.34 1.02 4.68 0 4 C0 2.68 0 1.36 0 0 Z " fill="#D1D620" transform="translate(114,91)"/>
<path d="M0 0 C1.5 1.375 1.5 1.375 3 3 C3 3.66 3 4.32 3 5 C1.35 5 -0.3 5 -2 5 C-2.33 4.01 -2.66 3.02 -3 2 C-2.01 2 -1.02 2 0 2 C0 1.34 0 0.68 0 0 Z " fill="#A8C208" transform="translate(62,56)"/>
</svg>
