<?xml version="1.0" encoding="UTF-8"?>
<!-- Generator: visioncortex VTracer 0.6.12 -->
<svg version="1.1" xmlns="http://www.w3.org/2000/svg" width="175" height="152">
<path d="M0 0 C57.75 0 115.5 0 175 0 C175 50.16 175 100.32 175 152 C117.25 152 59.5 152 0 152 C0 101.84 0 51.68 0 0 Z " fill="#FDF7EC" transform="translate(0,0)"/>
<path d="M0 0 C3.125 0.25 3.125 0.25 5.062 1.438 C6.125 3.25 6.125 3.25 5.902 5.523 C4.993 8.712 3.598 10.939 1.75 13.688 C-4.98 23.99 -4.98 23.99 -4.688 27.5 C-3.875 29.25 -3.875 29.25 -1.875 31.25 C0.412 31.428 2.706 31.518 5 31.562 C16.235 32.067 25.4 35.936 33.125 44.25 C41.461 53.555 44.321 63.818 44.188 76.062 C44.183 76.851 44.178 77.639 44.174 78.451 C44.162 80.384 44.144 82.317 44.125 84.25 C42.254 84.852 42.254 84.852 40.125 85.25 C38.448 83.929 36.785 82.592 35.125 81.25 C31.517 79.446 27.834 77.835 24.125 76.25 C24.402 76.914 24.679 77.578 24.965 78.262 C25.146 78.703 25.146 78.703 26.062 80.938 C26.242 81.373 26.242 81.373 27.152 83.574 C30.272 92.157 29.611 99.313 26.34 107.684 C24.686 111.178 22.893 113.555 20.125 116.25 C19.465 116.25 18.805 116.25 18.125 116.25 C17.96 116.745 17.96 116.745 17.125 119.25 C11.951 122.992 4.19 121.779 -1.875 121.25 C-6.287 119.933 -9.835 117.738 -12.875 114.25 C-12.875 113.59 -12.875 112.93 -12.875 112.25 C-13.535 112.25 -14.195 112.25 -14.875 112.25 C-14.916 113.075 -14.957 113.9 -15 114.75 C-16.601 121.154 -20.501 125.631 -26 129.188 C-32.751 133.186 -40.22 132.975 -47.875 132.25 C-54.842 130.07 -59.749 125.122 -63.875 119.25 C-66.747 113.756 -66.266 107.318 -65.875 101.25 C-65.545 100.59 -65.215 99.93 -64.875 99.25 C-66.051 99.271 -67.226 99.291 -68.438 99.312 C-74.526 99.291 -79.909 99.113 -84.875 95.25 C-87.872 91.397 -88.492 88.071 -88.875 83.25 C-88.963 82.361 -89.05 81.471 -89.141 80.555 C-89.686 71.067 -86.782 64.111 -80.859 56.742 C-72.18 47.532 -60.878 40.365 -48.105 38.941 C-44.125 38.84 -41.506 38.948 -37.875 40.688 C-34.875 41.25 -34.875 41.25 -32.57 40.035 C-29.923 38.196 -27.397 36.257 -24.875 34.25 C-23.336 33.101 -21.795 31.954 -20.25 30.812 C-19.124 29.96 -17.998 29.107 -16.875 28.25 C-21.711 28.008 -23.193 29.12 -26.875 32.25 C-34.337 35.988 -43.864 35.122 -51.656 32.695 C-56.941 31.635 -62.51 32.114 -67.875 32.25 C-68.609 30.523 -68.609 30.523 -68.875 28.25 C-64.189 21.468 -56.68 15.819 -48.875 13.25 C-39.428 11.946 -30.859 12.478 -22.875 18.25 C-21.113 19.793 -21.113 19.793 -19.875 21.25 C-19.875 21.91 -19.875 22.57 -19.875 23.25 C-17.895 23.25 -15.915 23.25 -13.875 23.25 C-13.524 22.033 -13.174 20.816 -12.812 19.562 C-6.542 0.569 -6.542 0.569 0 0 Z " fill="#F3B612" transform="translate(109.875,10.75)"/>
<path d="M0 0 C3.125 0.25 3.125 0.25 5.062 1.438 C6.125 3.25 6.125 3.25 5.902 5.523 C4.993 8.712 3.598 10.939 1.75 13.688 C-4.98 23.99 -4.98 23.99 -4.688 27.5 C-3.875 29.25 -3.875 29.25 -1.875 31.25 C0.412 31.428 2.706 31.518 5 31.562 C16.235 32.067 25.4 35.936 33.125 44.25 C41.461 53.555 44.321 63.818 44.188 76.062 C44.183 76.851 44.178 77.639 44.174 78.451 C44.162 80.384 44.144 82.317 44.125 84.25 C42.437 85 42.437 85 40.125 85.25 C38.416 83.971 36.755 82.628 35.125 81.25 C32.895 80.167 30.643 79.128 28.375 78.125 C22.273 75.267 18.425 71.876 14.148 66.59 C12.189 64.324 10.365 62.884 7.875 61.25 C2.328 57.294 -0.29 51.718 -1.41 45.078 C-1.543 44.021 -1.676 42.964 -1.812 41.875 C-2.485 36.693 -2.485 36.693 -4.324 34.602 C-6 33.5 -6 33.5 -8.875 32.25 C-9.651 39.576 -8.131 45.389 -5.566 52.158 C-3.78 56.964 -3.78 56.964 -4.875 60.25 C-7.515 60.58 -10.155 60.91 -12.875 61.25 C-12.81 59.362 -12.745 57.474 -12.68 55.586 C-12.929 52.606 -13.856 50.05 -14.875 47.25 C-18.017 55.855 -21.075 64.25 -22.875 73.25 C-23.494 74.935 -24.136 76.614 -24.875 78.25 C-27.845 77.59 -30.815 76.93 -33.875 76.25 C-33.215 75.92 -32.555 75.59 -31.875 75.25 C-31.059 73.289 -31.059 73.289 -30.312 70.875 C-30.064 70.084 -29.815 69.292 -29.559 68.477 C-29.333 67.742 -29.107 67.007 -28.875 66.25 C-28.71 65.755 -28.71 65.755 -27.875 63.25 C-28.535 63.25 -29.195 63.25 -29.875 63.25 C-29.988 63.58 -29.988 63.58 -30.562 65.25 C-32.285 69.188 -34.051 72.975 -36.875 76.25 C-40.188 77.25 -40.188 77.25 -42.875 77.25 C-42.23 75.906 -41.555 74.576 -40.875 73.25 C-40.297 72.116 -39.72 70.981 -39.125 69.812 C-36.953 66.024 -34.415 63.789 -30.875 61.25 C-30.215 61.25 -29.555 61.25 -28.875 61.25 C-28.545 60.26 -28.215 59.27 -27.875 58.25 C-27.215 57.92 -26.555 57.59 -25.875 57.25 C-25.155 55.212 -24.523 53.143 -23.938 51.062 C-22.647 46.492 -21.11 42.445 -18.875 38.25 C-19.562 38.672 -20.249 39.093 -20.957 39.527 C-21.858 40.075 -22.759 40.623 -23.688 41.188 C-24.581 41.733 -25.474 42.278 -26.395 42.84 C-28.875 44.25 -28.875 44.25 -31.875 45.25 C-31.875 45.91 -31.875 46.57 -31.875 47.25 C-33.625 48 -33.625 48 -35.875 48.25 C-38.125 46.313 -38.125 46.313 -39.875 44.25 C-39.545 43.26 -39.215 42.27 -38.875 41.25 C-38.209 41.187 -37.542 41.124 -36.855 41.059 C-32.724 39.938 -29.683 37.73 -26.188 35.312 C-25.511 34.857 -24.835 34.401 -24.139 33.932 C-21.514 32.148 -19.125 30.5 -16.875 28.25 C-20.309 27.858 -21.554 28.009 -24.375 30.125 C-25.2 30.826 -26.025 31.528 -26.875 32.25 C-34.337 35.988 -43.864 35.122 -51.656 32.695 C-56.941 31.635 -62.51 32.114 -67.875 32.25 C-68.609 30.523 -68.609 30.523 -68.875 28.25 C-64.189 21.468 -56.68 15.819 -48.875 13.25 C-39.428 11.946 -30.859 12.478 -22.875 18.25 C-21.113 19.793 -21.113 19.793 -19.875 21.25 C-19.875 21.91 -19.875 22.57 -19.875 23.25 C-17.895 23.25 -15.915 23.25 -13.875 23.25 C-13.7 22.642 -13.7 22.642 -12.812 19.562 C-6.542 0.569 -6.542 0.569 0 0 Z " fill="#7C4D18" transform="translate(109.875,10.75)"/>
<path d="M0 0 C-0.299 0.86 -0.598 1.72 -0.906 2.605 C-2 6 -2 6 -2.719 9.113 C-4.859 17.877 -8.486 22.934 -16 28 C-16.66 28 -17.32 28 -18 28 C-18.112 28.583 -18.224 29.165 -18.34 29.766 C-19.06 32.203 -20.044 33.725 -21.562 35.75 C-22.018 36.364 -22.473 36.977 -22.941 37.609 C-23.116 37.839 -23.116 37.839 -24 39 C-21.125 38.812 -21.125 38.812 -18 38 C-16.938 35.938 -16.938 35.938 -16 33 C-15.203 31.542 -14.367 30.105 -13.5 28.688 C-13.289 28.339 -13.289 28.339 -12.219 26.574 C-11.817 26.055 -11.414 25.535 -11 25 C-10.34 25 -9.68 25 -9 25 C-9.284 26.439 -9.577 27.876 -9.875 29.312 C-10.037 30.113 -10.2 30.914 -10.367 31.738 C-11 34 -11 34 -13 37 C-13 37.99 -13 38.98 -13 40 C-13.598 40.227 -14.196 40.454 -14.812 40.688 C-17.594 42.356 -18.481 44.17 -20 47 C-20.66 47.99 -21.32 48.98 -22 50 C-22.66 50 -23.32 50 -24 50 C-23.34 51.98 -22.68 53.96 -22 56 C-23.623 57.709 -25.293 59.374 -27 61 C-27.66 61 -28.32 61 -29 61 C-29 62.65 -29 64.3 -29 66 C-29.99 66 -30.98 66 -32 66 C-32.33 65.34 -32.66 64.68 -33 64 C-33.99 64.33 -34.98 64.66 -36 65 C-37.286 61.428 -38.115 58.792 -37.562 55 C-35.422 50.891 -32.413 48.084 -29 45 C-32.449 45 -34.473 47.636 -36.957 49.844 C-40.092 53.153 -42.067 56.902 -44 61 C-60.474 61.298 -60.474 61.298 -66 57 C-68.997 53.147 -69.617 49.821 -70 45 C-70.088 44.111 -70.175 43.221 -70.266 42.305 C-70.811 32.817 -67.907 25.861 -61.984 18.492 C-53.326 9.304 -41.892 1.929 -29.09 0.727 C-22.73 0.635 -22.73 0.635 -20 2 C-19.593 4.322 -19.256 6.657 -19 9 C-17.02 9 -15.04 9 -13 9 C-13 8.34 -13 7.68 -13 7 C-10.664 5.273 -10.664 5.273 -7.625 3.375 C-6.627 2.743 -5.63 2.112 -4.602 1.461 C-2 0 -2 0 0 0 Z " fill="#F8C51F" transform="translate(91,49)"/>
<path d="M0 0 C2.915 1.074 4.778 1.778 7 4 C7.337 5.822 7.597 7.659 7.812 9.5 C8.616 14.945 10.207 19.016 12.977 23.746 C14 26 14 26 13.887 28.523 C14 31 14 31 15.793 33.043 C16.188 33.397 16.188 33.397 18.188 35.188 C22.603 39.826 24.463 44.072 26.125 50.125 C26.231 50.501 26.231 50.501 26.766 52.403 C28.247 58.362 28.392 63.725 25.938 69.5 C25.628 69.995 25.319 70.49 25 71 C24.34 71 23.68 71 23 71 C23 71.66 23 72.32 23 73 C22.374 73.121 21.747 73.242 21.102 73.367 C20.284 73.535 19.467 73.702 18.625 73.875 C17.813 74.037 17.001 74.2 16.164 74.367 C14 75 14 75 12 77 C8.29 76.863 5.837 76.651 2.867 74.34 C0.572 71.464 0.144 69.293 -0.5 65.688 C-1.421 61.195 -2.394 57.899 -4.949 54.031 C-7.494 49.111 -8.609 43.335 -10 38 C-10.66 40.97 -11.32 43.94 -12 47 C-12.99 46.67 -13.98 46.34 -15 46 C-13.906 34.624 -10.668 24.405 -6 14 C-3.481 18.871 -2.896 22.491 -3 28 C-1.845 27.835 -1.845 27.835 4 27 C3.807 26.359 3.613 25.719 3.414 25.059 C2.873 23.26 2.335 21.461 1.801 19.66 C1.167 17.556 0.497 15.463 -0.188 13.375 C-1.235 9.024 -2.071 4.143 0 0 Z " fill="#F9C61F" transform="translate(101,43)"/>
<path d="M0 0 C0.34 0.407 0.34 0.407 2.059 2.469 C5.69 5.593 7.347 5.54 12.062 5.5 C22.326 5.759 30.815 8.96 38.258 16.125 C47.484 26.054 51.209 36.373 51.062 49.812 C51.058 50.601 51.053 51.389 51.049 52.201 C51.037 54.134 51.019 56.067 51 58 C49.312 58.75 49.312 58.75 47 59 C45.291 57.721 43.63 56.378 42 55 C39.77 53.917 37.518 52.878 35.25 51.875 C29.148 49.017 25.3 45.626 21.023 40.34 C19.064 38.074 17.24 36.634 14.75 35 C9.191 31.035 6.622 25.462 5.43 18.828 C5.151 16.748 4.874 14.667 4.602 12.586 C4 10 4 10 1.375 7.25 C0.591 6.837 -0.192 6.425 -1 6 C-0.67 4.02 -0.34 2.04 0 0 Z " fill="#708F05" transform="translate(103,37)"/>
<path d="M0 0 C2.97 0 5.94 0 9 0 C8.67 0.165 8.67 0.165 7 1 C5.809 4.266 5.877 7.463 5.88 10.91 C5.879 11.514 5.879 11.514 5.876 14.573 C5.879 15.909 5.883 17.245 5.886 18.581 C5.887 19.99 5.887 21.4 5.886 22.809 C5.886 26.633 5.892 30.457 5.899 34.281 C5.905 38.279 5.905 42.276 5.907 46.273 C5.91 53.841 5.918 61.41 5.928 68.978 C5.939 77.594 5.945 86.211 5.95 94.828 C5.96 112.552 5.978 130.276 6 148 C6.66 148 7.32 148 8 148 C8 148.66 8 149.32 8 150 C23.642 150.024 39.283 150.041 54.925 150.052 C62.193 150.057 69.46 150.064 76.728 150.075 C132.316 150.162 132.316 150.162 155.93 149.621 C156.72 149.606 157.511 149.591 158.326 149.575 C160.475 149.531 162.624 149.474 164.773 149.412 C165.942 149.381 167.11 149.35 168.314 149.318 C171 149 171 149 173 147 C173.262 144.536 173.262 144.536 173.278 141.369 C173.29 140.171 173.301 138.974 173.312 137.74 C173.315 136.406 173.317 135.072 173.319 133.738 C173.328 132.338 173.338 130.939 173.349 129.54 C173.377 125.734 173.392 121.929 173.405 118.123 C173.42 114.149 173.447 110.174 173.473 106.2 C173.52 98.67 173.556 91.141 173.589 83.612 C173.628 75.041 173.677 66.47 173.727 57.9 C173.831 40.267 173.92 22.633 174 5 C174.33 5 174.66 5 175 5 C175 53.51 175 102.02 175 152 C117.25 152 59.5 152 0 152 C0 101.84 0 51.68 0 0 Z " fill="#FDFDFC" transform="translate(0,0)"/>
<path d="M0 0 C9.816 5.008 18.019 13.438 22.105 23.805 C25.096 33.942 24.556 41.376 20 51 C18.478 53.367 17.035 55.018 15 57 C14.34 57 13.68 57 13 57 C12.67 57.99 12.34 58.98 12 60 C6.826 63.742 -0.935 62.529 -7 62 C-11.412 60.683 -14.96 58.488 -18 55 C-18 54.34 -18 53.68 -18 53 C-18.66 53 -19.32 53 -20 53 C-19.965 52.022 -19.93 51.043 -19.895 50.035 C-19.671 39.197 -21.015 31.165 -27 22 C-27.99 21.34 -28.98 20.68 -30 20 C-29.67 18.68 -29.34 17.36 -29 16 C-28.67 16.99 -28.34 17.98 -28 19 C-27.34 19.33 -26.68 19.66 -26 20 C-25.951 19.374 -25.902 18.747 -25.852 18.102 C-25.814 17.693 -25.814 17.693 -25.625 15.625 C-25.555 14.813 -25.486 14.001 -25.414 13.164 C-25 11 -25 11 -23 9 C-22.758 10.074 -22.515 11.148 -22.266 12.254 C-21.928 13.69 -21.589 15.126 -21.25 16.562 C-21.093 17.267 -20.935 17.971 -20.773 18.697 C-19.902 22.336 -18.905 25.397 -16.957 28.605 C-14.953 32.081 -14.169 34.831 -13.438 38.75 C-12.122 45.776 -12.122 45.776 -9 48 C-5.5 48.812 -5.5 48.812 -2 49 C-1.01 48.34 -0.02 47.68 1 47 C3.043 46.586 3.043 46.586 5.188 46.375 C6.446 46.251 7.704 46.127 9 46 C9 45.34 9 44.68 9 44 C9.66 44 10.32 44 11 44 C13.025 36.679 12.982 31.29 11 24 C10.838 23.175 10.675 22.35 10.508 21.5 C8.97 14.758 5.702 10.992 0.766 6.227 C-1 4 -1 4 -0.766 1.711 C-0.513 1.146 -0.26 0.582 0 0 Z " fill="#DD9208" transform="translate(115,70)"/>
<path d="M0 0 C2.775 1.59 5.108 3.241 7.188 5.688 C7.188 6.347 7.188 7.008 7.188 7.688 C8.343 7.523 8.343 7.523 14.188 6.688 C13.689 10.375 13.087 12.292 10.188 14.688 C10.188 14.028 10.188 13.367 10.188 12.688 C6.754 12.295 5.508 12.447 2.688 14.562 C1.862 15.264 1.037 15.965 0.188 16.688 C-7.275 20.425 -16.802 19.559 -24.594 17.133 C-29.878 16.072 -35.447 16.552 -40.812 16.688 C-41.547 14.961 -41.547 14.961 -41.812 12.688 C-32.444 -0.872 -15.229 -7.303 0 0 Z " fill="#7C9719" transform="translate(82.8125,26.3125)"/>
<path d="M0 0 C7.258 0.68 13.449 5.734 18.332 10.852 C25.51 20.098 28.384 30.508 28.125 42 C28.116 42.775 28.107 43.549 28.098 44.348 C28.074 46.232 28.039 48.116 28 50 C26.129 50.602 26.129 50.602 24 51 C22.323 49.679 20.66 48.342 19 47 C15.392 45.196 11.709 43.585 8 42 C8.33 41.34 8.66 40.68 9 40 C8.087 37.928 7.094 35.891 6.062 33.875 C3.471 28.483 2.304 24.917 3 19 C3.99 19 4.98 19 6 19 C3.36 16.69 0.72 14.38 -2 12 C-1.67 11.34 -1.34 10.68 -1 10 C-0.492 10.471 0.016 10.941 0.539 11.426 C7.385 17.618 14.472 20.68 23 24 C19.452 15.676 15.116 8.192 6.5 4.5 C5.675 4.335 4.85 4.17 4 4 C4 3.34 4 2.68 4 2 C2.68 1.34 1.36 0.68 0 0 Z " fill="#708D0A" transform="translate(126,45)"/>
<path d="M0 0 C-0.299 0.86 -0.598 1.72 -0.906 2.605 C-2 6 -2 6 -2.719 9.113 C-4.859 17.877 -8.486 22.934 -16 28 C-16.66 28 -17.32 28 -18 28 C-18.112 28.583 -18.224 29.165 -18.34 29.766 C-19.06 32.203 -20.044 33.725 -21.562 35.75 C-22.018 36.364 -22.473 36.977 -22.941 37.609 C-23.291 38.068 -23.64 38.527 -24 39 C-21.125 38.812 -21.125 38.812 -18 38 C-16.938 35.938 -16.938 35.938 -16 33 C-15.203 31.542 -14.367 30.105 -13.5 28.688 C-13.289 28.339 -13.289 28.339 -12.219 26.574 C-11.817 26.055 -11.414 25.535 -11 25 C-10.34 25 -9.68 25 -9 25 C-9.284 26.439 -9.577 27.876 -9.875 29.312 C-10.037 30.113 -10.2 30.914 -10.367 31.738 C-11 34 -11 34 -13 37 C-13 37.99 -13 38.98 -13 40 C-13.598 40.227 -14.196 40.454 -14.812 40.688 C-17.594 42.356 -18.481 44.17 -20 47 C-20.66 47.99 -21.32 48.98 -22 50 C-22.66 50 -23.32 50 -24 50 C-23.34 51.98 -22.68 53.96 -22 56 C-23.623 57.709 -25.293 59.374 -27 61 C-27.66 61 -28.32 61 -29 61 C-29 62.65 -29 64.3 -29 66 C-29.99 66 -30.98 66 -32 66 C-32.165 65.67 -32.165 65.67 -33 64 C-33.495 64.165 -33.495 64.165 -36 65 C-37.286 61.428 -38.115 58.792 -37.562 55 C-35.422 50.891 -32.413 48.084 -29 45 C-32.449 45 -34.473 47.636 -36.957 49.844 C-40.143 53.206 -41.96 56.857 -44 61 C-47.3 61 -50.6 61 -54 61 C-54 60.67 -54 60.34 -54 60 C-52.742 59.979 -51.484 59.959 -50.188 59.938 C-47.949 59.66 -47.949 59.66 -46 59 C-44.5 55.875 -44.5 55.875 -43.906 53.984 C-42.12 50.074 -38.441 47.456 -35 45 C-34.505 44.835 -34.505 44.835 -32 44 C-32 43.34 -32 42.68 -32 42 C-31.526 41.887 -31.526 41.887 -29.125 41.312 C-26 40 -26 40 -24.992 37.715 C-24.665 36.819 -24.337 35.923 -24 35 C-23.044 33.39 -22.044 31.805 -21 30.25 C-20.742 29.861 -20.742 29.861 -19.438 27.891 C-18 26 -18 26 -16 25 C-15.362 22.468 -14.833 20.002 -14.375 17.438 C-14.241 16.727 -14.107 16.016 -13.969 15.283 C-13.638 13.524 -13.318 11.762 -13 10 C-13.66 9.67 -14.32 9.34 -15 9 C-14.34 9 -13.68 9 -13 9 C-13 8.34 -13 7.68 -13 7 C-10.664 5.273 -10.664 5.273 -7.625 3.375 C-6.627 2.743 -5.63 2.112 -4.602 1.461 C-2 0 -2 0 0 0 Z " fill="#FCD639" transform="translate(91,49)"/>
<path d="M0 0 C5.94 0 11.88 0 18 0 C18 0.66 18 1.32 18 2 C18.99 2 19.98 2 21 2 C20.67 2.99 20.34 3.98 20 5 C19.01 5.33 18.02 5.66 17 6 C17.021 7.093 17.041 8.186 17.062 9.312 C17 13 17 13 16 16 C15.34 16 14.68 16 14 16 C14 16.66 14 17.32 14 18 C20.747 17.729 25.453 16.962 31 13 C32.023 11.684 33.031 10.356 34 9 C34.99 9 35.98 9 37 9 C37.99 6.69 38.98 4.38 40 2 C40.948 4.524 41.159 5.619 40.102 8.148 C36.042 14.27 31.263 19.205 24.145 21.633 C15.919 23.041 7.93 23.153 0.848 18.414 C0.543 18.181 0.543 18.181 -1 17 C-2.031 16.237 -3.062 15.474 -4.125 14.688 C-6.204 11.707 -6.218 11.124 -5.812 7.688 C-5.544 6.471 -5.276 5.254 -5 4 C-3.68 4 -2.36 4 -1 4 C-0.67 2.68 -0.34 1.36 0 0 Z " fill="#E69C06" transform="translate(54,121)"/>
<path d="M0 0 C9.816 5.008 18.019 13.438 22.105 23.805 C25.109 33.985 24.474 41.301 20 51 C19.34 51.66 18.68 52.32 18 53 C17.34 51.68 16.68 50.36 16 49 C15.67 49.165 15.67 49.165 14 50 C12.46 50.07 10.917 50.085 9.375 50.062 C8.966 50.058 8.966 50.058 6.898 50.035 C6.272 50.024 5.645 50.012 5 50 C5.66 48.68 6.32 47.36 7 46 C7.66 46 8.32 46 9 46 C9 45.34 9 44.68 9 44 C9.66 44 10.32 44 11 44 C13.025 36.679 12.982 31.29 11 24 C10.838 23.175 10.675 22.35 10.508 21.5 C8.97 14.758 5.702 10.992 0.766 6.227 C-1 4 -1 4 -0.766 1.711 C-0.513 1.146 -0.26 0.582 0 0 Z " fill="#ECA607" transform="translate(115,70)"/>
<path d="M0 0 C3.062 0.312 3.062 0.312 5 1.5 C6.062 3.312 6.062 3.312 6 5.625 C4.846 8.932 3.104 11.481 1.062 14.312 C0.068 11.217 0.207 9.414 1.062 6.312 C0.898 6.148 0.898 6.148 0.062 5.312 C-0.02 6.014 -0.102 6.715 -0.188 7.438 C-1.114 10.989 -2.895 13.264 -4.938 16.312 C-10.486 26.583 -15.32 36.908 -17.938 48.312 C-18.58 50.654 -19.258 52.982 -19.938 55.312 C-20.927 55.312 -21.918 55.312 -22.938 55.312 C-23.511 48.428 -22.413 44.286 -18.938 38.312 C-19.625 38.734 -20.312 39.156 -21.02 39.59 C-21.921 40.138 -22.822 40.686 -23.75 41.25 C-24.643 41.795 -25.537 42.341 -26.457 42.902 C-28.938 44.312 -28.938 44.312 -31.938 45.312 C-31.938 45.972 -31.938 46.633 -31.938 47.312 C-33.688 48.062 -33.688 48.062 -35.938 48.312 C-38.188 46.375 -38.188 46.375 -39.938 44.312 C-39.608 43.322 -39.278 42.333 -38.938 41.312 C-38.27 41.251 -37.602 41.189 -36.914 41.125 C-32.787 39.998 -29.785 37.754 -26.312 35.312 C-24.989 34.393 -23.664 33.476 -22.336 32.562 C-21.755 32.155 -21.174 31.748 -20.576 31.328 C-18.938 30.312 -18.938 30.312 -15.938 29.312 C-13.938 26.312 -13.938 26.312 -13.559 23.176 C-12.8 18.457 -11.088 14.761 -9 10.5 C-8.64 9.738 -8.279 8.975 -7.908 8.189 C-4.19 0.446 -4.19 0.446 0 0 Z " fill="#A06A24" transform="translate(109.9375,10.6875)"/>
<path d="M0 0 C0.66 0.66 1.32 1.32 2 2 C-0.116 4.341 -2.244 6.672 -4.375 9 C-4.978 9.668 -5.582 10.335 -6.203 11.023 C-6.783 11.655 -7.363 12.287 -7.961 12.938 C-8.495 13.524 -9.029 14.111 -9.58 14.715 C-11 16 -11 16 -13 16 C-13.124 16.763 -13.248 17.526 -13.375 18.312 C-14 21 -14 21 -16 24 C-18.537 24.306 -20.779 24.418 -23.312 24.375 C-24.629 24.383 -25.945 24.39 -27.301 24.398 C-32.147 23.876 -34.769 22.528 -37.812 18.75 C-39.28 15.352 -39.216 12.664 -39 9 C-35.284 8.799 -34.228 8.848 -31 11 C-26.146 13.145 -22.055 13.543 -17 12 C-10.2 8.962 -4.386 6.175 0 0 Z " fill="#E59802" transform="translate(61,85)"/>
<path d="M0 0 C0.66 0 1.32 0 2 0 C2.743 0.763 3.485 1.526 4.25 2.312 C8.125 6.1 11.29 7.833 16.727 8.363 C18.013 8.347 19.3 8.33 20.625 8.312 C21.917 8.309 23.208 8.305 24.539 8.301 C28.921 7.92 30.928 7.072 34 4 C34.165 4.33 34.165 4.33 35 6 C31.877 9.346 29.376 11.833 24.666 12.164 C24.246 12.146 24.246 12.146 22.121 12.055 C21.2 12.03 20.279 12.006 19.33 11.98 C17.397 11.91 15.465 11.832 13.533 11.746 C12.613 11.724 11.694 11.702 10.746 11.68 C9.907 11.646 9.069 11.612 8.205 11.578 C6 12 6 12 4.365 13.929 C3.915 14.613 3.464 15.296 3 16 C0.406 17.449 0.406 17.449 -2.5 18.688 C-2.98 18.896 -2.98 18.896 -5.406 19.949 C-11.362 22.362 -16.637 22.22 -23 22.25 C-23.553 22.26 -23.553 22.26 -26.352 22.312 C-27.411 22.318 -28.471 22.323 -29.562 22.328 C-30.048 22.333 -30.048 22.333 -32.504 22.356 C-35.377 21.946 -36.239 21.245 -38 19 C-37.67 18.34 -37.34 17.68 -37 17 C-36.479 17.324 -35.958 17.647 -35.422 17.98 C-29.355 20.534 -20.682 19.921 -14.5 17.812 C-7.839 14.363 -4.243 10.606 -1 4 C-0.25 1.562 -0.25 1.562 0 0 Z " fill="#DFC395" transform="translate(95,123)"/>
<path d="M0 0 C0.66 0.33 1.32 0.66 2 1 C2 1.66 2 2.32 2 3 C0.722 4.104 -0.598 5.159 -1.938 6.188 C-4.997 8.787 -5.898 9.653 -7.062 13.625 C-7.008 16.587 -6.778 19.148 -6 22 C-4.68 21.34 -3.36 20.68 -2 20 C-2 20.99 -2 21.98 -2 23 C-1.34 23.33 -0.68 23.66 0 24 C-0.33 24.99 -0.66 25.98 -1 27 C-2.98 27.33 -4.96 27.66 -7 28 C-7 29.65 -7 31.3 -7 33 C-7.33 33.165 -7.33 33.165 -9 34 C-9.99 33.67 -10.98 33.34 -12 33 C-12.33 35.31 -12.66 37.62 -13 40 C-17.063 35.937 -17.141 31.249 -17.188 25.75 C-17.154 20.307 -17.154 20.307 -16 18 C-15.34 18 -14.68 18 -14 18 C-13.762 17.118 -13.523 16.237 -13.277 15.328 C-11.873 11.668 -10.226 9.602 -7.562 6.75 C-6.78 5.899 -5.998 5.048 -5.191 4.172 C-3 2 -3 2 0 0 Z " fill="#FBCA22" transform="translate(61,92)"/>
<path d="M0 0 C0.66 0.99 1.32 1.98 2 3 C1.01 4.98 0.02 6.96 -1 9 C-1.66 9 -2.32 9 -3 9 C-4.625 11.5 -4.625 11.5 -6 14 C-6.812 12.375 -6.812 12.375 -7 10 C-5.806 8.451 -4.601 6.905 -3.281 5.461 C-1.806 3.779 -0.87 2.056 0 0 Z M5 15 C-4.179 22.06 -16.545 22.273 -27.781 21.91 C-31.178 22.048 -33.21 24.122 -36 26 C-43.203 29.403 -50.231 29.364 -58.062 29.188 C-58.638 29.181 -58.638 29.181 -61.553 29.146 C-64.369 29.111 -67.184 29.062 -70 29 C-70 28.67 -70 28.34 -70 28 C-68.817 27.974 -67.633 27.948 -66.414 27.922 C-54.908 27.555 -45.311 26.351 -36 19 C-36 18.34 -36 17.68 -36 17 C-35.365 17.01 -34.73 17.021 -34.076 17.032 C-31.175 17.074 -28.275 17.099 -25.375 17.125 C-24.875 17.133 -24.875 17.133 -22.348 17.176 C-17.088 17.211 -12.955 16.937 -8 15 C-6.092 14.707 -4.174 14.475 -2.25 14.312 C-1.778 14.269 -1.778 14.269 0.609 14.051 C3 14 3 14 5 15 Z " fill="#F7EAD1" transform="translate(136,117)"/>
<path d="M0 0 C-0.299 0.86 -0.598 1.72 -0.906 2.605 C-2 6 -2 6 -2.719 9.113 C-4.859 17.877 -8.486 22.934 -16 28 C-16.66 28 -17.32 28 -18 28 C-18.083 28.557 -18.165 29.114 -18.25 29.688 C-19.228 32.702 -20.993 34.567 -23 37 C-23.286 37.655 -23.572 38.31 -23.867 38.984 C-25.28 41.498 -26.713 42.302 -29.188 43.75 C-35.972 48.076 -40.851 53.59 -44 61 C-47.3 61 -50.6 61 -54 61 C-54 60.67 -54 60.34 -54 60 C-52.742 59.979 -51.484 59.959 -50.188 59.938 C-47.949 59.66 -47.949 59.66 -46 59 C-44.5 55.875 -44.5 55.875 -43.906 53.984 C-42.12 50.074 -38.441 47.456 -35 45 C-34.505 44.835 -34.505 44.835 -32 44 C-32 43.34 -32 42.68 -32 42 C-31.526 41.887 -31.526 41.887 -29.125 41.312 C-26 40 -26 40 -24.992 37.715 C-24.665 36.819 -24.337 35.923 -24 35 C-23.044 33.39 -22.044 31.805 -21 30.25 C-20.742 29.861 -20.742 29.861 -19.438 27.891 C-18 26 -18 26 -16 25 C-15.362 22.468 -14.833 20.002 -14.375 17.438 C-14.241 16.727 -14.107 16.016 -13.969 15.283 C-13.638 13.524 -13.318 11.762 -13 10 C-13.66 9.67 -14.32 9.34 -15 9 C-14.34 9 -13.68 9 -13 9 C-13 8.34 -13 7.68 -13 7 C-10.664 5.273 -10.664 5.273 -7.625 3.375 C-6.627 2.743 -5.63 2.112 -4.602 1.461 C-2 0 -2 0 0 0 Z " fill="#D99916" transform="translate(91,49)"/>
<path d="M0 0 C0.33 0.66 0.66 1.32 1 2 C3.062 2.625 3.062 2.625 5 3 C5 3.66 5 4.32 5 5 C5.895 5.081 6.789 5.162 7.711 5.246 C13.901 6.665 18.142 12.077 21.465 17.305 C24 22.231 24 22.231 24 25 C12.451 21.782 12.451 21.782 8 19 C7.34 17.68 6.68 16.36 6 15 C8.97 15 11.94 15 15 15 C13.68 14.34 12.36 13.68 11 13 C11 12.34 11 11.68 11 11 C6.38 10.34 1.76 9.68 -3 9 C-3 8.34 -3 7.68 -3 7 C-3.66 6.34 -4.32 5.68 -5 5 C-5 3.68 -5 2.36 -5 1 C-3.35 0.67 -1.7 0.34 0 0 Z " fill="#7C9A0A" transform="translate(125,44)"/>
<path d="M0 0 C7.4 0.694 13.438 5.836 18.391 11.039 C22.362 15.878 25.512 20.583 25 27 C24.367 28.35 23.699 29.684 23 31 C21.777 34.576 21.826 35.637 23.5 39.125 C23.995 40.074 24.49 41.023 25 42 C24.67 42.99 24.34 43.98 24 45 C21.79 41.422 19.845 37.778 18 34 C17.01 34 16.02 34 15 34 C14.752 32.886 14.505 31.773 14.25 30.625 C13 27 13 27 11 25.875 C10.67 25.731 10.67 25.731 9 25 C8.732 24.278 8.464 23.556 8.188 22.812 C6.288 18.313 2.405 14.202 -2 12 C-1.67 11.34 -1.34 10.68 -1 10 C-0.492 10.471 0.016 10.941 0.539 11.426 C7.385 17.618 14.472 20.68 23 24 C19.452 15.676 15.116 8.192 6.5 4.5 C5.675 4.335 4.85 4.17 4 4 C4 3.34 4 2.68 4 2 C2.68 1.34 1.36 0.68 0 0 Z " fill="#698411" transform="translate(126,45)"/>
<path d="M0 0 C2.65 4.505 1.936 8.028 1 13 C0.397 15.02 -0.243 17.032 -1 19 C-0.34 19 0.32 19 1 19 C0.01 22.3 -0.98 25.6 -2 29 C-3.485 28.67 -3.485 28.67 -11 27 C-10.34 26.67 -9.68 26.34 -9 26 C-8.184 24.039 -8.184 24.039 -7.438 21.625 C-7.313 21.229 -7.313 21.229 -6.684 19.227 C-6.458 18.492 -6.232 17.757 -6 17 C-5.67 16.01 -5.34 15.02 -5 14 C-5.66 14 -6.32 14 -7 14 C-7.227 14.66 -7.454 15.32 -7.688 16 C-9.41 19.938 -11.176 23.725 -14 27 C-17.312 28 -17.312 28 -20 28 C-19.355 26.656 -18.68 25.326 -18 24 C-17.422 22.866 -16.845 21.731 -16.25 20.562 C-14.078 16.774 -11.54 14.539 -8 12 C-7.34 12 -6.68 12 -6 12 C-5.67 11.01 -5.34 10.02 -5 9 C-4.34 8.67 -3.68 8.34 -3 8 C-2.148 6.152 -2.148 6.152 -1.375 3.938 C-1.115 3.204 -0.854 2.471 -0.586 1.715 C-0.393 1.149 -0.199 0.583 0 0 Z " fill="#8E7620" transform="translate(87,60)"/>
<path d="M0 0 C18.225 -1.018 18.225 -1.018 26 5 C27.762 7.172 27.762 7.172 29 9 C26 9 26 9 23 8 C22.01 8 21.02 8 20 8 C19.34 7.34 18.68 6.68 18 6 C18 6.66 18 7.32 18 8 C15.69 7.34 13.38 6.68 11 6 C11 6.33 11 6.66 11 7 C9.77 7.182 8.54 7.364 7.273 7.551 C5.641 7.804 4.008 8.058 2.375 8.312 C1.567 8.43 0.759 8.548 -0.074 8.67 C-4.932 9.44 -8.605 10.694 -13 13 C-13.66 12.67 -14.32 12.34 -15 12 C-9.962 7.11 -5.745 4.048 1 2 C0.67 1.34 0.34 0.68 0 0 Z " fill="#79951A" transform="translate(61,24)"/>
<path d="M0 0 C3.552 2.008 4.748 3.119 5.875 7.062 C6 10 6 10 5 13 C0.762 13.766 -2.818 14.345 -7 13.125 C-10.061 9.873 -9.9 6.33 -10 2 C-6.263 -0.492 -4.427 -0.458 0 0 Z " fill="#A7691B" transform="translate(65,124)"/>
<path d="M0 0 C2.915 1.074 4.778 1.778 7 4 C7.527 6.504 7.527 6.504 7.938 9.562 C8.758 15.004 10.108 19.84 12 25 C9.36 24.67 6.72 24.34 4 24 C3.351 22.418 2.706 20.834 2.062 19.25 C1.703 18.368 1.343 17.487 0.973 16.578 C-0.942 11.502 -1.174 7.403 -1 2 C-0.67 1.34 -0.34 0.68 0 0 Z " fill="#F2F0E2" transform="translate(101,43)"/>
<path d="M0 0 C5.75 1.875 5.75 1.875 8 3 C7.835 2.505 7.835 2.505 7 0 C7.99 0.33 8.98 0.66 10 1 C10 1.66 10 2.32 10 3 C10.743 2.794 11.485 2.587 12.25 2.375 C15.474 1.935 16.177 2.588 19 4 C21.332 4.078 23.668 4.09 26 4 C25.502 7.688 24.899 9.605 22 12 C22 11.34 22 10.68 22 10 C18.489 9.599 17.28 9.793 14.375 11.938 C13.591 12.618 12.808 13.299 12 14 C8.527 15.158 5.639 15.069 2 15 C5.312 13.206 8.722 12.038 12.293 10.879 C14 10 14 10 15 7 C1.139 3.632 -11.806 4.523 -25 10 C-25 9.34 -25 8.68 -25 8 C-17.25 3.218 -8.857 2.329 0 1 C0 0.67 0 0.34 0 0 Z " fill="#6E8E09" transform="translate(71,29)"/>
<path d="M0 0 C2.488 4.81 3.557 8.52 3 14 C0.688 17 0.688 17 -0.691 18.469 C-4.207 22.582 -5.361 27.757 -6 33 C-6.99 32.67 -7.98 32.34 -9 32 C-7.906 20.624 -4.668 10.405 0 0 Z " fill="#F3EFE4" transform="translate(95,57)"/>
<path d="M0 0 C0.33 0.495 0.33 0.495 2 3 C2.99 3 3.98 3 5 3 C5.33 3.33 5.66 3.66 6 4 C6.66 3.34 7.32 2.68 8 2 C8.33 2.495 8.33 2.495 10 5 C10.99 5.33 11.98 5.66 13 6 C13.984 8.398 13.984 8.398 14.75 11.375 C15.013 12.352 15.276 13.329 15.547 14.336 C16 17 16 17 15 20 C14.34 18.35 13.68 16.7 13 15 C12.01 15.66 11.02 16.32 10 17 C7.562 17 7.562 17 5 16 C0.542 10.18 -0.114 7.084 0 0 Z " fill="#84A30C" transform="translate(110,52)"/>
<path d="M0 0 C0.949 0.041 1.898 0.083 2.875 0.125 C-0.259 4.555 -3.654 7.079 -8.188 9.875 C-8.812 10.273 -9.437 10.672 -10.08 11.082 C-12.736 12.754 -15.137 14.129 -18.125 15.125 C-18.682 14.836 -19.239 14.547 -19.812 14.25 C-23.183 12.61 -26.403 12.497 -30.125 12.125 C-30.125 11.795 -30.125 11.465 -30.125 11.125 C-27.155 11.125 -24.185 11.125 -21.125 11.125 C-21.125 10.465 -21.125 9.805 -21.125 9.125 C-22.115 8.465 -23.105 7.805 -24.125 7.125 C-23.774 7.112 -23.774 7.112 -22 7.047 C-13.719 6.552 -6.899 0.276 0 0 Z " fill="#F4EED7" transform="translate(91.125,37.875)"/>
<path d="M0 0 C0.33 1.32 0.66 2.64 1 4 C-4.75 9 -4.75 9 -7 9 C-7 9.66 -7 10.32 -7 11 C-9.25 12.75 -9.25 12.75 -12 14 C-14.312 13.188 -14.312 13.188 -16 12 C-15.917 9.192 -15.442 7.476 -13.516 5.402 C-5.177 -1.849 -5.177 -1.849 0 0 Z " fill="#FDE67C" transform="translate(53,62)"/>
<path d="M0 0 C-1.34 7.429 -1.34 7.429 -4.312 10 C-7.204 11.076 -8.952 11.469 -12 11 C-14.312 9.5 -14.312 9.5 -16 8 C-15.695 5.15 -14.956 3.948 -13.062 1.75 C-8.722 -0.73 -4.888 -0.342 0 0 Z " fill="#955C1A" transform="translate(130,121)"/>
<path d="M0 0 C0.33 0 0.66 0 1 0 C1.182 0.75 1.364 1.5 1.551 2.273 C3.181 8.913 4.964 15.473 7 22 C3.784 23.746 1.68 24.204 -2 24 C-1.959 22.927 -1.918 21.855 -1.875 20.75 C-1.855 15.069 -2.961 9.567 -4 4 C-2.68 4 -1.36 4 0 4 C0 2.68 0 1.36 0 0 Z " fill="#A26C1E" transform="translate(99,48)"/>
<path d="M0 0 C-0.293 0.852 -0.585 1.704 -0.887 2.582 C-1.613 4.812 -2.285 7.06 -2.895 9.324 C-3.197 10.434 -3.5 11.544 -3.812 12.688 C-4.108 13.805 -4.403 14.923 -4.707 16.074 C-6.235 19.531 -7.633 20.425 -11 22 C-13.175 8.642 -13.175 8.642 -10.355 4.703 C-8.291 3.2 -6.33 2.038 -4 1 C-2 0 -2 0 0 0 Z " fill="#F3EEE5" transform="translate(91,49)"/>
<path d="M0 0 C2.273 1.027 2.273 1.027 4 2 C3.01 2.578 2.02 3.155 1 3.75 C0.01 4.492 -0.98 5.235 -2 6 C-2 7.32 -2 8.64 -2 10 C-3.258 10.021 -4.516 10.041 -5.812 10.062 C-6.52 10.074 -7.228 10.086 -7.957 10.098 C-10 10 -10 10 -13 9 C-13 8.01 -13 7.02 -13 6 C-13.66 5.67 -14.32 5.34 -15 5 C-10.29 0.17 -6.742 -1.165 0 0 Z " fill="#8CA90E" transform="translate(74,33)"/>
<path d="M0 0 C2.23 -0.297 2.23 -0.297 5 0 C7.238 2.047 7.238 2.047 9.312 4.75 C10.01 5.632 10.707 6.513 11.426 7.422 C13 10 13 10 13 14 C9.87 14.984 8.437 15.187 5.375 13.875 C2.65 11.724 1.378 10.191 0 7 C-0.188 3.188 -0.188 3.188 0 0 Z " fill="#9F611F" transform="translate(22,94)"/>
<path d="M0 0 C3.097 1.689 5.588 3.522 8.125 5.938 C11.9 9.303 15.962 10.656 20.742 12.141 C23 13 23 13 24 15 C19.25 16 19.25 16 17 16 C17.471 16.652 17.941 17.305 18.426 17.977 C25.285 27.605 25.285 27.605 27 32 C26.67 32.99 26.34 33.98 26 35 C23.79 31.422 21.845 27.778 20 24 C19.01 24 18.02 24 17 24 C16.752 22.886 16.505 21.773 16.25 20.625 C15 17 15 17 13 15.875 C12.67 15.731 12.67 15.731 11 15 C10.732 14.278 10.464 13.556 10.188 12.812 C8.288 8.313 4.405 4.202 0 2 C0 1.34 0 0.68 0 0 Z " fill="#658303" transform="translate(124,55)"/>
<path d="M0 0 C0.66 0.99 1.32 1.98 2 3 C1.01 4.98 0.02 6.96 -1 9 C-1.66 9 -2.32 9 -3 9 C-4.625 11.5 -4.625 11.5 -6 14 C-6.812 12.375 -6.812 12.375 -7 10 C-5.806 8.451 -4.601 6.905 -3.281 5.461 C-1.806 3.779 -0.87 2.056 0 0 Z M-5 16 C-8.833 18.555 -11.432 19.118 -15.93 19.176 C-16.89 19.2 -17.85 19.223 -18.84 19.248 C-20.855 19.291 -22.871 19.322 -24.887 19.342 C-30.634 19.507 -33.757 19.796 -38 24 C-40.535 25.301 -40.535 25.301 -43.062 26.312 C-43.481 26.486 -43.481 26.486 -45.598 27.363 C-48.195 28.052 -49.503 27.894 -52 27 C-51.348 26.758 -50.695 26.515 -50.023 26.266 C-44.915 24.307 -40.311 22.403 -36 19 C-36 18.34 -36 17.68 -36 17 C-35.677 17.005 -35.677 17.005 -34.044 17.032 C-31.113 17.073 -28.181 17.099 -25.25 17.125 C-24.234 17.142 -23.218 17.159 -22.172 17.176 C-21.682 17.179 -21.682 17.179 -19.203 17.195 C-18.753 17.201 -18.753 17.201 -16.474 17.227 C-11.741 16.793 -9.982 14.616 -5 16 Z " fill="#EBD6B2" transform="translate(136,117)"/>
<path d="M0 0 C3.062 0.312 3.062 0.312 5 1.5 C6.062 3.312 6.062 3.312 6 5.625 C4.846 8.932 3.104 11.481 1.062 14.312 C0.068 11.217 0.207 9.414 1.062 6.312 C0.733 5.983 0.403 5.652 0.062 5.312 C0.011 5.704 0.011 5.704 -0.25 7.688 C-0.938 10.312 -0.938 10.312 -3.938 12.312 C-3.325 9.351 -2.684 7.932 -0.938 5.312 C-1.927 5.312 -2.918 5.312 -3.938 5.312 C-6.578 10.922 -9.218 16.532 -11.938 22.312 C-12.597 21.983 -13.257 21.653 -13.938 21.312 C-12.486 18.184 -11.025 15.06 -9.562 11.938 C-9.15 11.048 -8.737 10.159 -8.312 9.242 C-7.913 8.391 -7.513 7.541 -7.102 6.664 C-6.735 5.879 -6.368 5.093 -5.991 4.284 C-4.337 1.188 -3.552 0.378 0 0 Z " fill="#945E22" transform="translate(109.9375,10.6875)"/>
<path d="M0 0 C2.016 0.141 2.016 0.141 4 1 C6.433 4.886 7.426 9.452 7 14 C5.35 14.66 3.7 15.32 2 16 C-1.213 12.887 -2.304 10.703 -2.375 6.312 C-2.308 2.308 -2.308 2.308 0 0 Z " fill="#FCE373" transform="translate(103,81)"/>
<path d="M0 0 C0.948 2.524 1.159 3.619 0.102 6.148 C-3.969 12.287 -8.73 17.142 -15.828 19.645 C-18.938 20.153 -21.976 20.171 -25.125 20.188 C-26.365 20.202 -27.605 20.216 -28.883 20.23 C-32 20 -32 20 -34 18 C-33.157 18.023 -32.314 18.046 -31.445 18.07 C-30.35 18.088 -29.254 18.106 -28.125 18.125 C-27.034 18.148 -25.944 18.171 -24.82 18.195 C-22 18 -22 18 -20 16 C-18.744 15.52 -17.471 15.087 -16.188 14.688 C-12.136 13.259 -9.96 11.124 -7 8 C-6.299 7.876 -5.597 7.752 -4.875 7.625 C-4.256 7.419 -3.638 7.213 -3 7 C-1.25 3.438 -1.25 3.438 0 0 Z " fill="#D89110" transform="translate(94,123)"/>
<path d="M0 0 C0.666 0.811 1.333 1.622 2.02 2.457 C6.176 6.004 9.446 5.647 14.736 5.713 C19.84 5.84 19.84 5.84 22 8 C20.02 8.165 20.02 8.165 10 9 C10.99 9.165 10.99 9.165 16 10 C15.67 10.165 15.67 10.165 14 11 C14 11.66 14 12.32 14 13 C15.32 13.66 16.64 14.32 18 15 C14.556 15 13.252 14.204 10.312 12.5 C9.504 12.036 8.696 11.572 7.863 11.094 C7.248 10.733 6.634 10.372 6 10 C6 11.65 6 13.3 6 15 C5.67 15 5.34 15 5 15 C4.876 14.536 4.876 14.536 4.25 12.188 C2.935 8.835 2.02 7.812 -1 6 C-0.67 4.02 -0.34 2.04 0 0 Z " fill="#657F1C" transform="translate(103,37)"/>
<path d="M0 0 C3.3 0.66 6.6 1.32 10 2 C10 3.32 10 4.64 10 6 C5.799 9.641 0.316 10.123 -5 11 C-4.34 9.68 -3.68 8.36 -3 7 C-3.66 6.67 -4.32 6.34 -5 6 C-3.02 4.68 -1.04 3.36 1 2 C0.67 1.34 0.34 0.68 0 0 Z " fill="#76960C" transform="translate(76,33)"/>
<path d="M0 0 C2.31 0.165 2.31 0.165 14 1 C13.01 1.33 12.02 1.66 11 2 C11 2.66 11 3.32 11 4 C6.988 5.04 3.161 6 -1 6 C-0.34 6.66 0.32 7.32 1 8 C-1.103 8.672 -3.207 9.337 -5.312 10 C-5.898 10.186 -5.898 10.186 -8.863 11.125 C-12 12 -12 12 -15 12 C-9.962 7.11 -5.745 4.048 1 2 C0.67 1.34 0.34 0.68 0 0 Z " fill="#8DAA13" transform="translate(61,24)"/>
<path d="M0 0 C0.66 0 1.32 0 2 0 C1.716 1.439 1.423 2.876 1.125 4.312 C0.963 5.113 0.8 5.914 0.633 6.738 C0 9 0 9 -2 12 C-2 12.99 -2 13.98 -2 15 C-2.736 15.193 -3.472 15.387 -4.23 15.586 C-5.206 15.846 -6.182 16.107 -7.188 16.375 C-8.15 16.63 -9.113 16.885 -10.105 17.148 C-12.822 17.948 -15.391 18.903 -18 20 C-18 19.01 -18 18.02 -18 17 C-16.733 16.326 -15.461 15.661 -14.188 15 C-13.48 14.629 -12.772 14.257 -12.043 13.875 C-10 13 -10 13 -7 13 C-6.773 12.34 -6.546 11.68 -6.312 11 C-4.612 7.113 -2.604 3.363 0 0 Z " fill="#F3C51B" transform="translate(80,74)"/>
<path d="M0 0 C0.99 0.33 1.98 0.66 3 1 C0.462 9.882 -3.778 17.826 -8 26 C-8.33 26 -8.66 26 -9 26 C-9.481 19.274 -8.099 15.017 -5.062 9.062 C-4.876 8.679 -4.876 8.679 -3.932 6.74 C-1.216 1.216 -1.216 1.216 0 0 Z " fill="#B67527" transform="translate(106,15)"/>
<path d="M0 0 C0.99 0 1.98 0 3 0 C4.684 5.836 5.261 10.945 5.125 17 C5.116 17.775 5.107 18.549 5.098 19.348 C5.074 21.232 5.039 23.116 5 25 C4.34 25 3.68 25 3 25 C2.981 24.693 2.981 24.693 2.887 23.137 C2.821 22.328 2.755 21.52 2.688 20.688 C2.658 20.287 2.658 20.287 2.512 18.262 C1.908 15.593 0.977 14.815 -1 13 C-2.317 9.048 -1.191 6.923 0 3 C0 2.01 0 1.02 0 0 Z " fill="#6F8C1A" transform="translate(149,70)"/>
<path d="M0 0 C3.875 4.75 3.875 4.75 5 7 C6.155 6.835 6.155 6.835 12 6 C13.067 8.304 14.064 10.64 15 13 C14.67 13.66 14.34 14.32 14 15 C14.66 15 15.32 15 16 15 C17.656 16.68 17.656 16.68 19.5 18.875 C21.289 20.99 23.04 23.04 25 25 C21.695 24.693 20.262 24.25 17.824 21.926 C17.472 21.495 17.472 21.495 15.688 19.312 C12.856 15.995 10.194 13.198 6.625 10.688 C3.506 8.488 1.551 6.588 0 3 C0 2.01 0 1.02 0 0 Z " fill="#6F870A" transform="translate(111,61)"/>
<path d="M0 0 C0.66 0 1.32 0 2 0 C1.67 2.64 1.34 5.28 1 8 C1.66 8 2.32 8 3 8 C3 8.66 3 9.32 3 10 C3.66 10 4.32 10 5 10 C5.33 10.99 5.66 11.98 6 13 C6.66 13.33 7.32 13.66 8 14 C8.33 13.01 8.66 12.02 9 11 C8.67 12.65 8.34 14.3 8 16 C6.68 15.67 5.36 15.34 4 15 C3.67 17.31 3.34 19.62 3 22 C-1.063 17.937 -1.141 13.249 -1.188 7.75 C-1.154 2.307 -1.154 2.307 0 0 Z " fill="#F0B11D" transform="translate(45,110)"/>
<path d="M0 0 C5.61 0 11.22 0 17 0 C15.875 5.625 15.875 5.625 13 8 C13 7.34 13 6.68 13 6 C9.489 5.599 8.28 5.793 5.375 7.938 C4.983 8.278 4.983 8.278 3 10 C-0.473 11.158 -3.361 11.069 -7 11 C-3.688 9.206 -0.278 8.038 3.293 6.879 C5 6 5 6 6 3 C4.02 2.34 2.04 1.68 0 1 C0 0.67 0 0.34 0 0 Z " fill="#69751A" transform="translate(80,33)"/>
<path d="M0 0 C4.401 3.822 5.808 6.474 7 12 C-4.045 8.922 -4.045 8.922 -9 6 C-9.33 5.34 -9.66 4.68 -10 4 C-7.03 4 -4.06 4 -1 4 C-0.67 2.68 -0.34 1.36 0 0 Z " fill="#779708" transform="translate(142,57)"/>
<path d="M0 0 C0.981 3.194 0.963 5.806 0.75 9.125 C0.682 13.455 1.216 15.842 3.5 19.5 C7.754 26.858 6.379 35.797 6 44 C5.34 44 4.68 44 4 44 C4.035 43.022 4.07 42.043 4.105 41.035 C4.329 30.197 2.985 22.165 -3 13 C-3.99 12.34 -4.98 11.68 -6 11 C-5.67 9.68 -5.34 8.36 -5 7 C-4.67 7.99 -4.34 8.98 -4 10 C-3.34 10.33 -2.68 10.66 -2 11 C-1.939 10.374 -1.879 9.747 -1.816 9.102 C-1.733 8.284 -1.649 7.467 -1.562 6.625 C-1.481 5.813 -1.4 5.001 -1.316 4.164 C-1 2 -1 2 0 0 Z " fill="#CB7F02" transform="translate(91,79)"/>
<path d="M0 0 C1 2 1 2 0.062 5.125 C-0.113 5.599 -0.113 5.599 -1 8 C-1.33 7.34 -1.66 6.68 -2 6 C-2.687 6.422 -3.374 6.843 -4.082 7.277 C-4.983 7.825 -5.884 8.373 -6.812 8.938 C-7.706 9.483 -8.599 10.028 -9.52 10.59 C-12 12 -12 12 -15 13 C-15 13.66 -15 14.32 -15 15 C-16.75 15.75 -16.75 15.75 -19 16 C-21.25 14.062 -21.25 14.062 -23 12 C-22.67 11.01 -22.34 10.02 -22 9 C-20.845 8.835 -20.845 8.835 -15 8 C-15 8.66 -15 9.32 -15 10 C-9.171 7.341 -4.671 4.379 0 0 Z " fill="#966E10" transform="translate(93,43)"/>
<path d="M0 0 C0.75 1.75 0.75 1.75 1 4 C-0.5 6.25 -0.5 6.25 -3 8 C-6.75 8.25 -6.75 8.25 -10 8 C-10.357 2.65 -10.357 2.65 -8.938 0.062 C-5.875 -1.617 -3.306 -0.686 0 0 Z " fill="#FCE687" transform="translate(68,101)"/>
<path d="M0 0 C0.33 0.165 0.33 0.165 2 1 C2.711 3.258 2.711 3.258 3.375 6.125 C4.263 9.622 5.128 12.576 7.062 15.625 C9.385 19.67 10.215 23.445 11 28 C8.406 25.56 6.747 23.018 5.051 19.875 C4 18 4 18 1.75 14.75 C-0.937 10.163 -0.335 5.142 0 0 Z " fill="#F0AE04" transform="translate(91,83)"/>
<path d="M0 0 C3.147 1.573 4.8 4.279 7 7 C7.66 6.34 8.32 5.68 9 5 C9.258 5.165 9.258 5.165 10.562 6 C13.78 7.32 16.557 7.132 20 7 C20 7.66 20 8.32 20 9 C21.98 9.66 23.96 10.32 26 11 C26 11.33 26 11.66 26 12 C15.712 12.379 9.322 11.746 1.469 4.754 C0 3 0 3 0 0 Z " fill="#DD940F" transform="translate(48,130)"/>
<path d="M0 0 C0.33 0.66 0.66 1.32 1 2 C3.062 2.625 3.062 2.625 5 3 C5 3.66 5 4.32 5 5 C6.32 5.33 7.64 5.66 9 6 C8.34 6.66 7.68 7.32 7 8 C7 8.33 7 8.66 7 9 C3.7 9 0.4 9 -3 9 C-3 8.34 -3 7.68 -3 7 C-3.66 6.34 -4.32 5.68 -5 5 C-5 3.68 -5 2.36 -5 1 C-3.35 0.67 -1.7 0.34 0 0 Z " fill="#89AA0B" transform="translate(125,44)"/>
<path d="M0 0 C0 3.919 -1.668 6.366 -3.625 9.625 C-3.791 9.924 -3.791 9.924 -4.629 11.438 C-6.577 14.686 -7.562 15.88 -11.273 16.898 C-12.173 16.932 -13.073 16.965 -14 17 C-13.355 15.656 -12.68 14.326 -12 13 C-11.464 11.886 -10.927 10.773 -10.375 9.625 C-7.896 5.244 -4.129 2.736 0 0 Z " fill="#787B10" transform="translate(81,71)"/>
<path d="M0 0 C1.172 0.783 2.338 1.577 3.5 2.375 C3.825 2.595 3.825 2.595 5.469 3.711 C5.721 3.924 5.721 3.924 7 5 C7 5.66 7 6.32 7 7 C7.99 7.33 8.98 7.66 10 8 C10 8.66 10 9.32 10 10 C0.769 9.231 0.769 9.231 -2 6 C-2.25 3.312 -2.25 3.312 -2 1 C-1.34 0.67 -0.68 0.34 0 0 Z " fill="#F8EACE" transform="translate(50,135)"/>
<path d="M0 0 C4.069 6.104 3.772 13.889 3 21 C1.695 24.588 0.037 27.777 -2 31 C-2.66 30.67 -3.32 30.34 -4 30 C-2 25 -2 25 -0.938 22.969 C0.457 18.554 0.209 14.285 0.125 9.688 C0.116 8.756 0.107 7.825 0.098 6.865 C0.074 4.577 0.041 2.288 0 0 Z " fill="#EAA209" transform="translate(93,100)"/>
<path d="M0 0 C0.66 0 1.32 0 2 0 C0.805 3.584 0.025 3.824 -3.125 5.688 C-9.925 10.051 -14.836 15.556 -18 23 C-21.3 23 -24.6 23 -28 23 C-28 22.67 -28 22.34 -28 22 C-26.742 21.979 -25.484 21.959 -24.188 21.938 C-21.949 21.66 -21.949 21.66 -20 21 C-18.5 17.875 -18.5 17.875 -17.906 15.984 C-16.12 12.074 -12.441 9.456 -9 7 C-8.01 6.67 -7.02 6.34 -6 6 C-6 5.34 -6 4.68 -6 4 C-4.02 3.34 -2.04 2.68 0 2 C0 1.34 0 0.68 0 0 Z " fill="#D38907" transform="translate(65,87)"/>
<path d="M0 0 C2.64 0 5.28 0 8 0 C7.67 1.32 7.34 2.64 7 4 C8.32 4 9.64 4 11 4 C11 5.32 11 6.64 11 8 C10.34 8 9.68 8 9 8 C9 7.34 9 6.68 9 6 C8.381 6.186 7.763 6.371 7.125 6.562 C5 7 5 7 3 6 C1.68 6 0.36 6 -1 6 C-0.67 4.02 -0.34 2.04 0 0 Z " fill="#774515" transform="translate(59,128)"/>
<path d="M0 0 C1.65 0.33 3.3 0.66 5 1 C5 3.31 5 5.62 5 8 C4.278 8.227 3.556 8.454 2.812 8.688 C-0.532 10.248 -2.516 12.303 -5 15 C-5.33 14.34 -5.66 13.68 -6 13 C-5.044 11.707 -4.085 10.416 -3.125 9.125 C-2.591 8.406 -2.058 7.686 -1.508 6.945 C0 5 0 5 2 3 C1.34 2.67 0.68 2.34 0 2 C0 1.34 0 0.68 0 0 Z M-11 17 C-10.67 17.165 -10.67 17.165 -9 18 C-9.33 18.165 -9.33 18.165 -11 19 C-11 18.34 -11 17.68 -11 17 Z " fill="#F0AF09" transform="translate(73,58)"/>
<path d="M0 0 C-2.017 4.852 -5.449 6.685 -10 9 C-13 9.812 -13 9.812 -15 10 C-14.836 8.238 -14.836 8.238 -14 6 C-11.602 4.043 -11.602 4.043 -8.625 2.188 C-7.648 1.562 -6.671 0.937 -5.664 0.293 C-3 -1 -3 -1 0 0 Z " fill="#A67328" transform="translate(91,44)"/>
<path d="M0 0 C0.99 0.165 0.99 0.165 6 1 C6.33 2.65 6.66 4.3 7 6 C4.69 5.34 2.38 4.68 0 4 C0 4.33 0 4.66 0 5 C-1.601 5.249 -3.206 5.474 -4.812 5.688 C-5.706 5.815 -6.599 5.943 -7.52 6.074 C-10 6 -10 6 -11.824 4.52 C-12.212 4.018 -12.6 3.517 -13 3 C-10.69 3 -8.38 3 -6 3 C-5.67 2.34 -5.34 1.68 -5 1 C-3.35 1.33 -1.7 1.66 0 2 C0 1.34 0 0.68 0 0 Z " fill="#789509" transform="translate(72,26)"/>
<path d="M0 0 C4.695 3.959 5.508 10.333 6.293 16.184 C6.518 21.516 4.901 26.111 3 31 C2 28 2 28 3 25 C3.12 22.836 3.175 20.668 3.188 18.5 C3.195 17.928 3.195 17.928 3.23 15.031 C3 12 3 12 1 9 C0.875 5.812 0.875 5.812 1 3 C0.34 3 -0.32 3 -1 3 C-0.67 2.01 -0.34 1.02 0 0 Z " fill="#E19A2A" transform="translate(133,88)"/>
<path d="M0 0 C5.411 -0.361 5.411 -0.361 7.938 1.188 C9 3 9 3 8.938 5.312 C7.784 8.62 6.041 11.169 4 14 C2.967 11.212 2.955 10.132 3.938 7.25 C4.288 6.508 4.639 5.765 5 5 C4.175 4.67 4.175 4.67 0 3 C0 2.01 0 1.02 0 0 Z " fill="#8A5C2F" transform="translate(107,11)"/>
<path d="M0 0 C4.214 2.883 5.761 5.043 7 10 C-0.875 9.125 -0.875 9.125 -2 8 C-1.28 1.28 -1.28 1.28 0 0 Z " fill="#F8F6ED" transform="translate(106,58)"/>
<path d="M0 0 C-3.19 4.652 -7.026 7.47 -12 10 C-12.66 10 -13.32 10 -14 10 C-14 8.68 -14 7.36 -14 6 C-13.01 5.34 -12.02 4.68 -11 4 C-10.237 3.299 -9.474 2.597 -8.688 1.875 C-5.507 -0.344 -3.794 -0.353 0 0 Z " fill="#EEECE0" transform="translate(94,38)"/>
<path d="M0 0 C0.165 0.33 0.165 0.33 1 2 C-1.869 6.303 -5.046 6.965 -10 8 C-14.365 8.334 -18.689 8.286 -23.062 8.188 C-23.638 8.181 -23.638 8.181 -26.553 8.146 C-29.369 8.111 -32.184 8.062 -35 8 C-35 7.67 -35 7.34 -35 7 C-34.698 6.998 -34.698 6.998 -33.171 6.988 C-6.672 6.672 -6.672 6.672 0 0 Z " fill="#F3E4C8" transform="translate(101,138)"/>
<path d="M0 0 C4.464 3.125 6.79 6.401 9.375 11.062 C9.742 11.687 10.11 12.312 10.488 12.955 C11.413 14.59 12.216 16.293 13 18 C12.67 18.99 12.34 19.98 12 21 C9.79 17.422 7.845 13.778 6 10 C5.01 10 4.02 10 3 10 C2.691 8.907 2.381 7.814 2.062 6.688 C1.417 4.446 0.738 2.213 0 0 Z " fill="#5A7903" transform="translate(138,69)"/>
<path d="M0 0 C1.65 0.33 3.3 0.66 5 1 C5.33 2.65 5.66 4.3 6 6 C5.216 6.309 4.433 6.619 3.625 6.938 C1 8 1 8 -1 9 C-1.33 8.67 -1.66 8.34 -2 8 C-2.66 8.66 -3.32 9.32 -4 10 C-3.435 6.042 -2.191 3.334 0 0 Z " fill="#FCD841" transform="translate(101,75)"/>
<path d="M0 0 C0.825 0.33 0.825 0.33 5 2 C5.188 4.312 5.188 4.312 5 7 C3.562 8.625 3.562 8.625 2 10 C1.67 10.99 1.34 11.98 1 13 C-0.908 9.825 -1.161 7.894 -0.625 4.25 C-0.514 3.451 -0.403 2.652 -0.289 1.828 C-0.194 1.225 -0.098 0.622 0 0 Z " fill="#708B13" transform="translate(109,47)"/>
<path d="M0 0 C1.844 3.106 2.204 5.053 1.75 8.625 C1.706 9.013 1.706 9.013 1.484 10.977 C1 13 1 13 -1 15 C-1 13.35 -1 11.7 -1 10 C-1.66 11.65 -2.32 13.3 -3 15 C-4.229 11.485 -3.753 9.316 -2.625 5.812 C-2.349 4.932 -2.073 4.052 -1.789 3.145 C-1 1 -1 1 0 0 Z " fill="#896516" transform="translate(87,60)"/>
<path d="M0 0 C0 0.99 0 1.98 0 3 C-5.179 5.101 -9.696 5.303 -15.188 5.25 C-15.994 5.258 -16.8 5.265 -17.631 5.273 C-18.019 5.272 -18.019 5.272 -19.98 5.266 C-20.331 5.264 -20.331 5.264 -22.102 5.259 C-24 5 -24 5 -27 3 C-26.67 2.34 -26.34 1.68 -26 1 C-25.479 1.324 -24.958 1.647 -24.422 1.98 C-18.146 4.622 -9.416 3.879 -3.125 1.5 C-2.094 1.005 -1.062 0.51 0 0 Z " fill="#D7AF6C" transform="translate(84,139)"/>
<path d="M0 0 C0.66 0 1.32 0 2 0 C1.716 1.439 1.423 2.876 1.125 4.312 C0.963 5.113 0.8 5.914 0.633 6.738 C0 9 0 9 -2 12 C-3.32 12 -4.64 12 -6 12 C-4.434 7.692 -2.317 3.938 0 0 Z " fill="#E8E9CA" transform="translate(80,74)"/>
<path d="M0 0 C5.215 1.117 7.309 3.175 10.477 7.18 C12.709 9.847 15.271 11.855 18 14 C16.68 14.33 15.36 14.66 14 15 C13.325 14.252 12.649 13.505 11.953 12.734 C11.052 11.74 10.151 10.745 9.25 9.75 C8.368 8.775 7.487 7.801 6.578 6.797 C4.435 4.472 2.256 2.214 0 0 Z " fill="#6E7805" transform="translate(118,71)"/>
<path d="M0 0 C0.337 0.077 0.337 0.077 2.043 0.465 C5.469 1.085 8.839 1.335 12.312 1.562 C13.567 1.646 14.821 1.73 16.113 1.816 C16.59 1.847 16.59 1.847 19 2 C19 2.33 19 2.66 19 3 C12.374 4.359 5.593 4.701 -1 3 C-0.67 2.01 -0.34 1.02 0 0 Z " fill="#D8B884" transform="translate(103,130)"/>
<path d="M0 0 C3.553 5.861 2.747 13.6 1.324 20.074 C0.619 22.417 -0.133 24.713 -1 27 C-1.66 26.34 -2.32 25.68 -3 25 C-2.685 22.714 -1.977 20.953 -0.961 18.883 C0.29 15.13 0.216 11.592 0.125 7.688 C0.116 6.947 0.107 6.206 0.098 5.443 C0.074 3.629 0.038 1.814 0 0 Z " fill="#F0A91D" transform="translate(135,96)"/>
<path d="M0 0 C1.163 3.55 0.924 6.558 0.562 10.25 C0.461 11.328 0.359 12.405 0.254 13.516 C0.17 14.335 0.086 15.155 0 16 C-1.98 14.35 -3.96 12.7 -6 11 C-5.67 9.68 -5.34 8.36 -5 7 C-4.67 7.99 -4.34 8.98 -4 10 C-3.34 10.33 -2.68 10.66 -2 11 C-1.939 10.374 -1.879 9.747 -1.816 9.102 C-1.733 8.284 -1.649 7.467 -1.562 6.625 C-1.481 5.813 -1.4 5.001 -1.316 4.164 C-1 2 -1 2 0 0 Z " fill="#D29E2D" transform="translate(91,79)"/>
<path d="M0 0 C0.33 0 0.66 0 1 0 C1.481 1.895 1.959 3.791 2.438 5.688 C2.571 6.215 2.571 6.215 3.246 8.887 C3.899 11.583 4.479 14.276 5 17 C4.34 17.33 3.68 17.66 3 18 C2.34 15.36 1.68 12.72 1 10 C0.34 10 -0.32 10 -1 10 C-0.67 6.7 -0.34 3.4 0 0 Z " fill="#8F6530" transform="translate(99,48)"/>
<path d="M0 0 C1 2 1 2 0.062 5.125 C-0.288 6.074 -0.639 7.023 -1 8 C-1.33 7.34 -1.66 6.68 -2 6 C-2.687 6.433 -3.374 6.866 -4.082 7.312 C-4.533 7.591 -4.533 7.591 -6.812 9 C-7.259 9.278 -7.259 9.278 -9.52 10.688 C-12 12 -12 12 -15 12 C-15 11.34 -15 10.68 -15 10 C-13.824 9.464 -12.649 8.928 -11.438 8.375 C-7.031 6.191 -3.572 3.348 0 0 Z " fill="#7A4E1B" transform="translate(93,43)"/>
<path d="M0 0 C2.719 0.375 3.842 0.842 5.812 2.812 C7 5 7 5 6.688 7.25 C6.461 7.827 6.234 8.405 6 9 C6 8.34 6 7.68 6 7 C4.68 7 3.36 7 2 7 C2.33 5.68 2.66 4.36 3 3 C0.69 3.33 -1.62 3.66 -4 4 C-4.33 3.34 -4.66 2.68 -5 2 C-3.35 1.67 -1.7 1.34 0 1 C0 0.67 0 0.34 0 0 Z " fill="#995F1A" transform="translate(64,125)"/>
<path d="M0 0 C2.31 0 4.62 0 7 0 C7 0.33 7 0.66 7 1 C5.35 1.33 3.7 1.66 2 2 C2.99 2.99 3.98 3.98 5 5 C1.559 7.294 0.277 8 -4 8 C-4 7.01 -4 6.02 -4 5 C-3.01 4.67 -2.02 4.34 -1 4 C-0.312 1.938 -0.312 1.938 0 0 Z " fill="#6F3F13" transform="translate(122,121)"/>
<path d="M0 0 C0.33 0 0.66 0 1 0 C1.195 1.958 1.38 3.916 1.562 5.875 C1.667 6.966 1.771 8.056 1.879 9.18 C2 12 2 12 1 14 C1.99 14.33 2.98 14.66 4 15 C3.01 15.33 2.02 15.66 1 16 C0.34 15.67 -0.32 15.34 -1 15 C-1.027 13.063 -1.046 11.125 -1.062 9.188 C-1.074 8.109 -1.086 7.03 -1.098 5.918 C-1 3 -1 3 0 0 Z " fill="#ECAC1E" transform="translate(22,79)"/>
<path d="M0 0 C1.458 -0.054 2.916 -0.093 4.375 -0.125 C5.187 -0.148 5.999 -0.171 6.836 -0.195 C9 0 9 0 11 2 C5.727 5.223 5.727 5.223 4 6 C3.34 5.67 2.68 5.34 2 5 C2.33 4.34 2.66 3.68 3 3 C2.34 2.67 1.68 2.34 1 2 C0.67 1.34 0.34 0.68 0 0 Z " fill="#84A00B" transform="translate(65,33)"/>
<path d="M0 0 C0.66 0.33 1.32 0.66 2 1 C1.489 7.437 0.271 12.959 -2 19 C-2.33 19 -2.66 19 -3 19 C-3.251 13.486 -3.251 13.486 -2 11.062 C-0.547 8.066 -0.939 5.286 -1 2 C-0.67 1.34 -0.34 0.68 0 0 Z " fill="#71460F" transform="translate(101,33)"/>
<path d="M0 0 C0 0.66 0 1.32 0 2 C1.98 2.66 3.96 3.32 6 4 C6 4.33 6 4.66 6 5 C4.375 5.027 2.75 5.046 1.125 5.062 C0.673 5.068 0.673 5.068 -1.617 5.098 C-4 5 -4 5 -6 4 C-6 3.34 -6 2.68 -6 2 C-3 0 -3 0 0 0 Z " fill="#E69706" transform="translate(68,137)"/>
<path d="M0 0 C0.676 1.707 0.676 1.707 1 4 C-0.145 6.324 -0.145 6.324 -1.812 8.688 C-2.084 9.081 -2.084 9.081 -3.457 11.074 C-5 13 -5 13 -7 14 C-7 12.02 -7 10.04 -7 8 C-6.402 7.979 -5.804 7.959 -5.188 7.938 C-3 7 -3 7 -1.25 3.438 C-0.838 2.303 -0.425 1.169 0 0 Z " fill="#D59121" transform="translate(94,123)"/>
<path d="M0 0 C1.648 2.967 2.443 5.656 3 9 C2.01 8.67 1.02 8.34 0 8 C-0.33 8.495 -0.33 8.495 -2 11 C-2.66 11 -3.32 11 -4 11 C-3.525 9.353 -3.045 7.707 -2.562 6.062 C-2.296 5.146 -2.029 4.229 -1.754 3.285 C-1 1 -1 1 0 0 Z " fill="#E4DACD" transform="translate(95,57)"/>
<path d="M0 0 C0.124 0.598 0.248 1.196 0.375 1.812 C1 4 1 4 3 7 C0.36 6.67 -2.28 6.34 -5 6 C-5 4.35 -5 2.7 -5 1 C-3.35 0.67 -1.7 0.34 0 0 Z " fill="#809F0C" transform="translate(125,44)"/>
<path d="M0 0 C2.5 1.375 2.5 1.375 5 3 C5 3.66 5 4.32 5 5 C5.99 5.33 6.98 5.66 8 6 C6.312 6.688 6.312 6.688 4 7 C1.25 5.562 1.25 5.562 -1 4 C-0.67 2.68 -0.34 1.36 0 0 Z " fill="#ECD7B0" transform="translate(52,137)"/>
<path d="M0 0 C1 2 1 2 0.062 5.125 C-0.288 6.074 -0.639 7.023 -1 8 C-2.32 7.67 -3.64 7.34 -5 7 C-4.67 6.01 -4.34 5.02 -4 4 C-4.66 3.01 -5.32 2.02 -6 1 C-4.02 0.67 -2.04 0.34 0 0 Z " fill="#8A5519" transform="translate(129,121)"/>
<path d="M0 0 C0.66 0.33 0.66 0.33 4 2 C4 2.66 4 3.32 4 4 C5.32 3.67 6.64 3.34 8 3 C8.66 4.65 9.32 6.3 10 8 C9.422 7.814 8.845 7.629 8.25 7.438 C5.793 6.96 4.356 7.243 2 8 C1.856 7.051 1.711 6.103 1.562 5.125 C1 2 1 2 0 0 Z " fill="#844E11" transform="translate(24,97)"/>
<path d="M0 0 C0.99 0 1.98 0 3 0 C3.125 5.75 3.125 5.75 2 8 C1.01 7.835 1.01 7.835 -4 7 C-3.34 6.67 -2.68 6.34 -2 6 C-1.273 4.021 -0.602 2.02 0 0 Z " fill="#997B1C" transform="translate(80,80)"/>
<path d="M0 0 C0.99 0.99 1.98 1.98 3 3 C2.67 3.99 2.34 4.98 2 6 C0.02 6.33 -1.96 6.66 -4 7 C-3.436 3.73 -2.5 2.174 0 0 Z " fill="#93600E" transform="translate(103,65)"/>
<path d="M0 0 C2.448 3.673 4 6.546 4 11 C3.34 11.33 3.34 11.33 0 13 C0 8.71 0 4.42 0 0 Z " fill="#F0E8D6" transform="translate(80,58)"/>
<path d="M0 0 C2.125 3.188 2.502 5.265 3 9 C1.5 7.625 1.5 7.625 0 6 C0 5.34 0 4.68 0 4 C-0.99 4.66 -1.98 5.32 -3 6 C-5.688 5.625 -5.688 5.625 -8 5 C-5 4 -5 4 -3 4 C-3 3.34 -3 2.68 -3 2 C-2.01 1.34 -1.02 0.68 0 0 Z " fill="#7C9908" transform="translate(123,63)"/>
<path d="M0 0 C-0.33 0.495 -0.33 0.495 -2 3 C-2.66 3 -3.32 3 -4 3 C-4.33 3.66 -4.66 4.32 -5 5 C-6.32 4.67 -7.64 4.34 -9 4 C-8 1 -8 1 -6.188 -0.25 C-3.661 -1.116 -2.478 -0.885 0 0 Z " fill="#FBD94D" transform="translate(71,96)"/>
<path d="M0 0 C2.25 -0.375 2.25 -0.375 5 0 C7.312 3 7.312 3 9 6 C8.01 6.33 7.02 6.66 6 7 C4.35 5.35 2.7 3.7 1 2 C0.67 2.99 0.34 3.98 0 5 C0 3.35 0 1.7 0 0 Z " fill="#BE8324" transform="translate(22,94)"/>
<path d="M0 0 C0.66 0.33 1.32 0.66 2 1 C1.711 1.681 1.422 2.361 1.125 3.062 C-0.126 6.329 -1.074 9.628 -2 13 C-2.99 13 -3.98 13 -5 13 C-4.393 8.14 -2.272 4.259 0 0 Z " fill="#F2EFE6" transform="translate(109,26)"/>
<path d="M0 0 C1.65 1.65 3.3 3.3 5 5 C4.67 5.99 4.34 6.98 4 8 C2.68 7.67 1.36 7.34 0 7 C-0.934 3.99 -1.044 3.133 0 0 Z " fill="#7A7F21" transform="translate(103,37)"/>
<path d="M0 0 C0.99 0.165 0.99 0.165 6 1 C6.33 2.65 6.66 4.3 7 6 C4.062 5.25 4.062 5.25 1 4 C0.125 1.875 0.125 1.875 0 0 Z " fill="#83A209" transform="translate(72,26)"/>
<path d="M0 0 C2.64 0 5.28 0 8 0 C8 0.66 8 1.32 8 2 C8.99 2 9.98 2 11 2 C10.67 2.99 10.34 3.98 10 5 C9.01 5 8.02 5 7 5 C6.67 4.34 6.34 3.68 6 3 C4.021 2.273 2.02 1.602 0 1 C0 0.67 0 0.34 0 0 Z " fill="#EEA504" transform="translate(64,121)"/>
<path d="M0 0 C0.66 0.33 1.32 0.66 2 1 C2 1.99 2 2.98 2 4 C4.31 4 6.62 4 9 4 C8.67 4.66 8.34 5.32 8 6 C4.7 6 1.4 6 -2 6 C-1.34 5.67 -0.68 5.34 0 5 C0 3.35 0 1.7 0 0 Z " fill="#EAA012" transform="translate(35,103)"/>
<path d="M0 0 C0.99 0.33 1.98 0.66 3 1 C2.01 1 1.02 1 0 1 C0 0.67 0 0.34 0 0 Z M1 2 C1.33 2.66 1.66 3.32 2 4 C-1.63 4.33 -5.26 4.66 -9 5 C-9 4.34 -9 3.68 -9 3 C-5.785 1.393 -2.564 1.943 1 2 Z " fill="#668407" transform="translate(71,29)"/>
<path d="M0 0 C2 1 2 1 3.188 4.312 C3.906 7.576 4.203 8.993 3 12 C2.34 11.34 1.68 10.68 1 10 C0.67 10 0.34 10 0 10 C0 6.7 0 3.4 0 0 Z " fill="#F4B60A" transform="translate(91,83)"/>
<path d="M0 0 C3.291 1.135 3.996 1.993 5.75 5.125 C6.163 6.074 6.575 7.023 7 8 C3.205 6.509 1.39 4.243 -1 1 C-0.67 0.67 -0.34 0.34 0 0 Z " fill="#F2AC0A" transform="translate(50,130)"/>
<path d="M0 0 C2.97 0.33 5.94 0.66 9 1 C8.67 1.165 8.67 1.165 7 2 C7 2.66 7 3.32 7 4 C8.32 4.66 9.64 5.32 11 6 C7.611 6 6.602 5.356 3.812 3.562 C3.455 3.336 3.455 3.336 1.645 2.191 C1.102 1.798 0.559 1.405 0 1 C0 0.67 0 0.34 0 0 Z " fill="#587403" transform="translate(110,46)"/>
<path d="M0 0 C0.99 0.33 1.98 0.66 3 1 C1.35 4.63 -0.3 8.26 -2 12 C-2.33 12 -2.66 12 -3 12 C-2.492 7.682 -1.803 3.967 0 0 Z " fill="#9D611B" transform="translate(101,28)"/>
<path d="M0 0 C0.33 0 0.66 0 1 0 C0.67 2.97 0.34 5.94 0 9 C-0.99 8.67 -1.98 8.34 -3 8 C-1.125 1.125 -1.125 1.125 0 0 Z " fill="#82590B" transform="translate(85,80)"/>
<path d="M0 0 C0 0.66 0 1.32 0 2 C-1.959 3.393 -3.964 4.722 -6 6 C-6.495 6.33 -6.495 6.33 -9 8 C-9.33 7.01 -9.66 6.02 -10 5 C-8.712 4.161 -7.419 3.329 -6.125 2.5 C-5.406 2.036 -4.686 1.572 -3.945 1.094 C-2 0 -2 0 0 0 Z " fill="#FDDA40" transform="translate(47,57)"/>
<path d="M0 0 C2.106 1.708 2.938 2.521 3.293 5.262 C3.258 6.062 3.223 6.863 3.188 7.688 C3.16 8.496 3.133 9.304 3.105 10.137 C3.071 10.752 3.036 11.366 3 12 C0.505 9.505 0.641 8.327 0.375 4.875 C0.3 3.965 0.225 3.055 0.148 2.117 C0.099 1.419 0.05 0.72 0 0 Z " fill="#F9C315" transform="translate(92,79)"/>
<path d="M0 0 C0.33 0.99 0.66 1.98 1 3 C4.63 3 8.26 3 12 3 C12 3.33 12 3.66 12 4 C10.02 4.165 10.02 4.165 0 5 C-0.33 3.68 -0.66 2.36 -1 1 C-0.67 0.67 -0.34 0.34 0 0 Z " fill="#95A763" transform="translate(42,38)"/>
<path d="M0 0 C1.98 0 3.96 0 6 0 C6.33 1.32 6.66 2.64 7 4 C5.02 4 3.04 4 1 4 C0.67 2.68 0.34 1.36 0 0 Z " fill="#B77B32" transform="translate(107,11)"/>
<path d="M0 0 C0 0.66 0 1.32 0 2 C0.66 2.33 1.32 2.66 2 3 C0.515 3.165 0.515 3.165 -7 4 C-7 3.34 -7 2.68 -7 2 C-2.25 0 -2.25 0 0 0 Z " fill="#9A5E13" transform="translate(68,134)"/>
<path d="M0 0 C-1 2 -1 2 -3.066 2.852 C-3.478 2.979 -3.478 2.979 -5.562 3.625 C-5.976 3.755 -5.976 3.755 -8.066 4.414 C-8.704 4.607 -9.343 4.801 -10 5 C-9 2 -9 2 -7.25 0.812 C-4.7 -0.108 -2.691 -0.149 0 0 Z " fill="#FCD028" transform="translate(74,90)"/>
<path d="M0 0 C0.33 0 0.66 0 1 0 C1 2.64 1 5.28 1 8 C0.01 7.67 -0.98 7.34 -2 7 C-2.125 4.625 -2.125 4.625 -2 2 C-1.34 1.34 -0.68 0.68 0 0 Z " fill="#F7F4E9" transform="translate(88,82)"/>
<path d="M0 0 C0.66 0.99 1.32 1.98 2 3 C1.01 4.98 0.02 6.96 -1 9 C-1.99 8.34 -2.98 7.68 -4 7 C-2.68 4.69 -1.36 2.38 0 0 Z " fill="#F4E4C6" transform="translate(136,117)"/>
<path d="M0 0 C0.66 0.33 1.32 0.66 2 1 C2.625 3.562 2.625 3.562 3 6 C2.01 6 1.02 6 0 6 C-1 3 -1 3 0 0 Z " fill="#AA6D22" transform="translate(23,96)"/>
</svg>
