<?xml version="1.0" encoding="UTF-8"?>
<!-- Generator: visioncortex VTracer 0.6.12 -->
<svg version="1.1" xmlns="http://www.w3.org/2000/svg" width="157" height="190">
<path d="M0 0 C51.81 0 103.62 0 157 0 C157 62.7 157 125.4 157 190 C105.19 190 53.38 190 0 190 C0 127.3 0 64.6 0 0 Z " fill="#FDF8ED" transform="translate(0,0)"/>
<path d="M0 0 C1.833 0.079 3.666 0.139 5.5 0.188 C17.838 1.091 27.63 8.382 36 17 C36.561 17.54 37.121 18.08 37.699 18.637 C46.901 28.225 51.409 41.681 51.312 54.75 C51.308 55.534 51.304 56.318 51.3 57.126 C51.108 67.063 48.682 75.282 44 84 C44 84.66 44 85.32 44 86 C45.574 87.297 45.574 87.297 47.688 88.75 C51.499 91.511 54.155 94.261 57 98 C57.619 98.66 58.238 99.32 58.875 100 C60 102 60 102 60.062 105 C58.597 109.138 56.909 110.081 53 112 C50.298 112.577 47.771 112.809 45 113 C45 113.66 45 114.32 45 115 C32.132 115.941 19.336 116.123 6.438 116.062 C4.54 116.057 2.642 116.053 0.744 116.049 C-3.837 116.038 -8.419 116.021 -13 116 C-13 115.34 -13 114.68 -13 114 C-13.489 113.976 -13.489 113.976 -15.965 113.852 C-23.162 113.441 -30.003 112.841 -37 111 C-37 110.67 -37 110.34 -37 110 C-40.63 109.67 -44.26 109.34 -48 109 C-47.505 108.67 -47.505 108.67 -45 107 C-45.23 103.095 -45.397 100.697 -48 97.688 C-48.443 97.294 -48.887 96.901 -49.344 96.496 C-59.909 86.952 -67.613 75.436 -68.469 60.922 C-68.503 59.198 -68.513 57.474 -68.5 55.75 C-68.497 55.294 -68.497 55.294 -68.483 52.985 C-68.156 40.487 -63.791 30.743 -56 21 C-55.563 20.389 -55.126 19.778 -54.676 19.148 C-47.523 9.74 -35.933 3.76 -25 0 C-24.294 -0.245 -23.587 -0.49 -22.859 -0.742 C-15.063 -3.056 -7.569 -2.626 0 0 Z " fill="#FB9A7B" transform="translate(80,49)"/>
<path d="M0 0 C0.724 0.035 1.449 0.071 2.195 0.107 C5.909 0.337 7.844 0.583 11 2.688 C9.952 2.725 8.904 2.762 7.824 2.801 C6.445 2.866 5.066 2.933 3.688 3 C3.342 3.011 3.342 3.011 1.596 3.068 C-3.587 3.344 -3.587 3.344 -5.855 5.23 C-6.233 5.711 -6.611 6.192 -7 6.688 C-7.66 6.688 -8.32 6.688 -9 6.688 C-8.82 6.974 -8.82 6.974 -7.91 8.426 C-7 10.688 -7 10.688 -7.434 12.73 C-9.86 17.914 -12.763 22.174 -16.383 26.602 C-18.381 29.179 -19.701 31.708 -21 34.688 C-21.66 34.688 -22.32 34.688 -23 34.688 C-23.463 36.165 -23.92 37.645 -24.375 39.125 C-24.63 39.949 -24.885 40.772 -25.148 41.621 C-27.251 49.191 -28.389 56.185 -28.375 64.062 C-28.374 64.981 -28.373 65.899 -28.372 66.845 C-28.257 73.46 -27.754 80.012 -24 85.688 C-23.505 85.852 -23.505 85.852 -21 86.688 C-19.605 88.727 -19.605 88.727 -18.188 91.312 C-15.529 95.949 -12.599 99.746 -9 103.688 C-21.329 103.644 -30.649 99.612 -39.477 91.008 C-41 89.688 -41 89.688 -43 89.688 C-53.374 75.863 -55.446 62.613 -54 45.688 C-52.393 36.501 -47.742 28.869 -42 21.688 C-41.563 21.076 -41.126 20.465 -40.676 19.836 C-31.702 8.033 -14.654 -0.952 0 0 Z " fill="#FB9E7F" transform="translate(66,48.3125)"/>
<path d="M0 0 C6.165 1.145 11.612 7.84 15.273 12.73 C16.814 15.958 16.428 17.113 15.586 20.48 C14.859 20.651 14.132 20.821 13.383 20.996 C7.986 22.297 2.792 23.733 -2.414 25.668 C-12.03 28.927 -22.015 28.398 -31.414 24.48 C-33.223 22.875 -33.223 22.875 -34.414 21.48 C-33.519 21.129 -32.625 20.777 -31.703 20.414 C-20.862 15.987 -12.12 10.923 -4.301 1.984 C-2.414 0.48 -2.414 0.48 0 0 Z " fill="#436806" transform="translate(123.4140625,135.51953125)"/>
<path d="M0 0 C1.036 0.566 2.073 1.132 3.141 1.715 C4.51 2.456 5.88 3.197 7.25 3.938 C7.591 4.124 7.591 4.124 9.316 5.068 C9.98 5.426 10.644 5.784 11.328 6.152 C11.936 6.482 12.543 6.812 13.169 7.152 C18.068 9.421 23.205 9.282 28.516 9.523 C31.434 9.923 33.228 10.43 35.867 11.543 C40.309 13.323 44.159 13.192 48.875 12.938 C55.237 12.751 60.165 13.084 65.957 16.027 C73.742 19.734 83.46 18.776 91.375 16.125 C93.254 15.426 95.129 14.718 97 14 C101.243 12.48 104.474 11.784 109 12 C106.228 15.08 103.997 16.83 100 18 C97.188 18.125 97.188 18.125 95 18 C95 18.66 95 19.32 95 20 C82.132 20.941 69.336 21.123 56.438 21.062 C54.54 21.057 52.642 21.053 50.744 21.049 C46.163 21.038 41.581 21.021 37 21 C37 20.34 37 19.68 37 19 C36.022 18.951 35.043 18.902 34.035 18.852 C26.838 18.441 19.997 17.841 13 16 C13 15.67 13 15.34 13 15 C9.37 14.67 5.74 14.34 2 14 C2.99 13.34 3.98 12.68 5 12 C4.505 5.444 4.505 5.444 1.938 3.188 C1.298 2.796 0.659 2.404 0 2 C0 1.34 0 0.68 0 0 Z " fill="#E9D0AA" transform="translate(30,144)"/>
<path d="M0 0 C0.99 0.33 1.98 0.66 3 1 C2.175 1.495 2.175 1.495 -2 4 C-1.835 4.66 -1.835 4.66 -1 8 C-1.701 8.352 -2.403 8.704 -3.125 9.066 C-17.927 16.769 -26.582 27.13 -32 43 C-33.836 49.13 -34.308 54.618 -34.25 61 C-34.254 61.425 -34.254 61.425 -34.273 63.578 C-34.248 71.911 -32.395 78.637 -28.707 86.117 C-28.474 86.739 -28.24 87.36 -28 88 C-28.165 88.33 -28.165 88.33 -29 90 C-29.66 88.845 -29.66 88.845 -33 83 C-33.99 83 -34.98 83 -36 83 C-42.328 69.356 -42.075 52.036 -37 38 C-36.085 35.602 -35.107 33.319 -34 31 C-33.34 31 -32.68 31 -32 31 C-31.814 30.196 -31.629 29.391 -31.438 28.562 C-30.101 25.249 -28.851 23.405 -26.625 20.688 C-23.56 16.935 -21.614 13.374 -19.922 8.848 C-19 7 -19 7 -16 5 C-12.696 4.148 -9.372 3.473 -6.031 2.781 C-3 2 -3 2 0 0 Z " fill="#E6523F" transform="translate(77,52)"/>
<path d="M0 0 C5.165 2.398 8.741 5.28 12 10 C12.75 12.812 12.75 12.812 13 15 C12.024 15.266 11.048 15.531 10.043 15.805 C7.25 16.6 4.527 17.508 1.801 18.508 C-10.495 22.979 -20.148 24.427 -33 21 C-33 20.67 -33 20.34 -33 20 C-32.56 19.957 -32.56 19.957 -30.332 19.738 C-19.449 18.422 -19.449 18.422 -15 13 C-12.77 12.445 -12.77 12.445 -10 12 C-7.893 11.49 -5.789 10.969 -3.688 10.438 C-2.619 10.168 -1.55 9.899 -0.449 9.621 C0.359 9.416 1.167 9.211 2 9 C0.68 8.34 -0.64 7.68 -2 7 C-1.67 6.216 -1.34 5.433 -1 4.625 C0 2 0 2 0 0 Z " fill="#698A10" transform="translate(127,140)"/>
<path d="M0 0 C6 2 6 2 8.812 3.043 C13.082 4.325 17.153 4.391 21.586 4.559 C24.485 4.933 26.239 5.433 28.859 6.539 C33.305 8.321 37.154 8.192 41.875 7.938 C48.237 7.751 53.165 8.084 58.957 11.027 C61.28 12.133 63.471 12.581 66 13 C66 13.33 66 13.66 66 14 C61.566 14.164 57.723 14.02 53.402 12.996 C47.865 11.842 42.573 11.806 36.938 11.938 C35.072 11.972 33.206 12.002 31.34 12.027 C30.934 12.036 30.934 12.036 28.883 12.082 C27 12 27 12 26 11 C24.426 10.643 22.84 10.34 21.25 10.062 C20.266 9.89 19.283 9.717 18.27 9.539 C13.739 8.792 9.198 8.119 4.652 7.465 C2 7 2 7 0 6 C0 4.02 0 2.04 0 0 Z " fill="#D6B688" transform="translate(37,149)"/>
<path d="M0 0 C1.168 1.621 1.168 1.621 2 4 C0.988 6.848 0.988 6.848 -0.688 10.062 C-7.588 24.273 -8.215 37.497 -6 53 C-5.34 53 -4.68 53 -4 53 C-3.136 54.787 -2.284 56.58 -1.438 58.375 C-1.2 58.874 -1.2 58.874 0.004 61.398 C0.333 62.257 0.661 63.115 1 64 C0.835 64.33 0.835 64.33 0 66 C-1.32 63.69 -2.64 61.38 -4 59 C-4.99 59 -5.98 59 -7 59 C-13.328 45.356 -13.075 28.036 -8 14 C-7.085 11.602 -6.107 9.319 -5 7 C-4.34 7 -3.68 7 -3 7 C-2.691 6.031 -2.381 5.061 -2.062 4.062 C-1 1 -1 1 0 0 Z " fill="#F45F4F" transform="translate(48,76)"/>
<path d="M0 0 C-2.609 3.211 -5.516 4.028 -9.375 5.312 C-15.061 7.385 -17.593 9.117 -21 14 C-21.99 14 -22.98 14 -24 14 C-30.017 18.531 -36.115 25.818 -37.688 33.25 C-37.739 33.704 -37.739 33.704 -38 36 C-38.474 36.743 -38.949 37.485 -39.438 38.25 C-43.205 44.881 -43.24 52.553 -43 60 C-43.99 60 -44.98 60 -46 60 C-46 53.07 -46 46.14 -46 39 C-45.34 39.33 -44.68 39.66 -44 40 C-43.792 39.322 -43.585 38.644 -43.371 37.945 C-38.894 24.421 -29.899 12.555 -17.312 5.562 C-15.553 4.686 -13.782 3.83 -12 3 C-11.316 2.661 -10.631 2.322 -9.926 1.973 C-6.51 0.365 -3.774 -0.343 0 0 Z M-23 14 C-23 14.99 -23 15.98 -23 17 C-23.33 17.165 -23.33 17.165 -25 18 C-24.34 16.68 -23.68 15.36 -23 14 Z " fill="#FBB89B" transform="translate(59,51)"/>
<path d="M0 0 C4.725 -0.201 8.666 0.307 13.246 1.422 C19.096 2.65 25.071 3.266 31 4 C31 4.66 31 5.32 31 6 C32.158 5.97 33.316 5.939 34.51 5.908 C38.886 5.794 43.262 5.683 47.638 5.573 C49.517 5.525 51.397 5.476 53.276 5.427 C64.854 5.124 76.418 4.926 88 5 C88 5.33 88 5.66 88 6 C80.744 7.171 73.712 8.184 66.355 8.004 C63.885 8 61.516 8.219 59.062 8.5 C40.006 10.535 18.038 7.527 0 1 C0 0.67 0 0.34 0 0 Z " fill="#F6E5C8" transform="translate(36,159)"/>
<path d="M0 0 C0.461 0.364 0.923 0.727 1.398 1.102 C11.052 8.542 19.495 14 32 14 C29.69 11.69 27.38 9.38 25 7 C25.33 6.34 25.66 5.68 26 5 C26.366 5.436 26.732 5.871 27.109 6.32 C33.508 13.359 40.528 17.818 50.164 18.512 C52.025 18.572 53.888 18.61 55.75 18.625 C56.194 18.63 56.194 18.63 58.438 18.658 C63.827 18.541 67.661 17.623 72.317 14.877 C74.589 13.693 76.488 13.686 79 14 C72.71 20.29 63.175 21.477 54.688 21.5 C53.948 21.506 53.208 21.512 52.445 21.518 C47.777 21.413 44.173 20.453 39.873 18.677 C37.13 17.685 34.525 17.625 31.625 17.562 C20.7 16.907 9.839 11.855 1.875 4.25 C0 2 0 2 0 0 Z " fill="#DA774B" transform="translate(24,137)"/>
<path d="M0 0 C10.368 4.778 15.838 15.663 20.172 25.719 C24.286 38.293 23.343 54.426 17.91 66.402 C16.957 68.277 15.981 70.14 15 72 C15 72.99 15 73.98 15 75 C14.175 75.33 14.175 75.33 10 77 C11.632 72.747 13.635 68.805 15.781 64.793 C18.708 58.085 19.337 51.845 19.25 44.625 C19.241 43.785 19.232 42.945 19.223 42.08 C18.932 26.548 13.732 15.226 2.82 3.926 C1 2 1 2 0 0 Z " fill="#E57C60" transform="translate(109,61)"/>
<path d="M0 0 C5.009 1.473 7.518 4.275 11 8 C10.67 8.99 10.34 9.98 10 11 C8.763 9.47 7.526 7.94 6.289 6.41 C5 5 5 5 3 4 C3.206 4.598 3.412 5.196 3.625 5.812 C4 8 4 8 2 11 C3.65 11.66 5.3 12.32 7 13 C7 13.33 7 13.66 7 14 C6.596 14.061 6.596 14.061 4.551 14.367 C3.482 14.535 2.414 14.702 1.312 14.875 C0.257 15.037 -0.799 15.2 -1.887 15.367 C-4.806 15.961 -7.273 16.826 -10 18 C-11.327 18.359 -12.658 18.702 -14 19 C-14 16.69 -14 14.38 -14 12 C-12.185 11.835 -12.185 11.835 -3 11 C-3.33 10.01 -3.66 9.02 -4 8 C-3.34 8 -2.68 8 -2 8 C-2 7.34 -2 6.68 -2 6 C-1.34 6 -0.68 6 0 6 C0 4.02 0 2.04 0 0 Z " fill="#537805" transform="translate(124,136)"/>
<path d="M0 0 C0.382 0.113 0.382 0.113 2.312 0.688 C2.039 7.241 -0.5 10.757 -4.688 15.688 C-6.337 15.358 -7.987 15.028 -9.688 14.688 C-9.117 8.868 -7.719 5.458 -4.312 0.812 C-2.688 -0.312 -2.688 -0.312 0 0 Z " fill="#FC9F89" transform="translate(67.6875,74.3125)"/>
<path d="M0 0 C2 3 2 3 3 5 C3.99 5.33 4.98 5.66 6 6 C7.395 8.039 7.395 8.039 8.812 10.625 C11.471 15.262 14.401 19.058 18 23 C14.04 22.67 10.08 22.34 6 22 C6 19.36 6 16.72 6 14 C5.34 14 4.68 14 4 14 C-0.592 4.59 -0.592 4.59 0 0 Z " fill="#F29F69" transform="translate(39,129)"/>
<path d="M0 0 C-0.417 0.182 -0.417 0.182 -2.527 1.102 C-19.437 8.656 -31.576 18.117 -39.098 35.543 C-39.783 37.343 -40.401 39.169 -41 41 C-41.33 41 -41.66 41 -42 41 C-41.197 28.688 -33.126 18.391 -24.137 10.48 C-7.315 -2.676 -7.315 -2.676 0 0 Z " fill="#F19073" transform="translate(56,51)"/>
<path d="M0 0 C0.66 0 1.32 0 2 0 C2.24 2.885 2.182 4.637 0.875 7.25 C-3.028 10.893 -8.867 10.153 -13.949 10.328 C-16.515 9.918 -17.371 8.965 -19 7 C-14.85 5.888 -10.973 4.951 -6.688 4.625 C-3 4 -3 4 -1.125 1.938 C-0.754 1.298 -0.382 0.659 0 0 Z " fill="#4B7006" transform="translate(108,150)"/>
<path d="M0 0 C0.629 0.133 1.258 0.266 1.906 0.402 C6.117 1.271 10.288 2.082 14.562 2.562 C18 3 18 3 19 4 C20.615 4.063 22.232 4.059 23.848 4.027 C24.846 4.015 25.844 4.003 26.873 3.99 C28.972 3.956 31.071 3.917 33.17 3.873 C39.17 3.808 44.254 4.241 50 6 C50 6.33 50 6.66 50 7 C39.915 7.207 29.928 7.089 19.875 6.188 C19.024 6.117 18.173 6.047 17.296 5.975 C11.662 5.422 6.159 4.43 1 2 C0.67 1.34 0.34 0.68 0 0 Z " fill="#DEC195" transform="translate(45,156)"/>
<path d="M0 0 C3 2 3 2 3.73 5.039 C3.881 6.222 4.032 7.406 4.188 8.625 C4.267 9.219 4.267 9.219 4.668 12.227 C4.778 13.142 4.887 14.057 5 15 C5.66 15 6.32 15 7 15 C7.864 16.787 8.716 18.58 9.562 20.375 C9.8 20.874 9.8 20.874 11.004 23.398 C11.333 24.257 11.661 25.115 12 26 C11.67 26.66 11.34 27.32 11 28 C9.68 25.69 8.36 23.38 7 21 C6.01 21 5.02 21 4 21 C1.255 13.759 -0.518 7.768 0 0 Z " fill="#ED7955" transform="translate(37,114)"/>
<path d="M0 0 C1.155 0.66 1.155 0.66 7 4 C7 6.31 7 8.62 7 11 C7.598 11.052 7.598 11.052 10.625 11.312 C14.596 11.802 17.47 13.082 21 15 C22.989 15.7 24.986 16.377 27 17 C27 17.33 27 17.66 27 18 C25.416 17.885 23.833 17.758 22.25 17.625 C21.368 17.555 20.487 17.486 19.578 17.414 C17 17 17 17 15.031 16 C12.416 14.712 10.148 14.582 7.25 14.375 C6.265 14.3 5.28 14.225 4.266 14.148 C3.518 14.099 2.77 14.05 2 14 C2.99 13.34 3.98 12.68 5 12 C4.505 5.444 4.505 5.444 1.938 3.188 C1.298 2.796 0.659 2.404 0 2 C0 1.34 0 0.68 0 0 Z " fill="#EBD0AB" transform="translate(30,144)"/>
<path d="M0 0 C-2.628 3.35 -5.436 3.822 -9.5 4.688 C-10.645 4.939 -11.789 5.19 -12.969 5.449 C-16 6 -16 6 -19 6 C-19.33 5.01 -19.66 4.02 -20 3 C-14.209 -0.86 -6.762 -0.141 0 0 Z " fill="#FB7D69" transform="translate(77,52)"/>
<path d="M0 0 C-3.588 4.73 -8.393 5.925 -14 7 C-17.354 7.214 -20.646 7.193 -24 7 C-20.488 5.13 -16.857 3.747 -13.125 2.375 C-11.931 1.929 -10.738 1.483 -9.508 1.023 C-6.124 0.036 -3.497 -0.203 0 0 Z " fill="#D3C395" transform="translate(139,156)"/>
<path d="M0 0 C2.981 1.158 5.827 2.004 9 2.5 C9 2.83 9 3.16 9 3.5 C2.408 3.749 -3.547 2.787 -10 1.5 C-12.062 1.121 -14.124 0.746 -16.188 0.375 C-17.792 0.083 -19.396 -0.208 -21 -0.5 C-21 -0.83 -21 -1.16 -21 -1.5 C-19.105 -1.696 -17.209 -1.882 -15.312 -2.062 C-14.785 -2.115 -14.785 -2.115 -12.113 -2.379 C-7.668 -2.552 -4.091 -1.65 0 0 Z " fill="#CDAC7B" transform="translate(94,159.5)"/>
<path d="M0 0 C0 0.99 0 1.98 0 3 C-0.33 3.33 -0.66 3.66 -1 4 C-0.01 4.66 0.98 5.32 2 6 C-0.31 6 -2.62 6 -5 6 C-5 6.66 -5 7.32 -5 8 C-6.664 10.436 -7.505 11.551 -10 13 C-13.996 13.727 -17.943 13.929 -22 14 C-19.927 11.927 -18.614 11.326 -15.938 10.25 C-10.113 7.743 -4.506 4.506 0 0 Z " fill="#585415" transform="translate(115,142)"/>
<path d="M0 0 C-2.609 3.211 -5.516 4.028 -9.375 5.312 C-14.954 7.352 -17.852 8.987 -21 14 C-21 11 -21 11 -19 9 C-19.33 8.34 -19.66 7.68 -20 7 C-18.064 6.018 -16.126 5.04 -14.188 4.062 C-13.109 3.517 -12.03 2.972 -10.918 2.41 C-7.033 0.533 -4.276 -0.116 0 0 Z M-23 14 C-23 14.99 -23 15.98 -23 17 C-23.33 17.165 -23.33 17.165 -25 18 C-24.34 16.68 -23.68 15.36 -23 14 Z " fill="#FCAD93" transform="translate(59,51)"/>
<path d="M0 0 C-0.299 3.108 -0.948 3.955 -3.363 6.035 C-3.85 6.37 -3.85 6.37 -6.312 8.062 C-7.278 8.734 -8.244 9.406 -9.238 10.098 C-10.15 10.725 -11.061 11.353 -12 12 C-13.339 12.993 -14.675 13.989 -16 15 C-14.369 11.151 -11.893 8.355 -9.125 5.25 C-8.261 4.265 -7.398 3.28 -6.508 2.266 C-4 0 -4 0 0 0 Z " fill="#DE4437" transform="translate(71,59)"/>
<path d="M0 0 C0.66 0 1.32 0 2 0 C1.015 2.198 0.187 3.821 -1.562 5.5 C-3 7 -3 7 -3.5 9.125 C-3.665 9.744 -3.83 10.362 -4 11 C-4.99 11.33 -5.98 11.66 -7 12 C-7.66 12.66 -8.32 13.32 -9 14 C-9.33 12.35 -9.66 10.7 -10 9 C-9.362 8.518 -8.724 8.036 -8.066 7.539 C-7.24 6.907 -6.414 6.276 -5.562 5.625 C-4.739 4.999 -3.915 4.372 -3.066 3.727 C-1 2 -1 2 0 0 Z " fill="#EE5041" transform="translate(59,65)"/>
<path d="M0 0 C-0.33 0.165 -0.33 0.165 -2 1 C-2 1.66 -2 2.32 -2 3 C-5.397 5.091 -8.043 5.421 -12 5 C-13.875 3.5 -13.875 3.5 -15 2 C-9.775 0.533 -5.419 -0.226 0 0 Z " fill="#3E5808" transform="translate(104,155)"/>
<path d="M0 0 C0.66 1.32 1.32 2.64 2 4 C-0.292 6.673 -2.002 7.51 -5.438 8.188 C-6.199 8.346 -6.961 8.505 -7.746 8.668 C-10 9 -10 9 -14 9 C-14 8.34 -14 7.68 -14 7 C-12.35 6.505 -12.35 6.505 -4 4 C-4 3.34 -4 2.68 -4 2 C-2.68 2 -1.36 2 0 2 C0 1.34 0 0.68 0 0 Z " fill="#F1E3C8" transform="translate(139,155)"/>
<path d="M0 0 C7.434 -0.335 13.199 -0.139 20 3 C17.153 4.936 15.846 4.99 12.312 4.75 C11.219 4.502 10.126 4.255 9 4 C8.67 3.34 8.34 2.68 8 2 C6.152 1.586 6.152 1.586 3.938 1.375 C2.638 1.251 1.339 1.127 0 1 C0 0.67 0 0.34 0 0 Z " fill="#CFA577" transform="translate(50,154)"/>
<path d="M0 0 C-1 2 -1 2 -3.375 3.25 C-6 5 -6 5 -7.438 7.875 C-9.395 11.79 -11.537 13.383 -15 16 C-13.993 13.831 -12.999 11.998 -11.5 10.125 C-10 8 -10 8 -9 4.875 C-7.315 0.03 -4.684 -0.253 0 0 Z " fill="#F76250" transform="translate(66,57)"/>
<path d="M0 0 C0.33 0 0.66 0 1 0 C1.853 3.674 2.108 7.045 2.062 10.812 C2.053 11.788 2.044 12.764 2.035 13.77 C2.024 14.506 2.012 15.242 2 16 C1.01 15.34 0.02 14.68 -1 14 C-1.328 11.25 -1.328 11.25 -1.25 8 C-1.235 6.927 -1.219 5.855 -1.203 4.75 C-1 2 -1 2 0 0 Z " fill="#F66A55" transform="translate(38,100)"/>
<path d="M0 0 C2.438 0.75 2.438 0.75 5 2 C5.688 4.062 5.688 4.062 6 6 C6.66 6.33 7.32 6.66 8 7 C2.25 7.125 2.25 7.125 0 6 C0 4.02 0 2.04 0 0 Z " fill="#E1BE95" transform="translate(37,149)"/>
<path d="M0 0 C3.63 0 7.26 0 11 0 C8.883 2.431 7.465 3.845 4.375 4.875 C3.591 4.916 2.808 4.957 2 5 C1.34 4.34 0.68 3.68 0 3 C0 2.01 0 1.02 0 0 Z " fill="#F8A18A" transform="translate(81,50)"/>
<path d="M0 0 C0.578 0.237 0.578 0.237 3.5 1.438 C6.512 2.587 9.23 3.249 12.438 3.562 C13.613 3.707 14.789 3.851 16 4 C16.33 4.66 16.66 5.32 17 6 C14.728 5.913 12.458 5.805 10.188 5.688 C8.923 5.629 7.658 5.571 6.355 5.512 C3 5 3 5 1.051 3.582 C0 2 0 2 0 0 Z " fill="#D3AF80" transform="translate(42,151)"/>
<path d="M0 0 C5.009 1.473 7.518 4.275 11 8 C10.67 8.99 10.34 9.98 10 11 C8.763 9.47 7.526 7.94 6.289 6.41 C5 5 5 5 3 4 C2.67 4.66 2.34 5.32 2 6 C1.34 6 0.68 6 0 6 C0 4.02 0 2.04 0 0 Z " fill="#5D7A16" transform="translate(124,136)"/>
<path d="M0 0 C0.366 0.002 0.366 0.002 2.217 0.014 C3.999 0.025 5.781 0.043 7.562 0.062 C7.562 0.393 7.562 0.722 7.562 1.062 C-0.374 2.429 -7.463 3.437 -15.438 2.062 C-15.438 1.732 -15.438 1.403 -15.438 1.062 C-10.236 0.194 -5.268 -0.063 0 0 Z " fill="#F8E8CE" transform="translate(116.4375,163.9375)"/>
<path d="M0 0 C0.99 0.33 1.98 0.66 3 1 C2.361 1.557 1.721 2.114 1.062 2.688 C-1.197 5.221 -1.631 6.683 -2 10 C-3.32 9.67 -4.64 9.34 -6 9 C-4.473 5.564 -2.401 2.881 0 0 Z " fill="#FC927B" transform="translate(45,60)"/>
<path d="M0 0 C-4.29 0.66 -8.58 1.32 -13 2 C-13.33 1.01 -13.66 0.02 -14 -1 C-12.419 -1.223 -10.835 -1.428 -9.25 -1.625 C-8.368 -1.741 -7.487 -1.857 -6.578 -1.977 C-4 -2 -4 -2 0 0 Z " fill="#5E8005" transform="translate(131,150)"/>
<path d="M0 0 C2 3 2 3 3 5 C3.99 5.33 4.98 5.66 6 6 C6.33 6.99 6.66 7.98 7 9 C6.01 9.33 5.02 9.66 4 10 C3.67 9.01 3.34 8.02 3 7 C2.34 7 1.68 7 1 7 C0.67 4.69 0.34 2.38 0 0 Z " fill="#F39362" transform="translate(39,129)"/>
<path d="M0 0 C0.99 0.33 1.98 0.66 3 1 C1 4 1 4 -1 6 C-3.125 5.625 -3.125 5.625 -5 5 C-3.35 3.35 -1.7 1.7 0 0 Z " fill="#515F0E" transform="translate(121,136)"/>
<path d="M0 0 C0.33 0.99 0.66 1.98 1 3 C-1.31 4.65 -3.62 6.3 -6 8 C-4.557 4.634 -2.667 2.49 0 0 Z " fill="#FDA389" transform="translate(36,67)"/>
<path d="M0 0 C2 3 2 3 2 6 C0.35 5.67 -1.3 5.34 -3 5 C-1.125 1.125 -1.125 1.125 0 0 Z " fill="#75981C" transform="translate(135,145)"/>
<path d="M0 0 C0.33 0.66 0.66 1.32 1 2 C0.67 2.66 0.34 3.32 0 4 C0.99 4.33 1.98 4.66 3 5 C1.02 5 -0.96 5 -3 5 C-3 4.01 -3 3.02 -3 2 C-2.01 1.34 -1.02 0.68 0 0 Z " fill="#F6B178" transform="translate(45,145)"/>
<path d="M0 0 C0.66 0 1.32 0 2 0 C1.812 1.812 1.812 1.812 1 4 C-1.438 5.812 -1.438 5.812 -4 7 C-4.66 6.67 -5.32 6.34 -6 6 C-5.196 5.381 -4.391 4.763 -3.562 4.125 C-1 2 -1 2 0 0 Z " fill="#D2372B" transform="translate(69,59)"/>
</svg>
