<?xml version="1.0" encoding="UTF-8"?>
<!-- Generator: visioncortex VTracer 0.6.12 -->
<svg version="1.1" xmlns="http://www.w3.org/2000/svg" width="175" height="190">
<path d="M0 0 C57.75 0 115.5 0 175 0 C175 62.7 175 125.4 175 190 C117.25 190 59.5 190 0 190 C0 127.3 0 64.6 0 0 Z " fill="#FCF7EA" transform="translate(0,0)"/>
<path d="M0 0 C0 6.93 0 13.86 0 21 C1.485 20.175 1.485 20.175 9 16 C13.62 13.574 17.899 13.8 23 14 C23.165 14.825 23.165 14.825 24 19 C23.553 19.329 23.105 19.657 22.645 19.996 C17.581 23.98 14.784 28.227 12 34 C12.471 33.983 12.471 33.983 14.852 33.895 C15.474 33.881 15.474 33.881 18.625 33.812 C19.855 33.778 21.085 33.743 22.352 33.707 C26.264 34.021 28.641 35.031 32 37 C32 38.32 32 39.64 32 41 C31.433 41.082 31.433 41.082 28.562 41.5 C22.788 42.884 19.101 46.918 15 51 C16.052 51.248 17.104 51.495 18.188 51.75 C21.821 52.791 24.295 54.295 27 57 C27 57.99 27 58.98 27 60 C23.7 60 20.4 60 17 60 C17.165 60.66 17.165 60.66 18 64 C17.196 64.289 16.391 64.578 15.562 64.875 C13 66 13 66 12 68 C14.31 68 16.62 68 19 68 C19.33 69.32 19.66 70.64 20 72 C18.35 72.33 18.35 72.33 10 74 C10 74.66 10 75.32 10 76 C11.466 77.2 12.934 78.398 14.41 79.586 C18.792 83.484 20.823 88.712 23 94 C23.33 94.33 23.66 94.66 24 95 C24.324 97.84 24.513 100.681 24.719 103.531 C25 106 25 106 26 107 C26.313 111.472 26.279 115.956 26.312 120.438 C26.342 121.685 26.371 122.932 26.4 124.217 C26.454 132.098 25.453 137.935 22 145 C21.588 146.155 21.175 147.31 20.75 148.5 C15.446 159.108 7.837 165.525 -3.164 169.641 C-8.288 171.291 -13.091 171.41 -18.438 171.312 C-19.315 171.316 -20.192 171.319 -21.096 171.322 C-34.774 171.211 -47.024 167.711 -57 158 C-66.16 147.654 -69.837 133.602 -69.207 119.891 C-68.952 117.559 -68.471 115.297 -68 113 C-68.028 111.521 -68.071 110.041 -68.125 108.562 C-68.175 104.261 -67.128 101.783 -65 98 C-64.587 96.63 -64.193 95.254 -63.812 93.875 C-60.916 84.928 -55.314 76.549 -47 72 C-44.063 71.188 -44.063 71.188 -42 71 C-45.117 67.735 -47.632 65.823 -52.188 65.375 C-52.817 65.313 -52.817 65.313 -56 65 C-57 62 -57 62 -56.223 60.176 C-55.686 59.313 -55.686 59.313 -53 55 C-51.35 55 -49.7 55 -48 55 C-48 54.34 -48 53.68 -48 53 C-48.846 52.732 -49.691 52.464 -50.562 52.188 C-54.139 50.952 -57.539 49.523 -61 48 C-60.688 46.125 -60.688 46.125 -60 44 C-56.579 41.719 -55.318 41.781 -51.312 41.875 C-50.319 41.893 -49.325 41.911 -48.301 41.93 C-47.921 41.941 -47.921 41.941 -46 42 C-49.675 34.792 -53.859 30.991 -61 27 C-60.34 25.68 -59.68 24.36 -59 23 C-50.688 22.537 -44.3 22.774 -37 27 C-38.607 20.74 -40.608 15.461 -44.109 10.008 C-45.194 7.563 -44.906 6.464 -44 4 C-36.75 4.315 -30.442 7.526 -25.32 12.695 C-24.174 14.099 -23.082 15.546 -22 17 C-21.34 17.33 -20.68 17.66 -20 18 C-19.907 17.67 -19.907 17.67 -19.438 16 C-15.89 8.597 -8.613 0 0 0 Z " fill="#ED9C03" transform="translate(103,15)"/>
<path d="M0 0 C0 6.93 0 13.86 0 21 C1.485 20.175 1.485 20.175 9 16 C13.62 13.574 17.899 13.8 23 14 C23.165 14.825 23.165 14.825 24 19 C23.553 19.329 23.105 19.657 22.645 19.996 C17.581 23.98 14.784 28.227 12 34 C12.471 33.983 12.471 33.983 14.852 33.895 C15.474 33.881 15.474 33.881 18.625 33.812 C19.855 33.778 21.085 33.743 22.352 33.707 C26.264 34.021 28.641 35.031 32 37 C32 38.32 32 39.64 32 41 C31.433 41.082 31.433 41.082 28.562 41.5 C22.788 42.884 19.101 46.918 15 51 C16.052 51.248 17.104 51.495 18.188 51.75 C21.821 52.791 24.295 54.295 27 57 C27 57.99 27 58.98 27 60 C23.7 60 20.4 60 17 60 C17.165 60.66 17.165 60.66 18 64 C17.196 64.289 16.391 64.578 15.562 64.875 C13 66 13 66 12 68 C14.31 68 16.62 68 19 68 C19.33 69.32 19.66 70.64 20 72 C15.024 73.07 10.046 74.069 5 74.75 C4.278 74.848 3.556 74.946 2.812 75.047 C1 75 1 75 -1 73 C-3.496 72.699 -3.496 72.699 -6.438 72.688 C-7.406 72.671 -8.374 72.654 -9.371 72.637 C-12.398 73.055 -13.044 73.773 -15 76 C-18.423 75.907 -19.936 75.05 -22.656 72.945 C-26.669 70.611 -29.711 70.636 -34.188 70.938 C-41.499 71.382 -41.499 71.382 -43.801 69.629 C-44.197 69.091 -44.592 68.554 -45 68 C-47.901 66.066 -48.897 65.699 -52.188 65.375 C-52.817 65.313 -52.817 65.313 -56 65 C-57 62 -57 62 -56.223 60.176 C-55.686 59.313 -55.686 59.313 -53 55 C-51.35 55 -49.7 55 -48 55 C-48 54.34 -48 53.68 -48 53 C-48.846 52.732 -49.691 52.464 -50.562 52.188 C-54.139 50.952 -57.539 49.523 -61 48 C-60.688 46.125 -60.688 46.125 -60 44 C-56.579 41.719 -55.318 41.781 -51.312 41.875 C-50.319 41.893 -49.325 41.911 -48.301 41.93 C-47.921 41.941 -47.921 41.941 -46 42 C-49.675 34.792 -53.859 30.991 -61 27 C-60.34 25.68 -59.68 24.36 -59 23 C-50.688 22.537 -44.3 22.774 -37 27 C-38.607 20.74 -40.608 15.461 -44.109 10.008 C-45.194 7.563 -44.906 6.464 -44 4 C-36.75 4.315 -30.442 7.526 -25.32 12.695 C-24.174 14.099 -23.082 15.546 -22 17 C-21.34 17.33 -20.68 17.66 -20 18 C-19.907 17.67 -19.907 17.67 -19.438 16 C-15.89 8.597 -8.613 0 0 0 Z " fill="#4C750E" transform="translate(103,15)"/>
<path d="M0 0 C57.75 0 115.5 0 175 0 C175 62.7 175 125.4 175 190 C173.02 190 171.04 190 169 190 C168.67 130.6 168.34 71.2 168 10 C163.925 9.185 160.715 8.872 156.617 8.866 C155.329 8.862 154.04 8.858 152.713 8.853 C151.292 8.854 149.872 8.854 148.451 8.855 C146.949 8.852 145.448 8.848 143.946 8.845 C139.874 8.836 135.802 8.833 131.73 8.833 C129.186 8.832 126.642 8.83 124.098 8.827 C115.223 8.818 106.348 8.814 97.474 8.815 C89.199 8.815 80.925 8.805 72.65 8.789 C65.545 8.776 58.44 8.771 51.335 8.771 C47.092 8.771 42.848 8.769 38.605 8.758 C34.617 8.748 30.629 8.748 26.64 8.755 C25.176 8.757 23.712 8.754 22.248 8.748 C20.251 8.74 18.253 8.746 16.256 8.753 C15.138 8.752 14.02 8.752 12.868 8.751 C10.016 8.999 8.369 9.427 6 11 C4.516 13.968 4.858 16.646 4.842 19.96 C4.837 20.685 4.832 21.409 4.827 22.156 C4.811 24.595 4.803 27.035 4.795 29.475 C4.785 31.219 4.775 32.963 4.765 34.707 C4.738 39.453 4.717 44.199 4.697 48.944 C4.675 53.9 4.647 58.855 4.621 63.811 C4.571 73.199 4.526 82.588 4.483 91.977 C4.433 102.663 4.378 113.35 4.323 124.037 C4.209 146.024 4.102 168.012 4 190 C2.68 190 1.36 190 0 190 C0 127.3 0 64.6 0 0 Z " fill="#FDFDFA" transform="translate(0,0)"/>
<path d="M0 0 C0.33 0.33 0.66 0.66 1 1 C3.339 0.713 5.674 0.381 8 0 C8.165 0.495 8.165 0.495 9 3 C11.062 3.688 11.062 3.688 13 4 C13.165 4.825 13.165 4.825 14 9 C14.66 8.67 15.32 8.34 16 8 C18.672 7.866 21.323 7.957 24 8 C24.33 7.01 24.66 6.02 25 5 C26.656 4.618 28.325 4.286 30 4 C31 5 31 5 31.062 7.215 C31.021 9.027 30.979 10.84 30.938 12.652 C31 15 31 15 32 17 C32.375 19.812 32.375 19.812 32 23 C28.919 26.806 25.281 29.632 21 32 C17.928 31.857 17.052 31.055 14.93 28.785 C14.591 28.336 14.591 28.336 12.875 26.062 C9.061 21.061 9.061 21.061 7 19 C4.5 18.75 4.5 18.75 2 19 C1.34 19.66 0.68 20.32 0 21 C-2.318 21.717 -4.653 22.382 -7 23 C-7.99 23.33 -8.98 23.66 -10 24 C-10 24.66 -10 25.32 -10 26 C-5.868 25.705 -4.176 25.147 -0.938 22.438 C2 20 2 20 4.418 19.559 C8.041 20.178 9.031 21.753 11.25 24.625 C11.936 25.484 12.622 26.342 13.328 27.227 C15.227 30.376 16.019 32.313 16 36 C14.156 38.738 14.156 38.738 11.5 41.312 C10.644 42.175 9.788 43.037 8.906 43.926 C5.525 46.339 3.101 46.731 -1 47 C-1 47.99 -1 48.98 -1 50 C-0.261 50.067 0.477 50.134 1.238 50.203 C4.838 51.242 5.931 52.799 8.188 55.75 C8.862 56.611 9.536 57.472 10.23 58.359 C11.906 60.86 13.007 63.169 14 66 C13.051 66.433 12.102 66.866 11.125 67.312 C8 69 8 69 6 72 C4.348 72.702 2.681 73.37 1 74 C0.67 74.33 0.67 74.33 -1 76 C-1.99 76 -2.98 76 -4 76 C-4 75.34 -4 74.68 -4 74 C-4.763 73.752 -5.526 73.505 -6.312 73.25 C-9.375 71.826 -10.524 71.034 -12 68 C-11.688 64.25 -11.688 64.25 -11 61 C-11.866 61.186 -12.733 61.371 -13.625 61.562 C-17 61 -17 61 -18.699 59.066 C-24.14 50.832 -24.14 50.832 -24.062 45.375 C-24.058 44.966 -24.058 44.966 -24.035 42.898 C-24.024 42.272 -24.012 41.645 -24 41 C-24.66 41.99 -25.32 42.98 -26 44 C-27.32 43.67 -28.64 43.34 -30 43 C-30.797 28.267 -27.484 17.155 -18 6 C-12.321 0.735 -7.479 -0.241 0 0 Z " fill="#F7BC14" transform="translate(67,86)"/>
<path d="M0 0 C8.902 -0.556 14.086 -0.737 21 5 C24.519 4.922 25.511 4.489 28 2 C30.496 1.734 30.496 1.734 33.438 1.75 C34.406 1.745 35.374 1.74 36.371 1.734 C39 2 39 2 42 4 C42.887 3.897 43.774 3.794 44.688 3.688 C49.839 4.174 52.542 7.342 56 11 C59.158 15.097 61.048 19.26 63 24 C63.33 24.33 63.66 24.66 64 25 C64.324 27.84 64.513 30.681 64.719 33.531 C65 36 65 36 66 37 C66.313 41.472 66.279 45.956 66.312 50.438 C66.327 51.061 66.327 51.061 66.4 54.217 C66.454 62.098 65.453 67.935 62 75 C61.588 76.155 61.175 77.31 60.75 78.5 C55.446 89.108 47.837 95.525 36.836 99.641 C31.712 101.291 26.909 101.41 21.562 101.312 C21.124 101.314 21.124 101.314 18.904 101.322 C10.042 101.25 2.01 99.831 -6 96 C-4.438 95.312 -4.438 95.312 -2 95 C-0.267 95.719 1.464 96.445 3.168 97.23 C9.872 100.046 17.878 99.096 25 99 C25 98.34 25 97.68 25 97 C23.907 96.856 22.814 96.711 21.688 96.562 C18 96 18 96 15 95 C15.66 95 16.32 95 17 95 C17 94.34 17 93.68 17 93 C16.402 92.773 15.804 92.546 15.188 92.312 C12.436 90.662 11.475 88.803 10 86 C11.32 86.66 12.64 87.32 14 88 C14 88.66 14 89.32 14 90 C17.668 92.347 20.717 92.443 25 92 C29.344 89.744 32.058 87.532 34 83 C34.188 79.688 34.188 79.688 34 77 C34.928 76.752 35.856 76.505 36.812 76.25 C40.222 74.913 41.034 73.949 43 71 C43.66 71 44.32 71 45 71 C45 70.34 45 69.68 45 69 C45.516 68.588 46.031 68.175 46.562 67.75 C48 66 48 66 47.938 63.188 C46.839 59.453 45.5 56.987 43 54 C40.25 53.125 40.25 53.125 38 53 C38 51.35 38 49.7 38 48 C39.32 48.33 40.64 48.66 42 49 C42 49.66 42 50.32 42 51 C42.66 51 43.32 51 44 51 C45.28 52.784 46.477 54.629 47.625 56.5 C48.257 57.521 48.888 58.542 49.539 59.594 C50.021 60.388 50.503 61.182 51 62 C54.789 61.234 54.789 61.234 56.688 59.125 C58.843 53.992 59.862 48.191 58.387 42.73 C57.562 40.812 57.562 40.812 56 38 C55.01 38 54.02 38 53 38 C51.465 39.715 51.465 39.715 49.938 41.938 C47.186 45.907 47.186 45.907 45 47 C46.074 44.085 46.778 42.222 49 40 C49.629 36.921 49.602 34.082 49 31 C45.857 27.32 43.859 26.18 39.125 25.188 C38.094 25.126 37.062 25.064 36 25 C34.26 18.57 33.75 12.651 34 6 C31.562 6.375 31.562 6.375 29 7 C28.67 7.66 28.34 8.32 28 9 C24.259 9.603 20.783 10 17 10 C16.67 8.35 16.34 6.7 16 5 C15.01 4.67 14.02 4.34 13 4 C12.67 3.34 12.34 2.68 12 2 C5.25 2.875 5.25 2.875 3 4 C3 3.34 3 2.68 3 2 C2.01 1.34 1.02 0.68 0 0 Z " fill="#D98003" transform="translate(63,85)"/>
<path d="M0 0 C0.33 0.33 0.66 0.66 1 1 C3.339 0.713 5.674 0.381 8 0 C8.165 0.495 8.165 0.495 9 3 C11.062 3.688 11.062 3.688 13 4 C13.165 4.825 13.165 4.825 14 9 C14.66 8.67 15.32 8.34 16 8 C18.672 7.866 21.323 7.957 24 8 C24.33 7.01 24.66 6.02 25 5 C26.656 4.618 28.325 4.286 30 4 C31 5 31 5 31.062 7.215 C31.021 9.027 30.979 10.84 30.938 12.652 C31 15 31 15 32 17 C32.375 19.812 32.375 19.812 32 23 C28.919 26.806 25.281 29.632 21 32 C17.928 31.857 17.052 31.055 14.93 28.785 C14.591 28.336 14.591 28.336 12.875 26.062 C7.556 19.088 7.556 19.088 5.047 18.691 C3 18 3 18 1.516 15.715 C1.098 14.798 0.68 13.882 0.25 12.938 C-0.178 12.018 -0.606 11.099 -1.047 10.152 C-1.361 9.442 -1.676 8.732 -2 8 C-7.251 8.412 -10.419 9.021 -14 13 C-15.261 15.938 -16.188 18.91 -17 22 C-17.33 21.34 -17.66 20.68 -18 20 C-21.51 21.638 -24.455 23.031 -27 26 C-27.474 20.243 -26.308 16.915 -22.938 12.375 C-22.531 11.808 -22.124 11.241 -21.705 10.657 C-15.677 2.538 -9.958 -0.321 0 0 Z " fill="#FBC110" transform="translate(67,86)"/>
<path d="M0 0 C8.593 -0.606 15.933 -0.447 23 5 C24.207 7.047 24.207 7.047 25 9 C25.33 9.66 25.66 10.32 26 11 C25.34 11 24.68 11 24 11 C24.516 11.928 25.031 12.856 25.562 13.812 C27 17 27 17 26 20 C26 20.99 26 21.98 26 23 C25.34 23.66 24.68 24.32 24 25 C21.625 24.938 21.625 24.938 19 24 C16.688 21.438 16.688 21.438 15 19 C15 20.32 15 21.64 15 23 C18.371 25.634 22.203 26.863 26.23 28.156 C28 29 28 29 30 32 C28.35 31.67 26.7 31.34 25 31 C25 31.99 25 32.98 25 34 C24.34 34 23.68 34 23 34 C22.67 34.99 22.34 35.98 22 37 C19.81 33.715 19.002 30.793 18 27 C17.34 28.98 16.68 30.96 16 33 C15.422 32.526 14.845 32.051 14.25 31.562 C11.971 29.98 10.644 29.642 8 29 C6.241 28.336 4.491 27.648 2.75 26.938 C1.858 26.575 0.966 26.213 0.047 25.84 C-0.629 25.563 -1.304 25.286 -2 25 C-1.688 23.125 -1.688 23.125 -1 21 C2.421 18.719 3.682 18.781 7.688 18.875 C8.184 18.884 8.184 18.884 10.699 18.93 C11.458 18.953 12.218 18.976 13 19 C9.325 11.792 5.141 7.991 -2 4 C-1.34 2.68 -0.68 1.36 0 0 Z " fill="#709716" transform="translate(44,38)"/>
<path d="M0 0 C-0.33 1.32 -0.66 2.64 -1 4 C0.65 3.34 2.3 2.68 4 2 C3.021 3.146 2.042 4.292 1.062 5.438 C0.517 6.076 -0.028 6.714 -0.59 7.371 C-1.368 8.27 -2.159 9.159 -3 10 C-1.948 10.248 -0.896 10.495 0.188 10.75 C3.821 11.791 6.295 13.295 9 16 C9 16.99 9 17.98 9 19 C5.7 19 2.4 19 -1 19 C-0.67 20.32 -0.34 21.64 0 23 C-0.804 23.289 -1.609 23.578 -2.438 23.875 C-5 25 -5 25 -6 27 C-3.69 27 -1.38 27 1 27 C1.33 28.32 1.66 29.64 2 31 C-15.633 34.792 -15.633 34.792 -19.375 32.625 C-19.911 32.089 -20.448 31.553 -21 31 C-21.99 30.67 -22.98 30.34 -24 30 C-22.597 27.089 -21.02 24.367 -19.312 21.625 C-17.456 18.594 -15.758 15.561 -14.262 12.34 C-13.968 11.714 -13.674 11.089 -13.372 10.445 C-12.535 8.638 -11.72 6.821 -10.906 5.004 C-8.144 0.651 -5.11 -1.703 0 0 Z " fill="#577F16" transform="translate(121,56)"/>
<path d="M0 0 C2.207 0.273 2.207 0.273 4.207 1.273 C3.922 7.977 1.098 11.948 -2.793 17.273 C-3.453 18.263 -4.113 19.253 -4.793 20.273 C-3.803 20.603 -2.813 20.933 -1.793 21.273 C-2.1 21.292 -2.1 21.292 -3.656 21.387 C-4.06 21.42 -4.06 21.42 -6.105 21.586 C-6.906 21.644 -7.706 21.702 -8.531 21.762 C-11.184 22.362 -11.98 23.324 -13.793 25.273 C-18.322 25.151 -21.129 22.716 -24.793 20.273 C-27.668 19.523 -27.668 19.523 -29.793 19.273 C-29.793 18.943 -29.793 18.613 -29.793 18.273 C-28.143 18.273 -26.493 18.273 -24.793 18.273 C-24.896 17.098 -24.999 15.922 -25.105 14.711 C-25.151 9.593 -22.998 7.12 -19.793 3.273 C-19.463 3.933 -19.133 4.593 -18.793 5.273 C-16.105 5.586 -16.105 5.586 -12.793 5.273 C-12.05 4.448 -11.308 3.623 -10.543 2.773 C-6.933 -0.509 -4.707 -0.183 0 0 Z " fill="#4E7713" transform="translate(101.79296875,65.7265625)"/>
<path d="M0 0 C-0.255 1.794 -0.53 3.585 -0.812 5.375 C-0.963 6.373 -1.114 7.37 -1.27 8.398 C-2 11 -2 11 -5 13 C-5.701 13.33 -6.403 13.66 -7.125 14 C-9 15 -9 15 -10 17 C-10.99 17 -11.98 17 -13 17 C-12.34 17.907 -11.68 18.815 -11 19.75 C-9 23 -9 23 -9 27 C-9.66 27 -10.32 27 -11 27 C-11.66 28.32 -12.32 29.64 -13 31 C-12.67 31 -12.34 31 -12 31 C-11.567 30.526 -11.134 30.051 -10.688 29.562 C-9 28 -9 28 -7.188 27.562 C-3.995 26.741 -1.671 24.882 1 23 C1.25 25.75 1.25 25.75 1 29 C-0.287 30.378 -1.629 31.705 -3 33 C-4.055 35.066 -4.985 37.151 -5.875 39.293 C-7 41 -7 41 -9.066 41.617 C-9.704 41.744 -10.343 41.87 -11 42 C-11.309 42.639 -11.619 43.279 -11.938 43.938 C-13 46 -13 46 -15.625 47.25 C-16.409 47.498 -17.192 47.745 -18 48 C-18.33 47.67 -18.66 47.34 -19 47 C-18.824 44.309 -18.382 41.671 -18 39 C-18.66 39 -19.32 39 -20 39 C-22.611 35.084 -22.371 32.956 -21.859 28.375 C-19.215 17.99 -12.389 7.618 -4 1 C-2 0 -2 0 0 0 Z " fill="#7FA71B" transform="translate(99,18)"/>
<path d="M0 0 C4.333 1.577 7.796 4.924 10.211 8.805 C9.926 11.57 9.926 11.57 9.211 13.805 C8.221 14.135 7.231 14.465 6.211 14.805 C6.211 15.465 6.211 16.125 6.211 16.805 C4.549 18.144 2.881 19.476 1.211 20.805 C-0.163 22.438 -1.508 24.097 -2.789 25.805 C-9.204 24.869 -12.087 21.912 -16.383 17.191 C-17.789 14.805 -17.789 14.805 -17.75 12.273 C-16.601 9.322 -15.208 7.789 -12.914 5.617 C-12.215 4.943 -11.517 4.269 -10.797 3.574 C-7.131 0.343 -4.942 -0.753 0 0 Z " fill="#FCC91F" transform="translate(89.7890625,123.1953125)"/>
<path d="M0 0 C3.36 1.181 5.789 2.158 8 5 C9.396 7.94 10 9.722 10 13 C8.35 13.33 6.7 13.66 5 14 C5 13.34 5 12.68 5 12 C4.01 12 3.02 12 2 12 C2 12.66 2 13.32 2 14 C2.66 14.33 3.32 14.66 4 15 C3.34 15 2.68 15 2 15 C1.67 15.825 1.67 15.825 0 20 C-3.688 19.502 -5.605 18.899 -8 16 C-4.25 20.875 -4.25 20.875 -2 22 C-2 22.66 -2 23.32 -2 24 C-8.213 25.34 -8.213 25.34 -11.75 23.812 C-14.058 21.954 -15.585 20.606 -17 18 C-17.188 14.75 -17.188 14.75 -17 12 C-16.536 12.052 -16.536 12.052 -14.188 12.312 C-13.136 12.209 -12.084 12.106 -11 12 C-9.625 9.938 -9.625 9.938 -8 7 C-5.445 4.532 -2.741 2.259 0 0 Z " fill="#F8B70A" transform="translate(82,156)"/>
<path d="M0 0 C2.238 2.449 2.238 2.449 4.312 5.688 C5.01 6.743 5.707 7.799 6.426 8.887 C7.992 11.985 8.372 13.602 8 17 C7.093 17.412 6.185 17.825 5.25 18.25 C2 20 2 20 -0.062 22.188 C-2 24 -2 24 -4.75 24.25 C-5.492 24.167 -6.235 24.085 -7 24 C-7.433 23.051 -7.866 22.102 -8.312 21.125 C-10 18 -10 18 -13 16 C-13.864 9.517 -13.864 9.517 -11.98 6.211 C-8.621 2.09 -5.5 -1.023 0 0 Z " fill="#FBCE27" transform="translate(56,120)"/>
<path d="M0 0 C3.93 0.58 5.73 1.844 8.562 4.531 C10.633 7.396 10.897 9.627 10.648 13.109 C9.319 17.456 6.193 20.386 2.938 23.434 C-2.885 22.156 -6.477 19.045 -10.062 14.434 C-11.266 11.703 -11.266 11.703 -12.062 9.434 C-10.707 7.916 -9.327 6.42 -7.938 4.934 C-7.172 4.098 -6.406 3.263 -5.617 2.402 C-3.062 0.434 -3.062 0.434 0 0 Z " fill="#F5AE06" transform="translate(103.0625,109.56640625)"/>
<path d="M0 0 C8.902 -0.556 14.086 -0.737 21 5 C24.519 4.922 25.511 4.489 28 2 C30.602 1.805 30.602 1.805 33.625 1.875 C34.126 1.884 34.126 1.884 36.664 1.93 C37.435 1.953 38.206 1.976 39 2 C39.165 2.66 39.165 2.66 40 6 C40.66 6 41.32 6 42 6 C45.479 9.044 47.608 11.572 49 16 C49.66 16 50.32 16 51 16 C51.81 18.915 52.218 20.461 51.062 23.312 C50.712 23.869 50.361 24.426 50 25 C40.893 23.929 40.893 23.929 38 22 C36.344 19.09 35.334 16.339 35 13 C36.812 9.938 36.812 9.938 39 8 C38.34 8 37.68 8 37 8 C36.67 8.99 36.34 9.98 36 11 C35.67 11 35.34 11 35 11 C34.835 10.175 34.835 10.175 34 6 C31.562 6.375 31.562 6.375 29 7 C28.67 7.66 28.34 8.32 28 9 C24.259 9.603 20.783 10 17 10 C16.67 8.35 16.34 6.7 16 5 C15.01 4.67 14.02 4.34 13 4 C12.67 3.34 12.34 2.68 12 2 C5.25 2.875 5.25 2.875 3 4 C3 3.34 3 2.68 3 2 C2.01 1.34 1.02 0.68 0 0 Z " fill="#EEA102" transform="translate(63,85)"/>
<path d="M0 0 C3.635 1.522 4.877 3.628 6.816 6.98 C8.033 9.976 7.671 12.098 6.688 15.125 C5.698 15.455 4.707 15.785 3.688 16.125 C3.688 16.785 3.688 17.445 3.688 18.125 C3.028 18.125 2.368 18.125 1.688 18.125 C1.378 18.764 1.069 19.404 0.75 20.062 C-0.312 22.125 -0.312 22.125 -1.312 23.125 C-4.523 23.66 -6.538 23.656 -9.266 21.785 C-11.006 20.282 -12.682 18.746 -14.312 17.125 C-13.836 12.467 -12.05 10.296 -8.875 6.938 C-8.072 6.078 -7.269 5.218 -6.441 4.332 C-2.387 0.129 -2.387 0.129 0 0 Z " fill="#F3A703" transform="translate(104.3125,137.875)"/>
<path d="M0 0 C6.697 0.291 11.637 3.058 17 7 C19.013 10.019 19.67 11.455 20 15 C19.188 18.062 19.188 18.062 18 21 C17.732 21.742 17.464 22.485 17.188 23.25 C15.549 25.665 13.725 26.14 11 27 C6.85 23.852 6.133 20.471 4.863 15.668 C3.711 12.105 1.906 9.147 -0.109 6.008 C-1.194 3.563 -0.906 2.464 0 0 Z " fill="#72971C" transform="translate(59,19)"/>
<path d="M0 0 C0.11 0.284 0.11 0.284 0.664 1.723 C2.756 6.815 4.985 10.53 8.926 14.395 C10 16 10 16 9.793 18.012 C9 20 9 20 7 23 C4.312 23.562 4.312 23.562 1 23 C-1.593 21.253 -3.788 19.201 -6 17 C-6.277 16.759 -6.277 16.759 -7.676 15.539 C-9.632 13.265 -9.529 10.977 -9.422 8.074 C-8.355 2.83 -5.388 0 0 0 Z " fill="#F6B006" transform="translate(53,150)"/>
<path d="M0 0 C0.33 0 0.66 0 1 0 C1.375 2.188 1.375 2.188 1 5 C-0.84 6.99 -2.792 8.39 -5 10 C-4.34 11.32 -3.68 12.64 -3 14 C-20.626 17.856 -39.514 17.184 -57 13 C-58.279 12.701 -59.557 12.402 -60.875 12.094 C-61.906 11.733 -62.938 11.372 -64 11 C-65.438 7.875 -65.438 7.875 -66 5 C-62.864 5 -61.814 5.442 -59.125 6.875 C-58.771 7.057 -58.771 7.057 -56.977 7.98 C-56.65 8.149 -56.65 8.149 -55 9 C-44.825 13.833 -27.706 14.1 -16.953 11.023 C-10.434 8.575 -3.95 5.925 0 0 Z " fill="#E5CAA0" transform="translate(116,173)"/>
<path d="M0 0 C3.594 1.702 5.024 4.458 6.375 8.125 C6.206 11.253 5.616 11.884 3.375 14.125 C1.057 14.842 -1.278 15.507 -3.625 16.125 C-4.615 16.455 -5.605 16.785 -6.625 17.125 C-6.295 18.445 -5.965 19.765 -5.625 21.125 C-7.275 21.125 -8.925 21.125 -10.625 21.125 C-13.076 16.802 -13.323 13.004 -12.625 8.125 C-9.846 3.208 -5.737 0.273 0 0 Z " fill="#FCD336" transform="translate(63.625,92.875)"/>
<path d="M0 0 C0.66 0 1.32 0 2 0 C1.847 0.529 1.693 1.057 1.535 1.602 C0.339 6.961 0.286 12.531 0 18 C-0.067 19.249 -0.134 20.498 -0.203 21.785 C-0.412 28.754 -0.418 33.446 4 39 C4.99 39.66 5.98 40.32 7 41 C7.293 43.164 7.293 43.164 7.188 45.625 C7.16 46.442 7.133 47.26 7.105 48.102 C7.071 48.728 7.036 49.355 7 50 C7.99 50.33 8.98 50.66 10 51 C11.354 52.65 12.687 54.317 14 56 C17.644 58.429 19.712 58.162 24 58 C24 58.66 24 59.32 24 60 C23.34 60.474 22.68 60.949 22 61.438 C21.67 61.695 21.67 61.695 20 63 C20 63.99 20 64.98 20 66 C11.976 63.568 6.804 57.353 2.578 50.395 C-2.633 39.185 -4.48 26.09 -2 14 C-2.003 12.5 -2.026 11 -2.062 9.5 C-2.117 5.883 -1.688 3.27 0 0 Z " fill="#D58715" transform="translate(37,114)"/>
<path d="M0 0 C0.934 3.01 1.044 3.867 0 7 C0.66 7 1.32 7 2 7 C2.33 6.01 2.66 5.02 3 4 C2.478 7.86 1.691 9.309 -1 12 C-1.688 14.688 -1.688 14.688 -2 17 C-1.01 16.67 -0.02 16.34 1 16 C1.309 15.34 1.619 14.68 1.938 14 C3 12 3 12 5.125 11.25 C5.434 11.209 5.434 11.209 7 11 C6.383 15.008 4.38 17.78 2 21 C-1 23 -1 23 -3.312 23.125 C-7.499 21.373 -10.008 18.032 -12 14 C-12.473 11.004 -12.473 11.004 -12 8 C-9.883 5.664 -9.883 5.664 -7.125 3.625 C-6.673 3.281 -6.673 3.281 -4.383 1.539 C-2 0 -2 0 0 0 Z " fill="#FDD334" transform="translate(70,107)"/>
<path d="M0 0 C2.542 -0.082 5.082 -0.141 7.625 -0.188 C8.338 -0.213 9.051 -0.238 9.785 -0.264 C14.623 -0.33 17.747 0.444 22 3 C22 4.32 22 5.64 22 7 C20.824 7.289 19.649 7.578 18.438 7.875 C14.598 8.833 10.799 9.892 7 11 C6.67 10.01 6.34 9.02 6 8 C2.842 8 0.018 9.109 -3 10 C-4.196 10.309 -5.392 10.619 -6.625 10.938 C-10 12 -10 12 -12.812 13.688 C-13.534 14.121 -14.256 14.554 -15 15 C-15.66 14.67 -16.32 14.34 -17 14 C-13.968 9.655 -10.947 7.583 -6.25 5.188 C-5.08 4.583 -3.909 3.978 -2.703 3.355 C-2.257 3.132 -2.257 3.132 0 2 C0 1.34 0 0.68 0 0 Z " fill="#6E9228" transform="translate(113,49)"/>
<path d="M0 0 C4.024 7.928 4.024 7.928 3.938 11.75 C2.856 14.346 1.543 16.651 0 19 C-6.679 18.046 -10.443 14.818 -15 10 C-12.253 2.857 -7.723 -0.927 0 0 Z " fill="#FCD532" transform="translate(90,94)"/>
<path d="M0 0 C6.68 -0.835 6.68 -0.835 10.242 1.418 C15.043 5.542 17.786 8.305 18.301 14.785 C18.315 16.211 18.319 17.637 18.312 19.062 C18.329 19.782 18.345 20.502 18.361 21.244 C18.366 26.476 18.366 26.476 16.605 28.996 C15 30 15 30 13 30 C12.918 29.216 12.835 28.433 12.75 27.625 C12 25 12 25 10 23.812 C9.34 23.544 8.68 23.276 8 23 C7.67 22.34 7.34 21.68 7 21 C7.99 21 8.98 21 10 21 C10.165 19.515 10.165 19.515 11 12 C10.34 12 9.68 12 9 12 C8.546 11.237 8.093 10.474 7.625 9.688 C5.983 6.972 4.522 5.826 2 4 C2 3.34 2 2.68 2 2 C1.34 2 0.68 2 0 2 C0 1.34 0 0.68 0 0 Z " fill="#EC9802" transform="translate(103,89)"/>
<path d="M0 0 C0.33 0.99 0.66 1.98 1 3 C0.34 3 -0.32 3 -1 3 C-1 3.66 -1 4.32 -1 5 C-0.01 5.33 0.98 5.66 2 6 C0.68 6.33 -0.64 6.66 -2 7 C-2 9.97 -2 12.94 -2 16 C-2.99 16 -3.98 16 -5 16 C-4 18 -4 18 -1 20 C-1.66 21.32 -2.32 22.64 -3 24 C-6 24 -6 24 -7.789 22.32 C-8.092 21.958 -8.092 21.958 -9.625 20.125 C-10.236 19.406 -10.847 18.686 -11.477 17.945 C-14.133 14.553 -14.443 12.3 -14 8 C-12.207 5.664 -12.207 5.664 -9.812 3.625 C-9.035 2.937 -8.258 2.248 -7.457 1.539 C-4.686 -0.196 -3.206 -0.33 0 0 Z " fill="#FDD42E" transform="translate(89,123)"/>
<path d="M0 0 C4.313 -0.431 7.042 -0.394 10.438 2.312 C13 5 13 5 13 8 C9.7 8 6.4 8 3 8 C3.33 9.32 3.66 10.64 4 12 C3.196 12.289 2.391 12.578 1.562 12.875 C-1 14 -1 14 -2 16 C0.31 16 2.62 16 5 16 C5.33 17.32 5.66 18.64 6 20 C4.087 20.391 2.169 20.762 0.25 21.125 C-0.817 21.334 -1.885 21.543 -2.984 21.758 C-6.137 22.011 -7.4 21.704 -10 20 C-9.67 19.01 -9.34 18.02 -9 17 C-9.66 17 -10.32 17 -11 17 C-11.33 15.68 -11.66 14.36 -12 13 C-6.375 9 -6.375 9 -3 9 C-3 8.01 -3 7.02 -3 6 C1.69 4.883 4.538 5.194 9 7 C8 5 8 5 5 3 C5.33 2.34 5.66 1.68 6 1 C4.02 1 2.04 1 0 1 C0 0.67 0 0.34 0 0 Z " fill="#538214" transform="translate(117,67)"/>
<path d="M0 0 C0.846 0.309 1.691 0.619 2.562 0.938 C2.892 2.257 3.222 3.577 3.562 4.938 C2.903 4.938 2.243 4.938 1.562 4.938 C1.233 6.257 0.903 7.577 0.562 8.938 C1.222 9.268 1.882 9.597 2.562 9.938 C1.243 10.268 -0.078 10.597 -1.438 10.938 C-0.778 12.588 -0.118 14.238 0.562 15.938 C-0.097 15.938 -0.757 15.938 -1.438 15.938 C-0.778 17.588 -0.118 19.238 0.562 20.938 C-0.097 21.597 -0.757 22.257 -1.438 22.938 C-2.427 22.938 -3.418 22.938 -4.438 22.938 C-4.438 22.278 -4.438 21.618 -4.438 20.938 C-5.242 20.628 -6.046 20.319 -6.875 20 C-9.438 18.938 -9.438 18.938 -10.438 17.938 C-11.149 13.262 -11.523 8.8 -9.086 4.617 C-6.067 1.332 -4.572 -0.083 0 0 Z " fill="#FCCC25" transform="translate(67.4375,139.0625)"/>
<path d="M0 0 C0.639 -0.165 1.279 -0.33 1.938 -0.5 C4.544 -1.132 6.427 -0.643 9 0 C9 0.66 9 1.32 9 2 C10.32 2.33 11.64 2.66 13 3 C11.754 6.842 10.666 9.115 7 11 C4.438 11 4.438 11 2 10 C0.188 7.438 0.188 7.438 -1 5 C-7.507 5.337 -10.379 6.379 -15 11 C-15.33 11.66 -15.66 12.32 -16 13 C-16.99 13 -17.98 13 -19 13 C-18.204 8.491 -17.504 5.956 -13.75 3.188 C-9.173 0.304 -5.346 -1.604 0 0 Z " fill="#F5B10A" transform="translate(67,87)"/>
<path d="M0 0 C2 1.375 2 1.375 4 3 C4 3.66 4 4.32 4 5 C4.66 5.33 5.32 5.66 6 6 C5.402 7.072 4.804 8.145 4.188 9.25 C1.86 13.847 0.735 18.55 -0.387 23.559 C-1 26 -1 26 -2 27 C-2.232 28.515 -2.412 30.038 -2.562 31.562 C-2.646 32.389 -2.73 33.215 -2.816 34.066 C-2.877 34.704 -2.938 35.343 -3 36 C-6.106 36 -7.353 35.461 -10 34 C-9.34 33.01 -8.68 32.02 -8 31 C-8.375 28.812 -8.375 28.812 -9 27 C-8.34 27.33 -7.68 27.66 -7 28 C-7.144 27.446 -7.289 26.891 -7.438 26.32 C-7.623 25.596 -7.809 24.871 -8 24.125 C-8.186 23.406 -8.371 22.686 -8.562 21.945 C-9 20 -9 20 -9 18 C-10.5 16.375 -10.5 16.375 -12 15 C-11.34 15 -10.68 15 -10 15 C-9.67 14.01 -9.34 13.02 -9 12 C-8.34 13.32 -7.68 14.64 -7 16 C-5.68 15.67 -4.36 15.34 -3 15 C-2.876 14.196 -2.752 13.391 -2.625 12.562 C-2.419 11.717 -2.213 10.871 -2 10 C-1.34 9.67 -0.68 9.34 0 9 C0.851 5.443 1.169 3.507 0 0 Z " fill="#3E630C" transform="translate(77,29)"/>
<path d="M0 0 C-0.255 1.794 -0.53 3.585 -0.812 5.375 C-0.963 6.373 -1.114 7.37 -1.27 8.398 C-2 11 -2 11 -5 13 C-5.701 13.33 -6.403 13.66 -7.125 14 C-9 15 -9 15 -10 17 C-10.99 17 -11.98 17 -13 17 C-12.34 17.99 -11.68 18.98 -11 20 C-11 20.99 -11 21.98 -11 23 C-14 25 -14 25 -17 25 C-17 25.66 -17 26.32 -17 27 C-17.99 27.33 -18.98 27.66 -20 28 C-19.097 17.783 -12.8 9.082 -5.445 2.172 C-3.562 0.645 -2.451 0 0 0 Z " fill="#96B826" transform="translate(99,18)"/>
<path d="M0 0 C3.536 1.911 5.79 3.626 8 7 C5.506 5.796 3.319 4.546 1 3 C0.67 3.99 0.34 4.98 0 6 C-1.813 7.789 -1.813 7.789 -4 9.625 C-4.722 10.236 -5.444 10.847 -6.188 11.477 C-6.786 11.979 -7.384 12.482 -8 13 C-8.33 13.33 -8.66 13.66 -9 14 C-8.01 14.33 -7.02 14.66 -6 15 C-6 15.66 -6 16.32 -6 17 C-3.36 17 -0.72 17 2 17 C-3.322 20.548 -7.887 20.183 -14.062 20.188 C-14.967 20.2 -15.871 20.212 -16.803 20.225 C-25.814 20.244 -33.852 18.897 -42 15 C-40.438 14.312 -40.438 14.312 -38 14 C-36.267 14.719 -34.536 15.445 -32.832 16.23 C-26.128 19.046 -18.122 18.096 -11 18 C-11 17.34 -11 16.68 -11 16 C-12.093 15.856 -13.186 15.711 -14.312 15.562 C-18 15 -18 15 -21 14 C-20.34 14 -19.68 14 -19 14 C-19 13.34 -19 12.68 -19 12 C-19.598 11.773 -20.196 11.546 -20.812 11.312 C-23.564 9.662 -24.525 7.803 -26 5 C-24.68 5.66 -23.36 6.32 -22 7 C-22 7.66 -22 8.32 -22 9 C-18.332 11.347 -15.283 11.443 -11 11 C-6.499 8.663 -4.43 6.374 -2 2 C-1.34 2 -0.68 2 0 2 C0 1.34 0 0.68 0 0 Z " fill="#CC780B" transform="translate(99,166)"/>
<path d="M0 0 C2.23 -0.355 2.23 -0.355 5 0 C7.238 2.449 7.238 2.449 9.312 5.688 C10.01 6.743 10.707 7.799 11.426 8.887 C12.992 11.985 13.372 13.602 13 17 C11.732 17.506 10.46 18.005 9.188 18.5 C8.48 18.778 7.772 19.057 7.043 19.344 C5 20 5 20 2 20 C2.33 18.845 2.33 18.845 4 13 C3.01 12.835 3.01 12.835 -2 12 C-2 11.01 -2 10.02 -2 9 C-0.02 8.67 1.96 8.34 4 8 C3.01 7.67 2.02 7.34 1 7 C-0.688 5.438 -0.688 5.438 -2 4 C-1.34 2.68 -0.68 1.36 0 0 Z " fill="#FDD331" transform="translate(51,120)"/>
<path d="M0 0 C0.165 0.495 0.165 0.495 1 3 C-0.667 4.857 -2.354 6.682 -4.062 8.5 C-4.295 8.762 -4.295 8.762 -5.475 10.09 C-8.33 13.081 -9.693 13.973 -13.871 14.344 C-14.387 14.287 -14.387 14.287 -17 14 C-17.071 14.9 -17.142 15.8 -17.215 16.727 C-18.406 21.694 -21.322 23.45 -25.293 26.41 C-29.379 28.81 -31.374 29.037 -36 28 C-38.5 25.5 -38.5 25.5 -40 23 C-38.68 23.33 -37.36 23.66 -36 24 C-36 24.66 -36 25.32 -36 26 C-35.639 25.773 -35.639 25.773 -33.812 24.625 C-31 23 -31 23 -28.438 22.062 C-25.616 20.832 -24.123 19.194 -22 17 C-21.01 16.67 -20.02 16.34 -19 16 C-20.486 11.407 -22.85 8.564 -26 5 C-25.67 4.34 -25.34 3.68 -25 3 C-24.564 3.566 -24.129 4.132 -23.68 4.715 C-20.996 8.02 -18.841 10.579 -15 12.5 C-10.649 11.775 -9.115 9.198 -6.516 5.785 C-6.015 5.196 -5.515 4.607 -5 4 C-4.34 4 -3.68 4 -3 4 C-3 3.34 -3 2.68 -3 2 C-2.01 1.34 -1.02 0.68 0 0 Z " fill="#F9B50A" transform="translate(99,136)"/>
<path d="M0 0 C0.66 0 1.32 0 2 0 C2 0.66 2 1.32 2 2 C2.66 2 3.32 2 4 2 C5.228 4.241 6.432 6.49 7.625 8.75 C7.976 9.384 8.326 10.018 8.688 10.672 C11.15 15.4 11.15 15.4 10.406 18.375 C8.336 20.767 5.998 21.218 3 22 C-1.964 15.485 -1.652 8.978 -1 1 C-0.67 0.67 -0.34 0.34 0 0 Z " fill="#FBC113" transform="translate(37,131)"/>
<path d="M0 0 C0.33 0 0.66 0 1 0 C1.33 4.29 1.66 8.58 2 13 C3.382 12.216 4.764 11.432 6.188 10.625 C12.891 6.945 17.354 5.7 25 6 C22.68 8.598 20.724 10.148 17.625 11.812 C14.064 13.742 11.871 16.181 9.355 19.316 C7.71 21.361 5.89 23.182 4 25 C4.165 24.196 4.33 23.391 4.5 22.562 C5 20 5 20 5 19 C3.68 19 2.36 19 1 19 C-0.266 15.133 -0.112 11.268 -0.062 7.25 C-0.058 6.553 -0.053 5.855 -0.049 5.137 C-0.037 3.424 -0.019 1.712 0 0 Z " fill="#80A22E" transform="translate(101,23)"/>
<path d="M0 0 C0 0.66 0 1.32 0 2 C0.99 2.33 1.98 2.66 3 3 C3.625 5.875 3.625 5.875 4 9 C3.34 9.66 2.68 10.32 2 11 C1.01 10.526 0.02 10.051 -1 9.562 C-4.992 7.832 -8.681 7.379 -13 7 C-14 4 -14 4 -12.375 0.375 C-10.854 -2.087 -10.227 -2.889 -7.562 -4.188 C-3.999 -3.927 -2.484 -2.484 0 0 Z " fill="#739820" transform="translate(60,73)"/>
<path d="M0 0 C2.75 0.562 2.75 0.562 5.75 2.562 C5.083 3.896 4.417 5.229 3.75 6.562 C3.585 6.913 3.585 6.913 2.75 8.688 C1.462 11.102 0.197 12.339 -2.25 13.562 C-2.58 14.552 -2.91 15.543 -3.25 16.562 C-6.709 15.313 -9.397 13.887 -12.25 11.562 C-9.809 6.154 -6.048 1.047 0 0 Z " fill="#FBC212" transform="translate(103.25,109.4375)"/>
<path d="M0 0 C2.97 0 5.94 0 9 0 C9 4 9 4 7.609 5.492 C7.303 5.72 7.303 5.72 5.75 6.875 C3.235 8.877 1.822 10.267 0 13 C-2.454 16.681 -5.365 19.475 -9 22 C-9.66 22 -10.32 22 -11 22 C-11.875 20 -11.875 20 -12 17 C-8.649 10.771 -2.802 4.267 4 2 C2.68 1.34 1.36 0.68 0 0 Z " fill="#5C801A" transform="translate(118,30)"/>
<path d="M0 0 C0.33 0.66 0.66 1.32 1 2 C1.763 1.897 2.526 1.794 3.312 1.688 C6 2 6 2 7.875 4.312 C9 7 9 7 8 10 C7.01 9.01 6.02 8.02 5 7 C5.33 7.99 5.66 8.98 6 10 C6.04 12.333 6.044 14.667 6 17 C5.216 16.835 4.433 16.67 3.625 16.5 C1 16 1 16 -1 16 C-1.99 16 -2.98 16 -4 16 C-5.58 12.84 -5.344 10.499 -5 7 C-3.555 4.393 -1.899 2.326 0 0 Z " fill="#769C14" transform="translate(82,69)"/>
<path d="M0 0 C0 1.32 0 2.64 0 4 C-0.66 4 -1.32 4 -2 4 C-2.33 7.96 -2.66 11.92 -3 16 C-4.32 16 -5.64 16 -7 16 C-7.11 16.638 -7.219 17.276 -7.332 17.934 C-7.491 18.76 -7.649 19.586 -7.812 20.438 C-7.963 21.261 -8.114 22.085 -8.27 22.934 C-8.511 23.616 -8.752 24.297 -9 25 C-9.99 25.33 -10.98 25.66 -12 26 C-12 25.01 -12 24.02 -12 23 C-13.32 23 -14.64 23 -16 23 C-16.66 21.68 -17.32 20.36 -18 19 C-16.68 19.33 -15.36 19.66 -14 20 C-13.887 19.691 -13.887 19.691 -13.312 18.125 C-12 16 -12 16 -9.531 15.219 C-7 14 -7 14 -5.855 11.398 C-5.635 10.401 -5.415 9.403 -5.188 8.375 C-4.954 7.372 -4.721 6.369 -4.48 5.336 C-4.401 4.951 -4.401 4.951 -4 3 C-10.513 6.813 -15.843 12.066 -19 19 C-19.99 18.67 -20.98 18.34 -22 18 C-21.34 18 -20.68 18 -20 18 C-19.814 17.34 -19.629 16.68 -19.438 16 C-15.89 8.597 -8.613 0 0 0 Z " fill="#6F931D" transform="translate(103,15)"/>
<path d="M0 0 C9.03 -0.637 15.285 0.124 23 5 C23 7.31 23 9.62 23 12 C22.01 12 21.02 12 20 12 C18.312 13.5 18.312 13.5 17 15 C16.66 14.469 16.319 13.938 15.969 13.391 C12.767 8.724 10.106 6.019 4.832 3.887 C2.775 2.891 1.525 1.685 0 0 Z " fill="#85AB1D" transform="translate(44,40)"/>
<path d="M0 0 C3.161 1.37 3.993 1.989 6 5 C6.438 8 6.438 8 6 11 C3.06 13.756 0.577 14.167 -3.312 14.188 C-3.921 14.157 -3.921 14.157 -7 14 C-7 13.34 -7 12.68 -7 12 C-8.32 11.67 -9.64 11.34 -11 11 C-8.51 8.439 -6.048 6.038 -3.25 3.812 C-1 2 -1 2 0 0 Z " fill="#EB9804" transform="translate(100,169)"/>
<path d="M0 0 C-1.073 0.433 -2.145 0.866 -3.25 1.312 C-6.178 2.554 -8.485 4.044 -11 6 C-11.66 6 -12.32 6 -13 6 C-13.66 8.31 -14.32 10.62 -15 13 C-14.01 13 -13.02 13 -12 13 C-11.773 12.422 -11.546 11.845 -11.312 11.25 C-9.572 8.265 -7.932 6.849 -5 5 C-2.298 4.393 0.221 4.188 3 4 C3 4.66 3 5.32 3 6 C2.408 6.159 1.817 6.317 1.207 6.48 C-4.053 8.034 -7.599 9.466 -11 14 C-11.925 16.342 -12.466 18.523 -13 21 C-13.33 20.34 -13.66 19.68 -14 19 C-17.51 20.638 -20.455 22.031 -23 25 C-23.474 19.243 -22.308 15.915 -18.938 11.375 C-18.531 10.808 -18.124 10.241 -17.705 9.657 C-13.399 3.857 -7.776 -2.413 0 0 Z " fill="#DF9313" transform="translate(63,87)"/>
<path d="M0 0 C1.65 0.33 3.3 0.66 5 1 C5 19.375 5 19.375 4 24 C3.67 24 3.34 24 3 24 C3 22.35 3 20.7 3 19 C1.02 19.66 -0.96 20.32 -3 21 C-4.562 19.188 -4.562 19.188 -6 17 C-5.67 16.01 -5.34 15.02 -5 14 C-4.34 14 -3.68 14 -3 14 C-0.969 9.124 0.147 5.304 0 0 Z " fill="#E7950D" transform="translate(122,135)"/>
<path d="M0 0 C2.125 -0.438 2.125 -0.438 5 0 C8.168 2.426 10.487 5.199 11.59 9.07 C11.821 12.036 11.587 14.301 9.641 16.617 C8 18 8 18 5 20 C5.309 19.237 5.619 18.474 5.938 17.688 C6.679 15.812 7.362 13.913 8 12 C6.125 12.188 6.125 12.188 4 13 C2.75 15.562 2.75 15.562 2 18 C1.01 18 0.02 18 -1 18 C-1.412 14.397 -1.154 13.216 1 10.188 C1.66 9.466 2.32 8.744 3 8 C2.34 8 1.68 8 1 8 C0.67 5.36 0.34 2.72 0 0 Z " fill="#FACC24" transform="translate(69,106)"/>
<path d="M0 0 C0.878 0.015 1.756 0.031 2.66 0.047 C4.938 0.25 4.938 0.25 6.938 1.25 C6.322 7.773 6.322 7.773 4.375 10.188 C3.901 10.538 3.426 10.889 2.938 11.25 C2.938 10.59 2.938 9.93 2.938 9.25 C-0.032 9.91 -3.002 10.57 -6.062 11.25 C-5.733 10.26 -5.403 9.27 -5.062 8.25 C-6.382 7.92 -7.703 7.59 -9.062 7.25 C-8.087 1.592 -5.666 -0.167 0 0 Z " fill="#6A9418" transform="translate(99.0625,65.75)"/>
<path d="M0 0 C1.63 4.122 2.263 6.707 1 11 C0.34 11 -0.32 11 -1 11 C-1 11.66 -1 12.32 -1 13 C-2.875 15.125 -2.875 15.125 -5 17 C-5.66 17 -6.32 17 -7 17 C-7.704 15.445 -8.387 13.88 -9.062 12.312 C-9.445 11.442 -9.828 10.572 -10.223 9.676 C-11.094 6.678 -10.85 4.967 -10 2 C-9.67 2.495 -9.67 2.495 -8 5 C-7.237 4.175 -6.474 3.35 -5.688 2.5 C-3 0 -3 0 0 0 Z " fill="#FCD02C" transform="translate(49,106)"/>
<path d="M0 0 C3.055 5.782 4.645 9.559 3 16 C2.01 16 1.02 16 0 16 C-0.33 14.68 -0.66 13.36 -1 12 C-1.567 12.093 -1.567 12.093 -4.438 12.562 C-5.025 12.635 -5.025 12.635 -8 13 C-9 12 -9 12 -9.375 9.312 C-8.729 3.603 -6.048 0 0 0 Z " fill="#FCC71F" transform="translate(53,150)"/>
<path d="M0 0 C0.99 0 1.98 0 3 0 C3.423 4.907 3.584 7.062 0.938 11.312 C-2.987 14.903 -6.523 17 -12 17 C-11.523 12.342 -9.738 10.171 -6.562 6.812 C-5.759 5.953 -4.956 5.093 -4.129 4.207 C-2.765 2.793 -1.389 1.389 0 0 Z " fill="#FBC212" transform="translate(102,138)"/>
<path d="M0 0 C0.66 0 1.32 0 2 0 C3.524 2.801 4.393 5.312 5 8.438 C5.708 11.795 6.455 14.909 8 18 C8.66 18.33 9.32 18.66 10 19 C10 17.68 10 16.36 10 15 C10.99 14.67 11.98 14.34 13 14 C13.33 12.35 13.66 10.7 14 9 C14.99 9.33 15.98 9.66 17 10 C17 12.97 17 15.94 17 19 C11.475 20.36 6.68 21.242 1 21 C0.34 19.68 -0.32 18.36 -1 17 C0.32 17 1.64 17 3 17 C2.622 11.581 0.967 9.589 -3 6 C-4.028 4.688 -5.041 3.363 -6 2 C-4 3 -2 4 0 5 C0 3.35 0 1.7 0 0 Z " fill="#4C6B0F" transform="translate(60,65)"/>
<path d="M0 0 C-0.33 1.32 -0.66 2.64 -1 4 C0.65 3.34 2.3 2.68 4 2 C3.064 3.106 2.126 4.209 1.188 5.312 C0.926 5.62 0.926 5.62 -0.395 7.176 C-3.337 10.52 -3.337 10.52 -5 12 C-5.66 12 -6.32 12 -7 12 C-9.008 12.643 -11.009 13.307 -13 14 C-14 11 -14 11 -13.215 8.844 C-10.235 3.377 -7.058 -2.353 0 0 Z " fill="#4C711A" transform="translate(121,56)"/>
<path d="M0 0 C0.66 0 1.32 0 2 0 C2.598 0.949 3.196 1.898 3.812 2.875 C6.226 6.322 7.085 6.853 11 8 C14.008 8.125 14.008 8.125 17.125 8 C22.668 7.779 22.668 7.779 26 10 C25.67 10.99 25.34 11.98 25 13 C15.796 13.256 7.287 13.393 -1 9 C0.32 8.01 1.64 7.02 3 6 C2.752 5.691 2.752 5.691 1.5 4.125 C0 2 0 2 0 0 Z " fill="#EA9102" transform="translate(63,172)"/>
<path d="M0 0 C9.03 -0.637 15.285 0.124 23 5 C20 6 20 6 17 4.562 C12.17 2.277 7.229 2.745 2 3 C2.687 3.568 3.374 4.137 4.082 4.723 C13.234 12.565 13.234 12.565 15 19 C15 20.667 15 22.333 15 24 C13.02 24 11.04 24 9 24 C8.67 23.34 8.34 22.68 8 22 C4.938 21.375 4.938 21.375 2 21 C2 20.34 2 19.68 2 19 C5.63 19 9.26 19 13 19 C9.325 11.792 5.141 7.991 -2 4 C-1.34 2.68 -0.68 1.36 0 0 Z " fill="#6E8B30" transform="translate(44,38)"/>
<path d="M0 0 C8.902 -0.556 14.086 -0.737 21 5 C24.519 4.922 25.511 4.489 28 2 C30.602 1.805 30.602 1.805 33.625 1.875 C34.126 1.884 34.126 1.884 36.664 1.93 C37.435 1.953 38.206 1.976 39 2 C39.165 2.33 39.165 2.33 40 4 C39.34 4.66 38.68 5.32 38 6 C36.866 5.979 35.731 5.959 34.562 5.938 C31 6 31 6 29.562 7.438 C26.977 10.023 23.529 9.794 20 10 C19.01 10 18.02 10 17 10 C16.67 8.35 16.34 6.7 16 5 C15.01 4.67 14.02 4.34 13 4 C12.67 3.34 12.34 2.68 12 2 C5.25 2.875 5.25 2.875 3 4 C3 3.34 3 2.68 3 2 C2.01 1.34 1.02 0.68 0 0 Z " fill="#DE9302" transform="translate(63,85)"/>
<path d="M0 0 C0.585 0.005 0.585 0.005 3.547 0.027 C4.439 0.039 5.331 0.051 6.25 0.062 C2.917 1.729 -0.417 3.396 -3.75 5.062 C-4.224 5.331 -4.224 5.331 -6.625 6.688 C-9.377 7.898 -10.864 8.264 -13.75 8.5 C-18.041 8.88 -20.376 10.447 -23.75 13.062 C-24.41 12.733 -25.07 12.403 -25.75 12.062 C-22.049 6.07 -15.356 2.663 -8.828 0.395 C-5.872 -0.078 -2.991 -0.03 0 0 Z " fill="#8AB322" transform="translate(121.75,50.9375)"/>
<path d="M0 0 C2 2 2 2 2 6 C1.34 6 0.68 6 0 6 C-1.303 8.506 -2.418 11.009 -3.5 13.625 C-5 17 -5 17 -7 19 C-9.062 17.688 -9.062 17.688 -11 15 C-11.059 11.273 -10.583 7.676 -10 4 C-8.68 4.66 -7.36 5.32 -6 6 C-6 5.34 -6 4.68 -6 4 C-4.02 3.34 -2.04 2.68 0 2 C0 1.34 0 0.68 0 0 Z " fill="#7FA51B" transform="translate(88,39)"/>
<path d="M0 0 C0.66 0 1.32 0 2 0 C2.938 2.438 2.938 2.438 3 6 C0.506 10.09 -2.62 13.62 -6 17 C-8.625 16.625 -8.625 16.625 -11 16 C-11.33 14.68 -11.66 13.36 -12 12 C-11.218 11.301 -10.435 10.603 -9.629 9.883 C-8.607 8.964 -7.585 8.044 -6.562 7.125 C-6.046 6.665 -5.53 6.205 -4.998 5.73 C-1.113 2.227 -1.113 2.227 0 0 Z " fill="#F39F03" transform="translate(113,152)"/>
<path d="M0 0 C0.33 0 0.66 0 1 0 C1.375 2.188 1.375 2.188 1 5 C-0.84 6.99 -2.792 8.39 -5 10 C-4.34 11.32 -3.68 12.64 -3 14 C-15.235 16.676 -27.548 16.198 -40 16 C-40 15.67 -40 15.34 -40 15 C-35.875 14.835 -35.875 14.835 -15 14 C-14.34 12.68 -13.68 11.36 -13 10 C-10.469 8.184 -10.469 8.184 -7.5 6.438 C-2.207 3.31 -2.207 3.31 0 0 Z " fill="#E7CFA9" transform="translate(116,173)"/>
<path d="M0 0 C2.75 -0.312 2.75 -0.312 6 0 C8.375 2.5 8.375 2.5 10 5 C9.34 5.66 8.68 6.32 8 7 C7.34 6.67 6.68 6.34 6 6 C5.34 7.98 4.68 9.96 4 12 C3.01 11.67 2.02 11.34 1 11 C1 12.32 1 13.64 1 15 C-2 14 -2 14 -3.75 10.688 C-5.331 6.024 -5.331 6.024 -4 3 C-3.67 3.66 -3.34 4.32 -3 5 C-2.67 4.34 -2.34 3.68 -2 3 C-1.34 3 -0.68 3 0 3 C0 2.01 0 1.02 0 0 Z " fill="#537912" transform="translate(69,69)"/>
<path d="M0 0 C2.64 0 5.28 0 8 0 C8.206 0.547 8.206 0.547 9.25 3.312 C10.617 6.557 12.024 8.05 15 10 C15 10.66 15 11.32 15 12 C8.787 13.34 8.787 13.34 5.25 11.812 C2.942 9.954 1.415 8.606 0 6 C-0.188 2.75 -0.188 2.75 0 0 Z " fill="#EEA105" transform="translate(65,168)"/>
<path d="M0 0 C1 3 1 3 -0.438 6.188 C-0.695 6.652 -0.695 6.652 -2 9 C-1.34 9 -0.68 9 0 9 C0 10.32 0 11.64 0 13 C3.795 11.509 5.61 9.243 8 6 C7.67 8.31 7.34 10.62 7 13 C1.375 15.125 1.375 15.125 -2 14 C-2 13.34 -2 12.68 -2 12 C-2.66 12 -3.32 12 -4 12 C-4 11.01 -4 10.02 -4 9 C-4.66 9 -5.32 9 -6 9 C-6.11 9.566 -6.219 10.132 -6.332 10.715 C-6.491 11.448 -6.649 12.182 -6.812 12.938 C-6.963 13.668 -7.114 14.399 -7.27 15.152 C-7.511 15.762 -7.752 16.372 -8 17 C-8.99 17.33 -9.98 17.66 -11 18 C-12.344 12.623 -12.344 12.623 -10.688 9.625 C-9 8 -9 8 -7 8 C-7 5.69 -7 3.38 -7 1 C-6.34 1 -5.68 1 -5 1 C-4.67 1.66 -4.34 2.32 -4 3 C-3.34 3 -2.68 3 -2 3 C-1.34 2.01 -0.68 1.02 0 0 Z " fill="#4B7312" transform="translate(107,39)"/>
<path d="M0 0 C3.448 0.664 6.055 2.021 9.062 3.812 C9.92 4.314 10.777 4.815 11.66 5.332 C14.015 7.011 15.414 8.603 17 11 C13.125 13 13.125 13 12 13 C11.67 13.66 11.34 14.32 11 15 C10.67 14.01 10.34 13.02 10 12 C8.68 12.33 7.36 12.66 6 13 C4.35 10.03 2.7 7.06 1 4 C0.34 4 -0.32 4 -1 4 C-0.67 2.68 -0.34 1.36 0 0 Z " fill="#8BAB22" transform="translate(59,19)"/>
<path d="M0 0 C0.99 0.33 1.98 0.66 3 1 C1.699 3.601 0.699 3.642 -2 4.562 C-5.91 5.91 -5.91 5.91 -7 7 C-9.957 7.089 -12.891 7.115 -15.848 7.098 C-16.291 7.097 -16.291 7.097 -18.534 7.093 C-21.377 7.088 -24.22 7.075 -27.062 7.062 C-28.985 7.057 -30.908 7.053 -32.83 7.049 C-37.553 7.038 -42.277 7.021 -47 7 C-47 6.67 -47 6.34 -47 6 C-46.341 5.975 -45.682 5.95 -45.003 5.924 C-20.813 4.993 -20.813 4.993 -10 4 C-9.67 3.01 -9.34 2.02 -9 1 C-7.886 1.021 -6.773 1.041 -5.625 1.062 C-2 1 -2 1 0 0 Z " fill="#F9EDD6" transform="translate(123,183)"/>
<path d="M0 0 C0.33 0.66 0.66 1.32 1 2 C0.01 2 -0.98 2 -2 2 C-2.082 2.578 -2.165 3.155 -2.25 3.75 C-3.218 6.654 -4.687 8.037 -7 10 C-7.66 10 -8.32 10 -9 10 C-9.33 11.65 -9.66 13.3 -10 15 C-10.99 15.33 -11.98 15.66 -13 16 C-14.426 13.148 -14.325 11.159 -14 8 C-12.207 5.664 -12.207 5.664 -9.812 3.625 C-9.035 2.937 -8.258 2.248 -7.457 1.539 C-4.686 -0.196 -3.206 -0.33 0 0 Z " fill="#FDDA39" transform="translate(89,123)"/>
<path d="M0 0 C0.33 0 0.66 0 1 0 C1.124 0.907 1.248 1.815 1.375 2.75 C1.931 5.64 2.641 7.452 4 10 C5.399 13.917 5.068 17.893 5 22 C3.35 22.33 1.7 22.66 0 23 C-3.273 14.474 -2.927 8.6 0 0 Z " fill="#DD8802" transform="translate(123,112)"/>
<path d="M0 0 C2.31 0 4.62 0 7 0 C6.67 0.165 6.67 0.165 5 1 C5 1.66 5 2.32 5 3 C5.66 3.33 6.32 3.66 7 4 C5.35 4 3.7 4 2 4 C2 5.32 2 6.64 2 8 C1.34 8 0.68 8 0 8 C1.32 10.31 2.64 12.62 4 15 C3.34 15.66 2.68 16.32 2 17 C-0.729 16.967 -3.297 16.436 -6 16 C-6 14.68 -6 13.36 -6 12 C-4.68 11.34 -3.36 10.68 -2 10 C-2.33 9.01 -2.66 8.02 -3 7 C-2.34 6.67 -1.68 6.34 -1 6 C-0.34 6.33 0.32 6.66 1 7 C0.67 4.69 0.34 2.38 0 0 Z " fill="#EE9302" transform="translate(63,164)"/>
<path d="M0 0 C2.438 0.75 2.438 0.75 5 2 C5.812 4.125 5.812 4.125 6 6 C5.237 6.268 4.474 6.536 3.688 6.812 C1 8 1 8 -0.5 9.562 C-2.507 11.486 -4.297 11.635 -7 12 C-7 11.34 -7 10.68 -7 10 C-7.66 10 -8.32 10 -9 10 C-7.618 6.79 -6.076 4.951 -3.375 2.75 C-2.743 2.229 -2.112 1.708 -1.461 1.172 C-1.22 0.979 -1.22 0.979 0 0 Z " fill="#FBC91F" transform="translate(82,156)"/>
<path d="M0 0 C0.66 0 1.32 0 2 0 C2.434 8.003 -0.126 12.584 -5.379 18.5 C-9.123 22.071 -13.135 25.138 -18 27 C-18.99 26.67 -19.98 26.34 -21 26 C-20.196 25.752 -19.391 25.505 -18.562 25.25 C-16 24 -16 24 -15.188 21.875 C-15.126 21.256 -15.064 20.637 -15 20 C-13.68 20 -12.36 20 -11 20 C-11 19.01 -11 18.02 -11 17 C-9.68 16.67 -8.36 16.34 -7 16 C-6.67 14.68 -6.34 13.36 -6 12 C-5.01 12 -4.02 12 -3 12 C-2.856 11.113 -2.711 10.226 -2.562 9.312 C-1.182 1.182 -1.182 1.182 0 0 Z " fill="#D2821A" transform="translate(122,156)"/>
<path d="M0 0 C0.865 2.421 1.142 3.609 0.25 6.062 C-1.001 8.002 -2.339 9.409 -4 11 C-4.33 11.495 -4.33 11.495 -6 14 C-7.828 13.848 -7.828 13.848 -10 13 C-11.484 10.496 -11.484 10.496 -12.75 7.438 C-13.178 6.426 -13.606 5.414 -14.047 4.371 C-14.361 3.589 -14.676 2.806 -15 2 C-14.34 1.67 -13.68 1.34 -13 1 C-12.01 2.65 -11.02 4.3 -10 6 C-5.167 5.586 -3.173 3.536 0 0 Z " fill="#EEA609" transform="translate(80,91)"/>
<path d="M0 0 C0.66 0 1.32 0 2 0 C2 1.65 2 3.3 2 5 C2.66 5 3.32 5 4 5 C4.33 4.34 4.66 3.68 5 3 C4.494 5.169 4 7 3 9 C2.01 9 1.02 9 0 9 C-0.33 10.65 -0.66 12.3 -1 14 C-1.99 13.67 -2.98 13.34 -4 13 C-5.664 12.652 -7.33 12.316 -9 12 C-8.602 11.553 -8.203 11.105 -7.793 10.645 C-5.354 7.862 -3.15 5.252 -1.25 2.062 C-0.838 1.382 -0.425 0.701 0 0 Z " fill="#E89103" transform="translate(116,159)"/>
<path d="M0 0 C1.562 1.688 1.562 1.688 3 4 C2.634 9.641 -0.68 12.356 -4.566 16.105 C-7.872 18.679 -9.874 19.088 -14 19 C-14.33 18.01 -14.66 17.02 -15 16 C-13.989 15.629 -12.979 15.257 -11.938 14.875 C-7.659 13.01 -3.968 10.649 -1 7 C-0.062 3.125 -0.062 3.125 0 0 Z " fill="#FAB90C" transform="translate(80,114)"/>
<path d="M0 0 C2.25 0.062 2.25 0.062 5 1 C7.373 3.801 9.076 6.593 8.875 10.312 C7.252 13.442 5.94 14.02 2.562 15.125 C-1 16 -1 16 -4 16 C-2.75 14 -2.75 14 -1 12 C0.32 12 1.64 12 3 12 C2.886 10.374 2.758 8.749 2.625 7.125 C2.59 6.673 2.59 6.673 2.414 4.383 C2 2 2 2 0 0 Z " fill="#FDCE25" transform="translate(61,93)"/>
<path d="M0 0 C-1.156 3.912 -2.355 6.875 -5 10 C-5 9.34 -5 8.68 -5 8 C-7.97 7.67 -10.94 7.34 -14 7 C-12.819 4.269 -11.773 2.427 -9.125 0.965 C-3.626 -1.209 -3.626 -1.209 0 0 Z " fill="#628D11" transform="translate(111,59)"/>
<path d="M0 0 C4.773 0.842 7.1 1.588 9.938 5.625 C10.278 6.182 10.278 6.182 12 9 C9.506 7.796 7.319 6.546 5 5 C1.006 5.226 -1.274 7.712 -4.125 10.312 C-4.994 11.092 -5.863 11.872 -6.758 12.676 C-8.767 14.759 -9.92 16.348 -11 19 C-11.99 18.34 -12.98 17.68 -14 17 C-14 16.34 -14 15.68 -14 15 C-12.172 13.344 -12.172 13.344 -9.75 11.5 C-8.961 10.892 -8.172 10.283 -7.359 9.656 C-5 8 -5 8 -2.75 6.977 C-2.172 6.654 -1.595 6.332 -1 6 C-0.25 2.875 -0.25 2.875 0 0 Z " fill="#E18A01" transform="translate(82,150)"/>
<path d="M0 0 C0.33 0.66 0.66 1.32 1 2 C3.31 2 5.62 2 8 2 C8 2.33 8 2.66 8 3 C7.42 3.049 6.84 3.098 6.242 3.148 C-5.573 4.279 -5.573 4.279 -8.254 7.512 C-10.511 11.137 -11.239 13.692 -11 18 C-11.66 18.99 -12.32 19.98 -13 21 C-14.65 20.67 -16.3 20.34 -18 20 C-16.051 15.942 -13.696 12.17 -11.34 8.34 C-10 6 -10 6 -9 3 C-7.886 2.876 -6.773 2.752 -5.625 2.625 C-2 2 -2 2 0 0 Z " fill="#375C0C" transform="translate(115,66)"/>
<path d="M0 0 C4 1 4 1 5.77 2.703 C7.362 5.676 7.122 7.434 6.688 10.75 C6.628 11.242 6.628 11.242 6.324 13.734 C6.217 14.482 6.11 15.23 6 16 C2.894 16 1.647 15.461 -1 14 C-0.34 13.01 0.32 12.02 1 11 C0.625 8.812 0.625 8.812 0 7 C0.66 7.33 1.32 7.66 2 8 C1.34 5.36 0.68 2.72 0 0 Z " fill="#608A13" transform="translate(68,49)"/>
<path d="M0 0 C2 1 2 1 3.188 3.312 C4.05 6.165 4.288 7.332 3 10 C0.938 11.25 0.938 11.25 -1 12 C-2.709 10.377 -4.374 8.707 -6 7 C-6 6.34 -6 5.68 -6 5 C-4.041 3.286 -2.041 1.616 0 0 Z " fill="#FBCF23" transform="translate(88,98)"/>
<path d="M0 0 C0.825 0.33 0.825 0.33 5 2 C3.333 3.667 1.667 5.333 0 7 C0 7.99 0 8.98 0 10 C1.32 9.67 2.64 9.34 4 9 C3.34 10.32 2.68 11.64 2 13 C2.99 13.66 3.98 14.32 5 15 C1.71 16.097 0.287 15.8 -3 15 C-4.773 9.484 -2.5 5 0 0 Z " fill="#467112" transform="translate(106,74)"/>
<path d="M0 0 C6.748 -0.844 6.748 -0.844 10.312 1.559 C12.286 3.31 14.174 5.096 16 7 C15.67 7.66 15.34 8.32 15 9 C13.68 8.01 12.36 7.02 11 6 C10.67 6.99 10.34 7.98 10 9 C7.05 7.631 4.475 6.122 2 4 C2 3.34 2 2.68 2 2 C1.34 2 0.68 2 0 2 C0 1.34 0 0.68 0 0 Z " fill="#C77912" transform="translate(103,89)"/>
<path d="M0 0 C0.33 0 0.66 0 1 0 C1.144 1.134 1.289 2.269 1.438 3.438 C2 7 2 7 3 8 C3.282 12.64 3.232 17.29 3.25 21.938 C3.271 23.252 3.291 24.566 3.312 25.92 C3.315 26.546 3.315 26.546 3.328 29.715 C3.333 30.293 3.333 30.293 3.356 33.219 C3.239 34.136 3.121 35.054 3 36 C2.01 36.66 1.02 37.32 0 38 C0.33 32.72 0.66 27.44 1 22 C-0.32 21.67 -1.64 21.34 -3 21 C-1.68 20.67 -0.36 20.34 1 20 C1.125 12.5 1.125 12.5 0.5 10 C-0.326 6.696 -0.057 3.394 0 0 Z " fill="#CF7B1D" transform="translate(126,114)"/>
<path d="M0 0 C0.66 0 1.32 0 2 0 C2 0.66 2 1.32 2 2 C2.66 2 3.32 2 4 2 C4.697 3.454 5.382 4.913 6.062 6.375 C6.254 6.781 6.254 6.781 7.223 8.836 C7.351 9.193 7.351 9.193 8 11 C7.67 11.66 7.34 12.32 7 13 C6.546 12.505 6.093 12.01 5.625 11.5 C4 10 4 10 2 10 C2 10.66 2 11.32 2 12 C1.01 11.67 0.02 11.34 -1 11 C-1.027 9.354 -1.046 7.708 -1.062 6.062 C-1.074 5.146 -1.086 4.229 -1.098 3.285 C-1 1 -1 1 0 0 Z " fill="#FCC923" transform="translate(37,131)"/>
<path d="M0 0 C2.875 -0.188 2.875 -0.188 6 0 C8 3 8 3 7.625 6.188 C7.419 7.116 7.212 8.044 7 9 C1.977 7.818 -1.095 6.55 -5 3 C-3.35 2.34 -1.7 1.68 0 1 C0 0.67 0 0.34 0 0 Z " fill="#68941A" transform="translate(56,75)"/>
<path d="M0 0 C0 1.32 0 2.64 0 4 C-0.66 4 -1.32 4 -2 4 C-1.67 4.598 -1.34 5.196 -1 5.812 C0 8 0 8 0 11 C-2.64 11 -5.28 11 -8 11 C-7.513 4.667 -7.513 4.667 -5.125 1.562 C-3 0 -3 0 0 0 Z " fill="#FDD132" transform="translate(52,150)"/>
<path d="M0 0 C1.108 3.325 0.845 5.622 0 9 C-1.98 9.33 -3.96 9.66 -6 10 C-6 9.01 -6 8.02 -6 7 C-7.32 7.33 -8.64 7.66 -10 8 C-8.899 4.697 -8.31 4.215 -5.562 2.312 C-4.945 1.876 -4.328 1.439 -3.691 0.988 C-2 0 -2 0 0 0 Z " fill="#FDE042" transform="translate(70,107)"/>
<path d="M0 0 C0.743 0.082 1.485 0.165 2.25 0.25 C2.466 2.916 2.559 4.69 1.25 7.062 C-1.99 8.986 -5.033 8.433 -8.75 8.25 C-6.926 3.994 -4.886 0.444 0 0 Z " fill="#FDDF44" transform="translate(84.75,94.75)"/>
<path d="M0 0 C1 1 1 1 1.062 4.562 C1.042 5.697 1.021 6.831 1 8 C0.01 8.33 -0.98 8.66 -2 9 C-2.33 8.01 -2.66 7.02 -3 6 C-3.66 5.67 -4.32 5.34 -5 5 C-5 5.99 -5 6.98 -5 8 C-5.66 8 -6.32 8 -7 8 C-7.66 7.34 -8.32 6.68 -9 6 C-8.812 4 -8.812 4 -8 2 C-4.778 -0.148 -3.722 -0.294 0 0 Z " fill="#FDDD45" transform="translate(63,94)"/>
<path d="M0 0 C0.66 0 1.32 0 2 0 C2.536 0.928 3.073 1.856 3.625 2.812 C6.745 7 9.078 7.523 14 9 C13.67 9.165 13.67 9.165 12 10 C12 10.66 12 11.32 12 12 C7.176 12.193 3.504 11.757 -1 10 C0.32 8.68 1.64 7.36 3 6 C2.752 5.691 2.752 5.691 1.5 4.125 C0 2 0 2 0 0 Z " fill="#D98201" transform="translate(63,172)"/>
<path d="M0 0 C-0.645 3.485 -2.101 6.028 -4 9 C-5.65 8.67 -7.3 8.34 -9 8 C-9.75 6.25 -9.75 6.25 -10 4 C-7.146 -0.11 -4.84 -0.44 0 0 Z " fill="#FDD22B" transform="translate(103,113)"/>
<path d="M0 0 C2.465 1.02 3.782 1.662 5.25 3.938 C7.867 7.022 11.215 7.813 15 9 C15.33 8.34 15.66 7.68 16 7 C15.387 9.962 14.746 11.381 13 14 C10.009 13.664 9.027 13.027 6.895 10.82 C6.207 9.931 5.52 9.041 4.812 8.125 C4.118 7.241 3.423 6.356 2.707 5.445 C1 3 1 3 0 0 Z " fill="#FBC114" transform="translate(75,104)"/>
<path d="M0 0 C9.595 1.558 9.595 1.558 13 6 C11.35 5.67 9.7 5.34 8 5 C8 5.99 8 6.98 8 8 C7.34 8 6.68 8 6 8 C5.67 8.99 5.34 9.98 5 11 C3.332 8.498 2.376 6.589 1.375 3.812 C1.115 3.097 0.854 2.382 0.586 1.645 C0.393 1.102 0.199 0.559 0 0 Z " fill="#8FAD24" transform="translate(61,64)"/>
<path d="M0 0 C2.125 -0.027 4.25 -0.046 6.375 -0.062 C7.558 -0.074 8.742 -0.086 9.961 -0.098 C13 0 13 0 15 1 C15.727 2.979 16.398 4.98 17 7 C16.381 6.67 15.763 6.34 15.125 6 C13 5 13 5 11 5 C10.67 5.165 10.67 5.165 9 6 C6.836 5.004 6.836 5.004 4.375 3.562 C3.558 3.089 2.74 2.616 1.898 2.129 C1.272 1.756 0.645 1.384 0 1 C0 0.67 0 0.34 0 0 Z " fill="#95B22A" transform="translate(44,40)"/>
<path d="M0 0 C1.32 0 2.64 0 4 0 C4.75 1.625 4.75 1.625 5 4 C2.037 9.597 2.037 9.597 -1.25 10.875 C-1.828 10.916 -2.405 10.957 -3 11 C-3.75 8.875 -3.75 8.875 -4 6 C-2.312 2.688 -2.312 2.688 0 0 Z " fill="#608B17" transform="translate(110,41)"/>
<path d="M0 0 C2 1.375 2 1.375 4 3 C4 3.66 4 4.32 4 5 C4.66 5.33 5.32 5.66 6 6 C3.375 11.75 3.375 11.75 0 14 C-0.688 16.625 -0.688 16.625 -1 19 C-2.98 18.67 -4.96 18.34 -7 18 C-6.361 17.608 -5.721 17.216 -5.062 16.812 C-2.54 14.595 -2.51 13.231 -2 10 C-1.34 9.67 -0.68 9.34 0 9 C0.851 5.443 1.169 3.507 0 0 Z " fill="#597E13" transform="translate(77,29)"/>
<path d="M0 0 C-0.576 2.386 -1.222 4.667 -2 7 C-5.688 6.502 -7.605 5.899 -10 3 C-9.67 2.01 -9.34 1.02 -9 0 C-5.622 -0.845 -3.325 -1.108 0 0 Z " fill="#F9B309" transform="translate(115,103)"/>
<path d="M0 0 C0 1.32 0 2.64 0 4 C-1.715 5.633 -1.715 5.633 -3.938 7.125 C-7.917 9.834 -7.917 9.834 -9 12 C-9.99 12 -10.98 12 -12 12 C-11.18 7.355 -10.434 4.905 -6.562 2.062 C-3.992 0.336 -3.209 0 0 0 Z " fill="#FABA15" transform="translate(60,88)"/>
<path d="M0 0 C-1.257 3.875 -2.396 5.986 -6 8 C-7.32 8 -8.64 8 -10 8 C-10 6.02 -10 4.04 -10 2 C-6.492 0.396 -3.856 -0.22 0 0 Z " fill="#FDDC41" transform="translate(80,90)"/>
<path d="M0 0 C4.336 2.891 5.275 6.713 6.812 11.562 C7.057 14.746 6.163 17.059 5 20 C4.67 20 4.34 20 4 20 C3.67 17.36 3.34 14.72 3 12 C2.67 12.165 2.67 12.165 1 13 C0.67 8.71 0.34 4.42 0 0 Z " fill="#DB8714" transform="translate(120,100)"/>
<path d="M0 0 C0.99 0.33 1.98 0.66 3 1 C2.436 4.506 1.33 5.99 -1.375 8.25 C-1.981 8.771 -2.587 9.292 -3.211 9.828 C-5 11 -5 11 -8 11 C-6.527 5.991 -3.725 3.482 0 0 Z " fill="#FDD12A" transform="translate(100,140)"/>
<path d="M0 0 C1.691 0.09 3.38 0.246 5.062 0.438 C5.522 0.488 5.522 0.488 7.848 0.746 C8.558 0.83 9.268 0.914 10 1 C10.33 2.32 10.66 3.64 11 5 C7.04 5.66 3.08 6.32 -1 7 C-1.33 6.34 -1.66 5.68 -2 5 C-1.34 5 -0.68 5 0 5 C-0.093 4.68 -0.093 4.68 -0.562 3.062 C-0.635 2.722 -0.635 2.722 -1 1 C-0.67 0.67 -0.34 0.34 0 0 Z " fill="#658B27" transform="translate(112,82)"/>
<path d="M0 0 C1.5 1.375 1.5 1.375 3 3 C3 3.66 3 4.32 3 5 C3.66 5 4.32 5 5 5 C5.027 6.458 5.046 7.917 5.062 9.375 C5.074 10.187 5.086 10.999 5.098 11.836 C5 14 5 14 4 16 C3.01 15.67 2.02 15.34 1 15 C-0.271 11.833 -0.103 8.623 -0.062 5.25 C-0.053 4.265 -0.044 3.28 -0.035 2.266 C-0.024 1.518 -0.012 0.77 0 0 Z " fill="#638F11" transform="translate(76,52)"/>
<path d="M0 0 C-0.165 0.928 -0.33 1.856 -0.5 2.812 C-0.585 8.056 3.05 11.426 6.25 15.254 C8.29 18.455 8.35 20.276 8 24 C7.34 24 6.68 24 6 24 C6.08 23.277 6.16 22.554 6.242 21.809 C5.924 18.122 4.559 16.804 2.125 14.062 C-1.082 10.436 -2.489 7.564 -4 3 C-4.99 2.34 -5.98 1.68 -7 1 C-2.25 0 -2.25 0 0 0 Z " fill="#E08901" transform="translate(56,147)"/>
<path d="M0 0 C0.66 0 1.32 0 2 0 C2 0.99 2 1.98 2 3 C2.66 3 3.32 3 4 3 C4 3.66 4 4.32 4 5 C4.99 5.33 5.98 5.66 7 6 C5.376 7.147 3.751 8.293 2.125 9.438 C1.673 9.757 1.673 9.757 -0.617 11.371 C-3 13 -3 13 -5 14 C-3.125 10.125 -3.125 10.125 -2 9 C-1.609 7.488 -1.26 5.965 -0.938 4.438 C-0.761 3.611 -0.584 2.785 -0.402 1.934 C-0.27 1.296 -0.137 0.657 0 0 Z " fill="#365C0B" transform="translate(101,48)"/>
<path d="M0 0 C0 0.99 0 1.98 0 3 C-0.99 3.33 -1.98 3.66 -3 4 C-4.653 6.277 -6.054 8.653 -7.5 11.066 C-7.748 11.385 -7.748 11.385 -9 13 C-9.99 13 -10.98 13 -12 13 C-12.33 12.34 -12.66 11.68 -13 11 C-11.922 9.725 -10.837 8.455 -9.75 7.188 C-9.147 6.48 -8.543 5.772 -7.922 5.043 C-3.178 0 -3.178 0 0 0 Z " fill="#9FC127" transform="translate(99,18)"/>
<path d="M0 0 C0.99 0.33 1.98 0.66 3 1 C3.33 3.31 3.66 5.62 4 8 C2.25 8.688 2.25 8.688 0 9 C-2.25 7.562 -2.25 7.562 -4 6 C-2.848 3.532 -1.952 1.952 0 0 Z " fill="#F8BC0C" transform="translate(102,94)"/>
<path d="M0 0 C0.66 0.33 1.32 0.66 2 1 C2 1.66 2 2.32 2 3 C3.32 3.33 4.64 3.66 6 4 C5.34 4.103 4.68 4.206 4 4.312 C-1.23 5.511 -6.278 7.442 -11 10 C-8.706 4.981 -4.958 2.211 0 0 Z " fill="#759B1C" transform="translate(107,54)"/>
<path d="M0 0 C-0.33 2.97 -0.66 5.94 -1 9 C-3.31 7.35 -5.62 5.7 -8 4 C-5.903 -0.644 -5.307 -1.327 0 0 Z " fill="#F1A302" transform="translate(98,91)"/>
<path d="M0 0 C0.33 0.66 0.66 1.32 1 2 C2.65 2 4.3 2 6 2 C6 2.66 6 3.32 6 4 C5.01 4 4.02 4 3 4 C3 4.66 3 5.32 3 6 C2.34 6 1.68 6 1 6 C0.34 7.32 -0.32 8.64 -1 10 C-1.99 10 -2.98 10 -4 10 C-4.412 6.397 -4.154 5.216 -2 2.188 C-1.34 1.466 -0.68 0.744 0 0 Z " fill="#7B9C18" transform="translate(82,69)"/>
<path d="M0 0 C4.313 -0.431 7.042 -0.394 10.438 2.312 C13 5 13 5 13 8 C9.7 8 6.4 8 3 8 C3.33 9.32 3.66 10.64 4 12 C3.34 12 2.68 12 2 12 C2 10.35 2 8.7 2 7 C4.31 7 6.62 7 9 7 C8 5 8 5 5 3 C5.33 2.34 5.66 1.68 6 1 C4.02 1 2.04 1 0 1 C0 0.67 0 0.34 0 0 Z " fill="#7A9240" transform="translate(117,67)"/>
<path d="M0 0 C0.33 0 0.66 0 1 0 C1.293 6.055 1.293 6.055 1 8 C0.01 8.66 -0.98 9.32 -2 10 C-2 9.34 -2 8.68 -2 8 C-2.66 8 -3.32 8 -4 8 C-4.248 8.619 -4.495 9.237 -4.75 9.875 C-6.206 12.351 -7.378 12.951 -10 14 C-10.66 13.34 -11.32 12.68 -12 12 C-11.536 11.701 -11.536 11.701 -9.188 10.188 C-6 8 -6 8 -4.25 6.25 C-4.044 6.044 -4.044 6.044 -3 5 C-2.34 5 -1.68 5 -1 5 C-0.67 3.35 -0.34 1.7 0 0 Z " fill="#638E17" transform="translate(93,54)"/>
<path d="M0 0 C0.578 0.248 1.155 0.495 1.75 0.75 C1.418 3.85 0.695 4.805 -1.562 7.062 C-4.25 8.75 -4.25 8.75 -6.562 8.5 C-7.119 8.252 -7.676 8.005 -8.25 7.75 C-6.646 4.008 -4.562 -0.507 0 0 Z " fill="#FDE253" transform="translate(66.25,139.25)"/>
<path d="M0 0 C0.99 0 1.98 0 3 0 C3 2.97 3 5.94 3 9 C2.01 9 1.02 9 0 9 C0 8.01 0 7.02 0 6 C-1.98 6.33 -3.96 6.66 -6 7 C-5.67 5.02 -5.34 3.04 -5 1 C-4.34 1.99 -3.68 2.98 -3 4 C-2.567 3.34 -2.134 2.68 -1.688 2 C-1.131 1.34 -0.574 0.68 0 0 Z " fill="#F7CD47" transform="translate(44,107)"/>
<path d="M0 0 C2.97 0 5.94 0 9 0 C9 1.32 9 2.64 9 4 C5.709 6.338 3.053 8 -1 8 C-0.75 6.125 -0.75 6.125 0 4 C2.062 2.75 2.062 2.75 4 2 C2.68 1.34 1.36 0.68 0 0 Z " fill="#678D23" transform="translate(118,30)"/>
<path d="M0 0 C-0.613 2.962 -1.254 4.381 -3 7 C-3.99 7 -4.98 7 -6 7 C-6 7.66 -6 8.32 -6 9 C-8.798 8.614 -9.821 8.199 -11.75 6.062 C-13 4 -13 4 -13 2 C-12.34 2 -11.68 2 -11 2 C-10.67 2.495 -10.67 2.495 -9 5 C-8.01 5 -7.02 5 -6 5 C-5.856 4.68 -5.856 4.68 -5.125 3.062 C-3.723 0.492 -2.919 0 0 0 Z " fill="#FCDA41" transform="translate(77,118)"/>
<path d="M0 0 C1.98 0 3.96 0 6 0 C6.33 0.99 6.66 1.98 7 3 C6.01 3.33 5.02 3.66 4 4 C3.67 4.66 3.34 5.32 3 6 C1.68 5.67 0.36 5.34 -1 5 C-1.33 6.65 -1.66 8.3 -2 10 C-3.562 8.75 -3.562 8.75 -5 7 C-4.688 4.812 -4.688 4.812 -4 3 C-3.67 3.66 -3.34 4.32 -3 5 C-2.67 4.34 -2.34 3.68 -2 3 C-1.34 3 -0.68 3 0 3 C0 2.01 0 1.02 0 0 Z " fill="#689118" transform="translate(69,69)"/>
<path d="M0 0 C0.412 0.006 0.412 0.006 2.496 0.035 C3.322 0.044 4.149 0.053 5 0.062 C5.638 0.074 6.276 0.086 6.934 0.098 C6.934 0.758 6.934 1.418 6.934 2.098 C0.657 6.159 0.657 6.159 -3.004 5.848 C-3.685 5.6 -4.365 5.353 -5.066 5.098 C-2.661 0.126 -2.661 0.126 0 0 Z " fill="#82AC1E" transform="translate(96.06640625,65.90234375)"/>
<path d="M0 0 C1.691 0.09 3.38 0.246 5.062 0.438 C5.522 0.488 5.522 0.488 7.848 0.746 C8.558 0.83 9.268 0.914 10 1 C10 1.99 10 2.98 10 4 C9.34 4.66 8.68 5.32 8 6 C5.836 5.758 5.836 5.758 3.375 5.125 C2.966 5.023 2.966 5.023 0.898 4.508 C0.272 4.34 -0.355 4.173 -1 4 C-1 1 -1 1 0 0 Z " fill="#82A21F" transform="translate(44,58)"/>
<path d="M0 0 C1.32 0.33 2.64 0.66 4 1 C4 1.66 4 2.32 4 3 C4.66 3 5.32 3 6 3 C7.28 4.784 8.477 6.629 9.625 8.5 C10.257 9.521 10.888 10.542 11.539 11.594 C12.021 12.388 12.503 13.182 13 14 C12.01 14 11.02 14 10 14 C8.789 12.285 8.789 12.285 7.625 10.062 C5.337 6.12 5.337 6.12 2.188 5 C1.466 5 0.744 5 0 5 C0 3.35 0 1.7 0 0 Z " fill="#DC8101" transform="translate(101,133)"/>
<path d="M0 0 C0.33 0 0.66 0 1 0 C0.886 1.959 0.759 3.917 0.625 5.875 C0.555 6.966 0.486 8.056 0.414 9.18 C0 12 0 12 -2 14 C-4.438 13.312 -4.438 13.312 -7 12 C-7.812 9.375 -7.812 9.375 -8 7 C-7.01 7.165 -7.01 7.165 -2 8 C-1.34 5.36 -0.68 2.72 0 0 Z " fill="#D57C01" transform="translate(122,110)"/>
<path d="M0 0 C0.99 0.33 1.98 0.66 3 1 C3 3.97 3 6.94 3 10 C0.69 10 -1.62 10 -4 10 C-4 8.68 -4 7.36 -4 6 C-3.01 5.67 -2.02 5.34 -1 5 C-0.67 3.35 -0.34 1.7 0 0 Z " fill="#496F10" transform="translate(74,74)"/>
<path d="M0 0 C0.33 0.66 0.66 1.32 1 2 C2.65 1.34 4.3 0.68 6 0 C7.333 1.333 8.667 2.667 10 4 C9.67 4.495 9.67 4.495 8 7 C8.99 7.33 9.98 7.66 11 8 C6.443 7.464 3.767 5.511 0 3 C-2.875 2.25 -2.875 2.25 -5 2 C-5 1.67 -5 1.34 -5 1 C-3.35 0.67 -1.7 0.34 0 0 Z " fill="#737C09" transform="translate(77,83)"/>
<path d="M0 0 C0.66 0.33 1.32 0.66 2 1 C1.745 3.106 1.47 5.21 1.188 7.312 C1.037 8.484 0.886 9.656 0.73 10.863 C0.002 13.989 -0.448 15.144 -3 17 C-3.33 17 -3.66 17 -4 17 C-5.344 11.623 -5.344 11.623 -3.688 8.625 C-2 7 -2 7 0 7 C0 4.69 0 2.38 0 0 Z " fill="#698F11" transform="translate(100,40)"/>
<path d="M0 0 C1.339 0.783 2.671 1.577 4 2.375 C4.371 2.595 4.371 2.595 6.25 3.711 C6.828 4.136 7.405 4.562 8 5 C8 5.66 8 6.32 8 7 C8.99 7.33 9.98 7.66 11 8 C6.935 9.355 4.913 8.637 1 7 C-0.438 3.875 -0.438 3.875 -1 1 C-0.67 0.67 -0.34 0.34 0 0 Z " fill="#EAD2AB" transform="translate(51,177)"/>
<path d="M0 0 C1.461 2.647 2 3.894 2 7 C0.02 7 -1.96 7 -4 7 C-4.33 6.34 -4.66 5.68 -5 5 C-8.062 4.375 -8.062 4.375 -11 4 C-11 3.34 -11 2.68 -11 2 C-7.37 2 -3.74 2 0 2 C0 1.34 0 0.68 0 0 Z " fill="#6C8A18" transform="translate(57,55)"/>
<path d="M0 0 C2.228 -0.109 4.458 -0.186 6.688 -0.25 C7.929 -0.296 9.17 -0.343 10.449 -0.391 C14.57 0.063 16.124 1.081 19 4 C19.812 6.25 19.812 6.25 20 8 C19.67 8.165 19.67 8.165 18 9 C17.732 8.361 17.464 7.721 17.188 7.062 C16 5 16 5 13 4 C12.67 3.34 12.34 2.68 12 2 C5.25 2.875 5.25 2.875 3 4 C3 3.34 3 2.68 3 2 C2.01 1.34 1.02 0.68 0 0 Z " fill="#D99B06" transform="translate(63,85)"/>
<path d="M0 0 C0.66 0.33 1.32 0.66 2 1 C1.512 7.055 1.512 7.055 1 9 C-2 11 -2 11 -5 11 C-4.469 6.485 -2.634 3.653 0 0 Z " fill="#93B923" transform="translate(86,50)"/>
<path d="M0 0 C2.438 0.75 2.438 0.75 5 2 C5.33 3.32 5.66 4.64 6 6 C3.03 6.66 0.06 7.32 -3 8 C-1.125 1.125 -1.125 1.125 0 0 Z " fill="#FDD22E" transform="translate(82,156)"/>
<path d="M0 0 C0 2.31 0 4.62 0 7 C-1.031 6.752 -2.062 6.505 -3.125 6.25 C-7.823 5.947 -9.407 7.108 -13 10 C-11.533 6.133 -9.528 4.99 -6 3 C-5.67 2.34 -5.34 1.68 -5 1 C-3.318 0.474 -1.773 0 0 0 Z " fill="#E89705" transform="translate(58,115)"/>
<path d="M0 0 C0.33 1.32 0.66 2.64 1 4 C1.99 4.165 1.99 4.165 7 5 C7 5.33 7 5.66 7 6 C6.374 6.049 5.747 6.098 5.102 6.148 C4.284 6.223 3.467 6.298 2.625 6.375 C1.813 6.445 1.001 6.514 0.164 6.586 C-2 7 -2 7 -4 9 C-5.32 9 -6.64 9 -8 9 C-7.188 7.062 -7.188 7.062 -6 5 C-5.01 4.67 -4.02 4.34 -3 4 C-2.34 4.33 -1.68 4.66 -1 5 C-0.67 3.35 -0.34 1.7 0 0 Z " fill="#516007" transform="translate(93,81)"/>
<path d="M0 0 C1.32 1.32 2.64 2.64 4 4 C4.66 3.67 5.32 3.34 6 3 C6 5.97 6 8.94 6 12 C4.68 12 3.36 12 2 12 C1.34 8.04 0.68 4.08 0 0 Z " fill="#5F8911" transform="translate(86,74)"/>
<path d="M0 0 C0.66 0.33 1.32 0.66 2 1 C0 4 0 4 -3.035 4.715 C-7.566 5.041 -11.913 4.88 -16.438 4.562 C-16.851 4.536 -16.851 4.536 -18.943 4.404 C-20.963 4.276 -22.981 4.139 -25 4 C-25 3.67 -25 3.34 -25 3 C-23.698 2.951 -22.396 2.902 -21.055 2.852 C-19.328 2.776 -17.602 2.701 -15.875 2.625 C-15.447 2.61 -15.447 2.61 -13.281 2.531 C-8.468 2.309 -4.571 1.638 0 0 Z " fill="#D2AA74" transform="translate(101,183)"/>
<path d="M0 0 C0.66 0 1.32 0 2 0 C1.512 6.055 1.512 6.055 1 8 C-1.619 9.746 -3.038 10.387 -6 11 C-4.55 6.892 -2.602 3.497 0 0 Z " fill="#85AB18" transform="translate(96,21)"/>
<path d="M0 0 C2 2 2 2 2.438 4.812 C1.861 9.013 0.159 10.292 -3 13 C-3.66 13.66 -4.32 14.32 -5 15 C-5.99 14.67 -6.98 14.34 -8 14 C-7.526 13.68 -7.526 13.68 -5.125 12.062 C-1.129 8.802 -0.623 4.928 0 0 Z " fill="#F8B308" transform="translate(97,101)"/>
<path d="M0 0 C-0.33 1.32 -0.66 2.64 -1 4 C0.65 3.34 2.3 2.68 4 2 C2.35 3.65 0.7 5.3 -1 7 C-1.66 6.67 -2.32 6.34 -3 6 C-3 5.01 -3 4.02 -3 3 C-4.65 3.33 -6.3 3.66 -8 4 C-8 3.01 -8 2.02 -8 1 C-3.375 -1.125 -3.375 -1.125 0 0 Z " fill="#577D1D" transform="translate(121,56)"/>
<path d="M0 0 C1.98 0 3.96 0 6 0 C6.33 1.32 6.66 2.64 7 4 C5.02 4.99 3.04 5.98 1 7 C0 6 0 6 -0.062 2.938 C-0.042 1.968 -0.021 0.999 0 0 Z " fill="#FCC119" transform="translate(65,168)"/>
<path d="M0 0 C2 1 2 1 2.625 2.562 C3.164 6.064 3.059 9.458 3 13 C2.01 13 1.02 13 0 13 C-1.016 8.371 -0.838 4.655 0 0 Z " fill="#EB9809" transform="translate(125,121)"/>
<path d="M0 0 C0.825 0.33 0.825 0.33 5 2 C4.526 2.578 4.051 3.155 3.562 3.75 C2 6 2 6 1.5 8 C0.873 10.507 -0.375 12.022 -2 14 C-2.66 13.34 -3.32 12.68 -4 12 C-3.505 11.649 -3.01 11.299 -2.5 10.938 C-0.277 8.066 -0.871 5.534 -1 2 C-0.67 1.34 -0.34 0.68 0 0 Z " fill="#749A16" transform="translate(83,44)"/>
<path d="M0 0 C2.64 0.33 5.28 0.66 8 1 C5.361 2.414 2.929 3.372 0 4 C-0.33 5.65 -0.66 7.3 -1 9 C-2.5 7.75 -2.5 7.75 -4 6 C-4 4.68 -4 3.36 -4 2 C-2.68 2 -1.36 2 0 2 C0 1.34 0 0.68 0 0 Z " fill="#FBC71B" transform="translate(71,88)"/>
<path d="M0 0 C0.66 0 1.32 0 2 0 C4.125 5.625 4.125 5.625 3 9 C2.01 9.33 1.02 9.66 0 10 C-1.98 7.36 -3.96 4.72 -6 2 C-4 3 -2 4 0 5 C0 3.35 0 1.7 0 0 Z " fill="#517A13" transform="translate(60,65)"/>
<path d="M0 0 C0.99 0.33 1.98 0.66 3 1 C2.814 1.598 2.629 2.196 2.438 2.812 C2 5 2 5 3 8 C1.562 10.188 1.562 10.188 0 12 C-0.99 11.67 -1.98 11.34 -3 11 C-3 10.34 -3 9.68 -3 9 C-2.01 9 -1.02 9 0 9 C-0.186 8.257 -0.371 7.515 -0.562 6.75 C-0.992 4.05 -0.851 2.554 0 0 Z " fill="#F7BC13" transform="translate(87,130)"/>
<path d="M0 0 C-0.99 0.33 -1.98 0.66 -3 1 C-3.072 1.299 -3.072 1.299 -3.438 2.812 C-4.205 5.799 -5.65 7.065 -8 9 C-8.99 9 -9.98 9 -11 9 C-11 8.01 -11 7.02 -11 6 C-10.34 6 -9.68 6 -9 6 C-8.67 5.01 -8.34 4.02 -8 3 C-5.633 -0.195 -3.868 -0.314 0 0 Z " fill="#FEE760" transform="translate(90,124)"/>
<path d="M0 0 C0.66 0.66 1.32 1.32 2 2 C-4.561 9.634 -4.561 9.634 -8.09 10.531 C-10 10.5 -10 10.5 -13 10 C-5.286 4 -5.286 4 -2 4 C-1.34 2.68 -0.68 1.36 0 0 Z " fill="#EC9C07" transform="translate(98,109)"/>
<path d="M0 0 C0.66 0 1.32 0 2 0 C1.67 0.578 1.34 1.155 1 1.75 C-0.315 4.708 -0.29 7.053 0.656 10.141 C0.935 10.837 1.213 11.533 1.5 12.25 C1.639 12.603 1.639 12.603 2.344 14.391 C2.56 14.922 2.777 15.453 3 16 C1.68 16.33 0.36 16.66 -1 17 C-3.54 7.364 -3.54 7.364 -2 3 C-1.34 2.01 -0.68 1.02 0 0 Z " fill="#D68002" transform="translate(100,93)"/>
<path d="M0 0 C2.721 0.272 3.86 0.869 5.875 2.75 C7 5 7 5 6.188 7.75 C5.796 8.492 5.404 9.235 5 10 C4.546 9.381 4.093 8.762 3.625 8.125 C2 6 2 6 0 4 C-0.33 3.01 -0.66 2.02 -1 1 C-0.67 0.67 -0.34 0.34 0 0 Z " fill="#87A52C" transform="translate(59,19)"/>
<path d="M0 0 C0.66 0 1.32 0 2 0 C2.312 2.812 2.312 2.812 2 6 C-0.375 7.938 -0.375 7.938 -3 9 C-3.66 8.67 -4.32 8.34 -5 8 C-3.631 5.05 -2.122 2.475 0 0 Z " fill="#E48E03" transform="translate(104,174)"/>
<path d="M0 0 C1.534 3.069 0.55 5.701 0 9 C-0.206 8.763 -0.206 8.763 -1.25 7.562 C-3.182 5.837 -4.482 5.434 -7 5 C-7.33 3.68 -7.66 2.36 -8 1 C-5.36 0.67 -2.72 0.34 0 0 Z " fill="#E29002" transform="translate(73,131)"/>
<path d="M0 0 C3.125 -0.188 3.125 -0.188 6 0 C6.33 0.66 6.66 1.32 7 2 C6.67 2.66 6.34 3.32 6 4 C5.34 4 4.68 4 4 4 C3.67 5.32 3.34 6.64 3 8 C2.01 8 1.02 8 0 8 C0.99 6.35 1.98 4.7 3 3 C1.35 3 -0.3 3 -2 3 C-1.34 2.01 -0.68 1.02 0 0 Z " fill="#FDCC21" transform="translate(100,110)"/>
<path d="M0 0 C0.33 0.66 0.66 1.32 1 2 C1.66 2 2.32 2 3 2 C3 2.99 3 3.98 3 5 C1.369 6.058 -0.303 7.053 -2 8 C-3.812 9.688 -3.812 9.688 -5 11 C-4.469 6.485 -2.634 3.653 0 0 Z " fill="#F4B114" transform="translate(45,101)"/>
<path d="M0 0 C-0.99 0.33 -1.98 0.66 -3 1 C-3 2.65 -3 4.3 -3 6 C-3.33 6.165 -3.33 6.165 -5 7 C-7.248 4.948 -8.002 3.993 -9 1 C-5.649 -1.11 -3.779 -1.05 0 0 Z " fill="#60831E" transform="translate(122,73)"/>
<path d="M0 0 C0.33 0.66 0.66 1.32 1 2 C1.66 2.33 2.32 2.66 3 3 C2.349 3.732 2.349 3.732 -0.906 7.395 C-2 9 -2 9 -2 12 C-2.99 11.67 -3.98 11.34 -5 11 C-3.775 6.947 -2.301 3.556 0 0 Z " fill="#456D11" transform="translate(112,58)"/>
<path d="M0 0 C5.694 -0.899 9.156 1.528 13.828 4.395 C16 6 16 6 18 9 C15 9 15 9 12.938 7.25 C8.969 4.21 4.667 2.704 0 1 C0 0.67 0 0.34 0 0 Z " fill="#6D8A2B" transform="translate(60,20)"/>
<path d="M0 0 C0.33 0 0.66 0 1 0 C1.66 3.3 2.32 6.6 3 10 C4.65 10.33 6.3 10.66 8 11 C8.33 10.34 8.66 9.68 9 9 C9 9.99 9 10.98 9 12 C6.69 12.66 4.38 13.32 2 14 C-1.629 4.59 -1.629 4.59 0 0 Z " fill="#F4AD0D" transform="translate(50,103)"/>
<path d="M0 0 C0.33 0 0.66 0 1 0 C1.049 0.915 1.098 1.83 1.148 2.773 C1.223 3.962 1.298 5.15 1.375 6.375 C1.445 7.558 1.514 8.742 1.586 9.961 C2 13 2 13 4 15 C4.625 17.125 4.625 17.125 5 19 C3.68 19 2.36 19 1 19 C-0.266 15.133 -0.112 11.268 -0.062 7.25 C-0.058 6.553 -0.053 5.855 -0.049 5.137 C-0.037 3.424 -0.019 1.712 0 0 Z " fill="#8CA84D" transform="translate(101,23)"/>
<path d="M0 0 C0.99 0.33 1.98 0.66 3 1 C2.67 1.66 2.34 2.32 2 3 C-0.882 3.961 -2.699 4.106 -5.688 4.062 C-6.092 4.058 -6.092 4.058 -8.137 4.035 C-8.444 4.029 -8.444 4.029 -10 4 C-9.67 3.01 -9.34 2.02 -9 1 C-7.886 1.021 -6.772 1.041 -5.625 1.062 C-2 1 -2 1 0 0 Z " fill="#F6E7CE" transform="translate(123,183)"/>
<path d="M0 0 C0.33 0.99 0.66 1.98 1 3 C-1.666 6.451 -4.873 7.042 -9 8 C-9.99 8 -10.98 8 -12 8 C-10.875 6 -10.875 6 -9 4 C-5.812 3.75 -5.812 3.75 -3 4 C-3 3.34 -3 2.68 -3 2 C-2.01 2 -1.02 2 0 2 C0 1.34 0 0.68 0 0 Z " fill="#FAC115" transform="translate(69,101)"/>
<path d="M0 0 C3.282 0.438 4.848 1.526 7 4 C6.67 4.495 6.67 4.495 5 7 C2.378 5.951 1.206 5.351 -0.25 2.875 C-0.498 2.256 -0.745 1.638 -1 1 C-0.67 0.67 -0.34 0.34 0 0 Z " fill="#D38103" transform="translate(108,91)"/>
<path d="M0 0 C0.99 0 1.98 0 3 0 C2.502 3.688 1.899 5.605 -1 8 C-1 7.34 -1 6.68 -1 6 C-2.32 5.67 -3.64 5.34 -5 5 C-3.625 3.5 -3.625 3.5 -2 2 C-1.34 2 -0.68 2 0 2 C0 1.34 0 0.68 0 0 Z " fill="#649218" transform="translate(103,69)"/>
<path d="M0 0 C0.675 0.156 1.351 0.312 2.047 0.473 C2.939 0.667 3.831 0.862 4.75 1.062 C5.191 1.161 5.191 1.161 7.422 1.66 C9.987 1.998 11.571 1.812 14 1 C14 1.66 14 2.32 14 3 C13.67 3.165 13.67 3.165 12 4 C12 4.99 12 5.98 12 7 C8.04 5.35 4.08 3.7 0 2 C0 1.34 0 0.68 0 0 Z " fill="#718D2A" transform="translate(42,61)"/>
<path d="M0 0 C2.494 1.204 4.681 2.454 7 4 C6 5 6 5 4.152 5.098 C2.102 5.065 0.051 5.033 -2 5 C-2.33 4.01 -2.66 3.02 -3 2 C-2.01 1.34 -1.02 0.68 0 0 Z " fill="#82AA20" transform="translate(111,52)"/>
<path d="M0 0 C1.65 0 3.3 0 5 0 C5.33 1.65 5.66 3.3 6 5 C0.462 5.369 0.462 5.369 -1.875 3.5 C-2.246 3.005 -2.618 2.51 -3 2 C-2.01 2 -1.02 2 0 2 C0 1.34 0 0.68 0 0 Z " fill="#5E8120" transform="translate(129,51)"/>
<path d="M0 0 C0.66 0 1.32 0 2 0 C3.402 1.461 3.402 1.461 4.938 3.375 C6.92 5.839 8.307 7.205 11 9 C11 9.66 11 10.32 11 11 C5.846 9.636 2.934 6.274 0 2 C0 1.34 0 0.68 0 0 Z " fill="#ED9A07" transform="translate(44,166)"/>
<path d="M0 0 C0.33 1.32 0.66 2.64 1 4 C0.34 4.33 0.34 4.33 -3 6 C-3 6.66 -3 7.32 -3 8 C-4.961 9.389 -6.962 10.726 -9 12 C-7.678 8.033 -6.082 5.802 -3 3 C-2.422 2.423 -1.845 1.845 -1.25 1.25 C-0.838 0.838 -0.425 0.425 0 0 Z " fill="#FABC0B" transform="translate(99,132)"/>
<path d="M0 0 C0.66 0.33 1.32 0.66 2 1 C1.67 1.495 1.67 1.495 0 4 C0.99 4.66 1.98 5.32 3 6 C-0.29 7.097 -1.713 6.8 -5 6 C-5.33 4.68 -5.66 3.36 -6 2 C-5.598 1.928 -5.598 1.928 -3.562 1.562 C-1 1 -1 1 0 0 Z " fill="#506409" transform="translate(108,83)"/>
<path d="M0 0 C0.33 0.66 0.66 1.32 1 2 C0.34 2.433 -0.32 2.866 -1 3.312 C-1.66 3.869 -2.32 4.426 -3 5 C-3 5.99 -3 6.98 -3 8 C-7.875 6.25 -7.875 6.25 -9 4 C-7.68 4.33 -6.36 4.66 -5 5 C-5.33 3.68 -5.66 2.36 -6 1 C-4.02 0.67 -2.04 0.34 0 0 Z " fill="#D9800A" transform="translate(60,172)"/>
<path d="M0 0 C0.66 0 1.32 0 2 0 C1.01 2.97 0.02 5.94 -1 9 C-2.65 9 -4.3 9 -6 9 C-6.33 8.01 -6.66 7.02 -7 6 C-6.216 5.567 -5.433 5.134 -4.625 4.688 C-2 3 -2 3 0 0 Z " fill="#557D12" transform="translate(89,62)"/>
<path d="M0 0 C0.33 1.32 0.66 2.64 1 4 C-2.788 7.611 -2.788 7.611 -5 9 C-7.875 8.812 -7.875 8.812 -10 8 C-9.443 7.773 -8.886 7.546 -8.312 7.312 C-5.363 5.638 -3.325 3.45 -1 1 C-0.67 0.67 -0.34 0.34 0 0 Z " fill="#F8C216" transform="translate(80,91)"/>
<path d="M0 0 C0.505 0.006 0.505 0.006 3.059 0.035 C4.071 0.044 5.082 0.053 6.125 0.062 C6.516 0.068 6.516 0.068 8.496 0.098 C8.826 0.758 9.156 1.418 9.496 2.098 C8.836 2.758 8.176 3.418 7.496 4.098 C5.402 3.891 5.402 3.891 2.996 3.285 C2.202 3.093 1.408 2.901 0.59 2.703 C-1.504 2.098 -1.504 2.098 -3.504 1.098 C-2.504 0.098 -2.504 0.098 0 0 Z " fill="#C78401" transform="translate(93.50390625,86.90234375)"/>
<path d="M0 0 C1.708 1.634 2.935 2.869 4 5 C4.66 4.34 5.32 3.68 6 3 C6 4.98 6 6.96 6 9 C2.894 9 1.647 8.461 -1 7 C-0.34 6.01 0.32 5.02 1 4 C0.625 1.812 0.625 1.812 0 0 Z " fill="#568412" transform="translate(68,56)"/>
<path d="M0 0 C0.99 0 1.98 0 3 0 C2.401 3.356 1.154 5.378 -1 8 C-1.99 7.67 -2.98 7.34 -4 7 C-3.34 5.35 -2.68 3.7 -2 2 C-1.34 2 -0.68 2 0 2 C0 1.34 0 0.68 0 0 Z " fill="#FDDA3E" transform="translate(100,113)"/>
<path d="M0 0 C-0.33 0.66 -0.66 1.32 -1 2 C-1 2.66 -1 3.32 -1 4 C-2.32 3.67 -3.64 3.34 -5 3 C-5.33 3.66 -5.66 4.32 -6 5 C-6.99 4.34 -7.98 3.68 -9 3 C-7 0 -7 0 -4.5 -0.75 C-2 -1 -2 -1 0 0 Z " fill="#96B43A" transform="translate(57,70)"/>
<path d="M0 0 C0.99 0.33 1.98 0.66 3 1 C3 1.66 3 2.32 3 3 C2.01 3 1.02 3 0 3 C0 3.66 0 4.32 0 5 C-3.462 8 -3.462 8 -6 8 C-6 6.68 -6 5.36 -6 4 C-4.02 3.34 -2.04 2.68 0 2 C0 1.34 0 0.68 0 0 Z " fill="#74A019" transform="translate(103,66)"/>
<path d="M0 0 C3 3.75 3 3.75 3 6 C4.65 6 6.3 6 8 6 C8.33 6.99 8.66 7.98 9 9 C3.65 8.627 1.491 7.004 -2 3 C-1.34 3 -0.68 3 0 3 C0 2.01 0 1.02 0 0 Z " fill="#486B13" transform="translate(67,41)"/>
<path d="M0 0 C0.66 0 1.32 0 2 0 C0.533 5.5 0.533 5.5 -2 7.875 C-4 9 -4 9 -6 9 C-4.472 5.562 -2.498 2.81 0 0 Z " fill="#F7B90D" transform="translate(113,126)"/>
<path d="M0 0 C0.99 0.33 1.98 0.66 3 1 C2.01 3.31 1.02 5.62 0 8 C-0.33 7.34 -0.66 6.68 -1 6 C-1.66 6 -2.32 6 -3 6 C-2.625 3.562 -2.625 3.562 -2 1 C-1.34 0.67 -0.68 0.34 0 0 Z " fill="#588211" transform="translate(107,61)"/>
<path d="M0 0 C0.598 0.165 1.196 0.33 1.812 0.5 C4 1 4 1 7 1 C5.571 2.033 4.132 3.051 2.688 4.062 C2.287 4.347 2.287 4.347 0.262 5.785 C-0.485 6.186 -1.231 6.587 -2 7 C-2.99 6.67 -3.98 6.34 -5 6 C-3.35 5.34 -1.7 4.68 0 4 C0 2.68 0 1.36 0 0 Z " fill="#C67514" transform="translate(106,176)"/>
<path d="M0 0 C-0.021 1.072 -0.041 2.145 -0.062 3.25 C-0.014 6.148 0.132 8.286 1 11 C-2.66 8.56 -2.653 7.042 -4 3 C-4.99 2.34 -5.98 1.68 -7 1 C-2.25 0 -2.25 0 0 0 Z " fill="#D78100" transform="translate(56,147)"/>
<path d="M0 0 C1.65 0.33 3.3 0.66 5 1 C5 2.65 5 4.3 5 6 C2 6 2 6 0.312 4.5 C-0.121 4.005 -0.554 3.51 -1 3 C-0.67 2.01 -0.34 1.02 0 0 Z " fill="#FDE154" transform="translate(50,121)"/>
<path d="M0 0 C0.99 0.33 1.98 0.66 3 1 C1.68 3.64 0.36 6.28 -1 9 C-1.33 9 -1.66 9 -2 9 C-2.688 6.188 -2.688 6.188 -3 3 C-1.562 1.125 -1.562 1.125 0 0 Z " fill="#769C18" transform="translate(90,46)"/>
<path d="M0 0 C0.99 0.309 1.98 0.619 3 0.938 C6.977 2.084 10.888 2.567 15 3 C15 3.33 15 3.66 15 4 C13.063 4.054 11.125 4.093 9.188 4.125 C8.109 4.148 7.03 4.171 5.918 4.195 C3 4 3 4 0 2 C0 1.34 0 0.68 0 0 Z " fill="#DAB57E" transform="translate(59,182)"/>
<path d="M0 0 C0.66 0 1.32 0 2 0 C1.67 3.3 1.34 6.6 1 10 C0.34 10 -0.32 10 -1 10 C-1.977 3.945 -1.977 3.945 -2 2 C-1.34 1.34 -0.68 0.68 0 0 Z " fill="#DE870F" transform="translate(122,156)"/>
<path d="M0 0 C0.99 0.33 1.98 0.66 3 1 C3 2.32 3 3.64 3 5 C1.35 5.66 -0.3 6.32 -2 7 C-2.125 4.625 -2.125 4.625 -2 2 C-1.34 1.34 -0.68 0.68 0 0 Z " fill="#FDD238" transform="translate(39,134)"/>
<path d="M0 0 C-0.33 0.495 -0.33 0.495 -2 3 C-8.152 2.414 -8.152 2.414 -10 2 C-10.33 1.34 -10.66 0.68 -11 0 C-7.018 -1.054 -4.018 -0.841 0 0 Z " fill="#E79503" transform="translate(67,178)"/>
<path d="M0 0 C0.99 0.103 1.98 0.206 3 0.312 C3.66 1.303 4.32 2.292 5 3.312 C4.618 3.302 4.618 3.302 2.688 3.25 C0 3.312 0 3.312 -3 4.312 C-3.66 3.653 -4.32 2.993 -5 2.312 C-3 0.312 -3 0.312 0 0 Z " fill="#F5A70D" transform="translate(61,174.6875)"/>
<path d="M0 0 C2.625 -0.188 2.625 -0.188 5 0 C2.192 2.964 -0.183 5.445 -4 7 C-2.796 4.506 -1.546 2.319 0 0 Z " fill="#EEA704" transform="translate(76,155)"/>
<path d="M0 0 C0.66 0.99 1.32 1.98 2 3 C-0.31 4.98 -2.62 6.96 -5 9 C-5.33 8.34 -5.66 7.68 -6 7 C-5.67 6.34 -5.34 5.68 -5 5 C-4.34 5 -3.68 5 -3 5 C-3 4.34 -3 3.68 -3 3 C-1.5 1.375 -1.5 1.375 0 0 Z " fill="#DD8902" transform="translate(111,151)"/>
<path d="M0 0 C3.596 3.494 6.835 7.111 10 11 C9.01 11 8.02 11 7 11 C5.176 9.102 5.176 9.102 3.312 6.625 C2.69 5.813 2.067 5.001 1.426 4.164 C0 2 0 2 0 0 Z " fill="#EEA306" transform="translate(73,139)"/>
<path d="M0 0 C0.99 0.33 1.98 0.66 3 1 C-0.173 4.536 -2.167 6.586 -7 7 C-2.25 1.125 -2.25 1.125 0 0 Z " fill="#FBBE13" transform="translate(61,137)"/>
<path d="M0 0 C3 1 3 1 5 4 C5 4.99 5 5.98 5 7 C6.65 7 8.3 7 10 7 C9.34 7.66 8.68 8.32 8 9 C6.016 8.879 6.016 8.879 4 8 C2.734 6.152 2.734 6.152 1.75 3.938 C1.415 3.204 1.08 2.471 0.734 1.715 C0.492 1.149 0.25 0.583 0 0 Z " fill="#FBC011" transform="translate(44,137)"/>
<path d="M0 0 C1.32 0 2.64 0 4 0 C4.33 1.65 4.66 3.3 5 5 C3.35 5.33 1.7 5.66 0 6 C-0.382 4.344 -0.714 2.675 -1 1 C-0.67 0.67 -0.34 0.34 0 0 Z " fill="#FBC71E" transform="translate(40,113)"/>
<path d="M0 0 C1.953 0.68 1.953 0.68 4 2 C4.609 4.383 4.609 4.383 4.75 7.125 C4.807 8.035 4.863 8.945 4.922 9.883 C4.948 10.581 4.973 11.28 5 12 C2.981 8.103 1.51 4.118 0 0 Z " fill="#FCC71C" transform="translate(90,95)"/>
<path d="M0 0 C0.99 0 1.98 0 3 0 C3 1.98 3 3.96 3 6 C2.01 6.33 1.02 6.66 0 7 C-0.381 5.009 -0.713 3.007 -1 1 C-0.67 0.67 -0.34 0.34 0 0 Z " fill="#FBE162" transform="translate(61,96)"/>
<path d="M0 0 C0.33 0 0.66 0 1 0 C0.886 1.772 0.758 3.542 0.625 5.312 C0.555 6.299 0.486 7.285 0.414 8.301 C0 11 0 11 -2 14 C-2.66 14 -3.32 14 -4 14 C-3.682 13.437 -3.363 12.873 -3.035 12.293 C-1.933 9.851 -1.644 7.97 -1.438 5.312 C-1.1 1.1 -1.1 1.1 0 0 Z " fill="#527B10" transform="translate(95,52)"/>
<path d="M0 0 C0.66 0.33 1.32 0.66 2 1 C-0.31 3.97 -2.62 6.94 -5 10 C-5.66 9.34 -6.32 8.68 -7 8 C-4.69 5.36 -2.38 2.72 0 0 Z " fill="#EAECDD" transform="translate(125,34)"/>
<path d="M0 0 C0.66 0.66 1.32 1.32 2 2 C0.35 3.65 -1.3 5.3 -3 7 C-3.99 6.01 -4.98 5.02 -6 4 C-4.02 2.68 -2.04 1.36 0 0 Z " fill="#ED9E07" transform="translate(47,149)"/>
<path d="M0 0 C0.66 0 1.32 0 2 0 C2.33 1.32 2.66 2.64 3 4 C2.34 4 1.68 4 1 4 C0.67 4.66 0.34 5.32 0 6 C-1.979 6.727 -3.98 7.398 -6 8 C-4.625 6 -4.625 6 -3 4 C-2.34 4 -1.68 4 -1 4 C-0.67 2.68 -0.34 1.36 0 0 Z " fill="#FDD62F" transform="translate(68,140)"/>
<path d="M0 0 C0 0.99 0 1.98 0 3 C-0.99 3.33 -1.98 3.66 -3 4 C-3 4.99 -3 5.98 -3 7 C-4.32 7 -5.64 7 -7 7 C-7.33 6.01 -7.66 5.02 -8 4 C-6.866 3.526 -5.731 3.051 -4.562 2.562 C-1 1 -1 1 0 0 Z " fill="#FBC11B" transform="translate(73,126)"/>
<path d="M0 0 C2.31 0.66 4.62 1.32 7 2 C7.33 1.34 7.66 0.68 8 0 C7.67 1.32 7.34 2.64 7 4 C5.35 4.33 3.7 4.66 2 5 C1.34 3.35 0.68 1.7 0 0 Z " fill="#FBC921" transform="translate(83,111)"/>
<path d="M0 0 C0.99 0.99 1.98 1.98 3 3 C1.35 2.67 -0.3 2.34 -2 2 C-2 2.99 -2 3.98 -2 5 C-2.66 5 -3.32 5 -4 5 C-4.33 5.99 -4.66 6.98 -5 8 C-5.66 6.68 -6.32 5.36 -7 4 C-6.01 3.67 -5.02 3.34 -4 3 C-3.67 2.34 -3.34 1.68 -3 1 C-2.01 0.67 -1.02 0.34 0 0 Z " fill="#80A520" transform="translate(71,67)"/>
<path d="M0 0 C2.526 2.363 3.888 3.665 5 7 C4.67 7.66 4.34 8.32 4 9 C3.01 8.67 2.02 8.34 1 8 C0.67 5.36 0.34 2.72 0 0 Z " fill="#528111" transform="translate(76,59)"/>
<path d="M0 0 C2.724 2.353 3.814 4.625 5 8 C1.73 7.436 0.174 6.5 -2 4 C-1.01 4 -0.02 4 1 4 C0.67 2.68 0.34 1.36 0 0 Z " fill="#3B590D" transform="translate(58,55)"/>
<path d="M0 0 C-2.938 2.503 -5.179 3.469 -9 4 C-9.33 3.01 -9.66 2.02 -10 1 C-6.15 -1.567 -4.414 -0.833 0 0 Z " fill="#638A23" transform="translate(129,56)"/>
<path d="M0 0 C0.33 1.32 0.66 2.64 1 4 C3.64 4.33 6.28 4.66 9 5 C9 5.33 9 5.66 9 6 C7.02 6.165 7.02 6.165 -3 7 C-1 2 -1 2 0 0 Z " fill="#DDE3CE" transform="translate(117,43)"/>
<path d="M0 0 C0.99 0 1.98 0 3 0 C1.557 3.366 -0.333 5.51 -3 8 C-3 6.02 -3 4.04 -3 2 C-2.01 1.67 -1.02 1.34 0 1 C0 0.67 0 0.34 0 0 Z " fill="#50751D" transform="translate(119,36)"/>
<path d="M0 0 C1.062 1.875 1.062 1.875 2 4 C1.67 4.66 1.34 5.32 1 6 C-0.65 5.67 -2.3 5.34 -4 5 C-2.25 1.125 -2.25 1.125 0 0 Z " fill="#8DB122" transform="translate(88,29)"/>
<path d="M0 0 C0 0.99 0 1.98 0 3 C-0.99 3.33 -1.98 3.66 -3 4 C-4.688 6.062 -4.688 6.062 -6 8 C-6.33 6.68 -6.66 5.36 -7 4 C-2.25 0 -2.25 0 0 0 Z " fill="#93B521" transform="translate(99,18)"/>
<path d="M0 0 C-1.32 1.65 -2.64 3.3 -4 5 C-4 4.34 -4 3.68 -4 3 C-4.99 2.835 -4.99 2.835 -10 2 C-10 1.67 -10 1.34 -10 1 C-3.375 -1.125 -3.375 -1.125 0 0 Z " fill="#ED9E04" transform="translate(93,149)"/>
<path d="M0 0 C0 0.66 0 1.32 0 2 C-1.65 2.66 -3.3 3.32 -5 4 C-5.33 2.68 -5.66 1.36 -6 0 C-3.509 -1.245 -2.589 -0.777 0 0 Z " fill="#FBC116" transform="translate(98,91)"/>
<path d="M0 0 C0.99 0.33 1.98 0.66 3 1 C3 3.97 3 6.94 3 10 C1.35 10 -0.3 10 -2 10 C-0.68 9.67 0.64 9.34 2 9 C1.67 8.257 1.34 7.515 1 6.75 C0 4 0 4 0 0 Z " fill="#395E0A" transform="translate(74,74)"/>
<path d="M0 0 C0.99 0.165 0.99 0.165 6 1 C6 1.66 6 2.32 6 3 C3.69 3.33 1.38 3.66 -1 4 C-0.67 2.68 -0.34 1.36 0 0 Z " fill="#4C7410" transform="translate(114,69)"/>
<path d="M0 0 C1.32 0.99 2.64 1.98 4 3 C3.67 4.65 3.34 6.3 3 8 C2.34 7.67 1.68 7.34 1 7 C0.593 4.678 0.256 2.343 0 0 Z " fill="#FCB60D" transform="translate(38,153)"/>
<path d="M0 0 C0.33 0.99 0.66 1.98 1 3 C-1.31 4.98 -3.62 6.96 -6 9 C-4.688 5.063 -3.081 2.773 0 0 Z " fill="#EFA604" transform="translate(99,136)"/>
<path d="M0 0 C2.31 0.33 4.62 0.66 7 1 C7 1.99 7 2.98 7 4 C4.69 3.67 2.38 3.34 0 3 C0 2.01 0 1.02 0 0 Z " fill="#FDDF3F" transform="translate(49,129)"/>
<path d="M0 0 C0.99 0 1.98 0 3 0 C3 2.97 3 5.94 3 9 C2.34 9 1.68 9 1 9 C1.021 8.257 1.041 7.515 1.062 6.75 C1.007 4.295 0.693 2.339 0 0 Z " fill="#FDE15E" transform="translate(44,107)"/>
<path d="M0 0 C0.99 0.33 1.98 0.66 3 1 C2.67 2.65 2.34 4.3 2 6 C1.01 6.33 0.02 6.66 -1 7 C-1.33 5.02 -1.66 3.04 -2 1 C-1.34 0.67 -0.68 0.34 0 0 Z " fill="#608512" transform="translate(97,50)"/>
<path d="M0 0 C0.99 0.99 1.98 1.98 3 3 C2.34 3 1.68 3 1 3 C1.33 4.98 1.66 6.96 2 9 C0.5 7.812 0.5 7.812 -1 6 C-1.25 3.375 -1.25 3.375 -1 1 C-0.67 0.67 -0.34 0.34 0 0 Z " fill="#7AA319" transform="translate(67,46)"/>
<path d="M0 0 C0.33 1.32 0.66 2.64 1 4 C-4.75 2.25 -4.75 2.25 -7 0 C-3.867 -1.044 -3.01 -0.934 0 0 Z " fill="#8BA729" transform="translate(54,42)"/>
<path d="M0 0 C0.33 0.99 0.66 1.98 1 3 C0.67 3.495 0.67 3.495 -1 6 C-1 7.32 -1 8.64 -1 10 C-1.66 10 -2.32 10 -3 10 C-3.66 7.69 -4.32 5.38 -5 3 C-4.01 3 -3.02 3 -2 3 C-1.34 2.01 -0.68 1.02 0 0 Z " fill="#669012" transform="translate(107,39)"/>
<path d="M0 0 C3.536 1.911 5.79 3.626 8 7 C7.443 6.691 6.886 6.381 6.312 6.062 C3.875 4.942 1.638 4.44 -1 4 C-0.67 2.68 -0.34 1.36 0 0 Z " fill="#CD7100" transform="translate(99,166)"/>
<path d="M0 0 C2.25 0.25 2.25 0.25 4 1 C1.688 3.062 1.688 3.062 -1 5 C-1.99 4.67 -2.98 4.34 -4 4 C-2.25 1.938 -2.25 1.938 0 0 Z " fill="#FABD14" transform="translate(69,158)"/>
<path d="M0 0 C0.33 0.165 0.33 0.165 2 1 C2 1.66 2 2.32 2 3 C3.65 3 5.3 3 7 3 C6.67 4.32 6.34 5.64 6 7 C3.562 6.312 3.562 6.312 1 5 C0.188 2.375 0.188 2.375 0 0 Z " fill="#CA6B00" transform="translate(114,117)"/>
<path d="M0 0 C0.66 0.33 1.32 0.66 2 1 C1.34 2.32 0.68 3.64 0 5 C-1.32 5 -2.64 5 -4 5 C-2.25 1.125 -2.25 1.125 0 0 Z " fill="#58720C" transform="translate(89,85)"/>
<path d="M0 0 C0.33 0.99 0.66 1.98 1 3 C-0.29 4.376 -1.627 5.708 -3 7 C-3.66 7 -4.32 7 -5 7 C-5 6.01 -5 5.02 -5 4 C-4.68 3.948 -4.68 3.948 -3.062 3.688 C-2.382 3.461 -1.701 3.234 -1 3 C-0.67 2.01 -0.34 1.02 0 0 Z " fill="#87A718" transform="translate(83,72)"/>
<path d="M0 0 C1.134 0.021 2.269 0.041 3.438 0.062 C3.438 0.722 3.438 1.382 3.438 2.062 C0.562 2.688 0.562 2.688 -2.562 3.062 C-3.222 2.403 -3.882 1.743 -4.562 1.062 C-3.562 0.062 -3.562 0.062 0 0 Z " fill="#8FB722" transform="translate(99.5625,65.9375)"/>
<path d="M0 0 C-1.062 1.5 -1.062 1.5 -3 3 C-6.688 3.188 -6.688 3.188 -10 3 C-7.295 -0.818 -4.379 -0.248 0 0 Z " fill="#8DB122" transform="translate(121,32)"/>
<path d="M0 0 C0 0.99 0 1.98 0 3 C-2.375 4.75 -2.375 4.75 -5 6 C-5.66 5.67 -6.32 5.34 -7 5 C-2.25 1.125 -2.25 1.125 0 0 Z " fill="#DEC296" transform="translate(108,180)"/>
<path d="M0 0 C0.66 0 1.32 0 2 0 C2 1.65 2 3.3 2 5 C0.35 5.33 -1.3 5.66 -3 6 C-3.33 5.01 -3.66 4.02 -4 3 C-3.01 3 -2.02 3 -1 3 C-0.67 2.01 -0.34 1.02 0 0 Z " fill="#E89A0F" transform="translate(42,157)"/>
<path d="M0 0 C0.66 0 1.32 0 2 0 C1.75 1.875 1.75 1.875 1 4 C-1.062 5.25 -1.062 5.25 -3 6 C-3 5.01 -3 4.02 -3 3 C-2.01 2.67 -1.02 2.34 0 2 C0 1.34 0 0.68 0 0 Z " fill="#F4BB07" transform="translate(90,104)"/>
<path d="M0 0 C0.66 0.33 1.32 0.66 2 1 C3.262 5.475 3.262 5.475 2 8 C1.34 8 0.68 8 0 8 C-0.381 5.674 -0.713 3.339 -1 1 C-0.67 0.67 -0.34 0.34 0 0 Z " fill="#FBC718" transform="translate(88,98)"/>
<path d="M0 0 C2.884 1.293 4.872 2.659 7 5 C6.01 5.33 5.02 5.66 4 6 C3.34 5.34 2.68 4.68 2 4 C1.34 3.67 0.68 3.34 0 3 C0 2.01 0 1.02 0 0 Z " fill="#E69113" transform="translate(114,95)"/>
<path d="M0 0 C1.32 0.33 2.64 0.66 4 1 C4 1.99 4 2.98 4 4 C1.69 4 -0.62 4 -3 4 C-2.01 3.67 -1.02 3.34 0 3 C0 2.01 0 1.02 0 0 Z " fill="#93AA5E" transform="translate(119,83)"/>
<path d="M0 0 C0.66 0.66 1.32 1.32 2 2 C1.01 3.32 0.02 4.64 -1 6 C-2.32 5.67 -3.64 5.34 -5 5 C-3.35 3.35 -1.7 1.7 0 0 Z " fill="#EEEFD9" transform="translate(122,61)"/>
<path d="M0 0 C2.244 1.122 4.073 2.394 6 4 C6 4.66 6 5.32 6 6 C4.02 5.34 2.04 4.68 0 4 C0 2.68 0 1.36 0 0 Z " fill="#768C36" transform="translate(43,39)"/>
<path d="M0 0 C0.33 0.99 0.66 1.98 1 3 C0.34 3 -0.32 3 -1 3 C-0.67 3.99 -0.34 4.98 0 6 C-1.65 6 -3.3 6 -5 6 C-4.34 5.67 -3.68 5.34 -3 5 C-3.33 4.01 -3.66 3.02 -4 2 C-3.34 1.67 -2.68 1.34 -2 1 C-1.34 1.33 -0.68 1.66 0 2 C0 1.34 0 0.68 0 0 Z " fill="#F29E06" transform="translate(64,169)"/>
<path d="M0 0 C2 2 2 2 2 6 C0.68 6.33 -0.64 6.66 -2 7 C-1.125 2.25 -1.125 2.25 0 0 Z " fill="#F8BC19" transform="translate(52,150)"/>
<path d="M0 0 C0.66 0 1.32 0 2 0 C2 0.66 2 1.32 2 2 C2.66 2.33 3.32 2.66 4 3 C2.35 4.32 0.7 5.64 -1 7 C-1.043 5 -1.041 3 -1 1 C-0.67 0.67 -0.34 0.34 0 0 Z " fill="#F6B015" transform="translate(37,131)"/>
<path d="M0 0 C0.66 0 1.32 0 2 0 C2 1.65 2 3.3 2 5 C0.35 5 -1.3 5 -3 5 C-1.625 2.5 -1.625 2.5 0 0 Z " fill="#FDEC73" transform="translate(68,111)"/>
<path d="M0 0 C-2.686 2.686 -5.376 3.06 -9 4 C-8.67 3.01 -8.34 2.02 -8 1 C-5.291 -0.354 -2.991 -0.065 0 0 Z " fill="#EEAC0B" transform="translate(68,107)"/>
<path d="M0 0 C0.66 1.32 1.32 2.64 2 4 C-2.29 3.67 -6.58 3.34 -11 3 C-11 2.67 -11 2.34 -11 2 C-7.37 2 -3.74 2 0 2 C0 1.34 0 0.68 0 0 Z " fill="#9DAD76" transform="translate(57,55)"/>
<path d="M0 0 C2.503 2.938 3.469 5.179 4 9 C3.34 9 2.68 9 2 9 C2 8.34 2 7.68 2 7 C1.34 7 0.68 7 0 7 C0 4.69 0 2.38 0 0 Z " fill="#517A0D" transform="translate(101,41)"/>
</svg>
