<?xml version="1.0" encoding="UTF-8"?>
<!-- Generator: visioncortex VTracer 0.6.12 -->
<svg version="1.1" xmlns="http://www.w3.org/2000/svg" width="175" height="190">
<path d="M0 0 C57.75 0 115.5 0 175 0 C175 62.7 175 125.4 175 190 C117.25 190 59.5 190 0 190 C0 127.3 0 64.6 0 0 Z " fill="#FCF7ED" transform="translate(0,0)"/>
<path d="M0 0 C5.455 0.455 5.455 0.455 8 3 C7.647 6.442 6.954 8.069 5 11 C11.384 12.252 11.384 12.252 14.305 11.059 C20.896 8.47 29.184 8.783 35.812 11.25 C48.331 17.078 54.743 25.43 60 38 C60.986 41.198 61.116 44.083 61.098 47.422 C61.094 48.447 61.091 49.471 61.088 50.527 C61.08 51.591 61.071 52.654 61.062 53.75 C61.058 54.829 61.053 55.908 61.049 57.02 C61.037 59.68 61.021 62.34 61 65 C56.828 65 55.51 64.189 52.082 62.09 C48.28 60.1 44.132 59.097 40 58 C40.079 58.381 40.079 58.381 40.48 60.309 C42.34 73.519 42.424 87.659 37 100 C36.638 100.874 36.276 101.748 35.902 102.648 C29.246 117.315 17.658 127.776 3 134 C2.211 134.342 1.422 134.683 0.609 135.035 C-7.302 137.928 -18.376 138.83 -26.449 136.203 C-28.313 135.187 -28.313 135.187 -30.055 134.062 C-32.608 132.668 -35.09 132.258 -37.938 131.688 C-44.304 130.196 -48.313 127.478 -53 123 C-53.302 122.718 -53.302 122.718 -54.828 121.293 C-63.033 112.811 -69.322 100.824 -70 89 C-70.041 88.304 -70.082 87.607 -70.124 86.89 C-71.049 68.619 -66.852 52.832 -54.688 38.625 C-45.944 29.465 -33.729 21.1 -20.668 20.77 C-19.174 20.773 -17.681 20.788 -16.188 20.812 C-15.425 20.813 -14.663 20.814 -13.877 20.814 C-8.282 20.859 -8.282 20.859 -6 22 C-5.939 21.571 -5.939 21.571 -5.633 19.402 C-3.268 3.268 -3.268 3.268 0 0 Z " fill="#7A235B" transform="translate(80,40)"/>
<path d="M0 0 C5.455 0.455 5.455 0.455 8 3 C7.647 6.442 6.954 8.069 5 11 C11.384 12.252 11.384 12.252 14.305 11.059 C20.896 8.47 29.184 8.783 35.812 11.25 C48.331 17.078 54.743 25.43 60 38 C60.986 41.198 61.116 44.083 61.098 47.422 C61.094 48.447 61.091 49.471 61.088 50.527 C61.08 51.591 61.071 52.654 61.062 53.75 C61.058 54.829 61.053 55.908 61.049 57.02 C61.037 59.68 61.021 62.34 61 65 C56.828 65 55.51 64.189 52.082 62.09 C48.28 60.1 44.132 59.097 40 58 C40.079 58.381 40.079 58.381 40.48 60.309 C42.34 73.519 42.424 87.659 37 100 C36.638 100.874 36.276 101.748 35.902 102.648 C29.246 117.315 17.658 127.776 3 134 C2.211 134.342 1.422 134.683 0.609 135.035 C-7.302 137.928 -18.376 138.83 -26.449 136.203 C-28.313 135.187 -28.313 135.187 -30.055 134.062 C-32.608 132.668 -35.09 132.258 -37.938 131.688 C-44.304 130.196 -48.313 127.478 -53 123 C-53.615 122.425 -54.23 121.85 -54.863 121.258 C-60.221 115.722 -67 105.925 -67 98 C-66.34 98 -65.68 98 -65 98 C-64.927 98.273 -64.927 98.273 -64.555 99.652 C-62.69 105.921 -59.923 110.791 -56 116 C-55.474 116.715 -54.948 117.431 -54.406 118.168 C-50.092 123.592 -45.352 126.342 -39 129 C-38.67 128.67 -38.34 128.34 -38 128 C-38.545 127.816 -39.091 127.631 -39.652 127.441 C-49.697 123.578 -55.844 116.556 -60.223 106.871 C-60.479 106.254 -60.736 105.636 -61 105 C-56.991 105 -55.281 106.79 -52 109 C-49.809 109.629 -49.809 109.629 -48 110 C-48.012 109.29 -48.023 108.579 -48.035 107.848 C-48.044 106.929 -48.053 106.009 -48.062 105.062 C-48.074 104.146 -48.086 103.229 -48.098 102.285 C-48 100 -48 100 -47 99 C-46.833 97.593 -46.724 96.18 -46.641 94.766 C-45.888 83.925 -44.778 74.873 -40 65 C-39.584 64.065 -39.167 63.131 -38.738 62.168 C-36.44 57.215 -34.154 53.56 -30 50 C-31.354 53.648 -33.042 57.032 -34.869 60.465 C-43.677 77.241 -46.222 96.549 -41.25 115.062 C-39.805 119.609 -37.681 123.071 -35 127 C-34.67 127.99 -34.34 128.98 -34 130 C-31.437 131.188 -31.437 131.188 -29 132 C-29.742 131.278 -30.485 130.556 -31.25 129.812 C-35.787 125.172 -38.107 122.494 -39 116 C-37.889 116.046 -36.778 116.093 -35.633 116.141 C-26.969 116.396 -19.729 116.414 -12 112 C-11.617 111.788 -11.617 111.788 -9.68 110.715 C2.554 103.271 9.646 91.701 13.27 78.094 C14.248 73.316 14.436 68.553 14.5 63.688 C14.509 63.276 14.509 63.276 14.556 61.192 C14.467 52.462 10.849 46.022 6 39 C5.67 38.01 5.34 37.02 5 36 C5.66 35.67 6.32 35.34 7 35 C0.739 31.484 -5.357 32.677 -12.062 34.5 C-13.712 34.989 -15.359 35.485 -17 36 C-15.35 34.35 -13.7 32.7 -12 31 C-12.66 30.381 -13.32 29.763 -14 29.125 C-16 27 -16 27 -16 25 C-12.7 25 -9.4 25 -6 25 C-6.165 24.505 -6.165 24.505 -7 22 C-6.512 19.109 -6.512 19.109 -5.688 15.75 C-5.546 15.172 -5.546 15.172 -4.828 12.246 C-4.555 11.175 -4.282 10.104 -4 9 C-3.809 8.228 -3.618 7.456 -3.422 6.66 C-2.659 3.748 -2.168 2.168 0 0 Z " fill="#5B1944" transform="translate(80,40)"/>
<path d="M0 0 C0.779 0.009 1.558 0.018 2.361 0.027 C4.262 0.051 6.162 0.087 8.062 0.125 C8.722 1.445 9.382 2.765 10.062 4.125 C6.368 5.356 3.857 4.769 0.062 4.125 C0.062 4.785 0.062 5.445 0.062 6.125 C0.382 6.259 0.382 6.259 2 6.938 C4.062 8.125 4.062 8.125 5.062 11.125 C3.969 11.352 2.876 11.579 1.75 11.812 C-2.637 13.374 -2.855 14.133 -4.938 18.125 C-7.189 20.865 -9.557 23.497 -11.938 26.125 C-11.216 25.382 -10.494 24.64 -9.75 23.875 C-7.252 21.432 -4.701 19.257 -1.938 17.125 C-3.436 20.237 -5.137 23.178 -6.938 26.125 C-4.958 25.465 -2.977 24.805 -0.938 24.125 C0.562 25.25 0.562 25.25 2.062 27.125 C2.462 30.677 2.389 32.571 0.559 35.68 C-5.043 41.993 -5.043 41.993 -9.75 42.688 C-10.276 42.595 -10.276 42.595 -12.938 42.125 C-13.928 42.125 -14.917 42.125 -15.938 42.125 C-16.597 44.105 -17.258 46.085 -17.938 48.125 C-18.928 48.125 -19.917 48.125 -20.938 48.125 C-21.597 49.775 -21.597 49.775 -24.938 58.125 C-27.177 49.167 -20.333 39.699 -15.938 32.125 C-26.083 44.359 -28.878 59.899 -29.691 75.316 C-29.938 78.125 -29.938 78.125 -30.938 79.125 C-31.01 80.811 -31.021 82.5 -31 84.188 C-30.991 85.107 -30.982 86.026 -30.973 86.973 C-30.961 87.683 -30.949 88.393 -30.938 89.125 C-31.267 89.29 -31.267 89.29 -32.938 90.125 C-34.777 89.418 -34.777 89.418 -36.875 88.312 C-37.565 87.955 -38.254 87.598 -38.965 87.23 C-40.67 86.275 -42.311 85.209 -43.938 84.125 C-39.744 92.766 -35.108 101.565 -25.562 104.938 C-24.366 105.329 -23.17 105.721 -21.938 106.125 C-21.608 106.62 -21.608 106.62 -19.938 109.125 C-27.912 108.716 -33.829 103.569 -39.125 98 C-44.09 92.139 -48.938 84.961 -48.938 77.125 C-49.597 77.125 -50.258 77.125 -50.938 77.125 C-51.102 77.455 -51.102 77.455 -51.938 79.125 C-56.654 60.385 -54.436 42.994 -44.914 26.199 C-34.924 10.662 -18.752 -0.418 0 0 Z " fill="#7F2A61" transform="translate(63.9375,60.875)"/>
<path d="M0 0 C5.455 0.455 5.455 0.455 8 3 C7.647 6.442 6.954 8.069 5 11 C11.384 12.252 11.384 12.252 14.305 11.059 C20.896 8.47 29.184 8.783 35.812 11.25 C48.331 17.078 54.743 25.43 60 38 C60.986 41.198 61.116 44.083 61.098 47.422 C61.096 47.934 61.096 47.934 61.088 50.527 C61.084 51.059 61.084 51.059 61.062 53.75 C61.058 54.829 61.053 55.908 61.049 57.02 C61.037 59.68 61.021 62.34 61 65 C56.827 65 55.504 64.19 52.078 62.082 C48.886 60.42 45.512 59.603 42.039 58.711 C40 58 40 58 39 56 C37.165 55.243 35.306 54.544 33.438 53.875 C22.416 49.383 16.225 40.45 11 30 C10.96 28 10.957 26 11 24 C10.34 24 9.68 24 9 24 C9 24.66 9 25.32 9 26 C5.37 25.34 1.74 24.68 -2 24 C-2.33 26.31 -2.66 28.62 -3 31 C-4.32 31 -5.64 31 -7 31 C-7.394 23.245 -5.956 16.486 -4 9 C-3.811 8.236 -3.621 7.471 -3.426 6.684 C-2.664 3.763 -2.174 2.174 0 0 Z " fill="#5D8D22" transform="translate(80,40)"/>
<path d="M0 0 C10.639 5.997 17.511 15.17 21.127 26.892 C21.644 29.47 21.675 31.855 21.66 34.484 C21.657 35.509 21.654 36.534 21.65 37.59 C21.646 38.122 21.646 38.122 21.625 40.812 C21.62 41.891 21.616 42.97 21.611 44.082 C21.6 46.742 21.583 49.402 21.562 52.062 C20.243 52.062 18.923 52.062 17.562 52.062 C16.903 51.072 16.243 50.083 15.562 49.062 C16.222 49.062 16.882 49.062 17.562 49.062 C10.329 31.829 10.329 31.829 4.562 26.062 C3.903 26.722 3.243 27.382 2.562 28.062 C2.332 27.482 2.101 26.902 1.863 26.305 C-1.9 17.289 -5.885 12.997 -14.426 8.359 C-14.758 8.145 -14.758 8.145 -16.438 7.062 C-16.438 6.403 -16.438 5.742 -16.438 5.062 C-17.427 5.062 -18.418 5.062 -19.438 5.062 C-20.849 4.609 -22.245 4.105 -23.625 3.562 C-24.34 3.284 -25.056 3.006 -25.793 2.719 C-26.336 2.502 -26.878 2.286 -27.438 2.062 C-27.438 1.072 -27.438 0.083 -27.438 -0.938 C-18.46 -5.129 -8.725 -4.062 0 0 Z " fill="#5F9024" transform="translate(119.4375,52.9375)"/>
<path d="M0 0 C1.32 0.33 2.64 0.66 4 1 C7.551 13.369 6.149 29.328 1 41 C0.615 41.897 0.229 42.794 -0.168 43.719 C-3.389 50.64 -6.97 57.59 -14 61 C-15.499 62.226 -16.977 63.479 -18.438 64.75 C-28.739 73.107 -40.761 77.651 -54 77 C-56.007 76.713 -58.012 76.398 -60 76 C-60 75.01 -60 74.02 -60 73 C-59.056 72.974 -58.113 72.948 -57.141 72.922 C-41.684 72.239 -27.616 67.913 -16.754 56.188 C-5.379 42 -1.226 27.748 -0.438 9.625 C-0.416 9.162 -0.416 9.162 -0.307 6.816 C-0.201 4.544 -0.099 2.272 0 0 Z " fill="#692855" transform="translate(116,99)"/>
<path d="M0 0 C0 0.99 0 1.98 0 3 C-2.047 4.789 -2.047 4.789 -4.75 6.625 C-5.632 7.236 -6.513 7.847 -7.422 8.477 C-9.706 9.826 -11.412 10.553 -14 11 C-14.33 12.32 -14.66 13.64 -15 15 C-12.69 15 -10.38 15 -8 15 C-8 15.66 -8 16.32 -8 17 C-9.32 17 -10.64 17 -12 17 C-12 17.66 -12 18.32 -12 19 C-24.864 19.32 -37.529 19.239 -50.312 17.625 C-51.325 17.499 -52.338 17.373 -53.381 17.243 C-57.68 16.654 -61.171 16.129 -65 14 C-64.67 13.67 -64.34 13.34 -64 13 C-64.66 12.67 -65.32 12.34 -66 12 C-66 10.35 -66 8.7 -66 7 C-61.887 4.943 -56.191 7.676 -52 9 C-50.75 9.693 -49.517 10.419 -48.312 11.188 C-40.51 15.364 -29.248 13.938 -21.012 11.557 C-13.635 9.135 -5.583 5.583 0 0 Z " fill="#E9D7B8" transform="translate(100,163)"/>
<path d="M0 0 C0.928 0.206 1.856 0.412 2.812 0.625 C2.352 5.573 1.048 7.914 -2.188 11.625 C-2.404 12.027 -2.404 12.027 -3.5 14.062 C-6.537 18.675 -10.144 22.047 -15.5 23.562 C-18.188 23.625 -18.188 23.625 -20.188 22.625 C-20.812 19.562 -20.812 19.562 -21.188 16.625 C-22.837 17.285 -24.488 17.945 -26.188 18.625 C-23.667 11.274 -18.688 6.637 -12.188 2.625 C-9.938 1.953 -9.938 1.953 -8.188 1.625 C-8.188 2.285 -8.188 2.945 -8.188 3.625 C-7.528 3.625 -6.867 3.625 -6.188 3.625 C-6.188 2.965 -6.188 2.305 -6.188 1.625 C-3.188 -0.375 -3.188 -0.375 0 0 Z " fill="#943771" transform="translate(51.1875,73.375)"/>
<path d="M0 0 C8.269 2.326 13.488 9.1 17.676 16.18 C21.485 24.293 22.408 31.107 22.188 40.062 C22.181 40.591 22.181 40.591 22.146 43.264 C22.111 45.843 22.062 48.421 22 51 C20.68 51 19.36 51 18 51 C17.34 50.01 16.68 49.02 16 48 C16.66 48 17.32 48 18 48 C10.767 30.767 10.767 30.767 5 25 C4.34 25.66 3.68 26.32 3 27 C1.68 23.7 0.36 20.4 -1 17 C-0.34 17 0.32 17 1 17 C1.722 17.99 2.444 18.98 3.188 20 C4.492 21.664 4.492 21.664 6 23 C9.812 23.375 9.812 23.375 13 23 C13.33 22.01 13.66 21.02 14 20 C14.66 20 15.32 20 16 20 C12.172 11.609 7.867 5.87 0 1 C0 0.67 0 0.34 0 0 Z " fill="#578427" transform="translate(119,54)"/>
<path d="M0 0 C5.455 0.455 5.455 0.455 8 3 C7.647 6.442 6.954 8.069 5 11 C5.66 11.33 6.32 11.66 7 12 C9.9 16.35 9 20.816 9 26 C5.37 25.34 1.74 24.68 -2 24 C-2.33 26.31 -2.66 28.62 -3 31 C-4.32 31 -5.64 31 -7 31 C-7.394 23.245 -5.956 16.486 -4 9 C-3.811 8.236 -3.621 7.471 -3.426 6.684 C-2.664 3.763 -2.174 2.174 0 0 Z " fill="#737314" transform="translate(80,40)"/>
<path d="M0 0 C7.429 -0.286 7.429 -0.286 11 2 C11.33 1.34 11.66 0.68 12 0 C12.125 7.625 12.125 7.625 11 11 C11.66 11 12.32 11 13 11 C13 12.65 13 14.3 13 16 C12.01 16.33 11.02 16.66 10 17 C8.5 15.625 8.5 15.625 7 14 C7 13.34 7 12.68 7 12 C7.66 11.67 8.32 11.34 9 11 C2.739 7.484 -3.357 8.677 -10.062 10.5 C-11.712 10.989 -13.359 11.485 -15 12 C-13.35 10.35 -11.7 8.7 -10 7 C-10.66 6.381 -11.32 5.763 -12 5.125 C-14 3 -14 3 -14 1 C-11.03 1 -8.06 1 -5 1 C-5 2.98 -5 4.96 -5 7 C-3.68 7 -2.36 7 -1 7 C-0.67 4.69 -0.34 2.38 0 0 Z " fill="#613048" transform="translate(78,64)"/>
<path d="M0 0 C1.688 1.25 1.688 1.25 2.688 2.25 C3.053 5.781 3.003 7.713 1.184 10.805 C-4.407 17.106 -4.407 17.106 -9.25 17.875 C-12.312 17.25 -12.312 17.25 -13.312 16.25 C-13.797 10.608 -11.59 6.708 -8.312 2.25 C-3.55 -1.151 -3.55 -1.151 0 0 Z " fill="#A84C83" transform="translate(63.3125,85.75)"/>
<path d="M0 0 C8.007 3.724 8.007 3.724 11 7 C11.624 10.433 11.471 13.775 11.312 17.25 C11.301 17.718 11.301 17.718 11.244 20.086 C11.185 22.392 11.103 24.695 11 27 C10.01 26.67 9.02 26.34 8 26 C8 25.34 8 24.68 8 24 C7.381 23.814 6.763 23.629 6.125 23.438 C3.532 21.683 3.083 20.123 2.363 17.137 C1.81 13.885 1.551 10.623 1.344 7.332 C0.98 4.864 0.229 3.155 -1 1 C-0.67 0.67 -0.34 0.34 0 0 Z " fill="#659522" transform="translate(104,62)"/>
<path d="M0 0 C4.486 0.32 7.638 0.625 11.438 3.062 C20.42 7.917 33.678 5.351 42.973 2.656 C43.307 2.548 43.307 2.548 45 2 C44.062 4.938 44.062 4.938 42 8 C38.738 8.787 36.32 8.974 33 9 C31.637 9.048 30.273 9.098 28.91 9.148 C21.334 9.359 14.964 9.292 8 6 C5.349 5.239 2.688 4.624 0 4 C0 2.68 0 1.36 0 0 Z " fill="#D2B997" transform="translate(40,171)"/>
<path d="M0 0 C0 3.712 -0.97 4.587 -3.188 7.5 C-6.958 12.718 -9.535 18.076 -12 24 C-12.604 25.396 -13.208 26.792 -13.812 28.188 C-14.008 28.652 -14.008 28.652 -15 31 C-15.99 31 -16.98 31 -18 31 C-18.66 32.65 -18.66 32.65 -22 41 C-23.994 33.024 -18.666 24.674 -14.777 17.777 C-10.604 11.255 -5.536 5.399 0 0 Z " fill="#8C336A" transform="translate(61,78)"/>
<path d="M0 0 C-0.404 5.659 -2.203 8.023 -6 12 C-9 14 -9 14 -11.188 13.625 C-11.786 13.419 -12.384 13.213 -13 13 C-13.458 9.871 -13.506 7.768 -11.734 5.078 C-6.168 -1.461 -6.168 -1.461 0 0 Z " fill="#CF85AC" transform="translate(46,80)"/>
<path d="M0 0 C0.33 0 0.66 0 1 0 C1.186 1.093 1.371 2.186 1.562 3.312 C3.706 11.826 9.815 20.885 17 26 C20.097 27.493 23.199 28.771 26.426 29.957 C29 31 29 31 31 33 C30.34 33 29.68 33 29 33 C29 34.65 29 36.3 29 38 C27 35 27 35 27 33 C26.441 32.892 25.881 32.783 25.305 32.672 C18.529 30.697 12.079 25.812 7 21 C7 20.34 7 19.68 7 19 C5.68 18.67 4.36 18.34 3 18 C2.512 16.014 2.023 14.029 1.535 12.043 C1.09 10.343 0.556 8.667 0 7 C-0.04 4.667 -0.044 2.333 0 0 Z " fill="#46392A" transform="translate(90,64)"/>
<path d="M0 0 C1.298 0.133 2.596 0.266 3.934 0.402 C18.279 1.815 32.594 2.555 47 3 C47 2.34 47 1.68 47 1 C48.916 0.804 50.833 0.619 52.75 0.438 C53.284 0.385 53.284 0.385 55.984 0.121 C58.641 0.014 60.5 0.181 63 1 C47.532 5.702 31.964 5.551 16 4.125 C15.103 4.047 14.207 3.968 13.283 3.888 C8.591 3.427 4.428 2.733 0 1 C0 0.67 0 0.34 0 0 Z " fill="#F8ECD6" transform="translate(41,179)"/>
<path d="M0 0 C0.33 0.66 0.66 1.32 1 2 C2.32 2 3.64 2 5 2 C6.284 4.569 6.33 6.766 6.562 9.625 C6.646 10.628 6.73 11.631 6.816 12.664 C6.877 13.435 6.938 14.206 7 15 C7.66 14.34 8.32 13.68 9 13 C9.845 16.378 10.108 18.675 9 22 C6.038 20.559 4.215 19.292 2.25 16.625 C0.376 11.192 0.246 5.712 0 0 Z " fill="#689925" transform="translate(90,57)"/>
<path d="M0 0 C1.32 0.33 2.64 0.66 4 1 C3.01 1 2.02 1 1 1 C1.66 3.31 2.32 5.62 3 8 C2.036 8.205 1.072 8.41 0.078 8.621 C-1.185 8.891 -2.448 9.16 -3.75 9.438 C-5.003 9.704 -6.256 9.971 -7.547 10.246 C-10.046 10.792 -12.526 11.356 -15 12 C-13.35 10.35 -11.7 8.7 -10 7 C-10.66 6.381 -11.32 5.763 -12 5.125 C-14 3 -14 3 -14 1 C-11.03 1 -8.06 1 -5 1 C-5 2.98 -5 4.96 -5 7 C-3.68 7 -2.36 7 -1 7 C-0.67 4.69 -0.34 2.38 0 0 Z " fill="#571241" transform="translate(78,64)"/>
<path d="M0 0 C0.66 0 1.32 0 2 0 C2.159 0.557 2.317 1.114 2.48 1.688 C5.189 10.546 9.541 18.268 17 24 C19.621 25.211 22.258 26.071 25 27 C25.66 27.99 26.32 28.98 27 30 C18.871 29.583 12.972 24.319 7.688 18.562 C2.683 12.599 -0.667 8.166 0 0 Z " fill="#6F2757" transform="translate(17,140)"/>
<path d="M0 0 C5.875 1.875 5.875 1.875 7 3 C7.142 6.003 7.042 8.992 7 12 C3.7 11.34 0.4 10.68 -3 10 C-1.125 1.125 -1.125 1.125 0 0 Z " fill="#E7E6DF" transform="translate(82,54)"/>
<path d="M0 0 C0 3.35 -0.988 4.946 -2.642 7.782 C-10.862 21.919 -12.626 35.852 -13 52 C-13.33 52 -13.66 52 -14 52 C-15.694 32.262 -12.633 15.884 0 0 Z " fill="#671B4D" transform="translate(49,90)"/>
<path d="M0 0 C6.625 0.75 6.625 0.75 10 3 C14.643 5.521 17.959 4.854 23 4 C20 6 20 6 17 6 C17 6.66 17 7.32 17 8 C17.66 8.206 18.32 8.413 19 8.625 C24.209 11.012 28.809 14.214 32 19 C28.798 17.513 26.048 15.688 23.188 13.625 C16.99 9.254 11.42 5.817 4 4 C4 6.64 4 9.28 4 12 C3.67 12 3.34 12 3 12 C2 5.375 2 5.375 2 2 C1.34 1.34 0.68 0.68 0 0 Z " fill="#497415" transform="translate(86,52)"/>
<path d="M0 0 C3.125 0.375 3.125 0.375 6 1 C6.33 1.99 6.66 2.98 7 4 C5.68 4 4.36 4 3 4 C2.918 4.66 2.835 5.32 2.75 6 C1.752 9.99 -0.072 13.385 -2 17 C-2.66 17 -3.32 17 -4 17 C-3.719 14.54 -3.425 12.083 -3.125 9.625 C-3.046 8.926 -2.968 8.228 -2.887 7.508 C-2.227 2.227 -2.227 2.227 0 0 Z " fill="#96861A" transform="translate(79,41)"/>
<path d="M0 0 C2.362 2.19 3.983 4.423 5.625 7.188 C6.39 8.474 7.175 9.751 8 11 C8.33 11 8.66 11 9 11 C9.33 8.36 9.66 5.72 10 3 C10.33 3 10.66 3 11 3 C11 8.61 11 14.22 11 20 C9.68 20 8.36 20 7 20 C6.34 19.01 5.68 18.02 5 17 C5.66 17 6.32 17 7 17 C6.662 16.276 6.325 15.551 5.977 14.805 C3.729 9.933 1.533 5.155 0 0 Z " fill="#47741C" transform="translate(130,85)"/>
<path d="M0 0 C0.99 0.33 1.98 0.66 3 1 C2.752 1.206 2.752 1.206 1.496 2.25 C-7.453 9.857 -15.44 18.127 -18 30 C-18.66 30 -19.32 30 -20 30 C-18.476 18.153 -10.637 8.867 -1.914 1.156 C-1.282 0.775 -0.651 0.393 0 0 Z " fill="#642B4D" transform="translate(34,71)"/>
<path d="M0 0 C0.66 0.66 1.32 1.32 2 2 C1.688 5.416 0.361 6.999 -2.188 9.188 C-5.357 11.776 -7.814 12.9 -12 13 C-13 12 -13 12 -13.098 10.152 C-13.065 8.102 -13.033 6.051 -13 4 C-12.67 4 -12.34 4 -12 4 C-11.67 5.65 -11.34 7.3 -11 9 C-6.737 8.526 -4.785 6.078 -2 3 C-1.34 2.01 -0.68 1.02 0 0 Z " fill="#A95285" transform="translate(45,84)"/>
<path d="M0 0 C-0.99 1.65 -1.98 3.3 -3 5 C-6.795 4.835 -6.795 4.835 -26 4 C-26 3.67 -26 3.34 -26 3 C-25.105 2.963 -24.211 2.925 -23.289 2.887 C-16.449 2.515 -10.351 1.855 -3.891 -0.477 C-2 -1 -2 -1 0 0 Z " fill="#CBB091" transform="translate(85,174)"/>
<path d="M0 0 C0.66 0 1.32 0 2 0 C2.681 0.949 3.361 1.897 4.062 2.875 C6.881 6.489 9.693 6.932 14.109 7.48 C14.733 7.652 15.357 7.823 16 8 C16.33 8.99 16.66 9.98 17 11 C14.69 10.34 12.38 9.68 10 9 C10.66 10.65 11.32 12.3 12 14 C10 12 8 10 6 8 C5.34 8.66 4.68 9.32 4 10 C2.68 6.7 1.36 3.4 0 0 Z " fill="#4E7E18" transform="translate(118,71)"/>
<path d="M0 0 C2 3 2 3 2 6 C-1.561 6.198 -4.045 6.111 -7 4 C-7.75 1.875 -7.75 1.875 -8 0 C-4.672 -1.109 -3.301 -1.016 0 0 Z " fill="#702E5D" transform="translate(87,65)"/>
<path d="M0 0 C0 0.99 0 1.98 0 3 C-2.047 4.789 -2.047 4.789 -4.75 6.625 C-5.632 7.236 -6.513 7.847 -7.422 8.477 C-9.706 9.826 -11.412 10.553 -14 11 C-14.33 12.32 -14.66 13.64 -15 15 C-15.99 14.67 -16.98 14.34 -18 14 C-18.33 13.34 -18.66 12.68 -19 12 C-18.466 11.72 -17.933 11.441 -17.383 11.152 C-11.262 7.859 -5.625 4.075 0 0 Z " fill="#DEC7AB" transform="translate(100,163)"/>
<path d="M0 0 C0 3.782 -1.141 4.875 -3.375 7.875 C-5.819 11.164 -7.627 14.13 -9 18 C-9.99 17.34 -10.98 16.68 -12 16 C-10.571 11.509 -8.069 8.538 -4.875 5.188 C-4.407 4.685 -3.939 4.183 -3.457 3.666 C-2.311 2.438 -1.156 1.218 0 0 Z " fill="#90336D" transform="translate(61,78)"/>
<path d="M0 0 C-0.75 5.75 -0.75 5.75 -3 8 C-4.32 8 -5.64 8 -7 8 C-7.363 3.526 -7.363 3.526 -5.75 1.188 C-4 0 -4 0 0 0 Z " fill="#CC7EA8" transform="translate(60,90)"/>
<path d="M0 0 C0.33 0 0.66 0 1 0 C0.357 5.913 -1.19 11.342 -3 17 C-4.32 17 -5.64 17 -7 17 C-7 15.02 -7 13.04 -7 11 C-6.67 11.165 -6.67 11.165 -5 12 C-3.35 8.04 -1.7 4.08 0 0 Z " fill="#685916" transform="translate(80,54)"/>
<path d="M0 0 C3.824 4.588 3.824 4.588 4.938 7.188 C6.436 9.744 8.273 10.002 11 11 C12.813 12.625 12.813 12.625 14 14 C9.391 13.28 5.328 11.687 1 10 C1.66 9.34 2.32 8.68 3 8 C2.752 7.618 2.752 7.618 1.5 5.688 C0 3 0 3 0 0 Z " fill="#511B3B" transform="translate(40,161)"/>
<path d="M0 0 C5.61 0 11.22 0 17 0 C17.66 1.32 18.32 2.64 19 4 C18.01 3.67 17.02 3.34 16 3 C13.267 2.772 10.55 2.583 7.812 2.438 C7.063 2.394 6.313 2.351 5.541 2.307 C3.694 2.201 1.847 2.1 0 2 C0 1.34 0 0.68 0 0 Z " fill="#703A5A" transform="translate(55,61)"/>
<path d="M0 0 C0.99 0.33 1.98 0.66 3 1 C1.26 2.74 -0.485 4.472 -2.25 6.188 C-5.651 9.666 -8.827 13.315 -12 17 C-12 13.281 -11.171 12.768 -8.688 10.125 C-6.038 7.224 -3.965 4.413 -2 1 C-1.34 0.67 -0.68 0.34 0 0 Z " fill="#6C1B50" transform="translate(64,72)"/>
<path d="M0 0 C2 1 2 1 2.875 3.312 C4.121 6.289 5.622 7.86 8 10 C5.36 9.67 2.72 9.34 0 9 C0.33 8.34 0.66 7.68 1 7 C0.34 6.67 -0.32 6.34 -1 6 C-1.043 4.334 -1.041 2.666 -1 1 C-0.67 0.67 -0.34 0.34 0 0 Z " fill="#EEDDC3" transform="translate(35,169)"/>
<path d="M0 0 C0.33 0 0.66 0 1 0 C1.206 1.134 1.412 2.269 1.625 3.438 C2.905 8.699 5.827 12.69 9 17 C8.67 17.66 8.34 18.32 8 19 C3.915 15.357 1.709 12.216 0 7 C-0.188 3.062 -0.188 3.062 0 0 Z " fill="#464322" transform="translate(90,64)"/>
<path d="M0 0 C1.815 0.495 1.815 0.495 11 3 C11 3.33 11 3.66 11 4 C9.35 4.495 9.35 4.495 1 7 C0.67 4.69 0.34 2.38 0 0 Z " fill="#E8E8DC" transform="translate(119,97)"/>
<path d="M0 0 C1.32 0.33 2.64 0.66 4 1 C3.01 1 2.02 1 1 1 C1.66 3.31 2.32 5.62 3 8 C0.03 8 -2.94 8 -6 8 C-6 7.67 -6 7.34 -6 7 C-4.35 7 -2.7 7 -1 7 C-0.67 4.69 -0.34 2.38 0 0 Z " fill="#4F1D35" transform="translate(78,64)"/>
<path d="M0 0 C0.33 0 0.66 0 1 0 C1.222 1.936 1.427 3.874 1.625 5.812 C1.741 6.891 1.857 7.97 1.977 9.082 C2 12 2 12 0 15 C-0.66 15 -1.32 15 -2 15 C-1.34 10.05 -0.68 5.1 0 0 Z " fill="#968C32" transform="translate(77,43)"/>
<path d="M0 0 C0.825 0.33 0.825 0.33 5 2 C5 2.99 5 3.98 5 5 C6.98 5 8.96 5 11 5 C8 7 8 7 4.812 6.625 C3.884 6.419 2.956 6.213 2 6 C1.34 4.02 0.68 2.04 0 0 Z " fill="#5E2348" transform="translate(51,170)"/>
<path d="M0 0 C0.103 0.639 0.206 1.279 0.312 1.938 C0.539 2.618 0.766 3.299 1 4 C1.99 4.33 2.98 4.66 4 5 C3.34 5 2.68 5 2 5 C1.67 6.32 1.34 7.64 1 9 C0.01 8.67 -0.98 8.34 -2 8 C-2.201 4.284 -2.152 3.228 0 0 Z " fill="#B45C8E" transform="translate(52,94)"/>
<path d="M0 0 C2.97 0 5.94 0 9 0 C9 1.98 9 3.96 9 6 C8.536 5.67 8.536 5.67 6.188 4 C3 2 3 2 0 2 C0 1.34 0 0.68 0 0 Z " fill="#651B48" transform="translate(64,65)"/>
<path d="M0 0 C0 0.66 0 1.32 0 2 C-5.94 1.67 -11.88 1.34 -18 1 C-18 0.67 -18 0.34 -18 0 C-15.751 -0.195 -13.5 -0.381 -11.25 -0.562 C-9.997 -0.667 -8.744 -0.771 -7.453 -0.879 C-4.605 -0.979 -2.657 -0.906 0 0 Z " fill="#A98977" transform="translate(77,177)"/>
<path d="M0 0 C0.66 0.99 1.32 1.98 2 3 C1.32 5.48 1.32 5.48 0.125 8.188 C-0.264 9.089 -0.654 9.99 -1.055 10.918 C-1.367 11.605 -1.679 12.292 -2 13 C-3.188 9.571 -2.802 7.622 -1.562 4.25 C-1.275 3.451 -0.988 2.652 -0.691 1.828 C-0.463 1.225 -0.235 0.622 0 0 Z " fill="#7F2C64" transform="translate(41,106)"/>
<path d="M0 0 C0 1.65 0 3.3 0 5 C-0.99 5.33 -1.98 5.66 -3 6 C-4.5 4.625 -4.5 4.625 -6 3 C-6 2.34 -6 1.68 -6 1 C-3 0 -3 0 0 0 Z " fill="#681D4D" transform="translate(91,75)"/>
<path d="M0 0 C0.66 0 1.32 0 2 0 C3.727 1.75 3.727 1.75 5.625 4 C6.257 4.743 6.888 5.485 7.539 6.25 C8.021 6.828 8.503 7.405 9 8 C8.67 8.66 8.34 9.32 8 10 C7.34 9.34 6.68 8.68 6 8 C5.34 8.66 4.68 9.32 4 10 C2.68 6.7 1.36 3.4 0 0 Z " fill="#477713" transform="translate(118,71)"/>
<path d="M0 0 C5.75 0.75 5.75 0.75 8 3 C7.75 5.562 7.75 5.562 7 8 C6.67 8.165 6.67 8.165 5 9 C5 6.69 5 4.38 5 2 C3.35 1.67 1.7 1.34 0 1 C0 0.67 0 0.34 0 0 Z " fill="#8A7A38" transform="translate(80,40)"/>
<path d="M0 0 C1.32 0.66 2.64 1.32 4 2 C3.67 2.99 3.34 3.98 3 5 C3.99 5.165 3.99 5.165 9 6 C9 6.33 9 6.66 9 7 C7.02 7 5.04 7 3 7 C2.856 6.68 2.856 6.68 2.125 5.062 C1 3 1 3 -1 2 C-0.67 1.34 -0.34 0.68 0 0 Z " fill="#E1CBAC" transform="translate(37,170)"/>
<path d="M0 0 C1.322 0.903 2.632 1.823 3.938 2.75 C4.668 3.26 5.399 3.771 6.152 4.297 C8.208 6.192 8.627 7.274 9 10 C7 10 7 10 5.375 8.625 C4 7 4 7 4 5 C2.68 4.67 1.36 4.34 0 4 C0 2.68 0 1.36 0 0 Z " fill="#45242A" transform="translate(93,78)"/>
<path d="M0 0 C0.66 0.33 1.32 0.66 2 1 C1.381 1.743 0.763 2.485 0.125 3.25 C-1.604 5.488 -2.861 7.437 -4 10 C-4.33 9.34 -4.66 8.68 -5 8 C-5.33 8.165 -5.33 8.165 -7 9 C-5.445 5.183 -2.964 2.808 0 0 Z " fill="#7C235C" transform="translate(54,81)"/>
<path d="M0 0 C0 0.66 0 1.32 0 2 C0.99 2 1.98 2 3 2 C2.67 2.99 2.34 3.98 2 5 C-0.31 4.67 -2.62 4.34 -5 4 C-4.67 3.01 -4.34 2.02 -4 1 C-2 0 -2 0 0 0 Z " fill="#984179" transform="translate(43,75)"/>
<path d="M0 0 C-1.32 1.65 -2.64 3.3 -4 5 C-5.32 4.34 -6.64 3.68 -8 3 C-8 2.34 -8 1.68 -8 1 C-5.291 -0.354 -2.991 -0.065 0 0 Z " fill="#568425" transform="translate(100,51)"/>
<path d="M0 0 C1.184 3.552 0.695 4.698 -0.438 8.188 C-0.725 9.089 -1.012 9.99 -1.309 10.918 C-1.537 11.605 -1.765 12.292 -2 13 C-2.66 12.01 -3.32 11.02 -4 10 C-3.09 6.435 -1.742 3.235 0 0 Z " fill="#872964" transform="translate(48,96)"/>
<path d="M0 0 C1.65 0 3.3 0 5 0 C5.66 1.32 6.32 2.64 7 4 C6.67 4.165 6.67 4.165 5 5 C2.938 4.25 2.938 4.25 1 3 C0.67 2.01 0.34 1.02 0 0 Z " fill="#631B4E" transform="translate(80,69)"/>
<path d="M0 0 C0.66 0.33 1.32 0.66 2 1 C1.744 3.343 1.407 5.678 1 8 C0.67 8.165 0.67 8.165 -1 9 C-0.67 6.03 -0.34 3.06 0 0 Z " fill="#AA9B1B" transform="translate(79,44)"/>
<path d="M0 0 C0.99 0 1.98 0 3 0 C2.25 6.75 2.25 6.75 0 9 C-1.125 3.375 -1.125 3.375 0 0 Z " fill="#908826" transform="translate(74,59)"/>
</svg>
