<?xml version="1.0" encoding="UTF-8"?>
<!-- Generator: visioncortex VTracer 0.6.12 -->
<svg version="1.1" xmlns="http://www.w3.org/2000/svg" width="175" height="190">
<path d="M0 0 C57.75 0 115.5 0 175 0 C175 62.7 175 125.4 175 190 C117.25 190 59.5 190 0 190 C0 127.3 0 64.6 0 0 Z " fill="#FDF8ED" transform="translate(0,0)"/>
<path d="M0 0 C2.562 0.312 2.562 0.312 4.375 1.438 C6.17 4.272 6.089 6.022 5.562 9.312 C3.375 11.812 3.375 11.812 0.562 14.312 C-4.184 19.424 -7.239 25.136 -10.438 31.312 C-9.477 30.995 -8.517 30.678 -7.527 30.352 C-3.046 29.071 1.363 28.867 6 28.688 C6.827 28.649 7.654 28.61 8.506 28.57 C10.524 28.477 12.543 28.394 14.562 28.312 C14.082 32.5 13.476 35.051 10.625 38.188 C10.1 38.783 9.576 39.379 9.035 39.992 C7.562 41.312 7.562 41.312 5.562 41.312 C5.562 41.972 5.562 42.632 5.562 43.312 C6.388 43.539 7.213 43.766 8.062 44 C11.657 45.348 14.472 47.053 17.633 49.191 C19.613 50.342 21.327 50.87 23.562 51.312 C23.5 53.062 23.5 53.062 22.562 55.312 C18.236 58.307 15.867 59.569 10.562 59.312 C10.996 59.895 11.429 60.478 11.875 61.078 C16.408 67.752 18.073 73.275 16.562 81.312 C14.98 85.028 13.263 88.462 9.562 90.312 C9.359 92.063 9.359 92.063 9.312 94.312 C8.78 100.068 6.385 104.047 2.562 108.312 C-1.013 111.179 -3.76 112.312 -8.438 112.312 C-8.52 113.034 -8.603 113.756 -8.688 114.5 C-9.92 119.121 -12.228 121.56 -16.25 124.062 C-19.438 125.312 -19.438 125.312 -22.938 125.688 C-26.755 126.369 -28.004 127.591 -30.77 130.172 C-33.949 132.346 -37.697 132.119 -41.438 132.312 C-44.079 132.762 -46.055 133.121 -48.438 134.312 C-49.934 134.433 -51.436 134.488 -52.938 134.5 C-53.732 134.514 -54.526 134.528 -55.344 134.543 C-57.437 134.312 -57.437 134.312 -59.438 132.312 C-62.047 132.258 -62.047 132.258 -65.188 132.438 C-70.758 132.538 -73.347 132.08 -77.438 128.312 C-79.438 125.312 -79.438 125.312 -79.438 122.312 C-80.159 122.23 -80.881 122.147 -81.625 122.062 C-86.742 120.698 -89.457 117.655 -92.25 113.312 C-94.834 108.48 -94.612 104.456 -94.348 99.09 C-94.441 96.195 -94.822 95.081 -96.438 92.75 C-99.223 87.963 -99.299 83.737 -98.438 78.312 C-96.375 74.937 -96.375 74.937 -94.438 72.312 C-94.688 69.938 -94.688 69.938 -95.438 67.312 C-95.857 60.81 -95.326 55.802 -90.973 50.543 C-89.375 48.875 -89.375 48.875 -86.438 46.312 C-85.778 46.312 -85.118 46.312 -84.438 46.312 C-84.582 45.013 -84.726 43.714 -84.875 42.375 C-84.875 37.06 -82.851 34.185 -79.418 30.266 C-74.634 25.547 -71.298 24.106 -64.5 24.062 C-62.812 24.126 -61.123 24.203 -59.438 24.312 C-60.097 23.323 -60.758 22.332 -61.438 21.312 C-61.562 18.125 -61.562 18.125 -61.438 15.312 C-57.57 15.312 -56.424 15.586 -53.188 17.312 C-52.481 17.684 -51.775 18.055 -51.047 18.438 C-50.516 18.726 -49.985 19.015 -49.438 19.312 C-49.455 18.903 -49.455 18.903 -49.543 16.828 C-49.57 15.75 -49.597 14.673 -49.625 13.562 C-49.642 13.029 -49.642 13.029 -49.73 10.328 C-49.408 7.012 -48.666 5.722 -46.438 3.312 C-44.562 3.438 -44.562 3.438 -42.438 4.312 C-42.169 5.138 -41.901 5.962 -41.625 6.812 C-39.938 11.784 -36.764 15.31 -33.438 19.312 C-33.028 18.758 -32.618 18.204 -32.195 17.633 C-31.656 16.908 -31.118 16.184 -30.562 15.438 C-30.029 14.718 -29.495 13.999 -28.945 13.258 C-27.438 11.312 -27.438 11.312 -25.438 9.312 C-24.448 9.312 -23.457 9.312 -22.438 9.312 C-22.19 10.117 -21.942 10.921 -21.688 11.75 C-20.687 14.601 -19.595 17.285 -18.359 20.035 C-18.179 20.437 -18.179 20.437 -17.269 22.469 C-16.994 23.077 -16.72 23.686 -16.438 24.312 C-16.084 23.657 -15.731 23.001 -15.368 22.325 C-13.77 19.36 -12.166 16.399 -10.562 13.438 C-10.007 12.405 -9.451 11.372 -8.879 10.309 C-8.344 9.322 -7.809 8.336 -7.258 7.32 C-6.766 6.409 -6.273 5.498 -5.766 4.559 C-3.322 0.426 -3.322 0.426 0 0 Z " fill="#DA2323" transform="translate(110.4375,28.6875)"/>
<path d="M0 0 C2.562 0.312 2.562 0.312 4.375 1.438 C6.17 4.272 6.089 6.022 5.562 9.312 C3.375 11.812 3.375 11.812 0.562 14.312 C-4.184 19.424 -7.239 25.136 -10.438 31.312 C-9.477 30.995 -8.517 30.678 -7.527 30.352 C-3.046 29.071 1.363 28.867 6 28.688 C6.827 28.649 7.654 28.61 8.506 28.57 C10.524 28.477 12.543 28.394 14.562 28.312 C14.082 32.5 13.476 35.051 10.625 38.188 C10.1 38.783 9.576 39.379 9.035 39.992 C7.562 41.312 7.562 41.312 5.562 41.312 C5.562 41.972 5.562 42.632 5.562 43.312 C6.388 43.539 7.213 43.766 8.062 44 C11.657 45.348 14.472 47.053 17.633 49.191 C19.613 50.342 21.327 50.87 23.562 51.312 C23.5 53.062 23.5 53.062 22.562 55.312 C18.236 58.307 15.867 59.569 10.562 59.312 C10.996 59.895 11.429 60.478 11.875 61.078 C16.408 67.752 18.073 73.275 16.562 81.312 C14.98 85.028 13.263 88.462 9.562 90.312 C9.359 92.063 9.359 92.063 9.312 94.312 C8.78 100.068 6.385 104.047 2.562 108.312 C-1.013 111.179 -3.76 112.312 -8.438 112.312 C-8.52 113.034 -8.603 113.756 -8.688 114.5 C-9.92 119.121 -12.228 121.56 -16.25 124.062 C-19.438 125.312 -19.438 125.312 -22.938 125.688 C-26.755 126.369 -28.004 127.591 -30.77 130.172 C-33.949 132.346 -37.697 132.119 -41.438 132.312 C-44.079 132.762 -46.055 133.121 -48.438 134.312 C-49.934 134.433 -51.436 134.488 -52.938 134.5 C-53.732 134.514 -54.526 134.528 -55.344 134.543 C-57.438 134.312 -57.438 134.312 -59.438 132.312 C-62.047 132.258 -62.047 132.258 -65.188 132.438 C-70.758 132.538 -73.347 132.08 -77.438 128.312 C-79.438 125.312 -79.438 125.312 -79.438 121.312 C-80.428 120.983 -81.418 120.653 -82.438 120.312 C-81.778 120.312 -81.118 120.312 -80.438 120.312 C-80.377 119.709 -80.316 119.106 -80.254 118.484 C-80.17 117.685 -80.086 116.886 -80 116.062 C-79.919 115.274 -79.838 114.485 -79.754 113.672 C-79.461 111.489 -79.017 109.435 -78.438 107.312 C-78.922 107.251 -78.922 107.251 -81.375 106.938 C-82.386 106.731 -83.396 106.525 -84.438 106.312 C-84.767 105.653 -85.097 104.993 -85.438 104.312 C-82.797 104.312 -80.157 104.312 -77.438 104.312 C-77.316 103.698 -77.195 103.083 -77.07 102.449 C-76.903 101.641 -76.735 100.833 -76.562 100 C-76.4 99.199 -76.238 98.399 -76.07 97.574 C-75.438 95.312 -75.438 95.312 -73.438 92.312 C-73.047 90.323 -72.705 88.322 -72.438 86.312 C-71.888 86.636 -71.339 86.96 -70.773 87.293 C-65.48 89.603 -59.226 88.983 -53.938 87 C-51.817 85.569 -50.097 84.249 -48.438 82.312 C-48.6 82.88 -48.762 83.447 -48.93 84.031 C-49.45 86.368 -49.571 88.422 -49.562 90.812 C-49.565 91.565 -49.568 92.318 -49.57 93.094 C-49.437 95.319 -49.163 97.204 -48.438 99.312 C-44.66 101.555 -40.619 101.685 -36.328 101.969 C-35.704 102.082 -35.08 102.196 -34.438 102.312 C-34.108 102.972 -33.778 103.632 -33.438 104.312 C-33.878 104.308 -33.878 104.308 -36.105 104.285 C-45.301 104.52 -45.301 104.52 -48.414 106.691 C-51.496 110.719 -51.955 114.24 -51.438 119.312 C-46.804 120.857 -42.272 120.947 -37.438 120.312 C-34.26 118.665 -32.06 116.557 -30.438 113.312 C-28.789 112.282 -27.122 111.281 -25.438 110.312 C-25.108 109.983 -24.778 109.653 -24.438 109.312 C-23.044 109.18 -21.647 109.082 -20.25 109 C-14.758 108.441 -11.29 106.42 -7.625 102.25 C-5.524 98.823 -5.324 96.048 -5.375 92.125 C-5.384 91.224 -5.393 90.323 -5.402 89.395 C-5.414 88.707 -5.426 88.02 -5.438 87.312 C-7.423 87.378 -9.409 87.443 -11.395 87.508 C-13.438 87.312 -13.438 87.312 -16.438 85.312 C-16.147 85.294 -16.147 85.294 -14.68 85.199 C-9.7 84.78 -5.607 84.291 -1.438 81.312 C1.686 76.106 2.329 71.319 1.562 65.312 C-0.143 59.627 -2.396 56.486 -7.438 53.312 C-9.652 53.031 -9.652 53.031 -12 52.938 C-16.028 52.728 -16.028 52.728 -17.949 50.777 C-18.764 49.526 -19.552 48.256 -20.309 46.969 C-21.907 44.623 -23.749 44.004 -26.438 43.312 C-26.438 42.653 -26.438 41.993 -26.438 41.312 C-29.737 41.312 -33.037 41.312 -36.438 41.312 C-36.788 40.096 -37.139 38.879 -37.5 37.625 C-39.063 33.329 -41.129 31.88 -44.918 29.543 C-46.438 28.312 -46.438 28.312 -47.375 25 C-47.396 24.113 -47.416 23.226 -47.438 22.312 C-48.428 21.983 -49.417 21.653 -50.438 21.312 C-49.778 20.983 -49.117 20.653 -48.438 20.312 C-48.602 19.983 -48.602 19.983 -49.438 18.312 C-49.585 16.525 -49.659 14.731 -49.688 12.938 C-49.713 11.981 -49.739 11.025 -49.766 10.039 C-49.392 6.934 -48.504 5.607 -46.438 3.312 C-44.562 3.438 -44.562 3.438 -42.438 4.312 C-42.169 5.138 -41.901 5.962 -41.625 6.812 C-39.938 11.784 -36.764 15.31 -33.438 19.312 C-33.028 18.758 -32.618 18.204 -32.195 17.633 C-31.656 16.908 -31.118 16.184 -30.562 15.438 C-30.029 14.718 -29.495 13.999 -28.945 13.258 C-27.437 11.312 -27.437 11.312 -25.438 9.312 C-24.447 9.312 -23.458 9.312 -22.438 9.312 C-22.19 10.117 -21.942 10.921 -21.688 11.75 C-20.687 14.601 -19.595 17.285 -18.359 20.035 C-18.179 20.437 -18.179 20.437 -17.269 22.469 C-16.994 23.077 -16.72 23.686 -16.438 24.312 C-16.084 23.657 -15.731 23.001 -15.368 22.325 C-13.77 19.36 -12.166 16.399 -10.562 13.438 C-10.007 12.405 -9.451 11.372 -8.879 10.309 C-8.344 9.322 -7.809 8.336 -7.258 7.32 C-6.766 6.409 -6.273 5.498 -5.766 4.559 C-3.322 0.426 -3.322 0.426 0 0 Z " fill="#C41618" transform="translate(110.4375,28.6875)"/>
<path d="M0 0 C0.701 0.289 1.403 0.578 2.125 0.875 C5.055 2.021 8.009 3.026 11 4 C11 4.99 11 5.98 11 7 C11.66 7.33 12.32 7.66 13 8 C13.625 10.063 13.625 10.063 14 12 C13.051 12.144 12.102 12.289 11.125 12.438 C8 13 8 13 6 14 C5.67 14 5.34 14 5 14 C5 14.66 5 15.32 5 16 C3.969 16.392 2.938 16.784 1.875 17.188 C-2.813 19.204 -6.714 21.837 -9.375 26.312 C-9.478 26.591 -9.478 26.591 -10 28 C-16.152 28.098 -16.152 28.098 -18 28 C-18.33 27.67 -18.66 27.34 -19 27 C-19 28.98 -19 30.96 -19 33 C-16.36 33.33 -13.72 33.66 -11 34 C-10.879 34.71 -10.758 35.421 -10.633 36.152 C-10.465 37.071 -10.298 37.991 -10.125 38.938 C-9.963 39.854 -9.8 40.771 -9.633 41.715 C-9.424 42.469 -9.215 43.223 -9 44 C-8.34 44.33 -7.68 44.66 -7 45 C-7 45.66 -7 46.32 -7 47 C-6.67 46.835 -6.67 46.835 -5 46 C-1.287 45.593 2.292 45.522 6 46 C9.021 48.676 9.231 51.501 9.562 55.375 C9.417 59.957 7.775 62.309 4.703 65.59 C2.901 67.082 1.128 68.042 -1 69 C-1.33 68.67 -1.66 68.34 -2 68 C-4.328 67.632 -6.662 67.298 -9 67 C-9.66 65.35 -10.32 63.7 -11 62 C-11.33 62.165 -11.33 62.165 -13 63 C-12.125 69.75 -12.125 69.75 -11 72 C-12.02 76.157 -13.414 80.035 -15 84 C-15.687 86.327 -16.358 88.66 -17 91 C-19.31 91 -21.62 91 -24 91 C-22.845 91.165 -22.845 91.165 -17 92 C-17.471 94.434 -17.965 96.855 -18.547 99.266 C-18.738 100.065 -18.928 100.864 -19.125 101.688 C-19.313 102.454 -19.501 103.221 -19.695 104.012 C-20 106 -20 106 -19 108 C-23.468 107.489 -25.821 106.179 -29 103 C-33.668 96.964 -34.279 92.268 -33.91 84.777 C-34.004 81.883 -34.384 80.769 -36 78.438 C-38.785 73.651 -38.862 69.424 -38 64 C-35.938 60.625 -35.938 60.625 -34 58 C-34.25 55.625 -34.25 55.625 -35 53 C-35.42 46.497 -34.888 41.489 -30.535 36.23 C-28.938 34.562 -28.938 34.562 -26 32 C-25.34 32 -24.68 32 -24 32 C-24.144 30.701 -24.289 29.401 -24.438 28.062 C-24.438 22.747 -22.413 19.872 -18.98 15.953 C-14.196 11.235 -10.861 9.794 -4.062 9.75 C-2.374 9.814 -0.686 9.89 1 10 C0.34 9.01 -0.32 8.02 -1 7 C-1.188 3.875 -1.188 3.875 -1 1 C-0.67 0.67 -0.34 0.34 0 0 Z " fill="#DF2A2A" transform="translate(50,43)"/>
<path d="M0 0 C2.562 0.312 2.562 0.312 4.375 1.438 C6.17 4.272 6.089 6.022 5.562 9.312 C3.375 11.812 3.375 11.812 0.562 14.312 C-4.184 19.424 -7.239 25.136 -10.438 31.312 C-9.477 30.995 -8.517 30.678 -7.527 30.352 C-3.046 29.071 1.363 28.867 6 28.688 C6.827 28.649 7.654 28.61 8.506 28.57 C10.524 28.477 12.543 28.394 14.562 28.312 C14.082 32.5 13.476 35.051 10.625 38.188 C10.363 38.485 10.363 38.485 9.035 39.992 C7.562 41.312 7.562 41.312 5.562 41.312 C5.562 41.972 5.562 42.632 5.562 43.312 C6.388 43.539 7.213 43.766 8.062 44 C11.657 45.348 14.472 47.053 17.633 49.191 C19.613 50.342 21.327 50.87 23.562 51.312 C23.5 53.062 23.5 53.062 22.562 55.312 C18.23 58.286 14.86 59.796 9.562 60.312 C9.562 59.653 9.562 58.993 9.562 58.312 C9.171 58.261 9.171 58.261 7.188 58 C-5.076 55.674 -5.076 55.674 -7.438 53.312 C-8.854 53.26 -10.271 53.22 -11.688 53.188 C-15.968 52.788 -15.968 52.788 -17.969 50.762 C-18.775 49.514 -19.556 48.249 -20.309 46.969 C-21.907 44.623 -23.749 44.004 -26.438 43.312 C-26.438 42.653 -26.438 41.993 -26.438 41.312 C-29.737 41.312 -33.037 41.312 -36.438 41.312 C-36.788 40.096 -37.139 38.879 -37.5 37.625 C-39.063 33.329 -41.129 31.88 -44.918 29.543 C-46.438 28.312 -46.438 28.312 -47.375 25 C-47.396 24.113 -47.416 23.226 -47.438 22.312 C-48.428 21.983 -49.417 21.653 -50.438 21.312 C-49.778 20.983 -49.117 20.653 -48.438 20.312 C-48.767 19.653 -49.097 18.992 -49.438 18.312 C-49.585 16.525 -49.659 14.731 -49.688 12.938 C-49.713 11.981 -49.739 11.025 -49.766 10.039 C-49.392 6.934 -48.504 5.607 -46.438 3.312 C-44.562 3.438 -44.562 3.438 -42.438 4.312 C-42.169 5.138 -41.901 5.962 -41.625 6.812 C-39.938 11.784 -36.764 15.31 -33.438 19.312 C-33.028 18.758 -32.618 18.204 -32.195 17.633 C-31.656 16.908 -31.118 16.184 -30.562 15.438 C-30.296 15.078 -30.296 15.078 -28.945 13.258 C-27.438 11.312 -27.438 11.312 -25.438 9.312 C-24.448 9.312 -23.457 9.312 -22.438 9.312 C-22.19 10.117 -21.942 10.921 -21.688 11.75 C-20.687 14.601 -19.595 17.285 -18.359 20.035 C-18.179 20.437 -18.179 20.437 -17.269 22.469 C-16.994 23.077 -16.72 23.686 -16.438 24.312 C-16.084 23.657 -15.731 23.001 -15.368 22.325 C-13.77 19.36 -12.166 16.399 -10.562 13.438 C-10.007 12.405 -9.451 11.372 -8.879 10.309 C-8.344 9.322 -7.809 8.336 -7.258 7.32 C-6.766 6.409 -6.273 5.498 -5.766 4.559 C-3.322 0.426 -3.322 0.426 0 0 Z " fill="#557704" transform="translate(110.4375,28.6875)"/>
<path d="M0 0 C2.742 5.398 4.835 9.799 4 16 C2.191 20.189 0.022 21.934 -4 24 C-2.68 24.99 -1.36 25.98 0 27 C-0.51 31.389 -1.522 34.337 -4 38 C-2.417 38.054 -0.834 38.093 0.75 38.125 C1.191 38.137 1.191 38.137 3.422 38.195 C6.149 37.989 7.713 37.473 10 36 C10.165 35.67 10.165 35.67 11 34 C11.66 34 12.32 34 13 34 C11.125 37.875 11.125 37.875 10 39 C10.33 39.165 10.33 39.165 12 40 C12 39.34 12 38.68 12 38 C12.66 38 13.32 38 14 38 C14 37.34 14 36.68 14 36 C16.31 36 18.62 36 21 36 C21.165 35.67 21.165 35.67 22 34 C21.34 34 20.68 34 20 34 C20 33.34 20 32.68 20 32 C21.114 31.752 22.227 31.505 23.375 31.25 C27 30 27 30 28.25 28.188 C28.498 27.466 28.745 26.744 29 26 C30.5 23.25 30.5 23.25 32 21 C32.66 21 33.32 21 34 21 C33.401 24.356 32.154 26.378 30 29 C33.329 28.445 36.116 27.79 39 26 C39.33 25.505 39.33 25.505 41 23 C41.66 23 42.32 23 43 23 C43 26.188 43 26.188 42 30 C38.571 33.303 35.059 34.854 30.375 35.5 C26.587 36.061 25.398 37.313 22.668 39.859 C19.488 42.034 15.74 41.807 12 42 C9.359 42.45 7.382 42.809 5 44 C3.504 44.12 2.001 44.175 0.5 44.188 C-0.294 44.202 -1.088 44.216 -1.906 44.23 C-4 44 -4 44 -6 42 C-8.609 41.945 -8.609 41.945 -11.75 42.125 C-18.534 42.239 -18.534 42.239 -21.688 40.25 C-24.817 37.205 -24.817 37.205 -25 34 C-25.082 32.907 -25.165 31.814 -25.25 30.688 C-24.959 26.394 -23.878 23.833 -22 20 C-20.68 20.66 -19.36 21.32 -18 22 C-18 21 -18 21 -19.5 19 C-21.535 14.929 -21.616 11.476 -21 7 C-18.919 2.459 -18.919 2.459 -16 1 C-14.234 0.77 -12.462 0.589 -10.688 0.438 C-9.743 0.354 -8.798 0.27 -7.824 0.184 C-5.206 0.013 -2.623 -0.033 0 0 Z " fill="#D12121" transform="translate(57,119)"/>
<path d="M0 0 C2.562 0.312 2.562 0.312 4.375 1.438 C6.17 4.272 6.089 6.022 5.562 9.312 C3.375 11.812 3.375 11.812 0.562 14.312 C-2.175 17.384 -4.492 20.295 -6.375 23.938 C-8.653 27.665 -10.755 29.071 -14.438 31.312 C-15.097 32.302 -15.757 33.292 -16.438 34.312 C-17.097 34.312 -17.757 34.312 -18.438 34.312 C-17.562 29.563 -17.562 29.563 -16.438 27.312 C-17.407 27.168 -18.376 27.024 -19.375 26.875 C-22.438 26.312 -22.438 26.312 -23.438 25.312 C-24.427 26.302 -25.418 27.293 -26.438 28.312 C-28.146 26.689 -29.812 25.019 -31.438 23.312 C-31.438 22.653 -31.438 21.992 -31.438 21.312 C-32.18 21.704 -32.922 22.096 -33.688 22.5 C-34.595 22.768 -35.502 23.036 -36.438 23.312 C-38.75 21.938 -38.75 21.938 -40.438 20.312 C-40.438 21.633 -40.438 22.953 -40.438 24.312 C-43.438 24.312 -43.438 24.312 -46.438 23.312 C-48.659 18.499 -49.762 12.621 -49.438 7.312 C-47.949 5.008 -47.949 5.008 -46.438 3.312 C-44.562 3.438 -44.562 3.438 -42.438 4.312 C-42.169 5.138 -41.901 5.962 -41.625 6.812 C-39.938 11.784 -36.764 15.31 -33.438 19.312 C-33.028 18.758 -32.618 18.204 -32.195 17.633 C-31.656 16.908 -31.118 16.184 -30.562 15.438 C-30.296 15.078 -30.296 15.078 -28.945 13.258 C-27.438 11.312 -27.438 11.312 -25.438 9.312 C-24.448 9.312 -23.457 9.312 -22.438 9.312 C-22.19 10.117 -21.942 10.921 -21.688 11.75 C-20.687 14.601 -19.595 17.285 -18.359 20.035 C-18.179 20.437 -18.179 20.437 -17.269 22.469 C-16.994 23.077 -16.72 23.686 -16.438 24.312 C-16.084 23.657 -15.731 23.001 -15.368 22.325 C-13.77 19.36 -12.166 16.399 -10.562 13.438 C-10.007 12.405 -9.451 11.372 -8.879 10.309 C-8.344 9.322 -7.809 8.336 -7.258 7.32 C-6.766 6.409 -6.273 5.498 -5.766 4.559 C-3.322 0.426 -3.322 0.426 0 0 Z M-23.438 26.312 C-23.108 26.972 -22.778 27.633 -22.438 28.312 C-23.097 27.983 -23.757 27.653 -24.438 27.312 C-24.108 26.983 -23.778 26.653 -23.438 26.312 Z " fill="#82A213" transform="translate(110.4375,28.6875)"/>
<path d="M0 0 C3.505 1.502 4.812 3.331 6.668 6.613 C8.779 12.154 8.882 18.154 6.562 23.637 C3.522 28.676 3.522 28.676 0.625 30.125 C0.422 31.875 0.422 31.875 0.375 34.125 C-0.118 39.715 -2.513 44.074 -6.375 48.125 C-8.34 48.84 -8.34 48.84 -10.375 49.125 C-11.612 49.311 -12.85 49.496 -14.125 49.688 C-15.198 49.832 -16.27 49.976 -17.375 50.125 C-17.625 47.938 -17.625 47.938 -17.375 45.125 C-16.777 44.382 -16.179 43.64 -15.562 42.875 C-13.027 39.687 -12.22 36.903 -11.184 33.016 C-10.917 32.392 -10.65 31.768 -10.375 31.125 C-9.385 30.795 -8.395 30.465 -7.375 30.125 C-9.025 29.135 -10.675 28.145 -12.375 27.125 C-11.202 24.583 -9.884 22.396 -8.312 20.062 C-4.896 14.882 -5.386 10.839 -5.633 4.84 C-5.548 3.944 -5.463 3.048 -5.375 2.125 C-2.375 0.125 -2.375 0.125 0 0 Z " fill="#C31F23" transform="translate(119.375,88.875)"/>
<path d="M0 0 C2.742 5.398 4.835 9.799 4 16 C2.207 20.152 0.185 22.272 -4 24 C-8.299 24.571 -11.847 24.476 -15.875 22.812 C-18.988 20.157 -20.734 18.005 -21.285 13.852 C-21.467 9.094 -21.108 5.825 -18 2 C-15.509 0.754 -13.462 0.674 -10.688 0.438 C-10.215 0.396 -10.215 0.396 -7.824 0.184 C-5.206 0.013 -2.623 -0.033 0 0 Z " fill="#E02A2A" transform="translate(57,119)"/>
<path d="M0 0 C2 2.312 2 2.312 3 5 C3.289 5.227 3.289 5.227 4.75 6.375 C6 8 6 8 5.812 11.438 C4.31 18.024 4.31 18.024 1.301 20.266 C-3.293 22.54 -6.765 23.691 -12 23 C-14.938 21.5 -14.938 21.5 -17 20 C-17.33 20.99 -17.66 21.98 -18 23 C-19.781 21.219 -19.256 18.724 -19.312 16.312 C-19.268 10.999 -18.652 8.058 -15 4 C-14.484 3.216 -13.969 2.433 -13.438 1.625 C-9.335 -1.11 -4.756 -0.878 0 0 Z " fill="#EC3432" transform="translate(82,72)"/>
<path d="M0 0 C0.701 0.289 1.403 0.578 2.125 0.875 C5.055 2.021 8.009 3.026 11 4 C11 4.99 11 5.98 11 7 C11.66 7.33 12.32 7.66 13 8 C13.625 10.062 13.625 10.062 14 12 C13.051 12.144 12.102 12.289 11.125 12.438 C8 13 8 13 6 14 C5.67 14 5.34 14 5 14 C5 14.66 5 15.32 5 16 C3.969 16.392 2.938 16.784 1.875 17.188 C-2.813 19.204 -6.714 21.837 -9.375 26.312 C-9.478 26.591 -9.478 26.591 -10 28 C-12.64 28 -15.28 28 -18 28 C-18 27.34 -18 26.68 -18 26 C-18.66 26 -19.32 26 -20 26 C-20.33 27.65 -20.66 29.3 -21 31 C-21.66 31 -22.32 31 -23 31 C-24.121 26.888 -24.761 24.462 -22.754 20.605 C-19.346 16.029 -15.652 11.589 -10 10 C-6.305 9.705 -2.696 9.759 1 10 C0.34 9.01 -0.32 8.02 -1 7 C-1.188 3.875 -1.188 3.875 -1 1 C-0.67 0.67 -0.34 0.34 0 0 Z " fill="#F0413D" transform="translate(50,43)"/>
<path d="M0 0 C0.33 0 0.66 0 1 0 C1.086 0.831 1.173 1.663 1.262 2.52 C1.402 3.606 1.543 4.693 1.688 5.812 C1.751 6.352 1.751 6.352 2.074 9.082 C3 12 3 12 5.582 13.887 C6.38 14.254 7.178 14.621 8 15 C8 11 8 11 7 9 C9.05 10.025 11.076 11.044 13.062 12.188 C15 13 15 13 18 12 C18.398 12.505 18.797 13.011 19.207 13.531 C19.737 14.181 20.267 14.831 20.812 15.5 C21.335 16.15 21.857 16.799 22.395 17.469 C24 19 24 19 27 19 C27 18.34 27 17.68 27 17 C28.32 17.33 29.64 17.66 31 18 C30.67 18.825 30.67 18.825 29 23 C27.68 22.67 26.36 22.34 25 22 C25.684 31.759 25.684 31.759 28.844 34.738 C31 36 31 36 33.125 37 C35 38 35 38 37 41 C39.325 41.694 41.659 42.361 44 43 C44.33 43.66 44.66 44.32 45 45 C34.24 44.159 34.24 44.159 31.266 41.379 C30.479 40.151 29.729 38.898 29.023 37.621 C27.523 35.244 25.647 34.681 23 34 C23 33.34 23 32.68 23 32 C19.7 32 16.4 32 13 32 C12.649 30.783 12.299 29.566 11.938 28.312 C10.375 24.016 8.308 22.568 4.52 20.23 C3 19 3 19 2.062 15.688 C2.042 14.801 2.021 13.914 2 13 C1.01 12.67 0.02 12.34 -1 12 C-0.34 11.67 0.32 11.34 1 11 C0.67 10.34 0.34 9.68 0 9 C-0.07 7.46 -0.085 5.917 -0.062 4.375 C-0.053 3.558 -0.044 2.74 -0.035 1.898 C-0.024 1.272 -0.012 0.645 0 0 Z M26 14 C26.33 14.99 26.66 15.98 27 17 C26.67 17.165 26.67 17.165 25 18 C25.33 16.68 25.66 15.36 26 14 Z " fill="#5B7B04" transform="translate(61,38)"/>
<path d="M0 0 C3.004 -0.328 3.004 -0.328 6.562 -0.25 C7.151 -0.242 7.151 -0.242 10.129 -0.203 C13 0 13 0 14 1 C14.582 6.944 14.51 11.969 11 17 C6.922 21.002 3.805 23.152 -1.938 23.312 C-2.813 23.35 -3.688 23.387 -4.59 23.426 C-7 23 -7 23 -8.82 21.098 C-10 19 -10 19 -9.938 17.125 C-8.635 14.173 -6.813 11.666 -5 9 C-3.984 7.008 -2.982 5.009 -2 3 C-1.34 2.01 -0.68 1.02 0 0 Z " fill="#D22021" transform="translate(92,115)"/>
<path d="M0 0 C2.367 0.613 2.367 0.613 4.555 2.551 C5.664 6.732 6.281 10.337 5.367 14.613 C2.866 18.895 -0.126 21.585 -4.633 23.613 C-4.963 23.283 -5.293 22.953 -5.633 22.613 C-7.961 22.246 -10.295 21.911 -12.633 21.613 C-13.293 19.963 -13.953 18.313 -14.633 16.613 C-15.623 16.943 -16.613 17.273 -17.633 17.613 C-17.633 10.942 -15.719 7.186 -11.098 2.355 C-7.414 -0.248 -4.416 -0.41 0 0 Z " fill="#F1403B" transform="translate(53.6328125,88.38671875)"/>
<path d="M0 0 C0.33 0.165 0.33 0.165 2 1 C0.528 4.881 -1.374 6.105 -5 8 C-5.99 8.557 -6.98 9.114 -8 9.688 C-10.989 10.995 -12.79 11.283 -16 11 C-16.144 11.299 -16.144 11.299 -16.875 12.812 C-18 15 -18 15 -20 18 C-18.928 17.794 -17.855 17.588 -16.75 17.375 C-13.124 17.012 -11.917 17.016 -9 19 C-9 19.33 -9 19.66 -9 20 C-16.505 21.046 -23.902 21.186 -31.471 21.185 C-33.731 21.187 -35.99 21.206 -38.25 21.225 C-62.509 21.32 -62.509 21.32 -69 15 C-70.5 11.438 -70.5 11.438 -71 8 C-70.34 7.01 -69.68 6.02 -69 5 C-68.544 5.879 -68.544 5.879 -66.266 10.273 C-64.669 12.451 -63.554 13.119 -61 14 C-58.055 14.125 -58.055 14.125 -54.875 14 C-51.68 13.875 -51.68 13.875 -49 14 C-48.34 14.66 -47.68 15.32 -47 16 C-44.977 16.266 -44.977 16.266 -42.625 16.25 C-41.854 16.255 -41.083 16.26 -40.289 16.266 C-38 16 -38 16 -35.984 14.98 C-33.63 13.817 -32.222 13.885 -29.625 14.062 C-25.337 14.161 -22.67 13.359 -19 11 C-18.541 10.491 -18.082 9.982 -17.609 9.457 C-15.622 7.658 -14.249 7.43 -11.625 7 C-7.875 6.262 -5.098 5.347 -2 3 C-1.34 2.01 -0.68 1.02 0 0 Z " fill="#E2C6A2" transform="translate(100,146)"/>
<path d="M0 0 C0.5 2.562 0.5 2.562 0 6 C-2.429 9.485 -5.153 13.076 -9 15 C-18.53 15.923 -18.53 15.923 -22.688 13.312 C-24.258 10.545 -24.263 9.146 -24 6 C-22.675 2.588 -20.902 0.233 -18 -2 C-12.095 -3.507 -4.733 -4.733 0 0 Z " fill="#D12121" transform="translate(82,135)"/>
<path d="M0 0 C0 0.33 0 0.66 0 1 C3.3 1.66 6.6 2.32 10 3 C6 6 6 6 4 7 C5.32 7.66 6.64 8.32 8 9 C2.933 13.837 -1.383 17.618 -8 20 C-8.99 20.66 -9.98 21.32 -11 22 C-11 21.01 -11 20.02 -11 19 C-12.65 19 -14.3 19 -16 19 C-16.421 12.895 -16.102 9.857 -12 5 C-8.315 1.077 -5.541 -0.66 0 0 Z " fill="#F54A44" transform="translate(57,61)"/>
<path d="M0 0 C2.562 0.312 2.562 0.312 4.375 1.438 C6.17 4.272 6.089 6.022 5.562 9.312 C3.375 11.812 3.375 11.812 0.562 14.312 C-2.175 17.384 -4.492 20.295 -6.375 23.938 C-8.653 27.665 -10.755 29.071 -14.438 31.312 C-14.767 31.807 -14.767 31.807 -16.438 34.312 C-17.097 34.312 -17.757 34.312 -18.438 34.312 C-17.562 29.562 -17.562 29.562 -16.438 27.312 C-17.427 27.312 -18.418 27.312 -19.438 27.312 C-19.561 26.178 -19.685 25.044 -19.812 23.875 C-20.019 22.699 -20.225 21.524 -20.438 20.312 C-21.097 19.983 -21.757 19.653 -22.438 19.312 C-22.438 17.663 -22.438 16.013 -22.438 14.312 C-19.116 17.001 -18.035 20.442 -16.438 24.312 C-16.084 23.657 -15.731 23.001 -15.368 22.325 C-13.77 19.36 -12.166 16.399 -10.562 13.438 C-10.285 12.921 -10.285 12.921 -8.879 10.309 C-8.344 9.322 -7.809 8.336 -7.258 7.32 C-7.012 6.865 -7.012 6.865 -5.766 4.559 C-3.322 0.426 -3.322 0.426 0 0 Z " fill="#718C1C" transform="translate(110.4375,28.6875)"/>
<path d="M0 0 C0.412 0.006 0.412 0.006 2.496 0.035 C3.322 0.044 4.149 0.053 5 0.062 C5.638 0.074 6.276 0.086 6.934 0.098 C6.934 2.078 6.934 4.058 6.934 6.098 C7.594 6.098 8.254 6.098 8.934 6.098 C9.115 10.721 8.824 13.896 6.934 18.098 C6.247 20.425 5.576 22.758 4.934 25.098 C-1.451 24.729 -1.451 24.729 -4.441 21.66 C-7.519 16.806 -7.729 12.791 -7.066 7.098 C-5.641 3.852 -3.766 0.178 0 0 Z " fill="#E32D2C" transform="translate(28.06640625,108.90234375)"/>
<path d="M0 0 C9.811 -0.338 9.811 -0.338 14 2 C15.39 4.57 16.253 7.182 17 10 C16.469 10.436 15.938 10.871 15.391 11.32 C11.138 14.905 7.934 18.218 5 23 C2.9 25.436 2.153 25.949 -1 27 C-3.061 27.069 -5.125 27.085 -7.188 27.062 C-7.731 27.058 -7.731 27.058 -10.48 27.035 C-11.312 27.024 -12.143 27.012 -13 27 C-15.666 22.446 -16.316 19.261 -16 14 C-15.67 14 -15.34 14 -15 14 C-15 15.98 -15 17.96 -15 20 C-13.35 20 -11.7 20 -10 20 C-9.67 20.66 -9.34 21.32 -9 22 C-8.649 21.567 -8.299 21.134 -7.938 20.688 C-5.765 18.795 -3.571 18.013 -0.918 16.961 C2.514 15.241 5.219 12.612 8 10 C6.68 9.34 5.36 8.68 4 8 C5.65 7.01 7.3 6.02 9 5 C6.03 4.34 3.06 3.68 0 3 C0 2.01 0 1.02 0 0 Z " fill="#E42B29" transform="translate(56,60)"/>
<path d="M0 0 C-0.257 5.272 -2.172 7.871 -5.527 11.68 C-7 13 -7 13 -9 13 C-9.33 13.66 -9.66 14.32 -10 15 C-10 14.34 -10 13.68 -10 13 C-10.784 12.856 -11.567 12.711 -12.375 12.562 C-15 12 -15 12 -17 11 C-18.871 10.772 -20.747 10.59 -22.625 10.438 C-23.628 10.354 -24.631 10.27 -25.664 10.184 C-26.049 10.153 -26.049 10.153 -28 10 C-27.34 7.36 -26.68 4.72 -26 2 C-22.417 1.664 -18.834 1.331 -15.25 1 C-14.234 0.905 -13.218 0.809 -12.172 0.711 C-11.192 0.621 -10.213 0.53 -9.203 0.438 C-8.302 0.354 -7.402 0.27 -6.474 0.184 C-4.321 0.024 -2.159 0 0 0 Z " fill="#66880C" transform="translate(125,57)"/>
<path d="M0 0 C1.98 1.15 3.694 1.679 5.93 2.121 C5.867 3.871 5.867 3.871 4.93 6.121 C0.597 9.094 -2.773 10.604 -8.07 11.121 C-8.07 10.461 -8.07 9.801 -8.07 9.121 C-9.39 9.121 -10.71 9.121 -12.07 9.121 C-14.32 7.246 -14.32 7.246 -16.07 5.121 C-16.07 4.461 -16.07 3.801 -16.07 3.121 C-15.41 2.791 -14.75 2.461 -14.07 2.121 C-14.565 1.523 -15.06 0.925 -15.57 0.309 C-17.07 -1.879 -17.07 -1.879 -17.07 -4.879 C-10.228 -6.891 -5.535 -3.746 0 0 Z " fill="#5C7D05" transform="translate(128.0703125,77.87890625)"/>
<path d="M0 0 C0.763 0.206 1.526 0.412 2.312 0.625 C2.642 1.945 2.972 3.265 3.312 4.625 C2.653 4.295 1.993 3.965 1.312 3.625 C1.663 4.759 2.014 5.894 2.375 7.062 C3.537 11.736 3.47 15.948 2.312 20.625 C0.75 23.188 0.75 23.188 -0.688 24.625 C-2.338 24.295 -3.987 23.965 -5.688 23.625 C-5.739 23.945 -5.739 23.945 -6 25.562 C-6.227 26.243 -6.454 26.924 -6.688 27.625 C-7.677 27.955 -8.668 28.285 -9.688 28.625 C-10.677 27.965 -11.668 27.305 -12.688 26.625 C-11.514 24.083 -10.197 21.896 -8.625 19.562 C-5.208 14.382 -5.698 10.339 -5.945 4.34 C-5.86 3.444 -5.775 2.548 -5.688 1.625 C-2.688 -0.375 -2.688 -0.375 0 0 Z " fill="#CF2021" transform="translate(119.6875,89.375)"/>
<path d="M0 0 C0.413 0.577 0.825 1.155 1.25 1.75 C5.586 7.325 9.288 9.107 16 11 C16 11.33 16 11.66 16 12 C26.024 14.134 35.21 14.145 45.375 13.562 C46.066 13.523 46.756 13.484 47.468 13.444 C50.158 13.272 52.718 13.072 55.336 12.406 C57.73 11.822 58.96 12.761 61 14 C61 14.33 61 14.66 61 15 C53.495 16.046 46.098 16.186 38.529 16.185 C36.269 16.187 34.01 16.206 31.75 16.225 C7.491 16.32 7.491 16.32 1 10 C-0.597 6.041 -1.361 4.083 0 0 Z " fill="#EDD6B6" transform="translate(30,151)"/>
<path d="M0 0 C0.33 0 0.66 0 1 0 C1.086 0.831 1.173 1.663 1.262 2.52 C1.402 3.606 1.543 4.693 1.688 5.812 C1.751 6.352 1.751 6.352 2.074 9.082 C3 12 3 12 5.582 13.887 C6.38 14.254 7.178 14.621 8 15 C8 11 8 11 7 9 C9.05 10.025 11.076 11.044 13.062 12.188 C15 13 15 13 18 12 C18 12.66 18 13.32 18 14 C17.01 14.66 16.02 15.32 15 16 C14.488 18.82 14.488 18.82 14.312 22.125 C14.247 23.221 14.181 24.316 14.113 25.445 C14.076 26.288 14.039 27.131 14 28 C15.32 28 16.64 28 18 28 C18 28.66 18 29.32 18 30 C19.65 30.33 21.3 30.66 23 31 C23 31.33 23 31.66 23 32 C19.7 32 16.4 32 13 32 C12.649 30.783 12.299 29.566 11.938 28.312 C10.375 24.016 8.308 22.568 4.52 20.23 C3 19 3 19 2.062 15.688 C2.042 14.801 2.021 13.914 2 13 C1.01 12.67 0.02 12.34 -1 12 C-0.34 11.67 0.32 11.34 1 11 C0.67 10.34 0.34 9.68 0 9 C-0.07 7.46 -0.085 5.917 -0.062 4.375 C-0.053 3.558 -0.044 2.74 -0.035 1.898 C-0.024 1.272 -0.012 0.645 0 0 Z " fill="#71770C" transform="translate(61,38)"/>
<path d="M0 0 C0 0.33 0 0.66 0 1 C3.3 1.66 6.6 2.32 10 3 C7.21 5.092 5.068 6.576 2 8 C1.464 7.319 0.927 6.639 0.375 5.938 C-2 4 -2 4 -5.25 4.25 C-6.157 4.498 -7.065 4.745 -8 5 C-8.33 6.65 -8.66 8.3 -9 10 C-7.35 9.67 -5.7 9.34 -4 9 C-4.784 9.907 -5.568 10.815 -6.375 11.75 C-8.301 14.052 -9.822 16.216 -11 19 C-12.65 19 -14.3 19 -16 19 C-16.421 12.895 -16.102 9.857 -12 5 C-8.315 1.077 -5.541 -0.66 0 0 Z " fill="#F2403C" transform="translate(57,61)"/>
<path d="M0 0 C1.32 0.33 2.64 0.66 4 1 C4.098 1.603 4.196 2.207 4.297 2.828 C5.209 7.706 5.876 10.838 10 14 C9.67 14.99 9.34 15.98 9 17 C8.01 17 7.02 17 6 17 C6 18.32 6 19.64 6 21 C3 21 3 21 0 20 C-2.221 15.187 -3.324 9.309 -3 4 C-1.512 1.695 -1.512 1.695 0 0 Z " fill="#85A210" transform="translate(64,32)"/>
<path d="M0 0 C1.32 0.33 2.64 0.66 4 1 C4 0.67 4 0.34 4 0 C7.188 -0.375 7.188 -0.375 11 0 C13.14 1.812 14.39 3.658 16 6 C15.131 5.977 14.262 5.954 13.367 5.93 C12.215 5.912 11.062 5.894 9.875 5.875 C8.738 5.852 7.601 5.829 6.43 5.805 C0.081 6.166 -4.682 8.304 -9 13 C-10.471 15.274 -11.714 17.611 -13 20 C-15.957 21.478 -18.742 21.06 -22 21 C-22.33 18.69 -22.66 16.38 -23 14 C-22.34 14 -21.68 14 -21 14 C-21 14.66 -21 15.32 -21 16 C-15.687 15.739 -15.687 15.739 -13 15 C-11.312 12.688 -11.312 12.688 -10 10 C-3.143 4 -3.143 4 2 4 C2 3.34 2 2.68 2 2 C1.34 2 0.68 2 0 2 C0 1.34 0 0.68 0 0 Z " fill="#D61F1F" transform="translate(53,55)"/>
<path d="M0 0 C0.66 0 1.32 0 2 0 C1.401 3.356 0.154 5.378 -2 8 C1.329 7.445 4.116 6.79 7 5 C7.66 4.01 8.32 3.02 9 2 C9.66 2 10.32 2 11 2 C10.67 4.31 10.34 6.62 10 9 C4.061 11.592 -0.541 12.404 -7 12 C-7.121 12.624 -7.242 13.248 -7.367 13.891 C-8 16 -8 16 -10.125 17.75 C-13.593 19.258 -16.257 19.22 -20 19 C-20 18.34 -20 17.68 -20 17 C-19.34 17 -18.68 17 -18 17 C-18 16.34 -18 15.68 -18 15 C-15.69 15 -13.38 15 -11 15 C-10.67 14.34 -10.34 13.68 -10 13 C-10.66 13 -11.32 13 -12 13 C-12 12.34 -12 11.68 -12 11 C-10.886 10.752 -9.773 10.505 -8.625 10.25 C-5 9 -5 9 -3.75 7.188 C-3.502 6.466 -3.255 5.744 -3 5 C-1.5 2.25 -1.5 2.25 0 0 Z " fill="#D12728" transform="translate(89,140)"/>
<path d="M0 0 C0.825 0.33 0.825 0.33 5 2 C3.916 4.439 2.788 6.253 1.062 8.312 C-2.609 13.096 -4.275 18.055 -5 24 C-5.99 23.67 -6.98 23.34 -8 23 C-10.195 18.61 -9.267 13.86 -7.875 9.375 C-5.681 5.425 -3.327 3.031 0 0 Z " fill="#DA3836" transform="translate(24,75)"/>
<path d="M0 0 C2.34 3.656 2.374 6.732 2 11 C0.688 13.938 0.688 13.938 -1 16 C-1.99 16 -2.98 16 -4 16 C-4.33 16.99 -4.66 17.98 -5 19 C-5.66 19 -6.32 19 -7 19 C-8.301 16.398 -8.168 14.403 -8.188 11.5 C-8.202 10.52 -8.216 9.541 -8.23 8.531 C-8 6 -8 6 -6 4 C-5.34 3.299 -4.68 2.597 -4 1.875 C-2 0 -2 0 0 0 Z " fill="#E13F3B" transform="translate(20,101)"/>
<path d="M0 0 C1.812 0.125 1.812 0.125 4 1 C7.957 6.229 7.725 12.714 7 19 C-2 28 -2 28 -5.125 28.125 C-5.599 28.104 -5.599 28.104 -8 28 C-7.34 26.02 -6.68 24.04 -6 22 C-4.35 22 -2.7 22 -1 22 C3.016 16.217 2.013 10.731 1 4 C0.691 2.661 0.368 1.324 0 0 Z " fill="#DD403F" transform="translate(120,91)"/>
<path d="M0 0 C2.954 1.372 5.44 2.989 8 5 C7.67 6.32 7.34 7.64 7 9 C5.35 9.33 3.7 9.66 2 10 C2 9.34 2 8.68 2 8 C1.34 8 0.68 8 0 8 C0.188 10.812 0.188 10.812 1 14 C4.305 16.644 7.977 17.784 12 19 C12 19.33 12 19.66 12 20 C10.42 20.25 8.836 20.474 7.25 20.688 C6.809 20.751 6.809 20.751 4.578 21.074 C1.413 20.983 0.268 20.149 -2 18 C-3.702 14.029 -3.688 9.056 -2.328 4.992 C-1.604 3.305 -0.808 1.649 0 0 Z " fill="#D02D2A" transform="translate(35,139)"/>
<path d="M0 0 C0.63 0.003 0.63 0.003 3.82 0.02 C6.875 0.188 6.875 0.188 7.875 1.188 C7.947 2.874 7.959 4.563 7.938 6.25 C7.928 7.169 7.919 8.088 7.91 9.035 C7.899 9.745 7.887 10.456 7.875 11.188 C6.885 10.858 5.895 10.528 4.875 10.188 C4.875 9.198 4.875 8.207 4.875 7.188 C4.359 7.414 3.844 7.641 3.312 7.875 C-0.413 8.353 -2.77 6.8 -6.125 5.188 C-6.125 4.528 -6.125 3.868 -6.125 3.188 C-7.445 2.858 -8.765 2.528 -10.125 2.188 C-6.411 -0.288 -4.418 -0.05 0 0 Z " fill="#81A209" transform="translate(101.125,68.8125)"/>
<path d="M0 0 C0.379 0.002 0.379 0.002 2.295 0.01 C2.688 0.014 2.688 0.014 4.676 0.035 C5.473 0.04 6.27 0.044 7.092 0.049 C9.057 0.061 11.023 0.079 12.988 0.098 C11.685 4.429 10.953 6.719 6.988 9.098 C6.988 8.438 6.988 7.778 6.988 7.098 C5.998 6.933 5.998 6.933 0.988 6.098 C0.988 5.438 0.988 4.778 0.988 4.098 C-2.642 4.098 -6.272 4.098 -10.012 4.098 C-6.577 0.663 -4.655 -0.035 0 0 Z " fill="#7EA10A" transform="translate(110.01171875,58.90234375)"/>
<path d="M0 0 C-0.364 7.152 -0.364 7.152 -3.25 11 C-6.22 13.16 -7.428 13.51 -11 13 C-12.006 9.8 -12.219 8.459 -10.75 5.375 C-10.172 4.591 -9.595 3.808 -9 3 C-8.783 2.701 -8.783 2.701 -7.688 1.188 C-5.175 -0.58 -2.983 -0.199 0 0 Z " fill="#F6524C" transform="translate(78,75)"/>
<path d="M0 0 C1 4 1 4 0.062 6.25 C-0.113 6.539 -0.113 6.539 -1 8 C-0.287 7.965 0.426 7.93 1.16 7.895 C7.254 7.722 11.689 7.883 17 11 C17.33 11.99 17.66 12.98 18 14 C16.35 14 14.7 14 13 14 C14.25 17.653 14.671 18.781 18 21 C16.68 21.33 15.36 21.66 14 22 C14 22.66 14 23.32 14 24 C15.32 24.66 16.64 25.32 18 26 C16 27 16 27 13.953 26.508 C12 25 12 25 11.172 21.742 C10.781 18.161 10.391 14.581 10 11 C5.05 10.67 0.1 10.34 -5 10 C-3.35 6.7 -1.7 3.4 0 0 Z " fill="#4F6804" transform="translate(98,59)"/>
<path d="M0 0 C1.675 0.286 3.344 0.618 5 1 C-0.032 6.032 -12.185 5.109 -19.087 5.188 C-31.147 5.188 -43.278 5.085 -55 2 C-55 1.67 -55 1.34 -55 1 C-53.763 0.979 -52.525 0.959 -51.25 0.938 C-50.554 0.926 -49.858 0.914 -49.141 0.902 C-47 1 -47 1 -45.338 1.498 C-42.05 2.204 -38.799 2.143 -35.453 2.133 C-34.723 2.134 -33.993 2.135 -33.241 2.136 C-31.698 2.136 -30.155 2.135 -28.611 2.13 C-26.272 2.125 -23.933 2.13 -21.594 2.137 C-20.089 2.136 -18.583 2.135 -17.078 2.133 C-16.388 2.135 -15.698 2.137 -14.988 2.139 C-2.078 2.078 -2.078 2.078 0 0 Z " fill="#F9ECD6" transform="translate(92,164)"/>
<path d="M0 0 C0.508 0.402 1.016 0.804 1.539 1.219 C1.539 1.879 1.539 2.539 1.539 3.219 C2.529 3.549 3.519 3.879 4.539 4.219 C4.209 4.549 3.879 4.879 3.539 5.219 C-4.558 5.219 -10.187 2.296 -16.461 -2.781 C-16.461 -3.441 -16.461 -4.101 -16.461 -4.781 C-10.355 -7.13 -5.077 -3.119 0 0 Z " fill="#739015" transform="translate(128.4609375,77.78125)"/>
<path d="M0 0 C0.66 0.33 1.32 0.66 2 1 C0.528 4.881 -1.374 6.105 -5 8 C-5.99 8.557 -6.98 9.114 -8 9.688 C-10.989 10.995 -12.79 11.283 -16 11 C-16.144 11.299 -16.144 11.299 -16.875 12.812 C-18 15 -18 15 -20 18 C-22.383 18.293 -22.383 18.293 -25.125 18.188 C-26.035 18.16 -26.945 18.133 -27.883 18.105 C-28.581 18.071 -29.28 18.036 -30 18 C-27.831 14.747 -27.044 14.372 -23.562 13 C-19.307 11.318 -19.307 11.318 -17.488 9.438 C-15.588 7.602 -14.209 7.423 -11.625 7 C-7.875 6.262 -5.098 5.347 -2 3 C-1.34 2.01 -0.68 1.02 0 0 Z " fill="#E2BF9B" transform="translate(100,146)"/>
<path d="M0 0 C4.687 0.907 9.342 1.955 14 3 C13.67 3.165 13.67 3.165 12 4 C11.67 4.99 11.34 5.98 11 7 C7.809 9.211 5.055 9.216 1.25 9.125 C0.265 9.107 -0.72 9.089 -1.734 9.07 C-2.108 9.059 -2.108 9.059 -4 9 C-2.68 6.03 -1.36 3.06 0 0 Z " fill="#C61C1F" transform="translate(56,149)"/>
<path d="M0 0 C0.66 0 1.32 0 2 0 C2 0.66 2 1.32 2 2 C-1.286 3.844 -3.724 4.97 -7.5 5.375 C-11.318 6.057 -12.566 7.279 -15.332 9.859 C-18.512 12.034 -22.26 11.807 -26 12 C-28.641 12.45 -30.618 12.809 -33 14 C-34.54 14.07 -36.083 14.085 -37.625 14.062 C-38.034 14.058 -38.034 14.058 -40.102 14.035 C-40.415 14.029 -40.415 14.029 -42 14 C-42 13.01 -42 12.02 -42 11 C-41.687 11.006 -41.687 11.006 -40.102 11.035 C-39.693 11.04 -39.693 11.04 -37.625 11.062 C-37.219 11.068 -37.219 11.068 -35.164 11.098 C-33 11 -33 11 -31 10 C-28.016 9.762 -25.033 9.618 -22.043 9.477 C-18.667 8.948 -16.714 8.056 -14 6 C-13.67 5.01 -13.34 4.02 -13 3 C-12.145 2.867 -11.291 2.734 -10.41 2.598 C-9.305 2.421 -8.201 2.244 -7.062 2.062 C-5.96 1.888 -4.858 1.714 -3.723 1.535 C-1 1 -1 1 0 0 Z " fill="#C03329" transform="translate(95,149)"/>
<path d="M0 0 C0.66 0 1.32 0 2 0 C2.312 2.688 2.312 2.688 2 6 C-0.125 8.438 -0.125 8.438 -3 11 C-4.122 12.256 -5.226 13.527 -6.312 14.812 C-6.824 15.417 -7.336 16.022 -7.863 16.645 C-8.238 17.092 -8.614 17.539 -9 18 C-10.131 14.607 -9.967 13.384 -9 10 C-8.018 8.323 -7.019 6.655 -6 5 C-5.312 2.688 -5.312 2.688 -5 1 C-3.35 1.33 -1.7 1.66 0 2 C0 1.34 0 0.68 0 0 Z " fill="#607C13" transform="translate(114,32)"/>
<path d="M0 0 C0.33 1.65 0.66 3.3 1 5 C2.114 5.103 3.227 5.206 4.375 5.312 C4.973 5.426 4.973 5.426 8 6 C8.33 6.495 8.33 6.495 10 9 C9.361 9.289 8.721 9.578 8.062 9.875 C6 11 6 11 5 13 C3.35 13 1.7 13 0 13 C-4.033 6.767 -4.033 6.767 -3.875 3.125 C-3 0.999 -2.477 0 0 0 Z " fill="#E62C2B" transform="translate(40,104)"/>
<path d="M0 0 C0.701 0.289 1.403 0.578 2.125 0.875 C5 2 5 2 8.25 2.875 C11 4 11 4 11.875 6 C11.958 7.331 12 8.666 12 10 C7.463 10.178 4.092 10.046 0 8 C-1 7 -1 7 -1.125 4 C-1 1 -1 1 0 0 Z " fill="#D96E34" transform="translate(50,43)"/>
<path d="M0 0 C0.66 0 1.32 0 2 0 C2.301 5.116 1.857 7.772 -1 12 C-1.688 14.312 -1.688 14.312 -2 16 C-5.621 17.014 -9.278 17.499 -13 18 C-13 17.01 -13 16.02 -13 15 C-11.948 14.67 -10.896 14.34 -9.812 14 C-5.143 12.02 -3.082 8.483 -1 4 C-0.628 2.677 -0.283 1.345 0 0 Z " fill="#D9383B" transform="translate(115,121)"/>
<path d="M0 0 C0.66 1.32 1.32 2.64 2 4 C1.526 4.072 1.526 4.072 -0.875 4.438 C-4 5 -4 5 -6 6 C-6.33 6 -6.66 6 -7 6 C-7 6.66 -7 7.32 -7 8 C-14.429 10.429 -14.429 10.429 -18 9 C-16.63 5.839 -16.011 5.007 -13 3 C-12.01 3 -11.02 3 -10 3 C-10 2.34 -10 1.68 -10 1 C-6.7 1.33 -3.4 1.66 0 2 C0 1.34 0 0.68 0 0 Z " fill="#E73935" transform="translate(62,51)"/>
<path d="M0 0 C0.66 0.66 1.32 1.32 2 2 C1.625 4.125 1.625 4.125 1 6 C0.34 6 -0.32 6 -1 6 C-1.619 6.619 -2.237 7.238 -2.875 7.875 C-4.916 9.916 -6.289 11.068 -9 12 C-11.25 11.625 -11.25 11.625 -13 11 C-12.381 10.237 -11.763 9.474 -11.125 8.688 C-9 6 -9 6 -7 3 C-6.34 3 -5.68 3 -5 3 C-3.312 2.036 -1.643 1.038 0 0 Z " fill="#C81A1E" transform="translate(99,137)"/>
<path d="M0 0 C2.05 1.025 4.076 2.044 6.062 3.188 C8 4 8 4 11 3 C11 3.66 11 4.32 11 5 C10.01 5.66 9.02 6.32 8 7 C7.488 9.82 7.488 9.82 7.312 13.125 C7.247 14.221 7.181 15.316 7.113 16.445 C7.076 17.288 7.039 18.131 7 19 C8.32 19 9.64 19 11 19 C11 19.66 11 20.32 11 21 C12.65 21.33 14.3 21.66 16 22 C16 22.33 16 22.66 16 23 C12.7 23 9.4 23 6 23 C4.043 19.085 4.698 14.113 4.574 9.797 C3.901 5.345 2.716 3.492 0 0 Z " fill="#547106" transform="translate(68,47)"/>
<path d="M0 0 C0.027 1.479 0.046 2.958 0.062 4.438 C0.074 5.261 0.086 6.085 0.098 6.934 C0 9 0 9 -1 10 C-3 10.041 -5 10.043 -7 10 C-7.33 7.69 -7.66 5.38 -8 3 C-3.375 0 -3.375 0 0 0 Z " fill="#F2413E" transform="translate(35,79)"/>
<path d="M0 0 C1.938 0.562 1.938 0.562 4 2 C4.75 5.625 4.75 5.625 5 9 C8.3 9 11.6 9 15 9 C15 9.33 15 9.66 15 10 C14.131 10.063 13.262 10.126 12.367 10.191 C1.781 11.316 1.781 11.316 -1.75 15.5 C-4.273 19.087 -5.17 21.75 -5.562 26.125 C-5.604 26.58 -5.604 26.58 -5.816 28.883 C-5.877 29.581 -5.938 30.28 -6 31 C-6.33 31 -6.66 31 -7 31 C-7.124 29.866 -7.248 28.731 -7.375 27.562 C-7.581 26.387 -7.788 25.211 -8 24 C-8.66 23.67 -9.32 23.34 -10 23 C-5.933 17.794 -1.674 12.674 3 8 C2.01 5.36 1.02 2.72 0 0 Z " fill="#BD2216" transform="translate(69,61)"/>
<path d="M0 0 C0.99 0.165 0.99 0.165 6 1 C6.625 3.375 6.625 3.375 7 6 C6.34 6.66 5.68 7.32 5 8 C3 8 1 8 -1 8 C-1.66 8.66 -2.32 9.32 -3 10 C-2.25 3.375 -2.25 3.375 0 0 Z " fill="#EB3B39" transform="translate(66,105)"/>
<path d="M0 0 C3.186 0.22 4.042 1.045 6.25 3.438 C8 6 8 6 8 8 C6.68 7.67 5.36 7.34 4 7 C3.67 7.66 3.34 8.32 3 9 C2.34 9 1.68 9 1 9 C1 9.99 1 10.98 1 12 C0.34 12 -0.32 12 -1 12 C-1.027 10.188 -1.046 8.375 -1.062 6.562 C-1.074 5.553 -1.086 4.544 -1.098 3.504 C-1 1 -1 1 0 0 Z " fill="#87A40B" transform="translate(76,53)"/>
<path d="M0 0 C1.98 0.66 3.96 1.32 6 2 C6.33 4.31 6.66 6.62 7 9 C5.68 8.34 4.36 7.68 3 7 C2.01 7.99 1.02 8.98 0 10 C-0.99 8.68 -1.98 7.36 -3 6 C-2.01 4.02 -1.02 2.04 0 0 Z M3 8 C3.33 8.66 3.66 9.32 4 10 C3.34 9.67 2.68 9.34 2 9 C2.33 8.67 2.66 8.34 3 8 Z " fill="#6F9306" transform="translate(84,47)"/>
<path d="M0 0 C0.99 0.33 1.98 0.66 3 1 C1.482 5.192 -0.605 8.908 -2.938 12.688 C-3.285 13.268 -3.632 13.849 -3.99 14.447 C-5.805 17.404 -7.065 19.044 -10 21 C-8.52 15.999 -6.368 11.671 -3.875 7.125 C-3.502 6.437 -3.13 5.748 -2.746 5.039 C-1.835 3.357 -0.918 1.678 0 0 Z " fill="#93B113" transform="translate(106,34)"/>
<path d="M0 0 C0.33 1.32 0.66 2.64 1 4 C2.093 3.67 3.186 3.34 4.312 3 C8 2 8 2 11 2 C8.932 4.797 7.856 5.027 4.312 5.688 C3.219 5.791 2.126 5.894 1 6 C0.948 6.392 0.948 6.392 0.688 8.375 C0 11 0 11 -3 13 C-2.649 12.278 -2.299 11.556 -1.938 10.812 C-0.896 7.688 -1.109 6.118 -2 3 C-4.31 4.32 -6.62 5.64 -9 7 C-9 6.34 -9 5.68 -9 5 C-9.99 4.67 -10.98 4.34 -12 4 C-8.04 2.68 -4.08 1.36 0 0 Z " fill="#B81D1F" transform="translate(101,135)"/>
<path d="M0 0 C1.32 0.33 2.64 0.66 4 1 C4 0.67 4 0.34 4 0 C7.188 -0.375 7.188 -0.375 11 0 C12.65 1.98 14.3 3.96 16 6 C10.72 5.67 5.44 5.34 0 5 C0.66 4.67 1.32 4.34 2 4 C2 3.34 2 2.68 2 2 C1.34 2 0.68 2 0 2 C0 1.34 0 0.68 0 0 Z " fill="#A41910" transform="translate(53,55)"/>
<path d="M0 0 C1.32 0.33 2.64 0.66 4 1 C4.33 3.97 4.66 6.94 5 10 C4.01 10 3.02 10 2 10 C1.67 9.01 1.34 8.02 1 7 C0.67 8.65 0.34 10.3 0 12 C-0.66 12 -1.32 12 -2 12 C-3.354 4.615 -3.354 4.615 -1.562 1.5 C-1.047 1.005 -0.531 0.51 0 0 Z " fill="#97B712" transform="translate(64,32)"/>
<path d="M0 0 C2.954 1.372 5.44 2.989 8 5 C7.67 6.32 7.34 7.64 7 9 C5.35 9.33 3.7 9.66 2 10 C2 9.34 2 8.68 2 8 C1.34 8 0.68 8 0 8 C-0.381 5.674 -0.713 3.339 -1 1 C-0.67 0.67 -0.34 0.34 0 0 Z " fill="#E5312F" transform="translate(35,139)"/>
<path d="M0 0 C0.33 0 0.66 0 1 0 C1.316 5.262 0.899 8.555 -2 13 C-7.961 18.898 -7.961 18.898 -11.945 19.098 C-13.964 19.065 -15.982 19.033 -18 19 C-18.33 18.34 -18.66 17.68 -19 17 C-18.264 16.914 -17.528 16.827 -16.77 16.738 C-12.093 16.065 -8.797 15.585 -4.938 12.75 C-2.886 9.839 -1.878 7.44 -1 4 C-0.897 3.608 -0.897 3.608 -0.375 1.625 C-0.251 1.089 -0.127 0.552 0 0 Z " fill="#D52C2E" transform="translate(105,119)"/>
<path d="M0 0 C0 1.333 0 2.667 0 4 C-0.969 4.289 -1.939 4.578 -2.938 4.875 C-6 6 -6 6 -7 8 C-9.562 8.625 -9.562 8.625 -12 9 C-12 9.66 -12 10.32 -12 11 C-12.99 11 -13.98 11 -15 11 C-14.333 9.667 -13.667 8.333 -13 7 C-12.763 6.33 -12.526 5.659 -12.281 4.969 C-10.442 2.143 -8.6 2 -5.375 1.25 C-4.372 1.008 -3.369 0.765 -2.336 0.516 C-1.565 0.345 -0.794 0.175 0 0 Z " fill="#EC4E46" transform="translate(51,52)"/>
<path d="M0 0 C0.66 0 1.32 0 2 0 C1.67 2.31 1.34 4.62 1 7 C-4.36 9.257 -8.198 10.363 -14 10 C-10.85 7.375 -7.512 5.741 -3.805 4.062 C-2 3 -2 3 0 0 Z " fill="#D73636" transform="translate(98,142)"/>
<path d="M0 0 C0.675 0.205 1.351 0.41 2.047 0.621 C2.939 0.891 3.831 1.16 4.75 1.438 C5.632 1.704 6.513 1.971 7.422 2.246 C9.606 2.885 11.788 3.468 14 4 C14 4.66 14 5.32 14 6 C13.031 6.289 12.061 6.578 11.062 6.875 C8 8 8 8 7 10 C5.83 8.523 4.664 7.043 3.5 5.562 C2.85 4.739 2.201 3.915 1.531 3.066 C0 1 0 1 0 0 Z " fill="#AA1513" transform="translate(106,83)"/>
<path d="M0 0 C0.458 0.006 0.458 0.006 2.777 0.035 C3.696 0.044 4.616 0.053 5.562 0.062 C6.273 0.074 6.983 0.086 7.715 0.098 C7.715 0.758 7.715 1.418 7.715 2.098 C7.055 2.098 6.395 2.098 5.715 2.098 C5.055 3.418 4.395 4.738 3.715 6.098 C1.405 6.098 -0.905 6.098 -3.285 6.098 C-3.328 4.432 -3.326 2.764 -3.285 1.098 C-2.285 0.098 -2.285 0.098 0 0 Z " fill="#ED3E3B" transform="translate(43.28515625,119.90234375)"/>
<path d="M0 0 C1.461 2.647 2 3.894 2 7 C-2.222 10 -2.222 10 -5 10 C-5 7.03 -5 4.06 -5 1 C-2 0 -2 0 0 0 Z " fill="#DF4944" transform="translate(21,127)"/>
<path d="M0 0 C3 2 3 2 3.668 3.859 C4.685 10.416 4.298 15.415 1.266 21.371 C-0.288 23.371 -1.651 24.092 -4 25 C-6.75 25.125 -6.75 25.125 -9 25 C-7 23 -7 23 -4.062 21.812 C0.006 19.405 0.742 17.516 2 13 C1.984 10.183 1.542 7.801 1 5 C0.814 4.01 0.629 3.02 0.438 2 C0.365 1.67 0.365 1.67 0 0 Z " fill="#D9302F" transform="translate(109,88)"/>
<path d="M0 0 C0.33 0.66 0.66 1.32 1 2 C2.485 1.835 2.485 1.835 10 1 C10 1.66 10 2.32 10 3 C10.99 3.165 10.99 3.165 16 4 C16 4.66 16 5.32 16 6 C16.99 6.33 17.98 6.66 19 7 C18.34 7.66 17.68 8.32 17 9 C17 8.34 17 7.68 17 7 C16.216 6.856 15.433 6.711 14.625 6.562 C12 6 12 6 10 5 C8.129 4.772 6.253 4.59 4.375 4.438 C3.874 4.396 3.874 4.396 1.336 4.184 C0.565 4.123 -0.206 4.062 -1 4 C-0.67 2.68 -0.34 1.36 0 0 Z " fill="#63830A" transform="translate(98,63)"/>
<path d="M0 0 C0.66 0 1.32 0 2 0 C0.482 4.25 -2.064 5.959 -6 8 C-9.487 8.473 -12.785 8.607 -16 7 C-16 6.34 -16 5.68 -16 5 C-15.626 4.976 -15.626 4.976 -13.734 4.852 C-12.75 4.777 -11.765 4.702 -10.75 4.625 C-9.775 4.555 -8.801 4.486 -7.797 4.414 C-5.074 4.011 -3.309 3.472 -1 2 C-0.67 1.34 -0.34 0.68 0 0 Z " fill="#D83433" transform="translate(68,153)"/>
<path d="M0 0 C1.32 0 2.64 0 4 0 C3.938 1.75 3.938 1.75 3 4 C-1.332 6.973 -4.702 8.483 -10 9 C-10 8.34 -10 7.68 -10 7 C-11.32 7 -12.64 7 -14 7 C-14.66 5.68 -15.32 4.36 -16 3 C-15.448 3.327 -14.897 3.655 -14.328 3.992 C-11.612 5.168 -9.694 5.202 -6.75 5.125 C-6.304 5.116 -6.304 5.116 -4.047 5.07 C-3.371 5.047 -2.696 5.024 -2 5 C-2 4.34 -2 3.68 -2 3 C-0.68 2.67 0.64 2.34 2 2 C1.34 1.34 0.68 0.68 0 0 Z " fill="#65721E" transform="translate(130,80)"/>
<path d="M0 0 C5.003 0.476 8.031 1.933 12 5 C12.33 5.495 12.33 5.495 14 8 C16.325 8.694 18.659 9.361 21 10 C21.33 10.66 21.66 11.32 22 12 C11.24 11.159 11.24 11.159 8.266 8.379 C7.479 7.151 6.729 5.898 6.023 4.621 C4.523 2.244 2.647 1.681 0 1 C0 0.67 0 0.34 0 0 Z " fill="#6E4407" transform="translate(84,71)"/>
<path d="M0 0 C0.66 0 1.32 0 2 0 C1.732 0.66 1.464 1.32 1.188 2 C-0.257 5.649 -1.629 9.322 -3 13 C-2.34 13.33 -1.68 13.66 -1 14 C-1.495 14.33 -1.495 14.33 -4 16 C-5.74 14.26 -5.372 11.806 -5.562 9.438 C-5.604 8.932 -5.604 8.932 -5.816 6.371 C-5.877 5.589 -5.938 4.806 -6 4 C-4.68 4 -3.36 4 -2 4 C-1.34 2.68 -0.68 1.36 0 0 Z " fill="#3F6202" transform="translate(92,56)"/>
<path d="M0 0 C0.412 0.052 0.412 0.052 2.5 0.312 C3.16 1.302 3.82 2.293 4.5 3.312 C3.375 4.875 3.375 4.875 1.5 6.312 C-1.688 6 -1.688 6 -4.5 5.312 C-4.5 5.972 -4.5 6.633 -4.5 7.312 C-5.16 7.312 -5.82 7.312 -6.5 7.312 C-3.99 0.499 -3.99 0.499 0 0 Z " fill="#839539" transform="translate(110.5,28.6875)"/>
<path d="M0 0 C0.66 0.33 1.32 0.66 2 1 C0.528 4.881 -1.374 6.105 -5 8 C-5.99 8.577 -6.98 9.155 -8 9.75 C-11.288 11.12 -12.669 11.078 -16 10 C-16 9.34 -16 8.68 -16 8 C-15.704 7.945 -15.704 7.945 -14.207 7.668 C-8.122 6.447 -3.602 5.403 0 0 Z " fill="#EBC6A8" transform="translate(100,146)"/>
<path d="M0 0 C0.33 0.33 0.66 0.66 1 1 C3.328 1.368 5.662 1.702 8 2 C4.236 4.491 1.134 4.031 -3.25 3.625 C-4.513 3.514 -5.777 3.403 -7.078 3.289 C-8.042 3.194 -9.007 3.098 -10 3 C-10.33 2.01 -10.66 1.02 -11 0 C-3.414 -1.313 -3.414 -1.313 0 0 Z " fill="#DBB08D" transform="translate(52,161)"/>
<path d="M0 0 C0.825 0.33 0.825 0.33 5 2 C4.67 3.65 4.34 5.3 4 7 C1.667 7 -0.667 7 -3 7 C-2.25 2.25 -2.25 2.25 0 0 Z " fill="#EC403B" transform="translate(25,110)"/>
<path d="M0 0 C0.99 0 1.98 0 3 0 C3.292 4.958 3.129 8.028 0 12 C-0.66 12 -1.32 12 -2 12 C-1.859 10.375 -1.712 8.75 -1.562 7.125 C-1.481 6.22 -1.4 5.315 -1.316 4.383 C-1 2 -1 2 0 0 Z " fill="#EB413D" transform="translate(96,87)"/>
<path d="M0 0 C-2.586 1.401 -5.157 2.387 -7.938 3.312 C-13.91 5.518 -17.198 10.072 -21 15 C-20.678 9.682 -17.71 6.519 -14 3 C-9.203 -0.233 -5.597 -0.289 0 0 Z " fill="#CF312C" transform="translate(48,53)"/>
<path d="M0 0 C2.97 0.33 5.94 0.66 9 1 C9.33 1.99 9.66 2.98 10 4 C10.66 4.33 11.32 4.66 12 5 C12 3.35 12 1.7 12 0 C12.33 0 12.66 0 13 0 C13 2.97 13 5.94 13 9 C10.562 8.188 10.562 8.188 8 7 C7.67 6.01 7.34 5.02 7 4 C5.672 3.646 4.338 3.315 3 3 C2.01 2.01 1.02 1.02 0 0 Z " fill="#6C8605" transform="translate(97,75)"/>
<path d="M0 0 C2.011 2.56 3.628 5.046 5 8 C4.67 8.33 4.34 8.66 4 9 C5.155 9.66 5.155 9.66 11 13 C9.375 13.75 9.375 13.75 7 14 C2.85 12.008 1.301 10.747 -0.438 6.438 C-1 3 -1 3 0 0 Z " fill="#F2D9BF" transform="translate(30,151)"/>
<path d="M0 0 C0.33 1.32 0.66 2.64 1 4 C0.505 4.33 0.505 4.33 -2 6 C-1.34 4.02 -0.68 2.04 0 0 Z M-8 6 C-6.35 6.33 -4.7 6.66 -3 7 C-3.33 8.65 -3.66 10.3 -4 12 C-5.98 12 -7.96 12 -10 12 C-9.34 10.02 -8.68 8.04 -8 6 Z " fill="#DA3536" transform="translate(122,107)"/>
<path d="M0 0 C3.343 1.051 5.015 2.016 7.5 4.562 C10.142 7.138 11.4 7.691 15 8 C14.67 8.99 14.34 9.98 14 11 C10.562 10.188 10.562 10.188 7 9 C6.67 8.01 6.34 7.02 6 6 C4.339 5.319 2.672 4.653 1 4 C0.34 3.01 -0.32 2.02 -1 1 C-0.67 0.67 -0.34 0.34 0 0 Z " fill="#5F7F03" transform="translate(90,70)"/>
<path d="M0 0 C0.763 0.206 1.526 0.412 2.312 0.625 C1.983 1.615 1.653 2.605 1.312 3.625 C0.653 3.625 -0.008 3.625 -0.688 3.625 C-0.688 4.285 -0.688 4.945 -0.688 5.625 C-2.337 5.955 -3.987 6.285 -5.688 6.625 C-5.875 4.25 -5.875 4.25 -5.688 1.625 C-2.688 -0.375 -2.688 -0.375 0 0 Z " fill="#FC8B80" transform="translate(53.6875,64.375)"/>
<path d="M0 0 C0.33 0.66 0.66 1.32 1 2 C1.66 2.33 2.32 2.66 3 3 C2.546 3.258 2.546 3.258 0.25 4.562 C-5.544 8.443 -7.406 14.489 -9 21 C-9.33 21 -9.66 21 -10 21 C-9.965 13.537 -7.793 9.567 -3 4 C-1.991 2.673 -0.989 1.341 0 0 Z " fill="#DA2322" transform="translate(29,77)"/>
<path d="M0 0 C4.571 0.549 8.674 1.417 13 3 C11 5 11 5 7.062 5.438 C4.91 5.402 4.91 5.402 3 5 C1 2.5 1 2.5 0 0 Z " fill="#668C0D" transform="translate(115,81)"/>
<path d="M0 0 C0.66 1.32 1.32 2.64 2 4 C1.526 4.072 1.526 4.072 -0.875 4.438 C-4 5 -4 5 -6 6 C-8.349 5.392 -10.685 4.729 -13 4 C-12.01 3.67 -11.02 3.34 -10 3 C-10 2.34 -10 1.68 -10 1 C-6.7 1.33 -3.4 1.66 0 2 C0 1.34 0 0.68 0 0 Z " fill="#C53A20" transform="translate(62,51)"/>
<path d="M0 0 C0 3 0 3 -1.648 4.664 C-4.502 6.285 -6.359 6.401 -9.625 6.375 C-10.587 6.383 -11.548 6.39 -12.539 6.398 C-13.351 6.267 -14.163 6.135 -15 6 C-15.66 5.01 -16.32 4.02 -17 3 C-16.192 3.035 -15.384 3.07 -14.551 3.105 C-14.016 3.119 -14.016 3.119 -11.312 3.188 C-10.785 3.205 -10.785 3.205 -8.113 3.293 C-4.646 2.967 -2.816 1.99 0 0 Z " fill="#CD292A" transform="translate(77,144)"/>
<path d="M0 0 C1.206 2.332 2.165 4.496 3 7 C5.504 7.949 5.504 7.949 8.562 8.688 C9.574 8.939 10.586 9.19 11.629 9.449 C12.411 9.631 13.194 9.813 14 10 C14 10.33 14 10.66 14 11 C8.778 11.313 5.423 10.88 1 8 C-0.188 5.938 -0.188 5.938 -1 4 C-1.99 3.34 -2.98 2.68 -4 2 C-2.68 1.34 -1.36 0.68 0 0 Z " fill="#B91012" transform="translate(56,141)"/>
<path d="M0 0 C0.485 0.01 0.485 0.01 2.938 0.062 C2.608 1.713 2.278 3.363 1.938 5.062 C0.287 5.393 -1.362 5.722 -3.062 6.062 C-3.445 4.406 -3.776 2.738 -4.062 1.062 C-3.062 0.062 -3.062 0.062 0 0 Z " fill="#E03330" transform="translate(67.0625,132.9375)"/>
<path d="M0 0 C0.33 0.165 0.33 0.165 2 1 C2 1.66 2 2.32 2 3 C4.97 3 7.94 3 11 3 C11.33 3.66 11.66 4.32 12 5 C10.185 5.495 10.185 5.495 1 8 C0.67 5.36 0.34 2.72 0 0 Z " fill="#AF1814" transform="translate(92,78)"/>
<path d="M0 0 C0.99 0.165 0.99 0.165 6 1 C6 1.99 6 2.98 6 4 C5.34 4 4.68 4 4 4 C3.67 4.99 3.34 5.98 3 7 C0.69 7 -1.62 7 -4 7 C-3.34 6.67 -2.68 6.34 -2 6 C-2 5.01 -2 4.02 -2 3 C-1.34 3 -0.68 3 0 3 C0 2.01 0 1.02 0 0 Z " fill="#6E8D06" transform="translate(79,59)"/>
<path d="M0 0 C0.33 1.32 0.66 2.64 1 4 C-3.105 6.985 -5.977 7.295 -11 7 C-11 6.34 -11 5.68 -11 5 C-10.34 5 -9.68 5 -9 5 C-9 4.34 -9 3.68 -9 3 C-6.03 3 -3.06 3 0 3 C0 2.01 0 1.02 0 0 Z " fill="#D83735" transform="translate(80,152)"/>
<path d="M0 0 C0.66 0 1.32 0 2 0 C2 0.66 2 1.32 2 2 C-2.399 4.468 -6.029 5.356 -11 6 C-13.438 7.062 -13.438 7.062 -15 8 C-14.379 5.578 -14.379 5.578 -13 3 C-10.215 2.109 -10.215 2.109 -6.938 1.75 C-1.05 1.05 -1.05 1.05 0 0 Z " fill="#B82521" transform="translate(95,149)"/>
<path d="M0 0 C3.367 4.391 4.122 6.537 4.062 12.125 C4.053 13.221 4.044 14.316 4.035 15.445 C4.024 16.288 4.012 17.131 4 18 C3.34 18 2.68 18 2 18 C1.939 17.287 1.879 16.574 1.816 15.84 C1.352 10.53 0.819 5.267 0 0 Z " fill="#CB403F" transform="translate(123,92)"/>
<path d="M0 0 C0.434 0.003 0.434 0.003 2.633 0.016 C3.496 0.01 4.36 0.005 5.25 0 C7.863 0.277 9.508 0.947 11.758 2.266 C6.258 3.568 1.287 2.976 -4.242 2.266 C-2.242 0.266 -2.242 0.266 0 0 Z " fill="#8CAF0C" transform="translate(108.2421875,58.734375)"/>
<path d="M0 0 C0.33 0 0.66 0 1 0 C1 2.97 1 5.94 1 9 C2.32 9 3.64 9 5 9 C5 9.66 5 10.32 5 11 C6.65 11.33 8.3 11.66 10 12 C10 12.33 10 12.66 10 13 C6.7 13 3.4 13 0 13 C-1.016 8.371 -0.838 4.655 0 0 Z " fill="#6A6405" transform="translate(74,57)"/>
<path d="M0 0 C1.32 0 2.64 0 4 0 C3.25 4.75 3.25 4.75 1 7 C0.01 7 -0.98 7 -2 7 C-2.125 4.625 -2.125 4.625 -2 2 C-1.34 1.34 -0.68 0.68 0 0 Z " fill="#FC9C8E" transform="translate(45,92)"/>
<path d="M0 0 C0.66 0.99 1.32 1.98 2 3 C1.795 3.224 1.795 3.224 0.758 4.355 C-2.256 7.737 -4.661 10.58 -6 15 C-6.66 15 -7.32 15 -8 15 C-6.276 9.43 -4.546 3.896 0 0 Z " fill="#D51F1E" transform="translate(42,88)"/>
<path d="M0 0 C4.967 0.04 9.344 0.344 13 4 C11.515 4.165 11.515 4.165 4 5 C3.67 4.01 3.34 3.02 3 2 C0.938 1.312 0.938 1.312 -1 1 C-0.67 0.67 -0.34 0.34 0 0 Z " fill="#739905" transform="translate(92,70)"/>
<path d="M0 0 C2.64 0 5.28 0 8 0 C8.33 0.99 8.66 1.98 9 3 C9.99 3 10.98 3 12 3 C11.67 3.66 11.34 4.32 11 5 C7.37 4.34 3.74 3.68 0 3 C0 2.01 0 1.02 0 0 Z " fill="#E3322D" transform="translate(56,60)"/>
<path d="M0 0 C6.632 6.447 6.632 6.447 9 10 C8.75 12.312 8.75 12.312 8 14 C6.68 13.34 5.36 12.68 4 12 C4.268 11.464 4.536 10.928 4.812 10.375 C5 8 5 8 2.562 4.875 C1.717 3.926 0.871 2.977 0 2 C0 1.34 0 0.68 0 0 Z " fill="#6E8E14" transform="translate(68,38)"/>
<path d="M0 0 C2 3 2 3 4 8 C0.04 8 -3.92 8 -8 8 C-6 6 -6 6 -2.875 5.875 C-1.926 5.916 -0.977 5.957 0 6 C0 4.02 0 2.04 0 0 Z " fill="#F7EAE3" transform="translate(47,45)"/>
<path d="M0 0 C4.875 1.75 4.875 1.75 6 4 C5.01 4 4.02 4 3 4 C2.67 5.65 2.34 7.3 2 9 C1.01 8.34 0.02 7.68 -1 7 C-1.25 3.938 -1.25 3.938 -1 1 C-0.67 0.67 -0.34 0.34 0 0 Z " fill="#AE6723" transform="translate(50,43)"/>
<path d="M0 0 C0.66 0.66 1.32 1.32 2 2 C1.625 4.125 1.625 4.125 1 6 C0.34 6 -0.32 6 -1 6 C-2.373 7.292 -3.71 8.624 -5 10 C-5.66 9.67 -6.32 9.34 -7 9 C-4.69 6.03 -2.38 3.06 0 0 Z " fill="#D0252B" transform="translate(99,137)"/>
<path d="M0 0 C1.32 0 2.64 0 4 0 C3.67 1.65 3.34 3.3 3 5 C1.35 5.33 -0.3 5.66 -2 6 C-1.125 1.125 -1.125 1.125 0 0 Z " fill="#F8786E" transform="translate(69,107)"/>
<path d="M0 0 C0.825 0.33 0.825 0.33 5 2 C3.951 4.622 3.351 5.794 0.875 7.25 C0.256 7.498 -0.363 7.745 -1 8 C-1.082 4.956 -0.976 2.928 0 0 Z " fill="#EE534C" transform="translate(24,75)"/>
<path d="M0 0 C1 4 1 4 -1 8 C1.97 8 4.94 8 8 8 C8 8.33 8 8.66 8 9 C5.855 9.165 5.855 9.165 -5 10 C-3.35 6.7 -1.7 3.4 0 0 Z " fill="#406301" transform="translate(98,59)"/>
<path d="M0 0 C1.875 0.688 1.875 0.688 4 2 C4.688 3.658 5.356 5.325 6 7 C6.99 7.33 7.98 7.66 9 8 C4.599 7.497 2.288 5.912 -1 3 C-0.67 2.01 -0.34 1.02 0 0 Z " fill="#CF3F3D" transform="translate(22,143)"/>
<path d="M0 0 C0.66 0.33 1.32 0.66 2 1 C1.67 1.99 1.34 2.98 1 4 C1.938 6.688 1.938 6.688 3 9 C1.68 9 0.36 9 -1 9 C-1.66 7.02 -2.32 5.04 -3 3 C-2.01 2.01 -1.02 1.02 0 0 Z " fill="#DE3231" transform="translate(20,134)"/>
<path d="M0 0 C0.99 0.33 1.98 0.66 3 1 C3.25 7.625 3.25 7.625 1 11 C-0.562 8.188 -0.562 8.188 -2 5 C-1 2 -1 2 0 0 Z " fill="#D32D2B" transform="translate(16,117)"/>
<path d="M0 0 C-0.33 1.98 -0.66 3.96 -1 6 C-1.33 4.68 -1.66 3.36 -2 2 C-7.28 2 -12.56 2 -18 2 C-18 1.67 -18 1.34 -18 1 C-15.75 0.832 -13.5 0.665 -11.25 0.5 C-10.624 0.454 -10.624 0.454 -7.453 0.219 C-4.973 0.062 -2.485 0 0 0 Z " fill="#708E23" transform="translate(125,57)"/>
<path d="M0 0 C0.99 0 1.98 0 3 0 C2.67 1.65 2.34 3.3 2 5 C0.35 5.33 -1.3 5.66 -3 6 C-2.427 3.133 -2.139 2.139 0 0 Z " fill="#FC8076" transform="translate(31,83)"/>
<path d="M0 0 C2.784 1.392 2.979 3.156 4 6 C3.01 6.66 2.02 7.32 1 8 C0.01 7.01 -0.98 6.02 -2 5 C-1.34 3.35 -0.68 1.7 0 0 Z " fill="#7F950E" transform="translate(67,46)"/>
<path d="M0 0 C4.609 0.72 8.672 2.313 13 4 C13 4.33 13 4.66 13 5 C11.395 4.94 9.791 4.851 8.188 4.75 C7.741 4.727 7.741 4.727 5.48 4.609 C3 4 3 4 1.176 1.953 C0.788 1.309 0.4 0.664 0 0 Z " fill="#E13C3A" transform="translate(34,154)"/>
<path d="M0 0 C1.65 0 3.3 0 5 0 C4.67 1.32 4.34 2.64 4 4 C2.35 4.33 0.7 4.66 -1 5 C-0.67 3.35 -0.34 1.7 0 0 Z " fill="#FB9283" transform="translate(71,76)"/>
<path d="M0 0 C6.523 0.615 6.523 0.615 8.938 2.562 C9.288 3.037 9.639 3.511 10 4 C3.375 4.25 3.375 4.25 0 2 C0 1.34 0 0.68 0 0 Z " fill="#7CA109" transform="translate(112,73)"/>
<path d="M0 0 C0.66 0 1.32 0 2 0 C2 0.66 2 1.32 2 2 C4.64 2 7.28 2 10 2 C9.402 2.268 8.804 2.536 8.188 2.812 C6 4 6 4 4.375 5.625 C3.921 6.079 3.468 6.532 3 7 C2.34 7 1.68 7 1 7 C0.67 4.69 0.34 2.38 0 0 Z " fill="#EB2D2B" transform="translate(30,69)"/>
<path d="M0 0 C0.33 0.99 0.66 1.98 1 3 C-3.018 9.888 -3.018 9.888 -6 12 C-8.094 11.566 -8.094 11.566 -10 11 C-8.907 10.299 -7.814 9.597 -6.688 8.875 C-3.198 6.41 -1.589 4.02 0 0 Z " fill="#E32D2C" transform="translate(91,88)"/>
<path d="M0 0 C1.188 1.625 1.188 1.625 2 4 C0.625 7.25 0.625 7.25 -1 10 C-2.361 7.758 -3.061 6.522 -2.75 3.875 C-2 2 -2 2 0 0 Z " fill="#EE3B3A" transform="translate(22,79)"/>
<path d="M0 0 C3.688 0.875 3.688 0.875 7 2 C7 2.66 7 3.32 7 4 C0.375 4.25 0.375 4.25 -3 2 C-2.01 1.34 -1.02 0.68 0 0 Z " fill="#E05A2C" transform="translate(55,49)"/>
<path d="M0 0 C0.33 0 0.66 0 1 0 C1.66 3.63 2.32 7.26 3 11 C1.68 11 0.36 11 -1 11 C-1.027 9.354 -1.046 7.708 -1.062 6.062 C-1.074 5.146 -1.086 4.229 -1.098 3.285 C-1 1 -1 1 0 0 Z " fill="#C81A1B" transform="translate(19,117)"/>
<path d="M0 0 C0.33 0 0.66 0 1 0 C1 3.3 1 6.6 1 10 C0.01 9.67 -0.98 9.34 -2 9 C-2.75 7.062 -2.75 7.062 -3 5 C-2.67 4.34 -2.34 3.68 -2 3 C-1.34 3 -0.68 3 0 3 C0 2.01 0 1.02 0 0 Z " fill="#7A9A06" transform="translate(108,70)"/>
<path d="M0 0 C2.31 0 4.62 0 7 0 C7 0.99 7 1.98 7 3 C5.188 3.625 5.188 3.625 3 4 C2.01 3.34 1.02 2.68 0 2 C0 1.34 0 0.68 0 0 Z " fill="#CC1F22" transform="translate(74,126)"/>
<path d="M0 0 C0.33 0.66 0.66 1.32 1 2 C2.485 1.835 2.485 1.835 10 1 C9.67 1.165 9.67 1.165 8 2 C8 2.66 8 3.32 8 4 C5.03 4 2.06 4 -1 4 C-0.67 2.68 -0.34 1.36 0 0 Z " fill="#547801" transform="translate(98,63)"/>
<path d="M0 0 C2.062 0.438 2.062 0.438 4 1 C4 1.66 4 2.32 4 3 C3.01 3 2.02 3 1 3 C0.67 4.98 0.34 6.96 0 9 C-0.33 9 -0.66 9 -1 9 C-1.098 2.848 -1.098 2.848 -1 1 C-0.67 0.67 -0.34 0.34 0 0 Z " fill="#99B313" transform="translate(76,53)"/>
<path d="M0 0 C0.99 0.33 1.98 0.66 3 1 C1.751 4.459 0.325 7.147 -2 10 C-2.179 6.053 -2.094 3.402 0 0 Z " fill="#8CA70E" transform="translate(106,34)"/>
<path d="M0 0 C0.66 0 1.32 0 2 0 C2 1.98 2 3.96 2 6 C1.01 5.835 1.01 5.835 -4 5 C-4 4.34 -4 3.68 -4 3 C-2.68 2.67 -1.36 2.34 0 2 C0 1.34 0 0.68 0 0 Z " fill="#587210" transform="translate(114,32)"/>
<path d="M0 0 C0.33 1.32 0.66 2.64 1 4 C2.98 3.01 4.96 2.02 7 1 C5.547 4.829 3.571 6.121 0 8 C0 5.36 0 2.72 0 0 Z " fill="#F6655A" transform="translate(42,95)"/>
<path d="M0 0 C3.3 0.99 6.6 1.98 10 3 C8 4 6 5 4 6 C2.68 4.02 1.36 2.04 0 0 Z " fill="#9D200C" transform="translate(106,83)"/>
<path d="M0 0 C1.32 0 2.64 0 4 0 C3.812 1.812 3.812 1.812 3 4 C-1.179 7 -1.179 7 -4 7 C-4 6.34 -4 5.68 -4 5 C-3.34 5 -2.68 5 -2 5 C-2 4.34 -2 3.68 -2 3 C-0.68 2.67 0.64 2.34 2 2 C1.34 1.34 0.68 0.68 0 0 Z " fill="#607919" transform="translate(130,80)"/>
<path d="M0 0 C2.062 0.438 2.062 0.438 4 1 C4 2.65 4 4.3 4 6 C3.34 5.67 2.68 5.34 2 5 C2 4.01 2 3.02 2 2 C1.67 2.165 1.67 2.165 0 3 C-0.33 3.99 -0.66 4.98 -1 6 C-1.66 6 -2.32 6 -3 6 C-1.125 1.125 -1.125 1.125 0 0 Z " fill="#83953F" transform="translate(64,32)"/>
<path d="M0 0 C0.33 0.99 0.66 1.98 1 3 C-0.511 5.854 -1.485 6.824 -4.562 7.875 C-5.367 7.916 -6.171 7.958 -7 8 C-7.66 7.34 -8.32 6.68 -9 6 C-8.072 5.752 -7.144 5.505 -6.188 5.25 C-2.835 3.935 -1.812 3.02 0 0 Z " fill="#D42D2D" transform="translate(54,151)"/>
<path d="M0 0 C2.5 1.375 2.5 1.375 5 3 C5 3.66 5 4.32 5 5 C4.01 5 3.02 5 2 5 C1.67 5.99 1.34 6.98 1 8 C0.67 8 0.34 8 0 8 C0 5.36 0 2.72 0 0 Z " fill="#B80E12" transform="translate(89,109)"/>
<path d="M0 0 C2.31 0 4.62 0 7 0 C7 0.99 7 1.98 7 3 C4.36 3 1.72 3 -1 3 C-0.67 2.01 -0.34 1.02 0 0 Z " fill="#B32417" transform="translate(57,55)"/>
<path d="M0 0 C-0.99 1.32 -1.98 2.64 -3 4 C-4.32 3.67 -5.64 3.34 -7 3 C-7 2.34 -7 1.68 -7 1 C-3.375 -1.125 -3.375 -1.125 0 0 Z " fill="#DEB592" transform="translate(69,161)"/>
<path d="M0 0 C1.32 0.33 2.64 0.66 4 1 C4 2.98 4 4.96 4 7 C2.68 6.34 1.36 5.68 0 5 C0 3.35 0 1.7 0 0 Z " fill="#657D04" transform="translate(69,56)"/>
<path d="M0 0 C0.495 0.33 0.495 0.33 3 2 C3 2.66 3 3.32 3 4 C4.98 4.66 6.96 5.32 9 6 C9 6.33 9 6.66 9 7 C6.75 7.312 6.75 7.312 4 7 C0 2.892 0 2.892 0 0 Z " fill="#E33D39" transform="translate(22,126)"/>
<path d="M0 0 C0.825 0.165 0.825 0.165 5 1 C5 1.99 5 2.98 5 4 C3.35 4 1.7 4 0 4 C0 2.68 0 1.36 0 0 Z " fill="#F8786A" transform="translate(42,122)"/>
<path d="M0 0 C0.99 0 1.98 0 3 0 C2.67 1.65 2.34 3.3 2 5 C1.01 5 0.02 5 -1 5 C-0.67 3.35 -0.34 1.7 0 0 Z " fill="#F45F57" transform="translate(27,112)"/>
<path d="M0 0 C1.32 0.33 2.64 0.66 4 1 C3.505 1.495 3.505 1.495 1 4 C1.99 4.66 2.98 5.32 4 6 C2.02 6 0.04 6 -2 6 C-1.34 4.02 -0.68 2.04 0 0 Z " fill="#D62C2C" transform="translate(114,113)"/>
<path d="M0 0 C2.511 1.255 2.871 2.501 4 5 C2.35 5.33 0.7 5.66 -1 6 C-1.043 4.334 -1.041 2.666 -1 1 C-0.67 0.67 -0.34 0.34 0 0 Z " fill="#FB8175" transform="translate(49,65)"/>
<path d="M0 0 C1.32 0 2.64 0 4 0 C4 0.66 4 1.32 4 2 C2.68 2.33 1.36 2.66 0 3 C0 3.66 0 4.32 0 5 C-0.99 5 -1.98 5 -3 5 C-1.125 1.125 -1.125 1.125 0 0 Z " fill="#F88B7D" transform="translate(39,58)"/>
<path d="M0 0 C2.007 0.287 4.009 0.619 6 1 C4.35 2.32 2.7 3.64 1 5 C0.34 3.68 -0.32 2.36 -1 1 C-0.67 0.67 -0.34 0.34 0 0 Z " fill="#F64C49" transform="translate(28,81)"/>
<path d="M0 0 C1.32 0.33 2.64 0.66 4 1 C3.67 1.495 3.67 1.495 2 4 C-0.625 4.188 -0.625 4.188 -3 4 C-2.01 2.68 -1.02 1.36 0 0 Z " fill="#DE2324" transform="translate(36,72)"/>
<path d="M0 0 C0.66 0.33 1.32 0.66 2 1 C0.63 4.161 0.011 4.993 -3 7 C-3 3.483 -2.176 2.629 0 0 Z " fill="#F1D7BC" transform="translate(100,146)"/>
<path d="M0 0 C0.99 0 1.98 0 3 0 C3 1.65 3 3.3 3 5 C2.01 5.33 1.02 5.66 0 6 C0 4.02 0 2.04 0 0 Z " fill="#F27667" transform="translate(96,87)"/>
<path d="M0 0 C1.394 2.789 1.257 4.921 1 8 C0.505 8.33 0.505 8.33 -2 10 C-2.33 8.68 -2.66 7.36 -3 6 C-2.34 6 -1.68 6 -1 6 C-1.01 5.598 -1.01 5.598 -1.062 3.562 C-1 1 -1 1 0 0 Z " fill="#8BAB0C" transform="translate(65,38)"/>
<path d="M0 0 C0.99 0.165 0.99 0.165 6 1 C6 1.66 6 2.32 6 3 C4.68 3.33 3.36 3.66 2 4 C1.34 2.68 0.68 1.36 0 0 Z " fill="#89A30B" transform="translate(108,31)"/>
</svg>
