<?xml version="1.0" encoding="UTF-8"?>
<!-- Generator: visioncortex VTracer 0.6.12 -->
<svg version="1.1" xmlns="http://www.w3.org/2000/svg" width="157" height="190">
<path d="M0 0 C51.81 0 103.62 0 157 0 C157 62.7 157 125.4 157 190 C105.19 190 53.38 190 0 190 C0 127.3 0 64.6 0 0 Z " fill="#FDF6E7" transform="translate(0,0)"/>
<path d="M0 0 C0.949 0.001 1.897 0.001 2.875 0.002 C9.843 0.047 9.843 0.047 12.125 1.188 C14.921 1.218 17.702 1.12 20.496 1.027 C23.125 1.188 23.125 1.188 26.125 3.188 C26.312 6.313 26.312 6.313 26.125 9.188 C27.053 9.435 27.981 9.682 28.938 9.938 C32.486 11.329 33.411 11.845 35.125 15.188 C35.714 17.306 36.184 19.419 36.598 21.578 C37.025 23.694 37.577 25.786 38.164 27.863 C39.364 32.625 39.456 37.235 39.438 42.125 C39.454 42.967 39.47 43.81 39.486 44.678 C39.49 49.962 38.719 54.281 36.837 59.225 C35.892 61.831 35.477 64.445 35.125 67.188 C35.909 67.229 36.692 67.27 37.5 67.312 C42.686 68.564 46.661 71.344 51.125 74.188 C52.038 74.692 52.95 75.196 53.891 75.715 C56.125 77.188 56.125 77.188 56.812 79.875 C55.182 87.733 48.337 93.535 42.125 98.188 C41.395 98.452 40.666 98.716 39.914 98.988 C39.324 99.384 38.733 99.78 38.125 100.188 C37.656 102.988 37.656 102.988 37.625 106.5 C37.29 114.241 36.199 122.482 31.867 129.113 C30.125 130.188 30.125 130.188 27.418 130.148 C23.305 128.948 20.052 127.072 16.438 124.812 C15.774 124.413 15.111 124.013 14.428 123.602 C11.3 121.687 8.661 119.863 6.125 117.188 C5.554 117.381 4.983 117.574 4.395 117.773 C-5.401 120.919 -15.563 122.853 -25.875 122.188 C-26.865 121.528 -27.855 120.868 -28.875 120.188 C-29.203 118.312 -29.203 118.312 -29.125 116.188 C-29.11 115.486 -29.094 114.785 -29.078 114.062 C-28.875 112.188 -28.875 112.188 -27.875 110.188 C-28.803 110.353 -29.731 110.517 -30.688 110.688 C-43.324 112.413 -54.9 110.733 -65.766 103.812 C-67.746 102.287 -69.084 100.871 -70.562 98.875 C-73.542 95.412 -75.465 95.677 -79.875 95.188 C-82.119 93.378 -82.771 92.145 -83.082 89.285 C-83.141 86.397 -83.068 83.843 -82.25 81.062 C-81.875 79.188 -81.875 79.188 -82.828 76.551 C-85.523 67.893 -84.892 57.235 -81.324 48.898 C-68.859 25.58 -47.172 10.953 -22.34 3.16 C-21.196 2.839 -20.053 2.518 -18.875 2.188 C-17.636 1.819 -16.397 1.45 -15.121 1.07 C-10.105 -0.16 -5.138 -0.068 0 0 Z " fill="#D1A906" transform="translate(86.875,43.8125)"/>
<path d="M0 0 C51.81 0 103.62 0 157 0 C157 62.7 157 125.4 157 190 C155.68 190 154.36 190 153 190 C152.998 189.106 152.995 188.212 152.993 187.291 C152.934 165.559 152.858 143.827 152.764 122.095 C152.719 111.586 152.68 101.077 152.654 90.567 C152.631 81.409 152.597 72.252 152.551 63.094 C152.527 58.243 152.509 53.392 152.502 48.541 C152.496 43.978 152.476 39.416 152.446 34.853 C152.437 33.176 152.433 31.498 152.435 29.821 C152.437 27.536 152.42 25.252 152.399 22.966 C152.396 22.326 152.396 22.326 152.385 19.087 C152 16 152 16 150.85 14.127 C146.653 11.57 141.625 11.876 136.85 11.88 C136.244 11.879 136.244 11.879 133.179 11.876 C131.863 11.879 130.547 11.883 129.192 11.886 C127.782 11.887 126.372 11.887 124.963 11.886 C121.147 11.886 117.331 11.892 113.516 11.899 C109.524 11.905 105.532 11.905 101.54 11.907 C93.986 11.91 86.432 11.918 78.878 11.928 C70.276 11.939 61.674 11.945 53.072 11.95 C35.381 11.96 17.691 11.978 0 12 C0 8.04 0 4.08 0 0 Z " fill="#FDFDFB" transform="translate(0,0)"/>
<path d="M0 0 C7.541 18.621 7.541 18.621 7 27 C9.97 27 12.94 27 16 27 C16.33 25.68 16.66 24.36 17 23 C17 24.98 17 26.96 17 29 C17.846 29.248 18.691 29.495 19.562 29.75 C23.384 31.14 26.519 32.911 30 35 C30 36.65 30 38.3 30 40 C29.505 40.165 29.505 40.165 27 41 C26.711 41.598 26.423 42.196 26.125 42.812 C23.676 47.574 19.068 49.812 14.203 51.539 C10.392 52.336 6.785 51.727 3 51 C3.66 51.99 4.32 52.98 5 54 C3.35 54 1.7 54 0 54 C0.579 60.013 1.223 66.009 2 72 C-4.199 66.165 -8.996 60.011 -12 52 C-15.08 53.383 -17.285 55.016 -19.75 57.312 C-22.404 59.706 -24.961 61.667 -28.062 63.438 C-32.032 65.778 -34.675 68.765 -37.555 72.328 C-39 74 -39 74 -41 75 C-41.197 73.585 -41.382 72.168 -41.562 70.75 C-41.667 69.961 -41.771 69.172 -41.879 68.359 C-42.003 65.939 -41.835 64.269 -41 62 C-40.216 61.299 -39.433 60.597 -38.625 59.875 C-35.087 56 -34.199 52.022 -33 47 C-31.68 47 -30.36 47 -29 47 C-29 46.34 -29 45.68 -29 45 C-29.825 45 -30.65 45 -31.5 45 C-38.797 42.915 -43.306 36.012 -47.285 29.859 C-48 28 -48 28 -48.059 25.953 C-46.638 23.332 -44.765 22.573 -42.037 21.545 C-38.615 20.629 -35.333 20.644 -31.812 20.75 C-31.463 20.753 -31.463 20.753 -29.697 20.766 C-26.338 20.817 -23.212 20.971 -20 22 C-19.873 21.638 -19.873 21.638 -19.23 19.805 C-16.427 13.415 -7.569 0 0 0 Z " fill="#FCE34B" transform="translate(105,83)"/>
<path d="M0 0 C5.94 0 11.88 0 18 0 C18.165 0.495 18.165 0.495 19 3 C18.01 3.33 17.02 3.66 16 4 C16.135 4.412 16.135 4.412 16.82 6.496 C17.08 11.568 14.811 14.093 11.875 18.062 C11.388 18.757 10.9 19.451 10.398 20.166 C7.557 24.145 4.551 27.619 1 31 C0.196 31.839 -0.609 32.678 -1.438 33.543 C-11.8 44.238 -23.482 55.892 -39 57 C-38.957 57.377 -38.957 57.377 -38.737 59.286 C-39 62 -39 62 -40.741 63.798 C-47.476 68.223 -54.394 71.895 -61.688 75.312 C-62.776 75.837 -63.865 76.361 -64.986 76.9 C-70.377 79.46 -75.193 81.341 -81 83 C-81 78.05 -81 73.1 -81 68 C-80.67 68.66 -80.34 69.32 -80 70 C-79.01 70 -78.02 70 -77 70 C-76.734 69.428 -76.469 68.855 -76.195 68.266 C-74.943 65.892 -73.506 63.878 -71.875 61.75 C-71.336 61.044 -70.797 60.337 -70.242 59.609 C-69.832 59.078 -69.422 58.547 -69 58 C-69 61.632 -69.955 62.747 -72 65.688 C-72.278 66.092 -72.278 66.092 -73.688 68.137 C-74.121 68.752 -74.554 69.366 -75 70 C-74.154 69.01 -73.309 68.02 -72.438 67 C-71.882 66.354 -71.326 65.708 -70.754 65.043 C-69.652 63.759 -68.554 62.471 -67.465 61.176 C-59.747 52.13 -51.342 43.793 -42.027 36.402 C-39.765 34.607 -37.534 32.791 -35.316 30.941 C-28.525 25.3 -21.649 19.886 -14.375 14.875 C-14.05 14.65 -14.05 14.65 -12.404 13.514 C-8.726 11.026 -5.028 8.896 -1 7 C-2.895 7.961 -4.791 8.919 -6.688 9.875 C-7.215 10.142 -7.215 10.142 -9.887 11.492 C-12.56 12.787 -15.227 13.94 -18 15 C-14.379 11.014 -10.752 8.513 -5.875 6.188 C-5.565 6.032 -5.565 6.032 -3.996 5.244 C-1.14 3.847 0.781 3 4 3 C4 2.34 4 1.68 4 1 C2.68 0.67 1.36 0.34 0 0 Z " fill="#E8C406" transform="translate(92,47)"/>
<path d="M0 0 C0 0.66 0 1.32 0 2 C-1.192 2.543 -2.385 3.085 -3.613 3.645 C-5.18 4.367 -6.746 5.09 -8.312 5.812 C-9.098 6.169 -9.884 6.525 -10.693 6.893 C-11.072 7.068 -11.072 7.068 -12.988 7.957 C-13.685 8.276 -14.381 8.596 -15.099 8.925 C-17.096 10.054 -18.461 11.31 -20 13 C-19.596 12.753 -19.596 12.753 -17.551 11.504 C-16.482 10.863 -15.414 10.223 -14.312 9.562 C-13.785 9.243 -13.785 9.243 -11.113 7.629 C-8.29 6.152 -6.131 5.412 -3 5 C-5.097 7.274 -6.404 8.191 -9.312 9.562 C-21.758 15.604 -32.488 25.488 -42.999 34.323 C-44.827 35.855 -46.666 37.372 -48.512 38.883 C-60.079 48.41 -70.679 58.456 -79 71 C-79.33 70.34 -79.66 69.68 -80 69 C-78.566 66.398 -78.566 66.398 -76.562 63.375 C-76.233 62.874 -76.233 62.874 -74.566 60.336 C-74.049 59.565 -73.533 58.794 -73 58 C-73.543 58.794 -74.085 59.588 -74.645 60.406 C-75.36 61.427 -76.075 62.448 -76.812 63.5 C-77.52 64.521 -78.228 65.542 -78.957 66.594 C-79.631 67.388 -80.305 68.182 -81 69 C-81.99 69 -82.98 69 -84 69 C-84.386 63.124 -83.2 58.993 -80.875 53.625 C-80.562 52.881 -80.248 52.138 -79.926 51.371 C-77.524 45.831 -74.718 40.78 -71 36 C-80.722 48.229 -80.722 48.229 -83 56 C-83.351 56.907 -83.701 57.815 -84.062 58.75 C-85.273 62.945 -85.842 67.167 -86.438 71.488 C-86.623 72.317 -86.809 73.146 -87 74 C-87.33 74.165 -87.33 74.165 -89 75 C-92.82 68.314 -93.068 61.548 -92 54 C-89.878 46.81 -87.2 39.445 -81 35 C-80.312 33.342 -79.646 31.675 -79 30 C-68.007 16.543 -49.777 5.714 -33 1 C-30.23 0.906 -30.23 0.906 -28 1 C-30.772 4.08 -33.003 5.83 -37 7 C-37.413 6.99 -37.413 6.99 -39.5 6.938 C-45.459 7.086 -49.314 12.049 -53.328 15.965 C-55.038 18.046 -55.6 19.37 -56 22 C-55.443 21.481 -54.886 20.961 -54.312 20.426 C-47.642 14.33 -42.097 9.327 -33 8 C-31.774 7.409 -30.567 6.78 -29.375 6.125 C-20.653 1.53 -9.81 -0.307 0 0 Z " fill="#F7DB20" transform="translate(96,48)"/>
<path d="M0 0 C1.65 0 3.3 0 5 0 C4.484 0.412 3.969 0.825 3.438 1.25 C2.963 1.828 2.489 2.405 2 3 C2.972 10.252 8.934 16.381 14.289 20.906 C16.175 22.112 17.813 22.58 20 23 C20 23.66 20 24.32 20 25 C19.01 25.66 18.02 26.32 17 27 C16.008 28.988 16.008 28.988 15.125 31.312 C13.756 34.651 13.001 35.999 10.25 38.5 C7.317 41.759 7.541 43.774 7.727 48.012 C8 50 8 50 9 52 C9.522 51.359 10.044 50.719 10.582 50.059 C15.405 44.39 20.073 40.387 26.469 36.605 C29.859 34.455 32.319 31.97 35 29 C38 30 38 30 39.141 31.969 C39.507 32.804 39.873 33.639 40.25 34.5 C42.818 39.95 46.143 44.399 50 49 C49.856 48.276 49.711 47.551 49.562 46.805 C48.604 41.815 47.724 37.107 48 32 C49.65 31.67 51.3 31.34 53 31 C52.34 30.01 51.68 29.02 51 28 C51.617 28.119 52.235 28.237 52.871 28.359 C61.084 29.609 66.207 27.721 72.875 22.938 C73.576 22.298 74.278 21.659 75 21 C75.598 20.526 76.196 20.051 76.812 19.562 C78 18 78 18 78 13 C74.04 11.02 70.08 9.04 66 7 C69 6 69 6 71.707 7.074 C74.819 8.691 77.919 10.324 81 12 C81.7 12.357 82.4 12.714 83.121 13.082 C84.75 14 84.75 14 87 16 C87.884 19.242 87.565 20.994 85.922 23.918 C82.204 29.199 77.005 35.55 70.789 37.801 C70.199 38.197 69.608 38.592 69 39 C68.531 41.801 68.531 41.801 68.5 45.312 C68.175 52.82 67.336 61.736 62.539 67.867 C61 69 61 69 58.25 68.938 C52.357 67.237 48.195 64.449 44 60 C41.983 58.242 39.947 56.508 37.902 54.781 C35.991 52.992 34.504 51.137 33 49 C30.669 49.902 28.367 50.82 26.121 51.918 C19.002 55.34 10.961 58 3 58 C3.312 55.662 3.648 53.332 4 51 C4.122 50.154 4.245 49.309 4.371 48.438 C5.73 39.973 8.209 32.186 13 25 C12.402 24.741 11.804 24.482 11.188 24.215 C4.72 20.623 1.975 13.127 -0.434 6.516 C-1.025 3.889 -0.895 2.505 0 0 Z " fill="#FADD38" transform="translate(56,105)"/>
<path d="M0 0 C7.541 18.621 7.541 18.621 7 27 C9.97 27 12.94 27 16 27 C16.33 25.68 16.66 24.36 17 23 C17 24.98 17 26.96 17 29 C17.846 29.248 18.691 29.495 19.562 29.75 C23.384 31.14 26.519 32.911 30 35 C30 36.65 30 38.3 30 40 C29.505 40.165 29.505 40.165 27 41 C26.711 41.598 26.423 42.196 26.125 42.812 C23.676 47.574 19.068 49.812 14.203 51.539 C10.392 52.336 6.785 51.727 3 51 C3.66 51.99 4.32 52.98 5 54 C3.35 54 1.7 54 0 54 C-0.66 55.32 -1.32 56.64 -2 58 C-3.437 54.139 -4.112 51.104 -4 47 C-3.336 46.89 -2.672 46.781 -1.988 46.668 C3.055 45.762 6.609 44.683 11 42 C14.312 41.812 14.312 41.812 17 42 C17 41.34 17 40.68 17 40 C13.37 39.835 13.37 39.835 -5 39 C-5 31.08 -5 23.16 -5 15 C-5.784 17.186 -6.567 19.373 -7.375 21.625 C-7.816 22.855 -8.257 24.085 -8.711 25.352 C-9.52 27.641 -10.283 29.947 -10.977 32.273 C-12 35 -12 35 -15 38 C-20.94 36.02 -26.88 34.04 -33 32 C-29 30 -29 30 -27 30 C-27 29.34 -27 28.68 -27 28 C-26.01 28 -25.02 28 -24 28 C-23.67 28.66 -23.34 29.32 -23 30 C-21.35 30 -19.7 30 -18 30 C-18.33 28.68 -18.66 27.36 -19 26 C-22.208 25.046 -25.082 24.884 -28.422 24.902 C-29.447 24.906 -30.471 24.909 -31.527 24.912 C-32.059 24.916 -32.059 24.916 -34.75 24.938 C-35.829 24.942 -36.908 24.947 -38.02 24.951 C-40.68 24.963 -43.34 24.979 -46 25 C-46.33 26.32 -46.66 27.64 -47 29 C-47.33 27.68 -47.66 26.36 -48 25 C-42.884 20.797 -38.468 20.84 -32 20.875 C-31.288 20.871 -30.577 20.867 -29.844 20.863 C-26.425 20.87 -23.267 20.928 -20 22 C-19.873 21.638 -19.873 21.638 -19.23 19.805 C-16.427 13.415 -7.569 0 0 0 Z " fill="#FCE248" transform="translate(105,83)"/>
<path d="M0 0 C1.043 1.535 1.043 1.535 1.973 3.492 C2.144 3.845 2.144 3.845 3.01 5.629 C3.357 6.37 3.705 7.111 4.062 7.875 C4.76 9.332 5.459 10.787 6.16 12.242 C6.466 12.89 6.771 13.539 7.086 14.207 C8 16 8 16 10 19 C0.23 27.92 -15.865 26.366 -28.02 25.879 C-32.677 25.537 -36.293 25.109 -40 22 C-40.33 21.01 -40.66 20.02 -41 19 C-38.181 16.632 -35.334 15.263 -31.955 13.845 C-28.658 12.42 -25.459 10.802 -22.25 9.188 C-21.556 8.841 -20.862 8.495 -20.148 8.139 C-15.042 5.575 -10.059 2.836 -5.137 -0.066 C-3 -1 -3 -1 0 0 Z " fill="#EACD0D" transform="translate(55,113)"/>
<path d="M0 0 C2.875 0.312 2.875 0.312 6 1 C9.465 6.198 9.726 12.187 8.564 18.29 C5.53 30.939 5.53 30.939 3 36 C2.34 36 1.68 36 1 36 C-0.727 34.031 -0.727 34.031 -2.625 31.5 C-3.257 30.665 -3.888 29.829 -4.539 28.969 C-5.021 28.319 -5.503 27.669 -6 27 C-8.5 26.938 -8.5 26.938 -12 28 C-14.275 30.233 -16.267 32.584 -18.266 35.066 C-18.838 35.704 -19.41 36.343 -20 37 C-20.66 37 -21.32 37 -22 37 C-22.031 37.268 -22.031 37.268 -22.188 38.625 C-23.443 42.294 -24.643 45.001 -28 47 C-32.706 47.523 -37.285 47.345 -42 47 C-39.855 43.176 -37.804 40.7 -34.25 38.125 C-21.991 28.971 -8.496 16.042 -2 2 C-1.34 2 -0.68 2 0 2 C0 1.34 0 0.68 0 0 Z " fill="#E8C80A" transform="translate(112,55)"/>
<path d="M0 0 C0.949 0.001 1.897 0.001 2.875 0.002 C9.843 0.047 9.843 0.047 12.125 1.188 C13.999 1.258 15.875 1.272 17.75 1.25 C18.753 1.241 19.756 1.232 20.789 1.223 C21.174 1.217 21.174 1.217 23.125 1.188 C22.795 1.847 22.465 2.508 22.125 3.188 C21.517 3.218 21.517 3.218 18.441 3.371 C16.857 3.455 15.272 3.54 13.688 3.625 C12.885 3.664 12.083 3.704 11.256 3.744 C5.238 4.074 5.238 4.074 4.125 5.188 C2.235 5.519 0.344 5.844 -1.552 6.139 C-8.919 7.284 -15.197 8.783 -21.875 12.188 C-23.867 12.877 -25.866 13.548 -27.875 14.188 C-31.936 15.603 -35.047 17.571 -38.5 20.125 C-39.441 20.815 -40.382 21.504 -41.352 22.215 C-43.359 23.784 -45.141 25.331 -46.875 27.188 C-47.535 26.858 -48.195 26.528 -48.875 26.188 C-45.133 19.951 -40.431 13.791 -33.688 10.75 C-31.921 10.397 -30.15 10.061 -28.375 9.75 C-25.248 9.046 -22.691 7.694 -19.875 6.188 C-38.948 9.585 -57.492 20.26 -69.875 35.188 C-70.592 36.833 -71.268 38.498 -71.875 40.188 C-72.509 40.819 -73.143 41.451 -73.797 42.102 C-79.814 48.141 -82.27 57.394 -82.438 65.688 C-82.351 70.637 -81.309 73.878 -78.875 78.188 C-78.693 77.018 -78.511 75.849 -78.324 74.645 C-78.071 73.096 -77.817 71.548 -77.562 70 C-77.445 69.231 -77.327 68.462 -77.205 67.67 C-76.456 63.195 -75.478 59.994 -72.875 56.188 C-72.483 55.136 -72.091 54.084 -71.688 53 C-69.53 47.701 -65.535 43.508 -61.875 39.188 C-61.875 42.921 -62.949 44.025 -65.062 47.062 C-71.385 56.707 -75.072 66.713 -74.875 78.25 C-74.748 85.658 -74.748 85.658 -75.875 89.188 C-75.215 89.188 -74.555 89.188 -73.875 89.188 C-73.545 90.507 -73.215 91.827 -72.875 93.188 C-74.03 93.517 -74.03 93.517 -79.875 95.188 C-82.451 92.611 -83.099 90.732 -83.125 87.188 C-83.051 84.962 -82.88 83.205 -82.25 81.062 C-81.875 79.188 -81.875 79.188 -82.828 76.551 C-85.523 67.893 -84.892 57.235 -81.324 48.898 C-68.859 25.58 -47.172 10.953 -22.34 3.16 C-21.196 2.839 -20.053 2.518 -18.875 2.188 C-17.636 1.819 -16.397 1.45 -15.121 1.07 C-10.105 -0.16 -5.138 -0.068 0 0 Z " fill="#C9AF15" transform="translate(86.875,43.8125)"/>
<path d="M0 0 C-2.772 3.08 -5.003 4.83 -9 6 C-9.413 5.99 -9.413 5.99 -11.5 5.938 C-17.39 6.085 -21.282 10.933 -25.168 14.898 C-27.108 17.124 -28.405 19.456 -29.746 22.078 C-32.725 26.644 -37.084 30.247 -41 34 C-47.509 40.373 -52.253 46.261 -55 55 C-55.351 55.907 -55.701 56.815 -56.062 57.75 C-57.273 61.945 -57.842 66.167 -58.438 70.488 C-58.623 71.317 -58.809 72.146 -59 73 C-59.33 73.165 -59.33 73.165 -61 74 C-64.82 67.314 -65.068 60.548 -64 53 C-61.878 45.81 -59.2 38.445 -53 34 C-52.312 32.342 -51.646 30.675 -51 29 C-40.735 16.434 -17.256 -0.725 0 0 Z " fill="#ECD114" transform="translate(68,49)"/>
<path d="M0 0 C50.16 0 100.32 0 152 0 C150 4 150 4 148.368 4.743 C144.946 5.114 141.545 5.132 138.108 5.115 C137.308 5.115 136.507 5.115 135.683 5.115 C133.001 5.113 130.319 5.104 127.637 5.094 C125.72 5.09 123.804 5.086 121.887 5.083 C98.691 5.028 75.495 4.781 52.301 4.536 C46.372 4.475 40.443 4.415 34.514 4.355 C23.009 4.239 11.505 4.121 0 4 C0 2.68 0 1.36 0 0 Z " fill="#FDF8EC" transform="translate(0,0)"/>
<path d="M0 0 C6.331 0.333 10.816 3.697 16 7 C16.913 7.504 17.825 8.008 18.766 8.527 C21 10 21 10 21.688 12.688 C20.057 20.545 13.212 26.347 7 31 C6.27 31.264 5.541 31.529 4.789 31.801 C4.199 32.197 3.608 32.592 3 33 C2.531 35.801 2.531 35.801 2.5 39.312 C2.175 46.82 1.336 55.736 -3.461 61.867 C-5 63 -5 63 -7.75 62.938 C-11.663 61.809 -14.544 60.143 -18 58 C-15.83 57.045 -14.437 56.856 -12.176 57.602 C-10.432 58.359 -8.714 59.176 -7 60 C-7.012 59.085 -7.023 58.17 -7.035 57.227 C-7.044 56.038 -7.053 54.85 -7.062 53.625 C-7.074 52.442 -7.086 51.258 -7.098 50.039 C-7 47 -7 47 -6 45 C-5.928 42.116 -5.907 39.258 -5.938 36.375 C-5.942 35.573 -5.947 34.771 -5.951 33.945 C-5.963 31.964 -5.981 29.982 -6 28 C-5.359 27.709 -4.719 27.417 -4.059 27.117 C7.891 21.454 7.891 21.454 11 17 C11.861 13.54 11.951 10.606 12 7 C8.04 5.02 4.08 3.04 0 1 C0 0.67 0 0.34 0 0 Z " fill="#E2BA0F" transform="translate(122,111)"/>
<path d="M0 0 C0.937 3.118 1.057 5.741 0.879 8.984 C0.831 9.919 0.782 10.854 0.732 11.816 C0.676 12.784 0.62 13.753 0.562 14.75 C0.51 15.734 0.458 16.717 0.404 17.73 C0.275 20.154 0.14 22.577 0 25 C0.501 24.994 0.501 24.994 3.035 24.965 C4.378 24.955 5.72 24.946 7.062 24.938 C8.373 24.926 9.684 24.914 11.035 24.902 C14.816 24.995 18.279 25.386 22 26 C22 26.66 22 27.32 22 28 C20.989 28.268 19.979 28.536 18.938 28.812 C16.257 29.562 14.062 30.435 11.5 31.625 C7.71 33.114 5.028 33.106 1 33 C1.349 34.134 1.699 35.269 2.059 36.438 C2.519 37.958 2.978 39.479 3.438 41 C3.668 41.744 3.898 42.488 4.135 43.254 C5.612 48.179 6.494 52.881 7 58 C0.801 52.165 -3.996 46.011 -7 38 C-10.817 39.555 -13.192 42.036 -16 45 C-16.66 44.67 -17.32 44.34 -18 44 C-16.215 41.994 -14.422 39.995 -12.625 38 C-12.371 37.714 -12.371 37.714 -11.086 36.266 C-9.765 34.806 -8.386 33.398 -7 32 C-6.34 32 -5.68 32 -5 32 C-4.723 32.855 -4.446 33.709 -4.16 34.59 C-3.798 35.695 -3.436 36.799 -3.062 37.938 C-2.703 39.04 -2.343 40.142 -1.973 41.277 C-1 44 -1 44 0 45 C-0.547 40.407 -1.907 37.096 -4 33 C-4 32.01 -4 31.02 -4 30 C1.28 30 6.56 30 12 30 C11.835 29.67 11.835 29.67 11 28 C4.848 27.902 4.848 27.902 3 28 C2.835 28.165 2.835 28.165 2 29 C0 29.041 -2 29.043 -4 29 C-4 25.667 -4 22.333 -4 19 C-4.66 21.97 -5.32 24.94 -6 28 C-11.472 26.232 -16.75 24.346 -22 22 C-22 22.66 -22 23.32 -22 24 C-26.044 22.221 -29.461 19.605 -33 17 C-29.466 15.822 -28.551 16.246 -25.113 17.434 C-24.175 17.753 -23.238 18.072 -22.271 18.4 C-21.295 18.743 -20.319 19.085 -19.312 19.438 C-18.324 19.776 -17.336 20.114 -16.318 20.463 C-13.876 21.301 -11.437 22.147 -9 23 C-6.914 19.87 -6.104 17.346 -5.062 13.75 C-3.643 8.991 -2.093 4.5 0 0 Z " fill="#FDF1B0" transform="translate(100,97)"/>
<path d="M0 0 C0.99 0.66 1.98 1.32 3 2 C3.328 4.242 3.328 4.242 3.25 6.875 C3.235 7.739 3.219 8.602 3.203 9.492 C2.926 12.918 2.084 15.764 0.938 19 C0 22 0 22 0 26 C0.99 25.34 1.98 24.68 3 24 C3 24.66 3 25.32 3 26 C4.98 25.34 6.96 24.68 9 24 C9 24.99 9 25.98 9 27 C-5.614 31.908 -18.081 31.849 -33 28 C-33.33 27.67 -33.66 27.34 -34 27 C-35.961 26.783 -37.929 26.628 -39.898 26.5 C-41.1 26.417 -42.301 26.335 -43.539 26.25 C-44.805 26.167 -46.071 26.085 -47.375 26 C-49.862 25.837 -52.349 25.67 -54.836 25.5 C-55.945 25.428 -57.054 25.356 -58.197 25.281 C-61 25 -61 25 -64 24 C-63.67 23.01 -63.34 22.02 -63 21 C-61.783 21.041 -60.566 21.083 -59.312 21.125 C-50.309 21.111 -41.599 19.656 -33.316 16.098 C-30.13 15.963 -28.88 17.495 -26.617 19.573 C-23.968 21.91 -20.986 23.611 -17.938 25.375 C-17.638 25.559 -17.638 25.559 -16.123 26.488 C-13.34 28.104 -11.421 29.012 -8.172 28.922 C-6 28 -6 28 -4.312 24.875 C-3.855 23.59 -3.417 22.298 -3 21 C-2.629 19.989 -2.257 18.979 -1.875 17.938 C-0.275 12.152 -0.314 5.962 0 0 Z " fill="#F0DAAF" transform="translate(124,144)"/>
<path d="M0 0 C0.675 0.205 1.351 0.41 2.047 0.621 C2.939 0.891 3.831 1.16 4.75 1.438 C5.632 1.704 6.513 1.971 7.422 2.246 C9.606 2.885 11.788 3.468 14 4 C12.424 7.873 9.923 10.247 6.938 13.125 C2.097 17.806 2.097 17.806 1 20 C1.66 20.33 2.32 20.66 3 21 C2.432 21.34 1.863 21.681 1.277 22.031 C-3.878 25.267 -7.769 28.621 -11.59 33.363 C-13 35 -13 35 -15 36 C-15.197 34.585 -15.382 33.168 -15.562 31.75 C-15.667 30.961 -15.771 30.172 -15.879 29.359 C-16.003 26.939 -15.835 25.269 -15 23 C-14.216 22.299 -13.433 21.597 -12.625 20.875 C-9.087 17 -8.199 13.022 -7 8 C-4.36 8.33 -1.72 8.66 1 9 C1.33 9.99 1.66 10.98 2 12 C4 10.188 4 10.188 6 8 C6 7.01 6 6.02 6 5 C4.039 3.611 2.038 2.274 0 1 C0 0.67 0 0.34 0 0 Z " fill="#FCE348" transform="translate(79,122)"/>
<path d="M0 0 C0.33 0.165 0.33 0.165 2 1 C1.684 1.159 1.684 1.159 0.086 1.961 C-13.94 9.277 -25.943 19.19 -37.999 29.323 C-39.827 30.855 -41.666 32.372 -43.512 33.883 C-55.079 43.41 -65.679 53.456 -74 66 C-74.33 65.34 -74.66 64.68 -75 64 C-69.391 55.719 -63.17 48.79 -56 41.812 C-55.024 40.852 -54.049 39.89 -53.074 38.928 C-50.723 36.611 -48.365 34.302 -46 32 C-47.32 32.66 -48.64 33.32 -50 34 C-49.583 29.133 -47.545 27.208 -44 24 C-43.722 23.701 -43.722 23.701 -42.312 22.188 C-41 21 -41 21 -39 21 C-39 20.34 -39 19.68 -39 19 C-36.171 16.386 -33.959 15.612 -30.188 15.125 C-25.771 14.349 -23.169 13.055 -19.699 10.289 C-17.354 8.51 -14.843 7.312 -12.191 6.051 C-10.558 5.268 -8.944 4.446 -7.34 3.605 C-6.444 3.138 -5.548 2.67 -4.625 2.188 C-4.209 1.968 -4.209 1.968 -2.102 0.855 C-1.755 0.714 -1.755 0.714 0 0 Z " fill="#F6D81A" transform="translate(91,53)"/>
<path d="M0 0 C0.66 0.33 1.32 0.66 2 1 C2 1.99 2 2.98 2 4 C3.32 3.34 4.64 2.68 6 2 C1.668 7.17 -2.859 12.042 -7.625 16.812 C-8.28 17.48 -8.935 18.147 -9.609 18.834 C-9.928 19.153 -9.928 19.153 -11.539 20.77 C-12.108 21.343 -12.678 21.916 -13.264 22.507 C-15.077 24.066 -16.868 24.944 -19 26 C-20.687 28.285 -22.084 30.662 -23.535 33.102 C-24.019 33.728 -24.502 34.355 -25 35 C-25.99 35 -26.98 35 -28 35 C-28.455 28.875 -26.969 24.624 -24.5 19.062 C-24.166 18.283 -23.832 17.504 -23.488 16.701 C-22.67 14.796 -21.837 12.897 -21 11 C-20.34 11 -19.68 11 -19 11 C-18.34 10.01 -17.68 9.02 -17 8 C-16.34 8 -15.68 8 -15 8 C-14.67 8.99 -14.34 9.98 -14 11 C-11.938 11.688 -11.938 11.688 -10 12 C-9.546 11.34 -9.093 10.68 -8.625 10 C-8.089 9.34 -7.552 8.68 -7 8 C-6.34 8 -5.68 8 -5 8 C-4.732 7.422 -4.464 6.845 -4.188 6.25 C-2.983 3.967 -1.592 2.026 0 0 Z " fill="#F3D718" transform="translate(40,82)"/>
<path d="M0 0 C1.874 0.07 3.75 0.084 5.625 0.062 C6.628 0.053 7.631 0.044 8.664 0.035 C9.049 0.029 9.049 0.029 11 0 C10.67 0.66 10.34 1.32 10 2 C9.392 2.03 9.392 2.03 6.316 2.184 C4.732 2.268 3.147 2.353 1.562 2.438 C0.76 2.477 -0.042 2.516 -0.869 2.557 C-6.887 2.887 -6.887 2.887 -8 4 C-9.89 4.331 -11.781 4.657 -13.677 4.951 C-21.044 6.096 -27.322 7.595 -34 11 C-35.992 11.69 -37.991 12.361 -40 13 C-44.061 14.415 -47.172 16.383 -50.625 18.938 C-51.566 19.627 -52.507 20.317 -53.477 21.027 C-55.484 22.597 -57.266 24.143 -59 26 C-59.66 25.67 -60.32 25.34 -61 25 C-57.258 18.763 -52.556 12.604 -45.812 9.562 C-44.046 9.209 -42.275 8.873 -40.5 8.562 C-37.373 7.859 -34.816 6.506 -32 5 C-32.99 4.01 -33.98 3.02 -35 2 C-25.794 -1.202 -9.084 -4.542 0 0 Z " fill="#DCBF09" transform="translate(99,45)"/>
<path d="M0 0 C1.65 0 3.3 0 5 0 C4.484 0.412 3.969 0.825 3.438 1.25 C2.963 1.828 2.489 2.405 2 3 C2.972 10.252 8.934 16.381 14.289 20.906 C16.175 22.112 17.813 22.58 20 23 C20 23.66 20 24.32 20 25 C19.01 25.66 18.02 26.32 17 27 C16.008 28.988 16.008 28.988 15.125 31.312 C13.756 34.651 13.001 35.999 10.25 38.5 C7.317 41.759 7.541 43.774 7.727 48.012 C8 50 8 50 9 52 C9.165 51.835 9.165 51.835 10 51 C12.333 50.959 14.667 50.958 17 51 C17.66 52.32 18.32 53.64 19 55 C16.897 55.504 14.792 56.003 12.688 56.5 C11.516 56.778 10.344 57.057 9.137 57.344 C6 58 6 58 3 58 C3.312 55.662 3.648 53.332 4 51 C4.122 50.154 4.245 49.309 4.371 48.438 C5.73 39.973 8.209 32.186 13 25 C12.402 24.741 11.804 24.482 11.188 24.215 C4.72 20.623 1.975 13.127 -0.434 6.516 C-1.025 3.889 -0.895 2.505 0 0 Z " fill="#F7D926" transform="translate(56,105)"/>
<path d="M0 0 C-0.33 2.97 -0.66 5.94 -1 9 C-1.66 8.67 -2.32 8.34 -3 8 C-3.792 10.208 -4.584 12.416 -5.375 14.625 C-5.816 15.855 -6.257 17.085 -6.711 18.352 C-7.52 20.641 -8.283 22.947 -8.977 25.273 C-10 28 -10 28 -13 31 C-18.94 29.02 -24.88 27.04 -31 25 C-27 23 -27 23 -25 23 C-25 22.34 -25 21.68 -25 21 C-24.01 21 -23.02 21 -22 21 C-21.67 21.66 -21.34 22.32 -21 23 C-20.598 22.99 -20.598 22.99 -18.562 22.938 C-16 23 -16 23 -15 24 C-15.058 23.264 -15.116 22.528 -15.176 21.77 C-15.548 13.71 -15.548 13.71 -12.875 10.25 C-11.926 9.507 -10.977 8.765 -10 8 C-8.434 6.183 -6.933 4.322 -5.43 2.453 C-3.833 0.83 -2.388 0 0 0 Z " fill="#FDE557" transform="translate(103,90)"/>
<path d="M0 0 C3.3 0.66 6.6 1.32 10 2 C9.34 2.66 8.68 3.32 8 4 C7.795 6.098 7.686 8.206 7.625 10.312 C7.193 17.788 6.314 26.765 1.539 32.867 C0 34 0 34 -2.75 33.938 C-6.663 32.809 -9.544 31.143 -13 29 C-10.83 28.045 -9.437 27.856 -7.176 28.602 C-5.432 29.359 -3.714 30.176 -2 31 C-2.012 30.085 -2.023 29.17 -2.035 28.227 C-2.044 27.038 -2.053 25.85 -2.062 24.625 C-2.074 23.442 -2.086 22.258 -2.098 21.039 C-2 18 -2 18 -1 16 C-0.768 13.287 -0.581 10.592 -0.438 7.875 C-0.394 7.121 -0.351 6.367 -0.307 5.59 C-0.201 3.727 -0.1 1.863 0 0 Z " fill="#DAB210" transform="translate(117,140)"/>
<path d="M0 0 C-2.772 3.08 -5.003 4.83 -9 6 C-9.772 5.97 -10.544 5.941 -11.34 5.91 C-16.097 6.071 -20.053 8.468 -24 11 C-25.688 13.5 -25.688 13.5 -27 16 C-28.687 17.2 -30.377 18.396 -32.105 19.535 C-34.289 21.224 -35.835 23.101 -37.562 25.25 C-40.63 28.946 -40.63 28.946 -44 29.438 C-48.551 30.291 -50.062 33.434 -52.68 37.066 C-53.115 37.704 -53.551 38.343 -54 39 C-54.165 38.505 -54.165 38.505 -55 36 C-54.34 35.34 -53.68 34.68 -53 34 C-52.71 33.223 -52.42 32.445 -52.121 31.645 C-45.366 15.709 -22.121 6.778 -7.113 0.594 C-4.669 -0.093 -2.527 -0.106 0 0 Z " fill="#F4D81A" transform="translate(68,49)"/>
<path d="M0 0 C0.66 1.32 1.32 2.64 2 4 C-9.618 15 -9.618 15 -16 15 C-15.67 15.66 -15.34 16.32 -15 17 C-14.902 19.512 -14.861 21.989 -14.875 24.5 C-14.873 24.845 -14.873 24.845 -14.863 26.59 C-14.873 31.747 -14.873 31.747 -16 34 C-16.23 36.204 -16.411 38.414 -16.562 40.625 C-16.646 41.814 -16.73 43.002 -16.816 44.227 C-16.877 45.142 -16.938 46.057 -17 47 C-24.942 45.525 -30.941 42.306 -37 37 C-37.33 36.34 -37.66 35.68 -38 35 C-37.479 35.266 -36.958 35.531 -36.422 35.805 C-33.39 37.301 -30.322 38.712 -27.25 40.125 C-26.08 40.664 -24.909 41.203 -23.703 41.758 C-22.811 42.168 -21.919 42.578 -21 43 C-19.9 38.947 -19.622 34.928 -19.375 30.75 C-19.323 30.024 -19.272 29.299 -19.219 28.551 C-18.517 16.967 -18.517 16.967 -21 12 C-20.443 11.83 -19.886 11.66 -19.312 11.484 C-4.526 6.789 -4.526 6.789 0 0 Z " fill="#F8D927" transform="translate(132,124)"/>
<path d="M0 0 C0.66 2.31 1.32 4.62 2 7 C1.257 6.773 0.515 6.546 -0.25 6.312 C-3 6 -3 6 -5.062 7.188 C-7.09 9.084 -9.072 11.002 -11 13 C-11.536 13.518 -12.072 14.036 -12.625 14.57 C-16.845 19.342 -16.418 24.26 -16.176 30.402 C-16.118 31.26 -16.06 32.117 -16 33 C-18.36 30.64 -18.491 29.221 -19 26 C-22.208 25.046 -25.082 24.884 -28.422 24.902 C-29.447 24.906 -30.471 24.909 -31.527 24.912 C-32.059 24.916 -32.059 24.916 -34.75 24.938 C-35.829 24.942 -36.908 24.947 -38.02 24.951 C-40.68 24.963 -43.34 24.979 -46 25 C-46.33 26.32 -46.66 27.64 -47 29 C-47.33 27.68 -47.66 26.36 -48 25 C-42.884 20.797 -38.468 20.84 -32 20.875 C-31.288 20.871 -30.577 20.867 -29.844 20.863 C-26.425 20.87 -23.267 20.928 -20 22 C-19.873 21.638 -19.873 21.638 -19.23 19.805 C-16.427 13.415 -7.569 0 0 0 Z " fill="#F9DE35" transform="translate(105,83)"/>
<path d="M0 0 C0.99 0.33 1.98 0.66 3 1 C2.67 1.206 2.67 1.206 1 2.25 C0.34 2.827 -0.32 3.405 -1 4 C-1 5.32 -1 6.64 -1 8 C-0.01 7.34 0.98 6.68 2 6 C2.33 7.32 2.66 8.64 3 10 C2.67 10.165 2.67 10.165 1 11 C0.375 13.062 0.375 13.062 0 15 C-1.32 15 -2.64 15 -4 15 C-7.294 16.688 -10.435 18.573 -13.613 20.469 C-17.366 22.165 -19.93 22.289 -24 22 C-20.049 15.485 -15.257 11.925 -8.859 7.898 C-5.386 5.592 -2.779 3.088 0 0 Z " fill="#FCE145" transform="translate(91,134)"/>
<path d="M0 0 C0.66 0.33 1.32 0.66 2 1 C0.35 2.65 -1.3 4.3 -3 6 C-2.598 6.227 -2.598 6.227 -0.562 7.375 C2 9 2 9 3 11 C2.05 12.339 1.089 13.671 0.125 15 C-0.409 15.743 -0.942 16.485 -1.492 17.25 C-1.99 17.828 -2.487 18.405 -3 19 C-3.66 19 -4.32 19 -5 19 C-5.66 20.32 -6.32 21.64 -7 23 C-7.99 23 -8.98 23 -10 23 C-11.34 23.306 -12.675 23.635 -14 24 C-13.67 22.35 -13.34 20.7 -13 19 C-14.65 20.32 -16.3 21.64 -18 23 C-14.601 13.607 -7.072 6.783 0 0 Z " fill="#F9DE2D" transform="translate(38,71)"/>
<path d="M0 0 C0.362 0.139 0.362 0.139 2.195 0.84 C3.162 1.202 4.129 1.564 5.125 1.938 C5.601 2.117 5.601 2.117 8.008 3.027 C14.155 5.026 19.981 5.129 26.375 5.062 C26.791 5.06 26.791 5.06 28.895 5.049 C30.93 5.037 32.965 5.019 35 5 C34.67 7.97 34.34 10.94 34 14 C33.34 13.01 32.68 12.02 32 11 C30.188 10.723 30.188 10.723 28 10.848 C27.6 10.863 27.6 10.863 25.574 10.94 C25.15 10.96 25.15 10.96 23 11.062 C15.481 11.258 9.685 10.746 3 7 C1.668 6.331 0.335 5.663 -1 5 C-0.67 3.35 -0.34 1.7 0 0 Z " fill="#E5CA91" transform="translate(24,149)"/>
<path d="M0 0 C0.581 0.45 1.163 0.9 1.762 1.363 C2.436 1.803 3.11 2.242 3.805 2.695 C4.159 2.94 4.159 2.94 5.949 4.176 C10.409 7.191 15.016 9.828 19.762 12.363 C19.762 12.693 19.762 13.023 19.762 13.363 C14.708 13.713 11.923 12.037 7.652 9.555 C0.724 6.699 -7.052 7.252 -14.426 7.363 C-19.826 7.444 -24.92 7.477 -30.238 6.363 C-30.238 6.033 -30.238 5.703 -30.238 5.363 C-29.674 5.288 -29.11 5.213 -28.529 5.135 C-25.931 4.784 -23.335 4.417 -20.738 4.051 C-20.295 3.992 -20.295 3.992 -18.051 3.693 C-13.724 3.073 -9.873 2.332 -5.832 0.633 C-2.238 -0.637 -2.238 -0.637 0 0 Z " fill="#E1C68C" transform="translate(93.23828125,160.63671875)"/>
<path d="M0 0 C0.33 0.165 0.33 0.165 2 1 C1.684 1.159 1.684 1.159 0.086 1.961 C-13.94 9.277 -25.943 19.19 -37.999 29.323 C-39.827 30.855 -41.666 32.372 -43.512 33.883 C-55.079 43.41 -65.679 53.456 -74 66 C-74.33 65.34 -74.66 64.68 -75 64 C-69.618 56.152 -63.763 49.249 -57 42.562 C-56.08 41.648 -55.16 40.733 -54.212 39.791 C-47.203 32.935 -39.891 27.01 -31.89 21.377 C-28.564 18.954 -25.425 16.303 -22.25 13.688 C-15.499 8.187 -8.345 2.782 0 0 Z " fill="#F7E85D" transform="translate(91,53)"/>
<path d="M0 0 C0.33 0 0.66 0 1 0 C0.385 5.009 -0.272 10.006 -1 15 C-0.01 14.67 0.98 14.34 2 14 C6.086 12.813 9.763 12.851 14 13 C14.33 13.99 14.66 14.98 15 16 C9.394 16.826 4.577 17.068 -1 16 C-0.639 16.736 -0.278 17.472 0.094 18.23 C0.326 18.718 0.326 18.718 1.5 21.188 C1.964 22.15 2.428 23.113 2.906 24.105 C3.996 26.989 4.223 28.954 4 32 C0.241 29.494 0.274 28.181 -0.688 23.875 C-0.939 22.779 -1.19 21.684 -1.449 20.555 C-1.631 19.712 -1.813 18.869 -2 18 C-9.737 24.489 -9.737 24.489 -12.875 28.438 C-13.576 29.283 -14.278 30.129 -15 31 C-15.66 31 -16.32 31 -17 31 C-15.424 27.127 -12.923 24.753 -9.938 21.875 C-5.097 17.194 -5.097 17.194 -4 15 C-6.64 14.67 -9.28 14.34 -12 14 C-11.67 13.01 -11.34 12.02 -11 11 C-5.25 12.875 -5.25 12.875 -3 14 C-2.951 13.408 -2.902 12.817 -2.852 12.207 C-2.435 7.809 -1.95 4.031 0 0 Z " fill="#F5D682" transform="translate(97,111)"/>
<path d="M0 0 C0.66 0 1.32 0 2 0 C2.277 0.855 2.554 1.709 2.84 2.59 C3.202 3.695 3.564 4.799 3.938 5.938 C4.297 7.04 4.657 8.142 5.027 9.277 C6 12 6 12 7 13 C7.33 10.69 7.66 8.38 8 6 C12.051 12.076 13.347 18.819 14 26 C7.801 20.165 3.004 14.011 0 6 C-3.817 7.555 -6.192 10.036 -9 13 C-9.66 12.67 -10.32 12.34 -11 12 C-9.215 9.994 -7.422 7.995 -5.625 6 C-5.117 5.428 -4.609 4.855 -4.086 4.266 C-2.765 2.806 -1.386 1.398 0 0 Z " fill="#FDED98" transform="translate(93,129)"/>
<path d="M0 0 C-0.533 0.2 -1.065 0.401 -1.614 0.607 C-19.663 7.459 -36.273 14.876 -49 30 C-49.72 31.644 -50.398 33.309 -51 35 C-51.318 35.309 -51.318 35.309 -52.93 36.871 C-55.571 39.587 -56.764 42.596 -58.125 46.062 C-59.54 49.578 -60.884 52.826 -63 56 C-61.687 40.577 -51.146 27.918 -40 18 C-34.293 13.277 -27.934 9.754 -21.438 6.25 C-20.741 5.873 -20.045 5.496 -19.328 5.107 C-5.882 -1.942 -5.882 -1.942 0 0 Z " fill="#D4B825" transform="translate(66,49)"/>
<path d="M0 0 C0.675 0.205 1.351 0.41 2.047 0.621 C2.939 0.891 3.831 1.16 4.75 1.438 C5.632 1.704 6.513 1.971 7.422 2.246 C9.606 2.885 11.788 3.468 14 4 C12.424 7.873 9.923 10.247 6.938 13.125 C2.097 17.806 2.097 17.806 1 20 C1.66 20.33 2.32 20.66 3 21 C2.362 21.41 1.724 21.82 1.066 22.242 C0.24 22.781 -0.586 23.32 -1.438 23.875 C-2.261 24.409 -3.085 24.942 -3.934 25.492 C-6 27 -6 27 -7 29 C-7.66 29 -8.32 29 -9 29 C-7.355 25.481 -5.325 22.303 -3.188 19.062 C-2.521 18.043 -1.855 17.023 -1.168 15.973 C1 13 1 13 3.762 10.309 C6 8 6 8 6 5 C4.039 3.611 2.038 2.274 0 1 C0 0.67 0 0.34 0 0 Z " fill="#FCEFA7" transform="translate(79,122)"/>
<path d="M0 0 C3.866 3.582 6.654 7.272 9.25 11.875 C9.601 12.462 9.951 13.048 10.312 13.652 C12.721 17.867 13.587 21.255 14 26 C11.69 26.33 9.38 26.66 7 27 C6.746 25.889 6.492 24.778 6.23 23.633 C4.395 15.674 2.522 7.776 0 0 Z " fill="#E4BB06" transform="translate(105,83)"/>
<path d="M0 0 C-0.319 0.133 -0.319 0.133 -1.934 0.805 C-2.76 1.158 -3.586 1.511 -4.438 1.875 C-5.261 2.223 -6.085 2.571 -6.934 2.93 C-9 4 -9 4 -10 6 C-18.058 9.075 -30.637 7.426 -39 6 C-39.66 5.67 -40.32 5.34 -41 5 C-41 4.34 -41 3.68 -41 3 C-39.354 2.973 -37.708 2.954 -36.062 2.938 C-35.146 2.926 -34.229 2.914 -33.285 2.902 C-31 3 -31 3 -30 4 C-30 3.67 -30 3.34 -30 3 C-28.793 2.879 -27.587 2.758 -26.344 2.633 C-24.729 2.464 -23.115 2.295 -21.5 2.125 C-20.709 2.046 -19.917 1.968 -19.102 1.887 C-15.179 1.469 -11.463 0.918 -7.656 -0.133 C-4.203 -0.952 -3.185 -0.997 0 0 Z " fill="#EED516" transform="translate(59,132)"/>
<path d="M0 0 C2.512 2.512 2.787 4.379 3.625 7.812 C3.885 8.85 4.146 9.888 4.414 10.957 C4.949 13.736 5.115 16.182 5 19 C7.97 19 10.94 19 14 19 C14.33 17.68 14.66 16.36 15 15 C15 16.98 15 18.96 15 21 C15.846 21.248 16.691 21.495 17.562 21.75 C21.384 23.14 24.519 24.911 28 27 C28 27.99 28 28.98 28 30 C24.63 28.703 21.447 27.239 18.25 25.562 C13.622 23.214 8.968 21.476 4 20 C4 19.34 4 18.68 4 18 C3.34 18 2.68 18 2 18 C-0.613 12.121 -0.183 6.293 0 0 Z " fill="#F8DB28" transform="translate(107,91)"/>
<path d="M0 0 C3.875 0.875 3.875 0.875 5 2 C5.846 8.24 4.71 14.057 3.125 20.062 C2.951 20.73 2.778 21.397 2.599 22.084 C2.134 23.744 1.574 25.376 1 27 C0.34 27.33 -0.32 27.66 -1 28 C-0.964 27.314 -0.929 26.627 -0.892 25.92 C-0.735 22.822 -0.586 19.724 -0.438 16.625 C-0.381 15.545 -0.325 14.465 -0.268 13.352 C-0.219 12.32 -0.171 11.289 -0.121 10.227 C-0.074 9.273 -0.027 8.32 0.022 7.338 C0 5 0 5 -1 3 C-0.67 2.01 -0.34 1.02 0 0 Z " fill="#E3BA0C" transform="translate(118,143)"/>
<path d="M0 0 C1.32 0.33 2.64 0.66 4 1 C4 2.98 4 4.96 4 7 C4.928 7.248 5.856 7.495 6.812 7.75 C10.361 9.142 11.286 9.658 13 13 C14.521 18.232 15.311 23.605 16 29 C13.147 25.498 11.356 22.256 10.645 17.75 C10.26 15.373 9.884 13.242 9 11 C5.875 9.438 5.875 9.438 3 9 C3 9.66 3 10.32 3 11 C2.34 11 1.68 11 1 11 C0.691 11.784 0.381 12.568 0.062 13.375 C-1 16 -1 16 -2 18 C-2.66 18 -3.32 18 -4 18 C-3.691 17.113 -3.381 16.226 -3.062 15.312 C-1.961 11.878 -1 8.621 -1 5 C-1.66 4.67 -2.32 4.34 -3 4 C-1.35 4 0.3 4 2 4 C1.34 2.68 0.68 1.36 0 0 Z " fill="#CCAE05" transform="translate(109,46)"/>
<path d="M0 0 C5.94 0 11.88 0 18 0 C18.165 0.495 18.165 0.495 19 3 C18.371 3.037 17.742 3.075 17.094 3.113 C12.021 3.503 7.69 4.223 2.996 6.188 C0.86 7.057 -1.292 7.711 -3.5 8.375 C-7.59 9.693 -10.867 11.646 -14.371 14.109 C-14.909 14.403 -15.446 14.697 -16 15 C-16.66 14.67 -17.32 14.34 -18 14 C-2.351 3 -2.351 3 4 3 C4 2.34 4 1.68 4 1 C2.68 0.67 1.36 0.34 0 0 Z " fill="#E7CD10" transform="translate(92,47)"/>
<path d="M0 0 C0.589 0.219 1.178 0.438 1.785 0.664 C0.94 1.18 0.094 1.695 -0.777 2.227 C-8.598 7.495 -15.005 15.243 -19.215 23.664 C-21.841 23.55 -24.465 23.424 -27.09 23.289 C-27.836 23.258 -28.583 23.227 -29.352 23.195 C-34.988 22.891 -34.988 22.891 -37.215 20.664 C-35.895 20.004 -34.575 19.344 -33.215 18.664 C-33.215 18.994 -33.215 19.324 -33.215 19.664 C-21.657 20.578 -21.657 20.578 -18.273 18.434 C-16.282 16.026 -15.198 13.613 -14.215 10.664 C-12.09 8.352 -12.09 8.352 -9.215 5.664 C-8.927 5.385 -8.927 5.385 -7.469 3.973 C-6.869 3.417 -6.27 2.861 -5.652 2.289 C-5.094 1.766 -4.536 1.242 -3.961 0.703 C-2.215 -0.336 -2.215 -0.336 0 0 Z " fill="#D7B406" transform="translate(104.21484375,81.3359375)"/>
<path d="M0 0 C0.33 0 0.66 0 1 0 C1.027 2.458 1.047 4.917 1.062 7.375 C1.071 8.074 1.079 8.772 1.088 9.492 C1.113 14.773 1.113 14.773 0 17 C-0.23 19.204 -0.411 21.414 -0.562 23.625 C-0.646 24.814 -0.73 26.002 -0.816 27.227 C-0.847 27.684 -0.847 27.684 -1 30 C-8.942 28.525 -14.941 25.306 -21 20 C-21.33 19.34 -21.66 18.68 -22 18 C-21.479 18.266 -20.958 18.531 -20.422 18.805 C-17.39 20.301 -14.322 21.712 -11.25 23.125 C-10.08 23.664 -8.909 24.203 -7.703 24.758 C-6.811 25.168 -5.919 25.578 -5 26 C-4.373 23.607 -3.907 21.335 -3.562 18.875 C-3 16 -3 16 -1 14 C-0.699 11.635 -0.505 9.256 -0.375 6.875 C-0.3 5.594 -0.225 4.312 -0.148 2.992 C-0.099 2.005 -0.05 1.017 0 0 Z " fill="#F4D01C" transform="translate(116,141)"/>
<path d="M0 0 C0.781 0.001 1.561 0.001 2.365 0.002 C8.156 0.047 8.156 0.047 10.438 1.188 C12.311 1.258 14.188 1.272 16.062 1.25 C17.065 1.241 18.068 1.232 19.102 1.223 C19.487 1.217 19.487 1.217 21.438 1.188 C21.108 1.847 20.778 2.508 20.438 3.188 C19.83 3.218 19.83 3.218 16.754 3.371 C15.169 3.455 13.585 3.54 12 3.625 C11.198 3.664 10.395 3.704 9.568 3.744 C3.551 4.074 3.551 4.074 2.438 5.188 C0.438 5.208 -1.563 5.178 -3.562 5.125 C-9.259 5.068 -14.079 5.7 -19.562 7.188 C-14.828 3.299 -10.851 3.048 -4.812 2.625 C-3.781 2.553 -3.781 2.553 1.438 2.188 C-2.852 2.188 -7.142 2.188 -11.562 2.188 C-7.693 -0.392 -4.477 -0.071 0 0 Z " fill="#D1B40F" transform="translate(88.5625,43.8125)"/>
<path d="M0 0 C1.48 0.14 2.959 0.288 4.438 0.438 C4.849 0.478 4.849 0.478 6.934 0.684 C9 1 9 1 10 2 C11.489 2.087 12.981 2.107 14.473 2.098 C14.922 2.096 14.922 2.096 17.197 2.088 C17.67 2.084 17.67 2.084 20.062 2.062 C21.012 2.058 21.961 2.053 22.939 2.049 C25.293 2.037 27.646 2.021 30 2 C30.33 3.65 30.66 5.3 31 7 C23.05 7.224 15.729 6.954 8 5 C8 4.34 8 3.68 8 3 C5.36 2.34 2.72 1.68 0 1 C0 0.67 0 0.34 0 0 Z " fill="#F3E1BD" transform="translate(27,157)"/>
<path d="M0 0 C3.794 1.49 5.683 3.691 8 7 C8 7.66 8 8.32 8 9 C8.66 9 9.32 9 10 9 C10.144 8.515 10.144 8.515 10.875 6.062 C12 3 12 3 14 2 C13.928 2.423 13.928 2.423 13.562 4.562 C13.377 5.697 13.191 6.831 13 8 C12.752 9.155 12.505 10.31 12.25 11.5 C11.957 15.599 12.889 17.539 15 21 C15.66 21 16.32 21 17 21 C16.67 23.31 16.34 25.62 16 28 C13.36 27.67 10.72 27.34 8 27 C11.75 25.875 11.75 25.875 14 27 C11.572 18.682 7.712 11.991 2.926 4.871 C1 2 1 2 0 0 Z " fill="#C49A02" transform="translate(105,82)"/>
<path d="M0 0 C0.33 0.99 0.66 1.98 1 3 C1.877 3.05 2.755 3.1 3.659 3.152 C6.936 3.343 10.212 3.541 13.488 3.745 C14.902 3.831 16.316 3.914 17.73 3.995 C19.771 4.111 21.811 4.238 23.852 4.367 C25.077 4.441 26.302 4.514 27.565 4.589 C30.963 4.996 33.797 5.825 37 7 C38.785 7.407 40.576 7.785 42.375 8.125 C42.812 8.209 42.812 8.209 45.023 8.633 C45.676 8.754 46.328 8.875 47 9 C44.443 10.698 43.307 11.047 40.223 10.574 C39.18 10.282 38.137 9.989 37.062 9.688 C31.439 8.256 26.135 7.591 20.355 7.246 C13.578 6.749 6.466 6.155 0 4 C0 2.68 0 1.36 0 0 Z " fill="#F9EACB" transform="translate(59,165)"/>
<path d="M0 0 C1.138 4.55 0.428 6.631 -1 11 C-0.361 10.814 0.279 10.629 0.938 10.438 C1.618 10.293 2.299 10.149 3 10 C3.33 10.33 3.66 10.66 4 11 C6.526 11.237 9.031 11.422 11.562 11.562 C12.273 11.606 12.984 11.649 13.717 11.693 C15.478 11.8 17.239 11.9 19 12 C19 12.33 19 12.66 19 13 C2.62 15.08 2.62 15.08 -2 12 C-2.328 10.125 -2.328 10.125 -2.25 8 C-2.242 7.649 -2.242 7.649 -2.203 5.875 C-2 4 -2 4 -1 2 C-1.928 2.165 -2.856 2.33 -3.812 2.5 C-8.814 3.207 -13.969 3.492 -19 3 C-19.66 2.34 -20.32 1.68 -21 1 C-17.535 0.835 -17.535 0.835 0 0 Z " fill="#C6A124" transform="translate(60,152)"/>
<path d="M0 0 C0.937 3.118 1.057 5.741 0.879 8.984 C0.831 9.919 0.782 10.854 0.732 11.816 C0.676 12.784 0.62 13.753 0.562 14.75 C0.51 15.734 0.458 16.717 0.404 17.73 C0.275 20.154 0.138 22.577 0 25 C4.95 25 9.9 25 15 25 C15 25.33 15 25.66 15 26 C9.72 26 4.44 26 -1 26 C-1.114 24.861 -1.114 24.861 -1.684 19.164 C-2 17 -2 17 -3 15 C-3.66 16.32 -4.32 17.64 -5 19 C-6.699 14.937 -5.114 11.681 -3.625 7.812 C-3.39 7.171 -3.156 6.53 -2.914 5.869 C-1.166 1.166 -1.166 1.166 0 0 Z " fill="#FBEEA5" transform="translate(100,97)"/>
<path d="M0 0 C2.31 0.66 4.62 1.32 7 2 C7 3.32 7 4.64 7 6 C7.66 6 8.32 6 9 6 C9.33 7.32 9.66 8.64 10 10 C7.69 10.66 5.38 11.32 3 12 C1.096 10.096 0.065 8.666 -0.199 5.953 C-0.189 3.968 -0.099 1.983 0 0 Z " fill="#D7C016" transform="translate(4,127)"/>
<path d="M0 0 C1.232 0.334 2.465 0.668 3.734 1.012 C9.609 2.32 15.27 2.015 21.25 1.812 C30.924 1.62 38.393 2.209 47 7 C47 7.33 47 7.66 47 8 C45.35 8 43.7 8 42 8 C42 7.34 42 6.68 42 6 C32.384 4.836 22.758 4.651 13.084 4.395 C11.83 4.357 10.577 4.32 9.285 4.281 C8.15 4.251 7.014 4.221 5.844 4.189 C3 4 3 4 0 3 C0 2.01 0 1.02 0 0 Z " fill="#E9D1A1" transform="translate(60,165)"/>
<path d="M0 0 C0.578 0.371 1.155 0.742 1.75 1.125 C1.484 1.276 1.484 1.276 0.141 2.043 C-4.251 4.648 -7.158 7.002 -10.25 11.125 C-12.188 12.884 -14.2 14.494 -16.25 16.125 C-16.91 15.795 -17.57 15.465 -18.25 15.125 C-15.045 9.784 -7.161 -2.785 0 0 Z " fill="#E5C90A" transform="translate(56.25,54.875)"/>
<path d="M0 0 C1.791 0.063 3.583 0.087 5.375 0.062 C6.249 0.053 7.123 0.044 8.023 0.035 C8.676 0.024 9.328 0.012 10 0 C7.311 2.689 5.755 2.291 2 2.438 C-4.045 2.801 -9.315 3.96 -15 6 C-15.99 4.68 -16.98 3.36 -18 2 C-16.129 1.464 -14.253 0.947 -12.375 0.438 C-11.331 0.147 -10.287 -0.143 -9.211 -0.441 C-5.763 -1.041 -3.406 -0.688 0 0 Z " fill="#DFC219" transform="translate(82,45)"/>
<path d="M0 0 C1.65 0.33 1.65 0.33 10 2 C9.34 2.66 8.68 3.32 8 4 C7.795 6.098 7.686 8.206 7.625 10.312 C7.213 17.569 5.838 24.284 3 31 C2.34 31.33 1.68 31.66 1 32 C1.289 30.889 1.578 29.778 1.875 28.633 C3.9 20.603 5.53 13.346 5 5 C3.68 4.34 2.36 3.68 1 3 C0.67 3.99 0.34 4.98 0 6 C0 4.02 0 2.04 0 0 Z " fill="#CC9F20" transform="translate(117,140)"/>
<path d="M0 0 C6.93 0 13.86 0 21 0 C21 0.66 21 1.32 21 2 C20.34 2 19.68 2 19 2 C19 2.66 19 3.32 19 4 C16.959 4.055 14.917 4.093 12.875 4.125 C12.307 4.137 12.307 4.137 9.43 4.195 C5.942 3.997 3.245 3.252 0 2 C0 1.34 0 0.68 0 0 Z " fill="#DABE80" transform="translate(38,154)"/>
<path d="M0 0 C0.33 0 0.66 0 1 0 C1 2.97 1 5.94 1 9 C8.59 9 16.18 9 24 9 C24 9.33 24 9.66 24 10 C18.26 10.741 12.755 11.08 6.969 10.938 C5 11 5 11 4 12 C2 12.041 -0 12.043 -2 12 C-2.178 7.452 -1.998 4.121 0 0 Z " fill="#FDF5C3" transform="translate(98,114)"/>
<path d="M0 0 C2.223 4.005 2.344 7.561 2.312 12.062 C2.311 12.815 2.31 13.567 2.309 14.342 C2.202 20.549 1.123 26.148 -1 32 C-1.33 32 -1.66 32 -2 32 C-2.125 25.375 -2.125 25.375 -1 22 C-0.852 20.301 -0.753 18.598 -0.684 16.895 C-0.663 16.403 -0.663 16.403 -0.557 13.916 C-0.517 12.892 -0.478 11.868 -0.438 10.812 C-0.394 9.777 -0.351 8.741 -0.307 7.674 C-0.201 5.116 -0.098 2.558 0 0 Z " fill="#DCB809" transform="translate(122,73)"/>
<path d="M0 0 C0.66 0 1.32 0 2 0 C3.604 3.508 4.22 6.144 4 10 C3.01 9.67 2.02 9.34 1 9 C0.67 8.01 0.34 7.02 0 6 C-3.817 7.555 -6.192 10.036 -9 13 C-9.66 12.67 -10.32 12.34 -11 12 C-9.215 9.994 -7.422 7.995 -5.625 6 C-5.117 5.428 -4.609 4.855 -4.086 4.266 C-2.765 2.806 -1.386 1.398 0 0 Z " fill="#FDF1B7" transform="translate(93,129)"/>
<path d="M0 0 C0.66 0 1.32 0 2 0 C3.87 7.79 1.836 14.614 -1 22 C-1.66 22.33 -2.32 22.66 -3 23 C-3.688 21.375 -3.688 21.375 -4 19 C-3.546 18.196 -3.093 17.391 -2.625 16.562 C-0.192 11.229 -0.25 5.801 0 0 Z " fill="#EED219" transform="translate(118,63)"/>
<path d="M0 0 C-3.931 1.517 -7.814 2.996 -11.875 4.125 C-15 5 -15 5 -17 6 C-19.217 5.752 -21.425 5.429 -23.625 5.062 C-24.814 4.868 -26.002 4.673 -27.227 4.473 C-28.142 4.317 -29.057 4.161 -30 4 C-30 3.67 -30 3.34 -30 3 C-28.793 2.879 -27.587 2.758 -26.344 2.633 C-24.729 2.464 -23.115 2.295 -21.5 2.125 C-20.709 2.046 -19.917 1.968 -19.102 1.887 C-15.179 1.469 -11.463 0.918 -7.656 -0.133 C-4.203 -0.952 -3.185 -0.997 0 0 Z " fill="#F3D929" transform="translate(59,132)"/>
<path d="M0 0 C0.33 1.65 0.66 3.3 1 5 C-0.096 6.009 -1.202 7.007 -2.312 8 C-2.62 8.278 -2.62 8.278 -4.176 9.688 C-6 11 -6 11 -9 11 C-8.403 7.669 -7.28 5.787 -5.062 3.25 C-4.538 2.636 -4.013 2.023 -3.473 1.391 C-2 0 -2 0 0 0 Z " fill="#FCEA59" transform="translate(38,78)"/>
<path d="M0 0 C6.065 0.319 11.331 3.246 16 7 C16.945 9.027 16.945 9.027 17 11 C14.562 13.75 14.562 13.75 12 16 C12 13 12 10 12 7 C8.04 5.02 4.08 3.04 0 1 C0 0.67 0 0.34 0 0 Z " fill="#EAC51F" transform="translate(122,111)"/>
<path d="M0 0 C1.562 1.312 1.562 1.312 2.562 3.312 C-3.836 5.707 -8.002 6.971 -14.438 4.312 C-4.259 -1.201 -4.259 -1.201 0 0 Z " fill="#DCBC78" transform="translate(93.4375,160.6875)"/>
<path d="M0 0 C0 1.65 0 3.3 0 5 C-0.309 5.041 -0.309 5.041 -1.875 5.25 C-4 6 -4 6 -5.25 8.062 C-5.498 8.702 -5.745 9.341 -6 10 C-7.65 10 -9.3 10 -11 10 C-10.875 7.688 -10.875 7.688 -10 5 C-7.125 3.312 -7.125 3.312 -4 2 C-1 0 -1 0 0 0 Z " fill="#F4D82A" transform="translate(49,119)"/>
<path d="M0 0 C0 3.762 -1.141 4.983 -3.25 8.062 C-6.249 12.603 -8.356 16.95 -10.078 22.102 C-10.382 22.728 -10.687 23.355 -11 24 C-11.99 24.33 -12.98 24.66 -14 25 C-11.583 14.799 -6.955 7.817 0 0 Z " fill="#D7BB08" transform="translate(25,83)"/>
<path d="M0 0 C0.66 0.33 1.32 0.66 2 1 C-0.185 4.391 -1.212 5.828 -5.234 6.707 C-5.814 6.724 -5.814 6.724 -8.75 6.812 C-9.92 6.86 -11.091 6.908 -12.297 6.957 C-13.189 6.971 -14.081 6.985 -15 7 C-15.33 6.34 -15.66 5.68 -16 5 C-15.18 4.807 -14.36 4.613 -13.516 4.414 C-12.438 4.154 -11.36 3.893 -10.25 3.625 C-9.716 3.497 -9.716 3.497 -7.016 2.852 C-4 2 -4 2 -1.734 0.836 C-1.162 0.56 -0.59 0.284 0 0 Z " fill="#E1B704" transform="translate(79,157)"/>
<path d="M0 0 C-1.98 1.32 -3.96 2.64 -6 4 C-5.67 4.99 -5.34 5.98 -5 7 C-4.34 7.33 -3.68 7.66 -3 8 C-3 8.66 -3 9.32 -3 10 C-3.33 10.165 -3.33 10.165 -5 11 C-5.33 11.66 -5.66 12.32 -6 13 C-7.98 12.34 -9.96 11.68 -12 11 C-10.68 10.34 -9.36 9.68 -8 9 C-8 7.68 -8 6.36 -8 5 C-8.66 5 -9.32 5 -10 5 C-10 4.01 -10 3.02 -10 2 C-9.34 2 -8.68 2 -8 2 C-7.67 1.34 -7.34 0.68 -7 0 C-4.026 -1.09 -3.116 -1.039 0 0 Z " fill="#BDA005" transform="translate(21,128)"/>
<path d="M0 0 C0.66 0.33 1.32 0.66 2 1 C1.287 1.557 0.574 2.114 -0.16 2.688 C-5.442 6.896 -10.245 11.07 -14.562 16.27 C-16.256 18.308 -18.089 20.166 -20 22 C-18.605 12.645 -7.051 5.27 0 0 Z " fill="#FAEA66" transform="translate(33,66)"/>
<path d="M0 0 C0.382 0.031 0.382 0.031 2.312 0.188 C2.972 1.507 3.632 2.827 4.312 4.188 C2.209 4.692 0.105 5.191 -2 5.688 C-2.586 5.827 -2.586 5.827 -5.551 6.531 C-8.688 7.188 -8.688 7.188 -11.688 7.188 C-11.688 5.537 -11.688 3.887 -11.688 2.188 C-11.358 3.178 -11.028 4.167 -10.688 5.188 C-6.02 3.548 -6.02 3.548 -4.188 1.562 C-2.688 0.188 -2.688 0.188 0 0 Z " fill="#F5D31E" transform="translate(70.6875,155.8125)"/>
<path d="M0 0 C2.31 0 4.62 0 7 0 C6.67 0.495 6.67 0.495 5 3 C6.32 4.32 7.64 5.64 9 7 C7.35 7 5.7 7 4 7 C3.34 8.32 2.68 9.64 2 11 C0.577 7.177 -0.24 4.087 0 0 Z " fill="#FDE45C" transform="translate(101,130)"/>
<path d="M0 0 C0.66 0.33 1.32 0.66 2 1 C0.565 2.772 -0.873 4.543 -2.312 6.312 C-3.113 7.299 -3.914 8.285 -4.738 9.301 C-5.485 10.192 -6.231 11.082 -7 12 C-7.509 12.612 -8.018 13.225 -8.543 13.855 C-10 15 -10 15 -14 15 C-12.739 11.217 -11.094 10.313 -7.938 7.938 C-6.256 6.671 -4.6 5.368 -3 4 C-3 3.34 -3 2.68 -3 2 C-2.01 1.34 -1.02 0.68 0 0 Z " fill="#F6DC30" transform="translate(37,63)"/>
<path d="M0 0 C0 3.581 -0.832 4.51 -2.875 7.375 C-5.093 10.493 -6.69 13.399 -8 17 C-8.66 16.01 -9.32 15.02 -10 14 C-10.66 15.32 -11.32 16.64 -12 18 C-12 15.36 -12 12.72 -12 10 C-11.67 10.66 -11.34 11.32 -11 12 C-10.01 12 -9.02 12 -8 12 C-7.867 11.714 -7.867 11.714 -7.195 10.266 C-5.943 7.892 -4.506 5.878 -2.875 3.75 C-2.336 3.044 -1.797 2.337 -1.242 1.609 C-0.832 1.078 -0.422 0.547 0 0 Z " fill="#E9CF0D" transform="translate(23,105)"/>
<path d="M0 0 C3.774 3.774 4.125 9.875 4.125 15.062 C4.084 16.032 4.043 17.001 4 18 C3.34 18 2.68 18 2 18 C-0.613 12.121 -0.183 6.293 0 0 Z " fill="#F9DE34" transform="translate(107,91)"/>
<path d="M0 0 C6.27 0.66 12.54 1.32 19 2 C19.33 1.34 19.66 0.68 20 0 C20 2.31 20 4.62 20 7 C19.34 6.01 18.68 5.02 18 4 C15.137 3.777 15.137 3.777 11.688 3.938 C7.187 4.138 4.085 3.97 0 2 C0 1.34 0 0.68 0 0 Z " fill="#E2C994" transform="translate(38,156)"/>
<path d="M0 0 C0.66 0 1.32 0 2 0 C1.979 0.949 1.959 1.898 1.938 2.875 C2 6 2 6 3 8 C3.99 8 4.98 8 6 8 C4.25 10 4.25 10 2 12 C0.68 12 -0.64 12 -2 12 C-1.858 10.562 -1.711 9.125 -1.562 7.688 C-1.481 6.887 -1.4 6.086 -1.316 5.262 C-1 3 -1 3 0 0 Z " fill="#FADC2C" transform="translate(62,149)"/>
<path d="M0 0 C1.13 3.39 0.762 5.549 0 9 C-0.217 11.435 -0.403 13.873 -0.562 16.312 C-0.646 17.567 -0.73 18.821 -0.816 20.113 C-0.877 21.066 -0.938 22.019 -1 23 C-3.73 20.27 -3.299 18.684 -3.312 14.875 C-3.243 9.199 -2.405 5.111 0 0 Z " fill="#C8AD04" transform="translate(12,106)"/>
<path d="M0 0 C0.99 0.33 1.98 0.66 3 1 C1.02 4.63 -0.96 8.26 -3 12 C-3.33 10.68 -3.66 9.36 -4 8 C-3.34 7.01 -2.68 6.02 -2 5 C-4.31 5.33 -6.62 5.66 -9 6 C-8 4 -8 4 -5.625 2.875 C-3 2 -3 2 0 2 C0 1.34 0 0.68 0 0 Z " fill="#BB9801" transform="translate(66,131)"/>
<path d="M0 0 C0.33 0 0.66 0 1 0 C1.088 3.146 1.141 6.291 1.188 9.438 C1.213 10.316 1.238 11.194 1.264 12.1 C1.332 18.28 0.328 23.275 -2 29 C-2.33 29 -2.66 29 -3 29 C-2.67 25.37 -2.34 21.74 -2 18 C-1.34 18 -0.68 18 0 18 C0 12.06 0 6.12 0 0 Z " fill="#C8A941" transform="translate(125,76)"/>
<path d="M0 0 C-1.657 1.346 -3.327 2.675 -5 4 C-5.663 4.529 -6.325 5.057 -7.008 5.602 C-7.357 5.874 -7.357 5.874 -9.125 7.25 C-9.788 7.771 -10.45 8.292 -11.133 8.828 C-13 10 -13 10 -16 10 C-12.323 5.059 -6.667 -2.222 0 0 Z " fill="#F1D414" transform="translate(60,58)"/>
<path d="M0 0 C0.99 0.165 0.99 0.165 6 1 C5.216 1.536 4.433 2.072 3.625 2.625 C0.595 5.366 0.245 7.188 -1 11 C-3.516 13.839 -5.844 15.896 -9 18 C-7.953 15.557 -7.121 14.102 -5.062 12.375 C-1.939 8.778 -1.148 4.556 0 0 Z " fill="#FBE037" transform="translate(72,130)"/>
<path d="M0 0 C1.875 0.312 1.875 0.312 4 1 C7.691 6.536 8.169 13.488 9 20 C4.983 15.069 3.718 10.128 2.562 3.988 C2 2 2 2 0 0 Z " fill="#C9AA3B" transform="translate(116,55)"/>
<path d="M0 0 C0.33 0.66 0.66 1.32 1 2 C2.98 1.34 4.96 0.68 7 0 C7 0.99 7 1.98 7 3 C5.421 3.533 3.836 4.051 2.25 4.562 C1.368 4.853 0.487 5.143 -0.422 5.441 C-3 6 -3 6 -7 5 C-4.69 3.35 -2.38 1.7 0 0 Z " fill="#F4E3C2" transform="translate(126,168)"/>
<path d="M0 0 C0.33 0 0.66 0 1 0 C0.67 3.63 0.34 7.26 0 11 C-5.75 9.25 -5.75 9.25 -8 7 C-7.237 6.959 -6.474 6.918 -5.688 6.875 C-3 6 -3 6 -1.188 2.938 C-0.796 1.968 -0.404 0.999 0 0 Z " fill="#FDF4C9" transform="translate(94,114)"/>
<path d="M0 0 C0.99 0.33 1.98 0.66 3 1 C2.276 1.592 1.551 2.183 0.805 2.793 C-4.148 6.841 -9.097 10.892 -14 15 C-12.551 11.66 -10.718 9.477 -8.125 6.938 C-7.447 6.266 -6.769 5.594 -6.07 4.902 C-2.241 1.383 -2.241 1.383 0 0 Z " fill="#F6DC3C" transform="translate(30,66)"/>
<path d="M0 0 C-1.391 2.782 -3.302 3.552 -6 5 C-6.66 5 -7.32 5 -8 5 C-8 5.66 -8 6.32 -8 7 C-9.65 7.66 -11.3 8.32 -13 9 C-8.931 1.554 -8.931 1.554 -5.375 -0.562 C-3 -1 -3 -1 0 0 Z " fill="#FAE236" transform="translate(60,67)"/>
<path d="M0 0 C2.64 0 5.28 0 8 0 C8.33 0.99 8.66 1.98 9 3 C7.515 3.165 7.515 3.165 0 4 C0 2.68 0 1.36 0 0 Z " fill="#DEA323" transform="translate(103,124)"/>
<path d="M0 0 C3.63 0.33 7.26 0.66 11 1 C11 1.66 11 2.32 11 3 C12.65 3.33 14.3 3.66 16 4 C16 4.33 16 4.66 16 5 C9.997 5.632 5.366 3.375 0 1 C0 0.67 0 0.34 0 0 Z " fill="#EAD3A7" transform="translate(27,155)"/>
<path d="M0 0 C3.875 0.875 3.875 0.875 5 2 C5.041 4 5.043 6 5 8 C4.67 8.165 4.67 8.165 3 9 C2.67 8.34 2.34 7.68 2 7 C1.01 6.34 0.02 5.68 -1 5 C-0.67 3.35 -0.34 1.7 0 0 Z " fill="#D7B011" transform="translate(138,119)"/>
<path d="M0 0 C1.65 0.33 1.65 0.33 10 2 C9.34 2.66 8.68 3.32 8 4 C7.586 5.945 7.586 5.945 7.375 8.125 C7.313 8.764 7.313 8.764 7 12 C6.67 12 6.34 12 6 12 C5.959 11.443 5.959 11.443 5.75 8.625 C5 5 5 5 2.938 3.562 C2.298 3.377 1.659 3.191 1 3 C0.67 3.99 0.34 4.98 0 6 C0 4.02 0 2.04 0 0 Z " fill="#CB9C08" transform="translate(117,140)"/>
<path d="M0 0 C0.495 0.33 0.495 0.33 3 2 C3.398 4.242 3.398 4.242 3.375 6.875 C3.383 7.739 3.39 8.602 3.398 9.492 C3 12 3 12 0 16 C0 10.72 0 5.44 0 0 Z " fill="#F3E3B9" transform="translate(124,144)"/>
<path d="M0 0 C1.148 1.703 1.148 1.703 2 4 C1.102 6.359 1.102 6.359 -0.375 8.75 C-0.857 9.549 -1.339 10.348 -1.836 11.172 C-2.22 11.775 -2.604 12.378 -3 13 C-4.15 9.549 -3.805 8.698 -2.625 5.375 C-2.349 4.578 -2.073 3.782 -1.789 2.961 C-1 1 -1 1 0 0 Z " fill="#F6DB29" transform="translate(12,85)"/>
<path d="M0 0 C0.66 0.33 1.32 0.66 2 1 C0.382 2.839 -1.244 4.672 -2.875 6.5 C-3.335 7.025 -3.795 7.549 -4.27 8.09 C-5.472 9.431 -6.732 10.72 -8 12 C-8.66 12 -9.32 12 -10 12 C-8.523 8.548 -6.562 6.35 -3.875 3.75 C-3.151 3.044 -2.426 2.337 -1.68 1.609 C-1.125 1.078 -0.571 0.547 0 0 Z " fill="#D8A12D" transform="translate(90,130)"/>
<path d="M0 0 C0.33 0 0.66 0 1 0 C1 1.65 1 3.3 1 5 C3.97 5 6.94 5 10 5 C10.33 3.68 10.66 2.36 11 1 C11 2.65 11 4.3 11 6 C7.674 7.761 6.408 8.108 2.688 7.125 C1.801 6.754 0.914 6.382 0 6 C0 4.02 0 2.04 0 0 Z " fill="#ECC929" transform="translate(111,105)"/>
<path d="M0 0 C1.751 0.453 3.501 0.913 5.25 1.375 C5.737 1.503 5.737 1.503 8.203 2.148 C10.658 2.896 12.756 3.771 15 5 C9.384 5.29 5.902 5.108 1 2 C0.67 1.34 0.34 0.68 0 0 Z " fill="#E0BB08" transform="translate(26,147)"/>
<path d="M0 0 C0.66 0.33 1.32 0.66 2 1 C-2.29 4.3 -6.58 7.6 -11 11 C-11 8 -11 8 -10 6 C-8.276 4.978 -6.549 3.959 -4.789 3 C-3.145 2.081 -1.567 1.045 0 0 Z " fill="#EDD119" transform="translate(73,62)"/>
<path d="M0 0 C2.542 -0.054 5.083 -0.094 7.625 -0.125 C8.338 -0.142 9.051 -0.159 9.785 -0.176 C14.261 -0.217 17.779 0.309 22 2 C22 2.33 22 2.66 22 3 C15.25 3.125 15.25 3.125 13 2 C10.796 1.77 8.586 1.589 6.375 1.438 C5.186 1.354 3.998 1.27 2.773 1.184 C2.316 1.153 2.316 1.153 0 1 C0 0.67 0 0.34 0 0 Z " fill="#EEE5B9" transform="translate(84,43)"/>
<path d="M0 0 C4 2 8 4 12 6 C12 6.99 12 7.98 12 9 C7.209 6.789 2.959 4.438 0 0 Z " fill="#EFCA13" transform="translate(94,159)"/>
<path d="M0 0 C4.084 0.743 8.019 1.829 12 3 C10.68 3.99 9.36 4.98 8 6 C1.125 2.25 1.125 2.25 0 0 Z " fill="#FDF4AB" transform="translate(67,113)"/>
<path d="M0 0 C0 0.99 0 1.98 0 3 C-3.3 3 -6.6 3 -10 3 C-4.286 -1.286 -4.286 -1.286 0 0 Z " fill="#CCA203" transform="translate(69,101)"/>
<path d="M0 0 C0.33 0.66 0.66 1.32 1 2 C1.66 2 2.32 2 3 2 C1.902 4.993 1.323 5.846 -1.625 7.25 C-2.409 7.498 -3.192 7.745 -4 8 C-4 7.01 -4 6.02 -4 5 C-3.34 5 -2.68 5 -2 5 C-1.34 3.35 -0.68 1.7 0 0 Z " fill="#FBE338" transform="translate(28,87)"/>
<path d="M0 0 C1.32 0.33 2.64 0.66 4 1 C4 2.98 4 4.96 4 7 C5.32 7.66 6.64 8.32 8 9 C6.02 9 4.04 9 2 9 C1.856 7.886 1.711 6.773 1.562 5.625 C1 2 1 2 0 0 Z " fill="#B8971B" transform="translate(109,46)"/>
<path d="M0 0 C0.66 1.32 1.32 2.64 2 4 C2.99 4 3.98 4 5 4 C5 4.99 5 5.98 5 7 C4.34 7 3.68 7 3 7 C2.67 7.66 2.34 8.32 2 9 C0.68 7.02 -0.64 5.04 -2 3 C-1 1 -1 1 0 0 Z " fill="#FAE994" transform="translate(97,137)"/>
<path d="M0 0 C4.921 -0.167 8.503 -0.248 13 2 C13 2.33 13 2.66 13 3 C8.079 3.167 4.497 3.248 0 1 C0 0.67 0 0.34 0 0 Z " fill="#F8EACD" transform="translate(22,158)"/>
<path d="M0 0 C1.32 0.33 2.64 0.66 4 1 C4 3.64 4 6.28 4 9 C1.477 7.026 1.007 6.033 0.312 2.812 C0.209 1.884 0.106 0.956 0 0 Z " fill="#FDF3BF" transform="translate(97,128)"/>
<path d="M0 0 C1.011 3.032 1.027 4.518 0.688 7.625 C0.609 8.422 0.53 9.218 0.449 10.039 C0.301 10.686 0.153 11.333 0 12 C-0.33 12.165 -0.33 12.165 -2 13 C-2.167 8.079 -2.248 4.497 0 0 Z " fill="#F0D51E" transform="translate(8,92)"/>
<path d="M0 0 C4.022 2.011 5.483 3.404 8 7 C8 7.66 8 8.32 8 9 C8.66 9.33 9.32 9.66 10 10 C9.01 10.33 8.02 10.66 7 11 C4.69 7.37 2.38 3.74 0 0 Z " fill="#CBA703" transform="translate(105,82)"/>
<path d="M0 0 C1.32 0.66 2.64 1.32 4 2 C3.67 3.32 3.34 4.64 3 6 C1.68 5.67 0.36 5.34 -1 5 C-0.67 3.35 -0.34 1.7 0 0 Z " fill="#EDD6A4" transform="translate(24,149)"/>
<path d="M0 0 C1.667 3.333 3.333 6.667 5 10 C4.34 10.66 3.68 11.32 3 12 C2.298 10.758 1.614 9.506 0.938 8.25 C0.746 7.902 0.746 7.902 -0.223 6.141 C-1.131 3.639 -0.883 2.467 0 0 Z " fill="#D7B505" transform="translate(57,114)"/>
<path d="M0 0 C0.91 0.102 1.82 0.204 2.758 0.309 C3.456 0.392 4.155 0.476 4.875 0.562 C4.875 0.892 4.875 1.222 4.875 1.562 C4.249 1.611 3.622 1.66 2.977 1.711 C2.159 1.786 1.342 1.86 0.5 1.938 C-0.312 2.007 -1.124 2.077 -1.961 2.148 C-4.125 2.562 -4.125 2.562 -6.125 4.562 C-6.455 3.243 -6.785 1.922 -7.125 0.562 C-4.502 -0.749 -2.895 -0.334 0 0 Z " fill="#D4AC0A" transform="translate(60.125,103.4375)"/>
<path d="M0 0 C6.523 0.615 6.523 0.615 8.938 2.562 C9.288 3.037 9.639 3.511 10 4 C5.744 4.365 3.464 3.475 0 1 C0 0.67 0 0.34 0 0 Z " fill="#E7CE93" transform="translate(103,170)"/>
<path d="M0 0 C0.66 0.66 1.32 1.32 2 2 C-0.31 4.31 -2.62 6.62 -5 9 C-5.66 8.67 -6.32 8.34 -7 8 C-4.69 5.36 -2.38 2.72 0 0 Z " fill="#FAF0A1" transform="translate(89,133)"/>
<path d="M0 0 C0.66 0 1.32 0 2 0 C1.744 2.343 1.407 4.678 1 7 C0.67 7.165 0.67 7.165 -1 8 C-1.931 5.394 -2.149 4.358 -1.062 1.75 C-0.712 1.172 -0.361 0.595 0 0 Z " fill="#F2D723" transform="translate(116,78)"/>
<path d="M0 0 C1.65 0 3.3 0 5 0 C1.981 3.483 -0.569 4.792 -5 6 C-4 3 -4 3 -1.938 1.812 C-1.298 1.544 -0.659 1.276 0 1 C0 0.67 0 0.34 0 0 Z " fill="#EBD00C" transform="translate(63,49)"/>
<path d="M0 0 C0.99 0.33 1.98 0.66 3 1 C3.33 3.31 3.66 5.62 4 8 C1 6 1 6 0.312 2.875 C0.209 1.926 0.106 0.977 0 0 Z " fill="#D0982F" transform="translate(97,135)"/>
<path d="M0 0 C0 1.65 0 3.3 0 5 C-1.32 5.33 -2.64 5.66 -4 6 C-3.625 3.562 -3.625 3.562 -3 1 C-1 0 -1 0 0 0 Z " fill="#F4DA3A" transform="translate(49,119)"/>
<path d="M0 0 C0.66 0 1.32 0 2 0 C1.812 2.375 1.812 2.375 1 5 C-1.562 6.312 -1.562 6.312 -4 7 C-2.68 4.69 -1.36 2.38 0 0 Z " fill="#E7CB91" transform="translate(121,167)"/>
<path d="M0 0 C0.949 0.041 1.898 0.083 2.875 0.125 C3.205 1.115 3.535 2.105 3.875 3.125 C0.905 2.795 -2.065 2.465 -5.125 2.125 C-3.125 0.125 -3.125 0.125 0 0 Z " fill="#F3E2BD" transform="translate(54.125,160.875)"/>
<path d="M0 0 C1.439 0.087 2.876 0.196 4.312 0.312 C5.113 0.371 5.914 0.429 6.738 0.488 C9.363 1.082 10.308 1.958 12 4 C7.805 3.401 3.99 2.425 0 1 C0 0.67 0 0.34 0 0 Z " fill="#F1DFBA" transform="translate(27,157)"/>
<path d="M0 0 C2.875 0.312 2.875 0.312 6 1 C6.66 1.99 7.32 2.98 8 4 C5.125 3.688 5.125 3.688 2 3 C1.34 2.01 0.68 1.02 0 0 Z " fill="#CF8C15" transform="translate(79,120)"/>
<path d="M0 0 C0 3 0 3 -2 6 C-2.99 6 -3.98 6 -5 6 C-3.867 2.601 -2.875 1.947 0 0 Z " fill="#E3BE03" transform="translate(105,67)"/>
<path d="M0 0 C0.66 0.33 1.32 0.66 2 1 C-0.75 6.875 -0.75 6.875 -3 8 C-3.33 7.01 -3.66 6.02 -4 5 C-2.062 2.312 -2.062 2.312 0 0 Z " fill="#DEC226" transform="translate(16,77)"/>
</svg>
