<?xml version="1.0" encoding="UTF-8"?>
<!-- Generator: visioncortex VTracer 0.6.12 -->
<svg version="1.1" xmlns="http://www.w3.org/2000/svg" width="175" height="190">
<path d="M0 0 C57.75 0 115.5 0 175 0 C175 62.7 175 125.4 175 190 C117.25 190 59.5 190 0 190 C0 127.3 0 64.6 0 0 Z " fill="#FCF7EC" transform="translate(0,0)"/>
<path d="M0 0 C1.32 0 2.64 0 4 0 C4.082 0.351 4.082 0.351 4.5 2.125 C7.164 7.23 12.304 9.869 17 13 C17.227 11.783 17.454 10.566 17.688 9.312 C18.759 5.043 20.392 2.663 24 0 C26.164 0.379 26.164 0.379 28 1 C28.124 1.578 28.124 1.578 28.75 4.5 C29.523 7.666 30.584 10.318 32.125 13.188 C33.766 16.269 34.445 18.442 34 22 C34.66 22 35.32 22 36 22 C36.251 21.259 36.503 20.518 36.762 19.754 C38.799 15.223 42.402 12.334 46 9 C46.866 8.175 47.733 7.35 48.625 6.5 C51.667 4.578 53.465 4.462 57 5 C58.875 6.187 58.875 6.187 60 8 C60.438 10.5 60.438 10.5 60 13 C57.895 15.105 55.856 16.063 53.125 17.25 C49.126 19.49 46.773 22.411 44 26 C44.458 25.994 44.458 25.994 46.773 25.965 C47.368 25.96 47.368 25.96 50.375 25.938 C51.558 25.926 52.742 25.914 53.961 25.902 C57 26 57 26 59 27 C60.54 27.07 62.083 27.085 63.625 27.062 C64.442 27.053 65.26 27.044 66.102 27.035 C66.728 27.024 67.355 27.012 68 27 C67.511 33.357 67.511 33.357 65.062 36.438 C63 38 63 38 61 38 C61 38.66 61 39.32 61 40 C61.516 40.248 62.031 40.495 62.562 40.75 C64.554 41.771 66.503 42.875 68.438 44 C71.213 45.603 73.98 46.902 77 48 C76.67 48.99 76.34 49.98 76 51 C74.35 51.33 72.7 51.66 71 52 C71.825 52.928 72.65 53.856 73.5 54.812 C76 57.625 76 57.625 76 61 C74.02 61 72.04 61 70 61 C70.165 61.547 70.165 61.547 71 64.312 C74.027 76.662 70.997 87.492 64.77 98.281 C52.591 116.992 29.516 129.531 9 137 C7.845 137.433 6.69 137.866 5.5 138.312 C-2.831 139.949 -10.194 139.971 -17.688 135.66 C-32.027 125.366 -35.145 108.775 -38.464 92.538 C-38.923 90.367 -39.427 88.22 -39.977 86.07 C-44.02 69.708 -43.327 53.305 -34.656 38.535 C-29.183 30.157 -22.366 23.537 -12.375 21.125 C-11.591 21.084 -10.808 21.043 -10 21 C-10 20.34 -10 19.68 -10 19 C-11.32 18.34 -12.64 17.68 -14 17 C-14 15.35 -14 13.7 -14 12 C-10.728 10.927 -8.571 11.107 -5.25 11.938 C-4.451 12.132 -3.652 12.327 -2.828 12.527 C-2.225 12.683 -1.622 12.839 -1 13 C-1.165 12.505 -1.165 12.505 -2 10 C-2.347 3.521 -2.347 3.521 0 0 Z " fill="#E42711" transform="translate(66,35)"/>
<path d="M0 0 C1.32 0 2.64 0 4 0 C4.082 0.351 4.082 0.351 4.5 2.125 C7.164 7.23 12.304 9.869 17 13 C17.227 11.783 17.454 10.566 17.688 9.312 C18.759 5.043 20.392 2.663 24 0 C26.164 0.379 26.164 0.379 28 1 C28.248 2.155 28.495 3.31 28.75 4.5 C29.523 7.666 30.584 10.318 32.125 13.188 C33.766 16.269 34.445 18.442 34 22 C34.66 22 35.32 22 36 22 C36.126 21.629 36.126 21.629 36.762 19.754 C38.799 15.223 42.402 12.334 46 9 C46.866 8.175 47.733 7.35 48.625 6.5 C51.667 4.578 53.465 4.462 57 5 C58.875 6.187 58.875 6.187 60 8 C60.438 10.5 60.438 10.5 60 13 C57.895 15.105 55.856 16.063 53.125 17.25 C49.126 19.49 46.773 22.411 44 26 C44.458 25.994 44.458 25.994 46.773 25.965 C47.368 25.96 47.368 25.96 50.375 25.938 C51.558 25.926 52.742 25.914 53.961 25.902 C57 26 57 26 59 27 C60.54 27.07 62.083 27.085 63.625 27.062 C64.442 27.053 65.26 27.044 66.102 27.035 C66.728 27.024 67.355 27.012 68 27 C67.511 33.357 67.511 33.357 65.062 36.438 C63 38 63 38 61 38 C61 38.66 61 39.32 61 40 C61.516 40.248 62.031 40.495 62.562 40.75 C64.554 41.771 66.503 42.875 68.438 44 C71.213 45.603 73.98 46.902 77 48 C76.67 48.99 76.34 49.98 76 51 C74.35 51.33 72.7 51.66 71 52 C71.825 52.928 72.65 53.856 73.5 54.812 C76 57.625 76 57.625 76 61 C74.845 61.165 74.845 61.165 69 62 C68.481 61.241 67.961 60.481 67.426 59.699 C66.728 58.705 66.031 57.711 65.312 56.688 C64.628 55.701 63.944 54.715 63.238 53.699 C61.004 51.004 59.09 49.586 56 48 C56 49.65 56 51.3 56 53 C51.828 52.488 49.87 50.239 47 47.312 C46.154 46.463 45.309 45.614 44.438 44.738 C42 42 42 42 40.379 38.684 C38 36 38 36 35.675 35.558 C32.741 35.48 29.867 35.577 26.938 35.75 C24.947 35.837 22.956 35.915 20.965 35.984 C20.084 36.033 19.204 36.082 18.297 36.132 C16 36 16 36 13 34 C13.33 30.7 13.66 27.4 14 24 C8.456 21.195 4.227 20.606 -1.938 20.812 C-2.717 20.826 -3.496 20.84 -4.299 20.854 C-6.2 20.888 -8.1 20.942 -10 21 C-10 20.34 -10 19.68 -10 19 C-11.32 18.34 -12.64 17.68 -14 17 C-14 15.35 -14 13.7 -14 12 C-10.728 10.927 -8.571 11.107 -5.25 11.938 C-4.85 12.035 -4.85 12.035 -2.828 12.527 C-2.225 12.683 -1.622 12.839 -1 13 C-1.33 12.01 -1.66 11.02 -2 10 C-2.347 3.521 -2.347 3.521 0 0 Z " fill="#739104" transform="translate(66,35)"/>
<path d="M0 0 C2.062 0.438 2.062 0.438 4 1 C3.505 1.371 3.01 1.743 2.5 2.125 C0.402 4.747 0.783 6.738 1 10 C3.812 9.875 3.812 9.875 7 9 C8.875 5.938 8.875 5.938 10 3 C10.66 3 11.32 3 12 3 C12 3.99 12 4.98 12 6 C13.98 5.34 15.96 4.68 18 4 C18 4.66 18 5.32 18 6 C18.99 5.67 19.98 5.34 21 5 C23.188 5.938 23.188 5.938 25 7 C25 7.66 25 8.32 25 9 C25.804 9.309 26.609 9.619 27.438 9.938 C30 11 30 11 31 12 C31.072 13.686 31.084 15.375 31.062 17.062 C31.053 17.982 31.044 18.901 31.035 19.848 C31.024 20.558 31.012 21.268 31 22 C30.01 22.33 29.02 22.66 28 23 C27.732 23.639 27.464 24.279 27.188 24.938 C26 27 26 27 22.875 28.25 C21.926 28.498 20.977 28.745 20 29 C20 28.34 20 27.68 20 27 C20.949 26.381 21.898 25.763 22.875 25.125 C27.029 22.3 27.029 22.3 28 19 C28.125 15.75 28.125 15.75 28 13 C26.02 12.67 24.04 12.34 22 12 C21.691 12.784 21.381 13.567 21.062 14.375 C20 17 20 17 19 19 C18.34 19 17.68 19 17 19 C17.33 23.29 17.66 27.58 18 32 C17.67 30.68 17.34 29.36 17 28 C16.299 28.825 15.597 29.65 14.875 30.5 C11.388 33.532 10.418 33 6 33 C4.426 34.129 4.426 34.129 2.875 35.562 C1.926 36.367 0.977 37.171 0 38 C-3.234 37.683 -5.562 36.185 -8.25 34.438 C-8.956 33.982 -9.663 33.527 -10.391 33.059 C-10.656 32.884 -10.656 32.884 -12 32 C-12.33 32.66 -12.66 33.32 -13 34 C-13.081 31.291 -13.141 28.585 -13.188 25.875 C-13.213 25.114 -13.238 24.354 -13.264 23.57 C-13.364 15.794 -10.659 11.359 -5.375 5.688 C-4.578 4.825 -3.782 3.963 -2.961 3.074 C-1 1 -1 1 0 0 Z " fill="#FA4C22" transform="translate(55,68)"/>
<path d="M0 0 C0.33 0.99 0.66 1.98 1 3 C1.458 2.994 1.458 2.994 3.773 2.965 C4.368 2.96 4.368 2.96 7.375 2.938 C8.558 2.926 9.742 2.914 10.961 2.902 C14 3 14 3 16 4 C17.54 4.07 19.083 4.085 20.625 4.062 C21.442 4.053 22.26 4.044 23.102 4.035 C23.728 4.024 24.355 4.012 25 4 C24.511 10.357 24.511 10.357 22.062 13.438 C20 15 20 15 18 15 C18 15.66 18 16.32 18 17 C18.516 17.248 19.031 17.495 19.562 17.75 C21.554 18.771 23.503 19.875 25.438 21 C28.213 22.603 30.98 23.902 34 25 C33.835 25.495 33.835 25.495 33 28 C31.35 28.33 29.7 28.66 28 29 C28.825 29.928 29.65 30.856 30.5 31.812 C33 34.625 33 34.625 33 38 C31.845 38.165 31.845 38.165 26 39 C25.481 38.241 24.961 37.481 24.426 36.699 C23.728 35.705 23.031 34.711 22.312 33.688 C21.628 32.701 20.944 31.715 20.238 30.699 C18.004 28.004 16.09 26.586 13 25 C13 26.65 13 28.3 13 30 C8.828 29.488 6.87 27.239 4 24.312 C3.154 23.463 2.309 22.614 1.438 21.738 C-1 19 -1 19 -2.621 15.684 C-5 13 -5 13 -7.325 12.558 C-10.259 12.48 -13.133 12.577 -16.062 12.75 C-18.053 12.837 -20.044 12.915 -22.035 12.984 C-22.916 13.033 -23.796 13.082 -24.703 13.132 C-27 13 -27 13 -30 11 C-30.188 8.375 -30.188 8.375 -30 6 C-29.67 6.66 -29.34 7.32 -29 8 C-28.01 7.67 -27.02 7.34 -26 7 C-26 7.66 -26 8.32 -26 9 C-24.35 9.33 -22.7 9.66 -21 10 C-21 10.66 -21 11.32 -21 12 C-19.35 12 -17.7 12 -16 12 C-16.33 11.01 -16.66 10.02 -17 9 C-15.712 8.47 -14.42 7.951 -13.125 7.438 C-12.406 7.147 -11.686 6.857 -10.945 6.559 C-9 6 -9 6 -7 7 C-7 6.34 -7 5.68 -7 5 C-6.402 4.732 -5.804 4.464 -5.188 4.188 C-3.028 3.015 -1.642 1.806 0 0 Z " fill="#567009" transform="translate(109,58)"/>
<path d="M0 0 C1.32 0.33 2.64 0.66 4 1 C6.801 13.583 4.127 24.268 -2.23 35.281 C-14.409 53.992 -37.484 66.531 -58 74 C-59.155 74.433 -60.31 74.866 -61.5 75.312 C-69.832 76.949 -77.185 76.965 -84.684 72.668 C-92.213 67.246 -97.217 59.832 -100 51 C-100.125 48.172 -100.125 48.172 -100 46 C-97.664 48.336 -97.286 49.93 -96.312 53.062 C-93.74 60.324 -89.32 67.965 -82.156 71.547 C-75.005 73.05 -68.023 70.654 -62 67 C-59.667 67 -57.333 67 -55 67 C-53.644 66.031 -52.306 65.036 -51 64 C-50.381 64.165 -49.763 64.33 -49.125 64.5 C-45.838 65.273 -43.869 63.559 -41 62 C-40.34 62 -39.68 62 -39 62 C-39 61.34 -39 60.68 -39 60 C-38.216 59.773 -37.433 59.546 -36.625 59.312 C-34 58 -34 58 -32.688 55.375 C-32.461 54.591 -32.234 53.808 -32 53 C-31.34 53 -30.68 53 -30 53 C-29.835 52.67 -29.835 52.67 -29 51 C-28.196 50.691 -27.391 50.381 -26.562 50.062 C-24 49 -24 49 -22 46 C-21.34 46 -20.68 46 -20 46 C-20 45.34 -20 44.68 -20 44 C-18.426 42.738 -18.426 42.738 -16.312 41.312 C-7.261 34.651 -4.47 25.41 -1 15 C-0.773 12.434 -0.584 9.883 -0.438 7.312 C-0.416 6.962 -0.416 6.962 -0.307 5.186 C-0.201 3.457 -0.1 1.729 0 0 Z " fill="#CE2E21" transform="translate(133,98)"/>
<path d="M0 0 C-0.33 1.98 -0.66 3.96 -1 6 C-0.567 6.072 -0.567 6.072 1.625 6.438 C3.875 6.812 6.125 7.188 8.375 7.562 C8.808 7.635 8.808 7.635 11 8 C10.688 9.875 10.688 9.875 10 12 C9.01 12.66 8.02 13.32 7 14 C6.34 14.99 5.68 15.98 5 17 C5 16.34 5 15.68 5 15 C3 16 3 16 1.75 19 C0 22 0 22 -3.125 22.938 C-4.074 22.958 -5.023 22.979 -6 23 C-7 22 -7 22 -7.25 19.125 C-7 16 -7 16 -5.5 14.125 C-5.005 13.754 -4.51 13.382 -4 13 C-8.379 13.505 -10.817 16.178 -14 19 C-13.67 16.69 -13.34 14.38 -13 12 C-18.641 13.953 -21.053 15.559 -24 21 C-24.33 21.99 -24.66 22.98 -25 24 C-25.645 24.286 -26.289 24.572 -26.953 24.867 C-29 26 -29 26 -30.047 28.383 C-30.279 29.288 -30.511 30.193 -30.75 31.125 C-30.871 31.58 -30.871 31.58 -31.484 33.883 C-31.655 34.581 -31.825 35.28 -32 36 C-32.66 36 -33.32 36 -34 36 C-33.225 25.538 -29.521 16.465 -22 9 C-15.432 3.998 -8.536 -0.502 0 0 Z " fill="#F73F20" transform="translate(62,56)"/>
<path d="M0 0 C1.32 0.33 2.64 0.66 4 1 C3.505 1.371 3.01 1.743 2.5 2.125 C0.402 4.747 0.783 6.738 1 10 C3.812 9.875 3.812 9.875 7 9 C8.875 5.938 8.875 5.938 10 3 C10.66 3 11.32 3 12 3 C11.67 4.32 11.34 5.64 11 7 C11.99 7 12.98 7 14 7 C14 7.66 14 8.32 14 9 C14.99 9 15.98 9 17 9 C16.524 13.994 15.241 17.146 12 21 C8.75 22.375 8.75 22.375 6 23 C5.01 21.68 4.02 20.36 3 19 C-0.001 19.322 -0.982 19.982 -3.125 22.188 C-5.053 25.079 -6.07 27.666 -7 31 C-8.32 30.34 -9.64 29.68 -11 29 C-11 25.7 -11 22.4 -11 19 C-11.66 19 -12.32 19 -13 19 C-11.754 13.046 -9.613 9.849 -5.375 5.562 C-5.117 5.292 -5.117 5.292 -3.812 3.924 C-2.552 2.605 -1.278 1.301 0 0 Z " fill="#FC8664" transform="translate(55,68)"/>
<path d="M0 0 C0.33 0 0.66 0 1 0 C1.124 0.804 1.248 1.609 1.375 2.438 C1.581 3.283 1.787 4.129 2 5 C4.515 6.258 5.932 5.97 8.727 5.746 C24.244 4.838 24.244 4.838 28.988 7.977 C30.933 10.557 32.459 13.165 34 16 C35.898 18.188 35.898 18.188 37.812 20.062 C38.355 20.61 38.898 21.158 39.457 21.723 C41 23 41 23 44 24 C44 22.35 44 20.7 44 19 C46.886 19.398 47.822 19.79 49.75 22.062 C49.956 22.382 49.956 22.382 51 24 C50.67 24.165 50.67 24.165 49 25 C48.34 24.34 47.68 23.68 47 23 C46.756 23.634 46.513 24.268 46.262 24.922 C45 27 45 27 43.082 27.891 C40.519 28.296 38.564 28.462 36 28 C33.083 25.741 31.113 23 29 20 C28.196 19.051 27.391 18.102 26.562 17.125 C25 15 25 15 25 13 C24.34 13 23.68 13 23 13 C23 12.34 23 11.68 23 11 C22.051 10.856 21.102 10.711 20.125 10.562 C17 10 17 10 15 9 C12.837 8.795 10.669 8.634 8.5 8.5 C2.222 8.111 2.222 8.111 0 7 C0 4.69 0 2.38 0 0 Z " fill="#C61403" transform="translate(78,64)"/>
<path d="M0 0 C0.771 0.217 1.542 0.433 2.336 0.656 C2.837 0.795 2.837 0.795 5.375 1.5 C6.373 1.778 7.37 2.057 8.398 2.344 C11 3 11 3 13 3 C12.688 4.875 12.688 4.875 12 7 C11.01 7.66 10.02 8.32 9 9 C8.67 9.495 8.67 9.495 7 12 C7 11.34 7 10.68 7 10 C5 11 5 11 3.75 14 C2 17 2 17 -1.125 17.938 C-2.074 17.958 -3.023 17.979 -4 18 C-5 17 -5 17 -5.25 14.125 C-5 11 -5 11 -3.5 9.125 C-3.005 8.754 -2.51 8.382 -2 8 C-6.379 8.505 -8.817 11.178 -12 14 C-11.396 7.593 -11.396 7.593 -9.75 5.125 C-7.563 3.719 -5.536 3.507 -3 3 C-1.344 1.469 -1.344 1.469 0 0 Z " fill="#F63C18" transform="translate(60,61)"/>
<path d="M0 0 C0.33 0.66 0.66 1.32 1 2 C2.313 2.707 3.653 3.362 5 4 C5.567 4.33 5.567 4.33 8.438 6 C11.213 7.603 13.98 8.902 17 10 C16.67 10.99 16.34 11.98 16 13 C14.35 13.33 12.7 13.66 11 14 C11.825 14.928 12.65 15.856 13.5 16.812 C16 19.625 16 19.625 16 23 C13.69 23.33 11.38 23.66 9 24 C8.697 23.348 8.394 22.695 8.082 22.023 C5.527 16.693 2.881 12.435 -1 8 C-1 7.34 -1 6.68 -1 6 C-1.66 6 -2.32 6 -3 6 C-3.33 4.35 -3.66 2.7 -4 1 C-2.68 0.67 -1.36 0.34 0 0 Z " fill="#597204" transform="translate(126,73)"/>
<path d="M0 0 C0 0.99 0 1.98 0 3 C-6.133 7.844 -17.134 15 -25 15 C-25 15.66 -25 16.32 -25 17 C-24.01 17.33 -23.02 17.66 -22 18 C-22 18.66 -22 19.32 -22 20 C-27.002 21.45 -32.017 21.224 -37.188 21.25 C-38.191 21.271 -39.195 21.291 -40.229 21.312 C-46.711 21.346 -52.006 20.498 -58 18 C-58 17.34 -58 16.68 -58 16 C-58.66 16 -59.32 16 -60 16 C-60 15.34 -60 14.68 -60 14 C-59.01 13.67 -58.02 13.34 -57 13 C-55.866 13.639 -54.731 14.279 -53.562 14.938 C-45.847 18.95 -37.988 17.563 -29.938 15.125 C-19.491 11.537 -9.181 6.121 0 0 Z " fill="#D9AF89" transform="translate(105,156)"/>
<path d="M0 0 C1.875 1.188 1.875 1.188 3 3 C3.375 5.562 3.375 5.562 3 8 C2.01 8.66 1.02 9.32 0 10 C-0.99 9.67 -1.98 9.34 -3 9 C-3 8.34 -3 7.68 -3 7 C-7.457 9.786 -11.235 12.915 -15.07 16.512 C-17.086 18.066 -18.514 18.586 -21 19 C-20.198 13.064 -17.071 10.152 -13 6 C-12.702 5.695 -12.702 5.695 -11.191 4.152 C-7.582 0.752 -5.184 -1.06 0 0 Z " fill="#6A8609" transform="translate(123,40)"/>
<path d="M0 0 C2 3.75 2 3.75 2 6 C2.784 5.175 3.567 4.35 4.375 3.5 C7 1 7 1 9 1 C9.935 3.525 10.036 4.857 9.375 7.5 C7.681 10.58 5.948 12.105 3 14 C1.68 14 0.36 14 -1 14 C-1.66 13.34 -2.32 12.68 -3 12 C-5.625 12.375 -5.625 12.375 -8 13 C-9.154 8.962 -9.043 6.698 -7 3 C-4.42 0.586 -3.593 0 0 0 Z " fill="#C11407" transform="translate(113,124)"/>
<path d="M0 0 C2.199 0.254 2.199 0.254 5.199 0.254 C4.967 4.27 4.733 6.607 2.137 9.754 C-1.275 11.496 -3.149 11.67 -6.863 11.016 C-10.299 9.665 -11.758 7.255 -13.801 4.254 C-13.471 3.594 -13.141 2.934 -12.801 2.254 C-14.121 1.924 -15.441 1.594 -16.801 1.254 C-13.236 -2.311 -4.511 -0.559 0 0 Z " fill="#61820B" transform="translate(128.80078125,61.74609375)"/>
<path d="M0 0 C1.32 0.33 2.64 0.66 4 1 C4.812 4.559 5.135 7.851 5.125 11.5 C5.128 12.418 5.13 13.336 5.133 14.281 C5.002 16.95 4.594 19.399 4 22 C3.34 22 2.68 22 2 22 C1.541 22.999 1.082 23.998 0.609 25.027 C-0.01 26.331 -0.63 27.634 -1.25 28.938 C-1.55 29.597 -1.851 30.256 -2.16 30.936 C-4.5 35.789 -4.5 35.789 -7.234 36.941 C-7.817 36.961 -8.4 36.98 -9 37 C-8.23 34.833 -7.459 32.666 -6.688 30.5 C-6.46 29.852 -6.232 29.204 -5.997 28.537 C-4.859 25.317 -3.645 22.178 -2.25 19.062 C0.05 13.15 -0.237 6.279 0 0 Z " fill="#D4392F" transform="translate(133,98)"/>
<path d="M0 0 C6.232 0.611 9.773 1.894 14.312 6.188 C16.633 10.054 16.302 12.543 16 17 C15.67 16.34 15.34 15.68 15 15 C13.627 14.926 12.25 14.917 10.875 14.938 C7.645 14.663 6.297 14.256 3.812 12.113 C1.892 9.771 0.27 7.754 -1 5 C-0.68 2.203 -0.68 2.203 0 0 Z " fill="#81A205" transform="translate(105,66)"/>
<path d="M0 0 C1.32 0 2.64 0 4 0 C4.165 0.701 4.33 1.403 4.5 2.125 C7.164 7.23 12.304 9.869 17 13 C17.33 11.02 17.66 9.04 18 7 C18.33 7 18.66 7 19 7 C19.073 11.398 19.074 14.704 18 19 C15.36 17.35 12.72 15.7 10 14 C10.33 14.99 10.66 15.98 11 17 C9.02 16.67 7.04 16.34 5 16 C4.67 14.02 4.34 12.04 4 10 C3.34 10 2.68 10 2 10 C1.67 10.66 1.34 11.32 1 12 C0.34 11.34 -0.32 10.68 -1 10 C-1.33 10 -1.66 10 -2 10 C-2.25 3.375 -2.25 3.375 0 0 Z " fill="#84A40D" transform="translate(66,35)"/>
<path d="M0 0 C3.875 0.875 3.875 0.875 5 2 C5.582 7.416 5.463 11.567 2 16 C1 17 1 17 -1.438 17.188 C-4 17 -4 17 -6 15 C-6.896 8.389 -6.896 8.389 -4.656 4.918 C-3.168 3.195 -1.648 1.57 0 0 Z " fill="#D71A03" transform="translate(55,86)"/>
<path d="M0 0 C0.99 0.33 1.98 0.66 3 1 C3.723 7.869 3.723 7.869 1.664 11.09 C0.17 12.805 -1.353 14.432 -3 16 C-4.98 15.34 -6.96 14.68 -9 14 C-9.124 13.237 -9.248 12.474 -9.375 11.688 C-10 9 -10 9 -12 6 C-15 7 -15 7 -15.949 8.848 C-16.193 9.579 -16.436 10.309 -16.688 11.062 C-16.939 11.796 -17.19 12.529 -17.449 13.285 C-17.631 13.851 -17.813 14.417 -18 15 C-18.33 15 -18.66 15 -19 15 C-19.61 7.797 -19.61 7.797 -16.75 4.062 C-12.795 1.096 -12.795 1.096 -10 1 C-7.64 3.36 -7.509 4.779 -7 8 C-6.34 7.67 -5.68 7.34 -5 7 C-4.67 8.65 -4.34 10.3 -4 12 C-1.497 9.062 -0.531 6.821 0 3 C-0.66 2.67 -1.32 2.34 -2 2 C-1.34 1.34 -0.68 0.68 0 0 Z " fill="#D21C06" transform="translate(99,109)"/>
<path d="M0 0 C2.336 2.336 2.714 3.93 3.688 7.062 C6.231 14.242 10.02 20.508 16.688 24.5 C25.762 28.609 35.155 27.965 44.438 24.688 C47.847 23.372 51.051 21.973 54.285 20.27 C54.733 20.06 54.733 20.06 57 19 C57.66 19.33 58.32 19.66 59 20 C33.828 33.239 33.828 33.239 20.297 29.191 C10.514 24.855 5.053 17.12 0.812 7.578 C-0.031 4.901 -0.16 2.788 0 0 Z " fill="#B31E15" transform="translate(33,144)"/>
<path d="M0 0 C1.32 0.33 2.64 0.66 4 1 C3.526 1.392 3.051 1.784 2.562 2.188 C0.648 4.408 0.387 6.134 0 9 C-0.66 9 -1.32 9 -2 9 C-2.413 9.907 -2.825 10.815 -3.25 11.75 C-5 15 -5 15 -7.125 17 C-9.528 19.564 -9.688 21.563 -10 25 C-9.01 24.67 -8.02 24.34 -7 24 C-6 27 -6 27 -6.938 29.188 C-7.113 29.487 -7.113 29.487 -8 31 C-8.99 30.34 -9.98 29.68 -11 29 C-11.293 26.617 -11.293 26.617 -11.188 23.875 C-11.16 22.965 -11.133 22.055 -11.105 21.117 C-11.071 20.419 -11.036 19.72 -11 19 C-11.66 19 -12.32 19 -13 19 C-11.754 13.046 -9.613 9.849 -5.375 5.562 C-5.117 5.292 -5.117 5.292 -3.812 3.924 C-2.552 2.605 -1.278 1.301 0 0 Z " fill="#FD7E5F" transform="translate(55,68)"/>
<path d="M0 0 C2.5 0.312 2.5 0.312 5 1 C5.33 1.66 5.66 2.32 6 3 C5.34 3 4.68 3 4 3 C4 3.66 4 4.32 4 5 C4.66 5 5.32 5 6 5 C6 5.66 6 6.32 6 7 C12.715 8.727 18.83 9.317 25.75 9.25 C26.736 9.246 27.721 9.242 28.737 9.238 C38.887 9.122 48.923 8.165 59 7 C59 7.66 59 8.32 59 9 C54.05 9.33 49.1 9.66 44 10 C44 10.66 44 11.32 44 12 C10.394 12.62 10.394 12.62 1.285 6.414 C-0.304 4.665 -0.698 3.327 -1 1 C-0.67 0.67 -0.34 0.34 0 0 Z " fill="#F6E7CE" transform="translate(41,167)"/>
<path d="M0 0 C0.66 0 1.32 0 2 0 C2.062 0.402 2.062 0.402 2.375 2.438 C2.581 3.283 2.788 4.129 3 5 C3.66 5.33 4.32 5.66 5 6 C5.66 4.35 6.32 2.7 7 1 C7.33 1 7.66 1 8 1 C8.336 6.72 8.248 10.128 5 15 C4.179 17.647 3.597 20.289 3 23 C1.68 22.67 0.36 22.34 -1 22 C-1.027 19.271 -1.047 16.542 -1.062 13.812 C-1.071 13.044 -1.079 12.275 -1.088 11.482 C-1.105 7.515 -0.986 3.874 0 0 Z " fill="#F83E26" transform="translate(25,89)"/>
<path d="M0 0 C2 -0.043 4 -0.041 6 0 C7 1 7 1 7.02 2.926 C6.686 6.776 6.426 9.361 4.25 12.625 C2 14 2 14 -0.75 13.75 C-1.493 13.502 -2.235 13.255 -3 13 C-4.403 9.811 -3.904 8.747 -2.625 5.375 C-1.76 3.578 -0.892 1.783 0 0 Z " fill="#DC2407" transform="translate(77,80)"/>
<path d="M0 0 C0.33 0 0.66 0 1 0 C0.582 11.075 -5.624 19.044 -12.754 27.102 C-15.232 29.196 -16.811 29.675 -20 30 C-19.578 24.764 -18.043 22.383 -14.438 18.625 C-14.024 18.188 -14.024 18.188 -11.934 15.977 C-11.296 15.324 -10.657 14.672 -10 14 C-10 14.99 -10 15.98 -10 17 C-9.34 17 -8.68 17 -8 17 C-6.852 14.73 -5.706 12.459 -4.562 10.188 C-4.237 9.545 -3.912 8.902 -3.576 8.24 C-2.208 5.517 -0.965 2.896 0 0 Z " fill="#D7352A" transform="translate(135,117)"/>
<path d="M0 0 C0.33 0 0.66 0 1 0 C1.33 3.3 1.66 6.6 2 10 C2.66 10 3.32 10 4 10 C4.66 9.34 5.32 8.68 6 8 C6.66 10.31 7.32 12.62 8 15 C10.25 15.312 10.25 15.312 13 15 C15.188 12.5 15.188 12.5 17 10 C17.66 10 18.32 10 19 10 C22.44 8.975 24.995 8.003 28 6 C27.401 9.352 26.472 11.613 24 14 C23.072 13.979 22.144 13.959 21.188 13.938 C17.649 14.007 17.322 14.295 14.875 16.562 C13.926 17.367 12.977 18.171 12 19 C8.766 18.683 6.438 17.185 3.75 15.438 C3.044 14.982 2.337 14.527 1.609 14.059 C1.078 13.709 0.547 13.36 0 13 C-0.33 13.66 -0.66 14.32 -1 15 C-0.67 10.05 -0.34 5.1 0 0 Z " fill="#F65430" transform="translate(43,87)"/>
<path d="M0 0 C0.289 1.072 0.578 2.145 0.875 3.25 C2 7 2 7 3.188 9.25 C4 11 4 11 3 14 C1.68 13.67 0.36 13.34 -1 13 C-1.33 14.65 -1.66 16.3 -2 18 C-2.99 17.67 -3.98 17.34 -5 17 C-6.741 13.518 -6.592 9.799 -6 6 C-2.629 0 -2.629 0 0 0 Z " fill="#86A609" transform="translate(92,36)"/>
<path d="M0 0 C0.33 0 0.66 0 1 0 C0.764 1.924 0.525 3.848 0.273 5.77 C0.03 7.758 -0.146 9.754 -0.312 11.75 C-1.12 15.567 -1.839 16.754 -5 19 C-8.75 20.25 -8.75 20.25 -12 21 C-12 17.7 -12 14.4 -12 11 C-11.093 11.124 -10.185 11.248 -9.25 11.375 C-6 11 -6 11 -3.75 8.312 C-2.301 5.569 -1.031 2.923 0 0 Z " fill="#FB6743" transform="translate(72,78)"/>
<path d="M0 0 C2.191 0.09 4.378 0.247 6.562 0.438 C7.76 0.539 8.958 0.641 10.191 0.746 C11.118 0.83 12.045 0.914 13 1 C13.66 3.31 14.32 5.62 15 8 C11.37 8 7.74 8 4 8 C3.67 8.66 3.34 9.32 3 10 C3 9.34 3 8.68 3 8 C1.68 7.34 0.36 6.68 -1 6 C-1.043 4.334 -1.041 2.666 -1 1 C-0.67 0.67 -0.34 0.34 0 0 Z " fill="#7C931C" transform="translate(53,46)"/>
<path d="M0 0 C2.463 3.695 2.39 5.633 2 10 C0.812 11.938 0.812 11.938 -1 13 C-3.625 13.25 -3.625 13.25 -6 13 C-7 12 -7 12 -7.188 8.688 C-7.018 5.349 -6.864 3.692 -5 1 C-3 0 -3 0 0 0 Z " fill="#C00E04" transform="translate(56,146)"/>
<path d="M0 0 C0.512 4.22 -0.568 7.007 -2.715 10.547 C-4 12 -4 12 -7.188 13 C-8.116 13 -9.044 13 -10 13 C-11 12 -11 12 -11.438 9.25 C-10.96 5.706 -10.711 5.346 -8.125 3.188 C-3.571 0 -3.571 0 0 0 Z " fill="#E12C06" transform="translate(66,66)"/>
<path d="M0 0 C0.66 0 1.32 0 2 0 C3.82 4.005 4.387 7.66 5 12 C5.548 14.971 6.169 17.923 6.812 20.875 C6.899 21.271 6.899 21.271 7.335 23.275 C8.615 28.9 10.491 33.797 13 39 C12.67 39.66 12.34 40.32 12 41 C8.478 36.263 6.657 31.649 5 26 C4.34 26.33 3.68 26.66 3 27 C3.062 25.762 3.124 24.525 3.188 23.25 C3.211 18.194 2.054 13.73 0.656 8.895 C-0.036 5.84 -0.111 3.121 0 0 Z " fill="#EB3626" transform="translate(29,120)"/>
<path d="M0 0 C0.66 0.33 1.32 0.66 2 1 C2.402 12.31 2.402 12.31 0 17 C-2.921 19.247 -4.296 20 -8 20 C-7.188 18.062 -7.188 18.062 -6 16 C-5.01 15.67 -4.02 15.34 -3 15 C-3 14.34 -3 13.68 -3 13 C-4.32 12.67 -5.64 12.34 -7 12 C-6.67 9.69 -6.34 7.38 -6 5 C-5.01 4.67 -4.02 4.34 -3 4 C-3.66 5.98 -4.32 7.96 -5 10 C-0.125 6.375 -0.125 6.375 1 3 C0.01 3 -0.98 3 -2 3 C-2 2.34 -2 1.68 -2 1 C-1.34 0.67 -0.68 0.34 0 0 Z " fill="#BF1407" transform="translate(93,140)"/>
<path d="M0 0 C2.625 0.375 2.625 0.375 5 1 C5.33 3.64 5.66 6.28 6 9 C7.32 9.33 8.64 9.66 10 10 C8.188 11.062 8.188 11.062 6 12 C5.01 11.67 4.02 11.34 3 11 C3.33 10.34 3.66 9.68 4 9 C3.443 9.516 2.886 10.031 2.312 10.562 C0 12 0 12 -2.75 11.688 C-3.493 11.461 -4.235 11.234 -5 11 C-4.549 9.539 -4.089 8.082 -3.625 6.625 C-3.37 5.813 -3.115 5.001 -2.852 4.164 C-2 2 -2 2 0 0 Z " fill="#C51106" transform="translate(85,114)"/>
<path d="M0 0 C0.33 0 0.66 0 1 0 C1.33 1.65 1.66 3.3 2 5 C2.99 5 3.98 5 5 5 C5.392 6.072 5.784 7.145 6.188 8.25 C7.779 11.925 9.512 13.891 13 16 C16.312 16.75 16.312 16.75 19 17 C18.01 17.99 17.02 18.98 16 20 C15.01 19.361 14.02 18.721 13 18.062 C6.544 14.753 -0.901 15.172 -8 15 C-8 14.67 -8 14.34 -8 14 C-4.37 14 -0.74 14 3 14 C2.67 12.68 2.34 11.36 2 10 C1.01 9.67 0.02 9.34 -1 9 C-0.34 9 0.32 9 1 9 C0.67 8.34 0.34 7.68 0 7 C-0.04 4.667 -0.043 2.333 0 0 Z " fill="#5B5C03" transform="translate(65,40)"/>
<path d="M0 0 C1.938 0.375 1.938 0.375 4 1 C5.591 4.182 5.396 7.536 5 11 C3.75 13.062 3.75 13.062 2 14 C-0.188 13.688 -0.188 13.688 -2 13 C-3.199 7.551 -2.914 4.778 0 0 Z " fill="#CB1605" transform="translate(108,92)"/>
<path d="M0 0 C-2.609 1.74 -5.133 3.117 -7.938 4.5 C-8.365 4.711 -8.365 4.711 -10.527 5.781 C-12.06 6.537 -13.613 7.253 -15.191 7.906 C-17.488 9.295 -17.937 10.566 -19 13 C-19.945 14.364 -20.904 15.717 -21.875 17.062 C-25.265 22.048 -27.183 27.282 -29 33 C-29.66 33 -30.32 33 -31 33 C-30.587 23.706 -25.177 15.501 -19.004 8.789 C-13.637 3.998 -7.261 -0.191 0 0 Z " fill="#CE2A1E" transform="translate(57,56)"/>
<path d="M0 0 C2.102 0.426 2.102 0.426 4 1 C4.268 2.196 4.536 3.392 4.812 4.625 C5.512 7.503 6.254 9.47 7.688 12.125 C9.263 15.576 8.946 17.389 8 21 C4.7 20.67 1.4 20.34 -2 20 C-1.34 19.34 -0.68 18.68 0 18 C0.625 15.875 0.625 15.875 1 14 C2.32 14 3.64 14 5 14 C4.856 13.567 4.856 13.567 4.125 11.375 C3.083 8.25 2.042 5.125 1 2 C0.691 2.413 0.691 2.413 -0.875 4.5 C-1.576 5.325 -2.278 6.15 -3 7 C-3.66 7 -4.32 7 -5 7 C-3.725 4.156 -2.549 1.862 0 0 Z " fill="#628312" transform="translate(90,35)"/>
<path d="M0 0 C3.243 0.559 4.931 1.413 7 4 C7 4.66 7 5.32 7 6 C7.99 6.33 8.98 6.66 10 7 C10 7.99 10 8.98 10 10 C11.65 10.33 13.3 10.66 15 11 C15 11.66 15 12.32 15 13 C16.32 12.67 17.64 12.34 19 12 C19.33 10.35 19.66 8.7 20 7 C21.875 7.312 21.875 7.312 24 8 C24.33 8.495 24.33 8.495 26 11 C25.67 11.165 25.67 11.165 24 12 C23.34 11.34 22.68 10.68 22 10 C21.756 10.634 21.513 11.268 21.262 11.922 C20 14 20 14 18.082 14.891 C15.519 15.296 13.564 15.462 11 15 C8.083 12.741 6.113 10 4 7 C3.196 6.051 2.391 5.103 1.562 4.125 C0 2 0 2 0 0 Z " fill="#D01706" transform="translate(103,77)"/>
<path d="M0 0 C1.882 0.722 3.733 1.529 5.562 2.375 C10.852 4.651 15.268 5.869 21 6 C21.859 6.027 22.717 6.054 23.602 6.082 C27.86 6.151 31.854 6.106 36 5 C36 5.66 36 6.32 36 7 C30.998 8.45 25.983 8.224 20.812 8.25 C19.809 8.271 18.805 8.291 17.771 8.312 C11.289 8.346 5.994 7.498 0 5 C0 4.34 0 3.68 0 3 C-0.66 3 -1.32 3 -2 3 C-2 2.34 -2 1.68 -2 1 C-1.34 0.67 -0.68 0.34 0 0 Z " fill="#E3C9A4" transform="translate(47,169)"/>
<path d="M0 0 C0.33 0.66 0.66 1.32 1 2 C2.313 2.707 3.653 3.362 5 4 C5.567 4.33 5.567 4.33 8.438 6 C11.213 7.603 13.98 8.902 17 10 C16.67 10.99 16.34 11.98 16 13 C14.062 13.75 14.062 13.75 12 14 C11.34 13.67 10.68 13.34 10 13 C10 12.34 10 11.68 10 11 C9.374 10.853 8.747 10.706 8.102 10.555 C5.596 9.867 3.331 9.153 1 8 C-0.625 4.938 -0.625 4.938 -1 2 C-0.67 1.34 -0.34 0.68 0 0 Z " fill="#678420" transform="translate(126,73)"/>
<path d="M0 0 C0.33 0.66 0.66 1.32 1 2 C1.99 1.67 2.98 1.34 4 1 C4 1.66 4 2.32 4 3 C5.65 3.33 7.3 3.66 9 4 C9 4.66 9 5.32 9 6 C10.65 6 12.3 6 14 6 C13.67 5.01 13.34 4.02 13 3 C14.268 2.494 15.54 1.995 16.812 1.5 C17.52 1.222 18.228 0.943 18.957 0.656 C21 0 21 0 24 0 C23.938 1.812 23.938 1.812 23 4 C16.909 7.876 10.041 7.733 3 7 C2.01 6.34 1.02 5.68 0 5 C-0.188 2.375 -0.188 2.375 0 0 Z " fill="#776F04" transform="translate(79,64)"/>
<path d="M0 0 C2.625 0.375 2.625 0.375 5 1 C5 1.66 5 2.32 5 3 C3.426 4.551 3.426 4.551 1.312 6.312 C-1.198 8.436 -3.608 10.555 -5.875 12.938 C-8 15 -8 15 -10 15 C-9.478 10.899 -8.365 8.825 -5.562 5.812 C-4.945 5.138 -4.328 4.464 -3.691 3.77 C-2.476 2.498 -1.244 1.244 0 0 Z " fill="#8DAA18" transform="translate(112,44)"/>
<path d="M0 0 C0.33 0.99 0.66 1.98 1 3 C2.32 3 3.64 3 5 3 C6.922 4.969 6.922 4.969 8.75 7.5 C9.364 8.335 9.977 9.171 10.609 10.031 C11.068 10.681 11.527 11.331 12 12 C11.67 12.66 11.34 13.32 11 14 C10.765 13.717 10.765 13.717 9.574 12.285 C8.952 11.552 8.329 10.818 7.688 10.062 C7.073 9.332 6.458 8.601 5.824 7.848 C4 6 4 6 1 5 C1 6.65 1 8.3 1 10 C-2.288 9.421 -3.937 8.452 -6.25 6.062 C-6.771 5.538 -7.292 5.013 -7.828 4.473 C-9 3 -9 3 -9 1 C-3.25 1.875 -3.25 1.875 -1 3 C-0.67 2.01 -0.34 1.02 0 0 Z " fill="#665504" transform="translate(121,78)"/>
<path d="M0 0 C0.928 0.206 1.856 0.412 2.812 0.625 C2.812 1.615 2.812 2.605 2.812 3.625 C-1.872 6.048 -5.46 6.783 -10.75 6.812 C-11.906 6.827 -13.063 6.841 -14.254 6.855 C-17.188 6.625 -17.188 6.625 -19.188 4.625 C-18.736 4.528 -18.736 4.528 -16.449 4.039 C-15.27 3.779 -14.09 3.518 -12.875 3.25 C-11.703 2.995 -10.531 2.74 -9.324 2.477 C-0.141 -0.017 -0.141 -0.017 0 0 Z " fill="#DC3221" transform="translate(74.1875,165.375)"/>
<path d="M0 0 C0.33 0 0.66 0 1 0 C1.014 0.744 1.028 1.488 1.043 2.254 C1.442 11.387 3.123 19.937 5.184 28.826 C6.431 34.219 7.427 39.493 8 45 C7.34 44.67 6.68 44.34 6 44 C5.235 41.35 4.585 38.753 4 36.062 C3.826 35.282 3.653 34.501 3.474 33.697 C3.131 32.149 2.791 30.601 2.455 29.051 C2.098 27.443 1.704 25.842 1.297 24.246 C-0.64 16.29 -0.17 8.131 0 0 Z " fill="#BB1710" transform="translate(25,98)"/>
<path d="M0 0 C0.33 0 0.66 0 1 0 C1.061 0.603 1.121 1.207 1.184 1.828 C1.267 2.627 1.351 3.427 1.438 4.25 C1.478 4.644 1.478 4.644 1.684 6.641 C1.976 8.824 2.421 10.877 3 13 C3.928 12.814 4.856 12.629 5.812 12.438 C9 12 9 12 12 13 C12.33 12.01 12.66 11.02 13 10 C13.66 10 14.32 10 15 10 C15 11.65 15 13.3 15 15 C15.66 15.33 16.32 15.66 17 16 C16.34 16.66 15.68 17.32 15 18 C12.707 17.691 12.707 17.691 10 17 C9.117 16.823 8.234 16.647 7.324 16.465 C6.104 16.221 6.104 16.221 0 15 C0.66 14.67 1.32 14.34 2 14 C0.68 12.02 -0.64 10.04 -2 8 C-1.34 8 -0.68 8 0 8 C0 5.36 0 2.72 0 0 Z " fill="#4C6908" transform="translate(85,42)"/>
<path d="M0 0 C0.66 0 1.32 0 2 0 C1.845 0.351 1.845 0.351 1.062 2.125 C-0.033 5.089 -0.564 7.877 -1 11 C-0.34 10.67 0.32 10.34 1 10 C1.407 7.678 1.744 5.343 2 3 C4.33 6.641 4.309 9.752 4 14 C3.67 14.495 3.67 14.495 2 17 C0.063 16.625 0.063 16.625 -2 16 C-3.722 12.556 -3.377 8.773 -3 5 C-1.625 1.938 -1.625 1.938 0 0 Z " fill="#D13003" transform="translate(35,98)"/>
<path d="M0 0 C0.66 0.165 0.66 0.165 4 1 C4 1.66 4 2.32 4 3 C4.804 3.309 5.609 3.619 6.438 3.938 C9 5 9 5 10 6 C10.072 7.686 10.084 9.375 10.062 11.062 C10.053 11.982 10.044 12.901 10.035 13.848 C10.024 14.558 10.012 15.268 10 16 C9.01 16.33 8.02 16.66 7 17 C6.732 17.639 6.464 18.279 6.188 18.938 C5 21 5 21 1.875 22.25 C0.926 22.498 -0.022 22.745 -1 23 C-1 22.34 -1 21.68 -1 21 C-0.051 20.381 0.897 19.763 1.875 19.125 C6.029 16.3 6.029 16.3 7 13 C7.125 9.75 7.125 9.75 7 7 C6.01 6.835 6.01 6.835 1 6 C0.67 4.02 0.34 2.04 0 0 Z " fill="#F94E23" transform="translate(76,74)"/>
<path d="M0 0 C0.66 0.33 1.32 0.66 2 1 C3.005 4.015 3.103 6.042 3.062 9.188 C3.053 10.089 3.044 10.99 3.035 11.918 C3.024 12.605 3.012 13.292 3 14 C1.68 14 0.36 14 -1 14 C-3.33 10.36 -3.386 7.249 -3 3 C-1.5 1.062 -1.5 1.062 0 0 Z " fill="#C41701" transform="translate(41,126)"/>
<path d="M0 0 C1.875 1.312 1.875 1.312 3.875 4.312 C4.133 7.007 3.964 9.598 3.875 12.312 C3.545 11.653 3.215 10.993 2.875 10.312 C2.112 10.044 1.349 9.776 0.562 9.5 C-2.751 8.036 -4.117 6.287 -6.125 3.312 C-6.125 2.653 -6.125 1.993 -6.125 1.312 C-2.716 -0.879 -2.716 -0.879 0 0 Z " fill="#90AF08" transform="translate(117.125,70.6875)"/>
<path d="M0 0 C0.66 0 1.32 0 2 0 C3.349 4.046 3.556 7.769 3 12 C1.25 14.625 1.25 14.625 -1 16 C-3.25 15.75 -3.25 15.75 -5 15 C-5 12.36 -5 9.72 -5 7 C-4.34 6.67 -3.68 6.34 -3 6 C-3 7.98 -3 9.96 -3 12 C-2.34 12 -1.68 12 -1 12 C-0.34 9.36 0.32 6.72 1 4 C0.01 4.33 -0.98 4.66 -2 5 C-1.125 1.125 -1.125 1.125 0 0 Z " fill="#D81C01" transform="translate(63,114)"/>
<path d="M0 0 C0.99 0 1.98 0 3 0 C3.33 2.31 3.66 4.62 4 7 C1.48 7.504 -1.04 8.008 -3.562 8.5 C-5.727 8.944 -7.862 9.446 -10 10 C-9.67 9.01 -9.34 8.02 -9 7 C-9.66 7 -10.32 7 -11 7 C-10.67 5.68 -10.34 4.36 -10 3 C-9.67 3.495 -9.67 3.495 -8 6 C-7.402 5.691 -6.804 5.381 -6.188 5.062 C-4 4 -4 4 -1 3 C-0.67 2.01 -0.34 1.02 0 0 Z " fill="#CC270F" transform="translate(76,158)"/>
<path d="M0 0 C1.32 0.66 2.64 1.32 4 2 C4 4.31 4 6.62 4 9 C3.34 9 2.68 9 2 9 C2 7.35 2 5.7 2 4 C-0.5 5.625 -0.5 5.625 -3 8 C-3.312 11.25 -3.312 11.25 -3 14 C-3.99 13.67 -4.98 13.34 -6 13 C-6.723 5.89 -6.723 5.89 -4.664 3.355 C-3 2 -3 2 0 0 Z " fill="#AE0902" transform="translate(73,138)"/>
<path d="M0 0 C0.516 0.268 1.031 0.536 1.562 0.812 C4.664 2.323 7.823 3.656 11 5 C11 5.66 11 6.32 11 7 C10.34 7 9.68 7 9 7 C8.67 7.66 8.34 8.32 8 9 C2.474 7.808 -0.178 6.401 -4 2 C-2.68 2 -1.36 2 0 2 C0 1.34 0 0.68 0 0 Z " fill="#698B03" transform="translate(76,49)"/>
<path d="M0 0 C1.32 0 2.64 0 4 0 C3.67 2.31 3.34 4.62 3 7 C3.598 6.505 4.196 6.01 4.812 5.5 C7 4 7 4 10 4 C9.67 4.99 9.34 5.98 9 7 C5.438 8.188 5.438 8.188 2 9 C2 8.34 2 7.68 2 7 C0.35 7.33 -1.3 7.66 -3 8 C-2.25 2.25 -2.25 2.25 0 0 Z " fill="#90A40E" transform="translate(83,58)"/>
<path d="M0 0 C0.33 0.33 0.66 0.66 1 1 C2.347 1.231 3.704 1.412 5.062 1.562 C6.362 1.707 7.661 1.851 9 2 C8.67 2.66 8.34 3.32 8 4 C5.059 4.414 5.059 4.414 1.438 4.625 C0.24 4.7 -0.958 4.775 -2.191 4.852 C-2.655 4.876 -2.655 4.876 -5 5 C-5 4.34 -5 3.68 -5 3 C-5.99 2.835 -5.99 2.835 -11 2 C-10.67 1.34 -10.34 0.68 -10 0 C-2.588 -1.294 -2.588 -1.294 0 0 Z " fill="#82A30D" transform="translate(123,62)"/>
<path d="M0 0 C0.99 0.66 1.98 1.32 3 2 C3 2.66 3 3.32 3 4 C4.32 4 5.64 4 7 4 C6.67 7.3 6.34 10.6 6 14 C4.667 14 3.333 14 2 14 C1.879 13.374 1.758 12.747 1.633 12.102 C1.465 11.284 1.298 10.467 1.125 9.625 C0.963 8.813 0.8 8.001 0.633 7.164 C0 5 0 5 -2 3 C-1.34 3 -0.68 3 0 3 C0 2.01 0 1.02 0 0 Z " fill="#E72409" transform="translate(111,88)"/>
<path d="M0 0 C16.893 -0.738 16.893 -0.738 24 4 C23.67 5.65 23.34 7.3 23 9 C22.807 8.355 22.613 7.711 22.414 7.047 C21 5 21 5 17.961 4.391 C16.778 4.344 15.594 4.298 14.375 4.25 C13.186 4.193 11.998 4.137 10.773 4.078 C9.858 4.052 8.943 4.027 8 4 C8.33 3.34 8.66 2.68 9 2 C6.03 1.67 3.06 1.34 0 1 C0 0.67 0 0.34 0 0 Z " fill="#B31D03" transform="translate(57,55)"/>
<path d="M0 0 C1.32 0 2.64 0 4 0 C4.165 0.701 4.33 1.403 4.5 2.125 C7.164 7.23 12.304 9.869 17 13 C17.33 11.02 17.66 9.04 18 7 C18.33 7 18.66 7 19 7 C19 9.64 19 12.28 19 15 C13.119 14.287 8.585 11.71 4.625 7.438 C3 5 3 5 2 2 C0.055 4.918 -0.453 6.625 -1 10 C-1.33 10 -1.66 10 -2 10 C-2.25 3.375 -2.25 3.375 0 0 Z " fill="#758C34" transform="translate(66,35)"/>
<path d="M0 0 C0.33 0 0.66 0 1 0 C0.612 10.276 -4.801 18.126 -11.484 25.637 C-13 27 -13 27 -15 27 C-13.592 23.899 -11.877 21.535 -9.688 18.938 C-5.15 13.225 -2.298 6.894 0 0 Z " fill="#B61C18" transform="translate(135,117)"/>
<path d="M0 0 C0.66 0.66 1.32 1.32 2 2 C1.688 4.75 1.688 4.75 1 8 C0.814 9.114 0.629 10.227 0.438 11.375 C0.365 11.808 0.365 11.808 0 14 C0.99 13.67 1.98 13.34 3 13 C4 16 4 16 3.062 18.188 C2.887 18.487 2.887 18.487 2 20 C1.01 19.34 0.02 18.68 -1 18 C-1.293 15.617 -1.293 15.617 -1.188 12.875 C-1.16 11.965 -1.133 11.055 -1.105 10.117 C-1.071 9.419 -1.036 8.72 -1 8 C-1.66 8 -2.32 8 -3 8 C-1.125 1.125 -1.125 1.125 0 0 Z " fill="#FC6D4A" transform="translate(45,79)"/>
<path d="M0 0 C0.33 0.66 0.66 1.32 1 2 C0.67 2.66 0.34 3.32 0 4 C0.66 4.33 1.32 4.66 2 5 C1.67 5.66 1.34 6.32 1 7 C2.32 7.66 3.64 8.32 5 9 C2.03 9 -0.94 9 -4 9 C-4.33 9.99 -4.66 10.98 -5 12 C-6.65 12 -8.3 12 -10 12 C-9.505 11.588 -9.01 11.175 -8.5 10.75 C-7 9 -7 9 -7 5 C-6.402 4.732 -5.804 4.464 -5.188 4.188 C-3.028 3.015 -1.642 1.806 0 0 Z " fill="#3F5201" transform="translate(109,58)"/>
<path d="M0 0 C0.66 0.33 1.32 0.66 2 1 C2 1.66 2 2.32 2 3 C2.66 3 3.32 3 4 3 C4.201 6.716 4.152 7.772 2 11 C1.34 11 0.68 11 0 11 C-0.33 9.35 -0.66 7.7 -1 6 C-1.33 8.31 -1.66 10.62 -2 13 C-2.66 12.34 -3.32 11.68 -4 11 C-3.745 6.415 -3.14 3.413 0 0 Z " fill="#DB1A08" transform="translate(60,115)"/>
<path d="M0 0 C0.901 0.018 1.802 0.036 2.73 0.055 C3.418 0.078 4.105 0.101 4.812 0.125 C4.5 2 4.5 2 3.812 4.125 C2.823 4.785 1.832 5.445 0.812 6.125 C0.483 6.62 0.483 6.62 -1.188 9.125 C-1.517 6.815 -1.847 4.505 -2.188 2.125 C-2.548 2.29 -2.548 2.29 -4.375 3.125 C-7.204 4.131 -9.216 4.295 -12.188 4.125 C-11.888 3.981 -11.888 3.981 -10.375 3.25 C-3.861 -0.1 -3.861 -0.1 0 0 Z " fill="#F9542D" transform="translate(68.1875,63.875)"/>
<path d="M0 0 C0.75 3.25 0.75 3.25 1 7 C-0.688 9.5 -0.688 9.5 -3 11 C-5.25 10.75 -5.25 10.75 -7 10 C-6.67 9.67 -6.34 9.34 -6 9 C-6.031 8.618 -6.031 8.618 -6.188 6.688 C-6 4 -6 4 -4.125 1.688 C-2 0 -2 0 0 0 Z " fill="#B92004" transform="translate(75,142)"/>
<path d="M0 0 C1.889 3.239 2.658 6.471 3.438 10.098 C4 12 4 12 6 15 C5.01 15 4.02 15 3 15 C2.34 13.68 1.68 12.36 1 11 C0.34 12.98 -0.32 14.96 -1 17 C-3 14 -3 14 -2.75 10.75 C-2.014 7.071 -1.097 3.584 0 0 Z " fill="#F22E18" transform="translate(30,102)"/>
<path d="M0 0 C0.33 0 0.66 0 1 0 C1.124 0.804 1.248 1.609 1.375 2.438 C1.581 3.283 1.787 4.129 2 5 C4.508 6.254 6.07 6.039 8.867 5.922 C9.351 5.909 9.351 5.909 11.801 5.844 C13.843 5.781 15.885 5.703 17.926 5.609 C25.411 5.45 25.411 5.45 28.695 8.516 C29.126 9.335 29.556 10.155 30 11 C29.67 11.66 29.34 12.32 29 13 C27 11.688 27 11.688 25 10 C25 9.01 25 8.02 25 7 C24.19 7.162 23.381 7.325 22.547 7.492 C18.411 8.084 14.42 8.146 10.25 8.125 C9.483 8.129 8.716 8.133 7.926 8.137 C2.253 8.127 2.253 8.127 0 7 C0 4.69 0 2.38 0 0 Z " fill="#B32802" transform="translate(78,64)"/>
<path d="M0 0 C0.33 0 0.66 0 1 0 C1.33 3.3 1.66 6.6 2 10 C2.66 10 3.32 10 4 10 C4.66 9.34 5.32 8.68 6 8 C6.248 9.114 6.495 10.227 6.75 11.375 C8 15 8 15 10.125 16.438 C10.744 16.623 11.362 16.809 12 17 C10.266 17.652 10.266 17.652 8 18 C5.859 17.004 5.859 17.004 3.75 15.562 C3.044 15.089 2.337 14.616 1.609 14.129 C1.078 13.756 0.547 13.384 0 13 C-0.33 13.66 -0.66 14.32 -1 15 C-0.67 10.05 -0.34 5.1 0 0 Z " fill="#F74A27" transform="translate(43,87)"/>
<path d="M0 0 C0.99 0 1.98 0 3 0 C3.66 0.66 4.32 1.32 5 2 C4.875 4.438 4.875 4.438 4 7 C1.938 8.812 1.938 8.812 0 10 C0 9.34 0 8.68 0 8 C-0.99 8 -1.98 8 -3 8 C-2.25 2.25 -2.25 2.25 0 0 Z " fill="#D72F07" transform="translate(43,71)"/>
<path d="M0 0 C2.062 0.438 2.062 0.438 4 1 C3.67 3.31 3.34 5.62 3 8 C2.34 7.01 1.68 6.02 1 5 C-2 6 -2 6 -2.949 7.848 C-3.193 8.579 -3.436 9.309 -3.688 10.062 C-3.939 10.796 -4.19 11.529 -4.449 12.285 C-4.631 12.851 -4.813 13.417 -5 14 C-5.33 14 -5.66 14 -6 14 C-6.615 6.741 -6.615 6.741 -3.562 3.062 C-2.717 2.382 -1.871 1.701 -1 1 C-0.67 0.67 -0.34 0.34 0 0 Z " fill="#BB0A03" transform="translate(86,110)"/>
<path d="M0 0 C0.99 1.32 1.98 2.64 3 4 C2.651 4.471 2.301 4.941 1.941 5.426 C1.486 6.048 1.031 6.671 0.562 7.312 C0.11 7.927 -0.342 8.542 -0.809 9.176 C-2 11 -2 11 -3 14 C-3.66 14 -4.32 14 -5 14 C-5.875 10.938 -5.875 10.938 -6 7 C-4.322 4.326 -2.279 2.173 0 0 Z " fill="#F9462A" transform="translate(40,66)"/>
<path d="M0 0 C0.66 0 1.32 0 2 0 C2 7.59 2 15.18 2 23 C1.01 22.67 0.02 22.34 -1 22 C-1.027 19.271 -1.047 16.542 -1.062 13.812 C-1.071 13.044 -1.079 12.275 -1.088 11.482 C-1.105 7.515 -0.986 3.874 0 0 Z " fill="#D84F45" transform="translate(25,89)"/>
<path d="M0 0 C7.434 -0.335 13.199 -0.139 20 3 C19.67 3.165 19.67 3.165 18 4 C18 4.99 18 5.98 18 7 C14 5 14 5 12.188 3.969 C9.646 2.843 7.514 2.593 4.75 2.375 C3.858 2.3 2.966 2.225 2.047 2.148 C1.709 2.124 1.709 2.124 0 2 C0 1.34 0 0.68 0 0 Z " fill="#DB1A04" transform="translate(81,72)"/>
<path d="M0 0 C6.454 5.438 6.454 5.438 9.25 8.312 C11 10 11 10 14 11 C14 9.35 14 7.7 14 6 C14.99 6.33 15.98 6.66 17 7 C16.34 7 15.68 7 15 7 C15 8.65 15 10.3 15 12 C13.35 12.33 11.7 12.66 10 13 C9.67 12.34 9.34 11.68 9 11 C8.34 10.856 7.68 10.711 7 10.562 C6.34 10.377 5.68 10.191 5 10 C4.67 9.01 4.34 8.02 4 7 C3.34 6.67 2.68 6.34 2 6 C1.273 4.021 0.602 2.02 0 0 Z " fill="#9F1B04" transform="translate(108,77)"/>
<path d="M0 0 C-0.375 2.438 -0.375 2.438 -1 5 C-1.33 5.165 -1.33 5.165 -3 6 C-3 5.01 -3 4.02 -3 3 C-4.875 3.625 -4.875 3.625 -7 5 C-8.25 8.125 -8.25 8.125 -9 11 C-8.01 11 -7.02 11 -6 11 C-6 11.66 -6 12.32 -6 13 C-7.65 13 -9.3 13 -11 13 C-11.351 9.227 -11.306 7.465 -9.188 4.25 C-5.966 0.937 -4.721 0 0 0 Z " fill="#CA1804" transform="translate(49,68)"/>
<path d="M0 0 C3 1 3 1 4 3 C4.04 5 4.043 7 4 9 C3.01 7.68 2.02 6.36 1 5 C0.34 7.64 -0.32 10.28 -1 13 C-0.01 13 0.98 13 2 13 C2 13.66 2 14.32 2 15 C0.35 14.67 -1.3 14.34 -3 14 C-2.588 9.029 -2.204 4.555 0 0 Z " fill="#BA1305" transform="translate(125,101)"/>
<path d="M0 0 C0.66 0 1.32 0 2 0 C1.913 1.439 1.804 2.876 1.688 4.312 C1.629 5.113 1.571 5.914 1.512 6.738 C0.908 9.406 0.171 10.371 -2 12 C-4.687 12.188 -4.687 12.188 -7 12 C-6.812 10.125 -6.812 10.125 -6 8 C-5.175 7.711 -4.35 7.422 -3.5 7.125 C-3.087 6.939 -3.087 6.939 -1 6 C-0.188 2.875 -0.188 2.875 0 0 Z " fill="#CF1A03" transform="translate(58,91)"/>
<path d="M0 0 C5.571 5.143 5.571 5.143 6 9 C3.69 9.33 1.38 9.66 -1 10 C-1.33 7.03 -1.66 4.06 -2 1 C-1.34 0.67 -0.68 0.34 0 0 Z " fill="#6F882B" transform="translate(136,87)"/>
<path d="M0 0 C0.99 0.66 1.98 1.32 3 2 C2.387 4.962 1.746 6.381 0 9 C-0.33 9.66 -0.66 10.32 -1 11 C-1.99 10.67 -2.98 10.34 -4 10 C-3.512 3.945 -3.512 3.945 -3 2 C-2.01 1.34 -1.02 0.68 0 0 Z " fill="#DD4534" transform="translate(134,114)"/>
<path d="M0 0 C1.32 0.33 2.64 0.66 4 1 C3.25 7.75 3.25 7.75 1 10 C0.01 9.67 -0.98 9.34 -2 9 C-2.25 3.375 -2.25 3.375 0 0 Z " fill="#D13907" transform="translate(126,105)"/>
<path d="M0 0 C1.32 0.33 2.64 0.66 4 1 C3 3 3 3 1.062 3.938 C-1 5 -1 5 -3 8 C-3.708 10.321 -4.38 12.654 -5 15 C-5.33 15 -5.66 15 -6 15 C-6.723 8.131 -6.723 8.131 -4.664 4.91 C-3.17 3.195 -1.647 1.568 0 0 Z " fill="#EF3511" transform="translate(55,86)"/>
<path d="M0 0 C-0.312 1.875 -0.312 1.875 -1 4 C-4.435 6.29 -5.985 6.178 -10 6 C-10.33 5.01 -10.66 4.02 -11 3 C-4.5 0 -4.5 0 0 0 Z " fill="#637C03" transform="translate(103,64)"/>
<path d="M0 0 C0.66 0.33 1.32 0.66 2 1 C2.75 4.438 2.75 4.438 3 8 C2.34 8.66 1.68 9.32 1 10 C0.67 8.35 0.34 6.7 0 5 C-0.66 6.65 -1.32 8.3 -2 10 C-2.99 9.67 -3.98 9.34 -5 9 C-5 7.02 -5 5.04 -5 3 C-4.67 3.99 -4.34 4.98 -4 6 C-3.34 6 -2.68 6 -2 6 C-1.856 5.196 -1.711 4.391 -1.562 3.562 C-1 1 -1 1 0 0 Z " fill="#F03011" transform="translate(32,86)"/>
<path d="M0 0 C0.66 0.165 0.66 0.165 4 1 C3.34 1 2.68 1 2 1 C2.495 1.701 2.99 2.403 3.5 3.125 C5.194 6.371 5.252 8.393 5 12 C2.665 9.743 0.813 7.719 -1 5 C-0.625 2.312 -0.625 2.312 0 0 Z " fill="#627D02" transform="translate(105,66)"/>
<path d="M0 0 C0 0.66 0 1.32 0 2 C0.99 2.33 1.98 2.66 3 3 C1.712 3.839 0.419 4.671 -0.875 5.5 C-1.594 5.964 -2.314 6.428 -3.055 6.906 C-5 8 -5 8 -7 8 C-6.659 4.849 -6.419 3.392 -4.062 1.188 C-2 0 -2 0 0 0 Z " fill="#5A7211" transform="translate(120,47)"/>
<path d="M0 0 C3 0.375 3 0.375 4.875 1.562 C6.348 3.935 6.222 5.634 6 8.375 C5.67 8.54 5.67 8.54 4 9.375 C3.34 7.065 2.68 4.755 2 2.375 C0.68 2.375 -0.64 2.375 -2 2.375 C-2 3.035 -2 3.695 -2 4.375 C-1.34 5.035 -0.68 5.695 0 6.375 C-2.867 5.802 -3.861 5.514 -6 3.375 C-4.095 0.834 -3.222 0.403 0 0 Z " fill="#708020" transform="translate(120,39.625)"/>
<path d="M0 0 C0 0.99 0 1.98 0 3 C-2.047 4.57 -2.047 4.57 -4.75 6.125 C-5.632 6.643 -6.513 7.161 -7.422 7.695 C-9.663 8.829 -11.549 9.53 -14 10 C-14 9.34 -14 8.68 -14 8 C-9.38 5.36 -4.76 2.72 0 0 Z " fill="#EDC7AB" transform="translate(105,156)"/>
<path d="M0 0 C2.983 5.114 4.368 11.105 4 17 C2 16 2 16 1.113 13.672 C0.981 13.19 0.981 13.19 0.312 10.75 C0.041 9.796 -0.231 8.842 -0.512 7.859 C-1.02 4.882 -0.786 2.892 0 0 Z " fill="#C42C23" transform="translate(29,126)"/>
<path d="M0 0 C1.32 0.33 2.64 0.66 4 1 C3.67 1.66 3.34 2.32 3 3 C2.34 2.67 1.68 2.34 1 2 C0.67 5.3 0.34 8.6 0 12 C-0.99 12 -1.98 12 -3 12 C-3.348 7.123 -2.417 4.229 0 0 Z " fill="#CC2106" transform="translate(96,87)"/>
<path d="M0 0 C0.402 0.01 0.402 0.01 2.438 0.062 C2.108 0.722 1.778 1.383 1.438 2.062 C5.398 2.392 9.358 2.722 13.438 3.062 C13.438 3.392 13.438 3.722 13.438 4.062 C12.462 4.123 11.486 4.184 10.48 4.246 C9.844 4.288 9.844 4.288 6.625 4.5 C5.36 4.581 4.096 4.662 2.793 4.746 C-0.562 5.062 -0.562 5.062 -3.562 6.062 C-3.605 4.396 -3.603 2.729 -3.562 1.062 C-2.562 0.062 -2.562 0.062 0 0 Z " fill="#EB2C0B" transform="translate(64.5625,55.9375)"/>
<path d="M0 0 C-0.33 2.64 -0.66 5.28 -1 8 C-2.32 8 -3.64 8 -5 8 C-5.366 3.483 -5.366 3.483 -3.625 1.188 C-2 0 -2 0 0 0 Z " fill="#DF6A11" transform="translate(56,149)"/>
<path d="M0 0 C1.32 0.33 2.64 0.66 4 1 C3.003 3.493 2.349 4.775 0.062 6.25 C-2 7 -2 7 -5 7 C-4.188 5.062 -4.188 5.062 -3 3 C-2.01 2.67 -1.02 2.34 0 2 C0 1.34 0 0.68 0 0 Z " fill="#C81F12" transform="translate(90,153)"/>
<path d="M0 0 C0.402 0.01 0.402 0.01 2.438 0.062 C2.108 3.032 1.778 6.002 1.438 9.062 C0.778 9.062 0.118 9.062 -0.562 9.062 C-0.686 7.928 -0.81 6.794 -0.938 5.625 C-1.144 4.449 -1.35 3.274 -1.562 2.062 C-2.222 1.733 -2.882 1.403 -3.562 1.062 C-2.562 0.062 -2.562 0.062 0 0 Z " fill="#DA1806" transform="translate(81.5625,80.9375)"/>
<path d="M0 0 C0.66 0 1.32 0 2 0 C1.75 3.375 1.75 3.375 1 7 C-1.062 8.438 -1.062 8.438 -3 9 C-2.25 2.25 -2.25 2.25 0 0 Z " fill="#ED8F15" transform="translate(85,114)"/>
<path d="M0 0 C1.32 0.66 1.32 0.66 8 4 C8 4.66 8 5.32 8 6 C8.99 6.33 9.98 6.66 11 7 C8 8 8 8 5.957 7.223 C5.249 6.84 4.542 6.457 3.812 6.062 C3.097 5.682 2.382 5.302 1.645 4.91 C1.373 4.76 1.373 4.76 0 4 C0 2.68 0 1.36 0 0 Z " fill="#72960B" transform="translate(126,76)"/>
<path d="M0 0 C0.66 0 1.32 0 2 0 C2.376 3.952 2.095 5.823 0.188 9.375 C-0.534 10.241 -1.256 11.107 -2 12 C-2.99 12 -3.98 12 -5 12 C-5 11.01 -5 10.02 -5 9 C-4.361 8.567 -3.721 8.134 -3.062 7.688 C-1 6 -1 6 -0.25 2.812 C-0.168 1.884 -0.085 0.956 0 0 Z " fill="#EF3A20" transform="translate(46,132)"/>
<path d="M0 0 C0.66 0 1.32 0 2 0 C1.696 3.552 1.024 4.971 -1.312 7.75 C-3.745 9.786 -4.92 10.658 -8 11 C-8 10.01 -8 9.02 -8 8 C-7.402 7.917 -6.804 7.835 -6.188 7.75 C-3.353 6.778 -2.555 5.517 -1 3 C-0.67 2.01 -0.34 1.02 0 0 Z " fill="#F3482B" transform="translate(67,121)"/>
<path d="M0 0 C3.257 0.562 5.038 1.29 7 4 C7.688 7.188 7.688 7.188 8 10 C4.825 7.598 2.142 5.383 0 2 C0 1.34 0 0.68 0 0 Z " fill="#DD1904" transform="translate(103,77)"/>
<path d="M0 0 C0.227 0.639 0.454 1.279 0.688 1.938 C2 4 2 4 4.25 4.812 C7.331 5.023 9.985 4.631 13 4 C11.025 6.672 9.812 7.047 6.5 7.875 C3 8 3 8 1.062 6.875 C-0.304 4.464 -0.221 2.727 0 0 Z " fill="#FD9A78" transform="translate(53,73)"/>
<path d="M0 0 C0.99 0 1.98 0 3 0 C1.375 6.75 1.375 6.75 -2 9 C-3.32 9 -4.64 9 -6 9 C-6 8.34 -6 7.68 -6 7 C-4.35 7 -2.7 7 -1 7 C-1.021 6.031 -1.041 5.061 -1.062 4.062 C-1 1 -1 1 0 0 Z " fill="#D52808" transform="translate(62,70)"/>
<path d="M0 0 C0.33 0 0.66 0 1 0 C1 1.98 1 3.96 1 6 C1.99 6 2.98 6 4 6 C3.67 7.32 3.34 8.64 3 10 C1.68 9.67 0.36 9.34 -1 9 C-1.098 2.848 -1.098 2.848 -1 1 C-0.67 0.67 -0.34 0.34 0 0 Z " fill="#C91E04" transform="translate(59,120)"/>
<path d="M0 0 C0.66 0 1.32 0 2 0 C4.209 3.314 4.225 4.345 4.125 8.188 C4.107 9.089 4.089 9.99 4.07 10.918 C4.059 11.262 4.059 11.262 4 13 C3.67 13.165 3.67 13.165 2 14 C1.34 9.38 0.68 4.76 0 0 Z " fill="#BD0E02" transform="translate(42,125)"/>
<path d="M0 0 C2.5 0.312 2.5 0.312 5 1 C5.33 1.66 5.66 2.32 6 3 C5.34 3 4.68 3 4 3 C4 3.66 4 4.32 4 5 C4.66 5.33 5.32 5.66 6 6 C4.35 6 2.7 6 1 6 C0.34 4.35 -0.32 2.7 -1 1 C-0.67 0.67 -0.34 0.34 0 0 Z " fill="#F6E3CC" transform="translate(41,167)"/>
<path d="M0 0 C-0.492 6.523 -0.492 6.523 -3.062 8.938 C-3.702 9.288 -4.341 9.639 -5 10 C-4.387 3.5 -4.387 3.5 -2.5 1.062 C-1 0 -1 0 0 0 Z " fill="#F3901F" transform="translate(99,112)"/>
<path d="M0 0 C0.33 0.99 0.66 1.98 1 3 C-0.75 5.688 -0.75 5.688 -3 8 C-3.99 8 -4.98 8 -6 8 C-6 7.01 -6 6.02 -6 5 C-6.66 4.67 -7.32 4.34 -8 4 C-7.526 3.856 -7.526 3.856 -5.125 3.125 C-2 2 -2 2 0 0 Z " fill="#FB5B36" transform="translate(70,93)"/>
<path d="M0 0 C0.66 0 1.32 0 2 0 C2 2.64 2 5.28 2 8 C0.68 8 -0.64 8 -2 8 C-1.125 1.125 -1.125 1.125 0 0 Z " fill="#EB6B15" transform="translate(77,84)"/>
<path d="M0 0 C2 2 2 2 2.195 3.945 C2.13 5.964 2.065 7.982 2 10 C1.67 9.34 1.34 8.68 1 8 C-1.062 6.875 -1.062 6.875 -3 6 C-2.67 4.68 -2.34 3.36 -2 2 C-1.34 2 -0.68 2 0 2 C0 1.34 0 0.68 0 0 Z " fill="#7A9804" transform="translate(119,73)"/>
<path d="M0 0 C1.32 0 2.64 0 4 0 C4 1.65 4 3.3 4 5 C2.35 5.33 0.7 5.66 -1 6 C-1.043 4.334 -1.041 2.666 -1 1 C-0.67 0.67 -0.34 0.34 0 0 Z " fill="#99B70D" transform="translate(83,58)"/>
<path d="M0 0 C0.66 0 1.32 0 2 0 C3.158 4.054 2.837 6.218 1 10 C0.01 9.67 -0.98 9.34 -2 9 C-1.34 6.03 -0.68 3.06 0 0 Z " fill="#739801" transform="translate(89,44)"/>
<path d="M0 0 C0.66 0 1.32 0 2 0 C2 2.31 2 4.62 2 7 C0.68 7.33 -0.64 7.66 -2 8 C-1.125 1.125 -1.125 1.125 0 0 Z " fill="#F0790B" transform="translate(109,95)"/>
<path d="M0 0 C0.33 0.99 0.66 1.98 1 3 C-0.978 6.876 -2.197 8.66 -6.25 10.375 C-6.704 10.478 -6.704 10.478 -9 11 C-9 10.34 -9 9.68 -9 9 C-8.072 8.402 -7.144 7.804 -6.188 7.188 C-2.99 4.993 -1.707 3.413 0 0 Z " fill="#F98157" transform="translate(84,86)"/>
<path d="M0 0 C0.33 0 0.66 0 1 0 C0.521 4.714 0.032 8.666 -2 13 C-2.66 13 -3.32 13 -4 13 C-5 10 -5 10 -4.004 7.52 C-3.528 6.626 -3.053 5.733 -2.562 4.812 C-2.089 3.911 -1.616 3.01 -1.129 2.082 C-0.756 1.395 -0.384 0.708 0 0 Z " fill="#FC7149" transform="translate(72,78)"/>
<path d="M0 0 C0 1.65 0 3.3 0 5 C-2.31 5 -4.62 5 -7 5 C-7 4.01 -7 3.02 -7 2 C-4.353 0.539 -3.106 0 0 0 Z " fill="#F03209" transform="translate(66,66)"/>
<path d="M0 0 C0.99 0.33 1.98 0.66 3 1 C0.312 3.252 -1.646 4.882 -5 6 C-5 8.31 -5 10.62 -5 13 C-5.33 13 -5.66 13 -6 13 C-6.714 5.975 -6.714 5.975 -4.77 3.32 C-3.188 1.938 -3.188 1.938 0 0 Z " fill="#C50E07" transform="translate(73,138)"/>
<path d="M0 0 C1.875 0.312 1.875 0.312 4 1 C4.66 1.99 5.32 2.98 6 4 C5.67 4.165 5.67 4.165 4 5 C3.34 4.34 2.68 3.68 2 3 C1.34 4.32 0.68 5.64 0 7 C-1.98 7 -3.96 7 -6 7 C-5.67 6.01 -5.34 5.02 -5 4 C-5 4.66 -5 5.32 -5 6 C-3.68 5.67 -2.36 5.34 -1 5 C-0.67 3.35 -0.34 1.7 0 0 Z " fill="#C0190A" transform="translate(123,84)"/>
<path d="M0 0 C2.25 0.25 2.25 0.25 4 1 C3.763 1.196 3.763 1.196 2.562 2.188 C0.648 4.408 0.387 6.134 0 9 C-1.32 7.35 -2.64 5.7 -4 4 C-2.25 1.938 -2.25 1.938 0 0 Z " fill="#F8724E" transform="translate(55,68)"/>
<path d="M0 0 C0.33 0 0.66 0 1 0 C1.061 0.592 1.121 1.183 1.184 1.793 C2.162 11.021 2.162 11.021 3 14 C3.66 14.33 4.32 14.66 5 15 C3.35 15 1.7 15 0 15 C0.66 14.67 1.32 14.34 2 14 C0.68 12.02 -0.64 10.04 -2 8 C-1.34 8 -0.68 8 0 8 C0 5.36 0 2.72 0 0 Z " fill="#537303" transform="translate(85,42)"/>
<path d="M0 0 C0.99 0.33 1.98 0.66 3 1 C2.25 2.938 2.25 2.938 1 5 C-1.125 5.75 -1.125 5.75 -3 6 C-2.625 3.562 -2.625 3.562 -2 1 C-1.34 0.67 -0.68 0.34 0 0 Z " fill="#CB2214" transform="translate(108,143)"/>
<path d="M0 0 C0.99 0 1.98 0 3 0 C2.25 2.938 2.25 2.938 1 6 C-1.125 6.875 -1.125 6.875 -3 7 C-1.125 2.25 -1.125 2.25 0 0 Z " fill="#D65F09" transform="translate(109,127)"/>
<path d="M0 0 C1.938 0.562 1.938 0.562 4 2 C4.75 5.625 4.75 5.625 5 9 C4.34 8.01 3.68 7.02 3 6 C2.34 6.66 1.68 7.32 1 8 C0.67 5.36 0.34 2.72 0 0 Z " fill="#C7261C" transform="translate(131,93)"/>
<path d="M0 0 C3.053 -0.294 5.957 -0.445 9 0 C11.562 2.5 11.562 2.5 13 5 C12.67 5.66 12.34 6.32 12 7 C10 5.688 10 5.688 8 4 C8 3.01 8 2.02 8 1 C5.36 1 2.72 1 0 1 C0 0.67 0 0.34 0 0 Z " fill="#842202" transform="translate(95,70)"/>
<path d="M0 0 C0.536 0.289 1.073 0.578 1.625 0.875 C4.353 2.167 7.126 3.086 10 4 C10 4.66 10 5.32 10 6 C8.68 6 7.36 6 6 6 C6 5.34 6 4.68 6 4 C5.34 4 4.68 4 4 4 C3.67 4.66 3.34 5.32 3 6 C0 2.25 0 2.25 0 0 Z " fill="#719604" transform="translate(76,49)"/>
<path d="M0 0 C0.33 0 0.66 0 1 0 C1.027 1.458 1.046 2.917 1.062 4.375 C1.074 5.187 1.086 5.999 1.098 6.836 C1 9 1 9 0 11 C-0.66 11 -1.32 11 -2 11 C-1.86 9.354 -1.713 7.708 -1.562 6.062 C-1.481 5.146 -1.4 4.229 -1.316 3.285 C-1 1 -1 1 0 0 Z " fill="#F64C28" transform="translate(32,90)"/>
<path d="M0 0 C0.99 0.33 1.98 0.66 3 1 C3 1.66 3 2.32 3 3 C1.188 4.688 1.188 4.688 -1 6 C-1.99 5.67 -2.98 5.34 -4 5 C-2.25 1.125 -2.25 1.125 0 0 Z " fill="#F43108" transform="translate(71,68)"/>
<path d="M0 0 C1.32 0.33 2.64 0.66 4 1 C3.34 3.64 2.68 6.28 2 9 C1.34 8.67 0.68 8.34 0 8 C0 5.36 0 2.72 0 0 Z " fill="#8CB00A" transform="translate(86,43)"/>
<path d="M0 0 C0.99 0.66 1.98 1.32 3 2 C3 2.99 3 3.98 3 5 C4.32 5.66 5.64 6.32 7 7 C2.25 6.125 2.25 6.125 0 5 C0 4.34 0 3.68 0 3 C-0.66 3 -1.32 3 -2 3 C-2 2.34 -2 1.68 -2 1 C-1.34 0.67 -0.68 0.34 0 0 Z " fill="#EBD0B2" transform="translate(47,169)"/>
<path d="M0 0 C0.66 0 1.32 0 2 0 C1.75 2.375 1.75 2.375 1 5 C-1.062 6.312 -1.062 6.312 -3 7 C-2.25 2.25 -2.25 2.25 0 0 Z " fill="#DF7A17" transform="translate(73,142)"/>
<path d="M0 0 C0.66 0 1.32 0 2 0 C2.201 3.716 2.152 4.772 0 8 C-0.66 8 -1.32 8 -2 8 C-2.201 4.284 -2.152 3.228 0 0 Z " fill="#F08214" transform="translate(62,118)"/>
<path d="M0 0 C0.33 0 0.66 0 1 0 C1.33 1.65 1.66 3.3 2 5 C2.66 4.67 3.32 4.34 4 4 C3.67 6.31 3.34 8.62 3 11 C2.01 11 1.02 11 0 11 C0 7.37 0 3.74 0 0 Z " fill="#D81106" transform="translate(90,112)"/>
<path d="M0 0 C0.66 0 1.32 0 2 0 C1.75 2.375 1.75 2.375 1 5 C-1.062 6.312 -1.062 6.312 -3 7 C-2.25 2.25 -2.25 2.25 0 0 Z " fill="#F68921" transform="translate(43,71)"/>
<path d="M0 0 C0.33 0 0.66 0 1 0 C1.33 1.65 1.66 3.3 2 5 C2.66 5 3.32 5 4 5 C4 6.65 4 8.3 4 10 C2.35 10 0.7 10 -1 10 C-0.34 9.67 0.32 9.34 1 9 C0.67 8.34 0.34 7.68 0 7 C-0.04 4.667 -0.043 2.333 0 0 Z " fill="#5C7C09" transform="translate(65,40)"/>
<path d="M0 0 C0.66 0 1.32 0 2 0 C2 2.64 2 5.28 2 8 C1.01 7.67 0.02 7.34 -1 7 C-0.67 4.69 -0.34 2.38 0 0 Z " fill="#F28F1F" transform="translate(41,130)"/>
<path d="M0 0 C0.66 0 1.32 0 2 0 C0.125 4.875 0.125 4.875 -1 6 C-1.231 7.347 -1.412 8.704 -1.562 10.062 C-1.707 11.362 -1.851 12.661 -2 14 C-2.33 14 -2.66 14 -3 14 C-3.573 4.26 -3.573 4.26 0 0 Z " fill="#DA1705" transform="translate(35,98)"/>
<path d="M0 0 C0.99 0 1.98 0 3 0 C2.67 1.98 2.34 3.96 2 6 C1.01 6.33 0.02 6.66 -1 7 C-0.67 4.69 -0.34 2.38 0 0 Z " fill="#F68730" transform="translate(54,92)"/>
<path d="M0 0 C0 0.99 0 1.98 0 3 C-0.66 3 -1.32 3 -2 3 C-2 5.31 -2 7.62 -2 10 C-2.66 9.67 -3.32 9.34 -4 9 C-3.67 7.35 -3.34 5.7 -3 4 C-3.66 3.67 -4.32 3.34 -5 3 C-5 2.34 -5 1.68 -5 1 C-2 0 -2 0 0 0 Z " fill="#DE2509" transform="translate(60,88)"/>
<path d="M0 0 C0.66 1.32 1.32 2.64 2 4 C0.68 4.99 -0.64 5.98 -2 7 C-2.66 6.67 -3.32 6.34 -4 6 C-2.848 3.532 -1.952 1.952 0 0 Z " fill="#668217" transform="translate(112,52)"/>
<path d="M0 0 C0.66 0 1.32 0 2 0 C1.812 2.375 1.812 2.375 1 5 C-1.562 6.312 -1.562 6.312 -4 7 C-4 6.34 -4 5.68 -4 5 C-3.34 5 -2.68 5 -2 5 C-1.34 3.35 -0.68 1.7 0 0 Z " fill="#DF510D" transform="translate(118,129)"/>
<path d="M0 0 C5.538 0.615 5.538 0.615 7.875 2.562 C8.061 2.8 8.061 2.8 9 4 C8.67 4.66 8.34 5.32 8 6 C7.608 5.526 7.216 5.051 6.812 4.562 C4.592 2.648 2.866 2.387 0 2 C0 1.34 0 0.68 0 0 Z " fill="#678002" transform="translate(112,79)"/>
<path d="M0 0 C0.33 0.66 0.66 1.32 1 2 C0.67 2.66 0.34 3.32 0 4 C0.66 4.33 1.32 4.66 2 5 C1.67 5.66 1.34 6.32 1 7 C0.01 7 -0.98 7 -2 7 C-2 6.34 -2 5.68 -2 5 C-2.66 4.67 -3.32 4.34 -4 4 C-2.68 2.68 -1.36 1.36 0 0 Z " fill="#476504" transform="translate(109,58)"/>
<path d="M0 0 C1.65 0.33 3.3 0.66 5 1 C4.67 1.99 4.34 2.98 4 4 C2.35 3.67 0.7 3.34 -1 3 C-0.67 2.01 -0.34 1.02 0 0 Z " fill="#92AA09" transform="translate(118,41)"/>
<path d="M0 0 C0.66 0 1.32 0 2 0 C2 1.98 2 3.96 2 6 C1.01 6.33 0.02 6.66 -1 7 C-1.043 5 -1.041 3 -1 1 C-0.67 0.67 -0.34 0.34 0 0 Z " fill="#F59314" transform="translate(35,102)"/>
<path d="M0 0 C0.33 0 0.66 0 1 0 C1.365 5.478 1.365 5.478 -0.312 7.875 C-2 9 -2 9 -5 9 C-5 8.34 -5 7.68 -5 7 C-4.01 7 -3.02 7 -2 7 C-1.34 4.69 -0.68 2.38 0 0 Z " fill="#C10C02" transform="translate(112,97)"/>
<path d="M0 0 C0.66 0 1.32 0 2 0 C1.75 2.375 1.75 2.375 1 5 C-1.062 6.312 -1.062 6.312 -3 7 C-1.125 1.125 -1.125 1.125 0 0 Z " fill="#F94D22" transform="translate(70,101)"/>
<path d="M0 0 C0.66 0 1.32 0 2 0 C2.124 0.949 2.248 1.897 2.375 2.875 C3 6 3 6 5 8 C4.34 8.33 4.34 8.33 1 10 C0.67 6.7 0.34 3.4 0 0 Z " fill="#F33410" transform="translate(72,87)"/>
<path d="M0 0 C0.66 0 1.32 0 2 0 C2.188 2.875 2.188 2.875 2 6 C1.505 6.33 1.505 6.33 -1 8 C-1.125 2.25 -1.125 2.25 0 0 Z " fill="#F68E44" transform="translate(97,89)"/>
<path d="M0 0 C0.33 0.66 0.66 1.32 1 2 C2.324 2.685 3.659 3.349 5 4 C6.351 4.976 7.689 5.97 9 7 C5.442 6.39 2.317 5.422 -1 4 C-0.67 2.68 -0.34 1.36 0 0 Z " fill="#768B30" transform="translate(126,73)"/>
<path d="M0 0 C0.33 0.99 0.66 1.98 1 3 C2.32 3 3.64 3 5 3 C4.67 3.99 4.34 4.98 4 6 C2.35 5.67 0.7 5.34 -1 5 C-0.67 3.35 -0.34 1.7 0 0 Z " fill="#D21B04" transform="translate(81,120)"/>
<path d="M0 0 C0.33 0 0.66 0 1 0 C1.125 6.75 1.125 6.75 0 9 C-0.66 9 -1.32 9 -2 9 C-1.125 2.25 -1.125 2.25 0 0 Z " fill="#D33D31" transform="translate(28,80)"/>
<path d="M0 0 C2 2 2 2 2 6 C1.01 6.33 0.02 6.66 -1 7 C-1.625 5.188 -1.625 5.188 -2 3 C-1.34 2.01 -0.68 1.02 0 0 Z " fill="#FA6142" transform="translate(45,79)"/>
<path d="M0 0 C1.65 1.65 3.3 3.3 5 5 C4.34 5.33 4.34 5.33 1 7 C0 6 0 6 -0.062 2.938 C-0.042 1.968 -0.021 0.999 0 0 Z " fill="#749203" transform="translate(110,73)"/>
<path d="M0 0 C0.825 0.33 0.825 0.33 5 2 C3.68 3.65 2.36 5.3 1 7 C0.67 4.69 0.34 2.38 0 0 Z " fill="#F3451C" transform="translate(66,66)"/>
<path d="M0 0 C0.66 0 1.32 0 2 0 C1.75 1.875 1.75 1.875 1 4 C-1.062 5.25 -1.062 5.25 -3 6 C-1.125 1.125 -1.125 1.125 0 0 Z " fill="#DF6B09" transform="translate(91,144)"/>
<path d="M0 0 C0.33 0 0.66 0 1 0 C1 3.3 1 6.6 1 10 C-0.32 10 -1.64 10 -3 10 C-2.67 9.34 -2.34 8.68 -2 8 C-1.34 8 -0.68 8 0 8 C0 5.36 0 2.72 0 0 Z " fill="#CB3004" transform="translate(43,130)"/>
<path d="M0 0 C0.66 0 1.32 0 2 0 C2.33 1.65 2.66 3.3 3 5 C1.35 6.32 -0.3 7.64 -2 9 C-2.33 8.34 -2.66 7.68 -3 7 C-2.752 6.794 -2.752 6.794 -1.5 5.75 C0 4 0 4 0 0 Z " fill="#C51E09" transform="translate(119,128)"/>
<path d="M0 0 C1.601 4.002 0.293 7.046 -1 11 C-1.33 11 -1.66 11 -2 11 C-2.25 3.375 -2.25 3.375 0 0 Z " fill="#CC0905" transform="translate(82,113)"/>
<path d="M0 0 C0.66 0 1.32 0 2 0 C2.33 1.65 2.66 3.3 3 5 C1.35 5 -0.3 5 -2 5 C-1.125 1.125 -1.125 1.125 0 0 Z " fill="#D40C02" transform="translate(63,114)"/>
<path d="M0 0 C0.33 0 0.66 0 1 0 C1.25 6.625 1.25 6.625 -1 10 C-1.99 10 -2.98 10 -4 10 C-4 9.34 -4 8.68 -4 8 C-3.01 7.34 -2.02 6.68 -1 6 C-0.312 2.875 -0.312 2.875 0 0 Z " fill="#C81402" transform="translate(38,105)"/>
<path d="M0 0 C0.99 0.33 1.98 0.66 3 1 C3 1.99 3 2.98 3 4 C1.02 4.33 -0.96 4.66 -3 5 C-3 4.34 -3 3.68 -3 3 C-2.34 3 -1.68 3 -1 3 C-0.67 2.01 -0.34 1.02 0 0 Z " fill="#EA4D0E" transform="translate(58,73)"/>
<path d="M0 0 C2 2 2 2 2 5 C0.35 5 -1.3 5 -3 5 C-2.625 3.062 -2.625 3.062 -2 1 C-1.34 0.67 -0.68 0.34 0 0 Z " fill="#F1F2E7" transform="translate(63,43)"/>
</svg>
