<?xml version="1.0" encoding="UTF-8"?>
<!-- Generator: visioncortex VTracer 0.6.12 -->
<svg version="1.1" xmlns="http://www.w3.org/2000/svg" width="175" height="152">
<path d="M0 0 C57.75 0 115.5 0 175 0 C175 50.16 175 100.32 175 152 C117.25 152 59.5 152 0 152 C0 101.84 0 51.68 0 0 Z " fill="#FCF6E9" transform="translate(0,0)"/>
<path d="M0 0 C17.917 -1.034 17.917 -1.034 23.125 3 C24.883 4.688 24.883 4.688 26 6 C26.33 5.01 26.66 4.02 27 3 C31.75 3.75 31.75 3.75 34 6 C34 6.99 34 7.98 34 9 C34.99 9 35.98 9 37 9 C39.271 14.395 39.204 19.262 39 25 C41.747 24.381 43.524 23.633 45.24 21.351 C46.479 19.243 47.629 17.11 48.75 14.938 C49.535 13.467 50.322 11.997 51.109 10.527 C51.449 9.875 51.789 9.223 52.14 8.551 C53 7 53 7 54 6 C60.72 6.72 60.72 6.72 62 8 C62.34 10.27 62.34 10.27 62 13 C60.066 15.387 60.066 15.387 57.562 17.688 C52.056 22.814 52.056 22.814 51.812 27.938 C51.742 31.35 51.975 31.962 54 35 C54.578 34.175 55.155 33.35 55.75 32.5 C57.833 30.363 58.915 30.011 61.934 29.633 C70.226 29.613 70.226 29.613 73 31 C72.67 32.32 72.34 33.64 72 35 C73.114 35.144 74.228 35.289 75.375 35.438 C79 36 79 36 81 37 C81.33 37.99 81.66 38.98 82 40 C83.624 41.708 85.292 43.376 87 45 C87.66 45.66 88.32 46.32 89 47 C88.875 49.5 88.875 49.5 88 52 C85.102 54.099 83.716 54 80 54 C80.422 54.568 80.843 55.137 81.277 55.723 C84.677 60.514 87 64.04 87 70 C86.34 70.66 85.68 71.32 85 72 C84.745 74.854 84.58 77.641 84.5 80.5 C84.27 88.73 84.27 88.73 82 91 C80.172 90.723 80.172 90.723 78 90 C77.221 89.751 76.443 89.502 75.641 89.246 C74.852 88.979 74.063 88.712 73.25 88.438 C72.451 88.168 71.652 87.899 70.828 87.621 C70.225 87.416 69.622 87.211 69 87 C68.67 87.33 68.34 87.66 68 88 C65.273 88.221 63.536 88.304 61.125 86.938 C57.941 85.533 55.337 86.358 52 87 C52.058 87.606 52.116 88.212 52.176 88.836 C52.558 95.943 51.128 101.155 47 107 C44.438 109.125 44.438 109.125 41 110 C39.041 109.815 37.083 109.627 35.125 109.438 C31.98 109.32 31.98 109.32 29 110 C26.292 112.825 24.518 115.667 22.621 119.082 C20.463 122.966 19.222 124.593 15 126 C11.357 126.26 7.72 126.443 4.072 126.605 C-1.799 126.899 -1.799 126.899 -4 128 C-6.66 128.151 -9.277 128.231 -11.938 128.25 C-12.302 128.26 -12.302 128.26 -14.146 128.312 C-19.537 128.352 -19.537 128.352 -21.848 126.594 C-22.228 126.068 -22.608 125.542 -23 125 C-23.825 124.423 -24.65 123.845 -25.5 123.25 C-29.544 119.61 -31.125 115.367 -31.438 110 C-31.229 104.357 -28.055 100.582 -25 96 C-25.598 95.773 -26.196 95.546 -26.812 95.312 C-29.8 93.52 -30.65 92.24 -32 89 C-32.705 83.909 -32.567 80.134 -30.25 75.5 C-28.196 73.217 -26.859 72.021 -24 71 C-24.33 70.381 -24.66 69.763 -25 69.125 C-26.419 64.69 -26.88 60.603 -26 56 C-24.621 54.184 -24.621 54.184 -22.938 52.562 C-20.684 50.351 -20.008 49.586 -19.965 46.371 C-20.238 44.461 -20.518 42.552 -20.805 40.645 C-21.061 37.177 -20.329 35.373 -18.367 32.566 C-14.849 28.536 -11.838 25.468 -6.562 24.125 C-5.717 24.084 -4.871 24.043 -4 24 C-3.856 23.196 -3.711 22.391 -3.562 21.562 C-3 19 -3 19 -2 18 C-0 17.959 2 17.957 4 18 C3.76 17.745 3.76 17.745 2.543 16.453 C0.483 13.177 0.49 10.592 0.312 6.75 C0.247 5.487 0.181 4.223 0.113 2.922 C0.095 2.44 0.095 2.44 0 0 Z " fill="#CDC412" transform="translate(51,14)"/>
<path d="M0 0 C17.917 -1.034 17.917 -1.034 23.125 3 C24.883 4.687 24.883 4.687 26 6 C26.33 5.01 26.66 4.02 27 3 C31.75 3.75 31.75 3.75 34 6 C34 6.99 34 7.98 34 9 C34.99 9 35.98 9 37 9 C39.271 14.395 39.204 19.262 39 25 C41.747 24.381 43.524 23.633 45.24 21.351 C46.479 19.243 47.629 17.11 48.75 14.938 C49.535 13.467 50.322 11.997 51.109 10.527 C51.279 10.201 51.279 10.201 52.14 8.551 C53 7 53 7 54 6 C60.72 6.72 60.72 6.72 62 8 C62.34 10.27 62.34 10.27 62 13 C60.066 15.387 60.066 15.387 57.562 17.688 C52.056 22.814 52.056 22.814 51.812 27.938 C51.742 31.35 51.975 31.962 54 35 C54.578 34.175 55.155 33.35 55.75 32.5 C57.833 30.363 58.915 30.011 61.934 29.633 C70.226 29.613 70.226 29.613 73 31 C72.67 32.32 72.34 33.64 72 35 C73.114 35.144 74.228 35.289 75.375 35.438 C79 36 79 36 81 37 C81.33 37.99 81.66 38.98 82 40 C83.624 41.708 85.292 43.376 87 45 C87.66 45.66 88.32 46.32 89 47 C88.875 49.5 88.875 49.5 88 52 C85.102 54.099 83.716 54 80 54 C80.422 54.568 80.843 55.137 81.277 55.723 C84.677 60.514 87 64.04 87 70 C86.34 70.66 85.68 71.32 85 72 C84.745 74.854 84.58 77.641 84.5 80.5 C84.27 88.73 84.27 88.73 82 91 C80.172 90.723 80.172 90.723 78 90 C77.221 89.751 76.443 89.502 75.641 89.246 C74.852 88.979 74.063 88.712 73.25 88.438 C72.451 88.168 71.652 87.899 70.828 87.621 C70.225 87.416 69.622 87.211 69 87 C68.67 87.33 68.34 87.66 68 88 C65.562 88.188 65.562 88.188 63 88 C62.34 87.34 61.68 86.68 61 86 C61.211 83.047 62.133 81.843 64.062 79.562 C67.422 74.721 66.8 68.586 66 63 C64.358 58.899 61.954 56.698 58.438 54.125 C53.318 52.45 48.374 52.299 43 52 C43 47.05 43 42.1 43 37 C45.31 37.33 47.62 37.66 50 38 C48.68 35.69 47.36 33.38 46 31 C45.01 32.32 44.02 33.64 43 35 C42.01 34.67 41.02 34.34 40 34 C39.67 33.01 39.34 32.02 39 31 C39.165 30.835 39.165 30.835 40 30 C24.324 27.72 24.324 27.72 17 33 C13.145 33 10.89 30.326 8 28 C4.403 26.248 0.952 25.551 -3 25 C-3.625 22.625 -3.625 22.625 -4 20 C-2 18 -2 18 1.125 17.875 C1.599 17.896 1.599 17.896 4 18 C3.519 17.49 3.038 16.979 2.543 16.453 C0.483 13.177 0.49 10.592 0.312 6.75 C0.28 6.118 0.28 6.118 0.113 2.922 C0.095 2.44 0.095 2.44 0 0 Z " fill="#869C06" transform="translate(51,14)"/>
<path d="M0 0 C-0.33 0.99 -0.66 1.98 -1 3 C-0.835 3.33 -0.835 3.33 0 5 C2 5 2 5 4.125 3 C4.744 2.34 5.362 1.68 6 1 C7.075 3.652 8.095 6.284 9 9 C6.69 8.67 4.38 8.34 2 8 C2.165 8.33 2.165 8.33 3 10 C3.809 16.392 2.848 21.751 -1 27 C-3.645 29.791 -4.968 29.998 -8.891 30.293 C-10.344 30.273 -11.797 30.238 -13.25 30.188 C-13.995 30.174 -14.74 30.16 -15.508 30.146 C-17.339 30.111 -19.17 30.057 -21 30 C-20.192 30.086 -19.384 30.173 -18.551 30.262 C-9.744 31.42 -9.744 31.42 -5.875 34.438 C-1.647 40.216 -1.236 43.934 -2 51 C-3.482 56.28 -6.304 60.205 -10.941 63.156 C-16.101 65.271 -21.237 64.62 -26.375 62.812 C-29.34 60.765 -31.008 59.008 -33 56 C-33.893 50.385 -34.472 43.348 -31.25 38.375 C-26.75 33.625 -26.75 33.625 -25 32 C-25.804 31.093 -26.609 30.185 -27.438 29.25 C-31.043 25.183 -31.467 20.749 -31.414 15.445 C-30.438 9.679 -26.455 5.323 -22.25 1.5 C-15.668 -2.888 -7.509 -0.954 0 0 Z " fill="#DDD21B" transform="translate(92,43)"/>
<path d="M0 0 C0.53 0.024 0.53 0.024 3.215 0.148 C3.747 0.165 3.747 0.165 6.438 0.25 C9.152 0.523 9.152 0.523 11.152 1.523 C10.822 2.843 10.492 4.163 10.152 5.523 C11.266 5.668 12.38 5.812 13.527 5.961 C17.152 6.523 17.152 6.523 19.152 7.523 C19.482 8.513 19.812 9.503 20.152 10.523 C21.777 12.231 23.445 13.899 25.152 15.523 C25.812 16.183 26.472 16.843 27.152 17.523 C27.027 20.023 27.027 20.023 26.152 22.523 C23.254 24.622 21.869 24.523 18.152 24.523 C18.574 25.092 18.995 25.66 19.43 26.246 C22.83 31.038 25.152 34.563 25.152 40.523 C24.492 41.183 23.832 41.843 23.152 42.523 C22.897 45.378 22.732 48.164 22.652 51.023 C22.423 59.253 22.423 59.253 20.152 61.523 C18.324 61.246 18.324 61.246 16.152 60.523 C15.374 60.275 14.595 60.026 13.793 59.77 C13.004 59.503 12.215 59.236 11.402 58.961 C10.603 58.692 9.804 58.422 8.98 58.145 C8.377 57.94 7.774 57.735 7.152 57.523 C6.987 57.688 6.987 57.688 6.152 58.523 C3.715 58.711 3.715 58.711 1.152 58.523 C0.492 57.863 -0.168 57.203 -0.848 56.523 C-0.637 53.57 0.285 52.366 2.215 50.086 C5.554 45.35 4.745 39.029 4.152 33.523 C3.794 32.628 3.436 31.732 3.066 30.809 C2.152 28.523 2.152 28.523 3.152 25.523 C1.5 23.078 1.5 23.078 -0.785 20.398 C-4.848 15.59 -4.848 15.59 -4.848 14.523 C-2.868 14.193 -0.888 13.863 1.152 13.523 C0.162 13.193 -0.828 12.863 -1.848 12.523 C-2.178 11.863 -2.508 11.203 -2.848 10.523 C-3.178 10.688 -3.178 10.688 -4.848 11.523 C-5.724 8.099 -6.107 6.156 -4.746 2.84 C-2.848 0.523 -2.848 0.523 0 0 Z " fill="#89A40D" transform="translate(112.84765625,43.4765625)"/>
<path d="M0 0 C5.916 1.239 10.429 4.192 13.766 9.297 C15.846 14.618 15.89 21.311 13.844 26.656 C11.876 29.754 9.43 31.895 5.961 33.18 C0.532 34.06 -3.548 34.634 -8.164 31.367 C-12.852 26.903 -13.354 20.684 -14.352 14.555 C-14.474 14.125 -14.474 14.125 -15.094 11.953 C-15.446 8.673 -14.515 7.388 -12.602 4.742 C-8.785 0.162 -5.832 -0.527 0 0 Z " fill="#D8CE19" transform="translate(103.3515625,65.4453125)"/>
<path d="M0 0 C2.625 0.25 2.625 0.25 4.438 1.625 C5.625 3.25 5.625 3.25 5.625 5.25 C6.552 5.371 7.479 5.492 8.434 5.617 C9.631 5.785 10.829 5.952 12.062 6.125 C13.257 6.287 14.452 6.45 15.684 6.617 C16.169 6.722 16.169 6.722 18.625 7.25 C20.735 11.47 20.135 16.668 19.625 21.25 C18.034 25.416 15.702 28.265 12.438 31.25 C6.803 33.253 1.592 33.18 -3.812 30.625 C-8.64 26.151 -9.602 22.331 -9.938 15.875 C-9.818 9.361 -7.955 5.766 -3.375 1.25 C-2.375 0.25 -2.375 0.25 0 0 Z " fill="#D2CA11" transform="translate(57.375,101.75)"/>
<path d="M0 0 C0.33 0.66 0.66 1.32 1 2 C1.825 1.917 2.65 1.835 3.5 1.75 C9.336 2.167 14.037 4.718 18 9 C16.996 12.011 16.249 13.773 13.875 15.938 C11.364 18.7 11.924 20.365 12 24 C10.844 26.18 10.844 26.18 9 28 C6.441 28.32 6.441 28.32 3.562 28.125 C-0.399 27.877 -2.533 28.094 -6 30 C-8.857 29.791 -10.457 29.443 -12.688 27.625 C-15.621 23.993 -17.259 21.516 -17 16.875 C-16.257 11.107 -13.437 7.62 -9 4 C-6.088 2.362 -3.157 1.088 0 0 Z " fill="#E5DB37" transform="translate(47,37)"/>
<path d="M0 0 C17.917 -1.034 17.917 -1.034 23.125 3 C24.883 4.687 24.883 4.687 26 6 C26.33 5.01 26.66 4.02 27 3 C31.75 3.75 31.75 3.75 34 6 C34 6.99 34 7.98 34 9 C34.99 9.33 35.98 9.66 37 10 C37 12.64 37 15.28 37 18 C36.01 17.67 35.02 17.34 34 17 C34 16.34 34 15.68 34 15 C33.34 15 32.68 15 32 15 C32 15.66 32 16.32 32 17 C30.68 17.33 29.36 17.66 28 18 C27.67 17.01 27.34 16.02 27 15 C25.68 16.32 24.36 17.64 23 19 C22.241 18.218 21.481 17.435 20.699 16.629 C19.696 15.607 18.692 14.584 17.688 13.562 C17.188 13.046 16.688 12.53 16.174 11.998 C13.801 9.594 12.25 8.083 9 7 C9.578 7.482 10.155 7.964 10.75 8.461 C11.492 9.093 12.235 9.724 13 10.375 C13.743 11.001 14.485 11.628 15.25 12.273 C15.828 12.843 16.405 13.413 17 14 C17 14.66 17 15.32 17 16 C15.68 16.33 14.36 16.66 13 17 C13.567 17.227 13.567 17.227 16.438 18.375 C20 20 20 20 21 22 C13.41 22.33 5.82 22.66 -2 23 C-2 21.35 -2 19.7 -2 18 C-0.02 18 1.96 18 4 18 C3.519 17.49 3.038 16.979 2.543 16.453 C0.483 13.177 0.49 10.592 0.312 6.75 C0.247 5.487 0.181 4.223 0.113 2.922 C0.076 1.958 0.039 0.993 0 0 Z M19 8 C19 9.98 19 11.96 19 14 C19.33 14 19.66 14 20 14 C20 12.02 20 10.04 20 8 C19.67 8 19.34 8 19 8 Z " fill="#93AC0F" transform="translate(51,14)"/>
<path d="M0 0 C2.381 1.27 2.779 2.596 3.875 5 C5.009 4.34 6.144 3.68 7.312 3 C11.899 0.67 15.822 0.579 20.875 1 C22.12 3.491 21.652 4.411 20.875 7 C21.535 7 22.195 7 22.875 7 C22.624 13.355 22.239 18.03 17.875 23 C14.885 25.492 12.558 26.208 8.75 26.375 C4.875 26 4.875 26 3 24.688 C2.479 23.906 2.479 23.906 -0.125 20 C-0.455 20 -0.785 20 -1.125 20 C-1.125 17.36 -1.125 14.72 -1.125 12 C-1.455 12.33 -1.785 12.66 -2.125 13 C-3.115 13 -4.105 13 -5.125 13 C-6.125 12 -6.125 12 -6.438 8.188 C-6.398 5.025 -6.229 4.152 -4.375 1.438 C-2.125 0 -2.125 0 0 0 Z " fill="#EEE33E" transform="translate(33.125,65)"/>
<path d="M0 0 C-0.33 1.32 -0.66 2.64 -1 4 C-1.99 4 -2.98 4 -4 4 C-3.991 4.713 -3.982 5.426 -3.973 6.16 C-4.142 11.638 -4.472 15.189 -8.438 19.188 C-11.593 22 -11.593 22 -14 22 C-14 22.66 -14 23.32 -14 24 C-17.63 24 -21.26 24 -25 24 C-25.33 22.68 -25.66 21.36 -26 20 C-27.32 19.67 -28.64 19.34 -30 19 C-30.548 13.887 -30.43 10.983 -27.375 6.75 C-19.214 -2.914 -11.544 -1.466 0 0 Z " fill="#EFE543" transform="translate(92,43)"/>
<path d="M0 0 C1.65 0 3.3 0 5 0 C4.512 0.537 4.025 1.073 3.523 1.626 C1.599 4.625 1.63 6.438 1.639 9.986 C1.635 11.209 1.631 12.432 1.627 13.692 C1.637 15.049 1.648 16.407 1.659 17.765 C1.66 19.217 1.66 20.669 1.658 22.121 C1.658 26.01 1.675 29.899 1.696 33.787 C1.713 37.437 1.714 41.086 1.716 44.735 C1.732 55.407 1.774 66.078 1.812 76.75 C1.874 100.593 1.936 124.435 2 149 C53.48 149.33 104.96 149.66 158 150 C157.67 150.66 157.34 151.32 157 152 C105.19 152 53.38 152 0 152 C0 101.84 0 51.68 0 0 Z " fill="#FDFCFA" transform="translate(0,0)"/>
<path d="M0 0 C2.591 3.427 2.525 5.879 2.289 10.09 C1.803 13.509 0.983 15.767 -1.062 18.562 C-6.111 22.349 -11.989 22.269 -18.062 21.562 C-20.398 20.543 -20.398 20.543 -22.062 19.562 C-22.69 8.795 -22.69 8.795 -20.25 4 C-19.528 3.196 -18.806 2.391 -18.062 1.562 C-17.547 0.964 -17.031 0.366 -16.5 -0.25 C-11.819 -4.117 -5.001 -2.348 0 0 Z " fill="#EEE43F" transform="translate(81.0625,77.4375)"/>
<path d="M0 0 C0.66 0.33 1.32 0.66 2 1 C1.639 1.473 1.278 1.946 0.906 2.434 C-2.763 7.662 -4.061 11.643 -3 18 C-1.825 22.076 -0.105 25.096 3 28 C2.506 28.554 2.013 29.109 1.504 29.68 C1.184 30.042 1.184 30.042 -0.438 31.875 C-1.076 32.594 -1.714 33.314 -2.371 34.055 C-5.342 37.603 -5.221 40.234 -5.312 44.812 C-5.35 46.036 -5.387 47.259 -5.426 48.52 C-4.929 52.579 -3.844 54.13 -1 57 C3.463 59.756 8.924 59.797 14 59 C17.37 57.367 20.282 55.435 22 52 C22.66 52 23.32 52 24 52 C23.041 55.224 22.372 56.726 19.625 58.75 C17.377 59.82 15.437 60.549 13 61 C13.33 61.99 13.66 62.98 14 64 C14.067 65.561 14.085 67.125 14.062 68.688 C14.053 69.496 14.044 70.304 14.035 71.137 C14.024 71.752 14.012 72.366 14 73 C13.67 73 13.34 73 13 73 C12.34 69.37 11.68 65.74 11 62 C9.288 61.938 7.576 61.876 5.812 61.812 C0.461 61.36 -1.438 60.086 -5 56 C-7.911 55.578 -9.383 55.557 -11.801 57.293 C-16.076 62.651 -16.777 67.06 -16.477 73.855 C-15.808 78.27 -14.363 81.234 -12 85 C-12.99 85 -13.98 85 -15 85 C-15.257 85.603 -15.513 86.207 -15.777 86.828 C-17.88 90.563 -21.13 92.332 -25 94 C-28.133 94.6 -30.879 94.693 -34 94 C-36.562 92 -36.562 92 -38 90 C-37.43 90.16 -36.86 90.32 -36.273 90.484 C-31.136 91.65 -26.458 91.583 -21.562 89.625 C-19 88 -19 88 -17 86 C-16.721 83.35 -16.641 81.628 -17.98 79.285 C-19.389 76.128 -19.395 73.253 -19.562 69.812 C-19.901 63.099 -19.901 63.099 -21 62 C-23.016 61.766 -25.038 61.587 -27.062 61.438 C-28.167 61.354 -29.272 61.27 -30.41 61.184 C-31.265 61.123 -32.119 61.062 -33 61 C-29.21 58.87 -26.343 58.833 -22 59 C-21.67 58.01 -21.34 57.02 -21 56 C-20.67 56 -20.34 56 -20 56 C-20 57.65 -20 59.3 -20 61 C-12.6 56.8 -12.6 56.8 -11 52 C-11.495 51.835 -11.495 51.835 -14 51 C-12.02 50.34 -10.04 49.68 -8 49 C-8.046 48.276 -8.093 47.551 -8.141 46.805 C-8.378 40.436 -8.233 36.856 -4 32 C-3.34 31.34 -2.68 30.68 -2 30 C-2.173 26.71 -2.774 25.263 -4.938 22.75 C-8.884 19.401 -12.208 19.739 -17.23 19.766 C-20.676 20.057 -23.074 21.199 -26 23 C-26.66 23 -27.32 23 -28 23 C-29.625 21 -29.625 21 -31 19 C-33.539 19.35 -34.821 19.84 -36.75 21.562 C-38.879 25.713 -38.398 30.012 -37.5 34.5 C-37.335 34.995 -37.17 35.49 -37 36 C-39.038 34.326 -39.916 33.374 -40.504 30.766 C-40.643 24.786 -39.757 21.634 -35.605 17.277 C-34 16 -34 16 -31 15 C-30.01 16.32 -29.02 17.64 -28 19 C-25.237 18.477 -22.674 17.891 -20 17 C-17.159 17.008 -14.334 17.13 -11.496 17.258 C-11.084 17.215 -11.084 17.215 -9 17 C-7 14 -7 14 -7.188 11.125 C-7 8 -7 8 -4.625 5.312 C-3.759 4.549 -2.892 3.786 -2 3 C-1.34 2.01 -0.68 1.02 0 0 Z M-26 51 C-22.04 51.33 -18.08 51.66 -14 52 C-14 52.33 -14 52.66 -14 53 C-19.859 54.074 -19.859 54.074 -22 54 C-23.32 53.01 -24.64 52.02 -26 51 Z " fill="#B3AD08" transform="translate(65,47)"/>
<path d="M0 0 C4.689 1.423 7.516 4.157 10.812 7.625 C11.064 7.883 11.064 7.883 12.334 9.188 C13.563 10.452 14.782 11.725 16 13 C18.511 11.745 18.871 10.499 20 8 C20.66 9.32 21.32 10.64 22 12 C22.99 12 23.98 12 25 12 C25 11.34 25 10.68 25 10 C25.66 10 26.32 10 27 10 C27 10.66 27 11.32 27 12 C27.66 12 28.32 12 29 12 C29 9.69 29 7.38 29 5 C31.227 7.227 31.917 8.794 32.133 11.938 C32.13 12.618 32.128 13.299 32.125 14 C32.126 14.34 32.126 14.34 32.133 16.062 C32 18 32 18 31 21 C31.66 21.33 32.32 21.66 33 22 C32.34 22 31.68 22 31 22 C30.835 22.495 30.835 22.495 30 25 C29.361 24.835 28.721 24.67 28.062 24.5 C22.318 23.562 17.765 22.901 12.688 26.062 C11.801 26.702 10.914 27.341 10 28 C6.145 28 3.89 25.326 1 23 C-2.597 21.248 -6.048 20.551 -10 20 C-10.33 18.35 -10.66 16.7 -11 15 C-10.01 15 -9.02 15 -8 15 C-8.33 15.99 -8.66 16.98 -9 18 C-5.37 17.67 -5.37 17.67 13 16 C11.515 15.34 11.515 15.34 4 12 C4 11.67 4 11.34 4 11 C5.98 11 7.96 11 10 11 C6.835 7.111 3.596 3.494 0 0 Z M12 3 C12.33 3 12.66 3 13 3 C13 4.98 13 6.96 13 9 C12.67 9 12.34 9 12 9 C12 7.02 12 5.04 12 3 Z " fill="#7D9904" transform="translate(58,19)"/>
<path d="M0 0 C3.847 0.528 7.444 1.405 11.188 2.438 C11.154 4.837 11.087 7.227 11 9.625 C10.994 10.299 10.988 10.972 10.982 11.666 C10.81 15.591 10.307 17.295 7.758 20.34 C2.588 24.559 2.588 24.559 -1.688 24.188 C-4.806 23.439 -7.793 22.516 -10.812 21.438 C-11.234 13.546 -10.585 8.885 -5.5 2.562 C-2.812 0.438 -2.812 0.438 0 0 Z " fill="#E8DE31" transform="translate(32.8125,108.5625)"/>
<path d="M0 0 C1.32 0.33 2.64 0.66 4 1 C3.67 1.99 3.34 2.98 3 4 C3.88 6.205 3.88 6.205 5.273 8.746 C5.768 9.666 6.263 10.586 6.773 11.533 C7.302 12.492 7.83 13.45 8.375 14.438 C9.407 16.33 10.436 18.224 11.461 20.121 C11.923 20.961 12.385 21.801 12.861 22.666 C13.9 24.796 14.534 26.686 15 29 C17.104 23.871 17.218 19.439 17 14 C17.66 14 18.32 14 19 14 C18.546 12.582 18.086 11.166 17.625 9.75 C17.37 8.961 17.115 8.172 16.852 7.359 C16.048 5.134 15.103 3.091 14 1 C20.752 7.397 20.752 7.397 21.25 12.625 C21 15 21 15 19 17 C18.745 19.854 18.58 22.641 18.5 25.5 C18.27 33.73 18.27 33.73 16 36 C14.172 35.723 14.172 35.723 12 35 C11.221 34.751 10.443 34.502 9.641 34.246 C8.852 33.979 8.063 33.712 7.25 33.438 C6.451 33.168 5.652 32.899 4.828 32.621 C4.225 32.416 3.622 32.211 3 32 C2.835 32.165 2.835 32.165 2 33 C-0.438 33.188 -0.438 33.188 -3 33 C-3.66 32.34 -4.32 31.68 -5 31 C-4.789 28.047 -3.867 26.843 -1.938 24.562 C1.402 19.827 0.593 13.506 0 8 C-0.379 7.104 -0.758 6.208 -1.148 5.285 C-1.429 4.531 -1.71 3.777 -2 3 C-1.34 2.01 -0.68 1.02 0 0 Z " fill="#7B9607" transform="translate(117,69)"/>
<path d="M0 0 C1.65 0 3.3 0 5 0 C5 0.66 5 1.32 5 2 C1.834 3.876 -0.358 4.097 -4 4 C-3.942 4.606 -3.884 5.212 -3.824 5.836 C-3.442 12.943 -4.872 18.155 -9 24 C-11.562 26.125 -11.562 26.125 -15 27 C-16.959 26.815 -18.917 26.627 -20.875 26.438 C-24.02 26.32 -24.02 26.32 -27 27 C-29.708 29.825 -31.482 32.667 -33.379 36.082 C-35.537 39.966 -36.778 41.593 -41 43 C-44.643 43.26 -48.28 43.443 -51.928 43.605 C-57.799 43.899 -57.799 43.899 -60 45 C-62.718 45.072 -65.409 45.093 -68.125 45.062 C-68.879 45.058 -69.633 45.053 -70.41 45.049 C-72.273 45.037 -74.137 45.019 -76 45 C-76 44.67 -76 44.34 -76 44 C-75.443 43.986 -74.886 43.972 -74.312 43.957 C-68.167 43.573 -63.767 41.955 -59 38 C-58.34 37.01 -57.68 36.02 -57 35 C-56.051 35.165 -55.102 35.33 -54.125 35.5 C-47.969 36.337 -42.294 37.084 -36.562 34.375 C-31.162 29.37 -30.452 24.017 -30 17 C-29.01 16.67 -28.02 16.34 -27 16 C-27 18.31 -27 20.62 -27 23 C-24.917 23.054 -22.834 23.093 -20.75 23.125 C-19.59 23.148 -18.43 23.171 -17.234 23.195 C-14.07 23.004 -12.52 22.862 -10 21 C-6.993 17.11 -6.398 13.508 -5.812 8.688 C-5.733 8.06 -5.733 8.06 -5.332 4.887 C-5.222 3.934 -5.113 2.981 -5 2 C-3.35 2 -1.7 2 0 2 C0 1.34 0 0.68 0 0 Z " fill="#C4B839" transform="translate(107,97)"/>
<path d="M0 0 C4.021 0.914 5.73 1.682 8.438 4.875 C10 8 10 8 10 10.062 C8.656 12.667 6.883 14.763 5 17 C3.717 19.566 3.892 21.575 3.812 24.438 C3.358 29.694 3.358 29.694 0.438 32.188 C-6.497 33.826 -11.118 33.586 -17.305 30.141 C-20.115 28.25 -21.5 26.317 -22.688 23.188 C-23.126 20.116 -23.06 17.097 -23 14 C-21.171 16.378 -19.704 18.569 -18.312 21.25 C-16 24 -16 24 -12.125 24.625 C-7.836 24.258 -5.191 22.969 -2 20 C0.385 15.621 1.384 10.925 2 6 C1.34 6 0.68 6 0 6 C0 4.02 0 2.04 0 0 Z " fill="#DFD419" transform="translate(54,66)"/>
<path d="M0 0 C1.98 0 3.96 0 6 0 C6 0.66 6 1.32 6 2 C7.32 2.33 8.64 2.66 10 3 C9.67 3.99 9.34 4.98 9 6 C10.65 6 12.3 6 14 6 C14.33 8.31 14.66 10.62 15 13 C16.98 13 18.96 13 21 13 C21 11.68 21 10.36 21 9 C23.64 8.67 26.28 8.34 29 8 C28.34 8.66 27.68 9.32 27 10 C25.68 10 24.36 10 23 10 C24.01 12.718 25.04 15.061 26.625 17.5 C28.149 20.271 28.267 21.89 28 25 C27.34 25 26.68 25 26 25 C26.095 25.568 26.191 26.137 26.289 26.723 C27.065 32.13 26.859 35.861 25 41 C22.361 39.68 22.357 38.686 21.375 35.938 C19.195 30.182 16.43 24.791 13.554 19.359 C12.645 17.601 11.815 15.803 11 14 C11.33 13.34 11.66 12.68 12 12 C11.428 11.938 10.855 11.876 10.266 11.812 C7.047 10.658 5.812 8.689 3.75 6 C3.044 5.093 2.337 4.185 1.609 3.25 C0 1 0 1 0 0 Z " fill="#87A206" transform="translate(108,58)"/>
<path d="M0 0 C2.688 -0.312 2.688 -0.312 6 0 C8.875 2.375 8.875 2.375 11 5 C11 5.66 11 6.32 11 7 C11.66 7 12.32 7 13 7 C14.553 12.853 14.553 12.853 13.059 15.953 C10.908 19.009 9.15 20.9 6 23 C1.925 23.34 0.47 23.313 -3 21 C-4.958 16.005 -5.335 11.208 -4 6 C-3.34 6 -2.68 6 -2 6 C-1.34 4.02 -0.68 2.04 0 0 Z " fill="#E7DD31" transform="translate(98,68)"/>
<path d="M0 0 C0.66 0.33 1.32 0.66 2 1 C2 1.66 2 2.32 2 3 C3.65 3.66 5.3 4.32 7 5 C7.455 10.693 6.682 13.602 3 18 C-0.19 20.339 -3.115 20.413 -7 20 C-10.186 17.876 -11.572 14.467 -13 11 C-13.5 7.938 -13.5 7.938 -13 5 C-8.948 0.071 -6.221 -1.595 0 0 Z " fill="#E5DC2E" transform="translate(62,107)"/>
<path d="M0 0 C0.667 1.333 0.667 1.333 4 8 C1.69 7.67 -0.62 7.34 -3 7 C-2.67 7.66 -2.34 8.32 -2 9 C-1.191 15.392 -2.152 20.751 -6 26 C-8.572 28.661 -9.686 28.993 -13.453 29.074 C-14.08 29.01 -14.08 29.01 -17.25 28.688 C-18.513 28.568 -19.777 28.448 -21.078 28.324 C-22.042 28.217 -23.007 28.11 -24 28 C-23.01 27.01 -22.02 26.02 -21 25 C-23.64 24.67 -26.28 24.34 -29 24 C-29 23.67 -29 23.34 -29 23 C-25.7 23 -22.4 23 -19 23 C-19 22.34 -19 21.68 -19 21 C-17.733 19.989 -16.436 19.016 -15.125 18.062 C-10.585 14.277 -9.835 10.893 -9.156 5.16 C-9.105 4.447 -9.053 3.734 -9 3 C-8.01 3.165 -8.01 3.165 -3 4 C-2.01 2.68 -1.02 1.36 0 0 Z " fill="#D5CB17" transform="translate(97,44)"/>
<path d="M0 0 C0.598 0.33 1.196 0.66 1.812 1 C4 2 4 2 7 2 C6.67 2.99 6.34 3.98 6 5 C3.69 5 1.38 5 -1 5 C-1 5.66 -1 6.32 -1 7 C-3.947 8.629 -6.565 9.423 -9.875 10 C-14.883 10.946 -19.376 12.171 -23.938 14.5 C-33.658 18.627 -45.126 18.191 -55.5 18.25 C-56.527 18.259 -57.553 18.269 -58.611 18.278 C-64.133 18.255 -68.785 17.846 -74 16 C-73.67 14.68 -73.34 13.36 -73 12 C-72.505 12.33 -72.505 12.33 -70 14 C-70 14.66 -70 15.32 -70 16 C-67.375 15.859 -64.75 15.713 -62.125 15.562 C-61.379 15.523 -60.632 15.484 -59.863 15.443 C-54.227 15.113 -54.227 15.113 -52 14 C-48.461 13.767 -44.929 13.606 -41.385 13.482 C-31.937 13.047 -31.937 13.047 -28.559 9.477 C-26.307 7.343 -24.061 7.049 -21.062 6.375 C-20.022 6.135 -18.982 5.895 -17.91 5.648 C-16.95 5.434 -15.989 5.22 -15 5 C-13.666 4.671 -12.332 4.34 -11 4 C-11 4.99 -11 5.98 -11 7 C-6.397 5.23 -3.287 3.813 0 0 Z " fill="#F0DFBE" transform="translate(101,126)"/>
<path d="M0 0 C6.72 0.72 6.72 0.72 8 2 C8.336 4.273 8.336 4.273 8 7 C6.102 9.352 6.102 9.352 3.625 11.625 C-2.808 17.609 -2.808 17.609 -3.5 22.625 C-3.665 23.739 -3.83 24.852 -4 26 C-4.66 26.33 -5.32 26.66 -6 27 C-6 26.01 -6 25.02 -6 24 C-7.65 25.65 -9.3 27.3 -11 29 C-11.99 28.67 -12.98 28.34 -14 28 C-14.33 27.01 -14.66 26.02 -15 25 C-14.67 24.67 -14.34 24.34 -14 24 C-14.66 23.67 -15.32 23.34 -16 23 C-16 21.02 -16 19.04 -16 17 C-15.67 17.66 -15.34 18.32 -15 19 C-12.253 18.381 -10.476 17.633 -8.76 15.351 C-7.521 13.243 -6.371 11.11 -5.25 8.938 C-4.465 7.467 -3.678 5.997 -2.891 4.527 C-2.551 3.875 -2.211 3.223 -1.86 2.551 C-1 1 -1 1 0 0 Z " fill="#7B5608" transform="translate(105,20)"/>
<path d="M0 0 C0.338 0.615 0.675 1.23 1.023 1.863 C1.469 2.672 1.915 3.48 2.375 4.312 C2.816 5.113 3.257 5.914 3.711 6.738 C4.735 8.535 5.853 10.279 7 12 C6.625 14.688 6.625 14.688 6 17 C3.667 17.778 1.386 18.424 -1 19 C-1 20.65 -1 22.3 -1 24 C-4.265 22.196 -5.889 21.166 -8 18 C-8.644 13.3 -9.073 8.241 -6.984 3.879 C-4.744 1.064 -3.666 0 0 0 Z " fill="#EEE444" transform="translate(29,86)"/>
<path d="M0 0 C3.571 1.879 5.547 3.171 7 7 C3.25 12.875 3.25 12.875 1 14 C1.062 14.907 1.124 15.815 1.188 16.75 C0.977 20.403 0.565 21.468 -2 24 C-4.559 24.32 -4.559 24.32 -7.438 24.125 C-11.399 23.877 -13.534 24.092 -17 26 C-19.625 25.875 -19.625 25.875 -22 25 C-23.375 23.125 -23.375 23.125 -24 21 C-23.67 20.01 -23.34 19.02 -23 18 C-22.291 18.161 -21.582 18.322 -20.852 18.488 C-17.971 19.005 -15.299 19.167 -12.375 19.188 C-11.434 19.202 -10.493 19.216 -9.523 19.23 C-7 19 -7 19 -4 17 C-0.99 11.443 -0.365 6.259 0 0 Z " fill="#DACF17" transform="translate(58,41)"/>
<path d="M0 0 C0.33 0 0.66 0 1 0 C0.67 2.64 0.34 5.28 0 8 C0.66 8.33 1.32 8.66 2 9 C1.34 9 0.68 9 0 9 C-0.33 9.99 -0.66 10.98 -1 12 C-1.639 11.835 -2.279 11.67 -2.938 11.5 C-8.682 10.562 -13.235 9.901 -18.312 13.062 C-19.199 13.702 -20.086 14.341 -21 15 C-24.402 14.67 -26.263 13.186 -28.75 10.938 C-29.364 10.39 -29.977 9.842 -30.609 9.277 C-31.068 8.856 -31.527 8.434 -32 8 C-28.939 5.376 -28.268 5 -24 5 C-24.33 6.32 -24.66 7.64 -25 9 C-21.04 8.34 -17.08 7.68 -13 7 C-12.67 6.01 -12.34 5.02 -12 4 C-10.68 4.33 -9.36 4.66 -8 5 C-7.34 3.68 -6.68 2.36 -6 1 C-5.34 1 -4.68 1 -4 1 C-4.33 3.64 -4.66 6.28 -5 9 C-4.01 9 -3.02 9 -2 9 C-1.34 6.03 -0.68 3.06 0 0 Z " fill="#789506" transform="translate(89,32)"/>
<path d="M0 0 C0 4.33 -2.115 5.914 -5 9 C-9.523 10.508 -14.197 10.395 -18.928 10.605 C-24.799 10.899 -24.799 10.899 -27 12 C-29.718 12.072 -32.409 12.093 -35.125 12.062 C-35.879 12.058 -36.633 12.053 -37.41 12.049 C-39.273 12.037 -41.137 12.019 -43 12 C-43 11.67 -43 11.34 -43 11 C-42.443 10.986 -41.886 10.972 -41.312 10.957 C-35.167 10.573 -30.767 8.955 -26 5 C-25.34 4.01 -24.68 3.02 -24 2 C-21.038 2.613 -19.619 3.254 -17 5 C-10.544 6.076 -6.292 4.639 -1 1 C-0.67 0.67 -0.34 0.34 0 0 Z " fill="#D8C287" transform="translate(74,130)"/>
<path d="M0 0 C7.977 -0.386 15.228 0.485 22 5 C22 5.66 22 6.32 22 7 C22.66 7 23.32 7 24 7 C23.67 7.66 23.34 8.32 23 9 C20.36 9 17.72 9 15 9 C15 10.32 15 11.64 15 13 C13.188 13.688 13.188 13.688 11 14 C9.25 12.875 9.25 12.875 8 11 C7.812 8.312 7.812 8.312 8 6 C6.35 6 4.7 6 3 6 C3 5.01 3 4.02 3 3 C2.01 2.67 1.02 2.34 0 2 C0 1.34 0 0.68 0 0 Z " fill="#92AC08" transform="translate(114,58)"/>
<path d="M0 0 C0.806 0.003 1.611 0.005 2.441 0.008 C2.843 0.007 2.843 0.007 4.875 0 C7.004 0.133 7.004 0.133 9.004 1.133 C9.468 5.128 9.291 6.724 6.941 10.07 C4.004 12.133 4.004 12.133 0.316 12.195 C-2.996 11.133 -2.996 11.133 -4.434 9.07 C-4.619 8.431 -4.805 7.792 -4.996 7.133 C-5.656 7.133 -6.316 7.133 -6.996 7.133 C-7.326 5.483 -7.656 3.833 -7.996 2.133 C-7.594 2.061 -7.594 2.061 -5.559 1.695 C-3.064 1.148 -2.416 0.161 0 0 Z " fill="#F2E856" transform="translate(43.99609375,43.8671875)"/>
<path d="M0 0 C0 0.99 0 1.98 0 3 C0.311 4.671 0.641 6.339 1 8 C1.99 8 2.98 8 4 8 C3.67 8.66 3.34 9.32 3 10 C5.97 10.33 8.94 10.66 12 11 C12 11.33 12 11.66 12 12 C10.185 12.165 10.185 12.165 1 13 C1.589 13.687 2.178 14.374 2.785 15.082 C3.537 15.983 4.288 16.884 5.062 17.812 C5.817 18.706 6.571 19.599 7.348 20.52 C7.893 21.338 8.438 22.157 9 23 C8.67 23.99 8.34 24.98 8 26 C4.223 24.187 0.627 22.093 -3 20 C-2.988 19.252 -2.977 18.505 -2.965 17.734 C-2.956 16.75 -2.947 15.765 -2.938 14.75 C-2.926 13.775 -2.914 12.801 -2.902 11.797 C-2.988 9.342 -3.293 7.338 -4 5 C-3.34 5 -2.68 5 -2 5 C-1.928 4.68 -1.928 4.68 -1.562 3.062 C-1 1 -1 1 0 0 Z " fill="#667F02" transform="translate(108,46)"/>
<path d="M0 0 C0.66 0.33 1.32 0.66 2 1 C-3.007 5.322 -7.476 7.817 -13.898 9.457 C-16 10 -16 10 -18 11 C-20.268 11.207 -22.539 11.367 -24.812 11.5 C-31.503 11.895 -31.503 11.895 -34.406 12.509 C-36.995 12.999 -39.346 13.129 -41.977 13.133 C-42.435 13.133 -42.435 13.133 -44.758 13.137 C-45.704 13.133 -46.65 13.129 -47.625 13.125 C-48.102 13.127 -48.102 13.127 -50.516 13.137 C-50.973 13.136 -50.973 13.136 -53.289 13.133 C-54.121 13.132 -54.954 13.131 -55.811 13.129 C-58 13 -58 13 -61 12 C-60.67 10.68 -60.34 9.36 -60 8 C-59.505 8.33 -59.505 8.33 -57 10 C-57 10.66 -57 11.32 -57 12 C-54.375 11.859 -51.75 11.713 -49.125 11.562 C-48.379 11.523 -47.632 11.484 -46.863 11.443 C-41.227 11.113 -41.227 11.113 -39 10 C-35.461 9.767 -31.929 9.606 -28.385 9.482 C-18.926 9.047 -18.926 9.047 -15.566 5.477 C-13.284 3.325 -10.97 3.046 -7.938 2.375 C-2.132 1.066 -2.132 1.066 0 0 Z " fill="#E5D1A6" transform="translate(88,130)"/>
<path d="M0 0 C1.563 1.916 2.013 3.322 2.418 5.738 C-1.759 7.33 -5.114 7.951 -9.582 7.738 C-9.252 6.418 -8.922 5.098 -8.582 3.738 C-15.332 6.613 -15.332 6.613 -17.582 7.738 C-19.527 7.398 -19.527 7.398 -21.707 6.801 C-22.431 6.606 -23.156 6.411 -23.902 6.211 C-24.457 6.055 -25.011 5.899 -25.582 5.738 C-25.912 4.088 -26.242 2.438 -26.582 0.738 C-25.592 0.738 -24.602 0.738 -23.582 0.738 C-23.912 1.728 -24.242 2.718 -24.582 3.738 C-20.952 3.408 -20.952 3.408 -2.582 1.738 C-4.067 1.078 -4.067 1.078 -11.582 -2.262 C-11.582 -2.592 -11.582 -2.922 -11.582 -3.262 C-6.093 -5.136 -4.021 -3.577 0 0 Z " fill="#849F0A" transform="translate(73.58203125,33.26171875)"/>
<path d="M0 0 C0.66 0.66 1.32 1.32 2 2 C1.555 2.519 1.111 3.039 0.652 3.574 C0.086 4.272 -0.479 4.969 -1.062 5.688 C-1.631 6.372 -2.199 7.056 -2.785 7.762 C-4.378 10.696 -3.91 11.833 -3 15 C-2.821 16.042 -2.642 17.083 -2.457 18.156 C-0.503 28.295 -0.503 28.295 3 31.25 C6 33 6 33 9 34 C8.835 34.33 8.835 34.33 8 36 C7.457 35.711 6.915 35.422 6.355 35.125 C5.64 34.754 4.925 34.382 4.188 34 C3.48 33.629 2.772 33.257 2.043 32.875 C0 32 0 32 -3 32 C-3.026 31.059 -3.052 30.118 -3.078 29.148 C-3.662 16.338 -3.662 16.338 -8 12 C-11.618 10.25 -14.821 9.664 -18.812 9.375 C-19.788 9.3 -20.764 9.225 -21.77 9.148 C-22.506 9.099 -23.242 9.05 -24 9 C-22 7 -22 7 -18.48 6.98 C-16.327 7.071 -14.179 7.188 -12.029 7.342 C-7.94 7.489 -6.278 7.225 -3.051 4.613 C-1 2 -1 2 0 0 Z " fill="#B5AC06" transform="translate(93,65)"/>
<path d="M0 0 C1.65 0.66 3.3 1.32 5 2 C5 2.66 5 3.32 5 4 C3.68 3.67 2.36 3.34 1 3 C1.33 3.99 1.66 4.98 2 6 C0.52 8.467 -0.98 10.701 -2.688 13 C-3.135 13.629 -3.583 14.258 -4.045 14.906 C-8.54 21.084 -8.54 21.084 -12 23 C-13.32 23 -14.64 23 -16 23 C-16 21.02 -16 19.04 -16 17 C-15.67 17.66 -15.34 18.32 -15 19 C-12.253 18.381 -10.476 17.633 -8.76 15.351 C-7.521 13.243 -6.371 11.11 -5.25 8.938 C-4.465 7.467 -3.678 5.997 -2.891 4.527 C-2.551 3.875 -2.211 3.223 -1.86 2.551 C-1 1 -1 1 0 0 Z " fill="#B08329" transform="translate(105,20)"/>
<path d="M0 0 C2.38 1.269 2.917 2.526 3.875 5 C5.855 4.01 7.835 3.02 9.875 2 C9.684 3.875 9.684 3.875 8.875 6 C6.66 7.125 6.66 7.125 3.938 8 C-0.84 9.54 -0.84 9.54 -2.441 12.125 C-2.667 12.744 -2.893 13.362 -3.125 14 C-4.115 13.34 -5.105 12.68 -6.125 12 C-6.9 5.135 -6.9 5.135 -4.375 1.438 C-2.125 0 -2.125 0 0 0 Z " fill="#E6DC32" transform="translate(33.125,65)"/>
<path d="M0 0 C0.33 0 0.66 0 1 0 C1.144 0.784 1.289 1.568 1.438 2.375 C2 5 2 5 3 7 C3.66 7 4.32 7 5 7 C5.165 7.639 5.33 8.279 5.5 8.938 C7 11 7 11 8.914 11.488 C10.936 11.728 12.968 11.869 15 12 C15 12.99 15 13.98 15 15 C14.031 15.454 13.061 15.907 12.062 16.375 C9 18 9 18 8 20 C4.486 18.243 1.621 14.821 0.352 11.098 C-0.038 8.775 -0.097 6.604 -0.062 4.25 C-0.053 3.451 -0.044 2.652 -0.035 1.828 C-0.024 1.225 -0.012 0.622 0 0 Z " fill="#D9CF15" transform="translate(61,56)"/>
<path d="M0 0 C0.66 0.33 1.32 0.66 2 1 C2.207 3.014 2.315 5.039 2.375 7.062 C2.727 13.087 3.885 16.875 7 22 C6.01 22 5.02 22 4 22 C3.743 22.603 3.487 23.207 3.223 23.828 C1.12 27.563 -2.13 29.332 -6 31 C-9.133 31.6 -11.879 31.693 -15 31 C-17.563 29 -17.563 29 -19 27 C-18.43 27.16 -17.86 27.32 -17.273 27.484 C-12.136 28.65 -7.458 28.583 -2.562 26.625 C0 25 0 25 2 23 C2.28 20.336 2.37 18.628 0.992 16.289 C-0.408 13.058 -0.19 10.252 -0.125 6.75 C-0.107 5.487 -0.089 4.223 -0.07 2.922 C-0.047 1.958 -0.024 0.993 0 0 Z " fill="#BCB018" transform="translate(46,110)"/>
<path d="M0 0 C1.98 0.66 3.96 1.32 6 2 C6.938 4 6.938 4 7 6 C6.67 6.66 6.34 7.32 6 8 C6.99 8 7.98 8 9 8 C9 9.32 9 10.64 9 12 C5.7 12.33 2.4 12.66 -1 13 C-0.67 8.71 -0.34 4.42 0 0 Z " fill="#718A04" transform="translate(95,53)"/>
<path d="M0 0 C0.471 0.422 0.941 0.843 1.426 1.277 C2.048 1.825 2.671 2.373 3.312 2.938 C3.927 3.483 4.542 4.028 5.176 4.59 C8.898 7.467 12.9 7.386 17.418 7.359 C21.678 6.766 23.825 4.837 27 2 C27.33 1.34 27.66 0.68 28 0 C28.66 0 29.32 0 30 0 C29.041 3.224 28.372 4.726 25.625 6.75 C23.377 7.82 21.437 8.549 19 9 C19.33 9.99 19.66 10.98 20 12 C20.067 13.561 20.085 15.125 20.062 16.688 C20.053 17.496 20.044 18.304 20.035 19.137 C20.024 19.752 20.012 20.366 20 21 C19.67 21 19.34 21 19 21 C18.34 17.37 17.68 13.74 17 10 C15.288 9.938 13.576 9.876 11.812 9.812 C7.65 9.449 6.334 9.272 3 6.562 C2.34 5.717 1.68 4.871 1 4 C0.01 3.34 -0.98 2.68 -2 2 C-1.34 1.34 -0.68 0.68 0 0 Z " fill="#B5AD09" transform="translate(59,99)"/>
<path d="M0 0 C1.584 0.06 3.168 0.149 4.75 0.25 C5.632 0.296 6.513 0.343 7.422 0.391 C10 1 10 1 14 5 C6.41 5.33 -1.18 5.66 -9 6 C-9 5.01 -9 4.02 -9 3 C-7.515 2.835 -7.515 2.835 0 2 C0 1.34 0 0.68 0 0 Z " fill="#98B30B" transform="translate(58,31)"/>
<path d="M0 0 C2.12 2.615 4.131 5.196 6 8 C5.625 10.688 5.625 10.688 5 13 C2.667 13.778 0.386 14.424 -2 15 C-2 16.65 -2 18.3 -2 20 C-5.571 18.121 -7.547 16.829 -9 13 C-8.34 13 -7.68 13 -7 13 C-7 12.34 -7 11.68 -7 11 C-4.69 11 -2.38 11 0 11 C1.078 7.118 0.925 5.488 -1 2 C-0.67 1.34 -0.34 0.68 0 0 Z " fill="#E1D728" transform="translate(30,90)"/>
<path d="M0 0 C0 0.99 0 1.98 0 3 C-0.66 2.67 -1.32 2.34 -2 2 C-2.33 3.65 -2.66 5.3 -3 7 C-4.98 7.33 -6.96 7.66 -9 8 C-8.67 9.65 -8.34 11.3 -8 13 C-8.99 12.67 -9.98 12.34 -11 12 C-11 8.37 -11 4.74 -11 1 C-6.468 -1.266 -4.822 -0.927 0 0 Z " fill="#F3E959" transform="translate(78,46)"/>
<path d="M0 0 C0.66 0 1.32 0 2 0 C2.362 6.872 1.646 11.953 -3.062 17.375 C-6.353 20.135 -8.397 20.112 -12.625 20.062 C-13.628 20.053 -14.631 20.044 -15.664 20.035 C-16.435 20.024 -17.206 20.012 -18 20 C-18 19.34 -18 18.68 -18 18 C-17.42 17.89 -16.84 17.781 -16.242 17.668 C-11.472 16.7 -7.094 15.764 -3 13 C-2.125 10.312 -2.125 10.312 -2 8 C-1.34 8 -0.68 8 0 8 C0 5.36 0 2.72 0 0 Z " fill="#D7CD1F" transform="translate(100,101)"/>
<path d="M0 0 C3.223 0.617 4.745 1.118 6.938 3.562 C7.188 6.25 7.188 6.25 6.938 8.562 C4.627 8.562 2.317 8.562 -0.062 8.562 C-0.392 7.572 -0.722 6.582 -1.062 5.562 C-3.373 5.892 -5.683 6.222 -8.062 6.562 C-3.925 0.721 -3.925 0.721 0 0 Z " fill="#97B208" transform="translate(124.0625,49.4375)"/>
<path d="M0 0 C0.33 0 0.66 0 1 0 C0.67 2.64 0.34 5.28 0 8 C0.66 8.33 1.32 8.66 2 9 C1.34 9 0.68 9 0 9 C-0.33 9.99 -0.66 10.98 -1 12 C-5.62 11.34 -10.24 10.68 -15 10 C-14.67 9.34 -14.34 8.68 -14 8 C-13.34 8 -12.68 8 -12 8 C-12.33 6.68 -12.66 5.36 -13 4 C-11.35 4.33 -9.7 4.66 -8 5 C-7.34 3.68 -6.68 2.36 -6 1 C-5.34 1 -4.68 1 -4 1 C-4.33 3.64 -4.66 6.28 -5 9 C-4.01 9 -3.02 9 -2 9 C-1.34 6.03 -0.68 3.06 0 0 Z " fill="#688804" transform="translate(89,32)"/>
<path d="M0 0 C1.32 0.33 2.64 0.66 4 1 C4 2.65 4 4.3 4 6 C3.01 6.33 2.02 6.66 1 7 C0.079 9.483 -0.461 11.976 -1.059 14.555 C-2.551 18.43 -5.088 19.585 -8.75 21.25 C-12.888 22.205 -15.83 21.719 -20 21 C-20 20.67 -20 20.34 -20 20 C-16.7 20 -13.4 20 -10 20 C-10 19.34 -10 18.68 -10 18 C-8.733 16.989 -7.436 16.016 -6.125 15.062 C-1.585 11.277 -0.835 7.893 -0.156 2.16 C-0.105 1.447 -0.053 0.734 0 0 Z " fill="#E5D928" transform="translate(88,47)"/>
<path d="M0 0 C2.962 0.613 4.381 1.254 7 3 C6.01 3 5.02 3 4 3 C4 3.99 4 4.98 4 6 C12.404 6.577 18.389 6.592 25 1 C23.455 4.331 22.132 6.007 19 8 C13.003 9.999 6.783 9.539 1 7 C0.34 6.34 -0.32 5.68 -1 5 C-0.625 2.375 -0.625 2.375 0 0 Z " fill="#D7CD22" transform="translate(24,130)"/>
<path d="M0 0 C0.66 0 1.32 0 2 0 C1.597 5.841 0.887 9.377 -3 14 C-7.798 18.143 -10.93 18.419 -17 18 C-17 17.34 -17 16.68 -17 16 C-16.241 15.758 -15.481 15.515 -14.699 15.266 C-13.705 14.93 -12.711 14.595 -11.688 14.25 C-11.194 14.088 -11.194 14.088 -8.699 13.266 C-5.759 11.887 -4.795 10.629 -3 8 C-2.34 8 -1.68 8 -1 8 C-0.67 5.36 -0.34 2.72 0 0 Z " fill="#E2D729" transform="translate(88,89)"/>
<path d="M0 0 C0.66 0 1.32 0 2 0 C0 4 0 4 -1.125 5.812 C-2.371 8.926 -2.188 11.685 -2 15 C-1.67 15.33 -1.34 15.66 -1 16 C-0.641 22.462 -0.641 22.462 -3 26 C-3.481 24.105 -3.959 22.209 -4.438 20.312 C-4.571 19.785 -4.571 19.785 -5.246 17.113 C-5.495 16.086 -5.744 15.059 -6 14 C-6.266 13.144 -6.531 12.288 -6.805 11.406 C-7.081 8.004 -5.827 6.773 -3.688 4.188 C-3.052 3.397 -2.416 2.607 -1.762 1.793 C-1.18 1.201 -0.599 0.61 0 0 Z " fill="#CCC208" transform="translate(95,66)"/>
<path d="M0 0 C0.784 0.041 1.568 0.082 2.375 0.125 C2.705 0.785 3.035 1.445 3.375 2.125 C2.832 2.307 2.29 2.489 1.73 2.676 C1.373 2.801 1.373 2.801 -0.438 3.438 C-0.791 3.559 -0.791 3.559 -2.582 4.176 C-4.815 5.213 -6.08 6.217 -7.625 8.125 C-8.522 13.635 -6.267 17.477 -3.625 22.125 C-4.285 22.455 -4.285 22.455 -7.625 24.125 C-10.775 18.951 -10.374 12.967 -9.625 7.125 C-7.25 3.938 -7.25 3.938 -4.625 2.125 C-2.625 0.125 -2.625 0.125 0 0 Z " fill="#DCD31A" transform="translate(57.625,103.875)"/>
<path d="M0 0 C4.875 0.875 4.875 0.875 6 2 C6.5 4.125 6.5 4.125 6 7 C3.874 9.568 1.494 11.793 -1 14 C-1.99 12.68 -2.98 11.36 -4 10 C-3.752 9.608 -3.752 9.608 -2.5 7.625 C-1 5 -1 5 -1 3 C0.32 3.33 1.64 3.66 3 4 C2.01 2.68 1.02 1.36 0 0 Z " fill="#906623" transform="translate(107,20)"/>
<path d="M0 0 C2.957 1.109 5.717 2.449 8.5 3.938 C8.5 6.248 8.5 8.558 8.5 10.938 C8.17 10.938 7.84 10.938 7.5 10.938 C7.5 8.957 7.5 6.977 7.5 4.938 C5.73 4.883 3.959 4.845 2.188 4.812 C1.201 4.789 0.215 4.766 -0.801 4.742 C-3.5 4.938 -3.5 4.938 -6.5 6.938 C-6.5 6.278 -6.5 5.617 -6.5 4.938 C-7.16 4.608 -7.82 4.278 -8.5 3.938 C-3.263 -0.082 -3.263 -0.082 0 0 Z M6.5 10.938 C6.5 13.938 6.5 13.938 6.5 13.938 Z M2.5 14.938 C4.5 15.938 4.5 15.938 4.5 15.938 Z " fill="#EFE446" transform="translate(45.5,40.0625)"/>
<path d="M0 0 C0.33 0.99 0.66 1.98 1 3 C-1.31 3.33 -3.62 3.66 -6 4 C-6 4.66 -6 5.32 -6 6 C-6.66 6.33 -6.66 6.33 -10 8 C-11.765 4.912 -12 3.767 -12 0 C-10.564 -0.196 -9.126 -0.381 -7.688 -0.562 C-6.887 -0.667 -6.086 -0.771 -5.262 -0.879 C-3 -1 -3 -1 0 0 Z " fill="#A6BC15" transform="translate(64,15)"/>
<path d="M0 0 C0.394 0.002 0.394 0.002 2.389 0.014 C4.322 0.025 6.255 0.043 8.188 0.062 C8.188 0.393 8.188 0.722 8.188 1.062 C-4.804 3.394 -17.65 3.275 -30.812 3.062 C-30.812 2.732 -30.812 2.403 -30.812 2.062 C-29.643 2.002 -28.474 1.941 -27.27 1.879 C-25.721 1.794 -24.173 1.71 -22.625 1.625 C-21.856 1.586 -21.087 1.546 -20.295 1.506 C-17.237 1.335 -14.312 1.169 -11.312 0.531 C-7.548 -0.175 -3.82 -0.042 0 0 Z " fill="#F5E8CC" transform="translate(64.8125,140.9375)"/>
<path d="M0 0 C2.962 0.613 4.381 1.254 7 3 C8.99 3.39 10.99 3.732 13 4 C13 4.33 13 4.66 13 5 C12.047 5.037 11.095 5.075 10.113 5.113 C8.859 5.179 7.605 5.245 6.312 5.312 C5.071 5.371 3.83 5.429 2.551 5.488 C-1.112 6.016 -2.901 7.116 -6 9 C-8.312 8.688 -8.312 8.688 -10 8 C-9.723 7.837 -9.723 7.837 -8.32 7.012 C-7.958 6.793 -7.958 6.793 -6.125 5.688 C-5.406 5.258 -4.686 4.829 -3.945 4.387 C-2 3 -2 3 0 0 Z " fill="#CDB86D" transform="translate(50,132)"/>
<path d="M0 0 C2.711 2.711 2.791 4.171 3 8 C2.214 11.088 1.166 14.036 0 17 C-0.99 17 -1.98 17 -3 17 C-4.208 13.377 -3.543 12.359 -2 9 C-2.66 8.67 -3.32 8.34 -4 8 C-3.34 7.01 -2.68 6.02 -2 5 C-2 5.66 -2 6.32 -2 7 C-1.34 7 -0.68 7 0 7 C0 4.69 0 2.38 0 0 Z " fill="#73930B" transform="translate(87,24)"/>
<path d="M0 0 C0.33 1.98 0.66 3.96 1 6 C-0.688 7.625 -0.688 7.625 -3 9 C-5.75 8.188 -5.75 8.188 -8 7 C-7.62 4.245 -7.193 3.18 -5.125 1.25 C-3 0 -3 0 0 0 Z " fill="#D4C91A" transform="translate(92,105)"/>
<path d="M0 0 C0.536 0.66 1.072 1.32 1.625 2 C4 4 4 4 7.25 4.25 C8.157 4.168 9.065 4.085 10 4 C8.71 5.376 7.373 6.708 6 8 C5.34 8 4.68 8 4 8 C2.375 6 2.375 6 1 4 C-1.539 4.35 -2.821 4.84 -4.75 6.562 C-6.879 10.713 -6.398 15.012 -5.5 19.5 C-5.335 19.995 -5.17 20.49 -5 21 C-7.038 19.326 -7.916 18.374 -8.504 15.766 C-8.618 10.851 -8.376 7.777 -5.125 3.938 C-3.433 2.201 -2.172 1.086 0 0 Z " fill="#BEB620" transform="translate(33,62)"/>
<path d="M0 0 C0.33 0 0.66 0 1 0 C1.121 0.638 1.242 1.276 1.367 1.934 C1.535 2.76 1.702 3.586 1.875 4.438 C2.037 5.261 2.2 6.085 2.367 6.934 C2.576 7.616 2.785 8.297 3 9 C3.66 9.33 4.32 9.66 5 10 C5 10.66 5 11.32 5 12 C4.34 12 3.68 12 3 12 C2.67 12.66 2.34 13.32 2 14 C-1.069 15.534 -3.701 14.55 -7 14 C-7 13.34 -7 12.68 -7 12 C-4.69 12.33 -2.38 12.66 0 13 C-0.516 12.422 -1.031 11.845 -1.562 11.25 C-3 9 -3 9 -2.688 6.75 C-2.461 6.172 -2.234 5.595 -2 5 C-1.67 5.66 -1.34 6.32 -1 7 C-0.67 4.69 -0.34 2.38 0 0 Z " fill="#7C7C1B" transform="translate(101,39)"/>
<path d="M0 0 C0.66 0 1.32 0 2 0 C1.938 2.188 1.938 2.188 1 5 C-4.098 9.731 -8.957 11.334 -15.836 11.301 C-18 11 -18 11 -20.562 9 C-20.8 8.67 -20.8 8.67 -22 7 C-21.441 7.159 -20.881 7.317 -20.305 7.48 C-14.723 8.739 -9.647 8.824 -4.5 6.25 C-2.217 4.196 -1.021 2.859 0 0 Z " fill="#BAAD23" transform="translate(75,125)"/>
<path d="M0 0 C6.752 6.397 6.752 6.397 7.25 11.625 C7 14 7 14 5 16 C4.693 18.9 4.488 21.718 4.375 24.625 C4.336 25.427 4.298 26.229 4.258 27.055 C4.163 29.036 4.081 31.018 4 33 C3.67 33 3.34 33 3 33 C3 26.4 3 19.8 3 13 C3.66 13 4.32 13 5 13 C4.546 11.582 4.086 10.166 3.625 8.75 C3.37 7.961 3.115 7.172 2.852 6.359 C2.048 4.134 1.103 2.091 0 0 Z " fill="#7C9026" transform="translate(131,70)"/>
<path d="M0 0 C1.98 0 3.96 0 6 0 C6 0.66 6 1.32 6 2 C7.32 2.33 8.64 2.66 10 3 C10.144 3.619 10.289 4.237 10.438 4.875 C11 7 11 7 12 9 C9.738 9.246 9.738 9.246 7 9 C4.98 7.285 4.98 7.285 3.188 5.062 C2.885 4.697 2.885 4.697 1.355 2.848 C0 1 0 1 0 0 Z " fill="#819C03" transform="translate(108,58)"/>
<path d="M0 0 C4.875 2.625 4.875 2.625 6 6 C5.34 6 4.68 6 4 6 C3.67 7.32 3.34 8.64 3 10 C2.34 10 1.68 10 1 10 C0.711 10.804 0.422 11.609 0.125 12.438 C-1 15 -1 15 -3 16 C-2.845 15.608 -2.845 15.608 -2.062 13.625 C-0.737 9.101 -0.352 4.686 0 0 Z " fill="#DFD522" transform="translate(58,41)"/>
<path d="M0 0 C0.66 0.33 1.32 0.66 2 1 C1.94 2.439 1.851 3.876 1.75 5.312 C1.727 5.713 1.727 5.713 1.609 7.738 C1 10 1 10 -0.625 11.781 C-3.799 13.41 -6.202 13.294 -9.75 13.188 C-10.92 13.16 -12.091 13.133 -13.297 13.105 C-14.189 13.071 -15.081 13.036 -16 13 C-16.33 12.34 -16.66 11.68 -17 11 C-13.069 9.69 -9.603 10.072 -5.496 10.258 C-4.672 10.173 -3.849 10.088 -3 10 C-0.694 6.542 -0.912 5.033 -1 1 C-0.67 0.67 -0.34 0.34 0 0 Z " fill="#C5BA0B" transform="translate(59,54)"/>
<path d="M0 0 C0.33 0 0.66 0 1 0 C1.641 6.149 1.028 10.233 -2.57 15.336 C-4.492 17.572 -6.272 18.881 -9 20 C-10.32 20 -11.64 20 -13 20 C-13 19.34 -13 18.68 -13 18 C-12.113 17.608 -11.226 17.216 -10.312 16.812 C-5.939 14.42 -2.718 12.427 -1.246 7.453 C-0.745 4.973 -0.326 2.509 0 0 Z " fill="#D7D01D" transform="translate(76,114)"/>
<path d="M0 0 C1.604 -0.027 3.208 -0.046 4.812 -0.062 C5.706 -0.074 6.599 -0.086 7.52 -0.098 C10 0 10 0 13 1 C14.287 4.224 14.199 7.627 14.25 11.062 C14.263 11.584 14.263 11.584 14.328 14.223 C14 17 14 17 12.484 18.871 C12.239 19.057 12.239 19.057 11 20 C11.159 19.444 11.317 18.889 11.48 18.316 C12.042 15.813 12.239 13.501 12.312 10.938 C12.35 10.08 12.387 9.223 12.426 8.34 C12 6 12 6 10.246 4.266 C8.038 3.022 6.217 2.347 3.75 1.812 C2.513 1.544 1.275 1.276 0 1 C0 0.67 0 0.34 0 0 Z " fill="#E8DC28" transform="translate(70,74)"/>
<path d="M0 0 C0.66 0.33 1.32 0.66 2 1 C1.67 1.66 1.34 2.32 1 3 C1.99 3.33 2.98 3.66 4 4 C3.67 4.66 3.34 5.32 3 6 C4.155 5.835 4.155 5.835 10 5 C10.33 5.66 10.66 6.32 11 7 C13.066 7.852 13.066 7.852 15.562 8.625 C16.389 8.885 17.215 9.146 18.066 9.414 C18.704 9.607 19.343 9.801 20 10 C17.348 11.326 16.272 10.742 13.43 10.004 C12.534 9.775 11.638 9.546 10.715 9.311 C9.778 9.064 8.841 8.817 7.875 8.562 C6.93 8.32 5.985 8.077 5.012 7.826 C2.673 7.224 0.336 6.615 -2 6 C-1.125 1.125 -1.125 1.125 0 0 Z " fill="#809A05" transform="translate(113,50)"/>
<path d="M0 0 C1.65 0 3.3 0 5 0 C5 0.66 5 1.32 5 2 C1.834 3.876 -0.358 4.097 -4 4 C-3.954 4.629 -3.907 5.258 -3.859 5.906 C-3.596 12.145 -4.307 16.838 -8 22 C-8.66 22.33 -9.32 22.66 -10 23 C-9.711 22.299 -9.422 21.597 -9.125 20.875 C-8.754 19.926 -8.382 18.977 -8 18 C-7.649 17.113 -7.299 16.226 -6.938 15.312 C-5.692 10.913 -5.342 6.548 -5 2 C-3.35 2 -1.7 2 0 2 C0 1.34 0 0.68 0 0 Z " fill="#B7AE21" transform="translate(107,97)"/>
<path d="M0 0 C0.402 0.01 0.402 0.01 2.438 0.062 C2.625 2.438 2.625 2.438 2.438 5.062 C-0.562 7.062 -0.562 7.062 -2.75 6.688 C-3.348 6.481 -3.946 6.275 -4.562 6.062 C-3.49 0.085 -3.49 0.085 0 0 Z " fill="#F6EE7F" transform="translate(31.5625,113.9375)"/>
<path d="M0 0 C1.675 0.286 3.344 0.618 5 1 C4.125 5.875 4.125 5.875 3 7 C1.334 7.041 -0.334 7.043 -2 7 C-1.125 1.125 -1.125 1.125 0 0 Z " fill="#FAF4A5" transform="translate(67,79)"/>
<path d="M0 0 C0.195 0.205 0.195 0.205 1.18 1.242 C6.047 5.93 10.357 7.225 17 8 C17 8.66 17 9.32 17 10 C6.994 9.807 6.994 9.807 3 6.562 C2.34 5.717 1.68 4.871 1 4 C0.01 3.34 -0.98 2.68 -2 2 C-1.34 1.34 -0.68 0.68 0 0 Z " fill="#BEB506" transform="translate(59,99)"/>
<path d="M0 0 C0.99 0.33 1.98 0.66 3 1 C4.374 3.854 3.953 5.163 3.062 8.25 C2.712 9.157 2.361 10.065 2 11 C0.68 11 -0.64 11 -2 11 C-1.856 10.299 -1.711 9.597 -1.562 8.875 C-0.985 5.924 -0.483 2.967 0 0 Z " fill="#647C04" transform="translate(96,55)"/>
<path d="M0 0 C0.66 0 1.32 0 2 0 C1.67 1.32 1.34 2.64 1 4 C1.557 4.072 1.557 4.072 4.375 4.438 C8 5 8 5 10 6 C10.33 6.99 10.66 7.98 11 9 C12.562 10.688 12.562 10.688 14 12 C12.188 13.062 12.188 13.062 10 14 C9.01 13.67 8.02 13.34 7 13 C7.66 13 8.32 13 9 13 C8.438 10.125 8.438 10.125 7 7 C3.375 5.625 3.375 5.625 0 5 C0 3.35 0 1.7 0 0 Z " fill="#889D26" transform="translate(122,45)"/>
<path d="M0 0 C0.33 0 0.66 0 1 0 C0.67 2.64 0.34 5.28 0 8 C0.66 8.33 1.32 8.66 2 9 C1.34 9 0.68 9 0 9 C-0.33 9.99 -0.66 10.98 -1 12 C-2.485 11.67 -2.485 11.67 -10 10 C-10 9.34 -10 8.68 -10 8 C-7.36 8.33 -4.72 8.66 -2 9 C-1.34 6.03 -0.68 3.06 0 0 Z " fill="#667B08" transform="translate(89,32)"/>
<path d="M0 0 C0.66 0 1.32 0 2 0 C0.547 4.117 -1.326 7.54 -4 11 C-6.188 11.688 -6.188 11.688 -8 12 C-8.33 12.99 -8.66 13.98 -9 15 C-9.66 15 -10.32 15 -11 15 C-11 13.02 -11 11.04 -11 9 C-10.67 9.66 -10.34 10.32 -10 11 C-6.889 10.378 -5.337 9.499 -3.555 6.863 C-2.311 4.6 -1.124 2.325 0 0 Z " fill="#927627" transform="translate(100,28)"/>
<path d="M0 0 C0.33 0 0.66 0 1 0 C1.66 2.31 2.32 4.62 3 7 C4.65 5.35 6.3 3.7 8 2 C7.01 5.3 6.02 8.6 5 12 C4.01 12 3.02 12 2 12 C-0.6 8.1 -0.151 4.526 0 0 Z " fill="#CFC616" transform="translate(26,71)"/>
<path d="M0 0 C0.33 0.99 0.66 1.98 1 3 C1.66 3.33 2.32 3.66 3 4 C1.35 5.65 -0.3 7.3 -2 9 C-2.99 8.67 -3.98 8.34 -5 8 C-5.33 7.01 -5.66 6.02 -6 5 C-4.02 3.35 -2.04 1.7 0 0 Z " fill="#8F6813" transform="translate(96,40)"/>
<path d="M0 0 C1.32 0 2.64 0 4 0 C4 1.98 4 3.96 4 6 C3.34 6.33 3.34 6.33 0 8 C-1 7 -1 7 -1.125 4 C-1 1 -1 1 0 0 Z " fill="#F6EF82" transform="translate(54,109)"/>
<path d="M0 0 C1.65 0.33 3.3 0.66 5 1 C5 2.65 5 4.3 5 6 C3.125 6.625 3.125 6.625 1 7 C0.34 6.34 -0.32 5.68 -1 5 C-0.625 2.375 -0.625 2.375 0 0 Z " fill="#F4EC76" transform="translate(96,72)"/>
<path d="M0 0 C2.625 0.375 2.625 0.375 5 1 C3.125 4.875 3.125 4.875 2 6 C0.334 6.041 -1.334 6.043 -3 6 C-2.427 3.133 -2.139 2.139 0 0 Z " fill="#F8F190" transform="translate(41,71)"/>
<path d="M0 0 C-0.33 1.65 -0.66 3.3 -1 5 C-2.98 5.33 -4.96 5.66 -7 6 C-6.625 3.562 -6.625 3.562 -6 1 C-4 0 -4 0 0 0 Z " fill="#F9F4A4" transform="translate(76,48)"/>
<path d="M0 0 C0.66 0.33 0.66 0.33 4 2 C4 2.66 4 3.32 4 4 C10.6 4 17.2 4 24 4 C24 4.33 24 4.66 24 5 C20.563 5.029 17.125 5.047 13.688 5.062 C13.199 5.067 13.199 5.067 10.729 5.088 C9.791 5.091 8.853 5.094 7.887 5.098 C7.023 5.103 6.159 5.108 5.268 5.114 C3 5 3 5 0 4 C0 2.68 0 1.36 0 0 Z " fill="#E9D9AF" transform="translate(27,138)"/>
<path d="M0 0 C0 0.99 0 1.98 0 3 C0.311 4.671 0.641 6.339 1 8 C1.99 8 2.98 8 4 8 C3.67 8.66 3.34 9.32 3 10 C5.97 10.33 8.94 10.66 12 11 C12 11.33 12 11.66 12 12 C7.203 12.192 3.439 11.902 -1 10 C-2.381 7.237 -2.191 5.053 -2 2 C-1.34 1.34 -0.68 0.68 0 0 Z " fill="#6E8806" transform="translate(108,46)"/>
<path d="M0 0 C0 0.99 0 1.98 0 3 C-3.269 6.178 -4.322 7 -9 7 C-9.33 5.68 -9.66 4.36 -10 3 C-7 2 -7 2 -4.438 2.062 C-2 2 -2 2 0 0 Z " fill="#F2E75E" transform="translate(45,74)"/>
<path d="M0 0 C0.402 0.01 0.402 0.01 2.438 0.062 C2.108 1.712 1.778 3.362 1.438 5.062 C-0.543 5.062 -2.523 5.062 -4.562 5.062 C-3.438 0.084 -3.438 0.084 0 0 Z " fill="#F8F1A0" transform="translate(44.5625,43.9375)"/>
<path d="M0 0 C0.825 0.33 0.825 0.33 5 2 C4.34 4.97 3.68 7.94 3 11 C2.67 11 2.34 11 2 11 C2 9.35 2 7.7 2 6 C1.34 6 0.68 6 0 6 C0 4.02 0 2.04 0 0 Z " fill="#E6D81E" transform="translate(54,66)"/>
<path d="M0 0 C1.155 0.495 1.155 0.495 7 3 C6 6 6 6 3.938 7.188 C3.298 7.456 2.659 7.724 2 8 C0.235 4.912 0 3.767 0 0 Z " fill="#A2BA0A" transform="translate(52,15)"/>
<path d="M0 0 C0.33 0 0.66 0 1 0 C1 3.96 1 7.92 1 12 C0.01 11.67 -0.98 11.34 -2 11 C-2.25 3.375 -2.25 3.375 0 0 Z " fill="#EBDF2F" transform="translate(64,51)"/>
<path d="M0 0 C1.333 2.667 2.667 5.333 4 8 C1.69 7.67 -0.62 7.34 -3 7 C-2.25 2.25 -2.25 2.25 0 0 Z " fill="#EDEBDE" transform="translate(97,44)"/>
<path d="M0 0 C0.33 0 0.66 0 1 0 C1.144 0.928 1.289 1.856 1.438 2.812 C2 6 2 6 3 9 C2.004 10.824 2.004 10.824 0.562 12.688 C0.089 13.31 -0.384 13.933 -0.871 14.574 C-1.244 15.045 -1.616 15.515 -2 16 C-2.33 15.34 -2.66 14.68 -3 14 C-2.711 13.319 -2.422 12.639 -2.125 11.938 C-0.622 8.014 -0.345 4.164 0 0 Z " fill="#E2D399" transform="translate(103,102)"/>
<path d="M0 0 C0.33 0 0.66 0 1 0 C1.33 4.29 1.66 8.58 2 13 C0.68 13 -0.64 13 -2 13 C-2.33 12.01 -2.66 11.02 -3 10 C-2.01 9.67 -1.02 9.34 0 9 C0 6.03 0 3.06 0 0 Z " fill="#A7A001" transform="translate(57,87)"/>
<path d="M0 0 C3.96 0 7.92 0 12 0 C11.67 0.165 11.67 0.165 10 1 C10 1.66 10 2.32 10 3 C6.7 3 3.4 3 0 3 C0 2.01 0 1.02 0 0 Z " fill="#94AA2D" transform="translate(110,44)"/>
<path d="M0 0 C0.66 0 1.32 0 2 0 C2.286 8.571 2.286 8.571 0 12 C-0.66 11.67 -1.32 11.34 -2 11 C-2 10.01 -2 9.02 -2 8 C-1.34 8 -0.68 8 0 8 C0 5.36 0 2.72 0 0 Z " fill="#D1C81D" transform="translate(100,101)"/>
<path d="M0 0 C0.33 0.99 0.66 1.98 1 3 C-1.762 5.762 -4.207 5.579 -8 6 C-7.67 5.01 -7.34 4.02 -7 3 C-3.438 1.312 -3.438 1.312 0 0 Z " fill="#DFD325" transform="translate(42,67)"/>
<path d="M0 0 C2.962 0.613 4.381 1.254 7 3 C6.01 3 5.02 3 4 3 C4 3.99 4 4.98 4 6 C3.01 5.67 2.02 5.34 1 5 C1 4.34 1 3.68 1 3 C0.34 3 -0.32 3 -1 3 C-0.67 2.01 -0.34 1.02 0 0 Z " fill="#E2D71E" transform="translate(24,130)"/>
<path d="M0 0 C0 0.66 0 1.32 0 2 C-3.3 2.33 -6.6 2.66 -10 3 C-10 2.34 -10 1.68 -10 1 C-6.785 -0.607 -3.564 -0.057 0 0 Z " fill="#88A809" transform="translate(74,38)"/>
<path d="M0 0 C0.66 0.33 1.32 0.66 2 1 C1.436 4.27 0.5 5.826 -2 8 C-2.66 7.01 -3.32 6.02 -4 5 C-2.68 3.35 -1.36 1.7 0 0 Z " fill="#825612" transform="translate(103,31)"/>
<path d="M0 0 C0.66 0.66 1.32 1.32 2 2 C2.99 2 3.98 2 5 2 C5.33 1.34 5.66 0.68 6 0 C5.688 2.375 5.688 2.375 5 5 C4.505 5.33 4.505 5.33 2 7 C1.34 6.67 0.68 6.34 0 6 C0 4.02 0 2.04 0 0 Z " fill="#87A604" transform="translate(78,29)"/>
<path d="M0 0 C1.65 0 3.3 0 5 0 C5 0.66 5 1.32 5 2 C1.865 3.858 -0.375 4.201 -4 4 C-4.33 4.66 -4.66 5.32 -5 6 C-5 4.68 -5 3.36 -5 2 C-3.35 2 -1.7 2 0 2 C0 1.34 0 0.68 0 0 Z " fill="#C2B93D" transform="translate(107,97)"/>
<path d="M0 0 C0.66 0 1.32 0 2 0 C2 2.64 2 5.28 2 8 C1.01 8.33 0.02 8.66 -1 9 C-1.125 2.25 -1.125 2.25 0 0 Z " fill="#CDC210" transform="translate(55,88)"/>
<path d="M0 0 C0.536 0.66 1.072 1.32 1.625 2 C4 4 4 4 7.25 4.25 C8.157 4.168 9.065 4.085 10 4 C8.71 5.376 7.373 6.708 6 8 C5.34 8 4.68 8 4 8 C2.711 6.469 2.711 6.469 1.375 4.5 C1.152 4.175 1.152 4.175 0.023 2.531 C-0.314 2.026 -0.652 1.521 -1 1 C-0.67 0.67 -0.34 0.34 0 0 Z " fill="#B2A90D" transform="translate(33,62)"/>
<path d="M0 0 C0.409 0.005 0.409 0.005 2.477 0.027 C2.79 0.033 2.79 0.033 4.375 0.062 C4.375 0.392 4.375 0.722 4.375 1.062 C3.911 1.124 3.911 1.124 1.562 1.438 C-1.625 2.062 -1.625 2.062 -4.625 4.062 C-7.312 4.188 -7.312 4.188 -9.625 4.062 C-6.41 0.702 -4.653 -0.066 0 0 Z " fill="#D7D42B" transform="translate(78.625,41.9375)"/>
<path d="M0 0 C0.33 0 0.66 0 1 0 C1 1.65 1 3.3 1 5 C0.01 4.67 -0.98 4.34 -2 4 C-2 5.32 -2 6.64 -2 8 C-2.99 7.67 -3.98 7.34 -5 7 C-4.67 5.02 -4.34 3.04 -4 1 C-3.34 1.165 -3.34 1.165 0 2 C0 1.34 0 0.68 0 0 Z " fill="#A16B18" transform="translate(110,22)"/>
<path d="M0 0 C0.66 0.33 1.32 0.66 2 1 C1.67 1.66 1.34 2.32 1 3 C0.691 3.062 0.691 3.062 -0.875 3.375 C-3.674 4.198 -4.453 5.602 -6 8 C-6.33 6.68 -6.66 5.36 -7 4 C-2.25 1.125 -2.25 1.125 0 0 Z " fill="#EDE23E" transform="translate(32,111)"/>
<path d="M0 0 C0.66 0.33 1.32 0.66 2 1 C1.67 3.97 1.34 6.94 1 10 C-0.32 10.33 -1.64 10.66 -3 11 C-2.67 10.464 -2.34 9.928 -2 9.375 C-0.775 6.467 -0.931 4.127 -1 1 C-0.67 0.67 -0.34 0.34 0 0 Z " fill="#CCC50E" transform="translate(59,54)"/>
<path d="M0 0 C0.33 0 0.66 0 1 0 C2.446 6.989 2.446 6.989 1.176 9.867 C0.062 11.5 0.062 11.5 -2 14 C-2.33 13.34 -2.66 12.68 -3 12 C-2.711 11.464 -2.422 10.928 -2.125 10.375 C-0.511 6.967 -0.375 3.746 0 0 Z " fill="#E6DB2A" transform="translate(58,43)"/>
<path d="M0 0 C0.688 1.688 0.688 1.688 1 4 C-0.312 6.75 -0.312 6.75 -2 9 C-2.66 9 -3.32 9 -4 9 C-3.355 5.515 -1.899 2.972 0 0 Z " fill="#DED422" transform="translate(116,87)"/>
<path d="M0 0 C-2.712 2.603 -3.891 2.995 -7.75 3.188 C-8.823 3.126 -9.895 3.064 -11 3 C-10 1 -10 1 -8.312 0.375 C-5.516 -0.079 -2.829 -0.064 0 0 Z " fill="#F4E5C7" transform="translate(100,132)"/>
<path d="M0 0 C2.108 4.216 2.177 6.398 2 11 C1.01 11.33 0.02 11.66 -1 12 C-0.67 8.04 -0.34 4.08 0 0 Z " fill="#6A8101" transform="translate(119,80)"/>
<path d="M0 0 C0.66 0.99 1.32 1.98 2 3 C0.726 5.038 -0.611 7.039 -2 9 C-2.66 9 -3.32 9 -4 9 C-2.941 5.597 -1.991 2.986 0 0 Z " fill="#C68F2A" transform="translate(105,23)"/>
<path d="M0 0 C-2.052 2.248 -3.007 3.002 -6 4 C-6.33 3.01 -6.66 2.02 -7 1 C-3.375 -1.125 -3.375 -1.125 0 0 Z " fill="#C7B94F" transform="translate(98,120)"/>
<path d="M0 0 C0.33 0 0.66 0 1 0 C1.33 2.97 1.66 5.94 2 9 C0.68 9.33 -0.64 9.66 -2 10 C-2.33 8.35 -2.66 6.7 -3 5 C-2.34 5.66 -1.68 6.32 -1 7 C-0.67 4.69 -0.34 2.38 0 0 Z " fill="#AA975F" transform="translate(101,39)"/>
<path d="M0 0 C0.66 0 1.32 0 2 0 C1.812 2.312 1.812 2.312 1 5 C-1.562 6.812 -1.562 6.812 -4 8 C-2.667 5.333 -1.333 2.667 0 0 Z " fill="#BCB032" transform="translate(75,125)"/>
<path d="M0 0 C3.375 0.312 3.375 0.312 7 1 C7.66 1.99 8.32 2.98 9 4 C7.515 3.67 7.515 3.67 0 2 C0 1.34 0 0.68 0 0 Z " fill="#7B9504" transform="translate(123,76)"/>
<path d="M0 0 C1.938 0.25 1.938 0.25 4 1 C4.66 1.99 5.32 2.98 6 4 C3.625 4.188 3.625 4.188 1 4 C0.34 3.01 -0.32 2.02 -1 1 C-0.67 0.67 -0.34 0.34 0 0 Z " fill="#789103" transform="translate(114,63)"/>
<path d="M0 0 C0.33 0 0.66 0 1 0 C1.144 0.784 1.289 1.568 1.438 2.375 C2 5 2 5 3 7 C3.66 7 4.32 7 5 7 C4.67 7.66 4.34 8.32 4 9 C2.68 9 1.36 9 0 9 C0 6.03 0 3.06 0 0 Z " fill="#DDD223" transform="translate(61,56)"/>
<path d="M0 0 C-0.33 0.99 -0.66 1.98 -1 3 C-3.31 2.67 -5.62 2.34 -8 2 C-6.142 -1.716 -3.445 -1.069 0 0 Z " fill="#E0D356" transform="translate(92,44)"/>
<path d="M0 0 C0.99 0.33 1.98 0.66 3 1 C2.67 1.495 2.67 1.495 1 4 C0.615 5.655 0.272 7.322 0 9 C-1.125 7.312 -1.125 7.312 -2 5 C-1.125 2.25 -1.125 2.25 0 0 Z " fill="#F0E9DC" transform="translate(104,35)"/>
</svg>
