<?xml version="1.0" encoding="UTF-8"?>
<!-- Generator: visioncortex VTracer 0.6.12 -->
<svg version="1.1" xmlns="http://www.w3.org/2000/svg" width="311" height="515">
<path d="M0 0 C102.63 0 205.26 0 311 0 C311 169.95 311 339.9 311 515 C208.37 515 105.74 515 0 515 C0 345.05 0 175.1 0 0 Z " fill="#FBF2DB" transform="translate(0,0)"/>
<path d="M0 0 C31.755 24.515 47.491 62.455 52.897 101.365 C53.898 109.848 53.895 118.387 53.922 126.918 C53.925 127.734 53.928 128.549 53.931 129.39 C53.945 146.094 52.403 162.147 47.189 178.102 C46.609 180.293 46.609 180.293 46.609 184.043 C46.609 187.908 45.466 189.951 43.609 193.293 C43.458 193.92 43.306 194.547 43.15 195.193 C42.531 197.596 41.564 199.513 40.395 201.699 C39.956 202.526 39.517 203.352 39.064 204.203 C38.605 205.058 38.145 205.912 37.672 206.793 C36.767 208.491 35.862 210.189 34.957 211.887 C34.555 212.636 34.153 213.386 33.739 214.158 C32.996 215.562 32.272 216.976 31.568 218.4 C28.87 223.727 25.075 228.345 21.383 233.004 C20.287 234.418 19.223 235.857 18.211 237.332 C13.965 243.492 8.509 247.762 2.609 252.293 C1.858 252.886 1.106 253.479 0.332 254.09 C-6.097 259.075 -12.765 261.908 -20.453 264.418 C-21.243 264.682 -22.032 264.946 -22.846 265.219 C-26.676 266.484 -30.41 267.598 -34.391 268.293 C-34.987 268.48 -35.584 268.667 -36.199 268.859 C-40.273 269.665 -44.497 269.288 -48.635 269.166 C-52.46 269.106 -54.124 269.115 -57.391 271.293 C-56.401 272.943 -55.411 274.593 -54.391 276.293 C-56.701 276.293 -59.011 276.293 -61.391 276.293 C-61.391 275.633 -61.391 274.973 -61.391 274.293 C-62.051 274.293 -62.711 274.293 -63.391 274.293 C-63.598 273.727 -63.806 273.161 -64.02 272.578 C-64.984 270.281 -65.917 268.306 -67.391 266.293 C-70.953 265.48 -70.953 265.48 -74.391 265.293 C-76.078 263.855 -76.078 263.855 -77.391 262.293 C-79.578 261.105 -79.578 261.105 -81.391 260.293 C-81.391 260.953 -81.391 261.613 -81.391 262.293 C-80.731 262.293 -80.071 262.293 -79.391 262.293 C-79.391 262.953 -79.391 263.613 -79.391 264.293 C-81.041 263.963 -82.691 263.633 -84.391 263.293 C-84.391 261.973 -84.391 260.653 -84.391 259.293 C-85.051 259.293 -85.711 259.293 -86.391 259.293 C-86.391 258.633 -86.391 257.973 -86.391 257.293 C-87.504 257.19 -88.618 257.087 -89.766 256.98 C-90.364 256.867 -90.364 256.867 -93.391 256.293 C-94.051 255.303 -94.711 254.313 -95.391 253.293 C-97.516 252.605 -97.516 252.605 -99.391 252.293 C-99.473 251.798 -99.473 251.798 -99.891 249.293 C-100.864 245.911 -102.269 244.179 -104.828 241.793 C-125.679 222.111 -138.167 191.978 -143.391 164.293 C-143.496 163.75 -143.496 163.75 -144.031 161.004 C-152.24 115.621 -143.742 67.136 -118 28.578 C-115.9 25.704 -113.719 22.986 -111.391 20.293 C-110.97 19.798 -110.549 19.303 -110.115 18.793 C-81.717 -14.384 -37.566 -26.824 0 0 Z " fill="#93CB14" transform="translate(182.390625,175.70703125)"/>
<path d="M0 0 C102.63 0 205.26 0 311 0 C311 169.95 311 339.9 311 515 C208.37 515 105.74 515 0 515 C0 513.35 0 511.7 0 510 C0.303 509.999 0.303 509.999 1.837 509.996 C37.736 509.915 73.634 509.824 109.533 509.72 C113.84 509.707 118.148 509.695 122.455 509.683 C122.884 509.681 122.884 509.681 125.053 509.675 C138.951 509.635 152.849 509.603 166.747 509.573 C181 509.541 195.252 509.503 209.505 509.457 C218.305 509.429 227.105 509.407 235.905 509.393 C241.933 509.382 247.962 509.364 253.99 509.341 C257.472 509.327 260.954 509.317 264.436 509.316 C268.205 509.312 271.974 509.297 275.744 509.278 C276.298 509.279 276.298 509.279 279.101 509.284 C280.107 509.277 281.112 509.269 282.149 509.262 C282.584 509.261 282.584 509.261 284.787 509.255 C287 509 287 509 290 507 C290.298 504.565 290.397 502.383 290.369 499.945 C290.371 499.576 290.371 499.576 290.38 497.707 C290.388 495.207 290.374 492.707 290.361 490.207 C290.362 488.407 290.365 486.607 290.369 484.807 C290.375 479.84 290.363 474.874 290.348 469.907 C290.335 464.559 290.34 459.21 290.342 453.862 C290.343 444.589 290.334 435.316 290.317 426.043 C290.293 412.636 290.285 399.228 290.281 385.821 C290.275 364.071 290.255 342.32 290.226 320.57 C290.199 299.436 290.178 278.303 290.165 257.169 C290.164 255.868 290.163 254.566 290.162 253.225 C290.158 246.694 290.155 240.164 290.151 233.633 C290.12 179.422 290.067 125.211 290 71 C286.5 69.423 283.766 68.748 279.934 68.738 C278.931 68.731 277.928 68.723 276.895 68.716 C276.348 68.717 276.348 68.717 273.579 68.722 C272.411 68.716 271.243 68.71 270.039 68.704 C266.801 68.69 263.563 68.685 260.325 68.683 C256.831 68.68 253.338 68.664 249.845 68.651 C243.793 68.628 237.742 68.613 231.691 68.603 C222.941 68.589 214.192 68.563 205.443 68.535 C191.248 68.49 177.053 68.453 162.858 68.422 C149.069 68.392 135.28 68.357 121.49 68.317 C120.64 68.315 119.791 68.312 118.915 68.31 C114.651 68.298 110.387 68.285 106.122 68.273 C70.748 68.169 35.374 68.081 0 68 C0 45.56 0 23.12 0 0 Z " fill="#FDFDFD" transform="translate(0,0)"/>
<path d="M0 0 C14.263 11.011 33.381 29.969 37.289 48.52 C37.395 49.435 37.5 50.35 37.609 51.293 C37.936 52.961 38.267 54.628 38.609 56.293 C37.619 55.963 36.629 55.633 35.609 55.293 C34.745 58.752 34.701 60.885 35.609 64.293 C35.279 65.283 34.949 66.273 34.609 67.293 C35.047 69.48 35.047 69.48 35.609 71.293 C34.619 71.953 33.629 72.613 32.609 73.293 C29.609 72.293 29.609 72.293 28.422 70.23 C28.288 69.911 28.288 69.911 27.609 68.293 C28.249 68.169 28.888 68.045 29.547 67.918 C30.227 67.712 30.908 67.505 31.609 67.293 C31.939 66.633 32.269 65.973 32.609 65.293 C27.392 64.674 27.392 64.674 24.609 65.293 C23.049 66.989 22.008 68.753 20.84 70.734 C19.609 72.293 19.609 72.293 16.297 72.73 C15.41 72.586 14.523 72.442 13.609 72.293 C13.279 73.283 12.949 74.273 12.609 75.293 C11.949 74.633 11.289 73.973 10.609 73.293 C10.939 72.303 11.269 71.313 11.609 70.293 C9.959 70.293 8.309 70.293 6.609 70.293 C6.939 69.633 7.269 68.973 7.609 68.293 C9.599 67.771 11.591 67.255 13.598 66.801 C15.792 66.247 17.655 65.433 19.609 64.293 C18.289 65.943 16.969 67.593 15.609 69.293 C16.784 68.535 17.949 67.761 19.109 66.98 C19.434 66.766 19.434 66.766 21.078 65.68 C21.583 65.222 22.089 64.764 22.609 64.293 C22.609 63.303 22.609 62.313 22.609 61.293 C22.939 60.303 23.269 59.313 23.609 58.293 C24.269 57.963 24.929 57.633 25.609 57.293 C25.609 55.313 25.609 53.333 25.609 51.293 C24.949 51.293 24.289 51.293 23.609 51.293 C23.609 51.953 23.609 52.613 23.609 53.293 C21.276 53.293 18.943 53.293 16.609 53.293 C16.279 53.953 15.949 54.613 15.609 55.293 C14.949 55.293 14.289 55.293 13.609 55.293 C15.003 51.926 16.588 50.307 19.609 48.293 C18.949 47.963 18.289 47.633 17.609 47.293 C15.924 48.262 14.258 49.263 12.609 50.293 C11.949 50.293 11.289 50.293 10.609 50.293 C10.609 49.633 10.609 48.973 10.609 48.293 C9.619 47.963 8.629 47.633 7.609 47.293 C7.609 47.953 7.609 48.613 7.609 49.293 C6.949 49.293 6.289 49.293 5.609 49.293 C5.609 48.633 5.609 47.973 5.609 47.293 C4.949 47.293 4.289 47.293 3.609 47.293 C3.609 48.283 3.609 49.273 3.609 50.293 C2.289 50.623 0.969 50.953 -0.391 51.293 C-0.391 50.633 -0.391 49.973 -0.391 49.293 C-1.051 49.293 -1.711 49.293 -2.391 49.293 C-2.721 50.283 -3.051 51.273 -3.391 52.293 C-4.381 51.963 -5.371 51.633 -6.391 51.293 C-8.266 51.605 -8.266 51.605 -10.391 52.293 C-11.278 52.54 -12.164 52.788 -13.078 53.043 C-15.391 54.293 -15.391 54.293 -16.203 56.918 C-16.265 57.702 -16.327 58.485 -16.391 59.293 C-15.401 59.623 -14.411 59.953 -13.391 60.293 C-13.597 60.912 -13.803 61.53 -14.016 62.168 C-14.077 62.519 -14.077 62.519 -14.391 64.293 C-13.731 64.953 -13.071 65.613 -12.391 66.293 C-11.731 65.633 -11.071 64.973 -10.391 64.293 C-9.447 66.083 -8.503 67.874 -7.559 69.664 C-6.391 71.293 -6.391 71.293 -3.391 72.293 C-2.401 71.303 -1.411 70.313 -0.391 69.293 C0.599 70.283 1.589 71.273 2.609 72.293 C1.24 75.454 0.62 76.286 -2.391 78.293 C-2.391 78.953 -2.391 79.613 -2.391 80.293 C-1.731 80.623 -1.071 80.953 -0.391 81.293 C-0.391 82.283 -0.391 83.273 -0.391 84.293 C-1.051 84.293 -1.711 84.293 -2.391 84.293 C-2.391 85.283 -2.391 86.273 -2.391 87.293 C-3.051 87.293 -3.711 87.293 -4.391 87.293 C-4.391 86.633 -4.391 85.973 -4.391 85.293 C-5.051 85.293 -5.711 85.293 -6.391 85.293 C-6.523 85.968 -6.656 86.644 -6.793 87.34 C-6.97 88.232 -7.146 89.124 -7.328 90.043 C-7.502 90.925 -7.676 91.806 -7.855 92.715 C-8.032 93.566 -8.209 94.416 -8.391 95.293 C-8.535 96.035 -8.679 96.778 -8.828 97.543 C-9.391 99.293 -9.391 99.293 -11.453 100.543 C-12.093 100.79 -12.732 101.038 -13.391 101.293 C-14.051 99.643 -14.711 97.993 -15.391 96.293 C-17.371 96.623 -19.351 96.953 -21.391 97.293 C-19.391 93.96 -17.391 90.626 -15.391 87.293 C-16.711 87.293 -18.031 87.293 -19.391 87.293 C-19.226 86.633 -19.226 86.633 -18.391 83.293 C-17.731 83.293 -17.071 83.293 -16.391 83.293 C-16.061 82.303 -15.731 81.313 -15.391 80.293 C-14.739 78.952 -14.075 77.617 -13.391 76.293 C-21.141 77.168 -21.141 77.168 -23.391 78.293 C-24.051 77.963 -24.711 77.633 -25.391 77.293 C-25.721 77.953 -26.051 78.613 -26.391 79.293 C-25.758 80.643 -25.09 81.976 -24.391 83.293 C-24.391 83.953 -24.391 84.613 -24.391 85.293 C-25.051 85.293 -25.711 85.293 -26.391 85.293 C-26.391 85.953 -26.391 86.613 -26.391 87.293 C-29.926 91.136 -34.486 90.989 -39.391 91.293 C-38.071 90.633 -36.751 89.973 -35.391 89.293 C-35.391 88.633 -35.391 87.973 -35.391 87.293 C-34.731 86.963 -34.071 86.633 -33.391 86.293 C-33.721 85.303 -34.051 84.313 -34.391 83.293 C-35.051 83.293 -35.711 83.293 -36.391 83.293 C-35.731 83.953 -35.071 84.613 -34.391 85.293 C-35.174 85.252 -35.958 85.21 -36.766 85.168 C-39.391 85.293 -39.391 85.293 -41.391 87.293 C-44.516 87.418 -44.516 87.418 -47.391 87.293 C-47.04 88.386 -46.689 89.479 -46.328 90.605 C-45.391 94.293 -45.391 94.293 -46.391 97.293 C-47.051 97.293 -47.711 97.293 -48.391 97.293 C-48.391 98.283 -48.391 99.273 -48.391 100.293 C-50.641 102.043 -50.641 102.043 -53.391 103.293 C-55.703 102.98 -55.703 102.98 -57.391 102.293 C-57.659 102.912 -57.927 103.53 -58.203 104.168 C-59.391 106.293 -59.391 106.293 -62.391 108.293 C-63.442 109.928 -64.451 111.592 -65.391 113.293 C-67.041 112.963 -68.691 112.633 -70.391 112.293 C-70.391 113.283 -70.391 114.273 -70.391 115.293 C-72.203 116.355 -72.203 116.355 -74.391 117.293 C-75.381 116.963 -76.371 116.633 -77.391 116.293 C-76.731 116.293 -76.071 116.293 -75.391 116.293 C-75.597 115.695 -75.803 115.097 -76.016 114.48 C-76.391 112.293 -76.391 112.293 -74.391 109.293 C-75.876 109.623 -75.876 109.623 -83.391 111.293 C-80.901 108.626 -78.757 106.736 -75.391 105.293 C-75.391 104.633 -75.391 103.973 -75.391 103.293 C-74.731 102.633 -74.071 101.973 -73.391 101.293 C-73.391 100.633 -73.391 99.973 -73.391 99.293 C-72.277 99.045 -71.163 98.798 -70.016 98.543 C-66.391 97.293 -66.391 97.293 -65.328 95.355 C-65.019 94.675 -64.709 93.994 -64.391 93.293 C-61.266 91.543 -61.266 91.543 -58.391 90.293 C-58.886 89.963 -58.886 89.963 -61.391 88.293 C-61.391 87.633 -61.391 86.973 -61.391 86.293 C-55.641 83.293 -55.641 83.293 -53.391 83.293 C-53.391 82.633 -53.391 81.973 -53.391 81.293 C-54.546 81.623 -54.546 81.623 -60.391 83.293 C-60.391 83.953 -60.391 84.613 -60.391 85.293 C-61.051 85.293 -61.711 85.293 -62.391 85.293 C-62.391 85.953 -62.391 86.613 -62.391 87.293 C-62.886 87.458 -62.886 87.458 -65.391 88.293 C-65.391 84.293 -65.391 84.293 -63.391 82.293 C-63.886 82.128 -63.886 82.128 -66.391 81.293 C-66.061 80.798 -66.061 80.798 -64.391 78.293 C-63.731 78.293 -63.071 78.293 -62.391 78.293 C-62.391 77.633 -62.391 76.973 -62.391 76.293 C-63.051 75.963 -63.711 75.633 -64.391 75.293 C-64.391 74.633 -64.391 73.973 -64.391 73.293 C-64.886 73.458 -64.886 73.458 -67.391 74.293 C-68.051 73.963 -68.711 73.633 -69.391 73.293 C-69.391 70.983 -69.391 68.673 -69.391 66.293 C-68.071 65.633 -66.751 64.973 -65.391 64.293 C-65.391 63.633 -65.391 62.973 -65.391 62.293 C-65.886 62.128 -65.886 62.128 -68.391 61.293 C-68.226 60.798 -68.226 60.798 -67.391 58.293 C-67.948 59.118 -68.504 59.943 -69.078 60.793 C-71.391 63.293 -71.391 63.293 -74.141 63.605 C-74.883 63.502 -75.626 63.399 -76.391 63.293 C-76.721 62.303 -77.051 61.313 -77.391 60.293 C-76.401 59.303 -75.411 58.313 -74.391 57.293 C-75.711 57.293 -77.031 57.293 -78.391 57.293 C-78.391 57.953 -78.391 58.613 -78.391 59.293 C-78.782 59.324 -78.782 59.324 -80.766 59.48 C-81.199 59.615 -81.199 59.615 -83.391 60.293 C-84.108 61.938 -84.774 63.607 -85.391 65.293 C-87.516 66.605 -87.516 66.605 -89.391 67.293 C-88.401 67.953 -87.411 68.613 -86.391 69.293 C-87.381 70.283 -88.371 71.273 -89.391 72.293 C-89.391 71.633 -89.391 70.973 -89.391 70.293 C-90.174 70.334 -90.958 70.375 -91.766 70.418 C-94.391 70.293 -94.391 70.293 -96.391 68.293 C-97.051 69.943 -97.711 71.593 -98.391 73.293 C-97.731 72.633 -97.071 71.973 -96.391 71.293 C-94.266 71.668 -94.266 71.668 -92.391 72.293 C-95.152 75.607 -97.186 76.556 -101.32 77.531 C-105.824 79.188 -109.565 82.457 -113.391 85.293 C-113.886 85.623 -113.886 85.623 -116.391 87.293 C-116.391 88.613 -116.391 89.933 -116.391 91.293 C-117.051 91.293 -117.711 91.293 -118.391 91.293 C-119.051 90.303 -119.711 89.313 -120.391 88.293 C-121.711 88.293 -123.031 88.293 -124.391 88.293 C-124.061 89.283 -123.731 90.273 -123.391 91.293 C-124.051 92.283 -124.711 93.273 -125.391 94.293 C-125.391 95.283 -125.391 96.273 -125.391 97.293 C-124.401 97.293 -123.411 97.293 -122.391 97.293 C-122.721 98.283 -123.051 99.273 -123.391 100.293 C-123.875 100.427 -123.875 100.427 -126.328 101.105 C-129.391 102.293 -129.391 102.293 -130.703 105.23 C-130.93 106.241 -131.157 107.252 -131.391 108.293 C-131.721 109.283 -132.051 110.273 -132.391 111.293 C-131.731 111.953 -131.071 112.613 -130.391 113.293 C-131.051 113.623 -131.051 113.623 -134.391 115.293 C-133.731 115.953 -133.071 116.613 -132.391 117.293 C-132.721 117.953 -132.721 117.953 -134.391 121.293 C-133.731 121.953 -133.071 122.613 -132.391 123.293 C-132.721 123.623 -133.051 123.953 -133.391 124.293 C-132.731 124.953 -132.071 125.613 -131.391 126.293 C-132.051 127.283 -132.711 128.273 -133.391 129.293 C-132.391 131.293 -132.391 131.293 -129.391 133.293 C-129.793 133.437 -129.793 133.437 -131.828 134.168 C-134.391 135.293 -134.391 135.293 -135.391 137.293 C-132.751 136.963 -130.111 136.633 -127.391 136.293 C-128.216 136.912 -129.041 137.53 -129.891 138.168 C-130.716 138.869 -131.541 139.57 -132.391 140.293 C-132.391 140.953 -132.391 141.613 -132.391 142.293 C-132.721 142.623 -133.051 142.953 -133.391 143.293 C-133.061 143.953 -132.731 144.613 -132.391 145.293 C-131.401 145.623 -130.411 145.953 -129.391 146.293 C-129.391 146.953 -129.391 147.613 -129.391 148.293 C-127.741 148.293 -126.091 148.293 -124.391 148.293 C-124.391 148.953 -124.391 149.613 -124.391 150.293 C-125.051 150.293 -125.711 150.293 -126.391 150.293 C-126.391 151.283 -126.391 152.273 -126.391 153.293 C-125.731 153.623 -125.071 153.953 -124.391 154.293 C-124.391 154.953 -124.391 155.613 -124.391 156.293 C-125.051 156.623 -125.051 156.623 -128.391 158.293 C-127.391 161.293 -127.391 161.293 -124.391 163.293 C-123.391 164.293 -123.391 164.293 -122.391 166.293 C-126.065 167.469 -129.56 167.367 -133.391 167.293 C-133.226 166.633 -133.226 166.633 -132.391 163.293 C-133.381 163.623 -134.371 163.953 -135.391 164.293 C-135.061 162.643 -134.731 160.993 -134.391 159.293 C-135.381 158.963 -136.371 158.633 -137.391 158.293 C-137.391 157.633 -137.391 156.973 -137.391 156.293 C-136.401 155.963 -135.411 155.633 -134.391 155.293 C-135.051 154.963 -135.711 154.633 -136.391 154.293 C-135.885 152.124 -135.391 150.293 -134.391 148.293 C-138.448 146.585 -140.137 145.875 -144.391 147.293 C-144.391 141.626 -144.391 135.96 -144.391 130.293 C-144.406 129.77 -144.406 129.77 -144.486 127.126 C-145.062 107.61 -144.944 89.938 -138.391 71.293 C-137.951 69.914 -137.513 68.533 -137.078 67.152 C-131.585 50.525 -122.854 33.552 -111.391 20.293 C-110.97 19.798 -110.549 19.303 -110.115 18.793 C-81.717 -14.384 -37.566 -26.824 0 0 Z M1.609 45.293 C1.279 46.283 0.949 47.273 0.609 48.293 C1.269 48.293 1.929 48.293 2.609 48.293 C2.939 47.303 3.269 46.313 3.609 45.293 C2.949 45.293 2.289 45.293 1.609 45.293 Z M-64.391 71.293 C-64.391 71.953 -64.391 72.613 -64.391 73.293 C-63.401 72.963 -62.411 72.633 -61.391 72.293 C-62.381 71.963 -63.371 71.633 -64.391 71.293 Z " fill="#95CD18" transform="translate(182.390625,175.70703125)"/>
<path d="M0 0 C7.652 5.981 13.853 11.58 18.469 20.152 C20.219 22.09 20.219 22.09 21.469 23.152 C21.139 23.812 20.809 24.472 20.469 25.152 C19.809 25.152 19.149 25.152 18.469 25.152 C12.822 26.799 12.822 26.799 10.469 29.152 C10.139 27.502 9.809 25.852 9.469 24.152 C2.594 26.902 2.594 26.902 1.469 29.152 C0.809 28.822 0.149 28.492 -0.531 28.152 C0.156 26.215 0.156 26.215 1.469 24.152 C4.094 23.402 4.094 23.402 6.469 23.152 C5.479 22.822 4.489 22.492 3.469 22.152 C2.479 21.822 1.489 21.492 0.469 21.152 C-0.262 19.305 -0.262 19.305 -0.719 17.09 C-0.877 16.356 -1.036 15.623 -1.199 14.867 C-1.309 14.301 -1.418 13.735 -1.531 13.152 C-7.281 16.777 -7.281 16.777 -9.531 20.152 C-10.521 20.482 -11.511 20.812 -12.531 21.152 C-13.191 22.142 -13.851 23.132 -14.531 24.152 C-15.191 23.822 -15.851 23.492 -16.531 23.152 C-16.15 22.781 -16.15 22.781 -14.219 20.902 C-12.092 18.726 -10.275 16.631 -8.531 14.152 C-9.191 14.317 -9.191 14.317 -12.531 15.152 C-12.531 16.142 -12.531 17.132 -12.531 18.152 C-13.356 18.317 -13.356 18.317 -17.531 19.152 C-17.531 18.492 -17.531 17.832 -17.531 17.152 C-18.191 17.152 -18.851 17.152 -19.531 17.152 C-19.531 16.492 -19.531 15.832 -19.531 15.152 C-21.181 15.152 -22.831 15.152 -24.531 15.152 C-24.861 15.812 -25.191 16.472 -25.531 17.152 C-25.201 15.172 -24.871 13.192 -24.531 11.152 C-26.531 11.11 -28.532 11.112 -30.531 11.152 C-30.696 11.317 -30.696 11.317 -31.531 12.152 C-33.594 11.715 -33.594 11.715 -35.531 11.152 C-35.696 11.977 -35.696 11.977 -36.531 16.152 C-36.201 15.492 -35.871 14.832 -35.531 14.152 C-31.595 15.465 -29.304 17.071 -26.531 20.152 C-29.171 19.492 -31.811 18.832 -34.531 18.152 C-35.191 19.142 -35.851 20.132 -36.531 21.152 C-39.156 21.34 -39.156 21.34 -41.531 21.152 C-41.531 19.172 -41.531 17.192 -41.531 15.152 C-42.026 15.317 -42.026 15.317 -44.531 16.152 C-44.861 15.822 -44.861 15.822 -46.531 14.152 C-46.156 11.527 -46.156 11.527 -45.531 9.152 C-47.511 10.142 -49.491 11.132 -51.531 12.152 C-51.861 11.822 -52.191 11.492 -52.531 11.152 C-54.594 11.59 -54.594 11.59 -56.531 12.152 C-56.325 12.936 -56.119 13.72 -55.906 14.527 C-55.782 15.394 -55.659 16.26 -55.531 17.152 C-55.861 17.482 -55.861 17.482 -57.531 19.152 C-57.861 18.822 -58.191 18.492 -58.531 18.152 C-58.861 19.142 -59.191 20.132 -59.531 21.152 C-60.191 21.152 -60.851 21.152 -61.531 21.152 C-62.281 18.902 -62.281 18.902 -62.531 16.152 C-60.594 13.84 -60.594 13.84 -58.531 12.152 C-60.406 12.465 -60.406 12.465 -62.531 13.152 C-62.861 13.647 -62.861 13.647 -64.531 16.152 C-65.851 15.162 -67.171 14.172 -68.531 13.152 C-68.531 14.142 -68.531 15.132 -68.531 16.152 C-67.871 16.482 -67.211 16.812 -66.531 17.152 C-65.865 18.486 -65.198 19.819 -64.531 21.152 C-65.098 21.39 -65.098 21.39 -67.969 22.59 C-71.531 24.152 -71.531 24.152 -72.531 25.152 C-71.727 25.544 -70.922 25.936 -70.094 26.34 C-67.531 28.152 -67.531 28.152 -66.844 30.777 C-66.741 31.561 -66.638 32.345 -66.531 33.152 C-65.871 33.482 -65.211 33.812 -64.531 34.152 C-65.851 34.482 -67.171 34.812 -68.531 35.152 C-68.531 35.812 -68.531 36.472 -68.531 37.152 C-69.191 37.152 -69.851 37.152 -70.531 37.152 C-70.531 36.492 -70.531 35.832 -70.531 35.152 C-73.501 35.812 -76.471 36.472 -79.531 37.152 C-79.861 38.472 -80.191 39.792 -80.531 41.152 C-80.861 41.152 -81.191 41.152 -81.531 41.152 C-81.696 40.162 -81.696 40.162 -82.531 35.152 C-83.656 36.902 -83.656 36.902 -84.531 39.152 C-83.656 41.402 -83.656 41.402 -82.531 43.152 C-83.191 43.152 -83.851 43.152 -84.531 43.152 C-84.696 43.482 -84.696 43.482 -85.531 45.152 C-85.861 44.162 -86.191 43.172 -86.531 42.152 C-86.861 41.987 -86.861 41.987 -88.531 41.152 C-88.861 42.142 -89.191 43.132 -89.531 44.152 C-90.191 44.812 -90.851 45.472 -91.531 46.152 C-89.551 46.152 -87.571 46.152 -85.531 46.152 C-85.531 47.142 -85.531 48.132 -85.531 49.152 C-83.221 47.502 -80.911 45.852 -78.531 44.152 C-77.871 44.482 -77.211 44.812 -76.531 45.152 C-81.742 49.362 -87.116 52.653 -93.047 55.758 C-95.531 57.152 -95.531 57.152 -98.469 59.59 C-99.149 60.105 -99.83 60.621 -100.531 61.152 C-102.656 60.84 -102.656 60.84 -104.531 60.152 C-105.521 60.482 -106.511 60.812 -107.531 61.152 C-109.195 61.501 -110.861 61.836 -112.531 62.152 C-112.201 62.482 -112.201 62.482 -110.531 64.152 C-111.851 66.462 -113.171 68.772 -114.531 71.152 C-115.191 71.152 -115.851 71.152 -116.531 71.152 C-116.861 72.142 -117.191 73.132 -117.531 74.152 C-115.551 74.812 -113.571 75.472 -111.531 76.152 C-111.531 76.482 -111.531 76.812 -111.531 77.152 C-112.459 77.297 -113.388 77.441 -114.344 77.59 C-117.531 78.152 -117.531 78.152 -120.531 79.152 C-120.531 80.142 -120.531 81.132 -120.531 82.152 C-119.871 82.152 -119.211 82.152 -118.531 82.152 C-118.531 82.812 -118.531 83.472 -118.531 84.152 C-117.871 84.482 -117.211 84.812 -116.531 85.152 C-116.531 84.162 -116.531 83.172 -116.531 82.152 C-114.551 82.152 -112.571 82.152 -110.531 82.152 C-111.336 82.709 -112.14 83.266 -112.969 83.84 C-115.774 86.371 -116.225 87.478 -116.531 91.152 C-117.191 91.152 -117.851 91.152 -118.531 91.152 C-119.191 90.162 -119.851 89.172 -120.531 88.152 C-121.851 88.152 -123.171 88.152 -124.531 88.152 C-124.201 89.142 -123.871 90.132 -123.531 91.152 C-124.191 92.142 -124.851 93.132 -125.531 94.152 C-125.531 95.142 -125.531 96.132 -125.531 97.152 C-124.541 97.152 -123.551 97.152 -122.531 97.152 C-122.861 98.142 -123.191 99.132 -123.531 100.152 C-124.016 100.286 -124.016 100.286 -126.469 100.965 C-129.531 102.152 -129.531 102.152 -130.844 105.09 C-131.071 106.1 -131.298 107.111 -131.531 108.152 C-131.861 109.142 -132.191 110.132 -132.531 111.152 C-131.871 111.812 -131.211 112.472 -130.531 113.152 C-131.191 113.482 -131.191 113.482 -134.531 115.152 C-133.871 115.812 -133.211 116.472 -132.531 117.152 C-132.861 117.812 -132.861 117.812 -134.531 121.152 C-133.871 121.812 -133.211 122.472 -132.531 123.152 C-132.861 123.482 -133.191 123.812 -133.531 124.152 C-132.871 124.812 -132.211 125.472 -131.531 126.152 C-132.191 127.142 -132.851 128.132 -133.531 129.152 C-132.531 131.152 -132.531 131.152 -129.531 133.152 C-129.933 133.297 -129.933 133.297 -131.969 134.027 C-134.531 135.152 -134.531 135.152 -135.531 137.152 C-132.891 136.822 -130.251 136.492 -127.531 136.152 C-128.356 136.771 -129.181 137.39 -130.031 138.027 C-130.856 138.729 -131.681 139.43 -132.531 140.152 C-132.531 140.812 -132.531 141.472 -132.531 142.152 C-132.861 142.482 -133.191 142.812 -133.531 143.152 C-133.201 143.812 -132.871 144.472 -132.531 145.152 C-131.541 145.482 -130.551 145.812 -129.531 146.152 C-129.531 146.812 -129.531 147.472 -129.531 148.152 C-127.881 148.152 -126.231 148.152 -124.531 148.152 C-124.531 148.812 -124.531 149.472 -124.531 150.152 C-125.191 150.152 -125.851 150.152 -126.531 150.152 C-126.531 151.142 -126.531 152.132 -126.531 153.152 C-125.871 153.482 -125.211 153.812 -124.531 154.152 C-124.531 154.812 -124.531 155.472 -124.531 156.152 C-125.191 156.482 -125.191 156.482 -128.531 158.152 C-127.531 161.152 -127.531 161.152 -124.531 163.152 C-123.531 164.152 -123.531 164.152 -122.531 166.152 C-126.205 167.328 -129.701 167.226 -133.531 167.152 C-133.366 166.492 -133.366 166.492 -132.531 163.152 C-133.521 163.482 -134.511 163.812 -135.531 164.152 C-135.201 162.502 -134.871 160.852 -134.531 159.152 C-135.521 158.822 -136.511 158.492 -137.531 158.152 C-137.531 157.492 -137.531 156.832 -137.531 156.152 C-136.541 155.822 -135.551 155.492 -134.531 155.152 C-135.191 154.822 -135.851 154.492 -136.531 154.152 C-136.025 151.984 -135.531 150.153 -134.531 148.152 C-138.589 146.444 -140.278 145.734 -144.531 147.152 C-144.531 141.486 -144.531 135.819 -144.531 130.152 C-144.547 129.63 -144.547 129.63 -144.626 126.986 C-145.202 107.469 -145.084 89.798 -138.531 71.152 C-138.091 69.773 -137.654 68.393 -137.219 67.012 C-131.725 50.384 -122.995 33.412 -111.531 20.152 C-111.11 19.657 -110.689 19.162 -110.255 18.652 C-81.971 -14.392 -37.343 -27.258 0 0 Z " fill="#9CD121" transform="translate(182.53125,175.84765625)"/>
<path d="M0 0 C12.484 10.305 15.775 41.245 17.559 56.367 C18.281 64.099 18.288 71.866 18.312 79.625 C18.315 80.441 18.318 81.256 18.321 82.097 C18.335 98.801 16.794 114.854 11.579 130.809 C11 133 11 133 11 136.75 C11 140.615 9.857 142.658 8 146 C7.848 146.627 7.697 147.254 7.541 147.9 C6.922 150.303 5.955 152.22 4.785 154.406 C4.346 155.233 3.907 156.059 3.455 156.91 C2.996 157.765 2.536 158.619 2.062 159.5 C1.157 161.198 0.252 162.896 -0.652 164.594 C-1.054 165.343 -1.457 166.093 -1.871 166.865 C-2.614 168.269 -3.338 169.683 -4.041 171.107 C-6.736 176.428 -10.528 181.035 -14.207 185.695 C-15.88 187.846 -17.472 190.038 -19.062 192.25 C-22.176 196.407 -25.438 200.01 -30.395 201.926 C-33.182 203.075 -35.222 204.5 -37.625 206.312 C-53.717 217.77 -74.878 222.781 -94.444 219.603 C-99.032 218.634 -103.521 217.384 -108 216 C-108 215.01 -108 214.02 -108 213 C-104.886 211.443 -101.958 212.726 -98.688 213.438 C-91.394 214.933 -84.457 215.345 -77 215 C-77.73 214.89 -78.459 214.781 -79.211 214.668 C-81.458 214.327 -83.704 213.978 -85.949 213.625 C-88.802 213.177 -91.659 212.769 -94.52 212.375 C-103.112 211.137 -110.529 209.749 -118 205 C-118 202.69 -118 200.38 -118 198 C-117.34 197.67 -116.68 197.34 -116 197 C-116 197.99 -116 198.98 -116 200 C-115.01 200.33 -114.02 200.66 -113 201 C-113 201.66 -113 202.32 -113 203 C-111.866 203.144 -110.731 203.289 -109.562 203.438 C-106 204 -106 204 -105 205 C-101.474 205.157 -98.381 205.04 -95 204 C-95 204.66 -95 205.32 -95 206 C-94.237 205.794 -93.474 205.587 -92.688 205.375 C-90 205 -90 205 -87 207 C-86.34 206.67 -86.34 206.67 -83 205 C-83 205.99 -83 206.98 -83 208 C-81.684 207.382 -80.372 206.756 -79.062 206.125 C-78.332 205.777 -77.601 205.429 -76.848 205.07 C-75 204 -75 204 -74 202 C-73.257 202.392 -72.515 202.784 -71.75 203.188 C-70.843 203.456 -69.935 203.724 -69 204 C-67.662 203.007 -66.328 202.006 -65 201 C-62 201.375 -62 201.375 -59 202 C-56.75 201.75 -56.75 201.75 -55 201 C-54.34 200.01 -53.68 199.02 -53 198 C-52.01 198.33 -51.02 198.66 -50 199 C-50 198.34 -50 197.68 -50 197 C-49.01 197 -48.02 197 -47 197 C-47.33 195.68 -47.66 194.36 -48 193 C-47.34 193 -46.68 193 -46 193 C-46.103 192.618 -46.103 192.618 -46.625 190.688 C-47 188 -47 188 -45 185 C-44.01 185 -43.02 185 -42 185 C-42.289 184.113 -42.577 183.226 -42.875 182.312 C-43 179 -43 179 -41.73 177.488 C-40.214 176.248 -38.61 175.117 -37 174 C-37.33 173.01 -37.66 172.02 -38 171 C-38.99 171.33 -39.98 171.66 -41 172 C-40.458 168.204 -38.799 166.528 -36 164 C-36.99 163.01 -37.98 162.02 -39 161 C-38.34 160.34 -37.68 159.68 -37 159 C-36.402 159.206 -35.804 159.413 -35.188 159.625 C-34.827 159.687 -34.827 159.687 -33 160 C-30.375 158.063 -30.375 158.063 -28 156 C-27.34 156 -26.68 156 -26 156 C-26 158 -26 160 -26 162 C-25.381 161.175 -24.762 160.35 -24.125 159.5 C-23.424 158.675 -22.722 157.85 -22 157 C-21.34 157 -20.68 157 -20 157 C-20 156.34 -20 155.68 -20 155 C-20.66 154.67 -21.32 154.34 -22 154 C-23.125 151.937 -23.125 151.937 -24 150 C-25.32 150.33 -26.64 150.66 -28 151 C-27.67 150.01 -27.67 150.01 -26 145 C-25.093 144.876 -24.185 144.752 -23.25 144.625 C-20.41 144.079 -18.474 143.427 -16 142 C-16.66 141.67 -16.66 141.67 -20 140 C-16.27 137.966 -14.331 137 -10 137 C-10 136.34 -10 135.68 -10 135 C-10.474 135.248 -10.474 135.248 -12.875 136.5 C-16 138 -16 138 -18 138 C-18 137.34 -18 136.68 -18 136 C-16.751 135.518 -15.501 135.04 -14.25 134.562 C-13.554 134.296 -12.858 134.029 -12.141 133.754 C-10.109 133.039 -8.096 132.486 -6 132 C-6.619 131.876 -7.238 131.752 -7.875 131.625 C-10 131 -10 131 -12 129 C-11.67 128.67 -11.34 128.34 -11 128 C-12.32 128.33 -13.64 128.66 -15 129 C-15 129.99 -15 130.98 -15 132 C-16.5 133.688 -16.5 133.688 -18 135 C-18.66 134.67 -19.32 134.34 -20 134 C-19.34 132.35 -18.68 130.7 -18 129 C-21.63 129.33 -25.26 129.66 -29 130 C-29.33 129.34 -29.66 128.68 -30 128 C-29.216 127.587 -28.433 127.175 -27.625 126.75 C-24.941 124.961 -24.119 123.95 -23 121 C-22.34 121 -21.68 121 -21 121 C-20.67 119.35 -20.34 117.7 -20 116 C-19.01 115.67 -18.02 115.34 -17 115 C-17 115.66 -17 116.32 -17 117 C-15.68 116.67 -14.36 116.34 -13 116 C-13.165 116.495 -13.165 116.495 -14 119 C-14.99 119 -15.98 119 -17 119 C-17 119.66 -17 120.32 -17 121 C-17.66 121 -18.32 121 -19 121 C-19 121.66 -19 122.32 -19 123 C-18.01 122.67 -17.02 122.34 -16 122 C-16 121.34 -16 120.68 -16 120 C-14.35 119.34 -12.7 118.68 -11 118 C-11 117.01 -11 116.02 -11 115 C-9.68 115 -8.36 115 -7 115 C-6.67 115.33 -6.34 115.66 -6 116 C-5.34 116 -4.68 116 -4 116 C-6.287 114.856 -7.593 114.897 -10.125 114.938 C-11.404 114.958 -12.683 114.979 -14 115 C-13.34 113.02 -12.68 111.04 -12 109 C-12.66 108.835 -12.66 108.835 -16 108 C-11.803 106.733 -8.364 106 -4 106 C-4 105.34 -4 104.68 -4 104 C-3.34 104 -2.68 104 -2 104 C-2 103.34 -2 102.68 -2 102 C-1.34 101.67 -0.68 101.34 0 101 C-1.65 100.34 -3.3 99.68 -5 99 C-5 98.01 -5 97.02 -5 96 C-4.113 95.711 -3.226 95.423 -2.312 95.125 C0.504 94.169 3.251 93.132 6 92 C5.897 91.474 5.897 91.474 5.375 88.812 C4.863 83.608 6.161 81.259 9 77 C8.34 76.34 7.68 75.68 7 75 C7.461 72.32 7.461 72.32 8.375 69.125 C9.406 65.475 10 62.829 10 59 C8.02 59.99 6.04 60.98 4 62 C4.165 61.237 4.33 60.474 4.5 59.688 C5 57 5 57 5 54 C4.505 53.67 4.505 53.67 2 52 C2 49 2 49 4 47 C3.625 44.875 3.625 44.875 3 43 C3.99 42.67 4.98 42.34 6 42 C4.68 41.34 3.36 40.68 2 40 C3.32 39.67 4.64 39.34 6 39 C6 38.34 6 37.68 6 37 C5.34 37 4.68 37 4 37 C3.67 36.01 3.34 35.02 3 34 C2.505 33.67 2.505 33.67 0 32 C1.65 31.34 3.3 30.68 5 30 C4.01 29.34 3.02 28.68 2 28 C4 24 4 24 5.188 22.125 C7.047 17.263 4.418 12.241 2.438 7.75 C0 2.198 0 2.198 0 0 Z M2 45 C2.33 45.66 2.66 46.32 3 47 C2.01 46.67 1.02 46.34 0 46 C0.66 45.67 1.32 45.34 2 45 Z " fill="#8CC50D" transform="translate(218,223)"/>
<path d="M0 0 C0.165 0.495 0.165 0.495 1 3 C0.34 3 -0.32 3 -1 3 C-0.835 4.32 -0.835 4.32 0 11 C-0.66 11 -1.32 11 -2 11 C-2 10.34 -2 9.68 -2 9 C-2.949 9 -3.897 9 -4.875 9 C-6.583 9 -8.292 9 -10 9 C-10.66 9.99 -11.32 10.98 -12 12 C-12.99 12 -13.98 12 -15 12 C-15 12.66 -15 13.32 -15 14 C-16.32 13.67 -17.64 13.34 -19 13 C-19.165 13.495 -19.165 13.495 -20 16 C-20.99 16 -21.98 16 -23 16 C-23.165 15.505 -23.165 15.505 -24 13 C-24.165 13.495 -24.165 13.495 -25 16 C-25.66 16 -26.32 16 -27 16 C-26.67 14.68 -26.34 13.36 -26 12 C-26.99 11.67 -27.98 11.34 -29 11 C-29.66 12.32 -30.32 13.64 -31 15 C-31.495 14.835 -31.495 14.835 -34 14 C-33.67 13.835 -33.67 13.835 -32 13 C-32.953 13.144 -33.905 13.289 -34.887 13.438 C-36.141 13.623 -37.395 13.809 -38.688 14 C-39.929 14.186 -41.17 14.371 -42.449 14.562 C-45.359 14.921 -48.077 15.089 -51 15 C-51.108 15.305 -51.108 15.305 -51.652 16.848 C-53.91 20.453 -57.71 21.119 -61.566 22.559 C-64 24 -64 24 -64.84 26.66 C-64.893 27.432 -64.946 28.204 -65 29 C-65.969 29.248 -66.939 29.495 -67.938 29.75 C-68.948 30.162 -69.959 30.575 -71 31 C-71.688 33.062 -71.688 33.062 -72 35 C-72.99 35.33 -73.98 35.66 -75 36 C-75 36.99 -75 37.98 -75 39 C-74.34 39 -73.68 39 -73 39 C-73 39.66 -73 40.32 -73 41 C-73.619 41.248 -74.237 41.495 -74.875 41.75 C-77.351 43.206 -77.951 44.378 -79 47 C-79.66 47 -80.32 47 -81 47 C-81 47.66 -81 48.32 -81 49 C-80.34 49.66 -79.68 50.32 -79 51 C-81.357 53.73 -83.581 54.889 -87 56 C-87.99 56 -88.98 56 -90 56 C-90 56.66 -90 57.32 -90 58 C-89.34 58.33 -88.68 58.66 -88 59 C-88.99 59.66 -89.98 60.32 -91 61 C-91 61.99 -91 62.98 -91 64 C-91.66 64 -92.32 64 -93 64 C-93.289 64.866 -93.578 65.733 -93.875 66.625 C-94.246 67.739 -94.618 68.853 -95 70 C-95.33 71.011 -95.66 72.021 -96 73.062 C-96.631 74.916 -97.313 76.754 -98.062 78.562 C-99.013 81.033 -99.554 83.396 -100 86 C-100.66 86 -101.32 86 -102 86 C-102.33 85.01 -102.66 84.02 -103 83 C-103 84.32 -103 85.64 -103 87 C-102.34 87 -101.68 87 -101 87 C-100.628 93.566 -100.628 93.566 -102.5 95.75 C-102.995 96.163 -103.49 96.575 -104 97 C-104 97.99 -104 98.98 -104 100 C-104.979 101.02 -105.979 102.021 -107 103 C-107 103.66 -107 104.32 -107 105 C-106.34 104.835 -106.34 104.835 -103 104 C-103.33 104.66 -103.66 105.32 -104 106 C-106.563 106.625 -106.563 106.625 -109 107 C-109.33 108.98 -109.66 110.96 -110 113 C-110.66 113 -111.32 113 -112 113 C-112 114.65 -112 116.3 -112 118 C-110.68 118.66 -109.36 119.32 -108 120 C-108.33 120.99 -108.66 121.98 -109 123 C-108.34 123.66 -107.68 124.32 -107 125 C-107.66 125.33 -107.66 125.33 -111 127 C-110.34 127.66 -109.68 128.32 -109 129 C-109.33 129.66 -109.33 129.66 -111 133 C-110.34 133.66 -109.68 134.32 -109 135 C-109.33 135.33 -109.66 135.66 -110 136 C-109.34 136.66 -108.68 137.32 -108 138 C-108.66 138.99 -109.32 139.98 -110 141 C-109 143 -109 143 -106 145 C-106.402 145.144 -106.402 145.144 -108.438 145.875 C-111 147 -111 147 -112 149 C-109.36 148.67 -106.72 148.34 -104 148 C-104.825 148.619 -105.65 149.238 -106.5 149.875 C-107.325 150.576 -108.15 151.278 -109 152 C-109 152.66 -109 153.32 -109 154 C-109.33 154.33 -109.66 154.66 -110 155 C-109.67 155.66 -109.34 156.32 -109 157 C-108.01 157.33 -107.02 157.66 -106 158 C-106 158.66 -106 159.32 -106 160 C-104.35 160 -102.7 160 -101 160 C-101 160.66 -101 161.32 -101 162 C-101.66 162 -102.32 162 -103 162 C-103 162.99 -103 163.98 -103 165 C-102.34 165.33 -101.68 165.66 -101 166 C-101 166.66 -101 167.32 -101 168 C-101.66 168.33 -101.66 168.33 -105 170 C-104 173 -104 173 -101 175 C-100 176 -100 176 -99 178 C-102.674 179.176 -106.169 179.074 -110 179 C-109.835 178.34 -109.835 178.34 -109 175 C-109.99 175.33 -110.98 175.66 -112 176 C-111.67 174.35 -111.34 172.7 -111 171 C-111.99 170.67 -112.98 170.34 -114 170 C-114 169.34 -114 168.68 -114 168 C-113.01 167.67 -112.02 167.34 -111 167 C-111.66 166.67 -112.32 166.34 -113 166 C-112.494 163.831 -112 162 -111 160 C-115.057 158.292 -116.746 157.582 -121 159 C-121 153.333 -121 147.667 -121 142 C-121.016 141.477 -121.016 141.477 -121.095 138.833 C-121.671 119.317 -121.553 101.646 -115 83 C-114.56 81.621 -114.122 80.24 -113.688 78.859 C-108.194 62.232 -99.464 45.259 -88 32 C-87.579 31.505 -87.158 31.01 -86.724 30.5 C-65.805 6.06 -32.555 -11.896 0 0 Z " fill="#B0DB3C" transform="translate(159,164)"/>
<path d="M0 0 C0.33 0 0.66 0 1 0 C1.786 27.74 1.786 27.74 -2.125 38.984 C-3.126 42.434 -3.038 45.425 -3 49 C-4.438 52.188 -4.438 52.188 -6 55 C-6.152 55.627 -6.303 56.254 -6.459 56.9 C-7.078 59.303 -8.045 61.22 -9.215 63.406 C-9.654 64.233 -10.093 65.059 -10.545 65.91 C-11.004 66.765 -11.464 67.619 -11.938 68.5 C-12.843 70.198 -13.748 71.896 -14.652 73.594 C-15.054 74.343 -15.457 75.093 -15.871 75.865 C-16.614 77.269 -17.338 78.683 -18.041 80.107 C-20.736 85.428 -24.528 90.035 -28.207 94.695 C-29.88 96.846 -31.472 99.038 -33.062 101.25 C-36.176 105.407 -39.438 109.01 -44.395 110.926 C-47.182 112.075 -49.222 113.5 -51.625 115.312 C-67.717 126.77 -88.878 131.781 -108.444 128.603 C-113.032 127.634 -117.521 126.384 -122 125 C-122 124.01 -122 123.02 -122 122 C-118.886 120.443 -115.958 121.726 -112.688 122.438 C-105.394 123.933 -98.457 124.345 -91 124 C-91.73 123.89 -92.459 123.781 -93.211 123.668 C-95.458 123.327 -97.704 122.978 -99.949 122.625 C-102.802 122.177 -105.659 121.769 -108.52 121.375 C-117.112 120.137 -124.529 118.749 -132 114 C-132 111.69 -132 109.38 -132 107 C-131.67 106.835 -131.67 106.835 -130 106 C-130 106.99 -130 107.98 -130 109 C-129.01 109.33 -128.02 109.66 -127 110 C-127 110.66 -127 111.32 -127 112 C-125.866 112.144 -124.731 112.289 -123.562 112.438 C-120 113 -120 113 -119 114 C-115.474 114.157 -112.381 114.04 -109 113 C-109 113.66 -109 114.32 -109 115 C-108.618 114.897 -108.618 114.897 -106.688 114.375 C-104 114 -104 114 -101 116 C-100.34 115.67 -100.34 115.67 -97 114 C-97 114.99 -97 115.98 -97 117 C-95.684 116.382 -94.372 115.756 -93.062 115.125 C-92.332 114.777 -91.601 114.429 -90.848 114.07 C-89 113 -89 113 -88 111 C-87.257 111.392 -86.515 111.784 -85.75 112.188 C-84.843 112.456 -83.935 112.724 -83 113 C-81.662 112.007 -80.328 111.006 -79 110 C-76 110.375 -76 110.375 -73 111 C-70.75 110.75 -70.75 110.75 -69 110 C-68.67 109.505 -68.67 109.505 -67 107 C-66.505 107.165 -66.505 107.165 -64 108 C-64 107.34 -64 106.68 -64 106 C-63.051 105.732 -62.103 105.464 -61.125 105.188 C-58 104 -58 104 -56 101 C-52.964 99.077 -51.781 99 -48 99 C-48.093 98.691 -48.093 98.691 -48.562 97.125 C-49 95 -49 95 -48 93 C-47.34 93 -46.68 93 -46 93 C-46 92.34 -46 91.68 -46 91 C-45.34 91 -44.68 91 -44 91 C-44.33 90.01 -44.66 89.02 -45 88 C-44.257 87.814 -43.515 87.629 -42.75 87.438 C-38.835 85.391 -37.956 82.912 -36 79 C-35.01 79 -34.02 79 -33 79 C-28.706 74.609 -25.631 69.513 -23 64 C-21.695 62.311 -20.366 60.64 -19 59 C-18.835 58.67 -18.835 58.67 -18 57 C-17.34 57 -16.68 57 -16 57 C-16.186 56.051 -16.371 55.103 -16.562 54.125 C-17 51 -17 51 -16 49 C-16.66 48.67 -17.32 48.34 -18 48 C-16.68 47.67 -15.36 47.34 -14 47 C-14 46.34 -14 45.68 -14 45 C-13.34 45 -12.68 45 -12 45 C-12.186 43.907 -12.371 42.814 -12.562 41.688 C-13 38 -13 38 -12 35 C-12.66 34.34 -13.32 33.68 -14 33 C-13.34 32.67 -12.68 32.34 -12 32 C-12 31.01 -12 30.02 -12 29 C-11.34 29 -10.68 29 -10 29 C-10 28.34 -10 27.68 -10 27 C-9.34 27 -8.68 27 -8 27 C-7.876 25.907 -7.752 24.814 -7.625 23.688 C-7 20 -7 20 -5 17 C-4.656 14.695 -4.656 14.695 -4.5 12.125 C-4.094 7.238 -3.57 3.57 0 0 Z " fill="#70A704" transform="translate(232,314)"/>
<path d="M0 0 C1.12 3.359 0.98 3.713 -0.371 6.773 C-0.694 7.51 -1.017 8.246 -1.35 9.004 C-1.709 9.787 -2.068 10.569 -2.438 11.375 C-2.802 12.18 -3.167 12.985 -3.543 13.814 C-8.437 24.383 -14.486 34.082 -22 43 C-22.7 43.834 -23.4 44.668 -24.121 45.527 C-28.456 50.523 -32.885 54.75 -38.25 58.625 C-40 60 -40 60 -41 62 C-34.544 59.116 -29.701 56.32 -25 51 C-24.34 51.33 -23.68 51.66 -23 52 C-38.404 68.515 -57.913 81.193 -81.18 82.238 C-92.076 82.489 -101.594 81.215 -112 78 C-112 77.01 -112 76.02 -112 75 C-108.886 73.443 -105.958 74.726 -102.688 75.438 C-95.394 76.933 -88.457 77.345 -81 77 C-81.73 76.89 -82.459 76.781 -83.211 76.668 C-85.458 76.327 -87.704 75.978 -89.949 75.625 C-92.802 75.177 -95.659 74.769 -98.52 74.375 C-107.112 73.137 -114.529 71.749 -122 67 C-122 64.69 -122 62.38 -122 60 C-121.67 59.835 -121.67 59.835 -120 59 C-120 59.99 -120 60.98 -120 62 C-119.01 62.33 -118.02 62.66 -117 63 C-117 63.66 -117 64.32 -117 65 C-115.866 65.144 -114.731 65.289 -113.562 65.438 C-110 66 -110 66 -109 67 C-105.474 67.157 -102.381 67.04 -99 66 C-99 66.66 -99 67.32 -99 68 C-98.237 67.773 -97.474 67.546 -96.688 67.312 C-94 67 -94 67 -92.188 68.312 C-91 70 -91 70 -91 72 C-77.042 71.558 -56.502 70.097 -46.312 59.438 C-45.765 58.83 -45.217 58.223 -44.652 57.598 C-42.172 55.199 -39.164 54.289 -36 53 C-33.124 50.526 -31.104 48.156 -29 45 C-27 42 -27 42 -24.625 39.688 C-19.012 33.941 -15.485 27.592 -13 20 C-12.34 20 -11.68 20 -11 20 C-10.731 19.452 -10.461 18.904 -10.184 18.34 C-8.858 15.719 -7.468 13.141 -6.062 10.562 C-5.558 9.636 -5.054 8.709 -4.535 7.754 C-3.075 5.135 -1.558 2.562 0 0 Z " fill="#5F9203" transform="translate(222,361)"/>
<path d="M0 0 C0.66 0 1.32 0 2 0 C3.395 2.789 3.182 4.903 3 8 C2 10.875 2 10.875 1 13 C0.34 13 -0.32 13 -1 13 C-1.33 14.98 -1.66 16.96 -2 19 C-2.66 19 -3.32 19 -4 19 C-4.037 19.664 -4.075 20.328 -4.113 21.012 C-4.179 21.895 -4.245 22.778 -4.312 23.688 C-4.371 24.558 -4.429 25.428 -4.488 26.324 C-5 29 -5 29 -6.438 31.281 C-8.571 34.994 -9.044 38.618 -9.688 42.812 C-9.817 43.601 -9.947 44.389 -10.08 45.201 C-10.396 47.133 -10.699 49.066 -11 51 C-11.66 51 -12.32 51 -13 51 C-13 51.66 -13 52.32 -13 53 C-12.01 53.33 -11.02 53.66 -10 54 C-10.66 54.66 -11.32 55.32 -12 56 C-12.449 58.715 -12.449 58.715 -12.688 61.938 C-12.774 62.998 -12.86 64.059 -12.949 65.152 C-13 68 -13 68 -12 71 C-11.34 71 -10.68 71 -10 71 C-9.835 70.67 -9.835 70.67 -9 69 C-8.34 69 -7.68 69 -7 69 C-7.33 69.99 -7.66 70.98 -8 72 C-7.34 72.66 -6.68 73.32 -6 74 C-6.66 74.33 -6.66 74.33 -10 76 C-9.34 76.66 -8.68 77.32 -8 78 C-8.66 79.32 -9.32 80.64 -10 82 C-9.34 82.66 -8.68 83.32 -8 84 C-8.165 84.165 -8.165 84.165 -9 85 C-8.34 85.66 -7.68 86.32 -7 87 C-7.66 87.99 -8.32 88.98 -9 90 C-8 92 -8 92 -5 94 C-5.804 94.289 -6.609 94.577 -7.438 94.875 C-10 96 -10 96 -11 98 C-8.36 97.67 -5.72 97.34 -3 97 C-3.825 97.619 -4.65 98.238 -5.5 98.875 C-6.325 99.576 -7.15 100.278 -8 101 C-8 101.66 -8 102.32 -8 103 C-8.165 103.165 -8.165 103.165 -9 104 C-8.67 104.66 -8.34 105.32 -8 106 C-7.01 106.33 -6.02 106.66 -5 107 C-5 107.66 -5 108.32 -5 109 C-3.35 109 -1.7 109 0 109 C0 109.66 0 110.32 0 111 C-0.66 111 -1.32 111 -2 111 C-2 111.99 -2 112.98 -2 114 C-1.34 114.33 -0.68 114.66 0 115 C0 115.66 0 116.32 0 117 C-0.66 117.33 -0.66 117.33 -4 119 C-3 122 -3 122 0 124 C1 125 1 125 2 127 C-1.674 128.176 -5.169 128.074 -9 128 C-8.67 126.68 -8.34 125.36 -8 124 C-8.495 124.165 -8.495 124.165 -11 125 C-10.67 123.35 -10.34 121.7 -10 120 C-10.99 119.67 -11.98 119.34 -13 119 C-13 118.34 -13 117.68 -13 117 C-12.505 116.835 -12.505 116.835 -10 116 C-10.66 115.67 -11.32 115.34 -12 115 C-11.494 112.831 -11 111 -10 109 C-14.057 107.292 -15.746 106.582 -20 108 C-20 102.333 -20 96.667 -20 91 C-20.031 89.955 -20.063 88.91 -20.095 87.833 C-20.67 68.338 -20.596 50.616 -14 32 C-13.515 30.538 -13.031 29.076 -12.547 27.613 C-9.241 17.997 -4.712 8.993 0 0 Z " fill="#A6D62A" transform="translate(58,215)"/>
<path d="M0 0 C2.088 2.436 3.804 4.478 4.938 7.5 C6 10 6 10 8.273 12.27 C11.075 15.075 13.348 17.991 15.688 21.188 C21.319 28.864 21.319 28.864 25.125 29.625 C26.074 29.749 27.023 29.873 28 30 C28.217 31.061 28.433 32.122 28.656 33.215 C29.855 37.38 31.935 39.068 35.5 41.562 C36.575 42.319 37.65 43.076 38.758 43.855 C43.091 46.722 47.443 49.502 52 52 C52.913 52.517 53.825 53.034 54.766 53.566 C58.63 55.279 62.217 55.949 66.375 56.562 C67.152 56.685 67.929 56.807 68.73 56.933 C76.464 58.126 84.227 59.1 92 60 C83.987 65.342 71.23 61.393 62.262 59.656 C61.185 59.44 60.109 59.223 59 59 C58.835 59.33 58.835 59.33 58 61 C79.699 67.704 100.562 66.346 121 56 C123.934 54.26 126.793 52.452 129.625 50.551 C131.703 49.194 133.757 48.054 136 47 C126.966 59.208 110.567 64.401 96 67 C95.403 67.187 94.806 67.374 94.191 67.566 C90.118 68.372 85.894 67.995 81.756 67.873 C77.931 67.813 76.267 67.822 73 70 C73.99 71.65 74.98 73.3 76 75 C73.69 75 71.38 75 69 75 C69 74.34 69 73.68 69 73 C68.34 73 67.68 73 67 73 C66.792 72.434 66.585 71.868 66.371 71.285 C65.406 68.988 64.473 67.013 63 65 C59.437 64.188 59.437 64.188 56 64 C54.312 62.562 54.312 62.562 53 61 C50.812 59.812 50.812 59.812 49 59 C49 59.66 49 60.32 49 61 C49.66 61 50.32 61 51 61 C51 61.66 51 62.32 51 63 C49.35 62.67 47.7 62.34 46 62 C46 60.68 46 59.36 46 58 C45.34 58 44.68 58 44 58 C44 57.34 44 56.68 44 56 C42.886 55.897 41.773 55.794 40.625 55.688 C40.027 55.574 40.027 55.574 37 55 C36.34 54.01 35.68 53.02 35 52 C32.875 51.312 32.875 51.312 31 51 C30.835 50.01 30.67 49.02 30.5 48 C29.527 44.618 28.122 42.886 25.562 40.5 C16.72 32.153 10.217 21.801 4.312 11.25 C4.095 10.863 4.095 10.863 2.997 8.903 C0 3.391 0 3.391 0 0 Z " fill="#71A115" transform="translate(52,377)"/>
<path d="M0 0 C0.66 0.33 1.32 0.66 2 1 C1.67 1.99 1.34 2.98 1 4 C0.505 4.155 0.505 4.155 -2 4.938 C-2.99 5.288 -3.98 5.639 -5 6 C-5.688 8.063 -5.688 8.063 -6 10 C-6.99 10.33 -7.98 10.66 -9 11 C-9 11.99 -9 12.98 -9 14 C-8.34 14 -7.68 14 -7 14 C-7 14.66 -7 15.32 -7 16 C-7.619 16.248 -8.237 16.495 -8.875 16.75 C-11.351 18.206 -11.951 19.378 -13 22 C-13.66 22 -14.32 22 -15 22 C-15 22.66 -15 23.32 -15 24 C-14.34 24.66 -13.68 25.32 -13 26 C-15.357 28.73 -17.581 29.889 -21 31 C-21.99 31 -22.98 31 -24 31 C-24 31.66 -24 32.32 -24 33 C-23.34 33.33 -22.68 33.66 -22 34 C-22.99 34.66 -23.98 35.32 -25 36 C-25 36.99 -25 37.98 -25 39 C-25.66 39 -26.32 39 -27 39 C-27.289 39.866 -27.578 40.733 -27.875 41.625 C-28.246 42.739 -28.618 43.852 -29 45 C-29.33 46.011 -29.66 47.021 -30 48.062 C-30.631 49.916 -31.313 51.754 -32.062 53.562 C-33.013 56.033 -33.554 58.396 -34 61 C-34.66 61 -35.32 61 -36 61 C-36.165 60.505 -36.165 60.505 -37 58 C-37 59.32 -37 60.64 -37 62 C-36.34 62 -35.68 62 -35 62 C-34.628 68.566 -34.628 68.566 -36.5 70.75 C-36.995 71.163 -37.49 71.575 -38 72 C-38 72.99 -38 73.98 -38 75 C-38.979 76.02 -39.979 77.021 -41 78 C-41 78.66 -41 79.32 -41 80 C-40.34 79.835 -40.34 79.835 -37 79 C-37.165 79.33 -37.165 79.33 -38 81 C-40.563 81.625 -40.563 81.625 -43 82 C-43.33 83.98 -43.66 85.96 -44 88 C-44.66 88 -45.32 88 -46 88 C-46.125 90.375 -46.125 90.375 -46 93 C-45.34 93.66 -44.68 94.32 -44 95 C-44.165 95.33 -44.165 95.33 -45 97 C-45.66 97 -46.32 97 -47 97 C-47 96.34 -47 95.68 -47 95 C-47.66 94.67 -48.32 94.34 -49 94 C-48.886 92.041 -48.759 90.083 -48.625 88.125 C-48.555 87.034 -48.486 85.944 -48.414 84.82 C-48 82 -48 82 -46 80 C-46.66 79.67 -47.32 79.34 -48 79 C-48 78.34 -48 77.68 -48 77 C-47.34 77 -46.68 77 -46 77 C-45.963 76.154 -45.925 75.309 -45.887 74.438 C-44.992 58.992 -44.992 58.992 -41 55 C-40.607 53.321 -40.259 51.631 -39.938 49.938 C-39.761 49.018 -39.584 48.099 -39.402 47.152 C-39.27 46.442 -39.137 45.732 -39 45 C-38.34 45 -37.68 45 -37 45 C-36.835 44.01 -36.835 44.01 -36 39 C-35.34 39 -34.68 39 -34 39 C-33.67 37.68 -33.34 36.36 -33 35 C-33 35.66 -33 36.32 -33 37 C-31.68 37 -30.36 37 -29 37 C-29 36.01 -29 35.02 -29 34 C-28.34 34 -27.68 34 -27 34 C-27.33 33.01 -27.66 32.02 -28 31 C-27.34 30.01 -26.68 29.02 -26 28 C-25.34 28 -24.68 28 -24 28 C-23.959 27.34 -23.918 26.68 -23.875 26 C-22.61 21.662 -20.084 18.283 -17 15 C-16.01 14.67 -15.02 14.34 -14 14 C-12.994 12.672 -11.993 11.338 -11 10 C-10.34 10 -9.68 10 -9 10 C-8.969 9.711 -8.969 9.711 -8.812 8.25 C-7.341 4.174 -3.485 2.324 0 0 Z " fill="#A8D830" transform="translate(93,189)"/>
<path d="M0 0 C12.489 10.309 15.745 41.201 17.566 56.324 C18.24 63.482 18.186 70.666 18.185 77.848 C18.187 80.297 18.206 82.745 18.225 85.193 C18.256 94.344 17.775 102.993 16 112 C14 110 14 110 13.797 107.823 C13.82 106.922 13.842 106.02 13.865 105.091 C13.885 104.07 13.905 103.049 13.926 101.998 C13.958 100.892 13.99 99.787 14.023 98.648 C14.048 97.519 14.073 96.39 14.099 95.227 C14.182 91.609 14.278 87.992 14.375 84.375 C14.433 81.927 14.491 79.479 14.547 77.031 C14.687 71.021 14.839 65.01 15 59 C11.24 57.903 11.24 57.903 9.078 58.777 C8.475 59.16 7.872 59.543 7.25 59.938 C6.714 60.278 6.714 60.278 4 62 C4.165 61.237 4.33 60.474 4.5 59.688 C5 57 5 57 5 54 C4.01 53.34 3.02 52.68 2 52 C2 49 2 49 4 47 C3.625 44.875 3.625 44.875 3 43 C3.495 42.835 3.495 42.835 6 42 C4.68 41.34 3.36 40.68 2 40 C2.66 39.835 2.66 39.835 6 39 C6 38.34 6 37.68 6 37 C5.34 37 4.68 37 4 37 C3.835 36.505 3.835 36.505 3 34 C2.01 33.34 1.02 32.68 0 32 C1.65 31.34 3.3 30.68 5 30 C4.01 29.34 3.02 28.68 2 28 C4 24 4 24 5.188 22.125 C7.047 17.263 4.418 12.241 2.438 7.75 C0 2.198 0 2.198 0 0 Z M2 45 C2.33 45.66 2.66 46.32 3 47 C2.01 46.67 1.02 46.34 0 46 C0.66 45.67 1.32 45.34 2 45 Z " fill="#87BD13" transform="translate(218,223)"/>
<path d="M0 0 C0.33 0.99 0.66 1.98 1 3 C1.99 3 2.98 3 4 3 C4.074 7.502 4.129 12.004 4.165 16.507 C4.18 18.039 4.2 19.57 4.226 21.102 C4.263 23.304 4.28 25.505 4.293 27.707 C4.308 28.392 4.324 29.076 4.34 29.781 C4.342 34.584 4.342 34.584 2.509 36.814 C2.011 37.205 1.513 37.597 1 38 C0.559 40.27 0.559 40.27 0.438 42.812 C0.138 46.869 -0.508 50.186 -2 54 C-2.205 54.695 -2.41 55.39 -2.621 56.105 C-3.279 58.205 -3.913 60.086 -5 62 C-7.688 63 -7.688 63 -10 63 C-9.835 62.01 -9.835 62.01 -9 57 C-8.34 56.835 -8.34 56.835 -5 56 C-6.65 55.34 -8.3 54.68 -10 54 C-9.835 53.237 -9.67 52.474 -9.5 51.688 C-9 49 -9 49 -9 46 C-10.155 45.505 -10.155 45.505 -16 43 C-16 42.01 -16 41.02 -16 40 C-15.113 39.711 -14.226 39.423 -13.312 39.125 C-10.496 38.169 -7.749 37.132 -5 36 C-5.206 34.948 -5.412 33.896 -5.625 32.812 C-6.137 27.608 -4.839 25.259 -2 21 C-2.66 20.34 -3.32 19.68 -4 19 C-3.574 16.426 -3.574 16.426 -2.688 13.312 C-1.475 8.854 -0.521 4.586 0 0 Z " fill="#86BE0C" transform="translate(229,279)"/>
<path d="M0 0 C1.32 0.33 2.64 0.66 4 1 C4 3.97 4 6.94 4 10 C4.99 10.33 5.98 10.66 7 11 C9.644 18.932 8.564 29.148 6 37 C6.66 37.33 7.32 37.66 8 38 C8 42.333 8 46.667 8 51 C8.315 52.338 8.646 53.672 9 55 C9.66 53.68 10.32 52.36 11 51 C11.222 57.5 10.867 63.368 9.449 69.715 C8.475 74.672 8.973 79.124 10 84 C10.624 88.867 8.77 91.089 6 95 C5.284 96.646 4.597 98.307 4 100 C3.34 99.34 2.68 98.68 2 98 C-0.025 99.933 -1.421 101.632 -3 104 C-2.296 97.574 -1.041 91.433 0.451 85.15 C3.397 72.391 4.367 60.106 4.312 47.062 C4.312 46.252 4.312 45.442 4.311 44.608 C4.287 31.537 3.387 18.871 1 6 C0.665 4 0.331 2 0 0 Z " fill="#D1CD92" transform="translate(231,257)"/>
<path d="M0 0 C0.33 0 0.66 0 1 0 C0.636 6.606 -0.302 12.439 -2.379 18.719 C-3 21 -3 21 -3 24.75 C-3 28.615 -4.143 30.658 -6 34 C-6.152 34.627 -6.303 35.254 -6.459 35.9 C-7.078 38.303 -8.045 40.22 -9.215 42.406 C-9.654 43.233 -10.093 44.059 -10.545 44.91 C-11.004 45.765 -11.464 46.619 -11.938 47.5 C-12.843 49.198 -13.748 50.896 -14.652 52.594 C-15.054 53.343 -15.457 54.093 -15.871 54.865 C-16.614 56.269 -17.338 57.683 -18.041 59.107 C-20.736 64.428 -24.528 69.035 -28.207 73.695 C-29.88 75.846 -31.472 78.038 -33.062 80.25 C-35.68 83.777 -38.512 86.343 -42 89 C-42.66 88.67 -43.32 88.34 -44 88 C-42.35 86.35 -42.35 86.35 -34 78 C-34.505 78.454 -34.505 78.454 -37.062 80.75 C-45.532 88 -45.532 88 -51 88 C-49.837 84.512 -49.054 84.11 -46.125 82.062 C-31.617 71.049 -21.601 55.733 -14.57 39.145 C-13.025 36.051 -11.43 34.389 -9 32 C-8.312 29.957 -8.312 29.957 -8 27.812 C-7.393 24.506 -6.552 21.824 -5.062 18.812 C-2.232 12.855 -1.21 6.444 0 0 Z " fill="#779F1A" transform="translate(232,335)"/>
<path d="M0 0 C0.33 0 0.66 0 1 0 C1.177 10.034 0.623 19.991 0 30 C0.99 30.33 1.98 30.66 3 31 C2.34 31.33 1.68 31.66 1 32 C0.688 34.549 0.487 37.004 0.375 39.562 C0.336 40.273 0.298 40.984 0.258 41.717 C0.163 43.477 0.081 45.239 0 47 C1.65 46.01 3.3 45.02 5 44 C5.825 44.66 5.825 44.66 10 48 C9.34 49.98 8.68 51.96 8 54 C8.99 54.33 9.98 54.66 11 55 C10.34 55.165 10.34 55.165 7 56 C7 56.66 7 57.32 7 58 C8.32 58.33 9.64 58.66 11 59 C10.67 60.32 10.34 61.64 10 63 C10.66 63 11.32 63 12 63 C11.67 64.32 11.34 65.64 11 67 C11.66 67.33 12.32 67.66 13 68 C12.835 68.33 12.835 68.33 12 70 C9.938 70.625 9.938 70.625 8 71 C7.979 72.258 7.959 73.516 7.938 74.812 C7.926 75.52 7.914 76.228 7.902 76.957 C8 79 8 79 9 82 C9.375 83.892 9.727 85.788 10.062 87.688 C10.239 88.681 10.416 89.675 10.598 90.699 C10.664 91.079 10.664 91.079 11 93 C11.99 93.33 12.98 93.66 14 94 C15.188 97.562 15.188 97.562 16 101 C16.66 101 17.32 101 18 101 C20 106.75 20 106.75 20 109 C20.66 109 21.32 109 22 109 C22.33 110.32 22.66 111.64 23 113 C19.566 111.615 18.3 110.346 16.75 107 C16.415 106.299 16.08 105.597 15.734 104.875 C15 103 15 103 15 101 C14.34 101 13.68 101 13 101 C9.609 92.769 6.282 84.621 4 76 C3.745 75.058 3.49 74.115 3.227 73.145 C-0.905 57.333 -2.179 41.745 -2.188 25.438 C-2.2 24.201 -2.212 22.964 -2.225 21.689 C-2.236 14.234 -1.651 7.276 0 0 Z " fill="#9AC922" transform="translate(38,276)"/>
<path d="M0 0 C-0.33 0.99 -0.66 1.98 -1 3 C-2.996 3.879 -2.996 3.879 -5.438 4.562 C-9.803 5.803 -9.803 5.803 -12 8 C-12 7.34 -12 6.68 -12 6 C-12.66 6 -13.32 6 -14 6 C-14 6.66 -14 7.32 -14 8 C-14.66 8 -15.32 8 -16 8 C-16.33 9.32 -16.66 10.64 -17 12 C-19.64 12.33 -22.28 12.66 -25 13 C-25 13.99 -25 14.98 -25 16 C-25.99 16.33 -26.98 16.66 -28 17 C-28 17.99 -28 18.98 -28 20 C-32.222 23 -32.222 23 -35 23 C-35.33 23.99 -35.66 24.98 -36 26 C-36.66 26 -37.32 26 -38 26 C-38.031 26.278 -38.031 26.278 -38.188 27.688 C-39.656 31.867 -42.858 34.348 -46.625 36.5 C-50.238 38.782 -51.509 41.711 -53 45.625 C-54.03 48.072 -55.158 49.158 -57 51 C-57 51.99 -57 52.98 -57 54 C-57.66 54 -58.32 54 -59 54 C-59 54.99 -59 55.98 -59 57 C-60.32 57 -61.64 57 -63 57 C-62.835 56.01 -62.835 56.01 -62 51 C-61.34 51 -60.68 51 -60 51 C-60.08 50.316 -60.16 49.631 -60.242 48.926 C-59.92 45.037 -58.188 42.388 -56.125 39.188 C-55.943 38.889 -55.943 38.889 -55.02 37.377 C-54.076 35.876 -53.044 34.432 -52 33 C-51.34 33 -50.68 33 -50 33 C-50 32.34 -50 31.68 -50 31 C-49.34 31 -48.68 31 -48 31 C-47.773 30.287 -47.546 29.574 -47.312 28.84 C-43.147 19.828 -33.475 13.513 -25 9 C-24.161 8.496 -23.322 7.992 -22.457 7.473 C-15.356 3.216 -8.472 -0.403 0 0 Z " fill="#C0E55C" transform="translate(123,169)"/>
<path d="M0 0 C0.99 0.33 1.98 0.66 3 1 C3 5 3 5 2 8 C1.34 8 0.68 8 0 8 C0.99 8.99 1.98 9.98 3 11 C1.68 11 0.36 11 -1 11 C0.32 11.33 1.64 11.66 3 12 C3 13.32 3 14.64 3 16 C3.66 16 4.32 16 5 16 C4.67 16.99 4.34 17.98 4 19 C3.34 19 2.68 19 2 19 C1.67 20.32 1.34 21.64 1 23 C-1.31 23 -3.62 23 -6 23 C-6 23.99 -6 24.98 -6 26 C-6.99 26 -7.98 26 -9 26 C-9 25.34 -9 24.68 -9 24 C-9.722 24.268 -10.444 24.536 -11.188 24.812 C-14 25 -14 25 -16.812 22.562 C-17.534 21.717 -18.256 20.871 -19 20 C-18.67 19.505 -18.67 19.505 -17 17 C-16.875 13.812 -16.875 13.812 -17 11 C-13.352 9.727 -9.806 8.672 -6 8 C-6.66 7.34 -7.32 6.68 -8 6 C-5 4 -5 4 -2 3 C-1.34 3.33 -0.68 3.66 0 4 C-0.33 3.01 -0.66 2.02 -1 1 C-0.67 0.67 -0.34 0.34 0 0 Z " fill="#8DC610" transform="translate(132,403)"/>
<path d="M0 0 C0.33 0.165 0.33 0.165 2 1 C-11.76 14.76 -32.463 20.197 -51.372 20.33 C-59.634 20.235 -67.144 18.427 -75 16 C-75 15.01 -75 14.02 -75 13 C-71.936 11.468 -69.15 12.725 -65.938 13.438 C-42.832 18.074 -23.642 12.166 -3.125 1.5 C-2.094 1.005 -1.062 0.51 0 0 Z " fill="#5A840A" transform="translate(185,423)"/>
<path d="M0 0 C0.33 0.99 0.66 1.98 1 3 C0.67 3.66 0.34 4.32 0 5 C1.32 4.67 2.64 4.34 4 4 C4.33 5.32 4.66 6.64 5 8 C4.01 8 3.02 8 2 8 C1.773 8.743 1.546 9.485 1.312 10.25 C-0.262 13.55 -2.075 14.86 -5 17 C-6.017 17.982 -7.026 18.975 -8 20 C-8 19.34 -8 18.68 -8 18 C-9.65 18.33 -11.3 18.66 -13 19 C-13.33 18.01 -13.66 17.02 -14 16 C-16.063 14.812 -16.063 14.812 -18 14 C-18 13.34 -18 12.68 -18 12 C-17.34 12 -16.68 12 -16 12 C-16 11.34 -16 10.68 -16 10 C-16.66 9.67 -17.32 9.34 -18 9 C-16.35 8.34 -14.7 7.68 -13 7 C-14.98 7 -16.96 7 -19 7 C-18.67 6.01 -18.34 5.02 -18 4 C-15.03 4.33 -12.06 4.66 -9 5 C-8.67 4.01 -8.34 3.02 -8 2 C-6.68 2 -5.36 2 -4 2 C-3.67 2.66 -3.34 3.32 -3 4 C-2.01 2.68 -1.02 1.36 0 0 Z " fill="#9ACF1D" transform="translate(66,306)"/>
<path d="M0 0 C1.32 0 2.64 0 4 0 C4.33 0.66 4.66 1.32 5 2 C5.33 1.34 5.66 0.68 6 0 C7.309 0.654 8.602 1.341 9.875 2.062 C12 3 12 3 16 3 C16 3.66 16 4.32 16 5 C15.67 5.165 15.67 5.165 14 6 C13.278 7.644 12.606 9.311 12 11 C12.33 11.33 12.66 11.66 13 12 C11.612 15.341 10.184 16.902 7.125 18.812 C6.447 19.252 5.769 19.692 5.07 20.145 C3 21 3 21 0.82 20.766 C-1 20 -1 20 -2.25 17.938 C-2.498 17.298 -2.745 16.659 -3 16 C-2.01 15.67 -1.02 15.34 0 15 C-0.66 14.34 -1.32 13.68 -2 13 C-1.67 12.67 -1.34 12.34 -1 12 C-1.66 11.34 -2.32 10.68 -3 10 C-2.34 8.68 -1.68 7.36 -1 6 C-1.66 5.34 -2.32 4.68 -3 4 C-2.505 3.526 -2.01 3.051 -1.5 2.562 C0 1 0 1 0 0 Z " fill="#9BD01D" transform="translate(50,287)"/>
<path d="M0 0 C0.66 0.33 1.32 0.66 2 1 C2.625 3.563 2.625 3.563 3 6 C1.35 6.33 -0.3 6.66 -2 7 C-2 7.66 -2 8.32 -2 9 C-2.66 9 -3.32 9 -4 9 C-4 9.66 -4 10.32 -4 11 C-4.99 11.33 -5.98 11.66 -7 12 C-7 11.34 -7 10.68 -7 10 C-8.65 10.33 -10.3 10.66 -12 11 C-12 11.66 -12 12.32 -12 13 C-10.68 12.67 -9.36 12.34 -8 12 C-8.506 14.169 -9 16 -10 18 C-9.34 18.33 -8.68 18.66 -8 19 C-9.32 21.31 -10.64 23.62 -12 26 C-12.675 25.856 -13.351 25.711 -14.047 25.562 C-14.939 25.377 -15.831 25.191 -16.75 25 C-17.632 24.814 -18.513 24.629 -19.422 24.438 C-22 24 -22 24 -26 24 C-26 23.34 -26 22.68 -26 22 C-25.01 21.34 -24.02 20.68 -23 20 C-22.67 19.01 -22.34 18.02 -22 17 C-18.938 15.812 -18.938 15.812 -16 15 C-16 13.02 -16 11.04 -16 9 C-15.264 8.769 -14.528 8.539 -13.77 8.301 C-7.955 6.357 -3.879 4.816 0 0 Z " fill="#A2D429" transform="translate(110,178)"/>
<path d="M0 0 C0.33 0 0.66 0 1 0 C1.028 0.275 1.028 0.275 1.168 1.665 C1.422 4.173 1.68 6.68 1.938 9.188 C2.025 10.052 2.112 10.916 2.201 11.807 C2.627 15.924 3.101 19.954 4 24 C4.624 28.867 2.77 31.089 0 35 C-0.716 36.646 -1.403 38.307 -2 40 C-2.66 39.34 -3.32 38.68 -4 38 C-6.025 39.933 -7.421 41.632 -9 44 C-8.377 38.317 -7.373 32.873 -6.062 27.312 C-4.361 19.906 -3.012 12.535 -2 5 C-1.67 5 -1.34 5 -1 5 C-0.67 3.35 -0.34 1.7 0 0 Z " fill="#D3C591" transform="translate(237,317)"/>
<path d="M0 0 C2.088 2.436 3.804 4.478 4.938 7.5 C6.326 10.767 8.485 12.499 11 15 C19.637 25.428 19.637 25.428 21.875 31.625 C24.315 37.902 29.999 41.77 35 46 C36.638 47.576 38.136 49.157 39.625 50.875 C43.039 53.929 46.954 55.891 51 58 C50.67 58.165 50.67 58.165 49 59 C49 59.66 49 60.32 49 61 C49.66 61 50.32 61 51 61 C51 61.66 51 62.32 51 63 C49.35 62.67 47.7 62.34 46 62 C46 60.68 46 59.36 46 58 C45.34 58 44.68 58 44 58 C44 57.34 44 56.68 44 56 C42.886 55.897 41.773 55.794 40.625 55.688 C40.027 55.574 40.027 55.574 37 55 C36.34 54.01 35.68 53.02 35 52 C32.875 51.312 32.875 51.312 31 51 C30.835 50.01 30.67 49.02 30.5 48 C29.527 44.618 28.122 42.886 25.562 40.5 C16.72 32.153 10.217 21.801 4.312 11.25 C4.095 10.863 4.095 10.863 2.997 8.903 C0 3.391 0 3.391 0 0 Z " fill="#87B224" transform="translate(52,377)"/>
<path d="M0 0 C0.33 0.99 0.66 1.98 1 3 C1.99 3.33 2.98 3.66 4 4 C4 4.66 4 5.32 4 6 C5.134 6.144 6.269 6.289 7.438 6.438 C11 7 11 7 12 8 C15.526 8.157 18.619 8.04 22 7 C22 7.66 22 8.32 22 9 C22.763 8.773 23.526 8.546 24.312 8.312 C27 8 27 8 28.812 9.312 C30 11 30 11 30 13 C33.3 13 36.6 13 40 13 C40.165 13.66 40.165 13.66 41 17 C11.16 14.782 11.16 14.782 -1 8 C-1.042 5.667 -1.041 3.333 -1 1 C-0.67 0.67 -0.34 0.34 0 0 Z " fill="#619604" transform="translate(101,420)"/>
<path d="M0 0 C0.33 0.165 0.33 0.165 2 1 C0.677 2.261 -0.659 3.508 -2 4.75 C-2.743 5.446 -3.485 6.142 -4.25 6.859 C-10.213 11.501 -17.061 13.888 -24.188 16.188 C-24.968 16.447 -25.749 16.707 -26.553 16.975 C-30.349 18.221 -34.057 19.307 -38 20 C-38.597 20.187 -39.194 20.374 -39.809 20.566 C-43.882 21.372 -48.106 20.995 -52.244 20.873 C-56.069 20.813 -57.733 20.822 -61 23 C-60.01 24.65 -59.02 26.3 -58 28 C-60.31 28 -62.62 28 -65 28 C-65 27.34 -65 26.68 -65 26 C-65.66 26 -66.32 26 -67 26 C-67.208 25.434 -67.415 24.868 -67.629 24.285 C-68.595 21.985 -69.522 20.015 -71 18 C-74.75 17 -74.75 17 -78 17 C-78.33 16.01 -78.66 15.02 -79 14 C-78.361 14.144 -78.361 14.144 -75.125 14.875 C-74.29 15.055 -73.454 15.236 -72.594 15.422 C-71.003 15.776 -69.418 16.156 -67.844 16.578 C-48.324 21.389 -27.091 17.168 -9.887 7.195 C-2.707 2.707 -2.707 2.707 0 0 Z " fill="#B0A768" transform="translate(186,424)"/>
<path d="M0 0 C0.351 0.639 0.701 1.279 1.062 1.938 C3.772 4.822 6.159 4.71 10 5 C9.01 5.33 8.02 5.66 7 6 C7 6.66 7 7.32 7 8 C5.68 7.67 4.36 7.34 3 7 C2.67 7.99 2.34 8.98 2 10 C1.01 10 0.02 10 -1 10 C-1.165 9.505 -1.165 9.505 -2 7 C-2.33 7.99 -2.66 8.98 -3 10 C-3.66 10 -4.32 10 -5 10 C-4.67 8.68 -4.34 7.36 -4 6 C-4.99 5.67 -5.98 5.34 -7 5 C-7.66 6.32 -8.32 7.64 -9 9 C-9.99 8.67 -10.98 8.34 -12 8 C-11.34 7.67 -10.68 7.34 -10 7 C-10.476 7.072 -10.476 7.072 -12.887 7.438 C-14.141 7.623 -15.395 7.809 -16.688 8 C-17.308 8.093 -17.308 8.093 -20.449 8.562 C-23.359 8.921 -26.077 9.089 -29 9 C-29.25 9.612 -29.5 10.225 -29.758 10.855 C-31.207 13.357 -32.304 14.056 -34.875 15.312 C-35.553 15.659 -36.231 16.006 -36.93 16.363 C-39.357 17.11 -40.633 16.823 -43 16 C-41.68 15.67 -40.36 15.34 -39 15 C-39 14.01 -39 13.02 -39 12 C-36.36 11.67 -33.72 11.34 -31 11 C-30.67 9.68 -30.34 8.36 -30 7 C-29.34 7 -28.68 7 -28 7 C-28 6.34 -28 5.68 -28 5 C-27.276 4.963 -26.551 4.925 -25.805 4.887 C-20.087 4.498 -16.086 3.785 -11 1 C-8.125 0.812 -8.125 0.812 -6 1 C-5.835 1.33 -5.835 1.33 -5 3 C-4.01 3 -3.02 3 -2 3 C-1.34 2.01 -0.68 1.02 0 0 Z " fill="#A9D831" transform="translate(137,170)"/>
<path d="M0 0 C0.33 0.66 0.66 1.32 1 2 C1.66 2 2.32 2 3 2 C2.125 8.75 2.125 8.75 1 11 C0.34 11 -0.32 11 -1 11 C-0.67 11.99 -0.34 12.98 0 14 C-0.742 15.91 -0.742 15.91 -1.875 18.062 C-3.923 22.361 -4.484 26.042 -4.785 30.758 C-5.041 33.428 -5.803 35.606 -7 38 C-7.66 38 -8.32 38 -9 38 C-9.33 39.65 -9.66 41.3 -10 43 C-10.66 43.165 -10.66 43.165 -14 44 C-14 43.34 -14 42.68 -14 42 C-13.34 42 -12.68 42 -12 42 C-11.963 41.154 -11.925 40.309 -11.887 39.438 C-10.992 23.992 -10.992 23.992 -7 20 C-6.607 18.321 -6.259 16.631 -5.938 14.938 C-5.761 14.018 -5.584 13.099 -5.402 12.152 C-5.27 11.442 -5.137 10.732 -5 10 C-4.34 10 -3.68 10 -3 10 C-2.67 8.02 -2.34 6.04 -2 4 C-1.34 4 -0.68 4 0 4 C0 2.68 0 1.36 0 0 Z " fill="#B4DE46" transform="translate(59,224)"/>
<path d="M0 0 C0.33 0.66 0.66 1.32 1 2 C0.67 2.66 0.34 3.32 0 4 C2.31 4 4.62 4 7 4 C7.33 4.99 7.66 5.98 8 7 C7.34 7 6.68 7 6 7 C6 7.66 6 8.32 6 9 C5.34 9 4.68 9 4 9 C4 10.98 4 12.96 4 15 C3.381 15.206 3.381 15.206 0.25 16.25 C-3.308 17.569 -5.542 19.03 -8 22 C-8.66 20.68 -9.32 19.36 -10 18 C-9.34 18 -8.68 18 -8 18 C-8.206 17.237 -8.412 16.474 -8.625 15.688 C-9 13 -9 13 -7 10 C-6.01 10 -5.02 10 -4 10 C-4.33 8.02 -4.66 6.04 -5 4 C-3.35 2.68 -1.7 1.36 0 0 Z " fill="#87C008" transform="translate(180,398)"/>
<path d="M0 0 C0.66 0.33 1.32 0.66 2 1 C0.259 2.822 -1.492 4.632 -3.25 6.438 C-3.741 6.954 -4.232 7.47 -4.738 8.002 C-7.427 10.744 -9.211 12.38 -13 13 C-15.351 13.971 -17.677 14.966 -20 16 C-20.649 16.286 -21.297 16.573 -21.965 16.868 C-24.687 18.069 -27.409 19.271 -30.127 20.482 C-35.671 22.927 -41.177 24.947 -47.125 26.188 C-47.539 26.277 -47.539 26.277 -49.633 26.73 C-52.068 27.008 -53.687 26.752 -56 26 C-55.67 25.34 -55.34 24.68 -55 24 C-52.313 23.389 -49.647 22.867 -46.938 22.375 C-38.647 20.727 -31.75 17.83 -24.355 13.805 C-21.004 12.002 -17.783 10.403 -14.062 9.562 C-7.9 7.882 -4.238 4.54 0 0 Z " fill="#68980F" transform="translate(197,412)"/>
<path d="M0 0 C0.323 5.755 -1.697 9.394 -5 14 C-7.516 16.544 -10.169 18.815 -13 21 C-13.66 20.67 -14.32 20.34 -15 20 C-11.7 16.7 -8.4 13.4 -5 10 C-6.011 10.908 -7.021 11.815 -8.062 12.75 C-16.532 20 -16.532 20 -22 20 C-20.843 16.529 -20.014 16.03 -17.125 13.938 C-12.176 10.23 -7.705 6.152 -3.188 1.941 C-1 0 -1 0 0 0 Z " fill="#6C9614" transform="translate(203,403)"/>
<path d="M0 0 C1.245 0.018 2.49 0.036 3.773 0.055 C4.244 0.066 4.244 0.066 6.625 0.125 C6.295 1.115 5.965 2.105 5.625 3.125 C4.635 3.125 3.645 3.125 2.625 3.125 C2.295 4.775 1.965 6.425 1.625 8.125 C0.305 7.795 -1.015 7.465 -2.375 7.125 C-2.375 6.465 -2.375 5.805 -2.375 5.125 C-3.834 5.602 -5.292 6.082 -6.75 6.562 C-7.562 6.829 -8.374 7.096 -9.211 7.371 C-11.375 8.125 -11.375 8.125 -13.375 9.125 C-15.708 9.165 -18.042 9.168 -20.375 9.125 C-20.045 8.465 -19.715 7.805 -19.375 7.125 C-16.726 6.531 -14.083 6.383 -11.375 6.125 C-11.375 5.465 -11.375 4.805 -11.375 4.125 C-12.035 3.465 -12.695 2.805 -13.375 2.125 C-8.751 0.318 -4.95 -0.093 0 0 Z " fill="#B8E149" transform="translate(133.375,165.875)"/>
<path d="M0 0 C0.33 1.32 0.66 2.64 1 4 C0.67 4.165 0.67 4.165 -1 5 C-1.625 7.562 -1.625 7.562 -2 10 C-2.66 10 -3.32 10 -4 10 C-4.248 10.536 -4.495 11.072 -4.75 11.625 C-7.232 16.34 -9.122 19.724 -14 22 C-14.684 23.325 -15.35 24.659 -16 26 C-19.429 29 -19.429 29 -22 29 C-22.66 30.32 -23.32 31.64 -24 33 C-24.99 32.67 -25.98 32.34 -27 32 C-26.67 31.34 -26.34 30.68 -26 30 C-25.34 30 -24.68 30 -24 30 C-24 29.34 -24 28.68 -24 28 C-23.34 28 -22.68 28 -22 28 C-22.33 27.01 -22.66 26.02 -23 25 C-22.257 24.814 -21.515 24.629 -20.75 24.438 C-16.835 22.391 -15.956 19.912 -14 16 C-13.01 16 -12.02 16 -11 16 C-6.746 11.65 -3.49 6.533 -1 1 C-0.67 0.67 -0.34 0.34 0 0 Z " fill="#7BB303" transform="translate(210,377)"/>
<path d="M0 0 C0.99 0 1.98 0 3 0 C3 0.99 3 1.98 3 3 C3.66 3.33 4.32 3.66 5 4 C5 4.66 5 5.32 5 6 C4.34 6.33 4.34 6.33 1 8 C2 11 2 11 5 13 C6 14 6 14 7 16 C3.326 17.176 -0.169 17.074 -4 17 C-3.67 15.68 -3.34 14.36 -3 13 C-3.99 13.33 -4.98 13.66 -6 14 C-5.67 11.69 -5.34 9.38 -5 7 C-4.34 7 -3.68 7 -3 7 C-2.691 6.031 -2.381 5.061 -2.062 4.062 C-1 1 -1 1 0 0 Z " fill="#9ED223" transform="translate(53,326)"/>
<path d="M0 0 C1.32 0.33 2.64 0.66 4 1 C4 3.97 4 6.94 4 10 C4.99 10.33 5.98 10.66 7 11 C8.176 14.529 8.222 17.763 8.25 21.438 C8.263 22.097 8.263 22.097 8.328 25.434 C7.98 29.214 7.337 30.193 5 33 C4.884 32.214 4.768 31.427 4.649 30.617 C4.121 27.036 3.592 23.456 3.062 19.875 C2.971 19.256 2.971 19.256 2.51 16.125 C2.333 14.926 2.155 13.727 1.973 12.492 C1.81 11.392 1.648 10.293 1.481 9.16 C1.015 6.101 0.516 3.05 0 0 Z " fill="#EAE0B6" transform="translate(231,257)"/>
<path d="M0 0 C6.883 12.766 5.298 30.896 5.312 45.062 C5.316 45.853 5.319 46.644 5.323 47.459 C5.347 57.18 4.845 66.427 3 76 C2.67 76 2.34 76 2 76 C2.072 74.881 2.144 73.762 2.219 72.609 C2.837 62.262 3.132 51.928 3.188 41.562 C3.2 40.416 3.213 39.269 3.227 38.087 C3.237 29.319 2.792 20.377 0 12 C0.438 9.812 0.438 9.812 1 8 C0.34 7.67 -0.32 7.34 -1 7 C-0.67 4.69 -0.34 2.38 0 0 Z " fill="#829D2A" transform="translate(231,259)"/>
<path d="M0 0 C0.66 0 1.32 0 2 0 C1.856 0.278 1.856 0.278 1.125 1.688 C-0.041 4.085 -1.034 6.516 -2 9 C-1.34 9.33 -0.68 9.66 0 10 C-0.237 10.206 -0.237 10.206 -1.438 11.25 C-3 13 -3 13 -3.5 15 C-4.111 17.443 -5.252 18.252 -7 20 C-7 20.99 -7 21.98 -7 23 C-7.66 23 -8.32 23 -9 23 C-9 23.99 -9 24.98 -9 26 C-10.32 26 -11.64 26 -13 26 C-12.67 24.02 -12.34 22.04 -12 20 C-11.34 20 -10.68 20 -10 20 C-10.08 19.316 -10.16 18.631 -10.242 17.926 C-9.92 14.037 -8.188 11.388 -6.125 8.188 C-5.943 7.889 -5.943 7.889 -5.02 6.377 C-4.076 4.876 -3.044 3.432 -2 2 C-1.34 2 -0.68 2 0 2 C0 1.34 0 0.68 0 0 Z " fill="#BDE355" transform="translate(73,200)"/>
<path d="M0 0 C1.91 0.328 1.91 0.328 4 1 C5.438 3.75 5.438 3.75 6 7 C4.812 9.375 4.812 9.375 3 12 C2.214 14.026 1.519 16.067 0.844 18.133 C-0.121 20.268 -1.306 21.401 -3 23 C-3.66 23.99 -4.32 24.98 -5 26 C-4.352 20.053 -3.28 14.326 -1.938 8.5 C-1.751 7.678 -1.565 6.855 -1.373 6.008 C-0.919 4.004 -0.46 2.002 0 0 Z " fill="#CCBF87" transform="translate(233,335)"/>
<path d="M0 0 C2.25 0.312 2.25 0.312 4 1 C4 1.66 4 2.32 4 3 C1.03 3.99 -1.94 4.98 -5 6 C-5 6.66 -5 7.32 -5 8 C-8.56 9.187 -11.438 9.097 -15.188 9.062 C-16.46 9.053 -17.732 9.044 -19.043 9.035 C-19.531 9.029 -19.531 9.029 -22 9 C-21.688 7.062 -21.688 7.062 -21 5 C-20.01 4.67 -19.02 4.34 -18 4 C-18 4.99 -18 5.98 -18 7 C-16.684 6.382 -15.372 5.756 -14.062 5.125 C-13.332 4.777 -12.601 4.429 -11.848 4.07 C-10 3 -10 3 -9 1 C-8.257 1.392 -7.515 1.784 -6.75 2.188 C-5.843 2.456 -4.935 2.724 -4 3 C-2.633 2.047 -1.297 1.046 0 0 Z " fill="#79B105" transform="translate(153,424)"/>
<path d="M0 0 C0.66 0 1.32 0 2 0 C1.625 2.438 1.625 2.438 1 5 C0.67 5.165 0.67 5.165 -1 6 C4.625 8 4.625 8 8 8 C8.33 8.99 8.66 9.98 9 11 C7 13 7 13 4.5 13.125 C3.675 13.084 2.85 13.043 2 13 C-0.463 13 -1.852 13.855 -4 15 C-4.99 13.68 -5.98 12.36 -7 11 C-6.01 10.01 -5.02 9.02 -4 8 C-4.66 7.67 -5.32 7.34 -6 7 C-6 6.01 -6 5.02 -6 4 C-5.34 4 -4.68 4 -4 4 C-3.67 3.34 -3.34 2.68 -3 2 C-2.01 2 -1.02 2 0 2 C0 1.34 0 0.68 0 0 Z " fill="#8BC40D" transform="translate(152,413)"/>
<path d="M0 0 C1 3 1 3 -0.004 5.602 C-5.125 15.536 -11.03 24.277 -18 33 C-18 26.056 -13.613 20.895 -9.707 15.5 C-8.162 13.237 -6.926 11.032 -5.75 8.562 C-4.244 5.496 -3.33 4.249 -1 2 C-0.67 1.34 -0.34 0.68 0 0 Z " fill="#859237" transform="translate(220,378)"/>
<path d="M0 0 C-9.992 9.992 -27.153 18.162 -41.312 18.25 C-42.529 18.168 -43.746 18.085 -45 18 C-45 17.67 -45 17.34 -45 17 C-44.687 16.934 -44.687 16.934 -43.102 16.598 C-42.284 16.421 -41.467 16.244 -40.625 16.062 C-39.813 15.888 -39.001 15.714 -38.164 15.535 C-36 15 -36 15 -34 14 C-33.526 13.959 -33.526 13.959 -31.125 13.75 C-24.768 12.944 -18.686 9.843 -13 7 C-12.67 6.01 -12.34 5.02 -12 4 C-3.628 -1.814 -3.628 -1.814 0 0 Z " fill="#54760B" transform="translate(187,424)"/>
<path d="M0 0 C2.64 0.66 5.28 1.32 8 2 C8.206 3.052 8.412 4.104 8.625 5.188 C9.854 9.651 12.397 11.259 16 14 C16 14.66 16 15.32 16 16 C10.141 15.214 6.961 12.201 3 8 C0 3.031 0 3.031 0 0 Z " fill="#7FAA1E" transform="translate(72,405)"/>
<path d="M0 0 C0.33 0.99 0.66 1.98 1 3 C1.99 3.33 2.98 3.66 4 4 C4.144 5.217 4.289 6.434 4.438 7.688 C4.828 10.827 5.324 13.908 6 17 C6.99 17.33 7.98 17.66 9 18 C10.188 21.562 10.188 21.562 11 25 C11.66 25 12.32 25 13 25 C15 30.75 15 30.75 15 33 C15.66 33 16.32 33 17 33 C17.33 34.32 17.66 35.64 18 37 C14.566 35.615 13.3 34.346 11.75 31 C11.415 30.299 11.08 29.598 10.734 28.875 C10 27 10 27 10 25 C9.34 25 8.68 25 8 25 C3.508 13.77 3.508 13.77 2.727 11.808 C2.105 10.261 1.461 8.723 0.812 7.188 C-0.121 4.674 -0.152 2.661 0 0 Z " fill="#8ABB1B" transform="translate(43,352)"/>
<path d="M0 0 C3.616 0.623 5.878 2.154 8.812 4.312 C12.766 7.159 16.722 9.675 21 12 C20.67 12.165 20.67 12.165 19 13 C19 13.66 19 14.32 19 15 C19.66 15 20.32 15 21 15 C21 15.66 21 16.32 21 17 C19.35 16.67 17.7 16.34 16 16 C16 14.68 16 13.36 16 12 C15.34 12 14.68 12 14 12 C14 11.34 14 10.68 14 10 C12.886 9.897 11.773 9.794 10.625 9.688 C10.027 9.574 10.027 9.574 7 9 C6.34 8.01 5.68 7.02 5 6 C2.875 5.312 2.875 5.312 1 5 C0.67 3.35 0.34 1.7 0 0 Z " fill="#C3B67D" transform="translate(82,423)"/>
<path d="M0 0 C5.114 1.068 10.072 2.231 15 4 C14.67 4.165 14.67 4.165 13 5 C14 7 14 7 16.438 8.375 C19.124 10.079 19.895 11.087 21 14 C18.69 14 16.38 14 14 14 C14 13.34 14 12.68 14 12 C13.34 12 12.68 12 12 12 C11.792 11.434 11.585 10.868 11.371 10.285 C10.405 7.985 9.478 6.015 8 4 C4.25 3 4.25 3 1 3 C0.67 2.01 0.34 1.02 0 0 Z " fill="#BBAE73" transform="translate(107,438)"/>
<path d="M0 0 C0.66 0 1.32 0 2 0 C2 1.65 2 3.3 2 5 C1.34 5 0.68 5 0 5 C-0.66 6.98 -1.32 8.96 -2 11 C-2.66 11 -3.32 11 -4 11 C-4 11.66 -4 12.32 -4 13 C-3.34 13.33 -2.68 13.66 -2 14 C-6.75 17 -6.75 17 -9 17 C-9.33 17.66 -9.66 18.32 -10 19 C-10.33 18.01 -10.66 17.02 -11 16 C-10.34 15.01 -9.68 14.02 -9 13 C-8.34 13 -7.68 13 -7 13 C-6.959 12.34 -6.918 11.68 -6.875 11 C-5.613 6.673 -3.07 3.282 0 0 Z " fill="#ADDB39" transform="translate(76,204)"/>
<path d="M0 0 C0 0.66 0 1.32 0 2 C1.32 2 2.64 2 4 2 C4 2.66 4 3.32 4 4 C4.66 4 5.32 4 6 4 C6.33 3.01 6.66 2.02 7 1 C7.99 1.33 8.98 1.66 10 2 C10.33 2.99 10.66 3.98 11 5 C8.69 5 6.38 5 4 5 C4 5.99 4 6.98 4 8 C3.01 8 2.02 8 1 8 C1 7.34 1 6.68 1 6 C0.237 6.227 -0.526 6.454 -1.312 6.688 C-2.199 6.791 -3.086 6.894 -4 7 C-5.812 5.562 -5.812 5.562 -7 4 C-6.01 3.67 -5.02 3.34 -4 3 C-4 2.34 -4 1.68 -4 1 C-2 0 -2 0 0 0 Z " fill="#86BE0B" transform="translate(122,421)"/>
<path d="M0 0 C0.99 0 1.98 0 3 0 C2.384 2.96 1.758 5.918 1.125 8.875 C0.951 9.717 0.777 10.559 0.598 11.426 C0.424 12.231 0.25 13.037 0.07 13.867 C-0.087 14.611 -0.244 15.354 -0.406 16.121 C-1 18 -1 18 -3 20 C-5.125 15.375 -5.125 15.375 -4 12 C-4.66 11.34 -5.32 10.68 -6 10 C-5.34 9.67 -4.68 9.34 -4 9 C-4 8.01 -4 7.02 -4 6 C-3.34 6 -2.68 6 -2 6 C-2 5.34 -2 4.68 -2 4 C-1.34 4 -0.68 4 0 4 C0 2.68 0 1.36 0 0 Z " fill="#7DB503" transform="translate(224,337)"/>
<path d="M0 0 C0.33 0 0.66 0 1 0 C0.636 6.606 -0.302 12.439 -2.379 18.719 C-3 21 -3 21 -3 24.75 C-3 28.615 -4.143 30.658 -6 34 C-6.165 34.722 -6.33 35.444 -6.5 36.188 C-7.129 38.469 -8.239 39.469 -10 41 C-9.369 37.681 -8.611 34.443 -7.695 31.191 C-7.443 30.285 -7.19 29.379 -6.93 28.446 C-6.664 27.494 -6.399 26.543 -6.125 25.562 C-3.781 17.089 -1.68 8.633 0 0 Z " fill="#869D2F" transform="translate(232,335)"/>
<path d="M0 0 C1.126 3.379 0.963 3.729 -0.434 6.793 C-0.753 7.505 -1.072 8.217 -1.4 8.951 C-1.743 9.689 -2.085 10.427 -2.438 11.188 C-2.776 11.937 -3.114 12.687 -3.463 13.459 C-4.3 15.31 -5.149 17.155 -6 19 C-6.99 18.67 -7.98 18.34 -9 18 C-9.268 18.598 -9.536 19.196 -9.812 19.812 C-10.985 21.972 -12.194 23.358 -14 25 C-13.67 23.35 -13.34 21.7 -13 20 C-12.34 20 -11.68 20 -11 20 C-10.731 19.452 -10.461 18.904 -10.184 18.34 C-8.858 15.719 -7.468 13.141 -6.062 10.562 C-5.558 9.636 -5.054 8.709 -4.535 7.754 C-3.075 5.135 -1.558 2.562 0 0 Z " fill="#699D04" transform="translate(222,361)"/>
<path d="M0 0 C0.598 0.639 1.196 1.279 1.812 1.938 C4 4 4 4 7 5 C7.495 6.134 7.99 7.269 8.5 8.438 C11.38 14.695 16.879 18.599 22 23 C23.013 23.987 24.02 24.98 25 26 C20.929 26 19.266 23.952 16.438 21.312 C15.913 20.828 15.389 20.343 14.849 19.844 C9.209 14.48 4.311 8.477 0 2 C0 1.34 0 0.68 0 0 Z " fill="#7E922C" transform="translate(65,400)"/>
<path d="M0 0 C0.33 0 0.66 0 1 0 C1.63 4.935 -0.476 7.849 -3.25 11.688 C-3.646 12.268 -4.041 12.849 -4.449 13.447 C-6.641 16.556 -8.392 18.682 -12 20 C-12.66 20.33 -13.32 20.66 -14 21 C-12.209 16.939 -9.596 13.509 -7 9.938 C-2.139 3.208 -2.139 3.208 0 0 Z " fill="#71A112" transform="translate(212,386)"/>
<path d="M0 0 C0.33 0.99 0.66 1.98 1 3 C0.691 3.113 0.691 3.113 -0.875 3.688 C-3.66 5.407 -3.98 6.941 -5 10 C-6.554 13.824 -8.943 16.249 -12 19 C-12.66 19 -13.32 19 -14 19 C-13.502 14.355 -11.662 11.909 -8.688 8.375 C-7.908 7.434 -7.128 6.493 -6.324 5.523 C-4.324 3.351 -2.43 1.657 0 0 Z " fill="#C3E663" transform="translate(85,190)"/>
<path d="M0 0 C1.255 3.766 0.371 5.372 -1 9 C-1.66 9 -2.32 9 -3 9 C-3.125 11.375 -3.125 11.375 -3 14 C-2.34 14.66 -1.68 15.32 -1 16 C-1.33 16.66 -1.66 17.32 -2 18 C-2.66 18 -3.32 18 -4 18 C-4 17.34 -4 16.68 -4 16 C-4.66 15.67 -5.32 15.34 -6 15 C-5.913 13.062 -5.805 11.124 -5.688 9.188 C-5.629 8.109 -5.571 7.03 -5.512 5.918 C-4.888 2.363 -3.893 0 0 0 Z " fill="#AFDC3E" transform="translate(50,268)"/>
<path d="M0 0 C0.66 0.33 1.32 0.66 2 1 C0.259 2.822 -1.492 4.632 -3.25 6.438 C-3.741 6.954 -4.232 7.47 -4.738 8.002 C-7.38 10.697 -9.213 12.503 -13 13 C-14.424 13.501 -15.841 14.022 -17.25 14.562 C-17.956 14.832 -18.663 15.101 -19.391 15.379 C-19.922 15.584 -20.453 15.789 -21 16 C-21.33 15.01 -21.66 14.02 -22 13 C-18.662 11.255 -15.636 9.909 -12 9 C-6.813 6.858 -3.768 4.037 0 0 Z " fill="#62880F" transform="translate(197,412)"/>
<path d="M0 0 C1.32 0 2.64 0 4 0 C4 0.99 4 1.98 4 3 C3.608 3.041 3.608 3.041 1.625 3.25 C0.759 3.498 -0.108 3.745 -1 4 C-1.152 4.314 -1.152 4.314 -1.922 5.902 C-3.232 8.451 -4.329 9.068 -6.875 10.312 C-7.553 10.659 -8.231 11.006 -8.93 11.363 C-11.357 12.11 -12.633 11.823 -15 11 C-13.68 10.67 -12.36 10.34 -11 10 C-11 9.01 -11 8.02 -11 7 C-8.36 6.67 -5.72 6.34 -3 6 C-2.67 4.68 -2.34 3.36 -2 2 C-1.34 2 -0.68 2 0 2 C0 1.34 0 0.68 0 0 Z " fill="#B1DB41" transform="translate(109,175)"/>
<path d="M0 0 C0.763 0.309 1.526 0.619 2.312 0.938 C4.188 1.679 6.087 2.362 8 3 C8 3.66 8 4.32 8 5 C9.237 5.124 10.475 5.248 11.75 5.375 C14.876 5.757 17.289 6.305 20 8 C20 8.66 20 9.32 20 10 C14.699 10.499 11.5 8.967 7.188 6.125 C6.603 5.76 6.018 5.395 5.416 5.02 C1.151 2.301 1.151 2.301 0 0 Z " fill="#698B15" transform="translate(89,426)"/>
<path d="M0 0 C0.33 0.99 0.66 1.98 1 3 C1.33 3.66 1.66 4.32 2 5 C3.328 5.354 4.662 5.685 6 6 C6.99 6.66 7.98 7.32 9 8 C8.67 9.32 8.34 10.64 8 12 C7.67 11.34 7.34 10.68 7 10 C5.152 9.586 5.152 9.586 2.938 9.375 C1.638 9.251 0.339 9.127 -1 9 C-1.66 7.02 -2.32 5.04 -3 3 C-2.01 2.01 -1.02 1.02 0 0 Z M9 7 C11 8 11 8 11 8 Z " fill="#89C40C" transform="translate(90,406)"/>
<path d="M0 0 C0.99 0.33 1.98 0.66 3 1 C3.511 7.386 3.042 10.77 -1 16 C-1.716 17.646 -2.403 19.307 -3 21 C-4.608 16.981 -3.345 13.965 -2 10 C-1.629 9.319 -1.257 8.639 -0.875 7.938 C0.335 5.257 0.132 2.901 0 0 Z " fill="#D8C999" transform="translate(238,336)"/>
<path d="M0 0 C0 0.66 0 1.32 0 2 C0.784 1.814 1.567 1.629 2.375 1.438 C5 1 5 1 7 2 C7 2.99 7 3.98 7 5 C1.887 5.09 -2.961 5.028 -8 4 C-8.33 3.34 -8.66 2.68 -9 2 C-3.375 0 -3.375 0 0 0 Z " fill="#72AA04" transform="translate(123,427)"/>
<path d="M0 0 C0.33 0.99 0.66 1.98 1 3 C1.99 3.33 2.98 3.66 4 4 C4 4.66 4 5.32 4 6 C5.134 6.124 6.269 6.248 7.438 6.375 C8.613 6.581 9.789 6.788 11 7 C11.33 7.66 11.66 8.32 12 9 C11.216 8.959 10.433 8.918 9.625 8.875 C7 9 7 9 5 11 C3.02 10.01 1.04 9.02 -1 8 C-1.042 5.667 -1.041 3.333 -1 1 C-0.67 0.67 -0.34 0.34 0 0 Z " fill="#689F05" transform="translate(101,420)"/>
<path d="M0 0 C3.35 2.69 4.567 6.295 6.062 10.188 C6.326 10.858 6.589 11.528 6.86 12.219 C8.608 16.755 10.026 21.229 11 26 C10.34 26.33 9.68 26.66 9 27 C9 26.01 9 25.02 9 24 C8.34 24 7.68 24 7 24 C6.914 23.417 6.827 22.835 6.738 22.234 C5.649 15.878 3.647 10.353 1.023 4.469 C0 2 0 2 0 0 Z " fill="#89B128" transform="translate(218,223)"/>
<path d="M0 0 C0.66 0.33 1.32 0.66 2 1 C1.67 1.99 1.34 2.98 1 4 C0.01 4.309 -0.98 4.619 -2 4.938 C-2.495 5.113 -2.495 5.113 -5 6 C-5.688 8.062 -5.688 8.062 -6 10 C-6.99 10.33 -7.98 10.66 -9 11 C-9 11.66 -9 12.32 -9 13 C-10.32 13.33 -11.64 13.66 -13 14 C-12.34 12.68 -11.68 11.36 -11 10 C-10.34 10 -9.68 10 -9 10 C-8.938 9.423 -8.876 8.845 -8.812 8.25 C-7.341 4.174 -3.485 2.324 0 0 Z " fill="#ADDA3B" transform="translate(93,189)"/>
<path d="M0 0 C2.661 4.743 2.99 9.678 3.688 15 C3.83 15.998 3.972 16.995 4.119 18.023 C4.184 18.504 4.184 18.504 4.512 20.938 C4.63 21.813 4.748 22.688 4.87 23.59 C4.999 25.98 4.715 27.73 4 30 C2.627 27.254 2.433 24.599 2 21.562 C1.522 18.219 1.069 15.206 0 12 C0.438 9.812 0.438 9.812 1 8 C0.34 7.67 -0.32 7.34 -1 7 C-0.67 4.69 -0.34 2.38 0 0 Z " fill="#89AA30" transform="translate(231,259)"/>
<path d="M0 0 C0.66 0.66 1.32 1.32 2 2 C-2.75 5 -2.75 5 -5 5 C-5.33 5.99 -5.66 6.98 -6 8 C-6.66 8 -7.32 8 -8 8 C-8.041 8.557 -8.082 9.114 -8.125 9.688 C-9.469 13.24 -12.01 14.71 -15 17 C-13.648 9.7 -8.724 5.293 -3 1 C-2.01 0.67 -1.02 0.34 0 0 Z " fill="#B7E049" transform="translate(93,187)"/>
<path d="M0 0 C1.98 0.495 1.98 0.495 12 3 C11.01 3.99 10.02 4.98 9 6 C4.887 5.776 1.546 5.128 -2 3 C-1.34 2.01 -0.68 1.02 0 0 Z " fill="#658E0F" transform="translate(111,435)"/>
<path d="M0 0 C5.541 0.568 10.037 2.629 15 5 C15 5.33 15 5.66 15 6 C14.051 5.959 13.102 5.918 12.125 5.875 C9 6 9 6 7 8 C3.875 7.625 3.875 7.625 1 7 C1 6.67 1 6.34 1 6 C2.98 6 4.96 6 7 6 C7 5.34 7 4.68 7 4 C4.69 3.34 2.38 2.68 0 2 C0 1.34 0 0.68 0 0 Z " fill="#789E21" transform="translate(102,430)"/>
<path d="M0 0 C0.99 0 1.98 0 3 0 C3 0.66 3 1.32 3 2 C4.98 1.67 6.96 1.34 9 1 C9.33 1.99 9.66 2.98 10 4 C6.559 6.294 5.277 7 1 7 C0.67 6.01 0.34 5.02 0 4 C0.66 4 1.32 4 2 4 C2 3.34 2 2.68 2 2 C1.34 2 0.68 2 0 2 C0 1.34 0 0.68 0 0 Z " fill="#9BCE20" transform="translate(51,348)"/>
<path d="M0 0 C1 3 1 3 -0.074 5.777 C-0.607 6.82 -1.139 7.863 -1.688 8.938 C-1.947 9.458 -1.947 9.458 -3.262 12.09 C-4.922 14.87 -6.609 16.838 -9 19 C-8.546 17.415 -8.087 15.832 -7.625 14.25 C-7.37 13.368 -7.115 12.487 -6.852 11.578 C-5.52 7.547 -4.056 4.923 -1 2 C-0.67 1.34 -0.34 0.68 0 0 Z " fill="#A4A557" transform="translate(220,378)"/>
<path d="M0 0 C0.33 0 0.66 0 1 0 C1.249 7.29 0.723 13.907 -1 21 C-1.33 21 -1.66 21 -2 21 C-2.054 18.25 -2.094 15.501 -2.125 12.75 C-2.142 11.973 -2.159 11.195 -2.176 10.395 C-2.237 3.276 -2.237 3.276 0 0 Z " fill="#DFD2A7" transform="translate(241,308)"/>
<path d="M0 0 C0.33 0.99 0.66 1.98 1 3 C1.99 3.33 2.98 3.66 4 4 C4.144 5.217 4.289 6.434 4.438 7.688 C4.828 10.827 5.324 13.908 6 17 C6.66 17 7.32 17 8 17 C8 18.98 8 20.96 8 23 C5.202 20.202 4.23 16.828 2.875 13.188 C2.598 12.475 2.321 11.763 2.035 11.029 C0.608 7.229 -0.373 4.128 0 0 Z " fill="#8BB027" transform="translate(43,352)"/>
<path d="M0 0 C0.66 0 1.32 0 2 0 C0.412 3.342 -1.46 6.437 -3.438 9.562 C-4.034 10.513 -4.631 11.463 -5.246 12.441 C-6.707 14.573 -8.097 16.272 -10 18 C-9.314 14.128 -7.525 11.127 -5.562 7.75 C-4.945 6.672 -4.328 5.595 -3.691 4.484 C-3.133 3.665 -2.575 2.845 -2 2 C-1.34 2 -0.68 2 0 2 C0 1.34 0 0.68 0 0 Z " fill="#B6DF46" transform="translate(73,200)"/>
<path d="M0 0 C0.33 0 0.66 0 1 0 C0.72 7.487 -0.476 13.363 -4 20 C-5.14 16.144 -4.569 14.716 -3 11 C-2.434 8.672 -1.942 6.336 -1.465 3.988 C-1 2 -1 2 0 0 Z " fill="#7BAC15" transform="translate(230,338)"/>
<path d="M0 0 C-1.295 2.428 -2.358 3.77 -4.98 4.711 C-6.974 5.198 -8.987 5.604 -11 6 C-11 4.68 -11 3.36 -11 2 C-7.17 0.198 -4.219 -0.196 0 0 Z " fill="#AFDC38" transform="translate(116,166)"/>
<path d="M0 0 C4.248 0.472 6.2 2.967 9 6 C8.67 6.33 8.34 6.66 8 7 C8.99 7.99 9.98 8.98 11 10 C6.125 8.25 6.125 8.25 5 6 C2.938 5.375 2.938 5.375 1 5 C0.67 3.35 0.34 1.7 0 0 Z " fill="#CABD83" transform="translate(82,423)"/>
<path d="M0 0 C0.66 0 1.32 0 2 0 C1.31 4.125 0.051 7.845 -1.438 11.75 C-1.869 12.9 -2.301 14.05 -2.746 15.234 C-4 18 -4 18 -6 19 C-4.7 12.285 -2.701 6.28 0 0 Z " fill="#F8F9E9" transform="translate(50,226)"/>
<path d="M0 0 C0.33 0.99 0.66 1.98 1 3 C5.29 3 9.58 3 14 3 C10.263 5.491 8.255 5.207 3.812 5.125 C2.54 5.107 1.268 5.089 -0.043 5.07 C-0.531 5.059 -0.531 5.059 -3 5 C-2.625 3.062 -2.625 3.062 -2 1 C-1.34 0.67 -0.68 0.34 0 0 Z " fill="#6FA704" transform="translate(134,428)"/>
<path d="M0 0 C1.449 2.898 0.507 4.592 -0.312 7.688 C-0.594 8.759 -0.875 9.83 -1.164 10.934 C-2.081 14.298 -3.012 17.655 -4 21 C-6 18 -6 18 -5.75 15.5 C-5 13 -5 13 -3 10 C-2.59 8.472 -2.238 6.928 -1.938 5.375 C-1.101 1.101 -1.101 1.101 0 0 Z " fill="#82A028" transform="translate(226,357)"/>
<path d="M0 0 C0.66 0 1.32 0 2 0 C2 5.61 2 11.22 2 17 C1.01 16.34 0.02 15.68 -1 15 C-1.328 13.047 -1.328 13.047 -1.25 10.75 C-1.224 9.952 -1.198 9.154 -1.172 8.332 C-0.964 5.512 -0.568 2.77 0 0 Z " fill="#D9CC9B" transform="translate(237,308)"/>
<path d="M0 0 C2.424 2.424 2.44 3.529 2.812 6.875 C2.922 7.739 3.032 8.602 3.145 9.492 C2.969 12.546 2.015 13.761 0 16 C-0.197 14.272 -0.382 12.542 -0.562 10.812 C-0.615 10.331 -0.615 10.331 -0.879 7.895 C-0.998 5.058 -0.678 2.746 0 0 Z " fill="#E1D7A8" transform="translate(236,274)"/>
<path d="M0 0 C-2.029 3.044 -2.726 3.748 -6 5 C-7.32 5 -8.64 5 -10 5 C-10 5.66 -10 6.32 -10 7 C-10.66 6.67 -11.32 6.34 -12 6 C-11.34 4.35 -10.68 2.7 -10 1 C-8.68 1.33 -7.36 1.66 -6 2 C-6 1.34 -6 0.68 -6 0 C-2.25 -1.125 -2.25 -1.125 0 0 Z " fill="#77AF05" transform="translate(174,420)"/>
<path d="M0 0 C0.66 0.33 1.32 0.66 2 1 C2 3 2 5 2 7 C0.188 7.688 0.188 7.688 -2 8 C-3.75 6.562 -3.75 6.562 -5 5 C-4 2 -4 2 -2.062 0.75 C-1.382 0.502 -0.701 0.255 0 0 Z " fill="#99D21B" transform="translate(100,274)"/>
<path d="M0 0 C-0.256 2.343 -0.593 4.678 -1 7 C-1.33 7.165 -1.33 7.165 -3 8 C-3.99 7.34 -4.98 6.68 -6 6 C-5.625 3.562 -5.625 3.562 -5 1 C-3 0 -3 0 0 0 Z " fill="#A6D62F" transform="translate(52,276)"/>
<path d="M0 0 C2.916 3.54 5.501 7.163 8 11 C7.67 11.66 7.34 12.32 7 13 C6.01 13 5.02 13 4 13 C3.34 10.69 2.68 8.38 2 6 C1.34 6.66 0.68 7.32 0 8 C0 5.36 0 2.72 0 0 Z " fill="#DDD7A3" transform="translate(58,391)"/>
<path d="M0 0 C2.776 3.238 4.445 6.061 6 10 C6.258 10.237 6.258 10.237 7.562 11.438 C9.658 13.715 9.666 15.997 10 19 C6.892 16.322 5.239 13.086 3.312 9.5 C2.69 8.355 2.067 7.211 1.426 6.031 C0 3 0 3 0 0 Z " fill="#86A430" transform="translate(52,377)"/>
<path d="M0 0 C0.33 0.99 0.66 1.98 1 3 C0.34 3 -0.32 3 -1 3 C-1 3.99 -1 4.98 -1 6 C-2.98 5.34 -4.96 4.68 -7 4 C-7 3.01 -7 2.02 -7 1 C-4.537 -0.231 -2.72 -0.072 0 0 Z " fill="#A8D833" transform="translate(159,164)"/>
<path d="M0 0 C0.33 0.66 0.66 1.32 1 2 C-6.114 10.815 -6.114 10.815 -11 12 C-7.491 7.816 -3.919 3.804 0 0 Z " fill="#B6AB6B" transform="translate(199,412)"/>
<path d="M0 0 C0.33 0.66 0.66 1.32 1 2 C-3.62 4.64 -8.24 7.28 -13 10 C-13 9.01 -13 8.02 -13 7 C-11.426 5.684 -11.426 5.684 -9.312 4.438 C-8.587 4.01 -7.861 3.582 -7.113 3.141 C-4.801 1.893 -2.485 0.854 0 0 Z " fill="#F6F9E1" transform="translate(106,166)"/>
<path d="M0 0 C0.33 0.99 0.66 1.98 1 3 C3.062 4.688 3.062 4.688 5 6 C4.392 5.99 4.392 5.99 1.312 5.938 C-1.92 5.932 -4.849 6.212 -8 7 C-5.744 3.617 -4.638 3.399 -1 2 C-0.67 1.34 -0.34 0.68 0 0 Z " fill="#9BD21A" transform="translate(137,316)"/>
<path d="M0 0 C0 0.66 0 1.32 0 2 C0.99 2.33 1.98 2.66 3 3 C3 3.66 3 4.32 3 5 C2.422 4.794 1.845 4.587 1.25 4.375 C-1.52 3.913 -2.646 4.571 -5 6 C-5.66 5.34 -6.32 4.68 -7 4 C-2.25 0 -2.25 0 0 0 Z " fill="#9AD11D" transform="translate(84,282)"/>
<path d="M0 0 C0.33 0.99 0.66 1.98 1 3 C-2.333 6.333 -5.667 9.667 -9 13 C-8.513 8.585 -7.149 6.696 -3.938 3.688 C-3.204 2.99 -2.471 2.293 -1.715 1.574 C-1.149 1.055 -0.583 0.535 0 0 Z " fill="#BCE350" transform="translate(84,188)"/>
<path d="M0 0 C2.667 0 5.333 0 8 0 C8.33 0.99 8.66 1.98 9 3 C7 5 7 5 4.375 5.125 C3.591 5.084 2.808 5.043 2 5 C2 3.68 2 2.36 2 1 C1.34 0.67 0.68 0.34 0 0 Z " fill="#81BA07" transform="translate(152,421)"/>
<path d="M0 0 C0.66 0.66 1.32 1.32 2 2 C1.763 2.454 1.763 2.454 0.562 4.75 C-1 8 -1 8 -1.5 10.188 C-2.129 12.469 -3.239 13.469 -5 15 C-4.373 11.338 -3.355 8.118 -1.938 4.688 C-1.756 4.246 -1.756 4.246 -0.84 2.012 C-0.563 1.348 -0.286 0.684 0 0 Z " fill="#C1B677" transform="translate(227,361)"/>
<path d="M0 0 C5.192 -0.212 9.127 0.409 14 2 C13.67 2.66 13.34 3.32 13 4 C11.394 3.717 9.79 3.423 8.188 3.125 C7.741 3.044 7.741 3.044 5.48 2.633 C3 2 3 2 0 0 Z " fill="#F6F9E6" transform="translate(149,161)"/>
<path d="M0 0 C1.047 3.402 1.377 6.452 1 10 C-1 11.875 -1 11.875 -3 13 C-2.521 8.286 -2.032 4.334 0 0 Z " fill="#A9D13D" transform="translate(43,252)"/>
<path d="M0 0 C0.66 0 1.32 0 2 0 C1.526 4.268 -0.958 6.175 -4 9 C-4.299 9.299 -4.299 9.299 -5.812 10.812 C-6.204 11.204 -6.596 11.596 -7 12 C-6.383 8.616 -5.13 6.48 -3.062 3.75 C-2.538 3.044 -2.013 2.337 -1.473 1.609 C-1.23 1.344 -1.23 1.344 0 0 Z " fill="#B4DE46" transform="translate(76,204)"/>
<path d="M0 0 C0.536 0.093 0.536 0.093 3.25 0.562 C6.404 0.93 8.098 1.045 11 0 C10.67 0.99 10.34 1.98 10 3 C6.7 3 3.4 3 0 3 C0 2.01 0 1.02 0 0 Z " fill="#D2C492" transform="translate(136,453)"/>
<path d="M0 0 C0.33 0.99 0.66 1.98 1 3 C0.381 3.248 -0.238 3.495 -0.875 3.75 C-3.351 5.206 -3.951 6.378 -5 9 C-5.66 9 -6.32 9 -7 9 C-7 6 -7 6 -5.469 4.395 C-5.144 4.133 -5.144 4.133 -3.5 2.812 C-2.85 2.283 -2.201 1.753 -1.531 1.207 C-1.026 0.809 -0.521 0.41 0 0 Z " fill="#71A902" transform="translate(191,404)"/>
<path d="M0 0 C0.99 0.33 1.98 0.66 3 1 C3 3.97 3 6.94 3 10 C2.67 10.165 2.67 10.165 1 11 C0.121 7.266 -0.089 3.832 0 0 Z " fill="#DED0A3" transform="translate(238,336)"/>
<path d="M0 0 C2.64 0.33 5.28 0.66 8 1 C8 1.33 8 1.66 8 2 C5.69 2.33 3.38 2.66 1 3 C1.33 3.99 1.66 4.98 2 6 C1.34 6.33 1.34 6.33 -2 8 C-1.34 5.36 -0.68 2.72 0 0 Z " fill="#94C914" transform="translate(90,207)"/>
<path d="M0 0 C1.98 0.66 3.96 1.32 6 2 C6 2.66 6 3.32 6 4 C2.625 4.625 2.625 4.625 -1 5 C-1.66 4.34 -2.32 3.68 -3 3 C-2.01 2.01 -1.02 1.02 0 0 Z " fill="#A9D731" transform="translate(150,171)"/>
<path d="M0 0 C2 0.688 2 0.688 4 2.688 C0.71 3.784 -0.713 3.487 -4 2.688 C-4 2.027 -4 1.368 -4 0.688 C-2 -0.312 -2 -0.312 0 0 Z " fill="#B1A468" transform="translate(124,442.3125)"/>
<path d="M0 0 C3.958 0.565 6.666 1.809 10 4 C9.67 4.66 9.34 5.32 9 6 C8.34 6 7.68 6 7 6 C7 5.34 7 4.68 7 4 C6.402 3.897 5.804 3.794 5.188 3.688 C2.718 2.911 1.677 1.929 0 0 Z " fill="#BCB372" transform="translate(89,429)"/>
<path d="M0 0 C0.99 0.33 1.98 0.66 3 1 C-0.61 4.291 -3.126 5.547 -8 6 C-8 5.34 -8 4.68 -8 4 C-5.094 2.743 -3.204 2 0 2 C0 1.34 0 0.68 0 0 Z " fill="#679D03" transform="translate(172,421)"/>
<path d="M0 0 C0.66 0.66 1.32 1.32 2 2 C1.01 3.98 0.02 5.96 -1 8 C-1.66 7.34 -2.32 6.68 -3 6 C-2.67 5.34 -2.34 4.68 -2 4 C-2.66 3.67 -3.32 3.34 -4 3 C-2.68 2.67 -1.36 2.34 0 2 C0 1.34 0 0.68 0 0 Z " fill="#79B202" transform="translate(218,359)"/>
<path d="M0 0 C0.99 0.99 1.98 1.98 3 3 C3 2.34 3 1.68 3 1 C3.99 1.33 4.98 1.66 6 2 C4.68 3.32 3.36 4.64 2 6 C0.68 4.68 -0.64 3.36 -2 2 C-1.34 1.34 -0.68 0.68 0 0 Z " fill="#84BC09" transform="translate(147,422)"/>
<path d="M0 0 C1.98 0 3.96 0 6 0 C6 1.98 6 3.96 6 6 C3.979 4.358 1.98 2.691 0 1 C0 0.67 0 0.34 0 0 Z " fill="#75A706" transform="translate(74,407)"/>
<path d="M0 0 C2.964 2.808 5.445 5.183 7 9 C3.735 7.196 2.111 6.166 0 3 C0 2.01 0 1.02 0 0 Z " fill="#D7CF97" transform="translate(66,404)"/>
<path d="M0 0 C0.598 0.639 1.196 1.279 1.812 1.938 C4 4 4 4 7 5 C7.688 7.062 7.688 7.062 8 9 C6.25 8.875 6.25 8.875 4 8 C0 2.778 0 2.778 0 0 Z " fill="#86A02F" transform="translate(65,400)"/>
<path d="M0 0 C1.605 4.012 0.454 7.073 -1 11 C-1.495 11.33 -1.495 11.33 -4 13 C-3.521 11.396 -3.042 9.792 -2.562 8.188 C-2.296 7.294 -2.029 6.401 -1.754 5.48 C-1.196 3.645 -0.607 1.82 0 0 Z " fill="#77A913" transform="translate(224,358)"/>
<path d="M0 0 C4.219 0.479 6.797 1.166 10 4 C7 5 7 5 5.176 4.223 C3.451 3.148 1.725 2.074 0 1 C0 0.67 0 0.34 0 0 Z " fill="#F4F8DF" transform="translate(164,165)"/>
<path d="M0 0 C3.344 0.557 6.033 1.352 9 3 C6 4 6 4 2 4 C2 3.34 2 2.68 2 2 C1.34 2 0.68 2 0 2 C0 1.34 0 0.68 0 0 Z " fill="#CBBC87" transform="translate(119,448)"/>
<path d="M0 0 C1 3 1 3 -0.438 6.188 C-0.695 6.652 -0.695 6.652 -2 9 C-2.688 7.312 -2.688 7.312 -3 5 C-1.562 2.25 -1.562 2.25 0 0 Z " fill="#99D01E" transform="translate(213,263)"/>
<path d="M0 0 C0 0.99 0 1.98 0 3 C-2.957 4.478 -5.742 4.06 -9 4 C-8 2 -8 2 -6.152 1.367 C-5.787 1.286 -5.787 1.286 -3.938 0.875 C-3.204 0.707 -2.471 0.54 -1.715 0.367 C-1.149 0.246 -0.583 0.125 0 0 Z " fill="#B5DF48" transform="translate(122,171)"/>
<path d="M0 0 C0.33 0.99 0.66 1.98 1 3 C1.99 3.33 2.98 3.66 4 4 C4 4.66 4 5.32 4 6 C4.66 6.33 5.32 6.66 6 7 C1.25 6.125 1.25 6.125 -1 5 C-0.67 3.35 -0.34 1.7 0 0 Z " fill="#74AC04" transform="translate(101,420)"/>
<path d="M0 0 C1.32 0.66 2.64 1.32 4 2 C3.67 4.31 3.34 6.62 3 9 C2.856 8.701 2.856 8.701 2.125 7.188 C1 5 1 5 -1 2 C-0.67 1.34 -0.34 0.68 0 0 Z " fill="#81B414" transform="translate(227,255)"/>
<path d="M0 0 C0.99 0 1.98 0 3 0 C1.731 3.914 0.488 5.791 -3 8 C-1.125 1.125 -1.125 1.125 0 0 Z " fill="#9FA154" transform="translate(204,403)"/>
<path d="M0 0 C2 3 2 3 1.625 5.188 C1.419 5.786 1.213 6.384 1 7 C-0.5 5.688 -0.5 5.688 -2 4 C-2 3.01 -2 2.02 -2 1 C-1.34 0.67 -0.68 0.34 0 0 Z " fill="#90B82B" transform="translate(229,251)"/>
<path d="M0 0 C0.66 0 1.32 0 2 0 C0.688 3.937 -0.919 6.227 -4 9 C-2.941 5.597 -1.991 2.986 0 0 Z " fill="#F8F9E6" transform="translate(65,200)"/>
<path d="M0 0 C0.99 0.33 1.98 0.66 3 1 C1.35 2.65 -0.3 4.3 -2 6 C-2.99 5.67 -3.98 5.34 -5 5 C-3.35 3.35 -1.7 1.7 0 0 Z " fill="#C6E967" transform="translate(93,182)"/>
<path d="M0 0 C0.485 0.01 0.485 0.01 2.938 0.062 C2.608 0.558 2.608 0.558 0.938 3.062 C0.278 3.062 -0.382 3.062 -1.062 3.062 C-1.392 3.723 -1.722 4.382 -2.062 5.062 C-2.062 4.072 -2.062 3.082 -2.062 2.062 C-2.722 1.733 -3.382 1.402 -4.062 1.062 C-3.062 0.062 -3.062 0.062 0 0 Z " fill="#9AD11B" transform="translate(89.0625,359.9375)"/>
<path d="M0 0 C0.33 0.99 0.66 1.98 1 3 C1.66 3 2.32 3 3 3 C2.67 4.32 2.34 5.64 2 7 C1.01 6.67 0.02 6.34 -1 6 C-0.67 4.02 -0.34 2.04 0 0 Z " fill="#ABDA35" transform="translate(45,286)"/>
<path d="M0 0 C-2.31 0.66 -4.62 1.32 -7 2 C-7.33 1.01 -7.66 0.02 -8 -1 C-4.597 -2.215 -3.067 -1.862 0 0 Z " fill="#A3D62A" transform="translate(59,267)"/>
<path d="M0 0 C0.33 0.99 0.66 1.98 1 3 C1.66 3 2.32 3 3 3 C3.33 4.32 3.66 5.64 4 7 C2.35 6.67 0.7 6.34 -1 6 C-0.67 4.02 -0.34 2.04 0 0 Z " fill="#B1DB3F" transform="translate(54,234)"/>
<path d="M0 0 C0.66 0.33 1.32 0.66 2 1 C2.33 1.99 2.66 2.98 3 4 C0.69 4.33 -1.62 4.66 -4 5 C-2.25 1.125 -2.25 1.125 0 0 Z " fill="#AAD833" transform="translate(110,178)"/>
</svg>
