<?xml version="1.0" encoding="UTF-8"?>
<!-- Generator: visioncortex VTracer 0.6.12 -->
<svg version="1.1" xmlns="http://www.w3.org/2000/svg" width="315" height="509">
<path d="M0 0 C103.95 0 207.9 0 315 0 C315 167.97 315 335.94 315 509 C211.05 509 107.1 509 0 509 C0 341.03 0 173.06 0 0 Z " fill="#FBF3DC" transform="translate(0,0)"/>
<path d="M0 0 C6.924 3.553 12.916 8.92 18.951 13.79 C21.874 16.14 24.828 18.449 27.781 20.762 C28.949 21.68 30.117 22.597 31.285 23.516 C33.604 25.338 35.924 27.158 38.246 28.977 C44.306 33.726 50.341 38.504 56.344 43.324 C63.084 48.733 69.914 54.016 76.781 59.262 C80.004 61.729 83.223 64.201 86.434 66.684 C88.788 68.503 91.158 70.3 93.535 72.09 C94.784 73.043 96.033 73.996 97.281 74.949 C97.857 75.376 98.432 75.804 99.025 76.244 C104.939 80.796 108.866 85.833 110.594 93.199 C110.827 94.157 111.06 95.115 111.301 96.102 C111.459 96.814 111.618 97.527 111.781 98.262 C112.111 98.262 112.441 98.262 112.781 98.262 C112.781 99.912 112.781 101.562 112.781 103.262 C113.441 103.262 114.101 103.262 114.781 103.262 C115.589 108.31 115.923 113.273 116.031 118.387 C116.044 118.966 116.044 118.966 116.109 121.895 C115.744 125.646 114.614 128 112.781 131.262 C112.413 132.586 112.069 133.918 111.781 135.262 C111.451 135.922 111.121 136.582 110.781 137.262 C110.988 137.901 111.194 138.54 111.406 139.199 C111.53 139.88 111.654 140.56 111.781 141.262 C110.531 142.699 110.531 142.699 108.781 144.262 C105.781 148.817 105.781 148.817 105.781 151.262 C104.873 153.726 103.936 156.001 102.594 158.262 C101.781 160.262 101.781 160.262 102.281 162.574 C102.97 166.275 102.411 168.945 100.781 172.262 C94.309 181.498 94.309 181.498 90.781 183.262 C90.946 182.499 91.111 181.735 91.281 180.949 C91.781 178.262 91.781 178.262 91.781 175.262 C91.121 175.262 90.461 175.262 89.781 175.262 C88.821 178.282 87.864 181.303 86.906 184.324 C86.772 184.748 86.772 184.748 86.09 186.893 C84.579 191.664 83.151 196.448 81.781 201.262 C80.291 206.205 78.774 211.14 77.26 216.076 C76.956 217.069 76.653 218.063 76.34 219.086 C76.065 219.984 75.789 220.882 75.506 221.807 C74.874 223.949 74.303 226.091 73.781 228.262 C73.121 228.262 72.461 228.262 71.781 228.262 C71.657 228.85 71.534 229.437 71.406 230.043 C70.143 234.529 67.666 238.083 63.695 240.566 C59.112 242.71 54.839 243.775 49.781 244.262 C49.392 244.346 49.392 244.346 47.424 244.773 C44.642 245.287 42.081 245.391 39.254 245.395 C38.214 245.396 37.175 245.397 36.104 245.398 C35.028 245.395 33.952 245.391 32.844 245.387 C32.308 245.389 32.308 245.389 29.596 245.398 C21.531 245.388 21.531 245.388 17.777 244.754 C7.45 243.057 -3.632 244.48 -14.035 244.994 C-15.135 245.042 -16.234 245.091 -17.367 245.141 C-18.349 245.188 -19.33 245.235 -20.341 245.283 C-23.401 245.26 -26.214 244.815 -29.219 244.262 C-30.78 244.199 -32.344 244.175 -33.906 244.199 C-34.653 244.208 -35.399 244.217 -36.168 244.227 C-36.845 244.238 -37.521 244.25 -38.219 244.262 C-45.552 244.262 -52.885 244.262 -60.219 244.262 C-60.549 245.252 -60.879 246.242 -61.219 247.262 C-61.549 246.932 -61.549 246.932 -63.219 245.262 C-65.344 244.637 -65.344 244.637 -67.219 244.262 C-66.559 246.242 -65.899 248.222 -65.219 250.262 C-66.66 249.836 -68.096 249.395 -69.531 248.949 C-70.332 248.706 -71.132 248.462 -71.957 248.211 C-74.346 247.208 -75.615 246.281 -77.219 244.262 C-77.219 243.602 -77.219 242.942 -77.219 242.262 C-77.838 242.2 -78.456 242.138 -79.094 242.074 C-79.795 241.806 -80.496 241.538 -81.219 241.262 C-81.943 239.619 -82.596 237.945 -83.219 236.262 C-84.008 235.206 -84.797 234.15 -85.609 233.062 C-88.214 229.474 -89.73 225.794 -91.031 221.574 C-91.275 220.816 -91.519 220.057 -91.77 219.276 C-94.423 210.883 -96.793 202.402 -99.185 193.932 C-101.302 186.432 -103.491 178.961 -105.781 171.512 C-108.538 162.545 -111.194 153.552 -113.803 144.54 C-115.243 139.575 -116.714 134.626 -118.281 129.699 C-120.144 123.673 -121.824 117.6 -123.469 111.512 C-123.74 110.54 -124.01 109.569 -124.289 108.568 C-126.479 100.321 -127.884 92.866 -123.539 85.153 C-119.383 79.199 -113.545 74.786 -107.719 70.574 C-102.315 66.597 -96.998 62.544 -91.781 58.324 C-85.758 53.46 -79.643 48.733 -73.482 44.045 C-69.054 40.672 -64.652 37.271 -60.281 33.824 C-49.075 24.992 -37.838 16.197 -26.469 7.574 C-25.826 7.081 -25.183 6.588 -24.52 6.08 C-16.892 0.331 -9.623 -3.202 0 0 Z " fill="#FCD50C" transform="translate(170.21875,79.73828125)"/>
<path d="M0 0 C103.95 0 207.9 0 315 0 C315 167.97 315 335.94 315 509 C211.05 509 107.1 509 0 509 C0 341.03 0 173.06 0 0 Z M16 6 C14.829 9.514 14.872 12.272 14.869 15.983 C14.867 16.701 14.864 17.419 14.862 18.16 C14.857 20.586 14.858 23.011 14.86 25.437 C14.857 27.187 14.854 28.936 14.851 30.685 C14.842 35.507 14.841 40.329 14.84 45.15 C14.838 50.345 14.831 55.539 14.824 60.733 C14.81 72.097 14.804 83.46 14.8 94.823 C14.797 101.913 14.793 109.003 14.788 116.093 C14.776 135.708 14.766 155.324 14.762 174.939 C14.762 176.195 14.762 177.451 14.762 178.745 C14.762 180.004 14.761 181.263 14.761 182.56 C14.761 185.111 14.76 187.663 14.76 190.214 C14.76 191.479 14.759 192.745 14.759 194.049 C14.755 214.571 14.738 235.094 14.714 255.616 C14.691 276.668 14.678 297.719 14.677 318.77 C14.676 330.597 14.67 342.424 14.652 354.251 C14.637 364.319 14.632 374.386 14.64 384.454 C14.644 389.595 14.643 394.735 14.629 399.876 C14.616 404.576 14.617 409.276 14.63 413.976 C14.631 415.682 14.628 417.388 14.62 419.094 C14.609 421.402 14.616 423.709 14.628 426.017 C14.627 427.303 14.627 428.588 14.626 429.912 C15 433 15 433 16.223 434.913 C18.545 436.334 20.076 436.377 22.796 436.38 C23.79 436.389 24.783 436.397 25.806 436.406 C26.901 436.4 27.995 436.394 29.122 436.388 C29.702 436.39 29.702 436.39 32.638 436.404 C35.864 436.416 39.089 436.414 42.314 436.407 C45.791 436.402 49.267 436.415 52.744 436.425 C59.557 436.442 66.369 436.443 73.182 436.438 C78.717 436.434 84.252 436.435 89.788 436.44 C90.181 436.441 90.181 436.441 92.172 436.443 C93.771 436.444 95.369 436.446 96.968 436.447 C111.967 436.461 126.966 436.456 141.966 436.444 C155.698 436.434 169.431 436.447 183.164 436.471 C197.254 436.495 211.344 436.505 225.434 436.498 C233.349 436.495 241.264 436.497 249.179 436.515 C255.916 436.529 262.653 436.53 269.39 436.513 C272.83 436.504 276.269 436.502 279.708 436.517 C283.432 436.53 287.154 436.519 290.878 436.501 C291.972 436.511 293.066 436.52 294.194 436.53 C295.187 436.52 296.18 436.511 297.204 436.501 C298.064 436.5 298.924 436.5 299.81 436.5 C302 436 302 436 303.776 434.414 C305.446 431.12 305.379 428.573 305.383 424.882 C305.388 424.161 305.393 423.44 305.398 422.697 C305.411 420.268 305.403 417.84 305.394 415.411 C305.399 413.658 305.405 411.904 305.413 410.15 C305.429 405.321 305.427 400.493 305.421 395.664 C305.419 390.46 305.433 385.256 305.446 380.052 C305.467 369.854 305.471 359.655 305.469 349.457 C305.468 341.171 305.472 332.885 305.479 324.599 C305.481 322.215 305.484 319.831 305.486 317.447 C305.487 316.261 305.488 315.075 305.489 313.852 C305.508 291.4 305.507 268.949 305.5 246.497 C305.494 225.939 305.515 205.382 305.548 184.825 C305.582 163.734 305.597 142.643 305.592 121.553 C305.59 109.705 305.596 97.857 305.62 86.009 C305.641 75.924 305.645 65.839 305.626 55.754 C305.617 50.605 305.616 45.456 305.636 40.308 C305.655 35.599 305.651 30.89 305.628 26.181 C305.624 24.473 305.628 22.765 305.641 21.058 C305.658 18.744 305.645 16.432 305.624 14.118 C305.624 13.475 305.624 13.475 305.624 10.217 C305 7 305 7 302.772 4.586 C299.849 2.914 298.348 2.5 295.023 2.499 C294.04 2.49 293.057 2.48 292.045 2.47 C290.973 2.479 289.9 2.489 288.796 2.499 C288.223 2.496 288.223 2.496 285.327 2.482 C281.482 2.468 277.638 2.483 273.793 2.498 C271.04 2.497 268.287 2.489 265.534 2.482 C258.828 2.468 252.123 2.476 245.417 2.491 C237.61 2.507 229.803 2.504 221.996 2.5 C208.069 2.495 194.141 2.509 180.214 2.533 C166.694 2.557 153.175 2.564 139.656 2.554 C124.938 2.543 110.22 2.541 95.502 2.555 C93.933 2.557 92.365 2.558 90.796 2.56 C90.41 2.56 90.41 2.56 88.457 2.562 C83.013 2.567 77.569 2.565 72.125 2.561 C65.493 2.556 58.861 2.562 52.229 2.581 C48.844 2.591 45.459 2.596 42.075 2.589 C38.409 2.583 34.743 2.595 31.077 2.612 C30.003 2.606 28.928 2.6 27.821 2.594 C26.841 2.603 25.861 2.611 24.851 2.62 C24.428 2.62 24.428 2.62 22.286 2.623 C19.443 3.092 18.081 4.032 16 6 Z " fill="#FDFDFC" transform="translate(0,0)"/>
<path d="M0 0 C0.944 0.015 1.887 0.031 2.859 0.047 C5.25 0.25 5.25 0.25 7.25 1.25 C6.92 1.91 6.59 2.57 6.25 3.25 C6.25 6.444 6.773 7.568 8.25 10.312 C10.25 14.042 10.25 14.042 10.25 16.25 C11.24 16.25 12.23 16.25 13.25 16.25 C13.58 17.24 13.91 18.23 14.25 19.25 C15.24 19.58 16.23 19.91 17.25 20.25 C18.24 20.58 19.23 20.91 20.25 21.25 C20.58 22.24 20.91 23.23 21.25 24.25 C22.551 25.291 23.888 26.289 25.25 27.25 C25.766 27.786 26.281 28.323 26.812 28.875 C28.25 30.25 28.25 30.25 31.25 31.25 C31.25 31.91 31.25 32.57 31.25 33.25 C31.91 33.25 32.57 33.25 33.25 33.25 C33.58 34.57 33.91 35.89 34.25 37.25 C35.24 37.085 35.24 37.085 40.25 36.25 C39.051 39.333 37.773 42.313 36.25 45.25 C38.56 44.59 40.87 43.93 43.25 43.25 C44.184 46.26 44.294 47.117 43.25 50.25 C47.208 49.685 49.916 48.441 53.25 46.25 C53.58 47.57 53.91 48.89 54.25 50.25 C54.91 50.25 55.57 50.25 56.25 50.25 C55.59 52.56 54.93 54.87 54.25 57.25 C54.064 57.013 54.064 57.013 53.125 55.812 C50.624 53.728 48.434 53.604 45.25 53.25 C44.92 54.24 44.59 55.23 44.25 56.25 C43.59 56.25 42.93 56.25 42.25 56.25 C42.58 56.91 42.58 56.91 44.25 60.25 C41.94 61.57 39.63 62.89 37.25 64.25 C37.25 65.24 37.25 66.23 37.25 67.25 C36.487 66.92 35.724 66.59 34.938 66.25 C32.25 65.25 32.25 65.25 29.25 65.25 C27.426 66.125 27.426 66.125 25.562 67.25 C24.469 67.91 23.376 68.57 22.25 69.25 C23.054 69.683 23.859 70.116 24.688 70.562 C27.25 72.25 27.25 72.25 28.25 75.25 C29.875 77.062 29.875 77.062 32.25 78.25 C36 77.438 36 77.438 39.25 76.25 C38.25 79.25 38.25 79.25 35.25 81.25 C32.974 81.384 30.779 81.248 28.504 81.125 C25.918 81.268 24.427 81.87 22.25 83.25 C21.567 84.575 20.899 85.908 20.25 87.25 C16.623 88.459 15.877 88.459 12.25 87.25 C11.92 86.92 11.59 86.59 11.25 86.25 C10.59 86.745 10.59 86.745 7.25 89.25 C7.415 88.59 7.415 88.59 8.25 85.25 C7.59 85.25 6.93 85.25 6.25 85.25 C6.25 84.59 6.25 83.93 6.25 83.25 C5.095 83.415 5.095 83.415 -0.75 84.25 C-0.75 83.59 -0.75 82.93 -0.75 82.25 C-1.245 82.415 -1.245 82.415 -3.75 83.25 C-2.76 84.24 -1.77 85.23 -0.75 86.25 C-1.08 86.91 -1.41 87.57 -1.75 88.25 C-3.688 87.5 -3.688 87.5 -5.75 86.25 C-6.549 84.12 -6.75 82.517 -6.75 80.25 C-7.245 80.085 -7.245 80.085 -9.75 79.25 C-8.76 79.25 -7.77 79.25 -6.75 79.25 C-6.647 78.631 -6.544 78.012 -6.438 77.375 C-5.75 75.25 -5.75 75.25 -2.75 73.25 C-2.75 71.93 -2.75 70.61 -2.75 69.25 C-2.75 68.59 -2.75 67.93 -2.75 67.25 C-1.43 66.92 -1.43 66.92 5.25 65.25 C5.25 64.59 5.25 63.93 5.25 63.25 C5.91 63.25 6.57 63.25 7.25 63.25 C7.415 62.92 7.415 62.92 8.25 61.25 C7.59 61.25 6.93 61.25 6.25 61.25 C6.91 59.6 7.57 57.95 8.25 56.25 C7.569 56.436 6.889 56.621 6.188 56.812 C2.678 57.335 -0.272 56.864 -3.75 56.25 C-3.585 55.92 -3.585 55.92 -2.75 54.25 C-0.246 53.836 -0.246 53.836 2.812 53.625 C3.824 53.55 4.836 53.475 5.879 53.398 C6.661 53.349 7.444 53.3 8.25 53.25 C8.25 52.59 8.25 51.93 8.25 51.25 C7.59 51.25 6.93 51.25 6.25 51.25 C6.58 49.93 6.91 48.61 7.25 47.25 C5.93 47.25 4.61 47.25 3.25 47.25 C2.59 47.25 1.93 47.25 1.25 47.25 C-3.294 48.66 -5.277 52.46 -7.75 56.25 C-7.09 56.58 -6.43 56.91 -5.75 57.25 C-6.08 57.415 -6.08 57.415 -7.75 58.25 C-8.245 57.92 -8.245 57.92 -10.75 56.25 C-12.74 55.86 -14.74 55.518 -16.75 55.25 C-16.75 54.26 -16.75 53.27 -16.75 52.25 C-16.09 51.92 -15.43 51.59 -14.75 51.25 C-15.74 51.25 -16.73 51.25 -17.75 51.25 C-17.977 51.972 -18.204 52.694 -18.438 53.438 C-20.041 56.873 -21.848 58.821 -24.75 61.25 C-27.562 62.062 -27.562 62.062 -29.75 62.25 C-29.75 61.59 -29.75 60.93 -29.75 60.25 C-28.76 60.25 -27.77 60.25 -26.75 60.25 C-27.08 59.26 -27.08 59.26 -28.75 54.25 C-31.187 55.062 -31.187 55.062 -33.75 56.25 C-34.08 57.24 -34.41 58.23 -34.75 59.25 C-35.905 59.415 -35.905 59.415 -41.75 60.25 C-41.75 60.91 -41.75 61.57 -41.75 62.25 C-42.41 62.25 -43.07 62.25 -43.75 62.25 C-43.42 59.61 -43.09 56.97 -42.75 54.25 C-43.245 54.085 -43.245 54.085 -45.75 53.25 C-45.75 52.59 -45.75 51.93 -45.75 51.25 C-49.78 51.803 -53.77 52.406 -57.75 53.25 C-57.75 54.24 -57.75 55.23 -57.75 56.25 C-63.5 59.25 -63.5 59.25 -65.75 59.25 C-65.75 59.91 -65.75 60.57 -65.75 61.25 C-68.656 63.268 -71.267 64.605 -74.75 65.25 C-74.75 66.24 -74.75 67.23 -74.75 68.25 C-75.369 68.332 -75.987 68.415 -76.625 68.5 C-78.75 69.25 -78.75 69.25 -79.75 71.062 C-80.08 71.784 -80.41 72.506 -80.75 73.25 C-82.625 75.5 -82.625 75.5 -84.75 77.25 C-86.07 77.25 -87.39 77.25 -88.75 77.25 C-88.75 77.91 -88.75 78.57 -88.75 79.25 C-89.08 79.415 -89.08 79.415 -90.75 80.25 C-91.039 81.075 -91.328 81.9 -91.625 82.75 C-92.75 85.25 -92.75 85.25 -94.562 86 C-95.284 86.082 -96.006 86.165 -96.75 86.25 C-97.657 86.436 -98.565 86.621 -99.5 86.812 C-99.871 86.885 -99.871 86.885 -101.75 87.25 C-101.75 87.91 -101.75 88.57 -101.75 89.25 C-101.09 89.25 -100.43 89.25 -99.75 89.25 C-99.75 89.91 -99.75 90.57 -99.75 91.25 C-103.5 92.375 -103.5 92.375 -105.75 91.25 C-105.75 91.91 -105.75 92.57 -105.75 93.25 C-106.575 93.58 -106.575 93.58 -110.75 95.25 C-111.08 94.26 -111.08 94.26 -112.75 89.25 C-112.883 89.516 -112.883 89.516 -113.555 90.859 C-115.286 94.323 -117.018 97.786 -118.75 101.25 C-119.31 94.536 -118.526 89.869 -114.75 84.25 C-110.435 79.35 -105.522 75.374 -100.25 71.562 C-94.846 67.585 -89.529 63.533 -84.312 59.312 C-78.29 54.449 -72.174 49.721 -66.014 45.033 C-61.585 41.661 -57.183 38.259 -52.812 34.812 C-41.606 25.98 -30.369 17.186 -19 8.562 C-18.357 8.07 -17.714 7.577 -17.051 7.069 C-11.642 2.992 -7.02 -0.194 0 0 Z M15.25 21.25 C16.25 23.25 16.25 23.25 16.25 23.25 Z M27.25 66.25 C28.24 66.25 29.23 66.25 30.25 66.25 C30.25 66.91 30.25 67.57 30.25 68.25 C28.93 67.92 27.61 67.59 26.25 67.25 C26.58 66.92 26.91 66.59 27.25 66.25 Z " fill="#FDD912" transform="translate(162.75,78.75)"/>
<path d="M0 0 C3.461 3.003 4.694 5.313 5.75 9.75 C5.992 10.735 6.235 11.72 6.484 12.734 C6.655 13.482 6.825 14.23 7 15 C7.33 15 7.66 15 8 15 C8 16.65 8 18.3 8 20 C8.66 20 9.32 20 10 20 C10.808 25.048 11.142 30.012 11.25 35.125 C11.263 35.704 11.263 35.704 11.328 38.633 C10.963 42.384 9.833 44.738 8 48 C7.632 49.324 7.288 50.656 7 52 C6.67 52.66 6.34 53.32 6 54 C6.206 54.639 6.413 55.279 6.625 55.938 C6.749 56.618 6.873 57.299 7 58 C5.75 59.438 5.75 59.438 4 61 C1 65.556 1 65.556 1 68 C0.092 70.464 -0.845 72.74 -2.188 75 C-3 77 -3 77 -2.5 79.312 C-1.812 83.013 -2.37 85.683 -4 89 C-10.472 98.236 -10.472 98.236 -14 100 C-13.835 99.237 -13.67 98.474 -13.5 97.688 C-13 95 -13 95 -13 92 C-13.66 92 -14.32 92 -15 92 C-15.96 95.02 -16.918 98.041 -17.875 101.062 C-18.144 101.91 -18.414 102.758 -18.691 103.631 C-20.202 108.402 -21.63 113.186 -23 118 C-24.49 122.943 -26.008 127.878 -27.521 132.814 C-27.825 133.808 -28.129 134.801 -28.441 135.824 C-28.717 136.722 -28.992 137.62 -29.276 138.546 C-29.908 140.687 -30.479 142.829 -31 145 C-31.66 145 -32.32 145 -33 145 C-33.124 145.588 -33.248 146.176 -33.375 146.781 C-34.639 151.267 -37.115 154.821 -41.086 157.305 C-45.67 159.448 -49.942 160.514 -55 161 C-55.389 161.084 -55.389 161.084 -57.358 161.511 C-60.139 162.026 -62.7 162.129 -65.527 162.133 C-66.567 162.134 -67.607 162.135 -68.678 162.137 C-69.216 162.135 -69.216 162.135 -71.938 162.125 C-72.473 162.127 -72.473 162.127 -75.186 162.137 C-83.25 162.127 -83.25 162.127 -87.004 161.492 C-97.331 159.796 -108.413 161.219 -118.816 161.732 C-119.916 161.781 -121.016 161.829 -122.148 161.879 C-123.13 161.926 -124.111 161.973 -125.123 162.022 C-128.182 161.999 -130.995 161.554 -134 161 C-135.561 160.938 -137.125 160.913 -138.688 160.938 C-139.434 160.947 -140.18 160.956 -140.949 160.965 C-141.626 160.976 -142.303 160.988 -143 161 C-150.333 161 -157.667 161 -165 161 C-165.33 161.99 -165.66 162.98 -166 164 C-166.66 163.34 -167.32 162.68 -168 162 C-170.125 161.375 -170.125 161.375 -172 161 C-171.34 162.98 -170.68 164.96 -170 167 C-171.441 166.574 -172.878 166.134 -174.312 165.688 C-175.113 165.444 -175.914 165.2 -176.738 164.949 C-179.128 163.946 -180.396 163.019 -182 161 C-182 160.34 -182 159.68 -182 159 C-182.619 158.938 -183.238 158.876 -183.875 158.812 C-184.576 158.544 -185.278 158.276 -186 158 C-186.725 156.358 -187.378 154.684 -188 153 C-189.303 151.166 -190.666 149.402 -192.074 147.648 C-192.38 147.104 -192.685 146.56 -193 146 C-192.67 145.01 -192.34 144.02 -192 143 C-191.01 143 -190.02 143 -189 143 C-188.34 143.99 -187.68 144.98 -187 146 C-186.01 146.33 -185.02 146.66 -184 147 C-184 147.66 -184 148.32 -184 149 C-181.771 148.858 -179.541 148.711 -177.312 148.562 C-176.071 148.481 -174.83 148.4 -173.551 148.316 C-170.618 148.055 -167.866 147.652 -165 147 C-165 147.33 -165 147.66 -165 148 C-160.563 148.029 -156.125 148.047 -151.688 148.062 C-150.425 148.071 -149.162 148.079 -147.861 148.088 C-146.653 148.091 -145.444 148.094 -144.199 148.098 C-143.641 148.1 -143.641 148.1 -140.819 148.114 C-138 148 -138 148 -135 147 C-135 147.66 -135 148.32 -135 149 C-130.937 148.861 -126.875 148.712 -122.812 148.562 C-121.662 148.523 -120.512 148.484 -119.326 148.443 C-118.77 148.422 -118.77 148.422 -115.957 148.316 C-114.936 148.28 -113.915 148.243 -112.863 148.205 C-110 148 -110 148 -107.19 147.418 C-106.467 147.28 -105.745 147.142 -105 147 C-104.67 147.33 -104.34 147.66 -104 148 C-102.097 148.1 -100.191 148.131 -98.285 148.133 C-97.124 148.134 -95.964 148.135 -94.768 148.137 C-94.156 148.135 -94.156 148.135 -91.062 148.125 C-89.844 148.129 -88.625 148.133 -87.369 148.137 C-86.207 148.135 -85.045 148.134 -83.848 148.133 C-82.775 148.132 -81.703 148.131 -80.598 148.129 C-78 148 -78 148 -76 147 C-76 147.66 -76 148.32 -76 149 C-75.44 148.97 -74.88 148.939 -74.303 148.908 C-71.765 148.771 -69.226 148.636 -66.688 148.5 C-66.247 148.476 -66.247 148.476 -64.018 148.355 C-63.17 148.31 -62.322 148.265 -61.449 148.219 C-60.669 148.177 -59.889 148.135 -59.085 148.092 C-57.391 148.017 -55.695 148 -54 148 C-54 148.66 -54 149.32 -54 150 C-53.299 149.196 -52.597 148.391 -51.875 147.562 C-49 145 -49 145 -45.875 144.5 C-44.926 144.335 -43.977 144.17 -43 144 C-41.25 141.438 -41.25 141.438 -40 139 C-39.34 139 -38.68 139 -38 139 C-37.928 138.526 -37.928 138.526 -37.562 136.125 C-37 133 -37 133 -36 131 C-35.34 131 -34.68 131 -34 131 C-34 129.02 -34 127.04 -34 125 C-33.34 125 -32.68 125 -32 125 C-32.33 124.01 -32.66 123.02 -33 122 C-32.53 120.356 -32.053 118.714 -31.531 117.086 C-30.93 114.724 -30.775 112.494 -30.625 110.062 C-30.199 104.978 -28.525 101.363 -26 97 C-25.326 95.67 -24.657 94.338 -24 93 C-22.844 96.467 -23.209 97.247 -24.438 100.562 C-26 104.83 -26 104.83 -26 107 C-23.707 103.561 -22.632 100.097 -21.438 96.188 C-21.327 95.838 -21.327 95.838 -20.768 94.068 C-19.528 90.065 -18.582 86.163 -18 82 C-18.392 82.907 -18.784 83.815 -19.188 84.75 C-21.079 88.141 -22.855 89.79 -26 92 C-25.329 87.806 -23.144 84.597 -21 81 C-20.34 81 -19.68 81 -19 81 C-19.33 80.01 -19.66 79.02 -20 78 C-19.43 73.896 -18.136 69.977 -17 66 C-16.646 64.338 -16.304 62.672 -16 61 C-15.34 61 -14.68 61 -14 61 C-13.299 57.847 -13 55.273 -13 52 C-11.87 47.308 -10.28 43.249 -8 39 C-8.66 38.67 -9.32 38.34 -10 38 C-9.67 37.01 -9.34 36.02 -9 35 C-8.34 35 -7.68 35 -7 35 C-6.938 34.68 -6.938 34.68 -6.625 33.062 C-6.419 32.382 -6.212 31.701 -6 31 C-5.67 30.835 -5.67 30.835 -4 30 C-3.67 30.99 -3.34 31.98 -3 33 C2.686 15.64 2.686 15.64 3 9 C2.67 8.67 2.67 8.67 1 7 C0.6 4.677 0.26 2.343 0 0 Z " fill="#DCA604" transform="translate(275,163)"/>
<path d="M0 0 C0.944 0.015 1.887 0.031 2.859 0.047 C5.25 0.25 5.25 0.25 7.25 1.25 C6.92 1.91 6.59 2.57 6.25 3.25 C6.25 7.117 7.669 9.759 9.25 13.25 C7.93 14.57 6.61 15.89 5.25 17.25 C5.25 16.59 5.25 15.93 5.25 15.25 C2.61 15.58 -0.03 15.91 -2.75 16.25 C-1.43 15.26 -0.11 14.27 1.25 13.25 C-3.5 14 -3.5 14 -5.75 16.25 C-6.472 16.518 -7.194 16.786 -7.938 17.062 C-11.094 18.395 -13.494 20.152 -16.199 22.227 C-17.75 23.25 -17.75 23.25 -19.75 23.25 C-20.41 24.57 -21.07 25.89 -21.75 27.25 C-21.75 26.59 -21.75 25.93 -21.75 25.25 C-22.41 25.25 -23.07 25.25 -23.75 25.25 C-25.75 30 -25.75 30 -25.75 32.25 C-32.375 35.25 -32.375 35.25 -35.75 35.25 C-36.018 35.848 -36.286 36.446 -36.562 37.062 C-37.735 39.222 -38.944 40.608 -40.75 42.25 C-41.08 41.59 -41.41 40.93 -41.75 40.25 C-42.41 41.57 -43.07 42.89 -43.75 44.25 C-43.09 44.58 -42.43 44.91 -41.75 45.25 C-44.06 46.24 -46.37 47.23 -48.75 48.25 C-48.09 48.91 -47.43 49.57 -46.75 50.25 C-48.207 50.754 -49.666 51.253 -51.125 51.75 C-51.937 52.028 -52.749 52.307 -53.586 52.594 C-55.75 53.25 -55.75 53.25 -57.75 53.25 C-57.75 54.24 -57.75 55.23 -57.75 56.25 C-63.5 59.25 -63.5 59.25 -65.75 59.25 C-65.75 59.91 -65.75 60.57 -65.75 61.25 C-68.656 63.268 -71.267 64.605 -74.75 65.25 C-74.75 66.24 -74.75 67.23 -74.75 68.25 C-75.369 68.332 -75.987 68.415 -76.625 68.5 C-78.75 69.25 -78.75 69.25 -79.75 71.062 C-80.08 71.784 -80.41 72.506 -80.75 73.25 C-82.625 75.5 -82.625 75.5 -84.75 77.25 C-86.07 77.25 -87.39 77.25 -88.75 77.25 C-88.75 77.91 -88.75 78.57 -88.75 79.25 C-89.08 79.415 -89.08 79.415 -90.75 80.25 C-91.039 81.075 -91.328 81.9 -91.625 82.75 C-92.75 85.25 -92.75 85.25 -94.562 86 C-95.284 86.082 -96.006 86.165 -96.75 86.25 C-97.657 86.436 -98.565 86.621 -99.5 86.812 C-99.871 86.885 -99.871 86.885 -101.75 87.25 C-101.75 87.91 -101.75 88.57 -101.75 89.25 C-101.09 89.25 -100.43 89.25 -99.75 89.25 C-99.75 89.91 -99.75 90.57 -99.75 91.25 C-103.5 92.375 -103.5 92.375 -105.75 91.25 C-105.75 91.91 -105.75 92.57 -105.75 93.25 C-106.575 93.58 -106.575 93.58 -110.75 95.25 C-111.08 94.26 -111.08 94.26 -112.75 89.25 C-112.883 89.516 -112.883 89.516 -113.555 90.859 C-115.286 94.323 -117.018 97.786 -118.75 101.25 C-119.31 94.536 -118.526 89.869 -114.75 84.25 C-110.435 79.35 -105.522 75.374 -100.25 71.562 C-94.846 67.585 -89.529 63.533 -84.312 59.312 C-78.29 54.449 -72.174 49.721 -66.014 45.033 C-61.585 41.661 -57.183 38.259 -52.812 34.812 C-41.606 25.98 -30.369 17.186 -19 8.562 C-18.357 8.07 -17.714 7.577 -17.051 7.069 C-11.642 2.992 -7.02 -0.194 0 0 Z " fill="#FDE32F" transform="translate(162.75,78.75)"/>
<path d="M0 0 C2.097 2.36 2.969 3.546 3.188 6.75 C3.126 7.493 3.064 8.235 3 9 C3.66 9 4.32 9 5 9 C5.808 14.048 6.142 19.012 6.25 24.125 C6.263 24.704 6.263 24.704 6.328 27.633 C5.963 31.384 4.833 33.738 3 37 C2.632 38.324 2.288 39.656 2 41 C1.67 41.66 1.34 42.32 1 43 C1.206 43.639 1.413 44.279 1.625 44.938 C1.749 45.618 1.873 46.299 2 47 C0.75 48.438 0.75 48.438 -1 50 C-4 54.556 -4 54.556 -4 57 C-4.908 59.464 -5.845 61.74 -7.188 64 C-8 66 -8 66 -7.5 68.312 C-6.812 72.013 -7.37 74.683 -9 78 C-15.472 87.236 -15.472 87.236 -19 89 C-18.835 88.237 -18.67 87.474 -18.5 86.688 C-18 84 -18 84 -18 81 C-18.66 81 -19.32 81 -20 81 C-20.96 84.02 -21.918 87.041 -22.875 90.062 C-23.144 90.91 -23.414 91.758 -23.691 92.631 C-25.202 97.402 -26.63 102.186 -28 107 C-29.49 111.943 -31.008 116.878 -32.521 121.814 C-32.825 122.808 -33.129 123.801 -33.441 124.824 C-33.717 125.722 -33.992 126.62 -34.276 127.546 C-34.908 129.687 -35.479 131.829 -36 134 C-36.66 134 -37.32 134 -38 134 C-38.124 134.588 -38.248 135.176 -38.375 135.781 C-39.639 140.267 -42.115 143.821 -46.086 146.305 C-50.67 148.448 -54.942 149.514 -60 150 C-60.389 150.084 -60.389 150.084 -62.358 150.511 C-65.139 151.026 -67.7 151.129 -70.527 151.133 C-71.567 151.134 -72.607 151.135 -73.678 151.137 C-74.216 151.135 -74.216 151.135 -76.938 151.125 C-77.473 151.127 -77.473 151.127 -80.186 151.137 C-88.25 151.127 -88.25 151.127 -92.004 150.492 C-102.331 148.796 -113.413 150.219 -123.816 150.732 C-124.916 150.781 -126.016 150.829 -127.148 150.879 C-128.13 150.926 -129.111 150.973 -130.123 151.022 C-133.182 150.999 -135.995 150.554 -139 150 C-140.561 149.938 -142.125 149.913 -143.688 149.938 C-144.434 149.947 -145.18 149.956 -145.949 149.965 C-146.626 149.976 -147.303 149.988 -148 150 C-155.333 150 -162.667 150 -170 150 C-170.33 150.99 -170.66 151.98 -171 153 C-171.66 152.34 -172.32 151.68 -173 151 C-175.125 150.375 -175.125 150.375 -177 150 C-176.34 151.98 -175.68 153.96 -175 156 C-176.441 155.574 -177.878 155.134 -179.312 154.688 C-180.113 154.444 -180.914 154.2 -181.738 153.949 C-184.128 152.946 -185.396 152.019 -187 150 C-187 149.34 -187 148.68 -187 148 C-187.619 147.938 -188.238 147.876 -188.875 147.812 C-191 147 -191 147 -192 144.875 C-192.33 143.926 -192.66 142.977 -193 142 C-194.269 139.625 -195.634 137.322 -197 135 C-196.34 135 -195.68 135 -195 135 C-193.657 136.993 -192.324 138.994 -191 141 C-185.126 144.916 -177.087 144.197 -170.191 144.352 C-169.708 144.363 -169.708 144.363 -167.26 144.423 C-164.027 144.498 -160.795 144.563 -157.562 144.625 C-157.002 144.636 -157.002 144.636 -154.168 144.691 C-132.845 145.081 -111.53 145.013 -90.206 144.776 C-87.756 144.75 -85.307 144.73 -82.858 144.711 C-78.964 144.68 -75.07 144.634 -71.177 144.576 C-69.737 144.557 -68.297 144.542 -66.857 144.533 C-58.912 144.475 -52.402 143.941 -45 141 C-44.34 141 -43.68 141 -43 141 C-42.855 140.706 -42.855 140.706 -42.119 139.218 C-41.15 137.297 -40.126 135.403 -39.094 133.516 C-36.423 128.168 -35.018 122.509 -33.5 116.75 C-31.539 109.418 -29.435 102.2 -26.991 95.014 C-25.294 89.852 -23.873 84.615 -22.438 79.375 C-21.573 76.239 -20.706 73.104 -19.828 69.972 C-19.278 67.997 -18.743 66.019 -18.223 64.036 C-17.975 63.13 -17.728 62.223 -17.473 61.289 C-17.26 60.484 -17.047 59.679 -16.828 58.85 C-16.555 58.24 -16.282 57.629 -16 57 C-15.01 56.67 -14.02 56.34 -13 56 C-12.879 55.264 -12.758 54.528 -12.633 53.77 C-12.465 52.794 -12.298 51.818 -12.125 50.812 C-12.044 50.331 -12.044 50.331 -11.633 47.895 C-11.018 45.081 -10.073 42.664 -9 40 C-8.642 38.322 -8.331 36.633 -8.062 34.938 C-6.733 27.221 -4.978 19.641 -2.375 12.25 C-0.949 8.165 -0.391 4.304 0 0 Z " fill="#C08D0A" transform="translate(280,174)"/>
<path d="M0 0 C0.33 0.66 0.33 0.66 2 4 C1.031 4.619 0.061 5.238 -0.938 5.875 C-4 8 -4 8 -5 10 C-6.333 10 -7.667 10 -9 10 C-9.66 10.66 -10.32 11.32 -11 12 C-11.639 12.103 -12.279 12.206 -12.938 12.312 C-15.928 13.309 -16.498 15.337 -18 18 C-18.66 18 -19.32 18 -20 18 C-20.062 18.536 -20.062 18.536 -20.375 21.25 C-20.896 24.379 -21.401 26.335 -23 29 C-22.01 28.67 -21.02 28.34 -20 28 C-20.165 28.495 -20.165 28.495 -21 31 C-22.777 31.66 -22.777 31.66 -24.938 32.062 C-28.798 32.798 -28.798 32.798 -31 35 C-31 34.34 -31 33.68 -31 33 C-31.66 33 -32.32 33 -33 33 C-33.227 33.887 -33.454 34.774 -33.688 35.688 C-35.173 39.438 -37.104 41.256 -40 44 C-40 44.66 -40 45.32 -40 46 C-38.35 45.34 -36.7 44.68 -35 44 C-35.33 44.99 -35.66 45.98 -36 47 C-36.66 47 -37.32 47 -38 47 C-38 47.66 -38 48.32 -38 49 C-39.292 50.373 -40.624 51.71 -42 53 C-42.66 52.67 -43.32 52.34 -44 52 C-43.67 51.01 -43.34 50.02 -43 49 C-43.99 50.65 -44.98 52.3 -46 54 C-45.34 54 -44.68 54 -44 54 C-44 54.66 -44 55.32 -44 56 C-45.98 56 -47.96 56 -50 56 C-50 56.99 -50 57.98 -50 59 C-50.66 59 -51.32 59 -52 59 C-52 59.66 -52 60.32 -52 61 C-49.36 61.33 -46.72 61.66 -44 62 C-44.165 61.175 -44.165 61.175 -45 57 C-43.188 57.188 -43.188 57.188 -41 58 C-39.188 60.375 -39.188 60.375 -38 63 C-38.998 65.993 -39.752 66.948 -42 69 C-41.34 68.835 -41.34 68.835 -38 68 C-38.66 68.99 -39.32 69.98 -40 71 C-42.64 70.67 -45.28 70.34 -48 70 C-48 69.34 -48 68.68 -48 68 C-51.3 67.67 -54.6 67.34 -58 67 C-58.363 65.064 -58.715 63.126 -59.062 61.188 C-59.26 60.109 -59.457 59.03 -59.66 57.918 C-60 55 -60 55 -59 52 C-59.99 51.67 -60.98 51.34 -62 51 C-62.33 47.7 -62.66 44.4 -63 41 C-62.34 41.99 -61.68 42.98 -61 44 C-60.175 43.835 -60.175 43.835 -56 43 C-56 42.34 -56 41.68 -56 41 C-54.02 41 -52.04 41 -50 41 C-50 40.34 -50 39.68 -50 39 C-50.66 39 -51.32 39 -52 39 C-52 38.34 -52 37.68 -52 37 C-46.375 34 -46.375 34 -43 34 C-42.34 32.35 -41.68 30.7 -41 29 C-40.34 29 -39.68 29 -39 29 C-39 28.34 -39 27.68 -39 27 C-38.711 26.959 -38.711 26.959 -37.25 26.75 C-33.558 25.519 -31.607 23.093 -29.75 19.75 C-29.502 19.173 -29.255 18.595 -29 18 C-27.68 18 -26.36 18 -25 18 C-25 17.01 -25 16.02 -25 15 C-22.125 12.924 -19.486 11.646 -16 11 C-16 10.34 -16 9.68 -16 9 C-10.25 6 -10.25 6 -8 6 C-8 5.01 -8 4.02 -8 3 C-5.36 2.01 -2.72 1.02 0 0 Z " fill="#FCDA15" transform="translate(113,129)"/>
<path d="M0 0 C2.097 2.36 2.969 3.546 3.188 6.75 C3.157 7.121 3.157 7.121 3 9 C3.66 9 4.32 9 5 9 C5.808 14.048 6.142 19.012 6.25 24.125 C6.276 25.283 6.302 26.44 6.328 27.633 C5.963 31.384 4.833 33.738 3 37 C2.632 38.324 2.288 39.656 2 41 C1.67 41.66 1.34 42.32 1 43 C1.206 43.639 1.413 44.279 1.625 44.938 C1.749 45.618 1.873 46.299 2 47 C0.75 48.438 0.75 48.438 -1 50 C-4 54.556 -4 54.556 -4 57 C-4.908 59.464 -5.845 61.74 -7.188 64 C-8 66 -8 66 -7.5 68.312 C-6.812 72.013 -7.37 74.683 -9 78 C-15.472 87.236 -15.472 87.236 -19 89 C-18.835 88.237 -18.67 87.474 -18.5 86.688 C-18 84 -18 84 -18 81 C-18.99 81 -19.98 81 -21 81 C-20.572 78.331 -20.133 75.666 -19.688 73 C-19.57 72.256 -19.452 71.512 -19.33 70.746 C-18.445 65.527 -16.991 60.907 -15 56 C-14.34 56 -13.68 56 -13 56 C-12.879 55.264 -12.758 54.528 -12.633 53.77 C-12.465 52.794 -12.298 51.818 -12.125 50.812 C-11.963 49.85 -11.8 48.887 -11.633 47.895 C-11.018 45.081 -10.073 42.664 -9 40 C-8.642 38.322 -8.331 36.633 -8.062 34.938 C-6.733 27.221 -4.978 19.641 -2.375 12.25 C-0.949 8.165 -0.391 4.304 0 0 Z " fill="#D1B882" transform="translate(280,174)"/>
<path d="M0 0 C0.66 0.33 1.32 0.66 2 1 C4.664 1.099 7.301 1.14 9.965 1.133 C10.754 1.134 11.543 1.135 12.356 1.136 C14.026 1.136 15.697 1.135 17.367 1.13 C19.924 1.125 22.48 1.13 25.037 1.137 C26.659 1.136 28.281 1.135 29.902 1.133 C30.285 1.134 30.285 1.134 32.223 1.139 C35.414 1.125 37.95 1.017 41 0 C41 0.66 41 1.32 41 2 C41.785 1.905 42.57 1.809 43.379 1.711 C51.063 0.9 56.397 0.598 63 5 C61.797 5.656 60.587 6.299 59.375 6.938 C58.702 7.297 58.029 7.657 57.336 8.027 C50.984 10.672 44.968 9.799 38.312 9.062 C36.434 8.865 34.555 8.668 32.676 8.473 C31.85 8.383 31.024 8.292 30.173 8.199 C26.29 7.843 22.505 8.149 18.625 8.438 C17.504 8.519 16.382 8.6 15.227 8.684 C12 9 12 9 9.27 9.566 C6.737 10.05 4.796 9.629 2.285 9.188 C-0.853 8.93 -3.864 9.234 -7 9.5 C-11.922 9.904 -16.126 9.886 -21 9 C-24.336 8.728 -27.672 8.501 -31.012 8.281 C-34 8 -34 8 -36.27 7.406 C-38 7 -38 7 -40 8 C-42.031 7.066 -44.035 6.068 -46 5 C-46 4.01 -46 3.02 -46 2 C-39.375 0.875 -39.375 0.875 -36 2 C-33.411 2.257 -30.844 2.464 -28.25 2.625 C-27.905 2.651 -27.905 2.651 -26.156 2.781 C-21.601 3.072 -17.497 2.789 -13 2 C-13 2.66 -13 3.32 -13 4 C-12.319 3.691 -11.639 3.381 -10.938 3.062 C-7.635 1.868 -4.471 1.467 -1 1 C-0.67 0.67 -0.34 0.34 0 0 Z " fill="#D9C595" transform="translate(156,331)"/>
<path d="M0 0 C4.113 3.848 5.173 6.54 5.375 12.125 C5.337 19.861 3.001 26.762 0.63 34.042 C-0.87 38.701 -2.132 43.288 -2.875 48.125 C-4 54.554 -5.618 60.916 -8 67 C-8.33 67.165 -8.33 67.165 -10 68 C-10.866 70.477 -11.615 72.912 -12.312 75.438 C-12.531 76.203 -12.75 76.969 -12.975 77.758 C-14.063 81.582 -15.116 85.416 -16.156 89.254 C-20.254 104.329 -25.022 119.193 -30 134 C-30.66 134 -31.32 134 -32 134 C-30.776 127.318 -29.195 120.863 -27.188 114.375 C-27.057 113.946 -27.057 113.946 -26.398 111.777 C-25.133 107.63 -23.843 103.492 -22.531 99.359 C-22.304 98.642 -22.077 97.925 -21.843 97.186 C-21.227 95.25 -20.604 93.316 -19.98 91.383 C-19.074 88.254 -18.458 85.222 -18 82 C-18.392 82.907 -18.784 83.815 -19.188 84.75 C-21.079 88.141 -22.855 89.79 -26 92 C-25.329 87.806 -23.144 84.597 -21 81 C-20.34 81 -19.68 81 -19 81 C-19.33 80.01 -19.66 79.02 -20 78 C-19.43 73.896 -18.136 69.977 -17 66 C-16.646 64.338 -16.304 62.672 -16 61 C-15.34 61 -14.68 61 -14 61 C-13.299 57.847 -13 55.273 -13 52 C-11.87 47.308 -10.28 43.249 -8 39 C-8.66 38.67 -9.32 38.34 -10 38 C-9.67 37.01 -9.34 36.02 -9 35 C-8.34 35 -7.68 35 -7 35 C-6.876 34.361 -6.752 33.721 -6.625 33.062 C-6.522 32.722 -6.522 32.722 -6 31 C-5.34 30.67 -4.68 30.34 -4 30 C-3.67 30.99 -3.34 31.98 -3 33 C2.686 15.64 2.686 15.64 3 9 C2.34 8.34 1.68 7.68 1 7 C0.6 4.677 0.26 2.343 0 0 Z " fill="#E7B20B" transform="translate(275,163)"/>
<path d="M0 0 C-4.435 5.79 -4.435 5.79 -7.188 6.812 C-7.786 6.874 -8.384 6.936 -9 7 C-11 8 -11 8 -11.754 9.871 C-13.538 12.92 -15.757 13.617 -18.938 15.062 C-22.581 16.732 -25.253 18.098 -28 21 C-28.66 21 -29.32 21 -30 21 C-30 21.66 -30 22.32 -30 23 C-31.65 24.354 -33.317 25.687 -35 27 C-35.33 27.66 -35.66 28.32 -36 29 C-36.66 29 -37.32 29 -38 29 C-38.165 29.495 -38.165 29.495 -39 32 C-40.328 32.355 -41.663 32.684 -43 33 C-45.57 34.705 -48.003 36.549 -50.465 38.406 C-53.059 40.037 -54.986 40.612 -58 41 C-58.021 41.743 -58.041 42.485 -58.062 43.25 C-59.229 46.672 -60.699 47.132 -63.824 48.691 C-67.581 50.951 -70.598 54.069 -73.766 57.074 C-76 59 -76 59 -79 60 C-79.66 60.99 -80.32 61.98 -81 63 C-82.657 64.016 -84.325 65.014 -86 66 C-88.871 68.329 -91.672 70.728 -94.477 73.137 C-97 75 -97 75 -100 75 C-100 75.66 -100 76.32 -100 77 C-100.66 77 -101.32 77 -102 77 C-102 77.66 -102 78.32 -102 79 C-102.66 79 -103.32 79 -104 79 C-104.289 79.619 -104.578 80.238 -104.875 80.875 C-106 83 -106 83 -108 85 C-108.99 85 -109.98 85 -111 85 C-110.427 79.985 -108.314 77.016 -104.519 73.709 C-102.868 72.399 -101.193 71.13 -99.5 69.875 C-98.932 69.446 -98.363 69.016 -97.777 68.574 C-96.189 67.377 -94.595 66.188 -93 65 C-92.247 64.404 -91.494 63.809 -90.719 63.195 C-89 62 -89 62 -87 62 C-87 61.34 -87 60.68 -87 60 C-86.42 59.697 -85.84 59.394 -85.242 59.082 C-79.153 55.816 -74.346 52.405 -69.5 47.438 C-67 45 -67 45 -64.062 43.125 C-61.335 41.232 -59.935 39.801 -57.938 37.25 C-55.355 34.054 -55.355 34.054 -52.125 33.562 C-51.424 33.707 -50.722 33.851 -50 34 C-50 33.34 -50 32.68 -50 32 C-48.343 30.983 -46.674 29.988 -45 29 C-42.905 27.276 -40.852 25.536 -38.812 23.75 C-34.087 19.675 -29.271 15.934 -24.094 12.438 C-22.335 11.23 -20.656 9.908 -19 8.562 C-17 7 -17 7 -15 7 C-14.907 6.701 -14.907 6.701 -14.438 5.188 C-11.206 0.27 -5.498 -0.402 0 0 Z " fill="#FDE958" transform="translate(163,85)"/>
<path d="M0 0 C0.33 0.165 0.33 0.165 2 1 C1.67 1.165 1.67 1.165 0 2 C0 1.34 0 0.68 0 0 Z M-2 2 C0.312 2.188 0.312 2.188 2 3 C0.941 6.403 -0.009 9.014 -2 12 C-2 13.134 -2 14.269 -2 15.438 C-2 18.798 -2.234 20.241 -4 23 C-3.34 23.33 -2.68 23.66 -2 24 C-2.849 31.5 -6.481 35.187 -11.688 40.484 C-13.723 42.699 -14.712 44.359 -16 47 C-17.727 48.703 -17.727 48.703 -19.625 50.25 C-19.941 50.51 -19.941 50.51 -21.539 51.828 C-22.021 52.215 -22.503 52.602 -23 53 C-23.33 52.34 -23.66 51.68 -24 51 C-16.571 39.571 -16.571 39.571 -13 36 C-13 35.01 -13 34.02 -13 33 C-12.649 32.34 -12.299 31.68 -11.938 31 C-11 29 -11 29 -12 26 C-13.32 26.33 -14.64 26.66 -16 27 C-16 25 -16 25 -14 23 C-13.367 20.836 -13.367 20.836 -12.875 18.375 C-12.791 17.966 -12.791 17.966 -12.367 15.898 C-12.246 15.272 -12.125 14.645 -12 14 C-11.01 14.33 -10.02 14.66 -9 15 C-8.691 14.196 -8.381 13.391 -8.062 12.562 C-7 10 -7 10 -6 9 C-6.33 8.34 -6.66 7.68 -7 7 C-4.75 4.438 -4.75 4.438 -2 2 Z " fill="#DECBA0" transform="translate(258,283)"/>
<path d="M0 0 C1.32 0 2.64 0 4 0 C4.66 0.99 5.32 1.98 6 3 C6.99 3.33 7.98 3.66 9 4 C9 4.66 9 5.32 9 6 C11.229 5.858 13.459 5.711 15.688 5.562 C16.929 5.481 18.17 5.4 19.449 5.316 C22.382 5.055 25.134 4.652 28 4 C28 4.33 28 4.66 28 5 C32.437 5.029 36.875 5.047 41.312 5.062 C41.944 5.067 41.944 5.067 45.139 5.088 C46.347 5.091 47.556 5.094 48.801 5.098 C49.359 5.1 49.359 5.1 52.181 5.114 C55 5 55 5 58 4 C58 4.66 58 5.32 58 6 C62.063 5.861 66.125 5.712 70.188 5.562 C71.338 5.523 72.488 5.484 73.674 5.443 C74.23 5.422 74.23 5.422 77.043 5.316 C78.064 5.28 79.085 5.243 80.137 5.205 C83 5 83 5 85.81 4.418 C86.533 4.28 87.255 4.142 88 4 C88.165 4.165 88.165 4.165 89 5 C90.903 5.1 92.809 5.131 94.715 5.133 C95.876 5.134 97.036 5.135 98.232 5.137 C99.455 5.133 100.678 5.129 101.938 5.125 C103.156 5.129 104.375 5.133 105.631 5.137 C106.793 5.135 107.955 5.134 109.152 5.133 C110.225 5.132 111.297 5.131 112.402 5.129 C115 5 115 5 117 4 C117 4.66 117 5.32 117 6 C117.56 5.97 118.12 5.939 118.697 5.908 C121.235 5.771 123.774 5.636 126.312 5.5 C127.194 5.452 128.075 5.405 128.982 5.355 C129.406 5.333 129.406 5.333 131.551 5.219 C131.941 5.198 131.941 5.198 133.915 5.092 C135.609 5.017 137.305 5 139 5 C139 5.66 139 6.32 139 7 C139.33 7.165 139.33 7.165 141 8 C100.74 8 60.48 8 19 8 C18.67 8.99 18.34 9.98 18 11 C18.66 11.33 19.32 11.66 20 12 C11.105 12.622 11.105 12.622 7 10.312 C4.945 7.936 3.914 5.991 3 3 C2.01 3 1.02 3 0 3 C0 2.01 0 1.02 0 0 Z " fill="#E8B302" transform="translate(82,306)"/>
<path d="M0 0 C2.428 0.475 4.846 0.963 7.254 1.535 C12.779 2.797 17.868 3.113 23.523 3.004 C27.74 2.999 31.918 3.241 36.125 3.5 C46.306 4.102 56.125 3.946 66.309 3.227 C72.468 2.848 78.515 2.614 84.625 3.562 C88.219 4.028 91.15 3.675 94.711 3.191 C98.257 2.895 101.496 3.427 105 4 C104 6 104 6 102.316 6.664 C96.019 8.142 90.511 7.91 84.125 7.125 C82.274 6.918 80.422 6.713 78.57 6.508 C77.764 6.411 76.957 6.315 76.125 6.215 C72.261 5.824 68.488 6.15 64.625 6.438 C63.504 6.519 62.382 6.6 61.227 6.684 C58 7 58 7 55.27 7.566 C52.737 8.05 50.796 7.629 48.285 7.188 C45.147 6.93 42.136 7.234 39 7.5 C34.078 7.904 29.874 7.886 25 7 C21.664 6.728 18.328 6.501 14.988 6.281 C12 6 12 6 9.73 5.406 C8 5 8 5 6 6 C3.969 5.066 1.965 4.068 0 3 C0 2.01 0 1.02 0 0 Z " fill="#E2CFA3" transform="translate(110,333)"/>
<path d="M0 0 C0.81 0.486 1.62 0.973 2.455 1.474 C6.763 3.328 10.099 3.434 14.726 3.417 C15.584 3.425 16.443 3.434 17.327 3.443 C20.165 3.468 23.002 3.472 25.84 3.477 C27.842 3.491 29.844 3.507 31.847 3.524 C37.136 3.566 42.426 3.591 47.716 3.611 C56.072 3.647 64.429 3.708 72.785 3.768 C74.818 3.782 76.851 3.796 78.884 3.808 C95.936 3.919 112.961 4.298 130 5 C128 7 128 7 125.39 7.243 C124.307 7.239 123.225 7.235 122.109 7.23 C120.925 7.229 119.74 7.227 118.52 7.225 C117.276 7.212 116.032 7.2 114.75 7.188 C113.522 7.187 112.293 7.186 111.027 7.186 C105.537 7.159 100.415 6.911 95 6 C85.408 5.589 75.763 6.259 66.184 6.732 C65.084 6.781 63.984 6.829 62.852 6.879 C62.361 6.902 62.361 6.902 59.877 7.022 C56.818 6.999 54.005 6.554 51 6 C49.439 5.938 47.875 5.913 46.312 5.938 C45.939 5.942 45.939 5.942 44.051 5.965 C43.712 5.971 43.712 5.971 42 6 C34.667 6 27.333 6 20 6 C19.67 6.99 19.34 7.98 19 9 C18.34 8.34 17.68 7.68 17 7 C14.875 6.375 14.875 6.375 13 6 C13.66 7.98 14.32 9.96 15 12 C13.559 11.574 12.122 11.134 10.688 10.688 C9.887 10.444 9.086 10.2 8.262 9.949 C5.872 8.946 4.604 8.019 3 6 C3 5.34 3 4.68 3 4 C1.68 3.67 0.36 3.34 -1 3 C-0.67 2.01 -0.34 1.02 0 0 Z " fill="#B8994F" transform="translate(90,318)"/>
<path d="M0 0 C2.608 3.203 3.348 4.825 3 9 C3.66 9 4.32 9 5 9 C5.808 14.048 6.142 19.012 6.25 24.125 C6.263 24.704 6.263 24.704 6.328 27.633 C5.963 31.382 4.834 33.741 3 37 C2.638 38.326 2.303 39.659 2 41 C0.72 44.939 -0.819 47.316 -4 50 C-4.66 50 -5.32 50 -6 50 C-5.634 44.326 -4.947 39.987 -2 35 C-1.443 34.051 -0.886 33.102 -0.312 32.125 C0.121 31.424 0.554 30.722 1 30 C0.67 29.67 0.34 29.34 0 29 C-0.088 26.854 -0.107 24.706 -0.098 22.559 C-0.094 21.253 -0.091 19.948 -0.088 18.604 C-0.08 17.215 -0.071 15.826 -0.062 14.438 C-0.057 13.045 -0.053 11.652 -0.049 10.26 C-0.037 6.84 -0.021 3.42 0 0 Z " fill="#E2CDA0" transform="translate(280,174)"/>
<path d="M0 0 C0.66 1.32 1.32 2.64 2 4 C1.031 4.619 0.061 5.238 -0.938 5.875 C-4 8 -4 8 -5 10 C-6.333 10 -7.667 10 -9 10 C-9.66 10.66 -10.32 11.32 -11 12 C-11.639 12.103 -12.279 12.206 -12.938 12.312 C-15.94 13.313 -16.464 15.312 -18 18 C-21.414 21 -21.414 21 -24 21 C-24.66 21.66 -25.32 22.32 -26 23 C-26.66 23.66 -27.32 24.32 -28 25 C-28.66 25 -29.32 25 -30 25 C-30.33 25.66 -30.66 26.32 -31 27 C-31.33 27.33 -31.66 27.66 -32 28 C-32 28.66 -32 29.32 -32 30 C-32.536 30.124 -33.073 30.248 -33.625 30.375 C-36.464 31.122 -39.222 32.053 -42 33 C-41.67 31.68 -41.34 30.36 -41 29 C-40.34 29 -39.68 29 -39 29 C-39 28.34 -39 27.68 -39 27 C-38.711 26.959 -38.711 26.959 -37.25 26.75 C-33.558 25.519 -31.607 23.093 -29.75 19.75 C-29.502 19.173 -29.255 18.595 -29 18 C-27.68 18 -26.36 18 -25 18 C-25 17.01 -25 16.02 -25 15 C-22.125 12.924 -19.486 11.646 -16 11 C-16 10.34 -16 9.68 -16 9 C-10.25 6 -10.25 6 -8 6 C-8 5.01 -8 4.02 -8 3 C-5.36 2.01 -2.72 1.02 0 0 Z " fill="#FDDF22" transform="translate(113,129)"/>
<path d="M0 0 C1.292 3.639 0.693 6.055 -0.328 9.727 C-0.634 10.842 -0.939 11.957 -1.254 13.105 C-1.583 14.267 -1.911 15.428 -2.25 16.625 C-2.563 17.763 -2.876 18.901 -3.199 20.074 C-6.201 30.922 -9.502 41.662 -12.926 52.383 C-13.053 52.782 -13.053 52.782 -13.695 54.805 C-13.809 55.16 -13.809 55.16 -14.383 56.96 C-14.988 58.961 -15.511 60.968 -16 63 C-16.66 63 -17.32 63 -18 63 C-18.124 63.587 -18.248 64.173 -18.375 64.777 C-19.419 68.49 -21.225 71.322 -24 74 C-26.921 75.399 -29.848 76.279 -33 77 C-33 76.34 -33 75.68 -33 75 C-27 72 -27 72 -24.75 71.062 C-22.502 69.698 -22.108 68.36 -21 66 C-20.371 64.85 -19.742 63.7 -19.094 62.516 C-16.423 57.168 -15.018 51.509 -13.5 45.75 C-11.533 38.392 -9.426 31.144 -6.973 23.933 C-5.418 19.247 -4.083 14.503 -2.75 9.75 C-2.482 8.803 -2.214 7.855 -1.938 6.879 C-1.289 4.587 -0.643 2.294 0 0 Z " fill="#C59F48" transform="translate(260,245)"/>
<path d="M0 0 C0.743 0.784 1.485 1.567 2.25 2.375 C4.544 4.565 6.122 5.827 9 7 C9 7.66 9 8.32 9 9 C9.99 9.33 10.98 9.66 12 10 C12.33 11.65 12.66 13.3 13 15 C12.381 15.289 11.762 15.577 11.125 15.875 C9 17 9 17 7 19 C6.375 21.625 6.375 21.625 6 24 C5.34 23.67 4.68 23.34 4 23 C4.488 16.945 4.488 16.945 5 15 C8 13 8 13 11 13 C11 12.34 11 11.68 11 11 C10.325 11.228 9.649 11.456 8.953 11.691 C8.061 11.979 7.169 12.266 6.25 12.562 C5.368 12.853 4.487 13.143 3.578 13.441 C0.922 14.017 -0.47 13.892 -3 13 C-2.886 11.395 -2.758 9.791 -2.625 8.188 C-2.555 7.294 -2.486 6.401 -2.414 5.48 C-2 3 -2 3 0 0 Z " fill="#FDDB19" transform="translate(224,133)"/>
<path d="M0 0 C0.66 0 1.32 0 2 0 C3.343 1.993 4.676 3.994 6 6 C12.135 10.09 20.665 9.192 27.844 9.316 C28.853 9.337 29.863 9.358 30.903 9.379 C34.102 9.444 37.301 9.504 40.5 9.562 C42.68 9.606 44.859 9.649 47.039 9.693 C52.359 9.8 57.68 9.902 63 10 C62.67 10.66 62.34 11.32 62 12 C55.169 12.245 48.337 12.457 41.504 12.647 C39.182 12.715 36.86 12.791 34.539 12.875 C31.193 12.994 27.847 13.085 24.5 13.172 C23.985 13.193 23.985 13.193 21.377 13.301 C15.06 13.432 10.223 12.756 5 9 C3.125 6.641 3.125 6.641 2 4.25 C1.608 3.451 1.216 2.652 0.812 1.828 C0.544 1.225 0.276 0.622 0 0 Z " fill="#D19B05" transform="translate(83,309)"/>
<path d="M0 0 C0 3 0 3 -1.562 5.875 C-3.215 9.468 -2.813 10.296 -2 14 C-2.969 21.06 -7.269 25.855 -12 31 C-12.66 31.33 -13.32 31.66 -14 32 C-13.835 31.237 -13.67 30.474 -13.5 29.688 C-13 27 -13 27 -13 24 C-12.783 23.66 -12.783 23.66 -11.688 21.938 C-10.126 19.219 -9.498 17.247 -8.75 14.25 C-7.141 8.458 -3.928 4.456 0 0 Z " fill="#DEC898" transform="translate(275,231)"/>
<path d="M0 0 C0.66 0.33 1.32 0.66 2 1 C4.664 1.099 7.301 1.14 9.965 1.133 C10.754 1.134 11.543 1.135 12.356 1.136 C14.026 1.136 15.697 1.135 17.367 1.13 C19.924 1.125 22.48 1.13 25.037 1.137 C26.659 1.136 28.281 1.135 29.902 1.133 C30.285 1.134 30.285 1.134 32.223 1.139 C35.414 1.125 37.95 1.017 41 0 C41 0.66 41 1.32 41 2 C41.416 1.952 41.416 1.952 43.52 1.711 C44.606 1.6 45.693 1.489 46.812 1.375 C47.891 1.259 48.97 1.143 50.082 1.023 C53 1 53 1 56 3 C50.676 3.752 45.593 4.11 40.203 4.062 C39.846 4.061 39.846 4.061 38.037 4.051 C35.022 4.035 32.007 4.007 28.992 3.979 C20.734 3.911 12.61 3.944 4.385 4.824 C1.465 5.04 -1.163 4.709 -4 4 C-2.68 2.68 -1.36 1.36 0 0 Z " fill="#D3BD89" transform="translate(156,331)"/>
<path d="M0 0 C0.33 0.165 0.33 0.165 2 1 C1.67 1.165 1.67 1.165 0 2 C0 1.34 0 0.68 0 0 Z M-2 2 C0.312 2.188 0.312 2.188 2 3 C0.806 7.897 -1.25 10.694 -4.539 14.336 C-6.901 17.026 -8.801 19.607 -9.312 23.188 C-9.539 23.786 -9.766 24.384 -10 25 C-13.062 26.25 -13.062 26.25 -16 27 C-16 25 -16 25 -14 23 C-13.367 20.836 -13.367 20.836 -12.875 18.375 C-12.791 17.966 -12.791 17.966 -12.367 15.898 C-12.246 15.272 -12.125 14.645 -12 14 C-11.01 14.33 -10.02 14.66 -9 15 C-8.691 14.196 -8.381 13.391 -8.062 12.562 C-7 10 -7 10 -6 9 C-6.33 8.34 -6.66 7.68 -7 7 C-4.75 4.438 -4.75 4.438 -2 2 Z " fill="#D0B984" transform="translate(258,283)"/>
<path d="M0 0 C2.763 4.421 3.489 9.315 2.566 14.379 C1.117 19.349 -0.455 22.175 -5 25 C-6.534 21.932 -5.426 19.102 -4.75 15.875 C-4.612 15.2 -4.475 14.525 -4.333 13.83 C-3.305 8.985 -1.947 4.544 0 0 Z " fill="#CBAE6C" transform="translate(265,230)"/>
<path d="M0 0 C0.443 0.237 0.443 0.237 2.688 1.438 C7.381 3.651 11.588 4.124 16.738 4.316 C17.805 4.358 18.872 4.4 19.971 4.443 C21.073 4.483 22.176 4.522 23.312 4.562 C24.435 4.606 25.557 4.649 26.713 4.693 C29.475 4.799 32.237 4.901 35 5 C35 5.33 35 5.66 35 6 C30.05 6 25.1 6 20 6 C19.67 6.99 19.34 7.98 19 9 C18.34 8.34 17.68 7.68 17 7 C14.875 6.375 14.875 6.375 13 6 C13.66 7.98 14.32 9.96 15 12 C13.559 11.574 12.122 11.134 10.688 10.688 C9.887 10.444 9.086 10.2 8.262 9.949 C5.872 8.946 4.604 8.019 3 6 C3 5.34 3 4.68 3 4 C1.68 3.67 0.36 3.34 -1 3 C-0.67 2.01 -0.34 1.02 0 0 Z " fill="#D1BB87" transform="translate(90,318)"/>
<path d="M0 0 C1.338 0.312 2.671 0.648 4 1 C6.25 0.562 6.25 0.562 8 0 C8 0.99 8 1.98 8 3 C7.34 3 6.68 3 6 3 C6.062 4.258 6.124 5.516 6.188 6.812 C6.208 10.722 6.208 10.722 4.5 13 C4.005 13.33 3.51 13.66 3 14 C1.68 13.34 0.36 12.68 -1 12 C-0.34 11.34 0.32 10.68 1 10 C-0.32 9.34 -1.64 8.68 -3 8 C-2.25 2.25 -2.25 2.25 0 0 Z " fill="#FCDA18" transform="translate(73,238)"/>
<path d="M0 0 C1.117 3.352 0.991 5.615 0 9 C-0.951 10.695 -1.951 12.364 -3 14 C-4.245 16.352 -5.154 18.461 -6 21 C-8.562 22.688 -8.562 22.688 -11 24 C-10.691 23.113 -10.381 22.226 -10.062 21.312 C-9 18 -9 18 -8.562 15.562 C-7.162 9.184 -4.28 4.743 0 0 Z " fill="#DAC594" transform="translate(255,295)"/>
<path d="M0 0 C0.33 0 0.66 0 1 0 C1.224 2.04 1.428 4.082 1.625 6.125 C1.741 7.262 1.857 8.399 1.977 9.57 C2.001 13.219 1.522 15.691 0 19 C-0.99 19.33 -1.98 19.66 -3 20 C-4.688 22.062 -4.688 22.062 -6 24 C-4.569 15.83 -2.359 7.946 0 0 Z " fill="#CCB172" transform="translate(278,185)"/>
<path d="M0 0 C3.375 4.5 3.375 4.5 3 9 C3.66 9 4.32 9 5 9 C6.174 16.338 6.094 23.582 6 31 C5.34 31 4.68 31 4 31 C3.939 30.154 3.879 29.309 3.816 28.438 C3.36 22.264 2.842 16.133 2 10 C1.34 10 0.68 10 0 10 C0 6.7 0 3.4 0 0 Z " fill="#EBD9B3" transform="translate(280,174)"/>
<path d="M0 0 C0 3 0 3 -1.562 5.875 C-3.187 9.406 -2.859 10.371 -2 14 C-2.977 16.706 -3.405 17.703 -6 19 C-7.44 10.84 -7.44 10.84 -6 7 C-4.138 4.532 -2.119 2.249 0 0 Z " fill="#DFCA9C" transform="translate(275,231)"/>
<path d="M0 0 C0 0.99 0 1.98 0 3 C-2.97 4.32 -5.94 5.64 -9 7 C-9 7.99 -9 8.98 -9 10 C-9.619 9.99 -9.619 9.99 -12.75 9.938 C-18.633 9.958 -18.633 9.958 -21 11 C-21.33 11.99 -21.66 12.98 -22 14 C-23 12 -23 12 -22.48 10 C-20.267 7.01 -17.877 6.849 -14.312 6 C-8.898 4.598 -4.639 3.093 0 0 Z " fill="#FCDB17" transform="translate(116,143)"/>
<path d="M0 0 C-1.156 6.706 -2.866 9.536 -8 14 C-8.66 13.67 -9.32 13.34 -10 13 C-9.526 12.278 -9.051 11.556 -8.562 10.812 C-7 8 -7 8 -6.5 5.375 C-5.642 1.297 -4.134 0 0 0 Z " fill="#E5D2A8" transform="translate(256,307)"/>
<path d="M0 0 C0.66 0.33 1.32 0.66 2 1 C1.795 1.748 1.59 2.495 1.379 3.266 C1.109 4.25 0.84 5.235 0.562 6.25 C0.296 7.225 0.029 8.199 -0.246 9.203 C-0.856 11.464 -1.438 13.727 -2 16 C-3.009 19.835 -3.791 22.686 -6 26 C-6.33 25.34 -6.66 24.68 -7 24 C-6.67 23.34 -6.34 22.68 -6 22 C-5.871 20.46 -5.771 18.918 -5.688 17.375 C-5.291 12.881 -4.186 9.674 -1.938 5.789 C-0.937 3.88 -0.444 2.102 0 0 Z " fill="#EBB502" transform="translate(250,256)"/>
<path d="M0 0 C2.125 0.375 2.125 0.375 4 1 C2.276 2.298 0.545 3.588 -1.188 4.875 C-1.669 5.235 -1.669 5.235 -4.105 7.055 C-6.711 8.806 -9.048 9.975 -12 11 C-11.669 7.911 -10.997 6.997 -8.688 4.812 C-6.249 3.168 -4.797 2.579 -2 2 C-1.34 1.34 -0.68 0.68 0 0 Z " fill="#FDE52E" transform="translate(144,91)"/>
<path d="M0 0 C3.4 3.181 4.864 5.087 5.203 9.848 C5.219 10.909 5.234 11.969 5.25 13.062 C5.276 14.126 5.302 15.189 5.328 16.285 C5.22 17.181 5.112 18.077 5 19 C4.505 19.33 4.505 19.33 2 21 C2.048 20.578 2.048 20.578 2.289 18.445 C2.4 17.35 2.511 16.254 2.625 15.125 C2.741 14.034 2.857 12.944 2.977 11.82 C2.984 10.89 2.992 9.959 3 9 C2.34 8.34 1.68 7.68 1 7 C0.6 4.677 0.26 2.343 0 0 Z " fill="#F1BC14" transform="translate(275,163)"/>
<path d="M0 0 C0.914 2.498 1.115 3.674 0.215 6.219 C-2.539 11.138 -4.798 14.399 -10 17 C-12.875 17.75 -12.875 17.75 -15 18 C-15 17.34 -15 16.68 -15 16 C-9 13 -9 13 -6.75 12.062 C-4.438 10.659 -4.015 9.504 -3 7 C-2.459 5.75 -1.918 4.5 -1.375 3.25 C-0.921 2.178 -0.468 1.105 0 0 Z " fill="#BB9539" transform="translate(242,304)"/>
<path d="M0 0 C0.66 0 1.32 0 2 0 C3.343 1.993 4.676 3.994 6 6 C8.901 7.934 9.897 8.301 13.188 8.625 C14.446 8.749 15.704 8.873 17 9 C17 10.32 17 11.64 17 13 C12.398 12.452 8.856 11.625 5 9 C3.055 6.126 1.485 3.133 0 0 Z " fill="#D1A226" transform="translate(83,309)"/>
<path d="M0 0 C0.33 0.99 0.66 1.98 1 3 C0.67 3.66 0.34 4.32 0 5 C-0.557 4.794 -1.114 4.588 -1.688 4.375 C-4.66 3.893 -6.32 4.734 -9 6 C-7.25 2.125 -7.25 2.125 -5 1 C-7.64 1.33 -10.28 1.66 -13 2 C-11 -1 -11 -1 -9.312 -1.812 C-5.861 -2.092 -3.212 -1.212 0 0 Z " fill="#FDD918" transform="translate(235,163)"/>
<path d="M0 0 C0.705 0.124 1.41 0.248 2.137 0.375 C-2.307 4.962 -7.066 9.163 -11.863 13.375 C-12.523 13.045 -13.183 12.715 -13.863 12.375 C-12.15 10.359 -10.42 8.364 -8.676 6.375 C-8.434 6.089 -8.434 6.089 -7.213 4.641 C-3.504 0.459 -3.504 0.459 0 0 Z " fill="#FDE739" transform="translate(127.86328125,103.625)"/>
<path d="M0 0 C4.455 0.165 4.455 0.165 27 1 C27 1.33 27 1.66 27 2 C22.05 2 17.1 2 12 2 C11.67 2.99 11.34 3.98 11 5 C10.34 4.34 9.68 3.68 9 3 C6.875 2.375 6.875 2.375 5 2 C4.67 2.99 4.34 3.98 4 5 C4 4.34 4 3.68 4 3 C2.68 2.67 1.36 2.34 0 2 C0 1.34 0 0.68 0 0 Z " fill="#C6AD71" transform="translate(98,322)"/>
<path d="M0 0 C0 3.975 -1.469 5.391 -3.812 8.562 C-4.52 9.533 -5.228 10.504 -5.957 11.504 C-8 14 -8 14 -11 16 C-10.528 11.311 -8.694 9.126 -5.5 5.75 C-4.685 4.879 -3.871 4.007 -3.031 3.109 C-1 1 -1 1 0 0 Z " fill="#E2CDA0" transform="translate(281,219)"/>
<path d="M0 0 C0.33 0.165 0.33 0.165 2 1 C1.67 1.165 1.67 1.165 0 2 C0 1.34 0 0.68 0 0 Z M0.312 2.188 C0.869 2.456 1.426 2.724 2 3 C0.417 7.274 -2.506 9.265 -6 12 C-6.812 9.812 -6.812 9.812 -7 7 C-3.126 1.909 -3.126 1.909 0.312 2.188 Z " fill="#DDC899" transform="translate(258,283)"/>
<path d="M0 0 C1.32 0.66 2.64 1.32 4 2 C3.67 2.99 3.34 3.98 3 5 C2.34 5 1.68 5 1 5 C0.755 5.593 0.51 6.186 0.258 6.797 C-1.21 9.367 -2.723 10.545 -5.125 12.25 C-5.849 12.771 -6.574 13.292 -7.32 13.828 C-7.875 14.215 -8.429 14.602 -9 15 C-9.66 14.67 -10.32 14.34 -11 14 C-8.506 11.363 -6.407 9.217 -3.188 7.5 C-2.827 7.252 -2.827 7.252 -1 6 C-0.75 3.375 -0.75 3.375 -1 1 C-0.67 0.67 -0.34 0.34 0 0 Z " fill="#FDE542" transform="translate(91,128)"/>
<path d="M0 0 C0.66 0.33 1.32 0.66 2 1 C1.34 1.33 1.34 1.33 -2 3 C-1.67 3.99 -1.34 4.98 -1 6 C-1.99 6.825 -1.99 6.825 -7 11 C-7.99 10.01 -8.98 9.02 -10 8 C-6.7 5.36 -3.4 2.72 0 0 Z " fill="#FCE025" transform="translate(102,120)"/>
<path d="M0 0 C0 3.7 -0.75 5.087 -3 8 C-5.777 9.109 -5.777 9.109 -8.938 9.75 C-9.978 9.972 -11.018 10.193 -12.09 10.422 C-13.05 10.613 -14.011 10.803 -15 11 C-16.335 11.325 -17.67 11.654 -19 12 C-18.67 11.34 -18.34 10.68 -18 10 C-17.34 10 -16.68 10 -16 10 C-16 9.34 -16 8.68 -16 8 C-14.209 7.665 -12.417 7.332 -10.625 7 C-9.627 6.814 -8.63 6.629 -7.602 6.438 C-5 6 -5 6 -3 6 C-2.691 5.196 -2.381 4.391 -2.062 3.562 C-1 1 -1 1 0 0 Z " fill="#FDDB18" transform="translate(108,165)"/>
<path d="M0 0 C1.103 3.31 1.135 5.681 0 9 C-2.062 10.312 -2.062 10.312 -4 11 C-4.812 8.875 -4.812 8.875 -5 6 C-3.556 3.699 -1.891 1.984 0 0 Z " fill="#E0CB9D" transform="translate(255,295)"/>
<path d="M0 0 C0.66 0 1.32 0 2 0 C2.825 3.6 3.135 6.934 3.125 10.625 C3.128 11.566 3.13 12.507 3.133 13.477 C3 16 3 16 2 19 C1.34 19 0.68 19 0 19 C0 12.73 0 6.46 0 0 Z " fill="#DEC99A" transform="translate(280,184)"/>
<path d="M0 0 C-1.109 2.217 -2.494 4.036 -4 6 C-5.65 5.67 -7.3 5.34 -9 5 C-8.625 2.562 -8.625 2.562 -8 0 C-5.138 -1.431 -3.066 -0.6 0 0 Z " fill="#FDDA17" transform="translate(79,226)"/>
<path d="M0 0 C0.66 0.33 1.32 0.66 2 1 C1.484 1.907 0.969 2.815 0.438 3.75 C-1 7 -1 7 -0.375 9.062 C-0.251 9.702 -0.127 10.341 0 11 C-2.438 13.75 -2.438 13.75 -5 16 C-5.822 9.753 -2.926 5.287 0 0 Z " fill="#D6C08D" transform="translate(272,225)"/>
<path d="M0 0 C0.33 0 0.66 0 1 0 C1.33 2.31 1.66 4.62 2 7 C-1.83 8.802 -4.781 9.196 -9 9 C-8.67 8.34 -8.34 7.68 -8 7 C-5.686 6.269 -3.352 5.599 -1 5 C-0.67 3.35 -0.34 1.7 0 0 Z " fill="#FDD917" transform="translate(82,228)"/>
<path d="M0 0 C0.99 0.33 1.98 0.66 3 1 C1.862 4.415 0.76 5.332 -1.938 7.625 C-2.648 8.236 -3.358 8.847 -4.09 9.477 C-6 11 -6 11 -8 12 C-6.59 8.961 -4.911 6.406 -2.875 3.75 C-2.336 3.044 -1.797 2.337 -1.242 1.609 C-0.832 1.078 -0.422 0.547 0 0 Z " fill="#D9C596" transform="translate(244,320)"/>
<path d="M0 0 C0 3.598 -0.895 4.222 -3 7 C-3.165 7.701 -3.33 8.402 -3.5 9.125 C-4 11 -4 11 -7 13 C-6.388 5.529 -6.388 5.529 -4.625 3.125 C-3.095 2.066 -1.548 1.032 0 0 Z " fill="#DBC594" transform="translate(263,268)"/>
<path d="M0 0 C0.66 0.33 1.32 0.66 2 1 C2.351 4.773 2.368 6.485 0.125 9.625 C-0.226 10.017 -0.226 10.017 -2 12 C-2.709 13.311 -3.395 14.638 -4 16 C-4.66 15.34 -5.32 14.68 -6 14 C-5.691 13.588 -5.691 13.588 -4.125 11.5 C-1.662 7.849 -0.887 4.286 0 0 Z " fill="#D7BF8B" transform="translate(267,242)"/>
<path d="M0 0 C0 3 0 3 0 3 Z M-5 5 C-4.34 5 -3.68 5 -3 5 C-4.491 8.795 -6.757 10.61 -10 13 C-10.33 11.68 -10.66 10.36 -11 9 C-10.381 8.711 -9.762 8.423 -9.125 8.125 C-7 7 -7 7 -5 5 Z " fill="#E0CB9E" transform="translate(271,254)"/>
<path d="M0 0 C-1.218 3.654 -2.144 3.958 -5.438 5.75 C-5.839 5.974 -5.839 5.974 -7.871 7.109 C-8.222 7.256 -8.222 7.256 -10 8 C-10.66 7.67 -11.32 7.34 -12 7 C-10.57 5.825 -9.13 4.66 -7.688 3.5 C-6.887 2.85 -6.086 2.201 -5.262 1.531 C-3 0 -3 0 0 0 Z " fill="#FCE649" transform="translate(151,94)"/>
<path d="M0 0 C0.893 0.035 1.787 0.07 2.707 0.105 C3.608 0.133 4.509 0.16 5.438 0.188 C5.781 0.205 5.781 0.205 7.52 0.293 C7.19 1.283 6.86 2.273 6.52 3.293 C2.56 3.293 -1.4 3.293 -5.48 3.293 C-2.48 0.293 -2.48 0.293 0 0 Z " fill="#FDDA19" transform="translate(81.48046875,176.70703125)"/>
<path d="M0 0 C0.33 0.99 0.66 1.98 1 3 C-1.246 5.246 -3.07 5.857 -6 7 C-6.495 7.33 -6.495 7.33 -9 9 C-9 7.68 -9 6.36 -9 5 C-8.072 4.546 -7.144 4.093 -6.188 3.625 C-3 2 -3 2 0 0 Z " fill="#FDE749" transform="translate(114,121)"/>
<path d="M0 0 C6.055 -0.195 6.055 -0.195 8 0 C8.66 0.66 9.32 1.32 10 2 C8.25 4.062 8.25 4.062 6 6 C3.75 5.75 3.75 5.75 2 5 C3.32 4.01 4.64 3.02 6 2 C3.69 2 1.38 2 -1 2 C-0.67 1.34 -0.34 0.68 0 0 Z " fill="#FDE64D" transform="translate(156,84)"/>
<path d="M0 0 C0.955 2.17 1.144 3.563 0.398 5.824 C-0.359 7.568 -1.176 9.286 -2 11 C-2.33 11 -2.66 11 -3 11 C-3.081 9.543 -3.139 8.084 -3.188 6.625 C-3.222 5.813 -3.257 5.001 -3.293 4.164 C-3.196 3.45 -3.1 2.736 -3 2 C-2.01 1.34 -1.02 0.68 0 0 Z " fill="#FBD92C" transform="translate(47,169)"/>
<path d="M0 0 C0.33 0.99 0.66 1.98 1 3 C0.34 3.33 0.34 3.33 -3 5 C-3.33 4.34 -3.66 3.68 -4 3 C-4.99 3.33 -5.98 3.66 -7 4 C-7 3.01 -7 2.02 -7 1 C-4.509 0.313 -2.621 0 0 0 Z " fill="#FCDC1E" transform="translate(197,114)"/>
<path d="M0 0 C0.66 1.32 1.32 2.64 2 4 C0.68 5.32 -0.64 6.64 -2 8 C-2 7.34 -2 6.68 -2 6 C-2.66 5.67 -3.32 5.34 -4 5 C-2.25 1.125 -2.25 1.125 0 0 Z " fill="#FDDF2D" transform="translate(170,88)"/>
<path d="M0 0 C0.66 0 1.32 0 2 0 C1.01 3.96 0.02 7.92 -1 12 C-1.33 12 -1.66 12 -2 12 C-2.054 10.563 -2.093 9.125 -2.125 7.688 C-2.148 6.887 -2.171 6.086 -2.195 5.262 C-2 3 -2 3 0 0 Z " fill="#E3AD0F" transform="translate(253,264)"/>
<path d="M0 0 C0.99 0.33 1.98 0.66 3 1 C2.01 1.33 1.02 1.66 0 2 C0 2.66 0 3.32 0 4 C-0.66 4 -1.32 4 -2 4 C-2.33 4.99 -2.66 5.98 -3 7 C-4.65 7.33 -6.3 7.66 -8 8 C-5.333 5.333 -2.667 2.667 0 0 Z " fill="#FCE53F" transform="translate(79,148)"/>
<path d="M0 0 C1.32 1.65 2.64 3.3 4 5 C3.34 5.66 2.68 6.32 2 7 C0.68 6.34 -0.64 5.68 -2 5 C-2 2 -2 2 0 0 Z " fill="#FCDE23" transform="translate(175,95)"/>
<path d="M0 0 C3.188 -0.312 3.188 -0.312 6 0 C4.875 1.938 4.875 1.938 3 4 C-0.188 4.75 -0.188 4.75 -3 5 C-1.875 2.5 -1.875 2.5 0 0 Z " fill="#EAB402" transform="translate(226,308)"/>
<path d="M0 0 C0.66 0 1.32 0 2 0 C2.25 2.812 2.25 2.812 2 6 C0 7.875 0 7.875 -2 9 C-3 6 -3 6 -1.562 2.812 C-1.047 1.884 -0.531 0.956 0 0 Z " fill="#E4D0A4" transform="translate(271,241)"/>
<path d="M0 0 C0.66 0.33 1.32 0.66 2 1 C-0.386 3.888 -2.291 4.62 -6 5 C-6.66 4.67 -7.32 4.34 -8 4 C-8 3.34 -8 2.68 -8 2 C-7.618 2.021 -7.618 2.021 -5.688 2.125 C-3 2 -3 2 0 0 Z " fill="#FCD70D" transform="translate(75,164)"/>
<path d="M0 0 C1.65 0.99 3.3 1.98 5 3 C4.67 4.32 4.34 5.64 4 7 C3.67 6.01 3.34 5.02 3 4 C0.938 3.312 0.938 3.312 -1 3 C-0.67 2.01 -0.34 1.02 0 0 Z " fill="#D8C492" transform="translate(90,318)"/>
<path d="M0 0 C0.33 0 0.66 0 1 0 C1 2.64 1 5.28 1 8 C0.34 8 -0.32 8 -1 8 C-1.33 9.65 -1.66 11.3 -2 13 C-3.188 9.571 -2.802 7.622 -1.562 4.25 C-1.275 3.451 -0.988 2.652 -0.691 1.828 C-0.463 1.225 -0.235 0.622 0 0 Z " fill="#CBA650" transform="translate(278,185)"/>
<path d="M0 0 C1.32 0 2.64 0 4 0 C4.66 1.32 5.32 2.64 6 4 C5.34 4.66 4.68 5.32 4 6 C3.67 5.01 3.34 4.02 3 3 C2.01 3 1.02 3 0 3 C0 2.01 0 1.02 0 0 Z " fill="#ECB80E" transform="translate(82,306)"/>
<path d="M0 0 C0.66 0.66 1.32 1.32 2 2 C0.719 3.707 -0.618 5.374 -2 7 C-2.66 7 -3.32 7 -4 7 C-3.67 5.68 -3.34 4.36 -3 3 C-2.34 3 -1.68 3 -1 3 C-0.67 2.01 -0.34 1.02 0 0 Z " fill="#DBC491" transform="translate(280,203)"/>
<path d="M0 0 C1.32 0.66 2.64 1.32 4 2 C3.67 2.99 3.34 3.98 3 5 C2.01 5.33 1.02 5.66 0 6 C-0.382 4.344 -0.714 2.675 -1 1 C-0.67 0.67 -0.34 0.34 0 0 Z " fill="#FDE432" transform="translate(91,128)"/>
<path d="M0 0 C3.937 1.312 6.227 2.919 9 6 C4.588 6 3.216 3.93 0 1 C0 0.67 0 0.34 0 0 Z " fill="#FEFAE4" transform="translate(175,82)"/>
<path d="M0 0 C0.33 0.99 0.66 1.98 1 3 C-0.783 6.032 -1.596 6.865 -5 8 C-4.67 7.01 -4.34 6.02 -4 5 C-3.34 5 -2.68 5 -2 5 C-1.928 4.68 -1.928 4.68 -1.562 3.062 C-1 1 -1 1 0 0 Z " fill="#EFBA03" transform="translate(270,193)"/>
<path d="M0 0 C1.32 0.33 2.64 0.66 4 1 C1.69 2.65 -0.62 4.3 -3 6 C-3 3 -3 3 -1.75 1.25 C-1.173 0.838 -0.595 0.425 0 0 Z " fill="#FDE63E" transform="translate(144,91)"/>
</svg>
