<?xml version="1.0" encoding="UTF-8"?>
<!-- Generator: visioncortex VTracer 0.6.12 -->
<svg version="1.1" xmlns="http://www.w3.org/2000/svg" width="310" height="509">
<path d="M0 0 C102.3 0 204.6 0 310 0 C310 167.97 310 335.94 310 509 C207.7 509 105.4 509 0 509 C0 341.03 0 173.06 0 0 Z " fill="#FAF2DB" transform="translate(0,0)"/>
<path d="M0 0 C0.389 -0.003 0.389 -0.003 2.355 -0.019 C4.937 -0.035 7.519 -0.022 10.101 -0.01 C11.961 -0.015 13.822 -0.022 15.682 -0.031 C20.719 -0.049 25.756 -0.042 30.793 -0.029 C36.072 -0.019 41.35 -0.029 46.629 -0.035 C55.492 -0.042 64.356 -0.033 73.219 -0.014 C83.458 0.008 93.696 0.001 103.934 -0.021 C112.735 -0.039 121.535 -0.042 130.335 -0.031 C135.587 -0.025 140.838 -0.024 146.09 -0.037 C151.028 -0.049 155.966 -0.041 160.904 -0.018 C162.713 -0.012 164.522 -0.014 166.331 -0.023 C168.807 -0.034 171.282 -0.02 173.757 0 C174.468 -0.009 175.178 -0.018 175.91 -0.027 C182.629 0.077 187.583 2.577 192.629 6.82 C198.316 13.614 200.028 19.385 200.026 28.135 C200.03 28.907 200.033 29.679 200.037 30.475 C200.048 33.065 200.052 35.655 200.056 38.245 C200.062 40.101 200.069 41.957 200.076 43.814 C200.097 49.912 200.107 56.011 200.117 62.109 C200.121 64.211 200.125 66.312 200.129 68.413 C200.148 78.285 200.163 88.158 200.171 98.03 C200.181 109.418 200.207 120.805 200.247 132.193 C200.278 141 200.292 149.806 200.296 158.613 C200.298 163.871 200.307 169.128 200.332 174.386 C200.355 179.335 200.36 184.284 200.349 189.234 C200.349 191.045 200.355 192.857 200.369 194.668 C200.461 207.531 199.194 217.336 190.828 227.59 C187.825 230.545 184.768 231.939 180.879 233.508 C180.549 233.178 180.219 232.848 179.879 232.508 C177.508 232.419 175.167 232.396 172.796 232.415 C172.046 232.417 171.296 232.419 170.523 232.421 C167.991 232.428 165.458 232.443 162.926 232.458 C161.117 232.465 159.309 232.471 157.501 232.477 C153.596 232.49 149.692 232.506 145.787 232.524 C139.609 232.552 133.432 232.569 127.254 232.584 C125.141 232.589 123.027 232.594 120.914 232.599 C120.384 232.601 120.384 232.601 117.705 232.607 C103.318 232.643 88.931 232.689 74.543 232.755 C64.847 232.799 55.152 232.83 45.456 232.844 C40.324 232.852 35.193 232.867 30.061 232.9 C25.228 232.931 20.396 232.944 15.563 232.942 C13.793 232.945 12.022 232.954 10.253 232.971 C-0.213 233.068 -8.047 232.491 -16.981 226.633 C-19.508 224.124 -20.845 221.72 -22.371 218.508 C-22.871 217.477 -23.372 216.445 -23.887 215.383 C-25.975 210.52 -26.268 206.294 -26.262 201.033 C-26.265 200.277 -26.268 199.521 -26.271 198.742 C-26.279 196.208 -26.281 193.673 -26.282 191.138 C-26.287 189.321 -26.292 187.505 -26.298 185.688 C-26.311 180.749 -26.317 175.811 -26.322 170.873 C-26.324 167.786 -26.329 164.699 -26.333 161.612 C-26.347 151.949 -26.356 142.286 -26.36 132.622 C-26.365 121.477 -26.382 110.332 -26.411 99.187 C-26.433 90.567 -26.443 81.946 -26.444 73.326 C-26.445 68.181 -26.451 63.035 -26.469 57.889 C-26.486 53.045 -26.488 48.201 -26.479 43.357 C-26.478 41.584 -26.482 39.811 -26.492 38.038 C-26.612 15.398 -26.612 15.398 -19.934 8.133 C-19.404 7.527 -18.874 6.921 -18.328 6.297 C-12.718 1.749 -7.234 -0.091 0 0 Z " fill="#9ACC13" transform="translate(64.121337890625,90.4920654296875)"/>
<path d="M0 0 C102.3 0 204.6 0 310 0 C310 167.97 310 335.94 310 509 C207.7 509 105.4 509 0 509 C0 341.03 0 173.06 0 0 Z M5 6 C3.978 10.429 3.873 14.717 3.869 19.25 C3.867 19.96 3.864 20.671 3.862 21.404 C3.857 23.786 3.858 26.168 3.86 28.55 C3.857 30.275 3.854 32 3.851 33.725 C3.842 38.466 3.841 43.207 3.84 47.947 C3.838 53.06 3.831 58.172 3.824 63.285 C3.81 74.462 3.804 85.64 3.8 96.817 C3.797 103.794 3.793 110.771 3.788 117.748 C3.776 137.06 3.766 156.371 3.762 175.683 C3.762 176.919 3.762 178.155 3.762 179.428 C3.762 180.667 3.761 181.905 3.761 183.182 C3.761 185.692 3.76 188.202 3.76 190.712 C3.76 191.957 3.759 193.202 3.759 194.485 C3.755 214.676 3.738 234.866 3.714 255.057 C3.691 275.779 3.678 296.501 3.677 317.224 C3.676 328.862 3.67 340.499 3.652 352.137 C3.637 362.043 3.632 371.949 3.64 381.855 C3.644 386.911 3.643 391.967 3.629 397.023 C3.616 401.649 3.617 406.275 3.63 410.901 C3.631 412.577 3.628 414.252 3.62 415.928 C3.609 418.202 3.616 420.476 3.628 422.75 C3.627 424.015 3.627 425.279 3.626 426.581 C4.035 430.317 5.127 432.77 7 436 C44.785 436.091 82.57 436.162 120.355 436.204 C124.812 436.209 129.27 436.214 133.727 436.22 C134.615 436.221 135.502 436.222 136.416 436.223 C150.799 436.24 165.182 436.272 179.565 436.309 C194.315 436.346 209.065 436.368 223.815 436.376 C232.922 436.382 242.029 436.399 251.136 436.432 C257.374 436.453 263.613 436.459 269.852 436.454 C273.455 436.451 277.058 436.455 280.662 436.477 C284.563 436.5 288.463 436.492 292.364 436.481 C293.511 436.493 294.658 436.504 295.839 436.516 C296.88 436.508 297.92 436.5 298.992 436.492 C299.894 436.494 300.795 436.495 301.723 436.497 C304 436 304 436 305.79 434.412 C307.438 431.127 307.375 428.588 307.375 424.913 C307.377 424.554 307.377 424.554 307.387 422.738 C307.397 420.321 307.386 417.904 307.374 415.487 C307.377 413.742 307.381 411.996 307.386 410.251 C307.397 405.445 307.389 400.639 307.378 395.833 C307.369 390.653 307.377 385.474 307.383 380.295 C307.393 370.144 307.386 359.994 307.374 349.844 C307.361 338.032 307.362 326.219 307.364 314.407 C307.367 293.336 307.356 272.264 307.336 251.193 C307.317 230.731 307.31 210.269 307.316 189.807 C307.322 167.543 307.322 145.279 307.31 123.015 C307.309 120.642 307.308 118.269 307.307 115.897 C307.306 114.729 307.305 113.562 307.305 112.359 C307.301 104.119 307.301 95.879 307.303 87.639 C307.305 77.601 307.3 67.564 307.286 57.526 C307.278 52.402 307.274 47.277 307.279 42.153 C307.283 37.466 307.278 32.78 307.265 28.093 C307.262 26.393 307.263 24.694 307.267 22.994 C307.272 20.691 307.265 18.389 307.254 16.087 C307.254 14.806 307.253 13.525 307.252 12.204 C307.014 9.178 306.699 7.481 305 5 C302.528 3.764 300.903 3.874 298.137 3.871 C297.103 3.868 296.069 3.865 295.004 3.862 C293.859 3.863 292.715 3.865 291.536 3.866 C290.931 3.865 290.931 3.865 287.872 3.859 C284.505 3.854 281.139 3.853 277.772 3.855 C274.146 3.855 270.519 3.849 266.893 3.845 C259.785 3.836 252.676 3.834 245.568 3.833 C239.792 3.832 234.017 3.83 228.242 3.827 C211.884 3.818 195.526 3.814 179.168 3.815 C178.286 3.815 177.403 3.815 176.494 3.815 C175.611 3.815 174.727 3.815 173.817 3.815 C159.488 3.815 145.16 3.806 130.832 3.792 C116.135 3.777 101.438 3.77 86.741 3.771 C78.483 3.771 70.226 3.769 61.968 3.758 C54.939 3.749 47.911 3.747 40.882 3.753 C37.293 3.757 33.704 3.757 30.115 3.748 C26.231 3.739 22.348 3.745 18.464 3.753 C17.892 3.75 17.892 3.75 14.996 3.737 C13.962 3.742 12.928 3.746 11.863 3.751 C10.966 3.751 10.069 3.751 9.144 3.75 C7 4 7 4 5 6 Z " fill="#FDFDFD" transform="translate(0,0)"/>
<path d="M0 0 C0.389 -0.003 0.389 -0.003 2.355 -0.019 C4.937 -0.035 7.519 -0.022 10.101 -0.01 C11.961 -0.015 13.822 -0.022 15.682 -0.031 C20.719 -0.049 25.756 -0.042 30.793 -0.029 C36.072 -0.019 41.35 -0.029 46.629 -0.035 C55.492 -0.042 64.356 -0.033 73.219 -0.014 C83.458 0.008 93.696 0.001 103.934 -0.021 C112.735 -0.039 121.535 -0.042 130.335 -0.031 C135.587 -0.025 140.838 -0.024 146.09 -0.037 C151.028 -0.049 155.966 -0.041 160.904 -0.018 C162.713 -0.012 164.522 -0.014 166.331 -0.023 C168.807 -0.034 171.282 -0.02 173.757 0 C174.468 -0.009 175.178 -0.018 175.91 -0.027 C182.409 0.074 187.318 2.473 192.316 6.445 C194.109 8.812 194.553 10.581 194.879 13.508 C194.219 13.178 194.219 13.178 190.879 11.508 C190.755 11.91 190.755 11.91 190.129 13.945 C188.879 16.508 188.879 16.508 186.754 17.32 C186.135 17.382 185.516 17.444 184.879 17.508 C184.879 18.168 184.879 18.828 184.879 19.508 C185.539 19.838 186.199 20.168 186.879 20.508 C186.219 20.508 185.559 20.508 184.879 20.508 C184.879 21.168 184.879 21.828 184.879 22.508 C185.539 22.838 186.199 23.168 186.879 23.508 C185.889 24.828 184.899 26.148 183.879 27.508 C184.539 27.838 184.539 27.838 187.879 29.508 C186.951 29.92 186.022 30.333 185.066 30.758 C181.229 32.865 179.47 34.574 178.191 38.758 C178.14 39.047 178.14 39.047 177.879 40.508 C176.889 40.178 175.899 39.848 174.879 39.508 C175.869 36.538 176.859 33.568 177.879 30.508 C176.889 30.178 175.899 29.848 174.879 29.508 C174.549 28.848 174.219 28.188 173.879 27.508 C172.559 28.828 171.239 30.148 169.879 31.508 C169.219 31.178 168.559 30.848 167.879 30.508 C165.879 30.508 165.879 30.508 162.879 31.508 C161.889 30.518 160.899 29.528 159.879 28.508 C161.529 28.508 163.179 28.508 164.879 28.508 C163.229 27.848 161.579 27.188 159.879 26.508 C160.539 26.013 160.539 26.013 163.879 23.508 C163.219 23.178 162.559 22.848 161.879 22.508 C161.549 22.838 161.219 23.168 160.879 23.508 C160.219 24.168 159.559 24.828 158.879 25.508 C156.879 25.508 154.879 25.508 152.879 25.508 C151.889 26.168 150.899 26.828 149.879 27.508 C150.209 27.838 150.539 28.168 150.879 28.508 C152.554 28.222 154.223 27.89 155.879 27.508 C155.054 28.663 155.054 28.663 150.879 34.508 C152.859 34.508 154.839 34.508 156.879 34.508 C156.879 35.168 156.879 35.828 156.879 36.508 C155.559 36.508 154.239 36.508 152.879 36.508 C152.549 38.158 152.219 39.808 151.879 41.508 C150.229 41.178 148.579 40.848 146.879 40.508 C146.879 39.848 146.879 39.188 146.879 38.508 C146.198 39.024 145.517 39.539 144.816 40.07 C141.077 41.9 138.874 41.37 134.879 40.508 C134.836 38.508 134.838 36.508 134.879 34.508 C135.209 34.178 135.539 33.848 135.879 33.508 C134.889 33.178 133.899 32.848 132.879 32.508 C132.755 32.951 132.755 32.951 132.129 35.195 C130.815 38.677 129.239 40.662 126.879 43.508 C125.466 45.804 124.177 48.144 122.879 50.508 C121.559 50.178 120.239 49.848 118.879 49.508 C118.879 50.168 118.879 50.828 118.879 51.508 C118.054 51.673 118.054 51.673 113.879 52.508 C113.755 51.869 113.631 51.229 113.504 50.57 C113.297 49.89 113.091 49.209 112.879 48.508 C112.219 48.178 111.559 47.848 110.879 47.508 C110.879 46.848 110.879 46.188 110.879 45.508 C109.889 45.343 109.889 45.343 104.879 44.508 C104.879 43.518 104.879 42.528 104.879 41.508 C104.423 40.138 103.919 38.784 103.379 37.445 C101.879 33.716 101.879 33.716 101.879 31.508 C99.569 31.508 97.259 31.508 94.879 31.508 C95.209 30.188 95.539 28.868 95.879 27.508 C95.219 27.178 94.559 26.848 93.879 26.508 C94.209 25.848 94.539 25.188 94.879 24.508 C93.254 24.172 91.629 23.839 90.004 23.508 C89.099 23.322 88.194 23.137 87.261 22.945 C84.879 22.508 84.879 22.508 82.879 22.508 C82.854 22.804 82.854 22.804 82.73 24.301 C81.724 34.934 81.724 34.934 77.754 38.32 C77.135 38.712 76.516 39.104 75.879 39.508 C75.549 38.848 75.219 38.188 74.879 37.508 C74.549 37.673 74.549 37.673 72.879 38.508 C72.879 37.848 72.879 37.188 72.879 36.508 C71.889 36.508 70.899 36.508 69.879 36.508 C70.869 38.488 71.859 40.468 72.879 42.508 C73.539 42.508 74.199 42.508 74.879 42.508 C74.879 43.168 74.879 43.828 74.879 44.508 C77.879 44.508 77.879 44.508 79.566 43.008 C79.999 42.513 80.432 42.018 80.879 41.508 C79.566 45.445 77.96 47.735 74.879 50.508 C74.219 50.178 73.559 49.848 72.879 49.508 C73.209 48.188 73.539 46.868 73.879 45.508 C73.219 45.508 72.559 45.508 71.879 45.508 C71.549 47.488 71.219 49.468 70.879 51.508 C70.219 51.508 69.559 51.508 68.879 51.508 C68.879 52.168 68.879 52.828 68.879 53.508 C68.219 53.508 67.559 53.508 66.879 53.508 C66.672 54.147 66.466 54.787 66.254 55.445 C64.879 57.508 64.879 57.508 61.754 58.258 C60.805 58.34 59.856 58.423 58.879 58.508 C58.879 57.848 58.879 57.188 58.879 56.508 C60.529 56.178 62.179 55.848 63.879 55.508 C56.254 54.508 56.254 54.508 52.879 54.508 C52.879 53.848 52.879 53.188 52.879 52.508 C52.549 52.673 52.549 52.673 50.879 53.508 C50.879 54.498 50.879 55.488 50.879 56.508 C49.559 56.508 48.239 56.508 46.879 56.508 C46.879 58.158 46.879 59.808 46.879 61.508 C41.254 64.508 41.254 64.508 37.879 64.508 C37.549 63.848 37.219 63.188 36.879 62.508 C36.652 63.147 36.425 63.787 36.191 64.445 C34.879 66.508 34.879 66.508 32.254 67.258 C31.47 67.34 30.686 67.423 29.879 67.508 C29.879 66.848 29.879 66.188 29.879 65.508 C30.539 65.508 31.199 65.508 31.879 65.508 C31.549 64.848 31.219 64.188 30.879 63.508 C30.219 63.508 29.559 63.508 28.879 63.508 C28.817 63.91 28.817 63.91 28.504 65.945 C28.297 66.791 28.091 67.637 27.879 68.508 C27.549 68.673 27.549 68.673 25.879 69.508 C26.209 69.673 26.209 69.673 27.879 70.508 C27.879 71.168 27.879 71.828 27.879 72.508 C28.869 72.178 29.859 71.848 30.879 71.508 C30.714 72.168 30.714 72.168 29.879 75.508 C29.239 75.632 28.6 75.755 27.941 75.883 C23.909 76.706 19.894 77.607 15.879 78.508 C15.879 77.518 15.879 76.528 15.879 75.508 C15.219 75.508 14.559 75.508 13.879 75.508 C13.796 76.787 13.714 78.065 13.629 79.383 C13.145 83.295 13.145 83.295 11.004 85.008 C8.879 85.508 8.879 85.508 5.879 85.508 C6.539 86.828 7.199 88.148 7.879 89.508 C6.263 91.549 4.593 93.549 2.879 95.508 C2.219 95.508 1.559 95.508 0.879 95.508 C0.879 96.498 0.879 97.488 0.879 98.508 C0.054 98.673 0.054 98.673 -4.121 99.508 C-3.461 97.858 -2.801 96.208 -2.121 94.508 C-2.946 94.673 -2.946 94.673 -7.121 95.508 C-7.121 96.498 -7.121 97.488 -7.121 98.508 C-6.461 98.508 -5.801 98.508 -5.121 98.508 C-5.451 99.168 -5.781 99.828 -6.121 100.508 C-8.184 101.133 -8.184 101.133 -10.121 101.508 C-10.451 102.828 -10.781 104.148 -11.121 105.508 C-11.781 105.508 -12.441 105.508 -13.121 105.508 C-12.791 106.168 -12.461 106.828 -12.121 107.508 C-11.626 107.343 -11.626 107.343 -9.121 106.508 C-9.121 107.168 -9.121 107.828 -9.121 108.508 C-11.121 110.133 -11.121 110.133 -13.121 111.508 C-12.956 112.085 -12.791 112.663 -12.621 113.258 C-12.121 115.508 -12.121 115.508 -12.121 119.508 C-11.296 119.178 -11.296 119.178 -7.121 117.508 C-7.709 120.532 -8.348 123.526 -9.121 126.508 C-9.781 126.673 -9.781 126.673 -13.121 127.508 C-13.121 128.498 -13.121 129.488 -13.121 130.508 C-12.503 130.157 -11.884 129.807 -11.246 129.445 C-10.545 129.136 -9.844 128.827 -9.121 128.508 C-8.461 128.838 -7.801 129.168 -7.121 129.508 C-7.121 130.168 -7.121 130.828 -7.121 131.508 C-8.441 131.178 -9.761 130.848 -11.121 130.508 C-11.121 131.168 -11.121 131.828 -11.121 132.508 C-10.461 132.838 -9.801 133.168 -9.121 133.508 C-9.695 137.379 -11.608 139.59 -14.121 142.508 C-12.801 142.838 -11.481 143.168 -10.121 143.508 C-10.451 143.838 -10.781 144.168 -11.121 144.508 C-10.131 145.168 -9.141 145.828 -8.121 146.508 C-8.524 146.652 -8.524 146.652 -10.559 147.383 C-13.121 149.508 -13.121 149.508 -13.606 151.723 C-13.743 153.478 -13.858 155.235 -13.953 156.992 C-14.161 160.107 -14.813 162.674 -16.121 165.508 C-17.111 165.838 -18.101 166.168 -19.121 166.508 C-19.121 165.188 -19.121 163.868 -19.121 162.508 C-19.199 160.632 -19.305 158.756 -19.434 156.883 C-19.492 155.921 -19.55 154.96 -19.61 153.969 C-20.121 151.508 -20.121 151.508 -23.121 149.508 C-23.451 169.968 -23.781 190.428 -24.121 211.508 C-26.524 207.904 -26.404 205.314 -26.382 201.153 C-26.386 200.398 -26.39 199.643 -26.394 198.865 C-26.404 196.327 -26.4 193.79 -26.396 191.252 C-26.4 189.435 -26.406 187.618 -26.411 185.802 C-26.425 180.859 -26.425 175.917 -26.423 170.974 C-26.422 166.847 -26.427 162.72 -26.432 158.592 C-26.443 148.849 -26.443 139.106 -26.437 129.363 C-26.431 119.322 -26.443 109.281 -26.465 99.24 C-26.482 90.616 -26.488 81.991 -26.485 73.367 C-26.483 68.218 -26.486 63.069 -26.5 57.92 C-26.512 53.072 -26.51 48.223 -26.497 43.375 C-26.495 41.6 -26.498 39.826 -26.506 38.051 C-26.604 15.389 -26.604 15.389 -19.934 8.133 C-19.404 7.527 -18.874 6.921 -18.328 6.297 C-12.718 1.749 -7.234 -0.091 0 0 Z M136.879 37.508 C137.209 38.498 137.539 39.488 137.879 40.508 C141.567 39.279 142.602 37.569 144.879 34.508 C141.799 34.508 139.567 36.105 136.879 37.508 Z M31.879 60.508 C31.879 61.168 31.879 61.828 31.879 62.508 C32.539 62.178 33.199 61.848 33.879 61.508 C33.219 61.178 32.559 60.848 31.879 60.508 Z " fill="#9FCF19" transform="translate(64.121337890625,90.4920654296875)"/>
<path d="M0 0 C0.383 0 0.383 0 2.322 0.002 C4.868 0.009 7.413 0.045 9.959 0.081 C11.793 0.092 13.626 0.101 15.46 0.109 C20.423 0.134 25.384 0.184 30.347 0.239 C35.538 0.293 40.73 0.323 45.922 0.356 C55.746 0.421 65.57 0.507 75.394 0.6 C86.581 0.706 97.769 0.788 108.956 0.869 C131.963 1.034 154.97 1.229 177.977 1.443 C178.977 3.443 178.977 3.443 178.977 6.443 C179.967 6.773 180.957 7.103 181.977 7.443 C181.977 8.433 181.977 9.423 181.977 10.443 C181.157 10.781 180.337 11.119 179.492 11.466 C178.415 11.913 177.337 12.359 176.227 12.818 C175.159 13.259 174.092 13.7 172.992 14.154 C170.601 15.176 168.283 16.245 165.977 17.443 C166.637 16.123 167.297 14.803 167.977 13.443 C167.647 13.113 167.317 12.783 166.977 12.443 C166.317 12.773 165.657 13.103 164.977 13.443 C164.352 15.506 164.352 15.506 163.977 17.443 C161.977 16.443 161.977 16.443 160.977 14.443 C158.007 15.433 155.037 16.423 151.977 17.443 C151.977 16.783 151.977 16.123 151.977 15.443 C149.977 14.443 149.977 14.443 147.602 14.943 C144.845 15.468 143.605 15.264 140.977 14.443 C139.311 14.102 137.645 13.767 135.977 13.443 C135.977 12.783 135.977 12.123 135.977 11.443 C135.348 11.618 135.348 11.618 132.164 12.506 C129.03 13.379 128.194 13.515 124.977 12.443 C123.152 13.22 123.152 13.22 121.289 14.381 C120.196 15.061 119.103 15.742 117.977 16.443 C119.852 12.568 119.852 12.568 120.977 11.443 C117.017 11.443 113.057 11.443 108.977 11.443 C108.977 12.103 108.977 12.763 108.977 13.443 C104.889 14.327 102.026 14.793 97.977 13.443 C96.987 13.773 95.997 14.103 94.977 14.443 C94.647 14.278 94.647 14.278 92.977 13.443 C92.977 12.783 92.977 12.123 92.977 11.443 C91.987 11.443 90.997 11.443 89.977 11.443 C89.977 10.453 89.977 9.463 89.977 8.443 C88.657 9.433 87.337 10.423 85.977 11.443 C85.977 10.783 85.977 10.123 85.977 9.443 C83.667 9.113 81.357 8.783 78.977 8.443 C78.317 9.763 77.657 11.083 76.977 12.443 C76.647 12.278 76.647 12.278 74.977 11.443 C72.644 11.403 70.31 11.4 67.977 11.443 C67.647 12.103 67.317 12.763 66.977 13.443 C66.977 12.783 66.977 12.123 66.977 11.443 C63.705 10.37 61.547 10.55 58.227 11.381 C57.427 11.575 56.628 11.77 55.805 11.97 C55.202 12.126 54.598 12.282 53.977 12.443 C53.812 12.113 53.812 12.113 52.977 10.443 C51.987 11.103 50.997 11.763 49.977 12.443 C47.989 13.145 45.99 13.817 43.977 14.443 C43.977 13.783 43.977 13.123 43.977 12.443 C38.428 12.161 35.679 12.262 30.977 15.443 C30.317 15.113 29.657 14.783 28.977 14.443 C26.977 14.403 24.976 14.4 22.977 14.443 C22.812 13.948 22.812 13.948 21.977 11.443 C21.317 11.443 20.657 11.443 19.977 11.443 C19.317 13.093 18.657 14.743 17.977 16.443 C17.812 15.948 17.812 15.948 16.977 13.443 C14.997 13.113 13.017 12.783 10.977 12.443 C10.977 13.433 10.977 14.423 10.977 15.443 C8.997 15.113 7.017 14.783 4.977 14.443 C4.317 15.763 3.657 17.083 2.977 18.443 C2.317 16.463 1.657 14.483 0.977 12.443 C0.214 13.247 -0.55 14.052 -1.336 14.881 C-4.023 17.443 -4.023 17.443 -7.023 18.443 C-6.363 18.773 -5.703 19.103 -5.023 19.443 C-5.023 20.103 -5.023 20.763 -5.023 21.443 C-5.683 21.443 -6.343 21.443 -7.023 21.443 C-7.023 23.423 -7.023 25.403 -7.023 27.443 C-9.024 28.443 -10.855 28.937 -13.023 29.443 C-12.693 30.103 -12.363 30.763 -12.023 31.443 C-12.353 32.103 -12.683 32.763 -13.023 33.443 C-12.363 34.103 -11.703 34.763 -11.023 35.443 C-11.683 35.443 -12.343 35.443 -13.023 35.443 C-13.211 38.818 -13.211 38.818 -13.023 42.443 C-12.033 43.103 -11.043 43.763 -10.023 44.443 C-10.518 45.268 -10.518 45.268 -13.023 49.443 C-12.858 49.278 -12.858 49.278 -12.023 48.443 C-10.361 47.105 -8.694 45.771 -7.023 44.443 C-7.312 45.144 -7.601 45.846 -7.898 46.568 C-8.664 48.526 -9.371 50.507 -10.023 52.506 C-11.023 55.443 -11.023 55.443 -12.148 57.568 C-13.023 59.443 -13.023 59.443 -13.023 63.443 C-13.353 64.433 -13.683 65.423 -14.023 66.443 C-12.868 66.113 -12.868 66.113 -7.023 64.443 C-7.023 63.783 -7.023 63.123 -7.023 62.443 C-6.363 62.443 -5.703 62.443 -5.023 62.443 C-5.023 63.763 -5.023 65.083 -5.023 66.443 C-4.363 67.103 -3.703 67.763 -3.023 68.443 C-6.323 68.443 -9.623 68.443 -13.023 68.443 C-13.023 69.103 -13.023 69.763 -13.023 70.443 C-11.043 70.443 -9.063 70.443 -7.023 70.443 C-8.343 71.433 -9.663 72.423 -11.023 73.443 C-10.363 73.773 -9.703 74.103 -9.023 74.443 C-9.023 75.433 -9.023 76.423 -9.023 77.443 C-9.683 77.443 -10.343 77.443 -11.023 77.443 C-11.023 78.433 -11.023 79.423 -11.023 80.443 C-11.683 80.443 -12.343 80.443 -13.023 80.443 C-13.023 81.103 -13.023 81.763 -13.023 82.443 C-12.363 82.773 -11.703 83.103 -11.023 83.443 C-11.023 84.433 -11.023 85.423 -11.023 86.443 C-10.528 86.113 -10.528 86.113 -8.023 84.443 C-7.528 84.608 -7.528 84.608 -5.023 85.443 C-5.023 85.773 -5.023 86.103 -5.023 86.443 C-3.703 86.443 -2.383 86.443 -1.023 86.443 C-1.023 87.103 -1.023 87.763 -1.023 88.443 C-2.013 88.773 -2.013 88.773 -7.023 90.443 C-7.023 91.433 -7.023 92.423 -7.023 93.443 C-6.033 93.278 -6.033 93.278 -1.023 92.443 C-3.076 94.691 -4.03 95.445 -7.023 96.443 C-7.023 97.103 -7.023 97.763 -7.023 98.443 C-6.363 98.443 -5.703 98.443 -5.023 98.443 C-5.353 99.103 -5.683 99.763 -6.023 100.443 C-8.086 101.068 -8.086 101.068 -10.023 101.443 C-10.353 102.763 -10.683 104.083 -11.023 105.443 C-11.683 105.443 -12.343 105.443 -13.023 105.443 C-12.693 106.103 -12.363 106.763 -12.023 107.443 C-11.528 107.278 -11.528 107.278 -9.023 106.443 C-9.023 107.103 -9.023 107.763 -9.023 108.443 C-11.023 110.068 -11.023 110.068 -13.023 111.443 C-12.858 112.021 -12.693 112.598 -12.523 113.193 C-12.023 115.443 -12.023 115.443 -12.023 119.443 C-11.198 119.113 -11.198 119.113 -7.023 117.443 C-7.611 120.467 -8.25 123.461 -9.023 126.443 C-9.683 126.608 -9.683 126.608 -13.023 127.443 C-13.023 128.433 -13.023 129.423 -13.023 130.443 C-12.405 130.092 -11.786 129.742 -11.148 129.381 C-10.447 129.071 -9.746 128.762 -9.023 128.443 C-8.363 128.773 -7.703 129.103 -7.023 129.443 C-7.023 130.103 -7.023 130.763 -7.023 131.443 C-8.343 131.113 -9.663 130.783 -11.023 130.443 C-11.023 131.103 -11.023 131.763 -11.023 132.443 C-10.363 132.773 -9.703 133.103 -9.023 133.443 C-9.597 137.314 -11.51 139.525 -14.023 142.443 C-12.703 142.773 -11.383 143.103 -10.023 143.443 C-10.353 143.773 -10.683 144.103 -11.023 144.443 C-10.033 145.103 -9.043 145.763 -8.023 146.443 C-8.426 146.587 -8.426 146.587 -10.461 147.318 C-13.023 149.443 -13.023 149.443 -13.508 151.658 C-13.645 153.413 -13.76 155.17 -13.855 156.927 C-14.063 160.043 -14.715 162.609 -16.023 165.443 C-17.013 165.773 -18.003 166.103 -19.023 166.443 C-19.023 165.123 -19.023 163.803 -19.023 162.443 C-19.101 160.567 -19.207 158.692 -19.336 156.818 C-19.394 155.856 -19.452 154.895 -19.512 153.904 C-20.023 151.443 -20.023 151.443 -23.023 149.443 C-23.353 169.903 -23.683 190.363 -24.023 211.443 C-26.426 207.84 -26.306 205.249 -26.284 201.088 C-26.288 200.333 -26.292 199.578 -26.296 198.8 C-26.306 196.262 -26.302 193.725 -26.298 191.187 C-26.302 189.37 -26.308 187.554 -26.313 185.737 C-26.327 180.794 -26.327 175.852 -26.325 170.909 C-26.324 166.782 -26.329 162.655 -26.334 158.527 C-26.345 148.784 -26.345 139.041 -26.339 129.298 C-26.333 119.257 -26.345 109.216 -26.367 99.175 C-26.384 90.551 -26.39 81.926 -26.387 73.302 C-26.385 68.153 -26.388 63.004 -26.402 57.855 C-26.414 53.007 -26.412 48.158 -26.399 43.31 C-26.397 41.535 -26.4 39.761 -26.408 37.987 C-26.506 15.324 -26.506 15.324 -19.836 8.068 C-19.306 7.462 -18.776 6.856 -18.23 6.232 C-12.645 1.704 -7.208 -0.16 0 0 Z M-15.023 34.443 C-15.353 35.103 -15.683 35.763 -16.023 36.443 C-15.363 36.443 -14.703 36.443 -14.023 36.443 C-14.353 35.783 -14.683 35.123 -15.023 34.443 Z " fill="#A5D127" transform="translate(64.0233154296875,90.55694580078125)"/>
<path d="M0 0 C0.382 0.001 0.382 0.001 2.315 0.007 C4.87 0.018 7.424 0.042 9.979 0.067 C11.813 0.078 13.646 0.087 15.479 0.096 C20.454 0.122 25.428 0.161 30.403 0.202 C35.603 0.242 40.803 0.271 46.002 0.302 C55.848 0.361 65.693 0.431 75.539 0.504 C86.748 0.587 97.957 0.658 109.166 0.729 C132.223 0.874 155.28 1.033 178.337 1.203 C179.337 3.203 179.337 3.203 179.337 6.203 C180.327 6.533 181.317 6.863 182.337 7.203 C182.337 8.193 182.337 9.183 182.337 10.203 C181.518 10.54 180.698 10.878 179.853 11.226 C178.775 11.672 177.698 12.118 176.587 12.578 C175.52 13.018 174.453 13.459 173.353 13.913 C170.962 14.936 168.644 16.005 166.337 17.203 C166.997 15.883 167.657 14.563 168.337 13.203 C168.007 12.873 167.677 12.543 167.337 12.203 C166.677 12.533 166.017 12.863 165.337 13.203 C164.712 15.265 164.712 15.265 164.337 17.203 C162.337 16.203 162.337 16.203 161.337 14.203 C158.367 15.193 155.397 16.183 152.337 17.203 C152.337 16.543 152.337 15.883 152.337 15.203 C150.337 14.203 150.337 14.203 147.962 14.703 C145.205 15.228 143.965 15.024 141.337 14.203 C139.672 13.862 138.006 13.527 136.337 13.203 C136.337 12.543 136.337 11.883 136.337 11.203 C135.708 11.378 135.708 11.378 132.525 12.265 C129.39 13.139 128.555 13.275 125.337 12.203 C123.513 12.98 123.513 12.98 121.65 14.14 C120.557 14.821 119.464 15.501 118.337 16.203 C120.212 12.328 120.212 12.328 121.337 11.203 C117.377 11.203 113.417 11.203 109.337 11.203 C109.337 11.863 109.337 12.523 109.337 13.203 C105.25 14.086 102.387 14.552 98.337 13.203 C97.347 13.533 96.357 13.863 95.337 14.203 C95.007 14.038 95.007 14.038 93.337 13.203 C93.337 12.543 93.337 11.883 93.337 11.203 C92.347 11.203 91.357 11.203 90.337 11.203 C90.337 10.213 90.337 9.223 90.337 8.203 C89.017 9.193 87.697 10.183 86.337 11.203 C86.337 10.543 86.337 9.883 86.337 9.203 C84.027 8.873 81.717 8.543 79.337 8.203 C78.677 9.523 78.017 10.843 77.337 12.203 C77.007 12.038 77.007 12.038 75.337 11.203 C73.004 11.162 70.67 11.159 68.337 11.203 C68.007 11.863 67.677 12.523 67.337 13.203 C67.337 12.543 67.337 11.883 67.337 11.203 C64.066 10.129 61.908 10.31 58.587 11.14 C57.788 11.335 56.989 11.529 56.166 11.73 C55.562 11.886 54.959 12.042 54.337 12.203 C54.337 11.213 54.337 10.223 54.337 9.203 C53.038 9.368 51.739 9.533 50.4 9.703 C38.714 10.995 38.714 10.995 33.337 9.203 C31.017 9.422 28.704 9.725 26.4 10.078 C25.174 10.261 23.948 10.444 22.685 10.632 C19.337 11.203 19.337 11.203 17.048 11.831 C14.471 12.39 12.731 11.195 10.337 10.203 C7.587 10.015 7.587 10.015 5.337 10.203 C5.007 10.533 4.677 10.863 4.337 11.203 C2.592 11.498 0.84 11.764 -0.913 12.015 C-5.506 12.808 -8.383 13.705 -11.663 17.203 C-11.993 17.863 -12.323 18.523 -12.663 19.203 C-13.323 19.203 -13.983 19.203 -14.663 19.203 C-14.333 20.193 -14.003 21.183 -13.663 22.203 C-15.313 22.533 -16.963 22.863 -18.663 23.203 C-18.333 22.543 -18.003 21.883 -17.663 21.203 C-18.653 21.203 -19.643 21.203 -20.663 21.203 C-21.323 21.203 -21.983 21.203 -22.663 21.203 C-22.993 22.523 -23.323 23.843 -23.663 25.203 C-24.858 19.625 -24.947 16.172 -22.1 11.16 C-16.261 3.21 -9.776 -0.134 0 0 Z " fill="#B0DA2E" transform="translate(63.66255187988281,90.79745483398438)"/>
<path d="M0 0 C0.33 0.165 0.33 0.165 2 1 C1.67 3.64 1.34 6.28 1 9 C0.34 9 -0.32 9 -1 9 C-1.206 9.722 -1.413 10.444 -1.625 11.188 C-3.961 15.965 -7.485 18.411 -12.375 20.312 C-13.241 20.539 -14.107 20.766 -15 21 C-14.01 22.32 -13.02 23.64 -12 25 C-15.595 27.397 -18.172 27.286 -22.324 27.267 C-22.699 27.27 -22.699 27.27 -24.601 27.281 C-27.128 27.294 -29.654 27.292 -32.18 27.291 C-33.989 27.297 -35.797 27.303 -37.606 27.311 C-42.525 27.329 -47.445 27.333 -52.365 27.335 C-56.472 27.336 -60.58 27.344 -64.687 27.351 C-74.382 27.367 -84.077 27.372 -93.772 27.371 C-103.767 27.369 -113.761 27.39 -123.756 27.422 C-132.339 27.448 -140.921 27.459 -149.504 27.458 C-154.629 27.457 -159.754 27.463 -164.879 27.484 C-169.704 27.503 -174.528 27.504 -179.353 27.489 C-181.119 27.487 -182.886 27.492 -184.653 27.504 C-195.867 27.576 -205.497 27.253 -214 19 C-215.875 16.375 -215.875 16.375 -217 14 C-216.67 13.34 -216.34 12.68 -216 12 C-214.35 12 -212.7 12 -211 12 C-211 12.66 -211 13.32 -211 14 C-210.484 13.979 -210.484 13.979 -207.875 13.875 C-204 14 -204 14 -201.25 15.062 C-197.321 16.196 -194.453 15.767 -190.434 15.293 C-183.313 14.685 -176.141 14.929 -169 15 C-169 15.66 -169 16.32 -169 17 C-168.483 16.997 -168.483 16.997 -165.864 16.984 C-160.993 16.962 -156.121 16.949 -151.25 16.938 C-150.807 16.936 -150.807 16.936 -148.563 16.93 C-137.388 16.903 -126.286 17.102 -115.125 17.688 C-104.914 18.2 -95.186 17.557 -85.077 16.03 C-84.117 15.886 -83.157 15.742 -82.168 15.594 C-81.752 15.525 -81.752 15.525 -79.645 15.178 C-77 15 -77 15 -73.892 15.459 C-68.758 16.173 -63.731 16.104 -58.555 16.062 C-57.467 16.059 -56.379 16.055 -55.258 16.051 C-51.797 16.039 -48.336 16.02 -44.875 16 C-40.31 15.973 -35.745 15.953 -31.18 15.938 C-30.657 15.933 -30.657 15.933 -28.01 15.912 C-27.032 15.909 -26.054 15.906 -25.046 15.902 C-24.618 15.9 -24.618 15.9 -22.452 15.886 C-20 16 -20 16 -17.353 16.549 C-14.245 17.145 -12.728 16.549 -10 15 C-9.316 13.675 -8.65 12.341 -8 11 C-7.196 10.587 -6.391 10.175 -5.562 9.75 C-1.781 7.167 -1.345 4.317 0 0 Z " fill="#649503" transform="translate(259,296)"/>
<path d="M0 0 C0.66 0 1.32 0 2 0 C2.094 24.6 2.164 49.2 2.207 73.801 C2.228 85.223 2.256 96.646 2.302 108.069 C2.342 118.027 2.367 127.985 2.376 137.943 C2.382 143.214 2.394 148.485 2.423 153.755 C2.45 158.721 2.458 163.687 2.452 168.653 C2.454 170.471 2.461 172.289 2.477 174.107 C2.581 186.993 1.332 196.808 -7.051 207.082 C-10.054 210.037 -13.111 211.431 -17 213 C-16.67 212.01 -16.34 211.02 -16 210 C-18.565 207.435 -20.477 207.46 -24 207 C-24 206.67 -24 206.34 -24 206 C-23.203 205.841 -22.407 205.683 -21.586 205.52 C-15.082 204.087 -10.575 202.936 -6 198 C-4.625 195.688 -4.625 195.688 -4 194 C-3.34 194 -2.68 194 -2 194 C-2 191.36 -2 188.72 -2 186 C-2.219 186.531 -2.438 187.062 -2.664 187.609 C-4.961 192.725 -7.019 195.139 -12 198 C-13.019 198.981 -14.024 199.977 -15 201 C-18.386 203.257 -19.065 202.968 -22.842 202.297 C-27.331 201.679 -31.888 201.901 -36.41 201.938 C-37.496 201.941 -38.581 201.945 -39.7 201.949 C-43.154 201.961 -46.608 201.98 -50.062 202 C-54.616 202.027 -59.169 202.047 -63.723 202.062 C-64.763 202.071 -65.804 202.079 -66.876 202.088 C-71.737 202.104 -76.203 201.838 -81 201 C-83.624 201.178 -83.624 201.178 -86.289 201.594 C-87.299 201.738 -88.31 201.882 -89.351 202.03 C-90.431 202.185 -91.512 202.34 -92.625 202.5 C-105.806 204.224 -118.532 203.89 -131.769 203.14 C-136.113 202.952 -140.446 202.982 -144.793 203.007 C-149.973 202.996 -155.139 202.75 -160.312 202.5 C-161.351 202.452 -162.389 202.405 -163.459 202.355 C-165.973 202.24 -168.486 202.121 -171 202 C-170.34 201.67 -169.68 201.34 -169 201 C-168.67 200.01 -168.34 199.02 -168 198 C-152 198 -152 198 -149.625 198.562 C-146.505 199.083 -144.092 198.592 -141 198 C-139.68 198 -138.36 198 -137 198 C-136.67 198.66 -136.34 199.32 -136 200 C-133.062 199.188 -133.062 199.188 -130 198 C-129.67 197.01 -129.34 196.02 -129 195 C-128.423 195.309 -127.845 195.619 -127.25 195.938 C-125.125 196.941 -123.277 197.464 -121 198 C-119.989 198.371 -118.979 198.743 -117.938 199.125 C-115 200 -115 200 -112 199 C-111.67 199.33 -111.34 199.66 -111 200 C-111 199.67 -111 199.34 -111 199 C-106.05 198.67 -101.1 198.34 -96 198 C-95.67 198.99 -95.34 199.98 -95 201 C-94.742 200.856 -94.742 200.856 -93.438 200.125 C-91 199 -91 199 -87.438 198 C-84 197 -84 197 -81 195 C-78.404 195.251 -77.235 195.783 -75.312 197.562 C-71.734 199.787 -68.109 199.237 -64 199 C-63.67 198.34 -63.34 197.68 -63 197 C-63 197.66 -63 198.32 -63 199 C-61.35 199.33 -59.7 199.66 -58 200 C-58 199.34 -58 198.68 -58 198 C-55.75 197.312 -55.75 197.312 -53 197 C-52.398 197.483 -51.796 197.967 -51.176 198.465 C-48.414 200.414 -46.782 200.341 -43.438 200.25 C-42.487 200.235 -41.537 200.219 -40.559 200.203 C-38 200 -38 200 -35 199 C-35 199.66 -35 200.32 -35 201 C-34.34 201 -33.68 201 -33 201 C-33 200.34 -33 199.68 -33 199 C-32.175 199.227 -31.35 199.454 -30.5 199.688 C-26.536 200.041 -24.475 199.278 -20.895 197.758 C-19 197 -19 197 -16.125 196.5 C-14 196 -14 196 -12 193 C-11.01 193 -10.02 193 -9 193 C-9 192.34 -9 191.68 -9 191 C-8.01 190.34 -7.02 189.68 -6 189 C-5.453 187.125 -5.453 187.125 -5.25 185 C-5.173 184.299 -5.095 183.597 -5.016 182.875 C-5 181 -5 181 -6 179 C-5.695 177.012 -5.695 177.012 -5.125 174.688 C-4.933 173.879 -4.741 173.071 -4.543 172.238 C-4.364 171.5 -4.185 170.761 -4 170 C-3.147 166.021 -2.553 162.031 -2 158 C-2.99 157.67 -3.98 157.34 -5 157 C-4.916 156.192 -4.832 155.384 -4.746 154.551 C-4.644 153.482 -4.542 152.414 -4.438 151.312 C-4.333 150.257 -4.229 149.201 -4.121 148.113 C-4 145 -4 145 -4.598 142.293 C-5 140 -5 140 -3 137 C-2.34 137 -1.68 137 -1 137 C-1 133.04 -1 129.08 -1 125 C-1.66 125 -2.32 125 -3 125 C-3.33 125.66 -3.66 126.32 -4 127 C-5.583 123.834 -5.303 120.457 -5 117 C-4.363 115.652 -3.704 114.314 -3 113 C-3.298 110.614 -3.9 109.157 -5.188 107.125 C-6.397 103.961 -5.278 102.026 -4 99 C-3.67 98.67 -3.34 98.34 -3 98 C-2.928 96.147 -2.916 94.292 -2.938 92.438 C-2.947 91.426 -2.956 90.414 -2.965 89.371 C-2.976 88.589 -2.988 87.806 -3 87 C-3.33 87.165 -3.33 87.165 -5 88 C-4.67 86.68 -4.34 85.36 -4 84 C-4.99 83.67 -5.98 83.34 -7 83 C-7 81.68 -7 80.36 -7 79 C-6.34 79 -5.68 79 -5 79 C-5.227 78.464 -5.454 77.928 -5.688 77.375 C-6 75 -6 75 -4.625 72.375 C-1.041 64.932 -1.861 56.103 -2 48 C-2.99 47.67 -3.98 47.34 -5 47 C-6.146 44.12 -6.003 41.773 -5.562 38.75 C-5.007 34.456 -4.921 30.328 -5 26 C-5.66 25.67 -5.66 25.67 -9 24 C-8.517 23.611 -8.033 23.221 -7.535 22.82 C-5.53 20.443 -5.574 18.955 -5.438 15.875 C-5.108 10.722 -4.232 6.011 -3 1 C-2.01 1.33 -1.02 1.66 0 2 C0 1.34 0 0.68 0 0 Z " fill="#84B312" transform="translate(262,111)"/>
<path d="M0 0 C1.027 -0.003 2.054 -0.006 3.113 -0.009 C4.234 -0.007 5.356 -0.004 6.511 -0.002 C7.697 -0.004 8.883 -0.006 10.105 -0.008 C13.358 -0.011 16.61 -0.011 19.863 -0.007 C23.281 -0.005 26.698 -0.007 30.116 -0.009 C35.867 -0.011 41.618 -0.008 47.369 -0.003 C53.982 0.002 60.594 0 67.207 -0.005 C72.906 -0.01 78.605 -0.01 84.304 -0.008 C87.697 -0.006 91.091 -0.006 94.484 -0.009 C120.109 -0.027 120.109 -0.027 131.143 0.919 C133.754 1.115 136.296 1.139 138.912 1.064 C142.91 0.996 146.135 1.841 149.912 3.127 C149.252 4.117 148.592 5.107 147.912 6.127 C146.262 5.467 144.612 4.807 142.912 4.127 C142.912 5.117 142.912 6.107 142.912 7.127 C142.166 7.056 141.42 6.984 140.651 6.91 C131.526 6.114 122.498 6.009 113.35 6.064 C111.901 6.07 110.453 6.074 109.004 6.078 C106.369 6.086 103.733 6.098 101.098 6.111 C98.703 6.123 96.308 6.127 93.912 6.127 C90.536 6.241 87.162 6.405 83.787 6.564 C82.868 6.604 81.949 6.643 81.002 6.684 C80.563 6.705 80.563 6.705 78.342 6.811 C77.54 6.847 76.738 6.884 75.912 6.922 C73.912 7.127 73.912 7.127 71.912 8.127 C71.912 7.137 71.912 6.147 71.912 5.127 C70.592 6.117 69.272 7.107 67.912 8.127 C67.912 7.467 67.912 6.807 67.912 6.127 C65.602 5.797 63.292 5.467 60.912 5.127 C60.252 6.447 59.592 7.767 58.912 9.127 C58.582 8.962 58.582 8.962 56.912 8.127 C54.579 8.087 52.245 8.084 49.912 8.127 C49.582 8.787 49.252 9.447 48.912 10.127 C48.912 9.467 48.912 8.807 48.912 8.127 C45.641 7.054 43.483 7.234 40.162 8.064 C39.363 8.259 38.564 8.454 37.741 8.654 C37.137 8.81 36.534 8.966 35.912 9.127 C35.912 8.137 35.912 7.147 35.912 6.127 C34.613 6.292 33.314 6.457 31.975 6.627 C20.289 7.919 20.289 7.919 14.912 6.127 C12.592 6.347 10.279 6.649 7.975 7.002 C6.749 7.185 5.523 7.368 4.26 7.557 C0.912 8.127 0.912 8.127 -1.377 8.756 C-3.954 9.315 -5.694 8.119 -8.088 7.127 C-10.838 6.939 -10.838 6.939 -13.088 7.127 C-13.418 7.457 -13.748 7.787 -14.088 8.127 C-15.834 8.423 -17.585 8.689 -19.338 8.939 C-23.931 9.733 -26.808 10.629 -30.088 14.127 C-30.418 14.787 -30.748 15.447 -31.088 16.127 C-31.748 16.127 -32.408 16.127 -33.088 16.127 C-32.758 17.117 -32.428 18.107 -32.088 19.127 C-33.738 19.457 -35.388 19.787 -37.088 20.127 C-36.758 19.137 -36.428 18.147 -36.088 17.127 C-36.191 16.219 -36.294 15.312 -36.4 14.377 C-35.949 9.682 -33.431 7.294 -30.088 4.127 C-29.812 3.847 -29.812 3.847 -28.416 2.428 C-24.924 0.477 -21.469 0.85 -17.588 1.002 C-9.512 1.235 -9.512 1.235 -7.158 0.635 C-4.711 0.035 -2.519 0.001 0 0 Z " fill="#BAE044" transform="translate(82.08760070800781,93.87301635742188)"/>
<path d="M0 0 C0.33 0 0.66 0 1 0 C1.33 4.29 1.66 8.58 2 13 C2.66 13 3.32 13 4 13 C4.498 15.718 4.994 18.437 5.484 21.156 C5.876 23.314 6.279 25.47 6.688 27.625 C6.791 28.409 6.894 29.192 7 30 C6.67 30.33 6.34 30.66 6 31 C5.968 33.946 6.068 36.88 6.16 39.824 C6 43 6 43 5.004 45.763 C3.895 49.338 3.757 52.235 3.77 55.973 C3.77 56.628 3.77 56.628 3.775 59.947 C3.782 60.623 3.788 61.299 3.794 61.995 C3.812 64.06 3.815 66.125 3.814 68.189 C3.859 78.343 3.859 78.343 4.573 81.677 C5.039 84.214 4.709 85.556 4 88 C3.91 89.495 3.869 90.994 3.867 92.492 C3.865 93.356 3.863 94.22 3.861 95.11 C3.866 96.022 3.87 96.935 3.875 97.875 C3.876 98.343 3.876 98.343 3.883 100.709 C4.01 119.362 4.01 119.362 5.598 125.195 C6 127 6 127 5 129.812 C3.8 133.639 4.38 136.071 5 140 C4.74 142.343 4.426 144.682 4 147 C4.66 147 5.32 147 6 147 C6.625 148.75 6.625 148.75 7 151 C6.341 152.337 5.673 153.67 5 155 C3.524 164.03 3.973 173.132 4.127 182.252 C4.191 189.436 3.81 196.032 2 203 C1.01 203.33 0.02 203.66 -1 204 C-1.33 203.01 -1.66 202.02 -2 201 C-2.66 201 -3.32 201 -4 201 C-4.248 201.619 -4.495 202.238 -4.75 202.875 C-6.22 205.375 -7.414 205.833 -10 207 C-9.59 206.348 -9.18 205.695 -8.758 205.023 C-8.219 204.149 -7.68 203.275 -7.125 202.375 C-6.858 201.946 -6.858 201.946 -5.508 199.773 C-2.561 194.354 -1.705 189.493 -1.728 183.385 C-1.723 182.638 -1.718 181.891 -1.713 181.122 C-1.698 178.63 -1.698 176.139 -1.697 173.647 C-1.689 171.856 -1.681 170.065 -1.671 168.274 C-1.653 164.423 -1.641 160.571 -1.634 156.719 C-1.622 150.626 -1.597 144.532 -1.57 138.439 C-1.528 128.797 -1.496 119.156 -1.467 109.515 C-1.416 92.257 -1.354 75 -1.282 57.742 C-1.257 51.688 -1.237 45.633 -1.222 39.579 C-1.212 35.808 -1.198 32.037 -1.183 28.267 C-1.177 26.522 -1.172 24.777 -1.17 23.033 C-1.166 20.645 -1.156 18.257 -1.145 15.869 C-1.145 15.184 -1.146 14.5 -1.146 13.794 C-1.115 9.114 -0.647 4.626 0 0 Z " fill="#D8CA98" transform="translate(265,110)"/>
<path d="M0 0 C0.25 6.625 0.25 6.625 -2 10 C-2.195 12.043 -2.195 12.043 -2.125 14.188 C-2.084 15.446 -2.043 16.704 -2 18 C-1.01 18 -0.02 18 1 18 C1 21.96 1 25.92 1 30 C0.34 30 -0.32 30 -1 30 C-2.125 36.75 -2.125 36.75 -1 39 C-1.087 40.879 -1.242 42.755 -1.438 44.625 C-1.539 45.628 -1.641 46.631 -1.746 47.664 C-1.83 48.435 -1.914 49.206 -2 50 C-1.34 50.33 -0.68 50.66 0 51 C0.195 57.084 0.319 62.271 -2 68 C-3.167 72.667 -3.167 72.667 -2 75 C-2.188 78.5 -2.188 78.5 -3 82 C-5.062 83.438 -5.062 83.438 -7 84 C-7 84.66 -7 85.32 -7 86 C-7.495 86.165 -7.495 86.165 -10 87 C-10.66 87.99 -11.32 88.98 -12 90 C-16.086 91.465 -19.66 92.263 -24 92 C-25.044 88.867 -24.934 88.01 -24 85 C-23.34 85 -22.68 85 -22 85 C-22.516 84.608 -23.031 84.216 -23.562 83.812 C-24.037 83.214 -24.511 82.616 -25 82 C-24.688 79.312 -24.688 79.312 -24 77 C-23.423 76.876 -22.845 76.752 -22.25 76.625 C-20 76 -20 76 -17.938 74.875 C-16 74 -16 74 -13 75 C-13 73.35 -13 71.7 -13 70 C-12.34 69.835 -12.34 69.835 -9 69 C-10.32 68.34 -11.64 67.68 -13 67 C-13 66.34 -13 65.68 -13 65 C-13.66 64.67 -14.32 64.34 -15 64 C-14.175 63.175 -14.175 63.175 -10 59 C-10.165 58.505 -10.165 58.505 -11 56 C-10.34 56 -9.68 56 -9 56 C-9 55.34 -9 54.68 -9 54 C-10.65 54 -12.3 54 -14 54 C-13.67 53.34 -13.34 52.68 -13 52 C-11.68 52 -10.36 52 -9 52 C-10 50 -10 50 -12 47 C-12 43.887 -11.826 41.892 -11 39 C-10.34 39 -9.68 39 -9 39 C-9 38.34 -9 37.68 -9 37 C-10.98 37 -12.96 37 -15 37 C-15 36.34 -15 35.68 -15 35 C-15.66 34.67 -16.32 34.34 -17 34 C-15.35 34 -13.7 34 -12 34 C-11.897 32.907 -11.794 31.814 -11.688 30.688 C-10.802 25.94 -10.802 25.94 -8 24 C-7.01 23.67 -6.02 23.34 -5 23 C-6.926 20.561 -8.801 18.199 -11 16 C-10.699 14.125 -10.699 14.125 -10 12 C-9.821 11.34 -9.642 10.68 -9.457 10 C-8.064 5.676 -5.505 0 0 0 Z " fill="#8FC20B" transform="translate(260,218)"/>
<path d="M0 0 C0.66 0.165 0.66 0.165 4 1 C3.34 1.33 3.34 1.33 0 3 C0 2.01 0 1.02 0 0 Z M-2 3 C-1 5 -1 5 -1 8 C-0.557 7.897 -0.557 7.897 1.688 7.375 C5.225 6.974 6.866 7.433 10 9 C9.67 11.31 9.34 13.62 9 16 C9.99 15.67 10.98 15.34 12 15 C12.165 15.33 12.165 15.33 13 17 C15.937 16.625 15.937 16.625 19 16 C19.33 15.34 19.66 14.68 20 14 C20.66 14 21.32 14 22 14 C20.544 17.84 18.718 19.31 15 21 C12.125 21.125 12.125 21.125 9 21 C6.662 21.302 4.327 21.628 2 22 C1.835 21.67 1.835 21.67 1 20 C0.42 20.072 -0.16 20.144 -0.758 20.219 C-4.355 20.646 -7.745 21.009 -11.375 20.875 C-14 21 -14 21 -15.875 22.5 C-16.246 22.995 -16.618 23.49 -17 24 C-17.165 23.67 -17.165 23.67 -18 22 C-18.99 22.33 -19.98 22.66 -21 23 C-23.882 23.046 -26.744 23.045 -29.625 23 C-34.576 22.948 -39.4 22.908 -44.312 23.625 C-48.164 24.017 -49.596 23.613 -53 22 C-55.326 21.619 -57.659 21.275 -60 21 C-60 20.34 -60 19.68 -60 19 C-60.763 19.227 -61.526 19.454 -62.312 19.688 C-63.199 19.791 -64.086 19.894 -65 20 C-66.812 18.562 -66.812 18.562 -68 17 C-67.67 16.01 -67.34 15.02 -67 14 C-66.01 14.33 -65.02 14.66 -64 15 C-64 15.66 -64 16.32 -64 17 C-62.68 16.34 -61.36 15.68 -60 15 C-59.464 15.66 -58.928 16.32 -58.375 17 C-56 19 -56 19 -53.188 19.5 C-48.936 18.833 -46.554 17.439 -43 15 C-42.67 14.01 -42.34 13.02 -42 12 C-41.67 12.99 -41.34 13.98 -41 15 C-40.01 15 -39.02 15 -38 15 C-37.67 14.01 -37.34 13.02 -37 12 C-35.02 11.67 -33.04 11.34 -31 11 C-30 14 -30 14 -30 15 C-29.34 15 -28.68 15 -28 15 C-28 14.01 -28 13.02 -28 12 C-27.34 12 -26.68 12 -26 12 C-26 12.99 -26 13.98 -26 15 C-25.34 13.35 -24.68 11.7 -24 10 C-23.072 10.041 -22.144 10.082 -21.188 10.125 C-18 10 -18 10 -15 8 C-15.165 7.67 -15.165 7.67 -16 6 C-13.188 4.875 -13.188 4.875 -10 4 C-9.01 4.66 -8.02 5.32 -7 6 C-5.35 5.01 -3.7 4.02 -2 3 Z " fill="#90C40C" transform="translate(108,289)"/>
<path d="M0 0 C0.371 0.155 0.371 0.155 2.25 0.938 C7.114 2.817 11.363 3.138 16.56 3.107 C16.943 3.107 16.943 3.107 18.878 3.105 C21.443 3.102 24.008 3.092 26.573 3.082 C28.411 3.078 30.249 3.075 32.087 3.072 C36.045 3.066 40.004 3.056 43.963 3.045 C50.219 3.026 56.475 3.017 62.73 3.009 C80.52 2.985 98.309 2.949 116.098 2.904 C125.923 2.88 135.747 2.862 145.571 2.852 C151.794 2.846 158.017 2.83 164.24 2.808 C168.105 2.796 171.971 2.793 175.837 2.792 C177.634 2.79 179.43 2.784 181.227 2.775 C183.674 2.763 186.12 2.763 188.567 2.766 C188.925 2.763 188.925 2.763 190.737 2.746 C194.393 2.765 195.867 2.911 199 5 C195.405 7.397 192.828 7.286 188.676 7.267 C188.301 7.27 188.301 7.27 186.399 7.281 C183.872 7.294 181.346 7.292 178.82 7.291 C177.011 7.297 175.203 7.303 173.394 7.311 C168.475 7.329 163.555 7.333 158.635 7.335 C154.528 7.336 150.42 7.344 146.313 7.351 C136.618 7.367 126.923 7.372 117.228 7.371 C107.233 7.369 97.239 7.39 87.244 7.422 C78.661 7.448 70.079 7.459 61.496 7.458 C56.371 7.457 51.246 7.463 46.121 7.484 C41.296 7.503 36.472 7.504 31.647 7.489 C29.881 7.487 28.114 7.492 26.347 7.504 C8.154 7.62 8.154 7.62 2 3 C1.34 2.01 0.68 1.02 0 0 Z " fill="#61850F" transform="translate(48,316)"/>
<path d="M0 0 C0.66 0 1.32 0 2 0 C2 16.17 2 32.34 2 49 C1.67 49.165 1.67 49.165 0 50 C-0.413 51.093 -0.825 52.186 -1.25 53.312 C-2.869 57.352 -5.246 58.81 -9 61 C-10.019 61.981 -11.024 62.977 -12 64 C-15.386 66.257 -16.065 65.968 -19.842 65.297 C-24.331 64.679 -28.888 64.901 -33.41 64.938 C-34.496 64.941 -35.581 64.945 -36.7 64.949 C-40.154 64.961 -43.608 64.98 -47.062 65 C-51.616 65.027 -56.169 65.047 -60.723 65.062 C-61.763 65.071 -62.804 65.079 -63.876 65.088 C-68.737 65.104 -73.203 64.838 -78 64 C-80.624 64.178 -80.624 64.178 -83.289 64.594 C-84.299 64.738 -85.31 64.882 -86.351 65.03 C-87.431 65.185 -88.512 65.34 -89.625 65.5 C-102.806 67.224 -115.532 66.89 -128.769 66.14 C-133.113 65.952 -137.446 65.982 -141.793 66.007 C-146.973 65.996 -152.139 65.75 -157.312 65.5 C-158.351 65.452 -159.389 65.405 -160.459 65.355 C-162.973 65.24 -165.486 65.121 -168 65 C-167.67 64.835 -167.67 64.835 -166 64 C-165.67 63.01 -165.34 62.02 -165 61 C-149 61 -149 61 -146.625 61.562 C-143.505 62.083 -141.092 61.592 -138 61 C-136.68 61 -135.36 61 -134 61 C-133.67 61.66 -133.34 62.32 -133 63 C-130.062 62.188 -130.062 62.188 -127 61 C-126.67 60.01 -126.34 59.02 -126 58 C-125.423 58.309 -124.845 58.619 -124.25 58.938 C-122.125 59.941 -120.277 60.464 -118 61 C-116.989 61.371 -115.979 61.743 -114.938 62.125 C-112 63 -112 63 -109 62 C-108.67 62.33 -108.34 62.66 -108 63 C-108 62.67 -108 62.34 -108 62 C-103.05 61.67 -98.1 61.34 -93 61 C-92.67 61.99 -92.34 62.98 -92 64 C-91.484 63.711 -90.969 63.423 -90.438 63.125 C-88 62 -88 62 -84.438 61 C-81 60 -81 60 -78 58 C-75.404 58.251 -74.235 58.783 -72.312 60.562 C-68.734 62.787 -65.109 62.237 -61 62 C-60.835 61.67 -60.835 61.67 -60 60 C-60 60.66 -60 61.32 -60 62 C-58.35 62.33 -56.7 62.66 -55 63 C-55 62.34 -55 61.68 -55 61 C-52.75 60.312 -52.75 60.312 -50 60 C-49.398 60.483 -48.796 60.967 -48.176 61.465 C-45.414 63.414 -43.782 63.341 -40.438 63.25 C-39.962 63.242 -39.962 63.242 -37.559 63.203 C-35 63 -35 63 -32 62 C-32 62.66 -32 63.32 -32 64 C-31.34 64 -30.68 64 -30 64 C-30 63.34 -30 62.68 -30 62 C-29.175 62.227 -28.35 62.454 -27.5 62.688 C-23.536 63.041 -21.475 62.278 -17.895 60.758 C-16 60 -16 60 -13.125 59.5 C-11 59 -11 59 -9 56 C-8.01 56 -7.02 56 -6 56 C-6 55.34 -6 54.68 -6 54 C-5.01 53.34 -4.02 52.68 -3 52 C-2.453 50.125 -2.453 50.125 -2.25 48 C-2.173 47.299 -2.095 46.597 -2.016 45.875 C-2 44 -2 44 -3 42 C-2.695 40.012 -2.695 40.012 -2.125 37.688 C-1.933 36.879 -1.741 36.071 -1.543 35.238 C-1.364 34.5 -1.185 33.761 -1 33 C-0.147 29.021 0.447 25.031 1 21 C0.01 20.67 -0.98 20.34 -2 20 C-1.916 19.192 -1.832 18.384 -1.746 17.551 C-1.644 16.482 -1.542 15.414 -1.438 14.312 C-1.333 13.257 -1.229 12.201 -1.121 11.113 C-1 8 -1 8 -1.598 5.293 C-2 3 -2 3 0 0 Z " fill="#79AD04" transform="translate(259,248)"/>
<path d="M0 0 C1.551 0.285 3.092 0.629 4.625 1 C9.105 1.969 12.46 1.685 17 1 C19.454 1.459 21.631 2.178 24 3 C24 3.66 24 4.32 24 5 C24.74 4.835 25.48 4.67 26.242 4.5 C32.589 3.656 38.96 3.962 45.352 4.039 C51.761 4.086 58.049 3.846 64.431 3.237 C71.074 2.624 77.063 3.253 83.582 4.66 C86 5 86 5 89 4 C90.556 3.984 92.114 4.032 93.668 4.121 C94.114 4.145 94.114 4.145 96.373 4.268 C96.837 4.296 96.837 4.296 99.188 4.438 C99.658 4.464 99.658 4.464 102.037 4.596 C104.358 4.725 106.679 4.86 109 5 C109 4.34 109 3.68 109 3 C109.309 2.976 109.309 2.976 110.871 2.852 C116.089 2.391 121.024 1.647 126.09 0.305 C128 0 128 0 131 1 C131 1.66 131 2.32 131 3 C136.843 4.243 141.267 3.573 147 2 C146.67 3.32 146.34 4.64 146 6 C143.271 6.196 140.542 6.382 137.812 6.562 C137.428 6.591 137.428 6.591 135.482 6.732 C132.227 6.942 129.428 7.086 126.215 6.438 C123.524 5.906 122.257 6.393 119.75 7.438 C112.372 10.104 105.262 8.98 97.59 8.227 C89.042 7.479 89.042 7.479 86 9 C85.67 8.835 85.67 8.835 84 8 C81.822 7.93 79.662 8.002 77.484 8.062 C75 8 75 8 72.34 7.504 C67.815 6.821 63.38 6.895 58.812 6.938 C57.911 6.942 57.009 6.947 56.08 6.951 C54.414 6.96 52.748 6.971 51.081 6.984 C48.365 7.005 45.65 6.996 42.934 6.965 C41.78 6.956 40.626 6.947 39.438 6.938 C38.859 6.932 38.859 6.932 35.934 6.902 C33 7 33 7 31 8 C29.323 7.721 27.654 7.392 26 7 C25.67 7.66 25.34 8.32 25 9 C21.938 9.625 21.938 9.625 19 10 C19 9.34 19 8.68 19 8 C17.845 8.144 16.69 8.289 15.5 8.438 C10.882 8.954 6.261 9.275 1.625 9.562 C0.923 9.606 0.221 9.65 -0.502 9.695 C-4.891 9.959 -9.124 10.048 -13.5 9.625 C-14.273 9.555 -15.047 9.486 -15.844 9.414 C-18 9 -18 9 -21 7 C-21 6.34 -21 5.68 -21 5 C-17.37 5.33 -13.74 5.66 -10 6 C-9.34 4.68 -8.68 3.36 -8 2 C-4.438 1.312 -4.438 1.312 -1 1 C-0.67 0.67 -0.34 0.34 0 0 Z " fill="#D8C999" transform="translate(96,331)"/>
<path d="M0 0 C1.98 0 3.96 0 6 0 C6 0.66 6 1.32 6 2 C6.516 1.979 6.516 1.979 9.125 1.875 C13 2 13 2 15.75 3.062 C19.679 4.196 22.547 3.767 26.566 3.293 C33.687 2.685 40.859 2.929 48 3 C48 3.66 48 4.32 48 5 C43.819 5.802 39.94 6.083 35.688 6 C30.356 5.951 25.28 6.284 20 7 C21.892 8.892 25.205 8.141 27.717 8.151 C28.072 8.154 28.072 8.154 29.87 8.164 C32.269 8.177 34.668 8.183 37.067 8.189 C38.78 8.197 40.493 8.206 42.206 8.215 C45.904 8.233 49.603 8.248 53.301 8.26 C59.15 8.281 65 8.308 70.849 8.337 C83.274 8.397 95.7 8.449 108.125 8.5 C121.517 8.555 134.909 8.612 148.301 8.678 C154.114 8.706 159.927 8.729 165.74 8.749 C169.362 8.763 172.984 8.78 176.606 8.799 C178.284 8.807 179.961 8.813 181.638 8.817 C183.933 8.823 186.227 8.835 188.521 8.849 C189.804 8.854 191.087 8.859 192.408 8.864 C196.002 9 199.452 9.426 203 10 C203 10.33 203 10.66 203 11 C178.314 11.201 153.627 11.384 128.94 11.547 C117.478 11.623 106.016 11.704 94.554 11.799 C84.565 11.882 74.576 11.954 64.587 12.013 C59.296 12.045 54.006 12.082 48.716 12.132 C43.738 12.179 38.76 12.211 33.782 12.233 C31.954 12.243 30.125 12.259 28.297 12.28 C25.803 12.308 23.309 12.318 20.814 12.323 C20.09 12.335 19.365 12.348 18.618 12.361 C14.19 12.345 11.611 11.529 8 9 C7.66 8.948 7.66 8.948 5.938 8.688 C2.695 7.537 1.644 4.877 0 2 C0 1.34 0 0.68 0 0 Z " fill="#709E11" transform="translate(42,308)"/>
<path d="M0 0 C0.33 0 0.66 0 1 0 C1.094 24.6 1.164 49.2 1.207 73.801 C1.228 85.223 1.256 96.646 1.302 108.069 C1.342 118.027 1.367 127.985 1.376 137.943 C1.382 143.214 1.394 148.485 1.423 153.755 C1.45 158.721 1.458 163.687 1.452 168.653 C1.454 170.471 1.461 172.289 1.477 174.107 C1.581 186.993 0.332 196.808 -8.051 207.082 C-11.054 210.037 -14.111 211.431 -18 213 C-17.67 212.01 -17.34 211.02 -17 210 C-19.565 207.435 -21.477 207.46 -25 207 C-25 206.67 -25 206.34 -25 206 C-24.203 205.841 -23.407 205.683 -22.586 205.52 C-16.082 204.087 -11.575 202.936 -7 198 C-5.625 195.688 -5.625 195.688 -5 194 C-4.34 194 -3.68 194 -3 194 C-2.67 167.27 -2.34 140.54 -2 113 C-1.67 113 -1.34 113 -1 113 C-0.67 75.71 -0.34 38.42 0 0 Z " fill="#8EA830" transform="translate(263,111)"/>
<path d="M0 0 C2.79 1.099 5.494 2.24 8.194 3.549 C12.042 5.192 15.681 5.428 19.827 5.399 C20.206 5.402 20.206 5.402 22.122 5.419 C24.643 5.437 27.164 5.435 29.685 5.432 C31.499 5.441 33.313 5.452 35.127 5.463 C40.039 5.491 44.952 5.5 49.865 5.506 C55.003 5.516 60.141 5.542 65.28 5.566 C75.005 5.61 84.729 5.638 94.455 5.661 C105.528 5.688 116.602 5.732 127.676 5.778 C150.45 5.871 173.225 5.942 196 6 C192.304 8.349 189.113 8.247 184.799 8.241 C184.073 8.242 183.347 8.244 182.599 8.246 C180.165 8.249 177.732 8.238 175.298 8.227 C173.553 8.226 171.809 8.227 170.065 8.228 C165.327 8.229 160.59 8.217 155.853 8.203 C150.903 8.19 145.953 8.189 141.003 8.187 C131.628 8.181 122.254 8.164 112.879 8.144 C102.207 8.122 91.535 8.111 80.863 8.101 C58.908 8.08 36.954 8.045 15 8 C15 8.66 15 9.32 15 10 C15.66 10 16.32 10 17 10 C17.248 10.784 17.495 11.567 17.75 12.375 C19.154 15.323 20.007 15.902 23 17 C23 17.66 23 18.32 23 19 C23.99 19.33 24.98 19.66 26 20 C25.67 20.66 25.34 21.32 25 22 C18.125 18.25 18.125 18.25 17 16 C15.339 15.641 13.671 15.311 12 15 C9.938 14.062 9.938 14.062 8 13 C7.278 12.67 6.556 12.34 5.812 12 C4 11 4 11 3 9 C2.96 7 2.957 5 3 3 C2.34 3 1.68 3 1 3 C0.67 3.99 0.34 4.98 0 6 C0 4.02 0 2.04 0 0 Z " fill="#BFB173" transform="translate(47,317)"/>
<path d="M0 0 C0.165 0.33 0.165 0.33 1 2 C7.27 2 13.54 2 20 2 C16.894 5.106 15.108 5.813 11 7 C11 6.34 11 5.68 11 5 C5.451 4.718 2.702 4.819 -2 8 C-2.66 7.67 -3.32 7.34 -4 7 C-6 6.96 -8 6.957 -10 7 C-10.165 6.505 -10.165 6.505 -11 4 C-11.66 4 -12.32 4 -13 4 C-13.66 5.65 -14.32 7.3 -15 9 C-15.165 8.505 -15.165 8.505 -16 6 C-17.98 5.67 -19.96 5.34 -22 5 C-22 5.99 -22 6.98 -22 8 C-22.99 7.835 -22.99 7.835 -28 7 C-28.66 8.32 -29.32 9.64 -30 11 C-30.66 9.02 -31.32 7.04 -32 5 C-32.351 5.392 -32.351 5.392 -34.125 7.375 C-37 10 -37 10 -40.188 11 C-43 12 -43 12 -44.25 14.5 C-44.498 15.325 -44.745 16.15 -45 17 C-45.66 17.66 -46.32 18.32 -47 19 C-48.32 19 -49.64 19 -51 19 C-51 18.34 -51 17.68 -51 17 C-50.01 16.34 -49.02 15.68 -48 15 C-48 14.01 -48 13.02 -48 12 C-47.34 12 -46.68 12 -46 12 C-45.752 11.402 -45.505 10.804 -45.25 10.188 C-43.772 7.601 -42.518 6.585 -40 5 C-37.238 4.305 -37.238 4.305 -34.312 3.875 C-29.086 3.086 -29.086 3.086 -28 2 C-21.029 2.686 -21.029 2.686 -18.043 3.598 C-15.471 4.104 -13.667 3.668 -11.125 3.062 C-7.331 2.226 -3.905 1.794 0 2 C0 1.34 0 0.68 0 0 Z " fill="#ADD82F" transform="translate(97,98)"/>
<path d="M0 0 C0.863 0.014 1.726 0.027 2.615 0.041 C4.216 0.067 5.816 0.099 7.416 0.14 C9.09 0.179 10.764 0.188 12.438 0.188 C14.002 0.339 15.564 0.507 17.125 0.688 C17.933 0.78 18.741 0.873 19.574 0.969 C20.189 1.041 20.804 1.113 21.438 1.188 C21.438 1.847 21.438 2.507 21.438 3.188 C20.834 3.236 20.231 3.285 19.609 3.336 C18.81 3.411 18.011 3.485 17.188 3.562 C16.399 3.632 15.61 3.702 14.797 3.773 C12.343 4.204 10.636 5.054 8.438 6.188 C6.771 6.226 5.104 6.233 3.438 6.188 C3.108 6.517 2.778 6.847 2.438 7.188 C0.692 7.483 -1.06 7.749 -2.812 8 C-7.406 8.793 -10.283 9.689 -13.562 13.188 C-13.892 13.847 -14.222 14.507 -14.562 15.188 C-15.222 15.188 -15.883 15.188 -16.562 15.188 C-16.233 16.177 -15.903 17.168 -15.562 18.188 C-17.212 18.517 -18.862 18.847 -20.562 19.188 C-20.233 18.198 -19.903 17.207 -19.562 16.188 C-19.666 15.28 -19.769 14.373 -19.875 13.438 C-19.424 8.743 -16.906 6.354 -13.562 3.188 C-13.033 2.628 -12.503 2.069 -11.957 1.492 C-8.128 -0.594 -4.28 -0.125 0 0 Z " fill="#BEE14E" transform="translate(65.5625,94.8125)"/>
<path d="M0 0 C0.99 0.33 1.98 0.66 3 1 C3.196 3.062 3.382 5.124 3.562 7.188 C3.667 8.336 3.771 9.485 3.879 10.668 C3.989 13.686 3.74 16.089 3 19 C3.66 19.33 4.32 19.66 5 20 C5.332 24.127 4.696 26.027 2.125 29.25 C1.591 29.936 1.058 30.622 0.508 31.328 C-1 33 -1 33 -3 34 C-3 33.34 -3 32.68 -3 32 C-3.66 32.165 -3.66 32.165 -7 33 C-6.34 31.02 -5.68 29.04 -5 27 C-5.66 26.67 -6.32 26.34 -7 26 C-5.35 25.67 -3.7 25.34 -2 25 C-3.65 24.67 -5.3 24.34 -7 24 C-7 23.67 -7 23.34 -7 23 C-5.35 22.67 -3.7 22.34 -2 22 C-2 21.34 -2 20.68 -2 20 C-2.639 19.897 -3.279 19.794 -3.938 19.688 C-4.618 19.461 -5.299 19.234 -6 19 C-6.33 18.01 -6.66 17.02 -7 16 C-6.341 15.608 -5.683 15.216 -5.004 14.812 C-3 13 -3 13 -2.715 10.625 C-2.788 9.759 -2.862 8.893 -2.938 8 C-3.315 3.382 -3.315 3.382 -1.504 1.188 C-1.008 0.796 -0.511 0.404 0 0 Z " fill="#94C60C" transform="translate(254,136)"/>
<path d="M0 0 C0.66 0 1.32 0 2 0 C3.672 8.441 4.311 16.529 4.25 25.125 C4.258 26.227 4.265 27.329 4.273 28.465 C4.257 35.21 3.619 41.448 2 48 C1.505 48.165 1.505 48.165 -1 49 C-1.165 48.505 -1.165 48.505 -2 46 C-2.66 46 -3.32 46 -4 46 C-4.248 46.619 -4.495 47.238 -4.75 47.875 C-6.22 50.375 -7.414 50.833 -10 52 C-9.795 51.674 -9.795 51.674 -8.758 50.023 C-5.94 45.453 -3.38 41.243 -2 36 C-1.34 36 -0.68 36 0 36 C0 24.12 0 12.24 0 0 Z " fill="#D8C998" transform="translate(265,265)"/>
<path d="M0 0 C0.66 0.33 1.32 0.66 2 1 C2.051 7.23 2.086 13.459 2.11 19.689 C2.12 21.809 2.134 23.93 2.151 26.05 C2.175 29.093 2.186 32.136 2.195 35.18 C2.206 36.132 2.216 37.084 2.227 38.065 C2.227 38.946 2.227 39.826 2.227 40.734 C2.231 41.511 2.236 42.288 2.241 43.089 C2 45 2 45 0 47 C-2 46 -2 46 -2.652 44.203 C-3.02 41.873 -2.902 40.078 -2.562 37.75 C-2.007 33.456 -1.921 29.328 -2 25 C-3.32 24.34 -4.64 23.68 -6 23 C-5.517 22.611 -5.033 22.221 -4.535 21.82 C-2.53 19.443 -2.574 17.955 -2.438 14.875 C-2.108 9.722 -1.232 5.011 0 0 Z " fill="#82B506" transform="translate(259,112)"/>
<path d="M0 0 C4.888 4.562 4.888 4.562 6 8 C5.625 11.25 5.625 11.25 5 14 C4.34 14 3.68 14 3 14 C1.803 20.32 0.724 26.608 0 33 C-2.763 33.597 -5.16 34 -8 34 C-8 32 -8 32 -6 30 C-6 29.34 -6 28.68 -6 28 C-4.68 28 -3.36 28 -2 28 C-2 27.093 -2 26.185 -2 25.25 C-2 22.833 -2 20.417 -2 18 C-2.312 14.375 -2.312 14.375 -3 11 C-3.99 10.34 -4.98 9.68 -6 9 C-4.188 6 -4.188 6 -2 3 C-1.01 3 -0.02 3 1 3 C0.67 2.01 0.34 1.02 0 0 Z " fill="#93C212" transform="translate(257,99)"/>
<path d="M0 0 C0.33 0.99 0.66 1.98 1 3 C1.66 2.34 2.32 1.68 3 1 C3.054 3.125 3.093 5.25 3.125 7.375 C3.148 8.558 3.171 9.742 3.195 10.961 C3 14 3 14 1 16 C0.281 18.318 -0.391 20.651 -1 23 C-1.33 22.01 -1.66 21.02 -2 20 C-2.557 20.268 -3.114 20.536 -3.688 20.812 C-4.451 20.874 -5.214 20.936 -6 21 C-8.625 18.562 -8.625 18.562 -11 16 C-11.66 16 -12.32 16 -13 16 C-12.67 15.01 -12.34 14.02 -12 13 C-11.618 13.093 -11.618 13.093 -9.688 13.562 C-7 14 -7 14 -4 13 C-4 12.34 -4 11.68 -4 11 C-3.34 11 -2.68 11 -2 11 C-2 10.01 -2 9.02 -2 8 C-3.32 7.34 -4.64 6.68 -6 6 C-4 4 -2 2 0 0 Z " fill="#8FC20A" transform="translate(257,195)"/>
<path d="M0 0 C2.473 1.93 2.982 2.946 4 6 C3.59 6.169 3.59 6.169 1.516 7.023 C0.438 7.469 -0.64 7.915 -1.75 8.375 C-2.817 8.816 -3.885 9.257 -4.984 9.711 C-7.376 10.733 -9.694 11.802 -12 13 C-11.34 11.68 -10.68 10.36 -10 9 C-10.33 8.67 -10.66 8.34 -11 8 C-11.66 8.33 -11.66 8.33 -15 10 C-15 9.01 -15 8.02 -15 7 C-16.98 7 -18.96 7 -21 7 C-21 6.34 -21 5.68 -21 5 C-19.68 5.33 -18.36 5.66 -17 6 C-17 5.01 -17 4.02 -17 3 C-15.02 3 -13.04 3 -11 3 C-12.32 2.67 -13.64 2.34 -15 2 C-15 1.34 -15 0.68 -15 0 C-10.132 -1.46 -4.91 -1.165 0 0 Z " fill="#B4DC3A" transform="translate(242,95)"/>
<path d="M0 0 C0.33 0 0.66 0 1 0 C1.598 7.534 0.242 11.79 -4 18 C-4.192 18.29 -4.192 18.29 -5.164 19.758 C-8.332 24.046 -12.22 25.983 -17 28 C-16.67 27.01 -16.34 26.02 -16 25 C-18.565 22.435 -20.477 22.46 -24 22 C-24 21.67 -24 21.34 -24 21 C-23.203 20.841 -22.407 20.683 -21.586 20.52 C-15.082 19.087 -10.575 17.936 -6 13 C-4.625 10.688 -4.625 10.688 -4 9 C-3.34 9 -2.68 9 -2 9 C-2 8.34 -2 7.68 -2 7 C-1.34 7 -0.68 7 0 7 C0 4.69 0 2.38 0 0 Z " fill="#7EA21E" transform="translate(262,296)"/>
<path d="M0 0 C0.634 0.163 1.269 0.326 1.923 0.494 C6.047 1.172 10.066 1.123 14.238 1.098 C15.119 1.096 16 1.095 16.907 1.093 C19.709 1.088 22.511 1.075 25.312 1.062 C27.217 1.057 29.121 1.053 31.025 1.049 C35.684 1.038 40.342 1.021 45 1 C45.165 1.495 45.165 1.495 46 4 C44.02 4.33 42.04 4.66 40 5 C40 4.34 40 3.68 40 3 C38.845 3.144 37.69 3.289 36.5 3.438 C31.882 3.954 27.261 4.275 22.625 4.562 C21.923 4.606 21.221 4.65 20.498 4.695 C16.109 4.959 11.876 5.048 7.5 4.625 C6.727 4.555 5.953 4.486 5.156 4.414 C3 4 3 4 0 2 C0 1.34 0 0.68 0 0 Z " fill="#E0D1A6" transform="translate(75,336)"/>
<path d="M0 0 C1.98 0 3.96 0 6 0 C6 0.66 6 1.32 6 2 C6.516 1.979 6.516 1.979 9.125 1.875 C13 2 13 2 15.75 3.062 C19.679 4.196 22.547 3.767 26.566 3.293 C33.687 2.685 40.859 2.929 48 3 C48 3.66 48 4.32 48 5 C43.819 5.802 39.94 6.083 35.688 6 C30.356 5.951 25.28 6.284 20 7 C20.33 7.66 20.66 8.32 21 9 C14.768 8.555 10.42 7.054 5 4 C4.34 3.67 3.68 3.34 3 3 C2.67 3.66 2.34 4.32 2 5 C1.34 3.35 0.68 1.7 0 0 Z " fill="#72A305" transform="translate(42,308)"/>
<path d="M0 0 C2.375 0.75 2.375 0.75 5 2 C5.281 2.646 5.562 3.292 5.852 3.957 C7.764 7.359 11.122 7.663 14.688 8.777 C17.689 10.364 17.95 11.861 19 15 C21.125 16.312 21.125 16.312 23 17 C23 17.66 23 18.32 23 19 C23.99 19.33 24.98 19.66 26 20 C25.67 20.66 25.34 21.32 25 22 C18.125 18.25 18.125 18.25 17 16 C15.339 15.641 13.671 15.311 12 15 C9.938 14.062 9.938 14.062 8 13 C7.278 12.67 6.556 12.34 5.812 12 C4 11 4 11 3 9 C2.96 7 2.957 5 3 3 C2.34 3 1.68 3 1 3 C0.67 3.99 0.34 4.98 0 6 C0 4.02 0 2.04 0 0 Z " fill="#D4C594" transform="translate(47,317)"/>
<path d="M0 0 C0.33 0 0.66 0 1 0 C1.33 4.29 1.66 8.58 2 13 C2.66 13 3.32 13 4 13 C4.498 15.718 4.994 18.437 5.484 21.156 C5.876 23.314 6.279 25.47 6.688 27.625 C6.791 28.409 6.894 29.192 7 30 C6.67 30.33 6.34 30.66 6 31 C5.928 33.02 5.916 35.042 5.938 37.062 C5.947 38.167 5.956 39.272 5.965 40.41 C5.976 41.265 5.988 42.119 6 43 C5.505 43.165 5.505 43.165 3 44 C2.34 34.43 1.68 24.86 1 15 C0.67 15.165 0.67 15.165 -1 16 C-0.67 10.72 -0.34 5.44 0 0 Z " fill="#E4D6AE" transform="translate(265,110)"/>
<path d="M0 0 C4.672 0.482 9.367 0.362 14.058 0.339 C15.157 0.337 16.255 0.336 17.387 0.335 C20.871 0.329 24.356 0.316 27.84 0.304 C30.212 0.299 32.585 0.294 34.957 0.29 C40.751 0.279 46.545 0.262 52.34 0.241 C52.505 0.571 52.505 0.571 53.34 2.241 C27.93 2.241 2.52 2.241 -23.66 2.241 C-23.66 1.911 -23.66 1.581 -23.66 1.241 C-20.828 0.875 -17.995 0.523 -15.16 0.179 C-14.369 0.075 -13.577 -0.029 -12.762 -0.136 C-11.976 -0.229 -11.189 -0.323 -10.379 -0.419 C-9.667 -0.508 -8.955 -0.597 -8.221 -0.689 C-5.416 -0.765 -2.774 -0.378 0 0 Z " fill="#6FA302" transform="translate(186.6602783203125,311.75877380371094)"/>
<path d="M0 0 C2.562 0.438 2.562 0.438 4.312 2.438 C7.418 5.198 9.717 4.76 13.734 4.578 C14.036 4.555 14.036 4.555 15.562 4.438 C15.892 3.777 16.222 3.118 16.562 2.438 C16.562 3.098 16.562 3.757 16.562 4.438 C17.387 4.603 17.387 4.603 21.562 5.438 C21.562 4.777 21.562 4.118 21.562 3.438 C23.213 3.108 24.863 2.777 26.562 2.438 C27.222 3.757 27.882 5.077 28.562 6.438 C17.444 7.541 6.657 7.917 -4.438 6.438 C-4.768 5.447 -5.097 4.457 -5.438 3.438 C-3.699 1.241 -2.8 0.503 0 0 Z " fill="#80B605" transform="translate(182.4375,305.5625)"/>
<path d="M0 0 C0 0.99 0 1.98 0 3 C-3.6 4.385 -6.804 5.116 -10.625 5.375 C-13.967 5.673 -14.774 5.808 -17.438 8.062 C-17.953 8.702 -18.469 9.341 -19 10 C-19.66 10 -20.32 10 -21 10 C-21.33 10.99 -21.66 11.98 -22 13 C-22.66 13 -23.32 13 -24 13 C-24 12.34 -24 11.68 -24 11 C-23.34 11 -22.68 11 -22 11 C-21.773 10.464 -21.546 9.927 -21.312 9.375 C-19.262 5.664 -16.945 1.825 -12.938 0.125 C-10.962 -0.002 -8.98 0 -7 0 C-6.134 -0.186 -5.267 -0.371 -4.375 -0.562 C-2 -1 -2 -1 0 0 Z " fill="#A6D422" transform="translate(202,102)"/>
<path d="M0 0 C1.986 0.293 3.971 0.586 5.957 0.879 C8 1 8 1 11 0 C11.33 2.31 11.66 4.62 12 7 C11.01 7.66 10.02 8.32 9 9 C9 7.35 9 5.7 9 4 C7.187 4.114 5.374 4.241 3.562 4.375 C2.553 4.445 1.544 4.514 0.504 4.586 C-0.322 4.723 -1.149 4.859 -2 5 C-2.33 5.66 -2.66 6.32 -3 7 C-5.64 6.34 -8.28 5.68 -11 5 C-11 4.34 -11 3.68 -11 3 C-3.25 2 -3.25 2 -1 2 C-0.67 1.34 -0.34 0.68 0 0 Z " fill="#ADD82C" transform="translate(143,99)"/>
<path d="M0 0 C0.66 1.32 1.32 2.64 2 4 C1.336 4.098 0.672 4.196 -0.012 4.297 C-5.345 5.2 -9.099 5.973 -13 10 C-13.33 10.66 -13.66 11.32 -14 12 C-14.66 12 -15.32 12 -16 12 C-15.67 12.99 -15.34 13.98 -15 15 C-16.65 15.33 -18.3 15.66 -20 16 C-19.67 15.01 -19.34 14.02 -19 13 C-18.961 11 -18.956 9 -19 7 C-18.67 7.99 -18.34 8.98 -18 10 C-17.381 9.34 -16.763 8.68 -16.125 8 C-14 6 -14 6 -12 6 C-12 5.34 -12 4.68 -12 4 C-8.1 1.4 -4.526 1.849 0 2 C0 1.34 0 0.68 0 0 Z " fill="#BADF48" transform="translate(65,98)"/>
<path d="M0 0 C1.551 0.285 3.092 0.629 4.625 1 C9.105 1.969 12.46 1.685 17 1 C19.454 1.459 21.631 2.178 24 3 C20.936 5.042 20.375 5.256 16.938 5.188 C16.142 5.172 15.347 5.157 14.527 5.141 C12 5 9.513 4.735 7 4.438 C2.154 3.891 -2.181 4.301 -7 5 C-7.33 4.01 -7.66 3.02 -8 2 C-6.866 1.856 -5.731 1.711 -4.562 1.562 C-1 1 -1 1 0 0 Z " fill="#CFBF8B" transform="translate(96,331)"/>
<path d="M0 0 C0 0.99 0 1.98 0 3 C-1.65 3.495 -1.65 3.495 -10 6 C-10 6.66 -10 7.32 -10 8 C-10.66 8 -11.32 8 -12 8 C-12.66 9.32 -13.32 10.64 -14 12 C-14.66 12 -15.32 12 -16 12 C-16.438 9.875 -16.438 9.875 -16 7 C-11.24 1.651 -7.166 -0.159 0 0 Z " fill="#C5E561" transform="translate(63,96)"/>
<path d="M0 0 C0.639 0.351 1.279 0.701 1.938 1.062 C5.238 2.563 8.404 2.12 12 2 C10 4 10 4 6.227 4.125 C3.916 4.077 1.607 3.999 -0.703 3.922 C-7.75 3.776 -7.75 3.776 -11 6 C-11.33 4.35 -11.66 2.7 -12 1 C-7.659 -1.236 -4.725 -1.031 0 0 Z " fill="#B5DB3E" transform="translate(63,92)"/>
<path d="M0 0 C0.99 0.33 1.98 0.66 3 1 C3.33 0.67 3.66 0.34 4 0 C6.062 0.438 6.062 0.438 8 1 C7.216 1.598 6.433 2.196 5.625 2.812 C3 5 3 5 1 8 C-3.128 7.393 -6.332 5.962 -10 4 C-9.67 3.34 -9.34 2.68 -9 2 C-8.443 2.021 -8.443 2.021 -5.625 2.125 C-2 2 -2 2 0 0 Z " fill="#9CCD15" transform="translate(91,108)"/>
<path d="M0 0 C-0.33 0.99 -0.66 1.98 -1 3 C-3.374 3.365 -5.748 3.718 -8.125 4.062 C-8.79 4.166 -9.455 4.27 -10.141 4.377 C-14.341 4.974 -17.861 4.922 -22 4 C-22 3.34 -22 2.68 -22 2 C-21.359 1.951 -20.719 1.902 -20.059 1.852 C-15.915 1.493 -12.194 1.057 -8.188 -0.125 C-4.92 -1.022 -3.2 -0.97 0 0 Z " fill="#CFC08C" transform="translate(227,332)"/>
<path d="M0 0 C1.375 4.863 1.047 9.708 0.961 14.713 C0.919 18.657 1.189 22.125 2 26 C1.062 28.312 1.062 28.312 0 30 C-0.33 30 -0.66 30 -1 30 C-1.025 25.888 -1.043 21.777 -1.055 17.665 C-1.06 16.265 -1.067 14.865 -1.075 13.466 C-1.088 11.458 -1.093 9.449 -1.098 7.441 C-1.103 6.232 -1.108 5.022 -1.114 3.776 C-1 1 -1 1 0 0 Z " fill="#DED0A2" transform="translate(268,168)"/>
<path d="M0 0 C0.273 0.144 0.273 0.144 1.656 0.875 C4.224 2.107 6.814 3.055 9.5 4 C12.791 5.157 15.914 6.37 19 8 C17.104 8.054 15.209 8.093 13.312 8.125 C12.257 8.148 11.201 8.171 10.113 8.195 C6.92 7.995 4.805 7.523 2 6 C0.688 2.875 0.688 2.875 0 0 Z " fill="#7BA614" transform="translate(44,310)"/>
<path d="M0 0 C4.128 0.607 7.332 2.038 11 4 C10.34 5.32 9.68 6.64 9 8 C7.68 7.67 6.36 7.34 5 7 C5.33 7.99 5.66 8.98 6 10 C4.35 10 2.7 10 1 10 C0.67 8.35 0.34 6.7 0 5 C0.99 4.34 1.98 3.68 3 3 C3 3.66 3 4.32 3 5 C4.65 4.67 6.3 4.34 8 4 C7.422 3.897 6.845 3.794 6.25 3.688 C3.68 2.902 2.063 1.695 0 0 Z " fill="#A1D21D" transform="translate(78,115)"/>
<path d="M0 0 C0.289 0.155 0.289 0.155 1.75 0.938 C5.353 2.639 9.104 3.242 13 4 C13 4.66 13 5.32 13 6 C6.4 6 -0.2 6 -7 6 C-6.67 5.34 -6.34 4.68 -6 4 C-3.438 3.375 -3.438 3.375 -1 3 C-0.67 2.01 -0.34 1.02 0 0 Z " fill="#82B606" transform="translate(133,306)"/>
<path d="M0 0 C0 0.99 0 1.98 0 3 C1.485 2.835 1.485 2.835 9 2 C4.752 4.124 1.832 4.238 -2.75 4.125 C-3.447 4.116 -4.145 4.107 -4.863 4.098 C-6.576 4.074 -8.288 4.038 -10 4 C-10.33 3.34 -10.66 2.68 -11 2 C-7.17 0.198 -4.219 -0.196 0 0 Z " fill="#83B705" transform="translate(82,308)"/>
<path d="M0 0 C0.99 0.99 1.98 1.98 3 3 C2.67 3.495 2.67 3.495 1 6 C1.66 6.33 2.32 6.66 3 7 C1.71 8.376 0.373 9.708 -1 11 C-1.66 11 -2.32 11 -3 11 C-3.66 8.03 -4.32 5.06 -5 2 C-4.175 2.33 -4.175 2.33 0 4 C0 2.68 0 1.36 0 0 Z " fill="#92C60D" transform="translate(177,297)"/>
<path d="M0 0 C1.784 3.062 2.229 5.221 2.125 8.75 C2.107 9.549 2.089 10.348 2.07 11.172 C2.059 11.474 2.059 11.474 2 13 C1.34 12.01 0.68 11.02 0 10 C-0.66 10 -1.32 10 -2 10 C-2.248 10.619 -2.495 11.238 -2.75 11.875 C-4.22 14.375 -5.414 14.833 -8 16 C-7.59 15.348 -7.18 14.695 -6.758 14.023 C-3.94 9.453 -1.38 5.243 0 0 Z " fill="#D0C28B" transform="translate(263,301)"/>
<path d="M0 0 C0.66 0.33 1.32 0.66 2 1 C1.67 3.64 1.34 6.28 1 9 C0.34 9 -0.32 9 -1 9 C-1.33 9.66 -1.66 10.32 -2 11 C-4.375 12.688 -4.375 12.688 -7 14 C-7.99 13.67 -8.98 13.34 -10 13 C-8.907 12.34 -7.814 11.68 -6.688 11 C-2.4 7.989 -1.426 4.948 0 0 Z " fill="#6FA204" transform="translate(259,296)"/>
<path d="M0 0 C0.825 0.33 0.825 0.33 5 2 C4.67 3.98 4.34 5.96 4 8 C4.66 8 5.32 8 6 8 C6.433 8.474 6.866 8.949 7.312 9.438 C9.447 11.414 11.163 11.617 14 12 C14 12.33 14 12.66 14 13 C10.094 13.178 7.311 13.207 4 11 C2.646 8.291 2.935 5.991 3 3 C2.34 3 1.68 3 1 3 C0.67 3.99 0.34 4.98 0 6 C0 4.02 0 2.04 0 0 Z " fill="#D7CA9B" transform="translate(47,317)"/>
<path d="M0 0 C0.66 0.66 1.32 1.32 2 2 C4.303 3.535 6.179 4.584 8.688 5.625 C9.234 5.852 9.234 5.852 12 7 C12 7.33 12 7.66 12 8 C5.25 8.125 5.25 8.125 3 7 C3 6.34 3 5.68 3 5 C1.68 5 0.36 5 -1 5 C-0.67 3.35 -0.34 1.7 0 0 Z " fill="#C9BA84" transform="translate(52,320)"/>
<path d="M0 0 C1.65 0.33 3.3 0.66 5 1 C5 1.66 5 2.32 5 3 C9.62 3 14.24 3 19 3 C19 3.33 19 3.66 19 4 C16.794 4.251 14.585 4.475 12.375 4.688 C11.145 4.815 9.915 4.943 8.648 5.074 C4.619 4.992 2.424 4.049 -1 2 C-0.67 1.34 -0.34 0.68 0 0 Z " fill="#BAAB70" transform="translate(54,321)"/>
<path d="M0 0 C0.99 0 1.98 0 3 0 C3.868 2.43 4.209 3.538 3.125 5.938 C2.754 6.618 2.382 7.299 2 8 C1.623 9.657 1.279 11.323 1 13 C0.67 13 0.34 13 0 13 C-0.195 11.209 -0.381 9.417 -0.562 7.625 C-0.667 6.627 -0.771 5.63 -0.879 4.602 C-1 2 -1 2 0 0 Z " fill="#E1D3A7" transform="translate(268,257)"/>
<path d="M0 0 C0.371 0.155 0.371 0.155 2.25 0.938 C7.035 2.786 10.827 3.099 16 3 C15.67 3.66 15.34 4.32 15 5 C11.1 6.207 9.163 6.054 5.25 4.75 C2 3 2 3 0 0 Z " fill="#6B8B13" transform="translate(48,316)"/>
<path d="M0 0 C0.495 0.536 0.99 1.073 1.5 1.625 C-4.986 4.131 -4.986 4.131 -8.5 2.625 C-9.16 1.965 -9.82 1.305 -10.5 0.625 C-3.115 -1.713 -3.115 -1.713 0 0 Z " fill="#A9D726" transform="translate(213.5,102.375)"/>
<path d="M0 0 C0.362 0.097 0.362 0.097 2.195 0.59 C2.75 0.746 3.304 0.902 3.875 1.062 C3.545 1.722 3.215 2.382 2.875 3.062 C-0.095 3.062 -3.065 3.062 -6.125 3.062 C-6.125 2.073 -6.125 1.082 -6.125 0.062 C-3.578 -1.211 -2.697 -0.739 0 0 Z " fill="#BFE24B" transform="translate(164.125,95.9375)"/>
<path d="M0 0 C-0.188 1.875 -0.188 1.875 -1 4 C-3.562 5.25 -3.562 5.25 -6 6 C-5.67 5.01 -5.34 4.02 -5 3 C-5.66 2.34 -6.32 1.68 -7 1 C-3.375 -1.125 -3.375 -1.125 0 0 Z " fill="#869E33" transform="translate(251,318)"/>
<path d="M0 0 C4.548 -0.178 7.879 0.002 12 2 C11.67 2.66 11.34 3.32 11 4 C7.051 3.449 3.651 2.611 0 1 C0 0.67 0 0.34 0 0 Z " fill="#79AA04" transform="translate(48,310)"/>
<path d="M0 0 C0.33 0.66 0.66 1.32 1 2 C-1.312 4.062 -1.312 4.062 -4 6 C-4.99 5.67 -5.98 5.34 -7 5 C-6.67 4.01 -6.34 3.02 -6 2 C-6.66 1.67 -7.32 1.34 -8 1 C-5.36 0.67 -2.72 0.34 0 0 Z " fill="#A7D627" transform="translate(52,289)"/>
<path d="M0 0 C4.29 0 8.58 0 13 0 C13 0.99 13 1.98 13 3 C12.34 2.67 11.68 2.34 11 2 C8.667 1.96 6.333 1.957 4 2 C3.67 2.66 3.34 3.32 3 4 C3 3.34 3 2.68 3 2 C2.01 1.67 1.02 1.34 0 1 C0 0.67 0 0.34 0 0 Z " fill="#B2DC34" transform="translate(128,100)"/>
<path d="M0 0 C-1.098 2.993 -1.677 3.846 -4.625 5.25 C-5.409 5.498 -6.192 5.745 -7 6 C-7.33 5.01 -7.66 4.02 -8 3 C-5.534 -0.115 -3.892 -0.316 0 0 Z " fill="#89BE07" transform="translate(185,306)"/>
<path d="M0 0 C0.33 0.66 0.66 1.32 1 2 C1.66 2.33 2.32 2.66 3 3 C2.34 3.619 1.68 4.237 1 4.875 C-1 7 -1 7 -1 9 C-1.66 9 -2.32 9 -3 9 C-3.33 7.02 -3.66 5.04 -4 3 C-3.34 3 -2.68 3 -2 3 C-1.34 2.01 -0.68 1.02 0 0 Z " fill="#A0D218" transform="translate(162,123)"/>
<path d="M0 0 C0.99 0.165 0.99 0.165 6 1 C5.34 1.33 5.34 1.33 2 3 C2 3.99 2 4.98 2 6 C0.68 5.67 -0.64 5.34 -2 5 C-1.34 3.35 -0.68 1.7 0 0 Z " fill="#9FD218" transform="translate(169,163)"/>
<path d="M0 0 C0.825 0.33 0.825 0.33 5 2 C4.67 2.66 4.34 3.32 4 4 C3.01 3.34 2.02 2.68 1 2 C0.34 3.65 -0.32 5.3 -1 7 C-1.66 6.67 -2.32 6.34 -3 6 C-1.125 1.125 -1.125 1.125 0 0 Z " fill="#9ECD1D" transform="translate(254,100)"/>
<path d="M0 0 C1.65 0 3.3 0 5 0 C3.68 0.33 2.36 0.66 1 1 C1 2.65 1 4.3 1 6 C-0.98 6.66 -2.96 7.32 -5 8 C-4.773 7.804 -4.773 7.804 -3.625 6.812 C-1.724 4.692 -0.938 2.67 0 0 Z " fill="#A2D21D" transform="translate(110,146)"/>
<path d="M0 0 C0.825 0.165 0.825 0.165 5 1 C4.34 2.98 3.68 4.96 3 7 C2.34 6.67 1.68 6.34 1 6 C0.375 2.938 0.375 2.938 0 0 Z " fill="#A8D625" transform="translate(75,103)"/>
<path d="M0 0 C0.66 0.99 1.32 1.98 2 3 C0.02 5.31 -1.96 7.62 -4 10 C-4.66 9.67 -5.32 9.34 -6 9 C-5.691 8.629 -5.691 8.629 -4.125 6.75 C-2.396 4.512 -1.139 2.563 0 0 Z " fill="#C2B877" transform="translate(261,307)"/>
<path d="M0 0 C0.33 0 0.66 0 1 0 C0.414 6.152 0.414 6.152 0 8 C-0.33 8.165 -0.33 8.165 -2 9 C-2.688 6.75 -2.688 6.75 -3 4 C-1.625 1.688 -1.625 1.688 0 0 Z " fill="#8CBF09" transform="translate(258,113)"/>
<path d="M0 0 C1.875 0.25 1.875 0.25 4 1 C5.25 3.062 5.25 3.062 6 5 C5.01 5.33 4.02 5.66 3 6 C1.5 4.688 1.5 4.688 0 3 C0 2.01 0 1.02 0 0 Z " fill="#85B20E" transform="translate(40,303)"/>
<path d="M0 0 C1.32 0 2.64 0 4 0 C4.33 1.32 4.66 2.64 5 4 C4.505 4.33 4.505 4.33 2 6 C1.34 5.67 0.68 5.34 0 5 C0 3.35 0 1.7 0 0 Z " fill="#A0CE1E" transform="translate(68,104)"/>
<path d="M0 0 C0.66 1.32 1.32 2.64 2 4 C-0.64 4.33 -3.28 4.66 -6 5 C-6 4.01 -6 3.02 -6 2 C-4.02 2 -2.04 2 0 2 C0 1.34 0 0.68 0 0 Z " fill="#B6DB43" transform="translate(65,98)"/>
<path d="M0 0 C1.98 0 3.96 0 6 0 C5.67 1.32 5.34 2.64 5 4 C3.062 3.688 3.062 3.688 1 3 C0.67 2.01 0.34 1.02 0 0 Z " fill="#7EB304" transform="translate(119,309)"/>
<path d="M0 0 C0.495 0.33 0.495 0.33 3 2 C5.188 1.625 5.188 1.625 7 1 C5.68 2.32 4.36 3.64 3 5 C1.68 4.34 0.36 3.68 -1 3 C-0.67 2.01 -0.34 1.02 0 0 Z " fill="#A0D31A" transform="translate(142,169)"/>
</svg>
