<?xml version="1.0" encoding="UTF-8"?>
<!-- Generator: visioncortex VTracer 0.6.12 -->
<svg version="1.1" xmlns="http://www.w3.org/2000/svg" width="207" height="255">
<path d="M0 0 C68.31 0 136.62 0 207 0 C207 84.15 207 168.3 207 255 C138.69 255 70.38 255 0 255 C0 170.85 0 86.7 0 0 Z " fill="#FCF5DA" transform="translate(0,0)"/>
<path d="M0 0 C0.742 0.002 1.483 0.004 2.247 0.006 C23.256 0.092 42.525 2.842 58.75 17.438 C68.477 27.707 69.932 40.513 70.75 53.938 C70.799 54.725 70.847 55.513 70.898 56.324 C71.315 64.882 70.439 72.371 67.242 80.363 C66.432 82.831 65.98 84.709 66.062 87.312 C67.522 89.826 69.245 91.815 71.176 93.984 C74.174 97.684 75.557 101.842 77.062 106.312 C77.475 107.509 77.887 108.705 78.312 109.938 C78.56 110.721 78.808 111.505 79.062 112.312 C80.053 112.312 81.042 112.312 82.062 112.312 C82.598 114.831 83.116 117.351 83.625 119.875 C83.701 120.227 83.701 120.227 84.084 122.01 C85.03 126.784 85.011 130.533 84.062 135.312 C84.722 135.312 85.382 135.312 86.062 135.312 C85.387 139.344 84.167 142.944 82.688 146.75 C82.477 147.296 82.477 147.296 81.414 150.059 C79.424 154.851 77.356 159.287 74.062 163.312 C73.653 163.814 73.243 164.315 72.82 164.832 C69.972 168.242 66.998 171.53 63.938 174.75 C63.296 175.429 62.654 176.109 61.992 176.809 C60.062 178.312 60.062 178.312 56.062 178.312 C53.13 179.186 50.326 180.203 47.5 181.375 C45.062 182.312 45.062 182.312 42.5 182.812 C40.06 183.313 38.229 184.109 36.062 185.312 C36.062 184.653 36.062 183.993 36.062 183.312 C35.338 183.624 34.614 183.936 33.867 184.258 C25.872 187.477 25.872 187.477 21.375 186.562 C20.612 186.15 19.849 185.738 19.062 185.312 C18.403 186.303 17.743 187.292 17.062 188.312 C16.205 188.18 15.348 188.047 14.465 187.91 C13.893 187.822 13.893 187.822 11 187.375 C9.81 187.191 8.62 187.006 7.395 186.816 C4.996 186.454 2.593 186.123 0.188 185.812 C-2.938 185.312 -2.938 185.312 -6.625 184.188 C-9.898 183.323 -10.877 183.292 -13.938 184.312 C-17.64 184.8 -18.912 184.327 -22.25 182.438 C-23.137 181.736 -24.024 181.035 -24.938 180.312 C-24.938 179.653 -24.938 178.993 -24.938 178.312 C-26.154 178.168 -27.371 178.024 -28.625 177.875 C-31.764 177.485 -34.845 176.989 -37.938 176.312 C-38.267 174.993 -38.597 173.673 -38.938 172.312 C-39.597 172.312 -40.258 172.312 -40.938 172.312 C-40.938 171.322 -40.938 170.333 -40.938 169.312 C-41.597 169.312 -42.258 169.312 -42.938 169.312 C-43.185 168.673 -43.432 168.034 -43.688 167.375 C-45.06 164.012 -46.539 160.707 -48.035 157.398 C-49.62 153.736 -50.067 150.916 -50.085 146.956 C-50.092 145.845 -50.099 144.733 -50.106 143.588 C-50.109 142.367 -50.112 141.147 -50.115 139.89 C-50.121 138.605 -50.128 137.32 -50.134 135.997 C-50.155 131.733 -50.166 127.47 -50.176 123.207 C-50.18 121.738 -50.184 120.268 -50.188 118.799 C-50.207 111.894 -50.221 104.989 -50.23 98.085 C-50.24 90.123 -50.266 82.162 -50.306 74.201 C-50.336 68.042 -50.351 61.884 -50.355 55.725 C-50.357 52.049 -50.366 48.373 -50.391 44.698 C-50.419 40.592 -50.414 36.488 -50.407 32.382 C-50.42 31.172 -50.433 29.962 -50.446 28.715 C-50.395 20.334 -49.089 15.164 -43.688 8.562 C-31.761 -1.195 -14.723 -0.076 0 0 Z " fill="#FCDB18" transform="translate(96.9375,53.6875)"/>
<path d="M0 0 C68.31 0 136.62 0 207 0 C207 84.15 207 168.3 207 255 C205.68 255 204.36 255 203 255 C203 176.79 203 98.58 203 18 C170.846 17.979 138.691 17.959 105.562 17.938 C100.477 17.933 100.477 17.933 74.74 17.91 C62.367 17.905 62.367 17.905 56.584 17.905 C52.524 17.904 48.465 17.9 44.406 17.894 C39.239 17.888 34.072 17.886 28.904 17.887 C27.001 17.887 25.099 17.885 23.196 17.881 C20.638 17.876 18.081 17.877 15.523 17.88 C14.768 17.877 14.012 17.874 13.233 17.871 C8.114 17.886 8.114 17.886 7 19 C6.89 22.034 6.845 25.045 6.842 28.08 C6.837 29.044 6.832 30.009 6.827 31.003 C6.811 34.261 6.803 37.519 6.795 40.778 C6.785 43.103 6.775 45.428 6.765 47.753 C6.738 54.088 6.717 60.422 6.697 66.757 C6.677 72.699 6.653 78.642 6.629 84.584 C6.581 96.358 6.538 108.132 6.497 119.906 C6.458 131.345 6.417 142.785 6.372 154.225 C6.37 154.93 6.367 155.634 6.364 156.36 C6.35 159.895 6.337 163.43 6.323 166.965 C6.209 196.31 6.102 225.655 6 255 C4.02 255 2.04 255 0 255 C0 170.85 0 86.7 0 0 Z " fill="#FDFCF9" transform="translate(0,0)"/>
<path d="M0 0 C0.33 0 0.66 0 1 0 C1.762 7.956 2.16 15.836 2.205 23.827 C2.215 24.941 2.225 26.054 2.235 27.202 C2.267 30.838 2.292 34.474 2.316 38.109 C2.337 40.648 2.358 43.187 2.379 45.726 C2.429 51.696 2.474 57.667 2.517 63.638 C2.567 70.443 2.622 77.249 2.677 84.054 C2.79 98.036 2.897 112.018 3 126 C4.32 126 5.64 126 7 126 C6.752 124.928 6.505 123.855 6.25 122.75 C6 119 6 119 7.938 116.562 C8.618 116.047 9.299 115.531 10 115 C9.34 114.34 8.68 113.68 8 113 C8.66 113 9.32 113 10 113 C10.165 112.67 10.165 112.67 11 111 C12.011 111.33 13.021 111.66 14.062 112 C17.755 113.07 21.152 113.157 25 113 C25.165 112.505 25.165 112.505 26 110 C27.155 109.835 27.155 109.835 33 109 C33 108.34 33 107.68 33 107 C33.299 107.093 33.299 107.093 34.812 107.562 C37 108 37 108 40 107 C38.125 111.75 38.125 111.75 37 114 C37.784 113.505 38.567 113.01 39.375 112.5 C42 111 42 111 44 111 C44 110.34 44 109.68 44 109 C47 110 47 110 48 112 C47.835 112.495 47.835 112.495 47 115 C49.688 115.407 51.424 115.386 53.715 113.852 C54.009 113.618 54.009 113.618 55.5 112.438 C58.657 109.978 58.657 109.978 61.938 110.188 C62.618 110.456 63.299 110.724 64 111 C65.467 114.815 64.433 117.29 63 121 C64.65 120.34 66.3 119.68 68 119 C66.918 122.138 66.053 122.969 63.125 124.688 C60.712 125.701 58.556 126.508 56 127 C55.67 128.32 55.34 129.64 55 131 C56.98 131 58.96 131 61 131 C61 133 61 133 59 135.125 C58.34 135.744 57.68 136.363 57 137 C61.274 138.48 65.01 137.608 69.25 136.312 C69.828 136.209 70.405 136.106 71 136 C71.66 136.66 72.32 137.32 73 138 C76.577 137.476 79.869 135.892 83.195 134.523 C85 134 85 134 87 135 C89.242 134.477 89.242 134.477 91.875 133.625 C94.903 132.658 97.906 131.734 101 131 C101 130.34 101 129.68 101 129 C102.735 127.555 104.54 126.191 106.375 124.875 C107.373 124.151 108.37 123.426 109.398 122.68 C112 121 112 121 114 121 C114 120.34 114 119.68 114 119 C114.66 119 115.32 119 116 119 C116.289 117.907 116.577 116.814 116.875 115.688 C118 112 118 112 120 109 C119.814 108.134 119.629 107.267 119.438 106.375 C118.911 102.311 119.893 100.023 121.297 96.258 C122.298 93.043 122.213 90.342 122 87 C121.01 87.66 120.02 88.32 119 89 C118.34 88.67 117.68 88.34 117 88 C116.34 88.66 115.68 89.32 115 90 C114.67 89.01 114.34 88.02 114 87 C117.75 85 117.75 85 120 85 C120.66 82.03 121.32 79.06 122 76 C122.66 76 123.32 76 124 76 C124.193 76.771 124.387 77.542 124.586 78.336 C124.846 79.339 125.107 80.342 125.375 81.375 C125.63 82.373 125.885 83.37 126.148 84.398 C127 87 127 87 129 89 C129.66 88.67 130.32 88.34 131 88 C131.535 90.519 132.053 93.039 132.562 95.562 C132.638 95.915 132.638 95.915 133.021 97.697 C133.968 102.472 133.948 106.221 133 111 C133.66 111 134.32 111 135 111 C134.324 115.031 133.104 118.631 131.625 122.438 C131.205 123.529 130.785 124.621 130.352 125.746 C128.361 130.538 126.294 134.974 123 139 C122.59 139.501 122.18 140.003 121.758 140.52 C118.91 143.929 115.935 147.217 112.875 150.438 C112.233 151.117 111.591 151.796 110.93 152.496 C109 154 109 154 105 154 C102.067 154.874 99.263 155.891 96.438 157.062 C94 158 94 158 91.438 158.5 C88.998 159 87.167 159.796 85 161 C85 160.34 85 159.68 85 159 C84.276 159.312 83.551 159.624 82.805 159.945 C74.81 163.165 74.81 163.165 70.312 162.25 C69.549 161.838 68.786 161.425 68 161 C67.34 161.99 66.68 162.98 66 164 C65.143 163.867 64.286 163.734 63.402 163.598 C62.831 163.509 62.831 163.509 59.938 163.062 C58.748 162.878 57.558 162.694 56.332 162.504 C53.934 162.141 51.531 161.81 49.125 161.5 C46 161 46 161 42.312 159.875 C39.039 159.01 38.061 158.98 35 160 C31.297 160.487 30.025 160.014 26.688 158.125 C25.801 157.424 24.914 156.722 24 156 C24 155.34 24 154.68 24 154 C22.783 153.856 21.566 153.711 20.312 153.562 C17.173 153.172 14.092 152.676 11 152 C10.67 150.68 10.34 149.36 10 148 C9.34 148 8.68 148 8 148 C8 147.01 8 146.02 8 145 C7.34 145 6.68 145 6 145 C5.752 144.361 5.505 143.721 5.25 143.062 C4 140 4 140 3.019 138.191 C-0.459 131.465 -0.544 125.417 -0.454 117.953 C-0.455 116.674 -0.455 115.395 -0.456 114.077 C-0.457 110.596 -0.434 107.116 -0.406 103.635 C-0.38 99.987 -0.378 96.34 -0.373 92.692 C-0.361 85.797 -0.328 78.902 -0.288 72.007 C-0.243 64.152 -0.221 56.297 -0.201 48.442 C-0.16 32.294 -0.089 16.147 0 0 Z " fill="#FCDB15" transform="translate(48,78)"/>
<path d="M0 0 C0.742 0.002 1.483 0.004 2.247 0.006 C20.388 0.08 40.951 1.207 55.062 14.312 C55.227 14.972 55.227 14.972 56.062 18.312 C53.093 18.642 50.123 18.972 47.062 19.312 C48.062 17.312 48.062 17.312 51.062 16.312 C48.062 14.312 48.062 14.312 46.062 13.812 C44.062 13.312 44.062 13.312 41.062 11.312 C40.072 11.312 39.082 11.312 38.062 11.312 C37.733 11.972 37.403 12.632 37.062 13.312 C36.403 13.312 35.743 13.312 35.062 13.312 C34.733 12.653 34.733 12.653 33.062 9.312 C32.403 9.642 31.743 9.972 31.062 10.312 C31.062 9.653 31.062 8.992 31.062 8.312 C30.506 8.498 29.949 8.684 29.375 8.875 C26.615 9.397 24.813 8.875 22.062 8.312 C19.2 7.959 17 8.028 14.062 8.312 C12.188 10.562 12.188 10.562 11.062 13.312 C10.671 14.076 10.279 14.839 9.875 15.625 C9.607 16.182 9.339 16.739 9.062 17.312 C8.072 17.312 7.083 17.312 6.062 17.312 C5.898 16.983 5.898 16.983 5.062 15.312 C3.412 15.312 1.763 15.312 0.062 15.312 C0.062 15.972 0.062 16.632 0.062 17.312 C1.053 17.312 2.042 17.312 3.062 17.312 C1.693 20.474 1.073 21.305 -1.938 23.312 C-2.597 23.312 -3.257 23.312 -3.938 23.312 C-6.297 25.672 -6.429 27.091 -6.938 30.312 C-7.102 29.983 -7.102 29.983 -7.938 28.312 C-8.928 28.312 -9.917 28.312 -10.938 28.312 C-11.267 28.972 -11.597 29.632 -11.938 30.312 C-11.938 29.323 -11.938 28.332 -11.938 27.312 C-13.257 27.642 -14.578 27.972 -15.938 28.312 C-15.773 27.817 -15.773 27.817 -14.938 25.312 C-13.618 25.312 -12.297 25.312 -10.938 25.312 C-12.188 23.812 -12.188 23.812 -13.938 22.312 C-15.257 22.312 -16.578 22.312 -17.938 22.312 C-18.041 22.931 -18.144 23.55 -18.25 24.188 C-18.938 26.312 -18.938 26.312 -21.938 28.312 C-23.588 27.323 -25.237 26.332 -26.938 25.312 C-27.764 28.205 -27.938 30.2 -27.938 33.312 C-27.938 34.632 -27.938 35.953 -27.938 37.312 C-29.228 37.649 -30.52 37.981 -31.812 38.312 C-32.172 38.405 -32.172 38.405 -33.992 38.875 C-35.938 39.312 -35.938 39.312 -37.938 39.312 C-38.267 39.972 -38.597 40.632 -38.938 41.312 C-38.278 41.312 -37.617 41.312 -36.938 41.312 C-37.267 43.623 -37.597 45.933 -37.938 48.312 C-38.928 48.312 -39.918 48.312 -40.938 48.312 C-41.687 51.027 -42.093 53.54 -42.219 56.352 C-42.256 57.097 -42.294 57.842 -42.332 58.609 C-42.403 60.169 -42.473 61.729 -42.543 63.289 C-42.836 69.11 -42.836 69.11 -43.938 71.312 C-42.947 71.642 -41.957 71.972 -40.938 72.312 C-41.267 73.632 -41.597 74.952 -41.938 76.312 C-41.133 76.581 -40.329 76.849 -39.5 77.125 C-38.654 77.517 -37.809 77.909 -36.938 78.312 C-36.608 79.303 -36.278 80.293 -35.938 81.312 C-36.267 81.642 -36.267 81.642 -37.938 83.312 C-38.562 85.438 -38.562 85.438 -38.938 87.312 C-39.597 87.312 -40.258 87.312 -40.938 87.312 C-40.938 89.623 -40.938 91.933 -40.938 94.312 C-39.617 94.972 -38.297 95.632 -36.938 96.312 C-37.597 97.632 -38.258 98.952 -38.938 100.312 C-39.597 100.312 -40.258 100.312 -40.938 100.312 C-41.267 102.293 -41.597 104.272 -41.938 106.312 C-41.278 106.312 -40.617 106.312 -39.938 106.312 C-39.938 106.972 -39.938 107.632 -39.938 108.312 C-38.947 108.312 -37.957 108.312 -36.938 108.312 C-36.938 107.653 -36.938 106.993 -36.938 106.312 C-35.947 106.642 -34.957 106.972 -33.938 107.312 C-34.102 107.704 -34.102 107.704 -34.938 109.688 C-35.938 112.312 -35.938 112.312 -35.938 114.312 C-35.278 114.972 -34.617 115.632 -33.938 116.312 C-34.597 116.312 -35.258 116.312 -35.938 116.312 C-35.938 116.972 -35.938 117.632 -35.938 118.312 C-35.278 118.642 -34.617 118.972 -33.938 119.312 C-34.102 119.642 -34.102 119.642 -34.938 121.312 C-34.278 121.642 -33.617 121.972 -32.938 122.312 C-32.938 126.342 -33.336 128.652 -34.938 132.312 C-37.5 134.562 -37.5 134.562 -39.938 136.312 C-40.102 136.642 -40.102 136.642 -40.938 138.312 C-39.947 138.643 -38.957 138.972 -37.938 139.312 C-38.618 139.89 -39.299 140.468 -40 141.062 C-40.639 141.805 -41.279 142.548 -41.938 143.312 C-41.625 145.375 -41.625 145.375 -40.938 147.312 C-41.267 148.303 -41.597 149.292 -41.938 150.312 C-43.258 150.312 -44.578 150.312 -45.938 150.312 C-47.092 144.77 -47.11 139.352 -47.143 133.717 C-47.153 132.646 -47.163 131.575 -47.173 130.471 C-47.205 127.015 -47.229 123.558 -47.254 120.102 C-47.272 117.963 -47.291 115.825 -47.31 113.686 C-47.379 105.77 -47.439 97.854 -47.5 89.938 C-47.644 72.241 -47.789 54.545 -47.938 36.312 C-48.267 74.593 -48.597 112.873 -48.938 152.312 C-49.267 152.312 -49.597 152.312 -49.938 152.312 C-50.031 135.11 -50.102 117.907 -50.145 100.704 C-50.165 92.716 -50.193 84.728 -50.239 76.74 C-50.279 69.775 -50.305 62.811 -50.314 55.847 C-50.319 52.161 -50.331 48.475 -50.36 44.789 C-50.393 40.669 -50.393 36.55 -50.392 32.43 C-50.406 31.215 -50.42 30 -50.435 28.748 C-50.394 20.348 -49.101 15.179 -43.688 8.562 C-31.761 -1.195 -14.723 -0.076 0 0 Z M-38.938 119.312 C-40 121.125 -40 121.125 -40.938 123.312 C-40.608 124.303 -40.278 125.293 -39.938 126.312 C-37.578 123.953 -37.446 122.534 -36.938 119.312 C-37.597 119.312 -38.258 119.312 -38.938 119.312 Z " fill="#FCDD29" transform="translate(96.9375,53.6875)"/>
<path d="M0 0 C0.99 0 1.98 0 3 0 C5.337 3.761 5.652 7.757 6.125 12.062 C6.211 12.782 6.298 13.502 6.387 14.244 C6.73 17.181 7 20.041 7 23 C7.33 23.99 7.66 24.98 8 26 C7.17 28.516 6.28 30.881 5.25 33.312 C4.984 33.964 4.719 34.616 4.445 35.287 C2.152 40.849 -0.165 46.313 -4 51 C-4.41 51.501 -4.82 52.003 -5.242 52.52 C-8.09 55.929 -11.065 59.217 -14.125 62.438 C-14.446 62.777 -14.446 62.777 -16.07 64.496 C-18 66 -18 66 -22 66 C-24.933 66.874 -27.737 67.891 -30.562 69.062 C-33 70 -33 70 -35.562 70.5 C-38.002 71 -39.833 71.796 -42 73 C-42 72.34 -42 71.68 -42 71 C-42.724 71.312 -43.449 71.624 -44.195 71.945 C-52.19 75.165 -52.19 75.165 -56.688 74.25 C-57.451 73.838 -58.214 73.425 -59 73 C-59.66 73.99 -60.32 74.98 -61 76 C-61.857 75.867 -62.714 75.734 -63.598 75.598 C-64.169 75.509 -64.169 75.509 -67.062 75.062 C-68.252 74.878 -69.442 74.694 -70.668 74.504 C-73.066 74.141 -75.469 73.81 -77.875 73.5 C-81 73 -81 73 -84.688 71.875 C-87.961 71.01 -88.939 70.98 -92 72 C-95.703 72.487 -96.975 72.014 -100.312 70.125 C-100.756 69.774 -100.756 69.774 -103 68 C-103 67.34 -103 66.68 -103 66 C-104.217 65.856 -105.434 65.711 -106.688 65.562 C-109.827 65.172 -112.908 64.676 -116 64 C-116.33 62.68 -116.66 61.36 -117 60 C-117.66 60 -118.32 60 -119 60 C-119 59.01 -119 58.02 -119 57 C-119.66 57 -120.32 57 -121 57 C-120.67 56.01 -120.34 55.02 -120 54 C-119.446 54.354 -118.892 54.707 -118.32 55.072 C-110.734 59.431 -104.17 59.717 -95.551 59.629 C-94.166 59.63 -92.781 59.632 -91.397 59.636 C-88.506 59.639 -85.616 59.625 -82.726 59.597 C-79.066 59.563 -75.407 59.569 -71.748 59.588 C-68.889 59.598 -66.032 59.589 -63.173 59.574 C-61.183 59.567 -59.192 59.574 -57.201 59.581 C-41.255 59.379 -25.744 55.172 -13.844 44.027 C-2.215 31.241 -0.371 16.533 0 0 Z " fill="#E4CE9D" transform="translate(175,166)"/>
<path d="M0 0 C0.66 0 1.32 0 2 0 C7.108 13.53 6.948 29.799 1 43 C-5.202 55.306 -15.004 64.272 -28 69 C-37.366 71.691 -46.204 72.467 -55.918 72.469 C-57.31 72.476 -58.703 72.484 -60.095 72.492 C-62.988 72.505 -65.882 72.507 -68.775 72.501 C-72.457 72.495 -76.137 72.526 -79.819 72.566 C-82.685 72.592 -85.551 72.595 -88.418 72.591 C-90.426 72.594 -92.434 72.618 -94.443 72.643 C-103.007 72.579 -110.229 71.411 -116.713 65.416 C-120 61.683 -120 61.683 -120 59 C-117.656 59.378 -115.436 59.827 -113.225 60.705 C-106.215 63.472 -99.457 63.474 -91.996 63.512 C-90.677 63.53 -89.358 63.548 -87.999 63.566 C-84.522 63.613 -81.045 63.643 -77.568 63.67 C-74.008 63.7 -70.449 63.746 -66.889 63.791 C-59.926 63.877 -52.963 63.944 -46 64 C-45.742 63.367 -45.484 62.734 -45.219 62.082 C-44 60 -44 60 -40.5 58.688 C-37 58 -37 58 -35 59 C-32.758 58.477 -32.758 58.477 -30.125 57.625 C-27.097 56.658 -24.094 55.734 -21 55 C-21 54.34 -21 53.68 -21 53 C-19.265 51.555 -17.46 50.191 -15.625 48.875 C-14.627 48.151 -13.63 47.426 -12.602 46.68 C-10 45 -10 45 -8 45 C-8 44.34 -8 43.68 -8 43 C-7.34 43 -6.68 43 -6 43 C-5.711 41.907 -5.423 40.814 -5.125 39.688 C-4 36 -4 36 -2 33 C-2.186 32.134 -2.371 31.267 -2.562 30.375 C-3.089 26.311 -2.107 24.023 -0.703 20.258 C0.298 17.043 0.213 14.342 0 11 C-0.99 11.66 -1.98 12.32 -3 13 C-3.33 12.835 -3.33 12.835 -5 12 C-5.66 12.66 -6.32 13.32 -7 14 C-7.165 13.505 -7.165 13.505 -8 11 C-4.25 9 -4.25 9 -2 9 C-1.34 6.03 -0.68 3.06 0 0 Z " fill="#E0A204" transform="translate(170,154)"/>
<path d="M0 0 C0.66 0 1.32 0 2 0 C2.483 4.828 2.821 8.655 -0.375 12.562 C-3 15 -3 15 -5 15 C-5.062 15.619 -5.062 15.619 -5.375 18.75 C-5.757 21.876 -6.305 24.289 -8 27 C-8.66 26.67 -9.32 26.34 -10 26 C-10.99 26.66 -11.98 27.32 -13 28 C-15.188 27.625 -15.188 27.625 -17 27 C-16.34 25.35 -15.68 23.7 -15 22 C-17.31 21.67 -19.62 21.34 -22 21 C-22 21.99 -22 22.98 -22 24 C-22.99 24.33 -23.98 24.66 -25 25 C-25.33 24.01 -25.66 23.02 -26 22 C-27.98 22.33 -29.96 22.66 -32 23 C-33.109 26.107 -33.988 28.901 -34.375 32.188 C-35 35 -35 35 -36.938 36.875 C-39 38 -39 38 -41 38 C-40.34 39.32 -39.68 40.64 -39 42 C-39.66 42 -40.32 42 -41 42 C-41 42.66 -41 43.32 -41 44 C-43 45.625 -43 45.625 -45 47 C-45.66 46.67 -46.32 46.34 -47 46 C-45.68 44.68 -44.36 43.36 -43 42 C-43.99 41.34 -44.98 40.68 -46 40 C-45.505 39.835 -45.505 39.835 -43 39 C-43.33 38.34 -43.66 37.68 -44 37 C-44.495 37.165 -44.495 37.165 -47 38 C-49.125 31.375 -49.125 31.375 -48 28 C-46.68 28 -45.36 28 -44 28 C-44 27.34 -44 26.68 -44 26 C-45.32 26.33 -46.64 26.66 -48 27 C-47.67 26.01 -47.34 25.02 -47 24 C-48.32 24.99 -49.64 25.98 -51 27 C-51.99 26.34 -52.98 25.68 -54 25 C-52.35 24.01 -50.7 23.02 -49 22 C-49.66 21.67 -50.32 21.34 -51 21 C-50.67 19.845 -50.67 19.845 -49 14 C-44.667 14 -40.333 14 -36 14 C-36.66 15.32 -37.32 16.64 -38 18 C-37.67 18 -37.34 18 -37 18 C-36.567 17.526 -36.134 17.051 -35.688 16.562 C-34 15 -34 15 -32 14.75 C-31.34 14.502 -30.68 14.255 -30 14 C-29.588 12.927 -29.175 11.855 -28.75 10.75 C-27.205 6.743 -25.025 4.958 -21.324 2.871 C-15.997 0.875 -10.386 1.493 -5 3 C-4.835 4.155 -4.835 4.155 -4 10 C-3.34 9.67 -2.68 9.34 -2 9 C-1.367 6.934 -1.367 6.934 -0.875 4.438 C-0.707 3.611 -0.54 2.785 -0.367 1.934 C-0.307 1.615 -0.307 1.615 0 0 Z M-44 23 C-43.67 23.99 -43.34 24.98 -43 26 C-43 25.01 -43 24.02 -43 23 C-43.33 23 -43.66 23 -44 23 Z " fill="#FCDE22" transform="translate(124,103)"/>
<path d="M0 0 C0.33 0.165 0.33 0.165 2 1 C3.08 11.157 -4.139 19.266 -10 27 C-15.635 33.48 -22.745 36.986 -31 39 C-32.32 39 -33.64 39 -35 39 C-35 39.66 -35 40.32 -35 41 C-47.192 41.952 -59.286 42.025 -71.5 41.625 C-72.179 41.604 -72.857 41.582 -73.557 41.56 C-98.676 40.744 -98.676 40.744 -108 37 C-108 36.34 -108 35.68 -108 35 C-108.99 34.67 -109.98 34.34 -111 34 C-110.67 33.34 -110.34 32.68 -110 32 C-109.01 32.33 -108.02 32.66 -107 33 C-105.01 33.109 -103.016 33.159 -101.022 33.177 C-99.79 33.19 -98.557 33.203 -97.287 33.216 C-95.936 33.224 -94.585 33.232 -93.234 33.238 C-92.55 33.242 -91.865 33.246 -91.16 33.251 C-87.525 33.272 -83.889 33.286 -80.254 33.295 C-76.539 33.306 -72.825 33.34 -69.11 33.38 C-66.222 33.407 -63.334 33.415 -60.446 33.418 C-58.424 33.426 -56.402 33.452 -54.38 33.479 C-38.306 33.442 -22.904 29.194 -10.852 18.059 C-6.1 12.775 -2.472 6.648 0 0 Z " fill="#C7A869" transform="translate(172,192)"/>
<path d="M0 0 C0.33 0 0.66 0 1 0 C1.795 8.117 2.141 16.133 2.114 24.286 C2.114 25.449 2.114 26.611 2.114 27.809 C2.113 31.607 2.106 35.405 2.098 39.203 C2.096 41.854 2.094 44.505 2.093 47.156 C2.09 53.392 2.082 59.628 2.072 65.865 C2.061 72.973 2.055 80.08 2.05 87.188 C2.04 101.792 2.022 116.396 2 131 C2.598 130.814 3.196 130.629 3.812 130.438 C6 130 6 130 9 131 C10.695 130.049 12.364 129.049 14 128 C14.66 128 15.32 128 16 128 C16.124 127.361 16.248 126.721 16.375 126.062 C16.581 125.382 16.787 124.701 17 124 C17.33 123.835 17.33 123.835 19 123 C20.562 125.375 20.562 125.375 22 128 C21.67 128.66 21.34 129.32 21 130 C21.66 130 22.32 130 23 130 C24.707 131.626 26.377 133.291 28 135 C28.763 134.526 29.526 134.051 30.312 133.562 C33 132 33 132 36 131 C36 131.66 36 132.32 36 133 C36.99 133.33 37.98 133.66 39 134 C39 134.66 39 135.32 39 136 C39.99 135.67 40.98 135.34 42 135 C42.33 135.66 42.66 136.32 43 137 C46.992 138.331 49.263 137.815 53 136 C53 136.99 53 137.98 53 139 C53.825 138.856 54.65 138.711 55.5 138.562 C58.046 138.153 60.567 137.802 63.125 137.5 C67 137 67 137 69.375 136.312 C69.911 136.209 70.448 136.106 71 136 C71.66 136.66 72.32 137.32 73 138 C73.99 138.33 74.98 138.66 76 139 C76 139.33 76 139.66 76 140 C68.419 140.117 60.838 140.205 53.256 140.259 C49.734 140.285 46.213 140.32 42.691 140.377 C38.625 140.443 34.559 140.466 30.492 140.488 C29.252 140.514 28.012 140.54 26.734 140.566 C17.874 140.569 9.877 139.205 2 135 C-0.081 131.85 -0.248 129.269 -0.241 125.546 C-0.243 124.438 -0.246 123.33 -0.249 122.189 C-0.242 120.978 -0.234 119.768 -0.227 118.521 C-0.227 117.242 -0.228 115.964 -0.228 114.647 C-0.229 111.145 -0.217 107.643 -0.203 104.142 C-0.19 100.481 -0.189 96.82 -0.187 93.159 C-0.181 86.228 -0.164 79.298 -0.144 72.367 C-0.122 64.476 -0.111 56.585 -0.101 48.693 C-0.08 32.462 -0.045 16.231 0 0 Z " fill="#FCD50B" transform="translate(48,78)"/>
<path d="M0 0 C0.858 0.003 1.716 0.006 2.6 0.01 C3.438 -0.006 4.277 -0.022 5.141 -0.039 C11.402 -0.044 16.128 0.914 21.287 4.697 C24.074 8.722 23.504 13.62 23.412 18.322 C22.917 18.164 22.422 18.005 21.912 17.842 C18.421 17.116 14.963 17.058 11.412 17.01 C11.056 16.995 11.056 16.995 9.256 16.922 C5.803 16.88 3.824 17.014 1.021 19.107 C-0.419 21.09 -1.462 22.795 -2.338 25.072 C-2.75 26.145 -3.163 27.217 -3.588 28.322 C-2.598 28.652 -1.608 28.982 -0.588 29.322 C-6.338 28.572 -6.338 28.572 -8.588 26.322 C-8.847 23.924 -8.847 23.924 -8.854 20.947 C-8.856 19.88 -8.859 18.813 -8.861 17.713 C-8.857 17.153 -8.857 17.153 -8.838 14.322 C-8.846 13.203 -8.853 12.084 -8.861 10.932 C-8.859 9.864 -8.856 8.797 -8.854 7.697 C-8.851 6.715 -8.849 5.733 -8.847 4.721 C-8.261 -0.707 -4.387 0.038 0 0 Z " fill="#AB710C" transform="translate(100.587890625,152.677734375)"/>
<path d="M0 0 C0.754 -0.001 1.508 -0.001 2.285 -0.002 C20.527 0.024 41.168 1.055 55.375 14.25 C55.54 14.91 55.54 14.91 56.375 18.25 C53.405 18.58 50.435 18.91 47.375 19.25 C48.375 17.25 48.375 17.25 51.375 16.25 C48.375 14.25 48.375 14.25 46.375 13.75 C44.375 13.25 44.375 13.25 41.375 11.25 C40.385 11.25 39.395 11.25 38.375 11.25 C38.045 11.91 37.715 12.57 37.375 13.25 C36.715 13.25 36.055 13.25 35.375 13.25 C35.045 12.59 35.045 12.59 33.375 9.25 C32.715 9.58 32.055 9.91 31.375 10.25 C31.375 9.59 31.375 8.93 31.375 8.25 C30.818 8.436 30.261 8.621 29.688 8.812 C25.477 9.609 22.891 8.594 19.375 6.25 C7.729 4.123 -4.822 4.695 -16.625 4.25 C-16.625 4.91 -16.625 5.57 -16.625 6.25 C-17.722 6.371 -18.819 6.492 -19.949 6.617 C-21.404 6.786 -22.858 6.955 -24.312 7.125 C-25.034 7.204 -25.755 7.282 -26.498 7.363 C-36.252 8.521 -36.252 8.521 -39.312 12.375 C-39.529 12.684 -39.529 12.684 -40.625 14.25 C-41.285 14.25 -41.945 14.25 -42.625 14.25 C-42.955 15.57 -43.285 16.89 -43.625 18.25 C-43.955 18.25 -44.285 18.25 -44.625 18.25 C-44.893 9.632 -44.893 9.632 -42.059 6.543 C-29.931 -1.313 -13.86 0.011 0 0 Z " fill="#FDEB58" transform="translate(96.625,53.75)"/>
<path d="M0 0 C0.33 0 0.66 0 1 0 C0.681 12.838 -4.038 23.828 -13 33 C-26.49 45.443 -42.004 48.466 -59.918 48.469 C-61.31 48.476 -62.703 48.484 -64.095 48.492 C-66.988 48.505 -69.882 48.507 -72.775 48.501 C-76.457 48.495 -80.137 48.526 -83.819 48.566 C-86.685 48.592 -89.551 48.595 -92.418 48.591 C-94.426 48.594 -96.434 48.618 -98.443 48.643 C-107.114 48.578 -114.079 47.289 -120.768 41.459 C-122 40 -122 40 -122 38 C-121.34 38 -120.68 38 -120 38 C-119.722 38.32 -119.722 38.32 -118.312 39.938 C-113.267 44.438 -104.58 43.161 -98.152 43.168 C-97.105 43.171 -96.057 43.175 -94.977 43.178 C-92.758 43.183 -90.538 43.185 -88.318 43.185 C-85 43.187 -81.683 43.206 -78.365 43.225 C-67.823 43.253 -57.355 43.052 -46.848 42.145 C-45.961 42.071 -45.075 41.997 -44.162 41.922 C-36.792 41.203 -30.731 39.089 -24 36 C-22.948 35.662 -21.896 35.325 -20.812 34.977 C-17.125 33.696 -15.558 31.942 -13 29 C-12.515 28.444 -12.031 27.889 -11.531 27.316 C-5.06 19.376 -1.829 9.974 0 0 Z " fill="#CA8A06" transform="translate(174,178)"/>
<path d="M0 0 C2.704 1.464 4.261 2.544 6.016 5.078 C6.737 9.187 6.556 12.955 6.016 17.078 C5.686 16.088 5.356 15.098 5.016 14.078 C-9.67 13.354 -9.67 13.354 -14.984 18.078 C-15.644 18.078 -16.304 18.078 -16.984 18.078 C-17.129 18.862 -17.273 19.646 -17.422 20.453 C-17.984 23.078 -17.984 23.078 -18.984 25.078 C-19.974 24.748 -20.964 24.418 -21.984 24.078 C-21.984 16.488 -21.984 8.898 -21.984 1.078 C-15.28 -2.274 -7.153 -2.209 0 0 Z " fill="#B26F03" transform="translate(113.984375,91.921875)"/>
<path d="M0 0 C0.33 0 0.66 0 1 0 C2.628 13.142 2.213 24.362 -2 37 C-2.495 37.165 -2.495 37.165 -5 38 C-4.541 35.857 -4.079 34.135 -2.965 32.234 C-1.722 29.357 -1.84 27.122 -1.938 24 C-2.041 20.389 -1.901 17.474 -1 14 C-0.779 11.586 -0.594 9.169 -0.438 6.75 C-0.354 5.487 -0.27 4.223 -0.184 2.922 C-0.123 1.958 -0.062 0.993 0 0 Z M-6 38 C-5.835 38.66 -5.835 38.66 -5 42 C-5.66 42 -6.32 42 -7 42 C-7.093 42.423 -7.093 42.423 -7.562 44.562 C-10.483 51.547 -16.333 55.785 -23 59 C-23.333 59.169 -23.333 59.169 -25.02 60.023 C-36.848 65.693 -51.954 68.884 -65 66.438 C-68 66 -68 66 -70.887 66.555 C-76.545 67.432 -82.179 66.401 -87.812 65.688 C-88.957 65.557 -90.101 65.426 -91.279 65.291 C-99.745 64.255 -99.745 64.255 -102 62 C-101.39 62.013 -100.78 62.025 -100.151 62.038 C-93.742 62.169 -87.334 62.299 -80.925 62.427 C-78.54 62.475 -76.155 62.524 -73.77 62.573 C-70.322 62.643 -66.874 62.713 -63.426 62.781 C-62.902 62.792 -62.902 62.792 -60.249 62.848 C-52.832 62.993 -45.418 63.024 -38 63 C-38 62.34 -38 61.68 -38 61 C-36.251 60.352 -34.501 59.706 -32.75 59.062 C-32.263 58.883 -32.263 58.883 -29.797 57.973 C-27 57 -27 57 -24.836 56.5 C-21.85 55.687 -19.546 53.716 -17 52 C-16.34 52 -15.68 52 -15 52 C-14.745 51.448 -14.49 50.897 -14.227 50.328 C-12.807 47.634 -11.139 45.232 -9.375 42.75 C-9.059 42.304 -9.059 42.304 -7.461 40.047 C-6.979 39.371 -6.497 38.696 -6 38 Z " fill="#DEC58E" transform="translate(175,170)"/>
<path d="M0 0 C0.33 0 0.66 0 1 0 C1.197 2.979 1.383 5.958 1.562 8.938 C1.619 9.768 1.675 10.599 1.732 11.455 C2.191 19.318 1.84 26.585 -1 34 C-1.542 35.458 -2.084 36.917 -2.625 38.375 C-3.079 39.571 -3.532 40.767 -4 42 C-7.196 40.462 -10.216 38.711 -13.25 36.875 C-14.142 36.336 -15.034 35.797 -15.953 35.242 C-16.629 34.832 -17.304 34.422 -18 34 C-17.387 31.038 -16.746 29.619 -15 27 C-14.34 27 -13.68 27 -13 27 C-12.67 25.68 -12.34 24.36 -12 23 C-11.34 23 -10.68 23 -10 23 C-9.67 21.68 -9.34 20.36 -9 19 C-8.34 19 -7.68 19 -7 19 C-7 17.35 -7 15.7 -7 14 C-6.01 14 -5.02 14 -4 14 C-3.67 12.35 -3.34 10.7 -3 9 C-2.67 9.495 -2.67 9.495 -1 12 C-0.67 8.04 -0.34 4.08 0 0 Z " fill="#E7AA03" transform="translate(166,98)"/>
<path d="M0 0 C0.66 0 1.32 0 2 0 C6.955 14.717 5.581 28.132 -0.395 42.309 C-2.081 45.136 -2.89 45.929 -5.875 47.125 C-9.408 48.686 -12.006 50.53 -15 53 C-22.378 58 -22.378 58 -25 58 C-25 58.66 -25 59.32 -25 60 C-27.185 60.509 -29.373 61.007 -31.562 61.5 C-32.781 61.778 -33.999 62.057 -35.254 62.344 C-38.922 62.986 -42.285 63.115 -46 63 C-43.414 59.121 -41.455 58.955 -37 58 C-36.34 58.33 -35.68 58.66 -35 59 C-32.758 58.477 -32.758 58.477 -30.125 57.625 C-27.097 56.658 -24.094 55.734 -21 55 C-21 54.34 -21 53.68 -21 53 C-19.265 51.555 -17.46 50.191 -15.625 48.875 C-14.627 48.151 -13.63 47.426 -12.602 46.68 C-10 45 -10 45 -8 45 C-8 44.34 -8 43.68 -8 43 C-7.34 43 -6.68 43 -6 43 C-5.856 42.453 -5.856 42.453 -5.125 39.688 C-4 36 -4 36 -2 33 C-2.186 32.134 -2.371 31.267 -2.562 30.375 C-3.089 26.311 -2.107 24.023 -0.703 20.258 C0.298 17.043 0.213 14.342 0 11 C-0.99 11.66 -1.98 12.32 -3 13 C-3.66 12.67 -4.32 12.34 -5 12 C-5.66 12.66 -6.32 13.32 -7 14 C-7.165 13.505 -7.165 13.505 -8 11 C-4.25 9 -4.25 9 -2 9 C-1.34 6.03 -0.68 3.06 0 0 Z " fill="#E8AE0F" transform="translate(170,154)"/>
<path d="M0 0 C1 3.875 1 3.875 1 5 C1.615 4.988 2.23 4.977 2.863 4.965 C3.672 4.956 4.48 4.947 5.312 4.938 C5.713 4.932 5.713 4.932 7.738 4.902 C10 5 10 5 13 6 C13 6.66 13 7.32 13 8 C14.98 8 16.96 8 19 8 C19 8.66 19 9.32 19 10 C19.99 10 20.98 10 22 10 C22 10.66 22 11.32 22 12 C22.66 12 23.32 12 24 12 C26.441 17.644 26.193 22.978 26 29 C25.67 29 25.34 29 25 29 C24.89 28.096 24.781 27.193 24.668 26.262 C24.509 25.082 24.351 23.903 24.188 22.688 C24.037 21.516 23.886 20.344 23.73 19.137 C22.974 15.89 22.718 14.822 20 13 C14.784 10.618 9.802 10.732 4.188 10.812 C3.317 10.813 2.446 10.814 1.549 10.814 C-4.859 10.859 -4.859 10.859 -6 12 C-6.087 13.854 -6.107 15.711 -6.098 17.566 C-6.094 18.691 -6.091 19.816 -6.088 20.975 C-6.08 22.159 -6.071 23.343 -6.062 24.562 C-6.058 25.75 -6.053 26.938 -6.049 28.162 C-6.037 31.108 -6.021 34.054 -6 37 C-6.99 37 -7.98 37 -9 37 C-13.429 29.714 -13.429 29.714 -14 25 C-13.34 25 -12.68 25 -12 25 C-12.33 24.01 -12.66 23.02 -13 22 C-12.67 21.34 -12.34 20.68 -12 20 C-12.66 19.67 -13.32 19.34 -14 19 C-13.67 18.505 -13.67 18.505 -12 16 C-11.876 14.866 -11.752 13.731 -11.625 12.562 C-10.914 8.509 -10.188 7.48 -7 5 C-5.347 3.977 -3.682 2.974 -2 2 C-1.34 1.34 -0.68 0.68 0 0 Z " fill="#FBD20B" transform="translate(99,143)"/>
<path d="M0 0 C-3.674 4.008 -7.143 6.526 -12 9 C-12.66 9 -13.32 9 -14 9 C-14 8.34 -14 7.68 -14 7 C-14.743 7.33 -15.485 7.66 -16.25 8 C-19 9 -19 9 -23 9 C-25.331 9.294 -27.653 9.629 -29.977 9.977 C-30.644 9.984 -31.312 9.992 -32 10 C-32.66 9.34 -33.32 8.68 -34 8 C-37.396 7.783 -39.758 7.919 -43 9 C-45.519 8.936 -47.991 8.813 -50.5 8.625 C-51.21 8.576 -51.919 8.527 -52.65 8.477 C-58.441 8.068 -64.224 7.575 -70 7 C-70 6.34 -70 5.68 -70 5 C-71.98 5 -73.96 5 -76 5 C-76 4.67 -76 4.34 -76 4 C-75.647 3.998 -75.647 3.998 -73.861 3.989 C-67.14 3.951 -60.42 3.894 -53.699 3.816 C-50.246 3.777 -46.793 3.745 -43.339 3.729 C-15.593 3.595 -15.593 3.595 -4.406 -0.249 C-2 -1 -2 -1 0 0 Z " fill="#BF9D5D" transform="translate(146,222)"/>
<path d="M0 0 C0.66 0 1.32 0 2 0 C2.33 1.32 2.66 2.64 3 4 C3.99 4 4.98 4 6 4 C7.125 10.75 7.125 10.75 6 13 C6.66 13 7.32 13 8 13 C7.916 13.687 7.832 14.374 7.746 15.082 C7.644 15.983 7.542 16.884 7.438 17.812 C7.385 18.259 7.385 18.259 7.121 20.52 C7 23 7 23 8 26 C8.159 33.861 7.39 38.34 2 44 C1.188 47.375 1.188 47.375 1 50 C0.01 50 -0.98 50 -2 50 C-3.769 47.362 -4.032 46.222 -3.574 43.02 C-3.282 41.961 -2.989 40.903 -2.688 39.812 C-2.403 38.746 -2.118 37.68 -1.824 36.582 C-1 34 -1 34 0 33 C1.553 21.991 0.765 11.035 0 0 Z " fill="#E4CE9B" transform="translate(166,93)"/>
<path d="M0 0 C0.716 -0.003 1.432 -0.006 2.17 -0.01 C5.942 0.029 8.864 0.216 12.062 2.312 C11.78 5.707 11.321 7.054 8.875 9.5 C2.231 13.782 -4.22 13.791 -11.938 13.312 C-12.927 12.982 -13.918 12.653 -14.938 12.312 C-13.256 3.23 -8.839 -0.198 0 0 Z " fill="#ECCF8E" transform="translate(111.9375,168.6875)"/>
<path d="M0 0 C4.95 0.99 9.9 1.98 15 3 C15 3.66 15 4.32 15 5 C16.172 4.988 17.344 4.977 18.551 4.965 C26.37 4.912 34.064 4.88 41.836 5.879 C44.122 6.007 45.802 5.584 48 5 C50.75 5.438 50.75 5.438 53 6 C53 6.66 53 7.32 53 8 C53.557 7.67 54.114 7.34 54.688 7 C57.348 5.85 59.126 5.856 62 6 C65.273 6 67.847 5.701 71 5 C71 5.66 71 6.32 71 7 C73.64 5.68 76.28 4.36 79 3 C79 3.99 79 4.98 79 6 C78.01 6.33 77.02 6.66 76 7 C76 7.66 76 8.32 76 9 C63.808 9.952 51.714 10.025 39.5 9.625 C39.161 9.614 39.161 9.614 37.443 9.56 C12.324 8.744 12.324 8.744 3 5 C3 4.34 3 3.68 3 3 C2.01 2.67 1.02 2.34 0 2 C0 1.34 0 0.68 0 0 Z " fill="#D5B87C" transform="translate(61,224)"/>
<path d="M0 0 C0.66 0 1.32 0 2 0 C2.483 4.828 2.821 8.655 -0.375 12.562 C-3 15 -3 15 -5 15 C-5.124 16.237 -5.248 17.475 -5.375 18.75 C-5.757 21.876 -6.305 24.289 -8 27 C-8.66 26.67 -9.32 26.34 -10 26 C-10.99 26.66 -11.98 27.32 -13 28 C-15.188 27.625 -15.188 27.625 -17 27 C-16.34 25.35 -15.68 23.7 -15 22 C-17.31 21.67 -19.62 21.34 -22 21 C-22 21.99 -22 22.98 -22 24 C-22.99 24.33 -23.98 24.66 -25 25 C-25.33 24.01 -25.66 23.02 -26 22 C-26.99 22 -27.98 22 -29 22 C-29.33 21.34 -29.66 20.68 -30 20 C-30.99 19.67 -31.98 19.34 -33 19 C-33 18.01 -33 17.02 -33 16 C-32.365 15.991 -31.73 15.981 -31.076 15.972 C-28.175 15.918 -25.275 15.834 -22.375 15.75 C-21.875 15.743 -21.875 15.743 -19.348 15.707 C-13.236 15.505 -9.713 14.955 -5 11 C-4.01 10.34 -3.02 9.68 -2 9 C-1.27 6.836 -1.27 6.836 -0.812 4.375 C-0.733 3.966 -0.733 3.966 -0.332 1.898 C-0.222 1.272 -0.113 0.645 0 0 Z " fill="#FCDF28" transform="translate(124,103)"/>
<path d="M0 0 C0.812 2.188 0.812 2.188 1 5 C-1.616 8.214 -4.141 10.502 -8 12 C-11.129 12.23 -11.129 12.23 -14.562 12.188 C-15.13 12.184 -15.13 12.184 -18.004 12.168 C-21 12 -21 12 -24 11 C-23.439 7.421 -23.02 5.03 -20.438 2.422 C-14.042 -2.066 -7.36 -2.059 0 0 Z " fill="#EFD692" transform="translate(119,106)"/>
<path d="M0 0 C1.588 0.005 3.176 0.01 4.764 0.014 C8.613 0.025 12.463 0.042 16.312 0.062 C16.312 0.722 16.312 1.383 16.312 2.062 C15.596 2.088 14.879 2.113 14.141 2.138 C10.906 2.254 7.672 2.377 4.438 2.5 C3.31 2.539 2.182 2.579 1.02 2.619 C-0.057 2.661 -1.133 2.703 -2.242 2.746 C-2.74 2.764 -2.74 2.764 -5.257 2.857 C-7.688 3.062 -7.688 3.062 -9.688 4.062 C-12.36 4.197 -15.01 4.106 -17.688 4.062 C-17.688 4.722 -17.688 5.383 -17.688 6.062 C-18.784 6.184 -19.881 6.305 -21.012 6.43 C-22.466 6.599 -23.921 6.768 -25.375 6.938 C-26.096 7.016 -26.817 7.095 -27.561 7.176 C-37.315 8.334 -37.315 8.334 -40.375 12.188 C-40.592 12.497 -40.592 12.497 -41.688 14.062 C-42.347 14.062 -43.008 14.062 -43.688 14.062 C-44.017 15.382 -44.347 16.703 -44.688 18.062 C-45.017 18.062 -45.347 18.062 -45.688 18.062 C-45.955 9.444 -45.955 9.444 -43.121 6.355 C-30.664 -1.713 -14.2 -0.079 0 0 Z " fill="#FDEC5C" transform="translate(97.6875,53.9375)"/>
<path d="M0 0 C1 2 1 2 0.938 4.438 C1 7 1 7 3 10 C3.195 13.355 3.195 13.355 3.125 17.188 C3.107 18.46 3.089 19.732 3.07 21.043 C3.059 21.531 3.059 21.531 3 24 C3.66 24 4.32 24 5 24 C5.33 23.01 5.66 22.02 6 21 C5.67 22.65 5.34 24.3 5 26 C4.34 26 3.68 26 3 26 C2.832 27.792 2.666 29.583 2.5 31.375 C2.407 32.373 2.314 33.37 2.219 34.398 C2 37 2 37 2 39 C2.66 39 3.32 39 4 39 C3.67 39.99 3.34 40.98 3 42 C2.74 45.643 2.557 49.28 2.395 52.928 C2.101 58.799 2.101 58.799 1 61 C1.99 61.33 2.98 61.66 4 62 C3.34 64.64 2.68 67.28 2 70 C1.01 70 0.02 70 -1 70 C-1 48.88 -1 27.76 -1 6 C-1.66 6 -2.32 6 -3 6 C-1.125 1.125 -1.125 1.125 0 0 Z " fill="#FCE23F" transform="translate(52,64)"/>
<path d="M0 0 C0.33 0 0.66 0 1 0 C1.165 0.99 1.165 0.99 2 6 C2.66 6 3.32 6 4 6 C3.67 6.99 3.34 7.98 3 9 C2.34 9 1.68 9 1 9 C1 9.66 1 10.32 1 11 C0.34 11 -0.32 11 -1 11 C-1 11.66 -1 12.32 -1 13 C-6.499 18.176 -13.704 18.625 -21 19 C-23.937 18.657 -26.174 17.976 -29 17 C-30.664 16.653 -32.329 16.313 -34 16 C-34 15.34 -34 14.68 -34 14 C-32.952 13.951 -31.904 13.902 -30.824 13.852 C-29.445 13.777 -28.066 13.701 -26.688 13.625 C-25.997 13.594 -25.307 13.563 -24.596 13.531 C-20.93 13.319 -19.121 13.081 -16 11 C-15.072 11.021 -14.144 11.041 -13.188 11.062 C-9.194 10.984 -7.285 10.285 -4 8 C-2.368 5.446 -1.134 2.808 0 0 Z " fill="#FDE22E" transform="translate(128,170)"/>
<path d="M0 0 C3.5 1.625 3.5 1.625 6 4 C6.875 7.25 6.875 7.25 7 10 C6.67 9.01 6.34 8.02 6 7 C-8.685 6.276 -8.685 6.276 -14 11 C-14.66 11 -15.32 11 -16 11 C-16.144 11.784 -16.289 12.567 -16.438 13.375 C-17 16 -17 16 -18 18 C-18.66 18 -19.32 18 -20 18 C-21.066 8.334 -21.066 8.334 -18.582 5.227 C-16.766 3.949 -15.009 2.943 -13 2 C-12.353 1.638 -11.706 1.276 -11.039 0.902 C-7.429 -0.695 -3.862 -0.535 0 0 Z " fill="#BC861B" transform="translate(113,99)"/>
<path d="M0 0 C0.33 0 0.66 0 1 0 C0.681 12.838 -4.038 23.828 -13 33 C-26.332 45.297 -41.657 48.514 -59.395 48.293 C-60.708 48.289 -62.021 48.284 -63.374 48.28 C-66.819 48.269 -70.262 48.239 -73.706 48.206 C-77.24 48.175 -80.773 48.162 -84.307 48.146 C-91.205 48.115 -98.102 48.064 -105 48 C-105 47.67 -105 47.34 -105 47 C-104.357 46.994 -103.714 46.988 -103.051 46.982 C-96.285 46.918 -89.519 46.833 -82.753 46.738 C-80.236 46.705 -77.72 46.676 -75.203 46.654 C-30.928 46.24 -30.928 46.24 -14 31 C-6.216 22.276 -2.085 11.372 0 0 Z " fill="#845109" transform="translate(174,178)"/>
<path d="M0 0 C0.962 -0.003 1.925 -0.006 2.916 -0.01 C10.045 0.045 10.045 0.045 12.312 2.312 C11.938 4.438 11.938 4.438 11.312 6.312 C10.323 5.982 9.332 5.653 8.312 5.312 C5.651 5.139 3.038 5.036 0.375 5 C0.017 4.985 0.017 4.985 -1.795 4.912 C-5.262 4.87 -7.266 4.998 -10.082 7.098 C-11.519 9.08 -12.563 10.788 -13.438 13.062 C-13.85 14.135 -14.263 15.208 -14.688 16.312 C-13.698 16.642 -12.707 16.972 -11.688 17.312 C-13.668 16.983 -15.647 16.653 -17.688 16.312 C-17.742 14.896 -17.781 13.479 -17.812 12.062 C-17.836 11.274 -17.859 10.485 -17.883 9.672 C-17.572 5.915 -16.552 4.077 -13.73 1.582 C-9.18 -0.316 -4.878 -0.083 0 0 Z " fill="#CB9E3F" transform="translate(111.6875,164.6875)"/>
<path d="M0 0 C0.33 0 0.66 0 1 0 C2.628 13.142 2.213 24.362 -2 37 C-2.495 37.165 -2.495 37.165 -5 38 C-4.541 35.857 -4.079 34.135 -2.965 32.234 C-1.722 29.357 -1.84 27.122 -1.938 24 C-2.041 20.389 -1.901 17.474 -1 14 C-0.779 11.586 -0.594 9.169 -0.438 6.75 C-0.354 5.487 -0.27 4.223 -0.184 2.922 C-0.123 1.958 -0.062 0.993 0 0 Z M-6 38 C-5.835 38.66 -5.835 38.66 -5 42 C-5.66 42 -6.32 42 -7 42 C-7.186 42.846 -7.371 43.691 -7.562 44.562 C-10.515 51.622 -16.331 55.665 -23 59 C-24.134 59.577 -25.269 60.155 -26.438 60.75 C-30.643 62.226 -33.581 62.233 -38 62 C-35.292 60.567 -32.686 59.548 -29.75 58.688 C-25.585 57.352 -22.227 55.452 -18.629 52.988 C-17 52 -17 52 -15 52 C-14.745 51.448 -14.49 50.897 -14.227 50.328 C-12.807 47.634 -11.139 45.232 -9.375 42.75 C-8.743 41.858 -8.112 40.966 -7.461 40.047 C-7.22 39.709 -7.22 39.709 -6 38 Z " fill="#D7BE86" transform="translate(175,170)"/>
<path d="M0 0 C3.3 0.33 6.6 0.66 10 1 C10 1.66 10 2.32 10 3 C8.02 3.66 6.04 4.32 4 5 C4.66 5.33 5.32 5.66 6 6 C5.67 7.32 5.34 8.64 5 10 C6.32 9.67 7.64 9.34 9 9 C9 9.66 9 10.32 9 11 C7.02 11.33 5.04 11.66 3 12 C4.98 12.99 6.96 13.98 9 15 C8.67 15.907 8.34 16.815 8 17.75 C7 21 7 21 7 25 C4.924 25.553 3.156 26 1 26 C-0.125 22.25 -0.125 22.25 1 20 C0.34 19.67 -0.32 19.34 -1 19 C-0.67 12.73 -0.34 6.46 0 0 Z " fill="#FCDF27" transform="translate(54,106)"/>
<path d="M0 0 C0.33 0 0.66 0 1 0 C1.197 2.979 1.383 5.958 1.562 8.938 C1.619 9.768 1.675 10.599 1.732 11.455 C2.191 19.318 1.84 26.585 -1 34 C-1.542 35.458 -2.084 36.917 -2.625 38.375 C-2.852 38.973 -2.852 38.973 -4 42 C-6.884 40.707 -8.872 39.341 -11 37 C-10.423 35.989 -9.845 34.979 -9.25 33.938 C-8.888 33.297 -8.526 32.656 -8.152 31.996 C-7.418 30.724 -6.662 29.465 -5.879 28.223 C-3.301 24.058 -2.573 20.815 -2 16 C-1.822 14.605 -1.644 13.211 -1.465 11.816 C-1.288 10.399 -1.113 8.981 -0.938 7.562 C-0.847 6.831 -0.756 6.099 -0.662 5.346 C-0.441 3.564 -0.22 1.782 0 0 Z " fill="#CBAB6B" transform="translate(166,98)"/>
<path d="M0 0 C0.918 -0.003 1.837 -0.005 2.783 -0.008 C3.745 -0 4.708 0.008 5.699 0.016 C6.175 0.012 6.175 0.012 8.58 -0.008 C17.2 0.016 17.2 0.016 21.387 2.266 C21.387 2.926 21.387 3.586 21.387 4.266 C22.707 4.926 24.027 5.586 25.387 6.266 C25.057 11.546 24.727 16.826 24.387 22.266 C24.057 22.266 23.727 22.266 23.387 22.266 C23.407 21.313 23.428 20.36 23.449 19.379 C23.289 9.662 23.289 9.662 21.066 6.223 C14.979 1.729 6.556 2.67 -0.613 3.266 C-1.603 3.596 -2.593 3.926 -3.613 4.266 C-3.943 11.856 -4.273 19.446 -4.613 27.266 C-5.273 27.266 -5.933 27.266 -6.613 27.266 C-6.671 23.141 -6.707 19.016 -6.738 14.891 C-6.755 13.715 -6.772 12.539 -6.789 11.328 C-6.796 10.207 -6.802 9.085 -6.809 7.93 C-6.819 6.893 -6.83 5.856 -6.84 4.788 C-6.423 0.147 -4.077 0.011 0 0 Z " fill="#F1B703" transform="translate(96.61328125,88.734375)"/>
<path d="M0 0 C1.32 0 2.64 0 4 0 C4.33 0.66 4.66 1.32 5 2 C9.29 2 13.58 2 18 2 C18 2.66 18 3.32 18 4 C18.66 3.67 19.32 3.34 20 3 C23.544 2.974 27.073 3.028 30.615 3.127 C34.893 3.19 38.093 2.989 42 1 C42 1.99 42 2.98 42 4 C42.412 3.928 42.412 3.928 44.5 3.562 C47.046 3.153 49.567 2.802 52.125 2.5 C56 2 56 2 58.375 1.312 C58.911 1.209 59.447 1.106 60 1 C60.66 1.66 61.32 2.32 62 3 C62.99 3.33 63.98 3.66 65 4 C65 4.33 65 4.66 65 5 C57.281 5.046 49.561 5.082 41.842 5.104 C38.257 5.114 34.672 5.128 31.087 5.151 C27.625 5.173 24.163 5.185 20.7 5.19 C18.743 5.195 16.785 5.211 14.828 5.227 C13.627 5.227 12.426 5.227 11.189 5.227 C10.136 5.231 9.084 5.236 7.999 5.241 C4.736 4.979 2.054 4.152 -1 3 C-0.67 2.01 -0.34 1.02 0 0 Z " fill="#F5BF02" transform="translate(59,213)"/>
<path d="M0 0 C0.33 0 0.66 0 1 0 C1.33 3.3 1.66 6.6 2 10 C2.99 9.01 3.98 8.02 5 7 C8.622 6.222 12.304 6.163 16 6 C16.42 5.974 16.42 5.974 18.547 5.84 C23.217 5.66 26.205 5.94 30 9 C30 9.33 30 9.66 30 10 C29.695 10.007 29.695 10.007 28.152 10.044 C25.371 10.119 22.592 10.216 19.812 10.312 C18.853 10.335 17.893 10.358 16.904 10.381 C7.427 10.742 7.427 10.742 4 14 C3.074 16.699 3.074 16.699 2.688 19.688 C2.547 20.681 2.406 21.675 2.262 22.699 C2.175 23.458 2.089 24.218 2 25 C1.34 24.67 0.68 24.34 0 24 C0 16.08 0 8.16 0 0 Z " fill="#BF8919" transform="translate(92,155)"/>
<path d="M0 0 C0.48 -0.003 0.48 -0.003 2.906 -0.016 C5.5 0.25 5.5 0.25 8.5 2.25 C7.839 4.646 7.041 5.941 4.867 7.184 C-0.053 9.2 -4.208 9.706 -9.5 9.25 C-10.16 8.59 -10.82 7.93 -11.5 7.25 C-8.476 1.777 -6.315 -0.034 0 0 Z " fill="#F6E0A8" transform="translate(113.5,172.75)"/>
<path d="M0 0 C21.471 -1.166 21.471 -1.166 30.039 4.199 C32.267 6.245 33.579 8.344 35 11 C32.018 11.773 29.024 12.412 26 13 C27 11 27 11 30 10 C27 8 27 8 25 7.5 C23 7 23 7 20 5 C19.01 5 18.02 5 17 5 C16.67 5.66 16.34 6.32 16 7 C15.34 7 14.68 7 14 7 C13.34 5.68 12.68 4.36 12 3 C11.67 3.165 11.67 3.165 10 4 C10 3.34 10 2.68 10 2 C9.443 2.186 8.886 2.371 8.312 2.562 C5.557 3.084 3.677 2.796 1 2 C0.67 1.34 0.34 0.68 0 0 Z " fill="#FDE238" transform="translate(118,60)"/>
<path d="M0 0 C3.021 -0.081 6.041 -0.141 9.062 -0.188 C9.91 -0.213 10.758 -0.238 11.631 -0.264 C18.065 -0.338 22.668 0.605 28 4.438 C29 6 29 6 28.562 8.098 C28.377 8.725 28.191 9.353 28 10 C27.501 9.723 27.002 9.446 26.488 9.16 C19.762 5.767 13.465 5.231 6 5 C6 4.34 6 3.68 6 3 C3.69 2.67 1.38 2.34 -1 2 C-0.67 1.34 -0.34 0.68 0 0 Z " fill="#DA9607" transform="translate(94,153)"/>
<path d="M0 0 C0.66 0.33 1.32 0.66 2 1 C3.08 11.153 -4.136 19.271 -10 27 C-13.111 30.555 -15.478 32.579 -20 34 C-19.595 29.009 -17.393 27.026 -13.812 23.688 C-6.071 16.216 -1.299 10.934 0 0 Z M-22 34 C-21.67 34.165 -21.67 34.165 -20 35 C-20.33 35.165 -20.33 35.165 -22 36 C-22 35.34 -22 34.68 -22 34 Z " fill="#CEB175" transform="translate(172,192)"/>
<path d="M0 0 C0.66 0 1.32 0 2 0 C2.48 4.795 2.545 8.037 0.125 12.312 C-6.643 18.97 -14.608 19.309 -23.625 19.25 C-26.752 19.199 -29.875 19.118 -33 19 C-33 18.01 -33 17.02 -33 16 C-32.365 15.991 -31.73 15.981 -31.076 15.972 C-28.175 15.918 -25.275 15.834 -22.375 15.75 C-21.875 15.743 -21.875 15.743 -19.348 15.707 C-13.236 15.505 -9.713 14.955 -5 11 C-4.01 10.34 -3.02 9.68 -2 9 C-1.27 6.836 -1.27 6.836 -0.812 4.375 C-0.733 3.966 -0.733 3.966 -0.332 1.898 C-0.222 1.272 -0.113 0.645 0 0 Z " fill="#FDEB55" transform="translate(124,103)"/>
<path d="M0 0 C0.99 0 1.98 0 3 0 C4.125 6.75 4.125 6.75 3 9 C3.66 9 4.32 9 5 9 C4.958 9.344 4.958 9.344 4.746 11.082 C4.644 11.983 4.542 12.884 4.438 13.812 C4.333 14.706 4.229 15.599 4.121 16.52 C4 19 4 19 5 22 C5.466 32.091 5.466 32.091 2.371 36.121 C0.643 37.577 -1.06 38.845 -3 40 C-2.711 39.299 -2.423 38.597 -2.125 37.875 C0.047 32.324 1.243 28.093 0.977 22.07 C0.925 20.781 0.873 19.492 0.82 18.164 C0.755 16.818 0.69 15.471 0.625 14.125 C0.567 12.755 0.509 11.385 0.453 10.016 C0.312 6.677 0.161 3.338 0 0 Z " fill="#ECD8AA" transform="translate(169,97)"/>
<path d="M0 0 C2.337 3.761 2.652 7.757 3.125 12.062 C3.211 12.782 3.298 13.502 3.387 14.244 C3.73 17.181 4 20.041 4 23 C4.33 23.99 4.66 24.98 5 26 C4.104 28.637 3.152 31.134 2.062 33.688 C1.772 34.389 1.481 35.091 1.182 35.814 C0.463 37.547 -0.267 39.274 -1 41 C-1.99 41 -2.98 41 -4 41 C-3.795 40.443 -3.59 39.886 -3.379 39.312 C-0.307 30.611 0.527 22.204 0 13 C-0.33 12.34 -0.66 11.68 -1 11 C-1.095 9.315 -1.13 7.626 -1.125 5.938 C-1.128 5.039 -1.13 4.141 -1.133 3.215 C-1 1 -1 1 0 0 Z " fill="#EAD7AA" transform="translate(178,166)"/>
<path d="M0 0 C15.18 0.33 30.36 0.66 46 1 C45.67 1.99 45.34 2.98 45 4 C44.693 3.994 44.693 3.994 43.137 3.965 C42.733 3.96 42.733 3.96 40.688 3.938 C39.887 3.926 39.086 3.914 38.262 3.902 C36 4 36 4 33 5 C30.481 4.936 28.009 4.813 25.5 4.625 C24.79 4.576 24.081 4.527 23.35 4.477 C17.559 4.068 11.776 3.575 6 3 C6 2.34 6 1.68 6 1 C4.02 1 2.04 1 0 1 C0 0.67 0 0.34 0 0 Z " fill="#C9A765" transform="translate(70,226)"/>
<path d="M0 0 C0.66 0 1.32 0 2 0 C5.32 9.96 3.585 24.281 0 34 C-0.33 34.165 -0.33 34.165 -2 35 C-3.168 29.162 -2.815 25.717 -0.703 20.188 C0.319 17.007 0.212 14.314 0 11 C-0.99 11.66 -1.98 12.32 -3 13 C-3.66 12.67 -4.32 12.34 -5 12 C-5.66 12.66 -6.32 13.32 -7 14 C-7.33 13.01 -7.66 12.02 -8 11 C-4.25 9 -4.25 9 -2 9 C-1.34 6.03 -0.68 3.06 0 0 Z " fill="#F7C40A" transform="translate(170,154)"/>
<path d="M0 0 C-2.478 6.308 -9.245 9.9 -15 13 C-15.66 13 -16.32 13 -17 13 C-17 13.66 -17 14.32 -17 15 C-19.185 15.509 -21.373 16.007 -23.562 16.5 C-24.781 16.778 -25.999 17.057 -27.254 17.344 C-30.922 17.986 -34.285 18.115 -38 18 C-35.414 14.121 -33.455 13.955 -29 13 C-28.34 13.33 -27.68 13.66 -27 14 C-24.758 13.477 -24.758 13.477 -22.125 12.625 C-19.097 11.658 -16.094 10.734 -13 10 C-13 9.34 -13 8.68 -13 8 C-11.265 6.555 -9.46 5.191 -7.625 3.875 C-6.627 3.151 -5.63 2.426 -4.602 1.68 C-2 0 -2 0 0 0 Z " fill="#F5BE01" transform="translate(162,199)"/>
<path d="M0 0 C4.144 -0.05 8.288 -0.086 12.433 -0.11 C13.84 -0.12 15.247 -0.133 16.655 -0.151 C18.688 -0.175 20.721 -0.187 22.754 -0.195 C23.974 -0.206 25.194 -0.216 26.451 -0.227 C30.305 0.02 33.342 0.814 37 2 C36.67 2.66 36.34 3.32 36 4 C35.257 3.959 34.515 3.917 33.75 3.875 C30.912 4.004 29.412 4.571 27 6 C27.33 4.68 27.66 3.36 28 2 C24.688 1.812 24.688 1.812 21 2 C19.312 3.562 19.312 3.562 18 5 C15.812 4.688 15.812 4.688 14 4 C14.33 3.67 14.66 3.34 15 3 C11.858 2.401 8.955 2 5.75 2 C3 2 3 2 1 1 C0.67 1.99 0.34 2.98 0 4 C-1.32 4 -2.64 4 -4 4 C-4.33 4.99 -4.66 5.98 -5 7 C-5.66 6.67 -6.32 6.34 -7 6 C-6.688 4.062 -6.688 4.062 -6 2 C-3 1 -3 1 0 2 C0 1.34 0 0.68 0 0 Z " fill="#FDE438" transform="translate(80,58)"/>
<path d="M0 0 C3.859 1.286 4.978 2.48 7 6 C6.779 8.832 5.963 11.34 5 14 C4.67 14.99 4.34 15.98 4 17 C3.34 17 2.68 17 2 17 C2.33 17.99 2.66 18.98 3 20 C3 22.428 2.499 24.629 2 27 C1.34 27 0.68 27 0 27 C0 18.09 0 9.18 0 0 Z " fill="#FCE237" transform="translate(51,168)"/>
<path d="M0 0 C1.179 0.102 2.359 0.204 3.574 0.309 C4.478 0.392 5.381 0.476 6.312 0.562 C6.312 0.892 6.312 1.222 6.312 1.562 C5.711 1.648 5.711 1.648 2.664 2.078 C1.088 2.322 -0.487 2.567 -2.062 2.812 C-2.857 2.922 -3.651 3.032 -4.469 3.145 C-10.34 4.09 -10.34 4.09 -12.102 6.484 C-12.198 6.827 -12.198 6.827 -12.688 8.562 C-13.017 9.058 -13.017 9.058 -14.688 11.562 C-15.347 11.562 -16.008 11.562 -16.688 11.562 C-17.017 12.882 -17.347 14.203 -17.688 15.562 C-18.017 15.562 -18.347 15.562 -18.688 15.562 C-18.796 12.08 -18.663 8.921 -17.688 5.562 C-12.624 0.499 -6.909 -0.616 0 0 Z " fill="#FDEF6E" transform="translate(70.6875,56.4375)"/>
<path d="M0 0 C4.189 0.761 8.225 1.878 12.312 3.062 C12.94 3.244 12.94 3.244 16.113 4.16 C16.59 4.299 16.59 4.299 19 5 C19 5.66 19 6.32 19 7 C21.31 7 23.62 7 26 7 C24 9 24 9 22.152 9.266 C10.877 9.186 10.877 9.186 6 7 C4.746 4.922 4.746 4.922 4 3 C3.01 3.33 2.02 3.66 1 4 C0.67 2.68 0.34 1.36 0 0 Z " fill="#E3A609" transform="translate(50,213)"/>
<path d="M0 0 C-0.188 1.812 -0.188 1.812 -1 4 C-4.964 7.032 -7.894 7.337 -12.812 7.188 C-13.393 7.174 -13.393 7.174 -16.332 7.105 C-17.212 7.071 -18.093 7.036 -19 7 C-14.695 0.406 -7.423 -0.474 0 0 Z " fill="#F4E0AE" transform="translate(119,110)"/>
<path d="M0 0 C0.66 0 1.32 0 2 0 C4.325 5.51 4.234 10.511 4.125 16.375 C4.116 17.302 4.107 18.229 4.098 19.184 C4.074 21.456 4.041 23.728 4 26 C3.34 26.33 2.68 26.66 2 27 C1.67 26.34 1.34 25.68 1 25 C0.34 25.99 -0.32 26.98 -1 28 C-1.66 26.35 -2.32 24.7 -3 23 C-2.01 23 -1.02 23 0 23 C0 15.41 0 7.82 0 0 Z " fill="#F2BF14" transform="translate(162,84)"/>
<path d="M0 0 C5.61 0 11.22 0 17 0 C17 0.33 17 0.66 17 1 C12.05 1 7.1 1 2 1 C2 1.66 2 2.32 2 3 C3.052 2.959 4.104 2.917 5.188 2.875 C8.74 2.991 10.849 3.472 14 5 C12.625 7 12.625 7 11 9 C10.34 9 9.68 9 9 9 C8.67 9.66 8.34 10.32 8 11 C6.35 10.67 4.7 10.34 3 10 C2.897 9.237 2.794 8.474 2.688 7.688 C1.956 4.829 1.23 3.843 -1 2 C-0.67 1.34 -0.34 0.68 0 0 Z M-1 4 C-0.67 4.66 -0.34 5.32 0 6 C-0.66 5.67 -1.32 5.34 -2 5 C-1.67 4.67 -1.34 4.34 -1 4 Z " fill="#FDE125" transform="translate(92,183)"/>
<path d="M0 0 C0.99 0.33 1.98 0.66 3 1 C2.67 1.33 2.34 1.66 2 2 C1.913 3.854 1.893 5.711 1.902 7.566 C1.906 8.691 1.909 9.816 1.912 10.975 C1.92 12.159 1.929 13.343 1.938 14.562 C1.942 15.75 1.947 16.938 1.951 18.162 C1.963 21.108 1.979 24.054 2 27 C1.01 27 0.02 27 -1 27 C-2.818 21.01 -3.121 15.755 -2.75 9.562 C-2.711 8.852 -2.673 8.142 -2.633 7.41 C-2.256 2.256 -2.256 2.256 0 0 Z " fill="#F5BF02" transform="translate(91,153)"/>
<path d="M0 0 C1.65 0.33 3.3 0.66 5 1 C5 2.32 5 3.64 5 5 C5.99 4.67 6.98 4.34 8 4 C7.625 6.437 7.625 6.437 7 9 C6.67 9.165 6.67 9.165 5 10 C4.01 10.66 3.02 11.32 2 12 C1.67 10.35 1.34 8.7 1 7 C0.608 7.928 0.216 8.856 -0.188 9.812 C-2.175 13.307 -3.389 14.367 -7 16 C-9.812 16.688 -9.812 16.688 -12 17 C-10.21 14.927 -9.168 14.05 -6.5 13.25 C-2.77 11.385 -2.304 8.847 -1 5 C-0.312 2.062 -0.312 2.062 0 0 Z " fill="#FCE02D" transform="translate(127,165)"/>
<path d="M0 0 C0.66 0.33 1.32 0.66 2 1 C0.961 7.111 -0.157 13.077 -2 19 C-3.98 17.68 -5.96 16.36 -8 15 C-6.627 11.301 -4.936 8.049 -2.875 4.688 C-2.336 3.804 -1.797 2.921 -1.242 2.012 C-0.832 1.348 -0.422 0.684 0 0 Z " fill="#CBAA65" transform="translate(163,121)"/>
<path d="M0 0 C0.33 0.66 0.66 1.32 1 2 C-0.145 4.242 -0.145 4.242 -1.812 6.875 C-3.692 9.866 -5.479 12.81 -7 16 C-7.825 15.67 -7.825 15.67 -12 14 C-12 12.68 -12 11.36 -12 10 C-11.34 10 -10.68 10 -10 10 C-10 9.01 -10 8.02 -10 7 C-7 4.812 -7 4.812 -4 3 C-3.67 3.66 -3.34 4.32 -3 5 C-2.01 3.35 -1.02 1.7 0 0 Z " fill="#BC8007" transform="translate(163,119)"/>
<path d="M0 0 C-0.33 0.66 -0.66 1.32 -1 2 C-1.99 1.67 -2.98 1.34 -4 1 C-6.662 0.826 -9.274 0.723 -11.938 0.688 C-12.296 0.673 -12.296 0.673 -14.107 0.6 C-17.574 0.558 -19.578 0.685 -22.395 2.785 C-23.831 4.767 -24.875 6.475 -25.75 8.75 C-26.162 9.822 -26.575 10.895 -27 12 C-26.01 12.33 -25.02 12.66 -24 13 C-24.99 12.835 -24.99 12.835 -30 12 C-26.916 2.817 -26.916 2.817 -23.688 -0.062 C-16.423 -2.596 -7.036 -3.631 0 0 Z " fill="#DBB55F" transform="translate(124,169)"/>
<path d="M0 0 C0 0.66 0 1.32 0 2 C0.66 2 1.32 2 2 2 C4.441 7.644 4.193 12.978 4 19 C3.67 19 3.34 19 3 19 C2.89 18.096 2.781 17.193 2.668 16.262 C2.509 15.082 2.351 13.903 2.188 12.688 C2.037 11.516 1.886 10.344 1.73 9.137 C0.974 5.89 0.718 4.822 -2 3 C-7.173 0.689 -12.304 0.576 -17.875 0.375 C-18.754 0.336 -19.633 0.298 -20.539 0.258 C-22.692 0.164 -24.846 0.081 -27 0 C-27 -0.33 -27 -0.66 -27 -1 C-17.604 -2.599 -9.325 -1.952 0 0 Z " fill="#EEB306" transform="translate(121,153)"/>
<path d="M0 0 C-0.33 1.32 -0.66 2.64 -1 4 C-1 3.01 -1 2.02 -1 1 C-15.685 0.276 -15.685 0.276 -21 5 C-21.66 5 -22.32 5 -23 5 C-23.072 5.392 -23.072 5.392 -23.438 7.375 C-24 10 -24 10 -25 12 C-25.66 11.67 -26.32 11.34 -27 11 C-25.744 6.5 -24.422 3.242 -21 0 C-14.068 -2.915 -6.949 -2.712 0 0 Z " fill="#D1A64F" transform="translate(120,105)"/>
<path d="M0 0 C-0.299 0.093 -0.299 0.093 -1.812 0.562 C-5.1 2.723 -5.649 5.351 -7 9 C-7.66 9 -8.32 9 -9 9 C-9 7.68 -9 6.36 -9 5 C-9.33 5.66 -9.66 6.32 -10 7 C-10.99 7 -11.98 7 -13 7 C-13.33 7.495 -13.33 7.495 -15 10 C-15.99 10 -16.98 10 -18 10 C-18 9.01 -18 8.02 -18 7 C-17.34 7 -16.68 7 -16 7 C-15.711 6.381 -15.422 5.763 -15.125 5.125 C-13.893 2.798 -12.883 1.34 -10.375 0.375 C-6.898 -0.174 -3.519 -0.059 0 0 Z " fill="#FDE439" transform="translate(72,61)"/>
<path d="M0 0 C0 0.66 0 1.32 0 2 C-4.95 2 -9.9 2 -15 2 C-15 2.66 -15 3.32 -15 4 C-15.639 4.454 -16.279 4.907 -16.938 5.375 C-19.268 7.211 -19.604 8.129 -20 11 C-21.32 11 -22.64 11 -24 11 C-23.439 7.421 -23.02 5.03 -20.438 2.422 C-14.042 -2.066 -7.36 -2.059 0 0 Z " fill="#DDB869" transform="translate(119,106)"/>
<path d="M0 0 C6.5 0.13 9.598 2.624 14 7 C13.34 8.32 12.68 9.64 12 11 C8.244 8.79 4.537 6.55 1 4 C1 3.34 1 2.68 1 2 C0.34 1.67 -0.32 1.34 -1 1 C-0.67 0.67 -0.34 0.34 0 0 Z " fill="#FCE12C" transform="translate(150,135)"/>
<path d="M0 0 C0.485 0.01 0.485 0.01 2.938 0.062 C2.938 0.722 2.938 1.382 2.938 2.062 C4.588 1.403 6.237 0.743 7.938 0.062 C7.001 2.405 6.357 3.788 4.219 5.188 C1.411 6.264 -0.814 6.259 -3.812 6.188 C-4.797 6.169 -5.782 6.151 -6.797 6.133 C-7.171 6.121 -7.171 6.121 -9.062 6.062 C-3.062 0.062 -3.062 0.062 0 0 Z " fill="#F9E8B9" transform="translate(114.0625,174.9375)"/>
<path d="M0 0 C0.716 -0.003 1.432 -0.006 2.17 -0.01 C5.942 0.029 8.864 0.216 12.062 2.312 C11.733 3.632 11.403 4.952 11.062 6.312 C11.062 5.322 11.062 4.333 11.062 3.312 C-6.148 1.932 -6.148 1.932 -10.535 5.316 C-12 7.617 -13.09 9.724 -13.938 12.312 C-14.267 11.322 -14.597 10.333 -14.938 9.312 C-13.188 6.312 -13.188 6.312 -10.938 3.312 C-10.56 2.762 -10.182 2.212 -9.793 1.645 C-6.805 -0.501 -3.535 -0.079 0 0 Z " fill="#E6C478" transform="translate(111.9375,168.6875)"/>
<path d="M0 0 C0.33 0 0.66 0 1 0 C0.78 5.497 -0.406 8.061 -4.234 11.738 C-8.79 14.994 -12.802 15.228 -18.312 15.125 C-19.567 15.107 -20.821 15.089 -22.113 15.07 C-23.066 15.047 -24.019 15.024 -25 15 C-25 14.67 -25 14.34 -25 14 C-24.385 13.867 -23.77 13.734 -23.137 13.598 C-22.328 13.421 -21.52 13.244 -20.688 13.062 C-19.887 12.888 -19.086 12.714 -18.262 12.535 C-16 12 -16 12 -13 11 C-12.216 10.876 -11.433 10.752 -10.625 10.625 C-7.467 9.873 -5.559 9.02 -3 7 C-1.718 4.707 -0.892 2.489 0 0 Z " fill="#FDEB59" transform="translate(128,170)"/>
<path d="M0 0 C2.31 0.33 4.62 0.66 7 1 C7 1.66 7 2.32 7 3 C11.29 3 15.58 3 20 3 C20.33 3.66 20.66 4.32 21 5 C17.535 5.165 17.535 5.165 0 6 C0 4.02 0 2.04 0 0 Z " fill="#A46103" transform="translate(93,155)"/>
<path d="M0 0 C2.75 -0.027 5.5 -0.047 8.25 -0.062 C9.027 -0.071 9.805 -0.079 10.605 -0.088 C10.983 -0.09 10.983 -0.09 12.891 -0.098 C13.236 -0.1 13.236 -0.1 14.985 -0.114 C17.1 0.006 18.966 0.424 21 1 C21 2.32 21 3.64 21 5 C15.06 4.34 9.12 3.68 3 3 C3 2.34 3 1.68 3 1 C2.01 0.67 1.02 0.34 0 0 Z " fill="#C27C03" transform="translate(97,155)"/>
<path d="M0 0 C8.568 -0.61 15.311 -0.966 22.559 4.199 C24.445 6.556 24.286 8.06 24 11 C21.36 9.35 18.72 7.7 16 6 C16.33 5.01 16.66 4.02 17 3 C11.39 2.34 5.78 1.68 0 1 C0 0.67 0 0.34 0 0 Z " fill="#CF8601" transform="translate(96,91)"/>
<path d="M0 0 C0.402 0.01 0.402 0.01 2.438 0.062 C2.767 1.052 3.097 2.043 3.438 3.062 C5.418 2.733 7.398 2.403 9.438 2.062 C9.767 3.052 10.097 4.043 10.438 5.062 C3.177 4.733 -4.082 4.403 -11.562 4.062 C-11.892 3.073 -12.222 2.082 -12.562 1.062 C-11.924 1.074 -11.286 1.086 -10.629 1.098 C-9.803 1.107 -8.976 1.116 -8.125 1.125 C-7.713 1.131 -7.713 1.131 -5.629 1.16 C-2.929 1.033 -2.878 0.07 0 0 Z " fill="#FBD00C" transform="translate(105.5625,84.9375)"/>
<path d="M0 0 C0.33 0 0.66 0 1 0 C0.681 12.851 -4.066 23.77 -13 33 C-13.33 33.165 -13.33 33.165 -15 34 C-13.933 30.585 -12.412 28.176 -10.188 25.438 C-4.442 17.992 -1.677 9.148 0 0 Z " fill="#986E28" transform="translate(174,178)"/>
<path d="M0 0 C1.395 0.007 2.789 0.019 4.184 0.035 C4.895 0.04 5.605 0.044 6.338 0.049 C8.099 0.061 9.86 0.079 11.621 0.098 C11.621 0.428 11.621 0.758 11.621 1.098 C11.105 1.232 11.105 1.232 8.496 1.91 C4.966 2.916 1.865 4.368 -1.379 6.098 C-2.712 6.764 -4.046 7.431 -5.379 8.098 C-4.364 0.126 -4.364 0.126 0 0 Z " fill="#B0770C" transform="translate(98.37890625,97.90234375)"/>
<path d="M0 0 C0.33 0 0.66 0 1 0 C2.991 10.212 3.83 23.43 -1 33 C-1.33 33.165 -1.33 33.165 -3 34 C-2.125 27.125 -2.125 27.125 -1 26 C-0.002 17.364 0.143 8.684 0 0 Z " fill="#DAC28C" transform="translate(167,100)"/>
<path d="M0 0 C6.27 0 12.54 0 19 0 C19.33 0.99 19.66 1.98 20 3 C13.4 3 6.8 3 0 3 C0 2.01 0 1.02 0 0 Z " fill="#FDE842" transform="translate(91,119)"/>
<path d="M0 0 C2.388 2.388 2.313 3.229 2.562 6.5 C2.905 10.811 2.905 10.811 4 13 C4.367 19.403 3.955 25.67 3 32 C2.67 32 2.34 32 2 32 C1.34 21.44 0.68 10.88 0 0 Z " fill="#E2CD9A" transform="translate(175,166)"/>
<path d="M0 0 C4.824 -0.193 8.496 0.243 13 2 C9.251 4.441 5.506 4.298 1.188 4.25 C0.501 4.258 -0.185 4.265 -0.893 4.273 C-5.61 4.256 -9.52 3.476 -14 2 C-14 1.67 -14 1.34 -14 1 C-9.38 1 -4.76 1 0 1 C0 0.67 0 0.34 0 0 Z " fill="#FDE642" transform="translate(124,57)"/>
<path d="M0 0 C1.253 0.084 2.506 0.168 3.797 0.254 C5.448 0.357 7.099 0.46 8.75 0.562 C9.575 0.619 10.4 0.675 11.25 0.732 C11.65 0.757 11.65 0.757 13.672 0.879 C14.038 0.902 14.038 0.902 15.894 1.022 C18.087 0.999 19.883 0.535 22 0 C24.75 0.438 24.75 0.438 27 1 C23.334 3.444 20.551 3.304 16.312 3.25 C15.595 3.246 14.878 3.242 14.139 3.238 C9.104 3.156 4.76 2.587 0 1 C0 0.67 0 0.34 0 0 Z " fill="#D0B070" transform="translate(87,229)"/>
<path d="M0 0 C0.66 0 1.32 0 2 0 C1.733 5.347 -0.35 8.176 -3.625 12.168 C-5 14 -5 14 -6 17 C-6.66 17 -7.32 17 -8 17 C-8.33 18.32 -8.66 19.64 -9 21 C-9.66 20.67 -10.32 20.34 -11 20 C-10.387 17.038 -9.746 15.619 -8 13 C-7.34 13 -6.68 13 -6 13 C-5.67 11.68 -5.34 10.36 -5 9 C-4.34 9 -3.68 9 -3 9 C-2.67 7.68 -2.34 6.36 -2 5 C-1.34 5 -0.68 5 0 5 C0 3.35 0 1.7 0 0 Z " fill="#F8C403" transform="translate(159,112)"/>
<path d="M0 0 C3.292 0.11 6.584 0.24 9.875 0.375 C10.812 0.406 11.749 0.437 12.715 0.469 C13.611 0.507 14.507 0.546 15.43 0.586 C15.843 0.602 15.843 0.602 17.937 0.681 C20 1 20 1 22 3 C21.67 3.66 21.34 4.32 21 5 C20.143 4.867 19.286 4.734 18.402 4.598 C17.831 4.509 17.831 4.509 14.938 4.062 C13.755 3.878 12.573 3.694 11.355 3.504 C8.821 3.123 6.295 2.793 3.75 2.5 C2.843 2.335 1.935 2.17 1 2 C0.67 1.34 0.34 0.68 0 0 Z " fill="#EBD8AB" transform="translate(93,237)"/>
<path d="M0 0 C6.93 0.33 13.86 0.66 21 1 C21 1.33 21 1.66 21 2 C20.392 2.072 20.392 2.072 17.312 2.438 C14.885 2.733 12.579 3.094 10.188 3.625 C8 4 8 4 5 3 C3.336 2.652 1.67 2.316 0 2 C0 1.34 0 0.68 0 0 Z " fill="#FDE841" transform="translate(94,184)"/>
<path d="M0 0 C0 0.66 0 1.32 0 2 C0.66 2.33 1.32 2.66 2 3 C0.719 4.707 -0.618 6.374 -2 8 C-2.66 8 -3.32 8 -4 8 C-4.33 9.32 -4.66 10.64 -5 12 C-5.33 12 -5.66 12 -6 12 C-5.913 10.374 -5.805 8.749 -5.688 7.125 C-5.629 6.22 -5.571 5.315 -5.512 4.383 C-4.819 1.157 -3.346 0 0 0 Z " fill="#FDEC6D" transform="translate(58,60)"/>
<path d="M0 0 C2.648 5.296 2.648 5.296 2 9 C-0.5 11.312 -0.5 11.312 -3 13 C-3.66 12.67 -4.32 12.34 -5 12 C-5.66 12.66 -6.32 13.32 -7 14 C-7.33 13.01 -7.66 12.02 -8 11 C-4.25 9 -4.25 9 -2 9 C-1.34 6.03 -0.68 3.06 0 0 Z " fill="#FCD00B" transform="translate(170,154)"/>
<path d="M0 0 C0.33 0.66 0.66 1.32 1 2 C-0.299 1.938 -1.599 1.876 -2.938 1.812 C-9.194 1.822 -14.745 3.075 -19.562 7.188 C-19.8 7.487 -19.8 7.487 -21 9 C-21 5 -21 5 -18.875 2.812 C-13.086 -0.837 -6.625 -0.118 0 0 Z " fill="#C49430" transform="translate(115,102)"/>
<path d="M0 0 C0.66 0.33 1.32 0.66 2 1 C-0.706 5.684 -2.873 8.105 -8 10 C-8.66 9.67 -9.32 9.34 -10 9 C-9.01 8.34 -8.02 7.68 -7 7 C-7.33 6.34 -7.66 5.68 -8 5 C-6.715 4.136 -5.422 3.284 -4.125 2.438 C-3.765 2.2 -3.765 2.2 -1.945 0.996 C-1.303 0.667 -0.661 0.339 0 0 Z " fill="#E4A502" transform="translate(153,207)"/>
<path d="M0 0 C0.66 0 1.32 0 2 0 C3.125 6.75 3.125 6.75 2 9 C2.66 9 3.32 9 4 9 C3.67 11.97 3.34 14.94 3 18 C2.67 18 2.34 18 2 18 C1.34 12.06 0.68 6.12 0 0 Z " fill="#F1DFB5" transform="translate(170,97)"/>
<path d="M0 0 C0.66 0 1.32 0 2 0 C2 0.66 2 1.32 2 2 C1.01 1.67 0.02 1.34 -1 1 C-0.67 0.67 -0.34 0.34 0 0 Z M-6 0 C-5.175 0.33 -5.175 0.33 -1 2 C-1 2.33 -1 2.66 -1 3 C-2.79 3.222 -4.582 3.427 -6.375 3.625 C-7.373 3.741 -8.37 3.857 -9.398 3.977 C-10.257 3.984 -11.115 3.992 -12 4 C-12.66 3.34 -13.32 2.68 -14 2 C-12.866 1.856 -11.731 1.711 -10.562 1.562 C-7 1 -7 1 -6 0 Z " fill="#D1B376" transform="translate(130,229)"/>
<path d="M0 0 C1.091 0.023 2.181 0.046 3.305 0.07 C4.4 0.088 5.496 0.106 6.625 0.125 C7.468 0.148 8.311 0.171 9.18 0.195 C9.18 0.525 9.18 0.855 9.18 1.195 C8.576 1.233 7.973 1.27 7.352 1.309 C-1.102 2.004 -1.102 2.004 -3.82 5.195 C-3.82 6.515 -3.82 7.835 -3.82 9.195 C-5.14 9.525 -6.46 9.855 -7.82 10.195 C-7.369 8.901 -6.909 7.61 -6.445 6.32 C-6.19 5.601 -5.935 4.882 -5.672 4.141 C-4.299 1.006 -3.446 0.239 0 0 Z " fill="#F0D698" transform="translate(107.8203125,171.8046875)"/>
<path d="M0 0 C2 3.75 2 3.75 2 6 C2.99 5.67 3.98 5.34 5 5 C5.289 5.639 5.578 6.279 5.875 6.938 C7 9 7 9 9 10 C9 10.66 9 11.32 9 12 C2.447 10.544 2.447 10.544 0.562 8.25 C-0.139 5.442 -0.131 2.882 0 0 Z " fill="#F7C20F" transform="translate(48,203)"/>
<path d="M0 0 C0.33 0.66 0.66 1.32 1 2 C0.34 1.67 -0.32 1.34 -1 1 C-0.67 0.67 -0.34 0.34 0 0 Z M-3 3 C-2.67 3.99 -2.34 4.98 -2 6 C-2.33 6.165 -2.33 6.165 -4 7 C-4.33 7.99 -4.66 8.98 -5 10 C-6.956 11.397 -8.954 12.738 -11 14 C-9.465 9.522 -7.391 5.196 -3 3 Z " fill="#FCD308" transform="translate(158,115)"/>
<path d="M0 0 C0.66 0.33 1.32 0.66 2 1 C1.67 1.66 1.34 2.32 1 3 C0.381 2.835 -0.237 2.67 -0.875 2.5 C-5.255 1.799 -9.574 1.923 -14 2 C-14 1.34 -14 0.68 -14 0 C-9.209 -1.597 -4.742 -1.581 0 0 Z " fill="#E8C883" transform="translate(118,108)"/>
<path d="M0 0 C4.833 0.414 6.827 2.464 10 6 C8.68 6.33 7.36 6.66 6 7 C5.34 5.68 4.68 4.36 4 3 C3.01 3.33 2.02 3.66 1 4 C0.67 2.68 0.34 1.36 0 0 Z " fill="#EBB219" transform="translate(50,213)"/>
<path d="M0 0 C1.403 3.189 0.904 4.253 -0.375 7.625 C-1.24 9.422 -2.108 11.217 -3 13 C-3.99 12.01 -4.98 11.02 -6 10 C-4.071 6.592 -2.172 3.259 0 0 Z " fill="#BC9748" transform="translate(161,125)"/>
<path d="M0 0 C0.66 0.33 0.66 0.33 4 2 C4 2.99 4 3.98 4 5 C4.66 5 5.32 5 6 5 C6.66 6.65 7.32 8.3 8 10 C7.01 10 6.02 10 5 10 C4.67 8.68 4.34 7.36 4 6 C3.34 6 2.68 6 2 6 C2 5.01 2 4.02 2 3 C1.34 3 0.68 3 0 3 C0 2.01 0 1.02 0 0 Z " fill="#EBD8AC" transform="translate(54,220)"/>
<path d="M0 0 C3.3 0.33 6.6 0.66 10 1 C10 2.32 10 3.64 10 5 C5.846 3.773 3.563 2.672 0 0 Z " fill="#CA8405" transform="translate(108,155)"/>
<path d="M0 0 C2.956 2.752 5.116 5.42 7 9 C7 9.66 7 10.32 7 11 C6.34 11 5.68 11 5 11 C5 10.34 5 9.68 5 9 C4.01 9 3.02 9 2 9 C1.34 6.03 0.68 3.06 0 0 Z " fill="#F7CC25" transform="translate(164,143)"/>
<path d="M0 0 C0.66 0.33 1.32 0.66 2 1 C1.567 1.516 1.134 2.031 0.688 2.562 C-1.403 5.582 -2.625 8.596 -4 12 C-4.66 11.67 -5.32 11.34 -6 11 C-4.742 6.492 -3.096 3.509 0 0 Z " fill="#CB9F44" transform="translate(99,105)"/>
<path d="M0 0 C0.99 0.33 1.98 0.66 3 1 C2.361 1.412 1.721 1.825 1.062 2.25 C-1.21 4.178 -1.602 5.114 -2 8 C-3.32 8 -4.64 8 -6 8 C-5.67 6.68 -5.34 5.36 -5 4 C-4.34 4 -3.68 4 -3 4 C-3 3.34 -3 2.68 -3 2 C-2.01 1.34 -1.02 0.68 0 0 Z " fill="#DEBC76" transform="translate(101,109)"/>
<path d="M0 0 C2.417 -0.081 4.832 -0.141 7.25 -0.188 C7.932 -0.213 8.614 -0.238 9.316 -0.264 C12.592 -0.311 14.653 -0.211 17.484 1.512 C17.985 2.003 18.485 2.494 19 3 C18.546 2.928 18.546 2.928 16.25 2.562 C10.86 1.785 5.428 1.419 0 1 C0 0.67 0 0.34 0 0 Z " fill="#D79005" transform="translate(96,91)"/>
<path d="M0 0 C2.02 0.602 4.021 1.273 6 2 C6.33 2.66 6.66 3.32 7 4 C7.99 4.66 8.98 5.32 10 6 C8.02 6 6.04 6 4 6 C3.67 5.01 3.34 4.02 3 3 C2.01 2.67 1.02 2.34 0 2 C0 1.34 0 0.68 0 0 Z " fill="#D7BE87" transform="translate(61,224)"/>
<path d="M0 0 C3.719 0.507 6.735 1.116 10 3 C3.375 4.125 3.375 4.125 0 3 C0 2.01 0 1.02 0 0 Z " fill="#FDE851" transform="translate(127,57)"/>
<path d="M0 0 C-3.204 2.136 -4.019 2.231 -7.688 2.125 C-8.092 2.116 -8.092 2.116 -10.137 2.07 C-10.444 2.059 -10.444 2.059 -12 2 C-8.638 -1.362 -4.396 -1.522 0 0 Z " fill="#FAEFC8" transform="translate(119,179)"/>
<path d="M0 0 C0.99 0.33 1.98 0.66 3 1 C3.33 2.32 3.66 3.64 4 5 C2.515 5.165 2.515 5.165 -5 6 C-4 4 -4 4 -1 3 C-0.67 2.01 -0.34 1.02 0 0 Z " fill="#FDE02C" transform="translate(149,67)"/>
<path d="M0 0 C2.6 3.9 2.151 7.474 2 12 C-0.585 8.123 -0.628 5.615 -1 1 C-0.67 0.67 -0.34 0.34 0 0 Z " fill="#EFDDB3" transform="translate(178,166)"/>
<path d="M0 0 C0.66 0.165 0.66 0.165 4 1 C4.33 2.65 4.66 4.3 5 6 C3.02 4.68 1.04 3.36 -1 2 C-0.67 1.34 -0.34 0.68 0 0 Z " fill="#D48E03" transform="translate(118,157)"/>
<path d="M0 0 C7.429 -0.286 7.429 -0.286 11 2 C7.998 3.001 6.124 3.312 3 3 C1.188 1.5 1.188 1.5 0 0 Z " fill="#EAD5A6" transform="translate(75,235)"/>
<path d="M0 0 C0.362 0.097 0.362 0.097 2.195 0.59 C2.75 0.746 3.304 0.902 3.875 1.062 C3.875 1.393 3.875 1.722 3.875 2.062 C0.575 2.062 -2.725 2.062 -6.125 2.062 C-6.125 1.403 -6.125 0.743 -6.125 0.062 C-3.578 -1.211 -2.697 -0.739 0 0 Z " fill="#E7AB11" transform="translate(64.125,218.9375)"/>
<path d="M0 0 C0.66 0.66 1.32 1.32 2 2 C-0.31 4.64 -2.62 7.28 -5 10 C-5 6.604 -4.478 5.934 -2.5 3.312 C-2.036 2.69 -1.572 2.067 -1.094 1.426 C-0.733 0.955 -0.372 0.485 0 0 Z " fill="#8F6319" transform="translate(165,202)"/>
<path d="M0 0 C3 2 3 2 3.512 4.164 C3.57 4.976 3.628 5.788 3.688 6.625 C3.753 7.442 3.819 8.26 3.887 9.102 C3.924 9.728 3.961 10.355 4 11 C3.34 11 2.68 11 2 11 C2 9.02 2 7.04 2 5 C1.34 5 0.68 5 0 5 C0 3.35 0 1.7 0 0 Z " fill="#FDDF27" transform="translate(124,98)"/>
<path d="M0 0 C1.32 1.32 2.64 2.64 4 4 C2.35 4.33 0.7 4.66 -1 5 C-1.33 3.68 -1.66 2.36 -2 1 C-1.34 0.67 -0.68 0.34 0 0 Z " fill="#FCE028" transform="translate(63,153)"/>
<path d="M0 0 C2.062 0.438 2.062 0.438 4 1 C3.381 1.598 2.763 2.196 2.125 2.812 C0 5 0 5 -2 8 C-1.125 1.125 -1.125 1.125 0 0 Z " fill="#A46A06" transform="translate(95,98)"/>
<path d="M0 0 C2 1 2 1 3 3 C1.02 3.66 -0.96 4.32 -3 5 C-3.33 4.01 -3.66 3.02 -4 2 C-2.125 0.938 -2.125 0.938 0 0 Z " fill="#FDF080" transform="translate(61,57)"/>
<path d="M0 0 C0 0.99 0 1.98 0 3 C-1.65 3.66 -3.3 4.32 -5 5 C-5.33 4.34 -5.66 3.68 -6 3 C-4.02 2.01 -2.04 1.02 0 0 Z " fill="#D0B377" transform="translate(140,227)"/>
<path d="M0 0 C0.99 0 1.98 0 3 0 C3 0.66 3 1.32 3 2 C2.34 2 1.68 2 1 2 C0.67 3.32 0.34 4.64 0 6 C-0.66 5.67 -1.32 5.34 -2 5 C-1.125 1.125 -1.125 1.125 0 0 Z " fill="#F1BA04" transform="translate(150,127)"/>
<path d="M0 0 C0.66 0.33 1.32 0.66 2 1 C1.67 1.66 1.34 2.32 1 3 C0.34 3 -0.32 3 -1 3 C-1.33 4.32 -1.66 5.64 -2 7 C-2.33 7 -2.66 7 -3 7 C-3 5.02 -3 3.04 -3 1 C-2.01 0.67 -1.02 0.34 0 0 Z " fill="#FDE95D" transform="translate(55,65)"/>
</svg>
