<?xml version="1.0" encoding="UTF-8"?>
<!-- Generator: visioncortex VTracer 0.6.12 -->
<svg version="1.1" xmlns="http://www.w3.org/2000/svg" width="207" height="255">
<path d="M0 0 C68.31 0 136.62 0 207 0 C207 84.15 207 168.3 207 255 C138.69 255 70.38 255 0 255 C0 170.85 0 86.7 0 0 Z " fill="#FCF5DB" transform="translate(0,0)"/>
<path d="M0 0 C7.368 5.601 13.9 11.969 15.527 21.391 C15.909 30.405 13.884 36.971 8.285 43.992 C3.316 49.377 -1.847 51.978 -9.195 52.617 C-15.622 52.493 -19.955 49.35 -25.027 45.777 C-31.237 42.007 -38.987 42.276 -46.07 42.93 C-52.283 44.675 -57.182 48.876 -61.07 53.93 C-66.517 63.7 -67.913 75.079 -65.352 85.992 C-62.449 93.67 -58.538 98.647 -51.035 102.168 C-43.114 105.239 -35.299 104.677 -27.562 101.352 C-24.756 99.75 -22.594 97.841 -20.195 95.68 C-15.489 91.727 -12.057 90.887 -5.961 91.348 C2.388 93.029 8.164 98.033 12.93 104.93 C16.753 111.325 16.829 118.689 15.93 125.93 C12.448 137.586 2.306 147.14 -8.07 152.93 C-27.537 162.122 -47.824 163.462 -68.395 156.863 C-71.374 155.683 -74.212 154.378 -77.07 152.93 C-78.065 152.426 -79.061 151.922 -80.086 151.402 C-99.21 140.982 -111.04 123.493 -117.293 102.938 C-124.105 76.581 -121.211 48.566 -107.379 25.055 C-105.71 22.576 -103.955 20.248 -102.07 17.93 C-101.404 17.101 -100.737 16.272 -100.051 15.418 C-75.06 -13.986 -32.298 -21.778 0 0 Z " fill="#9ECB1B" transform="translate(155.0703125,66.0703125)"/>
<path d="M0 0 C8.062 6.144 8.062 6.144 9.441 10.852 C9.545 11.821 9.648 12.79 9.754 13.789 C8.702 14.057 7.65 14.325 6.566 14.602 C2.754 15.789 2.754 15.789 -0.059 17.477 C-0.78 17.91 -1.502 18.343 -2.246 18.789 C-2.906 18.459 -3.566 18.129 -4.246 17.789 C-3.256 16.469 -2.266 15.149 -1.246 13.789 C-2.236 13.789 -3.226 13.789 -4.246 13.789 C-4.576 15.109 -4.906 16.429 -5.246 17.789 C-5.906 17.789 -6.566 17.789 -7.246 17.789 C-7.246 19.109 -7.246 20.429 -7.246 21.789 C-9.684 21.414 -9.684 21.414 -12.246 20.789 C-12.576 20.129 -12.906 19.469 -13.246 18.789 C-12.916 18.129 -12.586 17.469 -12.246 16.789 C-11.586 16.789 -10.926 16.789 -10.246 16.789 C-9.315 14.183 -9.097 13.147 -10.184 10.539 C-10.534 9.962 -10.885 9.384 -11.246 8.789 C-12.236 9.779 -13.226 10.769 -14.246 11.789 C-14.906 11.459 -15.566 11.129 -16.246 10.789 C-18.385 12.928 -18.673 13.922 -19.246 16.789 C-20.236 16.789 -21.226 16.789 -22.246 16.789 C-22.246 16.129 -22.246 15.469 -22.246 14.789 C-22.906 15.119 -23.566 15.449 -24.246 15.789 C-24.246 16.779 -24.246 17.769 -24.246 18.789 C-23.586 19.119 -22.926 19.449 -22.246 19.789 C-22.246 20.449 -22.246 21.109 -22.246 21.789 C-24.556 22.779 -26.866 23.769 -29.246 24.789 C-29.246 23.799 -29.246 22.809 -29.246 21.789 C-29.411 22.119 -29.411 22.119 -30.246 23.789 C-30.659 23.933 -30.659 23.933 -32.746 24.664 C-35.246 25.789 -35.246 25.789 -36.059 27.914 C-36.09 28.223 -36.09 28.223 -36.246 29.789 C-37.566 29.789 -38.886 29.789 -40.246 29.789 C-40.906 29.129 -41.566 28.469 -42.246 27.789 C-42.731 27.954 -42.731 27.954 -45.184 28.789 C-48.073 29.732 -48.491 29.789 -51.246 29.789 C-51.576 30.779 -51.906 31.769 -52.246 32.789 C-54.226 32.129 -56.206 31.469 -58.246 30.789 C-57.916 31.779 -57.586 32.769 -57.246 33.789 C-57.906 33.789 -58.566 33.789 -59.246 33.789 C-59.246 34.449 -59.246 35.109 -59.246 35.789 C-59.906 35.789 -60.566 35.789 -61.246 35.789 C-61.411 36.119 -61.411 36.119 -62.246 37.789 C-62.576 37.624 -62.576 37.624 -64.246 36.789 C-64.298 37.067 -64.298 37.067 -64.559 38.477 C-65.381 41.244 -66.719 43.345 -68.246 45.789 C-69.491 48.141 -70.4 50.25 -71.246 52.789 C-70.916 53.779 -70.586 54.769 -70.246 55.789 C-70.906 55.789 -71.566 55.789 -72.246 55.789 C-72.329 56.841 -72.411 57.893 -72.496 58.977 C-73.299 63.06 -74.439 64.801 -77.246 67.789 C-76.434 70.227 -76.434 70.227 -75.246 72.789 C-74.256 73.119 -73.266 73.449 -72.246 73.789 C-72.246 74.449 -72.246 75.109 -72.246 75.789 C-72.824 75.872 -73.401 75.954 -73.996 76.039 C-76.862 76.994 -78.245 78.574 -80.246 80.789 C-79.256 81.119 -78.266 81.449 -77.246 81.789 C-77.246 83.109 -77.246 84.429 -77.246 85.789 C-76.586 85.459 -76.586 85.459 -73.246 83.789 C-73.576 85.439 -73.906 87.089 -74.246 88.789 C-74.576 88.129 -74.906 87.469 -75.246 86.789 C-76.236 87.119 -77.226 87.449 -78.246 87.789 C-78.576 86.469 -78.906 85.149 -79.246 83.789 C-80.566 83.789 -81.886 83.789 -83.246 83.789 C-82.916 85.109 -82.586 86.429 -82.246 87.789 C-81.256 87.789 -80.266 87.789 -79.246 87.789 C-79.246 88.449 -79.246 89.109 -79.246 89.789 C-78.256 90.119 -77.266 90.449 -76.246 90.789 C-79.546 90.789 -82.846 90.789 -86.246 90.789 C-84.246 94.789 -84.246 94.789 -82.246 95.789 C-82.906 96.449 -83.566 97.109 -84.246 97.789 C-86.371 97.414 -86.371 97.414 -88.246 96.789 C-88.246 96.129 -88.246 95.469 -88.246 94.789 C-88.576 94.954 -88.576 94.954 -90.246 95.789 C-89.916 96.387 -89.586 96.985 -89.246 97.602 C-88.246 99.789 -88.246 99.789 -88.246 102.789 C-88.081 102.294 -88.081 102.294 -87.246 99.789 C-84.601 97.979 -82.292 96.804 -79.246 95.789 C-78.916 95.129 -78.586 94.469 -78.246 93.789 C-77.256 93.789 -76.266 93.789 -75.246 93.789 C-75.576 94.408 -75.906 95.027 -76.246 95.664 C-77.246 97.789 -77.246 97.789 -77.246 99.789 C-76.916 99.954 -76.916 99.954 -75.246 100.789 C-75.246 99.799 -75.246 98.809 -75.246 97.789 C-74.586 97.789 -73.926 97.789 -73.246 97.789 C-73.82 100.656 -74.108 101.651 -76.246 103.789 C-75.916 104.779 -75.586 105.769 -75.246 106.789 C-79.246 106.789 -79.246 106.789 -81.246 105.789 C-80.586 104.139 -79.926 102.489 -79.246 100.789 C-81.746 102.164 -81.746 102.164 -84.246 103.789 C-84.246 104.449 -84.246 105.109 -84.246 105.789 C-84.906 106.449 -85.566 107.109 -86.246 107.789 C-85.916 108.779 -85.586 109.769 -85.246 110.789 C-85.576 110.954 -85.576 110.954 -87.246 111.789 C-87.246 112.449 -87.246 113.109 -87.246 113.789 C-88.566 113.789 -89.886 113.789 -91.246 113.789 C-89.246 116.789 -89.246 116.789 -87.246 118.789 C-87.906 119.119 -88.566 119.449 -89.246 119.789 C-89.906 119.459 -90.566 119.129 -91.246 118.789 C-91.246 119.449 -91.246 120.109 -91.246 120.789 C-92.236 120.789 -93.226 120.789 -94.246 120.789 C-94.246 120.129 -94.246 119.469 -94.246 118.789 C-94.906 118.789 -95.566 118.789 -96.246 118.789 C-96.246 119.449 -96.246 120.109 -96.246 120.789 C-97.236 121.119 -98.226 121.449 -99.246 121.789 C-99.411 121.459 -99.411 121.459 -100.246 119.789 C-99.586 119.789 -98.926 119.789 -98.246 119.789 C-98.246 119.129 -98.246 118.469 -98.246 117.789 C-100.556 117.459 -102.866 117.129 -105.246 116.789 C-106.668 113.472 -107.636 110.347 -108.246 106.789 C-109.566 106.459 -110.886 106.129 -112.246 105.789 C-111.916 107.769 -111.586 109.749 -111.246 111.789 C-112.236 111.789 -113.226 111.789 -114.246 111.789 C-123.835 86.374 -123.104 58.099 -112.021 33.378 C-109.348 27.715 -106.202 22.657 -102.246 17.789 C-101.58 16.96 -100.913 16.131 -100.227 15.277 C-75.202 -14.166 -32.268 -21.978 0 0 Z " fill="#A5CF24" transform="translate(155.24609375,66.2109375)"/>
<path d="M0 0 C68.31 0 136.62 0 207 0 C207 84.15 207 168.3 207 255 C205.35 255 203.7 255 202 255 C201.996 253.779 201.992 252.559 201.987 251.301 C201.887 222.359 201.781 193.416 201.669 164.474 C201.655 160.915 201.641 157.356 201.628 153.798 C201.625 153.089 201.622 152.381 201.619 151.651 C201.575 140.163 201.535 128.676 201.495 117.189 C201.455 105.411 201.411 93.633 201.363 81.855 C201.336 75.236 201.312 68.616 201.291 61.997 C201.271 55.775 201.247 49.553 201.22 43.33 C201.21 41.039 201.202 38.748 201.197 36.457 C201.188 33.344 201.174 30.231 201.158 27.118 C201.157 26.198 201.156 25.279 201.155 24.332 C201.114 18.114 201.114 18.114 200 17 C197.473 16.9 194.973 16.866 192.446 16.873 C191.645 16.871 190.845 16.87 190.02 16.868 C187.317 16.864 184.613 16.867 181.91 16.871 C179.981 16.869 178.051 16.867 176.122 16.865 C170.866 16.861 165.609 16.863 160.353 16.866 C154.866 16.868 149.378 16.866 143.891 16.864 C134.674 16.862 125.456 16.865 116.239 16.87 C105.566 16.875 94.894 16.873 84.221 16.868 C75.075 16.863 65.929 16.863 56.784 16.865 C51.314 16.867 45.844 16.867 40.374 16.864 C35.232 16.861 30.091 16.863 24.949 16.869 C23.057 16.87 21.164 16.87 19.271 16.867 C16.699 16.865 14.127 16.868 11.554 16.873 C10.795 16.871 10.036 16.869 9.254 16.866 C4.114 16.886 4.114 16.886 3 18 C2.902 21.047 2.87 24.071 2.88 27.118 C2.879 28.086 2.878 29.055 2.877 30.053 C2.875 33.325 2.881 36.597 2.886 39.869 C2.887 42.204 2.887 44.54 2.886 46.875 C2.886 53.236 2.892 59.597 2.899 65.959 C2.904 71.926 2.905 77.894 2.906 83.862 C2.908 95.686 2.915 107.509 2.925 119.333 C2.934 130.821 2.941 142.309 2.945 153.798 C2.945 154.505 2.946 155.213 2.946 155.942 C2.947 159.492 2.948 163.042 2.95 166.592 C2.96 196.061 2.978 225.531 3 255 C2.01 255 1.02 255 0 255 C0 170.85 0 86.7 0 0 Z " fill="#FDFCFA" transform="translate(0,0)"/>
<path d="M0 0 C0.33 0.165 0.33 0.165 2 1 C1.01 1.33 0.02 1.66 -1 2 C-0.464 2.743 0.072 3.485 0.625 4.25 C0.852 4.704 0.852 4.704 2 7 C1.188 9.312 1.188 9.312 0 11 C-0.33 10.835 -0.33 10.835 -2 10 C-1.835 10.66 -1.835 10.66 -1 14 C0.32 14.33 1.64 14.66 3 15 C3 13.68 3 12.36 3 11 C3.66 10.67 4.32 10.34 5 10 C5.33 9.01 5.66 8.02 6 7 C6.99 7 7.98 7 9 7 C8.67 8.32 8.34 9.64 8 11 C8.866 10.34 9.733 9.68 10.625 9 C14.214 6.873 15.927 6.612 20 7 C19.67 6.175 19.67 6.175 18 2 C22.11 5.893 24.689 8.402 25.371 14.102 C25.565 24.415 23.668 31.306 16.625 38.938 C11.125 43.942 5.418 45.775 -1.957 45.633 C-7.005 44.583 -10.809 41.769 -14.957 38.848 C-21.167 35.077 -28.917 35.347 -36 36 C-42.213 37.745 -47.111 41.947 -51 47 C-56.432 56.744 -57.866 68.141 -55.281 79.027 C-53.282 84.26 -50.441 88.603 -47 93 C-50.313 92.375 -50.313 92.375 -54 91 C-55.778 88.247 -57 86.31 -57 83 C-57.66 83 -58.32 83 -59 83 C-59.041 82.618 -59.041 82.618 -59.25 80.688 C-60.146 77.476 -61.216 76.706 -64 75 C-63.34 75 -62.68 75 -62 75 C-62 72.36 -62 69.72 -62 67 C-62.619 66.959 -63.237 66.918 -63.875 66.875 C-64.576 66.586 -65.278 66.298 -66 66 C-67.25 62.938 -67.25 62.938 -68 60 C-67.381 59.484 -66.763 58.969 -66.125 58.438 C-63.525 55.455 -62.881 52.816 -62 49 C-61.34 49 -60.68 49 -60 49 C-60 48.34 -60 47.68 -60 47 C-60.66 46.67 -61.32 46.34 -62 46 C-62 45.01 -62 44.02 -62 43 C-61.67 42.835 -61.67 42.835 -60 42 C-59.244 40.291 -58.492 38.579 -57.777 36.852 C-56.721 34.334 -55.663 32.175 -54 30 C-51.312 29.188 -51.312 29.188 -49 29 C-48.67 27.35 -48.34 25.7 -48 24 C-46.02 24.33 -44.04 24.66 -42 25 C-41.67 24.34 -41.34 23.68 -41 23 C-40.34 23 -39.68 23 -39 23 C-39 22.34 -39 21.68 -39 21 C-38.01 21.33 -37.02 21.66 -36 22 C-33.938 21.062 -33.938 21.062 -32 20 C-31.34 20 -30.68 20 -30 20 C-29.34 20.66 -28.68 21.32 -28 22 C-27.34 21.67 -26.68 21.34 -26 21 C-25.835 20.505 -25.835 20.505 -25 18 C-23.35 17.67 -21.7 17.34 -20 17 C-19.835 16.505 -19.835 16.505 -19 14 C-18.34 14.33 -17.68 14.66 -17 15 C-17.33 15.66 -17.66 16.32 -18 17 C-16.02 16.34 -14.04 15.68 -12 15 C-12 14.34 -12 13.68 -12 13 C-12.99 12.67 -13.98 12.34 -15 12 C-14.67 10.68 -14.34 9.36 -14 8 C-12.68 7.67 -11.36 7.34 -10 7 C-10 7.99 -10 8.98 -10 10 C-9.732 9.051 -9.464 8.102 -9.188 7.125 C-8 4 -8 4 -5 2 C-4.835 2.33 -4.835 2.33 -4 4 C-2.68 2.68 -1.36 1.36 0 0 Z " fill="#9DCB1A" transform="translate(145,73)"/>
<path d="M0 0 C0.165 0.495 0.165 0.495 1 3 C2.987 4.353 4.987 5.686 7 7 C7.33 7.495 7.33 7.495 9 10 C8.34 10 7.68 10 7 10 C6.67 10.66 6.34 11.32 6 12 C5.835 11.34 5.835 11.34 5 8 C3.969 7.711 2.938 7.422 1.875 7.125 C-1.45 6.177 -4.728 5.117 -8 4 C-8.66 5.32 -9.32 6.64 -10 8 C-13.3 8 -16.6 8 -20 8 C-20 7.01 -20 6.02 -20 5 C-20.99 4.67 -21.98 4.34 -23 4 C-23 2.68 -23 1.36 -23 0 C-25.375 0.312 -25.375 0.312 -28 1 C-28.66 1.99 -29.32 2.98 -30 4 C-29.34 4 -28.68 4 -28 4 C-27.812 6.875 -27.812 6.875 -28 10 C-28.99 10.66 -29.98 11.32 -31 12 C-31 10.68 -31 9.36 -31 8 C-31.99 8 -32.98 8 -34 8 C-33.34 5.69 -32.68 3.38 -32 1 C-33.32 1.66 -34.64 2.32 -36 3 C-36 2.34 -36 1.68 -36 1 C-36.66 1.33 -37.32 1.66 -38 2 C-38.33 2.99 -38.66 3.98 -39 5 C-39.99 3.68 -40.98 2.36 -42 1 C-46.839 2.684 -50.055 5.351 -53.914 8.637 C-54.602 9.087 -55.291 9.536 -56 10 C-56.99 9.67 -57.98 9.34 -59 9 C-59 10.65 -59 12.3 -59 14 C-59.66 13.67 -60.32 13.34 -61 13 C-61.99 12.67 -62.98 12.34 -64 12 C-64 12.66 -64 13.32 -64 14 C-65.961 15.389 -67.962 16.726 -70 18 C-69.01 18.33 -68.02 18.66 -67 19 C-68.98 21.31 -70.96 23.62 -73 26 C-72.34 26 -71.68 26 -71 26 C-71.66 27.32 -72.32 28.64 -73 30 C-73 29.34 -73 28.68 -73 28 C-73.66 28 -74.32 28 -75 28 C-75.33 28.99 -75.66 29.98 -76 31 C-76.99 29.35 -77.98 27.7 -79 26 C-80.32 27.32 -81.64 28.64 -83 30 C-82.67 30.66 -82.34 31.32 -82 32 C-82.962 35.206 -84.101 36.066 -86.938 37.938 C-90.082 40.055 -91.329 41.658 -93 45 C-91.68 45.66 -90.36 46.32 -89 47 C-89.495 47.165 -89.495 47.165 -92 48 C-95 52.333 -95 52.333 -95 55 C-95.66 55 -96.32 55 -97 55 C-97 55.66 -97 56.32 -97 57 C-97.66 57 -98.32 57 -99 57 C-99 57.66 -99 58.32 -99 59 C-99.66 59 -100.32 59 -101 59 C-101 59.66 -101 60.32 -101 61 C-100.34 61.33 -99.68 61.66 -99 62 C-99.165 62.33 -99.165 62.33 -100 64 C-99.01 64.33 -98.02 64.66 -97 65 C-97.66 66.32 -98.32 67.64 -99 69 C-98.34 69 -97.68 69 -97 69 C-97 69.99 -97 70.98 -97 72 C-98.32 72 -99.64 72 -101 72 C-98.36 72.33 -95.72 72.66 -93 73 C-93 73.66 -93 74.32 -93 75 C-93.495 75.165 -93.495 75.165 -96 76 C-96.66 75.67 -97.32 75.34 -98 75 C-97.01 76.32 -96.02 77.64 -95 79 C-95.33 79.66 -95.66 80.32 -96 81 C-95.505 80.835 -95.505 80.835 -93 80 C-93 80.66 -93 81.32 -93 82 C-92.34 82.33 -91.68 82.66 -91 83 C-91.66 83 -92.32 83 -93 83 C-93 84.65 -93 86.3 -93 88 C-93.99 88 -94.98 88 -96 88 C-95.67 86.68 -95.34 85.36 -95 84 C-95.495 84.165 -95.495 84.165 -98 85 C-98.66 84.67 -99.32 84.34 -100 84 C-99.67 82.68 -99.34 81.36 -99 80 C-99.33 80.165 -99.33 80.165 -101 81 C-101.625 83.062 -101.625 83.062 -102 85 C-101.01 85.66 -100.02 86.32 -99 87 C-99.495 87.165 -99.495 87.165 -102 88 C-103.467 91.586 -104.328 95.191 -105 99 C-105.33 98.34 -105.66 97.68 -106 97 C-106.99 97 -107.98 97 -109 97 C-110.789 86.891 -111.18 77.117 -111.014 66.859 C-111 65.913 -110.987 64.967 -110.973 63.992 C-110.955 63.15 -110.937 62.308 -110.918 61.441 C-111 59 -111 59 -111.56 56.406 C-112.223 52.78 -110.88 49.89 -109.562 46.562 C-109.288 45.86 -109.014 45.158 -108.731 44.434 C-100.029 22.878 -85.749 7.553 -64.652 -2.457 C-45.549 -10.527 -18.087 -11.937 0 0 Z " fill="#ACD430" transform="translate(149,62)"/>
<path d="M0 0 C5.741 3.914 5.741 3.914 6.91 8.812 C6.99 10.207 7.041 11.603 7.062 13 C7.108 13.699 7.154 14.397 7.201 15.117 C7.509 22.695 3.941 26.31 -0.938 31.688 C-1.365 32.164 -1.365 32.164 -3.527 34.574 C-5.728 36.733 -7.212 37.839 -10 39 C-11.114 39.639 -12.228 40.279 -13.375 40.938 C-18.877 43.032 -23.837 40.458 -29.023 38.492 C-32 37 -32 37 -34 34 C-39.924 31.983 -45.177 33.339 -50.836 35.504 C-51.193 35.586 -51.193 35.586 -53 36 C-53.99 35.34 -54.98 34.68 -56 34 C-63.242 38.193 -71.593 44.749 -74 53 C-73.562 55.125 -73.562 55.125 -73 57 C-73.33 57.99 -73.66 58.98 -74 60 C-74.142 61.663 -74.22 63.332 -74.25 65 C-74.276 65.866 -74.302 66.733 -74.328 67.625 C-73.941 70.429 -73.171 71.263 -71 73 C-71.33 73.99 -71.66 74.98 -72 76 C-78.009 70.492 -81.674 64.788 -82.238 56.496 C-82.53 45.885 -81.664 37.012 -74.562 28.562 C-69.762 23.557 -65.291 19.398 -58.133 18.734 C-49.391 18.78 -43.7 19.897 -36.25 24.625 C-30.325 28.173 -25.812 29.293 -19 28 C-12.275 26.07 -7.979 21.594 -4 16 C-1.134 10.746 -0.386 5.876 0 0 Z " fill="#D4CA98" transform="translate(170,89)"/>
<path d="M0 0 C3 3.75 3 3.75 3 6 C3.99 6.33 4.98 6.66 6 7 C7.188 10.062 7.188 10.062 8 13 C8.742 12.876 9.485 12.752 10.25 12.625 C11.157 12.749 12.065 12.873 13 13 C15.125 15.812 15.125 15.812 17 19 C18.5 20.875 18.5 20.875 20 22 C21.32 22 22.64 22 24 22 C24 22.66 24 23.32 24 24 C24.392 24.031 24.392 24.031 26.375 24.188 C27.241 24.456 28.108 24.724 29 25 C29.268 25.815 29.536 26.629 29.812 27.469 C30.204 28.304 30.596 29.139 31 30 C33.602 30.926 33.602 30.926 36.625 31.312 C37.628 31.453 38.631 31.594 39.664 31.738 C40.435 31.825 41.206 31.911 42 32 C41.67 32.99 41.34 33.98 41 35 C41.784 34.649 42.567 34.299 43.375 33.938 C44.241 33.628 45.108 33.319 46 33 C46.33 33.165 46.33 33.165 48 34 C48 33.34 48 32.68 48 32 C48.99 32.33 49.98 32.66 51 33 C51 33.99 51 34.98 51 36 C52.65 36 54.3 36 56 36 C56 36.66 56 37.32 56 38 C56.66 38 57.32 38 58 38 C58.33 37.01 58.66 36.02 59 35 C61.062 34.312 61.062 34.312 63 34 C63.165 34.66 63.165 34.66 64 38 C65.65 38 67.3 38 69 38 C69.33 38.66 69.66 39.32 70 40 C71.097 39.856 72.194 39.711 73.324 39.562 C74.779 39.375 76.233 39.187 77.688 39 C78.409 38.905 79.13 38.809 79.873 38.711 C83.61 38.233 87.223 37.881 91 38 C91 37.34 91 36.68 91 36 C92.65 36 94.3 36 96 36 C96.33 34.68 96.66 33.36 97 32 C97 32.66 97 33.32 97 34 C97.66 34 98.32 34 99 34 C99 33.34 99 32.68 99 32 C100.456 31.329 101.915 30.663 103.375 30 C104.187 29.629 104.999 29.257 105.836 28.875 C108 28 108 28 110 28 C110 26.35 110 24.7 110 23 C111.65 23.33 113.3 23.66 115 24 C115 22.35 115 20.7 115 19 C115.495 19.165 115.495 19.165 118 20 C118 19.34 118 18.68 118 18 C118.603 17.838 119.207 17.675 119.828 17.508 C123.206 15.163 123.709 11.665 124.75 7.875 C124.86 7.498 124.86 7.498 125.418 5.59 C125.959 3.731 126.481 1.866 127 0 C129.699 2.699 129.362 4.228 129.438 8 C129.229 18.521 124.545 25.222 117.434 32.684 C104.199 45.281 86.838 50.566 68.812 50.25 C57.233 49.491 46.413 47.278 36 42 C35.005 41.496 34.01 40.992 32.984 40.473 C17.355 31.957 6.795 19.354 0 3 C0 2.01 0 1.02 0 0 Z " fill="#729F02" transform="translate(42,177)"/>
<path d="M0 0 C4.825 2.474 4.825 2.474 5.688 5.062 C5.791 5.702 5.894 6.341 6 7 C6.66 7.66 7.32 8.32 8 9 C8 10.32 8 11.64 8 13 C10.31 13.33 12.62 13.66 15 14 C15 14.99 15 15.98 15 17 C15.66 17 16.32 17 17 17 C17 16.34 17 15.68 17 15 C17.66 15 18.32 15 19 15 C19 15.66 19 16.32 19 17 C23.331 18.299 27.515 19.344 32 20 C31.01 20.66 30.02 21.32 29 22 C31.763 22.597 34.16 23 37 23 C37 23.66 37 24.32 37 25 C37.99 25.33 38.98 25.66 40 26 C40 25.01 40 24.02 40 23 C42.31 22.67 44.62 22.34 47 22 C46.67 22.66 46.34 23.32 46 24 C46.66 24.33 47.32 24.66 48 25 C48 25.66 48 26.32 48 27 C48.99 27 49.98 27 51 27 C51 27.66 51 28.32 51 29 C52.32 29.66 53.64 30.32 55 31 C55 31.66 55 32.32 55 33 C55.949 32.34 56.898 31.68 57.875 31 C61 29 61 29 63 29 C62.67 31.31 62.34 33.62 62 36 C62.66 35.835 62.66 35.835 66 35 C65.67 34.01 65.34 33.02 65 32 C66.32 32.66 67.64 33.32 69 34 C68.835 34.33 68.835 34.33 68 36 C68.66 36 69.32 36 70 36 C70.66 34.68 71.32 33.36 72 32 C73.65 32.66 75.3 33.32 77 34 C77.66 32.35 78.32 30.7 79 29 C79.66 29 80.32 29 81 29 C81 29.66 81 30.32 81 31 C82.32 31 83.64 31 85 31 C84.67 30.67 84.34 30.34 84 30 C85.65 28.35 87.3 26.7 89 25 C89.165 25.33 89.165 25.33 90 27 C91.98 27 93.96 27 96 27 C96.33 25.68 96.66 24.36 97 23 C99.438 23.375 99.438 23.375 102 24 C102.165 24.33 102.165 24.33 103 26 C106 28 106 28 109 29 C110.188 31.062 110.188 31.062 111 33 C108.681 35.679 106.682 36.662 103.312 37.688 C102.504 37.939 101.696 38.19 100.863 38.449 C100.248 38.631 99.634 38.813 99 39 C99 39.66 99 40.32 99 41 C98.34 41 97.68 41 97 41 C96.835 41.33 96.835 41.33 96 43 C94.35 43 92.7 43 91 43 C91 43.66 91 44.32 91 45 C87.898 45.533 84.793 46.049 81.688 46.562 C81.247 46.638 81.247 46.638 79.018 47.021 C78.17 47.16 77.322 47.299 76.449 47.441 C75.669 47.572 74.889 47.703 74.085 47.838 C72 48 72 48 69 47 C69 46.34 69 45.68 69 45 C68.608 45.031 68.608 45.031 66.625 45.188 C65.759 45.126 64.892 45.064 64 45 C63.34 44.01 62.68 43.02 62 42 C59 43 59 43 58 45 C54.562 44.188 54.562 44.188 51 43 C50.67 42.01 50.34 41.02 50 40 C49.67 39.835 49.67 39.835 48 39 C48 39.66 48 40.32 48 41 C46.845 41.165 46.845 41.165 41 42 C40.67 41.34 40.34 40.68 40 40 C37.934 39.148 37.934 39.148 35.438 38.375 C34.611 38.115 33.785 37.854 32.934 37.586 C32.296 37.393 31.657 37.199 31 37 C31 36.34 31 35.68 31 35 C30.34 34.67 29.68 34.34 29 34 C28.34 33.34 27.68 32.68 27 32 C24.388 30.52 21.932 29.628 19 29 C19 28.34 19 27.68 19 27 C18.381 26.752 17.763 26.505 17.125 26.25 C15 25 15 25 14.062 22.938 C13.712 22.298 13.361 21.659 13 21 C12.196 20.876 11.391 20.752 10.562 20.625 C10.14 20.522 10.14 20.522 8 20 C6.375 17.125 6.375 17.125 5 14 C4.501 13.535 4.002 13.069 3.488 12.59 C1.623 10.597 1.325 9.098 0.812 6.438 C0.654 5.652 0.495 4.867 0.332 4.059 C0 2 0 2 0 0 Z M100 21 C100.99 21.33 101.98 21.66 103 22 C102.01 22.33 101.02 22.66 100 23 C100 22.34 100 21.68 100 21 Z " fill="#98C613" transform="translate(42,170)"/>
<path d="M0 0 C0.66 0 1.32 0 2 0 C7.191 12.976 9.125 26.315 5 40 C2.268 44.588 -1.727 47.858 -6 51 C-6 50.01 -6 49.02 -6 48 C-6.519 48.482 -7.039 48.964 -7.574 49.461 C-11.299 52.835 -14.278 55.213 -19 57 C-19.846 57.866 -20.691 58.733 -21.562 59.625 C-24 62 -24 62 -28 62 C-31.154 62.996 -33.18 64.14 -35.812 66.188 C-40.146 68.652 -42.182 67.883 -47 67 C-47.33 67.165 -47.33 67.165 -49 68 C-51.383 67.223 -51.383 67.223 -54.125 66.062 C-55.035 65.682 -55.945 65.302 -56.883 64.91 C-57.581 64.61 -58.28 64.309 -59 64 C-59.33 64.66 -59.66 65.32 -60 66 C-60 65.34 -60 64.68 -60 64 C-61.155 64.165 -61.155 64.165 -67 65 C-67 64.34 -67 63.68 -67 63 C-68.98 63 -70.96 63 -73 63 C-73 62.01 -73 61.02 -73 60 C-75.333 59.222 -77.614 58.576 -80 58 C-80 57.34 -80 56.68 -80 56 C-83.572 55.083 -87.168 54.334 -90.781 53.598 C-93.051 52.986 -94.94 52.119 -97 51 C-97 50.34 -97 49.68 -97 49 C-97.66 49 -98.32 49 -99 49 C-101.625 46.625 -101.625 46.625 -104 44 C-104 43.34 -104 42.68 -104 42 C-104.66 42 -105.32 42 -106 42 C-106 41.34 -106 40.68 -106 40 C-107.32 39.34 -108.64 38.68 -110 38 C-110 37.34 -110 36.68 -110 36 C-106.471 36.616 -104.389 38.029 -101.562 40.188 C-85.542 51.644 -65.17 56.405 -45.664 53.504 C-28.871 49.905 -15.358 43.271 -4.621 29.555 C-0.253 22.671 0.413 17.591 0.188 9.562 C0.174 8.64 0.16 7.718 0.146 6.768 C0.111 4.511 0.062 2.256 0 0 Z M-28 62 C-27.34 62.33 -26.68 62.66 -26 63 C-26.99 63 -27.98 63 -29 63 C-28.67 62.67 -28.34 62.34 -28 62 Z " fill="#B6AB6F" transform="translate(170,172)"/>
<path d="M0 0 C1.32 0 2.64 0 4 0 C4.66 1.98 5.32 3.96 6 6 C6.344 6.056 6.344 6.056 8.082 6.34 C11.446 7.101 14.478 8.301 17.688 9.562 C26.808 12.834 33.541 13.277 42.508 9.422 C45.315 7.82 47.477 5.911 49.875 3.75 C54.66 -0.324 58.162 -0.786 64.336 -0.477 C69.635 0.471 72.423 3.036 76 7 C77 10 77 10 76 13 C75.01 12.67 74.02 12.34 73 12 C72.34 12.33 71.68 12.66 71 13 C71.33 11.68 71.66 10.36 72 9 C71.34 9 70.68 9 70 9 C70 9.66 70 10.32 70 11 C66.531 10.542 63.326 10.109 60 9 C57.969 10.285 55.967 11.619 54 13 C53.34 13 52.68 13 52 13 C50.794 15.332 49.835 17.496 49 20 C48.34 20 47.68 20 47 20 C46.835 19.505 46.835 19.505 46 17 C36.987 25.763 36.987 25.763 36 33 C33.043 34.478 30.258 34.06 27 34 C27.33 32.68 27.66 31.36 28 30 C26.68 30.33 25.36 30.66 24 31 C24.33 29.35 24.66 27.7 25 26 C24.34 25.67 23.68 25.34 23 25 C23.33 24.34 23.66 23.68 24 23 C23.34 22.67 22.68 22.34 22 22 C21.422 22.474 20.845 22.949 20.25 23.438 C18.074 24.948 16.574 25.54 14 26 C14 26.99 14 27.98 14 29 C13.34 29 12.68 29 12 29 C12 28.34 12 27.68 12 27 C11.34 27 10.68 27 10 27 C9.67 27.66 9.34 28.32 9 29 C8.67 28.34 8.34 27.68 8 27 C7.34 27 6.68 27 6 27 C6 26.34 6 25.68 6 25 C5.34 24.67 4.68 24.34 4 24 C6.31 22.68 8.62 21.36 11 20 C8.03 20.99 5.06 21.98 2 23 C2 23.66 2 24.32 2 25 C0.68 25 -0.64 25 -2 25 C-2.66 25.66 -3.32 26.32 -4 27 C-4 25.02 -4 23.04 -4 21 C-2.845 20.835 -2.845 20.835 3 20 C3 19.34 3 18.68 3 18 C2.608 17.856 2.608 17.856 0.625 17.125 C-2 16 -2 16 -4 14 C-2.68 13.67 -1.36 13.34 0 13 C-0.99 12.34 -1.98 11.68 -3 11 C-0.69 10.01 1.62 9.02 4 8 C2.68 8.33 1.36 8.66 0 9 C-0.33 8.34 -0.66 7.68 -1 7 C-0.01 6.34 0.98 5.68 2 5 C2.33 4.01 2.66 3.02 3 2 C2.01 1.67 1.02 1.34 0 1 C0 0.67 0 0.34 0 0 Z " fill="#A2CE20" transform="translate(85,158)"/>
<path d="M0 0 C0 0.33 0 0.66 0 1 C-2.64 1.165 -2.64 1.165 -16 2 C-13.03 2 -10.06 2 -7 2 C-7 2.66 -7 3.32 -7 4 C-11.243 4.99 -15.458 5.316 -19.793 5.621 C-22 6 -22 6 -24 8 C-24.299 8.052 -24.299 8.052 -25.812 8.312 C-29.111 9.349 -30.743 11.446 -33 14 C-33.33 14.701 -33.66 15.403 -34 16.125 C-35.419 18.786 -37.389 19.57 -40 21 C-40.722 21.557 -41.444 22.114 -42.188 22.688 C-44 24 -44 24 -46 24 C-46 25.32 -46 26.64 -46 28 C-46.66 28 -47.32 28 -48 28 C-48.66 28.66 -49.32 29.32 -50 30 C-52 30 -54 30 -56 30 C-56 31.32 -56 32.64 -56 34 C-58.64 34.66 -61.28 35.32 -64 36 C-64 36.99 -64 37.98 -64 39 C-64.66 39 -65.32 39 -66 39 C-65.67 39.99 -65.34 40.98 -65 42 C-66.29 43.376 -67.627 44.708 -69 46 C-69.66 46 -70.32 46 -71 46 C-71 46.99 -71 47.98 -71 49 C-71.624 49.429 -72.248 49.859 -72.891 50.301 C-75.769 52.62 -75.983 54.621 -76.75 58.188 C-76.992 59.274 -77.235 60.361 -77.484 61.48 C-77.655 62.312 -77.825 63.143 -78 64 C-77.34 64 -76.68 64 -76 64 C-76.33 65.32 -76.66 66.64 -77 68 C-77.99 67.67 -78.98 67.34 -80 67 C-80 68.65 -80 70.3 -80 72 C-80.99 72 -81.98 72 -83 72 C-86.312 64.011 -83.77 57.588 -80.635 49.911 C-71.483 28.276 -55.587 13.12 -34 4 C-22.577 -0.251 -12.026 -0.466 0 0 Z M-52 26 C-51.67 26.66 -51.34 27.32 -51 28 C-50.67 27.34 -50.34 26.68 -50 26 C-50.66 26 -51.32 26 -52 26 Z " fill="#B7DB43" transform="translate(122,54)"/>
<path d="M0 0 C0.928 2.523 1.085 3.737 0.25 6.332 C-3.386 13.548 -7.251 18.765 -14.25 22.938 C-20.877 24.815 -26.094 25.508 -32.387 22.242 C-34.647 20.854 -36.784 19.378 -38.957 17.848 C-45.167 14.077 -52.917 14.347 -60 15 C-66.914 16.942 -72.693 22.004 -76.254 28.172 C-78.497 32.972 -79.873 37.834 -81 43 C-81.33 43 -81.66 43 -82 43 C-84.291 33.548 -82.182 26.695 -78 18 C-75.343 14.347 -72.573 11.748 -69 9 C-68.526 8.464 -68.051 7.927 -67.562 7.375 C-63.585 3.875 -58.435 3.747 -53.375 3.812 C-52.269 3.819 -51.163 3.825 -50.023 3.832 C-47.504 3.972 -45.4 4.268 -43 5 C-43 5.66 -43 6.32 -43 7 C-42.397 7.17 -41.793 7.34 -41.172 7.516 C-36.355 8.976 -33.429 10.19 -30 14 C-26.612 15.212 -23.318 15.101 -19.75 15.062 C-18.672 15.053 -17.595 15.044 -16.484 15.035 C-16.074 15.029 -16.074 15.029 -14 15 C-14 14.34 -14 13.68 -14 13 C-12.014 11.646 -10.012 10.315 -8 9 C-6.631 7.703 -5.283 6.382 -4 5 C-3.835 5.33 -3.835 5.33 -3 7 C-2.01 4.69 -1.02 2.38 0 0 Z " fill="#6C9803" transform="translate(169,94)"/>
<path d="M0 0 C6.652 6.302 6.652 6.302 7.301 11.332 C7.328 17.006 6.763 21.005 4 26 C3.34 26.33 2.68 26.66 2 27 C1.835 26.67 1.835 26.67 1 25 C0.257 25.969 -0.485 26.939 -1.25 27.938 C-2.973 30.024 -3.739 30.901 -6.312 31.875 C-6.869 31.916 -7.426 31.957 -8 32 C-8 32.66 -8 33.32 -8 34 C-13.293 35.764 -18.777 35.715 -23.938 33.688 C-27 32 -27 32 -28 29 C-30.066 28.051 -30.066 28.051 -32.562 27.312 C-33.389 27.061 -34.215 26.81 -35.066 26.551 C-35.704 26.369 -36.343 26.187 -37 26 C-37 25.34 -37 24.68 -37 24 C-39.667 23.945 -42.333 23.906 -45 23.875 C-45.744 23.858 -46.488 23.841 -47.254 23.824 C-52.503 23.779 -56.983 24.406 -62 26 C-63.25 28 -63.25 28 -64 30 C-65.333 30.667 -66.667 31.333 -68 32 C-69.847 35.215 -71.153 38.701 -72.562 42.125 C-74.903 47.806 -74.903 47.806 -76 50 C-76.574 62.873 -75.263 77.735 -67 88 C-66.34 88.99 -65.68 89.98 -65 91 C-68.313 90.375 -68.313 90.375 -72 89 C-73.778 86.247 -75 84.31 -75 81 C-75.66 81 -76.32 81 -77 81 C-77.041 80.618 -77.041 80.618 -77.25 78.688 C-78.146 75.476 -79.216 74.706 -82 73 C-81.34 73 -80.68 73 -80 73 C-80 70.36 -80 67.72 -80 65 C-80.619 64.959 -81.237 64.918 -81.875 64.875 C-82.576 64.586 -83.278 64.298 -84 64 C-85.25 60.938 -85.25 60.938 -86 58 C-85.381 57.484 -84.763 56.969 -84.125 56.438 C-81.525 53.455 -80.881 50.816 -80 47 C-79.34 47 -78.68 47 -78 47 C-78 46.34 -78 45.68 -78 45 C-78.66 44.67 -79.32 44.34 -80 44 C-80 43.01 -80 42.02 -80 41 C-79.67 40.835 -79.67 40.835 -78 40 C-77.244 38.291 -76.492 36.579 -75.777 34.852 C-74.721 32.334 -73.663 30.175 -72 28 C-69.312 27.188 -69.312 27.188 -67 27 C-66.67 25.35 -66.34 23.7 -66 22 C-64.02 22.33 -62.04 22.66 -60 23 C-59.67 22.34 -59.34 21.68 -59 21 C-58.34 21 -57.68 21 -57 21 C-57 20.34 -57 19.68 -57 19 C-56.01 19.33 -55.02 19.66 -54 20 C-51.938 19.062 -51.938 19.062 -50 18 C-49.34 18 -48.68 18 -48 18 C-47.34 18.66 -46.68 19.32 -46 20 C-43.375 20.625 -43.375 20.625 -41 21 C-41 20.34 -41 19.68 -41 19 C-38.69 19.33 -36.38 19.66 -34 20 C-33.835 19.505 -33.835 19.505 -33 17 C-32.835 17.495 -32.835 17.495 -32 20 C-31.34 20.33 -30.68 20.66 -30 21 C-30.66 21.99 -31.32 22.98 -32 24 C-31.01 24.66 -30.02 25.32 -29 26 C-29 26.66 -29 27.32 -29 28 C-28.01 28 -27.02 28 -26 28 C-25.835 28.66 -25.835 28.66 -25 32 C-23.68 31.67 -22.36 31.34 -21 31 C-21 31.66 -21 32.32 -21 33 C-19.68 33 -18.36 33 -17 33 C-16.67 32.01 -16.34 31.02 -16 30 C-15.261 30.07 -14.523 30.139 -13.762 30.211 C-10.322 29.948 -9.285 28.969 -6.812 26.625 C-6.138 25.999 -5.464 25.372 -4.77 24.727 C-0.39 20.453 1.269 17.802 1.75 11.625 C1.848 10.504 1.946 9.382 2.047 8.227 C1.999 4.953 1.421 2.918 0 0 Z " fill="#95C213" transform="translate(163,75)"/>
<path d="M0 0 C2 2 2 2 2.375 5.875 C2.291 8.806 2.234 9.703 0.375 12.062 C-0.017 12.382 -0.017 12.382 -2 14 C-2.993 15.176 -3.971 16.364 -4.938 17.562 C-8.087 21.195 -10.387 23.737 -15.406 24.242 C-21.743 24.402 -27.89 23.722 -34 22 C-34.33 21.67 -34.66 21.34 -35 21 C-59.181 19.897 -59.181 19.897 -65.082 24.691 C-67 26.625 -67 26.625 -68.625 28.539 C-69.079 29.021 -69.532 29.503 -70 30 C-70.66 30 -71.32 30 -72 30 C-72.268 30.743 -72.536 31.485 -72.812 32.25 C-74 35 -74 35 -75.539 36.762 C-77.487 39.746 -77.438 42.025 -77.562 45.562 C-77.792 51.688 -77.792 51.688 -80 55 C-82.775 46.177 -81.902 34.813 -78.336 26.402 C-74.266 19.084 -68.022 12.697 -60 10 C-50.404 9.111 -43.382 10.464 -35.25 15.625 C-29.325 19.173 -24.812 20.293 -18 19 C-11.302 17.078 -6.931 12.606 -3 7 C-1.769 4.682 -0.88 2.483 0 0 Z " fill="#B7AE71" transform="translate(169,98)"/>
<path d="M0 0 C0.66 0 1.32 0 2 0 C7.191 12.976 9.125 26.315 5 40 C2.268 44.588 -1.727 47.858 -6 51 C-6 50.01 -6 49.02 -6 48 C-6.519 48.482 -7.039 48.964 -7.574 49.461 C-11.299 52.835 -14.278 55.213 -19 57 C-19.846 57.866 -20.691 58.733 -21.562 59.625 C-24 62 -24 62 -28 62 C-31.154 62.996 -33.18 64.14 -35.812 66.188 C-40.146 68.652 -42.182 67.883 -47 67 C-47.33 67.165 -47.33 67.165 -49 68 C-51.383 67.223 -51.383 67.223 -54.125 66.062 C-55.035 65.682 -55.945 65.302 -56.883 64.91 C-57.581 64.61 -58.28 64.309 -59 64 C-59.33 64.66 -59.66 65.32 -60 66 C-60 65.34 -60 64.68 -60 64 C-61.155 64.165 -61.155 64.165 -67 65 C-67 64.34 -67 63.68 -67 63 C-68.98 63 -70.96 63 -73 63 C-73 62.01 -73 61.02 -73 60 C-75.333 59.222 -77.614 58.576 -80 58 C-80 57.34 -80 56.68 -80 56 C-83.572 55.083 -87.168 54.334 -90.781 53.598 C-93.051 52.986 -94.94 52.119 -97 51 C-97 50.34 -97 49.68 -97 49 C-97.66 49 -98.32 49 -99 49 C-101.625 46.625 -101.625 46.625 -104 44 C-104 43.34 -104 42.68 -104 42 C-104.66 42 -105.32 42 -106 42 C-106 41.34 -106 40.68 -106 40 C-107.32 39.34 -108.64 38.68 -110 38 C-110 37.34 -110 36.68 -110 36 C-105.534 36.895 -102.412 39.047 -99 42 C-97.75 44.125 -97.75 44.125 -97 46 C-94.892 48.587 -93.282 49.434 -90 50 C-90 50.66 -90 51.32 -90 52 C-89.722 52.013 -89.722 52.013 -88.312 52.078 C-82.317 52.524 -78.233 54.051 -73 57 C-73 57.66 -73 58.32 -73 59 C-72.71 59.03 -72.71 59.03 -71.242 59.184 C-70.461 59.267 -69.68 59.351 -68.875 59.438 C-68.109 59.519 -67.344 59.6 -66.555 59.684 C-64 60 -64 60 -61.348 60.523 C-56.744 61.179 -52.207 61.184 -47.562 61.188 C-46.647 61.2 -45.731 61.212 -44.787 61.225 C-37.141 61.241 -31.106 59.684 -24.188 56.375 C-19.211 54 -19.211 54 -17 54 C-17 53.34 -17 52.68 -17 52 C-16.216 51.505 -15.433 51.01 -14.625 50.5 C-7.132 45.749 -1.027 39.507 1.613 31.031 C3.085 23.302 1.932 15.32 0.438 7.691 C0.012 5.074 -0.077 2.646 0 0 Z M-28 62 C-27.34 62.33 -26.68 62.66 -26 63 C-26.99 63 -27.98 63 -29 63 C-28.67 62.67 -28.34 62.34 -28 62 Z " fill="#DCD0A1" transform="translate(170,172)"/>
<path d="M0 0 C0.806 2.298 1.189 3.517 0.285 5.824 C-10.094 21.642 -23.958 31.451 -42.562 35.375 C-63.912 38.425 -85.376 33.528 -103 21 C-105.344 18.281 -105.344 18.281 -107 16 C-103.791 17.508 -100.941 19.338 -98 21.312 C-81.221 32.065 -67.071 32.814 -48 30 C-49.027 30.023 -50.055 30.046 -51.113 30.07 C-59.314 30.197 -66.967 29.906 -75 28 C-75 27.67 -75 27.34 -75 27 C-74.205 27.021 -73.411 27.042 -72.592 27.063 C-39.57 27.819 -39.57 27.819 -24 20 C-23.34 20 -22.68 20 -22 20 C-22 19.34 -22 18.68 -22 18 C-20.02 17.34 -18.04 16.68 -16 16 C-16 15.34 -16 14.68 -16 14 C-15.34 14 -14.68 14 -14 14 C-14 13.34 -14 12.68 -14 12 C-9.529 8 -9.529 8 -7 8 C-6.34 6.68 -5.68 5.36 -5 4 C-5 7.908 -6.506 9.116 -9 12 C-5.057 10.534 -3.982 8.627 -2.25 4.875 C-1.822 3.965 -1.394 3.055 -0.953 2.117 C-0.796 1.768 -0.796 1.768 0 0 Z " fill="#587706" transform="translate(169,191)"/>
<path d="M0 0 C3.839 1.559 6.228 3.928 9 7 C10 10 10 10 9 13 C8.01 12.67 7.02 12.34 6 12 C5.34 12.33 4.68 12.66 4 13 C4.33 11.68 4.66 10.36 5 9 C4.34 9 3.68 9 3 9 C3 9.66 3 10.32 3 11 C-0.469 10.542 -3.674 10.109 -7 9 C-9.031 10.285 -11.033 11.619 -13 13 C-13.66 13 -14.32 13 -15 13 C-16.206 15.332 -17.165 17.496 -18 20 C-18.66 20 -19.32 20 -20 20 C-20.33 19.01 -20.66 18.02 -21 17 C-21.361 17.34 -21.361 17.34 -23.188 19.062 C-26 21 -26 21 -28.625 20.625 C-29.017 20.522 -29.017 20.522 -31 20 C-31.99 20.66 -32.98 21.32 -34 22 C-34 20.68 -34 19.36 -34 18 C-35.65 17.67 -37.3 17.34 -39 17 C-38.402 16.732 -37.804 16.464 -37.188 16.188 C-35 15 -35 15 -33.648 13.531 C-31.67 11.693 -29.995 11.154 -27.438 10.312 C-23.184 8.743 -20.459 6.804 -17.125 3.75 C-11.738 -0.836 -6.858 -1.227 0 0 Z " fill="#AAD42C" transform="translate(152,158)"/>
<path d="M0 0 C0.866 0.009 1.731 0.018 2.623 0.027 C4.728 0.051 6.833 0.086 8.938 0.125 C8.938 0.455 8.938 0.785 8.938 1.125 C6.297 1.29 6.297 1.29 -7.062 2.125 C-4.093 2.125 -1.123 2.125 1.938 2.125 C1.938 2.785 1.938 3.445 1.938 4.125 C-2.305 5.115 -6.521 5.441 -10.855 5.746 C-13.062 6.125 -13.062 6.125 -15.062 8.125 C-16.659 8.387 -18.266 8.585 -19.875 8.75 C-26.351 9.777 -30.992 12.851 -36.312 16.445 C-39.062 18.125 -39.062 18.125 -42.062 18.125 C-42.062 18.785 -42.062 19.445 -42.062 20.125 C-42.722 20.125 -43.382 20.125 -44.062 20.125 C-44.392 21.115 -44.722 22.105 -45.062 23.125 C-46.734 24.703 -46.734 24.703 -48.812 26.375 C-52.674 29.641 -55.3 32.9 -58.062 37.125 C-58.722 38.115 -59.383 39.105 -60.062 40.125 C-61.053 40.125 -62.042 40.125 -63.062 40.125 C-61.79 35.565 -60.031 32.763 -57.062 29.125 C-56.956 28.514 -56.849 27.903 -56.738 27.273 C-53.985 18.52 -39.474 11.022 -32.062 7.125 C-21.426 2.32 -11.65 -0.235 0 0 Z " fill="#C2E152" transform="translate(113.0625,53.875)"/>
<path d="M0 0 C5.46 5.04 5.46 5.04 6 9 C5.325 11.786 4.583 14.413 3.688 17.125 C3.574 17.489 3.574 17.489 3.002 19.332 C1.271 24.729 1.271 24.729 -1 27 C-1.99 27 -2.98 27 -4 27 C-4 27.66 -4 28.32 -4 29 C-4.66 29.33 -5.32 29.66 -6 30 C-6.33 30.99 -6.66 31.98 -7 33 C-8.65 32.67 -10.3 32.34 -12 32 C-11.67 30.68 -11.34 29.36 -11 28 C-13.64 27.67 -16.28 27.34 -19 27 C-18.67 26.34 -18.34 25.68 -18 25 C-17.361 24.876 -16.721 24.752 -16.062 24.625 C-14 24 -14 24 -12.75 21.938 C-12.502 21.298 -12.255 20.659 -12 20 C-11.01 20.66 -10.02 21.32 -9 22 C-8.67 21.34 -8.34 20.68 -8 20 C-10.312 19.312 -10.312 19.312 -13 19 C-14.812 20.438 -14.812 20.438 -16 22 C-16.66 21.67 -17.32 21.34 -18 21 C-17.01 19.02 -16.02 17.04 -15 15 C-15.66 15 -16.32 15 -17 15 C-17 14.34 -17 13.68 -17 13 C-16.34 13 -15.68 13 -15 13 C-14.67 12.01 -14.34 11.02 -14 10 C-13.474 10.113 -13.474 10.113 -10.812 10.688 C-6.5 11.041 -5.464 10.34 -2 8 C-0.68 8 0.64 8 2 8 C1.34 5.36 0.68 2.72 0 0 Z M-7 17 C-7 17.99 -7 18.98 -7 20 C-5.68 20 -4.36 20 -3 20 C-3 19.34 -3 18.68 -3 18 C-4.32 17.67 -5.64 17.34 -7 17 Z " fill="#97C614" transform="translate(164,168)"/>
<path d="M0 0 C3 3.75 3 3.75 3 6 C3.99 6.33 4.98 6.66 6 7 C7.188 10.062 7.188 10.062 8 13 C8.742 12.876 9.485 12.752 10.25 12.625 C11.157 12.749 12.065 12.873 13 13 C15.125 15.812 15.125 15.812 17 19 C18.5 20.875 18.5 20.875 20 22 C21.32 22 22.64 22 24 22 C24 22.66 24 23.32 24 24 C24.392 24.031 24.392 24.031 26.375 24.188 C27.241 24.456 28.108 24.724 29 25 C29.268 25.815 29.536 26.629 29.812 27.469 C30.204 28.304 30.596 29.139 31 30 C33.602 30.926 33.602 30.926 36.625 31.312 C37.628 31.453 38.631 31.594 39.664 31.738 C40.435 31.825 41.206 31.911 42 32 C41.67 32.99 41.34 33.98 41 35 C41.784 34.649 42.567 34.299 43.375 33.938 C44.241 33.628 45.108 33.319 46 33 C46.33 33.165 46.33 33.165 48 34 C48 33.34 48 32.68 48 32 C48.99 32.33 49.98 32.66 51 33 C51 33.99 51 34.98 51 36 C52.65 36 54.3 36 56 36 C56 36.66 56 37.32 56 38 C56.66 38 57.32 38 58 38 C58.33 37.01 58.66 36.02 59 35 C61.062 34.312 61.062 34.312 63 34 C63.165 34.66 63.165 34.66 64 38 C65.32 38 66.64 38 68 38 C68 38.66 68 39.32 68 40 C64.732 41.089 63.804 40.902 60.562 40.125 C54.741 38.852 48.937 38.388 43 38 C43 37.34 43 36.68 43 36 C40.69 35.67 38.38 35.34 36 35 C35.67 34.01 35.34 33.02 35 32 C34.237 31.856 33.474 31.711 32.688 31.562 C30 31 30 31 27 30 C27.33 30.66 27.66 31.32 28 32 C23.207 32.274 19.72 31.5 16.043 28.293 C0 10.088 0 10.088 0 0 Z " fill="#7FAE06" transform="translate(42,177)"/>
<path d="M0 0 C3.528 5.917 2.768 13.888 1.312 20.438 C-1.233 27.213 -8.211 33.788 -14 38 C-16.196 38.664 -16.196 38.664 -18 39 C-18 39.66 -18 40.32 -18 41 C-20.203 42.156 -22.412 43.3 -24.625 44.438 C-25.242 44.763 -25.86 45.088 -26.496 45.424 C-40.363 52.503 -59.411 49.765 -74 46 C-74 45.34 -74 44.68 -74 44 C-75.32 43.34 -76.64 42.68 -78 42 C-75.729 42.309 -73.458 42.622 -71.188 42.938 C-69.923 43.112 -68.658 43.286 -67.355 43.465 C-64 44 -64 44 -61 45 C-42.827 45.794 -30.212 43.932 -15.516 32.805 C-13.378 31.271 -11.36 30.131 -9 29 C-5.194 25.886 -3.548 22.645 -2 18 C-1.968 16.067 -1.94 14.131 -2.027 12.199 C-1.976 8.05 -0.925 4.03 0 0 Z " fill="#CDC18D" transform="translate(171,185)"/>
<path d="M0 0 C0.928 2.523 1.085 3.737 0.25 6.332 C-3.386 13.548 -7.251 18.765 -14.25 22.938 C-20.877 24.815 -26.094 25.508 -32.387 22.242 C-34.647 20.854 -36.784 19.378 -38.957 17.848 C-45.167 14.077 -52.917 14.347 -60 15 C-66.914 16.942 -72.693 22.004 -76.254 28.172 C-78.497 32.972 -79.873 37.834 -81 43 C-81.33 43 -81.66 43 -82 43 C-82.873 36.599 -80.514 32.458 -77.508 26.867 C-76.15 24.286 -75.028 21.726 -74 19 C-73.34 19 -72.68 19 -72 19 C-71.887 18.691 -71.887 18.691 -71.312 17.125 C-69.621 14.386 -68.008 13.95 -65 13 C-65.33 12.01 -65.66 11.02 -66 10 C-65.34 9.34 -64.68 8.68 -64 8 C-63.01 8.33 -62.02 8.66 -61 9 C-57.503 9.196 -54.013 9.344 -50.512 9.43 C-45.346 9.648 -41.641 10.704 -37 13 C-37 14.32 -37 15.64 -37 17 C-36.278 17.289 -35.556 17.578 -34.812 17.875 C-32 19 -32 19 -29.812 20.125 C-24.547 21.763 -19.51 22.171 -14.422 19.797 C-10.404 17.231 -8.039 15.333 -6 11 C-5.34 10.67 -4.68 10.34 -4 10 C-2.93 7.715 -2.93 7.715 -1.875 4.938 C-1.522 4.018 -1.169 3.099 -0.805 2.152 C-0.539 1.442 -0.274 0.732 0 0 Z " fill="#4D670A" transform="translate(169,94)"/>
<path d="M0 0 C2.438 1.625 2.438 1.625 4 3 C2.458 4.542 0.989 4.145 -1.156 4.176 C-2.015 4.2 -2.873 4.223 -3.758 4.248 C-5.554 4.29 -7.351 4.322 -9.148 4.342 C-16.499 4.576 -22.841 6.007 -28.305 11.184 C-28.823 11.927 -29.341 12.671 -29.875 13.438 C-30.433 14.22 -30.991 15.002 -31.566 15.809 C-33.11 18.168 -34.561 20.576 -36 23 C-36.66 23.33 -37.32 23.66 -38 24 C-38.66 24.99 -39.32 25.98 -40 27 C-39.48 17.641 -35.855 9.815 -28.867 3.473 C-20.331 -3.26 -10.099 -3.998 0 0 Z " fill="#9C9353" transform="translate(128,110)"/>
<path d="M0 0 C4.825 2.474 4.825 2.474 5.688 5.062 C5.791 5.702 5.894 6.341 6 7 C6.66 7.66 7.32 8.32 8 9 C8 10.32 8 11.64 8 13 C9.32 13.66 10.64 14.32 12 15 C12 16.32 12 17.64 12 19 C12.99 19 13.98 19 15 19 C15 19.66 15 20.32 15 21 C16.98 20.67 18.96 20.34 21 20 C20.67 20.99 20.34 21.98 20 23 C20.99 23 21.98 23 23 23 C23.33 23.66 23.66 24.32 24 25 C27 27 27 27 28 27 C30.744 27.363 31.797 27.78 33.703 29.848 C34.214 30.579 34.724 31.309 35.25 32.062 C35.51 32.429 35.51 32.429 36.828 34.285 C37.215 34.851 37.602 35.417 38 36 C38.928 35.794 39.856 35.588 40.812 35.375 C44 35 44 35 47 37 C46.67 37.33 46.34 37.66 46 38 C46.33 38.165 46.33 38.165 48 39 C48 39.66 48 40.32 48 41 C46.845 41.165 46.845 41.165 41 42 C40.67 41.34 40.34 40.68 40 40 C37.934 39.148 37.934 39.148 35.438 38.375 C34.611 38.115 33.785 37.854 32.934 37.586 C32.296 37.393 31.657 37.199 31 37 C31 36.34 31 35.68 31 35 C30.34 34.67 29.68 34.34 29 34 C28.34 33.34 27.68 32.68 27 32 C24.388 30.52 21.932 29.628 19 29 C19 28.34 19 27.68 19 27 C18.381 26.752 17.763 26.505 17.125 26.25 C15 25 15 25 14.062 22.938 C13.712 22.298 13.361 21.659 13 21 C12.196 20.876 11.391 20.752 10.562 20.625 C10.14 20.522 10.14 20.522 8 20 C6.375 17.125 6.375 17.125 5 14 C4.501 13.535 4.002 13.069 3.488 12.59 C1.623 10.597 1.325 9.098 0.812 6.438 C0.654 5.652 0.495 4.867 0.332 4.059 C0 2 0 2 0 0 Z " fill="#90BE10" transform="translate(42,170)"/>
<path d="M0 0 C1.667 0.667 3.333 1.333 5 2 C5.866 2.309 6.733 2.619 7.625 2.938 C10 4 10 4 11.5 5.562 C13.507 7.486 15.297 7.635 18 8 C18 8.66 18 9.32 18 10 C19.217 9.959 20.434 9.917 21.688 9.875 C25.219 9.862 27.8 10.4 31 12 C31 12.66 31 13.32 31 14 C37.168 15.099 43.184 15.115 49.438 15.062 C50.455 15.058 51.473 15.053 52.521 15.049 C55.014 15.037 57.507 15.021 60 15 C56.227 17.515 52.77 17.689 48.375 18.125 C47.605 18.211 46.836 18.298 46.043 18.387 C37.657 19.272 30.193 19.57 22.125 16.875 C21.782 16.764 21.782 16.764 20.048 16.201 C12.109 13.518 4.795 10.181 -1 4 C-0.01 3.67 0.98 3.34 2 3 C1.34 2.01 0.68 1.02 0 0 Z " fill="#729B08" transform="translate(67,205)"/>
<path d="M0 0 C0.848 0.339 1.696 0.678 2.57 1.027 C4.875 2.062 4.875 2.062 7.875 4.062 C11.23 4.258 11.23 4.258 15.062 4.188 C16.335 4.169 17.607 4.151 18.918 4.133 C19.406 4.121 19.406 4.121 21.875 4.062 C19.875 7.062 19.875 7.062 17.375 7.688 C16.55 7.811 15.725 7.935 14.875 8.062 C14.215 8.393 13.555 8.722 12.875 9.062 C10.479 8.393 8.206 7.66 5.875 6.812 C5.233 6.595 4.591 6.377 3.93 6.152 C0.367 4.878 -0.966 4.3 -3.125 1.062 C-9.049 -0.955 -14.302 0.401 -19.961 2.566 C-20.675 2.73 -21.389 2.894 -22.125 3.062 C-23.115 2.403 -24.105 1.743 -25.125 1.062 C-32.367 5.255 -40.718 11.811 -43.125 20.062 C-42.688 22.188 -42.688 22.188 -42.125 24.062 C-42.455 25.053 -42.785 26.042 -43.125 27.062 C-43.267 28.725 -43.345 30.394 -43.375 32.062 C-43.401 32.929 -43.427 33.795 -43.453 34.688 C-43.066 37.492 -42.296 38.325 -40.125 40.062 C-40.455 41.053 -40.785 42.042 -41.125 43.062 C-43.835 41.01 -45.888 39.385 -46.508 35.92 C-46.537 33.36 -46.397 30.864 -46.188 28.312 C-46.151 27.457 -46.114 26.601 -46.076 25.719 C-45.612 18.51 -43.823 12.204 -39.055 6.652 C-38.377 6.107 -37.699 5.562 -37 5 C-36.658 4.716 -36.658 4.716 -34.93 3.277 C-33.125 2.062 -33.125 2.062 -31.125 2.062 C-31.125 1.403 -31.125 0.743 -31.125 0.062 C-26.858 -1.979 -22.783 -2.389 -18.125 -2.625 C-17.776 -2.649 -17.776 -2.649 -16.008 -2.768 C-10.006 -3.113 -5.524 -2.238 0 0 Z " fill="#E2D9AC" transform="translate(139.125,121.9375)"/>
<path d="M0 0 C6.652 6.302 6.652 6.302 7.301 11.332 C7.328 17.006 6.763 21.005 4 26 C3.67 26.165 3.67 26.165 2 27 C1.835 26.67 1.835 26.67 1 25 C0.629 25.485 0.629 25.485 -1.25 27.938 C-2.973 30.024 -3.739 30.901 -6.312 31.875 C-6.869 31.916 -7.426 31.957 -8 32 C-8 32.66 -8 33.32 -8 34 C-13.293 35.764 -18.777 35.715 -23.938 33.688 C-27 32 -27 32 -28 29 C-30.066 28.051 -30.066 28.051 -32.562 27.312 C-33.389 27.061 -34.215 26.81 -35.066 26.551 C-35.704 26.369 -36.343 26.187 -37 26 C-37 25.67 -37 25.34 -37 25 C-31.25 24.875 -31.25 24.875 -29 26 C-29 26.66 -29 27.32 -29 28 C-28.01 28 -27.02 28 -26 28 C-25.67 29.32 -25.34 30.64 -25 32 C-23.68 31.67 -22.36 31.34 -21 31 C-21 31.66 -21 32.32 -21 33 C-19.68 33 -18.36 33 -17 33 C-16.67 32.01 -16.34 31.02 -16 30 C-15.261 30.07 -14.523 30.139 -13.762 30.211 C-10.322 29.948 -9.285 28.969 -6.812 26.625 C-6.138 25.999 -5.464 25.372 -4.77 24.727 C-0.39 20.453 1.269 17.802 1.75 11.625 C1.848 10.504 1.946 9.382 2.047 8.227 C1.999 4.953 1.421 2.918 0 0 Z " fill="#8CBB14" transform="translate(163,75)"/>
<path d="M0 0 C4.125 -0.088 8.249 -0.141 12.375 -0.188 C12.953 -0.2 12.953 -0.2 15.879 -0.264 C23.122 -0.325 29.214 0.42 36 3 C35.67 3.99 35.34 4.98 35 6 C26 6 26 6 24.062 5 C21.426 3.722 19.904 3.575 17 4 C14.35 5.807 12.444 7.112 11 10 C10.34 9.67 9.68 9.34 9 9 C8.34 9 7.68 9 7 9 C6.67 9.99 6.34 10.98 6 12 C5.01 10.68 4.02 9.36 3 8 C-1.11 9.45 -4.433 11.511 -8 14 C-8.66 12.68 -9.32 11.36 -10 10 C-5.301 4.91 -2.568 4.067 4.125 3.438 C4.559 3.396 4.559 3.396 6.758 3.184 C9 3 9 3 11 3 C11 2.34 11 1.68 11 1 C9.02 1.165 9.02 1.165 -1 2 C-0.67 1.34 -0.34 0.68 0 0 Z " fill="#B5DB3A" transform="translate(104,55)"/>
<path d="M0 0 C0 0.66 0 1.32 0 2 C-1.456 2.671 -2.915 3.337 -4.375 4 C-5.187 4.371 -5.999 4.743 -6.836 5.125 C-9 6 -9 6 -11 6 C-11 6.66 -11 7.32 -11 8 C-11.66 8 -12.32 8 -13 8 C-13.33 8.66 -13.66 9.32 -14 10 C-15.65 10 -17.3 10 -19 10 C-19 10.66 -19 11.32 -19 12 C-22.102 12.533 -25.207 13.049 -28.312 13.562 C-29.194 13.714 -30.075 13.865 -30.982 14.021 C-31.83 14.16 -32.678 14.299 -33.551 14.441 C-33.941 14.507 -33.941 14.507 -35.915 14.838 C-38 15 -38 15 -41 14 C-41.33 13.01 -41.66 12.02 -42 11 C-36.708 7.923 -36.708 7.923 -33.125 8.312 C-32.424 8.539 -31.722 8.766 -31 9 C-30.34 8.01 -29.68 7.02 -29 6 C-25.875 5.812 -25.875 5.812 -23 6 C-23.99 5.34 -24.98 4.68 -26 4 C-25.34 3.34 -24.68 2.68 -24 2 C-22.845 2.495 -22.845 2.495 -17 5 C-16.67 4.01 -16.34 3.02 -16 2 C-15.34 2.33 -14.68 2.66 -14 3 C-13.67 2.67 -13.34 2.34 -13 2 C-12.257 2.206 -11.515 2.412 -10.75 2.625 C-6.322 3.229 -4.402 0 0 0 Z " fill="#8EBE0B" transform="translate(152,203)"/>
<path d="M0 0 C0.66 0.33 1.32 0.66 2 1 C1.99 1.618 1.979 2.236 1.968 2.873 C1.789 15.114 1.852 26.915 4 39 C4.179 40.014 4.358 41.029 4.543 42.074 C4.874 43.9 5.212 45.724 5.559 47.547 C6.183 51.019 6.603 54.495 7 58 C6.01 58 5.02 58 4 58 C-0.989 44.776 -2.169 32.513 -2.25 18.5 C-2.259 17.365 -2.269 16.231 -2.278 15.062 C-2.257 9.677 -2.225 5.015 0 0 Z " fill="#AAC93D" transform="translate(37,120)"/>
<path d="M0 0 C0.949 0.33 1.898 0.66 2.875 1 C2.875 3.25 2.875 3.25 1.875 6 C-0.126 7.234 -2.133 8.128 -4.312 9.008 C-6.125 10 -6.125 10 -7.125 13 C-9.492 13.903 -11.68 14.585 -14.125 15.188 C-14.802 15.362 -15.479 15.536 -16.176 15.716 C-21.322 16.971 -25.865 17.369 -31.125 17 C-30.527 16.732 -29.929 16.464 -29.312 16.188 C-27.125 15 -27.125 15 -25.66 13.48 C-23.753 11.641 -22.071 11.138 -19.562 10.312 C-15.272 8.724 -12.371 6.701 -8.938 3.688 C-3.929 -0.593 -3.929 -0.593 0 0 Z " fill="#B3D93A" transform="translate(144.125,158)"/>
<path d="M0 0 C2 2 2 2 2.375 5.875 C2.291 8.806 2.234 9.703 0.375 12.062 C-0.409 12.702 -1.192 13.341 -2 14 C-2.993 15.176 -3.971 16.364 -4.938 17.562 C-8.188 21.312 -10.495 23.738 -15.652 24.277 C-23.334 24.53 -23.334 24.53 -25.836 22.539 C-27 21 -27 21 -27 20 C-26.203 19.902 -25.407 19.804 -24.586 19.703 C-15.502 18.421 -10.189 15.994 -4.324 8.883 C-2.345 6.069 -1.184 3.224 0 0 Z " fill="#B4AA6D" transform="translate(169,98)"/>
<path d="M0 0 C2.125 0.938 2.125 0.938 4 2 C3.67 2.33 3.34 2.66 3 3 C4.98 3.66 6.96 4.32 9 5 C8.34 8.3 7.68 11.6 7 15 C5.35 14.67 3.7 14.34 2 14 C2 13.34 2 12.68 2 12 C0.68 12.33 -0.64 12.66 -2 13 C-1.34 13.33 -0.68 13.66 0 14 C-0.33 14.66 -0.66 15.32 -1 16 C0.32 16.66 1.64 17.32 3 18 C-0.287 18.8 -1.71 19.097 -5 18 C-5 17.34 -5 16.68 -5 16 C-5.66 16 -6.32 16 -7 16 C-7.33 13.36 -7.66 10.72 -8 8 C-7.01 7.67 -6.02 7.34 -5 7 C-3.967 5.017 -2.966 3.017 -2 1 C-1.34 0.67 -0.68 0.34 0 0 Z " fill="#A8D22D" transform="translate(49,151)"/>
<path d="M0 0 C3 3.75 3 3.75 3 6 C3.99 6.33 4.98 6.66 6 7 C6.309 7.99 6.619 8.98 6.938 10 C7.113 10.495 7.113 10.495 8 13 C8.628 13.155 9.256 13.309 9.902 13.469 C12.643 14.163 13.11 15.158 14.625 17.5 C17.854 22.102 21.776 25.563 26.023 29.215 C26.676 29.804 27.328 30.393 28 31 C28 31.33 28 31.66 28 32 C23.207 32.274 19.72 31.5 16.043 28.293 C0 10.088 0 10.088 0 0 Z " fill="#87AC25" transform="translate(42,177)"/>
<path d="M0 0 C4.466 0.895 7.588 3.047 11 6 C12.25 8.125 12.25 8.125 13 10 C15.108 12.587 16.718 13.434 20 14 C20 14.66 20 15.32 20 16 C20.557 16.026 21.114 16.052 21.688 16.078 C27.683 16.524 31.767 18.051 37 21 C37 21.66 37 22.32 37 23 C43.681 23.761 50.367 24.434 57.062 25.062 C58.023 25.153 58.984 25.244 59.975 25.338 C62.316 25.559 64.658 25.78 67 26 C67 26.33 67 26.66 67 27 C40.285 27.826 40.285 27.826 30 22 C30 21.34 30 20.68 30 20 C26.428 19.083 22.832 18.334 19.219 17.598 C16.949 16.986 15.06 16.119 13 15 C13 14.34 13 13.68 13 13 C12.34 13 11.68 13 11 13 C8.375 10.625 8.375 10.625 6 8 C6 7.34 6 6.68 6 6 C5.34 6 4.68 6 4 6 C4 5.34 4 4.68 4 4 C2.68 3.34 1.36 2.68 0 2 C0 1.34 0 0.68 0 0 Z " fill="#D6CB99" transform="translate(60,208)"/>
<path d="M0 0 C5.46 5.04 5.46 5.04 6 9 C5.325 11.786 4.583 14.413 3.688 17.125 C3.574 17.489 3.574 17.489 3.002 19.332 C1.271 24.729 1.271 24.729 -1 27 C-1.99 27 -2.98 27 -4 27 C-4 27.66 -4 28.32 -4 29 C-4.66 29.33 -5.32 29.66 -6 30 C-6.33 30.99 -6.66 31.98 -7 33 C-8.65 32.67 -10.3 32.34 -12 32 C-11.67 30.68 -11.34 29.36 -11 28 C-13.64 27.67 -16.28 27.34 -19 27 C-18.67 26.34 -18.34 25.68 -18 25 C-17.361 24.876 -16.721 24.752 -16.062 24.625 C-14 24 -14 24 -12.75 21.938 C-12.502 21.298 -12.255 20.659 -12 20 C-10.68 20.66 -9.36 21.32 -8 22 C-8 22.66 -8 23.32 -8 24 C-7.051 23.649 -6.102 23.299 -5.125 22.938 C-2 22 -2 22 0 23 C0.33 20.03 0.66 17.06 1 14 C1.66 14 2.32 14 3 14 C3 13.34 3 12.68 3 12 C2.34 11.67 1.68 11.34 1 11 C1.66 11 2.32 11 3 11 C2.691 9.742 2.381 8.484 2.062 7.188 C1.888 6.48 1.714 5.772 1.535 5.043 C1.09 3.343 0.556 1.667 0 0 Z " fill="#96C510" transform="translate(164,168)"/>
<path d="M0 0 C0.33 0 0.66 0 1 0 C0.977 1.048 0.954 2.096 0.93 3.176 C0.911 4.555 0.893 5.934 0.875 7.312 C0.858 8.003 0.841 8.693 0.824 9.404 C0.788 13.171 0.856 14.784 3 18 C3.424 19.944 3.77 21.906 4.062 23.875 C4.628 27.606 5.23 31.305 6 35 C6.99 35 7.98 35 9 35 C10.605 36.969 10.605 36.969 12.188 39.5 C12.717 40.335 13.247 41.171 13.793 42.031 C14.191 42.681 14.59 43.331 15 44 C11.687 43.375 11.687 43.375 8 42 C6.222 39.247 5 37.31 5 34 C4.34 34 3.68 34 3 34 C2.918 33.237 2.835 32.474 2.75 31.688 C1.854 28.476 0.784 27.706 -2 26 C-1.34 26 -0.68 26 0 26 C0 23.36 0 20.72 0 18 C-0.619 17.959 -1.237 17.917 -1.875 17.875 C-2.226 17.731 -2.226 17.731 -4 17 C-5.25 13.938 -5.25 13.938 -6 11 C-5.381 10.484 -4.763 9.969 -4.125 9.438 C-1.525 6.455 -0.881 3.816 0 0 Z " fill="#9AC816" transform="translate(83,122)"/>
<path d="M0 0 C0.66 0 1.32 0 2 0 C7.191 12.976 9.125 26.315 5 40 C2.268 44.588 -1.727 47.858 -6 51 C-6 50.01 -6 49.02 -6 48 C-8.64 50.31 -11.28 52.62 -14 55 C-14 52 -14 52 -11.953 49.844 C-11.061 49.07 -10.169 48.297 -9.25 47.5 C-8.368 46.727 -7.487 45.953 -6.578 45.156 C-5.015 43.849 -3.421 42.576 -1.777 41.371 C1.665 38.716 3.178 35.168 4 31 C4.079 29.34 4.108 27.677 4.098 26.016 C4.096 25.548 4.096 25.548 4.088 23.184 C4.08 22.216 4.071 21.247 4.062 20.25 C4.058 19.266 4.053 18.283 4.049 17.27 C4.037 14.846 4.021 12.423 4 10 C3.01 9.67 2.02 9.34 1 9 C0 2.25 0 2.25 0 0 Z " fill="#DCCFA1" transform="translate(170,172)"/>
<path d="M0 0 C0.99 0.33 1.98 0.66 3 1 C2.381 1.248 1.763 1.495 1.125 1.75 C-2.834 4.079 -3.871 9.015 -5.562 13.125 C-7.903 18.806 -7.903 18.806 -9 21 C-9.309 27.003 -8.451 32.759 -7.562 38.688 C-7.428 39.624 -7.293 40.561 -7.154 41.525 C-6.586 45.406 -6.008 49.206 -5 53 C-5.66 53 -6.32 53 -7 53 C-9.142 47.879 -10.367 43.526 -10.691 37.98 C-11 36 -11 36 -13 33 C-12.983 30.383 -12.867 27.908 -12.625 25.312 C-12.568 24.611 -12.512 23.909 -12.453 23.186 C-12.312 21.456 -12.157 19.728 -12 18 C-11.01 17.67 -10.02 17.34 -9 17 C-9 15.02 -9 13.04 -9 11 C-8.34 11 -7.68 11 -7 11 C-6.866 10.536 -6.866 10.536 -6.188 8.188 C-5.09 5.242 -4.466 3.85 -2 2 C-1.34 2 -0.68 2 0 2 C0 1.34 0 0.68 0 0 Z " fill="#7EA80F" transform="translate(96,104)"/>
<path d="M0 0 C0.66 0.66 1.32 1.32 2 2 C0.458 3.542 -1.011 3.145 -3.156 3.176 C-4.015 3.2 -4.873 3.223 -5.758 3.248 C-7.554 3.29 -9.351 3.322 -11.148 3.342 C-18.507 3.577 -24.907 4.975 -30.305 10.254 C-30.823 11.016 -31.341 11.778 -31.875 12.562 C-33.774 15.283 -35.574 17.727 -38 20 C-36.316 12.422 -33.06 7.823 -27 3 C-19.405 -1.709 -8.557 -2.037 0 0 Z " fill="#A79F5E" transform="translate(130,111)"/>
<path d="M0 0 C1.016 0.471 2.032 0.941 3.078 1.426 C16.911 7.73 29.937 10.483 45 12 C44.67 12.99 44.34 13.98 44 15 C32.977 14.733 23.528 13.457 13 10 C11.67 9.652 10.339 9.311 9 9 C9 8.34 9 7.68 9 7 C7.35 6.67 5.7 6.34 4 6 C4 5.34 4 4.68 4 4 C2.68 3.34 1.36 2.68 0 2 C0 1.34 0 0.68 0 0 Z " fill="#B3A867" transform="translate(71,215)"/>
<path d="M0 0 C0.66 0 1.32 0 2 0 C2 0.66 2 1.32 2 2 C3.32 1.67 4.64 1.34 6 1 C6.553 3.076 7 4.844 7 7 C7.66 6.01 8.32 5.02 9 4 C13.95 4.99 18.9 5.98 24 7 C24 7.99 24 8.98 24 10 C20.942 10.544 18.112 11 15 11 C15 10.34 15 9.68 15 9 C14.435 9.142 13.871 9.284 13.289 9.43 C10.986 10.003 8.684 10.577 6.375 11.125 C5.599 11.313 4.823 11.501 4.023 11.695 C2 12 2 12 0 11 C0.99 10.01 1.98 9.02 3 8 C2.01 7.67 1.02 7.34 0 7 C0 6.34 0 5.68 0 5 C-1.65 5.66 -3.3 6.32 -5 7 C-4.217 5.828 -3.423 4.662 -2.625 3.5 C-2.184 2.85 -1.743 2.201 -1.289 1.531 C-1.076 1.279 -1.076 1.279 0 0 Z " fill="#A8D328" transform="translate(93,166)"/>
<path d="M0 0 C0.884 0.005 1.767 0.009 2.678 0.014 C4.848 0.025 7.018 0.043 9.188 0.062 C9.188 0.392 9.188 0.722 9.188 1.062 C6.547 1.227 6.547 1.227 -6.812 2.062 C-3.843 2.062 -0.873 2.062 2.188 2.062 C2.188 2.722 2.188 3.383 2.188 4.062 C-2.055 5.052 -6.271 5.378 -10.605 5.684 C-12.812 6.062 -12.812 6.062 -14.812 8.062 C-16.938 7.688 -16.938 7.688 -18.812 7.062 C-18.483 6.403 -18.153 5.742 -17.812 5.062 C-18.511 5.351 -19.21 5.64 -19.93 5.938 C-20.84 6.309 -21.75 6.68 -22.688 7.062 C-23.14 7.248 -23.14 7.248 -25.43 8.188 C-27.812 9.062 -27.812 9.062 -29.812 9.062 C-29.812 8.072 -29.812 7.082 -29.812 6.062 C-27.418 5.246 -25.022 4.434 -22.625 3.625 C-21.951 3.395 -21.278 3.165 -20.584 2.928 C-13.437 0.522 -7.478 -0.072 0 0 Z " fill="#BFE149" transform="translate(112.8125,53.9375)"/>
<path d="M0 0 C5.741 3.914 5.741 3.914 6.91 8.812 C6.99 10.207 7.041 11.603 7.062 13 C7.108 13.699 7.154 14.397 7.201 15.117 C7.458 21.452 5.511 24.237 1.52 28.895 C0.626 29.857 -0.267 30.82 -1.188 31.812 C-1.419 32.064 -1.419 32.064 -2.592 33.334 C-3.724 34.56 -4.861 35.78 -6 37 C-6.66 36.34 -7.32 35.68 -8 35 C-7.34 35 -6.68 35 -6 35 C-5.734 34.435 -5.469 33.871 -5.195 33.289 C-4 31 -4 31 -2.492 28.773 C3.14 20.42 2.677 14.508 1 4.875 C0.676 3.248 0.345 1.622 0 0 Z " fill="#E0D4A9" transform="translate(170,89)"/>
<path d="M0 0 C0.469 -0.015 0.469 -0.015 2.842 -0.088 C8.801 -0.142 12.105 0.421 16.688 4.312 C14.75 4.875 14.75 4.875 12.688 5.312 C12.523 5.147 12.523 5.147 11.688 4.312 C-12.493 3.21 -12.493 3.21 -18.395 8.004 C-20.312 9.938 -20.312 9.938 -21.938 11.852 C-22.164 12.093 -22.164 12.093 -23.312 13.312 C-23.972 13.312 -24.632 13.312 -25.312 13.312 C-25.642 14.303 -25.972 15.292 -26.312 16.312 C-26.642 15.653 -26.972 14.993 -27.312 14.312 C-25.646 12.646 -23.979 10.979 -22.312 9.312 C-21.446 8.405 -20.58 7.498 -19.688 6.562 C-17.312 4.312 -17.312 4.312 -14.312 3.312 C-13.983 2.653 -13.653 1.993 -13.312 1.312 C-8.908 -0.156 -4.615 0.047 0 0 Z " fill="#C8BE86" transform="translate(122.3125,114.6875)"/>
<path d="M0 0 C0.928 2.523 1.085 3.737 0.25 6.332 C-3.386 13.548 -7.251 18.765 -14.25 22.938 C-22.379 25.241 -28.173 24.88 -35.688 20.812 C-38.762 19.02 -38.762 19.02 -41 17 C-41.332 14.262 -41.332 14.262 -41 12 C-39.68 12.33 -38.36 12.66 -37 13 C-37 14.32 -37 15.64 -37 17 C-36.639 17.144 -36.639 17.144 -34.812 17.875 C-32 19 -32 19 -29.812 20.125 C-24.547 21.763 -19.51 22.171 -14.422 19.797 C-10.404 17.231 -8.039 15.333 -6 11 C-5.34 10.67 -4.68 10.34 -4 10 C-2.93 7.715 -2.93 7.715 -1.875 4.938 C-1.698 4.478 -1.698 4.478 -0.805 2.152 C-0.539 1.442 -0.274 0.732 0 0 Z " fill="#49650A" transform="translate(169,94)"/>
<path d="M0 0 C0.66 0 1.32 0 2 0 C0.834 2.429 -0.433 4.773 -1.75 7.125 C-2.097 7.745 -2.444 8.365 -2.801 9.004 C-4 11 -4 11 -5.418 12.902 C-11.632 21.736 -12.966 32.595 -15 43 C-18.019 39.413 -18.019 39.413 -17.848 35.695 C-14.931 22.98 -8.456 9.98 0 0 Z " fill="#B3D73B" transform="translate(55,81)"/>
<path d="M0 0 C1.32 0.66 2.64 1.32 4 2 C3.526 2.495 3.051 2.99 2.562 3.5 C0.378 6.995 0.341 9.91 0 14 C-4 14 -4 14 -7 13 C-7 10 -7 10 -4.5 7.438 C-3.675 6.633 -2.85 5.829 -2 5 C-2 4.34 -2 3.68 -2 3 C-1.34 3 -0.68 3 0 3 C0 2.01 0 1.02 0 0 Z M-9 13 C-8.34 13.33 -7.68 13.66 -7 14 C-7.66 15.32 -8.32 16.64 -9 18 C-8.34 18.33 -7.68 18.66 -7 19 C-7.99 19.33 -8.98 19.66 -10 20 C-9.887 20.299 -9.887 20.299 -9.312 21.812 C-9 24 -9 24 -10.312 25.75 C-12 27 -12 27 -14 27 C-12.8 16.8 -12.8 16.8 -9 13 Z " fill="#B2D83E" transform="translate(58,90)"/>
<path d="M0 0 C1.268 0.064 2.537 0.129 3.844 0.195 C8.122 0.991 10.098 2.261 13.5 4.875 C13.17 5.37 13.17 5.37 11.5 7.875 C10.864 7.554 10.229 7.233 9.574 6.902 C4.75 5.29 -0.118 5.48 -5.17 5.396 C-7.286 5.325 -9.396 5.11 -11.5 4.875 C-12.16 3.885 -12.82 2.895 -13.5 1.875 C-8.777 -0.005 -5.06 -0.319 0 0 Z " fill="#588302" transform="translate(118.5,99.125)"/>
<path d="M0 0 C2.778 2.778 2.3 4.568 2.312 8.438 C2.329 9.591 2.346 10.745 2.363 11.934 C1.959 15.345 1.547 15.898 -1 18 C-2.274 20.053 -3.449 22.145 -4.621 24.258 C-6 26 -6 26 -10 27 C-8.35 24.36 -6.7 21.72 -5 19 C-5.99 19.99 -6.98 20.98 -8 22 C-8 20.68 -8 19.36 -8 18 C-7.386 17.407 -6.773 16.814 -6.141 16.203 C-3.311 13.291 -2.762 10.654 -1.75 6.75 C-1.415 5.487 -1.08 4.223 -0.734 2.922 C-0.492 1.958 -0.25 0.993 0 0 Z " fill="#74A307" transform="translate(169,177)"/>
<path d="M0 0 C0.66 0 1.32 0 2 0 C3.125 1.75 3.125 1.75 4 4 C3.25 5.812 3.25 5.812 2 8 C1.303 10.324 0.631 12.657 0 15 C0.99 15 1.98 15 3 15 C3.33 14.34 3.66 13.68 4 13 C4 13.99 4 14.98 4 16 C2.68 16.33 1.36 16.66 0 17 C0 17.66 0 18.32 0 19 C0.66 19.33 1.32 19.66 2 20 C0.02 20.33 -1.96 20.66 -4 21 C-4.054 18.709 -4.093 16.417 -4.125 14.125 C-4.148 12.849 -4.171 11.573 -4.195 10.258 C-4 7 -4 7 -2 5 C-1.67 4.01 -1.34 3.02 -1 2 C-0.67 1.34 -0.34 0.68 0 0 Z " fill="#B6DA41" transform="translate(42,121)"/>
<path d="M0 0 C1.32 0.66 2.64 1.32 4 2 C3.175 2.763 2.35 3.526 1.5 4.312 C-1 7 -1 7 -1 10 C-2.98 10.66 -4.96 11.32 -7 12 C-7 12.99 -7 13.98 -7 15 C-7.66 15 -8.32 15 -9 15 C-8.67 15.99 -8.34 16.98 -8 18 C-9.29 19.376 -10.627 20.708 -12 22 C-12.66 22 -13.32 22 -14 22 C-14 22.99 -14 23.98 -14 25 C-14.99 25.33 -15.98 25.66 -17 26 C-17 24.68 -17 23.36 -17 22 C-16.34 22 -15.68 22 -15 22 C-14.009 20.034 -13.031 18.068 -12.105 16.07 C-9.074 9.646 -5.129 4.939 0 0 Z " fill="#BBDE4B" transform="translate(65,78)"/>
<path d="M0 0 C-0.804 0.763 -1.609 1.526 -2.438 2.312 C-5 5 -5 5 -6 8 C-6.66 7.67 -7.32 7.34 -8 7 C-7.67 6.34 -7.34 5.68 -7 5 C-11.817 7.247 -15.894 9.578 -20 13 C-21.311 13.709 -22.638 14.395 -24 15 C-24.66 14.34 -25.32 13.68 -26 13 C-25.67 12.34 -25.34 11.68 -25 11 C-24.34 11 -23.68 11 -23 11 C-23 10.34 -23 9.68 -23 9 C-22.674 8.843 -22.674 8.843 -21.023 8.047 C-13.005 4.12 -13.005 4.12 -9.562 1.75 C-5.984 -0.694 -4.077 -1.265 0 0 Z " fill="#B8DC43" transform="translate(94,63)"/>
<path d="M0 0 C0.99 0.33 1.98 0.66 3 1 C-1.431 6.785 -1.431 6.785 -4.312 7.875 C-4.869 7.916 -5.426 7.957 -6 8 C-6 8.66 -6 9.32 -6 10 C-11.293 11.764 -16.777 11.715 -21.938 9.688 C-25 8 -25 8 -26 5 C-28.066 4.051 -28.066 4.051 -30.562 3.312 C-31.389 3.061 -32.215 2.81 -33.066 2.551 C-33.704 2.369 -34.343 2.187 -35 2 C-35 1.67 -35 1.34 -35 1 C-29.25 0.875 -29.25 0.875 -27 2 C-27 2.66 -27 3.32 -27 4 C-26.01 4 -25.02 4 -24 4 C-23.67 5.32 -23.34 6.64 -23 8 C-21.68 7.67 -20.36 7.34 -19 7 C-19 7.66 -19 8.32 -19 9 C-14.71 8.34 -10.42 7.68 -6 7 C-6 6.34 -6 5.68 -6 5 C-2.538 2 -2.538 2 0 2 C0 1.34 0 0.68 0 0 Z " fill="#7FAF04" transform="translate(161,99)"/>
<path d="M0 0 C0.89 2.446 1.187 3.564 0.145 6 C-4.172 12.48 -7.478 15.936 -14.719 18.934 C-16.87 19.939 -18.469 21.023 -20.312 22.5 C-26.079 26.862 -33.787 29.357 -41 29 C-38.468 26.468 -36.516 26.22 -33.062 25.312 C-25.421 23.059 -19.214 19.356 -13.004 14.41 C-11 13 -11 13 -8.457 12.164 C-5.104 10.575 -4.327 8.653 -2.688 5.375 C-2.432 4.874 -2.432 4.874 -1.137 2.336 C-0.762 1.565 -0.386 0.794 0 0 Z " fill="#719B0A" transform="translate(169,191)"/>
<path d="M0 0 C6.176 0.416 12.223 0.986 18.312 2.125 C22.871 2.93 26.421 2.864 31 2 C34.002 1.908 36.997 1.939 40 2 C38.528 4.944 36.998 5.66 34 7 C31.267 6.911 28.709 6.444 26 6 C25.67 6.165 25.67 6.165 24 7 C21.617 6.223 21.617 6.223 18.875 5.062 C18.42 4.872 18.42 4.872 16.117 3.91 C15.419 3.61 14.72 3.309 14 3 C13.67 3.66 13.34 4.32 13 5 C13 4.34 13 3.68 13 3 C10.69 3.33 8.38 3.66 6 4 C6 3.34 6 2.68 6 2 C4.02 2 2.04 2 0 2 C0 1.34 0 0.68 0 0 Z " fill="#E3D7AC" transform="translate(97,233)"/>
<path d="M0 0 C0 0.99 0 1.98 0 3 C-2.309 5.121 -2.309 5.121 -5.438 7.438 C-6.447 8.199 -7.456 8.961 -8.496 9.746 C-16.643 15.212 -23.282 16.571 -33.062 16.25 C-33.591 16.241 -33.591 16.241 -36.264 16.195 C-38.843 16.149 -41.421 16.083 -44 16 C-44 15.67 -44 15.34 -44 15 C-43.558 14.976 -43.558 14.976 -41.324 14.852 C-23.839 13.762 -13.945 10.561 0 0 Z " fill="#C6BA82" transform="translate(158,216)"/>
<path d="M0 0 C0.66 0.33 1.32 0.66 2 1 C-1.63 4.63 -5.26 8.26 -9 12 C-9 9 -9 9 -7.031 6.738 C-6.196 5.938 -5.361 5.137 -4.5 4.312 C-3.665 3.504 -2.829 2.696 -1.969 1.863 C-1.319 1.248 -0.669 0.634 0 0 Z M-11 12 C-10.67 12.99 -10.34 13.98 -10 15 C-10.33 15.66 -10.66 16.32 -11 17 C-10.835 17.639 -10.67 18.279 -10.5 18.938 C-10 21 -10 21 -11 24 C-11.142 25.663 -11.22 27.332 -11.25 29 C-11.276 29.866 -11.302 30.733 -11.328 31.625 C-10.941 34.429 -10.171 35.263 -8 37 C-8.33 37.99 -8.66 38.98 -9 40 C-13.774 36.44 -13.774 36.44 -14.351 32.761 C-14.339 30.109 -14.174 27.516 -13.938 24.875 C-13.884 23.969 -13.831 23.063 -13.775 22.129 C-13.306 15.459 -13.306 15.459 -11 12 Z " fill="#E7E0B4" transform="translate(107,125)"/>
<path d="M0 0 C0.33 0 0.66 0 1 0 C1.33 1.98 1.66 3.96 2 6 C2.99 6 3.98 6 5 6 C6.197 12.32 7.276 18.608 8 25 C7.01 25 6.02 25 5 25 C1.756 16.627 0.289 8.971 0 0 Z " fill="#98BB31" transform="translate(36,153)"/>
<path d="M0 0 C0.66 0.33 1.32 0.66 2 1 C-13.932 14.207 -13.932 14.207 -23.75 14.062 C-24.549 14.053 -25.348 14.044 -26.172 14.035 C-26.775 14.024 -27.378 14.012 -28 14 C-25.509 12.711 -23.159 11.7 -20.5 10.75 C-13.308 8.1 -6.007 4.806 0 0 Z " fill="#C0E24C" transform="translate(141,161)"/>
<path d="M0 0 C0.825 0.165 0.825 0.165 5 1 C5 1.66 5 2.32 5 3 C5.825 3.248 6.65 3.495 7.5 3.75 C10.169 4.703 12.397 5.688 14.875 7 C18.181 8.7 21.284 9.698 24.902 10.496 C28.681 11.404 32.332 12.726 36 14 C36 14.33 36 14.66 36 15 C23.079 14.139 9.02 9.688 0 0 Z " fill="#638806" transform="translate(66,209)"/>
<path d="M0 0 C0.99 0.33 1.98 0.66 3 1 C3 1.99 3 2.98 3 4 C4.65 4 6.3 4 8 4 C8 4.66 8 5.32 8 6 C8.66 6 9.32 6 10 6 C10.33 5.01 10.66 4.02 11 3 C13.062 2.312 13.062 2.312 15 2 C15.33 3.32 15.66 4.64 16 6 C17.32 6 18.64 6 20 6 C20 6.66 20 7.32 20 8 C16.187 9.271 14.092 8.565 10.188 7.688 C9.586 7.555 9.586 7.555 6.543 6.887 C3.292 6.073 0.161 5.108 -3 4 C-2.67 3.01 -2.34 2.02 -2 1 C-1.34 1.33 -0.68 1.66 0 2 C0 1.34 0 0.68 0 0 Z " fill="#8CBA09" transform="translate(90,209)"/>
<path d="M0 0 C0.33 0 0.66 0 1 0 C1.5 2.562 1.5 2.562 1 6 C-2.994 10.593 -7.764 14.67 -13.945 15.301 C-14.995 15.305 -16.044 15.309 -17.125 15.312 C-18.179 15.329 -19.234 15.346 -20.32 15.363 C-21.205 15.243 -22.089 15.124 -23 15 C-23.66 14.01 -24.32 13.02 -25 12 C-24.12 12.035 -23.239 12.07 -22.332 12.105 C-21.751 12.119 -21.751 12.119 -18.812 12.188 C-18.238 12.205 -18.238 12.205 -15.332 12.293 C-11.019 11.914 -8.538 10.526 -5.488 7.5 C-3.565 5.046 -1.73 2.595 0 0 Z " fill="#C2B780" transform="translate(168,109)"/>
<path d="M0 0 C1.656 2.484 3.139 4.977 4.625 7.562 C7.468 12.338 10.724 16.595 14.266 20.871 C16 23 16 23 18 26 C15 26 15 26 13.238 24.488 C7.736 18.271 2.546 11.548 -1 4 C-0.715 1.613 -0.715 1.613 0 0 Z " fill="#E7DFB2" transform="translate(43,182)"/>
<path d="M0 0 C0.66 0.33 1.32 0.66 2 1 C-0.037 5.527 -2.576 9.269 -5.598 13.168 C-6.795 14.732 -7.907 16.361 -9 18 C-9.99 18 -10.98 18 -12 18 C-10.728 13.44 -8.968 10.638 -6 7 C-5.918 6.639 -5.918 6.639 -5.5 4.812 C-5 3 -5 3 -3 1.812 C-2.34 1.544 -1.68 1.276 -1 1 C-0.67 0.67 -0.34 0.34 0 0 Z " fill="#CBE764" transform="translate(62,76)"/>
<path d="M0 0 C1.667 0.667 3.333 1.333 5 2 C5.866 2.309 6.733 2.619 7.625 2.938 C10 4 10 4 11.5 5.562 C13.507 7.486 15.297 7.635 18 8 C17.67 8.66 17.34 9.32 17 10 C18.32 10.99 19.64 11.98 21 13 C14.651 12.586 9.266 10.618 4 7 C2.143 4.705 1.182 2.741 0 0 Z " fill="#729E06" transform="translate(67,205)"/>
<path d="M0 0 C2.576 2.576 2.538 4.24 3.062 7.812 C3.627 11.565 4.224 15.285 5 19 C5.99 19 6.98 19 8 19 C9.605 20.969 9.605 20.969 11.188 23.5 C11.717 24.335 12.247 25.171 12.793 26.031 C12.992 26.356 12.992 26.356 14 28 C10.688 27.375 10.688 27.375 7 26 C5.222 23.247 4 21.31 4 18 C3.34 18 2.68 18 2 18 C0.595 11.88 -0.233 6.283 0 0 Z " fill="#8EBE14" transform="translate(84,138)"/>
<path d="M0 0 C-3.537 2.358 -5.422 2.347 -9.625 2.562 C-15.117 2.882 -20.54 3.341 -26 4 C-19.731 -3.259 -8.544 -1.899 0 0 Z " fill="#928D48" transform="translate(127,109)"/>
<path d="M0 0 C0.75 1.75 0.75 1.75 1 4 C-0.812 6.25 -0.812 6.25 -3 8 C-3.66 8 -4.32 8 -5 8 C-5 8.66 -5 9.32 -5 10 C-5.66 10 -6.32 10 -7 10 C-7 10.66 -7 11.32 -7 12 C-12 14 -17 16 -22 18 C-21.67 16.68 -21.34 15.36 -21 14 C-21 14.66 -21 15.32 -21 16 C-20.34 16 -19.68 16 -19 16 C-19 15.34 -19 14.68 -19 14 C-17.544 13.329 -16.085 12.663 -14.625 12 C-13.813 11.629 -13.001 11.257 -12.164 10.875 C-10 10 -10 10 -8 10 C-8 8.35 -8 6.7 -8 5 C-6.35 5.33 -4.7 5.66 -3 6 C-3 4.35 -3 2.7 -3 1 C-2.01 1.33 -1.02 1.66 0 2 C0 1.34 0 0.68 0 0 Z " fill="#7EAD03" transform="translate(160,195)"/>
<path d="M0 0 C0.66 0 1.32 0 2 0 C7.034 12.584 8.479 23.736 5 37 C4.67 37 4.34 37 4 37 C4 28.09 4 19.18 4 10 C3.01 9.67 2.02 9.34 1 9 C0 2.25 0 2.25 0 0 Z " fill="#E6DAB2" transform="translate(170,172)"/>
<path d="M0 0 C12.959 1.69 12.959 1.69 17.562 3.062 C22.947 4.531 28.444 4.682 34 5 C34 5.33 34 5.66 34 6 C30.688 6.059 27.375 6.094 24.062 6.125 C23.599 6.133 23.599 6.133 21.256 6.176 C15.181 6.218 9.882 5.532 4 4 C4 3.34 4 2.68 4 2 C2.68 1.34 1.36 0.68 0 0 Z " fill="#CBBE89" transform="translate(93,227)"/>
<path d="M0 0 C1.097 0.482 2.194 0.964 3.324 1.461 C4.779 2.099 6.233 2.737 7.688 3.375 C8.409 3.692 9.13 4.009 9.873 4.336 C10.579 4.645 11.285 4.955 12.012 5.273 C12.698 5.576 13.384 5.879 14.091 6.19 C15.689 6.868 17.32 7.464 18.957 8.039 C19.631 8.356 20.305 8.673 21 9 C21.33 9.99 21.66 10.98 22 12 C17.71 11.01 13.42 10.02 9 9 C9 8.34 9 7.68 9 7 C7.35 6.67 5.7 6.34 4 6 C4 5.34 4 4.68 4 4 C2.68 3.34 1.36 2.68 0 2 C0 1.34 0 0.68 0 0 Z " fill="#C8BE85" transform="translate(71,215)"/>
<path d="M0 0 C0.66 0.33 1.32 0.66 2 1 C0.921 1.964 -0.163 2.921 -1.25 3.875 C-1.853 4.409 -2.457 4.942 -3.078 5.492 C-8.152 9.473 -12.716 9.648 -19 9 C-22.725 7.927 -25.774 6.151 -29 4 C-28.67 3.01 -28.34 2.02 -28 1 C-27.257 1.639 -26.515 2.279 -25.75 2.938 C-21.017 6.488 -15.774 6.709 -10 6 C-6.121 4.606 -2.92 2.92 0 0 Z " fill="#5F8A04" transform="translate(161,107)"/>
<path d="M0 0 C0.33 0 0.66 0 1 0 C1.061 0.999 1.121 1.998 1.184 3.027 C1.267 4.318 1.351 5.608 1.438 6.938 C1.519 8.225 1.6 9.513 1.684 10.84 C2 14 2 14 3 15 C3.291 17.487 3.515 19.942 3.688 22.438 C3.747 23.132 3.807 23.826 3.869 24.541 C3.997 26.357 4.006 28.18 4 30 C3.34 30.66 2.68 31.32 2 32 C-0.131 25.086 -0.237 18.701 -0.125 11.5 C-0.116 10.391 -0.107 9.283 -0.098 8.141 C-0.074 5.427 -0.041 2.714 0 0 Z " fill="#A0C91F" transform="translate(36,129)"/>
<path d="M0 0 C-3 1 -3 1 -5.438 0.562 C-13.902 -0.774 -21.797 -1.19 -29 4 C-29.525 4.54 -30.049 5.08 -30.59 5.637 C-32 7 -32 7 -34 7 C-34 6.34 -34 5.68 -34 5 C-23.664 -3.625 -12.209 -5.426 0 0 Z " fill="#3A4C08" transform="translate(130,109)"/>
<path d="M0 0 C0.884 0.005 1.767 0.009 2.678 0.014 C4.848 0.025 7.018 0.043 9.188 0.062 C9.188 0.392 9.188 0.722 9.188 1.062 C6.547 1.227 6.547 1.227 -6.812 2.062 C-3.843 2.062 -0.873 2.062 2.188 2.062 C2.188 2.722 2.188 3.383 2.188 4.062 C-2.124 5.006 -6.433 5.543 -10.812 6.062 C-10.916 5.423 -11.019 4.784 -11.125 4.125 C-11.352 3.444 -11.579 2.764 -11.812 2.062 C-12.802 1.733 -13.793 1.403 -14.812 1.062 C-9.897 -0.23 -5.04 -0.049 0 0 Z " fill="#C5E35A" transform="translate(112.8125,53.9375)"/>
<path d="M0 0 C0 3 0 3 -2 6 C-2.245 8.159 -2.402 10.329 -2.5 12.5 C-2.778 18.667 -2.778 18.667 -5 22 C-6.013 18.63 -6.166 15.511 -6.188 12 C-6.202 10.969 -6.216 9.938 -6.23 8.875 C-6 6 -5.574 4.391 -4 2 C-1.875 0.75 -1.875 0.75 0 0 Z " fill="#BFB67C" transform="translate(94,131)"/>
<path d="M0 0 C0.99 0.33 1.98 0.66 3 1 C6.614 1.228 10.221 1.394 13.84 1.518 C17.684 1.694 19.734 1.823 23 4 C23 4.66 23 5.32 23 6 C19.583 5.693 16.166 5.378 12.75 5.062 C12.266 5.019 12.266 5.019 9.816 4.799 C9.349 4.755 9.349 4.755 6.984 4.535 C6.126 4.457 5.267 4.378 4.382 4.297 C2.184 4.023 0.133 3.589 -2 3 C-1.34 2.01 -0.68 1.02 0 0 Z " fill="#496F02" transform="translate(105,102)"/>
<path d="M0 0 C5.45 5.031 5.45 5.031 6 9 C5.374 11.794 4.675 14.408 3.812 17.125 C3.603 17.853 3.394 18.582 3.178 19.332 C1.524 24.64 1.524 24.64 -1.176 26.492 C-1.778 26.66 -2.38 26.827 -3 27 C-2.67 25.68 -2.34 24.36 -2 23 C-1.34 23 -0.68 23 0 23 C0.165 21.515 0.165 21.515 1 14 C1.66 14 2.32 14 3 14 C3 13.34 3 12.68 3 12 C2.34 11.67 1.68 11.34 1 11 C1.66 11 2.32 11 3 11 C2.691 9.742 2.381 8.484 2.062 7.188 C1.888 6.48 1.714 5.772 1.535 5.043 C1.09 3.343 0.556 1.667 0 0 Z " fill="#89BA08" transform="translate(164,168)"/>
<path d="M0 0 C4.95 0.99 9.9 1.98 15 3 C15 3.99 15 4.98 15 6 C11.942 6.544 9.112 7 6 7 C6 6.34 6 5.68 6 5 C3.69 5.33 1.38 5.66 -1 6 C-0.34 5.34 0.32 4.68 1 4 C0.34 3.67 -0.32 3.34 -1 3 C-0.67 2.01 -0.34 1.02 0 0 Z " fill="#B2DA32" transform="translate(102,170)"/>
<path d="M0 0 C0.99 0 1.98 0 3 0 C3.33 1.32 3.66 2.64 4 4 C0.898 4.533 -2.207 5.049 -5.312 5.562 C-6.194 5.714 -7.075 5.865 -7.982 6.021 C-8.83 6.16 -9.678 6.299 -10.551 6.441 C-10.941 6.507 -10.941 6.507 -12.915 6.838 C-15 7 -15 7 -18 6 C-18.33 5.01 -18.66 4.02 -19 3 C-18.01 2.67 -17.02 2.34 -16 2 C-16 2.66 -16 3.32 -16 4 C-14.375 3.859 -12.75 3.712 -11.125 3.562 C-10.22 3.481 -9.315 3.4 -8.383 3.316 C-6 3 -6 3 -4 2 C-4 2.66 -4 3.32 -4 4 C-3.34 4 -2.68 4 -2 4 C-2 3.34 -2 2.68 -2 2 C-1.34 2 -0.68 2 0 2 C0 1.34 0 0.68 0 0 Z " fill="#84B207" transform="translate(129,211)"/>
<path d="M0 0 C0.66 0.33 1.32 0.66 2 1 C-1.799 6.699 -1.799 6.699 -5.008 7.504 C-8.149 7.591 -10.417 7.419 -13 5.562 C-14 4 -14 4 -14 3 C-13.157 2.867 -12.314 2.734 -11.445 2.598 C-10.35 2.421 -9.254 2.244 -8.125 2.062 C-7.58 1.975 -7.58 1.975 -4.82 1.535 C-2 1 -2 1 0 0 Z " fill="#ADA364" transform="translate(156,115)"/>
<path d="M0 0 C0 0.66 0 1.32 0 2 C-3.068 2.897 -5.793 3.117 -8.984 3.098 C-9.919 3.094 -10.854 3.091 -11.816 3.088 C-12.784 3.08 -13.753 3.071 -14.75 3.062 C-15.734 3.058 -16.717 3.053 -17.73 3.049 C-20.154 3.037 -22.577 3.021 -25 3 C-17.504 -0.953 -8.301 -0.162 0 0 Z " fill="#5C8204" transform="translate(127,222)"/>
<path d="M0 0 C0.99 0.33 1.98 0.66 3 1 C-1.479 6.439 -7.484 9.478 -14 12 C-16.875 12.168 -16.875 12.168 -19 12 C-16.727 10.485 -14.756 9.38 -12.312 8.25 C-8.359 6.331 -5.122 3.89 -1.762 1.074 C-1.18 0.72 -0.599 0.365 0 0 Z " fill="#ABD52F" transform="translate(139,159)"/>
<path d="M0 0 C0.66 0 1.32 0 2 0 C2.352 6.473 2.172 11.266 -1 17 C-1.66 17.33 -2.32 17.66 -3 18 C-3.625 16.25 -3.625 16.25 -4 14 C-3.333 12.667 -2.667 11.333 -2 10 C-1.573 8.262 -1.199 6.51 -0.875 4.75 C-0.707 3.858 -0.54 2.966 -0.367 2.047 C-0.246 1.371 -0.125 0.696 0 0 Z " fill="#81AA1E" transform="translate(168,84)"/>
<path d="M0 0 C0 0.66 0 1.32 0 2 C-1.456 2.671 -2.915 3.337 -4.375 4 C-4.781 4.186 -4.781 4.186 -6.836 5.125 C-9 6 -9 6 -11 6 C-11 6.66 -11 7.32 -11 8 C-11.66 8 -12.32 8 -13 8 C-13.33 8.66 -13.66 9.32 -14 10 C-15.65 10 -17.3 10 -19 10 C-17.68 9.34 -16.36 8.68 -15 8 C-15 7.01 -15 6.02 -15 5 C-12.342 3.576 -9.912 2.728 -7 2 C-6.319 1.649 -5.639 1.299 -4.938 0.938 C-3 0 -3 0 0 0 Z " fill="#87B606" transform="translate(152,203)"/>
<path d="M0 0 C0.33 0 0.66 0 1 0 C1.081 2.104 1.139 4.208 1.188 6.312 C1.222 7.484 1.257 8.656 1.293 9.863 C1 13 1 13 -0.359 14.66 C-0.901 15.102 -1.442 15.544 -2 16 C-3.274 18.053 -4.449 20.145 -5.621 22.258 C-7.289 24.365 -8.387 24.634 -11 25 C-10.807 24.758 -10.807 24.758 -9.828 23.531 C-3.93 15.94 -0.45 9.727 0 0 Z " fill="#7F9D24" transform="translate(170,179)"/>
<path d="M0 0 C0.66 0.66 1.32 1.32 2 2 C-1.813 8.513 -7.066 13.843 -14 17 C-11.045 13.458 -8.075 10.014 -4.75 6.812 C-2.49 4.502 -1.139 2.961 0 0 Z M-16 17 C-15.34 17.33 -14.68 17.66 -14 18 C-14.495 18.33 -14.495 18.33 -17 20 C-17.33 19.34 -17.66 18.68 -18 18 C-17.34 17.67 -16.68 17.34 -16 17 Z " fill="#D6C999" transform="translate(171,206)"/>
<path d="M0 0 C0.66 0.66 1.32 1.32 2 2 C0.719 3.707 -0.618 5.374 -2 7 C-2.66 7 -3.32 7 -4 7 C-4 8.65 -4 10.3 -4 12 C-4.99 12.33 -5.98 12.66 -7 13 C-7.502 7.726 -6.329 5.09 -3 1 C-2.01 0.67 -1.02 0.34 0 0 Z " fill="#C5E558" transform="translate(52,93)"/>
<path d="M0 0 C0.66 0.33 1.32 0.66 2 1 C1 2 0 3 -1 4 C-1.66 4.722 -2.32 5.444 -3 6.188 C-5 8 -5 8 -8 8 C-8 8.66 -8 9.32 -8 10 C-9.65 10 -11.3 10 -13 10 C-9.232 5.878 -5.111 2.369 0 0 Z " fill="#C9E861" transform="translate(79,64)"/>
<path d="M0 0 C0.33 0.66 0.66 1.32 1 2 C-4.252 8.721 -7.962 11.764 -16.312 13.812 C-17.199 13.874 -18.086 13.936 -19 14 C-19.66 13.34 -20.32 12.68 -21 12 C-19.762 11.67 -18.525 11.34 -17.25 11 C-16.902 10.907 -16.902 10.907 -15.141 10.438 C-13 10 -13 10 -9 10 C-9 9.34 -9 8.68 -9 8 C-7 6.667 -5 5.333 -3 4 C-1.125 1.75 -1.125 1.75 0 0 Z " fill="#669401" transform="translate(164,99)"/>
<path d="M0 0 C4.385 1.34 6.616 3.058 9 7 C8.75 9.812 8.75 9.812 8 12 C6.02 12 4.04 12 2 12 C2 11.34 2 10.68 2 10 C2.99 10 3.98 10 5 10 C5.312 7.812 5.312 7.812 5 5 C2.5 2.188 2.5 2.188 0 0 Z " fill="#9FCB27" transform="translate(156,161)"/>
<path d="M0 0 C0.33 0 0.66 0 1 0 C1 5.94 1 11.88 1 18 C0.34 18.33 -0.32 18.66 -1 19 C-2.001 14.396 -1.866 10.755 -1.062 6.125 C-0.868 4.973 -0.673 3.82 -0.473 2.633 C-0.317 1.764 -0.161 0.895 0 0 Z " fill="#DED6A6" transform="translate(93,140)"/>
<path d="M0 0 C0.33 0.66 0.66 1.32 1 2 C1.66 2.33 2.32 2.66 3 3 C2.34 4.32 1.68 5.64 1 7 C2.32 7 3.64 7 5 7 C5 7.66 5 8.32 5 9 C5.66 9.33 6.32 9.66 7 10 C4.36 9.67 1.72 9.34 -1 9 C-1.33 7.68 -1.66 6.36 -2 5 C-2.99 5 -3.98 5 -5 5 C-4.67 4.34 -4.34 3.68 -4 3 C-2.68 3 -1.36 3 0 3 C0 2.01 0 1.02 0 0 Z " fill="#94C212" transform="translate(139,98)"/>
<path d="M0 0 C0.89 2.446 1.187 3.564 0.145 6 C-4.693 13.263 -4.693 13.263 -8 16 C-8.66 16 -9.32 16 -10 16 C-10 15.01 -10 14.02 -10 13 C-9.278 12.649 -8.556 12.299 -7.812 11.938 C-3.528 8.986 -2.059 4.669 0 0 Z " fill="#607419" transform="translate(169,191)"/>
<path d="M0 0 C0.66 0.33 1.32 0.66 2 1 C1.67 1.99 1.34 2.98 1 4 C0.34 4 -0.32 4 -1 4 C-1 4.66 -1 5.32 -1 6 C-5.73 9.958 -8.862 11.624 -15 12 C-13.006 10.006 -11.721 9.354 -9.188 8.25 C-4.931 6.203 -2.759 3.794 0 0 Z " fill="#75A20C" transform="translate(164,101)"/>
<path d="M0 0 C0.99 0.33 1.98 0.66 3 1 C2.875 2.812 2.875 2.812 2 5 C-1.062 6.75 -1.062 6.75 -4 8 C-4.33 6.68 -4.66 5.36 -5 4 C-2.688 1.938 -2.688 1.938 0 0 Z " fill="#5B8502" transform="translate(102,102)"/>
<path d="M0 0 C0.825 0.165 0.825 0.165 5 1 C5 1.66 5 2.32 5 3 C5.846 3.268 6.691 3.536 7.562 3.812 C11.139 5.048 14.539 6.477 18 8 C18 8.33 18 8.66 18 9 C10.805 8.84 5.684 5.193 0 1 C0 0.67 0 0.34 0 0 Z " fill="#6B920C" transform="translate(66,209)"/>
<path d="M0 0 C2.606 0.968 4.947 1.967 7.312 3.438 C10.756 5.44 14.248 6.664 18 8 C15.044 9.255 13.905 8.967 10.801 7.891 C9.65 7.349 8.499 6.808 7.312 6.25 C6.154 5.719 4.995 5.188 3.801 4.641 C1 3 1 3 0 0 Z " fill="#80AB16" transform="translate(70,209)"/>
<path d="M0 0 C0.33 0.99 0.66 1.98 1 3 C-2.75 6 -2.75 6 -5 6 C-5 6.66 -5 7.32 -5 8 C-7.64 8.66 -10.28 9.32 -13 10 C-13 9.01 -13 8.02 -13 7 C-12.264 7.072 -11.528 7.144 -10.77 7.219 C-7.281 6.943 -6.194 5.879 -3.688 3.5 C-2.99 2.85 -2.293 2.201 -1.574 1.531 C-1.055 1.026 -0.535 0.521 0 0 Z " fill="#8FC00B" transform="translate(160,98)"/>
<path d="M0 0 C4 4 8 8 12 12 C11.34 12.66 10.68 13.32 10 14 C8.512 12.425 7.035 10.84 5.562 9.25 C4.739 8.368 3.915 7.487 3.066 6.578 C1.169 4.211 0.379 2.949 0 0 Z " fill="#748925" transform="translate(51,194)"/>
<path d="M0 0 C0.66 0 1.32 0 2 0 C4.054 5.089 5.432 9.545 6 15 C5.34 15 4.68 15 4 15 C4 13.35 4 11.7 4 10 C3.01 9.67 2.02 9.34 1 9 C0 2.25 0 2.25 0 0 Z " fill="#EEE7BF" transform="translate(170,172)"/>
<path d="M0 0 C0.99 0.33 1.98 0.66 3 1 C3.33 5.29 3.66 9.58 4 14 C3.01 14.33 2.02 14.66 1 15 C0.67 10.05 0.34 5.1 0 0 Z " fill="#E7DCB4" transform="translate(173,93)"/>
<path d="M0 0 C9.595 1.743 9.595 1.743 13 5 C7.739 5.316 4.554 4.666 0 2 C0 1.34 0 0.68 0 0 Z " fill="#B9AE73" transform="translate(92,224)"/>
<path d="M0 0 C0.66 0.33 1.32 0.66 2 1 C0.523 4.452 -1.438 6.65 -4.125 9.25 C-4.849 9.956 -5.574 10.663 -6.32 11.391 C-6.875 11.922 -7.429 12.453 -8 13 C-8 9.007 -6.522 7.847 -4 4.812 C-3.257 3.911 -2.515 3.01 -1.75 2.082 C-1.173 1.395 -0.595 0.708 0 0 Z " fill="#E8DCB3" transform="translate(173,210)"/>
<path d="M0 0 C0.697 0.057 1.395 0.113 2.113 0.172 C3.826 0.313 5.538 0.467 7.25 0.625 C7.25 0.955 7.25 1.285 7.25 1.625 C4.61 1.625 1.97 1.625 -0.75 1.625 C-0.75 2.285 -0.75 2.945 -0.75 3.625 C-1.74 3.625 -2.73 3.625 -3.75 3.625 C-3.75 2.965 -3.75 2.305 -3.75 1.625 C-6.39 1.625 -9.03 1.625 -11.75 1.625 C-7.963 -0.932 -4.338 -0.41 0 0 Z " fill="#618F01" transform="translate(118.75,99.375)"/>
<path d="M0 0 C0.66 0 1.32 0 2 0 C2 1.32 2 2.64 2 4 C2.66 4.33 3.32 4.66 4 5 C-1.28 4.67 -6.56 4.34 -12 4 C-7.821 1.91 -7.196 1.834 -3 3 C-2.67 2.34 -2.34 1.68 -2 1 C-1.34 1.33 -0.68 1.66 0 2 C0 1.34 0 0.68 0 0 Z " fill="#8FBE0A" transform="translate(122,94)"/>
<path d="M0 0 C6 9 6 9 6 13 C5.34 13 4.68 13 4 13 C3.131 11.592 2.28 10.174 1.438 8.75 C1.2 8.356 1.2 8.356 -0.004 6.359 C-1.13 3.692 -1.017 2.655 0 0 Z " fill="#EEE8C3" transform="translate(43,182)"/>
<path d="M0 0 C3.375 -0.125 3.375 -0.125 7 0 C7.66 0.66 8.32 1.32 9 2 C8.67 2.66 8.34 3.32 8 4 C7.237 3.979 6.474 3.959 5.688 3.938 C3 4 3 4 0 5 C0 3.35 0 1.7 0 0 Z " fill="#B4DA3D" transform="translate(131,57)"/>
<path d="M0 0 C5.745 5.303 5.745 5.303 6 9 C5.67 9.66 5.34 10.32 5 11 C4.34 11 3.68 11 3 11 C2.512 9.014 2.023 7.029 1.535 5.043 C1.09 3.343 0.556 1.667 0 0 Z M1 11 C3 12 3 12 3 12 Z " fill="#8AB61D" transform="translate(164,168)"/>
<path d="M0 0 C0.66 0.66 1.32 1.32 2 2 C1.312 3.938 1.312 3.938 0 6 C-2.625 6.75 -2.625 6.75 -5 7 C-5.33 6.34 -5.66 5.68 -6 5 C-5.67 4.34 -5.34 3.68 -5 3 C-4.34 3 -3.68 3 -3 3 C-3 2.34 -3 1.68 -3 1 C-2.01 0.67 -1.02 0.34 0 0 Z " fill="#BDE04C" transform="translate(74,71)"/>
<path d="M0 0 C0 0.99 0 1.98 0 3 C-1.898 4.824 -1.898 4.824 -4.375 6.688 C-5.187 7.31 -5.999 7.933 -6.836 8.574 C-9 10 -9 10 -11 10 C-9.541 6.314 -7.698 4.839 -4.375 2.75 C-3.558 2.229 -2.74 1.708 -1.898 1.172 C-1.272 0.785 -0.645 0.398 0 0 Z " fill="#C3B77E" transform="translate(158,216)"/>
<path d="M0 0 C2.468 1.152 4.048 2.048 6 4 C6.423 4.165 6.423 4.165 8.562 5 C11 6 11 6 12 8 C9.938 8.438 9.938 8.438 7 8 C4.4 5.905 2.135 3.565 0 1 C0 0.67 0 0.34 0 0 Z " fill="#7FA61C" transform="translate(58,201)"/>
<path d="M0 0 C-3.252 2.217 -6.421 4.348 -10 6 C-10 4.35 -10 2.7 -10 1 C-8.711 0.637 -7.418 0.285 -6.125 -0.062 C-5.406 -0.26 -4.686 -0.457 -3.945 -0.66 C-2 -1 -2 -1 0 0 Z " fill="#B2D837" transform="translate(128,174)"/>
<path d="M0 0 C2.511 1.255 2.871 2.501 4 5 C1.36 5.66 -1.28 6.32 -4 7 C-2.68 4.69 -1.36 2.38 0 0 Z " fill="#90C00A" transform="translate(149,198)"/>
<path d="M0 0 C0.33 0 0.66 0 1 0 C2.333 10.558 2.333 10.558 1 15 C0.34 14.34 -0.32 13.68 -1 13 C-0.977 9.961 -0.977 9.961 -0.625 6.375 C-0.514 5.186 -0.403 3.998 -0.289 2.773 C-0.194 1.858 -0.098 0.943 0 0 Z " fill="#76A904" transform="translate(85,125)"/>
<path d="M0 0 C3.912 1.156 6.875 2.355 10 5 C8.375 5.75 8.375 5.75 6 6 C2.75 4.188 2.75 4.188 0 2 C0 1.34 0 0.68 0 0 Z " fill="#BDB477" transform="translate(134,115)"/>
<path d="M0 0 C-0.33 0.66 -0.66 1.32 -1 2 C-3.322 2.407 -5.657 2.744 -8 3 C-8 2.67 -8 2.34 -8 2 C-9.65 1.67 -11.3 1.34 -13 1 C-13 0.67 -13 0.34 -13 0 C-11.585 -0.197 -10.168 -0.382 -8.75 -0.562 C-7.961 -0.667 -7.172 -0.771 -6.359 -0.879 C-3.995 -1 -2.249 -0.696 0 0 Z " fill="#958F4F" transform="translate(155,118)"/>
<path d="M0 0 C0.66 0.33 1.32 0.66 2 1 C-1.3 3.64 -4.6 6.28 -8 9 C-8.66 8.67 -9.32 8.34 -10 8 C-6.7 5.36 -3.4 2.72 0 0 Z " fill="#CAE762" transform="translate(141,161)"/>
<path d="M0 0 C0 0.66 0 1.32 0 2 C-0.804 1.691 -1.609 1.381 -2.438 1.062 C-6.622 -0.186 -10.663 -0.634 -15 -1 C-15 -1.33 -15 -1.66 -15 -2 C-9.055 -3.096 -5.32 -3.41 0 0 Z " fill="#E7F1B9" transform="translate(158,159)"/>
<path d="M0 0 C2 2 2 2 2.195 3.945 C2.13 5.964 2.065 7.982 2 10 C1.01 10 0.02 10 -1 10 C-1.125 3.375 -1.125 3.375 0 0 Z " fill="#C1B67E" transform="translate(169,98)"/>
<path d="M0 0 C1.065 2.73 1.08 3.793 0.004 6.578 C-0.472 7.46 -0.947 8.342 -1.438 9.25 C-1.911 10.142 -2.384 11.034 -2.871 11.953 C-3.244 12.629 -3.616 13.304 -4 14 C-4.66 13.67 -5.32 13.34 -6 13 C-6 12.34 -6 11.68 -6 11 C-5.34 10.67 -4.68 10.34 -4 10 C-2.93 7.715 -2.93 7.715 -1.875 4.938 C-1.522 4.018 -1.169 3.099 -0.805 2.152 C-0.672 1.797 -0.672 1.797 0 0 Z " fill="#60731E" transform="translate(169,94)"/>
<path d="M0 0 C2.31 0.33 4.62 0.66 7 1 C7 1.99 7 2.98 7 4 C4.36 4 1.72 4 -1 4 C-0.67 2.68 -0.34 1.36 0 0 Z " fill="#BFDF4D" transform="translate(140,158)"/>
<path d="M0 0 C4.875 1.75 4.875 1.75 6 4 C5.34 4.66 4.68 5.32 4 6 C2.68 5.34 1.36 4.68 0 4 C0 2.68 0 1.36 0 0 Z " fill="#608B02" transform="translate(126,101)"/>
<path d="M0 0 C-0.33 0.99 -0.66 1.98 -1 3 C-3.066 3.73 -3.066 3.73 -5.562 4.188 C-6.389 4.346 -7.215 4.505 -8.066 4.668 C-8.385 4.723 -8.385 4.723 -10 5 C-10 4.34 -10 3.68 -10 3 C-8.71 2.496 -7.418 1.997 -6.125 1.5 C-5.765 1.361 -5.765 1.361 -3.945 0.656 C-2 0 -2 0 0 0 Z " fill="#C9E55B" transform="translate(95,59)"/>
<path d="M0 0 C1.668 0.324 3.335 0.659 5 1 C5.371 1.062 5.371 1.062 7.25 1.375 C7.539 1.478 7.539 1.478 9 2 C9.33 2.99 9.66 3.98 10 5 C7.333 4.333 4.667 3.667 2 3 C2 2.34 2 1.68 2 1 C1.34 0.67 0.68 0.34 0 0 Z " fill="#DCD1A3" transform="translate(71,220)"/>
<path d="M0 0 C0.33 0.66 0.66 1.32 1 2 C2.32 2 3.64 2 5 2 C5 1.34 5 0.68 5 0 C5.99 0.33 6.98 0.66 8 1 C3.25 5 3.25 5 1 5 C0.34 3.68 -0.32 2.36 -1 1 C-0.67 0.67 -0.34 0.34 0 0 Z " fill="#A2CE21" transform="translate(96,198)"/>
<path d="M0 0 C0.763 0.083 1.526 0.165 2.312 0.25 C1.983 1.57 1.653 2.89 1.312 4.25 C0.322 3.92 -0.668 3.59 -1.688 3.25 C-3.875 3.688 -3.875 3.688 -5.688 4.25 C-3.349 0.312 -3.349 0.312 0 0 Z " fill="#A3CC21" transform="translate(56.6875,139.75)"/>
<path d="M0 0 C3.438 0.812 3.438 0.812 7 2 C7.33 2.99 7.66 3.98 8 5 C5.36 4.34 2.72 3.68 0 3 C0 2.01 0 1.02 0 0 Z " fill="#C2B77B" transform="translate(85,222)"/>
<path d="M0 0 C1.062 1.812 1.062 1.812 2 4 C1.67 4.99 1.34 5.98 1 7 C0.01 7.33 -0.98 7.66 -2 8 C-2 4.233 -1.765 3.088 0 0 Z " fill="#BEB377" transform="translate(168,197)"/>
<path d="M0 0 C0.33 0 0.66 0 1 0 C1.33 4.29 1.66 8.58 2 13 C0.68 12.34 -0.64 11.68 -2 11 C-1.34 11 -0.68 11 0 11 C-0.084 10.374 -0.168 9.747 -0.254 9.102 C-0.356 8.284 -0.458 7.467 -0.562 6.625 C-0.667 5.813 -0.771 5.001 -0.879 4.164 C-1 2 -1 2 0 0 Z " fill="#95C511" transform="translate(83,137)"/>
<path d="M0 0 C2.188 0.312 2.188 0.312 4 1 C4 1.66 4 2.32 4 3 C1 5 1 5 -3 5 C-3 3 -3 3 -1.75 1.312 C-1.172 0.879 -0.595 0.446 0 0 Z " fill="#A9D52A" transform="translate(69,141)"/>
<path d="M0 0 C0 0.66 0 1.32 0 2 C-3.29 3.097 -4.713 2.8 -8 2 C-8 1.34 -8 0.68 -8 0 C-4.71 -1.097 -3.287 -0.8 0 0 Z " fill="#82B105" transform="translate(110,215)"/>
<path d="M0 0 C0.66 0.99 1.32 1.98 2 3 C1.67 3.66 1.34 4.32 1 5 C-0.65 4.67 -2.3 4.34 -4 4 C-3.67 3.01 -3.34 2.02 -3 1 C-2.01 0.67 -1.02 0.34 0 0 Z " fill="#8EBE09" transform="translate(156,196)"/>
<path d="M0 0 C0.629 0.021 0.629 0.021 3.812 0.125 C3.812 0.455 3.812 0.785 3.812 1.125 C2.162 1.62 2.162 1.62 -6.188 4.125 C-6.517 3.465 -6.847 2.805 -7.188 2.125 C-4.099 0.066 -3.478 -0.114 0 0 Z " fill="#EAE1B6" transform="translate(123.1875,120.875)"/>
<path d="M0 0 C0.33 0.99 0.66 1.98 1 3 C-0.404 5.264 -2.197 7.021 -4 9 C-4 5.001 -2.274 3.198 0 0 Z " fill="#E1D5A8" transform="translate(173,207)"/>
<path d="M0 0 C-0.66 0 -1.32 0 -2 0 C-2 0.66 -2 1.32 -2 2 C-3.98 2.66 -5.96 3.32 -8 4 C-7 1 -7 1 -5.125 -0.25 C-3 -1 -3 -1 0 0 Z " fill="#73A302" transform="translate(155,205)"/>
<path d="M0 0 C0.66 0.33 1.32 0.66 2 1 C1.67 2.32 1.34 3.64 1 5 C-0.32 4.67 -1.64 4.34 -3 4 C-2.67 3.01 -2.34 2.02 -2 1 C-1.34 0.67 -0.68 0.34 0 0 Z " fill="#B2DB34" transform="translate(98,167)"/>
<path d="M0 0 C3 1 3 1 6 3 C3.69 3.33 1.38 3.66 -1 4 C-1 1 -1 1 0 0 Z " fill="#517A02" transform="translate(105,102)"/>
<path d="M0 0 C0 0.66 0 1.32 0 2 C-2.31 2.66 -4.62 3.32 -7 4 C-7 3.01 -7 2.02 -7 1 C-4 0 -4 0 0 0 Z " fill="#BFE043" transform="translate(90,59)"/>
</svg>
