<?xml version="1.0" encoding="UTF-8"?>
<!-- Generator: visioncortex VTracer 0.6.12 -->
<svg version="1.1" xmlns="http://www.w3.org/2000/svg" width="207" height="250">
<path d="M0 0 C68.31 0 136.62 0 207 0 C207 82.5 207 165 207 250 C138.69 250 70.38 250 0 250 C0 167.5 0 85 0 0 Z " fill="#FCF4DF" transform="translate(0,0)"/>
<path d="M0 0 C0.673 -0.008 1.346 -0.015 2.039 -0.023 C8.653 0.002 14.614 1.32 20 5.25 C27.025 12.475 26.297 21.113 26.291 30.586 C26.297 31.933 26.303 33.281 26.311 34.629 C26.328 38.273 26.333 41.918 26.335 45.563 C26.336 47.843 26.34 50.123 26.346 52.404 C26.364 60.369 26.372 68.334 26.371 76.299 C26.369 83.709 26.391 91.119 26.422 98.529 C26.448 104.904 26.459 111.28 26.458 117.655 C26.457 121.457 26.463 125.259 26.484 129.061 C26.503 132.637 26.504 136.213 26.489 139.79 C26.486 141.718 26.503 143.646 26.52 145.575 C26.469 152.613 25.829 157.283 22 163.25 C15.415 169.666 8.782 169.589 0.062 169.562 C-1.009 169.579 -2.081 169.595 -3.186 169.611 C-9.68 169.615 -14.59 169.353 -19.609 164.785 C-22.836 160.619 -25.261 157.484 -25.227 152.124 C-25.227 151.323 -25.227 150.523 -25.227 149.698 C-25.216 148.844 -25.206 147.99 -25.195 147.109 C-25.192 146.227 -25.19 145.345 -25.187 144.436 C-25.176 141.624 -25.15 138.812 -25.125 136 C-25.115 134.091 -25.106 132.182 -25.098 130.273 C-25.076 125.599 -25.041 120.924 -25 116.25 C-28.376 116.302 -31.75 116.397 -35.125 116.5 C-36.076 116.514 -37.028 116.528 -38.008 116.543 C-43.702 116.741 -47.789 117.026 -52 121.25 C-55.869 128.147 -55.474 136.132 -55.562 143.812 C-55.783 158.74 -55.783 158.74 -58 165.25 C-58.66 165.58 -59.32 165.91 -60 166.25 C-60.268 166.91 -60.536 167.57 -60.812 168.25 C-62 170.25 -62 170.25 -64.625 171 C-65.409 171.083 -66.192 171.165 -67 171.25 C-67 171.91 -67 172.57 -67 173.25 C-74.528 174.923 -82.905 175.544 -90 172.25 C-90 171.59 -90 170.93 -90 170.25 C-90.598 170.198 -90.598 170.198 -93.625 169.938 C-99.245 169.204 -102.783 167.522 -106.75 163.375 C-110.15 158.652 -111.249 155.107 -111.267 149.305 C-111.276 148.113 -111.284 146.922 -111.293 145.694 C-111.292 144.395 -111.291 143.096 -111.291 141.758 C-111.297 140.37 -111.303 138.982 -111.311 137.593 C-111.329 133.829 -111.333 130.064 -111.335 126.3 C-111.336 123.946 -111.34 121.592 -111.346 119.238 C-111.364 111.022 -111.372 102.805 -111.371 94.588 C-111.369 86.937 -111.391 79.287 -111.422 71.636 C-111.448 65.06 -111.459 58.484 -111.458 51.908 C-111.457 47.984 -111.463 44.059 -111.484 40.135 C-111.503 36.443 -111.504 32.751 -111.489 29.059 C-111.486 27.065 -111.503 25.071 -111.52 23.077 C-111.465 15.266 -110.905 10.243 -105.279 4.49 C-99.342 0.673 -93.991 0.561 -87.062 0.75 C-86.546 0.749 -86.546 0.749 -83.932 0.742 C-76.201 0.84 -69.115 1.542 -63.125 6.75 C-60.028 10.972 -59.101 16.22 -58 21.25 C-57.34 20.59 -56.68 19.93 -56 19.25 C-55.939 20.021 -55.879 20.792 -55.816 21.586 C-55.733 22.589 -55.649 23.592 -55.562 24.625 C-55.481 25.623 -55.4 26.62 -55.316 27.648 C-55 30.25 -55 30.25 -54 32.25 C-53.915 34.355 -53.893 36.463 -53.902 38.57 C-53.906 39.827 -53.909 41.084 -53.912 42.379 C-53.916 43.038 -53.916 43.038 -53.938 46.375 C-53.943 47.715 -53.947 49.055 -53.951 50.395 C-53.963 53.68 -53.979 56.965 -54 60.25 C-49.708 60.141 -45.416 60.01 -41.125 59.875 C-39.902 59.844 -38.678 59.813 -37.418 59.781 C-36.251 59.743 -35.085 59.704 -33.883 59.664 C-33.343 59.648 -33.343 59.648 -30.614 59.569 C-28 59.25 -28 59.25 -26 57.25 C-25.79 54.177 -25.699 51.188 -25.691 48.113 C-25.666 46.238 -25.641 44.362 -25.615 42.486 C-25.587 39.528 -25.563 36.571 -25.544 33.613 C-25.522 30.758 -25.482 27.905 -25.441 25.051 C-25.441 24.174 -25.441 23.298 -25.441 22.395 C-25.342 16.206 -24.466 11.26 -20.422 6.324 C-19.87 5.867 -19.318 5.409 -18.75 4.938 C-18.209 4.467 -17.667 3.996 -17.109 3.512 C-11.774 0.32 -6.077 -0.07 0 0 Z " fill="#FC7BA4" transform="translate(148,44.75)"/>
<path d="M0 0 C2.296 2.387 2.961 3.61 3.293 6.945 C3.258 7.995 3.223 9.044 3.188 10.125 C3.174 10.652 3.174 10.652 3.105 13.32 C3.071 14.205 3.036 15.089 3 16 C3 18 3 18 3.562 19.875 C4.058 22.281 3.624 23.661 3 26 C3.165 26.33 3.165 26.33 4 28 C4.095 29.331 4.131 30.666 4.133 32 C4.135 32.801 4.137 33.601 4.138 34.426 C4.134 35.275 4.13 36.125 4.125 37 C4.124 37.43 4.124 37.43 4.121 39.603 C4.094 44.123 3.947 48.566 3.438 53.062 C3 57 3 57 4 59 C4.097 60.842 4.131 62.687 4.133 64.531 C4.134 65.653 4.135 66.774 4.137 67.93 C4.133 69.108 4.129 70.286 4.125 71.5 C4.129 72.647 4.133 73.795 4.137 74.977 C4.131 80.13 4.046 85.194 3.461 90.316 C2.953 94.778 3.109 98.975 3.5 103.438 C3.995 110.071 3.928 116.391 3 123 C2.34 123 1.68 123 1 123 C1 123.66 1 124.32 1 125 C1.66 125.33 2.32 125.66 3 126 C2.814 126.577 2.629 127.155 2.438 127.75 C2 130 2 130 2.453 131.773 C3.693 136.823 4.14 143.168 2.176 148.047 C-0.356 151.849 -2.619 154.165 -7.062 155.125 C-14.626 156.551 -22.339 156.16 -30 156 C-30 155.34 -30 154.68 -30 154 C-33.623 152.508 -37.28 151.226 -41 150 C-41.025 142.686 -41.043 135.372 -41.055 128.058 C-41.06 125.57 -41.067 123.082 -41.075 120.594 C-41.088 117.017 -41.093 113.44 -41.098 109.863 C-41.103 108.752 -41.108 107.64 -41.113 106.495 C-41.113 105.454 -41.113 104.413 -41.114 103.341 C-41.116 102.428 -41.118 101.516 -41.12 100.575 C-40.998 97.957 -40.55 95.558 -40 93 C-40 92.34 -40 91.68 -40 91 C-40.804 91.186 -41.609 91.371 -42.438 91.562 C-42.86 91.635 -42.86 91.635 -45 92 C-45.165 91.835 -45.165 91.835 -46 91 C-46.825 91.33 -46.825 91.33 -51 93 C-50.01 91.68 -49.02 90.36 -48 89 C-49.32 88.34 -50.64 87.68 -52 87 C-51.67 85.35 -51.34 83.7 -51 82 C-50.505 81.835 -50.505 81.835 -48 81 C-47.34 80.319 -46.68 79.639 -46 78.938 C-44 77 -44 77 -41 77 C-40.34 76.34 -39.68 75.68 -39 75 C-38.34 75 -37.68 75 -37 75 C-37.33 74.67 -37.33 74.67 -39 73 C-43 73 -43 73 -46 74 C-46 73.34 -46 72.68 -46 72 C-46.99 72 -47.98 72 -49 72 C-49.268 71.361 -49.536 70.721 -49.812 70.062 C-51 68 -51 68 -54 67 C-53.34 66.67 -53.34 66.67 -50 65 C-50.66 64.34 -51.32 63.68 -52 63 C-52.495 63.33 -52.495 63.33 -55 65 C-56.505 65.585 -58.028 66.124 -59.562 66.625 C-59.955 66.755 -59.955 66.755 -61.941 67.414 C-64 68 -64 68 -66 68 C-66 67.01 -66 66.02 -66 65 C-65.67 64.835 -65.67 64.835 -64 64 C-64 63.34 -64 62.68 -64 62 C-64.355 61.939 -64.355 61.939 -66.152 61.633 C-67.071 61.465 -67.991 61.298 -68.938 61.125 C-69.854 60.963 -70.771 60.8 -71.715 60.633 C-72.469 60.424 -73.223 60.215 -74 60 C-74.33 59.34 -74.66 58.68 -75 58 C-74.173 57.98 -73.345 57.96 -72.493 57.94 C-68.745 57.845 -64.998 57.735 -61.25 57.625 C-59.948 57.594 -58.646 57.563 -57.305 57.531 C-56.679 57.512 -56.679 57.512 -53.516 57.414 C-52.364 57.383 -51.211 57.351 -50.024 57.319 C-47.114 57.012 -45.382 56.672 -43 55 C-42.05 52.15 -41.908 50.59 -41.998 47.656 C-42.02 46.781 -42.043 45.906 -42.066 45.004 C-42.08 44.532 -42.08 44.532 -42.148 42.145 C-42.185 40.14 -42.221 38.135 -42.254 36.131 C-42.309 32.975 -42.375 29.82 -42.473 26.665 C-42.565 23.616 -42.61 20.569 -42.648 17.52 C-42.688 16.586 -42.727 15.652 -42.767 14.69 C-42.794 8.344 -41.28 5.154 -36.893 0.575 C-27.91 -6.901 -9.346 -6.231 0 0 Z M-43 78 C-42 80 -42 80 -42 80 Z " fill="#FC7CA4" transform="translate(166,49)"/>
<path d="M0 0 C68.31 0 136.62 0 207 0 C207 82.5 207 165 207 250 C138.69 250 70.38 250 0 250 C0 167.5 0 85 0 0 Z M6 9 C5.977 38.538 5.96 68.077 5.949 97.615 C5.948 101.099 5.946 104.583 5.945 108.066 C5.945 108.76 5.945 109.453 5.944 110.168 C5.94 121.412 5.932 132.657 5.923 143.902 C5.914 155.431 5.908 166.961 5.906 178.49 C5.905 184.97 5.902 191.449 5.894 197.929 C5.888 204.02 5.885 210.111 5.887 216.202 C5.887 218.444 5.885 220.687 5.881 222.93 C5.876 225.977 5.877 229.025 5.88 232.072 C5.877 232.972 5.874 233.872 5.871 234.799 C5.886 240.886 5.886 240.886 7 242 C9.514 242.1 12.001 242.134 14.516 242.127 C14.915 242.128 14.915 242.128 16.93 242.132 C19.619 242.136 22.309 242.133 24.998 242.129 C26.918 242.131 28.837 242.133 30.757 242.135 C35.986 242.139 41.215 242.137 46.445 242.134 C51.904 242.132 57.364 242.134 62.823 242.136 C71.993 242.138 81.163 242.135 90.333 242.13 C100.952 242.125 111.57 242.127 122.188 242.132 C131.287 242.137 140.386 242.137 149.485 242.135 C154.927 242.133 160.369 242.133 165.812 242.136 C170.927 242.139 176.042 242.137 181.157 242.131 C183.04 242.13 184.923 242.13 186.806 242.133 C189.365 242.135 191.924 242.132 194.484 242.127 C194.861 242.128 194.861 242.128 196.772 242.134 C201.886 242.114 201.886 242.114 203 241 C203.102 238.034 203.139 235.09 203.134 232.124 C203.135 231.652 203.135 231.652 203.141 229.267 C203.147 226.082 203.146 222.898 203.145 219.713 C203.148 217.44 203.152 215.168 203.155 212.895 C203.164 206.703 203.167 200.511 203.167 194.319 C203.168 189.159 203.172 184 203.175 178.841 C203.183 167.37 203.186 155.899 203.185 144.428 C203.185 143.739 203.185 143.05 203.185 142.341 C203.185 141.996 203.185 141.996 203.185 140.25 C203.185 129.068 203.194 117.886 203.208 106.703 C203.223 95.233 203.23 83.764 203.229 72.294 C203.229 65.85 203.231 59.405 203.242 52.961 C203.252 46.903 203.252 40.845 203.245 34.787 C203.243 32.557 203.246 30.328 203.252 28.099 C203.26 25.067 203.255 22.035 203.247 19.003 C203.25 18.557 203.25 18.557 203.263 16.299 C203.228 10.228 203.228 10.228 201 8 C198.446 7.805 196.001 7.735 193.446 7.753 C192.657 7.75 191.869 7.748 191.057 7.745 C188.4 7.74 185.744 7.748 183.088 7.757 C181.189 7.756 179.291 7.754 177.392 7.751 C172.225 7.746 167.058 7.754 161.891 7.764 C156.493 7.773 151.096 7.771 145.698 7.771 C136.632 7.772 127.566 7.781 118.5 7.794 C108.007 7.81 97.513 7.815 87.019 7.814 C76.94 7.814 66.862 7.819 56.783 7.827 C52.486 7.831 48.19 7.833 43.893 7.833 C38.837 7.834 33.781 7.84 28.725 7.85 C26.865 7.853 25.005 7.854 23.145 7.854 C20.615 7.853 18.084 7.859 15.554 7.866 C15.182 7.866 15.182 7.866 13.3 7.862 C8.228 7.886 8.228 7.886 6 9 Z " fill="#FDFBF6" transform="translate(0,0)"/>
<path d="M0 0 C4.227 1.51 5.831 4.185 8 8 C8.938 11.631 9.131 15.046 9.147 18.786 C9.151 19.365 9.151 19.365 9.169 22.291 C9.172 23.551 9.174 24.811 9.177 26.109 C9.183 27.456 9.19 28.803 9.197 30.151 C9.218 34.565 9.228 38.98 9.238 43.395 C9.242 44.918 9.246 46.441 9.251 47.964 C9.27 55.12 9.284 62.276 9.292 69.431 C9.302 77.678 9.328 85.925 9.369 94.172 C9.399 100.556 9.414 106.94 9.417 113.324 C9.419 117.133 9.428 120.941 9.453 124.75 C9.477 128.335 9.481 131.919 9.471 135.503 C9.47 137.436 9.489 139.369 9.509 141.303 C9.467 148.352 8.838 153.025 5 159 C-1.585 165.416 -8.218 165.339 -16.938 165.312 C-18.009 165.329 -19.081 165.345 -20.186 165.361 C-26.68 165.365 -31.59 165.103 -36.609 160.535 C-39.836 156.369 -42.261 153.234 -42.227 147.874 C-42.227 147.073 -42.227 146.273 -42.227 145.448 C-42.216 144.594 -42.206 143.74 -42.195 142.859 C-42.192 141.977 -42.19 141.095 -42.187 140.186 C-42.176 137.374 -42.15 134.562 -42.125 131.75 C-42.115 129.841 -42.106 127.932 -42.098 126.023 C-42.076 121.349 -42.041 116.674 -42 112 C-45.376 112.052 -48.75 112.147 -52.125 112.25 C-53.076 112.264 -54.028 112.278 -55.008 112.293 C-60.702 112.491 -64.789 112.776 -69 117 C-72.869 123.897 -72.474 131.882 -72.562 139.562 C-72.783 154.49 -72.783 154.49 -75 161 C-75.66 161.33 -76.32 161.66 -77 162 C-77.268 162.66 -77.536 163.32 -77.812 164 C-79 166 -79 166 -81.625 166.75 C-82.409 166.833 -83.192 166.915 -84 167 C-84 167.66 -84 168.32 -84 169 C-91.528 170.673 -99.905 171.294 -107 168 C-107 167.34 -107 166.68 -107 166 C-107.598 165.948 -107.598 165.948 -110.625 165.688 C-116.245 164.954 -119.783 163.272 -123.75 159.125 C-127.126 154.436 -128.251 150.922 -128.241 145.16 C-128.243 143.992 -128.246 142.824 -128.249 141.62 C-128.242 140.348 -128.234 139.075 -128.227 137.764 C-128.226 136.404 -128.227 135.044 -128.228 133.683 C-128.229 129.998 -128.217 126.312 -128.203 122.627 C-128.19 118.772 -128.189 114.918 -128.187 111.064 C-128.181 103.768 -128.164 96.473 -128.144 89.177 C-128.122 80.87 -128.111 72.563 -128.101 64.256 C-128.08 47.171 -128.045 30.085 -128 13 C-127.67 13 -127.34 13 -127 13 C-126.67 57.55 -126.34 102.1 -126 148 C-125.34 148 -124.68 148 -124 148 C-123.01 149.98 -122.02 151.96 -121 154 C-120.01 154 -119.02 154 -118 154 C-118 154.66 -118 155.32 -118 156 C-94.364 156.232 -94.364 156.232 -86 154 C-85.879 153.359 -85.758 152.719 -85.633 152.059 C-84.846 147.999 -84.057 144.009 -82.812 140.062 C-82 137 -82 137 -83 134 C-82.402 131.648 -81.741 129.311 -81 127 C-81.33 126.835 -81.33 126.835 -83 126 C-82 118.571 -82 118.571 -81 115 C-81.33 114.835 -81.33 114.835 -83 114 C-83.077 111.319 -83.013 109.054 -82.375 106.438 C-82 104 -82 104 -83.125 102 C-83.414 101.34 -83.703 100.68 -84 100 C-82.625 97.25 -82.625 97.25 -81 95 C-81.99 94.67 -82.98 94.34 -84 94 C-80.99 93.066 -80.133 92.956 -77 94 C-76.01 94 -75.02 94 -74 94 C-74.33 93.01 -74.66 92.02 -75 91 C-73.378 90.611 -71.752 90.239 -70.125 89.875 C-69.673 89.771 -69.673 89.771 -67.383 89.242 C-66.99 89.202 -66.99 89.202 -65 89 C-64.34 89.66 -63.68 90.32 -63 91 C-63.99 91.165 -63.99 91.165 -69 92 C-66.69 92.66 -64.38 93.32 -62 94 C-62 93.34 -62 92.68 -62 92 C-61.34 92 -60.68 92 -60 92 C-60 92.66 -60 93.32 -60 94 C-59.34 94 -58.68 94 -58 94 C-57.897 93.464 -57.794 92.928 -57.688 92.375 C-56.819 89.375 -55.444 86.762 -54 84 C-55.32 84.33 -56.64 84.66 -58 85 C-59.431 82.138 -58.6 80.066 -58 77 C-58.722 77.351 -59.444 77.701 -60.188 78.062 C-63.312 79.104 -64.882 78.891 -68 78 C-67.34 77.67 -66.68 77.34 -66 77 C-66.33 76.67 -66.33 76.67 -68 75 C-68.99 75 -69.98 75 -71 75 C-71 74.34 -71 73.68 -71 73 C-66.615 70 -66.615 70 -64 70 C-63.835 69.505 -63.835 69.505 -63 67 C-61.074 66.121 -61.074 66.121 -58.688 65.438 C-55.601 64.535 -52.841 63.515 -50 62 C-50 62.66 -50 63.32 -50 64 C-49.34 64.33 -48.68 64.66 -48 65 C-48.66 65.66 -49.32 66.32 -50 67 C-49.34 67.66 -48.68 68.32 -48 69 C-48 69.99 -48 70.98 -48 72 C-44.99 72.934 -44.133 73.044 -41 72 C-41 72.66 -41 73.32 -41 74 C-39.68 73.34 -38.36 72.68 -37 72 C-36.67 72.495 -36.67 72.495 -35 75 C-37.602 76.71 -39.604 77.926 -42.688 78.5 C-45 79 -45 79 -47 82 C-47.99 82 -48.98 82 -50 82 C-50.33 83.65 -50.66 85.3 -51 87 C-49.02 87.33 -47.04 87.66 -45 88 C-45.99 89.32 -46.98 90.64 -48 92 C-46.35 90.68 -44.7 89.36 -43 88 C-42.67 88.99 -42.34 89.98 -42 91 C-40.68 90.67 -39.36 90.34 -38 90 C-38.165 90.495 -38.165 90.495 -39 93 C-38.34 93.33 -37.68 93.66 -37 94 C-37.33 94.165 -37.33 94.165 -39 95 C-39 95.99 -39 96.98 -39 98 C-39.028 99.705 -39.059 101.409 -39.092 103.114 C-39.102 103.634 -39.102 103.634 -39.152 106.268 C-39.174 107.39 -39.196 108.512 -39.219 109.668 C-39.241 110.818 -39.263 111.968 -39.286 113.153 C-39.357 116.831 -39.429 120.509 -39.5 124.188 C-39.548 126.679 -39.596 129.171 -39.645 131.662 C-39.763 137.775 -39.881 143.887 -40 150 C-39.237 149.959 -38.474 149.917 -37.688 149.875 C-33.977 150.048 -32.05 151.967 -29 154 C-29 154.66 -29 155.32 -29 156 C-26.02 155.912 -23.042 155.805 -20.062 155.688 C-19.232 155.665 -18.401 155.642 -17.545 155.619 C-10.605 155.322 -3.74 154.473 1.562 149.688 C4.377 142.468 3.551 134.478 2 127 C2 125.68 2 124.36 2 123 C2.66 123 3.32 123 4 123 C4.132 115.372 3.887 107.83 3.268 100.229 C3.014 96.674 3.011 93.355 3.465 89.816 C4.235 83.763 4.145 77.718 4.125 71.625 C4.129 70.451 4.133 69.276 4.137 68.066 C4.135 66.944 4.134 65.821 4.133 64.664 C4.132 64.156 4.132 64.156 4.129 61.584 C4 59 4 59 3 56 C3.09 53.339 3.237 50.715 3.438 48.062 C4.709 29.126 4.709 29.126 3 24 C3.276 21.991 3.602 19.988 4 18 C3.34 17.67 2.68 17.34 2 17 C2.33 16.67 2.66 16.34 3 16 C3.152 14.067 3.222 12.127 3.25 10.188 C3.276 9.129 3.302 8.071 3.328 6.98 C2.968 3.706 2.199 2.39 0 0 Z " fill="#FB79A2" transform="translate(165,49)"/>
<path d="M0 0 C0.517 -0.001 0.517 -0.001 3.131 -0.008 C9.919 0.078 17.59 0.243 22.799 5.129 C24.57 8.453 24.368 11.493 24.207 15.152 C24.185 15.889 24.164 16.627 24.141 17.386 C24.092 18.942 24.035 20.498 23.971 22.053 C23.875 24.425 23.806 26.797 23.74 29.17 C23.689 30.685 23.636 32.2 23.582 33.715 C23.572 34.068 23.572 34.068 23.519 35.852 C23.344 39.793 22.775 42.937 21.062 46.5 C21.392 46.665 21.392 46.665 23.062 47.5 C22.403 48.49 21.743 49.48 21.062 50.5 C21.104 51.304 21.145 52.109 21.188 52.938 C21.062 55.5 21.062 55.5 19.188 57.812 C17.062 59.5 17.062 59.5 15.062 59.5 C15.062 60.49 15.062 61.48 15.062 62.5 C13.743 62.17 12.422 61.84 11.062 61.5 C11.062 62.16 11.062 62.82 11.062 63.5 C11.392 63.665 11.392 63.665 13.062 64.5 C12.072 64.83 11.083 65.16 10.062 65.5 C10.145 65.912 10.145 65.912 10.562 68 C9.8 73.337 6.194 76.231 2.062 79.5 C1.403 79.5 0.742 79.5 0.062 79.5 C0.062 78.84 0.062 78.18 0.062 77.5 C-0.597 77.665 -0.597 77.665 -3.938 78.5 C-3.608 79.49 -3.278 80.48 -2.938 81.5 C-3.267 82.16 -3.597 82.82 -3.938 83.5 C-3.443 83.665 -3.443 83.665 -0.938 84.5 C-0.938 85.16 -0.938 85.82 -0.938 86.5 C-4.413 87.658 -6.074 87.273 -9.625 86.562 C-10.619 86.368 -11.613 86.173 -12.637 85.973 C-13.016 85.895 -13.016 85.895 -14.938 85.5 C-14.938 88.228 -14.404 90.817 -13.938 93.5 C-14.597 93.5 -15.258 93.5 -15.938 93.5 C-15.443 93.954 -14.947 94.407 -14.438 94.875 C-12.938 96.5 -12.938 96.5 -12.938 98.5 C-13.102 98.665 -13.102 98.665 -13.938 99.5 C-13.608 100.16 -13.278 100.82 -12.938 101.5 C-16.688 104.5 -16.688 104.5 -18.938 104.5 C-18.938 105.16 -18.938 105.82 -18.938 106.5 C-18.278 106.83 -17.617 107.16 -16.938 107.5 C-17.432 107.665 -17.432 107.665 -19.938 108.5 C-21 106.688 -21 106.688 -21.938 104.5 C-21.608 103.51 -21.278 102.52 -20.938 101.5 C-20.841 99.085 -20.808 96.667 -20.812 94.25 C-20.81 92.966 -20.807 91.682 -20.805 90.359 C-20.938 86.5 -20.938 86.5 -21.445 82.945 C-21.946 79.442 -22.003 76.159 -21.938 72.625 C-21.9 70.584 -21.89 68.541 -21.938 66.5 C-22.267 66.17 -22.597 65.84 -22.938 65.5 C-23.081 63.881 -23.157 62.257 -23.206 60.632 C-23.223 60.113 -23.223 60.113 -23.306 57.486 C-23.335 56.353 -23.364 55.221 -23.395 54.055 C-23.425 52.896 -23.455 51.738 -23.486 50.544 C-23.547 48.085 -23.605 45.625 -23.66 43.165 C-23.72 40.649 -23.789 38.133 -23.867 35.617 C-23.98 31.992 -24.065 28.368 -24.145 24.742 C-24.184 23.622 -24.223 22.502 -24.264 21.348 C-24.37 14.786 -23.939 10.791 -19.938 5.5 C-14.321 -0.243 -7.595 -0.208 0 0 Z M-2.938 74.5 C-2.278 75.16 -1.617 75.82 -0.938 76.5 C-0.938 75.84 -0.938 75.18 -0.938 74.5 C-1.597 74.5 -2.258 74.5 -2.938 74.5 Z " fill="#FC7FA8" transform="translate(60.9375,45.5)"/>
<path d="M0 0 C0.33 0 0.66 0 1 0 C1.33 44.55 1.66 89.1 2 135 C2.66 135 3.32 135 4 135 C4.99 136.98 5.98 138.96 7 141 C7.99 141 8.98 141 10 141 C10 141.66 10 142.32 10 143 C33.636 143.232 33.636 143.232 42 141 C42.121 140.359 42.242 139.719 42.367 139.059 C43.154 134.999 43.943 131.009 45.188 127.062 C46 124 46 124 45 121 C45.598 118.648 46.259 116.311 47 114 C46.67 113.835 46.67 113.835 45 113 C45.33 112.34 45.66 111.68 46 111 C46.66 111 47.32 111 48 111 C47.988 110.441 47.977 109.881 47.965 109.305 C47.881 101.834 48.399 94.444 49 87 C50.271 86.52 51.541 86.041 52.812 85.562 C53.52 85.296 54.228 85.029 54.957 84.754 C59.615 83.035 63.707 82.816 68.625 82.812 C69.395 82.8 70.164 82.788 70.957 82.775 C71.727 82.773 72.496 82.772 73.289 82.77 C73.977 82.765 74.665 82.761 75.374 82.757 C79.304 83.121 83.147 84.144 87 85 C87 100.51 87 116.02 87 132 C86.67 132 86.34 132 86 132 C86 121.11 86 110.22 86 99 C84.329 99.041 84.329 99.041 75.875 99.25 C75.354 99.258 75.354 99.258 72.718 99.298 C67.12 99.502 63.135 99.852 59 104 C55.131 110.897 55.526 118.882 55.438 126.562 C55.217 141.49 55.217 141.49 53 148 C52.34 148.33 51.68 148.66 51 149 C50.732 149.66 50.464 150.32 50.188 151 C49 153 49 153 46.375 153.75 C45.591 153.833 44.808 153.915 44 154 C44 154.66 44 155.32 44 156 C36.472 157.673 28.095 158.294 21 155 C21 154.34 21 153.68 21 153 C20.402 152.948 20.402 152.948 17.375 152.688 C11.755 151.954 8.217 150.272 4.25 146.125 C0.874 141.436 -0.251 137.922 -0.241 132.16 C-0.243 130.992 -0.246 129.824 -0.249 128.62 C-0.242 127.348 -0.234 126.075 -0.227 124.764 C-0.226 123.404 -0.227 122.044 -0.228 120.683 C-0.229 116.998 -0.217 113.312 -0.203 109.627 C-0.19 105.772 -0.189 101.918 -0.187 98.064 C-0.181 90.768 -0.164 83.473 -0.144 76.177 C-0.122 67.87 -0.111 59.563 -0.101 51.256 C-0.08 34.171 -0.045 17.085 0 0 Z " fill="#E96485" transform="translate(37,62)"/>
<path d="M0 0 C5.404 5.404 6.215 16.972 6.226 24.34 C6.187 26.451 6.135 28.561 6.078 30.672 C5.958 35.195 6.161 39.673 6.438 44.188 C6.457 44.535 6.457 44.535 6.557 46.293 C6.807 50.254 7.338 54.09 8 58 C8.292 63.154 7.848 67.913 7 73 C7.33 73.99 7.66 74.98 8 76 C8.404 82.951 8.443 89.434 6 96 C6.33 96.165 6.33 96.165 8 97 C7.707 98.953 7.414 100.906 7.121 102.859 C7 105 7 105 7.514 106.868 C8.045 109.196 7.952 110.895 7.66 113.258 C7.567 114.048 7.473 114.838 7.377 115.652 C7.273 116.468 7.169 117.284 7.062 118.125 C6.865 119.753 6.668 121.38 6.473 123.008 C6.383 123.726 6.292 124.444 6.199 125.184 C5.931 127.633 5.878 128.756 7 131 C6.879 133.059 6.879 133.059 6.562 135.438 C6.227 138.016 6 140.392 6 143 C5.67 143.33 5.34 143.66 5 144 C5.021 145.031 5.041 146.062 5.062 147.125 C4.979 152.274 4.879 156.155 1.039 159.926 C-4.343 164.244 -8.911 167.339 -16 167.062 C-18.825 166.991 -21.041 167.009 -23.812 167.625 C-26.707 168.121 -28.404 167.261 -31 166 C-30.835 165.34 -30.835 165.34 -30 162 C-31.031 162.062 -32.062 162.124 -33.125 162.188 C-38.044 161.949 -41.029 160.462 -44.938 157.562 C-46 156 -46 156 -45.688 153.812 C-45.461 153.214 -45.234 152.616 -45 152 C-44.402 152.474 -43.804 152.949 -43.188 153.438 C-38.13 157.05 -32.276 156.259 -26.312 156.312 C-25.248 156.342 -24.184 156.371 -23.088 156.4 C-16.595 156.453 -11.325 155.982 -6 152 C-2.105 147.107 -0.873 143.464 -0.886 137.3 C-0.887 136.112 -0.887 134.925 -0.887 133.701 C-0.892 132.396 -0.897 131.092 -0.902 129.748 C-0.904 128.361 -0.906 126.975 -0.907 125.589 C-0.91 122.603 -0.916 119.617 -0.925 116.631 C-0.938 111.913 -0.944 107.195 -0.949 102.477 C-0.96 92.464 -0.98 82.451 -1 72.438 C-1.022 61.625 -1.043 50.812 -1.053 40 C-1.058 35.306 -1.068 30.613 -1.082 25.919 C-1.089 23.004 -1.093 20.089 -1.095 17.174 C-1.098 15.17 -1.105 13.167 -1.113 11.164 C-1.113 9.979 -1.113 8.794 -1.114 7.573 C-1.116 6.539 -1.118 5.505 -1.12 4.44 C-1 2 -1 2 0 0 Z " fill="#DCC19D" transform="translate(174,57)"/>
<path d="M0 0 C0.517 -0.001 0.517 -0.001 3.131 -0.008 C10.221 0.082 17.627 0.427 23.137 5.355 C25.687 11.264 23.169 19.734 21.062 25.5 C19.822 27.909 18.479 30.186 17.062 32.5 C16.403 32.5 15.743 32.5 15.062 32.5 C13.062 30.5 13.062 30.5 12.938 27.375 C12.979 26.426 13.02 25.477 13.062 24.5 C12.072 24.17 11.083 23.84 10.062 23.5 C8.836 20.945 8.267 18.322 8.062 15.5 C9.438 13.5 9.438 13.5 11.062 12.5 C9.412 13.16 7.763 13.82 6.062 14.5 C5.733 12.85 5.403 11.2 5.062 9.5 C4.733 9.995 4.733 9.995 3.062 12.5 C2.073 12.17 1.082 11.84 0.062 11.5 C0.062 10.84 0.062 10.18 0.062 9.5 C-1.258 9.83 -2.578 10.16 -3.938 10.5 C-4.267 9.84 -4.597 9.18 -4.938 8.5 C-6.258 8.83 -7.578 9.16 -8.938 9.5 C-8.938 10.49 -8.938 11.48 -8.938 12.5 C-8.938 13.49 -8.938 14.48 -8.938 15.5 C-8.278 15.5 -7.617 15.5 -6.938 15.5 C-7 17.25 -7 17.25 -7.938 19.5 C-9.685 20.503 -11.435 21.504 -13.211 22.457 C-15.967 24.122 -16.878 25.454 -17.938 28.5 C-17.972 32.749 -17.78 36.846 -15.832 40.672 C-15.684 40.974 -15.684 40.974 -14.938 42.5 C-15.812 44.688 -15.812 44.688 -16.938 46.5 C-16.938 48.34 -15.765 49.896 -14.938 51.5 C-15.597 51.5 -16.258 51.5 -16.938 51.5 C-16.854 52.248 -16.77 52.995 -16.684 53.766 C-16.582 54.75 -16.48 55.735 -16.375 56.75 C-16.271 57.725 -16.166 58.699 -16.059 59.703 C-15.946 62.303 -16.188 64.042 -16.938 66.5 C-17.283 68.498 -17.619 70.498 -17.938 72.5 C-16.947 72.83 -15.957 73.16 -14.938 73.5 C-15.597 73.5 -16.258 73.5 -16.938 73.5 C-16.917 74.304 -16.896 75.109 -16.875 75.938 C-16.938 78.5 -16.938 78.5 -17.938 79.5 C-16.947 80.49 -15.957 81.48 -14.938 82.5 C-15.433 82.665 -15.433 82.665 -17.938 83.5 C-17.608 84.49 -17.278 85.48 -16.938 86.5 C-17.102 87.119 -17.267 87.738 -17.438 88.375 C-18.067 91.051 -17.488 92.807 -16.938 95.5 C-16.633 99.813 -16.45 102.769 -18.938 106.5 C-18.278 106.83 -17.617 107.16 -16.938 107.5 C-17.432 107.665 -17.432 107.665 -19.938 108.5 C-21 106.688 -21 106.688 -21.938 104.5 C-21.608 103.51 -21.278 102.52 -20.938 101.5 C-20.841 99.085 -20.808 96.667 -20.812 94.25 C-20.81 92.966 -20.807 91.682 -20.805 90.359 C-20.938 86.5 -20.938 86.5 -21.445 82.945 C-21.946 79.442 -22.003 76.159 -21.938 72.625 C-21.9 70.584 -21.89 68.541 -21.938 66.5 C-22.267 66.17 -22.597 65.84 -22.938 65.5 C-23.081 63.881 -23.157 62.257 -23.206 60.632 C-23.223 60.113 -23.223 60.113 -23.306 57.486 C-23.335 56.353 -23.364 55.221 -23.395 54.055 C-23.425 52.896 -23.455 51.738 -23.486 50.544 C-23.547 48.085 -23.605 45.625 -23.66 43.165 C-23.72 40.649 -23.789 38.133 -23.867 35.617 C-23.98 31.992 -24.065 28.368 -24.145 24.742 C-24.184 23.622 -24.223 22.502 -24.264 21.348 C-24.37 14.786 -23.939 10.791 -19.938 5.5 C-14.321 -0.243 -7.595 -0.208 0 0 Z " fill="#FC88AE" transform="translate(60.9375,45.5)"/>
<path d="M0 0 C1.577 2.365 2.097 3.415 1.625 6.25 C1.419 6.828 1.213 7.405 1 8 C-4.538 7.385 -4.538 7.385 -6.875 5.438 C-7.246 4.963 -7.618 4.489 -8 4 C-8.949 4.495 -9.897 4.99 -10.875 5.5 C-14 7 -14 7 -16 7 C-16.804 7.681 -17.609 8.361 -18.438 9.062 C-18.86 9.382 -18.86 9.382 -21 11 C-21.99 10.67 -22.98 10.34 -24 10 C-24.66 10.33 -25.32 10.66 -26 11 C-26.165 10.67 -26.165 10.67 -27 9 C-27.619 9.66 -28.238 10.32 -28.875 11 C-31 13 -31 13 -33 13 C-33 13.99 -33 14.98 -33 16 C-34.32 16 -35.64 16 -37 16 C-36.814 17.114 -36.629 18.227 -36.438 19.375 C-36 23 -36 23 -37 25 C-36.835 25.495 -36.835 25.495 -36 28 C-35.67 28.165 -35.67 28.165 -34 29 C-33.67 29.99 -33.34 30.98 -33 32 C-32.34 32.66 -31.68 33.32 -31 34 C-31 34.66 -31 35.32 -31 36 C-30.01 36.66 -29.02 37.32 -28 38 C-28 38.66 -28 39.32 -28 40 C-28.99 40.66 -29.98 41.32 -31 42 C-31 42.66 -31 43.32 -31 44 C-33.375 46.625 -33.375 46.625 -36 49 C-36.66 49 -37.32 49 -38 49 C-38 49.66 -38 50.32 -38 51 C-37.67 51.165 -37.67 51.165 -36 52 C-36.66 53.32 -37.32 54.64 -38 56 C-38.66 56 -39.32 56 -40 56 C-40.33 56.99 -40.66 57.98 -41 59 C-43.871 60.901 -46.102 61.23 -49.5 61.125 C-50.253 61.107 -51.006 61.089 -51.781 61.07 C-52.513 61.047 -53.246 61.024 -54 61 C-58 61 -58 61 -60.625 61.625 C-65.246 62.138 -69.574 61.425 -74 60 C-74.33 59.34 -74.66 58.68 -75 58 C-74.173 57.98 -73.345 57.96 -72.493 57.94 C-68.745 57.845 -64.998 57.735 -61.25 57.625 C-59.948 57.594 -58.646 57.563 -57.305 57.531 C-56.679 57.512 -56.679 57.512 -53.516 57.414 C-52.364 57.383 -51.211 57.351 -50.024 57.319 C-47.114 57.012 -45.382 56.672 -43 55 C-42.05 52.15 -41.908 50.59 -41.998 47.656 C-42.02 46.781 -42.043 45.906 -42.066 45.004 C-42.08 44.532 -42.08 44.532 -42.148 42.145 C-42.185 40.14 -42.221 38.135 -42.254 36.131 C-42.309 32.975 -42.375 29.82 -42.473 26.665 C-42.565 23.616 -42.61 20.569 -42.648 17.52 C-42.688 16.586 -42.727 15.652 -42.767 14.69 C-42.794 8.344 -41.28 5.154 -36.893 0.575 C-27.91 -6.901 -9.346 -6.231 0 0 Z M-40 20 C-39 22 -39 22 -39 22 Z M-24 11 C-23.67 11.66 -23.34 12.32 -23 13 C-24.32 13.33 -25.64 13.66 -27 14 C-27 13.34 -27 12.68 -27 12 C-26.01 11.67 -25.02 11.34 -24 11 Z " fill="#FC8AAF" transform="translate(166,49)"/>
<path d="M0 0 C5.404 5.404 6.215 16.972 6.226 24.34 C6.187 26.451 6.135 28.561 6.078 30.672 C5.958 35.195 6.161 39.673 6.438 44.188 C6.477 44.882 6.517 45.577 6.557 46.293 C6.807 50.254 7.338 54.09 8 58 C8.292 63.154 7.848 67.913 7 73 C7.33 73.99 7.66 74.98 8 76 C8.404 82.951 8.443 89.434 6 96 C6.66 96.33 7.32 96.66 8 97 C7.707 98.953 7.414 100.906 7.121 102.859 C7 105 7 105 7.514 106.868 C8.045 109.196 7.952 110.895 7.66 113.258 C7.567 114.048 7.473 114.838 7.377 115.652 C7.325 116.06 7.325 116.06 7.062 118.125 C6.865 119.753 6.668 121.38 6.473 123.008 C6.428 123.367 6.428 123.367 6.199 125.184 C5.931 127.633 5.878 128.756 7 131 C6.879 133.059 6.879 133.059 6.562 135.438 C6.227 138.016 6 140.392 6 143 C5.67 143.33 5.34 143.66 5 144 C5.021 145.031 5.041 146.062 5.062 147.125 C4.997 151.184 4.481 154.224 3 158 C2.34 158.33 2.34 158.33 -1 160 C-0.34 157.03 0.32 154.06 1 151 C1.66 151 2.32 151 3 151 C2.892 134.666 2.78 118.332 2.661 101.997 C2.606 94.412 2.552 86.826 2.503 79.241 C2.46 72.624 2.413 66.007 2.363 59.39 C2.337 55.892 2.312 52.393 2.291 48.894 C2.267 44.974 2.237 41.054 2.205 37.134 C2.2 35.993 2.194 34.852 2.188 33.677 C2.119 26.082 1.672 18.565 1 11 C0.67 11 0.34 11 0 11 C-0.195 9.543 -0.381 8.084 -0.562 6.625 C-0.667 5.813 -0.771 5.001 -0.879 4.164 C-1 2 -1 2 0 0 Z M-3 160 C-2.34 160.33 -1.68 160.66 -1 161 C-6.972 166.119 -10.926 167.19 -18.637 166.996 C-21 167 -21 167 -23.812 167.625 C-26.707 168.121 -28.404 167.261 -31 166 C-31 165.34 -31 164.68 -31 164 C-29.805 164.035 -28.61 164.07 -27.379 164.105 C-11.538 164.427 -11.538 164.427 -4 161 C-3.67 160.67 -3.34 160.34 -3 160 Z " fill="#E9D2B1" transform="translate(174,57)"/>
<path d="M0 0 C3.321 0.103 6.641 0.206 10.062 0.312 C10.062 11.202 10.062 22.093 10.062 33.312 C9.733 33.312 9.403 33.312 9.062 33.312 C8.733 24.072 8.403 14.833 8.062 5.312 C-7.958 3.977 -7.958 3.977 -13.25 8.125 C-15.035 10.438 -16.017 12.55 -16.938 15.312 C-15.947 15.972 -14.958 16.632 -13.938 17.312 C-14.597 17.972 -15.257 18.632 -15.938 19.312 C-16.165 21.144 -16.165 21.144 -16.133 23.34 C-16.13 23.736 -16.13 23.736 -16.113 25.74 C-16.097 26.568 -16.08 27.397 -16.062 28.25 C-16.053 29.074 -16.044 29.899 -16.035 30.748 C-16.018 32.283 -15.996 33.817 -15.969 35.351 C-15.942 37.005 -15.938 38.659 -15.938 40.312 C-15.905 41.099 -15.873 41.885 -15.84 42.695 C-15.918 48.78 -16.914 51.99 -21.25 56.375 C-24 58.888 -26.536 60.798 -29.938 62.312 C-30.34 62.508 -30.34 62.508 -32.375 63.5 C-35.405 64.461 -36.885 64.057 -39.938 63.312 C-40.948 63.312 -41.959 63.312 -43 63.312 C-45.609 63.312 -47.45 62.954 -49.938 62.312 C-50.804 62.333 -51.67 62.354 -52.562 62.375 C-54.938 62.312 -54.938 62.312 -56.938 60.312 C-58.883 59.461 -58.883 59.461 -61.062 58.688 C-61.787 58.427 -62.511 58.167 -63.258 57.898 C-63.812 57.705 -64.366 57.512 -64.938 57.312 C-64.938 56.653 -64.938 55.993 -64.938 55.312 C-65.928 55.312 -66.917 55.312 -67.938 55.312 C-68.267 53.662 -68.597 52.012 -68.938 50.312 C-66.622 50.928 -64.311 51.554 -62 52.188 C-61.341 52.362 -60.681 52.536 -60.002 52.715 C-58.296 53.187 -56.614 53.745 -54.938 54.312 C-54.608 54.972 -54.278 55.632 -53.938 56.312 C-51.139 57.279 -48.553 57.431 -45.609 57.41 C-44.81 57.407 -44.011 57.404 -43.188 57.4 C-42.362 57.392 -41.537 57.384 -40.688 57.375 C-39.847 57.37 -39.007 57.366 -38.141 57.361 C-36.073 57.35 -34.005 57.332 -31.938 57.312 C-31.938 56.653 -31.938 55.993 -31.938 55.312 C-31.154 55.065 -30.37 54.817 -29.562 54.562 C-26.614 53.159 -26.035 52.306 -24.938 49.312 C-24.278 49.312 -23.618 49.312 -22.938 49.312 C-21.685 41.009 -21.636 32.696 -21.508 24.311 C-21.1 9.112 -21.1 9.112 -16.567 3.666 C-11.585 -0.593 -6.257 -0.276 0 0 Z " fill="#E3C1A5" transform="translate(112.9375,160.6875)"/>
<path d="M0 0 C0.33 0 0.66 0 1 0 C1.839 3.655 2.131 7.04 2.147 10.786 C2.154 11.943 2.161 13.099 2.169 14.291 C2.172 15.551 2.174 16.811 2.177 18.109 C2.183 19.456 2.19 20.803 2.197 22.151 C2.218 26.565 2.228 30.98 2.238 35.395 C2.242 36.918 2.246 38.441 2.251 39.964 C2.27 47.12 2.284 54.276 2.292 61.431 C2.302 69.678 2.328 77.925 2.369 86.172 C2.399 92.556 2.414 98.94 2.417 105.324 C2.419 109.133 2.428 112.941 2.453 116.75 C2.477 120.335 2.481 123.919 2.471 127.503 C2.47 129.436 2.489 131.369 2.509 133.303 C2.467 140.352 1.838 145.025 -2 151 C-8.585 157.416 -15.218 157.339 -23.938 157.312 C-25.009 157.329 -26.081 157.345 -27.186 157.361 C-33.778 157.365 -38.56 157.009 -43.715 152.5 C-44.888 151.06 -45.948 149.53 -47 148 C-46.67 147.01 -46.34 146.02 -46 145 C-45.34 145.99 -44.68 146.98 -44 148 C-44 147.34 -44 146.68 -44 146 C-43.499 146.217 -42.997 146.433 -42.48 146.656 C-36.461 148.871 -30.787 149.33 -24.438 149.375 C-23.647 149.389 -22.856 149.402 -22.042 149.416 C-15.119 149.364 -9.065 148.235 -3.402 144.105 C0.105 139.571 -0.342 135.763 -0.448 130.181 C-0.449 129.635 -0.449 129.635 -0.451 126.872 C-0.459 123.252 -0.503 119.635 -0.547 116.016 C-0.559 113.482 -0.568 110.948 -0.576 108.414 C-0.598 102.406 -0.642 96.398 -0.696 90.389 C-0.787 80.359 -0.834 70.33 -0.882 60.3 C-0.905 55.33 -0.94 50.36 -0.985 45.39 C-1.102 30.231 -0.759 15.141 0 0 Z " fill="#DC6374" transform="translate(172,57)"/>
<path d="M0 0 C0.682 -0.001 1.364 -0.002 2.066 -0.003 C3.511 -0.004 4.957 -0.002 6.402 0.002 C8.616 0.008 10.83 0.003 13.045 -0.004 C14.447 -0.003 15.848 -0.002 17.25 0 C18.532 0.001 19.814 0.002 21.135 0.003 C24.191 0.133 24.191 0.133 26.191 1.133 C26.191 3.113 26.191 5.093 26.191 7.133 C25.889 7.137 25.889 7.137 24.359 7.161 C21.594 7.215 18.831 7.299 16.066 7.383 C15.591 7.39 15.591 7.39 13.184 7.426 C7.489 7.623 3.402 7.909 -0.809 12.133 C-4.678 19.03 -4.283 27.014 -4.371 34.695 C-4.591 49.623 -4.591 49.623 -6.809 56.133 C-7.139 56.298 -7.139 56.298 -8.809 57.133 C-9.077 57.793 -9.345 58.453 -9.621 59.133 C-10.809 61.133 -10.809 61.133 -13.434 61.883 C-14.217 61.965 -15.001 62.048 -15.809 62.133 C-15.809 62.793 -15.809 63.453 -15.809 64.133 C-23.336 65.806 -31.713 66.427 -38.809 63.133 C-38.809 62.473 -38.809 61.813 -38.809 61.133 C-40.129 60.803 -41.449 60.473 -42.809 60.133 C-42.214 60.118 -41.62 60.104 -41.008 60.089 C-38.274 60.013 -35.542 59.917 -32.809 59.82 C-31.874 59.798 -30.939 59.775 -29.977 59.752 C-23.966 59.521 -19.266 58.723 -13.809 56.133 C-10.26 51.766 -8.706 48.161 -8.619 42.585 C-8.611 42.127 -8.611 42.127 -8.568 39.805 C-8.555 38.818 -8.541 37.83 -8.527 36.812 C-8.509 35.798 -8.491 34.784 -8.472 33.739 C-8.393 29.391 -8.325 25.044 -8.256 20.697 C-8.205 17.527 -8.147 14.357 -8.09 11.188 C-8.076 10.196 -8.063 9.204 -8.049 8.183 C-8.04 7.727 -8.04 7.727 -7.998 5.421 C-7.992 5.018 -7.992 5.018 -7.96 2.979 C-7.603 -1.372 -3.508 0.003 0 0 Z " fill="#CFAE89" transform="translate(96.80859375,153.8671875)"/>
<path d="M0 0 C0.369 -0.002 0.369 -0.002 2.236 -0.01 C7.901 0.045 12.203 1.038 17.938 2.312 C17.938 17.822 17.938 33.333 17.938 49.312 C17.608 49.312 17.278 49.312 16.938 49.312 C16.938 36.442 16.938 23.572 16.938 10.312 C6.047 10.312 -4.843 10.312 -16.062 10.312 C-16.075 11.926 -16.075 11.926 -16.141 20.094 C-16.179 23.238 -16.224 26.382 -16.27 29.526 C-16.298 31.703 -16.319 33.879 -16.333 36.056 C-16.355 39.194 -16.402 42.331 -16.453 45.469 C-16.454 45.951 -16.454 45.951 -16.457 48.393 C-16.587 54.453 -17.485 59.299 -21.062 64.312 C-28.119 70.046 -34.703 69.523 -43.438 69.562 C-44 69.573 -44 69.573 -46.844 69.625 C-53.684 69.657 -58.643 69.39 -63.938 64.625 C-64.309 64.192 -64.68 63.759 -65.062 63.312 C-64.733 62.653 -64.403 61.993 -64.062 61.312 C-63.47 61.965 -62.877 62.617 -62.266 63.289 C-57.535 66.277 -53.29 65.82 -47.812 65.688 C-46.813 65.686 -45.814 65.685 -44.785 65.684 C-37.519 65.598 -30.952 64.609 -24.062 62.312 C-23.733 62.477 -23.733 62.477 -22.062 63.312 C-19.777 56.901 -19.718 50.799 -19.648 44.035 C-19.629 42.869 -19.61 41.702 -19.59 40.5 C-19.53 36.792 -19.484 33.084 -19.438 29.375 C-19.399 26.854 -19.36 24.332 -19.32 21.811 C-19.225 15.645 -19.139 9.479 -19.062 3.312 C-17.493 2.814 -15.922 2.323 -14.35 1.835 C-13.912 1.698 -13.912 1.698 -11.699 1.004 C-7.768 -0.027 -4.04 -0.089 0 0 Z " fill="#B54953" transform="translate(106.0625,144.6875)"/>
<path d="M0 0 C3.4 1.407 5.091 2.85 7 6 C7.378 8.714 7.378 8.714 7.381 11.883 C7.385 12.484 7.385 12.484 7.407 15.528 C7.401 16.845 7.394 18.161 7.388 19.518 C7.392 20.921 7.398 22.323 7.404 23.726 C7.418 27.534 7.412 31.342 7.403 35.15 C7.395 39.134 7.402 43.119 7.407 47.104 C7.413 53.795 7.405 60.487 7.391 67.178 C7.375 74.915 7.38 82.651 7.397 90.388 C7.41 97.03 7.412 103.672 7.404 110.315 C7.4 114.282 7.399 118.249 7.409 122.216 C7.418 125.946 7.412 129.676 7.394 133.405 C7.388 135.427 7.397 137.45 7.407 139.472 C7.398 140.675 7.39 141.878 7.381 143.117 C7.38 144.163 7.379 145.208 7.378 146.286 C6.946 149.387 6.103 150.724 4 153 C2.352 154.23 2.352 154.23 0.625 155.188 C0.343 155.349 0.343 155.349 -1.086 156.168 C-9.334 159.753 -21.91 159.313 -30.469 157.105 C-32.739 156.182 -34.878 155.222 -37 154 C-36.67 154.825 -36.67 154.825 -35 159 C-39.228 156.005 -39.228 156.005 -41 154 C-41.375 150.688 -41.375 150.688 -41 148 C-40.67 148.66 -40.34 149.32 -40 150 C-39.237 149.959 -38.474 149.917 -37.688 149.875 C-33.977 150.048 -32.05 151.967 -29 154 C-29 154.66 -29 155.32 -29 156 C-26.02 155.912 -23.042 155.805 -20.062 155.688 C-19.232 155.665 -18.401 155.642 -17.545 155.619 C-10.605 155.322 -3.74 154.473 1.562 149.688 C4.377 142.468 3.551 134.478 2 127 C2 125.68 2 124.36 2 123 C2.66 123 3.32 123 4 123 C4.132 115.372 3.887 107.83 3.268 100.229 C3.014 96.674 3.011 93.355 3.465 89.816 C4.235 83.763 4.145 77.718 4.125 71.625 C4.129 70.451 4.133 69.276 4.137 68.066 C4.135 66.944 4.134 65.821 4.133 64.664 C4.132 64.156 4.132 64.156 4.129 61.584 C4 59 4 59 3 56 C3.09 53.339 3.237 50.715 3.438 48.062 C4.709 29.126 4.709 29.126 3 24 C3.276 21.991 3.602 19.988 4 18 C3.34 17.67 2.68 17.34 2 17 C2.165 16.835 2.165 16.835 3 16 C3.152 14.067 3.222 12.127 3.25 10.188 C3.263 9.658 3.263 9.658 3.328 6.98 C2.968 3.706 2.199 2.39 0 0 Z " fill="#F06488" transform="translate(165,49)"/>
<path d="M0 0 C0.66 0.33 1.32 0.66 2 1 C1.889 5.621 1.687 9.012 -1 12.875 C-9.883 19.167 -19.346 18.541 -29.625 16.812 C-30.349 16.711 -31.074 16.61 -31.82 16.506 C-37.222 15.601 -40.059 13.798 -44 10 C-43.67 8.68 -43.34 7.36 -43 6 C-42.402 6.474 -41.804 6.949 -41.188 7.438 C-36.13 11.05 -30.276 10.259 -24.312 10.312 C-23.78 10.327 -23.78 10.327 -21.088 10.4 C-14.613 10.452 -9.295 10.007 -4 6 C-2.335 4.065 -1.232 2.259 0 0 Z " fill="#D2B892" transform="translate(172,203)"/>
<path d="M0 0 C0.341 -0.006 0.341 -0.006 2.066 -0.037 C8.008 -0.054 13.087 0.829 18.125 4.188 C19.702 6.552 20.222 7.603 19.75 10.438 C19.544 11.015 19.338 11.593 19.125 12.188 C13.587 11.572 13.587 11.572 11.25 9.625 C10.879 9.151 10.507 8.676 10.125 8.188 C8.145 9.178 6.165 10.168 4.125 11.188 C4.125 9.207 4.125 7.227 4.125 5.188 C3.826 5.28 3.826 5.28 2.312 5.75 C0.125 6.188 0.125 6.188 -2.875 5.188 C-5.215 5.422 -5.215 5.422 -7.812 5.938 C-8.667 6.097 -9.522 6.257 -10.402 6.422 C-13.163 7.277 -14.771 8.211 -16.875 10.188 C-17.922 12.23 -17.922 12.23 -18.625 14.375 C-18.867 15.09 -19.11 15.806 -19.359 16.543 C-19.53 17.086 -19.7 17.628 -19.875 18.188 C-20.205 18.188 -20.535 18.188 -20.875 18.188 C-21.5 10.215 -21.5 10.215 -19.125 6.312 C-13.02 0.546 -8.313 0.008 0 0 Z " fill="#FC93B5" transform="translate(147.875,44.8125)"/>
<path d="M0 0 C1.805 0.144 3.613 0.246 5.422 0.316 C5.934 0.337 5.934 0.337 8.527 0.443 C9.591 0.483 10.654 0.522 11.75 0.562 C12.829 0.606 13.908 0.649 15.02 0.693 C17.68 0.799 20.34 0.901 23 1 C22.67 2.65 22.34 4.3 22 6 C19.212 7.033 18.132 7.045 15.25 6.062 C14.507 5.712 13.765 5.361 13 5 C13 5.66 13 6.32 13 7 C12.34 7 11.68 7 11 7 C10.34 6.34 9.68 5.68 9 5 C2.824 5.121 -0.377 7.226 -5 11 C-5 11.33 -5 11.66 -5 12 C-5 12.66 -5 13.32 -5 14 C-6.32 14 -7.64 14 -9 14 C-9 14.66 -9 15.32 -9 16 C-9.66 16 -10.32 16 -11 16 C-11 16.99 -11 17.98 -11 19 C-11.66 19 -12.32 19 -13 19 C-13 16.03 -13 13.06 -13 10 C-13.66 10 -14.32 10 -15 10 C-13.384 4.71 -10.483 2.58 -5.938 -0.312 C-3.498 -1.178 -2.491 -0.632 0 0 Z " fill="#FCA1C1" transform="translate(53,47)"/>
<path d="M0 0 C0.33 0 0.66 0 1 0 C1.076 7.277 1.129 14.555 1.165 21.832 C1.18 24.307 1.2 26.781 1.226 29.255 C1.263 32.817 1.28 36.379 1.293 39.941 C1.308 41.043 1.324 42.144 1.34 43.279 C1.341 49.278 1.029 53.752 -2 59 C-4.125 59.812 -4.125 59.812 -7 60 C-8.311 60.324 -9.62 60.66 -10.926 61.004 C-16.644 62.304 -22.225 62.221 -28.062 62.125 C-29.119 62.116 -30.175 62.107 -31.264 62.098 C-33.843 62.074 -36.421 62.042 -39 62 C-38.01 61.34 -37.02 60.68 -36 60 C-37.32 59.67 -38.64 59.34 -40 59 C-40 58.34 -40 57.68 -40 57 C-39.117 57.016 -38.235 57.031 -37.325 57.048 C-34.036 57.099 -30.747 57.136 -27.457 57.165 C-26.036 57.18 -24.615 57.2 -23.195 57.226 C-21.147 57.263 -19.099 57.28 -17.051 57.293 C-15.82 57.309 -14.589 57.324 -13.322 57.341 C-9.693 56.968 -7.878 56.199 -5 54 C-2.169 49.753 -1.867 46.071 -1.938 41.051 C-1.941 40.585 -1.941 40.585 -1.961 38.229 C-1.987 36.304 -2.013 34.38 -2.039 32.455 C-2.084 27.013 -1.867 21.719 -1.258 16.31 C-0.889 13.003 -0.665 9.695 -0.438 6.375 C-0.354 5.166 -0.27 3.957 -0.184 2.711 C-0.153 2.264 -0.153 2.264 0 0 Z " fill="#E15F78" transform="translate(86,149)"/>
<path d="M0 0 C3.76 2.507 3.974 3.647 5 8 C5.253 11.335 5.233 14.65 5.195 17.992 C5.192 18.938 5.19 19.884 5.187 20.859 C5.176 23.864 5.15 26.87 5.125 29.875 C5.115 31.919 5.106 33.964 5.098 36.008 C5.076 41.005 5.041 46.003 5 51 C3.02 50.01 1.04 49.02 -1 48 C-0.835 47.01 -0.835 47.01 0 42 C-0.66 41.67 -1.32 41.34 -2 41 C-2 37 -2 37 -1.52 33.703 C-1.004 30.026 -0.795 26.463 -0.684 22.754 C-0.663 22.098 -0.642 21.442 -0.621 20.766 C-0.556 18.698 -0.497 16.63 -0.438 14.562 C-0.394 13.149 -0.351 11.736 -0.307 10.322 C-0.2 6.882 -0.099 3.441 0 0 Z " fill="#E7637E" transform="translate(84,53)"/>
<path d="M0 0 C2.31 0.66 4.62 1.32 7 2 C7 4 7 4 5.5 5.625 C5.005 6.079 4.51 6.532 4 7 C4.33 7.66 4.66 8.32 5 9 C4.67 9.495 4.67 9.495 3 12 C3.99 12.66 4.98 13.32 6 14 C5.649 14.536 5.299 15.072 4.938 15.625 C3.711 18.731 4.369 20.773 5 24 C4.67 24.66 4.34 25.32 4 26 C5.65 26.33 7.3 26.66 9 27 C9.707 28.738 9.707 28.738 10 31 C8.637 33.105 8.637 33.105 6.688 35.188 C6.052 35.882 5.416 36.577 4.762 37.293 C3 39 3 39 1 40 C-1.479 36.281 -1.272 33.422 -1.23 29.121 C-1.23 28.353 -1.23 27.585 -1.229 26.794 C-1.226 25.173 -1.218 23.551 -1.206 21.93 C-1.188 19.443 -1.185 16.957 -1.186 14.471 C-1.181 12.896 -1.175 11.321 -1.168 9.746 C-1.167 9 -1.166 8.254 -1.165 7.486 C-1.116 2.232 -1.116 2.232 0 0 Z " fill="#FC88AD" transform="translate(40,156)"/>
<path d="M0 0 C0.33 0 0.66 0 1 0 C1.094 16.681 1.164 33.363 1.207 50.044 C1.228 57.79 1.256 65.536 1.302 73.282 C1.342 80.035 1.367 86.788 1.376 93.542 C1.382 97.116 1.394 100.69 1.423 104.264 C1.455 108.259 1.456 112.254 1.454 116.25 C1.461 116.839 1.461 116.839 1.498 119.818 C1.463 126.693 0.703 131.156 -3 137 C-9.585 143.416 -16.218 143.339 -24.938 143.312 C-26.009 143.329 -27.081 143.345 -28.186 143.361 C-34.778 143.365 -39.56 143.009 -44.715 138.5 C-45.888 137.06 -46.948 135.53 -48 134 C-47.67 133.01 -47.34 132.02 -47 131 C-46.186 132.465 -45.372 133.93 -44.559 135.395 C-40.623 139.448 -35.941 140.181 -30.531 140.398 C-28.521 140.406 -26.51 140.398 -24.5 140.375 C-23.493 140.387 -22.486 140.398 -21.449 140.41 C-15.541 140.387 -11.172 139.938 -6 137 C-2.28 132.301 -0.882 128.7 -0.842 122.78 C-0.832 121.699 -0.822 120.618 -0.812 119.504 C-0.806 118.318 -0.801 117.131 -0.795 115.909 C-0.785 114.661 -0.775 113.412 -0.765 112.125 C-0.738 108.7 -0.717 105.274 -0.697 101.849 C-0.675 98.269 -0.647 94.69 -0.621 91.111 C-0.571 84.332 -0.526 77.554 -0.483 70.775 C-0.433 63.058 -0.378 55.341 -0.323 47.624 C-0.209 31.749 -0.102 15.875 0 0 Z " fill="#BC7467" transform="translate(173,71)"/>
<path d="M0 0 C1.32 0.66 2.64 1.32 4 2 C3.34 2.66 2.68 3.32 2 4 C1.773 5.832 1.773 5.832 1.805 8.027 C1.808 8.423 1.808 8.423 1.824 10.428 C1.841 11.256 1.858 12.084 1.875 12.938 C1.884 13.762 1.893 14.586 1.902 15.436 C1.92 16.97 1.941 18.504 1.968 20.039 C1.995 21.692 2 23.346 2 25 C2.032 25.786 2.064 26.573 2.098 27.383 C2.02 33.468 1.023 36.677 -3.312 41.062 C-6.062 43.576 -8.599 45.485 -12 47 C-12.402 47.196 -12.402 47.196 -14.438 48.188 C-17.467 49.148 -18.947 48.745 -22 48 C-23.011 48 -24.021 48 -25.062 48 C-27.671 48 -29.512 47.642 -32 47 C-32.866 47.021 -33.733 47.041 -34.625 47.062 C-37 47 -37 47 -39 45 C-40.945 44.148 -40.945 44.148 -43.125 43.375 C-43.849 43.115 -44.574 42.854 -45.32 42.586 C-45.875 42.393 -46.429 42.199 -47 42 C-47 41.34 -47 40.68 -47 40 C-47.99 40 -48.98 40 -50 40 C-50.33 38.35 -50.66 36.7 -51 35 C-48.563 35.812 -48.563 35.812 -46 37 C-45.67 37.99 -45.34 38.98 -45 40 C-42 41 -42 41 -40.066 41.461 C-37.929 42.018 -35.987 42.805 -33.938 43.625 C-27.855 45.698 -21.347 45.649 -15 45 C-14.34 44.34 -13.68 43.68 -13 43 C-12.196 42.711 -11.391 42.423 -10.562 42.125 C-7.629 40.837 -6.642 39.709 -5 37 C-4.67 36.01 -4.34 35.02 -4 34 C-3.34 34 -2.68 34 -2 34 C-1.987 33.574 -1.987 33.574 -1.924 31.417 C-1.829 28.24 -1.729 25.062 -1.628 21.885 C-1.585 20.512 -1.543 19.14 -1.503 17.767 C-1.445 15.789 -1.381 13.81 -1.316 11.832 C-1.28 10.643 -1.243 9.455 -1.205 8.23 C-1.025 5.386 -0.642 2.771 0 0 Z " fill="#E6D1AF" transform="translate(95,176)"/>
<path d="M0 0 C0.682 -0.001 1.364 -0.002 2.066 -0.003 C3.511 -0.004 4.957 -0.002 6.402 0.002 C8.616 0.008 10.83 0.003 13.045 -0.004 C14.447 -0.003 15.848 -0.002 17.25 0 C18.532 0.001 19.814 0.002 21.135 0.003 C24.191 0.133 24.191 0.133 26.191 1.133 C26.191 3.113 26.191 5.093 26.191 7.133 C26.026 6.638 26.026 6.638 25.191 4.133 C17.271 4.463 9.351 4.793 1.191 5.133 C0.861 6.123 0.531 7.113 0.191 8.133 C-0.469 8.133 -1.129 8.133 -1.809 8.133 C-3.176 11.141 -3.868 13.576 -4.309 16.883 C-4.474 17.955 -4.639 19.028 -4.809 20.133 C-5.469 20.463 -6.129 20.793 -6.809 21.133 C-7.948 18.854 -7.938 17.565 -7.941 15.035 C-7.943 14.234 -7.944 13.433 -7.945 12.607 C-7.941 11.77 -7.938 10.933 -7.934 10.07 C-7.937 9.229 -7.941 8.388 -7.945 7.521 C-7.933 -0.171 -7.53 0.007 0 0 Z " fill="#C29072" transform="translate(96.80859375,153.8671875)"/>
<path d="M0 0 C0 0.33 0 0.66 0 1 C-1.98 1.33 -3.96 1.66 -6 2 C-3.69 2.66 -1.38 3.32 1 4 C1 3.34 1 2.68 1 2 C1.66 2 2.32 2 3 2 C3 2.66 3 3.32 3 4 C3.887 3.814 4.774 3.629 5.688 3.438 C8.852 3.02 10.948 3.192 14 4 C14 4.66 14 5.32 14 6 C15.65 5.34 17.3 4.68 19 4 C19.165 4.66 19.165 4.66 20 8 C19.513 7.92 19.513 7.92 17.051 7.516 C6.305 5.992 -4.838 5.984 -15 10 C-15.061 11.23 -15.121 12.46 -15.184 13.727 C-15.268 15.359 -15.353 16.992 -15.438 18.625 C-15.457 19.029 -15.457 19.029 -15.557 21.074 C-15.788 25.452 -16.169 29.685 -17 34 C-18.619 31.428 -19.044 30.323 -18.625 27.25 C-18.419 26.507 -18.213 25.765 -18 25 C-18.66 24.67 -19.32 24.34 -20 24 C-20.077 21.319 -20.013 19.054 -19.375 16.438 C-19 14 -19 14 -20.125 12 C-20.414 11.34 -20.703 10.68 -21 10 C-19.625 7.25 -19.625 7.25 -18 5 C-18.99 4.67 -19.98 4.34 -21 4 C-17.99 3.066 -17.133 2.956 -14 4 C-13.01 4 -12.02 4 -11 4 C-11.33 3.01 -11.66 2.02 -12 1 C-7.588 -0.471 -4.517 -1.369 0 0 Z " fill="#F86D97" transform="translate(102,139)"/>
<path d="M0 0 C0.752 -0.008 1.503 -0.015 2.277 -0.023 C8.026 -0.004 12.295 0.955 18.125 2.25 C18.125 17.76 18.125 33.27 18.125 49.25 C17.795 49.25 17.465 49.25 17.125 49.25 C16.795 34.73 16.465 20.21 16.125 5.25 C2 5.312 2 5.312 -2.422 5.34 C-3.585 5.343 -4.748 5.345 -5.945 5.348 C-6.537 5.35 -6.537 5.35 -9.532 5.364 C-12.737 5.255 -15.73 4.855 -18.875 4.25 C-12.937 0.292 -6.908 -0.07 0 0 Z " fill="#DB496D" transform="translate(105.875,144.75)"/>
<path d="M0 0 C5.404 5.404 6.215 16.972 6.226 24.34 C6.187 26.451 6.135 28.561 6.078 30.672 C5.958 35.195 6.161 39.673 6.438 44.188 C6.477 44.882 6.517 45.577 6.557 46.293 C6.807 50.254 7.338 54.09 8 58 C8.292 63.154 7.848 67.913 7 73 C7.33 73.99 7.66 74.98 8 76 C8.121 78.102 8.175 80.207 8.188 82.312 C8.202 83.422 8.216 84.532 8.23 85.676 C7.993 89.096 7.221 91.81 6 95 C5.67 95 5.34 95 5 95 C5.01 94.033 5.021 93.067 5.032 92.071 C5.224 72.461 5.049 52.904 4.125 33.312 C4.086 32.418 4.046 31.524 4.006 30.602 C3.892 28.063 3.765 25.526 3.633 22.988 C3.599 22.236 3.566 21.483 3.531 20.708 C3.321 17.036 3.007 14.136 1 11 C0.67 11 0.34 11 0 11 C-0.195 9.543 -0.381 8.084 -0.562 6.625 C-0.667 5.813 -0.771 5.001 -0.879 4.164 C-1 2 -1 2 0 0 Z " fill="#F1DDC0" transform="translate(174,57)"/>
<path d="M0 0 C1.65 0 3.3 0 5 0 C4.01 1.65 3.02 3.3 2 5 C2.99 5.33 3.98 5.66 5 6 C5.66 6.66 6.32 7.32 7 8 C3.25 9.125 3.25 9.125 1 8 C0.67 8.99 0.34 9.98 0 11 C-3.562 12.188 -3.562 12.188 -7 13 C-7 13.99 -7 14.98 -7 16 C-11.203 17.818 -13.535 18.488 -18 17 C-16.68 16.34 -15.36 15.68 -14 15 C-14.66 14.34 -15.32 13.68 -16 13 C-16.99 13.66 -17.98 14.32 -19 15 C-20.505 15.585 -22.028 16.124 -23.562 16.625 C-23.955 16.755 -23.955 16.755 -25.941 17.414 C-28 18 -28 18 -30 18 C-30 17.01 -30 16.02 -30 15 C-26.308 11.308 -22.939 10.162 -18 9 C-18 9.66 -18 10.32 -18 11 C-16.582 10.885 -15.166 10.757 -13.75 10.625 C-12.961 10.555 -12.172 10.486 -11.359 10.414 C-8.879 9.979 -7.14 9.316 -5 8 C-4.67 7.34 -4.34 6.68 -4 6 C-3.34 6 -2.68 6 -2 6 C-1.856 5.381 -1.711 4.763 -1.562 4.125 C-1 2 -1 2 0 0 Z " fill="#FC87AD" transform="translate(130,99)"/>
<path d="M0 0 C0.66 0.33 1.32 0.66 2 1 C1.979 2.176 1.959 3.351 1.938 4.562 C1.946 9.483 2.176 14.136 4.188 18.688 C5 21 5 21 4.125 23.25 C3.754 23.828 3.383 24.405 3 25 C3 26.84 4.172 28.396 5 30 C4.34 30 3.68 30 3 30 C3.084 30.748 3.168 31.495 3.254 32.266 C3.356 33.25 3.458 34.235 3.562 35.25 C3.667 36.225 3.771 37.199 3.879 38.203 C3.992 40.807 3.69 42.526 3 45 C3 46.32 3 47.64 3 49 C2.34 49 1.68 49 1 49 C0.67 49.99 0.34 50.98 0 52 C-0.362 49.063 -0.715 46.126 -1.062 43.188 C-1.166 42.354 -1.27 41.521 -1.377 40.662 C-1.47 39.86 -1.564 39.057 -1.66 38.23 C-1.705 37.861 -1.705 37.861 -1.93 35.993 C-2 34 -2 34 -1 31 C-1.165 30.01 -1.33 29.02 -1.5 28 C-2 25 -2 25 -1 22 C-0.959 20.334 -0.957 18.666 -1 17 C-1 16.34 -1 15.68 -1 15 C-1.012 13.937 -1.023 12.873 -1.035 11.777 C-1.044 10.51 -1.053 9.243 -1.062 7.938 C-1.074 6.668 -1.086 5.398 -1.098 4.09 C-1 1 -1 1 0 0 Z " fill="#FC92B4" transform="translate(41,67)"/>
<path d="M0 0 C0.33 0 0.66 0 1 0 C1.061 0.771 1.121 1.542 1.184 2.336 C1.267 3.339 1.351 4.342 1.438 5.375 C1.478 5.874 1.478 5.874 1.684 8.398 C2 11 2 11 3 13 C3.085 15.105 3.107 17.213 3.098 19.32 C3.094 20.577 3.091 21.834 3.088 23.129 C3.08 24.448 3.071 25.766 3.062 27.125 C3.057 28.465 3.053 29.805 3.049 31.145 C3.037 34.43 3.021 37.715 3 41 C-0.875 40.125 -0.875 40.125 -2 39 C-2.113 36.284 -2.164 33.595 -2.168 30.879 C-2.171 30.064 -2.175 29.249 -2.178 28.409 C-2.183 26.681 -2.185 24.954 -2.185 23.226 C-2.187 20.577 -2.206 17.928 -2.225 15.279 C-2.228 13.604 -2.23 11.929 -2.23 10.254 C-2.238 9.458 -2.245 8.662 -2.252 7.842 C-2.229 2.229 -2.229 2.229 0 0 Z " fill="#E6C8A7" transform="translate(91,64)"/>
<path d="M0 0 C0.33 0 0.66 0 1 0 C1.33 44.55 1.66 89.1 2 135 C2.66 135 3.32 135 4 135 C5.354 137.709 5.065 140.009 5 143 C3.062 142.187 3.062 142.187 1 141 C-0.045 137.864 -0.123 135.691 -0.12 132.4 C-0.121 131.818 -0.121 131.818 -0.124 128.869 C-0.121 127.589 -0.117 126.31 -0.114 124.991 C-0.113 123.631 -0.113 122.271 -0.114 120.911 C-0.114 117.217 -0.108 113.524 -0.101 109.83 C-0.095 105.97 -0.095 102.11 -0.093 98.25 C-0.09 90.941 -0.082 83.631 -0.072 76.321 C-0.061 68 -0.055 59.678 -0.05 51.356 C-0.04 34.238 -0.022 17.119 0 0 Z " fill="#F27194" transform="translate(37,62)"/>
<path d="M0 0 C11.22 0 22.44 0 34 0 C34.165 0.825 34.165 0.825 35 5 C24.11 5 13.22 5 2 5 C1.835 7.475 1.835 7.475 1 20 C0.67 20 0.34 20 0 20 C0 13.4 0 6.8 0 0 Z " fill="#B5344C" transform="translate(88,150)"/>
<path d="M0 0 C0.986 0.003 1.972 0.006 2.988 0.01 C4.021 0.018 5.053 0.027 6.117 0.035 C6.637 0.037 6.637 0.037 9.27 0.049 C11.844 0.061 14.418 0.077 16.992 0.098 C16.992 1.088 16.992 2.078 16.992 3.098 C16.705 3.102 16.705 3.102 15.251 3.126 C12.623 3.18 9.995 3.264 7.367 3.348 C6.464 3.362 5.56 3.376 4.629 3.391 C-0.956 3.594 -4.86 3.988 -9.008 8.098 C-12.958 15.086 -12.55 23.369 -12.695 31.16 C-12.729 32.407 -12.764 33.654 -12.799 34.939 C-12.881 37.992 -12.95 41.044 -13.008 44.098 C-13.338 44.098 -13.668 44.098 -14.008 44.098 C-14.796 40.617 -15.136 37.399 -15.141 33.832 C-15.142 32.86 -15.143 31.888 -15.145 30.887 C-15.141 29.884 -15.137 28.881 -15.133 27.848 C-15.137 26.829 -15.141 25.811 -15.145 24.762 C-15.143 23.795 -15.142 22.828 -15.141 21.832 C-15.139 20.947 -15.138 20.063 -15.137 19.151 C-15.008 17.098 -15.008 17.098 -14.008 16.098 C-13.738 14.705 -13.492 13.309 -13.258 11.91 C-12.234 7.046 -10.502 4.592 -7.008 1.098 C-4.503 -0.155 -2.799 -0.016 0 0 Z " fill="#D7B18F" transform="translate(105.0078125,157.90234375)"/>
<path d="M0 0 C3.432 1.42 5.193 2.732 7 6 C7.428 9.098 7.372 12.167 7.328 15.289 C7.326 16.189 7.324 17.088 7.322 18.015 C7.316 19.913 7.302 21.811 7.281 23.709 C7.25 26.621 7.24 29.533 7.234 32.445 C7.225 34.289 7.215 36.133 7.203 37.977 C7.199 38.851 7.195 39.724 7.19 40.625 C7.117 46.766 7.117 46.766 6 49 C5.93 50.874 5.916 52.75 5.938 54.625 C5.947 55.628 5.956 56.631 5.965 57.664 C5.976 58.435 5.988 59.206 6 60 C4.48 59.027 4.48 59.027 3 57 C2.943 54.096 3.047 51.438 3.312 48.562 C3.433 46.938 3.552 45.313 3.668 43.688 C3.728 42.891 3.788 42.094 3.849 41.273 C4.664 28.992 4.664 28.992 3 24 C3.276 21.991 3.602 19.988 4 18 C3.34 17.67 2.68 17.34 2 17 C2.33 16.67 2.66 16.34 3 16 C3.152 14.067 3.222 12.127 3.25 10.188 C3.276 9.129 3.302 8.071 3.328 6.98 C2.968 3.706 2.199 2.39 0 0 Z " fill="#F06887" transform="translate(165,49)"/>
<path d="M0 0 C0.66 0.33 1.32 0.66 2 1 C1.853 5.859 -0.697 8.171 -3.918 11.449 C-9.688 15.747 -15.566 15.111 -22.375 14.625 C-23.302 14.568 -24.229 14.512 -25.184 14.453 C-27.457 14.313 -29.728 14.161 -32 14 C-32.33 13.01 -32.66 12.02 -33 11 C-32.406 10.991 -31.811 10.981 -31.199 10.972 C-28.465 10.917 -25.733 10.834 -23 10.75 C-22.065 10.736 -21.131 10.722 -20.168 10.707 C-14.066 10.494 -9.032 9.65 -4 6 C-2.329 4.068 -1.233 2.261 0 0 Z " fill="#C5A680" transform="translate(172,203)"/>
<path d="M0 0 C0.66 0.99 1.32 1.98 2 3 C3.32 2.67 4.64 2.34 6 2 C5.67 2.99 5.34 3.98 5 5 C5.66 5.33 6.32 5.66 7 6 C6.67 6.165 6.67 6.165 5 7 C5 7.99 5 8.98 5 10 C4.922 17.123 4.803 24.246 4.683 31.369 C4.644 33.746 4.609 36.123 4.578 38.501 C4.533 41.926 4.475 45.352 4.414 48.777 C4.408 49.309 4.408 49.309 4.379 52 C4.359 52.992 4.339 53.983 4.319 55.004 C4.306 55.874 4.292 56.744 4.278 57.641 C4 60 4 60 2 64 C2.33 46.18 2.66 28.36 3 10 C2.34 10 1.68 10 1 10 C0.34 9.01 -0.32 8.02 -1 7 C-2.32 7.33 -3.64 7.66 -5 8 C-4.458 4.204 -2.799 2.528 0 0 Z " fill="#F9719B" transform="translate(121,137)"/>
<path d="M0 0 C0.741 0.005 1.481 0.009 2.244 0.014 C4.059 0.025 5.873 0.043 7.688 0.062 C7.688 0.392 7.688 0.722 7.688 1.062 C2.738 1.062 -2.213 1.062 -7.312 1.062 C-7.312 1.722 -7.312 2.383 -7.312 3.062 C-3.023 3.062 1.267 3.062 5.688 3.062 C4.368 4.053 3.048 5.043 1.688 6.062 C-0.746 5.703 -0.746 5.703 -3.312 5.062 C-5.848 5.297 -5.848 5.297 -8.375 5.812 C-8.793 5.892 -8.793 5.892 -10.91 6.297 C-13.623 7.161 -15.234 8.12 -17.312 10.062 C-18.359 12.105 -18.359 12.105 -19.062 14.25 C-19.305 14.965 -19.547 15.681 -19.797 16.418 C-19.967 16.961 -20.137 17.503 -20.312 18.062 C-20.642 18.062 -20.972 18.062 -21.312 18.062 C-21.938 10.09 -21.938 10.09 -19.562 6.188 C-13.296 0.269 -8.525 -0.099 0 0 Z " fill="#FCACC6" transform="translate(148.3125,44.9375)"/>
<path d="M0 0 C0.33 0 0.66 0 1 0 C1 12.87 1 25.74 1 39 C0.34 39 -0.32 39 -1 39 C-1.086 39.615 -1.173 40.23 -1.262 40.863 C-2.412 47.479 -2.412 47.479 -5.188 49.938 C-5.652 50.113 -5.652 50.113 -8 51 C-8.485 51.196 -8.485 51.196 -10.938 52.188 C-16.721 53.714 -23.084 53.505 -29 53 C-29.99 52.34 -30.98 51.68 -32 51 C-30.961 51.035 -29.922 51.07 -28.852 51.105 C-12.085 51.5 -12.085 51.5 -6 48 C-0.343 38.116 -0.478 26.854 -0.312 15.812 C-0.279 14.273 -0.245 12.733 -0.209 11.193 C-0.125 7.462 -0.058 3.731 0 0 Z " fill="#E0C8A4" transform="translate(176,169)"/>
<path d="M0 0 C0.682 -0.001 1.364 -0.002 2.066 -0.003 C3.511 -0.004 4.957 -0.002 6.402 0.002 C8.616 0.008 10.83 0.003 13.045 -0.004 C14.447 -0.003 15.848 -0.002 17.25 0 C18.532 0.001 19.814 0.002 21.135 0.003 C24.191 0.133 24.191 0.133 26.191 1.133 C25.861 1.793 25.531 2.453 25.191 3.133 C24.567 3.107 23.942 3.08 23.299 3.053 C20.43 2.949 17.561 2.884 14.691 2.82 C13.709 2.778 12.727 2.737 11.715 2.693 C4.816 2.578 0.592 3.788 -4.809 8.133 C-4.809 7.473 -4.809 6.813 -4.809 6.133 C-5.469 6.133 -6.129 6.133 -6.809 6.133 C-7.139 7.123 -7.469 8.113 -7.809 9.133 C-7.906 2.98 -7.906 2.98 -7.809 1.133 C-5.904 -0.772 -2.525 0.002 0 0 Z " fill="#B87F66" transform="translate(96.80859375,153.8671875)"/>
<path d="M0 0 C0.66 0.33 1.32 0.66 2 1 C0.528 5.66 0.528 5.66 -1.797 7.156 C-4.216 8.083 -5.922 8.204 -8.5 8.125 C-9.253 8.107 -10.006 8.089 -10.781 8.07 C-11.513 8.047 -12.246 8.024 -13 8 C-17 8 -17 8 -19.625 8.625 C-24.246 9.138 -28.574 8.425 -33 7 C-33.33 6.34 -33.66 5.68 -34 5 C-33.178 4.985 -32.356 4.971 -31.509 4.956 C-27.776 4.881 -24.045 4.785 -20.312 4.688 C-19.019 4.665 -17.725 4.642 -16.393 4.619 C-15.769 4.601 -15.769 4.601 -12.613 4.512 C-12.04 4.499 -12.04 4.499 -9.138 4.432 C-5.41 3.919 -2.683 2.683 0 0 Z " fill="#FCA0C3" transform="translate(125,102)"/>
<path d="M0 0 C0.33 0 0.66 0 1 0 C1.07 9.188 1.123 18.376 1.155 27.565 C1.171 31.831 1.192 36.097 1.226 40.364 C1.259 44.481 1.277 48.598 1.285 52.716 C1.29 54.286 1.301 55.857 1.317 57.428 C1.339 59.628 1.342 61.828 1.341 64.028 C1.347 65.281 1.354 66.533 1.361 67.824 C0.977 71.201 0.303 72.564 -2 75 C-1.836 73.852 -1.673 72.704 -1.504 71.521 C-0.968 67.215 -0.888 63.005 -0.938 58.672 C-0.946 57.063 -0.955 55.455 -0.963 53.846 C-0.969 53.013 -0.975 52.181 -0.982 51.323 C-1.104 34.187 -0.805 17.12 0 0 Z " fill="#E95E7A" transform="translate(171,127)"/>
<path d="M0 0 C1.32 0.66 2.64 1.32 4 2 C3.34 2.66 2.68 3.32 2 4 C1.773 5.832 1.773 5.832 1.805 8.027 C1.811 8.819 1.818 9.612 1.824 10.428 C1.841 11.256 1.858 12.084 1.875 12.938 C1.884 13.762 1.893 14.586 1.902 15.436 C1.92 16.97 1.941 18.504 1.968 20.039 C2.201 34.431 2.201 34.431 -0.402 37.832 C-2.062 39.188 -2.062 39.188 -5 41 C-4.67 38.69 -4.34 36.38 -4 34 C-3.34 34 -2.68 34 -2 34 C-1.975 33.148 -1.95 32.295 -1.924 31.417 C-1.829 28.24 -1.729 25.062 -1.628 21.885 C-1.585 20.512 -1.543 19.14 -1.503 17.767 C-1.445 15.789 -1.381 13.81 -1.316 11.832 C-1.28 10.643 -1.243 9.455 -1.205 8.23 C-1.025 5.386 -0.642 2.771 0 0 Z " fill="#EFD9BA" transform="translate(95,176)"/>
<path d="M0 0 C0.99 0.33 1.98 0.66 3 1 C4.125 6.75 4.125 6.75 3 9 C3.66 9.66 4.32 10.32 5 11 C5.165 12.011 5.33 13.021 5.5 14.062 C5.665 15.032 5.83 16.001 6 17 C6.66 17.33 7.32 17.66 8 18 C7.01 18.33 6.02 18.66 5 19 C5 19.66 5 20.32 5 21 C3.02 21 1.04 21 -1 21 C-1.027 18.625 -1.047 16.25 -1.062 13.875 C-1.071 13.21 -1.079 12.545 -1.088 11.859 C-1.108 7.793 -0.789 3.988 0 0 Z " fill="#FC8CAF" transform="translate(126,174)"/>
<path d="M0 0 C0.75 1.625 0.75 1.625 1 4 C-2.255 9.907 -5.711 12.822 -12 15 C-15.972 15.408 -19.947 15.324 -23.938 15.312 C-25.009 15.329 -26.081 15.345 -27.186 15.361 C-33.778 15.365 -38.56 15.009 -43.715 10.5 C-44.888 9.06 -45.948 7.53 -47 6 C-46.67 5.01 -46.34 4.02 -46 3 C-45.186 4.465 -44.372 5.93 -43.559 7.395 C-39.623 11.448 -34.941 12.181 -29.531 12.398 C-27.521 12.406 -25.51 12.398 -23.5 12.375 C-22.493 12.387 -21.486 12.398 -20.449 12.41 C-14.541 12.387 -10.172 11.938 -5 9 C-2.634 6.011 -1.202 3.607 0 0 Z " fill="#9E4242" transform="translate(172,199)"/>
<path d="M0 0 C0.66 1.32 1.32 2.64 2 4 C-1.323 8.8 -1.323 8.8 -4.75 9.812 C-5.493 9.874 -6.235 9.936 -7 10 C-5.68 8.68 -4.36 7.36 -3 6 C-3.99 6.33 -4.98 6.66 -6 7 C-10.783 8.256 -15.527 8.184 -20.438 8.188 C-21.271 8.2 -22.104 8.212 -22.963 8.225 C-27.717 8.236 -31.532 7.838 -36 6 C-36 5.67 -36 5.34 -36 5 C-35.29 5.016 -34.58 5.031 -33.848 5.048 C-30.586 5.111 -27.325 5.149 -24.062 5.188 C-23.504 5.2 -23.504 5.2 -20.678 5.264 C-14.019 5.322 -8.054 5.001 -2 2 C-1.34 1.34 -0.68 0.68 0 0 Z " fill="#D5506E" transform="translate(168,201)"/>
<path d="M0 0 C0.33 0 0.66 0 1 0 C1.442 4.42 1.343 6.476 -1.125 10.25 C-7.785 16.621 -13.832 16.411 -22.625 16.25 C-23.757 16.245 -24.889 16.24 -26.055 16.234 C-35.118 16.148 -35.118 16.148 -39 15 C-39 14.34 -39 13.68 -39 13 C-38.117 13.016 -37.235 13.031 -36.325 13.048 C-33.036 13.099 -29.747 13.136 -26.457 13.165 C-25.036 13.18 -23.615 13.2 -22.195 13.226 C-20.147 13.263 -18.099 13.28 -16.051 13.293 C-14.82 13.309 -13.589 13.324 -12.322 13.341 C-8.693 12.968 -6.878 12.199 -4 10 C-1.81 6.715 -1.002 3.793 0 0 Z " fill="#CE4E6A" transform="translate(85,193)"/>
<path d="M0 0 C0.66 0.33 1.32 0.66 2 1 C1.34 1.66 0.68 2.32 0 3 C-0.33 3.66 -0.66 4.32 -1 5 C-7.74 7.821 -14.811 7.179 -22 7 C-22.33 6.01 -22.66 5.02 -23 4 C-25.062 3.312 -25.062 3.312 -27 3 C-26.395 2.98 -25.791 2.96 -25.167 2.94 C-22.403 2.844 -19.639 2.735 -16.875 2.625 C-16.399 2.61 -16.399 2.61 -13.992 2.531 C-8.927 2.32 -4.799 1.763 0 0 Z " fill="#C7AA84" transform="translate(81,211)"/>
<path d="M0 0 C0.99 0.33 1.98 0.66 3 1 C2.67 1.99 2.34 2.98 2 4 C2.99 4.99 3.98 5.98 5 7 C4.01 7.33 3.02 7.66 2 8 C2.33 8.99 2.66 9.98 3 11 C2.835 11.619 2.67 12.238 2.5 12.875 C1.87 15.551 2.449 17.307 3 20 C3.304 24.313 3.488 27.269 1 31 C1.66 31.33 2.32 31.66 3 32 C2.505 32.165 2.505 32.165 0 33 C-1.062 31.188 -1.062 31.188 -2 29 C-1.67 28.01 -1.34 27.02 -1 26 C-0.931 24.601 -0.915 23.198 -0.938 21.797 C-0.945 20.981 -0.953 20.165 -0.961 19.324 C-0.987 17.624 -1.013 15.923 -1.039 14.223 C-1.085 9.357 -0.83 4.797 0 0 Z " fill="#FC8EB1" transform="translate(41,121)"/>
<path d="M0 0 C0.754 0.1 1.508 0.2 2.285 0.303 C4.149 0.55 6.012 0.806 7.875 1.062 C7.545 1.722 7.215 2.383 6.875 3.062 C4.241 3.652 1.661 4.141 -1 4.562 C-8.729 5.799 -8.729 5.799 -12.125 8.062 C-13.148 9.715 -14.151 11.38 -15.125 13.062 C-15.455 13.062 -15.785 13.062 -16.125 13.062 C-16.5 10.375 -16.5 10.375 -16.125 7.062 C-14.302 5.095 -12.285 3.682 -10.125 2.062 C-10.125 1.403 -10.125 0.742 -10.125 0.062 C-6.879 -1.56 -3.487 -0.485 0 0 Z " fill="#FCAFC9" transform="translate(57.125,46.9375)"/>
<path d="M0 0 C0.66 0 1.32 0 2 0 C4.399 6.823 4.124 13.104 3.922 20.262 C3.829 25.611 4.095 29.973 6 35 C6.66 35.66 7.32 36.32 8 37 C6.02 37 4.04 37 2 37 C1.975 36.162 1.95 35.325 1.924 34.461 C1.829 31.356 1.73 28.252 1.628 25.147 C1.563 23.141 1.503 21.135 1.443 19.129 C1.401 17.872 1.36 16.615 1.316 15.32 C1.28 14.158 1.243 12.995 1.205 11.797 C1 9 1 9 0 7 C-0.04 4.667 -0.043 2.333 0 0 Z " fill="#F4D9BE" transform="translate(92,68)"/>
<path d="M0 0 C0.557 0.248 1.114 0.495 1.688 0.75 C0.718 1.389 -0.251 2.029 -1.25 2.688 C-4.312 4.75 -4.312 4.75 -5.312 5.75 C-5.353 7.416 -5.355 9.084 -5.312 10.75 C-5.23 10.43 -5.23 10.43 -4.812 8.812 C-3.312 6.75 -3.312 6.75 -1.398 6.262 C0.623 6.022 2.656 5.881 4.688 5.75 C4.028 6.389 3.367 7.029 2.688 7.688 C0.688 9.75 0.688 9.75 0.688 10.75 C0.688 11.41 0.688 12.07 0.688 12.75 C-0.633 12.75 -1.953 12.75 -3.312 12.75 C-3.312 13.41 -3.312 14.07 -3.312 14.75 C-3.972 14.75 -4.633 14.75 -5.312 14.75 C-5.312 15.74 -5.312 16.73 -5.312 17.75 C-5.972 17.75 -6.633 17.75 -7.312 17.75 C-7.312 14.78 -7.312 11.81 -7.312 8.75 C-7.972 8.75 -8.633 8.75 -9.312 8.75 C-7.925 4.21 -5.37 -0.581 0 0 Z " fill="#FA98B7" transform="translate(47.3125,48.25)"/>
<path d="M0 0 C2 1 2 1 3 3 C1.35 3.495 1.35 3.495 -7 6 C-7.061 7.23 -7.121 8.46 -7.184 9.727 C-7.268 11.359 -7.353 12.992 -7.438 14.625 C-7.457 15.029 -7.457 15.029 -7.557 17.074 C-7.788 21.452 -8.169 25.685 -9 30 C-10.619 27.428 -11.044 26.323 -10.625 23.25 C-10.419 22.507 -10.213 21.765 -10 21 C-10.66 20.67 -11.32 20.34 -12 20 C-12.099 16.518 -11.935 13.368 -11 10 C-10.34 9.67 -9.68 9.34 -9 9 C-9 8.34 -9 7.68 -9 7 C-9.66 6.67 -10.32 6.34 -11 6 C-10.34 5.34 -9.68 4.68 -9 4 C-7.68 4 -6.36 4 -5 4 C-5 3.34 -5 2.68 -5 2 C-2.625 0.938 -2.625 0.938 0 0 Z " fill="#EF5C85" transform="translate(94,143)"/>
<path d="M0 0 C-1.288 0.839 -2.581 1.671 -3.875 2.5 C-4.594 2.964 -5.314 3.428 -6.055 3.906 C-8 5 -8 5 -10 5 C-11.938 5.188 -11.938 5.188 -14 6 C-15.03 7.648 -16.031 9.315 -17 11 C-17.99 11.33 -18.98 11.66 -20 12 C-19.287 7.723 -18.592 4.39 -15.242 1.465 C-12.768 -0.152 -10.827 -0.742 -7.938 -1.312 C-7.08 -1.494 -6.223 -1.676 -5.34 -1.863 C-3 -2 -3 -2 0 0 Z " fill="#FB95B8" transform="translate(148,51)"/>
<path d="M0 0 C0.33 1.32 0.66 2.64 1 4 C-3.625 8 -3.625 8 -7 8 C-7 7.34 -7 6.68 -7 6 C-6.216 5.752 -5.433 5.505 -4.625 5.25 C-1.677 3.846 -1.098 2.993 0 0 Z M-39 3 C-37.519 3.281 -36.04 3.575 -34.562 3.875 C-34.151 3.956 -34.151 3.956 -32.066 4.367 C-31.384 4.576 -30.703 4.785 -30 5 C-29.67 5.66 -29.34 6.32 -29 7 C-26.201 7.967 -23.615 8.119 -20.672 8.098 C-19.873 8.094 -19.073 8.091 -18.25 8.088 C-17.425 8.08 -16.6 8.071 -15.75 8.062 C-14.91 8.058 -14.069 8.053 -13.203 8.049 C-11.135 8.037 -9.068 8.019 -7 8 C-9.395 10.395 -9.946 10.256 -13.211 10.266 C-14.044 10.268 -14.876 10.271 -15.734 10.273 C-16.606 10.266 -17.477 10.258 -18.375 10.25 C-19.239 10.258 -20.102 10.265 -20.992 10.273 C-21.828 10.271 -22.663 10.268 -23.523 10.266 C-24.286 10.263 -25.048 10.261 -25.833 10.259 C-28.282 9.966 -29.841 9.164 -32 8 C-34.324 7.303 -36.657 6.631 -39 6 C-39 5.01 -39 4.02 -39 3 Z " fill="#D6BC98" transform="translate(88,210)"/>
<path d="M0 0 C3.43 1.419 5.201 2.729 7 6 C7.367 9.092 7.282 12.142 7.188 15.25 C7.174 16.09 7.16 16.931 7.146 17.797 C7.111 19.865 7.057 21.933 7 24 C6.34 24 5.68 24 5 24 C5.33 25.32 5.66 26.64 6 28 C5.01 27.34 4.02 26.68 3 26 C3.33 23.36 3.66 20.72 4 18 C3.34 17.67 2.68 17.34 2 17 C2.33 16.67 2.66 16.34 3 16 C3.152 14.067 3.222 12.127 3.25 10.188 C3.276 9.129 3.302 8.071 3.328 6.98 C2.968 3.706 2.199 2.39 0 0 Z " fill="#F26F8B" transform="translate(165,49)"/>
<path d="M0 0 C10.56 0 21.12 0 32 0 C32.165 0.495 32.165 0.495 33 3 C21.78 3 10.56 3 -1 3 C-0.67 2.01 -0.34 1.02 0 0 Z " fill="#8E3237" transform="translate(90,152)"/>
<path d="M0 0 C0.66 0.33 1.32 0.66 2 1 C2.117 4.375 2.187 7.749 2.25 11.125 C2.284 12.076 2.317 13.028 2.352 14.008 C2.435 20.029 1.954 23.377 -2 28 C-3.5 23.5 -2.448 20.245 -0.875 15.875 C0 13 0 13 -1 10 C-0.402 7.648 0.259 5.311 1 3 C0.34 2.67 -0.32 2.34 -1 2 C-0.67 1.34 -0.34 0.68 0 0 Z " fill="#F4678D" transform="translate(83,173)"/>
<path d="M0 0 C0.66 0 1.32 0 2 0 C1.707 1.953 1.414 3.906 1.121 5.859 C1 8 1 8 1.514 9.863 C2.048 12.212 1.95 13.943 1.66 16.328 C1.567 17.127 1.473 17.927 1.377 18.75 C1.325 19.162 1.325 19.162 1.062 21.25 C0.963 22.09 0.863 22.931 0.76 23.797 C0.513 25.865 0.257 27.933 0 30 C-0.33 30 -0.66 30 -1 30 C-1.025 25.888 -1.043 21.777 -1.055 17.665 C-1.06 16.265 -1.067 14.865 -1.075 13.466 C-1.088 11.458 -1.093 9.449 -1.098 7.441 C-1.103 6.232 -1.108 5.022 -1.114 3.776 C-1 1 -1 1 0 0 Z " fill="#F2DDC0" transform="translate(180,154)"/>
<path d="M0 0 C0.33 0 0.66 0 1 0 C1.049 1.002 1.098 2.003 1.148 3.035 C1.224 4.378 1.299 5.72 1.375 7.062 C1.445 8.373 1.514 9.684 1.586 11.035 C1.99 14.906 2.881 18.284 4 22 C4.125 25.438 4.125 25.438 4 28 C2.68 27.34 1.36 26.68 0 26 C0 17.42 0 8.84 0 0 Z " fill="#DAB493" transform="translate(89,77)"/>
<path d="M0 0 C0.33 0 0.66 0 1 0 C1.025 3.984 1.043 7.967 1.055 11.951 C1.062 13.963 1.075 15.976 1.088 17.988 C1.104 24.422 1.03 30.644 0 37 C-0.33 37 -0.66 37 -1 37 C-1.7 30.129 -2.198 23.564 -1.324 16.699 C-0.912 13.264 -0.676 9.827 -0.438 6.375 C-0.354 5.166 -0.27 3.957 -0.184 2.711 C-0.123 1.816 -0.062 0.922 0 0 Z " fill="#E75276" transform="translate(86,149)"/>
<path d="M0 0 C0.33 0 0.66 0 1 0 C1 5.94 1 11.88 1 18 C-0.65 17.67 -2.3 17.34 -4 17 C-3.34 16.01 -2.68 15.02 -2 14 C-2.99 14 -3.98 14 -5 14 C-4.558 11.523 -4.091 10.113 -2.5 8.125 C-0.622 5.464 -0.364 3.2 0 0 Z " fill="#F977A0" transform="translate(83,64)"/>
<path d="M0 0 C0.757 0.01 1.515 0.019 2.295 0.029 C3.081 0.054 3.866 0.08 4.676 0.105 C5.074 0.112 5.074 0.112 7.092 0.146 C9.058 0.182 11.023 0.236 12.988 0.293 C12.658 1.283 12.328 2.273 11.988 3.293 C11.203 3.209 10.418 3.125 9.609 3.039 C3.842 2.48 -1.323 2.129 -7.012 3.293 C-4.748 0.608 -3.506 -0.079 0 0 Z M-9.012 3.293 C-8.352 3.623 -7.692 3.953 -7.012 4.293 C-8.662 5.613 -10.312 6.933 -12.012 8.293 C-10.137 4.418 -10.137 4.418 -9.012 3.293 Z " fill="#E9CBAE" transform="translate(109.01171875,162.70703125)"/>
<path d="M0 0 C1.98 0 3.96 0 6 0 C6.33 0.66 6.66 1.32 7 2 C8.32 2 9.64 2 11 2 C11.66 1.34 12.32 0.68 13 0 C13 0.66 13 1.32 13 2 C14.114 1.794 15.227 1.588 16.375 1.375 C16.973 1.313 16.973 1.313 20 1 C22 3 22 3 22 5 C19.083 4.886 16.167 4.759 13.25 4.625 C12.425 4.594 11.6 4.563 10.75 4.531 C9.951 4.493 9.152 4.454 8.328 4.414 C7.595 4.383 6.862 4.351 6.106 4.319 C3.751 3.962 2.065 3.163 0 2 C0 1.34 0 0.68 0 0 Z " fill="#F76F98" transform="translate(43,201)"/>
<path d="M0 0 C1.133 3.399 0.544 4.538 -0.484 7.824 C-1.549 12.314 -1.442 16.968 -1.562 21.562 C-1.928 33.818 -1.928 33.818 -3 39 C-3.33 39 -3.66 39 -4 39 C-3.881 34.874 -3.756 30.748 -3.628 26.622 C-3.585 25.222 -3.543 23.821 -3.503 22.421 C-3.042 6.464 -3.042 6.464 -2 1 C-1.34 0.67 -0.68 0.34 0 0 Z " fill="#E8CCAB" transform="translate(96,171)"/>
<path d="M0 0 C0.66 0.33 1.32 0.66 2 1 C1.34 1.66 0.68 2.32 0 3 C-0.33 3.66 -0.66 4.32 -1 5 C-3.322 5.407 -5.657 5.744 -8 6 C-8 5.67 -8 5.34 -8 5 C-14.27 4.67 -20.54 4.34 -27 4 C-27 3.67 -27 3.34 -27 3 C-26.395 2.98 -25.791 2.96 -25.167 2.94 C-22.403 2.844 -19.639 2.735 -16.875 2.625 C-16.399 2.61 -16.399 2.61 -13.992 2.531 C-8.927 2.32 -4.799 1.763 0 0 Z " fill="#B69070" transform="translate(81,211)"/>
<path d="M0 0 C0.513 0.009 0.513 0.009 3.111 0.055 C5.638 0.102 8.162 0.167 10.688 0.25 C10.688 0.91 10.688 1.57 10.688 2.25 C10.118 2.229 9.549 2.208 8.963 2.187 C6.35 2.103 3.738 2.051 1.125 2 C0.23 1.966 -0.666 1.933 -1.588 1.898 C-7.742 1.808 -11.246 2.72 -16.312 6.25 C-16.312 4.25 -16.312 4.25 -14.52 2.141 C-9.756 -0.667 -5.418 -0.18 0 0 Z " fill="#CD9F80" transform="translate(111.3125,157.75)"/>
<path d="M0 0 C4.346 2.34 7.557 4.438 11 8 C12.318 8.697 13.65 9.368 15 10 C10.27 9.884 6.266 9.681 2.438 6.688 C0 4 0 4 0 0 Z " fill="#E6D1B0" transform="translate(128,209)"/>
<path d="M0 0 C1.062 1.875 1.062 1.875 2 4 C1.67 4.66 1.34 5.32 1 6 C1.165 6.784 1.33 7.567 1.5 8.375 C2.007 11.038 1.844 12.467 1 15 C0.01 15 -0.98 15 -2 15 C-2.054 13.063 -2.093 11.125 -2.125 9.188 C-2.148 8.109 -2.171 7.03 -2.195 5.918 C-2 3 -2 3 0 0 Z " fill="#FC92B4" transform="translate(128,68)"/>
<path d="M0 0 C0.779 0.057 1.558 0.113 2.361 0.172 C4.263 0.312 6.163 0.467 8.062 0.625 C8.062 0.955 8.062 1.285 8.062 1.625 C2.123 1.955 -3.817 2.285 -9.938 2.625 C-10.267 3.285 -10.597 3.945 -10.938 4.625 C-13.578 4.295 -16.218 3.965 -18.938 3.625 C-12.793 -0.472 -7.073 -0.606 0 0 Z " fill="#D8446B" transform="translate(105.9375,145.375)"/>
<path d="M0 0 C0.66 0 1.32 0 2 0 C2.196 2.375 2.382 4.749 2.562 7.125 C2.619 7.79 2.675 8.455 2.732 9.141 C3.036 13.273 2.852 16.947 2 21 C0.381 18.428 -0.044 17.323 0.375 14.25 C0.581 13.507 0.787 12.765 1 12 C0.34 11.67 -0.32 11.34 -1 11 C-1.1 7.504 -0.758 4.411 0 1 C0 0.67 0 0.34 0 0 Z " fill="#F3638D" transform="translate(83,152)"/>
<path d="M0 0 C4.29 0.165 4.29 0.165 26 1 C26 1.33 26 1.66 26 2 C22.417 2.197 18.834 2.381 15.25 2.562 C14.234 2.619 13.218 2.675 12.172 2.732 C11.682 2.757 11.682 2.757 9.203 2.879 C8.302 2.926 7.402 2.973 6.474 3.022 C4.125 3.001 2.238 2.678 0 2 C0 1.34 0 0.68 0 0 Z " fill="#D85774" transform="translate(46,206)"/>
<path d="M0 0 C0.485 0.01 0.485 0.01 2.938 0.062 C1.938 2.062 0.938 4.062 -0.062 6.062 C-1.052 6.062 -2.043 6.062 -3.062 6.062 C-3.392 7.053 -3.722 8.042 -4.062 9.062 C-4.16 2.91 -4.16 2.91 -4.062 1.062 C-3.062 0.062 -3.062 0.062 0 0 Z " fill="#A96E55" transform="translate(93.0625,153.9375)"/>
<path d="M0 0 C1.548 4.644 1.496 9.325 0 14 C-0.66 14 -1.32 14 -2 14 C-2 13.34 -2 12.68 -2 12 C-2.66 11.67 -3.32 11.34 -4 11 C-3.34 10.34 -2.68 9.68 -2 9 C-1.875 6.375 -1.875 6.375 -2 4 C-2.66 3.67 -3.32 3.34 -4 3 C-2.68 2.01 -1.36 1.02 0 0 Z " fill="#F87399" transform="translate(169,86)"/>
<path d="M0 0 C0.66 0.66 1.32 1.32 2 2 C-1.674 4.526 -4.072 5.368 -8.52 5.293 C-9.541 5.283 -10.563 5.274 -11.615 5.264 C-12.67 5.239 -13.725 5.213 -14.812 5.188 C-15.35 5.181 -15.35 5.181 -18.068 5.146 C-20.713 5.111 -23.356 5.062 -26 5 C-26 4.67 -26 4.34 -26 4 C-25.355 3.985 -24.709 3.971 -24.044 3.956 C-21.112 3.881 -18.181 3.785 -15.25 3.688 C-14.234 3.665 -13.218 3.642 -12.172 3.619 C-11.192 3.584 -10.213 3.548 -9.203 3.512 C-8.753 3.499 -8.753 3.499 -6.474 3.432 C-3.599 2.93 -2.172 1.904 0 0 Z " fill="#FC81AB" transform="translate(122,102)"/>
<path d="M0 0 C2.438 0.812 2.438 0.812 5 2 C5.33 2.99 5.66 3.98 6 5 C8.562 6.188 8.562 6.188 11 7 C11 7.66 11 8.32 11 9 C10.01 8.835 10.01 8.835 5 8 C4.67 7.01 4.34 6.02 4 5 C3.01 5 2.02 5 1 5 C0.67 3.35 0.34 1.7 0 0 Z " fill="#EAD6B6" transform="translate(44,211)"/>
<path d="M0 0 C3.161 1.37 3.993 1.989 6 5 C6.266 8.066 6.266 8.066 6.25 11.562 C6.253 12.141 6.253 12.141 6.266 15.066 C6 18 6 18 4 20 C4 19.34 4 18.68 4 18 C3.34 17.67 2.68 17.34 2 17 C2.33 16.67 2.66 16.34 3 16 C3.152 14.067 3.222 12.127 3.25 10.188 C3.276 9.129 3.302 8.071 3.328 6.98 C2.968 3.706 2.199 2.39 0 0 Z " fill="#F87496" transform="translate(165,49)"/>
<path d="M0 0 C-3.117 3.117 -5.422 2.981 -9.812 3.125 C-13.619 3.082 -17.248 2.625 -21 2 C-21 1.67 -21 1.34 -21 1 C-13.972 0.146 -7.077 -0.121 0 0 Z " fill="#D8BF9A" transform="translate(165,218)"/>
<path d="M0 0 C0.33 0 0.66 0 1 0 C1.63 8.193 1.63 8.193 -1 11.562 C-1.33 11.8 -1.33 11.8 -3 13 C-2.886 11.395 -2.758 9.791 -2.625 8.188 C-2.555 7.294 -2.486 6.401 -2.414 5.48 C-2 3 -2 3 0 0 Z " fill="#F86C95" transform="translate(83,188)"/>
<path d="M0 0 C0.887 0.103 1.774 0.206 2.688 0.312 C0.755 2.337 -0.944 3.734 -3.312 5.312 C-4.303 5.312 -5.292 5.312 -6.312 5.312 C-6.642 6.302 -6.972 7.293 -7.312 8.312 C-7.642 7.323 -7.972 6.332 -8.312 5.312 C-4.128 0.389 -4.128 0.389 0 0 Z " fill="#FC8AAE" transform="translate(50.3125,68.6875)"/>
<path d="M0 0 C0.66 0 1.32 0 2 0 C2 3.63 2 7.26 2 11 C1.01 11.33 0.02 11.66 -1 12 C-1 3.625 -1 3.625 0 0 Z " fill="#F77095" transform="translate(168,109)"/>
<path d="M0 0 C0.66 0.33 1.32 0.66 2 1 C-0.107 6.997 -0.107 6.997 -3 9 C-5.188 8.688 -5.188 8.688 -7 8 C-6.216 7.237 -5.433 6.474 -4.625 5.688 C-2 3 -2 3 0 0 Z " fill="#C6A27C" transform="translate(86,206)"/>
<path d="M0 0 C1.244 2.488 0.926 3.706 0.562 6.438 C0.227 9.016 0 11.392 0 14 C-0.33 14.165 -0.33 14.165 -2 15 C-2.054 13.25 -2.093 11.5 -2.125 9.75 C-2.137 9.263 -2.137 9.263 -2.195 6.797 C-1.999 3.98 -1.446 2.391 0 0 Z " fill="#EED9B9" transform="translate(180,186)"/>
<path d="M0 0 C0.33 0 0.66 0 1 0 C1.333 4.245 1.439 6.355 -1 9.938 C-1.66 10.618 -2.32 11.299 -3 12 C-3.66 11.67 -4.32 11.34 -5 11 C-4.546 10.484 -4.093 9.969 -3.625 9.438 C-1.618 6.427 -0.873 3.491 0 0 Z " fill="#DE4B6F" transform="translate(85,193)"/>
<path d="M0 0 C0.66 0.99 1.32 1.98 2 3 C-2.395 7.004 -2.395 7.004 -4 8 C-4.99 7.67 -5.98 7.34 -7 7 C-3.25 4 -3.25 4 -1 4 C-0.67 2.68 -0.34 1.36 0 0 Z " fill="#D25868" transform="translate(168,203)"/>
<path d="M0 0 C0.99 0.33 1.98 0.66 3 1 C2.67 2.65 2.34 4.3 2 6 C1.34 6 0.68 6 0 6 C-0.382 4.344 -0.714 2.675 -1 1 C-0.67 0.67 -0.34 0.34 0 0 Z " fill="#FC8FB3" transform="translate(127,165)"/>
<path d="M0 0 C0.495 0.33 0.495 0.33 3 2 C2.67 4.31 2.34 6.62 2 9 C-0.578 6.422 -0.621 4.56 -1 1 C-0.67 0.67 -0.34 0.34 0 0 Z " fill="#F4DFC1" transform="translate(89,59)"/>
<path d="M0 0 C0.66 0.33 1.32 0.66 2 1 C0.384 3.041 -1.286 5.041 -3 7 C-3.66 7 -4.32 7 -5 7 C-3.707 4.116 -2.341 2.128 0 0 Z " fill="#F96F98" transform="translate(166,196)"/>
<path d="M0 0 C3.96 0 7.92 0 12 0 C12.33 0.99 12.66 1.98 13 3 C8.71 2.34 4.42 1.68 0 1 C0 0.67 0 0.34 0 0 Z " fill="#8E232F" transform="translate(110,152)"/>
<path d="M0 0 C0.66 0 1.32 0 2 0 C2.33 2.31 2.66 4.62 3 7 C2.01 7.33 1.02 7.66 0 8 C-0.8 4.713 -1.097 3.29 0 0 Z " fill="#EC7D8E" transform="translate(86,58)"/>
</svg>
