<?xml version="1.0" encoding="UTF-8"?>
<!-- Generator: visioncortex VTracer 0.6.12 -->
<svg version="1.1" xmlns="http://www.w3.org/2000/svg" width="207" height="235">
<path d="M0 0 C68.31 0 136.62 0 207 0 C207 77.55 207 155.1 207 235 C138.69 235 70.38 235 0 235 C0 157.45 0 79.9 0 0 Z " fill="#FBF4DF" transform="translate(0,0)"/>
<path d="M0 0 C1.16 -0.029 2.319 -0.058 3.514 -0.088 C11.694 -0.148 17.209 0.502 23.296 6.155 C28.79 11.99 32.975 18.652 37.188 25.438 C38.591 27.666 39.996 29.894 41.402 32.121 C42.074 33.188 42.745 34.255 43.437 35.355 C46.501 40.187 49.692 44.929 52.888 49.674 C55.338 53.333 57.723 57.031 60.098 60.738 C60.302 61.057 60.302 61.057 61.336 62.669 C62.329 64.216 63.321 65.764 64.312 67.312 C64.315 67.003 64.315 67.003 64.33 65.437 C64.394 58.963 64.479 52.49 64.575 46.017 C64.608 43.605 64.636 41.193 64.659 38.781 C64.693 35.303 64.745 31.825 64.801 28.348 C64.807 27.279 64.814 26.209 64.82 25.108 C64.949 18.464 65.194 11.087 69.622 5.727 C75.209 0.701 81.384 -0.056 88.625 0 C89.001 0.003 89.001 0.003 90.903 0.017 C97.103 0.153 102.958 0.491 107.887 4.637 C112.265 9.416 113.558 14.773 113.58 21.092 C113.584 21.657 113.584 21.657 113.606 24.515 C113.605 25.128 113.605 25.128 113.603 28.228 C113.61 29.529 113.616 30.831 113.623 32.172 C113.641 35.732 113.646 39.292 113.647 42.852 C113.648 45.08 113.653 47.309 113.658 49.537 C113.676 57.323 113.685 65.108 113.683 72.894 C113.682 80.132 113.703 87.37 113.735 94.608 C113.761 100.837 113.771 107.067 113.77 113.296 C113.77 117.01 113.775 120.723 113.797 124.437 C113.82 128.585 113.81 132.732 113.798 136.88 C113.81 138.097 113.821 139.314 113.832 140.568 C113.78 147.684 113.154 154.146 109.312 160.312 C102.561 166.045 96.174 166.541 87.625 166.625 C86.656 166.654 85.688 166.683 84.689 166.713 C77.35 166.777 72.092 165.766 66.581 160.73 C61.559 155.316 57.579 149.043 53.533 142.887 C52.386 141.142 51.23 139.401 50.072 137.662 C45.581 130.891 41.251 124.039 37.037 117.092 C34.939 113.71 32.687 110.504 30.312 107.312 C29.653 107.972 28.993 108.632 28.312 109.312 C26.993 109.312 25.672 109.312 24.312 109.312 C24.303 110.603 24.294 111.894 24.284 113.225 C24.244 118.041 24.178 122.856 24.105 127.672 C24.077 129.751 24.056 131.831 24.042 133.91 C24.02 136.909 23.973 139.907 23.922 142.906 C23.921 143.367 23.921 143.367 23.918 145.698 C23.784 151.7 22.788 156.331 19.312 161.312 C14.423 165.921 8.614 166.917 2.092 166.898 C1.154 166.87 0.216 166.842 -0.75 166.812 C-1.692 166.815 -2.633 166.818 -3.604 166.82 C-9.824 166.734 -16.32 166.287 -21.211 161.967 C-25.427 157.196 -26.934 152.796 -26.955 146.526 C-26.963 145.37 -26.972 144.213 -26.981 143.022 C-26.98 141.762 -26.979 140.502 -26.978 139.204 C-26.984 137.857 -26.991 136.509 -26.998 135.162 C-27.016 131.509 -27.021 127.856 -27.022 124.203 C-27.023 121.918 -27.028 119.633 -27.033 117.349 C-27.052 109.371 -27.06 101.393 -27.058 93.415 C-27.057 85.99 -27.078 78.565 -27.11 71.141 C-27.136 64.756 -27.146 58.373 -27.145 51.988 C-27.145 48.18 -27.15 44.371 -27.172 40.563 C-27.191 36.978 -27.191 33.394 -27.177 29.809 C-27.173 27.876 -27.19 25.943 -27.207 24.01 C-27.152 16.298 -26.542 10.216 -20.871 4.473 C-20.295 4.11 -19.719 3.748 -19.125 3.375 C-18.836 3.185 -18.836 3.185 -17.371 2.223 C-12.002 -0.68 -5.932 0.049 0 0 Z " fill="#418FE9" transform="translate(62.6875,33.6875)"/>
<path d="M0 0 C0.66 0 1.32 0 2 0 C3.515 4.065 4.253 7.446 4.267 11.779 C4.272 12.344 4.272 12.344 4.293 15.203 C4.293 15.815 4.293 15.815 4.291 18.915 C4.297 20.217 4.304 21.518 4.311 22.859 C4.329 26.419 4.333 29.979 4.335 33.539 C4.336 35.768 4.34 37.996 4.346 40.224 C4.364 48.01 4.372 55.796 4.371 63.582 C4.369 70.82 4.39 78.057 4.422 85.295 C4.448 91.525 4.459 97.754 4.458 103.984 C4.457 107.697 4.463 111.411 4.484 115.125 C4.507 119.272 4.498 123.42 4.486 127.567 C4.497 128.784 4.508 130.001 4.52 131.255 C4.468 138.372 3.841 144.833 0 151 C-6.751 156.732 -13.138 157.229 -21.688 157.312 C-22.656 157.342 -23.625 157.371 -24.623 157.4 C-31.962 157.465 -37.22 156.454 -42.731 151.418 C-47.753 146.003 -51.734 139.731 -55.779 133.575 C-56.927 131.829 -58.083 130.089 -59.24 128.35 C-63.731 121.579 -68.062 114.726 -72.276 107.779 C-74.374 104.398 -76.625 101.191 -79 98 C-79.66 98.66 -80.32 99.32 -81 100 C-82.32 100 -83.64 100 -85 100 C-85.009 101.291 -85.019 102.582 -85.028 103.912 C-85.068 108.728 -85.134 113.544 -85.208 118.359 C-85.236 120.439 -85.257 122.518 -85.271 124.598 C-85.293 127.597 -85.339 130.595 -85.391 133.594 C-85.391 134.054 -85.391 134.054 -85.394 136.385 C-85.529 142.388 -86.524 147.018 -90 152 C-94.889 156.609 -100.699 157.604 -107.221 157.586 C-108.158 157.558 -109.096 157.529 -110.062 157.5 C-111.004 157.503 -111.946 157.505 -112.916 157.508 C-119.136 157.421 -125.632 156.974 -130.523 152.655 C-134.655 147.979 -136.252 143.62 -136.241 137.463 C-136.243 136.363 -136.246 135.262 -136.249 134.128 C-136.242 132.93 -136.234 131.733 -136.227 130.499 C-136.227 129.23 -136.228 127.961 -136.228 126.654 C-136.229 123.184 -136.217 119.713 -136.203 116.242 C-136.19 112.612 -136.189 108.982 -136.187 105.352 C-136.181 98.481 -136.164 91.611 -136.144 84.74 C-136.122 76.917 -136.111 69.093 -136.101 61.27 C-136.08 45.18 -136.045 29.09 -136 13 C-135.67 13 -135.34 13 -135 13 C-134.67 54.91 -134.34 96.82 -134 140 C-132.35 140.33 -130.7 140.66 -129 141 C-127.313 143.062 -127.313 143.062 -126 145 C-125.34 145 -124.68 145 -124 145 C-124 145.66 -124 146.32 -124 147 C-123.64 146.912 -123.64 146.912 -121.816 146.465 C-118.934 145.989 -116.814 146.15 -113.938 146.562 C-107.818 147.212 -101.93 146.696 -96 145 C-95.67 144.34 -95.34 143.68 -95 143 C-94.34 143 -93.68 143 -93 143 C-91.277 137.482 -91.814 131.561 -91.815 125.838 C-91.813 123.705 -91.794 121.572 -91.775 119.439 C-91.772 118.068 -91.77 116.696 -91.77 115.324 C-91.765 114.088 -91.761 112.851 -91.757 111.577 C-92.019 107.719 -92.813 104.663 -94 101 C-93.34 100.34 -92.68 99.68 -92 99 C-92.375 96.375 -92.375 96.375 -93 94 C-92.34 94 -91.68 94 -91 94 C-91.023 92.94 -91.046 91.881 -91.07 90.789 C-91.089 89.401 -91.107 88.013 -91.125 86.625 C-91.142 85.926 -91.159 85.228 -91.176 84.508 C-91.193 82.671 -91.103 80.834 -91 79 C-90.34 78.34 -89.68 77.68 -89 77 C-87.062 77.75 -87.062 77.75 -85 79 C-84.25 81.125 -84.25 81.125 -84 83 C-83.01 83 -82.02 83 -81 83 C-81 83.66 -81 84.32 -81 85 C-80.34 85 -79.68 85 -79 85 C-79 86.32 -79 87.64 -79 89 C-72.25 89.125 -72.25 89.125 -70 88 C-70 88.66 -70 89.32 -70 90 C-69.34 90.33 -68.68 90.66 -68 91 C-68.66 91 -69.32 91 -70 91 C-71.125 96.625 -71.125 96.625 -70 100 C-70.33 100.66 -70.66 101.32 -71 102 C-69.68 101.67 -68.36 101.34 -67 101 C-66.67 101.66 -66.34 102.32 -66 103 C-64.021 103.727 -62.02 104.398 -60 105 C-60.165 105.495 -60.165 105.495 -61 108 C-57.125 106.25 -57.125 106.25 -56 104 C-55.34 104.66 -54.68 105.32 -54 106 C-55.98 107.32 -57.96 108.64 -60 110 C-59.34 110.66 -58.68 111.32 -58 112 C-58.33 112.33 -58.66 112.66 -59 113 C-58.34 113.33 -57.68 113.66 -57 114 C-56.773 113.402 -56.546 112.804 -56.312 112.188 C-55 110 -55 110 -52.438 108.5 C-50 107 -50 107 -49.188 104.812 C-49.126 104.214 -49.064 103.616 -49 103 C-49.66 103 -50.32 103 -51 103 C-51 101 -51 101 -49 99 C-49.66 99 -50.32 99 -51 99 C-50.438 97.188 -50.438 97.188 -49 95 C-46.667 94 -44.333 93 -42 92 C-40.625 89.938 -40.625 89.938 -40 88 C-39.67 87.34 -39.34 86.68 -39 86 C-41.025 87.933 -42.421 89.632 -44 92 C-44.66 91.67 -45.32 91.34 -46 91 C-46 90.01 -46 89.02 -46 88 C-46.66 88 -47.32 88 -48 88 C-48 87.34 -48 86.68 -48 86 C-47.34 86.165 -47.34 86.165 -44 87 C-43.835 86.505 -43.835 86.505 -43 84 C-35.25 83.875 -35.25 83.875 -33 85 C-33.33 84.34 -33.66 83.68 -34 83 C-35.65 83 -37.3 83 -39 83 C-38.835 82.34 -38.835 82.34 -38 79 C-37.608 79.031 -37.608 79.031 -35.625 79.188 C-34.759 79.126 -33.892 79.064 -33 79 C-32.67 78.505 -32.67 78.505 -31 76 C-30.34 76.33 -29.68 76.66 -29 77 C-29.33 77.33 -29.66 77.66 -30 78 C-29.34 78.33 -29.34 78.33 -26 80 C-26.33 79.01 -26.66 78.02 -27 77 C-26.67 76.34 -26.34 75.68 -26 75 C-24.35 75 -22.7 75 -21 75 C-21.573 72.133 -21.861 71.139 -24 69 C-22.68 67.02 -21.36 65.04 -20 63 C-19.505 63.165 -19.505 63.165 -17 64 C-17.371 64.743 -17.743 65.485 -18.125 66.25 C-19 69 -19 69 -18.125 71.312 C-17.754 71.869 -17.382 72.426 -17 73 C-16.34 73 -15.68 73 -15 73 C-15 72.34 -15 71.68 -15 71 C-15.33 70.67 -15.66 70.34 -16 70 C-15.67 69.505 -15.67 69.505 -14 67 C-14.351 66.443 -14.701 65.886 -15.062 65.312 C-16.261 62.356 -16.168 60.96 -15 58 C-12.135 56.451 -9.17 55.704 -6 55 C-5.67 55.66 -5.34 56.32 -5 57 C-4.34 56.67 -4.34 56.67 -1 55 C-1.084 54.397 -1.168 53.793 -1.254 53.172 C-1.305 52.772 -1.305 52.772 -1.562 50.75 C-1.667 49.961 -1.771 49.172 -1.879 48.359 C-2 46 -2 46 -1.516 44.299 C-0.804 41.127 -0.87 38.105 -0.867 34.855 C-0.866 34.167 -0.865 33.479 -0.864 32.771 C-0.864 31.317 -0.865 29.864 -0.87 28.411 C-0.875 26.205 -0.87 24 -0.863 21.795 C-0.864 20.378 -0.865 18.96 -0.867 17.543 C-0.868 16.904 -0.868 16.904 -0.871 13.669 C-1 10 -1 10 -1.633 6.216 C-2 3 -2 3 0 0 Z M-18 71 C-16 72 -16 72 -16 72 Z " fill="#3589E4" transform="translate(172,43)"/>
<path d="M0 0 C0.165 0.33 0.165 0.33 1 2 C3.063 2.625 3.063 2.625 5 3 C4.67 3.99 4.34 4.98 4 6 C3.34 6 2.68 6 2 6 C2 6.66 2 7.32 2 8 C3.65 7.67 5.3 7.34 7 7 C9.434 10.742 9.274 14.451 9.23 18.758 C9.23 19.502 9.23 20.246 9.229 21.013 C9.226 22.582 9.218 24.15 9.206 25.718 C9.188 28.123 9.185 30.528 9.186 32.934 C9.181 34.458 9.175 35.983 9.168 37.508 C9.167 38.229 9.166 38.949 9.165 39.692 C9.116 44.768 9.116 44.768 8 47 C8.248 47.928 8.495 48.856 8.75 49.812 C9 53 9 53 6.562 55.875 C5.717 56.576 4.871 57.278 4 58 C3.34 57.34 2.68 56.68 2 56 C1.051 56.33 0.103 56.66 -0.875 57 C-4 58 -4 58 -6 58 C-6.125 61.375 -6.125 61.375 -6 65 C-5.34 65.66 -4.68 66.32 -4 67 C-4.33 67.66 -4.66 68.32 -5 69 C-4.67 69.66 -4.34 70.32 -4 71 C-4.66 71 -5.32 71 -6 71 C-6 71.66 -6 72.32 -6 73 C-6.495 73.165 -6.495 73.165 -9 74 C-10.603 70.882 -11.19 69.61 -10.125 66.188 C-9.939 65.827 -9.939 65.827 -9 64 C-9.66 63.67 -10.32 63.34 -11 63 C-13 67.75 -13 67.75 -13 70 C-12.67 70.495 -12.67 70.495 -11 73 C-11.99 73.99 -12.98 74.98 -14 76 C-14.495 75.835 -14.495 75.835 -17 75 C-17 76.65 -17 78.3 -17 80 C-18.65 79.67 -20.3 79.34 -22 79 C-22 78.34 -22 77.68 -22 77 C-22.66 77.99 -23.32 78.98 -24 80 C-26.625 80.188 -26.625 80.188 -29 80 C-29.165 80.495 -29.165 80.495 -30 83 C-28.02 82.67 -26.04 82.34 -24 82 C-24 82.99 -24 83.98 -24 85 C-27.3 85 -30.6 85 -34 85 C-34.33 85.66 -34.66 86.32 -35 87 C-35.66 86.835 -35.66 86.835 -39 86 C-39 86.66 -39 87.32 -39 88 C-38.34 88 -37.68 88 -37 88 C-37 88.99 -37 89.98 -37 91 C-36.34 91 -35.68 91 -35 91 C-34.67 90.505 -34.67 90.505 -33 88 C-33.33 87.34 -33.66 86.68 -34 86 C-32.68 86 -31.36 86 -30 86 C-30.291 89.492 -30.755 90.762 -33.312 93.25 C-35.747 94.835 -37.264 95.34 -40 96 C-40.66 96.99 -41.32 97.98 -42 99 C-41.01 98.67 -40.02 98.34 -39 98 C-39.165 98.495 -39.165 98.495 -40 101 C-40.66 101 -41.32 101 -42 101 C-42 101.66 -42 102.32 -42 103 C-41.34 103 -40.68 103 -40 103 C-40.125 105.25 -40.125 105.25 -41 108 C-44 110.187 -44 110.187 -47 112 C-47.33 112.66 -47.66 113.32 -48 114 C-48.495 113.835 -48.495 113.835 -51 113 C-50.67 112.67 -50.34 112.34 -50 112 C-50.66 111.34 -51.32 110.68 -52 110 C-50.02 108.68 -48.04 107.36 -46 106 C-48.762 106 -49.893 107.314 -52 109 C-52.66 108.67 -53.32 108.34 -54 108 C-53.34 107.34 -52.68 106.68 -52 106 C-55.295 104.277 -58.331 102.706 -62 102 C-63.429 93.429 -63.429 93.429 -61 90 C-61.66 90 -62.32 90 -63 90 C-65.335 89.678 -67.668 89.345 -70 89 C-70 87.68 -70 86.36 -70 85 C-70.66 85 -71.32 85 -72 85 C-72 84.34 -72 83.68 -72 83 C-72.99 83 -73.98 83 -75 83 C-75.66 81.68 -76.32 80.36 -77 79 C-78.32 79 -79.64 79 -81 79 C-81.168 81.417 -81.335 83.833 -81.5 86.25 C-81.548 86.932 -81.595 87.614 -81.645 88.316 C-81.865 91.557 -82 94.749 -82 98 C-82.66 98.99 -83.32 99.98 -84 101 C-83.377 103.345 -82.703 105.677 -82 108 C-81.824 110.437 -81.739 112.881 -81.734 115.324 C-81.733 115.659 -81.733 115.659 -81.729 117.351 C-81.727 118.751 -81.731 120.152 -81.739 121.553 C-81.75 123.693 -81.739 125.831 -81.727 127.971 C-81.728 129.339 -81.73 130.706 -81.734 132.074 C-81.737 133.307 -81.739 134.541 -81.741 135.811 C-81.984 138.808 -82.422 140.486 -84 143 C-84.66 143 -85.32 143 -86 143 C-86.33 143.99 -86.66 144.98 -87 146 C-96.681 147.975 -105.244 147.998 -115 147 C-115 146.34 -115 145.68 -115 145 C-115.99 145.33 -116.98 145.66 -118 146 C-118.206 145.67 -118.206 145.67 -119.25 144 C-119.539 143.67 -119.539 143.67 -121 142 C-122.32 142 -123.64 142 -125 142 C-125.33 142 -125.66 142 -126 142 C-126 127.81 -126 113.62 -126 99 C-123.062 101.938 -123.532 105.172 -123.375 109.125 C-123.337 109.92 -123.299 110.715 -123.26 111.535 C-122.918 119.357 -122.904 127.173 -123 135 C-122.01 134.67 -121.02 134.34 -120 134 C-120.66 133.34 -121.32 132.68 -122 132 C-120.35 132 -118.7 132 -117 132 C-117 131.34 -117 130.68 -117 130 C-117.99 130 -118.98 130 -120 130 C-120.575 126.265 -121 122.787 -121 119 C-120.34 119 -119.68 119 -119 119 C-119 118.34 -119 117.68 -119 117 C-119.66 117 -120.32 117 -121 117 C-120.859 115.375 -120.712 113.75 -120.562 112.125 C-120.481 111.22 -120.4 110.315 -120.316 109.383 C-120 107 -120 107 -119 105 C-119.66 105 -120.32 105 -121 105 C-121 104.34 -121 103.68 -121 103 C-120.361 102.814 -119.721 102.629 -119.062 102.438 C-117 101 -117 101 -116.125 97.75 C-115.998 93.939 -116.551 91.494 -118 88 C-117.34 87.835 -117.34 87.835 -114 87 C-114.99 86.34 -115.98 85.68 -117 85 C-116.67 84.835 -116.67 84.835 -115 84 C-115.66 83.34 -116.32 82.68 -117 82 C-116.835 81.67 -116.835 81.67 -116 80 C-117.32 79.67 -118.64 79.34 -120 79 C-120.33 76.69 -120.66 74.38 -121 72 C-120.34 72 -119.68 72 -119 72 C-119 70.02 -119 68.04 -119 66 C-116.36 65.67 -113.72 65.34 -111 65 C-111.66 64.67 -112.32 64.34 -113 64 C-113 63.34 -113 62.68 -113 62 C-112.34 62 -111.68 62 -111 62 C-110.67 61.01 -110.34 60.02 -110 59 C-110.66 58.34 -111.32 57.68 -112 57 C-111.34 55.02 -110.68 53.04 -110 51 C-111.32 50.34 -112.64 49.68 -114 49 C-113.67 48.34 -113.34 47.68 -113 47 C-111.02 47.66 -109.04 48.32 -107 49 C-106.618 50.656 -106.286 52.325 -106 54 C-106.33 54.33 -106.66 54.66 -107 55 C-105.68 55.99 -104.36 56.98 -103 58 C-104.32 58 -105.64 58 -107 58 C-107 58.66 -107 59.32 -107 60 C-103.478 60.08 -100.38 60.04 -97 59 C-98.32 58.67 -99.64 58.34 -101 58 C-101 57.01 -101 56.02 -101 55 C-101.99 54.34 -102.98 53.68 -104 53 C-104 52.34 -104 51.68 -104 51 C-103.34 51 -102.68 51 -102 51 C-102 51.66 -102 52.32 -102 53 C-100.68 53 -99.36 53 -98 53 C-98.66 52.34 -99.32 51.68 -100 51 C-96.7 50.01 -93.4 49.02 -90 48 C-88.68 49.32 -87.36 50.64 -86 52 C-85.835 51.67 -85.835 51.67 -85 50 C-85.66 50 -86.32 50 -87 50 C-87.33 49.01 -87.66 48.02 -88 47 C-88.33 46.835 -88.33 46.835 -90 46 C-90 45.34 -90 44.68 -90 44 C-89.01 43.67 -88.02 43.34 -87 43 C-87.165 42.34 -87.165 42.34 -88 39 C-86.68 39.66 -85.36 40.32 -84 41 C-84.33 42.32 -84.66 43.64 -85 45 C-83.68 45.33 -82.36 45.66 -81 46 C-81.66 46.99 -82.32 47.98 -83 49 C-82.676 52.322 -82.392 53.608 -80 56 C-80.33 56.99 -80.66 57.98 -81 59 C-80.34 59.66 -79.68 60.32 -79 61 C-79.66 61 -80.32 61 -81 61 C-80.505 61.784 -80.01 62.567 -79.5 63.375 C-78 66 -78 66 -78 68 C-79.32 68 -80.64 68 -82 68 C-80.35 68.99 -78.7 69.98 -77 71 C-77.99 71.66 -78.98 72.32 -80 73 C-77.03 74.32 -74.06 75.64 -71 77 C-70.34 75.02 -69.68 73.04 -69 71 C-68.01 71 -67.02 71 -66 71 C-65.67 69.35 -65.34 67.7 -65 66 C-63.35 66 -61.7 66 -60 66 C-59.67 66.66 -59.34 67.32 -59 68 C-59.66 68.33 -59.66 68.33 -63 70 C-62.402 69.814 -61.804 69.629 -61.188 69.438 C-59 69 -59 69 -56 70 C-55.567 70.072 -55.567 70.072 -53.375 70.438 C-52.983 70.53 -52.983 70.53 -51 71 C-50.67 71.66 -50.34 72.32 -50 73 C-49.691 72.907 -49.691 72.907 -48.125 72.438 C-46 72 -46 72 -44 73 C-43.67 72.34 -43.67 72.34 -42 69 C-41.67 69.66 -41.34 70.32 -41 71 C-40.34 71 -39.68 71 -39 71 C-39 70.34 -39 69.68 -39 69 C-36.625 68.875 -36.625 68.875 -34 69 C-32 71 -32 71 -31 73 C-31.33 73.66 -31.66 74.32 -32 75 C-31.34 75 -30.68 75 -30 75 C-29.732 74.113 -29.464 73.226 -29.188 72.312 C-28 69 -28 69 -26.312 66.312 C-25.879 65.549 -25.446 64.786 -25 64 C-25.33 63.01 -25.66 62.02 -26 61 C-25.34 61 -24.68 61 -24 61 C-23.34 59.68 -22.68 58.36 -22 57 C-21.34 57 -20.68 57 -20 57 C-19.34 55.68 -18.68 54.36 -18 53 C-17.34 53 -16.68 53 -16 53 C-16 49 -16 49 -17.5 47 C-19 45 -19 45 -19 41 C-18.34 41 -17.68 41 -17 41 C-17 41.66 -17 42.32 -17 43 C-15 44 -15 44 -12 44 C-12.99 43.01 -13.98 42.02 -15 41 C-14.01 41 -13.02 41 -12 41 C-13 39 -13 39 -15 38 C-14.34 37.01 -13.68 36.02 -13 35 C-17.75 36.875 -17.75 36.875 -20 38 C-20 37.01 -20 36.02 -20 35 C-18.35 34.34 -16.7 33.68 -15 33 C-15.495 32.835 -15.495 32.835 -18 32 C-18.165 31.505 -18.165 31.505 -19 29 C-18.01 29 -17.02 29 -16 29 C-16.33 28.175 -16.33 28.175 -18 24 C-19.98 24.66 -21.96 25.32 -24 26 C-24.165 25.505 -24.165 25.505 -25 23 C-24.526 22.897 -24.526 22.897 -22.125 22.375 C-19 21 -19 21 -17.625 17.875 C-17.419 16.926 -17.213 15.977 -17 15 C-16.34 15 -15.68 15 -15 15 C-14.876 15.969 -14.752 16.939 -14.625 17.938 C-14.522 18.443 -14.522 18.443 -14 21 C-13.34 21.33 -12.68 21.66 -12 22 C-12.33 23.32 -12.66 24.64 -13 26 C-8.25 27 -8.25 27 -6 27 C-6 26.34 -6 25.68 -6 25 C-4.68 24.67 -3.36 24.34 -2 24 C-2 23.01 -2 22.02 -2 21 C-2 20 -2 19 -2 18 C-0.35 17.67 1.3 17.34 3 17 C2.402 16.856 1.804 16.711 1.188 16.562 C-0.562 16.113 -2.287 15.571 -4 15 C-3.34 14.34 -2.68 13.68 -2 13 C-2.66 13 -3.32 13 -4 13 C-4 12.34 -4 11.68 -4 11 C-4.33 10.835 -4.33 10.835 -6 10 C-5.34 10 -4.68 10 -4 10 C-4 9.34 -4 8.68 -4 8 C-5.32 7.67 -6.64 7.34 -8 7 C-6.768 3.303 -4.206 0 0 0 Z M-104 61 C-104 61.66 -104 62.32 -104 63 C-103.01 62.67 -102.02 62.34 -101 62 C-101.99 61.67 -102.98 61.34 -104 61 Z " fill="#3A8BE6" transform="translate(163,43)"/>
<path d="M0 0 C2.31 0 4.62 0 7 0 C7 75.24 7 150.48 7 228 C71.68 228 136.36 228 203 228 C202.67 199.29 202.34 170.58 202 141 C201.924 124.7 201.853 108.403 201.873 92.104 C201.876 88.186 201.871 84.269 201.866 80.352 C201.84 53.555 202.251 26.787 203 0 C204.32 0 205.64 0 207 0 C207 77.55 207 155.1 207 235 C138.69 235 70.38 235 0 235 C0 157.45 0 79.9 0 0 Z " fill="#FDFCF8" transform="translate(0,0)"/>
<path d="M0 0 C0.66 0 1.32 0 2 0 C3.515 4.065 4.253 7.446 4.267 11.779 C4.272 12.344 4.272 12.344 4.293 15.203 C4.293 15.815 4.293 15.815 4.291 18.915 C4.297 20.217 4.304 21.518 4.311 22.859 C4.329 26.419 4.333 29.979 4.335 33.539 C4.336 35.768 4.34 37.996 4.346 40.224 C4.364 48.01 4.372 55.796 4.371 63.582 C4.369 70.82 4.39 78.057 4.422 85.295 C4.448 91.525 4.459 97.754 4.458 103.984 C4.457 107.697 4.463 111.411 4.484 115.125 C4.507 119.272 4.498 123.42 4.486 127.567 C4.497 128.784 4.508 130.001 4.52 131.255 C4.468 138.372 3.841 144.833 0 151 C-6.751 156.732 -13.138 157.229 -21.688 157.312 C-22.656 157.342 -23.625 157.371 -24.623 157.4 C-31.962 157.465 -37.22 156.454 -42.731 151.418 C-47.753 146.003 -51.734 139.731 -55.779 133.575 C-56.927 131.829 -58.083 130.089 -59.24 128.35 C-63.731 121.579 -68.062 114.726 -72.276 107.779 C-74.374 104.398 -76.625 101.191 -79 98 C-79.66 98.66 -80.32 99.32 -81 100 C-82.32 100 -83.64 100 -85 100 C-85.009 101.291 -85.019 102.582 -85.028 103.912 C-85.068 108.728 -85.134 113.544 -85.208 118.359 C-85.236 120.439 -85.257 122.518 -85.271 124.598 C-85.293 127.597 -85.339 130.595 -85.391 133.594 C-85.391 134.054 -85.391 134.054 -85.394 136.385 C-85.529 142.388 -86.524 147.018 -90 152 C-94.889 156.609 -100.699 157.604 -107.221 157.586 C-108.158 157.558 -109.096 157.529 -110.062 157.5 C-111.004 157.503 -111.946 157.505 -112.916 157.508 C-119.136 157.421 -125.632 156.974 -130.523 152.655 C-134.655 147.979 -136.252 143.62 -136.241 137.463 C-136.243 136.363 -136.246 135.262 -136.249 134.128 C-136.242 132.93 -136.234 131.733 -136.227 130.499 C-136.227 129.23 -136.228 127.961 -136.228 126.654 C-136.229 123.184 -136.217 119.713 -136.203 116.242 C-136.19 112.612 -136.189 108.982 -136.187 105.352 C-136.181 98.481 -136.164 91.611 -136.144 84.74 C-136.122 76.917 -136.111 69.093 -136.101 61.27 C-136.08 45.18 -136.045 29.09 -136 13 C-135.67 13 -135.34 13 -135 13 C-134.67 54.91 -134.34 96.82 -134 140 C-132.35 140.33 -130.7 140.66 -129 141 C-127.313 143.062 -127.313 143.062 -126 145 C-125.34 145 -124.68 145 -124 145 C-124 145.66 -124 146.32 -124 147 C-123.64 146.912 -123.64 146.912 -121.816 146.465 C-118.934 145.989 -116.814 146.15 -113.938 146.562 C-107.818 147.212 -101.93 146.696 -96 145 C-95.67 144.34 -95.34 143.68 -95 143 C-94.34 143 -93.68 143 -93 143 C-91.277 137.482 -91.814 131.561 -91.815 125.838 C-91.813 123.705 -91.794 121.572 -91.775 119.439 C-91.772 118.068 -91.77 116.696 -91.77 115.324 C-91.765 114.088 -91.761 112.851 -91.757 111.577 C-92.019 107.719 -92.813 104.663 -94 101 C-93.34 100.34 -92.68 99.68 -92 99 C-92.375 96.375 -92.375 96.375 -93 94 C-92.34 94 -91.68 94 -91 94 C-91.023 92.94 -91.046 91.881 -91.07 90.789 C-91.089 89.401 -91.107 88.013 -91.125 86.625 C-91.142 85.926 -91.159 85.228 -91.176 84.508 C-91.193 82.671 -91.103 80.834 -91 79 C-90.34 78.34 -89.68 77.68 -89 77 C-87.062 77.75 -87.062 77.75 -85 79 C-84.25 81.125 -84.25 81.125 -84 83 C-83.01 83 -82.02 83 -81 83 C-81 83.66 -81 84.32 -81 85 C-80.34 85 -79.68 85 -79 85 C-78.34 88.3 -77.68 91.6 -77 95 C-76.34 95 -75.68 95 -75 95 C-72 100.75 -72 100.75 -72 103 C-71.397 103.094 -70.793 103.188 -70.172 103.285 C-67.502 104.164 -66.802 105.133 -65.25 107.438 C-64.822 108.055 -64.394 108.672 -63.953 109.309 C-63 111 -63 111 -63 113 C-62.34 113 -61.68 113 -61 113 C-59.711 114.68 -59.711 114.68 -58.375 116.875 C-57.929 117.594 -57.483 118.314 -57.023 119.055 C-56 121 -56 121 -56 123 C-55.34 123.33 -54.68 123.66 -54 124 C-52.954 125.638 -51.96 127.31 -51 129 C-50.528 129.773 -50.056 130.547 -49.57 131.344 C-48.546 133.076 -47.578 134.842 -46.676 136.641 C-43.05 143.58 -43.05 143.58 -39.832 144.867 C-37.625 145.125 -37.625 145.125 -34 145 C-34 145.66 -34 146.32 -34 147 C-33.451 146.934 -32.901 146.868 -32.335 146.801 C-29.829 146.505 -27.321 146.221 -24.812 145.938 C-23.948 145.834 -23.084 145.73 -22.193 145.623 C-17.066 145.053 -12.749 144.626 -8 147 C-8 146.34 -8 145.68 -8 145 C-6.35 144.67 -4.7 144.34 -3 144 C-3.01 143.464 -3.01 143.464 -3.062 140.75 C-3 137 -3 137 -2.504 135.073 C-1.923 132.684 -1.87 130.544 -1.867 128.086 C-1.867 127.623 -1.867 127.623 -1.863 125.281 C-1.867 124.322 -1.871 123.363 -1.875 122.375 C-1.871 121.408 -1.867 120.441 -1.863 119.445 C-1.865 118.522 -1.866 117.599 -1.867 116.648 C-1.868 116.227 -1.868 116.227 -1.871 114.091 C-2 112 -2 112 -3 110 C-2.34 110 -1.68 110 -1 110 C-1.33 109.01 -1.66 108.02 -2 107 C-1.67 106.34 -1.34 105.68 -1 105 C-1.66 105 -2.32 105 -3 105 C-2.67 104.34 -2.34 103.68 -2 103 C-1.34 103.33 -0.68 103.66 0 104 C0 103.34 0 102.68 0 102 C-0.66 101.67 -1.32 101.34 -2 101 C-1.814 100.216 -1.629 99.433 -1.438 98.625 C-1 96 -1 96 -2 94 C-2 92.68 -2 91.36 -2 90 C-2.66 89.34 -3.32 88.68 -4 88 C-3.01 88 -2.02 88 -1 88 C-1.186 87.257 -1.371 86.515 -1.562 85.75 C-2.001 82.996 -1.784 81.613 -1 79 C-1 78.01 -1 77.02 -1 76 C-0.988 74.053 -0.977 72.107 -0.965 70.16 C-0.956 67.794 -0.946 65.428 -0.938 63.062 C-0.929 61.869 -0.921 60.676 -0.912 59.447 C-0.909 58.301 -0.906 57.154 -0.902 55.973 C-0.897 54.923 -0.892 53.874 -0.886 52.793 C-1 50 -1 50 -1.569 47.877 C-2.101 45.562 -1.596 44.294 -1 42 C-0.906 39.62 -0.869 37.237 -0.867 34.855 C-0.866 34.167 -0.865 33.479 -0.864 32.771 C-0.864 31.317 -0.865 29.864 -0.87 28.411 C-0.875 26.205 -0.87 24 -0.863 21.795 C-0.864 20.378 -0.865 18.96 -0.867 17.543 C-0.868 16.904 -0.868 16.904 -0.871 13.669 C-1 10 -1 10 -1.633 6.216 C-2 3 -2 3 0 0 Z " fill="#2773C4" transform="translate(172,43)"/>
<path d="M0 0 C2 1 2 1 3.062 3.312 C5.011 10.975 5.221 18.213 4 26 C4.077 26.512 4.077 26.512 4.469 29.102 C5.087 33.635 5.072 37.997 5 42.562 C4.917 47.88 5.115 52.742 6 58 C5.062 61.375 5.062 61.375 4 64 C4.66 64 5.32 64 6 64 C5.916 64.675 5.832 65.351 5.746 66.047 C5.644 66.939 5.542 67.831 5.438 68.75 C5.333 69.632 5.229 70.513 5.121 71.422 C5 74 5 74 5.48 75.917 C6.339 79.356 6.226 82.851 6.25 86.375 C6.26 86.746 6.26 86.746 6.312 88.625 C6.347 93.512 5.588 96.71 3 101 C3.66 101 4.32 101 5 101 C6.206 105.672 6.094 110.215 6 115 C5.67 115.165 5.67 115.165 4 116 C3.897 121.299 3.998 126.477 4.562 131.75 C5.194 138.261 4.667 144.372 1 150 C-1.437 152.402 -4.097 154.202 -7 156 C-7.813 156.513 -8.627 157.026 -9.465 157.555 C-13.665 159.949 -16.611 161.561 -21.438 160.312 C-22.613 159.879 -23.789 159.446 -25 159 C-25.99 159 -26.98 159 -28 159 C-29.671 158.689 -31.339 158.359 -33 158 C-32.67 157.34 -32.34 156.68 -32 156 C-35.3 155.34 -38.6 154.68 -42 154 C-41.67 153.01 -41.34 152.02 -41 151 C-41.351 150.887 -41.351 150.887 -43.125 150.312 C-49.587 147.363 -53.241 142.712 -56.938 136.875 C-57.366 136.215 -57.795 135.555 -58.237 134.875 C-59.502 132.923 -60.753 130.963 -62 129 C-62.656 127.974 -63.312 126.948 -63.988 125.891 C-65.129 124.1 -66.267 122.307 -67.402 120.512 C-74.244 109.756 -74.244 109.756 -77 107 C-80 101.462 -80 101.462 -80 99 C-82.562 101 -82.562 101 -85 104 C-84.75 107.75 -84.75 107.75 -84.332 109.797 C-83.763 113.574 -84.436 117.249 -85 121 C-84.34 121 -83.68 121 -83 121 C-82.874 127.426 -82.874 127.426 -83.562 130.562 C-84 133 -84 133 -83.5 135.875 C-82.865 139.842 -82.814 142.113 -84 146 C-88.897 152.322 -94.813 156.619 -102 160 C-102.33 159.34 -102.66 158.68 -103 158 C-103.99 158.33 -103.99 158.33 -109 160 C-109.392 159.546 -109.784 159.093 -110.188 158.625 C-112.308 156.724 -114.33 155.938 -117 155 C-117 155.66 -117 156.32 -117 157 C-119.31 157 -121.62 157 -124 157 C-124 156.34 -124 155.68 -124 155 C-125.98 155 -127.96 155 -130 155 C-130.041 154.423 -130.082 153.845 -130.125 153.25 C-131.441 149.867 -133.966 148.808 -137 147 C-136.67 146.67 -136.67 146.67 -135 145 C-134.257 145.474 -133.515 145.949 -132.75 146.438 C-127.164 149.612 -121.533 149.25 -115.25 149.312 C-114.286 149.342 -113.322 149.371 -112.328 149.4 C-106.066 149.456 -101.021 148.972 -96 145 C-91.994 139.487 -91.411 133.987 -91.426 127.355 C-91.412 126.464 -91.397 125.572 -91.383 124.654 C-91.341 121.831 -91.326 119.01 -91.312 116.188 C-91.283 113.348 -91.249 110.508 -91.21 107.668 C-91.188 105.907 -91.172 104.147 -91.163 102.386 C-91.133 99.014 -91.073 96.22 -90 93 C-88.062 92.438 -88.062 92.438 -86 92 C-85.34 91.34 -84.68 90.68 -84 90 C-78.359 97.383 -73.361 105.071 -68.434 112.939 C-64.403 119.375 -60.298 125.738 -56 132 C-55.334 132.989 -54.667 133.977 -53.98 134.996 C-49.545 141.381 -45.611 146.463 -38 149 C-15.435 150.977 -15.435 150.977 -7.914 145.766 C-2.946 141.181 -1.784 134.296 -1.488 127.8 C-1.462 125.46 -1.457 123.119 -1.47 120.779 C-1.461 119.494 -1.453 118.208 -1.444 116.883 C-1.42 113.388 -1.421 109.893 -1.425 106.397 C-1.426 102.731 -1.403 99.064 -1.383 95.398 C-1.348 88.466 -1.331 81.534 -1.323 74.602 C-1.31 64.41 -1.272 54.218 -1.229 44.026 C-1.226 43.279 -1.223 42.532 -1.219 41.762 C-1.213 40.272 -1.207 38.783 -1.2 37.294 C-1.182 32.931 -1.171 28.567 -1.166 24.204 C-1.163 22.149 -1.158 20.094 -1.152 18.039 C-1.146 15.531 -1.142 13.023 -1.143 10.515 C-1.139 9.416 -1.135 8.317 -1.131 7.184 C-1.13 6.226 -1.129 5.267 -1.127 4.28 C-1 2 -1 2 0 0 Z " fill="#D4BF99" transform="translate(177,50)"/>
<path d="M0 0 C1.16 -0.029 2.319 -0.058 3.514 -0.088 C10.623 -0.14 15.253 0.524 21.312 4.312 C19.812 5.812 19.812 5.812 17.312 7.312 C15.407 7.28 13.501 7.241 11.598 7.152 C7.973 7.406 4.971 8.919 1.707 10.438 C-0.688 11.312 -0.688 11.312 -3.316 11.191 C-3.708 11.211 -3.708 11.211 -5.688 11.312 C-7.234 13.027 -7.234 13.027 -8.438 15.25 C-8.845 15.981 -9.252 16.712 -9.672 17.465 C-9.839 17.77 -9.839 17.77 -10.688 19.312 C-11.017 19.642 -11.347 19.972 -11.688 20.312 C-10.367 20.642 -9.047 20.972 -7.688 21.312 C-8.347 22.633 -9.008 23.953 -9.688 25.312 C-10.017 24.653 -10.347 23.992 -10.688 23.312 C-11.636 23.663 -12.585 24.014 -13.562 24.375 C-16.688 25.312 -16.688 25.312 -18.688 24.312 C-18.688 24.972 -18.688 25.633 -18.688 26.312 C-18.028 26.642 -17.367 26.972 -16.688 27.312 C-17.347 27.312 -18.008 27.312 -18.688 27.312 C-19.688 30.312 -19.688 30.312 -19.125 33.312 C-18.688 36.312 -18.688 36.312 -20.688 39.312 C-20.028 39.642 -19.367 39.972 -18.688 40.312 C-19.059 40.849 -19.43 41.385 -19.812 41.938 C-21.036 45.259 -19.992 47.123 -18.688 50.312 C-20.008 49.983 -21.328 49.653 -22.688 49.312 C-23.017 46.013 -23.347 42.713 -23.688 39.312 C-23.688 44.593 -23.688 49.873 -23.688 55.312 C-23.358 53.662 -23.028 52.013 -22.688 50.312 C-20.812 50.438 -20.812 50.438 -18.688 51.312 C-17.089 54.909 -16.688 57.346 -16.688 61.312 C-16.028 61.642 -15.367 61.972 -14.688 62.312 C-14.028 63.303 -13.367 64.292 -12.688 65.312 C-13.513 65.477 -13.513 65.477 -17.688 66.312 C-16.697 66.642 -15.707 66.972 -14.688 67.312 C-14.688 67.972 -14.688 68.632 -14.688 69.312 C-15.347 69.477 -15.347 69.477 -18.688 70.312 C-17.367 71.632 -16.047 72.953 -14.688 74.312 C-15.347 74.477 -15.347 74.477 -18.688 75.312 C-18.688 75.972 -18.688 76.632 -18.688 77.312 C-18.028 77.642 -17.367 77.972 -16.688 78.312 C-17.347 78.312 -18.008 78.312 -18.688 78.312 C-18.688 79.302 -18.688 80.293 -18.688 81.312 C-19.347 81.312 -20.008 81.312 -20.688 81.312 C-20.688 81.972 -20.688 82.632 -20.688 83.312 C-20.028 83.642 -19.367 83.972 -18.688 84.312 C-18.688 85.632 -18.688 86.953 -18.688 88.312 C-17.367 88.312 -16.047 88.312 -14.688 88.312 C-15.017 89.302 -15.347 90.293 -15.688 91.312 C-14.697 91.972 -13.707 92.632 -12.688 93.312 C-13.017 93.477 -13.017 93.477 -14.688 94.312 C-14.028 94.972 -13.367 95.632 -12.688 96.312 C-13.347 96.642 -13.347 96.642 -16.688 98.312 C-16.688 99.303 -16.688 100.293 -16.688 101.312 C-16.028 101.642 -15.367 101.972 -14.688 102.312 C-14.461 105.641 -14.366 107.731 -16 110.688 C-17.688 112.312 -17.688 112.312 -20.688 112.312 C-20.688 112.972 -20.688 113.632 -20.688 114.312 C-20.028 114.312 -19.367 114.312 -18.688 114.312 C-18.98 116.331 -19.273 118.349 -19.566 120.367 C-19.688 122.312 -19.688 122.312 -18.688 124.312 C-19.347 124.312 -20.008 124.312 -20.688 124.312 C-20.688 124.972 -20.688 125.632 -20.688 126.312 C-20.028 126.312 -19.367 126.312 -18.688 126.312 C-18.688 126.972 -18.688 127.632 -18.688 128.312 C-19.347 128.312 -20.008 128.312 -20.688 128.312 C-20.688 129.632 -20.688 130.952 -20.688 132.312 C-20.028 132.643 -19.367 132.972 -18.688 133.312 C-19.347 133.312 -20.008 133.312 -20.688 133.312 C-20.688 134.303 -20.688 135.292 -20.688 136.312 C-20.028 136.643 -19.367 136.972 -18.688 137.312 C-18.852 137.642 -18.852 137.642 -19.688 139.312 C-18.697 139.312 -17.707 139.312 -16.688 139.312 C-16.688 139.972 -16.688 140.632 -16.688 141.312 C-17.678 141.643 -18.668 141.972 -19.688 142.312 C-19.358 142.972 -19.028 143.632 -18.688 144.312 C-19.678 144.312 -20.668 144.312 -21.688 144.312 C-21.852 144.642 -21.852 144.642 -22.688 146.312 C-23.542 141.206 -23.777 136.304 -23.688 131.125 C-23.528 112.632 -23.528 112.632 -25.688 108.312 C-25.831 105.396 -25.915 102.502 -25.956 99.583 C-25.973 98.679 -25.989 97.775 -26.006 96.843 C-26.058 93.841 -26.102 90.838 -26.145 87.836 C-26.16 86.811 -26.175 85.785 -26.19 84.729 C-26.27 79.299 -26.342 73.87 -26.41 68.44 C-26.481 62.838 -26.576 57.236 -26.677 51.634 C-26.749 47.322 -26.804 43.011 -26.854 38.699 C-26.881 36.634 -26.915 34.57 -26.956 32.506 C-27.012 29.61 -27.042 26.714 -27.066 23.818 C-27.088 22.971 -27.11 22.124 -27.133 21.251 C-27.145 14.721 -25.551 9.213 -20.871 4.473 C-20.295 4.11 -19.719 3.748 -19.125 3.375 C-18.836 3.185 -18.836 3.185 -17.371 2.223 C-12.002 -0.68 -5.932 0.049 0 0 Z " fill="#3F90E8" transform="translate(62.6875,33.6875)"/>
<path d="M0 0 C0.33 0 0.66 0 1 0 C1.33 41.91 1.66 83.82 2 127 C3.65 127.33 5.3 127.66 7 128 C8.687 130.062 8.687 130.062 10 132 C10.66 132 11.32 132 12 132 C12 132.66 12 133.32 12 134 C12.36 133.912 12.36 133.912 14.184 133.465 C17.066 132.989 19.186 133.15 22.062 133.562 C28.182 134.212 34.07 133.696 40 132 C40.33 131.34 40.66 130.68 41 130 C41.66 130 42.32 130 43 130 C44.723 124.482 44.186 118.561 44.185 112.838 C44.187 110.705 44.206 108.572 44.225 106.439 C44.228 105.068 44.23 103.696 44.23 102.324 C44.235 101.088 44.239 99.851 44.243 98.577 C43.981 94.719 43.187 91.663 42 88 C42.66 87.34 43.32 86.68 44 86 C43.625 83.375 43.625 83.375 43 81 C43.66 81 44.32 81 45 81 C44.977 79.94 44.954 78.881 44.93 77.789 C44.911 76.401 44.893 75.013 44.875 73.625 C44.858 72.926 44.841 72.228 44.824 71.508 C44.807 69.671 44.897 67.834 45 66 C45.66 65.34 46.32 64.68 47 64 C48.938 64.75 48.938 64.75 51 66 C51.75 68.125 51.75 68.125 52 70 C52.99 70 53.98 70 55 70 C55 70.66 55 71.32 55 72 C55.66 72 56.32 72 57 72 C57.66 75.3 58.32 78.6 59 82 C59.66 82 60.32 82 61 82 C64 87.75 64 87.75 64 90 C64.603 90.094 65.207 90.188 65.828 90.285 C68.498 91.164 69.198 92.133 70.75 94.438 C71.178 95.055 71.606 95.672 72.047 96.309 C73 98 73 98 73 100 C73.66 100 74.32 100 75 100 C76.289 101.68 76.289 101.68 77.625 103.875 C78.071 104.594 78.517 105.314 78.977 106.055 C80 108 80 108 80 110 C80.66 110.33 81.32 110.66 82 111 C83.046 112.638 84.04 114.31 85 116 C85.472 116.773 85.944 117.547 86.43 118.344 C87.454 120.076 88.422 121.842 89.324 123.641 C92.95 130.58 92.95 130.58 96.168 131.867 C98.375 132.125 98.375 132.125 102 132 C102 132.66 102 133.32 102 134 C102.549 133.934 103.099 133.868 103.665 133.801 C106.171 133.505 108.679 133.221 111.188 132.938 C112.052 132.834 112.916 132.73 113.807 132.623 C118.089 132.147 121.795 131.755 126 133 C122.342 135.341 119.243 135 115 135 C114.34 135.66 113.68 136.32 113 137 C110.407 136.983 107.947 136.862 105.375 136.625 C104.669 136.568 103.962 136.512 103.234 136.453 C101.489 136.312 99.744 136.157 98 136 C106.28 138.218 114.479 138.603 123 139 C123 139.33 123 139.66 123 140 C118.135 140.947 113.438 141.247 108.5 141.312 C107.767 141.342 107.033 141.371 106.277 141.4 C101.008 141.462 98.094 140.582 94 137 C88.587 130.891 84.22 123.972 79.812 117.125 C79.165 116.127 78.518 115.129 77.852 114.101 C73.18 106.879 68.586 99.61 64.017 92.322 C60.95 87.448 57.784 82.672 54.402 78.008 C53 76 53 76 51.441 73.305 C50 71 50 71 48 70 C48.021 70.736 48.043 71.472 48.065 72.231 C48.264 79.189 48.442 86.147 48.598 93.106 C48.679 96.684 48.768 100.26 48.875 103.837 C48.977 107.293 49.059 110.748 49.127 114.205 C49.171 116.157 49.236 118.108 49.301 120.059 C49.418 126.967 49.277 131.448 45 137 C38.734 142.953 31.885 142.394 23.625 142.812 C22.501 142.889 21.377 142.966 20.219 143.045 C10.946 143.5 10.946 143.5 7.355 141.203 C3.315 137.424 0.168 133.273 -0.123 127.601 C-0.122 126.645 -0.121 125.689 -0.12 124.704 C-0.122 123.606 -0.123 122.508 -0.124 121.377 C-0.121 120.172 -0.117 118.967 -0.114 117.726 C-0.114 116.457 -0.114 115.189 -0.114 113.882 C-0.114 110.403 -0.108 106.924 -0.101 103.445 C-0.095 99.81 -0.095 96.174 -0.093 92.538 C-0.09 85.654 -0.082 78.769 -0.072 71.884 C-0.061 64.046 -0.055 56.208 -0.05 48.371 C-0.04 32.247 -0.022 16.124 0 0 Z " fill="#2575CD" transform="translate(36,56)"/>
<path d="M0 0 C4.01 3.676 6.453 7.19 9 12 C8.34 12.66 7.68 13.32 7 14 C6.34 12.35 5.68 10.7 5 9 C2.438 11 2.438 11 0 14 C0.25 17.75 0.25 17.75 0.668 19.797 C1.237 23.574 0.564 27.249 0 31 C0.66 31 1.32 31 2 31 C2.126 37.426 2.126 37.426 1.438 40.562 C1 43 1 43 1.5 45.875 C2.135 49.842 2.186 52.113 1 56 C-3.897 62.322 -9.813 66.619 -17 70 C-17.33 69.34 -17.66 68.68 -18 68 C-18.99 68.33 -18.99 68.33 -24 70 C-24.196 69.773 -24.196 69.773 -25.188 68.625 C-27.308 66.724 -29.33 65.938 -32 65 C-32 65.66 -32 66.32 -32 67 C-34.31 67 -36.62 67 -39 67 C-39 66.34 -39 65.68 -39 65 C-40.98 65 -42.96 65 -45 65 C-45.041 64.423 -45.082 63.845 -45.125 63.25 C-46.441 59.867 -48.966 58.808 -52 57 C-51.34 56.34 -50.68 55.68 -50 55 C-49.258 55.474 -48.515 55.949 -47.75 56.438 C-42.164 59.612 -36.533 59.25 -30.25 59.312 C-29.286 59.342 -28.322 59.371 -27.328 59.4 C-21.066 59.456 -16.021 58.972 -11 55 C-6.994 49.487 -6.411 43.987 -6.426 37.355 C-6.412 36.464 -6.397 35.572 -6.383 34.654 C-6.341 31.831 -6.326 29.01 -6.312 26.188 C-6.283 23.348 -6.249 20.508 -6.21 17.668 C-6.188 15.907 -6.172 14.147 -6.163 12.386 C-6.133 9.014 -6.073 6.22 -5 3 C-3.677 2.628 -2.343 2.294 -1 2 C-0.67 1.34 -0.34 0.68 0 0 Z " fill="#CABA96" transform="translate(92,140)"/>
<path d="M0 0 C1.16 -0.029 2.319 -0.058 3.514 -0.088 C10.623 -0.14 15.253 0.524 21.312 4.312 C19.812 5.812 19.812 5.812 17.312 7.312 C15.407 7.28 13.501 7.241 11.598 7.152 C7.973 7.406 4.971 8.919 1.707 10.438 C-0.688 11.312 -0.688 11.312 -3.316 11.191 C-3.708 11.211 -3.708 11.211 -5.688 11.312 C-7.234 13.027 -7.234 13.027 -8.438 15.25 C-8.845 15.981 -9.252 16.712 -9.672 17.465 C-9.839 17.77 -9.839 17.77 -10.688 19.312 C-11.017 19.642 -11.347 19.972 -11.688 20.312 C-10.367 20.642 -9.047 20.972 -7.688 21.312 C-8.347 22.633 -9.008 23.953 -9.688 25.312 C-10.017 24.653 -10.347 23.992 -10.688 23.312 C-11.636 23.663 -12.585 24.014 -13.562 24.375 C-16.688 25.312 -16.688 25.312 -18.688 24.312 C-18.688 24.972 -18.688 25.633 -18.688 26.312 C-18.028 26.642 -17.367 26.972 -16.688 27.312 C-17.347 27.312 -18.008 27.312 -18.688 27.312 C-19.688 30.312 -19.688 30.312 -19.125 33.312 C-18.688 36.312 -18.688 36.312 -20.688 39.312 C-20.028 39.642 -19.367 39.972 -18.688 40.312 C-19.059 40.849 -19.43 41.385 -19.812 41.938 C-21.036 45.259 -19.992 47.123 -18.688 50.312 C-20.008 49.983 -21.328 49.653 -22.688 49.312 C-22.725 48.369 -22.762 47.425 -22.801 46.453 C-23.129 40.051 -23.562 34.092 -25.25 27.875 C-27.213 20.616 -27.783 14.948 -24.031 8.141 C-17.897 -0.205 -9.497 0.078 0 0 Z " fill="#66A8F3" transform="translate(62.6875,33.6875)"/>
<path d="M0 0 C6.4 0.492 6.4 0.492 9.438 3.062 C9.695 3.382 9.695 3.382 11 5 C10.835 5.557 10.835 5.557 10 8.375 C9 12 9 12 9 14 C7.02 14.33 5.04 14.66 3 15 C3 14.34 3 13.68 3 13 C3.66 12.67 4.32 12.34 5 12 C5 11.34 5 10.68 5 10 C4.01 9.67 3.02 9.34 2 9 C1.67 9.66 1.34 10.32 1 11 C1 9.68 1 8.36 1 7 C-0.875 7.25 -0.875 7.25 -3 8 C-4.125 9.937 -4.125 9.937 -5 12 C-5.66 12.66 -6.32 13.32 -7 14 C-5.68 14.33 -4.36 14.66 -3 15 C-3 16.65 -3 18.3 -3 20 C-1.68 19.67 -0.36 19.34 1 19 C0.01 19.99 -0.98 20.98 -2 22 C-1.01 22 -0.02 22 1 22 C1 22.66 1 23.32 1 24 C1.66 24 2.32 24 3 24 C3.33 23.34 3.66 22.68 4 22 C4 22.99 4 23.98 4 25 C2.35 25 0.7 25 -1 25 C-1 25.66 -1 26.32 -1 27 C-0.34 27 0.32 27 1 27 C0.67 27.66 0.34 28.32 0 29 C-0.33 29.99 -0.66 30.98 -1 32 C-2.32 32 -3.64 32 -5 32 C-5 32.66 -5 33.32 -5 34 C-6.155 34.165 -6.155 34.165 -12 35 C-12.687 32.509 -13 30.621 -13 28 C-13.314 25.997 -13.645 23.996 -14 22 C-14.66 22.33 -15.32 22.66 -16 23 C-16.342 24.665 -16.674 26.332 -17 28 C-17.66 28.66 -18.32 29.32 -19 30 C-19.99 29.67 -20.98 29.34 -22 29 C-22 28.34 -22 27.68 -22 27 C-22.66 27 -23.32 27 -24 27 C-23.67 25.68 -23.34 24.36 -23 23 C-23.66 22.67 -24.32 22.34 -25 22 C-24.333 21.333 -24.333 21.333 -21 18 C-22.32 17.34 -23.64 16.68 -25 16 C-24.34 14.68 -23.68 13.36 -23 12 C-22.34 12.33 -21.68 12.66 -21 13 C-19.299 12.06 -17.635 11.051 -16 10 C-15.299 9.67 -14.597 9.34 -13.875 9 C-11.854 7.922 -10.533 6.687 -9 5 C-8.67 5.66 -8.34 6.32 -8 7 C-7.01 6.67 -6.02 6.34 -5 6 C-5 5.34 -5 4.68 -5 4 C-4.381 3.856 -3.762 3.711 -3.125 3.562 C-1 3 -1 3 1 2 C0.67 1.34 0.34 0.68 0 0 Z " fill="#3F8EE8" transform="translate(162,36)"/>
<path d="M0 0 C0.742 0.001 1.484 0.001 2.248 0.002 C6.095 0.033 9.699 0.262 13.438 1.188 C12.423 3.724 11.752 4.981 9.438 6.5 C8.778 6.727 8.118 6.954 7.438 7.188 C6.778 6.858 6.118 6.528 5.438 6.188 C5.438 6.847 5.438 7.508 5.438 8.188 C4.778 8.517 4.778 8.517 1.438 10.188 C1.108 9.528 0.778 8.867 0.438 8.188 C0.108 8.683 0.108 8.683 -1.562 11.188 C-5.13 13.598 -9.148 16.188 -13.562 16.188 C-13.562 16.847 -13.562 17.508 -13.562 18.188 C-12.243 18.847 -10.923 19.508 -9.562 20.188 C-10.037 20.93 -10.511 21.672 -11 22.438 C-12.341 24.798 -13.075 26.554 -13.562 29.188 C-12.903 29.188 -12.243 29.188 -11.562 29.188 C-12.562 32.188 -12.562 32.188 -15.562 34.188 C-15.75 37.812 -15.75 37.812 -15.562 41.188 C-15.893 41.352 -15.893 41.352 -17.562 42.188 C-16.572 42.847 -15.583 43.507 -14.562 44.188 C-14.893 45.178 -15.222 46.167 -15.562 47.188 C-16.234 49.519 -16.902 51.853 -17.562 54.188 C-18.222 54.188 -18.882 54.188 -19.562 54.188 C-19.551 53.573 -19.551 53.573 -19.492 50.461 C-19.473 48.828 -19.455 47.195 -19.438 45.562 C-19.421 44.754 -19.404 43.946 -19.387 43.113 C-19.348 38.306 -19.961 34.757 -21.562 30.188 C-22.01 27.195 -22.203 24.207 -22.375 21.188 C-22.439 20.406 -22.503 19.625 -22.568 18.82 C-22.87 13.778 -22.377 10.569 -19.562 6.188 C-13.774 0.555 -7.697 -0.128 0 0 Z " fill="#4B97ED" transform="translate(151.5625,33.8125)"/>
<path d="M0 0 C2 1 2 1 3.062 3.312 C5.011 10.975 5.221 18.213 4 26 C4.077 26.512 4.077 26.512 4.469 29.102 C5.087 33.635 5.072 37.997 5 42.562 C4.917 47.88 5.115 52.742 6 58 C5.062 61.375 5.062 61.375 4 64 C4.66 64 5.32 64 6 64 C5.916 64.675 5.832 65.351 5.746 66.047 C5.644 66.939 5.542 67.831 5.438 68.75 C5.333 69.632 5.229 70.513 5.121 71.422 C5 74 5 74 5.48 75.917 C6.339 79.356 6.226 82.851 6.25 86.375 C6.271 87.118 6.291 87.86 6.312 88.625 C6.347 93.512 5.588 96.71 3 101 C3.66 101 4.32 101 5 101 C6.206 105.672 6.094 110.215 6 115 C5.67 115.165 5.67 115.165 4 116 C3.897 121.299 3.998 126.477 4.562 131.75 C5.194 138.261 4.667 144.372 1 150 C-1.437 152.402 -4.097 154.202 -7 156 C-7.813 156.513 -8.627 157.026 -9.465 157.555 C-13.665 159.949 -16.611 161.561 -21.438 160.312 C-22.613 159.879 -23.789 159.446 -25 159 C-25.99 159 -26.98 159 -28 159 C-29.671 158.689 -31.339 158.359 -33 158 C-32.34 157.01 -31.68 156.02 -31 155 C-28.833 154.631 -28.833 154.631 -26.168 154.629 C-25.204 154.612 -24.241 154.594 -23.248 154.576 C-21.219 154.567 -19.191 154.562 -17.162 154.561 C-9.695 154.416 -9.695 154.416 -5.941 152.168 C1.843 143.475 1.149 133.872 1.129 122.788 C1.131 121.586 1.133 120.383 1.135 119.144 C1.138 115.868 1.138 112.591 1.134 109.314 C1.132 105.876 1.134 102.438 1.136 98.999 C1.138 93.23 1.135 87.462 1.13 81.693 C1.125 75.029 1.127 68.366 1.132 61.703 C1.137 55.971 1.137 50.238 1.135 44.505 C1.133 41.086 1.133 37.667 1.136 34.248 C1.139 30.44 1.135 26.632 1.129 22.823 C1.131 21.695 1.133 20.566 1.136 19.402 C1.133 18.364 1.13 17.325 1.127 16.255 C1.127 15.356 1.126 14.456 1.126 13.529 C0.958 10.161 0.3 7.048 -0.625 3.812 C-1 2 -1 2 0 0 Z " fill="#DECFB1" transform="translate(177,50)"/>
<path d="M0 0 C3.731 1.244 4.073 2.31 6.062 5.625 C8.845 10.154 11.714 14.596 14.688 19 C18.507 24.683 22.183 30.444 25.812 36.25 C30.083 43.05 34.445 49.781 38.938 56.438 C39.469 57.236 40 58.035 40.548 58.858 C44.397 64.508 48.174 69.086 55 71 C57.902 71.275 60.775 71.284 63.688 71.25 C64.487 71.245 65.286 71.241 66.11 71.236 C73.052 71.13 79.407 70.198 86 68 C86.717 66.354 87.383 64.686 88 63 C88.33 62.67 88.33 62.67 90 61 C89.708 64.406 89.055 65.932 86.875 68.625 C80.281 74.072 74.342 74.499 66.062 74.438 C65.112 74.457 64.161 74.477 63.182 74.498 C55.966 74.493 50.683 73.362 45.268 68.418 C40.248 63.001 36.267 56.731 32.221 50.575 C31.073 48.829 29.917 47.089 28.76 45.35 C24.269 38.579 19.938 31.726 15.724 24.779 C13.626 21.398 11.375 18.191 9 15 C8.34 15.66 7.68 16.32 7 17 C5.68 17 4.36 17 3 17 C2.991 18.291 2.981 19.582 2.972 20.912 C2.932 25.728 2.866 30.544 2.792 35.359 C2.764 37.439 2.743 39.518 2.729 41.598 C2.707 44.597 2.661 47.595 2.609 50.594 C2.609 51.054 2.609 51.054 2.606 53.385 C2.471 59.391 1.47 64.013 -2 69 C-7.02 73.792 -12.912 74.551 -19.611 74.439 C-20.585 74.398 -21.559 74.356 -22.562 74.312 C-23.571 74.29 -24.58 74.267 -25.619 74.244 C-28.081 74.186 -30.54 74.104 -33 74 C-33 73.34 -33 72.68 -33 72 C-32.698 71.99 -32.698 71.99 -31.167 71.94 C-28.403 71.844 -25.639 71.735 -22.875 71.625 C-21.924 71.594 -20.972 71.563 -19.992 71.531 C-14.983 71.323 -10.696 70.945 -6 69 C-6 68.34 -6 67.68 -6 67 C-5.505 66.835 -5.505 66.835 -3 66 C-0.41 61.841 0.371 58.671 0.341 53.811 C0.34 52.61 0.34 51.409 0.34 50.172 C0.324 48.891 0.309 47.609 0.293 46.289 C0.287 44.952 0.283 43.616 0.28 42.279 C0.269 38.777 0.239 35.276 0.206 31.774 C0.175 28.195 0.162 24.615 0.146 21.035 C0.114 14.023 0.063 7.012 0 0 Z " fill="#345379" transform="translate(84,126)"/>
<path d="M0 0 C0.33 0 0.66 0 1 0 C1 17.82 1 35.64 1 54 C-0.32 54.66 -1.64 55.32 -3 56 C-3.165 55.835 -3.165 55.835 -4 55 C-5.32 55.66 -6.64 56.32 -8 57 C-7.67 57.66 -7.34 58.32 -7 59 C-7.938 61.125 -7.938 61.125 -9 63 C-9.66 63 -10.32 63 -11 63 C-11 62.34 -11 61.68 -11 61 C-11.99 61 -12.98 61 -14 61 C-13.67 62.32 -13.34 63.64 -13 65 C-13.66 65 -14.32 65 -15 65 C-15 64.34 -15 63.68 -15 63 C-15.99 62.67 -16.98 62.34 -18 62 C-18 61.34 -18 60.68 -18 60 C-17.34 60 -16.68 60 -16 60 C-16 59.34 -16 58.68 -16 58 C-16.66 57.67 -17.32 57.34 -18 57 C-17.67 55.68 -17.34 54.36 -17 53 C-17.99 53 -18.98 53 -20 53 C-20 52.34 -20 51.68 -20 51 C-20.66 51 -21.32 51 -22 51 C-21.835 50.691 -21.835 50.691 -21 49.125 C-20 47 -20 47 -20 45 C-23.053 44.019 -24.947 44.019 -28 45 C-28 45.99 -28 46.98 -28 48 C-28.99 47.67 -29.98 47.34 -31 47 C-30.67 46.01 -30.34 45.02 -30 44 C-27.437 42.812 -27.437 42.812 -25 42 C-26.65 42 -28.3 42 -30 42 C-30 41.34 -30 40.68 -30 40 C-29.67 39.835 -29.67 39.835 -28 39 C-28 38.01 -28 37.02 -28 36 C-27.34 36 -26.68 36 -26 36 C-25.67 36.99 -25.34 37.98 -25 39 C-24.01 39.33 -23.02 39.66 -22 40 C-21.34 38.68 -20.68 37.36 -20 36 C-20 36.66 -20 37.32 -20 38 C-18.35 38.33 -16.7 38.66 -15 39 C-15.33 39.99 -15.66 40.98 -16 42 C-15.34 42.33 -14.68 42.66 -14 43 C-13.67 43.66 -13.34 44.32 -13 45 C-13.99 45.66 -14.98 46.32 -16 47 C-15.175 46.835 -15.175 46.835 -11 46 C-10.67 45.01 -10.34 44.02 -10 43 C-6 47.75 -6 47.75 -6 50 C-5.34 50 -4.68 50 -4 50 C-3.67 50.66 -3.34 51.32 -3 52 C-2.505 52.165 -2.505 52.165 0 53 C0 35.51 0 18.02 0 0 Z " fill="#3D8BE5" transform="translate(129,50)"/>
<path d="M0 0 C1.922 0.324 1.922 0.324 4 1 C5.598 4.597 6 7.034 6 11 C6.66 11.33 7.32 11.66 8 12 C8.33 12.495 8.33 12.495 10 15 C8.35 15.33 6.7 15.66 5 16 C5.99 16.33 6.98 16.66 8 17 C8 17.66 8 18.32 8 19 C6.68 19.33 5.36 19.66 4 20 C5.32 21.32 6.64 22.64 8 24 C6.68 24.33 5.36 24.66 4 25 C4 25.66 4 26.32 4 27 C4.66 27.33 5.32 27.66 6 28 C5.34 28 4.68 28 4 28 C4 28.99 4 29.98 4 31 C3.34 31 2.68 31 2 31 C2 31.66 2 32.32 2 33 C2.66 33.33 3.32 33.66 4 34 C4 35.32 4 36.64 4 38 C5.32 38 6.64 38 8 38 C7.67 38.99 7.34 39.98 7 41 C7.99 41.66 8.98 42.32 10 43 C9.67 43.165 9.67 43.165 8 44 C8.66 44.66 9.32 45.32 10 46 C9.381 46.206 8.763 46.412 8.125 46.625 C5.102 48.581 4.922 50.577 4 54 C3.333 56 2.667 58 2 60 C1.34 60 0.68 60 0 60 C-1.496 52.445 -2.095 45.713 -1.289 38.062 C-0.703 31.409 -0.96 24.692 -1.038 18.021 C-1.086 11.915 -0.81 6.053 0 0 Z " fill="#509AEF" transform="translate(40,84)"/>
<path d="M0 0 C1.137 -0.015 2.274 -0.031 3.445 -0.047 C10.427 -0.014 15.04 0.819 21 4.5 C19.5 6 19.5 6 17 7.5 C15.097 7.467 13.194 7.429 11.293 7.336 C7.601 7.6 4.523 9.173 1.199 10.723 C-1 11.5 -1 11.5 -4 10.5 C-4 9.84 -4 9.18 -4 8.5 C-5.65 8.83 -7.3 9.16 -9 9.5 C-9 8.84 -9 8.18 -9 7.5 C-9.66 7.5 -10.32 7.5 -11 7.5 C-11.33 8.49 -11.66 9.48 -12 10.5 C-12.784 10.582 -13.568 10.665 -14.375 10.75 C-17 11.5 -17 11.5 -18.312 13.562 C-18.539 14.202 -18.766 14.841 -19 15.5 C-19.99 15.17 -20.98 14.84 -22 14.5 C-22.125 11.625 -22.125 11.625 -22 8.5 C-21.34 7.84 -20.68 7.18 -20 6.5 C-20.33 5.84 -20.66 5.18 -21 4.5 C-13.982 0.165 -8.141 -0.111 0 0 Z " fill="#68AAF4" transform="translate(63,33.5)"/>
<path d="M0 0 C0.165 0.66 0.165 0.66 1 4 C0.01 3.67 -0.98 3.34 -2 3 C-1.979 3.736 -1.957 4.472 -1.935 5.231 C-1.736 12.189 -1.558 19.147 -1.402 26.106 C-1.321 29.684 -1.232 33.26 -1.125 36.837 C-1.023 40.293 -0.941 43.748 -0.873 47.205 C-0.829 49.157 -0.764 51.108 -0.699 53.059 C-0.582 59.967 -0.723 64.448 -5 70 C-11.266 75.953 -18.115 75.394 -26.375 75.812 C-27.499 75.889 -28.623 75.966 -29.781 76.045 C-39.053 76.5 -39.053 76.5 -42.672 74.152 C-44.765 72.217 -46.46 70.396 -48 68 C-47.835 67.67 -47.835 67.67 -47 66 C-46.422 66.784 -45.845 67.567 -45.25 68.375 C-42.027 72.135 -42.027 72.135 -39 73 C-35.25 72.625 -35.25 72.625 -32 72 C-32.99 71.34 -33.98 70.68 -35 70 C-34.395 69.985 -33.791 69.971 -33.167 69.956 C-30.403 69.881 -27.639 69.784 -24.875 69.688 C-23.924 69.665 -22.972 69.642 -21.992 69.619 C-16.684 69.416 -12.477 69.159 -8 66 C-5.249 62.235 -4.616 59.551 -4.568 54.925 C-4.548 53.724 -4.528 52.523 -4.508 51.286 C-4.501 49.999 -4.495 48.712 -4.488 47.387 C-4.471 46.049 -4.453 44.711 -4.434 43.373 C-4.386 39.863 -4.357 36.353 -4.33 32.843 C-4.301 29.257 -4.254 25.67 -4.209 22.084 C-4.123 15.056 -4.056 8.028 -4 1 C-2 0 -2 0 0 0 Z " fill="#1762B5" transform="translate(86,123)"/>
<path d="M0 0 C3.392 3.392 3.126 6.947 3.134 11.579 C3.138 12.715 3.142 13.85 3.147 15.021 C3.146 16.262 3.146 17.504 3.145 18.783 C3.149 20.094 3.152 21.405 3.155 22.756 C3.164 26.348 3.167 29.941 3.167 33.534 C3.168 36.534 3.172 39.534 3.175 42.533 C3.184 49.609 3.186 56.685 3.185 63.76 C3.185 71.061 3.195 78.361 3.211 85.662 C3.224 91.93 3.229 98.198 3.229 104.467 C3.229 108.211 3.231 111.954 3.242 115.698 C3.253 119.871 3.249 124.044 3.243 128.217 C3.249 129.458 3.254 130.7 3.26 131.979 C3.256 133.115 3.252 134.251 3.247 135.421 C3.248 136.407 3.248 137.394 3.249 138.411 C2.988 141.124 2.36 142.667 1 145 C0.752 145.526 0.752 145.526 -0.5 148.188 C-3.369 151.415 -4.128 151.473 -8.25 151.875 C-9.832 151.944 -11.416 151.994 -13 152 C-10 150 -10 150 -7 148.625 C-2.887 146.397 -1.461 144.384 0 140 C0.091 138.11 0.122 136.217 0.12 134.324 C0.122 133.142 0.123 131.96 0.124 130.742 C0.121 129.444 0.117 128.146 0.114 126.808 C0.113 125.428 0.113 124.048 0.114 122.669 C0.114 118.921 0.108 115.173 0.101 111.426 C0.095 107.51 0.095 103.594 0.093 99.678 C0.09 92.262 0.082 84.846 0.072 77.43 C0.061 68.988 0.055 60.545 0.05 52.103 C0.04 34.735 0.022 17.368 0 0 Z " fill="#627C94" transform="translate(173,43)"/>
<path d="M0 0 C2.557 3.835 2.04 5.659 1.625 10.188 C1.514 11.46 1.403 12.732 1.289 14.043 C1.241 14.531 1.241 14.531 1 17 C1.66 17 2.32 17 3 17 C3.126 23.426 3.126 23.426 2.438 26.562 C2 29 2 29 2.5 31.875 C3.135 35.842 3.186 38.113 2 42 C-2.897 48.322 -8.813 52.619 -16 56 C-16.33 55.34 -16.66 54.68 -17 54 C-18.98 54.66 -20.96 55.32 -23 56 C-23.196 55.773 -23.196 55.773 -24.188 54.625 C-26.308 52.724 -28.33 51.938 -31 51 C-31 51.66 -31 52.32 -31 53 C-33.31 53 -35.62 53 -38 53 C-38 52.34 -38 51.68 -38 51 C-39.98 51 -41.96 51 -44 51 C-44.041 50.423 -44.082 49.845 -44.125 49.25 C-45.441 45.867 -47.966 44.808 -51 43 C-50.34 42.34 -49.68 41.68 -49 41 C-46 42.812 -46 42.812 -43 45 C-43 45.99 -43 46.98 -43 48 C-17.882 52.251 -17.882 52.251 -11 49 C-7.972 46.407 -5.779 43.558 -4 40 C-3.34 40 -2.68 40 -2 40 C-2.012 39.294 -2.023 38.587 -2.035 37.859 C-2.098 30.765 -1.907 23.71 -1.562 16.625 C-1.523 15.782 -1.484 14.938 -1.444 14.069 C-1.199 9.323 -0.753 4.693 0 0 Z " fill="#DDCFAE" transform="translate(91,154)"/>
<path d="M0 0 C1.597 2.828 2.249 4.846 2.241 8.088 C2.243 8.892 2.246 9.697 2.249 10.527 C2.242 11.4 2.234 12.274 2.227 13.175 C2.227 14.102 2.228 15.029 2.228 15.984 C2.227 19.047 2.211 22.109 2.195 25.172 C2.192 27.296 2.189 29.42 2.187 31.544 C2.179 37.134 2.159 42.724 2.137 48.313 C2.117 54.017 2.108 59.722 2.098 65.426 C2.076 76.617 2.042 87.809 2 99 C1.897 98.361 1.794 97.721 1.688 97.062 C1.461 96.382 1.234 95.701 1 95 C0.01 94.67 -0.98 94.34 -2 94 C-2 92.68 -2 91.36 -2 90 C-2.66 89.34 -3.32 88.68 -4 88 C-3.01 88 -2.02 88 -1 88 C-1.186 87.257 -1.371 86.515 -1.562 85.75 C-2.001 82.996 -1.784 81.613 -1 79 C-1 78.01 -1 77.02 -1 76 C-0.988 74.053 -0.977 72.107 -0.965 70.16 C-0.956 67.794 -0.946 65.428 -0.938 63.062 C-0.929 61.869 -0.921 60.676 -0.912 59.447 C-0.909 58.301 -0.906 57.154 -0.902 55.973 C-0.897 54.923 -0.892 53.874 -0.886 52.793 C-1 50 -1 50 -1.569 47.877 C-2.101 45.562 -1.596 44.294 -1 42 C-0.906 39.62 -0.869 37.237 -0.867 34.855 C-0.866 34.167 -0.865 33.479 -0.864 32.771 C-0.864 31.317 -0.865 29.864 -0.87 28.411 C-0.875 26.205 -0.87 24 -0.863 21.795 C-0.864 20.378 -0.865 18.96 -0.867 17.543 C-0.868 16.264 -0.869 14.986 -0.871 13.669 C-1 10 -1 10 -1.633 6.216 C-2 3 -2 3 0 0 Z " fill="#2A73C6" transform="translate(172,43)"/>
<path d="M0 0 C0.33 0 0.66 0 1 0 C1.33 41.91 1.66 83.82 2 127 C3.65 127.33 5.3 127.66 7 128 C8.687 130.062 8.687 130.062 10 132 C10.66 132 11.32 132 12 132 C12 132.66 12 133.32 12 134 C12.722 133.814 13.444 133.629 14.188 133.438 C17.128 132.98 19.141 133.265 22 134 C20 136 20 136 17.617 136.195 C16.712 136.172 15.807 136.149 14.875 136.125 C13.965 136.107 13.055 136.089 12.117 136.07 C11.419 136.047 10.72 136.024 10 136 C11.676 137.676 13.826 137.346 16.129 137.535 C16.646 137.579 16.646 137.579 19.264 137.799 C19.808 137.842 19.808 137.842 22.562 138.062 C23.655 138.153 24.747 138.244 25.873 138.338 C28.582 138.563 31.291 138.783 34 139 C34 139.33 34 139.66 34 140 C30.294 140.285 26.585 140.522 22.875 140.75 C21.828 140.831 20.782 140.912 19.703 140.996 C10.973 141.493 10.973 141.493 7.402 139.145 C6.61 138.437 5.817 137.729 5 137 C4.237 136.319 3.474 135.639 2.688 134.938 C-0.135 131.696 -0.124 128.827 -0.12 124.704 C-0.122 123.606 -0.123 122.508 -0.124 121.377 C-0.121 120.172 -0.117 118.967 -0.114 117.726 C-0.114 116.457 -0.114 115.189 -0.114 113.882 C-0.114 110.403 -0.108 106.924 -0.101 103.445 C-0.095 99.81 -0.095 96.174 -0.093 92.538 C-0.09 85.654 -0.082 78.769 -0.072 71.884 C-0.061 64.046 -0.055 56.208 -0.05 48.371 C-0.04 32.247 -0.022 16.124 0 0 Z " fill="#357CCB" transform="translate(36,56)"/>
<path d="M0 0 C0.66 0.33 1.32 0.66 2 1 C2.625 4.062 2.625 4.062 3 7 C3.33 6.01 3.66 5.02 4 4 C4.66 4 5.32 4 6 4 C6.143 11.429 6.143 11.429 5 15 C4.34 15 3.68 15 3 15 C3 15.66 3 16.32 3 17 C3.66 17.33 4.32 17.66 5 18 C4.01 19.815 4.01 19.815 -1 29 C-1.66 29 -2.32 29 -3 29 C-3.33 28.01 -3.66 27.02 -4 26 C-5.562 24.312 -5.562 24.312 -7 23 C-7.33 23.66 -7.66 24.32 -8 25 C-8 24.34 -8 23.68 -8 23 C-8.99 23.33 -9.98 23.66 -11 24 C-10.67 23.01 -10.34 22.02 -10 21 C-10 20.67 -10 20.34 -10 20 C-11.32 19.34 -12.64 18.68 -14 18 C-11.688 16.438 -11.688 16.438 -9 15 C-8.01 15.33 -7.02 15.66 -6 16 C-3.23 13.23 -3.602 11.235 -3.375 7.375 C-3.3 6.186 -3.225 4.998 -3.148 3.773 C-3.099 2.858 -3.05 1.943 -3 1 C-2.01 0.67 -1.02 0.34 0 0 Z " fill="#4394EC" transform="translate(134,89)"/>
<path d="M0 0 C6.4 0.492 6.4 0.492 9.438 3.062 C9.695 3.382 9.695 3.382 11 5 C10.835 5.557 10.835 5.557 10 8.375 C9 12 9 12 9 14 C7.02 14.33 5.04 14.66 3 15 C3 14.34 3 13.68 3 13 C3.66 12.67 4.32 12.34 5 12 C5 11.34 5 10.68 5 10 C4.01 9.67 3.02 9.34 2 9 C1.67 9.66 1.34 10.32 1 11 C1 9.68 1 8.36 1 7 C-0.875 7.25 -0.875 7.25 -3 8 C-3.699 9.316 -4.367 10.65 -5 12 C-5.99 12.33 -6.98 12.66 -8 13 C-8.33 13.33 -8.66 13.66 -9 14 C-9.66 14 -10.32 14 -11 14 C-11 13.34 -11 12.68 -11 12 C-11.474 12.639 -11.949 13.279 -12.438 13.938 C-16.054 16.849 -19.472 16.806 -24 17 C-24 15.68 -24 14.36 -24 13 C-23.01 13 -22.02 13 -21 13 C-19.307 12.045 -17.641 11.041 -16 10 C-15.299 9.67 -14.597 9.34 -13.875 9 C-11.854 7.922 -10.533 6.687 -9 5 C-8.67 5.66 -8.34 6.32 -8 7 C-7.01 6.67 -6.02 6.34 -5 6 C-5 5.34 -5 4.68 -5 4 C-4.381 3.856 -3.762 3.711 -3.125 3.562 C-1 3 -1 3 1 2 C0.67 1.34 0.34 0.68 0 0 Z " fill="#4995EB" transform="translate(162,36)"/>
<path d="M0 0 C-2.666 1.777 -5.028 2.875 -8 4 C-8.365 6.874 -8.717 9.749 -9.062 12.625 C-9.166 13.433 -9.27 14.241 -9.377 15.074 C-9.913 19.621 -10.046 23.48 -9 28 C-8.67 28 -8.34 28 -8 28 C-7.835 26.515 -7.835 26.515 -7 19 C-6.01 18.67 -5.02 18.34 -4 18 C-4 18.66 -4 19.32 -4 20 C-3.34 20.33 -2.68 20.66 -2 21 C-2.66 22.98 -3.32 24.96 -4 27 C-3.34 27 -2.68 27 -2 27 C-3 30 -3 30 -6 32 C-6.188 35.625 -6.188 35.625 -6 39 C-6.33 39.165 -6.33 39.165 -8 40 C-7.01 40.66 -6.02 41.32 -5 42 C-5.33 42.99 -5.66 43.98 -6 45 C-6.672 47.332 -7.339 49.665 -8 52 C-8.66 52 -9.32 52 -10 52 C-9.988 51.385 -9.988 51.385 -9.93 48.273 C-9.911 46.641 -9.893 45.008 -9.875 43.375 C-9.858 42.567 -9.841 41.759 -9.824 40.926 C-9.785 36.118 -10.399 32.569 -12 28 C-12.448 25.008 -12.641 22.019 -12.812 19 C-12.876 18.219 -12.94 17.438 -13.006 16.633 C-13.307 11.589 -12.814 8.383 -10 4 C-6.694 0.694 -4.699 -0.537 0 0 Z " fill="#4593EC" transform="translate(142,36)"/>
<path d="M0 0 C3.605 0.598 3.908 0.874 6.25 4.062 C6.828 5.032 7.405 6.001 8 7 C7.34 7.99 6.68 8.98 6 10 C4.68 10 3.36 10 2 10 C1.991 11.291 1.981 12.582 1.972 13.912 C1.932 18.728 1.866 23.544 1.792 28.359 C1.764 30.439 1.743 32.518 1.729 34.598 C1.707 37.597 1.661 40.595 1.609 43.594 C1.609 44.054 1.609 44.054 1.606 46.385 C1.471 52.391 0.47 57.013 -3 62 C-8.02 66.792 -13.912 67.551 -20.611 67.439 C-21.585 67.398 -22.559 67.356 -23.562 67.312 C-24.571 67.29 -25.58 67.267 -26.619 67.244 C-29.081 67.186 -31.54 67.104 -34 67 C-34 66.34 -34 65.68 -34 65 C-33.698 64.99 -33.698 64.99 -32.167 64.94 C-29.403 64.844 -26.639 64.735 -23.875 64.625 C-22.924 64.594 -21.972 64.563 -20.992 64.531 C-15.983 64.323 -11.696 63.945 -7 62 C-7 61.34 -7 60.68 -7 60 C-6.505 59.835 -6.505 59.835 -4 59 C-0.015 53.46 -0.525 47.361 -0.488 40.82 C-0.47 39.652 -0.452 38.485 -0.434 37.281 C-0.38 33.563 -0.346 29.844 -0.312 26.125 C-0.279 23.599 -0.245 21.073 -0.209 18.547 C-0.124 12.365 -0.056 6.183 0 0 Z " fill="#555757" transform="translate(85,133)"/>
<path d="M0 0 C0.33 0 0.66 0 1 0 C2.152 6.401 2.134 12.686 2.114 19.177 C2.114 20.388 2.114 21.598 2.114 22.846 C2.113 26.147 2.108 29.448 2.101 32.749 C2.095 36.206 2.095 39.662 2.093 43.119 C2.09 49.656 2.082 56.194 2.072 62.732 C2.061 70.178 2.055 77.624 2.05 85.07 C2.04 100.38 2.022 115.69 2 131 C1.67 131 1.34 131 1 131 C0.67 95.36 0.34 59.72 0 23 C-0.33 23 -0.66 23 -1 23 C-1.029 19.542 -1.047 16.083 -1.062 12.625 C-1.071 11.64 -1.079 10.655 -1.088 9.641 C-1.091 8.7 -1.094 7.759 -1.098 6.789 C-1.103 5.92 -1.108 5.05 -1.114 4.155 C-1 2 -1 2 0 0 Z " fill="#D8C6A6" transform="translate(177,54)"/>
<path d="M0 0 C0.751 0.001 1.502 0.001 2.275 0.002 C6.163 0.033 9.767 0.244 13.562 1.188 C9.922 4.67 5.443 5.593 0.562 6.188 C0.233 5.858 -0.097 5.528 -0.438 5.188 C-2.404 5.364 -4.363 5.629 -6.312 5.938 C-6.847 6.017 -6.847 6.017 -9.555 6.422 C-12.569 7.223 -13.727 7.613 -15.438 10.188 C-15.949 12.668 -15.949 12.668 -16.125 15.375 C-16.191 16.276 -16.256 17.177 -16.324 18.105 C-16.362 18.793 -16.399 19.48 -16.438 20.188 C-17.428 20.188 -18.417 20.188 -19.438 20.188 C-19.83 10.175 -19.83 10.175 -17.438 6.188 C-11.763 0.961 -7.63 -0.124 0 0 Z " fill="#6EB0F7" transform="translate(151.4375,33.8125)"/>
<path d="M0 0 C2.31 0.33 4.62 0.66 7 1 C7.33 1.99 7.66 2.98 8 4 C7.422 4.021 6.845 4.041 6.25 4.062 C2.621 5.575 1.777 8.569 0 12 C-0.33 12.33 -0.66 12.66 -1 13 C0.32 13.33 1.64 13.66 3 14 C2.34 15.32 1.68 16.64 1 18 C0.67 17.34 0.34 16.68 0 16 C-0.949 16.351 -1.898 16.701 -2.875 17.062 C-6 18 -6 18 -8 17 C-8 17.66 -8 18.32 -8 19 C-7.34 19.33 -6.68 19.66 -6 20 C-6.66 20 -7.32 20 -8 20 C-8.33 20.66 -8.66 21.32 -9 22 C-10.208 18.377 -9.543 17.359 -8 14 C-7.34 14 -6.68 14 -6 14 C-6 13.34 -6 12.68 -6 12 C-6.99 11.67 -7.98 11.34 -9 11 C-9.688 8.938 -9.688 8.938 -10 7 C-9.01 6.67 -8.02 6.34 -7 6 C-6.505 5.505 -6.01 5.01 -5.5 4.5 C-4 3 -4 3 -1 2 C-0.67 1.34 -0.34 0.68 0 0 Z " fill="#529AED" transform="translate(52,41)"/>
<path d="M0 0 C0.33 0 0.66 0 1 0 C1 17.82 1 35.64 1 54 C-0.32 54.66 -1.64 55.32 -3 56 C-3.33 55.67 -3.66 55.34 -4 55 C-5.32 55.66 -6.64 56.32 -8 57 C-7.67 57.66 -7.34 58.32 -7 59 C-7.938 61.125 -7.938 61.125 -9 63 C-9.66 63 -10.32 63 -11 63 C-11 62.34 -11 61.68 -11 61 C-11.99 61 -12.98 61 -14 61 C-13.67 62.32 -13.34 63.64 -13 65 C-13.66 65 -14.32 65 -15 65 C-15 64.34 -15 63.68 -15 63 C-15.99 62.67 -16.98 62.34 -18 62 C-18 61.34 -18 60.68 -18 60 C-17.34 60 -16.68 60 -16 60 C-16 59.34 -16 58.68 -16 58 C-16.66 57.67 -17.32 57.34 -18 57 C-17.093 57.041 -16.185 57.083 -15.25 57.125 C-12.122 57.005 -10.614 56.609 -8 55 C-8 54.34 -8 53.68 -8 53 C-7.34 53 -6.68 53 -6 53 C-6 52.34 -6 51.68 -6 51 C-6.66 51 -7.32 51 -8 51 C-8.495 49.845 -8.495 49.845 -11 44 C-10.67 43.835 -10.67 43.835 -9 43 C-6 47.75 -6 47.75 -6 50 C-5.34 50 -4.68 50 -4 50 C-3.67 50.66 -3.34 51.32 -3 52 C-2.01 52.33 -1.02 52.66 0 53 C0 35.51 0 18.02 0 0 Z " fill="#2576D6" transform="translate(129,50)"/>
<path d="M0 0 C1.16 -0.029 2.319 -0.058 3.514 -0.088 C10.623 -0.14 15.253 0.524 21.312 4.312 C19.812 5.812 19.812 5.812 17.312 7.312 C15.41 7.28 13.506 7.241 11.605 7.148 C7.913 7.413 4.835 8.986 1.512 10.535 C-0.688 11.312 -0.688 11.312 -3.688 10.312 C-3.688 8.992 -3.688 7.672 -3.688 6.312 C-3.38 6.282 -3.38 6.282 -1.824 6.129 C-1.016 6.045 -0.208 5.961 0.625 5.875 C1.025 5.834 1.025 5.834 3.051 5.629 C5.312 5.312 5.312 5.312 8.312 4.312 C8.642 3.653 8.972 2.992 9.312 2.312 C6.104 2.452 2.896 2.601 -0.312 2.75 C-1.216 2.789 -2.12 2.829 -3.051 2.869 C-7.67 3.088 -12.139 3.413 -16.688 4.312 C-16.358 3.322 -16.028 2.333 -15.688 1.312 C-10.613 -0.379 -5.313 0.044 0 0 Z " fill="#61A7F1" transform="translate(62.6875,33.6875)"/>
<path d="M0 0 C1.32 0 2.64 0 4 0 C4.33 1.32 4.66 2.64 5 4 C5.99 4 6.98 4 8 4 C8 4.66 8 5.32 8 6 C8.66 6 9.32 6 10 6 C10.66 9.3 11.32 12.6 12 16 C12.66 16 13.32 16 14 16 C17 21.75 17 21.75 17 24 C17.603 24.094 18.207 24.188 18.828 24.285 C21.498 25.164 22.198 26.133 23.75 28.438 C24.178 29.055 24.606 29.672 25.047 30.309 C26 32 26 32 26 34 C26.66 34 27.32 34 28 34 C29.125 37.75 29.125 37.75 28 40 C28.66 40 29.32 40 30 40 C29.67 41.32 29.34 42.64 29 44 C25.23 39.564 22.245 34.747 19.188 29.812 C15.892 24.529 12.589 19.298 8.938 14.25 C3 5.966 3 5.966 3 1 C2.01 1.33 1.02 1.66 0 2 C0 1.34 0 0.68 0 0 Z " fill="#1B74D1" transform="translate(83,122)"/>
<path d="M0 0 C0.33 0.66 0.66 1.32 1 2 C1.66 2.33 2.32 2.66 3 3 C2.34 3 1.68 3 1 3 C-0.125 8.625 -0.125 8.625 1 12 C0.67 12.66 0.34 13.32 0 14 C1.32 13.67 2.64 13.34 4 13 C4.33 13.66 4.66 14.32 5 15 C6.979 15.727 8.98 16.398 11 17 C10.67 17.99 10.34 18.98 10 20 C13.875 18.25 13.875 18.25 15 16 C15.66 16.66 16.32 17.32 17 18 C15.02 19.32 13.04 20.64 11 22 C11.66 22.66 12.32 23.32 13 24 C13.33 24.33 13.66 24.66 14 25 C14.66 25.33 15.32 25.66 16 26 C15.361 26.289 14.721 26.577 14.062 26.875 C12 28 12 28 11 30 C10.835 29.175 10.835 29.175 10 25 C9.34 25 8.68 25 8 25 C6.378 22.763 4.977 20.423 3.535 18.066 C2 16 2 16 -1 15 C-4 9.778 -4 9.778 -4 7 C-4.66 7 -5.32 7 -6 7 C-6.66 5.02 -7.32 3.04 -8 1 C-6.866 1.021 -5.731 1.041 -4.562 1.062 C-1 1 -1 1 0 0 Z " fill="#2E85E0" transform="translate(101,131)"/>
<path d="M0 0 C1.65 1.65 3.3 3.3 5 5 C3 7 1 9 -1 11 C-1.272 12.448 -1.49 13.906 -1.684 15.367 C-1.807 16.253 -1.93 17.138 -2.057 18.051 C-2.309 19.925 -2.559 21.8 -2.807 23.676 C-2.931 24.564 -3.055 25.452 -3.184 26.367 C-3.292 27.183 -3.401 27.999 -3.513 28.839 C-4 31 -4 31 -6 34 C-6.025 30.067 -6.043 26.135 -6.055 22.202 C-6.062 20.207 -6.075 18.212 -6.088 16.217 C-6.091 14.963 -6.094 13.71 -6.098 12.418 C-6.103 11.261 -6.108 10.103 -6.114 8.911 C-6 6 -6 6 -5 3 C-3.677 2.628 -2.343 2.294 -1 2 C-0.67 1.34 -0.34 0.68 0 0 Z " fill="#B7A788" transform="translate(92,140)"/>
<path d="M0 0 C1.912 3.825 2.239 4.969 2.16 8.992 C2.149 9.945 2.138 10.897 2.127 11.879 C2.116 12.373 2.116 12.373 2.062 14.875 C1.958 20.748 1.973 26.2 3 32 C2.062 35.375 2.062 35.375 1 38 C1.66 38 2.32 38 3 38 C2.958 38.338 2.958 38.338 2.746 40.047 C2.644 40.939 2.542 41.831 2.438 42.75 C2.385 43.191 2.385 43.191 2.121 45.422 C2 48 2 48 2.48 49.911 C3.355 53.426 3.226 56.956 3.25 60.562 C3.271 61.33 3.291 62.098 3.312 62.889 C3.328 65.129 3.328 65.129 3 69 C2.01 69.99 1.02 70.98 0 72 C0 48.24 0 24.48 0 0 Z " fill="#E5D8BC" transform="translate(180,76)"/>
<path d="M0 0 C0.33 0 0.66 0 1 0 C1.327 4.683 0.864 7.248 -2 11 C-8.385 16.894 -15.034 16.39 -23.375 16.812 C-24.499 16.889 -25.623 16.966 -26.781 17.045 C-36.053 17.5 -36.053 17.5 -39.672 15.152 C-41.765 13.217 -43.46 11.396 -45 9 C-44.67 8.34 -44.34 7.68 -44 7 C-43.711 7.392 -43.711 7.392 -42.25 9.375 C-39.027 13.135 -39.027 13.135 -36 14 C-32.25 13.625 -32.25 13.625 -29 13 C-29 12.67 -29 12.34 -29 12 C-28.395 11.996 -27.791 11.992 -27.167 11.988 C-24.402 11.954 -21.639 11.884 -18.875 11.812 C-17.924 11.807 -16.972 11.801 -15.992 11.795 C-11.477 11.654 -8.028 11.542 -4.406 8.656 C-1.837 5.82 -0.861 3.701 0 0 Z " fill="#346399" transform="translate(83,182)"/>
<path d="M0 0 C3.946 3.654 6.752 7.497 9.5 12.125 C13.983 19.5 18.777 26.622 23.709 33.704 C23.974 34.085 23.974 34.085 25.312 36.016 C25.783 36.689 26.254 37.362 26.738 38.056 C27.987 39.98 29.016 41.929 30 44 C27.645 43.617 26.325 43.338 24.647 41.592 C24.45 41.295 24.45 41.295 23.449 39.789 C23.225 39.458 23.225 39.458 22.093 37.781 C21.629 37.07 21.165 36.358 20.688 35.625 C20.203 34.9 19.718 34.175 19.218 33.427 C15.93 28.489 12.719 23.5 9.562 18.477 C7.965 15.945 6.337 13.436 4.688 10.938 C4.217 10.225 3.746 9.512 3.262 8.777 C2 7 2 7 0 5 C-0.125 2.375 -0.125 2.375 0 0 Z " fill="#E3D5B9" transform="translate(100,152)"/>
<path d="M0 0 C0.99 0.66 1.98 1.32 3 2 C1.458 8.552 -4.153 11.198 -9.469 14.562 C-13.671 16.949 -16.613 18.561 -21.438 17.312 C-22.025 17.096 -22.025 17.096 -25 16 C-25.99 16 -26.98 16 -28 16 C-29.671 15.689 -31.339 15.359 -33 15 C-32.34 14.01 -31.68 13.02 -31 12 C-28.833 11.631 -28.833 11.631 -26.168 11.629 C-25.204 11.612 -24.241 11.594 -23.248 11.576 C-21.219 11.567 -19.191 11.562 -17.162 11.561 C-9.707 11.417 -9.707 11.417 -5.945 9.199 C-4.23 7.26 -2.877 5.541 -1.688 3.25 C-1.409 2.714 -1.409 2.714 0 0 Z " fill="#DBCDAA" transform="translate(177,193)"/>
<path d="M0 0 C0.33 0 0.66 0 1 0 C1 17.49 1 34.98 1 53 C-0.32 52.67 -1.64 52.34 -3 52 C-3 51.34 -3 50.68 -3 50 C-3.66 50 -4.32 50 -5 50 C-6.305 48.262 -6.305 48.262 -7.875 45.688 C-8.485 44.699 -9.094 43.71 -9.723 42.691 C-9.898 42.405 -9.898 42.405 -10.786 40.958 C-12.189 38.696 -13.622 36.455 -15.059 34.215 C-15.594 33.377 -16.13 32.539 -16.682 31.675 C-17.756 29.995 -18.833 28.316 -19.912 26.639 C-22.316 22.857 -24.57 19.281 -26 15 C-22.476 18.339 -19.736 21.641 -17.152 25.746 C-16.465 26.831 -15.777 27.916 -15.068 29.033 C-14.358 30.168 -13.648 31.303 -12.938 32.438 C-12.224 33.569 -11.51 34.7 -10.795 35.83 C-9.475 37.919 -8.157 40.01 -6.844 42.103 C-4.939 45.097 -2.968 48.048 -1 51 C-0.67 34.17 -0.34 17.34 0 0 Z " fill="#6795CC" transform="translate(128,50)"/>
<path d="M0 0 C3.795 1.491 5.61 3.757 8 7 C7.312 8.938 7.312 8.938 6 11 C3.375 11.75 3.375 11.75 1 12 C1.99 11.01 2.98 10.02 4 9 C2.68 8.34 1.36 7.68 0 7 C0 6.34 0 5.68 0 5 C-0.33 5.165 -0.33 5.165 -2 6 C-2.33 6.99 -2.66 7.98 -3 9 C-4.485 9.165 -4.485 9.165 -12 10 C-12.33 7.69 -12.66 5.38 -13 3 C-8.799 1.399 -5.478 0.896 -1 1 C-0.67 0.67 -0.34 0.34 0 0 Z " fill="#4F98ED" transform="translate(81,39)"/>
<path d="M0 0 C0.165 0.66 0.165 0.66 1 4 C0.031 4.804 -0.939 5.609 -1.938 6.438 C-5 9 -5 9 -6 10 C-5.01 10.33 -4.02 10.66 -3 11 C-9.139 14.684 -16.514 14.135 -23.438 14.062 C-24.264 14.058 -25.091 14.053 -25.943 14.049 C-27.962 14.037 -29.981 14.019 -32 14 C-32 13.67 -32 13.34 -32 13 C-27.38 12.67 -22.76 12.34 -18 12 C-18.596 11.945 -18.596 11.945 -21.613 11.668 C-23.18 11.509 -24.746 11.348 -26.312 11.188 C-27.098 11.117 -27.884 11.047 -28.693 10.975 C-29.451 10.894 -30.208 10.813 -30.988 10.73 C-31.685 10.662 -32.381 10.594 -33.099 10.524 C-35.439 9.879 -36.438 8.818 -38 7 C-37.433 7.083 -37.433 7.083 -34.562 7.5 C-11.077 10.031 -11.077 10.031 -3 5 C-0.938 2.312 -0.938 2.312 0 0 Z " fill="#255EA0" transform="translate(171,184)"/>
<path d="M0 0 C0.99 0.33 1.98 0.66 3 1 C2.34 1 1.68 1 1 1 C1 1.66 1 2.32 1 3 C1.66 3 2.32 3 3 3 C2.707 5.018 2.414 7.036 2.121 9.055 C2 11 2 11 3 13 C2.34 13 1.68 13 1 13 C1 13.66 1 14.32 1 15 C1.66 15 2.32 15 3 15 C3 15.66 3 16.32 3 17 C2.34 17 1.68 17 1 17 C1 18.32 1 19.64 1 21 C1.66 21.33 2.32 21.66 3 22 C2.34 22 1.68 22 1 22 C1 22.99 1 23.98 1 25 C1.66 25.33 2.32 25.66 3 26 C2.67 26.66 2.34 27.32 2 28 C2.99 28 3.98 28 5 28 C5 28.66 5 29.32 5 30 C4.01 30.33 3.02 30.66 2 31 C2.33 31.66 2.66 32.32 3 33 C2.01 33 1.02 33 0 33 C-0.33 33.66 -0.66 34.32 -1 35 C-1.976 29.298 -2.151 23.779 -2.125 18 C-2.129 17.136 -2.133 16.273 -2.137 15.383 C-2.117 2.117 -2.117 2.117 0 0 Z " fill="#4E9AEF" transform="translate(41,145)"/>
<path d="M0 0 C0.244 0.133 0.244 0.133 1.477 0.805 C8.417 4.262 15.345 5.172 23 6 C23 6.66 23 7.32 23 8 C27.62 8 32.24 8 37 8 C36.67 8.66 36.34 9.32 36 10 C31.958 10.029 27.917 10.047 23.875 10.062 C23.304 10.067 23.304 10.067 20.414 10.088 C19.305 10.091 18.197 10.094 17.055 10.098 C16.547 10.1 16.547 10.1 13.976 10.114 C10.909 9.997 8.014 9.568 5 9 C5.33 8.01 5.66 7.02 6 6 C5.216 5.732 4.433 5.464 3.625 5.188 C1 4 1 4 -1 1 C-0.67 0.67 -0.34 0.34 0 0 Z " fill="#CBBC98" transform="translate(130,195)"/>
<path d="M0 0 C2.898 2.729 5.051 5.421 7.125 8.812 C10.469 14.197 13.963 19.462 17.536 24.697 C24 34.278 24 34.278 24 40 C21.274 36.678 18.804 33.299 16.469 29.691 C15.823 28.697 15.177 27.702 14.512 26.678 C13.848 25.65 13.184 24.622 12.5 23.562 C11.177 21.522 9.854 19.482 8.531 17.441 C7.917 16.49 7.302 15.538 6.669 14.558 C5.334 12.512 3.969 10.496 2.578 8.488 C0.77 5.637 0.318 3.337 0 0 Z " fill="#EBE3CC" transform="translate(95,49)"/>
<path d="M0 0 C-2.375 1.562 -2.375 1.562 -5 3 C-5.66 2.67 -6.32 2.34 -7 2 C-7 2.66 -7 3.32 -7 4 C-7.66 4.33 -7.66 4.33 -11 6 C-11.33 5.34 -11.66 4.68 -12 4 C-12.33 4.495 -12.33 4.495 -14 7 C-14.99 7 -15.98 7 -17 7 C-17 6.01 -17 5.02 -17 4 C-18.296 4.425 -19.587 4.865 -20.875 5.312 C-21.594 5.556 -22.314 5.8 -23.055 6.051 C-25 7 -25 7 -27 10 C-27.66 10 -28.32 10 -29 10 C-28.658 7.466 -28.365 5.517 -26.875 3.406 C-24.162 1.372 -21.648 1.242 -18.312 0.812 C-17.133 0.654 -15.954 0.495 -14.738 0.332 C-13.835 0.222 -12.931 0.113 -12 0 C-12 0.66 -12 1.32 -12 2 C-11.01 1.34 -10.02 0.68 -9 0 C-5.405 -0.824 -3.534 -1.178 0 0 Z " fill="#5AA1F1" transform="translate(164,38)"/>
<path d="M0 0 C0.66 0.33 1.32 0.66 2 1 C1.928 4.099 1.77 6.252 -0.52 8.477 C-5.255 11.886 -8.789 13.132 -14.688 13.062 C-15.681 13.053 -16.675 13.044 -17.699 13.035 C-18.079 13.029 -18.079 13.029 -20 13 C-20 12.34 -20 11.68 -20 11 C-22.64 11 -25.28 11 -28 11 C-28 10.67 -28 10.34 -28 10 C-26.961 9.986 -25.922 9.972 -24.852 9.957 C-16.56 9.721 -8.79 9.405 -2 4 C-0.742 1.832 -0.742 1.832 0 0 Z " fill="#BFAD85" transform="translate(173,190)"/>
<path d="M0 0 C0.99 0.33 1.98 0.66 3 1 C4.335 0.672 5.668 0.338 7 0 C9.249 -0.068 11.5 -0.085 13.75 -0.062 C14.335 -0.058 14.335 -0.058 17.297 -0.035 C18.189 -0.024 19.081 -0.012 20 0 C19.67 0.99 19.34 1.98 19 3 C16.03 3.33 16.03 3.33 1 5 C1 5.66 1 6.32 1 7 C-0.375 8.5 -0.375 8.5 -2 10 C-2.66 10.66 -3.32 11.32 -4 12 C-4.125 9.125 -4.125 9.125 -4 6 C-3.34 5.34 -2.68 4.68 -2 4 C-2.33 3.34 -2.66 2.68 -3 2 C-2.01 1.34 -1.02 0.68 0 0 Z " fill="#78B6F8" transform="translate(45,36)"/>
<path d="M0 0 C3.904 1.301 4.453 2.904 6.562 6.375 C6.862 6.864 6.862 6.864 8.379 9.336 C8.914 10.215 9.449 11.094 10 12 C10.33 12.495 10.33 12.495 12 15 C11.67 15.99 11.34 16.98 11 18 C10.529 17.29 10.059 16.579 9.574 15.848 C9.263 15.388 9.263 15.388 7.688 13.062 C7.073 12.146 6.458 11.229 5.824 10.285 C4 8 4 8 1 7 C1 19.54 1 32.08 1 45 C0.67 45 0.34 45 0 45 C0 30.15 0 15.3 0 0 Z " fill="#07346E" transform="translate(84,126)"/>
<path d="M0 0 C0.66 0.33 1.32 0.66 2 1 C1.832 1.688 1.665 2.377 1.492 3.086 C0.761 7.417 1.088 11.663 1.258 16.039 C1 19 1 19 -0.383 20.898 C-2 22 -2 22 -4 22 C-4.381 19.674 -4.713 17.339 -5 15 C-4.67 14.67 -4.34 14.34 -4 14 C-3.765 11.817 -3.586 9.628 -3.438 7.438 C-3.354 6.24 -3.27 5.042 -3.184 3.809 C-3.123 2.882 -3.062 1.955 -3 1 C-2.01 0.67 -1.02 0.34 0 0 Z " fill="#59A7F4" transform="translate(134,89)"/>
<path d="M0 0 C0.99 0.33 1.98 0.66 3 1 C2.51 1.4 2.019 1.8 1.514 2.213 C-0.429 4.506 -0.327 5.63 -0.223 8.598 C-0.204 9.481 -0.185 10.365 -0.166 11.275 C-0.149 11.735 -0.149 11.735 -0.062 14.062 C-0.003 15.886 0.049 17.711 0.09 19.535 C0.119 20.343 0.149 21.152 0.179 21.985 C0 24 0 24 -2 26 C-5.298 21.053 -5.831 14.87 -5 9 C-3.795 5.839 -2.425 2.425 0 0 Z " fill="#4F99E7" transform="translate(41,39)"/>
<path d="M0 0 C0.75 1.625 0.75 1.625 1 4 C-1.294 8.787 -3.958 10.985 -8.586 13.197 C-13.146 14.714 -17.748 14.412 -22.5 14.25 C-23.513 14.232 -24.526 14.214 -25.57 14.195 C-28.048 14.149 -30.523 14.083 -33 14 C-33 13.34 -33 12.68 -33 12 C-32.395 11.98 -31.791 11.96 -31.167 11.94 C-28.403 11.844 -25.639 11.735 -22.875 11.625 C-22.399 11.61 -22.399 11.61 -19.992 11.531 C-14.983 11.323 -10.696 10.945 -6 9 C-6 8.34 -6 7.68 -6 7 C-5.01 6.67 -4.02 6.34 -3 6 C-1.312 2.938 -1.312 2.938 0 0 Z " fill="#354D6B" transform="translate(84,186)"/>
<path d="M0 0 C0.459 0.41 0.918 0.82 1.391 1.242 C2.004 1.781 2.618 2.32 3.25 2.875 C3.853 3.409 4.457 3.942 5.078 4.492 C8.751 7.373 11.78 8.272 16.422 8.633 C17.447 8.717 18.471 8.8 19.527 8.887 C20.591 8.965 21.654 9.044 22.75 9.125 C23.829 9.211 24.908 9.298 26.02 9.387 C28.679 9.599 31.339 9.803 34 10 C34 10.33 34 10.66 34 11 C29.135 11.947 24.438 12.247 19.5 12.312 C18.767 12.342 18.033 12.371 17.277 12.4 C11.209 12.471 7.732 10.656 3.32 6.367 C0 2.222 0 2.222 0 0 Z " fill="#4275AE" transform="translate(125,185)"/>
<path d="M0 0 C1.174 2.349 1.115 3.738 1.098 6.352 C1.094 7.202 1.091 8.053 1.088 8.93 C1.08 9.819 1.071 10.709 1.062 11.625 C1.058 12.522 1.053 13.419 1.049 14.344 C1.037 16.563 1.021 18.781 1 21 C0.01 21.33 -0.98 21.66 -2 22 C-1.917 21.072 -1.835 20.144 -1.75 19.188 C-2 16 -2 16 -4 14.125 C-4.66 13.754 -5.32 13.382 -6 13 C-4.68 11.35 -3.36 9.7 -2 8 C-2.99 7.67 -3.98 7.34 -5 7 C-4.602 4.114 -4.21 3.178 -1.938 1.25 C-1.298 0.838 -0.659 0.425 0 0 Z " fill="#3484DF" transform="translate(171,97)"/>
<path d="M0 0 C1.32 0.66 2.64 1.32 4 2 C3.01 2 2.02 2 1 2 C0.67 15.2 0.34 28.4 0 42 C-0.66 42 -1.32 42 -2 42 C-1.988 41.644 -1.988 41.644 -1.93 39.84 C-1.822 34.116 -2.079 29.402 -4 24 C-3.34 23.34 -2.68 22.68 -2 22 C-2.375 19.375 -2.375 19.375 -3 17 C-2.34 17 -1.68 17 -1 17 C-1.012 15.94 -1.023 14.881 -1.035 13.789 C-1.045 12.401 -1.054 11.013 -1.062 9.625 C-1.071 8.926 -1.079 8.228 -1.088 7.508 C-1.113 2.227 -1.113 2.227 0 0 Z " fill="#2276D2" transform="translate(82,120)"/>
<path d="M0 0 C2.938 0.812 2.938 0.812 6 2 C7.208 5.623 6.543 6.641 5 10 C4.34 10 3.68 10 3 10 C3 8.68 3 7.36 3 6 C2.34 6 1.68 6 1 6 C1.248 6.578 1.495 7.155 1.75 7.75 C2 10 2 10 0.312 12.188 C-1.92 13.937 -3.235 14.605 -6 15 C-5.34 14.01 -4.68 13.02 -4 12 C-3.01 12 -2.02 12 -1 12 C-1.206 10.948 -1.412 9.896 -1.625 8.812 C-2 5.004 -1.716 3.332 0 0 Z " fill="#4796ED" transform="translate(93,59)"/>
<path d="M0 0 C0.66 0.33 1.32 0.66 2 1 C2.594 3.649 2.742 6.292 3 9 C2.67 9.165 2.67 9.165 1 10 C1.99 10.66 2.98 11.32 4 12 C3.67 12.99 3.34 13.98 3 15 C2.328 17.332 1.661 19.665 1 22 C0.34 22 -0.32 22 -1 22 C-1.029 18.521 -1.047 15.042 -1.062 11.562 C-1.071 10.569 -1.079 9.576 -1.088 8.553 C-1.091 7.608 -1.094 6.664 -1.098 5.691 C-1.103 4.817 -1.108 3.942 -1.114 3.041 C-1 1 -1 1 0 0 Z " fill="#58A4F2" transform="translate(133,66)"/>
<path d="M0 0 C0.66 0.33 1.32 0.66 2 1 C1.52 5.32 0.385 7.273 -3 10 C-6.729 12.008 -8.941 12.16 -13 11 C-13 10.34 -13 9.68 -13 9 C-12.229 8.602 -11.458 8.203 -10.664 7.793 C-9.661 7.263 -8.658 6.733 -7.625 6.188 C-6.627 5.665 -5.63 5.143 -4.602 4.605 C-2 3 -2 3 0 0 Z " fill="#BEAD88" transform="translate(83,192)"/>
<path d="M0 0 C3.601 3.349 6.363 7.068 9.188 11.062 C9.638 11.687 10.089 12.312 10.553 12.955 C12.446 15.615 13.961 17.884 15 21 C12.545 20.618 11.284 20.295 9.536 18.481 C9.096 17.842 8.656 17.202 8.203 16.543 C7.72 15.842 7.236 15.142 6.738 14.42 C6.247 13.683 5.756 12.947 5.25 12.188 C4.743 11.462 4.237 10.737 3.715 9.99 C0 4.518 0 4.518 0 0 Z " fill="#E6DAC1" transform="translate(115,175)"/>
<path d="M0 0 C0.33 0.66 0.66 1.32 1 2 C1.66 2 2.32 2 3 2 C3.126 8.426 3.126 8.426 2.438 11.562 C2 14 2 14 2.5 16.875 C3.099 20.618 2.952 23.326 2 27 C-0.562 29.438 -0.562 29.438 -3 31 C-2.683 29.928 -2.366 28.855 -2.039 27.75 C-0.655 22.213 -0.546 16.682 -0.375 11 C-0.336 9.939 -0.298 8.878 -0.258 7.785 C-0.164 5.19 -0.079 2.595 0 0 Z " fill="#E2D4B4" transform="translate(91,169)"/>
<path d="M0 0 C0.66 0.33 1.32 0.66 2 1 C1.79 12.804 1.79 12.804 -1.188 16.688 C-6.643 21.173 -13.253 20.12 -20 20 C-20 19.67 -20 19.34 -20 19 C-19.203 18.902 -18.407 18.804 -17.586 18.703 C-5.537 17.003 -5.537 17.003 -2 13 C-0.912 8.695 -0.37 4.42 0 0 Z " fill="#CABA95" transform="translate(175,184)"/>
<path d="M0 0 C0.33 0 0.66 0 1 0 C1.245 9.089 1.206 18.122 -1 27 C-1.66 27.66 -2.32 28.32 -3 29 C-3.934 25.99 -4.044 25.133 -3 22 C-2.822 19.961 -2.681 17.918 -2.562 15.875 C-2.181 10.385 -1.354 5.328 0 0 Z " fill="#C4B591" transform="translate(88,165)"/>
<path d="M0 0 C0.33 0 0.66 0 1 0 C1 1.98 1 3.96 1 6 C0.34 6 -0.32 6 -1 6 C-1.361 6.392 -1.361 6.392 -3.188 8.375 C-8.461 13.297 -14.195 13.214 -21.059 13.07 C-21.699 13.047 -22.34 13.024 -23 13 C-21.887 11.512 -21.887 11.512 -20 10 C-17.082 9.707 -17.082 9.707 -13.812 9.812 C-12.726 9.84 -11.639 9.867 -10.52 9.895 C-10.104 9.912 -10.104 9.912 -8 10 C-8 9.34 -8 8.68 -8 8 C-6.35 7.67 -4.7 7.34 -3 7 C-2.67 5.35 -2.34 3.7 -2 2 C-1.34 2 -0.68 2 0 2 C0 1.34 0 0.68 0 0 Z " fill="#226CBD" transform="translate(172,180)"/>
<path d="M0 0 C2.729 -0.027 5.458 -0.047 8.188 -0.062 C8.956 -0.071 9.725 -0.079 10.518 -0.088 C14.485 -0.105 18.126 0.014 22 1 C18.577 4.15 15.557 4.562 11 5 C11 4.34 11 3.68 11 3 C7.37 2.67 3.74 2.34 0 2 C0 1.34 0 0.68 0 0 Z " fill="#69ACF1" transform="translate(143,34)"/>
<path d="M0 0 C1.155 0.66 1.155 0.66 7 4 C7 4.99 7 5.98 7 7 C7.866 7.124 8.733 7.248 9.625 7.375 C12.895 7.981 15.873 8.883 19 10 C19 10.66 19 11.32 19 12 C16.69 12 14.38 12 12 12 C12 11.34 12 10.68 12 10 C10.02 10 8.04 10 6 10 C5.959 9.423 5.918 8.845 5.875 8.25 C4.559 4.867 2.034 3.808 -1 2 C-0.67 1.34 -0.34 0.68 0 0 Z " fill="#E5D7BA" transform="translate(41,195)"/>
<path d="M0 0 C9.295 3.952 14.807 16.722 20 25 C19.01 25 18.02 25 17 25 C15.465 23.391 15.465 23.391 13.938 21.25 C13.431 20.554 12.924 19.858 12.402 19.141 C11.092 17.141 10.061 15.138 9 13 C8.043 11.486 7.063 9.986 6.062 8.5 C5.558 7.747 5.054 6.994 4.535 6.219 C3.073 4.105 1.557 2.045 0 0 Z " fill="#3E86D7" transform="translate(83,39)"/>
<path d="M0 0 C0.676 1.777 0.676 1.777 1 4 C-1.766 8.644 -6.021 11.342 -11.062 13 C-15.068 13.985 -17.977 14.137 -22 13 C-23.458 12.644 -24.916 12.289 -26.375 11.938 C-27.571 11.628 -28.767 11.319 -30 11 C-30 10.67 -30 10.34 -30 10 C-29.178 10.095 -28.355 10.191 -27.508 10.289 C-13.245 11.705 -13.245 11.705 -7 9 C-3.963 6.422 -1.777 3.554 0 0 Z " fill="#D5C7A4" transform="translate(87,194)"/>
<path d="M0 0 C1.32 0 2.64 0 4 0 C4.33 1.32 4.66 2.64 5 4 C5.99 4 6.98 4 8 4 C8 4.66 8 5.32 8 6 C8.66 6 9.32 6 10 6 C11.098 10.321 12.178 14.617 13 19 C11.648 17.348 10.32 15.677 9 14 C8.557 13.446 8.113 12.891 7.656 12.32 C4.8 8.583 3.353 5.831 3 1 C2.01 1.33 1.02 1.66 0 2 C0 1.34 0 0.68 0 0 Z " fill="#186CC8" transform="translate(83,122)"/>
<path d="M0 0 C0.572 0.308 1.145 0.616 1.734 0.934 C10.285 4.959 20.725 4.563 30 5 C30 5.33 30 5.66 30 6 C26.294 6.285 22.585 6.522 18.875 6.75 C18.352 6.791 18.352 6.791 15.703 6.996 C6.97 7.494 6.97 7.494 3.32 5.203 C1 3 1 3 0 0 Z " fill="#3E72AE" transform="translate(40,190)"/>
<path d="M0 0 C0.598 0.619 1.196 1.238 1.812 1.875 C4 4 4 4 7 6 C7.33 6.33 7.66 6.66 8 7 C8.33 6.34 8.66 5.68 9 5 C9.66 5 10.32 5 11 5 C10.814 5.598 10.629 6.196 10.438 6.812 C10 9 10 9 11 12 C8.154 12.057 6.576 12.08 4 11 C1.588 8.227 -0.228 5.212 -2 2 C-1.34 1.34 -0.68 0.68 0 0 Z " fill="#2A7FD9" transform="translate(126,177)"/>
<path d="M0 0 C0.66 0 1.32 0 2 0 C2.33 1.32 2.66 2.64 3 4 C2.01 3.67 1.02 3.34 0 3 C0 17.19 0 31.38 0 46 C-0.33 46 -0.66 46 -1 46 C-1.025 39.61 -1.043 33.219 -1.055 26.829 C-1.06 24.653 -1.067 22.477 -1.075 20.302 C-1.088 17.181 -1.093 14.061 -1.098 10.941 C-1.103 9.962 -1.108 8.983 -1.113 7.974 C-1.113 7.073 -1.113 6.173 -1.114 5.244 C-1.116 4.447 -1.118 3.65 -1.12 2.829 C-1 1 -1 1 0 0 Z " fill="#0D58AE" transform="translate(84,123)"/>
<path d="M0 0 C1.125 1.688 1.125 1.688 2 4 C1.125 6.75 1.125 6.75 0 9 C0.66 9.33 1.32 9.66 2 10 C1.629 10.536 1.258 11.073 0.875 11.625 C-0.349 14.946 0.695 16.811 2 20 C0.68 19.67 -0.64 19.34 -2 19 C-2.33 13.39 -2.66 7.78 -3 2 C-2.34 2 -1.68 2 -1 2 C-0.67 1.34 -0.34 0.68 0 0 Z " fill="#5A9FF1" transform="translate(42,64)"/>
<path d="M0 0 C1.812 0.199 1.812 0.199 4 1 C5.562 3.145 5.562 3.145 7 5.812 C8.977 9.45 10.952 12.182 14 15 C13.67 15.165 13.67 15.165 12 16 C10.333 14.333 8.667 12.667 7 11 C6.113 10.196 5.226 9.391 4.312 8.562 C1.8 5.778 0.921 3.601 0 0 Z " fill="#2871C4" transform="translate(120,176)"/>
<path d="M0 0 C0.66 0.165 0.66 0.165 4 1 C3.835 2.114 3.67 3.227 3.5 4.375 C3 8 3 8 3 10 C3.66 10.33 4.32 10.66 5 11 C4.34 12.98 3.68 14.96 3 17 C2.34 17 1.68 17 1 17 C0.636 14.918 0.284 12.835 -0.062 10.75 C-0.26 9.59 -0.457 8.43 -0.66 7.234 C-0.961 4.375 -0.944 2.667 0 0 Z " fill="#59A2F2" transform="translate(39,127)"/>
<path d="M0 0 C0.29 0.139 0.29 0.139 1.758 0.84 C6.178 2.89 10.095 4.497 15 5 C14.34 5.33 14.34 5.33 11 7 C12.32 7.99 13.64 8.98 15 10 C11.7 9.67 8.4 9.34 5 9 C5.33 8.01 5.66 7.02 6 6 C5.216 5.732 4.433 5.464 3.625 5.188 C1 4 1 4 -1 1 C-0.67 0.67 -0.34 0.34 0 0 Z " fill="#DAC8A5" transform="translate(130,195)"/>
<path d="M0 0 C0.33 0 0.66 0 1 0 C0.884 6.712 0.884 6.712 -1.186 9.727 C-5.889 14.217 -9.761 14.644 -16.146 14.527 C-17.233 14.477 -18.319 14.427 -19.438 14.375 C-20.551 14.348 -21.664 14.321 -22.811 14.293 C-25.542 14.223 -28.27 14.124 -31 14 C-31 13.67 -31 13.34 -31 13 C-30.395 12.985 -29.791 12.971 -29.167 12.956 C-26.403 12.881 -23.639 12.784 -20.875 12.688 C-20.399 12.676 -20.399 12.676 -17.992 12.619 C-12.641 12.415 -8.596 12.04 -4 9 C-1.859 6.12 -0.653 3.524 0 0 Z " fill="#1A58A3" transform="translate(82,180)"/>
<path d="M0 0 C0.33 0 0.66 0 1 0 C0.125 6.75 0.125 6.75 -1 9 C-1.66 9 -2.32 9 -3 9 C-3.33 9.99 -3.66 10.98 -4 12 C-5.98 12.33 -7.96 12.66 -10 13 C-8.63 9.839 -8.011 9.007 -5 7 C-4.312 4.875 -4.312 4.875 -4 3 C-3.01 3 -2.02 3 -1 3 C-0.67 2.01 -0.34 1.02 0 0 Z " fill="#3081DB" transform="translate(80,177)"/>
<path d="M0 0 C3.27 0.564 4.826 1.5 7 4 C6.67 5.114 6.34 6.227 6 7.375 C5 11 5 11 5 13 C3.02 13.33 1.04 13.66 -1 14 C-1 13.34 -1 12.68 -1 12 C-0.34 11.67 0.32 11.34 1 11 C1.484 9.004 1.484 9.004 1.75 6.562 C1.799 6.161 1.799 6.161 2.047 4.129 C2 2 2 2 0 0 Z " fill="#4A91DF" transform="translate(166,37)"/>
<path d="M0 0 C1.65 1.65 3.3 3.3 5 5 C4.67 5.495 4.67 5.495 3 8 C2.34 6.35 1.68 4.7 1 3 C-1.375 4.312 -1.375 4.312 -4 7 C-5.038 10.625 -5.568 14.259 -6 18 C-7.304 13.544 -7.335 9.466 -6 5 C-4.167 2.79 -2.432 1.604 0 0 Z " fill="#C3B599" transform="translate(96,146)"/>
<path d="M0 0 C0.282 0.081 0.282 0.081 1.707 0.492 C8.619 2.023 16.063 0.895 23 0 C23 0.99 23 1.98 23 3 C20.105 3.25 17.211 3.475 14.312 3.688 C13.904 3.724 13.904 3.724 11.838 3.908 C7.004 4.241 3.929 4.241 0 1 C0 0.67 0 0.34 0 0 Z " fill="#1F6AC0" transform="translate(42,190)"/>
<path d="M0 0 C0.33 0.66 0.66 1.32 1 2 C1.66 2 2.32 2 3 2 C6 7.75 6 7.75 6 10 C6.66 10 7.32 10 8 10 C8.33 11.32 8.66 12.64 9 14 C9.66 14 10.32 14 11 14 C10.67 15.32 10.34 16.64 10 18 C6.994 14.415 4.57 10.747 2.25 6.688 C1.636 5.619 1.023 4.55 0.391 3.449 C-0.068 2.641 -0.527 1.833 -1 1 C-0.67 0.67 -0.34 0.34 0 0 Z " fill="#1466C0" transform="translate(102,148)"/>
<path d="M0 0 C0.66 0.33 1.32 0.66 2 1 C2 4.96 2 8.92 2 13 C1.34 12.67 0.68 12.34 0 12 C-0.625 9.438 -0.625 9.438 -1 7 C-1.33 7.165 -1.33 7.165 -3 8 C-3 7.34 -3 6.68 -3 6 C-3.66 5.67 -4.32 5.34 -5 5 C-4.188 3.062 -4.188 3.062 -3 1 C-2.01 0.67 -1.02 0.34 0 0 Z " fill="#3884DD" transform="translate(170,56)"/>
<path d="M0 0 C0.99 0 1.98 0 3 0 C4.688 2 4.688 2 6 4 C6.66 3.34 7.32 2.68 8 2 C8.33 5.63 8.66 9.26 9 13 C4.766 9.393 2.531 4.854 0 0 Z " fill="#EDE1C8" transform="translate(119,89)"/>
<path d="M0 0 C0.66 0.33 1.32 0.66 2 1 C1.67 3.97 1.34 6.94 1 10 C0.01 10 -0.98 10 -2 10 C-2.33 10.66 -2.66 11.32 -3 12 C-3 8.37 -3 4.74 -3 1 C-2.01 0.67 -1.02 0.34 0 0 Z " fill="#4C9BEE" transform="translate(134,89)"/>
<path d="M0 0 C2.715 3.976 2.224 8.139 2.125 12.75 C2.116 13.543 2.107 14.336 2.098 15.152 C2.074 17.102 2.038 19.051 2 21 C1.67 21 1.34 21 1 21 C0.976 20.662 0.976 20.662 0.852 18.953 C0.777 18.061 0.702 17.169 0.625 16.25 C0.555 15.368 0.486 14.487 0.414 13.578 C-0.001 10.996 -0.819 9.303 -2 7 C-1.684 4.345 -1.194 2.388 0 0 Z " fill="#387FD0" transform="translate(172,43)"/>
<path d="M0 0 C0.66 0.33 1.32 0.66 2 1 C1.67 3.31 1.34 5.62 1 8 C-0.65 8.33 -2.3 8.66 -4 9 C-4 9.66 -4 10.32 -4 11 C-4.66 10.67 -5.32 10.34 -6 10 C-4.63 6.005 -2.743 3.2 0 0 Z " fill="#2E7FD7" transform="translate(168,179)"/>
<path d="M0 0 C-3 2 -3 2 -8 4 C-8.66 8.62 -9.32 13.24 -10 18 C-10.33 18 -10.66 18 -11 18 C-12.711 8.479 -12.711 8.479 -11.023 4.969 C-7.524 0.794 -5.265 -0.139 0 0 Z " fill="#61A6EE" transform="translate(142,36)"/>
<path d="M0 0 C1.831 3.129 2.239 5.376 2.195 8.984 C2.189 9.919 2.182 10.854 2.176 11.816 C2.159 12.784 2.142 13.753 2.125 14.75 C2.116 15.734 2.107 16.717 2.098 17.73 C2.074 20.154 2.041 22.577 2 25 C1.67 25 1.34 25 1 25 C0.939 24.287 0.879 23.574 0.816 22.84 C0.446 18.611 0.073 14.44 -0.625 10.25 C-1.042 6.635 -0.655 3.566 0 0 Z " fill="#4894EB" transform="translate(38,91)"/>
<path d="M0 0 C2 1 2 1 3.062 3.312 C4.368 8.448 5.095 13.691 5 19 C4.34 19.66 3.68 20.32 3 21 C2.963 20.169 2.925 19.337 2.887 18.48 C2.821 17.394 2.755 16.307 2.688 15.188 C2.629 14.109 2.571 13.03 2.512 11.918 C1.949 8.71 1.307 8.106 -1 6 C-0.688 2.812 -0.688 2.812 0 0 Z " fill="#EADCC0" transform="translate(177,50)"/>
<path d="M0 0 C0.99 0.33 1.98 0.66 3 1 C2.753 1.175 2.753 1.175 1.504 2.062 C-0.758 4.976 -0.217 7.379 -0.062 11 C0.209 17.686 0.209 17.686 -2 21 C-2 17.04 -2 13.08 -2 9 C-2.66 9 -3.32 9 -4 9 C-3.469 5.179 -2.503 2.938 0 0 Z " fill="#5AA1ED" transform="translate(41,39)"/>
<path d="M0 0 C2.284 3.427 2.16 4.084 1.688 8 C1.579 8.966 1.471 9.931 1.359 10.926 C1.241 11.94 1.122 12.955 1 14 C0.807 16.062 0.619 18.124 0.438 20.188 C0.292 21.792 0.146 23.396 0 25 C-0.33 25 -0.66 25 -1 25 C-1.027 22.146 -1.047 19.292 -1.062 16.438 C-1.071 15.638 -1.079 14.838 -1.088 14.014 C-1.107 9.228 -0.804 4.719 0 0 Z " fill="#D5C6A6" transform="translate(91,154)"/>
<path d="M0 0 C2.992 3.633 5.66 7.384 8.25 11.312 C8.956 12.381 9.663 13.45 10.391 14.551 C10.922 15.359 11.453 16.167 12 17 C11.67 17.66 11.34 18.32 11 19 C10.67 18.01 10.34 17.02 10 16 C9.34 16 8.68 16 8 16 C6.309 13.77 6.309 13.77 4.438 10.812 C3.817 9.85 3.197 8.887 2.559 7.895 C1.088 5.164 0.407 3.051 0 0 Z " fill="#3671BE" transform="translate(115,84)"/>
<path d="M0 0 C0.99 0.33 1.98 0.66 3 1 C4.374 3.854 3.953 5.163 3.062 8.25 C2.712 9.157 2.361 10.065 2 11 C1.34 10.67 0.68 10.34 0 10 C-0.449 7.969 -0.449 7.969 -0.688 5.5 C-0.774 4.685 -0.86 3.871 -0.949 3.031 C-0.966 2.361 -0.983 1.691 -1 1 C-0.67 0.67 -0.34 0.34 0 0 Z " fill="#5CA4F2" transform="translate(132,54)"/>
<path d="M0 0 C0.33 0 0.66 0 1 0 C1.323 4.631 0.948 7.34 -2 11 C-5.4 12.879 -8.15 13.22 -12 13 C-11.732 12.887 -11.732 12.887 -10.375 12.312 C-5.898 9.838 -2.615 7.482 -0.625 2.688 C-0.419 1.801 -0.213 0.914 0 0 Z " fill="#3971AE" transform="translate(83,182)"/>
<path d="M0 0 C0.99 0.99 1.98 1.98 3 3 C2.67 3.495 2.67 3.495 1 6 C-0.32 6 -1.64 6 -3 6 C-3.33 6.99 -3.66 7.98 -4 9 C-4 6.69 -4 4.38 -4 2 C-2.68 1.34 -1.36 0.68 0 0 Z " fill="#796E5C" transform="translate(90,137)"/>
<path d="M0 0 C0.75 1.562 0.75 1.562 1 4 C-0.741 8.891 -0.741 8.891 -3 11 C-6.344 11.9 -9.548 12.046 -13 12 C-10 10 -10 10 -7 8.625 C-2.887 6.397 -1.461 4.384 0 0 Z " fill="#3B72AC" transform="translate(173,183)"/>
<path d="M0 0 C0.66 0 1.32 0 2 0 C3.206 4.672 3.094 9.215 3 14 C2.01 14.33 1.02 14.66 0 15 C0 10.05 0 5.1 0 0 Z " fill="#E5D8BB" transform="translate(180,151)"/>
<path d="M0 0 C2.31 0 4.62 0 7 0 C7 0.33 7 0.66 7 1 C5.35 1 3.7 1 2 1 C2 1.66 2 2.32 2 3 C3.98 3.66 5.96 4.32 8 5 C4.62 6.04 1.522 6.08 -2 6 C-1.34 4.02 -0.68 2.04 0 0 Z " fill="#3C89E4" transform="translate(76,63)"/>
<path d="M0 0 C0.66 0.33 1.32 0.66 2 1 C1.836 1.562 1.673 2.124 1.504 2.703 C0.971 5.131 0.901 7.269 0.938 9.75 C0.947 10.549 0.956 11.348 0.965 12.172 C0.976 12.775 0.988 13.378 1 14 C0.01 14 -0.98 14 -2 14 C-2.369 4.59 -2.369 4.59 0 0 Z " fill="#6DADF4" transform="translate(134,40)"/>
<path d="M0 0 C-0.66 0.33 -0.66 0.33 -4 2 C-4 2.66 -4 3.32 -4 4 C-5.375 5.5 -5.375 5.5 -7 7 C-7.66 7.66 -8.32 8.32 -9 9 C-9.36 3.6 -9.36 3.6 -7.875 1.125 C-5.22 -0.468 -3.032 -0.202 0 0 Z " fill="#86BEF9" transform="translate(50,39)"/>
<path d="M0 0 C0.33 0 0.66 0 1 0 C1.054 2.959 1.094 5.916 1.125 8.875 C1.133 9.296 1.133 9.296 1.176 11.426 C1.182 12.231 1.189 13.037 1.195 13.867 C1.201 14.239 1.201 14.239 1.227 16.121 C1 18 1 18 -1 20 C-1.934 16.99 -2.044 16.133 -1 13 C-0.775 10.774 -0.592 8.544 -0.438 6.312 C-0.354 5.133 -0.27 3.954 -0.184 2.738 C-0.123 1.835 -0.062 0.931 0 0 Z " fill="#C3AD85" transform="translate(86,174)"/>
<path d="M0 0 C0.99 0.99 1.98 1.98 3 3 C-2.75 7 -2.75 7 -5 7 C-5.33 7.99 -5.66 8.98 -6 10 C-5.67 7.69 -5.34 5.38 -5 3 C-4.361 2.876 -3.721 2.752 -3.062 2.625 C-2.722 2.522 -2.722 2.522 -1 2 C-0.67 1.34 -0.34 0.68 0 0 Z " fill="#958A72" transform="translate(92,140)"/>
<path d="M0 0 C3.806 0.672 7.352 1.727 11 3 C11 3.66 11 4.32 11 5 C8.69 5 6.38 5 4 5 C4 4.01 4 3.02 4 2 C2.68 2 1.36 2 0 2 C0 1.34 0 0.68 0 0 Z " fill="#DDD0AF" transform="translate(49,202)"/>
<path d="M0 0 C0.66 0.33 1.32 0.66 2 1 C1.458 4.796 -0.201 6.472 -3 9 C-4.32 8.34 -5.64 7.68 -7 7 C-6.216 6.588 -5.433 6.175 -4.625 5.75 C-1.941 3.961 -1.119 2.95 0 0 Z " fill="#B4A583" transform="translate(173,190)"/>
<path d="M0 0 C0.66 0.33 1.32 0.66 2 1 C0.607 4.367 -0.979 5.986 -4 8 C-5.32 7.34 -6.64 6.68 -8 6 C-7.051 5.567 -6.103 5.134 -5.125 4.688 C-2 3 -2 3 0 0 Z " fill="#AC9C7C" transform="translate(83,192)"/>
<path d="M0 0 C2 1 2 1 2 1 Z M-2 1 C-1.34 1.33 -0.68 1.66 0 2 C-0.66 2.66 -1.32 3.32 -2 4 C-2.603 5.688 -3.139 7.4 -3.625 9.125 C-3.885 10.035 -4.146 10.945 -4.414 11.883 C-4.607 12.581 -4.801 13.28 -5 14 C-5.33 14 -5.66 14 -6 14 C-6.125 6.375 -6.125 6.375 -5 3 C-4.01 2.34 -3.02 1.68 -2 1 Z " fill="#A89A7D" transform="translate(92,144)"/>
<path d="M0 0 C0.66 0 1.32 0 2 0 C1.67 4.95 1.34 9.9 1 15 C0.01 15.33 -0.98 15.66 -2 16 C-1.928 15.42 -1.856 14.84 -1.781 14.242 C-1.352 10.63 -1 7.143 -1 3.5 C-1 1 -1 1 0 0 Z " fill="#2D80DB" transform="translate(80,120)"/>
<path d="M0 0 C-0.33 0.495 -0.33 0.495 -2 3 C-2 3.66 -2 4.32 -2 5 C-3.65 5.33 -5.3 5.66 -7 6 C-6.67 5.01 -6.34 4.02 -6 3 C-7.32 2.67 -8.64 2.34 -10 2 C-8.712 1.47 -7.42 0.951 -6.125 0.438 C-5.406 0.147 -4.686 -0.143 -3.945 -0.441 C-2 -1 -2 -1 0 0 Z " fill="#3D8AE6" transform="translate(58,82)"/>
<path d="M0 0 C1.611 3.222 0.827 5.576 0 9 C-2.562 11.438 -2.562 11.438 -5 13 C-4.548 11.394 -4.088 9.79 -3.625 8.188 C-3.37 7.294 -3.115 6.401 -2.852 5.48 C-2 3 -2 3 0 0 Z " fill="#E7D9BB" transform="translate(93,187)"/>
<path d="M0 0 C0.536 0.289 1.072 0.577 1.625 0.875 C4.353 2.167 7.126 3.086 10 4 C10 4.66 10 5.32 10 6 C3.524 5.389 3.524 5.389 1.062 3.562 C0 2 0 2 0 0 Z " fill="#4883C2" transform="translate(40,190)"/>
<path d="M0 0 C4.875 4.625 4.875 4.625 6 8 C5.34 8.66 4.68 9.32 4 10 C0.062 5.692 0.062 5.692 -0.25 2.188 C-0.168 1.466 -0.085 0.744 0 0 Z " fill="#D7C6A9" transform="translate(100,152)"/>
<path d="M0 0 C0.99 0.33 1.98 0.66 3 1 C2.34 1 1.68 1 1 1 C1 3.97 1 6.94 1 10 C0.01 10.33 -0.98 10.66 -2 11 C-1.86 9.354 -1.713 7.708 -1.562 6.062 C-1.481 5.146 -1.4 4.229 -1.316 3.285 C-1 1 -1 1 0 0 Z " fill="#57A1F2" transform="translate(41,145)"/>
<path d="M0 0 C-2 2 -2 2 -4.383 2.195 C-5.288 2.172 -6.193 2.149 -7.125 2.125 C-7.58 2.116 -7.58 2.116 -9.883 2.07 C-10.581 2.047 -11.28 2.024 -12 2 C-12 1.34 -12 0.68 -12 0 C-7.744 -1.161 -4.316 -0.762 0 0 Z " fill="#2676CF" transform="translate(58,190)"/>
<path d="M0 0 C0.66 0.99 1.32 1.98 2 3 C-0.353 5.724 -2.625 6.814 -6 8 C-6 6.68 -6 5.36 -6 4 C-4.68 3.67 -3.36 3.34 -2 3 C-2.33 2.34 -2.66 1.68 -3 1 C-2.01 0.67 -1.02 0.34 0 0 Z " fill="#4492E9" transform="translate(105,107)"/>
<path d="M0 0 C1.485 0.33 1.485 0.33 9 2 C8.01 2.99 7.02 3.98 6 5 C3.69 4.34 1.38 3.68 -1 3 C-0.67 2.01 -0.34 1.02 0 0 Z " fill="#E2D4B1" transform="translate(153,206)"/>
<path d="M0 0 C0.66 0 1.32 0 2 0 C2 0.66 2 1.32 2 2 C2.66 2 3.32 2 4 2 C5.562 4.812 5.562 4.812 7 8 C6.67 8.99 6.34 9.98 6 11 C4.994 9.546 3.996 8.086 3 6.625 C2.722 6.219 2.722 6.219 1.312 4.164 C0 2 0 2 0 0 Z " fill="#0C61B9" transform="translate(89,130)"/>
<path d="M0 0 C1.65 0 3.3 0 5 0 C4.602 2.886 4.21 3.822 1.938 5.75 C1.298 6.163 0.659 6.575 0 7 C-0.33 5.68 -0.66 4.36 -1 3 C-0.34 2.67 0.32 2.34 1 2 C0.67 1.34 0.34 0.68 0 0 Z " fill="#529CEF" transform="translate(162,36)"/>
<path d="M0 0 C0.66 0 1.32 0 2 0 C2.33 1.32 2.66 2.64 3 4 C2.01 3.67 1.02 3.34 0 3 C0 6.63 0 10.26 0 14 C-0.33 14 -0.66 14 -1 14 C-1.027 11.854 -1.046 9.708 -1.062 7.562 C-1.074 6.368 -1.086 5.173 -1.098 3.941 C-1 1 -1 1 0 0 Z " fill="#054B9E" transform="translate(84,123)"/>
<path d="M0 0 C1.65 0 3.3 0 5 0 C5 0.66 5 1.32 5 2 C6.32 2.33 7.64 2.66 9 3 C9 3.66 9 4.32 9 5 C5.7 4.01 2.4 3.02 -1 2 C-0.67 1.34 -0.34 0.68 0 0 Z " fill="#4896ED" transform="translate(83,115)"/>
<path d="M0 0 C0.75 1.625 0.75 1.625 1 4 C-0.938 7.25 -0.938 7.25 -3 10 C-3.99 9.01 -4.98 8.02 -6 7 C-5.01 6.67 -4.02 6.34 -3 6 C-1.312 2.938 -1.312 2.938 0 0 Z " fill="#354D68" transform="translate(84,186)"/>
<path d="M0 0 C0.99 0 1.98 0 3 0 C3.33 1.32 3.66 2.64 4 4 C4.66 4 5.32 4 6 4 C5.67 5.32 5.34 6.64 5 8 C2.748 5.312 1.118 3.354 0 0 Z " fill="#196DC5" transform="translate(107,158)"/>
<path d="M0 0 C0.99 0.33 1.98 0.66 3 1 C3 2.98 3 4.96 3 7 C2.01 7 1.02 7 0 7 C0 4.69 0 2.38 0 0 Z " fill="#5CA2F2" transform="translate(40,84)"/>
<path d="M0 0 C1.32 0 2.64 0 4 0 C4 0.66 4 1.32 4 2 C2.469 3.289 2.469 3.289 0.5 4.625 C-0.15 5.071 -0.799 5.517 -1.469 5.977 C-1.974 6.314 -2.479 6.652 -3 7 C-1.125 1.125 -1.125 1.125 0 0 Z " fill="#81B9FA" transform="translate(137,38)"/>
<path d="M0 0 C0.66 0 1.32 0 2 0 C2 2.64 2 5.28 2 8 C0.68 8.33 -0.64 8.66 -2 9 C-1.67 8.01 -1.34 7.02 -1 6 C-0.34 6 0.32 6 1 6 C0.67 4.02 0.34 2.04 0 0 Z " fill="#2F7FD8" transform="translate(169,168)"/>
<path d="M0 0 C0.66 0.33 0.66 0.33 4 2 C3.67 3.32 3.34 4.64 3 6 C2.01 5.67 1.02 5.34 0 5 C0 3.35 0 1.7 0 0 Z " fill="#071B3B" transform="translate(85,128)"/>
<path d="M0 0 C0.66 0 1.32 0 2 0 C2.082 4.161 1.982 7.947 1 12 C0.67 12 0.34 12 0 12 C-0.194 10.188 -0.38 8.376 -0.562 6.562 C-0.667 5.553 -0.771 4.544 -0.879 3.504 C-0.919 2.678 -0.959 1.851 -1 1 C-0.67 0.67 -0.34 0.34 0 0 Z " fill="#539DED" transform="translate(131,42)"/>
<path d="M0 0 C0.99 0.33 1.98 0.66 3 1 C0.688 3.5 0.688 3.5 -2 6 C-2.99 6 -3.98 6 -5 6 C-3.35 4.02 -1.7 2.04 0 0 Z " fill="#57A0F1" transform="translate(81,39)"/>
<path d="M0 0 C0.598 0.351 1.196 0.701 1.812 1.062 C-0.835 2.523 -2.082 3.062 -5.188 3.062 C-5.188 2.072 -5.188 1.083 -5.188 0.062 C-2.188 -0.938 -2.188 -0.938 0 0 Z " fill="#2878D1" transform="translate(70.1875,189.9375)"/>
<path d="M0 0 C0.33 0 0.66 0 1 0 C1 2.31 1 4.62 1 7 C0.01 7.33 -0.98 7.66 -2 8 C-2 6.02 -2 4.04 -2 2 C-1.34 2 -0.68 2 0 2 C0 1.34 0 0.68 0 0 Z " fill="#2E7BD6" transform="translate(171,111)"/>
<path d="M0 0 C0.99 0 1.98 0 3 0 C3 1.98 3 3.96 3 6 C2.01 6.33 1.02 6.66 0 7 C0 4.69 0 2.38 0 0 Z " fill="#5AA7F4" transform="translate(132,91)"/>
</svg>
