<?xml version="1.0" encoding="UTF-8"?>
<!-- Generator: visioncortex VTracer 0.6.12 -->
<svg version="1.1" xmlns="http://www.w3.org/2000/svg" width="207" height="235">
<path d="M0 0 C68.31 0 136.62 0 207 0 C207 77.55 207 155.1 207 235 C138.69 235 70.38 235 0 235 C0 157.45 0 79.9 0 0 Z " fill="#FBF5DF" transform="translate(0,0)"/>
<path d="M0 0 C1.536 1.316 3.058 2.648 4.562 4 C4.868 4.259 4.868 4.259 6.414 5.57 C20.476 18.348 28.693 39.349 29.727 57.955 C30.542 80.525 26.466 98.438 17.562 119 C17.961 119.447 18.359 119.895 18.77 120.355 C19.034 120.658 19.034 120.658 20.375 122.188 C20.897 122.779 21.419 123.371 21.957 123.98 C26.252 129.383 27.166 133.149 26.973 139.996 C26.03 146.896 21.69 151.536 16.379 155.746 C10.8 159.597 6.15 160.627 -0.438 160 C-4.639 158.512 -7.22 156.284 -10.375 153.25 C-13.977 150.017 -13.977 150.017 -17.875 149.875 C-21.283 150.951 -24.682 152.032 -28.031 153.281 C-40.866 157.115 -57.923 156.517 -70.438 152 C-71.416 151.66 -72.394 151.319 -73.402 150.969 C-92.998 143.504 -106.688 129.561 -115.895 111.074 C-126.148 88.182 -128.004 60.976 -119.538 37.266 C-111.039 15.121 -94.935 -1.269 -73.438 -11 C-49.279 -20.317 -20.288 -15.814 0 0 Z " fill="#1DCED8" transform="translate(147.4375,47)"/>
<path d="M0 0 C7.406 5.238 11.584 12.762 13.711 21.449 C13.793 22.089 13.876 22.728 13.961 23.387 C14.059 22.772 14.157 22.157 14.258 21.523 C15.48 14.92 15.48 14.92 17.711 12.449 C20.403 11.178 23.107 10.23 25.961 9.387 C25.631 10.377 25.301 11.367 24.961 12.387 C26.941 11.727 28.921 11.067 30.961 10.387 C30.148 12.324 30.148 12.324 28.961 14.387 C28.466 14.552 28.466 14.552 25.961 15.387 C25.631 19.347 25.301 23.307 24.961 27.387 C24.301 27.387 23.641 27.387 22.961 27.387 C22.961 28.047 22.961 28.707 22.961 29.387 C23.621 29.387 24.281 29.387 24.961 29.387 C24.961 30.047 24.961 30.707 24.961 31.387 C25.621 31.387 26.281 31.387 26.961 31.387 C26.961 32.047 26.961 32.707 26.961 33.387 C26.301 33.387 25.641 33.387 24.961 33.387 C25.129 33.941 25.296 34.495 25.469 35.066 C25.571 35.429 25.571 35.429 26.086 37.262 C26.19 37.621 26.19 37.621 26.719 39.441 C26.759 39.762 26.759 39.762 26.961 41.387 C26.631 41.717 26.631 41.717 24.961 43.387 C25.456 43.552 25.456 43.552 27.961 44.387 C27.961 45.047 27.961 45.707 27.961 46.387 C27.301 46.387 26.641 46.387 25.961 46.387 C25.631 47.707 25.301 49.027 24.961 50.387 C24.466 50.222 24.466 50.222 21.961 49.387 C19.438 49.691 19.438 49.691 16.586 50.262 C15.65 50.445 14.714 50.628 13.75 50.816 C11.911 51.193 10.072 51.573 8.234 51.957 C5.961 52.387 5.961 52.387 3.961 52.387 C4.621 53.377 5.281 54.367 5.961 55.387 C7.281 55.057 8.601 54.727 9.961 54.387 C7.471 57.054 5.327 58.944 1.961 60.387 C1.961 59.727 1.961 59.067 1.961 58.387 C1.301 58.387 0.641 58.387 -0.039 58.387 C-1.039 60.387 -1.039 60.387 -1.039 62.387 C-1.039 63.047 -1.039 63.707 -1.039 64.387 C-1.699 64.387 -2.359 64.387 -3.039 64.387 C-3.039 65.047 -3.039 65.707 -3.039 66.387 C-2.379 66.717 -1.719 67.047 -1.039 67.387 C-2.029 67.387 -3.019 67.387 -4.039 67.387 C-3.709 68.377 -3.379 69.367 -3.039 70.387 C-4.039 73.387 -4.039 73.387 -5.039 74.387 C-4.379 74.387 -3.719 74.387 -3.039 74.387 C-3.369 76.037 -3.699 77.687 -4.039 79.387 C-6.019 79.057 -7.999 78.727 -10.039 78.387 C-10.039 77.727 -10.039 77.067 -10.039 76.387 C-12.019 76.717 -13.999 77.047 -16.039 77.387 C-16.369 75.737 -16.699 74.087 -17.039 72.387 C-19.019 72.387 -20.999 72.387 -23.039 72.387 C-23.039 71.727 -23.039 71.067 -23.039 70.387 C-23.699 70.717 -23.699 70.717 -27.039 72.387 C-27.039 71.727 -27.039 71.067 -27.039 70.387 C-32.789 68.387 -32.789 68.387 -35.039 68.387 C-35.782 68.902 -36.524 69.418 -37.289 69.949 C-40.693 71.728 -42.392 71.32 -46.039 70.387 C-45.709 71.377 -45.379 72.367 -45.039 73.387 C-45.699 74.377 -46.359 75.367 -47.039 76.387 C-49.349 75.727 -51.659 75.067 -54.039 74.387 C-54.039 75.047 -54.039 75.707 -54.039 76.387 C-54.369 76.552 -54.369 76.552 -56.039 77.387 C-56.039 79.037 -56.039 80.687 -56.039 82.387 C-57.029 82.387 -58.019 82.387 -59.039 82.387 C-58.039 84.387 -58.039 84.387 -56.039 85.387 C-55.709 86.377 -55.379 87.367 -55.039 88.387 C-54.379 87.727 -53.719 87.067 -53.039 86.387 C-53.039 87.047 -53.039 87.707 -53.039 88.387 C-52.049 88.717 -51.059 89.047 -50.039 89.387 C-50.699 89.717 -50.699 89.717 -54.039 91.387 C-53.049 91.717 -52.059 92.047 -51.039 92.387 C-51.699 93.707 -52.359 95.027 -53.039 96.387 C-54.359 95.727 -55.679 95.067 -57.039 94.387 C-57.039 93.397 -57.039 92.407 -57.039 91.387 C-57.699 91.387 -58.359 91.387 -59.039 91.387 C-59.142 90.747 -59.245 90.108 -59.352 89.449 C-59.578 88.769 -59.805 88.088 -60.039 87.387 C-60.534 87.222 -60.534 87.222 -63.039 86.387 C-63.039 85.397 -63.039 84.407 -63.039 83.387 C-63.369 83.552 -63.369 83.552 -65.039 84.387 C-65.369 83.397 -65.699 82.407 -66.039 81.387 C-66.369 81.552 -66.369 81.552 -68.039 82.387 C-68.204 82.057 -68.204 82.057 -69.039 80.387 C-70.029 80.387 -71.019 80.387 -72.039 80.387 C-73.029 80.387 -74.019 80.387 -75.039 80.387 C-75.369 79.397 -75.369 79.397 -77.039 74.387 C-77.699 74.387 -78.359 74.387 -79.039 74.387 C-79.204 73.397 -79.204 73.397 -80.039 68.387 C-80.802 68.387 -81.565 68.387 -82.352 68.387 C-85.039 67.387 -85.039 67.387 -86.039 65.645 C-87.272 62.407 -88.039 59.878 -88.039 56.387 C-88.699 56.387 -89.359 56.387 -90.039 56.387 C-90.945 47.347 -91.174 38.341 -91.227 29.262 C-91.233 28.71 -91.233 28.71 -91.266 25.92 C-91.267 24.875 -91.268 23.83 -91.27 22.754 C-91.274 21.817 -91.278 20.879 -91.282 19.914 C-91.029 17.28 -90.377 15.647 -89.039 13.387 C-89.019 14.244 -88.999 15.102 -88.979 15.985 C-88.901 19.176 -88.814 22.367 -88.722 25.557 C-88.683 26.936 -88.649 28.316 -88.617 29.695 C-88.571 31.681 -88.512 33.667 -88.453 35.652 C-88.422 36.846 -88.39 38.04 -88.358 39.271 C-88.059 42.194 -87.564 43.914 -86.039 46.387 C-85.379 45.067 -84.719 43.747 -84.039 42.387 C-84.369 42.057 -84.699 41.727 -85.039 41.387 C-85.494 38.732 -85.741 36.065 -86.039 33.387 C-84.719 32.727 -83.399 32.067 -82.039 31.387 C-82.039 30.397 -82.039 29.407 -82.039 28.387 C-79.416 25.277 -76.539 23.399 -73.039 21.387 C-71.693 20.404 -70.355 19.41 -69.039 18.387 C-69.039 19.047 -69.039 19.707 -69.039 20.387 C-68.668 20.304 -68.668 20.304 -66.789 19.887 C-64.039 19.387 -64.039 19.387 -60.039 19.387 C-58.655 19.118 -57.279 18.805 -55.914 18.449 C-55.231 18.275 -54.548 18.101 -53.844 17.922 C-52.039 17.387 -52.039 17.387 -50.039 16.387 C-50.914 23.137 -50.914 23.137 -52.039 25.387 C-51.379 25.717 -50.719 26.047 -50.039 26.387 C-49.477 28.637 -49.477 28.637 -49.039 31.387 C-48.926 31.82 -48.926 31.82 -48.352 34.012 C-48.039 36.387 -48.039 36.387 -50.039 39.387 C-49.049 39.387 -48.059 39.387 -47.039 39.387 C-46.75 40.5 -46.462 41.614 -46.164 42.762 C-45.039 46.387 -45.039 46.387 -43.039 48.387 C-43.039 49.707 -43.039 51.027 -43.039 52.387 C-42.049 52.387 -41.059 52.387 -40.039 52.387 C-40.513 51.335 -40.988 50.283 -41.477 49.199 C-44.528 42.433 -44.235 35.674 -44.039 28.387 C-44.022 27.585 -44.006 26.783 -43.988 25.957 C-43.448 17.278 -39.121 9.469 -33.039 3.387 C-23.556 -3.593 -10.821 -5.732 0 0 Z M-66.039 21.387 C-66.369 22.047 -66.699 22.707 -67.039 23.387 C-66.049 23.717 -65.059 24.047 -64.039 24.387 C-64.039 23.397 -64.039 22.407 -64.039 21.387 C-64.699 21.387 -65.359 21.387 -66.039 21.387 Z M19.961 46.387 C20.621 46.717 20.621 46.717 23.961 48.387 C23.961 47.727 23.961 47.067 23.961 46.387 C22.641 46.387 21.321 46.387 19.961 46.387 Z M-10.039 73.387 C-10.039 74.377 -10.039 75.367 -10.039 76.387 C-9.379 76.387 -8.719 76.387 -8.039 76.387 C-8.039 75.397 -8.039 74.407 -8.039 73.387 C-8.699 73.387 -9.359 73.387 -10.039 73.387 Z " fill="#23D1DC" transform="translate(116.0390625,85.61328125)"/>
<path d="M0 0 C2.238 2.062 2.238 2.062 4 4 C4.825 4.825 5.65 5.65 6.5 6.5 C8.667 8.667 10.833 10.833 13 13 C12.67 13.66 12.34 14.32 12 15 C9.96 15.194 7.919 15.389 5.879 15.582 C4 16 4 16 2.5 18.062 C2.335 18.702 2.17 19.341 2 20 C1.835 19.67 1.835 19.67 1 18 C1.938 15.375 1.938 15.375 3 13 C2.01 13 1.02 13 0 13 C0.165 13.495 0.165 13.495 1 16 C-2.3 16 -5.6 16 -9 16 C-9.33 16.66 -9.66 17.32 -10 18 C-9.505 18.165 -9.505 18.165 -7 19 C-7.495 19.165 -7.495 19.165 -10 20 C-10 21.32 -10 22.64 -10 24 C-9.01 24 -8.02 24 -7 24 C-7 24.66 -7 25.32 -7 26 C-6.01 26 -5.02 26 -4 26 C-4.301 29.613 -4.709 30.745 -7.5 33.188 C-8.325 33.786 -9.15 34.384 -10 35 C-10.165 35.33 -10.165 35.33 -11 37 C-11.66 37 -12.32 37 -13 37 C-13.33 37.99 -13.66 38.98 -14 40 C-16.925 39.373 -19.412 38.517 -22 37 C-22.33 36.34 -22.66 35.68 -23 35 C-25.323 34.299 -27.658 33.635 -30 33 C-31.35 32.367 -32.684 31.699 -34 31 C-38.21 29.01 -41.326 27.621 -46 28 C-50 28 -50 28 -52 27 C-51.835 27.66 -51.835 27.66 -51 31 C-51.969 31.289 -52.939 31.578 -53.938 31.875 C-57 33 -57 33 -58 35 C-60.903 36.375 -62.761 37 -66 37 C-66.33 38.32 -66.66 39.64 -67 41 C-67.33 40.835 -67.33 40.835 -69 40 C-69.144 40.402 -69.144 40.402 -69.875 42.438 C-71 45 -71 45 -73 46 C-72.67 46.99 -72.34 47.98 -72 49 C-72.454 49.598 -72.907 50.196 -73.375 50.812 C-75 53 -75 53 -75.438 56.062 C-76 59 -76 59 -77.707 60.609 C-80.266 62.162 -82.31 62.685 -85.25 63.188 C-86.142 63.346 -87.034 63.505 -87.953 63.668 C-88.291 63.723 -88.291 63.723 -90 64 C-90 63.34 -90 62.68 -90 62 C-90.784 62.165 -91.567 62.33 -92.375 62.5 C-95 63 -95 63 -97 63 C-97.639 63.66 -98.279 64.32 -98.938 65 C-101 67 -101 67 -104 67 C-104.66 68.32 -105.32 69.64 -106 71 C-106.66 71 -107.32 71 -108 71 C-108 71.99 -108 72.98 -108 74 C-108.495 74.33 -108.495 74.33 -111 76 C-111.688 78.125 -111.688 78.125 -112 80 C-111.34 80.33 -110.68 80.66 -110 81 C-110.33 81.99 -110.66 82.98 -111 84 C-110.34 84 -109.68 84 -109 84 C-108.835 83.67 -108.835 83.67 -108 82 C-108 82.99 -108 83.98 -108 85 C-108.66 85 -109.32 85 -110 85 C-110.66 86.65 -111.32 88.3 -112 90 C-115.256 86.744 -115.16 83.643 -115.316 79.238 C-115.355 78.231 -115.393 77.223 -115.432 76.185 C-115.475 74.907 -115.518 73.629 -115.562 72.312 C-115.707 68.249 -115.851 64.186 -116 60 C-116 71.88 -116 83.76 -116 96 C-116.33 96 -116.66 96 -117 96 C-122.442 72.533 -119.344 47.076 -106.772 26.429 C-95.869 9.287 -80.197 -4.096 -60.344 -9.527 C-39.215 -13.788 -18.504 -11.266 0 0 Z M-92 64 C-91.34 64 -90.68 64 -90 64 C-90.33 64.99 -90.66 65.98 -91 67 C-91.66 66.34 -92.32 65.68 -93 65 C-92.67 64.67 -92.34 64.34 -92 64 Z " fill="#27D3DE" transform="translate(142,43)"/>
<path d="M0 0 C0.66 0.33 1.32 0.66 2 1 C1.34 1.33 1.34 1.33 -2 3 C-1.67 3.99 -1.34 4.98 -1 6 C-1.33 6.66 -1.66 7.32 -2 8 C-3.32 7.34 -4.64 6.68 -6 6 C-4.985 3.464 -4.315 2.206 -2 0.688 C-1.34 0.461 -0.68 0.234 0 0 Z M-11 3 C-9.68 3.66 -8.36 4.32 -7 5 C-7.33 5.99 -7.66 6.98 -8 8 C-6.68 8 -5.36 8 -4 8 C-2.812 9.688 -2.812 9.688 -2 12 C-3.827 16.567 -6.874 18.524 -11 21 C-10.835 21.66 -10.835 21.66 -10 25 C-11.32 25.66 -12.64 26.32 -14 27 C-14 27.66 -14 28.32 -14 29 C-12.35 29 -10.7 29 -9 29 C-9 29.99 -9 30.98 -9 32 C-7 29 -7 29 -7 27 C-6.34 27 -5.68 27 -5 27 C-5 27.66 -5 28.32 -5 29 C-3.68 28.67 -2.36 28.34 -1 28 C-1.66 29.32 -2.32 30.64 -3 32 C-3.66 32 -4.32 32 -5 32 C-5 32.66 -5 33.32 -5 34 C-4.505 34.165 -4.505 34.165 -2 35 C-2.33 35.99 -2.66 36.98 -3 38 C-5.64 38.33 -8.28 38.66 -11 39 C-11 38.34 -11 37.68 -11 37 C-11.66 37 -12.32 37 -13 37 C-12.67 37.99 -12.34 38.98 -12 40 C-12.165 40.33 -12.165 40.33 -13 42 C-11.35 42.66 -9.7 43.32 -8 44 C-10.528 46.799 -12.204 48.458 -16 49 C-16 48.34 -16 47.68 -16 47 C-16.99 47 -17.98 47 -19 47 C-19 47.66 -19 48.32 -19 49 C-22.75 50.125 -22.75 50.125 -25 49 C-25 49.66 -25 50.32 -25 51 C-24.34 51.33 -23.68 51.66 -23 52 C-23.66 52 -24.32 52 -25 52 C-25.33 53.32 -25.66 54.64 -26 56 C-26.66 55.67 -27.32 55.34 -28 55 C-27.835 54.67 -27.835 54.67 -27 53 C-27.66 53 -28.32 53 -29 53 C-29 53.66 -29 54.32 -29 55 C-29.66 55 -30.32 55 -31 55 C-31 55.66 -31 56.32 -31 57 C-33.64 57.66 -36.28 58.32 -39 59 C-38.67 59.66 -38.34 60.32 -38 61 C-38.66 61 -39.32 61 -40 61 C-40 61.66 -40 62.32 -40 63 C-43.745 63.832 -47.161 64 -51 64 C-51.33 64.99 -51.66 65.98 -52 67 C-54.985 68.955 -56.264 69 -60 69 C-60 68.34 -60 67.68 -60 67 C-60.66 67 -61.32 67 -62 67 C-62 66.34 -62 65.68 -62 65 C-66 65 -66 65 -69 66 C-70.336 65.678 -71.669 65.342 -73 65 C-73.99 65.021 -74.98 65.041 -76 65.062 C-79.007 65 -80.478 64.552 -83 63 C-83 62.34 -83 61.68 -83 61 C-84.32 61 -85.64 61 -87 61 C-87.66 61 -88.32 61 -89 61 C-89 60.34 -89 59.68 -89 59 C-89.598 59.186 -90.196 59.371 -90.812 59.562 C-93 60 -93 60 -96 59 C-96.165 58.505 -96.165 58.505 -97 56 C-96.67 55.34 -96.34 54.68 -96 54 C-96.99 53.67 -97.98 53.34 -99 53 C-98.01 52.01 -97.02 51.02 -96 50 C-96.99 50 -97.98 50 -99 50 C-99.66 49.67 -100.32 49.34 -101 49 C-101.667 47 -102.333 45 -103 43 C-102.67 42.835 -102.67 42.835 -101 42 C-100.375 39.438 -100.375 39.438 -100 37 C-99.34 37 -98.68 37 -98 37 C-98 36.34 -98 35.68 -98 35 C-97.031 35.021 -96.061 35.041 -95.062 35.062 C-92 35 -92 35 -91 34 C-90.67 33.01 -90.34 32.02 -90 31 C-87.938 30.312 -87.938 30.312 -86 30 C-86 30.66 -86 31.32 -86 32 C-83.03 30.35 -80.06 28.7 -77 27 C-77 27.66 -77 28.32 -77 29 C-75.35 29 -73.7 29 -72 29 C-71.67 30.32 -71.34 31.64 -71 33 C-70.67 32.34 -70.34 31.68 -70 31 C-68.515 31.33 -68.515 31.33 -61 33 C-61 33.66 -61 34.32 -61 35 C-60.67 35.165 -60.67 35.165 -59 36 C-59.165 36.33 -59.165 36.33 -60 38 C-59.01 37.835 -59.01 37.835 -54 37 C-54 37.66 -54 38.32 -54 39 C-53.01 38.67 -52.02 38.34 -51 38 C-50.67 38.165 -50.67 38.165 -49 39 C-48.34 37.68 -47.68 36.36 -47 35 C-47.66 35.165 -47.66 35.165 -51 36 C-50.835 35.67 -50.835 35.67 -50 34 C-49.34 34 -48.68 34 -48 34 C-48.021 33.072 -48.041 32.144 -48.062 31.188 C-48 28 -48 28 -47 25 C-46.34 25 -45.68 25 -45 25 C-45.66 23.35 -46.32 21.7 -47 20 C-42.25 19 -42.25 19 -40 19 C-38.638 18.039 -37.301 17.041 -36 16 C-36.99 16.33 -37.98 16.66 -39 17 C-39.165 16.34 -39.165 16.34 -40 13 C-37.094 11.743 -35.204 11 -32 11 C-30.1 10.692 -28.204 10.356 -26.312 10 C-25.816 9.907 -25.816 9.907 -23.301 9.438 C-22.542 9.293 -21.782 9.149 -21 9 C-21 9.66 -21 10.32 -21 11 C-20.34 11 -19.68 11 -19 11 C-18.959 10.381 -18.918 9.762 -18.875 9.125 C-18.586 8.424 -18.298 7.722 -18 7 C-15 5.875 -15 5.875 -12 5 C-11.67 4.34 -11.34 3.68 -11 3 Z M-24 7 C-22.68 7 -21.36 7 -20 7 C-20.33 7.66 -20.66 8.32 -21 9 C-21.99 8.34 -22.98 7.68 -24 7 Z M-54 34 C-53.34 34 -52.68 34 -52 34 C-52 34.99 -52 35.98 -52 37 C-52.99 36.67 -53.98 36.34 -55 36 C-54.67 35.34 -54.34 34.68 -54 34 Z " fill="#1CCED8" transform="translate(160,125)"/>
<path d="M0 0 C0.66 0 1.32 0 2 0 C2.33 75.24 2.66 150.48 3 228 C68.67 228.33 134.34 228.66 202 229 C202.33 153.43 202.66 77.86 203 0 C204.32 0 205.64 0 207 0 C207 77.55 207 155.1 207 235 C138.69 235 70.38 235 0 235 C0 157.45 0 79.9 0 0 Z " fill="#FDFCF8" transform="translate(0,0)"/>
<path d="M0 0 C7.136 5.047 11.406 12.311 13.551 20.691 C14.068 24.091 14.131 27.386 14.148 30.824 C14.163 32.102 14.177 33.379 14.191 34.695 C13.967 38.29 13.266 41.049 11.961 44.387 C9.174 43.07 6.773 41.554 4.273 39.762 C0.548 37.451 -2.347 36.57 -6.734 36.836 C-12.463 38.205 -16.625 41.904 -20.602 46.074 C-22.684 50.873 -22.703 55.233 -22.039 60.387 C-20.539 64.074 -20.539 64.074 -19.039 66.387 C-26.578 65.821 -31.855 61.94 -36.852 56.512 C-43.906 47.979 -44.326 39.077 -44.039 28.387 C-44.022 27.585 -44.006 26.783 -43.988 25.957 C-43.448 17.278 -39.121 9.469 -33.039 3.387 C-23.556 -3.593 -10.821 -5.732 0 0 Z " fill="#F2EBD1" transform="translate(116.0390625,85.61328125)"/>
<path d="M0 0 C0.66 0 1.32 0 2 0 C5.386 5.621 7.973 11.215 10.105 17.422 C10.716 19.183 11.389 20.923 12.113 22.641 C13 25 13 25 13 28 C13.66 28 14.32 28 15 28 C15.93 37.696 16.112 47.273 16 57 C16.66 57.33 17.32 57.66 18 58 C18.333 64.21 17.45 68.283 15 74 C15.66 74 16.32 74 17 74 C17.372 81.804 15.839 87.455 12.938 94.625 C12 97 12 97 11 100.625 C10 104 10 104 8 107 C8.375 109.687 8.375 109.687 9 112 C9.66 112 10.32 112 11 112 C12.354 114.709 12.065 117.009 12 120 C12.99 120 13.98 120 15 120 C14.979 120.907 14.959 121.815 14.938 122.75 C15 126 15 126 15.625 128.125 C16.141 130.703 15.322 131.774 14 134 C13.762 134.583 13.523 135.165 13.277 135.766 C11.477 138.914 8.96 141.251 6.375 143.75 C5.859 144.257 5.344 144.763 4.812 145.285 C3.546 146.528 2.274 147.765 1 149 C0.34 148.67 -0.32 148.34 -1 148 C-3.125 148.937 -3.125 148.937 -5 150 C-5 149.34 -5 148.68 -5 148 C-5.99 148.66 -6.98 149.32 -8 150 C-10.688 150.125 -10.688 150.125 -13 150 C-13.33 150.66 -13.66 151.32 -14 152 C-15.376 150.71 -16.708 149.373 -18 148 C-18 147.34 -18 146.68 -18 146 C-18.99 145.67 -19.98 145.34 -21 145 C-21.33 145.66 -21.66 146.32 -22 147 C-27.617 146.106 -27.617 146.106 -30.25 145.375 C-32 145 -32 145 -34 146 C-35.114 145.814 -36.228 145.629 -37.375 145.438 C-41.17 144.98 -41.867 145.225 -45 147 C-47.733 147.21 -49.942 147.012 -52.625 146.438 C-55 146 -55 146 -58 147 C-60.563 146.831 -63.079 146.49 -65.625 146.156 C-68 146 -68 146 -71 147 C-71 146.34 -71 145.68 -71 145 C-72.279 144.856 -73.558 144.711 -74.875 144.562 C-77.257 144.294 -78.845 144.078 -81 143 C-81 142.34 -81 141.68 -81 141 C-83.64 140.67 -86.28 140.34 -89 140 C-89 139.34 -89 138.68 -89 138 C-91.31 137.34 -93.62 136.68 -96 136 C-96 135.34 -96 134.68 -96 134 C-96.99 133.67 -96.99 133.67 -102 132 C-102.33 132.66 -102.33 132.66 -104 136 C-104.206 134.762 -104.412 133.525 -104.625 132.25 C-105.511 128.621 -105.908 128.074 -109 125.562 C-110.661 124.697 -112.325 123.838 -114 123 C-114.33 123.66 -114.66 124.32 -115 125 C-115.842 123.735 -116.673 122.462 -117.5 121.188 C-117.964 120.48 -118.428 119.772 -118.906 119.043 C-120 117 -120 117 -120 114 C-120.99 114 -121.98 114 -123 114 C-125.043 111.375 -125.043 111.375 -127.188 108 C-127.372 107.714 -127.372 107.714 -128.303 106.266 C-129.211 104.85 -130.107 103.426 -131 102 C-130.67 101.67 -130.67 101.67 -129 100 C-128.539 100.678 -128.077 101.356 -127.602 102.055 C-115.19 119.765 -99.71 130.996 -78.476 135.592 C-74.174 136.301 -69.912 136.288 -65.562 136.25 C-64.685 136.258 -63.808 136.265 -62.904 136.273 C-54.168 136.248 -46.221 134.701 -38.105 131.488 C-35.331 130.845 -33.712 131.118 -31 132 C-28.43 133.813 -28.43 133.813 -25.875 136 C-21.395 139.813 -18.362 141.44 -12.316 141.34 C-5.19 140.294 0.45 136.277 4.844 130.746 C8.617 125.048 9.117 119.745 8 113 C6.082 109.278 3.682 106.198 1 103 C0.34 102.01 -0.32 101.02 -1 100 C-0.059 97.461 -0.059 97.461 1.562 94.375 C4.167 89.047 6.16 83.82 7.812 78.125 C8.019 77.424 8.225 76.723 8.438 76.001 C14.77 53.621 11.792 29.626 2.523 8.68 C1.29 5.7 0.456 3.169 0 0 Z " fill="#D1C59D" transform="translate(165,65)"/>
<path d="M0 0 C2.458 3.687 3.012 6.697 4 11 C5.65 11.33 7.3 11.66 9 12 C9.33 13.98 9.66 15.96 10 18 C10.66 18 11.32 18 12 18 C12.66 19.98 13.32 21.96 14 24 C14.99 23.67 15.98 23.34 17 23 C17.99 23 18.98 23 20 23 C20.66 23.66 21.32 24.32 22 25 C22.66 24.67 23.32 24.34 24 24 C24.33 24.99 24.66 25.98 25 27 C25.99 26.34 26.98 25.68 28 25 C27.887 25.382 27.887 25.382 27.312 27.312 C27.209 28.199 27.106 29.086 27 30 C28.438 31.688 28.438 31.688 30 33 C30 33.66 30 34.32 30 35 C30.66 35 31.32 35 32 35 C32 35.99 32 36.98 32 38 C33.65 38.66 35.3 39.32 37 40 C37 40.66 37 41.32 37 42 C39.31 42 41.62 42 44 42 C44 42.66 44 43.32 44 44 C45.32 43.34 46.64 42.68 48 42 C48 42.66 48 43.32 48 44 C48.66 44 49.32 44 50 44 C50 44.66 50 45.32 50 46 C50.332 46.03 50.332 46.03 52.012 46.184 C59.595 46.903 59.595 46.903 62.875 47.688 C65.533 48.078 66.763 47.408 69 46 C69 46.66 69 47.32 69 48 C69.66 48 70.32 48 71 48 C71 48.66 71 49.32 71 50 C71.66 50 72.32 50 73 50 C73 50.66 73 51.32 73 52 C80.5 49.5 80.5 49.5 83.25 46.75 C83.828 46.173 84.405 45.595 85 45 C87.125 45.312 87.125 45.312 89 46 C89.66 45.67 90.32 45.34 91 45 C91.66 45.33 92.32 45.66 93 46 C93.33 44.35 93.66 42.7 94 41 C99.283 40.032 99.283 40.032 102 40 C103.367 40.953 104.703 41.954 106 43 C107.155 43 108.31 43 109.5 43 C113 43 113 43 115.438 44.125 C117.611 46.733 117.07 48.691 117 52 C117.495 52.33 117.495 52.33 120 54 C120 54.66 120 55.32 120 56 C127.503 55.108 132.397 53.085 138 48 C138.273 47.769 138.273 47.769 139.656 46.598 C141.365 44.567 141.626 42.975 142.062 40.375 C142.473 37.961 142.473 37.961 143 36 C143.66 35.67 144.32 35.34 145 35 C145.66 35.33 146.32 35.66 147 36 C147.52 42.929 147.796 48.502 143.551 54.254 C138.74 59.67 133.44 64.238 125.992 65.281 C121.175 65.501 118.008 64.588 114 62 C112.681 60.757 111.369 59.506 110.062 58.25 C106.461 55.017 106.461 55.017 102.562 54.875 C99.154 55.951 95.755 57.032 92.406 58.281 C79.572 62.115 62.514 61.517 50 57 C49.022 56.66 48.043 56.319 47.035 55.969 C27.43 48.5 13.432 34.421 4.438 15.758 C2.137 10.516 0.39 5.726 0 0 Z M102 38 C102.33 38.165 102.33 38.165 104 39 C103.67 39.165 103.67 39.165 102 40 C102 39.34 102 38.68 102 38 Z " fill="#04AEB6" transform="translate(27,142)"/>
<path d="M0 0 C1.018 0.005 2.035 0.009 3.084 0.014 C5.577 0.025 8.07 0.042 10.562 0.062 C9.903 0.722 9.243 1.383 8.562 2.062 C8.727 2.392 8.727 2.392 9.562 4.062 C5.272 4.392 0.983 4.722 -3.438 5.062 C-3.438 6.053 -3.438 7.043 -3.438 8.062 C-6.65 9.133 -9.077 9.062 -12.438 9.062 C-12.438 9.722 -12.438 10.383 -12.438 11.062 C-15.438 12.062 -15.438 12.062 -17.438 11.438 C-18.097 11.314 -18.757 11.19 -19.438 11.062 C-21.188 12.5 -21.188 12.5 -22.438 14.062 C-22.273 14.558 -22.273 14.558 -21.438 17.062 C-23.088 18.383 -24.737 19.703 -26.438 21.062 C-26.438 19.396 -26.438 17.729 -26.438 16.062 C-27.427 16.227 -27.427 16.227 -32.438 17.062 C-32.602 17.557 -32.602 17.557 -33.438 20.062 C-34.428 20.062 -35.417 20.062 -36.438 20.062 C-36.767 21.383 -37.097 22.703 -37.438 24.062 C-39.417 24.062 -41.398 24.062 -43.438 24.062 C-43.767 24.722 -44.097 25.383 -44.438 26.062 C-45.758 26.062 -47.078 26.062 -48.438 26.062 C-48.767 26.722 -49.097 27.383 -49.438 28.062 C-50.097 28.062 -50.758 28.062 -51.438 28.062 C-51.767 29.383 -52.097 30.703 -52.438 32.062 C-53.097 32.062 -53.758 32.062 -54.438 32.062 C-54.438 32.722 -54.438 33.382 -54.438 34.062 C-55.097 34.062 -55.758 34.062 -56.438 34.062 C-58.968 38.42 -58.153 41.294 -56.953 45.902 C-56.372 48.337 -56.277 50.567 -56.438 53.062 C-57.758 52.733 -59.078 52.403 -60.438 52.062 C-60.767 53.382 -61.097 54.703 -61.438 56.062 C-62.427 56.062 -63.418 56.062 -64.438 56.062 C-63.117 56.722 -61.797 57.382 -60.438 58.062 C-62.418 58.722 -64.398 59.382 -66.438 60.062 C-65.942 60.496 -65.447 60.929 -64.938 61.375 C-63.438 63.062 -63.438 63.062 -63.438 66.062 C-64.428 66.062 -65.418 66.062 -66.438 66.062 C-66.438 67.052 -66.438 68.043 -66.438 69.062 C-66.108 68.898 -66.108 68.898 -64.438 68.062 C-63.312 72.812 -63.312 72.812 -64.438 75.062 C-63.117 75.722 -61.797 76.382 -60.438 77.062 C-61.056 77.145 -61.675 77.228 -62.312 77.312 C-64.438 78.062 -64.438 78.062 -65.688 80.125 C-65.811 80.445 -65.811 80.445 -66.438 82.062 C-67.097 82.062 -67.757 82.062 -68.438 82.062 C-68.438 83.052 -68.438 84.043 -68.438 85.062 C-68.933 85.392 -68.933 85.392 -71.438 87.062 C-72.125 89.188 -72.125 89.188 -72.438 91.062 C-71.778 91.392 -71.118 91.722 -70.438 92.062 C-70.767 93.052 -71.097 94.043 -71.438 95.062 C-70.778 95.062 -70.118 95.062 -69.438 95.062 C-69.273 94.733 -69.273 94.733 -68.438 93.062 C-68.438 94.052 -68.438 95.043 -68.438 96.062 C-69.097 96.062 -69.757 96.062 -70.438 96.062 C-71.097 97.713 -71.757 99.363 -72.438 101.062 C-75.694 97.806 -75.597 94.705 -75.754 90.301 C-75.792 89.293 -75.83 88.285 -75.869 87.247 C-75.912 85.969 -75.956 84.692 -76 83.375 C-76.144 79.312 -76.289 75.249 -76.438 71.062 C-76.438 82.942 -76.438 94.823 -76.438 107.062 C-76.767 107.062 -77.097 107.062 -77.438 107.062 C-82.879 83.596 -79.781 58.139 -67.21 37.491 C-56.307 20.349 -40.635 6.966 -20.781 1.535 C-13.795 0.126 -7.098 -0.06 0 0 Z " fill="#34D9E3" transform="translate(102.4375,31.9375)"/>
<path d="M0 0 C13.522 -0.706 27.965 3.007 38.41 12.098 C40 14 40 14 40 16 C38.02 16.66 36.04 17.32 34 18 C33.835 17.505 33.835 17.505 33 15 C31 13.625 31 13.625 28 13 C25.679 13.569 23.512 14.355 21.277 15.199 C18.231 16.27 15.197 16.624 12 17 C10.661 17.309 9.323 17.629 8 18 C8 15 8 15 9 13 C7.68 13.66 6.36 14.32 5 15 C4.835 14.67 4.835 14.67 4 13 C2.35 15.31 0.7 17.62 -1 20 C-1.66 19.34 -2.32 18.68 -3 18 C-3.041 18.557 -3.083 19.114 -3.125 19.688 C-4.469 23.24 -7.01 24.71 -10 27 C-10.66 25.68 -11.32 24.36 -12 23 C-12.66 23 -13.32 23 -14 23 C-14.66 25.31 -15.32 27.62 -16 30 C-18.31 30.33 -20.62 30.66 -23 31 C-23.66 29.68 -24.32 28.36 -25 27 C-22.03 27.33 -19.06 27.66 -16 28 C-16.66 26.68 -17.32 25.36 -18 24 C-18.307 24.139 -18.307 24.139 -19.863 24.84 C-20.672 25.202 -21.48 25.564 -22.312 25.938 C-23.113 26.297 -23.914 26.657 -24.738 27.027 C-27 28 -27 28 -30 29 C-30.544 32.058 -31 34.888 -31 38 C-31.66 38 -32.32 38 -33 38 C-34.625 39.5 -34.625 39.5 -36 41 C-37.65 39.68 -39.3 38.36 -41 37 C-40.67 35.35 -40.34 33.7 -40 32 C-41.32 31.67 -42.64 31.34 -44 31 C-44 30.34 -44 29.68 -44 29 C-44.66 29 -45.32 29 -46 29 C-45.897 29.928 -45.794 30.856 -45.688 31.812 C-45.791 32.864 -45.894 33.916 -46 35 C-48.389 36.886 -49.919 38 -53 38 C-53.33 39.65 -53.66 41.3 -54 43 C-54.99 42.34 -55.98 41.68 -57 41 C-57.99 41 -58.98 41 -60 41 C-61.688 39.5 -61.688 39.5 -63 38 C-61.625 35.5 -61.625 35.5 -60 33 C-59.34 33 -58.68 33 -58 33 C-58 32.34 -58 31.68 -58 31 C-57.34 31 -56.68 31 -56 31 C-55.67 29.68 -55.34 28.36 -55 27 C-54.34 27 -53.68 27 -53 27 C-52.34 25.68 -51.68 24.36 -51 23 C-50.67 23.66 -50.34 24.32 -50 25 C-49.34 25 -48.68 25 -48 25 C-47.67 23.68 -47.34 22.36 -47 21 C-45.02 21.66 -43.04 22.32 -41 23 C-40.897 22.361 -40.794 21.721 -40.688 21.062 C-40.461 20.382 -40.234 19.701 -40 19 C-39.01 18.67 -38.02 18.34 -37 18 C-36.526 17.505 -36.051 17.01 -35.562 16.5 C-33.717 14.728 -32.535 14.245 -30 14 C-29.34 14.66 -28.68 15.32 -28 16 C-28.33 16.66 -28.66 17.32 -29 18 C-27.68 17.34 -26.36 16.68 -25 16 C-25 15.34 -25 14.68 -25 14 C-25.99 13.67 -26.98 13.34 -28 13 C-25.938 10.938 -25.938 10.938 -23 9 C-19.188 9.25 -19.188 9.25 -16 10 C-16 9.34 -16 8.68 -16 8 C-11.25 6 -11.25 6 -9 6 C-8.34 5.01 -7.68 4.02 -7 3 C-4.18 2.488 -4.18 2.488 -0.875 2.312 C-0.327 2.28 -0.327 2.28 2.445 2.113 C3.288 2.076 4.131 2.039 5 2 C3.35 1.67 1.7 1.34 0 1 C0 0.67 0 0.34 0 0 Z " fill="#30D6E0" transform="translate(106,33)"/>
<path d="M0 0 C0.743 0.186 1.485 0.371 2.25 0.562 C5.022 1.003 6.366 0.765 9 0 C10.32 0 11.64 0 13 0 C13 0.66 13 1.32 13 2 C15.56 2.512 18.11 3.018 20.688 3.438 C23 4 23 4 25 6 C26.65 6.707 28.316 7.379 30 8 C30 8.66 30 9.32 30 10 C30.66 10 31.32 10 32 10 C35 15.75 35 15.75 35 18 C35.99 18.33 36.98 18.66 38 19 C38.914 20.996 38.914 20.996 39.625 23.438 C40.968 27.936 40.968 27.936 42 30 C42.016 31.597 41.965 33.195 41.879 34.789 C41.831 35.73 41.782 36.671 41.732 37.641 C41.676 38.625 41.62 39.61 41.562 40.625 C41.51 41.618 41.458 42.61 41.404 43.633 C41.274 46.089 41.139 48.544 41 51 C40.67 51 40.34 51 40 51 C39.963 50.456 39.963 50.456 39.773 47.703 C38.85 36.63 37.073 26.302 28.5 18.375 C21.742 12.909 13.219 13.398 5 14 C-1.389 15.29 -6.548 18.652 -10.41 23.926 C-16.867 33.921 -17.904 44.219 -17 56 C-16.233 59.432 -15.159 62.685 -14 66 C-13.652 67.329 -13.313 68.662 -13 70 C-14.65 69.67 -16.3 69.34 -18 69 C-18 67.35 -18 65.7 -18 64 C-18.66 63.67 -19.32 63.34 -20 63 C-20.594 60.351 -20.742 57.708 -21 55 C-21.99 55 -22.98 55 -24 55 C-23.814 54.464 -23.629 53.928 -23.438 53.375 C-22.888 50.391 -23.483 47.971 -24 45 C-23.67 44.34 -23.34 43.68 -23 43 C-23.66 42.67 -24.32 42.34 -25 42 C-26.109 38.674 -25.861 37.415 -25.125 34.062 C-24.942 33.208 -24.759 32.353 -24.57 31.473 C-24.382 30.657 -24.194 29.841 -24 29 C-23.844 28.292 -23.688 27.585 -23.527 26.855 C-22.796 24.284 -21.432 22.241 -20 20 C-20.66 19.67 -21.32 19.34 -22 19 C-21.01 18.34 -20.02 17.68 -19 17 C-17.812 13.375 -17.812 13.375 -17 10 C-16.34 11.32 -15.68 12.64 -15 14 C-14.918 13.381 -14.835 12.763 -14.75 12.125 C-14 10 -14 10 -12.188 8.75 C-10 8 -10 8 -6 8 C-5.67 7.01 -5.34 6.02 -5 5 C-3.02 4.67 -1.04 4.34 1 4 C0.67 2.68 0.34 1.36 0 0 Z " fill="#14C6CE" transform="translate(90,70)"/>
<path d="M0 0 C6.215 4.395 11.062 10.957 12.961 18.387 C12.555 20.652 12.555 20.652 11.961 22.387 C9.112 19.975 8.368 17.863 7.336 14.324 C5.631 9.712 5.631 9.712 2.703 8.289 C0.434 7.809 -1.724 7.496 -4.039 7.387 C-4.039 8.047 -4.039 8.707 -4.039 9.387 C-7.706 9.387 -11.372 9.387 -15.039 9.387 C-17.063 11.072 -18.992 12.779 -20.914 14.574 C-21.179 14.816 -21.179 14.816 -22.52 16.037 C-27.05 20.224 -30.774 24.597 -33.789 30.012 C-34.217 30.767 -34.645 31.523 -35.086 32.301 C-36.039 34.387 -36.039 34.387 -36.039 37.387 C-35.379 37.717 -34.719 38.047 -34.039 38.387 C-34.39 39.109 -34.74 39.83 -35.102 40.574 C-36.185 43.824 -35.895 45.12 -35.039 48.387 C-34.874 49.604 -34.709 50.82 -34.539 52.074 C-34.039 55.387 -34.039 55.387 -33.039 57.387 C-34.789 57.262 -34.789 57.262 -37.039 56.387 C-43.872 48.311 -44.578 38.574 -44.039 28.387 C-44.02 27.591 -44 26.796 -43.98 25.977 C-43.475 17.294 -39.118 9.466 -33.039 3.387 C-23.556 -3.593 -10.821 -5.732 0 0 Z " fill="#CEC7A2" transform="translate(116.0390625,85.61328125)"/>
<path d="M0 0 C0.66 0 1.32 0 2 0 C5.386 5.621 7.973 11.215 10.105 17.422 C10.716 19.183 11.389 20.923 12.113 22.641 C13 25 13 25 13 28 C13.66 28 14.32 28 15 28 C15.93 37.696 16.112 47.273 16 57 C16.66 57.33 17.32 57.66 18 58 C18.333 64.21 17.45 68.283 15 74 C15.66 74 16.32 74 17 74 C17.372 81.804 15.839 87.455 12.938 94.625 C12 97 12 97 11 100.625 C10 104 10 104 8 107 C8.375 109.688 8.375 109.688 9 112 C9.66 112 10.32 112 11 112 C12.354 114.709 12.065 117.009 12 120 C12.99 120 13.98 120 15 120 C14.979 120.907 14.959 121.815 14.938 122.75 C15 126 15 126 15.75 128.125 C15.791 128.434 15.791 128.434 16 130 C14.062 132.25 14.062 132.25 12 134 C10.202 132.202 10.404 129.436 10.062 127 C9.882 125.819 9.702 124.638 9.516 123.422 C9.216 121.435 8.929 119.446 8.672 117.453 C7.74 111.743 5.282 108.237 1.559 103.848 C0 102 0 102 -1 100 C-0.197 98.113 0.696 96.265 1.625 94.438 C4.176 89.091 6.156 83.811 7.812 78.125 C8.019 77.424 8.225 76.724 8.438 76.002 C14.768 53.62 11.792 29.628 2.523 8.68 C1.29 5.7 0.456 3.169 0 0 Z " fill="#DDCFAA" transform="translate(165,65)"/>
<path d="M0 0 C0.66 0 1.32 0 2 0 C2.289 0.639 2.577 1.279 2.875 1.938 C4 4 4 4 6 5 C6.95 7.539 7.784 10.034 8.562 12.625 C8.784 13.325 9.005 14.025 9.232 14.746 C16.956 39.899 11.879 68.055 0 91 C-1.65 90.34 -3.3 89.68 -5 89 C-4.608 83.045 -3.629 78.372 -1 73 C-1.66 72.34 -2.32 71.68 -3 71 C-2.835 70.835 -2.835 70.835 -2 70 C-2.66 69.34 -3.32 68.68 -4 68 C-3.567 67.529 -3.134 67.059 -2.688 66.574 C-2.409 66.263 -2.409 66.263 -1 64.688 C-0.443 64.073 0.114 63.458 0.688 62.824 C2 61 2 61 2 58 C2.66 58 3.32 58 4 58 C3.67 56.35 3.34 54.7 3 53 C2.34 53 1.68 53 1 53 C1.33 51.35 1.66 49.7 2 48 C2.66 47.835 2.66 47.835 6 47 C6 46.34 6 45.68 6 45 C5.34 44.67 4.68 44.34 4 44 C4.175 43.536 4.175 43.536 5.062 41.188 C6 38 6 38 5 35 C5 34.01 5 33.02 5 32 C5.66 32 6.32 32 7 32 C6.94 30.541 6.851 29.082 6.75 27.625 C6.704 26.813 6.657 26.001 6.609 25.164 C6 23 6 23 3.953 21.711 C3.309 21.476 2.664 21.242 2 21 C2.66 20.67 3.32 20.34 4 20 C3.34 19.34 2.68 18.68 2 18 C2.66 18 3.32 18 4 18 C4 17.34 4 16.68 4 16 C3.34 15.67 2.68 15.34 2 15 C2.66 15 3.32 15 4 15 C2.53 9.364 2.53 9.364 0 7.625 C-2 7 -2 7 -4 7 C-4 6.34 -4 5.68 -4 5 C-2.68 4.67 -1.36 4.34 0 4 C0 2.68 0 1.36 0 0 Z M0 16 C0.66 16.33 1.32 16.66 2 17 C1.505 17.33 1.505 17.33 -1 19 C-0.67 18.01 -0.34 17.02 0 16 Z " fill="#0EC6CE" transform="translate(165,74)"/>
<path d="M0 0 C2.569 2.372 4.66 4.858 6.688 7.688 C18.28 23.182 34.908 32.854 54 36 C57.485 36.263 60.944 36.281 64.438 36.25 C65.315 36.258 66.192 36.265 67.096 36.273 C75.832 36.248 83.779 34.701 91.895 31.488 C94.674 30.844 96.283 31.116 99 32 C101.676 33.848 101.676 33.848 104.312 36.062 C104.754 36.429 104.754 36.429 106.988 38.285 C107.652 38.851 108.316 39.417 109 40 C108.835 40.33 108.835 40.33 108 42 C107.051 41.67 106.103 41.34 105.125 41 C99.204 39.334 93.372 38.916 87.719 41.5 C83.62 43.361 79.948 43.419 75.5 43.312 C74.718 43.301 73.935 43.29 73.129 43.278 C61.773 43.016 51.427 41.689 41 37 C38.63 36.071 36.254 35.155 33.875 34.25 C32.759 33.822 31.642 33.394 30.492 32.953 C30.081 32.796 30.081 32.796 28 32 C27.34 33.32 26.68 34.64 26 36 C25.794 34.762 25.587 33.525 25.375 32.25 C24.489 28.621 24.092 28.074 21 25.562 C19.339 24.697 17.675 23.838 16 23 C15.67 23.66 15.34 24.32 15 25 C14.158 23.735 13.327 22.462 12.5 21.188 C12.036 20.48 11.572 19.772 11.094 19.043 C10 17 10 17 10 14 C9.01 14 8.02 14 7 14 C4.957 11.375 4.957 11.375 2.812 8 C2.444 7.428 2.076 6.855 1.697 6.266 C0.789 4.85 -0.107 3.426 -1 2 C-0.67 1.34 -0.34 0.68 0 0 Z " fill="#C9BD94" transform="translate(35,165)"/>
<path d="M0 0 C0.66 0 1.32 0 2 0 C3.445 1.504 3.445 1.504 5.125 3.562 C12.857 12.629 20.643 17.604 32 21 C33.11 21.356 34.22 21.712 35.363 22.078 C43.449 24.424 50.945 25.367 59.375 25.375 C60.278 25.377 61.18 25.378 62.11 25.38 C71.037 25.233 79.397 23.23 88 21 C87.835 20.505 87.835 20.505 87 18 C88.32 17.67 89.64 17.34 91 17 C91.33 17.825 91.33 17.825 93 22 C93.99 22 94.98 22 96 22 C98.625 24.438 98.625 24.438 101 27 C102.69 28.69 104.749 28.252 107.062 28.312 C112.694 28.276 116.272 26.885 121 24 C124.674 22.039 124.674 22.039 127.062 21.75 C129 21 129 21 130.75 17.938 C130.956 17.453 130.956 17.453 132 15 C133 18 133 18 132.25 19.832 C127.64 27.136 122.414 32.343 114 35 C108.619 35.754 104.58 34.958 100 32 C98.681 30.757 97.369 29.506 96.062 28.25 C92.461 25.017 92.461 25.017 88.562 24.875 C85.154 25.951 81.755 27.032 78.406 28.281 C65.572 32.115 48.514 31.517 36 27 C35.022 26.66 34.043 26.319 33.035 25.969 C19.822 20.935 9.198 12.601 0 2 C0 1.34 0 0.68 0 0 Z " fill="#1AA9A8" transform="translate(41,172)"/>
<path d="M0 0 C1.018 0.005 2.035 0.009 3.084 0.014 C5.577 0.025 8.07 0.042 10.562 0.062 C9.903 0.722 9.243 1.383 8.562 2.062 C8.727 2.392 8.727 2.392 9.562 4.062 C8.67 4.123 7.778 4.184 6.859 4.246 C6.274 4.288 6.274 4.288 3.312 4.5 C2.152 4.581 0.992 4.662 -0.203 4.746 C-2.761 4.996 -4.97 5.427 -7.438 6.062 C-8.469 6.021 -9.5 5.98 -10.562 5.938 C-15.57 6.099 -19.733 7.421 -24.438 9.062 C-25.278 9.353 -26.118 9.643 -26.984 9.941 C-32.338 11.928 -36.815 14.43 -41.43 17.793 C-43.457 19.075 -45.094 19.626 -47.438 20.062 C-47.438 20.722 -47.438 21.383 -47.438 22.062 C-48.118 22.578 -48.799 23.094 -49.5 23.625 C-54.125 27.463 -58.517 32.301 -60.438 38.062 C-61.097 38.062 -61.758 38.062 -62.438 38.062 C-62.438 39.382 -62.438 40.703 -62.438 42.062 C-63.097 42.062 -63.758 42.062 -64.438 42.062 C-64.438 43.382 -64.438 44.703 -64.438 46.062 C-65.097 46.062 -65.757 46.062 -66.438 46.062 C-66.438 47.713 -66.438 49.362 -66.438 51.062 C-67.097 51.062 -67.757 51.062 -68.438 51.062 C-69.097 54.362 -69.757 57.662 -70.438 61.062 C-69.447 61.392 -68.457 61.722 -67.438 62.062 C-69.418 63.053 -71.398 64.042 -73.438 65.062 C-72.916 58.542 -71.252 52.591 -69.375 46.332 C-68.438 43.062 -68.438 43.062 -68.008 40.438 C-65.215 28.808 -51.425 16.983 -41.684 10.982 C-28.067 3.012 -15.841 -0.134 0 0 Z " fill="#64E7ED" transform="translate(102.4375,31.9375)"/>
<path d="M0 0 C0.66 0.33 1.32 0.66 2 1 C1.67 1.66 1.34 2.32 1 3 C2.98 2.34 4.96 1.68 7 1 C6.188 2.938 6.188 2.938 5 5 C4.01 5.33 3.02 5.66 2 6 C1.67 9.96 1.34 13.92 1 18 C0.34 18 -0.32 18 -1 18 C-1 18.66 -1 19.32 -1 20 C-0.34 20 0.32 20 1 20 C1 20.66 1 21.32 1 22 C1.66 22 2.32 22 3 22 C3 22.66 3 23.32 3 24 C2.34 24 1.68 24 1 24 C1.168 24.554 1.335 25.109 1.508 25.68 C1.711 26.404 1.915 27.129 2.125 27.875 C2.229 28.235 2.229 28.235 2.758 30.055 C2.838 30.697 2.918 31.339 3 32 C2.34 32.66 1.68 33.32 1 34 C1.495 34.165 1.495 34.165 4 35 C4 35.66 4 36.32 4 37 C3.34 37 2.68 37 2 37 C1.67 38.32 1.34 39.64 1 41 C0.505 40.835 0.505 40.835 -2 40 C-4.594 40.34 -4.594 40.34 -7.5 40.938 C-10.447 41.536 -12.987 42 -16 42 C-16.33 41.34 -16.66 40.68 -17 40 C-15.688 38.5 -15.688 38.5 -14 37 C-13.01 37 -12.02 37 -11 37 C-9.055 28.818 -8.654 20.98 -8.609 12.596 C-8.586 11.658 -8.563 10.72 -8.539 9.754 C-8.531 8.912 -8.523 8.069 -8.514 7.201 C-8 5 -8 5 -6.099 3.281 C-2.098 0.839 -2.098 0.839 0 0 Z M-4 37 C-3.34 37.33 -3.34 37.33 0 39 C0 38.34 0 37.68 0 37 C-1.32 37 -2.64 37 -4 37 Z " fill="#26D4DE" transform="translate(140,95)"/>
<path d="M0 0 C2.458 3.687 3.012 6.697 4 11 C5.65 11.33 7.3 11.66 9 12 C9.33 13.98 9.66 15.96 10 18 C10.66 18 11.32 18 12 18 C12.289 18.969 12.578 19.939 12.875 20.938 C14 24 14 24 16 25 C16.124 25.969 16.248 26.939 16.375 27.938 C16.581 28.948 16.788 29.959 17 31 C18.812 32.125 18.812 32.125 21 33 C21.299 33.32 21.299 33.32 22.812 34.938 C25.099 37.093 27.203 38.03 30.105 39.16 C32.109 40.048 33.758 41.135 35.562 42.375 C46.52 49.431 60.172 52.398 73.062 52.438 C73.516 52.44 73.516 52.44 75.81 52.451 C83.421 52.328 89.871 50.68 96.945 47.996 C100 47 100 47 103 48 C102 51 102 51 99.742 52.133 C98.796 52.46 97.85 52.788 96.875 53.125 C95.944 53.458 95.014 53.79 94.055 54.133 C78.516 58.544 61.171 56.851 46 52 C45.098 51.738 44.195 51.477 43.266 51.207 C33.624 48.279 27.22 42.87 20 36 C19.241 35.288 18.481 34.577 17.699 33.844 C16 32 16 32 16 30 C15.422 29.966 14.845 29.933 14.25 29.898 C10.826 28.531 9.673 25.73 8 22.625 C7.653 21.997 7.305 21.37 6.947 20.723 C3.417 14.192 0 7.529 0 0 Z " fill="#27B0B5" transform="translate(27,142)"/>
<path d="M0 0 C0 0.66 0 1.32 0 2 C0.641 2.075 1.281 2.15 1.941 2.227 C8.293 3.192 12.988 4.758 17 10 C17.938 13.375 17.938 13.375 18 16 C17.492 15.59 16.984 15.18 16.461 14.758 C15.773 14.219 15.084 13.68 14.375 13.125 C13.702 12.591 13.029 12.058 12.336 11.508 C5.075 6.821 -4.195 6.828 -12.477 8.5 C-21.621 11.607 -26.076 18.298 -30.25 26.438 C-32.84 35.288 -32.101 44.87 -32 54 C-34 52 -34 52 -34.243 50.175 C-34.239 49.443 -34.235 48.711 -34.23 47.957 C-34.23 47.138 -34.229 46.318 -34.229 45.474 C-34.215 44.596 -34.202 43.718 -34.188 42.812 C-34.175 41.913 -34.162 41.013 -34.148 40.086 C-34.117 38.255 -34.081 36.424 -34.04 34.593 C-34.005 32.299 -34.032 30.019 -34.086 27.727 C-34.035 19.425 -32.474 14.422 -26.719 8.32 C-18.447 1.261 -10.769 -1.031 0 0 Z " fill="#1D5F59" transform="translate(105,76)"/>
<path d="M0 0 C0.33 0.66 0.66 1.32 1 2 C2.32 1.67 3.64 1.34 5 1 C5 1.66 5 2.32 5 3 C5.66 3 6.32 3 7 3 C7.33 3.99 7.66 4.98 8 6 C7.34 6 6.68 6 6 6 C6 6.66 6 7.32 6 8 C6.99 8 7.98 8 9 8 C9.33 8.99 9.66 9.98 10 11 C11.65 10.67 13.3 10.34 15 10 C15 11.32 15 12.64 15 14 C15.217 13.598 15.217 13.598 16.312 11.562 C18 9 18 9 21 8 C21 8.66 21 9.32 21 10 C20.34 10 19.68 10 19 10 C19.66 10.66 20.32 11.32 21 12 C22.673 11.7 24.34 11.364 26 11 C29 12 29 12 30 13 C30.33 12.34 30.66 11.68 31 11 C31.66 11.33 32.32 11.66 33 12 C30.25 16.875 30.25 16.875 28 18 C28 18.66 28 19.32 28 20 C29.98 20.33 31.96 20.66 34 21 C33.069 22.296 32.13 23.587 31.188 24.875 C30.665 25.594 30.143 26.314 29.605 27.055 C28 29 28 29 25 31 C24.67 30.01 24.34 29.02 24 28 C23.34 28.33 22.68 28.66 22 29 C21.67 28.34 21.34 27.68 21 27 C20.01 27 19.02 27 18 27 C17.01 27 16.02 27 15 27 C14.34 25.02 13.68 23.04 13 21 C12.34 21 11.68 21 11 21 C10.67 19.02 10.34 17.04 10 15 C9.237 15 8.474 15 7.688 15 C5 14 5 14 4 12.258 C2.767 9.02 2 6.491 2 3 C1.34 3 0.68 3 0 3 C0 2.01 0 1.02 0 0 Z " fill="#17CCD7" transform="translate(26,139)"/>
<path d="M0 0 C2.438 1.5 2.438 1.5 4 3 C0.788 4.071 -1.639 4 -5 4 C-5 4.66 -5 5.32 -5 6 C-8 7 -8 7 -10 6.375 C-10.66 6.251 -11.32 6.127 -12 6 C-13.75 7.438 -13.75 7.438 -15 9 C-14.835 9.495 -14.835 9.495 -14 12 C-15.65 13.32 -17.3 14.64 -19 16 C-19 14.333 -19 12.667 -19 11 C-20.98 11.33 -22.96 11.66 -25 12 C-25.33 12.99 -25.66 13.98 -26 15 C-26.99 15 -27.98 15 -29 15 C-29.33 16.32 -29.66 17.64 -30 19 C-31.98 19 -33.96 19 -36 19 C-36.33 19.66 -36.66 20.32 -37 21 C-38.32 21 -39.64 21 -41 21 C-41.33 21.66 -41.66 22.32 -42 23 C-42.66 23 -43.32 23 -44 23 C-44.33 24.32 -44.66 25.64 -45 27 C-45.66 27 -46.32 27 -47 27 C-47 27.66 -47 28.32 -47 29 C-47.66 29 -48.32 29 -49 29 C-50.837 32.782 -51.158 34.946 -50 39 C-50.495 39.165 -50.495 39.165 -53 40 C-53 40.66 -53 41.32 -53 42 C-53.66 42.66 -54.32 43.32 -55 44 C-55.66 44.99 -56.32 45.98 -57 47 C-58.32 46.67 -59.64 46.34 -61 46 C-60.34 46 -59.68 46 -59 46 C-59 44.35 -59 42.7 -59 41 C-58.34 41 -57.68 41 -57 41 C-57 39.68 -57 38.36 -57 37 C-56.34 37 -55.68 37 -55 37 C-55 35.68 -55 34.36 -55 33 C-54.34 33 -53.68 33 -53 33 C-52.925 32.457 -52.85 31.915 -52.773 31.355 C-51.699 28.083 -49.81 25.961 -47.625 23.312 C-47.229 22.826 -47.229 22.826 -45.227 20.363 C-43 18 -43 18 -40 17 C-40 16.34 -40 15.68 -40 15 C-38.375 13.934 -36.697 12.947 -35 12 C-34.089 11.433 -33.177 10.866 -32.238 10.281 C-25.926 6.438 -20.138 3.82 -13 2 C-11.948 1.608 -10.896 1.216 -9.812 0.812 C-6.363 -0.184 -3.574 -0.331 0 0 Z " fill="#43DDE6" transform="translate(95,37)"/>
<path d="M0 0 C1.194 -0.014 2.387 -0.028 3.617 -0.043 C7.124 0.187 9.861 0.925 13.125 2.188 C12.795 2.847 12.465 3.507 12.125 4.188 C11.569 4.183 11.569 4.183 8.758 4.16 C-0.833 4.28 -7.742 5.038 -14.875 12.188 C-15.205 12.847 -15.535 13.507 -15.875 14.188 C-16.535 14.188 -17.195 14.188 -17.875 14.188 C-18.143 15.074 -18.411 15.961 -18.688 16.875 C-19.875 20.188 -19.875 20.188 -21.316 22.402 C-23.229 25.82 -24.117 29.282 -25 33.062 C-25.084 33.403 -25.084 33.403 -25.512 35.129 C-26.56 39.464 -27.309 43.764 -27.875 48.188 C-28.205 48.188 -28.535 48.188 -28.875 48.188 C-30.182 42.502 -30.031 36.991 -29.875 31.188 C-29.858 30.386 -29.841 29.584 -29.824 28.758 C-29.284 20.079 -24.957 12.27 -18.875 6.188 C-12.517 1.508 -7.923 0.043 0 0 Z " fill="#9E9A73" transform="translate(101.875,82.8125)"/>
<path d="M0 0 C1.65 0 3.3 0 5 0 C4.67 0.66 4.34 1.32 4 2 C3.34 2 2.68 2 2 2 C2.66 2.99 3.32 3.98 4 5 C5.32 4.67 6.64 4.34 8 4 C5.51 6.667 3.366 8.557 0 10 C0 9.34 0 8.68 0 8 C-0.66 8 -1.32 8 -2 8 C-3 10 -3 10 -3 12 C-3 12.66 -3 13.32 -3 14 C-3.66 14 -4.32 14 -5 14 C-5 14.66 -5 15.32 -5 16 C-4.34 16.33 -3.68 16.66 -3 17 C-3.99 17 -4.98 17 -6 17 C-5.67 17.99 -5.34 18.98 -5 20 C-6 23 -6 23 -7 24 C-6.34 24 -5.68 24 -5 24 C-5.33 25.65 -5.66 27.3 -6 29 C-7.98 28.67 -9.96 28.34 -12 28 C-12 27.34 -12 26.68 -12 26 C-13.98 26.33 -15.96 26.66 -18 27 C-18.165 26.175 -18.165 26.175 -19 22 C-20.98 22 -22.96 22 -25 22 C-25 21.34 -25 20.68 -25 20 C-25.66 20.33 -25.66 20.33 -29 22 C-29 21.34 -29 20.68 -29 20 C-30.98 19.34 -32.96 18.68 -35 18 C-34.67 16.35 -34.34 14.7 -34 13 C-28.25 14.875 -28.25 14.875 -26 16 C-18.533 16.356 -18.533 16.356 -15 14 C-14.67 13.01 -14.34 12.02 -14 11 C-14 11.66 -14 12.32 -14 13 C-8.215 8.569 -8.215 8.569 -7.125 5.688 C-7.084 5.131 -7.043 4.574 -7 4 C-6.34 4.33 -5.68 4.66 -5 5 C-5.33 5.66 -5.66 6.32 -6 7 C-1.125 2.25 -1.125 2.25 0 0 Z M-12 23 C-12 23.99 -12 24.98 -12 26 C-11.34 26 -10.68 26 -10 26 C-10 25.01 -10 24.02 -10 23 C-10.66 23 -11.32 23 -12 23 Z " fill="#26D5DF" transform="translate(118,136)"/>
<path d="M0 0 C0.33 0.165 0.33 0.165 2 1 C1.67 1.165 1.67 1.165 0 2 C0 1.34 0 0.68 0 0 Z M42 -3 C42.99 -2.67 43.98 -2.34 45 -2 C45.643 4.17 45.017 8.402 41.426 13.551 C40 15 40 15 37.5 15.25 C36.675 15.167 35.85 15.085 35 15 C32.375 16.938 32.375 16.938 30 19 C24.29 20.903 18.852 20.91 13.438 18.25 C10.977 15.979 10.44 15.191 10 12 C9.34 11.67 8.68 11.34 8 11 C8.33 10.34 8.66 9.68 9 9 C8.196 9.021 7.391 9.041 6.562 9.062 C4 9 4 9 3 8 C1.488 7.609 -0.035 7.26 -1.562 6.938 C-1.976 6.849 -1.976 6.849 -4.066 6.402 C-4.704 6.27 -5.343 6.137 -6 6 C-6 6.66 -6 7.32 -6 8 C-10.704 9.865 -14.947 11.368 -20 12 C-20 11.01 -20 10.02 -20 9 C-15.797 7.182 -13.465 6.512 -9 8 C-8.67 6.35 -8.34 4.7 -8 3 C-2.717 2.032 -2.717 2.032 0 2 C1.367 2.953 2.703 3.954 4 5 C5.155 5 6.31 5 7.5 5 C11 5 11 5 13.438 6.125 C15.611 8.733 15.07 10.691 15 14 C15.99 14.66 16.98 15.32 18 16 C18 16.66 18 17.32 18 18 C25.503 17.108 30.397 15.085 36 10 C36.545 9.537 37.091 9.074 37.652 8.598 C39.361 6.572 39.661 4.968 40.125 2.375 C40.917 -1.917 40.917 -1.917 42 -3 Z " fill="#0DC5CE" transform="translate(129,180)"/>
<path d="M0 0 C7.017 10.525 4.046 32.197 1.875 44.125 C-0.529 54.121 -4.278 63.879 -9 73 C-10.32 72.67 -11.64 72.34 -13 72 C-12.648 66.49 -11.043 63.045 -8.27 58.312 C-1.472 45.931 -1.539 31.055 -0.875 17.312 C-0.788 15.628 -0.701 13.944 -0.613 12.26 C-0.401 8.174 -0.198 4.087 0 0 Z " fill="#1AACAC" transform="translate(174,92)"/>
<path d="M0 0 C2.375 1.875 2.375 1.875 4 4 C4.99 4.66 5.98 5.32 7 6 C6.67 6.99 6.34 7.98 6 9 C4.35 8.34 2.7 7.68 1 7 C0.01 7.99 -0.98 8.98 -2 10 C-1.67 10.66 -1.34 11.32 -1 12 C-2.65 12.66 -4.3 13.32 -6 14 C-6.66 13.01 -7.32 12.02 -8 11 C-8.33 11.165 -8.33 11.165 -10 12 C-10 13.65 -10 15.3 -10 17 C-12.97 17.99 -15.94 18.98 -19 20 C-19.33 17.69 -19.66 15.38 -20 13 C-20.66 13 -21.32 13 -22 13 C-20.46 7.181 -16.063 3.814 -11.055 0.848 C-7.446 -0.641 -3.826 -0.593 0 0 Z " fill="#36DDE5" transform="translate(116,122)"/>
<path d="M0 0 C3.7 4.36 6.843 9.004 8.34 14.59 C7.938 16.859 7.938 16.859 7.34 18.59 C4.516 16.187 3.683 14.029 2.59 10.527 C0.869 5.911 0.869 5.911 -1.473 4.492 C-3.41 3.965 -3.41 3.965 -6.66 3.59 C-6.66 2.93 -6.66 2.27 -6.66 1.59 C-9.205 1.623 -11.742 1.69 -14.285 1.777 C-14.642 1.78 -14.642 1.78 -16.445 1.795 C-22.168 2.031 -24.555 3.637 -28.66 7.59 C-29.526 8.085 -30.393 8.58 -31.285 9.09 C-35.792 11.936 -37.907 15.68 -39.66 20.59 C-40.176 21.765 -40.691 22.941 -41.223 24.152 C-43.358 29.26 -43.905 33.832 -44.223 39.34 C-44.266 40.037 -44.309 40.735 -44.354 41.453 C-44.459 43.165 -44.56 44.877 -44.66 46.59 C-48.045 41.513 -47.024 36.583 -45.973 30.828 C-44.111 22.302 -41.381 15.017 -36.66 7.59 C-36 7.59 -35.34 7.59 -34.66 7.59 C-34.33 6.6 -34 5.61 -33.66 4.59 C-27.505 -1.936 -21.158 -3.148 -12.639 -3.586 C-7.668 -3.695 -3.851 -3.271 0 0 Z " fill="#BAB58E" transform="translate(120.66015625,89.41015625)"/>
<path d="M0 0 C0.33 0 0.66 0 1 0 C1.322 8.938 1.335 16.562 -2 25 C-3.65 25.33 -5.3 25.66 -7 26 C-7.33 26.99 -7.66 27.98 -8 29 C-9.65 29.33 -11.3 29.66 -13 30 C-13.33 30.99 -13.66 31.98 -14 33 C-15.438 34.688 -15.438 34.688 -17 36 C-17.66 36 -18.32 36 -19 36 C-19.33 35.67 -19.66 35.34 -20 35 C-20.268 35.598 -20.536 36.196 -20.812 36.812 C-22.401 39.74 -24.019 41.509 -27 43 C-27.66 43.66 -28.32 44.32 -29 45 C-29.716 43.275 -30.432 41.549 -31.148 39.824 C-32 38 -32 38 -34 35 C-31.03 34.01 -28.06 33.02 -25 32 C-25.33 30.02 -25.66 28.04 -26 26 C-24.35 25.67 -22.7 25.34 -21 25 C-21 26.32 -21 27.64 -21 29 C-20.608 28.608 -20.216 28.216 -19.812 27.812 C-17.542 25.542 -15.271 23.271 -13 21 C-13 21.66 -13 22.32 -13 23 C-11.68 23 -10.36 23 -9 23 C-9 22.34 -9 21.68 -9 21 C-11.31 19.68 -13.62 18.36 -16 17 C-15.01 16.67 -14.02 16.34 -13 16 C-9.485 18.094 -6.241 20.507 -3 23 C-1.025 15.362 -0.425 7.867 0 0 Z " fill="#23D2DC" transform="translate(131,107)"/>
<path d="M0 0 C0.804 0.433 1.609 0.866 2.438 1.312 C14.217 6.892 26.593 8.138 39.5 8.312 C40.241 8.33 40.982 8.348 41.746 8.366 C46.933 8.36 50.301 7.148 55 5 C60.957 4.176 66.369 5.046 72 7 C72.99 7.33 73.98 7.66 75 8 C75 8.99 75 9.98 75 11 C74.34 11 73.68 11 73 11 C72.67 11.66 72.34 12.32 72 13 C66.383 12.106 66.383 12.106 63.75 11.375 C62 11 62 11 60 12 C58.886 11.814 57.773 11.629 56.625 11.438 C52.83 10.98 52.133 11.225 49 13 C46.267 13.21 44.058 13.012 41.375 12.438 C39 12 39 12 36 13 C33.437 12.831 30.921 12.49 28.375 12.156 C26 12 26 12 23 13 C23 12.34 23 11.68 23 11 C21.721 10.856 20.442 10.711 19.125 10.562 C16.743 10.294 15.155 10.078 13 9 C13 8.34 13 7.68 13 7 C10.36 6.67 7.72 6.34 5 6 C5 5.34 5 4.68 5 4 C2.69 3.34 0.38 2.68 -2 2 C-1.34 1.34 -0.68 0.68 0 0 Z " fill="#D6CBA4" transform="translate(71,199)"/>
<path d="M0 0 C2.676 1.848 2.676 1.848 5.312 4.062 C6.196 4.796 7.079 5.529 7.988 6.285 C8.652 6.851 9.316 7.417 10 8 C9.67 8.66 9.34 9.32 9 10 C8.051 9.67 7.102 9.34 6.125 9 C1.487 7.66 -3.206 7.605 -8 8 C-8.33 8.33 -8.66 8.66 -9 9 C-11 9.088 -13.002 9.107 -15.004 9.098 C-16.219 9.094 -17.434 9.091 -18.686 9.088 C-19.965 9.08 -21.244 9.071 -22.562 9.062 C-23.846 9.058 -25.129 9.053 -26.451 9.049 C-29.634 9.037 -32.817 9.021 -36 9 C-36.33 8.34 -36.66 7.68 -37 7 C-37.99 6.34 -38.98 5.68 -40 5 C-39.683 4.98 -39.683 4.98 -38.079 4.88 C-15.949 3.425 -15.949 3.425 -7.305 -0.293 C-4.37 -1.193 -2.901 -0.995 0 0 Z " fill="#BEB58B" transform="translate(134,197)"/>
<path d="M0 0 C1.703 3.407 -0.335 6.91 -1.438 10.375 C-1.92 11.902 -2.399 13.431 -2.871 14.961 C-3.087 15.639 -3.303 16.318 -3.525 17.017 C-4 19 -4 19 -4 23 C-3.34 22.67 -2.68 22.34 -2 22 C-2 24.97 -2 27.94 -2 31 C-2.66 31 -3.32 31 -4 31 C-4 31.66 -4 32.32 -4 33 C-3.34 33.33 -2.68 33.66 -2 34 C-2.33 34.165 -2.33 34.165 -4 35 C-3.34 36.98 -2.68 38.96 -2 41 C-2.33 41.165 -2.33 41.165 -4 42 C-4 43.32 -4 44.64 -4 46 C-4.495 46.165 -4.495 46.165 -7 47 C-7.33 41.39 -7.66 35.78 -8 30 C-8 41.88 -8 53.76 -8 66 C-8.33 66 -8.66 66 -9 66 C-13.988 44.491 -11.551 21.848 -2 2 C-1.34 1.34 -0.68 0.68 0 0 Z " fill="#47D4DB" transform="translate(34,73)"/>
<path d="M0 0 C0.33 0 0.66 0 1 0 C3.543 20.211 2.856 40.697 -7 59 C-8.875 58.688 -8.875 58.688 -11 58 C-11.66 57.01 -12.32 56.02 -13 55 C-12.059 52.461 -12.059 52.461 -10.438 49.375 C-7.833 44.047 -5.84 38.82 -4.188 33.125 C-3.981 32.424 -3.775 31.723 -3.562 31.001 C-1.465 23.59 -0.814 16.227 -0.438 8.562 C-0.394 7.736 -0.351 6.909 -0.307 6.057 C-0.202 4.038 -0.1 2.019 0 0 Z " fill="#D0C299" transform="translate(177,110)"/>
<path d="M0 0 C13.522 -0.706 27.965 3.007 38.41 12.098 C40 14 40 14 40 16 C38.02 16.66 36.04 17.32 34 18 C33.835 17.505 33.835 17.505 33 15 C31 13.625 31 13.625 28 13 C25.606 13.588 23.38 14.373 21.086 15.273 C19 16 19 16 16 16 C16.33 15.01 16.66 14.02 17 13 C19.062 12.312 19.062 12.312 21 12 C20.67 11.01 20.34 10.02 20 9 C17.926 8.121 17.926 8.121 15.312 7.438 C14.414 7.193 13.516 6.948 12.59 6.695 C11.735 6.466 10.881 6.236 10 6 C7.997 5.344 5.995 4.682 4 4 C4.33 3.34 4.66 2.68 5 2 C3.35 1.67 1.7 1.34 0 1 C0 0.67 0 0.34 0 0 Z " fill="#35D8E1" transform="translate(106,33)"/>
<path d="M0 0 C3.142 1.08 5.716 2.451 8.438 4.312 C19.471 11.376 33.097 14.398 46.062 14.438 C46.516 14.44 46.516 14.44 48.81 14.451 C56.421 14.328 62.871 12.68 69.945 9.996 C73 9 73 9 76 10 C75 13 75 13 72.742 14.133 C71.796 14.46 70.85 14.788 69.875 15.125 C68.944 15.458 68.014 15.79 67.055 16.133 C52.327 20.314 35.693 19.749 22 13 C20.296 12.364 18.587 11.739 16.875 11.125 C2.729 5.457 2.729 5.457 0 0 Z " fill="#0E9A9D" transform="translate(54,180)"/>
<path d="M0 0 C7.527 -0.255 14.589 0.717 22 2 C22.33 2.99 22.66 3.98 23 5 C23.66 5 24.32 5 25 5 C28 10.75 28 10.75 28 13 C28.99 13.33 29.98 13.66 31 14 C31.914 15.996 31.914 15.996 32.625 18.438 C33.968 22.936 33.968 22.936 35 25 C35.016 26.597 34.965 28.195 34.879 29.789 C34.855 30.26 34.855 30.26 34.732 32.641 C34.676 33.625 34.62 34.61 34.562 35.625 C34.51 36.618 34.458 37.61 34.404 38.633 C34.274 41.089 34.139 43.544 34 46 C33.67 46 33.34 46 33 46 C32.914 44.889 32.827 43.778 32.738 42.633 C32.031 34.768 31.282 28.145 27.223 21.211 C25.933 18.88 25.224 16.683 24.5 14.125 C23.215 10.083 21.839 8.094 18 6 C15.677 5.6 13.343 5.26 11 5 C10.01 4.34 9.02 3.68 8 3 C8 2.34 8 1.68 8 1 C5.36 1 2.72 1 0 1 C0 0.67 0 0.34 0 0 Z " fill="#0E9EA6" transform="translate(97,75)"/>
<path d="M0 0 C0.66 0 1.32 0 2 0 C3.445 1.504 3.445 1.504 5.125 3.562 C16.937 17.251 33.477 25.815 51.653 27.203 C62.518 27.731 72.583 27.342 83 24 C84.746 23.586 86.496 23.188 88.25 22.812 C89.488 22.544 90.725 22.276 92 22 C93.32 23.65 94.64 25.3 96 27 C95.742 26.825 95.742 26.825 94.438 25.938 C89.074 23.875 83.535 26.367 78.406 28.281 C65.572 32.115 48.514 31.517 36 27 C35.022 26.66 34.043 26.319 33.035 25.969 C19.822 20.935 9.198 12.601 0 2 C0 1.34 0 0.68 0 0 Z " fill="#276865" transform="translate(41,172)"/>
<path d="M0 0 C0.99 0.33 1.98 0.66 3 1 C3.66 0.67 4.32 0.34 5 0 C5.33 0.66 5.66 1.32 6 2 C6.66 1.67 7.32 1.34 8 1 C8.33 1.99 8.66 2.98 9 4 C9.99 3.34 10.98 2.68 12 2 C11.773 2.763 11.546 3.526 11.312 4.312 C11.261 4.756 11.261 4.756 11 7 C12.438 8.688 12.438 8.688 14 10 C14 10.66 14 11.32 14 12 C14.66 12 15.32 12 16 12 C16 12.99 16 13.98 16 15 C17.65 15.66 19.3 16.32 21 17 C21 17.66 21 18.32 21 19 C23.31 19 25.62 19 28 19 C28 19.66 28 20.32 28 21 C29.32 20.34 30.64 19.68 32 19 C32 19.66 32 20.32 32 21 C32.66 21 33.32 21 34 21 C34 21.66 34 22.32 34 23 C35.32 23.66 36.64 24.32 38 25 C33.792 24.399 30.011 23.392 26 22 C24.845 21.711 23.69 21.423 22.5 21.125 C18.769 19.926 16.202 18.227 13 16 C12.196 15.711 11.391 15.423 10.562 15.125 C5.539 12.919 1.804 9.742 -0.5 4.75 C-1 2 -1 2 0 0 Z " fill="#08B7C2" transform="translate(43,165)"/>
<path d="M0 0 C0 0.99 0 1.98 0 3 C-2.626 4.845 -4.951 5.984 -8 7 C-9.562 9.375 -9.562 9.375 -11 12 C-11.33 12.495 -11.33 12.495 -13 15 C-14.32 15 -15.64 15 -17 15 C-17.33 15.66 -17.66 16.32 -18 17 C-18.66 17 -19.32 17 -20 17 C-20.33 18.32 -20.66 19.64 -21 21 C-21.66 21 -22.32 21 -23 21 C-23 21.66 -23 22.32 -23 23 C-23.66 23 -24.32 23 -25 23 C-26.837 26.782 -27.158 28.946 -26 33 C-26.495 33.165 -26.495 33.165 -29 34 C-29 34.66 -29 35.32 -29 36 C-29.66 36.66 -30.32 37.32 -31 38 C-31.66 38.99 -32.32 39.98 -33 41 C-34.32 40.67 -35.64 40.34 -37 40 C-36.34 40 -35.68 40 -35 40 C-35 38.35 -35 36.7 -35 35 C-34.34 35 -33.68 35 -33 35 C-33 33.68 -33 32.36 -33 31 C-32.34 31 -31.68 31 -31 31 C-31 29.68 -31 28.36 -31 27 C-30.34 27 -29.68 27 -29 27 C-28.925 26.457 -28.85 25.915 -28.773 25.355 C-27.699 22.083 -25.81 19.961 -23.625 17.312 C-23.229 16.826 -23.229 16.826 -21.227 14.363 C-19 12 -19 12 -16 11 C-16 10.34 -16 9.68 -16 9 C-13.863 7.574 -13.863 7.574 -11 6 C-10.045 5.47 -9.09 4.94 -8.105 4.395 C-7.624 4.133 -7.624 4.133 -5.188 2.812 C-4.212 2.283 -3.236 1.753 -2.23 1.207 C-1.494 0.809 -0.758 0.41 0 0 Z " fill="#4EE1E9" transform="translate(71,43)"/>
<path d="M0 0 C1.194 -0.014 2.387 -0.028 3.617 -0.043 C7.124 0.187 9.861 0.925 13.125 2.188 C12.795 2.847 12.465 3.507 12.125 4.188 C10.846 4.118 9.567 4.048 8.25 3.977 C-7.164 3.387 -7.164 3.387 -11.688 6.938 C-12.763 8.008 -13.827 9.09 -14.875 10.188 C-15.411 10.487 -15.411 10.487 -18.125 12 C-21.508 14.691 -22.384 17.177 -23.93 21.125 C-25.084 23.644 -26.44 24.883 -28.875 26.188 C-28.082 18.258 -24.403 11.841 -18.875 6.188 C-12.529 1.501 -7.914 0.043 0 0 Z " fill="#8E8E67" transform="translate(101.875,82.8125)"/>
<path d="M0 0 C0.66 0.33 1.32 0.66 2 1 C-1.613 5.687 -1.613 5.687 -3 7 C-3.99 7 -4.98 7 -6 7 C-6 7.66 -6 8.32 -6 9 C-6.681 9.516 -7.361 10.031 -8.062 10.562 C-12.687 14.4 -17.079 19.238 -19 25 C-19.66 25 -20.32 25 -21 25 C-21 26.32 -21 27.64 -21 29 C-21.66 29 -22.32 29 -23 29 C-23 30.32 -23 31.64 -23 33 C-23.66 33 -24.32 33 -25 33 C-25 34.65 -25 36.3 -25 38 C-25.66 38 -26.32 38 -27 38 C-27.66 41.3 -28.32 44.6 -29 48 C-28.01 48.33 -27.02 48.66 -26 49 C-27.98 49.99 -29.96 50.98 -32 52 C-30.816 37.197 -25.518 22.005 -14 12 C-13.34 12 -12.68 12 -12 12 C-11.752 11.416 -11.505 10.832 -11.25 10.23 C-9.815 7.671 -8.233 6.205 -6 4.312 C-5.299 3.711 -4.597 3.109 -3.875 2.488 C-2 1 -2 1 0 0 Z " fill="#74EDF0" transform="translate(61,45)"/>
<path d="M0 0 C0.99 0.33 1.98 0.66 3 1 C3.688 3.062 3.688 3.062 4 5 C4.66 5 5.32 5 6 5 C5.67 5.99 5.34 6.98 5 8 C4.67 7.67 4.67 7.67 3 6 C-0.936 6.698 -4.688 7.574 -8.488 8.809 C-25.902 14.075 -46.14 12.074 -62.531 4.332 C-63.346 3.892 -64.161 3.453 -65 3 C-61.462 1.732 -59.738 2.262 -56.375 3.812 C-47.913 7.706 -39.194 8.327 -30 8.25 C-29.08 8.258 -28.159 8.265 -27.211 8.273 C-18.13 8.248 -9.745 6.267 -1 4 C-1.165 3.505 -1.165 3.505 -2 1 C-1.34 0.67 -0.68 0.34 0 0 Z " fill="#199292" transform="translate(130,189)"/>
<path d="M0 0 C8.744 2.996 14.054 10.639 18.938 18.125 C19.315 18.698 19.692 19.272 20.081 19.862 C22.579 23.844 23.903 27.485 25 32 C23.5 30.625 23.5 30.625 22 29 C22 28.34 22 27.68 22 27 C21.34 27 20.68 27 20 27 C20 28.32 20 29.64 20 31 C18.68 30.67 17.36 30.34 16 30 C15.546 30.66 15.093 31.32 14.625 32 C14.089 32.66 13.553 33.32 13 34 C12.34 34 11.68 34 11 34 C11 33.34 11 32.68 11 32 C9.68 31.34 8.36 30.68 7 30 C7.33 29.01 7.66 28.02 8 27 C8.66 27 9.32 27 10 27 C10.33 26.34 10.66 25.68 11 25 C11.33 25.66 11.66 26.32 12 27 C16.004 22.875 16.004 22.875 15.988 19.238 C14.659 14.881 12.282 12.503 9.125 9.312 C8.582 8.745 8.04 8.177 7.48 7.592 C5.021 5.027 2.515 2.51 0 0 Z " fill="#20CAD4" transform="translate(145,47)"/>
<path d="M0 0 C0.566 0.219 1.132 0.438 1.715 0.664 C1.051 1.244 0.387 1.824 -0.297 2.422 C-7.815 9.073 -14.124 15.368 -18.285 24.664 C-18.285 25.654 -18.285 26.644 -18.285 27.664 C-17.625 27.994 -16.965 28.324 -16.285 28.664 C-16.636 29.386 -16.986 30.108 -17.348 30.852 C-18.431 34.101 -18.141 35.397 -17.285 38.664 C-17.12 39.881 -16.955 41.098 -16.785 42.352 C-16.285 45.664 -16.285 45.664 -15.285 47.664 C-16.605 47.334 -17.925 47.004 -19.285 46.664 C-21.98 36.976 -22.027 24.756 -17.473 15.727 C-16.451 14.014 -15.391 12.324 -14.285 10.664 C-13.816 9.804 -13.347 8.944 -12.863 8.059 C-11.117 5.41 -9.479 4.038 -6.848 2.289 C-6.467 2.027 -6.467 2.027 -4.539 0.703 C-2.285 -0.336 -2.285 -0.336 0 0 Z " fill="#DFD6B4" transform="translate(98.28515625,95.3359375)"/>
<path d="M0 0 C0.66 0.33 1.32 0.66 2 1 C1.236 7.109 -1.556 12.114 -5.25 16.938 C-11.243 21.432 -19.814 20.119 -27 20 C-27.33 18.68 -27.66 17.36 -28 16 C-27.394 16.058 -26.788 16.116 -26.164 16.176 C-19.014 16.561 -13.908 15.074 -8 11 C-4.476 7.738 -2.048 4.332 0 0 Z " fill="#C0B488" transform="translate(173,190)"/>
<path d="M0 0 C0.66 0.33 1.32 0.66 2 1 C1.988 1.568 1.977 2.137 1.965 2.723 C1.92 6.56 2.018 10.125 2.562 13.938 C3 17 3 17 2 19 C2.66 19.33 3.32 19.66 4 20 C3.67 20.33 3.34 20.66 3 21 C3.66 21.66 4.32 22.32 5 23 C0.026 24.757 -4.742 26.326 -10 27 C-10.33 26.01 -10.66 25.02 -11 24 C-9.688 22.5 -9.688 22.5 -8 21 C-7.01 21 -6.02 21 -5 21 C-4.34 17.7 -3.68 14.4 -3 11 C-2.34 11 -1.68 11 -1 11 C-0.67 7.37 -0.34 3.74 0 0 Z " fill="#30D9E3" transform="translate(134,111)"/>
<path d="M0 0 C2.569 2.372 4.66 4.858 6.688 7.688 C13.018 16.149 19.882 21.975 29.123 26.994 C30.793 27.92 32.403 28.952 34 30 C34 30.99 34 31.98 34 33 C33.01 32.835 33.01 32.835 28 32 C27.34 33.32 26.68 34.64 26 36 C25.794 34.762 25.587 33.525 25.375 32.25 C24.489 28.621 24.092 28.074 21 25.562 C19.339 24.697 17.675 23.838 16 23 C15.67 23.66 15.34 24.32 15 25 C14.158 23.735 13.327 22.462 12.5 21.188 C12.036 20.48 11.572 19.772 11.094 19.043 C10 17 10 17 10 14 C9.01 14 8.02 14 7 14 C4.957 11.375 4.957 11.375 2.812 8 C2.444 7.428 2.076 6.855 1.697 6.266 C0.789 4.85 -0.107 3.426 -1 2 C-0.67 1.34 -0.34 0.68 0 0 Z " fill="#D7CCA8" transform="translate(35,165)"/>
<path d="M0 0 C5.75 1.875 5.75 1.875 8 3 C10.546 3.232 13.074 3.419 15.625 3.562 C16.331 3.606 17.038 3.649 17.766 3.693 C19.51 3.799 21.255 3.9 23 4 C23 8 23 8 21 11 C20.34 11 19.68 11 19 11 C18.67 11.99 18.34 12.98 18 14 C17.34 14 16.68 14 16 14 C15.67 12.35 15.34 10.7 15 9 C13.02 9 11.04 9 9 9 C9 8.34 9 7.68 9 7 C8.34 7.33 8.34 7.33 5 9 C5 8.34 5 7.68 5 7 C3.02 6.34 1.04 5.68 -1 5 C-0.67 3.35 -0.34 1.7 0 0 Z " fill="#31D9E3" transform="translate(84,149)"/>
<path d="M0 0 C3.7 4.36 6.843 9.004 8.34 14.59 C7.938 16.859 7.938 16.859 7.34 18.59 C4.277 16.027 3.204 13.208 1.777 9.527 C-0.452 3.798 -0.452 3.798 -2.66 1.59 C-11.821 -1.594 -21.257 0.536 -29.66 4.59 C-31.323 5.267 -32.988 5.936 -34.66 6.59 C-33.379 5.206 -32.028 3.888 -30.66 2.59 C-29.773 1.703 -28.886 0.816 -27.973 -0.098 C-23.986 -2.924 -19.772 -3.061 -15.035 -3.348 C-14.665 -3.37 -14.665 -3.37 -12.79 -3.485 C-7.725 -3.666 -3.929 -3.337 0 0 Z " fill="#A7A37D" transform="translate(120.66015625,89.41015625)"/>
<path d="M0 0 C0.33 0 0.66 0 1 0 C0.974 0.887 0.948 1.773 0.921 2.687 C0.835 6.023 0.772 9.358 0.725 12.695 C0.7 14.131 0.666 15.566 0.623 17.001 C0.378 25.252 0.497 31.928 5.015 39.184 C5.34 39.783 5.665 40.383 6 41 C5.67 41.66 5.34 42.32 5 43 C3.062 42.312 3.062 42.312 1 41 C0.375 38.625 0.375 38.625 0 36 C-0.351 35.319 -0.701 34.639 -1.062 33.938 C-2 32 -2 32 -2 28 C-2.99 28 -3.98 28 -5 28 C-4.67 27.01 -4.34 26.02 -4 25 C-3.804 21.288 -3.656 17.583 -3.57 13.867 C-3.359 8.56 -2.379 4.759 0 0 Z " fill="#06B6C1" transform="translate(71,97)"/>
<path d="M0 0 C0.99 0.33 1.98 0.66 3 1 C3.643 7.17 3.017 11.402 -0.574 16.551 C-2 18 -2 18 -4.5 18.25 C-5.325 18.167 -6.15 18.085 -7 18 C-8.703 19.287 -10.371 20.621 -12 22 C-14.312 22.75 -14.312 22.75 -16 23 C-16 22.01 -16 21.02 -16 20 C-14.172 18.535 -14.172 18.535 -11.75 17.062 C-3.191 11.553 -3.191 11.553 -1.812 5.312 C-1.675 4.525 -1.537 3.737 -1.395 2.926 C-1 1 -1 1 0 0 Z " fill="#07BAC2" transform="translate(171,177)"/>
<path d="M0 0 C0.66 0.99 1.32 1.98 2 3 C1.01 3.66 0.02 4.32 -1 5 C-0.67 5.928 -0.34 6.856 0 7.812 C1 11 1 11 1 14 C0.01 14.33 -0.98 14.66 -2 15 C-2.33 16.65 -2.66 18.3 -3 20 C-3.99 19.34 -4.98 18.68 -6 18 C-6.99 18 -7.98 18 -9 18 C-10.688 16.5 -10.688 16.5 -12 15 C-10.625 12.5 -10.625 12.5 -9 10 C-8.34 10 -7.68 10 -7 10 C-7 9.34 -7 8.68 -7 8 C-6.34 8 -5.68 8 -5 8 C-4.67 6.68 -4.34 5.36 -4 4 C-3.34 4 -2.68 4 -2 4 C-1.34 2.68 -0.68 1.36 0 0 Z " fill="#36D8E2" transform="translate(55,56)"/>
<path d="M0 0 C2.312 2.062 2.312 2.062 4 4 C0.688 5.656 -2.922 4.958 -6.566 4.84 C-9.399 4.972 -11.508 5.331 -14.211 6.027 C-19.565 7.304 -24.608 7.005 -30.062 6.625 C-30.543 6.597 -30.543 6.597 -32.975 6.453 C-35.317 6.313 -37.659 6.162 -40 6 C-40 5.67 -40 5.34 -40 5 C-39.683 4.98 -39.683 4.98 -38.079 4.88 C-15.949 3.425 -15.949 3.425 -7.305 -0.293 C-4.461 -1.165 -2.815 -0.893 0 0 Z " fill="#AFA278" transform="translate(134,197)"/>
<path d="M0 0 C7.496 -0.391 15.088 -0.267 22 3 C23.309 5.109 23.309 5.109 24 7 C23.01 7.99 22.02 8.98 21 10 C19.969 9.546 18.938 9.093 17.875 8.625 C15.53 7.616 13.241 6.747 10.812 5.938 C8.39 5.13 6.242 4.207 4 3 C4.33 2.67 4.66 2.34 5 2 C3.35 1.67 1.7 1.34 0 1 C0 0.67 0 0.34 0 0 Z " fill="#43E0E8" transform="translate(106,33)"/>
<path d="M0 0 C0.99 0.33 1.98 0.66 3 1 C3.66 0.67 4.32 0.34 5 0 C5.33 0.66 5.66 1.32 6 2 C6.66 1.67 7.32 1.34 8 1 C8.33 1.99 8.66 2.98 9 4 C9.99 3.34 10.98 2.68 12 2 C11.773 2.763 11.546 3.526 11.312 4.312 C11.261 4.756 11.261 4.756 11 7 C12.375 8.625 12.375 8.625 14 10 C14.33 10.99 14.66 11.98 15 13 C13.254 13.699 13.254 13.699 11 14 C8.965 12.707 8.965 12.707 6.938 10.812 C6.266 10.2 5.594 9.588 4.902 8.957 C0 3.914 0 3.914 0 0 Z " fill="#09C0CC" transform="translate(43,165)"/>
<path d="M0 0 C2 1 2 1 2 1 Z M-1 1 C-0.67 1.66 -0.34 2.32 0 3 C-0.855 4.602 -0.855 4.602 -2.188 6.625 C-4.733 10.993 -6.066 15.254 -7.25 20.125 C-7.331 20.459 -7.331 20.459 -7.743 22.151 C-8.734 26.418 -9.437 30.662 -10 35 C-10.33 35 -10.66 35 -11 35 C-11.857 31.255 -12.192 27.716 -12.25 23.875 C-12.276 22.841 -12.302 21.807 -12.328 20.742 C-11.949 17.57 -11.355 17.011 -9 15 C-7.973 13.168 -7.973 13.168 -7.062 11.188 C-5.317 7.542 -3.316 4.309 -1 1 Z " fill="#A8A27C" transform="translate(84,96)"/>
<path d="M0 0 C1.323 3.968 0.291 5.474 -1.25 9.312 C-1.688 10.422 -2.127 11.532 -2.578 12.676 C-3.937 15.853 -5.42 18.928 -7 22 C-8.32 21.67 -9.64 21.34 -11 21 C-10.69 14.02 -7.505 8.927 -4 3 C-3 6 -3 6 -4 10 C-2.68 6.7 -1.36 3.4 0 0 Z " fill="#1D8886" transform="translate(172,143)"/>
<path d="M0 0 C0.99 0 1.98 0 3 0 C3.182 0.603 3.364 1.207 3.551 1.828 C4.912 6.156 6.199 9.399 9 13 C9 14.32 9 15.64 9 17 C6.75 17.375 6.75 17.375 4 17 C0.206 13.206 -0.243 10.449 -0.25 5.125 C-0.186 3.416 -0.109 1.707 0 0 Z " fill="#21BEC8" transform="translate(93,135)"/>
<path d="M0 0 C0.895 0.531 1.789 1.062 2.711 1.609 C12.525 7.371 21.739 11.82 33 14 C33 14.33 33 14.66 33 15 C26.999 15.445 23.003 14.48 17.512 12.066 C15.152 11.064 12.836 10.332 10.375 9.625 C5.506 8.072 1.875 5.262 -2 2 C-1.34 1.34 -0.68 0.68 0 0 Z " fill="#1AA8AA" transform="translate(54,181)"/>
<path d="M0 0 C0.66 0 1.32 0 2 0 C6.937 5.924 6.159 14.672 6 22 C4.68 21.67 3.36 21.34 2 21 C2.66 20.67 3.32 20.34 4 20 C3.34 19.34 2.68 18.68 2 18 C2.66 18 3.32 18 4 18 C4 17.34 4 16.68 4 16 C3.34 15.67 2.68 15.34 2 15 C2.66 15 3.32 15 4 15 C2.53 9.364 2.53 9.364 0 7.625 C-2 7 -2 7 -4 7 C-4 6.34 -4 5.68 -4 5 C-2.68 4.67 -1.36 4.34 0 4 C0 2.68 0 1.36 0 0 Z M0 16 C0.66 16.33 1.32 16.66 2 17 C1.505 17.33 1.505 17.33 -1 19 C-0.67 18.01 -0.34 17.02 0 16 Z " fill="#0FC6D2" transform="translate(165,74)"/>
<path d="M0 0 C0.66 0 1.32 0 2 0 C5.386 5.621 7.973 11.215 10.105 17.422 C11 20 11 20 12.176 22.641 C13 25 13 25 12 28 C11.01 27.67 10.02 27.34 9 27 C8.008 24.445 8.008 24.445 7.125 21.125 C5.535 15.528 3.521 10.456 0.953 5.242 C0 3 0 3 0 0 Z " fill="#E8DDBA" transform="translate(165,65)"/>
<path d="M0 0 C1 3 1 3 0.25 4.832 C-4.36 12.136 -9.586 17.343 -18 20 C-23.335 20.747 -27.469 19.987 -32 17 C-34.375 14.312 -34.375 14.312 -36 12 C-33.77 13.074 -31.85 14.115 -29.875 15.625 C-24.996 17.959 -20.011 17.809 -14.82 16.414 C-7.684 13.387 -3.207 6.85 0 0 Z " fill="#2D685E" transform="translate(173,187)"/>
<path d="M0 0 C0.99 0.33 1.98 0.66 3 1 C2.252 1.519 1.505 2.039 0.734 2.574 C-0.25 3.272 -1.235 3.969 -2.25 4.688 C-3.225 5.372 -4.199 6.056 -5.203 6.762 C-7.955 8.964 -9.86 11.22 -12 14 C-12.928 14.681 -13.856 15.361 -14.812 16.062 C-19.619 19.848 -22.149 25.712 -25 31 C-25.66 30.34 -26.32 29.68 -27 29 C-20.291 17.784 -12.053 6.027 0 0 Z " fill="#5EDFE9" transform="translate(61,43)"/>
<path d="M0 0 C0.66 0.33 1.32 0.66 2 1 C2.592 7.665 0.483 12.87 -2 19 C-2.99 19 -3.98 19 -5 19 C-5.66 18.01 -6.32 17.02 -7 16 C-5.918 12.969 -5.918 12.969 -4.188 9.5 C-1.024 3.071 -1.024 3.071 0 0 Z " fill="#B8A97D" transform="translate(171,149)"/>
<path d="M0 0 C0.66 0.33 1.32 0.66 2 1 C1.795 1.224 1.795 1.224 0.758 2.355 C-2.289 5.774 -4.567 8.59 -6 13 C-6.516 14.176 -7.031 15.351 -7.562 16.562 C-9.698 21.67 -10.245 26.242 -10.562 31.75 C-10.606 32.447 -10.649 33.145 -10.693 33.863 C-10.799 35.575 -10.9 37.288 -11 39 C-14.417 33.874 -13.368 28.894 -12.242 23.098 C-11.919 21.688 -11.589 20.281 -11.25 18.875 C-11.093 18.206 -10.936 17.538 -10.775 16.849 C-8.962 9.794 -6.141 4.265 0 0 Z " fill="#C3BB95" transform="translate(87,97)"/>
<path d="M0 0 C0.743 0.186 1.485 0.371 2.25 0.562 C5.022 1.003 6.366 0.765 9 0 C10.32 0 11.64 0 13 0 C13 0.66 13 1.32 13 2 C14.667 2.333 16.333 2.667 18 3 C19.667 3.333 21.333 3.667 23 4 C22.67 4.66 22.34 5.32 22 6 C21.317 5.838 20.634 5.675 19.93 5.508 C12.164 4.162 3.737 4.526 -4 6 C-4 6.66 -4 7.32 -4 8 C-4.66 8 -5.32 8 -6 8 C-5.67 7.01 -5.34 6.02 -5 5 C-3.02 4.67 -1.04 4.34 1 4 C0.67 2.68 0.34 1.36 0 0 Z " fill="#12C5CF" transform="translate(90,70)"/>
<path d="M0 0 C0.99 0.33 1.98 0.66 3 1 C3.688 3.062 3.688 3.062 4 5 C4.66 5 5.32 5 6 5 C5.67 5.99 5.34 6.98 5 8 C4.34 7.34 3.68 6.68 3 6 C-0.074 6.545 -2.987 7.207 -6 8 C-8.103 8.545 -10.208 9.087 -12.312 9.625 C-12.806 9.755 -12.806 9.755 -15.301 10.414 C-18 11 -18 11 -22 11 C-22 10.34 -22 9.68 -22 9 C-19.438 8.353 -16.875 7.707 -14.312 7.062 C-13.952 6.971 -13.952 6.971 -12.127 6.51 C-8.432 5.582 -4.747 4.702 -1 4 C-1.33 3.01 -1.66 2.02 -2 1 C-1.34 0.67 -0.68 0.34 0 0 Z " fill="#0E8585" transform="translate(130,189)"/>
<path d="M0 0 C2.31 0.66 4.62 1.32 7 2 C7 2.99 7 3.98 7 5 C5.742 5.268 4.484 5.536 3.188 5.812 C-0.016 6.62 -2.053 7.188 -4 10 C-5.188 12.188 -5.188 12.188 -6 14 C-6.66 14 -7.32 14 -8 14 C-7.93 10.477 -7.83 7.901 -5.375 5.234 C-4.107 4.181 -2.814 3.156 -1.496 2.164 C-1.249 1.972 -1.249 1.972 0 1 C0 0.67 0 0.34 0 0 Z " fill="#66EAED" transform="translate(105,123)"/>
<path d="M0 0 C0.66 0.33 1.32 0.66 2 1 C1.5 7.305 0.669 13.515 -0.375 19.75 C-0.432 20.11 -0.432 20.11 -0.72 21.933 C-1.495 26.411 -2.744 29.992 -5 34 C-5.66 33.67 -6.32 33.34 -7 33 C-6.711 32.334 -6.423 31.667 -6.125 30.98 C-3.693 24.942 -2.769 20.269 -3.059 13.793 C-2.958 8.986 -1.477 4.544 0 0 Z " fill="#C5B88E" transform="translate(175,135)"/>
<path d="M0 0 C0.66 0.33 1.32 0.66 2 1 C2.499 9.061 2.099 15.864 -2 23 C-2.66 23.33 -3.32 23.66 -4 24 C-4.66 23.67 -5.32 23.34 -6 23 C-5.01 19.04 -4.02 15.08 -3 11 C-2.34 11 -1.68 11 -1 11 C-0.67 7.37 -0.34 3.74 0 0 Z " fill="#41E0E9" transform="translate(134,111)"/>
<path d="M0 0 C3.037 4.556 4.257 8.039 4.195 13.52 C4.189 14.541 4.182 15.563 4.176 16.615 C4.159 17.67 4.142 18.725 4.125 19.812 C4.116 20.887 4.107 21.961 4.098 23.068 C4.074 25.712 4.041 28.356 4 31 C3.67 30.01 3.34 29.02 3 28 C2.34 27.67 1.68 27.34 1 27 C1.021 25.721 1.041 24.442 1.062 23.125 C1.069 18.847 0.695 14.689 0.223 10.441 C-0.096 6.946 -0.065 3.508 0 0 Z " fill="#0ABCC3" transform="translate(170,79)"/>
<path d="M0 0 C3.668 0.094 7.331 0.06 11 0 C10.361 0.289 9.721 0.578 9.062 0.875 C7 2 7 2 6 4 C-1.26 4 -8.52 4 -16 4 C-9.943 -0.543 -7.41 -1.195 0 0 Z " fill="#62E7EE" transform="translate(91,34)"/>
<path d="M0 0 C-9.1 7 -9.1 7 -12 7 C-12 7.66 -12 8.32 -12 9 C-12.66 9 -13.32 9 -14 9 C-14 9.66 -14 10.32 -14 11 C-14.66 11 -15.32 11 -16 11 C-16 11.66 -16 12.32 -16 13 C-16.66 13 -17.32 13 -18 13 C-18 13.66 -18 14.32 -18 15 C-18.66 15 -19.32 15 -20 15 C-20.33 15.66 -20.66 16.32 -21 17 C-19.989 10.758 -14.835 5.336 -10.09 1.426 C-6.486 -0.831 -4.023 -1.463 0 0 Z " fill="#018F96" transform="translate(93,79)"/>
<path d="M0 0 C0.75 1.562 0.75 1.562 1 4 C0.691 4.485 0.691 4.485 -0.875 6.938 C-6.352 15.852 -4.118 29.784 -4 40 C-6 38 -6 38 -6.243 36.127 C-6.239 35.376 -6.235 34.625 -6.23 33.852 C-6.229 33.016 -6.228 32.181 -6.227 31.32 C-6.214 30.431 -6.201 29.541 -6.188 28.625 C-6.18 27.724 -6.173 26.823 -6.166 25.895 C-5.948 7.896 -5.948 7.896 -4 4 C-3.34 4 -2.68 4 -2 4 C-2 3.34 -2 2.68 -2 2 C-1.34 2 -0.68 2 0 2 C0 1.34 0 0.68 0 0 Z " fill="#158485" transform="translate(77,90)"/>
<path d="M0 0 C0.99 0.33 1.98 0.66 3 1 C1.886 1.66 0.773 2.32 -0.375 3 C-3.427 5.14 -4.567 6.683 -5.438 10.312 C-5.623 11.529 -5.809 12.746 -6 14 C-4.845 13.835 -4.845 13.835 1 13 C0.67 12.01 0.34 11.02 0 10 C0.99 10 1.98 10 3 10 C3 11.65 3 13.3 3 15 C1.515 15.495 1.515 15.495 -6 18 C-6.33 15.69 -6.66 13.38 -7 11 C-7.66 11 -8.32 11 -9 11 C-7.677 6.001 -4.392 2.602 0 0 Z " fill="#34D6E1" transform="translate(103,124)"/>
<path d="M0 0 C0.994 0.009 1.988 0.018 3.012 0.027 C3.391 0.033 3.391 0.033 5.312 0.062 C5.312 0.722 5.312 1.382 5.312 2.062 C4.878 2.117 4.878 2.117 2.68 2.395 C-7.856 3.844 -14.176 6.551 -21.688 14.062 C-21.358 12.412 -21.028 10.763 -20.688 9.062 C-20.028 9.062 -19.368 9.062 -18.688 9.062 C-18.688 8.403 -18.688 7.743 -18.688 7.062 C-16.605 5.59 -16.605 5.59 -13.875 4 C-12.982 3.473 -12.088 2.946 -11.168 2.402 C-7.261 0.292 -4.377 -0.051 0 0 Z " fill="#037478" transform="translate(99.6875,78.9375)"/>
<path d="M0 0 C3.081 2.773 4.688 5.063 6 9 C5.34 9 4.68 9 4 9 C2.375 10.5 2.375 10.5 1 12 C1 11.34 1 10.68 1 10 C-0.072 9.876 -1.145 9.752 -2.25 9.625 C-5.379 9.104 -7.335 8.599 -10 7 C-8.721 6.917 -7.442 6.835 -6.125 6.75 C-3.914 6.48 -3.914 6.48 -2 6 C-0.31 3.817 0 2.728 0 0 Z M-14 7 C-12.68 7.33 -11.36 7.66 -10 8 C-10.99 8.33 -11.98 8.66 -13 9 C-13.33 8.34 -13.66 7.68 -14 7 Z " fill="#16C5D1" transform="translate(167,169)"/>
<path d="M0 0 C0.33 0.66 0.66 1.32 1 2 C2.32 1.67 3.64 1.34 5 1 C5 1.66 5 2.32 5 3 C5.66 3 6.32 3 7 3 C7.33 3.99 7.66 4.98 8 6 C7.34 6 6.68 6 6 6 C6 6.66 6 7.32 6 8 C6.99 8 7.98 8 9 8 C9 10.31 9 12.62 9 15 C7.109 14.742 7.109 14.742 5 14 C3.953 12.258 3.953 12.258 3.25 10.125 C3.129 9.776 3.129 9.776 2.516 8.008 C2 6 2 6 2 3 C1.34 3 0.68 3 0 3 C0 2.01 0 1.02 0 0 Z " fill="#19C5D0" transform="translate(26,139)"/>
<path d="M0 0 C0.33 0 0.66 0 1 0 C1.673 18.69 1.673 18.69 -2 25 C-5.188 26.625 -5.188 26.625 -8 27 C-7.67 25.68 -7.34 24.36 -7 23 C-9.97 21.02 -12.94 19.04 -16 17 C-15.01 16.67 -14.02 16.34 -13 16 C-9.485 18.094 -6.241 20.507 -3 23 C-1.025 15.362 -0.425 7.867 0 0 Z " fill="#1FC9D4" transform="translate(131,107)"/>
<path d="M0 0 C0.99 0.33 1.98 0.66 3 1 C1.295 8.416 -1.095 14.492 -5 21 C-5.679 22.327 -6.349 23.659 -7 25 C-6.608 19.045 -5.629 14.372 -3 9 C-3.66 8.34 -4.32 7.68 -5 7 C-3.35 6.67 -1.7 6.34 0 6 C0 4.02 0 2.04 0 0 Z " fill="#07BBC3" transform="translate(167,138)"/>
<path d="M0 0 C0.66 0 1.32 0 2 0 C1.472 2.288 0.847 4.398 0 6.594 C-1.215 10.731 -1.451 14.587 -1.625 18.875 C-1.644 19.267 -1.644 19.267 -1.742 21.25 C-1.836 23.166 -1.919 25.083 -2 27 C-4.047 23.281 -4.047 23.281 -3.625 20.75 C-3.419 20.172 -3.213 19.595 -3 19 C-3.66 18.67 -4.32 18.34 -5 18 C-6.049 14.852 -5.987 14.013 -5.188 10.938 C-5.016 10.245 -4.845 9.553 -4.668 8.84 C-4 7 -4 7 -2 5 C-1.293 3.35 -0.621 1.684 0 0 Z " fill="#0FC6CF" transform="translate(70,94)"/>
<path d="M0 0 C1.601 4.002 0.293 7.046 -1 11 C-2.601 6.998 -1.293 3.954 0 0 Z M-4 11 C-3.34 11 -2.68 11 -2 11 C-2.66 13.64 -3.32 16.28 -4 19 C-3.34 18.67 -2.68 18.34 -2 18 C-2.289 18.557 -2.577 19.114 -2.875 19.688 C-4.041 22.085 -5.034 24.516 -6 27 C-7.32 25.35 -8.64 23.7 -10 22 C-9.34 21.67 -8.68 21.34 -8 21 C-7.294 19.014 -6.631 17.012 -6 15 C-5.362 13.653 -4.707 12.313 -4 11 Z " fill="#D7CCA7" transform="translate(178,148)"/>
<path d="M0 0 C2.27 3.404 2.365 5.165 2.625 9.188 C2.7 10.274 2.775 11.361 2.852 12.48 C2.901 13.312 2.95 14.143 3 15 C2.67 15.165 2.67 15.165 1 16 C0.856 16.402 0.856 16.402 0.125 18.438 C-1.2 21.456 -2.085 21.731 -5 23 C-4.546 21.415 -4.087 19.832 -3.625 18.25 C-3.37 17.368 -3.115 16.487 -2.852 15.578 C-2 13 -2 13 -0.906 10.969 C0.191 8.585 0.202 6.86 0.125 4.25 C0.107 3.451 0.089 2.652 0.07 1.828 C0.047 1.225 0.024 0.622 0 0 Z M-7 23 C-6.34 23 -5.68 23 -5 23 C-5 23.66 -5 24.32 -5 25 C-5.99 24.67 -6.98 24.34 -8 24 C-7.67 23.67 -7.34 23.34 -7 23 Z " fill="#D4C59B" transform="translate(174,185)"/>
<path d="M0 0 C2.125 0.375 2.125 0.375 4 1 C2.517 5.449 -1.083 7.746 -5 10 C-5.66 10 -6.32 10 -7 10 C-7 9.34 -7 8.68 -7 8 C-7.99 7.34 -8.98 6.68 -10 6 C-9.446 5.734 -8.891 5.469 -8.32 5.195 C-7.596 4.842 -6.871 4.489 -6.125 4.125 C-5.406 3.777 -4.686 3.429 -3.945 3.07 C-2 2 -2 2 0 0 Z " fill="#129594" transform="translate(164,194)"/>
<path d="M0 0 C0.66 0 1.32 0 2 0 C2.745 7.154 1.347 11.302 -3 17 C-4.32 16.67 -5.64 16.34 -7 16 C-6.381 15.093 -5.762 14.185 -5.125 13.25 C-2.129 8.668 -0.745 5.461 0 0 Z " fill="#06A7AD" transform="translate(172,178)"/>
<path d="M0 0 C0.66 0 1.32 0 2 0 C2.32 6.717 1.479 11.757 -1 18 C-1.33 18 -1.66 18 -2 18 C-1.036 5.33 -1.036 5.33 0 0 Z M-3 18 C-2.34 18.66 -1.68 19.32 -1 20 C-1.825 21.32 -1.825 21.32 -6 28 C-6.33 27.34 -6.66 26.68 -7 26 C-6.223 24.055 -6.223 24.055 -5.062 21.875 C-4.682 21.151 -4.302 20.426 -3.91 19.68 C-3.61 19.125 -3.309 18.571 -3 18 Z " fill="#E4D8B4" transform="translate(180,139)"/>
<path d="M0 0 C0.99 0.33 1.98 0.66 3 1 C3 1.66 3 2.32 3 3 C3.66 3.33 4.32 3.66 5 4 C5.077 8.516 5.102 12.591 4 17 C3.67 17 3.34 17 3 17 C2.67 14.69 2.34 12.38 2 10 C1.34 13.3 0.68 16.6 0 20 C-0.941 17.176 -1.073 15.858 -0.879 12.988 C-0.831 12.231 -0.782 11.474 -0.732 10.693 C-0.676 9.908 -0.62 9.122 -0.562 8.312 C-0.51 7.515 -0.458 6.718 -0.404 5.896 C-0.275 3.931 -0.138 1.965 0 0 Z " fill="#34DAE3" transform="translate(133,102)"/>
<path d="M0 0 C0.33 0 0.66 0 1 0 C1.619 27.945 1.619 27.945 -2 41 C-2.33 41 -2.66 41 -3 41 C-3.055 39.459 -3.093 37.917 -3.125 36.375 C-3.137 35.946 -3.137 35.946 -3.195 33.773 C-3 31 -3 31 -2.014 28.205 C-0.99 24.967 -0.691 22.328 -0.586 18.945 C-0.547 17.837 -0.509 16.728 -0.469 15.586 C-0.438 14.444 -0.407 13.302 -0.375 12.125 C-0.336 10.96 -0.298 9.794 -0.258 8.594 C-0.164 5.729 -0.078 2.865 0 0 Z " fill="#669987" transform="translate(176,102)"/>
<path d="M0 0 C2.152 3.228 2.201 4.284 2 8 C1.34 8 0.68 8 0 8 C-0.66 11.3 -1.32 14.6 -2 18 C-1.01 18.33 -0.02 18.66 1 19 C-0.98 19.99 -2.96 20.98 -5 22 C-4.39 14.369 -2.204 7.298 0 0 Z " fill="#64E8EE" transform="translate(34,75)"/>
<path d="M0 0 C5.94 0.66 11.88 1.32 18 2 C18 3.32 18 4.64 18 6 C11 5.713 6.09 4.496 0 1 C0 0.67 0 0.34 0 0 Z " fill="#47E4EE" transform="translate(86,151)"/>
<path d="M0 0 C-0.33 0.66 -0.66 1.32 -1 2 C-6.617 1.106 -6.617 1.106 -9.25 0.375 C-11 0 -11 0 -13 1 C-19.588 0.412 -19.588 0.412 -22 -2 C-15.189 -5.406 -6.467 -3.651 0 0 Z " fill="#E2D7B3" transform="translate(144,210)"/>
<path d="M0 0 C0.66 0.165 0.66 0.165 4 1 C4.33 5.29 4.66 9.58 5 14 C3.68 14 2.36 14 1 14 C0.639 11.855 0.286 9.709 -0.062 7.562 C-0.26 6.368 -0.457 5.173 -0.66 3.941 C-0.772 2.971 -0.884 2 -1 1 C-0.67 0.67 -0.34 0.34 0 0 Z " fill="#E5D6B3" transform="translate(176,92)"/>
<path d="M0 0 C0.33 0.66 0.66 1.32 1 2 C0.107 4.534 -0.995 6.942 -2.09 9.395 C-3.054 12.155 -3.32 14.1 -3 17 C-2.34 17.66 -1.68 18.32 -1 19 C-2.32 18.67 -3.64 18.34 -5 18 C-5 16.68 -5 15.36 -5 14 C-6.32 13.67 -7.64 13.34 -9 13 C-9 11 -9 11 -7.125 8.875 C-5 7 -5 7 -3 7 C-2.938 6.608 -2.938 6.608 -2.625 4.625 C-2 2 -2 2 0 0 Z " fill="#0FC6CF" transform="translate(164,146)"/>
<path d="M0 0 C0.587 0.201 1.173 0.402 1.777 0.609 C1.209 0.95 0.64 1.29 0.055 1.641 C-5.73 5.272 -9.997 9.256 -14.223 14.609 C-14.553 13.949 -14.883 13.289 -15.223 12.609 C-12.807 6.932 -7.272 -1.278 0 0 Z " fill="#DAD0AD" transform="translate(98.22265625,95.390625)"/>
<path d="M0 0 C7.908 -0.323 14.244 0.496 21 5 C20.67 5.99 20.34 6.98 20 8 C19.34 7.34 18.68 6.68 18 6 C15.668 5.661 13.334 5.328 11 5 C10.01 4.34 9.02 3.68 8 3 C8 2.34 8 1.68 8 1 C5.36 1 2.72 1 0 1 C0 0.67 0 0.34 0 0 Z " fill="#019399" transform="translate(97,75)"/>
<path d="M0 0 C0.66 0.99 1.32 1.98 2 3 C1.01 3.66 0.02 4.32 -1 5 C-1 6.32 -1 7.64 -1 9 C-2.32 8.67 -3.64 8.34 -5 8 C-4.67 6.68 -4.34 5.36 -4 4 C-3.34 4 -2.68 4 -2 4 C-1.34 2.68 -0.68 1.36 0 0 Z M-7 8 C-6.34 8 -5.68 8 -5 8 C-5 9.98 -5 11.96 -5 14 C-7.31 14.33 -9.62 14.66 -12 15 C-10.625 12.5 -10.625 12.5 -9 10 C-8.34 10 -7.68 10 -7 10 C-7 9.34 -7 8.68 -7 8 Z " fill="#41DDE5" transform="translate(55,56)"/>
<path d="M0 0 C4.053 1.225 7.444 2.699 11 5 C7.992 6.003 5.462 6.303 2.312 6.562 C1.319 6.646 0.325 6.73 -0.699 6.816 C-1.458 6.877 -2.218 6.938 -3 7 C-2.427 4.133 -2.139 3.139 0 1 C0 0.67 0 0.34 0 0 Z " fill="#3BDBE4" transform="translate(131,40)"/>
<path d="M0 0 C0 0.99 0 1.98 0 3 C-2 4.688 -2 4.688 -4 6 C-3.67 4.35 -3.34 2.7 -3 1 C-2.01 0.67 -1.02 0.34 0 0 Z M-7 7 C-6.34 7.33 -5.68 7.66 -5 8 C-6.32 8.99 -7.64 9.98 -9 11 C-8.34 9.68 -7.68 8.36 -7 7 Z M-9 12 C-12.625 15 -12.625 15 -16 15 C-16.33 15.165 -16.33 15.165 -18 16 C-18.33 15.01 -18.66 14.02 -19 13 C-12.714 10.571 -12.714 10.571 -9 12 Z " fill="#E3D6B1" transform="translate(178,199)"/>
<path d="M0 0 C3.711 3.199 5.429 6.371 7 11 C6.688 13.438 6.688 13.438 6 15 C3.265 12.618 2.075 10.293 0.75 6.938 C0.394 6.06 0.038 5.182 -0.328 4.277 C-1 2 -1 2 0 0 Z " fill="#CCC7A6" transform="translate(122,93)"/>
<path d="M0 0 C0.543 0.005 0.543 0.005 3.293 0.027 C4.124 0.039 4.956 0.051 5.812 0.062 C5.812 0.722 5.812 1.382 5.812 2.062 C6.472 2.392 7.132 2.722 7.812 3.062 C5.542 3.257 3.271 3.443 1 3.625 C-0.265 3.729 -1.529 3.834 -2.832 3.941 C-6.188 4.062 -6.188 4.062 -9.188 3.062 C-9.188 2.403 -9.188 1.743 -9.188 1.062 C-5.902 -0.033 -3.451 -0.037 0 0 Z " fill="#02868B" transform="translate(99.1875,75.9375)"/>
<path d="M0 0 C3.008 3.923 4.148 5.819 3.879 10.789 C3.831 11.73 3.782 12.671 3.732 13.641 C3.676 14.625 3.62 15.61 3.562 16.625 C3.51 17.618 3.458 18.61 3.404 19.633 C3.274 22.089 3.139 24.544 3 27 C2.67 27 2.34 27 2 27 C1.939 25.805 1.879 24.61 1.816 23.379 C0.998 7.699 0.998 7.699 0 0 Z " fill="#09B6C1" transform="translate(128,94)"/>
<path d="M0 0 C7.035 -0.237 13.183 0.212 20 2 C19.67 2.66 19.34 3.32 19 4 C18.072 3.979 17.144 3.959 16.188 3.938 C13 4 13 4 10 5 C10 4.34 10 3.68 10 3 C9.361 2.938 9.361 2.938 6.125 2.625 C2.25 2.25 2.25 2.25 0 0 Z " fill="#E1D6B1" transform="translate(84,207)"/>
<path d="M0 0 C0.99 0 1.98 0 3 0 C3.248 1.114 3.495 2.227 3.75 3.375 C5 7 5 7 6.75 8.156 C9.24 9.09 11.636 9.643 14.25 10.125 C15.142 10.293 16.034 10.46 16.953 10.633 C17.291 10.693 17.291 10.693 19 11 C19 11.33 19 11.66 19 12 C9.133 12.622 9.133 12.622 4.812 10.25 C3 8 3 8 3 4 C2.34 4 1.68 4 1 4 C0.67 2.68 0.34 1.36 0 0 Z " fill="#05B0B7" transform="translate(135,189)"/>
<path d="M0 0 C0.33 0 0.66 0 1 0 C1.163 8.718 0.657 17.312 0 26 C-0.33 26 -0.66 26 -1 26 C-3.008 17.197 -2.308 8.655 0 0 Z " fill="#03A0A8" transform="translate(71,97)"/>
<path d="M0 0 C0.693 0.005 1.386 0.009 2.1 0.014 C3.796 0.025 5.492 0.043 7.188 0.062 C7.188 1.053 7.188 2.042 7.188 3.062 C6.293 2.979 5.398 2.895 4.477 2.809 C-2.782 2.197 -9.6 1.982 -16.812 3.062 C-11.346 0.025 -6.144 -0.076 0 0 Z " fill="#B5AA81" transform="translate(131.8125,200.9375)"/>
<path d="M0 0 C3.658 0.46 7.322 0.747 11 1 C11 1.33 11 1.66 11 2 C7.563 2.058 4.125 2.094 0.688 2.125 C-0.289 2.142 -1.265 2.159 -2.271 2.176 C-3.209 2.182 -4.147 2.189 -5.113 2.195 C-5.977 2.206 -6.841 2.216 -7.732 2.227 C-10 2 -10 2 -13 0 C-7.81 -2.279 -5.309 -1.654 0 0 Z " fill="#02A9B1" transform="translate(100,193)"/>
<path d="M0 0 C0.66 0.66 1.32 1.32 2 2 C-1.382 5.68 -4.425 7.979 -9 10 C-9.33 9.01 -9.66 8.02 -10 7 C-9.34 7 -8.68 7 -8 7 C-8 5.35 -8 3.7 -8 2 C-7.618 2.113 -7.618 2.113 -5.688 2.688 C-4.801 2.791 -3.914 2.894 -3 3 C-1.188 1.562 -1.188 1.562 0 0 Z " fill="#0DC3CB" transform="translate(165,187)"/>
<path d="M0 0 C0.66 0.66 1.32 1.32 2 2 C4.625 1.625 4.625 1.625 7 1 C7 2.65 7 4.3 7 6 C6.34 6 5.68 6 5 6 C4.67 7.32 4.34 8.64 4 10 C3.67 10 3.34 10 3 10 C2.67 8.35 2.34 6.7 2 5 C1.67 6.32 1.34 7.64 1 9 C0.34 9 -0.32 9 -1 9 C-0.67 6.03 -0.34 3.06 0 0 Z " fill="#54DCE4" transform="translate(25,94)"/>
<path d="M0 0 C0.33 0.66 0.66 1.32 1 2 C2.98 1.67 4.96 1.34 7 1 C7.33 1.66 7.66 2.32 8 3 C7.34 3 6.68 3 6 3 C5.67 4.32 5.34 5.64 5 7 C3.35 7 1.7 7 0 7 C0 6.34 0 5.68 0 5 C-1.32 4.67 -2.64 4.34 -4 4 C-2.68 2.68 -1.36 1.36 0 0 Z " fill="#2BD8E1" transform="translate(117,128)"/>
<path d="M0 0 C1.98 0.99 3.96 1.98 6 3 C6 3.99 6 4.98 6 6 C6.99 6.66 7.98 7.32 9 8 C8.67 8.66 8.34 9.32 8 10 C7.96 12 7.957 14 8 16 C6 14 6 14 5.562 11.562 C4.926 8.663 4.176 7.915 2 6 C0 3 0 3 0 0 Z " fill="#0FC8D2" transform="translate(122,80)"/>
<path d="M0 0 C5.707 0.519 10.737 2.157 16.133 4.062 C18.752 4.919 21.29 5.523 24 6 C24 6.33 24 6.66 24 7 C17.029 7.516 12.333 5.765 6 3 C4.007 2.313 2.01 1.635 0 1 C0 0.67 0 0.34 0 0 Z " fill="#2EA9A7" transform="translate(63,189)"/>
<path d="M0 0 C0.99 0.66 1.98 1.32 3 2 C0.116 5.408 -1.371 6.866 -5.812 7.812 C-6.338 7.843 -6.338 7.843 -9 8 C-6.147 5.068 -3.349 2.357 0 0 Z " fill="#888963" transform="translate(89,85)"/>
<path d="M0 0 C-0.969 0.413 -1.939 0.825 -2.938 1.25 C-3.948 1.828 -4.959 2.405 -6 3 C-6.362 4.326 -6.697 5.659 -7 7 C-9.562 8.25 -9.562 8.25 -12 9 C-12 7.02 -12 5.04 -12 3 C-10.758 2.298 -9.506 1.614 -8.25 0.938 C-7.902 0.746 -7.902 0.746 -6.141 -0.223 C-3.639 -1.131 -2.467 -0.883 0 0 Z " fill="#6AE7ED" transform="translate(74,39)"/>
<path d="M0 0 C0.66 0.33 1.32 0.66 2 1 C1.393 5.128 -0.038 8.332 -2 12 C-2.99 12 -3.98 12 -5 12 C-4.424 7.245 -2.449 4.03 0 0 Z " fill="#C6B78C" transform="translate(173,190)"/>
<path d="M0 0 C2.312 2.062 2.312 2.062 4 4 C1.275 4 -0.328 3.658 -2.875 2.875 C-6.545 1.9 -8.603 2.089 -12 4 C-12.66 3.34 -13.32 2.68 -14 2 C-4.174 -1.789 -4.174 -1.789 0 0 Z " fill="#978E66" transform="translate(134,197)"/>
<path d="M0 0 C0.33 0.66 0.66 1.32 1 2 C1.66 2 2.32 2 3 2 C3 2.66 3 3.32 3 4 C3.66 4 4.32 4 5 4 C5.66 5.98 6.32 7.96 7 10 C4.625 9.75 4.625 9.75 2 9 C-0.178 6.096 -0.197 3.549 0 0 Z " fill="#0D9DA7" transform="translate(94,142)"/>
<path d="M0 0 C0.33 0.99 0.66 1.98 1 3 C-3.245 7.73 -3.245 7.73 -6.625 8.938 C-9 9 -9 9 -12 7 C-11.301 6.662 -10.603 6.325 -9.883 5.977 C-8.973 5.531 -8.063 5.085 -7.125 4.625 C-6.22 4.184 -5.315 3.743 -4.383 3.289 C-2 2 -2 2 0 0 Z " fill="#ACA47A" transform="translate(167,199)"/>
<path d="M0 0 C4.202 3.718 6.998 8.317 10 13 C6.949 12.683 6.093 12.111 4.078 9.715 C3.475 8.798 2.872 7.882 2.25 6.938 C1.636 6.018 1.023 5.099 0.391 4.152 C0.161 3.797 0.161 3.797 -1 2 C-0.67 1.34 -0.34 0.68 0 0 Z " fill="#E5E1C4" transform="translate(35,165)"/>
<path d="M0 0 C1.411 2.822 0.523 4.203 -0.375 7.188 C-1.612 11.48 -2.507 15.565 -3 20 C-3.33 20 -3.66 20 -4 20 C-4 15.38 -4 10.76 -4 6 C-3.34 6 -2.68 6 -2 6 C-1.856 5.196 -1.711 4.391 -1.562 3.562 C-1 1 -1 1 0 0 Z " fill="#B5AF88" transform="translate(77,111)"/>
<path d="M0 0 C3.018 0.335 4.809 0.866 7.312 2.625 C9.592 5.833 9.296 8.157 9 12 C6.38 9.629 4.642 7.127 3 4 C3 3.01 3 2.02 3 1 C2.01 0.67 1.02 0.34 0 0 Z " fill="#DAD3B5" transform="translate(42,178)"/>
<path d="M0 0 C2.97 0 5.94 0 9 0 C9.33 1.65 9.66 3.3 10 5 C8.68 5.33 7.36 5.66 6 6 C5.34 5.01 4.68 4.02 4 3 C1.875 2.312 1.875 2.312 0 2 C0 1.34 0 0.68 0 0 Z " fill="#47E0E8" transform="translate(107,122)"/>
<path d="M0 0 C0.62 -0.007 0.62 -0.007 3.758 -0.043 C6.875 0.188 6.875 0.188 8.875 2.188 C8.113 2.164 7.351 2.141 6.566 2.117 C-0.032 2.002 -5.748 2.487 -12.125 4.188 C-11.795 3.198 -11.465 2.207 -11.125 1.188 C-7.621 -0.277 -3.74 0.02 0 0 Z " fill="#05AFB7" transform="translate(100.125,73.8125)"/>
<path d="M0 0 C2.762 2.762 2.579 5.207 3 9 C2.01 8.835 2.01 8.835 -3 8 C-3 8.66 -3 9.32 -3 10 C-3.66 10 -4.32 10 -5 10 C-5.33 9.34 -5.66 8.68 -6 8 C-7.32 7.34 -8.64 6.68 -10 6 C-6.7 6.33 -3.4 6.66 0 7 C-0.186 6.031 -0.371 5.061 -0.562 4.062 C-0.707 3.052 -0.851 2.041 -1 1 C-0.67 0.67 -0.34 0.34 0 0 Z " fill="#1ACCD5" transform="translate(125,70)"/>
<path d="M0 0 C0.66 0 1.32 0 2 0 C2.844 1.41 3.675 2.829 4.5 4.25 C4.732 4.644 4.732 4.644 5.906 6.641 C7 9 7 9 7 13 C4 12 4 12 2.832 10.039 C2.664 9.641 2.664 9.641 1.812 7.625 C1.468 6.834 1.124 6.042 0.77 5.227 C0 3 0 3 0 0 Z " fill="#ECE7C8" transform="translate(165,65)"/>
<path d="M0 0 C2.062 0.438 2.062 0.438 4 1 C4 1.66 4 2.32 4 3 C6.64 3 9.28 3 12 3 C12 3.66 12 4.32 12 5 C3.807 5.63 3.807 5.63 0.438 3 C0.2 2.67 0.2 2.67 -1 1 C-0.67 0.67 -0.34 0.34 0 0 Z " fill="#08C1C8" transform="translate(143,195)"/>
<path d="M0 0 C-0.33 0.495 -0.33 0.495 -2 3 C-4.734 3.296 -6.939 3.013 -9.625 2.438 C-12 2 -12 2 -15 3 C-15.66 2.34 -16.32 1.68 -17 1 C-10.907 -0.883 -6.275 -1.075 0 0 Z " fill="#E2D6B2" transform="translate(122,209)"/>
<path d="M0 0 C0.447 0.398 0.895 0.797 1.355 1.207 C4.138 3.646 6.748 5.85 9.938 7.75 C10.278 7.956 10.278 7.956 12 9 C12 9.66 12 10.32 12 11 C6.8 9.638 3.749 7.749 0 4 C0 2.68 0 1.36 0 0 Z " fill="#0E9A9A" transform="translate(136,194)"/>
<path d="M0 0 C2.062 0.438 2.062 0.438 4 1 C4.66 0.67 5.32 0.34 6 0 C6.99 0.66 7.98 1.32 9 2 C5.04 2.99 1.08 3.98 -3 5 C-3 4.01 -3 3.02 -3 2 C-2.01 1.34 -1.02 0.68 0 0 Z " fill="#0AC1C9" transform="translate(112,187)"/>
<path d="M0 0 C0.33 0.34 0.33 0.34 2 2.062 C5.495 5.567 9.251 8.772 13 12 C12.01 12.33 11.02 12.66 10 13 C5.703 10.337 2.519 7.189 0.5 2.562 C0.335 1.717 0.17 0.871 0 0 Z " fill="#0BADB7" transform="translate(42,167)"/>
<path d="M0 0 C0.33 0.66 0.66 1.32 1 2 C1.99 2.33 2.98 2.66 4 3 C3.34 3.33 3.34 3.33 0 5 C0.99 5.33 1.98 5.66 3 6 C2.34 7.32 1.68 8.64 1 10 C-0.32 9.34 -1.64 8.68 -3 8 C-2.453 4.625 -1.945 2.918 0 0 Z " fill="#10C3CE" transform="translate(62,172)"/>
<path d="M0 0 C1.65 0 3.3 0 5 0 C5 0.66 5 1.32 5 2 C6.98 2 8.96 2 11 2 C10.67 2.66 10.34 3.32 10 4 C8.35 4 6.7 4 5 4 C4.67 4.66 4.34 5.32 4 6 C2.624 4.71 1.292 3.373 0 2 C0 1.34 0 0.68 0 0 Z " fill="#E2D6B2" transform="translate(147,211)"/>
<path d="M0 0 C0.91 0.009 1.82 0.018 2.758 0.027 C3.456 0.039 4.155 0.051 4.875 0.062 C4.545 1.053 4.215 2.042 3.875 3.062 C1.812 3.75 1.812 3.75 -0.125 4.062 C-0.125 3.403 -0.125 2.742 -0.125 2.062 C-1.775 2.722 -3.425 3.383 -5.125 4.062 C-5.785 3.072 -6.445 2.083 -7.125 1.062 C-4.6 -0.2 -2.813 -0.036 0 0 Z " fill="#4FE3EB" transform="translate(121.125,34.9375)"/>
<path d="M0 0 C0.33 0.495 0.33 0.495 2 3 C2.557 3.804 3.114 4.609 3.688 5.438 C5 8 5 8 4.688 10.312 C4.461 10.869 4.234 11.426 4 12 C1 10 1 10 0.312 7.688 C0.011 5.094 -0.075 2.609 0 0 Z " fill="#13C8D4" transform="translate(68,126)"/>
<path d="M0 0 C1.967 3.566 2 5.939 2 10 C3 12.375 3 12.375 4 14 C2.68 13.67 1.36 13.34 0 13 C-0.967 9.878 -0.99 7.479 -0.562 4.25 C-0.461 3.451 -0.359 2.652 -0.254 1.828 C-0.17 1.225 -0.086 0.622 0 0 Z " fill="#E3DAB9" transform="translate(79,129)"/>
<path d="M0 0 C0.66 1.32 1.32 2.64 2 4 C1.01 4.33 0.02 4.66 -1 5 C-0.67 3.35 -0.34 1.7 0 0 Z M-2 5 C-1.67 6.32 -1.34 7.64 -1 9 C-1.825 9.495 -1.825 9.495 -6 12 C-5.34 10.35 -4.68 8.7 -4 7 C-3.34 7 -2.68 7 -2 7 C-2 6.34 -2 5.68 -2 5 Z M-8 12 C-7.34 12 -6.68 12 -6 12 C-6 12.66 -6 13.32 -6 14 C-6.99 13.67 -7.98 13.34 -9 13 C-8.67 12.67 -8.34 12.34 -8 12 Z " fill="#DBCEA6" transform="translate(175,196)"/>
<path d="M0 0 C1.125 3.75 1.125 3.75 0 6 C-0.66 6 -1.32 6 -2 6 C-2 6.66 -2 7.32 -2 8 C-2.66 8 -3.32 8 -4 8 C-4 8.66 -4 9.32 -4 10 C-4.66 10 -5.32 10 -6 10 C-6.33 10.66 -6.66 11.32 -7 12 C-6.388 8.56 -5.079 6.484 -2.938 3.75 C-2.39 3.044 -1.842 2.337 -1.277 1.609 C-0.856 1.078 -0.434 0.547 0 0 Z " fill="#019CA4" transform="translate(79,84)"/>
<path d="M0 0 C0.33 0 0.66 0 1 0 C1.66 6.34 0.834 10.249 -2.711 15.566 C-3.136 16.039 -3.562 16.513 -4 17 C-4.66 17 -5.32 17 -6 17 C-4.932 14.782 -3.846 12.778 -2.438 10.75 C-0.534 7.108 -0.346 4.084 0 0 Z " fill="#33AFAB" transform="translate(173,178)"/>
<path d="M0 0 C0.33 0.66 0.66 1.32 1 2 C1.66 2 2.32 2 3 2 C3 2.66 3 3.32 3 4 C3.66 4.33 4.32 4.66 5 5 C3.416 4.885 1.833 4.758 0.25 4.625 C-0.632 4.555 -1.513 4.486 -2.422 4.414 C-4.991 4.001 -6.758 3.288 -9 2 C-7 1 -7 1 -5.062 1.562 C-4.382 1.707 -3.701 1.851 -3 2 C-2.01 1.34 -1.02 0.68 0 0 Z " fill="#0ABDC5" transform="translate(95,188)"/>
<path d="M0 0 C3.3 0 6.6 0 10 0 C9.67 0.165 9.67 0.165 8 1 C8 1.66 8 2.32 8 3 C5.03 3 2.06 3 -1 3 C-0.67 2.01 -0.34 1.02 0 0 Z " fill="#D5CEAA" transform="translate(104,92)"/>
<path d="M0 0 C3.63 0 7.26 0 11 0 C11 0.66 11 1.32 11 2 C9.02 2.165 9.02 2.165 -1 3 C-0.67 2.01 -0.34 1.02 0 0 Z " fill="#066C6C" transform="translate(94,79)"/>
<path d="M0 0 C1.98 0.495 1.98 0.495 12 3 C12 3.33 12 3.66 12 4 C8.37 4 4.74 4 1 4 C0.67 2.68 0.34 1.36 0 0 Z " fill="#C7BB93" transform="translate(145,206)"/>
<path d="M0 0 C2.27 -0.081 4.541 -0.139 6.812 -0.188 C8.077 -0.222 9.342 -0.257 10.645 -0.293 C14 0 14 0 15.949 1.512 C16.296 2.003 16.643 2.494 17 3 C13.261 3 9.934 2.589 6.25 2 C5.08 1.814 3.909 1.629 2.703 1.438 C1.811 1.293 0.919 1.149 0 1 C0 0.67 0 0.34 0 0 Z " fill="#C5B78F" transform="translate(127,203)"/>
<path d="M0 0 C0.66 0 1.32 0 2 0 C1.979 0.907 1.959 1.815 1.938 2.75 C2 6 2 6 2.75 8.125 C2.833 8.744 2.915 9.363 3 10 C1.68 11.32 0.36 12.64 -1 14 C-0.67 9.38 -0.34 4.76 0 0 Z " fill="#EBDEBD" transform="translate(178,185)"/>
<path d="M0 0 C0.66 0 1.32 0 2 0 C2.369 7.385 2.369 7.385 0.5 10.5 C0.005 10.995 -0.49 11.49 -1 12 C-1.143 3.429 -1.143 3.429 0 0 Z " fill="#E2D7B3" transform="translate(181,123)"/>
<path d="M0 0 C2.632 2.456 4.815 4.554 6 8 C5.625 10.25 5.625 10.25 5 12 C4.34 10.02 3.68 8.04 3 6 C2.34 6 1.68 6 1 6 C0.67 4.02 0.34 2.04 0 0 Z " fill="#039CA7" transform="translate(122,86)"/>
<path d="M0 0 C2.438 1.125 2.438 1.125 5 3 C5.812 6.188 5.812 6.188 6 9 C1.2 5.677 1.2 5.677 0.188 2.25 C0.126 1.507 0.064 0.765 0 0 Z " fill="#0F7D80" transform="translate(117,83)"/>
<path d="M0 0 C2.31 0.33 4.62 0.66 7 1 C7 1.99 7 2.98 7 4 C4.69 3.67 2.38 3.34 0 3 C0 2.01 0 1.02 0 0 Z " fill="#BCB48D" transform="translate(69,196)"/>
<path d="M0 0 C1.315 2.166 2.03 3.501 1.875 6.062 C0.75 8.554 -0.733 9.537 -3 11 C-2.449 7.051 -1.611 3.651 0 0 Z " fill="#8B8664" transform="translate(76,98)"/>
<path d="M0 0 C2.31 0.33 4.62 0.66 7 1 C7.33 1.99 7.66 2.98 8 4 C8.66 4 9.32 4 10 4 C9.67 4.99 9.34 5.98 9 7 C7.497 6.025 5.998 5.045 4.5 4.062 C3.665 3.517 2.829 2.972 1.969 2.41 C1.319 1.945 0.669 1.479 0 1 C0 0.67 0 0.34 0 0 Z " fill="#06BBC4" transform="translate(112,76)"/>
<path d="M0 0 C3.683 0.6 7.345 1.248 11 2 C10.01 2.99 9.02 3.98 8 5 C5.36 3.68 2.72 2.36 0 1 C0 0.67 0 0.34 0 0 Z " fill="#39E2EA" transform="translate(86,151)"/>
<path d="M0 0 C0.66 0.33 1.32 0.66 2 1 C1.398 3.02 0.727 5.021 0 7 C-0.33 7.165 -0.33 7.165 -2 8 C-2.66 7.67 -3.32 7.34 -4 7 C-3.67 6.01 -3.34 5.02 -3 4 C-2.34 4 -1.68 4 -1 4 C-0.67 2.68 -0.34 1.36 0 0 Z " fill="#54E6EE" transform="translate(132,127)"/>
<path d="M0 0 C4.261 6.391 4.261 6.391 3.625 10.312 C3.419 10.869 3.213 11.426 3 12 C2.01 11.34 1.02 10.68 0 10 C-0.293 7.617 -0.293 7.617 -0.188 4.875 C-0.16 3.965 -0.133 3.055 -0.105 2.117 C-0.071 1.419 -0.036 0.72 0 0 Z " fill="#3FBABB" transform="translate(170,79)"/>
<path d="M0 0 C2.31 0.66 4.62 1.32 7 2 C7 2.99 7 3.98 7 5 C6.01 5.33 5.02 5.66 4 6 C1.216 4.608 1.021 2.844 0 0 Z " fill="#54E7EC" transform="translate(105,123)"/>
<path d="M0 0 C3.485 0.645 6.028 2.101 9 4 C8.67 4.99 8.34 5.98 8 7 C4.957 5.273 2.301 3.664 0 1 C0 0.67 0 0.34 0 0 Z " fill="#019FA6" transform="translate(109,76)"/>
<path d="M0 0 C0.33 1.32 0.66 2.64 1 4 C1.66 4 2.32 4 3 4 C3.33 5.32 3.66 6.64 4 8 C3.505 8.33 3.505 8.33 1 10 C0.639 8.523 0.286 7.043 -0.062 5.562 C-0.26 4.739 -0.457 3.915 -0.66 3.066 C-0.716 2.725 -0.716 2.725 -1 1 C-0.67 0.67 -0.34 0.34 0 0 Z " fill="#EFE1BC" transform="translate(173,173)"/>
<path d="M0 0 C3.081 2.773 4.688 5.063 6 9 C4 8 2 7 0 6 C0 4.02 0 2.04 0 0 Z " fill="#30BCC3" transform="translate(167,169)"/>
<path d="M0 0 C2.179 3.268 3.498 6.381 5 10 C3.125 9.438 3.125 9.438 1 8 C-0.25 4.375 -0.25 4.375 -1 1 C-0.67 0.67 -0.34 0.34 0 0 Z " fill="#EEEBD2" transform="translate(29,152)"/>
<path d="M0 0 C2.686 2.686 3.06 5.376 4 9 C2.35 8.67 0.7 8.34 -1 8 C-0.67 5.36 -0.34 2.72 0 0 Z " fill="#26ABB1" transform="translate(73,131)"/>
<path d="M0 0 C1.374 3.818 0.68 7.073 0 11 C-2.094 7.598 -2.179 4.947 -2 1 C-1.34 0.67 -0.68 0.34 0 0 Z " fill="#09BEC7" transform="translate(171,128)"/>
<path d="M0 0 C1.32 0.66 1.32 0.66 8 4 C5 5 5 5 1 5 C0.67 3.35 0.34 1.7 0 0 Z " fill="#45E0E7" transform="translate(134,41)"/>
<path d="M0 0 C-2.622 2.154 -4.644 3.401 -8 4 C-8 3.01 -8 2.02 -8 1 C-3.375 -1.125 -3.375 -1.125 0 0 Z " fill="#05ABAF" transform="translate(163,196)"/>
<path d="M0 0 C3.342 0.597 5.464 1.736 8 4 C8 4.66 8 5.32 8 6 C4.745 5.651 3.981 4.979 1.75 2.438 C1.172 1.633 0.595 0.829 0 0 Z " fill="#29B4B7" transform="translate(46,176)"/>
<path d="M0 0 C0.66 0 1.32 0 2 0 C1.34 2.31 0.68 4.62 0 7 C-0.99 7 -1.98 7 -3 7 C-1.125 1.125 -1.125 1.125 0 0 Z " fill="#B6AE85" transform="translate(169,161)"/>
<path d="M0 0 C0.66 1.65 1.32 3.3 2 5 C1.01 4.835 1.01 4.835 -4 4 C-4.33 3.01 -4.66 2.02 -5 1 C-3 0 -3 0 0 0 Z " fill="#CEDFD0" transform="translate(95,147)"/>
<path d="M0 0 C1.125 1.75 1.125 1.75 2 4 C1.125 6.25 1.125 6.25 0 8 C-0.66 8 -1.32 8 -2 8 C-1.125 1.125 -1.125 1.125 0 0 Z " fill="#37D9E6" transform="translate(135,124)"/>
<path d="M0 0 C0.33 0.99 0.66 1.98 1 3 C0.01 3.66 0.01 3.66 -5 7 C-5.66 6.67 -6.32 6.34 -7 6 C-4.69 4.02 -2.38 2.04 0 0 Z " fill="#81805C" transform="translate(87,86)"/>
<path d="M0 0 C3.442 2.66 3.995 5.903 5 10 C3.5 8.625 3.5 8.625 2 7 C2 6.34 2 5.68 2 5 C1.34 5 0.68 5 0 5 C0 3.35 0 1.7 0 0 Z " fill="#2CBBC0" transform="translate(165,69)"/>
<path d="M0 0 C0 3 0 3 -2 6 C-2.33 6.99 -2.66 7.98 -3 9 C-3.66 7.68 -4.32 6.36 -5 5 C-3.35 3.35 -1.7 1.7 0 0 Z " fill="#DCD4AF" transform="translate(175,166)"/>
<path d="M0 0 C0.99 0 1.98 0 3 0 C3 0.66 3 1.32 3 2 C3.66 2.33 4.32 2.66 5 3 C4.67 3.495 4.67 3.495 3 6 C2.34 6 1.68 6 1 6 C0.67 4.02 0.34 2.04 0 0 Z " fill="#3ADDE7" transform="translate(27,121)"/>
<path d="M0 0 C0.66 0 1.32 0 2 0 C2 0.66 2 1.32 2 2 C2.99 2.66 3.98 3.32 5 4 C4.34 4.33 4.34 4.33 1 6 C0.67 5.01 0.34 4.02 0 3 C-0.66 2.67 -1.32 2.34 -2 2 C-1.34 2 -0.68 2 0 2 C0 1.34 0 0.68 0 0 Z " fill="#2BD7E0" transform="translate(102,62)"/>
<path d="M0 0 C0.825 0.33 0.825 0.33 5 2 C5 2.99 5 3.98 5 5 C3.68 5 2.36 5 1 5 C0.67 3.35 0.34 1.7 0 0 Z " fill="#CFC199" transform="translate(64,193)"/>
<path d="M0 0 C0.66 0.33 1.32 0.66 2 1 C1.34 2.98 0.68 4.96 0 7 C-0.99 7 -1.98 7 -3 7 C-2.01 4.69 -1.02 2.38 0 0 Z " fill="#A49D76" transform="translate(167,159)"/>
<path d="M0 0 C1.65 1.65 3.3 3.3 5 5 C4.67 5.99 4.34 6.98 4 8 C2 6.25 2 6.25 0 4 C0 2.68 0 1.36 0 0 Z " fill="#ECF1D7" transform="translate(159,56)"/>
</svg>
