<?xml version="1.0" encoding="UTF-8"?>
<!-- Generator: visioncortex VTracer 0.6.12 -->
<svg version="1.1" xmlns="http://www.w3.org/2000/svg" width="207" height="235">
<path d="M0 0 C68.31 0 136.62 0 207 0 C207 77.55 207 155.1 207 235 C138.69 235 70.38 235 0 235 C0 157.45 0 79.9 0 0 Z " fill="#FCF5DF" transform="translate(0,0)"/>
<path d="M0 0 C0.787 0.002 1.573 0.005 2.384 0.007 C10.439 0.259 17.072 2.735 23.117 8.191 C27.739 13.401 27.607 18.418 27.545 25.053 C27.19 30.42 25.765 35.172 24.062 40.25 C23.711 41.344 23.36 42.438 22.998 43.564 C18.753 56.605 14.114 69.516 9.495 82.428 C7.172 88.933 4.926 95.465 2.688 102 C-1.544 114.295 -6.009 126.497 -10.602 138.661 C-11.549 141.192 -12.467 143.731 -13.371 146.277 C-16.76 155.629 -20.87 163.724 -30.25 168.125 C-36.177 169.937 -42.223 169.977 -48.375 170.062 C-49.361 170.081 -50.347 170.1 -51.364 170.119 C-58.775 170.054 -63.749 168.418 -69.719 164.09 C-73.846 159.623 -76.114 154.69 -78.398 149.141 C-78.744 148.31 -79.089 147.479 -79.445 146.623 C-83.541 136.653 -87.184 126.522 -90.812 116.375 C-91.55 114.323 -92.288 112.27 -93.027 110.218 C-97.864 96.748 -102.642 83.257 -107.375 69.75 C-107.655 68.952 -107.935 68.153 -108.223 67.331 C-111.204 58.817 -114.141 50.288 -117.02 41.738 C-117.273 40.992 -117.527 40.245 -117.788 39.476 C-120.548 31.225 -122.876 21.562 -119.781 13.078 C-116.588 7.633 -112.545 4.543 -106.547 2.484 C-97.494 0.322 -85.62 -0.316 -77.309 4.383 C-66.352 12.356 -63.471 34.71 -59.664 47.184 C-59.316 48.323 -58.967 49.462 -58.608 50.636 C-57.929 52.862 -57.252 55.088 -56.579 57.315 C-54.748 63.32 -52.771 69.227 -50.536 75.095 C-49.671 77.612 -49.089 80.081 -48.562 82.688 C-48.274 83.966 -47.985 85.245 -47.688 86.562 C-47.028 86.892 -46.368 87.222 -45.688 87.562 C-45.432 86.5 -45.177 85.438 -44.914 84.344 C-43.46 78.536 -41.761 72.802 -40.062 67.062 C-39.713 65.88 -39.363 64.697 -39.003 63.479 C-36.344 54.574 -33.489 45.749 -30.48 36.957 C-28.71 31.758 -27.111 26.567 -25.71 21.257 C-23.84 14.244 -21.866 7.942 -15.688 3.562 C-10.367 0.788 -5.97 -0.019 0 0 Z " fill="#3C8AE5" transform="translate(145.6875,29.4375)"/>
<path d="M0 0 C5.806 5.509 5.806 5.509 6.212 10.726 C6.344 18.654 5.263 25.195 2.75 32.688 C2.399 33.781 2.047 34.875 1.685 36.002 C-2.559 49.042 -7.198 61.954 -11.817 74.865 C-14.141 81.371 -16.386 87.902 -18.625 94.438 C-22.856 106.732 -27.322 118.934 -31.915 131.098 C-32.861 133.629 -33.779 136.168 -34.684 138.715 C-38.073 148.066 -42.183 156.161 -51.562 160.562 C-57.49 162.374 -63.536 162.414 -69.688 162.5 C-70.674 162.519 -71.66 162.538 -72.676 162.557 C-80.088 162.491 -85.061 160.856 -91.031 156.527 C-97.613 149.403 -100.562 139.906 -104 131 C-104.472 129.821 -104.944 128.641 -105.43 127.426 C-108.141 120.423 -108.141 120.423 -107 117 C-106.662 117.82 -106.325 118.64 -105.977 119.484 C-105.531 120.562 -105.085 121.64 -104.625 122.75 C-104.184 123.817 -103.743 124.885 -103.289 125.984 C-102.267 128.376 -101.198 130.694 -100 133 C-100.175 132.629 -100.175 132.629 -101.062 130.75 C-102.045 127.868 -102.033 126.788 -101 124 C-100.01 124.33 -99.02 124.66 -98 125 C-98.33 125.165 -98.33 125.165 -100 126 C-98.02 130.29 -96.04 134.58 -94 139 C-93.67 139 -93.34 139 -93 139 C-93 138.34 -93 137.68 -93 137 C-92.01 136.67 -91.02 136.34 -90 136 C-89.67 136.99 -89.34 137.98 -89 139 C-87.02 137.35 -85.04 135.7 -83 134 C-83.33 133.01 -83.66 132.02 -84 131 C-85.98 131 -87.96 131 -90 131 C-89.67 130.34 -89.34 129.68 -89 129 C-88.34 129 -87.68 129 -87 129 C-87 128.01 -87 127.02 -87 126 C-88.32 125.67 -89.64 125.34 -91 125 C-90.505 124.67 -90.505 124.67 -88 123 C-88.66 123 -89.32 123 -90 123 C-90 122.34 -90 121.68 -90 121 C-90.495 120.67 -90.495 120.67 -93 119 C-92.67 118.01 -92.34 117.02 -92 116 C-91.34 116.66 -90.68 117.32 -90 118 C-89.34 117.67 -89.34 117.67 -86 116 C-85.505 116.33 -85.505 116.33 -83 118 C-83.495 118.165 -83.495 118.165 -86 119 C-86.66 118.67 -87.32 118.34 -88 118 C-88 118.66 -88 119.32 -88 120 C-87.01 120 -86.02 120 -85 120 C-84.835 120.33 -84.835 120.33 -84 122 C-82 117.25 -82 117.25 -82 115 C-82.99 115 -83.98 115 -85 115 C-83.796 112.506 -82.546 110.319 -81 108 C-80.298 106.012 -79.626 104.013 -79 102 C-79.495 102.165 -79.495 102.165 -82 103 C-82.99 102.01 -83.98 101.02 -85 100 C-84.67 99.34 -84.34 98.68 -84 98 C-84.66 97.67 -85.32 97.34 -86 97 C-85.67 96.34 -85.34 95.68 -85 95 C-83.68 95 -82.36 95 -81 95 C-81.66 94.34 -82.32 93.68 -83 93 C-82.34 92.835 -82.34 92.835 -79 92 C-79.33 90.35 -79.66 88.7 -80 87 C-78.68 87.33 -77.36 87.66 -76 88 C-76.33 89.32 -76.66 90.64 -77 92 C-76.34 91.01 -75.68 90.02 -75 89 C-72.375 88.812 -72.375 88.812 -70 89 C-69.876 89.784 -69.752 90.567 -69.625 91.375 C-69 94 -69 94 -67 96 C-67.66 96.33 -67.66 96.33 -71 98 C-71 98.99 -71 99.98 -71 101 C-69.541 100.523 -68.083 100.043 -66.625 99.562 C-65.813 99.296 -65.001 99.029 -64.164 98.754 C-62 98 -62 98 -60 97 C-59.876 97.639 -59.752 98.279 -59.625 98.938 C-59.419 99.618 -59.213 100.299 -59 101 C-58.67 101.165 -58.67 101.165 -57 102 C-57 102.99 -57 103.98 -57 105 C-56.34 105 -55.68 105 -55 105 C-54.876 103.886 -54.752 102.772 -54.625 101.625 C-54 98 -54 98 -52 96 C-53.32 94.35 -54.64 92.7 -56 91 C-55.34 90.34 -54.68 89.68 -54 89 C-54 89.66 -54 90.32 -54 91 C-53.01 91.33 -52.02 91.66 -51 92 C-50.67 91.505 -50.67 91.505 -49 89 C-47.667 89.667 -46.333 90.333 -45 91 C-45 91.66 -45 92.32 -45 93 C-44.505 92.835 -44.505 92.835 -42 92 C-42 92.99 -42 93.98 -42 95 C-41.34 94.67 -40.68 94.34 -40 94 C-39.34 94.33 -38.68 94.66 -38 95 C-37.67 94.34 -37.34 93.68 -37 93 C-36.67 93.99 -36.34 94.98 -36 96 C-35.457 95.518 -34.915 95.036 -34.355 94.539 C-33.64 93.907 -32.925 93.276 -32.188 92.625 C-31.48 91.999 -30.772 91.372 -30.043 90.727 C-28 89 -28 89 -25 87 C-25.33 86.01 -25.66 85.02 -26 84 C-26 82 -26 80 -26 78 C-24.68 78 -23.36 78 -22 78 C-21.835 77.34 -21.835 77.34 -21 74 C-20.34 74.33 -19.68 74.66 -19 75 C-19.165 73.68 -19.165 73.68 -20 67 C-20.99 67 -21.98 67 -23 67 C-23 67.66 -23 68.32 -23 69 C-22.34 69 -21.68 69 -21 69 C-21.33 69.66 -21.66 70.32 -22 71 C-22.495 70.835 -22.495 70.835 -25 70 C-25.99 70.66 -26.98 71.32 -28 72 C-28.33 72.165 -28.33 72.165 -30 73 C-29.67 73.99 -29.34 74.98 -29 76 C-30.98 76 -32.96 76 -35 76 C-35.33 76.66 -35.66 77.32 -36 78 C-36 77.34 -36 76.68 -36 76 C-36.495 75.835 -36.495 75.835 -39 75 C-36.56 72.072 -35.176 71.049 -31.438 70 C-27.572 68.875 -27.025 68.314 -25 65 C-24.137 63.948 -23.261 62.907 -22.375 61.875 C-20 59 -20 59 -19 57 C-18.01 57 -17.02 57 -16 57 C-16 56.34 -16 55.68 -16 55 C-15.34 55 -14.68 55 -14 55 C-14 54.34 -14 53.68 -14 53 C-13.67 52.67 -13.34 52.34 -13 52 C-13.66 51.34 -14.32 50.68 -15 50 C-13.35 49.67 -11.7 49.34 -10 49 C-10.165 48.34 -10.165 48.34 -11 45 C-10.01 44.34 -9.02 43.68 -8 43 C-7.707 40.398 -7.707 40.398 -7.812 37.375 C-7.84 36.372 -7.867 35.369 -7.895 34.336 C-7.912 33.951 -7.912 33.951 -8 32 C-7.67 31.835 -7.67 31.835 -6 31 C-6.165 30.67 -6.165 30.67 -7 29 C-6.01 29 -5.02 29 -4 29 C-4 27.02 -4 25.04 -4 23 C-3.34 23 -2.68 23 -2 23 C-2 21.02 -2 19.04 -2 17 C-1.34 17 -0.68 17 0 17 C0 15.68 0 14.36 0 13 C-0.165 12.835 -0.165 12.835 -1 12 C-0.67 11.01 -0.34 10.02 0 9 C0.66 9 1.32 9 2 9 C1.67 7.515 1.67 7.515 0 0 Z M-44 96 C-44.33 97.98 -44.66 99.96 -45 102 C-43.68 100.68 -42.36 99.36 -41 98 C-41.99 97.34 -42.98 96.68 -44 96 Z " fill="#3685E1" transform="translate(167,37)"/>
<path d="M0 0 C68.31 0 136.62 0 207 0 C207 77.55 207 155.1 207 235 C138.69 235 70.38 235 0 235 C0 157.45 0 79.9 0 0 Z M2.031 2.663 C0.751 5.565 0.628 7.702 0.633 10.877 C0.627 12.081 0.621 13.286 0.616 14.526 C0.625 15.86 0.634 17.194 0.644 18.528 C0.643 19.937 0.641 21.346 0.637 22.755 C0.632 26.602 0.646 30.449 0.663 34.296 C0.678 38.392 0.677 42.487 0.678 46.582 C0.681 53.527 0.696 60.472 0.719 67.417 C0.747 76.103 0.758 84.788 0.763 93.474 C0.781 127.407 0.944 161.337 1.422 195.266 C1.453 197.486 1.482 199.705 1.511 201.925 C1.565 205.98 1.628 210.036 1.692 214.092 C1.7 214.693 1.7 214.693 1.741 217.738 C1.76 218.821 1.779 219.904 1.799 221.02 C1.813 221.964 1.828 222.908 1.843 223.881 C2 226 2 226 3 227 C5.552 227.1 8.078 227.134 10.63 227.127 C11.035 227.128 11.035 227.128 13.081 227.132 C15.812 227.136 18.543 227.133 21.273 227.129 C23.223 227.131 25.172 227.133 27.121 227.135 C32.431 227.139 37.741 227.137 43.05 227.134 C48.594 227.132 54.138 227.134 59.681 227.136 C68.993 227.138 78.304 227.135 87.615 227.13 C98.397 227.125 109.179 227.127 119.961 227.132 C129.2 227.137 138.439 227.137 147.678 227.135 C153.204 227.133 158.73 227.133 164.256 227.136 C169.45 227.139 174.644 227.137 179.838 227.131 C181.75 227.13 183.662 227.13 185.574 227.133 C188.173 227.135 190.771 227.132 193.37 227.127 C194.136 227.129 194.903 227.131 195.693 227.134 C200.886 227.114 200.886 227.114 202 226 C202.098 223.105 202.13 220.233 202.12 217.338 C202.121 216.418 202.122 215.499 202.123 214.551 C202.125 211.445 202.119 208.338 202.114 205.232 C202.113 203.015 202.113 200.798 202.114 198.582 C202.114 192.543 202.108 186.504 202.101 180.465 C202.095 174.161 202.095 167.858 202.093 161.554 C202.091 150.968 202.084 140.381 202.075 129.794 C202.066 118.888 202.059 107.982 202.055 97.075 C202.055 96.404 202.054 95.732 202.054 95.04 C202.053 91.67 202.052 88.299 202.05 84.929 C202.04 56.953 202.022 28.976 202 1 C176.236 0.907 150.472 0.836 124.707 0.793 C112.745 0.772 100.783 0.744 88.821 0.698 C78.398 0.658 67.974 0.633 57.551 0.624 C52.029 0.618 46.508 0.606 40.986 0.577 C35.793 0.55 30.6 0.542 25.407 0.548 C23.497 0.546 21.588 0.538 19.678 0.523 C17.077 0.503 14.478 0.508 11.878 0.519 C11.497 0.513 11.497 0.513 9.57 0.484 C6.408 0.52 4.493 0.584 2.031 2.663 Z " fill="#FDFCF7" transform="translate(0,0)"/>
<path d="M0 0 C0.396 0.001 0.396 0.001 2.403 0.005 C9.121 0.146 14.851 1.085 19.75 6.008 C21.679 9.33 22.129 12.757 22.688 16.5 C22.934 18.026 23.181 19.552 23.43 21.078 C23.488 21.446 23.488 21.446 23.784 23.311 C24.348 26.727 25.068 30.108 25.793 33.492 C26.125 35.375 26.125 35.375 26.125 38.375 C26.785 38.375 27.445 38.375 28.125 38.375 C28.246 38.955 28.367 39.535 28.492 40.133 C29.462 44.655 30.559 49.013 32.125 53.375 C31.135 54.035 30.145 54.695 29.125 55.375 C30.115 56.035 31.105 56.695 32.125 57.375 C31.465 58.035 30.805 58.695 30.125 59.375 C31.775 60.035 33.425 60.695 35.125 61.375 C33.805 62.035 32.485 62.695 31.125 63.375 C30.795 63.045 30.465 62.715 30.125 62.375 C30.125 63.365 30.125 64.355 30.125 65.375 C27.677 64.151 25.387 62.923 23.125 61.375 C23.125 60.042 23.125 58.708 23.125 57.375 C22.795 58.365 22.465 59.355 22.125 60.375 C19.485 60.375 16.845 60.375 14.125 60.375 C13.795 59.715 13.465 59.055 13.125 58.375 C13.95 58.21 13.95 58.21 18.125 57.375 C18.455 56.385 18.785 55.395 19.125 54.375 C19.785 54.375 20.445 54.375 21.125 54.375 C21.125 53.715 21.125 53.055 21.125 52.375 C19.805 53.035 18.485 53.695 17.125 54.375 C17.455 53.385 17.785 52.395 18.125 51.375 C18.785 51.045 19.445 50.715 20.125 50.375 C19.795 49.715 19.465 49.055 19.125 48.375 C16.75 49.062 16.75 49.062 14.125 50.375 C12.938 52.938 12.938 52.938 12.125 55.375 C11.795 55.54 11.795 55.54 10.125 56.375 C10.785 57.035 11.445 57.695 12.125 58.375 C10.475 58.375 8.825 58.375 7.125 58.375 C7.125 59.365 7.125 60.355 7.125 61.375 C6.355 63.383 6.355 63.383 5.312 65.5 C4.976 66.204 4.64 66.908 4.293 67.633 C3.125 69.375 3.125 69.375 0.125 70.375 C0.125 71.035 0.125 71.695 0.125 72.375 C1.115 72.375 2.105 72.375 3.125 72.375 C3.785 72.375 4.445 72.375 5.125 72.375 C5.125 73.035 5.125 73.695 5.125 74.375 C6.115 74.705 7.105 75.035 8.125 75.375 C7.795 75.54 7.795 75.54 6.125 76.375 C6.125 77.035 6.125 77.695 6.125 78.375 C7.445 78.705 8.765 79.035 10.125 79.375 C9.795 80.035 9.465 80.695 9.125 81.375 C8.465 81.375 7.805 81.375 7.125 81.375 C7.125 80.715 7.125 80.055 7.125 79.375 C6.465 79.375 5.805 79.375 5.125 79.375 C4.795 80.365 4.465 81.355 4.125 82.375 C3.465 82.375 2.805 82.375 2.125 82.375 C2.812 84.312 2.812 84.312 4.125 86.375 C6.75 87.125 6.75 87.125 9.125 87.375 C8.135 88.035 7.145 88.695 6.125 89.375 C7.445 90.035 8.765 90.695 10.125 91.375 C10.125 95.294 8.553 96.416 6.125 99.375 C6.125 100.035 6.125 100.695 6.125 101.375 C5.465 101.375 4.805 101.375 4.125 101.375 C3.125 95.625 3.125 95.625 3.125 93.375 C2.135 93.375 1.145 93.375 0.125 93.375 C-1.11 89.988 -2.308 86.59 -3.5 83.188 C-3.851 82.228 -4.201 81.268 -4.562 80.279 C-4.885 79.348 -5.207 78.417 -5.539 77.457 C-5.843 76.603 -6.147 75.75 -6.459 74.87 C-6.974 71.78 -6.248 70.141 -4.875 67.375 C-5.865 67.375 -6.855 67.375 -7.875 67.375 C-8.937 65 -8.937 65 -9.875 62.375 C-9.545 61.715 -9.215 61.055 -8.875 60.375 C-9.37 60.21 -9.37 60.21 -11.875 59.375 C-11.545 58.055 -11.215 56.735 -10.875 55.375 C-11.535 55.375 -12.195 55.375 -12.875 55.375 C-13.205 53.395 -13.535 51.415 -13.875 49.375 C-14.535 49.375 -15.195 49.375 -15.875 49.375 C-16.589 47.232 -17.303 45.089 -18.016 42.945 C-18.561 41.313 -19.113 39.683 -19.672 38.055 C-21.328 33.203 -22.696 28.365 -23.875 23.375 C-24.205 24.695 -24.535 26.015 -24.875 27.375 C-25.535 27.375 -26.195 27.375 -26.875 27.375 C-27.801 13.883 -27.801 13.883 -23.359 7.957 C-16.974 1.152 -8.882 -0.019 0 0 Z M24.125 41.375 C23.135 43.025 22.145 44.675 21.125 46.375 C22.445 45.715 23.765 45.055 25.125 44.375 C24.795 43.385 24.465 42.395 24.125 41.375 Z " fill="#438FE8" transform="translate(51.875,30.625)"/>
<path d="M0 0 C3.566 1.961 5.618 3.363 7 7.25 C7.543 12.571 7.543 12.571 5.5 15.125 C5.005 15.496 4.51 15.867 4 16.25 C4.99 15.92 5.98 15.59 7 15.25 C7 15.91 7 16.57 7 17.25 C6.34 17.25 5.68 17.25 5 17.25 C5 18.57 5 19.89 5 21.25 C4.34 21.25 3.68 21.25 3 21.25 C3.186 21.869 3.371 22.487 3.562 23.125 C4 25.25 4 25.25 3 27.25 C2.34 27.25 1.68 27.25 1 27.25 C1.165 27.745 1.165 27.745 2 30.25 C1.67 31.24 1.34 32.23 1 33.25 C0.67 33.415 0.67 33.415 -1 34.25 C-0.34 34.91 0.32 35.57 1 36.25 C-0.32 36.25 -1.64 36.25 -3 36.25 C-2.67 37.24 -2.34 38.23 -2 39.25 C-2.165 39.58 -2.165 39.58 -3 41.25 C-2.67 41.415 -2.67 41.415 -1 42.25 C-1.66 42.25 -2.32 42.25 -3 42.25 C-2.835 43.075 -2.835 43.075 -2 47.25 C-4.354 48.679 -5.48 49.337 -8.25 48.875 C-8.827 48.669 -9.405 48.463 -10 48.25 C-10 46.93 -10 45.61 -10 44.25 C-10.99 43.92 -11.98 43.59 -13 43.25 C-12.01 42.92 -11.02 42.59 -10 42.25 C-10.082 41.93 -10.082 41.93 -10.5 40.312 C-11 38.25 -11 38.25 -11 37.25 C-11.33 36.59 -11.66 35.93 -12 35.25 C-11.835 34.92 -11.835 34.92 -11 33.25 C-12.32 33.91 -13.64 34.57 -15 35.25 C-14.34 35.91 -13.68 36.57 -13 37.25 C-13 40.25 -13 40.25 -14 43.25 C-17.133 44.294 -17.99 44.184 -21 43.25 C-21.454 43.91 -21.907 44.57 -22.375 45.25 C-22.911 45.91 -23.447 46.57 -24 47.25 C-24.66 47.25 -25.32 47.25 -26 47.25 C-26 46.26 -26 45.27 -26 44.25 C-26.598 44.456 -27.196 44.662 -27.812 44.875 C-30 45.25 -30 45.25 -33 43.25 C-32.34 41.6 -31.68 39.95 -31 38.25 C-31.33 38.25 -31.66 38.25 -32 38.25 C-32.495 38.085 -32.495 38.085 -35 37.25 C-34.505 37.085 -34.505 37.085 -32 36.25 C-32.165 35.425 -32.165 35.425 -33 31.25 C-33.66 31.25 -34.32 31.25 -35 31.25 C-35.33 32.24 -35.66 33.23 -36 34.25 C-36.66 34.25 -37.32 34.25 -38 34.25 C-37.67 35.24 -37.34 36.23 -37 37.25 C-37.592 40.683 -38.878 43.958 -40 47.25 C-39.67 46.92 -39.34 46.59 -39 46.25 C-38.34 46.25 -37.68 46.25 -37 46.25 C-37 46.91 -37 47.57 -37 48.25 C-36.34 48.25 -35.68 48.25 -35 48.25 C-35 47.59 -35 46.93 -35 46.25 C-34.34 46.25 -33.68 46.25 -33 46.25 C-33 46.91 -33 47.57 -33 48.25 C-32.34 48.58 -31.68 48.91 -31 49.25 C-32.375 50.75 -32.375 50.75 -34 52.25 C-34.66 52.25 -35.32 52.25 -36 52.25 C-36 51.59 -36 50.93 -36 50.25 C-36.66 50.25 -37.32 50.25 -38 50.25 C-38.268 50.889 -38.536 51.529 -38.812 52.188 C-40 54.25 -40 54.25 -43 55.25 C-42.67 55.91 -42.34 56.57 -42 57.25 C-42.66 57.25 -43.32 57.25 -44 57.25 C-44 57.91 -44 58.57 -44 59.25 C-43.34 59.58 -42.68 59.91 -42 60.25 C-42.25 62.125 -42.25 62.125 -43 64.25 C-45.062 65.5 -45.062 65.5 -47 66.25 C-46.34 66.91 -45.68 67.57 -45 68.25 C-45.227 68.446 -45.227 68.446 -46.375 69.438 C-48 71.25 -48 71.25 -48.875 73.875 C-49.061 74.267 -49.061 74.267 -50 76.25 C-52.57 76.898 -52.57 76.898 -55 77.25 C-55.061 77.594 -55.061 77.594 -55.367 79.332 C-55.535 80.233 -55.702 81.134 -55.875 82.062 C-56.037 82.956 -56.2 83.849 -56.367 84.77 C-57 87.25 -57 87.25 -59 90.25 C-61.625 90.438 -61.625 90.438 -64 90.25 C-62.895 87.444 -61.744 84.686 -60.5 81.938 C-58.902 78.008 -57.845 74.403 -57 70.25 C-57.33 69.59 -57.66 68.93 -58 68.25 C-57.395 66.047 -56.687 63.873 -55.938 61.715 C-55.711 61.052 -55.484 60.39 -55.251 59.708 C-54.761 58.278 -54.269 56.849 -53.774 55.421 C-49.509 43.115 -45.518 30.842 -42.459 18.17 C-40.513 10.609 -37.364 4.366 -30.812 -0.188 C-21.999 -5.084 -8.914 -4.3 0 0 Z " fill="#408BE5" transform="translate(162,32.75)"/>
<path d="M0 0 C1.488 1.27 1.488 1.27 3 3 C3.188 6.687 3.188 6.687 3 10 C3.66 10 4.32 10 5 10 C5.054 11.916 5.093 13.833 5.125 15.75 C5.148 16.817 5.171 17.885 5.195 18.984 C5.001 21.988 4.442 23.43 3 26 C2.661 28.332 2.328 30.666 2 33 C1.383 34.686 0.717 36.354 0 38 C-1.002 40.829 -1.911 43.556 -2.5 46.5 C-3.63 52.148 -5.651 56.312 -9 61 C-8.34 61.99 -7.68 62.98 -7 64 C-8.153 67.877 -10.195 71.389 -12 75 C-13.328 78.006 -14 79.694 -14 83 C-14.824 85.765 -15.675 88.37 -17 90.938 C-18 93 -18 93 -19 96.5 C-19.791 99.267 -20.606 101.511 -22 104 C-21.34 104.33 -20.68 104.66 -20 105 C-20.205 105.224 -20.205 105.224 -21.242 106.355 C-26.976 112.788 -26.976 112.788 -28 117 C-27.794 117.681 -27.588 118.361 -27.375 119.062 C-27.251 119.702 -27.127 120.341 -27 121 C-28.311 122.355 -29.647 123.687 -31 125 C-31.825 127.82 -32 130.057 -32 133 C-32.984 134.706 -33.972 136.411 -34.988 138.098 C-36.485 140.912 -37.135 143.943 -38 147 C-42.381 154.093 -49.854 159.522 -56 165 C-56 164.01 -56 163.02 -56 162 C-56.248 162.072 -56.248 162.072 -57.5 162.438 C-63.599 163.81 -69.768 164.423 -76 164 C-78 162.5 -78 162.5 -79 161 C-79.165 161.33 -79.165 161.33 -80 163 C-83 161 -83 161 -84 158 C-87.562 156.313 -87.562 156.313 -91 155 C-90.835 154.67 -90.835 154.67 -90 153 C-89.3 153.021 -88.601 153.042 -87.88 153.063 C-84.649 153.148 -81.419 153.199 -78.188 153.25 C-77.637 153.267 -77.637 153.267 -74.854 153.352 C-66.841 153.446 -58.445 153.095 -52.264 147.4 C-47.644 142.495 -45.221 137.634 -43.055 131.312 C-42.379 129.443 -41.703 127.573 -41.026 125.703 C-40.859 125.229 -40.859 125.229 -40.01 122.83 C-38.733 119.252 -37.394 115.699 -36.048 112.146 C-28.001 90.889 -20.198 69.56 -13 48 C-12.555 46.682 -12.109 45.364 -11.664 44.047 C-1.681 14.504 -1.681 14.504 0 0 Z " fill="#D6C6A3" transform="translate(174,45)"/>
<path d="M0 0 C0.33 0 0.66 0 1 0 C1.418 8.902 0.578 16.255 -2.25 24.688 C-2.426 25.234 -2.426 25.234 -3.315 28.002 C-7.559 41.042 -12.198 53.954 -16.817 66.865 C-19.141 73.371 -21.386 79.902 -23.625 86.438 C-27.856 98.732 -32.322 110.934 -36.915 123.098 C-37.861 125.629 -38.779 128.168 -39.684 130.715 C-43.073 140.066 -47.183 148.161 -56.562 152.562 C-62.49 154.374 -68.536 154.414 -74.688 154.5 C-75.674 154.519 -76.66 154.538 -77.676 154.557 C-85.088 154.491 -90.061 152.856 -96.031 148.527 C-102.613 141.403 -105.562 131.906 -109 123 C-109.236 122.41 -109.236 122.41 -110.43 119.426 C-113.141 112.423 -113.141 112.423 -112 109 C-111.331 110.582 -110.665 112.166 -110 113.75 C-109.545 114.826 -109.09 115.903 -108.621 117.012 C-107.37 120.03 -106.224 123.078 -105.098 126.145 C-104.762 127.038 -104.426 127.931 -104.08 128.851 C-103.409 130.638 -102.755 132.432 -102.119 134.231 C-99.731 140.513 -99.731 140.513 -95.973 143.016 C-84.631 146.771 -71.044 148.223 -59.816 142.98 C-59.517 142.819 -59.517 142.819 -58 142 C-57.66 141.866 -57.66 141.866 -55.938 141.188 C-53.37 139.614 -52.488 137.57 -51 135 C-50.34 135 -49.68 135 -49 135 C-48.807 134.336 -48.613 133.672 -48.414 132.988 C-44.909 121.102 -44.909 121.102 -41.938 117.5 C-39.851 114.808 -39.416 113.325 -39 110 C-38.343 105.139 -36.282 101.278 -34 97 C-33.34 97 -32.68 97 -32 97 C-31.874 96.131 -31.747 95.262 -31.617 94.367 C-31.026 91.142 -30.185 88.224 -29.125 85.125 C-28.767 84.076 -28.408 83.026 -28.039 81.945 C-26.994 78.982 -25.901 76.042 -24.773 73.109 C-23.821 70.511 -22.978 67.883 -22.125 65.25 C-19.834 58.299 -16.994 51.603 -14.086 44.891 C-12.502 41.018 -11.711 37.399 -11.125 33.25 C-10.292 27.61 -8.426 22.952 -6.102 17.773 C-4.658 14.138 -4.359 10.874 -4 7 C-3.34 6.34 -2.68 5.68 -2 5 C-1.293 3.35 -0.621 1.684 0 0 Z " fill="#335B88" transform="translate(172,45)"/>
<path d="M0 0 C4.827 9.159 6.556 20.001 9 30 C9.66 30 10.32 30 11 30 C11.33 31.98 11.66 33.96 12 36 C12.66 36 13.32 36 14 36 C14 37.32 14 38.64 14 40 C14.66 40.33 15.32 40.66 16 41 C16.407 43.322 16.744 45.657 17 48 C17.66 47.835 17.66 47.835 21 47 C20.611 47.963 20.221 48.926 19.82 49.918 C18.408 54.864 20.094 58.663 21.875 63.312 C22.458 64.912 23.039 66.512 23.617 68.113 C23.881 68.812 24.145 69.511 24.417 70.232 C25 72 25 72 25 74 C25.99 74 26.98 74 28 74 C28 74.66 28 75.32 28 76 C28.66 76.33 29.32 76.66 30 77 C29.34 77 28.68 77 28 77 C28.429 82.148 29.664 85.778 32.16 90.301 C33 92 33 92 33 94 C33.66 94 34.32 94 35 94 C35 94.66 35 95.32 35 96 C35.825 95.835 35.825 95.835 40 95 C39.691 94.237 39.381 93.474 39.062 92.688 C38.321 90.812 37.638 88.913 37 87 C39.64 86.67 42.28 86.34 45 86 C44.835 86.495 44.835 86.495 44 89 C43.01 89.33 42.02 89.66 41 90 C41.351 90.763 41.701 91.526 42.062 92.312 C43 95 43 95 42 98 C42.66 98 43.32 98 44 98 C44 97.34 44 96.68 44 96 C46.273 94.505 48.568 93.216 51 92 C51 92.66 51 93.32 51 94 C51.66 94 52.32 94 53 94 C53 94.66 53 95.32 53 96 C52.01 96.33 51.02 96.66 50 97 C50.99 97.99 51.98 98.98 53 100 C52.01 100.33 51.02 100.66 50 101 C48.812 103.562 48.812 103.562 48 106 C48.99 106.66 49.98 107.32 51 108 C50.67 108.66 50.34 109.32 50 110 C50.99 109.67 51.98 109.34 53 109 C53 111.667 53 114.333 53 117 C54.32 117 55.64 117 57 117 C57 117.66 57 118.32 57 119 C57.33 119.33 57.33 119.33 59 121 C58.381 121.082 57.763 121.165 57.125 121.25 C55 122 55 122 53.75 124.062 C53.502 124.702 53.255 125.341 53 126 C52.34 126 51.68 126 51 126 C50.67 125.67 50.67 125.67 49 124 C48.34 124 47.68 124 47 124 C47 124.66 47 125.32 47 126 C47.99 126 48.98 126 50 126 C49.67 126.66 49.34 127.32 49 128 C45.176 126.542 43.968 124.751 42.188 121.125 C41.748 120.261 41.308 119.398 40.855 118.508 C39.929 115.793 39.999 114.639 41 112 C40.34 112 39.68 112 39 112 C39.907 116.687 40.955 121.342 42 126 C39.922 123.922 39.317 122.634 38.273 119.938 C37.964 119.141 37.655 118.344 37.336 117.523 C37.019 116.691 36.702 115.858 36.375 115 C36.213 114.584 36.213 114.584 35.391 112.477 C33 106.269 33 106.269 33 104 C32.34 104 31.68 104 31 104 C23.134 82.492 15.289 60.978 7.688 39.375 C7.418 38.611 7.148 37.846 6.87 37.059 C5.22 32.381 3.597 27.696 2 23 C1.661 22.016 1.321 21.031 0.972 20.017 C-0.647 15.056 -1.305 11.148 -0.688 5.875 C-0.568 4.759 -0.448 3.642 -0.324 2.492 C-0.217 1.67 -0.11 0.847 0 0 Z " fill="#3A89E2" transform="translate(27,50)"/>
<path d="M0 0 C0.401 0.002 0.401 0.002 2.432 0.01 C2.848 0.014 2.848 0.014 4.957 0.035 C5.802 0.04 6.647 0.044 7.518 0.049 C9.602 0.061 11.686 0.079 13.77 0.098 C13.11 0.758 12.45 1.418 11.77 2.098 C13.09 2.758 14.41 3.418 15.77 4.098 C15.11 5.088 14.45 6.078 13.77 7.098 C13.605 6.603 13.605 6.603 12.77 4.098 C12.419 4.345 12.419 4.345 10.645 5.598 C7.386 7.298 5.39 7.345 1.77 7.098 C0.77 7.098 0.77 7.098 -1.98 8.035 C-5.23 9.098 -5.23 9.098 -7.918 9.348 C-10.23 10.098 -10.23 10.098 -11.918 12.723 C-13.254 16.157 -14.281 19.537 -15.23 23.098 C-15.767 24.912 -16.309 26.724 -16.855 28.535 C-17.116 29.4 -17.376 30.265 -17.645 31.156 C-17.838 31.797 -18.031 32.438 -18.23 33.098 C-17.735 32.933 -17.735 32.933 -15.23 32.098 C-14.9 33.418 -14.57 34.738 -14.23 36.098 C-14.725 36.263 -14.725 36.263 -17.23 37.098 C-16.9 38.088 -16.57 39.078 -16.23 40.098 C-16.822 43.531 -18.108 46.806 -19.23 50.098 C-18.9 49.768 -18.57 49.438 -18.23 49.098 C-17.57 49.098 -16.91 49.098 -16.23 49.098 C-16.23 49.758 -16.23 50.418 -16.23 51.098 C-15.57 51.098 -14.91 51.098 -14.23 51.098 C-14.23 50.438 -14.23 49.778 -14.23 49.098 C-13.57 49.098 -12.91 49.098 -12.23 49.098 C-12.23 49.758 -12.23 50.418 -12.23 51.098 C-11.57 51.428 -10.91 51.758 -10.23 52.098 C-11.605 53.598 -11.605 53.598 -13.23 55.098 C-13.89 55.098 -14.55 55.098 -15.23 55.098 C-15.23 54.438 -15.23 53.778 -15.23 53.098 C-15.89 53.098 -16.55 53.098 -17.23 53.098 C-17.499 53.737 -17.767 54.376 -18.043 55.035 C-19.23 57.098 -19.23 57.098 -22.23 58.098 C-21.9 58.758 -21.57 59.418 -21.23 60.098 C-21.89 60.098 -22.55 60.098 -23.23 60.098 C-23.23 60.758 -23.23 61.418 -23.23 62.098 C-22.57 62.428 -21.91 62.758 -21.23 63.098 C-21.48 64.973 -21.48 64.973 -22.23 67.098 C-24.293 68.348 -24.293 68.348 -26.23 69.098 C-25.57 69.758 -24.91 70.418 -24.23 71.098 C-24.457 71.294 -24.457 71.294 -25.605 72.285 C-27.23 74.098 -27.23 74.098 -28.105 76.723 C-28.291 77.115 -28.291 77.115 -29.23 79.098 C-31.801 79.746 -31.801 79.746 -34.23 80.098 C-34.291 80.441 -34.291 80.441 -34.598 82.18 C-34.765 83.081 -34.933 83.982 -35.105 84.91 C-35.268 85.803 -35.43 86.697 -35.598 87.617 C-36.23 90.098 -36.23 90.098 -38.23 93.098 C-40.855 93.285 -40.855 93.285 -43.23 93.098 C-42.125 90.292 -40.975 87.533 -39.73 84.785 C-38.132 80.856 -37.075 77.25 -36.23 73.098 C-36.56 72.438 -36.89 71.778 -37.23 71.098 C-36.626 68.895 -35.918 66.72 -35.168 64.562 C-34.941 63.9 -34.715 63.238 -34.481 62.555 C-33.992 61.125 -33.5 59.697 -33.005 58.269 C-28.739 45.963 -24.749 33.689 -21.689 21.017 C-19.743 13.457 -16.595 7.214 -10.043 2.66 C-6.527 0.707 -3.961 -0.028 0 0 Z " fill="#4F97EC" transform="translate(141.23046875,29.90234375)"/>
<path d="M0 0 C0.33 0.33 0.33 0.33 2 2 C1.628 9.069 -1.122 15.562 -3.473 22.174 C-4.895 26.284 -6.142 30.134 -6.594 34.473 C-7 38 -7 38 -9 41 C-9.66 43.624 -10.256 46.23 -10.812 48.875 C-12.68 57.291 -15.072 65.476 -19.133 73.137 C-20 75 -20 75 -20.25 78.5 C-20.645 82.291 -21.885 84.966 -23.688 88.312 C-27.017 94.554 -29.034 100.981 -30.995 107.765 C-31.229 108.558 -31.462 109.351 -31.703 110.168 C-31.804 110.525 -31.804 110.525 -32.317 112.333 C-33 114 -33 114 -35 115 C-37.775 120.088 -39.988 125.299 -42.07 130.703 C-42.377 131.461 -42.684 132.219 -43 133 C-43.257 133.661 -43.513 134.323 -43.777 135.004 C-45.528 137.861 -47.834 139.596 -50.438 141.688 C-51.406 142.475 -52.374 143.263 -53.371 144.074 C-56.834 146.611 -58.96 147.176 -63.102 146.617 C-66.303 146.211 -69.496 145.851 -72.711 145.57 C-74.266 145.422 -75.82 145.273 -77.375 145.125 C-78.168 145.059 -78.961 144.994 -79.777 144.926 C-83.963 144.508 -86.241 144.201 -89 141 C-85.986 139.995 -84.195 139.933 -81.062 140.043 C-57.146 140.645 -57.146 140.645 -50.168 134.346 C-45.687 129.354 -43.219 124.627 -41.055 118.312 C-40.379 116.443 -39.703 114.573 -39.026 112.703 C-38.859 112.229 -38.859 112.229 -38.01 109.83 C-36.733 106.252 -35.394 102.699 -34.048 99.146 C-5.684 24.22 -5.684 24.22 0 0 Z " fill="#BEAD8A" transform="translate(172,58)"/>
<path d="M0 0 C0.396 0.001 0.396 0.001 2.403 0.005 C9.516 0.154 15.03 1.371 20.25 6.438 C21.125 8.375 21.125 8.375 20.125 11.375 C19.465 11.375 18.805 11.375 18.125 11.375 C18.125 12.035 18.125 12.695 18.125 13.375 C17.465 13.375 16.805 13.375 16.125 13.375 C16.125 12.715 16.125 12.055 16.125 11.375 C15.465 11.375 14.805 11.375 14.125 11.375 C14.125 10.715 14.125 10.055 14.125 9.375 C13.465 9.045 12.805 8.715 12.125 8.375 C11.795 9.695 11.465 11.015 11.125 12.375 C9.475 11.385 7.825 10.395 6.125 9.375 C6.125 10.035 6.125 10.695 6.125 11.375 C5.465 11.375 4.805 11.375 4.125 11.375 C3.795 12.035 3.465 12.695 3.125 13.375 C3.125 12.715 3.125 12.055 3.125 11.375 C1.145 12.035 -0.835 12.695 -2.875 13.375 C-3.205 12.715 -3.535 12.055 -3.875 11.375 C-4.535 11.705 -4.535 11.705 -7.875 13.375 C-8.205 13.045 -8.535 12.715 -8.875 12.375 C-9.205 12.54 -9.205 12.54 -10.875 13.375 C-10.875 12.715 -10.875 12.055 -10.875 11.375 C-11.535 11.375 -12.195 11.375 -12.875 11.375 C-12.627 11.602 -12.627 11.602 -11.375 12.75 C-9.875 14.375 -9.875 14.375 -9.875 16.375 C-10.875 17.375 -11.875 18.375 -12.875 19.375 C-15.875 23.819 -15.875 23.819 -15.875 27.375 C-15.215 28.035 -14.555 28.695 -13.875 29.375 C-14.535 30.035 -15.195 30.695 -15.875 31.375 C-15.215 31.375 -14.555 31.375 -13.875 31.375 C-14.205 32.695 -14.535 34.015 -14.875 35.375 C-15.535 35.375 -16.195 35.375 -16.875 35.375 C-16.875 34.715 -16.875 34.055 -16.875 33.375 C-17.37 33.54 -17.37 33.54 -19.875 34.375 C-22.333 30.688 -22.887 27.678 -23.875 23.375 C-24.205 24.695 -24.535 26.015 -24.875 27.375 C-25.535 27.375 -26.195 27.375 -26.875 27.375 C-27.801 13.883 -27.801 13.883 -23.359 7.957 C-16.974 1.152 -8.882 -0.019 0 0 Z " fill="#5099EC" transform="translate(51.875,30.625)"/>
<path d="M0 0 C2 1 2 1 2 1 Z M0 2 C-0.66 2 -1.32 2 -2 2 C-2 2.66 -2 3.32 -2 4 C-1.01 3.67 -0.02 3.34 1 3 C1 3.66 1 4.32 1 5 C5.571 4.451 9.674 3.583 14 2 C14.66 2.99 15.32 3.98 16 5 C16.66 5 17.32 5 18 5 C18.33 4.34 18.66 3.68 19 3 C19 3.66 19 4.32 19 5 C19.66 5 20.32 5 21 5 C21.66 3.68 22.32 2.36 23 1 C23.369 6.538 23.369 6.538 21.5 8.875 C21.005 9.246 20.51 9.617 20 10 C20.99 9.67 21.98 9.34 23 9 C23 9.66 23 10.32 23 11 C22.34 11 21.68 11 21 11 C21 12.32 21 13.64 21 15 C20.34 15 19.68 15 19 15 C19.186 15.619 19.371 16.237 19.562 16.875 C20 19 20 19 19 21 C18.34 21 17.68 21 17 21 C17.165 21.495 17.165 21.495 18 24 C17.835 24.495 17.835 24.495 17 27 C16.34 27.33 15.68 27.66 15 28 C15.66 28.66 16.32 29.32 17 30 C15.02 30 13.04 30 11 30 C11.66 29.67 12.32 29.34 13 29 C12.01 28.34 11.02 27.68 10 27 C10.33 26.34 10.66 25.68 11 25 C10.216 25.165 9.433 25.33 8.625 25.5 C4.572 26.272 1.069 25.603 -3 25 C-3 23.68 -3 22.36 -3 21 C-3.99 20.34 -4.98 19.68 -6 19 C-5.67 18.34 -5.34 17.68 -5 17 C-7.31 17.66 -9.62 18.32 -12 19 C-12 17.02 -12 15.04 -12 13 C-10.333 13 -8.667 13 -7 13 C-7 12.34 -7 11.68 -7 11 C-6.34 10.67 -5.68 10.34 -5 10 C-5.99 10 -6.98 10 -8 10 C-8 9.01 -8 8.02 -8 7 C-8.99 8.65 -9.98 10.3 -11 12 C-12.32 11.34 -13.64 10.68 -15 10 C-14.673 6.952 -13.995 5.995 -11.75 3.812 C-7.685 1.133 -4.646 0.451 0 2 Z M-8 3 C-8.33 3.66 -8.66 4.32 -9 5 C-5.25 6.125 -5.25 6.125 -3 5 C-3 4.34 -3 3.68 -3 3 C-4.65 3 -6.3 3 -8 3 Z M-9 20 C-8.01 20.33 -7.02 20.66 -6 21 C-6.99 21 -7.98 21 -9 21 C-9 20.67 -9 20.34 -9 20 Z " fill="#3E88E2" transform="translate(146,39)"/>
<path d="M0 0 C3.627 2.75 4.505 6.781 5.812 10.938 C6.072 11.737 6.331 12.537 6.598 13.362 C8.679 19.836 10.613 26.353 12.53 32.878 C15.101 41.536 17.999 50.082 20.929 58.625 C22.574 63.472 24.122 68.218 25.141 73.238 C25.424 74.48 25.708 75.721 26 77 C26.33 77.165 26.33 77.165 28 78 C28.268 76.824 28.536 75.649 28.812 74.438 C29.814 70.394 31.266 66.783 33 63 C34.572 66.143 33.117 68.365 32.062 71.625 C31.682 72.814 31.302 74.002 30.91 75.227 C30.61 76.142 30.309 77.057 30 78 C27.609 78.582 27.609 78.582 25 79 C22.982 77.487 22.125 76.251 21 74 C20.34 73.67 19.68 73.34 19 73 C19.33 72.34 19.66 71.68 20 71 C19.356 69.325 18.688 67.658 18 66 C18 65.01 18 64.02 18 63 C17.175 63.33 17.175 63.33 13 65 C13 64.01 13 63.02 13 62 C11.35 62 9.7 62 8 62 C7.67 61.34 7.34 60.68 7 60 C6.01 59.34 5.02 58.68 4 58 C4.66 58 5.32 58 6 58 C6 57.34 6 56.68 6 56 C4.624 57.29 3.292 58.627 2 60 C2 60.66 2 61.32 2 62 C1.67 62.165 1.67 62.165 0 63 C0.66 64.98 1.32 66.96 2 69 C-0.64 69.33 -3.28 69.66 -6 70 C-6 68 -6 66 -6 64 C-5.34 64 -4.68 64 -4 64 C-4.33 62.68 -4.66 61.36 -5 60 C-5.165 60.165 -5.165 60.165 -6 61 C-7.666 61.041 -9.334 61.043 -11 61 C-9.68 60.34 -8.36 59.68 -7 59 C-7 58.34 -7 57.68 -7 57 C-7.99 56.67 -8.98 56.34 -10 56 C-10 55.34 -10 54.68 -10 54 C-6.1 51.4 -2.526 51.849 2 52 C2.33 50.68 2.66 49.36 3 48 C3.99 48.33 4.98 48.66 6 49 C5.34 50.32 4.68 51.64 4 53 C4.99 53 5.98 53 7 53 C7 53.66 7 54.32 7 55 C7.66 55.33 8.32 55.66 9 56 C9 55.01 9 54.02 9 53 C9.32 53.093 9.32 53.093 10.938 53.562 C11.618 53.707 12.299 53.851 13 54 C13.33 53.67 13.66 53.34 14 53 C12.02 52.34 10.04 51.68 8 51 C8.99 50.34 9.98 49.68 11 49 C10.01 48.34 9.02 47.68 8 47 C8.99 46.34 9.98 45.68 11 45 C11.188 42.375 11.188 42.375 11 40 C10.34 39.67 9.68 39.34 9 39 C8.586 36.934 8.586 36.934 8.375 34.438 C8.3 33.611 8.225 32.785 8.148 31.934 C8.124 31.615 8.124 31.615 8 30 C7.34 30 6.68 30 6 30 C5.876 29.34 5.752 28.68 5.625 28 C5.158 25.759 4.627 23.531 4.062 21.312 C2.285 14.282 0.938 7.19 0 0 Z M8 58 C8 58.66 8 59.32 8 60 C8.66 60 9.32 60 10 60 C10 59.34 10 58.68 10 58 C9.34 58 8.68 58 8 58 Z " fill="#3C8AE5" transform="translate(72,39)"/>
<path d="M0 0 C2.562 2 2.562 2 5 5 C5.323 8.545 4.659 11.723 3.031 14.879 C1.761 17.491 1.2 20.043 0.562 22.875 C-0.24 26.238 -0.961 28.925 -2.562 32 C-4.025 35.053 -4.415 37.295 -4.875 40.625 C-5.698 46.117 -7.329 50.67 -9.57 55.73 C-13.542 64.814 -16.908 74.089 -19.359 83.695 C-20.261 86.938 -21.649 89.921 -23 93 C-24.388 96.982 -25.702 100.987 -27 105 C-27.66 105 -28.32 105 -29 105 C-29.144 105.454 -29.144 105.454 -29.875 107.75 C-31 111 -31 111 -32.125 113 C-33 115 -33 115 -32.875 117.875 C-33.038 121.96 -34.414 123.897 -37 127 C-37.99 127 -38.98 127 -40 127 C-40 126.34 -40 125.68 -40 125 C-39.34 125 -38.68 125 -38 125 C-38 124.34 -38 123.68 -38 123 C-37.34 123 -36.68 123 -36 123 C-36 122.01 -36 121.02 -36 120 C-36.66 120 -37.32 120 -38 120 C-38.165 119.175 -38.165 119.175 -39 115 C-38.505 114.67 -38.505 114.67 -36 113 C-32.64 109.253 -32 105.951 -32 101 C-31.742 100.577 -31.742 100.577 -30.438 98.438 C-29.963 97.633 -29.489 96.829 -29 96 C-29.33 95.34 -29.66 94.68 -30 94 C-29.505 93.835 -29.505 93.835 -27 93 C-26.299 89.847 -26 87.273 -26 84 C-26 82 -26 80 -26 78 C-24.68 78 -23.36 78 -22 78 C-21.67 76.68 -21.34 75.36 -21 74 C-20.34 74.33 -19.68 74.66 -19 75 C-19.33 72.36 -19.66 69.72 -20 67 C-20.99 67 -21.98 67 -23 67 C-23 67.66 -23 68.32 -23 69 C-22.34 69 -21.68 69 -21 69 C-21.33 69.66 -21.66 70.32 -22 71 C-22.495 70.835 -22.495 70.835 -25 70 C-25.495 70.33 -25.495 70.33 -28 72 C-28.33 72.165 -28.33 72.165 -30 73 C-29.67 73.99 -29.34 74.98 -29 76 C-30.98 76 -32.96 76 -35 76 C-35.165 76.33 -35.165 76.33 -36 78 C-36 77.34 -36 76.68 -36 76 C-36.99 75.67 -37.98 75.34 -39 75 C-36.56 72.072 -35.176 71.049 -31.438 70 C-27.572 68.875 -27.025 68.314 -25 65 C-24.137 63.948 -23.261 62.907 -22.375 61.875 C-20 59 -20 59 -19 57 C-18.01 57 -17.02 57 -16 57 C-16 56.34 -16 55.68 -16 55 C-15.34 55 -14.68 55 -14 55 C-14 54.34 -14 53.68 -14 53 C-13.67 52.67 -13.34 52.34 -13 52 C-13.66 51.34 -14.32 50.68 -15 50 C-14.175 49.835 -14.175 49.835 -10 49 C-10.33 47.68 -10.66 46.36 -11 45 C-10.01 44.34 -9.02 43.68 -8 43 C-7.707 40.398 -7.707 40.398 -7.812 37.375 C-7.84 36.372 -7.867 35.369 -7.895 34.336 C-7.912 33.951 -7.912 33.951 -8 32 C-7.34 31.67 -6.68 31.34 -6 31 C-6.165 30.67 -6.165 30.67 -7 29 C-6.01 29 -5.02 29 -4 29 C-4 27.02 -4 25.04 -4 23 C-3.34 23 -2.68 23 -2 23 C-2 21.02 -2 19.04 -2 17 C-1.34 17 -0.68 17 0 17 C0 15.68 0 14.36 0 13 C-0.165 12.835 -0.165 12.835 -1 12 C-0.67 11.01 -0.34 10.02 0 9 C0.66 9 1.32 9 2 9 C1.34 6.03 0.68 3.06 0 0 Z " fill="#3580D9" transform="translate(167,37)"/>
<path d="M0 0 C4.827 9.159 6.556 20.001 9 30 C9.66 30 10.32 30 11 30 C11.33 31.98 11.66 33.96 12 36 C12.66 36 13.32 36 14 36 C14 37.32 14 38.64 14 40 C14.66 40.33 15.32 40.66 16 41 C16.407 43.322 16.744 45.657 17 48 C17.66 47.835 17.66 47.835 21 47 C20.611 47.963 20.221 48.926 19.82 49.918 C18.408 54.864 20.094 58.663 21.875 63.312 C22.458 64.912 23.039 66.512 23.617 68.113 C23.881 68.812 24.145 69.511 24.417 70.232 C25 72 25 72 25 74 C25.99 74 26.98 74 28 74 C28 74.66 28 75.32 28 76 C28.66 76.33 29.32 76.66 30 77 C29.34 77 28.68 77 28 77 C28.455 82.733 29.187 88.223 30.523 93.816 C31.26 97.189 31.626 100.57 32 104 C29.87 101.87 29.366 100.654 28.387 97.859 C28.082 96.997 27.777 96.135 27.463 95.247 C27.136 94.306 26.809 93.364 26.473 92.395 C26.128 91.415 25.783 90.435 25.427 89.426 C24.3 86.224 23.181 83.018 22.062 79.812 C21.292 77.617 20.521 75.423 19.75 73.228 C18.212 68.854 16.677 64.479 15.144 60.103 C13.291 54.819 11.42 49.542 9.535 44.27 C9.28 43.556 9.026 42.842 8.763 42.107 C7.615 38.893 6.465 35.68 5.313 32.468 C4.19 29.318 3.086 26.163 2 23 C1.683 22.083 1.366 21.167 1.039 20.222 C-0.603 15.191 -1.313 11.22 -0.688 5.875 C-0.568 4.759 -0.448 3.642 -0.324 2.492 C-0.217 1.67 -0.11 0.847 0 0 Z " fill="#3D81D0" transform="translate(27,50)"/>
<path d="M0 0 C0.33 0.66 0.66 1.32 1 2 C2.32 2 3.64 2 5 2 C5 1.34 5 0.68 5 0 C5.66 0 6.32 0 7 0 C7 0.66 7 1.32 7 2 C7.66 2 8.32 2 9 2 C9 1.34 9 0.68 9 0 C9.66 0 10.32 0 11 0 C11 0.66 11 1.32 11 2 C11.66 2.33 12.32 2.66 13 3 C11.625 4.5 11.625 4.5 10 6 C9.34 6 8.68 6 8 6 C8 5.34 8 4.68 8 4 C7.34 4 6.68 4 6 4 C5.732 4.639 5.464 5.279 5.188 5.938 C4 8 4 8 1 9 C1.33 9.66 1.66 10.32 2 11 C1.34 11 0.68 11 0 11 C0 11.66 0 12.32 0 13 C0.66 13.33 1.32 13.66 2 14 C1.75 15.875 1.75 15.875 1 18 C-1.062 19.25 -1.062 19.25 -3 20 C-2.34 20.66 -1.68 21.32 -1 22 C-1.454 22.392 -1.907 22.784 -2.375 23.188 C-4 25 -4 25 -4.875 27.625 C-5.246 28.409 -5.618 29.192 -6 30 C-8.57 30.648 -8.57 30.648 -11 31 C-11.121 31.687 -11.242 32.374 -11.367 33.082 C-11.451 33.533 -11.451 33.533 -11.875 35.812 C-12.037 36.706 -12.2 37.599 -12.367 38.52 C-13 41 -13 41 -15 44 C-17.625 44.188 -17.625 44.188 -20 44 C-18.895 41.194 -17.744 38.436 -16.5 35.688 C-14.902 31.758 -13.845 28.153 -13 24 C-13.33 23.34 -13.66 22.68 -14 22 C-13.35 18.764 -12.253 15.643 -11.25 12.5 C-11.117 12.06 -11.117 12.06 -10.445 9.832 C-10.18 8.99 -9.914 8.149 -9.641 7.281 C-9.399 6.508 -9.157 5.736 -8.907 4.939 C-8 3 -8 3 -5 1 C-4.67 3.64 -4.34 6.28 -4 9 C-2 5.25 -2 5.25 -2 3 C-1.34 3 -0.68 3 0 3 C0 2.01 0 1.02 0 0 Z " fill="#4891E8" transform="translate(118,79)"/>
<path d="M0 0 C5.56 3.072 7.168 6.012 9 12 C9.706 14.495 10.393 16.995 11.062 19.5 C11.404 20.768 11.746 22.037 12.098 23.344 C12.891 26.558 13.51 29.728 14 33 C14.495 32.835 14.495 32.835 17 32 C17.338 34.541 17.671 37.083 18 39.625 C18.095 40.338 18.191 41.051 18.289 41.785 C18.816 45.888 19.105 49.852 19 54 C19.495 53.835 19.495 53.835 22 53 C26.544 63.077 26.544 63.077 25.062 68.312 C24.712 69.199 24.361 70.086 24 71 C23.505 70.835 23.505 70.835 21 70 C20.008 67.148 20.008 67.148 19.125 63.375 C18.783 61.982 18.436 60.59 18.086 59.199 C17.908 58.491 17.73 57.782 17.546 57.052 C16.747 54.05 15.758 51.126 14.75 48.188 C11.964 40.027 9.45 31.788 6.942 23.538 C4.982 17.108 2.925 10.726 0.737 4.37 C0 2 0 2 0 0 Z " fill="#DFD1B7" transform="translate(76,46)"/>
<path d="M0 0 C21.313 -0.836 21.313 -0.836 28 4 C29.719 6.657 30.06 7.56 29.625 10.75 C29.419 11.492 29.213 12.235 29 13 C27.02 13.33 25.04 13.66 23 14 C22.34 13.01 21.68 12.02 21 11 C20.319 11.33 19.639 11.66 18.938 12 C14.437 13.532 10.498 13.499 6 12 C6 11.34 6 10.68 6 10 C0.778 10.41 -2.3 11.187 -6 15 C-6 15.99 -6 16.98 -6 18 C-7.65 18.33 -9.3 18.66 -11 19 C-10.496 14.667 -9.938 11.317 -7 8 C-4.328 7.366 -1.75 7.222 1 7 C1.33 6.34 1.66 5.68 2 5 C2.66 5.33 3.32 5.66 4 6 C4 5.34 4 4.68 4 4 C5.114 4.206 6.227 4.413 7.375 4.625 C8.571 4.749 9.767 4.873 11 5 C11.66 4.34 12.32 3.68 13 3 C13.99 3 14.98 3 16 3 C14.004 1.004 10.183 1.59 7.438 1.438 C6.727 1.394 6.016 1.351 5.283 1.307 C3.522 1.2 1.761 1.1 0 1 C0 0.67 0 0.34 0 0 Z " fill="#4A93EA" transform="translate(138,31)"/>
<path d="M0 0 C2.718 3.22 3.973 6.326 5.312 10.305 C5.531 10.916 5.531 10.916 6.637 14.012 C7.322 15.937 7.996 17.863 8.635 19.804 C10.994 26.91 12.883 32.066 19.625 35.82 C25.375 38.431 29.848 39.124 36.172 39.098 C36.854 39.096 37.537 39.095 38.24 39.093 C40.41 39.088 42.58 39.075 44.75 39.062 C46.225 39.057 47.701 39.053 49.176 39.049 C52.784 39.038 56.392 39.021 60 39 C55.058 43.942 47.923 43.377 41.375 43.562 C39.508 43.623 37.64 43.686 35.773 43.754 C34.953 43.778 34.132 43.802 33.287 43.826 C31 44 31 44 28.82 44.546 C25.726 45.318 23.752 43.878 21.074 42.383 C11.275 35.85 8.044 24.529 4 14 C3.54 12.821 3.08 11.641 2.605 10.426 C0 3.53 0 3.53 0 0 Z " fill="#3D6897" transform="translate(59,154)"/>
<path d="M0 0 C0.99 0 1.98 0 3 0 C2.546 1.418 2.086 2.834 1.625 4.25 C1.497 4.644 1.497 4.644 0.852 6.641 C0.048 8.866 -0.897 10.909 -2 13 C-2.66 13 -3.32 13 -4 13 C-4.268 13.763 -4.536 14.526 -4.812 15.312 C-5.972 17.936 -6.753 19.271 -9 21 C-10.875 21.562 -10.875 21.562 -13 22 C-13.743 22.33 -14.485 22.66 -15.25 23 C-24.533 26.376 -37.74 26.563 -47 23 C-49.562 20.875 -49.562 20.875 -51 19 C-50.67 18.01 -50.34 17.02 -50 16 C-47.838 17.069 -45.704 18.163 -43.59 19.324 C-37.649 22.378 -33.048 23.738 -26.371 22.801 C-23.716 21.904 -22.822 21.105 -21.188 18.875 C-20.827 18.401 -20.827 18.401 -19 16 C-15.875 16.188 -15.875 16.188 -13 17 C-12.01 16.67 -11.02 16.34 -10 16 C-9.691 15.361 -9.381 14.721 -9.062 14.062 C-7.757 11.528 -6.576 11.08 -4 10 C-3.67 9.67 -3.34 9.34 -3 9 C-3.66 8.34 -4.32 7.68 -5 7 C-4.242 5.825 -3.468 4.66 -2.688 3.5 C-2.258 2.85 -1.829 2.201 -1.387 1.531 C-0.929 1.026 -0.471 0.521 0 0 Z M-6 8 C-5.67 8.66 -5.34 9.32 -5 10 C-5.66 9.67 -6.32 9.34 -7 9 C-6.67 8.67 -6.34 8.34 -6 8 Z " fill="#2C7BD5" transform="translate(125,167)"/>
<path d="M0 0 C0.99 0.33 1.98 0.66 3 1 C2.67 1.165 2.67 1.165 1 2 C1.494 3.048 1.987 4.096 2.496 5.176 C3.143 6.555 3.79 7.934 4.438 9.312 C4.6 9.658 4.6 9.658 5.424 11.404 C6.755 14.245 8.007 17.021 9 20 C9.99 19.67 10.98 19.34 12 19 C16.228 18.724 19.165 19.196 23 21 C23.33 20.01 23.66 19.02 24 18 C24.99 18.33 25.98 18.66 27 19 C26.494 21.169 26 23 25 25 C25.66 25 26.32 25 27 25 C27.33 24.01 27.66 23.02 28 22 C28.33 22.99 28.66 23.98 29 25 C29.66 25 30.32 25 31 25 C31 25.66 31 26.32 31 27 C30.34 27 29.68 27 29 27 C29 27.66 29 28.32 29 29 C24.53 30.361 22.087 29.561 17.875 27.688 C17.358 27.463 17.358 27.463 14.742 26.324 C12 25 12 25 9 23 C8.67 24.32 8.34 25.64 8 27 C4.276 22.429 2.82 17.675 1.438 12 C1.189 10.989 0.94 9.979 0.684 8.938 C-0.648 3.217 -0.648 3.217 -1 1 C-0.67 0.67 -0.34 0.34 0 0 Z " fill="#307DD7" transform="translate(66,161)"/>
<path d="M0 0 C0.401 0.002 0.401 0.002 2.432 0.01 C2.848 0.014 2.848 0.014 4.957 0.035 C5.38 0.037 5.38 0.037 7.518 0.049 C9.602 0.061 11.686 0.079 13.77 0.098 C13.11 0.758 12.45 1.418 11.77 2.098 C13.09 2.758 14.41 3.418 15.77 4.098 C15.11 5.088 14.45 6.078 13.77 7.098 C13.605 6.603 13.605 6.603 12.77 4.098 C12.419 4.345 12.419 4.345 10.645 5.598 C7.386 7.298 5.39 7.345 1.77 7.098 C0.77 7.098 0.77 7.098 -1.98 8.035 C-5.23 9.098 -5.23 9.098 -7.918 9.348 C-10.23 10.098 -10.23 10.098 -11.918 12.723 C-12.99 15.479 -13.838 18.191 -14.635 21.033 C-15.796 25.058 -17.087 29.043 -18.355 33.035 C-18.633 33.91 -18.91 34.784 -19.195 35.686 C-19.873 37.823 -20.551 39.961 -21.23 42.098 C-21.89 42.098 -22.55 42.098 -23.23 42.098 C-21.815 35.237 -19.94 28.638 -17.793 21.973 C-17.493 21.023 -17.194 20.073 -16.885 19.094 C-11.987 3.773 -11.987 3.773 -7.23 1.098 C-4.465 0.176 -2.848 -0.02 0 0 Z " fill="#7DB6F3" transform="translate(141.23046875,29.90234375)"/>
<path d="M0 0 C0.793 -0.024 1.587 -0.049 2.404 -0.074 C8.209 -0.103 8.209 -0.103 11.363 2.398 C11.842 3.051 12.32 3.703 12.812 4.375 C12.483 5.035 12.153 5.695 11.812 6.375 C8.182 6.375 4.552 6.375 0.812 6.375 C0.812 5.715 0.812 5.055 0.812 4.375 C0.153 4.375 -0.508 4.375 -1.188 4.375 C-1.517 5.695 -1.847 7.015 -2.188 8.375 C-2.847 8.189 -3.508 8.004 -4.188 7.812 C-8.902 7.125 -13.228 7.447 -17.562 9.5 C-19.883 12.178 -20.416 14.966 -21.188 18.375 C-21.848 18.375 -22.508 18.375 -23.188 18.375 C-24.05 14.965 -24.565 11.889 -24.188 8.375 C-18.466 0.858 -8.763 0.014 0 0 Z " fill="#68ADF3" transform="translate(52.1875,30.625)"/>
<path d="M0 0 C0.33 0 0.66 0 1 0 C1 4.29 1 8.58 1 13 C0.34 13 -0.32 13 -1 13 C-1.196 14.252 -1.392 15.503 -1.594 16.793 C-3.345 25.543 -6.571 33.904 -9.5 42.312 C-10.101 44.055 -10.701 45.798 -11.301 47.541 C-15.999 61.156 -15.999 61.156 -18 66 C-19.527 62.092 -18.371 59.832 -16.812 56.062 C-14.467 49.879 -13.112 43.887 -12 37.375 C-10.773 30.252 -9.121 24.041 -6.031 17.457 C-4.57 13.975 -4.346 10.74 -4 7 C-3.34 6.34 -2.68 5.68 -2 5 C-1.293 3.35 -0.621 1.684 0 0 Z " fill="#326FB6" transform="translate(172,45)"/>
<path d="M0 0 C0.99 0.66 1.98 1.32 3 2 C3.188 4.625 3.188 4.625 3 7 C3.66 7 4.32 7 5 7 C5 6.34 5 5.68 5 5 C6.812 4.375 6.812 4.375 9 4 C9.99 4.66 10.98 5.32 12 6 C10.35 6.33 8.7 6.66 7 7 C7 7.66 7 8.32 7 9 C7.66 9.33 8.32 9.66 9 10 C8.01 10.66 7.02 11.32 6 12 C6.66 12.66 7.32 13.32 8 14 C8.33 14.66 8.66 15.32 9 16 C8.34 16.33 7.68 16.66 7 17 C7.66 17.66 8.32 18.32 9 19 C8.505 19.433 8.01 19.866 7.5 20.312 C6 22 6 22 6 25 C5.01 25.33 4.02 25.66 3 26 C1.938 23.625 1.938 23.625 1 21 C1.33 20.34 1.66 19.68 2 19 C1.01 18.67 0.02 18.34 -1 18 C-0.67 16.68 -0.34 15.36 0 14 C-0.66 14 -1.32 14 -2 14 C-2.66 10.04 -3.32 6.08 -4 2 C-2.68 1.34 -1.36 0.68 0 0 Z M6 2 C6.33 2.66 6.66 3.32 7 4 C5.68 4.33 4.36 4.66 3 5 C3 4.34 3 3.68 3 3 C3.99 2.67 4.98 2.34 6 2 Z " fill="#4893EB" transform="translate(41,72)"/>
<path d="M0 0 C0.99 0.33 1.98 0.66 3 1 C0.694 9.138 -2.104 17.057 -5 25 C-5.66 25 -6.32 25 -7 25 C-7.289 25.907 -7.577 26.815 -7.875 27.75 C-9 31 -9 31 -10.125 33 C-11 35 -11 35 -10.875 37.875 C-11.038 41.96 -12.414 43.897 -15 47 C-15.99 47 -16.98 47 -18 47 C-18 46.34 -18 45.68 -18 45 C-17.34 45 -16.68 45 -16 45 C-16 44.34 -16 43.68 -16 43 C-15.34 43 -14.68 43 -14 43 C-14 42.01 -14 41.02 -14 40 C-14.66 40 -15.32 40 -16 40 C-16.33 38.35 -16.66 36.7 -17 35 C-16.01 34.34 -15.02 33.68 -14 33 C-10.64 29.253 -10 25.951 -10 21 C-9.484 20.154 -8.969 19.309 -8.438 18.438 C-7.963 17.633 -7.489 16.829 -7 16 C-7.33 15.34 -7.66 14.68 -8 14 C-7.01 13.67 -6.02 13.34 -5 13 C-4.299 9.847 -4 7.273 -4 4 C-2.68 3.67 -1.36 3.34 0 3 C0 2.01 0 1.02 0 0 Z " fill="#2C7AD3" transform="translate(145,117)"/>
<path d="M0 0 C1.5 1.062 1.5 1.062 3 3 C3.188 6.688 3.188 6.688 3 10 C3.66 10 4.32 10 5 10 C5.054 11.916 5.093 13.833 5.125 15.75 C5.148 16.817 5.171 17.885 5.195 18.984 C5.001 21.988 4.442 23.43 3 26 C2.661 28.332 2.328 30.666 2 33 C1.383 34.686 0.717 36.354 0 38 C-1.002 40.829 -1.911 43.556 -2.5 46.5 C-3.802 53.012 -6.261 58.261 -11 63 C-10.913 61.561 -10.804 60.124 -10.688 58.688 C-10.629 57.887 -10.571 57.086 -10.512 56.262 C-10 54 -10 54 -8.555 52.578 C-6.335 50.325 -6.1 48.124 -5.438 45.062 C-4.632 41.388 -3.758 38.318 -2 35 C-1.306 32.675 -0.639 30.341 0 28 C0.33 27.01 0.66 26.02 1 25 C1.228 22.267 1.417 19.55 1.562 16.812 C1.606 16.063 1.649 15.313 1.693 14.541 C1.799 12.694 1.9 10.847 2 9 C1.34 9 0.68 9 0 9 C-0.845 5.622 -1.108 3.325 0 0 Z " fill="#DDCEAE" transform="translate(174,45)"/>
<path d="M0 0 C0.165 0.495 0.165 0.495 1 3 C-2.227 8.621 -6.014 12.38 -12 15 C-17.246 16.228 -22.514 16.218 -27.875 16.25 C-28.735 16.271 -29.595 16.291 -30.48 16.312 C-36.338 16.348 -40.678 15.498 -46 13 C-46.33 12.34 -46.66 11.68 -47 11 C-45.927 11.33 -44.855 11.66 -43.75 12 C-33.781 14.461 -21.133 13.991 -12 9 C-11.361 8.691 -10.721 8.381 -10.062 8.062 C-5.798 5.866 -2.674 4.081 0 0 Z " fill="#1C63B6" transform="translate(126,178)"/>
<path d="M0 0 C0.99 0 1.98 0 3 0 C1.81 6.492 -0.202 12.079 -2.832 18.125 C-3.843 20.613 -4.588 22.952 -5.188 25.562 C-6 29 -6 29 -8 32 C-10.625 32.188 -10.625 32.188 -13 32 C-11.895 29.194 -10.744 26.436 -9.5 23.688 C-7.902 19.758 -6.845 16.153 -6 12 C-6.33 11.34 -6.66 10.68 -7 10 C-6.34 9.01 -5.68 8.02 -5 7 C-4.01 7.33 -3.02 7.66 -2 8 C-1.928 7.526 -1.928 7.526 -1.562 5.125 C-1 2 -1 2 0 0 Z " fill="#55A0F1" transform="translate(111,91)"/>
<path d="M0 0 C0.99 0.33 1.98 0.66 3 1 C2.67 1.165 2.67 1.165 1 2 C0.07 4.209 0.07 4.209 -0.875 7.094 C-1.22 8.124 -1.566 9.154 -1.922 10.215 C-2.278 11.299 -2.633 12.383 -3 13.5 C-3.702 15.638 -4.41 17.773 -5.125 19.906 C-5.437 20.858 -5.749 21.81 -6.07 22.791 C-7 25 -7 25 -9 26 C-9.915 28.621 -10.735 31.21 -11.5 33.875 C-13.745 41.618 -13.745 41.618 -16 45 C-15.404 38.152 -13.635 31.976 -11.562 25.438 C-10.938 23.436 -10.315 21.435 -9.691 19.434 C-9.395 18.495 -9.098 17.557 -8.793 16.59 C-8.126 14.413 -7.536 12.236 -6.973 10.031 C-5.998 6.995 -5.035 5.363 -2.875 3.062 C-2.336 2.476 -1.797 1.889 -1.242 1.285 C-0.832 0.861 -0.422 0.437 0 0 Z " fill="#448CE1" transform="translate(129,34)"/>
<path d="M0 0 C0.66 0.33 1.32 0.66 2 1 C1.67 1.495 1.67 1.495 0 4 C-0.33 5.155 -0.66 6.31 -1 7.5 C-2 11 -2 11 -4 14 C-4.694 16.325 -5.361 18.659 -6 21 C-6.33 21.66 -6.66 22.32 -7 23 C-6.34 23.33 -5.68 23.66 -5 24 C-5.41 24.459 -5.82 24.918 -6.242 25.391 C-6.512 25.697 -6.512 25.697 -7.875 27.25 C-8.409 27.853 -8.942 28.457 -9.492 29.078 C-11 31 -11 31 -12.07 33.172 C-13 35 -13 35 -15 36 C-13.784 30.669 -12.17 26.034 -10 21 C-8.503 16.419 -7.187 11.826 -6.125 7.125 C-4.796 3.434 -3.234 2.128 0 0 Z " fill="#E0D2B2" transform="translate(159,126)"/>
<path d="M0 0 C6.888 3.806 7.972 8.503 10.105 15.762 C10.468 17.07 10.829 18.378 11.188 19.688 C11.378 20.351 11.568 21.014 11.764 21.697 C12.669 25.014 13.112 26.665 12 30 C7.41 25.199 5.572 20.77 3.75 14.438 C3.495 13.6 3.24 12.763 2.977 11.9 C1.792 7.962 0.697 4.059 0 0 Z " fill="#E1D5BB" transform="translate(76,46)"/>
<path d="M0 0 C3.627 2.749 4.505 6.781 5.812 10.938 C5.939 11.33 5.939 11.33 6.581 13.315 C7.401 15.873 8.203 18.435 9 21 C9.278 21.893 9.557 22.786 9.844 23.706 C10.675 26.385 11.496 29.066 12.312 31.75 C12.567 32.583 12.821 33.415 13.083 34.273 C14.348 38.5 15.399 42.616 16 47 C14 46 14 46 12.781 42.832 C12.347 41.495 11.92 40.155 11.5 38.812 C11.287 38.152 11.075 37.491 10.855 36.811 C10.435 35.503 10.017 34.195 9.602 32.885 C8.76 30.248 7.881 27.624 7 25 C6.34 25 5.68 25 5 25 C2.859 16.742 1.104 8.462 0 0 Z " fill="#3778C1" transform="translate(72,39)"/>
<path d="M0 0 C2.124 3.891 3.53 8.019 5 12.188 C5.269 12.945 5.538 13.703 5.815 14.484 C7.202 18.46 8.421 22.363 9.25 26.5 C9.498 27.655 9.745 28.81 10 30 C10.66 30.33 11.32 30.66 12 31 C12.268 29.824 12.536 28.649 12.812 27.438 C13.814 23.394 15.266 19.783 17 16 C18.572 19.143 17.117 21.365 16.062 24.625 C15.682 25.814 15.302 27.002 14.91 28.227 C14.61 29.142 14.309 30.057 14 31 C11.609 31.582 11.609 31.582 9 32 C6.982 30.487 6.125 29.251 5 27 C4.34 26.67 3.68 26.34 3 26 C3.33 25.34 3.66 24.68 4 24 C3.963 22.143 3.849 20.288 3.688 18.438 C3.609 17.446 3.53 16.455 3.449 15.434 C3.301 14.631 3.153 13.827 3 13 C2.34 12.67 1.68 12.34 1 12 C-0.262 9.475 -0.099 7.688 -0.062 4.875 C-0.053 3.965 -0.044 3.055 -0.035 2.117 C-0.024 1.419 -0.012 0.72 0 0 Z " fill="#2A72C9" transform="translate(88,86)"/>
<path d="M0 0 C2.494 2.494 2.886 4.434 3.875 7.812 C5.587 13.613 7.396 19.373 9.266 25.125 C9.972 27.889 10.146 30.164 10 33 C8.68 32.34 7.36 31.68 6 31 C6.33 30.34 6.66 29.68 7 29 C5.02 28.34 3.04 27.68 1 27 C1.99 26.34 2.98 25.68 4 25 C3.01 24.34 2.02 23.68 1 23 C1.99 22.34 2.98 21.68 4 21 C4.188 18.375 4.188 18.375 4 16 C3.34 15.67 2.68 15.34 2 15 C1.586 12.934 1.586 12.934 1.375 10.438 C1.3 9.611 1.225 8.785 1.148 7.934 C1.124 7.615 1.124 7.615 1 6 C0.34 6 -0.32 6 -1 6 C-1.33 5.01 -1.66 4.02 -2 3 C-1.34 2.01 -0.68 1.02 0 0 Z " fill="#3482DC" transform="translate(79,63)"/>
<path d="M0 0 C1.32 0.66 2.64 1.32 4 2 C3.34 3.98 2.68 5.96 2 8 C2.99 7.67 3.98 7.34 5 7 C5 7.66 5 8.32 5 9 C4.67 9.165 4.67 9.165 3 10 C3.33 10.99 3.66 11.98 4 13 C3.67 13.165 3.67 13.165 2 14 C2.33 14.66 2.66 15.32 3 16 C2.34 16 1.68 16 1 16 C0.67 16.99 0.34 17.98 0 19 C-0.66 18.67 -1.32 18.34 -2 18 C-2 17.34 -2 16.68 -2 16 C-3.98 16.66 -5.96 17.32 -8 18 C-8.66 17.34 -9.32 16.68 -10 16 C-8 13 -8 13 -6 12.562 C-4 12 -4 12 -2.875 10.438 C-1.644 7.01 -0.828 3.547 0 0 Z " fill="#4391EB" transform="translate(107,110)"/>
<path d="M0 0 C0.33 0.66 0.66 1.32 1 2 C1.66 2 2.32 2 3 2 C3.989 5.018 4.964 8.04 5.938 11.062 C6.215 11.91 6.493 12.758 6.779 13.631 C8.321 18.442 9.288 22.989 10 28 C11.24 31.646 12.633 35.208 14.039 38.793 C15.01 42.034 14.955 42.932 14 46 C12.485 41.769 10.974 37.538 9.465 33.305 C8.953 31.869 8.44 30.434 7.926 28.999 C-0.202 6.301 -0.202 6.301 0 0 Z " fill="#457BB7" transform="translate(26,58)"/>
<path d="M0 0 C2.912 3.288 4.497 5.599 5 10 C5.66 10 6.32 10 7 10 C7 10.66 7 11.32 7 12 C7.99 12 8.98 12 10 12 C10 12.66 10 13.32 10 14 C9.34 14 8.68 14 8 14 C8.309 15.217 8.619 16.434 8.938 17.688 C9.712 20.778 10.413 23.867 11 27 C10.34 27 9.68 27 9 27 C8.34 25.35 7.68 23.7 7 22 C6.34 22 5.68 22 5 22 C2.593 14.748 1.104 7.556 0 0 Z " fill="#3380DA" transform="translate(55,134)"/>
<path d="M0 0 C0.545 0.254 1.091 0.508 1.652 0.77 C11.585 5.303 19.197 8.601 30 5 C32.009 5.276 34.012 5.602 36 6 C28.688 10.874 16.367 9.808 8 8.25 C4.387 7.325 2.192 6.145 0 3 C0 2.01 0 1.02 0 0 Z " fill="#236DC6" transform="translate(74,183)"/>
<path d="M0 0 C1.559 3.119 0.655 5.663 0 9 C-0.66 9.66 -1.32 10.32 -2 11 C-2.574 12.53 -3.111 14.074 -3.625 15.625 C-5.814 21.294 -9.134 25.36 -14 29 C-16.25 29.715 -16.25 29.715 -18 30 C-17.046 28.851 -16.086 27.706 -15.125 26.562 C-14.591 25.924 -14.058 25.286 -13.508 24.629 C-12 23 -12 23 -10 22 C-8.461 18.729 -7.177 15.581 -6.125 12.125 C-4.569 7.804 -2.306 3.961 0 0 Z M-20 30 C-19.34 30.33 -18.68 30.66 -18 31 C-18.495 31.33 -18.495 31.33 -21 33 C-20.67 32.01 -20.34 31.02 -20 30 Z " fill="#CCBC97" transform="translate(137,172)"/>
<path d="M0 0 C0.33 0.99 0.66 1.98 1 3 C1.66 3 2.32 3 3 3 C3.054 5.584 3.094 8.166 3.125 10.75 C3.142 11.48 3.159 12.209 3.176 12.961 C3.211 16.881 3.048 19.64 1 23 C0.627 24.302 0.293 25.615 0 26.938 C-0.744 30.097 -1.695 33.018 -3 36 C-4.561 31.973 -3.482 28.257 -2.625 24.188 C0.161 10.452 0.161 10.452 0.062 4.062 C0.053 3.29 0.044 2.518 0.035 1.723 C0.024 1.154 0.012 0.586 0 0 Z " fill="#D8C7A3" transform="translate(173,51)"/>
<path d="M0 0 C1.5 1.062 1.5 1.062 3 3 C3.188 6.688 3.188 6.688 3 10 C3.66 10 4.32 10 5 10 C5.054 11.916 5.093 13.833 5.125 15.75 C5.148 16.817 5.171 17.885 5.195 18.984 C5.001 21.992 4.434 23.423 3 26 C2.835 27.217 2.67 28.434 2.5 29.688 C2.335 30.781 2.17 31.874 2 33 C1.67 33.165 1.67 33.165 0 34 C0.144 32.845 0.289 31.69 0.438 30.5 C1.24 23.356 1.586 16.174 2 9 C1.34 9 0.68 9 0 9 C-0.845 5.622 -1.108 3.325 0 0 Z " fill="#EADBBD" transform="translate(174,45)"/>
<path d="M0 0 C0.302 0.175 0.302 0.175 1.828 1.059 C2.627 1.514 3.427 1.969 4.25 2.438 C5.039 2.89 5.828 3.342 6.641 3.809 C10.547 5.781 14.074 6.147 18.422 6.316 C18.934 6.337 18.934 6.337 21.527 6.443 C22.591 6.483 23.654 6.522 24.75 6.562 C25.829 6.606 26.908 6.649 28.02 6.693 C30.68 6.799 33.34 6.901 36 7 C36 7.33 36 7.66 36 8 C31.566 9.102 27.227 9.149 22.688 9.125 C22.327 9.127 22.327 9.127 20.502 9.137 C6.262 9.111 6.262 9.111 2 4.938 C1.422 4.39 0.845 3.842 0.25 3.277 C-0.162 2.856 -0.575 2.434 -1 2 C-0.67 1.34 -0.34 0.68 0 0 Z " fill="#3F73AE" transform="translate(75,187)"/>
<path d="M0 0 C0.66 0 1.32 0 2 0 C1.488 6.451 0.238 11.942 -2 18 C-2.33 18.99 -2.66 19.98 -3 21 C-3.66 21 -4.32 21 -5 21 C-5.33 23.31 -5.66 25.62 -6 28 C-6.99 28 -7.98 28 -9 28 C-6.299 18.57 -3.128 9.294 0 0 Z " fill="#BAA784" transform="translate(157,104)"/>
<path d="M0 0 C2.562 2 2.562 2 5 5 C5.406 9.455 4.06 13.121 2 17 C1.245 19.651 0.627 22.315 0 25 C-1.32 25 -2.64 25 -4 25 C-4 24.34 -4 23.68 -4 23 C-3.34 23 -2.68 23 -2 23 C-2 21.02 -2 19.04 -2 17 C-1.34 17 -0.68 17 0 17 C0 15.68 0 14.36 0 13 C-0.33 12.67 -0.66 12.34 -1 12 C-0.67 11.01 -0.34 10.02 0 9 C0.66 9 1.32 9 2 9 C1.34 6.03 0.68 3.06 0 0 Z " fill="#3880D5" transform="translate(167,37)"/>
<path d="M0 0 C0.66 0.165 0.66 0.165 4 1 C3.602 3.886 3.21 4.822 0.938 6.75 C0.298 7.162 -0.341 7.575 -1 8 C-0.67 5.36 -0.34 2.72 0 0 Z M-2 8 C-1.34 9.32 -0.68 10.64 0 12 C-0.33 12.495 -0.33 12.495 -2 15 C-2 15.99 -2 16.98 -2 18 C-2.94 19.701 -3.949 21.365 -5 23 C-5.557 23.928 -6.114 24.856 -6.688 25.812 C-7.121 26.534 -7.554 27.256 -8 28 C-9 26 -9 26 -8.328 23.645 C-7.972 22.71 -7.617 21.775 -7.25 20.812 C-6.879 19.833 -6.507 18.853 -6.125 17.844 C-4.814 14.53 -3.447 11.256 -2 8 Z " fill="#E0D1B0" transform="translate(143,162)"/>
<path d="M0 0 C1.071 2.697 1.112 3.735 -0.039 6.453 C-0.562 7.376 -1.086 8.299 -1.625 9.25 C-5.488 16.543 -7.735 24.103 -10 32 C-10.33 32 -10.66 32 -11 32 C-11.172 26.939 -11.023 23.677 -9 19 C-9.062 18.154 -9.124 17.309 -9.188 16.438 C-9.126 15.633 -9.064 14.829 -9 14 C-8.257 13.443 -7.515 12.886 -6.75 12.312 C-2.772 8.967 -1.649 4.829 0 0 Z " fill="#C8B794" transform="translate(150,137)"/>
<path d="M0 0 C0.165 0.495 0.165 0.495 1 3 C-2.227 8.621 -6.014 12.38 -12 15 C-17.41 16.306 -22.846 16.114 -28.375 16.062 C-29.302 16.058 -30.229 16.053 -31.184 16.049 C-33.456 16.037 -35.728 16.021 -38 16 C-38 15.67 -38 15.34 -38 15 C-37.31 14.96 -36.619 14.921 -35.908 14.88 C-32.75 14.688 -29.594 14.469 -26.438 14.25 C-25.894 14.219 -25.894 14.219 -23.146 14.062 C-15.404 13.498 -10.125 12.472 -4.75 6.5 C-4.172 5.675 -3.595 4.85 -3 4 C-2.711 3.618 -2.711 3.618 -1.25 1.688 C-1.044 1.409 -1.044 1.409 0 0 Z " fill="#1B569E" transform="translate(126,178)"/>
<path d="M0 0 C2.64 0 5.28 0 8 0 C6.745 2.511 5.499 2.871 3 4 C3.66 4.66 4.32 5.32 5 6 C4.546 6.392 4.093 6.784 3.625 7.188 C2 9 2 9 1.062 11.625 C0 14 0 14 -2.125 14.812 C-2.744 14.874 -3.362 14.936 -4 15 C-3.326 9.742 -1.757 4.974 0 0 Z " fill="#4A96ED" transform="translate(112,95)"/>
<path d="M0 0 C0.99 0.33 1.98 0.66 3 1 C0.694 9.138 -2.104 17.057 -5 25 C-5.33 25 -5.66 25 -6 25 C-5.125 17.375 -5.125 17.375 -4 14 C-4.186 13.154 -4.371 12.309 -4.562 11.438 C-4.707 10.633 -4.851 9.829 -5 9 C-4.34 8.34 -3.68 7.68 -3 7 C-3.33 6.01 -3.66 5.02 -4 4 C-2.68 3.67 -1.36 3.34 0 3 C0 2.01 0 1.02 0 0 Z " fill="#2A73C7" transform="translate(145,117)"/>
<path d="M0 0 C3 1 3 1 4.107 2.978 C5.191 5.751 6.268 8.524 7.312 11.312 C7.505 11.794 7.505 11.794 8.479 14.232 C8.832 15.162 9.186 16.093 9.551 17.051 C9.714 17.477 9.714 17.477 10.54 19.634 C11.096 22.493 10.551 23.596 9 26 C7.492 22.232 5.995 18.46 4.5 14.688 C4.071 13.616 3.641 12.544 3.199 11.439 C2.996 10.925 2.996 10.925 1.969 8.324 C1.78 7.85 1.78 7.85 0.826 5.452 C0 3 0 3 0 0 Z " fill="#F0EAD4" transform="translate(57,156)"/>
<path d="M0 0 C0.99 0 1.98 0 3 0 C2.604 1.963 2.182 3.92 1.75 5.875 C1.518 6.966 1.286 8.056 1.047 9.18 C0 12 0 12 -2.109 13.383 C-2.733 13.586 -3.357 13.79 -4 14 C-4 14.99 -4 15.98 -4 17 C-5.65 16.67 -7.3 16.34 -9 16 C-8.67 14.35 -8.34 12.7 -8 11 C-6.68 11 -5.36 11 -4 11 C-3.67 9.68 -3.34 8.36 -3 7 C-2.34 7.33 -1.68 7.66 -1 8 C-1.021 7.051 -1.041 6.103 -1.062 5.125 C-1 2 -1 2 0 0 Z " fill="#317ED6" transform="translate(149,104)"/>
<path d="M0 0 C0.33 0 0.66 0 1 0 C1 4.29 1 8.58 1 13 C0.34 13 -0.32 13 -1 13 C-1.086 13.548 -1.173 14.096 -1.262 14.66 C-2.691 22.724 -5.307 30.29 -8 38 C-9.244 34.451 -8.738 32.261 -7.637 28.711 C-7.327 27.686 -7.017 26.661 -6.697 25.605 C-6.364 24.539 -6.031 23.473 -5.688 22.375 C-3.401 14.961 -1.344 7.648 0 0 Z " fill="#4E7DAD" transform="translate(172,45)"/>
<path d="M0 0 C4.668 0.312 9.335 0.646 14 1 C14.956 1.072 15.913 1.144 16.898 1.219 C18.941 1.404 20.973 1.691 23 2 C23.33 2.66 23.66 3.32 24 4 C14.91 6.273 8.465 4.485 0 1 C0 0.67 0 0.34 0 0 Z " fill="#D1C19D" transform="translate(90,202)"/>
<path d="M0 0 C2.917 -0.054 5.833 -0.094 8.75 -0.125 C9.575 -0.142 10.4 -0.159 11.25 -0.176 C12.049 -0.182 12.848 -0.189 13.672 -0.195 C14.405 -0.206 15.138 -0.216 15.894 -0.227 C20.564 0.276 24.211 3.417 28 6 C27.34 6.66 26.68 7.32 26 8 C23.17 7.637 20.709 6.903 18 6 C17.67 5.01 17.34 4.02 17 3 C13.958 1.479 10.72 1.626 7.375 1.438 C6.669 1.394 5.962 1.351 5.234 1.307 C3.49 1.201 1.745 1.1 0 1 C0 0.67 0 0.34 0 0 Z " fill="#509BEE" transform="translate(138,31)"/>
<path d="M0 0 C0.66 0 1.32 0 2 0 C1.716 1.751 1.423 3.501 1.125 5.25 C0.963 6.225 0.8 7.199 0.633 8.203 C-0.219 11.97 -1.269 14.269 -4 17 C-4.061 16.374 -4.121 15.747 -4.184 15.102 C-4.267 14.284 -4.351 13.467 -4.438 12.625 C-4.519 11.813 -4.6 11.001 -4.684 10.164 C-5 8 -5 8 -6 6 C-4 3 -4 3 -1.875 2.312 C-1.256 2.209 -0.638 2.106 0 2 C0 1.34 0 0.68 0 0 Z " fill="#63A4ED" transform="translate(117,73)"/>
<path d="M0 0 C1.074 1.77 1.074 1.77 2 4 C-0.558 11.944 -6.295 16.322 -13 21 C-13.99 21.33 -14.98 21.66 -16 22 C-16.33 21.34 -16.66 20.68 -17 20 C-16.18 19.42 -15.36 18.84 -14.516 18.242 C-13.427 17.454 -12.338 16.665 -11.25 15.875 C-10.183 15.109 -9.115 14.344 -8.016 13.555 C-4.821 10.848 -3.122 8.554 -1 5 C-1.33 4.34 -1.66 3.68 -2 3 C-1.34 2.01 -0.68 1.02 0 0 Z " fill="#C3B28D" transform="translate(129,183)"/>
<path d="M0 0 C-1.334 2.669 -2.651 2.872 -5.375 4 C-9.958 5.911 -12.96 7.293 -15 12 C-16.144 8.567 -16.308 7.353 -15 4 C-9.841 0.105 -6.372 -0.447 0 0 Z " fill="#7CB8F7" transform="translate(46,34)"/>
<path d="M0 0 C2.083 -0.054 4.166 -0.093 6.25 -0.125 C6.83 -0.137 6.83 -0.137 9.766 -0.195 C12.828 -0.01 14.442 0.392 17 2 C16.67 2.495 16.67 2.495 15 5 C14.67 4.01 14.34 3.02 14 2 C13.299 2.495 12.597 2.99 11.875 3.5 C8.531 5.245 6.715 5.646 3 5 C1.32 2.469 1.32 2.469 0 0 Z " fill="#62A8F6" transform="translate(140,32)"/>
<path d="M0 0 C1 3 1 3 -0.074 5.777 C-0.607 6.82 -1.139 7.863 -1.688 8.938 C-2.207 9.978 -2.726 11.018 -3.262 12.09 C-5.343 15.575 -7.102 18.46 -11.141 19.609 C-11.837 19.656 -12.533 19.702 -13.25 19.75 C-14.487 19.833 -15.725 19.915 -17 20 C-15.667 19 -14.333 18 -13 17 C-12.299 16.443 -11.597 15.886 -10.875 15.312 C-9 14 -9 14 -7 14 C-6.862 13.724 -6.862 13.724 -6.164 12.328 C-4.109 8.219 -2.055 4.109 0 0 Z " fill="#4071A9" transform="translate(129,174)"/>
<path d="M0 0 C0.99 0 1.98 0 3 0 C1.662 5.519 -2.512 8.85 -7 12 C-9.258 12.703 -9.258 12.703 -11 13 C-11.66 12.01 -12.32 11.02 -13 10 C-12.74 9.89 -12.74 9.89 -11.426 9.336 C-7.613 7.602 -4.777 6.102 -2.188 2.75 C-1.466 1.843 -0.744 0.935 0 0 Z " fill="#B09F7B" transform="translate(126,187)"/>
<path d="M0 0 C0.33 0 0.66 0 1 0 C0.125 6.75 0.125 6.75 -1 9 C-1.66 9 -2.32 9 -3 9 C-2.918 9.887 -2.835 10.774 -2.75 11.688 C-3.052 15.69 -4.297 17.128 -7 20 C-7.99 19.67 -8.98 19.34 -10 19 C-9.67 18.34 -9.34 17.68 -9 17 C-8.34 17 -7.68 17 -7 17 C-6.903 16.668 -6.903 16.668 -6.414 14.988 C-2.828 2.828 -2.828 2.828 0 0 Z " fill="#246FC4" transform="translate(130,163)"/>
<path d="M0 0 C0.33 0 0.66 0 1 0 C1.333 6.21 0.45 10.283 -2 16 C-2.66 16 -3.32 16 -4 16 C-4.33 16.66 -4.66 17.32 -5 18 C-4.065 4.065 -4.065 4.065 0 0 Z " fill="#3B89E5" transform="translate(111,83)"/>
<path d="M0 0 C0.66 0.33 1.32 0.66 2 1 C1.391 5.604 0.153 9.565 -1.562 13.875 C-2.018 15.027 -2.473 16.18 -2.941 17.367 C-3.116 17.802 -3.116 17.802 -4 20 C-5.18 18.516 -5.18 18.516 -6 16 C-5.374 13.12 -4.253 10.467 -3.125 7.75 C-2.83 7.005 -2.535 6.26 -2.23 5.492 C-1.501 3.656 -0.752 1.827 0 0 Z " fill="#B6A481" transform="translate(140,152)"/>
<path d="M0 0 C0 4.382 -2.133 6.08 -5.062 9.188 C-9.23 13.278 -13.642 17.116 -18 21 C-18 18 -18 18 -15.699 15.695 C-14.705 14.847 -13.711 13.999 -12.688 13.125 C-8.981 9.956 -6.375 7.251 -4 3 C-1.812 1.188 -1.812 1.188 0 0 Z " fill="#E3D4B2" transform="translate(136,189)"/>
<path d="M0 0 C0.99 0.33 1.98 0.66 3 1 C1.549 4.794 -0.185 8.369 -2 12 C-2.33 12.907 -2.66 13.815 -3 14.75 C-4 17 -4 17 -7 19 C-5.444 12.178 -3.238 6.226 0 0 Z " fill="#E2D3B3" transform="translate(164,108)"/>
<path d="M0 0 C2.091 4.054 3.642 8.215 5.188 12.5 C5.473 13.259 5.759 14.019 6.053 14.801 C6.318 15.537 6.583 16.273 6.855 17.031 C7.099 17.697 7.343 18.363 7.594 19.049 C8.071 21.341 7.719 22.795 7 25 C6.329 23.377 5.663 21.751 5 20.125 C4.629 19.22 4.257 18.315 3.875 17.383 C3 15 3 15 3 13 C2.34 12.67 1.68 12.34 1 12 C-0.262 9.475 -0.099 7.688 -0.062 4.875 C-0.053 3.965 -0.044 3.055 -0.035 2.117 C-0.024 1.419 -0.012 0.72 0 0 Z " fill="#4175AE" transform="translate(88,86)"/>
<path d="M0 0 C2.399 0.662 3.692 1.48 4.969 3.633 C7.162 8.812 7.076 12.522 6 18 C4.246 14.728 3.043 11.396 1.875 7.875 C1.522 6.821 1.169 5.766 0.805 4.68 C0 2 0 2 0 0 Z " fill="#D1C5AD" transform="translate(84,72)"/>
<path d="M0 0 C1.252 3.516 0.76 5.266 -0.75 8.625 C-2.906 13.656 -4.521 18.734 -6 24 C-6.66 24 -7.32 24 -8 24 C-6.475 16.504 -4.32 9.286 -2 2 C-1.34 2 -0.68 2 0 2 C0 1.34 0 0.68 0 0 Z " fill="#69ABF4" transform="translate(126,48)"/>
<path d="M0 0 C0.99 0 1.98 0 3 0 C1.891 6.306 0.068 11.375 -3 17 C-3.33 17 -3.66 17 -4 17 C-3.584 10.805 -2.397 5.733 0 0 Z " fill="#5EA4F2" transform="translate(111,91)"/>
<path d="M0 0 C1.392 4.176 -0.293 6.834 -1.938 10.688 C-2.228 11.389 -2.519 12.091 -2.818 12.814 C-3.537 14.547 -4.267 16.274 -5 18 C-5.66 17.67 -6.32 17.34 -7 17 C-6.011 13.663 -5.008 10.331 -4 7 C-3.649 5.824 -3.299 4.649 -2.938 3.438 C-2 1 -2 1 0 0 Z " fill="#B7A685" transform="translate(148,134)"/>
<path d="M0 0 C5.076 2.784 9.483 6.408 14 10 C13.34 10.66 12.68 11.32 12 12 C6.734 9.141 2.31 5.671 0 0 Z " fill="#E7DBC0" transform="translate(70,188)"/>
<path d="M0 0 C1.263 4.166 0.448 6.763 -0.812 10.938 C-1.17 12.143 -1.527 13.348 -1.895 14.59 C-2.823 17.454 -3.836 20.225 -5 23 C-5.33 23 -5.66 23 -6 23 C-6.426 17.449 -4.919 13.226 -3 8.125 C-2.714 7.341 -2.428 6.558 -2.133 5.75 C-1.43 3.83 -0.716 1.915 0 0 Z " fill="#C9B895" transform="translate(171,71)"/>
<path d="M0 0 C0.99 0.33 1.98 0.66 3 1 C2.67 1.165 2.67 1.165 1 2 C0.22 3.825 -0.478 5.686 -1.125 7.562 C-1.478 8.574 -1.831 9.586 -2.195 10.629 C-2.461 11.411 -2.726 12.194 -3 13 C-3.33 12.01 -3.66 11.02 -4 10 C-4.99 10.33 -5.98 10.66 -7 11 C-5.514 6.407 -3.15 3.564 0 0 Z " fill="#599EEA" transform="translate(129,34)"/>
<path d="M0 0 C3.141 2.57 4.059 5.09 5 9 C5.152 12.009 5.12 14.991 5 18 C4.34 17.67 3.68 17.34 3 17 C2.402 14.961 2.402 14.961 1.938 12.375 C1.774 11.478 1.61 10.581 1.441 9.656 C0.907 6.442 0.421 3.231 0 0 Z " fill="#347ED2" transform="translate(72,39)"/>
<path d="M0 0 C0.33 0 0.66 0 1 0 C0.43 6.957 -1.013 13.314 -3 20 C-3.66 20 -4.32 20 -5 20 C-4.856 19.175 -4.711 18.35 -4.562 17.5 C-4.145 14.904 -3.829 12.361 -3.562 9.75 C-3 6 -3 6 -1 4 C-0.375 1.875 -0.375 1.875 0 0 Z " fill="#246DC1" transform="translate(171,46)"/>
<path d="M0 0 C1.667 0.333 3.333 0.667 5 1 C7.933 1.264 10.871 1.412 13.812 1.562 C14.207 1.584 14.207 1.584 16.201 1.693 C18.134 1.799 20.067 1.9 22 2 C22 2.33 22 2.66 22 3 C18.731 3.255 15.46 3.474 12.188 3.688 C11.259 3.76 10.33 3.833 9.373 3.908 C8.927 3.936 8.927 3.936 6.668 4.074 C5.846 4.132 5.024 4.189 4.177 4.249 C1.479 3.94 0.674 3.072 -1 1 C-0.67 0.67 -0.34 0.34 0 0 Z " fill="#D1BD97" transform="translate(84,198)"/>
<path d="M0 0 C0.217 0.309 0.217 0.309 1.312 1.875 C3 4 3 4 6 6 C5.67 6.66 5.34 7.32 5 8 C1.938 8.625 1.938 8.625 -1 9 C-0.67 7.68 -0.34 6.36 0 5 C-0.99 4.67 -1.98 4.34 -3 4 C-2.01 3.67 -1.02 3.34 0 3 C0 2.01 0 1.02 0 0 Z " fill="#2E80DC" transform="translate(94,113)"/>
<path d="M0 0 C0.33 0.66 0.66 1.32 1 2 C1.99 1.67 2.98 1.34 4 1 C4.702 5.386 5.108 9.558 5 14 C2.814 11.814 2.317 10.461 1.375 7.562 C1.115 6.78 0.854 5.998 0.586 5.191 C0 3 0 3 0 0 Z " fill="#E9DDC3" transform="translate(89,77)"/>
<path d="M0 0 C-0.33 0.99 -0.66 1.98 -1 3 C-4.63 3 -8.26 3 -12 3 C-12 2.01 -12 1.02 -12 0 C-7.667 -0.928 -4.333 -0.928 0 0 Z " fill="#5FA8F7" transform="translate(65,34)"/>
<path d="M0 0 C0.99 0.33 1.98 0.66 3 1 C3.949 3.285 3.949 3.285 4.688 6.062 C4.939 6.982 5.19 7.901 5.449 8.848 C5.631 9.558 5.813 10.268 6 11 C5.34 11.66 4.68 12.32 4 13 C3.327 11.399 2.662 9.794 2 8.188 C1.629 7.294 1.258 6.401 0.875 5.48 C0 3 0 3 0 0 Z " fill="#E9E3CF" transform="translate(57,156)"/>
<path d="M0 0 C0.66 0.66 1.32 1.32 2 2 C1.697 6.092 1.123 9.462 -1 13 C-1.33 12.67 -1.66 12.34 -2 12 C-1.598 7.917 -1.151 3.948 0 0 Z " fill="#C6B28A" transform="translate(172,58)"/>
<path d="M0 0 C0.763 0.206 1.526 0.413 2.312 0.625 C-1.438 3.625 -1.438 3.625 -3.688 3.625 C-3.688 4.285 -3.688 4.945 -3.688 5.625 C-5.008 5.625 -6.328 5.625 -7.688 5.625 C-6.026 1.791 -4.59 -0.641 0 0 Z " fill="#5BA3F3" transform="translate(39.6875,38.375)"/>
<path d="M0 0 C1.371 3.69 0.6 5.709 -0.938 9.25 C-1.318 10.142 -1.698 11.034 -2.09 11.953 C-2.39 12.629 -2.691 13.304 -3 14 C-3.66 13.67 -4.32 13.34 -5 13 C-4.393 8.14 -2.272 4.259 0 0 Z " fill="#226BC1" transform="translate(138,142)"/>
<path d="M0 0 C1.32 0.33 2.64 0.66 4 1 C4 2.98 4 4.96 4 7 C2.68 7.33 1.36 7.66 0 8 C0 5.36 0 2.72 0 0 Z " fill="#3481DA" transform="translate(39,90)"/>
<path d="M0 0 C0.66 0 1.32 0 2 0 C1.55 1.627 1.089 3.252 0.625 4.875 C0.37 5.78 0.115 6.685 -0.148 7.617 C-1 10 -1 10 -3 12 C-3.99 11.67 -4.98 11.34 -6 11 C-6 10.34 -6 9.68 -6 9 C-5.01 8.67 -4.02 8.34 -3 8 C-2.051 6.152 -2.051 6.152 -1.312 3.938 C-1.061 3.204 -0.81 2.471 -0.551 1.715 C-0.369 1.149 -0.187 0.583 0 0 Z " fill="#2D77CE" transform="translate(155,92)"/>
<path d="M0 0 C1.5 1.062 1.5 1.062 3 3 C3.188 6.688 3.188 6.688 3 10 C1.68 9.01 0.36 8.02 -1 7 C-0.67 4.69 -0.34 2.38 0 0 Z " fill="#E9DEC4" transform="translate(83,57)"/>
<path d="M0 0 C0.99 0.66 1.98 1.32 3 2 C1 5 1 5 -1.125 5.688 C-1.744 5.791 -2.362 5.894 -3 6 C-3.33 4.68 -3.66 3.36 -4 2 C-2.68 1.34 -1.36 0.68 0 0 Z " fill="#4D98EC" transform="translate(41,72)"/>
<path d="M0 0 C0.495 0.33 0.495 0.33 3 2 C2.67 3.98 2.34 5.96 2 8 C1.34 8 0.68 8 0 8 C-0.381 5.674 -0.713 3.339 -1 1 C-0.67 0.67 -0.34 0.34 0 0 Z " fill="#E5E3D6" transform="translate(101,101)"/>
<path d="M0 0 C0.33 0.66 0.66 1.32 1 2 C1.66 2 2.32 2 3 2 C2.494 4.169 2 6 1 8 C0.01 8 -0.98 8 -2 8 C-1.333 5.333 -0.667 2.667 0 0 Z " fill="#4F97ED" transform="translate(125,53)"/>
<path d="M0 0 C0.66 0 1.32 0 2 0 C3.354 2.709 3.065 5.009 3 8 C2.34 7.34 1.68 6.68 1 6 C1 5.01 1 4.02 1 3 C-0.65 3.66 -2.3 4.32 -4 5 C-3.34 4.01 -2.68 3.02 -2 2 C-1.34 2 -0.68 2 0 2 C0 1.34 0 0.68 0 0 Z " fill="#2D7FDB" transform="translate(89,99)"/>
<path d="M0 0 C0.955 2.17 1.144 3.563 0.398 5.824 C-0.359 7.568 -1.176 9.286 -2 11 C-2.33 11 -2.66 11 -3 11 C-2.67 8.03 -2.34 5.06 -2 2 C-1.34 2 -0.68 2 0 2 C0 1.34 0 0.68 0 0 Z " fill="#6DB1F5" transform="translate(110,97)"/>
<path d="M0 0 C2.448 3.673 4 6.546 4 11 C0.906 9.453 0.284 7.119 -1 4 C-0.688 1.625 -0.688 1.625 0 0 Z " fill="#2976D2" transform="translate(84,78)"/>
<path d="M0 0 C0.66 0 1.32 0 2 0 C1.718 1.46 1.424 2.918 1.125 4.375 C0.963 5.187 0.8 5.999 0.633 6.836 C0 9 0 9 -2 11 C-1.859 9.541 -1.712 8.083 -1.562 6.625 C-1.481 5.813 -1.4 5.001 -1.316 4.164 C-1 2 -1 2 0 0 Z " fill="#2163B1" transform="translate(165,66)"/>
<path d="M0 0 C0.33 0.99 0.66 1.98 1 3 C0.004 4.824 0.004 4.824 -1.438 6.688 C-1.911 7.31 -2.384 7.933 -2.871 8.574 C-3.244 9.045 -3.616 9.515 -4 10 C-4.66 9.34 -5.32 8.68 -6 8 C-4.02 5.36 -2.04 2.72 0 0 Z " fill="#1D5BA4" transform="translate(126,178)"/>
<path d="M0 0 C0.33 0.66 0.66 1.32 1 2 C0.066 4.031 -0.932 6.035 -2 8 C-2.33 7.34 -2.66 6.68 -3 6 C-2.066 3.969 -1.068 1.965 0 0 Z M-4 8 C-3.67 8.99 -3.34 9.98 -3 11 C-3.495 11.33 -3.495 11.33 -6 13 C-5.125 9.125 -5.125 9.125 -4 8 Z " fill="#C7B692" transform="translate(137,172)"/>
<path d="M0 0 C1 2 1 2 0.441 4.164 C0.151 4.976 -0.139 5.788 -0.438 6.625 C-0.725 7.442 -1.012 8.26 -1.309 9.102 C-1.537 9.728 -1.765 10.355 -2 11 C-2.33 11 -2.66 11 -3 11 C-2.886 9.541 -2.758 8.083 -2.625 6.625 C-2.555 5.813 -2.486 5.001 -2.414 4.164 C-2 2 -2 2 0 0 Z " fill="#3C83D7" transform="translate(111,83)"/>
<path d="M0 0 C0.66 0.33 1.32 0.66 2 1 C2 2.98 2 4.96 2 7 C0.35 6.67 -1.3 6.34 -3 6 C-2.01 5.34 -1.02 4.68 0 4 C-0.99 3.34 -1.98 2.68 -3 2 C-2.01 1.34 -1.02 0.68 0 0 Z " fill="#3885E0" transform="translate(83,84)"/>
<path d="M0 0 C1.32 0.33 2.64 0.66 4 1 C4 1.66 4 2.32 4 3 C3.34 3 2.68 3 2 3 C2 3.66 2 4.32 2 5 C1.34 5 0.68 5 0 5 C0 5.66 0 6.32 0 7 C-0.66 7 -1.32 7 -2 7 C-1.34 4.69 -0.68 2.38 0 0 Z " fill="#3A87E0" transform="translate(151,87)"/>
<path d="M0 0 C0.66 0.33 1.32 0.66 2 1 C1.67 3.64 1.34 6.28 1 9 C-1 6 -1 6 -0.625 2.812 C-0.419 1.884 -0.213 0.956 0 0 Z " fill="#BDB6A7" transform="translate(97,107)"/>
<path d="M0 0 C1.945 2.918 2.453 4.625 3 8 C2.67 8.165 2.67 8.165 1 9 C-1.092 4.569 -1.092 4.569 -0.625 1.688 C-0.419 1.131 -0.212 0.574 0 0 Z " fill="#F0ECDC" transform="translate(36,93)"/>
<path d="M0 0 C0.66 0 1.32 0 2 0 C0.844 3.912 -0.355 6.875 -3 10 C-2.692 8.52 -2.378 7.041 -2.062 5.562 C-1.975 5.151 -1.975 5.151 -1.535 3.066 C-1 1 -1 1 0 0 Z " fill="#72B1F6" transform="translate(128,40)"/>
<path d="M0 0 C0.928 0.206 1.856 0.413 2.812 0.625 C2.483 1.615 2.153 2.605 1.812 3.625 C-0.828 2.965 -3.468 2.305 -6.188 1.625 C-3.188 -0.375 -3.188 -0.375 0 0 Z " fill="#65A8F4" transform="translate(48.1875,35.375)"/>
<path d="M0 0 C0.99 0 1.98 0 3 0 C3.66 1.32 4.32 2.64 5 4 C4.01 4.33 3.02 4.66 2 5 C1.01 4.34 0.02 3.68 -1 3 C-0.67 2.01 -0.34 1.02 0 0 Z " fill="#549BEF" transform="translate(151,34)"/>
<path d="M0 0 C3.562 0.25 3.562 0.25 7 1 C7.33 1.66 7.66 2.32 8 3 C4.063 4.312 1.875 3.243 -2 2 C-1.34 1.34 -0.68 0.68 0 0 Z " fill="#6DAEF3" transform="translate(132,32)"/>
<path d="M0 0 C0.825 0.33 0.825 0.33 5 2 C5 2.99 5 3.98 5 5 C4.175 4.67 4.175 4.67 0 3 C0 2.01 0 1.02 0 0 Z " fill="#DCCEAE" transform="translate(78,195)"/>
<path d="M0 0 C1.392 4.176 -0.177 6.135 -2 10 C-2.33 10 -2.66 10 -3 10 C-3 8.02 -3 6.04 -3 4 C-2.34 4 -1.68 4 -1 4 C-0.67 2.68 -0.34 1.36 0 0 Z " fill="#1F5FA9" transform="translate(130,168)"/>
<path d="M0 0 C1.65 0.99 3.3 1.98 5 3 C4.34 4.65 3.68 6.3 3 8 C1.055 5.082 0.547 3.375 0 0 Z " fill="#D1CDBC" transform="translate(76,46)"/>
</svg>
