<?xml version="1.0" encoding="UTF-8"?>
<!-- Generator: visioncortex VTracer 0.6.12 -->
<svg version="1.1" xmlns="http://www.w3.org/2000/svg" width="207" height="235">
<path d="M0 0 C68.31 0 136.62 0 207 0 C207 77.55 207 155.1 207 235 C138.69 235 70.38 235 0 235 C0 157.45 0 79.9 0 0 Z " fill="#FCF4DF" transform="translate(0,0)"/>
<path d="M0 0 C6.222 4.909 8.542 11.358 10.25 18.875 C10.25 19.865 10.25 20.855 10.25 21.875 C11.24 21.545 12.23 21.215 13.25 20.875 C14.071 23.372 14.882 25.872 15.688 28.375 C15.918 29.071 16.148 29.767 16.385 30.484 C17.923 35.301 18.697 39.851 19.25 44.875 C19.58 45.865 19.91 46.855 20.25 47.875 C20.471 46.917 20.693 45.959 20.921 44.973 C21.753 41.384 22.599 37.8 23.448 34.215 C23.813 32.67 24.173 31.124 24.53 29.578 C29.478 8.168 29.478 8.168 38.25 1.875 C41.474 0.263 44.962 0.649 48.5 0.625 C48.876 0.615 48.876 0.615 50.777 0.562 C56.729 0.521 60.969 1.661 65.375 5.938 C70.706 14.289 72.742 24.032 75 33.562 C75.316 34.842 75.632 36.121 75.957 37.439 C76.106 38.06 76.106 38.06 76.859 41.199 C77.127 42.314 77.395 43.428 77.671 44.577 C78.285 48.072 78.35 51.334 78.25 54.875 C78.91 54.875 79.57 54.875 80.25 54.875 C80.348 53.741 80.446 52.606 80.547 51.438 C81.311 44.61 82.682 37.892 84.042 31.164 C84.347 29.639 84.645 28.113 84.937 26.586 C88.815 6.274 88.815 6.274 96.625 -0.188 C103.39 -3.878 111.986 -3.114 119.266 -1.426 C124.804 0.539 128.148 2.872 131.25 7.875 C132.062 11.25 132.062 11.25 132.25 13.875 C133.57 14.205 134.89 14.535 136.25 14.875 C136.25 16.855 136.25 18.835 136.25 20.875 C136.91 20.875 137.57 20.875 138.25 20.875 C139.375 28.5 139.375 28.5 138.25 31.875 C138.02 34.712 137.832 37.534 137.688 40.375 C137.666 40.761 137.666 40.761 137.557 42.715 C137.39 45.772 137.25 48.813 137.25 51.875 C136.786 53.325 136.282 54.762 135.75 56.188 C134.445 59.932 134.16 62.897 134.25 66.875 C133.899 67.741 133.549 68.608 133.188 69.5 C132.25 71.875 132.25 71.875 132.875 73.812 C133.25 75.875 133.25 75.875 131.312 78.938 C130.632 79.907 129.951 80.876 129.25 81.875 C129.25 82.865 129.25 83.855 129.25 84.875 C129.022 86.833 128.79 88.792 128.531 90.746 C128.27 92.724 128.04 94.706 127.812 96.688 C127.25 99.875 127.25 99.875 125.25 102.875 C124.828 104.862 124.481 106.865 124.188 108.875 C123.719 112.032 123.26 114.844 122.25 117.875 C122.436 118.452 122.621 119.03 122.812 119.625 C123.475 123.034 122.304 125.602 121.25 128.875 C119.361 135.319 119.361 135.319 118.75 138.375 C117.831 142.97 116.863 146.956 114.25 150.875 C114.91 151.205 115.57 151.535 116.25 151.875 C115.25 153.875 114.25 155.875 113.25 157.875 C113.91 158.205 114.57 158.535 115.25 158.875 C113.542 160.583 111.834 162.29 110.121 163.992 C108.594 165.529 107.104 167.103 105.625 168.688 C102.766 171.321 100.196 172.875 96.25 172.875 C95.59 173.535 94.93 174.195 94.25 174.875 C88.046 175.866 82.849 174.481 77.25 171.875 C76.241 170.884 75.241 169.884 74.25 168.875 C71.562 167.687 71.562 167.687 69.25 166.875 C69.25 166.215 69.25 165.555 69.25 164.875 C68.528 164.669 67.806 164.463 67.062 164.25 C63.491 162.504 61.181 160.312 59.25 156.875 C58.768 154.843 58.566 152.926 58.43 150.844 C58.172 148.022 57.24 145.514 56.25 142.875 C55.59 143.205 54.93 143.535 54.25 143.875 C53.92 141.895 53.59 139.915 53.25 137.875 C50.812 139.188 50.812 139.188 48.25 141.875 C47.76 144.686 47.625 147.367 47.586 150.219 C47.195 153.309 46.24 154.538 44.25 156.875 C43.548 158.527 42.88 160.194 42.25 161.875 C40.588 165.838 38.164 168.748 35.25 171.875 C34.26 171.875 33.27 171.875 32.25 171.875 C29.255 172.898 27.505 173.62 25.25 175.875 C21.625 176 21.625 176 18.25 175.875 C17.92 174.885 17.59 173.895 17.25 172.875 C15.93 172.875 14.61 172.875 13.25 172.875 C13.25 172.215 13.25 171.555 13.25 170.875 C12.56 170.74 11.871 170.604 11.16 170.465 C4.017 168.828 -1.697 166.34 -6.75 160.875 C-7.098 159.545 -7.43 158.212 -7.75 156.875 C-8.348 155.54 -8.971 154.216 -9.613 152.902 C-12.162 147.255 -13.542 141.458 -14.938 135.438 C-15.23 134.2 -15.523 132.962 -15.824 131.686 C-22.448 103.455 -28.243 75.011 -33.993 46.59 C-34.517 44.021 -35.05 41.455 -35.595 38.89 C-40.418 15.968 -40.418 15.968 -36.125 7.688 C-28.026 -1.903 -11.686 -6.844 0 0 Z " fill="#FB6D9B" transform="translate(55.75,34.125)"/>
<path d="M0 0 C0.33 0.165 0.33 0.165 2 1 C2 2.32 2 3.64 2 5 C2.66 5.165 2.66 5.165 6 6 C6 7.98 6 9.96 6 12 C6.66 12 7.32 12 8 12 C9.125 19.625 9.125 19.625 8 23 C7.77 25.837 7.582 28.659 7.438 31.5 C7.416 31.886 7.416 31.886 7.307 33.84 C7.14 36.897 7 39.938 7 43 C6.536 44.45 6.032 45.887 5.5 47.312 C4.195 51.057 3.91 54.022 4 58 C3.649 58.866 3.299 59.733 2.938 60.625 C2 63 2 63 2.625 64.938 C3 67 3 67 1.062 70.062 C0.382 71.032 -0.299 72.001 -1 73 C-1 73.99 -1 74.98 -1 76 C-1.228 77.958 -1.46 79.917 -1.719 81.871 C-1.98 83.849 -2.21 85.831 -2.438 87.812 C-3 91 -3 91 -5 94 C-5.422 95.987 -5.769 97.99 -6.062 100 C-6.531 103.157 -6.99 105.969 -8 109 C-7.814 109.577 -7.629 110.155 -7.438 110.75 C-6.775 114.159 -7.946 116.727 -9 120 C-10.889 126.444 -10.889 126.444 -11.5 129.5 C-12.419 134.095 -13.387 138.081 -16 142 C-15.34 142.33 -14.68 142.66 -14 143 C-15 145 -16 147 -17 149 C-16.34 149.33 -15.68 149.66 -15 150 C-16.708 151.708 -18.416 153.415 -20.129 155.117 C-21.656 156.654 -23.146 158.228 -24.625 159.812 C-27.484 162.446 -30.054 164 -34 164 C-34.66 164.66 -35.32 165.32 -36 166 C-42.204 166.991 -47.401 165.606 -53 163 C-54.009 162.009 -55.009 161.009 -56 160 C-58.687 158.813 -58.687 158.813 -61 158 C-61 157.34 -61 156.68 -61 156 C-61.722 155.794 -62.444 155.588 -63.188 155.375 C-66.759 153.629 -69.069 151.437 -71 148 C-71.482 145.968 -71.684 144.051 -71.82 141.969 C-72.078 139.147 -73.01 136.639 -74 134 C-74.66 134.33 -75.32 134.66 -76 135 C-76.33 133.02 -76.66 131.04 -77 129 C-79.438 130.312 -79.438 130.312 -82 133 C-82.49 135.811 -82.625 138.492 -82.664 141.344 C-83.055 144.434 -84.01 145.663 -86 148 C-86.702 149.652 -87.37 151.319 -88 153 C-89.662 156.963 -92.086 159.873 -95 163 C-95.99 163 -96.98 163 -98 163 C-100.995 164.023 -102.745 164.745 -105 167 C-108.625 167.125 -108.625 167.125 -112 167 C-112.33 166.01 -112.66 165.02 -113 164 C-114.32 164 -115.64 164 -117 164 C-117 163.34 -117 162.68 -117 162 C-117.69 161.865 -118.379 161.729 -119.09 161.59 C-126.233 159.953 -131.947 157.465 -137 152 C-137.348 150.67 -137.68 149.337 -138 148 C-138.598 146.665 -139.221 145.341 -139.863 144.027 C-142.412 138.38 -143.792 132.583 -145.188 126.562 C-145.334 125.944 -145.334 125.944 -146.074 122.811 C-150.345 104.608 -154.163 86.299 -158 68 C-158.088 67.583 -158.088 67.583 -158.53 65.473 C-159.673 60.025 -160.808 54.576 -161.938 49.125 C-162.081 48.435 -162.225 47.745 -162.373 47.034 C-167.163 23.966 -167.163 23.966 -167 17 C-166 19 -165 21 -164 23 C-163.34 23 -162.68 23 -162 23 C-162 23.99 -162 24.98 -162 26 C-161.34 26.33 -160.68 26.66 -160 27 C-160.033 29.018 -160.065 31.036 -160.098 33.055 C-160 35 -160 35 -159 37 C-159.021 38.134 -159.041 39.269 -159.062 40.438 C-159 44 -159 44 -157 47 C-156.422 49.129 -156.422 49.129 -155.965 51.562 C-155.795 52.442 -155.626 53.321 -155.451 54.227 C-155.282 55.142 -155.112 56.057 -154.938 57 C-154.594 58.813 -154.249 60.625 -153.902 62.438 C-153.753 63.241 -153.603 64.044 -153.449 64.871 C-153 67 -153 67 -152 70 C-152 70.99 -152 71.98 -152 73 C-151.372 75.406 -150.701 77.801 -150 80.188 C-149.809 80.842 -149.618 81.496 -149.422 82.17 C-148.951 83.781 -148.476 85.391 -148 87 C-147.505 86.835 -147.505 86.835 -145 86 C-144.34 86.33 -143.68 86.66 -143 87 C-143 87.66 -143 88.32 -143 89 C-139.134 87.959 -135.505 86.963 -132 85 C-134.667 87.667 -137.333 90.333 -140 93 C-139.505 92.67 -139.505 92.67 -137 91 C-136.835 91.33 -136.835 91.33 -136 93 C-127.549 92.014 -127.549 92.014 -124 91 C-121.058 90.172 -119.183 90 -116 90 C-116 90.66 -116 91.32 -116 92 C-116.66 92 -117.32 92 -118 92 C-118.165 92.495 -118.165 92.495 -119 95 C-119.33 94.34 -119.66 93.68 -120 93 C-120.66 93 -121.32 93 -122 93 C-122 93.66 -122 94.32 -122 95 C-122.66 95 -123.32 95 -124 95 C-123.67 95.99 -123.34 96.98 -123 98 C-123.99 98.33 -124.98 98.66 -126 99 C-125.67 99.66 -125.34 100.32 -125 101 C-125.66 101 -126.32 101 -127 101 C-127 101.66 -127 102.32 -127 103 C-128.32 103 -129.64 103 -131 103 C-131.99 103.66 -132.98 104.32 -134 105 C-136.188 105.625 -136.188 105.625 -138 106 C-138 105.34 -138 104.68 -138 104 C-140 103 -140 103 -143 103 C-143.165 102.67 -143.165 102.67 -144 101 C-143.062 98.875 -143.062 98.875 -142 97 C-142.99 97 -143.98 97 -145 97 C-144.795 98.051 -144.59 99.101 -144.379 100.184 C-141.918 112.957 -141.918 112.957 -141.375 118.312 C-141 122 -141 122 -140 125 C-139.327 127.332 -138.662 129.665 -138 132 C-137.814 132.629 -137.814 132.629 -136.875 135.812 C-136 139 -136 139 -136 141 C-135.34 141 -134.68 141 -134 141 C-133.67 140.34 -133.34 139.68 -133 139 C-133 139.66 -133 140.32 -133 141 C-131.68 140.67 -130.36 140.34 -129 140 C-128.969 139.608 -128.969 139.608 -128.812 137.625 C-128.544 136.759 -128.276 135.893 -128 135 C-126.354 134.283 -124.686 133.617 -123 133 C-121.688 130.875 -121.688 130.875 -121 129 C-120.34 129 -119.68 129 -119 129 C-118.34 127.35 -117.68 125.7 -117 124 C-115.68 124 -114.36 124 -113 124 C-113.639 124.248 -114.279 124.495 -114.938 124.75 C-117 126 -117 126 -117.75 128.125 C-117.833 128.744 -117.915 129.363 -118 130 C-116.35 129.01 -114.7 128.02 -113 127 C-113.093 127.289 -113.093 127.289 -113.562 128.75 C-114.04 131.207 -113.757 132.644 -113 135 C-113.99 135.33 -114.98 135.66 -116 136 C-114.948 135.959 -113.896 135.917 -112.812 135.875 C-109.192 135.994 -107.271 136.674 -104 138 C-101.875 137.625 -101.875 137.625 -100 137 C-99.01 137 -98.02 137 -97 137 C-97.33 137.66 -97.66 138.32 -98 139 C-98.66 139 -99.32 139 -100 139 C-100 139.66 -100 140.32 -100 141 C-100.66 141 -101.32 141 -102 141 C-102 141.66 -102 142.32 -102 143 C-104.31 143.99 -106.62 144.98 -109 146 C-104.685 145.831 -102.602 145.585 -99.453 142.523 C-96.432 138.645 -95.224 134.438 -93.938 129.75 C-93.686 128.878 -93.434 128.005 -93.174 127.106 C-91.302 120.48 -89.806 113.797 -88.407 107.058 C-87.248 101.647 -85.558 96.934 -83 92 C-82.34 92 -81.68 92 -81 92 C-81 94.97 -81 97.94 -81 101 C-80.01 101 -79.02 101 -78 101 C-78 102.32 -78 103.64 -78 105 C-77.34 105 -76.68 105 -76 105 C-74.988 109.032 -73.981 113.066 -73 117.105 C-72.835 117.779 -72.67 118.453 -72.5 119.146 C-72.164 120.518 -71.831 121.891 -71.5 123.264 C-70.583 126.984 -69.45 130.459 -68 134 C-68 134.66 -68 135.32 -68 136 C-67.34 136.33 -66.68 136.66 -66 137 C-65.773 136.402 -65.546 135.804 -65.312 135.188 C-63.662 132.436 -61.803 131.475 -59 130 C-60.32 130.33 -61.64 130.66 -63 131 C-63.33 130.01 -63.66 129.02 -64 128 C-61.69 126.35 -59.38 124.7 -57 123 C-57.33 122.01 -57.66 121.02 -58 120 C-58.66 119.67 -59.32 119.34 -60 119 C-60.66 118.67 -61.32 118.34 -62 118 C-62 117.34 -62 116.68 -62 116 C-61.34 115.67 -60.68 115.34 -60 115 C-59.835 114.505 -59.835 114.505 -59 112 C-59.66 111.835 -59.66 111.835 -63 111 C-62.67 110.34 -62.34 109.68 -62 109 C-61.505 109.165 -61.505 109.165 -59 110 C-58.67 109.34 -58.67 109.34 -57 106 C-55.35 106 -53.7 106 -52 106 C-52 106.66 -52 107.32 -52 108 C-53.65 108 -55.3 108 -57 108 C-56.34 109.32 -55.68 110.64 -55 112 C-50.618 110.685 -46.808 108.926 -42.832 106.707 C-41 106 -41 106 -38 107 C-37.67 108.65 -37.34 110.3 -37 112 C-34.506 110.796 -32.319 109.546 -30 108 C-27.813 107.375 -27.813 107.375 -26 107 C-26 106.01 -26 105.02 -26 104 C-25.34 103.67 -24.68 103.34 -24 103 C-24.083 101.928 -24.165 100.855 -24.25 99.75 C-24 96 -24 96 -22 93.562 C-21.34 93.047 -20.68 92.531 -20 92 C-20.33 91.402 -20.66 90.804 -21 90.188 C-22 88 -22 88 -22 85 C-21.34 85 -20.68 85 -20 85 C-19.67 84.34 -19.34 83.68 -19 83 C-18.34 83 -17.68 83 -17 83 C-17 82.01 -17 81.02 -17 80 C-16.34 79.67 -15.68 79.34 -15 79 C-14.248 76.659 -13.625 74.384 -13.062 71.996 C-12.889 71.28 -12.716 70.565 -12.537 69.827 C-10.849 62.68 -9.569 55.474 -8.362 48.232 C-5.079 28.552 -5.079 28.552 -2.688 19.125 C-1.082 12.75 -0.253 6.566 0 0 Z M-34 111 C-34.33 111.66 -34.66 112.32 -35 113 C-34.34 113 -33.68 113 -33 113 C-33.33 112.34 -33.66 111.68 -34 111 Z M-36 113 C-37.32 113.33 -38.64 113.66 -40 114 C-40 114.66 -40 115.32 -40 116 C-38.35 115.67 -36.7 115.34 -35 115 C-35.33 114.34 -35.66 113.68 -36 113 Z " fill="#FA6897" transform="translate(186,43)"/>
<path d="M0 0 C6.222 4.909 8.542 11.358 10.25 18.875 C10.25 19.865 10.25 20.855 10.25 21.875 C11.24 21.545 12.23 21.215 13.25 20.875 C14.071 23.372 14.882 25.872 15.688 28.375 C15.918 29.071 16.148 29.767 16.385 30.484 C17.923 35.301 18.697 39.851 19.25 44.875 C19.58 45.865 19.91 46.855 20.25 47.875 C20.471 46.917 20.693 45.959 20.921 44.973 C21.753 41.384 22.599 37.8 23.448 34.215 C23.813 32.67 24.173 31.124 24.53 29.578 C29.478 8.168 29.478 8.168 38.25 1.875 C41.474 0.263 44.962 0.649 48.5 0.625 C48.876 0.615 48.876 0.615 50.777 0.562 C55.689 0.528 58.986 1.184 63.25 3.875 C65.795 6.632 67.949 9.347 69.25 12.875 C68.91 16.241 68.232 19.467 67.562 22.781 C67.222 26.155 67.558 27.058 69.25 29.875 C69.834 31.695 70.373 33.53 70.875 35.375 C71.005 35.844 71.005 35.844 71.664 38.219 C72.25 40.875 72.25 40.875 72.25 44.875 C71.26 45.535 70.27 46.195 69.25 46.875 C69.25 47.535 69.25 48.195 69.25 48.875 C67.624 50.582 65.959 52.252 64.25 53.875 C64.91 54.865 65.57 55.855 66.25 56.875 C64.27 56.875 62.29 56.875 60.25 56.875 C61.24 59.845 62.23 62.815 63.25 65.875 C61.6 65.215 59.95 64.555 58.25 63.875 C58.085 64.37 58.085 64.37 57.25 66.875 C56.59 65.225 55.93 63.575 55.25 61.875 C53.93 62.205 52.61 62.535 51.25 62.875 C51.25 60.235 51.25 57.595 51.25 54.875 C50.92 55.04 50.92 55.04 49.25 55.875 C49.25 56.535 49.25 57.195 49.25 57.875 C48.59 58.205 48.59 58.205 45.25 59.875 C45.58 60.535 45.91 61.195 46.25 61.875 C45.92 62.535 45.59 63.195 45.25 63.875 C44.59 63.875 43.93 63.875 43.25 63.875 C43.25 63.215 43.25 62.555 43.25 61.875 C42.59 61.875 41.93 61.875 41.25 61.875 C41.25 62.535 41.25 63.195 41.25 63.875 C39.5 64.562 39.5 64.562 37.25 64.875 C35 63.437 35 63.437 33.25 61.875 C32.59 62.535 31.93 63.195 31.25 63.875 C30.755 63.71 30.755 63.71 28.25 62.875 C28.25 63.535 28.25 64.195 28.25 64.875 C28.91 64.875 29.57 64.875 30.25 64.875 C30.25 66.525 30.25 68.175 30.25 69.875 C28.27 70.205 26.29 70.535 24.25 70.875 C24.25 71.535 24.25 72.195 24.25 72.875 C19.5 73.875 19.5 73.875 17.25 73.875 C16.26 74.535 15.27 75.195 14.25 75.875 C13.92 74.225 13.59 72.575 13.25 70.875 C13.91 70.545 14.57 70.215 15.25 69.875 C13.6 69.875 11.95 69.875 10.25 69.875 C10.25 70.865 10.25 71.855 10.25 72.875 C8.938 75.563 8.938 75.563 7.25 77.875 C6.26 77.875 5.27 77.875 4.25 77.875 C4.25 78.535 4.25 79.195 4.25 79.875 C0.95 79.875 -2.35 79.875 -5.75 79.875 C-6.41 81.195 -7.07 82.515 -7.75 83.875 C-3 82 -3 82 -0.75 80.875 C-0.75 81.535 -0.75 82.195 -0.75 82.875 C-0.09 82.71 -0.09 82.71 3.25 81.875 C3.085 82.37 3.085 82.37 2.25 84.875 C2.58 85.04 2.58 85.04 4.25 85.875 C3.26 86.535 2.27 87.195 1.25 87.875 C1.58 88.535 1.91 89.195 2.25 89.875 C1.59 90.04 1.59 90.04 -1.75 90.875 C0.89 90.875 3.53 90.875 6.25 90.875 C6.085 91.37 6.085 91.37 5.25 93.875 C4.59 93.875 3.93 93.875 3.25 93.875 C3.023 94.803 2.796 95.731 2.562 96.688 C1.25 99.875 1.25 99.875 -1.125 101.812 C-4.031 102.989 -4.889 102.924 -7.75 101.875 C-8.74 101.875 -9.73 101.875 -10.75 101.875 C-9.083 100.208 -7.417 98.542 -5.75 96.875 C-6.905 97.04 -6.905 97.04 -12.75 97.875 C-12.75 97.215 -12.75 96.555 -12.75 95.875 C-13.575 96.04 -13.575 96.04 -17.75 96.875 C-23.75 81.446 -23.75 81.446 -23.75 75.875 C-24.325 71.86 -25.044 67.869 -25.75 63.875 C-25.918 62.893 -26.085 61.91 -26.258 60.898 C-26.42 60.004 -26.583 59.109 -26.75 58.188 C-26.894 57.379 -27.039 56.571 -27.188 55.738 C-27.373 55.123 -27.559 54.509 -27.75 53.875 C-28.41 53.545 -29.07 53.215 -29.75 52.875 C-29.74 52.318 -29.74 52.318 -29.688 49.5 C-29.75 45.875 -29.75 45.875 -30.75 43.875 C-30.75 41.867 -30.748 39.859 -30.719 37.852 C-30.752 35.731 -31.079 33.888 -31.75 31.875 C-32.245 32.04 -32.245 32.04 -34.75 32.875 C-35.41 31.225 -36.07 29.575 -36.75 27.875 C-37.08 27.875 -37.41 27.875 -37.75 27.875 C-38.501 10.501 -38.501 10.501 -33.75 4.875 C-25.974 -2.901 -9.949 -5.827 0 0 Z M55.25 48.875 C55.147 49.514 55.044 50.154 54.938 50.812 C54.824 51.153 54.824 51.153 54.25 52.875 C53.26 53.205 52.27 53.535 51.25 53.875 C51.91 54.205 51.91 54.205 55.25 55.875 C55.91 54.885 56.57 53.895 57.25 52.875 C56.59 51.555 55.93 50.235 55.25 48.875 Z " fill="#FC74A1" transform="translate(55.75,34.125)"/>
<path d="M0 0 C68.31 0 136.62 0 207 0 C207 77.55 207 155.1 207 235 C138.69 235 70.38 235 0 235 C0 157.45 0 79.9 0 0 Z M2 2 C1.977 31.041 1.959 60.082 1.948 89.123 C1.947 91.804 1.946 94.485 1.945 97.166 C1.945 97.832 1.945 98.499 1.944 99.185 C1.94 109.986 1.932 120.787 1.923 131.588 C1.914 142.665 1.908 153.741 1.906 164.817 C1.905 171.042 1.902 177.266 1.894 183.49 C1.888 189.342 1.885 195.194 1.887 201.046 C1.887 203.2 1.885 205.353 1.881 207.507 C1.876 210.436 1.877 213.365 1.88 216.294 C1.877 217.155 1.874 218.017 1.871 218.905 C1.886 224.772 1.886 224.772 3 227 C68.67 227 134.34 227 202 227 C203.662 223.676 203.136 219.954 203.127 216.3 C203.129 215.389 203.13 214.477 203.132 213.538 C203.136 210.465 203.133 207.391 203.129 204.318 C203.131 202.122 203.133 199.927 203.135 197.731 C203.139 191.754 203.137 185.777 203.134 179.8 C203.132 173.558 203.134 167.317 203.136 161.075 C203.138 149.921 203.135 138.766 203.129 127.611 C203.125 117.488 203.126 107.365 203.13 97.241 C203.136 85.497 203.138 73.752 203.135 62.007 C203.133 55.786 203.133 49.565 203.136 43.343 C203.139 37.497 203.137 31.65 203.131 25.804 C203.13 23.652 203.13 21.499 203.133 19.347 C203.135 16.422 203.132 13.498 203.127 10.573 C203.129 9.709 203.131 8.846 203.134 7.956 C203.114 2.114 203.114 2.114 202 1 C199.45 0.9 196.927 0.866 194.376 0.873 C193.568 0.871 192.76 0.87 191.928 0.868 C189.199 0.864 186.471 0.867 183.742 0.871 C181.795 0.869 179.847 0.867 177.9 0.865 C172.594 0.861 167.288 0.863 161.983 0.866 C156.442 0.868 150.902 0.866 145.361 0.864 C136.054 0.862 126.747 0.865 117.44 0.87 C106.666 0.875 95.892 0.873 85.118 0.868 C75.884 0.863 66.65 0.863 57.416 0.865 C51.894 0.867 46.372 0.867 40.85 0.864 C35.658 0.861 30.467 0.863 25.275 0.869 C23.365 0.87 21.455 0.87 19.545 0.867 C16.947 0.865 14.349 0.868 11.751 0.873 C11.369 0.872 11.369 0.872 9.436 0.866 C4.228 0.886 4.228 0.886 2 2 Z " fill="#FDFCF9" transform="translate(0,0)"/>
<path d="M0 0 C4.544 2.208 7.051 3.808 9.375 8.375 C9.877 16.629 7.864 24.565 5.375 32.375 C4.055 32.375 2.735 32.375 1.375 32.375 C1.375 33.365 1.375 34.355 1.375 35.375 C0.715 35.54 0.715 35.54 -2.625 36.375 C-2.955 35.715 -3.285 35.055 -3.625 34.375 C-2.684 40.155 -2.684 40.155 -1.938 42.938 C-1.551 45.955 -2.313 47.673 -3.625 50.375 C-4.285 50.375 -4.945 50.375 -5.625 50.375 C-5.955 52.025 -6.285 53.675 -6.625 55.375 C-5.305 55.705 -3.985 56.035 -2.625 56.375 C-2.625 57.035 -2.625 57.695 -2.625 58.375 C-3.285 58.375 -3.945 58.375 -4.625 58.375 C-4.109 58.767 -3.594 59.159 -3.062 59.562 C-2.825 59.862 -2.825 59.862 -1.625 61.375 C-1.938 64.062 -1.938 64.062 -2.625 66.375 C-3.285 66.375 -3.945 66.375 -4.625 66.375 C-4.625 67.035 -4.625 67.695 -4.625 68.375 C-4.295 68.705 -4.295 68.705 -2.625 70.375 C-3.285 71.035 -3.945 71.695 -4.625 72.375 C-4.75 75 -4.75 75 -4.625 77.375 C-5.615 77.705 -6.605 78.035 -7.625 78.375 C-8.615 77.715 -9.605 77.055 -10.625 76.375 C-10.625 77.035 -10.625 77.695 -10.625 78.375 C-11.285 78.375 -11.945 78.375 -12.625 78.375 C-12.955 79.035 -13.285 79.695 -13.625 80.375 C-14.285 79.055 -14.945 77.735 -15.625 76.375 C-15.955 77.035 -16.285 77.695 -16.625 78.375 C-17.285 78.375 -17.945 78.375 -18.625 78.375 C-18.625 77.715 -18.625 77.055 -18.625 76.375 C-25.271 80.56 -25.271 80.56 -27.062 84.688 C-27.248 85.574 -27.434 86.461 -27.625 87.375 C-26.965 87.705 -26.305 88.035 -25.625 88.375 C-25.955 88.705 -25.955 88.705 -27.625 90.375 C-27.893 89.571 -28.161 88.766 -28.438 87.938 C-28.829 87.092 -29.221 86.246 -29.625 85.375 C-30.615 85.045 -31.605 84.715 -32.625 84.375 C-32.295 82.725 -31.965 81.075 -31.625 79.375 C-30.305 79.375 -28.985 79.375 -27.625 79.375 C-27.46 78.88 -27.46 78.88 -26.625 76.375 C-27.615 76.375 -28.605 76.375 -29.625 76.375 C-29.625 75.715 -29.625 75.055 -29.625 74.375 C-27.125 72.75 -27.125 72.75 -24.625 71.375 C-24.955 70.055 -25.285 68.735 -25.625 67.375 C-25.13 67.21 -25.13 67.21 -22.625 66.375 C-22.625 65.715 -22.625 65.055 -22.625 64.375 C-23.12 64.21 -23.12 64.21 -25.625 63.375 C-26.079 63.87 -26.532 64.365 -27 64.875 C-28.625 66.375 -28.625 66.375 -30.625 66.375 C-30.625 67.035 -30.625 67.695 -30.625 68.375 C-31.285 68.045 -31.945 67.715 -32.625 67.375 C-33.967 67.673 -35.298 68.016 -36.625 68.375 C-38.956 68.725 -41.289 69.061 -43.625 69.375 C-43.955 68.715 -44.285 68.055 -44.625 67.375 C-43.635 67.375 -42.645 67.375 -41.625 67.375 C-41.738 66.993 -41.738 66.993 -42.312 65.062 C-42.364 64.619 -42.364 64.619 -42.625 62.375 C-42.165 61.925 -41.705 61.475 -41.231 61.012 C-38.041 57.761 -37.822 52.709 -36.938 48.375 C-36.713 47.303 -36.489 46.231 -36.258 45.126 C-34.774 37.508 -34.379 30.379 -34.643 22.648 C-34.834 15.048 -32.814 9.804 -28.75 3.438 C-21.238 -3.853 -9.368 -3.362 0 0 Z M-4.625 61.375 C-3.625 63.375 -3.625 63.375 -3.625 63.375 Z " fill="#FB719D" transform="translate(177.625,33.625)"/>
<path d="M0 0 C1 2 2 4 3 6 C3.66 6 4.32 6 5 6 C5 6.99 5 7.98 5 9 C5.66 9.33 6.32 9.66 7 10 C6.967 12.018 6.935 14.036 6.902 16.055 C7 18 7 18 8 20 C7.979 21.134 7.959 22.269 7.938 23.438 C8 27 8 27 10 30 C10.578 32.129 10.578 32.129 11.035 34.562 C11.205 35.442 11.374 36.321 11.549 37.227 C11.718 38.142 11.888 39.057 12.062 40 C12.406 41.813 12.751 43.625 13.098 45.438 C13.247 46.241 13.397 47.044 13.551 47.871 C14 50 14 50 15 53 C15 53.99 15 54.98 15 56 C15.628 58.406 16.299 60.801 17 63.188 C17.191 63.842 17.382 64.496 17.578 65.17 C18.049 66.781 18.524 68.391 19 70 C19.495 69.835 19.495 69.835 22 69 C22.66 69.33 23.32 69.66 24 70 C24 70.66 24 71.32 24 72 C27.866 70.959 31.495 69.963 35 68 C32.333 70.667 29.667 73.333 27 76 C27.495 75.67 27.495 75.67 30 74 C30.165 74.33 30.165 74.33 31 76 C39.451 75.014 39.451 75.014 43 74 C45.942 73.172 47.817 73 51 73 C51 73.66 51 74.32 51 75 C50.34 75 49.68 75 49 75 C48.835 75.495 48.835 75.495 48 78 C47.67 77.34 47.34 76.68 47 76 C46.34 76 45.68 76 45 76 C45 76.66 45 77.32 45 78 C44.34 78 43.68 78 43 78 C43.33 78.99 43.66 79.98 44 81 C43.01 81.33 42.02 81.66 41 82 C41.33 82.66 41.66 83.32 42 84 C41.34 84 40.68 84 40 84 C40 84.66 40 85.32 40 86 C38.68 86 37.36 86 36 86 C35.01 86.66 34.02 87.32 33 88 C30.813 88.625 30.813 88.625 29 89 C29 88.34 29 87.68 29 87 C27 86 27 86 24 86 C23.835 85.67 23.835 85.67 23 84 C23.938 81.875 23.938 81.875 25 80 C24.01 80 23.02 80 22 80 C22.205 81.051 22.41 82.101 22.621 83.184 C25.082 95.957 25.082 95.957 25.625 101.312 C26 105 26 105 27 108 C27.673 110.332 28.338 112.665 29 115 C29.371 116.258 29.742 117.516 30.125 118.812 C31 122 31 122 31 124 C31.66 124 32.32 124 33 124 C33.33 123.34 33.66 122.68 34 122 C34 122.66 34 123.32 34 124 C34.66 123.835 34.66 123.835 38 123 C38.031 122.608 38.031 122.608 38.188 120.625 C38.456 119.759 38.724 118.892 39 118 C40.646 117.283 42.314 116.617 44 116 C45.312 113.875 45.312 113.875 46 112 C46.66 112 47.32 112 48 112 C48.66 110.35 49.32 108.7 50 107 C51.32 107 52.64 107 54 107 C53.361 107.248 52.721 107.495 52.062 107.75 C50 109 50 109 49.25 111.125 C49.167 111.744 49.085 112.363 49 113 C50.65 112.01 52.3 111.02 54 110 C53.907 110.289 53.907 110.289 53.438 111.75 C52.96 114.207 53.243 115.644 54 118 C53.01 118.33 52.02 118.66 51 119 C52.052 118.959 53.104 118.918 54.188 118.875 C57.808 118.994 59.729 119.674 63 121 C65.125 120.625 65.125 120.625 67 120 C67.99 120 68.98 120 70 120 C69.67 120.66 69.34 121.32 69 122 C68.34 122 67.68 122 67 122 C67 122.66 67 123.32 67 124 C66.34 124 65.68 124 65 124 C65 124.66 65 125.32 65 126 C62.69 126.99 60.38 127.98 58 129 C62.315 128.831 64.398 128.585 67.547 125.523 C70.568 121.645 71.776 117.438 73.062 112.75 C73.314 111.878 73.566 111.005 73.826 110.106 C75.698 103.48 77.194 96.797 78.593 90.058 C79.752 84.647 81.442 79.934 84 75 C84.66 75 85.32 75 86 75 C86.102 75.781 86.203 76.562 86.308 77.367 C87.643 86.865 90.028 95.845 92.697 105.041 C93.007 106.143 93.317 107.244 93.637 108.379 C93.922 109.364 94.208 110.35 94.503 111.365 C95.004 114.02 94.893 115.484 94 118 C93.01 118 92.02 118 91 118 C90.67 116.02 90.34 114.04 90 112 C87.563 113.312 87.563 113.312 85 116 C84.51 118.811 84.375 121.492 84.336 124.344 C83.945 127.434 82.99 128.663 81 131 C80.298 132.652 79.63 134.319 79 136 C77.338 139.963 74.914 142.873 72 146 C71.01 146 70.02 146 69 146 C66.005 147.023 64.255 147.745 62 150 C58.375 150.125 58.375 150.125 55 150 C54.67 149.01 54.34 148.02 54 147 C52.68 147 51.36 147 50 147 C50 146.34 50 145.68 50 145 C49.31 144.865 48.621 144.729 47.91 144.59 C40.767 142.953 35.053 140.465 30 135 C29.652 133.67 29.32 132.337 29 131 C28.402 129.665 27.779 128.341 27.137 127.027 C24.588 121.38 23.208 115.583 21.812 109.562 C21.666 108.944 21.666 108.944 20.926 105.811 C16.655 87.608 12.837 69.299 9 51 C8.825 50.166 8.65 49.332 8.47 48.473 C7.327 43.025 6.192 37.576 5.062 32.125 C4.919 31.435 4.775 30.745 4.627 30.034 C-0.163 6.966 -0.163 6.966 0 0 Z " fill="#FA6E9A" transform="translate(19,60)"/>
<path d="M0 0 C1.32 0.33 2.64 0.66 4 1 C4 2.98 4 4.96 4 7 C4.66 7 5.32 7 6 7 C7.125 14.625 7.125 14.625 6 18 C5.77 20.837 5.582 23.659 5.438 26.5 C5.416 26.886 5.416 26.886 5.307 28.84 C5.14 31.897 5 34.938 5 38 C4.536 39.45 4.032 40.887 3.5 42.312 C2.195 46.057 1.91 49.022 2 53 C1.649 53.866 1.299 54.733 0.938 55.625 C0 58 0 58 0.625 59.938 C1 62 1 62 -0.938 65.062 C-1.618 66.032 -2.299 67.001 -3 68 C-3 68.99 -3 69.98 -3 71 C-3.228 72.958 -3.46 74.917 -3.719 76.871 C-3.98 78.849 -4.21 80.831 -4.438 82.812 C-5 86 -5 86 -7 89 C-7.422 90.987 -7.769 92.99 -8.062 95 C-8.531 98.157 -8.99 100.969 -10 104 C-9.814 104.577 -9.629 105.155 -9.438 105.75 C-8.775 109.159 -9.946 111.727 -11 115 C-12.889 121.444 -12.889 121.444 -13.5 124.5 C-14.419 129.095 -15.387 133.081 -18 137 C-17.34 137.33 -16.68 137.66 -16 138 C-17 140 -18 142 -19 144 C-18.34 144.33 -17.68 144.66 -17 145 C-18.708 146.708 -20.416 148.415 -22.129 150.117 C-23.656 151.654 -25.146 153.228 -26.625 154.812 C-29.484 157.446 -32.054 159 -36 159 C-36.66 159.66 -37.32 160.32 -38 161 C-44.204 161.991 -49.401 160.606 -55 158 C-56.009 157.009 -57.009 156.009 -58 155 C-60.688 153.812 -60.688 153.812 -63 153 C-63 152.34 -63 151.68 -63 151 C-63.722 150.794 -64.444 150.588 -65.188 150.375 C-68.926 148.548 -70.492 146.296 -73 143 C-72.34 142.01 -71.68 141.02 -71 140 C-70.613 140.482 -70.227 140.964 -69.828 141.461 C-69.307 142.093 -68.787 142.724 -68.25 143.375 C-67.74 144.001 -67.229 144.628 -66.703 145.273 C-62.705 149.327 -58.65 149.327 -53.219 149.42 C-52.729 149.423 -52.729 149.423 -50.25 149.438 C-49.768 149.454 -49.768 149.454 -47.328 149.537 C-40.612 149.587 -36.135 148.439 -31 144 C-19.823 131.024 -19.083 105.013 -15.762 88.629 C-14.192 80.886 -12.547 73.159 -10.875 65.438 C-8.305 53.543 -5.87 41.625 -3.535 29.682 C-3.183 27.916 -2.817 26.153 -2.438 24.392 C-1.261 18.868 -0.615 13.515 -0.375 7.875 C-0.336 7.109 -0.298 6.344 -0.258 5.555 C-0.165 3.703 -0.082 1.852 0 0 Z " fill="#E5CFAD" transform="translate(188,48)"/>
<path d="M0 0 C2.386 1.782 3.418 3.128 5.125 5.688 C5.461 8.465 5.461 8.465 5.5 11.625 C5.528 12.665 5.557 13.706 5.586 14.777 C5.025 18.318 3.849 19.454 1.125 21.688 C2.115 22.017 3.105 22.347 4.125 22.688 C4.455 22.028 4.785 21.367 5.125 20.688 C5.29 21.513 5.29 21.513 6.125 25.688 C5.465 25.688 4.805 25.688 4.125 25.688 C4.125 25.028 4.125 24.367 4.125 23.688 C3.795 23.852 3.795 23.852 2.125 24.688 C2.125 25.677 2.125 26.668 2.125 27.688 C1.465 27.688 0.805 27.688 0.125 27.688 C0.125 28.347 0.125 29.008 0.125 29.688 C-1.195 29.688 -2.515 29.688 -3.875 29.688 C-3.875 30.347 -3.875 31.007 -3.875 31.688 C-2.555 32.017 -1.235 32.347 0.125 32.688 C-1.855 32.688 -3.835 32.688 -5.875 32.688 C-5.875 33.347 -5.875 34.007 -5.875 34.688 C-4.225 34.688 -2.575 34.688 -0.875 34.688 C-0.545 35.678 -0.215 36.667 0.125 37.688 C0.785 38.347 1.445 39.007 2.125 39.688 C0.805 40.678 -0.515 41.667 -1.875 42.688 C-2.04 41.532 -2.04 41.532 -2.875 35.688 C-4.525 35.358 -6.175 35.028 -7.875 34.688 C-7.875 35.678 -7.875 36.667 -7.875 37.688 C-10.185 38.347 -12.495 39.007 -14.875 39.688 C-14.545 38.697 -14.215 37.708 -13.875 36.688 C-14.04 36.523 -14.04 36.523 -14.875 35.688 C-15.37 35.852 -15.37 35.852 -17.875 36.688 C-17.875 37.347 -17.875 38.007 -17.875 38.688 C-17.215 39.017 -16.555 39.347 -15.875 39.688 C-16.205 40.347 -16.535 41.007 -16.875 41.688 C-16.297 41.337 -15.72 40.986 -15.125 40.625 C-12.517 39.538 -11.481 39.757 -8.875 40.688 C-9.989 41.038 -11.102 41.389 -12.25 41.75 C-14.184 42.555 -14.184 42.555 -15.875 43.688 C-17.312 47.375 -17.312 47.375 -17.875 50.688 C-19.855 50.688 -21.835 50.688 -23.875 50.688 C-23.875 50.028 -23.875 49.368 -23.875 48.688 C-24.535 48.358 -25.195 48.028 -25.875 47.688 C-25.524 47.172 -25.174 46.656 -24.812 46.125 C-23.513 42.747 -24.203 40.183 -24.875 36.688 C-25.535 37.513 -25.535 37.513 -28.875 41.688 C-28.215 42.017 -27.555 42.347 -26.875 42.688 C-26.875 43.347 -26.875 44.007 -26.875 44.688 C-27.37 44.852 -27.37 44.852 -29.875 45.688 C-31.216 43.006 -30.887 40.603 -30.844 37.664 C-30.877 35.543 -31.204 33.7 -31.875 31.688 C-32.37 31.852 -32.37 31.852 -34.875 32.688 C-35.535 31.037 -36.195 29.388 -36.875 27.688 C-37.205 27.688 -37.535 27.688 -37.875 27.688 C-38.626 10.314 -38.626 10.314 -33.875 4.688 C-26.028 -3.159 -9.924 -6.046 0 0 Z " fill="#FB7BA6" transform="translate(55.875,34.3125)"/>
<path d="M0 0 C0.33 0.165 0.33 0.165 2 1 C2.718 16.022 0.973 29.645 -2.208 44.312 C-3.052 48.244 -3.854 52.183 -4.645 56.125 C-7.99 72.742 -11.583 89.292 -15.375 105.812 C-16.426 110.407 -17.429 115.007 -18.375 119.625 C-23.676 145.477 -23.676 145.477 -30.062 151.125 C-36.268 155.086 -40.579 155.365 -47.875 155.375 C-48.856 155.399 -49.837 155.424 -50.848 155.449 C-57.746 155.477 -61.494 154.327 -66.609 149.473 C-69.045 146.462 -71.009 143.765 -72 140 C-71.625 137.688 -71.625 137.688 -71 136 C-70.67 137.155 -70.67 137.155 -69 143 C-66.03 143 -63.06 143 -60 143 C-59.67 144.32 -59.34 145.64 -59 147 C-57.04 146.745 -55.082 146.471 -53.125 146.188 C-52.034 146.037 -50.944 145.886 -49.82 145.73 C-47 145 -47 145 -45 142 C-44.34 142 -43.68 142 -43 142 C-43 142.66 -43 143.32 -43 144 C-40.312 144.312 -40.312 144.312 -37 144 C-32.499 140.215 -29.943 136.814 -29 131 C-28.34 131 -27.68 131 -27 131 C-26.34 126.71 -25.68 122.42 -25 118 C-24.34 118 -23.68 118 -23 118 C-23.041 117.257 -23.083 116.515 -23.125 115.75 C-23 113 -23 113 -22.064 111.173 C-20.81 108.613 -20.355 106.289 -19.852 103.484 C-19.653 102.406 -19.454 101.327 -19.25 100.216 C-19.043 99.072 -18.837 97.928 -18.625 96.75 C-17.223 89.2 -15.808 81.684 -13.875 74.25 C-10.764 62.254 -8.522 50.27 -6.557 38.044 C-5.43 31.173 -3.997 24.455 -2.298 17.706 C-0.86 11.831 -0.233 6.034 0 0 Z " fill="#CD5D6A" transform="translate(186,43)"/>
<path d="M0 0 C2.144 1.371 2.768 2.682 3.637 5.047 C3.262 7.297 3.262 7.297 2.637 9.047 C0.987 9.377 -0.663 9.707 -2.363 10.047 C-2.363 12.027 -2.363 14.007 -2.363 16.047 C-3.023 16.047 -3.683 16.047 -4.363 16.047 C-4.652 16.975 -4.941 17.903 -5.238 18.859 C-6.363 22.047 -6.363 22.047 -8.363 25.047 C-9.023 25.047 -9.683 25.047 -10.363 25.047 C-10.363 22.047 -10.363 19.047 -10.363 16.047 C-9.043 15.387 -7.723 14.727 -6.363 14.047 C-9.567 14.047 -11.457 14.79 -14.363 16.047 C-14.033 17.037 -13.703 18.027 -13.363 19.047 C-13.693 19.707 -14.023 20.367 -14.363 21.047 C-17.921 20.437 -21.046 19.469 -24.363 18.047 C-24.363 18.707 -24.363 19.367 -24.363 20.047 C-22.713 20.377 -21.063 20.707 -19.363 21.047 C-20.353 21.377 -21.343 21.707 -22.363 22.047 C-22.363 22.707 -22.363 23.367 -22.363 24.047 C-23.353 24.377 -24.343 24.707 -25.363 25.047 C-25.631 25.872 -25.9 26.697 -26.176 27.547 C-26.568 28.372 -26.96 29.197 -27.363 30.047 C-30.488 30.859 -30.488 30.859 -33.363 31.047 C-33.438 34.389 -33.429 36.85 -32.363 40.047 C-32.693 40.707 -33.023 41.367 -33.363 42.047 C-34.023 42.047 -34.683 42.047 -35.363 42.047 C-35.157 42.666 -34.951 43.284 -34.738 43.922 C-34.615 44.623 -34.491 45.324 -34.363 46.047 C-35.023 46.707 -35.683 47.367 -36.363 48.047 C-36.988 50.596 -37.522 53.094 -37.988 55.672 C-38.122 56.378 -38.256 57.085 -38.395 57.812 C-38.724 59.556 -39.045 61.301 -39.363 63.047 C-40.188 63.212 -40.188 63.212 -44.363 64.047 C-44.213 63.756 -44.213 63.756 -43.453 62.281 C-37.825 50.743 -36.105 37.858 -36.426 25.172 C-36.628 16.459 -35.215 10.515 -30.488 3.109 C-22.519 -4.626 -9.843 -3.375 0 0 Z " fill="#FB7EA6" transform="translate(179.36328125,33.953125)"/>
<path d="M0 0 C0.66 0.33 1.32 0.66 2 1 C1.376 1.674 0.752 2.348 0.109 3.043 C-2.351 6.493 -2.975 9.167 -3.75 13.312 C-3.992 14.567 -4.235 15.821 -4.484 17.113 C-4.655 18.066 -4.825 19.019 -5 20 C-4.34 20 -3.68 20 -3 20 C-2.897 19.464 -2.794 18.927 -2.688 18.375 C-1.79 15.274 -0.71 12.748 1 10 C3.5 9.312 3.5 9.312 6 9 C7.812 7.437 7.812 7.437 9 6 C9.165 6.33 9.165 6.33 10 8 C10.887 7.67 11.774 7.34 12.688 7 C15.709 6.088 17.884 5.817 21 6 C21 8.333 21 10.667 21 13 C21.99 12.67 22.98 12.34 24 12 C24 12.66 24 13.32 24 14 C22.68 14 21.36 14 20 14 C19.67 16.31 19.34 18.62 19 21 C19.598 21.289 20.196 21.578 20.812 21.875 C23 23 23 23 26 25 C23.924 25.553 22.156 26 20 26 C19.402 26.165 18.804 26.33 18.188 26.5 C15.735 27.061 13.508 27.07 11 27 C11.33 26.34 11.66 25.68 12 25 C11.34 24.67 10.68 24.34 10 24 C10 24.66 10 25.32 10 26 C9.34 25.67 8.68 25.34 8 25 C8 23 8 23 9.312 21.375 C11 20 11 20 14 20 C14 19.34 14 18.68 14 18 C15.5 16.375 15.5 16.375 17 15 C15.062 15.375 15.062 15.375 13 16 C12.67 16.66 12.34 17.32 12 18 C11.67 16.35 11.34 14.7 11 13 C10.691 13.928 10.381 14.856 10.062 15.812 C9.375 17.875 8.688 19.938 8 22 C7.34 21.67 6.68 21.34 6 21 C5.67 21.66 5.34 22.32 5 23 C2.374 24.575 1.129 25 -2 25 C-1.67 23.68 -1.34 22.36 -1 21 C-1.66 21 -2.32 21 -3 21 C-3 23.97 -3 26.94 -3 30 C-3.66 29.67 -4.32 29.34 -5 29 C-5 27.02 -5 25.04 -5 23 C-5.66 23 -6.32 23 -7 23 C-6.808 23.706 -6.616 24.413 -6.418 25.141 C-5.936 28.435 -6.403 30.562 -7.312 33.75 C-7.577 34.714 -7.841 35.678 -8.113 36.672 C-9 39 -9 39 -11 40 C-11.801 42.857 -12.497 45.667 -13.125 48.562 C-13.307 49.369 -13.489 50.175 -13.676 51.006 C-14.125 53.002 -14.563 55.001 -15 57 C-15.99 57.165 -15.99 57.165 -21 58 C-22.433 53.32 -23.333 48.863 -24 44 C-24.33 43.34 -24.66 42.68 -25 42 C-25.182 40.518 -25.321 39.031 -25.438 37.543 C-25.943 32.05 -26.915 26.717 -28 21.312 C-31.308 4.616 -31.308 4.616 -30 2 C-27.386 7.362 -25.508 12.034 -25 18 C-24.01 17.67 -23.02 17.34 -22 17 C-21.179 19.497 -20.368 21.997 -19.562 24.5 C-19.332 25.196 -19.102 25.892 -18.865 26.609 C-17.327 31.426 -16.553 35.976 -16 41 C-15.67 41.99 -15.34 42.98 -15 44 C-14.779 43.042 -14.557 42.084 -14.329 41.098 C-13.497 37.509 -12.651 33.925 -11.802 30.34 C-11.437 28.795 -11.077 27.249 -10.72 25.703 C-6.116 5.783 -6.116 5.783 0 0 Z " fill="#FB77A1" transform="translate(91,38)"/>
<path d="M0 0 C0.33 0 0.66 0 1 0 C2.11 12.551 1.964 24.529 0 37 C-0.33 37.33 -0.66 37.66 -1 38 C-1.261 39.38 -1.467 40.771 -1.648 42.164 C-1.765 43.032 -1.882 43.9 -2.002 44.795 C-2.064 45.262 -2.064 45.262 -2.375 47.625 C-5.305 68.961 -5.305 68.961 -8 76.973 C-9.097 80.294 -9.782 83.564 -10.438 87 C-10.696 88.337 -10.955 89.675 -11.215 91.012 C-11.345 91.681 -11.475 92.351 -11.609 93.041 C-12.195 95.974 -12.851 98.892 -13.5 101.812 C-14.695 107.29 -15.628 112.777 -16.5 118.312 C-17.365 123.758 -18.349 128.892 -20.328 134.062 C-21.075 136.218 -21.433 138.315 -21.812 140.562 C-23.194 147.191 -27.43 152.291 -33 156 C-39.909 159.223 -45.948 157.339 -52.961 155.238 C-55.741 154.105 -57.199 153.351 -59 151 C-59 150.67 -59 150.34 -59 150 C-58.436 149.996 -57.872 149.992 -57.291 149.988 C-54.693 149.954 -52.097 149.884 -49.5 149.812 C-49.057 149.81 -49.057 149.81 -46.812 149.795 C-40.359 149.581 -35.978 148.19 -31 144 C-19.823 131.024 -19.083 105.013 -15.762 88.629 C-14.192 80.886 -12.547 73.159 -10.875 65.438 C-8.305 53.543 -5.87 41.625 -3.535 29.682 C-3.183 27.916 -2.817 26.153 -2.438 24.392 C-1.261 18.868 -0.615 13.515 -0.375 7.875 C-0.336 7.109 -0.298 6.344 -0.258 5.555 C-0.165 3.703 -0.082 1.852 0 0 Z " fill="#CCAD86" transform="translate(188,48)"/>
<path d="M0 0 C2.833 2.833 3.307 6.161 4.25 9.938 C4.349 10.302 4.349 10.302 4.852 12.146 C5.339 14.074 5.679 16.038 6 18 C5.34 18.99 4.68 19.98 4 21 C3.835 20.01 3.835 20.01 3 15 C0.562 16.312 0.562 16.312 -2 19 C-2.49 21.811 -2.625 24.492 -2.664 27.344 C-3.055 30.434 -4.01 31.663 -6 34 C-6.702 35.652 -7.37 37.319 -8 39 C-9.662 42.963 -12.086 45.873 -15 49 C-15.99 49 -16.98 49 -18 49 C-20.995 50.023 -22.745 50.745 -25 53 C-28.625 53.125 -28.625 53.125 -32 53 C-32.33 52.01 -32.66 51.02 -33 50 C-34.32 50 -35.64 50 -37 50 C-37 49.34 -37 48.68 -37 48 C-37.69 47.865 -38.379 47.729 -39.09 47.59 C-46.505 45.891 -51.368 43.075 -57 38 C-56.34 37.34 -55.68 36.68 -55 36 C-54.443 36.32 -54.443 36.32 -51.625 37.938 C-43.727 42.472 -33.588 42.382 -24.762 40.199 C-18.33 37.359 -15.86 33.282 -13 27 C-11.501 22.74 -10.382 18.388 -9.24 14.021 C-6.947 5.747 -6.947 5.747 -3 3 C-2.01 3 -1.02 3 0 3 C0 2.01 0 1.02 0 0 Z " fill="#CAAB86" transform="translate(106,157)"/>
<path d="M0 0 C0.743 -0.012 1.485 -0.023 2.25 -0.035 C7.097 -0.009 10.418 0.741 14.625 3.375 C17.171 6.133 19.323 8.847 20.625 12.375 C20.348 15.539 20.348 15.539 19.688 19 C18.528 25.181 18.528 25.181 19.625 27.375 C17.975 29.355 16.325 31.335 14.625 33.375 C15.285 34.035 15.945 34.695 16.625 35.375 C15.002 37.084 13.332 38.749 11.625 40.375 C10.965 40.375 10.305 40.375 9.625 40.375 C9.295 39.385 8.965 38.395 8.625 37.375 C7.635 37.375 6.645 37.375 5.625 37.375 C4.965 38.365 4.305 39.355 3.625 40.375 C3.13 40.21 3.13 40.21 0.625 39.375 C0.295 38.385 -0.035 37.395 -0.375 36.375 C0.285 36.21 0.285 36.21 3.625 35.375 C2.965 34.055 2.305 32.735 1.625 31.375 C2.244 31.086 2.862 30.797 3.5 30.5 C5.625 29.375 5.625 29.375 7.625 27.375 C8.285 27.375 8.945 27.375 9.625 27.375 C8.305 26.385 6.985 25.395 5.625 24.375 C5.955 22.065 6.285 19.755 6.625 17.375 C7.945 17.375 9.265 17.375 10.625 17.375 C9.635 17.045 8.645 16.715 7.625 16.375 C6.875 14.438 6.875 14.438 6.625 12.375 C6.955 11.715 7.285 11.055 7.625 10.375 C7.245 10.417 7.245 10.417 5.324 10.629 C4.33 10.731 3.336 10.833 2.312 10.938 C1.326 11.042 0.34 11.146 -0.676 11.254 C-3.375 11.375 -3.375 11.375 -6.375 10.375 C-6.705 11.365 -7.035 12.355 -7.375 13.375 C-9.025 13.375 -10.675 13.375 -12.375 13.375 C-12.664 14.282 -12.953 15.19 -13.25 16.125 C-14.14 18.697 -15.09 20.988 -16.375 23.375 C-17.035 23.375 -17.695 23.375 -18.375 23.375 C-18.844 15.868 -16.773 9.532 -12.375 3.375 C-8.77 -0.319 -4.863 -0.075 0 0 Z " fill="#FC7AA4" transform="translate(104.375,34.625)"/>
<path d="M0 0 C0.66 0 1.32 0 2 0 C2.102 0.781 2.203 1.562 2.308 2.367 C3.643 11.865 6.028 20.845 8.697 30.041 C9.007 31.143 9.317 32.244 9.637 33.379 C9.78 33.872 9.78 33.872 10.503 36.365 C11.004 39.02 10.893 40.484 10 43 C7.531 36.768 5.681 30.487 4 24 C0.839 25.37 0.007 25.989 -2 29 C-2.66 29.66 -3.32 30.32 -4 31 C-4.698 32.936 -4.698 32.936 -5.332 35.289 C-5.574 36.149 -5.815 37.009 -6.064 37.895 C-6.556 39.69 -7.043 41.487 -7.525 43.285 C-9.43 50.013 -11.797 56.06 -17.043 60.875 C-22.749 63.868 -27.91 64.449 -34.25 64.5 C-34.634 64.503 -34.634 64.503 -36.579 64.52 C-44.439 64.342 -49.253 61.062 -55 56 C-54.67 55.01 -54.34 54.02 -54 53 C-53.691 53.402 -53.691 53.402 -52.125 55.438 C-48.437 59.222 -44.045 58.798 -39 59 C-40.65 58.505 -40.65 58.505 -49 56 C-49 55.34 -49 54.68 -49 54 C-48.429 54.158 -47.859 54.317 -47.271 54.48 C-45.028 54.994 -42.967 55.202 -40.672 55.316 C-40.272 55.337 -40.272 55.337 -38.25 55.443 C-37.425 55.483 -36.6 55.522 -35.75 55.562 C-35.33 55.584 -35.33 55.584 -33.203 55.693 C-31.136 55.799 -29.068 55.9 -27 56 C-26.67 55.34 -26.34 54.68 -26 54 C-24.927 53.917 -23.855 53.835 -22.75 53.75 C-18.732 52.946 -17.632 52.041 -15.173 48.882 C-13.013 45.418 -12.011 41.661 -10.938 37.75 C-10.686 36.878 -10.434 36.005 -10.174 35.106 C-8.302 28.48 -6.806 21.797 -5.407 15.058 C-4.248 9.647 -2.558 4.934 0 0 Z " fill="#D7546F" transform="translate(103,135)"/>
<path d="M0 0 C0.366 0.005 0.366 0.005 2.217 0.027 C3.999 0.051 5.781 0.086 7.562 0.125 C7.562 0.785 7.562 1.445 7.562 2.125 C9.542 3.115 11.523 4.105 13.562 5.125 C10.938 10 10.938 10 7.562 11.125 C6.903 10.795 6.242 10.465 5.562 10.125 C5.562 9.465 5.562 8.805 5.562 8.125 C4.634 8.455 3.706 8.785 2.75 9.125 C-0.438 10.125 -0.438 10.125 -3.438 10.125 C-4.427 10.311 -5.418 10.496 -6.438 10.688 C-9.438 11.125 -9.438 11.125 -12.438 10.125 C-13.428 12.105 -14.418 14.085 -15.438 16.125 C-16.098 16.125 -16.758 16.125 -17.438 16.125 C-17.767 17.445 -18.098 18.765 -18.438 20.125 C-17.777 20.455 -17.117 20.785 -16.438 21.125 C-16.767 23.435 -17.098 25.745 -17.438 28.125 C-16.447 27.795 -15.457 27.465 -14.438 27.125 C-14.108 26.465 -13.777 25.805 -13.438 25.125 C-13.108 26.115 -12.777 27.105 -12.438 28.125 C-13.771 29.458 -15.104 30.792 -16.438 32.125 C-16.108 33.115 -15.777 34.105 -15.438 35.125 C-14.447 35.125 -13.457 35.125 -12.438 35.125 C-12.438 34.465 -12.438 33.805 -12.438 33.125 C-10.788 33.455 -9.138 33.785 -7.438 34.125 C-7.438 34.785 -7.438 35.445 -7.438 36.125 C-9.104 36.458 -10.771 36.792 -12.438 37.125 C-13.324 37.331 -14.211 37.537 -15.125 37.75 C-17.438 38.125 -17.438 38.125 -19.438 37.125 C-19.438 36.135 -19.438 35.145 -19.438 34.125 C-19.933 34.29 -19.933 34.29 -22.438 35.125 C-23.098 33.475 -23.758 31.825 -24.438 30.125 C-24.767 30.125 -25.098 30.125 -25.438 30.125 C-26.188 12.751 -26.188 12.751 -21.438 7.125 C-15.088 0.776 -8.583 -0.204 0 0 Z " fill="#FC86AD" transform="translate(43.4375,31.875)"/>
<path d="M0 0 C0.33 0 0.66 0 1 0 C-1.995 38.337 -1.995 38.337 -13.062 48.125 C-19.268 52.086 -23.579 52.365 -30.875 52.375 C-31.856 52.399 -32.837 52.424 -33.848 52.449 C-40.746 52.477 -44.494 51.327 -49.609 46.473 C-52.045 43.462 -54.009 40.765 -55 37 C-54.625 34.688 -54.625 34.688 -54 33 C-53.34 35.31 -52.68 37.62 -52 40 C-49.03 40 -46.06 40 -43 40 C-42.34 41.32 -41.68 42.64 -41 44 C-37.625 44.117 -34.251 44.187 -30.875 44.25 C-29.924 44.284 -28.972 44.317 -27.992 44.352 C-21.963 44.435 -18.59 44.014 -14 40 C-12.977 38.684 -11.969 37.356 -11 36 C-10.34 36 -9.68 36 -9 36 C-6.52 28.213 -4.611 20.344 -2.812 12.375 C-2.54 11.18 -2.267 9.985 -1.986 8.754 C-1.321 5.837 -0.659 2.919 0 0 Z " fill="#B74D57" transform="translate(169,146)"/>
<path d="M0 0 C0.33 0 0.66 0 1 0 C1.35 7.427 0.024 14.348 -1.375 21.625 C-1.486 22.226 -1.486 22.226 -2.047 25.266 C-3.066 30.674 -4.216 35.788 -6 41 C-6.514 43.326 -6.991 45.66 -7.438 48 C-7.696 49.337 -7.955 50.675 -8.215 52.012 C-8.28 52.346 -8.28 52.346 -8.609 54.041 C-9.195 56.974 -9.851 59.892 -10.5 62.812 C-11.695 68.29 -12.628 73.777 -13.5 79.312 C-14.365 84.758 -15.349 89.892 -17.328 95.062 C-18.075 97.218 -18.433 99.315 -18.812 101.562 C-20.194 108.191 -24.43 113.291 -30 117 C-36.909 120.223 -42.948 118.339 -49.961 116.238 C-52.743 115.105 -54.152 114.306 -56 112 C-53.559 110.78 -52.309 111.002 -49.605 111.227 C-49.169 111.257 -49.169 111.257 -46.959 111.414 C-45.122 111.554 -43.286 111.702 -41.451 111.859 C-36.399 112.201 -33.085 112.407 -29 109 C-20.599 100.394 -18.803 89.618 -16.463 78.229 C-15.684 74.477 -14.837 70.74 -14 67 C-9.031 44.724 -4.4 22.395 0 0 Z " fill="#D5B994" transform="translate(185,87)"/>
<path d="M0 0 C2.802 2.386 3.699 4.484 4.688 8 C4.939 8.866 5.19 9.733 5.449 10.625 C6 13 6 13 6 16 C6.99 15.67 7.98 15.34 9 15 C12.381 24.719 14.804 33.601 15 44 C15.66 44 16.32 44 17 44 C16.67 47.63 16.34 51.26 16 55 C15.01 55.165 15.01 55.165 10 56 C8.567 51.32 7.667 46.863 7 42 C6.67 41.34 6.34 40.68 6 40 C5.818 38.518 5.679 37.031 5.562 35.543 C5.057 30.05 4.085 24.717 3 19.312 C0 4.171 0 4.171 0 0 Z " fill="#F26087" transform="translate(60,40)"/>
<path d="M0 0 C2.392 2.392 2.676 3.678 3 7 C2.34 7.99 1.68 8.98 1 10 C0.835 9.01 0.835 9.01 0 4 C-2.438 5.312 -2.438 5.312 -5 8 C-5.49 10.811 -5.625 13.492 -5.664 16.344 C-6.055 19.434 -7.01 20.663 -9 23 C-9.702 24.652 -10.37 26.319 -11 28 C-12.662 31.963 -15.086 34.873 -18 38 C-18.99 38 -19.98 38 -21 38 C-23.995 39.023 -25.745 39.745 -28 42 C-31.625 42.125 -31.625 42.125 -35 42 C-35.33 41.01 -35.66 40.02 -36 39 C-37.32 39 -38.64 39 -40 39 C-40 38.34 -40 37.68 -40 37 C-40.69 36.865 -41.379 36.729 -42.09 36.59 C-49.505 34.891 -54.368 32.075 -60 27 C-59.34 26.34 -58.68 25.68 -58 25 C-56.969 25.619 -55.938 26.238 -54.875 26.875 C-51.681 28.715 -48.507 29.858 -45 31 C-44.34 31.66 -43.68 32.32 -43 33 C-35.404 35.505 -28.237 34.144 -21.031 31.168 C-19 30 -19 30 -17 27 C-16.34 27 -15.68 27 -15 27 C-15 26.34 -15 25.68 -15 25 C-14.34 25 -13.68 25 -13 25 C-12.86 24.422 -12.719 23.844 -12.575 23.248 C-11.645 19.612 -10.489 16.063 -9.312 12.5 C-9.081 11.741 -8.85 10.981 -8.611 10.199 C-6.812 4.833 -5.028 2.644 0 0 Z " fill="#E4CBAA" transform="translate(109,168)"/>
<path d="M0 0 C1 2 2 4 3 6 C3.66 6 4.32 6 5 6 C5 6.99 5 7.98 5 9 C5.66 9.33 6.32 9.66 7 10 C6.967 12.018 6.935 14.036 6.902 16.055 C7 18 7 18 8 20 C7.979 21.134 7.959 22.269 7.938 23.438 C8 27 8 27 10 30 C10.578 32.129 10.578 32.129 11.035 34.562 C11.205 35.442 11.374 36.321 11.549 37.227 C11.718 38.142 11.888 39.057 12.062 40 C12.406 41.813 12.751 43.625 13.098 45.438 C13.247 46.241 13.397 47.044 13.551 47.871 C14 50 14 50 15 53 C15 53.99 15 54.98 15 56 C15.306 57.734 15.642 59.463 16 61.188 C16.186 62.089 16.371 62.99 16.562 63.918 C16.707 64.605 16.851 65.292 17 66 C16.34 66 15.68 66 15 66 C15.182 66.681 15.364 67.361 15.551 68.062 C17.114 74.091 18.498 80.138 19.688 86.25 C19.939 87.534 20.19 88.818 20.449 90.141 C21.028 94.196 21.095 97.913 21 102 C20.67 102 20.34 102 20 102 C16.014 84.399 12.041 66.811 8.73 49.068 C7.385 41.89 5.892 34.755 4.312 27.625 C-0.146 7.441 -0.146 7.441 0 0 Z " fill="#F76B96" transform="translate(19,60)"/>
<path d="M0 0 C2.144 1.371 2.768 2.682 3.637 5.047 C3.262 7.297 3.262 7.297 2.637 9.047 C-0.363 9.047 -0.363 9.047 -2.363 8.047 C-2.363 7.387 -2.363 6.727 -2.363 6.047 C-3.271 6.294 -4.178 6.542 -5.113 6.797 C-8.363 7.047 -8.363 7.047 -10.738 5.109 C-11.275 4.429 -11.811 3.748 -12.363 3.047 C-13.023 4.367 -13.683 5.687 -14.363 7.047 C-15.085 6.944 -15.807 6.841 -16.551 6.734 C-19.363 7.047 -19.363 7.047 -21.738 9.422 C-24.973 12.657 -26.976 13.101 -31.363 14.047 C-32.822 6.873 -32.822 6.873 -30.801 3.234 C-22.355 -4.345 -10.239 -3.51 0 0 Z " fill="#FC8EB1" transform="translate(179.36328125,33.953125)"/>
<path d="M0 0 C0.66 0 1.32 0 2 0 C2.147 0.828 2.294 1.655 2.445 2.508 C4.171 11.693 6.457 20.62 9.106 29.584 C9.235 30.037 9.235 30.037 9.891 32.324 C10.009 32.727 10.009 32.727 10.61 34.764 C11.033 37.188 10.771 38.686 10 41 C7.531 34.768 5.681 28.487 4 22 C0.839 23.37 0.007 23.989 -2 27 C-2.66 27.66 -3.32 28.32 -4 29 C-4.698 30.936 -4.698 30.936 -5.332 33.289 C-5.574 34.149 -5.815 35.009 -6.064 35.895 C-6.556 37.69 -7.043 39.487 -7.525 41.285 C-9.584 48.557 -11.824 55.557 -18.719 59.484 C-23.292 61.44 -27.596 61.458 -32.5 61.25 C-33.322 61.232 -34.145 61.214 -34.992 61.195 C-36.995 61.149 -38.998 61.077 -41 61 C-41 60.67 -41 60.34 -41 60 C-40.547 59.981 -40.547 59.981 -38.254 59.887 C-21.754 58.996 -21.754 58.996 -15.91 54.332 C-13.473 51.356 -12.654 48.687 -11.562 45 C-11.356 44.312 -11.15 43.623 -10.938 42.914 C-9.016 36.361 -7.367 29.734 -5.787 23.092 C-4.638 18.305 -3.287 13.67 -1.64 9.029 C-0.697 6.039 -0.331 3.113 0 0 Z " fill="#984240" transform="translate(103,137)"/>
<path d="M0 0 C0.99 0.33 1.98 0.66 3 1 C3 2.98 3 4.96 3 7 C3.66 7 4.32 7 5 7 C6.125 14.625 6.125 14.625 5 18 C4.77 20.837 4.582 23.659 4.438 26.5 C4.394 27.272 4.351 28.044 4.307 28.84 C4.14 31.897 4 34.938 4 38 C3.536 39.45 3.032 40.887 2.5 42.312 C1.195 46.057 0.91 49.022 1 53 C0.649 53.866 0.299 54.733 -0.062 55.625 C-1 58 -1 58 -0.375 59.938 C0 62 0 62 -1.875 65.25 C-2.226 65.704 -2.226 65.704 -4 68 C-4.33 68 -4.66 68 -5 68 C-5.169 63.531 -4.988 59.533 -4.094 55.148 C-2.772 48.121 -2.054 41.051 -1.375 33.938 C-1.309 33.26 -1.243 32.583 -1.175 31.884 C-0.148 21.239 0.396 10.696 0 0 Z " fill="#E9D4B2" transform="translate(189,48)"/>
<path d="M0 0 C0.66 0.33 1.32 0.66 2 1 C0.697 9.976 -0.866 18.886 -2.604 27.786 C-3.003 29.827 -3.396 31.87 -3.789 33.912 C-5.03 40.321 -6.319 46.69 -8 53 C-8.66 52.67 -9.32 52.34 -10 52 C-10.625 49.438 -10.625 49.438 -11 47 C-10.505 46.835 -10.505 46.835 -8 46 C-8.33 44.02 -8.66 42.04 -9 40 C-8.67 39.835 -8.67 39.835 -7 39 C-7.66 38.34 -8.32 37.68 -9 37 C-8.34 35.68 -7.68 34.36 -7 33 C-6.34 33 -5.68 33 -5 33 C-5 32.01 -5 31.02 -5 30 C-5.99 29.67 -6.98 29.34 -8 29 C-8 27 -8 27 -7 26 C-7.33 25.34 -7.66 24.68 -8 24 C-8.66 24 -9.32 24 -10 24 C-10 22.02 -10 20.04 -10 18 C-9.01 17.67 -8.02 17.34 -7 17 C-6.033 12.743 -5.923 10.787 -8 7 C-8.125 4.25 -8.125 4.25 -8 2 C-7.34 2.33 -6.68 2.66 -6 3 C-6 3.66 -6 4.32 -6 5 C-4.68 4.67 -3.36 4.34 -2 4 C-2 3.01 -2 2.02 -2 1 C-1.34 0.67 -0.68 0.34 0 0 Z " fill="#FB6E99" transform="translate(181,65)"/>
<path d="M0 0 C0.33 0 0.66 0 1 0 C0.8 9.454 -1.029 18.272 -3.127 27.457 C-4.614 34.02 -5.753 40.462 -6.445 47.16 C-7.863 54.418 -12.066 58.485 -17.488 63.133 C-22.364 65.725 -26.451 65.441 -31.875 65.25 C-32.85 65.232 -33.824 65.214 -34.828 65.195 C-37.22 65.148 -39.609 65.083 -42 65 C-42 64.67 -42 64.34 -42 64 C-41.229 63.89 -40.458 63.781 -39.664 63.668 C-38.661 63.509 -37.658 63.351 -36.625 63.188 C-35.627 63.037 -34.63 62.886 -33.602 62.73 C-31 62 -31 62 -29 59 C-28.34 59 -27.68 59 -27 59 C-27 59.66 -27 60.32 -27 61 C-24.312 61.312 -24.312 61.312 -21 61 C-16.499 57.215 -13.943 53.814 -13 48 C-12.34 48 -11.68 48 -11 48 C-10.34 43.71 -9.68 39.42 -9 35 C-8.34 35 -7.68 35 -7 35 C-7.041 34.257 -7.083 33.515 -7.125 32.75 C-7 30 -7 30 -6.073 28.208 C-4.746 25.476 -4.267 22.907 -3.711 19.922 C-3.601 19.342 -3.601 19.342 -3.047 16.406 C-2.825 15.2 -2.603 13.993 -2.375 12.75 C-2.146 11.528 -1.916 10.306 -1.68 9.047 C-1.114 6.032 -0.555 3.017 0 0 Z " fill="#E14E72" transform="translate(170,126)"/>
<path d="M0 0 C0.66 0 1.32 0 2 0 C2.66 2.64 3.32 5.28 4 8 C4.66 7.67 5.32 7.34 6 7 C9.117 11.337 9.56 14.804 10 20 C10.66 20 11.32 20 12 20 C12.33 19.34 12.66 18.68 13 18 C13 18.66 13 19.32 13 20 C14.32 19.67 15.64 19.34 17 19 C17.66 20.32 18.32 21.64 19 23 C19.66 22.67 20.32 22.34 21 22 C21 22.66 21 23.32 21 24 C24.388 25.129 26.52 24.664 29.965 23.961 C32.746 24.014 33.95 25.212 36 27 C33.083 27.054 30.167 27.094 27.25 27.125 C26.425 27.142 25.6 27.159 24.75 27.176 C23.951 27.182 23.152 27.189 22.328 27.195 C21.595 27.206 20.862 27.216 20.106 27.227 C17.701 26.968 16.087 26.192 14 25 C14 25.66 14 26.32 14 27 C21.311 28.666 28.522 29.512 36 30 C36 30.33 36 30.66 36 31 C33.479 31.054 30.959 31.094 28.438 31.125 C27.733 31.142 27.029 31.159 26.303 31.176 C19.133 31.242 13.36 30.063 8 25 C4.323 21.177 3.547 16.373 2.312 11.375 C2.088 10.504 1.863 9.632 1.631 8.734 C0 2.33 0 2.33 0 0 Z " fill="#F3638F" transform="translate(40,164)"/>
<path d="M0 0 C2.313 2.313 2.496 3.479 3.125 6.625 C3.293 7.442 3.46 8.26 3.633 9.102 C3.754 9.728 3.875 10.355 4 11 C3.446 11.159 2.891 11.317 2.32 11.48 C-3.671 13.41 -3.671 13.41 -5.5 16.688 C-5.665 17.451 -5.83 18.214 -6 19 C-6.66 19 -7.32 19 -8 19 C-8.098 19.641 -8.196 20.281 -8.297 20.941 C-9.661 28.834 -11.861 34.519 -18 40 C-18.99 39.67 -19.98 39.34 -21 39 C-20.613 38.55 -20.227 38.1 -19.828 37.637 C-14.595 31.173 -12.285 24.471 -10.008 16.547 C-9.675 15.397 -9.343 14.247 -9 13.062 C-8.711 12.002 -8.422 10.941 -8.125 9.848 C-6.881 6.698 -5.653 5.085 -3 3 C-2.01 3 -1.02 3 0 3 C0 2.01 0 1.02 0 0 Z " fill="#C8A580" transform="translate(106,157)"/>
<path d="M0 0 C1.17 0.12 2.341 0.24 3.547 0.363 C3.993 0.417 3.993 0.417 6.25 0.688 C5.469 2.621 5.469 2.621 4.25 4.688 C1.928 5.392 -0.406 6.06 -2.75 6.688 C-4.75 9.688 -4.75 9.688 -5.75 12.688 C-7.4 12.688 -9.05 12.688 -10.75 12.688 C-11.039 13.595 -11.328 14.502 -11.625 15.438 C-12.515 18.01 -13.465 20.301 -14.75 22.688 C-15.41 22.688 -16.07 22.688 -16.75 22.688 C-17.219 15.181 -15.148 8.844 -10.75 2.688 C-7.257 -0.764 -4.752 -0.523 0 0 Z " fill="#FB8DB2" transform="translate(102.75,35.3125)"/>
<path d="M0 0 C0.99 0 1.98 0 3 0 C-1.498 41.196 -1.498 41.196 -16 53 C-21.262 54.113 -26.131 53.985 -31.438 53.562 C-32.169 53.51 -32.901 53.458 -33.654 53.404 C-35.437 53.276 -37.218 53.139 -39 53 C-39 52.67 -39 52.34 -39 52 C-37.793 51.986 -36.587 51.972 -35.344 51.957 C-19.283 51.57 -19.283 51.57 -14.461 47.664 C-4.039 35.793 -2.593 15.097 0 0 Z " fill="#CAAB83" transform="translate(170,146)"/>
<path d="M0 0 C0.366 0.005 0.366 0.005 2.217 0.027 C3.999 0.051 5.781 0.086 7.562 0.125 C7.562 0.785 7.562 1.445 7.562 2.125 C8.883 2.785 10.203 3.445 11.562 4.125 C11.233 5.115 10.903 6.105 10.562 7.125 C8.625 6.816 6.687 6.502 4.75 6.188 C3.671 6.013 2.592 5.839 1.48 5.66 C-1.437 5.125 -1.437 5.125 -4.438 4.125 C-7.32 5.016 -7.32 5.016 -10.562 6.375 C-11.1 6.594 -11.1 6.594 -13.82 7.703 C-16.438 9.125 -16.438 9.125 -17.438 12.125 C-18.098 12.125 -18.758 12.125 -19.438 12.125 C-19.438 13.115 -19.438 14.105 -19.438 15.125 C-21.438 14.125 -21.438 14.125 -22.5 11.438 C-22.438 8.125 -22.438 8.125 -21.184 6.465 C-14.904 0.747 -8.217 -0.195 0 0 Z " fill="#FDA8C5" transform="translate(43.4375,31.875)"/>
<path d="M0 0 C0.33 0.66 0.66 1.32 1 2 C1.66 2 2.32 2 3 2 C3.33 1.34 3.66 0.68 4 0 C4.266 1.169 4.531 2.338 4.805 3.543 C5.161 5.091 5.518 6.639 5.875 8.188 C6.049 8.956 6.223 9.725 6.402 10.518 C7.148 13.737 7.892 16.738 9.152 19.801 C10.078 22.201 10.107 23.49 9.688 26 C9.579 26.681 9.471 27.361 9.359 28.062 C8.477 32.818 8.477 32.818 8 35 C7.34 35 6.68 35 6 35 C5.83 34.126 5.66 33.252 5.484 32.352 C5.242 31.122 5 29.892 4.75 28.625 C4.685 28.295 4.685 28.295 4.356 26.626 C3.585 22.759 2.762 18.909 1.875 15.066 C1.688 14.254 1.502 13.442 1.31 12.605 C0.94 11.008 0.564 9.411 0.183 7.817 C-1.11 2.22 -1.11 2.22 0 0 Z " fill="#F3DABD" transform="translate(128,54)"/>
<path d="M0 0 C3.438 0.75 3.438 0.75 6 1 C6.66 0.34 7.32 -0.32 8 -1 C8.165 -0.67 8.165 -0.67 9 1 C7.68 2.65 6.36 4.3 5 6 C3.68 5.67 2.36 5.34 1 5 C1 4.34 1 3.68 1 3 C0.072 3.33 -0.856 3.66 -1.812 4 C-5 5 -5 5 -8 5 C-8.99 5.186 -9.98 5.371 -11 5.562 C-14 6 -14 6 -17 5 C-17.99 6.98 -18.98 8.96 -20 11 C-21.32 10.67 -22.64 10.34 -24 10 C-24 9.01 -24 8.02 -24 7 C-23.34 7 -22.68 7 -22 7 C-21.974 6.7 -21.974 6.7 -21.844 5.18 C-21 3 -21 3 -18.594 1.445 C-11.508 -1.578 -7.265 -2.561 0 0 Z " fill="#FC91B5" transform="translate(48,37)"/>
<path d="M0 0 C0.66 0 1.32 0 2 0 C2.925 4.716 3.229 7.673 1 12 C1.99 11.67 2.98 11.34 4 11 C3.67 11.99 3.34 12.98 3 14 C0.938 14.688 0.938 14.688 -1 15 C-0.67 17.31 -0.34 19.62 0 22 C-0.99 22.33 -1.98 22.66 -3 23 C-2.938 23.969 -2.876 24.939 -2.812 25.938 C-2.784 30.616 -4.352 34.675 -6 39 C-6.66 39 -7.32 39 -8 39 C-8 39.66 -8 40.32 -8 41 C-8.66 41 -9.32 41 -10 41 C-10.043 39.334 -10.041 37.666 -10 36 C-9.835 35.835 -9.835 35.835 -9 35 C-8.202 31.518 -7.516 28.018 -6.816 24.516 C-6.114 21.492 -5.248 18.832 -4 16 C-3.34 16 -2.68 16 -2 16 C-1.939 15.432 -1.879 14.863 -1.816 14.277 C-1.298 9.502 -0.708 4.751 0 0 Z " fill="#FD83AC" transform="translate(84,61)"/>
<path d="M0 0 C0.66 0 1.32 0 2 0 C2 1.32 2 2.64 2 4 C2.66 4 3.32 4 4 4 C5.012 8.032 6.019 12.066 7 16.105 C7.165 16.779 7.33 17.453 7.5 18.146 C7.836 19.518 8.169 20.891 8.5 22.264 C9.416 25.982 10.511 29.474 12 33 C12.309 34.052 12.619 35.104 12.938 36.188 C14 39 14 39 17 41 C16.67 41.66 16.34 42.32 16 43 C13.625 42.812 13.625 42.812 11 42 C9.688 39.438 9.688 39.438 9 37 C8.34 37 7.68 37 7 37 C7.036 36.558 7.036 36.558 7.219 34.324 C7.219 28.294 5.149 22.558 3.5 16.812 C2.839 14.487 2.183 12.16 1.531 9.832 C1.238 8.808 0.945 7.785 0.643 6.73 C0 4 0 4 0 0 Z " fill="#F65284" transform="translate(106,144)"/>
<path d="M0 0 C0.66 0 1.32 0 2 0 C0.948 7.711 -0.41 15.322 -2 22.938 C-2.083 23.34 -2.083 23.34 -2.503 25.374 C-3.42 29.693 -4.503 33.836 -6 38 C-6.66 38 -7.32 38 -8 38 C-8.174 35.041 -8.038 33.095 -6.938 30.312 C-5.811 26.332 -6.252 23.404 -6.906 19.367 C-7.015 16.611 -6.504 15.287 -5 13 C-4.34 12.67 -3.68 12.34 -3 12 C-3.33 11.402 -3.66 10.804 -4 10.188 C-5 8 -5 8 -5 5 C-4.34 5 -3.68 5 -3 5 C-2.67 4.34 -2.34 3.68 -2 3 C-1.34 3 -0.68 3 0 3 C0 2.01 0 1.02 0 0 Z " fill="#F8628F" transform="translate(169,123)"/>
<path d="M0 0 C4.933 4.933 5.392 14.469 6.75 21.188 C7.013 22.48 7.276 23.773 7.547 25.105 C8.047 29.403 7.699 32.752 7 37 C6.34 37 5.68 37 5 37 C4.001 32.195 3.004 27.39 2.009 22.583 C1.67 20.948 1.331 19.313 0.991 17.677 C0.502 15.329 0.017 12.981 -0.469 10.633 C-0.545 10.266 -0.545 10.266 -0.933 8.41 C-2 3.228 -2 3.228 -2 1 C-1.34 0.67 -0.68 0.34 0 0 Z " fill="#E1BB9E" transform="translate(68,55)"/>
<path d="M0 0 C1 3 1 3 0.145 5.375 C-0.295 6.241 -0.735 7.107 -1.188 8 C-1.614 8.866 -2.041 9.732 -2.48 10.625 C-4.562 13.879 -6.496 15.515 -10.18 16.703 C-14.192 17.125 -18.102 16.963 -22.125 16.75 C-22.936 16.723 -23.747 16.696 -24.582 16.668 C-25.362 16.628 -26.142 16.588 -26.945 16.547 C-27.652 16.514 -28.358 16.482 -29.086 16.448 C-31.481 15.887 -32.43 14.846 -34 13 C-31.559 11.78 -30.309 12.002 -27.605 12.227 C-26.732 12.288 -25.859 12.35 -24.959 12.414 C-23.122 12.554 -21.286 12.702 -19.451 12.859 C-14.406 13.2 -11.069 13.42 -7 10 C-4.138 6.872 -1.659 3.922 0 0 Z " fill="#CEB48F" transform="translate(163,186)"/>
<path d="M0 0 C0.66 0 1.32 0 2 0 C0.876 4.605 -0.272 9.204 -1.444 13.797 C-1.96 15.839 -2.453 17.886 -2.945 19.934 C-6.326 33.128 -6.326 33.128 -12 37 C-15.875 37.938 -15.875 37.938 -19 38 C-19.33 37.34 -19.66 36.68 -20 36 C-17.094 34.743 -15.204 34 -12 34 C-12 33.34 -12 32.68 -12 32 C-11.34 32 -10.68 32 -10 32 C-10 31.34 -10 30.68 -10 30 C-9.34 29.67 -8.68 29.34 -8 29 C-8.041 28.281 -8.082 27.561 -8.125 26.82 C-7.988 23.718 -7.246 21.704 -6 18.875 C-4.704 15.914 -4 14.263 -4 11 C-4 10.34 -4 9.68 -4 9 C-4.66 8.67 -5.32 8.34 -6 8 C-5.05 6.661 -4.089 5.329 -3.125 4 C-2.591 3.257 -2.058 2.515 -1.508 1.75 C-1.259 1.461 -1.259 1.461 0 0 Z " fill="#F25E88" transform="translate(96,152)"/>
<path d="M0 0 C10 5 10 5 12.164 6.094 C18.853 9.395 25.553 10.277 32.762 8.207 C36.859 6.646 40.045 5.316 43 2 C42.75 3.875 42.75 3.875 42 6 C40.684 6.699 39.35 7.367 38 8 C37.67 8.99 37.34 9.98 37 11 C29.875 14.562 18.406 12.002 11 10.133 C6.251 8.34 2.665 5.457 -1 2 C-0.67 1.34 -0.34 0.68 0 0 Z " fill="#D7BF9A" transform="translate(50,193)"/>
<path d="M0 0 C0.99 0.33 1.98 0.66 3 1 C2.67 2.32 2.34 3.64 2 5 C2.99 5.66 3.98 6.32 5 7 C3.35 7.33 1.7 7.66 0 8 C-0.074 11.343 -0.065 13.804 1 17 C0.67 17.66 0.34 18.32 0 19 C-0.66 19 -1.32 19 -2 19 C-1.794 19.619 -1.588 20.237 -1.375 20.875 C-1.251 21.576 -1.127 22.278 -1 23 C-1.66 23.66 -2.32 24.32 -3 25 C-3.624 27.549 -4.159 30.047 -4.625 32.625 C-4.759 33.331 -4.893 34.038 -5.031 34.766 C-5.361 36.509 -5.681 38.254 -6 40 C-6.825 40.165 -6.825 40.165 -11 41 C-10.7 40.42 -10.4 39.84 -10.091 39.242 C-6.21 31.268 -4.874 22.67 -3.375 14 C-2.949 11.562 -2.519 9.124 -2.086 6.688 C-1.901 5.619 -1.716 4.55 -1.525 3.449 C-1 1 -1 1 0 0 Z " fill="#FC8EB5" transform="translate(146,57)"/>
<path d="M0 0 C2.113 3.17 2.586 5.138 3.289 8.84 C3.508 9.985 3.727 11.131 3.953 12.311 C4.175 13.507 4.397 14.704 4.625 15.938 C4.854 17.131 5.084 18.324 5.32 19.553 C7 28.446 7 28.446 7 33 C7.66 33 8.32 33 9 33 C9.846 37.164 10.674 41.332 11.5 45.5 C11.738 46.673 11.977 47.846 12.223 49.055 C13.421 55.148 14.307 60.789 14 67 C13.67 67 13.34 67 13 67 C5.173 32.444 5.173 32.444 2 16.062 C1.793 15.006 1.586 13.949 1.372 12.86 C1.188 11.886 1.003 10.913 0.812 9.91 C0.654 9.076 0.495 8.242 0.332 7.383 C-0.015 4.892 -0.058 2.512 0 0 Z " fill="#E66C86" transform="translate(26,95)"/>
<path d="M0 0 C0.99 0.165 0.99 0.165 6 1 C7.037 4.579 8.052 8.164 9.062 11.75 C9.357 12.766 9.652 13.782 9.955 14.828 C10.229 15.808 10.503 16.787 10.785 17.797 C11.042 18.698 11.298 19.598 11.563 20.526 C12.014 23.082 11.835 24.571 11 27 C8.531 20.768 6.681 14.487 5 8 C1.839 9.37 1.007 9.989 -1 13 C-1.66 13 -2.32 13 -3 13 C-2.01 8.71 -1.02 4.42 0 0 Z " fill="#B35858" transform="translate(102,151)"/>
<path d="M0 0 C0 0.33 0 0.66 0 1 C2.64 1.33 5.28 1.66 8 2 C5.526 4.474 4.655 4.241 1.25 4.375 C-3.539 4.789 -6.345 5.693 -10 9 C-11.563 11.276 -12.759 13.519 -14 16 C-14.33 16 -14.66 16 -15 16 C-16.459 8.826 -16.459 8.826 -14.438 5.188 C-9.871 1.089 -6.144 -0.439 0 0 Z " fill="#FB98B5" transform="translate(163,32)"/>
<path d="M0 0 C0.66 0.33 1.32 0.66 2 1 C1.096 7.193 0.079 10.912 -5 15 C-8.254 17.169 -9.134 17.241 -12.887 17.195 C-13.825 17.189 -14.762 17.182 -15.729 17.176 C-16.217 17.167 -16.217 17.167 -18.688 17.125 C-19.676 17.116 -20.664 17.107 -21.682 17.098 C-24.121 17.074 -26.561 17.041 -29 17 C-29 16.67 -29 16.34 -29 16 C-28.229 15.89 -27.458 15.781 -26.664 15.668 C-25.661 15.509 -24.658 15.351 -23.625 15.188 C-22.627 15.037 -21.63 14.886 -20.602 14.73 C-18 14 -18 14 -16 11 C-15.34 11 -14.68 11 -14 11 C-14 11.66 -14 12.32 -14 13 C-11.312 13.312 -11.312 13.312 -8 13 C-3.499 9.215 -0.943 5.814 0 0 Z " fill="#EC5680" transform="translate(157,174)"/>
<path d="M0 0 C0.99 0 1.98 0 3 0 C3.227 0.474 3.227 0.474 4.375 2.875 C6 6 6 6 8 8 C8.527 10.031 8.527 10.031 8.938 12.5 C9.767 17.043 10.932 21.371 12.316 25.773 C13.61 29.988 14.29 33.547 14 38 C13.34 38.66 12.68 39.32 12 40 C10.097 30.651 10.097 30.651 9.562 27.062 C9.013 24.07 8.358 21.141 7.625 18.188 C7.39 17.232 7.156 16.277 6.914 15.293 C6.612 14.536 6.311 13.78 6 13 C5.01 12.67 4.02 12.34 3 12 C2.051 9.277 2.051 9.277 1.312 5.938 C1.061 4.833 0.81 3.728 0.551 2.59 C0.369 1.735 0.187 0.881 0 0 Z " fill="#EFCFB7" transform="translate(63,44)"/>
<path d="M0 0 C0.99 0.33 1.98 0.66 3 1 C3 2.98 3 4.96 3 7 C3.66 7 4.32 7 5 7 C6.125 14.625 6.125 14.625 5 18 C4.77 20.837 4.582 23.659 4.438 26.5 C4.394 27.272 4.351 28.044 4.307 28.84 C4.14 31.897 4 34.938 4 38 C3.374 39.682 2.712 41.352 2 43 C1.34 42.34 0.68 41.68 0 41 C0.242 38.121 0.242 38.121 0.875 34.438 C1.797 28.503 2.231 22.694 2.25 16.688 C2.259 15.953 2.268 15.218 2.277 14.461 C2.249 9.249 2.249 9.249 0 7 C-0.125 3.375 -0.125 3.375 0 0 Z " fill="#EDDBBB" transform="translate(189,48)"/>
<path d="M0 0 C1.21 3.552 0.798 6.15 0.074 9.797 C-0.146 10.921 -0.365 12.045 -0.592 13.203 C-0.83 14.374 -1.067 15.544 -1.312 16.75 C-1.539 17.905 -1.765 19.06 -1.998 20.25 C-3.179 26.212 -4.458 32.121 -6 38 C-6.66 37.67 -7.32 37.34 -8 37 C-8.625 34.438 -8.625 34.438 -9 32 C-8.01 31.67 -7.02 31.34 -6 31 C-6.33 29.02 -6.66 27.04 -7 25 C-6.34 24.67 -5.68 24.34 -5 24 C-5.66 23.34 -6.32 22.68 -7 22 C-6.34 20.68 -5.68 19.36 -5 18 C-4.34 18 -3.68 18 -3 18 C-3 17.01 -3 16.02 -3 15 C-3.99 14.67 -4.98 14.34 -6 14 C-6 12 -6 12 -5 11 C-5.33 10.34 -5.66 9.68 -6 9 C-5.01 8.67 -4.02 8.34 -3 8 C-1.875 5.062 -1.875 5.062 -1 2 C-0.67 1.34 -0.34 0.68 0 0 Z " fill="#F35C86" transform="translate(179,80)"/>
<path d="M0 0 C0.66 0 1.32 0 2 0 C2 0.66 2 1.32 2 2 C1.34 2 0.68 2 0 2 C0.046 2.991 0.093 3.983 0.141 5.004 C-0.01 9.28 -0.948 12.907 -2.25 16.938 C-2.71 18.424 -3.167 19.911 -3.621 21.398 C-3.736 21.776 -3.736 21.776 -4.32 23.687 C-5.427 27.451 -6.377 31.252 -7.312 35.062 C-7.484 35.759 -7.655 36.456 -7.831 37.174 C-8.224 38.782 -8.612 40.391 -9 42 C-9.66 42 -10.32 42 -11 42 C-11.33 42.66 -11.66 43.32 -12 44 C-10.878 36.396 -8.999 29.098 -6.895 21.721 C-5.341 16.273 -3.942 10.808 -2.676 5.285 C-2 3 -2 3 0 0 Z " fill="#D73F65" transform="translate(103,135)"/>
<path d="M0 0 C2.36 2.36 2.491 3.779 3 7 C3.615 6.942 4.23 6.884 4.863 6.824 C7.324 6.687 9.56 6.641 12 7 C14.104 9.422 15 10.782 15 14 C18.3 14 21.6 14 25 14 C23 16 23 16 19.918 16.117 C18.687 16.037 17.456 15.957 16.188 15.875 C14.964 15.811 13.741 15.746 12.48 15.68 C7.784 14.762 5.492 12.545 2.25 9.188 C0.546 6.206 0.326 3.385 0 0 Z " fill="#D8506F" transform="translate(114,179)"/>
<path d="M0 0 C0.66 0 1.32 0 2 0 C2.66 2.64 3.32 5.28 4 8 C4.66 7.67 5.32 7.34 6 7 C8.494 10.687 9.427 13.605 10 18 C10.33 18.99 10.66 19.98 11 21 C10.67 21.99 10.34 22.98 10 24 C9.01 24.33 8.02 24.66 7 25 C3.712 16.822 1.666 8.647 0 0 Z " fill="#EC6989" transform="translate(40,164)"/>
<path d="M0 0 C0.639 0.701 1.279 1.403 1.938 2.125 C4.987 5.219 8.527 7.393 12.207 9.668 C12.799 10.108 13.39 10.547 14 11 C14 11.66 14 12.32 14 13 C15.155 13.289 16.31 13.577 17.5 13.875 C18.222 14.055 18.944 14.236 19.688 14.422 C20.451 14.613 21.214 14.803 22 15 C23.5 15.375 25 15.75 26.5 16.125 C27.655 16.414 28.81 16.702 30 17 C26.15 19.567 24.414 18.833 20 18 C20 17.34 20 16.68 20 16 C19.113 15.876 18.226 15.752 17.312 15.625 C14.296 15.056 11.797 14.234 9 13 C9 12.34 9 11.68 9 11 C8.278 10.794 7.556 10.588 6.812 10.375 C2.988 8.505 1.427 6.498 -1 3 C-0.67 2.01 -0.34 1.02 0 0 Z " fill="#DFC8A6" transform="translate(116,188)"/>
<path d="M0 0 C-0.33 0.99 -0.66 1.98 -1 3 C-1.99 3 -2.98 3 -4 3 C-6.701 7.861 -8.358 12.901 -10.035 18.195 C-10.863 20.602 -11.796 22.764 -13 25 C-13.66 25 -14.32 25 -15 25 C-15.33 25.66 -15.66 26.32 -16 27 C-16.425 22.32 -14.896 19.229 -13 15 C-12.254 12.681 -11.625 10.356 -11 8 C-10.34 8 -9.68 8 -9 8 C-8.752 7.051 -8.505 6.102 -8.25 5.125 C-7 2 -7 2 -5.062 0.625 C-3 0 -3 0 0 0 Z " fill="#D3AF8E" transform="translate(109,168)"/>
<path d="M0 0 C0.33 0 0.66 0 1 0 C1.518 7.314 0.616 12.999 -1.914 19.863 C-3.437 24.262 -4.401 28.741 -5.387 33.285 C-6 36 -6 36 -7 39 C-7.66 39 -8.32 39 -9 39 C-9 37.68 -9 36.36 -9 35 C-8.34 35 -7.68 35 -7 35 C-6.887 33.772 -6.773 32.543 -6.656 31.277 C-5.99 25.292 -4.752 19.449 -3.5 13.562 C-3.274 12.475 -3.049 11.388 -2.816 10.268 C-1.134 2.268 -1.134 2.268 0 0 Z " fill="#DF5177" transform="translate(143,54)"/>
<path d="M0 0 C3.086 4.629 3.86 9.861 5.142 15.232 C5.621 17.232 6.114 19.227 6.609 21.223 C6.916 22.495 7.223 23.767 7.539 25.078 C7.82 26.237 8.1 27.397 8.389 28.591 C9.024 32.131 9.107 35.411 9 39 C8.34 38.67 7.68 38.34 7 38 C6.238 35.44 6.238 35.44 5.527 32.066 C5.268 30.86 5.008 29.655 4.74 28.412 C4.475 27.142 4.21 25.871 3.938 24.562 C3.407 22.063 2.875 19.565 2.34 17.066 C2.106 15.952 1.873 14.838 1.633 13.69 C1 11 1 11 0 9 C-0.07 7.46 -0.085 5.917 -0.062 4.375 C-0.053 3.558 -0.044 2.74 -0.035 1.898 C-0.024 1.272 -0.012 0.645 0 0 Z " fill="#DD6577" transform="translate(125,50)"/>
<path d="M0 0 C1.593 3.186 0.278 5.638 -0.625 9 C-0.947 10.258 -1.27 11.516 -1.602 12.812 C-3 16 -3 16 -5.461 17.562 C-8 18 -8 18 -11 16 C-10.25 13.562 -10.25 13.562 -9 11 C-6.875 10.188 -6.875 10.188 -5 10 C-5.33 9.01 -5.66 8.02 -6 7 C-4.68 7 -3.36 7 -2 7 C-1.856 6.031 -1.711 5.061 -1.562 4.062 C-1 1 -1 1 0 0 Z M-12 17 C-12 20 -12 20 -12 20 Z " fill="#F6648F" transform="translate(101,136)"/>
<path d="M0 0 C2.487 3.73 2.343 6.679 2.312 11 C2.311 11.757 2.31 12.513 2.309 13.293 C2.203 19.519 1.13 25.13 -1 31 C-1.33 31 -1.66 31 -2 31 C-2.1 24.687 -1.917 18.426 -1.562 12.125 C-1.523 11.388 -1.484 10.65 -1.444 9.891 C-1.241 6.496 -1.015 3.259 0 0 Z " fill="#E0CAA7" transform="translate(190,54)"/>
<path d="M0 0 C0.66 0.33 1.32 0.66 2 1 C-1.348 4.72 -4.101 6.751 -9.198 7.189 C-11.802 7.269 -14.395 7.273 -17 7.25 C-17.889 7.258 -18.779 7.265 -19.695 7.273 C-24.226 7.26 -27.893 7.156 -32 5 C-32 4.34 -32 3.68 -32 3 C-31.429 3.158 -30.859 3.317 -30.271 3.48 C-28.028 3.994 -25.967 4.202 -23.672 4.316 C-22.873 4.358 -22.073 4.4 -21.25 4.443 C-20.838 4.463 -20.838 4.463 -18.75 4.562 C-18.33 4.584 -18.33 4.584 -16.203 4.693 C-14.136 4.799 -12.068 4.9 -10 5 C-9.67 4.34 -9.34 3.68 -9 3 C-6.668 2.661 -4.334 2.328 -2 2 C-1.34 1.34 -0.68 0.68 0 0 Z " fill="#D34668" transform="translate(86,186)"/>
<path d="M0 0 C1.397 3.884 0.748 7.517 0.188 11.5 C0.093 12.206 -0.002 12.912 -0.1 13.64 C-0.389 15.762 -0.692 17.881 -1 20 C-1.169 21.169 -1.338 22.338 -1.512 23.543 C-2.254 28.325 -3.071 32.538 -5 37 C-5.33 37 -5.66 37 -6 37 C-6.247 31.118 -5.313 25.861 -4.062 20.125 C-2.973 15.066 -1.955 10.083 -1.434 4.93 C-1 1 -1 1 0 0 Z M-7 37 C-5.533 40.815 -6.567 43.29 -8 47 C-9.467 43.185 -8.433 40.71 -7 37 Z " fill="#DEC5A1" transform="translate(187,85)"/>
<path d="M0 0 C2.233 2.233 2.438 3.132 3.07 6.141 C3.157 6.552 3.157 6.552 3.598 8.637 C3.685 9.068 3.685 9.068 4.125 11.25 C4.307 12.097 4.489 12.944 4.676 13.816 C5.6 18.283 6.225 22.412 6 27 C6.66 27 7.32 27 8 27 C7.959 26.051 7.918 25.102 7.875 24.125 C8 21 8 21 10 19 C9.67 22.63 9.34 26.26 9 30 C8.01 30 7.02 30 6 30 C3.951 25.462 2.997 20.849 2 16 C1.812 15.144 1.624 14.288 1.43 13.406 C0.457 8.859 -0.246 4.68 0 0 Z " fill="#D44963" transform="translate(67,65)"/>
<path d="M0 0 C0.66 0.66 1.32 1.32 2 2 C-2.133 5.248 -5.72 7.34 -11 8 C-13.312 7.562 -13.312 7.562 -15 7 C-15 6.34 -15 5.68 -15 5 C-16.32 5 -17.64 5 -19 5 C-18.67 4.01 -18.34 3.02 -18 2 C-16.952 2.023 -15.904 2.046 -14.824 2.07 C-13.445 2.089 -12.066 2.107 -10.688 2.125 C-10.342 2.133 -10.342 2.133 -8.596 2.176 C-4.829 2.212 -3.216 2.144 0 0 Z " fill="#E3CFAC" transform="translate(88,202)"/>
<path d="M0 0 C0.33 0 0.66 0 1 0 C1.85 9.618 2.188 18.94 1.188 28.562 C1.105 29.389 1.023 30.216 0.938 31.068 C0.706 33.056 0.363 35.031 0 37 C-0.33 37.165 -0.33 37.165 -2 38 C-2.027 35.25 -2.047 32.5 -2.062 29.75 C-2.071 28.973 -2.079 28.195 -2.088 27.395 C-2.091 26.64 -2.094 25.886 -2.098 25.109 C-2.103 24.418 -2.108 23.727 -2.114 23.015 C-1.994 20.893 -1.528 19.054 -1 17 C-0.861 15.633 -0.756 14.263 -0.684 12.891 C-0.663 12.514 -0.663 12.514 -0.557 10.605 C-0.517 9.828 -0.478 9.051 -0.438 8.25 C-0.394 7.457 -0.351 6.664 -0.307 5.848 C-0.201 3.899 -0.1 1.949 0 0 Z " fill="#D3B893" transform="translate(188,48)"/>
<path d="M0 0 C0.66 0 1.32 0 2 0 C2.338 1.749 2.67 3.499 3 5.25 C3.186 6.225 3.371 7.199 3.562 8.203 C4 11 4 11 4 15 C2.35 14.67 0.7 14.34 -1 14 C-1.124 15.114 -1.248 16.227 -1.375 17.375 C-2 21 -2 21 -4 23 C-2.963 15.246 -1.836 7.607 0 0 Z " fill="#801527" transform="translate(103,137)"/>
<path d="M0 0 C3.864 1.466 5.209 3.32 7 7 C7.145 9.797 7.145 9.797 6.812 12.75 C6.696 13.792 6.58 14.833 6.461 15.906 C5.85 20.008 5.006 23.977 4 28 C3.34 28 2.68 28 2 28 C2.033 25.982 2.065 23.964 2.098 21.945 C2 20 2 20 1 18 C1.155 17.474 1.155 17.474 1.938 14.812 C3.02 10.929 3.378 8.005 3 4 C1.5 1.562 1.5 1.562 0 0 Z " fill="#F6668E" transform="translate(180,36)"/>
<path d="M0 0 C0.33 0.99 0.66 1.98 1 3 C-0.074 4.938 -0.074 4.938 -1.688 7 C-2.207 7.681 -2.726 8.361 -3.262 9.062 C-7.438 13.717 -11.783 15.654 -18 16 C-21.471 15.324 -24.707 14.279 -28 13 C-28 12.67 -28 12.34 -28 12 C-27.535 12.012 -27.535 12.012 -25.184 12.07 C-11.539 12.27 -11.539 12.27 -7 10 C-4.182 6.963 -1.853 3.707 0 0 Z " fill="#DAC39E" transform="translate(164,190)"/>
<path d="M0 0 C0.229 0.211 0.229 0.211 1.391 1.277 C2.004 1.825 2.618 2.373 3.25 2.938 C3.853 3.483 4.457 4.028 5.078 4.59 C8.169 6.858 11.28 7.114 15.039 7.211 C15.784 7.239 16.529 7.268 17.297 7.297 C18.857 7.349 20.416 7.393 21.977 7.43 C23.992 7.514 25.999 7.747 28 8 C28.33 8.495 28.33 8.495 30 11 C27.124 11.081 24.251 11.141 21.375 11.188 C20.971 11.2 20.971 11.2 18.926 11.264 C10.872 11.362 5.75 8.477 0 3 C0 2.01 0 1.02 0 0 Z " fill="#B15755" transform="translate(48,188)"/>
<path d="M0 0 C0.99 0 1.98 0 3 0 C3.589 3.605 4.001 6.966 3.938 10.625 C3.999 13.966 4.556 16.022 6 19 C5.01 19.66 4.02 20.32 3 21 C2.34 19.35 1.68 17.7 1 16 C0.67 16 0.34 16 0 16 C0 10.72 0 5.44 0 0 Z " fill="#F97EA1" transform="translate(18,46)"/>
<path d="M0 0 C1.469 2.937 0.299 4.891 -0.625 7.93 C-1.053 10.293 -0.6 11.703 0 14 C-0.91 17.921 -2.03 21.483 -4 25 C-4.33 25 -4.66 25 -5 25 C-5.59 5.924 -5.59 5.924 -1.426 1.223 C-0.955 0.819 -0.485 0.416 0 0 Z " fill="#E7D0AE" transform="translate(179,142)"/>
<path d="M0 0 C0.33 0 0.66 0 1 0 C1.082 1.155 1.165 2.31 1.25 3.5 C1.832 8.944 3.209 14.14 4.628 19.414 C5.516 22.772 6 25.494 6 29 C5.34 29 4.68 29 4 29 C3.818 28.227 3.636 27.453 3.449 26.656 C1.151 17.135 1.151 17.135 -0.812 12.812 C-2.326 7.952 -1.527 4.746 0 0 Z " fill="#F65C8B" transform="translate(124,50)"/>
<path d="M0 0 C0.66 0 1.32 0 2 0 C4.653 7.207 7.161 14.317 5 22 C4.34 22 3.68 22 3 22 C2.52 19.625 2.041 17.25 1.562 14.875 C1.428 14.21 1.293 13.545 1.154 12.859 C-0.559 4.333 -0.559 4.333 -1 1 C-0.67 0.67 -0.34 0.34 0 0 Z " fill="#DFBA9F" transform="translate(131,67)"/>
<path d="M0 0 C0.33 0 0.66 0 1 0 C1.438 2.062 1.438 2.062 1 5 C-1.822 8.99 -4.374 11.631 -9.219 12.73 C-13.364 13.026 -17.303 12.892 -21.438 12.562 C-22.169 12.51 -22.901 12.458 -23.654 12.404 C-25.437 12.276 -27.218 12.139 -29 12 C-29 11.67 -29 11.34 -29 11 C-27.793 10.986 -26.587 10.972 -25.344 10.957 C-8.276 10.537 -8.276 10.537 -3 5 C-1.062 2.188 -1.062 2.188 0 0 Z " fill="#BF9C7A" transform="translate(160,187)"/>
<path d="M0 0 C1.184 3.503 0.816 6.015 0.074 9.605 C-0.036 10.138 -0.036 10.138 -0.592 12.834 C-0.83 13.941 -1.067 15.047 -1.312 16.188 C-1.426 16.747 -1.426 16.747 -1.998 19.576 C-2.222 20.638 -2.445 21.699 -2.676 22.793 C-2.881 23.768 -3.087 24.743 -3.298 25.747 C-3.53 26.49 -3.761 27.234 -4 28 C-4.66 28.33 -5.32 28.66 -6 29 C-5.605 19.667 -4.239 8.478 0 0 Z " fill="#FC79A9" transform="translate(143,65)"/>
<path d="M0 0 C2.468 1.152 4.048 2.048 6 4 C5.67 4.66 5.34 5.32 5 6 C12.311 7.666 19.522 8.512 27 9 C27 9.33 27 9.66 27 10 C24.479 10.054 21.959 10.094 19.438 10.125 C18.733 10.142 18.029 10.159 17.303 10.176 C12.543 10.22 8.526 9.658 4 8 C1.562 5.562 1.562 5.562 0 3 C0 2.01 0 1.02 0 0 Z " fill="#DF5F7B" transform="translate(49,185)"/>
<path d="M0 0 C2.392 2.392 2.676 3.678 3 7 C2.67 7.495 2.67 7.495 1 10 C0.67 8.02 0.34 6.04 0 4 C-4.758 6.958 -5.897 9.78 -7.227 14.977 C-8 17 -8 17 -11 19 C-6.914 4.335 -6.914 4.335 -2.312 1.125 C-1.549 0.754 -0.786 0.382 0 0 Z " fill="#E1C1A2" transform="translate(109,168)"/>
<path d="M0 0 C0.66 0.33 1.32 0.66 2 1 C2.625 4.062 2.625 4.062 3 7 C2.446 7.159 1.891 7.317 1.32 7.48 C-4.671 9.41 -4.671 9.41 -6.5 12.688 C-6.665 13.451 -6.83 14.214 -7 15 C-7.926 12.501 -8.044 11.172 -7.375 8.562 C-5.703 5.446 -3.588 3.389 -1 1 C-0.67 0.67 -0.34 0.34 0 0 Z " fill="#CDA384" transform="translate(107,161)"/>
<path d="M0 0 C3.96 0 7.92 0 12 0 C8 3 8 3 4.938 4.375 C1.637 6.201 0.757 7.75 -1 11 C-1.66 11 -2.32 11 -3 11 C-2.506 6.722 -1.952 3.904 0 0 Z " fill="#FCA8C4" transform="translate(92,37)"/>
<path d="M0 0 C1 2 1 2 -0.125 5.812 C-1.732 9.793 -3.508 12.381 -7 15 C-10.812 15.812 -10.812 15.812 -14 16 C-14.33 15.34 -14.66 14.68 -15 14 C-12.094 12.743 -10.204 12 -7 12 C-7 11.34 -7 10.68 -7 10 C-6.34 10 -5.68 10 -5 10 C-5 9.34 -5 8.68 -5 8 C-4.34 7.67 -3.68 7.34 -3 7 C-3.062 6.216 -3.124 5.433 -3.188 4.625 C-3.126 3.759 -3.064 2.893 -3 2 C-2.01 1.34 -1.02 0.68 0 0 Z " fill="#EC557F" transform="translate(91,174)"/>
<path d="M0 0 C0.66 1.32 1.32 2.64 2 4 C1.257 4.722 0.515 5.444 -0.25 6.188 C-4.172 10.199 -7.165 13.648 -9 19 C-10.493 14.522 -8.862 11.211 -7 7 C-5 4.438 -5 4.438 -3 3 C-2.01 3 -1.02 3 0 3 C0 2.01 0 1.02 0 0 Z " fill="#B68666" transform="translate(106,157)"/>
<path d="M0 0 C0.62 0.003 0.62 0.003 3.758 0.016 C4.993 0.01 6.228 0.005 7.5 0 C10.605 0.244 12.293 0.626 14.883 2.266 C12.883 4.266 12.883 4.266 10.781 4.531 C5.138 4.496 0.297 3.87 -5.117 2.266 C-3.117 0.266 -3.117 0.266 0 0 Z " fill="#CCB18E" transform="translate(67.1171875,198.734375)"/>
<path d="M0 0 C0.33 0 0.66 0 1 0 C1.202 5.196 0.54 9.717 -0.875 14.688 C-1.049 15.338 -1.223 15.988 -1.402 16.658 C-2.311 19.961 -3.319 23.009 -5 26 C-6.075 22.725 -5.898 20.622 -5.039 17.305 C-4.815 16.424 -4.59 15.544 -4.359 14.637 C-4.238 14.181 -4.238 14.181 -3.625 11.875 C-3.39 10.956 -3.156 10.037 -2.914 9.09 C-1.169 2.338 -1.169 2.338 0 0 Z " fill="#EA5D83" transform="translate(82,60)"/>
<path d="M0 0 C0.66 0 1.32 0 2 0 C2.33 2.97 2.66 5.94 3 9 C2.34 9 1.68 9 1 9 C1.195 9.705 1.389 10.41 1.59 11.137 C2.068 14.477 1.531 16.597 0.562 19.812 C0.275 20.788 -0.012 21.764 -0.309 22.77 C-0.537 23.506 -0.765 24.242 -1 25 C-1.66 25 -2.32 25 -3 25 C-2.125 17.25 -2.125 17.25 -1 15 C-0.93 12.237 -1.003 9.489 -1.062 6.727 C-1.007 4.287 -0.705 2.323 0 0 Z " fill="#FD7AA8" transform="translate(83,52)"/>
<path d="M0 0 C3.333 1.667 6.667 3.333 10 5 C10.748 5.322 11.495 5.645 12.266 5.977 C14 7 14 7 15 10 C7.976 9.851 4.183 6.501 -1 2 C-0.67 1.34 -0.34 0.68 0 0 Z " fill="#DEC6A5" transform="translate(50,193)"/>
<path d="M0 0 C0.66 0.66 1.32 1.32 2 2 C1.01 2.33 0.02 2.66 -1 3 C-1 3.66 -1 4.32 -1 5 C-1.66 5 -2.32 5 -3 5 C-3 5.66 -3 6.32 -3 7 C-5.906 8.257 -7.796 9 -11 9 C-11 9.66 -11 10.32 -11 11 C-12.32 10.34 -13.64 9.68 -15 9 C-14.196 8.711 -13.391 8.423 -12.562 8.125 C-10 7 -10 7 -9 5 C-7.68 5.33 -6.36 5.66 -5 6 C-5 5.34 -5 4.68 -5 4 C-5.639 3.876 -6.279 3.752 -6.938 3.625 C-7.618 3.419 -8.299 3.213 -9 3 C-9.33 2.34 -9.66 1.68 -10 1 C-7.982 1.326 -5.964 1.651 -3.945 1.977 C-3.624 1.98 -3.624 1.98 -2 2 C-1.34 1.34 -0.68 0.68 0 0 Z " fill="#F76490" transform="translate(87,179)"/>
<path d="M0 0 C1 2 2 4 3 6 C3.66 6 4.32 6 5 6 C5 6.99 5 7.98 5 9 C5.66 9.33 6.32 9.66 7 10 C6.34 10.66 5.68 11.32 5 12 C3.636 14.728 4.122 16.61 4.438 19.625 C4.488 20.126 4.488 20.126 4.746 22.664 C4.83 23.435 4.914 24.206 5 25 C2.562 21.343 2.078 17.871 1.375 13.625 C1.241 12.87 1.107 12.114 0.969 11.336 C0.314 7.515 -0.171 3.892 0 0 Z " fill="#ED6E8C" transform="translate(19,60)"/>
<path d="M0 0 C0.99 0 1.98 0 3 0 C3.227 0.474 3.227 0.474 4.375 2.875 C6 6 6 6 8 8 C8.125 10.625 8.125 10.625 8 13 C6.35 12.67 4.7 12.34 3 12 C2.01 8.04 1.02 4.08 0 0 Z " fill="#F0D6BD" transform="translate(63,44)"/>
<path d="M0 0 C2.813 2.654 3.742 4.044 4 8 C3.489 11.043 2.786 14.017 2 17 C1.175 16.67 1.175 16.67 -3 15 C-2.754 14.729 -2.754 14.729 -1.512 13.359 C0.367 10.428 0.311 8.697 0.188 5.25 C0.16 4.265 0.133 3.28 0.105 2.266 C0.088 1.892 0.088 1.892 0 0 Z " fill="#F86F98" transform="translate(121,42)"/>
<path d="M0 0 C1.263 0.018 2.527 0.036 3.828 0.055 C4.792 0.078 5.757 0.101 6.75 0.125 C4.276 2.599 3.405 2.366 0 2.5 C-4.983 2.881 -7.321 4.154 -11.25 7.125 C-12.24 7.125 -13.23 7.125 -14.25 7.125 C-10.671 0.325 -7.504 -0.139 0 0 Z " fill="#FDA7C5" transform="translate(164.25,33.875)"/>
<path d="M0 0 C-1 3 -1 3 -3.367 4.668 C-8.355 6.497 -12.858 6.399 -18.125 6.312 C-18.619 6.314 -18.619 6.314 -21.121 6.322 C-29.107 6.263 -29.107 6.263 -33 4 C-32.345 4.021 -31.69 4.042 -31.016 4.063 C-28.011 4.147 -25.006 4.199 -22 4.25 C-20.97 4.284 -19.94 4.317 -18.879 4.352 C-11.829 4.441 -6.106 0 0 0 Z " fill="#C74F60" transform="translate(88,190)"/>
<path d="M0 0 C2 3 2 3 2.938 6.062 C4 9 4 9 7 11 C6.67 11.66 6.34 12.32 6 13 C3.625 12.812 3.625 12.812 1 12 C-0.312 9.438 -0.312 9.438 -1 7 C-1.66 7 -2.32 7 -3 7 C-2.67 5.68 -2.34 4.36 -2 3 C-1.34 3 -0.68 3 0 3 C0 2.01 0 1.02 0 0 Z " fill="#F2608B" transform="translate(116,174)"/>
<path d="M0 0 C2.36 2.36 2.491 3.779 3 7 C3.66 7 4.32 7 5 7 C5.412 7.433 5.825 7.866 6.25 8.312 C8.553 10.533 11.118 11.655 14 13 C13.01 13.66 12.02 14.32 11 15 C9.667 14.333 8.333 13.667 7 13 C6.319 12.773 5.639 12.546 4.938 12.312 C1.852 10.222 1.186 7.439 0 4 C0 2.68 0 1.36 0 0 Z " fill="#D75771" transform="translate(114,179)"/>
<path d="M0 0 C0.66 0.33 1.32 0.66 2 1 C1.34 5.29 0.68 9.58 0 14 C-0.66 14 -1.32 14 -2 14 C-2.33 11.36 -2.66 8.72 -3 6 C-3.33 6.165 -3.33 6.165 -5 7 C-4.67 6.01 -4.34 5.02 -4 4 C-3.34 4 -2.68 4 -2 4 C-2 3.01 -2 2.02 -2 1 C-1.34 0.67 -0.68 0.34 0 0 Z " fill="#F6638F" transform="translate(181,65)"/>
<path d="M0 0 C0 5.186 -1.337 10.102 -3 15 C-3.495 15.33 -3.495 15.33 -6 17 C-4.442 4.146 -4.442 4.146 0 0 Z " fill="#EBD6B5" transform="translate(175,167)"/>
<path d="M0 0 C1.251 3.547 0.723 5.723 -0.438 9.25 C-0.725 10.142 -1.012 11.034 -1.309 11.953 C-1.537 12.629 -1.765 13.304 -2 14 C-3.32 14 -4.64 14 -6 14 C-6 12 -6 12 -5 11 C-5.33 10.34 -5.66 9.68 -6 9 C-5.01 8.67 -4.02 8.34 -3 8 C-1.875 5.062 -1.875 5.062 -1 2 C-0.67 1.34 -0.34 0.68 0 0 Z " fill="#F6648E" transform="translate(179,80)"/>
<path d="M0 0 C1.189 0.102 2.377 0.204 3.602 0.309 C4.517 0.392 5.432 0.476 6.375 0.562 C5.715 1.883 5.055 3.203 4.375 4.562 C2.065 4.562 -0.245 4.562 -2.625 4.562 C-1.965 3.903 -1.305 3.242 -0.625 2.562 C-3.265 2.562 -5.905 2.562 -8.625 2.562 C-8.625 1.903 -8.625 1.242 -8.625 0.562 C-5.681 -0.909 -3.251 -0.287 0 0 Z " fill="#FC9BBA" transform="translate(102.625,35.4375)"/>
<path d="M0 0 C2.482 4.61 4 8.729 4 14 C4.66 14 5.32 14 6 14 C6.33 13.01 6.66 12.02 7 11 C7 12.65 7 14.3 7 16 C5.68 16 4.36 16 3 16 C0.097 11.646 -1.28 7.24 -0.625 2 C-0.419 1.34 -0.213 0.68 0 0 Z " fill="#F55C89" transform="translate(130,79)"/>
<path d="M0 0 C2.513 2.95 3.631 5.128 4 9 C3.562 12.312 3.562 12.312 3 15 C2.34 15 1.68 15 1 15 C0.634 13.44 0.282 11.877 -0.062 10.312 C-0.26 9.442 -0.457 8.572 -0.66 7.676 C-1.02 4.84 -0.709 2.752 0 0 Z " fill="#CCA78D" transform="translate(72,77)"/>
<path d="M0 0 C0 0.33 0 0.66 0 1 C-2.959 1.054 -5.916 1.094 -8.875 1.125 C-9.296 1.133 -9.296 1.133 -11.426 1.176 C-12.231 1.182 -13.037 1.189 -13.867 1.195 C-14.611 1.206 -15.354 1.216 -16.121 1.227 C-18 1 -18 1 -20 -1 C-18.804 -0.979 -17.608 -0.959 -16.375 -0.938 C-13.696 -0.923 -11.528 -1.094 -8.875 -1.625 C-5.404 -2.078 -3.211 -1.3 0 0 Z " fill="#E7577D" transform="translate(76,190)"/>
<path d="M0 0 C1.163 2.326 1.166 3.787 1.188 6.375 C1.202 7.146 1.216 7.917 1.23 8.711 C0.978 11.218 0.252 12.833 -1 15 C-1.66 15 -2.32 15 -3 15 C-3.363 9.198 -2.257 5.36 0 0 Z " fill="#FC94B5" transform="translate(89,43)"/>
<path d="M0 0 C2.463 2.463 2.768 4.274 3.625 7.625 C3.885 8.628 4.146 9.631 4.414 10.664 C4.607 11.435 4.801 12.206 5 13 C4.01 13 3.02 13 2 13 C1.468 11.399 0.95 9.794 0.438 8.188 C0.147 7.294 -0.143 6.401 -0.441 5.48 C-1 3 -1 3 0 0 Z " fill="#F2DFC4" transform="translate(111,175)"/>
<path d="M0 0 C2.398 2.398 2.343 3.333 2.625 6.625 C2.7 7.442 2.775 8.26 2.852 9.102 C2.876 9.415 2.876 9.415 3 11 C2.01 10.67 1.02 10.34 0 10 C-0.73 7.934 -0.73 7.934 -1.188 5.438 C-1.346 4.611 -1.505 3.785 -1.668 2.934 C-1.723 2.615 -1.723 2.615 -2 1 C-1.34 0.67 -0.68 0.34 0 0 Z " fill="#E4C4AC" transform="translate(68,55)"/>
<path d="M0 0 C0.33 0 0.66 0 1 0 C0.913 1.938 0.805 3.876 0.688 5.812 C0.629 6.891 0.571 7.97 0.512 9.082 C-0.031 12.175 -0.553 13.13 -3 15 C-3.226 9.362 -2.527 5.053 0 0 Z " fill="#FD92B9" transform="translate(81,79)"/>
<path d="M0 0 C0.66 0 1.32 0 2 0 C3.467 5.225 4.226 9.581 4 15 C2 14 2 14 1.367 12.109 C0.514 8.021 -0.271 4.204 0 0 Z " fill="#D4546C" transform="translate(130,74)"/>
<path d="M0 0 C2.848 4.272 3 7.924 3 13 C2.01 13 1.02 13 0 13 C0 10.36 0 7.72 0 5 C-0.66 5 -1.32 5 -2 5 C-1.125 1.125 -1.125 1.125 0 0 Z " fill="#FC93B6" transform="translate(21,41)"/>
<path d="M0 0 C14.781 -0.554 14.781 -0.554 21 3 C17.632 4.347 15.443 3.631 12.082 2.547 C8.137 1.511 4.057 1.31 0 1 C0 0.67 0 0.34 0 0 Z " fill="#FDF7ED" transform="translate(36,30)"/>
<path d="M0 0 C-0.66 1.65 -1.32 3.3 -2 5 C-5.96 5 -9.92 5 -14 5 C-14 4.67 -14 4.34 -14 4 C-11.69 4 -9.38 4 -7 4 C-7 3.34 -7 2.68 -7 2 C-2.25 0 -2.25 0 0 0 Z " fill="#C1A482" transform="translate(85,196)"/>
<path d="M0 0 C0.33 0 0.66 0 1 0 C1.379 5.93 0.106 10.472 -2 16 C-2.66 16 -3.32 16 -4 16 C-4.424 11.338 -2.91 8.201 -1 4 C-0.627 2.677 -0.27 1.348 0 0 Z " fill="#F25983" transform="translate(165,145)"/>
<path d="M0 0 C-0.33 0.99 -0.66 1.98 -1 3 C-3.97 2.67 -6.94 2.34 -10 2 C-10 1.01 -10 0.02 -10 -1 C-6.185 -2.467 -3.71 -1.433 0 0 Z " fill="#FC9EBE" transform="translate(55,36)"/>
<path d="M0 0 C2.932 2.853 5.643 5.651 8 9 C7.67 9.165 7.67 9.165 6 10 C0.125 5.375 0.125 5.375 -1 2 C-0.67 1.34 -0.34 0.68 0 0 Z " fill="#ECD4B7" transform="translate(116,188)"/>
<path d="M0 0 C0.66 0.66 1.32 1.32 2 2 C1.828 3.875 1.828 3.875 1.25 6 C1.16 6.351 1.16 6.351 0.703 8.125 C0 10 0 10 -2 12 C-2 10.68 -2 9.36 -2 8 C-2.66 7.34 -3.32 6.68 -4 6 C-2.68 4.02 -1.36 2.04 0 0 Z " fill="#F45C88" transform="translate(160,162)"/>
<path d="M0 0 C0 2.739 -0.311 4.96 -0.875 7.625 C-0.956 8.023 -0.956 8.023 -1.367 10.039 C-1.576 10.686 -1.785 11.333 -2 12 C-2.33 12.165 -2.33 12.165 -4 13 C-4.157 4.84 -4.157 4.84 -3 2 C-2.01 1.34 -1.02 0.68 0 0 Z " fill="#ECD7B6" transform="translate(178,154)"/>
<path d="M0 0 C2.75 2.75 3.17 5.235 4 9 C3.625 11.938 3.625 11.938 3 14 C1.136 11.204 0.512 9.628 -0.188 6.438 C-0.367 5.652 -0.546 4.867 -0.73 4.059 C-1 2 -1 2 0 0 Z " fill="#E7CBA9" transform="translate(128,54)"/>
<path d="M0 0 C1.885 2.828 2.423 4.277 3.062 7.5 C3.587 10.101 4.158 12.474 5 15 C3.68 15 2.36 15 1 15 C0.67 10.05 0.34 5.1 0 0 Z " fill="#F45683" transform="translate(69,81)"/>
<path d="M0 0 C0.33 0.66 0.66 1.32 1 2 C0.67 2.165 0.67 2.165 -1 3 C-1.688 4.938 -1.688 4.938 -2 7 C-1.67 7.66 -1.34 8.32 -1 9 C-1.66 9 -2.32 9 -3 9 C-3 9.99 -3 10.98 -3 12 C-5 11 -5 11 -6 8.25 C-6 5 -6 5 -4.723 3.492 C-3.211 2.248 -1.609 1.116 0 0 Z " fill="#FCA6C1" transform="translate(27,35)"/>
<path d="M0 0 C0.557 0.371 1.114 0.742 1.688 1.125 C1.358 2.445 1.028 3.765 0.688 5.125 C-2.284 4 -4.647 2.902 -7.312 1.125 C-2.882 -1.09 -2.882 -1.09 0 0 Z " fill="#FC8FB3" transform="translate(117.3125,38.875)"/>
<path d="M0 0 C3.926 -0.573 5.92 -0.75 9.246 1.559 C11.23 3.317 13.143 5.109 15 7 C14.67 7.99 14.34 8.98 14 10 C13.361 9.072 12.721 8.144 12.062 7.188 C8.82 3.224 4.834 2.201 0 1 C0 0.67 0 0.34 0 0 Z " fill="#FDE7E3" transform="translate(172,32)"/>
<path d="M0 0 C1.45 2.901 0.454 4.56 -0.438 7.625 C-0.725 8.628 -1.012 9.631 -1.309 10.664 C-1.537 11.435 -1.765 12.206 -2 13 C-2.99 12.67 -3.98 12.34 -5 12 C-3.689 7.766 -2.056 3.926 0 0 Z " fill="#BF9673" transform="translate(99,170)"/>
<path d="M0 0 C0.66 0.33 1.32 0.66 2 1 C1.67 2.65 1.34 4.3 1 6 C0.237 6.124 -0.526 6.248 -1.312 6.375 C-4 7 -4 7 -7 9 C-5.445 5.183 -2.964 2.808 0 0 Z " fill="#C59678" transform="translate(107,161)"/>
<path d="M0 0 C2.741 2.367 4.025 4.506 5 8 C4.625 11.312 4.625 11.312 4 14 C3.67 14 3.34 14 3 14 C1.795 9.342 0.715 4.764 0 0 Z " fill="#EEC9B2" transform="translate(133,68)"/>
<path d="M0 0 C0.99 0.99 1.98 1.98 3 3 C2.67 3.66 2.34 4.32 2 5 C1.01 4.67 0.02 4.34 -1 4 C-1.124 5.114 -1.248 6.227 -1.375 7.375 C-2 11 -2 11 -4 13 C-3.405 3.405 -3.405 3.405 0 0 Z " fill="#7C3932" transform="translate(103,147)"/>
<path d="M0 0 C0.99 0.33 1.98 0.66 3 1 C3 4.96 3 8.92 3 13 C2.67 13 2.34 13 2 13 C2 10.03 2 7.06 2 4 C1.01 4.33 0.02 4.66 -1 5 C-0.67 3.35 -0.34 1.7 0 0 Z M3 0 C5 1 5 1 5 1 Z " fill="#F25788" transform="translate(103,131)"/>
<path d="M0 0 C0.33 0 0.66 0 1 0 C1.193 4.824 0.757 8.496 -1 13 C-1.66 13 -2.32 13 -3 13 C-2.451 8.429 -1.583 4.326 0 0 Z " fill="#F45D8A" transform="translate(82,60)"/>
<path d="M0 0 C3.3 0 6.6 0 10 0 C9.67 0.495 9.67 0.495 8 3 C4.375 3.188 4.375 3.188 1 3 C0.67 2.01 0.34 1.02 0 0 Z " fill="#EBD9B9" transform="translate(73,207)"/>
<path d="M0 0 C1.073 3.272 0.893 5.429 0.062 8.75 C-0.035 9.15 -0.035 9.15 -0.527 11.172 C-0.683 11.775 -0.839 12.378 -1 13 C-1.99 11.68 -2.98 10.36 -4 9 C-3.67 8.34 -3.34 7.68 -3 7 C-2.34 7 -1.68 7 -1 7 C-1 6.34 -1 5.68 -1 5 C-1.66 4.67 -2.32 4.34 -3 4 C-2.01 2.68 -1.02 1.36 0 0 Z " fill="#F25B86" transform="translate(168,132)"/>
<path d="M0 0 C0.99 0 1.98 0 3 0 C4 6.625 4 6.625 4 10 C3.34 9.67 2.68 9.34 2 9 C1.367 6.934 1.367 6.934 0.875 4.438 C0.707 3.611 0.54 2.785 0.367 1.934 C0.246 1.296 0.125 0.657 0 0 Z " fill="#FA7FA9" transform="translate(43,153)"/>
<path d="M0 0 C0.853 2.417 1.121 3.64 0.293 6.105 C0.111 6.449 0.111 6.449 -0.812 8.188 C-1.17 8.882 -1.527 9.577 -1.895 10.293 C-3 12 -3 12 -5 13 C-4.321 9.885 -3.259 7.149 -1.938 4.25 C-1.575 3.451 -1.213 2.652 -0.84 1.828 C-0.563 1.225 -0.286 0.622 0 0 Z " fill="#D45F73" transform="translate(161,177)"/>
<path d="M0 0 C0.33 0 0.66 0 1 0 C1.125 6.625 1.125 6.625 0 10 C-0.66 10 -1.32 10 -2 10 C-2.33 10.66 -2.66 11.32 -3 12 C-2.69 10.562 -2.377 9.125 -2.062 7.688 C-1.888 6.887 -1.714 6.086 -1.535 5.262 C-1 3 -1 3 0 0 Z " fill="#DFC7A4" transform="translate(169,175)"/>
<path d="M0 0 C1.65 0.33 3.3 0.66 5 1 C4.67 1.99 4.34 2.98 4 4 C1.438 5.188 1.438 5.188 -1 6 C-0.67 4.02 -0.34 2.04 0 0 Z " fill="#8F5744" transform="translate(102,151)"/>
<path d="M0 0 C0.66 0 1.32 0 2 0 C2 1.65 2 3.3 2 5 C1.34 5 0.68 5 0 5 C0 5.66 0 6.32 0 7 C-0.66 7 -1.32 7 -2 7 C-2.125 4.625 -2.125 4.625 -2 2 C-1.34 1.34 -0.68 0.68 0 0 Z " fill="#FC91B8" transform="translate(76,95)"/>
<path d="M0 0 C0.33 1.32 0.66 2.64 1 4 C1.66 4 2.32 4 3 4 C2.67 6.31 2.34 8.62 2 11 C1.34 11 0.68 11 0 11 C-1.125 3.375 -1.125 3.375 0 0 Z " fill="#CBA189" transform="translate(134,78)"/>
<path d="M0 0 C2 1 2 1 3.188 3.375 C4 6 4 6 3 9 C2.34 9 1.68 9 1 9 C-1.125 2.25 -1.125 2.25 0 0 Z " fill="#F5E1C2" transform="translate(126,47)"/>
<path d="M0 0 C1.409 2.818 0.509 4.173 -0.438 7.125 C-0.725 8.035 -1.012 8.945 -1.309 9.883 C-1.537 10.581 -1.765 11.28 -2 12 C-2.33 12 -2.66 12 -3 12 C-3.295 6.977 -2.985 4.105 0 0 Z " fill="#F37198" transform="translate(147,41)"/>
<path d="M0 0 C0.66 0.33 1.32 0.66 2 1 C0.951 3.622 0.351 4.794 -2.125 6.25 C-2.744 6.498 -3.362 6.745 -4 7 C-4 4 -4 4 -2 1.812 C-1.34 1.214 -0.68 0.616 0 0 Z " fill="#BE9A73" transform="translate(90,190)"/>
<path d="M0 0 C2.31 0 4.62 0 7 0 C7.33 1.32 7.66 2.64 8 4 C5.69 3.67 3.38 3.34 1 3 C0.67 2.01 0.34 1.02 0 0 Z " fill="#E74F7A" transform="translate(119,186)"/>
<path d="M0 0 C1.32 0.33 2.64 0.66 4 1 C3.67 2.32 3.34 3.64 3 5 C4.32 5.33 5.64 5.66 7 6 C5.35 6.33 3.7 6.66 2 7 C0.539 4.353 0 3.106 0 0 Z " fill="#FB7EA8" transform="translate(35,117)"/>
<path d="M0 0 C-1 1 -1 1 -3.562 1.062 C-3.965 1.052 -3.965 1.052 -6 1 C-6.66 2.32 -7.32 3.64 -8 5 C-7.67 3.02 -7.34 1.04 -7 -1 C-3.514 -2.202 -3.32 -2.213 0 0 Z " fill="#FA84AB" transform="translate(98,47)"/>
<path d="M0 0 C4.875 2.625 4.875 2.625 6 6 C2.347 4.75 1.219 4.329 -1 1 C-0.67 0.67 -0.34 0.34 0 0 Z " fill="#EBD4B7" transform="translate(50,193)"/>
<path d="M0 0 C0.66 0 1.32 0 2 0 C1.34 1.98 0.68 3.96 0 6 C-0.66 6 -1.32 6 -2 6 C-2.33 6.66 -2.66 7.32 -3 8 C-3 6.35 -3 4.7 -3 3 C-2.01 2.67 -1.02 2.34 0 2 C0 1.34 0 0.68 0 0 Z " fill="#D6B895" transform="translate(96,187)"/>
<path d="M0 0 C1.376 3.821 0.813 7.082 0 11 C-0.33 11.165 -0.33 11.165 -2 12 C-1.858 10.562 -1.711 9.125 -1.562 7.688 C-1.481 6.887 -1.4 6.086 -1.316 5.262 C-1 3 -1 3 0 0 Z " fill="#A23342" transform="translate(99,153)"/>
<path d="M0 0 C0.99 0 1.98 0 3 0 C4.208 3.623 3.543 4.641 2 8 C0.235 4.912 0 3.767 0 0 Z " fill="#FB86A9" transform="translate(18,46)"/>
<path d="M0 0 C0.289 0.186 0.289 0.186 1.75 1.125 C-0.897 2.586 -2.144 3.125 -5.25 3.125 C-5.58 2.465 -5.91 1.805 -6.25 1.125 C-2.804 -1.09 -2.804 -1.09 0 0 Z " fill="#FD9CBE" transform="translate(41.25,35.875)"/>
<path d="M0 0 C0 0.33 0 0.66 0 1 C-6.625 1.25 -6.625 1.25 -10 -1 C-6.185 -2.467 -3.71 -1.433 0 0 Z " fill="#EF5C84" transform="translate(76,190)"/>
<path d="M0 0 C1.65 0 3.3 0 5 0 C5.33 0.66 5.66 1.32 6 2 C3.69 2.33 1.38 2.66 -1 3 C-0.67 2.01 -0.34 1.02 0 0 Z " fill="#E44E77" transform="translate(145,188)"/>
<path d="M0 0 C0.66 0 1.32 0 2 0 C2 0.66 2 1.32 2 2 C2.66 2 3.32 2 4 2 C3.67 2.99 3.34 3.98 3 5 C1.35 5 -0.3 5 -2 5 C-1.34 3.35 -0.68 1.7 0 0 Z " fill="#F45988" transform="translate(141,185)"/>
<path d="M0 0 C0.66 0 1.32 0 2 0 C1.67 2.64 1.34 5.28 1 8 C0.34 8 -0.32 8 -1 8 C-0.67 5.36 -0.34 2.72 0 0 Z " fill="#F57399" transform="translate(83,52)"/>
<path d="M0 0 C1.32 0.33 2.64 0.66 4 1 C4 2.65 4 4.3 4 6 C3.34 6 2.68 6 2 6 C1.34 4.02 0.68 2.04 0 0 Z " fill="#F3DDC4" transform="translate(67,51)"/>
</svg>
