<?xml version="1.0" encoding="UTF-8"?>
<!-- Generator: visioncortex VTracer 0.6.12 -->
<svg version="1.1" xmlns="http://www.w3.org/2000/svg" width="207" height="235">
<path d="M0 0 C68.31 0 136.62 0 207 0 C207 77.55 207 155.1 207 235 C138.69 235 70.38 235 0 235 C0 157.45 0 79.9 0 0 Z " fill="#FDF5DE" transform="translate(0,0)"/>
<path d="M0 0 C1.774 2.046 1.774 2.046 3.383 4.457 C3.978 5.348 4.573 6.239 5.187 7.156 C8.16 11.819 11.017 16.541 13.812 21.312 C14.384 22.275 14.956 23.237 15.545 24.229 C18.016 28.425 20.253 32.446 22 37 C22.652 38.341 23.314 39.677 24 41 C26.912 38.443 28.496 35.544 30.328 32.152 C30.97 30.977 31.612 29.802 32.254 28.627 C33.247 26.794 34.238 24.96 35.228 23.125 C48.121 -0.707 48.121 -0.707 58 -4 C66.95 -5.054 76.091 -3.161 83.688 1.73 C88.319 5.547 91.134 9.264 93.148 14.922 C94 17 94 17 95.551 18.961 C98.107 22.558 98.014 26.69 98 31 C97.188 34.187 97.188 34.187 96 37 C95.691 38.176 95.381 39.351 95.062 40.562 C94.06 43.806 92.778 46.14 91 49 C90.928 49.33 90.928 49.33 90.562 51 C89.749 53.893 87.897 55.701 86 58 C85.701 58.629 85.402 59.258 85.094 59.906 C83.44 63.073 80.991 65.411 78.559 68 C76.925 70.097 76.497 71.431 76 74 C75.034 76.017 74.033 78.017 73 80 C72.67 80.681 72.34 81.361 72 82.062 C69.243 87.403 65.821 92.363 62.523 97.379 C61.167 99.712 60.465 101.38 60 104 C59.897 104.495 59.897 104.495 59.375 107 C59 110 59 110 59.566 111.891 C60.126 114.612 59.514 116.162 58.562 118.75 C58.275 119.549 57.988 120.348 57.691 121.172 C57.463 121.775 57.235 122.378 57 123 C57.66 123.33 58.32 123.66 59 124 C58.814 124.743 58.629 125.485 58.438 126.25 C58 129 58 129 58.527 130.777 C59.172 133.81 58.648 136.265 58.125 139.312 C57.934 140.457 57.743 141.602 57.547 142.781 C57.457 143.312 57.457 143.312 57 146 C56.785 147.437 56.575 148.874 56.375 150.312 C56.313 150.756 56.313 150.756 56 153 C56.66 153 57.32 153 58 153 C57.333 161.343 53.392 165.806 47.781 171.582 C45.8 173.159 44.451 173.486 42 174 C41.392 174.37 40.783 174.74 40.156 175.121 C37.034 176.394 34.776 175.697 31.5 175.062 C27.524 174.301 24.877 173.936 21 175 C18.25 173.688 18.25 173.688 16 172 C16 171.34 16 170.68 16 170 C15.68 169.948 15.68 169.948 14.062 169.688 C13.722 169.574 13.722 169.574 12 169 C11.67 168.01 11.34 167.02 11 166 C9.018 165.283 7.016 164.617 5 164 C-0.337 158.663 -1.232 148.375 -1.454 141.086 C-1.453 138.706 -1.432 136.325 -1.391 133.945 C-1.385 132.678 -1.379 131.41 -1.373 130.104 C-1.355 126.786 -1.319 123.47 -1.275 120.152 C-1.233 116.746 -1.215 113.34 -1.195 109.934 C-1.152 103.289 -1.085 96.644 -1 90 C-1.66 90 -2.32 90 -3 90 C-4.218 88.323 -4.218 88.323 -5.574 85.977 C-5.826 85.548 -5.826 85.548 -7.1 83.379 C-7.624 82.47 -8.148 81.561 -8.688 80.625 C-11.75 75.345 -14.828 70.154 -18.383 65.188 C-22.291 59.699 -25.733 53.954 -29.144 48.149 C-30.192 46.367 -31.247 44.59 -32.303 42.812 C-44.012 23.042 -44.012 23.042 -42 11 C-38.476 3.451 -30.402 -0.085 -23 -3 C-14.665 -5.025 -7.393 -4.516 0 0 Z " fill="#FCD914" transform="translate(78,29)"/>
<path d="M0 0 C2.94 2.262 4.657 3.711 5.625 7.348 C6.24 12.442 6.021 16.214 4 21 C3.691 22.176 3.381 23.351 3.062 24.562 C2.06 27.806 0.778 30.14 -1 33 C-1.072 33.33 -1.072 33.33 -1.438 35 C-2.251 37.893 -4.103 39.701 -6 42 C-6.299 42.629 -6.598 43.258 -6.906 43.906 C-8.56 47.073 -11.009 49.411 -13.441 52 C-15.075 54.097 -15.503 55.431 -16 58 C-16.966 60.017 -17.967 62.017 -19 64 C-19.33 64.681 -19.66 65.361 -20 66.062 C-22.757 71.403 -26.179 76.363 -29.477 81.379 C-30.833 83.712 -31.535 85.38 -32 88 C-32.103 88.495 -32.103 88.495 -32.625 91 C-33 94 -33 94 -32.434 95.891 C-31.874 98.612 -32.486 100.162 -33.438 102.75 C-33.725 103.549 -34.012 104.348 -34.309 105.172 C-34.537 105.775 -34.765 106.378 -35 107 C-34.34 107.33 -33.68 107.66 -33 108 C-33.186 108.743 -33.371 109.485 -33.562 110.25 C-34 113 -34 113 -33.473 114.777 C-32.828 117.81 -33.352 120.265 -33.875 123.312 C-34.066 124.457 -34.257 125.602 -34.453 126.781 C-34.543 127.312 -34.543 127.312 -35 130 C-35.215 131.437 -35.425 132.874 -35.625 134.312 C-35.687 134.756 -35.687 134.756 -36 137 C-35.34 137 -34.68 137 -34 137 C-34.667 145.343 -38.608 149.806 -44.219 155.582 C-46.2 157.159 -47.549 157.486 -50 158 C-50.608 158.37 -51.217 158.74 -51.844 159.121 C-54.966 160.394 -57.224 159.697 -60.5 159.062 C-64.476 158.301 -67.123 157.936 -71 159 C-73.75 157.687 -73.75 157.687 -76 156 C-76 155.34 -76 154.68 -76 154 C-76.32 153.948 -76.32 153.948 -77.938 153.688 C-78.278 153.574 -78.278 153.574 -80 153 C-80.33 152.01 -80.66 151.02 -81 150 C-82.982 149.283 -84.984 148.617 -87 148 C-92.337 142.663 -93.232 132.375 -93.454 125.086 C-93.453 122.706 -93.432 120.325 -93.391 117.945 C-93.385 116.678 -93.379 115.41 -93.373 114.104 C-93.355 110.786 -93.319 107.47 -93.275 104.152 C-93.233 100.746 -93.215 97.34 -93.195 93.934 C-93.152 87.289 -93.085 80.644 -93 74 C-93.66 74 -94.32 74 -95 74 C-96.218 72.323 -96.218 72.323 -97.574 69.977 C-97.826 69.548 -97.826 69.548 -99.1 67.379 C-99.624 66.47 -100.148 65.561 -100.688 64.625 C-103.748 59.348 -106.823 54.161 -110.379 49.199 C-114.727 43.095 -118.471 36.651 -122.25 30.188 C-122.963 28.974 -123.677 27.761 -124.391 26.549 C-125.697 24.33 -127 22.109 -128.302 19.887 C-129.411 18.002 -130.544 16.131 -131.703 14.276 C-133.189 11.669 -133.32 10.155 -133.188 7.188 C-133.16 6.397 -133.133 5.607 -133.105 4.793 C-133.071 4.201 -133.036 3.61 -133 3 C-132.34 4.32 -131.68 5.64 -131 7 C-130.34 7 -129.68 7 -129 7 C-128.752 7.578 -128.505 8.155 -128.25 8.75 C-127 11 -127 11 -125.125 12.75 C-121.493 16.596 -119.545 21.23 -118 26.25 C-116.87 29.358 -115.387 30.772 -113 33 C-113 33.66 -113 34.32 -113 35 C-112.01 35 -111.02 35 -110 35 C-110 35.66 -110 36.32 -110 37 C-109.34 37 -108.68 37 -108 37 C-108 38.98 -108 40.96 -108 43 C-107.381 43.248 -106.763 43.495 -106.125 43.75 C-103.605 45.233 -102.988 46.284 -102 49 C-102 49.99 -102 50.98 -102 52 C-101.34 52.33 -100.68 52.66 -100 53 C-99.586 54.961 -99.586 54.961 -99.375 57.375 C-99.3 58.166 -99.225 58.958 -99.148 59.773 C-99.033 61.512 -99 63.257 -99 65 C-98.34 65 -97.68 65 -97 65 C-96.023 66.79 -95.047 68.581 -94.07 70.371 C-93 72 -93 72 -91 73 C-90.835 72.505 -90.835 72.505 -90 70 C-88.976 89.761 -89.114 109.245 -90 129 C-87.633 128.084 -85.299 127.077 -83 126 C-82.062 123.312 -82.062 123.312 -82 121 C-82.99 120.34 -83.98 119.68 -85 119 C-85.188 115.375 -85.188 115.375 -85 112 C-85.33 111.835 -85.33 111.835 -87 111 C-85.207 105.337 -84.038 102.447 -79 99 C-78.67 98.34 -78.34 97.68 -78 97 C-78.99 96.67 -79.98 96.34 -81 96 C-81 95.34 -81 94.68 -81 94 C-80.34 93.835 -80.34 93.835 -77 93 C-78.65 93 -80.3 93 -82 93 C-81.814 92.381 -81.629 91.762 -81.438 91.125 C-81 89 -81 89 -82 87 C-81.67 86.505 -81.67 86.505 -80 84 C-78.35 84.33 -76.7 84.66 -75 85 C-75 84.01 -75 83.02 -75 82 C-73.68 82 -72.36 82 -71 82 C-70.67 82.66 -70.34 83.32 -70 84 C-68.35 84 -66.7 84 -65 84 C-65 83.01 -65 82.02 -65 81 C-64.618 80.866 -64.618 80.866 -62.688 80.188 C-60.126 79.056 -58.803 78.088 -57 76 C-58.65 76 -60.3 76 -62 76 C-61.67 75.34 -61.34 74.68 -61 74 C-60.34 74 -59.68 74 -59 74 C-58.876 73.546 -58.876 73.546 -58.25 71.25 C-56.942 67.848 -55.521 66.521 -53 64 C-53 62.68 -53 61.36 -53 60 C-51.02 60 -49.04 60 -47 60 C-47 59.34 -47 58.68 -47 58 C-47.66 57.67 -48.32 57.34 -49 57 C-45.527 55.842 -42.639 55.931 -39 56 C-38.567 55.031 -38.134 54.061 -37.688 53.062 C-36 50 -36 50 -33 49 C-32.655 47.67 -32.325 46.335 -32 45 C-30.086 41.72 -28.442 39.345 -25.438 37 C-22.57 34.647 -21.61 32.294 -20 29 C-19.01 28.67 -18.02 28.34 -17 28 C-12.57 22.157 -9.492 15.17 -6.36 8.56 C-4.212 4.106 -4.212 4.106 -2 3 C-2 3.66 -2 4.32 -2 5 C-1.34 5 -0.68 5 0 5 C0 3.35 0 1.7 0 0 Z M-110 34 C-108 35 -108 35 -108 35 Z M-81 97 C-81 97.99 -81 98.98 -81 100 C-81.99 100.33 -82.98 100.66 -84 101 C-84.66 100.34 -85.32 99.68 -86 99 C-84.35 98.34 -82.7 97.68 -81 97 Z " fill="#FCD810" transform="translate(170,45)"/>
<path d="M0 0 C1.98 0 3.96 0 6 0 C6.33 72.93 6.66 145.86 7 221 C72.34 221 137.68 221 205 221 C205.33 148.07 205.66 75.14 206 0 C206.33 0 206.66 0 207 0 C207 77.55 207 155.1 207 235 C138.69 235 70.38 235 0 235 C0 157.45 0 79.9 0 0 Z " fill="#FDFCFA" transform="translate(0,0)"/>
<path d="M0 0 C1.767 2.04 1.767 2.04 3.371 4.445 C3.966 5.336 4.561 6.226 5.174 7.143 C8.202 11.88 11.137 16.661 14 21.5 C14.597 22.487 15.194 23.475 15.809 24.492 C16.367 25.433 16.925 26.374 17.5 27.344 C18.005 28.191 18.511 29.039 19.031 29.912 C19.351 30.601 19.671 31.29 20 32 C19.835 32.33 19.835 32.33 19 34 C18.299 33.299 17.597 32.597 16.875 31.875 C15.926 31.256 14.977 30.638 14 30 C10.688 30.75 10.688 30.75 8 32 C8.66 32.99 9.32 33.98 10 35 C9.34 35 8.68 35 8 35 C8 35.66 8 36.32 8 37 C6.345 38.019 4.677 39.018 3 40 C2.835 40.33 2.835 40.33 2 42 C3.98 41.01 5.96 40.02 8 39 C7.67 40.65 7.34 42.3 7 44 C5.02 44 3.04 44 1 44 C1.165 44.99 1.165 44.99 2 50 C-4.429 44.714 -4.429 44.714 -7 42 C-5.68 42 -4.36 42 -3 42 C-3 41.34 -3 40.68 -3 40 C-4.32 39.67 -5.64 39.34 -7 39 C-7 38.34 -7 37.68 -7 37 C-8.65 36.34 -10.3 35.68 -12 35 C-12 34.34 -12 33.68 -12 33 C-12.66 33 -13.32 33 -14 33 C-14 33.66 -14 34.32 -14 35 C-14.66 35 -15.32 35 -16 35 C-15.67 35.66 -15.34 36.32 -15 37 C-13.68 37 -12.36 37 -11 37 C-11 37.66 -11 38.32 -11 39 C-11.99 39.66 -12.98 40.32 -14 41 C-14 41.66 -14 42.32 -14 43 C-16.652 44.075 -19.284 45.095 -22 46 C-27.159 41.599 -30.14 36.104 -33 30 C-33 29.34 -33 28.68 -33 28 C-34.32 27.34 -35.64 26.68 -37 26 C-37 25.01 -37 24.02 -37 23 C-37.66 23 -38.32 23 -39 23 C-39.33 22.34 -39.66 21.68 -40 21 C-40.66 22.32 -41.32 23.64 -42 25 C-43.203 11.401 -43.203 11.401 -39.25 6.5 C-28.656 -3.554 -12.917 -7.889 0 0 Z " fill="#FCDB1D" transform="translate(78,29)"/>
<path d="M0 0 C2.94 2.262 4.657 3.711 5.625 7.348 C6.24 12.442 6.021 16.214 4 21 C3.845 21.588 3.845 21.588 3.062 24.562 C2.06 27.806 0.778 30.14 -1 33 C-1.072 33.33 -1.072 33.33 -1.438 35 C-2.251 37.893 -4.103 39.701 -6 42 C-6.299 42.629 -6.598 43.258 -6.906 43.906 C-8.56 47.073 -11.009 49.411 -13.441 52 C-15.075 54.097 -15.503 55.431 -16 58 C-16.966 60.017 -17.967 62.017 -19 64 C-19.33 64.681 -19.66 65.361 -20 66.062 C-22.757 71.403 -26.179 76.363 -29.477 81.379 C-30.833 83.712 -31.535 85.38 -32 88 C-32.206 88.99 -32.412 89.98 -32.625 91 C-33 94 -33 94 -32.434 95.891 C-31.874 98.612 -32.486 100.162 -33.438 102.75 C-33.725 103.549 -34.012 104.348 -34.309 105.172 C-34.537 105.775 -34.765 106.378 -35 107 C-34.67 107.165 -34.67 107.165 -33 108 C-33.186 108.743 -33.371 109.485 -33.562 110.25 C-34 113 -34 113 -33.473 114.777 C-32.828 117.81 -33.352 120.265 -33.875 123.312 C-34.066 124.457 -34.257 125.602 -34.453 126.781 C-34.634 127.843 -34.814 128.906 -35 130 C-35.215 131.437 -35.425 132.874 -35.625 134.312 C-35.687 134.756 -35.687 134.756 -36 137 C-35.34 137 -34.68 137 -34 137 C-34.667 145.343 -38.608 149.806 -44.219 155.582 C-46.2 157.159 -47.549 157.486 -50 158 C-50.304 158.185 -50.304 158.185 -51.844 159.121 C-54.966 160.394 -57.224 159.697 -60.5 159.062 C-64.476 158.301 -67.123 157.936 -71 159 C-73.75 157.688 -73.75 157.688 -76 156 C-76 155.34 -76 154.68 -76 154 C-76.639 153.897 -77.279 153.794 -77.938 153.688 C-78.618 153.461 -79.299 153.234 -80 153 C-80.33 152.01 -80.66 151.02 -81 150 C-82.982 149.283 -84.984 148.617 -87 148 C-87.66 147.34 -88.32 146.68 -89 146 C-88.625 143.875 -88.625 143.875 -88 142 C-86.535 143.27 -85.07 144.539 -83.605 145.809 C-79.243 149.046 -73.607 148.261 -68.438 148.312 C-67.486 148.342 -66.534 148.371 -65.553 148.4 C-58.792 148.46 -52.894 147.492 -47 144 C-42.78 139.207 -41.863 133.717 -41.938 127.552 C-41.947 126.459 -41.956 125.367 -41.965 124.241 C-41.977 123.062 -41.988 121.883 -42 120.668 C-42.001 118.152 -42 115.635 -41.996 113.119 C-41.992 109.167 -42 105.217 -42.051 101.265 C-42.241 85.394 -42.223 73.577 -32 61 C-30.99 59.461 -29.997 57.911 -29.031 56.344 C-28.189 55.061 -27.346 53.78 -26.5 52.5 C-18.113 39.652 -10.387 26.446 -3 13 C-2.599 12.287 -2.198 11.574 -1.785 10.84 C-0.838 8.619 -0.587 6.65 -0.375 4.25 C-0.3 3.451 -0.225 2.652 -0.148 1.828 C-0.124 1.526 -0.124 1.526 0 0 Z " fill="#E9D5AB" transform="translate(170,45)"/>
<path d="M0 0 C3.315 2.399 6.201 5.02 9 8 C8.34 8.33 7.68 8.66 7 9 C6.711 9.804 6.423 10.609 6.125 11.438 C5 14 5 14 2.875 15.312 C2.256 15.539 1.637 15.766 1 16 C1 16.66 1 17.32 1 18 C1.99 17.67 2.98 17.34 4 17 C4 17.66 4 18.32 4 19 C3.01 19.66 2.02 20.32 1 21 C0.312 23.125 0.312 23.125 0 25 C-0.99 25 -1.98 25 -3 25 C-3.227 25.804 -3.454 26.609 -3.688 27.438 C-4.121 28.283 -4.554 29.129 -5 30 C-7.625 30.812 -7.625 30.812 -10 31 C-9.34 29.35 -8.68 27.7 -8 26 C-8.99 26.33 -9.98 26.66 -11 27 C-11.165 26.34 -11.165 26.34 -12 23 C-13.65 23.33 -15.3 23.66 -17 24 C-17 23.34 -17 22.68 -17 22 C-16.34 22 -15.68 22 -15 22 C-15.165 21.67 -15.165 21.67 -16 20 C-16.454 20.495 -16.907 20.99 -17.375 21.5 C-19 23 -19 23 -21 23 C-21.227 23.619 -21.454 24.237 -21.688 24.875 C-23.379 27.614 -24.992 28.05 -28 29 C-24.25 22.125 -24.25 22.125 -22 21 C-22 19.68 -22 18.36 -22 17 C-22.248 17.639 -22.495 18.279 -22.75 18.938 C-24 21 -24 21 -26.125 21.75 C-26.434 21.791 -26.434 21.791 -28 22 C-28 22.66 -28 23.32 -28 24 C-27.34 24.33 -26.68 24.66 -26 25 C-26.99 25.33 -27.98 25.66 -29 26 C-29.66 25.67 -30.32 25.34 -31 25 C-31 24.01 -31 23.02 -31 22 C-31.99 22 -32.98 22 -34 22 C-33.979 22.949 -33.959 23.898 -33.938 24.875 C-34 28 -34 28 -35 30 C-35.99 30 -36.98 30 -38 30 C-38 30.66 -38 31.32 -38 32 C-37.34 32.33 -36.68 32.66 -36 33 C-36.66 33.165 -36.66 33.165 -40 34 C-40.33 35.32 -40.66 36.64 -41 38 C-41.66 38.165 -41.66 38.165 -45 39 C-45 39.66 -45 40.32 -45 41 C-44.34 40.835 -44.34 40.835 -41 40 C-40.67 41.32 -40.34 42.64 -40 44 C-42.31 44.66 -44.62 45.32 -47 46 C-46.67 46.66 -46.34 47.32 -46 48 C-43.69 48 -41.38 48 -39 48 C-39 48.66 -39 49.32 -39 50 C-39.566 50.121 -40.132 50.242 -40.715 50.367 C-41.448 50.535 -42.182 50.702 -42.938 50.875 C-43.303 50.956 -43.303 50.956 -45.152 51.367 C-47 52 -47 52 -48 54 C-48.66 54 -49.32 54 -50 54 C-49.67 52.68 -49.34 51.36 -49 50 C-49.254 50.133 -49.254 50.133 -50.539 50.805 C-54.622 52.9 -58.587 54.676 -63 56 C-63 54.68 -63 53.36 -63 52 C-61.35 51.34 -59.7 50.68 -58 50 C-58 49.34 -58 48.68 -58 48 C-58.99 47.67 -59.98 47.34 -61 47 C-60.399 46.608 -59.799 46.216 -59.18 45.812 C-56.68 43.734 -55.606 41.885 -54.121 39.004 C-53.608 38.024 -53.095 37.045 -52.566 36.036 C-52.049 35.034 -51.532 34.032 -51 33 C-50.015 31.153 -49.027 29.308 -48.035 27.465 C-47.545 26.553 -47.054 25.641 -46.549 24.701 C-46.058 23.789 -45.568 22.877 -45.062 21.938 C-44.576 21.022 -44.089 20.106 -43.588 19.162 C-33.18 -0.113 -22.28 -10.087 0 0 Z " fill="#FCDD1C" transform="translate(159,29)"/>
<path d="M0 0 C0.66 1.32 1.32 2.64 2 4 C2.66 4 3.32 4 4 4 C4.248 4.578 4.495 5.155 4.75 5.75 C6 8 6 8 7.875 9.75 C11.507 13.596 13.455 18.23 15 23.25 C16.13 26.358 17.613 27.772 20 30 C20 30.66 20 31.32 20 32 C20.99 32 21.98 32 23 32 C23 32.66 23 33.32 23 34 C23.66 34 24.32 34 25 34 C25 35.98 25 37.96 25 40 C25.619 40.248 26.237 40.495 26.875 40.75 C29.395 42.233 30.012 43.284 31 46 C31 46.99 31 47.98 31 49 C31.66 49.33 32.32 49.66 33 50 C33.414 51.961 33.414 51.961 33.625 54.375 C33.7 55.166 33.775 55.958 33.852 56.773 C33.967 58.512 34 60.257 34 62 C34.66 62 35.32 62 36 62 C36.488 62.895 36.488 62.895 38.93 67.371 C40 69 40 69 42 70 C42.165 69.505 42.165 69.505 43 67 C42.998 67.371 42.998 67.371 42.987 69.251 C42.946 76.255 42.916 83.258 42.896 90.262 C42.886 93.862 42.872 97.463 42.849 101.063 C42.827 104.539 42.815 108.014 42.81 111.49 C42.805 113.459 42.789 115.429 42.773 117.399 C42.773 118.6 42.773 119.801 42.773 121.038 C42.771 121.567 42.771 121.567 42.759 124.241 C43.239 129.738 46.094 132.294 50 136 C50.33 136.33 50.66 136.66 51 137 C56.878 137.922 62.681 138.242 68.625 138.312 C69.445 138.342 70.265 138.371 71.109 138.4 C76.591 138.458 79.655 137.649 84 134 C86.375 131.25 86.375 131.25 88 129 C88.33 129.99 88.66 130.98 89 132 C89 124.08 89 116.16 89 108 C88.67 108 88.34 108 88 108 C87.95 103.001 87.914 98.003 87.89 93.004 C87.88 91.305 87.867 89.607 87.849 87.909 C87.825 85.459 87.813 83.009 87.805 80.559 C87.794 79.807 87.784 79.056 87.773 78.282 C87.772 73.483 88.482 69.558 90 65 C90.66 65 91.32 65 92 65 C92.134 64.567 92.134 64.567 92.812 62.375 C94.737 56.905 97.072 52.308 101 48 C101.66 48 102.32 48 103 48 C103.124 47.567 103.124 47.567 103.75 45.375 C105.344 41.071 107.694 37.69 110.488 34.074 C111.938 32.085 113.097 30.11 114.25 27.938 C116.225 24.305 118.367 20.838 120.625 17.375 C123.237 13.327 125.216 9.46 127 5 C127.968 3.315 128.957 1.64 130 0 C130.33 0.66 130.66 1.32 131 2 C131.66 2 132.32 2 133 2 C130.729 21.612 111.88 43.358 101.263 59.442 C100.761 60.204 100.259 60.965 99.742 61.75 C99.308 62.405 98.873 63.06 98.425 63.734 C97.955 64.482 97.485 65.23 97 66 C96.647 66.489 96.647 66.489 94.86 68.961 C91.903 74.218 92.456 80.001 92.496 85.871 C92.487 87.107 92.477 88.344 92.468 89.617 C92.439 93.558 92.436 97.497 92.438 101.438 C92.434 105.374 92.424 109.31 92.397 113.247 C92.38 115.692 92.377 118.137 92.39 120.583 C92.342 128.411 91.763 134.448 86.812 140.812 C80.002 146.11 73.191 146.476 64.875 146.375 C63.912 146.387 62.949 146.398 61.957 146.41 C55.619 146.384 51.13 145.702 46.172 141.422 C45.703 140.87 45.233 140.318 44.75 139.75 C44.27 139.209 43.791 138.667 43.297 138.109 C39.05 131.202 39.739 123.454 39.805 115.629 C39.808 114.351 39.81 113.074 39.813 111.758 C39.823 108.383 39.84 105.008 39.863 101.633 C39.883 98.18 39.892 94.728 39.902 91.275 C39.924 84.517 39.958 77.758 40 71 C39.34 71 38.68 71 38 71 C36.782 69.323 36.782 69.323 35.426 66.977 C35.174 66.548 35.174 66.548 33.9 64.379 C33.376 63.47 32.852 62.561 32.312 61.625 C29.252 56.348 26.177 51.161 22.621 46.199 C18.273 40.095 14.529 33.651 10.75 27.188 C10.037 25.974 9.323 24.761 8.609 23.549 C7.303 21.33 6 19.109 4.698 16.887 C3.589 15.002 2.456 13.131 1.297 11.276 C-0.189 8.669 -0.32 7.155 -0.188 4.188 C-0.16 3.397 -0.133 2.607 -0.105 1.793 C-0.071 1.201 -0.036 0.61 0 0 Z M23 31 C25 32 25 32 25 32 Z " fill="#F5C615" transform="translate(37,48)"/>
<path d="M0 0 C0.66 0.99 1.32 1.98 2 3 C-0.67 10.869 -0.67 10.869 -4 13 C-5.341 12.697 -6.674 12.362 -8 12 C-10.25 12.938 -10.25 12.938 -12 14 C-11.01 14.33 -10.02 14.66 -9 15 C-9 15.66 -9 16.32 -9 17 C-10.65 17 -12.3 17 -14 17 C-14 17.66 -14 18.32 -14 19 C-15.32 18.67 -16.64 18.34 -18 18 C-18.66 18.99 -19.32 19.98 -20 21 C-18.02 20.67 -16.04 20.34 -14 20 C-14 20.66 -14 21.32 -14 22 C-16.177 23.211 -18.363 24.393 -20.562 25.562 C-20.867 25.734 -20.867 25.734 -22.408 26.6 C-26.937 28.972 -29.887 29.359 -35 28 C-35.66 27.34 -36.32 26.68 -37 26 C-37 25.01 -37 24.02 -37 23 C-37.66 23 -38.32 23 -39 23 C-39.33 22.34 -39.66 21.68 -40 21 C-40.66 22.32 -41.32 23.64 -42 25 C-43.203 11.401 -43.203 11.401 -39.25 6.5 C-28.341 -3.852 -13.332 -7.41 0 0 Z " fill="#FCDF27" transform="translate(78,29)"/>
<path d="M0 0 C0.33 0.165 0.33 0.165 2 1 C1.588 5.971 1.204 10.445 -1 15 C-1.66 15 -2.32 15 -3 15 C-3.097 15.839 -3.193 16.678 -3.293 17.543 C-4.093 21.455 -5.536 24.771 -7.312 28.312 C-7.46 28.629 -7.46 28.629 -8.209 30.229 C-10.489 34.823 -10.489 34.823 -13.168 35.75 C-13.773 35.833 -14.377 35.915 -15 36 C-15.735 37.976 -16.391 39.982 -17 42 C-18.296 44.025 -19.627 46.027 -21 48 C-21.694 49.319 -22.375 50.646 -23 52 C-23.66 52 -24.32 52 -25 52 C-25.113 52.423 -25.113 52.423 -25.688 54.562 C-27 58 -27 58 -29.375 61.188 C-35.357 69.268 -36.587 78.145 -36.539 87.949 C-36.551 89.047 -36.563 90.144 -36.575 91.275 C-36.61 94.746 -36.619 98.216 -36.625 101.688 C-36.641 105.169 -36.664 108.651 -36.697 112.132 C-36.716 114.288 -36.726 116.444 -36.724 118.6 C-36.775 125.954 -36.857 134.113 -42.227 139.809 C-50.535 145.39 -63.557 142.828 -73 142 C-73 141.34 -73 140.68 -73 140 C-73.99 139.67 -74.98 139.34 -76 139 C-73.756 137.878 -72.489 137.863 -70 137.824 C-51.044 137.332 -51.044 137.332 -45 133 C-40.817 128.139 -39.862 122.761 -39.938 116.552 C-39.947 115.459 -39.956 114.367 -39.965 113.241 C-39.977 112.062 -39.988 110.883 -40 109.668 C-40.001 107.152 -40 104.635 -39.996 102.119 C-39.992 98.167 -40 94.217 -40.051 90.265 C-40.241 74.394 -40.223 62.577 -30 50 C-28.99 48.461 -27.997 46.911 -27.031 45.344 C-26.189 44.061 -25.346 42.78 -24.5 41.5 C-15.753 28.1 -7.162 14.324 0 0 Z " fill="#CFB177" transform="translate(168,56)"/>
<path d="M0 0 C0.165 0.33 0.165 0.33 1 2 C1.66 2 2.32 2 3 2 C0.729 21.612 -18.12 43.358 -28.737 59.442 C-29.239 60.204 -29.741 60.965 -30.258 61.75 C-30.692 62.405 -31.127 63.06 -31.575 63.734 C-32.045 64.482 -32.515 65.23 -33 66 C-33.706 66.977 -34.412 67.954 -35.14 68.961 C-38.097 74.218 -37.544 80.001 -37.504 85.871 C-37.513 87.107 -37.523 88.344 -37.532 89.617 C-37.561 93.558 -37.564 97.497 -37.562 101.438 C-37.566 105.374 -37.576 109.31 -37.603 113.247 C-37.62 115.692 -37.623 118.137 -37.61 120.583 C-37.658 128.411 -38.237 134.448 -43.188 140.812 C-49.998 146.11 -56.809 146.476 -65.125 146.375 C-66.088 146.387 -67.051 146.398 -68.043 146.41 C-73.432 146.388 -77.379 146.079 -82 143 C-84.375 140.312 -84.375 140.312 -86 138 C-83.532 139.152 -81.952 140.048 -80 142 C-71.119 143.66 -60.457 144.46 -52 141 C-51.392 140.856 -51.392 140.856 -48.312 140.125 C-44.767 138.921 -43.758 138.222 -42 135 C-40.961 131.882 -40.885 129.725 -40.902 126.457 C-40.906 125.384 -40.909 124.311 -40.912 123.205 C-40.92 122.086 -40.929 120.966 -40.938 119.812 C-40.942 118.681 -40.947 117.55 -40.951 116.385 C-40.963 113.59 -40.979 110.795 -41 108 C-41.33 108 -41.66 108 -42 108 C-42.05 103.001 -42.086 98.003 -42.11 93.004 C-42.12 91.305 -42.133 89.607 -42.151 87.909 C-42.175 85.459 -42.187 83.009 -42.195 80.559 C-42.206 79.807 -42.216 79.056 -42.227 78.282 C-42.228 73.483 -41.518 69.558 -40 65 C-39.34 65 -38.68 65 -38 65 C-37.732 64.134 -37.464 63.267 -37.188 62.375 C-35.263 56.905 -32.928 52.308 -29 48 C-28.34 48 -27.68 48 -27 48 C-26.752 47.134 -26.505 46.267 -26.25 45.375 C-24.656 41.071 -22.306 37.69 -19.512 34.074 C-18.062 32.085 -16.903 30.11 -15.75 27.938 C-13.775 24.305 -11.633 20.838 -9.375 17.375 C-6.763 13.327 -4.784 9.46 -3 5 C-2.032 3.315 -1.043 1.64 0 0 Z " fill="#E4A607" transform="translate(167,48)"/>
<path d="M0 0 C2.494 1.99 2.962 2.887 4 6 C3.34 6.66 2.68 7.32 2 8 C0.68 8 -0.64 8 -2 8 C-2 7.34 -2 6.68 -2 6 C-3.217 6.021 -4.434 6.041 -5.688 6.062 C-8.201 6.071 -10.272 5.944 -12.75 5.438 C-15.318 4.938 -16.498 5.295 -19 6 C-19.923 6.249 -20.846 6.498 -21.797 6.754 C-22.771 7.021 -23.746 7.288 -24.75 7.562 C-25.735 7.832 -26.72 8.101 -27.734 8.379 C-28.482 8.584 -29.23 8.789 -30 9 C-30 10.98 -30 12.96 -30 15 C-30.66 15 -31.32 15 -32 15 C-32 15.66 -32 16.32 -32 17 C-32.66 17.33 -33.32 17.66 -34 18 C-33.34 18.33 -32.68 18.66 -32 19 C-32 19.66 -32 20.32 -32 21 C-32.743 21.289 -33.485 21.578 -34.25 21.875 C-35.157 22.246 -36.065 22.617 -37 23 C-37.722 23.248 -38.444 23.495 -39.188 23.75 C-41.888 25.612 -42.196 27.919 -43 31 C-43.66 31 -44.32 31 -45 31 C-45.048 31.358 -45.048 31.358 -45.289 33.172 C-46.112 36.447 -47.426 38.503 -49.375 41.25 C-49.981 42.121 -50.587 42.993 -51.211 43.891 C-53 46 -53 46 -56 47 C-56.33 47.66 -56.66 48.32 -57 49 C-58.32 48.34 -59.64 47.68 -61 47 C-60.399 46.608 -59.799 46.216 -59.18 45.812 C-56.68 43.734 -55.606 41.885 -54.121 39.004 C-53.608 38.024 -53.095 37.045 -52.566 36.036 C-52.049 35.034 -51.532 34.032 -51 33 C-50.015 31.153 -49.027 29.308 -48.035 27.465 C-47.545 26.553 -47.054 25.641 -46.549 24.701 C-46.058 23.789 -45.568 22.877 -45.062 21.938 C-44.576 21.022 -44.089 20.106 -43.588 19.162 C-32.942 -0.553 -22.603 -9.479 0 0 Z " fill="#FDE952" transform="translate(159,29)"/>
<path d="M0 0 C1.98 0 3.96 0 6 0 C5.34 1.65 4.68 3.3 4 5 C5.98 5 7.96 5 10 5 C10.66 3.35 11.32 1.7 12 0 C12.33 1.32 12.66 2.64 13 4 C12.34 4 11.68 4 11 4 C11 5.65 11 7.3 11 9 C12.65 9.33 14.3 9.66 16 10 C15.67 10.66 15.34 11.32 15 12 C13.35 11.67 11.7 11.34 10 11 C9 14 9 14 9 17 C8.67 17.66 8.34 18.32 8 19 C9.98 18.67 11.96 18.34 14 18 C13.67 18.99 13.34 19.98 13 21 C11.68 20.67 10.36 20.34 9 20 C9.99 20.99 10.98 21.98 12 23 C10.962 25.508 10.304 26.8 8 28.312 C5.12 30.743 4.812 33.411 4 37 C4.33 37.33 4.66 37.66 5 38 C5.124 39.134 5.248 40.269 5.375 41.438 C5.581 42.613 5.787 43.789 6 45 C6.99 45.66 7.98 46.32 9 47 C7.375 52.75 7.375 52.75 4 55 C2.68 55 1.36 55 0 55 C0 36.85 0 18.7 0 0 Z M4 25 C4.66 25.33 4.66 25.33 8 27 C8.66 25.68 9.32 24.36 10 23 C7.916 23 5.902 24.22 4 25 Z " fill="#FCDB23" transform="translate(80,119)"/>
<path d="M0 0 C0.33 0.165 0.33 0.165 2 1 C-0.692 5.55 -3.573 9.962 -6.477 14.379 C-7.833 16.712 -8.535 18.38 -9 21 C-9.206 21.99 -9.412 22.98 -9.625 24 C-10 27 -10 27 -9.434 28.891 C-8.874 31.612 -9.486 33.162 -10.438 35.75 C-10.725 36.549 -11.012 37.348 -11.309 38.172 C-11.537 38.775 -11.765 39.378 -12 40 C-11.67 40.165 -11.67 40.165 -10 41 C-10.093 41.371 -10.093 41.371 -10.562 43.25 C-11 46 -11 46 -10.473 47.777 C-9.828 50.81 -10.352 53.265 -10.875 56.312 C-11.066 57.457 -11.257 58.602 -11.453 59.781 C-11.634 60.843 -11.814 61.906 -12 63 C-12.215 64.437 -12.425 65.874 -12.625 67.312 C-12.687 67.756 -12.687 67.756 -13 70 C-12.34 70 -11.68 70 -11 70 C-11.667 78.343 -15.608 82.806 -21.219 88.582 C-23.2 90.159 -24.549 90.486 -27 91 C-27.304 91.185 -27.304 91.185 -28.844 92.121 C-31.966 93.394 -34.224 92.697 -37.5 92.062 C-41.476 91.301 -44.123 90.936 -48 92 C-50.75 90.688 -50.75 90.688 -53 89 C-53 88.34 -53 87.68 -53 87 C-53.639 86.897 -54.279 86.794 -54.938 86.688 C-55.618 86.461 -56.299 86.234 -57 86 C-57.33 85.01 -57.66 84.02 -58 83 C-59.982 82.283 -61.984 81.617 -64 81 C-64.66 80.34 -65.32 79.68 -66 79 C-65.625 76.875 -65.625 76.875 -65 75 C-64.134 75.784 -63.267 76.567 -62.375 77.375 C-60.022 79.37 -58.734 80.085 -55.688 81.062 C-55.244 81.217 -55.244 81.217 -53 82 C-52.332 84.059 -52.332 84.059 -52 86 C-29.973 89.06 -29.973 89.06 -22.625 85.25 C-17.516 80.87 -16.447 76.453 -15.875 69.938 C-15.835 69.534 -15.835 69.534 -15.635 67.492 C-14.847 58.727 -14.608 49.932 -14.429 41.136 C-13.997 23.871 -10.918 13.309 0 0 Z " fill="#E9D6AD" transform="translate(147,112)"/>
<path d="M0 0 C1.08 3.304 1.055 3.869 -0.379 7.301 C-1.092 8.646 -1.821 9.983 -2.562 11.312 C-2.763 11.68 -2.763 11.68 -3.776 13.542 C-12.078 28.575 -21.28 43.115 -30.737 57.443 C-31.239 58.204 -31.741 58.965 -32.258 59.75 C-32.692 60.405 -33.127 61.06 -33.575 61.734 C-34.045 62.482 -34.515 63.23 -35 64 C-35.706 64.977 -36.412 65.954 -37.14 66.961 C-40.097 72.218 -39.544 78.001 -39.504 83.871 C-39.513 85.107 -39.523 86.344 -39.532 87.617 C-39.561 91.558 -39.564 95.497 -39.562 99.438 C-39.566 103.374 -39.576 107.31 -39.603 111.247 C-39.62 113.692 -39.623 116.137 -39.61 118.583 C-39.658 126.411 -40.237 132.448 -45.188 138.812 C-51.998 144.11 -58.809 144.476 -67.125 144.375 C-68.088 144.387 -69.051 144.398 -70.043 144.41 C-75.432 144.388 -79.379 144.079 -84 141 C-86.375 138.312 -86.375 138.312 -88 136 C-85.532 137.152 -83.952 138.048 -82 140 C-73.119 141.66 -62.457 142.46 -54 139 C-53.392 138.856 -53.392 138.856 -50.312 138.125 C-46.695 136.896 -45.749 136.314 -44 133 C-41.254 127.003 -41.93 121.037 -42.148 114.605 C-43.191 63.726 -43.191 63.726 -27.031 46.297 C-23.842 42.691 -21.524 38.655 -19.125 34.5 C-18.264 33.073 -17.401 31.647 -16.535 30.223 C-15.69 28.815 -14.845 27.408 -14 26 C-13.549 25.252 -13.097 24.504 -12.632 23.734 C-11.269 21.472 -9.915 19.206 -8.562 16.938 C-8.362 16.604 -8.362 16.604 -7.346 14.918 C-4.5 10.104 -2.178 5.149 0 0 Z " fill="#A47322" transform="translate(169,50)"/>
<path d="M0 0 C0.33 0 0.66 0 1 0 C1.051 6.974 1.086 13.948 1.11 20.923 C1.12 23.293 1.134 25.664 1.151 28.034 C1.175 31.45 1.187 34.865 1.195 38.281 C1.206 39.334 1.216 40.386 1.227 41.47 C1.228 48.877 1.189 57.065 -4.227 62.809 C-12.535 68.39 -25.557 65.828 -35 65 C-35 64.34 -35 63.68 -35 63 C-35.99 62.67 -36.98 62.34 -38 62 C-35.756 60.878 -34.489 60.863 -32 60.824 C-13.044 60.332 -13.044 60.332 -7 56 C-2.246 50.475 -1.851 44.275 -1.719 37.305 C-1.7 36.557 -1.682 35.81 -1.663 35.04 C-1.604 32.651 -1.552 30.263 -1.5 27.875 C-1.087 9.003 -1.087 9.003 0 0 Z " fill="#D6BD88" transform="translate(130,133)"/>
<path d="M0 0 C1.062 1.688 1.062 1.688 2.062 4.688 C-4.395 7.199 -13.136 9.982 -19.938 7.688 C-19.938 8.347 -19.938 9.008 -19.938 9.688 C-19.278 10.017 -18.617 10.347 -17.938 10.688 C-18.215 10.797 -18.215 10.797 -19.617 11.352 C-25.608 13.974 -25.608 13.974 -27.438 17.938 C-27.602 18.845 -27.767 19.752 -27.938 20.688 C-29.258 20.358 -30.578 20.028 -31.938 19.688 C-31.938 19.028 -31.938 18.367 -31.938 17.688 C-32.597 17.688 -33.258 17.688 -33.938 17.688 C-33.836 13.52 -32.822 11.129 -30.062 8.125 C-23.731 2.225 -8.432 -5.712 0 0 Z " fill="#FDEA50" transform="translate(69.9375,26.3125)"/>
<path d="M0 0 C3 1 3 1 4 3 C4.07 4.54 4.085 6.083 4.062 7.625 C4.053 8.442 4.044 9.26 4.035 10.102 C4.024 10.728 4.012 11.355 4 12 C3.01 11.67 2.02 11.34 1 11 C-1.008 14.393 -2.835 17.591 -4.312 21.25 C-6.473 26.555 -9.857 31.239 -13 36 C-14.792 32.491 -16 30.024 -16 26 C-13.908 21.599 -11.455 17.455 -8 14 C-7.375 11.875 -7.375 11.875 -7 10 C-5.68 10 -4.36 10 -3 10 C-3.99 9.67 -4.98 9.34 -6 9 C-6 7 -6 7 -3.562 4.5 C-2.717 3.675 -1.871 2.85 -1 2 C-0.67 1.34 -0.34 0.68 0 0 Z " fill="#FCD409" transform="translate(166,38)"/>
<path d="M0 0 C0 2.947 -0.457 4.893 -1.312 7.688 C-1.584 8.577 -1.856 9.466 -2.137 10.383 C-2.886 12.655 -3.722 14.848 -4.625 17.062 C-7.76 25.305 -7.205 34.68 -7.438 43.375 C-7.712 51.916 -8.044 60.431 -8.875 68.938 C-8.908 69.315 -8.908 69.315 -9.076 71.226 C-9.702 77.01 -11.515 81.231 -16 85 C-21.563 88.223 -27.279 88.185 -33.5 87.812 C-34.219 87.77 -34.938 87.728 -35.678 87.685 C-37.461 87.54 -39.234 87.28 -41 87 C-41.33 86.34 -41.66 85.68 -42 85 C-41.201 85.023 -40.402 85.046 -39.578 85.07 C-19.956 85.393 -19.956 85.393 -14.375 80.875 C-10.861 73.528 -10.73 66.477 -10.762 58.484 C-10.746 56.241 -10.73 53.997 -10.713 51.754 C-10.696 48.254 -10.687 44.755 -10.695 41.255 C-10.707 25.069 -10.402 13.077 0 0 Z " fill="#E0CA9D" transform="translate(141,113)"/>
<path d="M0 0 C1.125 1.688 1.125 1.688 2 4 C1.066 7.482 -0.195 9.753 -3 12 C-5.664 12.695 -5.664 12.695 -8.625 13.125 C-13.917 13.917 -13.917 13.917 -15 15 C-34.241 16.207 -34.241 16.207 -39.5 12 C-39.995 11.34 -40.49 10.68 -41 10 C-41.99 9.67 -42.98 9.34 -44 9 C-45.188 5.938 -45.188 5.938 -46 3 C-45.67 3.165 -45.67 3.165 -44 4 C-44 4.66 -44 5.32 -44 6 C-43.635 6.072 -43.635 6.072 -41.789 6.434 C-40.112 6.774 -38.438 7.135 -36.773 7.535 C-30.589 8.895 -24.498 9.273 -18.188 9.375 C-17.375 9.401 -16.563 9.427 -15.726 9.453 C-10.335 9.471 -7.261 8.6 -3 5 C-1.125 2.25 -1.125 2.25 0 0 Z " fill="#E5A708" transform="translate(124,177)"/>
<path d="M0 0 C0.33 0 0.66 0 1 0 C1 11.55 1 23.1 1 35 C0.67 35.165 0.67 35.165 -1 36 C-1.33 35.34 -1.66 34.68 -2 34 C-2.743 34.949 -3.485 35.898 -4.25 36.875 C-6.263 39.447 -7.989 40.725 -11 42 C-13.071 42.243 -13.071 42.243 -15.266 42.23 C-15.67 42.23 -15.67 42.23 -17.715 42.225 C-18.551 42.212 -19.388 42.2 -20.25 42.188 C-21.071 42.187 -21.892 42.186 -22.738 42.186 C-27.905 42.149 -32.886 41.736 -38 41 C-34.503 38.669 -32.13 38.56 -28 38 C-25.986 37.377 -23.98 36.724 -22 36 C-21.67 36.99 -21.34 37.98 -21 39 C-20.693 38.964 -20.693 38.964 -19.137 38.781 C-18.328 38.688 -17.52 38.596 -16.688 38.5 C-15.887 38.407 -15.086 38.314 -14.262 38.219 C-12 38 -12 38 -9 38 C-4.704 34.318 -3.688 31.698 -3.25 26.062 C-3.16 24.042 -3.076 22.021 -3 20 C-2.346 13.693 -2.346 13.693 -1 11 C-0.772 9.129 -0.59 7.253 -0.438 5.375 C-0.354 4.372 -0.27 3.369 -0.184 2.336 C-0.153 1.951 -0.153 1.951 0 0 Z " fill="#F8C403" transform="translate(126,145)"/>
<path d="M0 0 C5.633 0.382 8.902 0.778 13 5 C13.165 5.495 13.165 5.495 14 8 C13.34 8.66 12.68 9.32 12 10 C10.68 10 9.36 10 8 10 C8 9.34 8 8.68 8 8 C6.783 8.021 5.566 8.041 4.312 8.062 C1.799 8.071 -0.272 7.944 -2.75 7.438 C-5.318 6.938 -6.498 7.295 -9 8 C-9.923 8.249 -10.846 8.498 -11.797 8.754 C-12.771 9.021 -13.746 9.288 -14.75 9.562 C-15.242 9.697 -15.242 9.697 -17.734 10.379 C-18.482 10.584 -19.23 10.789 -20 11 C-20 12.98 -20 14.96 -20 17 C-20.66 17 -21.32 17 -22 17 C-22 17.66 -22 18.32 -22 19 C-22.66 19.33 -23.32 19.66 -24 20 C-23.34 20.33 -22.68 20.66 -22 21 C-22 21.66 -22 22.32 -22 23 C-22.763 23.289 -23.526 23.578 -24.312 23.875 C-27 25 -27 25 -30 27 C-28.531 21.658 -26.039 17.554 -23 13 C-22.584 12.33 -22.167 11.659 -21.738 10.969 C-18.665 6.237 -18.665 6.237 -15.375 5.062 C-13.584 5.015 -11.792 5 -10 5 C-7.736 4.533 -5.499 3.985 -3.254 3.438 C-1 3 -1 3 3 3 C2.01 2.01 1.02 1.02 0 0 Z " fill="#FDE331" transform="translate(149,27)"/>
<path d="M0 0 C0.66 0 1.32 0 2 0 C0.87 4.314 -0.678 6.933 -3.645 10.23 C-5.292 12.382 -6.349 14.611 -7.5 17.062 C-8.968 20.149 -9.962 21.963 -12.438 24.375 C-16.498 28.534 -18.571 33.767 -21 39 C-21.66 39 -22.32 39 -23 39 C-23.844 44.21 -24.199 49.285 -24.316 54.559 C-24.337 55.348 -24.358 56.137 -24.379 56.95 C-24.444 59.446 -24.503 61.942 -24.562 64.438 C-24.606 66.14 -24.649 67.842 -24.693 69.545 C-24.8 73.697 -24.901 77.848 -25 82 C-26.774 78.662 -27.58 75.78 -28 72 C-27.835 71.835 -27.835 71.835 -27 71 C-26.949 69.408 -26.965 67.815 -27.008 66.223 C-27.025 65.233 -27.041 64.244 -27.059 63.225 C-27.102 61.151 -27.154 59.079 -27.215 57.006 C-27.348 47.576 -25.351 40.029 -20.938 31.688 C-19.459 28.871 -18.073 26.205 -17.004 23.207 C-16.673 22.479 -16.341 21.75 -16 21 C-15.01 20.67 -14.02 20.34 -13 20 C-12.655 18.67 -12.325 17.335 -12 16 C-10.086 12.72 -8.442 10.345 -5.438 8 C-2.571 5.648 -1.456 3.373 0 0 Z " fill="#F8C502" transform="translate(150,74)"/>
<path d="M0 0 C0.33 0 0.66 0 1 0 C3.153 8.075 2.453 17.072 0 25 C-1.812 28 -1.812 28 -4 31 C-5.747 34.295 -7.38 37.641 -9 41 C-9.66 41 -10.32 41 -11 41 C-11.062 41.536 -11.124 42.072 -11.188 42.625 C-12.14 45.41 -13.735 47.1 -15.668 49.277 C-17.589 51.762 -18.771 54.489 -20.008 57.363 C-21 59 -21 59 -24 60 C-23.411 56.056 -22.214 53.176 -20.188 49.75 C-19.686 48.879 -19.185 48.007 -18.668 47.109 C-16.766 44.705 -15.906 44.549 -13 44 C-12.062 41.625 -12.062 41.625 -11 38 C-9.752 35.141 -8.439 32.316 -7.121 29.488 C-6 27 -6 27 -5 24 C-4.34 24 -3.68 24 -3 24 C-1.877 19.112 -1.439 14.168 -0.938 9.188 C-0.847 8.304 -0.756 7.42 -0.662 6.51 C-0.439 4.34 -0.219 2.17 0 0 Z M-25 60 C-24.67 60.66 -24.34 61.32 -24 62 C-25.32 63.32 -26.64 64.64 -28 66 C-27.625 63.562 -27.625 63.562 -27 61 C-26.34 60.67 -25.68 60.34 -25 60 Z " fill="#DEC695" transform="translate(170,47)"/>
<path d="M0 0 C0.33 0 0.66 0 1 0 C0.996 0.743 0.991 1.486 0.987 2.251 C0.946 9.255 0.916 16.258 0.896 23.262 C0.886 26.862 0.872 30.463 0.849 34.063 C0.827 37.539 0.815 41.014 0.81 44.49 C0.805 46.459 0.789 48.429 0.773 50.399 C0.773 51.6 0.773 52.801 0.773 54.038 C0.769 55.095 0.764 56.152 0.759 57.241 C1.238 62.735 4.09 65.296 8 69 C6 70 6 70 3.562 69.438 C0.125 67.509 -0.504 65.609 -2 62 C-2.399 59.001 -2.399 59.001 -2.432 55.811 C-2.452 54.61 -2.472 53.409 -2.492 52.172 C-2.499 50.891 -2.505 49.609 -2.512 48.289 C-2.529 46.952 -2.547 45.616 -2.566 44.279 C-2.613 40.778 -2.643 37.276 -2.67 33.774 C-2.699 30.194 -2.746 26.615 -2.791 23.035 C-2.877 16.024 -2.944 9.012 -3 2 C-2.01 2.33 -1.02 2.66 0 3 C0 2.01 0 1.02 0 0 Z " fill="#FACC1E" transform="translate(79,115)"/>
<path d="M0 0 C0.33 0 0.66 0 1 0 C1.451 4.586 0.151 6.909 -2.375 10.688 C-2.688 11.164 -2.688 11.164 -4.273 13.574 C-6 16 -6 16 -8 18 C-8.688 19.657 -9.375 21.313 -10.059 22.972 C-11.815 26.757 -14.191 30.159 -16.5 33.625 C-17.469 35.096 -18.438 36.567 -19.406 38.039 C-19.859 38.721 -20.311 39.404 -20.777 40.106 C-21.813 41.711 -22.775 43.363 -23.719 45.023 C-23.93 45.35 -23.93 45.35 -25 47 C-25.66 47 -26.32 47 -27 47 C-27.124 47.743 -27.248 48.485 -27.375 49.25 C-27.955 51.801 -28.737 53.727 -30 56 C-30.66 56 -31.32 56 -32 56 C-32.33 56.99 -32.66 57.98 -33 59 C-32.806 51.695 -29.092 46.734 -25.188 40.75 C-24.851 40.223 -24.851 40.223 -23.149 37.558 C-21.772 35.403 -20.39 33.252 -19.002 31.103 C-16.616 27.405 -14.253 23.691 -11.9 19.972 C-10.919 18.422 -9.935 16.874 -8.946 15.329 C-5.762 10.325 -2.828 5.213 0 0 Z " fill="#C5A363" transform="translate(162,67)"/>
<path d="M0 0 C2.103 -0.108 4.208 -0.186 6.312 -0.25 C6.898 -0.273 6.898 -0.273 9.863 -0.391 C13 0 13 0 14.918 2.016 C15.097 2.343 15.097 2.343 16 4 C15.305 4.133 14.61 4.266 13.895 4.402 C10.801 5.041 7.75 5.789 4.688 6.562 C3.619 6.832 2.55 7.101 1.449 7.379 C0.641 7.584 -0.167 7.789 -1 8 C-1 7.34 -1 6.68 -1 6 C-6.875 8.75 -6.875 8.75 -8 11 C-8.66 11 -9.32 11 -10 11 C-8.544 4.447 -8.544 4.447 -6.25 2.562 C-2.677 1.669 0.651 1.326 4 3 C4.66 2.67 5.32 2.34 6 2 C5.01 1.835 5.01 1.835 0 1 C0 0.67 0 0.34 0 0 Z " fill="#FDE83F" transform="translate(137,26)"/>
<path d="M0 0 C0.33 0.99 0.66 1.98 1 3 C-0.262 5.046 -1.603 7.044 -3 9 C-4.139 11.088 -4.992 12.974 -5.688 15.25 C-8.63 21.414 -14.136 26.283 -19 31 C-18.498 26.309 -17.318 23.44 -14.562 19.625 C-14.254 19.188 -14.254 19.188 -12.691 16.977 C-12.133 16.324 -11.575 15.672 -11 15 C-10.34 15 -9.68 15 -9 15 C-8.732 14.278 -8.464 13.556 -8.188 12.812 C-6.138 7.957 -3.354 4.048 0 0 Z " fill="#E6D1A3" transform="translate(158,91)"/>
<path d="M0 0 C1.98 0 3.96 0 6 0 C5.34 1.65 4.68 3.3 4 5 C5.32 5.33 6.64 5.66 8 6 C6.625 8 6.625 8 5 10 C4.34 10 3.68 10 3 10 C3.371 11.258 3.743 12.516 4.125 13.812 C4.758 15.957 4.758 15.957 5 18 C4.34 18.99 3.68 19.98 3 21 C2.01 21 1.02 21 0 21 C0 14.07 0 7.14 0 0 Z " fill="#FCDD2E" transform="translate(80,119)"/>
<path d="M0 0 C1.32 0.33 2.64 0.66 4 1 C4 2.32 4 3.64 4 5 C4.307 5.033 4.307 5.033 5.863 5.199 C8 6 8 6 9.23 8.145 C9.388 8.585 9.388 8.585 10.188 10.812 C10.511 11.685 10.835 12.558 11.168 13.457 C11.878 15.628 12.487 17.776 13 20 C13.99 20 14.98 20 16 20 C16 20.66 16 21.32 16 22 C16.66 22 17.32 22 18 22 C18 24.31 18 26.62 18 29 C18.639 29.268 19.279 29.536 19.938 29.812 C22 31 22 31 23 34 C22.505 34.165 22.505 34.165 20 35 C17.222 31.838 15.542 28.925 13.939 25.062 C12.081 20.981 9.718 17.169 7.438 13.312 C6.456 11.643 5.475 9.972 4.496 8.301 C4.065 7.57 3.634 6.84 3.189 6.087 C2.051 4.089 1.007 2.066 0 0 Z " fill="#F2E2B9" transform="translate(82,35)"/>
<path d="M0 0 C0.33 0 0.66 0 1 0 C1 11.55 1 23.1 1 35 C0.67 35.165 0.67 35.165 -1 36 C-3.395 33.605 -3.256 33.054 -3.266 29.789 C-3.268 28.956 -3.271 28.124 -3.273 27.266 C-3.266 26.394 -3.258 25.523 -3.25 24.625 C-3.258 23.761 -3.265 22.898 -3.273 22.008 C-3.271 21.173 -3.268 20.337 -3.266 19.477 C-3.263 18.714 -3.261 17.952 -3.259 17.167 C-2.968 14.731 -2.145 13.15 -1 11 C-0.586 8.203 -0.586 8.203 -0.375 5.25 C-0.3 4.265 -0.225 3.28 -0.148 2.266 C-0.099 1.518 -0.05 0.77 0 0 Z " fill="#F2B906" transform="translate(126,145)"/>
<path d="M0 0 C0.33 0 0.66 0 1 0 C1.505 5.299 0.365 7.907 -3 12 C-7.177 15.196 -11.148 15.567 -16.25 15.75 C-17.003 15.786 -17.755 15.822 -18.531 15.859 C-23.791 16.069 -28.794 15.852 -34 15 C-34 14.34 -34 13.68 -34 13 C-34.99 12.67 -35.98 12.34 -37 12 C-32.744 10.839 -29.316 11.238 -25 12 C-25 12.33 -25 12.66 -25 13 C-18.73 13 -12.46 13 -6 13 C-4.549 10.099 -3.183 7.214 -1.875 4.25 C-1.698 3.85 -1.698 3.85 -0.805 1.828 C-0.539 1.225 -0.274 0.622 0 0 Z " fill="#D5BD8E" transform="translate(129,183)"/>
<path d="M0 0 C1.5 1.375 1.5 1.375 3 3 C3 3.66 3 4.32 3 5 C3.66 5 4.32 5 5 5 C5 15.23 5 25.46 5 36 C4.01 35.67 3.02 35.34 2 35 C1.975 34.127 1.95 33.253 1.924 32.354 C1.829 29.124 1.73 25.894 1.628 22.665 C1.584 21.265 1.543 19.865 1.503 18.466 C1.445 16.457 1.381 14.449 1.316 12.441 C1.28 11.232 1.243 10.022 1.205 8.776 C1 6 1 6 0 5 C-0.041 3.334 -0.043 1.666 0 0 Z " fill="#F9F0CD" transform="translate(72,114)"/>
<path d="M0 0 C0.66 0.33 1.32 0.66 2 1 C1.505 1.495 1.505 1.495 -1 4 C-0.67 4.99 -0.34 5.98 0 7 C0.578 6.196 1.155 5.391 1.75 4.562 C3.981 2.021 4.745 1.349 8 1 C8 1.66 8 2.32 8 3 C8.66 3.33 9.32 3.66 10 4 C9.446 4.219 8.891 4.438 8.32 4.664 C2.329 7.286 2.329 7.286 0.5 11.25 C0.335 12.157 0.17 13.065 0 14 C-1.32 13.67 -2.64 13.34 -4 13 C-4 12.34 -4 11.68 -4 11 C-4.66 11 -5.32 11 -6 11 C-5.627 5.65 -4.004 3.491 0 0 Z " fill="#FCE33F" transform="translate(42,33)"/>
<path d="M0 0 C-2.308 3.461 -2.957 3.529 -6.812 4.5 C-12.834 6.172 -16.716 8.399 -21 13 C-21.688 11.25 -21.688 11.25 -22 9 C-18.531 3.383 -14.943 2.21 -8.777 0.598 C-5.785 -0.046 -3.053 -0.248 0 0 Z " fill="#FDEE68" transform="translate(62,28)"/>
<path d="M0 0 C0 4.69 -2.056 8.528 -4.562 12.438 C-8.871 20.119 -8.416 28.939 -8.625 37.5 C-8.664 38.799 -8.702 40.099 -8.742 41.438 C-8.836 44.625 -8.922 47.812 -9 51 C-9.33 51 -9.66 51 -10 51 C-10.125 46.663 -10.215 42.326 -10.275 37.987 C-10.3 36.517 -10.333 35.047 -10.377 33.577 C-10.756 20.517 -8.271 10.398 0 0 Z " fill="#DBC38F" transform="translate(141,113)"/>
<path d="M0 0 C0.99 0 1.98 0 3 0 C2.272 2.228 1.536 4.452 0.785 6.672 C0.195 8.422 -0.376 10.178 -0.938 11.938 C-2.243 14.472 -3.424 14.92 -6 16 C-6.33 16.66 -6.66 17.32 -7 18 C-8.32 17.34 -9.64 16.68 -11 16 C-10.703 15.81 -10.703 15.81 -9.199 14.848 C-6.566 12.635 -5.39 10.483 -3.812 7.438 C-3.303 6.467 -2.794 5.496 -2.27 4.496 C-1.508 3 -0.751 1.502 0 0 Z " fill="#FBDE2F" transform="translate(109,60)"/>
<path d="M0 0 C0.33 0.165 0.33 0.165 2 1 C2 1.66 2 2.32 2 3 C6.429 3.9 10.87 4.733 15.312 5.562 C16.053 5.701 16.794 5.84 17.557 5.982 C19.371 6.322 21.186 6.661 23 7 C23 7.33 23 7.66 23 8 C18.148 9.991 13.205 10.922 8 10 C6.418 8.543 6.418 8.543 5 7 C4.01 6.67 3.02 6.34 2 6 C0.812 2.938 0.812 2.938 0 0 Z " fill="#EAAD07" transform="translate(78,180)"/>
<path d="M0 0 C2.106 1.708 2.938 2.521 3.293 5.262 C3.258 6.062 3.223 6.863 3.188 7.688 C3.16 8.496 3.133 9.304 3.105 10.137 C3.071 10.752 3.036 11.366 3 12 C2.01 11.67 1.02 11.34 0 11 C-2.089 14.529 -4.036 17.942 -5.562 21.75 C-6.813 24.578 -7.644 26.093 -10 28 C-10 26.68 -10 25.36 -10 24 C-9.34 24 -8.68 24 -8 24 C-7.902 23.408 -7.804 22.817 -7.703 22.207 C-6.441 15.538 -6.441 15.538 -4 12.562 C-1.048 8.78 -0.689 4.668 0 0 Z " fill="#F4BD02" transform="translate(167,38)"/>
<path d="M0 0 C4.431 1.208 6.981 2.517 10 6 C9.34 7.65 8.68 9.3 8 11 C3.25 9.125 3.25 9.125 1 8 C0.67 8.99 0.34 9.98 0 11 C-0.66 10.67 -1.32 10.34 -2 10 C-1.505 9.051 -1.01 8.102 -0.5 7.125 C1 4 1 4 1 2 C0.34 1.67 -0.32 1.34 -1 1 C-0.67 0.67 -0.34 0.34 0 0 Z " fill="#FDE43A" transform="translate(70,26)"/>
<path d="M0 0 C0 3 0 3 0 3 Z M-2 3 C-1.67 3.66 -1.34 4.32 -1 5 C-1.66 5 -2.32 5 -3 5 C-3.33 5.99 -3.66 6.98 -4 8 C-9.786 10.741 -15.692 11.35 -22 11 C-22 10.67 -22 10.34 -22 10 C-22.99 9.835 -22.99 9.835 -28 9 C-28 8.67 -28 8.34 -28 8 C-26.961 7.974 -25.922 7.948 -24.852 7.922 C-16.524 7.617 -9.546 6.9 -2 3 Z " fill="#C9AE7A" transform="translate(125,186)"/>
<path d="M0 0 C0.33 0.66 0.66 1.32 1 2 C0.062 4.125 0.062 4.125 -1 6 C-1.66 6 -2.32 6 -3 6 C-2.917 6.866 -2.835 7.733 -2.75 8.625 C-3.056 12.76 -4.521 14.746 -7 18 C-8.853 14.874 -9.372 12.627 -9 9 C-8.34 8.01 -7.68 7.02 -7 6 C-6.34 6 -5.68 6 -5 6 C-5 5.34 -5 4.68 -5 4 C-3.374 2.618 -1.707 1.281 0 0 Z " fill="#FBCE04" transform="translate(160,56)"/>
<path d="M0 0 C0.66 0.66 1.32 1.32 2 2 C1.687 6.585 0.246 10.026 -2 14 C-2.412 14.763 -2.825 15.526 -3.25 16.312 C-6.456 19.404 -10.687 18.972 -14.938 19.062 C-15.618 19.042 -16.299 19.021 -17 19 C-14.618 17.717 -12.409 16.815 -9.812 16 C-7 15 -7 15 -6 13 C-5.34 13 -4.68 13 -4 13 C-3.519 11.584 -3.04 10.167 -2.562 8.75 C-2.296 7.961 -2.029 7.172 -1.754 6.359 C-1.08 4.252 -0.508 2.152 0 0 Z " fill="#CEB482" transform="translate(128,178)"/>
<path d="M0 0 C0 3 0 3 -1.5 5 C-7.942 10.153 -14.599 10.411 -22.5 10.188 C-23.418 10.174 -24.336 10.16 -25.281 10.146 C-27.521 10.111 -29.76 10.062 -32 10 C-32 9.67 -32 9.34 -32 9 C-30.889 8.963 -29.778 8.925 -28.633 8.887 C-7.74 8.031 -7.74 8.031 -1.875 2.312 C-1.256 1.549 -0.638 0.786 0 0 Z " fill="#95651B" transform="translate(125,184)"/>
<path d="M0 0 C0.33 0.66 0.66 1.32 1 2 C-0.145 4.242 -0.145 4.242 -1.812 6.875 C-3.692 9.866 -5.479 12.81 -7 16 C-7.66 16 -8.32 16 -9 16 C-9.289 16.969 -9.577 17.939 -9.875 18.938 C-11 22 -11 22 -13 23 C-12.735 17.703 -10.71 14.89 -7.473 10.93 C-6.022 9.029 -4.997 7.167 -4 5 C-3.34 5 -2.68 5 -2 5 C-1.34 3.35 -0.68 1.7 0 0 Z " fill="#D4B881" transform="translate(152,92)"/>
<path d="M0 0 C0 0.99 0 1.98 0 3 C-1.98 3 -3.96 3 -6 3 C-6 2.67 -6 2.34 -6 2 C-11.569 2.48 -16.671 3.299 -22 5 C-16.088 -2.303 -8.387 -1.143 0 0 Z " fill="#FDEC57" transform="translate(67,27)"/>
<path d="M0 0 C5.624 0.381 8.905 0.777 13 5 C13 5.66 13 6.32 13 7 C11.02 6.67 11.02 6.67 1 5 C1.66 4.34 2.32 3.68 3 3 C2.01 2.01 1.02 1.02 0 0 Z " fill="#FDE73F" transform="translate(149,27)"/>
<path d="M0 0 C1.734 0.059 1.734 0.059 4 1 C5.59 3.347 6.935 5.571 8.25 8.062 C8.614 8.726 8.977 9.389 9.352 10.072 C10.246 11.708 11.125 13.353 12 15 C10.68 15 9.36 15 8 15 C7.041 13.25 6.083 11.5 5.125 9.75 C4.591 8.775 4.058 7.801 3.508 6.797 C2.296 4.549 1.125 2.293 0 0 Z " fill="#EBDAB3" transform="translate(60,98)"/>
<path d="M0 0 C0.66 0 1.32 0 2 0 C2 0.99 2 1.98 2 3 C2.66 2.67 3.32 2.34 4 2 C5.32 3.32 6.64 4.64 8 6 C7.67 6.495 7.67 6.495 6 9 C5.01 9 4.02 9 3 9 C2.67 8.34 2.34 7.68 2 7 C1.01 7 0.02 7 -1 7 C-2 4 -2 4 -1.062 1.812 C-0.887 1.513 -0.887 1.513 0 0 Z " fill="#FDE129" transform="translate(77,41)"/>
<path d="M0 0 C0.33 0.66 0.66 1.32 1 2 C-0.003 4.434 -1.06 6.722 -2.25 9.062 C-2.563 9.713 -2.876 10.363 -3.199 11.033 C-5.628 15.876 -5.628 15.876 -9 17 C-7.959 13.134 -6.963 9.505 -5 6 C-4.34 6 -3.68 6 -3 6 C-2.691 5.196 -2.381 4.391 -2.062 3.562 C-1 1 -1 1 0 0 Z " fill="#D6BB86" transform="translate(163,75)"/>
<path d="M0 0 C0.33 0.66 0.66 1.32 1 2 C0.687 2.127 0.687 2.127 -0.898 2.77 C-1.716 3.114 -2.533 3.458 -3.375 3.812 C-4.187 4.149 -4.999 4.485 -5.836 4.832 C-8 6 -8 6 -10 9 C-10.66 9 -11.32 9 -12 9 C-10.544 2.447 -10.544 2.447 -8.25 0.562 C-5.442 -0.139 -2.882 -0.131 0 0 Z " fill="#FDEE6C" transform="translate(139,28)"/>
<path d="M0 0 C0.33 0.66 0.66 1.32 1 2 C1.66 2 2.32 2 3 2 C3 4.31 3 6.62 3 9 C3.639 9.268 4.279 9.536 4.938 9.812 C7 11 7 11 8 14 C7.01 14.33 6.02 14.66 5 15 C2.277 11.823 0.118 9.067 -1 5 C-0.625 2.188 -0.625 2.188 0 0 Z " fill="#F4E4B8" transform="translate(97,55)"/>
<path d="M0 0 C0.66 0 1.32 0 2 0 C1.01 3.63 0.02 7.26 -1 11 C-1.66 11 -2.32 11 -3 11 C-3 11.66 -3 12.32 -3 13 C-3.99 13.33 -4.98 13.66 -6 14 C-5.419 10.24 -4.348 7.47 -2.438 4.188 C-1.982 3.397 -1.527 2.607 -1.059 1.793 C-0.884 1.497 -0.884 1.497 0 0 Z " fill="#FCDF2F" transform="translate(118,44)"/>
<path d="M0 0 C-1.65 1.65 -3.3 3.3 -5 5 C-5.66 4.67 -6.32 4.34 -7 4 C-10.836 3.83 -14.265 4.121 -18 5 C-13.032 -0.752 -7.054 -0.247 0 0 Z " fill="#FDEC58" transform="translate(146,25)"/>
<path d="M0 0 C0.33 0.99 0.66 1.98 1 3 C0.505 3.33 0.505 3.33 -2 5 C-1.34 3.35 -0.68 1.7 0 0 Z M-3 5 C-2.25 6.625 -2.25 6.625 -2 9 C-5.178 14.589 -5.178 14.589 -8 16 C-7.547 11.126 -6.291 8.61 -3 5 Z " fill="#E3CC9D" transform="translate(147,106)"/>
<path d="M0 0 C0 0.66 0 1.32 0 2 C-1.913 2.391 -3.831 2.762 -5.75 3.125 C-6.817 3.334 -7.885 3.543 -8.984 3.758 C-12.137 4.011 -13.4 3.704 -16 2 C-5.626 -1.629 -5.626 -1.629 0 0 Z " fill="#FCE640" transform="translate(66,31)"/>
<path d="M0 0 C0.66 0.33 1.32 0.66 2 1 C3.171 6.1 3.83 11.383 1 16 C0.34 16.33 -0.32 16.66 -1 17 C-0.67 11.39 -0.34 5.78 0 0 Z " fill="#EDDCB3" transform="translate(173,49)"/>
<path d="M0 0 C1.5 1.375 1.5 1.375 3 3 C3 3.66 3 4.32 3 5 C3.66 5 4.32 5 5 5 C5 7.64 5 10.28 5 13 C4.01 12.67 3.02 12.34 2 12 C0.511 7.925 -0.263 4.335 0 0 Z " fill="#ECDCB0" transform="translate(72,114)"/>
<path d="M0 0 C0.66 0 1.32 0 2 0 C2 0.66 2 1.32 2 2 C2.99 2.33 3.98 2.66 5 3 C5.33 4.98 5.66 6.96 6 9 C5.34 9 4.68 9 4 9 C4 8.34 4 7.68 4 7 C2.35 7 0.7 7 -1 7 C-1.33 6.34 -1.66 5.68 -2 5 C-1.34 4.67 -0.68 4.34 0 4 C0 2.68 0 1.36 0 0 Z " fill="#FCD30D" transform="translate(93,60)"/>
<path d="M0 0 C2.97 0.495 2.97 0.495 18 3 C18 3.33 18 3.66 18 4 C17.397 3.988 16.793 3.977 16.172 3.965 C15.373 3.956 14.573 3.947 13.75 3.938 C12.961 3.926 12.172 3.914 11.359 3.902 C9 4 9 4 6.875 4.586 C5 5 5 5 2.25 3.688 C1.507 3.131 0.765 2.574 0 2 C0 1.34 0 0.68 0 0 Z " fill="#E9D7AF" transform="translate(94,199)"/>
<path d="M0 0 C0.33 0.165 0.33 0.165 2 1 C2 1.66 2 2.32 2 3 C2.763 3.124 3.526 3.248 4.312 3.375 C7 4 7 4 10 6 C10 6.99 10 7.98 10 9 C7.055 8.369 4.482 7.737 2 6 C0.75 2.875 0.75 2.875 0 0 Z " fill="#F1B81C" transform="translate(78,180)"/>
<path d="M0 0 C0.66 0.33 1.32 0.66 2 1 C1.242 2.652 0.468 4.296 -0.312 5.938 C-0.527 6.396 -0.527 6.396 -1.613 8.715 C-3 11 -3 11 -6 12 C-5.543 6.973 -3.008 3.851 0 0 Z " fill="#FDE232" transform="translate(127,30)"/>
<path d="M0 0 C0.99 0.33 1.98 0.66 3 1 C3.467 5.58 3.173 8.249 0.5 11.938 C-0.325 12.948 -1.15 13.959 -2 15 C-2.33 14.34 -2.66 13.68 -3 13 C-2.223 10.836 -2.223 10.836 -1.062 8.375 C-0.682 7.558 -0.302 6.74 0.09 5.898 C0.39 5.272 0.691 4.645 1 4 C0.34 4 -0.32 4 -1 4 C-0.67 2.68 -0.34 1.36 0 0 Z " fill="#FCE447" transform="translate(111,56)"/>
<path d="M0 0 C0 3 0 3 0 3 Z M-2 3 C-1.67 3.66 -1.34 4.32 -1 5 C-1.66 5 -2.32 5 -3 5 C-3.33 5.99 -3.66 6.98 -4 8 C-6.875 8.625 -6.875 8.625 -10 9 C-10.66 8.34 -11.32 7.68 -12 7 C-8.7 5.68 -5.4 4.36 -2 3 Z " fill="#C1A46F" transform="translate(125,186)"/>
<path d="M0 0 C7 8.448 7 8.448 7 12 C3.346 10.782 3.042 9.856 1.25 6.562 C0.801 5.759 0.353 4.956 -0.109 4.129 C-0.403 3.426 -0.697 2.724 -1 2 C-0.67 1.34 -0.34 0.68 0 0 Z " fill="#F0E0B9" transform="translate(47,74)"/>
<path d="M0 0 C-0.812 1.938 -0.812 1.938 -2 4 C-2.99 4.33 -3.98 4.66 -5 5 C-5.33 5.66 -5.66 6.32 -6 7 C-7.32 6.34 -8.64 5.68 -10 5 C-3.409 0 -3.409 0 0 0 Z " fill="#FCE544" transform="translate(108,71)"/>
<path d="M0 0 C0.66 0.33 1.32 0.66 2 1 C1.744 2.461 1.47 3.919 1.188 5.375 C1.037 6.187 0.886 6.999 0.73 7.836 C0 10 0 10 -3 12 C-3.348 7.123 -2.417 4.229 0 0 Z " fill="#CEB174" transform="translate(166,60)"/>
<path d="M0 0 C0.75 1.625 0.75 1.625 1 4 C-0.938 7.25 -0.938 7.25 -3 10 C-4.125 8.25 -4.125 8.25 -5 6 C-3.929 2.689 -2.987 1.991 0 0 Z " fill="#F6C202" transform="translate(156,64)"/>
<path d="M0 0 C2.64 3.186 5.105 6.31 7 10 C6.67 10.66 6.34 11.32 6 12 C1.772 9.093 1.772 9.093 0 7 C-0.375 3.188 -0.375 3.188 0 0 Z " fill="#F5C527" transform="translate(91,51)"/>
<path d="M0 0 C2.615 2.366 4.39 4.86 6 8 C5.67 8.66 5.34 9.32 5 10 C4.01 10 3.02 10 2 10 C-0.094 6.598 -0.179 3.947 0 0 Z " fill="#F7C923" transform="translate(85,41)"/>
<path d="M0 0 C5.922 5.64 5.922 5.64 6.188 10.25 C6.126 11.157 6.064 12.065 6 13 C3.338 11.669 3.054 10.324 1.875 7.625 C1.522 6.834 1.169 6.042 0.805 5.227 C0 3 0 3 0 0 Z " fill="#FDDB14" transform="translate(79,34)"/>
<path d="M0 0 C0.66 0.33 1.32 0.66 2 1 C0.35 3.64 -1.3 6.28 -3 9 C-3.66 8.67 -4.32 8.34 -5 8 C-4.458 4.204 -2.799 2.528 0 0 Z " fill="#DC9B05" transform="translate(137,102)"/>
<path d="M0 0 C0.33 0 0.66 0 1 0 C2.203 6.496 1.584 11.61 0 18 C-0.33 18 -0.66 18 -1 18 C-1.099 11.889 -1.071 6.026 0 0 Z " fill="#DAC190" transform="translate(170,47)"/>
<path d="M0 0 C0.66 0 1.32 0 2 0 C2 0.99 2 1.98 2 3 C2.66 3 3.32 3 4 3 C5.562 5.812 5.562 5.812 7 9 C6.67 9.99 6.34 10.98 6 12 C4.995 10.378 3.996 8.753 3 7.125 C2.443 6.22 1.886 5.315 1.312 4.383 C0 2 0 2 0 0 Z " fill="#DFAC2D" transform="translate(69,107)"/>
<path d="M0 0 C0.66 0 1.32 0 2 0 C0.723 4.993 -1.173 7.576 -5 11 C-4.329 6.806 -2.144 3.597 0 0 Z " fill="#F3BB02" transform="translate(150,74)"/>
<path d="M0 0 C2.106 1.708 2.938 2.521 3.293 5.262 C3.258 6.062 3.223 6.863 3.188 7.688 C3.16 8.496 3.133 9.304 3.105 10.137 C3.071 10.752 3.036 11.366 3 12 C2.67 12 2.34 12 2 12 C1.67 10.35 1.34 8.7 1 7 C0.67 7.165 0.67 7.165 -1 8 C-0.67 5.36 -0.34 2.72 0 0 Z " fill="#EEBB28" transform="translate(167,38)"/>
<path d="M0 0 C0.66 0.33 1.32 0.66 2 1 C1.484 1.392 0.969 1.784 0.438 2.188 C0.2 2.487 0.2 2.487 -1 4 C-0.688 6.688 -0.688 6.688 0 9 C-0.99 9 -1.98 9 -3 9 C-3 8.34 -3 7.68 -3 7 C-3.66 7 -4.32 7 -5 7 C-3.707 4.116 -2.341 2.128 0 0 Z " fill="#FDE650" transform="translate(42,33)"/>
<path d="M0 0 C0.66 0 1.32 0 2 0 C1.688 3.375 1.688 3.375 1 7 C0.505 7.33 0.505 7.33 -2 9 C-2.25 3.375 -2.25 3.375 0 0 Z " fill="#ECDCB6" transform="translate(134,182)"/>
<path d="M0 0 C0.66 0 1.32 0 2 0 C3.765 3.088 4 4.233 4 8 C3.01 7.67 2.02 7.34 1 7 C0.67 4.69 0.34 2.38 0 0 Z " fill="#FBC905" transform="translate(43,60)"/>
<path d="M0 0 C1.98 1.65 3.96 3.3 6 5 C5.34 5.66 4.68 6.32 4 7 C2 5.75 2 5.75 0 4 C0 2.68 0 1.36 0 0 Z " fill="#EEDEB9" transform="translate(81,187)"/>
<path d="M0 0 C3.062 0.188 3.062 0.188 5.062 2.188 C2.148 2.997 0.601 3.406 -2.25 2.25 C-2.807 1.899 -3.364 1.549 -3.938 1.188 C-2.938 0.188 -2.938 0.188 0 0 Z " fill="#FDEB50" transform="translate(147.9375,27.8125)"/>
<path d="M0 0 C0 3.731 -1.18 5.781 -3 9 C-3.33 9.165 -3.33 9.165 -5 10 C-4.497 5.599 -2.912 3.288 0 0 Z " fill="#ECD8AE" transform="translate(154,100)"/>
<path d="M0 0 C1.32 0 2.64 0 4 0 C4.33 2.31 4.66 4.62 5 7 C2.474 4.637 1.112 3.335 0 0 Z " fill="#E5B324" transform="translate(64,100)"/>
<path d="M0 0 C2.938 1.312 2.938 1.312 6 3 C6.33 3.99 6.66 4.98 7 6 C6.01 6.33 5.02 6.66 4 7 C0 2.25 0 2.25 0 0 Z " fill="#F2D89C" transform="translate(98,63)"/>
<path d="M0 0 C0.33 0.66 0.66 1.32 1 2 C0.004 3.945 0.004 3.945 -1.438 6.125 C-1.911 6.849 -2.384 7.574 -2.871 8.32 C-3.244 8.875 -3.616 9.429 -4 10 C-4.33 9.34 -4.66 8.68 -5 8 C-4.258 6.309 -4.258 6.309 -3.125 4.438 C-2.756 3.817 -2.388 3.197 -2.008 2.559 C-1 1 -1 1 0 0 Z " fill="#ECAE00" transform="translate(137,97)"/>
</svg>
