<?xml version="1.0" encoding="UTF-8"?>
<!-- Generator: visioncortex VTracer 0.6.12 -->
<svg version="1.1" xmlns="http://www.w3.org/2000/svg" width="171" height="200">
<path d="M0 0 C56.43 0 112.86 0 171 0 C171 66 171 132 171 200 C114.57 200 58.14 200 0 200 C0 134 0 68 0 0 Z " fill="#FCF8F1" transform="translate(0,0)"/>
<path d="M0 0 C-0.422 0.459 -0.843 0.918 -1.277 1.391 C-1.825 2.004 -2.373 2.618 -2.938 3.25 C-3.483 3.853 -4.028 4.457 -4.59 5.078 C-7.081 8.473 -7.115 11.774 -7.027 15.887 C-7.015 16.826 -7.003 17.765 -6.99 18.732 C-6.955 20.683 -6.916 22.634 -6.873 24.584 C-6.77 33.496 -7.469 40.81 -13 48 C-12.212 48.037 -11.425 48.075 -10.613 48.113 C-2.48 48.604 5.12 49.949 13 52 C12.679 51.331 12.358 50.662 12.027 49.973 C8.862 40.813 10.33 30.215 14.43 21.641 C16.793 17.666 19.473 14.02 23 11 C23.66 11 24.32 11 25 11 C25.227 10.216 25.454 9.432 25.688 8.625 C27 6 27 6 29.438 4.688 C32 4 32 4 35 4 C37.523 6.724 38.638 9.594 40 13 C41.976 16.143 43.581 17.591 47 19 C49.219 19.23 49.219 19.23 51.5 19.188 C52.253 19.181 53.006 19.175 53.781 19.168 C56 19 56 19 57.953 18.508 C63.954 17.019 70.15 17.207 75.688 20 C76.781 20.66 77.874 21.32 79 22 C78.777 27.456 77.569 30.451 73.785 34.422 C67.918 39.608 62.555 40.444 54.832 40.434 C51.617 39.941 49.658 38.832 47 37 C47.012 37.941 47.023 38.882 47.035 39.852 C47.044 41.097 47.053 42.342 47.062 43.625 C47.074 44.855 47.086 46.085 47.098 47.352 C47.009 50.677 46.637 53.74 46 57 C56.104 64.53 56.104 64.53 62.188 64 C66.402 63.664 68.195 64.391 71.438 67.125 C75.63 71.063 77.921 74.945 78.145 80.762 C78.035 82.057 77.925 83.353 77.812 84.688 C77.716 85.991 77.619 87.294 77.52 88.637 C77 92 77 92 75 95 C74.01 95 73.02 95 72 95 C72 96.98 72 98.96 72 101 C73.32 100.67 74.64 100.34 76 100 C76.061 100.88 76.121 101.761 76.184 102.668 C76.225 103.249 76.225 103.249 76.438 106.188 C76.519 107.336 76.6 108.485 76.684 109.668 C76.954 112.516 77.375 115.212 78 118 C78.66 118 79.32 118 80 118 C83 123.75 83 123.75 83 126 C82.01 126 81.02 126 80 126 C80.012 126.759 80.023 127.519 80.035 128.301 C80.044 129.295 80.053 130.289 80.062 131.312 C80.074 132.299 80.086 133.285 80.098 134.301 C80 137 80 137 79 140 C81.97 140.33 84.94 140.66 88 141 C88.225 137.042 88.427 133.084 88.625 129.125 C88.689 127.997 88.754 126.869 88.82 125.707 C88.872 124.631 88.923 123.554 88.977 122.445 C89.029 121.45 89.081 120.455 89.135 119.43 C89 117 89 117 87 115 C86.402 112.434 86.402 112.434 85.938 109.438 C85.097 104.097 85.097 104.097 84 103 C83.316 95.261 83.286 89.335 88 83 C89.938 83.688 89.938 83.688 92 85 C92.75 87.625 92.75 87.625 93 90 C93.66 90 94.32 90 95 90 C95.876 83.457 96.355 78.234 94 72 C93.67 73.65 93.34 75.3 93 77 C87.427 76.101 83.717 72 80 68 C78.817 65.935 77.893 63.877 76.969 61.688 C75.392 58.941 72.822 58.192 70 57 C69.67 56.01 69.34 55.02 69 54 C75.514 54.295 79.497 55.535 85 59 C86.176 59.433 87.351 59.866 88.562 60.312 C94.888 63.418 98.035 68.091 100.397 74.688 C101.732 79.81 101.475 85.138 101.527 90.398 C101.657 95.67 102.037 99.444 105 104 C105.722 104.619 106.444 105.238 107.188 105.875 C109.473 108.555 109.381 110.517 109.207 113.961 C108.932 116.669 108.534 119.331 108 122 C104.031 121.15 100.955 120.313 98.5 116.938 C96.719 114.637 95.765 114.55 93 114 C93.012 114.904 93.023 115.807 93.035 116.738 C93.044 117.918 93.053 119.097 93.062 120.312 C93.074 121.484 93.086 122.656 93.098 123.863 C93 127 93 127 92 130 C91.822 131.517 91.683 133.039 91.57 134.562 C91.497 135.442 91.423 136.321 91.348 137.227 C91.199 139.075 91.059 140.924 90.926 142.773 C90.85 143.653 90.774 144.532 90.695 145.438 C90.634 146.241 90.572 147.044 90.508 147.871 C89.892 150.454 89.113 151.419 87 153 C83.898 153.328 83.898 153.328 80.375 153.25 C79.791 153.242 79.791 153.242 76.836 153.203 C74 153 74 153 73 152 C72.521 148.076 72.997 145.791 75 142.5 C78.119 136.782 77.65 130.327 77 124 C75.977 121.074 75.977 121.074 75 119 C74.34 119 73.68 119 73 119 C72.897 119.639 72.794 120.279 72.688 120.938 C72.461 121.618 72.234 122.299 72 123 C71.505 123.165 71.505 123.165 69 124 C68.34 123.67 67.68 123.34 67 123 C66.938 123.443 66.938 123.443 66.625 125.688 C66 129 66 129 65.016 131.324 C63.541 135.21 63.24 139.148 62.758 143.258 C62 146 62 146 60.32 147.855 C57.311 149.34 55.089 149.296 51.75 149.188 C51.211 149.174 51.211 149.174 48.484 149.105 C47.665 149.071 46.845 149.036 46 149 C45.472 144.143 46.06 141.566 48.5 137.312 C51.643 131.567 51.496 126.409 51 120 C51.385 119.885 51.385 119.885 53.336 119.301 C54.339 118.975 55.342 118.649 56.375 118.312 C57.373 117.999 58.37 117.686 59.398 117.363 C62.659 115.654 62.89 114.419 64 111 C65.473 109.051 65.473 109.051 67.062 107.312 C68.675 105.535 69.925 104.15 71 102 C70.464 102.093 70.464 102.093 67.75 102.562 C62.69 103.153 62.69 103.153 60 102 C58.042 100.413 57.09 99.585 56.699 97.055 C56.695 96.335 56.691 95.616 56.688 94.875 C56.116 87.577 51.361 81.742 46 77 C46.119 77.736 46.237 78.472 46.359 79.23 C47.42 87.261 47.42 87.261 45.188 91.188 C43 93 43 93 41 93 C41.058 94.111 41.116 95.222 41.176 96.367 C41.797 113.41 41.797 113.41 36 120 C34.016 120.938 34.016 120.938 32 121 C28.053 118.206 27.129 113.478 26 109 C25.812 105.938 25.812 105.938 26 104 C24.886 104.041 23.772 104.082 22.625 104.125 C19 104 19 104 17 102 C16.388 96.326 17.026 90.598 18 85 C17.385 85.361 16.77 85.722 16.137 86.094 C15.733 86.326 15.733 86.326 13.688 87.5 C13.287 87.732 13.287 87.732 11.262 88.906 C9 90 9 90 6 90 C6.371 90.66 6.742 91.32 7.125 92 C8.364 96.248 7.281 98.8 6 103 C4.35 102.67 2.7 102.34 1 102 C1.33 103.98 1.66 105.96 2 108 C-3.614 105.559 -3.614 105.559 -5.188 103.281 C-6.235 100.34 -6.193 97.865 -6.125 94.75 C-6.107 93.672 -6.089 92.595 -6.07 91.484 C-6.047 90.665 -6.024 89.845 -6 89 C-7.052 88.938 -8.104 88.876 -9.188 88.812 C-13.663 87.859 -15.123 86.47 -18 83 C-18.165 82.67 -18.165 82.67 -19 81 C-20.093 80.567 -21.186 80.134 -22.312 79.688 C-25.986 78.194 -27.846 76.397 -30 73 C-32.782 63.825 -30.143 57.286 -26 49 C-24.129 45.061 -23.779 42.042 -23.875 37.688 C-23.893 36.619 -23.911 35.55 -23.93 34.449 C-23.953 33.641 -23.976 32.833 -24 32 C-24.315 32.035 -24.315 32.035 -25.906 32.211 C-32.003 32.597 -35.571 31.858 -40.238 27.844 C-44.027 23.878 -46.636 20.144 -47.562 14.688 C-47 12 -47 12 -45.562 10.125 C-40.299 7.814 -34.94 8.453 -29.625 10.375 C-26 12 -26 12 -23 14 C-21.68 14 -20.36 14 -19 14 C-18.033 12.599 -17.076 11.188 -16.203 9.727 C-12.449 4.339 -6.625 -0.358 0 0 Z " fill="#352C21" transform="translate(53,37)"/>
<path d="M0 0 C-0.422 0.459 -0.843 0.918 -1.277 1.391 C-1.825 2.004 -2.373 2.618 -2.938 3.25 C-3.483 3.853 -4.028 4.457 -4.59 5.078 C-7.081 8.473 -7.115 11.774 -7.027 15.887 C-7.015 16.826 -7.003 17.765 -6.99 18.732 C-6.955 20.683 -6.916 22.634 -6.873 24.584 C-6.77 33.496 -7.469 40.81 -13 48 C-12.236 48.037 -11.471 48.075 -10.684 48.113 C-2.012 48.645 6.612 49.656 15 52 C15.33 52.66 15.66 53.32 16 54 C18.312 55.445 20.588 56.742 23 58 C23.721 58.391 24.441 58.781 25.184 59.184 C30.653 61.923 34.018 62.305 40 61 C40.648 62.781 40.648 62.781 41 65 C38.248 70.457 33.387 73.177 27.953 75.469 C26 76 26 76 24 75 C24.33 71.7 24.66 68.4 25 65 C22.218 66.391 21.448 68.302 20 71 C20 71.66 20 72.32 20 73 C20 75 20 75 18.625 76.562 C17 78 17 78 15 79 C15 79.66 15 80.32 15 81 C12.583 81.027 10.167 81.047 7.75 81.062 C7.409 81.067 7.409 81.067 5.684 81.088 C2.267 81.104 -0.714 80.891 -4 80 C-5.749 79.934 -7.5 79.914 -9.25 79.938 C-10.142 79.947 -11.034 79.956 -11.953 79.965 C-12.629 79.976 -13.304 79.988 -14 80 C-13.241 80.061 -12.481 80.121 -11.699 80.184 C-11.202 80.225 -11.202 80.225 -8.688 80.438 C-8.194 80.478 -8.194 80.478 -5.699 80.684 C-3 81 -3 81 0 82 C0 82.66 0 83.32 0 84 C2.31 83.67 2.31 83.67 14 82 C12.062 85.876 11.375 86.964 7.457 88.457 C0.648 89.962 -7.99 90.617 -14.312 87.25 C-17 85 -17 85 -18 82.938 C-19 81 -19 81 -22.375 79.562 C-26.298 77.872 -27.741 76.562 -30 73 C-32.782 63.825 -30.143 57.286 -26 49 C-24.129 45.061 -23.779 42.042 -23.875 37.688 C-23.893 36.619 -23.911 35.55 -23.93 34.449 C-23.953 33.641 -23.976 32.833 -24 32 C-24.315 32.035 -24.315 32.035 -25.906 32.211 C-32.003 32.597 -35.571 31.858 -40.238 27.844 C-44.027 23.878 -46.636 20.144 -47.562 14.688 C-47 12 -47 12 -45.562 10.125 C-40.299 7.814 -34.94 8.453 -29.625 10.375 C-26 12 -26 12 -23 14 C-21.68 14 -20.36 14 -19 14 C-18.033 12.599 -17.076 11.188 -16.203 9.727 C-12.449 4.339 -6.625 -0.358 0 0 Z " fill="#F7A699" transform="translate(53,37)"/>
<path d="M0 0 C3.889 1.476 5.187 3.488 7.188 7.062 C9.967 11.967 9.967 11.967 11 13 C11.243 15.255 11.383 17.509 11.523 19.773 C12.107 22.5 12.702 23.426 15 25 C17.48 25.293 17.48 25.293 20.188 25.188 C21.089 25.16 21.99 25.133 22.918 25.105 C23.605 25.071 24.292 25.036 25 25 C23.59 29.487 21.282 31.718 18 35 C17.732 35.866 17.464 36.733 17.188 37.625 C15.521 40.959 13.391 41.363 9.973 42.52 C8 43 8 43 5 43 C5.165 43.495 5.33 43.99 5.5 44.5 C6.972 51.862 5.849 55.732 2.293 62.137 C0.288 66.576 -0.316 71.202 -1.031 75.996 C-2 79 -2 79 -4.379 80.891 C-9.843 83.203 -14.638 82.093 -20 80 C-20.266 76.368 -20.134 74.271 -18.5 70.969 C-16.329 66.119 -16.673 61.284 -16.812 56.062 C-16.826 55.092 -16.84 54.122 -16.854 53.123 C-16.889 50.748 -16.938 48.374 -17 46 C-18.248 46.031 -19.496 46.062 -20.781 46.094 C-24.852 46.195 -27.481 45.111 -31 43 C-31.049 43.664 -31.098 44.328 -31.148 45.012 C-31.223 45.895 -31.298 46.778 -31.375 47.688 C-31.445 48.558 -31.514 49.428 -31.586 50.324 C-32 53 -32 53 -33.039 55.496 C-34.131 58.342 -34.139 60.345 -34 63.375 C-33.918 68.07 -34.237 71.639 -36 76 C-39.249 78.166 -40.186 78.25 -43.938 78.188 C-44.365 78.184 -44.365 78.184 -46.527 78.168 C-48.812 78.013 -50.806 77.636 -53 77 C-53.401 72.994 -53.122 71.205 -51.031 67.688 C-47.9 61.658 -48.324 55.149 -48.25 48.5 C-48.22 47.201 -48.191 45.901 -48.16 44.562 C-48.09 41.375 -48.037 38.188 -48 35 C-47.67 35 -47.34 35 -47 35 C-47 40.28 -47 45.56 -47 51 C-46.505 50.835 -46.505 50.835 -44 50 C-43 51 -43 51 -42.938 53.562 C-42.958 54.367 -42.979 55.171 -43 56 C-43.99 56 -44.98 56 -46 56 C-46.33 58.97 -46.66 61.94 -47 65 C-46.01 64.835 -46.01 64.835 -41 64 C-40.67 58.39 -40.34 52.78 -40 47 C-40.66 47 -41.32 47 -42 47 C-44.371 42.037 -46.432 37.541 -47 32 C-47.66 32.66 -48.32 33.32 -49 34 C-49 32.35 -49 30.7 -49 29 C-47.68 29.33 -46.36 29.66 -45 30 C-45.33 28.02 -45.66 26.04 -46 24 C-44.02 24.66 -42.04 25.32 -40 26 C-39.803 24.585 -39.618 23.168 -39.438 21.75 C-39.333 20.961 -39.229 20.172 -39.121 19.359 C-39 16.995 -39.304 15.249 -40 13 C-35.729 10.817 -31.498 8.687 -27 7 C-27.165 8.114 -27.33 9.227 -27.5 10.375 C-28.121 15.255 -28.091 20.089 -28 25 C-27.422 25.144 -26.845 25.289 -26.25 25.438 C-25.507 25.623 -24.765 25.809 -24 26 C-23.294 26.086 -22.587 26.173 -21.859 26.262 C-20 27 -20 27 -18.953 29.145 C-18.721 30.025 -18.489 30.905 -18.25 31.812 C-18.008 32.685 -17.765 33.558 -17.516 34.457 C-17 37 -17 37 -17 41 C-16.01 41.33 -15.02 41.66 -14 42 C-14 42.66 -14 43.32 -14 44 C-10.421 42.807 -10.082 42.095 -8.312 38.875 C-6.003 34.155 -5.834 30.531 -6.062 25.312 C-6.34 18.55 -6.34 18.55 -4.684 15.871 C-3.587 14.815 -2.471 13.777 -1.336 12.762 C1.393 9.163 0.419 4.288 0 0 Z " fill="#CFB59B" transform="translate(99,114)"/>
<path d="M0 0 C3.161 1.37 3.993 1.989 6 5 C6.155 5.402 6.155 5.402 6.938 7.438 C8.318 10.767 9.69 13.208 12.82 15.102 C15.228 16.094 16.908 16.236 19.5 16.188 C20.253 16.181 21.006 16.175 21.781 16.168 C24 16 24 16 25.953 15.508 C31.954 14.019 38.15 14.207 43.688 17 C44.781 17.66 45.874 18.32 47 19 C46.777 24.456 45.569 27.451 41.785 31.422 C35.918 36.608 30.555 37.444 22.832 37.434 C19.617 36.941 17.658 35.832 15 34 C15.012 34.953 15.023 35.905 15.035 36.887 C15.044 38.141 15.053 39.395 15.062 40.688 C15.074 41.929 15.086 43.17 15.098 44.449 C14.967 49.195 14.648 52.029 12 56 C11.318 57.326 10.648 58.658 10 60 C9.464 59.814 8.927 59.629 8.375 59.438 C6 59 6 59 3.312 59.688 C-1.554 60.147 -4.769 58.255 -9 56 C-9.731 55.625 -10.462 55.25 -11.215 54.863 C-15.03 52.725 -18.396 50.455 -20.371 46.398 C-22.825 37.042 -21.709 27.296 -17.57 18.641 C-15.207 14.666 -12.527 11.02 -9 8 C-8.34 8 -7.68 8 -7 8 C-6.773 7.216 -6.546 6.432 -6.312 5.625 C-5 3 -5 3 -2.375 1.688 C-1.983 1.574 -1.983 1.574 0 1 C0 0.67 0 0.34 0 0 Z " fill="#373027" transform="translate(85,40)"/>
<path d="M0 0 C6.514 0.295 10.497 1.535 16 5 C17.176 5.433 18.351 5.866 19.562 6.312 C25.888 9.418 29.035 14.091 31.397 20.688 C32.732 25.81 32.475 31.138 32.527 36.398 C32.657 41.67 33.037 45.444 36 50 C36.722 50.619 37.444 51.238 38.188 51.875 C40.473 54.555 40.381 56.517 40.207 59.961 C39.932 62.669 39.534 65.331 39 68 C35.031 67.15 31.955 66.313 29.5 62.938 C27.719 60.637 26.765 60.55 24 60 C24.012 60.904 24.023 61.807 24.035 62.738 C24.044 63.918 24.053 65.097 24.062 66.312 C24.074 67.484 24.086 68.656 24.098 69.863 C24 73 24 73 23 76 C22.822 77.517 22.683 79.039 22.57 80.562 C22.497 81.442 22.423 82.321 22.348 83.227 C22.199 85.075 22.059 86.924 21.926 88.773 C21.85 89.653 21.774 90.532 21.695 91.438 C21.634 92.241 21.572 93.044 21.508 93.871 C20.892 96.454 20.113 97.419 18 99 C14.898 99.328 14.898 99.328 11.375 99.25 C10.791 99.242 10.791 99.242 7.836 99.203 C5 99 5 99 4 98 C3.521 94.076 3.997 91.791 6 88.5 C9.119 82.782 8.65 76.327 8 70 C6.977 67.074 6.977 67.074 6 65 C5.34 65 4.68 65 4 65 C3.897 65.639 3.794 66.279 3.688 66.938 C3.461 67.618 3.234 68.299 3 69 C2.505 69.165 2.505 69.165 0 70 C-0.66 69.67 -1.32 69.34 -2 69 C-2.124 69.887 -2.248 70.774 -2.375 71.688 C-3 75 -3 75 -3.984 77.324 C-5.459 81.21 -5.76 85.148 -6.242 89.258 C-7 92 -7 92 -8.68 93.855 C-11.689 95.34 -13.911 95.296 -17.25 95.188 C-17.789 95.174 -17.789 95.174 -20.516 95.105 C-20.926 95.088 -20.926 95.088 -23 95 C-23.528 90.143 -22.94 87.566 -20.5 83.312 C-17.357 77.567 -17.504 72.409 -18 66 C-17.615 65.885 -17.615 65.885 -15.664 65.301 C-14.661 64.975 -13.658 64.649 -12.625 64.312 C-11.627 63.999 -10.63 63.686 -9.602 63.363 C-6.347 61.658 -6.119 60.405 -5 57 C-3.527 55.332 -3.527 55.332 -1.938 53.812 C1.84 49.658 1.978 45.44 2 40 C2.66 40.33 3.32 40.66 4 41 C3.67 42.98 3.34 44.96 3 47 C3.66 46.835 3.66 46.835 7 46 C7.061 46.88 7.121 47.761 7.184 48.668 C7.225 49.249 7.225 49.249 7.438 52.188 C7.478 52.762 7.478 52.762 7.684 55.668 C7.954 58.516 8.375 61.212 9 64 C9.66 64 10.32 64 11 64 C14 69.75 14 69.75 14 72 C13.01 72 12.02 72 11 72 C11.012 72.759 11.023 73.519 11.035 74.301 C11.044 75.295 11.053 76.289 11.062 77.312 C11.074 78.299 11.086 79.285 11.098 80.301 C11 83 11 83 10 86 C12.97 86.33 15.94 86.66 19 87 C19.225 83.042 19.427 79.084 19.625 75.125 C19.689 73.997 19.754 72.869 19.82 71.707 C19.872 70.631 19.923 69.554 19.977 68.445 C20.029 67.45 20.081 66.455 20.135 65.43 C20 63 20 63 18 61 C17.402 58.434 17.402 58.434 16.938 55.438 C16.097 50.097 16.097 50.097 15 49 C14.316 41.261 14.286 35.335 19 29 C20.938 29.688 20.938 29.688 23 31 C23.75 33.625 23.75 33.625 24 36 C24.66 36 25.32 36 26 36 C26.876 29.457 27.355 24.234 25 18 C24.835 18.825 24.835 18.825 24 23 C18.427 22.101 14.717 18 11 14 C9.817 11.935 8.893 9.877 7.969 7.688 C6.392 4.941 3.822 4.192 1 3 C0.67 2.01 0.34 1.02 0 0 Z " fill="#C0A48C" transform="translate(122,91)"/>
<path d="M0 0 C0.928 0.165 1.856 0.33 2.812 0.5 C6 1 6 1 9 1 C12.917 1 13.642 2.226 16.438 4.875 C20.605 8.81 20.605 8.81 23.223 10.07 C25 11 25 11 26 14 C25.051 14.062 24.102 14.124 23.125 14.188 C22.094 14.456 21.062 14.724 20 15 C19.271 16.64 18.613 18.313 18 20 C17.093 20.681 16.185 21.361 15.25 22.062 C9.802 26.225 7.114 33.657 5 40 C4.877 42.617 4.815 45.196 4.812 47.812 C4.806 48.162 4.806 48.162 4.775 49.932 C4.763 54.346 5.372 57.901 7 62 C6.152 61.795 5.304 61.59 4.43 61.379 C-4.127 59.414 -12.221 58.387 -21 58 C-20.825 57.674 -20.825 57.674 -19.941 56.023 C-19.714 55.586 -19.714 55.586 -18.562 53.375 C-18.11 52.516 -17.658 51.658 -17.191 50.773 C-14.098 43.573 -14.979 35.814 -15.215 28.143 C-15.303 22.261 -14.862 18.181 -12 13 C-10.667 11.667 -9.333 10.333 -8 9 C-7.25 6.25 -7.25 6.25 -7 4 C-4.36 4 -1.72 4 1 4 C0.67 2.68 0.34 1.36 0 0 Z " fill="#F8F1E6" transform="translate(60,28)"/>
<path d="M0 0 C-0.422 0.459 -0.843 0.918 -1.277 1.391 C-1.825 2.004 -2.373 2.618 -2.938 3.25 C-3.483 3.853 -4.028 4.457 -4.59 5.078 C-7.096 8.494 -7.114 11.82 -7.027 15.957 C-7.015 16.905 -7.003 17.853 -6.99 18.83 C-6.955 20.807 -6.916 22.783 -6.873 24.76 C-6.798 31.32 -6.866 36.951 -10.75 42.5 C-13 44 -13 44 -16.188 43.812 C-19 43 -19 43 -20 42 C-20.407 38.335 -20.432 36.602 -18.25 33.562 C-16 32 -16 32 -13.75 32.25 C-13.172 32.498 -12.595 32.745 -12 33 C-12.66 32.01 -13.32 31.02 -14 30 C-16.694 30.372 -17.78 30.755 -19.625 32.812 C-20.893 34.83 -21.997 36.84 -23 39 C-23.33 36.69 -23.66 34.38 -24 32 C-24.315 32.035 -24.315 32.035 -25.906 32.211 C-32.003 32.597 -35.571 31.858 -40.238 27.844 C-44.027 23.878 -46.636 20.144 -47.562 14.688 C-47 12 -47 12 -45.562 10.125 C-40.299 7.814 -34.94 8.453 -29.625 10.375 C-26 12 -26 12 -23 14 C-21.68 14 -20.36 14 -19 14 C-18.033 12.599 -17.076 11.188 -16.203 9.727 C-12.449 4.339 -6.625 -0.358 0 0 Z " fill="#3D362E" transform="translate(53,37)"/>
<path d="M0 0 C3.889 1.476 5.187 3.488 7.188 7.062 C9.967 11.967 9.967 11.967 11 13 C11.243 15.255 11.383 17.509 11.523 19.773 C12.107 22.5 12.702 23.426 15 25 C17.48 25.293 17.48 25.293 20.188 25.188 C21.089 25.16 21.99 25.133 22.918 25.105 C23.605 25.071 24.292 25.036 25 25 C23.59 29.487 21.282 31.718 18 35 C17.732 35.866 17.464 36.733 17.188 37.625 C15.774 40.452 15.046 40.677 12.188 41.812 C9.047 42.831 6.323 43.312 3 43 C3.144 42.577 3.144 42.577 3.875 40.438 C7.147 30.44 7.147 30.44 6 27 C5.01 27 4.02 27 3 27 C2.897 27.619 2.794 28.238 2.688 28.875 C2 31 2 31 -1 33 C-4.711 43.882 -4.203 57.606 -4 69 C-7.63 68.67 -11.26 68.34 -15 68 C-15 59.75 -15 51.5 -15 43 C-13.68 43 -12.36 43 -11 43 C-7.062 37.023 -5.726 32.509 -6.062 25.312 C-6.34 18.55 -6.34 18.55 -4.684 15.871 C-3.587 14.815 -2.471 13.777 -1.336 12.762 C1.393 9.163 0.419 4.288 0 0 Z " fill="#DDCAB6" transform="translate(99,114)"/>
<path d="M0 0 C0.33 0.99 0.66 1.98 1 3 C2.072 3.289 3.145 3.578 4.25 3.875 C8.496 5.149 10.044 6.798 13 10 C13.99 10.33 14.98 10.66 16 11 C15.67 9.35 15.34 7.7 15 6 C15.66 6 16.32 6 17 6 C21.246 12.963 19.829 20.243 19 28 C18.67 26.68 18.34 25.36 18 24 C17.34 24 16.68 24 16 24 C15.01 22.02 14.02 20.04 13 18 C12.34 18 11.68 18 11 18 C7.025 23.797 7.342 30.173 8 37 C8.988 39.742 8.988 39.742 10 42 C10.165 42.846 10.33 43.691 10.5 44.562 C11 47 11 47 12.033 48.786 C13.283 51.647 13.135 53.749 12.977 56.859 C12.925 57.974 12.873 59.089 12.82 60.238 C12.756 61.397 12.691 62.556 12.625 63.75 C12.568 64.924 12.512 66.099 12.453 67.309 C12.312 70.206 12.16 73.103 12 76 C8.7 75.34 5.4 74.68 2 74 C2.33 69.38 2.66 64.76 3 60 C3.99 60 4.98 60 6 60 C5.505 59.237 5.01 58.474 4.5 57.688 C3 55 3 55 3 52 C2.34 52 1.68 52 1 52 C-0.747 48.173 -1.349 44.876 -1.625 40.688 C-1.662 40.153 -1.662 40.153 -1.852 37.449 C-1.876 37.045 -1.876 37.045 -2 35 C-2.99 35 -3.98 35 -5 35 C-5 33.02 -5 31.04 -5 29 C-4.01 28.67 -3.02 28.34 -2 28 C-1.939 27.674 -1.939 27.674 -1.633 26.023 C-0.177 18.429 -0.177 18.429 1.312 14.812 C2.286 10.832 0.659 8.651 -1 5 C-0.688 2.062 -0.688 2.062 0 0 Z " fill="#E6D6C3" transform="translate(130,103)"/>
<path d="M0 0 C6.514 0.295 10.497 1.535 16 5 C17.176 5.433 18.351 5.866 19.562 6.312 C25.888 9.418 29.035 14.091 31.397 20.688 C32.732 25.81 32.475 31.138 32.527 36.398 C32.657 41.67 33.037 45.444 36 50 C36.722 50.619 37.444 51.238 38.188 51.875 C40.473 54.555 40.381 56.517 40.207 59.961 C39.932 62.669 39.534 65.331 39 68 C35.031 67.15 31.955 66.313 29.5 62.938 C27.755 60.683 26.766 60.381 24 60 C23.67 60.99 23.34 61.98 23 63 C22 62 22 62 21.816 58.875 C22.004 54.913 22.773 51.781 23.938 48 C26.816 37.991 28.312 28.064 25 18 C24.67 19.65 24.34 21.3 24 23 C18.427 22.101 14.717 18 11 14 C9.817 11.935 8.893 9.877 7.969 7.688 C6.392 4.941 3.822 4.192 1 3 C0.67 2.01 0.34 1.02 0 0 Z " fill="#F1F0ED" transform="translate(122,91)"/>
<path d="M0 0 C0.825 0.309 1.65 0.619 2.5 0.938 C6.391 2.119 9.962 2.582 14 3 C16.051 22.263 16.051 22.263 13.5 27.75 C11.926 31.16 11.729 33.299 12 37 C13.65 37.33 15.3 37.66 17 38 C17 38.33 17 38.66 17 39 C12.798 39.153 9.133 39.136 5.062 38.062 C-2.116 36.274 -9.641 36.321 -17 36 C-17 35.67 -17 35.34 -17 35 C-16.385 34.963 -15.77 34.925 -15.137 34.887 C-14.328 34.821 -13.52 34.755 -12.688 34.688 C-11.887 34.629 -11.086 34.571 -10.262 34.512 C-7.537 33.895 -6.613 33.269 -5 31 C-4.488 28.73 -4.488 28.73 -4.312 26.188 C-4.244 25.294 -4.176 24.401 -4.105 23.48 C-4 21 -4 21 -4.125 18 C-3.968 14.234 -2.921 11.033 -1.754 7.465 C-0.998 4.992 -0.467 2.542 0 0 Z " fill="#FBF6EE" transform="translate(68,157)"/>
<path d="M0 0 C0.66 0 1.32 0 2 0 C6.383 5.69 5.737 12.151 5 19 C4.158 21.314 3.172 23.219 1.891 25.312 C0.544 27.865 0.719 30.189 1 33 C4.63 33.33 8.26 33.66 12 34 C12 34.33 12 34.66 12 35 C1.851 36.147 -7.847 35.79 -18 35 C-18 35.66 -18 36.32 -18 37 C-19.913 37.533 -21.831 38.051 -23.75 38.562 C-24.817 38.853 -25.885 39.143 -26.984 39.441 C-29.843 39.971 -31.316 39.984 -34 39 C-33.361 38.814 -32.721 38.629 -32.062 38.438 C-31.382 37.963 -30.701 37.489 -30 37 C-29.593 34.678 -29.256 32.343 -29 30 C-25.555 28.277 -21.636 29.045 -17.848 29.16 C-15 29 -15 29 -12 27 C-11.156 23.805 -11.156 23.805 -10.5 19.875 C-8.47 8.751 -8.47 8.751 -6 4 C-3.312 3 -3.312 3 -1 3 C-0.67 2.01 -0.34 1.02 0 0 Z " fill="#F8F2EA" transform="translate(126,156)"/>
<path d="M0 0 C2.296 3.444 2.098 5.007 1.488 9 C0.828 11.705 -0.403 13.738 -2 16 C-2.33 16.66 -2.66 17.32 -3 18 C-2.34 18 -1.68 18 -1 18 C0.579 22.737 1.054 27.656 -1.012 32.25 C-1.905 33.882 -2.804 35.51 -3.707 37.137 C-5.712 41.576 -6.316 46.202 -7.031 50.996 C-8 54 -8 54 -10.379 55.891 C-15.843 58.203 -20.638 57.093 -26 55 C-26.597 49.177 -24.528 45.079 -22 40 C-21.67 40.99 -21.34 41.98 -21 43 C-17.7 43 -14.4 43 -11 43 C-11.012 42.273 -11.023 41.546 -11.035 40.797 C-11.119 31.415 -10.568 22.222 -9.188 12.938 C-9.057 12.06 -8.927 11.182 -8.793 10.277 C-7.799 7.422 -6.439 6.691 -4 5 C-3.67 4.01 -3.34 3.02 -3 2 C-2.01 2 -1.02 2 0 2 C0 1.34 0 0.68 0 0 Z " fill="#C6AD94" transform="translate(105,139)"/>
<path d="M0 0 C3.723 1.241 5.241 3.241 8 6 C9.648 7.03 11.313 8.035 13 9 C12.524 11.459 12.045 13.917 11.562 16.375 C11.428 17.074 11.293 17.772 11.154 18.492 C10.113 23.773 10.113 23.773 9 26 C8.98 27.729 9.008 29.459 9.062 31.188 C9.1 35.927 8.778 39.601 7 44 C3.751 46.166 2.814 46.25 -0.938 46.188 C-1.792 46.181 -2.647 46.175 -3.527 46.168 C-5.812 46.013 -7.806 45.636 -10 45 C-10.401 40.994 -10.122 39.205 -8.031 35.688 C-4.9 29.658 -5.324 23.149 -5.25 16.5 C-5.22 15.201 -5.191 13.901 -5.16 12.562 C-5.09 9.375 -5.037 6.188 -5 3 C-4.67 3 -4.34 3 -4 3 C-4 8.28 -4 13.56 -4 19 C-3.01 18.67 -2.02 18.34 -1 18 C0 19 0 19 0.062 21.562 C0.042 22.367 0.021 23.171 0 24 C-0.99 24 -1.98 24 -3 24 C-3.33 26.97 -3.66 29.94 -4 33 C-1.36 32.67 1.28 32.34 4 32 C4.24 11.721 4.24 11.721 2 5 C1.01 4.67 0.02 4.34 -1 4 C-0.67 2.68 -0.34 1.36 0 0 Z " fill="#CEAF8F" transform="translate(56,146)"/>
<path d="M0 0 C0.66 0 1.32 0 2 0 C2.346 9.565 0.501 16.588 -4 25 C-5 22 -5 22 -5 20 C-5.615 20.361 -6.23 20.722 -6.863 21.094 C-7.672 21.558 -8.48 22.022 -9.312 22.5 C-9.713 22.732 -9.713 22.732 -11.738 23.906 C-14 25 -14 25 -17 25 C-16.814 25.33 -16.814 25.33 -15.875 27 C-14.636 31.248 -15.719 33.8 -17 38 C-18.65 37.67 -20.3 37.34 -22 37 C-21.67 38.98 -21.34 40.96 -21 43 C-26.614 40.559 -26.614 40.559 -28.188 38.281 C-29.235 35.34 -29.193 32.865 -29.125 29.75 C-29.107 28.672 -29.089 27.595 -29.07 26.484 C-29.059 26.074 -29.059 26.074 -29 24 C-28.299 23.974 -27.597 23.948 -26.875 23.922 C-20.256 23.526 -15.676 22.469 -10 19 C-9.67 18.34 -9.34 17.68 -9 17 C-9.639 17.33 -10.279 17.66 -10.938 18 C-15.012 19.331 -18.752 19.167 -23 19 C-23 18.34 -23 17.68 -23 17 C-23.987 16.951 -24.975 16.902 -25.992 16.852 C-27.274 16.777 -28.555 16.702 -29.875 16.625 C-31.151 16.555 -32.427 16.486 -33.742 16.414 C-37 16 -37 16 -39 14 C-37.083 13.973 -35.167 13.954 -33.25 13.938 C-32.716 13.932 -32.716 13.932 -30.016 13.902 C-27.402 13.987 -25.499 14.366 -23 15 C-20.413 15.223 -17.84 15.413 -15.25 15.562 C-14.553 15.606 -13.855 15.649 -13.137 15.693 C-11.425 15.799 -9.712 15.9 -8 16 C-7.732 15.196 -7.464 14.391 -7.188 13.562 C-6.796 12.717 -6.404 11.871 -6 11 C-5.01 10.67 -4.02 10.34 -3 10 C-3.66 9.67 -4.32 9.34 -5 9 C-3.501 5.886 -1.918 2.878 0 0 Z " fill="#B66D5A" transform="translate(76,102)"/>
<path d="M0 0 C0.66 0.99 1.32 1.98 2 3 C2.99 3.33 3.98 3.66 5 4 C4.691 4.846 4.381 5.691 4.062 6.562 C2.755 10.794 2.125 14.919 1.859 19.34 C1.803 20.135 1.746 20.931 1.688 21.75 C1.65 22.487 1.613 23.225 1.574 23.984 C1 26 1 26 -0.652 27.754 C-3.683 29.363 -5.838 29.299 -9.25 29.188 C-9.789 29.174 -9.789 29.174 -12.516 29.105 C-12.926 29.088 -12.926 29.088 -15 29 C-15.53 24.122 -14.911 21.486 -12.5 17.188 C-9.678 12.013 -9.445 7.793 -10 2 C-6.38 0.684 -3.904 0 0 0 Z " fill="#B79C81" transform="translate(114,157)"/>
<path d="M0 0 C0.33 0 0.66 0 1 0 C1 1.98 1 3.96 1 6 C0.364 6.235 -0.271 6.469 -0.926 6.711 C-3 8 -3 8 -3.793 10.039 C-5.508 21.282 -6.203 32.629 -6 44 C-9.63 43.67 -13.26 43.34 -17 43 C-17 34.75 -17 26.5 -17 18 C-15.68 18 -14.36 18 -13 18 C-12.746 17.446 -12.492 16.891 -12.23 16.32 C-11.886 15.596 -11.542 14.871 -11.188 14.125 C-10.851 13.406 -10.515 12.686 -10.168 11.945 C-9 10 -9 10 -6 8 C-5.812 5.375 -5.812 5.375 -6 3 C-3.924 2.447 -2.156 2 0 2 C0 1.34 0 0.68 0 0 Z " fill="#EADAC7" transform="translate(101,139)"/>
<path d="M0 0 C-0.223 5.456 -1.431 8.451 -5.215 12.422 C-11.189 17.703 -16.6 18.435 -24.461 18.336 C-27 18 -27 18 -29 16 C-28.34 14.68 -27.68 13.36 -27 12 C-26.34 12.33 -25.68 12.66 -25 13 C-19.958 13.553 -16.102 13.581 -11.562 11.188 C-10.717 10.466 -9.871 9.744 -9 9 C-8.402 8.505 -7.804 8.01 -7.188 7.5 C-5.774 5.715 -5.491 4.2 -5 2 C-6.917 2.142 -8.834 2.288 -10.75 2.438 C-11.817 2.519 -12.885 2.6 -13.984 2.684 C-17 3 -17 3 -19 3.531 C-21.772 4.181 -24.408 4.093 -27.25 4.062 C-28.328 4.053 -29.405 4.044 -30.516 4.035 C-31.335 4.024 -32.155 4.012 -33 4 C-33 2.35 -33 0.7 -33 -1 C-32.662 -1.066 -32.662 -1.066 -30.953 -1.402 C-30.507 -1.491 -30.507 -1.491 -28.25 -1.938 C-27.368 -2.112 -26.487 -2.286 -25.578 -2.465 C-24.043 -2.784 -22.513 -3.133 -21 -3.547 C-13.109 -5.335 -6.819 -4.117 0 0 Z " fill="#241610" transform="translate(132,59)"/>
<path d="M0 0 C6.514 0.295 10.497 1.535 16 5 C17.176 5.433 18.351 5.866 19.562 6.312 C24.832 8.899 27.817 12.579 30.375 17.812 C31.241 22.228 31.159 26.517 31 31 C30.01 31 29.02 31 28 31 C27.934 30.698 27.934 30.698 27.598 29.172 C27.509 28.772 27.509 28.772 27.062 26.75 C26.888 25.961 26.714 25.172 26.535 24.359 C26.052 22.231 25.538 20.115 25 18 C24.67 19.65 24.34 21.3 24 23 C18.427 22.101 14.717 18 11 14 C9.817 11.935 8.893 9.877 7.969 7.688 C6.392 4.941 3.822 4.192 1 3 C0.67 2.01 0.34 1.02 0 0 Z " fill="#42382E" transform="translate(122,91)"/>
<path d="M0 0 C-1.32 0.33 -2.64 0.66 -4 1 C-2 4 -2 4 0.812 5.125 C5.186 7.698 7.205 11.294 9 16 C8.67 16.66 8.34 17.32 8 18 C6.68 16.68 5.36 15.36 4 14 C4.492 16.789 5.115 19.324 6.062 22 C6.961 24.876 7.176 27.016 7 30 C5.258 27.387 4.045 24.966 2.75 22.125 C0.357 17.382 -1.336 14.64 -6 12 C-8.184 11.988 -8.184 11.988 -10.625 12.188 C-17.746 12.654 -22.6 8.156 -28 4 C-27.34 3.01 -26.68 2.02 -26 1 C-25.34 1.33 -24.68 1.66 -24 2 C-18.654 2.341 -13.844 1.471 -8.602 0.445 C-5.7 -0.051 -2.939 -0.159 0 0 Z " fill="#EFE7DB" transform="translate(126,90)"/>
<path d="M0 0 C3.165 0.167 4.589 0.575 6.812 2.875 C8.621 7.633 8.887 11.985 8 17 C6.417 20.089 4.58 22.667 2 25 C1.34 25 0.68 25 0 25 C-0.33 25.66 -0.66 26.32 -1 27 C-5.382 25.539 -7.947 21.988 -10 18 C-10 16.68 -10 15.36 -10 14 C-8.886 13.711 -7.772 13.422 -6.625 13.125 C-4.688 12.328 -4.688 12.328 -3 11 C-2.04 8.377 -1.634 5.947 -1.289 3.18 C-1 1 -1 1 0 0 Z " fill="#ECB571" transform="translate(100,29)"/>
<path d="M0 0 C0.98 -0.003 1.959 -0.005 2.969 -0.008 C5.5 0.125 5.5 0.125 7.5 1.125 C7.665 1.785 7.665 1.785 8.5 5.125 C10.315 5.29 10.315 5.29 19.5 6.125 C19.5 6.455 19.5 6.785 19.5 7.125 C9.351 8.272 -0.347 7.915 -10.5 7.125 C-10.5 7.785 -10.5 8.445 -10.5 9.125 C-12.413 9.658 -14.331 10.176 -16.25 10.688 C-17.317 10.978 -18.385 11.268 -19.484 11.566 C-22.343 12.096 -23.816 12.109 -26.5 11.125 C-26.18 11.032 -26.18 11.032 -24.562 10.562 C-23.882 10.088 -23.201 9.614 -22.5 9.125 C-22.093 6.803 -21.756 4.468 -21.5 2.125 C-18.028 0.389 -14.07 1.114 -10.25 1.188 C-6.663 1.106 -3.746 -0.01 0 0 Z " fill="#D6C6B3" transform="translate(118.5,183.875)"/>
<path d="M0 0 C-0.41 0.401 -0.82 0.802 -1.242 1.215 C-5.616 5.829 -7.175 9.729 -8 16 C-8.615 16.075 -9.23 16.15 -9.863 16.227 C-12.375 16.635 -14.621 17.089 -17 18 C-19.062 21.125 -19.062 21.125 -20 24 C-20.931 21.394 -21.149 20.358 -20.062 17.75 C-19.887 17.461 -19.887 17.461 -19 16 C-19.907 16.206 -20.815 16.413 -21.75 16.625 C-25 17 -25 17 -26.719 16.094 C-29.936 14.551 -33.247 14.279 -36.75 13.875 C-37.447 13.789 -38.145 13.702 -38.863 13.613 C-40.575 13.402 -42.287 13.2 -44 13 C-44.33 12.01 -44.66 11.02 -45 10 C-40.992 7.996 -35.984 8.473 -31.734 9.602 C-28.549 10.77 -25.825 12.116 -23 14 C-21.68 14 -20.36 14 -19 14 C-18.033 12.599 -17.076 11.188 -16.203 9.727 C-12.449 4.339 -6.625 -0.358 0 0 Z " fill="#453D34" transform="translate(53,37)"/>
<path d="M0 0 C1.938 0.688 1.938 0.688 4 2 C4.75 4.625 4.75 4.625 5 7 C5.66 7 6.32 7 7 7 C7.192 12.147 6.596 16.426 5.188 21.375 C5.019 21.987 5.019 21.987 4.168 25.086 C3.783 26.048 3.397 27.009 3 28 C2.01 28.33 1.02 28.66 0 29 C-4.128 21.868 -5.09 15.168 -4 7 C-2.944 4.22 -1.792 2.408 0 0 Z " fill="#32291E" transform="translate(141,120)"/>
<path d="M0 0 C0.99 0.33 1.98 0.66 3 1 C3.013 1.302 3.013 1.302 3.078 2.828 C3.547 9.437 3.547 9.437 6.062 12.562 C6.702 13.037 7.341 13.511 8 14 C5.997 18.733 2.606 22.394 -1 26 C-4.788 20.156 -7.019 16.022 -6 9 C-4.533 5.534 -2.676 2.676 0 0 Z " fill="#EDB56D" transform="translate(35,25)"/>
<path d="M0 0 C0.539 0.014 0.539 0.014 3.266 0.082 C4.085 0.117 4.905 0.152 5.75 0.188 C5.254 4.186 4.475 5.939 1.312 8.438 C0.695 8.938 0.078 9.438 -0.559 9.953 C-4.772 13.028 -9.202 12.651 -14.25 12.188 C-17.875 10.688 -17.875 10.688 -20.25 9.188 C-20.25 8.528 -20.25 7.868 -20.25 7.188 C-19.575 6.934 -18.899 6.68 -18.203 6.418 C-17.311 6.074 -16.419 5.73 -15.5 5.375 C-14.618 5.039 -13.737 4.702 -12.828 4.355 C-10.25 3.188 -10.25 3.188 -8.312 1.562 C-5.466 -0.335 -3.382 -0.11 0 0 Z " fill="#8A3A2A" transform="translate(121.25,60.8125)"/>
<path d="M0 0 C0.553 2.076 1 3.844 1 6 C1.759 5.783 2.519 5.567 3.301 5.344 C4.295 5.065 5.289 4.787 6.312 4.5 C7.299 4.222 8.285 3.943 9.301 3.656 C12 3 12 3 15 3 C15.562 4.937 15.562 4.937 16 7 C15.67 7.33 15.34 7.66 15 8 C14.959 10 14.957 12 15 14 C15.825 14.165 15.825 14.165 20 15 C20 15.33 20 15.66 20 16 C15.798 16.153 12.133 16.136 8.062 15.062 C0.884 13.274 -6.641 13.321 -14 13 C-14 12.67 -14 12.34 -14 12 C-13.385 11.963 -12.77 11.925 -12.137 11.887 C-11.328 11.821 -10.52 11.755 -9.688 11.688 C-8.887 11.629 -8.086 11.571 -7.262 11.512 C-4.551 10.898 -3.651 10.214 -2 8 C-1.27 5.957 -1.27 5.957 -0.812 3.812 C-0.544 2.554 -0.276 1.296 0 0 Z " fill="#D6C8B6" transform="translate(65,180)"/>
<path d="M0 0 C2.438 0.309 4.875 0.622 7.312 0.938 C8.003 1.025 8.693 1.112 9.404 1.201 C12.401 1.592 15.125 2.042 18 3 C18 3.66 18 4.32 18 5 C20.31 4.67 20.31 4.67 32 3 C30.062 6.876 29.375 7.964 25.457 9.457 C18.637 10.964 10.033 11.552 3.625 8.375 C0.482 5.531 0.481 4.084 0 0 Z " fill="#EC7768" transform="translate(35,116)"/>
<path d="M0 0 C2.68 -0.398 2.68 -0.398 5.875 -0.375 C6.924 -0.383 7.974 -0.39 9.055 -0.398 C12.304 0.041 13.687 0.714 16 3 C16.562 5.5 16.562 5.5 16 8 C13.182 10.476 11.298 10.973 7.562 11.312 C4.065 11.006 1.26 10.272 -2 9 C-2.25 3.375 -2.25 3.375 0 0 Z " fill="#39291C" transform="translate(81,185)"/>
<path d="M0 0 C6.606 4.449 6.606 4.449 7.5 7.969 C7.5 10.036 7.324 11.959 7 14 C6.835 15.155 6.67 16.31 6.5 17.5 C6.335 18.325 6.17 19.15 6 20 C1.511 19.038 -1.164 18.284 -3.75 14.312 C-5.187 10.504 -5.597 8.033 -5 4 C-2.5 1.562 -2.5 1.562 0 0 Z " fill="#564533" transform="translate(155,139)"/>
<path d="M0 0 C1.624 -0.081 3.25 -0.139 4.875 -0.188 C5.78 -0.222 6.685 -0.257 7.617 -0.293 C8.01 -0.245 8.01 -0.245 10 0 C12.209 3.314 12.225 4.345 12.125 8.188 C12.107 9.089 12.089 9.99 12.07 10.918 C12.059 11.262 12.059 11.262 12 13 C10.35 12.67 8.7 12.34 7 12 C7.33 13.98 7.66 15.96 8 18 C2.377 15.555 2.377 15.555 0.812 13.25 C-0.193 10.466 -0.195 8.203 -0.125 5.25 C-0.116 4.758 -0.116 4.758 -0.07 2.266 C-0.047 1.518 -0.024 0.77 0 0 Z " fill="#271E13" transform="translate(47,127)"/>
<path d="M0 0 C1.991 2.986 2.941 5.597 4 9 C3.34 9 2.68 9 2 9 C1.67 10.65 1.34 12.3 1 14 C0.01 14.33 -0.98 14.66 -2 15 C-2.66 14.67 -3.32 14.34 -4 14 C-4.052 14.412 -4.052 14.412 -4.312 16.5 C-5.116 20.593 -6.464 24.125 -8 28 C-8.33 28 -8.66 28 -9 28 C-8.503 23.027 -7.447 19.362 -5 15 C-5.32 14.948 -5.32 14.948 -6.938 14.688 C-7.278 14.574 -7.278 14.574 -9 14 C-9.33 13.01 -9.66 12.02 -10 11 C-13.3 11.66 -16.6 12.32 -20 13 C-20 12.34 -20 11.68 -20 11 C-19.571 10.854 -19.571 10.854 -17.402 10.117 C-10.416 7.613 -5.262 5.262 0 0 Z " fill="#D57C68" transform="translate(124,146)"/>
<path d="M0 0 C0.848 0.121 1.696 0.242 2.57 0.367 C3.452 0.492 4.334 0.617 5.242 0.746 C7.898 1.283 10.269 2.029 12.695 3.242 C12.383 6.117 12.383 6.117 11.695 9.242 C8.447 11.408 7.509 11.492 3.758 11.43 C2.903 11.423 2.049 11.417 1.168 11.41 C-1.117 11.255 -3.111 10.878 -5.305 10.242 C-5.523 7.039 -5.657 4.887 -4.098 2.031 C-2.305 0.242 -2.305 0.242 0 0 Z " fill="#3B2C1D" transform="translate(51.3046875,180.7578125)"/>
<path d="M0 0 C1.733 0.186 3.465 0.371 5.25 0.562 C8.793 0.942 11.589 1.097 15 0 C15.648 1.781 15.648 1.781 16 4 C13.248 9.457 8.387 12.177 2.953 14.469 C1 15 1 15 -1 14 C-0.67 9.38 -0.34 4.76 0 0 Z " fill="#C7AA91" transform="translate(78,98)"/>
<path d="M0 0 C8.511 0.834 13.414 4.95 20 10 C19.67 10.99 19.34 11.98 19 13 C15.89 14.555 13.437 14.286 10 14 C5.212 11.559 2.553 8.714 0 4 C0 2.68 0 1.36 0 0 Z " fill="#AD5342" transform="translate(10,51)"/>
<path d="M0 0 C4.379 0.52 8.688 1.057 13 2 C13.125 5.375 13.125 5.375 13 9 C11 11 11 11 7.996 11.23 C6.822 11.216 5.647 11.202 4.438 11.188 C3.849 11.184 3.849 11.184 0.871 11.168 C-2 11 -2 11 -3 10 C-3.309 6.527 -3.387 4.613 -1.5 1.625 C-1.005 1.089 -0.51 0.553 0 0 Z " fill="#4E3A27" transform="translate(129,179)"/>
<path d="M0 0 C2.175 2.175 2.386 2.971 3 5.875 C3.68 8.859 4.589 11.278 6 14 C6 14.99 6 15.98 6 17 C6.66 17 7.32 17 8 17 C8.027 19.813 8.047 22.625 8.062 25.438 C8.071 26.24 8.079 27.042 8.088 27.869 C8.097 29.913 8.052 31.957 8 34 C7 35 7 35 3.938 35.062 C2.968 35.042 1.999 35.021 1 35 C1.165 33.515 1.165 33.515 2 26 C2.99 26 3.98 26 5 26 C4.67 24.35 4.34 22.7 4 21 C3.01 21 2.02 21 1 21 C0.939 20.108 0.879 19.216 0.816 18.297 C0.733 17.126 0.649 15.956 0.562 14.75 C0.481 13.59 0.4 12.43 0.316 11.234 C0.067 8.68 -0.372 6.467 -1 4 C-0.562 1.75 -0.562 1.75 0 0 Z " fill="#E8D7C3" transform="translate(51,144)"/>
<path d="M0 0 C2.509 1.176 3.515 2.636 5 4.938 C4.67 5.597 4.34 6.257 4 6.938 C3.34 5.948 2.68 4.957 2 3.938 C-0.438 4.312 -0.438 4.312 -3 4.938 C-4.354 7.646 -4.065 9.947 -4 12.938 C-1.25 13.625 -1.25 13.625 2 13.938 C4.375 12.5 4.375 12.5 6 10.938 C4.802 15.329 3.842 18.344 0 20.938 C-3.327 21.56 -6.621 21.809 -10 21.938 C-10.353 14.522 -7.919 6.998 -3.562 0.938 C-2 -0.062 -2 -0.062 0 0 Z " fill="#5D4D3E" transform="translate(38,66.0625)"/>
<path d="M0 0 C2.592 1.296 2.933 2.332 4 5 C4.764 9.732 4.939 14.16 2.727 18.496 C1.253 20.513 -0.147 22.324 -2 24 C-2.66 24 -3.32 24 -4 24 C-4.33 24.66 -4.66 25.32 -5 26 C-9.55 24.483 -11.501 20.831 -14 17 C-13.67 16.34 -13.34 15.68 -13 15 C-12.505 15.33 -12.505 15.33 -10 17 C-7.676 17.394 -5.342 17.735 -3 18 C-2.01 15.03 -1.02 12.06 0 9 C0.66 9 1.32 9 2 9 C1.34 6.03 0.68 3.06 0 0 Z " fill="#DB9B55" transform="translate(104,30)"/>
<path d="M0 0 C0.928 0.165 1.856 0.33 2.812 0.5 C6 1 6 1 9 1 C12.9 1 13.637 2.191 16.438 4.812 C19.199 7.378 21.942 9.792 25 12 C20.805 11.401 16.99 10.425 13 9 C13.66 8.34 14.32 7.68 15 7 C12 5 12 5 9 5 C6.977 4.048 4.973 3.052 3 2 C3.495 2.949 3.99 3.898 4.5 4.875 C6 8 6 8 6 10 C3.03 11.32 0.06 12.64 -3 14 C-2 11 -2 11 1 9 C-1.97 9 -4.94 9 -8 9 C-7.67 7.35 -7.34 5.7 -7 4 C-4.36 4 -1.72 4 1 4 C0.67 2.68 0.34 1.36 0 0 Z " fill="#C8BAAD" transform="translate(60,28)"/>
<path d="M0 0 C1.812 1.062 1.812 1.062 3 3 C3.4 6.666 3.439 9.099 1.812 12.438 C0 14 0 14 -2.5 14.438 C-5 14 -5 14 -6.812 13 C-8.71 9.804 -8.55 6.617 -8 3 C-5.996 -0.376 -3.754 -0.563 0 0 Z " fill="#0F0907" transform="translate(79,73)"/>
<path d="M0 0 C3.723 1.241 5.241 3.241 8 6 C9.648 7.03 11.313 8.035 13 9 C12.551 11.46 12.091 13.918 11.625 16.375 C11.499 17.074 11.372 17.772 11.242 18.492 C10.227 23.773 10.227 23.773 8 26 C8.33 23.69 8.66 21.38 9 19 C8.34 19 7.68 19 7 19 C6.67 19.66 6.34 20.32 6 21 C5.795 20.096 5.59 19.193 5.379 18.262 C5.109 17.082 4.84 15.903 4.562 14.688 C4.429 14.102 4.429 14.102 3.754 11.137 C3 8 3 8 2 5 C1.01 4.67 0.02 4.34 -1 4 C-0.67 2.68 -0.34 1.36 0 0 Z " fill="#BB9F85" transform="translate(56,146)"/>
<path d="M0 0 C3.693 0.883 4.858 1.429 6.875 4.688 C7.671 9.504 7.544 13.377 5.312 17.75 C2.024 20.364 0.074 20.908 -4.125 20.688 C-7.788 17.57 -8.873 15.945 -9.812 11.25 C-8.712 5.545 -5.851 1.287 0 0 Z M-5.938 5.688 C-7.835 8.884 -7.675 12.071 -7.125 15.688 C-5.938 17.688 -5.938 17.688 -4.125 18.688 C-1.625 19.125 -1.625 19.125 0.875 18.688 C3.648 16.297 3.864 14.788 4.25 11.125 C3.875 7.688 3.875 7.688 2.688 5.75 C-0.361 3.963 -2.851 3.984 -5.938 5.688 Z " fill="#CEC9C3" transform="translate(78.125,68.3125)"/>
<path d="M0 0 C1.141 3.422 1.098 6.087 1.062 9.688 C1.053 10.867 1.044 12.046 1.035 13.262 C1.024 14.165 1.012 15.069 1 16 C-2.63 15.67 -6.26 15.34 -10 15 C-9.383 6.481 -9.383 6.481 -7.656 4.312 C-5.303 2.447 -2.712 1.265 0 0 Z " fill="#E0CBB4" transform="translate(94,167)"/>
<path d="M0 0 C0.98 0.107 1.959 0.214 2.969 0.324 C3.459 0.374 3.459 0.374 5.938 0.625 C8.469 1.012 8.469 1.012 10.469 2.012 C10.656 4.387 10.656 4.387 10.469 7.012 C6.942 9.363 5.44 9.226 1.281 9.137 C0.195 9.119 -0.892 9.101 -2.012 9.082 C-2.427 9.07 -2.427 9.07 -4.531 9.012 C-4.656 5.637 -4.656 5.637 -4.531 2.012 C-2.531 0.012 -2.531 0.012 0 0 Z " fill="#37281C" transform="translate(103.53125,176.98828125)"/>
<path d="M0 0 C0.722 0.763 1.444 1.526 2.188 2.312 C4.698 4.711 6.968 6.354 10 8 C9.67 8.165 9.67 8.165 8 9 C8 10.65 8 12.3 8 14 C12.62 13.67 17.24 13.34 22 13 C17.2 17.8 17.2 17.8 14 19 C12.68 19 11.36 19 10 19 C10 19.66 10 20.32 10 21 C10.99 21.33 11.98 21.66 13 22 C13 23.32 13 24.64 13 26 C11.68 25.67 10.36 25.34 9 25 C8.876 24.402 8.752 23.804 8.625 23.188 C8 21 8 21 6 18 C5.762 15.73 5.762 15.73 5.688 13.188 C5.282 7.847 3.678 5.772 0 2 C0 1.34 0 0.68 0 0 Z " fill="#21160E" transform="translate(91,49)"/>
<path d="M0 0 C2 2 2 2 2 6 C2.99 6.33 3.98 6.66 5 7 C5 14.92 5 22.84 5 31 C4.34 30.67 3.68 30.34 3 30 C1.829 23.679 1.894 17.412 2 11 C0.742 11.062 -0.516 11.124 -1.812 11.188 C-5.722 11.208 -5.722 11.208 -8 9.5 C-8.33 9.005 -8.66 8.51 -9 8 C-7.68 8 -6.36 8 -5 8 C-5.99 7.67 -6.98 7.34 -8 7 C-8 6.34 -8 5.68 -8 5 C-6.02 5 -4.04 5 -2 5 C-1.34 3.35 -0.68 1.7 0 0 Z " fill="#C2AB93" transform="translate(80,149)"/>
<path d="M0 0 C1.32 0 2.64 0 4 0 C5.694 3.387 5.688 6.365 5 10 C2.931 14.821 0.529 19.407 -2 24 C-2.33 24 -2.66 24 -3 24 C-3.519 15.655 -1.958 8.09 0 0 Z " fill="#F7F4F0" transform="translate(100,159)"/>
<path d="M0 0 C0.33 0.66 0.66 1.32 1 2 C1.99 1.67 2.98 1.34 4 1 C5.845 7.457 7.19 13.431 5 20 C4.788 21.552 4.614 23.109 4.465 24.668 C4.378 25.561 4.291 26.453 4.201 27.373 C4.114 28.302 4.027 29.231 3.938 30.188 C3.847 31.128 3.756 32.068 3.662 33.037 C3.438 35.358 3.218 37.679 3 40 C2.67 40 2.34 40 2 40 C2 38.02 2 36.04 2 34 C0.35 34 -1.3 34 -3 34 C-2.67 33.01 -2.34 32.02 -2 31 C-1.01 31 -0.02 31 1 31 C1.225 27.042 1.427 23.084 1.625 19.125 C1.689 17.997 1.754 16.869 1.82 15.707 C1.846 15.169 1.846 15.169 1.977 12.445 C2.029 11.45 2.081 10.455 2.135 9.43 C2 7 2 7 0 5 C-0.125 2.375 -0.125 2.375 0 0 Z " fill="#B9A48D" transform="translate(140,147)"/>
<path d="M0 0 C0.66 0 1.32 0 2 0 C2 0.66 2 1.32 2 2 C3.134 1.959 4.269 1.917 5.438 1.875 C10.835 1.865 15.846 3.114 21.016 4.566 C23 5 23 5 27 5 C26.34 6.98 25.68 8.96 25 11 C22.937 11.875 22.937 11.875 20 12 C18.461 10.836 18.461 10.836 16.812 9.25 C12.746 5.381 8.378 4.234 3 3 C2.67 4.32 2.34 5.64 2 7 C1.34 6.67 0.68 6.34 0 6 C0 4.02 0 2.04 0 0 Z " fill="#2A1B13" transform="translate(7,48)"/>
<path d="M0 0 C0.99 0 1.98 0 3 0 C3.33 0.99 3.66 1.98 4 3 C2.733 3.984 1.461 4.962 0.188 5.938 C-0.166 6.21 -0.166 6.21 -1.957 7.59 C-5.604 10.107 -8.747 10.161 -13.062 10.188 C-14.126 10.202 -15.189 10.216 -16.285 10.23 C-19 10 -19 10 -21 8 C-20.34 6.68 -19.68 5.36 -19 4 C-18.34 4.33 -17.68 4.66 -17 5 C-12.155 5.532 -7.609 5.864 -3.438 3.062 C-1 1 -1 1 0 0 Z " fill="#322722" transform="translate(124,67)"/>
<path d="M0 0 C6.514 0.295 10.497 1.535 16 5 C17.176 5.433 18.351 5.866 19.562 6.312 C23.875 8.43 26.163 11.207 29 15 C28.67 15.66 28.34 16.32 28 17 C27.01 17 26.02 17 25 17 C23.607 15.041 22.278 13.036 21 11 C18.296 7.733 15.87 7.368 11.816 6.57 C7.377 5.693 3.659 4.833 0 2 C0 1.34 0 0.68 0 0 Z " fill="#5B554D" transform="translate(122,91)"/>
<path d="M0 0 C1.812 0.875 1.812 0.875 2.812 2.875 C3.472 2.545 4.133 2.215 4.812 1.875 C5.136 5.434 5.201 7.293 3.188 10.312 C0.812 11.875 0.812 11.875 -2.375 11.688 C-5.188 10.875 -5.188 10.875 -6.188 9.875 C-6.595 6.21 -6.62 4.477 -4.438 1.438 C-2.188 -0.125 -2.188 -0.125 0 0 Z " fill="#1F1C1A" transform="translate(39.1875,69.125)"/>
<path d="M0 0 C0.404 0.014 0.404 0.014 2.449 0.082 C3.064 0.117 3.679 0.152 4.312 0.188 C2.346 4.529 -0.4 7.044 -4.688 9.188 C-6.395 9.257 -8.104 9.272 -9.812 9.25 C-10.723 9.241 -11.633 9.232 -12.57 9.223 C-13.269 9.211 -13.968 9.199 -14.688 9.188 C-15.017 8.528 -15.347 7.868 -15.688 7.188 C-15.416 7.061 -15.416 7.061 -14.043 6.418 C-13.328 6.074 -12.612 5.73 -11.875 5.375 C-11.167 5.039 -10.46 4.702 -9.73 4.355 C-7.688 3.188 -7.688 3.188 -6.219 1.562 C-4.117 -0.325 -2.774 -0.121 0 0 Z " fill="#BB5A48" transform="translate(121.6875,63.8125)"/>
<path d="M0 0 C0.95 -0.014 1.9 -0.028 2.879 -0.043 C5.438 0.188 5.438 0.188 8.438 2.188 C6.821 3.804 4.924 3.427 2.688 3.562 C-2.995 4.009 -8.307 5.222 -13.812 6.664 C-16.562 7.188 -16.562 7.188 -19.562 6.188 C-19.562 5.197 -19.562 4.207 -19.562 3.188 C-19.225 3.121 -19.225 3.121 -17.516 2.785 C-17.07 2.697 -17.07 2.697 -14.812 2.25 C-13.931 2.076 -13.049 1.902 -12.141 1.723 C-10.611 1.405 -9.086 1.054 -7.582 0.633 C-5.025 0.069 -2.617 0.018 0 0 Z " fill="#4A453C" transform="translate(118.5625,54.8125)"/>
<path d="M0 0 C3 3.75 3 3.75 3 6 C3.66 6 4.32 6 5 6 C5.299 6.464 5.299 6.464 6.812 8.812 C10.262 13.839 13.504 14.999 19.312 16.188 C20.873 16.468 22.435 16.742 24 17 C24 17.66 24 18.32 24 19 C11.286 20.032 11.286 20.032 6.938 16.438 C3.081 12.36 0.167 8.299 -0.25 2.562 C-0.168 1.717 -0.085 0.871 0 0 Z " fill="#352E27" transform="translate(6,49)"/>
<path d="M0 0 C0.33 0 0.66 0 1 0 C1.025 0.615 1.05 1.23 1.076 1.864 C1.192 4.66 1.315 7.455 1.438 10.25 C1.477 11.218 1.516 12.186 1.557 13.184 C1.578 13.651 1.578 13.651 1.684 16.016 C1.72 16.874 1.757 17.733 1.795 18.618 C1.987 20.85 2.388 22.85 3 25 C1.35 25.99 -0.3 26.98 -2 28 C-2.902 25.293 -3.119 23.762 -3.098 20.988 C-3.094 20.231 -3.091 19.474 -3.088 18.693 C-3.08 17.908 -3.071 17.122 -3.062 16.312 C-3.058 15.515 -3.053 14.718 -3.049 13.896 C-3.037 11.931 -3.019 9.965 -3 8 C-2.01 8 -1.02 8 0 8 C0 5.36 0 2.72 0 0 Z " fill="#BEAC9B" transform="translate(153,114)"/>
<path d="M0 0 C1.32 0.33 2.64 0.66 4 1 C4 2.98 4 4.96 4 7 C4.619 7.103 5.237 7.206 5.875 7.312 C8 8 8 8 10 11 C12.885 29.173 12.885 29.173 9 35 C9 29.39 9 23.78 9 18 C8.34 18 7.68 18 7 18 C4.629 13.037 2.568 8.541 2 3 C1.34 3.66 0.68 4.32 0 5 C0 3.35 0 1.7 0 0 Z " fill="#D6C2AB" transform="translate(50,143)"/>
<path d="M0 0 C1.132 0.908 2.255 1.827 3.375 2.75 C4.001 3.26 4.628 3.771 5.273 4.297 C7.083 6.082 8.001 7.679 9 10 C9.66 9.67 10.32 9.34 11 9 C13 10 13 10 13.621 11.734 C14.047 14.281 14.096 16.669 14.062 19.25 C14.053 20.142 14.044 21.034 14.035 21.953 C14.024 22.629 14.012 23.304 14 24 C13.01 24 12.02 24 11 24 C10.867 23.397 10.734 22.793 10.598 22.172 C10.509 21.772 10.509 21.772 10.062 19.75 C9.888 18.961 9.714 18.172 9.535 17.359 C9.052 15.231 8.538 13.115 8 11 C7.67 12.65 7.34 14.3 7 16 C6.34 15.67 5.68 15.34 5 15 C4.473 13.074 4.473 13.074 4.062 10.688 C3.341 7.05 2.487 4.826 0 2 C0 1.34 0 0.68 0 0 Z " fill="#352D25" transform="translate(139,98)"/>
<path d="M0 0 C0.66 0 1.32 0 2 0 C2.622 8.895 2.622 8.895 0.312 13 C-2.064 15.055 -4.009 16.086 -7 17 C-7.33 16.01 -7.66 15.02 -8 14 C-6.797 12.141 -5.564 10.564 -4 9 C-4 8.01 -4 7.02 -4 6 C-2.125 2.812 -2.125 2.812 0 0 Z " fill="#E37D6C" transform="translate(76,102)"/>
<path d="M0 0 C0 0.33 0 0.66 0 1 C-10.149 2.147 -19.847 1.79 -30 1 C-30 1.66 -30 2.32 -30 3 C-37.429 5.429 -37.429 5.429 -41 4 C-32.652 -5.143 -11.117 -1.248 0 0 Z " fill="#E1D4C4" transform="translate(138,190)"/>
<path d="M0 0 C0.33 0.66 0.66 1.32 1 2 C1.99 1.67 2.98 1.34 4 1 C6.333 0.96 8.667 0.956 11 1 C10.67 1.99 10.34 2.98 10 4 C9.34 4 8.68 4 8 4 C8.33 4.99 8.66 5.98 9 7 C6.69 6.67 4.38 6.34 2 6 C1.67 8.31 1.34 10.62 1 13 C-0.32 13.33 -1.64 13.66 -3 14 C-2.404 9.131 -1.43 4.672 0 0 Z " fill="#EAB0A5" transform="translate(27,86)"/>
<path d="M0 0 C5.75 1.875 5.75 1.875 8 3 C8.33 2.34 8.66 1.68 9 1 C14 6.875 14 6.875 14 8 C13.397 8.133 12.793 8.266 12.172 8.402 C11.373 8.579 10.573 8.756 9.75 8.938 C8.961 9.112 8.172 9.286 7.359 9.465 C5.231 9.948 3.115 10.462 1 11 C1.206 10.113 1.412 9.226 1.625 8.312 C2.026 4.775 1.567 3.134 0 0 Z " fill="#EEE3D4" transform="translate(63,30)"/>
<path d="M0 0 C8.511 0.834 13.414 4.95 20 10 C19.67 10.99 19.34 11.98 19 13 C18.01 13.33 17.02 13.66 16 14 C16 13.34 16 12.68 16 12 C15.34 12 14.68 12 14 12 C13.67 11.01 13.34 10.02 13 9 C12.34 8.67 11.68 8.34 11 8 C11 7.34 11 6.68 11 6 C10.093 5.711 9.185 5.422 8.25 5.125 C5.678 4.235 3.387 3.285 1 2 C0.67 2.66 0.34 3.32 0 4 C0 2.68 0 1.36 0 0 Z " fill="#8E3B2C" transform="translate(10,51)"/>
<path d="M0 0 C4.453 -0.175 8.086 -0.302 12 2 C12.33 3.32 12.66 4.64 13 6 C10.03 7.32 7.06 8.64 4 10 C5 7 5 7 8 5 C5.03 5 2.06 5 -1 5 C-0.67 3.35 -0.34 1.7 0 0 Z " fill="#E6D9CB" transform="translate(53,32)"/>
<path d="M0 0 C1.812 0.125 1.812 0.125 4 1 C8.033 6.33 7.479 12.622 7 19 C6.67 19.99 6.34 20.98 6 22 C6.969 22.124 7.939 22.248 8.938 22.375 C9.443 22.478 9.443 22.478 12 23 C12.33 23.66 12.66 24.32 13 25 C9.7 24.67 6.4 24.34 3 24 C3.33 22.68 3.66 21.36 4 20 C4.118 17.69 4.175 15.376 4.188 13.062 C4.195 12.46 4.195 12.46 4.23 9.41 C4.008 6.112 3.528 3.912 2 1 C1.34 0.67 0.68 0.34 0 0 Z " fill="#C5A88D" transform="translate(126,155)"/>
<path d="M0 0 C0.33 0 0.66 0 1 0 C1 2.64 1 5.28 1 8 C1.382 8.052 1.382 8.052 3.312 8.312 C6.171 9.044 7.157 9.77 9 12 C8.34 12.99 8.34 12.99 5 18 C-0.04 11.952 -1.384 8.817 -1 1 C-0.67 0.67 -0.34 0.34 0 0 Z " fill="#C4894B" transform="translate(30,33)"/>
<path d="M0 0 C0.33 0 0.66 0 1 0 C1.66 4.29 2.32 8.58 3 13 C3.66 13 4.32 13 5 13 C8 18.75 8 18.75 8 21 C6.203 20.824 6.203 20.824 4 20 C2.297 17.707 2.297 17.707 0.75 14.812 C0.49 14.341 0.49 14.341 -0.828 11.957 C-2.124 8.687 -2.366 6.486 -2 3 C-1.34 2.01 -0.68 1.02 0 0 Z " fill="#D1B498" transform="translate(128,142)"/>
<path d="M0 0 C1 4 1 4 1 6 C1.759 5.783 2.519 5.567 3.301 5.344 C4.295 5.065 5.289 4.787 6.312 4.5 C7.299 4.222 8.285 3.943 9.301 3.656 C12 3 12 3 15 3 C15.688 4.812 15.688 4.812 16 7 C14.562 8.75 14.562 8.75 13 10 C13 9.34 13 8.68 13 8 C8.38 8.33 3.76 8.66 -1 9 C-0.67 6.03 -0.34 3.06 0 0 Z " fill="#EADFD1" transform="translate(65,180)"/>
<path d="M0 0 C0.33 0 0.66 0 1 0 C1 5.28 1 10.56 1 16 C1.99 15.67 2.98 15.34 4 15 C5 16 5 16 5.062 18.562 C5.042 19.367 5.021 20.171 5 21 C4.01 21 3.02 21 2 21 C2.041 21.907 2.082 22.815 2.125 23.75 C2.005 26.878 1.609 28.386 0 31 C-0.66 30.67 -1.32 30.34 -2 30 C-1.67 29.34 -1.34 28.68 -1 28 C-0.846 25.896 -0.75 23.788 -0.684 21.68 C-0.642 20.423 -0.6 19.166 -0.557 17.871 C-0.517 16.552 -0.478 15.234 -0.438 13.875 C-0.394 12.535 -0.351 11.195 -0.307 9.855 C-0.2 6.57 -0.098 3.285 0 0 Z " fill="#C6B5A2" transform="translate(51,149)"/>
<path d="M0 0 C0.368 3.312 0.298 4.606 -1.75 7.312 C-4 9 -4 9 -8 9 C-8.312 5.688 -8.312 5.688 -8 2 C-4.905 -0.677 -3.952 -1.317 0 0 Z " fill="#AC3828" transform="translate(64,98)"/>
<path d="M0 0 C2.886 0.398 3.822 0.79 5.75 3.062 C5.956 3.382 5.956 3.382 7 5 C6.67 5.66 6.34 6.32 6 7 C5.34 6.01 4.68 5.02 4 4 C1.562 4.375 1.562 4.375 -1 5 C-2.386 7.771 -2.188 9.933 -2 13 C0 16 0 16 2.125 16.688 C2.744 16.791 3.362 16.894 4 17 C1.688 17.688 1.688 17.688 -1 18 C-3.018 16.487 -3.875 15.251 -5 13 C-5.681 7.094 -5.681 7.094 -3.883 4.207 C-2.655 2.746 -1.333 1.366 0 0 Z " fill="#D2CDC6" transform="translate(36,66)"/>
<path d="M0 0 C0.66 0 1.32 0 2 0 C0.677 3 -0.664 4.853 -3.188 6.938 C-3.806 7.453 -4.425 7.969 -5.062 8.5 C-6.888 9.913 -8.758 11.173 -10.688 12.438 C-14.43 15.016 -16.017 17.954 -18 22 C-18.968 19.385 -19.046 18.156 -18.25 15.438 C-16.047 11.142 -13.409 9.573 -9.062 7.625 C-4.946 5.653 -2.618 3.819 0 0 Z " fill="#231A12" transform="translate(93,102)"/>
<path d="M0 0 C0 0.33 0 0.66 0 1 C-10.539 1.273 -20.579 0.534 -31 -1 C-31 -1.33 -31 -1.66 -31 -2 C-19.825 -3.028 -10.879 -3.001 0 0 Z " fill="#EB8173" transform="translate(68,117)"/>
<path d="M0 0 C0.66 0.66 1.32 1.32 2 2 C0.91 3.465 0.91 3.465 -1 5 C-4.066 5.441 -4.066 5.441 -7.562 5.562 C-13.792 5.792 -13.792 5.792 -16 8 C-16 6.02 -16 4.04 -16 2 C-12.528 0.264 -8.57 0.989 -4.75 1.062 C-2 1 -2 1 0 0 Z " fill="#D0BEAA" transform="translate(113,184)"/>
<path d="M0 0 C5.75 -0.125 5.75 -0.125 8 1 C8 2.65 8 4.3 8 6 C5.479 7.26 4.146 6.919 1.375 6.562 C0.966 6.512 0.966 6.512 -1.102 6.254 C-1.415 6.212 -1.415 6.212 -3 6 C-2.01 4.02 -1.02 2.04 0 0 Z " fill="#45311E" transform="translate(106,178)"/>
<path d="M0 0 C0.33 1.32 0.66 2.64 1 4 C2.32 4.33 3.64 4.66 5 5 C4.432 10.455 3.054 14.911 1 20 C0.67 20 0.34 20 0 20 C0.497 15.027 1.553 11.362 4 7 C3.361 6.897 2.721 6.794 2.062 6.688 C1.382 6.461 0.701 6.234 0 6 C-0.33 5.01 -0.66 4.02 -1 3 C-4.3 3.66 -7.6 4.32 -11 5 C-11 4.34 -11 3.68 -11 3 C-9.543 2.496 -8.084 1.997 -6.625 1.5 C-5.813 1.222 -5.001 0.943 -4.164 0.656 C-2 0 -2 0 0 0 Z " fill="#A38068" transform="translate(115,154)"/>
<path d="M0 0 C3 1 3 1 5 3 C4.67 3.165 4.67 3.165 3 4 C2.34 3.67 1.68 3.34 1 3 C1.107 3.759 1.214 4.519 1.324 5.301 C1.444 6.295 1.564 7.289 1.688 8.312 C1.815 9.299 1.943 10.285 2.074 11.301 C2 14 2 14 0.52 15.855 C0.018 16.233 -0.483 16.611 -1 17 C-2.075 13.776 -2.167 11.325 -2.188 7.938 C-2.202 6.874 -2.216 5.811 -2.23 4.715 C-2 2 -2 2 0 0 Z " fill="#534A3E" transform="translate(98,111)"/>
<path d="M0 0 C5.28 0 10.56 0 16 0 C13.663 2.337 12.173 3.083 9 4 C7.907 3.835 6.814 3.67 5.688 3.5 C1.802 2.973 -0.397 3.454 -4.066 4.52 C-6.731 5.182 -9.271 5.136 -12 5 C-12 4.67 -12 4.34 -12 4 C-8.04 3.34 -4.08 2.68 0 2 C0 1.34 0 0.68 0 0 Z " fill="#F2E7D9" transform="translate(108,191)"/>
<path d="M0 0 C0.33 0.66 0.66 1.32 1 2 C1.99 1.67 2.98 1.34 4 1 C5.845 7.457 7.19 13.431 5 20 C4.34 20 3.68 20 3 20 C2.951 19.085 2.902 18.17 2.852 17.227 C2.777 16.038 2.702 14.85 2.625 13.625 C2.555 12.442 2.486 11.258 2.414 10.039 C2 7 2 7 0 5 C-0.125 2.375 -0.125 2.375 0 0 Z " fill="#715D4B" transform="translate(140,147)"/>
<path d="M0 0 C0.33 0 0.66 0 1 0 C1.33 1.98 1.66 3.96 2 6 C2.66 5.01 3.32 4.02 4 3 C4.481 4.416 4.96 5.833 5.438 7.25 C5.571 7.644 5.571 7.644 6.246 9.641 C6.92 11.748 7.492 13.848 8 16 C9.32 16.33 10.64 16.66 12 17 C5.651 16.634 5.651 16.634 2.625 13.688 C-0.196 9.022 -0.105 5.44 0 0 Z " fill="#E98B7D" transform="translate(22,99)"/>
<path d="M0 0 C0.99 0.33 1.98 0.66 3 1 C5.228 1.069 7.458 1.085 9.688 1.062 C10.867 1.053 12.046 1.044 13.262 1.035 C14.165 1.024 15.069 1.012 16 1 C13.082 2.945 11.375 3.453 8 4 C8.99 5.98 9.98 7.96 11 10 C6.329 8.443 2.913 5.916 -1 3 C-0.67 2.01 -0.34 1.02 0 0 Z " fill="#EBDFD0" transform="translate(99,91)"/>
<path d="M0 0 C0.33 1.32 0.66 2.64 1 4 C3.31 4 5.62 4 8 4 C8 4.33 8 4.66 8 5 C3.798 5.153 0.133 5.136 -3.938 4.062 C-11.116 2.274 -18.641 2.321 -26 2 C-26 1.67 -26 1.34 -26 1 C-25.248 1.005 -24.496 1.01 -23.721 1.016 C-20.335 1.037 -16.949 1.05 -13.562 1.062 C-12.378 1.071 -11.194 1.079 -9.975 1.088 C-8.85 1.091 -7.725 1.094 -6.566 1.098 C-6.045 1.1 -6.045 1.1 -3.408 1.114 C-1 1 -1 1 0 0 Z " fill="#E5DACC" transform="translate(77,191)"/>
<path d="M0 0 C8.794 -0.428 16.513 0.7 25 3 C25 3.66 25 4.32 25 5 C22.03 5 19.06 5 16 5 C16 4.34 16 3.68 16 3 C15.506 2.976 15.506 2.976 13.008 2.852 C12.367 2.814 12.367 2.814 9.125 2.625 C7.849 2.555 6.573 2.486 5.258 2.414 C2 2 2 2 0 0 Z " fill="#B03F2F" transform="translate(37,116)"/>
<path d="M0 0 C0.66 0 1.32 0 2 0 C6.246 6.963 4.829 14.243 4 22 C3.876 21.361 3.752 20.721 3.625 20.062 C3.419 19.382 3.213 18.701 3 18 C2.34 17.67 1.68 17.34 1 17 C1.023 16.301 1.046 15.603 1.07 14.883 C1.088 13.973 1.106 13.063 1.125 12.125 C1.137 11.673 1.137 11.673 1.195 9.383 C1 7 1 7 -1 5 C-0.34 5 0.32 5 1 5 C0.67 3.35 0.34 1.7 0 0 Z " fill="#A0968B" transform="translate(145,109)"/>
<path d="M0 0 C1.771 -0.027 3.542 -0.046 5.312 -0.062 C6.299 -0.074 7.285 -0.086 8.301 -0.098 C11 0 11 0 14 1 C14 1.66 14 2.32 14 3 C14.99 3.33 15.98 3.66 17 4 C14.918 4.108 12.834 4.186 10.75 4.25 C10.17 4.273 10.17 4.273 7.234 4.391 C3.423 3.93 2.345 2.949 0 0 Z " fill="#E67665" transform="translate(39,118)"/>
<path d="M0 0 C0.66 0 1.32 0 2 0 C2.2 10.2 2.2 10.2 -1 15 C-1.682 16.326 -2.352 17.658 -3 19 C-3.99 18.01 -4.98 17.02 -6 16 C-5.34 15.67 -4.68 15.34 -4 15 C-3.396 12.687 -2.89 10.348 -2.438 8 C-1.094 1.094 -1.094 1.094 0 0 Z " fill="#62584C" transform="translate(98,81)"/>
<path d="M0 0 C0.75 1.625 0.75 1.625 1 4 C-2.136 9.712 -2.136 9.712 -6 11 C-6.33 11.66 -6.66 12.32 -7 13 C-10.829 11.547 -12.121 9.571 -14 6 C-13.007 6.13 -13.007 6.13 -8.043 6.781 C-6 7 -6 7 -3 7 C-2.01 4.69 -1.02 2.38 0 0 Z " fill="#BE7E38" transform="translate(106,43)"/>
<path d="M0 0 C0.33 0.99 0.66 1.98 1 3 C3.062 3.688 3.062 3.688 5 4 C5.33 6.64 5.66 9.28 6 12 C0.402 9.566 0.402 9.566 -1.375 7.062 C-2 5 -2 5 -2 1 C-1.34 0.67 -0.68 0.34 0 0 Z " fill="#3C3226" transform="translate(49,133)"/>
<path d="M0 0 C6.529 0.879 6.529 0.879 9.188 1.562 C11 2 11 2 15 2 C14.67 3.32 14.34 4.64 14 6 C11.375 6.812 11.375 6.812 8 7 C5.011 4.873 2.585 2.585 0 0 Z " fill="#2A241B" transform="translate(19,51)"/>
<path d="M0 0 C4 2 4 2 6 5 C5.875 7.5 5.875 7.5 5 10 C3.68 10.99 2.36 11.98 1 13 C0.67 8.71 0.34 4.42 0 0 Z " fill="#F6F0E7" transform="translate(99,114)"/>
<path d="M0 0 C3.96 0 7.92 0 12 0 C12 0.33 12 0.66 12 1 C9.36 1 6.72 1 4 1 C3.34 3.64 2.68 6.28 2 9 C0.68 8.34 -0.64 7.68 -2 7 C-1.125 2.25 -1.125 2.25 0 0 Z " fill="#57412E" transform="translate(81,185)"/>
<path d="M0 0 C-0.205 0.229 -0.205 0.229 -1.242 1.391 C-1.781 2.004 -2.32 2.618 -2.875 3.25 C-3.409 3.853 -3.942 4.457 -4.492 5.078 C-5.98 6.974 -7.003 8.813 -8 11 C-8 10.34 -8 9.68 -8 9 C-9.32 8.34 -10.64 7.68 -12 7 C-9.877 1.402 -5.815 -0.498 0 0 Z " fill="#5E554D" transform="translate(53,37)"/>
<path d="M0 0 C0.99 0.33 1.98 0.66 3 1 C2.01 1.33 1.02 1.66 0 2 C-0.33 2.99 -0.66 3.98 -1 5 C-5.95 5 -10.9 5 -16 5 C-16 4.34 -16 3.68 -16 3 C-15.506 2.934 -15.506 2.934 -13.008 2.598 C-11.726 2.421 -10.445 2.244 -9.125 2.062 C-8.487 1.975 -8.487 1.975 -5.258 1.535 C-2 1 -2 1 0 0 Z " fill="#393026" transform="translate(115,58)"/>
<path d="M0 0 C5.365 0.847 10.679 1.917 16 3 C16 3.66 16 4.32 16 5 C11.71 5 7.42 5 3 5 C3 4.34 3 3.68 3 3 C1.5 1.375 1.5 1.375 0 0 Z " fill="#2F241E" transform="translate(14,63)"/>
<path d="M0 0 C0.485 0.01 0.485 0.01 2.938 0.062 C2.938 2.042 2.938 4.023 2.938 6.062 C0.627 6.062 -1.683 6.062 -4.062 6.062 C-4.105 4.396 -4.103 2.729 -4.062 1.062 C-3.062 0.062 -3.062 0.062 0 0 Z " fill="#EFE0CF" transform="translate(89.0625,174.9375)"/>
<path d="M0 0 C0.771 -0.014 1.542 -0.028 2.336 -0.043 C4.843 0.209 6.458 0.936 8.625 2.188 C8.625 2.847 8.625 3.508 8.625 4.188 C4.005 4.188 -0.615 4.188 -5.375 4.188 C-5.705 3.197 -6.035 2.208 -6.375 1.188 C-4.049 0.025 -2.588 0.021 0 0 Z " fill="#5E5A50" transform="translate(14.375,45.8125)"/>
<path d="M0 0 C1.32 0.66 2.64 1.32 4 2 C2.162 7.515 -0.889 12.971 -6 16 C-6.99 15.34 -7.98 14.68 -9 14 C-8.051 13.567 -7.103 13.134 -6.125 12.688 C-3 11 -3 11 -1 8 C-0.586 5.957 -0.586 5.957 -0.375 3.812 C-0.251 2.554 -0.127 1.296 0 0 Z " fill="#FBC880" transform="translate(101,30)"/>
<path d="M0 0 C0.33 0 0.66 0 1 0 C1.33 3.63 1.66 7.26 2 11 C-0.722 12.361 -2.183 11.704 -5.125 11.062 C-6.035 10.868 -6.945 10.673 -7.883 10.473 C-8.581 10.317 -9.28 10.161 -10 10 C-10 9.67 -10 9.34 -10 9 C-6.38 7.684 -3.904 7 0 7 C0 4.69 0 2.38 0 0 Z " fill="#AB8761" transform="translate(63,172)"/>
<path d="M0 0 C0.66 0.66 1.32 1.32 2 2 C0.903 3.319 -0.203 4.63 -1.312 5.938 C-1.927 6.668 -2.542 7.399 -3.176 8.152 C-5 10 -5 10 -8 11 C-7.914 8.087 -7.421 6.432 -5.375 4.332 C-3.616 2.839 -1.837 1.396 0 0 Z " fill="#CEB299" transform="translate(124,142)"/>
<path d="M0 0 C0.33 0 0.66 0 1 0 C1 6.93 1 13.86 1 21 C-0.32 21.33 -1.64 21.66 -3 22 C-2.934 21.667 -2.934 21.667 -2.598 19.98 C-1.324 13.332 -0.496 6.75 0 0 Z " fill="#E0DBD5" transform="translate(149,120)"/>
<path d="M0 0 C0.66 0.99 1.32 1.98 2 3 C1.175 3.66 0.35 4.32 -0.5 5 C-3.853 9.024 -3.432 10.907 -3 16 C-3.99 15.34 -4.98 14.68 -6 14 C-6.631 10.422 -6.715 8.07 -4.652 4.984 C-3.161 3.25 -1.634 1.6 0 0 Z " fill="#E5D8C9" transform="translate(99,125)"/>
<path d="M0 0 C2.913 0.086 4.568 0.579 6.668 2.625 C8.161 4.384 9.604 6.163 11 8 C10.67 8.66 10.34 9.32 10 10 C9.01 10 8.02 10 7 10 C5 7.25 5 7.25 3 4 C2.011 2.658 1.016 1.321 0 0 Z " fill="#473E35" transform="translate(140,98)"/>
<path d="M0 0 C-0.825 0.557 -1.65 1.114 -2.5 1.688 C-5 4 -5 4 -5.312 6.75 C-5.209 7.492 -5.106 8.235 -5 9 C-5.66 7.68 -6.32 6.36 -7 5 C-8.32 5.33 -9.64 5.66 -11 6 C-11.33 4.68 -11.66 3.36 -12 2 C-7.879 0.002 -4.548 -0.178 0 0 Z " fill="#EEE3D4" transform="translate(63,36)"/>
<path d="M0 0 C2.625 -0.188 2.625 -0.188 5 0 C4.67 0.99 4.34 1.98 4 3 C3.67 3.165 3.67 3.165 2 4 C1.67 4.99 1.34 5.98 1 7 C2.65 7 4.3 7 6 7 C6 7.33 6 7.66 6 8 C3.03 8 0.06 8 -3 8 C-2.453 4.625 -1.945 2.918 0 0 Z " fill="#53402C" transform="translate(54,182)"/>
<path d="M0 0 C4.531 3.501 7.983 6.452 10 12 C9.67 12.66 9.34 13.32 9 14 C8.67 13.01 8.34 12.02 8 11 C7.67 12.65 7.34 14.3 7 16 C6.34 15.67 5.68 15.34 5 15 C4.473 13.074 4.473 13.074 4.062 10.688 C3.341 7.05 2.487 4.826 0 2 C0 1.34 0 0.68 0 0 Z " fill="#282018" transform="translate(139,98)"/>
<path d="M0 0 C0.33 0 0.66 0 1 0 C1.125 5.75 1.125 5.75 0 8 C2.64 8.33 5.28 8.66 8 9 C8 9.66 8 10.32 8 11 C4.7 11.33 1.4 11.66 -2 12 C-2.213 7.532 -1.591 4.177 0 0 Z " fill="#4B3F3A" transform="translate(30,76)"/>
<path d="M0 0 C2.494 1.204 4.681 2.454 7 4 C7 5.32 7 6.64 7 8 C4.283 7.633 2.389 7.273 0.125 5.688 C-1 4 -1 4 -0.688 1.812 C-0.461 1.214 -0.234 0.616 0 0 Z " fill="#B65847" transform="translate(14,56)"/>
<path d="M0 0 C0.33 0.99 0.66 1.98 1 3 C3.64 3 6.28 3 9 3 C9.33 3.99 9.66 4.98 10 6 C6.04 6 2.08 6 -2 6 C-1.34 4.02 -0.68 2.04 0 0 Z " fill="#C9AA89" transform="translate(83,179)"/>
<path d="M0 0 C2 1.062 2 1.062 4 3 C4.25 6.688 4.25 6.688 4 10 C2.062 9.438 2.062 9.438 0 8 C-0.812 4.438 -0.812 4.438 -1 1 C-0.67 0.67 -0.34 0.34 0 0 Z " fill="#A92F23" transform="translate(30,94)"/>
<path d="M0 0 C0.66 0.33 1.32 0.66 2 1 C4.207 1.071 6.417 1.084 8.625 1.062 C9.219 1.058 9.219 1.058 12.227 1.035 C12.684 1.029 12.684 1.029 15 1 C15 1.33 15 1.66 15 2 C12.855 2.165 12.855 2.165 2 3 C1.67 3.99 1.34 4.98 1 6 C-2 8 -2 8 -4.188 7.625 C-4.786 7.419 -5.384 7.213 -6 7 C-5.196 6.588 -4.391 6.175 -3.562 5.75 C-1 4 -1 4 -0.188 1.812 C-0.126 1.214 -0.064 0.616 0 0 Z " fill="#DBCDBB" transform="translate(98,188)"/>
<path d="M0 0 C0.33 0 0.66 0 1 0 C1.33 1.98 1.66 3.96 2 6 C4.31 5.34 6.62 4.68 9 4 C9.33 4.66 9.66 5.32 10 6 C8.546 6.697 7.087 7.382 5.625 8.062 C4.813 8.445 4.001 8.828 3.164 9.223 C2.45 9.479 1.736 9.736 1 10 C0.34 9.67 -0.32 9.34 -1 9 C-0.67 6.03 -0.34 3.06 0 0 Z " fill="#B99379" transform="translate(78,103)"/>
<path d="M0 0 C0.557 0.021 0.557 0.021 3.375 0.125 C3.045 1.115 2.715 2.105 2.375 3.125 C1.715 3.125 1.055 3.125 0.375 3.125 C0.705 4.115 1.035 5.105 1.375 6.125 C-1.895 5.561 -3.451 4.625 -5.625 2.125 C-3.625 0.125 -3.625 0.125 0 0 Z " fill="#F8C5BB" transform="translate(34.625,86.875)"/>
<path d="M0 0 C2.163 1.712 2.93 2.623 3.438 5.375 C2.867 8.797 1.309 10.475 -1 13 C-1.027 11.396 -1.046 9.792 -1.062 8.188 C-1.074 7.294 -1.086 6.401 -1.098 5.48 C-1 3 -1 3 0 0 Z " fill="#EFE9DF" transform="translate(98,170)"/>
<path d="M0 0 C1.607 3.215 1.057 6.436 1 10 C2.32 10.66 3.64 11.32 5 12 C4.67 12.66 4.34 13.32 4 14 C1.481 13.664 0.328 13.426 -1.25 11.375 C-2.271 8.141 -2.249 5.368 -2 2 C-1.34 1.34 -0.68 0.68 0 0 Z " fill="#473728" transform="translate(152,141)"/>
<path d="M0 0 C0.33 0 0.66 0 1 0 C1.492 7.262 1.492 7.262 -1 11 C-1.66 11.66 -2.32 12.32 -3 13 C-3.99 12.67 -4.98 12.34 -6 12 C-5.381 11.134 -4.763 10.267 -4.125 9.375 C-2.153 6.244 -1.01 3.536 0 0 Z " fill="#F3F0EA" transform="translate(84,75)"/>
<path d="M0 0 C1.32 0 2.64 0 4 0 C3.34 2.31 2.68 4.62 2 7 C0.68 7 -0.64 7 -2 7 C-1.125 1.125 -1.125 1.125 0 0 Z " fill="#58442F" transform="translate(87,187)"/>
<path d="M0 0 C0.66 0.33 0.66 0.33 4 2 C3.67 2.495 3.67 2.495 2 5 C2.722 5.289 3.444 5.578 4.188 5.875 C6.792 6.917 9.396 7.958 12 9 C9.85 10.032 8.469 10.161 6.211 9.387 C4.245 8.404 2.642 7.465 1 6 C0.062 2.75 0.062 2.75 0 0 Z " fill="#DD7E6E" transform="translate(35,116)"/>
<path d="M0 0 C0.33 0 0.66 0 1 0 C1.054 1.416 1.093 2.833 1.125 4.25 C1.148 5.039 1.171 5.828 1.195 6.641 C0.983 9.207 0.287 10.792 -1 13 C-1.66 12.34 -2.32 11.68 -3 11 C-2.646 7.02 -1.607 3.643 0 0 Z " fill="#221E17" transform="translate(68,76)"/>
<path d="M0 0 C2.5 1.312 2.5 1.312 4.5 5.312 C1.2 4.653 -2.1 3.992 -5.5 3.312 C-5.17 2.322 -4.84 1.333 -4.5 0.312 C-2.5 -0.688 -2.5 -0.688 0 0 Z " fill="#221D15" transform="translate(80.5,55.6875)"/>
<path d="M0 0 C4.668 1.64 4.668 1.64 6.5 3.625 C8 5 8 5 10.688 5.188 C11.451 5.126 12.214 5.064 13 5 C12.67 5.99 12.34 6.98 12 8 C6.736 7.681 3.556 4.607 0 1 C0 0.67 0 0.34 0 0 Z " fill="#1C100B" transform="translate(19,52)"/>
<path d="M0 0 C3.688 0.498 5.605 1.101 8 4 C7.01 4.99 6.02 5.98 5 7 C4.01 6.67 3.02 6.34 2 6 C2 5.34 2 4.68 2 4 C1.365 2.651 0.702 1.315 0 0 Z " fill="#DF9843" transform="translate(31,41)"/>
<path d="M0 0 C0.33 0 0.66 0 1 0 C1 3.96 1 7.92 1 12 C-0.32 11.34 -1.64 10.68 -3 10 C-2.692 8.52 -2.378 7.041 -2.062 5.562 C-1.975 5.151 -1.975 5.151 -1.535 3.066 C-1 1 -1 1 0 0 Z " fill="#E1CCB5" transform="translate(141,167)"/>
<path d="M0 0 C2.97 0 5.94 0 9 0 C9.33 1.32 9.66 2.64 10 4 C9.464 3.907 9.464 3.907 6.75 3.438 C3.596 3.07 1.902 2.955 -1 4 C-0.67 2.68 -0.34 1.36 0 0 Z " fill="#FBC9BE" transform="translate(54,93)"/>
<path d="M0 0 C0.66 0.33 1.32 0.66 2 1 C2 1.66 2 2.32 2 3 C3.98 3.66 5.96 4.32 8 5 C8 5.99 8 6.98 8 8 C5.03 7.01 2.06 6.02 -1 5 C-0.67 3.35 -0.34 1.7 0 0 Z " fill="#EEB15F" transform="translate(32,36)"/>
<path d="M0 0 C1.32 0.33 2.64 0.66 4 1 C3.34 1 2.68 1 2 1 C1.67 2.98 1.34 4.96 1 7 C0.01 7.33 -0.98 7.66 -2 8 C-2.688 6.25 -2.688 6.25 -3 4 C-1.562 1.75 -1.562 1.75 0 0 Z " fill="#63503D" transform="translate(49,181)"/>
<path d="M0 0 C1.65 0.33 3.3 0.66 5 1 C4.494 3.169 4 5 3 7 C2.01 7 1.02 7 0 7 C-1.125 2.25 -1.125 2.25 0 0 Z " fill="#5E4B36" transform="translate(127,181)"/>
<path d="M0 0 C0 1.98 0 3.96 0 6 C-1.65 6.33 -3.3 6.66 -5 7 C-4.688 4.625 -4.688 4.625 -4 2 C-1 0 -1 0 0 0 Z " fill="#3F2B1A" transform="translate(142,182)"/>
<path d="M0 0 C0.66 0 1.32 0 2 0 C2.054 1.625 2.093 3.25 2.125 4.875 C2.148 5.78 2.171 6.685 2.195 7.617 C2 10 2 10 0 12 C-0.194 10.188 -0.38 8.376 -0.562 6.562 C-0.667 5.553 -0.771 4.544 -0.879 3.504 C-0.919 2.678 -0.959 1.851 -1 1 C-0.67 0.67 -0.34 0.34 0 0 Z " fill="#D87460" transform="translate(76,102)"/>
<path d="M0 0 C0.66 0.33 0.66 0.33 4 2 C3.67 4.31 3.34 6.62 3 9 C2.01 9 1.02 9 0 9 C0 6.03 0 3.06 0 0 Z " fill="#3A352F" transform="translate(128,57)"/>
<path d="M0 0 C0 0.99 0 1.98 0 3 C-2.145 3.165 -2.145 3.165 -13 4 C-8.922 -0.078 -5.743 0 0 0 Z " fill="#292117" transform="translate(128,57)"/>
<path d="M0 0 C-1.59 4.035 -3.282 8.018 -5 12 C-6.254 8.239 -5.839 5.846 -5 2 C-2 0 -2 0 0 0 Z " fill="#B28872" transform="translate(77,115)"/>
<path d="M0 0 C0 0.66 0 1.32 0 2 C-0.454 2.124 -0.454 2.124 -2.75 2.75 C-6.104 4.04 -7.677 5.32 -10 8 C-9.645 5.373 -9.275 3.42 -7.812 1.188 C-5.206 -0.52 -3.04 -0.203 0 0 Z " fill="#EAE9E9" transform="translate(80,70)"/>
<path d="M0 0 C0.66 0.33 1.32 0.66 2 1 C1.34 1.66 0.68 2.32 0 3 C0 3.99 0 4.98 0 6 C-0.66 6 -1.32 6 -2 6 C-3.373 7.292 -4.71 8.624 -6 10 C-5.586 5.167 -3.536 3.173 0 0 Z " fill="#53473D" transform="translate(42,41)"/>
<path d="M0 0 C3.312 -0.188 3.312 -0.188 7 0 C7.99 0.99 8.98 1.98 10 3 C8.515 2.67 8.515 2.67 1 1 C1 1.66 1 2.32 1 3 C2.32 3.33 3.64 3.66 5 4 C3.02 4.33 1.04 4.66 -1 5 C-0.67 3.35 -0.34 1.7 0 0 Z " fill="#B4A496" transform="translate(53,32)"/>
<path d="M0 0 C0.722 0.474 1.444 0.949 2.188 1.438 C4.895 2.942 6.962 3.566 10 4 C9.67 4.66 9.34 5.32 9 6 C2.375 5.25 2.375 5.25 -1 3 C-0.67 2.01 -0.34 1.02 0 0 Z " fill="#F28D7C" transform="translate(38,118)"/>
<path d="M0 0 C0.99 0.33 1.98 0.66 3 1 C5.228 1.069 7.458 1.085 9.688 1.062 C10.867 1.053 12.046 1.044 13.262 1.035 C14.165 1.024 15.069 1.012 16 1 C12.478 3.348 10.492 3.377 6.312 3.625 C5.133 3.7 3.954 3.775 2.738 3.852 C1.835 3.901 0.931 3.95 0 4 C-0.33 3.34 -0.66 2.68 -1 2 C-0.67 1.34 -0.34 0.68 0 0 Z " fill="#CABDAF" transform="translate(99,91)"/>
<path d="M0 0 C2.5 -0.375 2.5 -0.375 5 0 C5.66 0.99 6.32 1.98 7 3 C3.675 4.108 1.378 3.845 -2 3 C-1.34 2.01 -0.68 1.02 0 0 Z " fill="#44403D" transform="translate(74,73)"/>
<path d="M0 0 C3.669 0.706 6.705 2.277 10 4 C6.99 4.934 6.133 5.044 3 4 C2.34 4.66 1.68 5.32 1 6 C0.67 4.02 0.34 2.04 0 0 Z " fill="#A34A39" transform="translate(11,53)"/>
<path d="M0 0 C1.5 1.062 1.5 1.062 3 3 C3.188 6.688 3.188 6.688 3 10 C2.01 10.33 1.02 10.66 0 11 C-1.054 7.018 -0.841 4.018 0 0 Z " fill="#C8B49F" transform="translate(105,163)"/>
<path d="M0 0 C0.33 0.66 0.66 1.32 1 2 C-0.188 4 -0.188 4 -2 6 C-4.5 6.5 -4.5 6.5 -7 6 C-8.812 4 -8.812 4 -10 2 C-7.36 2.66 -4.72 3.32 -2 4 C-1.34 2.68 -0.68 1.36 0 0 Z " fill="#7D522E" transform="translate(81,81)"/>
<path d="M0 0 C6.625 -0.25 6.625 -0.25 10 2 C9 3 9 3 6.934 3.098 C6.11 3.086 5.286 3.074 4.438 3.062 C3.611 3.053 2.785 3.044 1.934 3.035 C1.296 3.024 0.657 3.012 0 3 C0 2.01 0 1.02 0 0 Z " fill="#453F37" transform="translate(117,55)"/>
<path d="M0 0 C-3.006 3.006 -5.824 2.596 -10 3 C-10 2.01 -10 1.02 -10 0 C-6.424 -1.238 -3.663 -0.749 0 0 Z " fill="#656056" transform="translate(119,56)"/>
<path d="M0 0 C0.33 0.66 0.66 1.32 1 2 C1.99 1.67 2.98 1.34 4 1 C4.33 3.64 4.66 6.28 5 9 C4.67 9.165 4.67 9.165 3 10 C2.34 8.35 1.68 6.7 1 5 C0.67 5 0.34 5 0 5 C0 3.35 0 1.7 0 0 Z " fill="#AA9682" transform="translate(140,147)"/>
<path d="M0 0 C0.629 0.021 0.629 0.021 3.812 0.125 C1.907 2.56 0.807 3.127 -2.25 3.938 C-2.735 3.968 -2.735 3.968 -5.188 4.125 C-5.847 3.465 -6.508 2.805 -7.188 2.125 C-4.099 0.066 -3.478 -0.114 0 0 Z " fill="#F0806F" transform="translate(52.1875,121.875)"/>
<path d="M0 0 C0.66 0 1.32 0 2 0 C2.99 2.97 3.98 5.94 5 9 C1 7 1 7 -1 5 C-0.34 5 0.32 5 1 5 C0.67 3.35 0.34 1.7 0 0 Z " fill="#776A5E" transform="translate(145,109)"/>
<path d="M0 0 C1.65 0 3.3 0 5 0 C4.67 2.31 4.34 4.62 4 7 C3.34 6.01 2.68 5.02 2 4 C1.01 3.67 0.02 3.34 -1 3 C-0.67 2.01 -0.34 1.02 0 0 Z " fill="#DBC5AF" transform="translate(126,134)"/>
<path d="M0 0 C3.3 0.33 6.6 0.66 10 1 C10 1.66 10 2.32 10 3 C7.03 3 4.06 3 1 3 C0.67 2.01 0.34 1.02 0 0 Z " fill="#BB4737" transform="translate(52,118)"/>
<path d="M0 0 C1.667 0.667 1.667 0.667 10 4 C8.438 5.188 8.438 5.188 6 6 C2.25 4.625 2.25 4.625 -1 3 C-0.67 2.01 -0.34 1.02 0 0 Z " fill="#61594E" transform="translate(132,93)"/>
<path d="M0 0 C0.99 1.32 1.98 2.64 3 4 C2.67 4.66 2.34 5.32 2 6 C0.515 5.67 0.515 5.67 -7 4 C-4.681 2.454 -2.494 1.204 0 0 Z " fill="#EDDDCF" transform="translate(64,84)"/>
<path d="M0 0 C4.875 4.75 4.875 4.75 6 7 C3.69 7 1.38 7 -1 7 C-0.67 4.69 -0.34 2.38 0 0 Z " fill="#E1D3C3" transform="translate(71,31)"/>
<path d="M0 0 C-8.429 3.429 -8.429 3.429 -13 3 C-12.67 2.01 -12.34 1.02 -12 0 C-10.564 -0.196 -9.126 -0.381 -7.688 -0.562 C-6.887 -0.667 -6.086 -0.771 -5.262 -0.879 C-3 -1 -3 -1 0 0 Z " fill="#D3B9A1" transform="translate(115,154)"/>
<path d="M0 0 C0.99 0.66 1.98 1.32 3 2 C3.188 5.125 3.188 5.125 3 8 C2.34 7.01 1.68 6.02 1 5 C-0.32 5.99 -1.64 6.98 -3 8 C-2.691 7.237 -2.381 6.474 -2.062 5.688 C-1.321 3.812 -0.638 1.913 0 0 Z " fill="#EFE1D1" transform="translate(106,124)"/>
<path d="M0 0 C0 3.3 0 6.6 0 10 C-0.66 9.67 -1.32 9.34 -2 9 C-2.594 6.351 -2.742 3.708 -3 1 C-1 0 -1 0 0 0 Z " fill="#D8C9B9" transform="translate(147,116)"/>
<path d="M0 0 C0.66 0.33 1.32 0.66 2 1 C1.125 6.875 1.125 6.875 0 8 C-1.666 8.041 -3.334 8.043 -5 8 C-4.361 7.752 -3.721 7.505 -3.062 7.25 C-1 6 -1 6 -0.25 3.875 C-0.168 3.256 -0.085 2.637 0 2 C-0.99 1.67 -1.98 1.34 -3 1 C-2.01 0.67 -1.02 0.34 0 0 Z " fill="#2B1E10" transform="translate(62,183)"/>
<path d="M0 0 C1.65 0 3.3 0 5 0 C5 2.97 5 5.94 5 9 C4.67 9 4.34 9 4 9 C4 7.02 4 5.04 4 3 C2.35 3 0.7 3 -1 3 C-0.67 2.01 -0.34 1.02 0 0 Z " fill="#A48665" transform="translate(138,178)"/>
<path d="M0 0 C0.66 0.99 1.32 1.98 2 3 C1.67 3.99 1.34 4.98 1 6 C0.34 6 -0.32 6 -1 6 C-1.66 6.66 -2.32 7.32 -3 8 C-3 6.02 -3 4.04 -3 2 C-2.01 2 -1.02 2 0 2 C0 1.34 0 0.68 0 0 Z " fill="#D2BDA7" transform="translate(105,139)"/>
<path d="M0 0 C0.66 0 1.32 0 2 0 C2.082 4.161 1.982 7.947 1 12 C0.67 12 0.34 12 0 12 C-0.762 7.684 -1.161 4.256 0 0 Z " fill="#53463A" transform="translate(146,127)"/>
<path d="M0 0 C0.99 0.33 1.98 0.66 3 1 C3 1.66 3 2.32 3 3 C3.66 3 4.32 3 5 3 C5.33 5.31 5.66 7.62 6 10 C3.477 6.876 1.727 3.619 0 0 Z " fill="#4A4238" transform="translate(102,115)"/>
<path d="M0 0 C2.993 1.098 3.846 1.677 5.25 4.625 C5.498 5.409 5.745 6.192 6 7 C5.34 7 4.68 7 4 7 C4 6.34 4 5.68 4 5 C2.68 5 1.36 5 0 5 C0 3.35 0 1.7 0 0 Z " fill="#E8E3DC" transform="translate(99,114)"/>
<path d="M0 0 C3 1 3 1 5 3 C4.691 3.052 4.691 3.052 3.125 3.312 C1 4 1 4 -1 7 C-1.625 4.625 -1.625 4.625 -2 2 C-1.34 1.34 -0.68 0.68 0 0 Z " fill="#463D32" transform="translate(98,111)"/>
<path d="M0 0 C3 1 3 1 5 4 C5.125 6.688 5.125 6.688 5 9 C0.571 3.857 0.571 3.857 0 0 Z " fill="#CAB29A" transform="translate(55,150)"/>
<path d="M0 0 C1.562 1.75 1.562 1.75 3 4 C2.688 6.25 2.688 6.25 2 8 C2 7.34 2 6.68 2 6 C1.34 6 0.68 6 0 6 C0 5.34 0 4.68 0 4 C-0.99 3.67 -1.98 3.34 -3 3 C-2.01 2.01 -1.02 1.02 0 0 Z " fill="#D76F5C" transform="translate(123,149)"/>
<path d="M0 0 C0.66 1.32 1.32 2.64 2 4 C0.625 6 0.625 6 -1 8 C-1.66 8 -2.32 8 -3 8 C-2.691 7.237 -2.381 6.474 -2.062 5.688 C-1.321 3.812 -0.638 1.913 0 0 Z M3 1 C3 4 3 4 3 4 Z " fill="#DED1C2" transform="translate(92,149)"/>
<path d="M0 0 C0.66 0 1.32 0 2 0 C2 1.98 2 3.96 2 6 C1.34 6 0.68 6 0 6 C0 6.66 0 7.32 0 8 C-0.66 8 -1.32 8 -2 8 C-1.34 5.36 -0.68 2.72 0 0 Z " fill="#DAC6AF" transform="translate(100,145)"/>
<path d="M0 0 C0.33 0 0.66 0 1 0 C1 2.31 1 4.62 1 7 C-0.32 7.33 -1.64 7.66 -3 8 C-3 6.68 -3 5.36 -3 4 C-2.34 4 -1.68 4 -1 4 C-0.67 2.68 -0.34 1.36 0 0 Z " fill="#FAB0A4" transform="translate(27,92)"/>
<path d="M0 0 C0.99 0 1.98 0 3 0 C3.66 1.32 4.32 2.64 5 4 C3.35 4.33 1.7 4.66 0 5 C-0.33 4.01 -0.66 3.02 -1 2 C-0.67 1.34 -0.34 0.68 0 0 Z " fill="#F1E6D5" transform="translate(43,79)"/>
<path d="M0 0 C1.98 0 3.96 0 6 0 C6.33 1.65 6.66 3.3 7 5 C3.894 5 2.647 4.461 0 3 C1.65 3 3.3 3 5 3 C5 2.34 5 1.68 5 1 C3.35 1 1.7 1 0 1 C0 0.67 0 0.34 0 0 Z " fill="#B9B8B5" transform="translate(75,69)"/>
<path d="M0 0 C1.279 -0.062 2.557 -0.124 3.875 -0.188 C4.235 -0.205 4.235 -0.205 6.055 -0.293 C6.697 -0.196 7.339 -0.1 8 0 C8.66 0.99 9.32 1.98 10 3 C9.093 2.794 8.185 2.588 7.25 2.375 C3.89 1.987 2.759 2.196 0 4 C0 2.68 0 1.36 0 0 Z " fill="#25201C" transform="translate(32,65)"/>
<path d="M0 0 C3.588 1.259 6.295 2.295 9 5 C4.805 4.401 0.99 3.425 -3 2 C-2.01 1.34 -1.02 0.68 0 0 Z " fill="#BBAB9D" transform="translate(76,35)"/>
<path d="M0 0 C-2.901 1.934 -3.897 2.301 -7.188 2.625 C-8.446 2.749 -9.704 2.873 -11 3 C-8.218 -1.174 -4.534 -0.223 0 0 Z " fill="#E9DDCE" transform="translate(108,192)"/>
<path d="M0 0 C0.66 0.33 1.32 0.66 2 1 C2 2.65 2 4.3 2 6 C1.01 6 0.02 6 -1 6 C-1.33 4.35 -1.66 2.7 -2 1 C-1.34 0.67 -0.68 0.34 0 0 Z " fill="#DEC6AB" transform="translate(54,164)"/>
<path d="M0 0 C1.65 0 3.3 0 5 0 C5 1.32 5 2.64 5 4 C4.67 4.165 4.67 4.165 3 5 C2.01 4.01 1.02 3.02 0 2 C0.99 1.67 1.98 1.34 3 1 C2.01 0.67 1.02 0.34 0 0 Z " fill="#544B41" transform="translate(126,92)"/>
<path d="M0 0 C0.66 0.33 1.32 0.66 2 1 C1.67 3.97 1.34 6.94 1 10 C0.67 8.68 0.34 7.36 0 6 C-0.66 5.67 -1.32 5.34 -2 5 C-1.34 5 -0.68 5 0 5 C0 3.35 0 1.7 0 0 Z " fill="#A6907A" transform="translate(114,173)"/>
<path d="M0 0 C0.33 0 0.66 0 1 0 C1 2.64 1 5.28 1 8 C0.01 8.33 -0.98 8.66 -2 9 C-2.66 8.34 -3.32 7.68 -4 7 C-2.68 6.67 -1.36 6.34 0 6 C0 4.02 0 2.04 0 0 Z " fill="#2C2115" transform="translate(128,123)"/>
<path d="M0 0 C0.99 0.66 1.98 1.32 3 2 C2.688 3.938 2.688 3.938 2 6 C1.01 6.33 0.02 6.66 -1 7 C-0.67 5.68 -0.34 4.36 0 3 C-0.99 2.67 -1.98 2.34 -3 2 C-2.01 1.34 -1.02 0.68 0 0 Z " fill="#E6917F" transform="translate(76,96)"/>
<path d="M0 0 C1 3 1 3 0.312 5.125 C-1 7 -1 7 -3.125 7.75 C-3.434 7.791 -3.434 7.791 -5 8 C-5 5 -5 5 -2.5 2.312 C-1.675 1.549 -0.85 0.786 0 0 Z " fill="#EEE7DF" transform="translate(105,49)"/>
</svg>
