<?xml version="1.0" encoding="UTF-8"?>
<!-- Generator: visioncortex VTracer 0.6.12 -->
<svg version="1.1" xmlns="http://www.w3.org/2000/svg" width="167" height="200">
<path d="M0 0 C55.11 0 110.22 0 167 0 C167 66 167 132 167 200 C111.89 200 56.78 200 0 200 C0 134 0 68 0 0 Z " fill="#FDF8F1" transform="translate(0,0)"/>
<path d="M0 0 C0.99 0.66 1.98 1.32 3 2 C2.67 2.99 2.34 3.98 2 5 C1.546 5.196 1.546 5.196 -0.75 6.188 C-5.828 9.02 -8.19 13.569 -10 19 C-3.787 17.904 -3.787 17.904 -1.527 15.309 C-0.695 14.049 0.103 12.767 0.859 11.461 C1.236 10.979 1.612 10.497 2 10 C2.99 10 3.98 10 5 10 C6.981 13.962 6.438 18.263 5.387 22.434 C2.854 29.585 -1.414 36.288 -8.074 40.227 C-10 41.062 -10 41.062 -13 42 C-13 44.64 -13 47.28 -13 50 C-10.062 51.524 -7.077 52.785 -4 54 C-3.359 53.469 -2.719 52.938 -2.059 52.391 C2.782 48.437 7.456 44.892 13 42 C12.67 41.464 12.34 40.928 12 40.375 C10.666 37.206 10.463 35.424 11 32 C12.918 28.496 15.081 25.591 19.004 24.383 C23.11 24.118 24.665 24.73 27.938 27.375 C31.601 32.037 31 32.06 31 39 C35.62 39 40.24 39 45 39 C45 37.02 45 35.04 45 33 C47.04 29.342 48.504 27.331 52 25 C56.212 24.532 58.286 24.534 61.875 26.875 C64.794 29.794 65.154 31.36 65.188 35.375 C65.202 36.146 65.216 36.917 65.23 37.711 C64.978 40.218 64.252 41.833 63 44 C63.727 44.095 64.454 44.191 65.203 44.289 C68.409 45.104 70.172 46.325 72.75 48.375 C73.139 48.678 73.139 48.678 75.109 50.211 C77 52 77 52 78 55 C79.65 54.67 81.3 54.34 83 54 C83 53.34 83 52.68 83 52 C84.65 51.34 86.3 50.68 88 50 C87.959 49.237 87.918 48.474 87.875 47.688 C88 45 88 45 90 42 C89.175 41.856 88.35 41.711 87.5 41.562 C82.311 39.246 79.45 35.419 76 31 C75.769 30.715 75.769 30.715 74.602 29.273 C70.986 24.068 71.44 18.049 72 12 C72.33 11.34 72.66 10.68 73 10 C74.812 10.125 74.812 10.125 77 11 C77.433 11.969 77.866 12.939 78.312 13.938 C80 17 80 17 83.688 18.375 C84.234 18.478 84.234 18.478 87 19 C85.661 11.098 85.661 11.098 82.062 8.062 C79 6 79 6 76 5 C76.875 1.125 76.875 1.125 78 0 C86.441 -0.804 92.294 1.399 99.012 6.539 C104.457 11.524 108.467 17.647 109.375 25.062 C109.489 30.774 108.713 35.539 107 41 C107.041 42.155 107.083 43.31 107.125 44.5 C106.965 48.975 105.498 51.392 103 55 C102.423 55.866 101.845 56.733 101.25 57.625 C95.458 63.738 89.218 65.872 81 67 C80.835 67.66 80.835 67.66 80 71 C81.155 70.505 82.31 70.01 83.5 69.5 C87.743 67.961 91.537 66.795 96 68 C99.105 69.953 101.519 72.313 104 75 C104.532 75.552 105.065 76.103 105.613 76.672 C109.175 80.885 109.49 84.435 109.273 89.863 C109 92 109 92 108 94 C107.01 94 106.02 94 105 94 C104.841 93.397 104.683 92.793 104.52 92.172 C102.965 86.846 101.686 84.244 97 81 C96.34 79.68 95.68 78.36 95 77 C91.7 77 88.4 77 85 77 C85 77.66 85 78.32 85 79 C86.072 78.897 87.145 78.794 88.25 78.688 C92 79 92 79 94.188 80.938 C97.844 87.115 100.976 92.608 100 100 C98.604 103.3 96.986 106.021 95 109 C94.01 109 93.02 109 92 109 C92.058 108.299 92.116 107.597 92.176 106.875 C92.477 100.539 91.975 96.745 88.094 91.656 C87 90 87 90 87 87 C85.68 87.33 84.36 87.66 83 88 C83.33 88.495 83.33 88.495 85 91 C85.844 96.044 86.164 100.962 83.574 105.496 C80.732 108.813 78.077 111.323 74 113 C71.25 113.125 71.25 113.125 69 113 C69.312 111.125 69.312 111.125 70 109 C70.99 108.34 71.98 107.68 73 107 C73.949 103.961 73.949 103.961 74.688 100.375 C74.939 99.186 75.19 97.998 75.449 96.773 C75.631 95.858 75.813 94.943 76 94 C74.35 94 72.7 94 71 94 C70.773 94.763 70.546 95.526 70.312 96.312 C68.69 99.634 67.353 100.518 64 102 C61.188 102.188 61.188 102.188 59 102 C59 101.34 59 100.68 59 100 C60.983 98.313 62.983 96.646 65 95 C65.33 94.34 65.66 93.68 66 93 C61.858 92.133 58.807 92.025 54.688 92.938 C42.028 95.232 29.397 94.048 16.73 92.438 C13 92 13 92 9 92 C10.829 96.115 12.304 98.451 16 101 C16 101.66 16 102.32 16 103 C11.418 103.694 9.045 102.014 5.453 99.484 C3.724 97.718 3.391 96.408 3 94 C1.35 94 -0.3 94 -2 94 C-1.67 94.66 -1.34 95.32 -1 96 C-0.873 97.436 -0.772 98.874 -0.688 100.312 C-0.274 104.679 1.081 106.692 4 110 C3.835 110.495 3.835 110.495 3 113 C-2.893 112.713 -6.054 110.089 -10 106 C-12.462 102.307 -12.119 100.787 -11.75 96.438 C-11.662 95.281 -11.575 94.125 -11.484 92.934 C-11 90 -11 90 -9 88 C-10.32 87.67 -11.64 87.34 -13 87 C-13.082 87.887 -13.165 88.774 -13.25 89.688 C-14 93 -14 93 -16.062 95.375 C-18.837 99.134 -18.372 101.388 -18 106 C-17.67 106.99 -17.34 107.98 -17 109 C-18.32 109 -19.64 109 -21 109 C-25.135 103.683 -26.47 99.707 -26 93 C-24.645 89.543 -24.645 89.543 -22.812 86.188 C-22.221 85.067 -21.629 83.947 -21.02 82.793 C-18.838 79.776 -17.537 78.959 -14 78 C-15.155 77.835 -15.155 77.835 -21 77 C-21.113 77.361 -21.113 77.361 -21.688 79.188 C-23 82 -23 82 -25.438 84.375 C-28.474 87.486 -29.497 89.966 -31 94 C-31.99 93.67 -32.98 93.34 -34 93 C-34.441 86.12 -34.712 81.456 -30 76 C-29.495 75.38 -28.989 74.76 -28.469 74.121 C-24.421 69.211 -24.421 69.211 -22 68 C-16.212 67.701 -11.564 68.41 -6 70 C-6 68.68 -6 67.36 -6 66 C-7.299 65.959 -8.599 65.918 -9.938 65.875 C-15.682 65.232 -19.676 62.741 -24 59 C-26.375 55.938 -26.375 55.938 -28 53 C-28.578 52.278 -29.155 51.556 -29.75 50.812 C-31.459 46.967 -31.177 43.586 -31.008 39.426 C-31 37 -31 37 -32 35 C-32.908 26.738 -31.058 19.574 -26.25 12.812 C-19.459 4.395 -11.345 -1.693 0 0 Z " fill="#D13E17" transform="translate(45,74)"/>
<path d="M0 0 C1.65 0 3.3 0 5 0 C4.67 0.495 4.67 0.495 3 3 C2.022 7.85 0.904 13.404 2.879 18.082 C5.336 21.125 8.471 23.371 12 25 C13.32 25 14.64 25 16 25 C14.796 22.506 13.546 20.319 12 18 C11.586 15.301 11.586 15.301 11.375 12.312 C11.3 11.319 11.225 10.325 11.148 9.301 C11.124 8.921 11.124 8.921 11 7 C13.406 6.855 13.406 6.855 16 7 C17.058 8.631 18.053 10.303 19 12 C22.239 14.387 25.03 15.433 29 16 C29 15.34 29 14.68 29 14 C28.402 13.752 27.804 13.505 27.188 13.25 C24.664 11.808 23.5 10.475 22 8 C22 7.01 22 6.02 22 5 C27.133 3.973 31.264 4.084 36.438 4.938 C48.803 6.88 60.729 6.375 73.023 4.242 C76 4 76 4 79 6 C77.715 8.867 76.429 10.976 74 13 C73.34 13 72.68 13 72 13 C72 13.66 72 14.32 72 15 C76.842 13.883 79.828 12.904 83 9 C83.33 8.34 83.66 7.68 84 7 C85.65 7 87.3 7 89 7 C88.772 9.107 88.517 11.21 88.25 13.312 C88.111 14.484 87.972 15.656 87.828 16.863 C86.877 20.464 86.036 21.058 83 23 C82.835 23.495 82.835 23.495 82 26 C87.739 24.661 92.293 23.005 95.973 18.234 C98.041 13.735 97.706 8.814 97 4 C95.969 1.637 95.969 1.637 95 0 C96.65 0 98.3 0 100 0 C100.818 1.581 101.629 3.165 102.438 4.75 C102.89 5.632 103.342 6.513 103.809 7.422 C106.278 12.766 105.86 16.266 105 22 C105.99 22 106.98 22 108 22 C108.165 21.505 108.165 21.505 109 19 C110.98 19.33 112.96 19.66 115 20 C114.313 21.937 114.313 21.937 113 24 C111.343 24.379 109.674 24.706 108 25 C106.54 25.536 105.081 26.078 103.625 26.625 C96.793 28.768 89.999 27.775 83 27 C83 27.66 83 28.32 83 29 C82.114 28.988 81.229 28.977 80.316 28.965 C73.527 28.915 66.836 29.045 60.062 29.562 C51.658 30.183 43.34 29.796 34.934 29.319 C33.948 29.265 32.961 29.211 31.945 29.156 C31.064 29.103 30.182 29.049 29.274 28.994 C27 29 27 29 24 30 C23.01 29.34 22.02 28.68 21 28 C18.732 27.681 18.732 27.681 16.113 27.586 C15.175 27.547 14.238 27.509 13.271 27.469 C12.295 27.438 11.319 27.407 10.312 27.375 C9.324 27.336 8.336 27.298 7.318 27.258 C4.879 27.164 2.44 27.078 0 27 C0 26.34 0 25.68 0 25 C-1.98 25 -3.96 25 -6 25 C-6 24.34 -6 23.68 -6 23 C-6.99 23.33 -7.98 23.66 -9 24 C-11.688 23.062 -11.688 23.062 -14 22 C-13.67 21.34 -13.34 20.68 -13 20 C-10.938 19.375 -10.938 19.375 -9 19 C-8.67 19.99 -8.34 20.98 -8 22 C-6.68 22 -5.36 22 -4 22 C-4.66 21.01 -5.32 20.02 -6 19 C-6.682 11.955 -6.682 11.955 -4.125 8.375 C-3.424 7.591 -2.723 6.808 -2 6 C-0.75 2.688 -0.75 2.688 0 0 Z " fill="#DEC5AE" transform="translate(32,161)"/>
<path d="M0 0 C3.219 0.967 4.873 2.993 6.898 5.57 C7.898 7.57 7.898 7.57 7.898 14.57 C12.518 14.57 17.138 14.57 21.898 14.57 C21.898 12.59 21.898 10.61 21.898 8.57 C23.938 4.912 25.403 2.901 28.898 0.57 C33.11 0.102 35.184 0.105 38.773 2.445 C41.618 5.29 42.102 6.959 42.273 10.883 C42.249 14.715 42.038 15.394 39.523 18.57 C35.395 21.716 33.07 21.666 27.898 21.57 C28.898 24.57 28.898 24.57 31.398 26.07 C33.898 27.57 33.898 27.57 34.898 30.57 C34.568 30.735 34.568 30.735 32.898 31.57 C32.568 32.56 32.238 33.55 31.898 34.57 C27.975 36.14 23.703 35.599 19.555 35.508 C17.116 35.565 15.231 35.921 12.898 36.57 C10.237 36.964 7.571 37.258 4.898 37.57 C4.898 36.91 4.898 36.25 4.898 35.57 C1.598 34.91 -1.702 34.25 -5.102 33.57 C-5.102 32.91 -5.102 32.25 -5.102 31.57 C-6.092 31.57 -7.082 31.57 -8.102 31.57 C-8.432 32.56 -8.762 33.55 -9.102 34.57 C-15.17 35.799 -20.901 36.846 -27.102 36.57 C-27.414 33.883 -27.414 33.883 -27.102 30.57 C-24.914 27.945 -24.914 27.945 -22.102 25.57 C-21.71 25.23 -21.71 25.23 -19.727 23.508 C-16.638 21.228 -13.466 19.417 -10.102 17.57 C-10.432 17.034 -10.762 16.498 -11.102 15.945 C-12.436 12.776 -12.639 10.995 -12.102 7.57 C-9.255 2.369 -6.097 -0.537 0 0 Z " fill="#F36839" transform="translate(68.1015625,98.4296875)"/>
<path d="M0 0 C7.399 0.106 13.503 3.645 18.875 8.562 C25.218 15.536 27.647 22.222 27.434 31.613 C27.044 34.516 26.363 36.755 25.062 39.375 C22.938 40.688 22.938 40.688 21.062 41.375 C21.062 40.715 21.062 40.055 21.062 39.375 C20.64 39.54 20.64 39.54 18.5 40.375 C14.853 41.436 11.84 41.526 8.062 41.375 C8.062 40.715 8.062 40.055 8.062 39.375 C7.011 39.169 5.959 38.963 4.875 38.75 C0.512 37.496 -1.404 35.138 -3.938 31.375 C-4.288 30.282 -4.639 29.189 -5 28.062 C-5.309 27.176 -5.619 26.289 -5.938 25.375 C-7.996 24.707 -7.996 24.707 -9.938 24.375 C-9.964 22.417 -9.984 20.458 -10 18.5 C-10.012 17.409 -10.023 16.319 -10.035 15.195 C-9.938 12.375 -9.938 12.375 -8.938 10.375 C-7.125 10.5 -7.125 10.5 -4.938 11.375 C-4.504 12.344 -4.071 13.314 -3.625 14.312 C-1.938 17.375 -1.938 17.375 1.75 18.75 C2.297 18.853 2.297 18.853 5.062 19.375 C3.723 11.473 3.723 11.473 0.125 8.438 C-2.938 6.375 -2.938 6.375 -5.938 5.375 C-4.828 0.46 -4.828 0.46 0 0 Z " fill="#E1461C" transform="translate(126.9375,73.625)"/>
<path d="M0 0 C0.33 0.66 0.66 1.32 1 2 C1.377 2.151 1.377 2.151 3.285 2.914 C6.151 4.06 8.055 5.43 10.438 7.375 C13.034 9.474 15.553 11.387 18.438 13.062 C21.553 15.418 22.148 17.25 23 21 C19.7 21.33 16.4 21.66 13 22 C14.829 26.115 16.304 28.451 20 31 C20 31.66 20 32.32 20 33 C15.418 33.694 13.045 32.014 9.453 29.484 C7.724 27.718 7.391 26.408 7 24 C5.35 24 3.7 24 2 24 C2.33 24.66 2.66 25.32 3 26 C3.127 27.436 3.228 28.874 3.312 30.312 C3.726 34.679 5.081 36.692 8 40 C7.67 40.99 7.34 41.98 7 43 C1.107 42.713 -2.054 40.089 -6 36 C-8.462 32.307 -8.119 30.787 -7.75 26.438 C-7.662 25.281 -7.575 24.125 -7.484 22.934 C-7 20 -7 20 -5 18 C-6.32 17.67 -7.64 17.34 -9 17 C-9.082 17.887 -9.165 18.774 -9.25 19.688 C-10 23 -10 23 -12.062 25.375 C-14.837 29.134 -14.372 31.388 -14 36 C-13.67 36.99 -13.34 37.98 -13 39 C-14.32 39 -15.64 39 -17 39 C-21.135 33.683 -22.47 29.707 -22 23 C-20.645 19.543 -20.645 19.543 -18.812 16.188 C-18.221 15.067 -17.629 13.947 -17.02 12.793 C-14.838 9.776 -13.537 8.959 -10 8 C-10.66 7.34 -11.32 6.68 -12 6 C-9.36 6 -6.72 6 -4 6 C-4 5.34 -4 4.68 -4 4 C-3.34 4 -2.68 4 -2 4 C-2 3.34 -2 2.68 -2 2 C-1.34 2 -0.68 2 0 2 C0 1.34 0 0.68 0 0 Z " fill="#B72F0D" transform="translate(41,144)"/>
<path d="M0 0 C0.99 0.66 1.98 1.32 3 2 C2.67 2.99 2.34 3.98 2 5 C0.293 5.703 0.293 5.703 -1.812 6.25 C-5.564 7.574 -7.521 9.065 -9.336 12.773 C-10.451 16.512 -10.521 20.309 -10.734 24.188 C-11.176 28.865 -12.646 31.839 -16.188 34.875 C-16.786 35.246 -17.384 35.618 -18 36 C-17.34 36.66 -16.68 37.32 -16 38 C-17.538 41.076 -19.912 41.703 -23 43 C-23.99 42.67 -24.98 42.34 -26 42 C-26.33 42 -26.66 42 -27 42 C-26 43 -26 43 -23.496 43.098 C-22.487 43.086 -21.477 43.074 -20.438 43.062 C-19.426 43.053 -18.414 43.044 -17.371 43.035 C-16.589 43.024 -15.806 43.012 -15 43 C-14.01 47.12 -14.129 49.147 -16 53 C-18.64 53.33 -21.28 53.66 -24 54 C-24.33 55.32 -24.66 56.64 -25 58 C-26 56.333 -27 54.667 -28 53 C-28.557 52.299 -29.114 51.597 -29.688 50.875 C-31.461 46.99 -31.179 43.644 -31.008 39.426 C-31 37 -31 37 -32 35 C-32.908 26.738 -31.058 19.574 -26.25 12.812 C-19.459 4.395 -11.345 -1.693 0 0 Z " fill="#E44A1F" transform="translate(45,74)"/>
<path d="M0 0 C0.33 0.66 0.66 1.32 1 2 C2.072 1.897 3.145 1.794 4.25 1.688 C8 2 8 2 10.188 3.938 C13.844 10.115 16.976 15.608 16 23 C14.604 26.3 12.986 29.021 11 32 C10.01 32 9.02 32 8 32 C8.058 31.299 8.116 30.597 8.176 29.875 C8.477 23.539 7.975 19.745 4.094 14.656 C3 13 3 13 3 10 C1.68 10.33 0.36 10.66 -1 11 C-0.67 11.495 -0.67 11.495 1 14 C1.844 19.044 2.164 23.962 -0.426 28.496 C-3.268 31.813 -5.923 34.323 -10 36 C-12.75 36.125 -12.75 36.125 -15 36 C-14.688 34.125 -14.688 34.125 -14 32 C-13.01 31.34 -12.02 30.68 -11 30 C-10.41 27.574 -10.41 27.574 -10.062 24.688 C-9.355 20.077 -8.45 17.335 -5 14 C-5.33 14.165 -5.33 14.165 -7 15 C-8.622 15.121 -10.249 15.175 -11.875 15.188 C-12.307 15.195 -12.307 15.195 -14.492 15.23 C-17.124 14.989 -18.74 14.33 -21 13 C-20.375 11.125 -20.375 11.125 -19 9 C-16.125 7.812 -16.125 7.812 -13 7 C-12.216 6.794 -11.433 6.588 -10.625 6.375 C-10.089 6.251 -9.552 6.127 -9 6 C-9 5.34 -9 4.68 -9 4 C-9.66 4 -10.32 4 -11 4 C-11 3.34 -11 2.68 -11 2 C-8.704 0.852 -6.923 0.692 -4.375 0.438 C-3.558 0.354 -2.74 0.27 -1.898 0.184 C-1.585 0.153 -1.585 0.153 0 0 Z " fill="#D73E12" transform="translate(129,151)"/>
<path d="M0 0 C0.248 0.598 0.495 1.196 0.75 1.812 C2.187 4.327 3.607 5.405 6 7 C6.99 7.66 7.98 8.32 9 9 C8.774 12.162 7.991 13.008 5.562 15.125 C1.425 17.695 -3.252 18.287 -8 19 C-8.33 20.32 -8.66 21.64 -9 23 C-7.845 22.505 -6.69 22.01 -5.5 21.5 C-1.257 19.961 2.537 18.795 7 20 C10.105 21.953 12.519 24.313 15 27 C15.532 27.552 16.065 28.103 16.613 28.672 C20.175 32.885 20.49 36.435 20.273 41.863 C20 44 20 44 19 46 C18.01 46 17.02 46 16 46 C15.921 45.698 15.921 45.698 15.52 44.172 C13.965 38.846 12.686 36.244 8 33 C7.34 31.68 6.68 30.36 6 29 C2.37 29.33 2.37 29.33 -16 31 C-16 31.66 -16 32.32 -16 33 C-15.34 33 -14.68 33 -14 33 C-14 33.66 -14 34.32 -14 35 C-13.34 35.33 -12.68 35.66 -12 36 C-13.06 36.026 -14.119 36.052 -15.211 36.078 C-16.599 36.134 -17.987 36.192 -19.375 36.25 C-20.074 36.264 -20.772 36.278 -21.492 36.293 C-23.523 36.391 -23.523 36.391 -27 37 C-28.477 39.047 -28.477 39.047 -29 41 C-29.66 41 -30.32 41 -31 41 C-31 40.01 -31 39.02 -31 38 C-31.66 37.67 -32.32 37.34 -33 37 C-30.012 34.367 -27.524 32.257 -23.938 30.5 C-21 29 -21 29 -18.375 26.312 C-16 24 -16 24 -12 24 C-10.417 19.674 -9.549 15.571 -9 11 C-6.03 11 -3.06 11 0 11 C0 10.34 0 9.68 0 9 C0.99 8.67 1.98 8.34 3 8 C2.505 7.608 2.01 7.216 1.5 6.812 C-0.456 4.449 -0.242 2.986 0 0 Z " fill="#C73511" transform="translate(134,122)"/>
<path d="M0 0 C13.195 1.611 25.731 1.578 38.836 -0.695 C41.812 -0.938 41.812 -0.938 44.812 1.062 C43.53 3.925 42.282 6.087 39.812 8.062 C38.822 8.062 37.833 8.062 36.812 8.062 C36.812 9.053 36.812 10.042 36.812 11.062 C23.282 11.062 9.752 11.062 -4.188 11.062 C-4.188 10.072 -4.188 9.083 -4.188 8.062 C-4.951 7.98 -5.714 7.898 -6.5 7.812 C-9.188 7.062 -9.188 7.062 -11 5.188 C-12.188 3.062 -12.188 3.062 -12.188 0.062 C-8.123 -1.463 -4.176 -0.569 0 0 Z " fill="#F9F1E9" transform="translate(66.1875,165.9375)"/>
<path d="M0 0 C0.66 0 1.32 0 2 0 C1.938 2.188 1.938 2.188 1 5 C-1.172 6.932 -3.526 8.482 -6 10 C-4.541 9.859 -3.083 9.712 -1.625 9.562 C-0.813 9.481 -0.001 9.4 0.836 9.316 C3 9 3 9 5 8 C7.333 7.96 9.667 7.957 12 8 C12.625 9.812 12.625 9.812 13 12 C12.34 12.99 11.68 13.98 11 15 C11.66 15.33 12.32 15.66 13 16 C9.646 16.992 6.491 17.23 3 17.312 C1.969 17.35 0.938 17.387 -0.125 17.426 C-3.693 16.897 -4.657 15.643 -7 13 C-9.75 12.25 -9.75 12.25 -12 12 C-12.082 12.887 -12.165 13.774 -12.25 14.688 C-13 18 -13 18 -15.062 20.375 C-17.837 24.134 -17.372 26.388 -17 31 C-16.67 31.99 -16.34 32.98 -16 34 C-17.32 34 -18.64 34 -20 34 C-24.141 28.676 -25.449 24.712 -25 18 C-23.077 12.735 -20.581 7.049 -16.105 3.496 C-11.038 1.36 -5.401 1.701 0 2 C0 1.34 0 0.68 0 0 Z " fill="#C63812" transform="translate(44,149)"/>
<path d="M0 0 C1.65 0 3.3 0 5 0 C5.818 1.581 6.629 3.165 7.438 4.75 C7.89 5.632 8.342 6.513 8.809 7.422 C11.278 12.766 10.86 16.266 10 22 C10.99 22 11.98 22 13 22 C13.165 21.505 13.165 21.505 14 19 C15.98 19.33 17.96 19.66 20 20 C19.312 21.938 19.312 21.938 18 24 C16.344 24.382 14.675 24.709 13 25 C11.476 25.516 9.955 26.042 8.438 26.578 C2.499 28.373 -2.859 28.133 -9 27.75 C-11.525 27.627 -14.049 27.509 -16.574 27.395 C-17.273 27.362 -17.973 27.329 -18.693 27.295 C-30.059 26.785 -41.438 26.648 -52.812 26.438 C-55.105 26.394 -57.397 26.35 -59.689 26.306 C-65.126 26.201 -70.563 26.1 -76 26 C-72.384 23.589 -69.772 23.727 -65.598 23.77 C-64.856 23.77 -64.114 23.77 -63.35 23.77 C-60.92 23.775 -58.492 23.794 -56.062 23.812 C-54.389 23.817 -52.716 23.82 -51.043 23.823 C-43.197 23.852 -35.368 23.977 -27.531 24.371 C-26.896 24.402 -26.896 24.402 -23.683 24.557 C-21.324 24.683 -18.965 24.828 -16.608 24.995 C-10.284 25.344 -6.799 25.29 -2 21 C-1.216 20.34 -0.433 19.68 0.375 19 C2.942 14.261 2.624 9.279 2 4 C0.977 1.629 0.977 1.629 0 0 Z " fill="#E5CFBB" transform="translate(127,161)"/>
<path d="M0 0 C0.466 0.003 0.466 0.003 2.822 0.02 C3.782 0.036 4.742 0.053 5.73 0.07 C6.71 0.079 7.689 0.088 8.697 0.098 C11.104 0.121 13.511 0.154 15.918 0.195 C16.543 2.508 16.543 2.508 16.918 5.195 C13.125 10.885 13.125 10.885 9.73 11.758 C8.802 11.902 7.874 12.047 6.918 12.195 C5.68 12.567 4.443 12.938 3.168 13.32 C-1.828 14.603 -7.405 14.534 -12.082 12.195 C-12.082 11.205 -12.082 10.215 -12.082 9.195 C-13.072 9.03 -13.072 9.03 -18.082 8.195 C-18.082 8.855 -18.082 9.515 -18.082 10.195 C-19.402 9.865 -20.722 9.535 -22.082 9.195 C-22.082 8.535 -22.082 7.875 -22.082 7.195 C-19.158 4.272 -16.097 3.54 -12.18 2.723 C-10.082 2.195 -10.082 2.195 -7.769 1.175 C-4.962 0.152 -2.97 -0.036 0 0 Z " fill="#FB8657" transform="translate(76.08203125,119.8046875)"/>
<path d="M0 0 C2.753 1.796 4.526 3.053 6 6 C6.421 9.059 6.485 11.947 6 15 C3.818 17.756 2.128 19.436 -1 21 C-4.375 21.375 -4.375 21.375 -8 21 C-10.438 18.625 -10.438 18.625 -12 16 C-12 15.34 -12 14.68 -12 14 C-12.66 14 -13.32 14 -14 14 C-14.504 8.705 -13.288 6.133 -10 2 C-6.263 -0.492 -4.427 -0.458 0 0 Z " fill="#D7AA8C" transform="translate(104,99)"/>
<path d="M0 0 C6.483 1.241 11.362 4.286 16 9 C18.184 13.355 18.184 13.355 17.375 16.188 C15.653 18.457 14.734 19.137 12 20 C4.985 20.779 4.985 20.779 1 17.625 C-1 15 -1 15 -1 13 C-1.66 13 -2.32 13 -3 13 C-3.062 12.381 -3.124 11.762 -3.188 11.125 C-3.456 10.424 -3.724 9.722 -4 9 C-4.412 8.835 -4.412 8.835 -6.5 8 C-6.912 7.835 -6.912 7.835 -9 7 C-9.656 4.938 -9.656 4.938 -10 3 C-9.681 2.934 -9.681 2.934 -8.066 2.598 C-7.24 2.421 -6.414 2.244 -5.562 2.062 C-4.739 1.888 -3.915 1.714 -3.066 1.535 C-1 1 -1 1 0 0 Z " fill="#EF5123" transform="translate(106,117)"/>
<path d="M0 0 C3.219 0.967 4.873 2.993 6.898 5.57 C8.377 8.527 7.959 11.313 7.898 14.57 C7.238 14.57 6.578 14.57 5.898 14.57 C5.63 15.354 5.362 16.138 5.086 16.945 C3.898 19.57 3.898 19.57 0.898 21.57 C-3.164 22.202 -4.831 21.729 -8.414 19.633 C-11.459 16.782 -12.271 13.978 -12.457 9.863 C-11.913 6.355 -10.471 4.313 -7.984 1.832 C-5.273 0.015 -3.22 -0.284 0 0 Z " fill="#D4A793" transform="translate(68.1015625,98.4296875)"/>
<path d="M0 0 C3.212 2.49 4.795 4.489 5.344 8.539 C5.636 14.308 5.625 18.12 1.75 22.625 C-1.408 25.824 -4.179 27.917 -8.75 28.125 C-9.493 28.084 -10.235 28.042 -11 28 C-10.688 26.125 -10.688 26.125 -10 24 C-9.01 23.34 -8.02 22.68 -7 22 C-6.41 19.574 -6.41 19.574 -6.062 16.688 C-5.355 12.077 -4.45 9.335 -1 6 C-1.33 6.165 -1.33 6.165 -3 7 C-4.622 7.121 -6.249 7.175 -7.875 7.188 C-8.307 7.195 -8.307 7.195 -10.492 7.23 C-13.124 6.989 -14.74 6.33 -17 5 C-16.008 2.025 -15.27 1.138 -12.438 -0.312 C-8.077 -1.185 -4.306 -1.154 0 0 Z " fill="#D74B1F" transform="translate(125,159)"/>
<path d="M0 0 C3.111 1.944 5.52 4.313 8 7 C8.266 7.276 8.266 7.276 9.613 8.672 C13.175 12.885 13.49 16.435 13.273 21.863 C13 24 13 24 12 26 C11.01 26 10.02 26 9 26 C8.841 25.397 8.683 24.793 8.52 24.172 C6.965 18.846 5.686 16.244 1 13 C0.856 12.639 0.856 12.639 0.125 10.812 C-0.246 10.214 -0.618 9.616 -1 9 C-3.322 8.593 -5.657 8.256 -8 8 C-8.33 7.34 -8.66 6.68 -9 6 C-9.99 5.67 -10.98 5.34 -12 5 C-12.66 4.01 -13.32 3.02 -14 2 C-9.424 0.17 -4.883 -1.191 0 0 Z " fill="#D13F19" transform="translate(141,142)"/>
<path d="M0 0 C2 3 2 3 2 7 C2.66 7.33 3.32 7.66 4 8 C4.763 8.804 5.526 9.609 6.312 10.438 C8.893 12.898 10.65 13.947 14 15 C14 15.66 14 16.32 14 17 C14.904 16.856 15.807 16.711 16.738 16.562 C17.918 16.377 19.097 16.191 20.312 16 C21.484 15.814 22.656 15.629 23.863 15.438 C27 15 27 15 30 15 C31.559 18.119 31.283 20.545 31 24 C28.687 28.969 26.017 32.317 22 36 C21.34 35.34 20.68 34.68 20 34 C20.33 33.67 20.66 33.34 21 33 C19.68 32.01 18.36 31.02 17 30 C17.99 29.34 18.98 28.68 20 28 C20.949 26.055 20.949 26.055 21.688 23.875 C22.121 22.596 22.554 21.317 23 20 C20.03 20 17.06 20 14 20 C14 19.34 14 18.68 14 18 C13.588 17.928 13.588 17.928 11.5 17.562 C5.341 14.813 1.096 9.604 -1.5 3.438 C-1.665 2.633 -1.83 1.829 -2 1 C-1.34 0.67 -0.68 0.34 0 0 Z " fill="#DB3E13" transform="translate(121,98)"/>
<path d="M0 0 C-3.212 1.906 -5.539 2.223 -9.25 2.125 C-10.142 2.107 -11.034 2.089 -11.953 2.07 C-12.291 2.059 -12.291 2.059 -14 2 C-14 2.99 -14 3.98 -14 5 C-12.68 5.66 -11.36 6.32 -10 7 C-11.65 7 -13.3 7 -15 7 C-15.227 7.722 -15.454 8.444 -15.688 9.188 C-17 12 -17 12 -19.438 14.375 C-22.474 17.486 -23.497 19.966 -25 24 C-25.99 23.67 -26.98 23.34 -28 23 C-28.441 16.12 -28.712 11.456 -24 6 C-23.747 5.69 -23.747 5.69 -22.469 4.121 C-15.892 -3.858 -9.4 -2.686 0 0 Z " fill="#CD4E2E" transform="translate(39,144)"/>
<path d="M0 0 C0.99 0 1.98 0 3 0 C5.119 4.238 4.252 9.118 3 13.5 C2.835 13.912 2.835 13.912 2 16 C1.258 16.103 0.515 16.206 -0.25 16.312 C-3.23 17.058 -4.609 18.132 -7 20 C-8.65 20.66 -10.3 21.32 -12 22 C-12 17.71 -12 13.42 -12 9 C-10.948 8.814 -9.896 8.629 -8.812 8.438 C-4.672 7.308 -3.231 5.068 -1.141 1.461 C-0.952 1.22 -0.952 1.22 0 0 Z " fill="#EC5626" transform="translate(47,84)"/>
<path d="M0 0 C4.781 0.867 4.781 0.867 6.75 2.062 C8.43 4.667 8.5 7.006 8.691 10.062 C9.196 13.233 11.122 15.139 13.188 17.5 C13.786 18.325 14.384 19.15 15 20 C14.67 20.99 14.34 21.98 14 23 C8.107 22.713 4.946 20.089 1 16 C-1.493 12.26 -1.06 10.709 -0.625 6.312 C-0.514 5.133 -0.403 3.954 -0.289 2.738 C-0.194 1.835 -0.098 0.931 0 0 Z " fill="#D5461E" transform="translate(34,164)"/>
<path d="M0 0 C1.812 0.125 1.812 0.125 4 1 C4.433 1.99 4.866 2.98 5.312 4 C5.591 4.495 5.591 4.495 7 7 C10.625 7.75 10.625 7.75 14 8 C14.33 8.66 14.66 9.32 15 10 C14.064 12.36 13.067 14.696 12 17 C11.34 16.34 10.68 15.68 10 15 C9.67 15.66 9.34 16.32 9 17 C8.34 17 7.68 17 7 17 C6.67 18.32 6.34 19.64 6 21 C5 19 4 17 3 15 C0.938 14.375 0.938 14.375 -1 14 C-1.027 12.042 -1.046 10.083 -1.062 8.125 C-1.074 7.034 -1.086 5.944 -1.098 4.82 C-1 2 -1 2 0 0 Z " fill="#E75327" transform="translate(118,84)"/>
<path d="M0 0 C-2 2 -2 2 -5.312 3.562 C-9.398 5.804 -10.78 8.796 -12.801 12.871 C-14.366 15.65 -16.355 17.262 -19 19 C-19.66 17.02 -20.32 15.04 -21 13 C-22.32 14.32 -23.64 15.64 -25 17 C-24.072 10.637 -21.277 7.781 -16.371 3.738 C-10.855 -0.306 -6.92 -1.554 0 0 Z " fill="#F47247" transform="translate(43,75)"/>
<path d="M0 0 C-0.33 1.32 -0.66 2.64 -1 4 C-0.01 4 0.98 4 2 4 C2 4.99 2 5.98 2 7 C4.64 7.99 7.28 8.98 10 10 C10 9.34 10 8.68 10 8 C12.31 7.34 14.62 6.68 17 6 C16.67 7.32 16.34 8.64 16 10 C8.715 12.41 1.263 14.631 -6 11 C-6 10.01 -6 9.02 -6 8 C-6.99 7.835 -6.99 7.835 -12 7 C-12 7.66 -12 8.32 -12 9 C-13.32 8.67 -14.64 8.34 -16 8 C-16 7.34 -16 6.68 -16 6 C-12.559 2.559 -8.598 2.038 -4 1 C-2 0 -2 0 0 0 Z " fill="#F97748" transform="translate(70,121)"/>
<path d="M0 0 C1.574 1.379 1.574 1.379 3 3 C3.265 3.301 3.265 3.301 4.605 4.824 C5.128 5.439 5.65 6.054 6.188 6.688 C6.717 7.31 7.247 7.933 7.793 8.574 C8.191 9.045 8.59 9.515 9 10 C8.67 10.66 8.34 11.32 8 12 C5.007 11.002 4.052 10.248 2 8 C2.114 8.266 2.114 8.266 2.691 9.609 C2.835 9.963 2.835 9.963 3.562 11.75 C3.853 12.446 4.143 13.142 4.441 13.859 C5.078 16.3 4.802 17.64 4 20 C0.713 20.8 -0.71 21.097 -4 20 C-4 18.35 -4 16.7 -4 15 C-2.68 14.34 -1.36 13.68 0 13 C-0.803 8.447 -1.502 5.954 -5.312 3.188 C-8.087 1.423 -10.87 0.043 -14 -1 C-14 -1.33 -14 -1.66 -14 -2 C-9.008 -3.772 -4.614 -2.177 0 0 Z " fill="#F2734B" transform="translate(139,77)"/>
<path d="M0 0 C2.312 -0.25 2.312 -0.25 5 0 C7.159 1.787 7.878 3.172 8.285 5.941 C8.411 8.908 8.346 11.348 6.938 14 C3.831 15.603 1.42 15.428 -2 15 C-4.315 13.208 -4.874 11.899 -5.277 9.023 C-5.375 6.875 -5.375 6.875 -5 3 C-4.01 2.34 -3.02 1.68 -2 1 C-2 2.32 -2 3.64 -2 5 C-1.01 5 -0.02 5 1 5 C0.67 3.35 0.34 1.7 0 0 Z " fill="#0C0906" transform="translate(65,102)"/>
<path d="M0 0 C2.75 -0.312 2.75 -0.312 6 0 C8.438 2.062 8.438 2.062 10 5 C9.94 8.493 9.637 10.904 7.875 13.938 C4.825 15.666 2.415 15.427 -1 15 C-2.938 13.438 -2.938 13.438 -4 11 C-4.375 7.375 -4.375 7.375 -4 4 C-3.01 3.34 -2.02 2.68 -1 2 C-0.67 2.66 -0.34 3.32 0 4 C2.062 4.625 2.062 4.625 4 5 C3 2 3 2 0 0 Z " fill="#090705" transform="translate(97,102)"/>
<path d="M0 0 C3.312 0.188 3.312 0.188 6 1 C5.67 1.495 5.67 1.495 4 4 C6.31 4.33 8.62 4.66 11 5 C11 5.33 11 5.66 11 6 C7.37 6.33 3.74 6.66 0 7 C0 7.66 0 8.32 0 9 C0.66 9 1.32 9 2 9 C2 9.66 2 10.32 2 11 C2.66 11.33 3.32 11.66 4 12 C2.94 12.026 1.881 12.052 0.789 12.078 C-0.599 12.134 -1.987 12.192 -3.375 12.25 C-4.074 12.264 -4.772 12.278 -5.492 12.293 C-7.523 12.391 -7.523 12.391 -11 13 C-12.477 15.047 -12.477 15.047 -13 17 C-13.66 17 -14.32 17 -15 17 C-15 16.01 -15 15.02 -15 14 C-15.66 13.67 -16.32 13.34 -17 13 C-14.012 10.367 -11.524 8.257 -7.938 6.5 C-5 5 -5 5 -2.5 2.25 C-1.675 1.507 -0.85 0.765 0 0 Z " fill="#AB2908" transform="translate(118,146)"/>
<path d="M0 0 C0.33 1.32 0.66 2.64 1 4 C2.32 4.33 3.64 4.66 5 5 C5 5.66 5 6.32 5 7 C2.36 7.33 -0.28 7.66 -3 8 C-1.171 12.115 0.304 14.451 4 17 C4 17.66 4 18.32 4 19 C-0.582 19.694 -2.955 18.014 -6.547 15.484 C-8.276 13.718 -8.609 12.408 -9 10 C-10.65 10 -12.3 10 -14 10 C-13.67 10.66 -13.34 11.32 -13 12 C-12.96 14 -12.957 16 -13 18 C-13.66 18.33 -14.32 18.66 -15 19 C-15.014 18.397 -15.028 17.793 -15.043 17.172 C-15.437 10.563 -15.437 10.563 -18.562 7.438 C-19.367 6.963 -20.171 6.489 -21 6 C-21.33 7.32 -21.66 8.64 -22 10 C-22 8.35 -22 6.7 -22 5 C-20.68 5 -19.36 5 -18 5 C-17.34 5.66 -16.68 6.32 -16 7 C-13.25 7.23 -13.25 7.23 -10 7.188 C-9.464 7.184 -9.464 7.184 -6.75 7.168 C-4 7 -4 7 -2 6 C-1.273 4.021 -0.602 2.02 0 0 Z " fill="#BA3617" transform="translate(57,158)"/>
<path d="M0 0 C0.625 1.812 0.625 1.812 1 4 C0.67 4.495 0.67 4.495 -1 7 C-0.34 7.33 0.32 7.66 1 8 C-2.354 8.992 -5.509 9.23 -9 9.312 C-10.031 9.35 -11.062 9.387 -12.125 9.426 C-15.685 8.899 -16.831 7.811 -19 5 C-19 4.34 -19 3.68 -19 3 C-6.515 -0.444 -6.515 -0.444 0 0 Z " fill="#E36C37" transform="translate(56,157)"/>
<path d="M0 0 C0.062 0.619 0.124 1.237 0.188 1.875 C1 4 1 4 3.562 5.25 C4.367 5.498 5.171 5.745 6 6 C6 5.34 6 4.68 6 4 C6.99 4.165 6.99 4.165 12 5 C11.67 5.99 11.34 6.98 11 8 C11 7.34 11 6.68 11 6 C10.01 6 9.02 6 8 6 C7.67 6.99 7.34 7.98 7 9 C0.932 10.229 -4.799 11.276 -11 11 C-11.25 5.375 -11.25 5.375 -9 2 C-8.34 2.33 -7.68 2.66 -7 3 C-6.01 2.34 -5.02 1.68 -4 1 C-2 0 -2 0 0 0 Z " fill="#EF5325" transform="translate(52,124)"/>
<path d="M0 0 C0.458 0.006 0.458 0.006 2.777 0.035 C3.696 0.044 4.616 0.053 5.562 0.062 C6.273 0.074 6.983 0.086 7.715 0.098 C7.164 3.404 6.615 6.297 4.715 9.098 C2.715 9.91 2.715 9.91 0.715 10.098 C0.055 9.768 -0.605 9.438 -1.285 9.098 C-1.615 10.088 -1.945 11.078 -2.285 12.098 C-4.807 13.899 -5.93 14.146 -9.035 13.723 C-9.778 13.516 -10.52 13.31 -11.285 13.098 C-11.285 12.108 -11.285 11.118 -11.285 10.098 C-10.295 10.098 -9.305 10.098 -8.285 10.098 C-8.285 9.438 -8.285 8.778 -8.285 8.098 C-6.635 7.438 -4.985 6.778 -3.285 6.098 C-3.306 5.293 -3.326 4.489 -3.348 3.66 C-3.268 0.381 -3.259 0.139 0 0 Z " fill="#E54E20" transform="translate(136.28515625,117.90234375)"/>
<path d="M0 0 C4.159 -0.181 7.745 0.088 11.812 1 C19.947 2.728 27.054 2.354 35 0 C35 1.667 35 3.333 35 5 C30.317 5.915 25.758 6.192 21 6.188 C20.632 6.188 20.632 6.188 18.772 6.189 C11.729 6.123 4.937 5.231 -2 4 C-1.34 2.68 -0.68 1.36 0 0 Z " fill="#D45E3A" transform="translate(64,162)"/>
<path d="M0 0 C1.65 0 3.3 0 5 0 C5.818 1.581 6.629 3.165 7.438 4.75 C7.664 5.191 7.664 5.191 8.809 7.422 C10.975 12.109 11.041 14.912 10 20 C7.03 20 4.06 20 1 20 C1.33 18.68 1.66 17.36 2 16 C2.117 14.002 2.175 12.001 2.188 10 C2.202 8.969 2.216 7.938 2.23 6.875 C2.003 4.035 1.465 2.409 0 0 Z " fill="#F9F1EA" transform="translate(127,161)"/>
<path d="M0 0 C0.371 0.309 0.371 0.309 2.25 1.875 C4.488 3.604 6.437 4.861 9 6 C5.49 7.965 1.868 8.945 -2 10 C-2.99 10.33 -3.98 10.66 -5 11 C-5 11.66 -5 12.32 -5 13 C-5.66 12.67 -6.32 12.34 -7 12 C-7 10.68 -7 9.36 -7 8 C-7.949 8.639 -8.898 9.279 -9.875 9.938 C-13 12 -13 12 -15 13 C-15 11.68 -15 10.36 -15 9 C-13.242 7.402 -13.242 7.402 -10.875 5.938 C-10.467 5.683 -10.467 5.683 -8.402 4.395 C-5.646 2.795 -2.893 1.335 0 0 Z " fill="#EE5B30" transform="translate(59,116)"/>
<path d="M0 0 C20.46 0 40.92 0 62 0 C62 0.66 62 1.32 62 2 C61.557 1.994 61.557 1.994 59.316 1.965 C52.527 1.915 45.836 2.045 39.062 2.562 C30.658 3.183 22.34 2.796 13.934 2.319 C13.441 2.292 13.441 2.292 10.945 2.156 C10.064 2.103 9.182 2.049 8.274 1.994 C6 2 6 2 3 3 C2.01 2.01 1.02 1.02 0 0 Z " fill="#F5E8DA" transform="translate(53,188)"/>
<path d="M0 0 C1.65 0 3.3 0 5 0 C4.67 0.495 4.67 0.495 3 3 C2.516 5.961 2.516 5.961 2.25 9.375 C2.152 10.496 2.054 11.618 1.953 12.773 C2.001 16.047 2.579 18.082 4 21 C-2.055 21.195 -2.055 21.195 -4 21 C-6 19 -6 19 -6.375 15.188 C-6.283 10.942 -4.834 9.167 -2 6 C-0.75 2.688 -0.75 2.688 0 0 Z " fill="#F4E6DF" transform="translate(32,161)"/>
<path d="M0 0 C0 0.33 0 0.66 0 1 C-1.65 1 -3.3 1 -5 1 C-5 1.66 -5 2.32 -5 3 C-8.371 4.498 -10.204 5 -14 5 C-14.598 6.134 -15.196 7.269 -15.812 8.438 C-17.625 11.875 -17.625 11.875 -21 13 C-21 14.65 -21 16.3 -21 18 C-21.66 18 -22.32 18 -23 18 C-24.335 13.603 -23.694 11.394 -21.562 7.375 C-19.032 3.058 -17.134 0.516 -12.234 -0.785 C-8.088 -1.184 -4.091 -0.696 0 0 Z " fill="#E86C3F" transform="translate(44,152)"/>
<path d="M0 0 C0.742 0.454 1.485 0.907 2.25 1.375 C4.469 2.686 6.68 3.883 9 5 C8.542 8.469 8.109 11.674 7 15 C5.02 15 3.04 15 1 15 C1 13.68 1 12.36 1 11 C-0.98 10.01 -2.96 9.02 -5 8 C-4.349 7.251 -4.349 7.251 -1.094 3.508 C0 2 0 2 0 0 Z " fill="#DA451C" transform="translate(31,123)"/>
<path d="M0 0 C-1.403 2.807 -2.424 4.115 -5 6 C-10.114 6.715 -14.475 6.619 -19 4 C-18.008 1.025 -17.27 0.138 -14.438 -1.312 C-9.637 -2.273 -4.46 -2.23 0 0 Z " fill="#E05523" transform="translate(127,160)"/>
<path d="M0 0 C2 3 2 3 2 7 C2.66 7.33 3.32 7.66 4 8 C4.763 8.804 5.526 9.609 6.312 10.438 C8.893 12.898 10.65 13.947 14 15 C14 15.66 14 16.32 14 17 C14.904 16.856 15.807 16.711 16.738 16.562 C17.918 16.377 19.097 16.191 20.312 16 C21.484 15.814 22.656 15.629 23.863 15.438 C27 15 27 15 30 15 C30 15.99 30 16.98 30 18 C26.523 20.143 23.788 20.213 19.75 20.125 C18.672 20.107 17.595 20.089 16.484 20.07 C15.665 20.047 14.845 20.024 14 20 C14 19.34 14 18.68 14 18 C13.588 17.928 13.588 17.928 11.5 17.562 C5.341 14.813 1.096 9.604 -1.5 3.438 C-1.665 2.633 -1.83 1.829 -2 1 C-1.34 0.67 -0.68 0.34 0 0 Z " fill="#BF3B1C" transform="translate(121,98)"/>
<path d="M0 0 C6.625 -0.25 6.625 -0.25 10 2 C9.67 2.99 9.34 3.98 9 5 C7.763 5.392 6.525 5.784 5.25 6.188 C0.649 7.71 -0.918 10.211 -3.188 14.355 C-3.456 14.898 -3.724 15.441 -4 16 C-4.99 15.67 -5.98 15.34 -7 15 C-7.33 15.99 -7.66 16.98 -8 18 C-8.33 17.34 -8.66 16.68 -9 16 C-7.261 10.801 -5.083 6.127 -0.188 3.375 C0.338 3.148 0.338 3.148 3 2 C2.01 1.34 1.02 0.68 0 0 Z " fill="#EF5525" transform="translate(38,74)"/>
<path d="M0 0 C1.485 0.33 1.485 0.33 9 2 C9 2.66 9 3.32 9 4 C10.155 3.691 11.31 3.381 12.5 3.062 C20.049 1.195 27.26 0.857 35 1 C32.441 4.127 29.873 5.016 26 6 C17.887 6.68 10.317 6.799 3 3 C2.01 2.01 1.02 1.02 0 0 Z " fill="#EE5625" transform="translate(64,132)"/>
<path d="M0 0 C0.33 0.66 0.66 1.32 1 2 C2.072 1.897 3.145 1.794 4.25 1.688 C8 2 8 2 10.25 4.125 C10.827 5.074 11.405 6.023 12 7 C12.299 7.474 12.299 7.474 13.812 9.875 C15.256 13.675 14.863 16.078 14 20 C13.34 20 12.68 20 12 20 C11.34 17.36 10.68 14.72 10 12 C9.34 12 8.68 12 8 12 C7.67 10.02 7.34 8.04 7 6 C5.907 5.876 4.814 5.752 3.688 5.625 C0 5 0 5 -3 3 C-3 2.34 -3 1.68 -3 1 C-2.01 0.67 -1.02 0.34 0 0 Z " fill="#DF5629" transform="translate(129,151)"/>
<path d="M0 0 C0 0.66 0 1.32 0 2 C-13.53 2 -27.06 2 -41 2 C-41 1.34 -41 0.68 -41 0 C-36.286 -0.169 -31.572 -0.329 -26.858 -0.482 C-25.257 -0.535 -23.656 -0.591 -22.054 -0.648 C-19.743 -0.731 -17.432 -0.806 -15.121 -0.879 C-14.414 -0.906 -13.706 -0.933 -12.977 -0.961 C-8.499 -1.093 -4.396 -0.746 0 0 Z " fill="#EEDFD0" transform="translate(103,175)"/>
<path d="M0 0 C2.402 -0.148 2.402 -0.148 5 0 C6.562 2.375 6.562 2.375 8 5 C10.188 6.312 10.188 6.312 12 7 C12 7.66 12 8.32 12 9 C10.845 9.495 10.845 9.495 5 12 C5 12.66 5 13.32 5 14 C4.01 13.67 3.02 13.34 2 13 C0.716 10.431 0.67 8.234 0.438 5.375 C0.354 4.372 0.27 3.369 0.184 2.336 C0.123 1.565 0.062 0.794 0 0 Z " fill="#F7EEEA" transform="translate(43,168)"/>
<path d="M0 0 C2 2 2 2 2 6 C3.32 6.33 4.64 6.66 6 7 C4.35 7.33 2.7 7.66 1 8 C0.67 9.32 0.34 10.64 0 12 C1.65 12 3.3 12 5 12 C5 12.66 5 13.32 5 14 C5.99 14 6.98 14 8 14 C8 14.99 8 15.98 8 17 C8.99 17.33 9.98 17.66 11 18 C6.05 18 1.1 18 -4 18 C-3.67 17.505 -3.67 17.505 -2 15 C-2.33 14.34 -2.66 13.68 -3 13 C-2.347 10.995 -1.678 8.996 -1 7 C-0.625 4.673 -0.281 2.34 0 0 Z " fill="#B12E0E" transform="translate(125,133)"/>
<path d="M0 0 C0.893 0.128 1.787 0.255 2.707 0.387 C3.608 0.507 4.509 0.626 5.438 0.75 C5.781 0.803 5.781 0.803 7.52 1.074 C7.52 1.734 7.52 2.394 7.52 3.074 C8.51 3.074 9.5 3.074 10.52 3.074 C10.85 2.084 11.18 1.094 11.52 0.074 C11.85 0.734 12.18 1.394 12.52 2.074 C13.18 2.074 13.84 2.074 14.52 2.074 C14.52 2.734 14.52 3.394 14.52 4.074 C14.157 4.099 14.157 4.099 12.324 4.223 C4.186 4.852 4.186 4.852 0.332 6.137 C-3.416 7.386 -6.542 7.21 -10.48 7.074 C-9.717 6.476 -8.954 5.878 -8.168 5.262 C-5.48 3.074 -5.48 3.074 -4.137 1.418 C-2.48 0.074 -2.48 0.074 0 0 Z " fill="#E5CDB9" transform="translate(129.48046875,179.92578125)"/>
<path d="M0 0 C0.33 0 0.66 0 1 0 C1.33 2.64 1.66 5.28 2 8 C1.34 8 0.68 8 0 8 C-0.66 6.02 -1.32 4.04 -2 2 C-1.34 1.34 -0.68 0.68 0 0 Z M-4 1 C-2 4 -2 4 -2 7 C-2.33 7.165 -2.33 7.165 -4 8 C-5.25 11.364 -5.101 14.699 -5.062 18.25 C-5.058 18.789 -5.058 18.789 -5.035 21.516 C-5.024 22.335 -5.012 23.155 -5 24 C-5.99 24 -6.98 24 -8 24 C-10.437 19.127 -9.241 13.111 -7.625 8.125 C-6.642 5.354 -5.663 3.494 -4 1 Z " fill="#E45732" transform="translate(22,87)"/>
<path d="M0 0 C0.66 0.33 1.32 0.66 2 1 C1.01 2.98 0.02 4.96 -1 7 C-1.33 6.01 -1.66 5.02 -2 4 C-3.65 4 -5.3 4 -7 4 C-7.227 4.763 -7.454 5.526 -7.688 6.312 C-9.31 9.634 -10.647 10.518 -14 12 C-16.812 12.188 -16.812 12.188 -19 12 C-19 11.34 -19 10.68 -19 10 C-17.504 8.562 -17.504 8.562 -15.562 7 C-12.102 4.203 -12.102 4.203 -11 2 C-8.75 1.621 -8.75 1.621 -6 1.438 C-1.096 1.096 -1.096 1.096 0 0 Z " fill="#C33413" transform="translate(123,164)"/>
<path d="M0 0 C0.66 0.33 1.32 0.66 2 1 C2 1.66 2 2.32 2 3 C2.66 2.67 3.32 2.34 4 2 C7.752 0.749 11.119 0.253 15 1 C17.705 2.419 19.65 3.992 22 6 C22 6.33 22 6.66 22 7 C20.542 7.054 19.084 7.093 17.625 7.125 C16.813 7.148 16.001 7.171 15.164 7.195 C13 7 13 7 11 5 C8.793 4.875 8.793 4.875 6.188 5 C2.302 5.09 -0.497 4.868 -4 3 C-3 1 -3 1 0 0 Z " fill="#DFC9B7" transform="translate(22,180)"/>
<path d="M0 0 C4.762 3.003 8.532 6.91 11 12 C10.01 12.33 9.02 12.66 8 13 C4.606 9.874 2.394 7.435 1 3 C0.67 3.165 0.67 3.165 -1 4 C-3.333 4.04 -5.667 4.043 -8 4 C-8 3.34 -8 2.68 -8 2 C-8.66 1.67 -9.32 1.34 -10 1 C-6.693 -0.653 -3.545 -0.764 0 0 Z " fill="#EA5C2D" transform="translate(141,142)"/>
<path d="M0 0 C1.134 0.021 2.269 0.041 3.438 0.062 C2.447 0.722 1.458 1.382 0.438 2.062 C0.969 2.293 1.5 2.524 2.047 2.762 C6.571 4.85 9.837 6.62 12.438 11.062 C12.688 13.875 12.688 13.875 12.438 16.062 C10.07 13.932 8.595 12.601 7.688 9.5 C6.438 7.062 6.438 7.062 3.617 6.137 C2.527 6.009 1.436 5.881 0.312 5.75 C-0.783 5.609 -1.879 5.469 -3.008 5.324 C-3.429 5.281 -3.429 5.281 -5.562 5.062 C-4.437 0.078 -4.437 0.078 0 0 Z " fill="#F7632F" transform="translate(126.5625,73.9375)"/>
<path d="M0 0 C0.99 0.99 1.98 1.98 3 3 C3.99 2.67 4.98 2.34 6 2 C6.33 5.3 6.66 8.6 7 12 C5.68 12 4.36 12 3 12 C3 11.34 3 10.68 3 10 C2.34 10.33 2.34 10.33 -1 12 C-2.429 9.646 -3.087 8.52 -2.625 5.75 C-2.419 5.172 -2.213 4.595 -2 4 C-1.34 4 -0.68 4 0 4 C0 2.68 0 1.36 0 0 Z " fill="#DF3F15" transform="translate(127,97)"/>
<path d="M0 0 C0.99 0.33 1.98 0.66 3 1 C2.803 5.226 2.298 6.702 -0.75 9.75 C-3.531 11.675 -5.756 13.099 -9 14 C-9.66 13.67 -10.32 13.34 -11 13 C-11.625 10.938 -11.625 10.938 -12 9 C-10.948 8.814 -9.896 8.629 -8.812 8.438 C-4.04 7.128 -2.501 4.093 0 0 Z " fill="#EC6238" transform="translate(47,84)"/>
<path d="M0 0 C0.33 1.32 0.66 2.64 1 4 C1.99 4 2.98 4 4 4 C4.33 3.01 4.66 2.02 5 1 C5.33 1.99 5.66 2.98 6 4 C5.01 4.66 4.02 5.32 3 6 C2.34 5.67 1.68 5.34 1 5 C1.33 6.65 1.66 8.3 2 10 C5.343 10.074 7.804 10.065 11 9 C9.125 12.875 9.125 12.875 8 14 C1.748 14.579 1.748 14.579 -0.938 12.5 C-2.513 8.794 -2.324 6.021 -2 2 C-1.34 1.34 -0.68 0.68 0 0 Z " fill="#5E2D15" transform="translate(62,103)"/>
<path d="M0 0 C0.412 0.006 0.412 0.006 2.496 0.035 C3.322 0.044 4.149 0.053 5 0.062 C5.638 0.074 6.276 0.086 6.934 0.098 C6.934 0.428 6.934 0.758 6.934 1.098 C6.449 1.232 6.449 1.232 3.996 1.91 C2.985 2.302 1.975 2.694 0.934 3.098 C0.604 4.088 0.274 5.078 -0.066 6.098 C0.924 6.428 1.914 6.758 2.934 7.098 C2.604 8.088 2.274 9.078 1.934 10.098 C0.944 9.438 -0.046 8.778 -1.066 8.098 C-3.547 7.902 -3.547 7.902 -6.254 7.973 C-6.704 7.982 -6.704 7.982 -8.984 8.027 C-9.328 8.039 -9.328 8.039 -11.066 8.098 C-10.406 7.768 -9.746 7.438 -9.066 7.098 C-9.066 5.448 -9.066 3.798 -9.066 2.098 C-8.076 2.098 -7.086 2.098 -6.066 2.098 C-6.066 3.088 -6.066 4.078 -6.066 5.098 C-5.406 5.098 -4.746 5.098 -4.066 5.098 C-3.922 4.458 -3.778 3.819 -3.629 3.16 C-2.803 0.132 -2.803 0.132 0 0 Z " fill="#BE421F" transform="translate(109.06640625,157.90234375)"/>
<path d="M0 0 C0.33 0.66 0.66 1.32 1 2 C1.784 2.289 2.568 2.577 3.375 2.875 C6.315 4.135 7.315 5.339 9 8 C8.34 8 7.68 8 7 8 C6.67 8.66 6.34 9.32 6 10 C5.34 9.34 4.68 8.68 4 8 C4.33 7.01 4.66 6.02 5 5 C4.34 5 3.68 5 3 5 C3 5.66 3 6.32 3 7 C0.056 8.472 -2.374 7.849 -5.625 7.562 C-6.814 7.461 -8.002 7.359 -9.227 7.254 C-10.142 7.17 -11.057 7.086 -12 7 C-12 6.67 -12 6.34 -12 6 C-9.36 6 -6.72 6 -4 6 C-4 5.34 -4 4.68 -4 4 C-3.34 4 -2.68 4 -2 4 C-2 3.34 -2 2.68 -2 2 C-1.34 2 -0.68 2 0 2 C0 1.34 0 0.68 0 0 Z " fill="#A62608" transform="translate(41,144)"/>
<path d="M0 0 C5 1 5 1 6 2 C6.141 4.671 6.042 7.324 6 10 C4.845 10.495 4.845 10.495 -1 13 C-0.67 8.71 -0.34 4.42 0 0 Z " fill="#EB6940" transform="translate(34,164)"/>
<path d="M0 0 C0.66 0 1.32 0 2 0 C2 2 2 2 0.734 3.762 C-3.225 7.604 -6.433 9.209 -11.945 9.27 C-24.453 8.849 -24.453 8.849 -30 7 C-30 7.66 -30 8.32 -30 9 C-30.66 9 -31.32 9 -32 9 C-32 8.01 -32 7.02 -32 6 C-33.32 5.34 -34.64 4.68 -36 4 C-33 4 -33 4 -29.773 4.977 C-21.065 7.338 -11.733 7.234 -3.637 3.07 C-2 2 -2 2 0 0 Z " fill="#9C2007" transform="translate(101,131)"/>
<path d="M0 0 C0.887 0.124 1.774 0.248 2.688 0.375 C2.688 0.705 2.688 1.035 2.688 1.375 C1.739 1.664 0.79 1.953 -0.188 2.25 C-3.312 3.375 -3.312 3.375 -5.312 5.375 C-5.776 12.679 -5.776 12.679 -3.312 16.375 C-1.367 16.887 -1.367 16.887 0.812 17.062 C2.091 17.166 3.37 17.269 4.688 17.375 C4.028 18.365 3.368 19.355 2.688 20.375 C-0.188 20.812 -0.188 20.812 -3.312 20.375 C-6.16 18.143 -7.162 16.825 -8.312 13.375 C-8.791 9.145 -8.721 6.364 -6.188 2.938 C-3.312 0.375 -3.312 0.375 0 0 Z " fill="#E3D1C0" transform="translate(66.3125,99.625)"/>
<path d="M0 0 C1.875 0.188 1.875 0.188 4 1 C5.253 3.443 6 5.245 6 8 C7.5 9.625 7.5 9.625 9 11 C6.085 9.926 4.222 9.222 2 7 C2 9.64 2 12.28 2 15 C1.01 14.67 0.02 14.34 -1 14 C-1.027 12.042 -1.046 10.083 -1.062 8.125 C-1.074 7.034 -1.086 5.944 -1.098 4.82 C-1 2 -1 2 0 0 Z " fill="#EE6E46" transform="translate(118,84)"/>
<path d="M0 0 C-0.33 1.32 -0.66 2.64 -1 4 C-5.89 4.975 -10.54 5.151 -15.5 5.125 C-15.867 5.127 -15.867 5.127 -17.723 5.137 C-21.924 5.129 -25.861 4.825 -30 4 C-30 3.67 -30 3.34 -30 3 C-26.535 2.835 -26.535 2.835 -9 2 C-9 1.67 -9 1.34 -9 1 C-2.25 -1.125 -2.25 -1.125 0 0 Z " fill="#C4502E" transform="translate(100,163)"/>
<path d="M0 0 C2.31 0.66 4.62 1.32 7 2 C5.35 5.63 3.7 9.26 2 13 C1.01 12.67 0.02 12.34 -1 12 C-1.027 10.188 -1.046 8.375 -1.062 6.562 C-1.074 5.553 -1.086 4.544 -1.098 3.504 C-1 1 -1 1 0 0 Z " fill="#D44E2D" transform="translate(12,155)"/>
<path d="M0 0 C1.044 3.133 0.934 3.99 0 7 C-0.66 7 -1.32 7 -2 7 C-2 8.65 -2 10.3 -2 12 C-4.64 11.01 -7.28 10.02 -10 9 C-8.089 5.464 -6.374 3.21 -3 1 C-2.67 1.33 -2.34 1.66 -2 2 C-1.34 1.34 -0.68 0.68 0 0 Z " fill="#DE532A" transform="translate(22,146)"/>
<path d="M0 0 C0.66 0 1.32 0 2 0 C2.33 1.65 2.66 3.3 3 5 C3.99 5.33 4.98 5.66 6 6 C6 8.31 6 10.62 6 13 C6.99 13.33 7.98 13.66 9 14 C9 14.66 9 15.32 9 16 C7.68 16 6.36 16 5 16 C0.772 10.564 -0.128 6.792 0 0 Z " fill="#CD4424" transform="translate(19,167)"/>
<path d="M0 0 C3.3 0 6.6 0 10 0 C7 2 7 2 4.562 2.625 C0.698 4.699 -0.361 8.064 -2 12 C-3.98 12 -5.96 12 -8 12 C-6.6 7.545 -4.356 5.183 -1 2 C-0.67 1.34 -0.34 0.68 0 0 Z " fill="#F6EDE8" transform="translate(24,151)"/>
<path d="M0 0 C2.753 1.796 4.526 3.053 6 6 C6.04 8.333 6.043 10.667 6 13 C5.67 13 5.34 13 5 13 C4.83 12.374 4.66 11.747 4.484 11.102 C4.242 10.284 4 9.467 3.75 8.625 C3.634 8.219 3.634 8.219 3.047 6.164 C1.779 3.542 0.676 3.006 -2 2 C-2.66 2.66 -3.32 3.32 -4 4 C-3.625 6.125 -3.625 6.125 -3 8 C-6.242 7.65 -7.615 7.438 -9.812 4.938 C-10.008 4.618 -10.008 4.618 -11 3 C-7.487 -0.372 -4.763 -0.585 0 0 Z " fill="#C9947B" transform="translate(104,99)"/>
<path d="M0 0 C1.65 0 3.3 0 5 0 C4.67 2.64 4.34 5.28 4 8 C0.527 9.158 -2.361 9.069 -6 9 C-4.697 6.093 -3.291 4.192 -1 2 C-0.67 1.34 -0.34 0.68 0 0 Z " fill="#F4E7E0" transform="translate(116,168)"/>
<path d="M0 0 C0 0.66 0 1.32 0 2 C2.64 2.66 5.28 3.32 8 4 C8 4.33 8 4.66 8 5 C3.38 5.66 -1.24 6.32 -6 7 C-6 5.68 -6 4.36 -6 3 C-6.66 3 -7.32 3 -8 3 C-8 2.34 -8 1.68 -8 1 C-5.291 -0.354 -2.991 -0.065 0 0 Z " fill="#DF511F" transform="translate(126,152)"/>
<path d="M0 0 C1.65 0 3.3 0 5 0 C4.312 1.938 4.312 1.938 3 4 C1.344 4.383 -0.325 4.709 -2 5 C-3.629 5.529 -5.254 6.071 -6.875 6.625 C-11.408 8.03 -14.411 8.097 -19 7 C-11.927 3.192 -5.908 2.747 2 3 C2 2.34 2 1.68 2 1 C1.34 0.67 0.68 0.34 0 0 Z " fill="#F1E2D3" transform="translate(142,181)"/>
<path d="M0 0 C0.33 0 0.66 0 1 0 C1.405 6.752 -0.317 10.475 -4 16 C-4.99 16 -5.98 16 -7 16 C-7 13.36 -7 10.72 -7 8 C-6.34 8 -5.68 8 -5 8 C-3.98 7.021 -2.979 6.021 -2 5 C-1.67 5 -1.34 5 -1 5 C-0.67 3.35 -0.34 1.7 0 0 Z " fill="#CE4525" transform="translate(144,167)"/>
<path d="M0 0 C1.062 1.812 1.062 1.812 2 4 C1 7 1 7 -0.75 8.25 C-3.527 9.176 -5.216 8.773 -8 8 C-8 7.01 -8 6.02 -8 5 C-7.01 5 -6.02 5 -5 5 C-5 4.34 -5 3.68 -5 3 C-2.5 1.375 -2.5 1.375 0 0 Z " fill="#F06634" transform="translate(133,123)"/>
<path d="M0 0 C0.66 0.66 1.32 1.32 2 2 C0.503 4.995 -1.826 5.518 -4.812 6.938 C-8.507 8.697 -11.816 10.417 -15 13 C-15 11.68 -15 10.36 -15 9 C-13.242 7.402 -13.242 7.402 -10.875 5.938 C-10.467 5.683 -10.467 5.683 -8.402 4.395 C-5.646 2.795 -2.893 1.335 0 0 Z " fill="#E8704C" transform="translate(59,116)"/>
<path d="M0 0 C6.191 2.807 9.489 8.132 12.352 14.098 C13.229 16.672 12.945 18.479 12 21 C11.34 21 10.68 21 10 21 C9.781 20.071 9.562 19.141 9.336 18.184 C7.435 10.771 5.666 5.408 0 0 Z " fill="#E05836" transform="translate(141,80)"/>
<path d="M0 0 C4.29 0.99 8.58 1.98 13 3 C13.33 4.65 13.66 6.3 14 8 C9.05 7.01 4.1 6.02 -1 5 C-0.34 4.34 0.32 3.68 1 3 C0.67 2.01 0.34 1.02 0 0 Z " fill="#F6E8E1" transform="translate(26,137)"/>
<path d="M0 0 C4.875 1.75 4.875 1.75 6 4 C6.406 12.391 6.406 12.391 4 16 C3.01 15.34 2.02 14.68 1 14 C1.66 13.67 2.32 13.34 3 13 C3 11.02 3 9.04 3 7 C1.68 7 0.36 7 -1 7 C-0.67 4.69 -0.34 2.38 0 0 Z " fill="#E0592D" transform="translate(124,161)"/>
<path d="M0 0 C0 0.66 0 1.32 0 2 C0.99 2.33 1.98 2.66 3 3 C2.722 3.024 2.722 3.024 1.312 3.148 C-3.966 3.666 -8.884 4.605 -14 6 C-13.664 4.078 -13.664 4.078 -13 2 C-8.649 -0.072 -4.764 -0.191 0 0 Z " fill="#FEFDFC" transform="translate(139,139)"/>
<path d="M0 0 C0.042 2.333 0.041 4.667 0 7 C-1 8 -1 8 -3.562 8.062 C-4.367 8.042 -5.171 8.021 -6 8 C-6.934 4.99 -7.044 4.133 -6 1 C-4 0 -4 0 0 0 Z " fill="#EB511E" transform="translate(128,167)"/>
<path d="M0 0 C0 0.99 0 1.98 0 3 C-0.66 3 -1.32 3 -2 3 C-2 3.66 -2 4.32 -2 5 C-5.63 4.67 -9.26 4.34 -13 4 C-12.67 3.01 -12.34 2.02 -12 1 C-7.936 0.226 -4.136 -0.098 0 0 Z " fill="#F5955F" transform="translate(53,158)"/>
<path d="M0 0 C0.397 0.045 0.397 0.045 2.406 0.273 C4.5 0.625 4.5 0.625 6.5 1.625 C5.5 3.625 5.5 3.625 2.5 5.625 C-0.691 4.897 -3.569 4.09 -6.5 2.625 C-6.5 1.965 -6.5 1.305 -6.5 0.625 C-4.015 -0.618 -2.736 -0.329 0 0 Z " fill="#F6986A" transform="translate(120.5,158.375)"/>
<path d="M0 0 C0.33 0 0.66 0 1 0 C1 1.98 1 3.96 1 6 C2.485 6.33 2.485 6.33 10 8 C10 7.34 10 6.68 10 6 C10.99 6 11.98 6 13 6 C11.125 9.875 11.125 9.875 10 11 C3.721 11.581 3.721 11.581 1.062 9.438 C-0.349 6.199 -0.201 3.492 0 0 Z " fill="#45210E" transform="translate(93,106)"/>
<path d="M0 0 C2.394 2.477 3.397 4.625 4 8 C2 7 -0 6 -2 5 C-2 3.68 -2 2.36 -2 1 C-6.62 1 -11.24 1 -16 1 C-10.728 -2.515 -5.7 -2.721 0 0 Z " fill="#A92608" transform="translate(60,157)"/>
<path d="M0 0 C1.534 3.069 0.55 5.701 0 9 C-0.66 8.67 -1.32 8.34 -2 8 C-2 7.01 -2 6.02 -2 5 C-3.114 4.876 -4.227 4.752 -5.375 4.625 C-9 4 -9 4 -11 2 C-7.37 1.34 -3.74 0.68 0 0 Z " fill="#BF3714" transform="translate(134,156)"/>
<path d="M0 0 C1.688 3.062 1.688 3.062 3 6 C1.68 6.33 0.36 6.66 -1 7 C-1.351 6.361 -1.701 5.721 -2.062 5.062 C-4.772 2.178 -7.159 2.29 -11 2 C-11 1.34 -11 0.68 -11 0 C-3.375 -1.125 -3.375 -1.125 0 0 Z " fill="#F0DAD0" transform="translate(141,151)"/>
<path d="M0 0 C6.316 0.162 10.617 3.766 15 8 C16.266 10.23 16.266 10.23 17 12 C14 11 14 11 12 8 C10 6.861 7.951 5.806 5.875 4.812 C5.327 4.548 5.327 4.548 2.555 3.207 C1.712 2.809 0.869 2.41 0 2 C0 1.34 0 0.68 0 0 Z " fill="#DF6440" transform="translate(107,118)"/>
<path d="M0 0 C6.625 -0.25 6.625 -0.25 10 2 C9.67 2.99 9.34 3.98 9 5 C2.375 6.25 2.375 6.25 -1 4 C0.32 3.34 1.64 2.68 3 2 C2.01 1.34 1.02 0.68 0 0 Z " fill="#E75930" transform="translate(38,74)"/>
<path d="M0 0 C0.66 1.32 1.32 2.64 2 4 C4.386 3.424 6.667 2.778 9 2 C9.66 2.33 10.32 2.66 11 3 C11 3.66 11 4.32 11 5 C9.845 5.495 9.845 5.495 4 8 C4 8.66 4 9.32 4 10 C3.01 9.67 2.02 9.34 1 9 C-0.478 6.043 -0.06 3.258 0 0 Z " fill="#ECD9C9" transform="translate(44,172)"/>
<path d="M0 0 C0.66 1.32 1.32 2.64 2 4 C4.796 4.86 7.072 5 10 5 C6.614 7.902 4.265 9.294 0 11 C0 7.37 0 3.74 0 0 Z " fill="#DF4219" transform="translate(35,95)"/>
<path d="M0 0 C0 0.33 0 0.66 0 1 C-1.65 1 -3.3 1 -5 1 C-5 1.66 -5 2.32 -5 3 C-9.431 5.092 -9.431 5.092 -12.312 4.625 C-12.869 4.419 -13.426 4.213 -14 4 C-13.34 3.67 -12.68 3.34 -12 3 C-12.99 2.34 -13.98 1.68 -15 1 C-10.052 -1.804 -5.383 -0.774 0 0 Z " fill="#E26131" transform="translate(44,152)"/>
<path d="M0 0 C0.66 0.33 1.32 0.66 2 1 C2.18 6.22 1.971 10.073 0 15 C-1.32 14.67 -2.64 14.34 -4 14 C-3.34 12.35 -2.68 10.7 -2 9 C-1.34 9 -0.68 9 0 9 C0 6.03 0 3.06 0 0 Z " fill="#D74E30" transform="translate(49,85)"/>
<path d="M0 0 C0.33 1.32 0.66 2.64 1 4 C-2.512 6.408 -4.727 7.366 -9 7 C-9 6.34 -9 5.68 -9 5 C-3.643 0 -3.643 0 0 0 Z " fill="#B73F24" transform="translate(113,169)"/>
<path d="M0 0 C1.65 0 3.3 0 5 0 C5.66 2.31 6.32 4.62 7 7 C6.34 7.66 5.68 8.32 5 9 C4.602 10.988 4.262 12.989 4 15 C3.67 15 3.34 15 3 15 C2.951 14.252 2.902 13.505 2.852 12.734 C2.777 11.75 2.702 10.765 2.625 9.75 C2.555 8.775 2.486 7.801 2.414 6.797 C2.015 4.104 1.365 2.33 0 0 Z " fill="#EDD6CA" transform="translate(127,161)"/>
<path d="M0 0 C0.351 -0.007 0.351 -0.007 2.125 -0.043 C4 0.188 4 0.188 6 2.188 C2.356 4.617 0.288 4.349 -4 4.188 C-4 3.528 -4 2.868 -4 2.188 C-4.66 1.857 -5.32 1.528 -6 1.188 C-3.771 0.073 -2.469 0.023 0 0 Z " fill="#E27552" transform="translate(137,141.8125)"/>
<path d="M0 0 C1.32 0 2.64 0 4 0 C3.125 4.75 3.125 4.75 2 7 C0.35 7 -1.3 7 -3 7 C-3 3.46 -2.418 2.505 0 0 Z " fill="#F16332" transform="translate(140,118)"/>
<path d="M0 0 C0.33 0.99 0.66 1.98 1 3 C-1.994 4.723 -4.177 5.273 -7.625 5.25 C-8.401 5.255 -9.177 5.26 -9.977 5.266 C-12 5 -12 5 -14 3 C-11.03 3.33 -8.06 3.66 -5 4 C-5 3.34 -5 2.68 -5 2 C-5.99 1.67 -6.98 1.34 -8 1 C-5.108 0.174 -3.113 0 0 0 Z " fill="#B22509" transform="translate(150,113)"/>
<path d="M0 0 C1.134 0.021 2.269 0.041 3.438 0.062 C2.447 0.722 1.458 1.382 0.438 2.062 C1.427 3.052 2.417 4.043 3.438 5.062 C-0.041 6.222 -2.021 5.771 -5.562 5.062 C-4.437 0.078 -4.437 0.078 0 0 Z " fill="#E55D33" transform="translate(126.5625,73.9375)"/>
<path d="M0 0 C0.33 0.66 0.66 1.32 1 2 C3.31 2 5.62 2 8 2 C8.33 3.65 8.66 5.3 9 7 C7.561 6.716 6.124 6.423 4.688 6.125 C3.887 5.963 3.086 5.8 2.262 5.633 C0 5 0 5 -3 3 C-3 2.34 -3 1.68 -3 1 C-2.01 0.67 -1.02 0.34 0 0 Z " fill="#E66C3D" transform="translate(129,151)"/>
<path d="M0 0 C0.33 0 0.66 0 1 0 C1.295 5.023 0.985 7.895 -2 12 C-3.562 10.812 -3.562 10.812 -5 9 C-4.688 6.312 -4.688 6.312 -4 4 C-3.34 4.165 -3.34 4.165 0 5 C0 3.35 0 1.7 0 0 Z " fill="#CD3E1D" transform="translate(151,115)"/>
<path d="M0 0 C0.825 0.392 1.65 0.784 2.5 1.188 C5.629 3.456 6.099 5.315 7 9 C6.408 8.59 5.817 8.18 5.207 7.758 C4.417 7.219 3.627 6.68 2.812 6.125 C2.035 5.591 1.258 5.058 0.457 4.508 C-1.968 3.02 -4.333 1.976 -7 1 C-7 0.67 -7 0.34 -7 0 C-2.25 -1.125 -2.25 -1.125 0 0 Z " fill="#FA9D72" transform="translate(132,75)"/>
<path d="M0 0 C0.33 0 0.66 0 1 0 C1.438 3.188 1.438 3.188 1 7 C-1.085 9.112 -3.412 10.567 -6 12 C-6.312 9.812 -6.312 9.812 -6 7 C-3.562 4.312 -3.562 4.312 -1 2 C-0.67 1.34 -0.34 0.68 0 0 Z " fill="#DE4A19" transform="translate(29,158)"/>
<path d="M0 0 C0.99 0 1.98 0 3 0 C3.054 1.625 3.093 3.25 3.125 4.875 C3.148 5.78 3.171 6.685 3.195 7.617 C3 10 3 10 1 12 C-0.806 7.538 -1.117 4.69 0 0 Z " fill="#DF5936" transform="translate(151,156)"/>
<path d="M0 0 C0 0.99 0 1.98 0 3 C-5.28 3 -10.56 3 -16 3 C-16 2.34 -16 1.68 -16 1 C-13.708 0.832 -11.417 0.666 -9.125 0.5 C-7.849 0.407 -6.573 0.314 -5.258 0.219 C-3.508 0.101 -1.754 0 0 0 Z " fill="#F78559" transform="translate(91,113)"/>
<path d="M0 0 C0.66 1.32 1.32 2.64 2 4 C3.65 3.01 5.3 2.02 7 1 C7.33 2.32 7.66 3.64 8 5 C2.375 7.125 2.375 7.125 -1 6 C-1.043 4.334 -1.041 2.666 -1 1 C-0.67 0.67 -0.34 0.34 0 0 Z " fill="#F76534" transform="translate(136,91)"/>
<path d="M0 0 C-7.763 4.712 -15.201 4.417 -24 4 C-24 3.67 -24 3.34 -24 3 C-23.071 2.963 -22.141 2.925 -21.184 2.887 C-15.28 2.573 -4.918 -1.639 0 0 Z " fill="#DC471C" transform="translate(99,134)"/>
<path d="M0 0 C2.29 3.435 2.178 4.985 2 9 C1.34 9.33 1.34 9.33 -2 11 C-2.33 9.35 -2.66 7.7 -3 6 C-2.34 6 -1.68 6 -1 6 C-0.67 4.02 -0.34 2.04 0 0 Z " fill="#FC7A47" transform="translate(140,84)"/>
<path d="M0 0 C0.66 0 1.32 0 2 0 C3.354 1.65 4.687 3.317 6 5 C6.66 5.33 7.32 5.66 8 6 C8 6.66 8 7.32 8 8 C3.551 8.361 3.551 8.361 1.188 6.812 C-0.367 4.44 -0.225 2.78 0 0 Z " fill="#AD331E" transform="translate(53,169)"/>
<path d="M0 0 C0.66 0.33 1.32 0.66 2 1 C2.99 1.33 3.98 1.66 5 2 C5 2.99 5 3.98 5 5 C5.99 5.33 6.98 5.66 8 6 C4.7 6 1.4 6 -2 6 C-1.125 1.125 -1.125 1.125 0 0 Z " fill="#C4320C" transform="translate(128,145)"/>
<path d="M0 0 C0.33 0.99 0.66 1.98 1 3 C-4.625 6.875 -4.625 6.875 -8 8 C-7.66 4.825 -6.975 3.977 -4.562 1.75 C-2 0 -2 0 0 0 Z " fill="#F15C2A" transform="translate(103,133)"/>
<path d="M0 0 C0.99 0.165 0.99 0.165 6 1 C5.34 1.66 4.68 2.32 4 3 C5.485 2.835 5.485 2.835 13 2 C13.33 2.66 13.66 3.32 14 4 C11.673 5.163 10.153 5.199 7.562 5.25 C7.171 5.263 7.171 5.263 5.191 5.328 C2.492 4.924 1.625 4.153 0 2 C0 1.34 0 0.68 0 0 Z " fill="#AD270C" transform="translate(16,113)"/>
<path d="M0 0 C0.33 1.32 0.66 2.64 1 4 C1.99 4 2.98 4 4 4 C4.33 3.01 4.66 2.02 5 1 C5.33 1.99 5.66 2.98 6 4 C5.01 4.66 4.02 5.32 3 6 C2.34 5.67 1.68 5.34 1 5 C0.67 6.32 0.34 7.64 0 9 C-0.66 9 -1.32 9 -2 9 C-2.125 5.625 -2.125 5.625 -2 2 C-1.34 1.34 -0.68 0.68 0 0 Z " fill="#31312D" transform="translate(62,103)"/>
<path d="M0 0 C0.99 0 1.98 0 3 0 C3 0.66 3 1.32 3 2 C4.485 2.33 4.485 2.33 12 4 C12 4.33 12 4.66 12 5 C8.04 5 4.08 5 0 5 C-0.33 4.34 -0.66 3.68 -1 3 C-0.67 2.01 -0.34 1.02 0 0 Z " fill="#EE6A36" transform="translate(111,159)"/>
<path d="M0 0 C4.875 2.75 4.875 2.75 6 5 C4 7 4 7 0.375 7.125 C-0.739 7.084 -1.852 7.042 -3 7 C-3 6.34 -3 5.68 -3 5 C-2 4 -1 3 0 2 C0 1.34 0 0.68 0 0 Z " fill="#E5562E" transform="translate(31,123)"/>
<path d="M0 0 C2.75 -0.312 2.75 -0.312 6 0 C8.438 2.25 8.438 2.25 10 5 C9.598 7.172 9.598 7.172 9 9 C8.602 8.518 8.203 8.036 7.793 7.539 C7.263 6.907 6.733 6.276 6.188 5.625 C5.665 4.999 5.143 4.372 4.605 3.727 C3 2 3 2 0 0 Z " fill="#1E1E19" transform="translate(97,102)"/>
<path d="M0 0 C0.66 0.33 1.32 0.66 2 1 C0.719 2.707 -0.618 4.374 -2 6 C-2.66 6 -3.32 6 -4 6 C-4 7.65 -4 9.3 -4 11 C-4.66 11 -5.32 11 -6 11 C-6.688 8.688 -6.688 8.688 -7 6 C-5.688 4.188 -5.688 4.188 -4 3 C-3.34 3 -2.68 3 -2 3 C-1.34 2.01 -0.68 1.02 0 0 Z " fill="#E56233" transform="translate(27,159)"/>
<path d="M0 0 C0.99 0.99 1.98 1.98 3 3 C1.68 3 0.36 3 -1 3 C-1 3.66 -1 4.32 -1 5 C-3.64 5.33 -6.28 5.66 -9 6 C-9 5.01 -9 4.02 -9 3 C-8.072 2.876 -7.144 2.752 -6.188 2.625 C-3 2 -3 2 0 0 Z " fill="#E14518" transform="translate(135,128)"/>
<path d="M0 0 C0.66 0 1.32 0 2 0 C2.33 4.29 2.66 8.58 3 13 C2.01 12.67 1.02 12.34 0 12 C0 8.04 0 4.08 0 0 Z " fill="#D8664B" transform="translate(117,86)"/>
<path d="M0 0 C2.312 0.188 2.312 0.188 5 1 C6.938 3.63 7.967 5.901 9 9 C7.25 8.875 7.25 8.875 5 8 C3.074 5.414 1.441 2.882 0 0 Z " fill="#EB4E20" transform="translate(128,80)"/>
<path d="M0 0 C0.66 0 1.32 0 2 0 C2 2.31 2 4.62 2 7 C1.34 7 0.68 7 0 7 C-0.66 8.65 -1.32 10.3 -2 12 C-2.66 11.34 -3.32 10.68 -4 10 C-3.34 9.34 -2.68 8.68 -2 8 C-1.367 6.055 -1.367 6.055 -0.875 3.875 C-0.586 2.596 -0.297 1.317 0 0 Z " fill="#DBA285" transform="translate(74,106)"/>
<path d="M0 0 C0 2.621 -0.313 4.509 -1 7 C-0.01 7.33 0.98 7.66 2 8 C1.01 8.66 0.02 9.32 -1 10 C-1.66 8.02 -2.32 6.04 -3 4 C-4.32 5.32 -5.64 6.64 -7 8 C-5.988 4.597 -5.352 3.243 -2.375 1.188 C-1.591 0.796 -0.808 0.404 0 0 Z " fill="#FA7646" transform="translate(25,84)"/>
<path d="M0 0 C3.995 0.615 6.775 2.655 10 5 C10 5.33 10 5.66 10 6 C7.36 5.67 4.72 5.34 2 5 C1.34 3.35 0.68 1.7 0 0 Z " fill="#D6B59D" transform="translate(34,181)"/>
<path d="M0 0 C2.64 0.33 5.28 0.66 8 1 C7.67 1.99 7.34 2.98 7 4 C4.36 4 1.72 4 -1 4 C-0.67 2.68 -0.34 1.36 0 0 Z " fill="#E14419" transform="translate(25,145)"/>
<path d="M0 0 C6.355 0.48 6.355 0.48 8.938 2.562 C10.499 6.144 10.195 9.11 10 13 C9.67 13 9.34 13 9 13 C8.866 12.371 8.866 12.371 8.188 9.188 C7.38 5.984 6.812 3.947 4 2 C1.812 0.812 1.812 0.812 0 0 Z " fill="#EFE0D2" transform="translate(98,100)"/>
<path d="M0 0 C0.99 0 1.98 0 3 0 C3 0.66 3 1.32 3 2 C2.34 2 1.68 2 1 2 C0.67 2.66 0.34 3.32 0 4 C-0.33 3.01 -0.66 2.02 -1 1 C-0.67 0.67 -0.34 0.34 0 0 Z M-2 5 C-2.33 5.99 -2.66 6.98 -3 8 C-3 7.34 -3 6.68 -3 6 C-4.98 6.66 -6.96 7.32 -9 8 C-8.67 7.01 -8.34 6.02 -8 5 C-5 4 -5 4 -2 5 Z " fill="#D43612" transform="translate(45,99)"/>
<path d="M0 0 C0 0.99 0 1.98 0 3 C-1.667 4.667 -3.333 6.333 -5 8 C-5.66 7.67 -6.32 7.34 -7 7 C-7.625 4.938 -7.625 4.938 -8 3 C-6.866 2.691 -5.731 2.381 -4.562 2.062 C-1 1 -1 1 0 0 Z " fill="#E16037" transform="translate(43,90)"/>
<path d="M0 0 C0.99 0.33 1.98 0.66 3 1 C2.67 2.32 2.34 3.64 2 5 C-0.64 5 -3.28 5 -6 5 C-5.196 4.361 -4.391 3.721 -3.562 3.062 C-1 1 -1 1 0 0 Z " fill="#DAB7A0" transform="translate(125,182)"/>
<path d="M0 0 C0.66 0.99 1.32 1.98 2 3 C3.324 4.674 4.656 6.342 6 8 C5.67 8.66 5.34 9.32 5 10 C4.01 9.67 3.02 9.34 2 9 C2 8.01 2 7.02 2 6 C0.68 5.34 -0.64 4.68 -2 4 C-1.34 2.68 -0.68 1.36 0 0 Z " fill="#D0522B" transform="translate(43,176)"/>
<path d="M0 0 C1.98 0 3.96 0 6 0 C6 1.32 6 2.64 6 4 C3.69 4 1.38 4 -1 4 C-0.67 2.68 -0.34 1.36 0 0 Z " fill="#F4E3D4" transform="translate(129,177)"/>
<path d="M0 0 C0.66 0.33 1.32 0.66 2 1 C2 2.65 2 4.3 2 6 C1.01 6.33 0.02 6.66 -1 7 C-1.66 6.01 -2.32 5.02 -3 4 C-3.99 3.34 -4.98 2.68 -6 2 C-4.02 2 -2.04 2 0 2 C0 1.34 0 0.68 0 0 Z " fill="#E8D0BE" transform="translate(117,175)"/>
<path d="M0 0 C0.33 0 0.66 0 1 0 C1 2.64 1 5.28 1 8 C-1.64 8.33 -4.28 8.66 -7 9 C-5.067 6.975 -3.368 5.579 -1 4 C-0.312 1.875 -0.312 1.875 0 0 Z " fill="#D23811" transform="translate(124,129)"/>
<path d="M0 0 C0.258 0.237 0.258 0.237 1.562 1.438 C4.668 3.428 7.366 3.651 11 4 C10.67 4.66 10.34 5.32 10 6 C3.54 6.366 3.54 6.366 1.062 4.688 C0 3 0 3 0 0 Z " fill="#DCD2C1" transform="translate(93,114)"/>
<path d="M0 0 C2.31 0.33 4.62 0.66 7 1 C4.429 3.571 2.395 3.801 -1.125 4.625 C-2.221 4.885 -3.316 5.146 -4.445 5.414 C-5.288 5.607 -6.131 5.801 -7 6 C-4.809 3.709 -2.905 2.302 0 1 C0 0.67 0 0.34 0 0 Z " fill="#FA996D" transform="translate(36,74)"/>
<path d="M0 0 C0.412 0.006 0.412 0.006 2.496 0.035 C3.322 0.044 4.149 0.053 5 0.062 C5.638 0.074 6.276 0.086 6.934 0.098 C6.934 0.428 6.934 0.758 6.934 1.098 C6.005 1.366 5.077 1.634 4.121 1.91 C1.171 3.009 -0.123 3.722 -2.066 6.098 C-2.449 4.442 -2.78 2.773 -3.066 1.098 C-2.066 0.098 -2.066 0.098 0 0 Z " fill="#D14B1C" transform="translate(109.06640625,157.90234375)"/>
<path d="M0 0 C0 1.32 0 2.64 0 4 C-0.763 3.897 -1.526 3.794 -2.312 3.688 C-3.199 3.791 -4.086 3.894 -5 4 C-6.812 6.5 -6.812 6.5 -8 9 C-9 7 -9 7 -8.375 4.5 C-7 2 -7 2 -4.5 0.688 C-2 0 -2 0 0 0 Z " fill="#E04419" transform="translate(151,116)"/>
<path d="M0 0 C-0.66 0.33 -0.66 0.33 -4 2 C-4 3.65 -4 5.3 -4 7 C-6 5.188 -6 5.188 -8 3 C-8 2.01 -8 1.02 -8 0 C-4.947 -0.981 -3.053 -0.981 0 0 Z " fill="#F1DED5" transform="translate(62,166)"/>
<path d="M0 0 C0.33 1.32 0.66 2.64 1 4 C2.32 4.33 3.64 4.66 5 5 C5 5.66 5 6.32 5 7 C3.35 7.33 1.7 7.66 0 8 C0 7.34 0 6.68 0 6 C-0.66 6 -1.32 6 -2 6 C-1.34 4.02 -0.68 2.04 0 0 Z " fill="#C1451C" transform="translate(57,158)"/>
<path d="M0 0 C2.31 0.66 4.62 1.32 7 2 C5.625 4.5 5.625 4.5 4 7 C3.34 7 2.68 7 2 7 C2 5.35 2 3.7 2 2 C1.34 2 0.68 2 0 2 C0 1.34 0 0.68 0 0 Z " fill="#C73D1D" transform="translate(12,155)"/>
<path d="M0 0 C-1.98 0.66 -3.96 1.32 -6 2 C-5.67 2.66 -5.34 3.32 -5 4 C-6.98 4.33 -8.96 4.66 -11 5 C-10.875 3.125 -10.875 3.125 -10 1 C-6.37 -0.694 -3.805 -1.464 0 0 Z " fill="#EDD2C8" transform="translate(136,140)"/>
<path d="M0 0 C3 1.812 3 1.812 6 4 C6 4.99 6 5.98 6 7 C3.36 5.68 0.72 4.36 -2 3 C-1.34 2.01 -0.68 1.02 0 0 Z " fill="#F76433" transform="translate(61,132)"/>
<path d="M0 0 C-0.66 0.33 -0.66 0.33 -4 2 C-3.01 2.66 -2.02 3.32 -1 4 C-2.32 4 -3.64 4 -5 4 C-5 4.66 -5 5.32 -5 6 C-6.32 5.67 -7.64 5.34 -9 5 C-9 4.34 -9 3.68 -9 3 C-6.043 0.153 -4.05 -0.338 0 0 Z " fill="#FA7244" transform="translate(63,124)"/>
<path d="M0 0 C-0.33 1.32 -0.66 2.64 -1 4 C-3.31 3.67 -5.62 3.34 -8 3 C-8 2.34 -8 1.68 -8 1 C-5.108 0.174 -3.113 0 0 0 Z " fill="#F9B987" transform="translate(51,158)"/>
<path d="M0 0 C0.248 0.598 0.495 1.196 0.75 1.812 C2.187 4.327 3.607 5.405 6 7 C6.99 7.66 7.98 8.32 9 9 C8.01 9.66 7.02 10.32 6 11 C0.118 5.906 0.118 5.906 -0.375 2.125 C-0.251 1.424 -0.127 0.722 0 0 Z " fill="#C02B0B" transform="translate(134,122)"/>
<path d="M0 0 C-0.66 0.66 -1.32 1.32 -2 2 C-1.625 4.125 -1.625 4.125 -1 6 C-2.938 5.25 -2.938 5.25 -5 4 C-5.75 1.875 -5.75 1.875 -6 0 C-3.509 -1.245 -2.589 -0.777 0 0 Z " fill="#D43B16" transform="translate(27,128)"/>
<path d="M0 0 C0.66 0.33 1.32 0.66 2 1 C1.67 1.66 1.34 2.32 1 3 C1.99 3.33 2.98 3.66 4 4 C1.272 5.364 -0.61 4.878 -3.625 4.562 C-4.628 4.461 -5.631 4.359 -6.664 4.254 C-7.435 4.17 -8.206 4.086 -9 4 C-9 3.67 -9 3.34 -9 3 C-8.434 2.867 -7.868 2.734 -7.285 2.598 C-6.918 2.509 -6.918 2.509 -5.062 2.062 C-4.332 1.888 -3.601 1.714 -2.848 1.535 C-1 1 -1 1 0 0 Z " fill="#D1542D" transform="translate(106,117)"/>
<path d="M0 0 C0.33 0 0.66 0 1 0 C1 1.98 1 3.96 1 6 C1.99 6.33 2.98 6.66 4 7 C4 7.66 4 8.32 4 9 C5.65 9.33 7.3 9.66 9 10 C9 10.33 9 10.66 9 11 C3.578 11.482 3.578 11.482 1.125 9.438 C-0.37 6.197 -0.203 3.524 0 0 Z " fill="#3F2416" transform="translate(93,106)"/>
<path d="M0 0 C0.66 0 1.32 0 2 0 C2 0.99 2 1.98 2 3 C1.67 3.165 1.67 3.165 0 4 C-1.125 6.062 -1.125 6.062 -2 8 C-2.66 8 -3.32 8 -4 8 C-2.875 5.028 -1.777 2.666 0 0 Z M-6 8 C-5.34 8.33 -4.68 8.66 -4 9 C-4.99 9 -5.98 9 -7 9 C-6.67 8.67 -6.34 8.34 -6 8 Z " fill="#E64E22" transform="translate(47,91)"/>
<path d="M0 0 C0.33 0.66 0.66 1.32 1 2 C1.66 2 2.32 2 3 2 C3 2.66 3 3.32 3 4 C-0.63 4 -4.26 4 -8 4 C-8 3.34 -8 2.68 -8 2 C-5.69 2.33 -3.38 2.66 -1 3 C-0.67 2.01 -0.34 1.02 0 0 Z " fill="#DEBAA4" transform="translate(141,180)"/>
<path d="M0 0 C0.33 0 0.66 0 1 0 C1.314 5.236 0.776 8.515 -2 13 C-2.33 13.165 -2.33 13.165 -4 14 C-4 12.68 -4 11.36 -4 10 C-3.34 9.67 -2.68 9.34 -2 9 C-1.367 6.934 -1.367 6.934 -0.875 4.438 C-0.707 3.611 -0.54 2.785 -0.367 1.934 C-0.246 1.296 -0.125 0.657 0 0 Z " fill="#C54C2E" transform="translate(144,167)"/>
<path d="M0 0 C1.65 0 3.3 0 5 0 C4.01 2.31 3.02 4.62 2 7 C1.01 6.67 0.02 6.34 -1 6 C-0.67 4.02 -0.34 2.04 0 0 Z " fill="#F4ECE5" transform="translate(32,161)"/>
<path d="M0 0 C0.33 0.99 0.66 1.98 1 3 C-0.938 5.688 -0.938 5.688 -3 8 C-3.66 7.67 -4.32 7.34 -5 7 C-3.75 3.347 -3.329 2.219 0 0 Z " fill="#E97246" transform="translate(23,142)"/>
<path d="M0 0 C3.3 0.99 6.6 1.98 10 3 C9.67 3.66 9.34 4.32 9 5 C8.01 4.67 7.02 4.34 6 4 C6 4.66 6 5.32 6 6 C5.34 6 4.68 6 4 6 C4 5.01 4 4.02 4 3 C2.68 2.34 1.36 1.68 0 1 C0 0.67 0 0.34 0 0 Z " fill="#AC2807" transform="translate(65,134)"/>
<path d="M0 0 C0.66 0.99 1.32 1.98 2 3 C-0.712 5.603 -1.891 5.995 -5.75 6.188 C-6.823 6.126 -7.895 6.064 -9 6 C-9 5.67 -9 5.34 -9 5 C-8.434 4.89 -7.868 4.781 -7.285 4.668 C-6.918 4.589 -6.918 4.589 -5.062 4.188 C-4.332 4.037 -3.601 3.886 -2.848 3.73 C-2.238 3.489 -1.628 3.248 -1 3 C-0.67 2.01 -0.34 1.02 0 0 Z " fill="#C86039" transform="translate(73,115)"/>
<path d="M0 0 C0.33 0.66 0.66 1.32 1 2 C-2.446 7.785 -2.446 7.785 -5.25 8.875 C-5.828 8.916 -6.405 8.957 -7 9 C-6.546 8.608 -6.093 8.216 -5.625 7.812 C-3.727 5.696 -3.036 3.625 -2 1 C-1.34 0.67 -0.68 0.34 0 0 Z " fill="#EE7E51" transform="translate(47,86)"/>
<path d="M0 0 C3.375 1.186 5.647 2.276 8 5 C7.67 5.66 7.34 6.32 7 7 C3.64 5.88 2.309 4.628 0 2 C0 1.34 0 0.68 0 0 Z " fill="#F76E42" transform="translate(140,82)"/>
<path d="M0 0 C0.99 0.99 1.98 1.98 3 3 C2.34 3.66 1.68 4.32 1 5 C0.175 4.67 0.175 4.67 -4 3 C-3 1 -3 1 0 0 Z " fill="#EAD6C4" transform="translate(22,180)"/>
<path d="M0 0 C1.746 2.619 2.387 4.038 3 7 C1.35 7.66 -0.3 8.32 -2 9 C-1.125 1.125 -1.125 1.125 0 0 Z " fill="#F5E7DB" transform="translate(19,174)"/>
<path d="M0 0 C0.66 0.165 0.66 0.165 4 1 C3.67 2.65 3.34 4.3 3 6 C2.34 6 1.68 6 1 6 C-0.062 4.125 -0.062 4.125 -1 2 C-0.67 1.34 -0.34 0.68 0 0 Z " fill="#A82B14" transform="translate(112,166)"/>
<path d="M0 0 C-0.33 1.32 -0.66 2.64 -1 4 C-3.929 3.372 -6.361 2.414 -9 1 C-2.25 -1.125 -2.25 -1.125 0 0 Z " fill="#CE5835" transform="translate(100,163)"/>
<path d="M0 0 C1.32 0.33 2.64 0.66 4 1 C3 3 3 3 0 5 C-3.188 4.625 -3.188 4.625 -6 4 C-2.25 2 -2.25 2 0 2 C0 1.34 0 0.68 0 0 Z " fill="#F19062" transform="translate(123,159)"/>
<path d="M0 0 C0.66 0.33 1.32 0.66 2 1 C2 2.32 2 3.64 2 5 C2.66 5.33 3.32 5.66 4 6 C1.36 5.67 -1.28 5.34 -4 5 C-3.01 4.34 -2.02 3.68 -1 3 C-0.67 2.01 -0.34 1.02 0 0 Z " fill="#9A1E04" transform="translate(112,152)"/>
<path d="M0 0 C-1.188 1.562 -1.188 1.562 -3 3 C-5.688 2.688 -5.688 2.688 -8 2 C-8 1.34 -8 0.68 -8 0 C-2.25 -1.125 -2.25 -1.125 0 0 Z " fill="#E14F21" transform="translate(142,146)"/>
<path d="M0 0 C1.485 0.33 1.485 0.33 9 2 C9 2.33 9 2.66 9 3 C6.03 3 3.06 3 0 3 C0 2.01 0 1.02 0 0 Z " fill="#EF6F43" transform="translate(26,143)"/>
<path d="M0 0 C0.66 0 1.32 0 2 0 C0.125 3.875 0.125 3.875 -1 5 C-2.666 5.041 -4.334 5.043 -6 5 C-5.196 4.361 -4.391 3.721 -3.562 3.062 C-1 1 -1 1 0 0 Z " fill="#F4E2DB" transform="translate(142,134)"/>
<path d="M0 0 C0.99 0 1.98 0 3 0 C1.75 3.653 1.329 4.781 -2 7 C-2.66 6.34 -3.32 5.68 -4 5 C-3.34 4.361 -2.68 3.721 -2 3.062 C0 1 0 1 0 0 Z " fill="#CC583A" transform="translate(145,127)"/>
<path d="M0 0 C1.32 0.33 2.64 0.66 4 1 C3.34 1.99 3.34 1.99 0 7 C-0.66 5.68 -1.32 4.36 -2 3 C-1.34 2.01 -0.68 1.02 0 0 Z " fill="#C53C20" transform="translate(44,101)"/>
<path d="M0 0 C2.64 0.66 5.28 1.32 8 2 C7.67 2.66 7.34 3.32 7 4 C4.69 4 2.38 4 0 4 C-0.33 3.34 -0.66 2.68 -1 2 C-0.67 1.34 -0.34 0.68 0 0 Z " fill="#EFE0CF" transform="translate(28,178)"/>
<path d="M0 0 C0.66 0 1.32 0 2 0 C2.81 2.915 3.218 4.461 2.062 7.312 C1.712 7.869 1.361 8.426 1 9 C-0.478 6.043 -0.06 3.258 0 0 Z " fill="#CE4E2D" transform="translate(19,167)"/>
<path d="M0 0 C1.65 0 3.3 0 5 0 C4.67 2.64 4.34 5.28 4 8 C2.667 5.333 1.333 2.667 0 0 Z " fill="#F8ECE4" transform="translate(127,161)"/>
<path d="M0 0 C0.33 0.99 0.66 1.98 1 3 C-0.938 6.188 -0.938 6.188 -3 9 C-3.66 8.01 -4.32 7.02 -5 6 C-4.546 5.567 -4.093 5.134 -3.625 4.688 C-2 3 -2 3 0 0 Z " fill="#F7834C" transform="translate(27,155)"/>
<path d="M0 0 C0.495 0.33 0.495 0.33 3 2 C3 2.66 3 3.32 3 4 C4.65 4 6.3 4 8 4 C8 4.33 8 4.66 8 5 C6.35 5 4.7 5 3 5 C2.67 5.99 2.34 6.98 2 8 C1.34 5.36 0.68 2.72 0 0 Z " fill="#BD4726" transform="translate(29,156)"/>
<path d="M0 0 C1.32 0.33 2.64 0.66 4 1 C1.69 2.65 -0.62 4.3 -3 6 C-3.66 5.67 -4.32 5.34 -5 5 C-2.75 2.438 -2.75 2.438 0 0 Z " fill="#FD8F5B" transform="translate(33,78)"/>
<path d="M0 0 C0.825 0.33 0.825 0.33 5 2 C5 3.32 5 4.64 5 6 C4.01 5.67 3.02 5.34 2 5 C2 4.01 2 3.02 2 2 C1.34 2 0.68 2 0 2 C0 1.34 0 0.68 0 0 Z " fill="#D44616" transform="translate(118,153)"/>
<path d="M0 0 C0.33 0.66 0.66 1.32 1 2 C1.99 2 2.98 2 4 2 C4 2.99 4 3.98 4 5 C2.35 5 0.7 5 -1 5 C-0.67 3.35 -0.34 1.7 0 0 Z " fill="#F5E1D8" transform="translate(36,88)"/>
</svg>
