<?xml version="1.0" encoding="UTF-8"?>
<!-- Generator: visioncortex VTracer 0.6.12 -->
<svg version="1.1" xmlns="http://www.w3.org/2000/svg" width="178" height="210">
<path d="M0 0 C58.74 0 117.48 0 178 0 C178 69.3 178 138.6 178 210 C119.26 210 60.52 210 0 210 C0 140.7 0 71.4 0 0 Z " fill="#FDF8F0" transform="translate(0,0)"/>
<path d="M0 0 C1.852 1.336 1.852 1.336 5.227 1.711 C10.002 2.534 11.483 3.89 14.852 7.336 C15.977 9.648 15.977 9.648 16.852 12.336 C19.218 18.304 22.371 22.19 27.145 26.477 C28.999 28.497 29.396 29.68 29.852 32.336 C30.182 32.996 30.512 33.656 30.852 34.336 C30.892 36.669 30.895 39.003 30.852 41.336 C30.192 41.336 29.532 41.336 28.852 41.336 C28.934 42.058 29.017 42.78 29.102 43.523 C28.766 47.296 27.383 48.538 24.852 51.336 C24.599 51.645 24.599 51.645 23.32 53.207 C20.239 56.96 20.239 56.96 18.852 58.336 C18.192 58.336 17.532 58.336 16.852 58.336 C16.707 59.305 16.563 60.275 16.414 61.273 C15.852 64.336 15.852 64.336 14.852 65.336 C11.244 65.837 10.067 65.489 7.039 63.336 C6.317 62.676 5.595 62.016 4.852 61.336 C5.37 65.171 6.108 66.702 8.852 69.336 C9.569 70.981 10.235 72.65 10.852 74.336 C14.357 82.097 19.774 88.618 26.852 93.336 C27.87 94.991 28.87 96.659 29.852 98.336 C30.314 98.773 30.777 99.21 31.254 99.66 C33.299 101.806 34.516 104.1 35.914 106.711 C36.421 107.647 36.927 108.583 37.449 109.547 C41.372 117.348 42.383 124.653 41.852 133.336 C41.522 133.996 41.192 134.656 40.852 135.336 C41.42 135.411 41.989 135.485 42.574 135.562 C48.842 136.63 52.429 138.814 56.852 143.336 C56.35 147.044 55.847 149.023 52.852 151.336 C50.371 151.848 50.371 151.848 47.664 152.023 C46.763 152.089 45.862 152.155 44.934 152.223 C44.59 152.241 44.59 152.241 42.852 152.336 C42.852 152.996 42.852 153.656 42.852 154.336 C42.069 154.613 41.287 154.89 40.48 155.176 C39.469 155.538 38.457 155.9 37.414 156.273 C36.909 156.453 36.909 156.453 34.355 157.363 C31.852 158.336 31.852 158.336 30.852 159.336 C28.55 159.625 26.241 159.852 23.93 160.055 C23.581 160.086 23.581 160.086 21.818 160.245 C19.579 160.446 17.34 160.642 15.102 160.836 C12.877 161.031 10.653 161.227 8.428 161.427 C6.399 161.609 4.37 161.786 2.341 161.963 C-0.554 162.272 -3.302 162.752 -6.148 163.336 C-8.848 163.456 -11.511 163.521 -14.211 163.523 C-14.899 163.536 -15.586 163.548 -16.295 163.561 C-20.58 163.572 -24.57 163.132 -28.785 162.352 C-37.055 160.875 -45.344 160.947 -53.723 160.857 C-60.509 160.711 -66.05 160.451 -72.148 157.336 C-74.509 153.795 -74.721 152.508 -74.148 148.336 C-71.208 143.967 -68.947 142.202 -64.148 140.336 C-63.211 138.461 -63.211 138.461 -63.148 136.336 C-63.471 135.756 -63.793 135.176 -64.125 134.578 C-65.429 131.722 -65.449 129.467 -65.461 126.336 C-65.478 125.305 -65.494 124.273 -65.512 123.211 C-65.101 119.961 -64.14 118.848 -62.148 116.336 C-61.716 113.562 -61.963 111.169 -62.148 108.336 C-62.313 108.171 -62.313 108.171 -63.148 107.336 C-63.189 105.003 -63.191 102.669 -63.148 100.336 C-63.808 100.336 -64.468 100.336 -65.148 100.336 C-65.148 91.557 -64.582 84.942 -60.398 77.023 C-59.148 74.336 -59.148 74.336 -59.336 72.086 C-60.148 70.336 -60.148 70.336 -62.148 68.336 C-62.788 68.253 -63.427 68.171 -64.086 68.086 C-66.148 67.336 -66.148 67.336 -67.898 64.398 C-69.148 61.336 -69.148 61.336 -69.148 59.336 C-69.808 59.336 -70.468 59.336 -71.148 59.336 C-71.375 59.975 -71.602 60.615 -71.836 61.273 C-73.148 63.336 -73.148 63.336 -75.648 64.211 C-76.473 64.252 -77.298 64.293 -78.148 64.336 C-80.148 62.336 -80.148 62.336 -80.586 58.898 C-81.16 55.265 -81.46 54.557 -84.148 52.336 C-84.148 51.676 -84.148 51.016 -84.148 50.336 C-84.788 50.13 -85.427 49.923 -86.086 49.711 C-88.148 48.336 -88.148 48.336 -88.898 45.211 C-88.981 44.262 -89.063 43.313 -89.148 42.336 C-89.808 42.336 -90.468 42.336 -91.148 42.336 C-91.563 31.964 -91.563 31.964 -89.148 27.336 C-87.225 25.442 -85.233 23.728 -83.121 22.047 C-80.426 19.71 -78.568 17.416 -77.273 14.086 C-76.259 11.607 -75.137 9.447 -73.773 7.148 C-73.374 6.474 -72.974 5.8 -72.562 5.105 C-70.072 1.989 -67.494 1.404 -63.648 0.648 C-59.795 -0.235 -57.026 -1.906 -53.711 -4.039 C-48.715 -7.073 -44.033 -8.82 -38.398 -10.164 C-37.702 -10.336 -37.005 -10.508 -36.287 -10.685 C-23.883 -13.38 -9.806 -7.595 0 0 Z " fill="#F5BF72" transform="translate(108.1484375,36.6640625)"/>
<path d="M0 0 C1.852 1.336 1.852 1.336 5.227 1.711 C10.002 2.534 11.483 3.89 14.852 7.336 C15.977 9.648 15.977 9.648 16.852 12.336 C19.218 18.304 22.371 22.19 27.145 26.477 C28.999 28.497 29.396 29.68 29.852 32.336 C30.182 32.996 30.512 33.656 30.852 34.336 C30.892 36.669 30.895 39.003 30.852 41.336 C30.192 41.336 29.532 41.336 28.852 41.336 C28.934 42.058 29.017 42.78 29.102 43.523 C28.766 47.296 27.383 48.538 24.852 51.336 C24.599 51.645 24.599 51.645 23.32 53.207 C20.239 56.96 20.239 56.96 18.852 58.336 C18.192 58.336 17.532 58.336 16.852 58.336 C16.707 59.305 16.563 60.275 16.414 61.273 C15.852 64.336 15.852 64.336 14.852 65.336 C13.185 65.377 11.518 65.379 9.852 65.336 C9.563 64.738 9.274 64.14 8.977 63.523 C7.852 61.336 7.852 61.336 5.852 58.336 C5.68 55.506 5.619 52.777 5.656 49.949 C5.659 49.132 5.662 48.315 5.665 47.473 C5.676 44.865 5.701 42.257 5.727 39.648 C5.737 37.88 5.746 36.111 5.754 34.342 C5.776 30.006 5.81 25.671 5.852 21.336 C5.192 21.336 4.532 21.336 3.852 21.336 C3.791 21.977 3.73 22.617 3.668 23.277 C3.179 28.32 2.614 33.327 1.852 38.336 C-1.448 38.996 -4.748 39.656 -8.148 40.336 C-8.089 39.962 -8.089 39.962 -7.789 38.07 C-6.735 30.019 -6.735 30.019 -8.773 26.648 C-11.589 25.092 -12.988 24.688 -16.148 25.336 C-18.291 27.109 -19.009 28.506 -19.469 31.242 C-19.67 34.844 -19.551 36.755 -17.461 39.773 C-14.962 41.462 -13.126 42.005 -10.148 42.336 C-11.468 42.666 -12.788 42.996 -14.148 43.336 C-12.828 44.656 -11.508 45.976 -10.148 47.336 C-10.478 48.326 -10.808 49.316 -11.148 50.336 C-12.138 50.336 -13.128 50.336 -14.148 50.336 C-13.922 51.037 -13.695 51.738 -13.461 52.461 C-13.04 56.337 -14.037 58.098 -16.148 61.336 C-19.967 64.807 -23.824 64.689 -28.746 64.734 C-31.646 64.253 -33.043 63.364 -35.148 61.336 C-35.398 58.648 -35.398 58.648 -35.148 56.336 C-34.2 55.903 -33.251 55.47 -32.273 55.023 C-29.148 53.336 -29.148 53.336 -27.148 50.336 C-26.836 47.273 -26.836 47.273 -27.148 44.336 C-30.595 42.038 -32.082 42.038 -36.148 42.023 C-37.2 42.007 -38.252 41.99 -39.336 41.973 C-42.148 42.336 -42.148 42.336 -43.98 43.688 C-45.497 45.828 -45.801 47.762 -46.148 50.336 C-46.808 49.676 -47.468 49.016 -48.148 48.336 C-48.023 45.836 -48.023 45.836 -47.148 43.336 C-45.086 42.023 -45.086 42.023 -43.148 41.336 C-43.148 40.676 -43.148 40.016 -43.148 39.336 C-45.788 41.316 -48.428 43.296 -51.148 45.336 C-50.839 44.573 -50.53 43.81 -50.211 43.023 C-48.717 39.245 -47.991 36.323 -47.961 32.273 C-47.947 31.396 -47.933 30.518 -47.918 29.613 C-48.148 27.336 -48.148 27.336 -50.148 25.336 C-53.086 24.961 -53.086 24.961 -56.148 25.336 C-58.086 26.898 -58.086 26.898 -59.148 29.336 C-59.148 35.494 -56.838 38.7 -53.148 43.336 C-56.898 47.211 -56.898 47.211 -59.148 48.336 C-57.498 48.996 -55.848 49.656 -54.148 50.336 C-54.148 51.986 -54.148 53.636 -54.148 55.336 C-54.478 54.016 -54.808 52.696 -55.148 51.336 C-55.808 51.336 -56.468 51.336 -57.148 51.336 C-53.479 62.079 -53.479 62.079 -48.148 65.336 C-48.313 65.831 -48.313 65.831 -49.148 68.336 C-54.898 66.586 -54.898 66.586 -57.148 64.336 C-58.805 63.957 -60.475 63.633 -62.148 63.336 C-64.486 62.684 -66.82 62.021 -69.148 61.336 C-69.148 60.676 -69.148 60.016 -69.148 59.336 C-69.808 59.336 -70.468 59.336 -71.148 59.336 C-71.375 59.975 -71.602 60.615 -71.836 61.273 C-73.148 63.336 -73.148 63.336 -75.648 64.211 C-76.473 64.252 -77.298 64.293 -78.148 64.336 C-80.148 62.336 -80.148 62.336 -80.586 58.898 C-81.16 55.265 -81.46 54.557 -84.148 52.336 C-84.148 51.676 -84.148 51.016 -84.148 50.336 C-84.788 50.13 -85.427 49.923 -86.086 49.711 C-88.148 48.336 -88.148 48.336 -88.898 45.211 C-88.981 44.262 -89.063 43.313 -89.148 42.336 C-89.808 42.336 -90.468 42.336 -91.148 42.336 C-91.563 31.964 -91.563 31.964 -89.148 27.336 C-87.225 25.442 -85.233 23.728 -83.121 22.047 C-80.426 19.71 -78.568 17.416 -77.273 14.086 C-76.259 11.607 -75.137 9.447 -73.773 7.148 C-73.374 6.474 -72.974 5.8 -72.562 5.105 C-70.072 1.989 -67.494 1.404 -63.648 0.648 C-59.795 -0.235 -57.026 -1.906 -53.711 -4.039 C-48.715 -7.073 -44.033 -8.82 -38.398 -10.164 C-37.702 -10.336 -37.005 -10.508 -36.287 -10.685 C-23.883 -13.38 -9.806 -7.595 0 0 Z " fill="#FACB83" transform="translate(108.1484375,36.6640625)"/>
<path d="M0 0 C0.165 0.33 0.165 0.33 1 2 C1.66 2 2.32 2 3 2 C3.009 3.089 3.019 4.179 3.028 5.301 C3.068 9.361 3.134 13.42 3.208 17.479 C3.236 19.232 3.257 20.986 3.271 22.739 C3.293 25.267 3.339 27.793 3.391 30.32 C3.392 31.099 3.393 31.877 3.394 32.679 C3.536 38.006 4.668 40.826 8 45 C6 44 4 43 2 42 C2.518 45.836 3.256 47.366 6 50 C7.396 52.94 8 54.722 8 58 C6.68 57.01 5.36 56.02 4 55 C3.67 55.99 3.34 56.98 3 58 C0.36 58.33 -2.28 58.66 -5 59 C-5.33 59.99 -5.66 60.98 -6 62 C-8.821 63.713 -11.931 64.801 -15 66 C-15.718 66.304 -16.436 66.608 -17.176 66.922 C-23.438 69.349 -29.348 69.304 -36 69 C-36 69.66 -36 70.32 -36 71 C-36.66 71.165 -36.66 71.165 -40 72 C-40.165 71.67 -40.165 71.67 -41 70 C-42.558 69.313 -44.147 68.699 -45.75 68.125 C-49.751 66.574 -53.008 65.185 -56 62 C-56.812 59.25 -56.812 59.25 -57 57 C-57.66 57 -58.32 57 -59 57 C-59 56.34 -59 55.68 -59 55 C-59.66 55 -60.32 55 -61 55 C-61.433 54.216 -61.866 53.433 -62.312 52.625 C-64 50 -64 50 -66.562 49.125 C-67.367 48.754 -68.171 48.382 -69 48 C-70.312 44.375 -70.312 44.375 -71 41 C-70.469 41.205 -69.938 41.41 -69.391 41.621 C-68.684 41.891 -67.978 42.16 -67.25 42.438 C-66.554 42.704 -65.858 42.971 -65.141 43.246 C-63 44 -63 44 -60.898 44.5 C-58.301 45.184 -56.287 46.616 -54 48 C-53.34 48 -52.68 48 -52 48 C-53 45 -53 45 -55.438 42.812 C-58.719 39.211 -59.118 36.731 -60 32 C-59.01 31.67 -58.02 31.34 -57 31 C-58.98 30.67 -60.96 30.34 -63 30 C-61 28 -59 26 -57 24 C-57.445 23.432 -57.889 22.863 -58.348 22.277 C-62.985 15.95 -62.985 15.95 -63.062 11.125 C-61.473 6.45 -61.473 6.45 -59 5 C-53.87 4.359 -53.87 4.359 -51.336 6.227 C-48.761 9.645 -49.52 13.925 -50 18 C-50.783 20.547 -51.76 22.624 -53 25 C-52.216 24.175 -51.433 23.35 -50.625 22.5 C-48 20 -48 20 -46 20 C-46 20.66 -46 21.32 -46 22 C-46.66 22.639 -47.32 23.279 -48 23.938 C-50 26 -50 26 -50 29 C-49.546 28.216 -49.093 27.433 -48.625 26.625 C-47 24 -47 24 -45 22 C-42.32 21.699 -42.32 21.699 -39.125 21.688 C-38.6 21.679 -38.6 21.679 -35.945 21.637 C-32.672 22.04 -31.309 22.68 -29 25 C-28.438 27.875 -28.438 27.875 -29 31 C-31.246 33.807 -32.895 35.612 -36.312 36.812 C-36.869 36.874 -37.426 36.936 -38 37 C-37.688 39.375 -37.688 39.375 -37 42 C-32.105 45.264 -26.657 44.443 -21 43.5 C-18.218 41.414 -17.939 39.296 -17.262 35.973 C-17 34 -17 34 -17 31 C-16.01 30.67 -15.02 30.34 -14 30 C-14 29.34 -14 28.68 -14 28 C-14.99 27.34 -15.98 26.68 -17 26 C-17.165 25.505 -17.165 25.505 -18 23 C-18.423 22.639 -18.423 22.639 -20.562 20.812 C-23.015 17.983 -23.405 17.488 -23.562 14 C-23.349 11.043 -22.835 9.676 -21.438 6.938 C-19 5 -19 5 -15.438 4.938 C-12 6 -12 6 -10 7.5 C-8.454 11.365 -9.163 14.987 -10 19 C-10.33 19.66 -10.66 20.32 -11 21 C-7.7 20.34 -4.4 19.68 -1 19 C-1.012 18.131 -1.023 17.262 -1.035 16.367 C-1.044 15.215 -1.053 14.062 -1.062 12.875 C-1.074 11.738 -1.086 10.601 -1.098 9.43 C-1.005 6.187 -0.614 3.181 0 0 Z " fill="#D99647" transform="translate(111,56)"/>
<path d="M0 0 C1.32 0.66 2.64 1.32 4 2 C3.67 3.32 3.34 4.64 3 6 C3.66 6.33 4.32 6.66 5 7 C4.67 7.99 4.34 8.98 4 10 C3.933 11.394 3.915 12.792 3.938 14.188 C3.958 15.446 3.979 16.704 4 18 C4.99 17.175 4.99 17.175 10 13 C10 14.32 10 15.64 10 17 C10.99 16.67 11.98 16.34 13 16 C13 17.32 13 18.64 13 20 C13.66 20 14.32 20 15 20 C15.055 20.319 15.055 20.319 15.332 21.934 C15.491 22.76 15.649 23.586 15.812 24.438 C15.963 25.261 16.114 26.085 16.27 26.934 C16.511 27.616 16.752 28.297 17 29 C17.99 29.33 18.98 29.66 20 30 C21.006 31.328 22.007 32.662 23 34 C23.66 34 24.32 34 25 34 C25.33 32.35 25.66 30.7 26 29 C26.66 29 27.32 29 28 29 C28.66 32.63 29.32 36.26 30 40 C30.66 39.835 30.66 39.835 34 39 C34.99 39 35.98 39 37 39 C39.296 36.704 39.323 35.992 39.625 32.875 C39.687 32.236 39.687 32.236 40 29 C44.596 35.894 43.173 43.467 41.688 51.188 C41.57 51.873 41.452 52.558 41.33 53.264 C40.558 57.377 39.536 60.642 37 64 C36.34 64 35.68 64 35 64 C34.805 65.457 34.619 66.916 34.438 68.375 C34.333 69.187 34.229 69.999 34.121 70.836 C34 73 34 73 35 75 C35.99 75.33 36.98 75.66 38 76 C38 74.02 38 72.04 38 70 C40 73 40 73 41 76 C43.31 76.33 45.62 76.66 48 77 C47.979 75.886 47.959 74.772 47.938 73.625 C48 70 48 70 49 68 C49.33 68.165 49.33 68.165 51 69 C50.835 69.66 50.835 69.66 50 73 C52.875 72.812 52.875 72.812 56 72 C58.259 68.342 58.504 64.219 59 60 C59.99 59.67 60.98 59.34 62 59 C62.844 56.969 62.844 56.969 63.5 54.5 C64.156 52.031 64.156 52.031 65 50 C65.99 49.67 66.98 49.34 68 49 C68 48.01 68 47.02 68 46 C68.66 46 69.32 46 70 46 C70 43.69 70 41.38 70 39 C70.33 39.66 70.66 40.32 71 41 C71.66 41 72.32 41 73 41 C72.67 40.01 72.34 39.02 72 38 C71.96 35.667 71.956 33.333 72 31 C72.33 30.835 72.33 30.835 74 30 C74.165 30.495 74.165 30.495 75 33 C76.98 30.69 78.96 28.38 81 26 C81.66 26.33 82.32 26.66 83 27 C81.796 28.335 80.591 29.669 79.387 31.004 C75.368 36.789 74.519 42.068 74.312 48.938 C74.278 49.717 74.244 50.496 74.209 51.299 C74.127 53.199 74.062 55.099 74 57 C75.98 57.33 77.96 57.66 80 58 C80 58.33 80 58.66 80 59 C79.325 59.026 78.649 59.052 77.953 59.078 C70.69 59.54 70.69 59.54 67.375 61.75 C65.758 64.396 65.661 65.952 66 69 C66.66 69 67.32 69 68 69 C68.66 67.02 69.32 65.04 70 63 C70.66 63.33 71.32 63.66 72 64 C71.34 67.3 70.68 70.6 70 74 C68.948 73.897 67.896 73.794 66.812 73.688 C63 74 63 74 60.766 76.492 C57.206 79.72 54.499 79.647 49.938 79.438 C49.25 79.432 48.562 79.426 47.854 79.42 C43.595 79.323 39.55 78.773 35.363 78 C27.093 76.542 18.802 76.611 10.426 76.521 C3.639 76.376 -1.902 76.115 -8 73 C-10.361 69.459 -10.573 68.172 -10 64 C-7.059 59.631 -4.799 57.866 0 56 C0.938 54.125 0.938 54.125 1 52 C0.678 51.42 0.355 50.84 0.023 50.242 C-1.28 47.386 -1.301 45.131 -1.312 42 C-1.329 40.969 -1.346 39.938 -1.363 38.875 C-0.953 35.625 0.008 34.512 2 32 C2.432 29.226 2.186 26.833 2 24 C1.67 23.67 1.34 23.34 1 23 C0.959 20.667 0.958 18.333 1 16 C0.34 16 -0.32 16 -1 16 C-1 4.625 -1 4.625 0 0 Z " fill="#F7C277" transform="translate(44,121)"/>
<path d="M0 0 C0.33 0.165 0.33 0.165 2 1 C0.796 2.335 -0.409 3.669 -1.613 5.004 C-5.632 10.789 -6.481 16.068 -6.688 22.938 C-6.722 23.717 -6.756 24.496 -6.791 25.299 C-6.873 27.199 -6.938 29.099 -7 31 C-5.02 31.33 -3.04 31.66 -1 32 C-1 32.33 -1 32.66 -1 33 C-1.675 33.026 -2.351 33.052 -3.047 33.078 C-10.31 33.54 -10.31 33.54 -13.625 35.75 C-15.242 38.396 -15.339 39.952 -15 43 C-14.34 43 -13.68 43 -13 43 C-12.67 42.01 -12.67 42.01 -11 37 C-10.34 37.33 -9.68 37.66 -9 38 C-9.33 39.65 -9.33 39.65 -11 48 C-11.526 47.948 -11.526 47.948 -14.188 47.688 C-18 48 -18 48 -20.234 50.492 C-23.794 53.72 -26.501 53.647 -31.062 53.438 C-31.75 53.432 -32.438 53.426 -33.146 53.42 C-37.393 53.323 -41.43 52.779 -45.605 52.012 C-52.802 50.745 -59.957 50.551 -67.25 50.375 C-68.592 50.337 -69.935 50.298 -71.277 50.258 C-74.518 50.165 -77.759 50.079 -81 50 C-81.33 49.34 -81.66 48.68 -82 48 C-80.68 48 -79.36 48 -78 48 C-78 45.36 -78 42.72 -78 40 C-77.67 39.835 -77.67 39.835 -76 39 C-76 41.97 -76 44.94 -76 48 C-74.081 47.771 -72.165 47.516 -70.25 47.25 C-69.183 47.111 -68.115 46.972 -67.016 46.828 C-63.523 45.869 -62.172 44.869 -60 42 C-59.391 39.859 -59.391 39.859 -59.25 37.75 C-59.168 36.512 -59.085 35.275 -59 34 C-58.34 34 -57.68 34 -57 34 C-58.29 24.221 -61.53 15.754 -66 7 C-64.68 6.67 -63.36 6.34 -62 6 C-61.505 6.846 -61.01 7.691 -60.5 8.562 C-57.717 12.787 -53.881 15.816 -50 19 C-50 18.34 -50 17.68 -50 17 C-48.68 17 -47.36 17 -46 17 C-44.02 16.67 -42.04 16.34 -40 16 C-40.33 11.71 -40.66 7.42 -41 3 C-36.404 9.894 -37.827 17.467 -39.312 25.188 C-39.43 25.873 -39.548 26.558 -39.67 27.264 C-40.442 31.377 -41.464 34.642 -44 38 C-44.66 38 -45.32 38 -46 38 C-46.195 39.457 -46.381 40.916 -46.562 42.375 C-46.667 43.187 -46.771 43.999 -46.879 44.836 C-47 47 -47 47 -46 49 C-45.01 49.33 -44.02 49.66 -43 50 C-43 48.02 -43 46.04 -43 44 C-41 47 -41 47 -40 50 C-37.69 50.33 -35.38 50.66 -33 51 C-33.021 49.886 -33.041 48.773 -33.062 47.625 C-33 44 -33 44 -32 42 C-31.67 42.165 -31.67 42.165 -30 43 C-30.33 44.32 -30.66 45.64 -31 47 C-28.125 46.812 -28.125 46.812 -25 46 C-22.741 42.342 -22.496 38.219 -22 34 C-21.01 33.67 -20.02 33.34 -19 33 C-18.156 30.969 -18.156 30.969 -17.5 28.5 C-16.844 26.031 -16.844 26.031 -16 24 C-15.01 23.67 -14.02 23.34 -13 23 C-13 22.01 -13 21.02 -13 20 C-12.34 20 -11.68 20 -11 20 C-11 17.69 -11 15.38 -11 13 C-10.835 13.33 -10.835 13.33 -10 15 C-9.34 15 -8.68 15 -8 15 C-8.165 14.505 -8.165 14.505 -9 12 C-9.04 9.667 -9.044 7.333 -9 5 C-8.34 4.67 -7.68 4.34 -7 4 C-6.835 4.495 -6.835 4.495 -6 7 C-4.02 4.69 -2.04 2.38 0 0 Z " fill="#AF6F27" transform="translate(125,147)"/>
<path d="M0 0 C0.746 1.672 0.746 1.672 1 4 C-0.652 6.578 -0.652 6.578 -2.938 9.25 C-3.689 10.142 -4.441 11.034 -5.215 11.953 C-5.804 12.629 -6.393 13.304 -7 14 C-5.68 13.34 -4.36 12.68 -3 12 C-0.257 16.412 1.266 19.287 0.562 24.5 C0.225 27.06 0 29.409 0 32 C1.638 28.725 2.168 25.851 2.438 22.25 C2.977 16.017 4.054 10.28 8.188 5.438 C8.786 4.963 9.384 4.489 10 4 C9.931 4.328 9.931 4.328 9.584 5.987 C8.203 12.994 7.599 19.807 7.375 26.938 C7.336 27.951 7.298 28.965 7.258 30.01 C7.11 34.011 7 37.996 7 42 C12.537 41.245 12.537 41.245 15.125 39.875 C17.484 38.774 18.6 39.143 21 40 C21 41.65 21 43.3 21 45 C20.835 44.34 20.835 44.34 20 41 C19.34 41 18.68 41 18 41 C21.67 51.743 21.67 51.743 27 55 C26.67 55.99 26.34 56.98 26 58 C20.25 56.25 20.25 56.25 18 54 C16.343 53.621 14.673 53.297 13 53 C10.662 52.349 8.328 51.685 6 51 C6 50.34 6 49.68 6 49 C5.34 49 4.68 49 4 49 C3.773 49.639 3.546 50.279 3.312 50.938 C2 53 2 53 -0.5 53.875 C-1.325 53.916 -2.15 53.958 -3 54 C-5 52 -5 52 -5.438 48.562 C-6.011 44.929 -6.312 44.221 -9 42 C-9 41.34 -9 40.68 -9 40 C-9.639 39.794 -10.279 39.588 -10.938 39.375 C-13 38 -13 38 -13.75 34.875 C-13.832 33.926 -13.915 32.977 -14 32 C-14.66 32 -15.32 32 -16 32 C-16.415 21.628 -16.415 21.628 -14 17 C-12.077 15.106 -10.084 13.392 -7.973 11.711 C-4.381 8.596 -2.665 5.401 -1 1 C-0.67 0.67 -0.34 0.34 0 0 Z " fill="#F0AA4F" transform="translate(33,47)"/>
<path d="M0 0 C0.99 0.33 1.98 0.66 3 1 C3.938 3.062 3.938 3.062 5 6 C7.383 11.965 10.513 15.848 15.293 20.141 C17.148 22.161 17.545 23.344 18 26 C18.33 26.66 18.66 27.32 19 28 C19.04 30.333 19.043 32.667 19 35 C18.34 35 17.68 35 17 35 C17.083 35.722 17.165 36.444 17.25 37.188 C16.915 40.96 15.531 42.202 13 45 C12.495 45.617 11.989 46.235 11.469 46.871 C8.388 50.624 8.388 50.624 7 52 C6.34 52 5.68 52 5 52 C4.856 52.969 4.711 53.939 4.562 54.938 C4 58 4 58 3 59 C1.334 59.041 -0.334 59.043 -2 59 C-2.289 58.402 -2.578 57.804 -2.875 57.188 C-4 55 -4 55 -6 52 C-6.195 49.52 -6.195 49.52 -6.125 46.812 C-6.107 45.911 -6.089 45.01 -6.07 44.082 C-6.047 43.395 -6.024 42.708 -6 42 C-5.67 42 -5.34 42 -5 42 C-4.67 43.65 -4.34 45.3 -4 47 C-3.01 47 -2.02 47 -1 47 C-1.01 45.981 -1.021 44.961 -1.032 43.911 C-1.068 40.135 -1.091 36.359 -1.11 32.583 C-1.12 30.948 -1.134 29.313 -1.151 27.677 C-1.175 25.329 -1.186 22.981 -1.195 20.633 C-1.206 19.899 -1.216 19.166 -1.227 18.41 C-1.227 16.605 -1.122 14.801 -1 13 C-0.34 12.34 0.32 11.68 1 11 C0.625 8.5 0.625 8.5 0 6 C0 5.34 0 4.68 0 4 C-0.66 3.01 -1.32 2.02 -2 1 C-1.34 0.67 -0.68 0.34 0 0 Z " fill="#EBA348" transform="translate(120,43)"/>
<path d="M0 0 C0.33 0 0.66 0 1 0 C1.1 4.144 1.172 8.288 1.22 12.433 C1.24 13.84 1.267 15.247 1.302 16.655 C1.541 26.559 1.148 32.359 -5.625 39.938 C-8 42 -8 42 -10 42 C-10.082 42.578 -10.165 43.155 -10.25 43.75 C-11.238 46.714 -12.538 48.101 -15 50 C-17.125 50.125 -17.125 50.125 -19 49 C-20.562 46.438 -20.562 46.438 -21 43 C-19.973 40.781 -18.724 38.9 -17.316 36.902 C-15.805 34.719 -14.861 32.506 -14 30 C-14.66 29.67 -15.32 29.34 -16 29 C-16.33 29.66 -16.66 30.32 -17 31 C-17 30.01 -17 29.02 -17 28 C-16.01 27.67 -15.02 27.34 -14 27 C-14 26.34 -14 25.68 -14 25 C-14.99 24.34 -15.98 23.68 -17 23 C-17.33 22.01 -17.66 21.02 -18 20 C-18.423 19.639 -18.423 19.639 -20.562 17.812 C-23.015 14.983 -23.405 14.488 -23.562 11 C-23.349 8.043 -22.835 6.676 -21.438 3.938 C-19 2 -19 2 -15.438 1.938 C-12 3 -12 3 -10 4.5 C-8.454 8.365 -9.163 11.987 -10 16 C-10.33 16.66 -10.66 17.32 -11 18 C-7.7 17.34 -4.4 16.68 -1 16 C-1.012 15.096 -1.023 14.193 -1.035 13.262 C-1.044 12.082 -1.053 10.903 -1.062 9.688 C-1.074 8.516 -1.086 7.344 -1.098 6.137 C-1 3 -1 3 0 0 Z " fill="#F3BA6C" transform="translate(111,59)"/>
<path d="M0 0 C2.495 2.495 2.359 3.673 2.625 7.125 C2.7 8.035 2.775 8.945 2.852 9.883 C2.901 10.581 2.95 11.28 3 12 C3.641 12.075 4.281 12.15 4.941 12.227 C11.569 13.234 15.387 15.142 20 20 C19.499 23.709 18.996 25.688 16 28 C13.52 28.512 13.52 28.512 10.812 28.688 C9.911 28.753 9.01 28.819 8.082 28.887 C7.395 28.924 6.708 28.961 6 29 C6 29.66 6 30.32 6 31 C5.218 31.277 4.435 31.554 3.629 31.84 C3.123 32.021 3.123 32.021 0.562 32.938 C0.058 33.117 0.058 33.117 -2.496 34.027 C-5 35 -5 35 -6 36 C-8.661 36.303 -11.304 36.548 -13.973 36.754 C-14.77 36.819 -15.568 36.884 -16.39 36.951 C-18.947 37.159 -21.505 37.361 -24.062 37.562 C-25.792 37.702 -27.522 37.842 -29.252 37.982 C-33.501 38.326 -37.75 38.665 -42 39 C-40.234 36.488 -40.234 36.488 -38 34 C-34.25 34.188 -34.25 34.188 -31 35 C-31.021 34.361 -31.021 34.361 -31.125 31.125 C-31.195 28.945 -31.195 28.945 -31 27 C-30.34 26.34 -29.68 25.68 -29 25 C-27.68 25 -26.36 25 -25 25 C-25 25.66 -25 26.32 -25 27 C-24.01 26.67 -23.02 26.34 -22 26 C-22.33 27.98 -22.66 29.96 -23 32 C-22.154 31.649 -21.309 31.299 -20.438 30.938 C-16.502 29.864 -13.98 30.276 -10 31 C-8.334 31.035 -6.666 31.05 -5 31 C-4.269 28.157 -3.941 26.274 -4.562 23.375 C-5 21 -5 21 -3 18 C-2.34 18 -1.68 18 -1 18 C-1.012 16.868 -1.023 15.736 -1.035 14.57 C-1.045 13.089 -1.054 11.607 -1.062 10.125 C-1.071 9.379 -1.079 8.632 -1.088 7.863 C-1.113 2.227 -1.113 2.227 0 0 Z " fill="#EAB061" transform="translate(145,160)"/>
<path d="M0 0 C0.99 0 1.98 0 3 0 C3 0.66 3 1.32 3 2 C3.66 2 4.32 2 5 2 C5.165 2.722 5.33 3.444 5.5 4.188 C8.691 10.17 15.94 12.601 22 15 C22 15.66 22 16.32 22 17 C23.32 16.67 24.64 16.34 26 16 C26 15.34 26 14.68 26 14 C26.86 13.997 27.72 13.995 28.605 13.992 C38.103 13.681 44.551 11.393 53 7 C53.99 6.67 54.98 6.34 56 6 C56.33 5.34 56.66 4.68 57 4 C62.222 2 62.222 2 65 2 C65.33 1.34 65.66 0.68 66 0 C67.98 0.66 69.96 1.32 72 2 C72.165 3.65 72.165 3.65 73 12 C70.778 9.778 70.074 7.915 69 5 C63.906 5.925 60.069 6.658 56 10 C53.25 10.688 53.25 10.688 51 11 C51 11.66 51 12.32 51 13 C47.72 14.415 44.451 15.823 41.125 17.125 C39 18 39 18 38 19 C35.667 19.041 33.333 19.042 31 19 C31.083 20.238 31.165 21.475 31.25 22.75 C31.229 25.763 31.094 26.843 29.5 29.5 C26.477 31.314 24.393 31.703 20.898 31.508 C19 31 19 31 16.625 28.5 C14.829 24.631 13.862 21.168 13 17 C12.01 17 11.02 17 10 17 C9.67 17.66 9.34 18.32 9 19 C8.01 19 7.02 19 6 19 C5.67 17.68 5.34 16.36 5 15 C4.34 15 3.68 15 3 15 C3 14.01 3 13.02 3 12 C2.34 12 1.68 12 1 12 C0.876 11.361 0.752 10.721 0.625 10.062 C0.419 9.382 0.212 8.701 0 8 C-0.66 7.67 -1.32 7.34 -2 7 C-2.33 7.66 -2.66 8.32 -3 9 C-2.443 5.656 -1.648 2.967 0 0 Z " fill="#C88028" transform="translate(49,111)"/>
<path d="M0 0 C0 2.64 0 5.28 0 8 C-0.784 8.268 -1.567 8.536 -2.375 8.812 C-5 10 -5 10 -7 13 C-7.67 20.033 -7.67 20.033 -5.312 23.438 C-2.814 25.126 -0.978 25.669 2 26 C0.68 26.33 -0.64 26.66 -2 27 C-0.68 28.32 0.64 29.64 2 31 C1.67 31.99 1.34 32.98 1 34 C0.01 34 -0.98 34 -2 34 C-1.887 34.351 -1.887 34.351 -1.312 36.125 C-0.891 40.002 -1.889 41.762 -4 45 C-7.818 48.471 -11.676 48.353 -16.598 48.398 C-19.497 47.918 -20.894 47.029 -23 45 C-23.25 42.312 -23.25 42.312 -23 40 C-22.051 39.567 -21.103 39.134 -20.125 38.688 C-17 37 -17 37 -15 34 C-14.447 28.691 -14.447 28.691 -16.5 26.125 C-16.995 25.754 -17.49 25.382 -18 25 C-16.68 24.67 -15.36 24.34 -14 24 C-14.33 23.01 -14.66 22.02 -15 21 C-13.35 21.33 -11.7 21.66 -10 22 C-10.017 21.566 -10.017 21.566 -10.105 19.367 C-10.279 11.988 -10.162 7.125 -5.562 1.125 C-4 0 -4 0 0 0 Z " fill="#F7C67D" transform="translate(96,53)"/>
<path d="M0 0 C2.204 1.624 2.914 2.517 3.398 5.234 C3.345 10.934 2.643 14.933 0 20 C0.784 19.175 1.568 18.35 2.375 17.5 C5 15 5 15 7 15 C7 15.66 7 16.32 7 17 C6.319 17.619 5.639 18.237 4.938 18.875 C3 21 3 21 2.938 22.938 C5.136 27.206 8.576 30.198 13 32 C13.125 34.375 13.125 34.375 13 37 C10.53 39.47 9.604 39.35 6.188 39.438 C2.411 39.345 1.158 39.101 -2.125 37 C-4.642 32.973 -4.397 30.679 -4 26 C-5.98 25.67 -7.96 25.34 -10 25 C-8 23 -6 21 -4 19 C-4.445 18.432 -4.889 17.863 -5.348 17.277 C-9.985 10.95 -9.985 10.95 -10.062 6.125 C-8.116 0.399 -6.106 -0.763 0 0 Z " fill="#F7C782" transform="translate(58,61)"/>
<path d="M0 0 C1.04 -0.008 2.081 -0.015 3.152 -0.023 C6.385 0.419 7.771 1.084 10.062 3.375 C10.625 6.25 10.625 6.25 10.062 9.375 C7.817 12.182 6.168 13.987 2.75 15.188 C2.193 15.249 1.636 15.311 1.062 15.375 C1.375 17.75 1.375 17.75 2.062 20.375 C6.966 23.644 12.315 22.726 18 22 C21.58 19.179 22.085 14.681 23.062 10.375 C24.053 10.705 25.042 11.035 26.062 11.375 C23.266 17.86 21.223 21.625 15.062 25.375 C13.188 28.625 13.188 28.625 12.062 31.375 C11.403 31.375 10.743 31.375 10.062 31.375 C10.062 30.055 10.062 28.735 10.062 27.375 C9.736 27.417 9.736 27.417 8.086 27.629 C3.18 28.201 -1.069 28.528 -5.938 27.375 C-6.597 28.695 -7.257 30.015 -7.938 31.375 C-10.938 25.625 -10.938 25.625 -10.938 23.375 C-9.659 23.169 -8.38 22.963 -7.062 22.75 C-4.852 22.219 -4.852 22.219 -2.938 21.375 C-1.438 18.25 -1.438 18.25 -0.938 15.375 C-1.494 15.334 -2.051 15.293 -2.625 15.25 C-6.264 13.873 -7.804 11.545 -9.938 8.375 C-9.938 5.443 -9.467 4.095 -7.746 1.754 C-5.161 -0.217 -3.215 -0.024 0 0 Z " fill="#30210F" transform="translate(71.9375,77.625)"/>
<path d="M0 0 C0.66 0 1.32 0 2 0 C2 0.66 2 1.32 2 2 C2.99 2 3.98 2 5 2 C5.11 2.638 5.219 3.276 5.332 3.934 C5.491 4.76 5.649 5.586 5.812 6.438 C5.963 7.261 6.114 8.085 6.27 8.934 C6.511 9.616 6.752 10.297 7 11 C7.99 11.33 8.98 11.66 10 12 C11.006 13.328 12.007 14.662 13 16 C13.66 16 14.32 16 15 16 C15.33 14.35 15.66 12.7 16 11 C16.66 11 17.32 11 18 11 C18.66 14.63 19.32 18.26 20 22 C21.32 21.67 22.64 21.34 24 21 C24.99 21 25.98 21 27 21 C29.188 18.5 29.188 18.5 31 16 C31 18.64 31 21.28 31 24 C27.687 25.625 27.687 25.625 24 27 C23.01 26.34 22.02 25.68 21 25 C21 25.66 21 26.32 21 27 C17.9 25.618 15.717 24.014 13.312 21.625 C12.711 21.04 12.109 20.455 11.488 19.852 C9.899 17.874 9.409 16.479 9 14 C8.34 14 7.68 14 7 14 C6.67 14.99 6.34 15.98 6 17 C6.927 18.34 7.859 19.676 8.809 21 C12.561 27.299 14.664 34.695 14 42 C13.34 42 12.68 42 12 42 C12.103 43.217 12.206 44.434 12.312 45.688 C12.319 49.29 12.082 49.893 9.75 52.938 C4.904 56.572 0.893 56.098 -5 56 C-4.67 55.01 -4.34 54.02 -4 53 C-1.689 52.259 0.648 51.598 3 51 C4.32 50.34 5.64 49.68 7 49 C7 45.7 7 42.4 7 39 C7.33 38.835 7.33 38.835 9 38 C8.783 37.408 8.567 36.817 8.344 36.207 C6.828 31.906 6 28.567 6 24 C5.045 22.307 4.041 20.641 3 19 C2.296 17.013 1.629 15.012 1 13 C0.346 11.328 -0.317 9.66 -1 8 C-0.34 7.67 0.32 7.34 1 7 C0.67 4.69 0.34 2.38 0 0 Z " fill="#E6A958" transform="translate(54,139)"/>
<path d="M0 0 C0.99 0.33 1.98 0.66 3 1 C0.249 8.051 -4.471 12.268 -11.168 15.555 C-16.878 17.881 -21.814 19.719 -28 19 C-28 19.66 -28 20.32 -28 21 C-29.32 21.33 -30.64 21.66 -32 22 C-32.33 21.34 -32.66 20.68 -33 20 C-34.558 19.313 -36.147 18.699 -37.75 18.125 C-41.751 16.574 -45.008 15.185 -48 12 C-48.812 9.25 -48.812 9.25 -49 7 C-49.66 7 -50.32 7 -51 7 C-51 6.34 -51 5.68 -51 5 C-51.66 4.67 -52.32 4.34 -53 4 C-52.67 3.34 -52.34 2.68 -52 2 C-51.01 2 -50.02 2 -49 2 C-49 2.66 -49 3.32 -49 4 C-48.299 4.248 -47.597 4.495 -46.875 4.75 C-43.61 6.17 -40.924 7.971 -38 10 C-36.907 10.639 -35.814 11.279 -34.688 11.938 C-32 14 -32 14 -31.125 16.75 C-31.084 17.493 -31.043 18.235 -31 19 C-30.979 18.237 -30.959 17.474 -30.938 16.688 C-30 14 -30 14 -26.75 12.375 C-26.131 12.148 -26.131 12.148 -23 11 C-22.196 10.505 -21.391 10.01 -20.562 9.5 C-17.837 7.905 -15.16 6.89 -12.199 5.824 C-2.003 2.003 -2.003 2.003 0 0 Z " fill="#982F0F" transform="translate(103,106)"/>
<path d="M0 0 C4.642 6.964 3.144 14.59 1.625 22.375 C1.562 22.73 1.562 22.73 1.242 24.527 C0.251 29.749 0.251 29.749 -2 32 C-5.057 31.759 -6.639 31.305 -9 29.312 C-9.66 28.879 -10.32 28.446 -11 28 C-13.75 28.812 -13.75 28.812 -16 30 C-16.086 29.417 -16.173 28.835 -16.262 28.234 C-17.746 19.577 -21.01 11.794 -25 4 C-23.68 3.67 -22.36 3.34 -21 3 C-20.505 3.846 -20.01 4.691 -19.5 5.562 C-16.717 9.787 -12.881 12.816 -9 16 C-9 15.34 -9 14.68 -9 14 C-7.68 14 -6.36 14 -5 14 C-3.02 13.67 -1.04 13.34 1 13 C0.835 10.855 0.835 10.855 0 0 Z " fill="#BA7526" transform="translate(84,150)"/>
<path d="M0 0 C0.825 0.165 0.825 0.165 5 1 C5 2.32 5 3.64 5 5 C5.66 5 6.32 5 7 5 C7 5.99 7 6.98 7 8 C7.66 8 8.32 8 9 8 C9.33 8.99 9.66 9.98 10 11 C10.598 10.835 11.196 10.67 11.812 10.5 C14 10 14 10 17 10 C19.179 13.269 20.094 16.218 21.219 19.941 C22 22 22 22 24 24 C26.125 24.625 26.125 24.625 28 25 C27 28 27 28 25 31 C24.01 30.67 23.02 30.34 22 30 C22.33 32.31 22.66 34.62 23 37 C22.67 37.165 22.67 37.165 21 38 C20.402 37.237 19.804 36.474 19.188 35.688 C17 33 17 33 15.25 31.625 C13.204 28.965 13.818 26.224 14 23 C13.34 23 12.68 23 12 23 C11.67 22.01 11.34 21.02 11 20 C10.34 20 9.68 20 9 20 C8.67 19.34 8.34 18.68 8 18 C6.02 19.65 4.04 21.3 2 23 C2 19.333 2 15.667 2 12 C1.34 12.66 0.68 13.32 0 14 C0.168 13.374 0.335 12.747 0.508 12.102 C0.61 11.693 0.61 11.693 1.125 9.625 C1.334 8.813 1.543 8.001 1.758 7.164 C1.838 6.45 1.918 5.736 2 5 C1.34 4.34 0.68 3.68 0 3 C0 2.01 0 1.02 0 0 Z " fill="#F7C57D" transform="translate(45,118)"/>
<path d="M0 0 C0.99 0.66 1.98 1.32 3 2 C3 2.66 3 3.32 3 4 C5 3 5 3 7 0 C7.66 0.66 8.32 1.32 9 2 C8.67 2.382 8.67 2.382 7 4.312 C5 7 5 7 5 10 C5.99 10 6.98 10 8 10 C8.66 10 9.32 10 10 10 C9.403 13.342 8.264 15.464 6 18 C5.34 18 4.68 18 4 18 C3.67 17.01 3.34 16.02 3 15 C2.752 15.928 2.505 16.856 2.25 17.812 C0.92 21.204 0.249 22.422 -3 24 C-5.625 23.938 -5.625 23.938 -8 23 C-10.662 19.704 -10.156 16.067 -10 12 C-10.66 12 -11.32 12 -12 12 C-12.33 13.65 -12.66 15.3 -13 17 C-14.945 14.082 -15.453 12.375 -16 9 C-15.34 9.33 -15.34 9.33 -12 11 C-11.938 10.598 -11.938 10.598 -11.625 8.562 C-11.419 7.717 -11.213 6.871 -11 6 C-10.34 5.67 -9.68 5.34 -9 5 C-10.32 4.67 -11.64 4.34 -13 4 C-10.333 4 -7.667 4 -5 4 C-2.312 2 -2.312 2 0 0 Z " fill="#F1BA70" transform="translate(82,138)"/>
<path d="M0 0 C0.66 0.33 1.32 0.66 2 1 C0.796 2.335 -0.409 3.669 -1.613 5.004 C-5.632 10.789 -6.481 16.068 -6.688 22.938 C-6.722 23.717 -6.756 24.496 -6.791 25.299 C-6.873 27.199 -6.938 29.099 -7 31 C-5.02 31.33 -3.04 31.66 -1 32 C-1 32.33 -1 32.66 -1 33 C-1.675 33.026 -2.351 33.052 -3.047 33.078 C-10.31 33.54 -10.31 33.54 -13.625 35.75 C-15.242 38.396 -15.339 39.952 -15 43 C-14.34 43 -13.68 43 -13 43 C-12.34 41.02 -11.68 39.04 -11 37 C-10.34 37.33 -9.68 37.66 -9 38 C-9.66 41.3 -10.32 44.6 -11 48 C-12.073 47.917 -13.145 47.835 -14.25 47.75 C-18 48 -18 48 -19.812 50 C-22.998 52.913 -25.784 52.309 -29.953 52.141 C-30.629 52.094 -31.304 52.048 -32 52 C-31.67 51.01 -31.34 50.02 -31 49 C-30.67 49.33 -30.34 49.66 -30 50 C-28.004 49.984 -28.004 49.984 -25.562 49.75 C-24.759 49.683 -23.956 49.616 -23.129 49.547 C-21 49 -21 49 -19 46 C-18.619 43.781 -18.316 41.549 -18.062 39.312 C-17.336 33.725 -16.199 29.162 -14 24 C-13.646 22.672 -13.307 21.34 -13 20 C-12.34 20 -11.68 20 -11 20 C-11 17.69 -11 15.38 -11 13 C-10.67 13.66 -10.34 14.32 -10 15 C-9.34 15 -8.68 15 -8 15 C-8.33 14.01 -8.66 13.02 -9 12 C-9.04 9.667 -9.044 7.333 -9 5 C-8.34 4.67 -7.68 4.34 -7 4 C-6.67 4.99 -6.34 5.98 -6 7 C-4.02 4.69 -2.04 2.38 0 0 Z " fill="#B67227" transform="translate(125,147)"/>
<path d="M0 0 C0.99 0 1.98 0 3 0 C3 0.66 3 1.32 3 2 C3.66 2.33 4.32 2.66 5 3 C3.02 4.32 1.04 5.64 -1 7 C-0.67 7.66 -0.34 8.32 0 9 C1.114 8.34 2.227 7.68 3.375 7 C6.75 5 6.75 5 9 5 C8.34 7.31 7.68 9.62 7 12 C6.34 12 5.68 12 5 12 C0.465 16.535 0.03 23.043 -0.438 29.125 C-0.787 33.321 -1.792 36.352 -4 40 C-5.097 36.589 -4.942 33.793 -4.562 30.25 C-4.461 29.265 -4.359 28.28 -4.254 27.266 C-4.212 26.892 -4.212 26.892 -4 25 C-4.99 24.34 -5.98 23.68 -7 23 C-7.33 22.01 -7.66 21.02 -8 20 C-8.66 20.33 -8.66 20.33 -12 22 C-11.795 21.74 -11.795 21.74 -10.758 20.426 C-7.915 16.746 -5.416 13.483 -4 9 C-2.9 5.561 -2.015 3.023 0 0 Z " fill="#FBC775" transform="translate(37,40)"/>
<path d="M0 0 C1.765 3.088 2 4.233 2 8 C7.537 7.245 7.537 7.245 10.125 5.875 C12.484 4.774 13.6 5.143 16 6 C16 7.65 16 9.3 16 11 C15.67 9.68 15.34 8.36 15 7 C14.34 7 13.68 7 13 7 C16.67 17.743 16.67 17.743 22 21 C21.67 21.99 21.34 22.98 21 24 C15.25 22.25 15.25 22.25 13 20 C11.343 19.621 9.673 19.297 8 19 C5.662 18.349 3.328 17.685 1 17 C-0.225 11.334 -0.092 5.763 0 0 Z " fill="#F2B664" transform="translate(38,81)"/>
<path d="M0 0 C3.769 1.256 4.735 2.785 7 6 C8.421 8.985 9 10.677 9 14 C7.68 13.01 6.36 12.02 5 11 C4.67 11.99 4.34 12.98 4 14 C1.36 14.33 -1.28 14.66 -4 15 C-4.33 15.99 -4.66 16.98 -5 18 C-6.75 19.062 -6.75 19.062 -9 20 C-9.402 20.168 -9.402 20.168 -11.434 21.016 C-15.247 22.478 -19.101 23.783 -23 25 C-23.66 24.34 -24.32 23.68 -25 23 C-24.371 22.792 -23.742 22.585 -23.094 22.371 C-15.712 19.714 -9.352 16.234 -5.438 9.188 C-5 7 -5 7 -6 5 C-5.381 4.732 -4.763 4.464 -4.125 4.188 C-2 3 -2 3 0 0 Z " fill="#D29142" transform="translate(110,100)"/>
<path d="M0 0 C1.15 3.449 0.488 4.887 -0.457 8.273 C-1.323 12.624 -1.461 17.029 -1.658 21.452 C-1.803 24.526 -2.021 27.062 -3 30 C-2.944 32.272 -2.856 34.543 -2.75 36.812 C-2.654 44.557 -2.654 44.557 -5.5 47.875 C-6.325 48.576 -7.15 49.278 -8 50 C-12.875 49.125 -12.875 49.125 -14 48 C-14.144 46.866 -14.289 45.731 -14.438 44.562 C-15 41 -15 41 -17 39 C-17 38.01 -17 37.02 -17 36 C-16.67 35.835 -16.67 35.835 -15 35 C-14.278 33.356 -13.606 31.689 -13 30 C-12.67 30 -12.34 30 -12 30 C-11.67 33.3 -11.34 36.6 -11 40 C-8 39 -8 39 -7.121 37.27 C-4.967 29.526 -4.314 21.789 -3.822 13.794 C-3.448 8.518 -2.844 4.614 0 0 Z " fill="#DD9A47" transform="translate(42,51)"/>
<path d="M0 0 C3.438 1.062 3.438 1.062 5.438 2.562 C6.978 6.414 6.413 10.08 5.438 14.062 C5.108 14.558 5.108 14.558 3.438 17.062 C-3.53 17.837 -3.53 17.837 -6.562 15.562 C-7.981 12.016 -8.21 8.785 -7.562 5.062 C-5.46 0.941 -4.686 0.082 0 0 Z " fill="#191008" transform="translate(95.5625,60.9375)"/>
<path d="M0 0 C2.333 0.933 3.777 1.726 5.375 3.688 C6.31 7.149 5.147 9.686 4 13 C3.67 12.01 3.34 11.02 3 10 C2.34 10 1.68 10 1 10 C1.33 12.64 1.66 15.28 2 18 C5 16 5 16 7 14 C7 18 7 18 5 21 C4.34 21 3.68 21 3 21 C2.856 21.969 2.711 22.939 2.562 23.938 C2 27 2 27 1 28 C-0.666 28.041 -2.334 28.043 -4 28 C-4.144 27.701 -4.144 27.701 -4.875 26.188 C-6 24 -6 24 -8 21 C-8.195 18.52 -8.195 18.52 -8.125 15.812 C-8.107 14.911 -8.089 14.01 -8.07 13.082 C-8.047 12.395 -8.024 11.708 -8 11 C-7.67 11 -7.34 11 -7 11 C-6.67 12.65 -6.34 14.3 -6 16 C-5.01 16 -4.02 16 -3 16 C-2.948 15.381 -2.948 15.381 -2.688 12.25 C-2.258 8.611 -1.267 6.885 1 4 C0.688 1.75 0.688 1.75 0 0 Z " fill="#EA9E40" transform="translate(122,74)"/>
<path d="M0 0 C0.99 0.33 1.98 0.66 3 1 C0.203 7.485 -1.84 11.25 -8 15 C-9.875 18.25 -9.875 18.25 -11 21 C-11.66 21 -12.32 21 -13 21 C-13 19.68 -13 18.36 -13 17 C-13.326 17.042 -13.326 17.042 -14.977 17.254 C-19.882 17.826 -24.131 18.153 -29 17 C-29.66 18.32 -30.32 19.64 -31 21 C-34 15.25 -34 15.25 -34 13 C-32.721 12.794 -31.443 12.588 -30.125 12.375 C-27.914 11.844 -27.914 11.844 -26 11 C-24.5 7.875 -24.5 7.875 -24 5 C-24.99 4.67 -25.98 4.34 -27 4 C-24.36 4 -21.72 4 -19 4 C-19.99 4.33 -20.98 4.66 -22 5 C-21.688 7.375 -21.688 7.375 -21 10 C-16.096 13.269 -10.748 12.351 -5.062 11.625 C-1.482 8.804 -0.977 4.306 0 0 Z " fill="#943014" transform="translate(95,88)"/>
<path d="M0 0 C2.125 -0.054 4.25 -0.093 6.375 -0.125 C7.558 -0.148 8.742 -0.171 9.961 -0.195 C13 0 13 0 15 2 C15.312 4.438 15.312 4.438 15 7 C13.562 8.625 13.562 8.625 12 10 C11.67 10.99 11.34 11.98 11 13 C9.68 13 8.36 13 7 13 C7 14.98 7 16.96 7 19 C6.34 18.67 5.68 18.34 5 18 C4.897 17.216 4.794 16.433 4.688 15.625 C4 13 4 13 1.438 11.188 C0.633 10.796 -0.171 10.404 -1 10 C-0.67 6.7 -0.34 3.4 0 0 Z " fill="#F28874" transform="translate(66,107)"/>
<path d="M0 0 C2.251 2.438 3.011 3.488 2.938 6.875 C3.019 10.965 4.464 12.868 7 16 C7.66 16 8.32 16 9 16 C9.33 15.34 9.66 14.68 10 14 C9.835 14.784 9.67 15.567 9.5 16.375 C9 19 9 19 9 21 C9.99 21 10.98 21 12 21 C12 21.66 12 22.32 12 23 C12.99 23.33 13.98 23.66 15 24 C15 24.66 15 25.32 15 26 C14.093 25.67 13.185 25.34 12.25 25 C6.938 23.445 1.48 23.838 -4 24 C-4.182 24.566 -4.364 25.132 -4.551 25.715 C-4.802 26.448 -5.054 27.182 -5.312 27.938 C-5.556 28.668 -5.8 29.399 -6.051 30.152 C-7 32 -7 32 -10 33 C-10.465 29.002 -10.345 27.456 -7.875 24.188 C-4.763 21.82 -2.854 21.269 1 21 C0.34 20.67 -0.32 20.34 -1 20 C-1.027 17.229 -1.047 14.458 -1.062 11.688 C-1.067 11.295 -1.067 11.295 -1.088 9.307 C-1.091 8.549 -1.094 7.792 -1.098 7.012 C-1.103 6.315 -1.108 5.619 -1.114 4.901 C-1 3 -1 3 0 0 Z " fill="#E1A04C" transform="translate(119,158)"/>
<path d="M0 0 C2.288 1.665 2.926 2.559 3.398 5.375 C3.391 6.241 3.383 7.108 3.375 8 C3.383 8.866 3.39 9.733 3.398 10.625 C2.926 13.443 2.278 14.322 0 16 C-2.938 16.562 -2.938 16.562 -6 16 C-9.155 12.683 -10.015 10.912 -9.938 6.312 C-8.263 0.395 -6.16 -0.77 0 0 Z " fill="#0C0804" transform="translate(58,61)"/>
<path d="M0 0 C0.66 0.33 1.32 0.66 2 1 C1.546 2.031 1.093 3.062 0.625 4.125 C-1.331 9.225 -1.809 14.424 -2.375 19.828 C-3.026 23.133 -3.562 24.7 -6 27 C-8.227 27.645 -8.227 27.645 -10.625 27.812 C-11.023 27.847 -11.023 27.847 -13.039 28.02 C-15 28 -15 28 -16 27 C-16.33 27.66 -16.66 28.32 -17 29 C-14.03 29 -11.06 29 -8 29 C-8 29.33 -8 29.66 -8 30 C-13.61 30 -19.22 30 -25 30 C-24.67 29.34 -24.34 28.68 -24 28 C-22.02 28 -20.04 28 -18 28 C-18.021 26.886 -18.041 25.773 -18.062 24.625 C-18 21 -18 21 -17 19 C-16.34 19.33 -15.68 19.66 -15 20 C-15.33 21.32 -15.66 22.64 -16 24 C-13.125 23.812 -13.125 23.812 -10 23 C-7.741 19.342 -7.496 15.219 -7 11 C-6.01 10.67 -5.02 10.34 -4 10 C-3.086 7.969 -3.086 7.969 -2.375 5.5 C-1.072 1.072 -1.072 1.072 0 0 Z " fill="#D9A057" transform="translate(110,170)"/>
<path d="M0 0 C1.98 0.66 3.96 1.32 6 2 C6.165 3.65 6.165 3.65 7 12 C4.778 9.778 4.074 7.915 3 5 C-2.094 5.925 -5.931 6.658 -10 10 C-12.75 10.688 -12.75 10.688 -15 11 C-15 11.66 -15 12.32 -15 13 C-18.28 14.415 -21.549 15.823 -24.875 17.125 C-27 18 -27 18 -28 19 C-30.655 19.455 -33.322 19.702 -36 20 C-35.67 18.68 -35.34 17.36 -35 16 C-33.68 16 -32.36 16 -31 16 C-30.67 15.01 -30.34 14.02 -30 13 C-29.526 12.969 -29.526 12.969 -27.125 12.812 C-22.702 12.208 -19.135 10.24 -15.234 8.156 C-13 7 -13 7 -10 6 C-9.67 5.34 -9.34 4.68 -9 4 C-3.778 2 -3.778 2 -1 2 C-0.67 1.34 -0.34 0.68 0 0 Z " fill="#E0A051" transform="translate(115,111)"/>
<path d="M0 0 C0.99 0 1.98 0 3 0 C3.124 0.592 3.248 1.183 3.375 1.793 C4.607 6.514 5.692 9.313 9.938 11.938 C11.275 12.657 12.63 13.345 14 14 C14.372 14.186 14.372 14.186 16.254 15.129 C16.542 15.273 16.542 15.273 18 16 C17.67 16.825 17.67 16.825 16 21 C15.01 20.34 14.02 19.68 13 19 C13 18.34 13 17.68 13 17 C12.01 17 11.02 17 10 17 C9.67 17.66 9.34 18.32 9 19 C8.01 19 7.02 19 6 19 C5.67 17.68 5.34 16.36 5 15 C4.34 15 3.68 15 3 15 C3 14.01 3 13.02 3 12 C2.34 12 1.68 12 1 12 C0.876 11.361 0.752 10.721 0.625 10.062 C0.419 9.382 0.212 8.701 0 8 C-0.66 7.67 -1.32 7.34 -2 7 C-2.33 7.66 -2.66 8.32 -3 9 C-2.443 5.656 -1.648 2.967 0 0 Z " fill="#E8AC63" transform="translate(49,111)"/>
<path d="M0 0 C0.99 0.33 1.98 0.66 3 1 C3.625 2.855 3.625 2.855 4 5.188 C4.757 9.202 5.978 12.416 8 16 C7.34 16.33 6.68 16.66 6 17 C6 16.01 6 15.02 6 14 C5.34 14 4.68 14 4 14 C3.67 15.32 3.34 16.64 3 18 C2.67 18 2.34 18 2 18 C2.186 18.804 2.371 19.609 2.562 20.438 C3.021 24.171 2.685 27.173 2.059 30.852 C1.988 33.426 2.698 34.812 4 37 C3.01 37.66 2.02 38.32 1 39 C-0.187 41.125 -0.187 41.125 -1 43 C-1.049 38.764 -1.086 34.529 -1.11 30.292 C-1.12 28.851 -1.134 27.41 -1.151 25.968 C-1.175 23.898 -1.186 21.828 -1.195 19.758 C-1.206 18.511 -1.216 17.265 -1.227 15.981 C-1 13 -1 13 1 11 C0.625 8.5 0.625 8.5 0 6 C0 5.34 0 4.68 0 4 C-0.66 3.01 -1.32 2.02 -2 1 C-1.34 0.67 -0.68 0.34 0 0 Z " fill="#F7B862" transform="translate(120,43)"/>
<path d="M0 0 C3.403 6.807 -0.185 20.705 -1.957 27.867 C-4.372 34.686 -4.372 34.686 -7 36 C-7.407 38.322 -7.744 40.657 -8 43 C-8.33 43 -8.66 43 -9 43 C-9.027 40.625 -9.047 38.25 -9.062 35.875 C-9.071 35.21 -9.079 34.545 -9.088 33.859 C-9.108 29.793 -8.789 25.988 -8 22 C-7.34 22.66 -6.68 23.32 -6 24 C-4.362 20.725 -3.832 17.851 -3.562 14.25 C-3.151 9.169 -1.821 4.741 0 0 Z " fill="#F8B55B" transform="translate(39,55)"/>
<path d="M0 0 C2 1 2 1 2.625 2.625 C3.121 5.766 3.061 8.826 3 12 C2.34 12 1.68 12 1 12 C1.103 13.217 1.206 14.434 1.312 15.688 C1.319 19.29 1.082 19.893 -1.25 22.938 C-6.096 26.572 -10.107 26.098 -16 26 C-15.67 25.01 -15.34 24.02 -15 23 C-12.668 22.327 -10.335 21.662 -8 21 C-4.86 18.837 -3.122 17.183 -1 14 C-0.705 11.613 -0.507 9.214 -0.375 6.812 C-0.3 5.54 -0.225 4.268 -0.148 2.957 C-0.099 1.981 -0.05 1.005 0 0 Z " fill="#DB9844" transform="translate(65,169)"/>
<path d="M0 0 C3.3 0 6.6 0 10 0 C10.66 2.64 11.32 5.28 12 8 C0.78 7.67 -10.44 7.34 -22 7 C-22 6.67 -22 6.34 -22 6 C-20.903 5.963 -19.806 5.925 -18.676 5.887 C-17.221 5.821 -15.767 5.755 -14.312 5.688 C-13.591 5.665 -12.87 5.642 -12.127 5.619 C-7.658 5.395 -4.655 4.83 -1 2 C-0.67 1.34 -0.34 0.68 0 0 Z " fill="#C1A583" transform="translate(66,190)"/>
<path d="M0 0 C2 2 2 2 2.243 5.041 C2.241 5.679 2.241 5.679 2.23 8.906 C2.23 9.587 2.23 10.267 2.229 10.968 C2.226 12.407 2.218 13.847 2.206 15.286 C2.188 17.491 2.185 19.697 2.186 21.902 C2.148 32.705 2.148 32.705 1 35 C1.66 35.33 2.32 35.66 3 36 C2.34 36.165 2.34 36.165 -1 37 C-0.959 36.093 -0.917 35.185 -0.875 34.25 C-1 31 -1 31 -1.988 29.172 C-3.301 26.353 -3.301 24.1 -3.312 21 C-3.329 19.969 -3.346 18.938 -3.363 17.875 C-2.95 14.604 -1.936 13.575 0 11 C0.293 8.203 0.293 8.203 0.188 5.25 C0.16 4.265 0.133 3.28 0.105 2.266 C0.088 1.892 0.088 1.892 0 0 Z " fill="#DD9E4D" transform="translate(46,142)"/>
<path d="M0 0 C0.977 1.415 1.943 2.839 2.836 4.309 C4 6 4 6 6.938 8.688 C9 12 9 12 8.648 14.824 C7.885 17.61 7.023 20.3 6 23 C6.99 23.33 7.98 23.66 9 24 C9 24.66 9 25.32 9 26 C7.68 26.33 6.36 26.66 5 27 C4.914 26.417 4.827 25.835 4.738 25.234 C3.254 16.577 -0.01 8.794 -4 1 C-2 0 -2 0 0 0 Z " fill="#D18D3B" transform="translate(63,153)"/>
<path d="M0 0 C0.33 0.66 0.66 1.32 1 2 C4.062 2.625 4.062 2.625 7 3 C7 3.33 7 3.66 7 4 C6.325 4.026 5.649 4.052 4.953 4.078 C-2.31 4.54 -2.31 4.54 -5.625 6.75 C-7.242 9.396 -7.339 10.952 -7 14 C-6.34 14 -5.68 14 -5 14 C-4.34 12.02 -3.68 10.04 -3 8 C-2.34 8.33 -1.68 8.66 -1 9 C-1.66 12.3 -2.32 15.6 -3 19 C-4.073 18.917 -5.145 18.835 -6.25 18.75 C-10 19 -10 19 -11.812 21 C-14.998 23.913 -17.784 23.309 -21.953 23.141 C-22.291 23.117 -22.291 23.117 -24 23 C-23.67 22.01 -23.34 21.02 -23 20 C-22.67 20.33 -22.34 20.66 -22 21 C-20.004 20.984 -20.004 20.984 -17.562 20.75 C-16.759 20.683 -15.956 20.616 -15.129 20.547 C-13 20 -13 20 -11 17 C-10.608 15.346 -10.279 13.677 -10 12 C-9.423 8.538 -8.999 6.999 -7 4 C-3.375 3.312 -3.375 3.312 0 3 C0 2.01 0 1.02 0 0 Z " fill="#A86925" transform="translate(117,176)"/>
<path d="M0 0 C4.819 7.229 3.014 14.818 1.438 22.875 C1.293 23.576 1.149 24.278 1 25 C0.67 24.34 0.34 23.68 0 23 C-0.907 22.732 -1.815 22.464 -2.75 22.188 C-6.522 20.809 -8.35 18.962 -11 16 C-10.34 16 -9.68 16 -9 16 C-9 15.34 -9 14.68 -9 14 C-7.68 14 -6.36 14 -5 14 C-3.02 13.67 -1.04 13.34 1 13 C0.67 8.71 0.34 4.42 0 0 Z " fill="#CE8C3C" transform="translate(84,150)"/>
<path d="M0 0 C1.667 0 3.333 0 5 0 C5 0.66 5 1.32 5 2 C5.99 1.67 6.98 1.34 8 1 C7.67 2.98 7.34 4.96 7 7 C7.907 6.649 8.815 6.299 9.75 5.938 C12.894 5.031 14.07 4.744 17 6 C17.66 6.66 18.32 7.32 19 8 C14.813 9.595 11.474 10.203 7 10 C5.479 10 3.958 10.025 2.438 10.062 C0 10 0 10 -1 9 C-1.237 2.475 -1.237 2.475 0 0 Z " fill="#F3B968" transform="translate(115,185)"/>
<path d="M0 0 C0 2.64 0 5.28 0 8 C-0.784 8.268 -1.567 8.536 -2.375 8.812 C-5 10 -5 10 -7 13 C-7.22 17.545 -7.109 21.566 -6 26 C-6.99 25.34 -7.98 24.68 -9 24 C-9.617 20.734 -9.617 20.734 -9.875 16.75 C-9.976 15.445 -10.076 14.141 -10.18 12.797 C-9.952 7.983 -8.463 4.909 -5.562 1.125 C-4 0 -4 0 0 0 Z " fill="#F2BB6A" transform="translate(96,53)"/>
<path d="M0 0 C0.33 0.66 0.66 1.32 1 2 C1.66 2 2.32 2 3 2 C3.009 3.089 3.019 4.179 3.028 5.301 C3.068 9.361 3.134 13.42 3.208 17.479 C3.236 19.232 3.257 20.986 3.271 22.739 C3.293 25.267 3.339 27.793 3.391 30.32 C3.391 30.709 3.391 30.709 3.394 32.679 C3.536 38.006 4.668 40.826 8 45 C7.031 44.67 6.061 44.34 5.062 44 C2 43 2 43 1 43 C0.67 28.81 0.34 14.62 0 0 Z " fill="#C87F2D" transform="translate(111,56)"/>
<path d="M0 0 C0.99 0.33 1.98 0.66 3 1 C4.224 3.958 3.965 5.997 3 9 C5.631 10.316 8.051 11 11 11 C11 11.99 11 12.98 11 14 C8.69 14 6.38 14 4 14 C3.34 12.68 2.68 11.36 2 10 C1.67 10.99 1.34 11.98 1 13 C-0.938 12.625 -0.938 12.625 -3 12 C-4.42 9.159 -4.315 7.145 -4 4 C-2 1.625 -2 1.625 0 0 Z " fill="#F8C67B" transform="translate(81,184)"/>
<path d="M0 0 C2.939 2.428 3.573 4.242 4 8 C4.443 14.427 4.443 14.427 2.5 16.938 C2.005 17.288 1.51 17.639 1 18 C0.67 17.01 0.34 16.02 0 15 C0 18.3 0 21.6 0 25 C-0.66 25 -1.32 25 -2 25 C-2.33 26.65 -2.66 28.3 -3 30 C-3.99 29.67 -4.98 29.34 -6 29 C-5.34 29 -4.68 29 -4 29 C-4.023 28.359 -4.046 27.719 -4.07 27.059 C-4.184 21.592 -3.62 17.264 -2 12 C-1.875 8.562 -1.875 8.562 -2 6 C-1.67 6 -1.34 6 -1 6 C-0.67 4.02 -0.34 2.04 0 0 Z " fill="#E9AA57" transform="translate(117,137)"/>
<path d="M0 0 C1.15 3.449 0.488 4.887 -0.457 8.273 C-1.323 12.624 -1.461 17.029 -1.658 21.452 C-1.803 24.526 -2.021 27.062 -3 30 C-2.991 33.555 -2.869 37.099 -2.742 40.652 C-3.015 44.196 -3.584 45.476 -6 48 C-6.66 47.67 -7.32 47.34 -8 47 C-7.835 46.835 -7.835 46.835 -7 46 C-6.789 43.35 -6.624 40.717 -6.5 38.062 C-6.134 30.269 -6.134 30.269 -5 28 C-4.815 26.405 -4.679 24.805 -4.57 23.203 C-4.497 22.244 -4.423 21.285 -4.348 20.297 C-4.2 18.282 -4.06 16.266 -3.926 14.25 C-3.495 8.785 -2.915 4.683 0 0 Z " fill="#CC812B" transform="translate(42,51)"/>
<path d="M0 0 C1.32 0.66 2.64 1.32 4 2 C3.67 3.32 3.34 4.64 3 6 C3.66 6.33 4.32 6.66 5 7 C4.34 11.29 3.68 15.58 3 20 C3.66 20 4.32 20 5 20 C6.509 26.035 5.642 31.897 5 38 C4.67 38 4.34 38 4 38 C3.835 35.525 3.835 35.525 3 23 C2.34 23 1.68 23 1 23 C1 20.69 1 18.38 1 16 C0.34 16 -0.32 16 -1 16 C-1 4.625 -1 4.625 0 0 Z " fill="#EFBA72" transform="translate(44,121)"/>
<path d="M0 0 C5.28 0 10.56 0 16 0 C16 1.32 16 2.64 16 4 C16.66 4.33 17.32 4.66 18 5 C18.33 5.33 18.66 5.66 19 6 C20.32 5.34 21.64 4.68 23 4 C23.99 5.32 24.98 6.64 26 8 C25.252 8.266 24.505 8.531 23.734 8.805 C22.75 9.158 21.765 9.511 20.75 9.875 C19.775 10.223 18.801 10.571 17.797 10.93 C15.437 11.833 13.231 12.821 11 14 C12.875 10.125 12.875 10.125 14 9 C14.125 6.5 14.125 6.5 14 4 C12.122 2.122 8.961 2.609 6.438 2.438 C5.839 2.396 5.839 2.396 2.809 2.184 C1.882 2.123 0.955 2.062 0 2 C0 1.34 0 0.68 0 0 Z " fill="#D57548" transform="translate(66,105)"/>
<path d="M0 0 C0.33 0.99 0.66 1.98 1 3 C1.66 3 2.32 3 3 3 C3.66 4.98 4.32 6.96 5 9 C7.31 9.33 9.62 9.66 12 10 C11.67 10.66 11.34 11.32 11 12 C8.129 12.379 8.129 12.379 4.562 12.562 C-1.811 12.905 -1.811 12.905 -4 14 C-4 11.03 -4 8.06 -4 5 C-3.34 5 -2.68 5 -2 5 C-1.34 3.35 -0.68 1.7 0 0 Z " fill="#C38134" transform="translate(146,176)"/>
<path d="M0 0 C1.333 2.667 2.667 5.333 4 8 C3.175 7.505 3.175 7.505 -1 5 C-1.33 5.99 -1.66 6.98 -2 8 C-4.64 8.33 -7.28 8.66 -10 9 C-10.33 9.99 -10.66 10.98 -11 12 C-12.75 13.062 -12.75 13.062 -15 14 C-15.803 14.335 -16.606 14.67 -17.434 15.016 C-21.247 16.478 -25.101 17.783 -29 19 C-29.66 18.34 -30.32 17.68 -31 17 C-30.325 16.746 -29.649 16.492 -28.953 16.23 C-28.061 15.886 -27.169 15.542 -26.25 15.188 C-25.368 14.851 -24.487 14.515 -23.578 14.168 C-21 13 -21 13 -19.086 11.531 C-16.356 9.527 -13.54 8.502 -10.375 7.312 C-9.801 7.094 -9.801 7.094 -6.898 5.988 C-4 5 -4 5 -2 5 C-1.34 3.35 -0.68 1.7 0 0 Z " fill="#D99A4C" transform="translate(116,106)"/>
<path d="M0 0 C0.33 0 0.66 0 1 0 C1.33 1.65 1.66 3.3 2 5 C5.403 5.162 7.876 5.042 11.125 3.938 C14.161 2.947 15.071 3.101 18 4 C17.374 4.205 16.747 4.41 16.102 4.621 C15.284 4.891 14.467 5.16 13.625 5.438 C12.813 5.704 12.001 5.971 11.164 6.246 C9 7 9 7 7 8 C5.19 8.221 3.373 8.392 1.555 8.535 C0.478 8.622 -0.598 8.709 -1.707 8.799 C-2.271 8.842 -2.271 8.842 -5.125 9.062 C-5.693 9.108 -5.693 9.108 -8.566 9.338 C-11.377 9.562 -14.189 9.783 -17 10 C-15.246 7.523 -15.246 7.523 -13 5 C-8.412 4.563 -4.481 4.88 0 6 C0 4.02 0 2.04 0 0 Z " fill="#B47937" transform="translate(120,189)"/>
<path d="M0 0 C0.722 0.124 1.444 0.248 2.188 0.375 C1.197 1.035 0.207 1.695 -0.812 2.375 C-3 4.125 -3 4.125 -4.812 6.375 C-5.062 9.625 -5.062 9.625 -4.812 12.375 C-4.153 10.395 -3.492 8.415 -2.812 6.375 C-1.822 6.375 -0.832 6.375 0.188 6.375 C-0.142 6.705 -0.472 7.035 -0.812 7.375 C-1.18 9.703 -1.515 12.037 -1.812 14.375 C-1.153 14.375 -0.492 14.375 0.188 14.375 C0.517 13.715 0.847 13.055 1.188 12.375 C2.178 12.705 3.168 13.035 4.188 13.375 C4.517 12.055 4.847 10.735 5.188 9.375 C5.188 11.685 5.188 13.995 5.188 16.375 C0.817 17.391 -1.835 17.585 -5.812 15.375 C-8.173 11.834 -8.385 10.547 -7.812 6.375 C-5.921 2.927 -4.074 0.543 0 0 Z " fill="#D09245" transform="translate(41.8125,178.625)"/>
<path d="M0 0 C2.438 2.625 2.438 2.625 4 5 C3.67 5.66 3.34 6.32 3 7 C-0.728 6.93 -4.343 6.755 -8 6 C-10.228 3.517 -11 2.312 -11 -1 C-6.965 -2.614 -3.93 -1.544 0 0 Z " fill="#F1B560" transform="translate(159,175)"/>
<path d="M0 0 C0.99 0.165 0.99 0.165 6 1 C5.67 2.32 5.34 3.64 5 5 C3.35 5 1.7 5 0 5 C-0.33 6.65 -0.66 8.3 -1 10 C-0.01 10 0.98 10 2 10 C2 10.66 2 11.32 2 12 C2.928 11.67 3.856 11.34 4.812 11 C8 10 8 10 11 10 C10.34 11.65 9.68 13.3 9 15 C1.643 15.482 1.643 15.482 -1 13.5 C-2.487 9.783 -2.318 7.006 -2 3 C-1.34 2.01 -0.68 1.02 0 0 Z " fill="#76491E" transform="translate(90,63)"/>
<path d="M0 0 C1.98 0.66 3.96 1.32 6 2 C6.33 5.3 6.66 8.6 7 12 C4.778 9.778 4.074 7.915 3 5 C-6.063 6.646 -6.063 6.646 -10 10 C-12.25 10.688 -12.25 10.688 -14 11 C-14 9 -14 9 -11.875 6.5 C-8.538 3.598 -5.488 2 -1 2 C-0.67 1.34 -0.34 0.68 0 0 Z " fill="#E2A458" transform="translate(115,111)"/>
<path d="M0 0 C0.99 0.66 1.98 1.32 3 2 C2.67 2.382 2.67 2.382 1 4.312 C-1 7 -1 7 -1 10 C-0.01 10 0.98 10 2 10 C2.66 10 3.32 10 4 10 C3.403 13.342 2.264 15.464 0 18 C-0.66 18 -1.32 18 -2 18 C-2.33 17.01 -2.66 16.02 -3 15 C-3.33 15.165 -3.33 15.165 -5 16 C-5.108 14.397 -5.186 12.793 -5.25 11.188 C-5.296 10.294 -5.343 9.401 -5.391 8.48 C-5 6 -5 6 -3.047 4.363 C-2.371 3.913 -1.696 3.464 -1 3 C-0.67 2.01 -0.34 1.02 0 0 Z " fill="#E4A34F" transform="translate(88,138)"/>
<path d="M0 0 C0.531 0.205 1.062 0.41 1.609 0.621 C2.316 0.891 3.022 1.16 3.75 1.438 C4.446 1.704 5.142 1.971 5.859 2.246 C8 3 8 3 10.141 3.41 C12 4 12 4 14 7 C13.01 7.33 12.02 7.66 11 8 C11.66 8.33 12.32 8.66 13 9 C13 9.66 13 10.32 13 11 C12.34 11 11.68 11 11 11 C10.67 11.66 10.34 12.32 10 13 C9.422 12.196 8.845 11.391 8.25 10.562 C6.019 8.021 5.255 7.349 2 7 C1.34 4.69 0.68 2.38 0 0 Z " fill="#E1A150" transform="translate(40,97)"/>
<path d="M0 0 C0.971 -0.001 1.942 -0.001 2.942 -0.002 C9.922 0.049 16.499 0.578 23.312 2.188 C23.312 2.518 23.312 2.847 23.312 3.188 C20.479 3.215 17.646 3.234 14.812 3.25 C14.417 3.254 14.417 3.254 12.414 3.275 C8.633 3.291 4.967 3.204 1.219 2.688 C-2.843 2.168 -6.596 2.088 -10.688 2.125 C-11.367 2.13 -12.046 2.134 -12.746 2.139 C-14.393 2.15 -16.04 2.168 -17.688 2.188 C-17.688 1.857 -17.688 1.528 -17.688 1.188 C-11.771 0.167 -5.998 -0.004 0 0 Z " fill="#F2E4D1" transform="translate(61.6875,196.8125)"/>
<path d="M0 0 C0.66 0.33 1.32 0.66 2 1 C2.66 1.309 3.32 1.619 4 1.938 C6 3 6 3 8 5 C7.625 7.125 7.625 7.125 7 9 C6.196 9.144 5.391 9.289 4.562 9.438 C2 10 2 10 1 11 C0.34 11 -0.32 11 -1 11 C-2.386 8.229 -2.188 6.067 -2 3 C-1.34 2.01 -0.68 1.02 0 0 Z " fill="#F6B61C" transform="translate(68,128)"/>
<path d="M0 0 C1.599 -0.013 3.198 0.012 4.797 0.047 C4.797 0.707 4.797 1.367 4.797 2.047 C5.787 2.377 6.777 2.707 7.797 3.047 C7.797 3.707 7.797 4.367 7.797 5.047 C6.889 4.717 5.982 4.387 5.047 4.047 C-0.265 2.492 -5.723 2.885 -11.203 3.047 C-11.385 3.613 -11.567 4.179 -11.754 4.762 C-12.005 5.495 -12.257 6.229 -12.516 6.984 C-12.759 7.715 -13.003 8.446 -13.254 9.199 C-14.203 11.047 -14.203 11.047 -17.203 12.047 C-17.649 8.212 -17.498 6.49 -15.328 3.234 C-10.474 -0.164 -5.763 0.123 0 0 Z " fill="#E3A456" transform="translate(126.203125,178.953125)"/>
<path d="M0 0 C0 3 0 3 -1.5 5.125 C-3.584 9.119 -3.488 12.577 -3 17 C-2 20.062 -2 20.062 -1 22 C-1.99 22 -2.98 22 -4 22 C-5.607 18.785 -5.057 15.564 -5 12 C-5.99 11.835 -5.99 11.835 -11 11 C-9 9 -7 7 -5 5 C-5.33 4.01 -5.66 3.02 -6 2 C-4.02 1.34 -2.04 0.68 0 0 Z " fill="#F0BD74" transform="translate(59,75)"/>
<path d="M0 0 C0.66 0.33 1.32 0.66 2 1 C1.618 1.423 1.618 1.423 -0.312 3.562 C-6.263 10.845 -6.6 17.829 -7 27 C-7.33 27 -7.66 27 -8 27 C-8.195 24.982 -8.391 22.964 -8.586 20.945 C-9 19 -9 19 -11 17 C-10.625 14.875 -10.625 14.875 -10 13 C-10 13.66 -10 14.32 -10 15 C-9.34 15 -8.68 15 -8 15 C-8.33 14.01 -8.66 13.02 -9 12 C-9.04 9.667 -9.044 7.333 -9 5 C-8.34 4.67 -7.68 4.34 -7 4 C-6.67 4.99 -6.34 5.98 -6 7 C-4.02 4.69 -2.04 2.38 0 0 Z " fill="#CB8530" transform="translate(125,147)"/>
<path d="M0 0 C0 0.33 0 0.66 0 1 C0.99 1.165 0.99 1.165 6 2 C6 2.33 6 2.66 6 3 C5.313 3.11 4.626 3.219 3.918 3.332 C3.017 3.491 2.116 3.649 1.188 3.812 C0.294 3.963 -0.599 4.114 -1.52 4.27 C-4.227 5.067 -5.302 5.779 -7 8 C-7.688 10.688 -7.688 10.688 -8 13 C-8.66 12.34 -9.32 11.68 -10 11 C-9.875 8.5 -9.875 8.5 -9 6 C-6.938 4.688 -6.938 4.688 -5 4 C-5 3.34 -5 2.68 -5 2 C-7.64 3.98 -10.28 5.96 -13 8 C-11.125 3.25 -11.125 3.25 -10 1 C-6.632 0.065 -3.482 -0.099 0 0 Z " fill="#FBD798" transform="translate(70,74)"/>
<path d="M0 0 C0.33 0.495 0.33 0.495 2 3 C6.334 8.312 11.744 10.425 18 13 C18 13.99 18 14.98 18 16 C18.66 16.33 19.32 16.66 20 17 C18.68 17.33 17.36 17.66 16 18 C15.667 17.333 15.667 17.333 14 14 C13.113 13.711 12.226 13.422 11.312 13.125 C6.84 11.606 3.337 9.337 0 6 C-0.125 2.875 -0.125 2.875 0 0 Z " fill="#CE8C3F" transform="translate(53,113)"/>
<path d="M0 0 C2.383 -0.293 2.383 -0.293 5.125 -0.188 C6.035 -0.16 6.945 -0.133 7.883 -0.105 C8.581 -0.071 9.28 -0.036 10 0 C9.01 0.33 8.02 0.66 7 1 C7 1.66 7 2.32 7 3 C6.609 3.139 6.609 3.139 4.629 3.84 C4.123 4.021 4.123 4.021 1.562 4.938 C0.553 5.297 -0.456 5.657 -1.496 6.027 C-4 7 -4 7 -5 8 C-6.686 8.072 -8.375 8.084 -10.062 8.062 C-10.982 8.053 -11.901 8.044 -12.848 8.035 C-13.558 8.024 -14.268 8.012 -15 8 C-11.504 5.669 -8.309 4.915 -4.277 3.879 C-2 3 -2 3 0 0 Z " fill="#E0CCB5" transform="translate(144,188)"/>
<path d="M0 0 C2.867 0.573 3.861 0.861 6 3 C5.783 5.815 5.311 7.555 3.688 9.875 C2 11 2 11 -0.188 10.688 C-0.786 10.461 -1.384 10.234 -2 10 C-1.34 10 -0.68 10 0 10 C0 9.34 0 8.68 0 8 C-0.619 7.711 -1.238 7.423 -1.875 7.125 C-4 6 -4 6 -6 4 C-3.03 4 -0.06 4 3 4 C2.01 2.68 1.02 1.36 0 0 Z " fill="#E9AC5E" transform="translate(159,177)"/>
<path d="M0 0 C0.66 0.66 1.32 1.32 2 2 C-2.791 6.95 -2.791 6.95 -6.383 7.098 C-7.288 7.086 -8.193 7.074 -9.125 7.062 C-10.035 7.053 -10.945 7.044 -11.883 7.035 C-12.581 7.024 -13.28 7.012 -14 7 C-14 6.01 -14 5.02 -14 4 C-13.157 3.795 -12.314 3.59 -11.445 3.379 C-10.35 3.109 -9.254 2.84 -8.125 2.562 C-7.034 2.296 -5.944 2.029 -4.82 1.754 C-2 1 -2 1 0 0 Z " fill="#EDB060" transform="translate(91,94)"/>
<path d="M0 0 C2.938 0.75 2.938 0.75 6 2 C7.279 5.196 7.115 8.455 7.098 11.859 C7.094 12.974 7.091 14.089 7.088 15.238 C7.08 16.397 7.071 17.556 7.062 18.75 C7.058 19.924 7.053 21.099 7.049 22.309 C7.037 25.206 7.021 28.103 7 31 C6.67 31 6.34 31 6 31 C6 23.41 6 15.82 6 8 C4.68 8 3.36 8 2 8 C1.34 5.36 0.68 2.72 0 0 Z " fill="#E8A54E" transform="translate(108,50)"/>
<path d="M0 0 C-1.623 1.709 -3.293 3.374 -5 5 C-5.66 5 -6.32 5 -7 5 C-7 4.34 -7 3.68 -7 3 C-12.75 6.706 -12.75 6.706 -14.406 8.656 C-16 10 -16 10 -18.262 10.074 C-19.062 9.947 -19.863 9.819 -20.688 9.688 C-21.496 9.568 -22.304 9.448 -23.137 9.324 C-23.752 9.217 -24.366 9.11 -25 9 C-24.67 8.34 -24.34 7.68 -24 7 C-23.127 7.071 -22.255 7.142 -21.355 7.215 C-17.353 6.959 -15.582 5.829 -12.312 3.562 C-4.892 -1.518 -4.892 -1.518 0 0 Z " fill="#FCD89A" transform="translate(65,32)"/>
<path d="M0 0 C1.317 -0.026 2.635 -0.052 3.992 -0.078 C4.509 -0.024 4.509 -0.024 7.125 0.25 C7.785 1.24 8.445 2.23 9.125 3.25 C-2.095 2.92 -13.315 2.59 -24.875 2.25 C-24.875 1.92 -24.875 1.59 -24.875 1.25 C-16.591 0.633 -8.308 0.13 0 0 Z " fill="#D5BFA5" transform="translate(68.875,194.75)"/>
<path d="M0 0 C3.32 2.213 3.588 3.485 4.973 7.047 C6.88 10.674 9.985 13.283 13 16 C12.67 16.99 12.34 17.98 12 19 C12.438 21.688 12.438 21.688 13 24 C10.757 21.116 8.845 18.152 7 15 C6.526 14.237 6.051 13.474 5.562 12.688 C0 3.12 0 3.12 0 0 Z " fill="#EAA754" transform="translate(123,48)"/>
<path d="M0 0 C1.32 0.66 2.64 1.32 4 2 C4.433 7.284 4.433 7.284 4 10 C1.75 12.062 1.75 12.062 -1 13 C-3.312 12.688 -3.312 12.688 -5 12 C-5.33 10.68 -5.66 9.36 -6 8 C-5.216 8.186 -4.433 8.371 -3.625 8.562 C-1 9 -1 9 1 8 C0.494 5.831 0 4 -1 2 C-0.67 1.34 -0.34 0.68 0 0 Z " fill="#E99811" transform="translate(74,128)"/>
<path d="M0 0 C0.66 0 1.32 0 2 0 C2.66 1.65 3.32 3.3 4 5 C-0.927 6.971 -4.78 7.18 -10 7 C-9.67 6.01 -9.34 5.02 -9 4 C-6.682 3.283 -4.347 2.618 -2 2 C-1.34 1.34 -0.68 0.68 0 0 Z " fill="#E3A451" transform="translate(59,188)"/>
<path d="M0 0 C1.65 0.33 3.3 0.66 5 1 C3.68 1.33 2.36 1.66 1 2 C3.225 7.981 6.614 10.109 12 13 C11.67 13.66 11.34 14.32 11 15 C8.36 14.67 5.72 14.34 3 14 C2.67 11.69 2.34 9.38 2 7 C1.34 7 0.68 7 0 7 C-1.125 2.25 -1.125 2.25 0 0 Z " fill="#DC9843" transform="translate(147,172)"/>
<path d="M0 0 C0.66 0 1.32 0 2 0 C2 0.66 2 1.32 2 2 C2.516 2.248 3.031 2.495 3.562 2.75 C6.772 4.396 9.876 6.198 13 8 C12.67 8.66 12.34 9.32 12 10 C10.515 9.34 10.515 9.34 3 6 C3 5.34 3 4.68 3 4 C2.34 4 1.68 4 1 4 C1 6.31 1 8.62 1 11 C0.01 11 -0.98 11 -2 11 C-1.859 9.541 -1.712 8.083 -1.562 6.625 C-1.481 5.813 -1.4 5.001 -1.316 4.164 C-1 2 -1 2 0 0 Z " fill="#AE681E" transform="translate(71,165)"/>
<path d="M0 0 C0.99 0 1.98 0 3 0 C3.124 0.592 3.248 1.183 3.375 1.793 C4.628 6.595 5.714 9.317 10.062 11.938 C10.755 12.297 11.447 12.657 12.16 13.027 C14 14 14 14 16 16 C11.697 16.369 9.533 15.418 6 13 C5.01 12.34 4.02 11.68 3 11 C2.283 8.682 1.618 6.347 1 4 C0.34 3.01 -0.32 2.02 -1 1 C-0.67 0.67 -0.34 0.34 0 0 Z " fill="#DF9E52" transform="translate(49,111)"/>
<path d="M0 0 C0.99 0.33 1.98 0.66 3 1 C3.688 3.062 3.688 3.062 4 5 C3.01 5.33 2.02 5.66 1 6 C-0.688 8.562 -0.688 8.562 -2 11 C-3.32 10.67 -4.64 10.34 -6 10 C-6 6 -6 6 -3.562 3.312 C-2.717 2.549 -1.871 1.786 -1 1 C-0.67 0.67 -0.34 0.34 0 0 Z " fill="#BC762E" transform="translate(110,100)"/>
<path d="M0 0 C0.66 0.33 1.32 0.66 2 1 C0.722 5.995 -1.129 8.613 -5 12 C-5.33 12.165 -5.33 12.165 -7 13 C-6.491 8.62 -5.593 5.59 -3 2 C-2.01 1.34 -1.02 0.68 0 0 Z " fill="#EBAC63" transform="translate(90,100)"/>
<path d="M0 0 C0.33 0 0.66 0 1 0 C1.397 3.378 1.005 4.991 -0.562 8.062 C-3.471 11.568 -5.957 12.978 -10 15 C-10 12 -10 12 -7.625 9.312 C-5 7 -5 7 -3 7 C-2.938 6.701 -2.938 6.701 -2.625 5.188 C-2 3 -2 3 0 0 Z " fill="#E8A855" transform="translate(111,89)"/>
<path d="M0 0 C-1 3 -1 3 -4 5 C-5.995 5.257 -7.991 5.512 -9.992 5.715 C-12.527 6.075 -14.69 6.917 -17 8 C-17.33 7.34 -17.66 6.68 -18 6 C-11.5 3 -11.5 3 -7 3 C-7 2.34 -7 1.68 -7 1 C-4 0 -4 0 0 0 Z " fill="#F3E7D7" transform="translate(158,188)"/>
<path d="M0 0 C0.66 0.33 1.32 0.66 2 1 C1.67 5.95 1.34 10.9 1 16 C0.01 15.67 -0.98 15.34 -2 15 C-2.054 13.063 -2.093 11.125 -2.125 9.188 C-2.148 8.109 -2.171 7.03 -2.195 5.918 C-2 3 -2 3 0 0 Z " fill="#EEBA71" transform="translate(45,154)"/>
<path d="M0 0 C1.607 3.215 1.057 6.436 1 10 C3.995 10.681 6.301 11.17 9.312 10.438 C11.81 8.31 11.725 6.164 12 3 C12.33 3 12.66 3 13 3 C13.75 5.75 13.75 5.75 14 9 C12.562 11.375 12.562 11.375 10 13 C7.168 13.672 4.819 13.761 2 13 C-0.562 10.375 -0.562 10.375 -2 7 C-1.7 1.7 -1.7 1.7 0 0 Z " fill="#DC9328" transform="translate(66,129)"/>
<path d="M0 0 C1.527 1.223 1.527 1.223 3 3 C3.004 5.121 3.004 5.121 2.562 7.438 C1.883 11.056 2.082 12.823 4 16 C3.505 16.33 3.505 16.33 1 18 C-0.188 20.125 -0.188 20.125 -1 22 C-1.147 14.609 -0.708 7.356 0 0 Z " fill="#F4B054" transform="translate(120,64)"/>
<path d="M0 0 C0 0.66 0 1.32 0 2 C0.99 2.33 1.98 2.66 3 3 C3 4.32 3 5.64 3 7 C0.133 6.427 -0.861 6.139 -3 4 C-3.33 6.64 -3.66 9.28 -4 12 C-4.66 11.34 -5.32 10.68 -6 10 C-5.667 3.899 -5.667 3.899 -3.562 1.062 C-2 0 -2 0 0 0 Z " fill="#6A5E4F" transform="translate(54,61)"/>
<path d="M0 0 C0.66 0.99 1.32 1.98 2 3 C-4.27 3 -10.54 3 -17 3 C-17 2.34 -17 1.68 -17 1 C-10.975 -0.687 -6.153 -1.403 0 0 Z " fill="#ECBB7A" transform="translate(86,26)"/>
<path d="M0 0 C1.245 2.491 0.777 3.411 0 6 C0.454 5.825 0.454 5.825 2.75 4.938 C5.894 4.031 7.07 3.744 10 5 C10.66 5.66 11.32 6.32 12 7 C7.823 8.591 4.468 9.213 0 9 C-0.66 6.69 -1.32 4.38 -2 2 C-1.34 1.34 -0.68 0.68 0 0 Z " fill="#DF9F4A" transform="translate(122,186)"/>
<path d="M0 0 C1.548 4.645 0.896 9.059 -1.125 13.438 C-3.872 15.726 -6.511 15.737 -10 16 C-9.34 15.67 -8.68 15.34 -8 15 C-8 14.34 -8 13.68 -8 13 C-7.687 12.968 -7.687 12.968 -6.105 12.809 C-4 12 -4 12 -2.988 9.785 C-2.765 8.887 -2.542 7.988 -2.312 7.062 C-1.018 2.036 -1.018 2.036 0 0 Z " fill="#DA9946" transform="translate(107,182)"/>
<path d="M0 0 C0.784 0.041 1.568 0.083 2.375 0.125 C4.594 4.747 5.758 7.893 5.375 13.125 C4.385 13.455 3.395 13.785 2.375 14.125 C2.18 12.107 1.984 10.089 1.789 8.07 C1.375 6.125 1.375 6.125 -0.625 4.125 C-1.942 3.428 -3.274 2.755 -4.625 2.125 C-2.625 0.125 -2.625 0.125 0 0 Z " fill="#E4AC5D" transform="translate(58.625,57.875)"/>
<path d="M0 0 C0.99 0.33 1.98 0.66 3 1 C4.334 1.144 5.672 1.246 7.012 1.316 C7.39 1.337 7.39 1.337 9.307 1.443 C9.699 1.463 9.699 1.463 11.688 1.562 C12.086 1.584 12.086 1.584 14.104 1.693 C16.069 1.799 18.034 1.9 20 2 C20 2.33 20 2.66 20 3 C16.04 3.33 16.04 3.33 -4 5 C-2.68 3.35 -1.36 1.7 0 0 Z " fill="#CDB393" transform="translate(107,194)"/>
<path d="M0 0 C2 1 2 1 2.938 3.688 C3.113 4.234 3.113 4.234 4 7 C4.268 7.474 4.268 7.474 5.625 9.875 C7.391 13.89 7.225 16.648 7 21 C2.975 14.963 2.975 14.963 3.062 11.562 C2.983 8.313 1.681 6.732 0 4 C0 2.68 0 1.36 0 0 Z " fill="#EFB15E" transform="translate(57,154)"/>
<path d="M0 0 C5.28 0 10.56 0 16 0 C16 2.64 16 5.28 16 8 C15.691 7.361 15.381 6.721 15.062 6.062 C14 4 14 4 13 3 C10.817 2.765 8.628 2.586 6.438 2.438 C5.839 2.396 5.839 2.396 2.809 2.184 C1.882 2.123 0.955 2.062 0 2 C0 1.34 0 0.68 0 0 Z " fill="#E26A57" transform="translate(66,105)"/>
<path d="M0 0 C-0.66 2.31 -1.32 4.62 -2 7 C-2.66 7 -3.32 7 -4 7 C-4.495 7.66 -4.99 8.32 -5.5 9 C-5.995 9.66 -6.49 10.32 -7 11 C-7.66 11 -8.32 11 -9 11 C-8.497 6.599 -6.976 4.246 -4 1 C-2 0 -2 0 0 0 Z " fill="#F5BB66" transform="translate(46,45)"/>
<path d="M0 0 C0.66 1.98 1.32 3.96 2 6 C1.34 6 0.68 6 0 6 C0 4.68 0 3.36 0 2 C-0.652 2.084 -1.305 2.168 -1.977 2.254 C-6.882 2.826 -11.131 3.153 -16 2 C-16.33 2.66 -16.66 3.32 -17 4 C-17 2.68 -17 1.36 -17 0 C-16.687 0.006 -16.687 0.006 -15.102 0.035 C-14.693 0.04 -14.693 0.04 -12.625 0.062 C-12.219 0.068 -12.219 0.068 -10.164 0.098 C-1.499 -0.293 -1.499 -0.293 0 0 Z " fill="#AE4226" transform="translate(82,103)"/>
<path d="M0 0 C0.505 0.006 0.505 0.006 3.059 0.035 C4.071 0.044 5.082 0.053 6.125 0.062 C6.516 0.068 6.516 0.068 8.496 0.098 C8.826 1.088 9.156 2.078 9.496 3.098 C6.971 4.36 5.184 4.196 2.371 4.16 C1.461 4.151 0.551 4.142 -0.387 4.133 C-1.085 4.121 -1.784 4.11 -2.504 4.098 C-2.834 3.108 -3.164 2.118 -3.504 1.098 C-2.504 0.098 -2.504 0.098 0 0 Z " fill="#F5CD8D" transform="translate(72.50390625,73.90234375)"/>
<path d="M0 0 C4.557 0.438 7.577 0.85 11 4 C10.34 4.66 9.68 5.32 9 6 C5.191 5.676 3.216 5.144 0 3 C0 2.01 0 1.02 0 0 Z " fill="#AB2C10" transform="translate(59,116)"/>
<path d="M0 0 C0.99 0 1.98 0 3 0 C3 0.66 3 1.32 3 2 C4.32 2.66 5.64 3.32 7 4 C7 5.98 7 7.96 7 10 C6.01 10 5.02 10 4 10 C3.67 8.35 3.34 6.7 3 5 C2.34 5 1.68 5 1 5 C1 4.34 1 3.68 1 3 C0.34 2.67 -0.32 2.34 -1 2 C-0.67 1.34 -0.34 0.68 0 0 Z " fill="#B05A23" transform="translate(51,108)"/>
<path d="M0 0 C0.722 0.124 1.444 0.248 2.188 0.375 C1.197 1.035 0.207 1.695 -0.812 2.375 C-3 4.125 -3 4.125 -4.812 6.375 C-5.062 9.625 -5.062 9.625 -4.812 12.375 C-4.153 12.705 -3.492 13.035 -2.812 13.375 C-2.812 14.365 -2.812 15.355 -2.812 16.375 C-5.812 15.375 -5.812 15.375 -7.812 12.375 C-8.276 9.397 -8.341 7.337 -6.867 4.652 C-4.781 1.877 -3.494 0.466 0 0 Z " fill="#D9A76A" transform="translate(41.8125,178.625)"/>
<path d="M0 0 C0 3 0 3 -1.312 4.387 C-2.875 5.591 -4.438 6.796 -6 8 C-8 6 -8 6 -8.125 3.375 C-8.084 2.591 -8.043 1.808 -8 1 C-5.291 -0.354 -2.991 -0.065 0 0 Z " fill="#BD7829" transform="translate(74,180)"/>
<path d="M0 0 C0.33 0 0.66 0 1 0 C1.196 1.603 1.381 3.208 1.562 4.812 C1.667 5.706 1.771 6.599 1.879 7.52 C2 10 2 10 1 13 C0.777 15.059 0.593 17.122 0.438 19.188 C0.354 20.274 0.27 21.361 0.184 22.48 C0.123 23.312 0.062 24.143 0 25 C0.99 25.33 1.98 25.66 3 26 C1.35 26 -0.3 26 -2 26 C-1.34 17.42 -0.68 8.84 0 0 Z " fill="#FBCD85" transform="translate(49,151)"/>
<path d="M0 0 C0.66 0.66 1.32 1.32 2 2 C-1.75 5 -1.75 5 -4 5 C-7.108 6.425 -9.572 7.572 -12 10 C-12 8.02 -12 6.04 -12 4 C-10.948 3.897 -9.896 3.794 -8.812 3.688 C-5.126 3.023 -3.034 2.114 0 0 Z " fill="#EAB061" transform="translate(92,126)"/>
<path d="M0 0 C0.66 0.33 1.32 0.66 2 1 C1 3 0 5 -1 7 C-1.66 7 -2.32 7 -3 7 C-3.144 7.969 -3.289 8.939 -3.438 9.938 C-4 13 -4 13 -5 14 C-6.666 14.041 -8.334 14.043 -10 14 C-9.67 13.34 -9.34 12.68 -9 12 C-7.68 12 -6.36 12 -5 12 C-5.021 11.051 -5.041 10.102 -5.062 9.125 C-5 6 -5 6 -4 4 C-3.01 3.34 -2.02 2.68 -1 2 C-0.67 1.34 -0.34 0.68 0 0 Z " fill="#D59043" transform="translate(128,88)"/>
<path d="M0 0 C0.125 2.375 0.125 2.375 0 5 C-2 7 -2 7 -4.383 7.195 C-5.288 7.172 -6.193 7.149 -7.125 7.125 C-7.58 7.116 -7.58 7.116 -9.883 7.07 C-10.581 7.047 -11.28 7.024 -12 7 C-11.404 6.724 -10.809 6.448 -10.195 6.164 C-8.127 5.067 -6.61 3.929 -4.875 2.375 C-2 0 -2 0 0 0 Z " fill="#EFB569" transform="translate(71,93)"/>
<path d="M0 0 C0.33 0 0.66 0 1 0 C1.081 1.603 1.139 3.208 1.188 4.812 C1.222 5.706 1.257 6.599 1.293 7.52 C1 10 1 10 -0.312 11.812 C-2.825 13.58 -5.017 13.199 -8 13 C-8 11.35 -8 9.7 -8 8 C-6.02 8.66 -4.04 9.32 -2 10 C-2 9.34 -2 8.68 -2 8 C-1.34 8 -0.68 8 0 8 C0 5.36 0 2.72 0 0 Z " fill="#43280E" transform="translate(60,64)"/>
<path d="M0 0 C0.33 0 0.66 0 1 0 C1 2.64 1 5.28 1 8 C-0.155 8.495 -0.155 8.495 -6 11 C-6.33 9.02 -6.66 7.04 -7 5 C-6.01 5.33 -5.02 5.66 -4 6 C-1.752 3.948 -0.998 2.993 0 0 Z " fill="#DC9D4E" transform="translate(84,155)"/>
<path d="M0 0 C0.66 0 1.32 0 2 0 C2 0.66 2 1.32 2 2 C2.99 2 3.98 2 5 2 C5.125 6.75 5.125 6.75 4 9 C4 9.99 4 10.98 4 12 C3.01 12.33 2.02 12.66 1 13 C0.34 11.35 -0.32 9.7 -1 8 C-0.34 7.67 0.32 7.34 1 7 C0.67 4.69 0.34 2.38 0 0 Z " fill="#EDB161" transform="translate(54,139)"/>
<path d="M0 0 C1.297 2.595 0.942 4.127 0.66 7.008 C0.567 7.994 0.473 8.98 0.377 9.996 C0.325 10.512 0.325 10.512 0.062 13.125 C-0.037 14.165 -0.137 15.206 -0.24 16.277 C-0.488 18.852 -0.742 21.426 -1 24 C-1.33 24 -1.66 24 -2 24 C-3.481 15.115 -3.277 8.426 0 0 Z " fill="#EEAB52" transform="translate(39,55)"/>
<path d="M0 0 C0.125 2.375 0.125 2.375 0 5 C-3.094 8.094 -6.552 8.937 -10.875 9.125 C-11.576 9.084 -12.278 9.042 -13 9 C-12.722 8.887 -12.722 8.887 -11.312 8.312 C-8.367 6.641 -6.357 4.417 -4 2 C-1 0 -1 0 0 0 Z " fill="#EEB263" transform="translate(135,183)"/>
<path d="M0 0 C0.99 0 1.98 0 3 0 C3.66 1.98 4.32 3.96 5 6 C4 7 4 7 1.438 7.062 C1.035 7.052 1.035 7.052 -1 7 C-1.625 5.188 -1.625 5.188 -2 3 C-1.34 2.01 -0.68 1.02 0 0 Z " fill="#D18B37" transform="translate(146,179)"/>
<path d="M0 0 C0.33 0.99 0.66 1.98 1 3 C-7.736 8.875 -7.736 8.875 -12 9 C-12.66 8.34 -13.32 7.68 -14 7 C-13.325 6.746 -12.649 6.492 -11.953 6.23 C-11.061 5.886 -10.169 5.542 -9.25 5.188 C-8.368 4.851 -7.487 4.515 -6.578 4.168 C-4.07 3.032 -2.127 1.735 0 0 Z " fill="#C98338" transform="translate(99,116)"/>
<path d="M0 0 C2.64 0 5.28 0 8 0 C7.01 0.33 6.02 0.66 5 1 C5.33 3.97 5.66 6.94 6 10 C5.01 9.835 5.01 9.835 0 9 C0.66 8.01 1.32 7.02 2 6 C2.385 4.345 2.728 2.678 3 1 C2.01 0.67 1.02 0.34 0 0 Z " fill="#6D3213" transform="translate(68,92)"/>
<path d="M0 0 C0.33 0 0.66 0 1 0 C1 2.64 1 5.28 1 8 C-2.54 8 -3.495 7.418 -6 5 C-6 3.68 -6 2.36 -6 1 C-5.34 1.33 -5.34 1.33 -2 3 C-1.34 2.01 -0.68 1.02 0 0 Z " fill="#D57E4A" transform="translate(65,107)"/>
<path d="M0 0 C0.33 0 0.66 0 1 0 C1 3.96 1 7.92 1 12 C-3 10 -3 10 -3.75 7.875 C-3.832 7.256 -3.915 6.638 -4 6 C-3.34 5.67 -2.68 5.34 -2 5 C-1.278 3.356 -0.606 1.689 0 0 Z " fill="#DF902F" transform="translate(29,81)"/>
<path d="M0 0 C0.66 0.33 1.32 0.66 2 1 C1.34 3.97 0.68 6.94 0 10 C-4.875 9.125 -4.875 9.125 -6 8 C-6.041 6 -6.043 4 -6 2 C-5.34 3.32 -4.68 4.64 -4 6 C-3.34 6 -2.68 6 -2 6 C-1.34 4.02 -0.68 2.04 0 0 Z " fill="#C07F30" transform="translate(114,184)"/>
<path d="M0 0 C0.99 0.33 1.98 0.66 3 1 C2.67 1.66 2.34 2.32 2 3 C1.34 3 0.68 3 0 3 C0.186 4.072 0.371 5.145 0.562 6.25 C0.93 9.404 1.045 11.098 0 14 C-1.812 14.625 -1.812 14.625 -4 15 C-4.99 14.34 -5.98 13.68 -7 13 C-5.35 13 -3.7 13 -2 13 C-1.269 10.157 -0.941 8.274 -1.562 5.375 C-2 3 -2 3 0 0 Z " fill="#D99A4D" transform="translate(142,178)"/>
<path d="M0 0 C1 2 2 4 3 6 C3.99 6.33 4.98 6.66 6 7 C6 5.02 6 3.04 6 1 C7.777 3.666 8.875 6.028 10 9 C3.622 9.361 3.622 9.361 1.062 7.875 C-0.445 5.215 -0.2 2.998 0 0 Z " fill="#B17A3C" transform="translate(76,190)"/>
<path d="M0 0 C0.33 1.65 0.66 3.3 1 5 C1.99 5 2.98 5 4 5 C4 5.66 4 6.32 4 7 C2.68 7.33 1.36 7.66 0 8 C-0.33 7.34 -0.66 6.68 -1 6 C-2.979 5.273 -4.98 4.602 -7 4 C-7 3.34 -7 2.68 -7 2 C-2.25 0 -2.25 0 0 0 Z " fill="#9A4915" transform="translate(71,120)"/>
<path d="M0 0 C0.99 0.33 1.98 0.66 3 1 C3.66 4.63 4.32 8.26 5 12 C3.68 11.67 2.36 11.34 1 11 C0 6.25 0 6.25 0 4 C-0.66 3.01 -1.32 2.02 -2 1 C-1.34 0.67 -0.68 0.34 0 0 Z " fill="#F0BA71" transform="translate(120,43)"/>
<path d="M0 0 C0.33 0 0.66 0 1 0 C1 1.98 1 3.96 1 6 C3.97 6 6.94 6 10 6 C10 6.66 10 7.32 10 8 C8.02 8.165 8.02 8.165 -2 9 C-1.34 6.03 -0.68 3.06 0 0 Z " fill="#9B601E" transform="translate(67,182)"/>
<path d="M0 0 C1.817 3.633 3.419 7.262 5 11 C4.34 11.66 3.68 12.32 3 13 C1.68 12.34 0.36 11.68 -1 11 C-1 10.34 -1 9.68 -1 9 C-0.34 9 0.32 9 1 9 C0.67 6.03 0.34 3.06 0 0 Z " fill="#E2A150" transform="translate(57,142)"/>
<path d="M0 0 C0.636 0.051 0.636 0.051 3.855 0.309 C4.831 0.392 5.807 0.476 6.812 0.562 C6.812 0.892 6.812 1.222 6.812 1.562 C4.751 1.901 2.688 2.233 0.625 2.562 C0.051 2.655 0.051 2.655 -2.855 3.125 C-5.692 3.497 -8.335 3.648 -11.188 3.562 C-10.858 2.573 -10.528 1.582 -10.188 0.562 C-6.518 -0.661 -3.848 -0.318 0 0 Z " fill="#F6C478" transform="translate(71.1875,71.4375)"/>
<path d="M0 0 C0.66 0.33 1.32 0.66 2 1 C1.67 2.32 1.34 3.64 1 5 C3.631 6.316 6.051 7 9 7 C9 7.99 9 8.98 9 10 C6.69 10 4.38 10 2 10 C1.47 8.712 0.951 7.42 0.438 6.125 C0.147 5.406 -0.143 4.686 -0.441 3.945 C-1 2 -1 2 0 0 Z " fill="#E7AB5C" transform="translate(83,188)"/>
<path d="M0 0 C0.557 0.289 1.114 0.578 1.688 0.875 C4.085 2.041 6.516 3.034 9 4 C9 4.33 9 4.66 9 5 C7.35 5 5.7 5 4 5 C4.33 5.99 4.66 6.98 5 8 C2.464 6.985 1.206 6.315 -0.312 4 C-0.539 3.34 -0.766 2.68 -1 2 C-0.67 1.34 -0.34 0.68 0 0 Z " fill="#F6EFE4" transform="translate(113,98)"/>
<path d="M0 0 C0.551 0.006 0.551 0.006 3.34 0.035 C3.892 0.04 3.892 0.04 6.688 0.062 C7.542 0.074 8.397 0.086 9.277 0.098 C7.586 2.14 6.64 3.016 4.016 3.609 C3.215 3.667 2.415 3.725 1.59 3.785 C1.186 3.818 1.186 3.818 -0.859 3.984 C-1.474 4.022 -2.089 4.059 -2.723 4.098 C-3.053 3.108 -3.383 2.118 -3.723 1.098 C-2.723 0.098 -2.723 0.098 0 0 Z " fill="#7F6C50" transform="translate(68.72265625,77.90234375)"/>
<path d="M0 0 C0.99 0.33 1.98 0.66 3 1 C3.348 5.877 2.417 8.771 0 13 C-0.967 9.878 -0.99 7.479 -0.562 4.25 C-0.461 3.451 -0.359 2.652 -0.254 1.828 C-0.17 1.225 -0.086 0.622 0 0 Z " fill="#FABC65" transform="translate(33,67)"/>
<path d="M0 0 C0 0.66 0 1.32 0 2 C-1.176 2.433 -2.351 2.866 -3.562 3.312 C-7.43 4.76 -11.217 6.345 -15 8 C-15 6 -15 6 -13 4 C-9.005 1.337 -4.881 0 0 0 Z " fill="#EAAF5F" transform="translate(116,114)"/>
<path d="M0 0 C0.33 0.99 0.66 1.98 1 3 C-0.312 5.188 -0.312 5.188 -2 7 C-2.66 7 -3.32 7 -4 7 C-2.926 4.085 -2.222 2.222 0 0 Z M-8 7 C-5.75 7.25 -5.75 7.25 -4 8 C-4.32 8.144 -4.32 8.144 -5.938 8.875 C-8 10 -8 10 -9 12 C-9.99 11.67 -10.98 11.34 -12 11 C-10.25 8.938 -10.25 8.938 -8 7 Z " fill="#CB8637" transform="translate(112,104)"/>
<path d="M0 0 C0.125 5.75 0.125 5.75 -1 8 C-0.34 8 0.32 8 1 8 C0.67 8.66 0.34 9.32 0 10 C-0.66 10 -1.32 10 -2 10 C-4 8 -4 8 -4.312 5 C-4.209 4.01 -4.106 3.02 -4 2 C-1 0 -1 0 0 0 Z " fill="#F9BC67" transform="translate(34,55)"/>
<path d="M0 0 C0.734 1.672 0.734 1.672 1 4 C-0.547 6.578 -0.547 6.578 -2.75 9.25 C-3.467 10.142 -4.183 11.034 -4.922 11.953 C-7 14 -7 14 -10 14 C-9.518 13.481 -9.036 12.961 -8.539 12.426 C-2.413 5.662 -2.413 5.662 -1 1 C-0.67 0.67 -0.34 0.34 0 0 Z " fill="#E6A04B" transform="translate(33,47)"/>
<path d="M0 0 C1.32 0.66 2.64 1.32 4 2 C3.691 2.846 3.381 3.691 3.062 4.562 C1.985 8.05 1.434 11.382 1 15 C0.67 15 0.34 15 0 15 C0.006 14.693 0.006 14.693 0.035 13.137 C0.044 12.328 0.053 11.52 0.062 10.688 C0.074 9.887 0.086 9.086 0.098 8.262 C0 6 0 6 -1 3 C-0.67 2.01 -0.34 1.02 0 0 Z " fill="#E7AF69" transform="translate(44,121)"/>
<path d="M0 0 C0.99 0.33 1.98 0.66 3 1 C-1.818 11.927 -1.818 11.927 -7 14 C-7.33 13.34 -7.66 12.68 -8 12 C-7.237 11.876 -6.474 11.752 -5.688 11.625 C-1.805 9.278 -1.57 6.368 -0.48 2.117 C-0.322 1.419 -0.163 0.72 0 0 Z " fill="#AD6A23" transform="translate(95,88)"/>
<path d="M0 0 C2.626 -0.081 5.249 -0.14 7.875 -0.188 C8.248 -0.2 8.248 -0.2 10.137 -0.264 C12.305 -0.293 12.305 -0.293 16 0 C16.66 0.99 17.32 1.98 18 3 C17.072 2.856 16.144 2.711 15.188 2.562 C10.146 1.836 5.074 1.431 0 1 C0 0.67 0 0.34 0 0 Z " fill="#D2B99C" transform="translate(60,195)"/>
<path d="M0 0 C1.98 0 3.96 0 6 0 C6 1.65 6 3.3 6 5 C4.35 5 2.7 5 1 5 C0.67 3.35 0.34 1.7 0 0 Z " fill="#E0A04D" transform="translate(114,190)"/>
<path d="M0 0 C0.99 0 1.98 0 3 0 C3 0.66 3 1.32 3 2 C3.66 2.33 4.32 2.66 5 3 C-0.75 6.875 -0.75 6.875 -3 8 C-2.453 4.625 -1.945 2.918 0 0 Z " fill="#F0BA70" transform="translate(37,40)"/>
<path d="M0 0 C0.825 0.165 0.825 0.165 5 1 C5 2.32 5 3.64 5 5 C5.66 5.33 6.32 5.66 7 6 C6.34 6.33 6.34 6.33 3 8 C0 3.375 0 3.375 0 0 Z " fill="#F2C079" transform="translate(45,118)"/>
<path d="M0 0 C0.66 0 1.32 0 2 0 C2 0.66 2 1.32 2 2 C3.32 2.33 4.64 2.66 6 3 C3.435 5.565 1.523 5.54 -2 6 C-1.125 1.125 -1.125 1.125 0 0 Z " fill="#43321E" transform="translate(64,80)"/>
<path d="M0 0 C3.63 0 7.26 0 11 0 C11 1.32 11 2.64 11 4 C3.375 3.375 3.375 3.375 0 0 Z " fill="#483926" transform="translate(69,79)"/>
<path d="M0 0 C0.99 0.165 0.99 0.165 6 1 C5.67 2.32 5.34 3.64 5 5 C3.02 5 1.04 5 -1 5 C-0.67 3.35 -0.34 1.7 0 0 Z " fill="#74726F" transform="translate(90,63)"/>
<path d="M0 0 C2.25 -0.25 2.25 -0.25 5 0 C7.312 2 7.312 2 9 4 C8.67 4.66 8.34 5.32 8 6 C5.36 5.01 2.72 4.02 0 3 C0 2.01 0 1.02 0 0 Z " fill="#EBA44B" transform="translate(92,48)"/>
<path d="M0 0 C0.402 0.01 0.402 0.01 2.438 0.062 C2.438 1.053 2.438 2.042 2.438 3.062 C-0.203 3.722 -2.843 4.383 -5.562 5.062 C-3.15 0.077 -3.15 0.077 0 0 Z " fill="#F0AF5C" transform="translate(55.5625,47.9375)"/>
<path d="M0 0 C2.31 0 4.62 0 7 0 C7 0.66 7 1.32 7 2 C7.99 2.33 8.98 2.66 10 3 C10 3.66 10 4.32 10 5 C6.37 4.01 2.74 3.02 -1 2 C-0.67 1.34 -0.34 0.68 0 0 Z " fill="#CB893C" transform="translate(124,179)"/>
<path d="M0 0 C0.33 0 0.66 0 1 0 C1.33 4.29 1.66 8.58 2 13 C1.67 13.165 1.67 13.165 0 14 C-2.29 10.565 -2.178 9.015 -2 5 C-1.67 5 -1.34 5 -1 5 C-0.67 3.35 -0.34 1.7 0 0 Z " fill="#E09E48" transform="translate(118,141)"/>
<path d="M0 0 C1.625 1 1.625 1 3 3 C2.65 5.816 1.85 8.272 1 11 C0.34 10.67 -0.32 10.34 -1 10 C-1.027 8.521 -1.046 7.042 -1.062 5.562 C-1.074 4.739 -1.086 3.915 -1.098 3.066 C-1 1 -1 1 0 0 Z " fill="#1A150B" transform="translate(51,64)"/>
<path d="M0 0 C1.98 0.66 3.96 1.32 6 2 C5.67 3.65 5.34 5.3 5 7 C4.01 7.33 3.02 7.66 2 8 C1.34 5.36 0.68 2.72 0 0 Z " fill="#F0B362" transform="translate(108,50)"/>
<path d="M0 0 C1.65 1.65 3.3 3.3 5 5 C4.67 5.66 4.34 6.32 4 7 C2.02 6.34 0.04 5.68 -2 5 C-2 3.68 -2 2.36 -2 1 C-1.34 0.67 -0.68 0.34 0 0 Z " fill="#F6C57B" transform="translate(158,175)"/>
<path d="M0 0 C3.816 2.544 4.523 4.718 6 9 C5.578 11.227 5.578 11.227 5 13 C0.592 4.738 0.592 4.738 0 0 Z " fill="#E4A04A" transform="translate(59,156)"/>
<path d="M0 0 C0.66 0.33 1.32 0.66 2 1 C1.67 4.3 1.34 7.6 1 11 C0.34 11 -0.32 11 -1 11 C-2.386 8.229 -2.188 6.067 -2 3 C-1.34 2.01 -0.68 1.02 0 0 Z " fill="#F1AA21" transform="translate(68,128)"/>
<path d="M0 0 C2 2 2 2 2 5 C-1.508 6.604 -4.144 7.22 -8 7 C-5 5 -5 5 -2 5 C-1.856 4.361 -1.711 3.721 -1.562 3.062 C-1 1 -1 1 0 0 Z " fill="#AD3113" transform="translate(90,115)"/>
<path d="M0 0 C1.98 0 3.96 0 6 0 C5.34 2.64 4.68 5.28 4 8 C3.34 7.67 2.68 7.34 2 7 C1.269 4.686 0.599 2.352 0 0 Z " fill="#532407" transform="translate(61,101)"/>
<path d="M0 0 C0.33 0 0.66 0 1 0 C1.312 2.688 1.312 2.688 1 6 C-1.5 8.875 -1.5 8.875 -4 11 C-4 9.35 -4 7.7 -4 6 C-3.01 5.67 -2.02 5.34 -1 5 C-0.67 3.35 -0.34 1.7 0 0 Z " fill="#EDA74A" transform="translate(35,85)"/>
<path d="M0 0 C0.33 0 0.66 0 1 0 C1 2.31 1 4.62 1 7 C1.99 7 2.98 7 4 7 C4 7.66 4 8.32 4 9 C5.32 9.33 6.64 9.66 8 10 C6.02 10.33 4.04 10.66 2 11 C-0.679 6.981 -0.156 4.758 0 0 Z " fill="#4B2D12" transform="translate(88,66)"/>
<path d="M0 0 C0.66 1.32 1.32 2.64 2 4 C2.99 4 3.98 4 5 4 C5 5.65 5 7.3 5 9 C3.062 8.625 3.062 8.625 1 8 C-0.354 5.291 -0.065 2.991 0 0 Z " fill="#E7A754" transform="translate(77,188)"/>
<path d="M0 0 C2.64 0 5.28 0 8 0 C7.67 0.99 7.34 1.98 7 3 C4.69 3 2.38 3 0 3 C0 2.01 0 1.02 0 0 Z " fill="#B79873" transform="translate(66,190)"/>
<path d="M0 0 C0.99 0.33 1.98 0.66 3 1 C0.592 3.408 -1.422 4.008 -4.625 5.125 C-5.628 5.478 -6.631 5.831 -7.664 6.195 C-8.049 6.328 -8.049 6.328 -10 7 C-10.33 6.34 -10.66 5.68 -11 5 C-4.5 2 -4.5 2 0 2 C0 1.34 0 0.68 0 0 Z " fill="#EEE0CF" transform="translate(151,189)"/>
<path d="M0 0 C0.66 0.33 1.32 0.66 2 1 C1.505 2.32 1.505 2.32 -1 9 C-1.66 9 -2.32 9 -3 9 C-2.25 2.25 -2.25 2.25 0 0 Z " fill="#DF9F4E" transform="translate(110,170)"/>
<path d="M0 0 C1.129 0.933 2.253 1.871 3.375 2.812 C4.001 3.335 4.628 3.857 5.273 4.395 C7 6 7 6 9 9 C8.01 9 7.02 9 6 9 C6 8.34 6 7.68 6 7 C5.381 6.773 4.763 6.546 4.125 6.312 C1.386 4.621 0.95 3.008 0 0 Z " fill="#C88231" transform="translate(63,156)"/>
<path d="M0 0 C0.66 0.33 1.32 0.66 2 1 C1.711 1.557 1.422 2.114 1.125 2.688 C-0.041 5.085 -1.034 7.516 -2 10 C-1.34 10 -0.68 10 0 10 C-0.33 10.66 -0.66 11.32 -1 12 C-1.66 12 -2.32 12 -3 12 C-3.295 6.977 -2.985 4.105 0 0 Z " fill="#F0B463" transform="translate(123,151)"/>
<path d="M0 0 C0.99 0.33 1.98 0.66 3 1 C0.227 4.081 -2.063 5.688 -6 7 C-5.67 5.68 -5.34 4.36 -5 3 C-3.68 3 -2.36 3 -1 3 C-0.67 2.01 -0.34 1.02 0 0 Z " fill="#D59646" transform="translate(85,124)"/>
<path d="M0 0 C1.32 1.32 2.64 2.64 4 4 C1.03 4.66 -1.94 5.32 -5 6 C-3 2 -3 2 0 0 Z " fill="#CA8233" transform="translate(88,109)"/>
<path d="M0 0 C1.938 0.625 1.938 0.625 4 2 C4.75 5.125 4.75 5.125 5 8 C3.68 8 2.36 8 1 8 C0 2.25 0 2.25 0 0 Z " fill="#ECAD59" transform="translate(38,90)"/>
<path d="M0 0 C0.33 0 0.66 0 1 0 C1.33 2.64 1.66 5.28 2 8 C1.01 8.33 0.02 8.66 -1 9 C-1.66 9.66 -2.32 10.32 -3 11 C-2.328 7.194 -1.273 3.648 0 0 Z " fill="#AD6C23" transform="translate(111,172)"/>
<path d="M0 0 C0.66 0.165 0.66 0.165 4 1 C3.436 4.27 2.5 5.826 0 8 C-1.097 4.71 -0.8 3.287 0 0 Z " fill="#ECB05F" transform="translate(88,147)"/>
<path d="M0 0 C0.825 0.165 0.825 0.165 5 1 C4 4 4 4 2 7 C1.34 7 0.68 7 0 7 C0 4.69 0 2.38 0 0 Z " fill="#FACC85" transform="translate(68,142)"/>
<path d="M0 0 C1.675 0.286 3.344 0.618 5 1 C5 1.99 5 2.98 5 4 C5.66 4.33 6.32 4.66 7 5 C5.68 5.33 4.36 5.66 3 6 C2.333 4.667 1.667 3.333 1 2 C0.34 1.67 -0.32 1.34 -1 1 C-0.67 0.67 -0.34 0.34 0 0 Z " fill="#D48F31" transform="translate(66,125)"/>
<path d="M0 0 C1.32 0.99 2.64 1.98 4 3 C3.67 3.99 3.34 4.98 3 6 C1.68 6 0.36 6 -1 6 C-1.043 4.334 -1.041 2.666 -1 1 C-0.67 0.67 -0.34 0.34 0 0 Z " fill="#0A0703" transform="translate(90,67)"/>
<path d="M0 0 C0.33 0.66 0.66 1.32 1 2 C0.34 1.67 -0.32 1.34 -1 1 C-0.67 0.67 -0.34 0.34 0 0 Z M1 4 C0.67 4.66 0.34 5.32 0 6 C-0.742 5.814 -1.485 5.629 -2.25 5.438 C-4.95 5.008 -6.446 5.149 -9 6 C-7 3 -7 3 -5.125 2.188 C-2.501 1.956 -1.22 2.652 1 4 Z " fill="#FCD18F" transform="translate(59,49)"/>
<path d="M0 0 C0.928 0.206 1.856 0.412 2.812 0.625 C2.812 1.285 2.812 1.945 2.812 2.625 C0.024 3.658 -1.055 3.67 -3.938 2.688 C-4.68 2.337 -5.423 1.986 -6.188 1.625 C-3.188 -0.375 -3.188 -0.375 0 0 Z " fill="#F3BA6A" transform="translate(155.1875,173.375)"/>
<path d="M0 0 C0.99 0.33 1.98 0.66 3 1 C0.375 6.75 0.375 6.75 -3 9 C-2 7 -1 5 0 3 C-0.66 2.67 -1.32 2.34 -2 2 C-1.34 1.34 -0.68 0.68 0 0 Z " fill="#8B300C" transform="translate(103,106)"/>
<path d="M0 0 C-0.66 0.99 -0.66 0.99 -4 6 C-6 2.25 -6 2.25 -6 0 C-3 -1 -3 -1 0 0 Z " fill="#401904" transform="translate(88,102)"/>
<path d="M0 0 C0.66 0.66 1.32 1.32 2 2 C0.793 3.52 0.793 3.52 -1 5 C-3.262 5.074 -3.262 5.074 -5.688 4.688 C-6.496 4.568 -7.304 4.448 -8.137 4.324 C-8.752 4.217 -9.366 4.11 -10 4 C-9.67 3.34 -9.34 2.68 -9 2 C-8.536 2.021 -8.536 2.021 -6.188 2.125 C-3 2 -3 2 0 0 Z " fill="#FBD28F" transform="translate(50,37)"/>
<path d="M0 0 C2.97 0 5.94 0 9 0 C6.64 2.097 5.454 2.969 2.25 3.188 C1.879 3.157 1.879 3.157 0 3 C0 2.01 0 1.02 0 0 Z " fill="#F2E5D3" transform="translate(127,196)"/>
<path d="M0 0 C1.815 0.33 1.815 0.33 11 2 C6.82 4.786 4.853 3.796 0 3 C0 2.01 0 1.02 0 0 Z " fill="#833915" transform="translate(74,99)"/>
<path d="M0 0 C0.33 0 0.66 0 1 0 C1.33 1.65 1.66 3.3 2 5 C2.99 5.33 3.98 5.66 5 6 C5 6.66 5 7.32 5 8 C3.062 8.562 3.062 8.562 1 9 C0 8 0 8 -0.098 6.152 C-0.065 4.102 -0.033 2.051 0 0 Z " fill="#EFA84E" transform="translate(114,85)"/>
<path d="M0 0 C1.765 3.088 2 4.233 2 8 C2.99 8.33 3.98 8.66 5 9 C3.062 9.562 3.062 9.562 1 10 C0 9 0 9 -0.098 6.934 C-0.086 6.11 -0.074 5.286 -0.062 4.438 C-0.053 3.611 -0.044 2.785 -0.035 1.934 C-0.024 1.296 -0.012 0.657 0 0 Z " fill="#F6BE6F" transform="translate(38,81)"/>
<path d="M0 0 C2.007 0.287 4.009 0.619 6 1 C5.34 1.99 5.34 1.99 2 7 C0 4 0 4 -1 1 C-0.67 0.67 -0.34 0.34 0 0 Z " fill="#F2BA68" transform="translate(19,64)"/>
<path d="M0 0 C0.99 0 1.98 0 3 0 C3.33 1.32 3.66 2.64 4 4 C2.02 4.33 0.04 4.66 -2 5 C-1.125 1.125 -1.125 1.125 0 0 Z " fill="#F0B767" transform="translate(42,188)"/>
<path d="M0 0 C0.33 0.66 0.66 1.32 1 2 C-0.25 3.562 -0.25 3.562 -2 5 C-4.188 4.688 -4.188 4.688 -6 4 C-5.34 4 -4.68 4 -4 4 C-4 3.01 -4 2.02 -4 1 C-2.68 0.67 -1.36 0.34 0 0 Z " fill="#D8A05E" transform="translate(163,183)"/>
<path d="M0 0 C1.442 2.884 1.588 5.824 2 9 C1.01 9.33 0.02 9.66 -1 10 C-1.33 7.03 -1.66 4.06 -2 1 C-1.34 0.67 -0.68 0.34 0 0 Z " fill="#EBAB58" transform="translate(121,162)"/>
<path d="M0 0 C0.66 0 1.32 0 2 0 C2 0.66 2 1.32 2 2 C2.66 2 3.32 2 4 2 C4 2.66 4 3.32 4 4 C3.34 4 2.68 4 2 4 C2 4.66 2 5.32 2 6 C1.34 6 0.68 6 0 6 C-1.125 2.25 -1.125 2.25 0 0 Z " fill="#F9C63A" transform="translate(69,131)"/>
<path d="M0 0 C1.98 0 3.96 0 6 0 C5.34 1.65 4.68 3.3 4 5 C2.646 3.688 1.313 2.354 0 1 C0 0.67 0 0.34 0 0 Z " fill="#E6AB5A" transform="translate(61,127)"/>
<path d="M0 0 C1.65 0 3.3 0 5 0 C5.66 1.65 6.32 3.3 7 5 C6.01 4.67 5.02 4.34 4 4 C3.67 4.165 3.67 4.165 2 5 C2 3.68 2 2.36 2 1 C1.34 0.67 0.68 0.34 0 0 Z " fill="#F0B66B" transform="translate(52,125)"/>
<path d="M0 0 C-0.66 1.32 -1.32 2.64 -2 4 C-3.98 3.34 -5.96 2.68 -8 2 C-4.912 0.235 -3.767 0 0 0 Z " fill="#AB3B15" transform="translate(103,109)"/>
<path d="M0 0 C0.66 0.33 1.32 0.66 2 1 C-1.625 5.875 -1.625 5.875 -5 7 C-3.75 3.347 -3.329 2.219 0 0 Z " fill="#D79448" transform="translate(90,100)"/>
<path d="M0 0 C0.66 0 1.32 0 2 0 C1.01 2.97 0.02 5.94 -1 9 C-1.66 8.34 -2.32 7.68 -3 7 C-2.67 3.703 -2.377 2.377 0 0 Z " fill="#F0D195" transform="translate(63,78)"/>
<path d="M0 0 C0.66 0 1.32 0 2 0 C3.327 3.981 3.069 7.85 3 12 C2.67 12 2.34 12 2 12 C1.512 10.014 1.023 8.029 0.535 6.043 C0.09 4.343 -0.444 2.667 -1 1 C-0.67 0.67 -0.34 0.34 0 0 Z " fill="#DC9848" transform="translate(135,65)"/>
<path d="M0 0 C1.98 0 3.96 0 6 0 C5.67 0.99 5.34 1.98 5 3 C2.938 3.688 2.938 3.688 1 4 C0.67 2.68 0.34 1.36 0 0 Z " fill="#EAB062" transform="translate(94,194)"/>
<path d="M0 0 C3.3 0 6.6 0 10 0 C10 0.33 10 0.66 10 1 C8.928 1.144 7.855 1.289 6.75 1.438 C4.083 1.837 1.586 2.276 -1 3 C-0.67 2.01 -0.34 1.02 0 0 Z " fill="#DBC1A4" transform="translate(144,188)"/>
<path d="M0 0 C0.33 0 0.66 0 1 0 C1 1.98 1 3.96 1 6 C0.67 6.165 0.67 6.165 -1 7 C-1 6.34 -1 5.68 -1 5 C-1.66 5 -2.32 5 -3 5 C-1.125 1.125 -1.125 1.125 0 0 Z " fill="#ECB365" transform="translate(82,145)"/>
</svg>
