<?xml version="1.0" encoding="UTF-8"?>
<!-- Generator: visioncortex VTracer 0.6.12 -->
<svg version="1.1" xmlns="http://www.w3.org/2000/svg" width="180" height="210">
<path d="M0 0 C59.4 0 118.8 0 180 0 C180 69.3 180 138.6 180 210 C120.6 210 61.2 210 0 210 C0 140.7 0 71.4 0 0 Z " fill="#FCF8F1" transform="translate(0,0)"/>
<path d="M0 0 C2.953 2.031 2.953 2.031 5 4 C4.812 6.25 4.812 6.25 4 9 C2.346 10.349 0.678 11.681 -1 13 C-4.13 17.425 -4.815 21.831 -4.672 27.152 C-3.603 31.682 -0.75 34.068 2.484 37.277 C17.435 53.458 22.917 77.245 22.34 98.621 C22.038 104.821 21.026 110.74 19.656 116.785 C18.527 122.316 18.527 122.316 19 125 C21.195 127.254 21.195 127.254 24.125 129.562 C30.436 134.877 34.988 141.135 36.426 149.469 C36.5 151.625 36.5 151.625 36 155 C35.34 155.66 34.68 156.32 34 157 C31.875 156.625 31.875 156.625 30 156 C30 155.34 30 154.68 30 154 C26.798 152.451 24.066 151.868 20.562 151.625 C16.146 151.212 13.432 149.917 10 147 C9.67 146.01 9.34 145.02 9 144 C8.34 144.483 7.68 144.967 7 145.465 C3.315 147.351 0.05 147.484 -4 147.562 C-8.744 147.681 -12.597 148.114 -17 150 C-17.66 149.67 -18.32 149.34 -19 149 C-19.393 142.987 -17.772 140.202 -14.27 135.473 C-9.254 130.009 -2.861 126.623 4 124 C4.66 123.67 5.32 123.34 6 123 C6.33 124.65 6.66 126.3 7 128 C7.99 128.33 8.98 128.66 10 129 C9.147 95.774 9.147 95.774 -3 82 C-4.94 80.504 -6.895 79.267 -9 78 C-7.457 84.123 -5.669 89.109 -1.891 94.211 C-1 96 -1 96 -1.359 98.227 C-1.571 98.812 -1.782 99.397 -2 100 C-9.539 101.759 -13.499 100.277 -20.203 96.543 C-25.469 93.638 -30.447 92.402 -36.312 91.375 C-37.053 91.241 -37.794 91.107 -38.557 90.969 C-40.37 90.641 -42.185 90.32 -44 90 C-43.928 90.362 -43.928 90.362 -43.562 92.195 C-42.604 97.185 -41.724 101.893 -42 107 C-46.712 107.589 -49.222 107.235 -53.125 104.438 C-59.518 99.147 -62.434 94.113 -64 86 C-69.594 86.917 -73.719 88.248 -78.625 91.125 C-82.946 93.591 -85.926 95.036 -91 94 C-93.5 92.312 -93.5 92.312 -95 90 C-95 85.814 -92.718 81.999 -90.938 78.281 C-89.945 75.867 -89.434 73.569 -89 71 C-92.105 71.139 -95.209 71.287 -98.312 71.438 C-99.194 71.477 -100.075 71.516 -100.982 71.557 C-101.83 71.599 -102.678 71.64 -103.551 71.684 C-104.331 71.72 -105.111 71.757 -105.915 71.795 C-108 72 -108 72 -111 73 C-113.737 70.776 -114.889 69.577 -115.562 66.062 C-114.808 61.955 -113.19 60.623 -110 58 C-109.136 57.621 -108.273 57.242 -107.383 56.852 C-105 55 -105 55 -104.285 51.41 C-104.196 49.962 -104.123 48.512 -104.062 47.062 C-103.111 35.474 -99.041 26.952 -90.422 18.969 C-80.36 10.789 -70.623 7.463 -57.75 7.688 C-57.244 7.69 -57.244 7.69 -54.681 7.7 C-49.141 7.77 -44.036 8.217 -38.625 9.375 C-35.305 10.002 -33.654 10.283 -30.539 8.938 C-28.267 7.387 -26.145 5.719 -24 4 C-16.727 -0.661 -8.42 -1.295 0 0 Z " fill="#708995" transform="translate(129,35)"/>
<path d="M0 0 C3.375 0.562 3.375 0.562 5.312 2.062 C5.663 2.558 6.014 3.052 6.375 3.562 C6.045 4.222 5.715 4.882 5.375 5.562 C5.179 5.315 5.179 5.315 4.188 4.062 C2.375 2.562 2.375 2.562 -0.125 2.188 C-2.625 2.562 -2.625 2.562 -4.438 3.688 C-6.16 6.407 -5.954 8.408 -5.625 11.562 C-5.295 12.058 -5.295 12.058 -3.625 14.562 C-0.125 14.875 -0.125 14.875 3.375 14.562 C4.035 13.903 4.695 13.243 5.375 12.562 C8.09 12.297 8.09 12.297 11.312 12.312 C12.373 12.307 13.434 12.302 14.527 12.297 C17.375 12.562 17.375 12.562 20.375 14.562 C21.324 16.875 21.324 16.875 22.062 19.562 C22.314 20.449 22.565 21.336 22.824 22.25 C23.375 24.562 23.375 24.562 23.375 26.562 C24.035 26.562 24.695 26.562 25.375 26.562 C25.366 27.134 25.357 27.705 25.348 28.293 C25.72 38.478 30.951 46.891 37.375 54.562 C36.59 54.43 35.805 54.297 34.996 54.16 C29.463 53.23 23.934 52.321 18.375 51.562 C18.519 52.287 18.664 53.011 18.812 53.758 C19.771 58.747 20.651 63.455 20.375 68.562 C15.663 69.152 13.153 68.797 9.25 66 C2.857 60.71 -0.059 55.675 -1.625 47.562 C-7.219 48.48 -11.344 49.811 -16.25 52.688 C-20.75 55.295 -23.482 56.248 -28.625 55.562 C-28.955 53.912 -29.285 52.263 -29.625 50.562 C-29.342 50.496 -29.342 50.496 -27.91 50.16 C-27.177 49.984 -26.443 49.807 -25.688 49.625 C-24.957 49.451 -24.226 49.277 -23.473 49.098 C-21.625 48.562 -21.625 48.562 -20.625 47.562 C-21.615 47.562 -22.605 47.562 -23.625 47.562 C-23.122 41.273 -21.191 37.743 -17.285 32.902 C-15.075 31.119 -13.738 31.253 -10.938 31.375 C-10.129 31.402 -9.321 31.429 -8.488 31.457 C-7.873 31.492 -7.259 31.527 -6.625 31.562 C-6.359 31.008 -6.094 30.454 -5.82 29.883 C-5.467 29.158 -5.114 28.434 -4.75 27.688 C-4.402 26.968 -4.054 26.249 -3.695 25.508 C-2.625 23.562 -2.625 23.562 -0.625 21.562 C0 19.438 0 19.438 0.375 17.562 C-0.388 17.459 -1.151 17.356 -1.938 17.25 C-4.938 16.482 -5.918 16.122 -7.625 13.562 C-8.625 10.25 -8.625 10.25 -8.625 6.562 C-6.154 2.315 -4.917 0.763 0 0 Z " fill="#DFD9D0" transform="translate(66.625,73.4375)"/>
<path d="M0 0 C1.65 0 3.3 0 5 0 C6.631 6.936 7.353 13.505 7.312 20.625 C7.311 21.576 7.31 22.526 7.309 23.506 C7.21 30.828 6.272 37.655 4.656 44.785 C3.527 50.316 3.527 50.316 4 53 C6.195 55.254 6.195 55.254 9.125 57.562 C15.436 62.877 19.988 69.135 21.426 77.469 C21.5 79.625 21.5 79.625 21 83 C20.34 83.66 19.68 84.32 19 85 C16.875 84.625 16.875 84.625 15 84 C15 83.34 15 82.68 15 82 C11.798 80.451 9.066 79.868 5.562 79.625 C1.146 79.212 -1.568 77.917 -5 75 C-5.33 74.01 -5.66 73.02 -6 72 C-6.33 72.242 -6.33 72.242 -8 73.465 C-11.685 75.351 -14.95 75.484 -19 75.562 C-23.744 75.681 -27.597 76.114 -32 78 C-32.66 77.67 -33.32 77.34 -34 77 C-34.393 70.987 -32.772 68.202 -29.27 63.473 C-24.254 58.009 -17.861 54.623 -11 52 C-10.67 51.835 -10.67 51.835 -9 51 C-8.67 53.97 -8.34 56.94 -8 60 C-6.68 60 -5.36 60 -4 60 C-2.604 57.209 -2.782 54.798 -2.684 51.68 C-2.642 50.423 -2.6 49.166 -2.557 47.871 C-2.517 46.552 -2.478 45.234 -2.438 43.875 C-2.394 42.535 -2.351 41.195 -2.307 39.855 C-2.2 36.57 -2.098 33.285 -2 30 C-1.67 30 -1.34 30 -1 30 C-0.835 30.825 -0.835 30.825 0 35 C2.918 30.933 3.338 28.151 3.188 23.188 C3.16 22.026 3.133 20.865 3.105 19.668 C3.088 19.228 3.088 19.228 3 17 C2.67 17 2.34 17 2 17 C2.033 15.014 2.065 13.029 2.098 11.043 C2 9 2 9 1 6 C1.438 3.812 1.438 3.812 2 2 C1.34 2 0.68 2 0 2 C0 1.34 0 0.68 0 0 Z " fill="#5C707A" transform="translate(144,107)"/>
<path d="M0 0 C0.33 0 0.66 0 1 0 C1.33 3.3 1.66 6.6 2 10 C2.701 9.887 2.701 9.887 6.25 9.312 C10.629 8.836 13.857 9.356 18.062 10.625 C23.386 12.176 26.031 11.665 31.02 9.512 C33 9 33 9 36.562 10.75 C37.367 11.493 38.171 12.235 39 13 C39 13.33 39 13.66 39 14 C38.557 14.103 38.557 14.103 36.312 14.625 C32.774 16.094 31.73 17.544 29.492 20.535 C26.378 23.592 21.322 25 17 25 C17.082 26.134 17.165 27.269 17.25 28.438 C17.282 32.9 15.822 35.997 13.898 39.953 C12.803 42.449 12.511 44.311 13 47 C13.66 47.66 14.32 48.32 15 49 C12.133 48.427 11.139 48.139 9 46 C9.258 41.737 11.246 38.074 13.062 34.281 C14.055 31.867 14.566 29.569 15 27 C11.895 27.139 8.791 27.287 5.688 27.438 C4.806 27.477 3.925 27.516 3.018 27.557 C2.17 27.599 1.322 27.64 0.449 27.684 C-0.331 27.72 -1.111 27.757 -1.915 27.795 C-4 28 -4 28 -7 29 C-9.737 26.776 -10.889 25.577 -11.562 22.062 C-10.808 17.955 -9.19 16.623 -6 14 C-5.546 13.814 -5.546 13.814 -3.25 12.875 C-1 11 -1 11 -0.465 8.371 C-0.211 5.575 -0.052 2.807 0 0 Z " fill="#748C99" transform="translate(25,79)"/>
<path d="M0 0 C2.953 2.031 2.953 2.031 5 4 C4.812 6.25 4.812 6.25 4 9 C2.346 10.349 0.678 11.681 -1 13 C-4.588 18.255 -4.681 23.825 -5 30 C-8.331 28.055 -11.457 25.973 -14.562 23.688 C-21.52 18.772 -29.069 15.077 -37 12 C-36.426 11.729 -35.853 11.459 -35.262 11.18 C-32.963 9.981 -30.932 8.615 -28.812 7.125 C-19.479 0.953 -11.337 -1.744 0 0 Z " fill="#637B88" transform="translate(129,35)"/>
<path d="M0 0 C4.379 1.366 6.358 3.194 9.125 6.812 C9.456 7.239 9.456 7.239 11.133 9.395 C20.227 22.085 19.414 36.021 19 51 C15.151 50.226 15.151 50.226 13.793 48.191 C13.024 46.067 12.633 44.168 12.312 41.938 C11.059 35.792 7.528 31.075 4 26 C3.34 25.01 2.68 24.02 2 23 C3.65 22.34 5.3 21.68 7 21 C6.661 17.38 5.509 15.123 3.5 12.188 C0.784 8.078 0.262 4.883 0 0 Z " fill="#CCCAC3" transform="translate(120,113)"/>
<path d="M0 0 C7.307 0.46 13.998 1.883 21 4 C20.988 4.617 20.977 5.235 20.965 5.871 C20.903 11.675 21.257 17.243 22 23 C17.288 23.589 14.778 23.235 10.875 20.438 C5.403 15.93 1.702 10.963 0 4 C0 2.68 0 1.36 0 0 Z " fill="#4C5F68" transform="translate(65,119)"/>
<path d="M0 0 C3.375 0.562 3.375 0.562 5.312 2.062 C5.663 2.558 6.014 3.052 6.375 3.562 C6.045 4.222 5.715 4.882 5.375 5.562 C4.983 5.067 4.591 4.573 4.188 4.062 C2.375 2.562 2.375 2.562 -0.125 2.188 C-2.625 2.562 -2.625 2.562 -4.438 3.688 C-6.16 6.407 -5.954 8.408 -5.625 11.562 C-5.295 12.058 -5.295 12.058 -3.625 14.562 C-0.125 14.875 -0.125 14.875 3.375 14.562 C4.035 13.903 4.695 13.243 5.375 12.562 C8.09 12.297 8.09 12.297 11.312 12.312 C12.373 12.307 13.434 12.302 14.527 12.297 C17.375 12.562 17.375 12.562 20.375 14.562 C21.324 16.875 21.324 16.875 22.062 19.562 C22.314 20.449 22.565 21.336 22.824 22.25 C23.375 24.563 23.375 24.563 23.375 26.562 C24.035 26.562 24.695 26.562 25.375 26.562 C25.21 27.388 25.21 27.388 24.375 31.562 C23.385 31.233 22.395 30.903 21.375 30.562 C21.375 28.912 21.375 27.263 21.375 25.562 C20.488 25.604 19.601 25.645 18.688 25.688 C12.887 25.688 7.023 24.842 1.375 23.562 C0.715 22.903 0.055 22.243 -0.625 21.562 C-0.25 19.438 -0.25 19.438 0.375 17.562 C-0.388 17.459 -1.151 17.356 -1.938 17.25 C-4.938 16.482 -5.918 16.122 -7.625 13.562 C-8.625 10.25 -8.625 10.25 -8.625 6.562 C-6.154 2.315 -4.917 0.763 0 0 Z " fill="#9CAAB1" transform="translate(66.625,73.4375)"/>
<path d="M0 0 C1.32 0 2.64 0 4 0 C3.356 3.012 2.35 5.517 0.938 8.25 C0.575 8.956 0.213 9.663 -0.16 10.391 C-0.437 10.922 -0.714 11.453 -1 12 C-1.592 11.93 -2.183 11.861 -2.793 11.789 C-7.333 11.478 -9.29 11.398 -12.875 14.438 C-15.509 18.238 -16.791 22.576 -18 27 C-16.02 26.34 -14.04 25.68 -12 25 C-14.518 28.123 -15.726 28.945 -19.75 29.75 C-20.286 29.791 -20.286 29.791 -23 30 C-24 27 -24 27 -23.258 25.02 C-22.509 23.561 -21.759 22.102 -21.008 20.645 C-19.656 17.096 -19.375 13.777 -19 10 C-17.964 9.613 -16.927 9.227 -15.859 8.828 C-14.489 8.303 -13.12 7.777 -11.75 7.25 C-11.409 7.124 -11.409 7.124 -9.684 6.484 C-5.53 4.871 -3.153 3.209 0 0 Z " fill="#721B13" transform="translate(61,94)"/>
<path d="M0 0 C2 2 2 2 2.125 4.25 C0.617 7.937 -1.64 9.272 -4.855 11.508 C-7.726 13.505 -10.337 15.737 -13 18 C-13.66 17.67 -14.32 17.34 -15 17 C-15 16.34 -15 15.68 -15 15 C-15.66 15 -16.32 15 -17 15 C-17.33 14.34 -17.66 13.68 -18 13 C-18.66 14.32 -19.32 15.64 -20 17 C-20.124 16.381 -20.248 15.763 -20.375 15.125 C-21 13 -21 13 -23 11 C-21.35 9.02 -19.7 7.04 -18 5 C-17.67 5.99 -17.34 6.98 -17 8 C-16.385 7.506 -15.77 7.013 -15.137 6.504 C-14.328 5.863 -13.52 5.223 -12.688 4.562 C-11.887 3.924 -11.086 3.286 -10.262 2.629 C-6.866 0.183 -4.109 -0.316 0 0 Z " fill="#A7B8C1" transform="translate(62,51)"/>
<path d="M0 0 C3.673 3.167 5.343 6.541 7 11 C7.227 11.608 7.227 11.608 8.375 14.688 C8.497 15.017 8.497 15.017 9.117 16.684 C10.211 19.553 11.345 22.404 12.5 25.25 C12.902 26.245 13.304 27.24 13.719 28.266 C15 31 15 31 16.719 33.109 C18 35 18 35 17.688 37.25 C17.461 37.827 17.234 38.405 17 39 C9.609 40.725 5.395 39.459 -1.207 35.785 C-9.529 30.466 -14.178 23.069 -18 14 C-18.695 10.094 -18.695 10.094 -19 7 C-18.34 7 -17.68 7 -17 7 C-16.588 8.134 -16.175 9.269 -15.75 10.438 C-15.172 11.96 -14.588 13.481 -14 15 C-13.71 15.755 -13.42 16.511 -13.121 17.289 C-9.819 25.329 -5.711 30.615 2.168 34.469 C4 35 4 35 7 34 C7 34.66 7 35.32 7 36 C7.763 36.144 8.526 36.289 9.312 36.438 C12 37 12 37 15 38 C14.812 35.688 14.812 35.688 14 33 C13.196 32.526 12.391 32.051 11.562 31.562 C9 30 9 30 7.625 26.938 C7 24 7 24 8 22 C6.861 14.342 3.433 9.328 -2 4 C-1.34 3.67 -0.68 3.34 0 3 C0 2.01 0 1.02 0 0 Z " fill="#5C6F78" transform="translate(110,96)"/>
<path d="M0 0 C2.5 0.562 2.5 0.562 4.875 2.625 C6.981 6.431 6.594 8.42 5.5 12.562 C3.5 14.562 3.5 14.562 0.062 14.938 C-3.5 14.562 -3.5 14.562 -5.438 12.938 C-6.816 9.857 -6.987 7.905 -6.5 4.562 C-4.521 1.777 -3.341 0.752 0 0 Z " fill="#181716" transform="translate(66.5,74.4375)"/>
<path d="M0 0 C0.33 0.66 0.66 1.32 1 2 C-0.265 3.796 -1.537 5.587 -2.812 7.375 C-3.52 8.373 -4.228 9.37 -4.957 10.398 C-8.226 14.561 -10.915 15.322 -16 16 C-15.563 10.543 -14.346 7.331 -11 3 C-10.587 2.381 -10.175 1.763 -9.75 1.125 C-6.731 -0.816 -3.511 -0.173 0 0 Z " fill="#DD8778" transform="translate(59,105)"/>
<path d="M0 0 C-3.75 2 -3.75 2 -6 2 C-5.959 2.567 -5.959 2.567 -5.75 5.438 C-5.718 9.9 -7.178 12.997 -9.102 16.953 C-10.197 19.449 -10.489 21.311 -10 24 C-9.34 24.66 -8.68 25.32 -8 26 C-10.867 25.427 -11.861 25.139 -14 23 C-13.742 18.737 -11.754 15.074 -9.938 11.281 C-8.945 8.867 -8.434 6.569 -8 4 C-11.105 4.139 -14.209 4.287 -17.312 4.438 C-17.753 4.457 -17.753 4.457 -19.982 4.557 C-20.406 4.578 -20.406 4.578 -22.551 4.684 C-23.331 4.72 -24.111 4.757 -24.915 4.795 C-27 5 -27 5 -30 6 C-30.99 5.01 -31.98 4.02 -33 3 C-32.67 2.34 -32.34 1.68 -32 1 C-31.289 1.005 -30.577 1.01 -29.844 1.016 C-26.625 1.037 -23.407 1.05 -20.188 1.062 C-19.068 1.071 -17.948 1.079 -16.795 1.088 C-15.722 1.091 -14.649 1.094 -13.543 1.098 C-12.553 1.103 -11.563 1.108 -10.544 1.114 C-6.875 0.95 -3.758 -0.102 0 0 Z " fill="#55666F" transform="translate(48,102)"/>
<path d="M0 0 C1.65 0 3.3 0 5 0 C6.73 7.185 7.283 13.936 7.188 21.312 C7.187 22.275 7.186 23.237 7.186 24.229 C7.158 28.643 6.966 32.677 6 37 C5.505 37.165 5.505 37.165 3 38 C3 31.07 3 24.14 3 17 C2.67 17 2.34 17 2 17 C2.033 15.014 2.065 13.029 2.098 11.043 C2 9 2 9 1 6 C1.438 3.812 1.438 3.812 2 2 C1.34 2 0.68 2 0 2 C0 1.34 0 0.68 0 0 Z " fill="#677982" transform="translate(144,107)"/>
<path d="M0 0 C0 0.33 0 0.66 0 1 C-2.561 1.506 -5.124 2.005 -7.688 2.5 C-8.048 2.572 -8.048 2.572 -9.873 2.934 C-13.665 3.661 -17.129 4.022 -21 4 C-23 5.312 -23 5.312 -25 7 C-25.763 7.392 -26.526 7.784 -27.312 8.188 C-29.952 9.968 -31.479 11.634 -33.5 14.062 C-36.079 17.138 -37.974 19.024 -42 20 C-39.161 13.623 -33.473 9.142 -28 5 C-27.711 4.742 -27.711 4.742 -26.25 3.438 C-17.822 -1.947 -9.573 -1.047 0 0 Z " fill="#8198A3" transform="translate(75,44)"/>
<path d="M0 0 C1.32 0 2.64 0 4 0 C3.356 3.012 2.35 5.517 0.938 8.25 C0.575 8.956 0.213 9.663 -0.16 10.391 C-0.437 10.922 -0.714 11.453 -1 12 C-1.307 11.994 -1.307 11.994 -2.863 11.965 C-3.267 11.96 -3.267 11.96 -5.312 11.938 C-6.113 11.926 -6.914 11.914 -7.738 11.902 C-10 12 -10 12 -13 13 C-13 12.34 -13 11.68 -13 11 C-14.32 10.34 -15.64 9.68 -17 9 C-16.554 8.843 -16.554 8.843 -14.297 8.047 C-13.126 7.619 -11.956 7.191 -10.75 6.75 C-9.59 6.332 -8.43 5.915 -7.234 5.484 C-4 4 -4 4 -1.828 1.828 C-1.225 1.225 -0.622 0.622 0 0 Z " fill="#6A1B12" transform="translate(61,94)"/>
<path d="M0 0 C0.66 0.33 1.32 0.66 2 1 C2 1.66 2 2.32 2 3 C2.501 3.254 2.501 3.254 5.035 4.539 C11.994 8.124 18.346 11.484 24 17 C24.075 16.443 24.15 15.886 24.227 15.312 C25.33 8.911 27.774 4.877 32 0 C32.66 0.33 33.32 0.66 34 1 C32.73 2.465 31.461 3.93 30.191 5.395 C27.849 8.551 27.75 11.891 27.438 15.688 C27.354 16.681 27.27 17.675 27.184 18.699 C27.153 19.079 27.153 19.079 27 21 C23.669 19.055 20.543 16.973 17.438 14.688 C10.48 9.772 2.931 6.077 -5 3 C-4.361 2.691 -3.721 2.381 -3.062 2.062 C-1 1 -1 1 0 0 Z " fill="#485E6A" transform="translate(97,44)"/>
<path d="M0 0 C5.21 4.217 6.317 10.679 7 17 C7.158 20.605 7.185 24.204 7.188 27.812 C7.2 28.766 7.212 29.719 7.225 30.701 C7.226 31.156 7.226 31.156 7.23 33.457 C7.235 34.282 7.239 35.107 7.243 35.956 C7 38 7 38 5 40 C4.985 39.432 4.971 38.864 4.956 38.279 C4.585 25.305 4.077 13.132 -1 1 C-0.67 0.67 -0.34 0.34 0 0 Z " fill="#889AA0" transform="translate(134,124)"/>
<path d="M0 0 C0.99 0 1.98 0 3 0 C3.254 0.58 3.508 1.16 3.77 1.758 C4.114 2.539 4.458 3.32 4.812 4.125 C5.173 4.945 5.534 5.765 5.906 6.609 C6.802 8.566 7.794 10.479 8.812 12.375 C10 15 10 15 9 18 C8.01 18.33 7.02 18.66 6 19 C3.347 15.865 2.213 12.899 1 9 C0.67 8.67 0.34 8.34 0 8 C-0.141 5.329 -0.042 2.676 0 0 Z " fill="#758C99" transform="translate(94,102)"/>
<path d="M0 0 C-2 2 -2 2 -5.062 3.438 C-8 5 -8 5 -9 8 C-9.619 8.124 -10.237 8.248 -10.875 8.375 C-13 9 -13 9 -14.688 11.188 C-16.077 14.164 -16.622 16.75 -17 20 C-18.32 20.33 -19.64 20.66 -21 21 C-21.505 13.92 -18.443 10.226 -14 5 C-9.709 0.766 -6.094 -0.622 0 0 Z " fill="#63767E" transform="translate(131,163)"/>
<path d="M0 0 C0.33 0.66 0.66 1.32 1 2 C-0.65 2.66 -2.3 3.32 -4 4 C-4 4.66 -4 5.32 -4 6 C-4.592 6.193 -5.183 6.387 -5.793 6.586 C-9.227 7.718 -12.609 8.833 -15.938 10.25 C-16.618 10.498 -17.299 10.745 -18 11 C-18.66 10.67 -19.32 10.34 -20 10 C-20 9.34 -20 8.68 -20 8 C-18.207 6.562 -18.207 6.562 -15.812 5 C-15.035 4.484 -14.258 3.969 -13.457 3.438 C-8.821 0.725 -5.389 -0.251 0 0 Z " fill="#7D97A5" transform="translate(37,88)"/>
<path d="M0 0 C3.68 3.172 5.324 6.545 7 11 C7.258 11.62 7.516 12.24 7.781 12.879 C10.237 18.958 12 25.414 12 32 C9.24 29.508 7.38 27.797 7 24 C7.33 23.34 7.66 22.68 8 22 C6.861 14.342 3.433 9.328 -2 4 C-1.34 3.67 -0.68 3.34 0 3 C0 2.01 0 1.02 0 0 Z " fill="#5A6F79" transform="translate(110,96)"/>
<path d="M0 0 C0 0.99 0 1.98 0 3 C-0.66 3.66 -1.32 4.32 -2 5 C-0.68 5.33 0.64 5.66 2 6 C2 6.66 2 7.32 2 8 C0.742 8.206 -0.516 8.412 -1.812 8.625 C-5.9 9.5 -9.025 11.014 -12.625 13.125 C-17.125 15.732 -19.857 16.686 -25 16 C-25 15.01 -25 14.02 -25 13 C-24.697 13.005 -24.697 13.005 -23.164 13.027 C-14.083 12.706 -8.207 8.288 -1.875 2.062 C-1.256 1.382 -0.638 0.701 0 0 Z " fill="#AAADAC" transform="translate(63,113)"/>
<path d="M0 0 C0.33 0.66 0.66 1.32 1 2 C2.32 2 3.64 2 5 2 C5 2.99 5 3.98 5 5 C7.64 4.34 10.28 3.68 13 3 C12.67 3.99 12.34 4.98 12 6 C12.66 6.33 13.32 6.66 14 7 C14 7.66 14 8.32 14 9 C8.06 8.34 2.12 7.68 -4 7 C-2.68 4.69 -1.36 2.38 0 0 Z " fill="#D2CEC4" transform="translate(64,112)"/>
<path d="M0 0 C0.66 0.66 1.32 1.32 2 2 C-4.255 7.319 -8.63 9.81 -16.945 9.246 C-17.623 9.165 -18.301 9.084 -19 9 C-19 8.34 -19 7.68 -19 7 C-18.422 6.876 -18.422 6.876 -15.5 6.25 C-11.607 5.289 -8.285 3.796 -4.762 1.902 C-3 1 -3 1 0 0 Z " fill="#D0D0CB" transform="translate(56,117)"/>
<path d="M0 0 C1 2 1 2 0.375 4.812 C0 8 0 8 1.125 10.75 C3.249 13.299 4.854 14.065 8 15 C7.67 16.65 7.34 18.3 7 20 C6.67 19.34 6.34 18.68 6 18 C2.567 19.206 0.496 20.385 -2 23 C-2.66 23 -3.32 23 -4 23 C-2.848 20.532 -1.952 18.952 0 17 C2.125 16.375 2.125 16.375 4 16 C1.69 14.68 -0.62 13.36 -3 12 C-2.885 10.562 -2.758 9.124 -2.625 7.688 C-2.555 6.887 -2.486 6.086 -2.414 5.262 C-2 3 -2 3 0 0 Z " fill="#5E7179" transform="translate(59,76)"/>
<path d="M0 0 C1.32 0.33 2.64 0.66 4 1 C3.628 6.769 2.707 10.822 0 16 C-0.312 18.75 -0.312 18.75 0 21 C0.66 21.66 1.32 22.32 2 23 C-0.867 22.427 -1.861 22.139 -4 20 C-3.739 15.697 -1.698 12.014 0.078 8.16 C1.086 5.8 1.672 3.546 2 1 C1.34 0.67 0.68 0.34 0 0 Z " fill="#788B8D" transform="translate(38,105)"/>
<path d="M0 0 C1.98 0.495 1.98 0.495 12 3 C12 3.66 12 4.32 12 5 C12.391 5.061 12.391 5.061 14.371 5.367 C15.383 5.535 16.395 5.702 17.438 5.875 C17.942 5.956 17.942 5.956 20.496 6.367 C21.322 6.576 22.149 6.785 23 7 C23.33 7.66 23.66 8.32 24 9 C21.07 8.512 18.141 8.023 15.211 7.535 C14.151 7.359 13.092 7.182 12 7 C10 6.667 8 6.333 6 6 C6 5.34 6 4.68 6 4 C3.69 3.67 1.38 3.34 -1 3 C-0.67 2.01 -0.34 1.02 0 0 Z " fill="#B8B6B0" transform="translate(80,119)"/>
<path d="M0 0 C0.33 0 0.66 0 1 0 C1 2.64 1 5.28 1 8 C1.99 7.67 2.98 7.34 4 7 C9.538 6.723 13.751 7.25 19 9 C19 9.66 19 10.32 19 11 C18.047 10.916 17.095 10.832 16.113 10.746 C15.486 10.695 15.486 10.695 12.312 10.438 C11.071 10.333 9.83 10.229 8.551 10.121 C5 10 5 10 0 11 C0 7.37 0 3.74 0 0 Z " fill="#47606D" transform="translate(26,79)"/>
<path d="M0 0 C2.018 0.065 4.036 0.13 6.055 0.195 C6.385 0.855 6.715 1.515 7.055 2.195 C5.075 4.835 3.095 7.475 1.055 10.195 C1.055 8.529 1.055 6.862 1.055 5.195 C-0.265 5.195 -1.585 5.195 -2.945 5.195 C-3.275 4.205 -3.605 3.215 -3.945 2.195 C-1.945 0.195 -1.945 0.195 0 0 Z " fill="#B66457" transform="translate(52.9453125,104.8046875)"/>
<path d="M0 0 C0.33 0 0.66 0 1 0 C1.33 2.97 1.66 5.94 2 9 C3.98 8.34 5.96 7.68 8 7 C5.482 10.123 4.274 10.945 0.25 11.75 C-0.286 11.791 -0.286 11.791 -3 12 C-4.214 8.358 -3.667 7.668 -2.062 4.312 C-1.872 3.908 -1.872 3.908 -0.91 1.863 C-0.61 1.248 -0.309 0.634 0 0 Z " fill="#803F37" transform="translate(41,112)"/>
<path d="M0 0 C1.65 0.33 3.3 0.66 5 1 C5 2.65 5 4.3 5 6 C4.34 6 3.68 6 3 6 C3 6.66 3 7.32 3 8 C-0.75 9.125 -0.75 9.125 -3 8 C-2.67 6.68 -2.34 5.36 -2 4 C-2.66 3.67 -3.32 3.34 -4 3 C-3.01 3 -2.02 3 -1 3 C-0.67 2.01 -0.34 1.02 0 0 Z " fill="#060504" transform="translate(67,78)"/>
<path d="M0 0 C-0.568 0.268 -1.137 0.536 -1.723 0.812 C-7.171 3.578 -10.6 6.527 -14.426 11.262 C-16.365 13.403 -18.201 14.321 -21 15 C-17.731 7.783 -11.773 3.53 -5.016 -0.25 C-3 -1 -3 -1 0 0 Z " fill="#8DA5B2" transform="translate(54,49)"/>
<path d="M0 0 C19.532 -0.383 19.532 -0.383 28 2 C27.67 2.66 27.34 3.32 27 4 C26.183 3.836 25.365 3.673 24.523 3.504 C20.512 2.93 16.668 2.89 12.625 2.938 C12.257 2.94 12.257 2.94 10.395 2.951 C8.596 2.963 6.798 2.981 5 3 C5 2.67 5 2.34 5 2 C3.35 1.67 1.7 1.34 0 1 C0 0.67 0 0.34 0 0 Z " fill="#6B8490" transform="translate(65,43)"/>
<path d="M0 0 C0.66 0 1.32 0 2 0 C2.412 1.134 2.825 2.269 3.25 3.438 C8.231 16.666 8.231 16.666 12 21 C11.67 21.66 11.34 22.32 11 23 C5.264 15.81 0.777 9.328 0 0 Z " fill="#606F77" transform="translate(91,103)"/>
<path d="M0 0 C0.66 0 1.32 0 2 0 C3.236 2.472 2.984 3.773 2.688 6.5 C2.609 7.294 2.53 8.088 2.449 8.906 C2 11 2 11 0 13 C-2.398 10.602 -2.343 9.667 -2.625 6.375 C-2.7 5.558 -2.775 4.74 -2.852 3.898 C-2.901 3.272 -2.95 2.645 -3 2 C-2.34 2 -1.68 2 -1 2 C-0.67 1.34 -0.34 0.68 0 0 Z " fill="#69808C" transform="translate(92,84)"/>
<path d="M0 0 C0.701 0.227 1.403 0.454 2.125 0.688 C3.79 1.028 5.457 1.363 7.125 1.688 C7.125 2.017 7.125 2.347 7.125 2.688 C6.279 2.858 5.434 3.028 4.562 3.203 C-5.846 5.427 -5.846 5.427 -10.562 7.938 C-11.109 8.226 -11.109 8.226 -13.875 9.688 C-14.535 9.358 -15.195 9.028 -15.875 8.688 C-15.332 8.35 -14.79 8.012 -14.23 7.664 C-13.515 7.218 -12.8 6.772 -12.062 6.312 C-11.355 5.872 -10.647 5.431 -9.918 4.977 C-8.221 3.906 -6.545 2.801 -4.875 1.688 C-1.875 -0.312 -1.875 -0.312 0 0 Z " fill="#97ACB6" transform="translate(115.875,35.3125)"/>
<path d="M0 0 C6.625 0.75 6.625 0.75 10 3 C10.188 6.125 10.188 6.125 10 9 C7.36 7.35 4.72 5.7 2 4 C1.67 4.66 1.34 5.32 1 6 C0.67 4.02 0.34 2.04 0 0 Z " fill="#90A1A7" transform="translate(118,109)"/>
<path d="M0 0 C1.73 0.115 3.459 0.243 5.188 0.375 C6.15 0.445 7.113 0.514 8.105 0.586 C11.049 1.007 13.337 1.687 16 3 C17.312 5.125 17.312 5.125 18 7 C17.67 7.165 17.67 7.165 16 8 C16 7.34 16 6.68 16 6 C12.014 4.071 8.339 3.604 3.988 3.246 C2 3 2 3 0 2 C0 1.34 0 0.68 0 0 Z " fill="#4F6169" transform="translate(143,183)"/>
<path d="M0 0 C2.265 2.139 4.048 4.329 5.75 6.938 C6.199 7.607 6.647 8.276 7.109 8.965 C8.187 11.428 7.909 12.522 7 15 C4.688 15.625 4.688 15.625 2 16 C1.01 15.34 0.02 14.68 -1 14 C0.98 14 2.96 14 5 14 C4.047 10.847 3.085 8.14 1.375 5.312 C0 3 0 3 0 0 Z " fill="#516168" transform="translate(120,120)"/>
<path d="M0 0 C-1.375 1.5 -1.375 1.5 -3 3 C-3.66 3 -4.32 3 -5 3 C-5 3.66 -5 4.32 -5 5 C-6.416 5.481 -7.833 5.96 -9.25 6.438 C-10.039 6.704 -10.828 6.971 -11.641 7.246 C-13.748 7.92 -15.848 8.492 -18 9 C-13.424 3.629 -7.169 -0.455 0 0 Z " fill="#96AEBB" transform="translate(38,89)"/>
<path d="M0 0 C0 4 0 4 -2 7 C-3.32 7 -4.64 7 -6 7 C-5.67 5.35 -5.34 3.7 -5 2 C-5.99 1.67 -6.98 1.34 -8 1 C-5.072 0.024 -3.044 -0.082 0 0 Z " fill="#A7ACB1" transform="translate(82,86)"/>
<path d="M0 0 C-2 2 -2 2 -5.062 3.438 C-8 5 -8 5 -9 8 C-10.65 8.33 -12.3 8.66 -14 9 C-11.716 1.527 -7.612 -0.597 0 0 Z " fill="#667C85" transform="translate(131,163)"/>
<path d="M0 0 C-0.706 3.669 -2.277 6.705 -4 10 C-4.33 10 -4.66 10 -5 10 C-5 8.35 -5 6.7 -5 5 C-5.99 4.67 -6.98 4.34 -8 4 C-4.5 0 -4.5 0 0 0 Z " fill="#4E2119" transform="translate(65,94)"/>
<path d="M0 0 C0.66 0 1.32 0 2 0 C2.254 0.58 2.508 1.16 2.77 1.758 C4.358 5.363 5.962 8.925 7.75 12.438 C9 15 9 15 9 17 C8.34 17 7.68 17 7 17 C5.826 14.733 4.661 12.462 3.5 10.188 C3.166 9.545 2.832 8.902 2.488 8.24 C0.998 5.305 0 3.339 0 0 Z " fill="#8FA5B0" transform="translate(95,102)"/>
<path d="M0 0 C1.65 2.989 2.489 5.714 3.125 9.062 C3.293 9.92 3.46 10.777 3.633 11.66 C4 14 4 14 4 17 C1.24 14.508 -0.62 12.797 -1 9 C-0.67 8.34 -0.34 7.68 0 7 C-0.165 6.175 -0.33 5.35 -0.5 4.5 C-1 2 -1 2 0 0 Z " fill="#657880" transform="translate(118,111)"/>
<path d="M0 0 C2.667 5.333 5.333 10.667 8 16 C7.01 15.67 6.02 15.34 5 15 C5 14.34 5 13.68 5 13 C4.34 12.67 3.68 12.34 3 12 C0.832 10.294 0.067 9.516 -0.293 6.738 C-0.258 5.938 -0.223 5.137 -0.188 4.312 C-0.16 3.504 -0.133 2.696 -0.105 1.863 C-0.071 1.248 -0.036 0.634 0 0 Z " fill="#BAB7B0" transform="translate(91,106)"/>
<path d="M0 0 C2.312 -0.25 2.312 -0.25 5 0 C6.812 2 6.812 2 8 4 C7.01 4 6.02 4 5 4 C2.997 4.314 0.996 4.645 -1 5 C-0.67 3.35 -0.34 1.7 0 0 Z " fill="#605E5B" transform="translate(64,75)"/>
<path d="M0 0 C0.33 0.99 0.66 1.98 1 3 C1.66 3.33 2.32 3.66 3 4 C2.546 4.578 2.093 5.155 1.625 5.75 C0.159 7.78 -0.949 9.735 -2 12 C-2.062 11.691 -2.062 11.691 -2.375 10.125 C-3 8 -3 8 -5 6 C-3.35 4.02 -1.7 2.04 0 0 Z " fill="#8EA5B1" transform="translate(44,56)"/>
<path d="M0 0 C1.32 0.33 2.64 0.66 4 1 C3.835 2.052 3.67 3.104 3.5 4.188 C3.104 7.205 2.908 9.971 3 13 C2.01 12.34 1.02 11.68 0 11 C-0.293 8.398 -0.293 8.398 -0.188 5.375 C-0.16 4.372 -0.133 3.369 -0.105 2.336 C-0.071 1.565 -0.036 0.794 0 0 Z " fill="#E1E4E4" transform="translate(124,54)"/>
<path d="M0 0 C-0.33 0.99 -0.66 1.98 -1 3 C-0.34 3.33 0.32 3.66 1 4 C1 4.66 1 5.32 1 6 C-2.3 5.34 -5.6 4.68 -9 4 C-8.01 3.67 -7.02 3.34 -6 3 C-6 2.34 -6 1.68 -6 1 C-3.924 0.447 -2.156 0 0 0 Z " fill="#BFBBB3" transform="translate(77,115)"/>
<path d="M0 0 C0.998 0.023 1.995 0.046 3.023 0.07 C3.525 0.079 3.525 0.079 6.062 0.125 C6.833 0.148 7.604 0.171 8.398 0.195 C8.398 0.855 8.398 1.515 8.398 2.195 C9.058 2.855 9.718 3.515 10.398 4.195 C7.923 3.865 7.923 3.865 -4.602 2.195 C-2.602 0.195 -2.602 0.195 0 0 Z " fill="#6E8591" transform="translate(120.6015625,34.8046875)"/>
<path d="M0 0 C0 0.99 0 1.98 0 3 C-0.66 3.66 -1.32 4.32 -2 5 C-0.68 5.33 0.64 5.66 2 6 C2 6.66 2 7.32 2 8 C-0.64 8.33 -3.28 8.66 -6 9 C-5.528 4.752 -3.033 2.8 0 0 Z " fill="#B9B9B4" transform="translate(63,113)"/>
<path d="M0 0 C0.99 0.33 1.98 0.66 3 1 C1.401 2.485 -0.204 3.963 -1.812 5.438 C-2.706 6.261 -3.599 7.085 -4.52 7.934 C-7 10 -7 10 -10 11 C-10.33 10.01 -10.66 9.02 -11 8 C-10.649 7.897 -10.649 7.897 -8.875 7.375 C-5.043 5.542 -2.895 3.097 0 0 Z " fill="#96ACB8" transform="translate(58,58)"/>
<path d="M0 0 C0.66 0 1.32 0 2 0 C2.33 0.99 2.66 1.98 3 3 C1.377 4.709 -0.293 6.374 -2 8 C-2.66 8 -3.32 8 -4 8 C-2.25 2.25 -2.25 2.25 0 0 Z " fill="#E06D5B" transform="translate(48,108)"/>
<path d="M0 0 C3.96 0 7.92 0 12 0 C12 0.33 12 0.66 12 1 C9.69 1 7.38 1 5 1 C5.33 1.99 5.66 2.98 6 4 C5.01 4.33 4.02 4.66 3 5 C1.5 3.625 1.5 3.625 0 2 C0 1.34 0 0.68 0 0 Z " fill="#5F727E" transform="translate(15,103)"/>
<path d="M0 0 C2.804 -0.227 4.462 -0.341 6.875 1.188 C8 3 8 3 7.688 5.688 C7.461 6.451 7.234 7.214 7 8 C6.01 8 5.02 8 4 8 C4.33 6.35 4.66 4.7 5 3 C4.175 2.67 4.175 2.67 0 1 C0 0.67 0 0.34 0 0 Z " fill="#5B707A" transform="translate(126,36)"/>
<path d="M0 0 C-0.309 0.299 -0.309 0.299 -1.875 1.812 C-4 4 -4 4 -6 7 C-6.66 7 -7.32 7 -8 7 C-8 6.34 -8 5.68 -8 5 C-9.32 4.34 -10.64 3.68 -12 3 C-10.379 2.303 -8.753 1.618 -7.125 0.938 C-6.22 0.555 -5.315 0.172 -4.383 -0.223 C-2 -1 -2 -1 0 0 Z " fill="#5E241D" transform="translate(56,100)"/>
<path d="M0 0 C0.33 0 0.66 0 1 0 C0.25 6.75 0.25 6.75 -2 9 C-5.625 9.125 -5.625 9.125 -9 9 C-6.64 6.64 -5.221 6.509 -2 6 C-2 5.34 -2 4.68 -2 4 C-1.34 4 -0.68 4 0 4 C0 2.68 0 1.36 0 0 Z " fill="#3A2F22" transform="translate(72,80)"/>
<path d="M0 0 C0.125 6.625 0.125 6.625 -1 10 C-1.66 10 -2.32 10 -3 10 C-3.33 7.03 -3.66 4.06 -4 1 C-1 0 -1 0 0 0 Z " fill="#647F8D" transform="translate(30,75)"/>
<path d="M0 0 C3.18 3.887 6.106 7.9 9 12 C6.188 11.438 6.188 11.438 3 10 C1.077 6.475 0 4.026 0 0 Z " fill="#61757E" transform="translate(68,125)"/>
<path d="M0 0 C1.5 1.375 1.5 1.375 3 3 C3 3.66 3 4.32 3 5 C0 7 0 7 -3 7 C-2.67 5.35 -2.34 3.7 -2 2 C-1.34 2 -0.68 2 0 2 C0 1.34 0 0.68 0 0 Z " fill="#EE8A73" transform="translate(46,114)"/>
<path d="M0 0 C0.33 0 0.66 0 1 0 C1.33 2.31 1.66 4.62 2 7 C2.66 7 3.32 7 4 7 C3.67 8.65 3.34 10.3 3 12 C2.01 11.67 1.02 11.34 0 11 C0 7.37 0 3.74 0 0 Z " fill="#899CA5" transform="translate(88,93)"/>
<path d="M0 0 C6.625 -0.25 6.625 -0.25 10 2 C10 2.66 10 3.32 10 4 C9.01 3.67 8.02 3.34 7 3 C5.606 2.933 4.208 2.915 2.812 2.938 C1.554 2.958 0.296 2.979 -1 3 C-0.67 2.01 -0.34 1.02 0 0 Z " fill="#475B65" transform="translate(62,60)"/>
<path d="M0 0 C1.665 0.341 3.332 0.676 5 1 C5 1.33 5 1.66 5 2 C3.566 2.25 2.127 2.474 0.688 2.688 C-0.113 2.815 -0.914 2.943 -1.738 3.074 C-4 3 -4 3 -5.793 1.52 C-6.191 1.018 -6.59 0.517 -7 0 C-3.741 -1.086 -3.134 -0.922 0 0 Z " fill="#879BA5" transform="translate(118,36)"/>
<path d="M0 0 C0.33 0 0.66 0 1 0 C1 2.31 1 4.62 1 7 C-0.32 7.33 -1.64 7.66 -3 8 C-3.33 7.01 -3.66 6.02 -4 5 C-3.01 5 -2.02 5 -1 5 C-0.67 3.35 -0.34 1.7 0 0 Z " fill="#F0F1ED" transform="translate(132,153)"/>
<path d="M0 0 C2.667 1.333 5.333 2.667 8 4 C8 4.66 8 5.32 8 6 C8.66 6.33 9.32 6.66 10 7 C5.175 6.586 3.131 4.578 0 1 C0 0.67 0 0.34 0 0 Z " fill="#667E8A" transform="translate(106,125)"/>
<path d="M0 0 C1.5 1.312 1.5 1.312 3 3 C3 3.99 3 4.98 3 6 C3.66 6.66 4.32 7.32 5 8 C2.133 7.427 1.139 7.139 -1 5 C-0.625 2.375 -0.625 2.375 0 0 Z " fill="#869599" transform="translate(35,120)"/>
<path d="M0 0 C0.66 0.66 1.32 1.32 2 2 C1.01 2.66 1.01 2.66 -4 6 C-4 4.68 -4 3.36 -4 2 C-2.68 1.34 -1.36 0.68 0 0 Z " fill="#CCCAC2" transform="translate(56,117)"/>
<path d="M0 0 C0.66 0.33 1.32 0.66 2 1 C0.68 3.31 -0.64 5.62 -2 8 C-2.99 8 -3.98 8 -5 8 C-3.814 4.625 -2.724 2.353 0 0 Z " fill="#E0E1DF" transform="translate(130,45)"/>
<path d="M0 0 C2 1.25 2 1.25 4 3 C4 4.32 4 5.64 4 7 C2.68 6.67 1.36 6.34 0 6 C0 4.02 0 2.04 0 0 Z " fill="#C0C0BD" transform="translate(135,157)"/>
<path d="M0 0 C1.5 1.25 1.5 1.25 3 3 C3 4.32 3 5.64 3 7 C1.68 6.67 0.36 6.34 -1 6 C-1.625 4.125 -1.625 4.125 -2 2 C-1.34 1.34 -0.68 0.68 0 0 Z " fill="#50646E" transform="translate(146,140)"/>
<path d="M0 0 C0.33 0.66 0.66 1.32 1 2 C-0.98 4.31 -2.96 6.62 -5 9 C-5.66 8.67 -6.32 8.34 -7 8 C-4.69 5.36 -2.38 2.72 0 0 Z " fill="#E7E5DE" transform="translate(57,111)"/>
<path d="M0 0 C2.018 0.065 4.036 0.13 6.055 0.195 C6.055 0.525 6.055 0.855 6.055 1.195 C5.127 1.484 4.198 1.773 3.242 2.07 C0.055 3.195 0.055 3.195 -2.945 5.195 C-3.275 4.205 -3.605 3.215 -3.945 2.195 C-1.945 0.195 -1.945 0.195 0 0 Z " fill="#B13D31" transform="translate(52.9453125,104.8046875)"/>
<path d="M0 0 C0.33 0 0.66 0 1 0 C1.33 2.64 1.66 5.28 2 8 C1.01 8.33 0.02 8.66 -1 9 C-1.098 2.848 -1.098 2.848 -1 1 C-0.67 0.67 -0.34 0.34 0 0 Z " fill="#5D717B" transform="translate(148,136)"/>
<path d="M0 0 C-0.598 0.289 -1.196 0.578 -1.812 0.875 C-4 2 -4 2 -7 4 C-7.99 3.67 -8.98 3.34 -10 3 C-10 2.34 -10 1.68 -10 1 C-6.62 -0.04 -3.522 -0.08 0 0 Z " fill="#728D9B" transform="translate(37,88)"/>
<path d="M0 0 C2.31 0.33 4.62 0.66 7 1 C7 1.66 7 2.32 7 3 C4.36 2.67 1.72 2.34 -1 2 C-0.67 1.34 -0.34 0.68 0 0 Z " fill="#5C7481" transform="translate(38,87)"/>
<path d="M0 0 C0.409 0.051 0.409 0.051 2.477 0.309 C2.79 0.35 2.79 0.35 4.375 0.562 C4.375 0.892 4.375 1.222 4.375 1.562 C1.075 1.892 -2.225 2.222 -5.625 2.562 C-5.955 1.903 -6.285 1.242 -6.625 0.562 C-4.104 -0.698 -2.771 -0.356 0 0 Z " fill="#79929C" transform="translate(64.625,43.4375)"/>
<path d="M0 0 C0.66 0.33 1.32 0.66 2 1 C1.312 2.938 1.312 2.938 0 5 C-2.625 5.75 -2.625 5.75 -5 6 C-3.63 2.839 -3.011 2.007 0 0 Z " fill="#7F959D" transform="translate(122,166)"/>
<path d="M0 0 C-1.375 1.5 -1.375 1.5 -3 3 C-3.66 3 -4.32 3 -5 3 C-5 3.66 -5 4.32 -5 5 C-7 4 -7 4 -8 2 C-4.772 -0.152 -3.716 -0.201 0 0 Z " fill="#859FAD" transform="translate(38,89)"/>
</svg>
