<?xml version="1.0" encoding="UTF-8"?>
<!-- Generator: visioncortex VTracer 0.6.12 -->
<svg version="1.1" xmlns="http://www.w3.org/2000/svg" width="171" height="210">
<path d="M0 0 C56.43 0 112.86 0 171 0 C171 69.3 171 138.6 171 210 C114.57 210 58.14 210 0 210 C0 140.7 0 71.4 0 0 Z " fill="#FCF8F1" transform="translate(0,0)"/>
<path d="M0 0 C2.872 1.067 5.309 2.306 7.914 3.906 C10 5 10 5 14 5 C14.722 4.67 15.444 4.34 16.188 4 C20.135 2.596 23.852 2.837 28 3 C28 2.34 28 1.68 28 1 C37.29 1.393 46.739 1.842 55.191 6.105 C57 7 57 7 58.812 6.875 C61.457 5.817 63.799 4.433 66.219 2.938 C73.068 -0.667 83.695 -0.189 91.027 1.836 C100.627 6.244 105.324 14.171 110.438 23 C110.662 23.38 110.662 23.38 111.801 25.302 C114.693 30.501 115.6 34.053 115 40 C113.688 43.187 113.688 43.187 112 46 C111.546 46.846 111.093 47.691 110.625 48.562 C108.247 52.13 105.823 55.36 101.688 56.812 C101.131 56.874 100.574 56.936 100 57 C99.28 59.93 98.794 62.036 99 65 C100.219 66.88 101.666 68.292 103.238 69.887 C108.897 76.675 112.407 86.695 113.379 95.391 C113.522 96.644 113.665 97.897 113.812 99.188 C113.922 100.377 114.032 101.567 114.145 102.793 C115.201 106.755 116.75 107.65 120 110 C120.938 113.563 120.938 113.563 121 117 C120.34 117.99 119.68 118.98 119 120 C115.347 118.75 114.219 118.329 112 115 C111.606 112.676 111.265 110.342 111 108 C110.34 108 109.68 108 109 108 C106.751 117.053 105.656 125.306 105.602 134.602 C105 138 105 138 102.926 140.438 C99.243 142.404 96.723 142.467 92.562 142.375 C91.285 142.362 90.008 142.349 88.691 142.336 C85.149 142.014 82.306 141.277 79 140 C78.924 136.278 79.027 132.816 79.562 129.125 C79.707 128.094 79.851 127.062 80 126 C79.67 125.67 79.34 125.34 79 125 C77.565 127.87 77.724 130.729 77.574 133.906 C77.385 134.597 77.195 135.288 77 136 C74.992 137.129 74.992 137.129 73 138 C72.618 139.656 72.286 141.325 72 143 C70.058 145.472 69.063 145.979 66 147 C63.362 147.122 60.763 147.185 58.125 147.188 C57.417 147.2 56.71 147.212 55.98 147.225 C51.87 147.236 48.676 146.88 45 145 C44 144 44 144 43.938 141.75 C43.979 139.917 44.021 138.083 44.062 136.25 C44 134 44 134 43 133 C42.928 130.98 42.916 128.958 42.938 126.938 C42.947 125.833 42.956 124.728 42.965 123.59 C42.976 122.735 42.988 121.881 43 121 C42.34 121 41.68 121 41 121 C40.991 121.56 40.981 122.12 40.972 122.697 C40.918 125.236 40.834 127.774 40.75 130.312 C40.736 131.194 40.722 132.075 40.707 132.982 C40.464 139.362 40.464 139.362 38.48 142.086 C34.855 143.422 31.369 143.394 27.562 143.312 C26.812 143.316 26.061 143.319 25.287 143.322 C21.086 143.282 17.833 142.913 14 141 C13.75 134.375 13.75 134.375 16 131 C16.195 127.863 16.195 127.863 16.125 124.312 C16.107 123.133 16.089 121.954 16.07 120.738 C16.047 119.835 16.024 118.931 16 118 C15.564 118.531 15.129 119.062 14.68 119.609 C9.753 125.453 5.181 129.208 -2 132 C-2.66 132.66 -3.32 133.32 -4 134 C-6.313 134.5 -6.313 134.5 -9 134 C-12.341 130.881 -13.792 129.327 -14.5 124.812 C-14 122 -14 122 -12.938 120.188 C-11 119 -11 119 -7.5 118.625 C-4 118 -4 118 -2.125 115.688 C-0.31 111.353 0.155 107.622 0.316 102.922 C0.337 102.342 0.337 102.342 0.443 99.406 C0.483 98.2 0.522 96.993 0.562 95.75 C0.584 95.139 0.584 95.139 0.693 92.047 C0.799 89.031 0.901 86.016 1 83 C0.606 82.852 0.606 82.852 -1.387 82.104 C-4.195 80.918 -5.401 79.831 -7.312 77.5 C-7.824 76.892 -8.336 76.283 -8.863 75.656 C-10 74 -10 74 -10 72 C-11.052 71.938 -12.104 71.876 -13.188 71.812 C-19.406 70.487 -22.293 65.898 -26 61 C-27.354 58.291 -27.065 55.991 -27 53 C-27.583 52.925 -28.165 52.85 -28.766 52.773 C-33.487 51.139 -35.866 46.273 -38 42 C-39.15 37.135 -39.047 33.04 -36.742 28.551 C-35.71 27.024 -34.636 25.525 -33.52 24.059 C-32.114 22.155 -31.233 20.502 -30.375 18.312 C-24.529 4.228 -14.726 -1.463 0 0 Z " fill="#AA9588" transform="translate(40,50)"/>
<path d="M0 0 C0.534 0.014 0.534 0.014 3.238 0.082 C4.047 0.117 4.855 0.152 5.688 0.188 C5.358 0.847 5.028 1.508 4.688 2.188 C2.823 2.505 0.944 2.741 -0.938 2.938 C-6.731 3.808 -10.762 5.385 -14.312 10.188 C-15.47 13.518 -15.165 15.779 -14.312 19.188 C-13.653 19.188 -12.993 19.188 -12.312 19.188 C-12.148 18.692 -12.148 18.692 -11.312 16.188 C-8.427 16.586 -7.491 16.978 -5.562 19.25 C-5.15 19.889 -4.737 20.529 -4.312 21.188 C-5.312 23.187 -6.312 25.188 -7.312 27.188 C-7.477 28.363 -7.642 29.539 -7.812 30.75 C-8.312 34.188 -8.312 34.188 -9.312 35.188 C-10.762 44.241 -10.118 53.117 -9.312 62.188 C-8.034 61.899 -6.755 61.61 -5.438 61.312 C-4.718 61.15 -3.999 60.988 -3.258 60.82 C-1.312 60.188 -1.312 60.188 0.688 58.188 C1.492 57.878 2.296 57.569 3.125 57.25 C5.687 56.188 6.813 55.151 8.688 53.188 C9.347 53.188 10.007 53.188 10.688 53.188 C11.871 49.488 11.963 46.05 11.688 42.188 C10.188 39.75 10.188 39.75 8.688 38.188 C8.852 37.858 8.852 37.858 9.688 36.188 C11.338 38.167 12.988 40.148 14.688 42.188 C19.562 41.312 19.562 41.312 20.688 40.188 C20.759 38.835 20.771 37.479 20.75 36.125 C20.729 34.826 20.709 33.526 20.688 32.188 C21.286 32.414 21.884 32.641 22.5 32.875 C23.222 32.978 23.944 33.081 24.688 33.188 C26.438 31.75 26.438 31.75 27.688 30.188 C26.582 36.157 23.173 40.249 18.688 44.188 C16.375 45 16.375 45 14.688 45.188 C13.968 48.118 13.482 50.223 13.688 53.188 C14.906 55.067 16.353 56.48 17.926 58.074 C23.585 64.862 27.095 74.883 28.066 83.578 C28.209 84.831 28.353 86.084 28.5 87.375 C28.555 87.97 28.555 87.97 28.832 90.98 C29.889 94.943 31.438 95.837 34.688 98.188 C35.625 101.75 35.625 101.75 35.688 105.188 C35.028 106.178 34.368 107.168 33.688 108.188 C30.034 106.938 28.907 106.517 26.688 103.188 C26.294 100.864 25.953 98.53 25.688 96.188 C25.028 96.188 24.368 96.188 23.688 96.188 C21.438 105.241 20.344 113.494 20.289 122.789 C19.688 126.188 19.688 126.188 17.613 128.625 C13.93 130.592 11.41 130.655 7.25 130.562 C5.973 130.55 4.695 130.537 3.379 130.523 C-0.164 130.201 -3.007 129.465 -6.312 128.188 C-6.388 124.465 -6.286 121.004 -5.75 117.312 C-5.606 116.281 -5.461 115.25 -5.312 114.188 C-5.642 113.858 -5.972 113.528 -6.312 113.188 C-7.747 116.057 -7.589 118.917 -7.738 122.094 C-7.928 122.785 -8.117 123.476 -8.312 124.188 C-10.32 125.316 -10.32 125.316 -12.312 126.188 C-12.695 127.844 -13.026 129.512 -13.312 131.188 C-15.255 133.659 -16.25 134.167 -19.312 135.188 C-21.95 135.31 -24.55 135.373 -27.188 135.375 C-27.895 135.387 -28.603 135.399 -29.332 135.412 C-33.442 135.424 -36.637 135.067 -40.312 133.188 C-41.312 132.188 -41.312 132.188 -41.375 129.938 C-41.333 128.104 -41.292 126.271 -41.25 124.438 C-41.312 122.188 -41.312 122.188 -42.312 121.188 C-42.385 119.168 -42.396 117.146 -42.375 115.125 C-42.366 114.02 -42.357 112.916 -42.348 111.777 C-42.336 110.923 -42.324 110.068 -42.312 109.188 C-42.972 109.188 -43.632 109.188 -44.312 109.188 C-44.317 109.467 -44.317 109.467 -44.341 110.884 C-44.395 113.424 -44.478 115.961 -44.562 118.5 C-44.57 118.941 -44.57 118.941 -44.605 121.17 C-44.848 127.55 -44.848 127.55 -46.832 130.273 C-50.457 131.609 -53.943 131.581 -57.75 131.5 C-58.501 131.503 -59.252 131.506 -60.025 131.51 C-64.226 131.469 -67.479 131.1 -71.312 129.188 C-71.562 122.562 -71.562 122.562 -69.312 119.188 C-69.117 116.051 -69.117 116.051 -69.188 112.5 C-69.206 111.321 -69.224 110.141 -69.242 108.926 C-69.265 108.022 -69.289 107.119 -69.312 106.188 C-69.642 106.352 -69.642 106.352 -71.312 107.188 C-71.041 106.66 -70.769 106.133 -70.488 105.59 C-65.391 95.174 -60.564 84.014 -57.359 72.875 C-57.014 71.988 -56.668 71.101 -56.312 70.188 C-55.817 70.023 -55.817 70.023 -53.312 69.188 C-53.148 68.692 -53.148 68.692 -52.312 66.188 C-51.653 65.899 -50.993 65.61 -50.312 65.312 C-48.312 64.188 -48.312 64.188 -47.562 61.562 C-47.521 61.171 -47.521 61.171 -47.312 59.188 C-46.323 60.178 -45.332 61.167 -44.312 62.188 C-44.972 64.498 -45.632 66.808 -46.312 69.188 C-46.477 68.858 -46.477 68.858 -47.312 67.188 C-47.972 67.188 -48.632 67.188 -49.312 67.188 C-49.642 68.178 -49.972 69.168 -50.312 70.188 C-51.625 71.542 -52.959 72.875 -54.312 74.188 C-54.972 75.178 -55.632 76.168 -56.312 77.188 C-53.562 77.5 -53.562 77.5 -50.312 77.188 C-48.93 75.561 -47.593 73.895 -46.312 72.188 C-44.993 72.188 -43.672 72.188 -42.312 72.188 C-42.312 72.847 -42.312 73.507 -42.312 74.188 C-40.828 74.023 -40.828 74.023 -33.312 73.188 C-33.148 72.528 -33.148 72.528 -32.312 69.188 C-30.19 66.815 -27.966 64.719 -25.496 62.711 C-21.866 59.755 -19.757 57.783 -18.312 53.188 C-17.653 52.858 -16.993 52.528 -16.312 52.188 C-16.312 49.877 -16.312 47.567 -16.312 45.188 C-15.322 45.188 -14.333 45.188 -13.312 45.188 C-13.427 42.458 -13.554 39.729 -13.688 37 C-13.718 36.231 -13.749 35.462 -13.781 34.67 C-14.077 28.936 -15.081 25.035 -18.312 20.188 C-17.653 20.188 -16.993 20.188 -16.312 20.188 C-16.312 19.198 -16.312 18.207 -16.312 17.188 C-16.972 17.188 -17.632 17.188 -18.312 17.188 C-18.881 13.937 -18.78 11.889 -16.93 9.113 C-11.908 3.233 -8.049 -0.265 0 0 Z " fill="#947E70" transform="translate(125.3125,61.8125)"/>
<path d="M0 0 C0.284 0.119 0.284 0.119 1.719 0.723 C1.211 1.002 0.703 1.282 0.18 1.57 C-7.18 5.857 -11.832 10.867 -15.281 18.723 C-14.951 19.053 -14.621 19.383 -14.281 19.723 C-13.724 19.166 -13.168 18.609 -12.594 18.035 C-3.281 8.723 -3.281 8.723 -0.031 8.348 C5.386 8.889 8.255 10.985 11.719 15.098 C13.291 19.224 11.254 22.372 9.684 26.336 C7.043 33.274 6.203 39.582 6.047 46.935 C5.948 50.753 5.631 53.414 3.719 56.723 C3.594 59.973 3.594 59.973 3.719 62.723 C4.049 62.063 4.379 61.403 4.719 60.723 C10.469 60.598 10.469 60.598 12.719 61.723 C12.719 61.063 12.719 60.403 12.719 59.723 C13.379 59.723 14.039 59.723 14.719 59.723 C14.471 59.393 14.471 59.393 13.219 57.723 C11.236 53.756 11.495 51.12 11.719 46.723 C12.379 46.393 13.039 46.063 13.719 45.723 C14.049 46.383 14.379 47.043 14.719 47.723 C15.709 48.053 16.699 48.383 17.719 48.723 C17.719 46.743 17.719 44.763 17.719 42.723 C18.709 43.383 19.699 44.043 20.719 44.723 C22.123 52.376 20.136 59.264 17.676 66.453 C16.203 71.483 15.907 76.506 15.719 81.723 C12.453 81.124 10.545 80.064 8.031 77.91 C7.429 77.409 6.827 76.907 6.207 76.391 C4.531 74.512 4.119 73.18 3.719 70.723 C2.667 70.661 1.615 70.599 0.531 70.535 C-5.688 69.21 -8.575 64.621 -12.281 59.723 C-13.636 57.014 -13.346 54.713 -13.281 51.723 C-13.864 51.648 -14.447 51.573 -15.047 51.496 C-19.768 49.862 -22.148 44.996 -24.281 40.723 C-25.431 35.857 -25.329 31.762 -23.023 27.273 C-21.992 25.746 -20.917 24.248 -19.801 22.781 C-18.396 20.878 -17.514 19.225 -16.656 17.035 C-14.279 11.309 -7.326 -0.891 0 0 Z " fill="#A38D7F" transform="translate(26.28125,51.27734375)"/>
<path d="M0 0 C0.534 0.014 0.534 0.014 3.238 0.082 C4.047 0.117 4.855 0.152 5.688 0.188 C5.358 0.847 5.028 1.508 4.688 2.188 C2.823 2.505 0.944 2.741 -0.938 2.938 C-6.731 3.808 -10.762 5.385 -14.312 10.188 C-15.47 13.518 -15.165 15.779 -14.312 19.188 C-13.653 19.188 -12.993 19.188 -12.312 19.188 C-12.148 18.692 -12.148 18.692 -11.312 16.188 C-8.427 16.586 -7.491 16.978 -5.562 19.25 C-5.15 19.889 -4.737 20.529 -4.312 21.188 C-5.312 23.187 -6.312 25.188 -7.312 27.188 C-7.477 28.363 -7.642 29.539 -7.812 30.75 C-8.312 34.188 -8.312 34.188 -9.312 35.188 C-10.762 44.241 -10.118 53.117 -9.312 62.188 C-8.034 61.899 -6.755 61.61 -5.438 61.312 C-4.718 61.15 -3.999 60.988 -3.258 60.82 C-1.312 60.188 -1.312 60.188 0.688 58.188 C1.492 57.878 2.296 57.569 3.125 57.25 C5.687 56.188 6.813 55.151 8.688 53.188 C9.347 53.188 10.007 53.188 10.688 53.188 C10.028 54.507 9.368 55.828 8.688 57.188 C8.028 57.188 7.368 57.188 6.688 57.188 C6.358 58.178 6.028 59.167 5.688 60.188 C3.351 61.311 1.098 62.268 -1.312 63.188 C-2.158 63.6 -3.004 64.013 -3.875 64.438 C-7.043 65.412 -9.13 65.018 -12.312 64.188 C-13.303 63.528 -14.292 62.868 -15.312 62.188 C-15.578 62.786 -15.844 63.384 -16.117 64 C-20.062 71.219 -28.37 74.754 -35.75 77.438 C-39.418 78.21 -42.577 78.271 -46.297 78.062 C-48.312 78.188 -48.312 78.188 -51.312 80.188 C-53.634 80.896 -55.966 81.568 -58.312 82.188 C-60.176 88.09 -60.67 91.411 -58.312 97.188 C-56.313 98.188 -56.313 98.188 -53.312 98.188 C-51.949 100.167 -50.618 102.169 -49.312 104.188 C-48.967 104.419 -48.967 104.419 -47.217 105.588 C-45.312 107.188 -45.312 107.188 -44.795 109.408 C-44.79 110.253 -44.786 111.098 -44.781 111.969 C-44.776 112.893 -44.771 113.817 -44.766 114.77 C-44.773 115.251 -44.773 115.251 -44.812 117.688 C-44.797 118.65 -44.782 119.613 -44.766 120.605 C-44.771 121.53 -44.776 122.454 -44.781 123.406 C-44.786 124.251 -44.79 125.096 -44.795 125.967 C-45.312 128.188 -45.312 128.188 -47.1 129.964 C-50.511 131.85 -53.958 131.581 -57.75 131.5 C-58.501 131.503 -59.252 131.506 -60.025 131.51 C-64.226 131.469 -67.479 131.1 -71.312 129.188 C-71.562 122.562 -71.562 122.562 -69.312 119.188 C-69.117 116.051 -69.117 116.051 -69.188 112.5 C-69.206 111.321 -69.224 110.141 -69.242 108.926 C-69.265 108.022 -69.289 107.119 -69.312 106.188 C-69.642 106.352 -69.642 106.352 -71.312 107.188 C-71.041 106.66 -70.769 106.133 -70.488 105.59 C-65.391 95.174 -60.564 84.014 -57.359 72.875 C-57.014 71.988 -56.668 71.101 -56.312 70.188 C-55.817 70.023 -55.817 70.023 -53.312 69.188 C-53.148 68.692 -53.148 68.692 -52.312 66.188 C-51.653 65.899 -50.993 65.61 -50.312 65.312 C-48.312 64.188 -48.312 64.188 -47.562 61.562 C-47.521 61.171 -47.521 61.171 -47.312 59.188 C-46.323 60.178 -45.332 61.167 -44.312 62.188 C-44.972 64.498 -45.632 66.808 -46.312 69.188 C-46.477 68.858 -46.477 68.858 -47.312 67.188 C-47.972 67.188 -48.632 67.188 -49.312 67.188 C-49.642 68.178 -49.972 69.168 -50.312 70.188 C-51.625 71.542 -52.959 72.875 -54.312 74.188 C-54.972 75.178 -55.632 76.168 -56.312 77.188 C-53.562 77.5 -53.562 77.5 -50.312 77.188 C-48.93 75.561 -47.593 73.895 -46.312 72.188 C-44.993 72.188 -43.672 72.188 -42.312 72.188 C-42.312 72.847 -42.312 73.507 -42.312 74.188 C-40.828 74.023 -40.828 74.023 -33.312 73.188 C-33.148 72.528 -33.148 72.528 -32.312 69.188 C-30.19 66.815 -27.966 64.719 -25.496 62.711 C-21.866 59.755 -19.757 57.783 -18.312 53.188 C-17.653 52.858 -16.993 52.528 -16.312 52.188 C-16.312 49.877 -16.312 47.567 -16.312 45.188 C-15.322 45.188 -14.333 45.188 -13.312 45.188 C-13.427 42.458 -13.554 39.729 -13.688 37 C-13.718 36.231 -13.749 35.462 -13.781 34.67 C-14.077 28.936 -15.081 25.035 -18.312 20.188 C-17.653 20.188 -16.993 20.188 -16.312 20.188 C-16.312 19.198 -16.312 18.207 -16.312 17.188 C-16.972 17.188 -17.632 17.188 -18.312 17.188 C-18.881 13.937 -18.78 11.889 -16.93 9.113 C-11.908 3.233 -8.049 -0.265 0 0 Z " fill="#81695B" transform="translate(125.3125,61.8125)"/>
<path d="M0 0 C5.312 0.81 8.255 2.861 11.688 6.938 C13.259 11.064 11.223 14.212 9.652 18.176 C7.012 25.114 6.172 31.422 6.015 38.775 C5.916 42.592 5.6 45.254 3.688 48.562 C3.562 51.813 3.562 51.813 3.688 54.562 C4.017 53.903 4.348 53.243 4.688 52.562 C10.438 52.438 10.438 52.438 12.688 53.562 C12.688 52.903 12.688 52.243 12.688 51.562 C13.347 51.562 14.008 51.562 14.688 51.562 C14.44 51.233 14.44 51.233 13.188 49.562 C11.204 45.596 11.464 42.959 11.688 38.562 C12.347 38.233 13.008 37.903 13.688 37.562 C14.017 38.222 14.347 38.882 14.688 39.562 C15.678 39.892 16.667 40.222 17.688 40.562 C17.688 38.583 17.688 36.602 17.688 34.562 C18.678 35.222 19.667 35.882 20.688 36.562 C22.092 44.216 20.105 51.104 17.645 58.293 C16.172 63.323 15.875 68.346 15.688 73.562 C12.421 72.964 10.513 71.904 8 69.75 C7.398 69.249 6.796 68.747 6.176 68.23 C4.5 66.352 4.087 65.02 3.688 62.562 C2.636 62.501 1.584 62.439 0.5 62.375 C-5.719 61.05 -8.606 56.461 -12.312 51.562 C-13.667 48.854 -13.378 46.553 -13.312 43.562 C-13.904 43.488 -14.496 43.413 -15.105 43.336 C-18.086 42.291 -18.917 40.807 -20.625 38.188 C-21.157 37.396 -21.69 36.605 -22.238 35.789 C-23.312 33.562 -23.312 33.562 -22.312 30.562 C-22.125 30.923 -22.125 30.923 -21.176 32.75 C-20.92 33.214 -20.92 33.214 -19.625 35.562 C-19.376 36.027 -19.376 36.027 -18.113 38.375 C-16.312 40.562 -16.312 40.562 -13.605 40.875 C-13.227 40.823 -13.227 40.823 -11.312 40.562 C-11.3 40.9 -11.3 40.9 -11.234 42.609 C-10.765 49.986 -10.765 49.986 -8.25 53.188 C-7.611 53.641 -6.971 54.095 -6.312 54.562 C-5.983 53.243 -5.652 51.922 -5.312 50.562 C-4.983 50.562 -4.652 50.562 -4.312 50.562 C-3.983 53.203 -3.652 55.843 -3.312 58.562 C-1.992 58.892 -0.672 59.222 0.688 59.562 C0.664 58.803 0.641 58.044 0.617 57.262 C0.608 56.765 0.608 56.765 0.562 54.25 C0.539 53.264 0.516 52.278 0.492 51.262 C0.688 48.562 0.688 48.562 2.688 45.562 C2.916 42.69 3.056 39.876 3.125 37 C3.351 30.794 4.01 25.504 6.121 19.621 C7.021 16.349 6.468 13.826 5.688 10.562 C5.027 10.562 4.367 10.562 3.688 10.562 C3.688 9.573 3.688 8.582 3.688 7.562 C0.387 6.903 -2.913 6.243 -6.312 5.562 C-4.709 1.79 -4.155 0.706 0 0 Z " fill="#A38D80" transform="translate(26.3125,59.4375)"/>
<path d="M0 0 C0.701 0.722 1.403 1.444 2.125 2.188 C5.648 5.711 9.321 9.049 13.668 11.512 C16.792 14.845 16.52 17.027 16.439 21.461 C16.398 22.381 16.356 23.302 16.312 24.25 C16.29 25.186 16.267 26.122 16.244 27.086 C16.185 29.392 16.103 31.695 16 34 C11.432 35.195 7.021 36.283 2.312 36.75 C1.422 36.848 0.531 36.946 -0.387 37.047 C-3.339 36.994 -5.343 36.245 -8 35 C-8.25 28.375 -8.25 28.375 -6 25 C-5.34 25 -4.68 25 -4 25 C-4.046 23.866 -4.093 22.731 -4.141 21.562 C-4.562 6.701 -4.562 6.701 0 0 Z " fill="#816B5E" transform="translate(62,156)"/>
<path d="M0 0 C0.688 1.625 0.688 1.625 1 4 C0.546 4.804 0.093 5.609 -0.375 6.438 C-2.792 11.736 -2.968 17.214 -3 23 C-2.67 23.66 -2.34 24.32 -2 25 C-2.66 25.33 -3.32 25.66 -4 26 C-3.67 26.66 -3.34 27.32 -3 28 C-3.639 28.289 -4.279 28.577 -4.938 28.875 C-7 30 -7 30 -8 32 C-7.01 32.99 -6.02 33.98 -5 35 C-6.32 35 -7.64 35 -9 35 C-9 36.32 -9 37.64 -9 39 C-6.374 38.886 -3.75 38.76 -1.125 38.625 C-0.379 38.594 0.368 38.563 1.137 38.531 C6.773 38.227 6.773 38.227 9 36 C9.4 33.677 9.74 31.343 10 29 C10.33 29 10.66 29 11 29 C11.488 34.859 11.488 34.859 11 37 C8.211 40.044 6.559 40.928 2.441 41.461 C1.161 41.433 -0.119 41.404 -1.438 41.375 C-2.076 41.369 -2.076 41.369 -5.309 41.336 C-8.851 41.014 -11.694 40.277 -15 39 C-15.076 35.278 -14.973 31.816 -14.438 28.125 C-14.293 27.094 -14.149 26.062 -14 25 C-14.33 24.67 -14.66 24.34 -15 24 C-16.435 26.87 -16.276 29.729 -16.426 32.906 C-16.615 33.597 -16.805 34.288 -17 35 C-19.004 36.121 -19.004 36.121 -21 37 C-21.625 39.562 -21.625 39.562 -22 42 C-22.33 42.165 -22.33 42.165 -24 43 C-23.885 40.457 -23.759 37.917 -23.625 35.375 C-23.594 34.662 -23.563 33.949 -23.531 33.215 C-23.289 28.806 -22.553 25.173 -21 21 C-19.153 14.372 -17.659 7.852 -17 1 C-16.01 1.66 -15.02 2.32 -14 3 C-14.66 7.62 -15.32 12.24 -16 17 C-11.603 15.901 -11.2 15.445 -8.75 11.938 C-8.49 11.571 -8.49 11.571 -7.172 9.715 C-6.785 9.149 -6.398 8.583 -6 8 C-6 8.99 -6 9.98 -6 11 C-3.135 7.59 -1.653 4.093 0 0 Z " fill="#7E695A" transform="translate(134,151)"/>
<path d="M0 0 C0.33 0 0.66 0 1 0 C1.165 1.485 1.165 1.485 2 9 C6.283 10.028 8.236 10.443 12.125 8.188 C13.074 7.466 14.022 6.744 15 6 C15.443 5.825 15.443 5.825 17.688 4.938 C20.11 3.955 21.224 2.861 23 1 C23.66 1 24.32 1 25 1 C24.34 2.32 23.68 3.64 23 5 C22.34 5 21.68 5 21 5 C20.67 5.99 20.34 6.98 20 8 C17.663 9.123 15.41 10.08 13 11 C12.154 11.412 11.309 11.825 10.438 12.25 C7.27 13.225 5.183 12.83 2 12 C1.01 11.34 0.02 10.68 -1 10 C-1.266 10.598 -1.531 11.196 -1.805 11.812 C-5.75 19.032 -14.058 22.566 -21.438 25.25 C-25.105 26.022 -28.264 26.083 -31.984 25.875 C-34 26 -34 26 -37 28 C-39.321 28.708 -41.654 29.38 -44 30 C-45.864 35.902 -46.358 39.224 -44 45 C-42 46 -42 46 -39 46 C-37.636 47.979 -36.306 49.982 -35 52 C-34.654 52.231 -34.654 52.231 -32.904 53.4 C-31 55 -31 55 -30.482 57.221 C-30.478 58.066 -30.473 58.911 -30.469 59.781 C-30.464 60.706 -30.458 61.63 -30.453 62.582 C-30.461 63.063 -30.461 63.063 -30.5 65.5 C-30.485 66.463 -30.469 67.426 -30.453 68.418 C-30.458 69.342 -30.463 70.266 -30.469 71.219 C-30.473 72.064 -30.478 72.909 -30.482 73.779 C-31 76 -31 76 -32.804 77.781 C-36.032 79.573 -39.165 79.32 -42.75 79.188 C-43.447 79.174 -44.145 79.16 -44.863 79.146 C-46.576 79.111 -48.288 79.057 -50 79 C-46.363 76.575 -44.143 76.613 -39.812 76.375 C-39.176 76.338 -39.176 76.338 -35.957 76.148 C-34.981 76.099 -34.005 76.05 -33 76 C-33.072 75.143 -33.144 74.286 -33.219 73.402 C-33.312 72.259 -33.404 71.116 -33.5 69.938 C-33.603 68.748 -33.706 67.558 -33.812 66.332 C-34 63 -34 63 -33.5 59.125 C-34.121 55.244 -35.081 54.784 -38.125 52.438 C-38.941 51.868 -39.757 51.298 -40.598 50.711 C-43.783 48.443 -46.31 45.827 -49 43 C-51.696 48.442 -52.506 52.9 -52.688 58.938 C-52.722 59.717 -52.756 60.496 -52.791 61.299 C-52.873 63.199 -52.938 65.099 -53 67 C-53.33 67 -53.66 67 -54 67 C-54.33 62.71 -54.66 58.42 -55 54 C-55.33 54.165 -55.33 54.165 -57 55 C-56.728 54.473 -56.456 53.946 -56.176 53.402 C-51.078 42.987 -46.252 31.826 -43.047 20.688 C-42.701 19.801 -42.356 18.914 -42 18 C-41.01 17.67 -40.02 17.34 -39 17 C-38.67 16.01 -38.34 15.02 -38 14 C-37.34 13.711 -36.68 13.422 -36 13.125 C-34 12 -34 12 -33.25 9.375 C-33.168 8.591 -33.085 7.808 -33 7 C-32.01 7.99 -31.02 8.98 -30 10 C-30.66 12.31 -31.32 14.62 -32 17 C-32.33 16.34 -32.66 15.68 -33 15 C-33.66 15 -34.32 15 -35 15 C-35.33 15.99 -35.66 16.98 -36 18 C-37.312 19.354 -38.646 20.687 -40 22 C-40.66 22.99 -41.32 23.98 -42 25 C-39.25 25.312 -39.25 25.312 -36 25 C-34.618 23.374 -33.281 21.707 -32 20 C-30.68 20 -29.36 20 -28 20 C-28 20.66 -28 21.32 -28 22 C-19.68 21.968 -13.475 20.4 -7 15 C-3.148 10.533 -1.304 5.688 0 0 Z " fill="#6E5648" transform="translate(111,114)"/>
<path d="M0 0 C16.117 1.595 16.117 1.595 23 6 C23.165 6.33 23.165 6.33 24 8 C23.34 8.66 22.68 9.32 22 10 C22.485 9.723 22.969 9.446 23.469 9.16 C28.414 6.488 32.395 5.4 38 5 C38.165 5.495 38.165 5.495 39 8 C38.01 8.66 37.02 9.32 36 10 C36 9.34 36 8.68 36 8 C33.69 8.33 31.38 8.66 29 9 C29 9.66 29 10.32 29 11 C27.969 11.268 26.938 11.536 25.875 11.812 C23.149 12.56 21.389 13.355 18.875 14.812 C17.926 15.204 16.977 15.596 16 16 C13.562 14.812 13.562 14.812 11 13 C6.22 11.318 2.064 10.437 -3 11 C-6.317 13.006 -7.923 14.884 -10.062 18.125 C-11.948 20.923 -12.895 21.891 -16 23 C-14.667 14.177 -8.759 8.313 -2 3 C-1.34 2.34 -0.68 1.68 0 1 C0 0.67 0 0.34 0 0 Z " fill="#B6A397" transform="translate(26,50)"/>
<path d="M0 0 C5.312 0.81 8.255 2.861 11.688 6.938 C13.259 11.064 11.223 14.212 9.652 18.176 C7.012 25.114 6.172 31.422 6.015 38.775 C5.915 42.665 5.412 45.141 3.688 48.562 C3.492 52.016 3.492 52.016 3.562 55.812 C3.572 56.444 3.572 56.444 3.617 59.641 C3.64 60.605 3.664 61.569 3.688 62.562 C-0.49 62.317 -2.745 62.038 -6 59.312 C-13.462 50.439 -13.462 50.439 -13.312 43.562 C-13.904 43.488 -14.496 43.413 -15.105 43.336 C-18.086 42.291 -18.917 40.807 -20.625 38.188 C-21.157 37.396 -21.69 36.605 -22.238 35.789 C-23.312 33.562 -23.312 33.562 -22.312 30.562 C-22.125 30.923 -22.125 30.923 -21.176 32.75 C-20.92 33.214 -20.92 33.214 -19.625 35.562 C-19.376 36.027 -19.376 36.027 -18.113 38.375 C-16.312 40.562 -16.312 40.562 -13.605 40.875 C-13.227 40.823 -13.227 40.823 -11.312 40.562 C-11.3 40.9 -11.3 40.9 -11.234 42.609 C-10.765 49.986 -10.765 49.986 -8.25 53.188 C-7.611 53.641 -6.971 54.095 -6.312 54.562 C-5.983 53.243 -5.652 51.922 -5.312 50.562 C-4.983 50.562 -4.652 50.562 -4.312 50.562 C-3.983 53.203 -3.652 55.843 -3.312 58.562 C-1.992 58.892 -0.672 59.222 0.688 59.562 C0.664 58.803 0.641 58.044 0.617 57.262 C0.608 56.765 0.608 56.765 0.562 54.25 C0.539 53.264 0.516 52.278 0.492 51.262 C0.688 48.562 0.688 48.562 2.688 45.562 C2.916 42.69 3.056 39.876 3.125 37 C3.351 30.794 4.01 25.504 6.121 19.621 C7.021 16.349 6.468 13.826 5.688 10.562 C5.027 10.562 4.367 10.562 3.688 10.562 C3.688 9.573 3.688 8.582 3.688 7.562 C0.387 6.903 -2.913 6.243 -6.312 5.562 C-4.709 1.79 -4.155 0.706 0 0 Z " fill="#7F6759" transform="translate(26.3125,59.4375)"/>
<path d="M0 0 C1.417 3.757 0.557 5.732 -1.062 9.312 C-2.624 12.849 -4.168 16.377 -5.566 19.98 C-5.826 20.648 -6.086 21.316 -6.353 22.005 C-6.858 23.309 -7.359 24.615 -7.856 25.923 C-9.207 29.377 -10.764 32.069 -13 35 C-13.165 35.67 -13.33 36.341 -13.5 37.031 C-14.506 40.992 -17.904 43.529 -21 46 C-24.928 48.23 -28.443 50 -33 50 C-33 48.35 -33 46.7 -33 45 C-31.824 44.856 -30.649 44.711 -29.438 44.562 C-24.411 43.35 -22.395 40.303 -19.543 36.191 C-18 34 -18 34 -16.418 32.445 C-12.696 28.652 -11.238 22.913 -9.773 17.922 C-9.562 17.205 -9.35 16.488 -9.132 15.749 C-8.715 14.307 -8.313 12.86 -7.926 11.409 C-6.459 6.296 -6.459 6.296 -3.922 4.66 C-3.288 4.442 -2.653 4.224 -2 4 C-0.75 1.875 -0.75 1.875 0 0 Z " fill="#998376" transform="translate(68,132)"/>
<path d="M0 0 C0.66 0 1.32 0 2 0 C2.061 0.808 2.121 1.616 2.184 2.449 C2.225 2.984 2.225 2.984 2.438 5.688 C2.519 6.743 2.6 7.799 2.684 8.887 C2.965 11.653 3.448 14.279 4 17 C4.038 19 4.046 21.001 4 23 C4.825 23.33 4.825 23.33 9 25 C5.363 27.425 4.043 27.139 -0.242 26.828 C-1.473 26.74 -2.704 26.653 -3.973 26.562 C-5.26 26.459 -6.548 26.356 -7.875 26.25 C-9.155 26.162 -10.435 26.075 -11.754 25.984 C-22.578 25.17 -22.578 25.17 -27 23 C-28.913 20.478 -29.056 19.408 -28.625 16.25 C-28.419 15.507 -28.212 14.765 -28 14 C-27.67 14 -27.34 14 -27 14 C-27 15.98 -27 17.96 -27 20 C-22.442 21.135 -18.041 21.184 -13.375 21.188 C-12.612 21.2 -11.849 21.212 -11.062 21.225 C-7.18 21.235 -5.303 21.202 -2 19 C-1.64 16.292 -1.442 13.779 -1.375 11.062 C-1.101 3.302 -1.101 3.302 0 0 Z " fill="#C7B5A3" transform="translate(81,171)"/>
<path d="M0 0 C2.934 2.934 2.462 6.183 2.625 10.125 C2.664 10.879 2.702 11.633 2.742 12.41 C2.837 14.273 2.919 16.136 3 18 C4.32 18.33 5.64 18.66 7 19 C4.69 18.67 2.38 18.34 0 18 C-0.66 16.02 -1.32 14.04 -2 12 C-2.231 12.519 -2.461 13.039 -2.699 13.574 C-6.234 21.132 -11.35 26.454 -19 30 C-19.66 29.67 -20.32 29.34 -21 29 C-20.451 24.063 -16.856 21.509 -13.184 18.523 C-9.553 15.568 -7.444 13.595 -6 9 C-5.34 8.67 -4.68 8.34 -4 8 C-4 5.69 -4 3.38 -4 1 C-2.125 0.375 -2.125 0.375 0 0 Z " fill="#90796A" transform="translate(113,106)"/>
<path d="M0 0 C0.33 0.99 0.66 1.98 1 3 C0.01 3.33 -0.98 3.66 -2 4 C-2.268 4.701 -2.536 5.403 -2.812 6.125 C-4.465 10.125 -6.613 13.268 -10 16 C-12.813 16.865 -15.017 16.949 -18 17 C-18 18.65 -18 20.3 -18 22 C-17.34 22.33 -16.68 22.66 -16 23 C-17 24 -17 24 -19.25 24.438 C-22.666 23.894 -24.002 22.451 -26.055 19.727 C-27.52 17.05 -27.471 14.963 -27 12 C-25 10 -25 10 -21.5 9.688 C-20.922 9.739 -20.922 9.739 -18 10 C-16 13 -16 13 -16 16 C-13.562 15.188 -13.562 15.188 -11 14 C-10 11 -10 11 -11 8 C-10.67 7.67 -10.34 7.34 -10 7 C-10.66 6.67 -11.32 6.34 -12 6 C-12 5.34 -12 4.68 -12 4 C-11.385 3.963 -10.77 3.925 -10.137 3.887 C-9.733 3.854 -9.733 3.854 -7.688 3.688 C-6.887 3.629 -6.086 3.571 -5.262 3.512 C-2.637 2.918 -1.692 2.042 0 0 Z " fill="#A79285" transform="translate(53,160)"/>
<path d="M0 0 C7.409 -0.634 12.374 0.09 18.809 3.906 C21 5 21 5 25 5 C25.722 4.67 26.444 4.34 27.188 4 C31.135 2.596 34.852 2.837 39 3 C39 2.34 39 1.68 39 1 C41.31 1 43.62 1 46 1 C45.67 1.66 45.34 2.32 45 3 C45.929 3.11 46.859 3.219 47.816 3.332 C54.353 4.17 60.134 4.927 66 8 C62.674 9.663 59.316 7.981 55.875 7.062 C55.121 6.867 54.367 6.672 53.59 6.471 C51.725 5.987 49.862 5.494 48 5 C47.67 5.66 47.34 6.32 47 7 C45.039 7.633 45.039 7.633 42.625 8.125 C41.834 8.293 41.042 8.46 40.227 8.633 C38 9 38 9 35 9 C34.835 8.505 34.835 8.505 34 6 C29.303 6.809 25.167 7.685 21.062 10.188 C20.557 10.487 20.557 10.487 18 12 C17.34 11.67 16.68 11.34 16 11 C17.32 9.68 18.64 8.36 20 7 C13.469 3.232 7.451 1.944 0 1 C0 0.67 0 0.34 0 0 Z M34 9 C34 9.99 34 10.98 34 12 C33.01 12.33 32.02 12.66 31 13 C31 12.34 31 11.68 31 11 C31.99 10.34 32.98 9.68 34 9 Z " fill="#AD9B8F" transform="translate(29,50)"/>
<path d="M0 0 C2.975 0.235 4.571 0.615 6.812 2.625 C8.492 5.984 8.456 8.29 8 12 C6 14.938 6 14.938 4 17 C1.103 16.678 -1.319 16.386 -3.875 14.938 C-5.732 11.739 -5.179 8.645 -5 5 C-2 5 -2 5 1 6 C1 4.68 1 3.36 1 2 C0.34 1.67 -0.32 1.34 -1 1 C-0.67 0.67 -0.34 0.34 0 0 Z " fill="#110E0B" transform="translate(82,96)"/>
<path d="M0 0 C3.525 5.328 1.556 12 1 18 C3.475 18.33 3.475 18.33 16 20 C15.34 20.33 15.34 20.33 12 22 C11.67 22.33 11.34 22.66 11 23 C9.223 23.228 7.438 23.395 5.652 23.535 C4.573 23.622 3.493 23.709 2.381 23.799 C1.245 23.886 0.108 23.973 -1.062 24.062 C-2.203 24.153 -3.343 24.244 -4.518 24.338 C-7.345 24.563 -10.172 24.783 -13 25 C-12.198 24.394 -11.396 23.788 -10.57 23.164 C-7.79 20.823 -7.225 19.326 -6 16 C-5.01 15.34 -4.02 14.68 -3 14 C-2.559 12.012 -2.559 12.012 -2.438 9.688 C-2.16 6.104 -1.584 3.274 0 0 Z " fill="#B09E8D" transform="translate(119,172)"/>
<path d="M0 0 C0.66 1.32 1.32 2.64 2 4 C2.66 4 3.32 4 4 4 C4 5.65 4 7.3 4 9 C4.99 7.02 5.98 5.04 7 3 C8.32 3.33 9.64 3.66 11 4 C10.67 4.165 10.67 4.165 9 5 C7 7 7 7 6.625 10.875 C6.787 14.25 7.476 16.952 9 20 C8.34 20 7.68 20 7 20 C7 20.66 7 21.32 7 22 C4.36 21.67 1.72 21.34 -1 21 C-1.33 22.98 -1.66 24.96 -2 27 C-2.33 27 -2.66 27 -3 27 C-3.054 25.417 -3.093 23.834 -3.125 22.25 C-3.148 21.368 -3.171 20.487 -3.195 19.578 C-3 17 -3 17 -2.031 15.094 C-0.59 12.167 -0.569 9.49 -0.375 6.25 C-0.3 5.08 -0.225 3.909 -0.148 2.703 C-0.099 1.811 -0.05 0.919 0 0 Z " fill="#B4A093" transform="translate(32,91)"/>
<path d="M0 0 C0.33 0.99 0.66 1.98 1 3 C0.567 3.371 0.134 3.743 -0.312 4.125 C-2 6 -2 6 -3.438 9 C-5.017 12.033 -6.054 13.343 -9 15 C-9.99 15 -10.98 15 -12 15 C-12.721 17.935 -13.21 20.032 -13 23 C-11.767 24.96 -10.322 26.429 -8.703 28.082 C-4.804 32.473 -2.191 37.788 -1.688 43.625 C-1.791 44.409 -1.894 45.192 -2 46 C-2.66 45.67 -3.32 45.34 -4 45 C-4.641 43.031 -4.641 43.031 -5.25 40.5 C-6.994 34.299 -10.04 28.852 -14.707 24.355 C-14.92 24.132 -14.92 24.132 -16 23 C-15.688 21.25 -15.688 21.25 -15 19 C-14.552 12.728 -14.552 12.728 -16.5 9.562 C-16.995 9.047 -17.49 8.531 -18 8 C-17.67 7.34 -17.34 6.68 -17 6 C-15.35 7.98 -13.7 9.96 -12 12 C-7.125 11.125 -7.125 11.125 -6 10 C-5.929 8.648 -5.916 7.292 -5.938 5.938 C-5.958 4.638 -5.979 3.339 -6 2 C-4.68 2.33 -3.36 2.66 -2 3 C-1.34 2.01 -0.68 1.02 0 0 Z " fill="#88766A" transform="translate(152,92)"/>
<path d="M0 0 C0.33 0 0.66 0 1 0 C1.33 2.97 1.66 5.94 2 9 C6.283 10.028 8.236 10.443 12.125 8.188 C13.074 7.466 14.023 6.744 15 6 C15.887 5.649 16.774 5.299 17.688 4.938 C20.11 3.955 21.224 2.861 23 1 C23.66 1 24.32 1 25 1 C24.34 2.32 23.68 3.64 23 5 C22.34 5 21.68 5 21 5 C20.67 5.99 20.34 6.98 20 8 C17.663 9.123 15.41 10.08 13 11 C12.154 11.412 11.309 11.825 10.438 12.25 C7.27 13.225 5.183 12.83 2 12 C1.01 11.34 0.02 10.68 -1 10 C-1.266 10.598 -1.531 11.196 -1.805 11.812 C-4.921 17.516 -11.829 22.155 -18 24 C-20.238 23.598 -20.238 23.598 -22 23 C-21.192 22.625 -20.384 22.25 -19.551 21.863 C-10.4 17.481 -4.859 13.516 -1 4 C-0.64 2.674 -0.299 1.342 0 0 Z " fill="#665042" transform="translate(111,114)"/>
<path d="M0 0 C3.5 0.25 3.5 0.25 5.5 2.25 C5.17 2.91 4.84 3.57 4.5 4.25 C3.84 4.25 3.18 4.25 2.5 4.25 C2.83 5.24 3.16 6.23 3.5 7.25 C0.86 7.25 -1.78 7.25 -4.5 7.25 C-4.5 7.91 -4.5 8.57 -4.5 9.25 C-3.18 9.58 -1.86 9.91 -0.5 10.25 C-1.49 10.58 -2.48 10.91 -3.5 11.25 C-3.5 12.24 -3.5 13.23 -3.5 14.25 C-4.16 14.25 -4.82 14.25 -5.5 14.25 C-5.5 14.91 -5.5 15.57 -5.5 16.25 C-4.531 16.374 -3.561 16.498 -2.562 16.625 C-2.057 16.728 -2.057 16.728 0.5 17.25 C0.83 17.91 1.16 18.57 1.5 19.25 C-1.934 20.109 -4.117 20.226 -7.5 19.25 C-7.219 16.457 -6.926 13.666 -6.625 10.875 C-6.546 10.081 -6.468 9.287 -6.387 8.469 C-5.497 0.393 -5.497 0.393 0 0 Z " fill="#AE9A8D" transform="translate(48.5,144.75)"/>
<path d="M0 0 C0.99 0.66 1.98 1.32 3 2 C3.363 4.75 3.363 4.75 3.312 8 C3.309 9.073 3.305 10.145 3.301 11.25 C3 14 3 14 1 16 C-1.5 15.812 -1.5 15.812 -4 15 C-6.679 10.981 -6.156 8.758 -6 4 C-5.34 3.67 -4.68 3.34 -4 3 C-3.67 3.66 -3.34 4.32 -3 5 C-2.01 5.33 -1.02 5.66 0 6 C0 4.02 0 2.04 0 0 Z " fill="#080604" transform="translate(44,94)"/>
<path d="M0 0 C0.99 0.33 1.98 0.66 3 1 C3.66 0.67 4.32 0.34 5 0 C4.679 1.097 4.358 2.194 4.027 3.324 C2.513 9.368 2.611 15.464 2.521 21.662 C2.495 22.564 2.469 23.466 2.441 24.395 C2.428 25.208 2.414 26.021 2.401 26.859 C1.915 29.452 1.005 30.349 -1 32 C-3 30 -3 30 -3.195 27.18 C-3.172 26.089 -3.149 24.999 -3.125 23.875 C-3.107 22.779 -3.089 21.684 -3.07 20.555 C-3.047 19.712 -3.024 18.869 -3 18 C-2.01 17.67 -1.02 17.34 0 17 C0 11.39 0 5.78 0 0 Z " fill="#745E51" transform="translate(87,154)"/>
<path d="M0 0 C1.163 3.55 0.924 6.558 0.562 10.25 C0.461 11.328 0.359 12.405 0.254 13.516 C0.17 14.335 0.086 15.155 0 16 C-3.266 15.402 -5.174 14.341 -7.688 12.188 C-8.289 11.686 -8.891 11.185 -9.512 10.668 C-11.188 8.79 -11.6 7.457 -12 5 C-11.505 5.33 -11.505 5.33 -9 7 C-7.684 6.214 -6.372 5.421 -5.062 4.625 C-4.332 4.184 -3.601 3.743 -2.848 3.289 C-1 2 -1 2 0 0 Z " fill="#907B6E" transform="translate(42,117)"/>
<path d="M0 0 C-0.06 2.292 -0.149 4.584 -0.25 6.875 C-0.296 8.151 -0.343 9.427 -0.391 10.742 C-0.592 11.817 -0.793 12.892 -1 14 C-3.008 15.285 -3.008 15.285 -5 16 C-5.625 18.562 -5.625 18.562 -6 21 C-6.66 21.33 -7.32 21.66 -8 22 C-7.913 19.436 -7.806 16.875 -7.688 14.312 C-7.665 13.591 -7.642 12.87 -7.619 12.127 C-7.396 7.682 -6.89 4.59 -4 1 C-1 0 -1 0 0 0 Z " fill="#725F51" transform="translate(118,172)"/>
<path d="M0 0 C0.33 0.99 0.66 1.98 1 3 C0.67 3.66 0.34 4.32 0 5 C-0.071 7.041 -0.084 9.083 -0.062 11.125 C-0.058 11.673 -0.058 11.673 -0.035 14.445 C-0.024 15.288 -0.012 16.131 0 17 C0.99 17.33 1.98 17.66 3 18 C2.01 18 1.02 18 0 18 C-0.144 18.619 -0.289 19.238 -0.438 19.875 C-1 22 -1 22 -2 24 C0.64 24.33 3.28 24.66 6 25 C5 28 5 28 3 31 C0.375 31.188 0.375 31.188 -2 31 C-1.67 29.68 -1.34 28.36 -1 27 C-2 28 -2 28 -3 30 C-3.66 30 -4.32 30 -5 30 C-5 27.36 -5 24.72 -5 22 C-4.01 21.67 -3.02 21.34 -2 21 C-2.023 19.819 -2.046 18.638 -2.07 17.422 C-2.089 15.865 -2.107 14.307 -2.125 12.75 C-2.142 11.973 -2.159 11.195 -2.176 10.395 C-2.237 3.276 -2.237 3.276 0 0 Z " fill="#A08A7C" transform="translate(60,160)"/>
<path d="M0 0 C0.33 0 0.66 0 1 0 C1 1.98 1 3.96 1 6 C8.521 8.605 16.214 8.724 24.104 9.211 C25.187 9.286 26.27 9.36 27.387 9.438 C28.369 9.498 29.35 9.559 30.362 9.621 C32.983 9.998 34.73 10.672 37 12 C30.947 13.472 25.151 12.683 19 12.188 C17.824 12.104 16.649 12.021 15.438 11.936 C14.303 11.847 13.169 11.759 12 11.668 C10.969 11.588 9.938 11.509 8.875 11.427 C5.145 10.873 1.968 10.276 -0.375 7.188 C-1.151 4.472 -0.748 2.692 0 0 Z " fill="#E5D7C7" transform="translate(53,185)"/>
<path d="M0 0 C0.66 0.99 1.32 1.98 2 3 C-1.523 10.578 -7.121 15.731 -14.688 19.25 C-17 20 -17 20 -20 20 C-20 18.35 -20 16.7 -20 15 C-18.209 14.497 -16.417 13.998 -14.625 13.5 C-13.627 13.222 -12.63 12.943 -11.602 12.656 C-9 12 -9 12 -7 12 C-5.263 10.055 -4.137 8.546 -3.5 6 C-2.873 3.493 -1.625 1.978 0 0 Z " fill="#91796A" transform="translate(55,162)"/>
<path d="M0 0 C0.99 0 1.98 0 3 0 C4.688 2 4.688 2 6 4 C5 6 4 8 3 10 C2.835 11.176 2.67 12.351 2.5 13.562 C2 17 2 17 1 18 C0.768 19.515 0.588 21.038 0.438 22.562 C0.354 23.389 0.27 24.215 0.184 25.066 C0.123 25.704 0.062 26.343 0 27 C-0.33 27 -0.66 27 -1 27 C-1.255 23.564 -1.474 20.126 -1.688 16.688 C-1.76 15.711 -1.833 14.735 -1.908 13.729 C-1.963 12.791 -2.018 11.853 -2.074 10.887 C-2.132 10.023 -2.189 9.159 -2.249 8.268 C-2 6 -2 6 -0.495 4.195 C-0.002 3.8 0.492 3.406 1 3 C0.67 2.01 0.34 1.02 0 0 Z " fill="#8F7668" transform="translate(115,79)"/>
<path d="M0 0 C2.105 2.541 3.931 4.866 5.438 7.812 C5.953 8.534 6.469 9.256 7 10 C9.598 10.137 9.598 10.137 12 10 C12.013 10.338 12.013 10.338 12.078 12.047 C12.547 19.424 12.547 19.424 15.062 22.625 C15.702 23.079 16.341 23.532 17 24 C17.33 22.68 17.66 21.36 18 20 C18.33 20 18.66 20 19 20 C19.33 22.64 19.66 25.28 20 28 C21.32 28.33 22.64 28.66 24 29 C24.33 28.34 24.66 27.68 25 27 C25 27.99 25 28.98 25 30 C22.812 30.812 22.812 30.812 20 31 C16.062 27.734 12.304 23.609 10 19 C9.96 17 9.957 15 10 13 C9.407 12.925 8.814 12.85 8.203 12.773 C5.228 11.729 4.434 10.253 2.75 7.625 C2.229 6.834 1.708 6.042 1.172 5.227 C0 3 0 3 0 0 Z " fill="#8B786B" transform="translate(3,90)"/>
<path d="M0 0 C0.619 0.784 1.238 1.567 1.875 2.375 C4 5 4 5 6 7 C6.33 6.34 6.66 5.68 7 5 C6.01 4.67 5.02 4.34 4 4 C4.99 3.67 5.98 3.34 7 3 C8.562 4.562 8.562 4.562 10 7 C9.688 10.75 9.688 10.75 9 14 C5 14 5 14 2.812 12.625 C0.102 8.699 0.178 4.677 0 0 Z " fill="#857367" transform="translate(151,155)"/>
<path d="M0 0 C0.534 0.014 0.534 0.014 3.238 0.082 C4.047 0.117 4.855 0.152 5.688 0.188 C5.358 0.847 5.028 1.508 4.688 2.188 C2.823 2.505 0.944 2.741 -0.938 2.938 C-6.731 3.808 -10.762 5.385 -14.312 10.188 C-15.576 13.768 -15.068 16.494 -14.312 20.188 C-14.972 19.858 -15.632 19.528 -16.312 19.188 C-16.312 18.528 -16.312 17.868 -16.312 17.188 C-16.972 17.188 -17.632 17.188 -18.312 17.188 C-18.881 13.937 -18.78 11.889 -16.93 9.113 C-11.908 3.233 -8.049 -0.265 0 0 Z " fill="#6E5749" transform="translate(125.3125,61.8125)"/>
<path d="M0 0 C0.33 0.99 0.66 1.98 1 3 C1.99 3.66 2.98 4.32 4 5 C2.35 5 0.7 5 -1 5 C-1.144 5.309 -1.144 5.309 -1.875 6.875 C-3 9 -3 9 -5 11 C-8.625 11.125 -8.625 11.125 -12 11 C-11.234 9.726 -10.462 8.456 -9.688 7.188 C-9.258 6.48 -8.829 5.772 -8.387 5.043 C-4.964 0 -4.964 0 0 0 Z " fill="#A8816F" transform="translate(80,129)"/>
<path d="M0 0 C0.33 0 0.66 0 1 0 C1.488 5.859 1.488 5.859 1 8 C-1.789 11.044 -3.441 11.928 -7.559 12.461 C-8.839 12.433 -10.119 12.404 -11.438 12.375 C-12.076 12.369 -12.076 12.369 -15.309 12.336 C-18.851 12.014 -21.694 11.277 -25 10 C-25 7.69 -25 5.38 -25 3 C-24.34 3 -23.68 3 -23 3 C-23.33 4.98 -23.66 6.96 -24 9 C-23.01 9 -22.02 9 -21 9 C-21.33 7.35 -21.66 5.7 -22 4 C-20.68 4.66 -19.36 5.32 -18 6 C-18.33 7.32 -18.66 8.64 -19 10 C-16.374 9.886 -13.75 9.76 -11.125 9.625 C-10.379 9.594 -9.632 9.563 -8.863 9.531 C-3.227 9.227 -3.227 9.227 -1 7 C-0.6 4.677 -0.26 2.343 0 0 Z " fill="#7F6858" transform="translate(144,180)"/>
<path d="M0 0 C0.99 0.66 1.98 1.32 3 2 C2.01 2 1.02 2 0 2 C0 3.32 0 4.64 0 6 C-2.145 6.165 -2.145 6.165 -13 7 C-13 5.35 -13 3.7 -13 2 C-8.503 0.245 -4.826 -0.364 0 0 Z " fill="#B6A498" transform="translate(59,106)"/>
<path d="M0 0 C0.33 0.99 0.66 1.98 1 3 C1.66 3 2.32 3 3 3 C3.133 3.976 3.266 4.952 3.402 5.957 C3.579 7.229 3.756 8.502 3.938 9.812 C4.112 11.077 4.286 12.342 4.465 13.645 C5 17 5 17 6 20 C6.66 20.33 7.32 20.66 8 21 C7.67 21.99 7.34 22.98 7 24 C1.429 17.857 1.429 17.857 1 13 C0.34 13 -0.32 13 -1 13 C-1.027 11.021 -1.046 9.042 -1.062 7.062 C-1.074 5.96 -1.086 4.858 -1.098 3.723 C-1 1 -1 1 0 0 Z " fill="#A08E81" transform="translate(150,139)"/>
<path d="M0 0 C0.33 0.66 0.66 1.32 1 2 C1.99 2.33 2.98 2.66 4 3 C3.67 3.66 3.34 4.32 3 5 C3.33 5.99 3.66 6.98 4 8 C2 11 2 11 -0.625 11.688 C-1.409 11.791 -2.193 11.894 -3 12 C-3.66 10.02 -4.32 8.04 -5 6 C-6.98 6 -8.96 6 -11 6 C-11 5.67 -11 5.34 -11 5 C-10.464 4.959 -10.464 4.959 -7.75 4.75 C-3.726 3.945 -2.518 3.123 0 0 Z " fill="#B09E91" transform="translate(40,164)"/>
<path d="M0 0 C1.114 2.803 1.006 3.98 0.074 6.91 C-0.155 7.43 -0.155 7.43 -1.312 10.062 C-1.537 10.584 -1.537 10.584 -2.676 13.223 C-4 16 -4 16 -6 19 C-6.99 19 -7.98 19 -9 19 C-8.454 14.453 -7.859 10.208 -6 6 C-4 4.875 -4 4.875 -2 4 C-0.75 1.875 -0.75 1.875 0 0 Z " fill="#90796C" transform="translate(68,132)"/>
<path d="M0 0 C2.175 3.521 2.269 6.406 2.25 10.5 C2.255 11.624 2.26 12.748 2.266 13.906 C2 17 2 17 0.992 18.953 C-0.503 22.038 -0.188 24.855 -0.125 28.25 C-0.107 29.513 -0.089 30.777 -0.07 32.078 C-0.047 33.042 -0.024 34.007 0 35 C-1.65 35 -3.3 35 -5 35 C-5 34.34 -5 33.68 -5 33 C-4.01 33 -3.02 33 -2 33 C-2.165 32.505 -2.165 32.505 -3 30 C-3.117 28.503 -3.175 27.001 -3.188 25.5 C-3.202 24.727 -3.216 23.953 -3.23 23.156 C-3 21 -3 21 -1 18 C-0.681 16.007 -0.681 16.007 -0.586 13.77 C-0.567 13.368 -0.567 13.368 -0.469 11.338 C-0.438 10.505 -0.407 9.671 -0.375 8.812 C-0.356 8.39 -0.356 8.39 -0.258 6.252 C-0.164 4.168 -0.081 2.084 0 0 Z " fill="#816C5F" transform="translate(30,87)"/>
<path d="M0 0 C0.557 0.021 0.557 0.021 3.375 0.125 C2.385 0.785 1.395 1.445 0.375 2.125 C0.581 3.218 0.788 4.311 1 5.438 C1.375 9.125 1.375 9.125 -0.625 12.125 C-4.5 10.375 -4.5 10.375 -5.625 8.125 C-5.812 5.125 -5.812 5.125 -5.625 2.125 C-3.625 0.125 -3.625 0.125 0 0 Z " fill="#8D7A6D" transform="translate(31.625,169.875)"/>
<path d="M0 0 C2 3 2 3 2 5 C2.99 5.33 3.98 5.66 5 6 C4.241 6.254 3.481 6.508 2.699 6.77 C1.705 7.114 0.711 7.458 -0.312 7.812 C-1.299 8.149 -2.285 8.485 -3.301 8.832 C-5.91 9.961 -7.125 10.942 -9 13 C-11.188 13.688 -11.188 13.688 -13 14 C-13 13.34 -13 12.68 -13 12 C-12.319 11.629 -11.639 11.257 -10.938 10.875 C-6.83 8.253 -4.099 4.716 -1 1 C-0.67 0.67 -0.34 0.34 0 0 Z M6 3 C6.33 3.66 6.66 4.32 7 5 C6.34 4.67 5.68 4.34 5 4 C5.33 3.67 5.66 3.34 6 3 Z " fill="#877162" transform="translate(111,130)"/>
<path d="M0 0 C-0.639 0.309 -1.279 0.619 -1.938 0.938 C-4 2 -4 2 -5 3 C-6.777 3.228 -8.562 3.395 -10.348 3.535 C-11.427 3.622 -12.507 3.709 -13.619 3.799 C-14.755 3.886 -15.892 3.973 -17.062 4.062 C-18.203 4.153 -19.343 4.244 -20.518 4.338 C-23.345 4.563 -26.172 4.783 -29 5 C-20.528 -0.648 -9.798 -0.162 0 0 Z " fill="#DDCFBE" transform="translate(135,192)"/>
<path d="M0 0 C0.99 0.33 1.98 0.66 3 1 C2.299 1.516 1.597 2.031 0.875 2.562 C-3.559 6.321 -7.913 10.097 -9 16 C-9.99 15.67 -10.98 15.34 -12 15 C-12.33 13.02 -12.66 11.04 -13 9 C-12.415 8.907 -11.83 8.814 -11.227 8.719 C-8.489 7.835 -7.323 6.594 -5.375 4.5 C-2.17 1.085 -2.17 1.085 0 0 Z " fill="#A38E81" transform="translate(116,61)"/>
<path d="M0 0 C0.66 0 1.32 0 2 0 C2.061 0.808 2.121 1.616 2.184 2.449 C2.267 3.518 2.351 4.586 2.438 5.688 C2.478 6.215 2.478 6.215 2.684 8.887 C2.965 11.651 3.402 14.289 4 17 C2.68 17.33 1.36 17.66 0 18 C-1.001 11.997 -1.96 5.88 0 0 Z " fill="#F1EEEA" transform="translate(81,171)"/>
<path d="M0 0 C2.377 0.257 4.751 0.53 7.125 0.812 C7.79 0.883 8.455 0.953 9.141 1.025 C13.641 1.577 17.068 2.764 21 5 C20.67 5.165 20.67 5.165 19 6 C18.245 5.697 17.489 5.394 16.711 5.082 C11.199 2.882 4.507 3.086 -1 5.312 C-3.488 6.712 -5.221 7.802 -7 10 C-7.66 9.67 -8.32 9.34 -9 9 C-8.518 8.59 -8.036 8.18 -7.539 7.758 C-6.907 7.219 -6.276 6.68 -5.625 6.125 C-4.999 5.591 -4.372 5.058 -3.727 4.508 C-2.442 3.386 -1.206 2.206 0 1 C0 0.67 0 0.34 0 0 Z " fill="#C8B6AB" transform="translate(26,50)"/>
<path d="M0 0 C6.625 -0.25 6.625 -0.25 10 2 C10.33 2.66 10.66 3.32 11 4 C7.492 5.604 4.856 6.22 1 6 C-0.062 4.125 -0.062 4.125 -1 2 C-0.67 1.34 -0.34 0.68 0 0 Z " fill="#A79285" transform="translate(94,171)"/>
<path d="M0 0 C1.32 0 2.64 0 4 0 C4 4.29 4 8.58 4 13 C3.01 13 2.02 13 1 13 C0 12 0 12 -0.098 9.277 C-0.086 8.175 -0.074 7.073 -0.062 5.938 C-0.053 4.833 -0.044 3.728 -0.035 2.59 C-0.024 1.735 -0.012 0.881 0 0 Z " fill="#675345" transform="translate(84,172)"/>
<path d="M0 0 C1.32 1.32 2.64 2.64 4 4 C3.01 4 2.02 4 1 4 C1.33 5.32 1.66 6.64 2 8 C2.99 8.165 2.99 8.165 8 9 C7.34 10.32 6.68 11.64 6 13 C3.625 12.688 3.625 12.688 1 12 C-1.695 7.958 -1.232 5.795 -1 1 C-0.67 0.67 -0.34 0.34 0 0 Z " fill="#442917" transform="translate(39,97)"/>
<path d="M0 0 C3.367 1.393 4.986 2.979 7 6 C6.443 5.928 5.886 5.856 5.312 5.781 C1.383 5.303 -2.414 4.952 -6.375 5.062 C-10 5 -10 5 -13 3 C-12.145 2.867 -11.291 2.734 -10.41 2.598 C-9.305 2.421 -8.201 2.244 -7.062 2.062 C-5.96 1.888 -4.858 1.714 -3.723 1.535 C-1 1 -1 1 0 0 Z " fill="#8F776A" transform="translate(134,65)"/>
<path d="M0 0 C0.99 0.66 1.98 1.32 3 2 C2.012 8.426 0.864 14.142 -2 20 C-1.34 20 -0.68 20 0 20 C-0.33 20.66 -0.66 21.32 -1 22 C-1.99 22 -2.98 22 -4 22 C-2.81 14.634 -1.519 7.305 0 0 Z " fill="#776154" transform="translate(117,152)"/>
<path d="M0 0 C0.66 0.99 1.32 1.98 2 3 C1.67 3.66 1.34 4.32 1 5 C2.32 5.33 3.64 5.66 5 6 C4.01 6.33 3.02 6.66 2 7 C2 7.99 2 8.98 2 10 C1.34 10 0.68 10 0 10 C0 10.66 0 11.32 0 12 C0.969 12.124 1.939 12.248 2.938 12.375 C3.948 12.581 4.959 12.787 6 13 C6.33 13.66 6.66 14.32 7 15 C3.324 15.919 1.836 15.959 -2 15 C-1.34 10.05 -0.68 5.1 0 0 Z " fill="#B4A194" transform="translate(43,149)"/>
<path d="M0 0 C0.33 0.66 0.66 1.32 1 2 C0.691 2.505 0.691 2.505 -0.875 5.062 C-3.422 9.226 -3.782 13.196 -4 18 C-4.99 18.33 -5.98 18.66 -7 19 C-7.054 17.209 -7.093 15.417 -7.125 13.625 C-7.148 12.627 -7.171 11.63 -7.195 10.602 C-7 8 -7 8 -5 6 C-3.662 4.337 -2.328 2.671 -1 1 C-0.67 0.67 -0.34 0.34 0 0 Z " fill="#AB988C" transform="translate(9,73)"/>
<path d="M0 0 C0.66 0 1.32 0 2 0 C2 1.32 2 2.64 2 4 C4.375 3.688 4.375 3.688 7 3 C7.66 2.01 8.32 1.02 9 0 C9 0.99 9 1.98 9 3 C10.65 3 12.3 3 14 3 C13.67 3.66 13.34 4.32 13 5 C9.578 6.141 6.913 6.098 3.312 6.062 C2.723 6.058 2.723 6.058 -0.262 6.035 C-1.165 6.024 -2.069 6.012 -3 6 C-2.01 5.67 -1.02 5.34 0 5 C0 3.35 0 1.7 0 0 Z " fill="#7E6756" transform="translate(96,191)"/>
<path d="M0 0 C0 3.388 -0.43 5.003 -2 8 C-3.959 9.714 -5.959 11.384 -8 13 C-8.33 13.495 -8.33 13.495 -10 16 C-10 15.01 -10 14.02 -10 13 C-10.99 13 -11.98 13 -13 13 C-12.67 11.35 -12.34 9.7 -12 8 C-10.35 8.33 -8.7 8.66 -7 9 C-4.69 6.03 -2.38 3.06 0 0 Z " fill="#867061" transform="translate(128,159)"/>
<path d="M0 0 C5.395 -0.49 5.395 -0.49 8.312 1.875 C11.297 5.633 11.413 8.208 11 13 C9 15.438 9 15.438 7 17 C7.165 16.484 7.33 15.969 7.5 15.438 C8.174 12.153 8.299 9.346 8 6 C6.312 3.562 6.312 3.562 4 2 C1.25 1.75 1.25 1.75 -1 2 C-0.67 1.34 -0.34 0.68 0 0 Z " fill="#E0DEDB" transform="translate(81,95)"/>
<path d="M0 0 C0 0.99 0 1.98 0 3 C-0.33 3.165 -0.33 3.165 -2 4 C-2 3.34 -2 2.68 -2 2 C-4.31 2.33 -6.62 2.66 -9 3 C-9 3.66 -9 4.32 -9 5 C-10.65 5.33 -12.3 5.66 -14 6 C-14 5.01 -14 4.02 -14 3 C-12.423 2.299 -10.838 1.614 -9.25 0.938 C-8.368 0.555 -7.487 0.172 -6.578 -0.223 C-3.847 -1.046 -2.631 -0.977 0 0 Z " fill="#C1B0A4" transform="translate(64,56)"/>
<path d="M0 0 C0.66 0.99 1.32 1.98 2 3 C0.588 3.986 -0.83 4.964 -2.25 5.938 C-2.644 6.21 -2.644 6.21 -4.641 7.59 C-6.826 8.896 -8.515 9.55 -11 10 C-11 8.68 -11 7.36 -11 6 C-9.927 5.567 -8.855 5.134 -7.75 4.688 C-4.837 3.447 -2.44 2.049 0 0 Z " fill="#887061" transform="translate(103,126)"/>
<path d="M0 0 C1.32 0.33 2.64 0.66 4 1 C3.343 1.391 2.685 1.781 2.008 2.184 C0 4 0 4 -0.32 6.41 C-0.256 7.285 -0.191 8.161 -0.125 9.062 C0.055 11.723 0.055 11.723 0 14 C-0.66 14.66 -1.32 15.32 -2 16 C-4 13 -4 13 -3.812 9.688 C-3.008 6.037 -1.821 3.247 0 0 Z " fill="#A89A90" transform="translate(39,94)"/>
<path d="M0 0 C0.33 0 0.66 0 1 0 C1.488 7.442 1.488 7.442 -0.531 9.75 C-3.924 11.468 -7.045 11.324 -10.75 11.188 C-11.447 11.174 -12.145 11.16 -12.863 11.146 C-14.576 11.111 -16.288 11.057 -18 11 C-14.735 8.823 -13.322 8.679 -9.5 8.438 C-6.377 8.232 -3.983 7.994 -1 7 C-0.67 4.69 -0.34 2.38 0 0 Z " fill="#634E3F" transform="translate(79,182)"/>
<path d="M0 0 C-0.113 2.313 -0.241 4.626 -0.375 6.938 C-0.445 8.225 -0.514 9.513 -0.586 10.84 C-0.723 11.883 -0.859 12.926 -1 14 C-1.33 14.165 -1.33 14.165 -3 15 C-3 11.7 -3 8.4 -3 5 C-3.66 6.98 -4.32 8.96 -5 11 C-5.33 11 -5.66 11 -6 11 C-5.94 9.541 -5.851 8.082 -5.75 6.625 C-5.704 5.813 -5.657 5.001 -5.609 4.164 C-5 2 -5 2 -3.016 0.711 C-1 0 -1 0 0 0 Z " fill="#5D4A3D" transform="translate(118,172)"/>
<path d="M0 0 C0.66 0 1.32 0 2 0 C1.34 1.32 0.68 2.64 0 4 C-0.66 4 -1.32 4 -2 4 C-2.33 4.99 -2.66 5.98 -3 7 C-6.283 8.581 -9.545 9.848 -13 11 C-13.33 10.34 -13.66 9.68 -14 9 C-11.161 7.02 -8.54 5.214 -5.312 3.938 C-2.89 2.955 -1.776 1.861 0 0 Z " fill="#735E51" transform="translate(134,115)"/>
<path d="M0 0 C0.99 0.33 1.98 0.66 3 1 C2.67 1.66 2.34 2.32 2 3 C5.3 3 8.6 3 12 3 C11.67 3.66 11.34 4.32 11 5 C8.663 5.468 6.303 5.827 3.938 6.125 C3.292 6.209 3.292 6.209 0.027 6.633 C-0.472 6.693 -0.472 6.693 -3 7 C-2.01 4.69 -1.02 2.38 0 0 Z " fill="#C6B39F" transform="translate(113,188)"/>
<path d="M0 0 C4.75 0.75 4.75 0.75 7 3 C6.01 3.33 5.02 3.66 4 4 C4.186 4.887 4.371 5.774 4.562 6.688 C4.98 9.852 4.808 11.948 4 15 C3.67 15 3.34 15 3 15 C3 11.04 3 7.08 3 3 C2.34 3 1.68 3 1 3 C0.67 3.99 0.34 4.98 0 6 C0 4.02 0 2.04 0 0 Z " fill="#7E7065" transform="translate(80,168)"/>
<path d="M0 0 C1.078 0.018 2.155 0.036 3.266 0.055 C3.676 0.066 3.676 0.066 5.75 0.125 C5.42 0.785 5.09 1.445 4.75 2.125 C2.133 2.723 2.133 2.723 -1.125 3.188 C-4.324 3.654 -7.18 4.102 -10.25 5.125 C-10.25 4.135 -10.25 3.145 -10.25 2.125 C-6.773 -0.018 -4.038 -0.088 0 0 Z " fill="#775F51" transform="translate(125.25,61.875)"/>
<path d="M0 0 C1.373 2.254 2.035 3.552 1.828 6.219 C1.637 6.972 1.447 7.724 1.25 8.5 C1.07 9.253 0.889 10.006 0.703 10.781 C0 13 -0.902 14.952 -2 17 C-3.186 12.767 -2.719 9.896 -1.562 5.688 C-1.275 4.619 -0.988 3.55 -0.691 2.449 C-0.463 1.641 -0.235 0.833 0 0 Z " fill="#8E7A6C" transform="translate(111,170)"/>
<path d="M0 0 C1.163 3.55 0.924 6.558 0.562 10.25 C0.461 11.328 0.359 12.405 0.254 13.516 C0.17 14.335 0.086 15.155 0 16 C-1.32 15.67 -2.64 15.34 -4 15 C-4 14.34 -4 13.68 -4 13 C-3.34 13 -2.68 13 -2 13 C-2.041 11.783 -2.083 10.566 -2.125 9.312 C-2.138 5.781 -1.6 3.2 0 0 Z " fill="#847062" transform="translate(42,117)"/>
<path d="M0 0 C0.66 0.99 1.32 1.98 2 3 C0.636 5.992 -0.949 8.29 -3.125 10.75 C-3.394 11.057 -3.394 11.057 -4.758 12.609 C-5.168 13.068 -5.578 13.527 -6 14 C-6.66 13.67 -7.32 13.34 -8 13 C-7.361 12.257 -6.721 11.515 -6.062 10.75 C-4.125 8.166 -3.678 7.002 -3 4 C-1.438 1.75 -1.438 1.75 0 0 Z " fill="#8A7365" transform="translate(55,162)"/>
<path d="M0 0 C1.65 0 3.3 0 5 0 C5.8 3.287 6.097 4.71 5 8 C3.68 7.67 2.36 7.34 1 7 C1.33 5.68 1.66 4.36 2 3 C1.01 3 0.02 3 -1 3 C-0.67 2.01 -0.34 1.02 0 0 Z " fill="#6D6966" transform="translate(39,92)"/>
<path d="M0 0 C1.98 0 3.96 0 6 0 C6 1.32 6 2.64 6 4 C5.34 4.33 5.34 4.33 2 6 C1.34 5.34 0.68 4.68 0 4 C0 2.68 0 1.36 0 0 Z " fill="#BC9183" transform="translate(31,112)"/>
<path d="M0 0 C0.66 0 1.32 0 2 0 C1.67 1.98 1.34 3.96 1 6 C1.99 6 2.98 6 4 6 C3.67 4.35 3.34 2.7 3 1 C4.32 1.66 5.64 2.32 7 3 C7 4.65 7 6.3 7 8 C5 8.043 3 8.041 1 8 C0 7 0 7 -0.062 3.438 C-0.042 2.303 -0.021 1.169 0 0 Z " fill="#6F5846" transform="translate(119,183)"/>
<path d="M0 0 C3.958 0.565 6.666 1.809 10 4 C9.34 5.65 8.68 7.3 8 9 C5.07 6.175 2.498 3.212 0 0 Z " fill="#9F8B7E" transform="translate(32,61)"/>
<path d="M0 0 C2.624 3.002 3.363 4.771 3.188 8.75 C3.16 9.549 3.133 10.348 3.105 11.172 C3.071 11.775 3.036 12.378 3 13 C0.984 11.824 0.984 11.824 -1 10 C-1.172 7.52 -1.172 7.52 -0.75 4.812 C-0.621 3.911 -0.492 3.01 -0.359 2.082 C-0.241 1.395 -0.122 0.708 0 0 Z " fill="#F3F0EC" transform="translate(149,154)"/>
<path d="M0 0 C2.201 3.301 2.212 3.891 1.75 7.625 C1.662 8.422 1.575 9.218 1.484 10.039 C1.325 10.686 1.165 11.333 1 12 C0.67 12.165 0.67 12.165 -1 13 C-1.027 11.021 -1.046 9.042 -1.062 7.062 C-1.074 5.96 -1.086 4.858 -1.098 3.723 C-1 1 -1 1 0 0 Z " fill="#887366" transform="translate(150,139)"/>
<path d="M0 0 C0.66 0.99 1.32 1.98 2 3 C0.875 4.562 0.875 4.562 -1 6 C-4.188 5.688 -4.188 5.688 -7 5 C-7 4.01 -7 3.02 -7 2 C-4.69 1.34 -2.38 0.68 0 0 Z " fill="#513D2A" transform="translate(87,107)"/>
<path d="M0 0 C0.33 0 0.66 0 1 0 C1.144 0.763 1.289 1.526 1.438 2.312 C2 5 2 5 3 8 C0.688 10.062 0.688 10.062 -2 12 C-2.99 11.67 -3.98 11.34 -5 11 C-4.361 10.484 -3.721 9.969 -3.062 9.438 C-0.442 6.341 -0.306 3.979 0 0 Z " fill="#DCD1C4" transform="translate(145,181)"/>
<path d="M0 0 C0.99 0.99 1.98 1.98 3 3 C2.34 5.31 1.68 7.62 1 10 C0.67 9.34 0.34 8.68 0 8 C-0.66 8 -1.32 8 -2 8 C-2.33 8.99 -2.66 9.98 -3 11 C-3.66 10.67 -4.32 10.34 -5 10 C-5 9.01 -5 8.02 -5 7 C-4.68 6.887 -4.68 6.887 -3.062 6.312 C-1 5 -1 5 -0.25 2.375 C-0.168 1.591 -0.085 0.808 0 0 Z " fill="#7C5A4B" transform="translate(78,121)"/>
<path d="M0 0 C0.99 0.33 1.98 0.66 3 1 C2.845 1.258 2.845 1.258 2.062 2.562 C1 5 1 5 0.5 8.688 C0.335 9.781 0.17 10.874 0 12 C-0.33 12.165 -0.33 12.165 -2 13 C-1.859 11.208 -1.712 9.416 -1.562 7.625 C-1.481 6.627 -1.4 5.63 -1.316 4.602 C-1 2 -1 2 0 0 Z " fill="#977E6F" transform="translate(117,84)"/>
<path d="M0 0 C0.33 0 0.66 0 1 0 C1.73 6.213 2.232 11.841 1 18 C0.67 18 0.34 18 0 18 C-1.333 5.33 -1.333 5.33 0 0 Z " fill="#745F51" transform="translate(78,171)"/>
<path d="M0 0 C1.32 0 2.64 0 4 0 C4 0.66 4 1.32 4 2 C6.97 2 9.94 2 13 2 C9.473 4.351 7.971 4.214 3.812 4.125 C2.726 4.107 1.639 4.089 0.52 4.07 C0.104 4.059 0.104 4.059 -2 4 C-1.34 2.68 -0.68 1.36 0 0 Z " fill="#7F6658" transform="translate(79,134)"/>
<path d="M0 0 C1.919 2.822 1.991 4.129 1.75 7.625 C1 11 1 11 -1 13 C-1.027 11.396 -1.046 9.792 -1.062 8.188 C-1.074 7.294 -1.086 6.401 -1.098 5.48 C-1 3 -1 3 0 0 Z " fill="#F1EDE9" transform="translate(119,172)"/>
<path d="M0 0 C0.33 0 0.66 0 1 0 C1.253 6.069 0.698 11.162 -1 17 C-1.66 16.01 -2.32 15.02 -3 14 C-2.39 11.982 -1.711 9.985 -1 8 C-0.554 5.336 -0.278 2.689 0 0 Z " fill="#9C8779" transform="translate(115,153)"/>
<path d="M0 0 C2.062 0.438 2.062 0.438 4 1 C3.67 2.32 3.34 3.64 3 5 C1.35 5 -0.3 5 -2 5 C-1.125 1.125 -1.125 1.125 0 0 Z " fill="#C0A994" transform="translate(100,190)"/>
<path d="M0 0 C0.33 0 0.66 0 1 0 C1 2.31 1 4.62 1 7 C1.99 7 2.98 7 4 7 C3.67 7.99 3.34 8.98 3 10 C1.35 10.33 -0.3 10.66 -2 11 C-1.34 7.37 -0.68 3.74 0 0 Z " fill="#B3A08F" transform="translate(80,182)"/>
<path d="M0 0 C3.125 0.25 3.125 0.25 5 1.75 C5.371 2.245 5.743 2.74 6.125 3.25 C5.795 4.24 5.465 5.23 5.125 6.25 C4.382 5.796 3.64 5.343 2.875 4.875 C0.656 3.564 -1.555 2.367 -3.875 1.25 C-2.875 0.25 -2.875 0.25 0 0 Z " fill="#6C5A4E" transform="translate(84.875,78.75)"/>
<path d="M0 0 C1.98 0 3.96 0 6 0 C5.34 2.31 4.68 4.62 4 7 C3.01 6.67 2.02 6.34 1 6 C0.67 4.02 0.34 2.04 0 0 Z " fill="#9A8578" transform="translate(103,70)"/>
<path d="M0 0 C1.99 3.98 2.224 4.677 1.625 8.75 C1.514 9.549 1.403 10.348 1.289 11.172 C1.194 11.775 1.098 12.378 1 13 C0.67 11.68 0.34 10.36 0 9 C-0.66 9 -1.32 9 -2 9 C-1.34 6.03 -0.68 3.06 0 0 Z " fill="#9E8D80" transform="translate(145,159)"/>
<path d="M0 0 C1.32 1.32 2.64 2.64 4 4 C3.01 4 2.02 4 1 4 C1.206 4.784 1.413 5.567 1.625 6.375 C1.687 6.808 1.687 6.808 2 9 C1.34 9.66 0.68 10.32 0 11 C-1.627 7.747 -1.115 4.608 -1 1 C-0.67 0.67 -0.34 0.34 0 0 Z " fill="#1D1C1A" transform="translate(39,97)"/>
<path d="M0 0 C2.5 0.312 2.5 0.312 5 1 C5.33 1.66 5.66 2.32 6 3 C4.625 4.5 4.625 4.5 3 6 C2.34 6 1.68 6 1 6 C1 4.68 1 3.36 1 2 C0.34 1.67 -0.32 1.34 -1 1 C-0.67 0.67 -0.34 0.34 0 0 Z " fill="#252524" transform="translate(82,96)"/>
<path d="M0 0 C0.66 0.33 0.66 0.33 4 2 C3.67 3.65 3.34 5.3 3 7 C2.01 7 1.02 7 0 7 C0 4.69 0 2.38 0 0 Z " fill="#E6DCCD" transform="translate(81,182)"/>
<path d="M0 0 C-0.547 3.375 -1.055 5.082 -3 8 C-3.66 8 -4.32 8 -5 8 C-5.366 3.483 -5.366 3.483 -3.625 1.188 C-2 0 -2 0 0 0 Z " fill="#E8B79E" transform="translate(78,129)"/>
<path d="M0 0 C0.99 0.33 1.98 0.66 3 1 C3.124 1.784 3.248 2.567 3.375 3.375 C4 6 4 6 6 8 C4.35 8.33 2.7 8.66 1 9 C0.67 6.03 0.34 3.06 0 0 Z " fill="#957E70" transform="translate(124,112)"/>
<path d="M0 0 C1.32 0.66 2.64 1.32 4 2 C4 3.32 4 4.64 4 6 C3.01 5.835 3.01 5.835 -2 5 C-1.34 3.35 -0.68 1.7 0 0 Z " fill="#767372" transform="translate(79,96)"/>
<path d="M0 0 C2.915 1.074 4.778 1.778 7 4 C7.27 6.688 7.087 9.291 7 12 C6.67 12 6.34 12 6 12 C5.876 11.453 5.876 11.453 5.25 8.688 C3.948 4.847 3.277 4.075 0 2 C0 1.34 0 0.68 0 0 Z " fill="#604B3E" transform="translate(73,165)"/>
<path d="M0 0 C0.66 0.33 1.32 0.66 2 1 C3.664 1.673 5.33 2.341 7 3 C3.735 4.884 0.719 5.493 -3 6 C-1.125 1.125 -1.125 1.125 0 0 Z " fill="#947C6E" transform="translate(19,63)"/>
<path d="M0 0 C2.188 0.312 2.188 0.312 4 1 C3.01 1.825 3.01 1.825 -2 6 C-2.33 5.01 -2.66 4.02 -3 3 C-1.75 1.438 -1.75 1.438 0 0 Z " fill="#856E60" transform="translate(93,144)"/>
<path d="M0 0 C3.275 0.974 4.762 1.691 6.875 4.438 C8 7 8 7 7 10 C6.34 9.01 5.68 8.02 5 7 C4.129 5.768 3.254 4.539 2.375 3.312 C1.929 2.69 1.483 2.067 1.023 1.426 C0.686 0.955 0.348 0.485 0 0 Z " fill="#725B4C" transform="translate(31,62)"/>
<path d="M0 0 C0.66 0 1.32 0 2 0 C2.103 0.619 2.206 1.238 2.312 1.875 C3 4 3 4 6 6 C3.03 6 0.06 6 -3 6 C-2.01 5.67 -1.02 5.34 0 5 C0 3.35 0 1.7 0 0 Z " fill="#765F4E" transform="translate(96,191)"/>
<path d="M0 0 C-2 2 -2 2 -3.945 2.195 C-5.964 2.13 -7.982 2.065 -10 2 C-9 0 -9 0 -7.25 -0.688 C-4.608 -1.054 -2.573 -0.643 0 0 Z " fill="#F4EADC" transform="translate(140,193)"/>
<path d="M0 0 C0.99 0.33 1.98 0.66 3 1 C3 2.32 3 3.64 3 5 C1.35 4.67 -0.3 4.34 -2 4 C-1.34 2.68 -0.68 1.36 0 0 Z " fill="#AA917F" transform="translate(67,187)"/>
<path d="M0 0 C0.124 0.639 0.248 1.279 0.375 1.938 C0.478 2.278 0.478 2.278 1 4 C1.66 4.33 2.32 4.66 3 5 C2 6 2 6 -0.562 6.062 C-0.965 6.052 -0.965 6.052 -3 6 C-3 3 -3 3 -1.5 1.312 C-1.252 1.096 -1.252 1.096 0 0 Z " fill="#9C8A7E" transform="translate(34,178)"/>
<path d="M0 0 C2.31 0 4.62 0 7 0 C6.67 0.99 6.34 1.98 6 3 C3.69 3 1.38 3 -1 3 C-0.67 2.01 -0.34 1.02 0 0 Z " fill="#A38F82" transform="translate(94,178)"/>
<path d="M0 0 C0.33 0 0.66 0 1 0 C1 1.98 1 3.96 1 6 C2.65 6.33 4.3 6.66 6 7 C5.34 7.66 4.68 8.32 4 9 C1.938 8.812 1.938 8.812 0 8 C-1.097 4.71 -0.8 3.287 0 0 Z " fill="#D4C6B6" transform="translate(53,185)"/>
<path d="M0 0 C0.825 0.165 0.825 0.165 5 1 C5 1.99 5 2.98 5 4 C3.35 4 1.7 4 0 4 C0 2.68 0 1.36 0 0 Z " fill="#B39A84" transform="translate(125,186)"/>
<path d="M0 0 C3.536 3.173 5.586 5.167 6 10 C5.67 10.165 5.67 10.165 4 11 C3.711 10.113 3.423 9.226 3.125 8.312 C2.169 5.496 1.132 2.749 0 0 Z " fill="#998274" transform="translate(134,98)"/>
<path d="M0 0 C0.66 0.165 0.66 0.165 4 1 C3.67 2.32 3.34 3.64 3 5 C1.68 4.67 0.36 4.34 -1 4 C-0.67 2.68 -0.34 1.36 0 0 Z " fill="#CCB6A2" transform="translate(92,190)"/>
<path d="M0 0 C1.32 0.33 2.64 0.66 4 1 C4 2.32 4 3.64 4 5 C2.68 4.67 1.36 4.34 0 4 C0 2.68 0 1.36 0 0 Z " fill="#B8A18C" transform="translate(85,189)"/>
<path d="M0 0 C0.66 0.165 0.66 0.165 4 1 C4 1.99 4 2.98 4 4 C2.35 4 0.7 4 -1 4 C-0.67 2.68 -0.34 1.36 0 0 Z " fill="#C3AD9A" transform="translate(133,186)"/>
<path d="M0 0 C4.75 0.75 4.75 0.75 7 3 C5.02 3 3.04 3 1 3 C0.67 3.99 0.34 4.98 0 6 C0 4.02 0 2.04 0 0 Z " fill="#7F6A5A" transform="translate(80,168)"/>
<path d="M0 0 C1.32 0.33 2.64 0.66 4 1 C3.381 1.371 2.763 1.743 2.125 2.125 C-0.551 4.486 -1.094 6.601 -2 10 C-2.688 8.375 -2.688 8.375 -3 6 C-1.562 2.75 -1.562 2.75 0 0 Z " fill="#D2D0CC" transform="translate(39,94)"/>
<path d="M0 0 C1.32 0 2.64 0 4 0 C4 0.99 4 1.98 4 3 C1.69 3.66 -0.62 4.32 -3 5 C-1.125 1.125 -1.125 1.125 0 0 Z " fill="#69554A" transform="translate(41,78)"/>
<path d="M0 0 C1.688 1.25 1.688 1.25 2.688 3.25 C-0.942 2.92 -4.572 2.59 -8.312 2.25 C-8.312 1.92 -8.312 1.59 -8.312 1.25 C-2.932 -0.951 -2.932 -0.951 0 0 Z " fill="#887062" transform="translate(136.3125,65.75)"/>
<path d="M0 0 C0.66 0.165 0.66 0.165 4 1 C4 1.99 4 2.98 4 4 C2.35 4 0.7 4 -1 4 C-0.67 2.68 -0.34 1.36 0 0 Z " fill="#B8A291" transform="translate(59,187)"/>
<path d="M0 0 C-0.33 0.99 -0.66 1.98 -1 3 C-5.75 2.25 -5.75 2.25 -8 0 C-5.138 -1.431 -3.066 -0.6 0 0 Z " fill="#988271" transform="translate(66,185)"/>
<path d="M0 0 C5.538 -0.369 5.538 -0.369 7.875 1.5 C8.246 1.995 8.618 2.49 9 3 C8.34 3.66 7.68 4.32 7 5 C6.804 4.752 6.804 4.752 5.812 3.5 C3.449 1.544 1.986 1.758 -1 2 C-0.67 1.34 -0.34 0.68 0 0 Z " fill="#CBC9C8" transform="translate(81,95)"/>
</svg>
