<?xml version="1.0" encoding="UTF-8"?>
<!-- Generator: visioncortex VTracer 0.6.12 -->
<svg version="1.1" xmlns="http://www.w3.org/2000/svg" width="167" height="210">
<path d="M0 0 C55.11 0 110.22 0 167 0 C167 69.3 167 138.6 167 210 C111.89 210 56.78 210 0 210 C0 140.7 0 71.4 0 0 Z " fill="#FDF8F2" transform="translate(0,0)"/>
<path d="M0 0 C5.71 0.978 9.779 5.449 14 9.125 C15.102 10.002 16.206 10.878 17.312 11.75 C20.281 14.373 22.613 16.966 25 20.125 C25 20.785 25 21.445 25 22.125 C25.66 22.125 26.32 22.125 27 22.125 C27 21.465 27 20.805 27 20.125 C29.31 20.455 31.62 20.785 34 21.125 C34 20.465 34 19.805 34 19.125 C34.784 19.393 35.568 19.661 36.375 19.938 C40.892 21.417 45.443 22.774 50 24.125 C50.241 23.544 50.482 22.962 50.73 22.363 C55.351 14.218 66.685 8.636 75 5.125 C78.201 4.39 79.707 4.454 83 5.125 C85.769 7.632 85.999 9.117 86.328 12.883 C86.32 14.339 86.293 15.795 86.25 17.25 C86.235 18.013 86.221 18.777 86.206 19.563 C86.155 21.751 86.08 23.938 86 26.125 C85.99 26.606 85.99 26.606 85.941 29.043 C85.537 36.551 82.891 44.315 78.328 50.328 C77 52.125 77 52.125 77.125 54.5 C78.144 57.557 79.488 60.282 81 63.125 C81.165 63.496 81.165 63.496 82 65.375 C83 67.125 83 67.125 86 69.125 C86.375 72.625 86.375 72.625 86 76.125 C85.01 76.785 84.02 77.445 83 78.125 C81.813 80.25 81.813 80.25 81 82.125 C80.01 82.125 79.02 82.125 78 82.125 C77.945 82.719 77.889 83.314 77.832 83.926 C76.616 87.139 74.693 87.764 71.688 89.312 C70.722 89.822 69.756 90.331 68.762 90.855 C66.469 91.909 64.462 92.64 62 93.125 C64.996 99.796 68.74 104.088 74.402 108.691 C77.76 111.837 80.339 115.386 83 119.125 C82.965 117.809 82.93 116.493 82.895 115.137 C82.531 95.46 82.531 95.46 86 88.125 C86.66 87.795 87.32 87.465 88 87.125 C88.33 88.115 88.66 89.105 89 90.125 C89.165 89.63 89.165 89.63 90 87.125 C92.063 86.438 92.063 86.438 94 86.125 C94.165 87.28 94.165 87.28 95 93.125 C95.763 92.3 96.526 91.475 97.312 90.625 C100 88.125 100 88.125 103 88.125 C103.165 89.775 103.165 89.775 104 98.125 C104.554 97.62 105.109 97.114 105.68 96.594 C106.404 95.944 107.129 95.294 107.875 94.625 C108.594 93.975 109.314 93.326 110.055 92.656 C112 91.125 112 91.125 114 91.125 C115.354 93.834 115.065 96.134 115 99.125 C115.66 99.125 116.32 99.125 117 99.125 C117.66 97.475 118.32 95.825 119 94.125 C119.66 94.455 120.32 94.785 121 95.125 C121.625 98.188 121.625 98.188 122 101.125 C122.66 101.125 123.32 101.125 124 101.125 C124.33 99.805 124.66 98.485 125 97.125 C125.66 97.125 126.32 97.125 127 97.125 C129.492 122.219 129.492 122.219 121.75 133.5 C120 136.125 120 136.125 120 139.125 C118.609 140.59 118.609 140.59 116.75 142.062 C114.701 143.704 112.861 145.275 111.074 147.207 C105.009 152.816 95.426 152.439 87.652 152.328 C85 152.125 85 152.125 83 151.125 C82.918 151.888 82.835 152.651 82.75 153.438 C81.814 156.793 80.932 157.324 78 159.125 C67.786 162.448 57.863 164.057 48 159.125 C47.845 159.445 47.845 159.445 47.062 161.062 C46 163.125 46 163.125 45 164.125 C42.508 164.252 40.055 164.31 37.562 164.312 C36.868 164.325 36.174 164.337 35.459 164.35 C33.638 164.355 31.817 164.247 30 164.125 C28 162.125 28 162.125 27.688 158.688 C28 155.125 28 155.125 29.312 153.25 C31 152.125 31 152.125 34 151.125 C34.33 150.465 34.66 149.805 35 149.125 C34.34 149.125 33.68 149.125 33 149.125 C31.678 146.48 31.903 144.447 31.938 141.5 C31.947 140.497 31.956 139.494 31.965 138.461 C31.976 137.69 31.988 136.919 32 136.125 C33.65 136.785 35.3 137.445 37 138.125 C37 130.535 37 122.945 37 115.125 C38.32 115.125 39.64 115.125 41 115.125 C41.33 112.485 41.66 109.845 42 107.125 C42.33 107.29 42.33 107.29 44 108.125 C44 108.785 44 109.445 44 110.125 C44.66 110.125 45.32 110.125 46 110.125 C45.34 107.485 44.68 104.845 44 102.125 C42.712 102.281 41.424 102.437 40.098 102.598 C38.419 102.795 36.741 102.991 35.062 103.188 C34.212 103.291 33.362 103.395 32.486 103.502 C32.082 103.549 32.082 103.549 30.035 103.785 C29.286 103.874 28.537 103.963 27.766 104.055 C27.183 104.078 26.6 104.101 26 104.125 C25.67 103.795 25.34 103.465 25 103.125 C23.362 102.755 21.714 102.428 20.062 102.125 C15.214 101.232 15.214 101.232 13 100.125 C12.845 100.517 12.845 100.517 12.062 102.5 C11 105.125 11 105.125 10 107.125 C10.66 107.125 11.32 107.125 12 107.125 C12.33 109.435 12.66 111.745 13 114.125 C13.33 113.96 13.33 113.96 15 113.125 C15.083 114.136 15.165 115.146 15.25 116.188 C15.893 120.592 17.464 123.462 20 127.125 C22.375 128.75 22.375 128.75 25 130.125 C27.053 131.732 29.014 133.434 31 135.125 C30.403 137.648 29.798 140.168 29.188 142.688 C29.022 143.392 28.856 144.096 28.686 144.822 C25.361 158.435 25.361 158.435 21 161.125 C17.715 161.488 17.715 161.488 13.938 161.438 C12.688 161.434 11.439 161.43 10.152 161.426 C7 161.125 7 161.125 5 159.125 C4.44 152.965 4.44 152.965 6.25 150.25 C8.161 149.021 9.8 148.625 12 148.125 C12.087 143.917 12.141 139.709 12.188 135.5 C12.213 134.31 12.238 133.12 12.264 131.895 C12.352 121.362 12.352 121.362 9 116.125 C8.812 113.25 8.812 113.25 9 111.125 C8.34 111.125 7.68 111.125 7 111.125 C7.061 109.582 7.15 108.041 7.25 106.5 C7.296 105.641 7.343 104.783 7.391 103.898 C8.17 100.353 9.871 98.029 12 95.125 C11.439 94.81 11.439 94.81 8.598 93.219 C0.354 88.529 -7.303 83.956 -14 77.125 C-13.835 76.795 -13.835 76.795 -13 75.125 C-11.293 76.406 -9.626 77.743 -8 79.125 C-8 79.785 -8 80.445 -8 81.125 C-7.743 81.253 -7.743 81.253 -6.441 81.898 C-4.506 82.871 -2.578 83.859 -0.652 84.852 C0.586 85.485 1.824 86.117 3.062 86.75 C3.687 87.075 4.312 87.4 4.955 87.734 C7.838 89.199 9.72 90.125 13 90.125 C13.33 89.795 13.33 89.795 15 88.125 C14 87.125 14 87.125 12.438 85.875 C10.533 83.557 10.763 82.044 11 79.125 C10.34 79.125 9.68 79.125 9 79.125 C9.165 78.63 9.165 78.63 10 76.125 C10.66 76.125 11.32 76.125 12 76.125 C12.33 78.435 12.66 80.745 13 83.125 C13 82.795 13 82.465 13 82.125 C13.316 79.456 13.661 76.791 14 74.125 C12.989 74.063 11.979 74.001 10.938 73.938 C7.757 73.518 6.125 72.617 3.688 70.562 C-0.604 67.201 -4.767 67.577 -10 68.125 C-13.125 68.625 -13.125 68.625 -15 69.125 C-14.34 70.445 -13.68 71.765 -13 73.125 C-13.99 72.795 -14.98 72.465 -16 72.125 C-16.73 70.059 -16.73 70.059 -17.188 67.562 C-17.346 66.736 -17.505 65.91 -17.668 65.059 C-17.778 64.421 -17.887 63.782 -18 63.125 C-17.34 62.96 -17.34 62.96 -14 62.125 C-14 61.135 -14 60.145 -14 59.125 C-13.505 58.96 -13.505 58.96 -11 58.125 C-7.88 53.711 -4.977 48.826 -5.023 43.316 C-5.542 40.85 -6.238 38.526 -7 36.125 C-9.26 25.055 -9.013 12.765 -5 2.125 C-3 0.125 -3 0.125 0 0 Z " fill="#F98317" transform="translate(27,33.875)"/>
<path d="M0 0 C0.165 1.155 0.165 1.155 1 7 C1.382 6.588 1.382 6.588 3.312 4.5 C6 2 6 2 9 2 C9.165 3.65 9.165 3.65 10 12 C10.554 11.495 11.109 10.989 11.68 10.469 C12.404 9.819 13.129 9.169 13.875 8.5 C14.594 7.85 15.314 7.201 16.055 6.531 C18 5 18 5 20 5 C21.354 7.709 21.065 10.009 21 13 C21.66 13 22.32 13 23 13 C23.66 11.35 24.32 9.7 25 8 C25.33 8.165 25.33 8.165 27 9 C27.625 12.062 27.625 12.062 28 15 C28.66 15 29.32 15 30 15 C30.33 13.68 30.66 12.36 31 11 C31.66 11 32.32 11 33 11 C35.492 36.094 35.492 36.094 27.75 47.375 C26 50 26 50 26 53 C24.609 54.465 24.609 54.465 22.75 55.938 C20.701 57.579 18.861 59.15 17.074 61.082 C11.009 66.691 1.426 66.314 -6.348 66.203 C-9 66 -9 66 -11 65 C-11.083 65.763 -11.165 66.526 -11.25 67.312 C-12.186 70.668 -13.068 71.199 -16 73 C-26.214 76.323 -36.137 77.932 -46 73 C-46.309 73.639 -46.619 74.279 -46.938 74.938 C-48 77 -48 77 -49 78 C-51.492 78.127 -53.945 78.185 -56.438 78.188 C-57.132 78.2 -57.826 78.212 -58.541 78.225 C-60.362 78.23 -62.183 78.122 -64 78 C-66 76 -66 76 -66.312 72.562 C-66 69 -66 69 -64.688 67.125 C-63 66 -63 66 -60 65 C-59.67 64.34 -59.34 63.68 -59 63 C-59.66 63 -60.32 63 -61 63 C-62.322 60.355 -62.097 58.322 -62.062 55.375 C-62.053 54.372 -62.044 53.369 -62.035 52.336 C-62.029 51.951 -62.029 51.951 -62 50 C-60.35 50.66 -58.7 51.32 -57 52 C-57 44.41 -57 36.82 -57 29 C-55.68 29 -54.36 29 -53 29 C-52.67 26.36 -52.34 23.72 -52 21 C-51.34 21.33 -50.68 21.66 -50 22 C-50 22.66 -50 23.32 -50 24 C-49.34 24 -48.68 24 -48 24 C-48.33 21.03 -48.66 18.06 -49 15 C-48.01 15 -47.02 15 -46 15 C-46.99 13.35 -47.98 11.7 -49 10 C-43.72 9.01 -38.44 8.02 -33 7 C-33 7.66 -33 8.32 -33 9 C-32.34 9 -31.68 9 -31 9 C-29.992 10.504 -29.992 10.504 -28.875 12.562 C-26.448 16.628 -23.626 19.271 -20 22.266 C-16.496 25.304 -13.087 28.826 -11 33 C-11.035 31.684 -11.07 30.368 -11.105 29.012 C-11.469 9.335 -11.469 9.335 -8 2 C-7.34 1.67 -6.68 1.34 -6 1 C-5.835 1.495 -5.835 1.495 -5 4 C-4.67 3.01 -4.34 2.02 -4 1 C-2 0 -2 0 0 0 Z " fill="#F07006" transform="translate(121,120)"/>
<path d="M0 0 C0 0.66 0 1.32 0 2 C0.66 2 1.32 2 2 2 C3.008 3.504 3.008 3.504 4.125 5.562 C6.554 9.632 9.396 12.266 12.996 15.293 C20.674 21.834 20.674 21.834 21.367 26.441 C21.374 28.663 21.27 30.796 21 33 C18.506 31.796 16.319 30.546 14 29 C11.368 27.684 10.403 28.218 7.625 29.062 C4.348 30.243 2.997 31.003 0.5 33.562 C-1.448 38.027 -1.809 42.169 -2 47 C-0.35 47.66 1.3 48.32 3 49 C3 49.66 3 50.32 3 51 C3.99 51 4.98 51 6 51 C6.934 54.01 7.044 54.867 6 58 C6.392 58.052 6.392 58.052 8.375 58.312 C11 59 11 59 13 62 C13.125 64.688 13.125 64.688 13 67 C3.805 69.434 -4.229 70.386 -13 66 C-13.309 66.639 -13.619 67.279 -13.938 67.938 C-15 70 -15 70 -16 71 C-18.492 71.127 -20.945 71.185 -23.438 71.188 C-24.132 71.2 -24.826 71.212 -25.541 71.225 C-27.362 71.23 -29.183 71.122 -31 71 C-33 69 -33 69 -33.312 65.562 C-33 62 -33 62 -31.688 60.125 C-30 59 -30 59 -27 58 C-26.67 57.34 -26.34 56.68 -26 56 C-26.66 56 -27.32 56 -28 56 C-29.322 53.355 -29.097 51.322 -29.062 48.375 C-29.053 47.372 -29.044 46.369 -29.035 45.336 C-29.029 44.951 -29.029 44.951 -29 43 C-27.35 43.66 -25.7 44.32 -24 45 C-24 37.41 -24 29.82 -24 22 C-22.68 22 -21.36 22 -20 22 C-19.67 19.36 -19.34 16.72 -19 14 C-18.34 14.33 -17.68 14.66 -17 15 C-17 15.66 -17 16.32 -17 17 C-16.34 17 -15.68 17 -15 17 C-15.33 14.03 -15.66 11.06 -16 8 C-15.01 8 -14.02 8 -13 8 C-13.99 6.35 -14.98 4.7 -16 3 C-13.709 2.498 -11.417 1.998 -9.125 1.5 C-8.487 1.361 -8.487 1.361 -5.258 0.656 C-2 0 -2 0 0 0 Z " fill="#F37306" transform="translate(88,127)"/>
<path d="M0 0 C2.038 1.274 4.039 2.611 6 4 C6 4.66 6 5.32 6 6 C6.514 6.255 7.029 6.51 7.559 6.773 C9.494 7.746 11.422 8.734 13.348 9.727 C14.586 10.36 15.824 10.992 17.062 11.625 C17.687 11.95 18.312 12.275 18.955 12.609 C21.838 14.074 23.72 15 27 15 C27.66 14.34 28.32 13.68 29 13 C28 12 28 12 26.438 10.75 C24.533 8.432 24.763 6.919 25 4 C24.34 4 23.68 4 23 4 C23.33 3.01 23.66 2.02 24 1 C24.66 1 25.32 1 26 1 C26.33 3.31 26.66 5.62 27 8 C27 7.67 27 7.34 27 7 C27.33 6.01 27.66 5.02 28 4 C28.784 4.619 29.567 5.237 30.375 5.875 C33.967 8.307 37.598 8.92 41.828 9.605 C44 10 44 10 46 11 C48.125 10.562 48.125 10.562 50 10 C47.458 13.205 45.153 14.439 41.34 15.637 C40.528 15.895 39.715 16.154 38.879 16.421 C38.569 16.516 38.569 16.516 37 17 C40.979 17.059 44.958 17.094 48.938 17.125 C50.054 17.142 51.171 17.159 52.322 17.176 C60.313 17.223 68.111 16.973 75.25 13 C75.902 12.655 76.555 12.309 77.227 11.953 C77.812 11.639 78.397 11.324 79 11 C82.861 9.162 85.722 8.801 90 9 C90.165 9.33 90.165 9.33 91 11 C89.253 11.985 87.502 12.963 85.75 13.938 C84.775 14.483 83.801 15.028 82.797 15.59 C80 17 80 17 77.703 17.566 C77.141 17.709 76.579 17.853 76 18 C75.67 18.66 75.34 19.32 75 20 C75 19.34 75 18.68 75 18 C70.05 19.32 65.1 20.64 60 22 C60.99 23.65 61.98 25.3 63 27 C62.509 26.989 62.509 26.989 60.023 26.934 C55.096 26.932 50.301 27.679 45.434 28.377 C43.627 28.623 41.814 28.816 40 29 C39.67 28.67 39.34 28.34 39 28 C37.362 27.63 35.714 27.303 34.062 27 C29.214 26.107 29.214 26.107 27 25 C26.691 25.784 26.381 26.567 26.062 27.375 C25 30 25 30 24 32 C24.66 32 25.32 32 26 32 C26.33 34.31 26.66 36.62 27 39 C27.33 38.835 27.33 38.835 29 38 C29.041 38.505 29.041 38.505 29.25 41.062 C29.893 45.467 31.464 48.337 34 52 C36.375 53.625 36.375 53.625 39 55 C41.053 56.607 43.014 58.309 45 60 C44.403 62.523 43.798 65.043 43.188 67.562 C43.022 68.267 42.856 68.971 42.686 69.697 C39.361 83.31 39.361 83.31 35 86 C31.715 86.363 31.715 86.363 27.938 86.312 C26.688 86.309 25.439 86.305 24.152 86.301 C21 86 21 86 19 84 C18.44 77.84 18.44 77.84 20.25 75.125 C22.161 73.896 23.8 73.5 26 73 C26.087 68.792 26.141 64.584 26.188 60.375 C26.213 59.185 26.238 57.995 26.264 56.77 C26.352 46.237 26.352 46.237 23 41 C22.812 38.125 22.812 38.125 23 36 C22.34 36 21.68 36 21 36 C21.061 34.457 21.15 32.916 21.25 31.375 C21.296 30.516 21.343 29.658 21.391 28.773 C22.17 25.228 23.871 22.904 26 20 C24.877 19.371 23.754 18.742 22.598 18.094 C5.462 8.349 5.462 8.349 0 2 C0 1.34 0 0.68 0 0 Z " fill="#E6B67C" transform="translate(13,109)"/>
<path d="M0 0 C1.938 0.309 3.875 0.623 5.812 0.938 C6.891 1.112 7.97 1.286 9.082 1.465 C12 2 12 2 15 3 C17.755 2.753 20.452 2.447 23.188 2.062 C23.937 1.963 24.687 1.863 25.459 1.76 C27.307 1.513 29.154 1.257 31 1 C32.746 4.216 33.204 6.32 33 10 C32.34 10 31.68 10 31 10 C30.835 9.67 30.835 9.67 30 8 C29.897 9.093 29.794 10.186 29.688 11.312 C29.027 14.856 28.797 15.932 26 18 C26 17.01 26 16.02 26 15 C25.34 15 24.68 15 24 15 C24 22.59 24 30.18 24 38 C22.35 37.34 20.7 36.68 19 36 C19.33 40.29 19.66 44.58 20 49 C20.66 49 21.32 49 22 49 C21.67 49.99 21.34 50.98 21 52 C20.154 52.412 19.309 52.825 18.438 53.25 C17.633 53.827 16.829 54.405 16 55 C15.625 58.625 15.625 58.625 16 62 C17.986 63.986 21.67 63.275 24.375 63.312 C25.061 63.342 25.747 63.371 26.453 63.4 C28.461 63.426 28.461 63.426 32 63 C32.99 61.68 33.98 60.36 35 59 C40.28 59.99 45.56 60.98 51 62 C51 62.33 51 62.66 51 63 C50.085 63.133 49.17 63.266 48.227 63.402 C47.038 63.579 45.85 63.756 44.625 63.938 C44.033 64.025 44.033 64.025 41.039 64.465 C38 65 38 65 36 66 C33.009 66.129 30.054 66.19 27.062 66.188 C26.177 66.187 25.292 66.186 24.381 66.185 C18.072 66.128 11.837 65.769 5.562 65.125 C4.777 65.047 3.991 64.968 3.182 64.887 C-0.817 64.433 -4.428 63.909 -8 62 C-10 59 -10 59 -9.625 56.312 C-9.419 55.549 -9.212 54.786 -9 54 C-8.67 54 -8.34 54 -8 54 C-7.34 55.98 -6.68 57.96 -6 60 C-3.73 60.081 -1.459 60.139 0.812 60.188 C1.445 60.205 1.445 60.205 4.645 60.293 C8 60 8 60 9.596 58.801 C11.326 56.582 12 54.584 12.824 51.895 C13.13 50.912 13.437 49.929 13.752 48.916 C13.906 48.404 13.906 48.404 14.688 45.812 C15.008 44.777 15.328 43.741 15.658 42.674 C16.447 40.118 17.227 37.561 18 35 C17.381 34.711 16.763 34.423 16.125 34.125 C13.597 32.787 12.016 31.016 10 29 C9.34 28.732 8.68 28.464 8 28.188 C4.829 26.305 3.423 23.288 2 20 C1.25 16.562 1.25 16.562 1 14 C0.34 14.66 -0.32 15.32 -1 16 C-1 13.03 -1 10.06 -1 7 C-1.66 7 -2.32 7 -3 7 C-1.125 2.25 -1.125 2.25 0 0 Z M27 66 C30 67 30 67 30 67 Z " fill="#FADCB2" transform="translate(40,134)"/>
<path d="M0 0 C1.664 1.008 1.664 1.008 3.914 3.195 C3.914 6.195 3.914 6.195 1.977 8.195 C1.296 8.855 0.615 9.515 -0.086 10.195 C-1.767 15.239 -1.274 20.27 -0.461 25.445 C-0.103 29.023 -0.058 30.333 -2.086 33.195 C-2.746 33.195 -3.406 33.195 -4.086 33.195 C-4.746 31.215 -5.406 29.235 -6.086 27.195 C-6.54 27.855 -6.993 28.515 -7.461 29.195 C-7.997 29.855 -8.533 30.515 -9.086 31.195 C-9.746 31.195 -10.406 31.195 -11.086 31.195 C-11.416 28.555 -11.746 25.915 -12.086 23.195 C-12.64 23.701 -13.195 24.206 -13.766 24.727 C-14.49 25.376 -15.215 26.026 -15.961 26.695 C-16.68 27.345 -17.4 27.995 -18.141 28.664 C-20.086 30.195 -20.086 30.195 -22.086 30.195 C-22.251 28.545 -22.251 28.545 -23.086 20.195 C-26.596 21.833 -29.541 23.227 -32.086 26.195 C-32.086 23.555 -32.086 20.915 -32.086 18.195 C-33.406 18.525 -34.726 18.855 -36.086 19.195 C-36.416 20.515 -36.746 21.835 -37.086 23.195 C-38.203 21.434 -38.203 21.434 -39.086 19.195 C-36.71 11.901 -29.772 6.26 -23.324 2.648 C-16.018 -0.752 -7.849 -3.028 0 0 Z " fill="#FCE7C3" transform="translate(153.0859375,101.8046875)"/>
<path d="M0 0 C0 1.98 0 3.96 0 6 C0.825 6.165 0.825 6.165 5 7 C6.188 10.429 5.802 12.378 4.562 15.75 C4.275 16.549 3.988 17.348 3.691 18.172 C3.577 18.474 3.577 18.474 3 20 C3.454 19.34 3.907 18.68 4.375 18 C8.374 14.953 12.14 15.373 17 16 C21.134 17.118 23.556 18.335 26 22 C26.125 24.688 26.125 24.688 26 27 C16.805 29.434 8.771 30.386 0 26 C-0.309 26.639 -0.619 27.279 -0.938 27.938 C-2 30 -2 30 -3 31 C-5.492 31.127 -7.945 31.185 -10.438 31.188 C-10.785 31.194 -10.785 31.194 -12.541 31.225 C-14.362 31.23 -16.183 31.122 -18 31 C-20 29 -20 29 -20.312 25.562 C-20 22 -20 22 -18.688 20.125 C-17 19 -17 19 -14 18 C-13.67 17.34 -13.34 16.68 -13 16 C-13.66 16 -14.32 16 -15 16 C-16.322 13.355 -16.097 11.322 -16.062 8.375 C-16.053 7.372 -16.044 6.369 -16.035 5.336 C-16.029 4.951 -16.029 4.951 -16 3 C-15.175 3.33 -15.175 3.33 -11 5 C-10.67 3.35 -10.34 1.7 -10 0 C-6.306 -1.231 -3.794 -0.644 0 0 Z " fill="#4B331B" transform="translate(75,167)"/>
<path d="M0 0 C0.752 0.347 1.503 0.694 2.277 1.051 C4.274 1.729 6.273 2.398 8.277 3.051 C7.947 3.711 7.617 4.371 7.277 5.051 C6.617 5.051 5.957 5.051 5.277 5.051 C5.277 6.041 5.277 7.031 5.277 8.051 C3.957 8.051 2.637 8.051 1.277 8.051 C1.277 8.711 1.277 9.371 1.277 10.051 C1.937 10.381 2.597 10.711 3.277 11.051 C0.277 12.051 0.277 12.051 -1.598 11.363 C-1.948 11.312 -1.948 11.312 -3.723 11.051 C-5.425 12.339 -7.086 13.681 -8.723 15.051 C-18.168 19.773 -27.245 20.373 -37.66 20.301 C-38.228 20.305 -38.228 20.305 -41.1 20.324 C-42.18 20.322 -43.261 20.319 -44.375 20.316 C-45.355 20.314 -46.334 20.312 -47.344 20.31 C-49.723 20.051 -49.723 20.051 -51.723 18.051 C-47.433 16.731 -43.143 15.411 -38.723 14.051 C-39.383 14.051 -40.043 14.051 -40.723 14.051 C-43.056 14.051 -45.389 14.051 -47.723 14.051 C-47.393 13.391 -47.063 12.731 -46.723 12.051 C-47.713 11.391 -48.703 10.731 -49.723 10.051 C-43.67 4.701 -39.612 2.89 -31.348 2.613 C-27.245 2.429 -23.994 2.17 -20.16 0.488 C-14.113 -2.041 -6.224 -2.17 0 0 Z " fill="#FBE0B4" transform="translate(99.72265625,106.94921875)"/>
<path d="M0 0 C0.392 0.928 0.784 1.856 1.188 2.812 C3.207 6.364 4.475 7.114 8 9 C10.052 10.608 12.014 12.309 14 14 C13.403 16.523 12.798 19.043 12.188 21.562 C12.022 22.267 11.856 22.971 11.686 23.697 C8.361 37.31 8.361 37.31 4 40 C0.715 40.363 0.715 40.363 -3.062 40.312 C-4.312 40.309 -5.561 40.305 -6.848 40.301 C-10 40 -10 40 -12 38 C-12.56 31.84 -12.56 31.84 -10.75 29.125 C-9 28 -9 28 -5 27 C-4.67 18.42 -4.34 9.84 -4 1 C-2 0 -2 0 0 0 Z " fill="#482F18" transform="translate(44,155)"/>
<path d="M0 0 C2.52 1.334 4.663 2.819 6.895 4.59 C9.273 6.183 11.187 6.612 14 7 C13.935 8.986 13.87 10.971 13.805 12.957 C14 15 14 15 16 18 C14.68 17.34 13.36 16.68 12 16 C12 13.69 12 11.38 12 9 C11.01 9.99 10.02 10.98 9 12 C9.66 12 10.32 12 11 12 C11.206 12.907 11.413 13.815 11.625 14.75 C13.32 18.757 15.275 19.895 19 22 C17 23 17 23 14 23 C13.415 23.224 12.83 23.449 12.227 23.68 C5.982 24.578 -2.162 18.339 -7.105 14.738 C-11.887 10.674 -14.434 8.463 -15 2 C-10.233 -0.542 -5.258 -0.93 0 0 Z " fill="#FADEB5" transform="translate(27,101)"/>
<path d="M0 0 C0.33 0 0.66 0 1 0 C1 6.93 1 13.86 1 21 C-0.65 20.34 -2.3 19.68 -4 19 C-3.67 23.29 -3.34 27.58 -3 32 C-2.34 32 -1.68 32 -1 32 C-1.33 32.99 -1.66 33.98 -2 35 C-2.846 35.412 -3.691 35.825 -4.562 36.25 C-5.367 36.827 -6.171 37.405 -7 38 C-7.375 41.625 -7.375 41.625 -7 45 C-5.014 46.986 -1.33 46.275 1.375 46.312 C2.061 46.342 2.747 46.371 3.453 46.4 C5.461 46.426 5.461 46.426 9 46 C9.99 44.68 10.98 43.36 12 42 C17.28 42.99 22.56 43.98 28 45 C28 45.33 28 45.66 28 46 C27.085 46.133 26.17 46.266 25.227 46.402 C24.038 46.579 22.85 46.756 21.625 46.938 C20.442 47.112 19.258 47.286 18.039 47.465 C15 48 15 48 13 49 C10.009 49.129 7.054 49.19 4.062 49.188 C3.177 49.187 2.292 49.186 1.381 49.185 C-4.928 49.128 -11.163 48.769 -17.438 48.125 C-18.223 48.047 -19.009 47.968 -19.818 47.887 C-23.817 47.433 -27.428 46.909 -31 45 C-33 42 -33 42 -32.625 39.312 C-32.419 38.549 -32.212 37.786 -32 37 C-31.67 37 -31.34 37 -31 37 C-30.34 38.98 -29.68 40.96 -29 43 C-26.73 43.081 -24.459 43.139 -22.188 43.188 C-21.555 43.205 -21.555 43.205 -18.355 43.293 C-15 43 -15 43 -13.404 41.801 C-11.674 39.582 -11 37.584 -10.176 34.895 C-9.87 33.912 -9.563 32.929 -9.248 31.916 C-8.939 30.892 -8.631 29.868 -8.312 28.812 C-7.992 27.777 -7.672 26.741 -7.342 25.674 C-6.553 23.118 -5.773 20.561 -5 18 C-5.619 17.711 -6.237 17.423 -6.875 17.125 C-9.403 15.787 -10.984 14.016 -13 12 C-15.25 10.75 -15.25 10.75 -17 10 C-16.67 9.01 -16.34 8.02 -16 7 C-15.175 7.165 -15.175 7.165 -11 8 C-11 8.66 -11 9.32 -11 10 C-10.01 9.67 -9.02 9.34 -8 9 C-7.01 9.66 -6.02 10.32 -5 11 C-4.67 10.01 -4.34 9.02 -4 8 C-1.938 7.312 -1.938 7.312 0 7 C0 4.69 0 2.38 0 0 Z M4 49 C7 50 7 50 7 50 Z " fill="#E5D4C1" transform="translate(63,151)"/>
<path d="M0 0 C2.038 1.274 4.039 2.611 6 4 C6 4.66 6 5.32 6 6 C6.514 6.255 7.029 6.51 7.559 6.773 C9.494 7.746 11.422 8.734 13.348 9.727 C14.586 10.36 15.824 10.992 17.062 11.625 C17.687 11.95 18.312 12.275 18.955 12.609 C21.838 14.074 23.72 15 27 15 C27.66 14.34 28.32 13.68 29 13 C28 12 28 12 26.438 10.75 C24.533 8.432 24.763 6.919 25 4 C24.34 4 23.68 4 23 4 C23.33 3.01 23.66 2.02 24 1 C24.66 1 25.32 1 26 1 C26.33 3.31 26.66 5.62 27 8 C27 7.67 27 7.34 27 7 C27.33 6.01 27.66 5.02 28 4 C28.784 4.619 29.567 5.237 30.375 5.875 C33.967 8.307 37.598 8.92 41.828 9.605 C44 10 44 10 46 11 C48.125 10.562 48.125 10.562 50 10 C47.458 13.205 45.153 14.439 41.34 15.637 C40.528 15.895 39.715 16.154 38.879 16.421 C38.569 16.516 38.569 16.516 37 17 C40.979 17.059 44.958 17.094 48.938 17.125 C50.054 17.142 51.171 17.159 52.322 17.176 C60.313 17.223 68.111 16.973 75.25 13 C75.902 12.655 76.555 12.309 77.227 11.953 C77.812 11.639 78.397 11.324 79 11 C82.861 9.162 85.722 8.801 90 9 C90.165 9.33 90.165 9.33 91 11 C89.253 11.985 87.502 12.963 85.75 13.938 C84.775 14.483 83.801 15.028 82.797 15.59 C80 17 80 17 77.703 17.566 C77.141 17.709 76.579 17.853 76 18 C75.67 18.66 75.34 19.32 75 20 C75 19.34 75 18.68 75 18 C73.995 18.325 72.991 18.65 71.956 18.986 C68.16 20.066 64.661 20.244 60.703 20.23 C60.029 20.23 59.355 20.23 58.66 20.229 C57.241 20.226 55.823 20.218 54.404 20.206 C52.269 20.188 50.135 20.185 48 20.186 C25.439 20.135 25.439 20.135 17.438 15.5 C16.808 15.151 16.179 14.801 15.531 14.441 C9.718 11.085 4.457 7.055 0 2 C0 1.34 0 0.68 0 0 Z " fill="#EFC18C" transform="translate(13,109)"/>
<path d="M0 0 C6.99 2.998 10.498 10.205 13.32 16.945 C14.125 19.379 14.328 21.455 14 24 C12.02 24.66 10.04 25.32 8 26 C7.447 23.924 7 22.156 7 20 C6.67 19.67 6.34 19.34 6 19 C4.988 25.454 4.988 25.454 5.062 28.75 C5 31 5 31 3 34 C2.01 33.67 1.02 33.34 0 33 C-0.949 30.934 -0.949 30.934 -1.688 28.438 C-1.939 27.611 -2.19 26.785 -2.449 25.934 C-2.631 25.296 -2.813 24.657 -3 24 C-3.33 26.31 -3.66 28.62 -4 31 C-4.33 31 -4.66 31 -5 31 C-5.973 26.143 -6.12 21.55 -6.062 16.625 C-6.058 15.889 -6.053 15.153 -6.049 14.395 C-6.037 12.596 -6.019 10.798 -6 9 C-5.67 9 -5.34 9 -5 9 C-5 10.98 -5 12.96 -5 15 C-4.34 15 -3.68 15 -3 15 C-2.951 14.42 -2.902 13.84 -2.852 13.242 C-2.404 8.561 -1.702 4.425 0 0 Z " fill="#EDB379" transform="translate(25,39)"/>
<path d="M0 0 C4.134 1.118 6.556 2.335 9 6 C9.125 8.688 9.125 8.688 9 11 C-0.195 13.434 -8.229 14.386 -17 10 C-17.309 10.639 -17.619 11.279 -17.938 11.938 C-19 14 -19 14 -20 15 C-22.492 15.127 -24.945 15.185 -27.438 15.188 C-27.785 15.194 -27.785 15.194 -29.541 15.225 C-31.362 15.23 -33.183 15.122 -35 15 C-37 13 -37 13 -37.125 9.375 C-37.084 8.261 -37.042 7.148 -37 6 C-35.68 5.34 -34.36 4.68 -33 4 C-33 4.66 -33 5.32 -33 6 C-32.01 6 -31.02 6 -30 6 C-30.66 7.98 -31.32 9.96 -32 12 C-30.68 12.33 -29.36 12.66 -28 13 C-27.67 11.35 -27.34 9.7 -27 8 C-26.01 8 -25.02 8 -24 8 C-24.33 9.65 -24.66 11.3 -25 13 C-21.405 12.121 -19.471 11.617 -17.188 8.625 C-16.176 6.388 -15.446 4.406 -15 2 C-14.67 2.66 -14.34 3.32 -14 4 C-13.546 3.34 -13.093 2.68 -12.625 2 C-8.626 -1.047 -4.86 -0.627 0 0 Z " fill="#4C2D13" transform="translate(92,183)"/>
<path d="M0 0 C0.054 2.834 0.094 5.666 0.125 8.5 C0.142 9.291 0.159 10.083 0.176 10.898 C0.233 17.825 -0.768 24.085 -3.875 30.375 C-4.182 31.022 -4.489 31.669 -4.805 32.336 C-6.269 34.375 -7.707 35.05 -10 36 C-10.688 33.75 -10.688 33.75 -11 31 C-10.515 30.402 -10.031 29.804 -9.531 29.188 C-7.559 26.37 -7.691 24.649 -7.812 21.25 C-7.84 20.265 -7.867 19.28 -7.895 18.266 C-7.929 17.518 -7.964 16.77 -8 16 C-7.34 16 -6.68 16 -6 16 C-5.67 12.37 -5.34 8.74 -5 5 C-7.932 7.853 -10.643 10.651 -13 14 C-12.34 14 -11.68 14 -11 14 C-11.33 14.99 -11.66 15.98 -12 17 C-12.66 17.33 -13.32 17.66 -14 18 C-13.34 18.66 -12.68 19.32 -12 20 C-17.415 24.062 -17.415 24.062 -20.375 23.75 C-20.911 23.502 -21.448 23.255 -22 23 C-21.83 15.165 -17.492 9.471 -12.051 4.062 C-7.738 0.301 -5.795 -1.372 0 0 Z " fill="#F5BD80" transform="translate(109,45)"/>
<path d="M0 0 C0.33 0 0.66 0 1 0 C1.33 1.98 1.66 3.96 2 6 C2.99 5.34 3.98 4.68 5 4 C7.332 3.921 9.668 3.912 12 4 C12 4.33 12 4.66 12 5 C11.397 5.147 10.793 5.294 10.172 5.445 C6.078 6.594 3.516 7.471 0.5 10.562 C-1.448 15.027 -1.809 19.169 -2 24 C-0.35 24.66 1.3 25.32 3 26 C3 26.66 3 27.32 3 28 C3.99 28 4.98 28 6 28 C7.125 31.75 7.125 31.75 6 34 C5.192 33.954 4.384 33.907 3.551 33.859 C-5.286 33.561 -5.286 33.561 -9.25 36 C-9.828 36.66 -10.405 37.32 -11 38 C-10.772 37.325 -10.544 36.649 -10.309 35.953 C-10.021 35.061 -9.734 34.169 -9.438 33.25 C-9.147 32.368 -8.857 31.487 -8.559 30.578 C-7.983 27.922 -8.108 26.53 -9 24 C-10.32 23.67 -11.64 23.34 -13 23 C-13 21.02 -13 19.04 -13 17 C-16.3 17 -19.6 17 -23 17 C-22.67 16.01 -22.34 15.02 -22 14 C-21.34 14 -20.68 14 -20 14 C-19.01 13.67 -18.02 13.34 -17 13 C-17 13.66 -17 14.32 -17 15 C-15.68 14.67 -14.36 14.34 -13 14 C-12.67 14.66 -12.34 15.32 -12 16 C-8.629 14.555 -6.42 12.753 -4 10 C-3.67 9.01 -3.34 8.02 -3 7 C-2.34 7 -1.68 7 -1 7 C-0.67 4.69 -0.34 2.38 0 0 Z " fill="#DD5F01" transform="translate(88,150)"/>
<path d="M0 0 C0.497 0.144 0.497 0.144 3.012 0.871 C3.771 1.099 4.53 1.327 5.312 1.562 C5.477 2.387 5.477 2.387 6.312 6.562 C-0.119 8.156 -6.009 8.731 -12.633 8.438 C-15.775 8.566 -18.491 9.293 -21.515 10.108 C-25.387 10.918 -29.25 10.771 -33.188 10.688 C-33.599 10.683 -33.599 10.683 -35.68 10.66 C-37.682 10.637 -39.685 10.601 -41.688 10.562 C-38.724 7.599 -35.465 7.785 -31.414 7.223 C-28.423 6.498 -26.875 5.715 -24.688 3.562 C-23.938 1.375 -23.938 1.375 -23.688 -0.438 C-22.639 -0.426 -21.591 -0.414 -20.512 -0.402 C-19.133 -0.393 -17.754 -0.384 -16.375 -0.375 C-15.685 -0.367 -14.994 -0.358 -14.283 -0.35 C-0.97 -0.285 -0.97 -0.285 0 0 Z " fill="#E6CCB5" transform="translate(133.6875,185.4375)"/>
<path d="M0 0 C0.33 0.99 0.66 1.98 1 3 C0.361 3.598 -0.279 4.196 -0.938 4.812 C-4.19 8.262 -4.143 11.21 -4.109 15.809 C-4 17.994 -3.714 20.089 -3.375 22.25 C-3.017 25.827 -2.972 27.137 -5 30 C-5.66 30 -6.32 30 -7 30 C-7.66 28.02 -8.32 26.04 -9 24 C-9.454 24.66 -9.907 25.32 -10.375 26 C-10.911 26.66 -11.447 27.32 -12 28 C-12.66 28 -13.32 28 -14 28 C-14.33 25.36 -14.66 22.72 -15 20 C-15.554 20.505 -16.109 21.011 -16.68 21.531 C-17.404 22.181 -18.129 22.831 -18.875 23.5 C-19.594 24.15 -20.314 24.799 -21.055 25.469 C-23 27 -23 27 -25 27 C-24.67 24.69 -24.34 22.38 -24 20 C-22.68 20 -21.36 20 -20 20 C-19.67 19.34 -19.34 18.68 -19 18 C-17.02 18 -15.04 18 -13 18 C-12.685 17.18 -12.371 16.36 -12.047 15.516 C-11.619 14.438 -11.191 13.36 -10.75 12.25 C-10.332 11.183 -9.915 10.115 -9.484 9.016 C-7.274 4.526 -4.582 1.964 0 0 Z " fill="#F7D19E" transform="translate(156,105)"/>
<path d="M0 0 C2.089 1.779 2.902 3.188 3.232 5.922 C3.296 8.206 3.261 10.467 3.188 12.75 C3.181 13.146 3.181 13.146 3.146 15.152 C3.111 17.102 3.057 19.051 3 21 C2.01 21.33 1.02 21.66 0 22 C-0.66 16.72 -1.32 11.44 -2 6 C-7.893 6.982 -8.886 7.255 -12.875 11.062 C-13.266 11.429 -13.266 11.429 -15.242 13.285 C-15.532 13.568 -15.532 13.568 -17 15 C-17.33 14.34 -17.66 13.68 -18 13 C-19.65 13 -21.3 13 -23 13 C-22.801 10.699 -22.801 10.699 -22 8 C-19.855 6.27 -19.855 6.27 -17.188 4.812 C-16.315 4.324 -15.442 3.835 -14.543 3.332 C-13.704 2.892 -12.865 2.453 -12 2 C-11.317 1.62 -10.634 1.239 -9.93 0.848 C-6.47 -0.672 -3.755 -0.358 0 0 Z " fill="#513D29" transform="translate(110,39)"/>
<path d="M0 0 C5.707 0.864 9.993 5.239 14.062 9.062 C14.392 9.558 14.392 9.558 16.062 12.062 C14.742 12.722 14.742 12.722 8.062 16.062 C7.592 15.436 7.121 14.81 6.637 14.164 C6.325 13.755 6.325 13.755 4.75 11.688 C4.135 10.875 3.52 10.063 2.887 9.227 C1.062 7.062 1.062 7.062 -1.938 5.062 C-2.928 10.013 -3.918 14.962 -4.938 20.062 C-5.598 20.062 -6.258 20.062 -6.938 20.062 C-7.326 13.164 -6.737 7.431 -3.938 1.062 C-2.938 0.062 -2.938 0.062 0 0 Z " fill="#54402F" transform="translate(26.9375,33.9375)"/>
<path d="M0 0 C4.019 -0.315 6.352 -0.38 9.875 1.688 C12.196 4.214 12.719 5.628 13 9 C11.333 7.333 9.667 5.667 8 4 C8.33 4.66 8.66 5.32 9 6 C9.419 9.772 9.254 11.567 7.312 14.875 C5 17 5 17 2.5 17.562 C-0.915 16.794 -2.035 15.91 -4 13 C-4.332 10.241 -4.186 7.796 -4 5 C-3.01 4.67 -2.02 4.34 -1 4 C-0.67 4.66 -0.34 5.32 0 6 C0.66 6 1.32 6 2 6 C2.33 5.01 2.66 4.02 3 3 C1.68 3 0.36 3 -1 3 C-0.67 2.01 -0.34 1.02 0 0 Z " fill="#0A0603" transform="translate(69,91)"/>
<path d="M0 0 C6.99 2.998 10.498 10.205 13.32 16.945 C14.125 19.379 14.328 21.455 14 24 C12.02 24.66 10.04 25.32 8 26 C7.447 23.924 7 22.156 7 20 C6.67 19.01 6.34 18.02 6 17 C6.66 16.67 7.32 16.34 8 16 C6.68 13.36 5.36 10.72 4 8 C3.34 13.28 2.68 18.56 2 24 C1.67 24 1.34 24 1 24 C0.636 20.376 0.286 16.751 -0.062 13.125 C-0.114 12.609 -0.114 12.609 -0.377 9.996 C-0.47 9.01 -0.564 8.024 -0.66 7.008 C-0.749 6.097 -0.838 5.185 -0.93 4.247 C-1 2 -1 2 0 0 Z " fill="#F2B97A" transform="translate(25,39)"/>
<path d="M0 0 C0.66 0.66 1.32 1.32 2 2 C2.99 2 3.98 2 5 2 C4.34 2.66 3.68 3.32 3 4 C2.375 6.125 2.375 6.125 2 8 C2.66 8 3.32 8 4 8 C4.33 7.01 4.66 6.02 5 5 C5.33 5.495 5.33 5.495 7 8 C7.99 8.33 8.98 8.66 10 9 C10 7.35 10 5.7 10 4 C10.99 3.67 11.98 3.34 13 3 C12.67 4.98 12.34 6.96 12 9 C13.32 9 14.64 9 16 9 C16 9.66 16 10.32 16 11 C9.708 11.252 4.74 10.87 -1 8 C-1.309 8.639 -1.619 9.279 -1.938 9.938 C-3 12 -3 12 -4 13 C-6.492 13.127 -8.945 13.185 -11.438 13.188 C-11.785 13.194 -11.785 13.194 -13.541 13.225 C-15.362 13.23 -17.183 13.122 -19 13 C-21 11 -21 11 -21.125 7.375 C-21.084 6.261 -21.042 5.148 -21 4 C-19.68 3.34 -18.36 2.68 -17 2 C-17 2.66 -17 3.32 -17 4 C-16.01 4 -15.02 4 -14 4 C-14.66 5.98 -15.32 7.96 -16 10 C-14.68 10.33 -13.36 10.66 -12 11 C-11.67 9.35 -11.34 7.7 -11 6 C-10.01 6 -9.02 6 -8 6 C-8.33 7.65 -8.66 9.3 -9 11 C-5.397 10.119 -3.46 9.583 -1.125 6.625 C0 4 0 4 0 0 Z " fill="#382414" transform="translate(76,185)"/>
<path d="M0 0 C0.392 0.928 0.784 1.856 1.188 2.812 C3.207 6.364 4.475 7.114 8 9 C10.06 10.604 12.02 12.296 14 14 C13.34 17.3 12.68 20.6 12 24 C11.34 23.34 10.68 22.68 10 22 C10 21.01 10 20.02 10 19 C9.01 19 8.02 19 7 19 C6.866 18.515 6.866 18.515 6.188 16.062 C5.796 15.052 5.404 14.041 5 13 C4.01 12.67 3.02 12.34 2 12 C2 11.34 2 10.68 2 10 C0.35 10 -1.3 10 -3 10 C-3 14.29 -3 18.58 -3 23 C-3.33 23 -3.66 23 -4 23 C-4 15.74 -4 8.48 -4 1 C-2 0 -2 0 0 0 Z " fill="#B06025" transform="translate(44,155)"/>
<path d="M0 0 C2.97 0.99 5.94 1.98 9 3 C8.67 3.66 8.34 4.32 8 5 C7.34 5 6.68 5 6 5 C6 5.99 6 6.98 6 8 C4.68 8 3.36 8 2 8 C2 8.66 2 9.32 2 10 C2.66 10.33 3.32 10.66 4 11 C1 12 1 12 -0.875 11.312 C-1.226 11.261 -1.226 11.261 -3 11 C-4.702 12.288 -6.363 13.63 -8 15 C-17.025 19.513 -25.61 20.296 -35.562 20.125 C-36.571 20.116 -37.58 20.107 -38.619 20.098 C-41.08 20.074 -43.54 20.042 -46 20 C-46 19.34 -46 18.68 -46 18 C-44.707 18.058 -43.414 18.116 -42.082 18.176 C-32.282 18.478 -24.516 18.35 -15.531 14.094 C-13 13 -13 13 -9 13 C-9 12.01 -9 11.02 -9 10 C-7.242 9.023 -5.484 8.047 -3.727 7.07 C-2 6 -2 6 0 4 C0 2.68 0 1.36 0 0 Z " fill="#F3CD99" transform="translate(99,107)"/>
<path d="M0 0 C0.629 0.021 0.629 0.021 3.812 0.125 C3.977 0.455 3.977 0.455 4.812 2.125 C3.066 3.11 1.315 4.088 -0.438 5.062 C-0.925 5.335 -0.925 5.335 -3.391 6.715 C-6.188 8.125 -6.188 8.125 -8.484 8.691 C-9.046 8.834 -9.608 8.978 -10.188 9.125 C-10.517 9.785 -10.847 10.445 -11.188 11.125 C-11.188 10.465 -11.188 9.805 -11.188 9.125 C-12.167 9.451 -13.147 9.777 -14.156 10.113 C-18.372 11.315 -22.33 11.387 -26.688 11.312 C-27.048 11.312 -27.048 11.312 -28.871 11.311 C-33.4 11.274 -37.719 10.86 -42.188 10.125 C-42.188 9.795 -42.188 9.465 -42.188 9.125 C-40.993 9.076 -39.798 9.027 -38.566 8.977 C-25.661 8.395 -11.107 -0.364 0 0 Z " fill="#EBBE86" transform="translate(99.1875,117.875)"/>
<path d="M0 0 C1.938 0.309 3.875 0.623 5.812 0.938 C6.891 1.112 7.97 1.286 9.082 1.465 C12 2 12 2 15 3 C17.755 2.753 20.452 2.447 23.188 2.062 C23.937 1.963 24.687 1.863 25.459 1.76 C27.307 1.513 29.154 1.257 31 1 C32.746 4.216 33.204 6.32 33 10 C32.34 10 31.68 10 31 10 C30.835 9.67 30.835 9.67 30 8 C29.897 9.093 29.794 10.186 29.688 11.312 C29.027 14.856 28.797 15.932 26 18 C26 17.01 26 16.02 26 15 C25.34 14.67 24.68 14.34 24 14 C24.66 13.67 25.32 13.34 26 13 C26.66 13.33 27.32 13.66 28 14 C27.67 11.03 27.34 8.06 27 5 C24.229 5.141 21.458 5.287 18.688 5.438 C17.902 5.477 17.116 5.516 16.307 5.557 C15.928 5.578 15.928 5.578 14.012 5.684 C13.315 5.72 12.619 5.757 11.901 5.795 C10 6 10 6 7 7 C6.67 6.34 6.34 5.68 6 5 C4.35 5 2.7 5 1 5 C0.67 5.99 0.34 6.98 0 8 C-0.99 7.67 -1.98 7.34 -3 7 C-1.125 2.25 -1.125 2.25 0 0 Z " fill="#F3C890" transform="translate(40,134)"/>
<path d="M0 0 C0.33 0 0.66 0 1 0 C1 6.93 1 13.86 1 21 C-0.98 20.67 -2.96 20.34 -5 20 C-5 19.34 -5 18.68 -5 18 C-5.578 17.752 -6.155 17.505 -6.75 17.25 C-9.305 15.831 -10.941 14.059 -13 12 C-15.25 10.75 -15.25 10.75 -17 10 C-16.67 9.01 -16.34 8.02 -16 7 C-14.35 7.33 -12.7 7.66 -11 8 C-11 8.66 -11 9.32 -11 10 C-10.01 9.67 -9.02 9.34 -8 9 C-7.01 9.66 -6.02 10.32 -5 11 C-4.67 10.01 -4.34 9.02 -4 8 C-1.938 7.312 -1.938 7.312 0 7 C0 4.69 0 2.38 0 0 Z " fill="#EAB87E" transform="translate(63,151)"/>
<path d="M0 0 C0.33 0 0.66 0 1 0 C1 3.96 1 7.92 1 12 C1.66 12 2.32 12 3 12 C3.703 20.433 1.636 28.343 -3.656 35.121 C-5.698 37.976 -5.196 40.6 -5 44 C-10 36.5 -10 36.5 -10 33 C-9.34 33 -8.68 33 -8 33 C-7.712 32.424 -7.424 31.849 -7.128 31.256 C-6.418 29.837 -5.701 28.422 -4.974 27.012 C-2.136 21.168 -1.204 15.881 -0.75 9.438 C-0.711 8.981 -0.711 8.981 -0.516 6.67 C-0.329 4.447 -0.158 2.225 0 0 Z " fill="#D87627" transform="translate(109,49)"/>
<path d="M0 0 C0.66 0 1.32 0 2 0 C2.027 1.458 2.046 2.917 2.062 4.375 C2.074 5.187 2.086 5.999 2.098 6.836 C2 9 2 9 1 11 C0.34 11 -0.32 11 -1 11 C-0.881 11.724 -0.763 12.449 -0.641 13.195 C0.544 22.077 0.544 22.077 -1.875 25.688 C-2.576 26.451 -3.278 27.214 -4 28 C-4.33 28 -4.66 28 -5 28 C-5 25.03 -5 22.06 -5 19 C-6.98 19 -8.96 19 -11 19 C-9.35 17.68 -7.7 16.36 -6 15 C-6.66 14.34 -7.32 13.68 -8 13 C-6.68 11.68 -5.36 10.36 -4 9 C-4.66 9 -5.32 9 -6 9 C-4.472 5.562 -2.498 2.81 0 0 Z " fill="#DB8746" transform="translate(102,50)"/>
<path d="M0 0 C0.33 0 0.66 0 1 0 C1.024 0.423 1.024 0.423 1.148 2.562 C1.833 12.955 1.833 12.955 3.125 17.188 C4.234 22.019 3.736 26.143 3 31 C2.34 31 1.68 31 1 31 C1.33 32.32 1.66 33.64 2 35 C2.928 35 3.856 35 4.812 35 C7.875 35 10.938 35 14 35 C13.67 35.99 13.34 36.98 13 38 C10.875 38.027 8.75 38.046 6.625 38.062 C6.033 38.068 6.033 38.068 3.039 38.098 C0 38 0 38 -2 37 C-2.082 37.763 -2.165 38.526 -2.25 39.312 C-3 42 -3 42 -4.812 43.812 C-7 45 -7 45 -11 45 C-11.33 43.02 -11.66 41.04 -12 39 C-11.34 39.33 -10.68 39.66 -10 40 C-10 40.99 -10 41.98 -10 43 C-9.01 42.34 -8.02 41.68 -7 41 C-6.505 40.835 -6.505 40.835 -4 40 C-3.61 38.682 -3.29 37.343 -3 36 C-2.501 35.116 -2.002 34.231 -1.488 33.32 C0.239 29.467 0.368 26.768 0.312 22.562 C0.311 21.934 0.311 21.934 0.301 18.754 C-0.013 14.842 -0.797 11.715 -2 8 C-1.34 8 -0.68 8 0 8 C0 5.36 0 2.72 0 0 Z " fill="#BE3F02" transform="translate(112,148)"/>
<path d="M0 0 C0.71 0.485 1.421 0.969 2.152 1.469 C0.34 2.531 0.34 2.531 -1.848 3.469 C-2.838 3.139 -3.828 2.809 -4.848 2.469 C-4.188 2.469 -3.528 2.469 -2.848 2.469 C-2.848 1.809 -2.848 1.149 -2.848 0.469 C-5.747 0.866 -8.641 1.286 -11.535 1.719 C-11.943 1.774 -11.943 1.774 -14.01 2.051 C-19.087 2.832 -21.975 3.885 -25.848 7.469 C-26.508 7.469 -27.168 7.469 -27.848 7.469 C-29.355 8.562 -29.355 8.562 -30.973 9.969 C-31.921 10.794 -32.87 11.619 -33.848 12.469 C-33.518 12.964 -33.518 12.964 -31.848 15.469 C-31.434 17.73 -31.434 17.73 -31.223 20.156 C-31.148 20.964 -31.073 21.773 -30.996 22.605 C-30.972 22.913 -30.972 22.913 -30.848 24.469 C-31.508 24.799 -32.168 25.129 -32.848 25.469 C-32.848 22.829 -32.848 20.189 -32.848 17.469 C-34.168 17.799 -35.488 18.129 -36.848 18.469 C-37.178 19.789 -37.508 21.109 -37.848 22.469 C-38.965 20.707 -38.965 20.707 -39.848 18.469 C-37.471 11.175 -30.534 5.533 -24.086 1.922 C-16.578 -1.572 -7.717 -4.149 0 0 Z " fill="#F5DAB4" transform="translate(153.84765625,102.53125)"/>
<path d="M0 0 C4.512 -0.366 4.512 -0.366 6.75 1.312 C9.235 4.667 9.34 8.106 9.281 12.121 C9 14 9 14 7.312 16.062 C4.398 17.244 2.95 17.009 0 16 C-2 14 -2 14 -2.23 12.125 C-2.216 11.424 -2.202 10.722 -2.188 10 C-2.181 9.299 -2.175 8.597 -2.168 7.875 C-2 6 -2 6 -1 4 C-0.34 4 0.32 4 1 4 C1 4.99 1 5.98 1 7 C2.32 7 3.64 7 5 7 C4.188 4.062 4.188 4.062 3 1 C2.01 0.67 1.02 0.34 0 0 Z " fill="#241304" transform="translate(35,88)"/>
<path d="M0 0 C0.33 0 0.66 0 1 0 C1 2.31 1 4.62 1 7 C1.825 7.33 1.825 7.33 6 9 C6 9.66 6 10.32 6 11 C6.99 11 7.98 11 9 11 C10.125 14.75 10.125 14.75 9 17 C8.596 16.977 8.596 16.977 6.551 16.859 C-2.286 16.561 -2.286 16.561 -6.25 19 C-6.828 19.66 -7.405 20.32 -8 21 C-5.021 10.12 -5.021 10.12 -2 6 C-1.67 6 -1.34 6 -1 6 C-0.67 4.02 -0.34 2.04 0 0 Z " fill="#DE6101" transform="translate(85,167)"/>
<path d="M0 0 C3.896 0.26 5.642 0.99 8.75 3.25 C8.473 6.663 8.143 7.911 5.5 10.188 C2.75 11.25 2.75 11.25 0.125 10.625 C-3.879 8.307 -3.879 8.307 -5.25 6.25 C-4.689 0.361 -4.689 0.361 0 0 Z " fill="#2B1F13" transform="translate(46.25,106.75)"/>
<path d="M0 0 C0.33 0 0.66 0 1 0 C1.061 0.404 1.061 0.404 1.367 2.449 C1.535 3.518 1.702 4.586 1.875 5.688 C2.037 6.743 2.2 7.799 2.367 8.887 C2.964 11.822 3.691 14.309 5 17 C5.66 17.33 6.32 17.66 7 18 C7.721 12.339 8.383 6.674 9 1 C10.32 2.65 11.64 4.3 13 6 C12.34 6 11.68 6 11 6 C11.375 8.438 11.375 8.438 12 11 C12.66 11.33 13.32 11.66 14 12 C12.73 13.439 11.459 14.876 10.188 16.312 C9.48 17.113 8.772 17.914 8.043 18.738 C6.407 20.55 4.747 22.297 3 24 C0.418 21.418 0.08 19.483 -0.114 15.894 C-0.108 15.16 -0.103 14.427 -0.098 13.672 C-0.096 13.272 -0.096 13.272 -0.088 11.25 C-0.08 10.425 -0.071 9.6 -0.062 8.75 C-0.058 7.91 -0.053 7.069 -0.049 6.203 C-0.037 4.135 -0.019 2.068 0 0 Z " fill="#EF7416" transform="translate(21,55)"/>
<path d="M0 0 C3.706 0.882 4.704 2.988 6.707 6.094 C7.01 6.599 7.313 7.104 7.625 7.625 C3.875 9.625 3.875 9.625 1.625 9.625 C1.357 10.264 1.089 10.904 0.812 11.562 C-0.375 13.625 -0.375 13.625 -3.375 14.625 C-5.169 10.813 -5.833 7.838 -5.375 3.625 C-3.818 1.167 -2.804 0.738 0 0 Z " fill="#F87F0B" transform="translate(43.375,48.375)"/>
<path d="M0 0 C0.66 0 1.32 0 2 0 C2.33 2.31 2.66 4.62 3 7 C3 6.67 3 6.34 3 6 C3.33 5.01 3.66 4.02 4 3 C4.784 3.619 5.568 4.237 6.375 4.875 C9.967 7.307 13.598 7.92 17.828 8.605 C20 9 20 9 22 10 C24.125 9.562 24.125 9.562 26 9 C24.496 11 24.496 11 22 13 C19.159 13.239 16.858 13.25 14.062 13 C13.359 12.968 12.656 12.936 11.932 12.902 C7.131 12.551 4.332 11.487 1 8 C0.688 5.25 0.688 5.25 1 3 C0.34 3 -0.32 3 -1 3 C-0.67 2.01 -0.34 1.02 0 0 Z " fill="#EAD09F" transform="translate(37,110)"/>
<path d="M0 0 C0.428 0.009 0.428 0.009 2.594 0.055 C3.223 0.078 3.852 0.101 4.5 0.125 C1.081 2.018 -1.659 2.481 -5.5 2.781 C-7.5 3.125 -7.5 3.125 -9.285 4.117 C-12.423 5.545 -15.545 5.596 -18.938 5.75 C-19.637 5.788 -20.337 5.826 -21.059 5.865 C-27.538 6.189 -34.013 6.225 -40.5 6.125 C-40.5 5.465 -40.5 4.805 -40.5 4.125 C-33.851 3.202 -27.272 2.828 -20.566 2.607 C-16.654 2.439 -13.042 2.107 -9.25 1.098 C-5.947 0.241 -3.379 -0.094 0 0 Z " fill="#F5E6D5" transform="translate(123.5,192.875)"/>
<path d="M0 0 C3.65 5.475 2.592 13.276 1.582 19.629 C0.949 22.215 0.192 24.616 -1 27 C-1.66 27 -2.32 27 -3 27 C-4.473 18.979 -3.216 12.756 -1 5 C-0.65 3.337 -0.31 1.671 0 0 Z " fill="#F9CE90" transform="translate(107,46)"/>
<path d="M0 0 C1.32 0 2.64 0 4 0 C2.125 4.75 2.125 4.75 1 7 C1.66 7 2.32 7 3 7 C3.33 9.31 3.66 11.62 4 14 C4.66 13.67 5.32 13.34 6 13 C6.33 15.64 6.66 18.28 7 21 C5.68 21.33 4.36 21.66 3 22 C0.847 18.142 -0.393 15.449 0 11 C-0.66 11 -1.32 11 -2 11 C-1.86 9.354 -1.713 7.708 -1.562 6.062 C-1.481 5.146 -1.4 4.229 -1.316 3.285 C-1 1 -1 1 0 0 Z " fill="#F38D3D" transform="translate(36,134)"/>
<path d="M0 0 C1 3 1 3 0.25 5.5 C-1.031 8.062 -1.705 9.321 -4 11 C-7.285 11.363 -7.285 11.363 -11.062 11.312 C-12.312 11.309 -13.561 11.305 -14.848 11.301 C-18 11 -18 11 -20 9 C-20.125 6.375 -20.125 6.375 -20 4 C-18.35 3.34 -16.7 2.68 -15 2 C-15 3.98 -15 5.96 -15 8 C-14.34 8.33 -13.68 8.66 -13 9 C-12.928 8.608 -12.928 8.608 -12.562 6.625 C-12 4 -12 4 -11 2 C-10.01 2.33 -9.02 2.66 -8 3 C-8.66 3.66 -9.32 4.32 -10 5 C-10.625 7.125 -10.625 7.125 -11 9 C-5.627 8.207 -5.627 8.207 -3 7 C-1.365 4.694 -0.817 2.758 0 0 Z " fill="#382313" transform="translate(52,184)"/>
<path d="M0 0 C0.33 0.99 0.66 1.98 1 3 C-0.604 3.647 -2.208 4.292 -3.812 4.938 C-4.259 5.117 -4.259 5.117 -6.52 6.027 C-8.327 6.736 -10.158 7.386 -12 8 C-11.814 8.639 -11.629 9.279 -11.438 9.938 C-11.293 10.618 -11.149 11.299 -11 12 C-12 13 -12 13 -15.062 13.062 C-16.032 13.042 -17.001 13.021 -18 13 C-17.801 10.699 -17.801 10.699 -17 8 C-14.855 6.27 -14.855 6.27 -12.188 4.812 C-11.315 4.324 -10.442 3.835 -9.543 3.332 C-8.704 2.892 -7.865 2.453 -7 2 C-6.647 1.806 -6.647 1.806 -4.863 0.824 C-3 0 -3 0 0 0 Z " fill="#5B3D22" transform="translate(105,39)"/>
<path d="M0 0 C0.99 0.66 1.98 1.32 3 2 C2.75 4.375 2.75 4.375 2 7 C-1.296 9.662 -4.933 9.156 -9 9 C-8.67 8.34 -8.34 7.68 -8 7 C-8.99 6.34 -9.98 5.68 -11 5 C-4.674 -0.884 -4.674 -0.884 0 0 Z " fill="#F8E2B9" transform="translate(61,112)"/>
<path d="M0 0 C2.232 0.245 4.463 0.508 6.688 0.812 C6.358 1.472 6.028 2.132 5.688 2.812 C2.805 3.773 0.989 3.918 -2 3.875 C-2.404 3.87 -2.404 3.87 -4.449 3.848 C-4.757 3.842 -4.757 3.842 -6.312 3.812 C-6.642 4.803 -6.972 5.792 -7.312 6.812 C-9.953 6.977 -9.953 6.977 -23.312 7.812 C-23.312 7.482 -23.312 7.153 -23.312 6.812 C-22.576 6.726 -21.84 6.64 -21.082 6.551 C-12.78 5.355 -12.78 5.355 -10 2.125 C-6.414 -0.96 -4.634 -0.343 0 0 Z " fill="#D3AD8E" transform="translate(117.3125,187.1875)"/>
<path d="M0 0 C2.739 2.366 3.932 4.549 5 8 C5.125 10.813 5.125 10.813 5 13 C3.02 13.66 1.04 14.32 -1 15 C-1.553 12.924 -2 11.156 -2 9 C-2.33 8.01 -2.66 7.02 -3 6 C-2.34 5.67 -1.68 5.34 -1 5 C-1.33 3.68 -1.66 2.36 -2 1 C-1.34 0.67 -0.68 0.34 0 0 Z " fill="#F9C489" transform="translate(34,50)"/>
<path d="M0 0 C0.66 0 1.32 0 2 0 C2.33 3.96 2.66 7.92 3 12 C3.66 12 4.32 12 5 12 C3.749 15.754 2.435 16.241 -1 18 C-1.66 18 -2.32 18 -3 18 C-3.428 11.585 -1.857 6.114 0 0 Z " fill="#EEE9E5" transform="translate(57,171)"/>
<path d="M0 0 C0.825 0.289 1.65 0.578 2.5 0.875 C6.308 2.099 10.113 3.062 14 4 C13.67 4.99 13.34 5.98 13 7 C9.707 6.723 6.416 6.426 3.125 6.125 C2.188 6.046 1.251 5.968 0.285 5.887 C-0.611 5.803 -1.507 5.719 -2.43 5.633 C-3.257 5.559 -4.085 5.486 -4.937 5.411 C-7 5 -7 5 -9 3 C-8.34 3 -7.68 3 -7 3 C-7 2.34 -7 1.68 -7 1 C-4.69 1.33 -2.38 1.66 0 2 C0 1.34 0 0.68 0 0 Z " fill="#EB8236" transform="translate(61,53)"/>
<path d="M0 0 C0.33 0.66 0.66 1.32 1 2 C-0.747 2.985 -2.498 3.963 -4.25 4.938 C-4.737 5.21 -4.737 5.21 -7.203 6.59 C-10 8 -10 8 -12.297 8.566 C-12.859 8.709 -13.421 8.853 -14 9 C-14.33 9.66 -14.66 10.32 -15 11 C-15.33 10.01 -15.66 9.02 -16 8 C-15.34 7.34 -14.68 6.68 -14 6 C-13.34 5.154 -12.68 4.309 -12 3.438 C-8.413 -0.934 -5.347 -0.086 0 0 Z " fill="#E9B480" transform="translate(103,118)"/>
<path d="M0 0 C3.759 1.785 6.279 4.691 8.5 8.188 C8.5 9.178 8.5 10.168 8.5 11.188 C9.16 11.517 9.82 11.847 10.5 12.188 C7.53 12.847 4.56 13.508 1.5 14.188 C1.5 13.528 1.5 12.867 1.5 12.188 C3.15 11.528 4.8 10.867 6.5 10.188 C5.84 9.404 5.18 8.62 4.5 7.812 C2.5 5.188 2.5 5.188 2.5 3.188 C0.85 3.188 -0.8 3.188 -2.5 3.188 C-2.83 4.178 -3.16 5.168 -3.5 6.188 C-4.16 6.188 -4.82 6.188 -5.5 6.188 C-5.83 7.178 -6.16 8.168 -6.5 9.188 C-7.16 7.538 -7.82 5.888 -8.5 4.188 C-3.373 0.253 -3.373 0.253 0 0 Z " fill="#E4681E" transform="translate(43.5,45.8125)"/>
<path d="M0 0 C1.65 0 3.3 0 5 0 C5 0.99 5 1.98 5 3 C4.34 3 3.68 3 3 3 C3 3.66 3 4.32 3 5 C2.505 5.175 2.505 5.175 0 6.062 C-4.777 8.075 -8.277 11.471 -12 15 C-12 12.667 -12 10.333 -12 8 C-8.062 5.683 -4.308 3.566 0 2 C0 1.34 0 0.68 0 0 Z " fill="#492E13" transform="translate(105,39)"/>
<path d="M0 0 C2.706 1.353 2.962 2.81 4.125 5.562 C4.478 6.389 4.831 7.215 5.195 8.066 C5.461 8.704 5.726 9.343 6 10 C4.68 10 3.36 10 2 10 C2 14.62 2 19.24 2 24 C1.01 23.34 0.02 22.68 -1 22 C-1.328 19.785 -1.328 19.785 -1.25 17.062 C-1.237 16.575 -1.237 16.575 -1.172 14.109 C-0.911 9.392 -0.509 4.697 0 0 Z " fill="#EF9D5B" transform="translate(28,46)"/>
<path d="M0 0 C2.637 0.952 4.78 1.828 7 3.562 C9.325 5.234 11.221 5.474 14 6 C14.33 6.66 14.66 7.32 15 8 C13.68 8.66 13.68 8.66 7 12 C6.013 10.756 5.036 9.505 4.062 8.25 C3.517 7.554 2.972 6.858 2.41 6.141 C1.026 4.039 0.437 2.457 0 0 Z " fill="#573419" transform="translate(28,38)"/>
<path d="M0 0 C6.625 -0.125 6.625 -0.125 10 1 C10.33 2.65 10.66 4.3 11 6 C9.378 6.389 7.752 6.761 6.125 7.125 C5.22 7.334 4.315 7.543 3.383 7.758 C2.596 7.838 1.81 7.918 1 8 C0.34 7.34 -0.32 6.68 -1 6 C-0.01 5.01 0.98 4.02 2 3 C1.34 2.67 0.68 2.34 0 2 C0 1.34 0 0.68 0 0 Z " fill="#EAD2BC" transform="translate(129,186)"/>
<path d="M0 0 C0 0.66 0 1.32 0 2 C0.66 2 1.32 2 2 2 C2.825 3.485 2.825 3.485 7 11 C6.175 10.835 6.175 10.835 2 10 C1.67 8.02 1.34 6.04 1 4 C-2.595 2.802 -4.029 3.01 -7.688 4.312 C-11 6 -11 6 -13 8 C-13.99 6.35 -14.98 4.7 -16 3 C-13.709 2.498 -11.417 1.998 -9.125 1.5 C-7.849 1.222 -6.573 0.943 -5.258 0.656 C-2 0 -2 0 0 0 Z " fill="#D46818" transform="translate(88,127)"/>
<path d="M0 0 C0.66 0.33 1.32 0.66 2 1 C1.541 1.387 1.082 1.773 0.609 2.172 C0.303 2.432 0.303 2.432 -1.25 3.75 C-1.896 4.295 -2.542 4.841 -3.207 5.402 C-5 7 -5 7 -6.938 9.312 C-10.085 11.888 -12.988 11.733 -17 12 C-16.67 11.01 -16.34 10.02 -16 9 C-14.669 8.657 -13.336 8.324 -12 8 C-11.34 7.01 -10.68 6.02 -10 5 C-8.25 4 -8.25 4 -6 3 C-5.484 2.722 -5.484 2.722 -2.875 1.312 C-2.401 1.096 -2.401 1.096 0 0 Z " fill="#DC6725" transform="translate(145,172)"/>
<path d="M0 0 C0.33 0 0.66 0 1 0 C1.534 4.271 0.883 6.494 -1.5 9.938 C-4.201 13.886 -4.491 16.287 -4 21 C-9 13.5 -9 13.5 -9 10 C-8.34 10 -7.68 10 -7 10 C-6.67 9.01 -6.34 8.02 -6 7 C-5.361 6.897 -4.721 6.794 -4.062 6.688 C-3.382 6.461 -2.701 6.234 -2 6 C-0.75 2.938 -0.75 2.938 0 0 Z " fill="#E3620E" transform="translate(108,72)"/>
<path d="M0 0 C0.825 0.165 0.825 0.165 5 1 C5.33 1.99 5.66 2.98 6 4 C8.723 5.824 8.723 5.824 12.062 7.688 C13.167 8.31 14.272 8.933 15.41 9.574 C16.265 10.045 17.119 10.515 18 11 C17.67 11.99 17.34 12.98 17 14 C10.545 11.722 5.561 8.083 1 3 C0.67 2.01 0.34 1.02 0 0 Z " fill="#F4D0A1" transform="translate(13,107)"/>
<path d="M0 0 C-1.32 2.64 -2.64 5.28 -4 8 C-5.32 7.67 -6.64 7.34 -8 7 C-8 5.35 -8 3.7 -8 2 C-8.495 2.33 -8.495 2.33 -11 4 C-10.67 2.02 -10.34 0.04 -10 -2 C-5.824 -3.392 -3.865 -1.823 0 0 Z " fill="#523B25" transform="translate(68,188)"/>
<path d="M0 0 C1.226 3.678 0.703 5.882 0.062 9.688 C-0.132 10.867 -0.327 12.046 -0.527 13.262 C-0.683 14.165 -0.839 15.069 -1 16 C-1.66 15.01 -2.32 14.02 -3 13 C-3.66 13.66 -4.32 14.32 -5 15 C-5.66 14.34 -6.32 13.68 -7 13 C-9.125 12.375 -9.125 12.375 -11 12 C-11 10.35 -11 8.7 -11 7 C-10.175 7.33 -10.175 7.33 -6 9 C-6 9.66 -6 10.32 -6 11 C-5.34 11 -4.68 11 -4 11 C-3.898 10.645 -3.898 10.645 -3.379 8.848 C-3.109 7.929 -2.84 7.009 -2.562 6.062 C-2.296 5.146 -2.029 4.229 -1.754 3.285 C-1 1 -1 1 0 0 Z " fill="#B74A04" transform="translate(86,161)"/>
<path d="M0 0 C-0.99 0 -1.98 0 -3 0 C-3.66 2.31 -4.32 4.62 -5 7 C-5.99 6.67 -6.98 6.34 -8 6 C-8 4.35 -8 2.7 -8 1 C-8.99 2.32 -9.98 3.64 -11 5 C-11.688 2.688 -11.688 2.688 -12 0 C-10.602 -2.06 -9.336 -2.832 -7.125 -3.938 C-3.831 -4.034 -2.34 -2.145 0 0 Z " fill="#4A3724" transform="translate(44,186)"/>
<path d="M0 0 C1.738 2.607 2.502 4.013 3 7 C2.67 7.33 2.34 7.66 2 8 C1.765 10.183 1.586 12.372 1.438 14.562 C1.396 15.161 1.396 15.161 1.184 18.191 C1.123 19.118 1.062 20.045 1 21 C0.01 20.67 -0.98 20.34 -2 20 C-2.237 12.965 -1.788 6.817 0 0 Z " fill="#F17D21" transform="translate(112,124)"/>
<path d="M0 0 C0.66 0.33 1.32 0.66 2 1 C0.35 2.98 -1.3 4.96 -3 7 C-2.34 7.66 -1.68 8.32 -1 9 C-0.586 11.164 -0.586 11.164 -0.375 13.625 C-0.3 14.442 -0.225 15.26 -0.148 16.102 C-0.124 16.415 -0.124 16.415 0 18 C-0.66 18.33 -1.32 18.66 -2 19 C-2 16.36 -2 13.72 -2 11 C-3.32 11.33 -4.64 11.66 -6 12 C-6.33 13.32 -6.66 14.64 -7 16 C-8.133 14.25 -8.133 14.25 -9 12 C-8.242 10 -8.242 10 -6.875 8 C-6.404 7.309 -5.934 6.618 -5.449 5.906 C-3.798 3.734 -2.04 1.813 0 0 Z " fill="#F1BF89" transform="translate(123,109)"/>
<path d="M0 0 C1.32 0 2.64 0 4 0 C4.33 1.32 4.66 2.64 5 4 C6.32 4.33 7.64 4.66 9 5 C8.67 4.34 8.34 3.68 8 3 C9.32 3.33 10.64 3.66 12 4 C11.34 7.3 10.68 10.6 10 14 C9.34 13.34 8.68 12.68 8 12 C8 11.01 8 10.02 8 9 C7.01 9 6.02 9 5 9 C4.732 8.031 4.464 7.061 4.188 6.062 C3.796 5.052 3.404 4.041 3 3 C2.01 2.67 1.02 2.34 0 2 C0 1.34 0 0.68 0 0 Z " fill="#A74707" transform="translate(46,165)"/>
<path d="M0 0 C0.825 0.33 0.825 0.33 5 2 C4.67 5.63 4.34 9.26 4 13 C3.01 13 2.02 13 1 13 C-0.322 10.355 -0.097 8.322 -0.062 5.375 C-0.053 4.372 -0.044 3.369 -0.035 2.336 C-0.024 1.565 -0.012 0.794 0 0 Z " fill="#BD4808" transform="translate(59,170)"/>
<path d="M0 0 C0.66 0.33 1.32 0.66 2 1 C2 3.97 2 6.94 2 10 C1.01 9.835 1.01 9.835 -4 9 C-4 8.34 -4 7.68 -4 7 C-4.99 6.67 -5.98 6.34 -7 6 C-7 5.01 -7 4.02 -7 3 C-6.216 2.876 -5.432 2.752 -4.625 2.625 C-2 2 -2 2 0 0 Z " fill="#E1AB71" transform="translate(62,162)"/>
<path d="M0 0 C2.646 0.144 4.366 -0.14 6.875 -0.844 C9.625 -0.406 9.625 -0.406 11.875 0.156 C8.085 2.653 4.245 2.419 -0.125 2.344 C-0.481 2.343 -0.481 2.343 -2.281 2.342 C-5.694 2.313 -8.864 2.218 -12.125 1.156 C-12.125 1.816 -12.125 2.476 -12.125 3.156 C-13.775 2.826 -15.425 2.496 -17.125 2.156 C-11.095 -1.074 -6.72 -0.739 0 0 Z " fill="#F5D5A6" transform="translate(65.125,123.84375)"/>
<path d="M0 0 C1.648 2.967 2.443 5.656 3 9 C2.072 9.619 1.144 10.238 0.188 10.875 C-0.338 11.226 -0.338 11.226 -3 13 C-3.495 13.33 -3.495 13.33 -6 15 C-3.109 4.442 -3.109 4.442 0 0 Z " fill="#C1702E" transform="translate(83,173)"/>
<path d="M0 0 C0.66 0 1.32 0 2 0 C2.027 1.458 2.046 2.917 2.062 4.375 C2.074 5.187 2.086 5.999 2.098 6.836 C2 9 2 9 1 11 C0.34 11 -0.32 11 -1 11 C-0.893 11.759 -0.786 12.519 -0.676 13.301 C-0.556 14.295 -0.436 15.289 -0.312 16.312 C-0.185 17.299 -0.057 18.285 0.074 19.301 C0 22 0 22 -1.48 23.855 C-1.982 24.233 -2.483 24.611 -3 25 C-3.082 22.792 -3.139 20.584 -3.188 18.375 C-3.205 17.76 -3.205 17.76 -3.293 14.648 C-2.977 10.712 -1.888 8.422 0 5 C0.188 2.125 0.188 2.125 0 0 Z " fill="#ED9F61" transform="translate(102,50)"/>
<path d="M0 0 C2.544 0 5.043 0.098 7.578 0.312 C7.578 0.972 7.578 1.632 7.578 2.312 C5.268 2.312 2.958 2.312 0.578 2.312 C0.444 2.601 0.444 2.601 -0.234 4.062 C-1.451 6.368 -2.725 8.333 -4.422 10.312 C-5.082 10.312 -5.742 10.312 -6.422 10.312 C-5.042 0.651 -5.042 0.651 0 0 Z " fill="#42240E" transform="translate(84.421875,182.6875)"/>
<path d="M0 0 C0.33 0 0.66 0 1 0 C1 2.31 1 4.62 1 7 C1.99 7 2.98 7 4 7 C4 7.66 4 8.32 4 9 C6.438 8.625 6.438 8.625 9 8 C9.33 7.34 9.66 6.68 10 6 C10.66 6 11.32 6 12 6 C12 4.35 12 2.7 12 1 C12.33 1 12.66 1 13 1 C13.347 4.732 13.235 6.6 11.312 9.875 C9 12 9 12 6.5 12.562 C3.085 11.794 1.965 10.91 0 8 C-0.332 5.241 -0.186 2.796 0 0 Z " fill="#45260B" transform="translate(65,96)"/>
<path d="M0 0 C0 1.98 0 3.96 0 6 C1.32 6.33 2.64 6.66 4 7 C2.35 7.33 0.7 7.66 -1 8 C-1.33 6.35 -1.66 4.7 -2 3 C-8.75 3.75 -8.75 3.75 -11 6 C-10.67 4.02 -10.34 2.04 -10 0 C-6.306 -1.231 -3.794 -0.644 0 0 Z " fill="#73461E" transform="translate(75,167)"/>
<path d="M0 0 C0.33 0 0.66 0 1 0 C1.33 1.98 1.66 3.96 2 6 C2.99 5.34 3.98 4.68 5 4 C7.332 3.921 9.668 3.912 12 4 C12 4.33 12 4.66 12 5 C11.698 5.085 11.698 5.085 10.172 5.516 C5.402 6.962 2.335 8.131 -1 12 C-1.66 12 -2.32 12 -3 12 C-3 10.35 -3 8.7 -3 7 C-2.34 7 -1.68 7 -1 7 C-0.67 4.69 -0.34 2.38 0 0 Z " fill="#D45601" transform="translate(88,150)"/>
<path d="M0 0 C2.763 0.523 5.326 1.109 8 2 C10.059 2.223 12.122 2.407 14.188 2.562 C15.274 2.646 16.361 2.73 17.48 2.816 C17.896 2.847 17.896 2.847 20 3 C19.67 3.66 19.34 4.32 19 5 C14.003 5.184 9.44 5.293 4.625 3.812 C1 3 1 3 -1.5 4.375 C-1.995 4.911 -2.49 5.447 -3 6 C-2 4 -1 2 0 0 Z " fill="#DDA76C" transform="translate(40,127)"/>
<path d="M0 0 C0.33 0.99 0.66 1.98 1 3 C0.526 3.361 0.526 3.361 -1.875 5.188 C-4.742 7.546 -5.685 9.524 -7 13 C-9.055 14.145 -9.055 14.145 -11 15 C-8.239 5.211 -8.239 5.211 -4 2 C-1.75 0.75 -1.75 0.75 0 0 Z " fill="#F8DAB1" transform="translate(156,105)"/>
<path d="M0 0 C0.66 0.33 1.32 0.66 2 1 C1.67 1.495 1.67 1.495 0 4 C-0.419 6.698 -0.39 9.298 0 12 C1.5 13.875 1.5 13.875 3 15 C3 15.66 3 16.32 3 17 C4.98 17 6.96 17 9 17 C8.34 17.66 7.68 18.32 7 19 C-1.016 17.034 -1.016 17.034 -3 14 C-3 12.68 -3 11.36 -3 10 C-3.062 9.01 -3.124 8.02 -3.188 7 C-2.977 3.637 -2.247 2.434 0 0 Z " fill="#DBA673" transform="translate(34,90)"/>
<path d="M0 0 C1.189 0.009 2.377 0.018 3.602 0.027 C4.517 0.039 5.432 0.051 6.375 0.062 C6.375 0.392 6.375 0.722 6.375 1.062 C3.735 1.392 1.095 1.722 -1.625 2.062 C-1.625 2.722 -1.625 3.382 -1.625 4.062 C-0.635 4.062 0.355 4.062 1.375 4.062 C1.375 5.052 1.375 6.043 1.375 7.062 C-0.605 7.722 -2.585 8.382 -4.625 9.062 C-4.295 7.412 -3.965 5.763 -3.625 4.062 C-4.264 3.939 -4.904 3.815 -5.562 3.688 C-6.243 3.481 -6.924 3.275 -7.625 3.062 C-7.955 2.403 -8.285 1.743 -8.625 1.062 C-5.741 -0.38 -3.208 -0.031 0 0 Z " fill="#F8C683" transform="translate(67.625,109.9375)"/>
<path d="M0 0 C2.152 3.228 2.201 4.284 2 8 C1.67 8 1.34 8 1 8 C0.67 10.97 0.34 13.94 0 17 C-0.66 17 -1.32 17 -2 17 C-2 18.65 -2 20.3 -2 22 C-2.66 21.67 -3.32 21.34 -4 21 C-3.153 15.634 -2.08 10.322 -1 5 C-0.666 3.333 -0.333 1.667 0 0 Z " fill="#F7C188" transform="translate(107,46)"/>
<path d="M0 0 C0.66 1.98 1.32 3.96 2 6 C0.68 6 -0.64 6 -2 6 C-2.66 4.68 -3.32 3.36 -4 2 C-6.301 5.452 -6.138 6.235 -5.625 10.188 C-5.514 11.089 -5.403 11.99 -5.289 12.918 C-5.194 13.605 -5.098 14.292 -5 15 C-5.66 15 -6.32 15 -7 15 C-7.974 12.078 -8.196 9.99 -8.25 6.938 C-8.276 6.06 -8.302 5.182 -8.328 4.277 C-8.22 3.526 -8.112 2.774 -8 2 C-4.772 -0.152 -3.716 -0.201 0 0 Z " fill="#9F470D" transform="translate(38,89)"/>
<path d="M0 0 C0.33 0.66 0.66 1.32 1 2 C0.783 2.258 0.783 2.258 -0.312 3.562 C-2 6 -2 6 -3.438 9.5 C-4.934 12.852 -6.255 14.634 -9 17 C-9.33 16.01 -9.66 15.02 -10 14 C-8.75 11.688 -8.75 11.688 -7 9 C-5.985 7.008 -4.981 5.009 -4 3 C-3.34 3 -2.68 3 -2 3 C-1.34 2.01 -0.68 1.02 0 0 Z " fill="#F9902F" transform="translate(27,75)"/>
<path d="M0 0 C5.28 0.99 10.56 1.98 16 3 C16 3.33 16 3.66 16 4 C9.626 4.962 3.441 5.107 -3 5 C-2.01 3.35 -1.02 1.7 0 0 Z " fill="#DAC6B0" transform="translate(75,193)"/>
<path d="M0 0 C0.33 0 0.66 0 1 0 C1.049 0.846 1.098 1.691 1.148 2.562 C1.834 12.958 1.834 12.958 3.188 17.5 C4.061 21.261 3.863 22.689 2 26 C1.67 26 1.34 26 1 26 C0.951 25.287 0.902 24.574 0.852 23.84 C0.419 18.295 -0.24 13.279 -2 8 C-1.34 8 -0.68 8 0 8 C0 5.36 0 2.72 0 0 Z " fill="#D85403" transform="translate(112,148)"/>
<path d="M0 0 C2.092 4.431 2.092 4.431 1.625 7.312 C1.419 7.869 1.212 8.426 1 9 C-0.65 9 -2.3 9 -4 9 C-4 6.36 -4 3.72 -4 1 C-2 0 -2 0 0 0 Z " fill="#DB640E" transform="translate(44,155)"/>
<path d="M0 0 C1.033 3.098 1.02 5.575 0.961 8.809 C1 11.015 1.275 13.073 1.625 15.25 C1.983 18.827 2.028 20.137 0 23 C-0.66 23 -1.32 23 -2 23 C-2.33 21.35 -2.66 19.7 -3 18 C-2.34 18 -1.68 18 -1 18 C-1.012 16.784 -1.023 15.569 -1.035 14.316 C-1.045 12.732 -1.054 11.147 -1.062 9.562 C-1.067 9.161 -1.067 9.161 -1.088 7.131 C-1.097 5.087 -1.052 3.043 -1 1 C-0.67 0.67 -0.34 0.34 0 0 Z " fill="#EABE8F" transform="translate(151,112)"/>
<path d="M0 0 C0.66 0.99 1.32 1.98 2 3 C1.375 6.062 1.375 6.062 0 9 C-2.125 10.375 -2.125 10.375 -4 11 C-4.812 8.875 -4.812 8.875 -5 6 C-3.556 3.699 -1.891 1.984 0 0 Z " fill="#F7BF7B" transform="translate(103,70)"/>
<path d="M0 0 C2.326 3.634 2.163 6.771 2 11 C-0.31 11 -2.62 11 -5 11 C-4.732 10.484 -4.464 9.969 -4.188 9.438 C-2.677 6.336 -1.344 3.177 0 0 Z " fill="#B5987D" transform="translate(53,185)"/>
<path d="M0 0 C0.66 0.66 1.32 1.32 2 2 C2.536 2.474 3.072 2.949 3.625 3.438 C5 5 5 5 5 8 C3.907 7.794 2.814 7.588 1.688 7.375 C-2 7 -2 7 -5 9 C-4.67 7.35 -4.34 5.7 -4 4 C-3.01 3.67 -2.02 3.34 -1 3 C-0.67 2.01 -0.34 1.02 0 0 Z " fill="#FB9734" transform="translate(54,62)"/>
<path d="M0 0 C0.299 0.103 0.299 0.103 1.812 0.625 C0.823 0.955 -0.168 1.285 -1.188 1.625 C-1.188 2.615 -1.188 3.605 -1.188 4.625 C-2.507 4.625 -3.828 4.625 -5.188 4.625 C-5.188 5.285 -5.188 5.945 -5.188 6.625 C-4.528 6.955 -3.868 7.285 -3.188 7.625 C-4.177 7.955 -5.168 8.285 -6.188 8.625 C-7.177 7.965 -8.168 7.305 -9.188 6.625 C-3.654 -0.626 -3.654 -0.626 0 0 Z " fill="#F4C28A" transform="translate(106.1875,110.375)"/>
<path d="M0 0 C2.625 -0.188 2.625 -0.188 5 0 C5 0.66 5 1.32 5 2 C4.01 2.66 3.02 3.32 2 4 C1.312 6.625 1.312 6.625 1 9 C-0.32 8.67 -1.64 8.34 -3 8 C-2.453 4.625 -1.945 2.918 0 0 Z " fill="#48311C" transform="translate(85,185)"/>
<path d="M0 0 C3.3 0.33 6.6 0.66 10 1 C10.33 1.99 10.66 2.98 11 4 C10.01 4.33 9.02 4.66 8 5 C7.67 4.34 7.34 3.68 7 3 C5.35 3 3.7 3 2 3 C1.67 3.99 1.34 4.98 1 6 C0.01 5.67 -0.98 5.34 -2 5 C-1.34 3.35 -0.68 1.7 0 0 Z " fill="#F6CD97" transform="translate(39,136)"/>
<path d="M0 0 C3.3 0 6.6 0 10 0 C9.34 0.33 9.34 0.33 6 2 C6.99 3.65 7.98 5.3 9 7 C6.36 6.67 3.72 6.34 1 6 C1.206 5.381 1.412 4.762 1.625 4.125 C1.749 3.424 1.873 2.722 2 2 C1.34 1.34 0.68 0.68 0 0 Z " fill="#E6AA6C" transform="translate(67,129)"/>
<path d="M0 0 C1.32 0.66 2.64 1.32 4 2 C2.881 3.173 1.755 4.338 0.625 5.5 C-0.001 6.15 -0.628 6.799 -1.273 7.469 C-3 9 -3 9 -5 9 C-4.67 6.69 -4.34 4.38 -4 2 C-2.68 2 -1.36 2 0 2 C0 1.34 0 0.68 0 0 Z " fill="#FCDBA4" transform="translate(136,123)"/>
<path d="M0 0 C0.99 0.33 1.98 0.66 3 1 C4.477 1.092 5.958 1.13 7.438 1.125 C8.199 1.128 8.961 1.13 9.746 1.133 C11.953 1.003 13.88 0.609 16 0 C14.5 2 14.5 2 12 4 C6.85 4.422 2.08 3.847 -3 3 C-2.01 2.67 -1.02 2.34 0 2 C0 1.34 0 0.68 0 0 Z " fill="#A76945" transform="translate(47,119)"/>
<path d="M0 0 C0.99 0.33 1.98 0.66 3 1 C2.34 1 1.68 1 1 1 C0.918 1.763 0.835 2.526 0.75 3.312 C0 6 0 6 -1.812 7.812 C-4 9 -4 9 -8 9 C-8.33 7.02 -8.66 5.04 -9 3 C-8.67 3.165 -8.67 3.165 -7 4 C-7 4.99 -7 5.98 -7 7 C-6.01 6.34 -5.02 5.68 -4 5 C-3.01 4.67 -2.02 4.34 -1 4 C-0.312 1.938 -0.312 1.938 0 0 Z " fill="#C15719" transform="translate(109,184)"/>
<path d="M0 0 C1.087 0.195 2.173 0.389 3.293 0.59 C3.709 0.668 3.709 0.668 5.812 1.062 C5.812 1.722 5.812 2.382 5.812 3.062 C0.355 3.174 -4.803 2.979 -10.188 2.062 C-8.033 -2.246 -3.986 -0.729 0 0 Z " fill="#F8ECE1" transform="translate(139.1875,183.9375)"/>
<path d="M0 0 C0.33 0 0.66 0 1 0 C1.39 2.582 1.763 5.164 2.125 7.75 C2.237 8.48 2.349 9.209 2.465 9.961 C3.002 13.901 3.372 16.662 1 20 C-0.148 17.703 -0.116 16.417 -0.098 13.867 C-0.094 13.062 -0.091 12.256 -0.088 11.426 C-0.08 10.584 -0.071 9.742 -0.062 8.875 C-0.058 8.026 -0.053 7.176 -0.049 6.301 C-0.037 4.2 -0.019 2.1 0 0 Z " fill="#F37312" transform="translate(21,55)"/>
<path d="M0 0 C0.33 0 0.66 0 1 0 C1 3.96 1 7.92 1 12 C-0.65 11.67 -2.3 11.34 -4 11 C-4 11.66 -4 12.32 -4 13 C-4.99 12.67 -5.98 12.34 -7 12 C-6.34 11.67 -5.68 11.34 -5 11 C-4.67 10.01 -4.34 9.02 -4 8 C-1.938 7.312 -1.938 7.312 0 7 C0 4.69 0 2.38 0 0 Z " fill="#EFC18B" transform="translate(63,151)"/>
<path d="M0 0 C1.98 0 3.96 0 6 0 C6.33 3.96 6.66 7.92 7 12 C6.01 11.01 5.02 10.02 4 9 C4 8.01 4 7.02 4 6 C3.34 6 2.68 6 2 6 C2.33 4.35 2.66 2.7 3 1 C2.01 0.67 1.02 0.34 0 0 Z " fill="#E06A16" transform="translate(91,69)"/>
<path d="M0 0 C1.32 1.65 2.64 3.3 4 5 C3.34 5 2.68 5 2 5 C2.206 5.578 2.413 6.155 2.625 6.75 C3.087 9.52 2.429 10.646 1 13 C0.34 12.67 -0.32 12.34 -1 12 C-1.143 3.429 -1.143 3.429 0 0 Z " fill="#E57F35" transform="translate(30,56)"/>
<path d="M0 0 C0.33 0 0.66 0 1 0 C1.797 8.025 2.129 15.936 2 24 C1.67 24 1.34 24 1 24 C1 22.02 1 20.04 1 18 C0.34 18 -0.32 18 -1 18 C-0.835 15.03 -0.835 15.03 0 0 Z " fill="#EC8C49" transform="translate(153,131)"/>
<path d="M0 0 C2.152 3.228 2.201 4.284 2 8 C0.02 8.66 -1.96 9.32 -4 10 C-4.33 8.68 -4.66 7.36 -5 6 C-3.68 6 -2.36 6 -1 6 C-0.67 4.02 -0.34 2.04 0 0 Z " fill="#F6B876" transform="translate(37,55)"/>
<path d="M0 0 C0.99 0 1.98 0 3 0 C3.33 1.32 3.66 2.64 4 4 C3.093 4.433 2.185 4.866 1.25 5.312 C-1.432 6.705 -3.661 8.111 -6 10 C-4.634 6.015 -2.899 3.075 0 0 Z " fill="#F2BC79" transform="translate(95,51)"/>
<path d="M0 0 C1.32 0.33 2.64 0.66 4 1 C4 2.32 4 3.64 4 5 C3.01 5 2.02 5 1 5 C1 9.95 1 14.9 1 20 C0.67 20 0.34 20 0 20 C0 13.4 0 6.8 0 0 Z " fill="#E48635" transform="translate(64,149)"/>
<path d="M0 0 C6.625 -0.25 6.625 -0.25 10 2 C10 2.66 10 3.32 10 4 C3.496 4.368 3.496 4.368 1.062 2.562 C0 1 0 1 0 0 Z " fill="#604D3C" transform="translate(43,107)"/>
<path d="M0 0 C1.65 0.33 3.3 0.66 5 1 C5.33 2.65 5.66 4.3 6 6 C3.69 6 1.38 6 -1 6 C-0.67 4.02 -0.34 2.04 0 0 Z " fill="#C05608" transform="translate(85,177)"/>
<path d="M0 0 C0.66 0 1.32 0 2 0 C2 2.97 2 5.94 2 9 C1.01 9 0.02 9 -1 9 C-1.33 10.32 -1.66 11.64 -2 13 C-3.45 10.099 -2.454 8.44 -1.562 5.375 C-1.275 4.372 -0.988 3.369 -0.691 2.336 C-0.463 1.565 -0.235 0.794 0 0 Z " fill="#E2D0C0" transform="translate(57,171)"/>
<path d="M0 0 C4.019 -0.315 6.352 -0.38 9.875 1.688 C12.196 4.214 12.719 5.628 13 9 C10.975 7.067 9.579 5.368 8 3 C5.836 2.488 5.836 2.488 3.375 2.312 C2.558 2.247 1.74 2.181 0.898 2.113 C0.272 2.076 -0.355 2.039 -1 2 C-0.67 1.34 -0.34 0.68 0 0 Z " fill="#50311C" transform="translate(69,91)"/>
<path d="M0 0 C0.66 0 1.32 0 2 0 C1.67 4.29 1.34 8.58 1 13 C0.34 13 -0.32 13 -1 13 C-1.027 11.396 -1.046 9.792 -1.062 8.188 C-1.074 7.294 -1.086 6.401 -1.098 5.48 C-1 3 -1 3 0 0 Z " fill="#43311B" transform="translate(21,41)"/>
<path d="M0 0 C0.99 0.33 1.98 0.66 3 1 C2.67 1.66 2.34 2.32 2 3 C1.34 3 0.68 3 0 3 C-0.33 3.99 -0.66 4.98 -1 6 C-1.66 6 -2.32 6 -3 6 C-3.33 6.99 -3.66 7.98 -4 9 C-4.66 7.35 -5.32 5.7 -6 4 C-3.188 1.938 -3.188 1.938 0 0 Z " fill="#D0630B" transform="translate(41,46)"/>
<path d="M0 0 C-0.33 0.99 -0.66 1.98 -1 3 C-2.459 2.886 -3.917 2.758 -5.375 2.625 C-5.781 2.59 -5.781 2.59 -7.836 2.414 C-10 2 -10 2 -12 0 C-7.9 -3.075 -4.532 -1.36 0 0 Z " fill="#F48D37" transform="translate(75,57)"/>
<path d="M0 0 C0 0.66 0 1.32 0 2 C-1.622 2.389 -3.248 2.761 -4.875 3.125 C-5.78 3.334 -6.685 3.543 -7.617 3.758 C-8.404 3.838 -9.19 3.918 -10 4 C-10.66 3.34 -11.32 2.68 -12 2 C-7.879 0.002 -4.548 -0.178 0 0 Z " fill="#F3E2D1" transform="translate(140,190)"/>
<path d="M0 0 C2.526 2.363 3.888 3.665 5 7 C3.68 7 2.36 7 1 7 C0.67 8.98 0.34 10.96 0 13 C-1.067 9.8 -0.948 8.115 -0.562 4.812 C-0.461 3.911 -0.359 3.01 -0.254 2.082 C-0.17 1.395 -0.086 0.708 0 0 Z " fill="#E69251" transform="translate(29,49)"/>
<path d="M0 0 C3.674 0.306 4.781 0.758 7.312 3.562 C7.591 3.965 7.591 3.965 9 6 C8.67 6.66 8.34 7.32 8 8 C6.68 7.34 5.36 6.68 4 6 C4 5.34 4 4.68 4 4 C2.708 2.627 1.376 1.29 0 0 Z " fill="#E8701F" transform="translate(93,138)"/>
<path d="M0 0 C0.33 0.66 0.66 1.32 1 2 C1.66 2 2.32 2 3 2 C4.65 4.97 6.3 7.94 8 11 C6.35 10.67 4.7 10.34 3 10 C2.67 8.02 2.34 6.04 2 4 C1.01 3.67 0.02 3.34 -1 3 C-0.67 2.01 -0.34 1.02 0 0 Z " fill="#D85C16" transform="translate(87,127)"/>
<path d="M0 0 C0.144 1.114 0.289 2.228 0.438 3.375 C1 7 1 7 2 9 C0.68 8.67 -0.64 8.34 -2 8 C-2.66 5.69 -3.32 3.38 -4 1 C-2 0 -2 0 0 0 Z " fill="#FC8C22" transform="translate(121,120)"/>
<path d="M0 0 C2.398 2.398 2.343 3.333 2.625 6.625 C2.7 7.442 2.775 8.26 2.852 9.102 C2.876 9.415 2.876 9.415 3 11 C2.67 11.165 2.67 11.165 1 12 C1 9.36 1 6.72 1 4 C-0.65 4.66 -2.3 5.32 -4 6 C-2.25 1.125 -2.25 1.125 0 0 Z " fill="#FAD29B" transform="translate(120,116)"/>
<path d="M0 0 C0.99 0 1.98 0 3 0 C3.289 4.065 2.579 6.331 0.5 9.812 C0.036 10.603 -0.428 11.393 -0.906 12.207 C-1.087 12.503 -1.087 12.503 -2 14 C-2.99 13.67 -3.98 13.34 -5 13 C-5 12.34 -5 11.68 -5 11 C-4.01 11 -3.02 11 -2 11 C-1.711 10.093 -1.422 9.185 -1.125 8.25 C-0.235 5.678 0.715 3.387 2 1 C1.34 0.67 0.68 0.34 0 0 Z " fill="#EA740D" transform="translate(88,53)"/>
<path d="M0 0 C1.98 0.66 3.96 1.32 6 2 C6 2.99 6 3.98 6 5 C5.01 4.34 4.02 3.68 3 3 C2.67 4.98 2.34 6.96 2 9 C1.67 7.68 1.34 6.36 1 5 C0.34 5 -0.32 5 -1 5 C-0.67 3.35 -0.34 1.7 0 0 Z " fill="#583C24" transform="translate(22,36)"/>
<path d="M0 0 C0.495 0.103 0.495 0.103 3 0.625 C5.375 0.188 5.375 0.188 7 -0.375 C6.67 0.615 6.34 1.605 6 2.625 C1.71 2.625 -2.58 2.625 -7 2.625 C-3 -0.375 -3 -0.375 0 0 Z " fill="#CB5C1F" transform="translate(119,183.375)"/>
<path d="M0 0 C0.33 0.165 0.33 0.165 2 1 C2 3.31 2 5.62 2 8 C2.66 7.67 3.32 7.34 4 7 C4 8.98 4 10.96 4 13 C3.01 13 2.02 13 1 13 C-0.322 10.355 -0.097 8.322 -0.062 5.375 C-0.053 4.372 -0.044 3.369 -0.035 2.336 C-0.024 1.565 -0.012 0.794 0 0 Z " fill="#C2561E" transform="translate(59,170)"/>
<path d="M0 0 C0.66 0 1.32 0 2 0 C2.33 2.64 2.66 5.28 3 8 C2.01 8.33 1.02 8.66 0 9 C-0.845 5.622 -1.108 3.325 0 0 Z " fill="#46250A" transform="translate(52,174)"/>
<path d="M0 0 C0.66 0.33 1.32 0.66 2 1 C0.88 2.006 -0.246 3.005 -1.375 4 C-1.688 4.278 -1.688 4.278 -3.273 5.688 C-5 7 -5 7 -7 7 C-6.875 5.188 -6.875 5.188 -6 3 C-3.062 1.188 -3.062 1.188 0 0 Z " fill="#D45816" transform="translate(145,172)"/>
<path d="M0 0 C0.825 0.33 0.825 0.33 5 2 C5 2.99 5 3.98 5 5 C5.66 5 6.32 5 7 5 C6.67 5.99 6.34 6.98 6 8 C5.34 7.34 4.68 6.68 4 6 C1.875 5.375 1.875 5.375 0 5 C0 3.35 0 1.7 0 0 Z " fill="#944A0F" transform="translate(75,168)"/>
<path d="M0 0 C0.66 0 1.32 0 2 0 C2 0.66 2 1.32 2 2 C3.32 1.67 4.64 1.34 6 1 C6.33 2.32 6.66 3.64 7 5 C6.371 4.917 6.371 4.917 3.188 4.5 C0.735 4.178 -1.517 4 -4 4 C-3.67 3.01 -3.34 2.02 -3 1 C-2.34 1 -1.68 1 -1 1 C-0.67 0.67 -0.34 0.34 0 0 Z " fill="#BB5B12" transform="translate(69,163)"/>
<path d="M0 0 C3.719 0.507 6.735 1.116 10 3 C9.67 3.66 9.34 4.32 9 5 C8.01 5 7.02 5 6 5 C5.67 4.34 5.34 3.68 5 3 C3.35 3.33 1.7 3.66 0 4 C0 2.68 0 1.36 0 0 Z " fill="#F5CD9B" transform="translate(46,156)"/>
<path d="M0 0 C1.32 0 2.64 0 4 0 C2.667 3.333 1.333 6.667 0 10 C-0.33 10 -0.66 10 -1 10 C-1.027 8.521 -1.046 7.042 -1.062 5.562 C-1.074 4.739 -1.086 3.915 -1.098 3.066 C-1 1 -1 1 0 0 Z " fill="#EA8239" transform="translate(36,134)"/>
<path d="M0 0 C0 1.65 0 3.3 0 5 C-1.65 4.67 -3.3 4.34 -5 4 C-5.33 4.66 -5.66 5.32 -6 6 C-6 4.68 -6 3.36 -6 2 C-3 0 -3 0 0 0 Z " fill="#FC9126" transform="translate(130,122)"/>
<path d="M0 0 C0.66 0 1.32 0 2 0 C2.124 1.114 2.248 2.228 2.375 3.375 C3 7 3 7 5 9 C7.625 9.625 7.625 9.625 10 10 C9.34 10.33 9.34 10.33 6 12 C3.5 10.312 3.5 10.312 1 8 C0.688 5.25 0.688 5.25 1 3 C0.34 3 -0.32 3 -1 3 C-0.67 2.01 -0.34 1.02 0 0 Z " fill="#CDA06B" transform="translate(37,110)"/>
<path d="M0 0 C1.32 0 2.64 0 4 0 C3.67 1.32 3.34 2.64 3 4 C2.01 4 1.02 4 0 4 C0 4.99 0 5.98 0 7 C-0.66 7 -1.32 7 -2 7 C-2 6.34 -2 5.68 -2 5 C-2.66 5 -3.32 5 -4 5 C-4 4.34 -4 3.68 -4 3 C-2.68 3 -1.36 3 0 3 C0 2.01 0 1.02 0 0 Z " fill="#E48B48" transform="translate(105,112)"/>
<path d="M0 0 C0.949 0.041 1.897 0.082 2.875 0.125 C3.205 0.785 3.535 1.445 3.875 2.125 C-1.398 5.348 -1.398 5.348 -3.125 6.125 C-3.785 5.795 -4.445 5.465 -5.125 5.125 C-4.465 4.465 -3.805 3.805 -3.125 3.125 C-3.785 2.795 -4.445 2.465 -5.125 2.125 C-3.125 0.125 -3.125 0.125 0 0 Z " fill="#E5A76E" transform="translate(100.125,117.875)"/>
<path d="M0 0 C0.66 0.33 1.32 0.66 2 1 C1.67 1.99 1.34 2.98 1 4 C1.99 4.33 2.98 4.66 4 5 C3 6 3 6 -0.562 6.062 C-1.697 6.042 -2.831 6.021 -4 6 C-3.01 5.01 -2.02 4.02 -1 3 C-1.66 2.34 -2.32 1.68 -3 1 C-2.01 0.67 -1.02 0.34 0 0 Z " fill="#E0B89B" transform="translate(128,184)"/>
<path d="M0 0 C3 1 3 1 4 3 C0.912 4.765 -0.233 5 -4 5 C-3 2 -3 2 0 0 Z " fill="#EEC38F" transform="translate(87,122)"/>
<path d="M0 0 C0.825 0.165 0.825 0.165 5 1 C4.401 4.356 3.154 6.378 1 9 C0.332 5.909 0 3.168 0 0 Z " fill="#E1AB71" transform="translate(104,44)"/>
<path d="M0 0 C0.99 0.33 1.98 0.66 3 1 C1.607 4.367 0.021 5.986 -3 8 C-1.125 1.125 -1.125 1.125 0 0 Z " fill="#AE6932" transform="translate(80,180)"/>
<path d="M0 0 C0.33 0.99 0.66 1.98 1 3 C-0.758 3.977 -2.516 4.953 -4.273 5.93 C-6 7 -6 7 -8 9 C-7.434 5.718 -6.587 4.108 -4 2 C-1.812 0.812 -1.812 0.812 0 0 Z " fill="#F0D0A8" transform="translate(156,105)"/>
<path d="M0 0 C2.36 0.936 4.696 1.933 7 3 C6.34 4.32 5.68 5.64 5 7 C4.01 6.34 3.02 5.68 2 5 C2 4.01 2 3.02 2 2 C0.68 1.67 -0.64 1.34 -2 1 C-1.34 0.67 -0.68 0.34 0 0 Z " fill="#131210" transform="translate(70,92)"/>
<path d="M0 0 C3.375 0.547 5.082 1.055 8 3 C7.67 3.66 7.34 4.32 7 5 C4.36 4.34 1.72 3.68 -1 3 C-0.67 2.01 -0.34 1.02 0 0 Z " fill="#B1580E" transform="translate(71,78)"/>
<path d="M0 0 C3.403 1.059 6.014 2.009 9 4 C9 4.66 9 5.32 9 6 C5.088 4.844 2.125 3.645 -1 1 C-0.67 0.67 -0.34 0.34 0 0 Z " fill="#EAC193" transform="translate(31,122)"/>
<path d="M0 0 C4.554 -0.369 4.554 -0.369 6.812 1.5 C7.204 1.995 7.596 2.49 8 3 C7.34 4.32 6.68 5.64 6 7 C3 3.25 3 3.25 3 1 C2.01 0.67 1.02 0.34 0 0 Z " fill="#371B07" transform="translate(35,88)"/>
<path d="M0 0 C1 2 1 2 0.547 3.91 C0.284 4.62 0.021 5.331 -0.25 6.062 C-0.376 6.419 -0.376 6.419 -1.016 8.223 C-2 10 -2 10 -5 11 C-4.329 6.806 -2.144 3.597 0 0 Z " fill="#EA823B" transform="translate(22,81)"/>
<path d="M0 0 C0.33 0 0.66 0 1 0 C1.228 1.986 1.456 3.971 1.684 5.957 C2 8 2 8 3 11 C2.01 11.99 1.02 12.98 0 14 C0 9.38 0 4.76 0 0 Z " fill="#E69458" transform="translate(99,61)"/>
<path d="M0 0 C0.66 0 1.32 0 2 0 C1.502 3.735 1.125 5.812 -1 9 C-1.625 5.625 -1.625 5.625 -2 2 C-1.34 1.34 -0.68 0.68 0 0 Z " fill="#E79350" transform="translate(101,51)"/>
<path d="M0 0 C0.33 0 0.66 0 1 0 C1.33 2.64 1.66 5.28 2 8 C0.68 8.33 -0.64 8.66 -2 9 C-1.125 1.125 -1.125 1.125 0 0 Z " fill="#EE882A" transform="translate(41,147)"/>
<path d="M0 0 C0.33 1.98 0.66 3.96 1 6 C0.67 5.01 0.34 4.02 0 3 C-0.825 3.495 -0.825 3.495 -5 6 C-5 3 -5 3 -3.625 1.312 C-2 0 -2 0 0 0 Z " fill="#F98C22" transform="translate(141,125)"/>
<path d="M0 0 C0.993 0.13 0.993 0.13 5.957 0.781 C8 1 8 1 11 1 C10.67 1.99 10.34 2.98 10 4 C7.03 3.67 4.06 3.34 1 3 C0.67 2.01 0.34 1.02 0 0 Z " fill="#D68231" transform="translate(66,106)"/>
<path d="M0 0 C0.562 1.938 0.562 1.938 1 4 C0 5 0 5 -3.062 5.062 C-3.547 5.052 -3.547 5.052 -6 5 C-6 4.34 -6 3.68 -6 3 C-4.02 2.01 -2.04 1.02 0 0 Z " fill="#E9770D" transform="translate(43,102)"/>
<path d="M0 0 C0.99 0 1.98 0 3 0 C3.66 1.98 4.32 3.96 5 6 C3.68 6 2.36 6 1 6 C0.67 4.02 0.34 2.04 0 0 Z " fill="#78756F" transform="translate(35,89)"/>
<path d="M0 0 C1.32 0.33 1.32 0.33 8 2 C8 2.33 8 2.66 8 3 C4.7 3.33 1.4 3.66 -2 4 C-1.34 2.68 -0.68 1.36 0 0 Z " fill="#A28466" transform="translate(75,193)"/>
<path d="M0 0 C2.438 0.375 2.438 0.375 5 1 C5.33 1.66 5.66 2.32 6 3 C5.629 2.969 5.629 2.969 3.75 2.812 C0.546 3.031 -0.64 3.903 -3 6 C-2 4 -1 2 0 0 Z " fill="#DA8B51" transform="translate(40,127)"/>
<path d="M0 0 C0.99 0.33 1.98 0.66 3 1 C3 3.31 3 5.62 3 8 C2.01 8 1.02 8 0 8 C0 5.36 0 2.72 0 0 Z " fill="#FBF2E3" transform="translate(151,115)"/>
<path d="M0 0 C0.557 0.248 1.114 0.495 1.688 0.75 C-0.562 2.812 -0.562 2.812 -3.312 4.75 C-5.625 4.5 -5.625 4.5 -7.312 3.75 C-2.882 -0.312 -2.882 -0.312 0 0 Z " fill="#F2D0A4" transform="translate(131.3125,105.25)"/>
<path d="M0 0 C0.33 0.99 0.66 1.98 1 3 C-2.3 3 -5.6 3 -9 3 C-4.5 -0.375 -4.5 -0.375 0 0 Z " fill="#FC891E" transform="translate(94,103)"/>
<path d="M0 0 C0.66 0 1.32 0 2 0 C1.67 2.64 1.34 5.28 1 8 C0.34 8 -0.32 8 -1 8 C-1.125 2.25 -1.125 2.25 0 0 Z " fill="#15120C" transform="translate(34,92)"/>
<path d="M0 0 C0 0.99 0 1.98 0 3 C-0.763 2.979 -1.526 2.959 -2.312 2.938 C-5 3 -5 3 -8 4 C-7.67 3.01 -7.34 2.02 -7 1 C-4.537 -0.231 -2.72 -0.072 0 0 Z " fill="#AC580E" transform="translate(42,76)"/>
<path d="M0 0 C1.562 1.75 1.562 1.75 3 4 C2.688 6.25 2.688 6.25 2 8 C1.01 7.67 0.02 7.34 -1 7 C-0.67 4.69 -0.34 2.38 0 0 Z " fill="#FBB771" transform="translate(26,65)"/>
<path d="M0 0 C1.65 0 3.3 0 5 0 C5 0.99 5 1.98 5 3 C4.34 3 3.68 3 3 3 C3 3.66 3 4.32 3 5 C2.01 4.67 1.02 4.34 0 4 C0 2.68 0 1.36 0 0 Z " fill="#4E361F" transform="translate(105,39)"/>
<path d="M0 0 C0.66 0.33 1.32 0.66 2 1 C1.526 1.784 1.051 2.567 0.562 3.375 C-0.339 4.889 -1.212 6.424 -2 8 C-2.66 8 -3.32 8 -4 8 C-3.502 4.312 -2.899 2.395 0 0 Z " fill="#482C14" transform="translate(82,185)"/>
<path d="M0 0 C0.33 0 0.66 0 1 0 C1 2.64 1 5.28 1 8 C-0.32 8.33 -1.64 8.66 -3 9 C-3 8.34 -3 7.68 -3 7 C-2.34 7 -1.68 7 -1 7 C-0.67 4.69 -0.34 2.38 0 0 Z " fill="#E25D00" transform="translate(88,150)"/>
<path d="M0 0 C1.65 0 3.3 0 5 0 C5 0.66 5 1.32 5 2 C4.67 2.165 4.67 2.165 3 3 C2.375 6.062 2.375 6.062 2 9 C1.67 9 1.34 9 1 9 C0.67 6.03 0.34 3.06 0 0 Z " fill="#F18421" transform="translate(72,135)"/>
<path d="M0 0 C3.63 0.33 7.26 0.66 11 1 C6.846 3.077 6.165 3.315 2 2 C1.34 1.34 0.68 0.68 0 0 Z " fill="#EB9764" transform="translate(45,122)"/>
<path d="M0 0 C1.65 0 3.3 0 5 0 C5 0.99 5 1.98 5 3 C3.02 3.66 1.04 4.32 -1 5 C-0.67 3.35 -0.34 1.7 0 0 Z " fill="#C29267" transform="translate(64,114)"/>
<path d="M0 0 C1.938 0.312 1.938 0.312 4 1 C4.33 1.99 4.66 2.98 5 4 C5.66 4.33 6.32 4.66 7 5 C4.625 4.75 4.625 4.75 2 4 C0.688 1.938 0.688 1.938 0 0 Z " fill="#503314" transform="translate(33,100)"/>
<path d="M0 0 C1.65 0.33 3.3 0.66 5 1 C4.67 2.32 4.34 3.64 4 5 C3.175 4.67 3.175 4.67 -1 3 C-0.67 2.01 -0.34 1.02 0 0 Z " fill="#908579" transform="translate(67,93)"/>
<path d="M0 0 C1 3 1 3 1 7 C0.67 7.66 0.34 8.32 0 9 C-0.66 9 -1.32 9 -2 9 C-2.688 6.75 -2.688 6.75 -3 4 C-1.562 1.688 -1.562 1.688 0 0 Z " fill="#F2B36F" transform="translate(101,72)"/>
<path d="M0 0 C0.33 0.99 0.66 1.98 1 3 C-1.606 3.931 -2.642 4.149 -5.25 3.062 C-5.828 2.712 -6.405 2.361 -7 2 C-4.353 0.539 -3.106 0 0 0 Z " fill="#594532" transform="translate(105,39)"/>
<path d="M0 0 C1.461 2.647 2 3.894 2 7 C1.01 6.835 1.01 6.835 -4 6 C-4 5.34 -4 4.68 -4 4 C-3.01 3.67 -2.02 3.34 -1 3 C-0.67 2.01 -0.34 1.02 0 0 Z " fill="#DA9B59" transform="translate(62,165)"/>
</svg>
