<?xml version="1.0" encoding="UTF-8"?>
<!-- Generator: visioncortex VTracer 0.6.12 -->
<svg version="1.1" xmlns="http://www.w3.org/2000/svg" width="174" height="200">
<path d="M0 0 C57.42 0 114.84 0 174 0 C174 66 174 132 174 200 C116.58 200 59.16 200 0 200 C0 134 0 68 0 0 Z " fill="#FCF8F0" transform="translate(0,0)"/>
<path d="M0 0 C2.463 1.065 3.768 1.806 5.312 4 C5.312 5.32 5.312 6.64 5.312 8 C5.892 7.841 6.471 7.681 7.068 7.517 C18.164 4.96 29.423 6.614 39.312 12 C39.642 12.165 39.642 12.165 41.312 13 C41.911 12.051 42.509 11.102 43.125 10.125 C45.312 7 45.312 7 48.312 5 C52.33 4.389 53.812 4.633 57.125 7.062 C59.741 10.575 60.312 12.636 60.312 17 C58.948 19.923 57.585 21.728 55.312 24 C53.993 24 52.672 24 51.312 24 C51.642 24.825 51.642 24.825 53.312 29 C53.809 29.032 53.809 29.032 56.32 29.191 C71.095 30.409 83.247 35.653 93.312 47 C95.638 50.197 97.535 53.473 99.312 57 C99.702 57.741 100.091 58.482 100.492 59.246 C106.296 71.13 107.431 85.32 103.262 97.84 C102.444 100.168 101.613 102.491 100.777 104.812 C97.611 113.644 97.063 122.406 96.852 131.715 C96.312 135 96.312 135 94.871 137.414 C90.945 139.848 87.275 139.543 82.75 139.438 C82.318 139.441 82.318 139.441 80.135 139.459 C73.842 139.395 73.842 139.395 71.528 137.668 C70.312 136 70.312 136 70.562 132.875 C71.312 130 71.312 130 72.312 129 C72.025 126.661 71.693 124.326 71.312 122 C68.938 122.375 68.938 122.375 66.312 124 C65.486 126.588 65.058 129.097 64.672 131.785 C64.312 134 64.312 134 63.312 135 C61.646 135.041 59.979 135.043 58.312 135 C58.374 136.258 58.436 137.516 58.5 138.812 C58.5 142.723 58.5 142.723 57 144.938 C53.045 147.427 49 147.183 44.5 147.188 C43.801 147.2 43.101 147.212 42.381 147.225 C37.97 147.237 34.393 146.681 30.312 145 C29.983 144.67 29.653 144.34 29.312 144 C29.395 142.721 29.478 141.442 29.562 140.125 C29.609 137.945 29.609 137.945 29.312 136 C26.813 134 26.813 134 24.312 133 C24.477 131.68 24.477 131.68 25.312 125 C23.002 124.67 20.692 124.34 18.312 124 C18.275 124.964 18.238 125.928 18.199 126.922 C18.133 128.185 18.068 129.448 18 130.75 C17.971 131.376 17.971 131.376 17.824 134.547 C17.303 138.065 16.823 139.543 14.312 142 C10.311 143.334 6.627 143.223 2.438 143.25 C1.634 143.271 0.831 143.291 0.004 143.312 C-4.756 143.344 -7.769 143.014 -11.688 140 C-11.19 136.265 -10.813 134.188 -8.688 131 C-8.128 126.751 -8.43 122.836 -9.688 118.75 C-11.169 113.193 -10.842 107.718 -10.688 102 C-11.145 101.936 -11.145 101.936 -13.461 101.609 C-19.841 100.404 -24.014 97.369 -27.688 92 C-29.141 89.093 -28.984 87.26 -28.688 84 C-28.064 82.502 -27.393 81.024 -26.688 79.562 C-24.165 74.232 -24.03 70.26 -25.688 64.562 C-26.017 63.717 -26.348 62.871 -26.688 62 C-27.131 62.165 -27.131 62.165 -29.375 63 C-34.552 64.563 -34.552 64.563 -37.688 64 C-42.371 60.297 -44.219 56.813 -44.941 50.934 C-45.276 44.729 -43.421 40.458 -40.688 35 C-39.752 32.685 -38.821 30.368 -37.91 28.043 C-36.126 25.062 -34.736 23.755 -31.688 22 C-28.068 21.522 -24.517 21.623 -20.875 21.75 C-19.896 21.768 -18.917 21.786 -17.908 21.805 C-15.5 21.852 -13.094 21.917 -10.688 22 C-9.367 19.69 -8.047 17.38 -6.688 15 C-7.347 14.01 -8.008 13.02 -8.688 12 C-9.549 6.182 -9.549 6.182 -7.52 3.398 C-5.078 1.151 -3.349 0 0 0 Z " fill="#867873" transform="translate(49.6875,37)"/>
<path d="M0 0 C2.463 1.065 3.768 1.806 5.312 4 C5.312 5.32 5.312 6.64 5.312 8 C5.892 7.841 6.471 7.681 7.068 7.517 C18.164 4.96 29.423 6.614 39.312 12 C39.642 12.165 39.642 12.165 41.312 13 C41.911 12.051 42.509 11.102 43.125 10.125 C45.312 7 45.312 7 48.312 5 C52.33 4.389 53.812 4.633 57.125 7.062 C59.741 10.575 60.312 12.636 60.312 17 C58.948 19.923 57.585 21.728 55.312 24 C53.993 24 52.672 24 51.312 24 C51.601 24.763 51.89 25.526 52.188 26.312 C53.38 30.222 54.12 34.058 54.805 38.082 C55.132 39.96 55.489 41.834 55.883 43.699 C58.184 54.801 58.91 65.776 53.312 76 C46.84 85.442 38.17 90.825 27.062 93.375 C26.444 93.478 26.444 93.478 23.312 94 C23.312 93.01 23.312 92.02 23.312 91 C22.767 91.543 22.222 92.085 21.66 92.645 C20.906 93.36 20.152 94.075 19.375 94.812 C18.644 95.52 17.913 96.228 17.16 96.957 C10.465 101.76 3.301 102.505 -4.75 102.438 C-5.596 102.457 -6.443 102.477 -7.314 102.498 C-13.843 102.493 -19.45 101.146 -24.25 96.482 C-26.738 93.575 -28.535 91.254 -29 87.438 C-28.7 84.137 -28.097 82.481 -26.688 79.562 C-24.165 74.232 -24.03 70.26 -25.688 64.562 C-26.017 63.717 -26.348 62.871 -26.688 62 C-27.131 62.165 -27.131 62.165 -29.375 63 C-34.552 64.563 -34.552 64.563 -37.688 64 C-42.371 60.297 -44.219 56.813 -44.941 50.934 C-45.276 44.729 -43.421 40.458 -40.688 35 C-39.752 32.685 -38.821 30.368 -37.91 28.043 C-36.126 25.062 -34.736 23.755 -31.688 22 C-28.068 21.522 -24.517 21.623 -20.875 21.75 C-19.896 21.768 -18.917 21.786 -17.908 21.805 C-15.5 21.852 -13.094 21.917 -10.688 22 C-9.367 19.69 -8.047 17.38 -6.688 15 C-7.347 14.01 -8.008 13.02 -8.688 12 C-9.549 6.182 -9.549 6.182 -7.52 3.398 C-5.078 1.151 -3.349 0 0 0 Z " fill="#90807B" transform="translate(49.6875,37)"/>
<path d="M0 0 C4.802 4.802 5.181 14.852 5.312 21.438 C5.179 25.535 4.233 29.084 3 33 C2.969 33.65 2.969 33.65 2.812 36.938 C2.336 41.512 -0.127 43.773 -3.23 46.984 C-5.008 49.009 -6.025 50.806 -7.125 53.25 C-8.764 56.839 -10.605 58.856 -14 61 C-14.66 61 -15.32 61 -16 61 C-16.33 62.32 -16.66 63.64 -17 65 C-17.66 65 -18.32 65 -19 65 C-19.33 66.98 -19.66 68.96 -20 71 C-19.67 70.67 -19.34 70.34 -19 70 C-17.008 69.309 -15.008 68.641 -13 68 C-13 68.66 -13 69.32 -13 70 C-13.804 70.763 -14.609 71.526 -15.438 72.312 C-20.216 77.324 -19.31 84.501 -19.605 91.113 C-19.897 96.897 -19.897 96.897 -21 98 C-24.437 98.188 -24.437 98.188 -28 98 C-28.33 97.67 -28.33 97.67 -30 96 C-29.967 93.271 -29.436 90.703 -29 88 C-31.31 87.67 -33.62 87.34 -36 87 C-36.037 87.964 -36.075 88.928 -36.113 89.922 C-36.179 91.185 -36.245 92.448 -36.312 93.75 C-36.371 95.003 -36.429 96.256 -36.488 97.547 C-37.01 101.065 -37.489 102.543 -40 105 C-44.001 106.334 -47.685 106.223 -51.875 106.25 C-52.277 106.26 -52.277 106.26 -54.309 106.312 C-59.069 106.344 -62.081 106.014 -66 103 C-65.502 99.265 -65.125 97.188 -63 94 C-62.44 89.751 -62.743 85.836 -64 81.75 C-65.482 76.193 -65.155 70.718 -65 65 C-65.66 64.67 -66.32 64.34 -67 64 C-65.805 64.035 -64.61 64.07 -63.379 64.105 C-50.358 64.379 -42.453 63.943 -32.652 54.645 C-32.107 54.102 -31.562 53.559 -31 53 C-30.67 53.99 -30.34 54.98 -30 56 C-18.567 53.522 -8.594 49.075 -2 39 C3.527 28.504 2.887 17.653 0.438 6.34 C0 4 0 4 0 0 Z " fill="#876C5F" transform="translate(104,74)"/>
<path d="M0 0 C0.825 0.33 0.825 0.33 5 2 C4.42 2.634 3.84 3.268 3.242 3.922 C0.416 7.802 -1.131 11.804 -2.875 16.25 C-7.3 27.047 -11.159 35.481 -22 41 C-30.287 43.867 -40.246 42.722 -48 39 C-47.67 38.835 -47.67 38.835 -46 38 C-43.375 38.938 -43.375 38.938 -41 40 C-41 39.34 -41 38.68 -41 38 C-40.702 38.003 -40.702 38.003 -39.196 38.016 C-36.506 38.037 -33.815 38.05 -31.125 38.062 C-30.656 38.067 -30.656 38.067 -28.285 38.088 C-27.389 38.091 -26.493 38.094 -25.57 38.098 C-24.743 38.103 -23.915 38.108 -23.063 38.114 C-21 38 -21 38 -19 37 C-19 35.68 -19 34.36 -19 33 C-20.65 32.67 -22.3 32.34 -24 32 C-23.67 31.34 -23.34 30.68 -23 30 C-27.824 29.807 -31.496 30.243 -36 32 C-36 30.35 -36 28.7 -36 27 C-37.65 26.67 -39.3 26.34 -41 26 C-41 26.66 -41 27.32 -41 28 C-42.32 28.33 -43.64 28.66 -45 29 C-45.33 27.35 -45.66 25.7 -46 24 C-46.66 24 -47.32 24 -48 24 C-48.121 23.348 -48.242 22.695 -48.367 22.023 C-49.289 17.214 -50.302 12.61 -52 8 C-43.425 7.254 -37.537 8.918 -30 13 C-30 14.65 -30 16.3 -30 18 C-27.802 19.335 -26.474 20.028 -23.875 19.875 C-22 19 -22 19 -21.145 17.004 C-20 15 -20 15 -18.082 14.348 C-17.333 14.254 -16.584 14.159 -15.812 14.062 C-10.945 13.147 -7.457 11.609 -4 8 C-2.389 5.431 -1.124 2.814 0 0 Z " fill="#D05946" transform="translate(78,90)"/>
<path d="M0 0 C0.401 0.002 0.401 0.002 2.432 0.01 C2.848 0.014 2.848 0.014 4.957 0.035 C5.38 0.037 5.38 0.037 7.518 0.049 C9.602 0.061 11.686 0.079 13.77 0.098 C13.935 0.428 13.935 0.428 14.77 2.098 C16.41 2.827 18.083 3.484 19.77 4.098 C24.658 5.875 24.658 5.875 25.77 8.098 C24.78 8.098 23.79 8.098 22.77 8.098 C22.44 9.418 22.11 10.738 21.77 12.098 C21.357 11.438 20.945 10.778 20.52 10.098 C19.942 9.438 19.365 8.778 18.77 8.098 C17.45 8.098 16.13 8.098 14.77 8.098 C15.553 8.221 16.337 8.345 17.145 8.473 C19.77 10.098 19.77 10.098 20.547 12.457 C21.039 15 21.452 17.528 21.77 20.098 C21.048 19.603 20.326 19.108 19.582 18.598 C16.621 17.018 15.057 16.816 11.77 17.098 C11.77 17.428 11.77 17.758 11.77 18.098 C12.698 18.036 13.626 17.974 14.582 17.91 C17.77 18.098 17.77 18.098 19.453 19.324 C21.132 21.586 21.111 22.871 21.02 25.66 C21.004 26.445 20.989 27.23 20.973 28.039 C20.77 30.098 20.77 30.098 19.77 32.098 C20.48 32.147 21.19 32.196 21.922 32.246 C22.841 32.321 23.76 32.396 24.707 32.473 C25.624 32.542 26.54 32.612 27.484 32.684 C27.861 32.752 27.861 32.752 29.77 33.098 C30.1 33.758 30.43 34.418 30.77 35.098 C30.44 36.088 30.11 37.078 29.77 38.098 C28.78 38.098 27.79 38.098 26.77 38.098 C26.77 37.108 26.77 36.118 26.77 35.098 C23.902 35.671 22.908 35.959 20.77 38.098 C20.44 37.108 20.11 36.118 19.77 35.098 C17.707 34.41 17.707 34.41 15.77 34.098 C16.265 33.396 16.76 32.695 17.27 31.973 C18.984 28.687 19.176 26.753 18.77 23.098 C16.77 21.098 16.77 21.098 14.145 20.973 C13.361 21.014 12.577 21.055 11.77 21.098 C10.78 23.408 9.79 25.718 8.77 28.098 C8.44 28.098 8.11 28.098 7.77 28.098 C7.77 25.788 7.77 23.478 7.77 21.098 C7.44 22.253 7.44 22.253 5.77 28.098 C5.398 27.737 5.398 27.737 3.52 25.91 C-0.36 22.6 -4.855 21.164 -9.621 19.504 C-12.83 17.774 -13.102 16.456 -14.23 13.098 C-16.855 12.285 -16.855 12.285 -19.23 12.098 C-18.9 11.438 -18.57 10.778 -18.23 10.098 C-16.897 9.764 -15.564 9.431 -14.23 9.098 C-13.9 8.438 -13.57 7.778 -13.23 7.098 C-12.24 7.098 -11.25 7.098 -10.23 7.098 C-10.56 6.108 -10.89 5.118 -11.23 4.098 C-9.91 3.768 -8.59 3.438 -7.23 3.098 C-7.23 2.438 -7.23 1.778 -7.23 1.098 C-4.465 0.176 -2.848 -0.02 0 0 Z " fill="#948A89" transform="translate(63.23046875,43.90234375)"/>
<path d="M0 0 C0.969 0.846 1.939 1.691 2.938 2.562 C10.242 8.796 17.646 14.239 26 19 C25.886 21.251 25.758 23.5 25.625 25.75 C25.555 27.003 25.486 28.256 25.414 29.547 C24.809 34.596 24.809 34.596 23 37 C20.078 38.204 17.251 38.078 14.125 38 C11.088 37.951 8.685 38.065 5.688 38.688 C2.211 39.092 0.761 38.03 -2 36 C-1.502 32.265 -1.125 30.188 1 27 C1.75 21.309 0.616 16.453 -1 11 C-1.2 7.068 -1.029 3.778 0 0 Z " fill="#726057" transform="translate(40,141)"/>
<path d="M0 0 C0.33 0 0.66 0 1 0 C0.25 7.625 0.25 7.625 -2 11 C-2.134 11.759 -2.268 12.519 -2.406 13.301 C-3.161 16.73 -4.683 19.191 -6.5 22.188 C-7.129 23.233 -7.758 24.278 -8.406 25.355 C-8.932 26.228 -9.458 27.101 -10 28 C-10.33 28.66 -10.66 29.32 -11 30 C-9.68 30.33 -8.36 30.66 -7 31 C-6.625 33.25 -6.625 33.25 -7 36 C-10 38.312 -10 38.312 -13 40 C-10 42 -10 42 -8 43 C-8.66 44.32 -9.32 45.64 -10 47 C-8.02 47 -6.04 47 -4 47 C-4 47.33 -4 47.66 -4 48 C-6.771 48.081 -9.54 48.14 -12.312 48.188 C-12.705 48.2 -12.705 48.2 -14.693 48.264 C-15.451 48.273 -16.208 48.283 -16.988 48.293 C-17.685 48.309 -18.381 48.324 -19.099 48.341 C-21.611 47.891 -22.502 47.037 -24 45 C-23.565 39.565 -23.565 39.565 -22 38 C-22.287 35.661 -22.619 33.326 -23 31 C-25.375 31.375 -25.375 31.375 -28 33 C-28.827 35.588 -29.255 38.097 -29.641 40.785 C-30 43 -30 43 -31 44 C-32.666 44.041 -34.334 44.043 -36 44 C-35.938 45.258 -35.876 46.516 -35.812 47.812 C-35.812 51.723 -35.812 51.723 -37.312 53.938 C-41.18 56.373 -44.746 56.103 -49.188 56.062 C-50.46 56.053 -51.732 56.044 -53.043 56.035 C-53.531 56.029 -53.531 56.029 -56 56 C-55.381 55.732 -54.763 55.464 -54.125 55.188 C-52 54 -52 54 -50 51 C-50 51.99 -50 52.98 -50 54 C-48.562 53.885 -47.124 53.758 -45.688 53.625 C-45.287 53.59 -45.287 53.59 -43.262 53.414 C-41 53 -41 53 -38 51 C-37.594 48.68 -37.594 48.68 -37.5 45.875 C-37.178 40.674 -36.068 36.765 -34 32 C-34.66 32 -35.32 32 -36 32 C-35.34 30.35 -34.68 28.7 -34 27 C-33.67 27.99 -33.34 28.98 -33 30 C-31.277 25.537 -30.778 21.898 -30.875 17.125 C-30.893 15.973 -30.911 14.82 -30.93 13.633 C-30.953 12.764 -30.976 11.895 -31 11 C-30.01 11.99 -29.02 12.98 -28 14 C-27.34 10.7 -26.68 7.4 -26 4 C-25.67 4 -25.34 4 -25 4 C-23.961 14.33 -26.785 21.816 -31 31 C-20.862 28.778 -13.429 23.918 -7.418 15.398 C-4.51 10.481 -2.254 5.242 0 0 Z " fill="#604C41" transform="translate(144,128)"/>
<path d="M0 0 C4.802 4.802 5.181 14.852 5.312 21.438 C5.179 25.535 4.233 29.084 3 33 C2.969 33.65 2.969 33.65 2.812 36.938 C2.34 41.548 -0.186 43.9 -3.32 47.129 C-5 49 -5 49 -6.25 52.062 C-9.116 56.874 -14.028 59.565 -19 62 C-19.33 61.835 -19.33 61.835 -21 61 C-20.01 60.01 -19.02 59.02 -18 58 C-21.806 56.731 -23.208 57.538 -26.938 58.875 C-32.795 60.951 -32.795 60.951 -35.137 61.512 C-37.24 62.063 -38.944 62.942 -40.875 63.938 C-46.958 66.74 -53.401 67.287 -60 68 C-58.02 69.98 -56.04 71.96 -54 74 C-54 73.34 -54 72.68 -54 72 C-51 73 -51 73 -49.812 75.25 C-46.22 80.701 -40.166 83.304 -34 85 C-34.33 85.165 -34.33 85.165 -36 86 C-36.299 89.133 -36.416 92.221 -36.479 95.365 C-36.644 99.485 -36.964 102.093 -40 105 C-43.763 106.254 -47.272 106.107 -51.188 106.062 C-51.937 106.058 -52.687 106.053 -53.459 106.049 C-55.306 106.037 -57.153 106.019 -59 106 C-55.842 104.136 -53.643 103.799 -50 103.938 C-43.913 104.151 -43.913 104.151 -41 103 C-39.844 99.533 -39.672 96.459 -39.438 92.812 C-39.354 91.54 -39.27 90.268 -39.184 88.957 C-39.153 88.469 -39.153 88.469 -39 86 C-39.75 85.599 -40.5 85.198 -41.273 84.785 C-49.602 80.159 -56.286 74.714 -63 68 C-63.66 68.99 -64.32 69.98 -65 71 C-65 69.02 -65 67.04 -65 65 C-65.66 64.67 -66.32 64.34 -67 64 C-65.805 64.035 -64.61 64.07 -63.379 64.105 C-50.358 64.379 -42.453 63.943 -32.652 54.645 C-32.107 54.102 -31.562 53.559 -31 53 C-30.67 53.99 -30.34 54.98 -30 56 C-18.567 53.522 -8.594 49.075 -2 39 C3.527 28.504 2.887 17.653 0.438 6.34 C0 4 0 4 0 0 Z " fill="#635048" transform="translate(104,74)"/>
<path d="M0 0 C2.31 0.33 4.62 0.66 7 1 C6.897 2.258 6.794 3.516 6.688 4.812 C6.668 7.051 6.668 7.051 7 9 C7.825 9.495 8.65 9.99 9.5 10.5 C10.325 10.995 11.15 11.49 12 12 C12.475 14.788 12.234 17.149 12 20 C17.827 22.428 23.776 22.617 30 23 C30 23.33 30 23.66 30 24 C29.229 24.061 28.458 24.121 27.664 24.184 C27.163 24.225 27.163 24.225 24.625 24.438 C24.126 24.478 24.126 24.478 21.602 24.684 C19 25 19 25 17 26 C14.934 25.949 14.934 25.949 12.438 25.688 C12.035 25.648 12.035 25.648 9.996 25.449 C7.551 25.083 5.283 24.578 2.891 23.98 C-3.58 22.5 -10.127 22.643 -16.736 22.609 C-22.788 22.466 -26.346 21.98 -31 18 C-28 17 -28 17 -25 18 C-22.025 18.224 -19.045 18.185 -16.062 18.188 C-15.657 18.194 -15.657 18.194 -13.604 18.225 C-12.818 18.227 -12.032 18.228 -11.223 18.23 C-10.866 18.233 -10.866 18.233 -9.059 18.243 C-6.648 17.958 -5.06 17.272 -3 16 C-1.662 13.325 -1.701 10.98 -1.5 8 C-1.111 2.222 -1.111 2.222 0 0 Z " fill="#D0C0AE" transform="translate(68,161)"/>
<path d="M0 0 C1.65 0 3.3 0 5 0 C6 3 6 3 5 6 C5.825 5.505 6.65 5.01 7.5 4.5 C11.755 2.676 14.423 2.763 19 3 C18.67 3.66 18.34 4.32 18 5 C18.639 5.248 19.279 5.495 19.938 5.75 C22 7 22 7 22.75 9.125 C22.833 9.744 22.915 10.362 23 11 C19.227 13.516 17.123 13.236 12.625 13.188 C11.971 13.184 11.971 13.184 8.664 13.168 C5.634 13.029 2.938 12.709 0 12 C0 12.66 0 13.32 0 14 C-6.415 12.548 -6.415 12.548 -8.938 10.188 C-10.187 7.615 -10.235 5.826 -10 3 C-8.68 3 -7.36 3 -6 3 C-3.996 2.692 -1.995 2.363 0 2 C0 1.34 0 0.68 0 0 Z " fill="#F88A77" transform="translate(37,116)"/>
<path d="M0 0 C0.33 0 0.66 0 1 0 C0.25 7.625 0.25 7.625 -2 11 C-2.134 11.759 -2.268 12.519 -2.406 13.301 C-3.161 16.73 -4.683 19.191 -6.5 22.188 C-7.129 23.233 -7.758 24.278 -8.406 25.355 C-8.932 26.228 -9.458 27.101 -10 28 C-10.33 28.66 -10.66 29.32 -11 30 C-9.68 30.33 -8.36 30.66 -7 31 C-6.625 33.25 -6.625 33.25 -7 36 C-10 38.312 -10 38.312 -13 40 C-10 42 -10 42 -8 43 C-8.66 44.32 -9.32 45.64 -10 47 C-12.31 47 -14.62 47 -17 47 C-17 45.68 -17 44.36 -17 43 C-18.32 42.34 -19.64 41.68 -21 41 C-20.438 39.062 -20.438 39.062 -19 37 C-15.375 36.25 -15.375 36.25 -12 36 C-14.31 35.67 -16.62 35.34 -19 35 C-19.891 32.859 -19.891 32.859 -20 30 C-17.962 27.841 -16.043 26.094 -13.75 24.25 C-9.123 20.274 -5.807 17.337 -4.477 11.18 C-3.908 8.578 -2.92 6.356 -1.812 3.938 C-1.468 3.183 -1.124 2.429 -0.77 1.652 C-0.643 1.38 -0.643 1.38 0 0 Z " fill="#6B5A51" transform="translate(144,128)"/>
<path d="M0 0 C2.164 3.246 2.376 4.243 2 8 C1.67 8.495 1.67 8.495 0 11 C0.541 15.541 0.541 15.541 2 17 C4.526 17.237 7.031 17.422 9.562 17.562 C9.918 17.584 9.918 17.584 11.717 17.693 C13.478 17.8 15.239 17.9 17 18 C17 18.33 17 18.66 17 19 C13.7 19 10.4 19 7 19 C7 19.66 7 20.32 7 21 C6.094 21.037 5.188 21.075 4.254 21.113 C-3.045 21.507 -9.199 22.303 -16 25 C-15.67 24.505 -15.67 24.505 -14 22 C-13.586 19.957 -13.586 19.957 -13.375 17.812 C-13.251 16.554 -13.127 15.296 -13 14 C-11.35 13.67 -9.7 13.34 -8 13 C-7.925 12.313 -7.85 11.626 -7.773 10.918 C-7.37 8.155 -6.918 5.64 -6 3 C-2.875 0.875 -2.875 0.875 0 0 Z " fill="#C4B09C" transform="translate(121,158)"/>
<path d="M0 0 C8.575 -0.746 14.463 0.918 22 5 C22 6.32 22 7.64 22 9 C21.42 9.231 20.84 9.461 20.242 9.699 C15.045 11.869 11.138 14.18 7 18 C6.34 17.34 5.68 16.68 5 16 C4.67 16 4.34 16 4 16 C3.879 15.348 3.758 14.695 3.633 14.023 C2.711 9.214 1.698 4.61 0 0 Z " fill="#7D2212" transform="translate(26,98)"/>
<path d="M0 0 C2.531 1.095 3.746 1.729 5.312 4 C6 7.188 6 7.188 6.312 10 C5.322 10.66 4.332 11.32 3.312 12 C3.312 12.66 3.312 13.32 3.312 14 C2.322 14 1.332 14 0.312 14 C-0.017 14.99 -0.347 15.98 -0.688 17 C-1.678 17.33 -2.668 17.66 -3.688 18 C-2.697 18.33 -1.707 18.66 -0.688 19 C-0.688 19.33 -0.688 19.66 -0.688 20 C-2.998 20.33 -5.307 20.66 -7.688 21 C-7.481 20.072 -7.275 19.144 -7.062 18.188 C-6.688 15 -6.688 15 -8.688 12 C-9.549 6.182 -9.549 6.182 -7.52 3.398 C-5.078 1.151 -3.349 0 0 0 Z " fill="#87706A" transform="translate(49.6875,37)"/>
<path d="M0 0 C0.99 0.33 1.98 0.66 3 1 C1.856 4.873 0.767 8.003 -2 11 C-2.66 11 -3.32 11 -4 11 C-5.22 12.068 -6.402 13.18 -7.562 14.312 C-16.121 21.862 -25.079 21.388 -36 21 C-36 20.67 -36 20.34 -36 20 C-34.969 19.711 -33.938 19.423 -32.875 19.125 C-30.448 18.436 -28.08 17.688 -25.688 16.875 C-23 16 -23 16 -21 16 C-21 15.34 -21 14.68 -21 14 C-20.526 14.01 -20.526 14.01 -18.125 14.062 C-12.109 13.254 -8.1 8.086 -4 4 C-3.241 3.243 -2.481 2.487 -1.699 1.707 C-1.138 1.144 -0.578 0.58 0 0 Z " fill="#86736B" transform="translate(76,118)"/>
<path d="M0 0 C0.577 0.846 1.155 1.691 1.75 2.562 C3.867 4.74 4.838 4.992 7.934 5.145 C16.057 4.472 16.057 4.472 19 3 C27.474 1.954 33.592 3.988 41 8 C37.237 9.219 35.688 8.462 32.148 6.77 C27.942 5.263 23.431 5.232 19 5 C19.139 5.29 19.139 5.29 19.84 6.758 C21.92 11.245 23.185 15.108 24 20 C24.536 20.536 25.073 21.073 25.625 21.625 C26.079 22.079 26.532 22.532 27 23 C26.688 25.188 26.688 25.188 26 27 C24.35 26.67 22.7 26.34 21 26 C21.875 32.75 21.875 32.75 23 35 C21.062 34.438 21.062 34.438 19 33 C17.779 28.769 17.727 26.652 19.438 22.562 C19.953 21.717 20.469 20.871 21 20 C20.34 20.33 19.68 20.66 19 21 C18.951 20.42 18.902 19.84 18.852 19.242 C18.404 14.561 17.702 10.425 16 6 C15.113 6.33 14.226 6.66 13.312 7 C8.136 8.563 8.136 8.563 5 8 C2.188 5.688 2.188 5.688 0 3 C0 2.01 0 1.02 0 0 Z " fill="#79645C" transform="translate(7,93)"/>
<path d="M0 0 C0.33 1.32 0.66 2.64 1 4 C1.33 3.67 1.66 3.34 2 3 C3.992 2.309 5.992 1.641 8 1 C8 1.66 8 2.32 8 3 C7.196 3.763 6.391 4.526 5.562 5.312 C0.784 10.324 1.69 17.501 1.395 24.113 C1.103 29.897 1.103 29.897 0 31 C-3.438 31.188 -3.438 31.188 -7 31 C-7.66 30.34 -8.32 29.68 -9 29 C-8.967 26.271 -8.436 23.703 -8 21 C-9.32 20.67 -10.64 20.34 -12 20 C-7.749 18.583 -5.281 19.807 -1 21 C-1.312 19.583 -1.624 18.167 -1.938 16.75 C-2.112 15.961 -2.286 15.172 -2.465 14.359 C-2.948 12.231 -3.462 10.115 -4 8 C-3.34 8 -2.68 8 -2 8 C-1.928 7.526 -1.928 7.526 -1.562 5.125 C-1 2 -1 2 0 0 Z " fill="#634F45" transform="translate(83,141)"/>
<path d="M0 0 C0.33 0 0.66 0 1 0 C1.33 1.98 1.66 3.96 2 6 C4.64 6.33 7.28 6.66 10 7 C10.103 7.619 10.206 8.238 10.312 8.875 C11 11 11 11 14 13 C13.67 14.65 13.34 16.3 13 18 C11.107 18.251 9.21 18.475 7.312 18.688 C6.257 18.815 5.201 18.943 4.113 19.074 C0.531 18.989 -1.131 18.071 -4 16 C-3.502 12.265 -3.125 10.188 -1 7 C-0.606 4.676 -0.265 2.342 0 0 Z " fill="#8A7A73" transform="translate(42,161)"/>
<path d="M0 0 C1.65 0.66 3.3 1.32 5 2 C4.712 2.313 4.712 2.313 3.254 3.898 C0.355 7.888 -1.266 12.057 -3.062 16.625 C-3.734 18.328 -4.412 20.029 -5.098 21.727 C-5.392 22.475 -5.686 23.223 -5.989 23.995 C-7.057 26.113 -8.24 27.429 -10 29 C-11.284 24.506 -10.905 23.763 -9 19 C-12.63 19 -16.26 19 -20 19 C-20 17.68 -20 16.36 -20 15 C-19.432 14.914 -18.863 14.827 -18.277 14.738 C-12.602 13.705 -8.063 12.242 -4 8 C-2.389 5.431 -1.124 2.814 0 0 Z " fill="#8A2A19" transform="translate(78,90)"/>
<path d="M0 0 C3 1 3 1 3.914 2.637 C8.03 14.51 7.852 24.305 3 36 C0.984 38.895 0.984 38.895 -1 41 C-1.66 41 -2.32 41 -3 41 C-4.698 42.294 -6.367 43.625 -8 45 C-7.25 42.625 -7.25 42.625 -6 40 C-5.361 39.791 -4.721 39.582 -4.062 39.367 C-1.182 37.458 -0.95 35.185 -0.225 31.932 C-0.068 31.129 0.088 30.327 0.25 29.5 C0.418 28.682 0.587 27.864 0.76 27.021 C2.632 17.469 2.255 9.465 0 0 Z " fill="#827571" transform="translate(106,80)"/>
<path d="M0 0 C2.062 0.75 2.062 0.75 4 1 C4.289 0.845 4.289 0.845 5.75 0.062 C9.217 -1.575 12.184 -1.185 16 -1 C16.66 -0.67 17.32 -0.34 18 0 C17.835 1.052 17.67 2.104 17.5 3.188 C17 7 17 7 17.125 9.812 C17.084 10.534 17.043 11.256 17 12 C16.01 12.66 15.02 13.32 14 14 C13.375 11.688 13.375 11.688 13 9 C13.66 8.01 14.32 7.02 15 6 C12.855 6.165 12.855 6.165 2 7 C2 6.34 2 5.68 2 5 C1.536 5.021 1.536 5.021 -0.812 5.125 C-4 5 -4 5 -7 3 C-7 2.01 -7 1.02 -7 0 C-7.66 -0.33 -8.32 -0.66 -9 -1 C-5.336 -2.357 -3.484 -1.568 0 0 Z " fill="#BE4937" transform="translate(51,109)"/>
<path d="M0 0 C2.961 2.582 3.868 4.189 4.5 8.062 C4 11 4 11 2.688 13.375 C-1.611 15.974 -6.101 15.304 -11 15 C-10.67 14.34 -10.34 13.68 -10 13 C-7.686 12.269 -5.352 11.599 -3 11 C-2.67 9.35 -2.34 7.7 -2 6 C-4.25 6.125 -4.25 6.125 -7 7 C-8.397 8.956 -9.738 10.954 -11 13 C-11.66 13 -12.32 13 -13 13 C-13.75 10.875 -13.75 10.875 -14 8 C-10.479 1.586 -7.45 -0.915 0 0 Z " fill="#9E8881" transform="translate(57,64)"/>
<path d="M0 0 C5.28 0.66 10.56 1.32 16 2 C16 2.33 16 2.66 16 3 C14.515 3.165 14.515 3.165 7 4 C8.98 5.98 10.96 7.96 13 10 C13 9.34 13 8.68 13 8 C16 9 16 9 17.188 11.25 C20.78 16.701 26.834 19.304 33 21 C32.67 21.165 32.67 21.165 31 22 C30.701 25.133 30.584 28.221 30.521 31.365 C30.356 35.485 30.036 38.093 27 41 C23.237 42.254 19.728 42.107 15.812 42.062 C15.063 42.058 14.313 42.053 13.541 42.049 C11.694 42.037 9.847 42.019 8 42 C11.158 40.136 13.357 39.799 17 39.938 C23.087 40.151 23.087 40.151 26 39 C27.156 35.533 27.328 32.459 27.562 28.812 C27.646 27.54 27.73 26.268 27.816 24.957 C27.847 24.469 27.847 24.469 28 22 C27.25 21.599 26.5 21.198 25.727 20.785 C17.398 16.159 10.714 10.714 4 4 C3.67 4.495 3.67 4.495 2 7 C2 5.02 2 3.04 2 1 C1.34 0.67 0.68 0.34 0 0 Z " fill="#604D42" transform="translate(37,138)"/>
<path d="M0 0 C0.99 0.33 1.98 0.66 3 1 C-2.017 7.275 -6.67 11.651 -14 15 C-14.949 15.454 -15.897 15.907 -16.875 16.375 C-19 17 -19 17 -22 16 C-21.451 12.399 -21.204 10.81 -19 8 C-15.241 6.298 -11.538 5.176 -7.566 4.105 C-4.284 3.088 -2.661 2.018 0 0 Z " fill="#917466" transform="translate(134,143)"/>
<path d="M0 0 C0.33 0.66 0.66 1.32 1 2 C2.155 1.835 2.155 1.835 8 1 C8 1.66 8 2.32 8 3 C7.01 3 6.02 3 5 3 C5 3.66 5 4.32 5 5 C5.99 5.33 6.98 5.66 8 6 C7.67 6.99 7.34 7.98 7 9 C6.371 8.804 6.371 8.804 3.188 7.812 C0.98 7.246 0.98 7.246 -1 7 C-3 8.375 -3 8.375 -4 10 C-3.01 10.33 -2.02 10.66 -1 11 C-1 11.66 -1 12.32 -1 13 C-4.019 14.509 -6.673 14.175 -10 14 C-10.99 13.34 -11.98 12.68 -13 12 C-13 11.34 -13 10.68 -13 10 C-12.01 10 -11.02 10 -10 10 C-10.33 8.68 -10.66 7.36 -11 6 C-8 4 -8 4 -4.375 3 C-3.261 2.67 -2.148 2.34 -1 2 C-0.67 1.34 -0.34 0.68 0 0 Z " fill="#9F9895" transform="translate(41,56)"/>
<path d="M0 0 C0.799 0.133 1.598 0.266 2.422 0.402 C11.518 1.865 20.581 3.141 29.812 2.938 C33.823 2.879 37.187 3.704 41 5 C43.707 5.902 45.238 6.119 48.012 6.098 C48.769 6.094 49.526 6.091 50.307 6.088 C51.092 6.08 51.878 6.071 52.688 6.062 C53.086 6.06 53.086 6.06 55.104 6.049 C57.069 6.037 59.035 6.019 61 6 C61 6.33 61 6.66 61 7 C60.615 7.03 60.615 7.03 58.664 7.184 C57.661 7.267 56.658 7.351 55.625 7.438 C55.126 7.478 55.126 7.478 52.602 7.684 C50 8 50 8 48 9 C45.934 8.949 45.934 8.949 43.438 8.688 C43.035 8.648 43.035 8.648 40.996 8.449 C38.551 8.083 36.283 7.578 33.891 6.98 C27.42 5.5 20.873 5.643 14.264 5.609 C8.243 5.467 4.584 5.046 0 1 C0 0.67 0 0.34 0 0 Z " fill="#EDE1D1" transform="translate(37,178)"/>
<path d="M0 0 C0.33 0.99 0.66 1.98 1 3 C0.752 3.371 0.752 3.371 -0.5 5.25 C-2 8 -2 8 -2.125 11.562 C-0.946 15.164 -0.729 15.576 2.312 17.375 C7.314 19.87 12.227 20.244 17.75 20.562 C18.447 20.606 19.145 20.649 19.863 20.693 C21.575 20.799 23.288 20.9 25 21 C21.642 24.358 17.687 24.097 13.125 24.25 C8.365 24.221 5.196 23.189 1 21 C1.33 21.66 1.66 22.32 2 23 C-1.161 21.63 -1.993 21.011 -4 18 C-4.484 15.258 -4.484 15.258 -4.75 12.125 C-4.848 11.096 -4.946 10.068 -5.047 9.008 C-4.998 5.849 -4.356 3.827 -3 1 C-2.34 1.33 -1.68 1.66 -1 2 C-0.67 1.34 -0.34 0.68 0 0 Z " fill="#A1908A" transform="translate(28,111)"/>
<path d="M0 0 C2.562 0.312 2.562 0.312 4.375 1.438 C6.122 4.196 5.955 6.111 5.562 9.312 C4.375 11.688 4.375 11.688 2.562 13.312 C0.062 13.812 0.062 13.812 -2.438 13.312 C-4.312 11.75 -4.312 11.75 -5.438 9.312 C-4.989 0.64 -4.989 0.64 0 0 Z " fill="#211912" transform="translate(77.4375,63.6875)"/>
<path d="M0 0 C-3.17 3.17 -7.037 3.215 -11.359 3.938 C-11.876 4.024 -11.876 4.024 -14.492 4.461 C-15.567 4.639 -16.642 4.817 -17.75 5 C-18.28 5.089 -18.28 5.089 -20.961 5.539 C-23.972 6.04 -26.985 6.523 -30 7 C-30.818 7.138 -31.636 7.276 -32.479 7.418 C-34.308 7.699 -36.154 7.863 -38 8 C-38.66 7.34 -39.32 6.68 -40 6 C-39.301 5.795 -38.603 5.59 -37.883 5.379 C-36.973 5.109 -36.063 4.84 -35.125 4.562 C-34.22 4.296 -33.315 4.029 -32.383 3.754 C-30 3 -30 3 -28 2 C-25.626 1.929 -23.25 1.916 -20.875 1.938 C-19.594 1.947 -18.312 1.956 -16.992 1.965 C-16.005 1.976 -15.017 1.988 -14 2 C-14 1.34 -14 0.68 -14 0 C-12.418 -0.196 -10.834 -0.382 -9.25 -0.562 C-8.368 -0.667 -7.487 -0.771 -6.578 -0.879 C-4.116 -0.995 -2.335 -0.736 0 0 Z " fill="#EFE3D4" transform="translate(142,177)"/>
<path d="M0 0 C0.703 1.758 0.703 1.758 1 4 C-0.328 5.93 -0.328 5.93 -2.25 7.875 C-4.59 10.348 -5.949 11.875 -7.25 15.062 C-10.116 19.874 -15.028 22.565 -20 25 C-20.66 24.67 -21.32 24.34 -22 24 C-21.505 23.567 -21.01 23.134 -20.5 22.688 C-19 21 -19 21 -19 18 C-16.805 16.203 -16.805 16.203 -13.875 14.25 C-7.999 10.144 -3.949 5.923 0 0 Z " fill="#705E55" transform="translate(105,111)"/>
<path d="M0 0 C0.949 0.041 1.898 0.083 2.875 0.125 C3.205 1.445 3.535 2.765 3.875 4.125 C3.545 3.465 3.215 2.805 2.875 2.125 C1.885 2.125 0.895 2.125 -0.125 2.125 C-0.414 2.847 -0.703 3.569 -1 4.312 C-2.042 6.917 -3.083 9.521 -4.125 12.125 C2.5 11.375 2.5 11.375 5.875 9.125 C5.188 11.062 5.188 11.062 3.875 13.125 C1.25 13.875 1.25 13.875 -1.125 14.125 C-1.125 15.445 -1.125 16.765 -1.125 18.125 C-2.115 18.455 -3.105 18.785 -4.125 19.125 C-6.43 15.755 -8.356 12.842 -7.793 8.66 C-5.01 0.2 -5.01 0.2 0 0 Z " fill="#845E54" transform="translate(102.125,46.875)"/>
<path d="M0 0 C0.33 0 0.66 0 1 0 C1.037 0.759 1.075 1.519 1.113 2.301 C1.179 3.295 1.245 4.289 1.312 5.312 C1.371 6.299 1.429 7.285 1.488 8.301 C2.046 11.244 2.685 12.182 5 14 C5.66 13.67 6.32 13.34 7 13 C9.137 13.742 9.137 13.742 11.688 14.875 C15.884 16.641 19.478 17.607 24 18 C21.143 20.857 18.6 20.778 14.668 21.09 C9.678 20.922 5.967 18.923 2.43 15.465 C-1.268 11.165 -2.345 8.639 -2 3 C-1.34 2.01 -0.68 1.02 0 0 Z " fill="#88756C" transform="translate(23,118)"/>
<path d="M0 0 C2.191 1.623 2.92 2.468 3.328 5.191 C3.302 5.974 3.277 6.756 3.25 7.562 C3.235 8.348 3.219 9.133 3.203 9.941 C3 12 3 12 2 14 C2.71 14.049 3.421 14.098 4.152 14.148 C4.612 14.186 4.612 14.186 6.938 14.375 C7.854 14.445 8.771 14.514 9.715 14.586 C10.092 14.654 10.092 14.654 12 15 C12.33 15.66 12.66 16.32 13 17 C12.67 17.99 12.34 18.98 12 20 C11.01 20 10.02 20 9 20 C9 19.01 9 18.02 9 17 C6.133 17.573 5.139 17.861 3 20 C2.67 19.01 2.34 18.02 2 17 C-0.062 16.312 -0.062 16.312 -2 16 C-1.505 15.299 -1.01 14.597 -0.5 13.875 C1.214 10.589 1.406 8.655 1 5 C-1 3 -1 3 -3.625 2.875 C-4.409 2.916 -5.192 2.957 -6 3 C-6.99 5.31 -7.98 7.62 -9 10 C-9.33 10 -9.66 10 -10 10 C-9.401 3.655 -9.401 3.655 -7.812 1.062 C-5.089 -0.534 -3.09 -0.386 0 0 Z " fill="#AB9790" transform="translate(81,62)"/>
<path d="M0 0 C-0.188 1.812 -0.188 1.812 -1 4 C-3.562 5.75 -3.562 5.75 -6 7 C-3 9 -3 9 -1 10 C-1.66 11.32 -2.32 12.64 -3 14 C-5.31 14 -7.62 14 -10 14 C-10 12.68 -10 11.36 -10 10 C-11.32 9.34 -12.64 8.68 -14 8 C-13.438 6.062 -13.438 6.062 -12 4 C-8.375 3.25 -8.375 3.25 -5 3 C-5.66 2.67 -6.32 2.34 -7 2 C-7 1.34 -7 0.68 -7 0 C-2.25 -1.125 -2.25 -1.125 0 0 Z " fill="#726055" transform="translate(137,161)"/>
<path d="M0 0 C2.902 0.3 3.857 0.838 5.812 3.062 C7.513 7.27 7.084 9.591 6 14 C2.917 16.846 -0.999 16.154 -5 16 C-4.438 12.066 -3.504 9.13 -1 6 C1.688 5.688 1.688 5.688 4 6 C2.848 3.532 1.952 1.952 0 0 Z " fill="#9B807B" transform="translate(103,43)"/>
<path d="M0 0 C2.626 -0.081 5.249 -0.14 7.875 -0.188 C8.248 -0.2 8.248 -0.2 10.137 -0.264 C12.305 -0.293 12.305 -0.293 16 0 C16.66 0.99 17.32 1.98 18 3 C16.02 3 14.04 3 12 3 C11.876 3.619 11.752 4.237 11.625 4.875 C11 7 11 7 9 9 C5.987 8.611 4.603 7.735 2 6 C1.812 3.375 1.812 3.375 2 1 C1.34 0.67 0.68 0.34 0 0 Z " fill="#846457" transform="translate(46,102)"/>
<path d="M0 0 C1.32 0 2.64 0 4 0 C4 0.66 4 1.32 4 2 C2.172 3.473 2.172 3.473 -0.25 5.062 C-1.039 5.59 -1.828 6.117 -2.641 6.66 C-9.213 10.393 -18.526 10.115 -25.695 8.328 C-27.875 7.5 -27.875 7.5 -31 6 C-30.34 5.67 -29.68 5.34 -29 5 C-26.375 5.938 -26.375 5.938 -24 7 C-24 6.34 -24 5.68 -24 5 C-23.405 5.005 -22.809 5.01 -22.196 5.016 C-19.506 5.037 -16.815 5.05 -14.125 5.062 C-13.188 5.071 -12.251 5.079 -11.285 5.088 C-10.389 5.091 -9.493 5.094 -8.57 5.098 C-7.743 5.103 -6.915 5.108 -6.063 5.114 C-4 5 -4 5 -2 4 C-0.875 1.938 -0.875 1.938 0 0 Z " fill="#8A5043" transform="translate(61,123)"/>
<path d="M0 0 C0.73 0.129 1.459 0.258 2.211 0.391 C2.956 0.504 3.701 0.618 4.469 0.734 C6.303 1.017 8.132 1.326 9.961 1.641 C9.34 5.324 8.894 7.218 5.961 9.641 C5.961 8.981 5.961 8.321 5.961 7.641 C4.311 7.311 2.661 6.981 0.961 6.641 C1.291 5.981 1.621 5.321 1.961 4.641 C-2.863 4.448 -6.536 4.883 -11.039 6.641 C-9.004 0.535 -6.398 -0.931 0 0 Z " fill="#E87460" transform="translate(53.0390625,115.359375)"/>
<path d="M0 0 C0.33 1.32 0.66 2.64 1 4 C1.33 3.67 1.66 3.34 2 3 C3.992 2.309 5.992 1.641 8 1 C8 1.66 8 2.32 8 3 C7.196 3.763 6.391 4.526 5.562 5.312 C1.63 9.437 1.863 13.782 1.438 19.312 C1.396 19.847 1.396 19.847 1.184 22.551 C1.123 23.359 1.062 24.167 1 25 C-0.528 22.187 -1.424 19.632 -2.062 16.5 C-2.653 13.649 -3.276 10.82 -4 8 C-3.34 8 -2.68 8 -2 8 C-1.928 7.526 -1.928 7.526 -1.562 5.125 C-1 2 -1 2 0 0 Z " fill="#66554E" transform="translate(83,141)"/>
<path d="M0 0 C5.75 -0.125 5.75 -0.125 8 1 C9.677 0.721 11.346 0.392 13 0 C13.382 1.656 13.714 3.325 14 5 C12.197 6.803 9.505 6.464 7.062 6.688 C6.522 6.741 6.522 6.741 3.785 7.012 C1 7 1 7 -1 5 C-0.625 2.375 -0.625 2.375 0 0 Z " fill="#705748" transform="translate(42,173)"/>
<path d="M0 0 C2.31 0.33 4.62 0.66 7 1 C6.67 3.97 6.34 6.94 6 10 C5.216 10.083 4.433 10.165 3.625 10.25 C1 11 1 11 -0.164 13.047 C-0.44 13.691 -0.716 14.336 -1 15 C-1.027 12.875 -1.046 10.75 -1.062 8.625 C-1.074 7.442 -1.086 6.258 -1.098 5.039 C-1 2 -1 2 0 0 Z " fill="#F3EFEA" transform="translate(68,161)"/>
<path d="M0 0 C0.33 0 0.66 0 1 0 C1.74 7.364 0.933 13.324 -1.812 20.125 C-2.073 20.776 -2.334 21.427 -2.602 22.098 C-4.054 25.483 -4.862 26.908 -8 29 C-8.66 28.67 -9.32 28.34 -10 28 C-9.34 26.35 -8.68 24.7 -8 23 C-7.67 23.99 -7.34 24.98 -7 26 C-5.277 21.537 -4.778 17.898 -4.875 13.125 C-4.884 12.549 -4.884 12.549 -4.93 9.633 C-4.953 8.764 -4.976 7.895 -5 7 C-4.01 7.99 -3.02 8.98 -2 10 C-1.34 6.7 -0.68 3.4 0 0 Z " fill="#6F5C54" transform="translate(118,132)"/>
<path d="M0 0 C0.825 0.33 0.825 0.33 5 2 C4.711 2.309 4.711 2.309 3.25 3.875 C0.308 7.962 -1.282 12.294 -3 17 C-3.33 17 -3.66 17 -4 17 C-4.33 15.35 -4.66 13.7 -5 12 C-5.743 12.516 -6.485 13.031 -7.25 13.562 C-10 15 -10 15 -12.172 14.59 C-12.775 14.395 -13.378 14.201 -14 14 C-13.397 13.709 -12.793 13.417 -12.172 13.117 C-5.68 9.787 -2.36 7.081 0 0 Z " fill="#722C1C" transform="translate(78,90)"/>
<path d="M0 0 C4.993 1.277 7.576 3.173 11 7 C11.99 4.69 12.98 2.38 14 0 C15.032 3.095 14.975 4.526 14.562 7.688 C14.461 8.496 14.359 9.304 14.254 10.137 C14.17 10.752 14.086 11.366 14 12 C12.854 11.021 11.708 10.042 10.562 9.062 C9.924 8.517 9.286 7.972 8.629 7.41 C7.73 6.632 6.841 5.841 6 5 C5.89 5.626 5.781 6.253 5.668 6.898 C5.509 7.716 5.351 8.533 5.188 9.375 C5.037 10.187 4.886 10.999 4.73 11.836 C4 14 4 14 1 16 C0.01 15.67 -0.98 15.34 -2 15 C-1.175 14.464 -0.35 13.927 0.5 13.375 C3 11 3 11 3.5 8.062 C2.957 4.734 1.932 2.737 0 0 Z " fill="#6F625E" transform="translate(57,64)"/>
<path d="M0 0 C3 0.688 3 0.688 5.375 3.312 C7.065 6.823 7.365 8.855 7 12.688 C6.67 12.688 6.34 12.688 6 12.688 C5.34 10.707 4.68 8.727 4 6.688 C0.053 6.508 -2.598 6.594 -6 8.688 C-6 9.347 -6 10.008 -6 10.688 C-6.66 10.688 -7.32 10.688 -8 10.688 C-7.384 5.299 -5.569 1.276 0 0 Z " fill="#9D8E89" transform="translate(101,41.3125)"/>
<path d="M0 0 C0.99 0.33 1.98 0.66 3 1 C2.678 1.709 2.355 2.418 2.023 3.148 C0.661 6.945 0.66 10.474 0.539 14.477 C0 17 0 17 -1.852 18.836 C-4 20 -4 20 -7 20 C-6.67 19.01 -6.34 18.02 -6 17 C-5.34 16.67 -4.68 16.34 -4 16 C-3.691 13.926 -3.691 13.926 -3.562 11.312 C-3.223 6.925 -2.311 3.817 0 0 Z " fill="#827066" transform="translate(107,162)"/>
<path d="M0 0 C0.33 0 0.66 0 1 0 C1.551 6.331 -0.062 11.379 -3 17 C-4.512 18.797 -4.512 18.797 -6 20 C-6.66 20 -7.32 20 -8 20 C-9.698 21.294 -11.367 22.625 -13 24 C-12.25 21.625 -12.25 21.625 -11 19 C-10.35 18.763 -9.701 18.526 -9.031 18.281 C-7 17 -7 17 -5.953 13.742 C-5.721 12.466 -5.489 11.19 -5.25 9.875 C-5.008 8.594 -4.765 7.312 -4.516 5.992 C-4.345 5.005 -4.175 4.017 -4 3 C-3.67 3 -3.34 3 -3 3 C-3.33 5.97 -3.66 8.94 -4 12 C-3.34 12 -2.68 12 -2 12 C-1.34 8.04 -0.68 4.08 0 0 Z " fill="#7C6D68" transform="translate(111,101)"/>
<path d="M0 0 C0.99 0.33 1.98 0.66 3 1 C1.856 4.873 0.767 8.003 -2 11 C-2.66 11 -3.32 11 -4 11 C-5.508 12.094 -5.508 12.094 -7.125 13.5 C-8.074 14.325 -9.022 15.15 -10 16 C-10 12.281 -9.171 11.768 -6.688 9.125 C-4.052 6.234 -1.846 3.476 0 0 Z " fill="#7A675D" transform="translate(76,118)"/>
<path d="M0 0 C0.443 0.007 0.443 0.007 2.688 0.043 C3.131 0.046 3.131 0.046 5.375 0.062 C7.688 0.23 7.688 0.23 9.688 1.23 C9.358 2.88 9.028 4.53 8.688 6.23 C8.187 6.077 7.687 5.924 7.172 5.766 C3.784 5.036 0.388 4.867 -3.062 4.668 C-3.76 4.625 -4.457 4.582 -5.176 4.537 C-6.888 4.432 -8.6 4.331 -10.312 4.23 C-9.983 3.57 -9.653 2.91 -9.312 2.23 C-8.529 2.272 -7.745 2.313 -6.938 2.355 C-3.579 2.196 -3.242 0.323 0 0 Z " fill="#AD4132" transform="translate(59.3125,107.76953125)"/>
<path d="M0 0 C5.757 5.437 9.165 10.355 11 18 C10.021 19.021 9.02 20.021 8 21 C7.67 21 7.34 21 7 21 C6.867 20.537 6.867 20.537 6.195 18.191 C5.842 16.994 5.489 15.796 5.125 14.562 C4.777 13.368 4.429 12.173 4.07 10.941 C3 8 3 8 1 7 C0.593 4.678 0.256 2.343 0 0 Z " fill="#8F8381" transform="translate(105,73)"/>
<path d="M0 0 C0.99 0 1.98 0 3 0 C3.33 1.65 3.66 3.3 4 5 C5.32 5 6.64 5 8 5 C8.33 4.01 8.66 3.02 9 2 C9.33 3.32 9.66 4.64 10 6 C9.01 6.66 8.02 7.32 7 8 C7 8.66 7 9.32 7 10 C4.69 10 2.38 10 0 10 C0.33 8.68 0.66 7.36 1 6 C0.01 5.67 -0.98 5.34 -2 5 C-1.125 1.125 -1.125 1.125 0 0 Z " fill="#695652" transform="translate(46,41)"/>
<path d="M0 0 C2.184 3.276 2.543 4.201 2 8 C0 10.812 0 10.812 -2 13 C-2 12.01 -2 11.02 -2 10 C-2.99 10 -3.98 10 -5 10 C-5 7.36 -5 4.72 -5 2 C-3.35 1.34 -1.7 0.68 0 0 Z " fill="#F3F0EA" transform="translate(121,158)"/>
<path d="M0 0 C2.375 0.625 2.375 0.625 5 2 C6.188 4.875 6.188 4.875 7 8 C7.638 9.347 8.293 10.687 9 12 C2.585 10.548 2.585 10.548 0.062 8.188 C-1.199 5.59 -1.309 3.854 -1 1 C-0.67 0.67 -0.34 0.34 0 0 Z " fill="#C65A40" transform="translate(28,118)"/>
<path d="M0 0 C1.875 1.25 1.875 1.25 3 3 C2.688 5.688 2.688 5.688 2 8 C0.68 8 -0.64 8 -2 8 C-2.33 6.35 -2.66 4.7 -3 3 C-4.98 3.99 -6.96 4.98 -9 6 C-8.398 3.98 -7.727 1.979 -7 0 C-4.266 -1.367 -2.893 -0.847 0 0 Z " fill="#8D827D" transform="translate(52,38)"/>
<path d="M0 0 C0.33 0.66 0.66 1.32 1 2 C-0.114 2.103 -1.227 2.206 -2.375 2.312 C-3.571 2.539 -4.767 2.766 -6 3 C-7.785 5.678 -8.855 8.022 -10 11 C-10.33 11.66 -10.66 12.32 -11 13 C-11.66 13 -12.32 13 -13 13 C-13.75 10.875 -13.75 10.875 -14 8 C-10.313 1.284 -7.569 -0.286 0 0 Z " fill="#A49590" transform="translate(57,64)"/>
<path d="M0 0 C0.66 1.65 1.32 3.3 2 5 C0.812 6.562 0.812 6.562 -1 8 C-4.342 7.755 -5.605 7.395 -8 5 C-8 4.01 -8 3.02 -8 2 C-2.25 0 -2.25 0 0 0 Z " fill="#DEC5AA" transform="translate(23,99)"/>
<path d="M0 0 C0.66 0.33 1.32 0.66 2 1 C1.67 2.32 1.34 3.64 1 5 C1.66 4.67 2.32 4.34 3 4 C5.718 3.928 8.409 3.907 11.125 3.938 C11.879 3.942 12.633 3.947 13.41 3.951 C15.273 3.963 17.137 3.981 19 4 C19 4.66 19 5.32 19 6 C18.547 6.019 18.547 6.019 16.254 6.113 C8.955 6.507 2.801 7.303 -4 10 C-3.526 9.278 -3.051 8.556 -2.562 7.812 C-1.058 5.105 -0.434 3.038 0 0 Z " fill="#DECEBC" transform="translate(109,173)"/>
<path d="M0 0 C0.33 0 0.66 0 1 0 C0.67 2.31 0.34 4.62 0 7 C-4.074 9.037 -6.589 9.026 -11 8 C-10.494 5.831 -10 4 -9 2 C-8.526 2.165 -8.526 2.165 -6.125 3 C-3 4 -3 4 -1 4 C-0.67 2.68 -0.34 1.36 0 0 Z " fill="#766258" transform="translate(145,167)"/>
<path d="M0 0 C0.289 0.113 0.289 0.113 1.75 0.688 C1.438 3.062 1.438 3.062 0.75 5.688 C-2.478 7.839 -3.534 7.888 -7.25 7.688 C-6.918 4.612 -6.619 3.069 -4.438 0.812 C-2.25 -0.312 -2.25 -0.312 0 0 Z " fill="#663E34" transform="translate(54.25,69.3125)"/>
<path d="M0 0 C1.938 0.812 1.938 0.812 4 2 C5 5 5 5 4 8 C2.35 7.67 0.7 7.34 -1 7 C-0.125 13.75 -0.125 13.75 1 16 C-0.938 15.438 -0.938 15.438 -3 14 C-4.046 10.666 -4.535 8.284 -3.16 4.984 C-2.185 3.276 -1.099 1.632 0 0 Z " fill="#8B4E3C" transform="translate(29,112)"/>
<path d="M0 0 C3.398 3.398 2.911 8.279 3.438 12.91 C3.53 13.42 3.53 13.42 4 16 C4.66 16.33 5.32 16.66 6 17 C5.34 17 4.68 17 4 17 C4 17.66 4 18.32 4 19 C5.98 19.33 7.96 19.66 10 20 C10 20.33 10 20.66 10 21 C8.02 21 6.04 21 4 21 C3.734 20.325 3.469 19.649 3.195 18.953 C2.842 18.061 2.489 17.169 2.125 16.25 C1.777 15.368 1.429 14.487 1.07 13.578 C0 11 0 11 -1.152 8.801 C-2.259 6.45 -1.853 5.405 -1 3 C-0.67 2.01 -0.34 1.02 0 0 Z " fill="#8D7F77" transform="translate(41,145)"/>
<path d="M0 0 C0 0.66 0 1.32 0 2 C1.32 2.66 2.64 3.32 4 4 C-0.025 5.342 -3.806 5.271 -8 5 C-8.66 4.01 -9.32 3.02 -10 2 C-6.598 -0.094 -3.947 -0.179 0 0 Z " fill="#A29998" transform="translate(67,48)"/>
<path d="M0 0 C-0.33 0.165 -0.33 0.165 -2 1 C-2 1.66 -2 2.32 -2 3 C-5.867 4.266 -9.732 4.112 -13.75 4.062 C-14.447 4.058 -15.145 4.053 -15.863 4.049 C-17.576 4.037 -19.288 4.019 -21 4 C-21 3.67 -21 3.34 -21 3 C-14.106 0.8 -7.255 -0.234 0 0 Z " fill="#806C63" transform="translate(61,135)"/>
<path d="M0 0 C0.33 0 0.66 0 1 0 C1.367 7.459 1.367 7.459 -0.312 9.938 C-4.18 12.373 -7.746 12.103 -12.188 12.062 C-13.46 12.053 -14.732 12.044 -16.043 12.035 C-16.531 12.029 -16.531 12.029 -19 12 C-18.381 11.732 -17.763 11.464 -17.125 11.188 C-15 10 -15 10 -13 7 C-13 7.99 -13 8.98 -13 10 C-11.562 9.885 -10.124 9.758 -8.688 9.625 C-7.887 9.555 -7.086 9.486 -6.262 9.414 C-4 9 -4 9 -1 7 C-0.312 3.375 -0.312 3.375 0 0 Z " fill="#6A5548" transform="translate(107,172)"/>
<path d="M0 0 C0.33 0 0.66 0 1 0 C1.014 0.736 1.028 1.472 1.043 2.23 C1.438 10.311 1.438 10.311 4.5 14.062 C5.325 14.702 6.15 15.341 7 16 C7.33 16.66 7.66 17.32 8 18 C3.573 16.647 1.637 14.767 -1 11 C-2.386 8.229 -2.188 6.067 -2 3 C-1.34 2.01 -0.68 1.02 0 0 Z " fill="#81756D" transform="translate(23,118)"/>
<path d="M0 0 C3.775 1.091 6.47 1.908 9 5 C8.01 5.99 7.02 6.98 6 8 C5.67 7.01 5.34 6.02 5 5 C3.35 4.67 1.7 4.34 0 4 C0 4.66 0 5.32 0 6 C-1.32 6.33 -2.64 6.66 -4 7 C-2.926 4.085 -2.222 2.222 0 0 Z " fill="#DA6350" transform="translate(37,112)"/>
<path d="M0 0 C0.66 0.33 1.32 0.66 2 1 C-0.25 3.5 -0.25 3.5 -3 6 C-4.32 6 -5.64 6 -7 6 C-7 6.66 -7 7.32 -7 8 C-12.244 9.748 -16.473 10.194 -22 10 C-22 9.67 -22 9.34 -22 9 C-21.218 8.879 -20.435 8.758 -19.629 8.633 C-19.123 8.549 -19.123 8.549 -16.562 8.125 C-15.553 7.963 -14.544 7.8 -13.504 7.633 C-12.678 7.424 -11.851 7.215 -11 7 C-10.67 6.34 -10.34 5.68 -10 5 C-8.223 4.219 -8.223 4.219 -6.062 3.5 C-3.295 2.576 -2.109 2.109 0 0 Z " fill="#93817A" transform="translate(62,126)"/>
<path d="M0 0 C0.998 0.023 1.995 0.046 3.023 0.07 C3.525 0.079 3.525 0.079 6.062 0.125 C6.833 0.148 7.604 0.171 8.398 0.195 C8.213 0.814 8.027 1.433 7.836 2.07 C7.398 4.195 7.398 4.195 8.398 6.195 C8.068 6.69 8.068 6.69 6.398 9.195 C5.408 8.865 4.418 8.535 3.398 8.195 C4.058 6.215 4.718 4.235 5.398 2.195 C2.098 2.195 -1.202 2.195 -4.602 2.195 C-2.602 0.195 -2.602 0.195 0 0 Z " fill="#D45B48" transform="translate(57.6015625,114.8046875)"/>
<path d="M0 0 C0.99 0 1.98 0 3 0 C3.364 5.455 3.364 5.455 1.75 7.875 C0 9 0 9 -4 9 C-3.354 5.514 -2.076 2.875 0 0 Z " fill="#D77A62" transform="translate(102,49)"/>
<path d="M0 0 C0.289 0.619 0.578 1.238 0.875 1.875 C2 4 2 4 4 6 C6.625 6.625 6.625 6.625 9 7 C9 7.33 9 7.66 9 8 C6.188 8.625 6.188 8.625 3 9 C2.01 8.34 1.02 7.68 0 7 C-2.577 6.544 -5.093 6.171 -7.688 5.875 C-8.389 5.789 -9.091 5.702 -9.814 5.613 C-11.542 5.402 -13.271 5.2 -15 5 C-15 4.67 -15 4.34 -15 4 C-13.25 3.973 -11.5 3.954 -9.75 3.938 C-9.263 3.932 -9.263 3.932 -6.797 3.902 C-4.342 3.988 -2.338 4.293 0 5 C0 3.35 0 1.7 0 0 Z " fill="#DFCFBB" transform="translate(77,176)"/>
<path d="M0 0 C1.675 0.286 3.344 0.618 5 1 C5.33 2.32 5.66 3.64 6 5 C3 7 3 7 -1 7 C-1.043 5 -1.041 3 -1 1 C-0.67 0.67 -0.34 0.34 0 0 Z " fill="#F7DEBF" transform="translate(54,122)"/>
<path d="M0 0 C1.875 1 1.875 1 3 3 C3.241 5.719 3.135 8.259 3 11 C2.67 11 2.34 11 2 11 C1.691 9.866 1.381 8.731 1.062 7.562 C0 4 0 4 -1 3 C-2.666 2.959 -4.334 2.957 -6 3 C-6.99 5.31 -7.98 7.62 -9 10 C-9.33 10 -9.66 10 -10 10 C-9.401 3.655 -9.401 3.655 -7.812 1.062 C-5.089 -0.534 -3.09 -0.386 0 0 Z " fill="#E5E3E2" transform="translate(81,62)"/>
<path d="M0 0 C0 0.99 0 1.98 0 3 C-0.66 3.66 -1.32 4.32 -2 5 C-3.32 5 -4.64 5 -6 5 C-6 6.32 -6 7.64 -6 9 C-6.99 9.33 -7.98 9.66 -9 10 C-9.66 7.69 -10.32 5.38 -11 3 C-10.374 2.951 -9.747 2.902 -9.102 2.852 C-8.284 2.777 -7.467 2.702 -6.625 2.625 C-5.813 2.555 -5.001 2.486 -4.164 2.414 C-2 2 -2 2 0 0 Z " fill="#786862" transform="translate(107,56)"/>
<path d="M0 0 C0.33 0.66 0.66 1.32 1 2 C3.97 2 6.94 2 10 2 C10 2.33 10 2.66 10 3 C7.69 3.33 5.38 3.66 3 4 C4.32 4.66 5.64 5.32 7 6 C6.257 6.144 5.515 6.289 4.75 6.438 C2.48 6.902 0.242 7.419 -2 8 C-2 5.69 -2 3.38 -2 1 C-1.34 0.67 -0.68 0.34 0 0 Z " fill="#7F706B" transform="translate(87,162)"/>
<path d="M0 0 C1.485 0.33 1.485 0.33 9 2 C7 6 7 6 5.062 6.938 C3 7 3 7 1.25 5.812 C0 4 0 4 0 0 Z " fill="#ECCEA9" transform="translate(49,104)"/>
<path d="M0 0 C6.625 0.75 6.625 0.75 10 3 C9.67 4.32 9.34 5.64 9 7 C8.01 6.67 7.02 6.34 6 6 C6 5.34 6 4.68 6 4 C4.68 3.34 3.36 2.68 2 2 C1.67 3.65 1.34 5.3 1 7 C0.67 7 0.34 7 0 7 C0 4.69 0 2.38 0 0 Z " fill="#78645B" transform="translate(76,88)"/>
<path d="M0 0 C0.99 0.33 1.98 0.66 3 1 C3 5.29 3 9.58 3 14 C2.01 13.67 1.02 13.34 0 13 C0 8.71 0 4.42 0 0 Z " fill="#847570" transform="translate(104,88)"/>
<path d="M0 0 C5.28 0 10.56 0 16 0 C16.33 0.66 16.66 1.32 17 2 C13.916 2.902 11.147 3.135 7.938 3.125 C7.509 3.126 7.509 3.126 5.34 3.133 C3 3 3 3 0 2 C0 1.34 0 0.68 0 0 Z " fill="#DB5D45" transform="translate(37,128)"/>
<path d="M0 0 C1.017 2.655 1.13 3.692 0.004 6.359 C-0.472 7.148 -0.947 7.937 -1.438 8.75 C-1.911 9.549 -2.384 10.348 -2.871 11.172 C-3.244 11.775 -3.616 12.378 -4 13 C-4.66 12.01 -5.32 11.02 -6 10 C-5.312 7.375 -5.312 7.375 -4 5 C-3.01 4.67 -2.02 4.34 -1 4 C-0.312 1.938 -0.312 1.938 0 0 Z " fill="#843223" transform="translate(73,106)"/>
<path d="M0 0 C7.521 1.845 7.521 1.845 10 5 C10.895 6.063 11.791 7.126 12.688 8.188 C13.451 9.116 14.214 10.044 15 11 C14.67 11.66 14.34 12.32 14 13 C13.408 12.385 12.817 11.77 12.207 11.137 C11.417 10.328 10.627 9.52 9.812 8.688 C9.035 7.887 8.258 7.086 7.457 6.262 C5.099 4.091 2.764 2.595 0 1 C0 0.67 0 0.34 0 0 Z " fill="#A39A98" transform="translate(127,74)"/>
<path d="M0 0 C3.96 0.33 7.92 0.66 12 1 C12 1.66 12 2.32 12 3 C8.981 4.509 6.327 4.175 3 4 C2.01 3.34 1.02 2.68 0 2 C0 1.34 0 0.68 0 0 Z " fill="#ACA3A1" transform="translate(28,66)"/>
<path d="M0 0 C0.33 0.66 0.66 1.32 1 2 C-3.491 7.53 -8.121 11.969 -14 16 C-14 15.01 -14 14.02 -14 13 C-12.461 11.641 -12.461 11.641 -10.375 10.25 C-6.22 7.308 -3.122 3.997 0 0 Z " fill="#5E4A42" transform="translate(138,142)"/>
<path d="M0 0 C1.98 0.66 3.96 1.32 6 2 C5.65 11.173 5.65 11.173 2.938 14.625 C2.298 15.079 1.659 15.532 1 16 C0.01 15.67 -0.98 15.34 -2 15 C-1.175 14.464 -0.35 13.927 0.5 13.375 C3 11 3 11 3.5 8.062 C2.957 4.734 1.932 2.737 0 0 Z " fill="#786864" transform="translate(57,64)"/>
<path d="M0 0 C2.97 0 5.94 0 9 0 C8.34 1.32 7.68 2.64 7 4 C4.375 4.75 4.375 4.75 2 5 C1.34 3.35 0.68 1.7 0 0 Z " fill="#9C918F" transform="translate(30,62)"/>
<path d="M0 0 C1.063 0.014 2.127 0.028 3.223 0.043 C4.284 0.049 5.344 0.056 6.438 0.062 C9.285 0.23 9.285 0.23 12.285 1.23 C11.955 2.22 11.625 3.21 11.285 4.23 C10.13 3.9 8.975 3.57 7.785 3.23 C3.51 2.146 -0.318 2.073 -4.715 2.23 C-2.715 0.23 -2.715 0.23 0 0 Z " fill="#A8A09E" transform="translate(36.71484375,60.76953125)"/>
<path d="M0 0 C-0.312 1.938 -0.312 1.938 -1 4 C-1.99 4.33 -2.98 4.66 -4 5 C-3.01 5.33 -2.02 5.66 -1 6 C-1 6.33 -1 6.66 -1 7 C-3.31 7.33 -5.62 7.66 -8 8 C-7.812 5.688 -7.812 5.688 -7 3 C-2.966 0 -2.966 0 0 0 Z " fill="#7E7571" transform="translate(50,50)"/>
<path d="M0 0 C1.32 0.66 2.64 1.32 4 2 C3.01 2.33 2.02 2.66 1 3 C1 3.99 1 4.98 1 6 C1.99 6 2.98 6 4 6 C4.66 5.34 5.32 4.68 6 4 C6.33 5.65 6.66 7.3 7 9 C4.125 9.125 4.125 9.125 1 9 C-1 7 -1 7 -1.188 3.938 C-1 1 -1 1 0 0 Z " fill="#655044" transform="translate(80,174)"/>
<path d="M0 0 C1.812 1.438 1.812 1.438 3 3 C0.696 4.067 -1.64 5.064 -4 6 C-4.66 5.67 -5.32 5.34 -6 5 C-5.67 3.68 -5.34 2.36 -5 1 C-2.688 0.312 -2.688 0.312 0 0 Z " fill="#E2D5C7" transform="translate(74,170)"/>
<path d="M0 0 C3.263 3.086 6.022 5.935 8 10 C7.67 10.66 7.34 11.32 7 12 C1.215 7.938 1.215 7.938 0.125 3.188 C0.084 2.136 0.043 1.084 0 0 Z " fill="#958B88" transform="translate(105,73)"/>
<path d="M0 0 C0.905 0.023 1.81 0.046 2.742 0.07 C3.197 0.079 3.197 0.079 5.5 0.125 C6.199 0.148 6.897 0.171 7.617 0.195 C7.617 0.525 7.617 0.855 7.617 1.195 C1.503 3.053 -3.968 4.623 -10.383 4.195 C-10.053 3.535 -9.723 2.875 -9.383 2.195 C-8.599 2.237 -7.815 2.278 -7.008 2.32 C-3.622 2.159 -3.297 0.27 0 0 Z " fill="#A13B2B" transform="translate(59.3828125,107.8046875)"/>
<path d="M0 0 C0.66 0.825 1.32 1.65 2 2.5 C6.024 5.853 7.907 5.432 13 5 C13.33 5.66 13.66 6.32 14 7 C10.972 7.666 8.106 8.13 5 8 C1.938 5.75 1.938 5.75 0 3 C0 2.01 0 1.02 0 0 Z " fill="#7D6A61" transform="translate(7,93)"/>
<path d="M0 0 C1.675 0.286 3.344 0.618 5 1 C5 2.32 5 3.64 5 5 C3.02 5.33 1.04 5.66 -1 6 C-1.043 4.334 -1.041 2.666 -1 1 C-0.67 0.67 -0.34 0.34 0 0 Z " fill="#B29581" transform="translate(87,178)"/>
<path d="M0 0 C0.144 0.619 0.289 1.238 0.438 1.875 C1 4 1 4 2 6 C0.68 7.98 -0.64 9.96 -2 12 C-2.66 11.67 -3.32 11.34 -4 11 C-4 10.01 -4 9.02 -4 8 C-3.34 8 -2.68 8 -2 8 C-1.928 7.526 -1.928 7.526 -1.562 5.125 C-1 2 -1 2 0 0 Z " fill="#705D55" transform="translate(83,141)"/>
<path d="M0 0 C2.829 2.829 3.376 3.381 4 7 C4.66 6.67 5.32 6.34 6 6 C6 7.98 6 9.96 6 12 C4.68 12 3.36 12 2 12 C1.34 8.04 0.68 4.08 0 0 Z " fill="#7E3022" transform="translate(28,102)"/>
<path d="M0 0 C0.825 0.33 0.825 0.33 5 2 C4.691 2.382 4.691 2.382 3.125 4.312 C1 7 1 7 -1 10 C-2.188 8.375 -2.188 8.375 -3 6 C-1.625 2.75 -1.625 2.75 0 0 Z " fill="#623428" transform="translate(78,90)"/>
<path d="M0 0 C0.99 0.33 1.98 0.66 3 1 C2.34 2.65 1.68 4.3 1 6 C0.34 6 -0.32 6 -1 6 C-1 7.65 -1 9.3 -1 11 C-1.33 11.165 -1.33 11.165 -3 12 C-3.348 7.123 -2.417 4.229 0 0 Z " fill="#78685F" transform="translate(107,162)"/>
<path d="M0 0 C-1.263 1.176 -2.535 2.34 -3.812 3.5 C-4.166 3.825 -4.166 3.825 -5.957 5.469 C-8 7 -8 7 -11 7 C-11 6.34 -11 5.68 -11 5 C-10.01 5 -9.02 5 -8 5 C-7.918 4.381 -7.835 3.762 -7.75 3.125 C-7 1 -7 1 -5.125 -0.312 C-3 -1 -3 -1 0 0 Z " fill="#80665A" transform="translate(87,133)"/>
<path d="M0 0 C0.557 0.186 1.114 0.371 1.688 0.562 C4.399 1.076 6.344 0.664 9 0 C9 3 9 3 7 6 C6.01 6 5.02 6 4 6 C0 1.543 0 1.543 0 0 Z " fill="#9A8C88" transform="translate(18,63)"/>
<path d="M0 0 C3.96 0 7.92 0 12 0 C11.67 1.65 11.34 3.3 11 5 C10.01 4.67 9.02 4.34 8 4 C8 3.34 8 2.68 8 2 C5.36 1.67 2.72 1.34 0 1 C0 0.67 0 0.34 0 0 Z " fill="#E36C58" transform="translate(51,117)"/>
<path d="M0 0 C0.33 0.66 0.66 1.32 1 2 C-0.98 2.165 -0.98 2.165 -11 3 C-11.33 2.01 -11.66 1.02 -12 0 C-10.564 -0.196 -9.126 -0.381 -7.688 -0.562 C-6.887 -0.667 -6.086 -0.771 -5.262 -0.879 C-3 -1 -3 -1 0 0 Z " fill="#A29A98" transform="translate(115,68)"/>
<path d="M0 0 C3.403 1.059 6.014 2.009 9 4 C9 4.66 9 5.32 9 6 C6.69 6 4.38 6 2 6 C1.34 4.02 0.68 2.04 0 0 Z " fill="#907C75" transform="translate(28,131)"/>
<path d="M0 0 C0.99 0.33 1.98 0.66 3 1 C2.67 3.31 2.34 5.62 2 8 C1.34 8 0.68 8 0 8 C-0.381 5.674 -0.713 3.339 -1 1 C-0.67 0.67 -0.34 0.34 0 0 Z " fill="#F5D9BC" transform="translate(28,118)"/>
<path d="M0 0 C2.31 0 4.62 0 7 0 C6.01 2.97 5.02 5.94 4 9 C3.34 9 2.68 9 2 9 C2.33 7.02 2.66 5.04 3 3 C2.01 2.67 1.02 2.34 0 2 C0 1.34 0 0.68 0 0 Z " fill="#F0816E" transform="translate(49,119)"/>
<path d="M0 0 C0.99 0 1.98 0 3 0 C3.841 4.018 4.054 7.018 3 11 C0.434 7.151 0.449 4.565 0 0 Z " fill="#978B86" transform="translate(149,100)"/>
<path d="M0 0 C0 2.31 0 4.62 0 7 C-1.32 6.67 -2.64 6.34 -4 6 C-4 4.35 -4 2.7 -4 1 C-2 0 -2 0 0 0 Z " fill="#54312B" transform="translate(20,65)"/>
<path d="M0 0 C0.99 0.33 1.98 0.66 3 1 C2.34 1 1.68 1 1 1 C0.856 1.361 0.856 1.361 0.125 3.188 C-0.917 5.792 -1.958 8.396 -3 11 C-3.33 11 -3.66 11 -4 11 C-3.913 9.541 -3.805 8.082 -3.688 6.625 C-3.629 5.813 -3.571 5.001 -3.512 4.164 C-3 2 -3 2 0 0 Z " fill="#B05D4A" transform="translate(101,48)"/>
<path d="M0 0 C0.99 0.33 1.98 0.66 3 1 C2.67 2.32 2.34 3.64 2 5 C0.35 5 -1.3 5 -3 5 C-2.625 3.062 -2.625 3.062 -2 1 C-1.34 0.67 -0.68 0.34 0 0 Z " fill="#A88B7A" transform="translate(53,174)"/>
<path d="M0 0 C1.32 0 2.64 0 4 0 C4.33 1.32 4.66 2.64 5 4 C3.35 4.33 1.7 4.66 0 5 C-0.66 4.01 -1.32 3.02 -2 2 C-1.34 1.34 -0.68 0.68 0 0 Z " fill="#C7503F" transform="translate(40,109)"/>
<path d="M0 0 C3.125 -0.188 3.125 -0.188 6 0 C6 0.99 6 1.98 6 3 C4.907 3.289 3.814 3.578 2.688 3.875 C-1 5 -1 5 -4 7 C-2.796 4.506 -1.546 2.319 0 0 Z " fill="#A99F9A" transform="translate(98,42)"/>
<path d="M0 0 C1.65 0.33 3.3 0.66 5 1 C5 1.99 5 2.98 5 4 C3.02 4 1.04 4 -1 4 C-0.67 2.68 -0.34 1.36 0 0 Z " fill="#B89A86" transform="translate(95,178)"/>
<path d="M0 0 C0.33 0.66 0.66 1.32 1 2 C1.66 2 2.32 2 3 2 C3 3.65 3 5.3 3 7 C2.01 7 1.02 7 0 7 C-1.125 2.25 -1.125 2.25 0 0 Z " fill="#9C897C" transform="translate(39,171)"/>
<path d="M0 0 C1.32 0 2.64 0 4 0 C4 0.66 4 1.32 4 2 C2.031 3.508 2.031 3.508 -0.5 5.125 C-1.335 5.664 -2.171 6.203 -3.031 6.758 C-3.681 7.168 -4.331 7.578 -5 8 C-5.66 7.34 -6.32 6.68 -7 6 C-6.216 5.752 -5.432 5.505 -4.625 5.25 C-1.677 3.846 -1.098 2.993 0 0 Z " fill="#995745" transform="translate(61,123)"/>
<path d="M0 0 C0.33 0.99 0.66 1.98 1 3 C-0.438 5.688 -0.438 5.688 -2 8 C-2.99 7.67 -3.98 7.34 -5 7 C-4.34 5.02 -3.68 3.04 -3 1 C-2.34 1.33 -1.68 1.66 -1 2 C-0.67 1.34 -0.34 0.68 0 0 Z " fill="#93837C" transform="translate(28,111)"/>
<path d="M0 0 C0.892 0.009 1.784 0.018 2.703 0.027 C3.379 0.039 4.054 0.051 4.75 0.062 C4.75 0.392 4.75 0.722 4.75 1.062 C3.471 1.145 2.192 1.228 0.875 1.312 C-1.336 1.574 -1.336 1.574 -3.25 2.062 C-4.75 4.125 -4.75 4.125 -5.25 6.062 C-5.353 5.423 -5.456 4.784 -5.562 4.125 C-5.789 3.444 -6.016 2.764 -6.25 2.062 C-7.24 1.733 -8.23 1.403 -9.25 1.062 C-6.095 0.126 -3.284 -0.043 0 0 Z " fill="#7B5447" transform="translate(29.25,96.9375)"/>
<path d="M0 0 C0.66 0.165 0.66 0.165 4 1 C4 2.32 4 3.64 4 5 C2.35 5.33 0.7 5.66 -1 6 C-0.67 4.02 -0.34 2.04 0 0 Z " fill="#AF9483" transform="translate(44,174)"/>
<path d="M0 0 C0.33 0 0.66 0 1 0 C1 2.31 1 4.62 1 7 C1.99 7 2.98 7 4 7 C4 7.99 4 8.98 4 10 C2.35 10 0.7 10 -1 10 C-0.67 6.7 -0.34 3.4 0 0 Z " fill="#DBD0C3" transform="translate(115,161)"/>
<path d="M0 0 C0.33 0 0.66 0 1 0 C1.33 2.64 1.66 5.28 2 8 C3.32 7.34 4.64 6.68 6 6 C5.34 7.32 4.68 8.64 4 10 C3.01 10 2.02 10 1 10 C-0.158 6.527 -0.069 3.639 0 0 Z " fill="#897974" transform="translate(27,80)"/>
<path d="M0 0 C3.3 0 6.6 0 10 0 C10 0.33 10 0.66 10 1 C7.36 1.33 4.72 1.66 2 2 C2.66 3.32 3.32 4.64 4 6 C3.01 6.33 2.02 6.66 1 7 C0.67 4.69 0.34 2.38 0 0 Z " fill="#716763" transform="translate(102,67)"/>
<path d="M0 0 C0.66 0.33 1.32 0.66 2 1 C2 2.32 2 3.64 2 5 C0.35 5 -1.3 5 -3 5 C-3 3.68 -3 2.36 -3 1 C-2.01 1.33 -1.02 1.66 0 2 C0 1.34 0 0.68 0 0 Z " fill="#37322F" transform="translate(49,57)"/>
<path d="M0 0 C0.66 0.33 1.32 0.66 2 1 C1.67 2.32 1.34 3.64 1 5 C1.66 5.33 2.32 5.66 3 6 C2.01 6.33 1.02 6.66 0 7 C-1.333 4.333 -0.671 2.833 0 0 Z M3 4 C5.97 4 8.94 4 12 4 C12 4.33 12 4.66 12 5 C9.03 5 6.06 5 3 5 C3 4.67 3 4.34 3 4 Z " fill="#DAC8B4" transform="translate(109,173)"/>
<path d="M0 0 C1.65 0 3.3 0 5 0 C5 1.32 5 2.64 5 4 C3.35 4 1.7 4 0 4 C0 2.68 0 1.36 0 0 Z " fill="#A58977" transform="translate(127,171)"/>
<path d="M0 0 C0.66 0.99 1.32 1.98 2 3 C1.125 5.688 1.125 5.688 0 8 C-1.32 7.34 -2.64 6.68 -4 6 C-3.34 5.67 -2.68 5.34 -2 5 C-1.278 3.356 -0.606 1.689 0 0 Z " fill="#614F44" transform="translate(113,164)"/>
<path d="M0 0 C2.375 -0.125 2.375 -0.125 5 0 C5.66 0.66 6.32 1.32 7 2 C6.67 2.99 6.34 3.98 6 5 C3.69 4.01 1.38 3.02 -1 2 C-0.67 1.34 -0.34 0.68 0 0 Z " fill="#A59C98" transform="translate(46,39)"/>
<path d="M0 0 C0.33 0 0.66 0 1 0 C1.625 2.812 1.625 2.812 2 6 C1.67 6.495 1.67 6.495 0 9 C-1.32 8.67 -2.64 8.34 -4 8 C-3.526 7.608 -3.051 7.216 -2.562 6.812 C-0.648 4.592 -0.387 2.866 0 0 Z " fill="#E5D9CD" transform="translate(146,167)"/>
<path d="M0 0 C0.66 0.165 0.66 0.165 4 1 C4 1.99 4 2.98 4 4 C2.35 4 0.7 4 -1 4 C-0.67 2.68 -0.34 1.36 0 0 Z " fill="#AF917D" transform="translate(135,171)"/>
<path d="M0 0 C0.99 0 1.98 0 3 0 C3 1.667 3 3.333 3 5 C1.35 5 -0.3 5 -2 5 C-1.125 1.125 -1.125 1.125 0 0 Z " fill="#58443A" transform="translate(109,167)"/>
<path d="M0 0 C0.763 0.206 1.526 0.412 2.312 0.625 C2.312 1.615 2.312 2.605 2.312 3.625 C1.983 3.79 1.983 3.79 0.312 4.625 C-1.719 3.691 -3.723 2.693 -5.688 1.625 C-2.688 -0.375 -2.688 -0.375 0 0 Z " fill="#9C8883" transform="translate(35.6875,130.375)"/>
<path d="M0 0 C0.66 0.33 1.32 0.66 2 1 C-2.308 5.923 -2.308 5.923 -5.812 6.312 C-6.173 6.261 -6.173 6.261 -8 6 C-5.333 4 -2.667 2 0 0 Z " fill="#9A8B84" transform="translate(62,126)"/>
<path d="M0 0 C0.66 0.33 1.32 0.66 2 1 C1.34 3.31 0.68 5.62 0 8 C-0.66 7.67 -1.32 7.34 -2 7 C-2 5 -2 5 -1 4 C-1 3.01 -1 2.02 -1 1 C-0.67 0.67 -0.34 0.34 0 0 Z " fill="#7E6D65" transform="translate(103,105)"/>
<path d="M0 0 C0.495 0.33 0.495 0.33 3 2 C3.188 5.125 3.188 5.125 3 8 C1.68 7.01 0.36 6.02 -1 5 C-0.67 3.35 -0.34 1.7 0 0 Z " fill="#7D6E69" transform="translate(102,76)"/>
<path d="M0 0 C0.464 0.113 0.464 0.113 2.812 0.688 C2.483 1.347 2.153 2.008 1.812 2.688 C-0.828 2.688 -3.468 2.688 -6.188 2.688 C-4.15 -0.143 -3.591 -0.352 0 0 Z " fill="#A9A09F" transform="translate(68.1875,50.3125)"/>
<path d="M0 0 C1.32 0.99 2.64 1.98 4 3 C3.67 4.32 3.34 5.64 3 7 C2.01 6.67 1.02 6.34 0 6 C0 4.02 0 2.04 0 0 Z " fill="#CC7F69" transform="translate(43,44)"/>
<path d="M0 0 C1.32 0 2.64 0 4 0 C4.33 1.65 4.66 3.3 5 5 C4.67 5.165 4.67 5.165 3 6 C3 5.34 3 4.68 3 4 C2.01 3.67 1.02 3.34 0 3 C0 2.01 0 1.02 0 0 Z " fill="#945B4E" transform="translate(44,43)"/>
<path d="M0 0 C0.66 0 1.32 0 2 0 C2.188 2.375 2.188 2.375 2 5 C1.505 5.33 1.505 5.33 -1 7 C-1.625 4.625 -1.625 4.625 -2 2 C-1.34 1.34 -0.68 0.68 0 0 Z " fill="#A34331" transform="translate(66,116)"/>
<path d="M0 0 C6.625 -0.125 6.625 -0.125 10 1 C9.67 1.99 9.34 2.98 9 4 C6.03 3.01 3.06 2.02 0 1 C0 0.67 0 0.34 0 0 Z " fill="#BB4939" transform="translate(57,112)"/>
<path d="M0 0 C1.98 0 3.96 0 6 0 C5.67 0.165 5.67 0.165 4 1 C4 1.99 4 2.98 4 4 C2.68 3.67 1.36 3.34 0 3 C0 2.01 0 1.02 0 0 Z " fill="#EEDFCA" transform="translate(15,101)"/>
<path d="M0 0 C-0.33 1.32 -0.66 2.64 -1 4 C-1.99 4 -2.98 4 -4 4 C-4 3.01 -4 2.02 -4 1 C-4.66 0.67 -5.32 0.34 -6 0 C-3 -1 -3 -1 0 0 Z " fill="#A88C84" transform="translate(94,78)"/>
<path d="M0 0 C2.062 0.438 2.062 0.438 4 1 C3.34 1.66 2.68 2.32 2 3 C1.67 3.66 1.34 4.32 1 5 C0.01 5 -0.98 5 -2 5 C-1.125 1.125 -1.125 1.125 0 0 Z " fill="#4F261D" transform="translate(50,70)"/>
<path d="M0 0 C0.99 0.165 0.99 0.165 6 1 C6 1.99 6 2.98 6 4 C4.35 3.67 2.7 3.34 1 3 C0.67 2.01 0.34 1.02 0 0 Z " fill="#A69B99" transform="translate(28,66)"/>
<path d="M0 0 C2.625 -0.188 2.625 -0.188 5 0 C4.67 0.165 4.67 0.165 3 1 C3 1.99 3 2.98 3 4 C1.35 3.67 -0.3 3.34 -2 3 C-1.34 2.01 -0.68 1.02 0 0 Z " fill="#666563" transform="translate(75,64)"/>
<path d="M0 0 C1.431 2.862 0.6 4.934 0 8 C-0.99 7.67 -1.98 7.34 -3 7 C-1.125 1.125 -1.125 1.125 0 0 Z " fill="#73574F" transform="translate(97,51)"/>
</svg>
