<?xml version="1.0" encoding="UTF-8"?>
<!-- Generator: visioncortex VTracer 0.6.12 -->
<svg version="1.1" xmlns="http://www.w3.org/2000/svg" width="162" height="200">
<path d="M0 0 C53.46 0 106.92 0 162 0 C162 66 162 132 162 200 C108.54 200 55.08 200 0 200 C0 134 0 68 0 0 Z " fill="#FCF7F0" transform="translate(0,0)"/>
<path d="M0 0 C1.32 0 2.64 0 4 0 C5.273 1.75 5.273 1.75 6.375 4 C7.656 6.23 7.656 6.23 9 8 C11.875 8.312 11.875 8.312 15 8 C17.458 8.808 19.659 9.877 22 11 C22.103 10.113 22.206 9.226 22.312 8.312 C23.012 4.943 24.087 2.827 26 0 C30.553 0.474 30.553 0.474 32.547 2.82 C35.968 9.373 35.968 9.373 36.188 13.625 C37.387 18.608 40.664 20.045 44.848 22.715 C45.558 23.139 46.268 23.563 47 24 C46.835 24.495 46.835 24.495 46 27 C46.598 27.248 47.196 27.495 47.812 27.75 C50.352 29.201 51.469 30.522 53 33 C53.144 33.598 53.289 34.196 53.438 34.812 C54 37 54 37 56 40.312 C57.63 43.031 58.046 44.334 58.5 47.625 C59.083 51.564 60.546 52.973 63 56 C62.75 58.312 62.75 58.312 62 60 C61.34 59.67 60.68 59.34 60 59 C60.349 59.748 60.699 60.495 61.059 61.266 C61.514 62.25 61.969 63.235 62.438 64.25 C62.89 65.225 63.342 66.199 63.809 67.203 C64.784 69.493 65.497 71.574 66 74 C65.34 74 64.68 74 64 74 C64.155 74.278 64.155 74.278 64.938 75.688 C66.058 78.125 66.56 80.362 67 83 C67.629 83.026 68.258 83.052 68.906 83.078 C75.275 83.5 79.403 85.002 85 88 C85.66 87.67 86.32 87.34 87 87 C91.943 86.757 95.49 86.745 100 89 C100 89.99 100 90.98 100 92 C100.299 92.134 100.299 92.134 101.812 92.812 C105.458 94.791 106.697 96.121 108.074 100.121 C109.044 104.184 109.233 107.705 109.188 111.875 C109.184 112.534 109.184 112.534 109.168 115.867 C109 119 109 119 108 120 C107.362 126.185 108.116 131.411 110.344 137.188 C111 139 111 139 111 141 C110.34 141.33 109.68 141.66 109 142 C109.66 143.32 110.32 144.64 111 146 C110.67 146.33 110.34 146.66 110 147 C107.667 147 105.333 147 103 147 C102.01 147.33 101.02 147.66 100 148 C97.312 146.687 97.312 146.687 95 145 C95 144.34 95 143.68 95 143 C94.34 143 93.68 143 93 143 C91.991 147.156 91.898 151.044 91.938 155.312 C91.947 156.567 91.956 157.821 91.965 159.113 C91.976 160.066 91.988 161.019 92 162 C91.34 162 90.68 162 90 162 C90.062 162.949 90.124 163.898 90.188 164.875 C90.157 165.391 90.157 165.391 90 168 C86.417 170.389 84.686 170.269 80.438 170.25 C79.281 170.255 78.125 170.26 76.934 170.266 C74 170 74 170 72 168 C72.298 163.536 73.617 160.718 76 157 C78.213 153.016 78.283 149.698 77.68 145.277 C76.5 141.324 73.85 138.865 71 136 C69.984 134.679 68.974 133.353 68 132 C67.872 138.523 67.872 138.523 68.688 141.562 C69 144 69 144 67.625 146.688 C65.474 151.072 65.276 155.176 65 160 C64.34 160 63.68 160 63 160 C62.918 160.784 62.835 161.567 62.75 162.375 C62 165 62 165 60.375 166.312 C55.242 167.798 50.163 167.007 45 166 C44.752 167.114 44.505 168.227 44.25 169.375 C43 173 43 173 41.375 174.438 C35.156 175.91 29.923 174.974 24 173 C24.517 167.698 26.259 164.454 29 160 C30.381 157.238 30.058 155.02 30 151.938 C29.952 146.52 30.273 141.364 31 136 C23.983 134.427 23.983 134.427 21.203 136.047 C19.76 137.318 18.376 138.656 17 140 C16.34 140 15.68 140 15 140 C15.264 145.359 15.264 145.359 16 148 C18.437 149.688 18.437 149.688 21 151 C23.077 154.659 23.434 157.838 23 162 C21.938 164.812 21.938 164.812 20 167 C16.625 168.125 16.625 168.125 13 168 C10.313 165.875 10.313 165.875 8 163 C7.278 162.257 6.556 161.515 5.812 160.75 C3.713 157.564 3.124 154.904 2.492 151.184 C2 149 2 149 0.977 147.012 C-0.902 143.142 -0.711 139.175 0 135 C1.333 132.251 2.841 129.826 4.59 127.324 C6.118 124.805 6.693 122.919 7 120 C6.691 119.113 6.381 118.226 6.062 117.312 C4.001 110.885 4.312 105.226 6.875 99 C9.994 91.336 10.317 83.17 11 75 C6.403 77.148 4.085 78.99 1 83 C-2.547 85.661 -6.737 85.555 -11 85 C-13.625 83.75 -13.625 83.75 -16 82 C-17.031 81.381 -18.062 80.763 -19.125 80.125 C-23.039 77.232 -25.456 73.529 -26.484 68.75 C-26.795 65.535 -26.785 63.15 -26 60 C-23.467 57.007 -20.785 54.702 -17.699 52.289 C-14.959 49.965 -13.463 48.265 -12 45 C-11.812 42.281 -11.812 42.281 -12 39.5 C-12.14 34.933 -11.638 32.799 -9 29 C-8.856 27.866 -8.711 26.731 -8.562 25.562 C-8 22 -8 22 -6 19.25 C-3.523 15.226 -3.543 12.2 -3.266 7.57 C-2.935 4.367 -2.205 2.369 0 0 Z " fill="#CB7A35" transform="translate(39,14)"/>
<path d="M0 0 C1.32 0 2.64 0 4 0 C5.273 1.75 5.273 1.75 6.375 4 C7.656 6.23 7.656 6.23 9 8 C11.875 8.312 11.875 8.312 15 8 C17.458 8.808 19.659 9.877 22 11 C22.103 10.113 22.206 9.226 22.312 8.312 C23.012 4.943 24.087 2.827 26 0 C30.553 0.474 30.553 0.474 32.547 2.82 C35.968 9.373 35.968 9.373 36.188 13.625 C37.387 18.608 40.664 20.045 44.848 22.715 C45.558 23.139 46.268 23.563 47 24 C46.835 24.495 46.835 24.495 46 27 C46.598 27.248 47.196 27.495 47.812 27.75 C50.352 29.201 51.469 30.522 53 33 C53.144 33.598 53.289 34.196 53.438 34.812 C54 37 54 37 56 40.312 C57.63 43.031 58.046 44.334 58.5 47.625 C59.083 51.564 60.546 52.973 63 56 C62.75 58.312 62.75 58.312 62 60 C61.34 59.67 60.68 59.34 60 59 C60.349 59.748 60.699 60.495 61.059 61.266 C61.514 62.25 61.969 63.235 62.438 64.25 C62.89 65.225 63.342 66.199 63.809 67.203 C64.784 69.493 65.497 71.574 66 74 C65.34 74 64.68 74 64 74 C64.309 74.578 64.619 75.155 64.938 75.75 C66.647 79.371 67.292 81.123 66 85 C66.33 85.99 66.66 86.98 67 88 C66.67 88.66 66.34 89.32 66 90 C65.237 89.773 64.474 89.546 63.688 89.312 C62.801 89.209 61.914 89.106 61 89 C59.187 90.438 59.187 90.438 58 92 C56.68 89.69 55.36 87.38 54 85 C53.34 85.66 52.68 86.32 52 87 C49.314 84.314 48.94 81.624 48 78 C47.34 78 46.68 78 46 78 C44.738 75.475 44.901 73.688 44.938 70.875 C44.947 69.965 44.956 69.055 44.965 68.117 C44.976 67.419 44.988 66.72 45 66 C44.01 66 43.02 66 42 66 C40.738 63.475 40.901 61.688 40.938 58.875 C40.947 57.965 40.956 57.055 40.965 56.117 C40.976 55.419 40.988 54.72 41 54 C40.34 54 39.68 54 39 54 C37.727 57.396 36.905 60.465 36.625 64.062 C35.927 68.463 34.965 69.788 32 73 C31.175 74.158 30.363 75.325 29.562 76.5 C27.325 79.667 24.82 82.328 22 85 C21.443 85.598 20.886 86.196 20.312 86.812 C19 88 19 88 17 88 C16.732 88.639 16.464 89.279 16.188 89.938 C15 92 15 92 12 93 C12.66 96.96 13.32 100.92 14 105 C13.34 105 12.68 105 12 105 C7.426 96.249 7.426 96.249 8.875 90.938 C10.175 85.665 10.616 80.406 11 75 C6.355 77.006 4.054 79.03 1 83 C-2.547 85.661 -6.737 85.555 -11 85 C-13.625 83.75 -13.625 83.75 -16 82 C-17.031 81.381 -18.062 80.763 -19.125 80.125 C-23.039 77.232 -25.456 73.529 -26.484 68.75 C-26.795 65.535 -26.785 63.15 -26 60 C-23.467 57.007 -20.785 54.702 -17.699 52.289 C-14.959 49.965 -13.463 48.265 -12 45 C-11.812 42.281 -11.812 42.281 -12 39.5 C-12.14 34.933 -11.638 32.799 -9 29 C-8.856 27.866 -8.711 26.731 -8.562 25.562 C-8 22 -8 22 -6 19.25 C-3.523 15.226 -3.543 12.2 -3.266 7.57 C-2.935 4.367 -2.205 2.369 0 0 Z " fill="#CA7A36" transform="translate(39,14)"/>
<path d="M0 0 C2 2 2 2 2.188 5.75 C2.105 9.237 1.685 12.575 1 16 C2.771 16.027 4.542 16.046 6.312 16.062 C7.299 16.074 8.285 16.086 9.301 16.098 C12 16 12 16 15 15 C16.57 12.934 16.57 12.934 18.125 10.438 C19.061 8.944 20.014 7.461 21 6 C21.33 6 21.66 6 22 6 C22.026 6.748 22.052 7.495 22.078 8.266 C22.549 16.44 22.549 16.44 25.062 19.562 C25.702 20.037 26.341 20.511 27 21 C27 21.66 27 22.32 27 23 C28.65 23.66 30.3 24.32 32 25 C31.427 27.867 31.139 28.861 29 31 C28.875 33.625 28.875 33.625 29 36 C29.743 35.835 30.485 35.67 31.25 35.5 C34 35 34 35 38 35 C38.33 32.36 38.66 29.72 39 27 C39.33 27 39.66 27 40 27 C40 33.6 40 40.2 40 47 C39.34 47 38.68 47 38 47 C38.062 47.949 38.124 48.898 38.188 49.875 C38.157 50.391 38.157 50.391 38 53 C34.417 55.389 32.686 55.269 28.438 55.25 C27.281 55.255 26.125 55.26 24.934 55.266 C22 55 22 55 20 53 C20.298 48.536 21.617 45.718 24 42 C26.213 38.016 26.283 34.698 25.68 30.277 C24.5 26.324 21.85 23.865 19 21 C17.984 19.679 16.974 18.353 16 17 C15.872 23.523 15.872 23.523 16.688 26.562 C17 29 17 29 15.625 31.688 C13.474 36.072 13.276 40.176 13 45 C12.34 45 11.68 45 11 45 C10.917 45.784 10.835 46.567 10.75 47.375 C10 50 10 50 8.375 51.312 C3.242 52.798 -1.837 52.007 -7 51 C-7.248 52.114 -7.495 53.227 -7.75 54.375 C-9 58 -9 58 -10.625 59.438 C-16.844 60.91 -22.077 59.974 -28 58 C-27.483 52.698 -25.741 49.454 -23 45 C-21.619 42.238 -21.942 40.02 -22 36.938 C-22.048 31.52 -21.727 26.364 -21 21 C-28.017 19.427 -28.017 19.427 -30.797 21.047 C-32.24 22.318 -33.624 23.656 -35 25 C-35.66 25 -36.32 25 -37 25 C-36.736 30.359 -36.736 30.359 -36 33 C-33.563 34.688 -33.563 34.688 -31 36 C-28.923 39.659 -28.566 42.838 -29 47 C-30.062 49.812 -30.062 49.812 -32 52 C-35.375 53.125 -35.375 53.125 -39 53 C-41.688 50.875 -41.688 50.875 -44 48 C-44.722 47.257 -45.444 46.515 -46.188 45.75 C-48.287 42.564 -48.876 39.904 -49.508 36.184 C-50 34 -50 34 -51.047 31.988 C-52.628 28.69 -52.12 25.613 -52 22 C-51.402 22.619 -50.804 23.238 -50.188 23.875 C-48 26 -48 26 -45 28 C-42.875 27.75 -42.875 27.75 -41 27 C-40.67 26.34 -40.34 25.68 -40 25 C-39.34 25 -38.68 25 -38 25 C-38.205 24.432 -38.41 23.863 -38.621 23.277 C-40.291 18.492 -41.464 14.041 -42 9 C-41.34 9 -40.68 9 -40 9 C-39.67 8.34 -39.34 7.68 -39 7 C-38.278 8.093 -37.556 9.186 -36.812 10.312 C-33.529 14.904 -30.494 16.627 -25 18 C-25.33 12.39 -25.66 6.78 -26 1 C-23.71 4.435 -23.822 5.985 -24 10 C-23.01 9.67 -22.02 9.34 -21 9 C-20.01 9 -19.02 9 -18 9 C-18.163 9.562 -18.326 10.123 -18.494 10.702 C-19.03 13.136 -19.114 15.276 -19.098 17.766 C-19.094 18.655 -19.091 19.545 -19.088 20.461 C-19.08 21.381 -19.071 22.302 -19.062 23.25 C-19.058 24.186 -19.053 25.122 -19.049 26.086 C-19.037 28.391 -19.021 30.695 -19 33 C-18.385 32.988 -17.77 32.977 -17.137 32.965 C-16.328 32.956 -15.52 32.947 -14.688 32.938 C-13.887 32.926 -13.086 32.914 -12.262 32.902 C-10 33 -10 33 -7 34 C-7 32.02 -7 30.04 -7 28 C-6.67 28 -6.34 28 -6 28 C-5.903 34.115 -6.23 39.933 -7 46 C-6.34 46 -5.68 46 -5 46 C-4.732 45.464 -4.464 44.928 -4.188 44.375 C-3.32 42.641 -2.395 40.936 -1.438 39.25 C0.333 35.248 0.856 32.379 1 28 C-0.438 26.188 -0.438 26.188 -2 25 C-2 24.01 -2 23.02 -2 22 C-2.66 22 -3.32 22 -4 22 C-3.835 19.855 -3.835 19.855 -3 9 C-2.34 9 -1.68 9 -1 9 C-0.67 6.03 -0.34 3.06 0 0 Z " fill="#985523" transform="translate(91,129)"/>
<path d="M0 0 C4.11 1.45 7.433 3.511 11 6 C10.67 6.99 10.34 7.98 10 9 C10.598 9.248 11.196 9.495 11.812 9.75 C14.352 11.201 15.469 12.522 17 15 C17.144 15.598 17.289 16.196 17.438 16.812 C18 19 18 19 20 22.312 C21.63 25.031 22.046 26.334 22.5 29.625 C23.083 33.564 24.546 34.973 27 38 C26.75 40.312 26.75 40.312 26 42 C25.34 41.67 24.68 41.34 24 41 C24.349 41.748 24.699 42.495 25.059 43.266 C25.514 44.25 25.969 45.235 26.438 46.25 C26.89 47.225 27.342 48.199 27.809 49.203 C28.784 51.493 29.497 53.574 30 56 C29.34 56 28.68 56 28 56 C28.155 56.289 28.155 56.289 28.938 57.75 C30.647 61.371 31.292 63.123 30 67 C30.33 67.99 30.66 68.98 31 70 C30.67 70.66 30.34 71.32 30 72 C29.237 71.773 28.474 71.546 27.688 71.312 C26.801 71.209 25.914 71.106 25 71 C23.188 72.437 23.188 72.437 22 74 C21.34 72.845 21.34 72.845 18 67 C17.67 67.33 17.67 67.33 16 69 C13.314 66.314 12.94 63.624 12 60 C11.34 60 10.68 60 10 60 C8.738 57.475 8.901 55.688 8.938 52.875 C8.947 51.965 8.956 51.055 8.965 50.117 C8.976 49.419 8.988 48.72 9 48 C8.01 48 7.02 48 6 48 C5.966 47.275 5.931 46.55 5.896 45.804 C5.724 42.451 5.518 39.101 5.312 35.75 C5.286 35.18 5.286 35.18 5.15 32.297 C4.673 24.994 3.247 19.172 0.145 12.532 C-1.61 8.652 -2.263 6.913 -1.062 2.75 C-0.712 1.843 -0.361 0.935 0 0 Z " fill="#3E2D1D" transform="translate(75,32)"/>
<path d="M0 0 C3 1 3 1 5 2 C5 2.99 5 3.98 5 5 C5.598 5.268 6.196 5.536 6.812 5.812 C10.458 7.791 11.697 9.121 13.074 13.121 C14.044 17.184 14.233 20.705 14.188 24.875 C14.181 26.192 14.175 27.51 14.168 28.867 C14 32 14 32 13 33 C12.362 39.185 13.116 44.411 15.344 50.188 C16 52 16 52 16 54 C15.67 54.165 15.67 54.165 14 55 C14.66 56.32 15.32 57.64 16 59 C15.67 59.33 15.34 59.66 15 60 C12.667 60 10.333 60 8 60 C7.505 60.165 7.505 60.165 5 61 C0.219 59.161 -1.22 56.18 -3.203 51.742 C-4 50 -4 50 -5 49 C-5.343 44.29 -5.045 40.774 -3.5 36.312 C-0.727 27.564 -0.746 19.742 -4.812 11.438 C-6.654 8.086 -8.642 5.009 -11 2 C-7.285 -0.477 -4.304 -0.435 0 0 Z " fill="#3D2D1C" transform="translate(134,101)"/>
<path d="M0 0 C2 2 2 2 2.188 5.75 C2.105 9.237 1.685 12.575 1 16 C2.771 16.027 4.542 16.046 6.312 16.062 C7.299 16.074 8.285 16.086 9.301 16.098 C12 16 12 16 15 15 C16.57 12.934 16.57 12.934 18.125 10.438 C19.061 8.944 20.014 7.461 21 6 C21.33 6 21.66 6 22 6 C22.026 6.748 22.052 7.495 22.078 8.266 C22.549 16.44 22.549 16.44 25.062 19.562 C25.702 20.037 26.341 20.511 27 21 C27 21.66 27 22.32 27 23 C27.825 23.33 27.825 23.33 32 25 C31.427 27.867 31.139 28.861 29 31 C28.875 33.625 28.875 33.625 29 36 C29.371 35.918 29.371 35.918 31.25 35.5 C34 35 34 35 38 35 C38.33 32.36 38.66 29.72 39 27 C39.33 27 39.66 27 40 27 C40 33.6 40 40.2 40 47 C39.34 47 38.68 47 38 47 C38.062 47.949 38.124 48.898 38.188 49.875 C38.157 50.391 38.157 50.391 38 53 C34.417 55.389 32.686 55.269 28.438 55.25 C27.281 55.255 26.125 55.26 24.934 55.266 C22 55 22 55 20 53 C20.298 48.536 21.617 45.718 24 42 C26.213 38.016 26.283 34.698 25.68 30.277 C24.5 26.324 21.85 23.865 19 21 C17.984 19.679 16.974 18.353 16 17 C15.872 23.523 15.872 23.523 16.688 26.562 C17 29 17 29 15.625 31.688 C13.474 36.072 13.276 40.176 13 45 C12.67 45 12.34 45 12 45 C12 43.02 12 41.04 12 39 C11.01 39 10.02 39 9 39 C8.67 38.34 8.34 37.68 8 37 C5.686 36.269 3.352 35.599 1 35 C1.062 33.907 1.124 32.814 1.188 31.688 C1 28 1 28 -0.5 26.25 C-0.995 25.838 -1.49 25.425 -2 25 C-2 24.01 -2 23.02 -2 22 C-2.66 22 -3.32 22 -4 22 C-3.67 17.71 -3.34 13.42 -3 9 C-2.34 9 -1.68 9 -1 9 C-0.67 6.03 -0.34 3.06 0 0 Z " fill="#8B4916" transform="translate(91,129)"/>
<path d="M0 0 C1.217 0.082 2.434 0.165 3.688 0.25 C9.079 1.471 11.884 4.642 15.312 8.812 C17.311 12.587 18.639 15.695 18 20 C15.595 24.195 12.498 27.182 8 29 C2.5 29.436 -0.461 29.344 -5 26 C-6.031 25.381 -7.062 24.763 -8.125 24.125 C-11.666 21.508 -13.075 18.85 -15 15 C-15.55 10.677 -16.127 6.061 -13.977 2.129 C-9.612 -2.127 -5.383 -1.073 0 0 Z " fill="#59442F" transform="translate(28,70)"/>
<path d="M0 0 C1.32 0 2.64 0 4 0 C5.273 1.75 5.273 1.75 6.375 4 C7.652 6.23 7.652 6.23 9 8 C11.938 8.312 11.938 8.312 15 8 C20.3 10.3 20.3 10.3 22 12 C22.233 13.682 22.413 15.371 22.562 17.062 C22.604 17.522 22.604 17.522 22.816 19.848 C22.877 20.558 22.938 21.268 23 22 C22.258 22.413 21.515 22.825 20.75 23.25 C18 25 18 25 15.938 27.25 C15.298 27.828 14.659 28.405 14 29 C12.657 28.706 11.323 28.372 10 28 C8.633 28.953 7.297 29.954 6 31 C5.01 31 4.02 31 3 31 C3 30.34 3 29.68 3 29 C2.01 29.66 1.02 30.32 0 31 C-0.99 31 -1.98 31 -3 31 C-3 30.01 -3 29.02 -3 28 C-4.98 28 -6.96 28 -9 28 C-8.652 24.343 -8.221 22.297 -6 19.312 C-3.547 15.25 -3.544 12.22 -3.266 7.57 C-2.935 4.367 -2.205 2.369 0 0 Z " fill="#433222" transform="translate(39,14)"/>
<path d="M0 0 C2.31 0.33 4.62 0.66 7 1 C7.165 1.495 7.165 1.495 8 4 C8.99 4 9.98 4 11 4 C10.81 13.19 10.81 13.19 7.875 16.125 C2.472 17.769 -2.536 17.066 -8 16 C-8.248 17.114 -8.495 18.227 -8.75 19.375 C-10 23 -10 23 -11.625 24.438 C-17.844 25.91 -23.077 24.974 -29 23 C-28.571 18.604 -27.355 15.573 -25.055 11.812 C-23.411 8.988 -22.234 6.023 -21 3 C-17 3 -13 3 -9 3 C-8.67 5.64 -8.34 8.28 -8 11 C-7.34 11 -6.68 11 -6 11 C-5.752 10.484 -5.505 9.969 -5.25 9.438 C-3.604 6.228 -1.802 3.124 0 0 Z " fill="#372718" transform="translate(92,164)"/>
<path d="M0 0 C4.567 4.567 3.055 14.608 3.062 20.75 C3.047 22.5 3.028 24.25 3 26 C2.67 26 2.34 26 2 26 C2 22.7 2 19.4 2 16 C1.34 16 0.68 16 0 16 C-1.273 19.396 -2.095 22.465 -2.375 26.062 C-3.073 30.463 -4.035 31.788 -7 35 C-7.825 36.158 -8.637 37.325 -9.438 38.5 C-11.675 41.667 -14.18 44.328 -17 47 C-17.557 47.598 -18.114 48.196 -18.688 48.812 C-20 50 -20 50 -22 50 C-22.268 50.639 -22.536 51.279 -22.812 51.938 C-24 54 -24 54 -27 55 C-26.34 58.96 -25.68 62.92 -25 67 C-25.66 67 -26.32 67 -27 67 C-31.574 58.249 -31.574 58.249 -30.125 52.938 C-28.825 47.665 -28.384 42.406 -28 37 C-28.639 37.186 -29.279 37.371 -29.938 37.562 C-30.618 37.707 -31.299 37.851 -32 38 C-33 37 -33 37 -33.25 34.125 C-33 31 -33 31 -31.625 29.125 C-30 28 -30 28 -28 28 C-28.33 28.99 -28.66 29.98 -29 31 C-22.037 31.337 -16.567 30.303 -10 28 C-10 27.34 -10 26.68 -10 26 C-9.216 25.546 -8.433 25.093 -7.625 24.625 C-3.537 20.537 -3.588 15.585 -3 10 C-2.34 10 -1.68 10 -1 10 C-0.67 6.7 -0.34 3.4 0 0 Z " fill="#A4561B" transform="translate(78,52)"/>
<path d="M0 0 C2.919 2.627 4.832 5.748 7 9 C7.517 9.472 8.034 9.944 8.566 10.43 C10.825 12.904 10.864 15.265 11.141 18.516 C10.831 23.99 7.978 28.534 5 33 C5.375 35.688 5.375 35.688 6 38 C9.3 38.33 12.6 38.66 16 39 C16 39.33 16 39.66 16 40 C8.364 40.824 0.846 41.049 -6.822 40.98 C-12.281 40.951 -17.578 41.312 -23 42 C-23 42.66 -23 43.32 -23 44 C-24.98 44 -26.96 44 -29 44 C-28.381 43.649 -27.763 43.299 -27.125 42.938 C-24.244 40.311 -23.845 37.734 -23 34 C-22.108 34.095 -21.216 34.191 -20.297 34.289 C-19.126 34.4 -17.956 34.511 -16.75 34.625 C-15.59 34.741 -14.43 34.857 -13.234 34.977 C-10.052 35 -8.563 34.824 -6 33 C-5.25 30.875 -5.25 30.875 -5 29 C-4.34 29 -3.68 29 -3 29 C-3.035 28.348 -3.07 27.695 -3.105 27.023 C-3.281 21.351 -2.713 18.073 0 13 C-0.312 10.562 -0.312 10.562 -1 8 C-1.078 5.668 -1.09 3.332 -1 1 C-0.67 0.67 -0.34 0.34 0 0 Z " fill="#F7F2EB" transform="translate(107,145)"/>
<path d="M0 0 C1.875 0.312 1.875 0.312 4 1 C5.332 1.339 6.665 1.673 8 2 C8.088 5.542 8.141 9.083 8.188 12.625 C8.213 13.624 8.238 14.623 8.264 15.652 C8.333 22.602 7.233 26.692 3.312 32.5 C1.723 35.528 1.903 37.626 2 41 C0.104 40.858 -1.792 40.711 -3.688 40.562 C-4.743 40.481 -5.799 40.4 -6.887 40.316 C-9.651 40.035 -12.289 39.598 -15 39 C-15 38.34 -15 37.68 -15 37 C-15.66 37 -16.32 37 -17 37 C-17 36.01 -17 35.02 -17 34 C-16.01 34 -15.02 34 -14 34 C-14 33.34 -14 32.68 -14 32 C-13.374 32.072 -12.747 32.144 -12.102 32.219 C-11.693 32.265 -11.693 32.265 -9.625 32.5 C-9.219 32.546 -9.219 32.546 -7.164 32.781 C-5 33 -5 33 -3 33 C-1.191 29.157 -0.567 26.242 -1 22 C-3.087 16.574 -3.087 16.574 -6.188 14.625 C-6.786 14.419 -7.384 14.213 -8 14 C-8.526 8.744 -8.526 8.744 -8 6 C-5.125 3.625 -5.125 3.625 -2 2 C-1.34 1.34 -0.68 0.68 0 0 Z " fill="#F7F2EA" transform="translate(62,148)"/>
<path d="M0 0 C0.33 0 0.66 0 1 0 C1 6.6 1 13.2 1 20 C0.34 20 -0.32 20 -1 20 C-0.938 20.949 -0.876 21.898 -0.812 22.875 C-0.843 23.391 -0.843 23.391 -1 26 C-4.583 28.389 -6.314 28.269 -10.562 28.25 C-11.141 28.253 -11.141 28.253 -14.066 28.266 C-17 28 -17 28 -19 26 C-18.701 21.518 -17.371 18.739 -15 15 C-13.932 12.691 -12.969 10.354 -12 8 C-8.37 8 -4.74 8 -1 8 C-0.67 5.36 -0.34 2.72 0 0 Z " fill="#5F4125" transform="translate(130,156)"/>
<path d="M0 0 C0.392 0.598 0.784 1.196 1.188 1.812 C3 4 3 4 5.562 5.438 C8.574 7.368 9.122 8.568 10 12 C10.358 15.432 10.159 17.58 8.938 20.812 C7 23 7 23 3.625 24.125 C0 24 0 24 -2.688 21.875 C-3.451 20.926 -4.214 19.977 -5 19 C-5.371 18.629 -5.371 18.629 -7.25 16.75 C-9.663 12.959 -9.807 9.419 -10 5 C-6.27 2.966 -4.331 2 0 2 C0 1.34 0 0.68 0 0 Z " fill="#614124" transform="translate(52,158)"/>
<path d="M0 0 C3.028 0.233 4.524 0.45 6.547 2.785 C10.725 10.693 11.618 16.361 9.863 25.117 C8.735 27.577 7.469 28.045 5 29 C5 28.34 5 27.68 5 27 C4.422 26.876 3.845 26.752 3.25 26.625 C0.814 25.948 -0.904 25.434 -3 24 C-5.277 17.683 -5.676 11.511 -3.188 5.25 C-1.339 1.339 -1.339 1.339 0 0 Z " fill="#C77534" transform="translate(65,14)"/>
<path d="M0 0 C1.32 0.33 2.64 0.66 4 1 C4.33 4.3 4.66 7.6 5 11 C4.258 11.413 3.515 11.825 2.75 12.25 C0 14 0 14 -2.062 16.25 C-2.702 16.828 -3.341 17.405 -4 18 C-5.343 17.706 -6.677 17.372 -8 17 C-9.367 17.953 -10.703 18.954 -12 20 C-12.99 20 -13.98 20 -15 20 C-15 19.34 -15 18.68 -15 18 C-15.99 18.66 -16.98 19.32 -18 20 C-18.99 20 -19.98 20 -21 20 C-21 19.01 -21 18.02 -21 17 C-22.98 17 -24.96 17 -27 17 C-27 16.34 -27 15.68 -27 15 C-26.34 15 -25.68 15 -25 15 C-25 14.34 -25 13.68 -25 13 C-24.34 13 -23.68 13 -23 13 C-22.67 11.68 -22.34 10.36 -22 9 C-21.01 9 -20.02 9 -19 9 C-18.01 8.67 -17.02 8.34 -16 8 C-15.67 9.65 -15.34 11.3 -15 13 C-14.71 12.693 -14.71 12.693 -13.242 11.137 C-5.483 3.109 -5.483 3.109 0 1 C0 0.67 0 0.34 0 0 Z " fill="#3B2B1A" transform="translate(57,25)"/>
<path d="M0 0 C1.98 0 3.96 0 6 0 C6 0.99 6 1.98 6 3 C7.65 2.67 9.3 2.34 11 2 C11 2.66 11 3.32 11 4 C11.99 4 12.98 4 14 4 C12.231 7.813 9.967 11.292 7.688 14.812 C7.287 15.434 6.886 16.055 6.473 16.696 C3.759 20.883 0.964 24.985 -2 29 C-4.31 28.67 -6.62 28.34 -9 28 C-9 24.056 -7.506 22.948 -5 20 C-2.719 16.578 -2.85 15.594 -3.062 11.625 C-3.163 7.176 -2.868 4.585 0 1 C0 0.67 0 0.34 0 0 Z " fill="#A06431" transform="translate(30,42)"/>
<path d="M0 0 C7.429 -0.286 7.429 -0.286 11 2 C10.433 5.966 9.543 8.863 7 12 C3.312 13.312 3.312 13.312 0 14 C2.714 12.643 4.113 13.226 7 14 C7.99 14.66 8.98 15.32 10 16 C10 19 10 19 9 20.688 C5.847 22.757 2.611 22.402 -1 22 C-3.41 21.47 -5.653 20.782 -8 20 C-7.571 15.604 -6.355 12.573 -4.055 8.812 C-2.411 5.988 -1.234 3.023 0 0 Z " fill="#3C2E20" transform="translate(71,167)"/>
<path d="M0 0 C6.355 1.918 6.355 1.918 8.098 4.84 C8.854 6.882 9.473 8.887 10 11 C10.173 11.541 10.347 12.081 10.526 12.638 C11.206 16.027 11.122 19.387 11.098 22.828 C11.096 23.577 11.095 24.326 11.093 25.098 C11.088 27.482 11.075 29.866 11.062 32.25 C11.057 33.87 11.053 35.49 11.049 37.109 C11.038 41.073 11.021 45.036 11 49 C10.01 48.67 9.02 48.34 8 48 C8 48.99 8 49.98 8 51 C7.34 51 6.68 51 6 51 C5.691 50.196 5.381 49.391 5.062 48.562 C4 46 4 46 3 45 C2.657 40.29 2.955 36.774 4.5 32.312 C7.314 23.435 7.238 15.678 3 7.312 C2.722 6.826 2.722 6.826 1.312 4.363 C0 2 0 2 0 0 Z " fill="#301E0D" transform="translate(126,105)"/>
<path d="M0 0 C1.315 0.282 2.627 0.576 3.938 0.875 C4.668 1.037 5.399 1.2 6.152 1.367 C8 2 8 2 9 4 C8.67 4.66 8.34 5.32 8 6 C8.598 6.248 9.196 6.495 9.812 6.75 C12.352 8.201 13.469 9.522 15 12 C15.144 12.598 15.289 13.196 15.438 13.812 C16 16 16 16 18 19.312 C19.61 22.003 20.044 23.316 20.5 26.562 C21.114 30.781 22.462 32.643 25 36 C24.67 36.165 24.67 36.165 23 37 C18.694 33.34 16.217 28.831 15.562 23.312 C15 20 15 20 12.438 17.562 C11.633 17.047 10.829 16.531 10 16 C9.879 16.638 9.758 17.276 9.633 17.934 C9.465 18.76 9.298 19.586 9.125 20.438 C8.963 21.261 8.8 22.085 8.633 22.934 C8.424 23.616 8.215 24.297 8 25 C7.34 25.33 6.68 25.66 6 26 C-0.478 7.414 -0.478 7.414 0 0 Z " fill="#443323" transform="translate(77,35)"/>
<path d="M0 0 C0.66 0.33 1.32 0.66 2 1 C1.67 4.96 1.34 8.92 1 13 C2.32 13 3.64 13 5 13 C5.363 14.456 5.715 15.915 6.062 17.375 C6.26 18.187 6.457 18.999 6.66 19.836 C7 22 7 22 6 24 C5.67 24 5.34 24 5 24 C5.311 25.584 5.624 27.167 5.938 28.75 C6.112 29.632 6.286 30.513 6.465 31.422 C6.924 33.632 7.433 35.815 8 38 C7.34 38 6.68 38 6 38 C5.67 38.99 5.34 39.98 5 41 C4.175 41.165 4.175 41.165 0 42 C0 41.34 0 40.68 0 40 C-0.99 39.67 -1.98 39.34 -3 39 C-3.66 39.66 -4.32 40.32 -5 41 C-6.082 36.826 -6.66 34.381 -4.766 30.418 C-3.696 28.719 -2.59 27.043 -1.445 25.395 C0.096 22.841 0.693 20.954 1 18 C0.691 17.113 0.381 16.226 0.062 15.312 C-1.435 10.644 -2.265 4.53 0 0 Z " fill="#B36D33" transform="translate(45,116)"/>
<path d="M0 0 C0.799 0.018 1.598 0.036 2.422 0.055 C3.025 0.078 3.628 0.101 4.25 0.125 C4.25 1.445 4.25 2.765 4.25 4.125 C8.54 4.785 12.83 5.445 17.25 6.125 C17.25 6.455 17.25 6.785 17.25 7.125 C9.614 7.949 2.096 8.174 -5.572 8.105 C-11.031 8.076 -16.328 8.437 -21.75 9.125 C-21.75 9.785 -21.75 10.445 -21.75 11.125 C-23.73 11.125 -25.71 11.125 -27.75 11.125 C-27.131 10.774 -26.513 10.424 -25.875 10.062 C-22.994 7.436 -22.595 4.859 -21.75 1.125 C-20.858 1.22 -19.966 1.316 -19.047 1.414 C-17.876 1.525 -16.706 1.636 -15.5 1.75 C-14.34 1.866 -13.18 1.982 -11.984 2.102 C-7.539 2.134 -4.547 -0.134 0 0 Z " fill="#DBCDBB" transform="translate(105.75,177.875)"/>
<path d="M0 0 C4.01 0.08 6.791 1.237 10.25 3.312 C10.25 5.292 10.25 7.273 10.25 9.312 C7.402 10.737 4.922 10.482 1.75 10.5 C0.585 10.514 -0.581 10.528 -1.781 10.543 C-4.75 10.312 -4.75 10.312 -6.75 8.312 C-6.293 2.832 -5.885 0.49 0 0 Z " fill="#40301F" transform="translate(117.75,173.6875)"/>
<path d="M0 0 C2.438 0.375 2.438 0.375 5 1 C6.41 3.82 6.245 5.87 6 9 C4.938 11.812 4.938 11.812 3 14 C-0.375 15.125 -0.375 15.125 -4 15 C-7.289 12.442 -9.427 9.861 -11 6 C-10.072 6.227 -9.144 6.454 -8.188 6.688 C-5 7 -5 7 -3.25 5.812 C-1.958 3.939 -0.93 2.076 0 0 Z " fill="#36291A" transform="translate(56,167)"/>
<path d="M0 0 C0.875 2.562 0.875 2.562 1 6 C-1.458 10.109 -4.528 13.21 -9 15 C-14.313 15.422 -17.708 15.511 -22 12 C-22.33 11.01 -22.66 10.02 -23 9 C-22.192 9.058 -21.384 9.116 -20.551 9.176 C-11.731 9.548 -11.731 9.548 -8 6.75 C-7.34 5.843 -6.68 4.935 -6 4 C-2.216 0 -2.216 0 0 0 Z " fill="#4E3D2B" transform="translate(45,84)"/>
<path d="M0 0 C0.33 0 0.66 0 1 0 C1.026 0.748 1.052 1.495 1.078 2.266 C1.549 10.44 1.549 10.44 4.062 13.562 C4.702 14.037 5.341 14.511 6 15 C6 15.66 6 16.32 6 17 C6.825 17.33 6.825 17.33 11 19 C10.427 21.867 10.139 22.861 8 25 C7.875 27.625 7.875 27.625 8 30 C5.017 28.508 4.967 26.111 3.922 23.125 C2.99 20.978 1.981 19.556 0.438 17.812 C-1.84 15.184 -3.077 13.324 -4 10 C-3.67 9.34 -3.34 8.68 -3 8 C-3.66 7.67 -4.32 7.34 -5 7 C-4.192 5.831 -3.378 4.664 -2.562 3.5 C-2.11 2.85 -1.658 2.201 -1.191 1.531 C-0.798 1.026 -0.405 0.521 0 0 Z " fill="#A95F25" transform="translate(112,135)"/>
<path d="M0 0 C0 0.66 0 1.32 0 2 C0.99 2 1.98 2 3 2 C1.221 5.825 -1.037 9.332 -3.312 12.875 C-3.691 13.474 -4.069 14.074 -4.459 14.691 C-7.045 18.726 -9.718 22.498 -13 26 C-13.99 26 -14.98 26 -16 26 C-15.381 22.641 -14.132 20.553 -12.125 17.812 C-9.452 13.956 -8.035 10.421 -6.715 5.953 C-5.515 2.675 -3.652 0 0 0 Z " fill="#F8DEB5" transform="translate(41,44)"/>
<path d="M0 0 C0.99 0 1.98 0 3 0 C3.33 0.66 3.66 1.32 4 2 C3.67 2.66 3.34 3.32 3 4 C2.916 5.521 2.893 7.047 2.902 8.57 C2.906 9.466 2.909 10.362 2.912 11.285 C2.92 12.222 2.929 13.159 2.938 14.125 C2.942 15.07 2.947 16.015 2.951 16.988 C2.963 19.326 2.979 21.663 3 24 C3.615 23.988 4.23 23.977 4.863 23.965 C5.672 23.956 6.48 23.947 7.312 23.938 C7.713 23.932 7.713 23.932 9.738 23.902 C12 24 12 24 15 25 C15 23.02 15 21.04 15 19 C15.33 19 15.66 19 16 19 C16.103 24.126 16.036 28.95 15 34 C14.567 33.526 14.134 33.051 13.688 32.562 C10.944 30.023 8.382 29.879 4.812 29.938 C3.554 29.958 2.296 29.979 1 30 C0.096 23.674 0.096 18.326 1 12 C-0.32 11.67 -1.64 11.34 -3 11 C-1.68 10.67 -0.36 10.34 1 10 C0.922 9.681 0.922 9.681 0.527 8.066 C0.333 7.24 0.138 6.414 -0.062 5.562 C-0.26 4.739 -0.457 3.915 -0.66 3.066 C-0.772 2.384 -0.884 1.703 -1 1 C-0.67 0.67 -0.34 0.34 0 0 Z " fill="#955E31" transform="translate(69,138)"/>
<path d="M0 0 C0.33 0.66 0.66 1.32 1 2 C1.66 2 2.32 2 3 2 C4 8.75 4 8.75 4 11 C2.104 10.858 0.208 10.711 -1.688 10.562 C-2.743 10.481 -3.799 10.4 -4.887 10.316 C-7.651 10.035 -10.289 9.598 -13 9 C-13 8.34 -13 7.68 -13 7 C-13.66 7 -14.32 7 -15 7 C-15 6.01 -15 5.02 -15 4 C-14.01 4 -13.02 4 -12 4 C-12 3.34 -12 2.68 -12 2 C-11.374 2.072 -10.747 2.144 -10.102 2.219 C-9.284 2.312 -8.467 2.404 -7.625 2.5 C-7.219 2.546 -7.219 2.546 -5.164 2.781 C-3 3 -3 3 -1 3 C-0.67 2.01 -0.34 1.02 0 0 Z " fill="#DBCDBC" transform="translate(60,178)"/>
<path d="M0 0 C2.375 0.562 2.375 0.562 5 2 C7.056 6.952 7.245 11.559 7.188 16.875 C7.181 18.192 7.175 19.51 7.168 20.867 C7 24 7 24 6 25 C5.875 26.6 5.824 28.207 5.812 29.812 C5.798 30.685 5.784 31.558 5.77 32.457 C6.013 35.144 6.784 36.631 8 39 C8 40.32 8 41.64 8 43 C6.68 43 5.36 43 4 43 C2.542 37.939 1.944 35.151 3 30 C3.689 19.764 3.663 9.703 0 0 Z " fill="#4D4132" transform="translate(141,109)"/>
<path d="M0 0 C0.66 0 1.32 0 2 0 C3.982 2.855 5.692 5.508 6 9 C4.921 14.609 2.598 19.56 -1 24 C-1.66 24 -2.32 24 -3 24 C-3.027 22.542 -3.046 21.083 -3.062 19.625 C-3.074 18.813 -3.086 18.001 -3.098 17.164 C-3 15 -3 15 -2 13 C-1.612 10.797 -1.263 8.588 -0.938 6.375 C-0.849 5.781 -0.849 5.781 -0.402 2.773 C-0.27 1.858 -0.137 0.943 0 0 Z " fill="#F5F1EE" transform="translate(87,151)"/>
<path d="M0 0 C0.33 0 0.66 0 1 0 C1.049 0.592 1.098 1.183 1.148 1.793 C1.648 7.075 2.617 11.234 5 16 C3 19 3 19 0.375 19.688 C-0.409 19.791 -1.193 19.894 -2 20 C-2 19.34 -2 18.68 -2 18 C-2.99 17.67 -3.98 17.34 -5 17 C-5.66 17.66 -6.32 18.32 -7 19 C-7.451 13.705 -6.111 10.694 -3.5 6.125 C-3.333 5.829 -3.333 5.829 -2.488 4.328 C-1.67 2.879 -0.837 1.439 0 0 Z " fill="#C87935" transform="translate(47,138)"/>
<path d="M0 0 C3.334 0.17 4.944 0.432 7.688 2.188 C7.122 6.146 5.878 8.853 3.688 12.188 C0.718 11.857 -2.252 11.528 -5.312 11.188 C-5.172 9.541 -5.025 7.895 -4.875 6.25 C-4.794 5.333 -4.713 4.417 -4.629 3.473 C-4.129 -0.14 -3.8 0.215 0 0 Z " fill="#523C25" transform="translate(74.3125,166.8125)"/>
<path d="M0 0 C3 1 3 1 5 2 C5 2.99 5 3.98 5 5 C5.619 5.289 6.238 5.578 6.875 5.875 C9 7 9 7 11 9 C10.67 9.99 10.34 10.98 10 12 C9.67 11.67 9.34 11.34 9 11 C8.67 11.66 8.34 12.32 8 13 C7.34 12.34 6.68 11.68 6 11 C6 10.01 6 9.02 6 8 C5.01 8 4.02 8 3 8 C2.67 8.66 2.34 9.32 2 10 C1.397 9.662 0.793 9.325 0.172 8.977 C-0.627 8.531 -1.427 8.085 -2.25 7.625 C-3.039 7.184 -3.828 6.743 -4.641 6.289 C-6.739 5.143 -8.854 4.054 -11 3 C-8.315 -1.027 -4.355 -0.517 0 0 Z " fill="#473424" transform="translate(134,101)"/>
<path d="M0 0 C2.339 0.287 4.674 0.619 7 1 C7.33 1.99 7.66 2.98 8 4 C8.99 4 9.98 4 11 4 C10.67 7.3 10.34 10.6 10 14 C9.505 13.381 9.01 12.762 8.5 12.125 C5.118 9.25 2.327 8.865 -2 8 C-2.33 9.32 -2.66 10.64 -3 12 C-4.411 8.793 -3.894 7.716 -2.625 4.312 C-1 1 -1 1 0 0 Z " fill="#462F19" transform="translate(92,164)"/>
<path d="M0 0 C2 2 2 2 2 4 C2.66 4 3.32 4 4 4 C4.66 3.01 5.32 2.02 6 1 C7.562 2.062 7.562 2.062 9 4 C8.667 10.333 8.667 10.333 6 13 C3 13.25 3 13.25 0 13 C-2.607 10.393 -2.239 8.527 -2.266 4.973 C-2 3 -2 3 0 0 Z " fill="#0F0D09" transform="translate(50,55)"/>
<path d="M0 0 C4.875 1.75 4.875 1.75 6 4 C4.68 3.67 3.36 3.34 2 3 C4.042 11.446 6.074 19.807 9 28 C9.66 27.34 10.32 26.68 11 26 C10.67 27.98 10.34 29.96 10 32 C9.34 32.165 9.34 32.165 6 33 C5.959 31.804 5.918 30.608 5.875 29.375 C5.257 23.483 2.81 18.458 0.375 13.137 C-1.994 7.731 -2.162 5.596 0 0 Z " fill="#321F0E" transform="translate(75,32)"/>
<path d="M0 0 C2.312 0 2.312 0 5 1 C6.844 3.137 8.07 5.338 9 8 C8.75 10.938 8.75 10.938 8 13 C7.67 12.34 7.34 11.68 7 11 C6.34 10.67 5.68 10.34 5 10 C5.33 9.34 5.66 8.68 6 8 C5.01 8 4.02 8 3 8 C3 7.34 3 6.68 3 6 C2.01 6 1.02 6 0 6 C-0.66 10.62 -1.32 15.24 -2 20 C-2.66 19.67 -3.32 19.34 -4 19 C-5.773 12.036 -4.184 7.332 -1 1 C-0.67 0.67 -0.34 0.34 0 0 Z " fill="#C0733A" transform="translate(65,14)"/>
<path d="M0 0 C1.32 0 2.64 0 4 0 C5.379 1.645 5.379 1.645 6.562 3.812 C8.128 6.63 9.619 8.813 12 11 C10.541 10.94 9.082 10.851 7.625 10.75 C7.219 10.727 7.219 10.727 5.164 10.609 C4.45 10.408 3.736 10.207 3 10 C2.34 8.68 1.68 7.36 1 6 C0.67 8.97 0.34 11.94 0 15 C-0.66 15 -1.32 15 -2 15 C-1.67 15.99 -1.34 16.98 -1 18 C-1.99 18 -2.98 18 -4 18 C-3.912 15.937 -3.804 13.874 -3.688 11.812 C-3.629 10.664 -3.571 9.515 -3.512 8.332 C-2.968 4.791 -2.274 2.763 0 0 Z " fill="#B47543" transform="translate(39,14)"/>
<path d="M0 0 C2.748 2.373 3.711 4.648 5 8 C5.66 8.66 6.32 9.32 7 10 C8.667 13.602 10.219 17.096 11 21 C10.34 21 9.68 21 9 21 C9.66 22.65 10.32 24.3 11 26 C10.01 26.33 9.02 26.66 8 27 C7.67 26.34 7.34 25.68 7 25 C6.01 25.99 5.02 26.98 4 28 C4.046 27.045 4.093 26.09 4.141 25.105 C4.358 17.334 4.006 11.347 0.875 4.074 C0 2 0 2 0 0 Z " fill="#46382A" transform="translate(94,67)"/>
<path d="M0 0 C2 2 2 2 2.188 5.75 C2.105 9.237 1.685 12.575 1 16 C2.114 15.959 3.228 15.917 4.375 15.875 C8 16 8 16 10 18 C8.043 18.67 6.084 19.336 4.125 20 C3.034 20.371 1.944 20.743 0.82 21.125 C-2 22 -2 22 -4 22 C-3.67 17.71 -3.34 13.42 -3 9 C-2.34 9 -1.68 9 -1 9 C-0.67 6.03 -0.34 3.06 0 0 Z " fill="#A95A1F" transform="translate(91,129)"/>
<path d="M0 0 C0.99 0 1.98 0 3 0 C5.052 5.001 5.7 9.655 5 15 C3.5 17.562 3.5 17.562 2 19 C-0.725 15.12 -1.367 12.532 -1.25 7.812 C-1.235 6.767 -1.219 5.722 -1.203 4.645 C-1 2 -1 2 0 0 Z " fill="#8E4417" transform="translate(65,20)"/>
<path d="M0 0 C0.66 0.33 1.32 0.66 2 1 C2 1.66 2 2.32 2 3 C2.99 2.67 3.98 2.34 5 2 C6 5 6 5 5 8 C5.33 8.99 5.66 9.98 6 11 C5.67 11.66 5.34 12.32 5 13 C4.237 12.773 3.474 12.546 2.688 12.312 C2.244 12.261 2.244 12.261 0 12 C-1.812 13.438 -1.812 13.438 -3 15 C-5 12 -5 12 -4.812 10 C-4 8 -4 8 -2.5 6.562 C-0.534 4.515 -0.373 2.763 0 0 Z " fill="#382310" transform="translate(100,91)"/>
<path d="M0 0 C0.33 0 0.66 0 1 0 C0.858 1.417 0.711 2.834 0.562 4.25 C0.481 5.039 0.4 5.828 0.316 6.641 C0 9 0 9 -0.598 11.172 C-1 13 -1 13 0 15 C0.66 15 1.32 15 2 15 C2 17.64 2 20.28 2 23 C0.68 23 -0.64 23 -2 23 C-2 23.66 -2 24.32 -2 25 C-2.66 25 -3.32 25 -4 25 C-4.999 17.671 -5.55 12.573 -2 6 C-1.312 4.007 -0.637 2.01 0 0 Z " fill="#2D1E0F" transform="translate(93,74)"/>
<path d="M0 0 C-1.347 4.715 -3.93 7.425 -8 10 C-13.652 12.283 -19.007 12.217 -25 12 C-25 11.34 -25 10.68 -25 10 C-25.66 9.67 -26.32 9.34 -27 9 C-26.625 8.981 -26.625 8.981 -24.727 8.887 C-17.764 8.439 -11.582 7.315 -5 5 C-5 4.34 -5 3.68 -5 3 C-2.462 0 -2.462 0 0 0 Z " fill="#B36627" transform="translate(73,75)"/>
<path d="M0 0 C1.98 0 3.96 0 6 0 C6 0.99 6 1.98 6 3 C6.66 3.33 7.32 3.66 8 4 C7.546 4.516 7.093 5.031 6.625 5.562 C4.618 8.573 3.873 11.509 3 15 C2.01 15 1.02 15 0 15 C0 12.69 0 10.38 0 8 C-0.66 8 -1.32 8 -2 8 C-2.33 8.66 -2.66 9.32 -3 10 C-2.39 6.442 -1.422 3.317 0 0 Z " fill="#C78046" transform="translate(30,42)"/>
<path d="M0 0 C-0.33 0.784 -0.66 1.567 -1 2.375 C-2 5 -2 5 -2 7 C0.229 6.689 2.459 6.376 4.688 6.062 C5.308 5.975 5.308 5.975 8.449 5.535 C11.325 5.102 14.156 4.604 17 4 C14.326 7.46 11.15 8.07 7 9 C5.35 9 3.7 9 2 9 C1.67 13.62 1.34 18.24 1 23 C0.67 23 0.34 23 0 23 C0 18.38 0 13.76 0 9 C-1.32 9.33 -2.64 9.66 -4 10 C-5 9 -5 9 -5.25 6.125 C-5 3 -5 3 -3.625 1.125 C-2 0 -2 0 0 0 Z " fill="#924B16" transform="translate(50,80)"/>
<path d="M0 0 C3.735 0.498 5.812 0.875 9 3 C9 3.66 9 4.32 9 5 C8.432 5.208 7.863 5.415 7.277 5.629 C1.186 8.059 -2.67 11.13 -7 16 C-7.66 16.66 -8.32 17.32 -9 18 C-8.387 15.038 -7.746 13.619 -6 11 C-6 10.01 -6 9.02 -6 8 C-3.36 7.01 -0.72 6.02 2 5 C1.34 3.35 0.68 1.7 0 0 Z " fill="#4C3C2A" transform="translate(50,22)"/>
<path d="M0 0 C0.598 0.619 1.196 1.238 1.812 1.875 C4 4 4 4 7 6 C9.961 5.641 10.847 5.153 13 3 C13 4.98 13 6.96 13 9 C11.732 9.506 10.46 10.005 9.188 10.5 C8.48 10.778 7.772 11.057 7.043 11.344 C5 12 5 12 2 12 C-0.6 8.1 -0.151 4.526 0 0 Z " fill="#A86026" transform="translate(39,151)"/>
<path d="M0 0 C0.33 0 0.66 0 1 0 C1 2.97 1 5.94 1 9 C4 8 4 8 6 6 C5.579 11.605 5.084 16.721 3 22 C3.66 22.33 4.32 22.66 5 23 C5 26.63 5 30.26 5 34 C4.67 34 4.34 34 4 34 C4 30.7 4 27.4 4 24 C3.01 24 2.02 24 1 24 C0.353 15.986 -0.167 8.042 0 0 Z " fill="#522F12" transform="translate(80,56)"/>
<path d="M0 0 C4.598 4.105 7.644 8.465 8.5 14.562 C9.114 18.781 10.462 20.643 13 24 C12.34 24.33 11.68 24.66 11 25 C5.449 20.282 3.93 14.911 3 8 C2.02 6.981 1.022 5.978 0 5 C-0.188 2.312 -0.188 2.312 0 0 Z " fill="#423527" transform="translate(89,47)"/>
<path d="M0 0 C-3.035 1.585 -5.617 2.422 -9 3 C-9.369 3.086 -9.369 3.086 -11.234 3.523 C-14.472 4.081 -17.528 4.096 -20.812 4.062 C-21.974 4.053 -23.135 4.044 -24.332 4.035 C-25.212 4.024 -26.093 4.012 -27 4 C-27 3.34 -27 2.68 -27 2 C-18.044 -0.465 -9.198 -0.192 0 0 Z " fill="#F1E5D6" transform="translate(111,185)"/>
<path d="M0 0 C1.414 2.639 2.372 5.071 3 8 C2.258 8.413 1.515 8.825 0.75 9.25 C-2 11 -2 11 -4.188 13.188 C-4.786 13.786 -5.384 14.384 -6 15 C-6.66 15 -7.32 15 -8 15 C-8 14.01 -8 13.02 -8 12 C-8.66 12 -9.32 12 -10 12 C-9.67 10.68 -9.34 9.36 -9 8 C-7 8 -5 8 -3 8 C-3 7.34 -3 6.68 -3 6 C-2.34 6 -1.68 6 -1 6 C-0.67 4.02 -0.34 2.04 0 0 Z " fill="#39230F" transform="translate(59,28)"/>
<path d="M0 0 C2 2 2 2 2 6 C4.31 6 6.62 6 9 6 C9.33 6.99 9.66 7.98 10 9 C8.399 9.673 6.794 10.338 5.188 11 C4.294 11.371 3.401 11.742 2.48 12.125 C0 13 0 13 -3 13 C-3 12.34 -3 11.68 -3 11 C-2.34 11 -1.68 11 -1 11 C-1.012 10.374 -1.023 9.747 -1.035 9.102 C-1.044 8.284 -1.053 7.467 -1.062 6.625 C-1.074 5.813 -1.086 5.001 -1.098 4.164 C-1 2 -1 2 0 0 Z " fill="#513A28" transform="translate(40,18)"/>
<path d="M0 0 C0.357 1.327 0.683 2.663 1 4 C1.254 4.928 1.508 5.856 1.77 6.812 C2.072 10.99 0.917 12.225 -1.75 15.375 C-2.108 15.812 -2.108 15.812 -3.922 18.023 C-6 20 -6 20 -9 20 C-8.379 16.601 -7.082 14.467 -5.062 11.688 C-2.384 7.808 -0.977 4.592 0 0 Z " fill="#F5D4AA" transform="translate(34,50)"/>
<path d="M0 0 C0.33 0 0.66 0 1 0 C2.628 4.788 3.312 8.079 2 13 C1.834 13.305 1.834 13.305 0.992 14.848 C-0.174 17.376 -0.406 19.481 -0.625 22.25 C-0.7 23.142 -0.775 24.034 -0.852 24.953 C-0.901 25.629 -0.95 26.304 -1 27 C-1.33 27 -1.66 27 -2 27 C-2 25.02 -2 23.04 -2 21 C-2.66 21 -3.32 21 -4 21 C-4 19.68 -4 18.36 -4 17 C-4.66 17 -5.32 17 -6 17 C-6 16.34 -6 15.68 -6 15 C-5.361 14.897 -4.721 14.794 -4.062 14.688 C-3.722 14.574 -3.722 14.574 -2 14 C-0.997 10.992 -0.697 8.462 -0.438 5.312 C-0.354 4.319 -0.27 3.325 -0.184 2.301 C-0.123 1.542 -0.062 0.782 0 0 Z " fill="#89562E" transform="translate(105,147)"/>
<path d="M0 0 C0.99 0 1.98 0 3 0 C2.34 1.65 1.68 3.3 1 5 C1.344 5.03 1.344 5.03 3.082 5.184 C3.533 5.225 3.533 5.225 5.812 5.438 C6.706 5.519 7.599 5.6 8.52 5.684 C11 6 11 6 14 7 C14.33 5.68 14.66 4.36 15 3 C15.33 4.98 15.66 6.96 16 9 C14.104 8.858 12.208 8.711 10.312 8.562 C9.257 8.481 8.201 8.4 7.113 8.316 C4.349 8.035 1.711 7.598 -1 7 C-1 6.34 -1 5.68 -1 5 C-1.66 5 -2.32 5 -3 5 C-3 4.01 -3 3.02 -3 2 C-2.01 2 -1.02 2 0 2 C0 1.34 0 0.68 0 0 Z " fill="#F2E7D9" transform="translate(48,180)"/>
<path d="M0 0 C4.567 4.567 3.055 14.608 3.062 20.75 C3.047 22.5 3.028 24.25 3 26 C2.67 26 2.34 26 2 26 C2 22.7 2 19.4 2 16 C1.34 16 0.68 16 0 16 C-0.66 16.99 -1.32 17.98 -2 19 C-2.098 12.848 -2.098 12.848 -2 11 C-1.67 10.67 -1.34 10.34 -1 10 C-0.767 8.318 -0.587 6.629 -0.438 4.938 C-0.354 4.018 -0.27 3.099 -0.184 2.152 C-0.123 1.442 -0.062 0.732 0 0 Z " fill="#AA5E22" transform="translate(78,52)"/>
<path d="M0 0 C0.66 0.33 1.32 0.66 2 1 C1.67 4.96 1.34 8.92 1 13 C2.32 13 3.64 13 5 13 C5.625 15.312 5.625 15.312 6 18 C5.34 18.99 4.68 19.98 4 21 C3.67 20.01 3.34 19.02 3 18 C2.34 18 1.68 18 1 18 C-1.237 12.687 -1.439 7.68 -1 2 C-0.67 1.34 -0.34 0.68 0 0 Z " fill="#B46F38" transform="translate(45,116)"/>
<path d="M0 0 C0.33 0 0.66 0 1 0 C1.333 3.585 1.396 5.428 -0.688 8.438 C-1.069 8.86 -1.069 8.86 -3 11 C-3.931 12.26 -4.847 13.532 -5.75 14.812 C-6.493 15.864 -7.235 16.916 -8 18 C-8.66 17.67 -9.32 17.34 -10 17 C-9.674 16.481 -9.348 15.961 -9.012 15.426 C-2.171 4.508 -2.171 4.508 0 0 Z M-12 19 C-12 19.99 -12 20.98 -12 22 C-14.5 24.188 -14.5 24.188 -17 26 C-17 25.01 -17 24.02 -17 23 C-14.5 20.812 -14.5 20.812 -12 19 Z " fill="#B96826" transform="translate(74,76)"/>
<path d="M0 0 C0.66 0 1.32 0 2 0 C1.692 1.647 1.379 3.292 1.062 4.938 C0.888 5.854 0.714 6.771 0.535 7.715 C0 10 0 10 -1 11 C-1.073 13.186 -1.084 15.375 -1.062 17.562 C-1.053 18.76 -1.044 19.958 -1.035 21.191 C-1.024 22.118 -1.012 23.045 -1 24 C-1.66 24 -2.32 24 -3 24 C-3 19.71 -3 15.42 -3 11 C-3.99 10.67 -4.98 10.34 -6 10 C-5.34 8.02 -4.68 6.04 -4 4 C-3.34 4.66 -2.68 5.32 -2 6 C-1.34 4.02 -0.68 2.04 0 0 Z " fill="#301E0E" transform="translate(88,68)"/>
<path d="M0 0 C0.33 0 0.66 0 1 0 C1.33 2.97 1.66 5.94 2 9 C1.34 9 0.68 9 0 9 C0.66 12.96 1.32 16.92 2 21 C1.34 21 0.68 21 0 21 C-4.559 12.278 -4.559 12.278 -3.188 6.375 C-3.016 5.599 -2.845 4.823 -2.668 4.023 C-2 2 -2 2 0 0 Z " fill="#AE652B" transform="translate(51,98)"/>
<path d="M0 0 C0.33 0.66 0.66 1.32 1 2 C3.322 2.407 5.657 2.744 8 3 C7.402 3.268 6.804 3.536 6.188 3.812 C4.028 4.985 2.642 6.194 1 8 C0.67 7.34 0.34 6.68 0 6 C-3 7 -3 7 -4 9 C-4.99 8.67 -5.98 8.34 -7 8 C-6.34 7.01 -5.68 6.02 -5 5 C-5.99 5 -6.98 5 -8 5 C-8.33 4.01 -8.66 3.02 -9 2 C-8.34 2 -7.68 2 -7 2 C-7 2.66 -7 3.32 -7 4 C-4.69 2.68 -2.38 1.36 0 0 Z " fill="#CD8340" transform="translate(49,41)"/>
<path d="M0 0 C0 1.65 0 3.3 0 5 C-0.66 4.67 -1.32 4.34 -2 4 C-2.639 4.949 -3.279 5.897 -3.938 6.875 C-7.264 10.914 -11.041 11.264 -16 12 C-17.337 12.319 -18.672 12.648 -20 13 C-20.66 11.68 -21.32 10.36 -22 9 C-21.192 9.058 -20.384 9.116 -19.551 9.176 C-10.731 9.548 -10.731 9.548 -7 6.75 C-6.34 5.843 -5.68 4.935 -5 4 C-1.108 0 -1.108 0 0 0 Z " fill="#281D11" transform="translate(44,84)"/>
<path d="M0 0 C0.99 0 1.98 0 3 0 C3.33 0.66 3.66 1.32 4 2 C3.67 2.66 3.34 3.32 3 4 C2.848 5.666 2.751 7.337 2.684 9.008 C2.642 9.994 2.6 10.98 2.557 11.996 C2.517 13.029 2.478 14.061 2.438 15.125 C2.394 16.165 2.351 17.206 2.307 18.277 C2.2 20.851 2.098 23.426 2 26 C1.34 26 0.68 26 0 26 C0.33 21.38 0.66 16.76 1 12 C-0.32 11.67 -1.64 11.34 -3 11 C-1.68 10.67 -0.36 10.34 1 10 C0.922 9.681 0.922 9.681 0.527 8.066 C0.333 7.24 0.138 6.414 -0.062 5.562 C-0.26 4.739 -0.457 3.915 -0.66 3.066 C-0.772 2.384 -0.884 1.703 -1 1 C-0.67 0.67 -0.34 0.34 0 0 Z " fill="#A76631" transform="translate(69,138)"/>
<path d="M0 0 C0 0.33 0 0.66 0 1 C-1.98 1 -3.96 1 -6 1 C-5.34 1.33 -4.68 1.66 -4 2 C-4.75 4.938 -4.75 4.938 -6 8 C-8.125 8.875 -8.125 8.875 -10 9 C-10.889 6.09 -11.222 4.547 -10.062 1.688 C-6.834 -0.954 -4.087 -0.268 0 0 Z " fill="#423526" transform="translate(122,174)"/>
<path d="M0 0 C0.934 3.01 1.044 3.867 0 7 C-0.99 7.66 -1.98 8.32 -3 9 C-3.188 11.625 -3.188 11.625 -3 14 C-6.255 13.651 -7.019 12.979 -9.25 10.438 C-9.828 9.633 -10.405 8.829 -11 8 C-10.67 7.34 -10.34 6.68 -10 6 C-9.237 6.227 -8.474 6.454 -7.688 6.688 C-5 7 -5 7 -3.312 5.812 C-1.961 3.947 -0.941 2.1 0 0 Z " fill="#2B1D10" transform="translate(56,167)"/>
<path d="M0 0 C0.054 1.625 0.093 3.25 0.125 4.875 C0.148 5.78 0.171 6.685 0.195 7.617 C0 10 0 10 -2 12 C-2 10.35 -2 8.7 -2 7 C-3.32 6.34 -4.64 5.68 -6 5 C-6 3.68 -6 2.36 -6 1 C-1.125 0 -1.125 0 0 0 Z " fill="#944F19" transform="translate(96,150)"/>
<path d="M0 0 C3.683 0.6 7.345 1.248 11 2 C8.429 4.571 6.395 4.801 2.875 5.625 C1.779 5.885 0.684 6.146 -0.445 6.414 C-1.288 6.607 -2.131 6.801 -3 7 C-3 6.01 -3 5.02 -3 4 C-2.34 4 -1.68 4 -1 4 C-0.67 2.68 -0.34 1.36 0 0 Z " fill="#B36525" transform="translate(90,144)"/>
<path d="M0 0 C3.557 5.336 4.217 11.735 5 18 C3.35 18.33 1.7 18.66 0 19 C0.186 17.762 0.371 16.525 0.562 15.25 C0.954 12.143 0.875 10.015 0 7 C-0.039 4.667 -0.045 2.333 0 0 Z " fill="#A85C1F" transform="translate(65,130)"/>
<path d="M0 0 C0.33 0.66 0.66 1.32 1 2 C0.67 2.99 0.34 3.98 0 5 C0.66 5 1.32 5 2 5 C1.67 5.99 1.34 6.98 1 8 C0.34 8 -0.32 8 -1 8 C-1.99 8.66 -2.98 9.32 -4 10 C-4.99 10 -5.98 10 -7 10 C-7.33 9.01 -7.66 8.02 -8 7 C-5.948 4.752 -4.993 3.998 -2 3 C-1.34 2.01 -0.68 1.02 0 0 Z " fill="#4C3620" transform="translate(49,35)"/>
<path d="M0 0 C5 5 5 5 7 7.188 C9.213 9.193 11.185 10.062 14 11 C13.34 11.33 13.34 11.33 10 13 C10 12.34 10 11.68 10 11 C9.299 10.752 8.597 10.505 7.875 10.25 C4.587 8.82 1.845 7.183 -1 5 C-1 4.01 -1 3.02 -1 2 C-0.67 2 -0.34 2 0 2 C0 1.34 0 0.68 0 0 Z " fill="#8A4413" transform="translate(51,136)"/>
<path d="M0 0 C0.66 0 1.32 0 2 0 C3.4 5.461 2.427 9.693 1 15 C0.01 14.67 -0.98 14.34 -2 14 C-2.18 8.78 -1.971 4.927 0 0 Z " fill="#B4692B" transform="translate(128,134)"/>
<path d="M0 0 C2.375 0.562 2.375 0.562 5 2 C7.126 7.063 7.189 11.616 7 17 C3.273 14.515 3.316 13.326 2.375 9.062 C1.677 5.975 1.001 3.004 0 0 Z " fill="#685848" transform="translate(141,109)"/>
<path d="M0 0 C0.66 0.99 1.32 1.98 2 3 C1.67 3.33 1.34 3.66 1 4 C0.959 6.333 0.958 8.667 1 11 C0.093 10.216 -0.815 9.432 -1.75 8.625 C-4.052 6.699 -6.216 5.178 -9 4 C-8 3 -8 3 -6.152 2.902 C-4.102 2.935 -2.051 2.967 0 3 C0 2.01 0 1.02 0 0 Z " fill="#D07E36" transform="translate(61,48)"/>
<path d="M0 0 C0.808 0.111 1.616 0.222 2.449 0.336 C2.757 0.384 2.757 0.384 4.312 0.625 C3.983 1.615 3.653 2.605 3.312 3.625 C2.054 3.666 0.796 3.707 -0.5 3.75 C-1.208 3.773 -1.915 3.796 -2.645 3.82 C-4.688 3.625 -4.688 3.625 -7.688 1.625 C-4.334 -0.611 -3.78 -0.548 0 0 Z " fill="#4F4437" transform="translate(32.6875,95.375)"/>
<path d="M0 0 C2.31 0 4.62 0 7 0 C6.01 0.33 5.02 0.66 4 1 C2.812 4.562 2.812 4.562 2 8 C3.65 8 5.3 8 7 8 C7 8.33 7 8.66 7 9 C3.7 9 0.4 9 -3 9 C-3 8.34 -3 7.68 -3 7 C-2.01 7 -1.02 7 0 7 C1.125 2.25 1.125 2.25 0 0 Z " fill="#2E2215" transform="translate(116,175)"/>
<path d="M0 0 C1.65 0.33 3.3 0.66 5 1 C4.67 2.65 4.34 4.3 4 6 C2.68 6.33 1.36 6.66 0 7 C-1.125 2.25 -1.125 2.25 0 0 Z " fill="#554635" transform="translate(64,181)"/>
<path d="M0 0 C0.557 0.722 1.114 1.444 1.688 2.188 C4 5 4 5 6.688 7.312 C9.812 10.944 9.76 13.283 10 18 C7.019 16.509 6.968 14.119 5.93 11.133 C4.971 8.934 3.899 7.472 2.312 5.688 C0 3 0 3 0 0 Z " fill="#8A5126" transform="translate(110,147)"/>
<path d="M0 0 C0.33 0 0.66 0 1 0 C0.67 2.97 0.34 5.94 0 9 C-0.66 9 -1.32 9 -2 9 C-2.33 9.66 -2.66 10.32 -3 11 C-3.99 10.67 -4.98 10.34 -6 10 C-5.01 7.69 -4.02 5.38 -3 3 C-2.34 3 -1.68 3 -1 3 C-0.67 2.01 -0.34 1.02 0 0 Z " fill="#BD6B28" transform="translate(114,127)"/>
<path d="M0 0 C2.748 2.373 3.711 4.648 5 8 C5.66 8.66 6.32 9.32 7 10 C7.75 12.5 7.75 12.5 8 15 C7.34 15.66 6.68 16.32 6 17 C4.996 14.543 3.996 12.085 3 9.625 C2.714 8.926 2.428 8.228 2.133 7.508 C0 2.227 0 2.227 0 0 Z " fill="#4E4133" transform="translate(94,67)"/>
<path d="M0 0 C2.31 0 4.62 0 7 0 C7.66 1.32 8.32 2.64 9 4 C7.68 3.67 6.36 3.34 5 3 C4.67 3.495 4.67 3.495 3 6 C2.01 5.67 1.02 5.34 0 5 C0 3.35 0 1.7 0 0 Z " fill="#5F5246" transform="translate(51,54)"/>
<path d="M0 0 C0.33 0 0.66 0 1 0 C1.082 1.031 1.165 2.062 1.25 3.125 C2.103 7.53 3.342 9.485 6 13 C5.67 13.165 5.67 13.165 4 14 C1.028 11.452 -0.415 8.547 -2 5 C-2 4.34 -2 3.68 -2 3 C-1.34 3 -0.68 3 0 3 C0 2.01 0 1.02 0 0 Z " fill="#564B3E" transform="translate(96,58)"/>
<path d="M0 0 C2.5 1.312 2.5 1.312 5 3 C5 3.99 5 4.98 5 6 C2.69 6.33 0.38 6.66 -2 7 C-1.34 4.69 -0.68 2.38 0 0 Z " fill="#3B2C1C" transform="translate(76,180)"/>
<path d="M0 0 C0 4.39 -2.128 5.769 -5 9 C-5.454 8.526 -5.907 8.051 -6.375 7.562 C-8 6 -8 6 -10 5 C-5.25 3 -5.25 3 -3 3 C-1.375 1.5 -1.375 1.5 0 0 Z " fill="#302011" transform="translate(45,35)"/>
<path d="M0 0 C0.33 0 0.66 0 1 0 C2.335 5.208 1.958 10.005 0 15 C-0.495 15.33 -0.495 15.33 -3 17 C-3.688 14.75 -3.688 14.75 -4 12 C-3.546 11.402 -3.093 10.804 -2.625 10.188 C-0.213 6.941 -0.333 3.998 0 0 Z " fill="#AE6025" transform="translate(74,26)"/>
<path d="M0 0 C0.99 0 1.98 0 3 0 C2.34 2.31 1.68 4.62 1 7 C-0.32 7 -1.64 7 -3 7 C-2.25 2.25 -2.25 2.25 0 0 Z " fill="#584734" transform="translate(73,180)"/>
<path d="M0 0 C2.007 0.287 4.009 0.619 6 1 C5.812 2.875 5.812 2.875 5 5 C2.438 6.25 2.438 6.25 0 7 C-0.381 5.009 -0.713 3.007 -1 1 C-0.67 0.67 -0.34 0.34 0 0 Z " fill="#CCBCA7" transform="translate(84,179)"/>
<path d="M0 0 C6.152 0.586 6.152 0.586 8 1 C8.33 1.66 8.66 2.32 9 3 C6.69 3 4.38 3 2 3 C1.752 3.639 1.505 4.279 1.25 4.938 C0 7 0 7 -2.125 7.75 C-2.434 7.791 -2.434 7.791 -4 8 C-4 7.34 -4 6.68 -4 6 C-3 5 -2 4 -1 3 C-0.67 2.01 -0.34 1.02 0 0 Z " fill="#281B0D" transform="translate(90,172)"/>
<path d="M0 0 C0.66 0.33 1.32 0.66 2 1 C1.67 2.65 1.34 4.3 1 6 C-0.98 6.66 -2.96 7.32 -5 8 C-4.67 6.02 -4.34 4.04 -4 2 C-3.01 2.33 -2.02 2.66 -1 3 C-0.67 2.01 -0.34 1.02 0 0 Z " fill="#33281D" transform="translate(87,172)"/>
<path d="M0 0 C2.938 1.312 2.938 1.312 6 3 C6.33 3.99 6.66 4.98 7 6 C5.68 6 4.36 6 3 6 C2.67 6.66 2.34 7.32 2 8 C1.34 8 0.68 8 0 8 C0.186 7.237 0.371 6.474 0.562 5.688 C1 3 1 3 0 0 Z " fill="#4F3924" transform="translate(53,161)"/>
<path d="M0 0 C0.33 0.66 0.66 1.32 1 2 C0.526 2.784 0.051 3.568 -0.438 4.375 C-2 7 -2 7 -2 11 C-1.01 11.33 -0.02 11.66 1 12 C-1.31 11.67 -3.62 11.34 -6 11 C-6 7.056 -4.506 5.948 -2 3 C-1.34 2.01 -0.68 1.02 0 0 Z " fill="#A87547" transform="translate(27,59)"/>
<path d="M0 0 C5.5 -0.367 5.5 -0.367 7.875 1.375 C9 3 9 3 9 5 C5.7 4.34 2.4 3.68 -1 3 C-0.67 2.01 -0.34 1.02 0 0 Z " fill="#462A13" transform="translate(52,46)"/>
<path d="M0 0 C0.99 0.33 1.98 0.66 3 1 C2.928 1.58 2.856 2.16 2.781 2.758 C2.253 7.201 1.885 11.516 2 16 C-0.421 12.368 -0.21 10.617 -0.125 6.312 C-0.116 5.723 -0.116 5.723 -0.07 2.738 C-0.047 1.835 -0.024 0.931 0 0 Z " fill="#342515" transform="translate(142,134)"/>
<path d="M0 0 C1.231 3.694 0.644 6.206 0 10 C-0.99 10 -1.98 10 -3 10 C-3 9.34 -3 8.68 -3 8 C-3.66 7.67 -4.32 7.34 -5 7 C-3.35 4.69 -1.7 2.38 0 0 Z " fill="#9D541A" transform="translate(112,135)"/>
<path d="M0 0 C1.98 0 3.96 0 6 0 C6 0.99 6 1.98 6 3 C6.66 3.33 7.32 3.66 8 4 C4.713 4.8 3.29 5.097 0 4 C0 2.68 0 1.36 0 0 Z " fill="#AF723F" transform="translate(30,42)"/>
<path d="M0 0 C0.33 0 0.66 0 1 0 C1.121 0.675 1.242 1.351 1.367 2.047 C1.535 2.939 1.702 3.831 1.875 4.75 C2.037 5.632 2.2 6.513 2.367 7.422 C2.968 9.869 3.78 11.806 5 14 C3.02 13.34 1.04 12.68 -1 12 C-0.67 8.04 -0.34 4.08 0 0 Z " fill="#B66325" transform="translate(63,26)"/>
<path d="M0 0 C2.31 0.66 4.62 1.32 7 2 C4.826 4.174 2.687 5.522 0 7 C-0.66 7 -1.32 7 -2 7 C-1.34 4.69 -0.68 2.38 0 0 Z " fill="#60442C" transform="translate(118,164)"/>
<path d="M0 0 C0.99 0.33 1.98 0.66 3 1 C2.67 5.29 2.34 9.58 2 14 C1.67 14 1.34 14 1 14 C0.805 11.949 0.609 9.898 0.414 7.848 C0.277 7.238 0.141 6.628 0 6 C-0.66 5.67 -1.32 5.34 -2 5 C-1.125 1.125 -1.125 1.125 0 0 Z " fill="#B27441" transform="translate(84,150)"/>
<path d="M0 0 C6.051 0.237 6.051 0.237 8.613 2.297 C10 3.875 10 3.875 12 7 C11.67 7.99 11.34 8.98 11 10 C10.299 9.072 9.597 8.144 8.875 7.188 C6.327 4.099 3.716 2.556 0 1 C0 0.67 0 0.34 0 0 Z " fill="#D18B4D" transform="translate(115,100)"/>
<path d="M0 0 C0.66 0 1.32 0 2 0 C2.33 2.31 2.66 4.62 3 7 C2.01 7.33 1.02 7.66 0 8 C0 7.01 0 6.02 0 5 C-0.66 5 -1.32 5 -2 5 C-1.125 1.125 -1.125 1.125 0 0 Z " fill="#2D1D0E" transform="translate(51,35)"/>
<path d="M0 0 C1.315 0.282 2.627 0.576 3.938 0.875 C4.668 1.037 5.399 1.2 6.152 1.367 C8 2 8 2 9 4 C8.34 4.66 7.68 5.32 7 6 C5.062 5.938 5.062 5.938 3 5 C1.25 2.438 1.25 2.438 0 0 Z " fill="#514130" transform="translate(77,35)"/>
<path d="M0 0 C2 2 2 2 2 6 C3.32 6.33 4.64 6.66 6 7 C5.608 7.155 5.608 7.155 3.625 7.938 C1 9 1 9 -1 10 C-1.125 2.25 -1.125 2.25 0 0 Z " fill="#8D4A1D" transform="translate(40,18)"/>
<path d="M0 0 C0.66 0.66 1.32 1.32 2 2 C5.625 2.125 5.625 2.125 9 2 C9.33 2.66 9.66 3.32 10 4 C9.062 6.125 9.062 6.125 8 8 C7.67 7.01 7.34 6.02 7 5 C4.69 5 2.38 5 0 5 C0 3.35 0 1.7 0 0 Z " fill="#EBE0D2" transform="translate(102,174)"/>
<path d="M0 0 C0.33 0.66 0.66 1.32 1 2 C8.75 1.125 8.75 1.125 11 0 C11.33 1.65 11.66 3.3 12 5 C11.505 4.835 11.01 4.67 10.5 4.5 C6.966 3.793 3.603 3.94 0 4 C0 2.68 0 1.36 0 0 Z " fill="#784F2B" transform="translate(70,164)"/>
<path d="M0 0 C0 0.66 0 1.32 0 2 C-0.99 2.66 -1.98 3.32 -3 4 C-3.688 6.625 -3.688 6.625 -4 9 C-4.66 7.68 -5.32 6.36 -6 5 C-7.65 5.33 -9.3 5.66 -11 6 C-8.24 2.78 -4.353 0 0 0 Z " fill="#763A10" transform="translate(109,143)"/>
<path d="M0 0 C4.43 1.477 5.969 4.937 8 9 C7.67 9.495 7.67 9.495 6 12 C6 11.34 6 10.68 6 10 C5.34 9.67 4.68 9.34 4 9 C4.33 8.34 4.66 7.68 5 7 C4.01 7 3.02 7 2 7 C1.34 4.69 0.68 2.38 0 0 Z " fill="#D58141" transform="translate(66,15)"/>
<path d="M0 0 C0.99 0 1.98 0 3 0 C2.34 1.65 1.68 3.3 1 5 C2.32 5.33 3.64 5.66 5 6 C-0.75 6.125 -0.75 6.125 -3 5 C-3 4.01 -3 3.02 -3 2 C-2.01 2 -1.02 2 0 2 C0 1.34 0 0.68 0 0 Z " fill="#E7DCCC" transform="translate(48,180)"/>
<path d="M0 0 C0.33 0 0.66 0 1 0 C1.466 3.181 1.51 5.253 -0.336 7.957 C-1.843 9.694 -3.379 11.37 -5 13 C-5.33 12.34 -5.66 11.68 -6 11 C-4.785 8.398 -4.785 8.398 -3.062 5.375 C-2.78 4.874 -2.78 4.874 -1.348 2.336 C-0.903 1.565 -0.458 0.794 0 0 Z " fill="#D58741" transform="translate(47,138)"/>
<path d="M0 0 C0.99 0.33 1.98 0.66 3 1 C3 2.65 3 4.3 3 6 C2.34 6 1.68 6 1 6 C1.33 7.98 1.66 9.96 2 12 C1.34 11.67 0.68 11.34 0 11 C0 7.37 0 3.74 0 0 Z " fill="#2F2418" transform="translate(14,76)"/>
<path d="M0 0 C1.65 0.33 3.3 0.66 5 1 C4.67 1.165 4.67 1.165 3 2 C2.34 1.67 1.68 1.34 1 1 C1.351 2.072 1.701 3.145 2.062 4.25 C3.231 8.923 3.231 8.923 2 12 C-0.488 8.716 -1.032 7.388 -0.688 3.188 C-0.461 2.136 -0.234 1.084 0 0 Z " fill="#372616" transform="translate(76,34)"/>
<path d="M0 0 C3.735 0.498 5.812 0.875 9 3 C6.291 4.354 3.991 4.065 1 4 C0.67 2.68 0.34 1.36 0 0 Z " fill="#524637" transform="translate(50,22)"/>
<path d="M0 0 C0.33 0 0.66 0 1 0 C1.33 1.98 1.66 3.96 2 6 C0.35 7.32 -1.3 8.64 -3 10 C-3 8.02 -3 6.04 -3 4 C-2.34 3.67 -1.68 3.34 -1 3 C-0.67 2.01 -0.34 1.02 0 0 Z " fill="#493521" transform="translate(44,84)"/>
<path d="M0 0 C-0.66 1.32 -1.32 2.64 -2 4 C-3.98 4 -5.96 4 -8 4 C-8 3.01 -8 2.02 -8 1 C-5.237 0.403 -2.84 0 0 0 Z " fill="#3C2915" transform="translate(58,64)"/>
<path d="M0 0 C3.131 3.386 3.336 5.711 3.188 10.25 C3.174 10.789 3.174 10.789 3.105 13.516 C3.071 14.335 3.036 15.155 3 16 C2.67 16 2.34 16 2 16 C2 12.7 2 9.4 2 6 C1.34 6 0.68 6 0 6 C-1.125 2.25 -1.125 2.25 0 0 Z " fill="#BC6A28" transform="translate(78,62)"/>
<path d="M0 0 C0.66 0 1.32 0 2 0 C3.524 2.983 4.939 5.818 6 9 C4.68 9 3.36 9 2 9 C1.34 6.03 0.68 3.06 0 0 Z " fill="#D5803D" transform="translate(40,15)"/>
<path d="M0 0 C-0.33 0.763 -0.66 1.526 -1 2.312 C-2 5 -2 5 -2 8 C-2.99 8.33 -3.98 8.66 -5 9 C-5.367 3.5 -5.367 3.5 -3.625 1.125 C-2 0 -2 0 0 0 Z " fill="#9D5823" transform="translate(50,80)"/>
<path d="M0 0 C0.66 0 1.32 0 2 0 C2 1.65 2 3.3 2 5 C1.34 5.33 1.34 5.33 -2 7 C-2.125 4.625 -2.125 4.625 -2 2 C-1.34 1.34 -0.68 0.68 0 0 Z " fill="#19110A" transform="translate(31,77)"/>
<path d="M0 0 C2 1 2 1 3 2 C3.364 3.66 3.7 5.327 4 7 C3.01 7 2.02 7 1 7 C1 6.01 1 5.02 1 4 C-0.32 3.67 -1.64 3.34 -3 3 C-2.01 2.01 -1.02 1.02 0 0 Z " fill="#48301C" transform="translate(35,38)"/>
<path d="M0 0 C0.66 0.33 1.32 0.66 2 1 C1.34 2.98 0.68 4.96 0 7 C-0.66 7 -1.32 7 -2 7 C-2 7.66 -2 8.32 -2 9 C-2.66 9 -3.32 9 -4 9 C-2.941 5.597 -1.991 2.986 0 0 Z " fill="#574A39" transform="translate(34,31)"/>
<path d="M0 0 C0.33 0.165 0.33 0.165 2 1 C2 1.66 2 2.32 2 3 C2.99 2.67 3.98 2.34 5 2 C5 3.32 5 4.64 5 6 C3.68 6 2.36 6 1 6 C0.67 4.02 0.34 2.04 0 0 Z " fill="#291D10" transform="translate(100,91)"/>
<path d="M0 0 C1.32 0 2.64 0 4 0 C3.25 1.938 3.25 1.938 2 4 C-0.125 4.75 -0.125 4.75 -2 5 C-1.125 1.125 -1.125 1.125 0 0 Z " fill="#F1C99C" transform="translate(27,65)"/>
<path d="M0 0 C0.99 0.33 1.98 0.66 3 1 C2 3 1 5 0 7 C-0.66 7 -1.32 7 -2 7 C-2 5.35 -2 3.7 -2 2 C-1.34 2 -0.68 2 0 2 C0 1.34 0 0.68 0 0 Z " fill="#EAE8E5" transform="translate(86,168)"/>
<path d="M0 0 C2 3 2 3 1.625 5.688 C1.419 6.451 1.212 7.214 1 8 C-0.5 6.75 -0.5 6.75 -2 5 C-2 3.68 -2 2.36 -2 1 C-1.34 0.67 -0.68 0.34 0 0 Z " fill="#BF7130" transform="translate(49,129)"/>
<path d="M0 0 C0.33 0 0.66 0 1 0 C1.221 2.124 1.427 4.249 1.625 6.375 C1.741 7.558 1.857 8.742 1.977 9.961 C1.984 10.964 1.992 11.967 2 13 C1.34 13.66 0.68 14.32 0 15 C-1.206 9.773 -0.756 5.235 0 0 Z " fill="#C07330" transform="translate(130,122)"/>
<path d="M0 0 C0.66 0.66 1.32 1.32 2 2 C1.625 4.625 1.625 4.625 1 7 C0.01 6.34 -0.98 5.68 -2 5 C-2 3.68 -2 2.36 -2 1 C-1.34 0.67 -0.68 0.34 0 0 Z " fill="#A76022" transform="translate(87,91)"/>
<path d="M0 0 C0.99 0.99 1.98 1.98 3 3 C3 3.66 3 4.32 3 5 C4.32 5 5.64 5 7 5 C6.67 5.99 6.34 6.98 6 8 C5.34 7.67 4.68 7.34 4 7 C3.67 7.99 3.34 8.98 3 10 C2.01 6.7 1.02 3.4 0 0 Z " fill="#2D2016" transform="translate(95,66)"/>
<path d="M0 0 C0.33 1.32 0.66 2.64 1 4 C0.67 4.165 0.67 4.165 -1 5 C-1.414 6.848 -1.414 6.848 -1.625 9.062 C-1.749 10.362 -1.873 11.661 -2 13 C-2.33 13 -2.66 13 -3 13 C-3.081 11.397 -3.139 9.792 -3.188 8.188 C-3.222 7.294 -3.257 6.401 -3.293 5.48 C-2.951 2.584 -2.246 1.774 0 0 Z " fill="#BD6C2D" transform="translate(77,58)"/>
<path d="M0 0 C1.562 1.188 1.562 1.188 3 3 C2.812 5.625 2.812 5.625 2 8 C1.67 8.165 1.67 8.165 0 9 C-0.99 8.34 -1.98 7.68 -3 7 C-2.34 6.67 -1.68 6.34 -1 6 C-0.375 2.938 -0.375 2.938 0 0 Z " fill="#E2D8CC" transform="translate(129,176)"/>
<path d="M0 0 C0.33 0.99 0.66 1.98 1 3 C1.66 3.33 2.32 3.66 3 4 C2.01 4.99 1.02 5.98 0 7 C0 6.34 0 5.68 0 5 C-0.66 5 -1.32 5 -2 5 C-2 3.68 -2 2.36 -2 1 C-1.34 0.67 -0.68 0.34 0 0 Z " fill="#EDE6DC" transform="translate(63,175)"/>
<path d="M0 0 C1.98 0 3.96 0 6 0 C6 0.66 6 1.32 6 2 C4.188 3.062 4.188 3.062 2 4 C1.01 3.67 0.02 3.34 -1 3 C-0.67 2.01 -0.34 1.02 0 0 Z " fill="#B5662A" transform="translate(72,162)"/>
<path d="M0 0 C1.32 1.32 2.64 2.64 4 4 C3.67 4.99 3.34 5.98 3 7 C1.68 6.34 0.36 5.68 -1 5 C-1 4.01 -1 3.02 -1 2 C-0.67 2 -0.34 2 0 2 C0 1.34 0 0.68 0 0 Z " fill="#944B14" transform="translate(51,136)"/>
<path d="M0 0 C0.66 0.66 1.32 1.32 2 2 C2.66 1.34 3.32 0.68 4 0 C5.125 3.75 5.125 3.75 4 6 C3.01 5.67 2.02 5.34 1 5 C0.67 5.165 0.67 5.165 -1 6 C-0.67 4.02 -0.34 2.04 0 0 Z " fill="#A95D22" transform="translate(47,134)"/>
<path d="M0 0 C2.31 0.66 4.62 1.32 7 2 C7 2.99 7 3.98 7 5 C4.062 4.188 4.062 4.188 1 3 C0.67 2.01 0.34 1.02 0 0 Z " fill="#544535" transform="translate(132,101)"/>
<path d="M0 0 C0.99 0 1.98 0 3 0 C3.33 1.32 3.66 2.64 4 4 C3.34 4 2.68 4 2 4 C1.67 4.66 1.34 5.32 1 6 C0.34 6 -0.32 6 -1 6 C-0.67 4.02 -0.34 2.04 0 0 Z " fill="#9E4E1D" transform="translate(65,20)"/>
<path d="M0 0 C0.66 0 1.32 0 2 0 C2.845 3.378 3.108 5.675 2 9 C-0.29 5.565 -0.178 4.015 0 0 Z " fill="#3D2812" transform="translate(86,84)"/>
<path d="M0 0 C0.33 0.66 0.66 1.32 1 2 C1.66 2 2.32 2 3 2 C2.67 3.65 2.34 5.3 2 7 C1.01 6.67 0.02 6.34 -1 6 C-0.67 4.02 -0.34 2.04 0 0 Z " fill="#FAE3C0" transform="translate(35,51)"/>
<path d="M0 0 C0.99 0.33 1.98 0.66 3 1 C2.67 1.99 2.34 2.98 2 4 C1.34 4 0.68 4 0 4 C-0.99 4.66 -1.98 5.32 -3 6 C-3.99 6 -4.98 6 -6 6 C-5.67 5.34 -5.34 4.68 -5 4 C-4.34 3.856 -3.68 3.711 -3 3.562 C-2.34 3.377 -1.68 3.191 -1 3 C-0.67 2.01 -0.34 1.02 0 0 Z " fill="#4D2C13" transform="translate(48,39)"/>
<path d="M0 0 C2.438 0.75 2.438 0.75 5 2 C5.812 4.125 5.812 4.125 6 6 C5.67 6.165 5.67 6.165 4 7 C0 2.25 0 2.25 0 0 Z " fill="#34271C" transform="translate(45,173)"/>
<path d="M0 0 C0.495 0.33 0.495 0.33 3 2 C3.188 5.125 3.188 5.125 3 8 C2.34 8 1.68 8 1 8 C0.67 5.36 0.34 2.72 0 0 Z " fill="#A95F22" transform="translate(50,141)"/>
<path d="M0 0 C1.65 0 3.3 0 5 0 C5.33 0.99 5.66 1.98 6 3 C4.68 3.33 3.36 3.66 2 4 C1.34 2.68 0.68 1.36 0 0 Z " fill="#372A1C" transform="translate(22,93)"/>
<path d="M0 0 C2 2 2 2 2.125 5.125 C2.084 6.074 2.043 7.023 2 8 C1.34 7.67 0.68 7.34 0 7 C0 6.34 0 5.68 0 5 C-0.66 5 -1.32 5 -2 5 C-1.34 3.35 -0.68 1.7 0 0 Z " fill="#241A12" transform="translate(50,55)"/>
<path d="M0 0 C2.062 1.75 2.062 1.75 4 4 C3.75 6.25 3.75 6.25 3 8 C1.5 6.812 1.5 6.812 0 5 C-0.188 2.312 -0.188 2.312 0 0 Z " fill="#5D5142" transform="translate(89,47)"/>
<path d="M0 0 C0.66 0.33 1.32 0.66 2 1 C2 3.31 2 5.62 2 8 C1.67 7.34 1.34 6.68 1 6 C0.01 5.67 -0.98 5.34 -2 5 C-1.34 3.35 -0.68 1.7 0 0 Z " fill="#C46E2D" transform="translate(69,35)"/>
</svg>
