<?xml version="1.0" encoding="UTF-8"?>
<!-- Generator: visioncortex VTracer 0.6.12 -->
<svg version="1.1" xmlns="http://www.w3.org/2000/svg" width="190" height="180">
<path d="M0 0 C62.7 0 125.4 0 190 0 C190 59.4 190 118.8 190 180 C127.3 180 64.6 180 0 180 C0 120.6 0 61.2 0 0 Z " fill="#FDF8F1" transform="translate(0,0)"/>
<path d="M0 0 C11.051 8.188 16.719 19.157 21 32 C21.081 33.554 21.108 35.112 21.098 36.668 C21.094 37.561 21.091 38.453 21.088 39.373 C21.08 40.302 21.071 41.231 21.062 42.188 C21.058 43.128 21.053 44.068 21.049 45.037 C21.037 47.358 21.021 49.679 21 52 C20.175 52.33 20.175 52.33 16 54 C16 54.66 16 55.32 16 56 C16.619 56.289 17.238 56.578 17.875 56.875 C20 58 20 58 22 60 C24.323 60.4 26.657 60.74 29 61 C29 62.32 29 63.64 29 65 C25.966 65.233 23.027 65.358 20 65 C17.813 63 17.813 63 16 61 C12.855 60.685 10.841 60.58 8 62 C6 62.04 4 62.043 2 62 C2 62.66 2 63.32 2 64 C0.02 64.66 -1.96 65.32 -4 66 C-2.938 68.875 -2.938 68.875 -1 72 C2.688 73.375 2.688 73.375 6 74 C6.33 75.32 6.66 76.64 7 78 C2.119 78 -2.085 77.814 -5.785 74.309 C-7.261 72.582 -8.661 70.834 -10 69 C-10.574 69.161 -11.147 69.322 -11.738 69.488 C-18.866 71.101 -27.438 70.281 -34 67 C-34.11 67.615 -34.219 68.23 -34.332 68.863 C-34.411 69.267 -34.411 69.267 -34.812 71.312 C-34.888 71.713 -34.888 71.713 -35.27 73.738 C-36.086 76.267 -37.136 77.177 -39 79 C-39.188 82.188 -39.188 82.188 -39 85 C-42.01 85.934 -42.867 86.044 -46 85 C-46 84.01 -46 83.02 -46 82 C-45.34 82 -44.68 82 -44 82 C-43.876 81.072 -43.752 80.144 -43.625 79.188 C-43 76 -43 76 -41 73 C-41 72.01 -41 71.02 -41 70 C-43.228 69.777 -45.457 69.572 -47.688 69.375 C-48.308 69.317 -48.308 69.317 -51.449 69.023 C-54.975 69 -56.857 69.539 -60 71 C-62.812 71.125 -62.812 71.125 -65 71 C-65.103 71.763 -65.206 72.526 -65.312 73.312 C-66.044 76.171 -66.77 77.157 -69 79 C-69.33 78.835 -69.33 78.835 -71 78 C-70.526 77.567 -70.051 77.134 -69.562 76.688 C-68 75 -68 75 -67 72 C-67.906 72.046 -68.812 72.093 -69.746 72.141 C-76.805 72.35 -81.893 72.119 -88.168 68.836 C-90 68 -90 68 -92.875 68.062 C-95 69 -95 69 -96.375 70.562 C-98.985 72.871 -101.669 72.189 -105 72 C-105 70.68 -105 69.36 -105 68 C-104.01 67.67 -104.01 67.67 -99 66 C-99 62 -99 62 -100.5 59.812 C-104.515 52.285 -101.182 42.475 -99.125 34.688 C-99 32 -99 32 -100.375 29.062 C-103.422 26.668 -104.057 26.78 -107.75 27.188 C-109.171 27.433 -110.59 27.696 -112 28 C-112.625 26.125 -112.625 26.125 -113 24 C-112.34 23.34 -111.68 22.68 -111 22 C-108.066 22.404 -105.574 23.564 -102.938 24.875 C-102.602 25.039 -102.602 25.039 -100.902 25.867 C-98.938 27.037 -97.54 28.321 -96 30 C-95.814 29.34 -95.629 28.68 -95.438 28 C-92.499 21.868 -88.45 17.277 -82 15 C-81.869 14.422 -81.737 13.845 -81.602 13.25 C-79.679 6.058 -71.733 0.494 -65.812 -3.375 C-44.776 -15.375 -19.673 -14.162 0 0 Z " fill="#C32D06" transform="translate(135,62)"/>
<path d="M0 0 C1.245 0.111 2.49 0.222 3.773 0.336 C4.714 0.431 5.655 0.527 6.625 0.625 C3.409 3.177 0.576 4.458 -3.375 5.625 C-3.21 5.955 -3.21 5.955 -2.375 7.625 C-0.449 8.223 -0.449 8.223 1.938 8.688 C2.717 8.843 3.497 8.999 4.301 9.16 C5.068 9.314 5.835 9.467 6.625 9.625 C7.361 9.83 8.097 10.035 8.855 10.246 C9.439 10.371 10.023 10.496 10.625 10.625 C10.955 10.295 11.285 9.965 11.625 9.625 C16.903 9.011 19.474 10.44 23.625 13.625 C24.625 14.625 24.625 14.625 25 16.938 C24.625 19.625 24.625 19.625 22.688 21.938 C19.075 23.928 16.84 23.926 12.809 23.668 C10.625 23.625 10.625 23.625 8.703 24.129 C1.777 25.782 -5.835 23.699 -12.328 21.258 C-15.434 20.298 -18.149 20.419 -21.375 20.625 C-20.651 20.867 -19.926 21.11 -19.18 21.359 C-7.935 25.258 -7.935 25.258 -4.375 28.625 C-3.75 32.188 -3.75 32.188 -4.375 35.625 C-6.125 37.625 -6.125 37.625 -8.375 38.625 C-10.625 38.312 -10.625 38.312 -12.375 37.625 C-12.705 38.615 -13.035 39.605 -13.375 40.625 C-13.643 40.006 -13.911 39.388 -14.188 38.75 C-15.375 36.625 -15.375 36.625 -18.375 34.625 C-19.365 34.955 -20.355 35.285 -21.375 35.625 C-19.725 35.955 -18.075 36.285 -16.375 36.625 C-16.375 37.615 -16.375 38.605 -16.375 39.625 C-17.365 39.46 -17.365 39.46 -22.375 38.625 C-22.416 39.368 -22.458 40.11 -22.5 40.875 C-23.723 44.72 -26.006 45.59 -29.375 47.625 C-29.54 47.955 -29.54 47.955 -30.375 49.625 C-29.694 48.965 -29.014 48.305 -28.312 47.625 C-24.612 45.106 -22.772 44.918 -18.375 45.625 C-15.5 48.062 -15.5 48.062 -13.375 50.625 C-13.045 50.955 -12.715 51.285 -12.375 51.625 C-12.251 52.739 -12.127 53.852 -12 55 C-11.375 58.625 -11.375 58.625 -9.785 60.059 C-9.32 60.576 -8.854 61.092 -8.375 61.625 C-8.52 63.887 -8.52 63.887 -9.188 66.312 C-9.4 67.121 -9.613 67.929 -9.832 68.762 C-10.011 69.377 -10.19 69.991 -10.375 70.625 C-17 71.875 -17 71.875 -20.375 69.625 C-26.535 68.142 -26.535 68.142 -29.875 70.062 C-30.7 70.578 -31.525 71.094 -32.375 71.625 C-36.713 72.177 -38.847 71.899 -42.75 69.875 C-45.375 67.625 -45.375 67.625 -46.438 65.562 C-46.375 63.625 -46.375 63.625 -45.125 61.875 C-43.375 60.625 -43.375 60.625 -40.375 60.625 C-40.045 58.645 -39.715 56.665 -39.375 54.625 C-39.911 55.429 -40.448 56.234 -41 57.062 C-43.375 59.625 -43.375 59.625 -46.25 60.75 C-49.759 60.61 -51.728 59.763 -54.312 57.348 C-56.409 53.948 -55.239 50.323 -54.375 46.625 C-54.107 45.553 -53.839 44.48 -53.562 43.375 C-53.375 40.625 -53.375 40.625 -54.75 37.688 C-57.797 35.293 -58.432 35.405 -62.125 35.812 C-63.546 36.058 -64.965 36.321 -66.375 36.625 C-67 34.75 -67 34.75 -67.375 32.625 C-66.715 31.965 -66.055 31.305 -65.375 30.625 C-62.441 31.029 -59.949 32.189 -57.312 33.5 C-56.977 33.664 -56.977 33.664 -55.277 34.492 C-53.313 35.662 -51.915 36.946 -50.375 38.625 C-50.189 37.965 -50.004 37.305 -49.812 36.625 C-46.874 30.493 -42.825 25.902 -36.375 23.625 C-36.244 23.047 -36.112 22.47 -35.977 21.875 C-33.655 13.191 -23.757 7.55 -16.488 3.219 C-10.648 0.229 -6.565 -0.619 0 0 Z " fill="#3C4142" transform="translate(89.375,53.375)"/>
<path d="M0 0 C6.738 -0.34 14.052 -0.707 20 3 C20.377 4.322 20.706 5.657 21 7 C22.596 8.994 24.338 10.776 26.113 12.609 C31.759 19.763 32.668 26.396 33.045 35.285 C33.472 41.441 33.472 41.441 36.316 44.453 C36.759 44.708 36.759 44.708 39 46 C39.614 46.356 40.227 46.711 40.86 47.078 C44.962 48.845 49.473 48.335 53.875 48.312 C54.906 48.31 55.938 48.308 57 48.306 C63.983 48.215 70.297 47.54 77.062 45.754 C80.398 44.898 83.563 44.263 87 44 C89.041 45.616 91.041 47.286 93 49 C96.875 49.812 96.875 49.812 100 50 C100 51.32 100 52.64 100 54 C96.966 54.233 94.027 54.358 91 54 C88.813 52 88.813 52 87 50 C83.855 49.685 81.841 49.58 79 51 C77 51.04 75 51.043 73 51 C73 51.66 73 52.32 73 53 C71.02 53.66 69.04 54.32 67 55 C68.062 57.875 68.062 57.875 70 61 C73.687 62.375 73.687 62.375 77 63 C77.33 64.32 77.66 65.64 78 67 C73.119 67 68.915 66.814 65.215 63.309 C63.739 61.582 62.339 59.834 61 58 C60.426 58.161 59.853 58.322 59.262 58.488 C52.134 60.101 43.562 59.281 37 56 C36.89 56.615 36.781 57.23 36.668 57.863 C36.589 58.267 36.589 58.267 36.188 60.312 C36.112 60.713 36.112 60.713 35.73 62.738 C34.914 65.267 33.864 66.177 32 68 C31.812 71.188 31.812 71.188 32 74 C28.99 74.934 28.133 75.044 25 74 C25 73.01 25 72.02 25 71 C25.66 71 26.32 71 27 71 C27.124 70.072 27.248 69.144 27.375 68.188 C28 65 28 65 30 62 C30 61.01 30 60.02 30 59 C27.772 58.777 25.543 58.572 23.312 58.375 C22.071 58.259 20.83 58.143 19.551 58.023 C16.025 58 14.143 58.539 11 60 C8.187 60.125 8.187 60.125 6 60 C5.897 60.763 5.794 61.526 5.688 62.312 C4.956 65.171 4.23 66.157 2 68 C1.67 67.835 1.67 67.835 0 67 C0.474 66.567 0.949 66.134 1.438 65.688 C3 64 3 64 4 61 C3.094 61.046 2.188 61.093 1.254 61.141 C-5.805 61.35 -10.893 61.119 -17.168 57.836 C-19 57 -19 57 -21.875 57.062 C-24 58 -24 58 -25.375 59.562 C-27.985 61.871 -30.669 61.189 -34 61 C-34 59.68 -34 58.36 -34 57 C-32.02 56.34 -30.04 55.68 -28 55 C-28 51 -28 51 -29.5 48.812 C-31.524 45.017 -31.848 41.234 -31 37 C-30.01 36.34 -29.02 35.68 -28 35 C-27.897 35.32 -27.897 35.32 -27.375 36.938 C-26 39 -26 39 -23.188 40.062 C-20 40 -20 40 -17.188 38 C-14.674 34.553 -14.248 32.213 -14 28 C-13.67 28 -13.34 28 -13 28 C-12.946 29.604 -12.907 31.208 -12.875 32.812 C-12.852 33.706 -12.829 34.599 -12.805 35.52 C-13 38 -13 38 -15 41 C-16.635 42.051 -18.299 43.06 -20 44 C-18.558 48.566 -18.558 48.566 -16.312 50.312 C-13.053 51.282 -10.385 51.297 -7 51 C-6.175 50.484 -5.35 49.969 -4.5 49.438 C-1.001 47.426 1.158 48.075 5 49 C5.99 49.66 6.98 50.32 8 51 C10.332 51.079 12.668 51.088 15 51 C15.66 48.03 16.32 45.06 17 42 C15.68 41.67 14.36 41.34 13 41 C13 40.34 13 39.68 13 39 C12.763 34.81 12.359 32.496 9.875 29.062 C7 27 7 27 3.5 26.375 C-0.851 27.152 -2.213 28.656 -5 32 C-5.66 32.66 -6.32 33.32 -7 34 C-6.848 31.343 -6.527 29.558 -4.668 27.59 C-2.553 25.825 -0.468 24.234 2 23 C2.625 20.938 2.625 20.938 3 19 C4.98 19 6.96 19 9 19 C8.835 18.67 8.835 18.67 8 17 C6.02 17 4.04 17 2 17 C2.66 16.01 3.32 15.02 4 14 C7.242 14.35 8.615 14.562 10.812 17.062 C11.204 17.702 11.596 18.341 12 19 C12.165 18.835 12.165 18.835 13 18 C13.402 18.01 13.402 18.01 15.438 18.062 C18 18 18 18 20 16 C20.125 12.375 20.125 12.375 20 9 C13.43 5.518 7.331 2.41 0 1 C0 0.67 0 0.34 0 0 Z " fill="#242928" transform="translate(64,73)"/>
<path d="M0 0 C1.245 0.111 2.49 0.222 3.773 0.336 C4.714 0.431 5.655 0.527 6.625 0.625 C3.409 3.177 0.576 4.458 -3.375 5.625 C-3.21 5.955 -3.21 5.955 -2.375 7.625 C-0.449 8.223 -0.449 8.223 1.938 8.688 C2.717 8.843 3.497 8.999 4.301 9.16 C5.068 9.314 5.835 9.467 6.625 9.625 C7.361 9.83 8.097 10.035 8.855 10.246 C9.439 10.371 10.023 10.496 10.625 10.625 C10.955 10.295 11.285 9.965 11.625 9.625 C16.903 9.011 19.474 10.44 23.625 13.625 C24.625 14.625 24.625 14.625 25 16.938 C24.625 19.625 24.625 19.625 22.688 21.938 C19.075 23.928 16.84 23.926 12.809 23.668 C10.625 23.625 10.625 23.625 8.703 24.129 C2.828 25.532 -4.154 24.282 -9.688 22.062 C-18.205 18.886 -27.888 19.887 -36.375 22.625 C-32.819 15.026 -27.245 10.222 -20.312 5.75 C-19.723 5.369 -19.134 4.988 -18.526 4.595 C-12.132 0.62 -7.505 -0.708 0 0 Z " fill="#A25037" transform="translate(89.375,53.375)"/>
<path d="M0 0 C0.639 0.66 1.279 1.32 1.938 2 C4.756 4.733 7.176 4.706 11 5 C11 6.32 11 7.64 11 9 C7.966 9.233 5.027 9.358 2 9 C-0.188 7 -0.188 7 -2 5 C-5.145 4.685 -7.159 4.58 -10 6 C-12 6.04 -14 6.043 -16 6 C-16 6.66 -16 7.32 -16 8 C-17.98 8.66 -19.96 9.32 -22 10 C-20.938 12.875 -20.938 12.875 -19 16 C-15.312 17.375 -15.312 17.375 -12 18 C-11.835 18.66 -11.835 18.66 -11 22 C-15.881 22 -20.085 21.814 -23.785 18.309 C-25.261 16.582 -26.661 14.834 -28 13 C-28.287 13.081 -28.287 13.081 -29.738 13.488 C-36.866 15.101 -45.438 14.281 -52 11 C-52.11 11.615 -52.219 12.23 -52.332 12.863 C-52.491 13.672 -52.649 14.48 -52.812 15.312 C-52.963 16.113 -53.114 16.914 -53.27 17.738 C-54.086 20.267 -55.136 21.177 -57 23 C-57.188 26.188 -57.188 26.188 -57 29 C-60.01 29.934 -60.867 30.044 -64 29 C-64 28.01 -64 27.02 -64 26 C-63.34 26 -62.68 26 -62 26 C-61.876 25.072 -61.752 24.144 -61.625 23.188 C-61 20 -61 20 -59 17 C-58.875 14.312 -58.875 14.312 -59 12 C-60.65 12 -62.3 12 -64 12 C-64 11.34 -64 10.68 -64 10 C-62.35 9.67 -60.7 9.34 -59 9 C-58.67 8.01 -58.34 7.02 -58 6 C-57.34 5.67 -56.68 5.34 -56 5 C-56 4.34 -56 3.68 -56 3 C-56.66 3 -57.32 3 -58 3 C-58 2.34 -58 1.68 -58 1 C-57.401 1.144 -56.801 1.289 -56.184 1.438 C-37.847 5.194 -16.191 -4.296 0 0 Z " fill="#22221D" transform="translate(153,118)"/>
<path d="M0 0 C0.33 0 0.66 0 1 0 C1.054 1.604 1.093 3.208 1.125 4.812 C1.148 5.706 1.171 6.599 1.195 7.52 C1 10 1 10 -1 13 C-2.635 14.051 -4.299 15.06 -6 16 C-4.558 20.566 -4.558 20.566 -2.312 22.312 C0.947 23.282 3.615 23.297 7 23 C7.825 22.484 8.65 21.969 9.5 21.438 C12.999 19.426 15.158 20.075 19 21 C19.99 21.66 20.98 22.32 22 23 C24.332 23.079 26.668 23.088 29 23 C29.66 20.03 30.32 17.06 31 14 C29.68 13.67 28.36 13.34 27 13 C28.478 12.806 29.958 12.62 31.438 12.438 C31.849 12.385 31.849 12.385 33.934 12.121 C34.275 12.101 34.275 12.101 36 12 C37 13 37 13 37.133 14.926 C37.13 15.713 37.128 16.501 37.125 17.312 C37.126 17.702 37.126 17.702 37.133 19.676 C36.922 23.357 36.65 25.35 34 28 C32.188 29 32.188 29 30 30 C29.598 30.186 29.598 30.186 27.562 31.125 C24.874 32.043 22.819 32.161 20 32 C19.897 32.763 19.794 33.526 19.688 34.312 C18.956 37.171 18.23 38.157 16 40 C15.67 39.835 15.67 39.835 14 39 C14.474 38.567 14.949 38.134 15.438 37.688 C17 36 17 36 18 33 C17.094 33.046 16.188 33.093 15.254 33.141 C8.195 33.35 3.107 33.119 -3.168 29.836 C-5 29 -5 29 -7.875 29.062 C-10 30 -10 30 -11.375 31.562 C-13.985 33.871 -16.669 33.189 -20 33 C-20 31.68 -20 30.36 -20 29 C-18.02 28.34 -16.04 27.68 -14 27 C-14 23 -14 23 -15.5 20.812 C-17.524 17.017 -17.848 13.234 -17 9 C-16.01 8.34 -15.02 7.68 -14 7 C-13.897 7.32 -13.897 7.32 -13.375 8.938 C-12 11 -12 11 -9.188 12.062 C-6 12 -6 12 -3.188 10 C-0.674 6.553 -0.248 4.213 0 0 Z " fill="#282C2B" transform="translate(50,101)"/>
<path d="M0 0 C1.833 0.651 3.621 1.429 5.398 2.219 C11.341 4.535 17.72 4.462 24.023 4.719 C23.858 5.358 23.693 5.998 23.523 6.656 C23.023 8.719 23.023 8.719 23.023 9.719 C25.023 7.719 25.023 7.719 25.387 5.707 C26.023 3.719 26.023 3.719 27.816 2.637 C35.391 0.326 42.218 0.785 50.023 1.719 C51.023 5.719 51.023 5.719 47.023 14.719 C37.453 15.049 27.883 15.379 18.023 15.719 C18.023 15.059 18.023 14.399 18.023 13.719 C17.082 13.742 16.141 13.765 15.172 13.789 C14.549 13.798 14.549 13.798 11.398 13.844 C10.169 13.867 8.939 13.89 7.672 13.914 C4.08 13.722 1.357 13.021 -1.977 11.719 C-1.977 11.389 -1.977 11.059 -1.977 10.719 C-3.627 10.389 -5.277 10.059 -6.977 9.719 C-6.977 9.059 -6.977 8.399 -6.977 7.719 C-7.637 7.389 -8.297 7.059 -8.977 6.719 C-9.307 6.059 -9.637 5.399 -9.977 4.719 C-9.213 4.265 -8.45 3.811 -7.664 3.344 C-1.727 -0.246 -1.727 -0.246 0 0 Z " fill="#D0C3B2" transform="translate(43.9765625,129.28125)"/>
<path d="M0 0 C2.875 2.438 2.875 2.438 5 5 C5.165 5.165 5.165 5.165 6 6 C6.124 7.114 6.248 8.227 6.375 9.375 C7 13 7 13 8.59 14.434 C9.055 14.951 9.521 15.467 10 16 C9.855 18.262 9.855 18.262 9.188 20.688 C8.975 21.496 8.762 22.304 8.543 23.137 C8.364 23.752 8.185 24.366 8 25 C1.375 26.25 1.375 26.25 -2 24 C-8.16 22.517 -8.16 22.517 -11.5 24.438 C-12.325 24.953 -13.15 25.469 -14 26 C-18.338 26.552 -20.472 26.274 -24.375 24.25 C-27 22 -27 22 -28.062 19.938 C-28 18 -28 18 -26.688 16.25 C-25 15 -25 15 -23 15 C-22.67 15.495 -22.67 15.495 -21 18 C-19 18 -19 18 -17.438 17 C-15.574 14.408 -15.711 12.105 -15.438 9 C-13.879 1.873 -6.395 -0.772 0 0 Z " fill="#2B2E2D" transform="translate(71,99)"/>
<path d="M0 0 C0.763 0.784 1.526 1.567 2.312 2.375 C5 5 5 5 8 7 C7.67 9.97 7.34 12.94 7 16 C7.33 15.67 7.66 15.34 8 15 C13 17 13 17 15.375 18.25 C19.039 19.297 21.477 18.243 25 17 C25.553 19.076 26 20.844 26 23 C29.63 23.33 33.26 23.66 37 24 C36.67 24.165 36.67 24.165 35 25 C34.856 25.784 34.711 26.567 34.562 27.375 C33.946 30.251 33.223 31.164 31 33 C30.67 32.835 30.67 32.835 29 32 C29.474 31.567 29.949 31.134 30.438 30.688 C32 29 32 29 33 26 C32.547 26.023 32.547 26.023 30.254 26.141 C23.195 26.35 18.107 26.119 11.832 22.836 C10 22 10 22 7.125 22.062 C5 23 5 23 3.625 24.562 C1.015 26.871 -1.669 26.189 -5 26 C-5 24.68 -5 23.36 -5 22 C-3.02 21.34 -1.04 20.68 1 20 C1 16 1 16 -0.5 13.812 C-2.551 9.966 -2.649 6.293 -2 2 C-1.34 1.34 -0.68 0.68 0 0 Z " fill="#3B3B38" transform="translate(35,108)"/>
<path d="M0 0 C3.075 2.028 4.666 3.498 5.48 7.16 C5.756 11.62 5.452 13.444 2.562 17 C1.717 17.66 0.871 18.32 0 19 C-0.33 19.33 -0.66 19.66 -1 20 C-4.813 20.433 -6.546 20.293 -9.812 18.188 C-12.641 15.359 -12.946 13.578 -13.312 9.625 C-12.949 5.407 -11.951 3.951 -9 1 C-5.861 -0.569 -3.461 -0.352 0 0 Z " fill="#EBE8E3" transform="translate(71,99)"/>
<path d="M0 0 C3.071 2.026 4.687 3.481 5.445 7.16 C5.651 11.264 5.336 13.462 3.125 17 C0.575 19.4 -0.39 19.934 -3.875 20.312 C-7 20 -7 20 -9.312 18.188 C-12.009 14.693 -12.412 11.381 -12.34 7.008 C-12 5 -12 5 -9.938 2 C-6.222 -0.53 -4.412 -0.788 0 0 Z " fill="#2A2118" transform="translate(128,90)"/>
<path d="M0 0 C0.762 0.217 1.524 0.433 2.309 0.656 C10.111 2.76 17.096 4.188 25 2 C25.436 2.566 25.871 3.132 26.32 3.715 C31.245 9.78 31.245 9.78 35.438 11 C36.283 11 37.129 11 38 11 C38 11.33 38 11.66 38 12 C37.3 11.995 36.601 11.99 35.88 11.984 C32.649 11.963 29.418 11.95 26.188 11.938 C25.087 11.929 23.987 11.921 22.854 11.912 C3.756 11.856 3.756 11.856 -4 15 C-4 12 -4 12 -2.562 10.312 C-0.295 6.956 -0.334 4.013 0 0 Z " fill="#A89681" transform="translate(100,128)"/>
<path d="M0 0 C0.93 2.551 1.086 3.74 0.223 6.359 C0.031 6.754 0.031 6.754 -0.938 8.75 C-1.318 9.549 -1.698 10.348 -2.09 11.172 C-2.39 11.775 -2.691 12.378 -3 13 C-3.99 12.67 -4.98 12.34 -6 12 C-7.626 11.853 -9.256 11.753 -10.887 11.684 C-11.825 11.642 -12.762 11.6 -13.729 11.557 C-14.705 11.517 -15.681 11.478 -16.688 11.438 C-17.676 11.394 -18.664 11.351 -19.682 11.307 C-22.121 11.201 -24.56 11.099 -27 11 C-27 8 -27 8 -25 6 C-24.94 5.668 -24.94 5.668 -24.637 3.988 C-24 2 -24 2 -22.207 0.918 C-14.633 -1.393 -7.806 -0.934 0 0 Z " fill="#9E907E" transform="translate(94,131)"/>
<path d="M0 0 C0.639 0.66 1.279 1.32 1.938 2 C4.756 4.733 7.176 4.706 11 5 C11 6.32 11 7.64 11 9 C7.966 9.233 5.027 9.358 2 9 C-0.188 7 -0.188 7 -2 5 C-5.145 4.685 -7.159 4.58 -10 6 C-12 6.04 -14 6.043 -16 6 C-16 6.66 -16 7.32 -16 8 C-18.647 9.461 -19.894 10 -23 10 C-23.33 10.66 -23.66 11.32 -24 12 C-24 11.01 -24 10.02 -24 9 C-26.332 7.794 -28.496 6.835 -31 6 C-31.186 6.639 -31.371 7.279 -31.562 7.938 C-33 10 -33 10 -36.625 10.75 C-37.182 10.791 -37.182 10.791 -40 11 C-40.66 8.69 -41.32 6.38 -42 4 C-40.791 3.963 -39.582 3.925 -38.336 3.887 C-26.74 3.45 -10.588 -2.809 0 0 Z " fill="#381A10" transform="translate(153,118)"/>
<path d="M0 0 C2.219 1.646 2.914 2.576 3.469 5.305 C3.524 9.869 3.467 12.3 0.875 16.188 C-2 18 -2 18 -5.062 18.062 C-8.533 16.807 -10.029 16.153 -12 13 C-12.293 9.809 -11.964 7.054 -11 4 C-7.708 0.143 -5 -0.761 0 0 Z " fill="#C7C5C0" transform="translate(46,96)"/>
<path d="M0 0 C4.081 0.75 7.121 2.621 10.062 5.562 C10.438 7.875 10.438 7.875 10.062 10.562 C7.3 13.659 5.707 14.493 1.562 14.938 C-1.919 14.564 -5.359 14.141 -7.938 11.562 C-8.487 7.531 -8.266 6.007 -5.812 2.688 C-2.938 0.562 -2.938 0.562 0 0 Z " fill="#4C413C" transform="translate(103.9375,62.4375)"/>
<path d="M0 0 C2.125 1.875 2.125 1.875 4 4 C5.314 4.703 6.646 5.376 8 6 C6.868 6.422 5.736 6.843 4.57 7.277 C3.089 7.831 1.607 8.384 0.125 8.938 C-0.621 9.215 -1.368 9.493 -2.137 9.779 C-7.773 11.887 -7.773 11.887 -10 13 C-11.875 12.984 -11.875 12.984 -14 12.75 C-14.701 12.683 -15.403 12.616 -16.125 12.547 C-18 12 -18 12 -20 9 C-20 8.01 -20 7.02 -20 6 C-18.02 5.34 -16.04 4.68 -14 4 C-14 3.34 -14 2.68 -14 2 C-4.517 -0.616 -4.517 -0.616 0 0 Z " fill="#BCAE9C" transform="translate(151,122)"/>
<path d="M0 0 C0.99 0.33 1.98 0.66 3 1 C4.545 7.792 5.118 14.965 2.688 21.562 C-0.256 25.814 -0.256 25.814 -2 27 C-4.974 26.73 -5.854 26.146 -8 24 C-8.345 20.274 -8.485 17.861 -6.625 14.562 C-5 13 -5 13 -3 13 C-2.951 12.313 -2.902 11.626 -2.852 10.918 C-2.777 10.017 -2.702 9.116 -2.625 8.188 C-2.555 7.294 -2.486 6.401 -2.414 5.48 C-2 3 -2 3 0 0 Z " fill="#A5290B" transform="translate(149,88)"/>
<path d="M0 0 C13.667 6.05 23.664 16.277 29.465 30.02 C29.786 30.879 30.107 31.739 30.438 32.625 C30.807 33.508 31.177 34.391 31.559 35.301 C32.775 39.903 32.65 44.265 32.562 49 C32.553 49.927 32.544 50.854 32.535 51.809 C32.512 54.081 32.479 56.353 32.438 58.625 C32.108 58.79 32.108 58.79 30.438 59.625 C29.778 58.965 29.118 58.305 28.438 57.625 C28.767 57.295 29.097 56.965 29.438 56.625 C30.511 41.972 27.475 29.437 18.223 17.852 C13.443 12.428 8.759 7.367 2 4.5 C1.229 4.173 0.458 3.845 -0.336 3.508 C-3.045 2.434 -5.777 1.482 -8.562 0.625 C-5.191 -1.51 -3.662 -1.508 0 0 Z " fill="#CE573F" transform="translate(123.5625,55.375)"/>
<path d="M0 0 C0.449 -0.006 0.449 -0.006 2.723 -0.037 C7.29 -0.047 10.986 -0.003 15.125 2.188 C15.125 2.517 15.125 2.847 15.125 3.188 C10.075 4.223 5.251 4.29 0.125 4.188 C0.125 4.847 0.125 5.508 0.125 6.188 C1.775 6.188 3.425 6.188 5.125 6.188 C5.688 8.125 5.688 8.125 6.125 10.188 C5.125 11.188 5.125 11.188 2.184 11.285 C1.586 11.279 1.586 11.279 -1.438 11.25 C-2.036 11.245 -2.036 11.245 -5.066 11.223 C-5.993 11.211 -6.92 11.199 -7.875 11.188 C-7.875 10.528 -7.875 9.867 -7.875 9.188 C-10.185 9.847 -12.495 10.508 -14.875 11.188 C-13.875 8.188 -13.875 8.188 -12.027 7.02 C-11.296 6.683 -10.566 6.347 -9.812 6 C-8.513 5.402 -7.214 4.804 -5.875 4.188 C-9.175 3.858 -12.475 3.528 -15.875 3.188 C-10.601 -0.329 -6.116 0.004 0 0 Z " fill="#743927" transform="translate(99.875,50.8125)"/>
<path d="M0 0 C0.99 0.33 1.98 0.66 3 1 C2.34 2.98 1.68 4.96 1 7 C1.99 7.33 2.98 7.66 4 8 C2.396 8.647 0.792 9.292 -0.812 9.938 C-1.706 10.297 -2.599 10.657 -3.52 11.027 C-5.327 11.736 -7.158 12.386 -9 13 C-9 13.66 -9 14.32 -9 15 C-9.66 15 -10.32 15 -11 15 C-11 15.99 -11 16.98 -11 18 C-14.96 18.99 -18.92 19.98 -23 21 C-19.165 13.329 -13.843 8.567 -6.75 3.938 C-6.135 3.531 -5.521 3.125 -4.888 2.706 C-3.109 1.59 -3.109 1.59 0 0 Z " fill="#E96D4A" transform="translate(76,55)"/>
<path d="M0 0 C2.121 0.738 2.121 0.738 5.121 2.738 C4.791 3.233 4.791 3.233 3.121 5.738 C2.568 11.047 2.568 11.047 4.621 13.613 C4.869 13.799 4.869 13.799 6.121 14.738 C2.852 15.769 0.261 15.702 -3.129 15.301 C-4.021 15.199 -4.913 15.097 -5.832 14.992 C-6.507 14.908 -7.183 14.825 -7.879 14.738 C-7.817 13.521 -7.755 12.305 -7.691 11.051 C-7.671 7.161 -8.506 4.902 -10.879 1.738 C-7.431 -2.159 -4.57 -1.133 0 0 Z " fill="#EB7B59" transform="translate(93.87890625,62.26171875)"/>
<path d="M0 0 C5.974 0.124 9.056 2.004 13.391 6.086 C15.571 8.679 16.157 10.626 16 14 C14 16 14 16 11.688 16.375 C6.902 15.707 4.616 12.766 1.688 9.125 C-0.147 5.728 -0.362 3.796 0 0 Z " fill="#36261A" transform="translate(125,64)"/>
<path d="M0 0 C1.134 0.021 2.269 0.041 3.438 0.062 C3.438 1.053 3.438 2.042 3.438 3.062 C4.139 3.111 4.84 3.16 5.562 3.211 C6.511 3.286 7.46 3.36 8.438 3.438 C9.366 3.507 10.294 3.577 11.25 3.648 C14.438 4.062 14.438 4.062 17.977 5.07 C24.932 6.893 32.269 6.497 39.41 6.629 C39.975 6.644 39.975 6.644 42.836 6.719 C43.864 6.737 44.892 6.756 45.951 6.775 C48.438 7.062 48.438 7.062 50.438 9.062 C41.197 9.393 31.957 9.722 22.438 10.062 C22.438 9.403 22.438 8.743 22.438 8.062 C21.496 8.086 20.555 8.109 19.586 8.133 C18.963 8.142 18.963 8.142 15.812 8.188 C14.583 8.211 13.353 8.234 12.086 8.258 C8.494 8.066 5.771 7.365 2.438 6.062 C2.438 5.732 2.438 5.403 2.438 5.062 C0.788 4.732 -0.862 4.403 -2.562 4.062 C-2.562 3.403 -2.562 2.743 -2.562 2.062 C-3.222 1.732 -3.883 1.403 -4.562 1.062 C-3.562 0.062 -3.562 0.062 0 0 Z " fill="#DCD0BE" transform="translate(39.5625,134.9375)"/>
<path d="M0 0 C0.709 -0.005 1.417 -0.009 2.147 -0.014 C6.611 -0.001 10.844 0.398 15.25 1.125 C11.963 3.316 11.015 3.222 7.25 3.125 C6.59 3.455 5.93 3.785 5.25 4.125 C4.136 3.939 3.023 3.754 1.875 3.562 C-1.75 3.125 -1.75 3.125 -3.684 4.105 C-6.185 5.34 -7.678 5.204 -10.438 5 C-15.353 4.862 -18.631 6.064 -22.938 8.348 C-23.536 8.604 -24.134 8.861 -24.75 9.125 C-25.41 8.795 -26.07 8.465 -26.75 8.125 C-26.75 6.475 -26.75 4.825 -26.75 3.125 C-26.152 2.981 -25.554 2.836 -24.938 2.688 C-23.188 2.238 -21.463 1.696 -19.75 1.125 C-13.206 0.14 -6.605 0.024 0 0 Z " fill="#ECE2D4" transform="translate(121.75,138.875)"/>
<path d="M0 0 C0.33 0 0.66 0 1 0 C1.103 1.093 1.206 2.186 1.312 3.312 C2 7 2 7 3.594 8.438 C4.058 8.953 4.522 9.469 5 10 C4.855 12.262 4.855 12.262 4.188 14.688 C3.975 15.496 3.762 16.304 3.543 17.137 C3.364 17.752 3.185 18.366 3 19 C-3.625 20.25 -3.625 20.25 -7 18 C-8.988 17.298 -10.987 16.626 -13 16 C-13 15.01 -13 14.02 -13 13 C-11.948 13.103 -10.896 13.206 -9.812 13.312 C-6 13 -6 13 -3.125 11 C-0.382 7.128 -0.238 4.69 0 0 Z " fill="#3D3835" transform="translate(76,105)"/>
<path d="M0 0 C3.032 0.328 4.616 0.641 6.875 2.75 C8 5 8 5 7.875 7.5 C6.911 10.253 6.107 11.969 4 14 C1.12 14.504 -0.32 14.422 -2.812 12.875 C-4.587 10.073 -4.456 8.256 -4 5 C-2 2.125 -2 2.125 0 0 Z " fill="#1A1917" transform="translate(65,102)"/>
<path d="M0 0 C2.25 -0.438 2.25 -0.438 4 -1 C2.875 0.5 2.875 0.5 1 2 C-2.188 2.188 -2.188 2.188 -5 2 C-5 2.66 -5 3.32 -5 4 C-7.647 5.461 -8.894 6 -12 6 C-12.33 6.66 -12.66 7.32 -13 8 C-13 7.01 -13 6.02 -13 5 C-15.332 3.794 -17.496 2.835 -20 2 C-20.186 2.639 -20.371 3.279 -20.562 3.938 C-22 6 -22 6 -25.625 6.75 C-26.739 6.833 -27.853 6.915 -29 7 C-29.33 5.02 -29.66 3.04 -30 1 C-28.71 0.939 -27.419 0.879 -26.09 0.816 C-24.372 0.732 -22.655 0.647 -20.938 0.562 C-20.09 0.523 -19.242 0.484 -18.369 0.443 C-14.552 0.252 -10.795 0.018 -7.016 -0.566 C-4.13 -0.981 -2.725 -0.752 0 0 Z " fill="#181712" transform="translate(142,122)"/>
<path d="M0 0 C2.944 0.151 5.186 -0.21 8.043 -0.844 C9.646 -0.907 11.251 -0.93 12.855 -0.906 C13.646 -0.897 14.436 -0.888 15.25 -0.879 C15.546 -0.873 15.546 -0.873 17.043 -0.844 C12.633 3.604 9.517 6.554 3.043 7.156 C3.043 6.496 3.043 5.836 3.043 5.156 C2.362 5.362 1.682 5.569 0.98 5.781 C-2.849 6.27 -5.385 5.572 -8.957 4.156 C-10.395 2.031 -10.395 2.031 -10.957 0.156 C-7.524 -1.56 -3.732 -0.408 0 0 Z " fill="#DA5631" transform="translate(93.95703125,76.84375)"/>
<path d="M0 0 C0.33 0 0.66 0 1 0 C1.062 1.237 1.124 2.475 1.188 3.75 C1.603 7.209 1.808 7.813 4.438 10.375 C5.283 10.911 6.129 11.448 7 12 C7.66 12.66 8.32 13.32 9 14 C5.531 13.542 2.326 13.109 -1 12 C-1 12.66 -1 13.32 -1 14 C-0.34 14 0.32 14 1 14 C1.33 14.99 1.66 15.98 2 17 C1.01 17 0.02 17 -1 17 C-1 18.65 -1 20.3 -1 22 C-1.33 21.34 -1.66 20.68 -2 20 C-3.65 20.33 -5.3 20.66 -7 21 C-7 21.66 -7 22.32 -7 23 C-5.35 23 -3.7 23 -2 23 C-2 23.33 -2 23.66 -2 24 C-9.385 24.369 -9.385 24.369 -12.5 22.5 C-12.995 22.005 -13.49 21.51 -14 21 C-13.481 20.743 -12.961 20.487 -12.426 20.223 C-6.491 16.965 -3.47 13.303 -1 7 C-0.412 4.601 -0.158 2.477 0 0 Z " fill="#0C0502" transform="translate(96,107)"/>
<path d="M0 0 C0.99 0 1.98 0 3 0 C3.593 3.677 4.063 7.27 4 11 C2 13.75 2 13.75 0 16 C0.25 19.812 0.25 19.812 1 23 C-2.01 23.934 -2.867 24.044 -6 23 C-6 22.01 -6 21.02 -6 20 C-5.34 20 -4.68 20 -4 20 C-3.876 19.072 -3.752 18.144 -3.625 17.188 C-3 14 -3 14 -1 11 C-0.875 8.312 -0.875 8.312 -1 6 C-2.65 6 -4.3 6 -6 6 C-6 5.34 -6 4.68 -6 4 C-4.35 3.67 -2.7 3.34 -1 3 C-0.67 2.01 -0.34 1.02 0 0 Z " fill="#2F2D29" transform="translate(95,124)"/>
<path d="M0 0 C0 0.66 0 1.32 0 2 C1.32 2 2.64 2 4 2 C4 2.66 4 3.32 4 4 C4.66 4.33 5.32 4.66 6 5 C4.35 5 2.7 5 1 5 C0.794 5.598 0.587 6.196 0.375 6.812 C-1.547 9.87 -3.681 10.713 -7 12 C-7.99 11.67 -8.98 11.34 -10 11 C-9.67 9.35 -9.34 7.7 -9 6 C-9.598 6.33 -10.196 6.66 -10.812 7 C-13 8 -13 8 -16 8 C-11.054 3.643 -6.886 0 0 0 Z " fill="#596063" transform="translate(62,75)"/>
<path d="M0 0 C1.699 0.629 1.699 0.629 3.688 1.562 C8.185 3.388 10.559 2.758 15 1 C15.553 3.076 16 4.844 16 7 C17.815 7.165 17.815 7.165 27 8 C26.67 8.165 26.67 8.165 25 9 C24.856 9.784 24.711 10.567 24.562 11.375 C23.946 14.251 23.223 15.164 21 17 C20.34 16.67 19.68 16.34 19 16 C19.474 15.567 19.949 15.134 20.438 14.688 C22 13 22 13 23 10 C18.38 10 13.76 10 9 10 C9 9.01 9 8.02 9 7 C8.374 6.734 7.747 6.469 7.102 6.195 C6.284 5.842 5.467 5.489 4.625 5.125 C3.813 4.777 3.001 4.429 2.164 4.07 C0 3 0 3 -2 1 C-1.34 0.67 -0.68 0.34 0 0 Z " fill="#323332" transform="translate(45,124)"/>
<path d="M0 0 C4.75 0.75 4.75 0.75 7 3 C7.381 6.503 7.402 8.363 5.5 11.375 C5.005 11.911 4.51 12.448 4 13 C-0.75 12.25 -0.75 12.25 -3 10 C-3.381 6.497 -3.402 4.637 -1.5 1.625 C-1.005 1.089 -0.51 0.552 0 0 Z " fill="#0A0908" transform="translate(40,99)"/>
<path d="M0 0 C6.738 -0.34 14.052 -0.707 20 3 C20.377 4.322 20.706 5.657 21 7 C22.488 8.859 22.488 8.859 24.312 10.75 C28.622 15.521 31.784 19.972 32.25 26.5 C32.167 27.325 32.085 28.15 32 29 C29.585 26.585 28.951 24.503 27.75 21.312 C23.93 12.084 20.052 7.86 10.77 4 C7.205 2.713 3.71 1.77 0 1 C0 0.67 0 0.34 0 0 Z " fill="#1B1B19" transform="translate(64,73)"/>
<path d="M0 0 C0.33 1.32 0.66 2.64 1 4 C1.887 3.794 2.774 3.588 3.688 3.375 C9.492 2.5 15.292 3.961 21 5 C21 6.65 21 8.3 21 10 C20.01 9.67 19.02 9.34 18 9 C16.374 8.853 14.744 8.753 13.113 8.684 C12.175 8.642 11.238 8.6 10.271 8.557 C9.295 8.517 8.319 8.478 7.312 8.438 C6.324 8.394 5.336 8.351 4.318 8.307 C1.879 8.201 -0.56 8.099 -3 8 C-3 4.424 -1.912 2.947 0 0 Z " fill="#BDAE99" transform="translate(70,134)"/>
<path d="M0 0 C0.66 1.32 1.32 2.64 2 4 C2.645 4.02 3.291 4.04 3.956 4.06 C6.888 4.155 9.819 4.265 12.75 4.375 C13.766 4.406 14.782 4.437 15.828 4.469 C16.318 4.488 16.318 4.488 18.797 4.586 C19.698 4.617 20.598 4.649 21.526 4.681 C24.088 5.011 25.781 5.71 28 7 C27.214 7.05 26.427 7.1 25.617 7.152 C22.036 7.385 18.455 7.63 14.875 7.875 C13.638 7.954 12.4 8.032 11.125 8.113 C10.526 8.155 10.526 8.155 7.492 8.367 C6.392 8.441 5.293 8.514 4.16 8.589 C0.898 9.013 -1.922 9.861 -5 11 C-5 7.587 -4.331 6.605 -2.5 3.812 C-2.036 3.097 -1.572 2.382 -1.094 1.645 C-0.733 1.102 -0.372 0.559 0 0 Z " fill="#C0AF9A" transform="translate(101,132)"/>
<path d="M0 0 C0.597 0.006 0.597 0.006 3.621 0.035 C4.22 0.04 4.22 0.04 7.25 0.062 C8.177 0.074 9.104 0.086 10.059 0.098 C9.431 3.026 8.472 5.459 7.059 8.098 C5.641 7.983 4.225 7.855 2.809 7.723 C2.02 7.653 1.231 7.583 0.418 7.512 C-2.027 7.083 -3.79 6.312 -5.941 5.098 C-3.532 0.117 -3.532 0.117 0 0 Z " fill="#B6A692" transform="translate(57.94140625,133.90234375)"/>
<path d="M0 0 C0 0.66 0 1.32 0 2 C-1.002 2.447 -2.003 2.895 -3.035 3.355 C-9.793 6.415 -16.183 9.318 -22 14 C-22.371 13.361 -22.743 12.721 -23.125 12.062 C-25.581 9.361 -27.446 9.316 -31 9 C-31 8.67 -31 8.34 -31 8 C-29.948 8.124 -28.896 8.248 -27.812 8.375 C-22.312 8.414 -17.972 5.926 -13.148 3.508 C-8.605 1.332 -5.066 0 0 0 Z " fill="#ECE1D3" transform="translate(165,126)"/>
<path d="M0 0 C0.33 0 0.66 0 1 0 C1.054 1.604 1.093 3.208 1.125 4.812 C1.148 5.706 1.171 6.599 1.195 7.52 C1 10 1 10 -1 13 C-2.968 14.062 -4.966 15.071 -7 16 C-7.99 15.34 -8.98 14.68 -10 14 C-8.242 13.056 -6.484 12.112 -4.727 11.168 C-3 10 -3 10 -1 7 C-0.606 4.676 -0.265 2.342 0 0 Z M-8 16 C-7.422 16.784 -6.845 17.567 -6.25 18.375 C-3.064 22.092 -1.434 22.87 3.438 23.312 C7.209 22.982 8.929 22.106 12 20 C12.66 20 13.32 20 14 20 C14 20.66 14 21.32 14 22 C13.34 22 12.68 22 12 22 C12 22.66 12 23.32 12 24 C8.629 25.498 6.796 26 3 26 C2.67 26.66 2.34 27.32 2 28 C2 27.34 2 26.68 2 26 C1.072 25.711 0.144 25.422 -0.812 25.125 C-4 24 -4 24 -7 22 C-7 22.66 -7 23.32 -7 24 C-7.66 23.67 -8.32 23.34 -9 23 C-9.043 21 -9.041 19 -9 17 C-8.67 16.67 -8.34 16.34 -8 16 Z " fill="#282C2A" transform="translate(50,101)"/>
<path d="M0 0 C0.99 0.33 1.98 0.66 3 1 C3.904 4.837 4.106 8.375 4.062 12.312 C4.053 13.381 4.044 14.45 4.035 15.551 C4.024 16.359 4.012 17.167 4 18 C2.078 17.625 2.078 17.625 0 17 C-2.594 12.85 -2.606 7.756 -2 3 C-1.34 2.01 -0.68 1.02 0 0 Z " fill="#462616" transform="translate(149,88)"/>
<path d="M0 0 C0.66 0.33 1.32 0.66 2 1 C-0.97 3.64 -3.94 6.28 -7 9 C-4.688 6.938 -4.688 6.938 -2 5 C-1.01 5.33 -0.02 5.66 1 6 C1 6.99 1 7.98 1 9 C0.34 9 -0.32 9 -1 9 C-1 9.99 -1 10.98 -1 12 C-4.96 12.99 -8.92 13.98 -13 15 C-11.348 11.696 -10.01 9.64 -7.625 6.938 C-7.04 6.266 -6.455 5.594 -5.852 4.902 C-4.024 3.025 -2.136 1.511 0 0 Z " fill="#E16742" transform="translate(66,61)"/>
<path d="M0 0 C0.382 0.392 0.382 0.392 2.312 2.375 C5 5 5 5 8 7 C7.01 7 6.02 7 5 7 C4.67 7.99 4.34 8.98 4 10 C3.67 10.165 3.67 10.165 2 11 C2.66 12.65 3.32 14.3 4 16 C2.125 15.75 2.125 15.75 0 15 C-1.849 12.091 -2.273 9.791 -2.25 6.375 C-2.255 5.599 -2.26 4.823 -2.266 4.023 C-2 2 -2 2 0 0 Z " fill="#3C3F3E" transform="translate(35,108)"/>
<path d="M0 0 C0.562 1.937 0.562 1.937 1 4 C0 5 0 5 -2.941 5.098 C-3.539 5.092 -3.539 5.092 -6.562 5.062 C-7.161 5.058 -7.161 5.058 -10.191 5.035 C-11.118 5.024 -12.045 5.012 -13 5 C-13.33 4.01 -13.66 3.02 -14 2 C-8.766 -1.271 -5.834 -1.106 0 0 Z " fill="#93462A" transform="translate(105,57)"/>
<path d="M0 0 C1.918 0.283 3.834 0.577 5.75 0.875 C6.284 0.956 6.284 0.956 8.984 1.367 C12 2 12 2 16 4 C12.7 4 9.4 4 6 4 C6.33 5.65 6.66 7.3 7 9 C6.34 9 5.68 9 5 9 C5.103 10.196 5.206 11.393 5.312 12.625 C5.344 16.116 4.761 17.837 2.5 20.5 C2.088 20.912 2.088 20.912 0 23 C0 20 0 20 1.52 18.266 C3.664 14.983 3.079 12.591 2.688 8.75 C2.568 7.487 2.448 6.223 2.324 4.922 C2.217 3.958 2.11 2.993 2 2 C1.34 2 0.68 2 0 2 C0 1.34 0 0.68 0 0 Z " fill="#191814" transform="translate(95,119)"/>
<path d="M0 0 C2 1 2 1 3.117 3.414 C4.278 8.129 4.215 12.542 4.125 17.375 C4.116 18.302 4.107 19.229 4.098 20.184 C4.074 22.456 4.041 24.728 4 27 C3.34 27.33 2.68 27.66 2 28 C1.34 27.34 0.68 26.68 0 26 C0.33 25.67 0.66 25.34 1 25 C1.1 22.731 1.13 20.459 1.125 18.188 C1.128 16.944 1.13 15.7 1.133 14.418 C1.026 11.674 0.723 9.602 0 7 C-0.039 4.667 -0.045 2.333 0 0 Z " fill="#C45D46" transform="translate(152,87)"/>
<path d="M0 0 C0.33 0 0.66 0 1 0 C1.124 1.114 1.248 2.228 1.375 3.375 C2 7 2 7 4 9 C3.01 9.33 2.02 9.66 1 10 C1.33 10.99 1.66 11.98 2 13 C2.039 14.666 2.045 16.334 2 18 C-0.31 18 -2.62 18 -5 18 C-5.33 17.01 -5.66 16.02 -6 15 C-5.34 14.67 -4.68 14.34 -4 14 C-4.33 13.34 -4.66 12.68 -5 12 C-4.361 11.505 -3.721 11.01 -3.062 10.5 C-0.185 7.012 -0.298 4.465 0 0 Z " fill="#4C443E" transform="translate(76,105)"/>
<path d="M0 0 C0.66 0.33 1.32 0.66 2 1 C1.361 1.784 0.721 2.567 0.062 3.375 C-2 6 -2 6 -3 8 C-0.03 8.33 2.94 8.66 6 9 C5.67 10.32 5.34 11.64 5 13 C4.383 12.795 3.765 12.59 3.129 12.379 C-2.627 10.548 -7.98 9.486 -14 9 C-14 8.34 -14 7.68 -14 7 C-13.408 6.997 -12.817 6.995 -12.207 6.992 C-5.83 6.68 -5.83 6.68 -3.289 4.598 C-1.938 2.938 -1.938 2.938 0 0 Z " fill="#353636" transform="translate(80,64)"/>
<path d="M0 0 C0.99 0.165 0.99 0.165 6 1 C6.33 3.31 6.66 5.62 7 8 C5.02 8.66 3.04 9.32 1 10 C-1 8 -1 8 -1.188 5 C-1 2 -1 2 0 0 Z " fill="#76706B" transform="translate(97,66)"/>
<path d="M0 0 C4.95 0 9.9 0 15 0 C15.33 0.99 15.66 1.98 16 3 C14.02 2.34 12.04 1.68 10 1 C9.814 1.639 9.629 2.279 9.438 2.938 C8 5 8 5 4.375 5.75 C3.261 5.833 2.147 5.915 1 6 C0.67 4.02 0.34 2.04 0 0 Z " fill="#0A0C09" transform="translate(112,123)"/>
<path d="M0 0 C3.103 2.538 3.854 5.234 5 9 C6 10 6 10 8.312 10.062 C9.199 10.042 10.086 10.021 11 10 C12.32 10 13.64 10 15 10 C15 10.66 15 11.32 15 12 C11.487 14.342 10.135 14.496 6 14 C2.662 11.849 1.265 10.796 0 7 C-0.04 4.667 -0.044 2.333 0 0 Z " fill="#DCDBD7" transform="translate(58,105)"/>
<path d="M0 0 C2.5 2.188 2.5 2.188 5 5 C5 6.65 5 8.3 5 10 C1.7 9.34 -1.6 8.68 -5 8 C-3.814 4.625 -2.724 2.353 0 0 Z " fill="#7B6960" transform="translate(82,64)"/>
<path d="M0 0 C3.875 1.875 3.875 1.875 5 3 C7.328 3.368 9.662 3.702 12 4 C12 5.32 12 6.64 12 8 C3.799 8.631 3.799 8.631 0.625 6.125 C0.357 5.774 0.357 5.774 -1 4 C-1.99 3.34 -2.98 2.68 -4 2 C-3.01 2.165 -3.01 2.165 2 3 C1.34 2.01 0.68 1.02 0 0 Z " fill="#1C1915" transform="translate(152,119)"/>
<path d="M0 0 C0.33 0.66 0.66 1.32 1 2 C1.66 2 2.32 2 3 2 C3.33 3.98 3.66 5.96 4 8 C3.67 7.34 3.34 6.68 3 6 C1.35 6.33 -0.3 6.66 -2 7 C-2 7.66 -2 8.32 -2 9 C-0.35 9 1.3 9 3 9 C3 9.33 3 9.66 3 10 C-4.385 10.369 -4.385 10.369 -7.5 8.5 C-7.995 8.005 -8.49 7.51 -9 7 C-8.434 6.662 -7.868 6.325 -7.285 5.977 C-6.552 5.531 -5.818 5.085 -5.062 4.625 C-4.332 4.184 -3.601 3.743 -2.848 3.289 C-1 2 -1 2 0 0 Z " fill="#171915" transform="translate(91,121)"/>
<path d="M0 0 C1.134 0.021 2.269 0.041 3.438 0.062 C3.438 1.053 3.438 2.042 3.438 3.062 C4.064 3.184 4.69 3.305 5.336 3.43 C6.153 3.597 6.97 3.765 7.812 3.938 C8.625 4.1 9.437 4.262 10.273 4.43 C12.438 5.062 12.438 5.062 14.438 7.062 C9.748 8.179 6.9 7.869 2.438 6.062 C2.438 5.732 2.438 5.403 2.438 5.062 C0.788 4.732 -0.862 4.403 -2.562 4.062 C-2.562 3.403 -2.562 2.743 -2.562 2.062 C-3.222 1.732 -3.883 1.403 -4.562 1.062 C-3.562 0.062 -3.562 0.062 0 0 Z " fill="#EBDFD0" transform="translate(39.5625,134.9375)"/>
<path d="M0 0 C-1.438 3 -1.438 3 -4 6 C-7.059 6.537 -9.926 6.355 -13 6 C-13.33 6.66 -13.66 7.32 -14 8 C-14 7.01 -14 6.02 -14 5 C-13.34 5 -12.68 5 -12 5 C-12 4.34 -12 3.68 -12 3 C-8.44 -0.856 -4.901 -0.245 0 0 Z " fill="#7A7E7C" transform="translate(79,65)"/>
<path d="M0 0 C2.664 0.36 4.582 0.712 6.812 2.25 C8 4 8 4 8.5 6.438 C8 9 8 9 5.812 11.312 C2.827 13.104 1.403 13.389 -2 13 C-1.361 12.464 -0.721 11.927 -0.062 11.375 C2.432 8.503 2.92 6.78 3 3 C1.562 1.125 1.562 1.125 0 0 Z " fill="#44352C" transform="translate(106,64)"/>
<path d="M0 0 C-2.605 2.033 -5.18 3.75 -8.125 5.25 C-8.808 5.606 -9.491 5.962 -10.195 6.328 C-10.791 6.55 -11.386 6.772 -12 7 C-14 6 -14 6 -16 3 C-11.146 -1.017 -5.95 -0.281 0 0 Z " fill="#403E3B" transform="translate(96,54)"/>
<path d="M0 0 C2.64 0 5.28 0 8 0 C8.625 2.375 8.625 2.375 9 5 C7 7 7 7 3.875 7.125 C3.401 7.104 3.401 7.104 1 7 C0.67 4.69 0.34 2.38 0 0 Z " fill="#F68F6F" transform="translate(86,67)"/>
<path d="M0 0 C0.387 0.095 0.387 0.095 2.344 0.578 C3.117 0.759 3.891 0.939 4.688 1.125 C6.844 1.828 6.844 1.828 9.844 3.828 C8.854 4.818 7.864 5.808 6.844 6.828 C6.844 6.168 6.844 5.508 6.844 4.828 C2.884 4.828 -1.076 4.828 -5.156 4.828 C-5.156 3.838 -5.156 2.848 -5.156 1.828 C-2.156 -0.172 -2.156 -0.172 0 0 Z " fill="#EE744F" transform="translate(89.15625,61.171875)"/>
<path d="M0 0 C0 0.33 0 0.66 0 1 C-0.322 1.022 -0.322 1.022 -1.953 1.136 C-4.928 1.35 -7.901 1.581 -10.875 1.812 C-11.888 1.883 -12.901 1.953 -13.945 2.025 C-19.97 2.508 -25.333 3.478 -31.043 5.483 C-33 6 -33 6 -35 5 C-34 3 -34 3 -31.625 1.938 C-21.342 -0.722 -10.542 -0.111 0 0 Z " fill="#D7CAB7" transform="translate(130,139)"/>
<path d="M0 0 C0.763 0.206 1.526 0.412 2.312 0.625 C2.013 0.738 2.013 0.738 0.5 1.312 C-1.688 2.625 -1.688 2.625 -3 5.25 C-3.557 6.034 -4.114 6.817 -4.688 7.625 C-8.375 7.938 -8.375 7.938 -11.688 7.625 C-11.688 6.305 -11.688 4.985 -11.688 3.625 C-11.223 3.481 -11.223 3.481 -8.875 2.75 C-0.776 -0.108 -0.776 -0.108 0 0 Z " fill="#1C1C18" transform="translate(41.6875,126.375)"/>
<path d="M0 0 C-2.857 2.295 -5.622 3.896 -9 5.312 C-9.423 5.496 -9.423 5.496 -11.562 6.426 C-14 7 -14 7 -16.312 6.105 C-16.869 5.741 -17.426 5.376 -18 5 C-12.399 0.261 -7.054 -0.243 0 0 Z " fill="#CBBCA9" transform="translate(155,128)"/>
<path d="M0 0 C-0.99 0.66 -1.98 1.32 -3 2 C-2.67 2.66 -2.34 3.32 -2 4 C-8.831 5.182 -15.126 4.745 -22 4 C-21.67 3.34 -21.34 2.68 -21 2 C-17.7 2.33 -14.4 2.66 -11 3 C-10.67 2.34 -10.34 1.68 -10 1 C-6.785 -0.607 -3.564 -0.057 0 0 Z " fill="#B72903" transform="translate(143,116)"/>
<path d="M0 0 C5.94 0 11.88 0 18 0 C17.67 0.165 17.67 0.165 16 1 C15.928 1.392 15.928 1.392 15.562 3.375 C14.946 6.251 14.223 7.164 12 9 C11.34 8.67 10.68 8.34 10 8 C10.474 7.567 10.949 7.134 11.438 6.688 C13 5 13 5 14 2 C9.38 2 4.76 2 0 2 C0 1.34 0 0.68 0 0 Z " fill="#36332A" transform="translate(54,132)"/>
<path d="M0 0 C0.33 0 0.66 0 1 0 C1.027 2.25 1.046 4.5 1.062 6.75 C1.074 8.003 1.086 9.256 1.098 10.547 C1.02 13.285 0.828 15.419 0 18 C-3.75 19.125 -3.75 19.125 -6 18 C-5.711 17.443 -5.423 16.886 -5.125 16.312 C-4 14 -4 14 -3 11.312 C-2 9 -2 9 0 8 C0 5.36 0 2.72 0 0 Z " fill="#B13D1D" transform="translate(153,98)"/>
<path d="M0 0 C0.66 0 1.32 0 2 0 C2.598 3.346 3.063 6.596 3 10 C1 12.688 1 12.688 -1 15 C-0.75 18.812 -0.75 18.812 0 22 C-0.99 22 -1.98 22 -3 22 C-3.376 14.485 -3.376 14.485 -1.5 12.062 C0.402 9.448 0.313 7.941 0.188 4.75 C0.16 3.858 0.133 2.966 0.105 2.047 C0.071 1.371 0.036 0.696 0 0 Z " fill="#3D3D38" transform="translate(96,125)"/>
<path d="M0 0 C0.33 0 0.66 0 1 0 C1.66 1.98 2.32 3.96 3 6 C3.33 6 3.66 6 4 6 C3.979 7.114 3.959 8.227 3.938 9.375 C4 13 4 13 5 15 C4.67 15.66 4.34 16.32 4 17 C4.99 17.33 5.98 17.66 7 18 C7 18.66 7 19.32 7 20 C4.532 18.848 2.952 17.952 1 16 C0.694 13.266 0.489 10.617 0.375 7.875 C0.336 7.121 0.298 6.367 0.258 5.59 C0.163 3.727 0.081 1.864 0 0 Z " fill="#951C02" transform="translate(96,99)"/>
<path d="M0 0 C5.762 4.384 10.986 9.168 12.527 16.512 C12.776 18.682 12.944 20.817 13 23 C10.585 20.585 9.951 18.503 8.75 15.312 C6.547 9.834 4.003 6.283 0 2 C0 1.34 0 0.68 0 0 Z " fill="#280E07" transform="translate(83,79)"/>
<path d="M0 0 C3.125 0.25 3.125 0.25 5 1.25 C6.83 4.503 6.306 7.564 6.125 11.25 C5.991 10.951 5.991 10.951 5.312 9.438 C4.065 7.14 3.294 5.722 1.125 4.25 C-2.062 4.562 -2.062 4.562 -4.875 5.25 C-3.763 0.327 -3.763 0.327 0 0 Z " fill="#EDECE9" transform="translate(42.875,95.75)"/>
<path d="M0 0 C1.011 0.66 2.021 1.32 3.062 2 C6.842 4.146 9.62 4.568 14 4 C16.812 2.5 16.812 2.5 19 1 C19.66 1 20.32 1 21 1 C21 1.66 21 2.32 21 3 C20.34 3 19.68 3 19 3 C19 3.66 19 4.32 19 5 C15.629 6.498 13.796 7 10 7 C9.67 7.66 9.34 8.32 9 9 C9 8.34 9 7.68 9 7 C8.072 6.732 7.144 6.464 6.188 6.188 C3.242 5.09 1.85 4.466 0 2 C0 1.34 0 0.68 0 0 Z " fill="#1A1616" transform="translate(43,120)"/>
<path d="M0 0 C8.58 0 17.16 0 26 0 C25.67 0.66 25.34 1.32 25 2 C21.95 3.017 20.668 3.002 17.562 2.625 C13.503 2.163 9.447 1.77 5.375 1.438 C4.351 1.354 3.328 1.27 2.273 1.184 C1.523 1.123 0.773 1.062 0 1 C0 0.67 0 0.34 0 0 Z " fill="#EFE5D7" transform="translate(63,144)"/>
<path d="M0 0 C0.66 0 1.32 0 2 0 C3.478 2.957 3.06 5.742 3 9 C1.062 9.562 1.062 9.562 -1 10 C-2 9 -2 9 -2.188 5.562 C-2 2 -2 2 0 0 Z " fill="#4E2811" transform="translate(144,102)"/>
<path d="M0 0 C0.66 0.66 1.32 1.32 2 2 C1.67 2.99 1.34 3.98 1 5 C-8.595 4.405 -8.595 4.405 -12 1 C-7.946 0.228 -4.129 -0.282 0 0 Z " fill="#C2B39F" transform="translate(64,137)"/>
<path d="M0 0 C0.218 0.211 0.218 0.211 1.32 1.277 C5.11 4.764 7.646 6.739 13 7 C13 7.33 13 7.66 13 8 C6.666 8.345 1.897 7.293 -4 5 C-2.68 3.35 -1.36 1.7 0 0 Z " fill="#AF9F8C" transform="translate(125,132)"/>
<path d="M0 0 C0.99 0 1.98 0 3 0 C3.33 0.99 3.66 1.98 4 3 C4.99 3 5.98 3 7 3 C5.606 7.435 3.394 9.874 0 13 C0 8.71 0 4.42 0 0 Z " fill="#121513" transform="translate(86,112)"/>
<path d="M0 0 C2.812 0.625 2.812 0.625 6 2 C6.495 3.011 6.99 4.021 7.5 5.062 C7.748 5.547 7.748 5.547 9 8 C12.188 8.875 12.188 8.875 15 9 C15 9.33 15 9.66 15 10 C9.884 11.214 9.884 11.214 7 11 C3.47 7.777 1.467 4.533 0 0 Z " fill="#34322B" transform="translate(125,126)"/>
<path d="M0 0 C3.25 -0.058 6.5 -0.094 9.75 -0.125 C10.67 -0.142 11.591 -0.159 12.539 -0.176 C13.429 -0.182 14.318 -0.189 15.234 -0.195 C16.051 -0.206 16.868 -0.216 17.71 -0.227 C20.219 0.022 21.834 0.743 24 2 C23.031 1.979 22.061 1.959 21.062 1.938 C18.162 1.92 15.43 2.202 12.562 2.625 C7.929 3.206 4.439 2.372 0 1 C0 0.67 0 0.34 0 0 Z " fill="#CA5E42" transform="translate(90,51)"/>
<path d="M0 0 C-0.33 0.66 -0.66 1.32 -1 2 C-1.04 3.666 -1.044 5.334 -1 7 C-2.65 7.33 -4.3 7.66 -6 8 C-6 7.01 -6 6.02 -6 5 C-6.306 3.66 -6.635 2.325 -7 1 C-3.375 -1.125 -3.375 -1.125 0 0 Z " fill="#313635" transform="translate(43,117)"/>
<path d="M0 0 C1.407 0.145 2.818 0.246 4.23 0.316 C4.632 0.337 4.632 0.337 6.662 0.443 C7.495 0.483 8.329 0.522 9.188 0.562 C10.032 0.606 10.877 0.649 11.748 0.693 C13.832 0.799 15.916 0.9 18 1 C18.33 0.34 18.66 -0.32 19 -1 C19 0.65 19 2.3 19 4 C18.01 3.67 17.02 3.34 16 3 C14.374 2.853 12.744 2.753 11.113 2.684 C10.175 2.642 9.238 2.6 8.271 2.557 C7.295 2.517 6.319 2.478 5.312 2.438 C4.324 2.394 3.336 2.351 2.318 2.307 C-0.121 2.201 -2.56 2.099 -5 2 C-5.33 1.34 -5.66 0.68 -6 0 C-3 -1 -3 -1 0 0 Z " fill="#C8BAA7" transform="translate(72,140)"/>
<path d="M0 0 C3.3 0 6.6 0 10 0 C10.33 1.32 10.66 2.64 11 4 C6.916 4 3.877 3.193 0 2 C0 1.34 0 0.68 0 0 Z " fill="#211F1C" transform="translate(131,136)"/>
<path d="M0 0 C0.66 0.66 1.32 1.32 2 2 C1 3 1 3 -2.562 3.062 C-3.697 3.042 -4.831 3.021 -6 3 C-6 2.34 -6 1.68 -6 1 C-8.97 1.66 -11.94 2.32 -15 3 C-14 1 -14 1 -11.438 -0.188 C-7.109 -1.211 -4.355 -0.871 0 0 Z " fill="#4B322F" transform="translate(68,74)"/>
<path d="M0 0 C0.299 0.103 0.299 0.103 1.812 0.625 C1.153 0.625 0.492 0.625 -0.188 0.625 C-0.126 1.409 -0.064 2.192 0 3 C-0.062 3.866 -0.124 4.733 -0.188 5.625 C-1.178 6.285 -2.168 6.945 -3.188 7.625 C-3.517 6.635 -3.847 5.645 -4.188 4.625 C-4.786 4.955 -5.384 5.285 -6 5.625 C-8.188 6.625 -8.188 6.625 -11.188 6.625 C-2.778 -0.476 -2.778 -0.476 0 0 Z " fill="#767B7B" transform="translate(57.1875,76.375)"/>
<path d="M0 0 C0.66 0.33 1.32 0.66 2 1 C0.68 1.99 -0.64 2.98 -2 4 C-1.67 4.495 -1.67 4.495 0 7 C-1.32 7 -2.64 7 -4 7 C-7.019 8.227 -9.446 9.993 -12 12 C-10.564 8.612 -8.795 6.681 -6 4.312 C-5.299 3.711 -4.597 3.109 -3.875 2.488 C-2 1 -2 1 0 0 Z " fill="#F5936B" transform="translate(70,60)"/>
<path d="M0 0 C0.598 0.454 1.196 0.907 1.812 1.375 C3.506 2.633 5.245 3.83 7 5 C6.01 5 5.02 5 4 5 C3.67 5.99 3.34 6.98 3 8 C1.68 8 0.36 8 -1 8 C-1.042 5.667 -1.041 3.333 -1 1 C-0.67 0.67 -0.34 0.34 0 0 Z " fill="#634942" transform="translate(36,110)"/>
<path d="M0 0 C1.65 0 3.3 0 5 0 C5.562 1.938 5.562 1.938 6 4 C5.67 4.33 5.34 4.66 5 5 C2.661 4.713 0.326 4.381 -2 4 C-1.34 2.68 -0.68 1.36 0 0 Z " fill="#696E6E" transform="translate(77,84)"/>
<path d="M0 0 C0.33 0 0.66 0 1 0 C1.188 2.375 1.188 2.375 1 5 C-2 7 -2 7 -4.188 6.625 C-4.786 6.419 -5.384 6.213 -6 6 C-6.33 6.99 -6.66 7.98 -7 9 C-8 7 -9 5 -10 3 C-7.03 3 -4.06 3 -1 3 C-0.67 2.01 -0.34 1.02 0 0 Z " fill="#454A4B" transform="translate(83,85)"/>
<path d="M0 0 C2.64 0.66 5.28 1.32 8 2 C8 2.66 8 3.32 8 4 C9.98 4 11.96 4 14 4 C10.347 6.436 9.012 6.123 4.875 5.484 C2.5 4.871 1.325 4.071 0 2 C0 1.34 0 0.68 0 0 Z " fill="#D3491F" transform="translate(83,77)"/>
<path d="M0 0 C0.66 0.33 1.32 0.66 2 1 C1.67 1.66 1.34 2.32 1 3 C1.278 3.041 1.278 3.041 2.688 3.25 C5.697 4.226 7.622 5.952 10 8 C7.066 8.349 4.856 8.515 2.266 6.957 C0.625 5.625 0.625 5.625 -2 3 C-2 2.34 -2 1.68 -2 1 C-1.34 0.67 -0.68 0.34 0 0 Z " fill="#DAD3CA" transform="translate(153,115)"/>
<path d="M0 0 C2 0.312 2 0.312 4 1 C4.33 1.66 4.66 2.32 5 3 C3.75 4.562 3.75 4.562 2 6 C-0.188 5.688 -0.188 5.688 -2 5 C-1.125 1.125 -1.125 1.125 0 0 Z " fill="#33312B" transform="translate(24,84)"/>
<path d="M0 0 C-1 2 -1 2 -4 4 C-3.34 4.66 -2.68 5.32 -2 6 C-3.65 6.33 -5.3 6.66 -7 7 C-7 5.02 -7 3.04 -7 1 C-3.375 -1.125 -3.375 -1.125 0 0 Z " fill="#765349" transform="translate(85,54)"/>
<path d="M0 0 C1.32 0.33 2.64 0.66 4 1 C3.67 2.32 3.34 3.64 3 5 C1.35 5 -0.3 5 -2 5 C-2 6.65 -2 8.3 -2 10 C-2.33 10 -2.66 10 -3 10 C-3.369 4.585 -3.369 4.585 -1.5 1.625 C-1.005 1.089 -0.51 0.552 0 0 Z " fill="#585651" transform="translate(40,99)"/>
<path d="M0 0 C2.64 0.33 5.28 0.66 8 1 C8 3.31 8 5.62 8 8 C7.67 8.165 7.67 8.165 6 9 C5.67 6.69 5.34 4.38 5 2 C3.35 2 1.7 2 0 2 C0 1.34 0 0.68 0 0 Z " fill="#565452" transform="translate(98,65)"/>
<path d="M0 0 C2 4 2 4 3 7 C1.515 7.495 1.515 7.495 -6 10 C-4.02 6.7 -2.04 3.4 0 0 Z " fill="#B1A390" transform="translate(101,132)"/>
<path d="M0 0 C1.98 0.495 1.98 0.495 12 3 C9 5 9 5 5.812 4.625 C4.884 4.419 3.956 4.213 3 4 C2.67 4.66 2.34 5.32 2 6 C1.34 6 0.68 6 0 6 C0 4.02 0 2.04 0 0 Z " fill="#9F917E" transform="translate(100,128)"/>
<path d="M0 0 C1.32 0 2.64 0 4 0 C4 0.66 4 1.32 4 2 C5.32 2 6.64 2 8 2 C8 2.66 8 3.32 8 4 C8.66 4.33 9.32 4.66 10 5 C7.03 5 4.06 5 1 5 C0.67 3.35 0.34 1.7 0 0 Z " fill="#4B5052" transform="translate(58,75)"/>
<path d="M0 0 C1.65 0.33 1.65 0.33 10 2 C9.67 3.32 9.34 4.64 9 6 C6.03 5.01 3.06 4.02 0 3 C0 2.01 0 1.02 0 0 Z " fill="#564F48" transform="translate(76,71)"/>
<path d="M0 0 C0.99 0.33 1.98 0.66 3 1 C2.34 1 1.68 1 1 1 C1 3.97 1 6.94 1 10 C0.34 8.68 -0.32 7.36 -1 6 C-2.65 6 -4.3 6 -6 6 C-6 5.34 -6 4.68 -6 4 C-4.35 3.67 -2.7 3.34 -1 3 C-0.67 2.01 -0.34 1.02 0 0 Z " fill="#232420" transform="translate(95,124)"/>
<path d="M0 0 C1.17 0.195 2.341 0.389 3.547 0.59 C4.439 0.746 5.331 0.902 6.25 1.062 C6.25 1.393 6.25 1.722 6.25 2.062 C3.979 2.116 1.708 2.155 -0.562 2.188 C-1.195 2.199 -1.195 2.199 -4.395 2.258 C-7.75 2.062 -7.75 2.062 -10.75 0.062 C-6.976 -1.273 -3.892 -0.662 0 0 Z " fill="#B0A18C" transform="translate(83.75,137.9375)"/>
<path d="M0 0 C6.335 -0.478 6.335 -0.478 9 1.438 C10.53 5.359 9.722 8.929 9 13 C8.67 13 8.34 13 8 13 C7.976 12.687 7.976 12.687 7.852 11.102 C7.777 10.284 7.702 9.467 7.625 8.625 C7.59 8.219 7.59 8.219 7.414 6.164 C7 4 7 4 5 2 C2.375 1.375 2.375 1.375 0 1 C0 0.67 0 0.34 0 0 Z " fill="#4C4E4B" transform="translate(41,95)"/>
<path d="M0 0 C0.66 0.33 1.32 0.66 2 1 C0.68 4.3 -0.64 7.6 -2 11 C-2.33 11 -2.66 11 -3 11 C-3.369 3.492 -3.369 3.492 -1.5 1 C-1.005 0.67 -0.51 0.34 0 0 Z " fill="#E7E5E3" transform="translate(62,100)"/>
<path d="M0 0 C0.99 0 1.98 0 3 0 C3 0.66 3 1.32 3 2 C7.29 2 11.58 2 16 2 C10 5 10 5 7.871 4.512 C7.068 4.24 6.265 3.968 5.438 3.688 C4.632 3.423 3.826 3.159 2.996 2.887 C1 2 1 2 0 0 Z " fill="#C1502F" transform="translate(89,60)"/>
<path d="M0 0 C-2.932 2.391 -5.721 3.841 -9.25 5.188 C-9.696 5.36 -9.696 5.36 -11.953 6.23 C-12.629 6.484 -13.304 6.738 -14 7 C-13 4 -13 4 -11.328 2.832 C-4.427 -0.553 -4.427 -0.553 0 0 Z " fill="#D8CAB8" transform="translate(155,128)"/>
<path d="M0 0 C0 0.99 0 1.98 0 3 C-1.98 3 -3.96 3 -6 3 C-6.33 2.01 -6.66 1.02 -7 0 C-4.333 -1.333 -2.833 -0.671 0 0 Z " fill="#833E33" transform="translate(77,120)"/>
<path d="M0 0 C0.33 0 0.66 0 1 0 C1 1.98 1 3.96 1 6 C-0.98 6.66 -2.96 7.32 -5 8 C-5.66 7.34 -6.32 6.68 -7 6 C-6.216 5.752 -5.433 5.505 -4.625 5.25 C-1.677 3.846 -1.098 2.993 0 0 Z " fill="#4C4A44" transform="translate(107,69)"/>
<path d="M0 0 C0.66 0.33 1.32 0.66 2 1 C1.01 2.32 0.02 3.64 -1 5 C0.65 5 2.3 5 4 5 C4 5.33 4 5.66 4 6 C1.03 6 -1.94 6 -5 6 C-5.33 6.66 -5.66 7.32 -6 8 C-6 7.01 -6 6.02 -6 5 C-5.34 5 -4.68 5 -4 5 C-4 4.34 -4 3.68 -4 3 C-2 1.375 -2 1.375 0 0 Z " fill="#7D645A" transform="translate(71,65)"/>
<path d="M0 0 C0.391 0.086 0.391 0.086 2.371 0.52 C4.562 1.188 4.562 1.188 7.562 3.188 C7.233 3.353 7.233 3.353 5.562 4.188 C4.903 3.858 4.243 3.528 3.562 3.188 C1.231 2.918 -1.101 2.742 -3.441 2.566 C-4.1 2.441 -4.759 2.316 -5.438 2.188 C-5.767 1.528 -6.097 0.867 -6.438 0.188 C-3.859 -1.102 -2.778 -0.634 0 0 Z " fill="#E0633C" transform="translate(91.4375,61.8125)"/>
<path d="M0 0 C0.33 0.66 0.66 1.32 1 2 C1.66 2 2.32 2 3 2 C3.33 3.98 3.66 5.96 4 8 C3.34 6.68 2.68 5.36 2 4 C1.216 4.495 0.433 4.99 -0.375 5.5 C-3 7 -3 7 -5 7 C-5 5 -5 5 -2.5 2.375 C-1.675 1.591 -0.85 0.808 0 0 Z " fill="#10110E" transform="translate(91,121)"/>
<path d="M0 0 C0.33 0.66 0.66 1.32 1 2 C-0.625 4 -0.625 4 -3 6 C-6.25 6.25 -6.25 6.25 -9 6 C-9 5.34 -9 4.68 -9 4 C-7.886 3.711 -6.772 3.422 -5.625 3.125 C-2 2 -2 2 0 0 Z " fill="#A72906" transform="translate(131,106)"/>
<path d="M0 0 C0.66 0.33 0.66 0.33 4 2 C4 3.98 4 5.96 4 8 C3.01 7.67 2.02 7.34 1 7 C0.67 4.69 0.34 2.38 0 0 Z " fill="#181613" transform="translate(43,100)"/>
<path d="M0 0 C0.33 0 0.66 0 1 0 C1 3.63 1 7.26 1 11 C0.01 10.67 -0.98 10.34 -2 10 C-2.22 6.144 -1.604 3.508 0 0 Z " fill="#393123" transform="translate(152,94)"/>
<path d="M0 0 C6.429 4.143 6.429 4.143 9 7 C8.67 7.66 8.34 8.32 8 9 C7.134 8.216 6.268 7.433 5.375 6.625 C2.449 4.166 -0.275 2.975 -4 2 C-2.68 1.34 -1.36 0.68 0 0 Z " fill="#A63717" transform="translate(130,62)"/>
<path d="M0 0 C-1.062 1.5 -1.062 1.5 -3 3 C-6.688 3.188 -6.688 3.188 -10 3 C-10 2.34 -10 1.68 -10 1 C-6.785 -0.607 -3.564 -0.057 0 0 Z " fill="#74402D" transform="translate(104,58)"/>
<path d="M0 0 C4.957 1.239 7.117 2.786 10 7 C9.01 7.33 8.02 7.66 7 8 C6.711 7.608 6.711 7.608 5.25 5.625 C3.171 3.2 1.91 2.143 -1 1 C-0.67 0.67 -0.34 0.34 0 0 Z " fill="#615F5A" transform="translate(29,86)"/>
<path d="M0 0 C0.66 0.33 1.32 0.66 2 1 C1.216 1.598 0.432 2.196 -0.375 2.812 C-3 5 -3 5 -5 8 C-6.32 7.34 -7.64 6.68 -9 6 C-6 4 -3 2 0 0 Z " fill="#52595A" transform="translate(53,79)"/>
<path d="M0 0 C-3.448 2.053 -5.317 3.063 -9.375 2.688 C-10.241 2.461 -11.108 2.234 -12 2 C-12 1.34 -12 0.68 -12 0 C-10.564 -0.196 -9.126 -0.381 -7.688 -0.562 C-6.887 -0.667 -6.086 -0.771 -5.262 -0.879 C-3 -1 -3 -1 0 0 Z " fill="#E4552C" transform="translate(103,79)"/>
<path d="M0 0 C2.31 0 4.62 0 7 0 C7.33 1.32 7.66 2.64 8 4 C6.35 4.33 4.7 4.66 3 5 C3.33 4.01 3.66 3.02 4 2 C2.68 1.34 1.36 0.68 0 0 Z " fill="#853C27" transform="translate(98,57)"/>
<path d="M0 0 C4.29 0.33 8.58 0.66 13 1 C13 1.33 13 1.66 13 2 C10.855 2.165 10.855 2.165 0 3 C0 2.01 0 1.02 0 0 Z " fill="#2F2E27" transform="translate(106,128)"/>
<path d="M0 0 C1.134 0.021 2.269 0.041 3.438 0.062 C3.438 1.382 3.438 2.703 3.438 4.062 C-2.312 2.188 -2.312 2.188 -4.562 1.062 C-3.562 0.062 -3.562 0.062 0 0 Z " fill="#34322E" transform="translate(160.5625,122.9375)"/>
<path d="M0 0 C2.97 0 5.94 0 9 0 C9 0.33 9 0.66 9 1 C8.546 1.124 8.546 1.124 6.25 1.75 C2.896 3.04 1.323 4.32 -1 7 C-0.67 4.69 -0.34 2.38 0 0 Z " fill="#353635" transform="translate(37,94)"/>
<path d="M0 0 C0.33 0.66 0.66 1.32 1 2 C-0.32 2 -1.64 2 -3 2 C-3 2.66 -3 3.32 -3 4 C-1.35 4 0.3 4 2 4 C2 4.33 2 4.66 2 5 C-0.31 5 -2.62 5 -5 5 C-5 3.68 -5 2.36 -5 1 C-3.35 0.67 -1.7 0.34 0 0 Z " fill="#484841" transform="translate(35,129)"/>
<path d="M0 0 C0.701 0.474 1.403 0.949 2.125 1.438 C5.161 3.087 7.592 3.604 11 4 C11 4.33 11 4.66 11 5 C3.55 6.344 3.55 6.344 1 4.75 C0 3 0 3 0 0 Z " fill="#414037" transform="translate(129,131)"/>
<path d="M0 0 C1.98 0 3.96 0 6 0 C5.34 1.32 4.68 2.64 4 4 C2.68 3.67 1.36 3.34 0 3 C0 2.01 0 1.02 0 0 Z " fill="#F7997B" transform="translate(87,68)"/>
<path d="M0 0 C3.3 0.33 6.6 0.66 10 1 C10 1.33 10 1.66 10 2 C8.02 2.165 8.02 2.165 -2 3 C-1.34 2.01 -0.68 1.02 0 0 Z " fill="#AE9E8B" transform="translate(54,135)"/>
<path d="M0 0 C0.33 0.165 0.33 0.165 2 1 C2.414 3.066 2.414 3.066 2.625 5.562 C2.7 6.389 2.775 7.215 2.852 8.066 C2.876 8.385 2.876 8.385 3 10 C2.67 9.01 2.34 8.02 2 7 C1.34 7 0.68 7 0 7 C0 4.69 0 2.38 0 0 Z " fill="#A64F43" transform="translate(152,87)"/>
<path d="M0 0 C1.32 0.33 2.64 0.66 4 1 C4 1.99 4 2.98 4 4 C2.02 4 0.04 4 -2 4 C-1.34 2.68 -0.68 1.36 0 0 Z " fill="#888681" transform="translate(80,66)"/>
<path d="M0 0 C0.33 1.32 0.66 2.64 1 4 C2.65 4.33 4.3 4.66 6 5 C6 5.33 6 5.66 6 6 C3.03 6 0.06 6 -3 6 C-2.01 4.02 -1.02 2.04 0 0 Z " fill="#B6A794" transform="translate(70,134)"/>
<path d="M0 0 C1.485 0.33 1.485 0.33 9 2 C6 4 6 4 3.312 3.625 C2.549 3.419 1.786 3.213 1 3 C0.67 2.01 0.34 1.02 0 0 Z " fill="#41403E" transform="translate(48,129)"/>
<path d="M0 0 C1.938 0.688 1.938 0.688 2.938 2.688 C0.297 3.018 -2.343 3.347 -5.062 3.688 C-4.733 2.697 -4.403 1.708 -4.062 0.688 C-2.062 -0.312 -2.062 -0.312 0 0 Z " fill="#E8E3D9" transform="translate(44.0625,129.3125)"/>
<path d="M0 0 C2 4 2 4 1.125 6.75 C0.754 7.493 0.383 8.235 0 9 C-0.99 9 -1.98 9 -3 9 C-2.01 6.03 -1.02 3.06 0 0 Z " fill="#C0BDB7" transform="translate(47,103)"/>
<path d="M0 0 C0.598 0.268 1.196 0.536 1.812 0.812 C2.142 1.803 2.472 2.792 2.812 3.812 C1.328 3.483 1.328 3.483 -6.188 1.812 C-2.188 -0.188 -2.188 -0.188 0 0 Z " fill="#DF5E41" transform="translate(121.1875,54.1875)"/>
<path d="M0 0 C0 0.33 0 0.66 0 1 C-1.623 1.222 -3.249 1.427 -4.875 1.625 C-5.327 1.683 -5.327 1.683 -7.617 1.977 C-8.404 1.984 -9.19 1.992 -10 2 C-10.66 1.34 -11.32 0.68 -12 0 C-7.916 -1.532 -4.205 -0.631 0 0 Z " fill="#862F1F" transform="translate(115,53)"/>
<path d="M0 0 C0.33 0.99 0.66 1.98 1 3 C0 4 0 4 -3.062 4.062 C-3.547 4.052 -3.547 4.052 -6 4 C-6 3.34 -6 2.68 -6 2 C-4.02 1.34 -2.04 0.68 0 0 Z " fill="#6D3225" transform="translate(59,125)"/>
<path d="M0 0 C2.31 0 4.62 0 7 0 C6.67 0.495 6.67 0.495 5 3 C2.375 3.188 2.375 3.188 0 3 C0 2.01 0 1.02 0 0 Z " fill="#27251F" transform="translate(131,123)"/>
<path d="M0 0 C2.188 0.312 2.188 0.312 4 1 C3.67 1.165 3.67 1.165 2 2 C1.67 2.99 1.34 3.98 1 5 C-0.32 4.34 -1.64 3.68 -3 3 C-1.75 1.438 -1.75 1.438 0 0 Z " fill="#65635F" transform="translate(65,102)"/>
<path d="M0 0 C0 0.33 0 0.66 0 1 C-1.073 1.289 -2.145 1.578 -3.25 1.875 C-6.094 2.728 -8.435 3.564 -11 5 C-8.455 -0.635 -5.972 -0.111 0 0 Z " fill="#422216" transform="translate(128,90)"/>
<path d="M0 0 C1.65 0.33 3.3 0.66 5 1 C5 1.99 5 2.98 5 4 C4.01 3.835 4.01 3.835 -1 3 C-0.67 2.01 -0.34 1.02 0 0 Z " fill="#404748" transform="translate(68,89)"/>
<path d="M0 0 C1.32 0 2.64 0 4 0 C4.66 0.99 5.32 1.98 6 3 C4.125 4.062 4.125 4.062 2 5 C1.34 4.67 0.68 4.34 0 4 C0 2.68 0 1.36 0 0 Z " fill="#4B5153" transform="translate(52,82)"/>
</svg>
