<?xml version="1.0" encoding="UTF-8"?>
<!-- Generator: visioncortex VTracer 0.6.12 -->
<svg version="1.1" xmlns="http://www.w3.org/2000/svg" width="162" height="180">
<path d="M0 0 C53.46 0 106.92 0 162 0 C162 59.4 162 118.8 162 180 C108.54 180 55.08 180 0 180 C0 120.6 0 61.2 0 0 Z " fill="#FCF7EF" transform="translate(0,0)"/>
<path d="M0 0 C2.968 0.503 5.267 1.601 7.875 3.062 C11.437 4.88 13.947 5.54 18 5 C19.675 4.356 21.342 3.688 23 3 C34.794 0.974 44.912 1.243 56.16 5.164 C62.592 7.057 67.212 5.026 73 2 C74.32 2 75.64 2 77 2 C77.917 6.995 77.848 11.007 77 16 C77 20.506 78.38 23.151 80.438 27 C84.531 34.75 85.182 40.307 85.188 49 C85.2 49.998 85.212 50.995 85.225 52.023 C85.227 52.985 85.228 53.947 85.23 54.938 C85.235 55.813 85.239 56.688 85.243 57.59 C85 60 85 60 83.911 62.17 C83.61 62.774 83.31 63.378 83 64 C84.195 66.34 84.195 66.34 86.125 68.938 C93.445 79.701 96.761 93.797 94.527 106.738 C93.333 113.995 93.333 113.995 95.527 117.301 C97.5 119.375 97.5 119.375 99.531 121.148 C101 123 101 123 100.781 125.664 C100 128 100 128 99 129 C81.454 131.087 81.454 131.087 74 129 C73.67 129.33 73.34 129.66 73 130 C78.28 130.66 83.56 131.32 89 132 C89 132.99 89 133.98 89 135 C82.947 136.876 76.937 137.879 70.672 138.768 C65.657 139.539 61.605 140.873 57 143 C53.21 143.892 50.702 144.111 47 143 C45.68 143 44.36 143 43 143 C43 142.34 43 141.68 43 141 C41.68 141.33 40.36 141.66 39 142 C38.2 138.713 37.903 137.29 39 134 C34.207 134.355 30.375 135.124 25.938 137 C19.73 139.614 14.653 140.46 8 139 C8 138.01 8 137.02 8 136 C6.68 136.33 5.36 136.66 4 137 C4.75 131.25 4.75 131.25 7 129 C9.625 128.375 9.625 128.375 12 128 C11.481 127.553 10.961 127.105 10.426 126.645 C6.476 123.221 2.603 119.793 -1 116 C-1.247 115.751 -1.247 115.751 -2.496 114.488 C-11.238 105.135 -12.56 93.325 -12.367 80.992 C-12.112 76.375 -10.475 73.001 -8.113 69.062 C-6.631 66.317 -6.598 64.059 -7 61 C-7.66 61 -8.32 61 -9 61 C-12.262 46.524 -12.262 46.524 -10 42 C-9.959 40.763 -9.918 39.525 -9.875 38.25 C-9.128 30.46 -4.443 23.473 -0.754 16.719 C0.335 14.236 -0.414 12.637 -1 10 C-1.144 6.998 -1.211 4 -1 1 C-0.67 0.67 -0.34 0.34 0 0 Z " fill="#986539" transform="translate(30,26)"/>
<path d="M0 0 C2.968 0.503 5.267 1.601 7.875 3.062 C11.437 4.88 13.947 5.54 18 5 C19.675 4.356 21.342 3.688 23 3 C34.794 0.974 44.912 1.243 56.16 5.164 C62.592 7.057 67.212 5.026 73 2 C74.32 2 75.64 2 77 2 C77.917 6.995 77.848 11.007 77 16 C77 20.506 78.38 23.151 80.438 27 C84.531 34.75 85.182 40.307 85.188 49 C85.2 49.998 85.212 50.995 85.225 52.023 C85.227 52.985 85.228 53.947 85.23 54.938 C85.235 55.813 85.239 56.688 85.243 57.59 C85 60 85 60 83.911 62.17 C83.61 62.774 83.31 63.378 83 64 C84.195 66.34 84.195 66.34 86.125 68.938 C93.445 79.701 96.761 93.797 94.527 106.738 C93.333 113.995 93.333 113.995 95.527 117.301 C97.5 119.375 97.5 119.375 99.531 121.148 C101 123 101 123 100.781 125.664 C100 128 100 128 99 129 C94.681 129.514 90.341 129.744 86 130 C85.175 130.055 84.35 130.111 83.5 130.168 C80.252 130.297 78.321 130.193 75.5 128.5 C75.005 128.005 74.51 127.51 74 127 C75.98 125.35 77.96 123.7 80 122 C77.337 119.902 74.724 118.306 71.688 116.812 C63.736 112.399 59.224 105.979 55.934 97.586 C54.08 90.466 54.167 83.339 54 76 C48.06 75.67 42.12 75.34 36 75 C36.66 74.67 37.32 74.34 38 74 C38 73.34 38 72.68 38 72 C38.66 72 39.32 72 40 72 C39.67 71.01 39.34 70.02 39 69 C39.632 69.107 40.263 69.214 40.914 69.324 C48.98 70.405 56.226 69.401 64 67 C64.66 66.34 65.32 65.68 66 65 C66.99 65 67.98 65 69 65 C69 64.01 69 63.02 69 62 C69.66 62 70.32 62 71 62 C71.289 61.113 71.578 60.226 71.875 59.312 C73 56 73 56 74.047 53.652 C76.281 47.436 75.851 40.236 73.438 34.125 C70.912 29.146 66.983 25.491 62 23 C54.112 22.318 47.603 22.392 41 27 C39.928 27.742 38.855 28.485 37.75 29.25 C34.483 32.517 32.779 35.784 31 40 C30.67 40 30.34 40 30 40 C29.909 39.704 29.909 39.704 29.449 38.207 C26.72 29.626 26.72 29.626 24 26 C23.01 25.67 22.02 25.34 21 25 C20.67 24.34 20.34 23.68 20 23 C18.236 22.264 16.437 21.609 14.625 21 C11.333 19.888 8.911 18.941 6 17 C4.68 17 3.36 17 2 17 C2 15.68 2 14.36 2 13 C1.505 12.051 1.01 11.102 0.5 10.125 C-1.121 6.749 -1.344 4.693 -1 1 C-0.67 0.67 -0.34 0.34 0 0 Z " fill="#8E592E" transform="translate(30,26)"/>
<path d="M0 0 C0.34 0.072 0.34 0.072 2.062 0.438 C5.363 1.069 8.671 1.543 12 2 C12 2.66 12 3.32 12 4 C12.605 4.076 13.209 4.152 13.832 4.23 C16.763 5.271 17.274 6.589 18.688 9.312 C19.104 10.092 19.52 10.872 19.949 11.676 C20.905 13.791 21.528 15.734 22 18 C22.258 17.402 22.258 17.402 23.562 14.375 C26.561 8.409 31.52 3.84 37.855 1.48 C43.67 0.178 50.058 -0.455 55.512 2.242 C57.505 3.723 59.256 5.235 61 7 C61.53 7.49 62.06 7.98 62.605 8.484 C67.318 13.606 67.463 20.516 67.297 27.09 C66.753 32.422 64.981 36.528 62 41 C61.34 41 60.68 41 60 41 C60 41.99 60 42.98 60 44 C56.323 46.803 52.6 47.79 48.125 48.75 C47.538 48.881 47.538 48.881 44.57 49.547 C40.763 50.03 37.738 49.843 34 49 C33.67 48.34 33.34 47.68 33 47 C32.196 46.856 31.391 46.711 30.562 46.562 C28 46 28 46 26 43 C25.875 40.312 25.875 40.312 26 38 C26.99 38 27.98 38 29 38 C26.69 34.7 24.38 31.4 22 28 C17.785 30.107 16.776 30.794 15 35 C15.113 35.578 15.113 35.578 15.688 38.5 C15.791 39.655 15.894 40.81 16 42 C13.312 44.938 13.312 44.938 10 47 C-3.877 47 -3.877 47 -8.891 43.789 C-10.188 42.438 -10.188 42.438 -12 40 C-12.66 39.67 -13.32 39.34 -14 39 C-15.975 33.208 -17.329 26.778 -14.625 21.125 C-14.089 20.424 -13.553 19.722 -13 19 C-12.34 19 -11.68 19 -11 19 C-11 22.63 -11 26.26 -11 30 C-9.68 30 -8.36 30 -7 30 C-6.134 30.66 -5.267 31.32 -4.375 32 C0.12 34.664 3.882 34.896 9 34 C11.576 32.115 12.597 30.807 14 28 C14.832 21.668 13.47 16.824 10.875 11.066 C10 9 10 9 10 7 C9.732 6.876 9.732 6.876 8.375 6.25 C5.428 4.699 2.721 2.917 0 1 C0 0.67 0 0.34 0 0 Z " fill="#F3D7B2" transform="translate(39,47)"/>
<path d="M0 0 C1.938 0.312 1.938 0.312 4 1 C4.33 1.99 4.66 2.98 5 4 C4.34 4 3.68 4 3 4 C0.88 7.534 0.468 10.944 0 15 C0.99 15 1.98 15 3 15 C3.66 11.7 4.32 8.4 5 5 C9 4 9 4 12 5 C11.67 5.681 11.34 6.361 11 7.062 C9.827 10.508 9.858 13.384 10 17 C10.66 17.33 11.32 17.66 12 18 C12.99 14.37 13.98 10.74 15 7 C15.99 7.33 16.98 7.66 18 8 C18.037 8.675 18.075 9.351 18.113 10.047 C18.146 10.493 18.146 10.493 18.312 12.75 C18.371 13.632 18.429 14.513 18.488 15.422 C19.064 18.323 20.076 19.792 22 22 C24.191 18.666 25.435 15.958 26 12 C25.34 12 24.68 12 24 12 C23.67 12.99 23.34 13.98 23 15 C22.67 15 22.34 15 22 15 C21.835 13.35 21.835 13.35 21 5 C21.33 5.66 21.66 6.32 22 7 C22.99 6.34 23.98 5.68 25 5 C31.453 5.453 31.453 5.453 34 8 C33.977 10.313 33.977 10.313 33.625 13 C33.514 13.887 33.403 14.774 33.289 15.688 C33.241 16.069 33.241 16.069 33 18 C33 18.66 33 19.32 33 20 C36 19 36 19 37.168 16.934 C37.504 16.11 37.841 15.286 38.188 14.438 C38.532 13.611 38.876 12.785 39.23 11.934 C39.357 11.615 39.357 11.615 40 10 C41.206 12.332 42.165 14.496 43 17 C44.875 16.375 44.875 16.375 47 15 C48.25 11.875 48.25 11.875 49 9 C49.66 9 50.32 9 51 9 C51 12.63 51 16.26 51 20 C50.01 20 49.02 20 48 20 C48 22.97 48 25.94 48 29 C50.31 28.34 52.62 27.68 55 27 C55.66 29.31 56.32 31.62 57 34 C55.71 35.376 54.373 36.708 53 38 C52.34 38 51.68 38 51 38 C50.856 37.68 50.856 37.68 50.125 36.062 C49 34 49 34 47 33 C47 33.99 47 34.98 47 36 C46.34 36 45.68 36 45 36 C45.165 36.825 45.165 36.825 46 41 C45.01 41 44.02 41 43 41 C43.041 41.887 43.083 42.774 43.125 43.688 C43.001 46.973 42.386 49.054 41 52 C40.34 52 39.68 52 39 52 C38.67 53.32 38.34 54.64 38 56 C37.34 56 36.68 56 36 56 C36 56.66 36 57.32 36 58 C28.753 58.148 23.186 57.952 17 54 C16.01 54 15.02 54 14 54 C14 54.66 14 55.32 14 56 C11.03 56.66 8.06 57.32 5 58 C7 55 7 55 9.625 54.312 C10.017 54.261 10.017 54.261 12 54 C11.734 53.776 11.734 53.776 10.391 52.645 C0.416 44.108 0.416 44.108 -0.469 39.625 C-1.004 36.979 -1.881 35.039 -3.062 32.625 C-6.747 23.522 -6.223 14.047 -2.5 5.062 C-1.693 3.362 -0.87 1.669 0 0 Z " fill="#E9BA86" transform="translate(30,100)"/>
<path d="M0 0 C0.33 0 0.66 0 1 0 C1 3.667 1 7.333 1 11 C2.426 13.629 2.426 13.629 4.312 16.562 C10.738 27.207 13.666 40.346 11.527 52.738 C10.333 59.995 10.333 59.995 12.527 63.301 C14.5 65.375 14.5 65.375 16.531 67.148 C18 69 18 69 17.781 71.664 C17 74 17 74 16 75 C11.681 75.514 7.341 75.744 3 76 C2.175 76.055 1.35 76.111 0.5 76.168 C-2.748 76.297 -4.679 76.193 -7.5 74.5 C-7.995 74.005 -8.49 73.51 -9 73 C-7.02 71.35 -5.04 69.7 -3 68 C-5.663 65.902 -8.276 64.306 -11.312 62.812 C-19.347 58.354 -23.837 51.863 -27.125 43.371 C-28.777 37.006 -29.577 28.742 -26.973 22.562 C-26.652 22.047 -26.331 21.531 -26 21 C-28.31 20.67 -30.62 20.34 -33 20 C-32.34 19.67 -31.68 19.34 -31 19 C-30.67 18.34 -30.34 17.68 -30 17 C-28.845 17.041 -27.69 17.082 -26.5 17.125 C-22.012 17.117 -18.264 16.421 -14 15 C-13.67 14.01 -13.34 13.02 -13 12 C-12.34 12 -11.68 12 -11 12 C-10.34 10.68 -9.68 9.36 -9 8 C-7.68 8 -6.36 8 -5 8 C-4.34 6.02 -3.68 4.04 -3 2 C-2.34 3.32 -1.68 4.64 -1 6 C-0.67 4.02 -0.34 2.04 0 0 Z " fill="#874E21" transform="translate(113,80)"/>
<path d="M0 0 C1.136 -0.026 2.271 -0.052 3.441 -0.078 C6.438 0.25 6.438 0.25 8.316 1.301 C10.035 4.288 9.795 7.334 9.812 10.688 C10.179 20.88 13.066 29.856 20.191 37.426 C24.788 41.159 30.125 43.693 35.438 46.25 C32.908 49.502 30.37 52.317 27.438 55.25 C32.718 55.91 37.998 56.57 43.438 57.25 C43.438 58.24 43.438 59.23 43.438 60.25 C37.384 62.126 31.375 63.129 25.109 64.018 C20.094 64.789 16.042 66.123 11.438 68.25 C7.648 69.142 5.14 69.361 1.438 68.25 C0.118 68.25 -1.203 68.25 -2.562 68.25 C-2.562 67.59 -2.562 66.93 -2.562 66.25 C-3.222 66.415 -3.222 66.415 -6.562 67.25 C-7.362 63.963 -7.659 62.54 -6.562 59.25 C-11.355 59.605 -15.187 60.374 -19.625 62.25 C-25.832 64.864 -30.91 65.71 -37.562 64.25 C-37.562 63.26 -37.562 62.27 -37.562 61.25 C-38.222 61.415 -38.222 61.415 -41.562 62.25 C-41.25 59.875 -41.25 59.875 -40.562 57.25 C-37.127 54.96 -35.577 55.072 -31.562 55.25 C-31.562 54.59 -31.562 53.93 -31.562 53.25 C-29.812 52.562 -29.812 52.562 -27.562 52.25 C-26.964 52.704 -26.366 53.157 -25.75 53.625 C-22.76 55.846 -20.241 55.876 -16.562 56.25 C-14.229 56.583 -11.896 56.917 -9.562 57.25 C-9.562 56.59 -9.562 55.93 -9.562 55.25 C-8.903 55.25 -8.243 55.25 -7.562 55.25 C-7.233 53.93 -6.903 52.61 -6.562 51.25 C-5.903 51.25 -5.243 51.25 -4.562 51.25 C-4.418 50.012 -4.274 48.775 -4.125 47.5 C-3.776 44.685 -3.359 41.98 -2.562 39.25 C-2.233 39.415 -2.233 39.415 -0.562 40.25 C-0.562 38.6 -0.562 36.95 -0.562 35.25 C0.097 35.25 0.757 35.25 1.438 35.25 C1.438 34.26 1.438 33.27 1.438 32.25 C4.431 33.248 5.385 34.002 7.438 36.25 C9 35.188 9 35.188 10.438 33.25 C10.125 29.562 10.125 29.562 9.438 26.25 C7.127 26.91 4.817 27.57 2.438 28.25 C2.438 25.28 2.438 22.31 2.438 19.25 C3.428 19.25 4.417 19.25 5.438 19.25 C5.438 15.62 5.438 11.99 5.438 8.25 C4.778 8.58 4.118 8.91 3.438 9.25 C3.149 10.24 2.86 11.23 2.562 12.25 C2.191 13.24 1.82 14.23 1.438 15.25 C-0.688 16.125 -0.688 16.125 -2.562 16.25 C-3.553 14.93 -4.542 13.61 -5.562 12.25 C-6.882 14.56 -8.203 16.87 -9.562 19.25 C-10.552 19.25 -11.543 19.25 -12.562 19.25 C-13.874 16.627 -13.459 15.02 -13.125 12.125 C-13.023 11.215 -12.921 10.305 -12.816 9.367 C-12.733 8.669 -12.649 7.97 -12.562 7.25 C-14.543 6.26 -16.523 5.27 -18.562 4.25 C-15.912 2.83 -13.496 1.892 -10.562 1.25 C-9.997 1.081 -9.431 0.912 -8.848 0.738 C-5.874 0.103 -3.04 0.041 0 0 Z " fill="#D19A63" transform="translate(75.5625,100.75)"/>
<path d="M0 0 C0.33 0 0.66 0 1 0 C1 3.667 1 7.333 1 11 C1.994 12.67 2.994 14.337 4 16 C3.67 16.66 3.34 17.32 3 18 C2.34 17.01 1.68 16.02 1 15 C0.34 15.99 -0.32 16.98 -1 18 C-3.723 18.188 -3.723 18.188 -7.062 18 C-12.842 17.885 -17.914 18.019 -23 21 C-26.42 25.145 -26.57 29.721 -26.414 34.926 C-25.265 43.458 -21.76 52.381 -15 58 C-13.68 58.66 -12.36 59.32 -11 60 C-11.495 58.35 -11.495 58.35 -14 50 C-15.65 49.67 -17.3 49.34 -19 49 C-18.34 48.835 -18.34 48.835 -15 48 C-14.67 46.68 -14.34 45.36 -14 44 C-13.588 44.66 -13.175 45.32 -12.75 46 C-12.172 46.66 -11.595 47.32 -11 48 C-9.68 48 -8.36 48 -7 48 C-7 47.01 -7 46.02 -7 45 C-5.02 45.33 -3.04 45.66 -1 46 C-0.979 44.701 -0.959 43.401 -0.938 42.062 C-0.926 41.332 -0.914 40.601 -0.902 39.848 C-1 38 -1 38 -2 37 C-2.495 36.835 -2.495 36.835 -5 36 C-4.67 35.34 -4.34 34.68 -4 34 C-3.68 33.938 -3.68 33.938 -2.062 33.625 C0 33 0 33 1.25 30.938 C1.498 30.298 1.745 29.659 2 29 C2.99 29.33 3.98 29.66 5 30 C5.33 29.34 5.66 28.68 6 28 C7 29 7 29 7.098 31.723 C7.086 32.825 7.074 33.927 7.062 35.062 C7.053 36.167 7.044 37.272 7.035 38.41 C7.024 39.265 7.012 40.119 7 41 C6.34 41.165 6.34 41.165 3 42 C3.33 42.99 3.66 43.98 4 45 C7 44 7 44 9 41 C10.431 43.862 9.6 45.934 9 49 C8.34 49 7.68 49 7 49 C7.33 49.99 7.66 50.98 8 52 C8.99 52 9.98 52 11 52 C10.919 52.557 10.838 53.114 10.754 53.688 C10.438 57.505 10.286 60.013 12.594 63.203 C13.876 64.536 15.2 65.831 16.566 67.078 C18 69 18 69 17.777 71.672 C17 74 17 74 16 75 C11.681 75.514 7.341 75.744 3 76 C2.175 76.055 1.35 76.111 0.5 76.168 C-2.748 76.297 -4.679 76.193 -7.5 74.5 C-7.995 74.005 -8.49 73.51 -9 73 C-7.02 71.35 -5.04 69.7 -3 68 C-5.663 65.902 -8.276 64.306 -11.312 62.812 C-19.347 58.354 -23.837 51.863 -27.125 43.371 C-28.777 37.006 -29.577 28.742 -26.973 22.562 C-26.652 22.047 -26.331 21.531 -26 21 C-28.31 20.67 -30.62 20.34 -33 20 C-32.34 19.67 -31.68 19.34 -31 19 C-30.67 18.34 -30.34 17.68 -30 17 C-28.845 17.041 -27.69 17.082 -26.5 17.125 C-22.012 17.117 -18.264 16.421 -14 15 C-13.67 14.01 -13.34 13.02 -13 12 C-12.34 12 -11.68 12 -11 12 C-10.34 10.68 -9.68 9.36 -9 8 C-7.68 8 -6.36 8 -5 8 C-4.34 6.02 -3.68 4.04 -3 2 C-2.34 3.32 -1.68 4.64 -1 6 C-0.67 4.02 -0.34 2.04 0 0 Z " fill="#894F1E" transform="translate(113,80)"/>
<path d="M0 0 C1.136 -0.026 2.271 -0.052 3.441 -0.078 C6.438 0.25 6.438 0.25 8.316 1.301 C10.035 4.288 9.795 7.334 9.812 10.688 C10.179 20.88 13.066 29.856 20.191 37.426 C24.788 41.159 30.125 43.693 35.438 46.25 C30.263 52.742 30.263 52.742 28.438 54.25 C27.447 54.25 26.458 54.25 25.438 54.25 C25.108 55.24 24.778 56.23 24.438 57.25 C23.633 57.559 22.829 57.869 22 58.188 C19.438 59.25 19.438 59.25 18.438 61.25 C17.438 63.25 17.438 63.25 14.938 64.438 C14.112 64.706 13.287 64.974 12.438 65.25 C12.108 65.415 12.108 65.415 10.438 66.25 C11.097 63.94 11.757 61.63 12.438 59.25 C11.612 59.415 11.612 59.415 7.438 60.25 C7.438 59.59 7.438 58.93 7.438 58.25 C6.448 58.25 5.457 58.25 4.438 58.25 C4.438 57.59 4.438 56.93 4.438 56.25 C6.088 56.58 7.737 56.91 9.438 57.25 C9.582 56.507 9.726 55.765 9.875 55 C10.438 52.25 10.438 52.25 11.125 50.25 C11.438 48.25 11.438 48.25 10.375 45.812 C9.438 43.25 9.438 43.25 10.312 40.438 C10.684 39.716 11.055 38.994 11.438 38.25 C12.097 38.25 12.757 38.25 13.438 38.25 C12.448 34.29 11.457 30.33 10.438 26.25 C7.797 26.91 5.157 27.57 2.438 28.25 C2.438 25.28 2.438 22.31 2.438 19.25 C3.427 19.25 4.418 19.25 5.438 19.25 C5.438 15.62 5.438 11.99 5.438 8.25 C5.108 8.415 5.108 8.415 3.438 9.25 C3.149 10.24 2.86 11.23 2.562 12.25 C2.191 13.24 1.82 14.23 1.438 15.25 C-0.688 16.125 -0.688 16.125 -2.562 16.25 C-3.552 14.93 -4.543 13.61 -5.562 12.25 C-6.882 14.56 -8.203 16.87 -9.562 19.25 C-10.552 19.25 -11.543 19.25 -12.562 19.25 C-13.874 16.627 -13.459 15.02 -13.125 12.125 C-13.023 11.215 -12.921 10.305 -12.816 9.367 C-12.733 8.669 -12.649 7.97 -12.562 7.25 C-14.543 6.26 -16.523 5.27 -18.562 4.25 C-15.912 2.83 -13.496 1.892 -10.562 1.25 C-9.997 1.081 -9.431 0.912 -8.848 0.738 C-5.874 0.103 -3.04 0.041 0 0 Z " fill="#C1864D" transform="translate(75.5625,100.75)"/>
<path d="M0 0 C0.413 0.165 0.413 0.165 2.5 1 C2.5 1.33 2.5 1.66 2.5 2 C0.167 2 -2.167 2 -4.5 2 C-3.593 2.66 -2.685 3.32 -1.75 4 C3.436 8.303 6.004 14.532 6.738 21.148 C6.921 26.626 6.183 29.667 2.5 34 C-1.191 35.846 -5.471 35.489 -9.5 35 C-12.438 33 -12.438 33 -14.5 31 C-15.49 31 -16.48 31 -17.5 31 C-18.16 30.67 -18.82 30.34 -19.5 30 C-19.5 26.37 -19.5 22.74 -19.5 19 C-20.49 19.99 -21.48 20.98 -22.5 22 C-23.16 22.66 -23.82 23.32 -24.5 24 C-25.963 19.612 -24.987 16.311 -23.5 12 C-18.165 1.644 -11.529 -3.294 0 0 Z " fill="#F0CDA2" transform="translate(47.5,47)"/>
<path d="M0 0 C0.34 0.072 0.34 0.072 2.062 0.438 C5.363 1.069 8.671 1.543 12 2 C12 2.66 12 3.32 12 4 C12.605 4.076 13.209 4.152 13.832 4.23 C16.763 5.271 17.274 6.589 18.688 9.312 C19.104 10.092 19.52 10.872 19.949 11.676 C20.905 13.791 21.528 15.734 22 18 C22.258 17.402 22.258 17.402 23.562 14.375 C25.846 9.849 28.621 6.608 33 4 C35.445 3.282 37.428 3.105 40 3 C38.617 7.278 36.656 9.536 33.438 12.625 C29.137 17.214 28.016 20.319 28.098 26.555 C27.991 29.22 27.348 30.727 26 33 C24.68 31.35 23.36 29.7 22 28 C19.336 29.011 18.023 29.972 16.188 32.188 C15 35 15 35 15.688 38.5 C15.791 39.655 15.894 40.81 16 42 C13.312 44.938 13.312 44.938 10 47 C-3.877 47 -3.877 47 -8.891 43.789 C-10.188 42.438 -10.188 42.438 -12 40 C-12.66 39.67 -13.32 39.34 -14 39 C-15.975 33.208 -17.329 26.778 -14.625 21.125 C-14.089 20.424 -13.553 19.722 -13 19 C-12.34 19 -11.68 19 -11 19 C-11 22.63 -11 26.26 -11 30 C-9.68 30 -8.36 30 -7 30 C-6.134 30.66 -5.267 31.32 -4.375 32 C0.12 34.664 3.882 34.896 9 34 C11.576 32.115 12.597 30.807 14 28 C14.832 21.668 13.47 16.824 10.875 11.066 C10 9 10 9 10 7 C9.732 6.876 9.732 6.876 8.375 6.25 C5.428 4.699 2.721 2.917 0 1 C0 0.67 0 0.34 0 0 Z " fill="#F5DAB5" transform="translate(39,47)"/>
<path d="M0 0 C1.938 0.312 1.938 0.312 4 1 C4.33 1.99 4.66 2.98 5 4 C4.34 4 3.68 4 3 4 C0.88 7.534 0.468 10.944 0 15 C0.99 15 1.98 15 3 15 C3.66 11.7 4.32 8.4 5 5 C9 4 9 4 12 5 C11.67 5.639 11.34 6.279 11 6.938 C9.669 11.012 9.833 14.752 10 19 C10.66 19 11.32 19 12 19 C12 23.667 12 28.333 12 33 C11.154 33.825 10.309 34.65 9.438 35.5 C8.633 36.325 7.829 37.15 7 38 C7.188 40.312 7.188 40.312 8 42 C9.32 42 10.64 42 12 42 C12 40.35 12 38.7 12 37 C15.483 40.019 16.792 42.569 18 47 C17.505 47.165 17.505 47.165 15 48 C15.495 48.825 15.495 48.825 18 53 C17.34 53.165 17.34 53.165 14 54 C14 54.66 14 55.32 14 56 C11.03 56.66 8.06 57.32 5 58 C7 55 7 55 9.625 54.312 C10.017 54.261 10.017 54.261 12 54 C11.734 53.776 11.734 53.776 10.391 52.645 C0.416 44.108 0.416 44.108 -0.469 39.625 C-1.004 36.979 -1.881 35.039 -3.062 32.625 C-6.747 23.522 -6.223 14.047 -2.5 5.062 C-1.693 3.362 -0.87 1.669 0 0 Z " fill="#EBBA86" transform="translate(30,100)"/>
<path d="M0 0 C2.812 1.375 2.812 1.375 5 3 C6.326 3.681 7.657 4.353 9 5 C8.67 5.99 8.34 6.98 8 8 C8.03 9.605 8.096 11.21 8.188 12.812 C8.23 17.691 7.35 20.288 4 24 C1.073 26.373 -0.683 26.96 -4.438 27.438 C-9.375 26.831 -12.323 24.854 -15.637 21.191 C-18.179 17.105 -17.828 12.623 -17 8 C-12.843 0.716 -8.049 -0.81 0 0 Z " fill="#704A1C" transform="translate(87,58)"/>
<path d="M0 0 C0.33 0 0.66 0 1 0 C1 3.667 1 7.333 1 11 C1.994 12.67 2.994 14.337 4 16 C3.67 16.66 3.34 17.32 3 18 C2.34 17.01 1.68 16.02 1 15 C0.34 15.99 -0.32 16.98 -1 18 C-3.723 18.188 -3.723 18.188 -7.062 18 C-12.842 17.885 -17.914 18.019 -23 21 C-26.42 25.145 -26.57 29.721 -26.414 34.926 C-25.265 43.458 -21.76 52.381 -15 58 C-13.68 58.66 -12.36 59.32 -11 60 C-11.495 58.35 -11.495 58.35 -14 50 C-15.65 49.67 -17.3 49.34 -19 49 C-18.34 48.835 -18.34 48.835 -15 48 C-14.67 46.68 -14.34 45.36 -14 44 C-13.588 44.66 -13.175 45.32 -12.75 46 C-12.172 46.66 -11.595 47.32 -11 48 C-9.68 48 -8.36 48 -7 48 C-7 47.01 -7 46.02 -7 45 C-4.36 45.33 -1.72 45.66 1 46 C0 49 0 49 -3 51 C-2.825 51.382 -2.825 51.382 -1.938 53.312 C-1 56 -1 56 -2 59 C-5 54.25 -5 54.25 -5 52 C-5.495 52.165 -5.495 52.165 -8 53 C-8.99 52.34 -9.98 51.68 -11 51 C-9.681 55.617 -7.999 59.23 -5 63 C-2.25 64.375 -2.25 64.375 0 65 C-0.165 64.34 -0.165 64.34 -1 61 C0.707 62.281 2.374 63.618 4 65 C4 65.66 4 66.32 4 67 C4.66 66.835 4.66 66.835 8 66 C9.32 67.65 10.64 69.3 12 71 C10.02 71 8.04 71 6 71 C6.33 71.66 6.66 72.32 7 73 C6.216 72.979 5.433 72.959 4.625 72.938 C2 73 2 73 0 74 C0 74.66 0 75.32 0 76 C-3.146 76.262 -4.618 76.248 -7.312 74.5 C-7.869 74.005 -8.426 73.51 -9 73 C-7.02 71.35 -5.04 69.7 -3 68 C-5.663 65.902 -8.276 64.306 -11.312 62.812 C-19.347 58.354 -23.837 51.863 -27.125 43.371 C-28.777 37.006 -29.577 28.742 -26.973 22.562 C-26.652 22.047 -26.331 21.531 -26 21 C-28.31 20.67 -30.62 20.34 -33 20 C-32.34 19.67 -31.68 19.34 -31 19 C-30.67 18.34 -30.34 17.68 -30 17 C-28.845 17.041 -27.69 17.082 -26.5 17.125 C-22.012 17.117 -18.264 16.421 -14 15 C-13.67 14.01 -13.34 13.02 -13 12 C-12.34 12 -11.68 12 -11 12 C-10.34 10.68 -9.68 9.36 -9 8 C-7.68 8 -6.36 8 -5 8 C-4.34 6.02 -3.68 4.04 -3 2 C-2.34 3.32 -1.68 4.64 -1 6 C-0.67 4.02 -0.34 2.04 0 0 Z " fill="#5C2F0D" transform="translate(113,80)"/>
<path d="M0 0 C6.709 0.082 10.229 1.797 14.875 6.5 C15.405 6.99 15.935 7.48 16.48 7.984 C21.426 13.359 21.158 20.318 20.98 27.156 C20.946 27.93 20.911 28.703 20.875 29.5 C20.215 29.5 19.555 29.5 18.875 29.5 C18.71 28.84 18.71 28.84 17.875 25.5 C17.071 25.521 16.266 25.541 15.438 25.562 C12.875 25.5 12.875 25.5 11.875 24.5 C11.215 25.49 10.555 26.48 9.875 27.5 C9.681 25.688 9.495 23.876 9.312 22.062 C9.208 21.053 9.104 20.044 8.996 19.004 C8.956 18.178 8.916 17.351 8.875 16.5 C9.205 16.17 9.535 15.84 9.875 15.5 C4.181 12.187 -0.477 10.219 -7.125 11.5 C-10.461 13.558 -11.951 15.239 -14.125 18.5 C-14.539 20.543 -14.539 20.543 -14.75 22.688 C-14.874 23.946 -14.998 25.204 -15.125 26.5 C-15.455 26.5 -15.785 26.5 -16.125 26.5 C-17.291 20.963 -17.497 17.885 -14.383 13.094 C-13.125 11.5 -13.125 11.5 -10.375 8.812 C-8.125 6.5 -8.125 6.5 -8.125 2.5 C-5.412 -0.213 -3.791 0.106 0 0 Z " fill="#E9BF92" transform="translate(85.125,47.5)"/>
<path d="M0 0 C0.99 0.33 1.98 0.66 3 1 C3.037 1.664 3.075 2.328 3.113 3.012 C3.505 8.275 4.164 11.488 7 16 C6.723 18.906 5.924 21.228 5 24 C5.716 25.568 6.433 27.135 7.156 28.699 C9.059 33.887 11.069 41.004 9.168 46.332 C8 48 8 48 6 49 C3.352 46.422 1.056 44.084 -1 41 C-0.34 40.34 0.32 39.68 1 39 C1 36.391 -0.97 33.36 -2 31 C-2.33 32.32 -2.66 33.64 -3 35 C-4.32 35 -5.64 35 -7 35 C-7.66 33.35 -8.32 31.7 -9 30 C-8.34 30 -7.68 30 -7 30 C-5.246 26.087 -4.474 22.426 -3.875 18.188 C-3.707 17.026 -3.54 15.865 -3.367 14.668 C-3.246 13.788 -3.125 12.907 -3 12 C-3.66 11.67 -4.32 11.34 -5 11 C-4.34 11 -3.68 11 -3 11 C-2.01 7.37 -1.02 3.74 0 0 Z " fill="#EABC8B" transform="translate(45,107)"/>
<path d="M0 0 C0.66 0 1.32 0 2 0 C2.268 0.969 2.536 1.939 2.812 2.938 C3.008 3.443 3.008 3.443 4 6 C4.99 6.33 5.98 6.66 7 7 C7 7.66 7 8.32 7 9 C4.69 9.33 2.38 9.66 0 10 C0 10.66 0 11.32 0 12 C0.66 12 1.32 12 2 12 C2 12.66 2 13.32 2 14 C2.626 14.026 3.253 14.052 3.898 14.078 C4.307 14.106 4.307 14.106 6.375 14.25 C6.781 14.273 6.781 14.273 8.836 14.391 C11 15 11 15 12.289 17.047 C12.524 17.691 12.758 18.336 13 19 C11.68 19 10.36 19 9 19 C6.996 19.308 4.995 19.637 3 20 C2.835 19.505 2.835 19.505 2 17 C0.68 17.33 -0.64 17.66 -2 18 C-2.8 14.713 -3.097 13.29 -2 10 C-6.793 10.355 -10.625 11.124 -15.062 13 C-21.27 15.614 -26.347 16.46 -33 15 C-33 14.01 -33 13.02 -33 12 C-34.32 12.33 -35.64 12.66 -37 13 C-36.688 10.625 -36.688 10.625 -36 8 C-32.565 5.71 -31.015 5.822 -27 6 C-27 5.34 -27 4.68 -27 4 C-25.25 3.312 -25.25 3.312 -23 3 C-22.402 3.454 -21.804 3.907 -21.188 4.375 C-18.197 6.596 -15.678 6.626 -12 7 C-9.667 7.333 -7.333 7.667 -5 8 C-5 7.34 -5 6.68 -5 6 C-4.34 6 -3.68 6 -3 6 C-2.67 4.68 -2.34 3.36 -2 2 C-1.34 2 -0.68 2 0 2 C0 1.34 0 0.68 0 0 Z " fill="#BA6F10" transform="translate(71,150)"/>
<path d="M0 0 C0.66 0 1.32 0 2 0 C2 0.99 2 1.98 2 3 C1.34 3.33 1.34 3.33 -2 5 C-1.34 5.66 -0.68 6.32 0 7 C-1.875 9.165 -3.766 11.202 -6 13 C-8.438 13.125 -8.438 13.125 -11 13 C-13.48 14.152 -15.676 15.542 -18 17 C-18 17.66 -18 18.32 -18 19 C-18.701 19.227 -19.403 19.454 -20.125 19.688 C-27.11 22.876 -30.101 27.128 -33 34 C-33.33 34 -33.66 34 -34 34 C-34.182 33.408 -34.364 32.817 -34.551 32.207 C-38.012 21.325 -38.012 21.325 -43 18 C-42.34 15.69 -41.68 13.38 -41 11 C-37.206 12.49 -35.317 14.691 -33 18 C-33 18.66 -33 19.32 -33 20 C-32.01 19.67 -31.02 19.34 -30 19 C-29.67 19.33 -29.34 19.66 -29 20 C-28.466 19.281 -27.933 18.561 -27.383 17.82 C-24.809 14.774 -22.016 12.302 -18.875 9.875 C-18.307 9.436 -17.739 8.996 -17.153 8.543 C-12.027 4.739 -6.525 2 0 2 C0 1.34 0 0.68 0 0 Z " fill="#A06534" transform="translate(94,32)"/>
<path d="M0 0 C0.99 0.309 1.98 0.619 3 0.938 C6.977 2.084 10.888 2.567 15 3 C15 4.32 15 5.64 15 7 C15.299 6.887 15.299 6.887 16.812 6.312 C19 6 19 6 20.562 7.156 C22.369 9.474 22.701 11.304 23.188 14.188 C23.346 15.089 23.505 15.99 23.668 16.918 C23.778 17.605 23.887 18.292 24 19 C24.33 18.34 24.66 17.68 25 17 C25.66 17 26.32 17 27 17 C26.508 23.4 26.508 23.4 23.938 26.438 C23.298 26.953 22.659 27.469 22 28 C18.808 23.836 18.556 20.176 18.309 15.109 C18.207 14.413 18.105 13.717 18 13 C17.34 12.67 16.68 12.34 16 12 C15.876 13.258 15.752 14.516 15.625 15.812 C15.301 19.103 14.934 20.099 13 23 C12.01 22.67 11.02 22.34 10 22 C9.822 17.452 10.002 14.121 12 10 C11.361 10.186 10.721 10.371 10.062 10.562 C9.382 10.707 8.701 10.851 8 11 C7.67 10.67 7.34 10.34 7 10 C6.876 11.093 6.752 12.186 6.625 13.312 C6 17 6 17 4 20 C3.01 20 2.02 20 1 20 C0.634 13.649 0.634 13.649 2.375 10.562 C4 9 4 9 6 9 C5.34 8.01 4.68 7.02 4 6 C3.01 6 2.02 6 1 6 C0.01 8.97 -0.98 11.94 -2 15 C-2.33 15 -2.66 15 -3 15 C-3.179 9.802 -3.026 5.887 -1 1 C-0.67 0.67 -0.34 0.34 0 0 Z " fill="#E1AA73" transform="translate(29,95)"/>
<path d="M0 0 C3.095 1.472 5.123 3.122 7 6 C8.054 10.532 7.957 14.724 6.141 19.043 C4.518 21.382 2.805 22.798 0.027 23.496 C-3.532 23.716 -5.612 23.298 -8.438 21.125 C-10.873 17.813 -11.08 16.398 -10.562 12.375 C-10.461 11.558 -10.359 10.74 -10.254 9.898 C-10.17 9.272 -10.086 8.645 -10 8 C-9.34 8 -8.68 8 -8 8 C-8 9.32 -8 10.64 -8 12 C-6.68 11.34 -5.36 10.68 -4 10 C-4.33 8.02 -4.66 6.04 -5 4 C-8.908 4 -10.116 5.506 -13 8 C-13.66 6.68 -14.32 5.36 -15 4 C-14.237 3.711 -13.474 3.422 -12.688 3.125 C-3.961 -0.528 -3.961 -0.528 0 0 Z " fill="#0E0803" transform="translate(46,56)"/>
<path d="M0 0 C0.578 0.248 0.578 0.248 3.5 1.5 C7.855 3.161 11.376 3.162 16 3 C16.33 3.33 16.66 3.66 17 4 C19 4.041 21 4.043 23 4 C22.67 4.66 22.34 5.32 22 6 C19.938 6.027 17.875 6.046 15.812 6.062 C14.664 6.074 13.515 6.086 12.332 6.098 C9.407 6.012 6.837 5.678 4 5 C1.899 10.322 1.328 15.342 1 21 C0.923 22.174 0.845 23.349 0.766 24.559 C0.471 32.566 1.359 38.396 4.906 45.609 C6 48 6 48 6 51 C0.432 48.812 -1.929 44.513 -4.25 39.25 C-6.081 34.453 -6.67 30.1 -6 25 C-5.67 24.34 -5.34 23.68 -5 23 C-4.514 19.76 -4.103 16.513 -3.695 13.262 C-2.982 9.916 -1.822 7.855 0 5 C0.188 2.188 0.188 2.188 0 0 Z " fill="#714018" transform="translate(25,91)"/>
<path d="M0 0 C3.674 0.163 5.538 0.611 8.375 3 C10.594 7.096 10.924 10.44 10 15 C8.062 18.062 8.062 18.062 5 20 C1.843 20.68 -0.848 20.717 -4 20 C-6.734 17.866 -7.761 16.426 -8.336 12.992 C-8.489 9.801 -8.448 7.598 -6.5 5 C-6.005 4.67 -5.51 4.34 -5 4 C-4.67 4.66 -4.34 5.32 -4 6 C-2.68 6 -1.36 6 0 6 C-0.093 5.598 -0.093 5.598 -0.562 3.562 C-0.707 2.717 -0.851 1.871 -1 1 C-0.67 0.67 -0.34 0.34 0 0 Z " fill="#0E0904" transform="translate(81,61)"/>
<path d="M0 0 C3.154 1.348 4.812 2.677 6.75 5.5 C7.178 6.108 7.606 6.717 8.047 7.344 C9 9 9 9 9 11 C8.01 11 7.02 11 6 11 C6.66 13.64 7.32 16.28 8 19 C9.65 19 11.3 19 13 19 C13.33 19.66 13.66 20.32 14 21 C13.01 21.33 12.02 21.66 11 22 C11 22.66 11 23.32 11 24 C10.402 23.691 9.804 23.381 9.188 23.062 C7 22 7 22 4 21 C4 21.66 4 22.32 4 23 C2.68 23 1.36 23 0 23 C0 23.66 0 24.32 0 25 C-0.66 25 -1.32 25 -2 25 C-2 24.01 -2 23.02 -2 22 C-3.32 22.33 -4.64 22.66 -6 23 C-6.625 20.125 -6.625 20.125 -7 17 C-6.34 16.34 -5.68 15.68 -5 15 C-5.248 13.969 -5.495 12.938 -5.75 11.875 C-6.074 6.86 -4.456 5.235 -1.348 1.504 C-0.903 1.008 -0.458 0.511 0 0 Z " fill="#EB930C" transform="translate(59,74)"/>
<path d="M0 0 C0.66 0.722 1.32 1.444 2 2.188 C5.268 5.455 9.024 7.689 13 10 C13.683 10.397 14.366 10.794 15.07 11.203 C16.708 12.145 18.353 13.074 20 14 C15.07 20.29 15.07 20.29 13 22 C12.01 22 11.02 22 10 22 C9.67 22.99 9.34 23.98 9 25 C8.598 25.155 8.598 25.155 6.562 25.938 C4 27 4 27 3 29 C2 31 2 31 -0.5 32.188 C-1.325 32.456 -2.15 32.724 -3 33 C-3.33 33.165 -3.33 33.165 -5 34 C-4.67 32.845 -4.67 32.845 -3 27 C-4.65 27.33 -6.3 27.66 -8 28 C-8 27.34 -8 26.68 -8 26 C-8.99 26 -9.98 26 -11 26 C-11 25.34 -11 24.68 -11 24 C-7.625 23.875 -7.625 23.875 -4 24 C-3.34 24.66 -2.68 25.32 -2 26 C-1.01 25.01 -0.02 24.02 1 23 C1.66 23.33 2.32 23.66 3 24 C4 22 4 22 4 19 C4 18.01 4 17.02 4 16 C4.66 16 5.32 16 6 16 C6 16.66 6 17.32 6 18 C6.66 17.67 7.32 17.34 8 17 C8.33 16.01 8.66 15.02 9 14 C8.422 13.773 7.845 13.546 7.25 13.312 C4.297 11.59 2.854 9.877 1 7 C0.25 3.188 0.25 3.188 0 0 Z " fill="#A56C38" transform="translate(91,133)"/>
<path d="M0 0 C2.312 -0.312 2.312 -0.312 5 0 C8.145 3.952 8.308 6.991 8.125 11.938 C7.977 16.468 8.116 20.547 9 25 C6.69 25.66 4.38 26.32 2 27 C2 24.03 2 21.06 2 18 C2.99 18 3.98 18 5 18 C5 14.37 5 10.74 5 7 C4.67 7.165 4.67 7.165 3 8 C2.711 8.99 2.422 9.98 2.125 11 C1.754 11.99 1.382 12.98 1 14 C-1.125 14.875 -1.125 14.875 -3 15 C-3.99 13.68 -4.98 12.36 -6 11 C-6.33 11.495 -6.33 11.495 -8 14 C-8.99 11.03 -9.98 8.06 -11 5 C-8.213 2.213 -5.846 2.343 -2 2 C-1.34 2.33 -0.68 2.66 0 3 C0 2.01 0 1.02 0 0 Z " fill="#DBA36B" transform="translate(76,102)"/>
<path d="M0 0 C0.33 0 0.66 0 1 0 C1 3.667 1 7.333 1 11 C1.994 12.67 2.994 14.337 4 16 C3.67 16.66 3.34 17.32 3 18 C2.34 17.01 1.68 16.02 1 15 C0.34 15.99 -0.32 16.98 -1 18 C-3.723 18.188 -3.723 18.188 -7.062 18 C-12.842 17.885 -17.914 18.019 -23 21 C-26.42 25.145 -26.555 29.711 -26.434 34.914 C-25.77 39.635 -24.054 43.786 -22.191 48.152 C-21.227 50.457 -20.51 52.565 -20 55 C-27.336 47.14 -28.442 38.653 -28.336 28.32 C-28.03 25.292 -27.597 23.543 -26 21 C-28.31 20.67 -30.62 20.34 -33 20 C-32.34 19.67 -31.68 19.34 -31 19 C-30.67 18.34 -30.34 17.68 -30 17 C-28.845 17.041 -27.69 17.082 -26.5 17.125 C-22.012 17.117 -18.264 16.421 -14 15 C-13.67 14.01 -13.34 13.02 -13 12 C-12.34 12 -11.68 12 -11 12 C-10.34 10.68 -9.68 9.36 -9 8 C-7.68 8 -6.36 8 -5 8 C-4.34 6.02 -3.68 4.04 -3 2 C-2.34 3.32 -1.68 4.64 -1 6 C-0.67 4.02 -0.34 2.04 0 0 Z " fill="#683915" transform="translate(113,80)"/>
<path d="M0 0 C0.25 7.625 0.25 7.625 -2 11 C-2.125 13.688 -2.125 13.688 -2 16 C-2.804 16.289 -3.609 16.578 -4.438 16.875 C-7 18 -7 18 -8 20 C-8.66 20 -9.32 20 -10 20 C-10.33 21.32 -10.66 22.64 -11 24 C-16.592 25.598 -21.2 26.102 -27 26 C-27.33 26.33 -27.66 26.66 -28 27 C-26.02 27.33 -24.04 27.66 -22 28 C-22.33 28.825 -22.33 28.825 -24 33 C-24.66 32.67 -25.32 32.34 -26 32 C-26 31.34 -26 30.68 -26 30 C-31.94 29.67 -37.88 29.34 -44 29 C-43.34 28.67 -42.68 28.34 -42 28 C-42 27.34 -42 26.68 -42 26 C-41.34 26 -40.68 26 -40 26 C-40.33 25.01 -40.66 24.02 -41 23 C-40.368 23.107 -39.737 23.214 -39.086 23.324 C-31.02 24.405 -23.774 23.401 -16 21 C-15.34 20.34 -14.68 19.68 -14 19 C-13.01 19 -12.02 19 -11 19 C-11 18.01 -11 17.02 -11 16 C-10.34 16 -9.68 16 -9 16 C-8.732 15.154 -8.464 14.309 -8.188 13.438 C-3.545 0 -3.545 0 0 0 Z " fill="#9B6230" transform="translate(110,72)"/>
<path d="M0 0 C0.33 0 0.66 0 1 0 C1.33 1.65 1.66 3.3 2 5 C2.784 5.082 3.567 5.165 4.375 5.25 C7 6 7 6 8.375 7.75 C9.763 12.747 7.335 16.635 5 21 C4.34 21 3.68 21 3 21 C3 21.99 3 22.98 3 24 C1.35 24.66 -0.3 25.32 -2 26 C-2.66 25.34 -3.32 24.68 -4 24 C-2.35 23.34 -0.7 22.68 1 22 C0.01 21.34 -0.98 20.68 -2 20 C-2.66 20.66 -3.32 21.32 -4 22 C-6.383 22.195 -6.383 22.195 -9.125 22.125 C-9.58 22.116 -9.58 22.116 -11.883 22.07 C-12.581 22.047 -13.28 22.024 -14 22 C-14 20.68 -14 19.36 -14 18 C-12.927 17.588 -11.855 17.175 -10.75 16.75 C-6.174 14.79 -3.751 12.126 -1 8 C-0.586 5.957 -0.586 5.957 -0.375 3.812 C-0.251 2.554 -0.127 1.296 0 0 Z " fill="#F3D2AB" transform="translate(96,67)"/>
<path d="M0 0 C1.341 6.337 1.341 6.337 -0.188 9.312 C-2.034 11.032 -3.676 12.038 -6 13 C-6 13.99 -6 14.98 -6 16 C-12.39 18.12 -18.678 19.569 -25.336 20.57 C-27.606 20.936 -29.783 21.401 -32 22 C-29.621 19.371 -27.175 17.588 -24 16 C-23.588 16.021 -23.588 16.021 -21.5 16.125 C-19 16 -19 16 -16.188 13.5 C-15.466 12.675 -14.744 11.85 -14 11 C-14.66 10.34 -15.32 9.68 -16 9 C-15.196 8.752 -14.391 8.505 -13.562 8.25 C-12.717 7.837 -11.871 7.425 -11 7 C-10.856 6.361 -10.711 5.721 -10.562 5.062 C-10 3 -10 3 -7.188 1.25 C-4 0 -4 0 0 0 Z " fill="#865329" transform="translate(107,28)"/>
<path d="M0 0 C0.66 0.33 1.32 0.66 2 1 C2 4.96 2 8.92 2 13 C0.68 13.33 -0.64 13.66 -2 14 C-1.67 14.99 -1.34 15.98 -1 17 C2 16 2 16 4 13 C5.431 15.862 4.6 17.934 4 21 C3.34 21 2.68 21 2 21 C2.33 23.64 2.66 26.28 3 29 C2.34 28.34 1.68 27.68 1 27 C1 26.01 1 25.02 1 24 C0.34 24.66 -0.32 25.32 -1 26 C-0.67 26.99 -0.34 27.98 0 29 C-5.75 27.25 -5.75 27.25 -8 25 C-8 24.01 -8 23.02 -8 22 C-7.01 21.34 -6.02 20.68 -5 20 C-5.14 18.354 -5.287 16.708 -5.438 15.062 C-5.519 14.146 -5.6 13.229 -5.684 12.285 C-6 10 -6 10 -7 9 C-7.99 8.67 -8.98 8.34 -10 8 C-9.67 7.34 -9.34 6.68 -9 6 C-8.361 5.876 -7.721 5.752 -7.062 5.625 C-5 5 -5 5 -3.75 2.938 C-3.502 2.298 -3.255 1.659 -3 1 C-2.01 1.33 -1.02 1.66 0 2 C0 1.34 0 0.68 0 0 Z " fill="#78431A" transform="translate(118,108)"/>
<path d="M0 0 C-1.32 0.99 -2.64 1.98 -4 3 C-3.67 4.65 -3.34 6.3 -3 8 C-3.619 8.289 -4.237 8.578 -4.875 8.875 C-7 10 -7 10 -9 12 C-8.67 10.02 -8.34 8.04 -8 6 C-8.66 6 -9.32 6 -10 6 C-10.369 15.41 -10.369 15.41 -8 20 C1.036 20.776 1.036 20.776 4.562 17.938 C6.205 14.58 6.709 11.711 7 8 C7.33 8 7.66 8 8 8 C8.499 14.24 8.241 18.01 4 23 C0.295 24.852 -3.956 24.459 -8 24 C-11.155 22.226 -12.507 20.845 -14.312 17.75 C-15.255 13.982 -15.251 10.892 -15 7 C-11.307 1.461 -6.526 -0.637 0 0 Z " fill="#E6B01D" transform="translate(46,58)"/>
<path d="M0 0 C0 2.31 0 4.62 0 7 C1.32 7.33 2.64 7.66 4 8 C0.761 9.937 -1.46 10.194 -5.203 9.977 C-6.183 9.925 -7.163 9.873 -8.172 9.82 C-8.68 9.788 -8.68 9.788 -11.25 9.625 C-11.766 9.597 -11.766 9.597 -14.375 9.453 C-16.917 9.312 -19.459 9.16 -22 9 C-22 8.34 -22 7.68 -22 7 C-23.65 7.33 -25.3 7.66 -27 8 C-27 7.67 -27 7.34 -27 7 C-27.949 6.711 -28.898 6.423 -29.875 6.125 C-33 5 -33 5 -35 3 C-33.68 2.67 -32.36 2.34 -31 2 C-31 2.99 -31 3.98 -31 5 C-29.23 5.054 -27.459 5.093 -25.688 5.125 C-25.194 5.137 -25.194 5.137 -22.699 5.195 C-20 5 -20 5 -17 3 C-11.223 0.516 -6.26 -0.341 0 0 Z " fill="#ECE0CF" transform="translate(69,160)"/>
<path d="M0 0 C0.66 0 1.32 0 2 0 C2.99 3.3 3.98 6.6 5 10 C6.32 10 7.64 10 9 10 C9 8.35 9 6.7 9 5 C12.483 8.019 13.792 10.569 15 15 C14.01 15.33 13.02 15.66 12 16 C12.99 17.65 13.98 19.3 15 21 C13.68 21.33 12.36 21.66 11 22 C11 22.66 11 23.32 11 24 C8.03 24.66 5.06 25.32 2 26 C4 23 4 23 6.625 22.312 C7.409 22.209 8.193 22.106 9 22 C8.734 21.776 8.734 21.776 7.391 20.645 C3.521 17.333 0.014 14.144 -3 10 C-2.34 9.34 -1.68 8.68 -1 8 C-1 8.66 -1 9.32 -1 10 C0.32 9.67 1.64 9.34 3 9 C2.505 8.257 2.01 7.515 1.5 6.75 C0 4 0 4 0 0 Z " fill="#C99663" transform="translate(33,132)"/>
<path d="M0 0 C0.557 0.155 0.557 0.155 3.375 0.938 C8.205 2.158 13.043 2.614 18 3 C18 3.99 18 4.98 18 6 C12.736 7.627 7.567 8.622 2.125 9.438 C-4.182 10.428 -10.025 11.676 -16 14 C-13.46 10.462 -12.182 8.976 -8 8 C-7.691 7.361 -7.381 6.721 -7.062 6.062 C-5.611 3.245 -3.901 3.041 -1 2 C-0.67 1.34 -0.34 0.68 0 0 Z " fill="#D7C3AD" transform="translate(101,155)"/>
<path d="M0 0 C2.062 2.5 2.062 2.5 3 5 C2.34 5 1.68 5 1 5 C1.495 5.784 1.99 6.568 2.5 7.375 C4.407 11.983 4.627 16.067 4 21 C2.98 23.305 2.98 23.305 2 25 C1.804 24.143 1.608 23.286 1.406 22.402 C-0.693 14.375 -2.96 9.572 -10 5 C-12.434 3.783 -14.418 3.68 -17.125 3.438 C-18.035 3.354 -18.945 3.27 -19.883 3.184 C-20.581 3.123 -21.28 3.062 -22 3 C-22 2.67 -22 2.34 -22 2 C-6.323 -0.714 -6.323 -0.714 0 0 Z " fill="#A86A35" transform="translate(104,45)"/>
<path d="M0 0 C0 1.65 0 3.3 0 5 C1.32 4.67 2.64 4.34 4 4 C4 4.99 4 5.98 4 7 C4.66 7 5.32 7 6 7 C6 6.34 6 5.68 6 5 C7.32 5 8.64 5 10 5 C10 4.34 10 3.68 10 3 C11.875 3.125 11.875 3.125 14 4 C15.25 7.062 15.25 7.062 16 10 C12.633 11.178 9.274 12.211 5.812 13.062 C2 14 2 14 -1 15 C-1.763 14.196 -2.526 13.391 -3.312 12.562 C-6 10 -6 10 -9 9 C-8.34 8.01 -7.68 7.02 -7 6 C-6.175 6.33 -6.175 6.33 -2 8 C-2 6.02 -2 4.04 -2 2 C-2.66 1.67 -3.32 1.34 -4 1 C-2 0 -2 0 0 0 Z " fill="#AF713A" transform="translate(53,92)"/>
<path d="M0 0 C19.512 -0.661 19.512 -0.661 27 3 C27.33 3.99 27.66 4.98 28 6 C27.215 5.881 26.43 5.763 25.621 5.641 C18.605 4.78 14.718 4.711 9 9 C9.66 8.67 10.32 8.34 11 8 C12.677 8.279 14.346 8.608 16 9 C12.541 13.18 9.017 14.328 4 16 C4.755 10.463 4.755 10.463 6.125 7.875 C7.226 5.516 6.857 4.4 6 2 C5.01 1.835 5.01 1.835 0 1 C0 0.67 0 0.34 0 0 Z " fill="#925D32" transform="translate(60,28)"/>
<path d="M0 0 C0.66 0 1.32 0 2 0 C2.268 0.969 2.536 1.939 2.812 2.938 C3.204 3.948 3.596 4.959 4 6 C4.99 6.33 5.98 6.66 7 7 C7 7.66 7 8.32 7 9 C4.69 9.33 2.38 9.66 0 10 C0 10.66 0 11.32 0 12 C0.66 12 1.32 12 2 12 C2 12.66 2 13.32 2 14 C2.626 14.026 3.253 14.052 3.898 14.078 C4.307 14.106 4.307 14.106 6.375 14.25 C6.781 14.273 6.781 14.273 8.836 14.391 C11 15 11 15 12.289 17.047 C12.524 17.691 12.758 18.336 13 19 C11.68 19 10.36 19 9 19 C6.996 19.308 4.995 19.637 3 20 C2.67 19.01 2.34 18.02 2 17 C0.68 17.33 -0.64 17.66 -2 18 C-2.8 14.713 -3.097 13.29 -2 10 C-4.31 10 -6.62 10 -9 10 C-8.67 9.34 -8.34 8.68 -8 8 C-7.01 8 -6.02 8 -5 8 C-5 7.34 -5 6.68 -5 6 C-4.34 6 -3.68 6 -3 6 C-2.67 4.68 -2.34 3.36 -2 2 C-1.34 2 -0.68 2 0 2 C0 1.34 0 0.68 0 0 Z " fill="#BC8951" transform="translate(71,150)"/>
<path d="M0 0 C8.163 5.63 9.885 14.424 11.75 23.75 C11.791 24.286 11.791 24.286 12 27 C12.063 27.74 12.126 28.48 12.191 29.242 C12.406 33.473 12.38 35.418 10 39.062 C9.34 39.702 8.68 40.341 8 41 C7.67 39.02 7.34 37.04 7 35 C7.66 35 8.32 35 9 35 C9 32.69 9 30.38 9 28 C8.34 28.99 7.68 29.98 7 31 C6.01 31 5.02 31 4 31 C3.34 29.35 2.68 27.7 2 26 C2.99 26.33 3.98 26.66 5 27 C6.675 18.067 5.392 12.031 1.059 4.102 C0 2 0 2 0 0 Z " fill="#7C4E2A" transform="translate(113,94)"/>
<path d="M0 0 C0.99 0.99 1.98 1.98 3 3 C3.66 2.01 4.32 1.02 5 0 C6.372 1.378 7.722 2.778 9.062 4.188 C9.817 4.965 10.571 5.742 11.348 6.543 C13 9 13 9 12.809 11.738 C12 14 12 14 11 15 C8.882 15.289 6.755 15.507 4.625 15.688 C4.044 15.741 4.044 15.741 1.102 16.012 C-2 16 -2 16 -5 14 C-4.67 13.34 -4.34 12.68 -4 12 C-2.35 12 -0.7 12 1 12 C0.67 11.34 0.34 10.68 0 10 C1.65 10 3.3 10 5 10 C4.34 8.68 3.68 7.36 3 6 C1.68 6.33 0.36 6.66 -1 7 C-0.67 4.69 -0.34 2.38 0 0 Z " fill="#623310" transform="translate(118,140)"/>
<path d="M0 0 C0.99 0 1.98 0 3 0 C5.006 3.008 5.929 5.571 7 9 C7.33 9.99 7.66 10.98 8 12 C11.3 11.67 14.6 11.34 18 11 C17.34 12.98 16.68 14.96 16 17 C15.34 17 14.68 17 14 17 C14 17.66 14 18.32 14 19 C9.215 19.098 4.723 18.771 0 18 C0.928 13.227 0.928 13.227 1.594 11.125 C2.087 8.544 1.697 6.789 1.062 4.25 C0.868 3.451 0.673 2.652 0.473 1.828 C0.395 1.526 0.395 1.526 0 0 Z " fill="#CA965F" transform="translate(52,139)"/>
<path d="M0 0 C0.66 0 1.32 0 2 0 C3.687 1.983 5.354 3.983 7 6 C7.66 6.33 8.32 6.66 9 7 C8.67 8.32 8.34 9.64 8 11 C7.34 11 6.68 11 6 11 C6 10.34 6 9.68 6 9 C5.34 9 4.68 9 4 9 C4.371 9.743 4.743 10.485 5.125 11.25 C6 14 6 14 5.125 16.312 C4.754 16.869 4.382 17.426 4 18 C2.68 17.67 1.36 17.34 0 17 C-0.66 17.99 -1.32 18.98 -2 20 C-3.32 19.34 -4.64 18.68 -6 18 C-5.333 14.667 -4.667 11.333 -4 8 C-2.68 7.67 -1.36 7.34 0 7 C0 4.69 0 2.38 0 0 Z " fill="#BD834B" transform="translate(91,140)"/>
<path d="M0 0 C-2.138 2.138 -3.301 2.595 -6.125 3.5 C-6.849 3.737 -7.574 3.974 -8.32 4.219 C-14.894 6.135 -20.923 7.354 -27.75 7.688 C-28.491 7.735 -29.232 7.782 -29.996 7.83 C-33.556 8.025 -36.579 7.978 -40 7 C-34.04 4.091 -28.206 2.9 -21.688 1.812 C-21.197 1.724 -21.197 1.724 -18.713 1.275 C-12.416 0.196 -6.385 -0.229 0 0 Z " fill="#F0E5D8" transform="translate(127,161)"/>
<path d="M0 0 C2 2 2 2 2.125 4.625 C2.084 5.409 2.043 6.192 2 7 C1.01 7 0.02 7 -1 7 C-0.959 7.887 -0.918 8.774 -0.875 9.688 C-0.999 12.973 -1.614 15.054 -3 18 C-3.66 17.67 -4.32 17.34 -5 17 C-5.485 17.083 -5.485 17.083 -7.938 17.5 C-11 18 -11 18 -14 17 C-17 13.556 -17 13.556 -17 11 C-16.536 11.01 -16.536 11.01 -14.188 11.062 C-11 11 -11 11 -8 10 C-8 8.68 -8 7.36 -8 6 C-7.34 6 -6.68 6 -6 6 C-5.34 6.66 -4.68 7.32 -4 8 C-3.67 7.01 -3.34 6.02 -3 5 C-2.34 4.67 -1.68 4.34 -1 4 C-0.375 1.937 -0.375 1.937 0 0 Z " fill="#DFAC77" transform="translate(74,134)"/>
<path d="M0 0 C0.33 0.66 0.66 1.32 1 2 C-1.97 2 -4.94 2 -8 2 C-8 2.66 -8 3.32 -8 4 C-7.257 4.082 -6.515 4.165 -5.75 4.25 C-2.488 5.14 -1.19 6.485 1 9 C0.01 9.33 -0.98 9.66 -2 10 C-2.66 9.67 -3.32 9.34 -4 9 C-8.572 8.452 -11.959 8.358 -15.938 10.812 C-18.826 13.876 -20.217 16.043 -20.625 20.188 C-20.749 21.446 -20.873 22.704 -21 24 C-21.33 24 -21.66 24 -22 24 C-23.007 19.217 -23.397 16.958 -21.5 12.375 C-18.965 8.52 -15.606 5.813 -12 3 C-11.361 2.381 -10.721 1.763 -10.062 1.125 C-6.762 -0.675 -3.715 -0.186 0 0 Z " fill="#CFA273" transform="translate(91,50)"/>
<path d="M0 0 C2 3 2 3 3 5 C3.99 5 4.98 5 6 5 C7.688 2.5 7.688 2.5 9 0 C10.206 2.332 11.165 4.496 12 7 C13.65 7 15.3 7 17 7 C17.33 7.66 17.66 8.32 18 9 C17.01 9.33 16.02 9.66 15 10 C15 10.66 15 11.32 15 12 C14.402 11.691 13.804 11.381 13.188 11.062 C11 10 11 10 8 9 C8 9.66 8 10.32 8 11 C6.68 11 5.36 11 4 11 C4 11.66 4 12.32 4 13 C3.34 13 2.68 13 2 13 C2 12.01 2 11.02 2 10 C0.68 10.33 -0.64 10.66 -2 11 C-2.947 7.298 -3.304 5.609 -1.562 2.125 C-1.047 1.424 -0.531 0.722 0 0 Z " fill="#C89361" transform="translate(55,86)"/>
<path d="M0 0 C4.041 -0.007 6.406 0.073 9.949 2.184 C13.003 5.515 13.883 7.277 14.387 11.809 C13.94 16.127 12.78 18.127 10.012 21.434 C7.046 23.764 3.775 23.905 0.047 23.828 C-3.606 23.12 -5.426 21.058 -7.988 18.434 C-9.343 15.725 -9.053 13.424 -8.988 10.434 C-8.741 10.97 -8.493 11.506 -8.238 12.059 C-7.826 12.842 -7.413 13.626 -6.988 14.434 C-6.473 15.506 -5.957 16.579 -5.426 17.684 C-2.988 20.434 -2.988 20.434 -0.867 20.957 C2.842 21.115 5.314 20.825 8.574 18.996 C10.736 15.142 10.869 11.741 10.012 7.434 C8.074 4.309 8.074 4.309 5.012 2.434 C1.906 2.335 -0.961 2.767 -3.988 3.434 C-1.988 0.434 -1.988 0.434 0 0 Z " fill="#E9B71A" transform="translate(79.98828125,59.56640625)"/>
<path d="M0 0 C3.322 2.475 5.699 4.548 8 8 C7.67 8.99 7.34 9.98 7 11 C6.484 10.505 5.969 10.01 5.438 9.5 C2.1 7.446 -0.144 7.587 -4 8 C-6.125 9.438 -6.125 9.438 -8 11 C-10.75 11.688 -10.75 11.688 -13 12 C-13 11.34 -13 10.68 -13 10 C-12.01 10 -11.02 10 -10 10 C-9.876 9.278 -9.752 8.556 -9.625 7.812 C-9.004 5.018 -8.222 2.587 -7 0 C-4.185 -1.407 -2.992 -0.952 0 0 Z " fill="#DFB180" transform="translate(43,49)"/>
<path d="M0 0 C1.32 0 2.64 0 4 0 C3.443 3.344 2.648 6.033 1 9 C0.629 8.505 0.257 8.01 -0.125 7.5 C-2.742 5.407 -4.723 5.932 -8 6 C-8.99 5.34 -9.98 4.68 -11 4 C-11 3.34 -11 2.68 -11 2 C-11.66 2 -12.32 2 -13 2 C-13 1.34 -13 0.68 -13 0 C-7.764 -1.885 -5.142 -2.057 0 0 Z " fill="#D4850D" transform="translate(84,160)"/>
<path d="M0 0 C0.578 0.248 0.578 0.248 3.5 1.5 C7.855 3.161 11.376 3.162 16 3 C16.33 3.33 16.66 3.66 17 4 C19 4.041 21 4.043 23 4 C22.67 4.66 22.34 5.32 22 6 C19.938 6.027 17.875 6.046 15.812 6.062 C14.664 6.074 13.515 6.086 12.332 6.098 C9.407 6.012 6.837 5.678 4 5 C1.916 10.279 1.421 15.395 1 21 C0.67 21 0.34 21 0 21 C-0.33 19.02 -0.66 17.04 -1 15 C-1.66 16.98 -2.32 18.96 -3 21 C-3.33 21 -3.66 21 -4 21 C-4.359 15.253 -3.21 11.267 -1 6 C0 3 0 3 0 0 Z " fill="#7D471D" transform="translate(25,91)"/>
<path d="M0 0 C0.578 0.66 1.155 1.32 1.75 2 C4 4 4 4 8 4 C8 3.01 8 2.02 8 1 C10.64 1.33 13.28 1.66 16 2 C15 5 15 5 12 7 C12.351 7.763 12.701 8.526 13.062 9.312 C14 12 14 12 13 15 C10 10.25 10 10.25 10 8 C9.01 8.33 8.02 8.66 7 9 C6.01 8.34 5.02 7.68 4 7 C4.351 8.093 4.701 9.186 5.062 10.312 C6 14 6 14 5 17 C4.34 16.67 3.68 16.34 3 16 C2.602 14.012 2.276 12.009 2 10 C1.683 8.663 1.357 7.327 1 6 C-0.65 5.67 -2.3 5.34 -4 5 C-2.68 4.67 -1.36 4.34 0 4 C0 2.68 0 1.36 0 0 Z " fill="#6E3A12" transform="translate(98,124)"/>
<path d="M0 0 C0.66 0.99 1.32 1.98 2 3 C2.66 2.34 3.32 1.68 4 1 C3.875 3.25 3.875 3.25 3 6 C1.025 7.37 -0.974 8.707 -3 10 C-3 10.99 -3 11.98 -3 13 C-9.39 15.12 -15.678 16.569 -22.336 17.57 C-24.606 17.936 -26.783 18.401 -29 19 C-26.608 16.356 -24.226 14.54 -21 13 C-18.667 12.958 -16.333 12.959 -14 13 C-7.783 11.964 -4.537 7.921 -1 3 C-0.67 2.01 -0.34 1.02 0 0 Z " fill="#623715" transform="translate(104,31)"/>
<path d="M0 0 C2.312 -0.312 2.312 -0.312 5 0 C8.145 3.952 8.308 6.991 8.125 11.938 C7.977 16.468 8.116 20.547 9 25 C6.69 25.66 4.38 26.32 2 27 C2 24.03 2 21.06 2 18 C2.99 18.66 3.98 19.32 5 20 C5.33 15.05 5.66 10.1 6 5 C5.01 4.67 4.02 4.34 3 4 C1.312 1.938 1.312 1.938 0 0 Z " fill="#CF955C" transform="translate(76,102)"/>
<path d="M0 0 C1.771 0.141 3.542 0.288 5.312 0.438 C6.299 0.519 7.285 0.6 8.301 0.684 C11 1 11 1 14 2 C13.67 2.66 13.34 3.32 13 4 C13.99 4.165 13.99 4.165 19 5 C18.34 6.65 17.68 8.3 17 10 C16.34 9.67 15.68 9.34 15 9 C15 8.34 15 7.68 15 7 C9.06 6.67 3.12 6.34 -3 6 C-2.34 5.67 -1.68 5.34 -1 5 C-1 4.34 -1 3.68 -1 3 C-0.34 3 0.32 3 1 3 C0.67 2.01 0.34 1.02 0 0 Z " fill="#A1632D" transform="translate(69,95)"/>
<path d="M0 0 C2.148 3.221 2.179 3.75 1.938 7.375 C1.858 11.421 2.177 13.885 5 17 C7.688 17.812 7.688 17.812 10 18 C10 17.67 10 17.34 10 17 C11.093 16.752 12.186 16.505 13.312 16.25 C17 15 17 15 18.875 13.312 C20.363 10.255 20.677 7.364 21 4 C21.33 4 21.66 4 22 4 C22.499 10.24 22.241 14.01 18 19 C14.295 20.852 10.044 20.459 6 20 C2.845 18.226 1.493 16.845 -0.312 13.75 C-1.483 9.067 -1.542 4.625 0 0 Z " fill="#825E2D" transform="translate(32,62)"/>
<path d="M0 0 C-0.33 1.98 -0.66 3.96 -1 6 C-3.791 6.221 -6.582 6.427 -9.375 6.625 C-10.169 6.689 -10.963 6.754 -11.781 6.82 C-13.85 6.961 -15.926 6.988 -18 7 C-18.66 6.34 -19.32 5.68 -20 5 C-13.706 0.804 -7.468 -0.407 0 0 Z " fill="#C9AF93" transform="translate(69,160)"/>
<path d="M0 0 C3.178 5.721 3.052 9.842 1.766 16.109 C1.513 16.733 1.26 17.357 1 18 C0.01 18.33 -0.98 18.66 -2 19 C-2.454 18.051 -2.907 17.102 -3.375 16.125 C-5 13 -5 13 -7 11 C-6.01 11 -5.02 11 -4 11 C-2.509 7.378 -1.213 3.724 0 0 Z " fill="#EDBE8B" transform="translate(70,110)"/>
<path d="M0 0 C3.483 3.019 4.792 5.569 6 10 C5.01 10.33 4.02 10.66 3 11 C3.99 12.65 4.98 14.3 6 16 C4.68 16.33 3.36 16.66 2 17 C2 17.66 2 18.32 2 19 C-0.97 19.66 -3.94 20.32 -7 21 C-5 18 -5 18 -2.375 17.312 C-1.591 17.209 -0.807 17.106 0 17 C-1.98 15.35 -3.96 13.7 -6 12 C-5.34 10.68 -4.68 9.36 -4 8 C-3.752 8.784 -3.505 9.567 -3.25 10.375 C-1.846 13.323 -0.993 13.902 2 15 C1.67 14.196 1.34 13.391 1 12.562 C-0.207 8.262 -0.177 4.43 0 0 Z " fill="#B57D43" transform="translate(42,137)"/>
<path d="M0 0 C0.33 0.361 0.33 0.361 2 2.188 C5.268 5.455 9.024 7.689 13 10 C13.683 10.397 14.366 10.794 15.07 11.203 C16.708 12.145 18.353 13.074 20 14 C17.813 16.187 17.052 16.826 14 17 C10.22 14.48 7.163 11.244 4 8 C3.237 7.319 2.474 6.639 1.688 5.938 C0 4 0 4 0 0 Z " fill="#8E5828" transform="translate(91,133)"/>
<path d="M0 0 C3.154 1.348 4.812 2.677 6.75 5.5 C7.178 6.108 7.606 6.717 8.047 7.344 C9 9 9 9 9 11 C8.701 11.113 8.701 11.113 7.188 11.688 C4.436 13.338 3.475 15.197 2 18 C0.188 17.875 0.188 17.875 -2 17 C-3.731 14.051 -4.92 11.24 -6 8 C-4.785 5.957 -4.785 5.957 -3.062 3.812 C-2.497 3.097 -1.931 2.382 -1.348 1.645 C-0.903 1.102 -0.458 0.559 0 0 Z M0 2 C-1.562 3.5 -1.562 3.5 -3 6 C-3.021 9.494 -2.576 12.847 -1 16 C2.8 14.733 3.952 13.414 6 10 C5.5 6.812 5.5 6.812 4 4 C1.875 2.625 1.875 2.625 0 2 Z " fill="#BA7A32" transform="translate(59,74)"/>
<path d="M0 0 C0 0.33 0 0.66 0 1 C-3.021 1.07 -5.631 1.099 -8.562 0.312 C-11 0 -11 0 -13.625 1.125 C-16 3 -16 3 -17.5 5.5 C-19.26 8.433 -20.995 9.457 -24 11 C-23.566 6.077 -21.356 3.512 -18 0 C-12.778 -3.961 -5.605 -2.242 0 0 Z " fill="#F0D2AA" transform="translate(50,48)"/>
<path d="M0 0 C-2.619 1.746 -4.038 2.387 -7 3 C-7.33 4.65 -7.66 6.3 -8 8 C-7.34 7.34 -6.68 6.68 -6 6 C-3.375 6.375 -3.375 6.375 -1 7 C-4.459 11.18 -7.983 12.328 -13 14 C-12.487 9.592 -11.458 6.686 -9 3 C-8.67 2.34 -8.34 1.68 -8 1 C-5.072 0.024 -3.044 -0.082 0 0 Z " fill="#986030" transform="translate(77,30)"/>
<path d="M0 0 C3.574 0.496 6.693 1.583 10 3 C10 3.33 10 3.66 10 4 C9.408 4.098 8.817 4.196 8.207 4.297 C3.174 5.249 -0.367 6.154 -4 10 C-5.813 13.25 -5.813 13.25 -7 16 C-7.33 16 -7.66 16 -8 16 C-7.716 9.18 -4.794 4.794 0 0 Z " fill="#AF783F" transform="translate(33,42)"/>
<path d="M0 0 C0.66 0 1.32 0 2 0 C2.33 2.97 2.66 5.94 3 9 C2.67 9.165 2.67 9.165 1 10 C1.206 11.114 1.413 12.227 1.625 13.375 C1.749 14.571 1.872 15.768 2 17 C1.34 17.66 0.68 18.32 0 19 C-2.145 12.976 -3.701 8.282 -2 2 C-1.34 1.34 -0.68 0.68 0 0 Z " fill="#DFAD78" transform="translate(29,118)"/>
<path d="M0 0 C1.98 0.66 3.96 1.32 6 2 C3.465 6.319 1.872 8.59 -3 10 C-3.33 10.165 -3.33 10.165 -5 11 C-4.34 8.69 -3.68 6.38 -3 4 C-4.65 4.33 -6.3 4.66 -8 5 C-8 4.34 -8 3.68 -8 3 C-8.99 3 -9.98 3 -11 3 C-11 2.34 -11 1.68 -11 1 C-7.625 0.875 -7.625 0.875 -4 1 C-3.34 1.66 -2.68 2.32 -2 3 C-1.34 2.01 -0.68 1.02 0 0 Z " fill="#A56323" transform="translate(91,156)"/>
<path d="M0 0 C0.66 1.32 1.32 2.64 2 4 C2.33 3.34 2.66 2.68 3 2 C3.66 2 4.32 2 5 2 C4.508 8.4 4.508 8.4 1.938 11.438 C1.618 11.695 1.618 11.695 0 13 C-2.192 10.018 -3.034 8.57 -2.812 4.812 C-2 2 -2 2 0 0 Z " fill="#9B632F" transform="translate(51,110)"/>
<path d="M0 0 C0.33 0 0.66 0 1 0 C1.366 6.46 1.366 6.46 -0.312 8.938 C-2 10 -2 10 -5 10 C-5.66 11.32 -6.32 12.64 -7 14 C-8.32 14 -9.64 14 -11 14 C-11.33 14.165 -11.33 14.165 -13 15 C-13 14.01 -13 13.02 -13 12 C-12.34 12 -11.68 12 -11 12 C-10.34 10.68 -9.68 9.36 -9 8 C-7.68 8 -6.36 8 -5 8 C-4.34 6.02 -3.68 4.04 -3 2 C-2.34 3.32 -1.68 4.64 -1 6 C-0.67 4.02 -0.34 2.04 0 0 Z " fill="#864D1E" transform="translate(113,80)"/>
<path d="M0 0 C0.99 0.309 1.98 0.619 3 0.938 C6.977 2.084 10.888 2.567 15 3 C14.67 3.66 14.34 4.32 14 5 C11.03 5 8.06 5 5 5 C5 4.34 5 3.68 5 3 C4.01 3.33 3.02 3.66 2 4 C0.832 6.504 0.832 6.504 -0.188 9.562 C-0.532 10.574 -0.876 11.586 -1.23 12.629 C-1.484 13.411 -1.738 14.194 -2 15 C-2.33 15 -2.66 15 -3 15 C-3.179 9.802 -3.026 5.887 -1 1 C-0.67 0.67 -0.34 0.34 0 0 Z " fill="#B97A3F" transform="translate(29,95)"/>
<path d="M0 0 C0.99 0.33 1.98 0.66 3 1 C3 1.99 3 2.98 3 4 C3.66 4 4.32 4 5 4 C5.33 3.34 5.66 2.68 6 2 C8.763 2.523 11.326 3.109 14 4 C14.33 4.99 14.66 5.98 15 7 C13.68 7 12.36 7 11 7 C8.996 7.308 6.995 7.637 5 8 C4.67 7.01 4.34 6.02 4 5 C2.68 5.33 1.36 5.66 0 6 C-0.382 4.344 -0.714 2.675 -1 1 C-0.67 0.67 -0.34 0.34 0 0 Z " fill="#6B4826" transform="translate(69,162)"/>
<path d="M0 0 C0.66 0.33 1.32 0.66 2 1 C2 1.66 2 2.32 2 3 C2.66 3 3.32 3 4 3 C4.124 3.763 4.248 4.526 4.375 5.312 C5 8 5 8 7 11 C7 12.32 7 13.64 7 15 C2.123 13.645 0.514 11.283 -2 7 C-1.34 6.34 -0.68 5.68 0 5 C0 4.67 0 4.34 0 4 C0 2.68 0 1.36 0 0 Z " fill="#DEAC77" transform="translate(46,141)"/>
<path d="M0 0 C5.571 -0.328 9.351 -0.454 14 3 C15.326 3.681 16.657 4.353 18 5 C17.67 5.99 17.34 6.98 17 8 C17.008 10.549 17.129 13.08 17.258 15.625 C17 18 17 18 15.492 19.812 C15 20.204 14.507 20.596 14 21 C14.165 20.484 14.33 19.969 14.5 19.438 C15.458 14.766 15.488 11.209 13.688 6.75 C9.774 2.745 5.381 2.058 0 1 C0 0.67 0 0.34 0 0 Z " fill="#553619" transform="translate(78,58)"/>
<path d="M0 0 C2.607 1.742 4.81 3.763 7 6 C6.67 6.66 6.34 7.32 6 8 C5.464 7.526 4.927 7.051 4.375 6.562 C1.561 4.711 -0.69 4.432 -4 4 C-4.66 3.67 -5.32 3.34 -6 3 C-8.729 4.433 -10.817 5.817 -13 8 C-13.66 6.68 -14.32 5.36 -15 4 C-14.237 3.711 -13.474 3.422 -12.688 3.125 C-3.961 -0.528 -3.961 -0.528 0 0 Z " fill="#422913" transform="translate(46,56)"/>
<path d="M0 0 C1.673 2.151 3.146 4.255 4.5 6.625 C6.655 10.037 8.561 10.888 12.438 11.875 C16.104 13.033 17.58 14.096 20 17 C15.495 17.563 12.761 16.04 8.965 13.875 C7 13 7 13 3 13 C3 11.68 3 10.36 3 9 C2.016 6.992 1.017 4.991 0 3 C0 2.01 0 1.02 0 0 Z " fill="#6A3D1D" transform="translate(29,30)"/>
<path d="M0 0 C4.041 -0.007 6.406 0.073 9.949 2.184 C13.989 6.59 14.242 9.434 14.012 15.434 C13.022 15.104 12.032 14.774 11.012 14.434 C10.422 12.473 10.422 12.473 10.074 10.059 C9.505 7.22 9.181 5.663 7.449 3.309 C3.596 1.925 -0.023 2.73 -3.988 3.434 C-1.988 0.434 -1.988 0.434 0 0 Z " fill="#D18F0D" transform="translate(79.98828125,59.56640625)"/>
<path d="M0 0 C0.99 0.33 1.98 0.66 3 1 C3 1.66 3 2.32 3 3 C3.33 3.495 3.33 3.495 5 6 C2.59 7.518 1.317 8.023 -1.562 7.812 C-4.149 6.95 -5.283 6.078 -7 4 C-6.34 3.01 -5.68 2.02 -5 1 C-4.01 1 -3.02 1 -2 1 C-1.34 0.67 -0.68 0.34 0 0 Z " fill="#A66C3A" transform="translate(43,32)"/>
<path d="M0 0 C0.33 0 0.66 0 1 0 C1.138 7.066 0.748 13.974 0 21 C-0.33 21 -0.66 21 -1 21 C-1 19.35 -1 17.7 -1 16 C-2.32 16.33 -3.64 16.66 -5 17 C-4.351 10.995 -2.142 5.599 0 0 Z " fill="#633410" transform="translate(24,103)"/>
<path d="M0 0 C0.302 0.036 0.302 0.036 1.828 0.219 C2.228 0.265 2.228 0.265 4.25 0.5 C5.039 0.593 5.828 0.686 6.641 0.781 C9 1 9 1 13 1 C11.125 4.875 11.125 4.875 10 6 C2.478 6.239 2.478 6.239 0 5 C0 3.35 0 1.7 0 0 Z " fill="#251704" transform="translate(38,73)"/>
<path d="M0 0 C0.33 0.66 0.66 1.32 1 2 C2.65 2 4.3 2 6 2 C6 2.99 6 3.98 6 5 C7.98 4.34 9.96 3.68 12 3 C12.33 4.32 12.66 5.64 13 7 C9.424 8.238 6.663 7.749 3 7 C3 6.01 3 5.02 3 4 C1.68 4.33 0.36 4.66 -1 5 C-0.67 3.35 -0.34 1.7 0 0 Z " fill="#583918" transform="translate(35,158)"/>
<path d="M0 0 C3.3 0.66 6.6 1.32 10 2 C10.33 2.99 10.66 3.98 11 5 C8.897 5.222 6.793 5.427 4.688 5.625 C3.516 5.741 2.344 5.857 1.137 5.977 C-2 6 -2 6 -5 4 C-4.67 3.34 -4.34 2.68 -4 2 C-2.35 2 -0.7 2 1 2 C0.67 1.34 0.34 0.68 0 0 Z " fill="#774A26" transform="translate(118,150)"/>
<path d="M0 0 C0.33 0.175 0.33 0.175 2 1.062 C6.051 2.329 8.834 1.706 13 1 C13.33 1.99 13.66 2.98 14 4 C10.047 6.635 6.655 6.893 2 6 C-0.062 3.5 -0.062 3.5 -1 1 C-0.67 0.67 -0.34 0.34 0 0 Z " fill="#261803" transform="translate(75,75)"/>
<path d="M0 0 C0.598 0.186 1.196 0.371 1.812 0.562 C4 1 4 1 7 0 C7.66 1.32 8.32 2.64 9 4 C8.608 3.99 8.608 3.99 6.625 3.938 C4 4 4 4 2 5 C2 5.66 2 6.32 2 7 C-1.146 7.262 -2.618 7.248 -5.312 5.5 C-5.869 5.005 -6.426 4.51 -7 4 C-5.35 3.34 -3.7 2.68 -2 2 C-1.67 2.66 -1.34 3.32 -1 4 C-0.34 3.67 0.32 3.34 1 3 C0.67 2.01 0.34 1.02 0 0 Z " fill="#673811" transform="translate(111,149)"/>
<path d="M0 0 C7.767 5.608 7.767 5.608 10.75 8.938 C11.493 9.618 12.235 10.299 13 11 C15.312 10.812 15.312 10.812 17 10 C16.34 11.32 15.68 12.64 15 14 C13.35 14 11.7 14 10 14 C9.752 13.216 9.505 12.433 9.25 11.625 C7.773 8.524 6.992 8.408 4 7 C0 2.556 0 2.556 0 0 Z " fill="#A36A39" transform="translate(92,138)"/>
<path d="M0 0 C2.97 0 5.94 0 9 0 C8.01 2.31 7.02 4.62 6 7 C5.01 7 4.02 7 3 7 C3 6.01 3 5.02 3 4 C2.01 4.33 1.02 4.66 0 5 C-0.66 4.67 -1.32 4.34 -2 4 C-1.34 2.68 -0.68 1.36 0 0 Z " fill="#F5A610" transform="translate(38,156)"/>
<path d="M0 0 C0.99 0 1.98 0 3 0 C4.25 6.625 4.25 6.625 2 10 C1.01 10 0.02 10 -1 10 C-2.354 7.291 -2.065 4.991 -2 2 C-1.34 2 -0.68 2 0 2 C0 1.34 0 0.68 0 0 Z " fill="#8A5426" transform="translate(64,110)"/>
<path d="M0 0 C0.99 0.33 1.98 0.66 3 1 C2.67 5.62 2.34 10.24 2 15 C1.67 15 1.34 15 1 15 C0.67 13.02 0.34 11.04 0 9 C-0.66 10.98 -1.32 12.96 -2 15 C-2.33 15 -2.66 15 -3 15 C-3.363 9.198 -2.257 5.36 0 0 Z " fill="#864F22" transform="translate(24,97)"/>
<path d="M0 0 C2.029 3.044 2.414 4.408 2.812 7.938 C2.867 8.365 2.867 8.365 3.145 10.527 C2.967 13.558 1.996 14.777 0 17 C-0.33 15.35 -0.66 13.7 -1 12 C-1.66 12.66 -2.32 13.32 -3 14 C-3.33 13.01 -3.66 12.02 -4 11 C-3.34 11 -2.68 11 -2 11 C-1.939 10.374 -1.879 9.747 -1.816 9.102 C-1.733 8.284 -1.649 7.467 -1.562 6.625 C-1.481 5.813 -1.4 5.001 -1.316 4.164 C-1 2 -1 2 0 0 Z " fill="#8D5426" transform="translate(110,62)"/>
<path d="M0 0 C0.66 0.99 1.32 1.98 2 3 C1.34 3.66 0.68 4.32 0 5 C-0.625 7.125 -0.625 7.125 -1 9 C-1.99 9 -2.98 9 -4 9 C-4 9.66 -4 10.32 -4 11 C-3.34 11.33 -2.68 11.66 -2 12 C-2.99 12.99 -3.98 13.98 -5 15 C-5.99 13.68 -6.98 12.36 -8 11 C-8.66 11.66 -9.32 12.32 -10 13 C-9.812 10.625 -9.812 10.625 -9 8 C-7.336 7.326 -5.669 6.66 -4 6 C-1.688 2.875 -1.688 2.875 0 0 Z " fill="#EBC295" transform="translate(34,50)"/>
<path d="M0 0 C0.33 0.66 0.66 1.32 1 2 C1.99 1.34 2.98 0.68 4 0 C6.688 -0.125 6.688 -0.125 9 0 C7.68 2.31 6.36 4.62 5 7 C4.34 7 3.68 7 3 7 C2.67 7.99 2.34 8.98 2 10 C1.67 10 1.34 10 1 10 C0.67 6.7 0.34 3.4 0 0 Z " fill="#DCA36A" transform="translate(51,105)"/>
<path d="M0 0 C0.33 0 0.66 0 1 0 C1.66 4.62 2.32 9.24 3 14 C2.01 13.67 1.02 13.34 0 13 C-0.688 10.938 -0.688 10.938 -1 9 C-1 10.98 -1 12.96 -1 15 C-1.33 15 -1.66 15 -2 15 C-2.33 10.38 -2.66 5.76 -3 1 C-2.01 1.33 -1.02 1.66 0 2 C0 1.34 0 0.68 0 0 Z " fill="#A77549" transform="translate(22,69)"/>
<path d="M0 0 C1.32 0 2.64 0 4 0 C4 0.66 4 1.32 4 2 C4.99 2 5.98 2 7 2 C6.01 5.63 5.02 9.26 4 13 C0.233 11.117 -0.794 10.309 -3 7 C-1 8 1 9 3 10 C3 8.02 3 6.04 3 4 C2.34 3.67 1.68 3.34 1 3 C1.33 2.34 1.66 1.68 2 1 C1.34 0.67 0.68 0.34 0 0 Z " fill="#824F28" transform="translate(52,30)"/>
<path d="M0 0 C3.297 0.658 5.841 1.894 8.75 3.562 C9.15 3.79 9.15 3.79 11.172 4.941 C11.474 5.116 11.474 5.116 13 6 C12.67 6.165 12.67 6.165 11 7 C10.67 7.66 10.34 8.32 10 9 C2.007 5.833 2.007 5.833 0 3 C0 2.01 0 1.02 0 0 Z " fill="#82502A" transform="translate(30,26)"/>
<path d="M0 0 C0.66 0.33 1.32 0.66 2 1 C0.725 4.931 -0.348 6.982 -4 9 C-6.653 9.813 -9.282 10.411 -12 11 C-9.46 7.462 -8.182 5.976 -4 5 C-2.875 3 -2.875 3 -2 1 C-1.34 0.67 -0.68 0.34 0 0 Z " fill="#D2BCA1" transform="translate(97,158)"/>
<path d="M0 0 C1.32 0.33 2.64 0.66 4 1 C4.33 1.99 4.66 2.98 5 4 C4.34 4 3.68 4 3 4 C2.711 4.578 2.422 5.155 2.125 5.75 C1.083 7.833 0.042 9.917 -1 12 C-1 11.01 -1 10.02 -1 9 C-1.66 9 -2.32 9 -3 9 C-2.01 6.03 -1.02 3.06 0 0 Z " fill="#E1AA70" transform="translate(30,100)"/>
<path d="M0 0 C1.206 2.332 2.165 4.496 3 7 C4.65 7 6.3 7 8 7 C8.33 7.66 8.66 8.32 9 9 C8.01 9.33 7.02 9.66 6 10 C6 10.66 6 11.32 6 12 C5.443 11.691 4.886 11.381 4.312 11.062 C1.875 9.942 -0.362 9.44 -3 9 C-2.34 8.01 -1.68 7.02 -1 6 C-0.61 4.01 -0.268 2.01 0 0 Z " fill="#CC9B69" transform="translate(64,86)"/>
<path d="M0 0 C0.66 0 1.32 0 2 0 C5.077 5.415 5.077 5.415 4.688 8.375 C4.461 8.911 4.234 9.447 4 10 C2.68 9.67 1.36 9.34 0 9 C-0.879 2.848 -0.879 2.848 -1 1 C-0.67 0.67 -0.34 0.34 0 0 Z " fill="#9B622C" transform="translate(64,123)"/>
<path d="M0 0 C0.25 7.625 0.25 7.625 -2 11 C-2.99 11 -3.98 11 -5 11 C-5.366 4.649 -5.366 4.649 -3.625 1.562 C-2 0 -2 0 0 0 Z " fill="#946234" transform="translate(35,104)"/>
<path d="M0 0 C1.5 1.375 1.5 1.375 3 3 C3 3.66 3 4.32 3 5 C3.99 5.33 4.98 5.66 6 6 C6 6.66 6 7.32 6 8 C3.69 8.33 1.38 8.66 -1 9 C-1 9.66 -1 10.32 -1 11 C-0.34 11 0.32 11 1 11 C1.33 12.32 1.66 13.64 2 15 C1.34 15 0.68 15 0 15 C0 14.01 0 13.02 0 12 C-0.99 11.67 -1.98 11.34 -3 11 C-3 10.34 -3 9.68 -3 9 C-3.99 8.67 -4.98 8.34 -6 8 C-3.36 7.67 -0.72 7.34 2 7 C1.34 4.69 0.68 2.38 0 0 Z " fill="#A46C2A" transform="translate(72,151)"/>
<path d="M0 0 C5.595 3.859 7.352 7.408 9 14 C8.34 14.66 7.68 15.32 7 16 C5.828 13.711 4.663 11.419 3.5 9.125 C3.166 8.474 2.832 7.823 2.488 7.152 C0 2.227 0 2.227 0 0 Z " fill="#9B6C46" transform="translate(113,94)"/>
<path d="M0 0 C0.99 0.99 1.98 1.98 3 3 C2.67 3.66 2.34 4.32 2 5 C0.68 4.34 -0.64 3.68 -2 3 C-2 3.66 -2 4.32 -2 5 C-3.32 5.33 -4.64 5.66 -6 6 C-6.33 5.01 -6.66 4.02 -7 3 C-9.31 2.67 -11.62 2.34 -14 2 C-14 1.67 -14 1.34 -14 1 C-13.073 1.012 -12.146 1.023 -11.191 1.035 C-10.593 1.04 -10.593 1.04 -7.562 1.062 C-6.965 1.068 -6.965 1.068 -3.941 1.098 C-1 1 -1 1 0 0 Z " fill="#77431B" transform="translate(113,96)"/>
<path d="M0 0 C5.674 0.617 11.339 1.279 17 2 C11.428 5.714 4.358 4.082 -2 3 C-1.34 2.01 -0.68 1.02 0 0 Z " fill="#EBE0D3" transform="translate(104,154)"/>
<path d="M0 0 C2.155 3.233 2.681 5.169 3 9 C2.67 9.495 2.67 9.495 1 12 C-1.272 9.539 -1.974 8.264 -2.312 4.875 C-2 2 -2 2 0 0 Z " fill="#A36D3B" transform="translate(39,120)"/>
<path d="M0 0 C4.412 0.504 6.75 2.013 10 5 C10.33 5.495 10.33 5.495 12 8 C11.67 8.99 11.34 9.98 11 11 C9 9.625 9 9.625 7 8 C7 7.34 7 6.68 7 6 C5.68 6 4.36 6 3 6 C2.938 5.691 2.938 5.691 2.625 4.125 C2 2 2 2 0 0 Z " fill="#C99966" transform="translate(39,49)"/>
<path d="M0 0 C0.99 0.33 1.98 0.66 3 1 C2.34 1 1.68 1 1 1 C1.474 2.093 1.949 3.186 2.438 4.312 C3.402 6.535 4.232 8.695 5 11 C2.625 11.188 2.625 11.188 0 11 C-2 8 -2 8 -1.688 4.375 C-1 1 -1 1 0 0 Z " fill="#E5B57F" transform="translate(32,131)"/>
<path d="M0 0 C0.495 0.33 0.495 0.33 3 2 C3.99 2 4.98 2 6 2 C5.67 4.31 5.34 6.62 5 9 C4.01 9 3.02 9 2 9 C0.142 5.865 -0.201 3.625 0 0 Z " fill="#9C642F" transform="translate(49,126)"/>
<path d="M0 0 C0.99 0 1.98 0 3 0 C4.354 2.709 4.065 5.009 4 8 C2.68 8.33 1.36 8.66 0 9 C-1.125 2.25 -1.125 2.25 0 0 Z " fill="#975E2B" transform="translate(73,108)"/>
<path d="M0 0 C0.66 0.33 1.32 0.66 2 1 C1.387 3.962 0.746 5.381 -1 8 C-3.31 7.67 -5.62 7.34 -8 7 C-6.68 6.34 -5.36 5.68 -4 5 C-4 4.01 -4 3.02 -4 2 C-2.125 0.938 -2.125 0.938 0 0 Z " fill="#713E19" transform="translate(105,38)"/>
<path d="M0 0 C0.33 0.66 0.66 1.32 1 2 C1.66 2 2.32 2 3 2 C2.67 3.32 2.34 4.64 2 6 C1.385 6.133 0.77 6.266 0.137 6.402 C-0.267 6.491 -0.267 6.491 -2.312 6.938 C-3.113 7.112 -3.914 7.286 -4.738 7.465 C-7 8 -7 8 -10 9 C-10.33 8.01 -10.66 7.02 -11 6 C-10.639 5.948 -10.639 5.948 -8.812 5.688 C-5.723 4.932 -3.604 3.809 -1 2 C-0.67 1.34 -0.34 0.68 0 0 Z " fill="#A1642E" transform="translate(62,98)"/>
<path d="M0 0 C0.33 0.165 0.33 0.165 2 1 C1.67 1.99 1.34 2.98 1 4 C1.99 4.33 2.98 4.66 4 5 C4 5.99 4 6.98 4 8 C4.99 8.33 5.98 8.66 7 9 C7 9.66 7 10.32 7 11 C5.35 11.33 3.7 11.66 2 12 C2 11.01 2 10.02 2 9 C1.34 9 0.68 9 0 9 C0 6.03 0 3.06 0 0 Z " fill="#925C30" transform="translate(21,78)"/>
<path d="M0 0 C-5.899 4.045 -12.073 3.277 -19 3 C-15.793 0.862 -13.821 0.43 -10.062 -0.188 C-9.542 -0.277 -9.542 -0.277 -6.91 -0.73 C-4.228 -0.979 -2.521 -0.856 0 0 Z " fill="#E6D7C5" transform="translate(121,162)"/>
<path d="M0 0 C0.144 0.598 0.289 1.196 0.438 1.812 C0.887 3.562 1.429 5.287 2 7 C1.004 8.824 1.004 8.824 -0.438 10.688 C-0.911 11.31 -1.384 11.933 -1.871 12.574 C-2.244 13.045 -2.616 13.515 -3 14 C-4.148 12.328 -4.148 12.328 -5 10 C-4.102 7.422 -4.102 7.422 -2.625 4.75 C-2.143 3.858 -1.661 2.966 -1.164 2.047 C-0.78 1.371 -0.396 0.696 0 0 Z " fill="#F3E2BF" transform="translate(55,70)"/>
<path d="M0 0 C5.28 0 10.56 0 16 0 C16.33 0.66 16.66 1.32 17 2 C15.545 2.389 14.086 2.761 12.625 3.125 C12.219 3.229 12.219 3.229 10.164 3.758 C9.45 3.838 8.736 3.918 8 4 C7.34 3.34 6.68 2.68 6 2 C4.012 1.602 2.011 1.262 0 1 C0 0.67 0 0.34 0 0 Z M7 4 C7.66 4.66 8.32 5.32 9 6 C8.34 6 7.68 6 7 6 C7 5.34 7 4.68 7 4 Z " fill="#8A6342" transform="translate(60,28)"/>
<path d="M0 0 C-3.075 3.075 -6.899 3.766 -11 5 C-11.748 5.233 -12.495 5.467 -13.266 5.707 C-15.375 6.312 -15.375 6.312 -19 7 C-19.99 6.34 -20.98 5.68 -22 5 C-21.18 4.807 -20.36 4.613 -19.516 4.414 C-18.438 4.154 -17.36 3.893 -16.25 3.625 C-15.716 3.497 -15.716 3.497 -13.016 2.852 C-10 2 -10 2 -7.812 0.906 C-5.205 -0.397 -2.865 -0.13 0 0 Z " fill="#F2E7D9" transform="translate(127,161)"/>
<path d="M0 0 C1.32 0 2.64 0 4 0 C3.443 3.344 2.648 6.033 1 9 C-0.562 7.75 -0.562 7.75 -2 6 C-1.718 3.675 -1.046 2.091 0 0 Z " fill="#E79815" transform="translate(84,160)"/>
<path d="M0 0 C3.483 3.019 4.792 5.569 6 10 C5.01 10.33 4.02 10.66 3 11 C3 11.66 3 12.32 3 13 C2.34 13 1.68 13 1 13 C0.128 10.005 -0.108 7.364 -0.062 4.25 C-0.053 3.451 -0.044 2.652 -0.035 1.828 C-0.024 1.225 -0.012 0.622 0 0 Z " fill="#BC8954" transform="translate(42,137)"/>
<path d="M0 0 C0 2.31 0 4.62 0 7 C-0.66 6.67 -1.32 6.34 -2 6 C-2.33 6.495 -2.33 6.495 -4 9 C-4.99 6.36 -5.98 3.72 -7 1 C-3.375 -1.125 -3.375 -1.125 0 0 Z " fill="#E4AE75" transform="translate(72,107)"/>
<path d="M0 0 C1.771 0.141 3.542 0.288 5.312 0.438 C6.299 0.519 7.285 0.6 8.301 0.684 C11 1 11 1 14 2 C12.875 3.562 12.875 3.562 11 5 C6.609 4.809 3.571 3.52 0 1 C0 0.67 0 0.34 0 0 Z " fill="#814E24" transform="translate(69,95)"/>
<path d="M0 0 C1.096 0.195 2.191 0.389 3.32 0.59 C4.163 0.746 5.006 0.902 5.875 1.062 C2.837 3.439 0.816 4.87 -3.125 5.062 C-5.938 3.75 -5.938 3.75 -8.125 2.062 C-8.125 1.403 -8.125 0.743 -8.125 0.062 C-5.214 -1.393 -3.167 -0.573 0 0 Z " fill="#E7C59F" transform="translate(41.125,80.9375)"/>
<path d="M0 0 C0.33 0 0.66 0 1 0 C1.512 6.401 1.119 9.98 -3 15 C-5.64 14.67 -8.28 14.34 -11 14 C-11 13.67 -11 13.34 -11 13 C-10.453 12.876 -10.453 12.876 -7.688 12.25 C-4 11 -4 11 -2.125 9.312 C-0.637 6.255 -0.323 3.364 0 0 Z " fill="#A8721E" transform="translate(53,66)"/>
<path d="M0 0 C1.986 0.586 3.971 1.172 5.957 1.758 C4.957 3.695 4.957 3.695 2.957 5.758 C0.258 6.423 -2.249 6.575 -5.043 6.758 C-2.683 4.398 -1.264 4.266 1.957 3.758 C-0.353 3.098 -2.663 2.438 -5.043 1.758 C-2.043 -0.242 -2.043 -0.242 0 0 Z " fill="#915819" transform="translate(57.04296875,156.2421875)"/>
<path d="M0 0 C0.66 0 1.32 0 2 0 C2.125 7.75 2.125 7.75 1 10 C0.01 9.67 -0.98 9.34 -2 9 C-2.125 5.625 -2.125 5.625 -2 2 C-1.34 1.34 -0.68 0.68 0 0 Z " fill="#955E2E" transform="translate(41,108)"/>
<path d="M0 0 C0.33 1.98 0.66 3.96 1 6 C0.34 6 -0.32 6 -1 6 C-1 7.32 -1 8.64 -1 10 C-4.29 11.097 -5.713 10.8 -9 10 C-8.34 8.68 -7.68 7.36 -7 6 C-6.175 6.33 -6.175 6.33 -2 8 C-2 6.02 -2 4.04 -2 2 C-2.66 1.67 -3.32 1.34 -4 1 C-2 0 -2 0 0 0 Z " fill="#AF7640" transform="translate(53,92)"/>
<path d="M0 0 C0.629 0.01 0.629 0.01 3.812 0.062 C2.75 2.062 2.75 2.062 0.812 4.062 C-2.875 4.312 -2.875 4.312 -6.188 4.062 C-6.517 3.073 -6.847 2.082 -7.188 1.062 C-4.437 0.146 -2.828 -0.046 0 0 Z " fill="#E7BD8E" transform="translate(91.1875,84.9375)"/>
<path d="M0 0 C0.99 0.66 1.98 1.32 3 2 C2.67 3.65 2.34 5.3 2 7 C1.01 7.33 0.02 7.66 -1 8 C-1.66 8.66 -2.32 9.32 -3 10 C-3.369 3.477 -3.369 3.477 -1.5 1.062 C-1.005 0.712 -0.51 0.361 0 0 Z " fill="#948D85" transform="translate(40,60)"/>
<path d="M0 0 C2.632 2.457 4.781 4.566 6 8 C5.67 8.99 5.34 9.98 5 11 C4.01 11 3.02 11 2 11 C0.613 7.099 0 4.121 0 0 Z " fill="#945B2F" transform="translate(105,45)"/>
<path d="M0 0 C0.99 0.33 1.98 0.66 3 1 C3.312 4.312 3.312 4.312 3 8 C0.5 9.938 0.5 9.938 -2 11 C-1.34 7.37 -0.68 3.74 0 0 Z " fill="#F0C28E" transform="translate(45,107)"/>
<path d="M0 0 C7.431 -0.365 7.431 -0.365 9.75 1.125 C11.56 3.84 11.292 5.963 11.188 9.188 C11.16 10.274 11.133 11.361 11.105 12.48 C11.071 13.312 11.036 14.143 11 15 C10.67 15 10.34 15 10 15 C9.951 14.408 9.902 13.817 9.852 13.207 C9.435 8.809 8.95 5.031 7 1 C4.69 1.33 2.38 1.66 0 2 C0 1.34 0 0.68 0 0 Z " fill="#B0743C" transform="translate(74,101)"/>
<path d="M0 0 C0.99 0 1.98 0 3 0 C5.429 7.429 5.429 7.429 4 11 C3.34 11 2.68 11 2 11 C0.577 7.177 -0.24 4.087 0 0 Z " fill="#8B582A" transform="translate(19,120)"/>
<path d="M0 0 C0.99 0 1.98 0 3 0 C3 0.66 3 1.32 3 2 C3.66 1.67 4.32 1.34 5 1 C7.333 0.96 9.667 0.957 12 1 C12 1.99 12 2.98 12 4 C10.35 4.33 8.7 4.66 7 5 C7 4.34 7 3.68 7 3 C4.36 2.67 1.72 2.34 -1 2 C-0.67 1.34 -0.34 0.68 0 0 Z " fill="#D0955B" transform="translate(31,98)"/>
<path d="M0 0 C2.563 -0.027 5.125 -0.047 7.688 -0.062 C8.409 -0.071 9.13 -0.079 9.873 -0.088 C13.716 -0.105 17.266 0.065 21 1 C19.25 2.562 19.25 2.562 17 4 C14.75 3.688 14.75 3.688 13 3 C13.33 2.67 13.66 2.34 14 2 C11.69 1.835 11.69 1.835 0 1 C0 0.67 0 0.34 0 0 Z " fill="#DBCCB8" transform="translate(52,166)"/>
<path d="M0 0 C0.763 0.557 1.526 1.114 2.312 1.688 C2.312 2.347 2.312 3.007 2.312 3.688 C0.663 3.688 -0.987 3.688 -2.688 3.688 C-2.688 4.678 -2.688 5.667 -2.688 6.688 C-3.347 6.688 -4.008 6.688 -4.688 6.688 C-4.358 5.368 -4.028 4.048 -3.688 2.688 C-4.347 2.357 -5.008 2.028 -5.688 1.688 C-5.688 1.028 -5.688 0.368 -5.688 -0.312 C-2.688 -1.312 -2.688 -1.312 0 0 Z " fill="#B06915" transform="translate(49.6875,154.3125)"/>
<path d="M0 0 C2.908 2.219 4.953 3.93 7 7 C6.67 8.32 6.34 9.64 6 11 C3.69 8.03 1.38 5.06 -1 2 C-0.67 1.34 -0.34 0.68 0 0 Z " fill="#7B4922" transform="translate(124,142)"/>
<path d="M0 0 C2.495 2.495 2.359 3.673 2.625 7.125 C2.7 8.035 2.775 8.945 2.852 9.883 C2.876 10.232 2.876 10.232 3 12 C0 10 0 10 -0.547 8.125 C-0.58 7.774 -0.58 7.774 -0.75 6 C-0.827 5.299 -0.905 4.597 -0.984 3.875 C-1 2 -1 2 0 0 Z " fill="#8A5B35" transform="translate(121,108)"/>
<path d="M0 0 C0.688 1.75 0.688 1.75 1 4 C0.546 4.578 0.093 5.155 -0.375 5.75 C-2.758 9.049 -2.664 11.974 -3 16 C-3.33 16 -3.66 16 -4 16 C-4.995 11.271 -5.592 8.34 -3.125 4.062 C-1 1 -1 1 0 0 Z " fill="#D3B083" transform="translate(73,58)"/>
<path d="M0 0 C3.574 0.496 6.693 1.583 10 3 C10 3.33 10 3.66 10 4 C6.7 4.33 3.4 4.66 0 5 C-0.33 3.68 -0.66 2.36 -1 1 C-0.67 0.67 -0.34 0.34 0 0 Z " fill="#A56E39" transform="translate(33,42)"/>
<path d="M0 0 C4.75 -0.125 4.75 -0.125 7 1 C7 2.32 7 3.64 7 5 C4.69 5 2.38 5 0 5 C-0.33 4.34 -0.66 3.68 -1 3 C-0.67 2.01 -0.34 1.02 0 0 Z " fill="#CB935A" transform="translate(78,153)"/>
<path d="M0 0 C0 2.31 0 4.62 0 7 C-3 8 -3 8 -6 7 C-6 6.34 -6 5.68 -6 5 C-5.34 5 -4.68 5 -4 5 C-4 3.68 -4 2.36 -4 1 C-2 0 -2 0 0 0 Z " fill="#A96C34" transform="translate(56,97)"/>
<path d="M0 0 C0.33 0 0.66 0 1 0 C1.369 6.523 1.369 6.523 -0.5 8.938 C-0.995 9.288 -1.49 9.639 -2 10 C-2.99 9.67 -3.98 9.34 -5 9 C-4.25 4.25 -4.25 4.25 -2 2 C-1.67 3.32 -1.34 4.64 -1 6 C-0.67 4.02 -0.34 2.04 0 0 Z " fill="#73411C" transform="translate(113,80)"/>
<path d="M0 0 C0.248 0.536 0.495 1.073 0.75 1.625 C2.356 4.676 3.798 7.322 6 10 C9.75 10.875 9.75 10.875 13 11 C13 11.33 13 11.66 13 12 C10.375 12.812 10.375 12.812 7 13 C4.005 11.279 1.563 9.126 0 6 C-0.04 4 -0.043 2 0 0 Z " fill="#D79B0A" transform="translate(71,70)"/>
<path d="M0 0 C5.504 -0.324 9.437 -0.533 14 3 C13.67 3.99 13.34 4.98 13 6 C12.763 5.773 12.763 5.773 11.562 4.625 C7.943 2.33 4.177 1.759 0 1 C0 0.67 0 0.34 0 0 Z " fill="#402610" transform="translate(78,58)"/>
<path d="M0 0 C0.33 0.66 0.66 1.32 1 2 C1.66 2.33 2.32 2.66 3 3 C2.34 3.66 1.68 4.32 1 5 C-1.383 4.977 -1.383 4.977 -4.125 4.625 C-5.035 4.514 -5.945 4.403 -6.883 4.289 C-7.581 4.194 -8.28 4.098 -9 4 C-9 3.67 -9 3.34 -9 3 C-6.03 2.01 -3.06 1.02 0 0 Z " fill="#BFA589" transform="translate(61,160)"/>
<path d="M0 0 C1.32 0 2.64 0 4 0 C3.34 1.98 2.68 3.96 2 6 C0.68 6 -0.64 6 -2 6 C-1.125 1.125 -1.125 1.125 0 0 Z " fill="#F8A50B" transform="translate(78,160)"/>
<path d="M0 0 C0.66 0.33 1.32 0.66 2 1 C1.67 2.65 1.34 4.3 1 6 C-0.65 6 -2.3 6 -4 6 C-4 5.01 -4 4.02 -4 3 C-2 1.312 -2 1.312 0 0 Z " fill="#AC7644" transform="translate(99,152)"/>
<path d="M0 0 C0.66 0.33 1.32 0.66 2 1 C2.369 7.4 2.369 7.4 0.5 10.438 C0.005 10.953 -0.49 11.469 -1 12 C-2.117 7.31 -1.806 4.462 0 0 Z " fill="#7B4B22" transform="translate(122,131)"/>
<path d="M0 0 C0.66 0.99 1.32 1.98 2 3 C2.99 3.33 3.98 3.66 5 4 C5.33 5.65 5.66 7.3 6 9 C2.665 7.62 0.814 6.15 -1 3 C-0.67 2.01 -0.34 1.02 0 0 Z " fill="#5E3314" transform="translate(25,133)"/>
<path d="M0 0 C0.66 0 1.32 0 2 0 C2.33 2.97 2.66 5.94 3 9 C2.01 8.67 1.02 8.34 0 8 C-0.381 5.674 -0.713 3.339 -1 1 C-0.67 0.67 -0.34 0.34 0 0 Z " fill="#B07C4A" transform="translate(29,118)"/>
<path d="M0 0 C0.99 0.33 1.98 0.66 3 1 C1.375 3 1.375 3 -1 5 C-4.25 5.25 -4.25 5.25 -7 5 C-6.34 3.68 -5.68 2.36 -5 1 C-4.67 1.66 -4.34 2.32 -4 3 C-3.402 2.484 -2.804 1.969 -2.188 1.438 C-1.466 0.963 -0.744 0.489 0 0 Z " fill="#572C0C" transform="translate(108,91)"/>
<path d="M0 0 C0 0.99 0 1.98 0 3 C-0.313 3.066 -0.313 3.066 -1.898 3.402 C-2.307 3.491 -2.307 3.491 -4.375 3.938 C-5.187 4.112 -5.999 4.286 -6.836 4.465 C-9 5 -9 5 -11 6 C-11 3 -11 3 -9.438 1.312 C-6.194 -0.434 -3.627 -0.209 0 0 Z " fill="#D0A36F" transform="translate(85,55)"/>
<path d="M0 0 C0.802 0.052 1.604 0.104 2.43 0.158 C4.412 0.288 6.393 0.425 8.375 0.562 C8.375 0.893 8.375 1.222 8.375 1.562 C5.584 1.784 2.793 1.99 0 2.188 C-0.794 2.252 -1.588 2.316 -2.406 2.383 C-4.475 2.523 -6.551 2.55 -8.625 2.562 C-9.285 1.903 -9.945 1.243 -10.625 0.562 C-7.297 -1.102 -3.628 -0.256 0 0 Z " fill="#CFB9A2" transform="translate(59.625,164.4375)"/>
<path d="M0 0 C1.32 0 2.64 0 4 0 C4.99 2.31 5.98 4.62 7 7 C4.085 5.926 2.222 5.222 0 3 C0 2.01 0 1.02 0 0 Z " fill="#D49B64" transform="translate(38,146)"/>
<path d="M0 0 C0.99 0 1.98 0 3 0 C5.458 3.687 6.012 6.697 7 11 C4.044 8.248 1.884 5.58 0 2 C0 1.34 0 0.68 0 0 Z " fill="#9F652F" transform="translate(52,139)"/>
<path d="M0 0 C1.32 0.99 2.64 1.98 4 3 C3.67 4.32 3.34 5.64 3 7 C1.35 6.67 -0.3 6.34 -2 6 C-1.34 4.02 -0.68 2.04 0 0 Z " fill="#A36832" transform="translate(88,141)"/>
<path d="M0 0 C0.699 0.084 1.397 0.168 2.117 0.254 C3.027 0.356 3.937 0.458 4.875 0.562 C5.78 0.667 6.685 0.771 7.617 0.879 C10 1 10 1 12 0 C12.33 0.99 12.66 1.98 13 3 C10.69 3.33 8.38 3.66 6 4 C6 3.34 6 2.68 6 2 C3.69 2.33 1.38 2.66 -1 3 C-0.67 2.01 -0.34 1.02 0 0 Z " fill="#AF7E4D" transform="translate(35,92)"/>
<path d="M0 0 C0 0.33 0 0.66 0 1 C-1.746 1.533 -3.497 2.051 -5.25 2.562 C-6.225 2.853 -7.199 3.143 -8.203 3.441 C-10.962 3.992 -12.391 3.938 -15 3 C-9.636 0.318 -5.99 -0.315 0 0 Z " fill="#E5D6C4" transform="translate(102,165)"/>
<path d="M0 0 C1.98 0.66 3.96 1.32 6 2 C5.01 3.65 4.02 5.3 3 7 C2.01 6.67 1.02 6.34 0 6 C-0.382 4.344 -0.714 2.675 -1 1 C-0.67 0.67 -0.34 0.34 0 0 Z " fill="#955825" transform="translate(91,156)"/>
<path d="M0 0 C0.66 0.33 1.32 0.66 2 1 C1.01 4.63 0.02 8.26 -1 12 C-1.33 12 -1.66 12 -2 12 C-2.286 3.429 -2.286 3.429 0 0 Z " fill="#C1854B" transform="translate(28,98)"/>
<path d="M0 0 C0.66 0 1.32 0 2 0 C1.67 2.31 1.34 4.62 1 7 C-0.32 6.67 -1.64 6.34 -3 6 C-1.125 1.125 -1.125 1.125 0 0 Z " fill="#FAC038" transform="translate(59,76)"/>
<path d="M0 0 C-0.536 0.248 -1.072 0.495 -1.625 0.75 C-4 2 -4 2 -7.125 4.125 C-10 6 -10 6 -12 6 C-11.053 3.632 -10.347 2.248 -8.25 0.75 C-5.422 -0.193 -2.96 -0.135 0 0 Z " fill="#C58918" transform="translate(46,58)"/>
<path d="M0 0 C1.75 1.562 1.75 1.562 3 3 C-0.479 4.16 -1.342 3.775 -4.688 2.562 C-5.496 2.275 -6.304 1.988 -7.137 1.691 C-7.752 1.463 -8.366 1.235 -9 1 C-9 0.67 -9 0.34 -9 0 C-5.655 -0.836 -3.249 -1.299 0 0 Z " fill="#DDB17E" transform="translate(89,56)"/>
<path d="M0 0 C0.99 0.33 1.98 0.66 3 1 C3.33 2.98 3.66 4.96 4 7 C2.68 6.67 1.36 6.34 0 6 C0.33 5.34 0.66 4.68 1 4 C-0.32 3.34 -1.64 2.68 -3 2 C-2.01 1.34 -1.02 0.68 0 0 Z " fill="#D7A774" transform="translate(38,48)"/>
<path d="M0 0 C0 0.99 0 1.98 0 3 C3.63 3.33 7.26 3.66 11 4 C11 4.33 11 4.66 11 5 C8.69 5.33 6.38 5.66 4 6 C4 5.67 4 5.34 4 5 C3.051 4.711 2.102 4.423 1.125 4.125 C-2 3 -2 3 -4 1 C-2 0 -2 0 0 0 Z " fill="#C7BBA5" transform="translate(38,162)"/>
<path d="M0 0 C0 0.66 0 1.32 0 2 C0.99 2.33 1.98 2.66 3 3 C3 3.66 3 4.32 3 5 C-0.146 5.262 -1.618 5.248 -4.312 3.5 C-4.869 3.005 -5.426 2.51 -6 2 C-3 0 -3 0 0 0 Z " fill="#684021" transform="translate(110,151)"/>
<path d="M0 0 C1.65 0.33 1.65 0.33 10 2 C10.33 2.99 10.66 3.98 11 5 C7.75 5.312 7.75 5.312 4 5 C1.562 2.5 1.562 2.5 0 0 Z " fill="#8B603B" transform="translate(118,150)"/>
<path d="M0 0 C2 3 2 3 2 5 C3.98 3.35 5.96 1.7 8 0 C7.25 2.938 7.25 2.938 6 6 C3.875 6.875 3.875 6.875 2 7 C0 4 0 4 0 0 Z " fill="#7D4014" transform="translate(56,85)"/>
<path d="M0 0 C2.059 -0.398 2.059 -0.398 4.438 -0.375 C5.22 -0.383 6.002 -0.39 6.809 -0.398 C9.443 0.081 10.326 0.966 12 3 C9 3 9 3 6.125 2.438 C3.048 2.007 0.976 2.212 -2 3 C-1.34 2.01 -0.68 1.02 0 0 Z " fill="#BB710C" transform="translate(78,60)"/>
<path d="M0 0 C0.33 0.66 0.66 1.32 1 2 C1.99 2.33 2.98 2.66 4 3 C3.34 3 2.68 3 2 3 C2 3.99 2 4.98 2 6 C0.35 6.66 -1.3 7.32 -3 8 C-3.66 7.34 -4.32 6.68 -5 6 C-3.35 5.34 -1.7 4.68 0 4 C-0.66 3.01 -1.32 2.02 -2 1 C-1.34 0.67 -0.68 0.34 0 0 Z " fill="#ECCA9F" transform="translate(97,85)"/>
<path d="M0 0 C1.98 1.65 3.96 3.3 6 5 C5.67 5.66 5.34 6.32 5 7 C4.464 6.526 3.928 6.051 3.375 5.562 C0.572 3.718 -1.696 3.375 -5 3 C-4.361 2.691 -3.721 2.381 -3.062 2.062 C-1 1 -1 1 0 0 Z " fill="#734413" transform="translate(47,57)"/>
<path d="M0 0 C0.949 0.351 1.897 0.701 2.875 1.062 C6 2 6 2 8 1 C7.34 2.32 6.68 3.64 6 5 C4.35 5 2.7 5 1 5 C0.67 3.35 0.34 1.7 0 0 Z " fill="#9B6331" transform="translate(101,147)"/>
<path d="M0 0 C1.32 0.33 2.64 0.66 4 1 C2.719 2.707 1.382 4.374 0 6 C-0.66 6 -1.32 6 -2 6 C-2.33 4.68 -2.66 3.36 -3 2 C-2.01 2 -1.02 2 0 2 C0 1.34 0 0.68 0 0 Z " fill="#D77807" transform="translate(60,84)"/>
<path d="M0 0 C0.66 0.33 1.32 0.66 2 1 C1.67 2.32 1.34 3.64 1 5 C-2 5 -2 5 -5 4 C-4.01 3.67 -3.02 3.34 -2 3 C-2 2.34 -2 1.68 -2 1 C-1.34 0.67 -0.68 0.34 0 0 Z " fill="#180E02" transform="translate(89,72)"/>
<path d="M0 0 C0.75 1.75 0.75 1.75 1 4 C-0.938 6.25 -0.938 6.25 -3 8 C-3.99 7.34 -4.98 6.68 -6 6 C-5.196 5.752 -4.391 5.505 -3.562 5.25 C-1 4 -1 4 -0.188 1.875 C-0.126 1.256 -0.064 0.637 0 0 Z " fill="#8E592F" transform="translate(97,31)"/>
<path d="M0 0 C4 4.75 4 4.75 4 7 C2.625 8.625 2.625 8.625 1 10 C0.34 10 -0.32 10 -1 10 C-0.835 9.093 -0.67 8.185 -0.5 7.25 C0 4 0 4 0 0 Z " fill="#D8A46D" transform="translate(54,144)"/>
<path d="M0 0 C1.32 0.66 2.64 1.32 4 2 C4 2.66 4 3.32 4 4 C1.36 4.33 -1.28 4.66 -4 5 C-2.68 4.34 -1.36 3.68 0 3 C0 2.01 0 1.02 0 0 Z " fill="#5E3110" transform="translate(106,125)"/>
<path d="M0 0 C0.33 0.99 0.66 1.98 1 3 C1.66 3 2.32 3 3 3 C3.66 4.32 4.32 5.64 5 7 C3.68 7.33 2.36 7.66 1 8 C-0.354 5.291 -0.065 2.991 0 0 Z " fill="#A16B38" transform="translate(62,112)"/>
<path d="M0 0 C0.66 0 1.32 0 2 0 C2 2.64 2 5.28 2 8 C1.67 8.165 1.67 8.165 0 9 C0 7.35 0 5.7 0 4 C-0.66 3.67 -1.32 3.34 -2 3 C-1.34 2.01 -0.68 1.02 0 0 Z " fill="#A06A3A" transform="translate(33,104)"/>
<path d="M0 0 C1.32 0 2.64 0 4 0 C4 0.66 4 1.32 4 2 C4.99 2.33 5.98 2.66 7 3 C6.34 3.66 5.68 4.32 5 5 C4.175 4.67 4.175 4.67 0 3 C0 2.01 0 1.02 0 0 Z " fill="#A26633" transform="translate(28,90)"/>
<path d="M0 0 C1.32 0 2.64 0 4 0 C4.688 1.75 4.688 1.75 5 4 C3.562 6.25 3.562 6.25 2 8 C1.34 5.36 0.68 2.72 0 0 Z " fill="#77512D" transform="translate(103,28)"/>
<path d="M0 0 C1.65 0 3.3 0 5 0 C4.188 1.938 4.188 1.938 3 4 C2.01 4.33 1.02 4.66 0 5 C-0.66 4.67 -1.32 4.34 -2 4 C-1.34 2.68 -0.68 1.36 0 0 Z " fill="#DC8E0E" transform="translate(38,156)"/>
<path d="M0 0 C0.33 0 0.66 0 1 0 C1.25 1.434 1.474 2.873 1.688 4.312 C1.815 5.113 1.943 5.914 2.074 6.738 C2 9 2 9 0.52 10.793 C0.018 11.191 -0.483 11.59 -1 12 C-1.33 10.02 -1.66 8.04 -2 6 C-1.34 6 -0.68 6 0 6 C0 4.02 0 2.04 0 0 Z " fill="#A06A39" transform="translate(122,123)"/>
<path d="M0 0 C0.66 0 1.32 0 2 0 C2.66 1.98 3.32 3.96 4 6 C2.333 6 0.667 6 -1 6 C-1.043 4.334 -1.041 2.666 -1 1 C-0.67 0.67 -0.34 0.34 0 0 Z " fill="#B47A45" transform="translate(64,123)"/>
<path d="M0 0 C0.33 0 0.66 0 1 0 C1 1.98 1 3.96 1 6 C0.34 6.33 0.34 6.33 -3 8 C-2.25 2.25 -2.25 2.25 0 0 Z " fill="#A9703D" transform="translate(51,110)"/>
<path d="M0 0 C1.32 0 2.64 0 4 0 C3.25 4.75 3.25 4.75 1 7 C0.67 4.69 0.34 2.38 0 0 Z " fill="#EAB781" transform="translate(47,107)"/>
<path d="M0 0 C0.99 0.165 0.99 0.165 6 1 C5.67 1.495 5.67 1.495 4 4 C3.01 4 2.02 4 1 4 C0.67 4.66 0.34 5.32 0 6 C-0.66 5.67 -1.32 5.34 -2 5 C-1.34 3.35 -0.68 1.7 0 0 Z " fill="#AB794C" transform="translate(25,88)"/>
<path d="M0 0 C2 3 2 3 2 6 C1.196 6.124 0.391 6.248 -0.438 6.375 C-0.86 6.478 -0.86 6.478 -3 7 C-3.33 7.66 -3.66 8.32 -4 9 C-4 8.01 -4 7.02 -4 6 C-3.34 6 -2.68 6 -2 6 C-1.34 4.02 -0.68 2.04 0 0 Z " fill="#A8713F" transform="translate(103,82)"/>
<path d="M0 0 C2.438 0.75 2.438 0.75 5 2 C5.812 4.125 5.812 4.125 6 6 C3.562 5.25 3.562 5.25 1 4 C0.188 1.875 0.188 1.875 0 0 Z " fill="#D4A26C" transform="translate(47,150)"/>
<path d="M0 0 C1.32 0 2.64 0 4 0 C3.67 2.97 3.34 5.94 3 9 C2.67 9 2.34 9 2 9 C1.34 6.03 0.68 3.06 0 0 Z " fill="#B57C47" transform="translate(104,61)"/>
<path d="M0 0 C2.31 0 4.62 0 7 0 C6.188 1.937 6.188 1.937 5 4 C4.01 4.33 3.02 4.66 2 5 C1.34 3.35 0.68 1.7 0 0 Z " fill="#160F09" transform="translate(41,60)"/>
<path d="M0 0 C0.66 0.66 1.32 1.32 2 2 C1.01 2.99 0.02 3.98 -1 5 C-2.32 4.34 -3.64 3.68 -5 3 C-3.35 2.01 -1.7 1.02 0 0 Z " fill="#926336" transform="translate(105,38)"/>
<path d="M0 0 C0.99 0.33 1.98 0.66 3 1 C2.67 2.32 2.34 3.64 2 5 C1.01 5 0.02 5 -1 5 C-0.67 3.35 -0.34 1.7 0 0 Z " fill="#49321C" transform="translate(69,162)"/>
<path d="M0 0 C0.99 0 1.98 0 3 0 C3.33 1.65 3.66 3.3 4 5 C3.01 5.33 2.02 5.66 1 6 C0.67 4.02 0.34 2.04 0 0 Z " fill="#E89208" transform="translate(47,158)"/>
<path d="M0 0 C0.66 0.33 1.32 0.66 2 1 C1.34 2.32 0.68 3.64 0 5 C-0.99 5 -1.98 5 -3 5 C-2.625 3.062 -2.625 3.062 -2 1 C-1.34 0.67 -0.68 0.34 0 0 Z " fill="#C9AA88" transform="translate(97,158)"/>
<path d="M0 0 C0.99 0.33 1.98 0.66 3 1 C2.34 2.32 1.68 3.64 1 5 C-0.32 4.67 -1.64 4.34 -3 4 C-2.67 3.01 -2.34 2.02 -2 1 C-1.34 0.67 -0.68 0.34 0 0 Z " fill="#D9A46C" transform="translate(69,147)"/>
<path d="M0 0 C0.33 0.66 0.66 1.32 1 2 C1.99 1.67 2.98 1.34 4 1 C3.67 2.98 3.34 4.96 3 7 C2.01 6.34 1.02 5.68 0 5 C-0.188 2.375 -0.188 2.375 0 0 Z " fill="#8E5A28" transform="translate(38,125)"/>
<path d="M0 0 C0.495 0.33 0.495 0.33 3 2 C2.67 3.65 2.34 5.3 2 7 C1.34 7 0.68 7 0 7 C0 4.69 0 2.38 0 0 Z " fill="#A86D37" transform="translate(78,120)"/>
<path d="M0 0 C0.66 0.33 0.66 0.33 4 2 C3.67 3.98 3.34 5.96 3 8 C1.5 6.812 1.5 6.812 0 5 C-0.188 2.312 -0.188 2.312 0 0 Z " fill="#8E5724" transform="translate(49,115)"/>
<path d="M0 0 C1.98 0 3.96 0 6 0 C5.34 1.65 4.68 3.3 4 5 C3.34 4.67 2.68 4.34 2 4 C2 3.34 2 2.68 2 2 C1.34 2 0.68 2 0 2 C0 1.34 0 0.68 0 0 Z " fill="#965D2C" transform="translate(82,100)"/>
<path d="M0 0 C1.98 0.33 1.98 0.33 12 2 C12 2.33 12 2.66 12 3 C8.7 3.33 5.4 3.66 2 4 C1.34 2.68 0.68 1.36 0 0 Z " fill="#DDBF93" transform="translate(35,80)"/>
<path d="M0 0 C1.938 0.75 1.938 0.75 4 2 C4.75 4.125 4.75 4.125 5 6 C4.34 6 3.68 6 3 6 C2.67 4.68 2.34 3.36 2 2 C0.35 2 -1.3 2 -3 2 C-2.01 1.34 -1.02 0.68 0 0 Z " fill="#EEC899" transform="translate(101,71)"/>
<path d="M0 0 C0.66 0.165 0.66 0.165 4 1 C3.67 1.99 3.34 2.98 3 4 C1.68 4 0.36 4 -1 4 C-0.67 2.68 -0.34 1.36 0 0 Z " fill="#EAEAE4" transform="translate(78,64)"/>
<path d="M0 0 C0.931 2.606 1.149 3.642 0.062 6.25 C-0.113 6.539 -0.113 6.539 -1 8 C-1.66 8 -2.32 8 -3 8 C-2.453 4.625 -1.945 2.918 0 0 Z " fill="#9E7045" transform="translate(24,55)"/>
<path d="M0 0 C-2.052 2.248 -3.007 3.002 -6 4 C-6.66 3.34 -7.32 2.68 -8 2 C-4.772 -0.152 -3.716 -0.201 0 0 Z " fill="#EFD1AB" transform="translate(39,47)"/>
<path d="M0 0 C1.315 0.282 2.627 0.576 3.938 0.875 C4.668 1.037 5.399 1.2 6.152 1.367 C8 2 8 2 9 4 C6.75 4.25 6.75 4.25 4 4 C1.688 2 1.688 2 0 0 Z " fill="#4F2C13" transform="translate(40,43)"/>
<path d="M0 0 C0.66 0 1.32 0 2 0 C2.33 0.99 2.66 1.98 3 3 C1.845 3.495 1.845 3.495 -4 6 C-2.848 3.532 -1.952 1.952 0 0 Z " fill="#4A270D" transform="translate(102,36)"/>
<path d="M0 0 C-3 2 -3 2 -5.125 2.438 C-5.744 2.623 -6.362 2.809 -7 3 C-7.33 3.99 -7.66 4.98 -8 6 C-8.33 4.68 -8.66 3.36 -9 2 C-5.865 0.142 -3.625 -0.201 0 0 Z " fill="#A46A34" transform="translate(77,30)"/>
</svg>
