<?xml version="1.0" encoding="UTF-8"?>
<!-- Generator: visioncortex VTracer 0.6.12 -->
<svg version="1.1" xmlns="http://www.w3.org/2000/svg" width="162" height="165">
<path d="M0 0 C53.46 0 106.92 0 162 0 C162 54.45 162 108.9 162 165 C108.54 165 55.08 165 0 165 C0 110.55 0 56.1 0 0 Z " fill="#B2A495" transform="translate(0,0)"/>
<path d="M0 0 C53.46 0 106.92 0 162 0 C162 54.45 162 108.9 162 165 C108.54 165 55.08 165 0 165 C0 151.47 0 137.94 0 124 C7.077 124 7.077 124 12 127 C15.375 127.398 15.375 127.398 19 127.375 C20.196 127.383 21.392 127.39 22.625 127.398 C26.848 126.9 29.559 125.567 32.438 122.438 C34.669 120.384 37.125 119.83 40 119 C42.205 124.439 43.261 130.133 43 136 C41.062 138.813 41.062 138.813 39 141 C38.75 144.312 38.75 144.312 39 147 C42.59 148.197 45.59 148.205 49.375 148.25 C50.682 148.276 51.989 148.302 53.336 148.328 C57.206 147.982 59.136 147.628 62 145 C62.418 142.18 62.418 142.18 62.188 138.875 C61.95 133.132 62.5 128.532 64 123 C66.31 123 68.62 123 71 123 C71.108 125.73 71.187 128.456 71.25 131.188 C71.284 131.956 71.317 132.725 71.352 133.518 C71.442 138.765 70.682 141.03 67 145 C66.75 148.312 66.75 148.312 67 151 C70.961 152.862 74.137 153.27 78.5 153.25 C79.603 153.255 80.707 153.26 81.844 153.266 C85.057 152.995 87.216 152.629 90 151 C90.926 148.836 90.926 148.836 91.312 146.375 C91.453 145.558 91.594 144.74 91.738 143.898 C91.825 143.272 91.911 142.645 92 142 C93.06 141.963 94.119 141.925 95.211 141.887 C96.599 141.821 97.987 141.755 99.375 141.688 C100.074 141.665 100.772 141.642 101.492 141.619 C103.523 141.512 103.523 141.512 107 141 C109.396 137.405 109.593 134.304 110 130.125 C110.896 121.016 110.896 121.016 113 117 C115.125 116.188 115.125 116.188 117 116 C119.527 121.686 119.792 127.883 119 134 C117.492 136.164 117.492 136.164 116 138 C115.812 141.25 115.812 141.25 116 144 C119.684 145.145 123.221 145.202 127.062 145.25 C128.291 145.276 129.519 145.302 130.785 145.328 C134 145 134 145 135.895 143.984 C137.649 140.834 137.537 137.522 137.625 134 C137.899 126.303 137.899 126.303 139 123 C139.128 120.814 139.228 118.626 139.312 116.438 C139.717 109.952 141.126 104.8 144 99 C147.473 101.927 147.659 104.612 148.277 108.941 C149 111 149 111 151.066 112.277 C151.704 112.516 152.343 112.754 153 113 C153.3 109.945 153.43 107.046 153 104 C150.562 101.125 150.562 101.125 148 99 C147.03 96.09 146.796 93.921 146.641 90.879 C145.579 73.178 143.29 60.617 129.836 47.965 C119.753 39.574 110.668 38.475 97.922 39.332 C90.929 39.592 86.833 38.408 81.059 34.406 C76.14 31.047 71.039 32.142 65.348 32.453 C62 32 62 32 59.793 29.535 C59.201 28.699 58.61 27.862 58 27 C54.25 26.188 54.25 26.188 51 26 C50.903 26.307 50.903 26.307 50.414 27.863 C50.154 28.672 49.893 29.48 49.625 30.312 C49.497 30.713 49.497 30.713 48.852 32.738 C47.493 36.347 46.462 37.783 42.938 39.438 C42.323 39.68 41.708 39.922 41.074 40.172 C37.998 41.4 35.016 42.83 32.016 44.23 C30 45 30 45 27 45 C26.711 43.907 26.422 42.814 26.125 41.688 C25 38 25 38 23 35 C22.606 32.676 22.265 30.342 22 28 C20.35 27.67 18.7 27.34 17 27 C12.026 32.968 10.534 36.593 10.68 44.363 C11.116 47.959 12.232 49.693 15 52 C17.25 52.813 17.25 52.813 19 53 C18.504 55.23 17.909 57.21 17 59.312 C16 62 16 62 15.688 65.625 C15.461 66.739 15.234 67.853 15 69 C14.175 69.454 13.35 69.907 12.5 70.375 C10 72 10 72 9.449 74.176 C9.212 76.456 9.053 78.708 9 81 C7.68 81 6.36 81 5 81 C-13.327 61.102 0 27.051 0 0 Z " fill="#FCF7F0" transform="translate(0,0)"/>
<path d="M0 0 C1.32 0.66 2.64 1.32 4 2 C4.33 2 4.66 2 5 2 C5 7.28 5 12.56 5 18 C8.375 10.125 8.375 10.125 9.188 6.562 C9.456 5.387 9.724 4.211 10 3 C10.33 3 10.66 3 11 3 C11.699 9.991 9.685 15.32 7.191 21.828 C6.288 24.233 5.539 26.498 5 29 C8.04 25.351 9.965 21.256 12 17 C12.33 17 12.66 17 13 17 C13.201 20.625 12.858 22.865 11 26 C11.99 25.67 12.98 25.34 14 25 C14 25.66 14 26.32 14 27 C13.361 27.474 12.721 27.949 12.062 28.438 C10 30 10 30 9 33 C9.949 32.67 10.897 32.34 11.875 32 C17.818 30.325 23.646 30.101 29.438 32.312 C31.604 33.739 33.318 35.038 35 37 C35 34.36 35 31.72 35 29 C35.66 29.33 36.32 29.66 37 30 C37.66 24.39 38.32 18.78 39 13 C39.33 13 39.66 13 40 13 C40.76 31.193 40.76 31.193 36 40 C35.332 41.333 34.665 42.666 34 44 C41.234 42.833 47.192 40.589 53 36 C54.285 33.805 54.285 33.805 55 32 C55.66 32 56.32 32 57 32 C57.103 31.464 57.206 30.927 57.312 30.375 C58.181 27.375 59.582 24.777 61 22 C61.33 21.01 61.66 20.02 62 19 C63.32 19 64.64 19 66 19 C66.472 25.255 65.227 29.628 62.965 35.449 C61.492 39.343 60.373 42.413 61.938 46.375 C62.288 46.911 62.639 47.447 63 48 C63.99 47.67 64.98 47.34 66 47 C65.691 47.578 65.381 48.155 65.062 48.75 C64.074 50.843 63.483 52.745 63 55 C61.35 55 59.7 55 58 55 C58 56.65 58 58.3 58 60 C58.66 60.33 59.32 60.66 60 61 C59.68 61.113 59.68 61.113 58.062 61.688 C56 63 56 63 55.312 65.438 C55.209 66.283 55.106 67.129 55 68 C54.835 68.495 54.835 68.495 54 71 C55.65 71 57.3 71 59 71 C59.33 69.35 59.66 67.7 60 66 C60.66 66.33 61.32 66.66 62 67 C61.67 68.32 61.34 69.64 61 71 C62.299 70.876 63.599 70.752 64.938 70.625 C65.668 70.555 66.399 70.486 67.152 70.414 C67.762 70.277 68.372 70.141 69 70 C69.33 69.34 69.66 68.68 70 68 C69.625 69.937 69.625 69.937 69 72 C66.073 73.463 63.445 73.17 60.188 73.188 C58.964 73.202 57.741 73.216 56.48 73.23 C53.173 73.011 50.961 72.427 48 71 C47.622 65.463 47.622 65.463 49.496 63.164 C51.463 60.334 51.337 58.54 51.25 55.125 C51.224 54.071 51.198 53.016 51.172 51.93 C50.994 48.895 50.66 45.97 50 43 C46.235 44.474 46.235 44.474 45.207 46.777 C45.077 47.49 44.947 48.203 44.812 48.938 C44.663 49.734 44.513 50.531 44.359 51.352 C43.856 55.063 43.609 58.778 43.441 62.52 C42.892 65.606 42.382 66.929 40 69 C37.288 69.296 35.003 69.381 32.312 69.25 C31.611 69.232 30.909 69.214 30.186 69.195 C28.456 69.148 26.728 69.077 25 69 C25.019 69.553 25.019 69.553 25.113 72.352 C25 76 25 76 23.188 78.375 C19.415 81.177 16.195 81.161 11.625 81.188 C10.504 81.202 9.382 81.216 8.227 81.23 C4.823 80.987 1.51 80.51 -1 78 C-1.312 75.25 -1.312 75.25 -1 72 C-0.675 71.645 -0.675 71.645 0.973 69.848 C3.733 65.97 3.664 62.837 3.75 58.188 C3.765 57.793 3.765 57.793 3.84 55.799 C3.91 53.866 3.957 51.933 4 50 C1.69 50 -0.62 50 -3 50 C-4.08 63.728 -4.08 63.728 -3.875 68.688 C-4 72 -4 72 -5.312 73.938 C-9.166 76.364 -13.051 76.183 -17.438 76.188 C-18.756 76.202 -20.075 76.216 -21.434 76.23 C-24.655 76.022 -26.339 75.722 -29 74 C-29.25 71.312 -29.25 71.312 -29 68 C-28.66 67.639 -28.66 67.639 -26.938 65.812 C-24.295 61.976 -24.973 59.037 -25.75 54.688 C-25.863 53.947 -25.977 53.206 -26.094 52.443 C-26.375 50.626 -26.685 48.812 -27 47 C-31.578 48.863 -34.629 50.388 -38 54 C-41.447 55.149 -44.244 55.204 -47.875 55.25 C-49.089 55.276 -50.304 55.302 -51.555 55.328 C-55.264 54.975 -56.949 54.032 -60 52 C-63.812 51.312 -63.812 51.312 -67 51 C-67 50.34 -67 49.68 -67 49 C-66.667 49.008 -66.667 49.008 -64.984 49.048 C-61.948 49.11 -58.912 49.149 -55.875 49.188 C-55.352 49.2 -55.352 49.2 -52.703 49.264 C-47.088 49.317 -42.78 49.34 -38 46 C-37.67 45.299 -37.34 44.597 -37 43.875 C-36.67 43.256 -36.34 42.638 -36 42 C-32.875 41.25 -32.875 41.25 -30 41 C-29.34 39.02 -28.68 37.04 -28 35 C-26 38.75 -26 38.75 -26 41 C-25.01 41 -24.02 41 -23 41 C-23 40.01 -23 39.02 -23 38 C-18.933 35.874 -15.43 34.286 -10.875 33.75 C-9 33 -9 33 -8 30.812 C-7.67 29.884 -7.34 28.956 -7 28 C-5 24.688 -5 24.688 -3 22 C-2.34 22 -1.68 22 -1 22 C-0.67 14.74 -0.34 7.48 0 0 Z " fill="#7B6D5D" transform="translate(67,73)"/>
<path d="M0 0 C2.553 3.13 2.339 4.379 1.938 8.375 C0.945 11.264 -0.32 14.023 -1.562 16.812 C-4.758 24.351 -5.67 30.215 -4.918 38.336 C-5.062 41.375 -5.062 41.375 -6.863 43.727 C-10.636 46.555 -13.853 46.536 -18.438 46.562 C-19.559 46.577 -20.68 46.591 -21.836 46.605 C-25.24 46.362 -28.553 45.885 -31.062 43.375 C-31.375 40.625 -31.375 40.625 -31.062 37.375 C-30.41 36.663 -29.758 35.952 -29.086 35.219 C-26.334 31.352 -26.434 28.259 -26.375 23.625 C-26.152 15.465 -26.152 15.465 -25.062 14.375 C-24.957 12.96 -24.878 11.543 -24.812 10.125 C-24.44 6.579 -24.109 5.44 -21.938 2.438 C-15.66 -2.066 -6.976 -3.702 0 0 Z " fill="#AB9C8C" transform="translate(97.0625,107.625)"/>
<path d="M0 0 C0.33 0 0.66 0 1 0 C1.76 18.193 1.76 18.193 -3 27 C-3.668 28.333 -4.335 29.666 -5 31 C2.234 29.833 8.192 27.589 14 23 C15.285 20.805 15.285 20.805 16 19 C16.66 19 17.32 19 18 19 C18.052 18.732 18.052 18.732 18.312 17.375 C19.181 14.375 20.582 11.777 22 9 C22.33 8.01 22.66 7.02 23 6 C24.32 6 25.64 6 27 6 C27.472 12.255 26.227 16.628 23.965 22.449 C22.492 26.343 21.373 29.413 22.938 33.375 C23.288 33.911 23.639 34.447 24 35 C24.99 34.67 25.98 34.34 27 34 C26.691 34.578 26.381 35.155 26.062 35.75 C25.074 37.843 24.483 39.745 24 42 C22.35 42 20.7 42 19 42 C19 43.65 19 45.3 19 47 C19.33 47.165 19.33 47.165 21 48 C20.68 48.113 20.68 48.113 19.062 48.688 C17 50 17 50 16.312 52.438 C16.209 53.283 16.106 54.129 16 55 C15.67 55.99 15.34 56.98 15 58 C16.65 58 18.3 58 20 58 C20.33 56.35 20.66 54.7 21 53 C21.33 53.165 21.33 53.165 23 54 C22.67 55.32 22.34 56.64 22 58 C23.299 57.876 24.599 57.752 25.938 57.625 C26.668 57.555 27.399 57.486 28.152 57.414 C28.457 57.346 28.457 57.346 30 57 C30.165 56.67 30.165 56.67 31 55 C30.625 56.938 30.625 56.938 30 59 C27.073 60.463 24.445 60.17 21.188 60.188 C19.964 60.202 18.741 60.216 17.48 60.23 C14.173 60.011 11.961 59.427 9 58 C8.622 52.463 8.622 52.463 10.496 50.164 C12.463 47.334 12.337 45.54 12.25 42.125 C12.224 41.071 12.198 40.016 12.172 38.93 C11.994 35.895 11.66 32.97 11 30 C7.235 31.474 7.235 31.474 6.207 33.777 C6.077 34.49 5.947 35.203 5.812 35.938 C5.663 36.734 5.513 37.531 5.359 38.352 C4.856 42.063 4.609 45.778 4.441 49.52 C3.888 52.627 3.418 53.931 1 56 C-1.87 56.296 -4.338 56.379 -7.188 56.25 C-7.937 56.232 -8.687 56.214 -9.459 56.195 C-11.307 56.148 -13.153 56.076 -15 56 C-15.421 49.398 -14.127 44.891 -11.5 38.875 C-7.145 28.803 -7.145 28.803 -8 24 C-10.222 21.435 -11.53 21.036 -14.91 20.777 C-15.43 20.804 -15.43 20.804 -18.062 20.938 C-23.687 21.209 -23.687 21.209 -27 19 C-21.156 17.33 -15.258 17.138 -9.562 19.312 C-7.396 20.739 -5.682 22.038 -4 24 C-4 21.36 -4 18.72 -4 16 C-3.34 16.33 -2.68 16.66 -2 17 C-1.34 11.39 -0.68 5.78 0 0 Z " fill="#827364" transform="translate(106,86)"/>
<path d="M0 0 C9.289 3.289 9.289 3.289 11 5 C10.907 7.534 10.76 10.036 10.562 12.562 C10.238 16.858 9.974 21.096 10.047 25.406 C10 29 10 29 8.688 30.938 C4.834 33.364 0.949 33.183 -3.438 33.188 C-4.756 33.202 -6.075 33.216 -7.434 33.23 C-10.655 33.022 -12.339 32.722 -15 31 C-15.25 28.312 -15.25 28.312 -15 25 C-14.33 24.299 -13.659 23.597 -12.969 22.875 C-10.143 18.749 -10.77 15.518 -11.25 10.688 C-11.316 9.852 -11.381 9.016 -11.449 8.154 C-11.613 6.101 -11.804 4.05 -12 2 C-7.391 -1.013 -5.444 -1.339 0 0 Z " fill="#766858" transform="translate(53,116)"/>
<path d="M0 0 C0.33 0 0.66 0 1 0 C0.928 0.615 0.856 1.23 0.781 1.863 C0.735 2.267 0.735 2.267 0.5 4.312 C0.454 4.713 0.454 4.713 0.219 6.738 C-0.243 11.514 -0.243 11.514 1 14 C-1.31 13.34 -3.62 12.68 -6 12 C-5.67 14.64 -5.34 17.28 -5 20 C-3.68 20.33 -2.36 20.66 -1 21 C-1 21.66 -1 22.32 -1 23 C-0.01 22.67 0.98 22.34 2 22 C2.33 19.69 2.66 17.38 3 15 C3.66 15.33 4.32 15.66 5 16 C4.25 22.75 4.25 22.75 2 25 C-0.125 25.625 -0.125 25.625 -2 26 C-1.67 26.33 -1.34 26.66 -1 27 C-0.614 32.019 -0.981 34.937 -4 39 C-4.66 39.66 -5.32 40.32 -6 41 C-5.01 41 -4.02 41 -3 41 C-4.133 44.399 -5.125 45.053 -8 47 C-4.094 44.159 -1.033 42.152 3.812 41.438 C7 42 7 42 8.938 43.625 C10.251 46.56 10.217 48.819 10 52 C9.505 52.165 9.505 52.165 7 53 C6.67 53.66 6.34 54.32 6 55 C3 55 3 55 0 54 C-0.33 53.34 -0.66 52.68 -1 52 C-0.67 53.65 -0.34 55.3 0 57 C-0.99 57 -1.98 57 -3 57 C-5 50.25 -5 50.25 -5 48 C-5.516 48.351 -6.031 48.701 -6.562 49.062 C-9 50 -9 50 -16 49 C-16 37.12 -16 25.24 -16 13 C-14.68 14.65 -13.36 16.3 -12 18 C-9.75 19.312 -9.75 19.312 -8 20 C-7.993 19.693 -7.993 19.693 -7.957 18.137 C-7.811 15.667 -7.608 13.401 -7 11 C-4.5 9.375 -4.5 9.375 -2 8 C-1.25 4.375 -1.25 4.375 -1 1 C-0.67 0.67 -0.34 0.34 0 0 Z " fill="#A39484" transform="translate(16,61)"/>
<path d="M0 0 C2.312 1.938 2.312 1.938 4 4 C4 4.66 4 5.32 4 6 C5.32 6.33 6.64 6.66 8 7 C7.34 7 6.68 7 6 7 C6.495 7.804 6.99 8.609 7.5 9.438 C9.347 13.825 9.772 17.305 9 22 C7.897 24.608 6.606 26.641 5 29 C5.66 29.33 6.32 29.66 7 30 C7 31.98 7 33.96 7 36 C5 34 5 34 4 31 C3.34 31.99 2.68 32.98 2 34 C0.392 33.406 -1.211 32.799 -2.812 32.188 C-3.706 31.851 -4.599 31.515 -5.52 31.168 C-7.919 30.038 -9.284 28.989 -11 27 C-11.33 27.66 -11.66 28.32 -12 29 C-13 28 -13 28 -13.125 25.125 C-13 22 -13 22 -12 19 C-12.66 18.34 -13.32 17.68 -14 17 C-13.34 17 -12.68 17 -12 17 C-11.917 15.866 -11.835 14.731 -11.75 13.562 C-11.147 8.666 -9.473 4.265 -7 0 C-4.234 -1.383 -2.926 -0.906 0 0 Z " fill="#B5A99A" transform="translate(58,26)"/>
<path d="M0 0 C2.527 5.686 2.792 11.883 2 18 C0.492 20.164 0.492 20.164 -1 22 C-1.188 25.25 -1.188 25.25 -1 28 C2.684 29.145 6.221 29.202 10.062 29.25 C10.677 29.263 10.677 29.263 13.785 29.328 C17 29 17 29 18.891 27.684 C20.495 25.249 20.682 22.859 21 20 C22.506 21.964 23.891 23.783 25 26 C24.34 26 23.68 26 23 26 C22.794 26.577 22.588 27.155 22.375 27.75 C20.425 30.941 18.261 32.192 15 34 C11.484 34.32 11.484 34.32 7.75 34.125 C0.183 33.917 -6.184 34.799 -13.375 37.062 C-18.487 38.384 -23.712 39.093 -29 39 C-29.99 38.34 -30.98 37.68 -32 37 C-31.216 36.856 -30.433 36.711 -29.625 36.562 C-27 35 -27 35 -26.223 32.863 C-25.732 30.58 -25.319 28.313 -25 26 C-23.94 25.963 -22.881 25.925 -21.789 25.887 C-20.401 25.821 -19.013 25.755 -17.625 25.688 C-16.926 25.665 -16.228 25.642 -15.508 25.619 C-13.477 25.512 -13.477 25.512 -10 25 C-7.604 21.405 -7.407 18.304 -7 14.125 C-6.11 5.081 -6.11 5.081 -4 1 C-2 0 -2 0 0 0 Z " fill="#CBBBA9" transform="translate(117,116)"/>
<path d="M0 0 C-0.03 0.297 -0.03 0.297 -0.184 1.801 C-0.267 2.63 -0.351 3.459 -0.438 4.312 C-0.485 4.766 -0.485 4.766 -0.723 7.059 C-0.908 9.027 -1.062 10.999 -1.184 12.973 C-1.215 13.452 -1.215 13.452 -1.375 15.875 C-1.424 16.759 -1.473 17.644 -1.523 18.555 C-2.121 21.623 -2.608 22.944 -5 25 C-7.87 25.296 -10.338 25.379 -13.188 25.25 C-13.937 25.232 -14.687 25.214 -15.459 25.195 C-17.307 25.148 -19.153 25.076 -21 25 C-21.242 19.331 -20.758 15.393 -18.562 10.062 C-18.336 9.501 -18.336 9.501 -17.191 6.66 C-16 4 -16 4 -15 3 C-12.676 2.439 -10.34 1.926 -8 1.438 C-6.721 1.168 -5.442 0.899 -4.125 0.621 C-1 0 -1 0 0 0 Z " fill="#6A5D4E" transform="translate(112,117)"/>
<path d="M0 0 C4.556 0.556 4.556 0.556 6 2 C6.124 3.093 6.248 4.186 6.375 5.312 C7 9 7 9 8.5 10.938 C10.325 13.447 11.018 15.814 11.348 18.895 C10.66 23.058 7.158 25.48 4 28 C0.27 27.211 -2.432 26.452 -5.438 24.062 C-7.82 19.393 -7.853 15.132 -7 10 C-5.284 6.075 -3.016 3.016 0 0 Z " fill="#A79789" transform="translate(17,26)"/>
<path d="M0 0 C0.33 0.165 0.33 0.165 2 1 C0.825 7.904 -2.572 12.598 -8 17 C-11.336 18.589 -14.624 19.815 -18.145 20.93 C-20.97 21.989 -22.025 22.833 -24 25 C-25.134 25.474 -26.269 25.949 -27.438 26.438 C-30.891 27.952 -32.482 29.302 -35 32 C-38.447 33.149 -41.244 33.204 -44.875 33.25 C-46.089 33.276 -47.304 33.302 -48.555 33.328 C-52.264 32.975 -53.949 32.032 -57 30 C-60.812 29.312 -60.812 29.312 -64 29 C-64 28.34 -64 27.68 -64 27 C-63.335 27.016 -62.669 27.031 -61.984 27.048 C-58.948 27.11 -55.912 27.149 -52.875 27.188 C-52.352 27.2 -52.352 27.2 -49.703 27.264 C-44.088 27.317 -39.78 27.34 -35 24 C-34.67 23.299 -34.34 22.597 -34 21.875 C-33.67 21.256 -33.34 20.638 -33 20 C-29.875 19.25 -29.875 19.25 -27 19 C-26.34 17.02 -25.68 15.04 -25 13 C-23 16.75 -23 16.75 -23 19 C-22.01 19 -21.02 19 -20 19 C-20 18.01 -20 17.02 -20 16 C-15.933 13.874 -12.43 12.286 -7.875 11.75 C-6 11 -6 11 -5 8.812 C-4.67 7.884 -4.34 6.956 -4 6 C-2.702 3.977 -1.375 1.971 0 0 Z " fill="#958778" transform="translate(64,95)"/>
<path d="M0 0 C9.506 -0.91 15.884 1.026 24 6 C24.33 6.33 24.66 6.66 25 7 C26.642 7.026 28.285 6.988 29.926 6.922 C44.976 6.481 55.195 6.791 67.062 16.875 C70.994 20.699 73.354 23.696 75 29 C75.89 31.023 76.786 33.044 77.688 35.062 C79.565 39.276 80.254 42.38 80 47 C79.67 47 79.34 47 79 47 C78.781 46.178 78.562 45.355 78.336 44.508 C76.059 36.492 73.422 28.33 67.316 22.352 C66 21 66 21 66 19 C62.153 16.916 58.099 15.503 54 14 C54 13.34 54 12.68 54 12 C47.288 11.12 40.766 10.886 34 11 C34.165 11.66 34.165 11.66 35 15 C32.832 15.766 32.832 15.766 30 16 C27.387 14.234 27.387 14.234 24.688 11.75 C17.655 5.688 12.318 3.501 3 4 C3.33 5.98 3.66 7.96 4 10 C4.99 10.33 5.98 10.66 7 11 C7 11.99 7 12.98 7 14 C6.34 14 5.68 14 5 14 C4.67 14.495 4.67 14.495 3 17 C2.976 16.71 2.976 16.71 2.852 15.242 C2.402 10.546 1.631 6.458 0 2 C0 1.34 0 0.68 0 0 Z " fill="#C1B5A7" transform="translate(64,31)"/>
<path d="M0 0 C2 1 2 1 3 3.812 C3.33 4.864 3.66 5.916 4 7 C4.333 7.621 4.665 8.243 5.008 8.883 C6.147 11.313 6.546 13.402 6.875 16.062 C6.996 16.92 7.117 17.777 7.242 18.66 C7 21 7 21 5.008 22.621 C4.677 22.849 4.677 22.849 3 24 C3 24.99 3 25.98 3 27 C11.231 20.874 11.231 20.874 12.5 15.562 C12.665 14.387 12.83 13.211 13 12 C13.33 12 13.66 12 14 12 C14.499 18.118 13.249 21.025 10 26 C10.66 26.33 11.32 26.66 12 27 C12 28.98 12 30.96 12 33 C10 31 10 31 9 28 C8.34 28.99 7.68 29.98 7 31 C5.392 30.406 3.789 29.799 2.188 29.188 C1.294 28.851 0.401 28.515 -0.52 28.168 C-2.919 27.038 -4.284 25.989 -6 24 C-6.33 24.66 -6.66 25.32 -7 26 C-8 25 -8 25 -8.125 22.125 C-8 19 -8 19 -7 16 C-7.66 15.34 -8.32 14.68 -9 14 C-8.34 14 -7.68 14 -7 14 C-6.67 11.69 -6.34 9.38 -6 7 C-5.67 7 -5.34 7 -5 7 C-4.951 7.88 -4.902 8.761 -4.852 9.668 C-4.777 10.829 -4.702 11.991 -4.625 13.188 C-4.59 13.762 -4.59 13.762 -4.414 16.668 C-4.025 19.8 -3.319 22.153 -2 25 C-1.875 18.375 -1.875 18.375 -3 15 C-3.4 8.998 -2.684 5.368 0 0 Z " fill="#8D7462" transform="translate(53,29)"/>
<path d="M0 0 C2.31 0 4.62 0 7 0 C7.108 2.73 7.187 5.456 7.25 8.188 C7.267 8.572 7.267 8.572 7.352 10.518 C7.444 15.899 6.494 17.798 3 22 C2.75 25.812 2.75 25.812 3 29 C-1.125 29.029 -5.25 29.047 -9.375 29.062 C-9.963 29.067 -9.963 29.067 -12.938 29.088 C-13.498 29.09 -13.498 29.09 -16.336 29.098 C-16.854 29.1 -16.854 29.1 -19.478 29.114 C-22 29 -22 29 -24 28 C-24 27.01 -24 26.02 -24 25 C-22.831 25.035 -21.662 25.07 -20.457 25.105 C-18.909 25.134 -17.361 25.161 -15.812 25.188 C-15.044 25.213 -14.275 25.238 -13.482 25.264 C-8.939 25.322 -5.463 25.305 -2 22 C-1.582 19.18 -1.582 19.18 -1.812 15.875 C-2.05 10.132 -1.5 5.532 0 0 Z " fill="#F2EDE6" transform="translate(64,123)"/>
<path d="M0 0 C1.32 1.65 2.64 3.3 4 5 C6.172 7.242 8.331 9.27 10.75 11.25 C13.348 14.425 13.82 16.052 13.547 20.062 C12.495 23.788 10.221 25.126 7 27 C4.69 27 2.38 27 0 27 C0 18.09 0 9.18 0 0 Z " fill="#BBAB99" transform="translate(0,74)"/>
<path d="M0 0 C1.506 1.964 2.891 3.783 4 6 C3.34 6 2.68 6 2 6 C1.794 6.577 1.588 7.155 1.375 7.75 C-0.575 10.941 -2.739 12.192 -6 14 C-9.516 14.32 -9.516 14.32 -13.25 14.125 C-20.817 13.917 -27.184 14.799 -34.375 17.062 C-39.487 18.384 -44.712 19.093 -50 19 C-50.99 18.34 -51.98 17.68 -53 17 C-49.182 15.348 -45.435 14.329 -41.375 13.438 C-38.179 12.732 -35.105 12.035 -32 11 C-30.463 10.794 -28.92 10.634 -27.375 10.5 C-26.413 10.415 -25.452 10.33 -24.461 10.242 C-21.837 10.059 -19.229 9.921 -16.602 9.82 C-15.842 9.787 -15.082 9.755 -14.299 9.721 C-12.784 9.658 -11.268 9.607 -9.751 9.568 C-4.499 9.342 -4.499 9.342 -2.043 7.66 C-0.515 5.228 -0.313 2.819 0 0 Z " fill="#DFD2C1" transform="translate(138,136)"/>
<path d="M0 0 C4.56 -0.358 7.949 -0.558 12.062 1.625 C14.616 4.755 14.402 6.004 14 10 C13.007 12.889 11.742 15.648 10.5 18.438 C6.921 26.925 6.149 33.841 7 43 C6.67 43.165 6.67 43.165 5 44 C1.771 39.056 0.404 36.084 1 30 C1.33 29.34 1.66 28.68 2 28 C2.66 28 3.32 28 4 28 C4.33 24.04 4.66 20.08 5 16 C5.66 16 6.32 16 7 16 C9.04 11.07 10.407 7.42 10 2 C6.7 1.67 3.4 1.34 0 1 C0 0.67 0 0.34 0 0 Z " fill="#9C8E7D" transform="translate(85,106)"/>
<path d="M0 0 C2.568 5.779 2.834 11.798 2 18 C0.686 20.993 -0.926 23.481 -3 26 C-3.33 25.34 -3.66 24.68 -4 24 C-4.99 24 -5.98 24 -7 24 C-7.212 16.376 -7.282 9.326 -5 2 C-2 0 -2 0 0 0 Z " fill="#F5F2EB" transform="translate(117,116)"/>
<path d="M0 0 C0.66 0 1.32 0 2 0 C2.144 0.928 2.289 1.856 2.438 2.812 C3 6 3 6 4 9 C5.994 10.343 7.993 11.677 10 13 C10 13.66 10 14.32 10 15 C9.361 15.289 8.721 15.577 8.062 15.875 C6 17 6 17 5 19 C6.65 19.33 8.3 19.66 10 20 C10 20.66 10 21.32 10 22 C9.196 22.474 8.391 22.949 7.562 23.438 C5 25 5 25 4 28 C2.35 27.67 0.7 27.34 -1 27 C-1 26.01 -1 25.02 -1 24 C-1.66 24.66 -2.32 25.32 -3 26 C-3.75 24.312 -3.75 24.312 -4 22 C-3.339 21.263 -2.677 20.525 -1.996 19.766 C0.541 16.251 0.251 14.665 -0.312 10.438 C-1.187 3.494 -1.187 3.494 0 0 Z " fill="#988A79" transform="translate(42,119)"/>
<path d="M0 0 C2.781 4.301 2.384 9.133 2.479 14.068 C2.651 18.557 3.281 21.407 6 25 C6.563 25.501 7.127 26.003 7.707 26.52 C9 28 9 28 9.074 30.262 C8.947 31.062 8.819 31.863 8.688 32.688 C8.628 33.092 8.628 33.092 8.324 35.137 C8.217 35.752 8.11 36.366 8 37 C6.125 36.688 6.125 36.688 4 36 C1.371 32.057 0.941 28.636 0 24 C-1.65 27.3 -3.3 30.6 -5 34 C-5.66 33.01 -6.32 32.02 -7 31 C-6.125 27.875 -6.125 27.875 -5 25 C-5 24.67 -5 24.34 -5 24 C-4.01 23.67 -3.02 23.34 -2 23 C-1.057 18.04 -0.698 13.155 -0.438 8.125 C-0.394 7.341 -0.351 6.558 -0.307 5.75 C-0.201 3.833 -0.1 1.917 0 0 Z " fill="#9F9283" transform="translate(145,76)"/>
<path d="M0 0 C0.66 0.33 1.32 0.66 2 1 C1.67 1.495 1.67 1.495 0 4 C-0.66 4 -1.32 4 -2 4 C-2.121 4.699 -2.242 5.397 -2.367 6.117 C-2.451 6.572 -2.451 6.572 -2.875 8.875 C-3.037 9.78 -3.2 10.685 -3.367 11.617 C-4 14 -4 14 -6 16 C-6.625 18.625 -6.625 18.625 -7 21 C-6.397 20.893 -5.793 20.786 -5.172 20.676 C1.437 19.684 1.437 19.684 4.562 21.438 C5.037 21.953 5.511 22.469 6 23 C5.67 23.66 5.34 24.32 5 25 C4.34 24.34 3.68 23.68 3 23 C0.312 22.73 -2.291 22.913 -5 23 C-4.67 23.66 -4.34 24.32 -4 25 C-1.678 25.407 0.657 25.744 3 26 C2.67 26.66 2.34 27.32 2 28 C0.35 28 -1.3 28 -3 28 C-3 28.66 -3 29.32 -3 30 C-3.66 30 -4.32 30 -5 30 C-5 30.99 -5 31.98 -5 33 C-7.375 34.75 -7.375 34.75 -10 36 C-10.66 35.67 -11.32 35.34 -12 35 C-11.34 34.34 -10.68 33.68 -10 33 C-9.719 30.123 -9.534 27.321 -9.438 24.438 C-9.12 16.12 -9.12 16.12 -8 15 C-7.895 13.585 -7.816 12.168 -7.75 10.75 C-7.383 6.976 -7.079 6.097 -4.562 3 C-2 1 -2 1 0 0 Z " fill="#A49584" transform="translate(80,107)"/>
<path d="M0 0 C1.188 3.564 0.47 4.858 -1.031 8.18 C-2 10 -2 10 -4.188 12.938 C-6.941 17.589 -6.575 21.471 -5.375 26.75 C-4.916 29.507 -5.537 30.676 -7 33 C-8.938 32.188 -8.938 32.188 -11 31 C-11.33 30.01 -11.66 29.02 -12 28 C-12.99 28 -13.98 28 -15 28 C-16 25.438 -16 25.438 -16 22 C-14.221 20.101 -12.25 18.602 -10.207 16.992 C-5.216 12.487 -2.361 6.201 0 0 Z " fill="#807162" transform="translate(132,92)"/>
<path d="M0 0 C0.66 0.33 1.32 0.66 2 1 C0.822 7.921 -2.584 12.568 -8 17 C-18.345 22.425 -18.345 22.425 -23.391 21.617 C-23.922 21.414 -24.453 21.21 -25 21 C-24.34 19.68 -23.68 18.36 -23 17 C-23 17.66 -23 18.32 -23 19 C-22.01 19 -21.02 19 -20 19 C-20 18.01 -20 17.02 -20 16 C-15.933 13.874 -12.43 12.286 -7.875 11.75 C-6 11 -6 11 -5 8.812 C-4.67 7.884 -4.34 6.956 -4 6 C-2.702 3.977 -1.375 1.971 0 0 Z " fill="#9A8B7C" transform="translate(64,95)"/>
<path d="M0 0 C0.99 0 1.98 0 3 0 C2.988 1.051 2.977 2.101 2.965 3.184 C2.909 10.539 2.957 17.701 4 25 C3.34 25 2.68 25 2 25 C1.67 24.01 1.34 23.02 1 22 C0.154 21.505 -0.691 21.01 -1.562 20.5 C-4.431 17.558 -4.432 16.672 -4.562 12.688 C-4.343 7.396 -3.043 4.279 0 0 Z " fill="#8A7869" transform="translate(17,29)"/>
<path d="M0 0 C-0.33 0.165 -0.33 0.165 -2 1 C-2 1.66 -2 2.32 -2 3 C-0.35 2.67 1.3 2.34 3 2 C2.67 2.66 2.34 3.32 2 4 C0.02 4 -1.96 4 -4 4 C-4.33 5.32 -4.66 6.64 -5 8 C-8.877 9.193 -11.916 10 -16 10 C-16 10.99 -16 11.98 -16 13 C-15.01 12.34 -14.02 11.68 -13 11 C-9.313 11.375 -9.313 11.375 -6 12 C-9.282 13.778 -12.679 14.998 -16.195 16.219 C-18 17 -18 17 -20 19 C-19.391 12.602 -16.816 8.408 -12 4.25 C-7.72 1.04 -5.397 -0.3 0 0 Z " fill="#CCC0B2" transform="translate(38,44)"/>
<path d="M0 0 C0.33 0 0.66 0 1 0 C1.049 0.88 1.098 1.761 1.148 2.668 C1.223 3.829 1.298 4.991 1.375 6.188 C1.41 6.762 1.41 6.762 1.586 9.668 C1.975 12.8 2.681 15.153 4 18 C4.66 16.68 5.32 15.36 6 14 C6 15.32 6 16.64 6 18 C6.66 18 7.32 18 8 18 C8.33 18.66 8.66 19.32 9 20 C17.231 13.874 17.231 13.874 18.5 8.562 C18.665 7.387 18.83 6.211 19 5 C19.33 5 19.66 5 20 5 C20.499 11.118 19.249 14.025 16 19 C16.66 19.33 17.32 19.66 18 20 C18 21.98 18 23.96 18 26 C16 24 16 24 15 21 C14.34 21.99 13.68 22.98 13 24 C11.392 23.406 9.789 22.799 8.188 22.188 C7.294 21.851 6.401 21.515 5.48 21.168 C3.081 20.038 1.716 18.989 0 17 C-0.33 17.66 -0.66 18.32 -1 19 C-2 18 -2 18 -2.125 15.125 C-2 12 -2 12 -1 9 C-1.66 8.34 -2.32 7.68 -3 7 C-2.34 7 -1.68 7 -1 7 C-0.67 4.69 -0.34 2.38 0 0 Z " fill="#89796B" transform="translate(47,36)"/>
<path d="M0 0 C0.103 0.639 0.206 1.279 0.312 1.938 C0.426 2.278 0.426 2.278 1 4 C1.99 4.33 2.98 4.66 4 5 C4 7.64 4 10.28 4 13 C-0.125 13.029 -4.25 13.047 -8.375 13.062 C-8.963 13.067 -8.963 13.067 -11.938 13.088 C-12.498 13.09 -12.498 13.09 -15.336 13.098 C-15.854 13.1 -15.854 13.1 -18.478 13.114 C-21 13 -21 13 -23 12 C-23 11.01 -23 10.02 -23 9 C-21.831 9.035 -20.662 9.07 -19.457 9.105 C-17.909 9.134 -16.361 9.161 -14.812 9.188 C-14.044 9.213 -13.275 9.238 -12.482 9.264 C-7.855 9.323 -4.698 9.12 -1 6 C-0.188 2.812 -0.188 2.812 0 0 Z " fill="#D5C7B7" transform="translate(63,139)"/>
<path d="M0 0 C0.639 0.33 1.279 0.66 1.938 1 C4 2 4 2 5 2 C5 7.28 5 12.56 5 18 C8.375 10.125 8.375 10.125 9.188 6.562 C9.456 5.387 9.724 4.211 10 3 C10.33 3 10.66 3 11 3 C11.564 10.338 9.553 16.161 7 23 C6.34 23 5.68 23 5 23 C3.375 24.5 3.375 24.5 2 26 C1.349 22.175 0.945 18.57 1 14.688 C1.068 9.744 0.574 4.906 0 0 Z " fill="#89796A" transform="translate(67,73)"/>
<path d="M0 0 C5.538 -0.369 5.538 -0.369 7.875 1.5 C8.246 1.995 8.617 2.49 9 3 C8.67 3.66 8.34 4.32 8 5 C7.67 5 7.34 5 7 5 C6.876 6.114 6.752 7.228 6.625 8.375 C6 12 6 12 4 14 C0.703 13.67 -0.623 13.377 -3 11 C-3.125 7.375 -3.125 7.375 -3 4 C-2.34 3.67 -1.68 3.34 -1 3 C-0.01 3.99 0.98 4.98 2 6 C2 4.68 2 3.36 2 2 C1.34 2 0.68 2 0 2 C0 1.34 0 0.68 0 0 Z " fill="#1C1815" transform="translate(39,82)"/>
<path d="M0 0 C0.33 0.66 0.66 1.32 1 2 C1.66 2 2.32 2 3 2 C3.33 2.66 3.66 3.32 4 4 C6.062 5.125 6.062 5.125 8 6 C7.34 6 6.68 6 6 6 C5.67 6.99 5.34 7.98 5 9 C2.583 9.054 0.167 9.094 -2.25 9.125 C-2.932 9.142 -3.614 9.159 -4.316 9.176 C-8.061 9.212 -10.824 9.079 -14 7 C-13.67 5.68 -13.34 4.36 -13 3 C-11.68 2.67 -10.36 2.34 -9 2 C-9.33 3.32 -9.66 4.64 -10 6 C-8.68 6.33 -7.36 6.66 -6 7 C-5.938 6.402 -5.876 5.804 -5.812 5.188 C-4.676 2.129 -2.827 1.45 0 0 Z " fill="#7D6E5E" transform="translate(52,140)"/>
<path d="M0 0 C0.99 0.33 1.98 0.66 3 1 C3.082 2.416 3.139 3.833 3.188 5.25 C3.205 5.644 3.205 5.644 3.293 7.641 C2.916 10.676 2.279 11.949 0 14 C-2.918 14.172 -2.918 14.172 -6.188 13.75 C-6.731 13.686 -6.731 13.686 -9.48 13.359 C-10.312 13.241 -11.143 13.122 -12 13 C-11.67 11.68 -11.34 10.36 -11 9 C-12 10 -12 10 -13 12 C-13.66 12 -14.32 12 -15 12 C-14.522 7.462 -14.522 7.462 -12.375 5.562 C-8.884 4.736 -6.326 5.849 -3 7 C-3.66 8.32 -4.32 9.64 -5 11 C-3.68 10.67 -2.36 10.34 -1 10 C-0.67 6.7 -0.34 3.4 0 0 Z " fill="#7D6F5F" transform="translate(107,128)"/>
<path d="M0 0 C0.66 0.33 1.32 0.66 2 1 C1.122 8.835 -3.327 15.097 -9.438 20 C-10.283 20.66 -11.129 21.32 -12 22 C-12 22.66 -12 23.32 -12 24 C-18.243 26.479 -23.283 27.32 -30 27 C-27.308 25.572 -24.739 24.581 -21.812 23.75 C-16.674 22.08 -12.111 19.523 -8 16 C-7.67 15.01 -7.34 14.02 -7 13 C-6.34 13 -5.68 13 -5 13 C-4.897 12.464 -4.794 11.927 -4.688 11.375 C-3.819 8.375 -2.418 5.777 -1 3 C-0.67 2.01 -0.34 1.02 0 0 Z " fill="#998B7B" transform="translate(129,92)"/>
<path d="M0 0 C0.33 0 0.66 0 1 0 C1.201 3.625 0.858 5.865 -1 9 C-0.01 8.67 0.98 8.34 2 8 C2 8.66 2 9.32 2 10 C1.361 10.474 0.721 10.949 0.062 11.438 C-2 13 -2 13 -3 16 C-2.34 16.33 -1.68 16.66 -1 17 C-1.382 17.371 -1.382 17.371 -3.312 19.25 C-5.439 21.426 -7.256 23.522 -9 26 C-9.125 19.375 -9.125 19.375 -8 16 C-9.32 16.33 -10.64 16.66 -12 17 C-11.25 15.062 -11.25 15.062 -10 13 C-9.691 12.959 -9.691 12.959 -8.125 12.75 C-6 12 -6 12 -4.297 9.277 C-3.786 8.175 -3.276 7.073 -2.75 5.938 C-2.229 4.833 -1.708 3.728 -1.172 2.59 C-0.785 1.735 -0.398 0.881 0 0 Z " fill="#9E907F" transform="translate(79,90)"/>
<path d="M0 0 C1.32 0.33 2.64 0.66 4 1 C4 4.767 3.765 5.912 2 9 C2.743 9.062 3.485 9.124 4.25 9.188 C7.819 10.242 8.922 11.999 11 15 C8.36 15.33 5.72 15.66 3 16 C2.67 14.68 2.34 13.36 2 12 C1.67 13.32 1.34 14.64 1 16 C-0.65 16 -2.3 16 -4 16 C-3.67 13.03 -3.34 10.06 -3 7 C-1.68 6.67 -0.36 6.34 1 6 C0.67 5.67 0.34 5.34 0 5 C-0.041 3.334 -0.043 1.666 0 0 Z " fill="#948575" transform="translate(125,128)"/>
<path d="M0 0 C2.007 0.287 4.009 0.619 6 1 C5.67 2.98 5.34 4.96 5 7 C6.65 7 8.3 7 10 7 C10.33 5.35 10.66 3.7 11 2 C11.66 2.33 12.32 2.66 13 3 C12.67 4.32 12.34 5.64 12 7 C13.299 6.876 14.599 6.752 15.938 6.625 C16.303 6.59 16.303 6.59 18.152 6.414 C18.762 6.277 19.372 6.141 20 6 C20.33 5.34 20.66 4.68 21 4 C20.625 5.938 20.625 5.938 20 8 C17.073 9.463 14.445 9.17 11.188 9.188 C9.964 9.202 8.741 9.216 7.48 9.23 C4.173 9.011 1.961 8.427 -1 7 C-1.043 5 -1.041 3 -1 1 C-0.67 0.67 -0.34 0.34 0 0 Z " fill="#7D6C5B" transform="translate(116,137)"/>
<path d="M0 0 C0.33 0.99 0.66 1.98 1 3 C1.827 3.02 2.655 3.04 3.507 3.06 C7.255 3.155 11.002 3.265 14.75 3.375 C16.052 3.406 17.354 3.437 18.695 3.469 C19.946 3.507 21.196 3.546 22.484 3.586 C23.06 3.602 23.06 3.602 25.976 3.681 C28.848 3.984 30.562 4.509 33 6 C26.833 7.433 20.675 7.184 14.375 7.188 C13.755 7.194 13.755 7.194 10.617 7.225 C10.024 7.226 10.024 7.226 7.023 7.23 C5.94 7.235 4.856 7.239 3.74 7.243 C1 7 1 7 -2 5 C-1.34 3.35 -0.68 1.7 0 0 Z " fill="#EDE2D4" transform="translate(39,148)"/>
<path d="M0 0 C0.99 0.33 1.98 0.66 3 1 C3.66 2.996 3.66 2.996 4.062 5.438 C4.797 9.797 4.797 9.797 7 12 C7.565 14.655 7.738 17.291 8 20 C7.34 20 6.68 20 6 20 C5.34 21.32 4.68 22.64 4 24 C3.34 24 2.68 24 2 24 C1.161 16.489 0.923 9.492 2 2 C1.01 1.67 0.02 1.34 -1 1 C-0.67 0.67 -0.34 0.34 0 0 Z " fill="#B4A799" transform="translate(18,27)"/>
<path d="M0 0 C0.33 0 0.66 0 1 0 C0.541 5.145 -0.388 9.331 -2.293 14.117 C-3.662 17.764 -4.517 20.691 -3.062 24.375 C-2.712 24.911 -2.361 25.448 -2 26 C-1.01 25.67 -0.02 25.34 1 25 C-0.333 27.667 -1.667 30.333 -3 33 C-3 32.34 -3 31.68 -3 31 C-3.99 30.67 -4.98 30.34 -6 30 C-5.34 29.67 -4.68 29.34 -4 29 C-4.99 28.34 -5.98 27.68 -7 27 C-6.907 26.732 -6.907 26.732 -6.438 25.375 C-6 23 -6 23 -6.5 20.062 C-7.475 14.091 -5.437 10.781 -2.156 5.965 C-0.981 3.967 -0.444 2.263 0 0 Z " fill="#968777" transform="translate(132,95)"/>
<path d="M0 0 C0.33 0 0.66 0 1 0 C2.908 9.302 2.685 18.475 -2.09 26.93 C-3.02 28.314 -4.005 29.662 -5 31 C-5 31.33 -5 31.66 -5 32 C-4.34 32.33 -3.68 32.66 -3 33 C-8.625 37 -8.625 37 -12 37 C-12.66 36.67 -13.32 36.34 -14 36 C-13.469 35.588 -12.938 35.175 -12.391 34.75 C-6.364 29.823 -1.624 24.06 -0.795 16.007 C-0.776 15.638 -0.776 15.638 -0.684 13.77 C-0.642 12.967 -0.6 12.165 -0.557 11.338 C-0.517 10.505 -0.478 9.671 -0.438 8.812 C-0.394 7.968 -0.351 7.123 -0.307 6.252 C-0.201 4.168 -0.1 2.084 0 0 Z " fill="#736556" transform="translate(67,77)"/>
<path d="M0 0 C4.165 1.388 4.942 3.158 7 7 C8.097 11.256 8.759 14.646 6.562 18.562 C6.047 19.037 5.531 19.511 5 20 C2.866 17.866 3.056 13.65 2.598 10.762 C2.036 8.169 1.257 6.312 0 4 C-0.33 3.01 -0.66 2.02 -1 1 C-0.67 0.67 -0.34 0.34 0 0 Z " fill="#9F8472" transform="translate(55,29)"/>
<path d="M0 0 C4.401 0.503 6.712 2.088 10 5 C9.67 6.65 9.34 8.3 9 10 C7.68 10.33 6.36 10.66 5 11 C4.67 10.34 4.34 9.68 4 9 C3.01 8.67 2.02 8.34 1 8 C0.67 5.36 0.34 2.72 0 0 Z " fill="#C3B4A1" transform="translate(10,73)"/>
<path d="M0 0 C1.903 2.139 2.955 3.398 3.172 6.297 C1.852 13.972 -1.845 17.466 -8 22 C-8.33 20.68 -8.66 19.36 -9 18 C-8.216 17.422 -7.432 16.845 -6.625 16.25 C-4.096 14.083 -2.978 13.112 -2 10 C-2 8.824 -2 7.649 -2 6.438 C-2 3 -2 3 0 0 Z " fill="#B0A496" transform="translate(64,35)"/>
<path d="M0 0 C3 1 3 1 4 3 C4.04 5 4.043 7 4 9 C3.01 9.33 2.02 9.66 1 10 C0.67 10.66 0.34 11.32 0 12 C-3 12 -3 12 -6 11 C-5.812 8.688 -5.812 8.688 -5 6 C-3.359 4.959 -1.693 3.955 0 3 C0 2.01 0 1.02 0 0 Z " fill="#A49686" transform="translate(22,104)"/>
<path d="M0 0 C0.66 0.33 1.32 0.66 2 1 C1.67 2.32 1.34 3.64 1 5 C1.99 5.66 2.98 6.32 4 7 C4.33 5.68 4.66 4.36 5 3 C5 4.65 5 6.3 5 8 C6.65 8 8.3 8 10 8 C10 6.35 10 4.7 10 3 C10.66 3.33 11.32 3.66 12 4 C12 5.32 12 6.64 12 8 C15.3 7.67 18.6 7.34 22 7 C21.67 7.66 21.34 8.32 21 9 C17.684 10.105 15.115 10.168 11.625 10.188 C10.504 10.202 9.382 10.216 8.227 10.23 C4.823 9.987 1.51 9.51 -1 7 C-1.125 4 -1.125 4 -1 1 C-0.67 0.67 -0.34 0.34 0 0 Z " fill="#8B7C6B" transform="translate(67,144)"/>
<path d="M0 0 C0.66 0 1.32 0 2 0 C1.168 3.638 -0.31 5.595 -3.25 7.75 C-10.39 11.873 -19.491 11.781 -27.375 10.062 C-27.973 9.887 -27.973 9.887 -31 9 C-31 8.34 -31 7.68 -31 7 C-30.667 7.008 -30.667 7.008 -28.984 7.048 C-25.948 7.11 -22.912 7.149 -19.875 7.188 C-19.352 7.2 -19.352 7.2 -16.703 7.264 C-11.077 7.317 -6.797 7.326 -2 4 C-0.625 1.812 -0.625 1.812 0 0 Z " fill="#7C6D5E" transform="translate(31,115)"/>
<path d="M0 0 C0.66 0 1.32 0 2 0 C2.144 0.928 2.289 1.856 2.438 2.812 C3 6 3 6 4 9 C5.994 10.343 7.993 11.677 10 13 C10 13.66 10 14.32 10 15 C8 15.043 6 15.041 4 15 C3.67 14.67 3.34 14.34 3 14 C2.34 15.32 1.68 16.64 1 18 C0.636 15.752 0.284 13.501 -0.062 11.25 C-0.26 9.997 -0.457 8.744 -0.66 7.453 C-0.951 4.5 -0.989 2.74 0 0 Z " fill="#7F7161" transform="translate(42,119)"/>
<path d="M0 0 C2.375 0.75 2.375 0.75 3.375 1.75 C3.499 2.843 3.623 3.936 3.75 5.062 C4.375 8.75 4.375 8.75 5.875 10.688 C7.792 13.324 8.379 15.489 8.723 18.711 C8.127 22.203 5.68 23.704 2.941 25.719 C2.683 25.889 2.683 25.889 1.375 26.75 C1.705 25.595 1.705 25.595 3.375 19.75 C4.365 20.08 5.355 20.41 6.375 20.75 C5.922 19.311 5.463 17.874 5 16.438 C4.745 15.637 4.49 14.836 4.227 14.012 C3.375 11.75 3.375 11.75 1.375 8.75 C0.981 6.426 0.64 4.092 0.375 1.75 C-0.285 1.75 -0.945 1.75 -1.625 1.75 C-1.955 2.41 -2.285 3.07 -2.625 3.75 C-3.615 3.42 -4.605 3.09 -5.625 2.75 C-3.734 0.261 -3.211 -0.306 0 0 Z " fill="#A29587" transform="translate(19.625,26.25)"/>
<path d="M0 0 C0.398 0.634 0.797 1.268 1.207 1.922 C3.344 4.399 4.515 4.698 7.688 5.25 C8.496 5.4 9.304 5.549 10.137 5.703 C10.752 5.801 11.366 5.899 12 6 C11.67 6.66 11.34 7.32 11 8 C9.35 8 7.7 8 6 8 C6 8.66 6 9.32 6 10 C5.34 10 4.68 10 4 10 C4 10.99 4 11.98 4 13 C1.625 14.75 1.625 14.75 -1 16 C-1.66 15.67 -2.32 15.34 -3 15 C-2.34 14.34 -1.68 13.68 -1 13 C-0.586 9.961 -0.586 9.961 -0.375 6.375 C-0.3 5.186 -0.225 3.998 -0.148 2.773 C-0.099 1.858 -0.05 0.943 0 0 Z " fill="#9D8D7C" transform="translate(71,127)"/>
<path d="M0 0 C13.818 1.743 13.818 1.743 19 5 C17.25 5.625 17.25 5.625 15 6 C14.422 5.691 13.845 5.381 13.25 5.062 C9.827 3.446 6.761 3.875 3 4 C3.33 5.98 3.66 7.96 4 10 C4.99 10.33 5.98 10.66 7 11 C7 11.99 7 12.98 7 14 C6.34 14 5.68 14 5 14 C4.67 14.495 4.67 14.495 3 17 C2.976 16.71 2.976 16.71 2.852 15.242 C2.402 10.546 1.631 6.458 0 2 C0 1.34 0 0.68 0 0 Z " fill="#D2C8BB" transform="translate(64,31)"/>
<path d="M0 0 C1.506 1.964 2.891 3.783 4 6 C3.34 6 2.68 6 2 6 C1.794 6.577 1.588 7.155 1.375 7.75 C-0.66 11.08 -2.478 12.27 -6 14 C-9.693 14.325 -13.304 14.237 -17 14 C-16.67 13.01 -16.34 12.02 -16 11 C-15.169 10.89 -14.337 10.781 -13.48 10.668 C-12.394 10.509 -11.307 10.351 -10.188 10.188 C-9.109 10.037 -8.03 9.886 -6.918 9.73 C-3.898 8.974 -2.781 8.503 -1 6 C-0.312 2.812 -0.312 2.812 0 0 Z " fill="#F0E6D7" transform="translate(138,136)"/>
<path d="M0 0 C0.451 0.051 0.451 0.051 2.73 0.309 C3.418 0.392 4.105 0.476 4.812 0.562 C4.812 0.893 4.812 1.222 4.812 1.562 C4.232 1.611 3.652 1.66 3.055 1.711 C-0.475 2.049 -3.645 2.37 -7 3.562 C-11.91 5.103 -17.042 5.652 -22.188 5.562 C-23.177 4.903 -24.168 4.243 -25.188 3.562 C-23.995 3.358 -22.803 3.153 -21.574 2.941 C-20.008 2.669 -18.441 2.397 -16.875 2.125 C-16.089 1.99 -15.304 1.856 -14.494 1.717 C-13.737 1.585 -12.979 1.453 -12.199 1.316 C-11.503 1.196 -10.806 1.076 -10.089 0.951 C-3.461 -0.404 -3.461 -0.404 0 0 Z " fill="#EEE4D5" transform="translate(110.1875,149.4375)"/>
<path d="M0 0 C2.003 0.312 4.003 0.648 6 1 C7.32 1 8.64 1 10 1 C10.33 2.32 10.66 3.64 11 5 C8.475 6.262 6.688 6.099 3.875 6.062 C2.965 6.053 2.055 6.044 1.117 6.035 C0.419 6.024 -0.28 6.012 -1 6 C-1.043 4.334 -1.041 2.666 -1 1 C-0.67 0.67 -0.34 0.34 0 0 Z " fill="#968573" transform="translate(80,146)"/>
<path d="M0 0 C2.798 1.666 3.856 2.532 4.828 5.699 C4.967 6.685 5.107 7.671 5.25 8.688 C5.4 9.681 5.549 10.675 5.703 11.699 C5.801 12.458 5.899 13.218 6 14 C5.34 14.33 5.34 14.33 2 16 C0.132 10.513 -0.236 5.778 0 0 Z " fill="#5D4C3D" transform="translate(51,38)"/>
<path d="M0 0 C1 2 1 2 0.125 5.062 C-1 8 -1 8 -2 9 C-2.041 10.666 -2.043 12.334 -2 14 C-2.33 14.165 -2.33 14.165 -4 15 C-4.763 14.216 -5.526 13.433 -6.312 12.625 C-9 10 -9 10 -12 8 C-10.845 7.835 -10.845 7.835 -5 7 C-5 6.01 -5 5.02 -5 4 C-4.01 3.67 -3.02 3.34 -2 3 C-1.34 2.01 -0.68 1.02 0 0 Z " fill="#998B7B" transform="translate(105,96)"/>
<path d="M0 0 C0.33 0 0.66 0 1 0 C1.049 0.88 1.098 1.761 1.148 2.668 C1.223 3.829 1.298 4.991 1.375 6.188 C1.41 6.762 1.41 6.762 1.586 9.668 C1.975 12.8 2.681 15.153 4 18 C4.66 16.68 5.32 15.36 6 14 C6 16.31 6 18.62 6 21 C1.125 18.125 1.125 18.125 0 17 C-0.33 17.66 -0.66 18.32 -1 19 C-2 18 -2 18 -2.125 15.125 C-2 12 -2 12 -1 9 C-1.66 8.34 -2.32 7.68 -3 7 C-2.34 7 -1.68 7 -1 7 C-0.67 4.69 -0.34 2.38 0 0 Z " fill="#958778" transform="translate(47,36)"/>
<path d="M0 0 C0.66 0.33 1.32 0.66 2 1 C2.414 3.941 2.414 3.941 2.625 7.562 C2.7 8.76 2.775 9.958 2.852 11.191 C2.901 12.118 2.95 13.045 3 14 C2.67 14.165 2.67 14.165 1 15 C-3.175 8.984 -3.175 8.984 -2.312 4.125 C-1 1 -1 1 0 0 Z " fill="#8F8070" transform="translate(89,135)"/>
<path d="M0 0 C0 2 0 4 0 6 C-2.812 6.688 -2.812 6.688 -6 7 C-7.875 5.562 -7.875 5.562 -9 4 C-6.735 -1.016 -5.276 -1.25 0 0 Z " fill="#B9AA99" transform="translate(44,75)"/>
<path d="M0 0 C0.66 0.33 1.32 0.66 2 1 C2.625 3.062 2.625 3.062 3 5 C0.554 7.257 -0.769 7.972 -4.125 8.375 C-4.599 8.313 -4.599 8.313 -7 8 C-7.66 7.01 -8.32 6.02 -9 5 C-8.34 5 -7.68 5 -7 5 C-6.67 4.01 -6.34 3.02 -6 2 C-4.35 2.33 -2.7 2.66 -1 3 C-0.67 2.01 -0.34 1.02 0 0 Z " fill="#A19282" transform="translate(61,56)"/>
<path d="M0 0 C0.33 0.495 0.33 0.495 2 3 C2.66 2.67 3.32 2.34 4 2 C5.369 6.517 4.471 9.588 3 14 C2.01 14 1.02 14 0 14 C0 9.38 0 4.76 0 0 Z " fill="#9D8E7E" transform="translate(107,87)"/>
<path d="M0 0 C0.33 0 0.66 0 1 0 C1.66 6.27 2.32 12.54 3 19 C2.34 19 1.68 19 1 19 C0.67 18.01 0.34 17.02 0 16 C-2.062 14.312 -2.062 14.312 -4 13 C-3.67 12.01 -3.34 11.02 -3 10 C-2.34 10.66 -1.68 11.32 -1 12 C-1.021 10.763 -1.041 9.525 -1.062 8.25 C-1.068 5.336 -0.93 2.79 0 0 Z " fill="#746456" transform="translate(18,35)"/>
<path d="M0 0 C0.66 0.33 0.66 0.33 4 2 C4.33 2 4.66 2 5 2 C5.226 7.419 4.467 11.775 3 17 C2.67 17 2.34 17 2 17 C1.34 11.39 0.68 5.78 0 0 Z " fill="#9B8D7E" transform="translate(67,73)"/>
<path d="M0 0 C0.33 0 0.66 0 1 0 C1.322 4.142 0.607 6.229 -1.75 9.625 C-2.26 10.38 -2.771 11.136 -3.297 11.914 C-5.056 14.069 -6.599 15.591 -9 17 C-9.99 16.67 -10.98 16.34 -12 16 C-10.71 14.624 -9.373 13.292 -8 12 C-7.34 12 -6.68 12 -6 12 C-4.02 8.04 -2.04 4.08 0 0 Z " fill="#887968" transform="translate(79,90)"/>
<path d="M0 0 C1.938 0.188 1.938 0.188 4 1 C6.029 4.118 6.222 6.581 6.125 10.25 C6.107 11.142 6.089 12.034 6.07 12.953 C6.059 13.291 6.059 13.291 6 15 C4.312 11.744 3.159 8.478 2 5 C1.67 4.67 1.34 4.34 1 4 C0.67 5.65 0.34 7.3 0 9 C-0.33 9 -0.66 9 -1 9 C-1.098 2.848 -1.098 2.848 -1 1 C-0.67 0.67 -0.34 0.34 0 0 Z " fill="#736252" transform="translate(51,35)"/>
<path d="M0 0 C0.299 0.103 0.299 0.103 1.812 0.625 C1.266 0.862 1.266 0.862 -1.5 2.062 C-4.91 3.961 -5.928 5.686 -7.125 9.375 C-7.505 10.785 -7.868 12.2 -8.188 13.625 C-10.188 12 -10.188 12 -12.188 9.625 C-12.438 6.375 -12.438 6.375 -12.188 3.625 C-11.858 3.625 -11.528 3.625 -11.188 3.625 C-10.858 5.275 -10.528 6.925 -10.188 8.625 C-9.861 8.143 -9.535 7.661 -9.199 7.164 C-8.762 6.532 -8.325 5.901 -7.875 5.25 C-7.446 4.624 -7.016 3.997 -6.574 3.352 C-4.611 0.908 -3.23 -0.554 0 0 Z " fill="#716353" transform="translate(80.1875,106.375)"/>
<path d="M0 0 C0.66 0.33 1.32 0.66 2 1 C1.67 2.32 1.34 3.64 1 5 C2.299 4.876 3.599 4.752 4.938 4.625 C5.668 4.555 6.399 4.486 7.152 4.414 C7.457 4.346 7.457 4.346 9 4 C9.33 3.34 9.66 2.68 10 2 C9.625 3.938 9.625 3.938 9 6 C6.235 7.382 3.954 7.095 0.875 7.062 C-0.221 7.053 -1.316 7.044 -2.445 7.035 C-2.867 7.029 -2.867 7.029 -5 7 C-3.68 6.67 -2.36 6.34 -1 6 C-1.021 5.196 -1.041 4.391 -1.062 3.562 C-1 1 -1 1 0 0 Z " fill="#796855" transform="translate(127,139)"/>
<path d="M0 0 C0.33 0 0.66 0 1 0 C2.506 5.808 3.218 10.998 3 17 C0 15 0 15 -0.547 13.047 C-0.95 8.492 -1.04 4.508 0 0 Z " fill="#AEA090" transform="translate(49,38)"/>
<path d="M0 0 C0.66 0.33 1.32 0.66 2 1 C0.749 6.687 -1.041 9.728 -5 14 C-5.66 13.67 -6.32 13.34 -7 13 C-6.526 12.608 -6.051 12.216 -5.562 11.812 C-3.622 9.562 -3.551 7.894 -3 5 C-1.438 2.188 -1.438 2.188 0 0 Z " fill="#9F9180" transform="translate(64,95)"/>
<path d="M0 0 C0.33 0 0.66 0 1 0 C0.741 4.398 0.439 6.495 -2.5 9.875 C-3.325 10.576 -4.15 11.278 -5 12 C-5.33 12.33 -5.66 12.66 -6 13 C-8.671 13.141 -11.324 13.042 -14 13 C-14 12.34 -14 11.68 -14 11 C-13.397 10.914 -12.793 10.827 -12.172 10.738 C-8.037 10.011 -5.607 9.577 -2.5 6.625 C-1.189 4.331 -0.384 2.595 0 0 Z " fill="#948574" transform="translate(14,90)"/>
<path d="M0 0 C0.66 0.33 1.32 0.66 2 1 C1.841 1.255 1.841 1.255 1.039 2.547 C-0.34 5.802 -0.429 8.728 -0.625 12.25 C-0.662 12.882 -0.662 12.882 -0.852 16.078 C-0.901 17.042 -0.95 18.007 -1 19 C-2.32 18.67 -3.64 18.34 -5 18 C-4.835 17.577 -4.835 17.577 -4 15.438 C-3 12 -3 12 -3.062 8.438 C-2.994 4.651 -2.195 3.018 0 0 Z " fill="#BCB0A2" transform="translate(19,54)"/>
<path d="M0 0 C0.66 0.33 1.32 0.66 2 1 C1.67 1.495 1.67 1.495 0 4 C-0.66 4 -1.32 4 -2 4 C-2 4.66 -2 5.32 -2 6 C-2.66 6 -3.32 6 -4 6 C-4.66 7.65 -5.32 9.3 -6 11 C-6.33 11 -6.66 11 -7 11 C-6.875 7.75 -6.875 7.75 -6 4 C-2.938 1.562 -2.938 1.562 0 0 Z " fill="#8F8070" transform="translate(80,107)"/>
<path d="M0 0 C1.32 0.33 2.64 0.66 4 1 C3.67 3.97 3.34 6.94 3 10 C1.68 9.67 0.36 9.34 -1 9 C-1.33 8.34 -1.66 7.68 -2 7 C-1.34 6.67 -0.68 6.34 0 6 C0 4.02 0 2.04 0 0 Z " fill="#A89C8F" transform="translate(150,103)"/>
<path d="M0 0 C0.99 0 1.98 0 3 0 C2.546 1.585 2.087 3.168 1.625 4.75 C1.37 5.632 1.115 6.513 0.852 7.422 C0.079 9.761 -0.836 11.834 -2 14 C-3.106 8.166 -3.271 5.234 0 0 Z " fill="#B3A294" transform="translate(13,30)"/>
<path d="M0 0 C1.98 0.33 1.98 0.33 12 2 C12 2.66 12 3.32 12 4 C10.375 4.027 8.75 4.046 7.125 4.062 C6.673 4.068 6.673 4.068 4.383 4.098 C2 4 2 4 0 3 C0 2.01 0 1.02 0 0 Z " fill="#DFD0BE" transform="translate(40,148)"/>
<path d="M0 0 C1.206 2.332 2.165 4.496 3 7 C1.562 9.688 1.562 9.688 0 12 C-0.66 11.34 -1.32 10.68 -2 10 C-1.679 6.468 -1.122 3.366 0 0 Z " fill="#8E8171" transform="translate(70,87)"/>
<path d="M0 0 C1.32 0.66 2.64 1.32 4 2 C1.03 4.64 -1.94 7.28 -5 10 C-5.33 8.68 -5.66 7.36 -6 6 C-5.196 5.381 -4.391 4.763 -3.562 4.125 C-1 2 -1 2 0 0 Z " fill="#A8988A" transform="translate(61,47)"/>
<path d="M0 0 C1.32 0 2.64 0 4 0 C6.25 2.5 6.25 2.5 8 5 C5.36 5.33 2.72 5.66 0 6 C0 4.02 0 2.04 0 0 Z " fill="#A59381" transform="translate(128,138)"/>
<path d="M0 0 C2.816 2.288 3.905 3.42 4.5 7.062 C4 10 4 10 2.312 11.875 C-0.333 13.162 -2.094 13.242 -5 13 C-4.381 12.732 -3.763 12.464 -3.125 12.188 C-1 11 -1 11 1 8 C1.233 4.891 0.995 2.986 0 0 Z " fill="#C7BDB0" transform="translate(44,84)"/>
<path d="M0 0 C0 0.66 0 1.32 0 2 C-0.66 2 -1.32 2 -2 2 C-1.67 3.65 -1.34 5.3 -1 7 C-3.31 6.34 -5.62 5.68 -8 5 C-8.33 3.68 -8.66 2.36 -9 1 C-8.34 1 -7.68 1 -7 1 C-6.67 1.66 -6.34 2.32 -6 3 C-5.381 2.505 -4.763 2.01 -4.125 1.5 C-2 0 -2 0 0 0 Z " fill="#7A6B5D" transform="translate(62,53)"/>
<path d="M0 0 C0.33 0 0.66 0 1 0 C1.133 0.687 1.266 1.374 1.402 2.082 C1.579 2.983 1.756 3.884 1.938 4.812 C2.025 5.259 2.025 5.259 2.465 7.52 C3 10 3 10 4 13 C1.625 14.562 1.625 14.562 -1 16 C-1.66 15.67 -2.32 15.34 -3 15 C-2.34 14.34 -1.68 13.68 -1 13 C-0.586 9.961 -0.586 9.961 -0.375 6.375 C-0.3 5.186 -0.225 3.998 -0.148 2.773 C-0.099 1.858 -0.05 0.943 0 0 Z " fill="#897969" transform="translate(71,127)"/>
<path d="M0 0 C0.557 0.021 0.557 0.021 3.375 0.125 C3.375 1.115 3.375 2.105 3.375 3.125 C2.591 3.434 1.808 3.744 1 4.062 C-1.625 5.125 -1.625 5.125 -3.625 6.125 C-3.625 5.465 -3.625 4.805 -3.625 4.125 C-4.285 3.465 -4.945 2.805 -5.625 2.125 C-3.625 0.125 -3.625 0.125 0 0 Z " fill="#B6A898" transform="translate(19.625,104.875)"/>
<path d="M0 0 C3.375 0.547 5.082 1.055 8 3 C7 5 7 5 5.125 5.812 C3 6 3 6 1.25 4.75 C0 3 0 3 0 0 Z " fill="#D5C6B5" transform="translate(10,73)"/>
<path d="M0 0 C0.33 0 0.66 0 1 0 C0.928 0.615 0.856 1.23 0.781 1.863 C0.688 2.672 0.596 3.48 0.5 4.312 C0.407 5.113 0.314 5.914 0.219 6.738 C-0.243 11.514 -0.243 11.514 1 14 C-1.31 13.34 -3.62 12.68 -6 12 C-6 11.34 -6 10.68 -6 10 C-5.68 9.907 -5.68 9.907 -4.062 9.438 C-2 8 -2 8 -1.312 4.438 C-1.261 3.87 -1.261 3.87 -1 1 C-0.67 0.67 -0.34 0.34 0 0 Z " fill="#A59789" transform="translate(16,61)"/>
<path d="M0 0 C-0.33 1.32 -0.66 2.64 -1 4 C-4.3 4.66 -7.6 5.32 -11 6 C-7.814 1.752 -5.394 0 0 0 Z " fill="#C2B6A8" transform="translate(34,48)"/>
<path d="M0 0 C0.66 0 1.32 0 2 0 C1.01 4.95 0.02 9.9 -1 15 C-1.33 15 -1.66 15 -2 15 C-2.054 13.063 -2.093 11.125 -2.125 9.188 C-2.148 8.109 -2.171 7.03 -2.195 5.918 C-2 3 -2 3 0 0 Z " fill="#726657" transform="translate(110,120)"/>
<path d="M0 0 C0.66 0 1.32 0 2 0 C2.144 0.928 2.289 1.856 2.438 2.812 C3 6 3 6 4 9 C3.01 9 2.02 9 1 9 C0.67 10.32 0.34 11.64 0 13 C-0.197 11.585 -0.382 10.168 -0.562 8.75 C-0.667 7.961 -0.771 7.172 -0.879 6.359 C-1 3.995 -0.696 2.249 0 0 Z " fill="#938677" transform="translate(42,119)"/>
<path d="M0 0 C0.961 2.596 1.077 3.77 0.188 6.438 C-0.204 7.283 -0.596 8.129 -1 9 C-1.371 9.928 -1.743 10.856 -2.125 11.812 C-2.414 12.534 -2.703 13.256 -3 14 C-3.66 14 -4.32 14 -5 14 C-4.235 8.952 -2.272 4.545 0 0 Z " fill="#9C8E7E" transform="translate(76,113)"/>
<path d="M0 0 C0.99 0.33 1.98 0.66 3 1 C2.34 4.96 1.68 8.92 1 13 C0.34 12.34 -0.32 11.68 -1 11 C-0.977 8.398 -0.977 8.398 -0.625 5.375 C-0.514 4.372 -0.403 3.369 -0.289 2.336 C-0.194 1.565 -0.098 0.794 0 0 Z " fill="#9D8F7F" transform="translate(133,81)"/>
<path d="M0 0 C-0.33 1.32 -0.66 2.64 -1 4 C-1.33 3.34 -1.66 2.68 -2 2 C-2.742 2.474 -3.485 2.949 -4.25 3.438 C-6.611 4.779 -8.366 5.512 -11 6 C-8.348 2.268 -4.959 -2.479 0 0 Z " fill="#EAE5DB" transform="translate(41,120)"/>
<path d="M0 0 C5.233 1.64 10.152 3.39 15 6 C14.67 6.66 14.34 7.32 14 8 C12.225 7.238 10.455 6.465 8.688 5.688 C8.194 5.473 8.194 5.473 5.699 4.387 C3.259 3.133 1.769 2.058 0 0 Z " fill="#5E5042" transform="translate(49,115)"/>
<path d="M0 0 C1.32 0 2.64 0 4 0 C4 1.98 4 3.96 4 6 C3.34 6 2.68 6 2 6 C1.34 7.32 0.68 8.64 0 10 C0 6.7 0 3.4 0 0 Z " fill="#978777" transform="translate(90,122)"/>
<path d="M0 0 C1.5 1.188 1.5 1.188 3 3 C3.188 5.688 3.188 5.688 3 8 C1.68 8.33 0.36 8.66 -1 9 C-2.033 6.212 -2.045 5.132 -1.062 2.25 C-0.712 1.507 -0.361 0.765 0 0 Z " fill="#E9E3D9" transform="translate(144,99)"/>
<path d="M0 0 C0.33 0 0.66 0 1 0 C0.954 0.687 0.907 1.374 0.859 2.082 C0.823 2.983 0.787 3.884 0.75 4.812 C0.704 5.706 0.657 6.599 0.609 7.52 C1 10 1 10 3.016 11.824 C3.67 12.212 4.325 12.6 5 13 C4.34 13 3.68 13 3 13 C2.67 13.66 2.34 14.32 2 15 C0.35 13.68 -1.3 12.36 -3 11 C-2.34 11 -1.68 11 -1 11 C-0.67 7.37 -0.34 3.74 0 0 Z " fill="#8E7D6B" transform="translate(9,72)"/>
<path d="M0 0 C5.058 0.474 9.01 3.008 13 6 C13.33 6.66 13.66 7.32 14 8 C13.505 7.732 13.01 7.464 12.5 7.188 C9.076 5.561 5.559 4.305 2 3 C2 2.34 2 1.68 2 1 C1.34 0.67 0.68 0.34 0 0 Z " fill="#CFC3B4" transform="translate(116,42)"/>
<path d="M0 0 C0.825 0.165 0.825 0.165 5 1 C4.67 2.98 4.34 4.96 4 7 C2.68 6.67 1.36 6.34 0 6 C0 4.02 0 2.04 0 0 Z " fill="#90816F" transform="translate(115,138)"/>
<path d="M0 0 C0.892 0.009 1.784 0.018 2.703 0.027 C3.379 0.039 4.054 0.051 4.75 0.062 C4.42 0.722 4.09 1.382 3.75 2.062 C1.57 2.547 1.57 2.547 -1.125 2.812 C-2.009 2.91 -2.894 3.008 -3.805 3.109 C-6.25 3.062 -6.25 3.062 -9.25 1.062 C-6.095 0.126 -3.284 -0.043 0 0 Z " fill="#847565" transform="translate(88.25,103.9375)"/>
<path d="M0 0 C1.32 0 2.64 0 4 0 C3.812 1.875 3.812 1.875 3 4 C0.438 5.25 0.438 5.25 -2 6 C-1.125 1.125 -1.125 1.125 0 0 Z " fill="#4C3628" transform="translate(18,109)"/>
<path d="M0 0 C1.32 0 2.64 0 4 0 C4 1.65 4 3.3 4 5 C2.35 5 0.7 5 -1 5 C-0.67 3.35 -0.34 1.7 0 0 Z " fill="#C1B09D" transform="translate(73,147)"/>
<path d="M0 0 C0 3.96 0 7.92 0 12 C-3.798 6.936 -3.798 6.936 -4 3 C-1.724 0 -1.724 0 0 0 Z " fill="#9E8F80" transform="translate(139,111)"/>
<path d="M0 0 C0.99 0 1.98 0 3 0 C2.385 5.538 2.385 5.538 0.438 7.875 C-0.037 8.246 -0.511 8.618 -1 9 C-2.255 5.234 -1.371 3.628 0 0 Z " fill="#9E9080" transform="translate(140,101)"/>
<path d="M0 0 C0.66 0 1.32 0 2 0 C2.33 1.65 2.66 3.3 3 5 C3.99 5.33 4.98 5.66 6 6 C6 6.99 6 7.98 6 9 C5.34 9 4.68 9 4 9 C3.67 9.495 3.67 9.495 2 12 C1.939 11.385 1.879 10.77 1.816 10.137 C1.733 9.328 1.649 8.52 1.562 7.688 C1.481 6.887 1.4 6.086 1.316 5.262 C1 3 1 3 0 0 Z " fill="#C5B8AB" transform="translate(65,36)"/>
<path d="M0 0 C0.33 0.66 0.66 1.32 1 2 C0.67 2.99 0.34 3.98 0 5 C-1.98 5 -3.96 5 -6 5 C-6.33 4.34 -6.66 3.68 -7 3 C-4.69 2.01 -2.38 1.02 0 0 Z " fill="#C6BDB2" transform="translate(46,37)"/>
<path d="M0 0 C-0.33 0.99 -0.66 1.98 -1 3 C-2.98 3.33 -4.96 3.66 -7 4 C-7 3.34 -7 2.68 -7 2 C-8.32 1.67 -9.64 1.34 -11 1 C-9.542 0.832 -8.083 0.666 -6.625 0.5 C-5.813 0.407 -5.001 0.314 -4.164 0.219 C-2 0 -2 0 0 0 Z " fill="#CFC1AF" transform="translate(59,148)"/>
<path d="M0 0 C0.825 0.165 0.825 0.165 5 1 C4.67 3.31 4.34 5.62 4 8 C3.67 7.34 3.34 6.68 3 6 C2.01 6 1.02 6 0 6 C0 4.02 0 2.04 0 0 Z " fill="#EDE3D6" transform="translate(110,134)"/>
<path d="M0 0 C1.125 1.75 1.125 1.75 2 4 C0.911 7.871 -1.858 9.685 -5 12 C-4.34 9.69 -3.68 7.38 -3 5 C-2.01 5.33 -1.02 5.66 0 6 C0 4.02 0 2.04 0 0 Z " fill="#938578" transform="translate(26,41)"/>
<path d="M0 0 C4.032 2.016 5.609 3.28 8 7 C7.67 8.32 7.34 9.64 7 11 C4.69 7.37 2.38 3.74 0 0 Z " fill="#BEB2A2" transform="translate(56,28)"/>
<path d="M0 0 C0 3.977 -1.38 5.089 -4 8 C-6.25 9.812 -6.25 9.812 -8 11 C-8.33 10.01 -8.66 9.02 -9 8 C-6.03 5.36 -3.06 2.72 0 0 Z " fill="#716253" transform="translate(125,106)"/>
<path d="M0 0 C0.66 0.165 0.66 0.165 4 1 C2.68 3.64 1.36 6.28 0 9 C-0.33 9 -0.66 9 -1 9 C-1.125 2.25 -1.125 2.25 0 0 Z " fill="#8F8170" transform="translate(71,107)"/>
<path d="M0 0 C0.66 0.33 1.32 0.66 2 1 C2.625 3.062 2.625 3.062 3 5 C1.02 5.66 -0.96 6.32 -3 7 C-3.33 5.68 -3.66 4.36 -4 3 C-3.01 3 -2.02 3 -1 3 C-0.67 2.01 -0.34 1.02 0 0 Z " fill="#988979" transform="translate(61,56)"/>
<path d="M0 0 C0.99 0.33 1.98 0.66 3 1 C3 2.32 3 3.64 3 5 C1.35 5 -0.3 5 -2 5 C-1.125 1.125 -1.125 1.125 0 0 Z " fill="#BCAB98" transform="translate(81,147)"/>
<path d="M0 0 C-0.33 1.98 -0.66 3.96 -1 6 C-1.99 6 -2.98 6 -4 6 C-4.33 4.68 -4.66 3.36 -5 2 C-2 0 -2 0 0 0 Z " fill="#EEEAE4" transform="translate(117,116)"/>
<path d="M0 0 C1.32 0.66 2.64 1.32 4 2 C3.67 2.99 3.34 3.98 3 5 C2.01 5.33 1.02 5.66 0 6 C-0.99 4.68 -1.98 3.36 -3 2 C-2.01 2 -1.02 2 0 2 C0 1.34 0 0.68 0 0 Z " fill="#AA9C8C" transform="translate(51,56)"/>
<path d="M0 0 C0.578 0.454 1.155 0.907 1.75 1.375 C3.78 2.841 5.735 3.949 8 5 C8 5.66 8 6.32 8 7 C5.259 6.63 3.414 6.314 1.188 4.625 C0 3 0 3 0 0 Z " fill="#968779" transform="translate(11,46)"/>
<path d="M0 0 C-0.66 0 -1.32 0 -2 0 C-1.67 1.32 -1.34 2.64 -1 4 C-2.32 3.67 -3.64 3.34 -5 3 C-5 2.01 -5 1.02 -5 0 C-5.66 -0.33 -6.32 -0.66 -7 -1 C-3.514 -2.202 -3.32 -2.213 0 0 Z " fill="#C6B9AA" transform="translate(100,42)"/>
<path d="M0 0 C0.99 0.33 1.98 0.66 3 1 C3 2.32 3 3.64 3 5 C1.35 4.67 -0.3 4.34 -2 4 C-1.34 2.68 -0.68 1.36 0 0 Z " fill="#A18E7B" transform="translate(49,143)"/>
<path d="M0 0 C0.66 0.33 1.32 0.66 2 1 C0.951 3.622 0.351 4.794 -2.125 6.25 C-2.744 6.498 -3.363 6.745 -4 7 C-3.436 3.73 -2.5 2.174 0 0 Z " fill="#9F9181" transform="translate(29,115)"/>
<path d="M0 0 C1.35 4.05 0.621 6.792 0 11 C-2.094 7.598 -2.179 4.947 -2 1 C-1.34 0.67 -0.68 0.34 0 0 Z " fill="#8C7E6D" transform="translate(127,107)"/>
<path d="M0 0 C0.99 0 1.98 0 3 0 C2.812 1.812 2.812 1.812 2 4 C-0.562 5.75 -0.562 5.75 -3 7 C-1.125 1.125 -1.125 1.125 0 0 Z " fill="#927F71" transform="translate(17,29)"/>
<path d="M0 0 C1.506 1.964 2.891 3.783 4 6 C3.34 6 2.68 6 2 6 C1.67 6.99 1.34 7.98 1 9 C0.01 8.67 -0.98 8.34 -2 8 C-1.34 5.36 -0.68 2.72 0 0 Z " fill="#E6DDD0" transform="translate(138,136)"/>
<path d="M0 0 C0.562 1.937 0.562 1.937 1 4 C0 5 0 5 -1.848 5.098 C-3.898 5.065 -5.949 5.033 -8 5 C-6.812 3.5 -6.812 3.5 -5 2 C-2.312 1.812 -2.312 1.812 0 2 C0 1.34 0 0.68 0 0 Z " fill="#897D6E" transform="translate(72,118)"/>
<path d="M0 0 C-2.463 2.463 -4.707 2.998 -8 4 C-5.977 -0.48 -4.796 -1.439 0 0 Z " fill="#C5B9AA" transform="translate(43,75)"/>
<path d="M0 0 C1.32 0 2.64 0 4 0 C4 1.32 4 2.64 4 4 C2.35 4 0.7 4 -1 4 C-0.67 2.68 -0.34 1.36 0 0 Z " fill="#847665" transform="translate(96,137)"/>
<path d="M0 0 C-2.882 0.961 -4.699 1.106 -7.688 1.062 C-8.092 1.058 -8.092 1.058 -10.137 1.035 C-10.444 1.029 -10.444 1.029 -12 1 C-4.572 -2.776 -4.572 -2.776 0 0 Z " fill="#8A7C6C" transform="translate(111,118)"/>
<path d="M0 0 C0.99 0.33 1.98 0.66 3 1 C0.69 3.31 -1.62 5.62 -4 8 C-4.33 7.34 -4.66 6.68 -5 6 C-3.35 4.02 -1.7 2.04 0 0 Z " fill="#A59685" transform="translate(82,107)"/>
<path d="M0 0 C5.75 0.75 5.75 0.75 8 3 C7.625 5.125 7.625 5.125 7 7 C4.667 4.667 2.333 2.333 0 0 Z " fill="#736555" transform="translate(92,105)"/>
<path d="M0 0 C2.31 0.33 4.62 0.66 7 1 C6.67 1.495 6.67 1.495 5 4 C3.35 3.67 1.7 3.34 0 3 C0 2.01 0 1.02 0 0 Z " fill="#513823" transform="translate(38,92)"/>
<path d="M0 0 C0.33 0.99 0.66 1.98 1 3 C-2 5 -2 5 -5.188 4.625 C-6.116 4.419 -7.044 4.213 -8 4 C-8 3.67 -8 3.34 -8 3 C-5.36 2.67 -2.72 2.34 0 2 C0 1.34 0 0.68 0 0 Z " fill="#887867" transform="translate(136,141)"/>
<path d="M0 0 C0.66 0.165 0.66 0.165 4 1 C4 1.99 4 2.98 4 4 C2.35 4 0.7 4 -1 4 C-0.67 2.68 -0.34 1.36 0 0 Z " fill="#B4A18E" transform="translate(122,140)"/>
<path d="M0 0 C0.33 0 0.66 0 1 0 C1.201 3.716 1.152 4.772 -1 8 C-1.66 8 -2.32 8 -3 8 C-1.125 1.125 -1.125 1.125 0 0 Z " fill="#938373" transform="translate(79,90)"/>
<path d="M0 0 C2 3 2 3 2 5 C1.34 5.33 1.34 5.33 -2 7 C-2.125 4.625 -2.125 4.625 -2 2 C-1.34 1.34 -0.68 0.68 0 0 Z " fill="#A79888" transform="translate(110,89)"/>
<path d="M0 0 C2.438 0.688 2.438 0.688 5 2 C5.812 4.625 5.812 4.625 6 7 C3.007 5.902 2.154 5.323 0.75 2.375 C0.502 1.591 0.255 0.807 0 0 Z " fill="#BDAFA0" transform="translate(95,47)"/>
</svg>
