<?xml version="1.0" encoding="UTF-8"?>
<!-- Generator: visioncortex VTracer 0.6.12 -->
<svg version="1.1" xmlns="http://www.w3.org/2000/svg" width="190" height="165">
<path d="M0 0 C62.7 0 125.4 0 190 0 C190 54.45 190 108.9 190 165 C127.3 165 64.6 165 0 165 C0 110.55 0 56.1 0 0 Z " fill="#FDF7EE" transform="translate(0,0)"/>
<path d="M0 0 C2.375 0.75 2.375 0.75 3.375 1.75 C3.457 3.008 3.54 4.266 3.625 5.562 C4.221 11.824 6.82 17.05 9.375 22.75 C13.995 22.75 18.615 22.75 23.375 22.75 C24.247 20.547 25.097 18.34 25.938 16.125 C26.175 15.51 26.175 15.51 27.379 12.398 C28.419 8.587 28.11 6.549 27.375 2.75 C28.035 1.76 28.695 0.77 29.375 -0.25 C31.875 -0.562 31.875 -0.562 34.375 -0.25 C36.375 1.75 36.375 1.75 36.5 4.375 C36.459 5.159 36.417 5.943 36.375 6.75 C35.737 6.995 35.098 7.24 34.44 7.492 C32.375 8.75 32.375 8.75 31.646 10.629 C31.541 11.373 31.436 12.117 31.328 12.883 C31.206 13.688 31.083 14.494 30.957 15.324 C30.847 16.166 30.738 17.008 30.625 17.875 C30.5 18.724 30.375 19.574 30.246 20.449 C29.94 22.547 29.655 24.648 29.375 26.75 C29.76 26.878 29.76 26.878 31.707 27.523 C35.918 29.459 37.415 32.679 39.375 36.75 C40.302 39.391 40.872 42.001 41.375 44.75 C41.684 45.946 41.994 47.142 42.312 48.375 C42.382 52.113 41.665 53.579 39.113 56.281 C36.403 58.571 33.429 60.383 30.363 62.16 C25.971 65.672 26.023 70.856 25.439 76.099 C24.392 85.359 23.161 93.156 17.375 100.75 C16.845 101.517 16.315 102.284 15.77 103.074 C9.946 110.235 1.993 110.745 -6.625 111.75 C-7.526 111.879 -8.427 112.008 -9.355 112.141 C-22.313 113.79 -35.721 112.662 -48.717 111.95 C-51.281 111.811 -53.846 111.679 -56.41 111.549 C-58.057 111.461 -59.704 111.374 -61.352 111.285 C-62.11 111.247 -62.868 111.208 -63.65 111.168 C-67.398 110.958 -70.959 110.55 -74.625 109.75 C-78.426 109.49 -82.226 109.308 -86.031 109.129 C-90.487 108.659 -93.488 108.083 -96.438 104.625 C-96.829 104.006 -97.221 103.387 -97.625 102.75 C-95.109 99.89 -92.286 98.335 -88.938 96.562 C-87.944 96.033 -86.95 95.503 -85.926 94.957 C-85.167 94.559 -84.407 94.16 -83.625 93.75 C-83.824 93.502 -83.824 93.502 -84.832 92.246 C-93.41 81.246 -95.208 69.486 -93.625 55.75 C-91.045 44.485 -83.861 33.211 -74.25 26.812 C-72.396 25.754 -70.521 24.731 -68.625 23.75 C-67.822 23.317 -67.019 22.884 -66.191 22.438 C-57.034 18.107 -46.376 18.433 -36.922 21.785 C-22.805 27.715 -15.564 36.998 -9.625 50.75 C-8.467 54.223 -8.556 57.111 -8.625 60.75 C-7.965 60.75 -7.305 60.75 -6.625 60.75 C-5.178 56.306 -4.334 52.008 -3.688 47.375 C-1.703 33.828 -1.703 33.828 2.375 29.75 C3.411 23.509 2.223 16.372 -0.625 10.75 C-1.938 10.045 -3.271 9.374 -4.625 8.75 C-5.562 5.813 -5.562 5.813 -5.625 2.75 C-3.99 -0.066 -3.249 -0.309 0 0 Z " fill="#9F5E26" transform="translate(115.625,31.25)"/>
<path d="M0 0 C62.7 0 125.4 0 190 0 C190 54.45 190 108.9 190 165 C127.3 165 64.6 165 0 165 C0 110.55 0 56.1 0 0 Z M14 11 C12.699 13.603 12.871 15.499 12.866 18.415 C12.862 19.564 12.858 20.714 12.853 21.899 C12.854 23.166 12.854 24.434 12.855 25.74 C12.852 27.083 12.848 28.427 12.845 29.77 C12.836 33.425 12.833 37.08 12.833 40.735 C12.832 43.785 12.828 46.834 12.825 49.883 C12.816 57.077 12.814 64.27 12.815 71.464 C12.815 78.888 12.805 86.312 12.789 93.736 C12.776 100.107 12.771 106.477 12.771 112.847 C12.771 116.654 12.769 120.46 12.758 124.266 C12.748 127.847 12.748 131.427 12.755 135.007 C12.757 136.948 12.749 138.889 12.74 140.83 C12.744 141.986 12.748 143.141 12.753 144.331 C12.752 145.335 12.752 146.339 12.751 147.374 C13.017 150.178 13.336 151.728 15 154 C18.829 156.134 22.239 156.251 26.566 156.254 C26.889 156.256 26.889 156.256 28.523 156.263 C30.68 156.271 32.836 156.265 34.992 156.259 C36.541 156.262 38.091 156.265 39.64 156.269 C43.842 156.279 48.045 156.275 52.247 156.269 C56.646 156.264 61.046 156.268 65.445 156.271 C72.832 156.275 80.22 156.27 87.607 156.261 C96.147 156.25 104.686 156.253 113.225 156.264 C120.559 156.273 127.892 156.275 135.226 156.27 C139.605 156.266 143.984 156.266 148.363 156.273 C152.48 156.278 156.597 156.274 160.715 156.263 C162.225 156.26 163.735 156.261 165.246 156.265 C167.309 156.271 169.371 156.264 171.434 156.254 C172.588 156.253 173.742 156.252 174.931 156.252 C179.082 155.911 181.804 155.19 184.789 152.22 C186.295 149.46 186.377 147.619 186.381 144.479 C186.385 143.917 186.385 143.917 186.407 141.076 C186.401 139.849 186.394 138.621 186.388 137.356 C186.393 136.06 186.399 134.764 186.404 133.428 C186.418 129.874 186.412 126.32 186.403 122.766 C186.395 119.043 186.402 115.32 186.407 111.597 C186.413 105.342 186.405 99.087 186.391 92.832 C186.375 85.61 186.38 78.388 186.397 71.166 C186.41 64.959 186.412 58.753 186.404 52.546 C186.4 48.842 186.399 45.138 186.409 41.434 C186.419 37.3 186.405 33.166 186.388 29.032 C186.391 28.421 186.391 28.421 186.407 25.33 C186.36 19.153 186.144 14.397 183 9 C179.589 7.295 175.686 7.819 171.931 7.795 C171.459 7.79 171.459 7.79 169.067 7.765 C165.907 7.733 162.746 7.708 159.586 7.684 C157.362 7.663 155.139 7.642 152.915 7.62 C145.735 7.552 138.555 7.495 131.375 7.438 C128.934 7.418 126.494 7.397 124.053 7.377 C113.196 7.288 102.339 7.203 91.482 7.125 C81.731 7.054 71.979 6.975 62.228 6.867 C56.203 6.8 50.178 6.752 44.152 6.714 C41.855 6.696 39.559 6.672 37.262 6.641 C34.178 6.6 31.096 6.584 28.012 6.574 C27.149 6.557 26.287 6.539 25.398 6.521 C20.333 6.54 17.66 7.158 14 11 Z " fill="#FEFDFD" transform="translate(0,0)"/>
<path d="M0 0 C2.375 0.75 2.375 0.75 3.375 1.75 C3.457 3.008 3.54 4.266 3.625 5.562 C4.221 11.824 6.82 17.05 9.375 22.75 C13.995 22.75 18.615 22.75 23.375 22.75 C24.247 20.547 25.097 18.34 25.938 16.125 C26.175 15.51 26.175 15.51 27.379 12.398 C28.419 8.587 28.11 6.549 27.375 2.75 C28.035 1.76 28.695 0.77 29.375 -0.25 C31.875 -0.562 31.875 -0.562 34.375 -0.25 C36.375 1.75 36.375 1.75 36.5 4.375 C36.459 5.159 36.417 5.943 36.375 6.75 C35.737 6.995 35.098 7.24 34.44 7.492 C32.375 8.75 32.375 8.75 31.646 10.629 C31.541 11.373 31.436 12.117 31.328 12.883 C31.206 13.688 31.083 14.494 30.957 15.324 C30.847 16.166 30.738 17.008 30.625 17.875 C30.5 18.724 30.375 19.574 30.246 20.449 C29.94 22.547 29.655 24.648 29.375 26.75 C29.76 26.878 29.76 26.878 31.707 27.523 C35.918 29.459 37.415 32.679 39.375 36.75 C40.302 39.391 40.872 42.001 41.375 44.75 C41.684 45.946 41.994 47.142 42.312 48.375 C42.382 52.113 41.665 53.579 39.113 56.281 C36.403 58.571 33.429 60.383 30.363 62.16 C25.971 65.672 26.023 70.856 25.439 76.099 C24.392 85.359 23.161 93.156 17.375 100.75 C16.845 101.517 16.315 102.284 15.77 103.074 C9.946 110.235 1.993 110.745 -6.625 111.75 C-7.526 111.879 -8.427 112.008 -9.355 112.141 C-22.313 113.79 -35.721 112.662 -48.717 111.95 C-51.281 111.811 -53.846 111.679 -56.41 111.549 C-58.057 111.461 -59.704 111.374 -61.352 111.285 C-62.11 111.247 -62.868 111.208 -63.65 111.168 C-67.398 110.958 -70.959 110.55 -74.625 109.75 C-78.426 109.49 -82.226 109.308 -86.031 109.129 C-90.487 108.659 -93.488 108.083 -96.438 104.625 C-96.829 104.006 -97.221 103.387 -97.625 102.75 C-94.959 99.299 -91.752 98.708 -87.625 97.75 C-86.635 97.75 -85.645 97.75 -84.625 97.75 C-84.625 98.74 -84.625 99.73 -84.625 100.75 C-85.285 101.08 -85.285 101.08 -88.625 102.75 C-85.985 102.75 -83.345 102.75 -80.625 102.75 C-80.625 103.08 -80.625 103.41 -80.625 103.75 C-78.835 104.112 -77.043 104.465 -75.25 104.812 C-74.252 105.01 -73.255 105.207 -72.227 105.41 C-69.625 105.75 -69.625 105.75 -67.625 104.75 C-65.58 104.892 -63.538 105.088 -61.5 105.312 C-55.958 105.805 -51.879 105.501 -46.625 103.75 C-46.295 104.41 -45.965 105.07 -45.625 105.75 C-44.305 104.76 -42.985 103.77 -41.625 102.75 C-41.625 103.41 -41.625 104.07 -41.625 104.75 C-40.965 104.75 -40.305 104.75 -39.625 104.75 C-39.625 104.09 -39.625 103.43 -39.625 102.75 C-38.305 102.75 -36.985 102.75 -35.625 102.75 C-35.295 104.07 -34.965 105.39 -34.625 106.75 C-33.965 106.75 -33.305 106.75 -32.625 106.75 C-32.625 105.1 -32.625 103.45 -32.625 101.75 C-30.975 101.585 -30.975 101.585 -22.625 100.75 C-22.295 99.1 -21.965 97.45 -21.625 95.75 C-20.965 96.08 -20.305 96.41 -19.625 96.75 C-19.13 96.915 -19.13 96.915 -16.625 97.75 C-16.295 97.09 -15.965 96.43 -15.625 95.75 C-14.965 96.08 -14.305 96.41 -13.625 96.75 C-14.12 96.09 -14.12 96.09 -16.625 92.75 C-15.47 92.42 -15.47 92.42 -9.625 90.75 C-9.955 89.1 -10.285 87.45 -10.625 85.75 C-9.965 85.75 -9.305 85.75 -8.625 85.75 C-8.955 84.1 -9.285 82.45 -9.625 80.75 C-11.275 80.42 -12.925 80.09 -14.625 79.75 C-14.625 79.09 -14.625 78.43 -14.625 77.75 C-13.965 77.75 -13.305 77.75 -12.625 77.75 C-12.295 77.09 -11.965 76.43 -11.625 75.75 C-12.285 75.42 -12.945 75.09 -13.625 74.75 C-12.635 74.75 -11.645 74.75 -10.625 74.75 C-10.625 74.09 -10.625 73.43 -10.625 72.75 C-11.285 72.75 -11.945 72.75 -12.625 72.75 C-11.998 68.11 -11.998 68.11 -10.211 66.387 C-4.795 60.797 -4.11 51.188 -3.121 43.848 C-2.307 38.763 -1.341 33.466 2.375 29.75 C3.411 23.509 2.223 16.372 -0.625 10.75 C-1.938 10.045 -3.271 9.374 -4.625 8.75 C-5.562 5.813 -5.562 5.813 -5.625 2.75 C-3.99 -0.066 -3.249 -0.309 0 0 Z " fill="#BC905C" transform="translate(115.625,31.25)"/>
<path d="M0 0 C2.077 1.67 2.357 2.785 2.715 5.379 C1.725 5.049 0.735 4.719 -0.285 4.379 C-1.275 5.039 -2.265 5.699 -3.285 6.379 C-0.975 6.709 1.335 7.039 3.715 7.379 C3.715 7.709 3.715 8.039 3.715 8.379 C1.405 8.709 -0.905 9.039 -3.285 9.379 C-3.285 10.699 -3.285 12.019 -3.285 13.379 C-3.285 14.039 -3.285 14.699 -3.285 15.379 C-2.605 15.049 -1.924 14.719 -1.223 14.379 C2.223 13.206 5.099 13.237 8.715 13.379 C9.045 12.719 9.375 12.059 9.715 11.379 C11.277 13.754 11.277 13.754 12.715 16.379 C12.385 17.039 12.055 17.699 11.715 18.379 C11.385 18.049 11.385 18.049 9.715 16.379 C7.656 16.113 7.656 16.113 5.277 16.129 C4.495 16.124 3.712 16.119 2.906 16.113 C-0.365 16.51 -1.968 17.98 -3.973 20.504 C-4.406 21.123 -4.839 21.741 -5.285 22.379 C-4.625 23.039 -3.965 23.699 -3.285 24.379 C-3.285 25.369 -3.285 26.359 -3.285 27.379 C-3.018 27.235 -3.018 27.235 -1.668 26.504 C4.311 23.525 9.082 22.88 15.715 23.379 C15.715 24.039 15.715 24.699 15.715 25.379 C14.562 25.303 13.41 25.227 12.223 25.148 C7.312 25.154 3.854 26.778 -0.41 29.066 C-0.749 29.236 -0.749 29.236 -2.461 30.096 C-5.827 31.837 -8.774 33.674 -11.652 36.148 C-14.285 38.379 -14.285 38.379 -16.285 38.379 C-17.618 33.046 -18.952 27.712 -20.285 22.379 C-20.945 22.379 -21.605 22.379 -22.285 22.379 C-21.935 22.956 -21.584 23.534 -21.223 24.129 C-20.136 26.737 -20.355 27.773 -21.285 30.379 C-21.945 30.379 -22.605 30.379 -23.285 30.379 C-24.623 30.694 -25.957 31.025 -27.285 31.379 C-27.12 32.204 -27.12 32.204 -26.285 36.379 C-24.965 36.709 -23.645 37.039 -22.285 37.379 C-22.945 37.544 -22.945 37.544 -26.285 38.379 C-26.274 39.054 -26.262 39.73 -26.25 40.426 C-26.241 41.318 -26.232 42.21 -26.223 43.129 C-26.211 44.011 -26.199 44.892 -26.188 45.801 C-26.277 48.161 -26.616 50.124 -27.285 52.379 C-26.295 53.039 -25.305 53.699 -24.285 54.379 C-25.935 54.379 -27.585 54.379 -29.285 54.379 C-29.285 55.039 -29.285 55.699 -29.285 56.379 C-29.945 56.544 -29.945 56.544 -33.285 57.379 C-33.285 56.719 -33.285 56.059 -33.285 55.379 C-35.244 53.665 -37.244 51.995 -39.285 50.379 C-36.285 50.379 -36.285 50.379 -34.285 51.379 C-32.965 51.379 -31.645 51.379 -30.285 51.379 C-30.141 50.801 -29.996 50.224 -29.848 49.629 C-29.327 47.546 -28.806 45.462 -28.285 43.379 C-28.615 43.214 -28.615 43.214 -30.285 42.379 C-29.625 42.379 -28.965 42.379 -28.285 42.379 C-28.285 41.389 -28.285 40.399 -28.285 39.379 C-30.595 39.379 -32.905 39.379 -35.285 39.379 C-34.955 38.719 -34.625 38.059 -34.285 37.379 C-31.223 36.754 -31.223 36.754 -28.285 36.379 C-28.45 35.719 -28.45 35.719 -29.285 32.379 C-31.265 33.039 -33.245 33.699 -35.285 34.379 C-35.285 33.059 -35.285 31.739 -35.285 30.379 C-35.78 30.214 -35.78 30.214 -38.285 29.379 C-38.45 28.554 -38.45 28.554 -39.285 24.379 C-40.048 24.42 -40.811 24.461 -41.598 24.504 C-44.285 24.379 -44.285 24.379 -47.285 22.379 C-47.945 22.379 -48.605 22.379 -49.285 22.379 C-49.285 21.719 -49.285 21.059 -49.285 20.379 C-49.945 20.379 -50.605 20.379 -51.285 20.379 C-51.285 21.699 -51.285 23.019 -51.285 24.379 C-50.357 24.317 -49.429 24.255 -48.473 24.191 C-45.285 24.379 -45.285 24.379 -43.41 25.879 C-43.039 26.374 -42.668 26.869 -42.285 27.379 C-42.945 27.379 -43.605 27.379 -44.285 27.379 C-44.945 28.699 -45.605 30.019 -46.285 31.379 C-46.842 31.286 -46.842 31.286 -49.66 30.816 C-53.285 30.379 -53.285 30.379 -55.285 31.379 C-53.635 31.379 -51.985 31.379 -50.285 31.379 C-50.285 32.369 -50.285 33.359 -50.285 34.379 C-50.842 34.43 -50.842 34.43 -53.66 34.691 C-54.856 34.918 -56.053 35.145 -57.285 35.379 C-57.945 36.369 -58.605 37.359 -59.285 38.379 C-59.789 33.084 -58.474 30.565 -55.285 26.379 C-58.301 29.12 -60.137 31.592 -60.48 35.738 C-60.457 36.527 -60.434 37.316 -60.41 38.129 C-60.392 38.928 -60.374 39.727 -60.355 40.551 C-60.344 40.852 -60.344 40.852 -60.285 42.379 C-61.275 41.389 -62.265 40.399 -63.285 39.379 C-63.079 40.658 -62.873 41.936 -62.66 43.254 C-62.309 45.434 -62.309 45.434 -62.285 47.379 C-62.945 48.039 -63.605 48.699 -64.285 49.379 C-67.231 40.543 -67.374 30.611 -63.848 22.004 C-58.29 10.902 -52.426 3.145 -41.285 -2.621 C-40.482 -3.054 -39.679 -3.487 -38.852 -3.934 C-25.768 -10.121 -12.115 -6.452 0 0 Z " fill="#AD6C35" transform="translate(88.28515625,57.62109375)"/>
<path d="M0 0 C2.375 0.75 2.375 0.75 3.375 1.75 C3.416 2.379 3.416 2.379 3.625 5.562 C4.221 11.824 6.82 17.05 9.375 22.75 C13.995 22.75 18.615 22.75 23.375 22.75 C24.247 20.547 25.097 18.34 25.938 16.125 C26.175 15.51 26.175 15.51 27.379 12.398 C28.419 8.587 28.11 6.549 27.375 2.75 C28.035 1.76 28.695 0.77 29.375 -0.25 C31.875 -0.562 31.875 -0.562 34.375 -0.25 C36.375 1.75 36.375 1.75 36.5 4.375 C36.459 5.159 36.417 5.943 36.375 6.75 C35.737 6.995 35.098 7.24 34.44 7.492 C32.375 8.75 32.375 8.75 31.646 10.629 C31.541 11.373 31.436 12.117 31.328 12.883 C31.267 13.286 31.267 13.286 30.957 15.324 C30.847 16.166 30.738 17.008 30.625 17.875 C30.562 18.3 30.562 18.3 30.246 20.449 C29.94 22.547 29.655 24.648 29.375 26.75 C30.2 27.08 30.2 27.08 34.375 28.75 C34.045 29.41 33.715 30.07 33.375 30.75 C32.385 31.08 31.395 31.41 30.375 31.75 C29.354 34.11 29.283 35.398 29.934 37.891 C30.224 38.587 30.514 39.283 30.812 40 C31.1 40.706 31.387 41.413 31.684 42.141 C31.912 42.672 32.14 43.203 32.375 43.75 C34.297 43.379 34.297 43.379 36.375 42.75 C37.625 40.688 37.625 40.688 38.375 38.75 C39.667 42.87 40.638 46.418 40.375 50.75 C38.395 50.09 36.415 49.43 34.375 48.75 C34.54 49.41 34.54 49.41 35.375 52.75 C32.075 55.326 29.95 56.681 25.75 57.188 C22.142 56.72 21.051 56.069 18.375 53.75 C16.727 53.038 15.063 52.36 13.375 51.75 C16.375 49.75 16.375 49.75 18.375 48.75 C19.295 45.99 19.568 44.116 19.625 41.25 C19.651 40.477 19.677 39.703 19.703 38.906 C19.375 36.75 19.375 36.75 18.078 34.957 C16.375 33.75 16.375 33.75 12.875 33.938 C9.375 34.75 9.375 34.75 6.375 36.75 C5.609 38.555 5.609 38.555 5.125 40.625 C4.955 41.303 4.785 41.981 4.609 42.68 C4.35 44.975 4.78 46.538 5.375 48.75 C5.282 49.173 5.282 49.173 4.812 51.312 C4.375 53.75 4.375 53.75 6.375 56.75 C4.206 56.244 2.375 55.75 0.375 54.75 C0.375 54.09 0.375 53.43 0.375 52.75 C-0.285 52.75 -0.945 52.75 -1.625 52.75 C-1.707 50.208 -1.766 47.668 -1.812 45.125 C-1.825 44.769 -1.825 44.769 -1.889 42.965 C-1.955 38.131 -1.21 34.982 1.375 30.75 C1.705 30.42 2.035 30.09 2.375 29.75 C2.792 23.177 2.405 16.731 -0.625 10.75 C-1.938 10.045 -3.271 9.374 -4.625 8.75 C-5.562 5.812 -5.562 5.812 -5.625 2.75 C-3.99 -0.066 -3.249 -0.309 0 0 Z " fill="#E9BD85" transform="translate(115.625,31.25)"/>
<path d="M0 0 C2.541 0.256 5.039 0.567 7.562 0.938 C8.273 1.037 8.984 1.137 9.717 1.24 C11.479 1.489 13.239 1.744 15 2 C15 2.99 15 3.98 15 5 C15.206 6.258 15.412 7.516 15.625 8.812 C16.851 20.068 14.099 29.603 8 39 C7.404 38.78 6.809 38.559 6.195 38.332 C4 38 4 38 2.43 39.074 C1.917 39.607 1.404 40.139 0.875 40.688 C-3.743 44.957 -9.444 47.871 -15.805 48.102 C-16.529 48.068 -17.254 48.035 -18 48 C-16.625 46 -16.625 46 -15 44 C-14.34 44 -13.68 44 -13 44 C-11.494 41.146 -10.368 38.319 -9.375 35.25 C-9.115 34.451 -8.854 33.652 -8.586 32.828 C-8.393 32.225 -8.199 31.622 -8 31 C-8.34 31.641 -8.681 32.281 -9.031 32.941 C-12.851 39.759 -17.282 46.427 -25 49 C-26.728 49.068 -28.458 49.085 -30.188 49.062 C-31.089 49.053 -31.99 49.044 -32.918 49.035 C-33.605 49.024 -34.292 49.012 -35 49 C-33.51 46.021 -31.097 45.909 -28.121 44.832 C-21.399 42.195 -17.952 37.739 -14 32 C-13.216 30.948 -12.433 29.896 -11.625 28.812 C-9.895 25.819 -9.624 24.38 -10 21 C-10 20.34 -10 19.68 -10 19 C-10.33 18.01 -10.66 17.02 -11 16 C-10.01 16 -9.02 16 -8 16 C-8 15.34 -8 14.68 -8 14 C-7.34 13.67 -6.68 13.34 -6 13 C-5.632 11.676 -5.305 10.34 -5 9 C-4.371 7.587 -3.703 6.19 -3 4.812 C-2.825 4.465 -2.825 4.465 -1.938 2.707 C-1 1 -1 1 0 0 Z " fill="#EDB568" transform="translate(125,93)"/>
<path d="M0 0 C0.66 0.33 1.32 0.66 2 1 C2 1.66 2 2.32 2 3 C2.66 3 3.32 3 4 3 C8.592 13.374 8.592 13.374 8 19 C9.32 18.67 10.64 18.34 12 18 C11.01 19.32 10.02 20.64 9 22 C10.65 22 12.3 22 14 22 C14 25 14 25 13 27 C14.32 26.67 15.64 26.34 17 26 C16.34 26.99 15.68 27.98 15 29 C15.165 29.495 15.165 29.495 16 32 C13.03 33.65 10.06 35.3 7 37 C9.007 35.997 11.014 34.993 13.008 33.965 C18.667 31.219 23.733 30.262 30 30 C30 32.25 30 32.25 29 35 C25.898 37.158 22.526 38.652 18.844 39.492 C17 40 17 40 15.312 41.875 C12.902 44.09 11.928 44.399 8.875 45.188 C3.454 46.776 0.133 50.145 -3.836 54.039 C-6.767 56.695 -8.412 57.021 -12.355 56.879 C-13.62 56.774 -14.885 56.67 -16.188 56.562 C-17.46 56.461 -18.732 56.359 -20.043 56.254 C-21.019 56.17 -21.995 56.086 -23 56 C-23 55.34 -23 54.68 -23 54 C-23.969 53.856 -24.939 53.711 -25.938 53.562 C-29 53 -29 53 -30 52 C-30.041 50.334 -30.043 48.666 -30 47 C-29.34 47.33 -28.68 47.66 -28 48 C-24.139 49.287 -21.058 49.138 -17 49 C-18.32 47.35 -19.64 45.7 -21 44 C-20.188 42.062 -20.188 42.062 -19 40 C-18.505 39.835 -18.505 39.835 -16 39 C-13.813 40.438 -13.813 40.438 -12 42 C-11.01 41.34 -10.02 40.68 -9 40 C-9 39.34 -9 38.68 -9 38 C-8.34 37.835 -8.34 37.835 -5 37 C-5 36.34 -5 35.68 -5 35 C-4.67 34.835 -4.67 34.835 -3 34 C-3.33 33.01 -3.66 32.02 -4 31 C-3.67 30.34 -3.34 29.68 -3 29 C-2.728 26.408 -2.554 23.816 -2.379 21.215 C-2.254 20.484 -2.129 19.753 -2 19 C-1.34 18.67 -0.68 18.34 0 18 C-0.66 17.67 -1.32 17.34 -2 17 C-2.625 14.438 -2.625 14.438 -3 12 C-1.02 11.01 0.96 10.02 3 9 C2.691 8.257 2.381 7.515 2.062 6.75 C1.191 4.493 0.523 2.355 0 0 Z " fill="#7B400D" transform="translate(64,77)"/>
<path d="M0 0 C0.598 0.33 1.196 0.66 1.812 1 C4 2 4 2 7 2 C15.519 9.218 19.718 18.978 21.836 29.711 C22.142 33.987 21.604 36.244 18.891 39.641 C18.019 40.502 17.148 41.363 16.25 42.25 C15.389 43.121 14.528 43.993 13.641 44.891 C10.867 47.106 9.468 47.652 6 48 C-2.421 49.23 -9.394 52.209 -17 56 C-17 55.34 -17 54.68 -17 54 C-14.813 52.492 -14.813 52.492 -12 50.875 C-11.072 50.336 -10.144 49.797 -9.188 49.242 C-8.466 48.832 -7.744 48.422 -7 48 C-7.165 47.505 -7.165 47.505 -8 45 C-8.99 45 -9.98 45 -11 45 C-10.34 43.35 -9.68 41.7 -9 40 C-10.65 40 -12.3 40 -14 40 C-10.143 32.896 -5.143 29.152 1.938 25.688 C2.628 25.328 3.318 24.969 4.029 24.6 C8.169 22.54 11.272 21.471 16 22 C16.66 22.33 17.32 22.66 18 23 C18 22.34 18 21.68 18 21 C11.238 21.409 5.328 22.57 -1 25 C-1.33 24.01 -1.66 23.02 -2 22 C-2.66 21.34 -3.32 20.68 -4 20 C-3.01 19.01 -2.02 18.02 -1 17 C-1.33 16.34 -1.66 15.68 -2 15 C2.568 12.642 6.971 12.575 12 13 C12.66 13.33 13.32 13.66 14 14 C12.887 12.449 12.887 12.449 11 11 C8.082 11.145 8.082 11.145 4.812 11.812 C3.726 12.025 2.639 12.238 1.52 12.457 C1.104 12.547 1.104 12.547 -1 13 C-1.66 11.68 -2.32 10.36 -3 9 C-2.34 9 -1.68 9 -1 9 C-1 8.34 -1 7.68 -1 7 C-0.34 6.67 0.32 6.34 1 6 C-0.32 5.34 -1.64 4.68 -3 4 C-1.68 3.34 -0.36 2.68 1 2 C0.67 1.34 0.34 0.68 0 0 Z " fill="#794418" transform="translate(86,60)"/>
<path d="M0 0 C1.32 0 2.64 0 4 0 C4 0.66 4 1.32 4 2 C4.33 2.165 4.33 2.165 6 3 C5.67 3.99 5.34 4.98 5 6 C4.89 6.773 4.781 7.547 4.668 8.344 C2.81 15.732 -3.794 22.774 -10 27 C-13.234 28.638 -16.561 29.854 -20 31 C-13.613 31.521 -9.059 31.135 -4 27 C0.263 22.86 3.228 18.225 6 13 C7 16 7 16 6.398 17.867 C4.127 22.324 1.786 25.624 -2 29 C-2.165 29.165 -2.165 29.165 -3 30 C5.913 29.67 12.07 25.309 19 20 C19.66 20.33 20.32 20.66 21 21 C19.422 24.874 17.175 27.3 14 30 C11.319 30.818 9.046 31.361 6.312 31.75 C5.598 31.866 4.884 31.982 4.149 32.101 C2.102 32.424 0.053 32.717 -2 33 C-2.452 33.066 -2.452 33.066 -4.742 33.402 C-17.715 34.997 -31.086 33.913 -44.092 33.2 C-46.656 33.061 -49.221 32.929 -51.785 32.799 C-53.432 32.711 -55.079 32.624 -56.727 32.535 C-57.485 32.497 -58.243 32.458 -59.025 32.418 C-62.773 32.208 -66.334 31.8 -70 31 C-73.801 30.74 -77.601 30.558 -81.406 30.379 C-85.862 29.909 -88.863 29.333 -91.812 25.875 C-92.204 25.256 -92.596 24.637 -93 24 C-90.334 20.549 -87.127 19.958 -83 19 C-82.01 19 -81.02 19 -80 19 C-80 19.99 -80 20.98 -80 22 C-80.66 22.33 -80.66 22.33 -84 24 C-81.36 24 -78.72 24 -76 24 C-76 24.33 -76 24.66 -76 25 C-74.21 25.362 -72.418 25.715 -70.625 26.062 C-69.627 26.26 -68.63 26.457 -67.602 26.66 C-65 27 -65 27 -63 26 C-60.955 26.142 -58.913 26.338 -56.875 26.562 C-51.333 27.055 -47.254 26.751 -42 25 C-41.835 25.33 -41.835 25.33 -41 27 C-39.68 26.01 -38.36 25.02 -37 24 C-37 24.66 -37 25.32 -37 26 C-36.34 26 -35.68 26 -35 26 C-35 25.34 -35 24.68 -35 24 C-33.68 24 -32.36 24 -31 24 C-30.835 24.66 -30.835 24.66 -30 28 C-29.34 28 -28.68 28 -28 28 C-28 26.35 -28 24.7 -28 23 C-24.7 22.67 -21.4 22.34 -18 22 C-17.67 20.35 -17.34 18.7 -17 17 C-16.34 17.33 -15.68 17.66 -15 18 C-14.505 18.165 -14.505 18.165 -12 19 C-11.67 18.34 -11.34 17.68 -11 17 C-10.01 17.66 -9.02 18.32 -8 19 C-8 18.34 -8 17.68 -8 17 C-7.34 17 -6.68 17 -6 17 C-5.67 15.68 -5.34 14.36 -5 13 C-4.67 13.165 -4.67 13.165 -3 14 C-3.268 13.464 -3.536 12.927 -3.812 12.375 C-4.112 8.587 -1.345 6.814 1 4 C0.812 1.625 0.812 1.625 0 0 Z " fill="#DC9D50" transform="translate(111,110)"/>
<path d="M0 0 C0.165 0.495 0.165 0.495 1 3 C1.66 3 2.32 3 3 3 C2.67 4.98 2.34 6.96 2 9 C1.01 8.67 0.02 8.34 -1 8 C-1 8.66 -1 9.32 -1 10 C-0.175 10.165 -0.175 10.165 4 11 C4 11.66 4 12.32 4 13 C4.66 13.33 5.32 13.66 6 14 C5.67 14.66 5.34 15.32 5 16 C4.34 16 3.68 16 3 16 C3.165 16.825 3.165 16.825 4 21 C2.02 21.66 0.04 22.32 -2 23 C-1.01 24.65 -0.02 26.3 1 28 C-1.333 28 -3.667 28 -6 28 C-6.33 28.66 -6.66 29.32 -7 30 C-7.165 29.505 -7.165 29.505 -8 27 C-8.33 28.32 -8.66 29.64 -9 31 C-11.31 31.33 -13.62 31.66 -16 32 C-16.33 33.32 -16.66 34.64 -17 36 C-17 34.68 -17 33.36 -17 32 C-17.66 32 -18.32 32 -19 32 C-19 33.65 -19 35.3 -19 37 C-19.66 37 -20.32 37 -21 37 C-21.33 36.01 -21.66 35.02 -22 34 C-22.33 34.165 -22.33 34.165 -24 35 C-24 34.34 -24 33.68 -24 33 C-24.66 33 -25.32 33 -26 33 C-26 33.66 -26 34.32 -26 35 C-27.32 35 -28.64 35 -30 35 C-32.25 36 -32.25 36 -34 37 C-33.67 36.01 -33.34 35.02 -33 34 C-34.98 34 -36.96 34 -39 34 C-39 33.34 -39 32.68 -39 32 C-40.65 33.32 -42.3 34.64 -44 36 C-44.66 35.67 -45.32 35.34 -46 35 C-46 34.01 -46 33.02 -46 32 C-43.77 29.844 -43.77 29.844 -40.812 27.5 C-39.85 26.727 -38.887 25.953 -37.895 25.156 C-34.061 22.301 -30.944 20.256 -26.312 19 C-23 18 -23 18 -21 15 C-18.25 13.907 -15.466 13.097 -12.629 12.258 C-9.369 10.698 -8.684 9.134 -7 6 C-5.176 4.199 -5.176 4.199 -3.312 2.688 C-2.69 2.176 -2.067 1.664 -1.426 1.137 C-0.955 0.762 -0.485 0.386 0 0 Z " fill="#8B6237" transform="translate(102,101)"/>
<path d="M0 0 C0.962 -0.005 1.923 -0.01 2.914 -0.016 C5.375 0.25 5.375 0.25 7.375 2.25 C6.385 2.25 5.395 2.25 4.375 2.25 C4.375 2.91 4.375 3.57 4.375 4.25 C5.365 4.58 6.355 4.91 7.375 5.25 C9.5 6 9.5 6 11.375 7.25 C12 9.812 12 9.812 12.375 12.25 C13.035 12.58 13.695 12.91 14.375 13.25 C13.385 13.91 12.395 14.57 11.375 15.25 C12.035 15.25 12.695 15.25 13.375 15.25 C13.375 15.91 13.375 16.57 13.375 17.25 C14.035 17.25 14.695 17.25 15.375 17.25 C15.54 18.405 15.54 18.405 16.375 24.25 C17.695 24.58 19.015 24.91 20.375 25.25 C19.055 25.58 17.735 25.91 16.375 26.25 C16.387 26.925 16.398 27.601 16.41 28.297 C16.419 29.189 16.428 30.081 16.438 31 C16.449 31.882 16.461 32.763 16.473 33.672 C16.383 36.032 16.044 37.995 15.375 40.25 C16.365 40.91 17.355 41.57 18.375 42.25 C16.725 42.25 15.075 42.25 13.375 42.25 C13.375 42.91 13.375 43.57 13.375 44.25 C12.715 44.415 12.715 44.415 9.375 45.25 C9.375 44.59 9.375 43.93 9.375 43.25 C7.416 41.536 5.416 39.866 3.375 38.25 C6.375 38.25 6.375 38.25 8.375 39.25 C9.695 39.25 11.015 39.25 12.375 39.25 C12.519 38.672 12.664 38.095 12.812 37.5 C13.333 35.417 13.854 33.333 14.375 31.25 C13.715 30.92 13.055 30.59 12.375 30.25 C13.035 30.25 13.695 30.25 14.375 30.25 C14.375 29.26 14.375 28.27 14.375 27.25 C12.065 27.25 9.755 27.25 7.375 27.25 C7.705 26.59 8.035 25.93 8.375 25.25 C11.437 24.625 11.437 24.625 14.375 24.25 C14.21 23.59 14.21 23.59 13.375 20.25 C11.395 20.91 9.415 21.57 7.375 22.25 C7.375 20.93 7.375 19.61 7.375 18.25 C6.385 17.92 5.395 17.59 4.375 17.25 C4.045 15.6 3.715 13.95 3.375 12.25 C2.993 12.271 2.993 12.271 1.062 12.375 C-1.625 12.25 -1.625 12.25 -4.625 10.25 C-5.285 10.25 -5.945 10.25 -6.625 10.25 C-6.625 9.59 -6.625 8.93 -6.625 8.25 C-7.285 8.25 -7.945 8.25 -8.625 8.25 C-8.625 9.57 -8.625 10.89 -8.625 12.25 C-7.697 12.188 -6.769 12.126 -5.812 12.062 C-2.625 12.25 -2.625 12.25 -0.75 13.75 C-0.379 14.245 -0.008 14.74 0.375 15.25 C-0.285 15.25 -0.945 15.25 -1.625 15.25 C-2.285 16.57 -2.945 17.89 -3.625 19.25 C-4.739 19.064 -5.852 18.879 -7 18.688 C-10.625 18.25 -10.625 18.25 -12.625 19.25 C-10.975 19.25 -9.325 19.25 -7.625 19.25 C-7.625 20.24 -7.625 21.23 -7.625 22.25 C-8.739 22.353 -9.852 22.456 -11 22.562 C-12.196 22.789 -13.392 23.016 -14.625 23.25 C-15.285 24.24 -15.945 25.23 -16.625 26.25 C-17.129 20.956 -15.814 18.436 -12.625 14.25 C-15.641 16.991 -17.477 19.463 -17.82 23.609 C-17.797 24.398 -17.774 25.187 -17.75 26 C-17.732 26.799 -17.714 27.598 -17.695 28.422 C-17.672 29.025 -17.649 29.628 -17.625 30.25 C-18.615 29.26 -19.605 28.27 -20.625 27.25 C-20.419 28.529 -20.212 29.808 -20 31.125 C-19.648 33.305 -19.648 33.305 -19.625 35.25 C-20.285 35.91 -20.945 36.57 -21.625 37.25 C-22.892 33.449 -23.103 29.718 -23.375 25.75 C-23.443 24.978 -23.512 24.206 -23.582 23.41 C-23.734 21.156 -23.734 21.156 -23.625 17.25 C-22.228 15.682 -22.228 15.682 -20.625 14.25 C-20.047 13.322 -19.47 12.394 -18.875 11.438 C-14.111 4.688 -8.476 -0.046 0 0 Z " fill="#BC7535" transform="translate(45.625,69.75)"/>
<path d="M0 0 C0.66 0 1.32 0 2 0 C2 0.66 2 1.32 2 2 C2.66 2 3.32 2 4 2 C4.33 1.34 4.66 0.68 5 0 C5.66 0.99 6.32 1.98 7 3 C7.825 3.124 8.65 3.248 9.5 3.375 C10.325 3.581 11.15 3.787 12 4 C13.188 6.5 13.188 6.5 14 9 C14.66 9.33 15.32 9.66 16 10 C16 11.32 16 12.64 16 14 C16.99 13.34 17.98 12.68 19 12 C19.99 12 20.98 12 22 12 C22.33 13.32 22.66 14.64 23 16 C21.02 16.66 19.04 17.32 17 18 C18.98 18.33 20.96 18.66 23 19 C23.308 28.252 23.308 28.252 21 31 C18.121 31.936 16.745 32.372 14 31 C15.952 32.952 17.532 33.848 20 35 C19.34 35 18.68 35 18 35 C18 36.32 18 37.64 18 39 C18.66 39.33 19.32 39.66 20 40 C18.02 40.66 16.04 41.32 14 42 C13.01 41.01 12.02 40.02 11 39 C9.68 40.32 8.36 41.64 7 43 C8.32 44.98 9.64 46.96 11 49 C6.331 49.458 3.056 49.625 -1.062 47.188 C-3.889 42.537 -3.418 38.308 -3 33 C-3.495 33.165 -3.495 33.165 -6 34 C-6.66 32.02 -7.32 30.04 -8 28 C-6.35 28.99 -4.7 29.98 -3 31 C-2.67 29.68 -2.34 28.36 -2 27 C-1.34 27 -0.68 27 0 27 C0.33 27.66 0.66 28.32 1 29 C1.33 28.34 1.66 27.68 2 27 C4 26.312 4 26.312 6 26 C6.33 26.33 6.66 26.66 7 27 C7.66 26.34 8.32 25.68 9 25 C9.33 24.67 9.66 24.34 10 24 C10.33 23.01 10.66 22.02 11 21 C10.01 20.67 9.02 20.34 8 20 C8.66 19.67 9.32 19.34 10 19 C10.66 19.33 11.32 19.66 12 20 C12.33 17.69 12.66 15.38 13 13 C12.34 12.67 11.68 12.34 11 12 C10.876 11.381 10.752 10.763 10.625 10.125 C9.766 7.203 8.627 6.491 6 5 C2.75 4.312 2.75 4.312 0 4 C0 2.68 0 1.36 0 0 Z " fill="#824614" transform="translate(37,78)"/>
<path d="M0 0 C0.66 0.99 1.32 1.98 2 3 C0.866 3.124 -0.269 3.248 -1.438 3.375 C-2.613 3.581 -3.789 3.788 -5 4 C-5.33 4.66 -5.66 5.32 -6 6 C-4.375 6.688 -4.375 6.688 -2 7 C0.008 6.017 2.008 5.016 4 4 C6.875 3.812 6.875 3.812 9 4 C8.402 4.289 7.804 4.578 7.188 4.875 C5 6 5 6 2 8 C2.99 8.33 3.98 8.66 5 9 C4.67 9.33 4.34 9.66 4 10 C4.99 10.33 5.98 10.66 7 11 C7.688 13.062 7.688 13.062 8 15 C6.741 16.2 5.467 17.384 4.188 18.562 C3.834 18.893 3.834 18.893 2.043 20.566 C1.369 21.039 0.695 21.513 0 22 C-0.99 21.67 -1.98 21.34 -3 21 C-3 20.34 -3 19.68 -3 19 C-4.65 19 -6.3 19 -8 19 C-8.66 20.32 -9.32 21.64 -10 23 C-10 21.68 -10 20.36 -10 19 C-10.66 19 -11.32 19 -12 19 C-12 18.34 -12 17.68 -12 17 C-13.32 16.67 -14.64 16.34 -16 16 C-16 16.99 -16 17.98 -16 19 C-16.66 19 -17.32 19 -18 19 C-18 17.02 -18 15.04 -18 13 C-18.99 13 -19.98 13 -21 13 C-21.33 12.34 -21.66 11.68 -22 11 C-22.33 11.165 -22.33 11.165 -24 12 C-23.67 10.68 -23.34 9.36 -23 8 C-25 10 -25 10 -25.5 13.562 C-25.665 14.697 -25.83 15.831 -26 17 C-26.66 17.33 -27.32 17.66 -28 18 C-28 16.35 -28 14.7 -28 13 C-29.32 12.67 -30.64 12.34 -32 12 C-32 14.31 -32 16.62 -32 19 C-32.99 19 -33.98 19 -35 19 C-35.33 16.69 -35.66 14.38 -36 12 C-25.113 3.642 -14.166 -2.342 0 0 Z " fill="#BB8251" transform="translate(71,51)"/>
<path d="M0 0 C0.66 0.33 1.32 0.66 2 1 C2 1.66 2 2.32 2 3 C3.5 4.625 3.5 4.625 5 6 C5.66 5.34 6.32 4.68 7 4 C6.67 6.64 6.34 9.28 6 12 C6.66 12 7.32 12 8 12 C8 11.01 8 10.02 8 9 C9.32 9.33 10.64 9.66 12 10 C12 10.66 12 11.32 12 12 C12.66 12 13.32 12 14 12 C14 13.32 14 14.64 14 16 C14.763 15.794 15.526 15.588 16.312 15.375 C19 15 19 15 22 17 C22.66 16.67 23.32 16.34 24 16 C24 16.99 24 17.98 24 19 C25.32 18.67 26.64 18.34 28 18 C28.165 18.495 28.165 18.495 29 21 C27.062 23.687 27.062 23.687 25 26 C25.66 26 26.32 26 27 26 C27 26.66 27 27.32 27 28 C27.66 28.33 28.32 28.66 29 29 C28.67 29.743 28.34 30.485 28 31.25 C27 34 27 34 27 38 C26.34 38 25.68 38 25 38 C23.667 32.667 22.333 27.333 21 22 C20.34 22 19.68 22 19 22 C19.351 22.578 19.701 23.155 20.062 23.75 C21.149 26.358 20.931 27.394 20 30 C19.34 30 18.68 30 18 30 C16.662 30.315 15.328 30.646 14 31 C14 30.34 14 29.68 14 29 C13.34 29 12.68 29 12 29 C12 28.34 12 27.68 12 27 C10.35 27.66 8.7 28.32 7 29 C7.66 28.216 8.32 27.433 9 26.625 C11 24 11 24 11 22 C10.34 21.67 9.68 21.34 9 21 C9.33 20.34 9.66 19.68 10 19 C8.35 19 6.7 19 5 19 C5 18.34 5 17.68 5 17 C4.34 16.67 3.68 16.34 3 16 C3.33 15.01 3.66 14.02 4 13 C-2.716 12.444 -7.716 12.461 -13.285 16.516 C-18.076 20.663 -20.762 25.112 -23 31 C-24.857 26.155 -22.506 22.554 -20.547 18.062 C-18.482 13.974 -15.972 10.472 -13 7 C-12.01 7.33 -11.02 7.66 -10 8 C-10.33 9.32 -10.66 10.64 -11 12 C-10.01 12 -9.02 12 -8 12 C-8 9.69 -8 7.38 -8 5 C-6.68 5.33 -5.36 5.66 -4 6 C-3.67 7.32 -3.34 8.64 -3 10 C-2.867 9.362 -2.734 8.724 -2.598 8.066 C-2.421 7.24 -2.244 6.414 -2.062 5.562 C-1.975 5.151 -1.975 5.151 -1.535 3.066 C-1 1 -1 1 0 0 Z " fill="#B66D2F" transform="translate(47,58)"/>
<path d="M0 0 C2.375 0.75 2.375 0.75 3.375 1.75 C3.416 2.379 3.416 2.379 3.625 5.562 C4.133 10.922 6.12 15.373 8.316 20.246 C9.375 22.75 9.375 22.75 9.375 24.75 C10.035 25.08 10.695 25.41 11.375 25.75 C10.715 25.75 10.055 25.75 9.375 25.75 C9.938 27.562 9.938 27.562 11.375 29.75 C13.686 30.8 16.021 31.8 18.375 32.75 C20.455 34.381 21.26 35.349 21.992 37.906 C22.077 38.68 22.162 39.453 22.25 40.25 C22.3 40.637 22.3 40.637 22.555 42.594 C22.375 44.75 22.375 44.75 20.883 46.531 C20.385 46.933 19.888 47.336 19.375 47.75 C19.41 46.991 19.445 46.231 19.48 45.449 C19.508 44.455 19.535 43.461 19.562 42.438 C19.597 41.451 19.632 40.465 19.668 39.449 C19.375 36.75 19.375 36.75 18.082 34.883 C16.375 33.75 16.375 33.75 12.875 33.938 C9.375 34.75 9.375 34.75 6.375 36.75 C5.609 38.555 5.609 38.555 5.125 40.625 C4.955 41.303 4.785 41.981 4.609 42.68 C4.35 44.975 4.78 46.538 5.375 48.75 C5.282 49.173 5.282 49.173 4.812 51.312 C4.375 53.75 4.375 53.75 6.375 56.75 C4.206 56.244 2.375 55.75 0.375 54.75 C0.375 54.09 0.375 53.43 0.375 52.75 C-0.285 52.75 -0.945 52.75 -1.625 52.75 C-1.707 50.208 -1.766 47.668 -1.812 45.125 C-1.825 44.769 -1.825 44.769 -1.889 42.965 C-1.955 38.131 -1.21 34.982 1.375 30.75 C1.705 30.42 2.035 30.09 2.375 29.75 C2.792 23.177 2.405 16.731 -0.625 10.75 C-1.938 10.045 -3.271 9.374 -4.625 8.75 C-5.562 5.812 -5.562 5.812 -5.625 2.75 C-3.99 -0.066 -3.249 -0.309 0 0 Z " fill="#D2A267" transform="translate(115.625,31.25)"/>
<path d="M0 0 C2 0.125 2 0.125 4 1 C5.25 3.062 5.25 3.062 6 5 C6.66 5 7.32 5 8 5 C7.67 5.99 7.34 6.98 7 8 C-5.787 10.131 -18.715 10.161 -31.639 10.13 C-34.298 10.125 -36.957 10.13 -39.615 10.137 C-50.452 10.141 -61.188 9.732 -72 9 C-74.75 8.845 -77.5 8.703 -80.25 8.562 C-84.626 8.338 -88.013 7.851 -92 6 C-92 5.34 -92 4.68 -92 4 C-92.66 3.67 -93.32 3.34 -94 3 C-92.783 2.979 -91.566 2.959 -90.312 2.938 C-89.97 2.932 -89.97 2.932 -88.238 2.902 C-86 3 -86 3 -83.877 3.473 C-80.174 4.151 -76.48 4.344 -72.727 4.535 C-72.326 4.557 -72.326 4.557 -70.3 4.665 C-68.604 4.755 -66.908 4.844 -65.211 4.93 C-62.668 5.06 -60.125 5.199 -57.582 5.338 C-31.387 6.731 -31.387 6.731 -19.688 5.125 C-19.028 5.035 -18.368 4.945 -17.689 4.852 C-2.748 2.748 -2.748 2.748 0 0 Z " fill="#F1E6D6" transform="translate(127,137)"/>
<path d="M0 0 C0.33 0.99 0.66 1.98 1 3 C1.66 3 2.32 3 3 3 C2.67 4.98 2.34 6.96 2 9 C1.01 8.67 0.02 8.34 -1 8 C-1 8.66 -1 9.32 -1 10 C-0.175 10.165 -0.175 10.165 4 11 C4 11.66 4 12.32 4 13 C4.66 13.33 5.32 13.66 6 14 C5.67 14.66 5.34 15.32 5 16 C4.34 16 3.68 16 3 16 C3.33 17.65 3.66 19.3 4 21 C2.02 21.66 0.04 22.32 -2 23 C-1.01 24.65 -0.02 26.3 1 28 C-1.333 28 -3.667 28 -6 28 C-6.33 28.66 -6.66 29.32 -7 30 C-7.33 29.01 -7.66 28.02 -8 27 C-8.33 28.32 -8.66 29.64 -9 31 C-11.31 31.33 -13.62 31.66 -16 32 C-16.33 33.32 -16.66 34.64 -17 36 C-17 34.68 -17 33.36 -17 32 C-17.66 32 -18.32 32 -19 32 C-19 33.65 -19 35.3 -19 37 C-19.66 37 -20.32 37 -21 37 C-21.165 36.505 -21.165 36.505 -22 34 C-22.33 34.165 -22.33 34.165 -24 35 C-24 34.34 -24 33.68 -24 33 C-24.66 32.67 -25.32 32.34 -26 32 C-26 31.01 -26 30.02 -26 29 C-25.051 28.876 -24.103 28.752 -23.125 28.625 C-20 28 -20 28 -18 26 C-17.34 27.32 -16.68 28.64 -16 30 C-15.34 28.35 -14.68 26.7 -14 25 C-12.35 25 -10.7 25 -9 25 C-8.875 18.375 -8.875 18.375 -10 15 C-7.874 9.026 -4.799 4.114 0 0 Z " fill="#9C6F3E" transform="translate(102,101)"/>
<path d="M0 0 C1.32 0 2.64 0 4 0 C4 0.66 4 1.32 4 2 C4.66 2.33 5.32 2.66 6 3 C5.67 3.99 5.34 4.98 5 6 C4.89 6.773 4.781 7.547 4.668 8.344 C2.81 15.732 -3.794 22.774 -10 27 C-13.234 28.638 -16.561 29.854 -20 31 C-17.69 31.33 -15.38 31.66 -13 32 C-13 32.33 -13 32.66 -13 33 C-19.846 33.117 -26.665 32.994 -33.5 32.625 C-34.182 32.594 -34.864 32.563 -35.566 32.531 C-39.155 32.317 -41.929 31.927 -45 30 C-42.268 29.247 -39.719 28.834 -36.891 28.684 C-36.137 28.642 -35.382 28.6 -34.605 28.557 C-34.217 28.537 -34.217 28.537 -32.25 28.438 C-31.457 28.394 -30.664 28.351 -29.848 28.307 C-27.899 28.201 -25.949 28.1 -24 28 C-23.67 26.68 -23.34 25.36 -23 24 C-21.68 24.33 -20.36 24.66 -19 25 C-19 24.34 -19 23.68 -19 23 C-15.25 21.875 -15.25 21.875 -13 23 C-13.33 21.68 -13.66 20.36 -14 19 C-13.34 19 -12.68 19 -12 19 C-11.67 18.34 -11.34 17.68 -11 17 C-10.01 17.66 -9.02 18.32 -8 19 C-8 18.34 -8 17.68 -8 17 C-7.34 17 -6.68 17 -6 17 C-5.67 15.68 -5.34 14.36 -5 13 C-4.34 13.33 -3.68 13.66 -3 14 C-3.268 13.464 -3.536 12.927 -3.812 12.375 C-4.112 8.587 -1.345 6.814 1 4 C0.812 1.625 0.812 1.625 0 0 Z " fill="#C9924D" transform="translate(111,110)"/>
<path d="M0 0 C2.312 1.438 2.312 1.438 4 4 C4.708 8.761 4.569 12.838 2 17 C-0.125 18.25 -0.125 18.25 -2 19 C-2 19.99 -2 20.98 -2 22 C-5.233 24.155 -6.252 24.469 -10 24 C-11.875 22.938 -11.875 22.938 -13 21 C-12.744 18.657 -12.407 16.322 -12 14 C-12.206 13.34 -12.412 12.68 -12.625 12 C-13.289 8.457 -11.669 6.06 -10 3 C-6.758 0.355 -4.172 -0.749 0 0 Z " fill="#E5B170" transform="translate(132,64)"/>
<path d="M0 0 C1.668 2.502 2.624 4.411 3.625 7.188 C3.755 7.545 3.755 7.545 4.414 9.355 C4.607 9.898 4.801 10.441 5 11 C6.922 10.629 6.922 10.629 9 10 C10.25 7.938 10.25 7.938 11 6 C12.292 10.12 13.263 13.668 13 18 C11.02 17.34 9.04 16.68 7 16 C7.33 17.32 7.66 18.64 8 20 C4.7 22.576 2.575 23.931 -1.625 24.438 C-5.233 23.97 -6.324 23.319 -9 21 C-10.648 20.288 -12.312 19.61 -14 19 C-13.01 18.34 -12.02 17.68 -11 17 C-8.312 14.812 -8.312 14.812 -6 12 C-6.021 10.845 -6.041 9.69 -6.062 8.5 C-6 5 -6 5 -4.684 3.441 C-3.185 2.214 -1.596 1.098 0 0 Z " fill="#EDBB79" transform="translate(143,64)"/>
<path d="M0 0 C0.299 0.165 0.299 0.165 1.812 1 C4 2 4 2 7 2 C13.345 7.376 17.243 14.245 20 22 C20 22.66 20 23.32 20 24 C19.01 23.67 18.02 23.34 17 23 C17.33 22.34 17.66 21.68 18 21 C11.238 21.409 5.328 22.57 -1 25 C-1.33 24.01 -1.66 23.02 -2 22 C-2.66 21.34 -3.32 20.68 -4 20 C-3.01 19.01 -2.02 18.02 -1 17 C-1.33 16.34 -1.66 15.68 -2 15 C2.568 12.642 6.971 12.575 12 13 C12.66 13.33 13.32 13.66 14 14 C12.887 12.449 12.887 12.449 11 11 C8.082 11.145 8.082 11.145 4.812 11.812 C3.726 12.025 2.639 12.238 1.52 12.457 C0.688 12.636 -0.143 12.815 -1 13 C-1.66 11.68 -2.32 10.36 -3 9 C-2.34 9 -1.68 9 -1 9 C-1 8.34 -1 7.68 -1 7 C-0.34 6.67 0.32 6.34 1 6 C-0.32 5.34 -1.64 4.68 -3 4 C-1.68 3.34 -0.36 2.68 1 2 C0.67 1.34 0.34 0.68 0 0 Z " fill="#92521B" transform="translate(86,60)"/>
<path d="M0 0 C0.99 0 1.98 0 3 0 C3 0.99 3 1.98 3 3 C3.99 2.67 4.98 2.34 6 2 C6.33 2.495 6.33 2.495 8 5 C8.66 5 9.32 5 10 5 C10.33 5.66 10.66 6.32 11 7 C11.742 6.319 12.485 5.639 13.25 4.938 C16 3 16 3 18.312 3.25 C18.869 3.498 19.426 3.745 20 4 C20.124 4.804 20.248 5.609 20.375 6.438 C20.581 7.283 20.788 8.129 21 9 C21.66 9.33 22.32 9.66 23 10 C22.01 10.66 21.02 11.32 20 12 C20.66 12 21.32 12 22 12 C22 12.66 22 13.32 22 14 C22.66 14 23.32 14 24 14 C24.33 16.31 24.66 18.62 25 21 C26.32 21.33 27.64 21.66 29 22 C27.68 22.33 26.36 22.66 25 23 C25.012 23.675 25.023 24.351 25.035 25.047 C25.044 25.939 25.053 26.831 25.062 27.75 C25.074 28.632 25.086 29.513 25.098 30.422 C25.008 32.782 24.669 34.745 24 37 C24.99 37.66 25.98 38.32 27 39 C25.35 39 23.7 39 22 39 C22 39.66 22 40.32 22 41 C21.34 41.165 21.34 41.165 18 42 C18 41.34 18 40.68 18 40 C16.041 38.286 14.041 36.616 12 35 C15 35 15 35 17 36 C18.32 36 19.64 36 21 36 C21.144 35.422 21.289 34.845 21.438 34.25 C21.958 32.167 22.479 30.083 23 28 C22.34 27.67 21.68 27.34 21 27 C21.66 27 22.32 27 23 27 C23 26.01 23 25.02 23 24 C20.69 24 18.38 24 16 24 C16.33 23.34 16.66 22.68 17 22 C20.062 21.375 20.062 21.375 23 21 C22.67 19.68 22.34 18.36 22 17 C20.02 17.66 18.04 18.32 16 19 C16 17.68 16 16.36 16 15 C15.01 14.67 14.02 14.34 13 14 C12.67 12.35 12.34 10.7 12 9 C11.237 9.041 10.474 9.082 9.688 9.125 C7 9 7 9 4 7 C3.34 7 2.68 7 2 7 C2 6.34 2 5.68 2 5 C1.34 5 0.68 5 0 5 C0 3.35 0 1.7 0 0 Z " fill="#BD7838" transform="translate(37,73)"/>
<path d="M0 0 C5.214 4.228 6.509 8.572 8 15 C8.33 16.237 8.66 17.475 9 18.75 C9 22.438 8.147 24.025 5.562 26.645 C-0.61 32 -5.033 32.43 -13.109 32.336 C-16 32 -16 32 -19 30 C-18.67 28.35 -18.34 26.7 -18 25 C-15.831 25.506 -14 26 -12 27 C-6.561 27.556 -2.475 27.465 2 24 C1.835 23.175 1.835 23.175 1 19 C2.65 19.33 4.3 19.66 6 20 C5.67 18.02 5.34 16.04 5 14 C2.844 14 1.076 14.447 -1 15 C-3.464 11.357 -4.712 8.415 -5 4 C-3 1 -3 1 0 0 Z " fill="#D8A76D" transform="translate(149,61)"/>
<path d="M0 0 C1 3 1 3 0.398 4.867 C-1.873 9.324 -4.214 12.624 -8 16 C-8.165 16.165 -8.165 16.165 -9 17 C-0.087 16.67 6.07 12.309 13 7 C13.33 7.165 13.33 7.165 15 8 C13.422 11.874 11.175 14.3 8 17 C5.319 17.818 3.046 18.361 0.312 18.75 C-0.402 18.866 -1.116 18.982 -1.851 19.101 C-3.898 19.424 -5.947 19.717 -8 20 C-8.452 20.066 -8.452 20.066 -10.742 20.402 C-23.715 21.997 -37.086 20.913 -50.092 20.2 C-52.656 20.061 -55.221 19.929 -57.785 19.799 C-59.432 19.711 -61.079 19.624 -62.727 19.535 C-63.485 19.497 -64.243 19.458 -65.025 19.418 C-68.773 19.208 -72.334 18.8 -76 18 C-79.801 17.74 -83.601 17.558 -87.406 17.379 C-90.714 17.03 -93.065 16.528 -96 15 C-96.33 14.34 -96.66 13.68 -97 13 C-93.811 13.281 -90.624 13.577 -87.438 13.875 C-86.99 13.914 -86.99 13.914 -84.725 14.113 C-80.802 14.487 -77.272 14.917 -73.488 16.066 C-68.846 17.309 -64.527 17.178 -59.75 17.062 C-57.974 17.028 -56.198 16.998 -54.422 16.973 C-53.644 16.955 -52.867 16.937 -52.065 16.918 C-50 17 -50 17 -47 18 C-42.359 18.436 -37.711 18.678 -33.055 18.9 C-31.222 18.989 -29.39 19.095 -27.559 19.203 C-21.13 19.433 -16.201 19.01 -11 15 C-6.329 10.578 -2.959 5.68 0 0 Z " fill="#B78044" transform="translate(117,123)"/>
<path d="M0 0 C0.578 0.454 1.155 0.907 1.75 1.375 C3.78 2.841 5.735 3.949 8 5 C7.34 5 6.68 5 6 5 C6 6.32 6 7.64 6 9 C6.66 9.33 7.32 9.66 8 10 C6.02 10.66 4.04 11.32 2 12 C1.01 11.01 0.02 10.02 -1 9 C-2.32 10.32 -3.64 11.64 -5 13 C-4.34 13.99 -4.34 13.99 -1 19 C-5.703 19.461 -8.946 19.645 -13.062 17.125 C-15.779 12.743 -15.439 9.025 -15 4 C-14.336 3.963 -13.672 3.925 -12.988 3.887 C-7.93 3.51 -4.158 3.188 0 0 Z " fill="#9B5519" transform="translate(49,108)"/>
<path d="M0 0 C0 2.25 0 2.25 -1 5 C-4.102 7.158 -7.474 8.652 -11.156 9.492 C-13 10 -13 10 -14.688 11.875 C-17.086 14.079 -18.328 14.544 -21.375 15.438 C-24.595 16.39 -26.675 17.327 -29.125 19.625 C-32.592 22.489 -34.547 22.844 -39 23 C-41.343 22.74 -43.682 22.426 -46 22 C-43.217 20.564 -40.404 19.356 -37.5 18.188 C-33.541 16.452 -31.413 14.668 -29 11 C-28.34 10.34 -27.68 9.68 -27 9 C-26.67 9.66 -26.34 10.32 -26 11 C-24.938 10.457 -23.876 9.915 -22.781 9.355 C-21.354 8.633 -19.927 7.91 -18.5 7.188 C-18.152 7.009 -18.152 7.009 -16.391 6.107 C-4.288 0 -4.288 0 0 0 Z " fill="#522F0C" transform="translate(94,107)"/>
<path d="M0 0 C0.66 0.33 1.32 0.66 2 1 C2 1.66 2 2.32 2 3 C3.5 4.625 3.5 4.625 5 6 C5.66 5.34 6.32 4.68 7 4 C6.67 6.64 6.34 9.28 6 12 C6.66 12 7.32 12 8 12 C8 11.01 8 10.02 8 9 C9.32 9.33 10.64 9.66 12 10 C12 10.66 12 11.32 12 12 C12.66 12 13.32 12 14 12 C13.67 12.99 13.34 13.98 13 15 C11.742 14.67 10.484 14.34 9.188 14 C2.165 12.487 -4.928 11.349 -11.375 15.125 C-17.212 19.374 -20.453 24.297 -23 31 C-24.857 26.155 -22.506 22.554 -20.547 18.062 C-18.482 13.974 -15.972 10.472 -13 7 C-12.01 7.33 -11.02 7.66 -10 8 C-10.33 9.32 -10.66 10.64 -11 12 C-10.01 12 -9.02 12 -8 12 C-8 9.69 -8 7.38 -8 5 C-6.68 5.33 -5.36 5.66 -4 6 C-3.67 7.32 -3.34 8.64 -3 10 C-2.867 9.362 -2.734 8.724 -2.598 8.066 C-2.421 7.24 -2.244 6.414 -2.062 5.562 C-1.975 5.151 -1.975 5.151 -1.535 3.066 C-1 1 -1 1 0 0 Z " fill="#9E5A23" transform="translate(47,58)"/>
<path d="M0 0 C0.33 0.165 0.33 0.165 2 1 C2 1.66 2 2.32 2 3 C2.66 3 3.32 3 4 3 C8.592 13.374 8.592 13.374 8 19 C9.32 18.67 10.64 18.34 12 18 C11.01 19.32 10.02 20.64 9 22 C10.65 22 12.3 22 14 22 C14 25 14 25 13 27 C14.32 26.67 15.64 26.34 17 26 C16.34 26.99 15.68 27.98 15 29 C15.33 29.99 15.66 30.98 16 32 C14.515 32.825 14.515 32.825 7 37 C8.32 36.34 9.64 35.68 11 35 C12.493 34.256 13.993 33.527 15.5 32.812 C16.253 32.448 17.006 32.083 17.781 31.707 C20.343 30.891 21.475 31.262 24 32 C21.439 33.294 18.876 34.585 16.312 35.875 C15.591 36.24 14.87 36.605 14.127 36.98 C10.469 38.818 6.839 40.561 3 42 C3.875 34.375 3.875 34.375 5 31 C6.068 20.332 5.868 11.201 0 2 C0 1.34 0 0.68 0 0 Z " fill="#703C12" transform="translate(64,77)"/>
<path d="M0 0 C0.33 1.65 0.66 3.3 1 5 C2.98 5.66 4.96 6.32 7 7 C7 7.66 7 8.32 7 9 C7.976 8.977 8.952 8.954 9.957 8.93 C11.229 8.912 12.502 8.894 13.812 8.875 C15.077 8.852 16.342 8.829 17.645 8.805 C21 9 21 9 24 11 C24.99 10.34 25.98 9.68 27 9 C30.688 9.875 30.688 9.875 34 11 C31.547 13.453 30.413 13.583 27 14 C24.642 13.892 22.287 13.721 19.938 13.5 C15.922 13.123 12.871 13.008 9 14 C6.676 13.695 6.676 13.695 4.312 13.125 C3.525 12.942 2.737 12.759 1.926 12.57 C0 12 0 12 -1 11 C-3.333 10.959 -5.667 10.958 -8 11 C-7.505 10.381 -7.01 9.762 -6.5 9.125 C-5 7 -5 7 -5 5 C-6.65 5.66 -8.3 6.32 -10 7 C-3.483 0 -3.483 0 0 0 Z " fill="#9C6F43" transform="translate(34,124)"/>
<path d="M0 0 C1.926 4.952 -0.591 8.97 -2.484 13.609 C-6.211 21.947 -10.397 28.699 -18 34 C-21.015 35.005 -23.042 35.103 -26.188 35.062 C-27.089 35.053 -27.99 35.044 -28.918 35.035 C-29.605 35.024 -30.292 35.012 -31 35 C-29.51 32.021 -27.097 31.909 -24.121 30.832 C-17.399 28.195 -13.952 23.739 -10 18 C-9.216 16.948 -8.433 15.896 -7.625 14.812 C-5.916 11.855 -5.606 10.347 -6 7 C-5.01 6.67 -4.02 6.34 -3 6 C-1.875 3.5 -1.875 3.5 -1 1 C-0.67 0.67 -0.34 0.34 0 0 Z " fill="#F4BB6C" transform="translate(121,107)"/>
<path d="M0 0 C3 1 3 1 4 3 C4.15 5.847 4.231 8.653 4.25 11.5 C4.271 12.285 4.291 13.07 4.312 13.879 C4.328 16.156 4.328 16.156 4 20 C3.01 20.66 2.02 21.32 1 22 C1.33 22.66 1.66 23.32 2 24 C-0.31 24.33 -2.62 24.66 -5 25 C-5.33 24.01 -5.66 23.02 -6 22 C-5.67 21.34 -5.34 20.68 -5 20 C-4.728 17.408 -4.554 14.816 -4.379 12.215 C-4.254 11.484 -4.129 10.753 -4 10 C-3.34 9.67 -2.68 9.34 -2 9 C-2.66 8.67 -3.32 8.34 -4 8 C-4.625 5.438 -4.625 5.438 -5 3 C-2.688 1.438 -2.688 1.438 0 0 Z " fill="#9A5517" transform="translate(66,86)"/>
<path d="M0 0 C-0.495 0.495 -0.495 0.495 -3 3 C-2.34 3.66 -1.68 4.32 -1 5 C-1 5.99 -1 6.98 -1 8 C-0.466 7.711 0.067 7.422 0.617 7.125 C6.597 4.146 11.367 3.501 18 4 C18 4.66 18 5.32 18 6 C16.849 5.923 15.698 5.845 14.512 5.766 C9.571 5.77 6.095 7.439 1.812 9.75 C1.127 10.098 0.442 10.446 -0.264 10.805 C-4.199 12.85 -7.624 15.089 -11 18 C-11.66 17.67 -12.32 17.34 -13 17 C-12.835 16.237 -12.67 15.474 -12.5 14.688 C-11.869 11.295 -11.902 9.295 -13 6 C-11.877 5.018 -10.752 4.04 -9.625 3.062 C-9.312 2.79 -9.312 2.79 -7.727 1.41 C-4.768 -1.007 -3.585 -1.076 0 0 Z " fill="#B56D2C" transform="translate(86,77)"/>
<path d="M0 0 C2.5 -0.312 2.5 -0.312 5 0 C7 2 7 2 7.125 4.625 C7.084 5.409 7.042 6.193 7 7 C6.362 7.245 5.723 7.49 5.065 7.742 C3 9 3 9 2.271 10.879 C2.166 11.623 2.061 12.367 1.953 13.133 C1.831 13.938 1.708 14.744 1.582 15.574 C1.527 15.995 1.527 15.995 1.25 18.125 C1.187 18.55 1.187 18.55 0.871 20.699 C0.565 22.797 0.28 24.898 0 27 C-5.28 26.34 -10.56 25.68 -16 25 C-12.356 22.571 -10.288 22.838 -6 23 C-5.128 20.797 -4.278 18.59 -3.438 16.375 C-2.962 15.145 -2.486 13.915 -1.996 12.648 C-0.956 8.837 -1.265 6.799 -2 3 C-1.34 2.01 -0.68 1.02 0 0 Z " fill="#D2A56F" transform="translate(145,31)"/>
<path d="M0 0 C0.962 -0.005 1.923 -0.01 2.914 -0.016 C5.375 0.25 5.375 0.25 7.375 2.25 C6.385 2.25 5.395 2.25 4.375 2.25 C4.375 2.91 4.375 3.57 4.375 4.25 C5.365 4.58 6.355 4.91 7.375 5.25 C6.715 6.24 6.715 6.24 3.375 11.25 C2.715 10.92 2.055 10.59 1.375 10.25 C1.375 9.59 1.375 8.93 1.375 8.25 C0.715 8.25 0.055 8.25 -0.625 8.25 C-0.955 8.91 -1.285 9.57 -1.625 10.25 C-2.285 8.93 -2.945 7.61 -3.625 6.25 C-4.285 6.25 -4.945 6.25 -5.625 6.25 C-5.625 5.26 -5.625 4.27 -5.625 3.25 C-6.615 3.25 -7.605 3.25 -8.625 3.25 C-8.625 4.9 -8.625 6.55 -8.625 8.25 C-8.955 7.26 -9.285 6.27 -9.625 5.25 C-14.818 8.878 -17.407 11.932 -19.02 18.102 C-19.647 20.328 -20.534 22.215 -21.625 24.25 C-23.625 21.25 -23.625 21.25 -23.414 19.336 C-20.485 11.593 -14.742 5.4 -7.766 1.105 C-5.076 0.031 -2.89 -0.016 0 0 Z " fill="#DE9B5A" transform="translate(45.625,69.75)"/>
<path d="M0 0 C0.66 0.33 1.32 0.66 2 1 C2 2.32 2 3.64 2 5 C1.34 5.33 1.34 5.33 -2 7 C-1.34 8.32 -0.68 9.64 0 11 C-7.286 15.429 -7.286 15.429 -12 16 C-12 15.34 -12 14.68 -12 14 C-12.99 14.66 -13.98 15.32 -15 16 C-17.188 15.625 -17.188 15.625 -19 15 C-14.008 7.905 -7.965 3.412 0 0 Z " fill="#8D501F" transform="translate(91,84)"/>
<path d="M0 0 C-1.812 2.5 -1.812 2.5 -4 5 C-4.99 5 -5.98 5 -7 5 C-7 5.66 -7 6.32 -7 7 C-7.66 7 -8.32 7 -9 7 C-9.33 7.99 -9.66 8.98 -10 10 C-10 9.34 -10 8.68 -10 8 C-10.66 8 -11.32 8 -12 8 C-12.33 8.99 -12.66 9.98 -13 11 C-15.062 11.688 -15.062 11.688 -17 12 C-17.062 12.784 -17.124 13.567 -17.188 14.375 C-18 17 -18 17 -20.375 18.438 C-21.241 18.623 -22.108 18.809 -23 19 C-23.99 18.34 -24.98 17.68 -26 17 C-25.67 16.67 -25.34 16.34 -25 16 C-26.32 15.34 -27.64 14.68 -29 14 C-24.837 10.05 -21.506 8.361 -16.031 6.746 C-13.333 5.755 -11.947 4.076 -10 2 C-3.667 -1.222 -3.667 -1.222 0 0 Z " fill="#714C26" transform="translate(91,114)"/>
<path d="M0 0 C0.33 1.32 0.66 2.64 1 4 C-3.393 7.605 -6.285 8.434 -11.949 8.336 C-14 8 -14 8 -17 6 C-17.99 6.33 -18.98 6.66 -20 7 C-20 7.99 -20 8.98 -20 10 C-17.116 11.442 -14.583 11.094 -11.375 11.062 C-10.781 11.058 -10.781 11.058 -7.773 11.035 C-7.316 11.029 -7.316 11.029 -5 11 C-5.622 12.272 -6.248 13.543 -6.875 14.812 C-7.223 15.52 -7.571 16.228 -7.93 16.957 C-9 19 -9 19 -11 22 C-12.125 17.25 -12.125 17.25 -11 15 C-11.748 14.951 -12.495 14.902 -13.266 14.852 C-14.25 14.777 -15.235 14.702 -16.25 14.625 C-17.225 14.555 -18.199 14.486 -19.203 14.414 C-21.945 14.008 -23.682 13.49 -26 12 C-27.75 9.375 -27.75 9.375 -29 7 C-28.536 6.856 -28.536 6.856 -26.188 6.125 C-23 5 -23 5 -20 3 C-16.965 3.379 -15.624 4.25 -13 6 C-8.042 6.459 -4.946 6.134 -1 3 C-0.67 2.01 -0.34 1.02 0 0 Z " fill="#C48947" transform="translate(151,81)"/>
<path d="M0 0 C0.33 0.99 0.66 1.98 1 3 C1.66 3 2.32 3 3 3 C2.67 4.98 2.34 6.96 2 9 C1.01 8.67 0.02 8.34 -1 8 C-1 8.66 -1 9.32 -1 10 C0.65 10.33 2.3 10.66 4 11 C4 11.66 4 12.32 4 13 C4.66 13.33 5.32 13.66 6 14 C5.67 14.66 5.34 15.32 5 16 C4.34 16 3.68 16 3 16 C3.33 17.65 3.66 19.3 4 21 C0.055 21.807 -2 22 -6 21 C-3.69 19.02 -1.38 17.04 1 15 C-0.32 14.67 -1.64 14.34 -3 14 C-4.875 11.75 -4.875 11.75 -6 9 C-5.111 4.951 -3.033 2.73 0 0 Z " fill="#A37646" transform="translate(102,101)"/>
<path d="M0 0 C0.722 0.144 1.444 0.289 2.188 0.438 C3.975 0.795 5.766 1.131 7.562 1.438 C10 2 10 2 12.188 3.125 C12.487 3.269 12.487 3.269 14 4 C14.66 3.67 15.32 3.34 16 3 C16 3.99 16 4.98 16 6 C17.32 5.67 18.64 5.34 20 5 C20.33 5.99 20.66 6.98 21 8 C19.062 10.688 19.062 10.688 17 13 C17.66 13 18.32 13 19 13 C19 13.66 19 14.32 19 15 C19.66 15.33 20.32 15.66 21 16 C20.67 16.743 20.34 17.485 20 18.25 C19 21 19 21 19 25 C18.34 25 17.68 25 17 25 C15.667 19.667 14.333 14.333 13 9 C12.34 9 11.68 9 11 9 C10.34 8.34 9.68 7.68 9 7 C6.658 5.406 4.279 3.876 1.898 2.34 C1.272 1.898 0.645 1.456 0 1 C0 0.67 0 0.34 0 0 Z " fill="#95551D" transform="translate(55,71)"/>
<path d="M0 0 C1.65 0.66 3.3 1.32 5 2 C4.81 11.214 4.81 11.214 1.875 14.062 C-3.688 15.876 -8.274 16.257 -14 15 C-14.66 13.02 -15.32 11.04 -16 9 C-15.175 9.495 -15.175 9.495 -11 12 C-10.67 10.68 -10.34 9.36 -10 8 C-9.34 8 -8.68 8 -8 8 C-7.67 8.66 -7.34 9.32 -7 10 C-6.67 9.34 -6.34 8.68 -6 8 C-4 7.312 -4 7.312 -2 7 C-1.67 7.33 -1.34 7.66 -1 8 C-0.34 7.34 0.32 6.68 1 6 C1.33 5.67 1.66 5.34 2 5 C2.33 4.01 2.66 3.02 3 2 C2.01 1.67 1.02 1.34 0 1 C0 0.67 0 0.34 0 0 Z " fill="#924F17" transform="translate(45,97)"/>
<path d="M0 0 C-1.391 2.782 -3.302 3.552 -6 5 C-6.66 5 -7.32 5 -8 5 C-8.33 5.99 -8.66 6.98 -9 8 C-14.677 11.275 -20.714 13.488 -26.852 15.754 C-30.005 17.002 -32.99 18.441 -36 20 C-36 19.34 -36 18.68 -36 18 C-33.918 16.598 -33.918 16.598 -31.188 15.062 C-28.004 13.266 -25.562 11.576 -23 9 C-21.027 7.902 -21.027 7.902 -18.938 6.938 C-16.422 5.771 -14.989 4.989 -13 3 C-11.013 2.296 -9.012 1.629 -7 1 C-4.537 -0.231 -2.72 -0.072 0 0 Z " fill="#A96627" transform="translate(105,96)"/>
<path d="M0 0 C2.125 0.375 2.125 0.375 4 1 C4 2.65 4 4.3 4 6 C-10.704 7.963 -25.178 8.236 -40 8 C-40 7.67 -40 7.34 -40 7 C-39.204 6.92 -38.408 6.839 -37.588 6.756 C-33.933 6.384 -30.279 6.005 -26.625 5.625 C-25.373 5.499 -24.122 5.372 -22.832 5.242 C-3.185 3.185 -3.185 3.185 0 0 Z " fill="#CFB597" transform="translate(127,137)"/>
<path d="M0 0 C1.176 0.454 2.351 0.907 3.562 1.375 C9.179 3.274 14.884 3.896 20.742 4.57 C24 5 24 5 27 6 C23.985 9.021 22.569 9.974 18.23 10.172 C16.881 10.053 15.533 9.912 14.188 9.75 C13.495 9.684 12.802 9.619 12.088 9.551 C10.39 9.387 8.695 9.196 7 9 C7 8.34 7 7.68 7 7 C6.031 6.856 5.061 6.711 4.062 6.562 C1 6 1 6 0 5 C-0.041 3.334 -0.043 1.666 0 0 Z " fill="#613C18" transform="translate(34,124)"/>
<path d="M0 0 C1.875 1.062 1.875 1.062 3.125 3.125 C4.09 6.905 4.007 10.166 3.875 14.062 C2.885 14.062 1.895 14.062 0.875 14.062 C0.215 14.722 -0.445 15.382 -1.125 16.062 C-3.113 16.46 -5.114 16.8 -7.125 17.062 C-6.795 16.361 -6.465 15.66 -6.125 14.938 C-5.024 11.771 -4.903 9.392 -5.125 6.062 C-5.455 5.403 -5.785 4.743 -6.125 4.062 C-2.747 0.081 -2.747 0.081 0 0 Z " fill="#B86F2B" transform="translate(46.125,84.9375)"/>
<path d="M0 0 C-1.25 3.653 -1.671 4.781 -5 7 C-4.67 7.66 -4.34 8.32 -4 9 C-5.65 9 -7.3 9 -9 9 C-9 9.99 -9 10.98 -9 12 C-10.98 11.34 -12.96 10.68 -15 10 C-15.33 10.66 -15.66 11.32 -16 12 C-16.33 12 -16.66 12 -17 12 C-16.67 12.66 -16.34 13.32 -16 14 C-18.938 13.25 -18.938 13.25 -22 12 C-22.875 9.875 -22.875 9.875 -23 8 C-21.35 7.01 -19.7 6.02 -18 5 C-16.68 5.99 -15.36 6.98 -14 8 C-13.01 7.34 -12.02 6.68 -11 6 C-11 5.34 -11 4.68 -11 4 C-9.68 3.67 -8.36 3.34 -7 3 C-7 2.34 -7 1.68 -7 1 C-2.25 0 -2.25 0 0 0 Z " fill="#894811" transform="translate(66,111)"/>
<path d="M0 0 C0.99 0 1.98 0 3 0 C3.33 1.65 3.66 3.3 4 5 C5.32 5.33 6.64 5.66 8 6 C6.68 6.33 5.36 6.66 4 7 C4.012 7.675 4.023 8.351 4.035 9.047 C4.04 9.493 4.04 9.493 4.062 11.75 C4.074 12.632 4.086 13.513 4.098 14.422 C4.008 16.782 3.669 18.745 3 21 C3.99 21.66 4.98 22.32 6 23 C4.35 23 2.7 23 1 23 C1 23.66 1 24.32 1 25 C-0.32 25.33 -1.64 25.66 -3 26 C-3 25.34 -3 24.68 -3 24 C-4.959 22.286 -6.959 20.616 -9 19 C-6 19 -6 19 -4 20 C-2.68 20 -1.36 20 0 20 C0.144 19.422 0.289 18.845 0.438 18.25 C0.698 17.208 0.698 17.208 2 12 C1.34 11.67 0.68 11.34 0 11 C0.66 11 1.32 11 2 11 C2 10.01 2 9.02 2 8 C-0.31 8 -2.62 8 -5 8 C-4.67 7.34 -4.34 6.68 -4 6 C-0.938 5.375 -0.938 5.375 2 5 C1.34 3.35 0.68 1.7 0 0 Z " fill="#C27930" transform="translate(58,89)"/>
<path d="M0 0 C5.175 1.035 10.631 2.776 14 7 C14.617 9.156 14.617 9.156 14.875 11.5 C14.925 11.887 14.925 11.887 15.18 13.844 C15 16 15 16 13.508 17.781 C13.259 17.982 13.259 17.982 12 19 C12.035 18.241 12.07 17.481 12.105 16.699 C12.133 15.705 12.16 14.711 12.188 13.688 C12.222 12.701 12.257 11.715 12.293 10.699 C12 8 12 8 10.707 6.133 C9 5 9 5 5.5 5.188 C2 6 2 6 -1 8 C-2.188 11.125 -2.188 11.125 -3 14 C-5.062 12.312 -5.062 12.312 -7 10 C-6.928 7.037 -6.412 5.543 -4.625 3.188 C-3 2 -3 2 0 2 C0 1.34 0 0.68 0 0 Z " fill="#CFA773" transform="translate(123,60)"/>
<path d="M0 0 C1.217 -0.021 2.434 -0.041 3.688 -0.062 C4.03 -0.068 4.03 -0.068 5.762 -0.098 C8 0 8 0 10.09 0.473 C13.986 1.179 17.85 1.346 21.801 1.535 C22.637 1.578 23.474 1.621 24.335 1.665 C26.994 1.801 29.653 1.932 32.312 2.062 C34.12 2.154 35.928 2.246 37.736 2.338 C42.157 2.562 46.579 2.782 51 3 C51 3.33 51 3.66 51 4 C44.826 4.193 38.651 4.371 32.476 4.537 C30.376 4.595 28.276 4.658 26.176 4.724 C23.155 4.818 20.134 4.899 17.113 4.977 C16.177 5.009 15.24 5.041 14.275 5.074 C9.718 5.179 6.131 5.215 2 3 C2 2.34 2 1.68 2 1 C1.34 0.67 0.68 0.34 0 0 Z " fill="#E2D0B8" transform="translate(33,140)"/>
<path d="M0 0 C2.375 0.188 2.375 0.188 5 1 C6.312 3.562 6.312 3.562 7 6 C6.01 6.33 5.02 6.66 4 7 C6.31 7.33 8.62 7.66 11 8 C11 8.33 11 8.66 11 9 C4.154 9.117 -2.665 8.994 -9.5 8.625 C-10.182 8.594 -10.864 8.563 -11.566 8.531 C-15.155 8.317 -17.929 7.927 -21 6 C-18.268 5.247 -15.719 4.834 -12.891 4.684 C-12.137 4.642 -11.382 4.6 -10.605 4.557 C-9.828 4.517 -9.051 4.478 -8.25 4.438 C-7.457 4.394 -6.664 4.351 -5.848 4.307 C-3.899 4.201 -1.949 4.1 0 4 C0 2.68 0 1.36 0 0 Z " fill="#E7A756" transform="translate(87,134)"/>
<path d="M0 0 C2.562 2 2.562 2 5 5 C5.263 7.988 4.734 10.015 4 13 C3.34 13.66 2.68 14.32 2 15 C-0.008 14.859 -0.008 14.859 -2 14 C-3.645 11.539 -4.433 8.895 -5 6 C-4.375 3.062 -4.375 3.062 -3 1 C-2.01 0.67 -1.02 0.34 0 0 Z " fill="#978877" transform="translate(149,61)"/>
<path d="M0 0 C2.743 0.211 4.548 0.714 6.875 2.188 C8 4 8 4 7.812 7.062 C7 10 7 10 5 12 C2 11.812 2 11.812 -1 11 C-3 8 -3 8 -2.75 4.938 C-2 2 -2 2 0 0 Z " fill="#2D2D29" transform="translate(127,67)"/>
<path d="M0 0 C0.598 0.33 1.196 0.66 1.812 1 C4 2 4 2 7 2 C7.33 2.495 7.33 2.495 9 5 C8.34 5 7.68 5 7 5 C7 5.66 7 6.32 7 7 C8.32 7.66 9.64 8.32 11 9 C11 9.66 11 10.32 11 11 C7.04 11.66 3.08 12.32 -1 13 C-1.66 11.68 -2.32 10.36 -3 9 C-2.34 9 -1.68 9 -1 9 C-1 8.34 -1 7.68 -1 7 C-0.34 6.67 0.32 6.34 1 6 C-0.32 5.34 -1.64 4.68 -3 4 C-1.68 3.34 -0.36 2.68 1 2 C0.67 1.34 0.34 0.68 0 0 Z " fill="#8D5120" transform="translate(86,60)"/>
<path d="M0 0 C2.31 0 4.62 0 7 0 C7.308 9.252 7.308 9.252 5 12 C2.625 13 2.625 13 0 13 C-2.312 11.062 -2.312 11.062 -4 9 C-3.01 8.34 -2.02 7.68 -1 7 C-0.312 3.375 -0.312 3.375 0 0 Z " fill="#A65C1A" transform="translate(53,97)"/>
<path d="M0 0 C4.95 0 9.9 0 15 0 C15 0.33 15 0.66 15 1 C13.866 1.124 12.731 1.248 11.562 1.375 C10.975 1.478 10.975 1.478 8 2 C7.67 2.66 7.34 3.32 7 4 C7.99 4.99 8.98 5.98 10 7 C7.03 7 4.06 7 1 7 C1.33 8.32 1.66 9.64 2 11 C2.99 11.33 3.98 11.66 5 12 C4.67 13.65 4.34 15.3 4 17 C3.01 17 2.02 17 1 17 C1 16.34 1 15.68 1 15 C-0.32 14.67 -1.64 14.34 -3 14 C-2.485 8.719 -0.745 5.428 2 1 C1.34 0.67 0.68 0.34 0 0 Z " fill="#C78449" transform="translate(58,53)"/>
<path d="M0 0 C2.784 1.392 2.979 3.156 4 6 C3.196 6.124 2.391 6.248 1.562 6.375 C0.717 6.581 -0.129 6.787 -1 7 C-1.33 7.66 -1.66 8.32 -2 9 C-3.32 8.67 -4.64 8.34 -6 8 C-6.33 8.99 -6.66 9.98 -7 11 C-9.751 11.917 -11.359 12.109 -14.188 12.062 C-14.817 12.052 -14.817 12.052 -18 12 C-18 11.34 -18 10.68 -18 10 C-18.66 10 -19.32 10 -20 10 C-20 10.66 -20 11.32 -20 12 C-20.66 12 -21.32 12 -22 12 C-22.33 11.01 -22.66 10.02 -23 9 C-22.01 8.34 -21.02 7.68 -20 7 C-20 7.66 -20 8.32 -20 9 C-19.34 9 -18.68 9 -18 9 C-18 8.34 -18 7.68 -18 7 C-16.68 7 -15.36 7 -14 7 C-13.67 8.32 -13.34 9.64 -13 11 C-12.34 11 -11.68 11 -11 11 C-11 9.35 -11 7.7 -11 6 C-7.7 5.67 -4.4 5.34 -1 5 C-0.67 3.35 -0.34 1.7 0 0 Z " fill="#C1894B" transform="translate(94,127)"/>
<path d="M0 0 C0.33 0 0.66 0 1 0 C0.67 4.62 0.34 9.24 0 14 C0.66 14 1.32 14 2 14 C5 18.385 5 18.385 5 21 C3.68 20.67 2.36 20.34 1 20 C1.33 20.99 1.66 21.98 2 23 C1.051 22.979 0.103 22.959 -0.875 22.938 C-4 23 -4 23 -6 24 C-5.546 22.783 -5.093 21.566 -4.625 20.312 C-2.898 15.195 -2.142 10.064 -1.43 4.723 C-1 2 -1 2 0 0 Z " fill="#B48B5C" transform="translate(114,70)"/>
<path d="M0 0 C2.312 1.438 2.312 1.438 4 4 C4.498 7.065 4.623 9.951 4 13 C1.894 15.802 1.184 15.973 -2.438 16.5 C-6 16 -6 16 -8.5 14 C-10.251 10.499 -10.322 8.583 -9.609 4.805 C-9 3 -9 3 -7.25 1 C-4.508 -0.219 -2.967 -0.519 0 0 Z M-6.812 4.688 C-8 7 -8 7 -7.875 9.562 C-6.925 12.209 -6.371 13.476 -4 15 C-1.438 14.875 -1.438 14.875 1 14 C3 11 3 11 2.812 8.5 C1.934 5.796 1.315 4.629 -1 3 C-5 3 -5 3 -6.812 4.688 Z " fill="#EDE7DB" transform="translate(132,64)"/>
<path d="M0 0 C0.91 0.009 1.82 0.018 2.758 0.027 C3.456 0.039 4.155 0.051 4.875 0.062 C5.205 0.722 5.535 1.382 5.875 2.062 C5.215 2.062 4.555 2.062 3.875 2.062 C3.215 3.382 2.555 4.703 1.875 6.062 C0.761 5.877 -0.352 5.691 -1.5 5.5 C-5.125 5.062 -5.125 5.062 -7.125 6.062 C-5.475 6.062 -3.825 6.062 -2.125 6.062 C-2.125 7.052 -2.125 8.043 -2.125 9.062 C-3.239 9.166 -4.352 9.269 -5.5 9.375 C-6.696 9.602 -7.892 9.829 -9.125 10.062 C-9.785 11.052 -10.445 12.043 -11.125 13.062 C-11.628 7.777 -10.394 5.197 -7.125 1.062 C-4.6 -0.2 -2.813 -0.036 0 0 Z " fill="#D68F4B" transform="translate(40.125,82.9375)"/>
<path d="M0 0 C0.99 0.33 1.98 0.66 3 1 C2.67 2.32 2.34 3.64 2 5 C2.66 5 3.32 5 4 5 C4 5.66 4 6.32 4 7 C2.555 7.941 1.109 8.88 -0.344 9.809 C-5.421 13.461 -7.852 18.348 -10 24 C-11.857 19.155 -9.506 15.554 -7.547 11.062 C-5.482 6.974 -2.972 3.472 0 0 Z " fill="#B97741" transform="translate(34,65)"/>
<path d="M0 0 C2.625 -0.188 2.625 -0.188 5 0 C4.377 1.584 3.752 3.167 3.125 4.75 C2.777 5.632 2.429 6.513 2.07 7.422 C1.135 9.674 0.122 11.836 -1 14 C-1.66 14 -2.32 14 -3 14 C-3 14.66 -3 15.32 -3 16 C-4.32 16.33 -5.64 16.66 -7 17 C-7 15.02 -7 13.04 -7 11 C-6.34 11 -5.68 11 -5 11 C-4.67 8.36 -4.34 5.72 -4 3 C-3.34 3 -2.68 3 -2 3 C-1.34 2.01 -0.68 1.02 0 0 Z " fill="#DAA45F" transform="translate(120,93)"/>
<path d="M0 0 C-1.965 0.987 -3.924 1.966 -5.93 2.867 C-12.789 6.421 -15.091 12.091 -18 19 C-18.976 15.617 -18.859 13.434 -18 10 C-19.32 9.34 -20.64 8.68 -22 8 C-21.67 6.68 -21.34 5.36 -21 4 C-20.432 4.046 -19.863 4.093 -19.277 4.141 C-14.99 4.341 -11.95 4.32 -8.25 2 C-5.01 0.006 -3.687 -0.447 0 0 Z " fill="#D99452" transform="translate(80,55)"/>
<path d="M0 0 C0.069 0.307 0.069 0.307 0.418 1.863 C1.137 4.504 2.138 6 4 8 C6.105 8.613 6.105 8.613 8 9 C6.714 10.173 5.421 11.338 4.125 12.5 C3.406 13.15 2.686 13.799 1.945 14.469 C0 16 0 16 -2 16 C-3.528 12.409 -4.409 10.331 -3.242 6.531 C-2.235 4.305 -1.175 2.142 0 0 Z " fill="#8E653C" transform="translate(96,107)"/>
<path d="M0 0 C-0.99 0.33 -1.98 0.66 -3 1 C-3 1.66 -3 2.32 -3 3 C-2.01 3.33 -1.02 3.66 0 4 C-0.66 4.99 -0.66 4.99 -4 10 C-4.66 9.67 -5.32 9.34 -6 9 C-6 8.34 -6 7.68 -6 7 C-6.66 7 -7.32 7 -8 7 C-8.33 7.66 -8.66 8.32 -9 9 C-9.66 7.02 -10.32 5.04 -11 3 C-7.466 -0.87 -5.022 -1.222 0 0 Z " fill="#CB884A" transform="translate(53,71)"/>
<path d="M0 0 C-0.33 0.495 -0.33 0.495 -2 3 C-2.165 4.196 -2.33 5.392 -2.5 6.625 C-2.665 7.739 -2.83 8.852 -3 10 C-3.33 10.165 -3.33 10.165 -5 11 C-5 9.35 -5 7.7 -5 6 C-6.32 5.67 -7.64 5.34 -9 5 C-9 7.31 -9 9.62 -9 12 C-9.99 12 -10.98 12 -12 12 C-12.812 8.75 -12.812 8.75 -13 5 C-9.965 1.598 -4.543 -2.271 0 0 Z " fill="#D18E50" transform="translate(48,58)"/>
<path d="M0 0 C-6.632 5.125 -14.025 9.342 -22 12 C-22.33 11.01 -22.66 10.02 -23 9 C-19.736 6.328 -16.33 4.623 -12.5 2.875 C-11.376 2.357 -10.252 1.839 -9.094 1.305 C-2.745 -1.373 -2.745 -1.373 0 0 Z " fill="#442406" transform="translate(94,108)"/>
<path d="M0 0 C-0.99 0.33 -1.98 0.66 -3 1 C-4.305 4.262 -5.211 7.58 -6 11 C-8.31 11.33 -10.62 11.66 -13 12 C-13.33 11.01 -13.66 10.02 -14 9 C-12.35 8.34 -10.7 7.68 -9 7 C-9.186 6.381 -9.371 5.763 -9.562 5.125 C-10 3 -10 3 -9 1 C-5.804 -0.065 -3.343 -0.074 0 0 Z " fill="#834717" transform="translate(102,82)"/>
<path d="M0 0 C1.812 0.188 1.812 0.188 4 1 C5.812 3.312 5.812 3.312 7 6 C6.688 8.312 6.688 8.312 6 10 C5.34 10 4.68 10 4 10 C2.662 10.315 1.328 10.646 0 11 C0 10.34 0 9.68 0 9 C-0.66 9 -1.32 9 -2 9 C-2 8.34 -2 7.68 -2 7 C-3.65 7.66 -5.3 8.32 -7 9 C-4.472 6.201 -2.796 4.542 1 4 C0.34 3.34 -0.32 2.68 -1 2 C-0.67 1.34 -0.34 0.68 0 0 Z " fill="#9E5A1F" transform="translate(61,78)"/>
<path d="M0 0 C0.276 0.072 0.276 0.072 1.672 0.434 C4.187 1.046 6.71 1.561 9.25 2.062 C10.142 2.239 11.034 2.416 11.953 2.598 C12.629 2.73 13.304 2.863 14 3 C13.67 4.32 13.34 5.64 13 7 C11.23 7.054 9.459 7.093 7.688 7.125 C7.194 7.137 7.194 7.137 4.699 7.195 C2 7 2 7 -1 5 C-0.67 3.35 -0.34 1.7 0 0 Z " fill="#ECAC59" transform="translate(131,86)"/>
<path d="M0 0 C1.32 0 2.64 0 4 0 C4 0.66 4 1.32 4 2 C4.66 2.33 5.32 2.66 6 3 C5.67 3.99 5.34 4.98 5 6 C4.948 6.382 4.948 6.382 4.688 8.312 C3.783 11.848 2.296 14.179 0 17 C-1.32 17 -2.64 17 -4 17 C-4 16.34 -4 15.68 -4 15 C-3.34 15 -2.68 15 -2 15 C-2 14.34 -2 13.68 -2 13 C-1.34 13 -0.68 13 0 13 C-0.66 11.02 -1.32 9.04 -2 7 C-1.742 6.794 -1.742 6.794 -0.438 5.75 C0.037 5.172 0.511 4.595 1 4 C0.688 1.812 0.688 1.812 0 0 Z " fill="#E5AA5E" transform="translate(111,110)"/>
<path d="M0 0 C2.125 0.938 2.125 0.938 4 2 C3.34 3.32 2.68 4.64 2 6 C1.34 6 0.68 6 0 6 C-0.33 8.31 -0.66 10.62 -1 13 C-1.66 13 -2.32 13 -3 13 C-3.33 13.99 -3.66 14.98 -4 16 C-4.99 16.33 -5.98 16.66 -7 17 C-7.99 15.68 -8.98 14.36 -10 13 C-7.69 12.34 -5.38 11.68 -3 11 C-3.33 9.35 -3.66 7.7 -4 6 C-3.34 6 -2.68 6 -2 6 C-2 4.35 -2 2.7 -2 1 C-1.34 0.67 -0.68 0.34 0 0 Z " fill="#C5955A" transform="translate(109,111)"/>
<path d="M0 0 C5.662 2.462 5.662 2.462 7.375 5.188 C7.581 5.786 7.787 6.384 8 7 C7.216 7.103 6.433 7.206 5.625 7.312 C3 8 3 8 1 11 C-1.97 10.01 -4.94 9.02 -8 8 C-7.34 7.34 -6.68 6.68 -6 6 C-4.68 6 -3.36 6 -2 6 C-2 5.34 -2 4.68 -2 4 C-0.68 4.33 0.64 4.66 2 5 C1.34 3.35 0.68 1.7 0 0 Z " fill="#C8965A" transform="translate(117,86)"/>
<path d="M0 0 C1.616 4.01 0.288 6.678 -1.25 10.562 C-1.688 11.698 -2.127 12.834 -2.578 14.004 C-3.834 16.651 -4.776 18.162 -7 20 C-7.108 15.558 -6.702 11.386 -6 7 C-5.01 6.67 -4.02 6.34 -3 6 C-1.875 3.5 -1.875 3.5 -1 1 C-0.67 0.67 -0.34 0.34 0 0 Z " fill="#F8C57B" transform="translate(121,107)"/>
<path d="M0 0 C0.33 2.31 0.66 4.62 1 7 C2.98 7 4.96 7 7 7 C7 7.33 7 7.66 7 8 C6.241 8.049 5.481 8.098 4.699 8.148 C3.705 8.223 2.711 8.298 1.688 8.375 C1.194 8.41 1.194 8.41 -1.301 8.586 C-4 9 -4 9 -7 11 C-7.875 8.875 -7.875 8.875 -8 6 C-5.99 3.204 -3.613 0 0 0 Z " fill="#C57F41" transform="translate(36,75)"/>
<path d="M0 0 C0.66 0.33 1.32 0.66 2 1 C2 1.66 2 2.32 2 3 C2.66 3.33 3.32 3.66 4 4 C4 4.66 4 5.32 4 6 C6.296 7.148 8.077 7.308 10.625 7.562 C11.442 7.646 12.26 7.73 13.102 7.816 C13.728 7.877 14.355 7.938 15 8 C15 8.99 15 9.98 15 11 C13.02 10.692 11.041 10.379 9.062 10.062 C8.511 9.975 8.511 9.975 5.723 9.535 C3 9 3 9 2 8 C-0.333 7.959 -2.667 7.958 -5 8 C-4.546 7.423 -4.093 6.845 -3.625 6.25 C-2.159 4.22 -1.051 2.265 0 0 Z " fill="#AE7F4D" transform="translate(31,127)"/>
<path d="M0 0 C0 0.99 0 1.98 0 3 C-0.66 3 -1.32 3 -2 3 C-2.33 3.99 -2.66 4.98 -3 6 C-3.804 6.124 -4.609 6.248 -5.438 6.375 C-5.86 6.478 -5.86 6.478 -8 7 C-8.33 7.66 -8.66 8.32 -9 9 C-10.125 7.25 -10.125 7.25 -11 5 C-9.013 -0.795 -5.572 -0.103 0 0 Z " fill="#B06B2A" transform="translate(40,91)"/>
<path d="M0 0 C0.99 0.33 1.98 0.66 3 1 C-3.294 8.895 -3.294 8.895 -8 11 C-9.32 11 -10.64 11 -12 11 C-12 10.01 -12 9.02 -12 8 C-10.68 8.33 -9.36 8.66 -8 9 C-7.67 7.02 -7.34 5.04 -7 3 C-4 2 -4 2 -1 3 C-0.67 2.01 -0.34 1.02 0 0 Z " fill="#E2A557" transform="translate(106,128)"/>
<path d="M0 0 C0.536 0.248 1.072 0.495 1.625 0.75 C1.625 2.4 1.625 4.05 1.625 5.75 C-1.015 5.915 -1.015 5.915 -14.375 6.75 C-14.375 6.42 -14.375 6.09 -14.375 5.75 C-13.509 5.502 -12.642 5.255 -11.75 5 C-8.375 3.75 -8.375 3.75 -5.25 1.562 C-2.375 -0.25 -2.375 -0.25 0 0 Z " fill="#DBC6AC" transform="translate(129.375,137.25)"/>
<path d="M0 0 C2.97 0.99 5.94 1.98 9 3 C9 3.66 9 4.32 9 5 C10.217 4.979 11.434 4.959 12.688 4.938 C15.92 4.932 18.849 5.212 22 6 C21.67 6.66 21.34 7.32 21 8 C18.69 7.835 18.69 7.835 7 7 C7 6.34 7 5.68 7 5 C6.01 4.835 6.01 4.835 1 4 C0.67 2.68 0.34 1.36 0 0 Z " fill="#764E25" transform="translate(34,126)"/>
<path d="M0 0 C0.66 0.33 1.32 0.66 2 1 C1.67 1.382 1.67 1.382 0 3.312 C-2 6 -2 6 -2 9 C-2.99 9.33 -3.98 9.66 -5 10 C-5 9.01 -5 8.02 -5 7 C-5.99 7 -6.98 7 -8 7 C-9.671 6.689 -11.339 6.359 -13 6 C-12.67 4.68 -12.34 3.36 -12 2 C-8.284 1.799 -7.228 1.848 -4 4 C-2.68 2.68 -1.36 1.36 0 0 Z " fill="#AB6A32" transform="translate(75,68)"/>
<path d="M0 0 C3.71 2.294 4.763 4.192 5.875 8.375 C6.141 9.311 6.406 10.247 6.68 11.211 C7.049 14.428 6.428 16.135 5 19 C4.01 18.67 3.02 18.34 2 18 C2.041 16.701 2.082 15.401 2.125 14.062 C2.141 9.164 1.249 4.718 0 0 Z " fill="#E0B580" transform="translate(117,41)"/>
<path d="M0 0 C0.66 0.33 1.32 0.66 2 1 C0.617 2.491 -0.782 3.968 -2.188 5.438 C-2.965 6.261 -3.742 7.085 -4.543 7.934 C-7.202 10.17 -8.57 10.787 -12 11 C-14.312 10.562 -14.312 10.562 -16 10 C-15.481 9.769 -14.961 9.539 -14.426 9.301 C-9.74 7.11 -6.593 4.798 -3 1 C-2.01 0.67 -1.02 0.34 0 0 Z " fill="#63360E" transform="translate(104,97)"/>
<path d="M0 0 C0.75 2.188 0.75 2.188 1 5 C-0.812 7.812 -0.812 7.812 -3 10 C-3.66 10 -4.32 10 -5 10 C-5.33 9.01 -5.66 8.02 -6 7 C-6.66 6.34 -7.32 5.68 -8 5 C-7.01 4.01 -6.02 3.02 -5 2 C-5.33 1.34 -5.66 0.68 -6 0 C-3.509 -1.245 -2.589 -0.777 0 0 Z " fill="#A05E29" transform="translate(90,75)"/>
<path d="M0 0 C0.66 0.33 1.32 0.66 2 1 C2 1.66 2 2.32 2 3 C3.5 4.625 3.5 4.625 5 6 C5.66 5.34 6.32 4.68 7 4 C6.387 6.962 5.746 8.381 4 11 C3.01 10.835 3.01 10.835 -2 10 C-2.25 3.375 -2.25 3.375 0 0 Z " fill="#AC6C39" transform="translate(47,58)"/>
<path d="M0 0 C0.531 0.289 1.062 0.578 1.609 0.875 C2.316 1.246 3.022 1.618 3.75 2 C4.446 2.371 5.142 2.743 5.859 3.125 C8 4 8 4 12 4 C12.33 3.34 12.66 2.68 13 2 C14.65 2 16.3 2 18 2 C18 1.34 18 0.68 18 0 C18.66 0 19.32 0 20 0 C20 0.99 20 1.98 20 3 C16.227 5.973 12.733 6.668 8 7 C4.562 6.562 4.562 6.562 2 6 C1.34 4.02 0.68 2.04 0 0 Z " fill="#743E13" transform="translate(29,106)"/>
<path d="M0 0 C4.95 0 9.9 0 15 0 C11.25 7.625 11.25 7.625 9 11 C7.875 6.25 7.875 6.25 9 4 C5.7 3.67 2.4 3.34 -1 3 C-0.67 2.01 -0.34 1.02 0 0 Z " fill="#D69547" transform="translate(131,92)"/>
<path d="M0 0 C0.33 0.165 0.33 0.165 2 1 C2 1.66 2 2.32 2 3 C2.66 3 3.32 3 4 3 C8.592 13.374 8.592 13.374 8 19 C9.32 18.67 10.64 18.34 12 18 C10.688 20 10.688 20 9 22 C8.01 22 7.02 22 6 22 C5.986 21.394 5.972 20.788 5.957 20.164 C5.602 13.926 4.101 9.479 1.059 4.031 C0 2 0 2 0 0 Z " fill="#6B360C" transform="translate(64,77)"/>
<path d="M0 0 C2.31 0.66 4.62 1.32 7 2 C4.551 4.449 3.403 4.578 0 5 C-2.274 4.917 -4.546 4.769 -6.812 4.562 C-7.974 4.461 -9.135 4.359 -10.332 4.254 C-11.212 4.17 -12.093 4.086 -13 4 C-13 3.34 -13 2.68 -13 2 C-12.01 1.67 -11.02 1.34 -10 1 C-10 1.66 -10 2.32 -10 3 C-7.69 2.34 -5.38 1.68 -3 1 C-3 1.66 -3 2.32 -3 3 C-2.01 2.01 -1.02 1.02 0 0 Z " fill="#B68044" transform="translate(61,133)"/>
<path d="M0 0 C0.66 0.33 1.32 0.66 2 1 C1.67 3.31 1.34 5.62 1 8 C-0.32 8 -1.64 8 -3 8 C-2.67 8.99 -2.34 9.98 -2 11 C-2.66 11.66 -3.32 12.32 -4 13 C-4.33 12.34 -4.66 11.68 -5 11 C-5.66 11 -6.32 11 -7 11 C-6.67 8.69 -6.34 6.38 -6 4 C-5.598 3.856 -5.598 3.856 -3.562 3.125 C-1 2 -1 2 0 0 Z " fill="#80582F" transform="translate(79,122)"/>
<path d="M0 0 C1.25 2.062 1.25 2.062 2 4 C1.381 4.289 0.763 4.578 0.125 4.875 C-2 6 -2 6 -4 8 C-6.625 8.625 -6.625 8.625 -9 9 C-8.484 8.588 -7.969 8.175 -7.438 7.75 C-6.963 7.172 -6.489 6.595 -6 6 C-6.312 3.938 -6.312 3.938 -7 2 C-7 1.34 -7 0.68 -7 0 C-3.874 -1.042 -2.953 -1.238 0 0 Z " fill="#AA662F" transform="translate(86,59)"/>
<path d="M0 0 C2.645 0.366 3.771 0.749 5.598 2.75 C9.006 7.985 11.373 12.962 13 19 C12.01 18.67 11.02 18.34 10 18 C10.33 17.34 10.66 16.68 11 16 C10.01 16 9.02 16 8 16 C7.867 15.385 7.734 14.77 7.598 14.137 C7.421 13.328 7.244 12.52 7.062 11.688 C6.888 10.887 6.714 10.086 6.535 9.262 C6 7 6 7 5 4 C2.438 2.812 2.438 2.812 0 2 C0 1.34 0 0.68 0 0 Z " fill="#99643A" transform="translate(93,65)"/>
<path d="M0 0 C1 3 1 3 0.398 4.867 C-2.543 10.637 -5.767 15.461 -12 18 C-12.33 17.34 -12.66 16.68 -13 16 C-12.484 15.608 -12.484 15.608 -9.875 13.625 C-5.382 9.818 -2.768 5.131 0 0 Z " fill="#D99A48" transform="translate(117,123)"/>
<path d="M0 0 C0.825 0.165 0.825 0.165 5 1 C5.33 3.97 5.66 6.94 6 10 C5.67 9.34 5.34 8.68 5 8 C3.35 8.66 1.7 9.32 0 10 C0 6.7 0 3.4 0 0 Z " fill="#9A571C" transform="translate(34,112)"/>
<path d="M0 0 C-1.391 2.782 -3.302 3.552 -6 5 C-6.66 5 -7.32 5 -8 5 C-8.33 5.99 -8.66 6.98 -9 8 C-10.812 9.25 -10.812 9.25 -13 10 C-15.137 9.547 -15.137 9.547 -17 9 C-15.115 7.485 -13.219 5.988 -11.312 4.5 C-10.782 4.071 -10.252 3.641 -9.705 3.199 C-6.371 0.622 -4.239 -0.566 0 0 Z " fill="#BB7027" transform="translate(105,96)"/>
<path d="M0 0 C1.32 1.65 2.64 3.3 4 5 C3.67 5.66 3.34 6.32 3 7 C2.34 6.34 1.68 5.68 1 5 C-5.524 3.664 -10.346 5.777 -15.934 9.004 C-16.616 9.333 -17.297 9.661 -18 10 C-18.66 9.67 -19.32 9.34 -20 9 C-13.149 4.546 -8.425 1.67 0 2 C0 1.34 0 0.68 0 0 Z " fill="#C77D33" transform="translate(97,69)"/>
<path d="M0 0 C0.66 0.66 1.32 1.32 2 2 C2.66 2 3.32 2 4 2 C4 2.66 4 3.32 4 4 C4.66 4 5.32 4 6 4 C6 3.34 6 2.68 6 2 C6.66 2 7.32 2 8 2 C8.33 2.99 8.66 3.98 9 5 C3.06 5 -2.88 5 -9 5 C-9.33 4.34 -9.66 3.68 -10 3 C-8.35 2.505 -8.35 2.505 0 0 Z " fill="#D49448" transform="translate(68,135)"/>
<path d="M0 0 C-2.561 1.294 -5.124 2.585 -7.688 3.875 C-8.409 4.24 -9.13 4.605 -9.873 4.98 C-13.531 6.818 -17.161 8.561 -21 10 C-20.875 8.125 -20.875 8.125 -20 6 C-18.032 5.243 -16.02 4.603 -14 4 C-11.428 2.688 -8.894 1.323 -6.367 -0.074 C-3.647 -1.138 -2.713 -0.817 0 0 Z " fill="#894A10" transform="translate(88,109)"/>
<path d="M0 0 C0.33 0 0.66 0 1 0 C1 2.64 1 5.28 1 8 C-4.28 7.34 -9.56 6.68 -15 6 C-11.307 3.538 -9.362 4 -5 4 C-2.062 3 -2.062 3 0 2 C0 1.34 0 0.68 0 0 Z " fill="#CDA16E" transform="translate(144,50)"/>
<path d="M0 0 C0.99 0.33 1.98 0.66 3 1 C3 2.32 3 3.64 3 5 C2.01 5.33 1.02 5.66 0 6 C0.99 6.33 1.98 6.66 3 7 C3 7.66 3 8.32 3 9 C0.69 8.67 -1.62 8.34 -4 8 C-4.33 6.35 -4.66 4.7 -5 3 C-2.688 1.438 -2.688 1.438 0 0 Z " fill="#97561D" transform="translate(66,86)"/>
<path d="M0 0 C0.66 0.66 1.32 1.32 2 2 C1.134 2.412 0.267 2.825 -0.625 3.25 C-4 5 -4 5 -7.125 7.25 C-10 9 -10 9 -12.375 8.75 C-12.911 8.502 -13.447 8.255 -14 8 C-9.538 3.872 -5.779 1.893 0 0 Z " fill="#63401C" transform="translate(76,120)"/>
<path d="M0 0 C0.66 0 1.32 0 2 0 C2.014 0.748 2.028 1.495 2.043 2.266 C2.437 10.41 2.437 10.41 5.562 13.688 C5.965 13.904 5.965 13.904 8 15 C5.087 14.914 3.432 14.421 1.332 12.375 C-0.161 10.616 -1.604 8.837 -3 7 C-2.34 7 -1.68 7 -1 7 C-0.67 4.69 -0.34 2.38 0 0 Z " fill="#B66D28" transform="translate(32,111)"/>
<path d="M0 0 C0.289 0.639 0.578 1.279 0.875 1.938 C2 4 2 4 4 5 C3.34 5 2.68 5 2 5 C1.34 6.65 0.68 8.3 0 10 C-0.66 10 -1.32 10 -2 10 C-2.33 10.66 -2.66 11.32 -3 12 C-3.33 11.67 -3.66 11.34 -4 11 C-4.99 12.98 -5.98 14.96 -7 17 C-7.75 15.375 -7.75 15.375 -8 13 C-6.188 9.938 -6.188 9.938 -4 7 C-3.34 6.01 -2.68 5.02 -2 4 C-1.67 4.99 -1.34 5.98 -1 7 C-0.67 4.69 -0.34 2.38 0 0 Z " fill="#C59965" transform="translate(123,52)"/>
<path d="M0 0 C0.66 0.33 1.32 0.66 2 1 C2 1.99 2 2.98 2 4 C-1.333 6.5 -2.733 7 -7 7 C-7 6.34 -7 5.68 -7 5 C-7.66 5 -8.32 5 -9 5 C-9.33 5.99 -9.66 6.98 -10 8 C-10.33 7.34 -10.66 6.68 -11 6 C-8.334 2.55 -5.088 2.06 -1 1 C-0.67 0.67 -0.34 0.34 0 0 Z " fill="#C29562" transform="translate(29,128)"/>
<path d="M0 0 C2 2 2 2 2 5 C1.34 5 0.68 5 0 5 C0 5.66 0 6.32 0 7 C0.33 7.33 0.66 7.66 1 8 C0.67 8.99 0.34 9.98 0 11 C-0.99 11 -1.98 11 -3 11 C-3.33 11.66 -3.66 12.32 -4 13 C-4.66 13 -5.32 13 -6 13 C-6 11.68 -6 10.36 -6 9 C-5.34 9 -4.68 9 -4 9 C-3.67 7.68 -3.34 6.36 -3 5 C-2.34 5.33 -1.68 5.66 -1 6 C-1.206 5.381 -1.412 4.763 -1.625 4.125 C-1.749 3.424 -1.873 2.722 -2 2 C-1.34 1.34 -0.68 0.68 0 0 Z " fill="#D59A51" transform="translate(109,118)"/>
<path d="M0 0 C0.66 0.33 1.32 0.66 2 1 C3.331 4.992 2.815 7.263 1 11 C2.32 12.65 3.64 14.3 5 16 C0.45 14.483 -1.501 10.831 -4 7 C-3.34 6.67 -2.68 6.34 -2 6 C-1.67 6.33 -1.34 6.66 -1 7 C-0.67 4.69 -0.34 2.38 0 0 Z " fill="#925728" transform="translate(29,108)"/>
<path d="M0 0 C1.32 0.33 2.64 0.66 4 1 C4 1.66 4 2.32 4 3 C8.62 3 13.24 3 18 3 C18.33 3.66 18.66 4.32 19 5 C14.694 5.931 11.288 6.181 7 5.125 C6.319 4.963 5.639 4.8 4.938 4.633 C3 4 3 4 0 2 C0 1.34 0 0.68 0 0 Z " fill="#8F6132" transform="translate(37,130)"/>
<path d="M0 0 C0.66 0 1.32 0 2 0 C2 1.65 2 3.3 2 5 C1.01 5 0.02 5 -1 5 C-1.33 5.66 -1.66 6.32 -2 7 C-5.062 7.625 -5.062 7.625 -8 8 C-7.688 5.625 -7.688 5.625 -7 3 C-6.01 2.34 -5.02 1.68 -4 1 C-3.01 1.33 -2.02 1.66 -1 2 C-0.67 1.34 -0.34 0.68 0 0 Z " fill="#B5895B" transform="translate(111,96)"/>
<path d="M0 0 C-0.887 0.536 -1.774 1.073 -2.688 1.625 C-8.526 5.55 -11.558 10.574 -14 17 C-15.113 14.2 -15.035 13.099 -14.004 10.203 C-13.528 9.229 -13.053 8.254 -12.562 7.25 C-12.089 6.265 -11.616 5.28 -11.129 4.266 C-10.756 3.518 -10.384 2.77 -10 2 C-9.01 2 -8.02 2 -7 2 C-6.67 1.34 -6.34 0.68 -6 0 C-3 -1 -3 -1 0 0 Z " fill="#97633A" transform="translate(38,72)"/>
<path d="M0 0 C0.33 0.66 0.66 1.32 1 2 C2.65 1.67 4.3 1.34 6 1 C6 3.31 6 5.62 6 8 C4.68 8.33 3.36 8.66 2 9 C-0.29 5.565 -0.178 4.015 0 0 Z " fill="#12100D" transform="translate(146,67)"/>
<path d="M0 0 C0 0.33 0 0.66 0 1 C-0.664 1.182 -1.328 1.364 -2.012 1.551 C-6.755 2.901 -10.896 4.185 -15 7 C-15.833 7.5 -15.833 7.5 -20 10 C-18.187 5.384 -14.966 3.063 -10.688 0.75 C-7.022 -0.273 -3.801 -0.129 0 0 Z " fill="#B97232" transform="translate(92,65)"/>
<path d="M0 0 C2.784 1.392 2.979 3.156 4 6 C3.196 6.124 2.391 6.248 1.562 6.375 C1.14 6.478 1.14 6.478 -1 7 C-1.33 7.66 -1.66 8.32 -2 9 C-2.619 8.794 -3.237 8.588 -3.875 8.375 C-4.576 8.251 -5.278 8.127 -6 8 C-6.66 8.66 -7.32 9.32 -8 10 C-8 8.68 -8 7.36 -8 6 C-6.845 5.835 -6.845 5.835 -1 5 C-0.67 3.35 -0.34 1.7 0 0 Z " fill="#B28045" transform="translate(94,127)"/>
<path d="M0 0 C2.25 0.25 2.25 0.25 4 1 C4.33 2.32 4.66 3.64 5 5 C3.845 5.495 3.845 5.495 -2 8 C-2.66 6.68 -3.32 5.36 -4 4 C-2.25 1.938 -2.25 1.938 0 0 Z " fill="#C27A35" transform="translate(44,85)"/>
<path d="M0 0 C0 3 0 3 -1.438 5.812 C-2.985 8.969 -3.587 11.532 -4 15 C-4.66 15 -5.32 15 -6 15 C-5.67 12.36 -5.34 9.72 -5 7 C-5.66 7 -6.32 7 -7 7 C-7 5.68 -7 4.36 -7 3 C-6.216 2.876 -5.432 2.752 -4.625 2.625 C-2 2 -2 2 0 0 Z " fill="#D99555" transform="translate(59,55)"/>
<path d="M0 0 C0.99 0 1.98 0 3 0 C3 2.31 3 4.62 3 7 C1.68 7.33 0.36 7.66 -1 8 C-1 7.34 -1 6.68 -1 6 C-1.66 6 -2.32 6 -3 6 C-2.67 6.99 -2.34 7.98 -2 9 C-2.99 9.33 -3.98 9.66 -5 10 C-4.67 8.02 -4.34 6.04 -4 4 C-3.34 4 -2.68 4 -2 4 C-2 3.34 -2 2.68 -2 2 C-1.34 1.34 -0.68 0.68 0 0 Z " fill="#815A32" transform="translate(86,117)"/>
<path d="M0 0 C2 3 2 3 1.625 6.188 C1.419 7.116 1.213 8.044 1 9 C0.361 9.124 -0.279 9.248 -0.938 9.375 C-1.618 9.581 -2.299 9.788 -3 10 C-3.33 10.66 -3.66 11.32 -4 12 C-5 10 -5 10 -4.512 7.871 C-4.24 7.068 -3.968 6.265 -3.688 5.438 C-3.423 4.632 -3.159 3.826 -2.887 2.996 C-2 1 -2 1 0 0 Z " fill="#DAB484" transform="translate(145,42)"/>
<path d="M0 0 C-0.33 0.99 -0.66 1.98 -1 3 C-3.814 4.091 -6.347 4.071 -9.328 3.879 C-10.127 3.831 -10.927 3.782 -11.75 3.732 C-12.575 3.676 -13.4 3.62 -14.25 3.562 C-15.09 3.51 -15.931 3.458 -16.797 3.404 C-18.865 3.275 -20.933 3.138 -23 3 C-23 2.67 -23 2.34 -23 2 C-19.729 1.664 -16.458 1.332 -13.188 1 C-12.259 0.905 -11.33 0.809 -10.373 0.711 C-9.48 0.621 -8.588 0.53 -7.668 0.438 C-6.846 0.354 -6.024 0.27 -5.177 0.184 C-3 0 -3 0 0 0 Z " fill="#ECDECC" transform="translate(135,142)"/>
<path d="M0 0 C4 4 4 4 4.207 6.691 C4.077 7.639 3.947 8.586 3.812 9.562 C3.695 10.513 3.578 11.463 3.457 12.441 C3 15 3 15 2 18 C2 17.34 2 16.68 2 16 C1.34 16 0.68 16 0 16 C0 10.72 0 5.44 0 0 Z " fill="#CFA269" transform="translate(114,68)"/>
<path d="M0 0 C0.99 0.33 1.98 0.66 3 1 C1.544 4.84 -0.282 6.31 -4 8 C-7.312 8.188 -7.312 8.188 -10 8 C-9.732 7.804 -9.732 7.804 -8.375 6.812 C-6 5 -6 5 -4.504 3.652 C-3.064 2.363 -1.534 1.175 0 0 Z " fill="#D5923F" transform="translate(129,130)"/>
<path d="M0 0 C2 2 2 2 2 6 C1.01 6.66 0.02 7.32 -1 8 C-0.67 8.66 -0.34 9.32 0 10 C-2.31 10.33 -4.62 10.66 -7 11 C-7.33 10.34 -7.66 9.68 -8 9 C-7.01 8.34 -6.02 7.68 -5 7 C-5 6.34 -5 5.68 -5 5 C-3.68 5 -2.36 5 -1 5 C-0.67 3.35 -0.34 1.7 0 0 Z " fill="#87460D" transform="translate(68,100)"/>
<path d="M0 0 C0.33 0 0.66 0 1 0 C1 2.97 1 5.94 1 9 C-3.75 10.125 -3.75 10.125 -6 9 C-5.67 8.01 -5.34 7.02 -5 6 C-3.35 6 -1.7 6 0 6 C0 5.34 0 4.68 0 4 C-1.32 3.67 -2.64 3.34 -4 3 C-2.68 2.67 -1.36 2.34 0 2 C0 1.34 0 0.68 0 0 Z " fill="#834714" transform="translate(69,89)"/>
<path d="M0 0 C-1 2 -1 2 -3.438 3.188 C-6.897 5.635 -7.16 7.953 -8 12 C-8.66 11.67 -9.32 11.34 -10 11 C-9.514 3.587 -9.514 3.587 -7.25 1 C-4.656 -0.153 -2.81 -0.234 0 0 Z " fill="#EEECEA" transform="translate(132,64)"/>
<path d="M0 0 C0.66 0 1.32 0 2 0 C2 0.66 2 1.32 2 2 C2.66 2 3.32 2 4 2 C4.33 1.34 4.66 0.68 5 0 C5.66 0.99 6.32 1.98 7 3 C9.625 3.688 9.625 3.688 12 4 C12.33 5.32 12.66 6.64 13 8 C10.038 7.387 8.619 6.746 6 5 C4.01 4.61 2.01 4.268 0 4 C0 2.68 0 1.36 0 0 Z " fill="#995A24" transform="translate(37,78)"/>
<path d="M0 0 C2.31 0.66 4.62 1.32 7 2 C6.67 3.65 6.34 5.3 6 7 C5.01 7 4.02 7 3 7 C3 6.34 3 5.68 3 5 C1.68 4.67 0.36 4.34 -1 4 C-0.67 2.68 -0.34 1.36 0 0 Z " fill="#B9773C" transform="translate(56,63)"/>
<path d="M0 0 C0.382 0.165 0.382 0.165 2.312 1 C5 2 5 2 8 2 C8 2.66 8 3.32 8 4 C8.299 3.897 8.299 3.897 9.812 3.375 C12 3 12 3 15 5 C13.35 5 11.7 5 10 5 C10 5.66 10 6.32 10 7 C8.68 7.33 7.36 7.66 6 8 C6 7.34 6 6.68 6 6 C4.02 4.309 2.021 2.642 0 1 C0 0.67 0 0.34 0 0 Z " fill="#B66920" transform="translate(49,107)"/>
<path d="M0 0 C0.66 0 1.32 0 2 0 C2 1.32 2 2.64 2 4 C2.99 3.34 3.98 2.68 5 2 C5.99 2 6.98 2 8 2 C8.33 3.32 8.66 4.64 9 6 C6.69 6.66 4.38 7.32 2 8 C1.34 5.36 0.68 2.72 0 0 Z " fill="#965721" transform="translate(51,88)"/>
<path d="M0 0 C3.3 0 6.6 0 10 0 C10.33 0.66 10.66 1.32 11 2 C10.34 2 9.68 2 9 2 C8.34 3.32 7.68 4.64 7 6 C6.01 5.67 5.02 5.34 4 5 C4 4.01 4 3.02 4 2 C2.35 2 0.7 2 -1 2 C-0.67 1.34 -0.34 0.68 0 0 Z " fill="#DC9855" transform="translate(35,83)"/>
<path d="M0 0 C3.204 0 5.094 0.743 8 2 C7.34 3.65 6.68 5.3 6 7 C5.01 6.67 4.02 6.34 3 6 C3 5.34 3 4.68 3 4 C1.35 4 -0.3 4 -2 4 C-1.34 2.68 -0.68 1.36 0 0 Z " fill="#BA7842" transform="translate(65,66)"/>
<path d="M0 0 C0.66 0 1.32 0 2 0 C2.124 0.804 2.248 1.609 2.375 2.438 C2.478 2.86 2.478 2.86 3 5 C3.66 5.33 4.32 5.66 5 6 C2.69 6.33 0.38 6.66 -2 7 C-2.66 5.68 -3.32 4.36 -4 3 C-3.34 2.34 -2.68 1.68 -2 1 C-1.34 1.33 -0.68 1.66 0 2 C0 1.34 0 0.68 0 0 Z " fill="#D28C4A" transform="translate(55,77)"/>
<path d="M0 0 C0.66 0 1.32 0 2 0 C1.125 5.875 1.125 5.875 0 7 C-2 7.041 -4 7.043 -6 7 C-6 6.01 -6 5.02 -6 4 C-5.598 3.856 -5.598 3.856 -3.562 3.125 C-1 2 -1 2 0 0 Z " fill="#AA6422" transform="translate(38,94)"/>
<path d="M0 0 C0.33 1.32 0.66 2.64 1 4 C0.01 3.67 -0.98 3.34 -2 3 C-2 3.66 -2 4.32 -2 5 C-2.99 4.67 -3.98 4.34 -5 4 C-6.997 3.648 -8.997 3.312 -11 3 C-7.486 -0.374 -4.739 -0.273 0 0 Z " fill="#67370F" transform="translate(107,90)"/>
<path d="M0 0 C0.99 0.165 0.99 0.165 6 1 C5.01 2.98 4.02 4.96 3 7 C1.68 6.34 0.36 5.68 -1 5 C-0.67 3.35 -0.34 1.7 0 0 Z " fill="#141513" transform="translate(125,70)"/>
<path d="M0 0 C-1 3 -1 3 -3.375 4.312 C-4.241 4.539 -5.108 4.766 -6 5 C-6.99 4.34 -7.98 3.68 -9 3 C-8.67 2.01 -8.34 1.02 -8 0 C-5.138 -1.431 -3.066 -0.6 0 0 Z " fill="#76502A" transform="translate(74,128)"/>
<path d="M0 0 C-0.33 0.495 -0.33 0.495 -2 3 C-5.125 3.188 -5.125 3.188 -8 3 C-8.66 4.32 -9.32 5.64 -10 7 C-10.99 6.67 -11.98 6.34 -13 6 C-10.195 1.216 -5.459 -1.82 0 0 Z " fill="#684521" transform="translate(91,114)"/>
<path d="M0 0 C0.66 0 1.32 0 2 0 C2 1.98 2 3.96 2 6 C2.66 6.33 3.32 6.66 4 7 C1.667 9.333 -0.667 11.667 -3 14 C-2.01 9.38 -1.02 4.76 0 0 Z " fill="#542808" transform="translate(70,102)"/>
<path d="M0 0 C0.99 0.66 1.98 1.32 3 2 C2.01 3.65 1.02 5.3 0 7 C-0.66 6.67 -1.32 6.34 -2 6 C-4.125 6.438 -4.125 6.438 -6 7 C-5.812 5.188 -5.812 5.188 -5 3 C-2.438 1.25 -2.438 1.25 0 0 Z " fill="#9B5A24" transform="translate(85,87)"/>
<path d="M0 0 C0.454 0.124 0.454 0.124 2.75 0.75 C3.08 2.07 3.41 3.39 3.75 4.75 C2.43 5.08 1.11 5.41 -0.25 5.75 C-0.25 5.09 -0.25 4.43 -0.25 3.75 C-0.91 3.75 -1.57 3.75 -2.25 3.75 C-2.25 3.09 -2.25 2.43 -2.25 1.75 C-3.9 2.41 -5.55 3.07 -7.25 3.75 C-4.05 -0.312 -4.05 -0.312 0 0 Z " fill="#AE672A" transform="translate(61.25,83.25)"/>
<path d="M0 0 C0.99 0.33 1.98 0.66 3 1 C3 2.32 3 3.64 3 5 C2.34 5 1.68 5 1 5 C0.67 5.99 0.34 6.98 0 8 C-0.99 8.33 -1.98 8.66 -3 9 C-3.99 7.68 -4.98 6.36 -6 5 C-3.69 4.34 -1.38 3.68 1 3 C0.67 2.01 0.34 1.02 0 0 Z " fill="#BD894B" transform="translate(105,119)"/>
<path d="M0 0 C0.33 0 0.66 0 1 0 C2.292 4.12 3.263 7.668 3 12 C2.175 11.67 2.175 11.67 -2 10 C-2 9.34 -2 8.68 -2 8 C-2.33 7.67 -2.66 7.34 -3 7 C-2.01 4.69 -1.02 2.38 0 0 Z " fill="#ECC698" transform="translate(153,70)"/>
<path d="M0 0 C1 2 1 2 0.406 3.805 C-0.196 5.181 -0.8 6.556 -1.406 7.93 C-2.099 10.345 -1.8 11.653 -1 14 C-1.66 14 -2.32 14 -3 14 C-3.124 13.361 -3.248 12.721 -3.375 12.062 C-3.581 11.382 -3.787 10.701 -4 10 C-4.66 9.67 -5.32 9.34 -6 9 C-4.02 6.03 -2.04 3.06 0 0 Z " fill="#7E5830" transform="translate(95,107)"/>
<path d="M0 0 C-2.676 2.676 -4.949 2.832 -8.625 3.625 C-9.814 3.885 -11.002 4.146 -12.227 4.414 C-13.142 4.607 -14.057 4.801 -15 5 C-10.463 0.235 -6.553 -1.716 0 0 Z " fill="#BC7F4A" transform="translate(57,54)"/>
<path d="M0 0 C2.438 0.375 2.438 0.375 5 1 C5.33 1.66 5.66 2.32 6 3 C5.062 5.125 5.062 5.125 4 7 C4 6.01 4 5.02 4 4 C2.35 4.33 0.7 4.66 -1 5 C-0.67 3.35 -0.34 1.7 0 0 Z " fill="#E9BD86" transform="translate(113,31)"/>
<path d="M0 0 C0.33 0.66 0.66 1.32 1 2 C-1.53 5.796 -3.781 6.446 -8 8 C-8.99 8 -9.98 8 -11 8 C-11 7.34 -11 6.68 -11 6 C-10.29 5.651 -9.579 5.301 -8.848 4.941 C-7.929 4.486 -7.009 4.031 -6.062 3.562 C-5.604 3.336 -5.604 3.336 -3.285 2.191 C-1 1 -1 1 0 0 Z " fill="#5B3916" transform="translate(93,108)"/>
<path d="M0 0 C0.66 0 1.32 0 2 0 C2 0.66 2 1.32 2 2 C2.99 1.67 3.98 1.34 5 1 C5.33 2.32 5.66 3.64 6 5 C4.68 5 3.36 5 2 5 C-0.25 6 -0.25 6 -2 7 C-1.125 1.125 -1.125 1.125 0 0 Z " fill="#9F703D" transform="translate(70,131)"/>
<path d="M0 0 C1.32 0 2.64 0 4 0 C3.67 0.99 3.34 1.98 3 3 C2.01 3 1.02 3 0 3 C0 3.66 0 4.32 0 5 C1.65 4.67 3.3 4.34 5 4 C4.67 4.66 4.34 5.32 4 6 C3.01 6 2.02 6 1 6 C0.67 6.66 0.34 7.32 0 8 C-1.125 6.25 -1.125 6.25 -2 4 C-1.125 1.75 -1.125 1.75 0 0 Z " fill="#C37C36" transform="translate(31,92)"/>
<path d="M0 0 C1.98 0.33 1.98 0.33 12 2 C12 2.99 12 3.98 12 5 C10.02 4.67 10.02 4.67 0 3 C0 2.01 0 1.02 0 0 Z " fill="#B77F41" transform="translate(34,133)"/>
<path d="M0 0 C-2.879 2.24 -5.767 4.299 -9 6 C-9.66 5.67 -10.32 5.34 -11 5 C-4.831 -1.61 -4.831 -1.61 0 0 Z " fill="#864C17" transform="translate(80,108)"/>
<path d="M0 0 C0.99 0.33 1.98 0.66 3 1 C3 1.66 3 2.32 3 3 C2.67 3.165 2.67 3.165 1 4 C2.65 6.31 4.3 8.62 6 11 C1.792 9.497 0.197 6.767 -2 3 C-2 2.34 -2 1.68 -2 1 C-1.34 0.67 -0.68 0.34 0 0 Z " fill="#A86221" transform="translate(47,109)"/>
<path d="M0 0 C-0.33 1.32 -0.66 2.64 -1 4 C-4.3 4 -7.6 4 -11 4 C-7.231 0.231 -5.123 -0.138 0 0 Z " fill="#E5A454" transform="translate(145,89)"/>
<path d="M0 0 C0.66 0.33 1.32 0.66 2 1 C1.551 2.648 1.091 4.294 0.625 5.938 C0.37 6.854 0.115 7.771 -0.148 8.715 C-1 11 -1 11 -3 12 C-3.688 8.688 -3.688 8.688 -4 5 C-2.625 3.188 -2.625 3.188 -1 2 C-0.67 1.34 -0.34 0.68 0 0 Z " fill="#CE935A" transform="translate(26,82)"/>
<path d="M0 0 C1.32 0.66 2.64 1.32 4 2 C3.67 2.495 3.67 2.495 2 5 C-1 5.312 -1 5.312 -4 5 C-4.66 4.34 -5.32 3.68 -6 3 C-5.196 2.876 -4.391 2.752 -3.562 2.625 C-2.717 2.419 -1.871 2.213 -1 2 C-0.67 1.34 -0.34 0.68 0 0 Z " fill="#C49A65" transform="translate(115,90)"/>
<path d="M0 0 C0.33 0.66 0.66 1.32 1 2 C1.66 2 2.32 2 3 2 C2.34 4.31 1.68 6.62 1 9 C0.34 9 -0.32 9 -1 9 C-1.33 6.36 -1.66 3.72 -2 1 C-1.34 0.67 -0.68 0.34 0 0 Z " fill="#EFEAE2" transform="translate(108,83)"/>
<path d="M0 0 C0.763 0.083 1.526 0.165 2.312 0.25 C2.312 0.91 2.312 1.57 2.312 2.25 C1.714 2.518 1.116 2.786 0.5 3.062 C-1.66 4.235 -3.045 5.444 -4.688 7.25 C-5.017 6.26 -5.347 5.27 -5.688 4.25 C-4.124 1.211 -3.47 0.323 0 0 Z " fill="#CB8B55" transform="translate(70.6875,60.75)"/>
<path d="M0 0 C0.33 0.99 0.66 1.98 1 3 C-1.333 3 -3.667 3 -6 3 C-6.33 3.66 -6.66 4.32 -7 5 C-7 3.35 -7 1.7 -7 0 C-4.333 -1.333 -2.833 -0.671 0 0 Z " fill="#A47642" transform="translate(102,126)"/>
<path d="M0 0 C0.66 0.33 1.32 0.66 2 1 C1.67 2.65 1.34 4.3 1 6 C-0.32 6.33 -1.64 6.66 -3 7 C-3.33 6.01 -3.66 5.02 -4 4 C-2.68 2.68 -1.36 1.36 0 0 Z " fill="#A15E27" transform="translate(77,79)"/>
<path d="M0 0 C3.558 0.61 6.683 1.578 10 3 C10 3.66 10 4.32 10 5 C10.66 5.33 11.32 5.66 12 6 C10.375 6.812 10.375 6.812 8 7 C5.089 4.846 2.557 2.557 0 0 Z " fill="#8A4916" transform="translate(55,71)"/>
<path d="M0 0 C0.99 0.33 1.98 0.66 3 1 C3.66 1 4.32 1 5 1 C5.66 1.33 6.32 1.66 7 2 C4.69 3.65 2.38 5.3 0 7 C-0.66 5.02 -1.32 3.04 -2 1 C-1.34 0.67 -0.68 0.34 0 0 Z " fill="#CA8C54" transform="translate(72,64)"/>
<path d="M0 0 C2.31 0 4.62 0 7 0 C7.66 1.32 8.32 2.64 9 4 C7.188 4.625 7.188 4.625 5 5 C4.01 4.34 3.02 3.68 2 3 C2.33 2.67 2.66 2.34 3 2 C2.01 1.34 1.02 0.68 0 0 Z " fill="#B5733C" transform="translate(62,54)"/>
<path d="M0 0 C0.66 0 1.32 0 2 0 C2.66 0.99 3.32 1.98 4 3 C3.67 3.99 3.34 4.98 3 6 C3 5.34 3 4.68 3 4 C2.67 4.165 2.67 4.165 1 5 C1 5.99 1 6.98 1 8 C0.01 7.01 -0.98 6.02 -2 5 C-1.34 3.35 -0.68 1.7 0 0 Z " fill="#987146" transform="translate(94,112)"/>
<path d="M0 0 C0.825 0.165 0.825 0.165 5 1 C5 2.98 5 4.96 5 7 C2.5 5.75 2.5 5.75 0 4 C0 2.68 0 1.36 0 0 Z " fill="#A25F23" transform="translate(30,103)"/>
<path d="M0 0 C1.125 3.75 1.125 3.75 0 6 C-0.33 5.67 -0.66 5.34 -1 5 C-1.66 5.66 -2.32 6.32 -3 7 C-3.33 6.34 -3.66 5.68 -4 5 C-3.67 4.34 -3.34 3.68 -3 3 C-4.32 3.33 -5.64 3.66 -7 4 C-6 2 -6 2 -2.938 0.875 C-2.453 0.731 -2.453 0.731 0 0 Z " fill="#A85E1C" transform="translate(47,99)"/>
<path d="M0 0 C-0.639 0.124 -1.279 0.248 -1.938 0.375 C-2.618 0.581 -3.299 0.787 -4 1 C-4.33 1.66 -4.66 2.32 -5 3 C-8.062 3.625 -8.062 3.625 -11 4 C-10 1 -10 1 -7.75 -0.25 C-4.718 -1.077 -2.989 -0.854 0 0 Z " fill="#D08646" transform="translate(53,71)"/>
<path d="M0 0 C0.33 1.98 0.66 3.96 1 6 C0.01 6 -0.98 6 -2 6 C-2.33 5.34 -2.66 4.68 -3 4 C-3.33 4.165 -3.33 4.165 -5 5 C-4.625 3.062 -4.625 3.062 -4 1 C-2 0 -2 0 0 0 Z " fill="#C78650" transform="translate(52,58)"/>
<path d="M0 0 C-0.99 0 -1.98 0 -3 0 C-3 0.66 -3 1.32 -3 2 C-2.34 2 -1.68 2 -1 2 C-1 2.99 -1 3.98 -1 5 C-2.98 4.34 -4.96 3.68 -7 3 C-7 2.01 -7 1.02 -7 0 C-3.867 -1.044 -3.01 -0.934 0 0 Z " fill="#D8B07F" transform="translate(132,55)"/>
<path d="M0 0 C0 0.66 0 1.32 0 2 C-0.66 2.33 -0.66 2.33 -4 4 C-4 4.33 -4 4.66 -4 5 C-5.65 5 -7.3 5 -9 5 C-9 4.34 -9 3.68 -9 3 C-8.34 3 -7.68 3 -7 3 C-7 2.34 -7 1.68 -7 1 C-2.25 0 -2.25 0 0 0 Z " fill="#985213" transform="translate(66,111)"/>
<path d="M0 0 C0.99 0 1.98 0 3 0 C3.33 1.65 3.66 3.3 4 5 C5.32 5.33 6.64 5.66 8 6 C5.394 6.931 4.358 7.149 1.75 6.062 C1.172 5.712 0.595 5.361 0 5 C0.66 5 1.32 5 2 5 C1.34 3.35 0.68 1.7 0 0 Z " fill="#B16C2C" transform="translate(58,89)"/>
<path d="M0 0 C0.99 0 1.98 0 3 0 C3 0.99 3 1.98 3 3 C3.66 3.33 4.32 3.66 5 4 C4.67 4.99 4.34 5.98 4 7 C3.34 7 2.68 7 2 7 C2 6.34 2 5.68 2 5 C1.34 5 0.68 5 0 5 C0 3.35 0 1.7 0 0 Z " fill="#CB8343" transform="translate(37,73)"/>
<path d="M0 0 C1.32 0.33 2.64 0.66 4 1 C4 2.65 4 4.3 4 6 C2.68 6 1.36 6 0 6 C0 4.02 0 2.04 0 0 Z " fill="#AF6E38" transform="translate(39,63)"/>
<path d="M0 0 C0.66 0.33 1.32 0.66 2 1 C2 1.66 2 2.32 2 3 C2.99 3.33 3.98 3.66 5 4 C5 4.33 5 4.66 5 5 C2.125 5.125 2.125 5.125 -1 5 C-1.66 4.34 -2.32 3.68 -3 3 C-2.01 2.01 -1.02 1.02 0 0 Z " fill="#F5E9D9" transform="translate(131,133)"/>
<path d="M0 0 C0.75 1.75 0.75 1.75 1 4 C-0.812 6.062 -0.812 6.062 -3 8 C-3.66 8.99 -4.32 9.98 -5 11 C-5.33 9.68 -5.66 8.36 -6 7 C-5.01 6.67 -4.02 6.34 -3 6 C-1.875 3.5 -1.875 3.5 -1 1 C-0.67 0.67 -0.34 0.34 0 0 Z " fill="#F5BF72" transform="translate(121,107)"/>
<path d="M0 0 C0.66 0 1.32 0 2 0 C2.66 1.32 3.32 2.64 4 4 C2.68 5.65 1.36 7.3 0 9 C0 6.03 0 3.06 0 0 Z " fill="#915421" transform="translate(26,102)"/>
<path d="M0 0 C6.4 -0.492 6.4 -0.492 9.438 2 C9.695 2.33 9.695 2.33 11 4 C7.37 3.34 3.74 2.68 0 2 C0 1.34 0 0.68 0 0 Z " fill="#C27838" transform="translate(50,72)"/>
<path d="M0 0 C0 1.65 0 3.3 0 5 C-3 5 -3 5 -5 4 C-5 3.01 -5 2.02 -5 1 C-2 0 -2 0 0 0 Z " fill="#BD8F5A" transform="translate(152,33)"/>
<path d="M0 0 C1.32 0 2.64 0 4 0 C4 0.66 4 1.32 4 2 C4.66 2.33 5.32 2.66 6 3 C4.625 5 4.625 5 3 7 C2.34 7 1.68 7 1 7 C0.67 4.69 0.34 2.38 0 0 Z " fill="#DAA15B" transform="translate(111,110)"/>
<path d="M0 0 C1.32 0.66 2.64 1.32 4 2 C4 3.32 4 4.64 4 6 C1.69 4.68 -0.62 3.36 -3 2 C-2.01 1.34 -1.02 0.68 0 0 Z " fill="#E1E0DE" transform="translate(131,65)"/>
<path d="M0 0 C2.51 1.134 2.964 2.361 3.938 4.875 C2.287 5.205 0.638 5.535 -1.062 5.875 C-0.733 4.885 -0.403 3.895 -0.062 2.875 C-1.713 2.545 -3.362 2.215 -5.062 1.875 C-2.062 -0.125 -2.062 -0.125 0 0 Z " fill="#A15F25" transform="translate(84.0625,58.125)"/>
<path d="M0 0 C1.98 0 3.96 0 6 0 C5.67 1.65 5.34 3.3 5 5 C3.68 4.67 2.36 4.34 1 4 C0.67 2.68 0.34 1.36 0 0 Z " fill="#C4945B" transform="translate(111,35)"/>
<path d="M0 0 C2.31 0.66 4.62 1.32 7 2 C5 4 5 4 2.375 4.125 C1.591 4.084 0.807 4.042 0 4 C-0.33 3.01 -0.66 2.02 -1 1 C-0.67 0.67 -0.34 0.34 0 0 Z " fill="#AA763C" transform="translate(61,133)"/>
<path d="M0 0 C1.65 0 3.3 0 5 0 C5 0.66 5 1.32 5 2 C4.34 2 3.68 2 3 2 C3.33 2.99 3.66 3.98 4 5 C2.68 5.33 1.36 5.66 0 6 C0 4.02 0 2.04 0 0 Z " fill="#D39C5A" transform="translate(113,104)"/>
<path d="M0 0 C0.66 0.33 1.32 0.66 2 1 C-0.363 3.526 -1.665 4.888 -5 6 C-5.66 5.34 -6.32 4.68 -7 4 C-1.727 0.777 -1.727 0.777 0 0 Z " fill="#67370F" transform="translate(79,103)"/>
<path d="M0 0 C1.65 0.33 3.3 0.66 5 1 C5 1.99 5 2.98 5 4 C3.02 4.33 1.04 4.66 -1 5 C-0.67 3.35 -0.34 1.7 0 0 Z " fill="#AD8153" transform="translate(104,99)"/>
<path d="M0 0 C0.66 1.32 1.32 2.64 2 4 C0.35 5.98 -1.3 7.96 -3 10 C-3 7 -3 7 -1 4 C-0.375 1.812 -0.375 1.812 0 0 Z " fill="#BA7636" transform="translate(76,74)"/>
<path d="M0 0 C0.66 0.33 1.32 0.66 2 1 C2 2.667 2 4.333 2 6 C1.505 6.33 1.505 6.33 -1 8 C-1.625 5.688 -1.625 5.688 -2 3 C-1.34 2.01 -0.68 1.02 0 0 Z " fill="#B87643" transform="translate(47,58)"/>
<path d="M0 0 C1.65 0 3.3 0 5 0 C5 0.99 5 1.98 5 3 C3.35 3.66 1.7 4.32 0 5 C0 3.35 0 1.7 0 0 Z " fill="#E7B983" transform="translate(145,31)"/>
<path d="M0 0 C1.48 0.114 2.959 0.241 4.438 0.375 C5.261 0.445 6.085 0.514 6.934 0.586 C7.275 0.654 7.275 0.654 9 1 C9.33 1.66 9.66 2.32 10 3 C8.52 2.886 7.041 2.759 5.562 2.625 C4.739 2.555 3.915 2.486 3.066 2.414 C2.384 2.277 1.703 2.141 1 2 C0.67 1.34 0.34 0.68 0 0 Z " fill="#F4EADC" transform="translate(35,142)"/>
<path d="M0 0 C0 0.66 0 1.32 0 2 C-1.333 3.333 -2.667 4.667 -4 6 C-4.825 5.67 -4.825 5.67 -9 4 C-8.701 3.856 -8.701 3.856 -7.188 3.125 C-1.111 0 -1.111 0 0 0 Z " fill="#EDB268" transform="translate(150,87)"/>
<path d="M0 0 C3.96 0.33 7.92 0.66 12 1 C12 1.33 12 1.66 12 2 C10.02 2.165 10.02 2.165 0 3 C0 2.01 0 1.02 0 0 Z " fill="#B7773D" transform="translate(31,81)"/>
<path d="M0 0 C-1.074 2.915 -1.778 4.778 -4 7 C-4.33 5.35 -4.66 3.7 -5 2 C-2 0 -2 0 0 0 Z " fill="#D99758" transform="translate(48,73)"/>
<path d="M0 0 C0.99 0.33 1.98 0.66 3 1 C0.634 3.615 -1.942 5.264 -5 7 C-3.707 4.116 -2.341 2.128 0 0 Z " fill="#C07E46" transform="translate(77,68)"/>
<path d="M0 0 C0.687 2.491 1 4.379 1 7 C0.01 7 -0.98 7 -2 7 C-2 6.34 -2 5.68 -2 5 C-2.66 4.34 -3.32 3.68 -4 3 C-2.68 2.01 -1.36 1.02 0 0 Z " fill="#A06130" transform="translate(84,67)"/>
<path d="M0 0 C0.99 0.33 1.98 0.66 3 1 C2.34 2.32 1.68 3.64 1 5 C0.01 5 -0.98 5 -2 5 C-1.125 1.125 -1.125 1.125 0 0 Z " fill="#D79950" transform="translate(129,130)"/>
<path d="M0 0 C0.66 0 1.32 0 2 0 C3.062 1.812 3.062 1.812 4 4 C3.67 4.99 3.34 5.98 3 7 C1.68 5.68 0.36 4.36 -1 3 C-0.67 2.01 -0.34 1.02 0 0 Z " fill="#8A633B" transform="translate(89,117)"/>
<path d="M0 0 C0.99 0 1.98 0 3 0 C3.33 2.97 3.66 5.94 4 9 C2.014 7.014 1.085 5.559 0 3 C0 2.01 0 1.02 0 0 Z " fill="#A55F20" transform="translate(36,113)"/>
<path d="M0 0 C0.99 0.33 1.98 0.66 3 1 C4.331 1.342 5.664 1.678 7 2 C7 2.66 7 3.32 7 4 C5.68 4.33 4.36 4.66 3 5 C2.01 3.35 1.02 1.7 0 0 Z " fill="#AB8150" transform="translate(97,111)"/>
<path d="M0 0 C0.33 0 0.66 0 1 0 C1 2.97 1 5.94 1 9 C0.01 8.01 -0.98 7.02 -2 6 C-1.579 1.579 -1.579 1.579 0 0 Z " fill="#B77030" transform="translate(28,108)"/>
<path d="M0 0 C3 2 3 2 4 4 C1.69 4.33 -0.62 4.66 -3 5 C-3.33 4.34 -3.66 3.68 -4 3 C-3.01 2.34 -2.02 1.68 -1 1 C-0.67 0.67 -0.34 0.34 0 0 Z " fill="#904C13" transform="translate(64,106)"/>
<path d="M0 0 C-0.33 0.165 -0.33 0.165 -2 1 C-2 1.66 -2 2.32 -2 3 C-2.99 3.33 -3.98 3.66 -5 4 C-5 3.01 -5 2.02 -5 1 C-5.66 0.67 -6.32 0.34 -7 0 C-3.867 -1.044 -3.01 -0.934 0 0 Z " fill="#B28654" transform="translate(109,106)"/>
<path d="M0 0 C0.66 0.33 1.32 0.66 2 1 C0.35 2.98 -1.3 4.96 -3 7 C-3.66 6.67 -4.32 6.34 -5 6 C-3.63 2.839 -3.011 2.007 0 0 Z " fill="#93521D" transform="translate(79,91)"/>
<path d="M0 0 C2.886 0.398 3.822 0.79 5.75 3.062 C6.162 3.702 6.575 4.341 7 5 C6.67 5.66 6.34 6.32 6 7 C5.67 6.01 5.34 5.02 5 4 C2.438 2.812 2.438 2.812 0 2 C0 1.34 0 0.68 0 0 Z " fill="#985E2F" transform="translate(93,65)"/>
</svg>
