<?xml version="1.0" encoding="UTF-8"?>
<!-- Generator: visioncortex VTracer 0.6.12 -->
<svg version="1.1" xmlns="http://www.w3.org/2000/svg" width="180" height="165">
<path d="M0 0 C59.4 0 118.8 0 180 0 C180 54.45 180 108.9 180 165 C120.6 165 61.2 165 0 165 C0 110.55 0 56.1 0 0 Z " fill="#FCF8F1" transform="translate(0,0)"/>
<path d="M0 0 C0.397 -0.001 0.397 -0.001 2.406 -0.008 C4.5 0.125 4.5 0.125 6.5 1.125 C8.04 1.195 9.583 1.21 11.125 1.188 C11.942 1.178 12.76 1.169 13.602 1.16 C13.915 1.154 13.915 1.154 15.5 1.125 C15.5 1.785 15.5 2.445 15.5 3.125 C16.103 3.284 16.707 3.442 17.328 3.605 C22.632 5.154 25.345 6.393 28.5 11.125 C28.923 11.527 28.923 11.527 31.062 13.562 C36.819 19.614 37.489 26.033 37.5 34.125 C37.089 38.314 36.034 40.629 32.875 43.562 C32.091 44.078 31.308 44.594 30.5 45.125 C30.265 44.48 30.031 43.836 29.789 43.172 C28.5 41.125 28.5 41.125 26.336 40.516 C25.524 40.469 24.712 40.423 23.875 40.375 C23.466 40.347 23.466 40.347 21.398 40.203 C20.772 40.177 20.145 40.152 19.5 40.125 C19.5 42.435 19.5 44.745 19.5 47.125 C20.16 47.125 20.82 47.125 21.5 47.125 C21.5 49.105 21.5 51.085 21.5 53.125 C22.16 53.125 22.82 53.125 23.5 53.125 C23.665 54.28 23.665 54.28 24.5 60.125 C25.16 60.125 25.82 60.125 26.5 60.125 C26.5 62.435 26.5 64.745 26.5 67.125 C27.16 67.125 27.82 67.125 28.5 67.125 C29.322 73.365 29.887 78.158 27.5 84.125 C27.83 85.115 28.16 86.105 28.5 87.125 C27.531 88.81 26.53 90.477 25.5 92.125 C25.5 93.115 25.5 94.105 25.5 95.125 C24 97.312 24 97.312 22.5 99.125 C22.83 99.785 23.16 100.445 23.5 101.125 C22.84 101.744 22.18 102.362 21.5 103 C19.5 105.125 19.5 105.125 19.5 107.125 C17.52 108.115 15.54 109.105 13.5 110.125 C13.5 111.115 13.5 112.105 13.5 113.125 C12.366 113.579 11.231 114.032 10.062 114.5 C6.5 116.125 6.5 116.125 5.5 118.125 C3.85 118.125 2.2 118.125 0.5 118.125 C0.5 118.785 0.5 119.445 0.5 120.125 C-0.08 120.032 -0.66 119.939 -1.258 119.844 C-3.863 119.603 -5.937 119.558 -8.5 120.125 C-10.117 121.836 -10.117 121.836 -11.5 124 C-13.993 127.901 -13.993 127.901 -16.551 129.031 C-18.864 129.511 -21.156 129.836 -23.5 130.125 C-25.129 130.462 -26.754 130.816 -28.375 131.188 C-29.094 131.343 -29.814 131.499 -30.555 131.66 C-32.5 132.125 -32.5 132.125 -35.5 133.125 C-37.289 133.244 -39.082 133.3 -40.875 133.312 C-41.811 133.327 -42.747 133.341 -43.711 133.355 C-46.661 133.112 -48.824 132.356 -51.5 131.125 C-50.625 126.375 -50.625 126.375 -49.5 124.125 C-50.49 124.785 -51.48 125.445 -52.5 126.125 C-55.371 126.593 -58.174 126.965 -61.062 127.25 C-61.872 127.334 -62.681 127.418 -63.514 127.505 C-78.021 128.941 -78.021 128.941 -84.5 127.125 C-84.867 121.623 -84.867 121.623 -83.281 119.469 C-81.06 117.793 -79.568 117.637 -76.812 117.438 C-76.004 117.372 -75.196 117.306 -74.363 117.238 C-73.748 117.201 -73.134 117.164 -72.5 117.125 C-73.098 117.032 -73.098 117.032 -76.125 116.562 C-80.53 115.473 -82.627 113.408 -85.469 109.977 C-86.5 108.125 -86.5 108.125 -86.5 104.125 C-87.119 104.022 -87.737 103.919 -88.375 103.812 C-90.5 103.125 -90.5 103.125 -92.5 100.125 C-93.192 94.198 -92.48 91.21 -88.887 86.473 C-87.5 85.125 -87.5 85.125 -84.5 84.125 C-83.312 82.062 -83.312 82.062 -82.5 80.125 C-83.08 79.834 -83.66 79.542 -84.258 79.242 C-94.922 73.646 -94.922 73.646 -97.5 69.125 C-98.154 65.687 -98.229 62.551 -97.5 59.125 C-97.004 58.493 -96.507 57.862 -95.996 57.211 C-93.975 54.393 -94.098 52.312 -94 48.875 C-93.307 37.782 -89.769 31.782 -81.5 24.125 C-80.84 24.125 -80.18 24.125 -79.5 24.125 C-79.546 23.496 -79.593 22.867 -79.641 22.219 C-79.918 15.64 -78.854 11.786 -75.5 6.125 C-74.84 6.125 -74.18 6.125 -73.5 6.125 C-73.17 4.805 -72.84 3.485 -72.5 2.125 C-70.85 1.795 -69.2 1.465 -67.5 1.125 C-67.5 2.445 -67.5 3.765 -67.5 5.125 C-66.84 5.125 -66.18 5.125 -65.5 5.125 C-65.335 7.435 -65.335 7.435 -64.5 19.125 C-61.86 19.125 -59.22 19.125 -56.5 19.125 C-56.412 18.245 -56.325 17.364 -56.234 16.457 C-55.404 12.69 -54.159 10.796 -51.75 7.812 C-51.075 6.95 -50.399 6.088 -49.703 5.199 C-47.211 2.853 -45.916 2.153 -42.5 2.125 C-38.259 4.979 -37.497 10.405 -36.5 15.125 C-35.95 20.413 -36.4 24.225 -38.5 29.125 C-38.166 31.46 -37.553 33.019 -36.5 35.125 C-36.414 34.447 -36.327 33.769 -36.238 33.07 C-35.167 25.976 -33.039 20.351 -29.5 14.125 C-29.17 14.29 -29.17 14.29 -27.5 15.125 C-27.379 14.842 -27.379 14.842 -26.766 13.41 C-26.43 12.677 -26.095 11.943 -25.75 11.188 C-25.425 10.457 -25.1 9.726 -24.766 8.973 C-23.5 7.125 -23.5 7.125 -21.492 6.469 C-20.835 6.355 -20.177 6.242 -19.5 6.125 C-18.157 5.138 -16.823 4.139 -15.5 3.125 C-14.84 3.125 -14.18 3.125 -13.5 3.125 C-13.088 2.96 -13.088 2.96 -11 2.125 C-8.5 1.125 -8.5 1.125 -6.5 1.125 C-4.134 -0.058 -2.632 -0.009 0 0 Z " fill="#BB641C" transform="translate(113.5,16.875)"/>
<path d="M0 0 C0.66 0 1.32 0 2 0 C2.248 0.784 2.495 1.567 2.75 2.375 C6.418 13.014 9.35 18.64 19 25 C19.165 25.33 19.165 25.33 20 27 C19.67 27.66 19.34 28.32 19 29 C19.392 29.144 19.392 29.144 21.375 29.875 C24 31 24 31 26 33 C26 34.32 26 35.64 26 37 C26.474 37.433 26.949 37.866 27.438 38.312 C29.806 40.87 29.625 43.624 30 47 C30.33 47.33 30.66 47.66 31 48 C31.789 56.572 30.915 63.36 27 71 C26.591 71.829 26.183 72.658 25.762 73.512 C22.037 80.674 22.037 80.674 18 83 C14.723 83.66 14.723 83.66 11.062 84.062 C4.499 84.8 4.499 84.8 1.402 86.043 C-1.379 87.151 -3.516 87.267 -6.5 87.25 C-7.418 87.255 -8.336 87.26 -9.281 87.266 C-12.178 86.983 -14.364 86.204 -17 85 C-16.125 80.25 -16.125 80.25 -15 78 C-15.99 78.66 -16.98 79.32 -18 80 C-20.871 80.468 -23.674 80.84 -26.562 81.125 C-27.372 81.209 -28.181 81.293 -29.014 81.38 C-43.521 82.816 -43.521 82.816 -50 81 C-50.367 75.498 -50.367 75.498 -48.781 73.344 C-46.56 71.668 -45.068 71.512 -42.312 71.312 C-41.504 71.247 -40.696 71.181 -39.863 71.113 C-39.248 71.076 -38.634 71.039 -38 71 C-38.598 70.907 -38.598 70.907 -41.625 70.438 C-46.03 69.348 -48.127 67.283 -50.969 63.852 C-52 62 -52 62 -52 58 C-52.619 57.897 -53.237 57.794 -53.875 57.688 C-56 57 -56 57 -58 54 C-58.692 48.073 -57.98 45.085 -54.387 40.348 C-53 39 -53 39 -50 38 C-48.75 36.062 -48.75 36.062 -48 34 C-48.33 33.34 -48.66 32.68 -49 32 C-43.125 32.875 -43.125 32.875 -42 34 C-40.653 34.231 -39.296 34.412 -37.938 34.562 C-36.638 34.707 -35.339 34.851 -34 35 C-34 35.99 -34 36.98 -34 38 C-32.354 39.687 -30.688 41.355 -29 43 C-29 43.66 -29 44.32 -29 45 C-24.838 45.347 -23.18 44.632 -20 42 C-19.34 42 -18.68 42 -18 42 C-17.67 39.36 -17.34 36.72 -17 34 C-17.99 33.67 -18.98 33.34 -20 33 C-19.645 32.867 -19.645 32.867 -17.848 32.195 C-16.929 31.842 -16.009 31.489 -15.062 31.125 C-14.146 30.777 -13.229 30.429 -12.285 30.07 C-10 29 -10 29 -9 27 C-8.01 27 -7.02 27 -6 27 C-5.34 25.02 -4.68 23.04 -4 21 C-3.01 21.33 -2.02 21.66 -1 22 C-1 20.68 -1 19.36 -1 18 C-1.66 17.67 -2.32 17.34 -3 17 C-2.34 15.02 -1.68 13.04 -1 11 C-0.34 11 0.32 11 1 11 C0.835 10.67 0.835 10.67 0 9 C-1.159 5.522 -0.708 3.541 0 0 Z " fill="#C46A1E" transform="translate(79,63)"/>
<path d="M0 0 C0.33 1.32 0.66 2.64 1 4 C1.66 4 2.32 4 3 4 C3.165 6.31 3.165 6.31 4 18 C6.64 18 9.28 18 12 18 C12.088 17.12 12.175 16.239 12.266 15.332 C13.096 11.565 14.341 9.671 16.75 6.688 C17.425 5.825 18.101 4.963 18.797 4.074 C21.289 1.728 22.584 1.028 26 1 C30.241 3.854 31.003 9.28 32 14 C32.424 18.08 32.593 21.64 30.938 25.438 C29.419 29.589 30.381 33.694 31 38 C31.99 38.33 32.98 38.66 34 39 C35.169 47.256 35.169 47.256 34.375 50.75 C34 53 34 53 35.438 55.812 C35.953 56.534 36.469 57.256 37 58 C36.34 58 35.68 58 35 58 C35 57.34 35 56.68 35 56 C34.34 56 33.68 56 33 56 C33 56.784 33 57.567 33 58.375 C33 61.25 33 64.125 33 67 C32.01 67 31.02 67 30 67 C29.34 68.65 28.68 70.3 28 72 C27.01 72 26.02 72 25 72 C24.794 72.619 24.588 73.237 24.375 73.875 C22.452 76.847 20.334 77.13 17 78 C16.999 78.302 16.999 78.302 16.992 79.828 C16.676 86.354 16.676 86.354 13.25 89.625 C10 91 10 91 7.312 91.062 C4.233 89.648 3.58 87.954 2 85 C-1.176 81.031 -4.083 80.083 -9 79 C-10.134 78.897 -11.269 78.794 -12.438 78.688 C-17.111 77.786 -20.205 75.787 -24 73 C-24.99 72.278 -25.98 71.556 -27 70.812 C-29.565 67.206 -29.522 64.732 -29.469 60.402 C-29 58 -29 58 -27.5 56.082 C-25.472 53.267 -25.598 51.189 -25.5 47.75 C-24.807 36.657 -21.269 30.657 -13 23 C-12.34 23 -11.68 23 -11 23 C-11.046 22.371 -11.093 21.742 -11.141 21.094 C-11.418 14.515 -10.354 10.661 -7 5 C-6.34 5 -5.68 5 -5 5 C-4.67 3.68 -4.34 2.36 -4 1 C-2.68 0.67 -1.36 0.34 0 0 Z " fill="#CF7429" transform="translate(45,18)"/>
<path d="M0 0 C5.875 0.875 5.875 0.875 7 2 C8.347 2.231 9.704 2.412 11.062 2.562 C12.362 2.707 13.661 2.851 15 3 C15 3.99 15 4.98 15 6 C16.645 7.688 18.313 9.354 20 11 C20.33 11.99 20.66 12.98 21 14 C19.02 14.99 17.04 15.98 15 17 C15.99 16.67 16.98 16.34 18 16 C18.66 16 19.32 16 20 16 C20 16.99 20 17.98 20 19 C17.5 20.688 17.5 20.688 15 22 C16.98 21.67 18.96 21.34 21 21 C20.67 21.66 20.34 22.32 20 23 C21.32 22.835 21.32 22.835 28 22 C28.165 22.33 28.165 22.33 29 24 C32.062 24.625 32.062 24.625 35 25 C35 25.33 35 25.66 35 26 C31.04 26 27.08 26 23 26 C19.98 32.283 19.98 32.283 20.062 35.188 C22.456 39.814 26.27 42.108 31 44 C35.426 44.377 39.625 43.7 44 43 C43.754 42.663 43.754 42.663 42.512 40.957 C40.64 37.296 40.698 34.775 40.812 30.688 C40.826 30.06 40.826 30.06 40.895 26.887 C40.929 25.934 40.964 24.981 41 24 C40.34 23.67 39.68 23.34 39 23 C39.371 22.66 39.371 22.66 41.25 20.938 C44.246 17.967 45.982 14.688 48 11 C48.66 10.34 49.32 9.68 50 9 C50.66 9 51.32 9 52 9 C52.33 7.02 52.66 5.04 53 3 C55 6.75 55 6.75 55 9 C55.66 8.67 56.32 8.34 57 8 C60 7.812 60 7.812 63 8 C63.33 8.33 63.33 8.33 65 10 C64.348 10.026 63.695 10.052 63.023 10.078 C57.286 10.45 53.409 11.001 49 15 C45.22 20.094 42.861 24.496 42.812 30.938 C42.798 31.792 42.784 32.647 42.77 33.527 C43.013 36.139 43.682 37.755 45 40 C45.99 39.34 46.98 38.68 48 38 C48.061 38.614 48.121 39.227 48.184 39.859 C49 42 49 42 51.285 43.266 C52.202 43.59 53.118 43.915 54.062 44.25 C54.982 44.585 55.901 44.92 56.848 45.266 C57.558 45.508 58.268 45.75 59 46 C58.67 46.33 58.67 46.33 57 48 C55.187 47.758 55.187 47.758 53 47.125 C46.561 45.523 39.936 44.577 34 48 C34 47.34 34 46.68 34 46 C33.01 46.66 32.02 47.32 31 48 C28.129 48.468 25.326 48.84 22.438 49.125 C21.628 49.209 20.819 49.293 19.986 49.38 C5.479 50.816 5.479 50.816 -1 49 C-1.367 43.498 -1.367 43.498 0.219 41.344 C2.44 39.668 3.932 39.512 6.688 39.312 C7.092 39.28 7.092 39.28 9.137 39.113 C9.752 39.076 10.366 39.039 11 39 C10.402 38.907 10.402 38.907 7.375 38.438 C2.97 37.348 0.873 35.283 -1.969 31.852 C-3 30 -3 30 -3 26 C-3.619 25.897 -4.238 25.794 -4.875 25.688 C-7 25 -7 25 -9 22 C-9.692 16.073 -8.98 13.085 -5.387 8.348 C-4 7 -4 7 -1 6 C0.25 4.062 0.25 4.062 1 2 C0.67 1.34 0.34 0.68 0 0 Z " fill="#94490D" transform="translate(30,95)"/>
<path d="M0 0 C2 2 2 2 2 5 C1.34 5 0.68 5 0 5 C0.75 10.75 0.75 10.75 3 13 C2.959 14.134 2.918 15.269 2.875 16.438 C2.916 17.613 2.957 18.789 3 20 C4.938 21.75 4.938 21.75 7 23 C7.33 23.99 7.66 24.98 8 26 C10.563 27.188 10.563 27.188 13 28 C13 28.66 13 29.32 13 30 C14.488 29.098 15.965 28.178 17.438 27.25 C18.261 26.74 19.085 26.229 19.934 25.703 C22.217 23.821 22.655 22.884 23 20 C28.75 21.875 28.75 21.875 31 23 C33.495 23.274 35.989 23.445 38.492 23.621 C41.041 24.006 42.779 24.724 45 26 C45 26.99 45 27.98 45 29 C43.02 29.66 41.04 30.32 39 31 C38.997 31.603 38.995 32.207 38.992 32.828 C38.676 39.354 38.676 39.354 35.25 42.625 C32 44 32 44 29.312 44.062 C26.233 42.648 25.58 40.954 24 38 C20.824 34.031 17.917 33.083 13 32 C11.866 31.897 10.731 31.794 9.562 31.688 C4.889 30.786 1.795 28.787 -2 26 C-2.495 25.639 -2.495 25.639 -5 23.812 C-7.565 20.206 -7.522 17.732 -7.469 13.402 C-6.914 10.559 -5.834 9.208 -4 7 C-2.984 5.008 -1.982 3.009 -1 1 C-0.67 0.67 -0.34 0.34 0 0 Z " fill="#CD8F4A" transform="translate(23,65)"/>
<path d="M0 0 C5.875 0.875 5.875 0.875 7 2 C8.347 2.231 9.704 2.412 11.062 2.562 C12.362 2.707 13.661 2.851 15 3 C15 3.99 15 4.98 15 6 C16.645 7.688 18.313 9.354 20 11 C20.33 11.99 20.66 12.98 21 14 C19.02 14.99 17.04 15.98 15 17 C15.99 16.67 16.98 16.34 18 16 C18.66 16 19.32 16 20 16 C20 16.99 20 17.98 20 19 C17.5 20.688 17.5 20.688 15 22 C16.98 21.67 18.96 21.34 21 21 C20.67 21.66 20.34 22.32 20 23 C21.32 22.835 21.32 22.835 28 22 C28.165 22.33 28.165 22.33 29 24 C32.062 24.625 32.062 24.625 35 25 C35 25.33 35 25.66 35 26 C31.04 26 27.08 26 23 26 C22.01 27.98 21.02 29.96 20 32 C19.01 32 18.02 32 17 32 C16.67 31.01 16.34 30.02 16 29 C15.34 29 14.68 29 14 29 C12.758 26.02 11.744 23.139 11 20 C9.187 20.114 7.374 20.241 5.562 20.375 C4.553 20.445 3.544 20.514 2.504 20.586 C1.678 20.723 0.851 20.859 0 21 C-0.33 21.66 -0.66 22.32 -1 23 C-1.825 22.67 -1.825 22.67 -6 21 C-5.01 20.67 -4.02 20.34 -3 20 C-4.32 19.34 -5.64 18.68 -7 18 C-7 19.65 -7 21.3 -7 23 C-7.66 22.67 -8.32 22.34 -9 22 C-9.519 16.083 -8.983 13.089 -5.387 8.348 C-4 7 -4 7 -1 6 C0.25 4.062 0.25 4.062 1 2 C0.67 1.34 0.34 0.68 0 0 Z " fill="#7A3C0D" transform="translate(30,95)"/>
<path d="M0 0 C1.57 0.013 3.141 0.037 4.711 0.07 C5.513 0.079 6.315 0.088 7.141 0.098 C9.123 0.121 11.104 0.157 13.086 0.195 C13.123 0.931 13.161 1.667 13.199 2.426 C13.831 11.809 13.831 11.809 17.086 16.195 C17.086 16.855 17.086 17.515 17.086 18.195 C6.753 21.502 6.753 21.502 1.559 18.957 C-5.436 14.913 -5.436 14.913 -7.914 11.195 C-7.742 9.004 -7.742 9.004 -7.164 6.633 C-6.984 5.848 -6.803 5.063 -6.617 4.254 C-5.271 0.314 -4.155 0.207 0 0 Z " fill="#D39858" transform="translate(56.9140625,119.8046875)"/>
<path d="M0 0 C1.938 0.375 1.938 0.375 4 1 C4.33 1.66 4.66 2.32 5 3 C4.01 3 3.02 3 2 3 C3.32 3.66 4.64 4.32 6 5 C6.33 4.01 6.66 3.02 7 2 C10.708 1.717 14.301 1.558 18 2 C21.05 5.137 21 6.599 21 11 C21.66 11 22.32 11 23 11 C23.33 11.66 23.66 12.32 24 13 C24.66 12.67 25.32 12.34 26 12 C26.33 12.99 26.66 13.98 27 15 C24.351 17.649 21.338 19.331 18 21 C11.834 20.178 8.983 18.623 5.031 13.852 C4 12 4 12 4 8 C2.68 7.67 1.36 7.34 0 7 C0 4.69 0 2.38 0 0 Z " fill="#E68108" transform="translate(23,113)"/>
<path d="M0 0 C0.804 0.124 1.609 0.247 2.438 0.375 C6.76 6.859 8.365 14.652 7.438 22.375 C6.438 25.438 6.438 25.438 5.438 27.375 C4.778 27.375 4.118 27.375 3.438 27.375 C3.438 28.035 3.438 28.695 3.438 29.375 C2.778 29.375 2.118 29.375 1.438 29.375 C1.303 28.973 1.303 28.973 0.625 26.938 C0.233 26.092 -0.159 25.246 -0.562 24.375 C-1.552 24.045 -2.543 23.715 -3.562 23.375 C-4.825 20.85 -4.661 19.063 -4.625 16.25 C-4.616 15.34 -4.607 14.43 -4.598 13.492 C-4.586 12.794 -4.574 12.095 -4.562 11.375 C-4.892 14.345 -5.222 17.315 -5.562 20.375 C-7.562 18.375 -7.562 18.375 -8.562 15.375 C-8.892 15.54 -8.892 15.54 -10.562 16.375 C-9.814 10.386 -6.757 0.989 0 0 Z " fill="#C3692A" transform="translate(69.5625,18.625)"/>
<path d="M0 0 C5.006 -0.294 7.992 -0.118 12 3 C13.041 4.301 14.039 5.638 15 7 C15.412 7.392 15.412 7.392 17.5 9.375 C23.295 15.46 23.989 21.854 24 30 C23.589 34.189 22.534 36.504 19.375 39.438 C18.591 39.953 17.808 40.469 17 41 C16.776 40.355 16.551 39.711 16.32 39.047 C15 37 15 37 12.617 36.391 C11.712 36.344 10.807 36.298 9.875 36.25 C9.42 36.222 9.42 36.222 7.117 36.078 C6.419 36.052 5.72 36.027 5 36 C5.66 34.68 6.32 33.36 7 32 C9.875 31.875 9.875 31.875 13 32 C13.66 32.66 14.32 33.32 15 34 C17.125 34.625 17.125 34.625 19 35 C19.027 33.083 19.046 31.167 19.062 29.25 C19.074 28.183 19.086 27.115 19.098 26.016 C19.015 23.466 18.746 21.421 18 19 C16.68 18.67 15.36 18.34 14 18 C14.33 16.68 14.66 15.36 15 14 C13.35 14 11.7 14 10 14 C9.876 13.381 9.752 12.763 9.625 12.125 C8.72 9.048 6.692 7.707 4.375 5.5 C2 3 2 3 2 1 C1.34 0.67 0.68 0.34 0 0 Z " fill="#D4792B" transform="translate(127,21)"/>
<path d="M0 0 C5.75 1.875 5.75 1.875 8 3 C10.495 3.274 12.989 3.445 15.492 3.621 C18.041 4.006 19.779 4.724 22 6 C22 6.99 22 7.98 22 9 C12.408 12.351 5.117 13.546 -5 12 C-5.156 9.633 -5.156 9.633 -5 7 C-3.374 5.618 -1.707 4.281 0 3 C0 2.01 0 1.02 0 0 Z " fill="#ECAE67" transform="translate(46,85)"/>
<path d="M0 0 C3.736 0.61 5.373 1.887 8.062 4.5 C9.796 7.968 9.675 11.718 9.062 15.5 C6.562 18.562 6.562 18.562 4.062 20.5 C4.158 19.801 4.253 19.103 4.352 18.383 C4.462 17.473 4.573 16.563 4.688 15.625 C4.804 14.72 4.92 13.815 5.039 12.883 C5.047 12.096 5.055 11.31 5.062 10.5 C3.062 8.5 3.062 8.5 0.625 8.188 C-1.938 8.5 -1.938 8.5 -3.75 9.5 C-5.609 12.631 -5.489 15.948 -4.938 19.5 C-4.278 20.49 -3.617 21.48 -2.938 22.5 C-4.918 22.5 -6.898 22.5 -8.938 22.5 C-10.677 17.282 -10.63 12.335 -8.688 7.188 C-4.507 0.767 -4.507 0.767 0 0 Z " fill="#F2BC7D" transform="translate(51.9375,56.5)"/>
<path d="M0 0 C5.75 0.75 5.75 0.75 8 3 C8 3.99 8 4.98 8 6 C7.34 6 6.68 6 6 6 C6 6.66 6 7.32 6 8 C7.32 8.33 8.64 8.66 10 9 C10 9.66 10 10.32 10 11 C10.66 11.33 11.32 11.66 12 12 C11.34 13.32 10.68 14.64 10 16 C9.258 15.814 8.515 15.629 7.75 15.438 C5 15 5 15 3.062 15.5 C0.204 16.193 -2.151 15.583 -5 15 C-5.33 15.66 -5.66 16.32 -6 17 C-6.66 17 -7.32 17 -8 17 C-8 18.65 -8 20.3 -8 22 C-8.33 22 -8.66 22 -9 22 C-9.519 16.083 -8.983 13.089 -5.387 8.348 C-4 7 -4 7 -1 6 C0.25 4.062 0.25 4.062 1 2 C0.67 1.34 0.34 0.68 0 0 Z " fill="#693710" transform="translate(30,95)"/>
<path d="M0 0 C0.409 0.005 0.409 0.005 2.477 0.027 C3.103 0.039 3.73 0.051 4.375 0.062 C3.715 0.723 3.055 1.383 2.375 2.062 C1.385 1.733 0.395 1.402 -0.625 1.062 C-0.955 2.052 -1.285 3.043 -1.625 4.062 C-3.94 4.789 -6.278 5.447 -8.625 6.062 C-10.648 7.015 -12.652 8.01 -14.625 9.062 C-15.388 9.351 -16.151 9.64 -16.938 9.938 C-18.625 11.062 -18.625 11.062 -19.375 13.688 C-19.457 14.471 -19.54 15.255 -19.625 16.062 C-20.677 16.248 -21.729 16.434 -22.812 16.625 C-26.824 17.756 -28.425 19.822 -30.68 23.211 C-31.668 25.146 -32.186 26.94 -32.625 29.062 C-33.615 28.733 -34.605 28.403 -35.625 28.062 C-35.032 26.288 -34.425 24.518 -33.812 22.75 C-33.476 21.764 -33.14 20.778 -32.793 19.762 C-31.681 17.191 -30.743 15.841 -28.625 14.062 C-28.295 14.392 -27.965 14.723 -27.625 15.062 C-27.383 14.497 -27.14 13.931 -26.891 13.348 C-26.555 12.614 -26.22 11.881 -25.875 11.125 C-25.55 10.394 -25.225 9.663 -24.891 8.91 C-23.625 7.062 -23.625 7.062 -21.617 6.406 C-20.96 6.293 -20.302 6.179 -19.625 6.062 C-18.282 5.075 -16.948 4.077 -15.625 3.062 C-14.965 3.062 -14.305 3.062 -13.625 3.062 C-12.8 2.733 -11.975 2.402 -11.125 2.062 C-8.625 1.062 -8.625 1.062 -6.625 1.062 C-4.22 -0.14 -2.675 -0.038 0 0 Z " fill="#CF7733" transform="translate(113.625,16.9375)"/>
<path d="M0 0 C2 2 2 2 2 5 C1.34 5 0.68 5 0 5 C0.75 10.75 0.75 10.75 3 13 C2.959 14.134 2.918 15.269 2.875 16.438 C2.916 17.613 2.957 18.789 3 20 C4.937 21.688 4.937 21.688 7 23 C7.75 25.188 7.75 25.188 8 27 C7.031 26.835 6.061 26.67 5.062 26.5 C2 26 2 26 1 26 C-2 26 -2 26 -4.688 24.125 C-7.53 20.283 -7.526 18.047 -7.469 13.402 C-6.914 10.559 -5.834 9.208 -4 7 C-2.984 5.008 -1.982 3.009 -1 1 C-0.67 0.67 -0.34 0.34 0 0 Z " fill="#C7712B" transform="translate(23,65)"/>
<path d="M0 0 C0.66 0.33 1.32 0.66 2 1 C2 3.31 2 5.62 2 8 C1.34 8 0.68 8 0 8 C-0.124 8.949 -0.248 9.898 -0.375 10.875 C-1 14 -1 14 -3 16 C-3.547 16.227 -3.547 16.227 -6.312 17.375 C-11.065 19.361 -14.249 21.404 -16.5 26.188 C-18 29 -18 29 -20.688 29.875 C-21.451 29.916 -22.214 29.957 -23 30 C-22.67 29.34 -22.34 28.68 -22 28 C-21.34 28 -20.68 28 -20 28 C-19.67 25.36 -19.34 22.72 -19 20 C-19.99 19.67 -20.98 19.34 -22 19 C-21.29 18.734 -20.579 18.469 -19.848 18.195 C-18.929 17.842 -18.009 17.489 -17.062 17.125 C-16.146 16.777 -15.229 16.429 -14.285 16.07 C-12 15 -12 15 -11 13 C-10.01 13 -9.02 13 -8 13 C-7.34 11.02 -6.68 9.04 -6 7 C-5.01 7.33 -4.02 7.66 -3 8 C-3 7.01 -3 6.02 -3 5 C-2.34 5 -1.68 5 -1 5 C-0.67 3.35 -0.34 1.7 0 0 Z " fill="#AC550F" transform="translate(81,77)"/>
<path d="M0 0 C0 2 0 2 -1.75 4.562 C-5.755 8.533 -11.7 7.907 -17 8 C-17 8.66 -17 9.32 -17 10 C-13.716 11.095 -13.165 10.838 -10 10 C-8.251 9.934 -6.5 9.914 -4.75 9.938 C-3.858 9.947 -2.966 9.956 -2.047 9.965 C-1.371 9.976 -0.696 9.988 0 10 C-0.33 10.66 -0.66 11.32 -1 12 C-3.039 12.562 -3.039 12.562 -5.625 13 C-8.625 13.517 -11.453 14.133 -14.379 14.992 C-23.639 17.569 -33.411 18.406 -43 18 C-39.65 14.65 -34.953 15.152 -30.383 14.66 C-26.98 13.996 -25.457 13.376 -23 11 C-22.484 10.134 -21.969 9.268 -21.438 8.375 C-20 6 -20 6 -17 5 C-14.659 5.278 -12.324 5.605 -10 6 C-10 5.34 -10 4.68 -10 4 C-8.35 3.67 -6.7 3.34 -5 3 C-5.66 2.34 -6.32 1.68 -7 1 C-2.25 0 -2.25 0 0 0 Z " fill="#D6BFA7" transform="translate(124,131)"/>
<path d="M0 0 C0 3.38 -0.875 5.835 -2 9 C-1.34 8.67 -0.68 8.34 0 8 C0.33 9.32 0.66 10.64 1 12 C1.66 9.03 2.32 6.06 3 3 C3.786 6.146 4.094 8.022 4 11.125 C4 15 4 15 5 17 C5.99 17 6.98 17 8 17 C8.33 18.98 8.66 20.96 9 23 C9.66 23 10.32 23 11 23 C11.33 22.34 11.66 21.68 12 21 C12.66 22.98 13.32 24.96 14 27 C12 27 10 27 8 27 C8 26.34 8 25.68 8 25 C6.68 24.67 5.36 24.34 4 24 C4 22.68 4 21.36 4 20 C3.34 20.33 3.34 20.33 0 22 C-2 20.625 -2 20.625 -4 19 C-4 18.34 -4 17.68 -4 17 C-4.66 17 -5.32 17 -6 17 C-6.33 15.35 -6.66 13.7 -7 12 C-6.34 12 -5.68 12 -5 12 C-4.917 10.948 -4.835 9.896 -4.75 8.812 C-3.947 4.73 -2.807 2.988 0 0 Z " fill="#BC6620" transform="translate(62,25)"/>
<path d="M0 0 C0.33 0 0.66 0 1 0 C3.143 7.436 3.412 14.349 2 22 C1.34 22.33 0.68 22.66 0 23 C-0.66 22.67 -1.32 22.34 -2 22 C-2 21.01 -2 20.02 -2 19 C-2.66 19 -3.32 19 -4 19 C-4 18.01 -4 17.02 -4 16 C-4.66 16 -5.32 16 -6 16 C-6.081 14.23 -6.139 12.459 -6.188 10.688 C-6.222 9.701 -6.257 8.715 -6.293 7.699 C-6 5 -6 5 -4.613 3.145 C-3 2 -3 2 -1 2 C-0.67 1.34 -0.34 0.68 0 0 Z " fill="#E57C41" transform="translate(73,22)"/>
<path d="M0 0 C0.33 0.66 0.66 1.32 1 2 C3.062 3.125 3.062 3.125 5 4 C2.375 8.875 2.375 8.875 -1 10 C-3.061 10.069 -5.125 10.085 -7.188 10.062 C-7.731 10.058 -7.731 10.058 -10.48 10.035 C-11.312 10.024 -12.143 10.012 -13 10 C-13.362 4.565 -13.362 4.565 -11.824 2.168 C-9.446 0.645 -7.618 0.495 -4.812 0.312 C-3.911 0.247 -3.01 0.181 -2.082 0.113 C-1.738 0.095 -1.738 0.095 0 0 Z " fill="#B25D11" transform="translate(42,134)"/>
<path d="M0 0 C1.938 0.312 1.938 0.312 4 1 C4.33 1.99 4.66 2.98 5 4 C6.65 3.67 8.3 3.34 10 3 C10.184 9.632 10.184 9.632 9 12 C5.438 13.75 5.438 13.75 2 15 C2 15.33 2 15.66 2 16 C-0.97 16 -3.94 16 -7 16 C-5.377 14.291 -3.707 12.626 -2 11 C-1.34 11 -0.68 11 0 11 C-0.66 9.02 -1.32 7.04 -2 5 C-0.68 4.67 0.64 4.34 2 4 C2 3.34 2 2.68 2 2 C1.34 2 0.68 2 0 2 C0 1.34 0 0.68 0 0 Z " fill="#A25619" transform="translate(118,118)"/>
<path d="M0 0 C0 0.99 0 1.98 0 3 C-2.5 4.688 -2.5 4.688 -5 6 C-3.02 5.67 -1.04 5.34 1 5 C0.67 5.66 0.34 6.32 0 7 C2.64 6.67 5.28 6.34 8 6 C8.33 6.66 8.66 7.32 9 8 C12.063 8.625 12.063 8.625 15 9 C15 9.33 15 9.66 15 10 C11.04 10 7.08 10 3 10 C2.01 11.98 1.02 13.96 0 16 C-0.99 16 -1.98 16 -3 16 C-3.33 15.01 -3.66 14.02 -4 13 C-4.66 13 -5.32 13 -6 13 C-7.333 9.667 -8.667 6.333 -10 3 C-9.051 2.691 -8.102 2.381 -7.125 2.062 C-1.059 0 -1.059 0 0 0 Z " fill="#9B460A" transform="translate(50,111)"/>
<path d="M0 0 C0.99 0 1.98 0 3 0 C4.975 3.949 3.891 8.804 3 13 C1.56 15.504 0.12 16.989 -2 19 C-2.99 18.34 -3.98 17.68 -5 17 C-5 16.34 -5 15.68 -5 15 C-8.3 14.67 -11.6 14.34 -15 14 C-14.34 12.68 -13.68 11.36 -13 10 C-10.125 9.875 -10.125 9.875 -7 10 C-6.34 10.66 -5.68 11.32 -5 12 C-2.875 12.625 -2.875 12.625 -1 13 C-1.012 12.397 -1.023 11.793 -1.035 11.172 C-1.044 10.373 -1.053 9.573 -1.062 8.75 C-1.074 7.961 -1.086 7.172 -1.098 6.359 C-1.004 4.093 -0.632 2.171 0 0 Z " fill="#D99559" transform="translate(147,43)"/>
<path d="M0 0 C0.66 0 1.32 0 2 0 C1.67 2.31 1.34 4.62 1 7 C2.32 7.66 3.64 8.32 5 9 C3.35 9.33 1.7 9.66 0 10 C-0.33 9.01 -0.66 8.02 -1 7 C-1.643 7.023 -2.286 7.046 -2.949 7.07 C-10.479 7.221 -17.594 6.319 -25 5 C-25 4.67 -25 4.34 -25 4 C-24.278 3.914 -23.556 3.829 -22.813 3.74 C-19.562 3.352 -16.312 2.957 -13.062 2.562 C-11.926 2.428 -10.79 2.293 -9.619 2.154 C-9.079 2.088 -9.079 2.088 -6.348 1.754 C-5.347 1.633 -4.347 1.513 -3.317 1.389 C-1 1 -1 1 0 0 Z " fill="#C9AF96" transform="translate(62,141)"/>
<path d="M0 0 C0.99 0.33 1.98 0.66 3 1 C1.317 3.049 0.407 3.92 -2.234 4.441 C-3.065 4.481 -3.895 4.521 -4.75 4.562 C-7.768 4.719 -10.256 5.075 -13.172 5.93 C-17.913 7.255 -22.628 7.911 -27.5 8.562 C-28.411 8.688 -29.323 8.814 -30.262 8.943 C-32.035 9.188 -33.808 9.429 -35.582 9.667 C-37.695 9.958 -39.803 10.285 -41.91 10.617 C-45.462 11.057 -48.493 10.644 -52 10 C-52 9.67 -52 9.34 -52 9 C-51.341 8.92 -50.682 8.839 -50.003 8.756 C-16.676 4.677 -16.676 4.677 -12.465 2.977 C-9.962 1.985 -7.921 1.648 -5.25 1.438 C-1.101 1.101 -1.101 1.101 0 0 Z " fill="#F1E4D5" transform="translate(125,141)"/>
<path d="M0 0 C-0.498 3.735 -0.875 5.812 -3 9 C-3.99 8.67 -4.98 8.34 -6 8 C-6.33 8.99 -6.66 9.98 -7 11 C-10.653 9.75 -11.781 9.329 -14 6 C-13.625 3.812 -13.625 3.812 -13 2 C-8.463 0.548 -4.819 -0.235 0 0 Z " fill="#E0AB6E" transform="translate(68,124)"/>
<path d="M0 0 C0.66 0.33 1.32 0.66 2 1 C2 3.31 2 5.62 2 8 C3.65 8 5.3 8 7 8 C7 8.33 7 8.66 7 9 C6.047 9.133 5.095 9.266 4.113 9.402 C2.859 9.579 1.605 9.756 0.312 9.938 C-0.929 10.112 -2.17 10.286 -3.449 10.465 C-6.325 10.898 -9.156 11.396 -12 12 C-12 8.7 -12 5.4 -12 2 C-11.34 3.32 -10.68 4.64 -10 6 C-9.34 5.34 -8.68 4.68 -8 4 C-6.68 4 -5.36 4 -4 4 C-4 3.34 -4 2.68 -4 2 C-2.68 2.33 -1.36 2.66 0 3 C0 2.01 0 1.02 0 0 Z " fill="#9E4D12" transform="translate(47,28)"/>
<path d="M0 0 C2.023 0.555 2.023 0.555 4.023 2.555 C3.363 2.555 2.703 2.555 2.023 2.555 C1.9 3.359 1.776 4.163 1.648 4.992 C1.442 5.838 1.236 6.683 1.023 7.555 C-1.222 8.677 -2.491 8.689 -4.977 8.68 C-5.327 8.681 -5.327 8.681 -7.102 8.688 C-8.977 8.555 -8.977 8.555 -10.977 7.555 C-10.977 3.555 -10.977 3.555 -9.539 1.242 C-6.112 -1.015 -3.954 -0.539 0 0 Z " fill="#F1A960" transform="translate(41.9765625,82.4453125)"/>
<path d="M0 0 C0.66 0.33 1.32 0.66 2 1 C1.34 2.65 0.68 4.3 0 6 C0.99 6.33 1.98 6.66 3 7 C3.103 6.402 3.206 5.804 3.312 5.188 C4.089 2.718 5.071 1.677 7 0 C7.33 0.66 7.66 1.32 8 2 C7.34 2 6.68 2 6 2 C5.67 3.32 5.34 4.64 5 6 C5.66 6 6.32 6 7 6 C7.66 4.35 8.32 2.7 9 1 C9.99 1.66 10.98 2.32 12 3 C15.137 3.195 15.137 3.195 18.688 3.125 C19.867 3.107 21.046 3.089 22.262 3.07 C23.165 3.047 24.069 3.024 25 3 C22.172 4.885 20.723 5.423 17.5 6.062 C14.899 6.587 12.526 7.158 10 8 C8.211 8.119 6.418 8.175 4.625 8.188 C4.157 8.195 4.157 8.195 1.789 8.23 C-1.161 7.987 -3.324 7.231 -6 6 C-5.67 4.35 -5.34 2.7 -5 1 C-4.67 1 -4.34 1 -4 1 C-4 2.65 -4 4.3 -4 6 C-3.34 6 -2.68 6 -2 6 C-1.856 5.196 -1.711 4.391 -1.562 3.562 C-1 1 -1 1 0 0 Z " fill="#A05215" transform="translate(68,142)"/>
<path d="M0 0 C0.99 0.33 1.98 0.66 3 1 C2.495 1.499 1.989 1.998 1.469 2.512 C-2.873 7.31 -4.488 10.498 -4.438 17.062 C-4.326 19.044 -4.192 21.025 -4 23 C-4.33 23 -4.66 23 -5 23 C-5 19.37 -5 15.74 -5 12 C-6.65 12.33 -8.3 12.66 -10 13 C-13.812 12.062 -13.812 12.062 -17 11 C-13.878 8.359 -10.957 7.032 -7 6 C-6.34 6.33 -5.68 6.66 -5 7 C-4.732 6.402 -4.464 5.804 -4.188 5.188 C-3.015 3.028 -1.806 1.642 0 0 Z " fill="#B05D18" transform="translate(75,108)"/>
<path d="M0 0 C2 2 2 2 2 5 C1.34 5 0.68 5 0 5 C0.75 10.75 0.75 10.75 3 13 C2.959 14.134 2.918 15.269 2.875 16.438 C2.916 17.613 2.957 18.789 3 20 C5 21.812 5 21.812 7 23 C7 23.66 7 24.32 7 25 C4.688 24.938 4.688 24.938 2 24 C0.79 21.627 -0.108 19.479 -1 17 C-1.985 14.993 -2.981 12.99 -4 11 C-4.66 11.66 -5.32 12.32 -6 13 C-5.358 10.023 -4.383 7.522 -3 4.812 C-2.825 4.465 -2.825 4.465 -1.938 2.707 C-1 1 -1 1 0 0 Z " fill="#CA762D" transform="translate(23,65)"/>
<path d="M0 0 C2.518 1.872 3.187 3.03 4.438 5.812 C4.147 5.867 4.147 5.867 2.68 6.145 C-2.16 7.127 -6.216 8.361 -10.562 10.812 C-9.886 6.585 -7.845 3.371 -5.562 -0.188 C-2.562 -1.188 -2.562 -1.188 0 0 Z " fill="#AE5812" transform="translate(138.5625,46.1875)"/>
<path d="M0 0 C4.792 0.564 9.548 1.238 14.312 2 C20.195 2.921 26.065 3.548 32 4 C32 4.66 32 5.32 32 6 C25.428 7.151 19.756 6.703 13.188 5.688 C12.247 5.557 11.307 5.426 10.338 5.291 C3.396 4.264 3.396 4.264 0 2 C0 1.34 0 0.68 0 0 Z " fill="#F1E4D4" transform="translate(29,144)"/>
<path d="M0 0 C0.66 0 1.32 0 2 0 C4.025 8.166 4.593 14.313 1.312 22.25 C0 26 0 26 0.812 28.5 C1.204 28.995 1.596 29.49 2 30 C-0.31 30 -2.62 30 -5 30 C-4.723 29.469 -4.446 28.938 -4.16 28.391 C-3.798 27.684 -3.436 26.978 -3.062 26.25 C-2.703 25.554 -2.343 24.858 -1.973 24.141 C-0.05 19.909 0.239 15.871 0.562 11.25 C0.646 10.08 0.73 8.909 0.816 7.703 C0.877 6.811 0.938 5.919 1 5 C0.01 4.67 -0.98 4.34 -2 4 C-1.34 4 -0.68 4 0 4 C0 2.68 0 1.36 0 0 Z " fill="#843B06" transform="translate(109,106)"/>
<path d="M0 0 C2.31 0 4.62 0 7 0 C6.67 1.65 6.34 3.3 6 5 C6.99 5.33 7.98 5.66 9 6 C8.34 7.98 7.68 9.96 7 12 C5.35 12.33 3.7 12.66 2 13 C2.66 11.68 3.32 10.36 4 9 C2.68 8.34 1.36 7.68 0 7 C0.33 6.67 0.66 6.34 1 6 C0.01 5.67 -0.98 5.34 -2 5 C-2 4.34 -2 3.68 -2 3 C-1.34 3 -0.68 3 0 3 C0 2.01 0 1.02 0 0 Z " fill="#884609" transform="translate(38,98)"/>
<path d="M0 0 C0.33 0.66 0.66 1.32 1 2 C3.64 1.67 6.28 1.34 9 1 C8.67 2.32 8.34 3.64 8 5 C7.34 5 6.68 5 6 5 C6 6.32 6 7.64 6 9 C7.625 9.027 9.25 9.046 10.875 9.062 C11.78 9.074 12.685 9.086 13.617 9.098 C16 9 16 9 18 8 C18.625 5.937 18.625 5.937 19 4 C19.99 4.33 20.98 4.66 22 5 C20.517 9.449 16.917 11.746 13 14 C12.34 14 11.68 14 11 14 C11 13.34 11 12.68 11 12 C10.216 11.918 9.432 11.835 8.625 11.75 C6 11 6 11 4.938 9.125 C4.628 8.424 4.319 7.722 4 7 C3.299 6.505 2.598 6.01 1.875 5.5 C1.256 5.005 0.637 4.51 0 4 C0 2.68 0 1.36 0 0 Z " fill="#9E481B" transform="translate(25,81)"/>
<path d="M0 0 C0.33 0.66 0.66 1.32 1 2 C0.67 2.99 0.34 3.98 0 5 C0.99 4.01 1.98 3.02 3 2 C3.99 2.33 4.98 2.66 6 3 C6.125 8.75 6.125 8.75 5 11 C3.021 11.727 1.02 12.398 -1 13 C-3 11 -3 11 -3.312 7.062 C-3.256 4.238 -3.231 3.308 -1.5 1 C-1.005 0.67 -0.51 0.34 0 0 Z " fill="#231508" transform="translate(49,65)"/>
<path d="M0 0 C5.75 1.875 5.75 1.875 8 3 C7.67 3.99 7.34 4.98 7 6 C6.67 5.34 6.34 4.68 6 4 C5.34 4 4.68 4 4 4 C4.33 4.66 4.66 5.32 5 6 C5.99 6.33 6.98 6.66 8 7 C8 7.66 8 8.32 8 9 C5.03 8.67 2.06 8.34 -1 8 C-1.33 8.66 -1.66 9.32 -2 10 C-2.66 10 -3.32 10 -4 10 C-4 11.65 -4 13.3 -4 15 C-4.33 15 -4.66 15 -5 15 C-5.607 8.079 -4.441 5.329 0 0 Z " fill="#8E551B" transform="translate(26,102)"/>
<path d="M0 0 C0.923 2.768 1.042 5.238 1 8.125 C1 12 1 12 2 14 C2.99 14 3.98 14 5 14 C5.33 15.98 5.66 17.96 6 20 C6.66 20 7.32 20 8 20 C8.33 19.34 8.66 18.68 9 18 C9.66 19.98 10.32 21.96 11 24 C9 24 7 24 5 24 C5 23.34 5 22.68 5 22 C3.68 21.67 2.36 21.34 1 21 C-0.888 14.745 -3.068 6.136 0 0 Z " fill="#B05A1A" transform="translate(65,28)"/>
<path d="M0 0 C2.741 -0.222 4.44 -0.348 6.812 1.125 C8.542 3.855 8.324 5.828 8 9 C6.793 12.343 6.079 12.947 3 15 C0.812 14.625 0.812 14.625 -1 14 C-1 13.34 -1 12.68 -1 12 C0.65 12 2.3 12 4 12 C4 9.36 4 6.72 4 4 C3.34 3.67 2.68 3.34 2 3 C1.67 3.99 1.34 4.98 1 6 C0.34 6 -0.32 6 -1 6 C-0.67 4.02 -0.34 2.04 0 0 Z " fill="#AE6420" transform="translate(50,64)"/>
<path d="M0 0 C0.66 0.33 1.32 0.66 2 1 C2 2.32 2 3.64 2 5 C2.66 5 3.32 5 4 5 C4.33 5.66 4.66 6.32 5 7 C5.66 6.67 6.32 6.34 7 6 C7.33 6.99 7.66 7.98 8 9 C5.351 11.649 2.338 13.331 -1 15 C-3.008 14.719 -5.01 14.389 -7 14 C-7 13.34 -7 12.68 -7 12 C-6.381 11.876 -5.763 11.752 -5.125 11.625 C-3 11 -3 11 -1 9 C-0.34 9.33 0.32 9.66 1 10 C0.67 6.7 0.34 3.4 0 0 Z " fill="#C36607" transform="translate(42,119)"/>
<path d="M0 0 C3.463 2.309 3.56 3.015 4.562 6.875 C5.43 10.159 6.432 12.99 8 16 C8.33 16.99 8.66 17.98 9 19 C9.516 19.639 10.031 20.279 10.562 20.938 C12 23 12 23 12 27 C12.66 27 13.32 27 14 27 C13.67 27.66 13.34 28.32 13 29 C12.175 28.67 12.175 28.67 8 27 C8 26.01 8 25.02 8 24 C7.447 22.419 6.835 20.858 6.188 19.312 C5.824 18.427 5.46 17.541 5.086 16.629 C4.728 15.761 4.369 14.894 4 14 C2.132 9.378 0.622 4.977 0 0 Z " fill="#93460E" transform="translate(78,55)"/>
<path d="M0 0 C1.951 2.87 1.989 4.126 1.688 7.688 C1 11 1 11 0 12 C-2 12.041 -4 12.043 -6 12 C-6.625 9.688 -6.625 9.688 -7 7 C-6.34 6.01 -5.68 5.02 -5 4 C-4.01 4 -3.02 4 -2 4 C-1.34 2.68 -0.68 1.36 0 0 Z " fill="#D69F5F" transform="translate(67,128)"/>
<path d="M0 0 C0.66 0 1.32 0 2 0 C2 1.98 2 3.96 2 6 C2.66 6 3.32 6 4 6 C4.33 8.31 4.66 10.62 5 13 C5.66 13 6.32 13 7 13 C7 15.31 7 17.62 7 20 C7.66 20 8.32 20 9 20 C9.33 23.63 9.66 27.26 10 31 C8 29 8 29 7.875 26.375 C7.916 25.591 7.958 24.808 8 24 C7.34 24 6.68 24 6 24 C6 21.36 6 18.72 6 16 C5.34 16 4.68 16 4 16 C3.34 14.68 2.68 13.36 2 12 C1.67 12 1.34 12 1 12 C0.67 8.04 0.34 4.08 0 0 Z " fill="#DDAE86" transform="translate(133,64)"/>
<path d="M0 0 C0.33 1.32 0.66 2.64 1 4 C0.175 4.495 0.175 4.495 -4 7 C-4 6.01 -4 5.02 -4 4 C-4.598 4.66 -5.196 5.32 -5.812 6 C-8 8 -8 8 -11 8 C-11.216 5.334 -11.309 3.56 -10 1.188 C-6.76 -0.736 -3.717 -0.183 0 0 Z " fill="#9F4C0B" transform="translate(40,135)"/>
<path d="M0 0 C5.023 1.231 9.792 1.256 14.938 1.062 C14.938 1.392 14.938 1.722 14.938 2.062 C13.288 2.062 11.638 2.062 9.938 2.062 C9.938 2.722 9.938 3.382 9.938 4.062 C4.296 5.052 0.406 5.25 -5.062 3.062 C-5.722 2.073 -6.383 1.082 -7.062 0.062 C-3.827 -1.016 -3.136 -0.871 0 0 Z " fill="#D57E2D" transform="translate(38.0625,77.9375)"/>
<path d="M0 0 C0.66 0.66 1.32 1.32 2 2 C1.01 2.33 0.02 2.66 -1 3 C-0.67 4.32 -0.34 5.64 0 7 C-4.018 7.841 -7.018 8.054 -11 7 C-8.438 1.286 -6.527 -0.694 0 0 Z " fill="#F3B46A" transform="translate(55,57)"/>
<path d="M0 0 C0.409 0.005 0.409 0.005 2.477 0.027 C2.79 0.033 2.79 0.033 4.375 0.062 C3.715 0.723 3.055 1.383 2.375 2.062 C1.385 1.733 0.395 1.402 -0.625 1.062 C-0.955 2.052 -1.285 3.043 -1.625 4.062 C-6.809 5.887 -11.211 6.062 -16.625 6.062 C-16.295 5.072 -15.965 4.082 -15.625 3.062 C-14.965 3.062 -14.305 3.062 -13.625 3.062 C-12.8 2.733 -11.975 2.402 -11.125 2.062 C-8.625 1.062 -8.625 1.062 -6.625 1.062 C-4.22 -0.14 -2.675 -0.038 0 0 Z " fill="#D28446" transform="translate(113.625,16.9375)"/>
<path d="M0 0 C1.771 0.478 3.542 0.958 5.312 1.438 C6.299 1.704 7.285 1.971 8.301 2.246 C10.215 2.781 12.114 3.371 14 4 C14 4.66 14 5.32 14 6 C15.65 5.34 17.3 4.68 19 4 C19 5.32 19 6.64 19 8 C5.621 7.372 5.621 7.372 1 4 C0.355 1.895 0.355 1.895 0 0 Z " fill="#D88C47" transform="translate(22,89)"/>
<path d="M0 0 C1.104 3.311 0.927 5.247 0.562 8.688 C0.461 9.681 0.359 10.675 0.254 11.699 C0.212 12.079 0.212 12.079 0 14 C-0.33 13.01 -0.66 12.02 -1 11 C-2.32 11 -3.64 11 -5 11 C-5.75 8.25 -5.75 8.25 -6 5 C-4.159 2.651 -2.66 1.33 0 0 Z " fill="#ED9058" transform="translate(75,28)"/>
<path d="M0 0 C3.959 0.11 7.917 0.24 11.875 0.375 C12.439 0.39 12.439 0.39 15.293 0.469 C15.831 0.488 15.831 0.488 18.555 0.586 C19.55 0.617 20.545 0.649 21.57 0.681 C24 1 24 1 26 3 C27.317 3.697 28.649 4.37 30 5 C28.35 5.33 26.7 5.66 25 6 C24.67 5.01 24.34 4.02 24 3 C23.357 3.023 22.714 3.046 22.051 3.07 C14.521 3.221 7.406 2.319 0 1 C0 0.67 0 0.34 0 0 Z " fill="#DAC5B0" transform="translate(37,145)"/>
<path d="M0 0 C-0.33 0.66 -0.66 1.32 -1 2 C-3.039 2.562 -3.039 2.562 -5.625 3 C-8.742 3.558 -11.59 4.183 -14.625 5.125 C-18.612 6.159 -21.896 6.144 -26 6 C-17.031 1.475 -10.191 -0.63 0 0 Z " fill="#E5D3BF" transform="translate(124,141)"/>
<path d="M0 0 C1.938 0.375 1.938 0.375 4 1 C4.33 1.66 4.66 2.32 5 3 C4.01 3 3.02 3 2 3 C3.32 3.66 4.64 4.32 6 5 C5.959 5.949 5.918 6.897 5.875 7.875 C6 11 6 11 8 13 C9.023 14.653 10.026 16.318 11 18 C7.645 16.612 5.849 15.144 4 12 C4 10.68 4 9.36 4 8 C2.68 7.67 1.36 7.34 0 7 C0 4.69 0 2.38 0 0 Z " fill="#BD631C" transform="translate(23,113)"/>
<path d="M0 0 C0.99 0.33 1.98 0.66 3 1 C2.67 3.64 2.34 6.28 2 9 C2.99 9.33 3.98 9.66 5 10 C5 14.268 4.624 14.939 2 18 C-0.075 15.51 -1.006 13.709 -0.977 10.441 C-0.715 7.947 -0.399 5.476 0 3 C-0.66 3 -1.32 3 -2 3 C-2 2.34 -2 1.68 -2 1 C-1.34 0.67 -0.68 0.34 0 0 Z " fill="#9B4B0B" transform="translate(117,100)"/>
<path d="M0 0 C0.99 0.33 1.98 0.66 3 1 C2.383 5.007 0.214 7.679 -2 11 C-2.75 13.375 -2.75 13.375 -3 15 C-3.99 14.67 -4.98 14.34 -6 14 C-5.38 12.227 -4.754 10.457 -4.125 8.688 C-3.777 7.701 -3.429 6.715 -3.07 5.699 C-2 3 -2 3 0 0 Z " fill="#CF8345" transform="translate(84,31)"/>
<path d="M0 0 C0.66 0.99 1.32 1.98 2 3 C1.213 4.461 0.42 5.918 -0.375 7.375 C-0.816 8.187 -1.257 8.999 -1.711 9.836 C-3 12 -3 12 -5 14 C-7.625 14.125 -7.625 14.125 -10 14 C-10.33 13.01 -10.66 12.02 -11 11 C-10.34 11 -9.68 11 -9 11 C-9 11.66 -9 12.32 -9 13 C-6.216 11.294 -5.146 10.524 -4.25 7.312 C-4.168 6.549 -4.085 5.786 -4 5 C-3.34 5 -2.68 5 -2 5 C-1.34 3.35 -0.68 1.7 0 0 Z " fill="#A95A1B" transform="translate(104,131)"/>
<path d="M0 0 C-0.33 0.99 -0.66 1.98 -1 3 C-1 2.34 -1 1.68 -1 1 C-3.293 1.281 -5.584 1.575 -7.875 1.875 C-8.513 1.956 -8.513 1.956 -11.742 2.367 C-15 3 -15 3 -17 5 C-17.66 4.01 -18.32 3.02 -19 2 C-22.125 1.312 -22.125 1.312 -25 1 C-25 0.67 -25 0.34 -25 0 C-23.819 0.012 -22.638 0.023 -21.422 0.035 C-19.865 0.045 -18.307 0.054 -16.75 0.062 C-15.973 0.071 -15.195 0.079 -14.395 0.088 C-13.64 0.091 -12.886 0.094 -12.109 0.098 C-11.418 0.103 -10.727 0.108 -10.015 0.114 C-8 0 -8 0 -5.884 -0.533 C-3.61 -1.097 -2.203 -0.708 0 0 Z " fill="#BA7834" transform="translate(62,97)"/>
<path d="M0 0 C1.562 1.75 1.562 1.75 3 4 C2.688 6.25 2.688 6.25 2 8 C1.34 8 0.68 8 0 8 C-0.33 8.99 -0.66 9.98 -1 11 C-1.66 11 -2.32 11 -3 11 C-3 7.7 -3 4.4 -3 1 C-2.01 0.67 -1.02 0.34 0 0 Z " fill="#D38037" transform="translate(19,75)"/>
<path d="M0 0 C1.938 0.312 1.938 0.312 4 1 C4.33 1.99 4.66 2.98 5 4 C5.66 4.33 6.32 4.66 7 5 C6 8 6 8 3.938 9.188 C3.298 9.456 2.659 9.724 2 10 C0.68 8.68 -0.64 7.36 -2 6 C-0.68 5.34 0.64 4.68 2 4 C2 3.34 2 2.68 2 2 C1.34 2 0.68 2 0 2 C0 1.34 0 0.68 0 0 Z " fill="#9D4D0C" transform="translate(118,118)"/>
<path d="M0 0 C0.66 0.33 1.32 0.66 2 1 C2 2.65 2 4.3 2 6 C1.01 6.33 0.02 6.66 -1 7 C-1 6.01 -1 5.02 -1 4 C-1.598 4.66 -2.196 5.32 -2.812 6 C-5 8 -5 8 -8 8 C-8.66 8.66 -9.32 9.32 -10 10 C-9.67 8.35 -9.34 6.7 -9 5 C-7.35 4.67 -5.7 4.34 -4 4 C-4 3.34 -4 2.68 -4 2 C-2.68 2.33 -1.36 2.66 0 3 C0 2.01 0 1.02 0 0 Z " fill="#AF5D1C" transform="translate(47,28)"/>
<path d="M0 0 C1.858 3.135 2.201 5.375 2 9 C0.35 9.66 -1.3 10.32 -3 11 C-4 9 -4 9 -3.188 5.5 C-2 2 -2 2 0 0 Z " fill="#C0681F" transform="translate(45,18)"/>
<path d="M0 0 C3.167 1.584 4.733 2.453 6.312 5.688 C6.539 6.451 6.766 7.214 7 8 C-1.262 13.74 -1.262 13.74 -6 13 C-4.308 11.872 -2.606 10.756 -0.875 9.688 C1.472 7.575 1.667 6.08 2 3 C1.34 2.67 0.68 2.34 0 2 C0 1.34 0 0.68 0 0 Z " fill="#683208" transform="translate(44,101)"/>
<path d="M0 0 C0.99 0.33 1.98 0.66 3 1 C2.34 2.98 1.68 4.96 1 7 C-5.152 6.414 -5.152 6.414 -7 6 C-7.33 5.34 -7.66 4.68 -8 4 C-6.866 3.526 -5.731 3.051 -4.562 2.562 C-1 1 -1 1 0 0 Z " fill="#BB6113" transform="translate(66,114)"/>
<path d="M0 0 C1.65 0 3.3 0 5 0 C5 0.99 5 1.98 5 3 C5.66 3.33 6.32 3.66 7 4 C6.34 5.32 5.68 6.64 5 8 C3.35 7.67 1.7 7.34 0 7 C0 4.69 0 2.38 0 0 Z " fill="#985918" transform="translate(35,103)"/>
<path d="M0 0 C0.99 0.33 1.98 0.66 3 1 C3 3.97 3 6.94 3 10 C1.68 10 0.36 10 -1 10 C-1.33 7.69 -1.66 5.38 -2 3 C-1.01 3.33 -0.02 3.66 1 4 C0.67 2.68 0.34 1.36 0 0 Z " fill="#26180B" transform="translate(24,66)"/>
<path d="M0 0 C0 2 0 2 -1.688 4.625 C-3.881 6.812 -5.074 7.007 -8.227 7.324 C-11.498 7.314 -14.736 7.215 -18 7 C-18 6.67 -18 6.34 -18 6 C-15.36 6 -12.72 6 -10 6 C-10 5.34 -10 4.68 -10 4 C-8.35 3.67 -6.7 3.34 -5 3 C-5.66 2.34 -6.32 1.68 -7 1 C-2.25 0 -2.25 0 0 0 Z " fill="#E7D3C0" transform="translate(124,131)"/>
<path d="M0 0 C3.694 1.755 5.54 3.182 7 7 C7.371 7.907 7.743 8.815 8.125 9.75 C8.414 10.492 8.702 11.235 9 12 C8.01 12 7.02 12 6 12 C4.155 9.374 3.016 7.049 2 4 C-0.062 2.312 -0.062 2.312 -2 1 C-1.34 0.67 -0.68 0.34 0 0 Z " fill="#DA8F4F" transform="translate(141,29)"/>
<path d="M0 0 C0.33 0 0.66 0 1 0 C2.333 4 3.667 8 5 12 C3.02 12.33 1.04 12.66 -1 13 C-1.027 11.208 -1.046 9.417 -1.062 7.625 C-1.074 6.627 -1.086 5.63 -1.098 4.602 C-1 2 -1 2 0 0 Z " fill="#CB8B49" transform="translate(69,126)"/>
<path d="M0 0 C2 3.75 2 3.75 2 6 C2.66 5.67 3.32 5.34 4 5 C7 4.812 7 4.812 10 5 C10.66 5.66 11.32 6.32 12 7 C11.359 7.049 10.719 7.098 10.059 7.148 C4.788 7.604 0.03 8.36 -5 10 C-4.34 8.68 -3.68 7.36 -3 6 C-2.34 6 -1.68 6 -1 6 C-0.67 4.02 -0.34 2.04 0 0 Z " fill="#A8520E" transform="translate(83,98)"/>
<path d="M0 0 C0.99 0.33 1.98 0.66 3 1 C2.34 2.32 1.68 3.64 1 5 C1.99 5.165 1.99 5.165 7 6 C7 6.33 7 6.66 7 7 C0.304 7.798 -6.258 8.129 -13 8 C-13 7.67 -13 7.34 -13 7 C-11.185 6.835 -11.185 6.835 -2 6 C-1.34 4.02 -0.68 2.04 0 0 Z " fill="#97531D" transform="translate(46,137)"/>
<path d="M0 0 C-0.66 1.32 -1.32 2.64 -2 4 C-2.66 4 -3.32 4 -4 4 C-4 3.01 -4 2.02 -4 1 C-5.98 1.99 -7.96 2.98 -10 4 C-9 1 -9 1 -7.25 -0.25 C-4.473 -1.176 -2.784 -0.773 0 0 Z M-4 4 C-4.33 4.99 -4.66 5.98 -5 7 C-6.65 7.33 -8.3 7.66 -10 8 C-6.25 4 -6.25 4 -4 4 Z " fill="#CF7422" transform="translate(54,110)"/>
<path d="M0 0 C-0.155 0.361 -0.155 0.361 -0.938 2.188 C-1.926 4.803 -2.529 7.251 -3 10 C-4.65 10.33 -6.3 10.66 -8 11 C-7.67 10.34 -7.34 9.68 -7 9 C-6.34 9 -5.68 9 -5 9 C-4.67 6.36 -4.34 3.72 -4 1 C-4.99 0.67 -5.98 0.34 -7 0 C-3.867 -1.044 -3.01 -0.934 0 0 Z " fill="#9D5111" transform="translate(66,96)"/>
<path d="M0 0 C1.32 1.32 2.64 2.64 4 4 C3.67 4.66 3.34 5.32 3 6 C0.69 6 -1.62 6 -4 6 C-4 5.01 -4 4.02 -4 3 C-2 1.312 -2 1.312 0 0 Z " fill="#A54F07" transform="translate(47,129)"/>
<path d="M0 0 C0.923 2.768 1.042 5.238 1 8.125 C1 12 1 12 2 14 C2.99 14 3.98 14 5 14 C4.34 15.65 3.68 17.3 3 19 C2.34 19 1.68 19 1 19 C-1.408 13.432 -1.419 7.965 -1 2 C-0.67 1.34 -0.34 0.68 0 0 Z " fill="#903F11" transform="translate(65,28)"/>
<path d="M0 0 C5.261 -0.316 8.446 0.334 13 3 C12.34 3.66 11.68 4.32 11 5 C8.906 4.863 8.906 4.863 6.5 4.312 C5.706 4.144 4.912 3.975 4.094 3.801 C2 3 2 3 0 0 Z " fill="#914309" transform="translate(76,138)"/>
<path d="M0 0 C0.33 0.66 0.66 1.32 1 2 C4.062 2.625 4.062 2.625 7 3 C7 3.33 7 3.66 7 4 C-6.633 4.185 -6.633 4.185 -13 3 C-8.982 0.589 -4.648 0 0 0 Z " fill="#A8550D" transform="translate(58,117)"/>
<path d="M0 0 C0.33 0.66 0.66 1.32 1 2 C3.64 1.67 6.28 1.34 9 1 C8.67 2.32 8.34 3.64 8 5 C5.125 5.625 5.125 5.625 2 6 C1.34 5.34 0.68 4.68 0 4 C0 2.68 0 1.36 0 0 Z " fill="#583011" transform="translate(25,81)"/>
<path d="M0 0 C0.33 0.66 0.66 1.32 1 2 C2.65 2 4.3 2 6 2 C3.47 5.092 0.775 5.909 -3 7 C-3.33 6.34 -3.66 5.68 -4 5 C-2.68 3.35 -1.36 1.7 0 0 Z " fill="#CC742F" transform="translate(96,21)"/>
<path d="M0 0 C2 2 2 2 2 5 C1.34 5 0.68 5 0 5 C0.33 7.64 0.66 10.28 1 13 C0.01 12.34 -0.98 11.68 -2 11 C-2 10.01 -2 9.02 -2 8 C-2.66 7.67 -3.32 7.34 -4 7 C-1.125 1.125 -1.125 1.125 0 0 Z " fill="#BC9D78" transform="translate(23,65)"/>
<path d="M0 0 C0.99 0 1.98 0 3 0 C3 2.64 3 5.28 3 8 C2.67 7.34 2.34 6.68 2 6 C1.34 6.33 1.34 6.33 -2 8 C-1.125 1.125 -1.125 1.125 0 0 Z " fill="#F0AA54" transform="translate(23,57)"/>
<path d="M0 0 C0.66 0.33 1.32 0.66 2 1 C1.75 3.875 1.75 3.875 1 7 C-1.062 8.375 -1.062 8.375 -3 9 C-3 10.65 -3 12.3 -3 14 C-3.33 14 -3.66 14 -4 14 C-4.432 7.739 -3.927 4.909 0 0 Z " fill="#935A31" transform="translate(25,103)"/>
<path d="M0 0 C8.571 -0.286 8.571 -0.286 12 2 C12 2.99 12 3.98 12 5 C10.02 5.33 8.04 5.66 6 6 C6.33 4.35 6.66 2.7 7 1 C4.69 1 2.38 1 0 1 C0 0.67 0 0.34 0 0 Z " fill="#DE9348" transform="translate(56,89)"/>
<path d="M0 0 C0.33 0.66 0.66 1.32 1 2 C0.004 4.164 0.004 4.164 -1.438 6.625 C-1.911 7.442 -2.384 8.26 -2.871 9.102 C-3.244 9.728 -3.616 10.355 -4 11 C-4.66 11 -5.32 11 -6 11 C-6.33 10.01 -6.66 9.02 -7 8 C-6.01 7.67 -5.02 7.34 -4 7 C-4 6.01 -4 5.02 -4 4 C-3.34 4 -2.68 4 -2 4 C-2 3.01 -2 2.02 -2 1 C-1.34 0.67 -0.68 0.34 0 0 Z " fill="#C66A1B" transform="translate(132,45)"/>
<path d="M0 0 C0.99 0.33 1.98 0.66 3 1 C1.151 5.068 -0.664 8.009 -4 11 C-3.67 8.69 -3.34 6.38 -3 4 C-2.34 4 -1.68 4 -1 4 C-0.67 2.68 -0.34 1.36 0 0 Z " fill="#CF7C38" transform="translate(41,19)"/>
<path d="M0 0 C0.66 0.33 1.32 0.66 2 1 C1.34 2.98 0.68 4.96 0 7 C-1.65 7.33 -3.3 7.66 -5 8 C-2.25 2.25 -2.25 2.25 0 0 Z " fill="#CFB499" transform="translate(105,136)"/>
<path d="M0 0 C0.99 0.66 1.98 1.32 3 2 C3.99 2 4.98 2 6 2 C3.875 4.062 3.875 4.062 1 6 C-2.312 5.75 -2.312 5.75 -5 5 C-5 4.34 -5 3.68 -5 3 C-4.361 2.876 -3.721 2.752 -3.062 2.625 C-2.722 2.522 -2.722 2.522 -1 2 C-0.67 1.34 -0.34 0.68 0 0 Z " fill="#CB7119" transform="translate(40,128)"/>
<path d="M0 0 C0.99 0.165 0.99 0.165 6 1 C5.125 5.75 5.125 5.75 4 8 C3.01 7.67 2.02 7.34 1 7 C1.021 6.216 1.041 5.433 1.062 4.625 C1 2 1 2 0 0 Z " fill="#9D6328" transform="translate(30,95)"/>
<path d="M0 0 C2.31 0.33 4.62 0.66 7 1 C6.043 2.126 5.084 3.251 4.125 4.375 C3.591 5.001 3.058 5.628 2.508 6.273 C1.386 7.558 0.206 8.794 -1 10 C-1 8.35 -1 6.7 -1 5 C-0.34 5 0.32 5 1 5 C0.67 3.35 0.34 1.7 0 0 Z " fill="#AD5911" transform="translate(64,94)"/>
<path d="M0 0 C2 2 2 2 2 5 C2.33 5.99 2.66 6.98 3 8 C0.69 8 -1.62 8 -4 8 C-2.68 5.36 -1.36 2.72 0 0 Z " fill="#90430B" transform="translate(108,128)"/>
<path d="M0 0 C0.99 0.33 1.98 0.66 3 1 C3.223 2.435 3.428 3.873 3.625 5.312 C3.741 6.113 3.857 6.914 3.977 7.738 C4 10 4 10 2 13 C1.67 10.36 1.34 7.72 1 5 C0.67 5 0.34 5 0 5 C0 3.35 0 1.7 0 0 Z " fill="#C87A37" transform="translate(138,87)"/>
<path d="M0 0 C0.33 0 0.66 0 1 0 C1.982 4.053 2.082 7.839 2 12 C-0.062 10.25 -0.062 10.25 -2 8 C-1.812 6 -1.812 6 -1 4 C-0.814 3.258 -0.629 2.515 -0.438 1.75 C-0.293 1.172 -0.149 0.595 0 0 Z " fill="#E8DAC6" transform="translate(76,41)"/>
<path d="M0 0 C0.66 0.33 1.32 0.66 2 1 C1.795 1.271 1.795 1.271 0.758 2.645 C0.488 3.002 0.488 3.002 -0.875 4.812 C-1.409 5.52 -1.942 6.228 -2.492 6.957 C-3.708 8.605 -4.864 10.296 -6 12 C-7.32 11.67 -8.64 11.34 -10 11 C-9.278 10.299 -8.556 9.597 -7.812 8.875 C-5.002 6.072 -2.505 3.077 0 0 Z " fill="#8E3E07" transform="translate(79,107)"/>
<path d="M0 0 C0.644 0.006 0.644 0.006 3.902 0.035 C5.193 0.044 6.483 0.053 7.812 0.062 C8.812 0.074 9.811 0.086 10.84 0.098 C6.743 2.334 3.488 2.803 -1.16 3.098 C-2.15 2.438 -3.14 1.778 -4.16 1.098 C-3.16 0.098 -3.16 0.098 0 0 Z " fill="#D5944D" transform="translate(51.16015625,94.90234375)"/>
<path d="M0 0 C4.75 0.75 4.75 0.75 7 3 C6.625 5.125 6.625 5.125 6 7 C5.711 6.361 5.422 5.721 5.125 5.062 C4 3 4 3 2 2 C1.67 2.99 1.34 3.98 1 5 C0.34 5 -0.32 5 -1 5 C-0.67 3.35 -0.34 1.7 0 0 Z " fill="#B08F62" transform="translate(50,65)"/>
<path d="M0 0 C6.75 -0.125 6.75 -0.125 9 1 C8.67 1.66 8.34 2.32 8 3 C5.36 3 2.72 3 0 3 C0 2.01 0 1.02 0 0 Z " fill="#9B5921" transform="translate(26,80)"/>
<path d="M0 0 C0.66 0 1.32 0 2 0 C2 1.98 2 3.96 2 6 C2.66 6 3.32 6 4 6 C4 7.98 4 9.96 4 12 C3.01 12 2.02 12 1 12 C0.67 8.04 0.34 4.08 0 0 Z " fill="#D39663" transform="translate(133,64)"/>
<path d="M0 0 C0.289 0.186 0.289 0.186 1.75 1.125 C1.42 2.115 1.09 3.105 0.75 4.125 C-1.23 4.125 -3.21 4.125 -5.25 4.125 C-5.58 3.135 -5.91 2.145 -6.25 1.125 C-2.804 -1.09 -2.804 -1.09 0 0 Z " fill="#CD6F1F" transform="translate(31.25,75.875)"/>
<path d="M0 0 C1.98 0 3.96 0 6 0 C6.33 1.32 6.66 2.64 7 4 C4.03 4 1.06 4 -2 4 C-1.34 2.68 -0.68 1.36 0 0 Z " fill="#C88950" transform="translate(134,53)"/>
<path d="M0 0 C0.99 0.165 0.99 0.165 6 1 C6.33 2.32 6.66 3.64 7 5 C5.35 5.33 3.7 5.66 2 6 C2 5.01 2 4.02 2 3 C1.34 3 0.68 3 0 3 C0 2.01 0 1.02 0 0 Z " fill="#A85405" transform="translate(44,121)"/>
<path d="M0 0 C2.31 0 4.62 0 7 0 C6.67 0.165 6.67 0.165 5 1 C5 1.66 5 2.32 5 3 C3.68 3 2.36 3 1 3 C1 3.66 1 4.32 1 5 C0.01 5 -0.98 5 -2 5 C-2 4.34 -2 3.68 -2 3 C-1.34 3 -0.68 3 0 3 C0 2.01 0 1.02 0 0 Z " fill="#81430C" transform="translate(38,98)"/>
<path d="M0 0 C0.103 0.639 0.206 1.279 0.312 1.938 C0.539 2.618 0.766 3.299 1 4 C1.99 4.33 2.98 4.66 4 5 C4 6.65 4 8.3 4 10 C2.68 9.34 1.36 8.68 0 8 C0 5.36 0 2.72 0 0 Z " fill="#553314" transform="translate(46,68)"/>
<path d="M0 0 C1.896 -0.054 3.791 -0.093 5.688 -0.125 C6.743 -0.148 7.799 -0.171 8.887 -0.195 C12.023 0.001 14.176 0.669 17 2 C15.125 3.062 15.125 3.062 13 4 C12.34 3.67 11.68 3.34 11 3 C11 2.34 11 1.68 11 1 C7.37 1 3.74 1 0 1 C0 0.67 0 0.34 0 0 Z " fill="#E2CFBB" transform="translate(50,147)"/>
<path d="M0 0 C-0.66 1.98 -1.32 3.96 -2 6 C-3.65 5.67 -5.3 5.34 -7 5 C-6 2 -6 2 -4.062 0.812 C-2 0 -2 0 0 0 Z " fill="#D0B69B" transform="translate(64,141)"/>
<path d="M0 0 C0.99 0 1.98 0 3 0 C3 0.66 3 1.32 3 2 C4.65 1.34 6.3 0.68 8 0 C8 1.32 8 2.64 8 4 C5.36 3.67 2.72 3.34 0 3 C0 2.01 0 1.02 0 0 Z " fill="#ED9B4C" transform="translate(33,93)"/>
<path d="M0 0 C2.041 1.616 4.041 3.286 6 5 C6 5.66 6 6.32 6 7 C1.125 6.125 1.125 6.125 0 5 C-0.041 3.334 -0.043 1.666 0 0 Z " fill="#E99646" transform="translate(24,83)"/>
<path d="M0 0 C0.33 1.32 0.66 2.64 1 4 C-0.65 5.32 -2.3 6.64 -4 8 C-4.99 7.34 -5.98 6.68 -7 6 C-6.031 5.381 -5.061 4.763 -4.062 4.125 C-1 2 -1 2 0 0 Z " fill="#DD8A3C" transform="translate(60,72)"/>
<path d="M0 0 C3 2 3 2 3.73 4.164 C3.881 4.976 4.032 5.788 4.188 6.625 C4.346 7.442 4.505 8.26 4.668 9.102 C4.723 9.415 4.723 9.415 5 11 C4.34 11 3.68 11 3 11 C2.496 9.543 1.997 8.084 1.5 6.625 C1.222 5.813 0.943 5.001 0.656 4.164 C0 2 0 2 0 0 Z " fill="#9F5012" transform="translate(78,55)"/>
<path d="M0 0 C10.558 -0.185 10.558 -0.185 15 1 C15 1.33 15 1.66 15 2 C13.515 2.165 13.515 2.165 6 3 C6 2.67 6 2.34 6 2 C5.01 1.835 5.01 1.835 0 1 C0 0.67 0 0.34 0 0 Z " fill="#E8C6A6" transform="translate(111,16)"/>
<path d="M0 0 C2.97 0.33 5.94 0.66 9 1 C5.812 3.125 3.735 3.502 0 4 C-0.33 3.34 -0.66 2.68 -1 2 C-0.67 1.34 -0.34 0.68 0 0 Z " fill="#D69D60" transform="translate(60,122)"/>
<path d="M0 0 C2.97 0.33 5.94 0.66 9 1 C8.67 2.65 8.34 4.3 8 6 C7.67 5.01 7.34 4.02 7 3 C6.608 3.031 6.608 3.031 4.625 3.188 C3.759 3.126 2.892 3.064 2 3 C1.34 2.01 0.68 1.02 0 0 Z " fill="#883C06" transform="translate(43,119)"/>
<path d="M0 0 C0.33 0 0.66 0 1 0 C1 2.64 1 5.28 1 8 C1.66 8 2.32 8 3 8 C3.66 9.32 4.32 10.64 5 12 C3.68 12 2.36 12 1 12 C0.039 9.118 -0.106 7.301 -0.062 4.312 C-0.053 3.504 -0.044 2.696 -0.035 1.863 C-0.024 1.248 -0.012 0.634 0 0 Z " fill="#EFAD66" transform="translate(42,67)"/>
<path d="M0 0 C1.32 0.33 2.64 0.66 4 1 C4 1.99 4 2.98 4 4 C2.188 4.688 2.188 4.688 0 5 C-1.75 3.562 -1.75 3.562 -3 2 C-2.01 2 -1.02 2 0 2 C0 1.34 0 0.68 0 0 Z " fill="#D4782E" transform="translate(120,18)"/>
<path d="M0 0 C2.64 0.33 5.28 0.66 8 1 C8 1.66 8 2.32 8 3 C5.69 3 3.38 3 1 3 C0.67 2.01 0.34 1.02 0 0 Z " fill="#ECE2D3" transform="translate(29,144)"/>
<path d="M0 0 C1.32 0.66 2.64 1.32 4 2 C3.381 2.083 2.763 2.165 2.125 2.25 C0 3 0 3 -1.25 5.062 C-1.497 5.702 -1.745 6.341 -2 7 C-2.688 5.188 -2.688 5.188 -3 3 C-1.562 1.25 -1.562 1.25 0 0 Z " fill="#B76421" transform="translate(32,135)"/>
<path d="M0 0 C0.33 0 0.66 0 1 0 C1 2.97 1 5.94 1 9 C0.34 8.67 -0.32 8.34 -1 8 C-1.75 5.062 -1.75 5.062 -2 2 C-1.34 1.34 -0.68 0.68 0 0 Z " fill="#B75F16" transform="translate(74,126)"/>
<path d="M0 0 C0.99 0.33 1.98 0.66 3 1 C2.188 2.938 2.188 2.938 1 5 C0.01 5.33 -0.98 5.66 -2 6 C-1.125 1.125 -1.125 1.125 0 0 Z " fill="#CB8D4D" transform="translate(53,120)"/>
<path d="M0 0 C0 0.99 0 1.98 0 3 C-2.375 4.062 -2.375 4.062 -5 5 C-5.66 4.67 -6.32 4.34 -7 4 C-5.533 1.066 -3.26 0 0 0 Z " fill="#B1540F" transform="translate(50,111)"/>
<path d="M0 0 C1.607 3.215 1.057 6.436 1 10 C0.34 9.01 -0.32 8.02 -1 7 C-1.33 7.165 -1.33 7.165 -3 8 C-2.453 4.625 -1.945 2.918 0 0 Z " fill="#D37929" transform="translate(62,27)"/>
<path d="M0 0 C0.33 0 0.66 0 1 0 C0.67 2.97 0.34 5.94 0 9 C-1.32 8.67 -2.64 8.34 -4 8 C-4.33 8.66 -4.66 9.32 -5 10 C-5 9.01 -5 8.02 -5 7 C-4.68 6.887 -4.68 6.887 -3.062 6.312 C-1 5 -1 5 -0.25 2.375 C-0.168 1.591 -0.085 0.808 0 0 Z " fill="#C17538" transform="translate(47,22)"/>
<path d="M0 0 C0.33 0 0.66 0 1 0 C1.33 2.64 1.66 5.28 2 8 C1.01 8 0.02 8 -1 8 C-1.66 6.02 -2.32 4.04 -3 2 C-2.34 2 -1.68 2 -1 2 C-0.67 1.34 -0.34 0.68 0 0 Z " fill="#D37F42" transform="translate(73,22)"/>
<path d="M0 0 C0.66 1.32 1.32 2.64 2 4 C1.67 4.495 1.67 4.495 0 7 C-2.625 7.188 -2.625 7.188 -5 7 C-4.01 6.67 -3.02 6.34 -2 6 C-2.33 5.01 -2.66 4.02 -3 3 C-2.34 3 -1.68 3 -1 3 C-0.67 2.01 -0.34 1.02 0 0 Z " fill="#9C4B0C" transform="translate(77,133)"/>
<path d="M0 0 C2.64 0 5.28 0 8 0 C8 0.33 8 0.66 8 1 C6.35 1 4.7 1 3 1 C3 1.66 3 2.32 3 3 C0.69 3 -1.62 3 -4 3 C-2.68 2.67 -1.36 2.34 0 2 C0 1.34 0 0.68 0 0 Z " fill="#B98050" transform="translate(111,134)"/>
<path d="M0 0 C3.375 0.547 5.082 1.055 8 3 C7.34 3 6.68 3 6 3 C5.67 3.99 5.34 4.98 5 6 C3.35 4.02 1.7 2.04 0 0 Z " fill="#CE7122" transform="translate(137,38)"/>
<path d="M0 0 C1.98 1.65 3.96 3.3 6 5 C4.68 5.33 3.36 5.66 2 6 C2 5.01 2 4.02 2 3 C0.35 2.67 -1.3 2.34 -3 2 C-2.01 1.34 -1.02 0.68 0 0 Z " fill="#E0A36C" transform="translate(136,22)"/>
<path d="M0 0 C3.375 -0.125 3.375 -0.125 7 0 C7.66 0.66 8.32 1.32 9 2 C6.69 2.33 4.38 2.66 2 3 C2 2.34 2 1.68 2 1 C1.34 0.67 0.68 0.34 0 0 Z " fill="#D4803A" transform="translate(127,21)"/>
<path d="M0 0 C0.66 0 1.32 0 2 0 C1.34 2.31 0.68 4.62 0 7 C-0.66 7 -1.32 7 -2 7 C-2.125 4.625 -2.125 4.625 -2 2 C-1.34 1.34 -0.68 0.68 0 0 Z " fill="#CA6B17" transform="translate(66,141)"/>
<path d="M0 0 C0.99 0 1.98 0 3 0 C3 1.65 3 3.3 3 5 C2.01 5 1.02 5 0 5 C-0.562 3.062 -0.562 3.062 -1 1 C-0.67 0.67 -0.34 0.34 0 0 Z " fill="#AE5915" transform="translate(125,121)"/>
<path d="M0 0 C0.99 0.33 1.98 0.66 3 1 C2.01 1.33 1.02 1.66 0 2 C-1.188 4.062 -1.188 4.062 -2 6 C-2.99 5.67 -3.98 5.34 -5 5 C-3.35 3.35 -1.7 1.7 0 0 Z " fill="#EEDAC4" transform="translate(139,111)"/>
<path d="M0 0 C0.99 0.33 1.98 0.66 3 1 C1.902 3.993 1.323 4.846 -1.625 6.25 C-2.409 6.498 -3.193 6.745 -4 7 C-3.763 6.794 -3.763 6.794 -2.562 5.75 C-0.837 3.818 -0.434 2.518 0 0 Z " fill="#8D5123" transform="translate(44,85)"/>
<path d="M0 0 C0.33 0 0.66 0 1 0 C1 2.97 1 5.94 1 9 C0.01 8.01 -0.98 7.02 -2 6 C-1.579 1.579 -1.579 1.579 0 0 Z " fill="#C96D1E" transform="translate(129,57)"/>
<path d="M0 0 C0.33 0.66 0.66 1.32 1 2 C0.67 2.66 0.34 3.32 0 4 C0.66 4 1.32 4 2 4 C1.67 4.99 1.34 5.98 1 7 C0.01 7 -0.98 7 -2 7 C-1.125 1.125 -1.125 1.125 0 0 Z " fill="#AA5F26" transform="translate(24,50)"/>
<path d="M0 0 C0.33 1.32 0.66 2.64 1 4 C0.505 4.33 0.505 4.33 -2 6 C-2.66 4.68 -3.32 3.36 -4 2 C-2.68 1.34 -1.36 0.68 0 0 Z " fill="#B8601C" transform="translate(64,41)"/>
<path d="M0 0 C0.99 0.33 1.98 0.66 3 1 C3 2.32 3 3.64 3 5 C2.34 5.33 2.34 5.33 -1 7 C-0.67 4.69 -0.34 2.38 0 0 Z " fill="#D59157" transform="translate(90,24)"/>
</svg>
