<?xml version="1.0" encoding="UTF-8"?>
<!-- Generator: visioncortex VTracer 0.6.12 -->
<svg version="1.1" xmlns="http://www.w3.org/2000/svg" width="180" height="165">
<path d="M0 0 C59.4 0 118.8 0 180 0 C180 54.45 180 108.9 180 165 C120.6 165 61.2 165 0 165 C0 110.55 0 56.1 0 0 Z " fill="#FDF8F1" transform="translate(0,0)"/>
<path d="M0 0 C4.793 4.124 6.137 8.82 7.965 14.762 C9.632 19.977 11.7 25.033 14 30 C14.339 30.898 14.678 31.797 15.027 32.723 C18.286 36.485 22.193 36.586 27 37 C32.788 37.159 38.568 37.036 44.355 36.884 C46.336 36.835 48.319 36.806 50.301 36.777 C50.884 36.763 50.884 36.763 53.837 36.691 C57.36 37.035 59.19 37.888 62 40 C63.555 43.11 63.286 45.563 63 49 C60.04 54.629 55.968 57.515 50.75 61 C48.558 62.495 46.368 63.994 44.186 65.504 C42.708 66.515 41.214 67.502 39.705 68.465 C36.233 70.8 34.321 72.205 32.727 76.148 C33.127 81.791 35.171 86.456 37.375 91.625 C38.22 93.657 39.061 95.691 39.898 97.727 C40.277 98.619 40.655 99.512 41.044 100.432 C42.988 105.654 43.438 110.483 43 116 C41.562 118.5 41.562 118.5 39 120 C33.934 121.176 29.909 120.299 25.438 117.75 C19.967 114.172 14.775 110.156 9.621 106.14 C1.609 99.961 1.609 99.961 -4.383 100.051 C-8.873 101.229 -11.406 103.209 -14.875 106.188 C-16.097 107.192 -17.321 108.195 -18.547 109.195 C-19.135 109.679 -19.724 110.163 -20.33 110.661 C-26.932 115.954 -33.203 120.603 -41.871 120.375 C-44 120 -44 120 -46.562 117.938 C-48.772 113.422 -48.636 110.011 -47.151 105.313 C-45.576 101.141 -43.892 97.018 -42.199 92.893 C-37.965 82.201 -37.965 82.201 -39 76 C-42.173 71.829 -46.38 69.311 -50.812 66.625 C-65.408 57.5 -65.408 57.5 -68 51 C-67.92 47.174 -67.578 45.567 -64.821 42.86 C-61.593 40.732 -59.752 40.425 -55.922 40.242 C-54.76 40.174 -53.599 40.106 -52.402 40.035 C-51.197 39.982 -49.992 39.929 -48.75 39.875 C-30.673 38.955 -30.673 38.955 -26 37 C-24.125 34.891 -24.125 34.891 -23 32 C-22.76 31.388 -22.52 30.777 -22.273 30.146 C-21.469 28.028 -20.73 25.895 -20 23.75 C-19.736 22.993 -19.472 22.236 -19.199 21.456 C-17.859 17.597 -16.608 13.727 -15.438 9.812 C-14.093 5.691 -12.019 3.097 -9 0 C-5.736 -1.632 -3.468 -0.882 0 0 Z " fill="#F35B24" transform="translate(82,22)"/>
<path d="M0 0 C4.793 4.124 6.137 8.82 7.965 14.762 C9.632 19.977 11.7 25.033 14 30 C14.339 30.898 14.678 31.797 15.027 32.723 C18.286 36.485 22.193 36.586 27 37 C32.788 37.159 38.568 37.036 44.355 36.884 C46.336 36.835 48.319 36.806 50.301 36.777 C50.884 36.763 50.884 36.763 53.837 36.691 C57.324 37.032 59.176 37.984 62 40 C61.67 41.32 61.34 42.64 61 44 C60.34 44 59.68 44 59 44 C58.67 43.67 58.34 43.34 58 43 C58 43.66 58 44.32 58 45 C57.362 45.121 56.724 45.242 56.066 45.367 C55.653 45.451 55.653 45.451 53.562 45.875 C52.739 46.037 51.915 46.2 51.066 46.367 C50.384 46.576 49.703 46.785 49 47 C48.835 47.33 48.835 47.33 48 49 C46.062 48.625 46.062 48.625 44 48 C43.67 47.34 43.34 46.68 43 46 C42.67 47.65 42.34 49.3 42 51 C41.402 50.773 40.804 50.546 40.188 50.312 C39.466 50.209 38.744 50.106 38 50 C37.546 50.495 37.093 50.99 36.625 51.5 C36.089 51.995 35.552 52.49 35 53 C31.812 52.688 31.812 52.688 29 52 C28.67 52.99 28.34 53.98 28 55 C23.408 57.187 19.887 57.357 15 56 C14.381 55.154 13.763 54.309 13.125 53.438 C11 51 11 51 8.863 50.496 C6.422 50.374 4.381 50.446 2 51 C-0.125 53.062 -0.125 53.062 -1 56 C-0.688 59.812 -0.688 59.812 0 63 C-0.062 61.763 -0.124 60.525 -0.188 59.25 C-0.168 56.535 -0.016 55.037 1.062 52.5 C3 51 3 51 6.438 50.5 C10 51 10 51 12.438 52.625 C14.459 55.697 14.444 57.376 14 61 C12.81 65.998 10.184 67.298 6 70 C4.625 72.25 4.625 72.25 4 74 C3.67 73.01 3.34 72.02 3 71 C3.33 70.34 3.66 69.68 4 69 C3.072 69.66 2.144 70.32 1.188 71 C-3.664 73.777 -8.555 73.73 -14 73 C-17.187 71.5 -17.187 71.5 -19 70 C-19.33 70.66 -19.66 71.32 -20 72 C-20.66 70.35 -21.32 68.7 -22 67 C-22.165 67.495 -22.165 67.495 -23 70 C-26 72 -26 72 -28.5 71.75 C-31 71 -31 71 -34 69 C-34.165 69.66 -34.165 69.66 -35 73 C-35 72.01 -35 71.02 -35 70 C-35.66 70 -36.32 70 -37 70 C-37 70.99 -37 71.98 -37 73 C-37.66 73 -38.32 73 -39 73 C-39 71.68 -39 70.36 -39 69 C-38.01 69 -37.02 69 -36 69 C-35.835 68.505 -35.835 68.505 -35 66 C-34.031 65.422 -33.061 64.845 -32.062 64.25 C-28.238 61.44 -28.05 59.521 -27 55 C-25.375 52.562 -25.375 52.562 -24 51 C-26.912 54.288 -28.497 56.599 -29 61 C-29.33 61 -29.66 61 -30 61 C-30 59.35 -30 57.7 -30 56 C-32.97 56 -35.94 56 -39 56 C-39 55.34 -39 54.68 -39 54 C-40.155 54.165 -40.155 54.165 -46 55 C-46 54.34 -46 53.68 -46 53 C-47.98 52.67 -49.96 52.34 -52 52 C-52 51.01 -52 50.02 -52 49 C-52.66 49 -53.32 49 -54 49 C-54 49.66 -54 50.32 -54 51 C-56.937 50.188 -56.937 50.188 -60 49 C-60.165 48.505 -60.165 48.505 -61 46 C-61.66 45.67 -62.32 45.34 -63 45 C-63.082 45.619 -63.165 46.237 -63.25 46.875 C-64 49 -64 49 -66.062 50.25 C-66.702 50.498 -67.341 50.745 -68 51 C-67.748 47.297 -67.508 45.505 -64.829 42.844 C-61.599 40.738 -59.743 40.425 -55.922 40.242 C-54.76 40.174 -53.599 40.106 -52.402 40.035 C-51.197 39.982 -49.992 39.929 -48.75 39.875 C-30.673 38.955 -30.673 38.955 -26 37 C-24.125 34.891 -24.125 34.891 -23 32 C-22.76 31.388 -22.52 30.777 -22.273 30.146 C-21.469 28.028 -20.73 25.895 -20 23.75 C-19.736 22.993 -19.472 22.236 -19.199 21.456 C-17.859 17.597 -16.608 13.727 -15.438 9.812 C-14.093 5.691 -12.019 3.097 -9 0 C-5.736 -1.632 -3.468 -0.882 0 0 Z " fill="#F66A2F" transform="translate(82,22)"/>
<path d="M0 0 C1.32 0.33 2.64 0.66 4 1 C4 1.66 4 2.32 4 3 C4.66 3 5.32 3 6 3 C6.33 2.01 6.66 1.02 7 0 C8 1 8 1 8.312 4.188 C7.96 8.488 6.791 10.841 4 14 C1.381 16.202 -1.407 18.101 -4.25 20 C-7.172 21.993 -10.089 23.992 -13 26 C-13.752 26.514 -14.503 27.028 -15.277 27.557 C-15.995 28.067 -16.713 28.576 -17.453 29.102 C-17.776 29.328 -17.776 29.328 -19.411 30.471 C-22.249 33.202 -22.475 36.193 -23 40 C-23.66 39.01 -24.32 38.02 -25 37 C-26.32 37.66 -27.64 38.32 -29 39 C-29.66 38.34 -30.32 37.68 -31 37 C-31 36.01 -31 35.02 -31 34 C-31.99 34 -32.98 34 -34 34 C-34.66 33.01 -35.32 32.02 -36 31 C-36.99 31.66 -37.98 32.32 -39 33 C-38.649 32.443 -38.299 31.886 -37.938 31.312 C-36.75 28.383 -37.009 26.974 -38 24 C-38.495 23.546 -38.99 23.093 -39.5 22.625 C-41.794 20.14 -41.531 17.28 -42 14 C-43.125 12.062 -43.125 12.062 -45 11 C-48.562 10.625 -48.562 10.625 -52 11 C-54.136 14.204 -54.231 15.019 -54.125 18.688 C-54.107 19.496 -54.089 20.304 -54.07 21.137 C-54.047 21.752 -54.024 22.366 -54 23 C-55.508 21.715 -55.508 21.715 -57 20 C-56.873 16.516 -56.322 13.785 -55 10.562 C-52.162 8.345 -49.881 8.336 -46.34 8.457 C-42.873 9.262 -41.104 11.282 -38.625 13.727 C-37 15 -37 15 -33.812 14.938 C-32.884 14.628 -31.956 14.319 -31 14 C-30.618 13.928 -30.618 13.928 -28.688 13.562 C-28.131 13.377 -27.574 13.191 -27 13 C-26.67 12.34 -26.34 11.68 -26 11 C-24.02 11 -22.04 11 -20 11 C-19.34 9.35 -18.68 7.7 -18 6 C-17.835 6.495 -17.835 6.495 -17 9 C-14.938 9.688 -14.938 9.688 -13 10 C-13 8.35 -13 6.7 -13 5 C-12.34 4.67 -11.68 4.34 -11 4 C-11 4.99 -11 5.98 -11 7 C-9.68 7.33 -8.36 7.66 -7 8 C-6.67 7.01 -6.34 6.02 -6 5 C-4.515 4.835 -4.515 4.835 3 4 C2.01 2.68 1.02 1.36 0 0 Z " fill="#EC5220" transform="translate(137,63)"/>
<path d="M0 0 C5.017 1.923 9.07 5.586 13.262 8.867 C16.556 11.259 19.895 13.578 23.262 15.867 C23.877 16.304 24.491 16.741 25.125 17.191 C29.658 20.161 33.993 20.745 39.262 19.867 C40.252 19.207 41.242 18.547 42.262 17.867 C41.932 19.187 41.602 20.507 41.262 21.867 C12.522 22.246 12.522 22.246 3.012 20.742 C-2.906 19.836 -7.062 20.227 -12.738 21.867 C-22.575 23.771 -32.817 22.504 -42.738 21.867 C-42.738 21.537 -42.738 21.207 -42.738 20.867 C-42.132 20.792 -41.527 20.718 -40.902 20.641 C-28.215 18.65 -19.472 10.511 -9.992 2.367 C-6.803 -0.122 -3.992 -0.745 0 0 Z " fill="#EED9C6" transform="translate(81.73828125,121.1328125)"/>
<path d="M0 0 C0.784 0.495 1.567 0.99 2.375 1.5 C5 3 5 3 7 3 C7.33 2.34 7.66 1.68 8 1 C10.814 3.427 11.931 5.81 13.262 9.254 C13.658 10.273 14.054 11.292 14.463 12.342 C14.867 13.405 15.271 14.467 15.688 15.562 C16.103 16.629 16.519 17.696 16.947 18.795 C20 26.71 20 26.71 20 29 C19.34 29 18.68 29 18 29 C18 29.66 18 30.32 18 31 C17.34 31.33 16.68 31.66 16 32 C16 34.31 16 36.62 16 39 C16.495 38.835 16.495 38.835 19 38 C18.438 39.938 18.438 39.938 17 42 C13.141 42.912 10.784 43.261 7 42 C7.33 41.01 7.66 40.02 8 39 C8 39.66 8 40.32 8 41 C8.99 41 9.98 41 11 41 C11.382 39.344 11.714 37.675 12 36 C11.835 35.835 11.835 35.835 11 35 C11 34.01 11 33.02 11 32 C9.68 32 8.36 32 7 32 C7 31.01 7 30.02 7 29 C4 30 4 30 3 32 C1.02 32 -0.96 32 -3 32 C-3 32.66 -3 33.32 -3 34 C-6.653 32.75 -7.781 32.329 -10 29 C-9.361 28.856 -8.721 28.711 -8.062 28.562 C-6 28 -6 28 -5 27 C-5.287 24.993 -5.619 22.991 -6 21 C-5.422 21.33 -4.845 21.66 -4.25 22 C-2 23 -2 23 2 23 C2.66 21.35 3.32 19.7 4 18 C3.402 18.516 2.804 19.031 2.188 19.562 C1.466 20.037 0.744 20.511 0 21 C-0.99 20.67 -1.98 20.34 -3 20 C-3 19.34 -3 18.68 -3 18 C-3.66 18 -4.32 18 -5 18 C-4.67 17.01 -4.34 16.02 -4 15 C-3.01 14.67 -2.02 14.34 -1 14 C-0.67 13.01 -0.34 12.02 0 11 C0.99 11 1.98 11 3 11 C3 10.34 3 9.68 3 9 C2.34 9 1.68 9 1 9 C1 7 1 5 1 3 C0.34 2.67 -0.32 2.34 -1 2 C-0.67 1.34 -0.34 0.68 0 0 Z " fill="#F25921" transform="translate(104,98)"/>
<path d="M0 0 C-0.33 2.31 -0.66 4.62 -1 7 C-0.34 7.33 0.32 7.66 1 8 C0.34 8.66 -0.32 9.32 -1 10 C-1.379 11.657 -1.703 13.327 -2 15 C-2.651 17.338 -3.315 19.672 -4 22 C-4.33 22 -4.66 22 -5 22 C-5 20.35 -5 18.7 -5 17 C-7.97 17 -10.94 17 -14 17 C-14 16.34 -14 15.68 -14 15 C-16.31 15.33 -18.62 15.66 -21 16 C-21 15.34 -21 14.68 -21 14 C-21.99 13.835 -21.99 13.835 -27 13 C-27 12.01 -27 11.02 -27 10 C-27.66 10 -28.32 10 -29 10 C-29 10.66 -29 11.32 -29 12 C-31.937 11.188 -31.937 11.188 -35 10 C-35.33 9.01 -35.66 8.02 -36 7 C-36.66 6.67 -37.32 6.34 -38 6 C-38.082 6.619 -38.165 7.237 -38.25 7.875 C-39 10 -39 10 -41.062 11.25 C-41.702 11.498 -42.341 11.745 -43 12 C-42.747 8.297 -42.511 6.506 -39.827 3.849 C-36.622 1.753 -34.749 1.401 -30.957 1.172 C-30.379 1.133 -30.379 1.133 -27.451 0.938 C-26.851 0.907 -26.851 0.907 -23.812 0.75 C-22.631 0.673 -21.45 0.595 -20.232 0.516 C-13.482 0.097 -6.762 -0.105 0 0 Z " fill="#FB6E34" transform="translate(57,61)"/>
<path d="M0 0 C2.77 2.77 2.398 4.765 2.625 8.625 C2.7 9.814 2.775 11.002 2.852 12.227 C2.876 12.684 2.876 12.684 3 15 C2.67 14.01 2.34 13.02 2 12 C0.68 12.33 -0.64 12.66 -2 13 C-3.33 21.978 -3.088 30.948 -3 40 C-3.33 40.165 -3.33 40.165 -5 41 C-5 40.01 -5 39.02 -5 38 C-6.98 38.66 -8.96 39.32 -11 40 C-11 37.36 -11 34.72 -11 32 C-10.67 33.32 -10.34 34.64 -10 36 C-8.68 36 -7.36 36 -6 36 C-6 34.02 -6 32.04 -6 30 C-6.66 29.67 -7.32 29.34 -8 29 C-8.625 26.438 -8.625 26.438 -9 24 C-9.66 24 -10.32 24 -11 24 C-11 24.66 -11 25.32 -11 26 C-12.65 25.67 -14.3 25.34 -16 25 C-16.66 26.32 -17.32 27.64 -18 29 C-18.99 29 -19.98 29 -21 29 C-15.912 6.912 -15.912 6.912 -9 0 C-5.881 -1.559 -3.337 -0.655 0 0 Z " fill="#F35F2C" transform="translate(82,22)"/>
<path d="M0 0 C3.316 0.553 6.151 1.168 9 3 C9.33 3.99 9.66 4.98 10 6 C10.66 6 11.32 6 12 6 C12.33 5.01 12.66 4.02 13 3 C13.66 3 14.32 3 15 3 C15 3.66 15 4.32 15 5 C14.34 5 13.68 5 13 5 C12.67 7.64 12.34 10.28 12 13 C10.68 13 9.36 13 8 13 C8 14.98 8 16.96 8 19 C6.68 19 5.36 19 4 19 C4 20.32 4 21.64 4 23 C3.01 23 2.02 23 1 23 C1 24.65 1 26.3 1 28 C0.01 28.33 -0.98 28.66 -2 29 C-2 27.68 -2 26.36 -2 25 C-3.938 25.375 -3.938 25.375 -6 26 C-6.33 26.66 -6.66 27.32 -7 28 C-5.68 28.33 -4.36 28.66 -3 29 C-2.67 30.32 -2.34 31.64 -2 33 C-2.99 33 -3.98 33 -5 33 C-5 34.32 -5 35.64 -5 37 C-6.155 37.165 -6.155 37.165 -12 38 C-12.571 31.293 -10.533 25.977 -8.188 19.75 C-7.831 18.757 -7.475 17.765 -7.107 16.742 C-5.492 12.368 -4.328 9.281 -1 6 C-0.312 2.812 -0.312 2.812 0 0 Z " fill="#F96529" transform="translate(46,99)"/>
<path d="M0 0 C0.66 1.65 1.32 3.3 2 5 C2.99 4.67 3.98 4.34 5 4 C5 5.32 5 6.64 5 8 C5.516 8.227 6.031 8.454 6.562 8.688 C9.924 10.498 12.929 12.74 16 15 C16.66 14.01 17.32 13.02 18 12 C18 12.66 18 13.32 18 14 C19.98 14 21.96 14 24 14 C24.33 13.01 24.66 12.02 25 11 C25.99 11 26.98 11 28 11 C28 11.99 28 12.98 28 14 C29.32 14 30.64 14 32 14 C32 14.99 32 15.98 32 17 C32.66 17 33.32 17 34 17 C34.33 16.34 34.66 15.68 35 15 C35 15.99 35 16.98 35 18 C34.67 18.165 34.67 18.165 33 19 C32.375 21.063 32.375 21.063 32 23 C30.68 23.33 29.36 23.66 28 24 C35.429 24.286 35.429 24.286 39 22 C38.01 21.67 37.02 21.34 36 21 C36 18.69 36 16.38 36 14 C36.99 13.67 37.98 13.34 39 13 C39 12.34 39 11.68 39 11 C39.66 11 40.32 11 41 11 C42.239 14.718 42.529 18.137 42 22 C40.562 24.5 40.562 24.5 38 26 C32.934 27.176 28.909 26.299 24.438 23.75 C21.224 21.659 18.185 19.386 15.16 17.035 C13.774 15.96 12.387 14.886 11 13.812 C10.313 13.281 9.627 12.749 8.92 12.201 C3.93 8.441 -0.72 5.906 -7 5 C-3.667 0 -3.667 0 0 0 Z " fill="#E14A1A" transform="translate(83,116)"/>
<path d="M0 0 C0.99 0.33 1.98 0.66 3 1 C2.374 1.892 1.747 2.784 1.102 3.703 C0.276 4.885 -0.55 6.068 -1.375 7.25 C-1.788 7.837 -2.2 8.423 -2.625 9.027 C-5.352 12.942 -7.495 16.485 -9 21 C-9.66 21 -10.32 21 -11 21 C-10.401 23.352 -9.731 25.686 -9 28 C-8.34 28.33 -7.68 28.66 -7 29 C-8.32 29.66 -8.32 29.66 -15 33 C-14.01 32.835 -14.01 32.835 -9 32 C-11.251 34.353 -12.709 35.873 -16.059 36.203 C-16.451 36.211 -16.451 36.211 -18.438 36.25 C-19.22 36.276 -20.002 36.302 -20.809 36.328 C-23.479 35.928 -24.32 35.053 -26 33 C-25.67 32.01 -25.34 31.02 -25 30 C-23.35 30 -21.7 30 -20 30 C-20 28.68 -20 27.36 -20 26 C-19.01 26 -18.02 26 -17 26 C-17.812 24.062 -17.812 24.062 -19 22 C-19.99 21.67 -20.98 21.34 -22 21 C-21.67 20.01 -21.34 19.02 -21 18 C-19.68 18 -18.36 18 -17 18 C-17 19.32 -17 20.64 -17 22 C-16.34 21.67 -15.68 21.34 -15 21 C-14.375 18.438 -14.375 18.438 -14 16 C-13.01 16 -12.02 16 -11 16 C-11 14.68 -11 13.36 -11 12 C-9.68 12 -8.36 12 -7 12 C-7.186 11.381 -7.371 10.763 -7.562 10.125 C-8 8 -8 8 -7 6 C-5.35 6 -3.7 6 -2 6 C-1.34 4.02 -0.68 2.04 0 0 Z " fill="#F3551B" transform="translate(61,106)"/>
<path d="M0 0 C5.216 -0.095 5.216 -0.095 7.578 1.086 C7.578 1.746 7.578 2.406 7.578 3.086 C6.588 3.086 5.598 3.086 4.578 3.086 C4.578 4.406 4.578 5.726 4.578 7.086 C4.248 7.251 4.248 7.251 2.578 8.086 C1.857 9.73 1.185 11.396 0.578 13.086 C-0.742 12.756 -2.062 12.426 -3.422 12.086 C-3.422 11.096 -3.422 10.106 -3.422 9.086 C-4.082 9.086 -4.742 9.086 -5.422 9.086 C-5.422 9.746 -5.422 10.406 -5.422 11.086 C-8.359 10.273 -8.359 10.273 -11.422 9.086 C-11.752 8.096 -12.082 7.106 -12.422 6.086 C-13.082 5.756 -13.742 5.426 -14.422 5.086 C-14.504 5.705 -14.587 6.323 -14.672 6.961 C-15.422 9.086 -15.422 9.086 -17.484 10.336 C-18.124 10.583 -18.763 10.831 -19.422 11.086 C-19.181 7.549 -18.803 5.556 -16.547 2.773 C-11.308 -0.056 -5.844 0.207 0 0 Z " fill="#FA8851" transform="translate(33.421875,61.9140625)"/>
<path d="M0 0 C1.241 -0.021 2.483 -0.041 3.762 -0.062 C4.959 -0.068 6.157 -0.073 7.391 -0.078 C8.489 -0.087 9.588 -0.097 10.72 -0.106 C14.099 0.291 15.991 1.309 18.75 3.25 C18.42 4.57 18.09 5.89 17.75 7.25 C17.09 7.25 16.43 7.25 15.75 7.25 C15.42 6.92 15.09 6.59 14.75 6.25 C14.75 6.91 14.75 7.57 14.75 8.25 C11.78 8.91 8.81 9.57 5.75 10.25 C5.75 9.26 5.75 8.27 5.75 7.25 C2.45 7.58 -0.85 7.91 -4.25 8.25 C-4.91 6.93 -5.57 5.61 -6.25 4.25 C-8.56 4.25 -10.87 4.25 -13.25 4.25 C-13.58 3.26 -13.91 2.27 -14.25 1.25 C-11.557 -1.443 -3.624 0.015 0 0 Z " fill="#F37241" transform="translate(125.25,58.75)"/>
<path d="M0 0 C4.875 0.875 4.875 0.875 6 2 C6.235 4.183 6.414 6.372 6.562 8.562 C6.646 9.76 6.73 10.958 6.816 12.191 C6.877 13.118 6.938 14.045 7 15 C6.67 14.01 6.34 13.02 6 12 C4.68 12.33 3.36 12.66 2 13 C0.67 21.978 0.912 30.948 1 40 C0.67 40.165 0.67 40.165 -1 41 C-1 40.01 -1 39.02 -1 38 C-2.98 38.66 -4.96 39.32 -7 40 C-7 37.36 -7 34.72 -7 32 C-6.67 33.32 -6.34 34.64 -6 36 C-4.68 36 -3.36 36 -2 36 C-2 34.02 -2 32.04 -2 30 C-2.66 29.67 -3.32 29.34 -4 29 C-3.34 29 -2.68 29 -2 29 C-2.165 27.927 -2.33 26.855 -2.5 25.75 C-3.063 21.53 -3.146 18.074 -2 14 C-1.814 13.258 -1.629 12.515 -1.438 11.75 C-1.293 11.172 -1.149 10.595 -1 10 C-1.99 10 -2.98 10 -4 10 C-4 9.01 -4 8.02 -4 7 C-2.35 6.34 -0.7 5.68 1 5 C1 5.99 1 6.98 1 8 C1.66 8 2.32 8 3 8 C2.67 7.01 2.34 6.02 2 5 C1.34 4.67 0.68 4.34 0 4 C0 2.68 0 1.36 0 0 Z " fill="#F5551B" transform="translate(78,22)"/>
<path d="M0 0 C1 2 2 4 3 6 C4.32 6 5.64 6 7 6 C6.67 6.99 6.34 7.98 6 9 C6.99 9.33 7.98 9.66 9 10 C9.33 10.495 9.33 10.495 11 13 C11.33 12.01 11.66 11.02 12 10 C12.66 10 13.32 10 14 10 C14.248 10.949 14.495 11.898 14.75 12.875 C16 16 16 16 18.125 17.375 C18.744 17.581 19.362 17.787 20 18 C20 17.34 20 16.68 20 16 C19.34 16 18.68 16 18 16 C17.67 14.68 17.34 13.36 17 12 C19.31 12.33 21.62 12.66 24 13 C23.67 15.31 23.34 17.62 23 20 C23.99 18.02 24.98 16.04 26 14 C26.66 14 27.32 14 28 14 C29.286 21.429 29.286 21.429 28 25 C28.66 25 29.32 25 30 25 C30 24.01 30 23.02 30 22 C30.66 22 31.32 22 32 22 C31.897 22.392 31.897 22.392 31.375 24.375 C31.251 25.241 31.127 26.108 31 27 C31.66 27.66 32.32 28.32 33 29 C32.34 29 31.68 29 31 29 C31 29.99 31 30.98 31 32 C31.66 32.33 32.32 32.66 33 33 C32.34 33 31.68 33 31 33 C30.34 35.31 29.68 37.62 29 40 C27.867 36.602 28.087 33.637 28.453 30.098 C27.482 25.602 23.341 23.231 19.73 20.789 C18.552 20.064 17.371 19.343 16.188 18.625 C1.933 9.652 1.933 9.652 0.301 5.012 C0 3.062 0 3.062 0 0 Z " fill="#D64B24" transform="translate(15,70)"/>
<path d="M0 0 C-0.33 0.99 -0.66 1.98 -1 3 C0.32 3.99 1.64 4.98 3 6 C-3.431 11.409 -9.884 16.52 -17 21 C-17 20.01 -17 19.02 -17 18 C-16.34 17.67 -15.68 17.34 -15 17 C-15.66 17 -16.32 17 -17 17 C-17 16.34 -17 15.68 -17 15 C-17.66 15 -18.32 15 -19 15 C-18.67 13.68 -18.34 12.36 -18 11 C-16.68 11.66 -15.36 12.32 -14 13 C-14.66 11.68 -15.32 10.36 -16 9 C-14.35 8.01 -12.7 7.02 -11 6 C-10.01 6.66 -9.02 7.32 -8 8 C-8.227 7.237 -8.454 6.474 -8.688 5.688 C-9 3 -9 3 -7.938 1.188 C-5.244 -0.463 -3.094 -0.206 0 0 Z " fill="#E04514" transform="translate(72,116)"/>
<path d="M0 0 C0.99 0 1.98 0 3 0 C3.33 1.32 3.66 2.64 4 4 C5.32 4.33 6.64 4.66 8 5 C8 5.66 8 6.32 8 7 C7.01 7 6.02 7 5 7 C5 8.65 5 10.3 5 12 C4.01 12.33 3.02 12.66 2 13 C2 11.68 2 10.36 2 9 C0.063 9.375 0.063 9.375 -2 10 C-2.33 10.66 -2.66 11.32 -3 12 C-1.68 12.33 -0.36 12.66 1 13 C1.33 14.32 1.66 15.64 2 17 C1.01 17 0.02 17 -1 17 C-1 18.32 -1 19.64 -1 21 C-3.31 21.33 -5.62 21.66 -8 22 C-8.592 15.335 -6.483 10.13 -4 4 C-3.34 4 -2.68 4 -2 4 C-1.34 2.68 -0.68 1.36 0 0 Z " fill="#FA7336" transform="translate(42,115)"/>
<path d="M0 0 C0.33 0.99 0.66 1.98 1 3 C3.062 3.688 3.062 3.688 5 4 C5.33 3.01 5.66 2.02 6 1 C6.33 2.32 6.66 3.64 7 5 C7.825 5.165 7.825 5.165 12 6 C11.812 7.875 11.812 7.875 11 10 C8.438 11.25 8.438 11.25 6 12 C6 12.66 6 13.32 6 14 C4.68 13.67 3.36 13.34 2 13 C2.33 11.68 2.66 10.36 3 9 C3.66 9 4.32 9 5 9 C5 8.34 5 7.68 5 7 C3.207 7.282 1.415 7.576 -0.375 7.875 C-0.874 7.956 -0.874 7.956 -3.398 8.367 C-6 9 -6 9 -8 11 C-10.549 11.624 -13.047 12.159 -15.625 12.625 C-16.331 12.759 -17.038 12.893 -17.766 13.031 C-19.509 13.361 -21.254 13.681 -23 14 C-20.32 11.179 -18.811 9.789 -15 9 C-14.67 8.34 -14.34 7.68 -14 7 C-12.02 7 -10.04 7 -8 7 C-7.34 5.35 -6.68 3.7 -6 2 C-5.67 2.99 -5.34 3.98 -5 5 C-2.938 5.688 -2.938 5.688 -1 6 C-1.021 5.196 -1.041 4.391 -1.062 3.562 C-1 1 -1 1 0 0 Z " fill="#EA4711" transform="translate(125,67)"/>
<path d="M0 0 C3.63 0 7.26 0 11 0 C10.67 0.165 10.67 0.165 9 1 C9 1.66 9 2.32 9 3 C10.65 2.67 12.3 2.34 14 2 C11.75 4.5 11.75 4.5 9 7 C7.68 7 6.36 7 5 7 C5 7.99 5 8.98 5 10 C5.66 10 6.32 10 7 10 C7 10.66 7 11.32 7 12 C6.34 12 5.68 12 5 12 C4.67 13.32 4.34 14.64 4 16 C4 15.34 4 14.68 4 14 C1.69 14.33 -0.62 14.66 -3 15 C-3 14.34 -3 13.68 -3 13 C-3.66 12.67 -4.32 12.34 -5 12 C-4.34 10.35 -3.68 8.7 -3 7 C-2.34 7 -1.68 7 -1 7 C-1 5.68 -1 4.36 -1 3 C-0.01 3 0.98 3 2 3 C2 2.34 2 1.68 2 1 C1.34 0.67 0.68 0.34 0 0 Z " fill="#FB7133" transform="translate(39,62)"/>
<path d="M0 0 C0.928 0.289 1.856 0.578 2.812 0.875 C3.142 1.535 3.472 2.195 3.812 2.875 C2.678 2.854 1.544 2.834 0.375 2.812 C-3.188 2.875 -3.188 2.875 -4.188 3.875 C-4.562 7.188 -4.562 7.188 -4.188 10.875 C-1.688 13.312 -1.688 13.312 0.812 14.875 C-0.508 15.205 -1.828 15.535 -3.188 15.875 C-3.188 16.865 -3.188 17.855 -3.188 18.875 C-6.188 20.875 -6.188 20.875 -8.688 20.625 C-11.188 19.875 -11.188 19.875 -14.188 17.875 C-14.517 19.195 -14.847 20.515 -15.188 21.875 C-15.188 20.885 -15.188 19.895 -15.188 18.875 C-15.847 18.875 -16.508 18.875 -17.188 18.875 C-17.188 19.865 -17.188 20.855 -17.188 21.875 C-17.847 21.875 -18.508 21.875 -19.188 21.875 C-19.188 20.555 -19.188 19.235 -19.188 17.875 C-18.197 17.875 -17.208 17.875 -16.188 17.875 C-15.858 16.885 -15.528 15.895 -15.188 14.875 C-14.218 14.297 -13.249 13.72 -12.25 13.125 C-8.422 10.313 -8.313 8.375 -7.188 3.875 C-4.85 0.536 -4.128 -0.162 0 0 Z " fill="#F16129" transform="translate(62.1875,73.125)"/>
<path d="M0 0 C0.99 0.33 1.98 0.66 3 1 C3 1.99 3 2.98 3 4 C3.66 4.33 4.32 4.66 5 5 C4.67 5.99 4.34 6.98 4 8 C4.846 7.938 5.691 7.876 6.562 7.812 C10.736 8.04 13.254 9.202 17 11 C17 11.66 17 12.32 17 13 C16.01 13.66 15.02 14.32 14 15 C14 16.32 14 17.64 14 19 C14.66 19 15.32 19 16 19 C16 19.66 16 20.32 16 21 C13.563 20.25 13.563 20.25 11 19 C10.125 16.847 10 15.31 10 13 C9.34 13 8.68 13 8 13 C7.67 14.32 7.34 15.64 7 17 C6.752 16.361 6.505 15.721 6.25 15.062 C5 13 5 13 2.875 12.25 C2.256 12.168 1.637 12.085 1 12 C1.66 11.67 2.32 11.34 3 11 C3 10.34 3 9.68 3 9 C1.68 9.33 0.36 9.66 -1 10 C-2.188 7.812 -2.188 7.812 -3 5 C-1.625 2.188 -1.625 2.188 0 0 Z " fill="#F4551C" transform="translate(19,67)"/>
<path d="M0 0 C0.99 0 1.98 0 3 0 C2.74 1.953 2.479 3.906 2.219 5.859 C2 8 2 8 2 12 C2 14 2 16 2 18 C1.01 18 0.02 18 -1 18 C-1 16.68 -1 15.36 -1 14 C-1.66 14 -2.32 14 -3 14 C-3 14.66 -3 15.32 -3 16 C-4.65 15.67 -6.3 15.34 -8 15 C-8.66 16.32 -9.32 17.64 -10 19 C-10.99 19 -11.98 19 -13 19 C-12.01 15.04 -11.02 11.08 -10 7 C-8.68 7.33 -7.36 7.66 -6 8 C-7 11 -7 11 -9 13 C-8.01 13 -7.02 13 -6 13 C-5.67 11.02 -5.34 9.04 -5 7 C-5.66 7 -6.32 7 -7 7 C-7 6.34 -7 5.68 -7 5 C-4.831 5.506 -3 6 -1 7 C-0.67 4.69 -0.34 2.38 0 0 Z " fill="#FC7C3D" transform="translate(74,32)"/>
<path d="M0 0 C3.014 2.508 3.862 4.984 5 8.688 C6.156 12.376 7.355 15.983 8.812 19.562 C10 23 10 23 9 26 C8 25 7 24 6 23 C5.34 23 4.68 23 4 23 C4 23.66 4 24.32 4 25 C3.01 24.67 2.02 24.34 1 24 C1.66 24 2.32 24 3 24 C2.34 23.01 1.68 22.02 1 21 C0.959 18.667 0.958 16.333 1 14 C0.67 13.34 0.34 12.68 0 12 C-0.071 9.959 -0.084 7.917 -0.062 5.875 C-0.053 4.779 -0.044 3.684 -0.035 2.555 C-0.024 1.712 -0.012 0.869 0 0 Z " fill="#EE5623" transform="translate(84,25)"/>
<path d="M0 0 C2.438 0.812 2.438 0.812 4.438 2.812 C4.914 6.468 4.871 8.187 2.75 11.25 C0.438 12.812 0.438 12.812 -2.25 12.688 C-4.562 11.812 -4.562 11.812 -5.562 9.812 C-6.016 3.576 -6.016 3.576 -4.375 0.812 C-2.562 -0.188 -2.562 -0.188 0 0 Z " fill="#3E3D3B" transform="translate(89.5625,74.1875)"/>
<path d="M0 0 C1.98 0 3.96 0 6 0 C6 2.31 6 4.62 6 7 C4.68 7 3.36 7 2 7 C1.67 7.66 1.34 8.32 1 9 C1.66 9 2.32 9 3 9 C3.33 9.66 3.66 10.32 4 11 C5.98 10.34 7.96 9.68 10 9 C9.75 11.375 9.75 11.375 9 14 C6.938 15.312 6.938 15.312 5 16 C-0.875 11.25 -0.875 11.25 -2 9 C-2.99 8.67 -3.98 8.34 -5 8 C-5.688 5.938 -5.688 5.938 -6 4 C-5.01 3.67 -4.02 3.34 -3 3 C-3 3.66 -3 4.32 -3 5 C-1.68 4.67 -0.36 4.34 1 4 C0.67 2.68 0.34 1.36 0 0 Z " fill="#F04A14" transform="translate(98,107)"/>
<path d="M0 0 C0 1.65 0 3.3 0 5 C0.99 4.67 1.98 4.34 3 4 C3.66 4.66 4.32 5.32 5 6 C4.67 6.99 4.34 7.98 4 9 C3.34 9 2.68 9 2 9 C2 10.98 2 12.96 2 15 C0.68 14.67 -0.64 14.34 -2 14 C-2.33 12.68 -2.66 11.36 -3 10 C-6 11 -6 11 -7.188 13.062 C-7.322 13.382 -7.322 13.382 -8 15 C-9.131 11.607 -8.864 10.777 -7.75 7.5 C-7.497 6.727 -7.245 5.953 -6.984 5.156 C-5.297 1.46 -4.154 0 0 0 Z " fill="#F85C1E" transform="translate(48,105)"/>
<path d="M0 0 C0 0.33 0 0.66 0 1 C-3.3 1 -6.6 1 -10 1 C-9.67 1.99 -9.34 2.98 -9 4 C-9.33 4.66 -9.66 5.32 -10 6 C-10.66 6 -11.32 6 -12 6 C-12.33 6.99 -12.66 7.98 -13 9 C-13.99 8.67 -14.98 8.34 -16 8 C-16.33 7.01 -16.66 6.02 -17 5 C-17.66 4.67 -18.32 4.34 -19 4 C-19.082 4.619 -19.165 5.237 -19.25 5.875 C-20 8 -20 8 -22.062 9.25 C-22.702 9.498 -23.341 9.745 -24 10 C-23.759 6.463 -23.381 4.47 -21.125 1.688 C-14.639 -1.815 -7.077 -1.415 0 0 Z " fill="#F06433" transform="translate(38,63)"/>
<path d="M0 0 C2.562 0.25 2.562 0.25 5.562 2.25 C6 5.188 6 5.188 5.562 8.25 C3.875 10.188 3.875 10.188 1.562 11.25 C-2.848 10.84 -2.848 10.84 -4.438 9.25 C-4.625 5.812 -4.625 5.812 -4.438 2.25 C-2.438 0.25 -2.438 0.25 0 0 Z " fill="#100D07" transform="translate(61.4375,74.75)"/>
<path d="M0 0 C2.125 0.938 2.125 0.938 4 2 C4 1.34 4 0.68 4 0 C4.66 0 5.32 0 6 0 C6 0.99 6 1.98 6 3 C6.99 3.165 6.99 3.165 12 4 C12 4.66 12 5.32 12 6 C13.155 5.835 13.155 5.835 19 5 C19.33 5.66 19.66 6.32 20 7 C22.562 7.625 22.562 7.625 25 8 C25 8.99 25 9.98 25 11 C18.871 10.194 12.448 8.737 6.898 5.941 C4.34 4.673 1.812 4.383 -1 4 C-1.33 3.01 -1.66 2.02 -2 1 C-1.34 0.67 -0.68 0.34 0 0 Z " fill="#EE4D13" transform="translate(24,71)"/>
<path d="M0 0 C0.33 0.33 0.66 0.66 1 1 C2.347 1.231 3.704 1.412 5.062 1.562 C6.362 1.707 7.661 1.851 9 2 C5.128 4.581 2.702 3.737 -1.625 3 C-7.096 2.186 -11.519 1.806 -16.895 3.418 C-20.835 4.507 -24.936 4.678 -29 5 C-29.33 4.34 -29.66 3.68 -30 3 C-19.734 -0.103 -10.659 -1.692 0 0 Z " fill="#F5E6D7" transform="translate(88,139)"/>
<path d="M0 0 C0.66 0 1.32 0 2 0 C2 1.32 2 2.64 2 4 C2.99 4.33 3.98 4.66 5 5 C5 7.31 5 9.62 5 12 C3.68 12 2.36 12 1 12 C0.34 13.32 -0.32 14.64 -1 16 C-1 12.37 -1 8.74 -1 5 C-5.277 5 -6.559 5.706 -10 8 C-10 7.01 -10 6.02 -10 5 C-9.361 4.711 -8.721 4.422 -8.062 4.125 C-6 3 -6 3 -5 1 C-3.35 1.33 -1.7 1.66 0 2 C0 1.34 0 0.68 0 0 Z " fill="#F75A21" transform="translate(71,46)"/>
<path d="M0 0 C0.69 0.433 1.379 0.866 2.09 1.312 C8.007 4.819 13.014 7.514 20 6 C20.99 5.34 21.98 4.68 23 4 C22.67 5.32 22.34 6.64 22 8 C17.854 8.029 13.708 8.047 9.562 8.062 C8.378 8.071 7.194 8.079 5.975 8.088 C4.85 8.091 3.725 8.094 2.566 8.098 C2.045 8.1 2.045 8.1 -0.592 8.114 C-3 8 -3 8 -4 7 C-5.347 6.769 -6.704 6.588 -8.062 6.438 C-9.362 6.293 -10.661 6.149 -12 6 C-12 5.67 -12 5.34 -12 5 C-10.583 4.973 -9.167 4.953 -7.75 4.938 C-7.356 4.932 -7.356 4.932 -5.359 4.902 C-3.093 4.996 -1.171 5.368 1 6 C1 5.34 1 4.68 1 4 C0.34 3.67 -0.32 3.34 -1 3 C-0.67 2.01 -0.34 1.02 0 0 Z " fill="#EAD1BF" transform="translate(101,135)"/>
<path d="M0 0 C0.66 1.32 1.32 2.64 2 4 C1.34 4 0.68 4 0 4 C0 4.66 0 5.32 0 6 C-0.33 6.165 -0.33 6.165 -2 7 C-2 9.31 -2 11.62 -2 14 C-1.01 13.67 -0.02 13.34 1 13 C0.438 14.938 0.438 14.938 -1 17 C-4.859 17.912 -7.216 18.261 -11 17 C-10.67 16.01 -10.34 15.02 -10 14 C-10 14.66 -10 15.32 -10 16 C-9.01 16 -8.02 16 -7 16 C-6.618 14.344 -6.286 12.675 -6 11 C-6.33 10.67 -6.66 10.34 -7 10 C-7 9.01 -7 8.02 -7 7 C-6.01 7 -5.02 7 -4 7 C-4 6.34 -4 5.68 -4 5 C-3.34 4.67 -2.68 4.34 -2 4 C-2 3.34 -2 2.68 -2 2 C-1.34 2 -0.68 2 0 2 C0 1.34 0 0.68 0 0 Z " fill="#F45B21" transform="translate(122,123)"/>
<path d="M0 0 C-1.75 5.75 -1.75 5.75 -4 8 C-4 7.34 -4 6.68 -4 6 C-11.385 6.492 -11.385 6.492 -14.5 9.062 C-14.995 9.702 -15.49 10.341 -16 11 C-17.98 8.36 -19.96 5.72 -22 3 C-21.67 2.34 -21.34 1.68 -21 1 C-20.505 1.33 -20.505 1.33 -18 3 C-10.885 3.848 -5.971 0 0 0 Z " fill="#94240F" transform="translate(86,91)"/>
<path d="M0 0 C0.99 0.33 1.98 0.66 3 1 C1.586 3.064 0.169 5.126 -1.25 7.188 C-1.646 7.766 -2.041 8.344 -2.449 8.939 C-4.836 12.402 -7.216 15.841 -10 19 C-10.66 19 -11.32 19 -12 19 C-12.33 19.66 -12.66 20.32 -13 21 C-12.34 18.03 -11.68 15.06 -11 12 C-9.68 12 -8.36 12 -7 12 C-7.186 11.381 -7.371 10.763 -7.562 10.125 C-8 8 -8 8 -7 6 C-5.35 6 -3.7 6 -2 6 C-1.34 4.02 -0.68 2.04 0 0 Z " fill="#E2410F" transform="translate(61,106)"/>
<path d="M0 0 C0.33 1.32 0.66 2.64 1 4 C0.01 4 -0.98 4 -2 4 C-2 5.32 -2 6.64 -2 8 C-4.31 8.33 -6.62 8.66 -9 9 C-9.312 5.688 -9.312 5.688 -9 2 C-5.922 -0.736 -3.875 -1.579 0 0 Z " fill="#F7763B" transform="translate(43,128)"/>
<path d="M0 0 C3.469 0.458 6.674 0.891 10 2 C10 2.66 10 3.32 10 4 C9.01 4.66 8.02 5.32 7 6 C7 7.32 7 8.64 7 10 C7.66 10 8.32 10 9 10 C9 10.66 9 11.32 9 12 C6.562 11.25 6.562 11.25 4 10 C3.125 7.847 3 6.31 3 4 C2.34 4 1.68 4 1 4 C0.67 5.32 0.34 6.64 0 8 C-1.125 6.25 -1.125 6.25 -2 4 C-1.125 1.75 -1.125 1.75 0 0 Z " fill="#F56029" transform="translate(26,76)"/>
<path d="M0 0 C3.562 0.5 3.562 0.5 6 2.125 C8.06 5.257 8.239 6.815 7.562 10.5 C5.5 13.438 5.5 13.438 2.562 15.5 C-1.125 15.5 -1.125 15.5 -4.438 14.5 C-6.911 10.79 -6.823 8.889 -6.438 4.5 C-4.846 0.848 -3.98 0.579 0 0 Z M-3.188 2.562 C-5.134 5.58 -4.812 8.004 -4.438 11.5 C-3.25 13.5 -3.25 13.5 -1.438 14.5 C1.125 14.375 1.125 14.375 3.562 13.5 C5.875 10.031 5.987 8.578 5.562 4.5 C4.312 2.625 4.312 2.625 2.562 1.5 C-1.438 1.5 -1.438 1.5 -3.188 2.562 Z " fill="#E9DBCF" transform="translate(88.4375,72.5)"/>
<path d="M0 0 C0.66 0.165 0.66 0.165 4 1 C4.124 1.969 4.248 2.939 4.375 3.938 C4.581 4.948 4.787 5.959 5 7 C5.66 7.33 6.32 7.66 7 8 C6.67 9.65 6.34 11.3 6 13 C5.67 12.34 5.34 11.68 5 11 C3.02 11.33 1.04 11.66 -1 12 C-0.74 10.047 -0.479 8.094 -0.219 6.141 C0 4 0 4 0 0 Z " fill="#F0541F" transform="translate(93,115)"/>
<path d="M0 0 C0.99 0.33 1.98 0.66 3 1 C3 1.66 3 2.32 3 3 C3.66 3.33 4.32 3.66 5 4 C3.68 4.66 3.68 4.66 -3 8 C-1.02 7.67 0.96 7.34 3 7 C0.749 9.353 -0.709 10.873 -4.059 11.203 C-4.844 11.219 -5.629 11.234 -6.438 11.25 C-7.22 11.276 -8.002 11.302 -8.809 11.328 C-11.479 10.928 -12.32 10.053 -14 8 C-13.67 7.01 -13.34 6.02 -13 5 C-12.701 5.32 -12.701 5.32 -11.188 6.938 C-9 9 -9 9 -6 10 C-6.33 9.01 -6.66 8.02 -7 7 C-4.861 4.861 -3.867 4.573 -1 4 C-0.67 2.68 -0.34 1.36 0 0 Z " fill="#DE4415" transform="translate(49,131)"/>
<path d="M0 0 C0.66 1.65 1.32 3.3 2 5 C2.99 4.67 3.98 4.34 5 4 C5 5.32 5 6.64 5 8 C5.562 8.255 6.124 8.51 6.703 8.773 C9.294 10.157 11.451 11.799 13.75 13.625 C14.549 14.257 15.348 14.888 16.172 15.539 C16.775 16.021 17.378 16.503 18 17 C13.274 17 10.137 13.555 6.533 10.73 C2.119 7.416 -1.572 6.041 -7 5 C-3.667 0 -3.667 0 0 0 Z " fill="#D74C22" transform="translate(83,116)"/>
<path d="M0 0 C3.3 0 6.6 0 10 0 C10.33 0.66 10.66 1.32 11 2 C10.67 2.99 10.34 3.98 10 5 C9.34 5 8.68 5 8 5 C7.67 4.67 7.34 4.34 7 4 C7 4.66 7 5.32 7 6 C4.69 6.33 2.38 6.66 0 7 C-0.124 6.361 -0.248 5.721 -0.375 5.062 C-0.478 4.722 -0.478 4.722 -1 3 C-1.66 2.67 -2.32 2.34 -3 2 C-2.01 2 -1.02 2 0 2 C0 1.34 0 0.68 0 0 Z " fill="#F9692D" transform="translate(133,61)"/>
<path d="M0 0 C0.66 0.33 1.32 0.66 2 1 C2 2.65 2 4.3 2 6 C1.34 6 0.68 6 0 6 C0.33 6.99 0.66 7.98 1 9 C0.01 9 -0.98 9 -2 9 C-2 9.66 -2 10.32 -2 11 C-2.99 11 -3.98 11 -5 11 C-5 10.01 -5 9.02 -5 8 C-5.66 8 -6.32 8 -7 8 C-7 7.34 -7 6.68 -7 6 C-6.01 6 -5.02 6 -4 6 C-4 4.35 -4 2.7 -4 1 C-2.68 1.33 -1.36 1.66 0 2 C0 1.34 0 0.68 0 0 Z " fill="#EF501B" transform="translate(120,119)"/>
<path d="M0 0 C0.66 0.99 1.32 1.98 2 3 C1.103 6.066 0.27 7.73 -2 10 C-2 10.66 -2 11.32 -2 12 C-4.375 11.688 -4.375 11.688 -7 11 C-7.66 10.01 -8.32 9.02 -9 8 C-7.35 7.67 -5.7 7.34 -4 7 C-4 5.68 -4 4.36 -4 3 C-3.01 3 -2.02 3 -1 3 C-0.67 2.01 -0.34 1.02 0 0 Z " fill="#EF4C13" transform="translate(45,129)"/>
<path d="M0 0 C0.66 0 1.32 0 2 0 C2 0.66 2 1.32 2 2 C1.34 2 0.68 2 0 2 C-0.33 4.64 -0.66 7.28 -1 10 C-2.32 10 -3.64 10 -5 10 C-5 11.98 -5 13.96 -5 16 C-6.32 16 -7.64 16 -9 16 C-9 14.68 -9 13.36 -9 12 C-8.34 12 -7.68 12 -7 12 C-6.928 11.691 -6.928 11.691 -6.562 10.125 C-6 8 -6 8 -5 6 C-4.34 6 -3.68 6 -3 6 C-3 5.01 -3 4.02 -3 3 C-2.34 3 -1.68 3 -1 3 C-0.67 2.01 -0.34 1.02 0 0 Z " fill="#F97635" transform="translate(59,102)"/>
<path d="M0 0 C3.947 -0.179 6.598 -0.094 10 2 C10 4.31 10 6.62 10 9 C9.34 8.01 8.68 7.02 8 6 C7.34 6.33 7.34 6.33 4 8 C0 2.25 0 2.25 0 0 Z " fill="#DB4114" transform="translate(104,94)"/>
<path d="M0 0 C0.144 0.763 0.289 1.526 0.438 2.312 C1 5 1 5 2 8 C-1 8 -1 8 -3 7 C-3 6.34 -3 5.68 -3 5 C-4.65 4.67 -6.3 4.34 -8 4 C-8.33 3.01 -8.66 2.02 -9 1 C-3.375 -1.125 -3.375 -1.125 0 0 Z " fill="#F3571E" transform="translate(140,68)"/>
<path d="M0 0 C0.66 0.66 1.32 1.32 2 2 C1.457 2.317 0.915 2.634 0.355 2.961 C-5.197 6.582 -7.106 9.587 -8.625 16.023 C-8.687 16.35 -8.687 16.35 -9 18 C-11 15 -11 15 -11.062 11.688 C-9.346 5.731 -4.982 3.321 0 0 Z " fill="#F7DDC8" transform="translate(125,87)"/>
<path d="M0 0 C3.63 0 7.26 0 11 0 C10.67 0.165 10.67 0.165 9 1 C9 1.66 9 2.32 9 3 C10.65 2.67 12.3 2.34 14 2 C12.35 3.65 10.7 5.3 9 7 C8.34 6.67 7.68 6.34 7 6 C7.33 5.67 7.66 5.34 8 5 C5.69 5 3.38 5 1 5 C1.33 3.68 1.66 2.36 2 1 C1.34 0.67 0.68 0.34 0 0 Z " fill="#F5622D" transform="translate(39,62)"/>
<path d="M0 0 C1 2 2 4 3 6 C4.32 6 5.64 6 7 6 C6.67 6.99 6.34 7.98 6 9 C6.99 9.33 7.98 9.66 9 10 C9.33 10.495 9.33 10.495 11 13 C11.33 12.01 11.66 11.02 12 10 C12.66 10 13.32 10 14 10 C14.33 11.32 14.66 12.64 15 14 C14.01 14.66 13.02 15.32 12 16 C10.557 14.923 9.121 13.838 7.688 12.75 C6.887 12.147 6.086 11.543 5.262 10.922 C3.088 9.074 1.516 7.41 0 5 C-0.188 2.25 -0.188 2.25 0 0 Z " fill="#DC4D25" transform="translate(15,70)"/>
<path d="M0 0 C1.32 0.33 2.64 0.66 4 1 C3.67 2.32 3.34 3.64 3 5 C3.99 5.33 4.98 5.66 6 6 C6 6.99 6 7.98 6 9 C5.34 9 4.68 9 4 9 C3.67 8.34 3.34 7.68 3 7 C2.01 7.33 1.02 7.66 0 8 C-0.33 7.01 -0.66 6.02 -1 5 C-1.99 6.98 -2.98 8.96 -4 11 C-4.66 11 -5.32 11 -6 11 C-4.742 6.492 -3.096 3.509 0 0 Z " fill="#FA7B41" transform="translate(75,21)"/>
<path d="M0 0 C0.928 0.289 1.856 0.578 2.812 0.875 C3.142 1.535 3.472 2.195 3.812 2.875 C2.678 2.854 1.544 2.834 0.375 2.812 C-3.188 2.875 -3.188 2.875 -4.188 3.875 C-4.562 7.188 -4.562 7.188 -4.188 10.875 C-1.688 13.312 -1.688 13.312 0.812 14.875 C-1.5 15.125 -1.5 15.125 -4.188 14.875 C-6.922 12.517 -7.175 10.974 -7.625 7.375 C-7.188 3.875 -7.188 3.875 -5.562 1.375 C-3.188 -0.125 -3.188 -0.125 0 0 Z " fill="#DED8D4" transform="translate(62.1875,73.125)"/>
<path d="M0 0 C1.907 2.861 3.004 5.353 4.188 8.562 C4.552 9.533 4.917 10.504 5.293 11.504 C6 14 6 14 5 16 C4.34 16 3.68 16 3 16 C-1.777 5.626 -1.777 5.626 0 0 Z " fill="#EF784B" transform="translate(115,105)"/>
<path d="M0 0 C3.858 3.502 5.719 7.887 6.188 13.078 C6.188 14.72 6.102 16.361 6 18 C2.55 15.334 2.06 12.088 1 8 C0.67 7.67 0.34 7.34 0 7 C-0.041 4.667 -0.042 2.333 0 0 Z " fill="#F2673A" transform="translate(84,25)"/>
<path d="M0 0 C0.66 0.66 1.32 1.32 2 2 C1.505 2.639 1.01 3.279 0.5 3.938 C-1 6 -1 6 -1 7 C-6.666 8.225 -12.237 8.092 -18 8 C-18 7.67 -18 7.34 -18 7 C-17.371 6.914 -16.742 6.827 -16.094 6.738 C-9.735 5.694 -5.194 3.802 0 0 Z " fill="#D7B099" transform="translate(57,135)"/>
<path d="M0 0 C0.33 0.66 0.66 1.32 1 2 C1.99 2 2.98 2 4 2 C4 1.34 4 0.68 4 0 C4.66 0 5.32 0 6 0 C6 2.31 6 4.62 6 7 C3.69 7 1.38 7 -1 7 C-1.043 5 -1.041 3 -1 1 C-0.67 0.67 -0.34 0.34 0 0 Z " fill="#121210" transform="translate(85,76)"/>
<path d="M0 0 C0.825 0.33 0.825 0.33 5 2 C5 2.66 5 3.32 5 4 C5.66 4 6.32 4 7 4 C7.66 6.31 8.32 8.62 9 11 C8.01 11 7.02 11 6 11 C6 10.34 6 9.68 6 9 C5.34 8.67 4.68 8.34 4 8 C4.33 7.34 4.66 6.68 5 6 C4.01 6 3.02 6 2 6 C0.312 4.5 0.312 4.5 -1 3 C-0.67 2.01 -0.34 1.02 0 0 Z " fill="#F97730" transform="translate(90,100)"/>
<path d="M0 0 C1.98 0 3.96 0 6 0 C6 0.99 6 1.98 6 3 C5.34 3 4.68 3 4 3 C4.66 4.98 5.32 6.96 6 9 C4.02 9 2.04 9 0 9 C0 7.68 0 6.36 0 5 C0.66 5 1.32 5 2 5 C2 4.34 2 3.68 2 3 C1.34 3 0.68 3 0 3 C0 2.01 0 1.02 0 0 Z " fill="#FC8649" transform="translate(44,69)"/>
<path d="M0 0 C1.32 0.33 2.64 0.66 4 1 C3 4 3 4 1 6 C1.66 6 2.32 6 3 6 C2.25 8.438 2.25 8.438 1 11 C-0.32 11.33 -1.64 11.66 -3 12 C-2.01 8.04 -1.02 4.08 0 0 Z " fill="#F17143" transform="translate(64,39)"/>
<path d="M0 0 C0.66 0 1.32 0 2 0 C1.794 0.784 1.587 1.567 1.375 2.375 C1.251 3.241 1.127 4.108 1 5 C1.66 5.66 2.32 6.32 3 7 C2.34 7 1.68 7 1 7 C1 7.99 1 8.98 1 10 C1.66 10.33 2.32 10.66 3 11 C2.34 11 1.68 11 1 11 C0.34 13.31 -0.32 15.62 -1 18 C-2.001 14.689 -2.104 11.699 -2.062 8.25 C-2.053 7.265 -2.044 6.28 -2.035 5.266 C-2.024 4.518 -2.012 3.77 -2 3 C-1.34 3 -0.68 3 0 3 C0 2.01 0 1.02 0 0 Z " fill="#E55123" transform="translate(45,92)"/>
<path d="M0 0 C0.99 0.66 1.98 1.32 3 2 C3.188 4.625 3.188 4.625 3 7 C1.344 7.382 -0.325 7.714 -2 8 C-3 7 -3 7 -3.25 4.562 C-3.167 3.717 -3.085 2.871 -3 2 C-2.01 1.34 -1.02 0.68 0 0 Z " fill="#FC794B" transform="translate(54,86)"/>
<path d="M0 0 C1.65 0.33 3.3 0.66 5 1 C5.33 1.99 5.66 2.98 6 4 C3.525 4.495 3.525 4.495 -9 7 C-4.783 2.783 -4.783 2.783 -1 2 C-0.67 1.34 -0.34 0.68 0 0 Z " fill="#EF4A15" transform="translate(111,74)"/>
<path d="M0 0 C-0.688 2.438 -0.688 2.438 -2 5 C-4.625 5.812 -4.625 5.812 -7 6 C-7 5.34 -7 4.68 -7 4 C-7.639 3.876 -8.279 3.752 -8.938 3.625 C-9.618 3.419 -10.299 3.212 -11 3 C-11.33 2.34 -11.66 1.68 -12 1 C-8.019 -0.327 -4.15 -0.069 0 0 Z " fill="#F5551D" transform="translate(111,60)"/>
<path d="M0 0 C1.214 3.642 0.667 4.332 -0.938 7.688 C-1.318 8.496 -1.698 9.304 -2.09 10.137 C-2.39 10.752 -2.691 11.366 -3 12 C-3.99 12 -4.98 12 -6 12 C-5.01 8.7 -4.02 5.4 -3 2 C-2.34 2 -1.68 2 -1 2 C-0.67 1.34 -0.34 0.68 0 0 Z " fill="#EE7245" transform="translate(41,117)"/>
<path d="M0 0 C3.891 1.75 3.891 1.75 4.875 4 C4.896 4.33 4.896 4.33 5 6 C4.34 6.66 3.68 7.32 3 8 C2.01 8 1.02 8 0 8 C-0.66 9.32 -1.32 10.64 -2 12 C-3.16 8.521 -2.775 7.658 -1.562 4.312 C-1.419 3.908 -1.419 3.908 -0.691 1.863 C-0.463 1.248 -0.235 0.634 0 0 Z " fill="#ED5F31" transform="translate(42,108)"/>
<path d="M0 0 C0.99 0 1.98 0 3 0 C4.345 6.359 4.345 6.359 2.688 9.438 C1 11 1 11 -1 11 C-0.34 9.02 0.32 7.04 1 5 C0.01 4.67 -0.98 4.34 -2 4 C-1.34 2.68 -0.68 1.36 0 0 Z " fill="#F25319" transform="translate(108,127)"/>
<path d="M0 0 C0.66 0 1.32 0 2 0 C3.25 6.625 3.25 6.625 1 10 C0.01 9.34 -0.98 8.68 -2 8 C-2.477 4.277 -2.139 3.208 0 0 Z " fill="#E94A14" transform="translate(41,84)"/>
<path d="M0 0 C3.63 1.98 7.26 3.96 11 6 C11 6.33 11 6.66 11 7 C4.375 7.25 4.375 7.25 1 5 C-0.188 2.875 -0.188 2.875 -1 1 C-0.67 0.67 -0.34 0.34 0 0 Z " fill="#E0BBA0" transform="translate(101,135)"/>
<path d="M0 0 C0.66 1.32 1.32 2.64 2 4 C1.34 4 0.68 4 0 4 C0 4.66 0 5.32 0 6 C-0.33 6.165 -0.33 6.165 -2 7 C-2 8.98 -2 10.96 -2 13 C-2.66 13 -3.32 13 -4 13 C-4.33 12.01 -4.66 11.02 -5 10 C-5.66 10 -6.32 10 -7 10 C-7 9.01 -7 8.02 -7 7 C-6.01 7 -5.02 7 -4 7 C-4 6.34 -4 5.68 -4 5 C-3.34 4.67 -2.68 4.34 -2 4 C-2 3.34 -2 2.68 -2 2 C-1.34 2 -0.68 2 0 2 C0 1.34 0 0.68 0 0 Z " fill="#F36E37" transform="translate(122,123)"/>
<path d="M0 0 C-3.424 3.827 -6.007 5.723 -11 7 C-11 6.01 -11 5.02 -11 4 C-10.34 4 -9.68 4 -9 4 C-9 3.34 -9 2.68 -9 2 C-3.375 -1.125 -3.375 -1.125 0 0 Z " fill="#E15827" transform="translate(73,123)"/>
<path d="M0 0 C0.382 0.113 0.382 0.113 2.312 0.688 C1.983 1.347 1.652 2.007 1.312 2.688 C0.322 2.688 -0.668 2.688 -1.688 2.688 C-1.77 3.306 -1.852 3.925 -1.938 4.562 C-2.688 6.688 -2.688 6.688 -4.75 7.938 C-5.389 8.185 -6.029 8.433 -6.688 8.688 C-6.09 3.312 -6.09 3.312 -4.438 0.75 C-2.688 -0.312 -2.688 -0.312 0 0 Z " fill="#F27949" transform="translate(20.6875,64.3125)"/>
<path d="M0 0 C0.66 0.33 1.32 0.66 2 1 C0.888 4.336 0.537 4.584 -2.375 6.188 C-2.981 6.532 -3.587 6.876 -4.211 7.23 C-6 8 -6 8 -9 8 C-7.839 4.518 -7.091 4.112 -4.062 2.25 C-3.352 1.801 -2.642 1.353 -1.91 0.891 C-1.28 0.597 -0.649 0.303 0 0 Z " fill="#E75B2C" transform="translate(126,83)"/>
<path d="M0 0 C0.825 0.33 0.825 0.33 5 2 C4.01 3.32 3.02 4.64 2 6 C2.66 6.33 3.32 6.66 4 7 C2.625 8.5 2.625 8.5 1 10 C0.34 10 -0.32 10 -1 10 C-1.125 2.25 -1.125 2.25 0 0 Z " fill="#DC4418" transform="translate(116,84)"/>
<path d="M0 0 C-0.327 0.562 -0.655 1.124 -0.992 1.703 C-2.118 4.269 -2.207 5.968 -2.125 8.75 C-2.107 9.549 -2.089 10.348 -2.07 11.172 C-2.047 11.775 -2.024 12.378 -2 13 C-1.34 13 -0.68 13 0 13 C-0.33 13.66 -0.66 14.32 -1 15 C-4.104 12.575 -4.939 11.485 -5.438 7.5 C-4.979 3.829 -4.327 0 0 0 Z " fill="#D2C4BD" transform="translate(87,73)"/>
<path d="M0 0 C2.007 0.287 4.009 0.619 6 1 C6 1.99 6 2.98 6 4 C4.68 4 3.36 4 2 4 C2 4.99 2 5.98 2 7 C1.01 7 0.02 7 -1 7 C-1.043 5 -1.041 3 -1 1 C-0.67 0.67 -0.34 0.34 0 0 Z " fill="#A23E1C" transform="translate(57,61)"/>
<path d="M0 0 C1.65 0.33 3.3 0.66 5 1 C4.003 3.493 3.349 4.775 1.062 6.25 C-1 7 -1 7 -4 7 C-2.796 4.506 -1.546 2.319 0 0 Z " fill="#F86F33" transform="translate(109,117)"/>
<path d="M0 0 C0.99 0.33 1.98 0.66 3 1 C2.175 2.32 2.175 2.32 -2 9 C-3.32 8.67 -4.64 8.34 -6 8 C-6.33 9.32 -6.66 10.64 -7 12 C-8.125 8.25 -8.125 8.25 -7 6 C-5.35 6 -3.7 6 -2 6 C-1.34 4.02 -0.68 2.04 0 0 Z " fill="#EE4C13" transform="translate(61,106)"/>
<path d="M0 0 C3.125 0.375 3.125 0.375 6 1 C5.67 1.99 5.34 2.98 5 4 C4.34 4 3.68 4 3 4 C2.67 4.99 2.34 5.98 2 7 C1.01 6.67 0.02 6.34 -1 6 C-1.812 4.062 -1.812 4.062 -2 2 C-1.34 1.34 -0.68 0.68 0 0 Z " fill="#F8692D" transform="translate(23,65)"/>
<path d="M0 0 C0.66 1.32 1.32 2.64 2 4 C1 5 1 5 -1.938 5.25 C-2.948 5.168 -3.959 5.085 -5 5 C-5.66 4.01 -6.32 3.02 -7 2 C-4 0 -4 0 0 0 Z " fill="#F97737" transform="translate(77,60)"/>
<path d="M0 0 C-0.784 0.619 -1.567 1.237 -2.375 1.875 C-5 4 -5 4 -7 6 C-8 7 -9 8 -10 9 C-10 6.69 -10 4.38 -10 2 C-8.712 1.47 -7.42 0.951 -6.125 0.438 C-5.406 0.147 -4.686 -0.143 -3.945 -0.441 C-2 -1 -2 -1 0 0 Z " fill="#F76E3B" transform="translate(95,87)"/>
<path d="M0 0 C0.33 0.99 0.66 1.98 1 3 C-2.75 6 -2.75 6 -5 6 C-5 6.66 -5 7.32 -5 8 C-6.32 7.67 -7.64 7.34 -9 7 C-8.67 6.01 -8.34 5.02 -8 4 C-7.01 4.33 -6.02 4.66 -5 5 C-5 4.34 -5 3.68 -5 3 C-4.01 3 -3.02 3 -2 3 C-2 2.34 -2 1.68 -2 1 C-1.34 0.67 -0.68 0.34 0 0 Z " fill="#E24012" transform="translate(136,73)"/>
<path d="M0 0 C0.825 0.33 0.825 0.33 5 2 C3.35 3.65 1.7 5.3 0 7 C-1.32 6.01 -2.64 5.02 -4 4 C-3.34 4 -2.68 4 -2 4 C-2 3.34 -2 2.68 -2 2 C-1.34 2 -0.68 2 0 2 C0 1.34 0 0.68 0 0 Z " fill="#E74A1B" transform="translate(122,80)"/>
<path d="M0 0 C2.31 0.33 4.62 0.66 7 1 C6.67 2.65 6.34 4.3 6 6 C3.562 5.25 3.562 5.25 1 4 C0.188 1.875 0.188 1.875 0 0 Z " fill="#E44615" transform="translate(32,82)"/>
<path d="M0 0 C0.66 0 1.32 0 2 0 C2 2.31 2 4.62 2 7 C1.34 7 0.68 7 0 7 C-0.66 7.66 -1.32 8.32 -2 9 C-2.33 7.02 -2.66 5.04 -3 3 C-2.01 2.67 -1.02 2.34 0 2 C0 1.34 0 0.68 0 0 Z " fill="#F5571F" transform="translate(122,127)"/>
<path d="M0 0 C1.945 -0.293 1.945 -0.293 4.125 -0.188 C5.404 -0.126 6.683 -0.064 8 0 C8.33 0.99 8.66 1.98 9 3 C8.67 3.66 8.34 4.32 8 5 C7.34 4.67 6.68 4.34 6 4 C6.33 3.34 6.66 2.68 7 2 C5.515 2.165 5.515 2.165 -2 3 C-1.34 2.01 -0.68 1.02 0 0 Z " fill="#D93F26" transform="translate(74,97)"/>
<path d="M0 0 C2.97 0 5.94 0 9 0 C8.67 0.99 8.34 1.98 8 3 C5.688 3.688 5.688 3.688 3 4 C1.188 2.625 1.188 2.625 0 1 C0 0.67 0 0.34 0 0 Z " fill="#583B26" transform="translate(84,83)"/>
<path d="M0 0 C0.66 0 1.32 0 2 0 C2 0.99 2 1.98 2 3 C2.66 3.33 3.32 3.66 4 4 C3.67 4.165 3.67 4.165 2 5 C1.278 6.644 0.606 8.311 0 10 C-1.32 9.67 -2.64 9.34 -4 9 C-4 8.01 -4 7.02 -4 6 C-2.68 6 -1.36 6 0 6 C0 4.02 0 2.04 0 0 Z " fill="#FB8444" transform="translate(34,65)"/>
<path d="M0 0 C1.32 0 2.64 0 4 0 C5.607 3.215 5.057 6.436 5 10 C4.34 10 3.68 10 3 10 C3 7.69 3 5.38 3 3 C2.01 3 1.02 3 0 3 C0 2.01 0 1.02 0 0 Z " fill="#F54B0F" transform="translate(74,29)"/>
<path d="M0 0 C0.66 0.165 0.66 0.165 4 1 C3.67 2.65 3.34 4.3 3 6 C1.68 6.33 0.36 6.66 -1 7 C-0.67 4.69 -0.34 2.38 0 0 Z " fill="#FB6934" transform="translate(97,87)"/>
<path d="M0 0 C0.33 0 0.66 0 1 0 C1.25 2.812 1.25 2.812 1 6 C-0.688 7.938 -0.688 7.938 -3 9 C-5.688 8.812 -5.688 8.812 -8 8 C-8.33 7.34 -8.66 6.68 -9 6 C-8.051 6.041 -7.102 6.082 -6.125 6.125 C-3 6 -3 6 -1 4 C-0.375 1.875 -0.375 1.875 0 0 Z " fill="#3E2110" transform="translate(66,77)"/>
<path d="M0 0 C0.33 0 0.66 0 1 0 C1.492 6.4 1.492 6.4 -1 9.438 C-1.33 9.695 -1.33 9.695 -3 11 C-3.66 9.35 -4.32 7.7 -5 6 C-4.34 5.34 -3.68 4.68 -3 4 C-2.34 4.66 -1.68 5.32 -1 6 C-0.67 4.02 -0.34 2.04 0 0 Z " fill="#DF461F" transform="translate(144,64)"/>
<path d="M0 0 C-3.3 2.64 -6.6 5.28 -10 8 C-10.33 7.01 -10.66 6.02 -11 5 C-10.361 4.732 -9.721 4.464 -9.062 4.188 C-7 3 -7 3 -6 0 C-3.425 -0.997 -2.511 -1.255 0 0 Z " fill="#D34B1F" transform="translate(66,129)"/>
<path d="M0 0 C0.99 0 1.98 0 3 0 C3 0.66 3 1.32 3 2 C3.66 2 4.32 2 5 2 C4.67 3.32 4.34 4.64 4 6 C3.01 5.67 2.02 5.34 1 5 C1 4.34 1 3.68 1 3 C0.34 3 -0.32 3 -1 3 C-0.67 2.01 -0.34 1.02 0 0 Z " fill="#FA7B32" transform="translate(100,113)"/>
<path d="M0 0 C0.66 0 1.32 0 2 0 C2 0.66 2 1.32 2 2 C1.34 2 0.68 2 0 2 C-0.072 2.299 -0.072 2.299 -0.438 3.812 C-0.887 5.562 -1.429 7.287 -2 9 C-2.99 9 -3.98 9 -5 9 C-5 8.01 -5 7.02 -5 6 C-4.34 6 -3.68 6 -3 6 C-3 5.01 -3 4.02 -3 3 C-2.34 3 -1.68 3 -1 3 C-0.67 2.01 -0.34 1.02 0 0 Z " fill="#FA8848" transform="translate(59,102)"/>
<path d="M0 0 C0.743 0.454 1.485 0.907 2.25 1.375 C4.469 2.686 6.68 3.883 9 5 C7.68 5.99 6.36 6.98 5 8 C0 2.25 0 2.25 0 0 Z " fill="#5E1207" transform="translate(64,92)"/>
<path d="M0 0 C3.3 0 6.6 0 10 0 C6.69 3.31 5.468 3.504 1 4 C0.67 2.68 0.34 1.36 0 0 Z " fill="#F58356" transform="translate(47,61)"/>
<path d="M0 0 C0.66 0.66 1.32 1.32 2 2 C0.713 3.006 -0.58 4.004 -1.875 5 C-2.235 5.278 -2.235 5.278 -4.055 6.688 C-6 8 -6 8 -8 8 C-6.498 3.794 -3.714 2.261 0 0 Z " fill="#F6E6D9" transform="translate(125,87)"/>
<path d="M0 0 C2.211 0.428 3.981 0.991 6 2 C6 2.99 6 3.98 6 5 C4.35 4.67 2.7 4.34 1 4 C1 3.34 1 2.68 1 2 C0.34 1.67 -0.32 1.34 -1 1 C-0.67 0.67 -0.34 0.34 0 0 Z " fill="#E34312" transform="translate(103,130)"/>
<path d="M0 0 C0.66 0 1.32 0 2 0 C2 0.66 2 1.32 2 2 C2.66 2.33 3.32 2.66 4 3 C3.67 3.495 3.67 3.495 2 6 C2.66 6 3.32 6 4 6 C4 6.66 4 7.32 4 8 C3.01 8 2.02 8 1 8 C0.269 6.023 -0.394 4.019 -1 2 C-0.67 1.34 -0.34 0.68 0 0 Z " fill="#F86629" transform="translate(103,101)"/>
<path d="M0 0 C-0.33 0.99 -0.66 1.98 -1 3 C-3.64 3 -6.28 3 -9 3 C-9 2.34 -9 1.68 -9 1 C-5.847 0.299 -3.273 0 0 0 Z " fill="#F65F41" transform="translate(81,99)"/>
<path d="M0 0 C2.64 0.33 5.28 0.66 8 1 C8 1.99 8 2.98 8 4 C2.25 3.125 2.25 3.125 0 2 C0 1.34 0 0.68 0 0 Z " fill="#E8450E" transform="translate(41,78)"/>
<path d="M0 0 C0.33 0.99 0.66 1.98 1 3 C1.66 4.669 2.326 6.336 3 8 C0 8 0 8 -2 7 C-1.125 1.125 -1.125 1.125 0 0 Z " fill="#EC5627" transform="translate(139,68)"/>
<path d="M0 0 C0.33 0.99 0.66 1.98 1 3 C0.67 3.66 0.34 4.32 0 5 C-1.98 5 -3.96 5 -6 5 C-5.34 3.68 -4.68 2.36 -4 1 C-2.68 1.33 -1.36 1.66 0 2 C0 1.34 0 0.68 0 0 Z " fill="#FC6A2B" transform="translate(34,66)"/>
<path d="M0 0 C4.875 0.875 4.875 0.875 6 2 C6.041 3.666 6.043 5.334 6 7 C3.959 5.384 1.959 3.714 0 2 C0 1.34 0 0.68 0 0 Z " fill="#F1582D" transform="translate(78,22)"/>
<path d="M0 0 C0.66 0.66 1.32 1.32 2 2 C-0.462 5.815 -0.462 5.815 -3.188 6.75 C-3.786 6.833 -4.384 6.915 -5 7 C-4.602 4.114 -4.21 3.178 -1.938 1.25 C-1.298 0.838 -0.659 0.425 0 0 Z " fill="#E3C0A7" transform="translate(57,135)"/>
<path d="M0 0 C0.33 0 0.66 0 1 0 C1.289 1.093 1.578 2.186 1.875 3.312 C3 7 3 7 5 10 C5 10.99 5 11.98 5 13 C4.01 12.67 3.02 12.34 2 12 C1.375 10.062 1.375 10.062 1 8 C0.67 7.34 0.34 6.68 0 6 C-0.04 4 -0.043 2 0 0 Z " fill="#E06540" transform="translate(54,79)"/>
<path d="M0 0 C0.66 0.66 1.32 1.32 2 2 C1.01 2.66 0.02 3.32 -1 4 C-2.188 6.125 -2.188 6.125 -3 8 C-3.66 6.68 -4.32 5.36 -5 4 C-3.35 2.68 -1.7 1.36 0 0 Z " fill="#F86433" transform="translate(53,84)"/>
<path d="M0 0 C2.625 -0.188 2.625 -0.188 5 0 C4.34 1.65 3.68 3.3 3 5 C2.175 4.67 2.175 4.67 -2 3 C-1.34 2.01 -0.68 1.02 0 0 Z " fill="#62605B" transform="translate(59,75)"/>
<path d="M0 0 C2 3 2 3 2 5 C2.99 4.67 3.98 4.34 5 4 C4.188 5.938 4.188 5.938 3 8 C2.01 8.33 1.02 8.66 0 9 C0 6.03 0 3.06 0 0 Z " fill="#F85C20" transform="translate(79,52)"/>
<path d="M0 0 C1.32 0 2.64 0 4 0 C4 1.65 4 3.3 4 5 C2.68 5 1.36 5 0 5 C0 3.35 0 1.7 0 0 Z " fill="#FC823C" transform="translate(72,53)"/>
<path d="M0 0 C0.33 0 0.66 0 1 0 C1.062 0.567 1.062 0.567 1.375 3.438 C1.478 4.025 1.478 4.025 2 7 C2.66 7.33 3.32 7.66 4 8 C2.35 8 0.7 8 -1 8 C-1.042 5.667 -1.041 3.333 -1 1 C-0.67 0.67 -0.34 0.34 0 0 Z " fill="#E75C34" transform="translate(35,129)"/>
<path d="M0 0 C0.66 0 1.32 0 2 0 C2 0.66 2 1.32 2 2 C2.99 2.33 3.98 2.66 5 3 C4.01 3 3.02 3 2 3 C1.67 4.32 1.34 5.64 1 7 C1 6.34 1 5.68 1 5 C0.34 5 -0.32 5 -1 5 C-0.67 3.35 -0.34 1.7 0 0 Z " fill="#F56325" transform="translate(39,129)"/>
<path d="M0 0 C0.66 1.32 1.32 2.64 2 4 C1.01 4 0.02 4 -1 4 C-1 4.66 -1 5.32 -1 6 C-1.99 6 -2.98 6 -4 6 C-4 5.01 -4 4.02 -4 3 C-3.34 3 -2.68 3 -2 3 C-2 2.34 -2 1.68 -2 1 C-1.34 0.67 -0.68 0.34 0 0 Z " fill="#F24912" transform="translate(119,124)"/>
<path d="M0 0 C0.33 0 0.66 0 1 0 C1.248 0.928 1.495 1.856 1.75 2.812 C3.065 6.165 3.98 7.188 7 9 C4.688 9.312 4.688 9.312 2 9 C0.125 6.75 0.125 6.75 -1 4 C-0.688 1.688 -0.688 1.688 0 0 Z " fill="#D5C8BE" transform="translate(56,79)"/>
<path d="M0 0 C0.99 0.33 1.98 0.66 3 1 C-1.75 5.875 -1.75 5.875 -4 7 C-2.926 4.085 -2.222 2.222 0 0 Z " fill="#DC4B21" transform="translate(137,75)"/>
<path d="M0 0 C1.65 0 3.3 0 5 0 C5 1.65 5 3.3 5 5 C3.68 4.67 2.36 4.34 1 4 C0.67 2.68 0.34 1.36 0 0 Z " fill="#F87631" transform="translate(119,68)"/>
<path d="M0 0 C1.858 3.135 2.201 5.375 2 9 C1.34 9 0.68 9 0 9 C-0.062 8.691 -0.062 8.691 -0.375 7.125 C-1 5 -1 5 -3 3 C-2.01 2.01 -1.02 1.02 0 0 Z " fill="#F1460E" transform="translate(77,48)"/>
<path d="M0 0 C3.556 3.556 3.556 3.556 4 7 C3.67 7.66 3.34 8.32 3 9 C2.34 9 1.68 9 1 9 C0.67 6.03 0.34 3.06 0 0 Z " fill="#EC6A3F" transform="translate(117,112)"/>
<path d="M0 0 C1.32 0 2.64 0 4 0 C4 1.65 4 3.3 4 5 C3.175 4.67 3.175 4.67 -1 3 C-0.67 2.01 -0.34 1.02 0 0 Z " fill="#F45E22" transform="translate(40,124)"/>
<path d="M0 0 C0.66 0 1.32 0 2 0 C2 0.66 2 1.32 2 2 C2.66 2.33 3.32 2.66 4 3 C2.68 3.99 1.36 4.98 0 6 C-0.66 5.67 -1.32 5.34 -2 5 C-1.34 3.35 -0.68 1.7 0 0 Z " fill="#FB6422" transform="translate(36,69)"/>
</svg>
