<?xml version="1.0" encoding="UTF-8"?>
<!-- Generator: visioncortex VTracer 0.6.12 -->
<svg version="1.1" xmlns="http://www.w3.org/2000/svg" width="171" height="165">
<path d="M0 0 C56.43 0 112.86 0 171 0 C171 54.45 171 108.9 171 165 C114.57 165 58.14 165 0 165 C0 110.55 0 56.1 0 0 Z " fill="#FCF7F0" transform="translate(0,0)"/>
<path d="M0 0 C8.846 4.289 14.592 11.449 18.008 20.559 C18.235 21.384 18.462 22.209 18.695 23.059 C19.727 22.584 20.758 22.11 21.82 21.621 C32.472 16.721 46.819 17.909 57.609 21.746 C73.241 28.395 85.878 40.058 92.466 55.914 C92.59 56.222 92.59 56.222 93.215 57.785 C94.585 60.815 95.195 61.945 97.883 63.684 C100.695 66.059 100.695 66.059 101.383 68.621 C100.427 72.011 98.552 73.131 95.695 75.059 C95.98 75.198 95.98 75.198 97.418 75.906 C110.23 82.558 110.23 82.558 112.348 89.062 C112.633 90.996 112.633 90.996 112.695 94.059 C108.885 97.33 106.324 97.635 101.418 97.469 C93.436 96.266 86.538 91.424 81.695 85.059 C81.695 84.399 81.695 83.739 81.695 83.059 C77.576 84.593 75.203 85.526 72.133 88.746 C69.695 91.059 69.695 91.059 66.57 91.496 C63.695 91.059 63.695 91.059 60.695 89.059 C60.365 89.224 60.365 89.224 58.695 90.059 C64.186 95.046 69.796 99.812 75.629 104.395 C77.695 106.059 77.695 106.059 79.695 108.059 C79.57 110.559 79.57 110.559 78.695 113.059 C73.253 116.868 65.017 115.994 58.695 115.059 C45.536 111.588 34.007 103.553 26.695 92.059 C26.365 91.399 26.035 90.739 25.695 90.059 C23.422 89.406 21.125 88.837 18.82 88.309 C9.167 85.924 1.051 81.818 -6.305 75.059 C-8.983 82.711 -10.515 89.555 -10.766 97.641 C-11.305 100.059 -11.305 100.059 -13.031 101.883 C-15.796 103.313 -17.23 103.555 -20.305 103.059 C-26.011 99.409 -30.693 94.72 -32.305 88.059 C-33.063 81.448 -33.746 75.109 -29.68 69.496 C-28.008 67.668 -28.008 67.668 -26.305 66.059 C-25.825 65.569 -25.346 65.079 -24.852 64.574 C-21.092 61.063 -17.097 59.628 -12.305 58.059 C-13.253 57.811 -14.202 57.564 -15.18 57.309 C-29.455 53.159 -29.455 53.159 -34.305 47.059 C-34.47 46.564 -34.47 46.564 -35.305 44.059 C-36.088 43.976 -36.872 43.894 -37.68 43.809 C-40.305 43.059 -40.305 43.059 -41.457 41.301 C-42.385 38.845 -42.54 37.049 -42.492 34.434 C-42.489 34.046 -42.489 34.046 -42.473 32.082 C-42.305 30.059 -42.305 30.059 -41.305 28.059 C-40.645 28.059 -39.985 28.059 -39.305 28.059 C-39.385 27.779 -39.385 27.779 -39.793 26.363 C-41.094 20.502 -41.203 13.373 -38.305 8.059 C-34.143 4.088 -29.898 1.523 -24.305 0.059 C-17.977 -3.105 -6.608 -1.882 0 0 Z " fill="#C2A84D" transform="translate(51.3046875,34.94140625)"/>
<path d="M0 0 C0.66 0.33 1.32 0.66 2 1 C1.34 1.66 0.68 2.32 0 3 C0.125 5 0.125 5 1 7 C1.66 7.309 2.32 7.619 3 7.938 C3.66 8.288 4.32 8.639 5 9 C5.75 11.625 5.75 11.625 6 14 C6.887 13.175 7.774 12.35 8.688 11.5 C10.756 9.805 11.865 9.034 14.5 8.375 C18.201 9.3 20.836 10.887 23 14 C23.756 17.142 23.695 19.85 23 23 C21 26.062 21 26.062 19 28 C18.34 27.67 17.68 27.34 17 27 C17.495 26.484 17.99 25.969 18.5 25.438 C20.554 22.1 20.413 19.856 20 16 C18.5 13.562 18.5 13.562 17 12 C15.68 12.33 14.36 12.66 13 13 C13 14.32 13 15.64 13 17 C9.125 16.125 9.125 16.125 8 15 C6.475 18.05 6.764 20.642 7 24 C8.96 26.991 11.698 27.84 15 29 C15 29.33 15 29.66 15 30 C11.75 29.875 11.75 29.875 8 29 C5.562 25.938 5.562 25.938 4 23 C5.25 26.653 5.671 27.781 9 30 C9 30.66 9 31.32 9 32 C10.32 32 11.64 32 13 32 C13.165 32.66 13.165 32.66 14 36 C14.66 36 15.32 36 16 36 C16.33 35.01 16.66 34.02 17 33 C20.96 33 24.92 33 29 33 C30.252 39.259 29.277 39.936 26 45 C29 46 29 46 32 46 C32.66 46 33.32 46 34 46 C34.165 45.67 34.165 45.67 35 44 C35.66 44.66 36.32 45.32 37 46 C37.33 46.165 37.33 46.165 39 47 C38.125 51.75 38.125 51.75 37 54 C37.66 54 38.32 54 39 54 C39 55.32 39 56.64 39 58 C40.32 58.33 41.64 58.66 43 59 C42.25 61.938 42.25 61.938 41 65 C38.875 65.875 38.875 65.875 37 66 C39.31 67.32 41.62 68.64 44 70 C44.66 68.02 45.32 66.04 46 64 C45.67 64.165 45.67 64.165 44 65 C43.67 64.01 43.34 63.02 43 62 C45 60 45 60 46.945 59.805 C48.964 59.87 50.982 59.935 53 60 C53 62 53 64 53 66 C53.66 66 54.32 66 55 66 C54.34 68.31 53.68 70.62 53 73 C54.32 73 55.64 73 57 73 C57.165 72.34 57.165 72.34 58 69 C58.33 69.495 58.33 69.495 60 72 C59.67 72.66 59.34 73.32 59 74 C59.307 74.097 59.307 74.097 60.863 74.586 C61.672 74.846 62.48 75.107 63.312 75.375 C64.113 75.63 64.914 75.885 65.738 76.148 C68 77 68 77 71 79 C71.688 82.625 71.688 82.625 72 86 C74.31 86.33 76.62 86.66 79 87 C76.374 88.751 73.712 90.387 71 92 C71.578 92.289 72.155 92.577 72.75 92.875 C74.833 93.917 76.917 94.958 79 96 C79 94.68 79 93.36 79 92 C80.98 92 82.96 92 85 92 C85 92.66 85 93.32 85 94 C83.68 94.33 82.36 94.66 81 95 C81 95.66 81 96.32 81 97 C83.64 97.66 86.28 98.32 89 99 C88.67 98.01 88.34 97.02 88 96 C89.65 96.66 91.3 97.32 93 98 C90.005 99.996 88.516 100.665 85 101 C82.187 100.062 82.187 100.062 80 99 C79.67 100.65 79.34 102.3 79 104 C81.31 104.33 83.62 104.66 86 105 C86.165 104.505 86.165 104.505 87 102 C87.33 103.32 87.66 104.64 88 106 C89.485 105.835 89.485 105.835 97 105 C96.67 105.66 96.34 106.32 96 107 C93.124 107.081 90.251 107.141 87.375 107.188 C86.567 107.213 85.759 107.238 84.926 107.264 C79.823 107.326 76.469 106.755 72 104 C72 103.34 72 102.68 72 102 C73.65 102 75.3 102 77 102 C76.67 100.35 76.34 98.7 76 97 C74.02 96.34 72.04 95.68 70 95 C70 95.66 70 96.32 70 97 C69.34 96.67 68.68 96.34 68 96 C67.897 95.423 67.794 94.845 67.688 94.25 C66.684 90.965 64.48 89.289 62 87 C62.289 87.155 62.289 87.155 63.75 87.938 C65.843 88.926 67.745 89.517 70 90 C70 86.445 69.866 83.465 69 80 C65.938 78.062 65.938 78.062 63 77 C63 78.32 63 79.64 63 81 C62.67 81.165 62.67 81.165 61 82 C60.288 83.648 59.626 85.318 59 87 C58.348 88.341 57.686 89.677 57 91 C58.32 92.32 59.64 93.64 61 95 C60.34 95.99 59.68 96.98 59 98 C53.412 96.645 50.31 92.419 47 88 C46.745 87.294 46.49 86.587 46.227 85.859 C44.234 82.839 41.501 82.858 38.062 82.125 C28.393 79.85 20.347 75.752 13 69 C10.322 76.653 8.79 83.497 8.539 91.582 C8 94 8 94 6.273 95.824 C3.509 97.254 2.074 97.497 -1 97 C-6.706 93.351 -11.388 88.662 -13 82 C-13.758 75.389 -14.441 69.051 -10.375 63.438 C-8.703 61.609 -8.703 61.609 -7 60 C-6.76 59.755 -6.76 59.755 -5.547 58.516 C-1.787 55.004 2.208 53.57 7 52 C6.051 51.752 5.102 51.505 4.125 51.25 C-10.151 47.101 -10.151 47.101 -15 41 C-15.165 40.505 -15.165 40.505 -16 38 C-16.784 37.917 -17.567 37.835 -18.375 37.75 C-21 37 -21 37 -22.152 35.242 C-23.081 32.787 -23.236 30.99 -23.188 28.375 C-23.184 27.987 -23.184 27.987 -23.168 26.023 C-23 24 -23 24 -22 22 C-21.34 22 -20.68 22 -20 22 C-19.711 21.278 -19.422 20.556 -19.125 19.812 C-18.083 17.208 -17.042 14.604 -16 12 C-15.67 12.495 -15.67 12.495 -14 15 C-13.34 14.67 -12.68 14.34 -12 14 C-11.34 14.33 -10.68 14.66 -10 15 C-9.67 14.01 -9.34 13.02 -9 12 C-9 12.66 -9 13.32 -9 14 C-8.443 13.773 -7.886 13.546 -7.312 13.312 C-4.079 12.876 -2.609 14.188 0 16 C0.33 14.02 0.66 12.04 1 10 C0.01 9.34 -0.98 8.68 -2 8 C-2.875 6.125 -2.875 6.125 -3 4 C-1.562 1.75 -1.562 1.75 0 0 Z " fill="#BD9427" transform="translate(32,41)"/>
<path d="M0 0 C1.746 3.216 2.204 5.32 2 9 C3.65 9.33 5.3 9.66 7 10 C4 11 4 11 1 10 C1 10.66 1 11.32 1 12 C1.99 12.165 1.99 12.165 7 13 C6.67 13.165 6.67 13.165 5 14 C9.274 24.801 16.92 30.397 26 37 C28.692 38.974 31.362 40.954 34 43 C34 43.66 34 44.32 34 45 C34.99 44.67 35.98 44.34 37 44 C39.488 44.707 39.488 44.707 42.312 45.812 C44.207 46.544 46.103 47.274 48 48 C48.954 48.37 49.908 48.74 50.891 49.121 C54.52 50.147 57.669 50.265 61.438 50.25 C62.694 50.255 63.951 50.26 65.246 50.266 C70.473 49.896 75.17 48.516 79.938 46.375 C80.948 45.921 81.959 45.468 83 45 C82 48 82 48 79 50 C79.568 50.28 80.137 50.559 80.723 50.848 C93.535 57.5 93.535 57.5 95.652 64.004 C95.938 65.937 95.938 65.937 96 69 C92.189 72.271 89.629 72.576 84.723 72.41 C76.741 71.208 69.842 66.366 65 60 C65 59.34 65 58.68 65 58 C60.881 59.535 58.508 60.467 55.438 63.688 C53 66 53 66 49.875 66.438 C47 66 47 66 44 64 C43.67 64.165 43.67 64.165 42 65 C47.491 69.987 53.1 74.753 58.934 79.336 C61 81 61 81 63 83 C62.875 85.5 62.875 85.5 62 88 C56.572 91.8 48.308 90.962 42 90 C33.911 87.768 26.657 84.263 21 78 C21.66 78 22.32 78 23 78 C23 75 23 75 21.5 73.312 C21.005 72.879 20.51 72.446 20 72 C21.667 68.667 23.333 65.333 25 62 C25.66 62 26.32 62 27 62 C27 60.68 27 59.36 27 58 C29.937 58.812 29.937 58.812 33 60 C34.103 63.308 35.051 66.646 36 70 C34.25 71.125 34.25 71.125 32 72 C29.75 71.125 29.75 71.125 28 70 C28.402 70.289 28.402 70.289 30.438 71.75 C32.979 73.981 33.651 74.745 34 78 C34 77.34 34 76.68 34 76 C39.75 76.75 39.75 76.75 42 79 C41.625 81.625 41.625 81.625 41 84 C39.35 83.67 37.7 83.34 36 83 C36 83.66 36 84.32 36 85 C36.619 85.144 37.237 85.289 37.875 85.438 C40 86 40 86 42 87 C43.707 87.07 45.417 87.084 47.125 87.062 C48.035 87.053 48.945 87.044 49.883 87.035 C50.581 87.024 51.28 87.012 52 87 C51.67 86.34 51.34 85.68 51 85 C50.67 85.33 50.34 85.66 50 86 C47.661 85.713 45.326 85.381 43 85 C43 83.35 43 81.7 43 80 C46 79 46 79 48.438 80.062 C51 81 51 81 53.312 80.125 C53.869 79.754 54.426 79.382 55 79 C54.67 78.835 54.67 78.835 53 78 C53 78.66 53 79.32 53 80 C47.25 79.125 47.25 79.125 45 78 C45 77.34 45 76.68 45 76 C45.66 75.835 45.66 75.835 49 75 C49 74.34 49 73.68 49 73 C48.381 73.186 47.763 73.371 47.125 73.562 C45 74 45 74 43 73 C43 74.32 43 75.64 43 77 C40.03 76.01 37.06 75.02 34 74 C36.625 70.125 36.625 70.125 40 69 C38.35 68.34 36.7 67.68 35 67 C35.062 65.948 35.124 64.896 35.188 63.812 C34 60 34 60 31.52 58.562 C29.523 57.736 27.505 56.96 25.469 56.238 C23 55 23 55 22.156 52.855 C22.13 52.549 22.13 52.549 22 51 C21.67 51.99 21.34 52.98 21 54 C19.68 54 18.36 54 17 54 C17.875 49.25 17.875 49.25 19 47 C18.34 47 17.68 47 17 47 C16.438 45.062 16.438 45.062 16 43 C16.33 42.67 16.66 42.34 17 42 C14.36 42 11.72 42 9 42 C9 42.99 9 43.98 9 45 C9.33 44.835 9.33 44.835 11 44 C10.691 44.969 10.381 45.939 10.062 46.938 C8.82 51.237 8.383 55.553 8 60 C7.67 60 7.34 60 7 60 C7 57.03 7 54.06 7 51 C5.68 50.34 4.36 49.68 3 49 C1.25 47.375 1.25 47.375 0 46 C1.65 46 3.3 46 5 46 C5.66 44.02 6.32 42.04 7 40 C5.68 39.67 4.36 39.34 3 39 C3 37.68 3 36.36 3 35 C2.34 35 1.68 35 1 35 C1 34.01 1 33.02 1 32 C0.67 32 0.34 32 0 32 C-1.739 25.292 -3.255 18.764 -1 12 C-0.777 9.941 -0.593 7.878 -0.438 5.812 C-0.354 4.726 -0.27 3.639 -0.184 2.52 C-0.123 1.688 -0.062 0.857 0 0 Z " fill="#686226" transform="translate(68,60)"/>
<path d="M0 0 C3.493 2.478 5.837 2.556 10.082 2.715 C10.709 2.743 10.709 2.743 13.883 2.887 C14.835 2.912 15.788 2.938 16.77 2.965 C16.11 0.985 15.45 -0.995 14.77 -3.035 C22.101 -2.476 25.817 2.084 30.421 7.316 C34.943 12.843 38.639 19.067 41.289 25.691 C42.659 28.721 43.27 29.851 45.957 31.59 C48.77 33.965 48.77 33.965 49.145 36.777 C49.021 37.499 48.897 38.221 48.77 38.965 C47.841 39.254 46.913 39.542 45.957 39.84 C42.77 40.965 42.77 40.965 39.77 42.965 C34.97 44.084 30.29 44.085 25.395 44.027 C24.658 44.023 23.922 44.018 23.164 44.014 C21.366 44.002 19.568 43.984 17.77 43.965 C17.77 43.305 17.77 42.645 17.77 41.965 C16.635 41.862 15.501 41.759 14.332 41.652 C10.217 41.154 6.538 40.001 2.652 38.586 C0.77 37.965 0.77 37.965 -1.23 37.965 C-2.408 36.79 -3.581 35.61 -4.732 34.409 C-6.315 32.884 -7.96 31.63 -9.746 30.352 C-10.357 29.907 -10.968 29.463 -11.598 29.006 C-12.858 28.1 -14.129 27.209 -15.41 26.334 C-19.919 23 -19.919 23 -20.873 19.827 C-21.152 17.609 -21.152 17.609 -21.23 13.965 C-22.22 13.635 -23.21 13.305 -24.23 12.965 C-25.918 11.402 -25.918 11.402 -27.23 9.965 C-26.9 9.305 -26.57 8.645 -26.23 7.965 C-22.795 9.492 -20.111 11.564 -17.23 13.965 C-18.88 11.985 -20.53 10.005 -22.23 7.965 C-20.91 7.305 -19.59 6.645 -18.23 5.965 C-18.23 6.955 -18.23 7.945 -18.23 8.965 C-17.928 8.11 -17.625 7.256 -17.312 6.375 C-16.894 5.27 -16.475 4.166 -16.043 3.027 C-15.637 1.925 -15.231 0.823 -14.812 -0.312 C-13.23 -3.035 -13.23 -3.035 -10.742 -3.957 C-6.349 -4.094 -3.245 -2.961 0 0 Z " fill="#9B9137" transform="translate(103.23046875,67.03515625)"/>
<path d="M0 0 C0.66 0.33 1.32 0.66 2 1 C1.34 1.66 0.68 2.32 0 3 C0.125 5 0.125 5 1 7 C1.66 7.309 2.32 7.619 3 7.938 C3.66 8.288 4.32 8.639 5 9 C5.75 11.625 5.75 11.625 6 14 C6.887 13.175 7.774 12.35 8.688 11.5 C10.756 9.805 11.865 9.034 14.5 8.375 C18.201 9.3 20.836 10.887 23 14 C23.756 17.142 23.695 19.85 23 23 C21 26.062 21 26.062 19 28 C18.34 27.67 17.68 27.34 17 27 C17.495 26.484 17.99 25.969 18.5 25.438 C20.554 22.1 20.413 19.856 20 16 C18.5 13.562 18.5 13.562 17 12 C15.68 12.33 14.36 12.66 13 13 C13 14.32 13 15.64 13 17 C9.125 16.125 9.125 16.125 8 15 C6.475 18.05 6.764 20.642 7 24 C8.96 26.991 11.698 27.84 15 29 C15 29.33 15 29.66 15 30 C11.75 29.875 11.75 29.875 8 29 C5.562 25.938 5.562 25.938 4 23 C5.25 26.653 5.671 27.781 9 30 C9 30.66 9 31.32 9 32 C10.32 32 11.64 32 13 32 C13.165 32.66 13.165 32.66 14 36 C14.66 36 15.32 36 16 36 C16.33 35.01 16.66 34.02 17 33 C20.96 33 24.92 33 29 33 C30 38 30 38 29.223 39.949 C28.84 40.523 28.457 41.096 28.062 41.688 C26 45 26 45 26 47 C26.33 47.165 26.33 47.165 28 48 C28.33 48.99 28.66 49.98 29 51 C29.99 51 30.98 51 32 51 C32 51.66 32 52.32 32 53 C31.34 53 30.68 53 30 53 C30 53.66 30 54.32 30 55 C31.32 55.33 32.64 55.66 34 56 C33.085 58.288 32.345 59.734 30.375 61.25 C26.876 62.355 23.59 62.709 20 62 C17.25 59.75 17.25 59.75 15 57 C12.335 54.093 10.884 52.666 7 52 C-9.71 47.655 -9.71 47.655 -15 41 C-15.165 40.505 -15.165 40.505 -16 38 C-16.784 37.917 -17.567 37.835 -18.375 37.75 C-21 37 -21 37 -22.152 35.242 C-23.081 32.787 -23.236 30.99 -23.188 28.375 C-23.184 27.987 -23.184 27.987 -23.168 26.023 C-23 24 -23 24 -22 22 C-21.34 22 -20.68 22 -20 22 C-19.711 21.278 -19.422 20.556 -19.125 19.812 C-18.083 17.208 -17.042 14.604 -16 12 C-15.67 12.495 -15.67 12.495 -14 15 C-13.34 14.67 -12.68 14.34 -12 14 C-11.34 14.33 -10.68 14.66 -10 15 C-9.67 14.01 -9.34 13.02 -9 12 C-9 12.66 -9 13.32 -9 14 C-8.443 13.773 -7.886 13.546 -7.312 13.312 C-4.079 12.876 -2.609 14.188 0 16 C0.33 14.02 0.66 12.04 1 10 C0.01 9.34 -0.98 8.68 -2 8 C-2.875 6.125 -2.875 6.125 -3 4 C-1.562 1.75 -1.562 1.75 0 0 Z " fill="#DDB94A" transform="translate(32,41)"/>
<path d="M0 0 C2.018 0.065 4.036 0.13 6.055 0.195 C6.055 2.195 6.055 4.195 6.055 6.195 C6.715 6.195 7.375 6.195 8.055 6.195 C7.395 8.505 6.735 10.815 6.055 13.195 C7.375 13.195 8.695 13.195 10.055 13.195 C10.385 11.875 10.715 10.555 11.055 9.195 C11.715 10.185 12.375 11.175 13.055 12.195 C12.725 12.855 12.395 13.515 12.055 14.195 C12.362 14.292 12.362 14.292 13.918 14.781 C14.726 15.042 15.534 15.302 16.367 15.57 C16.767 15.698 16.767 15.698 18.793 16.344 C21.055 17.195 21.055 17.195 24.055 19.195 C24.742 22.82 24.742 22.82 25.055 26.195 C27.365 26.525 29.675 26.855 32.055 27.195 C29.428 28.946 26.767 30.583 24.055 32.195 C24.632 32.484 25.21 32.773 25.805 33.07 C26.846 33.591 26.846 33.591 32.055 36.195 C32.055 34.875 32.055 33.555 32.055 32.195 C34.035 32.195 36.015 32.195 38.055 32.195 C38.055 32.855 38.055 33.515 38.055 34.195 C36.735 34.525 35.415 34.855 34.055 35.195 C34.055 35.855 34.055 36.515 34.055 37.195 C36.695 37.855 39.335 38.515 42.055 39.195 C41.725 38.205 41.395 37.215 41.055 36.195 C42.705 36.855 44.355 37.515 46.055 38.195 C43.06 40.192 41.57 40.86 38.055 41.195 C35.242 40.258 35.242 40.258 33.055 39.195 C32.725 40.845 32.395 42.495 32.055 44.195 C34.365 44.525 36.675 44.855 39.055 45.195 C39.385 44.205 39.715 43.215 40.055 42.195 C40.22 42.855 40.22 42.855 41.055 46.195 C42.54 46.03 42.54 46.03 50.055 45.195 C49.89 45.525 49.89 45.525 49.055 47.195 C46.179 47.277 43.306 47.336 40.43 47.383 C39.621 47.408 38.813 47.433 37.98 47.459 C32.878 47.521 29.523 46.95 25.055 44.195 C25.055 43.535 25.055 42.875 25.055 42.195 C26.705 42.195 28.355 42.195 30.055 42.195 C29.725 40.545 29.395 38.895 29.055 37.195 C27.075 36.535 25.095 35.875 23.055 35.195 C23.055 35.855 23.055 36.515 23.055 37.195 C22.725 37.03 22.725 37.03 21.055 36.195 C21.003 35.907 21.003 35.907 20.742 34.445 C19.738 31.16 17.535 29.485 15.055 27.195 C15.632 27.505 16.21 27.814 16.805 28.133 C18.898 29.121 20.8 29.712 23.055 30.195 C23.055 26.641 22.921 23.66 22.055 20.195 C18.992 18.258 18.992 18.258 16.055 17.195 C16.055 18.515 16.055 19.835 16.055 21.195 C15.725 21.36 15.725 21.36 14.055 22.195 C13.342 23.843 12.681 25.513 12.055 27.195 C11.403 28.536 10.741 29.872 10.055 31.195 C11.375 32.515 12.695 33.835 14.055 35.195 C13.395 36.185 12.735 37.175 12.055 38.195 C6.466 36.841 3.365 32.614 0.055 28.195 C-0.201 27.489 -0.456 26.782 -0.719 26.055 C-2.711 23.034 -5.445 23.053 -8.883 22.32 C-18.373 20.075 -27.494 16.736 -32.945 8.195 C-33.758 5.32 -33.758 5.32 -33.945 3.195 C-32.32 2.07 -32.32 2.07 -29.945 1.195 C-27.936 1.835 -25.938 2.506 -23.945 3.195 C-23.306 3.175 -23.306 3.175 -20.07 3.07 C-15.285 2.933 -11.978 4.796 -7.945 7.195 C-6.955 7.773 -5.965 8.35 -4.945 8.945 C-4.285 9.358 -3.625 9.77 -2.945 10.195 C-2.285 8.215 -1.625 6.235 -0.945 4.195 C-1.605 4.525 -2.265 4.855 -2.945 5.195 C-3.275 4.205 -3.605 3.215 -3.945 2.195 C-1.945 0.195 -1.945 0.195 0 0 Z " fill="#DDAE42" transform="translate(78.9453125,100.8046875)"/>
<path d="M0 0 C-0.66 0.66 -1.32 1.32 -2 2 C-1.625 4.625 -1.625 4.625 -1 7 C-9.539 7.656 -15.205 7.775 -22.023 2.336 C-25.121 0.242 -27.376 0.537 -31 1 C-31.182 1.687 -31.364 2.374 -31.551 3.082 C-31.802 3.983 -32.054 4.884 -32.312 5.812 C-32.556 6.706 -32.8 7.599 -33.051 8.52 C-34.02 11.052 -34.95 12.272 -37 14 C-37 13.01 -37 12.02 -37 11 C-37.66 11.66 -38.32 12.32 -39 13 C-37.35 14.65 -35.7 16.3 -34 18 C-34.33 18.66 -34.66 19.32 -35 20 C-35.482 19.506 -35.964 19.013 -36.461 18.504 C-37.093 17.863 -37.724 17.223 -38.375 16.562 C-39.001 15.924 -39.628 15.286 -40.273 14.629 C-42 13 -42 13 -44 12 C-43 15 -43 15 -40.438 17.375 C-38 20 -38 20 -37.688 22.812 C-37.791 23.534 -37.894 24.256 -38 25 C-41.829 23.527 -43.214 21.564 -45.25 18.062 C-45.771 17.187 -46.292 16.312 -46.828 15.41 C-48 13 -48 13 -48 10 C-49.32 9.67 -50.64 9.34 -52 9 C-52 8.34 -52 7.68 -52 7 C-50.68 7 -49.36 7 -48 7 C-48.99 6.67 -49.98 6.34 -51 6 C-51.66 2.7 -52.32 -0.6 -53 -4 C-51.639 -4.639 -50.278 -5.279 -48.875 -5.938 C-48.109 -6.297 -47.344 -6.657 -46.555 -7.027 C-31.082 -12.918 -13.461 -8.487 0 0 Z " fill="#738640" transform="translate(121,63)"/>
<path d="M0 0 C3.96 0 7.92 0 12 0 C13 5 13 5 12.223 6.949 C12.031 7.236 12.031 7.236 11.062 8.688 C9 12 9 12 9 14 C9.66 14.33 10.32 14.66 11 15 C11.165 15.495 11.165 15.495 12 18 C12.99 18 13.98 18 15 18 C15 18.66 15 19.32 15 20 C14.34 20 13.68 20 13 20 C13 20.66 13 21.32 13 22 C14.32 22.33 15.64 22.66 17 23 C16.085 25.288 15.345 26.734 13.375 28.25 C9.876 29.355 6.59 29.709 3 29 C0.25 26.75 0.25 26.75 -2 24 C-4.665 21.093 -6.116 19.666 -10 19 C-19.517 16.526 -28.224 14.166 -33.629 5.34 C-34.081 4.568 -34.534 3.796 -35 3 C-32.562 2.973 -30.125 2.953 -27.688 2.938 C-26.997 2.929 -26.307 2.921 -25.596 2.912 C-22.452 2.897 -20.006 2.998 -17 4 C-11.59 4.317 -6.314 4.119 -1 3 C-0.67 2.01 -0.34 1.02 0 0 Z " fill="#CCA638" transform="translate(49,74)"/>
<path d="M0 0 C4.527 6.79 4.772 15.054 4 23 C2.984 25.359 2.984 25.359 2 27 C-2.75 27.125 -2.75 27.125 -5 26 C-4.835 26.165 -4.835 26.165 -4 27 C-3.959 28.666 -3.957 30.334 -4 32 C-9.986 28.304 -15.695 24.625 -21 20 C-21.66 19.67 -22.32 19.34 -23 19 C-23.407 16.678 -23.744 14.343 -24 12 C-24.99 11.67 -25.98 11.34 -27 11 C-28.688 9.438 -28.688 9.438 -30 8 C-29.67 7.34 -29.34 6.68 -29 6 C-25.564 7.527 -22.881 9.599 -20 12 C-21.65 10.02 -23.3 8.04 -25 6 C-23.68 5.34 -22.36 4.68 -21 4 C-21 4.99 -21 5.98 -21 7 C-20.697 6.145 -20.394 5.291 -20.082 4.41 C-19.663 3.305 -19.244 2.201 -18.812 1.062 C-18.406 -0.04 -18 -1.142 -17.582 -2.277 C-16 -5 -16 -5 -13.512 -5.922 C-7.888 -6.097 -4.044 -3.707 0 0 Z " fill="#708641" transform="translate(106,69)"/>
<path d="M0 0 C0.49 0.139 0.49 0.139 2.973 0.84 C11.377 3.125 19.281 4.5 27.988 4.824 C31 5 31 5 34 6 C34.567 5.99 34.567 5.99 37.438 5.938 C40.764 5.996 42.265 6.249 45 8 C45 6.68 45 5.36 45 4 C47 5 47 5 48 7 C48.846 6.835 49.691 6.67 50.562 6.5 C55.222 7.178 56.679 9.313 59.68 12.762 C61.282 15.479 61.571 16.899 61 20 C59.003 22.079 57.591 22.876 54.773 23.469 C45.871 23.585 39.266 20.459 32.875 14.312 C30 11.325 30 11.325 30 9 C25.881 10.535 23.508 11.467 20.438 14.688 C18 17 18 17 14.875 17.438 C12 17 12 17 9 15 C6.812 15.375 6.812 15.375 5 16 C3.952 14.858 2.938 13.685 1.938 12.5 C1.369 11.85 0.801 11.201 0.215 10.531 C-1.598 6.754 -0.75 4.079 0 0 Z " fill="#A5863A" transform="translate(103,109)"/>
<path d="M0 0 C1.746 3.216 2.204 5.32 2 9 C3.65 9.33 5.3 9.66 7 10 C4 11 4 11 1 10 C1 10.66 1 11.32 1 12 C1.99 12.165 1.99 12.165 7 13 C6.67 13.165 6.67 13.165 5 14 C9.274 24.801 16.92 30.397 26 37 C28.692 38.974 31.362 40.954 34 43 C34 43.66 34 44.32 34 45 C34.99 44.67 35.98 44.34 37 44 C39.488 44.707 39.488 44.707 42.312 45.812 C44.207 46.544 46.103 47.274 48 48 C48.954 48.37 49.908 48.74 50.891 49.121 C54.52 50.147 57.669 50.265 61.438 50.25 C62.694 50.255 63.951 50.26 65.246 50.266 C70.473 49.896 75.17 48.516 79.938 46.375 C80.948 45.921 81.959 45.468 83 45 C82 48 82 48 79 50 C81.97 51.65 84.94 53.3 88 55 C88 55.66 88 56.32 88 57 C85.688 57.25 85.688 57.25 83 57 C81.188 55 81.188 55 80 53 C80.165 53.99 80.165 53.99 81 59 C80.402 58.505 79.804 58.01 79.188 57.5 C74.517 55.302 70.08 55.76 65 56 C65 55.67 65 55.34 65 55 C64.576 54.987 64.576 54.987 62.43 54.922 C53.435 54.487 45.549 52.923 37 50 C36.577 49.856 36.577 49.856 34.438 49.129 C29.123 47.053 25.448 43.977 21.332 40.07 C18.931 37.939 16.455 36.285 13.75 34.562 C9.324 31.592 7.192 28.659 5.035 23.82 C4 22 4 22 1 21 C1.33 22.65 1.66 24.3 2 26 C1.01 25.67 0.02 25.34 -1 25 C-2.572 21.857 -2.232 18.442 -2 15 C-1.67 14.01 -1.34 13.02 -1 12 C-0.777 9.941 -0.593 7.878 -0.438 5.812 C-0.354 4.726 -0.27 3.639 -0.184 2.52 C-0.123 1.688 -0.062 0.857 0 0 Z " fill="#5E5013" transform="translate(68,60)"/>
<path d="M0 0 C11.045 3.668 17.801 15.239 23 25 C23.517 26.24 24.025 27.483 24.523 28.73 C25.891 31.759 26.501 32.887 29.188 34.625 C32 37 32 37 32.375 39.812 C32.251 40.534 32.127 41.256 32 42 C31.34 41.34 30.68 40.68 30 40 C29.752 40.144 29.752 40.144 28.496 40.875 C23.69 43.502 20.466 44.456 15 44 C15 44.33 15 44.66 15 45 C11.04 45 7.08 45 3 45 C2.34 43.02 1.68 41.04 1 39 C1.641 39.012 2.281 39.023 2.941 39.035 C8.087 39.089 12.93 38.882 18 38 C16.35 37.67 14.7 37.34 13 37 C12.841 36.105 12.683 35.211 12.52 34.289 C11.157 27.226 9.518 21.179 5.988 14.891 C5 13 5 13 5 11 C6.65 10.67 8.3 10.34 10 10 C9.34 10 8.68 10 8 10 C5.449 9.554 3.322 9.161 1 8 C0.406 5.351 0.258 2.708 0 0 Z " fill="#606D36" transform="translate(120,64)"/>
<path d="M0 0 C1.395 -0.082 2.791 -0.14 4.188 -0.188 C4.576 -0.205 4.576 -0.205 6.543 -0.293 C9.746 0.089 11.438 1.044 14 3 C19.479 11.067 23 21.229 23 31 C21.063 31.054 19.125 31.093 17.188 31.125 C16.109 31.148 15.03 31.171 13.918 31.195 C11 31 11 31 8 29 C7.227 26.637 7.227 26.637 6.625 23.688 C5.294 17.789 3.305 12.39 0.988 6.812 C0 4 0 4 0 0 Z " fill="#607736" transform="translate(109,71)"/>
<path d="M0 0 C1.938 0.468 3.874 0.947 5.789 1.5 C8.003 2.001 9.746 2.018 12 1.875 C16.727 1.735 20.029 3.614 24 6 C24.804 6.412 25.609 6.825 26.438 7.25 C28.968 10.084 28.645 13.273 29 17 C29.66 17.66 30.32 18.32 31 19 C31.557 20.196 32.114 21.392 32.688 22.625 C35.012 27.451 38.34 31.134 42 35 C39 35 39 35 37.246 33.391 C36.649 32.684 36.052 31.978 35.438 31.25 C34.838 30.554 34.239 29.858 33.621 29.141 C32 27 32 27 31.219 24.852 C29.234 21.836 26.491 21.856 23.062 21.125 C13.572 18.88 4.452 15.541 -1 7 C-1.938 4.25 -1.938 4.25 -2 2 C-1.34 1.34 -0.68 0.68 0 0 Z " fill="#B9822C" transform="translate(47,102)"/>
<path d="M0 0 C0.851 0.003 1.702 0.006 2.578 0.01 C3.468 0.018 4.357 0.027 5.273 0.035 C6.171 0.04 7.068 0.044 7.992 0.049 C10.211 0.061 12.43 0.077 14.648 0.098 C11.571 3.176 7.619 4.15 3.594 5.684 C0.566 7.137 -1.232 8.511 -3.352 11.098 C-3.289 13.223 -3.289 13.223 -2.352 15.098 C-1.362 15.758 -0.372 16.418 0.648 17.098 C-0.012 19.078 -0.672 21.058 -1.352 23.098 C-2.197 22.747 -3.043 22.396 -3.914 22.035 C-7.83 20.967 -10.399 21.352 -14.352 22.098 C-15.342 22.098 -16.332 22.098 -17.352 22.098 C-19.539 24.598 -19.539 24.598 -21.352 27.098 C-23.586 22.628 -22.59 16.651 -21.852 11.848 C-19.048 6.708 -14.338 3.87 -8.977 1.785 C-8.543 1.672 -8.543 1.672 -6.352 1.098 C-4.003 -0.077 -2.614 -0.017 0 0 Z " fill="#CEB54A" transform="translate(33.3515625,33.90234375)"/>
<path d="M0 0 C1.473 1.574 1.473 1.574 3.062 3.688 C8.153 9.732 14.276 12.899 22.125 13.812 C23.404 13.874 24.683 13.936 26 14 C26 14.33 26 14.66 26 15 C25.685 15.028 25.685 15.028 24.092 15.168 C21.207 15.422 18.322 15.68 15.438 15.938 C14.447 16.025 13.456 16.112 12.436 16.201 C-2.282 17.521 -2.282 17.521 -6 20 C-9.781 19.716 -12.13 17.578 -15 15.25 C-15.846 14.575 -16.691 13.899 -17.562 13.203 C-20.024 10.978 -22.003 8.644 -24 6 C-22.125 5.375 -22.125 5.375 -20 5 C-19.34 5.66 -18.68 6.32 -18 7 C-15.312 7.5 -15.312 7.5 -12 7 C-10.001 5.608 -8.279 4.09 -6.516 2.41 C-4.199 0.255 -3.23 0 0 0 Z " fill="#E7D9C7" transform="translate(133,118)"/>
<path d="M0 0 C2.938 0.812 2.938 0.812 6 2 C7.103 5.308 8.051 8.646 9 12 C7.25 13.125 7.25 13.125 5 14 C2.75 13.125 2.75 13.125 1 12 C1.804 12.577 2.609 13.155 3.438 13.75 C5.979 15.981 6.651 16.745 7 20 C7 19.34 7 18.68 7 18 C12.75 18.75 12.75 18.75 15 21 C14.625 23.625 14.625 23.625 14 26 C12.35 25.67 10.7 25.34 9 25 C9 25.66 9 26.32 9 27 C9.619 27.144 10.237 27.289 10.875 27.438 C13 28 13 28 15 29 C16.375 29.083 17.755 29.107 19.133 29.098 C19.938 29.094 20.744 29.091 21.574 29.088 C22.416 29.08 23.258 29.071 24.125 29.062 C24.55 29.06 24.55 29.06 26.699 29.049 C28.8 29.037 30.9 29.019 33 29 C33.66 27.68 34.32 26.36 35 25 C35.165 25.66 35.165 25.66 36 29 C29.766 33.458 22.325 33.178 15 32 C6.91 29.748 -0.335 26.271 -6 20 C-5.34 20 -4.68 20 -4 20 C-4 17 -4 17 -5.5 15.312 C-5.748 15.096 -5.748 15.096 -7 14 C-5.333 10.667 -3.667 7.333 -2 4 C-1.34 4 -0.68 4 0 4 C0 2.68 0 1.36 0 0 Z " fill="#D69F29" transform="translate(95,118)"/>
<path d="M0 0 C12.206 0.03 22.384 2.816 32.795 9.38 C32.135 10.04 31.475 10.7 30.795 11.38 C31.17 14.005 31.17 14.005 31.795 16.38 C23.305 17.032 17.606 17.178 10.823 11.771 C8.573 10.228 7.174 9.91 4.483 9.693 C0.653 9.368 -0.431 8.846 -3.205 6.38 C-4.195 6.05 -5.185 5.72 -6.205 5.38 C-6.205 4.72 -6.205 4.06 -6.205 3.38 C-4.885 3.05 -3.565 2.72 -2.205 2.38 C-3.855 2.38 -5.505 2.38 -7.205 2.38 C-4.768 -0.057 -3.338 0.075 0 0 Z " fill="#687A3F" transform="translate(88.204833984375,53.619873046875)"/>
<path d="M0 0 C3.96 0 7.92 0 12 0 C9.082 7.296 4.989 9.739 -2 13 C-2.99 13.33 -3.98 13.66 -5 14 C-5.33 14.495 -5.33 14.495 -7 17 C-10.3 16.01 -13.6 15.02 -17 14 C-17 13.34 -17 12.68 -17 12 C-18.031 12.248 -19.062 12.495 -20.125 12.75 C-24.865 13.056 -26.448 12.044 -30 9 C-30.33 8.01 -30.66 7.02 -31 6 C-28.018 5.006 -26.173 4.909 -23.07 4.973 C-22.59 4.979 -22.59 4.979 -20.16 5.01 C-18.144 5.045 -16.129 5.084 -14.113 5.127 C-13.15 5.138 -12.187 5.149 -11.195 5.16 C-10.319 5.177 -9.443 5.194 -8.54 5.211 C-5.644 4.97 -3.571 4.353 -1 3 C-0.67 2.01 -0.34 1.02 0 0 Z " fill="#DFB644" transform="translate(49,74)"/>
<path d="M0 0 C1.75 0.125 1.75 0.125 4 1 C8 6.111 8 6.111 8 10 C8.548 10.251 9.096 10.503 9.66 10.762 C15.552 13.88 21.386 18.112 26 22.938 C28 25 28 25 31 26 C31.165 27.155 31.165 27.155 32 33 C28.244 31.748 27.69 30.395 25.562 27.125 C21.486 20.869 21.486 20.869 18 19 C15.422 19.145 15.422 19.145 12.75 19.812 C12.304 19.919 12.304 19.919 10.047 20.457 C9.709 20.547 9.709 20.547 8 21 C8 21.99 8 22.98 8 24 C8.66 23.67 9.32 23.34 10 23 C9.691 23.969 9.381 24.939 9.062 25.938 C7.82 30.237 7.383 34.553 7 39 C6.67 39 6.34 39 6 39 C6 36.03 6 33.06 6 30 C4.68 29.34 3.36 28.68 2 28 C0.25 26.375 0.25 26.375 -1 25 C0.65 25 2.3 25 4 25 C4.66 23.02 5.32 21.04 6 19 C4.68 18.67 3.36 18.34 2 18 C2 16.68 2 15.36 2 14 C1.34 14 0.68 14 0 14 C0 13.01 0 12.02 0 11 C-0.33 11 -0.66 11 -1 11 C-1.33 8.69 -1.66 6.38 -2 4 C-1.01 4.33 -0.02 4.66 1 5 C0.67 3.35 0.34 1.7 0 0 Z " fill="#9E8021" transform="translate(69,81)"/>
<path d="M0 0 C0.49 0.139 0.49 0.139 2.973 0.84 C12.388 3.4 21.237 4.719 31 5 C24.715 12.089 13.869 14.096 5 16 C3.952 14.858 2.938 13.685 1.938 12.5 C1.369 11.85 0.801 11.201 0.215 10.531 C-1.598 6.754 -0.75 4.079 0 0 Z " fill="#C58012" transform="translate(103,109)"/>
<path d="M0 0 C2.31 0.33 4.62 0.66 7 1 C7 1.66 7 2.32 7 3 C7.66 3 8.32 3 9 3 C9.66 2.34 10.32 1.68 11 1 C10.859 3.771 10.713 6.542 10.562 9.312 C10.523 10.098 10.484 10.884 10.443 11.693 C10.401 12.451 10.36 13.208 10.316 13.988 C10.298 14.337 10.298 14.337 10.205 16.099 C10 18 10 18 9 21 C8.956 22.687 8.96 24.375 9 26.062 C9.111 30.778 9.111 30.778 8 33 C7.34 33 6.68 33 6 33 C5.67 33.66 5.34 34.32 5 35 C2 34 2 34 -1 32 C-0.861 31.74 -0.861 31.74 -0.16 30.426 C3.637 23.115 3.637 23.115 4 19 C3.67 18.34 3.34 17.68 3 17 C3.66 17 4.32 17 5 17 C5 16.34 5 15.68 5 15 C4.34 15 3.68 15 3 15 C3 14.34 3 13.68 3 13 C2.01 12.67 1.02 12.34 0 12 C0 8.04 0 4.08 0 0 Z " fill="#927D23" transform="translate(58,54)"/>
<path d="M0 0 C3.436 1.527 6.119 3.599 9 6 C8.34 5.01 7.68 4.02 7 3 C11.695 4.896 14.987 8.572 18.578 12.012 C21.227 14.507 23.602 16.628 27 18 C30 16 30 16 30.477 13.977 C30.526 13.201 30.575 12.425 30.625 11.625 C30.835 8.629 31.193 5.897 32 3 C33.348 5.697 33.169 7.866 33.188 10.875 C33.202 11.924 33.216 12.974 33.23 14.055 C33.005 16.935 32.49 18.562 31 21 C26.25 21.125 26.25 21.125 24 20 C24.33 20.33 24.66 20.66 25 21 C25.041 22.666 25.043 24.334 25 26 C19.014 22.304 13.305 18.625 8 14 C7.34 13.67 6.68 13.34 6 13 C5.593 10.678 5.256 8.343 5 6 C4.01 5.67 3.02 5.34 2 5 C0.312 3.438 0.312 3.438 -1 2 C-0.67 1.34 -0.34 0.68 0 0 Z " fill="#747F35" transform="translate(77,75)"/>
<path d="M0 0 C6.558 0.279 11.122 2.608 16 7 C19.389 11.284 21.808 15.145 22.375 20.625 C22.251 21.409 22.127 22.192 22 23 C21.01 22.67 20.02 22.34 19 22 C19 21.34 19 20.68 19 20 C16.69 19.67 14.38 19.34 12 19 C12.33 18.34 12.66 17.68 13 17 C13.66 17 14.32 17 15 17 C15 16.34 15 15.68 15 15 C14.01 15.33 13.02 15.66 12 16 C9.633 14.621 7.537 12.996 5.352 11.348 C2.661 9.806 1.05 9.736 -2 10 C-2 9.34 -2 8.68 -2 8 C-2.66 8 -3.32 8 -4 8 C-4.33 8.99 -4.66 9.98 -5 11 C-5.33 10.34 -5.66 9.68 -6 9 C-5.526 8.402 -5.051 7.804 -4.562 7.188 C-3 5 -3 5 -2 2 C2.973 2.497 6.638 3.553 11 6 C9.728 5.378 8.457 4.752 7.188 4.125 C6.48 3.777 5.772 3.429 5.043 3.07 C3 2 3 2 0 0 Z " fill="#AA9E39" transform="translate(46,35)"/>
<path d="M0 0 C0 0.99 0 1.98 0 3 C-0.66 3 -1.32 3 -2 3 C-2 3.66 -2 4.32 -2 5 C-2.33 5.165 -2.33 5.165 -4 6 C-3.773 6.866 -3.546 7.733 -3.312 8.625 C-2.933 12.725 -3.971 14.488 -6 18 C-6.33 18.99 -6.66 19.98 -7 21 C-7.99 21 -8.98 21 -10 21 C-10.33 21.66 -10.66 22.32 -11 23 C-11.625 20.688 -11.625 20.688 -12 18 C-11.34 17.01 -10.68 16.02 -10 15 C-12.61 16.305 -12.681 17.358 -13.625 20.062 C-13.885 20.796 -14.146 21.529 -14.414 22.285 C-14.607 22.851 -14.801 23.417 -15 24 C-15.33 24 -15.66 24 -16 24 C-16 21.36 -16 18.72 -16 16 C-16.66 16 -17.32 16 -18 16 C-18.647 11.686 -17.845 9.249 -15.438 5.75 C-11.284 0.617 -6.458 -0.391 0 0 Z " fill="#CB9F2D" transform="translate(37,99)"/>
<path d="M0 0 C2 1 2 1 3 3 C4.98 3 6.96 3 9 3 C9.33 3.66 9.66 4.32 10 5 C9.34 5 8.68 5 8 5 C8.33 7.31 8.66 9.62 9 12 C8.175 11.835 8.175 11.835 4 11 C4 12.32 4 13.64 4 15 C5.155 14.835 5.155 14.835 11 14 C11 14.66 11 15.32 11 16 C11.66 16.33 12.32 16.66 13 17 C3.505 17.723 -2.568 16.599 -9.887 10.402 C-11.562 8.812 -11.562 8.812 -14 6 C-14 5.34 -14 4.68 -14 4 C-10.656 4.557 -7.967 5.352 -5 7 C-5.66 5.35 -6.32 3.7 -7 2 C-4.614 2.576 -2.333 3.222 0 4 C0 2.68 0 1.36 0 0 Z " fill="#978634" transform="translate(148,113)"/>
<path d="M0 0 C1.746 3.216 2.204 5.32 2 9 C3.65 9.33 5.3 9.66 7 10 C4 11 4 11 1 10 C1 10.66 1 11.32 1 12 C1.99 12.165 1.99 12.165 7 13 C6.67 13.165 6.67 13.165 5 14 C5.933 15.752 6.872 17.502 7.812 19.25 C8.335 20.225 8.857 21.199 9.395 22.203 C12.826 28.181 17.325 32.639 22.625 37 C25.452 39.378 27.329 41.658 29 45 C25.607 43.483 22.985 41.486 20.125 39.125 C17.35 36.847 14.794 34.88 11.688 33.062 C8.322 30.48 6.979 27.712 5.176 23.926 C4 22 4 22 1 21 C1.33 22.65 1.66 24.3 2 26 C1.01 25.67 0.02 25.34 -1 25 C-2.572 21.857 -2.232 18.442 -2 15 C-1.67 14.01 -1.34 13.02 -1 12 C-0.777 9.941 -0.593 7.878 -0.438 5.812 C-0.354 4.726 -0.27 3.639 -0.184 2.52 C-0.123 1.688 -0.062 0.857 0 0 Z " fill="#452F07" transform="translate(68,60)"/>
<path d="M0 0 C2.975 0.235 4.571 0.615 6.812 2.625 C8.509 6.017 8.526 8.255 8 12 C5.525 15.421 4.117 16.795 -0.062 17.562 C-3 17 -3 17 -5.375 15.438 C-7.6 12.101 -7.5 9.931 -7 6 C-5.5 4.062 -5.5 4.062 -4 3 C-3.67 3.66 -3.34 4.32 -3 5 C-2.01 5.33 -1.02 5.66 0 6 C-0.093 5.598 -0.093 5.598 -0.562 3.562 C-0.707 2.717 -0.851 1.871 -1 1 C-0.67 0.67 -0.34 0.34 0 0 Z " fill="#14110B" transform="translate(45,52)"/>
<path d="M0 0 C1.938 0.468 3.874 0.947 5.789 1.5 C8.003 2.001 9.746 2.018 12 1.875 C16.638 1.738 20.182 3.469 24 6 C25.027 6.972 26.036 7.965 27 9 C26.67 9.66 26.34 10.32 26 11 C21.701 11.909 18.251 12.159 14 11 C14.33 10.01 14.66 9.02 15 8 C12.69 7.34 10.38 6.68 8 6 C7.67 7.98 7.34 9.96 7 12 C5.667 11.333 4.333 10.667 3 10 C2.278 9.752 1.556 9.505 0.812 9.25 C-1 8 -1 8 -1.875 5 C-1.916 4.01 -1.958 3.02 -2 2 C-1.34 1.34 -0.68 0.68 0 0 Z " fill="#F0B849" transform="translate(47,102)"/>
<path d="M0 0 C1.66 1.094 1.66 1.094 4.098 3.031 C1.098 3.031 1.098 3.031 -2.34 1.531 C-5.902 0.031 -5.902 0.031 -9.902 0.031 C-10.232 0.691 -10.562 1.351 -10.902 2.031 C-10.242 2.361 -9.582 2.691 -8.902 3.031 C-9.892 3.361 -10.882 3.691 -11.902 4.031 C-11.902 4.361 -11.902 4.691 -11.902 5.031 C-11.242 5.031 -10.582 5.031 -9.902 5.031 C-9.902 5.691 -9.902 6.351 -9.902 7.031 C-9.242 7.361 -8.582 7.691 -7.902 8.031 C-8.232 8.196 -8.232 8.196 -9.902 9.031 C-9.36 9.213 -8.817 9.395 -8.258 9.582 C-7.542 9.833 -6.827 10.085 -6.09 10.344 C-5.382 10.587 -4.674 10.831 -3.945 11.082 C-1.758 12.098 -0.493 13.239 1.098 15.031 C0.768 15.691 0.438 16.351 0.098 17.031 C-0.583 16.351 -1.264 15.67 -1.965 14.969 C-4.902 13.031 -4.902 13.031 -8.402 13.031 C-12.111 14.091 -14.114 15.412 -16.902 18.031 C-16.902 16.051 -16.902 14.071 -16.902 12.031 C-17.521 11.907 -18.14 11.784 -18.777 11.656 C-20.902 11.031 -20.902 11.031 -22.902 9.031 C-22.564 5.648 -21.285 3.414 -18.902 1.031 C-12.948 -2.387 -6.249 -3.182 0 0 Z " fill="#A38332" transform="translate(53.90234375,37.96875)"/>
<path d="M0 0 C2.938 0.812 2.938 0.812 6 2 C7.103 5.308 8.051 8.646 9 12 C7.25 13.125 7.25 13.125 5 14 C2.75 13.125 2.75 13.125 1 12 C1.825 12.66 1.825 12.66 6 16 C5.67 17.65 5.34 19.3 5 21 C1.56 20.388 -0.516 19.079 -3.25 16.938 C-3.956 16.39 -4.663 15.842 -5.391 15.277 C-5.922 14.856 -6.453 14.434 -7 14 C-5.333 10.667 -3.667 7.333 -2 4 C-1.34 4 -0.68 4 0 4 C0 2.68 0 1.36 0 0 Z " fill="#9D8D37" transform="translate(95,118)"/>
<path d="M0 0 C0.825 0.33 0.825 0.33 5 2 C4.67 2.99 4.34 3.98 4 5 C4.777 6.824 4.777 6.824 5.938 8.688 C6.278 9.234 6.278 9.234 8 12 C7.835 10.907 7.67 9.814 7.5 8.688 C7 5 7 5 7 2 C16.313 14.681 16.313 14.681 17.438 21.75 C17 24 17 24 15.312 25.875 C12.412 27.286 11.06 26.741 8 26 C7.921 25.553 7.921 25.553 7.52 23.289 C6.157 16.226 4.518 10.179 0.988 3.891 C0 2 0 2 0 0 Z " fill="#57682D" transform="translate(125,75)"/>
<path d="M0 0 C1.719 1.645 1.719 1.645 3.5 3.812 C5.583 6.32 7.655 8.734 10 11 C1.749 11.141 -6.404 10.789 -14.629 10.219 C-16.749 10.081 -18.875 10 -21 10 C-22.688 8 -22.688 8 -24 6 C-22.125 5.375 -22.125 5.375 -20 5 C-19.34 5.66 -18.68 6.32 -18 7 C-15.312 7.5 -15.312 7.5 -12 7 C-10.001 5.608 -8.279 4.09 -6.516 2.41 C-4.199 0.255 -3.23 0 0 0 Z " fill="#F8F5ED" transform="translate(133,118)"/>
<path d="M0 0 C1.65 0.99 3.3 1.98 5 3 C4.125 7.75 4.125 7.75 3 10 C3.66 10 4.32 10 5 10 C5 11.32 5 12.64 5 14 C6.32 14.33 7.64 14.66 9 15 C8.188 17.937 8.188 17.937 7 21 C3.867 22.044 3.01 21.934 0 21 C0 20.34 0 19.68 0 19 C-0.99 18.67 -1.98 18.34 -3 18 C-2.01 16.02 -1.02 14.04 0 12 C-1.32 11.67 -2.64 11.34 -4 11 C-4 10.34 -4 9.68 -4 9 C-4.33 8.67 -4.66 8.34 -5 8 C-5.124 7.34 -5.248 6.68 -5.375 6 C-5.478 5.67 -5.478 5.67 -6 4 C-6.99 3.67 -7.98 3.34 -9 3 C-7.68 2.34 -6.36 1.68 -5 1 C-4.67 1.66 -4.34 2.32 -4 3 C-2.68 2.67 -1.36 2.34 0 2 C0 1.34 0 0.68 0 0 Z " fill="#A2841F" transform="translate(66,85)"/>
<path d="M0 0 C6.717 -0.707 6.717 -0.707 9.914 1.055 C13.862 4.272 16.486 7.935 18.957 12.363 C20 14 20 14 22 15 C21.67 13.02 21.34 11.04 21 9 C22.32 9.33 23.64 9.66 25 10 C24.34 12.64 23.68 15.28 23 18 C22.67 17.34 22.34 16.68 22 16 C21.01 16.99 20.02 17.98 19 19 C15.562 17.75 15.562 17.75 12 16 C11.062 13.812 11.062 13.812 11 12 C10.67 12.99 10.34 13.98 10 15 C8.68 15 7.36 15 6 15 C6.875 10.25 6.875 10.25 8 8 C7.34 8 6.68 8 6 8 C5.447 5.924 5 4.156 5 2 C3.35 1.67 1.7 1.34 0 1 C0 0.67 0 0.34 0 0 Z " fill="#796A1B" transform="translate(79,99)"/>
<path d="M0 0 C0.66 0 1.32 0 2 0 C1.67 1.98 1.34 3.96 1 6 C2.32 6 3.64 6 5 6 C5.33 6.66 5.66 7.32 6 8 C6.99 8.33 7.98 8.66 9 9 C8.67 9.99 8.34 10.98 8 12 C7.34 11.67 6.68 11.34 6 11 C6 11.66 6 12.32 6 13 C7.32 13.33 8.64 13.66 10 14 C10 15.65 10 17.3 10 19 C9.01 18.67 8.02 18.34 7 18 C6.67 18.99 6.34 19.98 6 21 C5.34 21 4.68 21 4 21 C4 20.34 4 19.68 4 19 C4.66 19 5.32 19 6 19 C6 18.34 6 17.68 6 17 C4.68 16.67 3.36 16.34 2 16 C2 16.66 2 17.32 2 18 C-0.465 17.632 -1.669 17.409 -3.266 15.434 C-5.779 10.337 -6.405 6.675 -6 1 C-5.34 1 -4.68 1 -4 1 C-3.67 2.65 -3.34 4.3 -3 6 C-2.01 4.02 -1.02 2.04 0 0 Z " fill="#BE992B" transform="translate(25,114)"/>
<path d="M0 0 C2.018 0.065 4.036 0.13 6.055 0.195 C6.055 2.195 6.055 4.195 6.055 6.195 C6.715 6.195 7.375 6.195 8.055 6.195 C7.395 7.845 6.735 9.495 6.055 11.195 C5.725 10.205 5.395 9.215 5.055 8.195 C4.395 8.195 3.735 8.195 3.055 8.195 C3.529 9.082 4.003 9.969 4.492 10.883 C5.855 13.773 6.694 16.043 7.055 19.195 C6.055 20.195 6.055 20.195 3.742 20.383 C0.977 20.19 -0.586 19.594 -2.945 18.195 C-3.125 12.976 -2.916 9.123 -0.945 4.195 C-1.275 4.36 -1.275 4.36 -2.945 5.195 C-3.275 4.205 -3.605 3.215 -3.945 2.195 C-1.945 0.195 -1.945 0.195 0 0 Z " fill="#C2A73E" transform="translate(78.9453125,100.8046875)"/>
<path d="M0 0 C0.33 0.66 0.66 1.32 1 2 C3.062 3.125 3.062 3.125 5 4 C5 4.99 5 5.98 5 7 C0.03 9.434 -3.346 10.346 -9 10 C-9 10.33 -9 10.66 -9 11 C-12.96 11 -16.92 11 -21 11 C-21.66 9.02 -22.32 7.04 -23 5 C-22.371 5.012 -21.742 5.023 -21.094 5.035 C-5.369 5.201 -5.369 5.201 0 0 Z " fill="#586727" transform="translate(144,98)"/>
<path d="M0 0 C0.851 0.003 1.702 0.006 2.578 0.01 C3.468 0.018 4.357 0.027 5.273 0.035 C6.171 0.04 7.068 0.044 7.992 0.049 C10.211 0.061 12.43 0.077 14.648 0.098 C12.209 2.537 9.972 3.315 6.773 4.598 C0.881 6.972 0.881 6.972 -1.594 8.309 C-2.174 8.569 -2.754 8.829 -3.352 9.098 C-5.602 8.223 -5.602 8.223 -7.352 7.098 C-7.352 6.438 -7.352 5.778 -7.352 5.098 C-8.672 5.098 -9.992 5.098 -11.352 5.098 C-10.692 5.428 -10.032 5.758 -9.352 6.098 C-9.539 7.91 -9.539 7.91 -10.352 10.098 C-12.914 11.848 -12.914 11.848 -15.352 13.098 C-15.682 11.778 -16.012 10.458 -16.352 9.098 C-17.342 9.428 -18.332 9.758 -19.352 10.098 C-17.885 6.231 -16.008 4.926 -12.352 3.098 C-10.364 2.396 -8.365 1.724 -6.352 1.098 C-4.003 -0.077 -2.614 -0.017 0 0 Z " fill="#878845" transform="translate(33.3515625,33.90234375)"/>
<path d="M0 0 C3.387 1.855 4.622 4.191 6.625 7.438 C10.365 9.307 15.093 8.744 19.125 7.938 C19.62 7.773 20.115 7.608 20.625 7.438 C20.625 8.097 20.625 8.757 20.625 9.438 C21.285 10.097 21.945 10.757 22.625 11.438 C15.92 11.636 9.973 11.746 3.625 9.438 C2.938 11.928 2.625 13.816 2.625 16.438 C1.673 18.461 0.677 20.464 -0.375 22.438 C-0.705 21.448 -1.035 20.457 -1.375 19.438 C-2.365 19.108 -3.355 18.778 -4.375 18.438 C-4.375 17.778 -4.375 17.118 -4.375 16.438 C-3.715 16.108 -3.055 15.778 -2.375 15.438 C-3.339 4.879 -3.339 4.879 -4.375 0.438 C-2.375 -0.562 -2.375 -0.562 0 0 Z " fill="#8F7419" transform="translate(43.375,93.5625)"/>
<path d="M0 0 C1.75 0.125 1.75 0.125 4 1 C8 6.111 8 6.111 8 10 C8.578 10.248 9.155 10.495 9.75 10.75 C12.3 12.167 14.018 13.876 16 16 C14.185 16.33 14.185 16.33 5 18 C5 17.34 5 16.68 5 16 C4.01 16 3.02 16 2 16 C2 15.34 2 14.68 2 14 C1.34 14 0.68 14 0 14 C0 13.01 0 12.02 0 11 C-0.33 11 -0.66 11 -1 11 C-1.33 8.69 -1.66 6.38 -2 4 C-1.01 4.33 -0.02 4.66 1 5 C0.67 3.35 0.34 1.7 0 0 Z " fill="#8C6F16" transform="translate(69,81)"/>
<path d="M0 0 C0.268 0.155 0.268 0.155 1.625 0.938 C4.398 2.178 7 2.591 10 3 C9.67 3.99 9.34 4.98 9 6 C11.64 6.99 14.28 7.98 17 9 C17 7.68 17 6.36 17 5 C18.98 5 20.96 5 23 5 C23 5.66 23 6.32 23 7 C21.68 7.33 20.36 7.66 19 8 C19 8.66 19 9.32 19 10 C21.64 10.66 24.28 11.32 27 12 C26.67 11.01 26.34 10.02 26 9 C27.65 9.66 29.3 10.32 31 11 C28.005 12.996 26.516 13.665 23 14 C20.188 13.062 20.188 13.062 18 12 C17.67 13.65 17.34 15.3 17 17 C19.31 17.33 21.62 17.66 24 18 C24.33 17.01 24.66 16.02 25 15 C25.33 16.32 25.66 17.64 26 19 C28.97 18.67 31.94 18.34 35 18 C34.67 18.66 34.34 19.32 34 20 C31.124 20.081 28.251 20.141 25.375 20.188 C24.567 20.213 23.759 20.238 22.926 20.264 C17.823 20.326 14.469 19.755 10 17 C10 16.34 10 15.68 10 15 C11.65 15 13.3 15 15 15 C14.67 13.35 14.34 11.7 14 10 C12.02 9.34 10.04 8.68 8 8 C8 8.66 8 9.32 8 10 C7.34 9.67 6.68 9.34 6 9 C5.897 8.423 5.794 7.845 5.688 7.25 C4.684 3.965 2.48 2.289 0 0 Z " fill="#D7AE3D" transform="translate(94,128)"/>
<path d="M0 0 C2.438 -0.027 4.875 -0.047 7.312 -0.062 C8.003 -0.071 8.693 -0.079 9.404 -0.088 C12.548 -0.103 14.994 -0.002 18 1 C20.061 1.069 22.125 1.085 24.188 1.062 C25.274 1.053 26.361 1.044 27.48 1.035 C28.312 1.024 29.143 1.012 30 1 C29.67 1.66 29.34 2.32 29 3 C28.672 2.997 28.672 2.997 27.012 2.984 C24.05 2.963 21.087 2.95 18.125 2.938 C17.092 2.929 16.06 2.921 14.996 2.912 C14.01 2.909 13.024 2.906 12.008 2.902 C11.097 2.897 10.185 2.892 9.247 2.886 C7 3 7 3 5 4 C5 4.66 5 5.32 5 6 C9.018 8.411 13.352 9 18 9 C18 9.66 18 10.32 18 11 C24.844 12.823 29.229 12.985 36 11 C38.227 11.434 38.227 11.434 40 12 C38.585 12.65 37.168 13.295 35.75 13.938 C34.961 14.297 34.172 14.657 33.359 15.027 C31.221 15.909 29.28 16.615 27 17 C26.34 16.67 25.68 16.34 25 16 C24.01 15.732 23.02 15.464 22 15.188 C11.928 12.322 5.452 9.304 0 0 Z " fill="#AC8832" transform="translate(14,77)"/>
<path d="M0 0 C1.65 0.33 3.3 0.66 5 1 C5.108 3.772 5.187 6.54 5.25 9.312 C5.267 9.705 5.267 9.705 5.352 11.693 C5.451 17.514 5.451 17.514 3.133 20.012 C0.374 21.29 -0.986 21.574 -4 21 C-6.214 19.493 -8.028 17.835 -10 16 C-9.34 15.67 -8.68 15.34 -8 15 C-8 14.34 -8 13.68 -8 13 C-6.68 13.33 -5.36 13.66 -4 14 C-4 14.66 -4 15.32 -4 16 C-4.66 16 -5.32 16 -6 16 C-6 16.66 -6 17.32 -6 18 C-5.546 17.505 -5.093 17.01 -4.625 16.5 C-3 15 -3 15 -1 15 C-0.67 13.68 -0.34 12.36 0 11 C0.66 11 1.32 11 2 11 C2.33 9.35 2.66 7.7 3 6 C2.34 6 1.68 6 1 6 C0.67 7.32 0.34 8.64 0 10 C0 6.7 0 3.4 0 0 Z " fill="#9E8329" transform="translate(35,117)"/>
<path d="M0 0 C0.225 0.17 0.225 0.17 1.363 1.031 C2.007 1.516 2.65 2.001 3.312 2.5 C4.032 3.043 4.751 3.585 5.492 4.145 C7.293 5.477 9.113 6.784 10.945 8.074 C11.933 8.772 12.92 9.469 13.938 10.188 C14.875 10.841 15.812 11.495 16.777 12.168 C19 14 19 14 20 17 C20.99 16.67 21.98 16.34 23 16 C25.043 16.559 25.043 16.559 27.188 17.438 C27.903 17.725 28.618 18.012 29.355 18.309 C29.898 18.537 30.441 18.765 31 19 C30.34 19.66 29.68 20.32 29 21 C29.66 21.33 30.32 21.66 31 22 C31 22.66 31 23.32 31 24 C25.139 22.721 19.115 21.247 14 18 C12.875 16.012 12.875 16.012 12 14 C8.001 9.648 3.474 5.852 -1 2 C-0.67 1.34 -0.34 0.68 0 0 Z " fill="#5C5512" transform="translate(82,88)"/>
<path d="M0 0 C1.98 0 3.96 0 6 0 C6.33 0.66 6.66 1.32 7 2 C6.34 2 5.68 2 5 2 C5 2.66 5 3.32 5 4 C12.955 4.133 12.955 4.133 17 3 C18 4 18 4 18.125 7.438 C18 11 18 11 17 13 C10.946 12.566 7.533 11.065 3.438 6.5 C0 2.372 0 2.372 0 0 Z " fill="#DA962B" transform="translate(56,109)"/>
<path d="M0 0 C1.242 0.559 2.493 1.1 3.75 1.625 C4.823 2.079 5.895 2.532 7 3 C6.67 3.66 6.34 4.32 6 5 C5.34 5 4.68 5 4 5 C4 5.66 4 6.32 4 7 C-2.908 8.507 -6.829 7.328 -13 4 C-12.211 2.086 -12.211 2.086 -11 0 C-6.559 -1.809 -4.067 -2.669 0 0 Z " fill="#7D8C48" transform="translate(106,57)"/>
<path d="M0 0 C0.66 1.32 1.32 2.64 2 4 C2.66 3.67 3.32 3.34 4 3 C5.54 2.93 7.083 2.915 8.625 2.938 C9.034 2.942 9.034 2.942 11.102 2.965 C11.415 2.971 11.415 2.971 13 3 C11.427 9.36 11.427 9.36 10 12 C7.438 12.875 7.438 12.875 5 13 C4.67 12.67 4.34 12.34 4 12 C2.68 13.65 1.36 15.3 0 17 C-2.379 12.242 -1.334 5.004 0 0 Z " fill="#BFAA52" transform="translate(12,44)"/>
<path d="M0 0 C4.254 2.488 4.254 2.488 6 5 C6.756 8.142 6.695 10.85 6 14 C4 17.062 4 17.062 2 19 C1.34 18.67 0.68 18.34 0 18 C0.495 17.484 0.99 16.969 1.5 16.438 C3.554 13.1 3.413 10.856 3 7 C1.5 4.562 1.5 4.562 0 3 C-1.32 3.33 -2.64 3.66 -4 4 C-4 5.32 -4 6.64 -4 8 C-7.875 7.125 -7.875 7.125 -9 6 C-10.525 9.05 -10.236 11.642 -10 15 C-8.04 17.991 -5.302 18.84 -2 20 C-2 20.33 -2 20.66 -2 21 C-6.425 20.83 -8.387 20.644 -11.5 17.375 C-13.353 13.205 -13.321 11.351 -12 7 C-8.868 2.15 -5.988 -0.817 0 0 Z " fill="#D6D2B8" transform="translate(49,50)"/>
<path d="M0 0 C1.485 0.33 1.485 0.33 9 2 C8.01 2.33 7.02 2.66 6 3 C6.66 4.65 7.32 6.3 8 8 C9.792 8.027 11.583 8.046 13.375 8.062 C13.874 8.068 13.874 8.068 16.398 8.098 C19 8 19 8 21 7 C22.414 6.847 23.831 6.726 25.25 6.625 C29.375 6.219 32.395 5.126 36 3 C34.798 6.606 33.275 7.273 30.082 9.133 C24.803 11.331 19.238 11.128 13.625 11.062 C12.889 11.058 12.153 11.053 11.395 11.049 C9.596 11.037 7.798 11.019 6 11 C6 10.34 6 9.68 6 9 C4.866 8.918 3.731 8.835 2.562 8.75 C-2.334 8.147 -6.735 6.473 -11 4 C-11.33 3.34 -11.66 2.68 -12 2 C-11.305 2.286 -10.61 2.572 -9.895 2.867 C-6.854 4.057 -3.789 5.103 -0.688 6.125 C0.381 6.478 1.45 6.831 2.551 7.195 C3.359 7.461 4.167 7.726 5 8 C4.258 3.227 4.258 3.227 1.938 1.188 C1.298 0.796 0.659 0.404 0 0 Z " fill="#AA9C3D" transform="translate(115,100)"/>
<path d="M0 0 C0.99 0.99 1.98 1.98 3 3 C2.67 3.66 2.34 4.32 2 5 C2.615 5.193 3.23 5.387 3.863 5.586 C4.267 5.716 4.267 5.716 6.312 6.375 C7.113 6.63 7.914 6.885 8.738 7.148 C11 8 11 8 14 10 C14.688 13.625 14.688 13.625 15 17 C17.31 17.33 19.62 17.66 22 18 C19.082 19.945 17.375 20.453 14 21 C13.925 20.313 13.85 19.626 13.773 18.918 C13.37 16.155 12.918 13.64 12 11 C8.875 8.875 8.875 8.875 6 8 C6 9.32 6 10.64 6 12 C5.01 12.33 4.02 12.66 3 13 C0.812 11.875 0.812 11.875 -1 10 C-1.25 7.312 -1.25 7.312 -1 5 C-1.66 4.67 -2.32 4.34 -3 4 C-2.01 4 -1.02 4 0 4 C0 2.68 0 1.36 0 0 Z " fill="#B2A045" transform="translate(89,110)"/>
<path d="M0 0 C5.467 1.748 10.758 3.658 16 6 C16 7.65 16 9.3 16 11 C14.081 10.574 12.165 10.134 10.25 9.688 C9.183 9.444 8.115 9.2 7.016 8.949 C4.044 8.014 2.236 7.15 0 5 C-0.25 2.312 -0.25 2.312 0 0 Z " fill="#65782D" transform="translate(104,97)"/>
<path d="M0 0 C3.352 0.559 6.025 1.358 9 3 C9.66 3.33 10.32 3.66 11 4 C12.125 6.062 12.125 6.062 13 8 C14.32 8 15.64 8 17 8 C17.33 8.66 17.66 9.32 18 10 C20.31 10 22.62 10 25 10 C25 10.66 25 11.32 25 12 C25.66 12.33 26.32 12.66 27 13 C17.505 13.723 11.432 12.599 4.113 6.402 C2.438 4.812 2.438 4.812 0 2 C0 1.34 0 0.68 0 0 Z " fill="#CA9C2F" transform="translate(134,117)"/>
<path d="M0 0 C4.807 4.095 7.916 9.821 9.938 15.75 C11.092 18.195 12.008 18.902 14.125 20.5 C17 23 17 23 17.375 25.812 C17.251 26.534 17.127 27.256 17 28 C16.518 27.567 16.036 27.134 15.539 26.688 C14.907 26.131 14.276 25.574 13.625 25 C12.999 24.443 12.372 23.886 11.727 23.312 C10 22 10 22 8 22 C7.01 22 6.02 22 5 22 C5.33 21.67 5.66 21.34 6 21 C5.881 14.447 3.847 10.581 0.18 5.199 C-0.21 4.473 -0.599 3.748 -1 3 C-0.67 2.01 -0.34 1.02 0 0 Z " fill="#717A3E" transform="translate(135,78)"/>
<path d="M0 0 C0 0.99 0 1.98 0 3 C-0.99 3.66 -1.98 4.32 -3 5 C-0.03 6.65 2.94 8.3 6 10 C6 10.66 6 11.32 6 12 C3.688 12.25 3.688 12.25 1 12 C-0.812 10 -0.812 10 -2 8 C-1.67 9.98 -1.34 11.96 -1 14 C-3.64 12.68 -6.28 11.36 -9 10 C-9 9.34 -9 8.68 -9 8 C-11 6.375 -11 6.375 -13 5 C-11.969 4.732 -10.938 4.464 -9.875 4.188 C-6.351 3.19 -3.231 1.734 0 0 Z " fill="#625A20" transform="translate(150,105)"/>
<path d="M0 0 C0.578 0.206 1.155 0.413 1.75 0.625 C1.42 0.79 1.42 0.79 -0.25 1.625 C0.437 1.662 1.124 1.7 1.832 1.738 C2.733 1.804 3.634 1.87 4.562 1.938 C5.009 1.967 5.009 1.967 7.27 2.113 C9.75 2.625 9.75 2.625 12.75 5.625 C8.13 5.625 3.51 5.625 -1.25 5.625 C-1.25 6.285 -1.25 6.945 -1.25 7.625 C0.07 7.955 1.39 8.285 2.75 8.625 C1.43 9.945 0.11 11.265 -1.25 12.625 C-2.24 12.295 -3.23 11.965 -4.25 11.625 C-4.91 8.325 -5.57 5.025 -6.25 1.625 C-2.25 -0.375 -2.25 -0.375 0 0 Z " fill="#6B7B43" transform="translate(74.25,57.375)"/>
<path d="M0 0 C2.31 0.33 4.62 0.66 7 1 C7 1.66 7 2.32 7 3 C7.66 3 8.32 3 9 3 C9.66 2.34 10.32 1.68 11 1 C10.515 7.428 10.515 7.428 8.312 9.875 C5.552 11.218 3.038 11.655 0 12 C0 8.04 0 4.08 0 0 Z " fill="#9D8C32" transform="translate(58,54)"/>
<path d="M0 0 C1.312 2.062 1.312 2.062 2 4 C-2.331 4 -4.27 3.034 -8 1 C-8.33 1.66 -8.66 2.32 -9 3 C-9.701 3.082 -10.403 3.165 -11.125 3.25 C-14.243 4.063 -15.152 4.898 -17.438 7.062 C-20.087 9.497 -20.692 9.966 -24.438 10.375 C-25.283 10.251 -26.129 10.127 -27 10 C-27.33 9.01 -27.66 8.02 -28 7 C-27.554 6.831 -27.554 6.831 -25.297 5.977 C-24.126 5.531 -22.956 5.085 -21.75 4.625 C-21.17 4.405 -21.17 4.405 -18.234 3.289 C-15 2 -15 2 -12.762 0.879 C-8.69 -1.153 -4.273 -1.543 0 0 Z " fill="#7C632B" transform="translate(142,116)"/>
<path d="M0 0 C0.848 0.003 1.695 0.006 2.568 0.01 C3.009 0.014 3.009 0.014 5.238 0.035 C5.685 0.037 5.685 0.037 7.943 0.049 C10.146 0.061 12.348 0.077 14.551 0.098 C14.551 0.428 14.551 0.758 14.551 1.098 C9.931 1.428 5.311 1.758 0.551 2.098 C0.551 2.758 0.551 3.418 0.551 4.098 C1.335 4.221 2.118 4.345 2.926 4.473 C5.551 5.098 5.551 5.098 7.551 7.098 C9.539 7.495 11.54 7.835 13.551 8.098 C13.551 8.428 13.551 8.758 13.551 9.098 C11.901 9.098 10.251 9.098 8.551 9.098 C8.369 9.785 8.187 10.472 8 11.18 C7.749 12.081 7.497 12.982 7.238 13.91 C6.995 14.803 6.751 15.697 6.5 16.617 C5.531 19.15 4.601 20.369 2.551 22.098 C2.779 21.434 3.007 20.77 3.242 20.086 C3.53 19.203 3.817 18.32 4.113 17.41 C4.403 16.54 4.693 15.67 4.992 14.773 C5.602 11.851 5.328 9.954 4.551 7.098 C-0.292 5.762 -4.384 4.844 -9.449 5.098 C-8.637 3.16 -8.637 3.16 -7.449 1.098 C-4.625 0.156 -2.92 -0.02 0 0 Z " fill="#A8A457" transform="translate(81.44921875,54.90234375)"/>
<path d="M0 0 C6.558 0.279 11.122 2.608 16 7 C19.389 11.284 21.808 15.145 22.375 20.625 C22.251 21.409 22.127 22.192 22 23 C21.01 22.67 20.02 22.34 19 22 C19 21.34 19 20.68 19 20 C16.69 19.67 14.38 19.34 12 19 C13.25 17.438 13.25 17.438 15 16 C17.188 16.312 17.188 16.312 19 17 C18 14 18 14 15 12 C15 10.68 15 9.36 15 8 C14.67 8.495 14.67 8.495 13 11 C10 7.25 10 7.25 10 5 C8.35 4.34 8.35 4.34 0 1 C0 0.67 0 0.34 0 0 Z " fill="#6E6E37" transform="translate(46,35)"/>
<path d="M0 0 C0 0.99 0 1.98 0 3 C-0.66 3 -1.32 3 -2 3 C-2 3.66 -2 4.32 -2 5 C-4.312 7.188 -4.312 7.188 -7 9 C-7.99 8.67 -8.98 8.34 -10 8 C-10 7.34 -10 6.68 -10 6 C-11.32 6.33 -12.64 6.66 -14 7 C-14.124 7.784 -14.247 8.567 -14.375 9.375 C-15 12 -15 12 -17 14 C-15.701 6.002 -15.701 6.002 -13.25 2.5 C-9.163 -0.225 -4.785 -0.141 0 0 Z " fill="#E0B441" transform="translate(37,99)"/>
<path d="M0 0 C0.99 0.66 1.98 1.32 3 2 C6.96 2.337 9.597 2.094 13 0 C13 0.99 13 1.98 13 3 C13.619 2.814 14.237 2.629 14.875 2.438 C17 2 17 2 19 3 C21.853 3.274 24.706 3.446 27.566 3.621 C27.968 3.684 27.968 3.684 30 4 C30.165 4.33 30.165 4.33 31 6 C22.749 6.141 14.596 5.789 6.371 5.219 C4.251 5.081 2.125 5 0 5 C-1.688 3 -1.688 3 -3 1 C-2.01 0.67 -1.02 0.34 0 0 Z " fill="#F5EFE2" transform="translate(112,123)"/>
<path d="M0 0 C4.695 1.896 7.987 5.572 11.578 9.012 C14.227 11.507 16.602 13.628 20 15 C23 13 23 13 23.477 10.977 C23.526 10.201 23.575 9.425 23.625 8.625 C23.835 5.629 24.193 2.897 25 0 C26.348 2.697 26.169 4.866 26.188 7.875 C26.202 8.924 26.216 9.974 26.23 11.055 C26.005 13.935 25.49 15.562 24 18 C20.384 18.499 19.131 18.09 16.062 15.988 C15.031 15.109 14.01 14.216 13 13.312 C12.492 12.877 11.984 12.442 11.461 11.994 C7.216 8.32 3.123 4.684 0 0 Z " fill="#586A2B" transform="translate(84,78)"/>
<path d="M0 0 C5.04 0.445 7.376 2.713 11 6 C10.67 7.65 10.34 9.3 10 11 C6.56 10.388 4.484 9.079 1.75 6.938 C1.044 6.39 0.337 5.842 -0.391 5.277 C-0.922 4.856 -1.453 4.434 -2 4 C-1.34 2.68 -0.68 1.36 0 0 Z " fill="#79772E" transform="translate(90,128)"/>
<path d="M0 0 C3.3 0 6.6 0 10 0 C3.131 6.869 -6.743 9.013 -16 11 C-16.33 10.01 -16.66 9.02 -17 8 C-15.763 7.897 -14.525 7.794 -13.25 7.688 C-9.64 7.237 -7.749 6.464 -5 4 C-4.093 3.464 -3.185 2.927 -2.25 2.375 C-1.507 1.921 -0.765 1.468 0 1 C0 0.67 0 0.34 0 0 Z " fill="#9F6B1B" transform="translate(124,114)"/>
<path d="M0 0 C2.31 0.66 4.62 1.32 7 2 C7.95 5.695 7.95 8.305 7 12 C5.667 11.333 4.333 10.667 3 10 C2.278 9.752 1.556 9.505 0.812 9.25 C-1 8 -1 8 -1.875 5 C-1.916 4.01 -1.958 3.02 -2 2 C-1.34 1.34 -0.68 0.68 0 0 Z " fill="#DC9827" transform="translate(47,102)"/>
<path d="M0 0 C0.66 0 1.32 0 2 0 C2 1.32 2 2.64 2 4 C3.32 4.33 4.64 4.66 6 5 C5.188 7.938 5.188 7.938 4 11 C0.867 12.044 0.01 11.934 -3 11 C-3 10.34 -3 9.68 -3 9 C-3.99 8.67 -4.98 8.34 -6 8 C-5.05 6.661 -4.089 5.329 -3.125 4 C-2.591 3.257 -2.058 2.515 -1.508 1.75 C-1.01 1.172 -0.513 0.595 0 0 Z " fill="#C49B31" transform="translate(69,95)"/>
<path d="M0 0 C0 7.009 -3.358 13.626 -6 20 C-6.33 20 -6.66 20 -7 20 C-7 17.36 -7 14.72 -7 12 C-7.66 12 -8.32 12 -9 12 C-9 10.02 -9 8.04 -9 6 C-8.34 5.67 -7.68 5.34 -7 5 C-7 5.99 -7 6.98 -7 8 C-6.773 7.237 -6.546 6.474 -6.312 5.688 C-4.733 2.453 -3.167 1.584 0 0 Z " fill="#DFBC59" transform="translate(28,103)"/>
<path d="M0 0 C5.608 1.819 5.608 1.819 8.215 3.023 C17.04 6.858 25.573 6.373 35 6 C35.66 4.68 36.32 3.36 37 2 C37.165 2.66 37.165 2.66 38 6 C31.783 10.446 24.309 10.209 17 9 C11.377 7.36 6.082 4.891 1 2 C0.67 1.34 0.34 0.68 0 0 Z " fill="#A77E35" transform="translate(93,141)"/>
<path d="M0 0 C0.503 1.624 1.003 3.249 1.5 4.875 C1.778 5.78 2.057 6.685 2.344 7.617 C3 10 3 10 3 12 C1.02 12.33 -0.96 12.66 -3 13 C-4.292 8.88 -5.263 5.332 -5 1 C-2 0 -2 0 0 0 Z " fill="#4B5E27" transform="translate(137,89)"/>
<path d="M0 0 C1.65 0.33 3.3 0.66 5 1 C5.103 1.949 5.206 2.898 5.312 3.875 C6 7 6 7 9 9 C8.34 10.98 7.68 12.96 7 15 C2.294 13.552 2.294 13.552 1 11.125 C1 8.255 2.129 7.095 4 5 C2.35 4.67 0.7 4.34 -1 4 C-0.67 2.68 -0.34 1.36 0 0 Z " fill="#7E823E" transform="translate(25,42)"/>
<path d="M0 0 C2.03 1.011 4.056 2.029 6.07 3.07 C6.409 3.244 6.409 3.244 8.125 4.125 C8.467 4.302 8.467 4.302 10.195 5.195 C12 6 12 6 14 6 C14 6.66 14 7.32 14 8 C13.67 8.165 13.67 8.165 12 9 C11.375 11.562 11.375 11.562 11 14 C10.464 13.258 9.928 12.515 9.375 11.75 C5.608 7.389 1.791 4.681 -4 4 C-2.68 2.68 -1.36 1.36 0 0 Z " fill="#E0B92F" transform="translate(47,44)"/>
<path d="M0 0 C1.883 3.767 2.221 5.03 2 9 C3.65 9.33 5.3 9.66 7 10 C4 11 4 11 1 10 C1 10.66 1 11.32 1 12 C1.99 12.165 1.99 12.165 7 13 C6.67 13.165 6.67 13.165 5 14 C5.99 16.31 6.98 18.62 8 21 C4.667 19.333 1.333 17.667 -2 16 C-1.34 10.72 -0.68 5.44 0 0 Z " fill="#46531D" transform="translate(68,60)"/>
<path d="M0 0 C9.927 0.348 9.927 0.348 14.188 2.938 C16 5 16 5 16 7 C16.66 7 17.32 7 18 7 C17.67 7.99 17.34 8.98 17 10 C16.385 9.651 15.77 9.301 15.137 8.941 C14.328 8.486 13.52 8.031 12.688 7.562 C11.887 7.11 11.086 6.658 10.262 6.191 C7.35 4.657 5.31 4 2 4 C2 3.34 2 2.68 2 2 C1.34 2 0.68 2 0 2 C-0.33 2.99 -0.66 3.98 -1 5 C-1.33 4.34 -1.66 3.68 -2 3 C-1.34 2.01 -0.68 1.02 0 0 Z " fill="#7B7433" transform="translate(42,41)"/>
<path d="M0 0 C0 3.3 0 6.6 0 10 C-0.99 10 -1.98 10 -3 10 C-3.66 11.32 -4.32 12.64 -5 14 C-5 13.34 -5 12.68 -5 12 C-5.66 11.67 -6.32 11.34 -7 11 C-6.01 10.67 -5.02 10.34 -4 10 C-4 9.34 -4 8.68 -4 8 C-3.34 8 -2.68 8 -2 8 C-2.66 7.34 -3.32 6.68 -4 6 C-4.99 6.165 -5.98 6.33 -7 6.5 C-7.99 6.665 -8.98 6.83 -10 7 C-10.66 6.34 -11.32 5.68 -12 5 C-8.128 2.209 -4.904 0 0 0 Z " fill="#C49D35" transform="translate(39,94)"/>
<path d="M0 0 C7.768 -0.67 7.768 -0.67 11.5 2.438 C14 5 14 5 14 6 C10.04 6 6.08 6 2 6 C1.34 4.02 0.68 2.04 0 0 Z " fill="#526527" transform="translate(121,103)"/>
<path d="M0 0 C3.387 1.855 4.622 4.191 6.625 7.438 C10.365 9.307 15.093 8.744 19.125 7.938 C19.62 7.773 20.115 7.608 20.625 7.438 C20.625 8.097 20.625 8.757 20.625 9.438 C21.285 10.097 21.945 10.757 22.625 11.438 C13.665 11.841 6.736 11.949 -0.375 5.875 C-2.375 3.438 -2.375 3.438 -2.375 1.438 C-3.035 1.108 -3.695 0.778 -4.375 0.438 C-2.375 -0.562 -2.375 -0.562 0 0 Z " fill="#7E6817" transform="translate(43.375,93.5625)"/>
<path d="M0 0 C3.623 3.788 4.045 8.006 5 13 C8.3 13.66 11.6 14.32 15 15 C15 12.36 15 9.72 15 7 C17.296 10.445 17.54 12.938 18 17 C16.063 17.054 14.125 17.093 12.188 17.125 C11.109 17.148 10.03 17.171 8.918 17.195 C6 17 6 17 3 15 C2.051 12.285 2.051 12.285 1.312 9.062 C1.061 8.002 0.81 6.941 0.551 5.848 C0 3 0 3 0 0 Z " fill="#506425" transform="translate(114,85)"/>
<path d="M0 0 C0.733 0.008 1.466 0.015 2.221 0.023 C2.95 0.016 3.679 0.008 4.43 0 C8.242 0.014 10.041 0.112 13.283 2.273 C12.726 2.407 12.726 2.407 9.908 3.086 C6.283 4.273 6.283 4.273 4.283 7.273 C-0.467 6.398 -0.467 6.398 -2.717 5.273 C-2.717 4.283 -2.717 3.293 -2.717 2.273 C-4.367 2.273 -6.017 2.273 -7.717 2.273 C-5.166 -0.277 -3.482 0.013 0 0 Z " fill="#6F844D" transform="translate(88.716796875,53.7265625)"/>
<path d="M0 0 C2.648 2.578 4.944 4.916 7 8 C7 8.99 7 9.98 7 11 C7.66 11 8.32 11 9 11 C8.67 11.66 8.34 12.32 8 13 C7.01 13 6.02 13 5 13 C4.67 11.68 4.34 10.36 4 9 C3.67 9.99 3.34 10.98 3 12 C1.68 12 0.36 12 -1 12 C-0.125 7.25 -0.125 7.25 1 5 C0.34 5 -0.32 5 -1 5 C-1.33 3.68 -1.66 2.36 -2 1 C-1.34 0.67 -0.68 0.34 0 0 Z " fill="#7B8131" transform="translate(86,102)"/>
<path d="M0 0 C-1.32 3.3 -2.64 6.6 -4 10 C-8 9 -8 9 -10 7 C-9.823 4.254 -9.202 3.202 -7.25 1.25 C-5 0 -5 0 0 0 Z " fill="#948B3D" transform="translate(41,40)"/>
<path d="M0 0 C1.75 0.125 1.75 0.125 4 1 C8 6.111 8 6.111 8 10 C8.99 10.33 9.98 10.66 11 11 C9.188 11.688 9.188 11.688 7 12 C4.514 10.158 3.998 8.995 3 6 C0.489 7.255 0.129 8.501 -1 11 C-1.33 8.69 -1.66 6.38 -2 4 C-1.01 4.33 -0.02 4.66 1 5 C0.67 3.35 0.34 1.7 0 0 Z " fill="#764F06" transform="translate(69,81)"/>
<path d="M0 0 C0.33 0.99 0.66 1.98 1 3 C0.01 3 -0.98 3 -2 3 C-2 4.32 -2 5.64 -2 7 C-4.97 6.01 -7.94 5.02 -11 4 C-7.77 -0.768 -5.542 -1.348 0 0 Z " fill="#6D6D26" transform="translate(113,130)"/>
<path d="M0 0 C4.093 0.52 6.096 1.601 9.062 4.438 C12.652 7.843 12.652 7.843 15.199 8.996 C15.793 9.327 16.388 9.659 17 10 C17.75 13.625 17.75 13.625 18 17 C14.244 15.748 13.69 14.395 11.562 11.125 C8.882 7.011 6.585 3.79 1.75 2.312 C1.172 2.209 0.595 2.106 0 2 C0 1.34 0 0.68 0 0 Z " fill="#976909" transform="translate(83,97)"/>
<path d="M0 0 C0.66 0.33 1.32 0.66 2 1 C2.414 3.285 2.414 3.285 2.625 6.062 C2.7 6.982 2.775 7.901 2.852 8.848 C2.901 9.558 2.95 10.268 3 11 C-0.212 12.071 -2.639 12 -6 12 C-6.33 10.68 -6.66 9.36 -7 8 C-6.01 8 -5.02 8 -4 8 C-3.67 7.34 -3.34 6.68 -3 6 C-2.01 6 -1.02 6 0 6 C0 4.02 0 2.04 0 0 Z " fill="#B58B20" transform="translate(39,98)"/>
<path d="M0 0 C0.949 0.041 1.898 0.082 2.875 0.125 C3.205 0.785 3.535 1.445 3.875 2.125 C3.237 2.474 2.599 2.824 1.941 3.184 C1.115 3.639 0.289 4.094 -0.562 4.562 C-1.386 5.015 -2.21 5.467 -3.059 5.934 C-5.125 7.125 -5.125 7.125 -6.125 8.125 C-8.796 8.266 -11.449 8.167 -14.125 8.125 C-12.111 6.782 -10.09 5.449 -8.062 4.125 C-2.129 0.085 -2.129 0.085 0 0 Z " fill="#C78314" transform="translate(121.125,113.875)"/>
<path d="M0 0 C3.3 0 6.6 0 10 0 C10 1.32 10 2.64 10 4 C11.98 4.66 13.96 5.32 16 6 C15.34 6.66 14.68 7.32 14 8 C11.271 7.967 8.703 7.436 6 7 C6.33 6.01 6.66 5.02 7 4 C4.69 3.34 2.38 2.68 0 2 C0 1.34 0 0.68 0 0 Z " fill="#F3B440" transform="translate(55,106)"/>
<path d="M0 0 C1.66 1.094 1.66 1.094 4.098 3.031 C1.098 3.031 1.098 3.031 -2.34 1.531 C-5.902 0.031 -5.902 0.031 -9.902 0.031 C-10.232 0.691 -10.562 1.351 -10.902 2.031 C-10.242 2.361 -9.582 2.691 -8.902 3.031 C-9.892 3.361 -10.882 3.691 -11.902 4.031 C-12.232 5.681 -12.562 7.331 -12.902 9.031 C-13.892 9.031 -14.882 9.031 -15.902 9.031 C-15.242 7.051 -14.582 5.071 -13.902 3.031 C-15.882 3.031 -17.862 3.031 -19.902 3.031 C-18.446 0.119 -16.174 -0.385 -13.223 -1.422 C-8.66 -2.497 -4.199 -2.138 0 0 Z " fill="#CAB652" transform="translate(53.90234375,37.96875)"/>
<path d="M0 0 C-0.629 0.242 -1.258 0.485 -1.906 0.734 C-7.433 2.899 -12.731 5.268 -18 8 C-18.66 7.34 -19.32 6.68 -20 6 C-19.34 6 -18.68 6 -18 6 C-18 5.34 -18 4.68 -18 4 C-16.687 2.974 -15.353 1.973 -14 1 C-14 0.67 -14 0.34 -14 0 C-12.418 -0.196 -10.834 -0.382 -9.25 -0.562 C-8.809 -0.615 -8.809 -0.615 -6.578 -0.879 C-4.116 -0.995 -2.335 -0.736 0 0 Z " fill="#9D9C4E" transform="translate(48,35)"/>
<path d="M0 0 C3.387 1.439 5.359 3.221 7.75 6 C8.057 6.351 8.057 6.351 9.609 8.125 C11 10 11 10 11 12 C9.35 12.33 7.7 12.66 6 13 C5.67 10.69 5.34 8.38 5 6 C4.01 5.67 3.02 5.34 2 5 C0.312 3.438 0.312 3.438 -1 2 C-0.67 1.34 -0.34 0.68 0 0 Z " fill="#5D7332" transform="translate(77,75)"/>
<path d="M0 0 C0.944 0.422 1.887 0.843 2.859 1.277 C10.965 4.777 18.035 6.967 27 7 C27 7.33 27 7.66 27 8 C24.458 8.027 21.917 8.047 19.375 8.062 C19.019 8.067 19.019 8.067 17.215 8.088 C13.027 8.107 9.127 7.827 5 7 C4.67 5.68 4.34 4.36 4 3 C2.68 2.67 1.36 2.34 0 2 C0 1.34 0 0.68 0 0 Z " fill="#D7C9AE" transform="translate(95,143)"/>
<path d="M0 0 C5.75 0.75 5.75 0.75 8 3 C7.625 5.625 7.625 5.625 7 8 C2.25 7.25 2.25 7.25 0 5 C-0.125 2.375 -0.125 2.375 0 0 Z " fill="#737328" transform="translate(102,136)"/>
<path d="M0 0 C0 0.99 0 1.98 0 3 C-8.041 7.985 -14.665 8.149 -24 8 C-19.208 5.558 -14.819 4.009 -9.438 3.562 C-5.621 3.214 -3.133 2.324 0 0 Z " fill="#91852F" transform="translate(150,103)"/>
<path d="M0 0 C0.33 0 0.66 0 1 0 C2.125 7.75 2.125 7.75 1 10 C0.34 10 -0.32 10 -1 10 C-1.33 10.66 -1.66 11.32 -2 12 C-5 11 -5 11 -8 9 C-7.618 8.722 -7.618 8.722 -5.688 7.312 C-3.036 5.031 -1.68 3.025 0 0 Z " fill="#8B7319" transform="translate(65,77)"/>
<path d="M0 0 C0.66 0 1.32 0 2 0 C1.913 1.459 1.805 2.918 1.688 4.375 C1.629 5.187 1.571 5.999 1.512 6.836 C1 9 1 9 -2 11 C-2.99 11 -3.98 11 -5 11 C-6.607 7.785 -6.057 4.564 -6 1 C-5.34 1 -4.68 1 -4 1 C-3.67 2.65 -3.34 4.3 -3 6 C-2.01 4.02 -1.02 2.04 0 0 Z " fill="#BD9836" transform="translate(25,114)"/>
<path d="M0 0 C0.66 0 1.32 0 2 0 C2.33 0.99 2.66 1.98 3 3 C3.846 3.784 4.691 4.567 5.562 5.375 C8 8 8 8 8.312 10.812 C8.261 11.173 8.261 11.173 8 13 C3.778 11.492 2.113 8.848 0 5 C-0.25 2.125 -0.25 2.125 0 0 Z " fill="#8D923B" transform="translate(75,75)"/>
<path d="M0 0 C0.66 0 1.32 0 2 0 C2.289 0.804 2.578 1.609 2.875 2.438 C4 5 4 5 6 6 C6.667 8 7.333 10 8 12 C8.66 12.33 9.32 12.66 10 13 C10 14.65 10 16.3 10 18 C9.01 18.33 8.02 18.66 7 19 C7.33 17.35 7.66 15.7 8 14 C7.175 13.67 7.175 13.67 3 12 C3.062 11.278 3.124 10.556 3.188 9.812 C2.964 6.461 1.805 4.783 0 2 C0 1.34 0 0.68 0 0 Z " fill="#DDC164" transform="translate(82,109)"/>
<path d="M0 0 C1.98 0 3.96 0 6 0 C6 0.66 6 1.32 6 2 C4.68 2.33 3.36 2.66 2 3 C2 3.66 2 4.32 2 5 C4.64 5.66 7.28 6.32 10 7 C9.67 6.01 9.34 5.02 9 4 C9.825 4.33 9.825 4.33 14 6 C11.005 7.996 9.516 8.665 6 9 C2.187 7.936 1.25 7.375 -1 4 C-0.625 1.812 -0.625 1.812 0 0 Z " fill="#BCA23B" transform="translate(111,133)"/>
<path d="M0 0 C0.825 0.165 0.825 0.165 5 1 C5.33 2.32 5.66 3.64 6 5 C6.66 5 7.32 5 8 5 C7.67 6.65 7.34 8.3 7 10 C5.68 10.33 4.36 10.66 3 11 C3 10.34 3 9.68 3 9 C2.34 9 1.68 9 1 9 C1 8.34 1 7.68 1 7 C1.66 7 2.32 7 3 7 C3.33 6.34 3.66 5.68 4 5 C2.68 4.67 1.36 4.34 0 4 C0 2.68 0 1.36 0 0 Z " fill="#AD8823" transform="translate(30,118)"/>
<path d="M0 0 C1.98 0 3.96 0 6 0 C6.33 0.66 6.66 1.32 7 2 C9.31 2 11.62 2 14 2 C14 2.66 14 3.32 14 4 C14.66 4.33 15.32 4.66 16 5 C14.105 5.082 12.209 5.139 10.312 5.188 C9.785 5.205 9.785 5.205 7.113 5.293 C3.646 4.967 1.816 3.99 -1 2 C-0.67 1.34 -0.34 0.68 0 0 Z " fill="#D9A636" transform="translate(145,125)"/>
<path d="M0 0 C1.937 -0.081 3.875 -0.139 5.812 -0.188 C6.891 -0.222 7.97 -0.257 9.082 -0.293 C12 0 12 0 13.887 1.512 C14.254 2.003 14.621 2.494 15 3 C10.569 5.092 10.569 5.092 7.688 4.625 C7.131 4.419 6.574 4.213 6 4 C6.33 3.34 6.66 2.68 7 2 C4.69 1.67 2.38 1.34 0 1 C0 0.67 0 0.34 0 0 Z " fill="#484513" transform="translate(127,111)"/>
<path d="M0 0 C2.018 0.065 4.036 0.13 6.055 0.195 C6.055 3.195 6.055 3.195 5.055 6.195 C4.106 5.845 3.157 5.494 2.18 5.133 C-0.945 4.195 -0.945 4.195 -2.945 5.195 C-3.275 4.205 -3.605 3.215 -3.945 2.195 C-1.945 0.195 -1.945 0.195 0 0 Z " fill="#B29D35" transform="translate(78.9453125,100.8046875)"/>
<path d="M0 0 C0.508 0.387 1.016 0.773 1.539 1.172 C4.797 3.637 8.018 6.047 11.5 8.188 C11.912 8.487 11.912 8.487 14 10 C14 10.99 14 11.98 14 13 C10.243 11.372 7.383 8.986 4.25 6.375 C3.265 5.558 2.28 4.74 1.266 3.898 C0.518 3.272 -0.23 2.645 -1 2 C-0.67 1.34 -0.34 0.68 0 0 Z " fill="#69671E" transform="translate(82,88)"/>
<path d="M0 0 C0.33 0 0.66 0 1 0 C1.87 5.653 -0.403 8.69 -3.492 13.145 C-5 15 -5 15 -7 16 C-6.328 12.194 -5.273 8.648 -4 5 C-2.68 5 -1.36 5 0 5 C0 3.35 0 1.7 0 0 Z " fill="#AD8E28" transform="translate(66,69)"/>
<path d="M0 0 C2.915 1.074 4.778 1.778 7 4 C7.787 8.661 7.6 12.081 5 16.062 C4.34 16.702 3.68 17.341 3 18 C2.34 17.67 1.68 17.34 1 17 C1.495 16.484 1.99 15.969 2.5 15.438 C4.586 12.048 4.474 9.925 4 6 C2 2.562 2 2.562 0 0 Z " fill="#E4E4DD" transform="translate(48,51)"/>
<path d="M0 0 C0.66 0.33 1.32 0.66 2 1 C1.34 1.66 0.68 2.32 0 3 C0.125 5 0.125 5 1 7 C1.66 7.268 2.32 7.536 3 7.812 C3.66 8.204 4.32 8.596 5 9 C5.875 12.5 5.875 12.5 6 16 C5.34 16.66 4.68 17.32 4 18 C3.876 17.381 3.752 16.763 3.625 16.125 C3 14 3 14 1 12 C1 11.34 1 10.68 1 10 C0.01 9.34 -0.98 8.68 -2 8 C-2.875 6.125 -2.875 6.125 -3 4 C-1.562 1.75 -1.562 1.75 0 0 Z " fill="#CAA843" transform="translate(32,41)"/>
<path d="M0 0 C2 1 2 1 2.852 3.066 C3.107 3.89 3.362 4.714 3.625 5.562 C3.885 6.389 4.146 7.215 4.414 8.066 C4.607 8.704 4.801 9.343 5 10 C4.01 10.33 3.02 10.66 2 11 C-0.043 9.785 -0.043 9.785 -2.188 8.062 C-2.903 7.497 -3.618 6.931 -4.355 6.348 C-4.898 5.903 -5.441 5.458 -6 5 C-5.67 4.34 -5.34 3.68 -5 3 C-4.175 3.66 -4.175 3.66 0 7 C0 4.69 0 2.38 0 0 Z " fill="#C58726" transform="translate(54,107)"/>
<path d="M0 0 C2.542 -0.027 5.083 -0.047 7.625 -0.062 C8.338 -0.071 9.051 -0.079 9.785 -0.088 C13.973 -0.107 17.873 0.173 22 1 C22 1.33 22 1.66 22 2 C15.032 2.861 7.915 3.636 1 2 C0.67 1.34 0.34 0.68 0 0 Z " fill="#F0E5D6" transform="translate(84,149)"/>
<path d="M0 0 C2.31 0.33 4.62 0.66 7 1 C6.67 2.32 6.34 3.64 6 5 C3.625 5.625 3.625 5.625 1 6 C0.34 5.34 -0.32 4.68 -1 4 C-0.625 1.875 -0.625 1.875 0 0 Z " fill="#7C812F" transform="translate(83,122)"/>
<path d="M0 0 C-0.33 1.65 -0.66 3.3 -1 5 C-2.65 5 -4.3 5 -6 5 C-6.33 3.35 -6.66 1.7 -7 0 C-4.333 -1.333 -2.833 -0.671 0 0 Z " fill="#85832E" transform="translate(86,116)"/>
<path d="M0 0 C0.299 0.113 0.299 0.113 1.812 0.688 C2.375 2.625 2.375 2.625 2.812 4.688 C1.812 5.688 1.812 5.688 -1.75 5.75 C-2.884 5.729 -4.019 5.709 -5.188 5.688 C-5.188 2.688 -5.188 2.688 -3.938 0.938 C-2.188 -0.312 -2.188 -0.312 0 0 Z " fill="#5E5E1C" transform="translate(125.1875,141.3125)"/>
<path d="M0 0 C0.455 0.097 0.455 0.097 2.758 0.59 C3.456 0.746 4.155 0.902 4.875 1.062 C3.225 3.043 1.575 5.022 -0.125 7.062 C-0.785 6.733 -1.445 6.403 -2.125 6.062 C-1.465 5.073 -0.805 4.082 -0.125 3.062 C-0.517 3.001 -0.517 3.001 -2.5 2.688 C-5.125 2.062 -5.125 2.062 -7.125 0.062 C-4.403 -1.298 -2.942 -0.641 0 0 Z " fill="#B06F10" transform="translate(114.125,111.9375)"/>
<path d="M0 0 C2.125 0.375 2.125 0.375 4 1 C5.125 4.75 5.125 4.75 4 7 C2.125 6.75 2.125 6.75 0 6 C-1.25 3.938 -1.25 3.938 -2 2 C-1.34 1.34 -0.68 0.68 0 0 Z " fill="#616321" transform="translate(96,132)"/>
<path d="M0 0 C0.66 0.99 1.32 1.98 2 3 C-0.417 5.231 -1.75 5.969 -5.062 6.375 C-8 6 -8 6 -9.875 4.5 C-10.246 4.005 -10.617 3.51 -11 3 C-10.34 2.34 -9.68 1.68 -9 1 C-8.01 1.66 -7.02 2.32 -6 3 C-3.039 2.641 -2.153 2.153 0 0 Z " fill="#734F1A" transform="translate(50,63)"/>
<path d="M0 0 C5.28 0.33 10.56 0.66 16 1 C16 1.33 16 1.66 16 2 C15.301 2.049 14.603 2.098 13.883 2.148 C12.973 2.223 12.063 2.298 11.125 2.375 C10.22 2.445 9.315 2.514 8.383 2.586 C6 3 6 3 4 5 C1.875 4.625 1.875 4.625 0 4 C0 2.68 0 1.36 0 0 Z " fill="#EBE2D0" transform="translate(115,127)"/>
<path d="M0 0 C1.312 2.062 1.312 2.062 2 4 C-2.331 4 -4.27 3.034 -8 1 C-8.33 1.66 -8.66 2.32 -9 3 C-9.33 2.01 -9.66 1.02 -10 0 C-6.347 -0.939 -3.601 -1.265 0 0 Z " fill="#6A5B17" transform="translate(142,116)"/>
<path d="M0 0 C6.821 -0.718 6.821 -0.718 10.02 1.23 C12.855 3.648 14.921 5.882 17 9 C16.67 9.99 16.34 10.98 16 12 C15.484 11.093 14.969 10.185 14.438 9.25 C11.413 4.713 7.341 2.598 2.062 1.25 C1.382 1.168 0.701 1.085 0 1 C0 0.67 0 0.34 0 0 Z " fill="#705710" transform="translate(79,99)"/>
<path d="M0 0 C2.495 2.495 2.359 3.673 2.625 7.125 C2.7 8.035 2.775 8.945 2.852 9.883 C2.901 10.581 2.95 11.28 3 12 C2.175 11.67 2.175 11.67 -2 10 C-1.463 6.623 -0.889 3.303 0 0 Z " fill="#51622B" transform="translate(112,88)"/>
<path d="M0 0 C2.903 3.277 3.58 5.953 4.188 10.25 C4.346 11.328 4.505 12.405 4.668 13.516 C4.723 13.926 4.723 13.926 5 16 C4.34 16 3.68 16 3 16 C2.34 12.7 1.68 9.4 1 6 C0.34 6.66 -0.32 7.32 -1 8 C-1.125 2.25 -1.125 2.25 0 0 Z " fill="#848436" transform="translate(112,84)"/>
<path d="M0 0 C3 1 3 1 4.188 3.062 C4.456 3.702 4.724 4.341 5 5 C4.34 5.33 4.34 5.33 1 7 C-1 5.625 -1 5.625 -3 4 C-3 3.34 -3 2.68 -3 2 C-2.01 1.34 -1.02 0.68 0 0 Z " fill="#6A6924" transform="translate(99,125)"/>
<path d="M0 0 C0.33 1.32 0.66 2.64 1 4 C-0.65 4 -2.3 4 -4 4 C-3.67 5.32 -3.34 6.64 -3 8 C-5 6.188 -5 6.188 -7 4 C-7 3.01 -7 2.02 -7 1 C-4.537 -0.231 -2.72 -0.072 0 0 Z " fill="#997A24" transform="translate(28,124)"/>
<path d="M0 0 C0.351 0.474 0.701 0.949 1.062 1.438 C3.842 3.679 6.514 3.671 10 4 C9.381 4.248 8.763 4.495 8.125 4.75 C5.649 6.206 5.049 7.378 4 10 C1.203 7.932 0.973 6.856 0.312 3.312 C0.209 2.219 0.106 1.126 0 0 Z " fill="#E4B74A" transform="translate(77,117)"/>
<path d="M0 0 C0.33 0.66 0.66 1.32 1 2 C0.67 2.66 0.34 3.32 0 4 C-0.99 3.835 -0.99 3.835 -6 3 C-6 2.34 -6 1.68 -6 1 C-7.32 0.67 -8.64 0.34 -10 0 C-6.643 -1.678 -3.639 -0.635 0 0 Z " fill="#4B4D13" transform="translate(119,109)"/>
<path d="M0 0 C1.32 0.66 2.64 1.32 4 2 C4 2.99 4 3.98 4 5 C2.02 5.66 0.04 6.32 -2 7 C-2.33 5.35 -2.66 3.7 -3 2 C-2.01 1.34 -1.02 0.68 0 0 Z " fill="#65752F" transform="translate(143,101)"/>
<path d="M0 0 C1.333 0 2.667 0 4 0 C3.988 0.385 3.988 0.385 3.93 2.336 C3.912 3.339 3.894 4.342 3.875 5.375 C3.852 6.373 3.829 7.37 3.805 8.398 C4 11 4 11 6 13 C5.01 13 4.02 13 3 13 C0.411 10.411 0.626 8.973 0.375 5.375 C0.3 4.372 0.225 3.369 0.148 2.336 C0.099 1.565 0.05 0.794 0 0 Z " fill="#B89930" transform="translate(55,55)"/>
<path d="M0 0 C-0.573 2.867 -0.861 3.861 -3 6 C-4.32 6 -5.64 6 -7 6 C-6.625 3.562 -6.625 3.562 -6 1 C-4 0 -4 0 0 0 Z " fill="#838540" transform="translate(25,47)"/>
<path d="M0 0 C0 1.65 0 3.3 0 5 C-1.32 5.33 -2.64 5.66 -4 6 C-4.124 6.784 -4.247 7.567 -4.375 8.375 C-5 11 -5 11 -7 13 C-4.889 0 -4.889 0 0 0 Z " fill="#837F3C" transform="translate(27,100)"/>
<path d="M0 0 C1.98 0.66 3.96 1.32 6 2 C6 3.32 6 4.64 6 6 C3.237 5.477 0.674 4.891 -2 4 C-1.34 2.68 -0.68 1.36 0 0 Z " fill="#F7B94A" transform="translate(47,102)"/>
<path d="M0 0 C2.97 0.99 5.94 1.98 9 3 C4.053 5.474 4.053 5.474 1 6 C0 5 0 5 -0.062 2.438 C-0.042 1.633 -0.021 0.829 0 0 Z " fill="#526828" transform="translate(104,97)"/>
<path d="M0 0 C0.402 0.01 0.402 0.01 2.438 0.062 C0.179 2.582 -1.98 3.936 -5.062 5.312 C-5.836 5.668 -6.609 6.024 -7.406 6.391 C-9.562 7.062 -9.562 7.062 -12.562 6.062 C-11.924 5.713 -11.286 5.364 -10.629 5.004 C-9.803 4.549 -8.976 4.094 -8.125 3.625 C-7.301 3.173 -6.478 2.72 -5.629 2.254 C-1.796 0.044 -1.796 0.044 0 0 Z " fill="#DA8E1A" transform="translate(129.5625,114.9375)"/>
<path d="M0 0 C8.631 5.966 8.631 5.966 11 11 C7.717 9.509 5.069 7.614 2.25 5.375 C1.451 4.743 0.652 4.112 -0.172 3.461 C-0.775 2.979 -1.378 2.497 -2 2 C-1.34 1.34 -0.68 0.68 0 0 Z " fill="#463C09" transform="translate(86,94)"/>
<path d="M0 0 C0.33 0.66 0.66 1.32 1 2 C-0.65 3.98 -2.3 5.96 -4 8 C-4.99 7.67 -5.98 7.34 -7 7 C-6.505 6.567 -6.01 6.134 -5.5 5.688 C-4 4 -4 4 -4 1 C-2.68 0.67 -1.36 0.34 0 0 Z M-13 12 C-11 13 -11 13 -11 13 Z " fill="#D5B044" transform="translate(60,74)"/>
<path d="M0 0 C0.99 0 1.98 0 3 0 C3.66 3.3 4.32 6.6 5 10 C4.01 10 3.02 10 2 10 C-0.094 6.598 -0.179 3.947 0 0 Z " fill="#D8B23B" transform="translate(10,67)"/>
<path d="M0 0 C6.75 0.75 6.75 0.75 9 3 C6.043 4.478 3.258 4.06 0 4 C0 2.68 0 1.36 0 0 Z " fill="#889B52" transform="translate(94,58)"/>
<path d="M0 0 C0.333 4.245 0.439 6.355 -2 9.938 C-2.66 10.618 -3.32 11.299 -4 12 C-4.368 4.64 -4.368 4.64 -2.562 1.5 C-1 0 -1 0 0 0 Z " fill="#2C2718" transform="translate(16,49)"/>
<path d="M0 0 C0.33 0.66 0.66 1.32 1 2 C1.66 2 2.32 2 3 2 C3.33 3.32 3.66 4.64 4 6 C-1.75 5.125 -1.75 5.125 -4 4 C-4 3.34 -4 2.68 -4 2 C-2.68 1.34 -1.36 0.68 0 0 Z " fill="#636222" transform="translate(117,134)"/>
<path d="M0 0 C3.081 2.773 4.688 5.063 6 9 C5.34 9.66 4.68 10.32 4 11 C3.133 9.738 2.282 8.465 1.438 7.188 C1.2 6.834 1.2 6.834 -0.004 5.043 C-1 3 -1 3 0 0 Z " fill="#6E794C" transform="translate(135,78)"/>
<path d="M0 0 C0.393 -0.003 0.393 -0.003 2.379 -0.016 C4.438 0.25 4.438 0.25 6.438 2.25 C5.808 2.219 5.808 2.219 2.625 2.062 C-1.285 2.042 -1.285 2.042 -3.562 3.75 C-3.727 3.998 -3.727 3.998 -4.562 5.25 C-5.553 4.26 -6.543 3.27 -7.562 2.25 C-4.428 0.161 -3.588 -0.024 0 0 Z " fill="#EDC34F" transform="translate(25.5625,78.75)"/>
<path d="M0 0 C0 0.99 0 1.98 0 3 C-3.395 2.394 -5.307 1.104 -8 -1 C-9.318 -1.696 -10.648 -2.372 -12 -3 C-6.544 -4.516 -4.542 -3.028 0 0 Z " fill="#999E51" transform="translate(109,59)"/>
<path d="M0 0 C0.33 1.32 0.66 2.64 1 4 C-2.928 6.777 -5.531 7.345 -10.312 7.188 C-10.847 7.174 -10.847 7.174 -13.551 7.105 C-14.359 7.071 -15.167 7.036 -16 7 C-16 6.67 -16 6.34 -16 6 C-15.506 5.951 -15.506 5.951 -13.008 5.703 C-12.367 5.628 -12.367 5.628 -9.125 5.25 C-7.849 5.111 -6.573 4.972 -5.258 4.828 C-2 4 -2 4 -0.555 1.922 C-0.372 1.288 -0.189 0.653 0 0 Z " fill="#967430" transform="translate(130,143)"/>
<path d="M0 0 C1.32 0.33 2.64 0.66 4 1 C4.33 2.32 4.66 3.64 5 5 C3 6 3 6 0.438 5.188 C-2 4 -2 4 -3 2 C-2.34 2 -1.68 2 -1 2 C-0.67 1.34 -0.34 0.68 0 0 Z " fill="#C59629" transform="translate(92,136)"/>
<path d="M0 0 C1.155 0.495 1.155 0.495 7 3 C7 3.66 7 4.32 7 5 C4.03 5 1.06 5 -2 5 C-1.34 3.35 -0.68 1.7 0 0 Z " fill="#DFD0B7" transform="translate(143,128)"/>
<path d="M0 0 C0 1.65 0 3.3 0 5 C-0.66 5 -1.32 5 -2 5 C-2 6.32 -2 7.64 -2 9 C-2.66 9 -3.32 9 -4 9 C-4 8.34 -4 7.68 -4 7 C-4.66 6.67 -5.32 6.34 -6 6 C-5.188 3.562 -5.188 3.562 -4 1 C-1 0 -1 0 0 0 Z " fill="#D1A636" transform="translate(31,107)"/>
<path d="M0 0 C0.66 0 1.32 0 2 0 C2.99 2.97 3.98 5.94 5 9 C4.505 9.33 4.505 9.33 2 11 C0.807 7.123 0 4.084 0 0 Z " fill="#656C3E" transform="translate(140,87)"/>
<path d="M0 0 C2.062 0.438 2.062 0.438 4 1 C4.33 2.65 4.66 4.3 5 6 C3.125 5.75 3.125 5.75 1 5 C-0.25 2.938 -0.25 2.938 -1 1 C-0.67 0.67 -0.34 0.34 0 0 Z " fill="#61601E" transform="translate(145,120)"/>
<path d="M0 0 C0.825 0.165 0.825 0.165 5 1 C5 2.98 5 4.96 5 7 C4.67 5.68 4.34 4.36 4 3 C3.34 3 2.68 3 2 3 C1.67 5.31 1.34 7.62 1 10 C0.67 10 0.34 10 0 10 C0 6.7 0 3.4 0 0 Z " fill="#896C1C" transform="translate(35,117)"/>
<path d="M0 0 C0.701 0.248 1.403 0.495 2.125 0.75 C1.795 0.915 1.795 0.915 0.125 1.75 C-0.535 1.42 -1.195 1.09 -1.875 0.75 C-1.875 1.74 -1.875 2.73 -1.875 3.75 C-3.525 4.41 -5.175 5.07 -6.875 5.75 C-7.535 5.09 -8.195 4.43 -8.875 3.75 C-3.583 -0.312 -3.583 -0.312 0 0 Z " fill="#6D7236" transform="translate(35.875,95.25)"/>
<path d="M0 0 C3.875 1.875 3.875 1.875 5 3 C5.041 4.666 5.043 6.334 5 8 C2.5 6.812 2.5 6.812 0 5 C-0.312 2.312 -0.312 2.312 0 0 Z " fill="#5E7432" transform="translate(97,93)"/>
<path d="M0 0 C-0.66 1.32 -1.32 2.64 -2 4 C-3.65 3.67 -5.3 3.34 -7 3 C-6.67 2.01 -6.34 1.02 -6 0 C-3.509 -1.245 -2.589 -0.777 0 0 Z " fill="#A08D34" transform="translate(59,70)"/>
<path d="M0 0 C0.33 0 0.66 0 1 0 C1.33 3.96 1.66 7.92 2 12 C1.01 11.67 0.02 11.34 -1 11 C-1.027 9.354 -1.046 7.708 -1.062 6.062 C-1.074 5.146 -1.086 4.229 -1.098 3.285 C-1 1 -1 1 0 0 Z " fill="#E3DED6" transform="translate(10,51)"/>
<path d="M0 0 C-0.33 0.99 -0.66 1.98 -1 3 C0.32 3.66 1.64 4.32 3 5 C1.35 4.67 -0.3 4.34 -2 4 C-2.66 5.32 -3.32 6.64 -4 8 C-4 5 -4 5 -3 2 C-4.32 1.67 -5.64 1.34 -7 1 C-4.537 -0.231 -2.72 -0.072 0 0 Z " fill="#D2C15B" transform="translate(27,38)"/>
<path d="M0 0 C1.98 0.66 3.96 1.32 6 2 C6 2.99 6 3.98 6 5 C2 5 2 5 0 4 C0 2.68 0 1.36 0 0 Z " fill="#6F6824" transform="translate(95,118)"/>
<path d="M0 0 C0.825 0.165 0.825 0.165 5 1 C4.67 2.65 4.34 4.3 4 6 C2.68 5.34 1.36 4.68 0 4 C0 2.68 0 1.36 0 0 Z " fill="#7F8230" transform="translate(88,116)"/>
<path d="M0 0 C1.32 0 2.64 0 4 0 C4.33 2.31 4.66 4.62 5 7 C2 6 2 6 0 3 C0 2.01 0 1.02 0 0 Z " fill="#C68015" transform="translate(96,107)"/>
<path d="M0 0 C0.33 0.99 0.66 1.98 1 3 C3.562 4.188 3.562 4.188 6 5 C2.788 6.071 0.361 6 -3 6 C-3.33 4.68 -3.66 3.36 -4 2 C-3.01 2 -2.02 2 -1 2 C-0.67 1.34 -0.34 0.68 0 0 Z " fill="#BF9525" transform="translate(36,104)"/>
<path d="M0 0 C0.258 0.165 0.258 0.165 1.562 1 C4 2 4 2 7.625 1.938 C8.739 1.958 9.852 1.979 11 2 C11.33 2.495 11.33 2.495 13 5 C11.395 4.886 9.791 4.758 8.188 4.625 C7.294 4.555 6.401 4.486 5.48 4.414 C3 4 3 4 0 2 C0 1.34 0 0.68 0 0 Z " fill="#71590E" transform="translate(72,92)"/>
<path d="M0 0 C1.114 0.495 2.227 0.99 3.375 1.5 C7 3 7 3 9 3 C9 3.66 9 4.32 9 5 C8.67 5.165 8.67 5.165 7 6 C6.375 8.562 6.375 8.562 6 11 C3.848 7.772 3.799 6.716 4 3 C2.68 2.67 1.36 2.34 0 2 C0 1.34 0 0.68 0 0 Z " fill="#D0B241" transform="translate(52,47)"/>
<path d="M0 0 C1.52 1.145 1.52 1.145 3 3 C3.074 5.699 3.074 5.699 2.688 8.688 C2.568 9.681 2.448 10.675 2.324 11.699 C2.217 12.458 2.11 13.218 2 14 C1.67 14 1.34 14 1 14 C1 11.03 1 8.06 1 5 C-0.32 4.34 -1.64 3.68 -3 3 C-2.01 2.01 -1.02 1.02 0 0 Z " fill="#846416" transform="translate(74,106)"/>
<path d="M0 0 C1.32 0.33 2.64 0.66 4 1 C3.67 2.98 3.34 4.96 3 7 C2.34 6.34 1.68 5.68 1 5 C0.505 5.33 0.505 5.33 -2 7 C-1.34 4.69 -0.68 2.38 0 0 Z " fill="#DFBF5B" transform="translate(13,59)"/>
<path d="M0 0 C2.625 0.375 2.625 0.375 5 1 C5 1.66 5 2.32 5 3 C5.66 3 6.32 3 7 3 C6.67 3.99 6.34 4.98 6 6 C3.36 4.68 0.72 3.36 -2 2 C-1.34 1.34 -0.68 0.68 0 0 Z " fill="#837E37" transform="translate(53,45)"/>
<path d="M0 0 C1.65 0.33 3.3 0.66 5 1 C5 2.98 5 4.96 5 7 C4.67 6.34 4.34 5.68 4 5 C1.438 4.375 1.438 4.375 -1 4 C-0.67 2.68 -0.34 1.36 0 0 Z " fill="#A19543" transform="translate(25,42)"/>
<path d="M0 0 C2.64 0 5.28 0 8 0 C7.67 0.99 7.34 1.98 7 3 C3.938 4.188 3.938 4.188 1 5 C0.67 3.35 0.34 1.7 0 0 Z " fill="#646625" transform="translate(115,141)"/>
<path d="M0 0 C4.75 0.75 4.75 0.75 7 3 C6.67 3.495 6.67 3.495 5 6 C3.293 4.719 1.626 3.382 0 2 C0 1.34 0 0.68 0 0 Z " fill="#DCA62E" transform="translate(86,133)"/>
<path d="M0 0 C2.915 2.623 4.885 5.718 7 9 C6.67 9.66 6.34 10.32 6 11 C1.69 8.474 0.701 5.507 -1 1 C-0.67 0.67 -0.34 0.34 0 0 Z " fill="#5F3403" transform="translate(75,83)"/>
<path d="M0 0 C2.188 0.312 2.188 0.312 4 1 C4.33 2.65 4.66 4.3 5 6 C4.67 5.34 4.34 4.68 4 4 C1.678 3.593 -0.657 3.256 -3 3 C-1.75 1.438 -1.75 1.438 0 0 Z " fill="#706F28" transform="translate(61,51)"/>
<path d="M0 0 C1.32 0 2.64 0 4 0 C4.66 1.65 5.32 3.3 6 5 C4.02 5.33 2.04 5.66 0 6 C0 4.02 0 2.04 0 0 Z " fill="#B99946" transform="translate(13,43)"/>
<path d="M0 0 C0.763 0.206 1.526 0.412 2.312 0.625 C1.322 1.945 0.332 3.265 -0.688 4.625 C-2.625 4.25 -2.625 4.25 -4.688 3.625 C-5.017 2.965 -5.347 2.305 -5.688 1.625 C-2.688 -0.375 -2.688 -0.375 0 0 Z " fill="#EAE0CE" transform="translate(41.6875,135.375)"/>
<path d="M0 0 C-0.33 3.63 -0.66 7.26 -1 11 C-1.33 11 -1.66 11 -2 11 C-2.144 10.237 -2.289 9.474 -2.438 8.688 C-3 6 -3 6 -4 3 C-1.125 0 -1.125 0 0 0 Z " fill="#A38D3F" transform="translate(42,113)"/>
<path d="M0 0 C0.362 0.097 0.362 0.097 2.195 0.59 C2.75 0.746 3.304 0.902 3.875 1.062 C3.215 1.722 2.555 2.382 1.875 3.062 C-0.854 3.03 -3.422 2.499 -6.125 2.062 C-6.125 1.403 -6.125 0.743 -6.125 0.062 C-3.578 -1.211 -2.697 -0.739 0 0 Z " fill="#EAA737" transform="translate(67.125,110.9375)"/>
<path d="M0 0 C3 0 3 0 4.688 1.375 C6 3 6 3 6 5 C3.657 4.744 1.322 4.407 -1 4 C-1.33 3.34 -1.66 2.68 -2 2 C-1.34 2 -0.68 2 0 2 C0 1.34 0 0.68 0 0 Z " fill="#574D0D" transform="translate(98,103)"/>
<path d="M0 0 C-0.626 0.277 -1.253 0.554 -1.898 0.84 C-2.716 1.202 -3.533 1.564 -4.375 1.938 C-5.187 2.297 -5.999 2.657 -6.836 3.027 C-8.237 3.657 -9.626 4.313 -11 5 C-10.875 3.125 -10.875 3.125 -10 1 C-6.213 -0.767 -3.951 -1.191 0 0 Z " fill="#BF992E" transform="translate(54,89)"/>
<path d="M0 0 C0.825 0.165 0.825 0.165 5 1 C4.67 1.165 4.67 1.165 3 2 C3.33 3.65 3.66 5.3 4 7 C3.01 6.67 2.02 6.34 1 6 C0.67 4.02 0.34 2.04 0 0 Z " fill="#433A05" transform="translate(66,79)"/>
<path d="M0 0 C2.468 1.152 4.048 2.048 6 4 C5.67 4.99 5.34 5.98 5 7 C2.632 5.421 0.933 4.025 -1 2 C-0.67 1.34 -0.34 0.68 0 0 Z " fill="#657935" transform="translate(77,75)"/>
<path d="M0 0 C1.32 0.66 2.64 1.32 4 2 C3.34 3.32 2.68 4.64 2 6 C1.67 5.67 1.34 5.34 1 5 C-1.333 4.959 -3.667 4.958 -6 5 C-5.381 4.732 -4.763 4.464 -4.125 4.188 C-2 3 -2 3 0 0 Z " fill="#C4A63A" transform="translate(59,70)"/>
<path d="M0 0 C0.33 0 0.66 0 1 0 C2.016 5.791 1.963 9.458 0 15 C-0.33 15 -0.66 15 -1 15 C-1.185 4.442 -1.185 4.442 0 0 Z " fill="#B3AEA5" transform="translate(12,44)"/>
<path d="M0 0 C0.66 0.66 1.32 1.32 2 2 C1.34 2 0.68 2 0 2 C0.33 4.31 0.66 6.62 1 9 C-0.98 8.34 -2.96 7.68 -5 7 C-3.68 6.67 -2.36 6.34 -1 6 C-1.103 5.691 -1.103 5.691 -1.625 4.125 C-1.687 3.774 -1.687 3.774 -2 2 C-1.34 1.34 -0.68 0.68 0 0 Z " fill="#C0AE51" transform="translate(156,116)"/>
<path d="M0 0 C2.375 0.312 2.375 0.312 5 1 C5.66 1.99 6.32 2.98 7 4 C5.188 4.688 5.188 4.688 3 5 C1.25 3.688 1.25 3.688 0 2 C0 1.34 0 0.68 0 0 Z " fill="#BF8D1C" transform="translate(134,117)"/>
<path d="M0 0 C1.32 1.32 2.64 2.64 4 4 C3.67 4.99 3.34 5.98 3 7 C1.062 6.25 1.062 6.25 -1 5 C-1.75 2.875 -1.75 2.875 -2 1 C-1.34 0.67 -0.68 0.34 0 0 Z " fill="#8E812C" transform="translate(86,102)"/>
<path d="M0 0 C-0.33 0.495 -0.33 0.495 -2 3 C-4.625 3.188 -4.625 3.188 -7 3 C-7 2.01 -7 1.02 -7 0 C-4.333 -1.333 -2.833 -0.671 0 0 Z " fill="#F0EEE0" transform="translate(40,92)"/>
<path d="M0 0 C3.21 1.382 5.049 2.924 7.25 5.625 C7.51 5.941 7.51 5.941 8.828 7.539 C9.021 7.78 9.021 7.78 10 9 C4.705 7.638 2.763 4.397 0 0 Z " fill="#505E28" transform="translate(84,78)"/>
<path d="M0 0 C3.342 0.597 5.464 1.736 8 4 C8 4.66 8 5.32 8 6 C7.422 5.691 6.845 5.381 6.25 5.062 C4.157 4.074 2.255 3.483 0 3 C0 2.01 0 1.02 0 0 Z " fill="#262604" transform="translate(66,76)"/>
<path d="M0 0 C2.31 0 4.62 0 7 0 C5.68 1.65 4.36 3.3 3 5 C2.01 4.67 1.02 4.34 0 4 C0 2.68 0 1.36 0 0 Z " fill="#647434" transform="translate(70,65)"/>
<path d="M0 0 C2.31 0.33 4.62 0.66 7 1 C7 1.66 7 2.32 7 3 C5.35 3.66 3.7 4.32 2 5 C1.34 3.35 0.68 1.7 0 0 Z " fill="#8B832C" transform="translate(58,54)"/>
<path d="M0 0 C4.389 0.51 7.337 1.522 11 4 C7.799 5.6 5.277 4.032 2 3 C2 2.34 2 1.68 2 1 C1.34 0.67 0.68 0.34 0 0 Z " fill="#797937" transform="translate(45,37)"/>
<path d="M0 0 C1.98 0 3.96 0 6 0 C6.33 0.66 6.66 1.32 7 2 C6.34 2 5.68 2 5 2 C5 2.66 5 3.32 5 4 C3.062 3.688 3.062 3.688 1 3 C0.67 2.01 0.34 1.02 0 0 Z " fill="#E59F2B" transform="translate(56,109)"/>
<path d="M0 0 C1.65 0 3.3 0 5 0 C4.67 0.165 4.67 0.165 3 1 C3.99 3.31 4.98 5.62 6 8 C4.68 7.34 3.36 6.68 2 6 C2 4.68 2 3.36 2 2 C1.34 2 0.68 2 0 2 C0 1.34 0 0.68 0 0 Z " fill="#526228" transform="translate(70,73)"/>
<path d="M0 0 C0.66 0.33 1.32 0.66 2 1 C1.34 1.66 0.68 2.32 0 3 C0.389 6.013 1.265 7.397 3 10 C-1.706 8.552 -1.706 8.552 -3 6.125 C-3 3.255 -1.871 2.095 0 0 Z " fill="#D5C053" transform="translate(32,41)"/>
<path d="M0 0 C0.361 0.165 0.361 0.165 2.188 1 C5.017 2.006 7.029 2.17 10 2 C8.75 3.562 8.75 3.562 7 5 C5 4.938 5 4.938 3 4 C1.25 1.938 1.25 1.938 0 0 Z " fill="#EEE5D4" transform="translate(120,133)"/>
<path d="M0 0 C1.32 0.33 2.64 0.66 4 1 C4 1.66 4 2.32 4 3 C3.34 3 2.68 3 2 3 C2.33 3.99 2.66 4.98 3 6 C-0.875 4.25 -0.875 4.25 -2 2 C-1.34 2 -0.68 2 0 2 C0 1.34 0 0.68 0 0 Z " fill="#816822" transform="translate(27,130)"/>
<path d="M0 0 C0.825 0.165 0.825 0.165 5 1 C5 1.99 5 2.98 5 4 C3.35 4 1.7 4 0 4 C0 2.68 0 1.36 0 0 Z " fill="#5C5F25" transform="translate(152,124)"/>
<path d="M0 0 C1.98 0.66 3.96 1.32 6 2 C6 2.99 6 3.98 6 5 C4.35 5 2.7 5 1 5 C0.67 3.35 0.34 1.7 0 0 Z " fill="#656327" transform="translate(158,123)"/>
<path d="M0 0 C2.784 1.392 2.979 3.156 4 6 C3.34 6 2.68 6 2 6 C1.67 6.99 1.34 7.98 1 9 C0.34 8.67 -0.32 8.34 -1 8 C-0.67 5.36 -0.34 2.72 0 0 Z " fill="#AB8823" transform="translate(37,108)"/>
<path d="M0 0 C1.5 1.312 1.5 1.312 3 3 C3 3.99 3 4.98 3 6 C3.66 6 4.32 6 5 6 C4.67 6.66 4.34 7.32 4 8 C3.01 8 2.02 8 1 8 C0.174 5.108 0 3.113 0 0 Z " fill="#7E782B" transform="translate(90,107)"/>
<path d="M0 0 C2.97 0.99 5.94 1.98 9 3 C8.34 3.33 8.34 3.33 5 5 C1.75 3.625 1.75 3.625 -1 2 C-0.67 1.34 -0.34 0.68 0 0 Z " fill="#595D1C" transform="translate(104,104)"/>
<path d="M0 0 C2 0.25 2 0.25 4 1 C4.33 1.99 4.66 2.98 5 4 C3.35 4.66 1.7 5.32 0 6 C-0.382 4.344 -0.714 2.675 -1 1 C-0.67 0.67 -0.34 0.34 0 0 Z " fill="#1D1D1B" transform="translate(45,52)"/>
<path d="M0 0 C0.66 0.33 1.32 0.66 2 1 C2 2.65 2 4.3 2 6 C0.68 5.67 -0.64 5.34 -2 5 C-1.125 1.125 -1.125 1.125 0 0 Z " fill="#9D9C99" transform="translate(43,52)"/>
<path d="M0 0 C2.867 0.573 3.861 0.861 6 3 C5.67 3.99 5.34 4.98 5 6 C3.293 4.719 1.626 3.382 0 2 C0 1.34 0 0.68 0 0 Z " fill="#6C652B" transform="translate(156,118)"/>
<path d="M0 0 C0.66 0 1.32 0 2 0 C2.33 2.31 2.66 4.62 3 7 C1.35 6.01 -0.3 5.02 -2 4 C-1.34 2.68 -0.68 1.36 0 0 Z " fill="#6B611E" transform="translate(146,112)"/>
<path d="M0 0 C0.99 0.33 1.98 0.66 3 1 C2.67 1.99 2.34 2.98 2 4 C-0.062 4.688 -0.062 4.688 -2 5 C-2 3.68 -2 2.36 -2 1 C-1.34 0.67 -0.68 0.34 0 0 Z " fill="#888331" transform="translate(80,110)"/>
<path d="M0 0 C0 0.99 0 1.98 0 3 C-6.75 7 -6.75 7 -9 7 C-8 4 -8 4 -6.152 2.832 C-5.421 2.496 -4.691 2.159 -3.938 1.812 C-3.204 1.468 -2.471 1.124 -1.715 0.77 C-1.149 0.516 -0.583 0.262 0 0 Z " fill="#A99F35" transform="translate(150,103)"/>
<path d="M0 0 C0 2.621 -0.313 4.509 -1 7 C-1.99 7 -2.98 7 -4 7 C-4.33 5.68 -4.66 4.36 -5 3 C-3.35 2.01 -1.7 1.02 0 0 Z " fill="#F0C34F" transform="translate(28,103)"/>
<path d="M0 0 C-0.66 1.32 -1.32 2.64 -2 4 C-3.32 3.34 -4.64 2.68 -6 2 C-6 1.34 -6 0.68 -6 0 C-3 -1 -3 -1 0 0 Z " fill="#DCB13B" transform="translate(28,83)"/>
<path d="M0 0 C0.33 0.99 0.66 1.98 1 3 C1.99 3.33 2.98 3.66 4 4 C3.67 4.99 3.34 5.98 3 7 C1.02 5.68 -0.96 4.36 -3 3 C-2.01 2.01 -1.02 1.02 0 0 Z " fill="#627535" transform="translate(84,73)"/>
<path d="M0 0 C0.33 0 0.66 0 1 0 C1.326 4.675 0.706 7.167 -2 11 C-3.125 7.25 -3.125 7.25 -2 5 C-1.34 5 -0.68 5 0 5 C0 3.35 0 1.7 0 0 Z " fill="#A48C22" transform="translate(66,69)"/>
<path d="M0 0 C1.98 0 3.96 0 6 0 C4.35 1.65 2.7 3.3 1 5 C0.34 4.67 -0.32 4.34 -1 4 C-0.67 2.68 -0.34 1.36 0 0 Z " fill="#B48F2C" transform="translate(45,73)"/>
<path d="M0 0 C3.875 1.75 3.875 1.75 5 4 C3.35 4.66 1.7 5.32 0 6 C0 4.02 0 2.04 0 0 Z " fill="#6B7A3B" transform="translate(121,66)"/>
<path d="M0 0 C0.825 0.33 0.825 0.33 5 2 C3.625 4 3.625 4 2 6 C1.34 6 0.68 6 0 6 C0 4.02 0 2.04 0 0 Z " fill="#D6AD3B" transform="translate(37,47)"/>
<path d="M0 0 C0.66 0 1.32 0 2 0 C2 0.66 2 1.32 2 2 C2.66 2 3.32 2 4 2 C5.625 4 5.625 4 7 6 C6.67 6.66 6.34 7.32 6 8 C1.312 4.387 1.312 4.387 0 3 C0 2.01 0 1.02 0 0 Z " fill="#564E17" transform="translate(99,115)"/>
<path d="M0 0 C0.99 0.33 1.98 0.66 3 1 C1.688 3.5 1.688 3.5 0 6 C-0.99 6 -1.98 6 -3 6 C-2.01 4.02 -1.02 2.04 0 0 Z " fill="#EEE6D2" transform="translate(45,110)"/>
<path d="M0 0 C0 0.66 0 1.32 0 2 C-2.64 2.33 -5.28 2.66 -8 3 C-8 2.34 -8 1.68 -8 1 C-5.072 0.024 -3.044 -0.082 0 0 Z " fill="#766722" transform="translate(67,64)"/>
<path d="M0 0 C1.32 0 2.64 0 4 0 C3.688 1.938 3.688 1.938 3 4 C2.01 4.33 1.02 4.66 0 5 C0 3.35 0 1.7 0 0 Z " fill="#8B712B" transform="translate(23,62)"/>
<path d="M0 0 C0.99 0.165 0.99 0.165 6 1 C6.33 2.65 6.66 4.3 7 6 C6.34 6 5.68 6 5 6 C3.286 4.041 1.616 2.041 0 0 Z " fill="#D6AD32" transform="translate(50,49)"/>
<path d="M0 0 C1.98 0 3.96 0 6 0 C6 0.99 6 1.98 6 3 C4.35 3 2.7 3 1 3 C0.67 2.01 0.34 1.02 0 0 Z " fill="#6D7033" transform="translate(49,43)"/>
<path d="M0 0 C0.99 0.33 1.98 0.66 3 1 C3 1.66 3 2.32 3 3 C3.66 3.33 4.32 3.66 5 4 C3.35 4.33 1.7 4.66 0 5 C-0.562 3.062 -0.562 3.062 -1 1 C-0.67 0.67 -0.34 0.34 0 0 Z " fill="#958C3A" transform="translate(44,37)"/>
<path d="M0 0 C-0.99 0.33 -1.98 0.66 -3 1 C-3 1.66 -3 2.32 -3 3 C-4.32 3 -5.64 3 -7 3 C-6.67 2.01 -6.34 1.02 -6 0 C-3.509 -1.245 -2.589 -0.777 0 0 Z " fill="#8D8B40" transform="translate(33,38)"/>
</svg>
