<?xml version="1.0" encoding="UTF-8"?>
<!-- Generator: visioncortex VTracer 0.6.12 -->
<svg version="1.1" xmlns="http://www.w3.org/2000/svg" width="167" height="165">
<path d="M0 0 C55.11 0 110.22 0 167 0 C167 54.45 167 108.9 167 165 C111.89 165 56.78 165 0 165 C0 110.55 0 56.1 0 0 Z " fill="#FDF9F4" transform="translate(0,0)"/>
<path d="M0 0 C2.082 -0.41 2.082 -0.41 5 0 C7.468 1.949 9.535 4.277 11.688 6.562 C17.898 12.769 17.898 12.769 21.891 13.605 C24.438 13.25 24.438 13.25 26.621 12.578 C29 12 29 12 32.418 12.789 C36 13 36 13 39.055 10.508 C40.017 9.4 40.957 8.271 41.875 7.125 C42.36 6.557 42.844 5.988 43.344 5.402 C44.579 3.949 45.792 2.476 47 1 C48 0 48 0 50.312 -0.438 C53 0 53 0 55.035 2.625 C59.51 10.312 60.997 19.065 62 27.812 C62.68 33.579 63.556 39.171 67 44 C69.734 44.911 71.588 45.171 74.422 45.281 C75.283 45.319 76.144 45.356 77.031 45.395 C77.928 45.429 78.826 45.464 79.75 45.5 C85.568 45.73 91.25 46.057 97 47 C97.33 47.99 97.66 48.98 98 50 C98.887 50.062 99.774 50.124 100.688 50.188 C106.961 51.726 109.661 56.819 113 62 C113.66 62.66 114.32 63.32 115 64 C115.853 66.348 116.634 68.679 117.375 71.062 C119.61 78.004 121.965 84.702 125.812 90.938 C126.204 91.618 126.596 92.299 127 93 C126.67 93.66 126.34 94.32 126 95 C125.34 94.67 124.68 94.34 124 94 C124 93.34 124 92.68 124 92 C123.34 92 122.68 92 122 92 C122 93.32 122 94.64 122 96 C121.34 96 120.68 96 120 96 C119.835 96.495 119.835 96.495 119 99 C118.01 99.66 117.02 100.32 116 101 C113.784 104.292 113.799 107 113.91 110.902 C113.93 112.04 113.95 113.178 113.971 114.35 C114.032 116.738 114.097 119.126 114.166 121.514 C114.175 122.083 114.175 122.083 114.223 124.965 C114.237 125.484 114.237 125.484 114.309 128.109 C113.951 131.463 112.96 133.285 111 136 C107.513 138.712 103.226 138.45 99 138 C96.5 137 96.5 137 95 136 C95.66 136 96.32 136 97 136 C97 134.02 97 132.04 97 130 C97.66 129.67 98.32 129.34 99 129 C99 130.98 99 132.96 99 135 C99.99 135.33 100.98 135.66 102 136 C102.165 135.01 102.165 135.01 103 130 C103.66 130.33 104.32 130.66 105 131 C104.67 132.65 104.34 134.3 104 136 C106.02 135.398 108.021 134.727 110 134 C111.301 131.398 111.168 129.403 111.188 126.5 C111.202 125.52 111.216 124.541 111.23 123.531 C111 121 111 121 109 119 C108.54 117.366 108.129 115.717 107.75 114.062 C106.389 109.249 106.389 109.249 103.062 107.125 C102.557 106.939 102.557 106.939 100 106 C96.135 102.971 95.61 100.78 95 96 C93 93 93 93 90 92 C90 90.68 90 89.36 90 88 C86.125 89.75 86.125 89.75 85 92 C83.35 92 81.7 92 80 92 C79.67 92.66 79.34 93.32 79 94 C77.188 94.449 77.188 94.449 75 94.688 C74.278 94.774 73.556 94.86 72.812 94.949 C72.214 94.966 71.616 94.983 71 95 C70.67 94.67 70.34 94.34 70 94 C69.711 94.804 69.422 95.609 69.125 96.438 C68 99 68 99 66 100 C65.367 102.285 65.367 102.285 64.875 105.062 C64.707 105.982 64.54 106.901 64.367 107.848 C64.307 108.203 64.307 108.203 64 110 C63.505 110.165 63.505 110.165 61 111 C61 111.66 61 112.32 61 113 C60.34 113 59.68 113 59 113 C59 113.66 59 114.32 59 115 C58.381 115.124 57.763 115.248 57.125 115.375 C55 116 55 116 53 118 C47.215 114.554 47.215 114.554 46.125 111.75 C46.084 111.172 46.042 110.595 46 110 C45.67 110.165 45.67 110.165 44 111 C43.798 104.64 44.372 99.148 46 93 C46.99 93 47.98 93 49 93 C49 92.01 49 91.02 49 90 C49.66 90 50.32 90 51 90 C51 87.69 51 85.38 51 83 C50.278 83.619 49.556 84.237 48.812 84.875 C46.216 86.837 44.053 87.953 41 89 C41.331 83.705 44.472 79.756 48 76 C48.99 75.67 49.98 75.34 51 75 C51.516 74.484 52.031 73.969 52.562 73.438 C53.037 72.963 53.511 72.489 54 72 C54.66 72 55.32 72 56 72 C56 71.34 56 70.68 56 70 C56.66 70 57.32 70 58 70 C58.39 68.065 58.761 66.127 59.125 64.188 C59.334 63.109 59.543 62.03 59.758 60.918 C60 58 60 58 58 55 C58.165 54.67 58.165 54.67 59 53 C54.71 52.34 50.42 51.68 46 51 C45.917 49.597 45.835 48.195 45.75 46.75 C45.39 43.74 45.08 42.134 43.5 39.5 C39.839 37.303 36.207 37.18 32 37 C32 36.34 32 35.68 32 35 C28.125 38.75 28.125 38.75 27 41 C27.107 44.573 27.224 48.138 27.479 51.703 C27.55 53.947 27.552 55.821 27 58 C24.016 60.379 24.016 60.379 21 62 C20.636 63.66 20.3 65.327 20 67 C17.093 69.492 15.656 70.039 11.812 69.812 C9 69 9 69 7 67 C6.483 62.344 7.316 59.802 10 56 C9.361 55.856 8.721 55.711 8.062 55.562 C6 55 6 55 5 54 C4.958 51.667 4.958 49.333 5 47 C5 46.67 5 46.34 5 46 C4.67 46.165 4.67 46.165 3 47 C3.33 45.68 3.66 44.36 4 43 C4.99 42.835 4.99 42.835 10 42 C10.99 43.32 11.98 44.64 13 46 C13.12 42.394 13.225 39.096 12.5 35.562 C9.91 32.865 6.623 33.234 3 33 C3 29 3 29 4.531 27.297 C5.181 26.786 5.831 26.276 6.5 25.75 C7.15 25.229 7.799 24.708 8.469 24.172 C8.974 23.785 9.479 23.398 10 23 C7.288 24.613 4.626 26.249 2 28 C2.33 24.04 2.66 20.08 3 16 C3.99 15.67 4.98 15.34 6 15 C6 17.31 6 19.62 6 22 C7.65 21.34 9.3 20.68 11 20 C9.362 14.414 7.724 9.539 4 5 C3.01 5 2.02 5 1 5 C-0.803 8.967 -1.492 12.682 -2 17 C-2.33 17 -2.66 17 -3 17 C-3.554 5.478 -3.554 5.478 0 0 Z " fill="#767572" transform="translate(22,13)"/>
<path d="M0 0 C2.516 0.376 3.716 0.686 5.449 2.602 C8.242 7.165 9.665 10.644 10 16 C8.35 16.66 6.7 17.32 5 18 C3.875 13.25 3.875 13.25 5 11 C4.67 11.165 4.67 11.165 3 12 C2.586 14.504 2.586 14.504 2.375 17.562 C2.3 18.574 2.225 19.586 2.148 20.629 C2.099 21.411 2.05 22.194 2 23 C2.99 22.175 2.99 22.175 8 18 C8.66 18.33 9.32 18.66 10 19 C7.36 21.31 4.72 23.62 2 26 C2.33 26.66 2.66 27.32 3 28 C4.114 28.103 5.227 28.206 6.375 28.312 C10 29 10 29 11.715 31.117 C13.256 34.575 13.302 37.043 13.188 40.812 C13.16 41.974 13.133 43.135 13.105 44.332 C13.071 45.212 13.036 46.093 13 47 C12.67 47 12.34 47 12 47 C11.67 45.845 11.67 45.845 10 40 C5.25 38.875 5.25 38.875 3 40 C3.165 40.165 3.165 40.165 4 41 C4.99 41 5.98 41 7 41 C6.34 41.66 5.68 42.32 5 43 C4.875 46.625 4.875 46.625 5 50 C6.32 50.66 7.64 51.32 9 52 C8.67 52.701 8.34 53.403 8 54.125 C6.886 57.327 6.626 59.634 7 63 C10 65 10 65 13.562 64.75 C17 64 17 64 19 62 C19.125 59.375 19.125 59.375 19 57 C20.98 56.01 22.96 55.02 25 54 C24.954 52.842 24.907 51.685 24.859 50.492 C24.822 48.953 24.785 47.414 24.75 45.875 C24.716 45.114 24.683 44.354 24.648 43.57 C24.554 38.102 25.397 35.177 29 31 C29.66 31 30.32 31 31 31 C31 31.66 31 32.32 31 33 C31.592 32.942 32.183 32.884 32.793 32.824 C37.074 32.58 39.356 32.593 43.062 34.938 C45.665 39.052 45.464 42.263 45 47 C45.608 46.979 45.608 46.979 48.688 46.875 C52.213 46.888 54.914 47.13 58 49 C58.75 50.875 58.75 50.875 59 53 C59.2 53.606 59.4 54.212 59.605 54.836 C60.105 57.577 59.518 59.152 58.562 61.75 C58.275 62.549 57.988 63.348 57.691 64.172 C57.463 64.775 57.235 65.378 57 66 C56.34 66 55.68 66 55 66 C55 66.66 55 67.32 55 68 C54.381 68.082 53.763 68.165 53.125 68.25 C50.325 69.238 50.259 70.404 49 73 C48.691 73.134 48.691 73.134 47.125 73.812 C43.767 75.689 42.75 78.626 41 82 C41.33 82.33 41.66 82.66 42 83 C42.763 82.526 43.526 82.051 44.312 81.562 C47 80 47 80 50 79 C50 81.31 50 83.62 50 86 C49.34 86 48.68 86 48 86 C48 86.99 48 87.98 48 89 C47.01 89 46.02 89 45 89 C44.67 94.61 44.34 100.22 44 106 C44.99 106 45.98 106 47 106 C47 107.32 47 108.64 47 110 C49.5 111.75 49.5 111.75 52 113 C52.66 112.34 53.32 111.68 54 111 C55.32 111 56.64 111 58 111 C58 110.34 58 109.68 58 109 C58.66 109 59.32 109 60 109 C60 108.34 60 107.68 60 107 C60.66 106.67 61.32 106.34 62 106 C62.604 103.464 62.958 100.925 63.34 98.348 C64 96 64 96 67 94 C67.687 91.375 67.687 91.375 68 89 C68.495 89.165 68.495 89.165 71 90 C77.692 89.308 77.692 89.308 79 88 C80.666 87.959 82.334 87.957 84 88 C84.33 87.34 84.33 87.34 86 84 C86.99 84 87.98 84 89 84 C89 85.32 89 86.64 89 88 C89.598 88.041 90.196 88.082 90.812 88.125 C93 89 93 89 94.688 91.812 C96 95 96 95 96.375 97.125 C97.367 100.1 99.487 101.247 102 103 C102.682 103.266 103.364 103.531 104.066 103.805 C106.751 105.464 106.897 106.983 107.625 110 C108.815 114.815 108.815 114.815 111 117 C111.301 119.461 111.301 119.461 111.312 122.375 C111.329 123.331 111.346 124.288 111.363 125.273 C110.947 128.401 110.207 129.772 108 132 C105.312 132.25 105.312 132.25 103 132 C103 130.35 103 128.7 103 127 C101.552 128.448 101.443 130.04 101 132 C99.68 131.67 98.36 131.34 97 131 C97 129.35 97 127.7 97 126 C96.67 127.98 96.34 129.96 96 132 C95.01 132.33 94.02 132.66 93 133 C92 132 92 132 91.625 128.75 C92 125 92 125 94.5 122.562 C97.129 119.867 97.395 119.511 97.5 116 C97.058 109.774 93.295 106.027 89.305 101.551 C88 100 88 100 87 98 C86.957 99.666 86.959 101.334 87 103 C87.33 103.33 87.66 103.66 88 104 C88.315 108.754 87.476 113.002 86.25 117.562 C86.093 118.209 85.935 118.855 85.773 119.521 C84.633 123.832 83.347 127.005 80 130 C76.617 130.559 76.617 130.559 72.875 130.438 C72.255 130.427 72.255 130.427 69.117 130.371 C66 130 66 130 64 128 C63.625 125.562 63.625 125.562 64 123 C66.044 121.024 67.118 120 70 120 C71.611 110.004 71.611 110.004 69.062 105.812 C68.382 105.214 67.701 104.616 67 104 C63.836 111.835 61.25 119.978 60.562 128.438 C59.927 132.46 58.85 134.15 56 137 C52.588 138.706 48.766 138.469 45 138.688 C44.167 138.747 43.335 138.807 42.477 138.869 C41.68 138.916 40.883 138.963 40.062 139.012 C39.332 139.058 38.601 139.104 37.848 139.151 C36 139 36 139 34 137 C31.849 136.729 31.849 136.729 29.203 136.691 C28.244 136.666 27.285 136.641 26.297 136.615 C24.281 136.58 22.266 136.549 20.25 136.521 C14.681 136.369 10.738 136.022 6 133 C5.669 129.362 5.512 127.623 7.812 124.688 C10 123 10 123 13 122 C14.383 119.234 14.112 116.99 14.098 113.898 C14.096 113.293 14.096 113.293 14.088 110.227 C14.08 108.956 14.071 107.685 14.062 106.375 C14.058 105.096 14.053 103.817 14.049 102.5 C14.037 99.333 14.021 96.167 14 93 C13.34 93 12.68 93 12 93 C9.189 86.815 8.721 82.659 10 76 C9.546 75.866 9.546 75.866 7.25 75.188 C4.251 74.092 2.462 72.952 0 71 C-0.99 70.67 -1.98 70.34 -3 70 C-7.773 65.682 -7.773 65.682 -9 62 C-9.66 61.67 -10.32 61.34 -11 61 C-11 58.69 -11 56.38 -11 54 C-11.66 54 -12.32 54 -13 54 C-12.688 52.583 -12.376 51.167 -12.062 49.75 C-11.888 48.961 -11.714 48.172 -11.535 47.359 C-11.052 45.231 -10.538 43.115 -10 41 C-9.34 41 -8.68 41 -8 41 C-7.938 40.598 -7.938 40.598 -7.625 38.562 C-7 35 -7 35 -5.938 31.25 C-4.613 25.655 -4.925 20.004 -5.162 14.296 C-5.315 8.53 -5.315 8.53 -3.57 5.598 C-3.052 5.07 -2.534 4.543 -2 4 C-1.304 2.682 -0.628 1.352 0 0 Z " fill="#CDB596" transform="translate(23,17)"/>
<path d="M0 0 C2.516 0.376 3.716 0.686 5.449 2.602 C8.242 7.165 9.665 10.644 10 16 C8.35 16.66 6.7 17.32 5 18 C3.875 13.25 3.875 13.25 5 11 C4.67 11.165 4.67 11.165 3 12 C2.586 14.504 2.586 14.504 2.375 17.562 C2.3 18.574 2.225 19.586 2.148 20.629 C2.099 21.411 2.05 22.194 2 23 C2.99 22.175 2.99 22.175 8 18 C8.66 18.33 9.32 18.66 10 19 C7.36 21.31 4.72 23.62 2 26 C2.33 26.66 2.66 27.32 3 28 C4.114 28.103 5.227 28.206 6.375 28.312 C10 29 10 29 11.715 31.117 C13.256 34.575 13.302 37.043 13.188 40.812 C13.16 41.974 13.133 43.135 13.105 44.332 C13.071 45.212 13.036 46.093 13 47 C12.67 47 12.34 47 12 47 C11.67 45.845 11.67 45.845 10 40 C5.25 38.875 5.25 38.875 3 40 C3.165 40.165 3.165 40.165 4 41 C4.99 41 5.98 41 7 41 C6.34 41.66 5.68 42.32 5 43 C4.875 46.625 4.875 46.625 5 50 C6.32 50.66 7.64 51.32 9 52 C8.67 52.701 8.34 53.403 8 54.125 C6.886 57.327 6.626 59.634 7 63 C10 65 10 65 13.562 64.75 C17 64 17 64 19 62 C19.125 59.375 19.125 59.375 19 57 C20.98 56.01 22.96 55.02 25 54 C24.954 52.842 24.907 51.685 24.859 50.492 C24.822 48.953 24.785 47.414 24.75 45.875 C24.716 45.114 24.683 44.354 24.648 43.57 C24.554 38.102 25.397 35.177 29 31 C29.66 31 30.32 31 31 31 C31 31.66 31 32.32 31 33 C31.592 32.942 32.183 32.884 32.793 32.824 C37.074 32.58 39.356 32.593 43.062 34.938 C45.665 39.052 45.464 42.263 45 47 C45.608 46.979 45.608 46.979 48.688 46.875 C52.213 46.888 54.914 47.13 58 49 C58.75 50.875 58.75 50.875 59 53 C59.2 53.606 59.4 54.212 59.605 54.836 C60.105 57.577 59.518 59.152 58.562 61.75 C58.275 62.549 57.988 63.348 57.691 64.172 C57.463 64.775 57.235 65.378 57 66 C56.34 66 55.68 66 55 66 C55 66.66 55 67.32 55 68 C54.381 68.082 53.763 68.165 53.125 68.25 C50.325 69.238 50.259 70.404 49 73 C48.691 73.134 48.691 73.134 47.125 73.812 C43.884 75.624 42.351 78.593 41 82 C41 83.32 41 84.64 41 86 C40.34 86 39.68 86 39 86 C38.67 85.01 38.34 84.02 38 83 C36.515 83.165 36.515 83.165 29 84 C29 84.66 29 85.32 29 86 C28.34 86 27.68 86 27 86 C27 86.66 27 87.32 27 88 C26.175 88.165 26.175 88.165 22 89 C21.67 87.68 21.34 86.36 21 85 C18.36 84.67 15.72 84.34 13 84 C14.135 88.918 15.197 91.672 19 95 C19.33 95.495 19.33 95.495 21 98 C21.99 98 22.98 98 24 98 C25.188 99.625 25.188 99.625 26 102 C24.938 105.187 24.938 105.187 23 108 C20.438 108.75 20.438 108.75 18 109 C17.67 109.33 17.67 109.33 16 111 C15.34 105.06 14.68 99.12 14 93 C13.34 93 12.68 93 12 93 C9.189 86.815 8.721 82.659 10 76 C9.546 75.866 9.546 75.866 7.25 75.188 C4.251 74.092 2.462 72.952 0 71 C-0.99 70.67 -1.98 70.34 -3 70 C-7.773 65.682 -7.773 65.682 -9 62 C-9.66 61.67 -10.32 61.34 -11 61 C-11 58.69 -11 56.38 -11 54 C-11.66 54 -12.32 54 -13 54 C-12.688 52.583 -12.376 51.167 -12.062 49.75 C-11.888 48.961 -11.714 48.172 -11.535 47.359 C-11.052 45.231 -10.538 43.115 -10 41 C-9.34 41 -8.68 41 -8 41 C-7.938 40.598 -7.938 40.598 -7.625 38.562 C-7 35 -7 35 -5.938 31.25 C-4.613 25.655 -4.925 20.004 -5.162 14.296 C-5.315 8.53 -5.315 8.53 -3.57 5.598 C-3.052 5.07 -2.534 4.543 -2 4 C-1.304 2.682 -0.628 1.352 0 0 Z " fill="#EEDDC6" transform="translate(23,17)"/>
<path d="M0 0 C0.66 0 1.32 0 2 0 C2 0.66 2 1.32 2 2 C3.32 2 4.64 2 6 2 C9.571 8.122 10.31 14.943 10.301 21.895 C10.305 22.609 10.309 23.323 10.314 24.058 C10.319 25.551 10.32 27.045 10.316 28.538 C10.312 30.825 10.336 33.11 10.361 35.396 C10.364 36.854 10.364 38.312 10.363 39.77 C10.366 41.085 10.369 42.401 10.372 43.757 C10 47 10 47 8.665 48.889 C4.975 51.351 1.531 51.121 -2.766 51.114 C-3.45 51.114 -4.133 51.114 -4.837 51.114 C-7.093 51.113 -9.349 51.105 -11.605 51.098 C-13.171 51.096 -14.736 51.094 -16.301 51.093 C-20.419 51.09 -24.537 51.08 -28.655 51.069 C-32.858 51.058 -37.061 51.054 -41.264 51.049 C-49.509 51.038 -57.755 51.021 -66 51 C-66.33 50.34 -66.66 49.68 -67 49 C-66.216 48.423 -65.433 47.845 -64.625 47.25 C-61.259 43.865 -61.185 40.204 -60.602 35.625 C-59.869 31.209 -58.67 27.029 -57.375 22.75 C-57.26 22.368 -57.26 22.368 -56.676 20.437 C-56.123 18.623 -55.562 16.811 -55 15 C-49.103 20.68 -49.103 20.68 -49 25 C-49.625 28.625 -49.625 28.625 -51 32 C-52.653 33.023 -54.318 34.026 -56 35 C-56.375 37.625 -56.375 37.625 -56 40 C-54.063 41.937 -50.698 41.263 -48.125 41.312 C-46.869 41.35 -45.614 41.387 -44.32 41.426 C-41 41 -41 41 -39.191 39.441 C-37.641 36.265 -36.675 33.036 -35.812 29.625 C-35.635 28.978 -35.458 28.331 -35.275 27.664 C-34.24 23.698 -33.722 20.094 -34 16 C-34.165 15.835 -34.165 15.835 -35 15 C-35.041 13 -35.043 11 -35 9 C-32.721 11.237 -30.559 13.551 -28.438 15.938 C-27.838 16.607 -27.239 17.276 -26.621 17.965 C-23.512 21.868 -22.513 24.972 -22.598 30.055 C-23.25 33.209 -25.749 34.805 -28 37 C-28.312 40.812 -28.312 40.812 -28 44 C-22.547 45.363 -17.265 46.012 -12.062 43.688 C-10 42 -10 42 -9 39 C-8.987 36.834 -9.033 34.668 -9.113 32.504 C-9.144 31.223 -9.174 29.943 -9.205 28.623 C-9.254 26.59 -9.313 24.559 -9.398 22.527 C-9.477 20.562 -9.514 18.595 -9.551 16.629 C-9.589 15.454 -9.626 14.279 -9.665 13.069 C-9 10 -9 10 -6.028 7.711 C-5.029 7.146 -4.03 6.582 -3 6 C-2.67 5.34 -2.34 4.68 -2 4 C-1.34 4 -0.68 4 0 4 C0 2.68 0 1.36 0 0 Z " fill="#FBF6ED" transform="translate(144,105)"/>
<path d="M0 0 C0.66 0 1.32 0 2 0 C2 2.31 2 4.62 2 7 C1.34 7 0.68 7 0 7 C0 7.99 0 8.98 0 10 C-0.99 10 -1.98 10 -3 10 C-3.062 10.485 -3.062 10.485 -3.375 12.938 C-3.581 13.948 -3.787 14.959 -4 16 C-4.33 16.165 -4.33 16.165 -6 17 C-6 19.97 -6 22.94 -6 26 C-7.625 25.859 -9.25 25.712 -10.875 25.562 C-11.78 25.481 -12.685 25.4 -13.617 25.316 C-16 25 -16 25 -18 24 C-17.502 24.402 -17.005 24.804 -16.492 25.219 C-15 27 -15 27 -14.82 29.156 C-14.921 29.93 -15.021 30.703 -15.125 31.5 C-15.21 32.273 -15.295 33.047 -15.383 33.844 C-16.103 36.361 -17.146 37.214 -19 39 C-19.827 42.861 -20.257 45.229 -19 49 C-21.333 53.667 -21.333 53.667 -24 55 C-26.333 55.04 -28.667 55.043 -31 55 C-31.33 53.35 -31.66 51.7 -32 50 C-32.33 51.65 -32.66 53.3 -33 55 C-39.152 55.098 -39.152 55.098 -41 55 C-42 54 -42 54 -42.312 51.188 C-42 48 -42 48 -40.188 45.688 C-38 44 -38 44 -35 43 C-33.414 39.828 -33.621 36.365 -33.438 32.875 C-33.394 32.121 -33.351 31.367 -33.307 30.59 C-33.201 28.727 -33.1 26.863 -33 25 C-32.67 25 -32.34 25 -32 25 C-31.67 26.65 -31.34 28.3 -31 30 C-30.691 29.918 -30.691 29.918 -29.125 29.5 C-27 29 -27 29 -25 29 C-23.875 25.688 -23.875 25.688 -23 22 C-23.66 21.01 -24.32 20.02 -25 19 C-25.99 19 -26.98 19 -28 19 C-29.038 17.357 -30.036 15.688 -31 14 C-31.99 13.34 -32.98 12.68 -34 12 C-34.688 8.375 -34.688 8.375 -35 5 C-32.36 5 -29.72 5 -27 5 C-26.67 6.32 -26.34 7.64 -26 9 C-24.35 9 -22.7 9 -21 9 C-21 8.34 -21 7.68 -21 7 C-20.34 7 -19.68 7 -19 7 C-19 6.34 -19 5.68 -19 5 C-16.03 4.34 -13.06 3.68 -10 3 C-9.835 3.66 -9.835 3.66 -9 7 C-8.34 7 -7.68 7 -7 7 C-6.67 6.01 -6.34 5.02 -6 4 C-3.5 2.375 -3.5 2.375 -1 1 C-0.67 0.67 -0.34 0.34 0 0 Z " fill="#E6D3BB" transform="translate(71,96)"/>
<path d="M0 0 C2.625 0.996 3.846 1.774 5.449 4.117 C8.9 11.803 9.608 18.601 9.723 26.968 C9.796 31.713 10.174 35.533 12 40 C12.99 40 13.98 40 15 40 C15 39.01 15 38.02 15 37 C15.66 37 16.32 37 17 37 C17 35.35 17 33.7 17 32 C18.32 32 19.64 32 21 32 C21.66 33.98 22.32 35.96 23 38 C22.01 37.67 21.02 37.34 20 37 C20 36.34 20 35.68 20 35 C19.34 35 18.68 35 18 35 C18 36.32 18 37.64 18 39 C17.34 39 16.68 39 16 39 C15.67 39.99 15.34 40.98 15 42 C14.01 42.66 13.02 43.32 12 44 C9.784 47.292 9.799 50 9.91 53.902 C9.92 54.471 9.92 54.471 9.971 57.35 C10.032 59.738 10.097 62.126 10.166 64.514 C10.175 65.083 10.175 65.083 10.223 67.965 C10.251 69.002 10.28 70.04 10.309 71.109 C9.951 74.463 8.96 76.285 7 79 C3.513 81.712 -0.774 81.45 -5 81 C-7.5 80 -7.5 80 -9 79 C-8.34 79 -7.68 79 -7 79 C-7 77.02 -7 75.04 -7 73 C-6.67 72.835 -6.67 72.835 -5 72 C-5 73.98 -5 75.96 -5 78 C-4.505 78.165 -4.505 78.165 -2 79 C-1.67 77.02 -1.34 75.04 -1 73 C-0.34 73.33 0.32 73.66 1 74 C0.67 75.65 0.34 77.3 0 79 C2.02 78.398 4.021 77.727 6 77 C7.301 74.398 7.168 72.403 7.188 69.5 C7.202 68.52 7.216 67.541 7.23 66.531 C7 64 7 64 5 62 C4.54 60.366 4.129 58.717 3.75 57.062 C2.389 52.249 2.389 52.249 -0.938 50.125 C-1.948 49.754 -2.959 49.382 -4 49 C-7.865 45.971 -8.39 43.78 -9 39 C-11 36 -11 36 -14 35 C-14 33.68 -14 32.36 -14 31 C-17.875 32.75 -17.875 32.75 -19 35 C-20.65 35 -22.3 35 -24 35 C-24.33 35.66 -24.66 36.32 -25 37 C-27.31 37 -29.62 37 -32 37 C-30 35 -30 35 -27.438 34 C-25 33 -25 33 -24 31 C-23.01 31 -22.02 31 -21 31 C-21 30.34 -21 29.68 -21 29 C-19.845 28.835 -19.845 28.835 -14 28 C-13.34 28.99 -12.68 29.98 -12 31 C-11.34 31 -10.68 31 -10 31 C-10.33 30.34 -10.66 29.68 -11 29 C-11.218 21.776 -8.488 16.165 -5 10 C1.75 13.75 1.75 13.75 4 16 C4.18 10.78 3.971 6.927 2 2 C1.34 2 0.68 2 0 2 C0 1.34 0 0.68 0 0 Z " fill="#86827B" transform="translate(126,70)"/>
<path d="M0 0 C3 3.75 3 3.75 3 6 C1.68 6 0.36 6 -1 6 C-3 9.75 -3 9.75 -3 12 C-2.34 12 -1.68 12 -1 12 C-1 12.66 -1 13.32 -1 14 C-0.01 14 0.98 14 2 14 C3.263 17.79 2.497 19.375 1 23 C0.34 23.33 -0.32 23.66 -1 24 C-1.633 26.285 -1.633 26.285 -2.125 29.062 C-2.293 29.982 -2.46 30.901 -2.633 31.848 C-2.754 32.558 -2.875 33.268 -3 34 C-3.495 34.165 -3.495 34.165 -6 35 C-6 35.66 -6 36.32 -6 37 C-6.66 37 -7.32 37 -8 37 C-8 37.66 -8 38.32 -8 39 C-8.619 39.124 -9.237 39.248 -9.875 39.375 C-12 40 -12 40 -14 42 C-19.785 38.554 -19.785 38.554 -20.875 35.75 C-20.916 35.172 -20.957 34.595 -21 34 C-21.33 34.165 -21.33 34.165 -23 35 C-23.202 28.64 -22.628 23.148 -21 17 C-20.01 17 -19.02 17 -18 17 C-18 16.01 -18 15.02 -18 14 C-17.34 14 -16.68 14 -16 14 C-16 11.69 -16 9.38 -16 7 C-16.361 7.309 -16.361 7.309 -18.188 8.875 C-20.784 10.837 -22.947 11.953 -26 13 C-25.469 8.485 -23.634 5.653 -21 2 C-18.03 2.33 -15.06 2.66 -12 3 C-12 4.32 -12 5.64 -12 7 C-11.629 6.567 -11.257 6.134 -10.875 5.688 C-8.487 3.538 -5.898 2.352 -3 1 C-2.34 1.66 -1.68 2.32 -1 3 C-0.67 2.01 -0.34 1.02 0 0 Z " fill="#82807C" transform="translate(89,89)"/>
<path d="M0 0 C2.279 2.237 4.441 4.551 6.562 6.938 C7.162 7.607 7.761 8.276 8.379 8.965 C11.488 12.868 12.487 15.972 12.402 21.055 C11.75 24.209 9.251 25.805 7 28 C6.688 31.812 6.688 31.812 7 35 C8.65 35.33 10.3 35.66 12 36 C12 36.33 12 36.66 12 37 C11.169 37.061 10.337 37.121 9.48 37.184 C8.394 37.267 7.307 37.351 6.188 37.438 C5.109 37.519 4.03 37.6 2.918 37.684 C0 38 0 38 -3 39 C-4.875 39.02 -6.751 38.993 -8.625 38.938 C-13.331 38.886 -17.352 39.377 -21.887 40.555 C-25.288 41.271 -28.536 41.126 -32 41 C-31.216 40.257 -30.433 39.515 -29.625 38.75 C-26.493 34.98 -26.213 31.344 -25.602 26.59 C-24.864 22.189 -23.665 18.017 -22.375 13.75 C-22.26 13.368 -22.26 13.368 -21.676 11.436 C-21.123 9.622 -20.562 7.811 -20 6 C-14.103 11.68 -14.103 11.68 -14 16 C-14.625 19.625 -14.625 19.625 -16 23 C-17.653 24.023 -19.318 25.026 -21 26 C-21.375 28.625 -21.375 28.625 -21 31 C-19.063 32.937 -15.698 32.263 -13.125 32.312 C-11.869 32.35 -10.614 32.387 -9.32 32.426 C-6 32 -6 32 -4.191 30.441 C-2.641 27.265 -1.675 24.036 -0.812 20.625 C-0.635 19.978 -0.458 19.331 -0.275 18.664 C0.76 14.698 1.278 11.094 1 7 C0.835 6.835 0.835 6.835 0 6 C-0.041 4 -0.043 2 0 0 Z " fill="#DED1C1" transform="translate(109,114)"/>
<path d="M0 0 C5.28 0.99 10.56 1.98 16 3 C17 8 17 8 16 10 C16.701 9.649 17.403 9.299 18.125 8.938 C21.503 7.836 23.581 8.205 27 9 C20.636 14 20.636 14 18 14 C18.66 14.99 19.32 15.98 20 17 C16.25 18.125 16.25 18.125 14 17 C13.34 17.66 12.68 18.32 12 19 C14.652 20.075 17.284 21.095 20 22 C19.67 22.66 19.34 23.32 19 24 C17.35 23.67 15.7 23.34 14 23 C14 23.66 14 24.32 14 25 C13.34 25 12.68 25 12 25 C11.34 27.97 10.68 30.94 10 34 C9.34 34 8.68 34 8 34 C7.67 34.66 7.34 35.32 7 36 C6.34 35.34 5.68 34.68 5 34 C4.505 34.165 4.505 34.165 2 35 C0.333 35 -1.333 35 -3 35 C-6.062 35.812 -6.062 35.812 -9 37 C-9.33 37.99 -9.66 38.98 -10 40 C-10.165 39.505 -10.165 39.505 -11 37 C-10.67 36.34 -10.34 35.68 -10 35 C-10.949 35.186 -11.897 35.371 -12.875 35.562 C-16 36 -16 36 -18 35 C-17 32 -17 32 -15.312 31 C-13.519 30.225 -11.701 29.506 -9.875 28.812 C-7 27 -7 27 -5.625 23.312 C-5.419 22.219 -5.213 21.126 -5 20 C-4.01 20 -3.02 20 -2 20 C-2 18.68 -2 17.36 -2 16 C-1.34 15.67 -0.68 15.34 0 15 C0 14.34 0 13.68 0 13 C0.99 13 1.98 13 3 13 C2.34 11.35 1.68 9.7 1 8 C1.66 8 2.32 8 3 8 C2.505 7.422 2.01 6.845 1.5 6.25 C0 4 0 4 0 0 Z " fill="#4A4946" transform="translate(87,57)"/>
<path d="M0 0 C0.66 0.33 1.32 0.66 2 1 C2 2.32 2 3.64 2 5 C2.412 5.248 2.412 5.248 4.5 6.5 C4.912 6.748 4.912 6.748 7 8 C7 9.32 7 10.64 7 12 C7.99 11.34 8.98 10.68 10 10 C11.32 10.33 12.64 10.66 14 11 C14 13.97 14 16.94 14 20 C13.34 20.33 12.68 20.66 12 21 C10.952 22.975 9.948 24.975 9 27 C8.34 27 7.68 27 7 27 C6.67 27.825 6.67 27.825 5 32 C4.34 32 3.68 32 3 32 C2.67 31.34 2.34 30.68 2 30 C1.67 30.66 1.34 31.32 1 32 C-0.65 31.67 -2.3 31.34 -4 31 C-4 29.02 -4 27.04 -4 25 C-4.66 26.98 -5.32 28.96 -6 31 C-6.66 30.67 -7.32 30.34 -8 30 C-8.625 27.438 -8.625 27.438 -9 25 C-9.33 25.33 -9.66 25.66 -10 26 C-11.666 26.041 -13.334 26.043 -15 26 C-12.45 7.3 -12.45 7.3 -10 1 C-9.362 1.012 -8.724 1.023 -8.066 1.035 C-7.24 1.044 -6.414 1.053 -5.562 1.062 C-5.151 1.068 -5.151 1.068 -3.066 1.098 C-1 1 -1 1 0 0 Z " fill="#EDDBC3" transform="translate(68,122)"/>
<path d="M0 0 C8.854 0.738 8.854 0.738 12 4 C13.041 5.641 14.045 7.307 15 9 C15.66 9.66 16.32 10.32 17 11 C17.853 13.348 18.635 15.679 19.375 18.062 C21.061 23.352 22.914 28.384 25.398 33.363 C25.498 33.633 25.498 33.633 26 35 C25.835 35.33 25.835 35.33 25 37 C24.67 36.835 24.67 36.835 23 36 C23 37.65 23 39.3 23 41 C22.34 41 21.68 41 21 41 C21 41.99 21 42.98 21 44 C20.01 44 19.02 44 18 44 C14.726 38.682 14.647 34.408 14.625 28.375 C14.427 19.87 13.154 13.542 9 6 C8.67 6 8.34 6 8 6 C8.495 6.804 8.99 7.609 9.5 8.438 C11.345 12.82 11.281 16.323 11 21 C10.541 20.627 10.082 20.255 9.609 19.871 C8.996 19.398 8.382 18.925 7.75 18.438 C7.147 17.962 6.543 17.486 5.922 16.996 C4 16 4 16 1.986 16.213 C0 17 0 17 -1.703 20.598 C-2.235 22.08 -2.75 23.569 -3.25 25.062 C-3.518 25.821 -3.786 26.58 -4.062 27.361 C-4.723 29.236 -5.363 31.117 -6 33 C-6.33 33 -6.66 33 -7 33 C-7.071 29.433 -7.07 26.297 -6.25 22.812 C-6.168 21.884 -6.085 20.956 -6 20 C-7.812 17.938 -7.812 17.938 -10 16 C-11.25 13.25 -11.25 13.25 -12 11 C-11.34 10.67 -10.68 10.34 -10 10 C-10.33 8.68 -10.66 7.36 -11 6 C-10.397 5.867 -9.793 5.734 -9.172 5.598 C-8.373 5.421 -7.573 5.244 -6.75 5.062 C-5.961 4.888 -5.172 4.714 -4.359 4.535 C-2.231 4.052 -0.115 3.538 2 3 C2 2.34 2 1.68 2 1 C1.34 0.67 0.68 0.34 0 0 Z " fill="#6C6A67" transform="translate(120,66)"/>
<path d="M0 0 C0 0.99 0 1.98 0 3 C0.66 3.33 1.32 3.66 2 4 C1.913 5.439 1.804 6.876 1.688 8.312 C1.629 9.113 1.571 9.914 1.512 10.738 C0.907 13.41 -0.053 14.154 -2 16 C-2.827 19.861 -3.257 22.229 -2 26 C-4.333 30.667 -4.333 30.667 -7 32 C-9.333 32.04 -11.667 32.043 -14 32 C-14.33 30.35 -14.66 28.7 -15 27 C-15.33 28.65 -15.66 30.3 -16 32 C-22.152 32.098 -22.152 32.098 -24 32 C-25 31 -25 31 -25.312 28.188 C-25 25 -25 25 -23.188 22.688 C-21 21 -21 21 -18 20 C-16.414 16.828 -16.621 13.365 -16.438 9.875 C-16.394 9.121 -16.351 8.367 -16.307 7.59 C-16.201 5.727 -16.1 3.863 -16 2 C-15.67 2 -15.34 2 -15 2 C-14.67 3.65 -14.34 5.3 -14 7 C-13.381 6.835 -12.763 6.67 -12.125 6.5 C-10 6 -10 6 -8 6 C-7.732 5.031 -7.464 4.061 -7.188 3.062 C-6.796 2.052 -6.404 1.041 -6 0 C-3 -1 -3 -1 0 0 Z " fill="#B6AA9A" transform="translate(54,119)"/>
<path d="M0 0 C0.66 0 1.32 0 2 0 C2 0.66 2 1.32 2 2 C2.302 1.977 2.302 1.977 3.828 1.859 C10.301 1.567 10.301 1.567 13.625 3.625 C15 6 15 6 14.75 9.25 C14.502 10.157 14.255 11.065 14 12 C13.299 11.505 12.597 11.01 11.875 10.5 C8.547 8.764 6.7 8.437 3 9 C0.377 11.274 0.039 12.675 -0.375 16.125 C-0.251 17.074 -0.127 18.023 0 19 C3.435 21.29 4.985 21.178 9 21 C10.231 14.6 10.231 14.6 9.062 11.562 C8.712 11.047 8.361 10.531 8 10 C9.953 10.711 9.953 10.711 12 12 C12.609 14.164 12.609 14.164 12.75 16.625 C12.807 17.442 12.863 18.26 12.922 19.102 C12.948 19.728 12.973 20.355 13 21 C14.65 19.68 16.3 18.36 18 17 C18.66 17.33 19.32 17.66 20 18 C15.375 22.875 15.375 22.875 12 24 C11.67 24.99 11.34 25.98 11 27 C7.772 29.152 6.716 29.201 3 29 C2.969 29.278 2.969 29.278 2.812 30.688 C1.479 34.483 -1.423 37.212 -5 39 C-6.875 39.168 -6.875 39.168 -9 39.188 C-9.701 39.202 -10.403 39.216 -11.125 39.23 C-13 39 -13 39 -15 37 C-15 36.01 -15 35.02 -15 34 C-14.175 33.546 -13.35 33.093 -12.5 32.625 C-11.675 32.089 -10.85 31.552 -10 31 C-9.688 28.312 -9.688 28.312 -10 26 C-8.02 25.01 -6.04 24.02 -4 23 C-4.046 21.842 -4.093 20.685 -4.141 19.492 C-4.178 17.953 -4.215 16.414 -4.25 14.875 C-4.284 14.114 -4.317 13.354 -4.352 12.57 C-4.446 7.102 -3.603 4.177 0 0 Z " fill="#F2E5D1" transform="translate(52,48)"/>
<path d="M0 0 C2.516 0.376 3.716 0.686 5.449 2.602 C8.242 7.165 9.665 10.644 10 16 C8.35 16.66 6.7 17.32 5 18 C3.875 13.25 3.875 13.25 5 11 C4.67 11.165 4.67 11.165 3 12 C2.586 14.504 2.586 14.504 2.375 17.562 C2.3 18.574 2.225 19.586 2.148 20.629 C2.099 21.411 2.05 22.194 2 23 C2.99 22.175 2.99 22.175 8 18 C8.66 18.33 9.32 18.66 10 19 C7.36 21.31 4.72 23.62 2 26 C2.33 26.66 2.66 27.32 3 28 C4.155 28.165 5.31 28.33 6.5 28.5 C7.655 28.665 8.81 28.83 10 29 C10.33 29.66 10.66 30.32 11 31 C10.67 31.66 10.34 32.32 10 33 C8.886 32.959 7.773 32.917 6.625 32.875 C3 33 3 33 1 35 C0.586 37.602 0.586 37.602 0.375 40.625 C0.3 41.628 0.225 42.631 0.148 43.664 C0.099 44.435 0.05 45.206 0 46 C-0.887 45.856 -1.774 45.711 -2.688 45.562 C-6 46 -6 46 -7.512 47.559 C-8.759 49.334 -9.917 51.121 -11 53 C-12.456 48.479 -11.27 45.484 -10 41 C-9.34 41 -8.68 41 -8 41 C-7.938 40.598 -7.938 40.598 -7.625 38.562 C-7 35 -7 35 -5.938 31.25 C-4.613 25.655 -4.925 20.004 -5.162 14.296 C-5.315 8.53 -5.315 8.53 -3.57 5.598 C-3.052 5.07 -2.534 4.543 -2 4 C-1.304 2.682 -0.628 1.352 0 0 Z " fill="#8C8985" transform="translate(23,17)"/>
<path d="M0 0 C0.99 0 1.98 0 3 0 C2.67 3.96 2.34 7.92 2 12 C-0.64 11.67 -3.28 11.34 -6 11 C-6.501 13.986 -6.996 16.973 -7.465 19.965 C-8.336 25.443 -9.318 30.713 -11 36 C-8.69 35.34 -6.38 34.68 -4 34 C-3.67 35.98 -3.34 37.96 -3 40 C-2.711 39.196 -2.422 38.391 -2.125 37.562 C-1 35 -1 35 1 34 C1 36.31 1 38.62 1 41 C2.32 41.33 3.64 41.66 5 42 C5.33 41.01 5.66 40.02 6 39 C6.33 39.99 6.66 40.98 7 42 C7.66 42 8.32 42 9 42 C9.268 41.237 9.536 40.474 9.812 39.688 C10.975 37.056 11.973 35.943 14 34 C15.188 31.812 15.188 31.812 16 30 C16.33 30 16.66 30 17 30 C17 27.03 17 24.06 17 21 C16.01 21.165 16.01 21.165 11 22 C11.33 20.02 11.66 18.04 12 16 C13.65 16 15.3 16 17 16 C17 15.34 17 14.68 17 14 C17.66 14 18.32 14 19 14 C19 13.34 19 12.68 19 12 C19.66 11.67 20.32 11.34 21 11 C21.633 9.152 21.633 9.152 22.125 6.938 C22.293 6.204 22.46 5.471 22.633 4.715 C22.693 4.432 22.693 4.432 23 3 C23.33 3 23.66 3 24 3 C23.654 11.056 22.847 18.533 20.684 26.309 C20.068 28.73 19.753 30.954 19.562 33.438 C18.927 37.46 17.85 39.15 15 42 C11.588 43.706 7.766 43.469 4 43.688 C3.167 43.747 2.335 43.807 1.477 43.869 C0.68 43.916 -0.117 43.963 -0.938 44.012 C-1.303 44.035 -1.303 44.035 -3.152 44.151 C-5 44 -5 44 -7 42 C-9.247 41.681 -9.247 41.681 -12.008 41.586 C-12.994 41.547 -13.98 41.509 -14.996 41.469 C-16.029 41.438 -17.061 41.407 -18.125 41.375 C-19.165 41.336 -20.206 41.298 -21.277 41.258 C-23.851 41.163 -26.425 41.078 -29 41 C-29.33 40.34 -29.66 39.68 -30 39 C-28.68 39 -27.36 39 -26 39 C-26 37.35 -26 35.7 -26 34 C-25.67 33.835 -25.67 33.835 -24 33 C-24 34.65 -24 36.3 -24 38 C-17.548 38.365 -17.548 38.365 -15.125 36.75 C-13.857 34.777 -13.291 33.328 -13 31 C-13.33 30.01 -13.66 29.02 -14 28 C-13.915 26.267 -13.764 24.536 -13.562 22.812 C-13.461 21.911 -13.359 21.01 -13.254 20.082 C-13.17 19.395 -13.086 18.708 -13 18 C-12.34 18.99 -11.68 19.98 -11 21 C-9.578 17.683 -8.61 14.558 -8 11 C-8.99 10.67 -9.98 10.34 -11 10 C-11 9.34 -11 8.68 -11 8 C-9.02 8.33 -9.02 8.33 1 10 C0.835 8.35 0.835 8.35 0 0 Z " fill="#BAA997" transform="translate(64,112)"/>
<path d="M0 0 C2.059 -0.402 2.059 -0.402 5 0 C7.605 1.886 9.807 4.153 12.062 6.438 C13.276 7.651 14.496 8.858 15.723 10.059 C16.256 10.598 16.79 11.137 17.34 11.693 C19.21 13.165 20.676 13.591 23 14 C22.453 17.375 21.945 19.082 20 22 C19.61 23.99 19.268 25.99 19 28 C18.34 28 17.68 28 17 28 C17.062 29.114 17.124 30.227 17.188 31.375 C17.157 31.973 17.157 31.973 17 35 C16.01 35.66 15.02 36.32 14 37 C13.67 36.526 13.34 36.051 13 35.562 C9.902 33.142 6.88 33.318 3 33 C3 29 3 29 4.531 27.297 C5.181 26.786 5.831 26.276 6.5 25.75 C7.15 25.229 7.799 24.708 8.469 24.172 C8.974 23.785 9.479 23.398 10 23 C7.288 24.613 4.626 26.249 2 28 C2.33 24.04 2.66 20.08 3 16 C3.99 15.67 4.98 15.34 6 15 C6 17.31 6 19.62 6 22 C7.65 21.34 9.3 20.68 11 20 C9.362 14.414 7.724 9.539 4 5 C3.01 5 2.02 5 1 5 C-0.803 8.967 -1.492 12.682 -2 17 C-2.33 17 -2.66 17 -3 17 C-3.554 5.478 -3.554 5.478 0 0 Z " fill="#848381" transform="translate(22,13)"/>
<path d="M0 0 C1.32 0 2.64 0 4 0 C4.303 0.603 4.606 1.207 4.918 1.828 C7.71 7.155 10.155 11.528 16.051 13.785 C18.742 15.462 18.893 16.968 19.625 20 C20.815 24.815 20.815 24.815 23 27 C23.301 29.461 23.301 29.461 23.312 32.375 C23.329 33.331 23.346 34.288 23.363 35.273 C22.947 38.401 22.207 39.772 20 42 C17.312 42.25 17.312 42.25 15 42 C15 40.35 15 38.7 15 37 C13.552 38.448 13.443 40.04 13 42 C11.68 41.67 10.36 41.34 9 41 C9 39.35 9 37.7 9 36 C8.67 36.825 8.67 36.825 7 41 C6.67 41 6.34 41 6 41 C5.75 38.25 5.75 38.25 6 35 C6.639 34.423 7.279 33.845 7.938 33.25 C10.796 30.132 10.608 27.456 10.824 23.34 C11 21 11 21 12 18 C10.927 17.443 9.855 16.886 8.75 16.312 C4.697 14.007 2.098 11.195 0 7 C-0.04 4.667 -0.043 2.333 0 0 Z " fill="#E9D6BD" transform="translate(111,107)"/>
<path d="M0 0 C1.072 0.082 2.145 0.165 3.25 0.25 C1.958 1.542 0.647 2.814 -0.688 4.062 C-4.182 7.769 -5.75 10.082 -5.75 15.25 C-6.41 15.25 -7.07 15.25 -7.75 15.25 C-8.08 14.26 -8.41 13.27 -8.75 12.25 C-10.235 12.415 -10.235 12.415 -17.75 13.25 C-17.75 13.91 -17.75 14.57 -17.75 15.25 C-18.41 15.25 -19.07 15.25 -19.75 15.25 C-19.75 15.91 -19.75 16.57 -19.75 17.25 C-21.4 17.58 -23.05 17.91 -24.75 18.25 C-25.08 16.93 -25.41 15.61 -25.75 14.25 C-28.39 13.92 -31.03 13.59 -33.75 13.25 C-32.615 18.168 -31.553 20.922 -27.75 24.25 C-27.09 25.24 -26.43 26.23 -25.75 27.25 C-24.76 27.25 -23.77 27.25 -22.75 27.25 C-21.562 28.875 -21.562 28.875 -20.75 31.25 C-21.812 34.438 -21.812 34.438 -23.75 37.25 C-26.312 38 -26.312 38 -28.75 38.25 C-29.41 38.91 -30.07 39.57 -30.75 40.25 C-31.41 34.31 -32.07 28.37 -32.75 22.25 C-33.41 22.25 -34.07 22.25 -34.75 22.25 C-37.525 16.007 -38.126 11.052 -37.75 4.25 C-37.09 4.25 -36.43 4.25 -35.75 4.25 C-35.214 5.24 -34.678 6.23 -34.125 7.25 C-31.75 10.25 -31.75 10.25 -28 11.062 C-23.225 10.762 -21.022 7.945 -17.766 4.727 C-15.75 3.25 -15.75 3.25 -13.609 3.148 C-13.261 3.217 -13.261 3.217 -11.5 3.562 C-10.881 3.676 -10.881 3.676 -7.75 4.25 C-3.472 0.231 -3.472 0.231 0 0 Z " fill="#D2BA9D" transform="translate(69.75,87.75)"/>
<path d="M0 0 C1.488 1.082 1.488 1.082 3 3 C3.293 6.137 3.293 6.137 3.188 9.688 C3.16 10.867 3.133 12.046 3.105 13.262 C3.071 14.165 3.036 15.069 3 16 C2.67 16 2.34 16 2 16 C1.34 13.69 0.68 11.38 0 9 C-2.312 8.312 -2.312 8.312 -5 8 C-7.018 9.513 -7.875 10.749 -9 13 C-8.34 13 -7.68 13 -7 13 C-7 14.65 -7 16.3 -7 18 C-7.66 17.34 -8.32 16.68 -9 16 C-8.567 18.597 -8.173 20.692 -6.875 23 C-6 25 -6 25 -6.562 27.25 C-7.131 30.825 -6.056 32.894 -4.594 36.133 C-4 38 -4 38 -5 41 C-6.511 39.932 -8.009 38.845 -9.5 37.75 C-10.335 37.147 -11.171 36.543 -12.031 35.922 C-12.681 35.288 -13.331 34.653 -14 34 C-14 32.68 -14 31.36 -14 30 C-14.99 30 -15.98 30 -17 30 C-17.33 29.01 -17.66 28.02 -18 27 C-18.33 27 -18.66 27 -19 27 C-19.473 18.807 -19.473 18.807 -17.5 15.438 C-17.005 14.963 -16.51 14.489 -16 14 C-15.01 14.165 -15.01 14.165 -10 15 C-10.035 14.241 -10.07 13.481 -10.105 12.699 C-10.119 12.202 -10.119 12.202 -10.188 9.688 C-10.205 9.194 -10.205 9.194 -10.293 6.699 C-10 4 -10 4 -8.719 2.125 C-5.853 0.249 -3.2 1.336 0 2 C0 1.34 0 0.68 0 0 Z " fill="#F4E5CF" transform="translate(33,48)"/>
<path d="M0 0 C2.993 2.414 3.93 3.672 4.75 7.5 C4.928 9.995 5 12.499 5 15 C4.34 15 3.68 15 3 15 C3.33 16.98 3.66 18.96 4 21 C3.361 21.309 2.721 21.619 2.062 21.938 C0 23 0 23 -1 24 C-1.99 23.67 -2.98 23.34 -4 23 C-6.959 23 -9.274 23.898 -12 25 C-12.33 25.99 -12.66 26.98 -13 28 C-13.33 27.01 -13.66 26.02 -14 25 C-13.67 24.34 -13.34 23.68 -13 23 C-13.949 23.186 -14.897 23.371 -15.875 23.562 C-19 24 -19 24 -21 23 C-20 20 -20 20 -18.312 19 C-16.519 18.225 -14.701 17.506 -12.875 16.812 C-10 15 -10 15 -8.625 11.312 C-8.419 10.219 -8.213 9.126 -8 8 C-7.01 8 -6.02 8 -5 8 C-5 6.68 -5 5.36 -5 4 C-4.34 3.67 -3.68 3.34 -3 3 C-3 2.34 -3 1.68 -3 1 C-2.01 0.67 -1.02 0.34 0 0 Z " fill="#6A6966" transform="translate(90,69)"/>
<path d="M0 0 C2.64 0.33 5.28 0.66 8 1 C7.885 3.23 7.758 5.459 7.625 7.688 C7.555 8.929 7.486 10.17 7.414 11.449 C7.036 14.693 6.38 17.066 5 20 C7.222 17.778 7.926 15.915 9 13 C9.33 13 9.66 13 10 13 C9.67 15.64 9.34 18.28 9 21 C10.65 21.33 12.3 21.66 14 22 C14 24 14 24 12.562 25.5 C12.047 25.995 11.531 26.49 11 27 C10.67 27.66 10.34 28.32 10 29 C8.68 29 7.36 29 6 29 C6 27.35 6 25.7 6 24 C5.34 25.98 4.68 27.96 4 30 C3.34 29.67 2.68 29.34 2 29 C1.375 26.438 1.375 26.438 1 24 C0.67 24.33 0.34 24.66 0 25 C-1.666 25.041 -3.334 25.043 -5 25 C-2.45 6.3 -2.45 6.3 0 0 Z " fill="#F8F2E8" transform="translate(58,123)"/>
<path d="M0 0 C0.99 0 1.98 0 3 0 C3 1.32 3 2.64 3 4 C3.598 4.041 4.196 4.082 4.812 4.125 C7 5 7 5 8.75 8.062 C9.162 9.032 9.575 10.001 10 11 C9.67 11.165 9.67 11.165 8 12 C6 9 6 9 6 6 C5.01 6.33 4.02 6.66 3 7 C2.652 10.658 2.869 12.732 4.5 16.062 C7.565 19.663 10.888 21.745 15 24 C14.921 24.284 14.921 24.284 14.52 25.719 C13.997 28.013 13.828 30.155 13.688 32.5 C13.275 36.789 12.025 37.975 9 41 C9.25 44.75 9.25 44.75 10 48 C9.505 48.165 9.505 48.165 7 49 C6 48 6 48 5.625 44.75 C6 41 6 41 8.5 38.562 C11.129 35.867 11.395 35.511 11.5 32 C11.058 25.774 7.295 22.027 3.305 17.551 C2 16 2 16 1 14 C0.67 14.495 0.67 14.495 -1 17 C-1 15.35 -1 13.7 -1 12 C-0.34 12 0.32 12 1 12 C0.67 9.69 0.34 7.38 0 5 C-0.248 5.743 -0.495 6.485 -0.75 7.25 C-2.764 11.682 -5.068 13.517 -9.375 15.75 C-13 17 -13 17 -19 17 C-18.67 13.04 -18.34 9.08 -18 5 C-17.01 5.33 -16.02 5.66 -15 6 C-8.308 5.308 -8.308 5.308 -7 4 C-5.334 3.959 -3.666 3.957 -2 4 C-1.34 2.68 -0.68 1.36 0 0 Z " fill="#C4B29B" transform="translate(109,101)"/>
<path d="M0 0 C2.279 2.237 4.441 4.551 6.562 6.938 C7.162 7.607 7.761 8.276 8.379 8.965 C11.405 12.764 12.592 15.929 12.434 20.895 C11.599 24.946 9.425 27.737 6 30 C2.906 30.558 0.103 30.434 -3 30 C-2.524 27.541 -2.045 25.083 -1.562 22.625 C-1.495 22.276 -1.495 22.276 -1.154 20.508 C-0.113 15.227 -0.113 15.227 1 13 C1.125 9.938 1.125 9.938 1 7 C0.67 6.67 0.34 6.34 0 6 C-0.041 4 -0.043 2 0 0 Z " fill="#F8F3EB" transform="translate(109,114)"/>
<path d="M0 0 C0.99 0 1.98 0 3 0 C3.65 1.415 4.295 2.832 4.938 4.25 C5.297 5.039 5.657 5.828 6.027 6.641 C7.621 10.506 8.156 13.82 8.188 18 C8.202 18.846 8.216 19.691 8.23 20.562 C7.985 23.154 7.306 24.77 6 27 C5.34 27 4.68 27 4 27 C4 26.34 4 25.68 4 25 C3.34 25 2.68 25 2 25 C1.34 20.38 0.68 15.76 0 11 C-0.66 11.66 -1.32 12.32 -2 13 C-1.697 14.341 -1.362 15.674 -1 17 C-1.33 17.99 -1.66 18.98 -2 20 C-4.867 19.427 -5.861 19.139 -8 17 C-8.571 13.43 -8.586 10.997 -6.727 7.832 C-4.638 5.035 -2.469 2.469 0 0 Z " fill="#E2C9B2" transform="translate(71,17)"/>
<path d="M0 0 C0.66 0.33 1.32 0.66 2 1 C1.34 1.66 0.68 2.32 0 3 C-0.125 6.625 -0.125 6.625 0 10 C1.32 10.66 2.64 11.32 4 12 C3.67 12.701 3.34 13.403 3 14.125 C1.91 17.26 1.847 19.706 2 23 C3.134 23.433 4.269 23.866 5.438 24.312 C6.613 24.869 7.789 25.426 9 26 C9.33 26.99 9.66 27.98 10 29 C9.01 29.66 8.02 30.32 7 31 C7.33 32.98 7.66 34.96 8 37 C7.34 37 6.68 37 6 37 C6 36.34 6 35.68 6 35 C5.505 35.165 5.505 35.165 3 36 C1.063 35.039 1.063 35.039 -1 33.625 C-3.423 31.982 -5.189 30.937 -8 30 C-12.773 25.682 -12.773 25.682 -14 22 C-14.66 21.67 -15.32 21.34 -16 21 C-16 18.69 -16 16.38 -16 14 C-16.66 14 -17.32 14 -18 14 C-17 12 -17 12 -14 10 C-13.876 11.134 -13.753 12.269 -13.625 13.438 C-13.522 14.025 -13.522 14.025 -13 17 C-12.34 17.33 -11.68 17.66 -11 18 C-11.33 18.99 -11.66 19.98 -12 21 C-11.01 21 -10.02 21 -9 21 C-8.959 21.296 -8.959 21.296 -8.754 22.797 C-7.769 25.676 -6.408 26.525 -3.938 28.25 C-3.204 28.771 -2.471 29.292 -1.715 29.828 C-1.432 30.021 -1.432 30.021 0 31 C-0.114 30.68 -0.114 30.68 -0.691 29.059 C-2.548 23.471 -2.96 19.881 -2 14 C-2.979 12.98 -3.979 11.979 -5 11 C-4.688 7.875 -4.688 7.875 -4 5 C-4 4.67 -4 4.34 -4 4 C-3 2 -3 2 0 0 Z " fill="#DDCCB7" transform="translate(28,57)"/>
<path d="M0 0 C2.31 0.66 4.62 1.32 7 2 C6.67 2.66 6.34 3.32 6 4 C5.01 3.67 4.02 3.34 3 3 C3 3.66 3 4.32 3 5 C3.763 5.103 4.526 5.206 5.312 5.312 C8.258 6.066 9.252 6.553 11 9 C11.688 11.688 11.688 11.688 12 14 C11.34 14 10.68 14 10 14 C9.67 14.66 9.34 15.32 9 16 C8.67 14.35 8.34 12.7 8 11 C7.608 11.175 7.608 11.175 5.625 12.062 C4.759 12.372 3.892 12.681 3 13 C2.34 12.67 1.68 12.34 1 12 C1 12.66 1 13.32 1 14 C0.01 14 -0.98 14 -2 14 C-2.33 14.99 -2.66 15.98 -3 17 C-5.322 17.705 -7.656 18.372 -10 19 C-10.33 19.66 -10.66 20.32 -11 21 C-11.66 19.35 -12.32 17.7 -13 16 C-12.34 15.67 -11.68 15.34 -11 15 C-11.103 14.093 -11.206 13.185 -11.312 12.25 C-11 9 -11 9 -8.5 6.75 C-7.675 6.172 -6.85 5.595 -6 5 C-6 4.34 -6 3.68 -6 3 C-4.02 2.67 -2.04 2.34 0 2 C0 1.34 0 0.68 0 0 Z " fill="#757470" transform="translate(104,87)"/>
<path d="M0 0 C0.33 0.66 0.66 1.32 1 2 C1.66 2 2.32 2 3 2 C3.33 1.34 3.66 0.68 4 0 C6.528 3.792 6.364 5.481 6 10 C4.01 18.326 4.01 18.326 0 21 C-0.99 21 -1.98 21 -3 21 C-3.33 20.01 -3.66 19.02 -4 18 C-4.33 19.65 -4.66 21.3 -5 23 C-6.32 23 -7.64 23 -9 23 C-9 20.69 -9 18.38 -9 16 C-9.99 16.99 -10.98 17.98 -12 19 C-11.812 17.188 -11.812 17.188 -11 15 C-10.196 14.629 -9.391 14.257 -8.562 13.875 C-5.413 11.571 -5.527 10.673 -4.938 6.938 C-4.843 6.06 -4.749 5.182 -4.652 4.277 C-4 2 -4 2 -1.941 0.691 C-1.301 0.463 -0.66 0.235 0 0 Z " fill="#EFDEC5" transform="translate(43,128)"/>
<path d="M0 0 C0.33 0 0.66 0 1 0 C1 2.97 1 5.94 1 9 C0.34 9 -0.32 9 -1 9 C0.875 15.875 0.875 15.875 2 17 C2.315 21.754 1.476 26.002 0.25 30.562 C0.093 31.209 -0.065 31.855 -0.227 32.521 C-1.364 36.822 -2.764 39.916 -6 43 C-8.359 43.488 -8.359 43.488 -10.75 43.312 C-11.549 43.267 -12.348 43.222 -13.172 43.176 C-13.474 43.147 -13.474 43.147 -15 43 C-13.25 38.125 -13.25 38.125 -11 37 C-11.33 38.65 -11.66 40.3 -12 42 C-8.562 40.688 -8.562 40.688 -5 39 C-3.174 33.522 -4.015 27.622 -5 22 C-6.423 19.573 -8.018 18.035 -10 16 C-10.125 13.312 -10.125 13.312 -9 11 C-6.562 9.312 -6.562 9.312 -4 8 C-1.537 5.537 -1.002 3.293 0 0 Z " fill="#AE9981" transform="translate(109,104)"/>
<path d="M0 0 C0.66 0 1.32 0 2 0 C2 0.66 2 1.32 2 2 C3.32 2 4.64 2 6 2 C8.103 5.417 8.406 8.021 8 12 C7.188 14.875 7.188 14.875 5 17 C1.3 17.431 -2.292 17.283 -6 17 C-6.33 19.31 -6.66 21.62 -7 24 C-7.33 24 -7.66 24 -8 24 C-8.33 19.38 -8.66 14.76 -9 10 C-8.031 9.381 -7.061 8.763 -6.062 8.125 C-3 6 -3 6 -2 4 C-1.34 4 -0.68 4 0 4 C0 2.68 0 1.36 0 0 Z " fill="#D3BEA4" transform="translate(144,105)"/>
<path d="M0 0 C0.99 0 1.98 0 3 0 C3.315 0.978 3.629 1.957 3.953 2.965 C6.115 9.61 8.27 16.094 11.398 22.363 C11.597 22.903 11.795 23.444 12 24 C11.67 24.66 11.34 25.32 11 26 C10.34 25.67 9.68 25.34 9 25 C9 26.65 9 28.3 9 30 C8.34 30 7.68 30 7 30 C7 30.99 7 31.98 7 33 C6.01 33 5.02 33 4 33 C0.833 27.853 0.649 23.842 1 18 C1.33 18 1.66 18 2 18 C2.202 11.64 1.628 6.148 0 0 Z " fill="#767470" transform="translate(134,77)"/>
<path d="M0 0 C2.855 -0.236 4.488 -0.333 6.929 1.253 C7.227 1.54 7.227 1.54 8.734 2.992 C9.391 3.615 10.047 4.237 10.723 4.879 C11.392 5.538 12.061 6.196 12.75 6.875 C13.434 7.526 14.119 8.177 14.824 8.848 C19.825 13.651 19.825 13.651 21 16 C18.03 16.99 15.06 17.98 12 19 C10.68 16.69 10.68 16.69 4 5 C3.01 5 2.02 5 1 5 C-0.803 8.967 -1.492 12.682 -2 17 C-2.33 17 -2.66 17 -3 17 C-3.554 5.478 -3.554 5.478 0 0 Z " fill="#575553" transform="translate(22,13)"/>
<path d="M0 0 C2.625 0.5 2.625 0.5 4.875 3 C6.919 7.089 7.313 9.975 7.625 14.5 C4.882 11.3 2.995 8.495 1.625 4.5 C-3.809 6.897 -6.69 11.385 -9.375 16.5 C-10.047 19.289 -10.047 19.289 -10.375 21.5 C-12.025 21.17 -13.675 20.84 -15.375 20.5 C-15.705 18.85 -16.035 17.2 -16.375 15.5 C-17.365 15.17 -18.355 14.84 -19.375 14.5 C-18.483 14.273 -17.591 14.046 -16.672 13.812 C-12.855 12.293 -11.254 10.619 -8.625 7.5 C-7.867 6.613 -7.109 5.726 -6.328 4.812 C-5.684 4.049 -5.039 3.286 -4.375 2.5 C-2.375 0.5 -2.375 0.5 0 0 Z " fill="#686764" transform="translate(72.375,12.5)"/>
<path d="M0 0 C0.527 0.013 0.527 0.013 3.191 0.078 C6.588 0.273 9.842 0.642 13.188 1.25 C13.517 2.24 13.847 3.23 14.188 4.25 C15.178 4.415 15.178 4.415 20.188 5.25 C20.517 6.24 20.847 7.23 21.188 8.25 C19.537 8.25 17.888 8.25 16.188 8.25 C16.517 9.24 16.847 10.23 17.188 11.25 C14.547 10.92 11.907 10.59 9.188 10.25 C9.517 9.26 9.847 8.27 10.188 7.25 C10.188 6.92 10.188 6.59 10.188 6.25 C8.583 6.391 6.979 6.538 5.375 6.688 C4.928 6.728 4.928 6.728 2.668 6.934 C0.188 7.25 0.188 7.25 -2.812 8.25 C-2.812 6.6 -2.812 4.95 -2.812 3.25 C-5.123 3.25 -7.433 3.25 -9.812 3.25 C-6.527 0.271 -4.387 -0.113 0 0 Z " fill="#706E6B" transform="translate(105.8125,58.75)"/>
<path d="M0 0 C-1.65 1.65 -3.3 3.3 -5 5 C-4.67 5.99 -4.34 6.98 -4 8 C-4.744 14.176 -6.93 20.164 -9 26 C-9.33 26 -9.66 26 -10 26 C-10.071 22.433 -10.07 19.297 -9.25 15.812 C-9.168 14.884 -9.085 13.956 -9 13 C-10.812 10.938 -10.812 10.938 -13 9 C-14.25 6.25 -14.25 6.25 -15 4 C-14.34 3.67 -13.68 3.34 -13 3 C-13.33 1.68 -13.66 0.36 -14 -1 C-8.511 -2.12 -5.166 -1.792 0 0 Z " fill="#5F5E5D" transform="translate(123,73)"/>
<path d="M0 0 C2.516 0.376 3.716 0.686 5.449 2.602 C8.242 7.165 9.665 10.644 10 16 C8.35 16.66 6.7 17.32 5 18 C4.34 14.04 3.68 10.08 3 6 C2.34 6 1.68 6 1 6 C0.67 11.94 0.34 17.88 0 24 C-0.66 24 -1.32 24 -2 24 C-3.191 20.427 -3.205 17.454 -3.25 13.688 C-3.276 12.392 -3.302 11.096 -3.328 9.762 C-2.983 5.804 -2 3.395 0 0 Z " fill="#E4D1BE" transform="translate(23,17)"/>
<path d="M0 0 C0.33 0.66 0.66 1.32 1 2 C-0.109 4.312 -0.109 4.312 -1.75 7 C-2.281 7.887 -2.812 8.774 -3.359 9.688 C-5 12 -5 12 -8 14 C-11 14.375 -11 14.375 -14 14 C-16.467 11.779 -16.962 10.564 -17.188 7.25 C-17.126 6.507 -17.064 5.765 -17 5 C-17.66 4.67 -18.32 4.34 -19 4 C-15.566 3.313 -12.421 2.98 -8.938 3.125 C-4.877 2.996 -3.194 2.395 0 0 Z " fill="#D47E6D" transform="translate(52,83)"/>
<path d="M0 0 C3.202 0.534 4.642 1.324 7 3.5 C6.67 4.49 6.34 5.48 6 6.5 C5.34 5.84 4.68 5.18 4 4.5 C4.248 5.407 4.495 6.315 4.75 7.25 C5 10.5 5 10.5 3.438 12.938 C1 14.5 1 14.5 -2.125 14.375 C-5 13.5 -5 13.5 -7 11.5 C-7.499 7.759 -7.245 5.934 -5.375 2.625 C-3 0.5 -3 0.5 0 0 Z " fill="#15110E" transform="translate(58,55.5)"/>
<path d="M0 0 C0.99 0 1.98 0 3 0 C2.67 3.96 2.34 7.92 2 12 C-0.64 11.67 -3.28 11.34 -6 11 C-6.506 13.949 -6.986 16.89 -7.359 19.859 C-8.314 26.927 -10.064 32.982 -14 39 C-17.003 40.502 -19.791 40.093 -23.125 40.062 C-24.406 40.053 -25.688 40.044 -27.008 40.035 C-27.502 40.029 -27.502 40.029 -30 40 C-29.34 39.835 -29.34 39.835 -26 39 C-26 37.35 -26 35.7 -26 34 C-25.67 33.835 -25.67 33.835 -24 33 C-24 34.65 -24 36.3 -24 38 C-17.548 38.365 -17.548 38.365 -15.125 36.75 C-13.857 34.777 -13.291 33.328 -13 31 C-13.33 30.01 -13.66 29.02 -14 28 C-13.915 26.267 -13.764 24.536 -13.562 22.812 C-13.461 21.911 -13.359 21.01 -13.254 20.082 C-13.17 19.395 -13.086 18.708 -13 18 C-12.34 18.99 -11.68 19.98 -11 21 C-9.578 17.683 -8.61 14.558 -8 11 C-8.99 10.67 -9.98 10.34 -11 10 C-11 9.34 -11 8.68 -11 8 C-9.02 8.33 -9.02 8.33 1 10 C0.835 8.35 0.835 8.35 0 0 Z " fill="#B29C84" transform="translate(64,112)"/>
<path d="M0 0 C4.763 3.134 5.715 5.534 7 11 C7.567 14.787 8.001 18.575 8.438 22.379 C8.966 25.784 9.807 28.775 11 32 C7.742 32 5.896 31.448 3 30 C2.67 29.01 2.34 28.02 2 27 C2.33 26.67 2.66 26.34 3 26 C2.01 25.01 1.02 24.02 0 23 C0.33 22.381 0.66 21.763 1 21.125 C3.28 13.999 2.083 7.029 0 0 Z " fill="#6E6B65" transform="translate(76,22)"/>
<path d="M0 0 C0.99 0.33 1.98 0.66 3 1 C5.341 0.722 7.676 0.395 10 0 C10 0.66 10 1.32 10 2 C10.66 2 11.32 2 12 2 C12 1.34 12 0.68 12 0 C12.99 0.33 13.98 0.66 15 1 C14.453 4.375 13.945 6.082 12 9 C7.108 11.54 4.694 12 -1 12 C-0.67 8.04 -0.34 4.08 0 0 Z " fill="#D9C6AC" transform="translate(91,106)"/>
<path d="M0 0 C5.897 5.68 5.897 5.68 6 10 C5.375 13.625 5.375 13.625 4 17 C1.5 18.688 1.5 18.688 -1 20 C-2.312 22.188 -2.312 22.188 -3 24 C-3.66 24 -4.32 24 -5 24 C-5.307 18.212 -4.244 13.562 -2.5 8.062 C-2.262 7.283 -2.023 6.504 -1.777 5.701 C-1.194 3.798 -0.598 1.899 0 0 Z " fill="#F8F5EA" transform="translate(89,120)"/>
<path d="M0 0 C3.516 5.274 3.174 11.427 3.25 17.625 C3.276 18.896 3.302 20.167 3.328 21.477 C2.981 25.208 2.225 27.032 0 30 C-3.487 32.712 -7.774 32.45 -12 32 C-14.5 31 -14.5 31 -16 30 C-15.34 30 -14.68 30 -14 30 C-14 28.02 -14 26.04 -14 24 C-13.34 23.67 -12.68 23.34 -12 23 C-12 24.98 -12 26.96 -12 29 C-11.01 29.33 -10.02 29.66 -9 30 C-8.67 28.02 -8.34 26.04 -8 24 C-7.34 24.33 -6.68 24.66 -6 25 C-6.33 26.65 -6.66 28.3 -7 30 C-4.98 29.398 -2.979 28.727 -1 28 C0.301 25.398 0.168 23.403 0.188 20.5 C0.202 19.52 0.216 18.541 0.23 17.531 C0 15 0 15 -2 13 C-2.607 11.145 -3.141 9.266 -3.625 7.375 C-3.885 6.372 -4.146 5.369 -4.414 4.336 C-4.607 3.565 -4.801 2.794 -5 2 C-4.34 2 -3.68 2 -3 2 C-2.67 2.495 -2.67 2.495 -1 5 C-0.67 3.35 -0.34 1.7 0 0 Z " fill="#A79D91" transform="translate(133,119)"/>
<path d="M0 0 C2.025 1.933 3.421 3.632 5 6 C5.99 6 6.98 6 8 6 C9.188 7.625 9.188 7.625 10 10 C8.938 13.188 8.938 13.188 7 16 C4.438 16.75 4.438 16.75 2 17 C1.34 17.66 0.68 18.32 0 19 C-1.063 13.02 -1.357 7.07 -1 1 C-0.67 0.67 -0.34 0.34 0 0 Z " fill="#827B72" transform="translate(39,109)"/>
<path d="M0 0 C2.416 2.524 2.985 3.804 3.258 7.348 C3.214 8.574 3.17 9.799 3.125 11.062 C2.915 17.744 2.915 17.744 4 21 C1.667 25.667 1.667 25.667 -1 27 C-3.333 27.04 -5.667 27.043 -8 27 C-8.33 25.68 -8.66 24.36 -9 23 C-8.67 23.66 -8.34 24.32 -8 25 C-5.125 24 -5.125 24 -2 22 C-0.133 16.909 0.327 12.444 0 7 C-0.33 6.34 -0.66 5.68 -1 5 C-1.99 5 -2.98 5 -4 5 C-3.67 4.34 -3.34 3.68 -3 3 C-2.34 3 -1.68 3 -1 3 C-0.67 2.01 -0.34 1.02 0 0 Z " fill="#E0CAAE" transform="translate(48,124)"/>
<path d="M0 0 C0.99 0.33 1.98 0.66 3 1 C3.363 3.103 3.715 5.207 4.062 7.312 C4.26 8.484 4.457 9.656 4.66 10.863 C5 14 5 14 4 17 C4.66 17 5.32 17 6 17 C6.33 18.32 6.66 19.64 7 21 C6.34 21 5.68 21 5 21 C5 20.34 5 19.68 5 19 C4.34 19 3.68 19 3 19 C2.34 14.38 1.68 9.76 1 5 C0.34 5.66 -0.32 6.32 -1 7 C-0.697 8.341 -0.362 9.674 0 11 C-0.33 11.99 -0.66 12.98 -1 14 C-3.867 13.427 -4.861 13.139 -7 11 C-7.125 7.375 -7.125 7.375 -7 4 C-6.67 4.165 -6.67 4.165 -5 5 C-4.34 4.34 -3.68 3.68 -3 3 C-2.67 3.33 -2.34 3.66 -2 4 C-1.34 2.68 -0.68 1.36 0 0 Z " fill="#D8C2AB" transform="translate(70,23)"/>
<path d="M0 0 C2.313 3.47 2.34 4.925 2 9 C1.67 9.495 1.67 9.495 0 12 C-2.562 12.25 -2.562 12.25 -5 12 C-6 11 -6 11 -6.062 7.5 C-6.042 6.345 -6.021 5.19 -6 4 C-6 3.67 -6 3.34 -6 3 C-6.33 3.165 -6.33 3.165 -8 4 C-7.625 2.062 -7.625 2.062 -7 0 C-4.276 -1.362 -2.872 -0.862 0 0 Z " fill="#13110E" transform="translate(33,56)"/>
<path d="M0 0 C0.33 0.66 0.66 1.32 1 2 C0.67 2.99 0.34 3.98 0 5 C0.66 5 1.32 5 2 5 C2.33 4.01 2.66 3.02 3 2 C3.66 2 4.32 2 5 2 C5 4.97 5 7.94 5 11 C4.093 11.206 3.185 11.413 2.25 11.625 C-1.757 13.32 -2.895 15.275 -5 19 C-6.456 14.479 -5.27 11.484 -4 7 C-3.34 7 -2.68 7 -2 7 C-1.856 6.031 -1.711 5.061 -1.562 4.062 C-1 1 -1 1 0 0 Z " fill="#888883" transform="translate(17,51)"/>
<path d="M0 0 C2 2 2 2 2.188 5.5 C2 9 2 9 1 11 C0.01 11 -0.98 11 -2 11 C-2.33 12.32 -2.66 13.64 -3 15 C-3 14.34 -3 13.68 -3 13 C-3.99 13.33 -4.98 13.66 -6 14 C-8.062 12.25 -8.062 12.25 -10 10 C-9.75 7.75 -9.75 7.75 -9 6 C-8.67 6.66 -8.34 7.32 -8 8 C-7.588 7.526 -7.175 7.051 -6.75 6.562 C-4.818 4.837 -3.518 4.434 -1 4 C-0.67 2.68 -0.34 1.36 0 0 Z " fill="#787672" transform="translate(85,106)"/>
<path d="M0 0 C1.333 2.667 0.671 4.167 0 7 C2.97 6.34 5.94 5.68 9 5 C9.33 6.65 9.66 8.3 10 10 C9.01 10 8.02 10 7 10 C7 9.34 7 8.68 7 8 C6.34 8.33 6.34 8.33 3 10 C3.351 10.309 3.351 10.309 5.125 11.875 C7.308 15.513 7.079 16.311 6.25 20.312 C5.856 21.881 5.447 23.446 5 25 C4.67 25 4.34 25 4 25 C4.023 24.668 4.023 24.668 4.141 22.988 C4.439 15.686 4.439 15.686 2 11.875 C1.34 11.256 0.68 10.638 0 10 C-0.66 12.31 -1.32 14.62 -2 17 C-2.66 17 -3.32 17 -4 17 C-3.913 14.54 -3.806 12.084 -3.688 9.625 C-3.665 8.926 -3.642 8.228 -3.619 7.508 C-3.512 5.477 -3.512 5.477 -3 2 C-2.01 1.34 -1.02 0.68 0 0 Z " fill="#BBA68D" transform="translate(90,111)"/>
<path d="M0 0 C0.951 0.005 1.903 0.01 2.883 0.016 C8.737 0.08 14.443 0.509 20.25 1.25 C20.25 1.58 20.25 1.91 20.25 2.25 C19.834 2.28 19.834 2.28 17.73 2.434 C17.187 2.475 17.187 2.475 14.438 2.688 C13.898 2.728 13.898 2.728 11.168 2.934 C8.25 3.25 8.25 3.25 5.25 4.25 C3.375 4.27 1.499 4.243 -0.375 4.188 C-5.081 4.136 -9.102 4.627 -13.637 5.805 C-17.038 6.521 -20.286 6.376 -23.75 6.25 C-23.75 5.92 -23.75 5.59 -23.75 5.25 C-22.79 5.038 -22.79 5.038 -17.988 3.98 C-15.75 3.25 -15.75 3.25 -13.652 1.691 C-9.197 -0.521 -4.9 -0.105 0 0 Z " fill="#ECE1D3" transform="translate(100.75,148.75)"/>
<path d="M0 0 C0.66 0 1.32 0 2 0 C2 0.66 2 1.32 2 2 C3.98 1.835 3.98 1.835 14 1 C13 6 13 6 10.812 7.875 C7.369 9.252 5.531 9.02 2 8 C0 6 0 6 -0.125 2.875 C-0.084 1.926 -0.043 0.978 0 0 Z " fill="#1C1C17" transform="translate(29,74)"/>
<path d="M0 0 C1.98 0 3.96 0 6 0 C6.33 0.99 6.66 1.98 7 3 C6.67 3.66 6.34 4.32 6 5 C6.701 4.649 7.403 4.299 8.125 3.938 C11.503 2.836 13.581 3.205 17 4 C10.636 9 10.636 9 8 9 C8.33 9.495 8.33 9.495 10 12 C7.489 12.897 6.355 13.132 3.812 12.188 C2 11 2 11 1 9 C1.99 8.01 2.98 7.02 4 6 C2.35 5.01 0.7 4.02 -1 3 C-0.67 2.01 -0.34 1.02 0 0 Z " fill="#5A5A59" transform="translate(97,62)"/>
<path d="M0 0 C0.33 0 0.66 0 1 0 C0.67 2.64 0.34 5.28 0 8 C1.65 8.33 3.3 8.66 5 9 C5 11 5 11 3.562 12.5 C3.047 12.995 2.531 13.49 2 14 C1.67 14.66 1.34 15.32 1 16 C-0.32 16 -1.64 16 -3 16 C-3 14.35 -3 12.7 -3 11 C-3.66 12.98 -4.32 14.96 -5 17 C-5.66 16.67 -6.32 16.34 -7 16 C-7 13.36 -7 10.72 -7 8 C-6.402 7.979 -5.804 7.959 -5.188 7.938 C-3 7 -3 7 -1.25 3.438 C-0.838 2.303 -0.425 1.169 0 0 Z " fill="#F3E4D0" transform="translate(67,136)"/>
<path d="M0 0 C0 0.99 0 1.98 0 3 C0.66 3.33 1.32 3.66 2 4 C1.913 5.439 1.804 6.876 1.688 8.312 C1.629 9.113 1.571 9.914 1.512 10.738 C0.918 13.363 0.042 14.308 -2 16 C-2.268 14.907 -2.536 13.814 -2.812 12.688 C-4 9 -4 9 -5.625 7.375 C-7 6 -7 6 -7.188 3.312 C-7.126 2.549 -7.064 1.786 -7 1 C-3.375 -1.125 -3.375 -1.125 0 0 Z " fill="#CDB69A" transform="translate(54,119)"/>
<path d="M0 0 C0.66 0.33 1.32 0.66 2 1 C2.969 0.794 3.939 0.588 4.938 0.375 C8 0 8 0 9.875 1.438 C10.246 1.953 10.617 2.469 11 3 C7.947 3.981 6.053 3.981 3 3 C1.68 4.65 0.36 6.3 -1 8 C1.64 8.66 4.28 9.32 7 10 C6.67 10.66 6.34 11.32 6 12 C2.7 12 -0.6 12 -4 12 C-5 9 -5 9 -4.062 6.812 C-3.712 6.214 -3.361 5.616 -3 5 C-3.99 4.67 -4.98 4.34 -6 4 C-5.381 3.897 -4.762 3.794 -4.125 3.688 C-2 3 -2 3 0 0 Z " fill="#988D7F" transform="translate(35,64)"/>
<path d="M0 0 C3.3 0.33 6.6 0.66 10 1 C10.33 2.32 10.66 3.64 11 5 C8.444 7.203 6.601 8.005 3.219 7.977 C0.466 7.714 -2.264 7.398 -5 7 C-3.35 4.69 -1.7 2.38 0 0 Z " fill="#98958F" transform="translate(38,66)"/>
<path d="M0 0 C0.66 0.33 1.32 0.66 2 1 C1.34 1.66 0.68 2.32 0 3 C-0.125 6.625 -0.125 6.625 0 10 C1.32 10.66 2.64 11.32 4 12 C2.333 17 0.667 22 -1 27 C-1.366 25.586 -1.717 24.169 -2.062 22.75 C-2.26 21.961 -2.457 21.172 -2.66 20.359 C-3.017 17.884 -2.619 16.382 -2 14 C-2.495 13.546 -2.99 13.093 -3.5 12.625 C-3.995 12.089 -4.49 11.552 -5 11 C-4.688 7.875 -4.688 7.875 -4 5 C-4 4.67 -4 4.34 -4 4 C-3 2 -3 2 0 0 Z " fill="#D2BFA7" transform="translate(28,57)"/>
<path d="M0 0 C0.33 0.66 0.66 1.32 1 2 C3.31 1.34 5.62 0.68 8 0 C8.33 2.97 8.66 5.94 9 9 C8.01 9 7.02 9 6 9 C5.67 8.67 5.34 8.34 5 8 C3.367 7.843 1.729 7.749 0.09 7.684 C-0.9 7.642 -1.889 7.6 -2.908 7.557 C-3.949 7.517 -4.99 7.478 -6.062 7.438 C-7.107 7.394 -8.152 7.351 -9.229 7.307 C-11.819 7.2 -14.409 7.098 -17 7 C-17 6.67 -17 6.34 -17 6 C-16.548 5.981 -16.548 5.981 -14.262 5.887 C-13.082 5.821 -11.903 5.755 -10.688 5.688 C-9.516 5.629 -8.344 5.571 -7.137 5.512 C-3.865 4.978 -2.9 4.627 -1 2 C-0.67 1.34 -0.34 0.68 0 0 Z " fill="#D3C5B6" transform="translate(52,146)"/>
<path d="M0 0 C0.66 0 1.32 0 2 0 C2 1.98 2 3.96 2 6 C1.34 6 0.68 6 0 6 C-0.041 6.907 -0.082 7.815 -0.125 8.75 C-1 12 -1 12 -4.062 14.375 C-5.032 14.911 -6.001 15.448 -7 16 C-7 15.34 -7 14.68 -7 14 C-8.65 14 -10.3 14 -12 14 C-11.043 12.874 -10.084 11.749 -9.125 10.625 C-8.591 9.999 -8.058 9.372 -7.508 8.727 C-6.386 7.442 -5.206 6.206 -4 5 C-3.01 5 -2.02 5 -1 5 C-0.67 3.35 -0.34 1.7 0 0 Z " fill="#4E4C48" transform="translate(87,75)"/>
<path d="M0 0 C0.33 0 0.66 0 1 0 C1.33 2.31 1.66 4.62 2 7 C1.464 7.124 0.927 7.248 0.375 7.375 C-2.495 8.13 -5.241 8.896 -8 10 C-8.33 10.99 -8.66 11.98 -9 13 C-9.33 12.01 -9.66 11.02 -10 10 C-9.67 9.34 -9.34 8.68 -9 8 C-9.474 8.093 -9.474 8.093 -11.875 8.562 C-15 9 -15 9 -17 8 C-16.67 7.01 -16.34 6.02 -16 5 C-13.188 3.688 -13.188 3.688 -10 3 C-7.75 3.875 -7.75 3.875 -6 5 C-4 5 -4 5 -1 3 C-0.67 2.01 -0.34 1.02 0 0 Z " fill="#64615D" transform="translate(86,84)"/>
<path d="M0 0 C0.229 0.169 0.229 0.169 1.391 1.023 C7.485 5.453 7.485 5.453 11 7 C10.841 7.567 10.683 8.134 10.52 8.719 C9.997 11.013 9.828 13.155 9.688 15.5 C9.275 19.789 8.025 20.975 5 24 C5.25 27.75 5.25 27.75 6 31 C5.01 31.33 4.02 31.66 3 32 C2 31 2 31 1.625 27.75 C2 24 2 24 4.5 21.562 C7.129 18.867 7.395 18.511 7.5 15 C7.168 10.1 5.254 7.254 1.812 3.812 C1.214 3.214 0.616 2.616 0 2 C0 1.34 0 0.68 0 0 Z " fill="#C3AF97" transform="translate(113,118)"/>
<path d="M0 0 C1.523 2.937 2.801 5.917 4 9 C3.01 8.67 2.02 8.34 1 8 C1 9.65 1 11.3 1 13 C0.34 13 -0.32 13 -1 13 C-1 13.99 -1 14.98 -1 16 C-1.99 16 -2.98 16 -4 16 C-5.062 13.625 -5.062 13.625 -6 11 C-5.67 10.34 -5.34 9.68 -5 9 C-4.34 9 -3.68 9 -3 9 C-3.248 8.257 -3.495 7.515 -3.75 6.75 C-3.833 5.843 -3.915 4.935 -4 4 C-2.062 1.688 -2.062 1.688 0 0 Z " fill="#837D76" transform="translate(142,94)"/>
<path d="M0 0 C2.41 0.964 3.747 1.609 5.176 3.816 C6.149 6.396 5.992 7.543 5.312 10.188 C5.214 10.576 5.214 10.576 4.715 12.539 C3.593 16.401 2.344 20.21 1 24 C0.67 24 0.34 24 0 24 C-0.069 20.566 -0.072 17.383 0.562 14 C1.233 9.405 0.458 5.374 -1 1 C-0.67 0.67 -0.34 0.34 0 0 Z " fill="#504F4D" transform="translate(113,75)"/>
<path d="M0 0 C0.66 0.33 1.32 0.66 2 1 C2 2.32 2 3.64 2 5 C4.5 6.75 4.5 6.75 7 8 C6.34 8.66 5.68 9.32 5 10 C1.875 9.625 1.875 9.625 -1 9 C-1.049 9.687 -1.098 10.374 -1.148 11.082 C-1.223 11.983 -1.298 12.884 -1.375 13.812 C-1.445 14.706 -1.514 15.599 -1.586 16.52 C-2 19 -2 19 -4 22 C-4.66 21.67 -5.32 21.34 -6 21 C-5.691 20.323 -5.381 19.646 -5.062 18.949 C-3.437 14.438 -3.119 9.825 -2.562 5.082 C-2 2 -2 2 0 0 Z " fill="#BEB3A6" transform="translate(68,122)"/>
<path d="M0 0 C1.32 0 2.64 0 4 0 C4.66 1.98 5.32 3.96 6 6 C5.01 5.67 4.02 5.34 3 5 C3 4.34 3 3.68 3 3 C2.34 3 1.68 3 1 3 C1 4.32 1 5.64 1 7 C0.34 7 -0.32 7 -1 7 C-1.33 7.99 -1.66 8.98 -2 10 C-2.99 10.66 -3.98 11.32 -5 12 C-5.33 12.495 -5.33 12.495 -7 15 C-7.66 14.67 -8.32 14.34 -9 14 C-9.286 6.571 -9.286 6.571 -7 3 C-6.34 4.65 -5.68 6.3 -5 8 C-4.01 8 -3.02 8 -2 8 C-2 7.01 -2 6.02 -2 5 C-1.34 5 -0.68 5 0 5 C0 3.35 0 1.7 0 0 Z " fill="#C1A88D" transform="translate(143,102)"/>
<path d="M0 0 C3.491 1.397 4.771 2.709 6.312 6.125 C8.277 10.886 8.242 14.031 7 19 C6.34 19.33 5.68 19.66 5 20 C4.67 20.99 4.34 21.98 4 23 C1.088 19.712 -0.497 17.401 -1 13 C-0.34 13.33 -0.34 13.33 3 15 C4 14 4 14 4.188 11.312 C3.993 7.874 3.221 5.205 2 2 C1.34 2 0.68 2 0 2 C0 1.34 0 0.68 0 0 Z " fill="#7A7873" transform="translate(126,70)"/>
<path d="M0 0 C0.66 0 1.32 0 2 0 C4 4.75 4 4.75 4 7 C3.34 7 2.68 7 2 7 C2.33 8.32 2.66 9.64 3 11 C2.34 11 1.68 11 1 11 C0.67 12.32 0.34 13.64 0 15 C-0.454 14.505 -0.907 14.01 -1.375 13.5 C-3 12 -3 12 -5 12 C-5 11.34 -5 10.68 -5 10 C-4.34 10 -3.68 10 -3 10 C-3 8.02 -3 6.04 -3 4 C-2.34 4 -1.68 4 -1 4 C-0.67 2.68 -0.34 1.36 0 0 Z " fill="#767370" transform="translate(127,94)"/>
<path d="M0 0 C3.541 4.721 4.146 7.308 4.25 13.062 C4.276 13.92 4.302 14.777 4.328 15.66 C3.938 18.439 3.15 19.275 1 21 C1 20.01 1 19.02 1 18 C0.34 18 -0.32 18 -1 18 C-0.835 15.03 -0.835 15.03 0 0 Z " fill="#E6D3C1" transform="translate(75,22)"/>
<path d="M0 0 C3 1 6 2 9 3 C8.67 3.66 8.34 4.32 8 5 C6.35 4.67 4.7 4.34 3 4 C3 4.66 3 5.32 3 6 C2.34 6 1.68 6 1 6 C0.34 8.97 -0.32 11.94 -1 15 C-1.66 15 -2.32 15 -3 15 C-3.33 15.66 -3.66 16.32 -4 17 C-5.065 13.804 -5.074 11.343 -5 8 C-4.34 8 -3.68 8 -3 8 C-3.33 6.68 -3.66 5.36 -4 4 C-3.34 3.67 -2.68 3.34 -2 3 C-1.67 4.32 -1.34 5.64 -1 7 C-0.67 4.69 -0.34 2.38 0 0 Z " fill="#5D5D5B" transform="translate(98,76)"/>
<path d="M0 0 C3.228 0.96 4.741 1.661 6.812 4.375 C8 7 8 7 8 11 C8.33 12.011 8.66 13.021 9 14.062 C10.515 18.95 10.165 23.938 10 29 C7.484 26.484 7.783 25.6 7.688 22.125 C7.111 14.022 3.634 7.15 0 0 Z " fill="#54504C" transform="translate(127,68)"/>
<path d="M0 0 C3.254 2.834 4.521 4.686 5 9 C3.68 8.34 2.36 7.68 1 7 C0.67 8.98 0.34 10.96 0 13 C-0.99 13.33 -1.98 13.66 -3 14 C-3 13.34 -3 12.68 -3 12 C-2.34 12 -1.68 12 -1 12 C-1 10.02 -1 8.04 -1 6 C-1.66 6 -2.32 6 -3 6 C-3.33 7.65 -3.66 9.3 -4 11 C-5.32 11.33 -6.64 11.66 -8 12 C-7.67 10.68 -7.34 9.36 -7 8 C-6.34 8 -5.68 8 -5 8 C-5 6.68 -5 5.36 -5 4 C-4.34 3.67 -3.68 3.34 -3 3 C-3 2.34 -3 1.68 -3 1 C-2.01 0.67 -1.02 0.34 0 0 Z " fill="#615F5A" transform="translate(90,69)"/>
<path d="M0 0 C0.66 0.33 1.32 0.66 2 1 C1.319 1.66 0.639 2.32 -0.062 3 C-2.342 6.529 -1.939 7.991 -1.164 11.996 C-0.902 15.197 -2.347 17.355 -4 20 C-4.99 19.67 -5.98 19.34 -7 19 C-7.212 13.808 -6.591 9.873 -5 5 C-4.34 5 -3.68 5 -3 5 C-2.691 4.361 -2.381 3.721 -2.062 3.062 C-1 1 -1 1 0 0 Z " fill="#656464" transform="translate(47,33)"/>
<path d="M0 0 C3 1 3 1 4.188 2.75 C5.108 5.3 5.149 7.309 5 10 C4.34 10 3.68 10 3 10 C2.67 10.99 2.34 11.98 2 13 C0.35 12.01 -1.3 11.02 -3 10 C-2.67 8.35 -2.34 6.7 -2 5 C-1.34 5 -0.68 5 0 5 C0 3.35 0 1.7 0 0 Z " fill="#EDDBC4" transform="translate(145,106)"/>
<path d="M0 0 C0.66 0.33 1.32 0.66 2 1 C2.369 11.519 1.689 20.754 -1 31 C-1.33 31 -1.66 31 -2 31 C-2.089 25.495 -1.892 20.177 -1.289 14.707 C-0.766 9.813 -0.396 4.905 0 0 Z " fill="#A1998C" transform="translate(133,83)"/>
<path d="M0 0 C0.33 2.31 0.66 4.62 1 7 C0.67 5.68 0.34 4.36 0 3 C-3.875 4.75 -3.875 4.75 -5 7 C-6.65 7 -8.3 7 -10 7 C-10.33 7.66 -10.66 8.32 -11 9 C-13.31 9 -15.62 9 -18 9 C-16 7 -16 7 -13.438 6 C-11 5 -11 5 -10 3 C-9.01 3 -8.02 3 -7 3 C-7 2.34 -7 1.68 -7 1 C-2.25 0 -2.25 0 0 0 Z " fill="#A79989" transform="translate(112,98)"/>
<path d="M0 0 C0.33 0.66 0.66 1.32 1 2 C0.34 2.99 0.34 2.99 -3 8 C-3.33 7.01 -3.66 6.02 -4 5 C-6.938 5.375 -6.938 5.375 -10 6 C-10.33 6.66 -10.66 7.32 -11 8 C-13.562 8.625 -13.562 8.625 -16 9 C-16.124 8.361 -16.248 7.721 -16.375 7.062 C-16.478 6.722 -16.478 6.722 -17 5 C-17.66 4.67 -18.32 4.34 -19 4 C-15.566 3.313 -12.421 2.98 -8.938 3.125 C-4.877 2.996 -3.194 2.395 0 0 Z " fill="#5C261E" transform="translate(52,83)"/>
<path d="M0 0 C0.33 0 0.66 0 1 0 C1.124 1.134 1.247 2.269 1.375 3.438 C1.478 4.025 1.478 4.025 2 7 C2.66 7.33 3.32 7.66 4 8 C3.67 8.99 3.34 9.98 3 11 C3.99 11 4.98 11 6 11 C6.66 13.64 7.32 16.28 8 19 C2.125 15.375 2.125 15.375 1 12 C0.34 11.67 -0.32 11.34 -1 11 C-1 8.69 -1 6.38 -1 4 C-1.66 4 -2.32 4 -3 4 C-2 2 -2 2 0 0 Z " fill="#DAC7AF" transform="translate(13,67)"/>
<path d="M0 0 C2.334 3.295 2.096 6.069 1.484 9.969 C0.53 13.97 -1.106 17.106 -4 20 C-6.164 20.195 -6.164 20.195 -8.625 20.125 C-9.442 20.107 -10.26 20.089 -11.102 20.07 C-11.728 20.047 -12.355 20.024 -13 20 C-11.25 15.125 -11.25 15.125 -9 14 C-9.33 15.65 -9.66 17.3 -10 19 C-6.562 17.688 -6.562 17.688 -3 16 C-1.725 12.174 -1.579 8.502 -1.281 4.496 C-1 2 -1 2 0 0 Z " fill="#9C8C78" transform="translate(107,127)"/>
<path d="M0 0 C0.289 0.165 0.289 0.165 1.75 1 C4 2 4 2 8 2 C7.67 5.3 7.34 8.6 7 12 C6.01 11.67 5.02 11.34 4 11 C4.66 11 5.32 11 6 11 C6 8.69 6 6.38 6 4 C5.639 4.309 5.639 4.309 3.812 5.875 C1.216 7.837 -0.947 8.953 -4 10 C-3.435 6.042 -2.191 3.334 0 0 Z " fill="#92887D" transform="translate(67,92)"/>
<path d="M0 0 C0.33 0 0.66 0 1 0 C1.451 3.876 1.368 5.506 -1 8.688 C-4.949 11.732 -7.492 11.592 -12.312 11.312 C-13.053 11.29 -13.794 11.267 -14.557 11.244 C-16.372 11.186 -18.186 11.096 -20 11 C-20.33 10.34 -20.66 9.68 -21 9 C-20.34 9 -19.68 9 -19 9 C-19.062 8.216 -19.124 7.433 -19.188 6.625 C-19.126 5.759 -19.064 4.893 -19 4 C-18.01 3.34 -17.02 2.68 -16 2 C-16 4.31 -16 6.62 -16 9 C-14.68 9.33 -13.36 9.66 -12 10 C-11.67 9.01 -11.34 8.02 -11 7 C-10.67 7.99 -10.34 8.98 -10 10 C-6.688 9.5 -6.688 9.5 -3 8 C-1.495 5.457 -0.699 2.861 0 0 Z " fill="#8D7F6E" transform="translate(81,144)"/>
<path d="M0 0 C5.28 0.99 10.56 1.98 16 3 C16 3.33 16 3.66 16 4 C14.866 4.124 13.731 4.248 12.562 4.375 C11.975 4.478 11.975 4.478 9 5 C8.67 5.66 8.34 6.32 8 7 C6.68 6.67 5.36 6.34 4 6 C3.67 6.66 3.34 7.32 3 8 C0.376 4.939 0 4.268 0 0 Z " fill="#56534E" transform="translate(87,57)"/>
<path d="M0 0 C0.527 0.013 0.527 0.013 3.191 0.078 C6.588 0.273 9.842 0.642 13.188 1.25 C12.858 1.745 12.858 1.745 11.188 4.25 C9.033 4.499 9.033 4.499 6.398 4.324 C5.928 4.297 5.928 4.297 3.547 4.158 C2.562 4.085 1.577 4.013 0.562 3.938 C-0.43 3.876 -1.423 3.815 -2.445 3.752 C-4.902 3.598 -7.357 3.431 -9.812 3.25 C-6.335 0.434 -4.515 -0.116 0 0 Z " fill="#716F6C" transform="translate(105.8125,58.75)"/>
<path d="M0 0 C1 2 1 2 1 5 C1.33 5.99 1.66 6.98 2 8 C1.915 9.9 1.763 11.797 1.562 13.688 C1.461 14.681 1.359 15.675 1.254 16.699 C1.212 17.079 1.212 17.079 1 19 C0.34 18.67 -0.32 18.34 -1 18 C-0.67 15.03 -0.34 12.06 0 9 C-0.99 9.99 -1.98 10.98 -3 12 C-3.66 12 -4.32 12 -5 12 C-4.94 10.374 -4.851 8.749 -4.75 7.125 C-4.704 6.22 -4.657 5.315 -4.609 4.383 C-4 2 -4 2 -1.953 0.68 C-1.309 0.455 -0.664 0.231 0 0 Z " fill="#A09C96" transform="translate(22,44)"/>
<path d="M0 0 C1.617 3.01 2.676 5.971 3.625 9.25 C3.885 10.142 4.146 11.034 4.414 11.953 C4.511 12.291 4.511 12.291 5 14 C1.742 14 -0.104 13.448 -3 12 C-4 9 -4 9 -4 6 C-2.68 6 -1.36 6 0 6 C-0.186 5.381 -0.371 4.763 -0.562 4.125 C-1 2 -1 2 0 0 Z " fill="#605F5C" transform="translate(82,40)"/>
<path d="M0 0 C2.375 -0.125 2.375 -0.125 5 0 C5.66 0.66 6.32 1.32 7 2 C6.67 2.99 6.34 3.98 6 5 C5.01 4.67 4.02 4.34 3 4 C1 5 1 5 -0.062 7.125 C-1.132 10.403 -1.598 13.581 -2 17 C-2.33 17 -2.66 17 -3 17 C-3.554 5.478 -3.554 5.478 0 0 Z " fill="#6B6A66" transform="translate(22,13)"/>
<path d="M0 0 C-0.586 6.152 -0.586 6.152 -1 8 C-1.33 8.165 -1.33 8.165 -3 9 C-3.33 8.01 -3.66 7.02 -4 6 C-5.98 6.33 -7.96 6.66 -10 7 C-9.67 5.02 -9.34 3.04 -9 1 C-5.942 0.456 -3.112 0 0 0 Z " fill="#D3C5B3" transform="translate(85,127)"/>
<path d="M0 0 C0.99 0.66 1.98 1.32 3 2 C2.665 5.018 2.134 6.809 0.375 9.312 C-2.833 11.592 -5.157 11.296 -9 11 C-9.33 9.68 -9.66 8.36 -10 7 C-9.67 7.66 -9.34 8.32 -9 9 C-8.072 8.505 -7.144 8.01 -6.188 7.5 C-3 6 -3 6 0 6 C0 4.02 0 2.04 0 0 Z " fill="#D8C2A5" transform="translate(49,140)"/>
<path d="M0 0 C2.204 2.388 2.966 3.732 3.375 7 C2.957 10.347 2.509 11.75 0 14 C-3.141 14.393 -4.979 14.007 -8 13 C-7.67 11.68 -7.34 10.36 -7 9 C-6.175 9.33 -6.175 9.33 -2 11 C-1.67 10.34 -1.34 9.68 -1 9 C-0.34 9 0.32 9 1 9 C0.922 8.717 0.922 8.717 0.527 7.285 C0.333 6.552 0.138 5.818 -0.062 5.062 C-0.161 4.697 -0.161 4.697 -0.66 2.848 C-0.772 2.238 -0.884 1.628 -1 1 C-0.67 0.67 -0.34 0.34 0 0 Z " fill="#D6C6B3" transform="translate(149,107)"/>
<path d="M0 0 C2.64 0 5.28 0 8 0 C8.33 0.66 8.66 1.32 9 2 C8.546 2.412 8.093 2.825 7.625 3.25 C5.94 5.064 5.007 6.753 4 9 C3.01 8.34 2.02 7.68 1 7 C0.312 3.375 0.312 3.375 0 0 Z " fill="#E2D0B8" transform="translate(36,101)"/>
<path d="M0 0 C0.99 0.33 1.98 0.66 3 1 C3.363 3.103 3.715 5.207 4.062 7.312 C4.26 8.484 4.457 9.656 4.66 10.863 C5 14 5 14 4 17 C4.66 17 5.32 17 6 17 C6.33 18.32 6.66 19.64 7 21 C6.34 21 5.68 21 5 21 C5 20.34 5 19.68 5 19 C4.34 19 3.68 19 3 19 C2.34 14.38 1.68 9.76 1 5 C0.67 5.165 0.67 5.165 -1 6 C-1.043 4.334 -1.041 2.666 -1 1 C-0.67 0.67 -0.34 0.34 0 0 Z " fill="#BD9075" transform="translate(70,23)"/>
<path d="M0 0 C0.532 -0.013 0.532 -0.013 3.223 -0.078 C4.119 0.03 5.014 0.138 5.938 0.25 C6.597 1.24 7.258 2.23 7.938 3.25 C2.328 3.25 -3.282 3.25 -9.062 3.25 C-9.062 2.59 -9.062 1.93 -9.062 1.25 C-5.853 0.18 -3.374 0.049 0 0 Z " fill="#F6EEE4" transform="translate(51.0625,152.75)"/>
<path d="M0 0 C0.33 1.32 0.66 2.64 1 4 C3.31 4.33 5.62 4.66 8 5 C8.66 3.35 9.32 1.7 10 0 C10.66 0.33 11.32 0.66 12 1 C11.643 3.642 11.248 5.609 9.812 7.875 C8 9 8 9 4.938 8.812 C2 8 2 8 0 6 C-0.125 2.875 -0.125 2.875 0 0 Z " fill="#584127" transform="translate(51,61)"/>
<path d="M0 0 C0.66 0 1.32 0 2 0 C2.536 0.99 3.072 1.98 3.625 3 C6 6 6 6 9.812 6.688 C14.616 6.354 17.379 4.017 21 1 C19.596 4.394 18.128 6.073 15 8 C12.527 8.328 12.527 8.328 9.938 8.25 C9.08 8.235 8.223 8.219 7.34 8.203 C5 8 5 8 2 7 C1.67 7.66 1.34 8.32 1 9 C0.67 6.03 0.34 3.06 0 0 Z " fill="#C0A88F" transform="translate(32,92)"/>
<path d="M0 0 C0.66 0.33 1.32 0.66 2 1 C1.691 2.626 1.378 4.251 1.062 5.875 C0.888 6.78 0.714 7.685 0.535 8.617 C0 11 0 11 -1 13 C-1.66 13 -2.32 13 -3 13 C-3 13.66 -3 14.32 -3 15 C-3.639 15.124 -4.279 15.248 -4.938 15.375 C-5.618 15.581 -6.299 15.787 -7 16 C-7.33 16.66 -7.66 17.32 -8 18 C-8 16.68 -8 15.36 -8 14 C-7.34 14 -6.68 14 -6 14 C-5.845 13.691 -5.845 13.691 -5.062 12.125 C-4.375 10.75 -3.688 9.375 -3 8 C-2.34 8 -1.68 8 -1 8 C-1.021 7.051 -1.041 6.103 -1.062 5.125 C-1 2 -1 2 0 0 Z " fill="#D2BEA5" transform="translate(81,70)"/>
<path d="M0 0 C2.31 0.33 4.62 0.66 7 1 C6.01 1.33 5.02 1.66 4 2 C4.24 2.615 4.48 3.23 4.727 3.863 C5.023 4.672 5.32 5.48 5.625 6.312 C5.927 7.113 6.228 7.914 6.539 8.738 C6.615 9.111 6.615 9.111 7 11 C6.67 11.495 6.67 11.495 5 14 C5 13.01 5 12.02 5 11 C4.34 11 3.68 11 3 11 C2.494 9.732 1.995 8.46 1.5 7.188 C1.222 6.48 0.943 5.772 0.656 5.043 C0 3 0 3 0 0 Z " fill="#C7BBAA" transform="translate(32,99)"/>
<path d="M0 0 C2.888 0.299 3.821 0.781 5.688 3.062 C7.354 6.793 7.656 9.935 8 14 C5.825 11.462 4.149 9.411 3 6.25 C2.67 5.508 2.34 4.765 2 4 C-0.125 3.188 -0.125 3.188 -2 3 C-1.34 2.34 -0.68 1.68 0 1 C0 0.67 0 0.34 0 0 Z " fill="#575452" transform="translate(72,13)"/>
<path d="M0 0 C1 2 1 2 1 6 C1.99 6.33 2.98 6.66 4 7 C4.33 5.02 4.66 3.04 5 1 C5.66 1.33 6.32 1.66 7 2 C6.67 3.65 6.34 5.3 6 7 C7.65 7 9.3 7 11 7 C9 9 9 9 5.125 9.25 C1.946 9.181 -0.296 8.803 -3 7 C-2.34 7 -1.68 7 -1 7 C-1.021 6.031 -1.041 5.061 -1.062 4.062 C-1 1 -1 1 0 0 Z " fill="#938270" transform="translate(120,142)"/>
<path d="M0 0 C2.804 2.804 2.665 5.116 3 9 C2.562 11.438 2.562 11.438 2 13 C1.34 13 0.68 13 0 13 C-0.33 13.66 -0.66 14.32 -1 15 C-2 14 -2 14 -2.098 11.934 C-2.086 11.11 -2.074 10.286 -2.062 9.438 C-2.053 8.611 -2.044 7.785 -2.035 6.934 C-2.024 6.296 -2.012 5.657 -2 5 C-1.67 5 -1.34 5 -1 5 C-0.67 3.35 -0.34 1.7 0 0 Z " fill="#6B6761" transform="translate(137,90)"/>
<path d="M0 0 C1.033 2.788 1.045 3.868 0.062 6.75 C-0.288 7.493 -0.639 8.235 -1 9 C-1.66 9 -2.32 9 -3 9 C-3 9.66 -3 10.32 -3 11 C-3.66 11 -4.32 11 -5 11 C-5.33 11.66 -5.66 12.32 -6 13 C-5.979 12.216 -5.959 11.433 -5.938 10.625 C-6 8 -6 8 -7 6 C-5.68 6 -4.36 6 -3 6 C-3 4.68 -3 3.36 -3 2 C-2.01 2 -1.02 2 0 2 C0 1.34 0 0.68 0 0 Z " fill="#928C83" transform="translate(86,115)"/>
<path d="M0 0 C0.33 0 0.66 0 1 0 C1 2.97 1 5.94 1 9 C1.99 9.33 2.98 9.66 4 10 C2.71 11.376 1.373 12.708 0 14 C-0.66 14 -1.32 14 -2 14 C-3.329 8.082 -2.665 5.223 0 0 Z " fill="#CEC3B3" transform="translate(67,55)"/>
<path d="M0 0 C0.66 0.33 1.32 0.66 2 1 C1.511 8.455 1.511 8.455 -0.875 11 C-3 12 -3 12 -6 12 C-4.783 8.535 -3.561 6.561 -1 4 C-0.312 1.812 -0.312 1.812 0 0 Z " fill="#D9C4A9" transform="translate(79,142)"/>
<path d="M0 0 C0.66 0.66 1.32 1.32 2 2 C2.33 1.34 2.66 0.68 3 0 C3.66 0 4.32 0 5 0 C6.562 2.812 6.562 2.812 8 6 C7.67 6.99 7.34 7.98 7 9 C7 8.34 7 7.68 7 7 C6.01 7.33 5.02 7.66 4 8 C2 6.25 2 6.25 0 4 C0 2.68 0 1.36 0 0 Z " fill="#6F6E6B" transform="translate(75,112)"/>
<path d="M0 0 C1.922 0.68 1.922 0.68 4 2 C4.828 4.383 4.828 4.383 5.25 7.125 C5.4 8.035 5.549 8.945 5.703 9.883 C5.801 10.581 5.899 11.28 6 12 C3.69 12.66 1.38 13.32 -1 14 C-1 13.01 -1 12.02 -1 11 C-0.34 11 0.32 11 1 11 C2.231 4.6 2.231 4.6 1.062 1.562 C0.712 1.047 0.361 0.531 0 0 Z " fill="#E3DACB" transform="translate(60,58)"/>
<path d="M0 0 C0.66 0 1.32 0 2 0 C2.382 1.656 2.714 3.325 3 5 C2.67 5.33 2.34 5.66 2 6 C1.717 8.548 1.552 11.095 1.379 13.652 C1 16 1 16 -1 18 C-1.027 15.562 -1.047 13.125 -1.062 10.688 C-1.071 9.997 -1.079 9.307 -1.088 8.596 C-1.103 5.452 -1.002 3.006 0 0 Z " fill="#C6A38A" transform="translate(24,23)"/>
<path d="M0 0 C0.33 0.495 0.33 0.495 2 3 C4.247 5.392 6.254 7.169 9 9 C9 9.66 9 10.32 9 11 C6.188 11.312 6.188 11.312 3 11 C0.509 8.177 0.025 6.447 -0.188 2.688 C-0.126 1.801 -0.064 0.914 0 0 Z " fill="#F2EADB" transform="translate(27,75)"/>
<path d="M0 0 C3.389 0.339 4.664 1.041 7.125 3.312 C6.795 4.303 6.465 5.293 6.125 6.312 C5.465 5.322 4.805 4.332 4.125 3.312 C3.135 3.312 2.145 3.312 1.125 3.312 C0.795 3.807 0.795 3.807 -0.875 6.312 C-1.865 6.312 -2.855 6.312 -3.875 6.312 C-4.5 4.438 -4.5 4.438 -4.875 2.312 C-2.875 0.312 -2.875 0.312 0 0 Z " fill="#676158" transform="translate(57.875,55.6875)"/>
<path d="M0 0 C2 3 2 3 1.875 4.812 C0.664 7.841 -1.127 10.342 -3 13 C-4.446 8.438 -3.403 5.506 -2 1 C-1.34 0.67 -0.68 0.34 0 0 Z " fill="#958F87" transform="translate(15,57)"/>
<path d="M0 0 C3.029 2.02 4.745 3.251 5.938 6.75 C6.017 10.86 5.155 14.059 4 18 C3.67 18 3.34 18 3 18 C2.867 17.036 2.734 16.072 2.598 15.078 C2.509 14.446 2.509 14.446 2.062 11.25 C1.888 9.997 1.714 8.744 1.535 7.453 C1.14 4.9 0.696 2.481 0 0 Z " fill="#817C74" transform="translate(76,22)"/>
<path d="M0 0 C1.488 1.082 1.488 1.082 3 3 C3.293 6.137 3.293 6.137 3.188 9.688 C3.174 10.277 3.174 10.277 3.105 13.262 C3.071 14.165 3.036 15.069 3 16 C2.67 16 2.34 16 2 16 C-1.438 4.312 -1.438 4.312 0 0 Z " fill="#E2D4BF" transform="translate(33,48)"/>
<path d="M0 0 C0 3 0 3 -1 5 C-0.01 5 0.98 5 2 5 C2 6.65 2 8.3 2 10 C0.35 9.67 -1.3 9.34 -3 9 C-3.33 7.35 -3.66 5.7 -4 4 C-4.99 3.67 -5.98 3.34 -7 3 C-6.515 2.845 -6.515 2.845 -4.062 2.062 C-1 1 -1 1 0 0 Z " fill="#595754" transform="translate(60,24)"/>
<path d="M0 0 C0.99 0.66 1.98 1.32 3 2 C4.32 2 5.64 2 7 2 C7 2.66 7 3.32 7 4 C3.37 4 -0.26 4 -4 4 C-4.33 6.31 -4.66 8.62 -5 11 C-5.33 11 -5.66 11 -6 11 C-6 7.7 -6 4.4 -6 1 C-5.01 1.165 -5.01 1.165 0 2 C0 1.34 0 0.68 0 0 Z " fill="#C6B7A7" transform="translate(142,118)"/>
<path d="M0 0 C0.66 0 1.32 0 2 0 C2.625 1.875 2.625 1.875 3 4 C2.34 4.66 1.68 5.32 1 6 C0.67 5.67 0.34 5.34 0 5 C-0.217 5.557 -0.217 5.557 -1.312 8.375 C-3 12 -3 12 -6 14 C-6.99 13.67 -7.98 13.34 -9 13 C-7.68 12.67 -6.36 12.34 -5 12 C-5 11.34 -5 10.68 -5 10 C-4.34 10 -3.68 10 -3 10 C-2.867 9.362 -2.734 8.724 -2.598 8.066 C-2.421 7.24 -2.244 6.414 -2.062 5.562 C-1.888 4.739 -1.714 3.915 -1.535 3.066 C-1 1 -1 1 0 0 Z " fill="#A2988B" transform="translate(83,73)"/>
<path d="M0 0 C0.33 0 0.66 0 1 0 C1.121 1.143 1.242 2.287 1.367 3.465 C1.536 4.956 1.705 6.447 1.875 7.938 C1.954 8.692 2.032 9.447 2.113 10.225 C2.339 12.159 2.663 14.082 3 16 C3.66 16.33 4.32 16.66 5 17 C3.35 17.33 1.7 17.66 0 18 C0 12.06 0 6.12 0 0 Z " fill="#ACA295" transform="translate(18,25)"/>
<path d="M0 0 C0.99 0 1.98 0 3 0 C4.125 5.75 4.125 5.75 3 8 C2.34 8 1.68 8 1 8 C1.33 8.99 1.66 9.98 2 11 C1.01 10.67 0.02 10.34 -1 10 C-1.33 9.01 -1.66 8.02 -2 7 C-1.67 6.34 -1.34 5.68 -1 5 C-0.34 5 0.32 5 1 5 C0.67 3.35 0.34 1.7 0 0 Z " fill="#78716A" transform="translate(138,98)"/>
<path d="M0 0 C0.722 0.103 1.444 0.206 2.188 0.312 C1.858 1.963 1.528 3.612 1.188 5.312 C-1.782 5.312 -4.752 5.312 -7.812 5.312 C-3.505 0.389 -3.505 0.389 0 0 Z " fill="#F8DABE" transform="translate(68.8125,70.6875)"/>
<path d="M0 0 C0.66 0 1.32 0 2 0 C2.653 3.025 3.149 5.9 3 9 C0.562 11.562 0.562 11.562 -2 13 C-1.86 11.02 -1.713 9.041 -1.562 7.062 C-1.481 5.96 -1.4 4.858 -1.316 3.723 C-1 1 -1 1 0 0 Z " fill="#9A745D" transform="translate(26,28)"/>
<path d="M0 0 C2.691 0.176 5.329 0.618 8 1 C7.438 2.813 7.438 2.813 6 5 C2.5 6.688 2.5 6.688 -1 8 C-1.33 8.165 -1.33 8.165 -3 9 C-1.796 6.506 -0.546 4.319 1 2 C0.34 1.67 -0.32 1.34 -1 1 C-0.67 0.67 -0.34 0.34 0 0 Z " fill="#898A86" transform="translate(49,25)"/>
<path d="M0 0 C0.99 0 1.98 0 3 0 C2.67 3.96 2.34 7.92 2 12 C-5.75 11.25 -5.75 11.25 -8 9 C-5.03 9.33 -2.06 9.66 1 10 C0.67 6.7 0.34 3.4 0 0 Z " fill="#C7B39B" transform="translate(64,112)"/>
<path d="M0 0 C2.31 0 4.62 0 7 0 C7.33 0.99 7.66 1.98 8 3 C6.35 3 4.7 3 3 3 C3.33 3.99 3.66 4.98 4 6 C1.36 5.67 -1.28 5.34 -4 5 C-3.67 4.01 -3.34 3.02 -3 2 C-2.01 2 -1.02 2 0 2 C0 1.34 0 0.68 0 0 Z " fill="#7E7C79" transform="translate(119,64)"/>
<path d="M0 0 C2.97 0.33 5.94 0.66 9 1 C9 2.32 9 3.64 9 5 C9.33 4.34 9.66 3.68 10 3 C10.66 3.33 11.32 3.66 12 4 C10.68 5.32 9.36 6.64 8 8 C7.67 6.35 7.34 4.7 7 3 C5.02 3.33 3.04 3.66 1 4 C0.67 2.68 0.34 1.36 0 0 Z M12 2 C14 3 14 3 14 3 Z " fill="#74716B" transform="translate(68,91)"/>
<path d="M0 0 C0.33 0 0.66 0 1 0 C1.014 0.82 1.028 1.64 1.043 2.484 C1.437 11.396 1.437 11.396 4.562 14.75 C5.367 15.162 6.171 15.575 7 16 C6 17 6 17 3.438 17.062 C2.633 17.042 1.829 17.021 1 17 C-0.135 13.39 -0.1 10.016 -0.062 6.25 C-0.053 5.08 -0.044 3.909 -0.035 2.703 C-0.024 1.811 -0.012 0.919 0 0 Z " fill="#D1C4B0" transform="translate(48,54)"/>
<path d="M0 0 C1.32 0.66 2.64 1.32 4 2 C2.559 5.362 0.752 7.592 -2 10 C-2.66 10 -3.32 10 -4 10 C-3.67 9.422 -3.34 8.845 -3 8.25 C-2 6 -2 6 -2 2 C-1.34 2 -0.68 2 0 2 C0 1.34 0 0.68 0 0 Z " fill="#686766" transform="translate(46,25)"/>
<path d="M0 0 C1.32 0.33 2.64 0.66 4 1 C4 2.32 4 3.64 4 5 C2.68 5 1.36 5 0 5 C-0.33 6.98 -0.66 8.96 -1 11 C-1.33 11 -1.66 11 -2 11 C-2.286 3.571 -2.286 3.571 0 0 Z " fill="#EFE3D4" transform="translate(23,17)"/>
<path d="M0 0 C0.976 2.928 1.082 4.956 1 8 C0.34 8 -0.32 8 -1 8 C-0.67 9.32 -0.34 10.64 0 12 C-1.32 11.67 -2.64 11.34 -4 11 C-3.49 6.611 -2.478 3.663 0 0 Z " fill="#757471" transform="translate(119,85)"/>
<path d="M0 0 C1.625 -0.054 3.25 -0.093 4.875 -0.125 C5.78 -0.148 6.685 -0.171 7.617 -0.195 C10 0 10 0 12 2 C11 3 11 3 8.715 3.098 C8.257 3.092 8.257 3.092 5.938 3.062 C5.018 3.053 4.099 3.044 3.152 3.035 C2.442 3.024 1.732 3.012 1 3 C0.67 2.01 0.34 1.02 0 0 Z " fill="#585853" transform="translate(30,73)"/>
<path d="M0 0 C2.747 4.12 3 7.077 3 12 C3.298 13.342 3.622 14.679 4 16 C2.051 15.375 2.051 15.375 0 14 C-0.645 11.25 -0.645 11.25 -0.812 8 C-0.881 6.928 -0.949 5.855 -1.02 4.75 C-1 2 -1 2 0 0 Z " fill="#878580" transform="translate(86,54)"/>
<path d="M0 0 C0.33 0 0.66 0 1 0 C1.33 3.96 1.66 7.92 2 12 C1.34 12 0.68 12 0 12 C-0.33 12.66 -0.66 13.32 -1 14 C-2.065 10.804 -2.074 8.343 -2 5 C-1.34 5 -0.68 5 0 5 C-0.093 4.68 -0.093 4.68 -0.562 3.062 C-0.635 2.722 -0.635 2.722 -1 1 C-0.67 0.67 -0.34 0.34 0 0 Z " fill="#565653" transform="translate(95,79)"/>
<path d="M0 0 C0.33 0 0.66 0 1 0 C1.592 6.665 -0.517 11.87 -3 18 C-3.33 18 -3.66 18 -4 18 C-4.178 13.452 -3.998 10.121 -2 6 C-1.34 6 -0.68 6 0 6 C0 4.02 0 2.04 0 0 Z " fill="#5F5D5A" transform="translate(117,81)"/>
<path d="M0 0 C3.272 0.973 4.745 1.658 6.812 4.438 C8 7 8 7 8 10 C6.141 9.785 6.141 9.785 4 9 C2.734 6.934 2.734 6.934 1.75 4.438 C1.415 3.611 1.08 2.785 0.734 1.934 C0.492 1.296 0.25 0.657 0 0 Z " fill="#5B5754" transform="translate(127,68)"/>
<path d="M0 0 C0.33 0 0.66 0 1 0 C1 2.97 1 5.94 1 9 C0.34 9 -0.32 9 -1 9 C-1 10.98 -1 12.96 -1 15 C-1.33 15 -1.66 15 -2 15 C-3.202 8.772 -2.932 5.629 0 0 Z " fill="#A99077" transform="translate(109,104)"/>
<path d="M0 0 C0.66 0.33 1.32 0.66 2 1 C1.67 1.66 1.34 2.32 1 3 C0.34 3 -0.32 3 -1 3 C-1.66 4.65 -2.32 6.3 -3 8 C-5.64 8 -8.28 8 -11 8 C-9 6 -9 6 -6.438 5 C-4 4 -4 4 -3 2 C-2.01 2 -1.02 2 0 2 C0 1.34 0 0.68 0 0 Z " fill="#978F83" transform="translate(105,99)"/>
<path d="M0 0 C0.66 0 1.32 0 2 0 C2.33 0.99 2.66 1.98 3 3 C-2.625 7 -2.625 7 -6 7 C-6.33 5.02 -6.66 3.04 -7 1 C-4.36 1.66 -1.72 2.32 1 3 C0.67 2.01 0.34 1.02 0 0 Z " fill="#CCBBA6" transform="translate(35,83)"/>
<path d="M0 0 C2.64 0 5.28 0 8 0 C8 0.99 8 1.98 8 3 C5.36 3.66 2.72 4.32 0 5 C0 3.35 0 1.7 0 0 Z " fill="#666563" transform="translate(103,62)"/>
<path d="M0 0 C-0.33 1.65 -0.66 3.3 -1 5 C-1.99 5 -2.98 5 -4 5 C-4.33 4.01 -4.66 3.02 -5 2 C-5.495 2.33 -5.495 2.33 -8 4 C-7.625 2.062 -7.625 2.062 -7 0 C-4.333 -1.333 -2.833 -0.671 0 0 Z " fill="#5C5850" transform="translate(33,56)"/>
<path d="M0 0 C1.32 0 2.64 0 4 0 C3.67 2.64 3.34 5.28 3 8 C2.01 7.67 1.02 7.34 0 7 C0 4.69 0 2.38 0 0 Z " fill="#575754" transform="translate(40,45)"/>
<path d="M0 0 C2.77 2.77 2.398 4.765 2.625 8.625 C2.7 9.814 2.775 11.002 2.852 12.227 C2.876 12.684 2.876 12.684 3 15 C1.208 12.311 0.016 10.047 -1 7 C-0.67 6.34 -0.34 5.68 0 5 C-0.66 4.67 -1.32 4.34 -2 4 C-1.34 2.68 -0.68 1.36 0 0 Z " fill="#A4735B" transform="translate(70,26)"/>
<path d="M0 0 C0.33 0 0.66 0 1 0 C0.887 2.313 0.759 4.626 0.625 6.938 C0.555 8.225 0.486 9.513 0.414 10.84 C0.277 11.883 0.141 12.926 0 14 C-0.33 14.165 -0.33 14.165 -2 15 C-2 14.01 -2 13.02 -2 12 C-3.32 12.33 -4.64 12.66 -6 13 C-6 12.34 -6 11.68 -6 11 C-5.34 11 -4.68 11 -4 11 C-4 10.34 -4 9.68 -4 9 C-3.34 8.67 -2.68 8.34 -2 8 C-1.367 6.152 -1.367 6.152 -0.875 3.938 C-0.791 3.571 -0.791 3.571 -0.367 1.715 C-0.246 1.149 -0.125 0.583 0 0 Z " fill="#C1B3A0" transform="translate(87,115)"/>
<path d="M0 0 C0.33 0 0.66 0 1 0 C1 2.64 1 5.28 1 8 C0.34 8.33 0.34 8.33 -3 10 C-3.232 6.593 -3.357 4.59 -1.562 1.625 C-1.305 1.357 -1.305 1.357 0 0 Z " fill="#989085" transform="translate(69,114)"/>
<path d="M0 0 C0.99 0 1.98 0 3 0 C3.66 0.99 4.32 1.98 5 3 C5.681 3.33 6.361 3.66 7.062 4 C9 5 9 5 10 8 C5.18 7.587 3.09 5.62 0 2 C0 1.34 0 0.68 0 0 Z " fill="#A2988C" transform="translate(118,113)"/>
<path d="M0 0 C0.33 1.32 0.66 2.64 1 4 C0.67 4.165 0.67 4.165 -1 5 C-1 4.34 -1 3.68 -1 3 C-2.32 2.67 -3.64 2.34 -5 2 C-5 2.66 -5 3.32 -5 4 C-6.875 4.625 -6.875 4.625 -9 5 C-9.66 4.34 -10.32 3.68 -11 3 C-4.5 0 -4.5 0 0 0 Z " fill="#D65C51" transform="translate(48,88)"/>
<path d="M0 0 C0.99 0.165 0.99 0.165 6 1 C5.34 1.33 5.34 1.33 2 3 C3.65 3.99 5.3 4.98 7 6 C6.01 6.66 5.02 7.32 4 8 C2.35 6.68 0.7 5.36 -1 4 C-0.67 2.68 -0.34 1.36 0 0 Z " fill="#4F4F4D" transform="translate(95,62)"/>
<path d="M0 0 C0.66 0.33 1.32 0.66 2 1 C2 4.63 2 8.26 2 12 C1.01 12 0.02 12 -1 12 C-0.67 8.04 -0.34 4.08 0 0 Z " fill="#958F85" transform="translate(133,83)"/>
<path d="M0 0 C3.688 0.498 5.605 1.101 8 4 C7.34 4 6.68 4 6 4 C5.67 4.66 5.34 5.32 5 6 C4.34 6 3.68 6 3 6 C2.34 6.66 1.68 7.32 1 8 C1.021 7.051 1.041 6.103 1.062 5.125 C1 2 1 2 0 0 Z " fill="#696966" transform="translate(117,77)"/>
<path d="M0 0 C0.66 0.66 1.32 1.32 2 2 C1.01 2 0.02 2 -1 2 C-0.979 2.639 -0.979 2.639 -0.875 5.875 C-0.805 8.055 -0.805 8.055 -1 10 C-1.66 10.66 -2.32 11.32 -3 12 C-3.33 8.7 -3.66 5.4 -4 2 C-2.68 1.34 -1.36 0.68 0 0 Z " fill="#4E4D4A" transform="translate(99,73)"/>
<path d="M0 0 C0.33 0.66 0.66 1.32 1 2 C0.004 4.383 0.004 4.383 -1.438 7.125 C-1.911 8.035 -2.384 8.945 -2.871 9.883 C-3.244 10.581 -3.616 11.28 -4 12 C-5.261 8.216 -4.912 5.859 -4 2 C-1.938 0.562 -1.938 0.562 0 0 Z " fill="#989692" transform="translate(22,44)"/>
<path d="M0 0 C0.99 0 1.98 0 3 0 C4.044 3.133 3.934 3.99 3 7 C1.68 6.67 0.36 6.34 -1 6 C-0.67 4.02 -0.34 2.04 0 0 Z " fill="#E5CFB3" transform="translate(121,142)"/>
<path d="M0 0 C0.227 0.639 0.454 1.279 0.688 1.938 C2 4 2 4 4.625 4.75 C5.409 4.832 6.193 4.915 7 5 C7 5.33 7 5.66 7 6 C0.945 6.195 0.945 6.195 -1 6 C-1.66 5.34 -2.32 4.68 -3 4 C-3 3.01 -3 2.02 -3 1 C-2.01 0.67 -1.02 0.34 0 0 Z " fill="#E2D5C3" transform="translate(40,81)"/>
<path d="M0 0 C0.99 0.33 1.98 0.66 3 1 C3 2.65 3 4.3 3 6 C1.35 6 -0.3 6 -2 6 C-2 4.68 -2 3.36 -2 2 C-1.34 2 -0.68 2 0 2 C0 1.34 0 0.68 0 0 Z " fill="#7B7A75" transform="translate(19,56)"/>
<path d="M0 0 C-1.75 1.562 -1.75 1.562 -4 3 C-6.25 2.688 -6.25 2.688 -8 2 C-8.66 3.65 -9.32 5.3 -10 7 C-10.33 7 -10.66 7 -11 7 C-11.188 4.125 -11.188 4.125 -11 1 C-6.82 -1.786 -4.853 -0.796 0 0 Z " fill="#F1E0C8" transform="translate(128,141)"/>
<path d="M0 0 C0.66 0.33 1.32 0.66 2 1 C2 2.98 2 4.96 2 7 C0.35 6.67 -1.3 6.34 -3 6 C-3.33 4.68 -3.66 3.36 -4 2 C-3.34 2.66 -2.68 3.32 -2 4 C-1.34 2.68 -0.68 1.36 0 0 Z " fill="#907C6B" transform="translate(91,140)"/>
<path d="M0 0 C0.433 0.474 0.866 0.949 1.312 1.438 C3 3 3 3 6 4 C6 4.66 6 5.32 6 6 C4.02 6.33 2.04 6.66 0 7 C0 4.69 0 2.38 0 0 Z " fill="#918C85" transform="translate(40,119)"/>
<path d="M0 0 C1.32 0 2.64 0 4 0 C4.66 1.98 5.32 3.96 6 6 C5.01 5.67 4.02 5.34 3 5 C3 4.34 3 3.68 3 3 C2.34 3 1.68 3 1 3 C0.67 4.32 0.34 5.64 0 7 C-0.66 6.34 -1.32 5.68 -2 5 C-1.34 5 -0.68 5 0 5 C0 3.35 0 1.7 0 0 Z " fill="#9D9389" transform="translate(143,102)"/>
<path d="M0 0 C0.66 0 1.32 0 2 0 C2 0.66 2 1.32 2 2 C2.99 2 3.98 2 5 2 C5 3.32 5 4.64 5 6 C4.01 6 3.02 6 2 6 C2 5.34 2 4.68 2 4 C1.34 4 0.68 4 0 4 C-0.33 3.01 -0.66 2.02 -1 1 C-0.67 0.67 -0.34 0.34 0 0 Z " fill="#70706D" transform="translate(86,97)"/>
<path d="M0 0 C0.4 0.051 0.4 0.051 2.422 0.309 C3.025 0.392 3.628 0.476 4.25 0.562 C4.25 0.892 4.25 1.222 4.25 1.562 C2.46 1.784 0.668 1.989 -1.125 2.188 C-2.123 2.304 -3.12 2.42 -4.148 2.539 C-5.007 2.547 -5.865 2.555 -6.75 2.562 C-7.41 1.903 -8.07 1.242 -8.75 0.562 C-5.628 -0.404 -3.229 -0.427 0 0 Z " fill="#666460" transform="translate(98.75,59.4375)"/>
<path d="M0 0 C0.993 0.179 0.993 0.179 5.957 1.074 C5.627 1.569 5.627 1.569 3.957 4.074 C0.987 3.744 -1.983 3.414 -5.043 3.074 C-2.043 0.074 -2.043 0.074 0 0 Z " fill="#888580" transform="translate(113.04296875,58.92578125)"/>
<path d="M0 0 C2.64 0 5.28 0 8 0 C8 0.99 8 1.98 8 3 C5.69 3 3.38 3 1 3 C0.67 2.01 0.34 1.02 0 0 Z " fill="#F48B80" transform="translate(37,92)"/>
<path d="M0 0 C0.66 0 1.32 0 2 0 C3.429 2.354 4.087 3.48 3.625 6.25 C3.522 6.539 3.522 6.539 3 8 C2.34 8 1.68 8 1 8 C0.34 5.69 -0.32 3.38 -1 1 C-0.67 0.67 -0.34 0.34 0 0 Z " fill="#716D69" transform="translate(138,88)"/>
<path d="M0 0 C1.32 0 2.64 0 4 0 C3.67 1.32 3.34 2.64 3 4 C1.35 4.33 -0.3 4.66 -2 5 C-1.125 1.125 -1.125 1.125 0 0 Z " fill="#6E6B68" transform="translate(71,59)"/>
<path d="M0 0 C0.66 0.33 1.32 0.66 2 1 C1.67 2.98 1.34 4.96 1 7 C1.66 7 2.32 7 3 7 C3.33 8.32 3.66 9.64 4 11 C3.34 11 2.68 11 2 11 C2 10.34 2 9.68 2 9 C1.34 9 0.68 9 0 9 C-0.879 2.848 -0.879 2.848 -1 1 C-0.67 0.67 -0.34 0.34 0 0 Z " fill="#CDA78F" transform="translate(73,33)"/>
<path d="M0 0 C0.66 0.33 1.32 0.66 2 1 C1.505 2.32 1.505 2.32 -1 9 C-1.66 7.68 -2.32 6.36 -3 5 C-2.34 5 -1.68 5 -1 5 C-1.33 3.68 -1.66 2.36 -2 1 C-1.34 0.67 -0.68 0.34 0 0 Z " fill="#8E8982" transform="translate(131,100)"/>
<path d="M0 0 C2.938 0.812 2.938 0.812 6 2 C6.33 2.99 6.66 3.98 7 5 C4.36 4.67 1.72 4.34 -1 4 C-0.67 2.68 -0.34 1.36 0 0 Z " fill="#5C5852" transform="translate(74,87)"/>
<path d="M0 0 C2 1.75 2 1.75 4 4 C4 5.32 4 6.64 4 8 C2.68 7.67 1.36 7.34 0 7 C0 4.69 0 2.38 0 0 Z " fill="#352A1E" transform="translate(27,60)"/>
<path d="M0 0 C2 3 2 3 2 7 C0.35 7.66 -1.3 8.32 -3 9 C-2.67 7.68 -2.34 6.36 -2 5 C-1.34 5 -0.68 5 0 5 C0 3.35 0 1.7 0 0 Z " fill="#DBC8B4" transform="translate(31,26)"/>
<path d="M0 0 C0.99 0 1.98 0 3 0 C2.424 2.386 1.778 4.667 1 7 C0.34 7 -0.32 7 -1 7 C-1.043 5 -1.041 3 -1 1 C-0.67 0.67 -0.34 0.34 0 0 Z " fill="#EDDAC2" transform="translate(42,105)"/>
<path d="M0 0 C-0.33 1.65 -0.66 3.3 -1 5 C-1.99 5 -2.98 5 -4 5 C-4 4.01 -4 3.02 -4 2 C-4.66 1.67 -5.32 1.34 -6 1 C-3.924 0.447 -2.156 0 0 0 Z " fill="#451F18" transform="translate(39,86)"/>
<path d="M0 0 C0.66 0 1.32 0 2 0 C2 1.98 2 3.96 2 6 C1.34 6 0.68 6 0 6 C-0.33 6.99 -0.66 7.98 -1 9 C-1 8.01 -1 7.02 -1 6 C-1.66 5.67 -2.32 5.34 -3 5 C-2.34 5 -1.68 5 -1 5 C-0.67 3.35 -0.34 1.7 0 0 Z " fill="#55524D" transform="translate(87,75)"/>
<path d="M0 0 C1.108 3.325 0.845 5.622 0 9 C0.66 9 1.32 9 2 9 C2 9.66 2 10.32 2 11 C1.01 11 0.02 11 -1 11 C-1 8.69 -1 6.38 -1 4 C-1.66 4 -2.32 4 -3 4 C-2 2 -2 2 0 0 Z " fill="#C5B6A3" transform="translate(13,67)"/>
<path d="M0 0 C6.705 4.114 6.705 4.114 7.938 7.812 C7.958 8.534 7.979 9.256 8 10 C6.333 8.333 4.667 6.667 3 5 C2.402 4.443 1.804 3.886 1.188 3.312 C0 2 0 2 0 0 Z " fill="#B8A38A" transform="translate(113,118)"/>
<path d="M0 0 C0.66 0.33 1.32 0.66 2 1 C1.477 3.763 0.891 6.326 0 9 C-0.66 9 -1.32 9 -2 9 C-2.33 9.66 -2.66 10.32 -3 11 C-3 10.01 -3 9.02 -3 8 C-2.34 8 -1.68 8 -1 8 C-1.021 7.051 -1.041 6.103 -1.062 5.125 C-1 2 -1 2 0 0 Z " fill="#DDCCB8" transform="translate(81,70)"/>
<path d="M0 0 C0.784 0.248 1.568 0.495 2.375 0.75 C2.705 1.41 3.035 2.07 3.375 2.75 C0.587 3.783 -0.493 3.795 -3.375 2.812 C-4.117 2.462 -4.86 2.111 -5.625 1.75 C-2.625 -0.25 -2.625 -0.25 0 0 Z " fill="#86847F" transform="translate(42.625,64.25)"/>
<path d="M0 0 C1.65 0.33 3.3 0.66 5 1 C4.67 1.99 4.34 2.98 4 4 C3.01 3.835 3.01 3.835 -2 3 C-1.34 2.01 -0.68 1.02 0 0 Z " fill="#A1998D" transform="translate(29,46)"/>
<path d="M0 0 C0.66 0.66 1.32 1.32 2 2 C1.34 2.66 0.68 3.32 0 4 C-2.164 3.977 -2.164 3.977 -4.625 3.625 C-5.442 3.514 -6.26 3.403 -7.102 3.289 C-7.728 3.194 -8.355 3.098 -9 3 C-9 2.67 -9 2.34 -9 2 C-6.949 1.772 -4.898 1.544 -2.848 1.316 C-1 1 -1 1 0 0 Z " fill="#D0C0AC" transform="translate(104,145)"/>
<path d="M0 0 C0.66 0.33 1.32 0.66 2 1 C1.34 2.32 0.68 3.64 0 5 C-1.65 5 -3.3 5 -5 5 C-3.35 3.35 -1.7 1.7 0 0 Z " fill="#DBC3A7" transform="translate(131,144)"/>
<path d="M0 0 C0.66 0.33 1.32 0.66 2 1 C2 1.99 2 2.98 2 4 C1.34 4 0.68 4 0 4 C-0.33 6.31 -0.66 8.62 -1 11 C-1.33 11 -1.66 11 -2 11 C-2.054 9.542 -2.093 8.084 -2.125 6.625 C-2.137 6.219 -2.137 6.219 -2.195 4.164 C-2 2 -2 2 0 0 Z " fill="#B1A495" transform="translate(68,122)"/>
<path d="M0 0 C0.99 0.33 1.98 0.66 3 1 C1 3 1 3 -1.562 3.5 C-2.367 3.665 -3.171 3.83 -4 4 C-4.33 4.66 -4.66 5.32 -5 6 C-5.33 5.34 -5.66 4.68 -6 4 C-5.01 3.01 -4.02 2.02 -3 1 C-2.01 1.33 -1.02 1.66 0 2 C0 1.34 0 0.68 0 0 Z " fill="#868078" transform="translate(98,102)"/>
<path d="M0 0 C2.64 0 5.28 0 8 0 C8.33 0.66 8.66 1.32 9 2 C8.34 2.66 7.68 3.32 7 4 C4.98 3.398 2.979 2.727 1 2 C0.67 1.34 0.34 0.68 0 0 Z " fill="#DDC9AF" transform="translate(36,101)"/>
<path d="M0 0 C0.66 0.33 0.66 0.33 4 2 C3.67 3.65 3.34 5.3 3 7 C2.34 7 1.68 7 1 7 C0.67 4.69 0.34 2.38 0 0 Z " fill="#60605D" transform="translate(90,96)"/>
<path d="M0 0 C2.595 2.595 2.7 4.399 3 8 C2.34 8.66 1.68 9.32 1 10 C0 9 0 9 -0.098 6.934 C-0.086 6.11 -0.074 5.286 -0.062 4.438 C-0.053 3.611 -0.044 2.785 -0.035 1.934 C-0.024 1.296 -0.012 0.657 0 0 Z " fill="#665F57" transform="translate(135,95)"/>
<path d="M0 0 C1.32 0.33 2.64 0.66 4 1 C4.33 2.98 4.66 4.96 5 7 C4.01 6.67 3.02 6.34 2 6 C0.812 2.938 0.812 2.938 0 0 Z " fill="#3E3D3B" transform="translate(92,66)"/>
<path d="M0 0 C0.103 0.639 0.206 1.279 0.312 1.938 C0.539 2.618 0.766 3.299 1 4 C1.99 4.33 2.98 4.66 4 5 C4.33 5.99 4.66 6.98 5 8 C1.125 7.125 1.125 7.125 0 6 C-0.041 4 -0.043 2 0 0 Z " fill="#614E3B" transform="translate(51,61)"/>
<path d="M0 0 C0.99 0.66 1.98 1.32 3 2 C3 2.66 3 3.32 3 4 C1.02 4 -0.96 4 -3 4 C-2.67 3.01 -2.34 2.02 -2 1 C-1.34 0.67 -0.68 0.34 0 0 Z " fill="#696A68" transform="translate(42,60)"/>
<path d="M0 0 C0.99 0.33 1.98 0.66 3 1 C2.67 3.64 2.34 6.28 2 9 C1.34 9 0.68 9 0 9 C0 6.03 0 3.06 0 0 Z " fill="#7A7A78" transform="translate(37,39)"/>
<path d="M0 0 C1.32 0 2.64 0 4 0 C3.67 1.32 3.34 2.64 3 4 C2.34 4 1.68 4 1 4 C0.34 4.66 -0.32 5.32 -1 6 C-1.043 4.334 -1.041 2.666 -1 1 C-0.67 0.67 -0.34 0.34 0 0 Z " fill="#E2CCB5" transform="translate(65,24)"/>
<path d="M0 0 C0.66 0.165 0.66 0.165 4 1 C4.33 2.32 4.66 3.64 5 5 C3.02 4.34 1.04 3.68 -1 3 C-0.67 2.01 -0.34 1.02 0 0 Z " fill="#605E5D" transform="translate(24,13)"/>
</svg>
