<?xml version="1.0" encoding="UTF-8"?>
<!-- Generator: visioncortex VTracer 0.6.12 -->
<svg version="1.1" xmlns="http://www.w3.org/2000/svg" width="280" height="281">
<path d="M0 0 C92.4 0 184.8 0 280 0 C280 92.73 280 185.46 280 281 C187.6 281 95.2 281 0 281 C0 188.27 0 95.54 0 0 Z " fill="#FCF4E8" transform="translate(0,0)"/>
<path d="M0 0 C92.4 0 184.8 0 280 0 C280 92.73 280 185.46 280 281 C187.6 281 95.2 281 0 281 C0 188.27 0 95.54 0 0 Z M12 13 C9.918 16.123 9.749 16.807 9.743 20.353 C9.736 21.248 9.73 22.143 9.723 23.064 C9.726 24.048 9.729 25.032 9.733 26.046 C9.728 27.09 9.724 28.135 9.719 29.211 C9.706 32.728 9.708 36.244 9.709 39.761 C9.703 42.276 9.697 44.79 9.689 47.305 C9.673 53.436 9.667 59.567 9.666 65.699 C9.665 70.682 9.661 75.665 9.654 80.649 C9.637 94.772 9.628 108.895 9.629 123.019 C9.629 123.78 9.629 124.542 9.629 125.327 C9.629 126.089 9.63 126.852 9.63 127.638 C9.63 139.998 9.611 152.358 9.583 164.719 C9.554 177.406 9.541 190.092 9.542 202.779 C9.543 209.904 9.537 217.028 9.516 224.153 C9.496 230.852 9.496 237.551 9.511 244.251 C9.513 246.712 9.508 249.174 9.496 251.636 C9.481 254.991 9.49 258.345 9.506 261.7 C9.495 262.68 9.485 263.659 9.474 264.668 C9.518 268.978 9.597 271.349 11.906 275.081 C14.814 277.746 16.345 278.125 20.183 278.134 C20.624 278.136 20.624 278.136 22.857 278.148 C23.344 278.148 23.344 278.148 25.812 278.147 C26.327 278.149 26.327 278.149 28.937 278.158 C32.415 278.169 35.894 278.173 39.372 278.177 C41.857 278.183 44.342 278.19 46.827 278.197 C54.299 278.216 61.772 278.227 69.245 278.236 C72.762 278.24 76.28 278.245 79.797 278.251 C91.487 278.268 103.177 278.282 114.867 278.289 C117.901 278.291 120.935 278.293 123.969 278.295 C124.347 278.295 124.347 278.295 126.255 278.297 C138.476 278.305 150.698 278.33 162.919 278.363 C175.461 278.396 188.003 278.414 200.546 278.417 C207.59 278.419 214.634 278.428 221.678 278.453 C228.302 278.477 234.927 278.481 241.551 278.471 C243.986 278.47 246.42 278.477 248.855 278.49 C252.173 278.508 255.49 278.501 258.807 278.488 C259.292 278.493 259.292 278.493 261.742 278.521 C265.986 278.48 268.372 278.377 272.075 276.157 C274.813 273.089 275.125 270.622 275.14 266.662 C275.145 265.771 275.151 264.88 275.157 263.962 C275.158 263.472 275.158 263.472 275.161 260.992 C275.163 260.472 275.163 260.472 275.176 257.84 C275.192 254.337 275.2 250.834 275.209 247.331 C275.218 244.826 275.228 242.321 275.238 239.817 C275.267 232.29 275.287 224.762 275.304 217.235 C275.309 215.11 275.314 212.984 275.319 210.859 C275.35 197.662 275.376 184.466 275.393 171.269 C275.397 168.213 275.401 165.157 275.405 162.101 C275.406 161.721 275.406 161.721 275.408 159.799 C275.425 147.487 275.466 135.175 275.517 122.863 C275.569 110.226 275.598 97.589 275.605 84.952 C275.61 77.855 275.625 70.759 275.665 63.662 C275.703 56.989 275.71 50.316 275.697 43.643 C275.697 41.191 275.707 38.739 275.729 36.286 C275.756 32.944 275.747 29.604 275.728 26.262 C275.745 25.286 275.762 24.311 275.779 23.306 C275.715 18.693 275.489 16.631 272.598 12.897 C268.314 10.043 263.683 10.317 258.701 10.385 C258.183 10.382 258.183 10.382 255.563 10.368 C252.094 10.355 248.626 10.378 245.158 10.401 C242.671 10.399 240.184 10.395 237.697 10.389 C231.644 10.38 225.592 10.394 219.539 10.419 C212.491 10.447 205.443 10.448 198.395 10.448 C185.821 10.449 173.248 10.474 160.674 10.513 C148.471 10.55 136.268 10.572 124.065 10.574 C123.314 10.575 122.562 10.575 121.787 10.575 C121.036 10.575 120.286 10.575 119.513 10.576 C118.001 10.576 116.49 10.576 114.979 10.577 C114.234 10.577 113.488 10.577 112.721 10.577 C101.092 10.581 89.464 10.599 77.836 10.619 C73.621 10.626 69.405 10.631 65.19 10.634 C57.881 10.64 50.572 10.655 43.262 10.682 C40.832 10.69 38.402 10.694 35.972 10.694 C32.663 10.696 29.354 10.709 26.046 10.726 C25.077 10.723 24.108 10.721 23.11 10.719 C22.225 10.726 21.339 10.733 20.427 10.74 C20.045 10.741 20.045 10.741 18.112 10.746 C15.649 11.042 14.093 11.674 12 13 Z " fill="#FEFCFB" transform="translate(0,0)"/>
<path d="M0 0 C3 1 3 1 4.246 2.863 C14.623 24.195 15.516 45.252 15.728 68.49 C15.758 71.355 15.802 74.22 15.846 77.085 C15.889 79.863 15.925 82.641 15.96 85.418 C15.984 87.372 16.011 89.325 16.038 91.278 C16.043 91.872 16.043 91.872 16.069 94.881 C16.08 95.921 16.091 96.961 16.102 98.032 C15.997 101.099 15.57 103.987 15 107 C15.66 107 16.32 107 17 107 C28.953 125.789 31.489 143.15 32.867 164.932 C33.085 168.318 33.336 171.702 33.582 175.086 C33.722 177.057 33.861 179.029 34 181 C31.135 179.621 29.009 178.24 26.688 176.062 C23.318 173.078 20.169 171.635 16 170 C15.67 169.67 15.67 169.67 14 168 C12.417 172.326 11.549 176.429 11 181 C8.36 180.67 5.72 180.34 3 180 C3.66 180.33 4.32 180.66 5 181 C5 183.64 5 186.28 5 189 C3.02 189 1.04 189 -1 189 C-1.33 185.7 -1.66 182.4 -2 179 C-4.31 179 -6.62 179 -9 179 C-9.33 179.66 -9.66 180.32 -10 181 C-10 178.69 -10 176.38 -10 174 C-10.66 174 -11.32 174 -12 174 C-12.33 170.37 -12.66 166.74 -13 163 C-13.66 163 -14.32 163 -15 163 C-14.959 163.949 -14.918 164.898 -14.875 165.875 C-15 169 -15 169 -17 171 C-17.351 171.124 -17.351 171.124 -19.125 171.75 C-22.54 173.235 -25.128 175.26 -28.035 177.562 C-29.953 178.966 -31.848 180.003 -34 181 C-34.101 175.185 -33.743 169.59 -33.047 163.82 C-32.945 162.968 -32.844 162.115 -32.739 161.236 C-32.523 159.442 -32.305 157.649 -32.083 155.856 C-31.752 153.141 -31.44 150.424 -31.129 147.707 C-29.103 130.746 -29.103 130.746 -25 123 C-24.616 122.259 -24.232 121.517 -23.837 120.753 C-22.682 118.601 -21.48 116.486 -20.25 114.375 C-19.839 113.657 -19.428 112.939 -19.004 112.199 C-18.008 110.463 -17.005 108.731 -16 107 C-15.34 107 -14.68 107 -14 107 C-13.172 115.079 -12.718 123.135 -12.438 131.25 C-12.395 132.43 -12.353 133.61 -12.309 134.825 C-12.022 143.221 -11.873 151.6 -12 160 C-10.048 158.048 -9.152 156.468 -8 154 C-7.01 154.33 -6.02 154.66 -5 155 C-4.963 154.056 -4.925 153.113 -4.887 152.141 C-4.402 142.674 -3.013 134.039 0 125 C0.66 125 1.32 125 2 125 C2 125.99 2 126.98 2 128 C2.66 127.67 3.32 127.34 4 127 C3.995 126.096 3.99 125.193 3.984 124.262 C3.967 120.92 3.955 117.579 3.945 114.238 C3.94 112.789 3.933 111.341 3.925 109.893 C3.912 107.815 3.907 105.738 3.902 103.66 C3.897 102.409 3.892 101.157 3.886 99.867 C4 97 4 97 5 96 C5.088 93.927 5.107 91.852 5.098 89.777 C5.094 88.517 5.091 87.257 5.088 85.959 C5.08 84.618 5.071 83.278 5.062 81.938 C5.057 80.593 5.053 79.249 5.049 77.904 C5.037 74.603 5.021 71.301 5 68 C4.051 68.062 3.102 68.124 2.125 68.188 C1.094 68.126 0.062 68.064 -1 68 C-3.313 64.531 -3.425 63.078 -3 59 C-2.526 58.546 -2.051 58.093 -1.562 57.625 C1.039 54.919 0.7 51.657 1 48 C-3.62 48.33 -8.24 48.66 -13 49 C-13 45.7 -13 42.4 -13 39 C-5.846 37.341 0.665 36.749 8 37 C7.858 34.312 7.711 31.625 7.562 28.938 C7.523 28.185 7.484 27.433 7.443 26.658 C7.184 22.053 6.72 17.556 6 13 C4.02 12.67 2.04 12.34 0 12 C-0.165 11.34 -0.165 11.34 -1 8 C-1.33 9.32 -1.66 10.64 -2 12 C-3.32 12.33 -4.64 12.66 -6 13 C-4.587 8.173 -2.57 4.284 0 0 Z " fill="#55453B" transform="translate(135,20)"/>
<path d="M0 0 C0.66 0 1.32 0 2 0 C2.165 1.815 2.165 1.815 3 11 C3.66 11 4.32 11 5 11 C5.165 11.825 5.165 11.825 6 16 C8.31 16 10.62 16 13 16 C14.158 19.473 14.069 22.361 14 26 C15.98 26 17.96 26 20 26 C19.514 22.877 19.001 20.004 18 17 C20.64 17.33 23.28 17.66 26 18 C25.938 17.01 25.876 16.02 25.812 15 C25.785 10.531 27.279 7.087 29 3 C29.351 3.598 29.701 4.196 30.062 4.812 C32.21 7.237 34.186 7.987 37.148 9.172 C40.525 10.682 42.474 12.228 45 15 C45.006 16.92 45.005 18.841 44.943 20.76 C45.042 24.646 46.224 28.188 47.375 31.875 C47.597 32.633 47.818 33.391 48.047 34.172 C49.727 39.727 49.727 39.727 52 42 C54.242 41.723 54.242 41.723 56.875 41.062 C60.337 40.2 62.588 39.849 66 41 C66.165 42.32 66.165 42.32 67 49 C66.01 49.66 65.02 50.32 64 51 C63.67 49.35 63.34 47.7 63 46 C60.36 46.66 57.72 47.32 55 48 C54.67 50.31 54.34 52.62 54 55 C51.69 55.66 49.38 56.32 47 57 C46.629 56.34 46.257 55.68 45.875 55 C44 53 44 53 40.883 52.875 C39.931 52.916 38.98 52.958 38 53 C37.939 51.747 37.879 50.494 37.816 49.203 C37.732 47.552 37.647 45.901 37.562 44.25 C37.523 43.425 37.484 42.6 37.443 41.75 C37.401 40.951 37.36 40.152 37.316 39.328 C37.28 38.595 37.243 37.862 37.205 37.106 C36.999 34.986 36.526 33.06 36 31 C35.933 29.084 35.915 27.167 35.938 25.25 C35.947 24.265 35.956 23.28 35.965 22.266 C35.976 21.518 35.988 20.77 36 20 C35.34 20 34.68 20 34 20 C33.89 21.018 33.781 22.037 33.668 23.086 C32.785 31.064 31.767 39.011 30.5 46.938 C30.382 47.712 30.263 48.487 30.141 49.285 C29.236 54.764 29.236 54.764 27 57 C26.01 57 25.02 57 24 57 C23.96 56.721 23.96 56.721 23.756 55.307 C23.383 52.725 23.004 50.144 22.625 47.562 C22.499 46.684 22.372 45.806 22.242 44.9 C21.4 39.196 20.314 33.615 19 28 C16.03 28 13.06 28 10 28 C9.951 28.764 9.902 29.529 9.852 30.316 C8.231 53.538 8.231 53.538 6 58 C5.34 58 4.68 58 4 58 C3.67 57.34 3.34 56.68 3 56 C2.01 55.67 1.02 55.34 0 55 C-1.32 45.1 -2.64 35.2 -4 25 C-4.66 26.32 -5.32 27.64 -6 29 C-6.66 29 -7.32 29 -8 29 C-8.66 36.26 -9.32 43.52 -10 51 C-11.32 51 -12.64 51 -14 51 C-17.046 51.393 -18.089 52.076 -20.5 54.125 C-23 56 -23 56 -25.062 56.062 C-27.771 54.577 -29.152 52.444 -31 50 C-31.99 49.34 -32.98 48.68 -34 48 C-34.688 44.375 -34.688 44.375 -35 41 C-32.625 40.875 -32.625 40.875 -30 41 C-29.34 41.66 -28.68 42.32 -28 43 C-24.375 42.625 -24.375 42.625 -21 42 C-18.074 33.807 -16.042 25.446 -14 17 C-14.66 16.67 -15.32 16.34 -16 16 C-11.336 11.847 -7.019 8.006 -1 6 C-0.67 4.02 -0.34 2.04 0 0 Z " fill="#FBF4E5" transform="translate(120,183)"/>
<path d="M0 0 C3 1 3 1 4.246 2.863 C14.623 24.195 15.516 45.252 15.728 68.49 C15.758 71.355 15.802 74.22 15.846 77.085 C15.889 79.863 15.925 82.641 15.96 85.418 C15.984 87.372 16.011 89.325 16.038 91.278 C16.043 91.872 16.043 91.872 16.069 94.881 C16.08 95.921 16.091 96.961 16.102 98.032 C15.997 101.099 15.57 103.987 15 107 C15.66 107.33 16.32 107.66 17 108 C16.67 108.66 16.34 109.32 16 110 C15.887 111.495 15.833 112.995 15.811 114.494 C15.794 115.425 15.777 116.356 15.76 117.316 C15.746 118.324 15.733 119.332 15.719 120.371 C15.7 121.404 15.682 122.438 15.663 123.502 C15.604 126.814 15.551 130.126 15.5 133.438 C15.432 137.79 15.359 142.143 15.281 146.496 C15.268 147.502 15.254 148.509 15.24 149.546 C15.223 150.48 15.207 151.414 15.189 152.377 C15.183 152.788 15.183 152.788 15.151 154.868 C15 157 15 157 14 160 C11.03 160 8.06 160 5 160 C4.951 158.612 4.902 157.223 4.852 155.793 C4.106 136.733 4.106 136.733 2 128 C2.33 127.835 2.33 127.835 4 127 C3.997 126.548 3.997 126.548 3.984 124.262 C3.967 120.92 3.955 117.579 3.945 114.238 C3.94 112.789 3.933 111.341 3.925 109.893 C3.912 107.815 3.907 105.738 3.902 103.66 C3.897 102.409 3.892 101.157 3.886 99.867 C4 97 4 97 5 96 C5.088 93.927 5.107 91.852 5.098 89.777 C5.096 89.147 5.096 89.147 5.088 85.959 C5.08 84.618 5.071 83.278 5.062 81.938 C5.057 80.593 5.053 79.249 5.049 77.904 C5.037 74.603 5.021 71.301 5 68 C4.526 68.031 4.526 68.031 2.125 68.188 C1.094 68.126 0.062 68.064 -1 68 C-3.313 64.531 -3.425 63.078 -3 59 C-2.763 58.773 -2.763 58.773 -1.562 57.625 C1.039 54.919 0.7 51.657 1 48 C-3.62 48.33 -8.24 48.66 -13 49 C-13 45.7 -13 42.4 -13 39 C-5.846 37.341 0.665 36.749 8 37 C7.858 34.312 7.711 31.625 7.562 28.938 C7.523 28.185 7.484 27.433 7.443 26.658 C7.184 22.053 6.72 17.556 6 13 C5.01 12.835 5.01 12.835 0 12 C-0.33 10.68 -0.66 9.36 -1 8 C-1.33 9.32 -1.66 10.64 -2 12 C-3.32 12.33 -4.64 12.66 -6 13 C-4.587 8.173 -2.57 4.284 0 0 Z " fill="#A8A5A0" transform="translate(135,20)"/>
<path d="M0 0 C-0.33 0.577 -0.66 1.155 -1 1.75 C-2.978 6.201 -1.565 9.674 0 14 C0.33 14.99 0.66 15.98 1 17 C2.98 17 4.96 17 7 17 C7.24 16.361 7.48 15.721 7.727 15.062 C9 13 9 13 11.023 12.312 C11.799 12.209 12.575 12.106 13.375 12 C17.406 11.286 19.431 10.351 22 7 C22.33 7.165 22.33 7.165 24 8 C23.812 10.375 23.812 10.375 23 13 C20.562 14.188 20.562 14.188 18 15 C17.34 15.66 16.68 16.32 16 17 C11.145 18.587 6.143 20 1 20 C-0.389 21.961 -1.726 23.962 -3 26 C-2.01 26 -1.02 26 0 26 C0 26.66 0 27.32 0 28 C-6.27 28 -12.54 28 -19 28 C-19 28.66 -19 29.32 -19 30 C-19.701 30.025 -20.402 30.05 -21.124 30.076 C-24.312 30.192 -27.5 30.315 -30.688 30.438 C-31.79 30.477 -32.893 30.516 -34.029 30.557 C-35.096 30.599 -36.163 30.64 -37.262 30.684 C-37.751 30.702 -37.751 30.702 -40.229 30.795 C-43 31 -43 31 -45.19 31.505 C-48.713 32.126 -52.161 32.14 -55.724 32.129 C-56.486 32.131 -57.248 32.133 -58.032 32.135 C-60.541 32.139 -63.05 32.136 -65.559 32.133 C-67.308 32.133 -69.058 32.134 -70.808 32.136 C-74.472 32.137 -78.136 32.135 -81.8 32.13 C-86.488 32.125 -91.177 32.128 -95.865 32.134 C-99.478 32.138 -103.09 32.136 -106.703 32.134 C-108.431 32.133 -110.16 32.134 -111.888 32.136 C-114.307 32.139 -116.727 32.135 -119.146 32.129 C-119.856 32.131 -120.565 32.133 -121.296 32.136 C-125.299 32.119 -129.071 31.77 -133 31 C-133 30.34 -133 29.68 -133 29 C-128.05 29 -123.1 29 -118 29 C-118.99 28.34 -119.98 27.68 -121 27 C-121.188 24.375 -121.188 24.375 -121 22 C-118.625 22.188 -118.625 22.188 -116 23 C-114.688 25.562 -114.688 25.562 -114 28 C-112.68 28 -111.36 28 -110 28 C-110 28.66 -110 29.32 -110 30 C-107.36 30 -104.72 30 -102 30 C-101.732 29.361 -101.464 28.721 -101.188 28.062 C-100 26 -100 26 -97 25 C-96.835 25.495 -96.835 25.495 -96 28 C-94.185 28.33 -94.185 28.33 -85 30 C-85 28.35 -85 26.7 -85 25 C-83.989 25.206 -82.979 25.412 -81.938 25.625 C-77.505 26.047 -75.139 25.436 -71 24 C-70.835 24.825 -70.835 24.825 -70 29 C-69.01 29 -68.02 29 -67 29 C-67 27.68 -67 26.36 -67 25 C-64 26 -64 26 -63 28 C-62.443 27.99 -62.443 27.99 -59.625 27.938 C-56 28 -56 28 -54 29 C-54 28.01 -54 27.02 -54 26 C-53.01 25.67 -52.02 25.34 -51 25 C-50.67 22.69 -50.34 20.38 -50 18 C-49.01 18 -48.02 18 -47 18 C-47 17.01 -47 16.02 -47 15 C-39.631 11.233 -39.631 11.233 -36.125 9.938 C-34 9 -34 9 -32 6 C-27.25 6.75 -27.25 6.75 -25 9 C-19.125 5.25 -19.125 5.25 -18 3 C-16.907 3.206 -15.814 3.412 -14.688 3.625 C-11 4 -11 4 -8 2 C-8 2.66 -8 3.32 -8 4 C-7.618 3.67 -7.618 3.67 -5.688 2 C-3 0 -3 0 0 0 Z " fill="#ECD2B7" transform="translate(229,225)"/>
<path d="M0 0 C0.66 0 1.32 0 2 0 C2.828 8.079 3.282 16.135 3.562 24.25 C3.584 24.84 3.584 24.84 3.691 27.825 C3.978 36.221 4.127 44.6 4 53 C5.952 51.048 6.848 49.468 8 47 C8.495 47.165 8.495 47.165 11 48 C11.33 46.68 11.66 45.36 12 44 C12 51.59 12 59.18 12 67 C10.35 67 8.7 67 7 67 C6.67 68.32 6.34 69.64 6 71 C6 69.68 6 68.36 6 67 C5.34 67 4.68 67 4 67 C3.67 63.37 3.34 59.74 3 56 C2.34 56 1.68 56 1 56 C1.041 56.949 1.082 57.898 1.125 58.875 C1 62 1 62 -1 64 C-1.351 64.124 -1.351 64.124 -3.125 64.75 C-6.54 66.235 -9.128 68.26 -12.035 70.562 C-13.953 71.966 -15.848 73.003 -18 74 C-18.101 68.185 -17.743 62.59 -17.047 56.82 C-16.945 55.968 -16.844 55.115 -16.739 54.236 C-16.523 52.442 -16.305 50.649 -16.083 48.856 C-15.752 46.141 -15.44 43.424 -15.129 40.707 C-13.103 23.746 -13.103 23.746 -9 16 C-8.616 15.259 -8.232 14.517 -7.837 13.753 C-6.682 11.601 -5.48 9.486 -4.25 7.375 C-3.839 6.657 -3.428 5.939 -3.004 5.199 C-2.008 3.463 -1.005 1.731 0 0 Z " fill="#C4BCB4" transform="translate(119,127)"/>
<path d="M0 0 C0.66 0 1.32 0 2 0 C2.165 1.815 2.165 1.815 3 11 C3.66 11 4.32 11 5 11 C5 13.31 5 15.62 5 18 C6.65 17.67 8.3 17.34 10 17 C10.061 17.626 10.121 18.253 10.184 18.898 C10.267 19.716 10.351 20.533 10.438 21.375 C10.519 22.187 10.6 22.999 10.684 23.836 C11 26 11 26 12 28 C11.34 28 10.68 28 10 28 C9.951 28.764 9.902 29.529 9.852 30.316 C8.231 53.538 8.231 53.538 6 58 C5.34 58 4.68 58 4 58 C3.67 57.34 3.34 56.68 3 56 C2.01 55.67 1.02 55.34 0 55 C-1.32 45.1 -2.64 35.2 -4 25 C-4.66 26.32 -5.32 27.64 -6 29 C-6.66 29 -7.32 29 -8 29 C-8.66 36.26 -9.32 43.52 -10 51 C-11.32 51 -12.64 51 -14 51 C-17.046 51.393 -18.089 52.076 -20.5 54.125 C-23 56 -23 56 -25.062 56.062 C-27.771 54.577 -29.152 52.444 -31 50 C-31.99 49.34 -32.98 48.68 -34 48 C-34.688 44.375 -34.688 44.375 -35 41 C-32.625 40.875 -32.625 40.875 -30 41 C-29.34 41.66 -28.68 42.32 -28 43 C-24.375 42.625 -24.375 42.625 -21 42 C-18.074 33.807 -16.042 25.446 -14 17 C-14.66 16.67 -15.32 16.34 -16 16 C-11.336 11.847 -7.019 8.006 -1 6 C-0.67 4.02 -0.34 2.04 0 0 Z " fill="#FAF1E0" transform="translate(120,183)"/>
<path d="M0 0 C0.66 0.33 1.32 0.66 2 1 C2.025 4.951 2.043 8.902 2.055 12.853 C2.062 14.859 2.075 16.865 2.088 18.871 C2.09 19.5 2.09 19.5 2.098 22.68 C2.1 23.261 2.1 23.261 2.114 26.203 C2 29 2 29 1 31 C0.914 33.178 0.893 35.359 0.902 37.539 C0.904 38.19 0.904 38.19 0.912 41.484 C0.92 42.865 0.929 44.245 0.938 45.625 C0.943 47.013 0.947 48.401 0.951 49.789 C0.963 53.193 0.979 56.596 1 60 C0.505 60.165 0.505 60.165 -2 61 C-2 60.01 -2 59.02 -2 58 C-2.66 58 -3.32 58 -4 58 C-5.903 67.962 -7.442 77.98 -9 88 C-9.99 88 -10.98 88 -12 88 C-12.33 88.99 -12.66 89.98 -13 91 C-11.68 91.66 -10.36 92.32 -9 93 C-11.31 93 -13.62 93 -16 93 C-17.481 66.641 -18.307 40.401 -18 14 C-17.34 13.67 -16.68 13.34 -16 13 C-15.939 13.976 -15.879 14.952 -15.816 15.957 C-15.733 17.229 -15.649 18.502 -15.562 19.812 C-15.481 21.077 -15.4 22.342 -15.316 23.645 C-15 27 -15 27 -14 30 C-11.03 29.34 -8.06 28.68 -5 28 C-5 19.42 -5 10.84 -5 2 C-3.35 1.34 -1.7 0.68 0 0 Z " fill="#E6E2DD" transform="translate(139,87)"/>
<path d="M0 0 C3 1 3 1 4.246 2.863 C14.632 24.214 15.516 45.29 15.728 68.548 C15.758 71.421 15.802 74.294 15.846 77.167 C15.889 79.949 15.925 82.731 15.96 85.513 C15.984 87.473 16.011 89.432 16.038 91.391 C16.043 91.986 16.043 91.986 16.069 94.995 C16.08 96.037 16.091 97.079 16.102 98.153 C16.004 100.882 15.619 103.345 15 106 C12.69 106 10.38 106 8 106 C7.875 99.25 7.875 99.25 9 97 C9.098 94.343 9.139 91.719 9.125 89.062 C9.129 88.334 9.133 87.605 9.137 86.854 C9.131 83.641 9.023 81.068 8 78 C7.984 75.787 8.034 73.574 8.121 71.363 C8.145 70.714 8.145 70.714 8.268 67.428 C8.324 66.056 8.381 64.684 8.438 63.312 C8.491 61.929 8.543 60.546 8.596 59.162 C8.726 55.775 8.861 52.387 9 49 C2.151 46.717 -5.969 47.722 -13 49 C-13 45.7 -13 42.4 -13 39 C-5.846 37.341 0.665 36.749 8 37 C7.858 34.312 7.711 31.625 7.562 28.938 C7.523 28.185 7.484 27.433 7.443 26.658 C7.184 22.053 6.72 17.556 6 13 C5.01 12.835 5.01 12.835 0 12 C-0.33 10.68 -0.66 9.36 -1 8 C-1.33 9.32 -1.66 10.64 -2 12 C-3.32 12.33 -4.64 12.66 -6 13 C-4.587 8.173 -2.57 4.284 0 0 Z " fill="#8C8A87" transform="translate(135,20)"/>
<path d="M0 0 C-0.33 0.577 -0.66 1.155 -1 1.75 C-2.978 6.201 -1.565 9.674 0 14 C0.33 14.99 0.66 15.98 1 17 C2.98 17 4.96 17 7 17 C7.24 16.361 7.48 15.721 7.727 15.062 C9 13 9 13 11.023 12.312 C11.799 12.209 12.575 12.106 13.375 12 C17.406 11.286 19.431 10.351 22 7 C22.66 7.33 23.32 7.66 24 8 C23.812 10.375 23.812 10.375 23 13 C20.562 14.188 20.562 14.188 18 15 C17.34 15.66 16.68 16.32 16 17 C11.145 18.587 6.143 20 1 20 C-0.389 21.961 -1.726 23.962 -3 26 C-2.01 26 -1.02 26 0 26 C0 26.66 0 27.32 0 28 C-7.92 28 -15.84 28 -24 28 C-24.33 27.01 -24.66 26.02 -25 25 C-27.062 23.812 -27.062 23.812 -29 23 C-28.716 18.313 -26.549 16.019 -23.473 12.746 C-21.93 10.918 -20.99 9.169 -20 7 C-19.333 5.667 -18.667 4.333 -18 3 C-16.907 3.206 -15.814 3.412 -14.688 3.625 C-11 4 -11 4 -8 2 C-8 2.66 -8 3.32 -8 4 C-7.237 3.34 -6.474 2.68 -5.688 2 C-3 0 -3 0 0 0 Z " fill="#C2B6A9" transform="translate(229,225)"/>
<path d="M0 0 C0.495 0.33 0.495 0.33 3 2 C2.34 2 1.68 2 1 2 C1 2.99 1 3.98 1 5 C1.66 4.67 2.32 4.34 3 4 C5.041 3.929 7.083 3.916 9.125 3.938 C10.221 3.947 11.316 3.956 12.445 3.965 C13.288 3.976 14.131 3.988 15 4 C14.979 5.114 14.959 6.228 14.938 7.375 C15 11 15 11 16 13 C15.34 13.33 15.34 13.33 12 15 C11.748 20.542 11.748 20.542 12.996 22.81 C14.338 25.737 14.226 28.084 14.195 31.297 C14.189 32.502 14.182 33.707 14.176 34.949 C14.159 36.203 14.142 37.458 14.125 38.75 C14.116 40.02 14.107 41.289 14.098 42.598 C14.074 45.732 14.041 48.866 14 52 C12.377 52.222 10.751 52.427 9.125 52.625 C8.22 52.741 7.315 52.857 6.383 52.977 C5.99 52.98 5.99 52.98 4 53 C1.142 50.142 1.592 47.853 1.375 43.875 C1.3 42.594 1.225 41.312 1.148 39.992 C1.099 39.005 1.05 38.017 1 37 C0.67 37 0.34 37 0 37 C0 24.79 0 12.58 0 0 Z " fill="#E9E6E2" transform="translate(121,64)"/>
<path d="M0 0 C-0.99 0.33 -1.98 0.66 -3 1 C-2.959 2.031 -2.918 3.062 -2.875 4.125 C-2.999 7.966 -3.71 10.418 -5 14 C-6.724 20.458 -7.53 26.918 -8.125 33.562 C-8.211 34.476 -8.298 35.389 -8.387 36.33 C-8.596 38.553 -8.801 40.776 -9 43 C-10.32 43 -11.64 43 -13 43 C-16.046 43.393 -17.089 44.076 -19.5 46.125 C-22 48 -22 48 -24.062 48.062 C-26.771 46.577 -28.152 44.444 -30 42 C-30.99 41.34 -31.98 40.68 -33 40 C-33.688 36.375 -33.688 36.375 -34 33 C-31.625 32.875 -31.625 32.875 -29 33 C-28.34 33.66 -27.68 34.32 -27 35 C-23.375 34.625 -23.375 34.625 -20 34 C-17.074 25.807 -15.042 17.446 -13 9 C-13.66 8.67 -14.32 8.34 -15 8 C-4.378 -1.459 -4.378 -1.459 0 0 Z " fill="#D3C8BF" transform="translate(119,191)"/>
<path d="M0 0 C2.899 0.468 3.867 0.867 6 3 C6 3.66 6 4.32 6 5 C6.165 5.33 6.165 5.33 7 7 C8.32 7 9.64 7 11 7 C11 7.66 11 8.32 11 9 C11.66 9 12.32 9 13 9 C12.67 9.99 12.34 10.98 12 12 C10.68 12 9.36 12 8 12 C8.165 12.33 8.165 12.33 9 14 C11.562 14.625 11.562 14.625 14 15 C14.361 16.311 14.714 17.624 15.062 18.938 C15.161 19.303 15.161 19.303 15.66 21.152 C15.772 21.762 15.884 22.372 16 23 C14.378 24.622 12.58 24.13 10.344 24.133 C9.874 24.133 9.874 24.133 7.496 24.137 C6.507 24.133 5.519 24.129 4.5 24.125 C3.511 24.129 2.523 24.133 1.504 24.137 C1.034 24.136 1.034 24.136 -1.344 24.133 C-2.212 24.132 -3.08 24.131 -3.975 24.129 C-6 24 -6 24 -7 23 C-9.588 22.787 -12.158 22.623 -14.75 22.5 C-19.239 22.282 -23.61 22.037 -28 21 C-26.863 17.59 -26.006 16.956 -23.188 14.875 C-22.5 14.357 -21.813 13.839 -21.105 13.305 C-18.994 11.997 -17.468 11.263 -15 11 C-13.626 12.291 -12.291 13.626 -11 15 C-10.01 15 -9.02 15 -8 15 C-8.812 12.562 -8.812 12.562 -10 10 C-10.99 9.67 -11.98 9.34 -13 9 C-12.188 6.562 -12.188 6.562 -11 4 C-8 3 -8 3 -4 4 C-3.67 6.97 -3.34 9.94 -3 13 C-1.68 13 -0.36 13 1 13 C1.81 10.085 2.218 8.539 1.062 5.688 C0.712 5.131 0.361 4.574 0 4 C0.33 3.67 0.66 3.34 1 3 C0.34 2.34 -0.32 1.68 -1 1 C-0.67 0.67 -0.34 0.34 0 0 Z " fill="#E3D5C7" transform="translate(76,232)"/>
<path d="M0 0 C0.66 0.33 1.32 0.66 2 1 C2.025 4.951 2.043 8.902 2.055 12.853 C2.062 14.859 2.075 16.865 2.088 18.871 C2.09 19.5 2.09 19.5 2.098 22.68 C2.1 23.261 2.1 23.261 2.114 26.203 C2 29 2 29 1 31 C0.914 33.178 0.893 35.359 0.902 37.539 C0.904 38.19 0.904 38.19 0.912 41.484 C0.92 42.865 0.929 44.245 0.938 45.625 C0.943 47.013 0.947 48.401 0.951 49.789 C0.963 53.193 0.979 56.596 1 60 C0.505 60.165 0.505 60.165 -2 61 C-2 60.01 -2 59.02 -2 58 C-2.66 58 -3.32 58 -4 58 C-4.33 58.99 -4.66 59.98 -5 61 C-5.184 43.412 -5.184 43.412 -4.121 35.883 C-4 34 -4 34 -5 31 C-6.98 31.33 -8.96 31.66 -11 32 C-10.34 34.31 -9.68 36.62 -9 39 C-11 40 -11 40 -18 40 C-18 31.42 -18 22.84 -18 14 C-17.34 13.67 -16.68 13.34 -16 13 C-15.939 13.976 -15.879 14.952 -15.816 15.957 C-15.733 17.229 -15.649 18.502 -15.562 19.812 C-15.481 21.077 -15.4 22.342 -15.316 23.645 C-15 27 -15 27 -14 30 C-11.03 29.34 -8.06 28.68 -5 28 C-5 19.42 -5 10.84 -5 2 C-3.35 1.34 -1.7 0.68 0 0 Z " fill="#C1BCB5" transform="translate(139,87)"/>
<path d="M0 0 C3.171 3.171 5.318 5.732 7.688 9.438 C8.289 10.364 8.891 11.291 9.512 12.246 C11.954 16.765 12.175 21.324 12.535 26.395 C12.622 27.597 12.709 28.799 12.799 30.037 C12.886 31.283 12.973 32.529 13.062 33.812 C13.153 35.078 13.244 36.343 13.338 37.646 C13.561 40.764 13.782 43.882 14 47 C8.879 45.464 4.945 43.472 0 41 C0 27.47 0 13.94 0 0 Z " fill="#76716A" transform="translate(151,138)"/>
<path d="M0 0 C0.66 0 1.32 0 2 0 C2.96 4.121 3.209 7.996 0.953 11.736 C-0.444 13.636 -1.892 15.479 -3.375 17.312 C-8.77 24.032 -10.618 29.275 -11 38 C-11.196 39.377 -11.402 40.752 -11.625 42.125 C-12.106 47.095 -12.083 52.012 -12 57 C-11.62 56.82 -11.62 56.82 -9.699 55.906 C-8.705 55.442 -7.711 54.978 -6.688 54.5 C-5.701 54.036 -4.715 53.572 -3.699 53.094 C-1 52 -1 52 2 52 C1.886 53.626 1.758 55.251 1.625 56.875 C1.555 57.78 1.486 58.685 1.414 59.617 C1 62 1 62 -1 64 C-1.351 64.124 -1.351 64.124 -3.125 64.75 C-6.54 66.235 -9.128 68.26 -12.035 70.562 C-13.953 71.966 -15.848 73.003 -18 74 C-18.101 68.185 -17.743 62.59 -17.047 56.82 C-16.945 55.968 -16.844 55.115 -16.739 54.236 C-16.523 52.442 -16.305 50.649 -16.083 48.856 C-15.752 46.141 -15.44 43.424 -15.129 40.707 C-13.103 23.746 -13.103 23.746 -9 16 C-8.616 15.259 -8.232 14.517 -7.837 13.753 C-6.682 11.601 -5.48 9.486 -4.25 7.375 C-3.839 6.657 -3.428 5.939 -3.004 5.199 C-2.008 3.463 -1.005 1.731 0 0 Z " fill="#6A717F" transform="translate(119,127)"/>
<path d="M0 0 C0.33 0 0.66 0 1 0 C1 2.31 1 4.62 1 7 C1.969 6.979 2.939 6.959 3.938 6.938 C7 7 7 7 8 8 C8.994 13.344 9.122 18.515 9.062 23.938 C9.042 26.598 9.021 29.259 9 32 C5.865 32.165 5.865 32.165 -10 33 C-10.277 26.27 -9.959 22.146 -7 16 C-6.226 13.349 -5.614 10.694 -5 8 C-3.68 7.67 -2.36 7.34 -1 7 C-0.67 4.69 -0.34 2.38 0 0 Z " fill="#F3F3F2" transform="translate(134,25)"/>
<path d="M0 0 C3 1 3 1 4.246 2.863 C10.977 16.701 15.344 31.515 15 47 C14.505 46.835 14.505 46.835 12 46 C10.082 45.851 8.161 45.752 6.238 45.684 C5.679 45.663 5.679 45.663 2.85 45.557 C1.682 45.517 0.515 45.478 -0.688 45.438 C-1.277 45.416 -1.277 45.416 -4.26 45.307 C-7.173 45.2 -10.086 45.098 -13 45 C-13 43.02 -13 41.04 -13 39 C-5.907 37.277 0.71 36.751 8 37 C7.858 34.312 7.711 31.625 7.562 28.938 C7.523 28.185 7.484 27.433 7.443 26.658 C7.184 22.053 6.72 17.556 6 13 C5.01 12.835 5.01 12.835 0 12 C-0.33 10.68 -0.66 9.36 -1 8 C-1.33 9.32 -1.66 10.64 -2 12 C-3.32 12.33 -4.64 12.66 -6 13 C-4.587 8.173 -2.57 4.284 0 0 Z " fill="#95939B" transform="translate(135,20)"/>
<path d="M0 0 C1.65 0 3.3 0 5 0 C5.871 5.997 6.147 11.808 6.133 17.863 C6.134 18.777 6.135 19.691 6.136 20.632 C6.136 22.549 6.135 24.466 6.13 26.383 C6.125 29.321 6.13 32.259 6.137 35.197 C6.136 37.065 6.135 38.933 6.133 40.801 C6.135 41.679 6.137 42.557 6.139 43.462 C6.136 44.277 6.133 45.091 6.129 45.931 C6.129 46.289 6.129 46.289 6.127 48.099 C6 50 6 50 5 53 C2.03 53 -0.94 53 -4 53 C-4.33 44.42 -4.66 35.84 -5 27 C-3 29 -3 29 0 37 C0 24.79 0 12.58 0 0 Z " fill="#918D86" transform="translate(144,127)"/>
<path d="M0 0 C0.66 0 1.32 0 2 0 C5.379 11.793 5.184 22.74 4.688 34.875 C4.624 36.738 4.562 38.602 4.502 40.465 C4.353 44.977 4.182 49.489 4 54 C2.02 53.67 0.04 53.34 -2 53 C-4.164 46.252 -4.338 39.93 -4.316 32.886 C-4.313 30.835 -4.336 28.784 -4.361 26.732 C-4.406 17.269 -2.986 8.958 0 0 Z " fill="#0E609A" transform="translate(135,145)"/>
<path d="M0 0 C4.504 0.273 7.173 2.328 10.645 4.941 C12.405 7.616 12.087 9.721 11.96 12.839 C12.027 16.466 13.273 19.659 14.438 23.062 C17.017 31.101 17.865 38.567 18 47 C14.104 46.423 11.757 44.772 9 42 C8.434 39.328 8.434 39.328 8.438 36.25 C8.227 30.77 7.432 25.844 6.062 20.562 C5.977 20.232 5.977 20.232 5.547 18.558 C4.756 15.576 3.882 12.655 2.879 9.738 C1.902 6.695 1.849 4.176 2 1 C1.34 0.67 0.68 0.34 0 0 Z " fill="#D2B89F" transform="translate(153,191)"/>
<path d="M0 0 C15.733 14.961 15.588 38.874 17 59 C17.102 60.405 17.205 61.811 17.308 63.216 C17.545 66.477 17.775 69.738 18 73 C15.135 71.621 13.009 70.24 10.688 68.062 C7.329 65.089 4.196 63.541 0 62 C0 60.68 0 59.36 0 58 C4.62 58.66 9.24 59.32 14 60 C13.867 59.007 13.734 58.015 13.598 56.992 C12.555 49.023 11.725 41.121 11.344 33.086 C10.624 26.626 7.96 21.979 4.438 16.688 C4.026 16.055 3.614 15.423 3.189 14.771 C0.188 10.188 0.188 10.188 -1 9 C-1.237 2.475 -1.237 2.475 0 0 Z " fill="#283146" transform="translate(151,128)"/>
<path d="M0 0 C2.375 0.188 2.375 0.188 5 1 C6.312 3.562 6.312 3.562 7 6 C8.32 6 9.64 6 11 6 C11 6.66 11 7.32 11 8 C13.64 8 16.28 8 19 8 C19.268 7.361 19.536 6.721 19.812 6.062 C21 4 21 4 24 3 C24.165 3.495 24.165 3.495 25 6 C26.815 6.33 26.815 6.33 36 8 C36 6.35 36 4.7 36 3 C37.011 3.206 38.021 3.412 39.062 3.625 C43.495 4.047 45.861 3.436 50 2 C50.165 2.495 50.165 2.495 51 5 C50.01 5 49.02 5 48 5 C48 5.99 48 6.98 48 8 C56.25 8.33 64.5 8.66 73 9 C73 9.33 73 9.66 73 10 C62.803 10.023 52.607 10.041 42.41 10.052 C37.675 10.057 32.94 10.064 28.205 10.075 C23.634 10.086 19.063 10.092 14.492 10.095 C12.749 10.097 11.007 10.1 9.265 10.106 C6.821 10.113 4.377 10.114 1.933 10.114 C1.575 10.115 1.575 10.115 -0.24 10.124 C-4.265 10.116 -8.051 9.777 -12 9 C-12 8.34 -12 7.68 -12 7 C-7.05 7 -2.1 7 3 7 C2.01 6.34 1.02 5.68 0 5 C-0.188 2.375 -0.188 2.375 0 0 Z " fill="#EEDFCE" transform="translate(108,247)"/>
<path d="M0 0 C6.311 9.466 10.05 26.967 8 38 C8.557 38.268 9.114 38.536 9.688 38.812 C12.197 40.101 14.593 41.529 17 43 C16.67 42.34 16.34 41.68 16 41 C15.862 37.33 15.957 33.674 16 30 C20.95 29.34 25.9 28.68 31 28 C33.25 33.625 33.25 33.625 32 38 C31.01 38 30.02 38 29 38 C29 36.68 29 35.36 29 34 C26.36 34.66 23.72 35.32 21 36 C20.67 38.31 20.34 40.62 20 43 C17.69 43.66 15.38 44.32 13 45 C12.629 44.34 12.257 43.68 11.875 43 C10 41 10 41 6.883 40.875 C5.931 40.916 4.98 40.958 4 41 C3.939 39.747 3.879 38.494 3.816 37.203 C3.732 35.552 3.647 33.901 3.562 32.25 C3.523 31.425 3.484 30.6 3.443 29.75 C3.422 29.35 3.422 29.35 3.316 27.328 C3.28 26.595 3.243 25.862 3.205 25.106 C2.999 22.986 2.526 21.06 2 19 C1.933 17.084 1.915 15.167 1.938 13.25 C1.947 12.265 1.956 11.28 1.965 10.266 C1.976 9.518 1.988 8.77 2 8 C1.34 8 0.68 8 0 8 C0 5.36 0 2.72 0 0 Z " fill="#FBE1B9" transform="translate(154,195)"/>
<path d="M0 0 C6.027 5.826 6.955 10.23 7.535 18.395 C7.622 19.597 7.709 20.799 7.799 22.037 C7.886 23.283 7.973 24.529 8.062 25.812 C8.153 27.078 8.244 28.343 8.338 29.646 C8.561 32.764 8.782 35.882 9 39 C6.125 38.375 6.125 38.375 3 37 C0.808 32.671 0.705 28.427 0.586 23.633 C0.567 22.953 0.547 22.274 0.527 21.573 C0.468 19.424 0.421 17.275 0.375 15.125 C0.337 13.659 0.298 12.193 0.258 10.727 C0.162 7.151 0.078 3.576 0 0 Z " fill="#C9C0B7" transform="translate(156,146)"/>
<path d="M0 0 C0.66 0 1.32 0 2 0 C2.96 4.121 3.209 7.996 0.953 11.736 C-0.444 13.636 -1.892 15.479 -3.375 17.312 C-8.81 24.088 -10.448 29.259 -11 38 C-11.343 39.943 -11.716 41.882 -12.125 43.812 C-12.293 44.623 -12.46 45.434 -12.633 46.27 C-12.754 46.841 -12.875 47.412 -13 48 C-13.33 48 -13.66 48 -14 48 C-14.055 45.729 -14.093 43.458 -14.125 41.188 C-14.148 39.923 -14.171 38.658 -14.195 37.355 C-13.926 26.992 -11.053 19.233 -5.875 10.312 C-5.312 9.313 -4.748 8.313 -4.168 7.283 C-2.793 4.847 -1.403 2.42 0 0 Z " fill="#1D3C5E" transform="translate(119,127)"/>
<path d="M0 0 C0.66 0.33 1.32 0.66 2 1 C2 1.99 2 2.98 2 4 C3.65 4 5.3 4 7 4 C7 4.66 7 5.32 7 6 C-14 7.184 -34.975 7.104 -56 7 C-56 6.67 -56 6.34 -56 6 C-53.03 6 -50.06 6 -47 6 C-47 5.01 -47 4.02 -47 3 C-46.01 3 -45.02 3 -44 3 C-44 3.66 -44 4.32 -44 5 C-43.01 5 -42.02 5 -41 5 C-41 3.68 -41 2.36 -41 1 C-38 2 -38 2 -37 4 C-33.937 4.027 -30.875 4.047 -27.812 4.062 C-27.38 4.067 -27.38 4.067 -25.193 4.088 C-20.964 4.104 -17.14 3.946 -13 3 C-11.666 3.005 -10.332 3.044 -9 3.125 C-5.195 3.204 -3.172 2.146 0 0 Z " fill="#DCCFBF" transform="translate(203,249)"/>
<path d="M0 0 C0.33 0 0.66 0 1 0 C0.604 4.831 0.012 9.186 -1.438 13.812 C-3.916 22.292 -4.282 31.231 -5 40 C-6.32 40 -7.64 40 -9 40 C-11.004 40.308 -13.005 40.637 -15 41 C-13.943 38.235 -12.807 35.629 -11.438 33 C-10 30 -10 30 -9.438 27.188 C-9.293 26.466 -9.149 25.744 -9 25 C-8.34 24.67 -7.68 24.34 -7 24 C-4.661 17.567 -3.954 10.75 -3 4 C-2.01 4 -1.02 4 0 4 C0 2.68 0 1.36 0 0 Z " fill="#FADFB8" transform="translate(115,194)"/>
<path d="M0 0 C0.33 0.165 0.33 0.165 2 1 C4.101 7.443 4.239 14.025 3.977 20.727 C3.952 21.6 3.927 22.474 3.901 23.374 C3.82 26.125 3.723 28.875 3.625 31.625 C3.567 33.506 3.509 35.388 3.453 37.27 C3.314 41.847 3.161 46.423 3 51 C2.01 51 1.02 51 0 51 C0 34.17 0 17.34 0 0 Z " fill="#06284A" transform="translate(136,148)"/>
<path d="M0 0 C2.007 0.287 4.009 0.619 6 1 C6.251 2.893 6.475 4.79 6.688 6.688 C6.815 7.743 6.943 8.799 7.074 9.887 C6.985 13.641 6.585 15.254 4 18 C1.214 18.381 -0.934 18.48 -3.688 18.312 C-4.389 18.29 -5.091 18.267 -5.814 18.244 C-7.544 18.185 -9.272 18.096 -11 18 C-9.125 13.125 -9.125 13.125 -8 12 C-6.314 11.928 -4.625 11.916 -2.938 11.938 C-2.018 11.947 -1.099 11.956 -0.152 11.965 C0.558 11.976 1.268 11.988 2 12 C1.188 9.562 1.188 9.562 0 7 C-0.99 6.67 -1.98 6.34 -3 6 C-1.125 1.125 -1.125 1.125 0 0 Z " fill="#C3B6A7" transform="translate(66,235)"/>
<path d="M0 0 C0.33 0 0.66 0 1 0 C1 2.31 1 4.62 1 7 C1.485 6.99 1.485 6.99 3.938 6.938 C7 7 7 7 8 8 C8.994 13.344 9.123 18.514 9.062 23.938 C9.058 24.717 9.053 25.496 9.049 26.299 C9.037 28.199 9.019 30.1 9 32 C6.69 31.67 4.38 31.34 2 31 C2.141 28.271 2.288 25.542 2.438 22.812 C2.457 22.428 2.457 22.428 2.557 20.482 C2.775 16.567 3.087 12.829 4 9 C3.175 8.67 3.175 8.67 -1 7 C-0.67 4.69 -0.34 2.38 0 0 Z " fill="#B6B9BC" transform="translate(134,25)"/>
<path d="M0 0 C6.055 -0.195 6.055 -0.195 8 0 C8.66 0.66 9.32 1.32 10 2 C9.34 4.31 8.68 6.62 8 9 C7.67 9 7.34 9 7 9 C7 6.36 7 3.72 7 1 C5.35 1 3.7 1 2 1 C2.03 1.552 2.061 2.105 2.092 2.674 C2.727 14.463 3.15 26.193 3 38 C2.67 38.165 2.67 38.165 1 39 C-0.65 34.38 -2.3 29.76 -4 25 C-3.34 25 -2.68 25 -2 25 C-1.975 24.349 -1.95 23.699 -1.924 23.028 C-1.808 20.081 -1.685 17.134 -1.562 14.188 C-1.523 13.163 -1.484 12.139 -1.443 11.084 C-1.401 10.101 -1.36 9.118 -1.316 8.105 C-1.28 7.199 -1.243 6.294 -1.205 5.36 C-1 3 -1 3 0 0 Z " fill="#9F9B95" transform="translate(142,126)"/>
<path d="M0 0 C2 0.125 2 0.125 4 1 C5.125 3.055 5.125 3.055 6 5 C5.072 6.319 4.132 7.63 3.188 8.938 C2.665 9.668 2.143 10.399 1.605 11.152 C0 13 0 13 -3 14 C-3.33 14.99 -3.66 15.98 -4 17 C-6.97 17 -9.94 17 -13 17 C-11.827 13.663 -10.811 11.226 -8 9 C-7.34 9 -6.68 9 -6 9 C-6 8.34 -6 7.68 -6 7 C-5.34 7 -4.68 7 -4 7 C-3.711 6.216 -3.422 5.433 -3.125 4.625 C-2 2 -2 2 0 0 Z " fill="#CCC3B7" transform="translate(49,234)"/>
<path d="M0 0 C2.375 -0.125 2.375 -0.125 5 0 C5.66 0.66 6.32 1.32 7 2 C8.945 1.977 8.945 1.977 11.125 1.625 C12.404 1.419 13.683 1.213 15 1 C14.886 2.959 14.759 4.917 14.625 6.875 C14.555 7.966 14.486 9.056 14.414 10.18 C14 13 14 13 12 15 C10.125 14.938 10.125 14.938 8 14 C6.621 12.371 5.287 10.703 4 9 C3.01 8.34 2.02 7.68 1 7 C0.312 3.375 0.312 3.375 0 0 Z " fill="#EFD0AD" transform="translate(85,224)"/>
<path d="M0 0 C0.33 0.66 0.66 1.32 1 2 C-0.312 3.5 -0.312 3.5 -2 5 C-2.99 5 -3.98 5 -5 5 C-4.01 6.32 -3.02 7.64 -2 9 C-3.65 9.33 -5.3 9.66 -7 10 C-7 9.01 -7 8.02 -7 7 C-8.32 7 -9.64 7 -11 7 C-10.649 7.557 -10.299 8.114 -9.938 8.688 C-8.782 11.539 -9.19 13.085 -10 16 C-10.33 15.01 -10.66 14.02 -11 13 C-14.749 12.449 -15.911 12.936 -19.062 15.188 C-21.686 17.56 -23.889 20.158 -26 23 C-25.716 18.313 -23.549 16.019 -20.473 12.746 C-18.93 10.918 -17.99 9.169 -17 7 C-16.333 5.667 -15.667 4.333 -15 3 C-13.907 3.206 -12.814 3.412 -11.688 3.625 C-8 4 -8 4 -5 2 C-5 2.66 -5 3.32 -5 4 C-3.35 2.68 -1.7 1.36 0 0 Z " fill="#D7C5B2" transform="translate(226,225)"/>
<path d="M0 0 C2 3 2 3 2 7 C2.66 7 3.32 7 4 7 C4 4.69 4 2.38 4 0 C4.33 0 4.66 0 5 0 C5 2.64 5 5.28 5 8 C5.99 8 6.98 8 8 8 C8 7.01 8 6.02 8 5 C9.938 5.312 9.938 5.312 12 6 C12.33 6.99 12.66 7.98 13 9 C13.66 9.33 14.32 9.66 15 10 C12.36 9.67 9.72 9.34 7 9 C7.66 9.33 8.32 9.66 9 10 C9 12.64 9 15.28 9 18 C7.02 18 5.04 18 3 18 C2.67 14.7 2.34 11.4 2 8 C-0.31 8 -2.62 8 -5 8 C-5.33 8.66 -5.66 9.32 -6 10 C-5.67 7.69 -5.34 5.38 -5 3 C-3.35 3 -1.7 3 0 3 C0 2.01 0 1.02 0 0 Z " fill="#214D72" transform="translate(131,191)"/>
<path d="M0 0 C0.33 2.64 0.66 5.28 1 8 C0.01 8.66 -0.98 9.32 -2 10 C-2.33 8.35 -2.66 6.7 -3 5 C-8.373 5.793 -8.373 5.793 -11 7 C-12.635 9.306 -13.183 11.242 -14 14 C-16 12 -16 12 -16.195 9.398 C-16.172 8.401 -16.149 7.403 -16.125 6.375 C-16.107 5.372 -16.089 4.369 -16.07 3.336 C-16.047 2.565 -16.024 1.794 -16 1 C-14.085 0.636 -12.168 0.284 -10.25 -0.062 C-9.183 -0.26 -8.115 -0.457 -7.016 -0.66 C-4.252 -0.972 -2.591 -0.899 0 0 Z " fill="#E8D5C4" transform="translate(186,224)"/>
<path d="M0 0 C0.33 0 0.66 0 1 0 C1.061 0.976 1.121 1.952 1.184 2.957 C1.267 4.229 1.351 5.502 1.438 6.812 C1.519 8.077 1.6 9.342 1.684 10.645 C2 14 2 14 3 17 C6.3 16.67 9.6 16.34 13 16 C12.67 17.32 12.34 18.64 12 20 C12 19.34 12 18.68 12 18 C10.02 18.33 8.04 18.66 6 19 C6.66 21.31 7.32 23.62 8 26 C5.043 27.478 2.258 27.06 -1 27 C-1.029 22.688 -1.047 18.375 -1.062 14.062 C-1.071 12.831 -1.079 11.599 -1.088 10.33 C-1.091 9.16 -1.094 7.99 -1.098 6.785 C-1.103 5.701 -1.108 4.617 -1.114 3.5 C-1 1 -1 1 0 0 Z " fill="#D5D2CE" transform="translate(122,100)"/>
<path d="M0 0 C0.33 0 0.66 0 1 0 C1.058 4.271 1.094 8.541 1.125 12.812 C1.142 14.027 1.159 15.242 1.176 16.494 C1.182 17.658 1.189 18.821 1.195 20.02 C1.206 21.093 1.216 22.167 1.227 23.273 C1 26 1 26 -1 29 C-1 25.04 -1 21.08 -1 17 C-1.66 17.66 -2.32 18.32 -3 19 C-5.5 19.312 -5.5 19.312 -8 19 C-10.294 15.559 -10.263 14.032 -10 10 C-9 9 -9 9 -6.934 8.902 C-5.778 8.919 -5.778 8.919 0 9 C0 6.03 0 3.06 0 0 Z " fill="#A7A6A2" transform="translate(142,69)"/>
<path d="M0 0 C2.97 0 5.94 0 9 0 C9 4.29 9 8.58 9 13 C7.35 13 5.7 13 4 13 C3.67 14.32 3.34 15.64 3 17 C3 15.68 3 14.36 3 13 C2.34 13 1.68 13 1 13 C0.67 8.71 0.34 4.42 0 0 Z " fill="#B7A392" transform="translate(122,181)"/>
<path d="M0 0 C0.99 0.33 1.98 0.66 3 1 C-0.066 5.66 -2.587 6.855 -8 8 C-8 9.65 -8 11.3 -8 13 C-8.66 13 -9.32 13 -10 13 C-10.206 13.536 -10.412 14.072 -10.625 14.625 C-12.523 17.903 -14.909 20.781 -18 23 C-19.32 23 -20.64 23 -22 23 C-22 22.01 -22 21.02 -22 20 C-21.01 19.67 -20.02 19.34 -19 19 C-18.67 16.69 -18.34 14.38 -18 12 C-17.01 12 -16.02 12 -15 12 C-15 11.01 -15 10.02 -15 9 C-7.631 5.233 -7.631 5.233 -4.125 3.938 C-2 3 -2 3 0 0 Z " fill="#F6DFC5" transform="translate(197,231)"/>
<path d="M0 0 C0.66 0.33 1.32 0.66 2 1 C1.812 3.375 1.812 3.375 1 6 C-1.438 7.188 -1.438 7.188 -4 8 C-4.66 8.66 -5.32 9.32 -6 10 C-10.855 11.587 -15.857 13 -21 13 C-22.389 14.961 -23.726 16.962 -25 19 C-24.01 19 -23.02 19 -22 19 C-22 19.66 -22 20.32 -22 21 C-25.96 21 -29.92 21 -34 21 C-34 20.67 -34 20.34 -34 20 C-32.928 19.814 -31.855 19.629 -30.75 19.438 C-28.347 18.785 -27.299 18.461 -25.926 16.344 C-25.641 15.715 -25.356 15.086 -25.062 14.438 C-24.168 12.539 -24.168 12.539 -23 11 C-21.051 10.461 -21.051 10.461 -18.875 10.312 C-17.596 10.209 -16.317 10.106 -15 10 C-14.84 9.677 -14.84 9.677 -14.031 8.043 C-13 6 -13 6 -10.977 5.312 C-10.201 5.209 -9.425 5.106 -8.625 5 C-4.594 4.286 -2.569 3.351 0 0 Z " fill="#D6CBBD" transform="translate(251,232)"/>
<path d="M0 0 C0.33 0 0.66 0 1 0 C-0.731 24.462 -0.731 24.462 -3 29 C-3.66 29 -4.32 29 -5 29 C-5.33 28.34 -5.66 27.68 -6 27 C-6.99 26.67 -7.98 26.34 -9 26 C-9.33 22.37 -9.66 18.74 -10 15 C-8.02 15.66 -6.04 16.32 -4 17 C-2.68 11.39 -1.36 5.78 0 0 Z " fill="#FBE4C6" transform="translate(129,212)"/>
<path d="M0 0 C0.33 0.99 0.66 1.98 1 3 C1.443 2.979 1.443 2.979 3.688 2.875 C6.973 2.999 9.054 3.614 12 5 C12 5.33 12 5.66 12 6 C4.25 5.125 4.25 5.125 2 4 C1.67 4.99 1.34 5.98 1 7 C0.67 6.67 0.34 6.34 0 6 C-0.99 9.63 -1.98 13.26 -3 17 C-3.33 17 -3.66 17 -4 17 C-4 15.35 -4 13.7 -4 12 C-5.65 12 -7.3 12 -9 12 C-9 8.7 -9 5.4 -9 2 C-6.03 2 -3.06 2 0 2 C0 1.34 0 0.68 0 0 Z " fill="#96806D" transform="translate(149,182)"/>
<path d="M0 0 C0.75 0.005 1.499 0.009 2.271 0.014 C4.119 0.025 5.966 0.043 7.812 0.062 C7.812 1.712 7.812 3.362 7.812 5.062 C6.944 5.123 6.075 5.184 5.18 5.246 C4.027 5.33 2.875 5.414 1.688 5.5 C1.119 5.541 1.119 5.541 -1.758 5.746 C-4.942 6.04 -8.043 6.494 -11.188 7.062 C-11.188 5.082 -11.188 3.102 -11.188 1.062 C-7.424 -0.192 -3.915 -0.044 0 0 Z " fill="#225E99" transform="translate(133.1875,57.9375)"/>
<path d="M0 0 C2.31 0 4.62 0 7 0 C8.158 3.473 8.069 6.361 8 10 C9.98 10 11.96 10 14 10 C13.514 6.877 13.001 4.004 12 1 C12.99 1 13.98 1 15 1 C16.299 9.049 17.339 16.838 17 25 C15.424 22.114 14.537 19.467 13.875 16.25 C13.707 15.451 13.54 14.652 13.367 13.828 C13.246 13.225 13.125 12.622 13 12 C12.443 12.021 12.443 12.021 9.625 12.125 C6 12 6 12 4 10 C3.805 7.836 3.805 7.836 3.875 5.375 C3.893 4.558 3.911 3.74 3.93 2.898 C3.941 2.585 3.941 2.585 4 1 C2.68 1.33 1.36 1.66 0 2 C0 1.34 0 0.68 0 0 Z " fill="#F6D18D" transform="translate(126,199)"/>
<path d="M0 0 C0.825 0.165 0.825 0.165 5 1 C5.33 1.99 5.66 2.98 6 4 C6.66 4.371 7.32 4.743 8 5.125 C10.758 7.711 10.658 9.766 10.918 13.438 C11.052 17.627 11.079 21.809 11 26 C9 25 9 25 8.346 23.25 C8.253 22.879 8.253 22.879 7.781 21 C7.571 20.196 7.361 19.391 7.145 18.562 C6.715 16.854 6.285 15.146 5.855 13.438 C5.645 12.633 5.435 11.829 5.219 11 C5.126 10.629 5.126 10.629 4.654 8.75 C4 7 4 7 2 6 C2 4.35 2 2.7 2 1 C1.34 0.67 0.68 0.34 0 0 Z " fill="#CDB197" transform="translate(153,191)"/>
<path d="M0 0 C3 1 3 1 4.387 3.215 C4.816 4.113 5.245 5.012 5.688 5.938 C6.124 6.833 6.561 7.729 7.012 8.652 C8 11 8 11 8 13 C5.36 12.67 2.72 12.34 0 12 C-0.33 10.68 -0.66 9.36 -1 8 C-1.33 9.32 -1.66 10.64 -2 12 C-3.32 12.33 -4.64 12.66 -6 13 C-4.587 8.173 -2.57 4.284 0 0 Z " fill="#1A3A61" transform="translate(135,20)"/>
<path d="M0 0 C3.729 3.729 3.471 6.205 3.512 11.168 C3.53 11.963 3.548 12.758 3.566 13.576 C3.62 16.113 3.654 18.65 3.688 21.188 C3.721 22.908 3.755 24.629 3.791 26.35 C3.876 30.566 3.943 34.783 4 39 C2.68 38.34 1.36 37.68 0 37 C0 24.79 0 12.58 0 0 Z " fill="#8E8982" transform="translate(154,143)"/>
<path d="M0 0 C0.33 0 0.66 0 1 0 C1.059 4.479 1.094 8.958 1.125 13.438 C1.142 14.698 1.159 15.958 1.176 17.256 C1.212 24.18 0.847 30.318 -1 37 C-1.33 37 -1.66 37 -2 37 C-2.05 32.695 -2.086 28.39 -2.11 24.085 C-2.12 22.622 -2.133 21.16 -2.151 19.697 C-2.175 17.587 -2.187 15.477 -2.195 13.367 C-2.206 12.1 -2.216 10.833 -2.227 9.527 C-2.001 6.01 -1.272 3.271 0 0 Z " fill="#10538C" transform="translate(133,154)"/>
<path d="M0 0 C0.66 0 1.32 0 2 0 C2.198 3.395 2.381 6.791 2.562 10.188 C2.619 11.147 2.675 12.107 2.732 13.096 C2.781 14.027 2.829 14.958 2.879 15.918 C2.926 16.772 2.973 17.625 3.022 18.505 C2.999 21.124 2.592 23.454 2 26 C-0.31 26 -2.62 26 -5 26 C-5 23.69 -5 21.38 -5 19 C-3.68 19 -2.36 19 -1 19 C-0.67 12.73 -0.34 6.46 0 0 Z " fill="#818180" transform="translate(148,100)"/>
<path d="M0 0 C1.32 0.66 2.64 1.32 4 2 C4.027 3.604 4.046 5.208 4.062 6.812 C4.074 7.706 4.086 8.599 4.098 9.52 C4 12 4 12 3 15 C0.36 15 -2.28 15 -5 15 C-5 14.34 -5 13.68 -5 13 C-4.01 13 -3.02 13 -2 13 C-2.023 12.229 -2.046 11.458 -2.07 10.664 C-2.088 9.661 -2.106 8.658 -2.125 7.625 C-2.148 6.627 -2.171 5.63 -2.195 4.602 C-2 2 -2 2 0 0 Z " fill="#998F82" transform="translate(146,165)"/>
<path d="M0 0 C1.875 1.25 1.875 1.25 2.875 4.25 C1.782 4.147 0.689 4.044 -0.438 3.938 C-1.654 4.041 -2.871 4.144 -4.125 4.25 C-5.115 5.9 -6.105 7.55 -7.125 9.25 C-2.175 9.25 2.775 9.25 7.875 9.25 C8.205 8.26 8.535 7.27 8.875 6.25 C8.875 7.57 8.875 8.89 8.875 10.25 C5.979 10.277 3.083 10.297 0.188 10.312 C-0.221 10.317 -0.221 10.317 -2.287 10.338 C-6.37 10.354 -10.142 10.28 -14.125 9.25 C-12.981 5.818 -12.1 5.203 -9.25 3.125 C-8.551 2.607 -7.853 2.089 -7.133 1.555 C-4.541 -0.129 -3.011 -1.063 0 0 Z " fill="#D7CCC0" transform="translate(62.125,243.75)"/>
<path d="M0 0 C0.66 0.33 1.32 0.66 2 1 C2 9.25 2 17.5 2 26 C1.01 26.33 0.02 26.66 -1 27 C-2.448 22.657 -2.041 18.332 -1.961 13.805 C-1.925 10.588 -1.974 8.077 -3 5 C-2.34 5 -1.68 5 -1 5 C-0.67 3.35 -0.34 1.7 0 0 Z " fill="#85837E" transform="translate(146,93)"/>
<path d="M0 0 C0.33 0 0.66 0 1 0 C1.66 3.3 2.32 6.6 3 10 C4.32 10.33 5.64 10.66 7 11 C6.886 12.459 6.758 13.917 6.625 15.375 C6.555 16.187 6.486 16.999 6.414 17.836 C6 20 6 20 4 22 C3.01 22 2.02 22 1 22 C0.635 19.459 0.283 16.918 -0.062 14.375 C-0.166 13.662 -0.27 12.949 -0.377 12.215 C-0.951 7.899 -0.971 4.305 0 0 Z " fill="#FBE8CA" transform="translate(143,218)"/>
<path d="M0 0 C0.99 0 1.98 0 3 0 C3.747 5.312 4.119 10.404 4.098 15.781 C4.096 16.48 4.095 17.179 4.093 17.899 C4.088 20.1 4.075 22.3 4.062 24.5 C4.057 26.005 4.053 27.51 4.049 29.016 C4.038 32.677 4.021 36.339 4 40 C3.67 40 3.34 40 3 40 C2.67 32.08 2.34 24.16 2 16 C1.34 16.66 0.68 17.32 0 18 C-0.194 15.188 -0.38 12.375 -0.562 9.562 C-0.619 8.76 -0.675 7.958 -0.732 7.131 C-0.862 5.089 -0.935 3.045 -1 1 C-0.67 0.67 -0.34 0.34 0 0 Z " fill="#7D7A75" transform="translate(146,127)"/>
<path d="M0 0 C0.99 0.33 1.98 0.66 3 1 C3.768 2.655 3.768 2.655 4.316 4.789 C4.523 5.566 4.73 6.344 4.943 7.145 C5.148 7.963 5.352 8.782 5.562 9.625 C5.98 11.221 6.398 12.818 6.816 14.414 C7.014 15.193 7.212 15.972 7.415 16.774 C7.939 18.769 8.537 20.744 9.145 22.715 C9.988 25.952 10.207 28.607 10.125 31.938 C10.107 32.895 10.089 33.853 10.07 34.84 C10.059 35.196 10.059 35.196 10 37 C9.01 36.67 8.02 36.34 7 36 C6.987 35.624 6.987 35.624 6.922 33.719 C6.296 21.996 3.233 11.223 0 0 Z " fill="#EEC89D" transform="translate(155,197)"/>
<path d="M0 0 C3 1 3 1 4 3 C4.443 2.979 4.443 2.979 6.688 2.875 C12.52 2.851 18.266 4.034 24 5 C24 5.33 24 5.66 24 6 C11.13 6 -1.74 6 -15 6 C-15 5.67 -15 5.34 -15 5 C-12.03 5 -9.06 5 -6 5 C-6 4.01 -6 3.02 -6 2 C-5.01 2 -4.02 2 -3 2 C-3 2.66 -3 3.32 -3 4 C-2.01 4 -1.02 4 0 4 C0 2.68 0 1.36 0 0 Z " fill="#E7D7C6" transform="translate(162,250)"/>
<path d="M0 0 C0.66 0.66 1.32 1.32 2 2 C4.625 2.625 4.625 2.625 7 3 C7.361 4.311 7.714 5.624 8.062 6.938 C8.161 7.303 8.161 7.303 8.66 9.152 C8.772 9.762 8.884 10.372 9 11 C8 12 8 12 5.959 12.114 C5.084 12.108 4.21 12.103 3.309 12.098 C2.364 12.094 1.42 12.091 0.447 12.088 C-0.546 12.08 -1.539 12.071 -2.562 12.062 C-3.56 12.058 -4.557 12.053 -5.584 12.049 C-8.056 12.037 -10.528 12.021 -13 12 C-13 11.67 -13 11.34 -13 11 C-6.73 11 -0.46 11 6 11 C5.34 9.35 4.68 7.7 4 6 C2.02 6.66 0.04 7.32 -2 8 C-2.99 7.01 -3.98 6.02 -5 5 C-3.35 3.35 -1.7 1.7 0 0 Z " fill="#F0E2D3" transform="translate(83,244)"/>
<path d="M0 0 C0.33 0.66 0.66 1.32 1 2 C1.99 2 2.98 2 4 2 C4.33 7.61 4.66 13.22 5 19 C3.35 18.67 1.7 18.34 0 18 C0 12.06 0 6.12 0 0 Z " fill="#D3CEC8" transform="translate(134,97)"/>
<path d="M0 0 C1.958 -0.054 3.916 -0.093 5.875 -0.125 C6.42 -0.137 6.42 -0.137 9.18 -0.195 C12 0 12 0 14 2 C13.977 4.164 13.977 4.164 13.625 6.625 C13.57 7.034 13.57 7.034 13.289 9.102 C13.241 9.415 13.241 9.415 13 11 C11.188 11.625 11.188 11.625 9 12 C8.01 11.34 7.02 10.68 6 10 C6.33 7.03 6.66 4.06 7 1 C4.69 1 2.38 1 0 1 C0 0.67 0 0.34 0 0 Z " fill="#CDBBB7" transform="translate(129,67)"/>
<path d="M0 0 C2.129 0.396 4.253 0.817 6.375 1.25 C7.558 1.482 8.742 1.714 9.961 1.953 C13 3 13 3 14.414 4.922 C15 7 15 7 15 10 C11.001 9.429 8.403 8.127 5 6 C3.346 5.302 1.683 4.625 0 4 C0 2.68 0 1.36 0 0 Z " fill="#183846" transform="translate(151,186)"/>
<path d="M0 0 C4.036 4.036 4.857 10.635 5.191 16.172 C5.188 18.788 5.136 21.387 5 24 C4.01 24 3.02 24 2 24 C1.67 24.66 1.34 25.32 1 26 C0.67 17.42 0.34 8.84 0 0 Z " fill="#7B746C" transform="translate(139,154)"/>
<path d="M0 0 C0.99 0 1.98 0 3 0 C3.66 8.25 4.32 16.5 5 25 C1 23 1 23 -1 20 C-0.01 20 0.98 20 2 20 C0.375 14.25 0.375 14.25 -3 12 C-1.68 12 -0.36 12 1 12 C0.835 11.319 0.67 10.639 0.5 9.938 C-0.071 6.584 -0.067 3.396 0 0 Z " fill="#474F5F" transform="translate(164,176)"/>
<path d="M0 0 C3.293 4.94 4.216 9.504 4.5 15.375 C4.823 20.521 5.624 25.046 7 30 C7 30.99 7 31.98 7 33 C6.34 33 5.68 33 5 33 C5.33 35.64 5.66 38.28 6 41 C5.34 41 4.68 41 4 41 C3.939 39.747 3.879 38.494 3.816 37.203 C3.732 35.552 3.647 33.901 3.562 32.25 C3.523 31.425 3.484 30.6 3.443 29.75 C3.422 29.35 3.422 29.35 3.316 27.328 C3.28 26.595 3.243 25.862 3.205 25.106 C2.999 22.986 2.526 21.06 2 19 C1.933 17.084 1.915 15.167 1.938 13.25 C1.947 12.265 1.956 11.28 1.965 10.266 C1.976 9.518 1.988 8.77 2 8 C1.34 8 0.68 8 0 8 C0 5.36 0 2.72 0 0 Z " fill="#FDE7C3" transform="translate(154,195)"/>
<path d="M0 0 C0.531 -0.006 0.531 -0.006 3.221 -0.037 C4.24 -0.039 5.259 -0.041 6.309 -0.043 C7.244 -0.047 8.179 -0.051 9.142 -0.055 C11.562 0.188 11.562 0.188 14.562 2.188 C14.562 2.847 14.562 3.507 14.562 4.188 C13.944 4.105 13.944 4.105 10.812 3.688 C2.712 2.793 -5.408 2.728 -13.438 4.188 C-13.438 3.198 -13.438 2.207 -13.438 1.188 C-9.449 -0.807 -4.385 0.003 0 0 Z " fill="#D81D18" transform="translate(135.4375,64.8125)"/>
<path d="M0 0 C4.95 2.31 9.9 4.62 15 7 C15 7.99 15 8.98 15 10 C9.865 9.358 5.006 8.317 0 7 C0 4.69 0 2.38 0 0 Z " fill="#6B1913" transform="translate(150,178)"/>
<path d="M0 0 C0.33 0.165 0.33 0.165 2 1 C3.826 6.784 4.623 12.98 4 19 C2.68 20.32 1.36 21.64 0 23 C0 15.41 0 7.82 0 0 Z " fill="#123254" transform="translate(136,148)"/>
<path d="M0 0 C2.874 2.874 2.968 5 3.098 9.016 C3.086 10.083 3.074 11.15 3.062 12.25 C3.053 13.328 3.044 14.405 3.035 15.516 C3.024 16.335 3.012 17.155 3 18 C1.02 17.67 -0.96 17.34 -3 17 C-3 15.35 -3 13.7 -3 12 C-2.01 11.67 -1.02 11.34 0 11 C-0.33 10.67 -0.66 10.34 -1 10 C-1.136 6.337 -1.165 3.494 0 0 Z " fill="#838588" transform="translate(146,46)"/>
<path d="M0 0 C0.66 0 1.32 0 2 0 C2.33 7.59 2.66 15.18 3 23 C1.35 22.67 -0.3 22.34 -2 22 C-1.859 19.271 -1.712 16.542 -1.562 13.812 C-1.523 13.044 -1.484 12.275 -1.443 11.482 C-1.225 7.567 -0.913 3.829 0 0 Z " fill="#D5D3D0" transform="translate(138,34)"/>
<path d="M0 0 C-0.33 1.65 -0.66 3.3 -1 5 C-3.124 5.67 -5.249 6.336 -7.375 7 C-8.558 7.371 -9.742 7.743 -10.961 8.125 C-14 9 -14 9 -16 9 C-14.956 6.108 -14.191 5.113 -11.504 3.516 C-10.533 3.098 -9.563 2.68 -8.562 2.25 C-7.594 1.822 -6.626 1.394 -5.629 0.953 C-3 0 -3 0 0 0 Z " fill="#AA231A" transform="translate(121,179)"/>
<path d="M0 0 C-0.66 0.66 -1.32 1.32 -2 2 C-2 2.99 -2 3.98 -2 5 C-3.461 6.605 -3.461 6.605 -5.375 8.188 C-5.688 8.452 -5.688 8.452 -7.273 9.793 C-9 11 -9 11 -11 11 C-11 9.02 -11 7.04 -11 5 C-10.34 5 -9.68 5 -9 5 C-9 3.68 -9 2.36 -9 1 C-6.043 -0.478 -3.258 -0.06 0 0 Z " fill="#163F64" transform="translate(113,189)"/>
<path d="M0 0 C2.899 0.468 3.867 0.867 6 3 C6 3.66 6 4.32 6 5 C6.33 5.66 6.66 6.32 7 7 C8.32 7 9.64 7 11 7 C11 7.66 11 8.32 11 9 C11.66 9 12.32 9 13 9 C12.67 9.99 12.34 10.98 12 12 C8.311 11.291 5.235 9.899 2 8 C0.625 5.812 0.625 5.812 0 4 C0.33 3.67 0.66 3.34 1 3 C0.34 2.34 -0.32 1.68 -1 1 C-0.67 0.67 -0.34 0.34 0 0 Z " fill="#FBE4C6" transform="translate(76,232)"/>
<path d="M0 0 C0.192 4.798 0.047 8.614 -2 13 C-6.211 17 -6.211 17 -9 17 C-7.943 14.235 -6.807 11.629 -5.438 9 C-4 6 -4 6 -3.438 3.188 C-3.293 2.466 -3.149 1.744 -3 1 C-1 0 -1 0 0 0 Z " fill="#E9CDB3" transform="translate(109,218)"/>
<path d="M0 0 C2.375 -0.125 2.375 -0.125 5 0 C5.66 0.66 6.32 1.32 7 2 C8.945 1.977 8.945 1.977 11.125 1.625 C12.404 1.419 13.683 1.213 15 1 C14.67 2.98 14.34 4.96 14 7 C13.34 7 12.68 7 12 7 C12 6.34 12 5.68 12 5 C10.52 5.114 9.041 5.241 7.562 5.375 C6.739 5.445 5.915 5.514 5.066 5.586 C4.384 5.723 3.703 5.859 3 6 C2.67 6.66 2.34 7.32 2 8 C0.743 5.094 0 3.204 0 0 Z " fill="#ECD9C5" transform="translate(85,224)"/>
<path d="M0 0 C2.581 0.356 3.82 0.833 5.75 2.625 C7.443 5.842 7 8.36 7 12 C7.48 13.865 8.004 15.719 8.562 17.562 C9.797 21.749 10.276 24.708 9 29 C8.691 28.361 8.381 27.721 8.062 27.062 C7 25 7 25 6 24 C5.822 22.561 5.701 21.115 5.605 19.668 C5.537 18.787 5.468 17.906 5.396 16.998 C5.258 15.137 5.13 13.275 5.014 11.412 C4.451 4.573 4.451 4.573 1.926 1.363 C1.29 0.913 0.655 0.464 0 0 Z " fill="#C3B2A3" transform="translate(158,194)"/>
<path d="M0 0 C0.33 0 0.66 0 1 0 C1.171 4.229 1.336 8.458 1.5 12.688 C1.548 13.866 1.595 15.045 1.645 16.26 C1.948 24.178 2.06 32.077 2 40 C1.01 40 0.02 40 -1 40 C-0.67 26.8 -0.34 13.6 0 0 Z " fill="#CEC9C1" transform="translate(121,138)"/>
<path d="M0 0 C2.464 0.973 3.702 1.913 5.375 3.938 C0.894 7.298 -2.231 7.212 -7.625 6.938 C-7.625 3.938 -7.625 3.938 -5.438 1.688 C-2.625 -0.062 -2.625 -0.062 0 0 Z " fill="#E8DCCE" transform="translate(197.625,246.0625)"/>
<path d="M0 0 C0.99 0.33 1.98 0.66 3 1 C3.625 3.875 3.625 3.875 4 7 C3.34 7.66 2.68 8.32 2 9 C1.656 11.715 1.656 11.715 1.5 14.938 C1.221 20.668 1.221 20.668 -1 24 C-1.027 21.312 -1.047 18.625 -1.062 15.938 C-1.071 15.185 -1.079 14.433 -1.088 13.658 C-1.108 8.994 -0.776 4.601 0 0 Z " fill="#CFCAC5" transform="translate(135,124)"/>
<path d="M0 0 C2.562 0.188 2.562 0.188 4.562 2.188 C4.007 6.743 4.007 6.743 2.562 8.188 C0.062 8.312 0.062 8.312 -2.438 8.188 C-3.438 7.188 -3.438 7.188 -3.562 4.188 C-3.399 0.261 -3.399 0.261 0 0 Z " fill="#23292A" transform="translate(135.4375,77.8125)"/>
<path d="M0 0 C0.33 0 0.66 0 1 0 C1.33 7.92 1.66 15.84 2 24 C2.99 24 3.98 24 5 24 C5.33 23.34 5.66 22.68 6 22 C6.66 24.31 7.32 26.62 8 29 C5.125 28.375 5.125 28.375 2 27 C-0.659 21.611 -0.228 15.985 -0.125 10.125 C-0.116 9.15 -0.107 8.176 -0.098 7.172 C-0.074 4.781 -0.041 2.391 0 0 Z " fill="#BCAFA5" transform="translate(157,156)"/>
<path d="M0 0 C0.821 2.349 1.132 3.604 0.335 5.999 C-0.028 6.684 -0.391 7.369 -0.766 8.074 C-1.161 8.824 -1.557 9.573 -1.965 10.346 C-2.389 11.118 -2.813 11.891 -3.25 12.688 C-3.659 13.472 -4.067 14.256 -4.488 15.064 C-7.609 20.87 -7.609 20.87 -11 22 C-9.49 16.739 -7.096 12.328 -4.375 7.625 C-3.955 6.889 -3.535 6.153 -3.102 5.395 C-2.072 3.594 -1.037 1.796 0 0 Z " fill="#3C78A7" transform="translate(118,129)"/>
<path d="M0 0 C0.66 0.33 1.32 0.66 2 1 C1.845 1.666 1.691 2.333 1.531 3.02 C0.779 7.238 0.615 11.461 0.395 15.736 C0.103 20.795 0.103 20.795 -1 23 C-2.32 22.67 -3.64 22.34 -5 22 C-4.67 21.505 -4.67 21.505 -3 19 C-2.605 17.023 -2.605 17.023 -2.402 14.805 C-2.323 14.007 -2.244 13.209 -2.162 12.387 C-2.088 11.558 -2.014 10.729 -1.938 9.875 C-1.121 1.121 -1.121 1.121 0 0 Z " fill="#E8E6E3" transform="translate(137,33)"/>
<path d="M0 0 C2.877 2.399 3.49 4.215 4.062 7.875 C4.69 11.48 5.442 14.661 7 18 C-0.91 10.304 -0.91 10.304 -1.25 5.375 C-1 2 -1 2 0 0 Z " fill="#0C1F34" transform="translate(151,128)"/>
<path d="M0 0 C1.134 0.021 2.269 0.041 3.438 0.062 C3.768 2.043 4.097 4.022 4.438 6.062 C1.481 7.541 -1.305 7.123 -4.562 7.062 C-4.605 5.063 -4.603 3.062 -4.562 1.062 C-3.562 0.062 -3.562 0.062 0 0 Z " fill="#B4BABF" transform="translate(125.5625,119.9375)"/>
<path d="M0 0 C0.99 0.33 1.98 0.66 3 1 C2.01 1.33 1.02 1.66 0 2 C-0.33 3.98 -0.66 5.96 -1 8 C-1.99 8 -2.98 8 -4 8 C-4.33 9.98 -4.66 11.96 -5 14 C-5.66 14 -6.32 14 -7 14 C-7.688 10.688 -7.688 10.688 -8 7 C-6.875 5.312 -6.875 5.312 -5 4 C-4.175 3.257 -3.35 2.515 -2.5 1.75 C-1.675 1.173 -0.85 0.595 0 0 Z " fill="#D8AE7F" transform="translate(116,190)"/>
<path d="M0 0 C0.33 0 0.66 0 1 0 C-0.217 12.779 -0.217 12.779 -2 18 C-2.66 18.33 -3.32 18.66 -4 19 C-4.625 21.562 -4.625 21.562 -5 24 C-5.33 24 -5.66 24 -6 24 C-6.043 22 -6.041 20 -6 18 C-5.67 17.67 -5.34 17.34 -5 17 C-4.603 14.82 -4.257 12.63 -3.938 10.438 C-3.761 9.24 -3.584 8.042 -3.402 6.809 C-3.27 5.882 -3.137 4.955 -3 4 C-2.01 4 -1.02 4 0 4 C0 2.68 0 1.36 0 0 Z " fill="#F6D8AF" transform="translate(115,194)"/>
<path d="M0 0 C0.99 0.165 0.99 0.165 6 1 C6 3.64 6 6.28 6 9 C5.422 8.484 4.845 7.969 4.25 7.438 C2 6 2 6 -0.25 6.312 C-0.828 6.539 -1.405 6.766 -2 7 C-2.33 6.01 -2.66 5.02 -3 4 C-1.562 1.812 -1.562 1.812 0 0 Z " fill="#D7C5B2" transform="translate(66,235)"/>
<path d="M0 0 C0.33 0 0.66 0 1 0 C1 8.91 1 17.82 1 27 C2.65 27 4.3 27 6 27 C6.33 28.98 6.66 30.96 7 33 C6.34 33 5.68 33 5 33 C4.34 32.01 3.68 31.02 3 30 C2.01 29.67 1.02 29.34 0 29 C0 19.43 0 9.86 0 0 Z " fill="#1D3446" transform="translate(139,167)"/>
<path d="M0 0 C0.495 0.33 0.495 0.33 3 2 C2.34 2 1.68 2 1 2 C1 2.99 1 3.98 1 5 C2.32 4.67 3.64 4.34 5 4 C4.125 7.875 4.125 7.875 3 9 C2.765 11.183 2.586 13.372 2.438 15.562 C2.354 16.76 2.27 17.958 2.184 19.191 C2.123 20.118 2.062 21.045 2 22 C1.67 22 1.34 22 1 22 C-0.177 17.375 -0.114 12.921 -0.062 8.188 C-0.06 7.793 -0.06 7.793 -0.049 5.799 C-0.037 3.866 -0.019 1.933 0 0 Z " fill="#E3D9D6" transform="translate(121,64)"/>
<path d="M0 0 C2.375 0.188 2.375 0.188 5 1 C6.312 3.562 6.312 3.562 7 6 C8.32 6 9.64 6 11 6 C11 6.66 11 7.32 11 8 C3.612 8.363 3.612 8.363 1 6.812 C-0.309 4.44 -0.216 2.666 0 0 Z " fill="#F3DFC9" transform="translate(108,247)"/>
<path d="M0 0 C0.994 3.253 1.048 6.035 0.879 9.422 C0.831 10.447 0.782 11.471 0.732 12.527 C0.676 13.591 0.62 14.654 0.562 15.75 C0.51 16.829 0.458 17.908 0.404 19.02 C0.275 21.68 0.14 24.34 0 27 C-1.32 25.68 -2.64 24.36 -4 23 C-3.67 22.67 -3.34 22.34 -3 22 C-2.786 20.539 -2.63 19.069 -2.5 17.598 C-2.459 17.153 -2.459 17.153 -2.25 14.9 C-2.168 13.964 -2.085 13.027 -2 12.062 C-1.837 10.22 -1.67 8.377 -1.5 6.535 C-1.428 5.714 -1.356 4.893 -1.281 4.047 C-1 2 -1 2 0 0 Z " fill="#FDEECC" transform="translate(112,212)"/>
<path d="M0 0 C0.33 0.66 0.66 1.32 1 2 C2.98 2 4.96 2 7 2 C6.732 2.516 6.464 3.031 6.188 3.562 C4.677 6.664 3.344 9.823 2 13 C0 11 0 11 -0.195 8.398 C-0.172 7.401 -0.149 6.403 -0.125 5.375 C-0.107 4.372 -0.089 3.369 -0.07 2.336 C-0.047 1.565 -0.024 0.794 0 0 Z " fill="#E4CDB8" transform="translate(170,225)"/>
<path d="M0 0 C0.66 0 1.32 0 2 0 C1.67 6.6 1.34 13.2 1 20 C0.34 20.33 -0.32 20.66 -1 21 C-1.223 18.438 -1.429 15.877 -1.625 13.312 C-1.689 12.591 -1.754 11.87 -1.82 11.127 C-2.131 6.874 -1.97 3.813 0 0 Z " fill="#4178A5" transform="translate(135,145)"/>
<path d="M0 0 C2.97 0 5.94 0 9 0 C9 1.65 9 3.3 9 5 C6.03 5 3.06 5 0 5 C0 3.35 0 1.7 0 0 Z " fill="#315381" transform="translate(132,58)"/>
<path d="M0 0 C0.33 0 0.66 0 1 0 C1 1.65 1 3.3 1 5 C1.66 5 2.32 5 3 5 C3 5.66 3 6.32 3 7 C-0.83 8.802 -3.781 9.196 -8 9 C-7.043 7.874 -6.084 6.749 -5.125 5.625 C-4.591 4.999 -4.058 4.372 -3.508 3.727 C-2.386 2.442 -1.206 1.206 0 0 Z " fill="#E6D3BF" transform="translate(187,245)"/>
<path d="M0 0 C0.99 0.33 1.98 0.66 3 1 C2.049 2.173 1.089 3.338 0.125 4.5 C-0.142 4.825 -0.142 4.825 -1.492 6.469 C-1.99 6.974 -2.487 7.479 -3 8 C-3.66 8 -4.32 8 -5 8 C-5.33 9.32 -5.66 10.64 -6 12 C-6.99 11.67 -7.98 11.34 -9 11 C-7.677 6.001 -4.392 2.602 0 0 Z " fill="#CBB8A3" transform="translate(210,237)"/>
<path d="M0 0 C0.99 0.33 1.98 0.66 3 1 C3 3.64 3 6.28 3 9 C1.02 9 -0.96 9 -3 9 C-3 6.69 -3 4.38 -3 2 C-2.01 2 -1.02 2 0 2 C0 1.34 0 0.68 0 0 Z " fill="#72542F" transform="translate(137,200)"/>
<path d="M0 0 C0.825 0.165 0.825 0.165 5 1 C5.33 1.99 5.66 2.98 6 4 C6.681 4.454 7.361 4.907 8.062 5.375 C10 7 10 7 10.25 9.688 C10.167 10.451 10.085 11.214 10 12 C9.01 11.67 8.02 11.34 7 11 C7 10.01 7 9.02 7 8 C6.175 7.67 6.175 7.67 2 6 C2 4.35 2 2.7 2 1 C1.34 0.67 0.68 0.34 0 0 Z " fill="#B08F74" transform="translate(153,191)"/>
<path d="M0 0 C1.875 0.25 1.875 0.25 4 1 C4.66 2.32 5.32 3.64 6 5 C4.02 7.64 2.04 10.28 0 13 C-0.66 12.34 -1.32 11.68 -2 11 C-0.625 8.5 -0.625 8.5 1 6 C1.66 6 2.32 6 3 6 C3 5.34 3 4.68 3 4 C1.35 4 -0.3 4 -2 4 C-1.34 2.68 -0.68 1.36 0 0 Z " fill="#D6CCC1" transform="translate(49,234)"/>
<path d="M0 0 C0.33 0 0.66 0 1 0 C2.115 4.334 1.98 8.237 1.688 12.688 C1.67 13.026 1.67 13.026 1.58 14.736 C1.246 19.754 1.246 19.754 -1 22 C-1.027 19.646 -1.047 17.292 -1.062 14.938 C-1.068 14.282 -1.068 14.282 -1.098 10.965 C-1.005 7.184 -0.614 3.721 0 0 Z " fill="#334B6A" transform="translate(106,153)"/>
<path d="M0 0 C0.33 0 0.66 0 1 0 C1.33 11.22 1.66 22.44 2 34 C0.68 33.34 -0.64 32.68 -2 32 C-1.34 31.67 -0.68 31.34 0 31 C0 20.77 0 10.54 0 0 Z " fill="#9E978F" transform="translate(156,148)"/>
<path d="M0 0 C0.66 0.33 1.32 0.66 2 1 C1.043 2.605 0.084 4.209 -0.875 5.812 C-1.409 6.706 -1.942 7.599 -2.492 8.52 C-3.619 10.373 -4.797 12.195 -6 14 C-5.34 14.33 -4.68 14.66 -4 15 C-4.99 15 -5.98 15 -7 15 C-7.8 11.713 -8.097 10.29 -7 7 C-5.35 5.646 -3.683 4.313 -2 3 C-1.34 2.01 -0.68 1.02 0 0 Z " fill="#BEAD9B" transform="translate(212,238)"/>
<path d="M0 0 C2.31 0 4.62 0 7 0 C7.33 2.97 7.66 5.94 8 9 C6.68 9.33 5.36 9.66 4 10 C4 7.03 4 4.06 4 1 C2.68 1.33 1.36 1.66 0 2 C0 1.34 0 0.68 0 0 Z " fill="#DA9E53" transform="translate(126,199)"/>
<path d="M0 0 C2.955 3.546 5.459 7.638 7 12 C6.67 12.99 6.34 13.98 6 15 C1.515 10.964 -0.175 6.94 -1 1 C-0.67 0.67 -0.34 0.34 0 0 Z " fill="#112F53" transform="translate(155,135)"/>
<path d="M0 0 C2 2 2 2 2.227 3.879 C2.217 4.623 2.206 5.367 2.195 6.133 C2.189 6.938 2.182 7.744 2.176 8.574 C2.159 9.416 2.142 10.258 2.125 11.125 C2.116 11.974 2.107 12.824 2.098 13.699 C2.074 15.8 2.038 17.9 2 20 C1.01 20 0.02 20 -1 20 C-0.67 13.4 -0.34 6.8 0 0 Z " fill="#95928D" transform="translate(143,99)"/>
<path d="M0 0 C0.99 0 1.98 0 3 0 C2.67 2.31 2.34 4.62 2 7 C1.216 7.144 0.433 7.289 -0.375 7.438 C-3 8 -3 8 -5 9 C-5.66 8.34 -6.32 7.68 -7 7 C-7 6.01 -7 5.02 -7 4 C-5.515 3.835 -5.515 3.835 2 3 C2 2.34 2 1.68 2 1 C1.34 0.67 0.68 0.34 0 0 Z " fill="#51595C" transform="translate(117,184)"/>
<path d="M0 0 C0.66 0 1.32 0 2 0 C3 5 4 10 5 15 C4.67 15.165 4.67 15.165 3 16 C1.35 11.38 -0.3 6.76 -2 2 C-1.34 2 -0.68 2 0 2 C0 1.34 0 0.68 0 0 Z " fill="#A7A29A" transform="translate(140,149)"/>
<path d="M0 0 C0.33 0 0.66 0 1 0 C1 3.63 1 7.26 1 11 C0.34 10.01 -0.32 9.02 -1 8 C-1.33 9.32 -1.66 10.64 -2 12 C-3.32 12.33 -4.64 12.66 -6 13 C-4.587 8.173 -2.57 4.284 0 0 Z " fill="#366DA0" transform="translate(135,20)"/>
<path d="M0 0 C0.33 0.66 0.66 1.32 1 2 C-0.312 3.5 -0.312 3.5 -2 5 C-2.99 5 -3.98 5 -5 5 C-4.01 6.32 -3.02 7.64 -2 9 C-3.65 9.33 -5.3 9.66 -7 10 C-7 9.01 -7 8.02 -7 7 C-7.99 6.67 -8.98 6.34 -10 6 C-8.35 4.68 -6.7 3.36 -5 2 C-5 2.66 -5 3.32 -5 4 C-3.35 2.68 -1.7 1.36 0 0 Z " fill="#CEC0B1" transform="translate(226,225)"/>
<path d="M0 0 C3.479 3.088 4.288 6.517 5 11 C5.138 13.365 5.099 15.628 5 18 C2.244 16.029 1.965 14.827 1.27 11.426 C1.104 10.056 0.952 8.685 0.812 7.312 C0.731 6.611 0.649 5.909 0.564 5.186 C0.365 3.458 0.181 1.729 0 0 Z " fill="#C0BAB2" transform="translate(156,146)"/>
<path d="M0 0 C0.66 0.33 1.32 0.66 2 1 C1.812 3.375 1.812 3.375 1 6 C-1.438 7.188 -1.438 7.188 -4 8 C-4.66 8.66 -5.32 9.32 -6 10 C-9.125 10.125 -9.125 10.125 -12 10 C-11.67 9.34 -11.34 8.68 -11 8 C-10.546 7.876 -10.546 7.876 -8.25 7.25 C-4.002 5.616 -2.675 3.619 0 0 Z " fill="#EAE1D3" transform="translate(251,232)"/>
<path d="M0 0 C0.33 0 0.66 0 1 0 C0.442 7.015 -0.184 14.01 -1 21 C-3 19 -3 19 -3.312 15.562 C-3.203 10.16 -1.584 5.128 0 0 Z " fill="#FDECC8" transform="translate(129,212)"/>
<path d="M0 0 C0.99 0 1.98 0 3 0 C3.363 5.802 2.257 9.64 0 15 C-0.917 11.876 -1.135 9.063 -1.125 5.812 C-1.128 4.932 -1.13 4.052 -1.133 3.145 C-1 1 -1 1 0 0 Z " fill="#DBC2AC" transform="translate(108,204)"/>
<path d="M0 0 C0.66 0.33 1.32 0.66 2 1 C1.34 1.33 1.34 1.33 -2 3 C-2 3.66 -2 4.32 -2 5 C-1.34 5.33 -0.68 5.66 0 6 C-1.75 10.875 -1.75 10.875 -4 12 C-4 10.02 -4 8.04 -4 6 C-4.66 5.67 -5.32 5.34 -6 5 C-4.02 3.35 -2.04 1.7 0 0 Z " fill="#CBC1B9" transform="translate(110,194)"/>
<path d="M0 0 C0.99 0 1.98 0 3 0 C3 0.66 3 1.32 3 2 C4.98 2 6.96 2 9 2 C9 2.66 9 3.32 9 4 C3.06 4 -2.88 4 -9 4 C-9 3.67 -9 3.34 -9 3 C-6.03 3 -3.06 3 0 3 C0 2.01 0 1.02 0 0 Z " fill="#DCCBB9" transform="translate(156,252)"/>
<path d="M0 0 C1.32 0 2.64 0 4 0 C4 0.66 4 1.32 4 2 C5.65 2 7.3 2 9 2 C9.33 2.66 9.66 3.32 10 4 C6.04 4 2.08 4 -2 4 C-1.34 2.68 -0.68 1.36 0 0 Z " fill="#B2A495" transform="translate(60,249)"/>
<path d="M0 0 C0.66 0 1.32 0 2 0 C1.443 3.231 0.668 5.024 -2 7 C-3.32 7 -4.64 7 -6 7 C-6 5.35 -6 3.7 -6 2 C-4.35 2 -2.7 2 -1 2 C-0.67 1.34 -0.34 0.68 0 0 Z " fill="#DEC5AD" transform="translate(194,243)"/>
<path d="M0 0 C2.562 2.25 2.562 2.25 5 5 C4.812 7.312 4.812 7.312 4 9 C2.02 9 0.04 9 -2 9 C-1.649 8.423 -1.299 7.845 -0.938 7.25 C0.16 4.616 -0.178 3.65 -1 1 C-0.67 0.67 -0.34 0.34 0 0 Z " fill="#CCBBAA" transform="translate(68,240)"/>
<path d="M0 0 C1.65 0 3.3 0 5 0 C5.33 1.65 5.66 3.3 6 5 C4.02 5 2.04 5 0 5 C-0.33 5.66 -0.66 6.32 -1 7 C-0.67 4.69 -0.34 2.38 0 0 Z " fill="#745944" transform="translate(126,194)"/>
<path d="M0 0 C0.99 0.165 0.99 0.165 6 1 C6 2.65 6 4.3 6 6 C5.01 5.835 5.01 5.835 0 5 C0 3.35 0 1.7 0 0 Z " fill="#112647" transform="translate(143,58)"/>
<path d="M0 0 C1.32 0.33 2.64 0.66 4 1 C4 3.31 4 5.62 4 8 C3.34 7.67 2.68 7.34 2 7 C2 6.34 2 5.68 2 5 C0.35 5 -1.3 5 -3 5 C-2.01 3.35 -1.02 1.7 0 0 Z " fill="#E9D4BF" transform="translate(182,223)"/>
<path d="M0 0 C0.33 0 0.66 0 1 0 C1 3.3 1 6.6 1 10 C-3 9 -3 9 -5 7 C-4.34 5.68 -3.68 4.36 -3 3 C-2.01 3.33 -1.02 3.66 0 4 C0 2.68 0 1.36 0 0 Z " fill="#CECAC1" transform="translate(130,171)"/>
<path d="M0 0 C0.66 0 1.32 0 2 0 C2.66 3.63 3.32 7.26 4 11 C3.67 11.165 3.67 11.165 2 12 C1.34 11.67 0.68 11.34 0 11 C0 7.37 0 3.74 0 0 Z " fill="#DCD7D3" transform="translate(121,127)"/>
<path d="M0 0 C2.31 0.33 4.62 0.66 7 1 C6.01 2.65 5.02 4.3 4 6 C2.062 5.688 2.062 5.688 0 5 C-0.33 4.01 -0.66 3.02 -1 2 C-0.67 1.34 -0.34 0.68 0 0 Z " fill="#E8C9A9" transform="translate(78,241)"/>
<path d="M0 0 C1.938 0.75 1.938 0.75 4 2 C4.875 4 4.875 4 5 6 C4.34 6.66 3.68 7.32 3 8 C2.01 8 1.02 8 0 8 C0 5.36 0 2.72 0 0 Z " fill="#F8D4A5" transform="translate(144,232)"/>
<path d="M0 0 C1.32 0 2.64 0 4 0 C3.67 2.31 3.34 4.62 3 7 C2.175 6.67 2.175 6.67 -2 5 C-1.125 1.125 -1.125 1.125 0 0 Z " fill="#FAD8B1" transform="translate(122,233)"/>
<path d="M0 0 C-0.33 0.99 -0.66 1.98 -1 3 C-3.215 3.949 -3.215 3.949 -5.938 4.688 C-6.833 4.939 -7.729 5.19 -8.652 5.449 C-11 6 -11 6 -13 6 C-13 5.34 -13 4.68 -13 4 C-11.399 3.327 -9.794 2.662 -8.188 2 C-7.294 1.629 -6.401 1.257 -5.48 0.875 C-3 0 -3 0 0 0 Z " fill="#CB170E" transform="translate(118,182)"/>
<path d="M0 0 C0.66 0.33 1.32 0.66 2 1 C1.67 3.97 1.34 6.94 1 10 C-0.32 10.33 -1.64 10.66 -3 11 C-3.99 10.34 -4.98 9.68 -6 9 C-5.381 8.814 -4.762 8.629 -4.125 8.438 C-0.944 6.286 -0.805 3.625 0 0 Z " fill="#B9B7B2" transform="translate(141,68)"/>
<path d="M0 0 C1.65 0.33 1.65 0.33 10 2 C9.34 2.33 9.34 2.33 6 4 C5.67 4.66 5.34 5.32 5 6 C4.175 5.67 4.175 5.67 0 4 C0 2.68 0 1.36 0 0 Z " fill="#2B3735" transform="translate(151,186)"/>
<path d="M0 0 C2.355 1.843 2.982 2.931 3.75 5.875 C3.99 8.869 3.764 11.113 3 14 C2.67 14 2.34 14 2 14 C0.409 9.127 -0.212 5.192 0 0 Z " fill="#969799" transform="translate(142,33)"/>
<path d="M0 0 C2.64 0 5.28 0 8 0 C8 1.32 8 2.64 8 4 C5.69 3.67 3.38 3.34 1 3 C0.67 2.01 0.34 1.02 0 0 Z " fill="#D6C8B4" transform="translate(123,185)"/>
<path d="M0 0 C2.97 0 5.94 0 9 0 C9 0.99 9 1.98 9 3 C6.03 3 3.06 3 0 3 C0 2.01 0 1.02 0 0 Z " fill="#9D1916" transform="translate(122,181)"/>
<path d="M0 0 C0.825 0.165 0.825 0.165 5 1 C5 2.65 5 4.3 5 6 C3.35 6 1.7 6 0 6 C0 4.02 0 2.04 0 0 Z " fill="#152434" transform="translate(143,119)"/>
<path d="M0 0 C-2 2 -2 2 -4.5 2.438 C-7 3 -7 3 -9 6 C-9.66 5.67 -10.32 5.34 -11 5 C-7.59 0.25 -7.59 0.25 -4.938 -0.875 C-3 -1 -3 -1 0 0 Z " fill="#DDD4C7" transform="translate(247,238)"/>
<path d="M0 0 C0.99 1.32 1.98 2.64 3 4 C3.99 4.33 4.98 4.66 6 5 C6 6.65 6 8.3 6 10 C4.35 8.68 2.7 7.36 1 6 C0.67 7.32 0.34 8.64 0 10 C0 6.7 0 3.4 0 0 Z " fill="#FADFB9" transform="translate(143,226)"/>
<path d="M0 0 C1.65 0 3.3 0 5 0 C5 1.65 5 3.3 5 5 C3.35 5 1.7 5 0 5 C0 3.35 0 1.7 0 0 Z " fill="#214975" transform="translate(123,120)"/>
<path d="M0 0 C0.33 0.99 0.66 1.98 1 3 C-0.459 2.886 -1.917 2.758 -3.375 2.625 C-3.781 2.59 -3.781 2.59 -5.836 2.414 C-8 2 -8 2 -10 0 C-6.424 -1.238 -3.663 -0.749 0 0 Z " fill="#731716" transform="translate(149,66)"/>
<path d="M0 0 C0.402 0.01 0.402 0.01 2.438 0.062 C1.447 0.393 0.458 0.722 -0.562 1.062 C-0.562 2.053 -0.562 3.042 -0.562 4.062 C-3.532 4.062 -6.502 4.062 -9.562 4.062 C-9.232 3.403 -8.903 2.743 -8.562 2.062 C-6.904 1.689 -5.237 1.355 -3.562 1.062 C-2.562 0.062 -2.562 0.062 0 0 Z " fill="#EADACA" transform="translate(156.5625,250.9375)"/>
<path d="M0 0 C2.339 0.287 4.674 0.619 7 1 C7 1.33 7 1.66 7 2 C3.163 2.904 -0.375 3.106 -4.312 3.062 C-5.381 3.053 -6.45 3.044 -7.551 3.035 C-8.359 3.024 -9.167 3.012 -10 3 C-10 2.67 -10 2.34 -10 2 C-9.681 1.97 -9.681 1.97 -8.066 1.816 C-7.653 1.775 -7.653 1.775 -5.562 1.562 C-4.739 1.481 -3.915 1.4 -3.066 1.316 C-1 1 -1 1 0 0 Z " fill="#D3C4B4" transform="translate(186,252)"/>
<path d="M0 0 C0.66 0 1.32 0 2 0 C1.34 1.32 0.68 2.64 0 4 C-0.33 3.34 -0.66 2.68 -1 2 C-0.67 1.34 -0.34 0.68 0 0 Z M-3 4 C-2.34 4.33 -1.68 4.66 -1 5 C-0.375 7.062 -0.375 7.062 0 9 C-1.65 8.67 -3.3 8.34 -5 8 C-5.33 7.01 -5.66 6.02 -6 5 C-5.01 4.67 -4.02 4.34 -3 4 Z " fill="#BDB0A2" transform="translate(227,225)"/>
<path d="M0 0 C3 4 3 4 3 7 C2.34 7 1.68 7 1 7 C1.33 9.64 1.66 12.28 2 15 C1.34 15 0.68 15 0 15 C0 10.05 0 5.1 0 0 Z " fill="#FDEECE" transform="translate(158,221)"/>
<path d="M0 0 C0.99 0.33 1.98 0.66 3 1 C2.34 3.64 1.68 6.28 1 9 C0.67 9 0.34 9 0 9 C0 7.35 0 5.7 0 4 C-1.65 4 -3.3 4 -5 4 C-5 3.34 -5 2.68 -5 2 C-3.35 2 -1.7 2 0 2 C0 1.34 0 0.68 0 0 Z " fill="#A79580" transform="translate(145,190)"/>
<path d="M0 0 C2.64 0 5.28 0 8 0 C8 0.99 8 1.98 8 3 C5.36 3 2.72 3 0 3 C0 2.01 0 1.02 0 0 Z " fill="#571207" transform="translate(141,181)"/>
<path d="M0 0 C0.33 0 0.66 0 1 0 C1 3.63 1 7.26 1 11 C1.66 11 2.32 11 3 11 C2.67 11.66 2.34 12.32 2 13 C1.01 13.33 0.02 13.66 -1 14 C-1.083 9.167 -0.953 4.763 0 0 Z " fill="#DFDDD9" transform="translate(122,87)"/>
<path d="M0 0 C2.61 2.61 2.638 4.375 3 8 C2.562 10.375 2.562 10.375 2 12 C1.01 11.67 0.02 11.34 -1 11 C-0.67 7.37 -0.34 3.74 0 0 Z " fill="#0A417D" transform="translate(136,20)"/>
<path d="M0 0 C0.66 1.32 1.32 2.64 2 4 C-2.29 4 -6.58 4 -11 4 C-11 3.67 -11 3.34 -11 3 C-9.927 2.876 -8.855 2.752 -7.75 2.625 C-4.621 2.104 -2.665 1.599 0 0 Z " fill="#E3D4C5" transform="translate(87,249)"/>
<path d="M0 0 C0.99 0.99 1.98 1.98 3 3 C0.533 4.234 -1.268 4 -4 4 C-4.33 4.165 -4.33 4.165 -6 5 C-5.67 4.01 -5.34 3.02 -5 2 C-2.438 0.812 -2.438 0.812 0 0 Z M-7 5 C-6.67 5.66 -6.34 6.32 -6 7 C-6.66 7.66 -7.32 8.32 -8 9 C-7.67 7.68 -7.34 6.36 -7 5 Z " fill="#CDC2B6" transform="translate(62,244)"/>
<path d="M0 0 C2.31 0 4.62 0 7 0 C7.33 0.66 7.66 1.32 8 2 C8.66 1.34 9.32 0.68 10 0 C9.67 1.65 9.34 3.3 9 5 C8.01 5 7.02 5 6 5 C6 3.68 6 2.36 6 1 C3.69 1.33 1.38 1.66 -1 2 C-0.67 1.34 -0.34 0.68 0 0 Z " fill="#FAE5C9" transform="translate(177,228)"/>
<path d="M0 0 C2.25 -0.25 2.25 -0.25 5 0 C7.312 2 7.312 2 9 4 C8.01 3.835 8.01 3.835 3 3 C2.34 4.32 1.68 5.64 1 7 C0.67 4.69 0.34 2.38 0 0 Z " fill="#F1DEC9" transform="translate(85,224)"/>
<path d="M0 0 C2.31 0 4.62 0 7 0 C6.34 0.66 5.68 1.32 5 2 C5 2.99 5 3.98 5 5 C4.34 5.33 4.34 5.33 1 7 C1 6.01 1 5.02 1 4 C1.66 4 2.32 4 3 4 C2.01 2.68 1.02 1.36 0 0 Z " fill="#204058" transform="translate(106,189)"/>
<path d="M0 0 C5.75 -0.125 5.75 -0.125 8 1 C8 1.99 8 2.98 8 4 C5.69 3.67 3.38 3.34 1 3 C0.67 2.01 0.34 1.02 0 0 Z " fill="#A7241E" transform="translate(157,184)"/>
<path d="M0 0 C2.313 2.313 2.496 3.479 3.125 6.625 C3.209 7.034 3.209 7.034 3.633 9.102 C3.693 9.415 3.693 9.415 4 11 C3.01 11 2.02 11 1 11 C0.67 7.37 0.34 3.74 0 0 Z " fill="#83817C" transform="translate(139,154)"/>
<path d="M0 0 C0.144 0.309 0.144 0.309 0.875 1.875 C2 4 2 4 4 6 C4.697 7.317 5.37 8.649 6 10 C3.133 9.427 2.139 9.139 0 7 C-0.125 3.375 -0.125 3.375 0 0 Z " fill="#E0BB93" transform="translate(165,228)"/>
<path d="M0 0 C0.125 5.75 0.125 5.75 -1 8 C-1.66 8 -2.32 8 -3 8 C-3.33 5.69 -3.66 3.38 -4 1 C-2 0 -2 0 0 0 Z " fill="#C3AD9A" transform="translate(112,196)"/>
<path d="M0 0 C1.938 0.312 1.938 0.312 4 1 C4.33 1.99 4.66 2.98 5 4 C5.66 4.33 6.32 4.66 7 5 C4.36 4.67 1.72 4.34 -1 4 C-0.67 2.68 -0.34 1.36 0 0 Z " fill="#A67F5A" transform="translate(139,196)"/>
<path d="M0 0 C0.33 0.66 0.66 1.32 1 2 C2.65 2 4.3 2 6 2 C6.33 3.98 6.66 5.96 7 8 C6.34 8 5.68 8 5 8 C4.34 7.01 3.68 6.02 3 5 C2.01 4.67 1.02 4.34 0 4 C0 2.68 0 1.36 0 0 Z " fill="#4F3E34" transform="translate(139,192)"/>
<path d="M0 0 C0.99 0 1.98 0 3 0 C3.33 1.98 3.66 3.96 4 6 C1.562 5.625 1.562 5.625 -1 5 C-1.33 4.34 -1.66 3.68 -2 3 C-1.34 2.34 -0.68 1.68 0 1 C0 0.67 0 0.34 0 0 Z " fill="#0A293F" transform="translate(162,190)"/>
<path d="M0 0 C0.33 0.99 0.66 1.98 1 3 C0.01 3 -0.98 3 -2 3 C-2 3.66 -2 4.32 -2 5 C-3.65 5 -5.3 5 -7 5 C-7 4.01 -7 3.02 -7 2 C-4.69 1.34 -2.38 0.68 0 0 Z " fill="#7C6856" transform="translate(147,187)"/>
<path d="M0 0 C0.33 0 0.66 0 1 0 C1.361 4.449 1.361 4.449 -0.188 6.812 C-2.56 8.367 -4.22 8.225 -7 8 C-7.33 7.34 -7.66 6.68 -8 6 C-5.36 5.34 -2.72 4.68 0 4 C0 2.68 0 1.36 0 0 Z " fill="#9F9D99" transform="translate(141,80)"/>
<path d="M0 0 C0.66 0.33 1.32 0.66 2 1 C0.35 3.31 -1.3 5.62 -3 8 C-3.66 7.34 -4.32 6.68 -5 6 C-2.25 1.125 -2.25 1.125 0 0 Z " fill="#DAD2C8" transform="translate(52,239)"/>
<path d="M0 0 C2.152 3.228 2.201 4.284 2 8 C-1.161 6.63 -1.993 6.011 -4 3 C-3.01 3 -2.02 3 -1 3 C-0.67 2.01 -0.34 1.02 0 0 Z " fill="#2C4353" transform="translate(167,193)"/>
<path d="M0 0 C2.5 2.174 3.436 3.73 4 7 C2.35 6.67 0.7 6.34 -1 6 C-0.67 4.02 -0.34 2.04 0 0 Z " fill="#1E2E40" transform="translate(151,128)"/>
<path d="M0 0 C0.33 0.99 0.66 1.98 1 3 C0.67 3.165 0.67 3.165 -1 4 C-1.66 3.67 -2.32 3.34 -3 3 C-2.67 4.98 -2.34 6.96 -2 9 C-3.65 7.68 -5.3 6.36 -7 5 C-6.01 5 -5.02 5 -4 5 C-4 4.01 -4 3.02 -4 2 C-2.68 1.34 -1.36 0.68 0 0 Z " fill="#FCE8CE" transform="translate(186,238)"/>
<path d="M0 0 C2.97 0 5.94 0 9 0 C8.34 2.31 7.68 4.62 7 7 C6.67 7 6.34 7 6 7 C5.67 5.35 5.34 3.7 5 2 C3.35 1.67 1.7 1.34 0 1 C0 0.67 0 0.34 0 0 Z " fill="#F2EEE9" transform="translate(123,118)"/>
<path d="M0 0 C2.062 0.438 2.062 0.438 4 1 C3.34 1.66 2.68 2.32 2 3 C1.602 4.988 1.262 6.989 1 9 C-1.148 5.778 -1.294 4.722 -1 1 C-0.67 0.67 -0.34 0.34 0 0 Z " fill="#D6D2CD" transform="translate(135,88)"/>
<path d="M0 0 C1.32 0 2.64 0 4 0 C4 1.65 4 3.3 4 5 C2.68 5 1.36 5 0 5 C0 3.35 0 1.7 0 0 Z " fill="#11264F" transform="translate(137,58)"/>
<path d="M0 0 C1.042 3.386 1.23 6.467 1 10 C0.34 10.66 -0.32 11.32 -1 12 C-2.117 7.31 -1.806 4.462 0 0 Z " fill="#E6DED3" transform="translate(240,214)"/>
<path d="M0 0 C0.33 0 0.66 0 1 0 C1 2.64 1 5.28 1 8 C-0.32 7.67 -1.64 7.34 -3 7 C-2.01 4.69 -1.02 2.38 0 0 Z " fill="#C67A1A" transform="translate(139,201)"/>
<path d="M0 0 C0.825 0.165 0.825 0.165 5 1 C5 4 5 4 4 7 C3.34 6.67 2.68 6.34 2 6 C2 4.35 2 2.7 2 1 C1.34 0.67 0.68 0.34 0 0 Z " fill="#D8A572" transform="translate(153,191)"/>
<path d="M0 0 C0.66 0.66 1.32 1.32 2 2 C4.125 2.625 4.125 2.625 6 3 C6 3.66 6 4.32 6 5 C4.02 5.33 2.04 5.66 0 6 C0 4.02 0 2.04 0 0 Z " fill="#33669D" transform="translate(122,59)"/>
<path d="M0 0 C0.33 0.66 0.66 1.32 1 2 C2.32 2 3.64 2 5 2 C5 2.66 5 3.32 5 4 C2.36 4 -0.28 4 -3 4 C-2.01 2.68 -1.02 1.36 0 0 Z " fill="#F6E9DA" transform="translate(114,251)"/>
<path d="M0 0 C0.66 0 1.32 0 2 0 C2.667 2 3.333 4 4 6 C2.68 6 1.36 6 0 6 C-0.382 4.344 -0.714 2.675 -1 1 C-0.67 0.67 -0.34 0.34 0 0 Z " fill="#2F3435" transform="translate(133,78)"/>
<path d="M0 0 C2.64 0.66 5.28 1.32 8 2 C8 2.33 8 2.66 8 3 C6.866 3.124 5.731 3.248 4.562 3.375 C3.975 3.478 3.975 3.478 1 4 C0.67 4.66 0.34 5.32 0 6 C0 4.02 0 2.04 0 0 Z " fill="#EFD7B9" transform="translate(87,226)"/>
<path d="M0 0 C2.097 2.36 2.969 3.546 3.188 6.75 C3.126 7.493 3.064 8.235 3 9 C0.117 6.619 -0.61 4.701 -1 1 C-0.67 0.67 -0.34 0.34 0 0 Z " fill="#153759" transform="translate(155,135)"/>
<path d="M0 0 C0.981 3.053 0.981 4.947 0 8 C-0.66 8 -1.32 8 -2 8 C-2.125 5.125 -2.125 5.125 -2 2 C-1.34 1.34 -0.68 0.68 0 0 Z " fill="#CBC7C2" transform="translate(138,89)"/>
</svg>
