<?xml version="1.0" encoding="UTF-8"?>
<!-- Generator: visioncortex VTracer 0.6.12 -->
<svg version="1.1" xmlns="http://www.w3.org/2000/svg" width="210" height="275">
<path d="M0 0 C69.3 0 138.6 0 210 0 C210 90.75 210 181.5 210 275 C140.7 275 71.4 275 0 275 C0 184.25 0 93.5 0 0 Z " fill="#FDF6E1" transform="translate(0,0)"/>
<path d="M0 0 C17.266 13.322 26.503 32.951 29.596 54.264 C33.022 82.715 29.915 113.7 12.184 137.125 C1.911 149.18 -12.393 158.168 -28.443 159.55 C-41.296 160.123 -53.034 160.314 -64.688 154.312 C-65.128 154.095 -65.128 154.095 -67.359 152.996 C-84.783 143.5 -94.643 127.62 -100.688 109.312 C-108.602 81.069 -107.453 47.094 -93 21.062 C-86.925 10.685 -78.983 2.496 -68.688 -3.688 C-67.909 -4.159 -67.13 -4.631 -66.328 -5.117 C-45.52 -16.609 -19.14 -13.222 0 0 Z " fill="#FB4846" transform="translate(143.6875,71.6875)"/>
<path d="M0 0 C5.56 2.566 8.59 6.503 11 12 C14.143 22.135 14.63 32.472 15 43 C16.929 35.461 17.117 28.613 16.625 20.875 C16.568 19.823 16.512 18.771 16.453 17.688 C16.313 15.124 16.162 12.562 16 10 C17.32 9.67 18.64 9.34 20 9 C20 9.66 20 10.32 20 11 C20.66 11.33 21.32 11.66 22 12 C22 12.99 22 13.98 22 15 C22.66 15.33 23.32 15.66 24 16 C23.67 16.66 23.34 17.32 23 18 C23.99 18.33 24.98 18.66 26 19 C25.34 19 24.68 19 24 19 C24.165 19.66 24.165 19.66 25 23 C24.01 23 23.02 23 22 23 C22 23.66 22 24.32 22 25 C22.66 25.33 23.32 25.66 24 26 C23.67 26.66 23.34 27.32 23 28 C23.99 27.67 24.98 27.34 26 27 C26 27.66 26 28.32 26 29 C26.66 29 27.32 29 28 29 C28 29.66 28 30.32 28 31 C28.66 31 29.32 31 30 31 C30 31.66 30 32.32 30 33 C29.01 33 28.02 33 27 33 C27 33.66 27 34.32 27 35 C27.825 34.835 27.825 34.835 32 34 C31.34 34.66 30.68 35.32 30 36 C33 36 33 36 36 35 C35.01 34.01 34.02 33.02 33 32 C34.32 31.67 35.64 31.34 37 31 C36.34 30.67 35.68 30.34 35 30 C35.474 25.733 37.997 23.857 41 21 C41.33 20.505 41.33 20.505 43 18 C46.625 17.312 46.625 17.312 50 17 C50 17.66 50 18.32 50 19 C50.33 19.33 50.33 19.33 52 21 C51.01 21.66 50.02 22.32 49 23 C49.99 23 50.98 23 52 23 C52 23.66 52 24.32 52 25 C52.66 25.33 53.32 25.66 54 26 C53.67 26.495 53.67 26.495 52 29 C51.835 29.495 51.835 29.495 51 32 C50.505 32.165 50.505 32.165 48 33 C49.32 33 50.64 33 52 33 C53.125 36.75 53.125 36.75 52 39 C53.65 38.01 55.3 37.02 57 36 C59.76 40.852 59.69 45.741 58.547 51.141 C58.082 52.776 57.548 54.391 57 56 C56.01 56 55.02 56 54 56 C54.023 56.603 54.046 57.207 54.07 57.828 C54.088 58.627 54.106 59.427 54.125 60.25 C54.148 61.039 54.171 61.828 54.195 62.641 C53.981 65.23 53.257 66.752 52 69 C51.632 70.324 51.288 71.656 51 73 C50.34 73 49.68 73 49 73 C48.938 73.392 48.938 73.392 48.625 75.375 C48 78 48 78 46 80 C46 80.99 46 81.98 46 83 C44.691 84.357 43.351 85.685 42 87 C40.704 88.844 39.462 90.712 38.246 92.609 C38.04 92.839 38.04 92.839 37 94 C36.01 94 35.02 94 34 94 C32.638 95.981 31.304 97.981 30 100 C29.34 100 28.68 100 28 100 C28 100.66 28 101.32 28 102 C27.01 101.67 26.02 101.34 25 101 C24.34 101.66 23.68 102.32 23 103 C22.01 102.34 21.02 101.68 20 101 C20 100.34 20 99.68 20 99 C19.67 98.01 19.34 97.02 19 96 C19.99 96 20.98 96 22 96 C22 95.34 22 94.68 22 94 C21.67 93.835 21.67 93.835 20 93 C20.33 92.34 20.66 91.68 21 91 C19.68 90.67 18.36 90.34 17 90 C16.856 89.361 16.711 88.721 16.562 88.062 C16 86 16 86 15 85 C14.67 84.34 14.34 83.68 14 83 C13.34 83 12.68 83 12 83 C11.67 84.65 11.34 86.3 11 88 C10.67 87.34 10.34 86.68 10 86 C7.36 86.99 4.72 87.98 2 89 C2 89.66 2 90.32 2 91 C1.34 91 0.68 91 0 91 C-0.33 90.01 -0.66 89.02 -1 88 C-1.66 88 -2.32 88 -3 88 C-4 87 -4 87 -5 85 C-7.066 84.586 -7.066 84.586 -9.562 84.375 C-10.389 84.3 -11.215 84.225 -12.066 84.148 C-12.385 84.124 -12.385 84.124 -14 84 C-13.835 83.67 -13.835 83.67 -13 82 C-13.66 81.67 -14.32 81.34 -15 81 C-14.67 80.01 -14.34 79.02 -14 78 C-13.175 77.835 -13.175 77.835 -9 77 C-9.907 76.484 -10.815 75.969 -11.75 75.438 C-17.119 71.854 -19.356 66.07 -21 60 C-22.164 52.915 -22.221 45.976 -22.25 38.812 C-22.271 37.561 -22.291 36.31 -22.312 35.021 C-22.366 22.168 -20.505 11.228 -11.75 1.5 C-7.781 -0.665 -4.421 -0.751 0 0 Z M44 80 C43.67 80.66 43.34 81.32 43 82 C43.66 82 44.32 82 45 82 C44.67 81.34 44.34 80.68 44 80 Z " fill="#FB4A49" transform="translate(111,108)"/>
<path d="M0 0 C7.199 0.472 12.436 6.886 17 12 C20.443 16.402 23.267 21.135 26 26 C26.418 26.733 26.835 27.467 27.266 28.223 C29.842 33.365 31.194 38.97 32.688 44.5 C32.902 45.296 33.117 46.091 33.339 46.911 C40.053 72.984 37.562 105.6 24.25 129.375 C14.939 145.114 1.743 154.786 -15.605 160.105 C-29.546 163.438 -46.235 162.574 -59 156 C-59.882 155.566 -60.763 155.131 -61.672 154.684 C-71.051 149.571 -79.305 142.033 -85 133 C-84.835 132.67 -84.835 132.67 -84 131 C-80.403 132.199 -79.791 133.346 -77.625 136.375 C-74.578 140.416 -72.054 143.237 -67 144.5 C-65 145 -65 145 -62.625 146.438 C-56.882 149.856 -51.393 150.37 -44.875 150.625 C-44.476 150.644 -44.476 150.644 -42.457 150.742 C-38.964 150.905 -35.499 151 -32 151 C-30.948 151.206 -29.896 151.412 -28.812 151.625 C-22.487 152.247 -16.773 150.566 -11 148 C-10.618 147.866 -10.618 147.866 -8.688 147.188 C-3.6 144.939 0.811 142.189 4.75 138.25 C6.958 136.042 7.959 135.338 11 135 C11 134.34 11 133.68 11 133 C11.66 133 12.32 133 13 133 C13.66 131.68 14.32 130.36 15 129 C15.99 129 16.98 129 18 129 C19.075 126.348 20.095 123.716 21 121 C21.66 121 22.32 121 23 121 C23.062 120.639 23.062 120.639 23.375 118.812 C24 116 24 116 25 113.562 C26.118 110.699 26.524 108.036 27 105 C27.484 103.066 27.967 101.132 28.457 99.199 C31.97 84.972 31.97 84.972 31 78 C30.34 77.01 29.68 76.02 29 75 C28.34 75.33 28.34 75.33 25 77 C25 76.34 25 75.68 25 75 C24.34 74.34 23.68 73.68 23 73 C23.33 72.67 23.66 72.34 24 72 C23.34 71.835 23.34 71.835 20 71 C20.639 70.752 21.279 70.505 21.938 70.25 C24 69 24 69 24.75 67.125 C25 65 25 65 25 61 C24.381 61.206 23.762 61.412 23.125 61.625 C22.424 61.749 21.722 61.873 21 62 C20.34 61.34 19.68 60.68 19 60 C20.65 59.67 22.3 59.34 24 59 C23.505 58.67 23.505 58.67 21 57 C21.66 57 22.32 57 23 57 C23 56.34 23 55.68 23 55 C21.845 55.165 21.845 55.165 16 56 C15.773 56.743 15.546 57.485 15.312 58.25 C13.756 61.511 11.915 62.929 9 65 C9.33 66.98 9.66 68.96 10 71 C9.01 71 8.02 71 7 71 C7.495 71.33 7.495 71.33 10 73 C9 75 9 75 7.188 75.75 C4.502 76.057 3.275 75.381 1 74 C1.33 73.67 1.66 73.34 2 73 C1.34 73 0.68 73 0 73 C0 72.34 0 71.68 0 71 C0.99 71 1.98 71 3 71 C3 70.34 3 69.68 3 69 C2.34 69 1.68 69 1 69 C1 68.34 1 67.68 1 67 C-0.65 66.67 -2.3 66.34 -4 66 C-4.33 66.66 -4.66 67.32 -5 68 C-4.814 67.402 -4.629 66.804 -4.438 66.188 C-4 64 -4 64 -5 61 C-4.01 61 -3.02 61 -2 61 C-2.33 60.175 -2.33 60.175 -4 56 C-4.165 56.33 -4.165 56.33 -5 58 C-4.876 57.732 -4.876 57.732 -4.25 56.375 C-3.864 52.712 -5.868 50.842 -8 48 C-8.33 48.165 -8.33 48.165 -10 49 C-9.959 49.65 -9.918 50.299 -9.876 50.969 C-9.696 53.958 -9.536 56.947 -9.375 59.938 C-9.311 60.959 -9.246 61.981 -9.18 63.033 C-8.892 68.656 -9.029 73.605 -10.488 79.059 C-11.266 82.008 -11.614 84.977 -12 88 C-12.33 88 -12.66 88 -13 88 C-13.015 87.346 -13.029 86.693 -13.044 86.019 C-13.91 51.229 -13.91 51.229 -22 42 C-25.598 38.802 -29.113 38.392 -33.793 38.609 C-37.608 39.285 -39.816 40.942 -42 44 C-47.559 54.772 -48.182 64.32 -48.188 76.25 C-48.194 76.886 -48.194 76.886 -48.225 80.105 C-48.241 90.446 -47.681 101.01 -42 110 C-38.938 112.438 -38.938 112.438 -36 114 C-35.01 114.66 -34.02 115.32 -33 116 C-38.23 115.598 -40.548 114.945 -44 111 C-44.99 110.67 -45.98 110.34 -47 110 C-47 109.34 -47 108.68 -47 108 C-47.66 108 -48.32 108 -49 108 C-51 105 -51 105 -51 102 C-52.32 101.67 -53.64 101.34 -55 101 C-54.34 101 -53.68 101 -53 101 C-53.33 100.01 -53.66 99.02 -54 98 C-53.67 97.34 -53.34 96.68 -53 96 C-53.66 95.67 -54.32 95.34 -55 95 C-55.66 94.01 -56.32 93.02 -57 92 C-56.34 92 -55.68 92 -55 92 C-55 89.03 -55 86.06 -55 83 C-55.66 83 -56.32 83 -57 83 C-57.902 79.916 -58.135 77.147 -58.125 73.938 C-58.126 73.509 -58.126 73.509 -58.133 71.34 C-58 69 -58 69 -57 66 C-57.174 65.366 -57.348 64.732 -57.527 64.078 C-58.123 61.46 -57.585 60.203 -56.562 57.75 C-56.419 57.397 -56.419 57.397 -55.691 55.609 C-55.463 55.078 -55.235 54.547 -55 54 C-55.66 53.67 -56.32 53.34 -57 53 C-56.505 52.835 -56.505 52.835 -54 52 C-54.33 50.68 -54.66 49.36 -55 48 C-55.66 48 -56.32 48 -57 48 C-57.33 47.34 -57.66 46.68 -58 46 C-58.99 45.34 -59.98 44.68 -61 44 C-59.35 44 -57.7 44 -56 44 C-55.732 43.361 -55.464 42.721 -55.188 42.062 C-54 40 -54 40 -51 39 C-51 38.34 -51 37.68 -51 37 C-51.33 36.835 -51.33 36.835 -53 36 C-51.35 35.34 -49.7 34.68 -48 34 C-48.33 33.835 -48.33 33.835 -50 33 C-49.67 32.67 -49.34 32.34 -49 32 C-51.491 31.313 -53.379 31 -56 31 C-54.35 29.02 -52.7 27.04 -51 25 C-49.68 25.33 -48.36 25.66 -47 26 C-47 26.66 -47 27.32 -47 28 C-47.33 28.165 -47.33 28.165 -49 29 C-47.68 29.66 -46.36 30.32 -45 31 C-45 29.35 -45 27.7 -45 26 C-44.693 25.959 -44.693 25.959 -43.141 25.754 C-41 25 -41 25 -39.797 23.152 C-39.451 22.421 -39.106 21.691 -38.75 20.938 C-36.585 17.186 -36.585 17.186 -34.008 16.367 C-30.968 16.289 -28.595 16.628 -26 18.25 C-24.556 20.776 -25 23.167 -25 26 C-23.02 25.34 -21.04 24.68 -19 24 C-19.33 24 -19.66 24 -20 24 C-21.336 23.676 -22.669 23.343 -24 23 C-21.673 19.975 -20.319 18.275 -16.512 17.48 C-14.746 17.33 -12.977 17.215 -11.207 17.141 C-9 17 -9 17 -7 16 C-7.33 15.67 -7.33 15.67 -9 14 C-3.585 11.785 -3.585 11.785 -0.625 12.875 C-0.089 13.246 0.447 13.618 1 14 C1.33 13.34 1.66 12.68 2 12 C3.32 12.33 4.64 12.66 6 13 C6 12.34 6 11.68 6 11 C8 9.375 8 9.375 10 8 C8.543 7.019 7.084 6.041 5.625 5.062 C4.813 4.517 4.001 3.972 3.164 3.41 C1 2 1 2 -1 1 C-0.67 0.67 -0.34 0.34 0 0 Z " fill="#FA4747" transform="translate(138,70)"/>
<path d="M0 0 C69.3 0 138.6 0 210 0 C210 90.75 210 181.5 210 275 C140.7 275 71.4 275 0 275 C0 184.25 0 93.5 0 0 Z M2 9 C1.903 10.374 1.874 11.753 1.874 13.131 C1.872 14.027 1.869 14.923 1.866 15.846 C1.868 16.842 1.871 17.838 1.873 18.864 C1.871 19.912 1.87 20.961 1.868 22.042 C1.864 25.586 1.867 29.13 1.871 32.674 C1.869 35.202 1.867 37.731 1.865 40.26 C1.861 46.434 1.862 52.607 1.865 58.781 C1.867 63.796 1.867 68.812 1.866 73.828 C1.866 74.54 1.866 75.253 1.866 75.987 C1.865 77.434 1.865 78.882 1.865 80.329 C1.862 93.917 1.865 107.505 1.871 121.094 C1.875 132.763 1.874 144.432 1.87 156.102 C1.864 169.638 1.862 183.175 1.865 196.711 C1.866 198.153 1.866 199.596 1.866 201.038 C1.866 201.748 1.866 202.458 1.867 203.189 C1.868 208.201 1.866 213.212 1.864 218.224 C1.861 224.965 1.863 231.706 1.869 238.447 C1.87 240.928 1.87 243.409 1.867 245.89 C1.865 249.263 1.868 252.636 1.873 256.01 C1.871 257.003 1.869 257.996 1.866 259.02 C1.869 259.919 1.871 260.817 1.874 261.743 C1.874 262.522 1.874 263.302 1.875 264.105 C2 266 2 266 3 268 C70.98 268 138.96 268 209 268 C209.04 203.044 209.04 203.044 209.049 175.982 C209.051 169.788 209.053 163.593 209.055 157.398 C209.055 156.622 209.055 155.845 209.056 155.045 C209.06 142.493 209.068 129.941 209.077 117.39 C209.086 104.518 209.092 91.646 209.094 78.774 C209.095 70.824 209.1 62.875 209.108 54.926 C209.114 48.841 209.114 42.756 209.113 36.671 C209.113 34.167 209.115 31.663 209.119 29.159 C209.124 25.757 209.123 22.355 209.12 18.953 C209.123 17.948 209.126 16.943 209.129 15.908 C209.127 15.004 209.125 14.1 209.123 13.168 C209.123 12.775 209.123 12.775 209.124 10.785 C209 9 209 9 208 8 C205.359 7.9 202.745 7.866 200.104 7.873 C199.267 7.871 198.429 7.87 197.567 7.868 C194.739 7.864 191.912 7.867 189.084 7.871 C187.066 7.869 185.048 7.867 183.029 7.865 C177.532 7.861 172.034 7.863 166.536 7.866 C160.796 7.868 155.057 7.866 149.317 7.864 C139.676 7.862 130.035 7.865 120.394 7.87 C109.23 7.875 98.067 7.873 86.903 7.868 C77.337 7.863 67.771 7.863 58.205 7.865 C52.484 7.867 46.762 7.867 41.04 7.864 C35.663 7.861 30.285 7.863 24.907 7.869 C22.927 7.87 20.948 7.87 18.968 7.867 C16.277 7.865 13.587 7.868 10.896 7.873 C10.102 7.871 9.308 7.869 8.49 7.866 C3.114 7.886 3.114 7.886 2 9 Z " fill="#FDFDFD" transform="translate(0,0)"/>
<path d="M0 0 C2 2 2 2 2 3 C3.474 4.22 4.98 5.401 6.5 6.562 C7.335 7.203 8.171 7.844 9.031 8.504 C9.681 8.998 10.331 9.491 11 10 C9.625 11.5 9.625 11.5 8 13 C7.34 13 6.68 13 6 13 C6 13.66 6 14.32 6 15 C5.361 15.124 4.721 15.248 4.062 15.375 C3.382 15.581 2.701 15.787 2 16 C1.67 16.66 1.34 17.32 1 18 C-0.65 17.01 -2.3 16.02 -4 15 C-4.99 15.66 -5.98 16.32 -7 17 C-6.835 17.33 -6.835 17.33 -6 19 C-6.748 19.133 -7.495 19.266 -8.266 19.402 C-9.25 19.579 -10.235 19.756 -11.25 19.938 C-12.225 20.112 -13.199 20.286 -14.203 20.465 C-15.126 20.641 -16.049 20.818 -17 21 C-17.737 21.125 -18.475 21.25 -19.234 21.379 C-21 22 -21 22 -23 25 C-22.422 24.794 -21.845 24.588 -21.25 24.375 C-19 24 -19 24 -15 26 C-18.3 26.99 -21.6 27.98 -25 29 C-27 25 -27 25 -26.625 22.75 C-26.419 22.172 -26.213 21.595 -26 21 C-29.345 20.164 -31.751 19.701 -35 21 C-36.75 22.563 -36.75 22.563 -38 24 C-37.67 24.66 -37.34 25.32 -37 26 C-37.99 26.33 -38.98 26.66 -40 27 C-40.66 27.66 -41.32 28.32 -42 29 C-42.99 28.67 -43.98 28.34 -45 28 C-45 28.66 -45 29.32 -45 30 C-44.67 30.165 -44.67 30.165 -43 31 C-43.66 31 -44.32 31 -45 31 C-45 31.66 -45 32.32 -45 33 C-46.65 32.34 -48.3 31.68 -50 31 C-49.835 30.67 -49.835 30.67 -49 29 C-51 29 -51 29 -53.125 31 C-53.744 31.66 -54.362 32.32 -55 33 C-54.402 32.773 -53.804 32.546 -53.188 32.312 C-52.827 32.261 -52.827 32.261 -51 32 C-49.25 33.438 -49.25 33.438 -48 35 C-48.33 35.99 -48.66 36.98 -49 38 C-49.99 38 -50.98 38 -52 38 C-51.67 38.99 -51.34 39.98 -51 41 C-51.33 41.165 -51.33 41.165 -53 42 C-53.722 43.644 -54.394 45.311 -55 47 C-55.99 47 -56.98 47 -58 47 C-58 47.99 -58 48.98 -58 50 C-58.99 49.67 -59.98 49.34 -61 49 C-62.125 53.75 -62.125 53.75 -61 56 C-61.99 56 -62.98 56 -64 56 C-64.165 56.495 -64.165 56.495 -65 59 C-65.66 59 -66.32 59 -67 59 C-67 59.66 -67 60.32 -67 61 C-68.32 61 -69.64 61 -71 61 C-71 61.66 -71 62.32 -71 63 C-71.66 63 -72.32 63 -73 63 C-72.67 63.99 -72.34 64.98 -72 66 C-73.32 66 -74.64 66 -76 66 C-76 65.34 -76 64.68 -76 64 C-75.34 64 -74.68 64 -74 64 C-74 63.34 -74 62.68 -74 62 C-74.495 61.835 -74.495 61.835 -77 61 C-77.688 58.937 -77.688 58.937 -78 57 C-78.66 57 -79.32 57 -80 57 C-80.33 57.66 -80.66 58.32 -81 59 C-81 57.68 -81 56.36 -81 55 C-81.144 55.371 -81.144 55.371 -81.875 57.25 C-82.823 59.567 -83.848 61.779 -85 64 C-85.66 64 -86.32 64 -87 64 C-86.67 65.32 -86.34 66.64 -86 68 C-85.175 67.835 -85.175 67.835 -81 67 C-81 67.66 -81 68.32 -81 69 C-81.99 69.165 -81.99 69.165 -87 70 C-87.33 70.99 -87.66 71.98 -88 73 C-88.495 73.33 -88.495 73.33 -91 75 C-91.688 77.625 -91.688 77.625 -92 80 C-91.01 80 -90.02 80 -89 80 C-89 80.66 -89 81.32 -89 82 C-89.99 82 -90.98 82 -92 82 C-92 82.66 -92 83.32 -92 84 C-91.01 84.33 -90.02 84.66 -89 85 C-89.351 85.928 -89.701 86.856 -90.062 87.812 C-91 91 -91 91 -90 94 C-90.33 94.33 -90.33 94.33 -92 96 C-94.517 90.894 -95.422 86.822 -95.293 81.098 C-95.289 80.375 -95.284 79.653 -95.28 78.908 C-95.263 76.626 -95.226 74.344 -95.188 72.062 C-95.172 70.505 -95.159 68.947 -95.146 67.389 C-95.114 63.592 -95.062 59.796 -95 56 C-95.66 56 -96.32 56 -97 56 C-96.014 37.266 -86.553 19.668 -73 7 C-69.811 4.382 -66.536 2.124 -63 0 C-62.221 -0.472 -61.443 -0.944 -60.641 -1.43 C-41.395 -12.059 -19.061 -9.406 0 0 Z " fill="#FB4C4C" transform="translate(138,68)"/>
<path d="M0 0 C5.576 2.574 8.563 6.504 11 12 C16.943 29.401 15.766 51.622 9.207 68.645 C6.908 73.13 3.796 75.401 -1 77 C-5.625 77.379 -8.05 77.457 -12.25 75.438 C-18.925 69.521 -20.929 61.637 -22 53 C-22.233 48.272 -22.231 43.546 -22.25 38.812 C-22.271 37.561 -22.291 36.31 -22.312 35.021 C-22.366 22.168 -20.505 11.228 -11.75 1.5 C-7.781 -0.665 -4.421 -0.751 0 0 Z " fill="#FCEDD6" transform="translate(111,108)"/>
<path d="M0 0 C0.99 0.33 1.98 0.66 3 1 C4.069 3.303 5.072 5.637 6 8 C6.165 8.165 6.165 8.165 7 9 C7.041 11 7.043 13 7 15 C7.66 15 8.32 15 9 15 C9.99 18.63 10.98 22.26 12 26 C12.33 26 12.66 26 13 26 C14.835 33.11 15.156 39.763 14.973 47.094 C15 50 15 50 16 52 C16.085 53.705 16.107 55.414 16.098 57.121 C16.096 57.63 16.096 57.63 16.088 60.205 C16.084 60.738 16.084 60.738 16.062 63.438 C16.058 64.5 16.053 65.563 16.049 66.658 C16.04 68.632 16.029 70.606 16.016 72.58 C15.983 77.539 15.983 77.539 16.07 79.945 C16.259 87.454 14.961 94.09 12 101 C11.938 101.32 11.938 101.32 11.625 102.938 C11 105 11 105 9 107.875 C7 111 7 111 6.75 113.875 C5.705 118.227 3.136 120.117 -0.07 123.117 C-2.224 125.218 -3.574 127.361 -5 130 C-7.536 133.6 -8.743 135.124 -13 136 C-15.02 137.302 -17.018 138.64 -19 140 C-20.222 140.72 -21.451 141.429 -22.688 142.125 C-26 144 -26 144 -29 146 C-29 145.34 -29 144.68 -29 144 C-29.316 144.175 -29.316 144.175 -30.914 145.059 C-41.154 150.267 -51.76 150.994 -63 149 C-64.352 148.371 -65.691 147.713 -67 147 C-67 146.34 -67 145.68 -67 145 C-67.784 145.186 -68.567 145.371 -69.375 145.562 C-72 146 -72 146 -74 145 C-74 144.34 -74 143.68 -74 143 C-75.32 143 -76.64 143 -78 143 C-78 142.34 -78 141.68 -78 141 C-78.56 140.723 -78.56 140.723 -81.395 139.32 C-82.867 138.589 -84.34 137.857 -85.812 137.125 C-86.55 136.76 -87.288 136.395 -88.049 136.02 C-88.405 135.842 -88.405 135.842 -90.207 134.945 C-90.534 134.783 -90.534 134.783 -92.191 133.961 C-95.294 132.312 -97.442 130.627 -99.562 127.875 C-100.367 126.926 -101.171 125.978 -102 125 C-102.66 125 -103.32 125 -104 125 C-104.217 124.557 -104.217 124.557 -105.312 122.312 C-106.768 119.456 -108.316 116.726 -110 114 C-109.01 114 -108.02 114 -107 114 C-105.309 115.723 -105.309 115.723 -103.438 118.062 C-95.1 127.717 -81.554 136.184 -68.505 137.193 C-46.147 137.836 -29.146 135.255 -12.312 119.395 C6.483 99.932 9.379 71.874 9.148 46.148 C8.89 32.094 6.121 17.98 0.277 5.121 C0.067 4.606 0.067 4.606 -1 2 C-0.67 1.34 -0.34 0.68 0 0 Z " fill="#EAD4AF" transform="translate(164,93)"/>
<path d="M0 0 C0.66 0 1.32 0 2 0 C7.483 27.365 5.242 59.674 -9.84 83.812 C-19.517 98.092 -32.832 107.573 -49.668 111.599 C-63.376 113.958 -78.544 113.415 -91 107 C-91.882 106.566 -92.763 106.131 -93.672 105.684 C-103.051 100.571 -111.305 93.033 -117 84 C-116.835 83.67 -116.835 83.67 -116 82 C-112.403 83.199 -111.791 84.346 -109.625 87.375 C-106.578 91.416 -104.054 94.237 -99 95.5 C-97 96 -97 96 -94.625 97.438 C-88.882 100.856 -83.393 101.37 -76.875 101.625 C-76.077 101.664 -75.279 101.702 -74.457 101.742 C-70.964 101.905 -67.499 102 -64 102 C-62.948 102.206 -61.896 102.412 -60.812 102.625 C-54.487 103.247 -48.773 101.566 -43 99 C-42.618 98.866 -42.618 98.866 -40.688 98.188 C-35.6 95.939 -31.189 93.189 -27.25 89.25 C-25.042 87.042 -24.041 86.338 -21 86 C-21 85.34 -21 84.68 -21 84 C-20.34 84 -19.68 84 -19 84 C-18.67 83.34 -18.67 83.34 -17 80 C-16.01 80 -15.02 80 -14 80 C-12.925 77.348 -11.905 74.716 -11 72 C-10.34 72 -9.68 72 -9 72 C-8.938 71.639 -8.938 71.639 -8.625 69.812 C-8 67 -8 67 -7 64.562 C-5.882 61.699 -5.476 59.036 -5 56 C-4.516 54.066 -4.033 52.132 -3.543 50.199 C0.801 32.603 0.801 32.603 -2 27 C-1.835 26.505 -1.835 26.505 -1 24 C-1.33 23.67 -1.33 23.67 -3 22 C-2.67 21.34 -2.34 20.68 -2 20 C-1.974 16.642 -2.028 13.298 -2.127 9.941 C-2.187 6.115 -2.163 3.241 0 0 Z " fill="#DD271F" transform="translate(170,119)"/>
<path d="M0 0 C0.33 0.66 0.66 1.32 1 2 C0.34 1.67 -0.32 1.34 -1 1 C-0.67 0.67 -0.34 0.34 0 0 Z M10 -24 C10.66 -24 11.32 -24 12 -24 C13.605 -19.476 12.33 -16.426 10.758 -12.129 C10 -10 10 -10 9.5 -7.438 C8.752 -3.792 7.351 -0.466 6 3 C5.34 3 4.68 3 4 3 C3.938 3.289 3.938 3.289 3.625 4.75 C2.972 7.099 2.306 8.937 1 11 C-1.062 12.125 -1.062 12.125 -3 13 C-3.165 13.33 -3.165 13.33 -4 15 C-4.66 15 -5.32 15 -6 15 C-6 15.66 -6 16.32 -6 17 C-8.639 18.783 -10.972 19.991 -14 21 C-14.294 21.614 -14.588 22.227 -14.891 22.859 C-17.072 27.068 -21.833 29.05 -26 31 C-29.625 31.375 -29.625 31.375 -32 31 C-32.165 31.33 -32.165 31.33 -33 33 C-37.516 34.512 -42.243 35.28 -47 35 C-47.99 35 -48.98 35 -50 35 C-50.99 34.67 -51.98 34.34 -53 34 C-55.052 33.907 -57.105 33.818 -59.158 33.76 C-76.771 33.229 -76.771 33.229 -83 27 C-83.722 26.917 -84.444 26.835 -85.188 26.75 C-90.532 25.325 -95.156 20.685 -98 16 C-98 15.34 -98 14.68 -98 14 C-98.605 13.929 -99.209 13.858 -99.832 13.785 C-103.568 12.432 -104.353 9.151 -105.961 5.723 C-107.354 2.073 -107.784 -1.111 -108 -5 C-104.246 -3.749 -103.759 -2.435 -102 1 C-102 1.66 -102 2.32 -102 3 C-101.34 3.33 -100.68 3.66 -100 4 C-97 8.5 -97 8.5 -97 11 C-95.35 11 -93.7 11 -92 11 C-92 11.99 -92 12.98 -92 14 C-89.519 15.562 -88.391 16.057 -85.438 15.625 C-84.633 15.419 -83.829 15.213 -83 15 C-82.01 15 -81.02 15 -80 15 C-80.99 17.31 -81.98 19.62 -83 22 C-82.278 21.856 -81.556 21.711 -80.812 21.562 C-78.938 21.188 -77.062 20.812 -75.188 20.438 C-74.466 20.293 -73.744 20.149 -73 20 C-72.67 20.66 -72.34 21.32 -72 22 C-70.344 22.934 -68.65 23.801 -66.938 24.625 C-66.018 25.071 -65.099 25.517 -64.152 25.977 C-63.442 26.314 -62.732 26.652 -62 27 C-61.34 26.34 -60.68 25.68 -60 25 C-58.68 25 -57.36 25 -56 25 C-56 24.34 -56 23.68 -56 23 C-56.33 22.835 -56.33 22.835 -58 22 C-57.007 22.016 -57.007 22.016 -52.043 22.098 C-50 22 -50 22 -47 21 C-47 21.99 -47 22.98 -47 24 C-47.33 24.165 -47.33 24.165 -49 25 C-48.67 25.165 -48.67 25.165 -47 26 C-47 26.66 -47 27.32 -47 28 C-46.381 27.691 -45.763 27.381 -45.125 27.062 C-43.75 26.375 -42.375 25.688 -41 25 C-40.34 25.33 -39.68 25.66 -39 26 C-38.01 22.04 -37.02 18.08 -36 14 C-36.66 14 -37.32 14 -38 14 C-38 13.34 -38 12.68 -38 12 C-37.216 11.917 -36.433 11.835 -35.625 11.75 C-33 11 -33 11 -31.688 8.938 C-31.461 8.298 -31.234 7.659 -31 7 C-30.67 7.33 -30.34 7.66 -30 8 C-29.67 6.68 -29.34 5.36 -29 4 C-28.505 4.165 -28.505 4.165 -26 5 C-26.33 6.65 -26.66 8.3 -27 10 C-26.34 10.165 -26.34 10.165 -23 11 C-22.835 11.825 -22.835 11.825 -22 16 C-22.33 16.165 -22.33 16.165 -24 17 C-24 17.66 -24 18.32 -24 19 C-23.34 19.33 -22.68 19.66 -22 20 C-22.33 20.33 -22.66 20.66 -23 21 C-22.34 21.33 -21.68 21.66 -21 22 C-20.34 21.01 -19.68 20.02 -19 19 C-18.01 19.99 -17.02 20.98 -16 22 C-16 21.34 -16 20.68 -16 20 C-14.333 18.333 -12.667 16.667 -11 15 C-10.67 14.01 -10.34 13.02 -10 12 C-9.67 12.66 -9.34 13.32 -9 14 C-6.207 11.362 -3.937 8.904 -1.812 5.688 C-1.214 4.801 -0.616 3.914 0 3 C0.66 3 1.32 3 2 3 C1.835 2.34 1.835 2.34 1 -1 C1.99 -1.33 2.98 -1.66 4 -2 C4.33 -3.65 4.66 -5.3 5 -7 C5.66 -7 6.32 -7 7 -7 C6.959 -7.722 6.918 -8.444 6.875 -9.188 C7.011 -12.256 7.854 -14.169 9 -17 C9.381 -19.326 9.725 -21.659 10 -24 Z M-67 26 C-66 28 -66 28 -66 28 Z " fill="#F93D3B" transform="translate(155,188)"/>
<path d="M0 0 C0.165 0.33 0.165 0.33 1 2 C2.32 1.34 3.64 0.68 5 0 C5.236 5.778 4.868 10.513 3 16 C2.01 16 1.02 16 0 16 C0.023 16.603 0.046 17.207 0.07 17.828 C0.088 18.627 0.106 19.427 0.125 20.25 C0.148 21.039 0.171 21.828 0.195 22.641 C-0.019 25.23 -0.743 26.752 -2 29 C-2.368 30.324 -2.712 31.656 -3 33 C-3.66 33 -4.32 33 -5 33 C-5.124 33.784 -5.248 34.567 -5.375 35.375 C-6 38 -6 38 -8 40 C-8 40.99 -8 41.98 -8 43 C-9.309 44.357 -10.649 45.685 -12 47 C-13.296 48.844 -14.538 50.712 -15.754 52.609 C-16.165 53.068 -16.576 53.527 -17 54 C-17.99 54 -18.98 54 -20 54 C-21.362 55.981 -22.696 57.981 -24 60 C-24.66 60 -25.32 60 -26 60 C-26 60.66 -26 61.32 -26 62 C-26.99 61.67 -27.98 61.34 -29 61 C-29.66 61.66 -30.32 62.32 -31 63 C-31.99 62.34 -32.98 61.68 -34 61 C-34 60.34 -34 59.68 -34 59 C-34.165 58.505 -34.165 58.505 -35 56 C-34.01 56 -33.02 56 -32 56 C-32 55.34 -32 54.68 -32 54 C-32.66 53.67 -33.32 53.34 -34 53 C-33.67 52.34 -33.34 51.68 -33 51 C-34.32 50.67 -35.64 50.34 -37 50 C-37.826 47.108 -38 45.113 -38 42 C-38.66 41.67 -39.32 41.34 -40 41 C-36.713 40.2 -35.29 39.903 -32 41 C-32 40.34 -32 39.68 -32 39 C-33.32 39 -34.64 39 -36 39 C-36 38.34 -36 37.68 -36 37 C-34.02 36.34 -32.04 35.68 -30 35 C-30 34.01 -30 33.02 -30 32 C-30.66 31.67 -31.32 31.34 -32 31 C-31.34 30.67 -30.68 30.34 -30 30 C-27.875 30.938 -27.875 30.938 -26 32 C-26 31.34 -26 30.68 -26 30 C-26.66 29.67 -27.32 29.34 -28 29 C-27.34 29 -26.68 29 -26 29 C-26 28.34 -26 27.68 -26 27 C-25.01 27.33 -24.02 27.66 -23 28 C-23.33 28.99 -23.66 29.98 -24 31 C-20.132 31 -18.987 30.726 -15.75 29 C-15.044 28.629 -14.337 28.257 -13.609 27.875 C-13.078 27.586 -12.547 27.298 -12 27 C-12.33 26.34 -12.66 25.68 -13 25 C-10.69 25.66 -8.38 26.32 -6 27 C-6 26.34 -6 25.68 -6 25 C-6.66 24.67 -7.32 24.34 -8 24 C-7.34 22.68 -6.68 21.36 -6 20 C-6.99 20.33 -7.98 20.66 -9 21 C-9.33 21.99 -9.66 22.98 -10 24 C-12.062 24.688 -12.062 24.688 -14 25 C-14 25.66 -14 26.32 -14 27 C-16.763 27.597 -19.16 28 -22 28 C-21.01 26.68 -20.02 25.36 -19 24 C-19.33 23.34 -19.66 22.68 -20 22 C-20.66 23.32 -21.32 24.64 -22 26 C-22.66 26 -23.32 26 -24 26 C-24.33 25.34 -24.66 24.68 -25 24 C-27.562 23.375 -27.562 23.375 -30 23 C-28.848 20.532 -27.952 18.952 -26 17 C-25.711 16.319 -25.423 15.639 -25.125 14.938 C-24 13 -24 13 -22.188 12.375 C-21.466 12.251 -20.744 12.127 -20 12 C-18.326 11.353 -16.657 10.69 -15 10 C-15 10.66 -15 11.32 -15 12 C-14.67 12.33 -14.34 12.66 -14 13 C-14.33 13.66 -14.66 14.32 -15 15 C-13.68 15 -12.36 15 -11 15 C-11.33 15.66 -11.66 16.32 -12 17 C-12.66 17 -13.32 17 -14 17 C-14 17.66 -14 18.32 -14 19 C-13.443 18.701 -13.443 18.701 -10.625 17.188 C-9.999 16.851 -9.372 16.515 -8.727 16.168 C-7 15 -7 15 -5 12 C-4.34 11.67 -3.68 11.34 -3 11 C-3.165 10.67 -3.165 10.67 -4 9 C-4 8.01 -4 7.02 -4 6 C-3.01 5.34 -2.02 4.68 -1 4 C-0.312 1.875 -0.312 1.875 0 0 Z M-10 40 C-10.33 40.66 -10.66 41.32 -11 42 C-10.34 42 -9.68 42 -9 42 C-9.33 41.34 -9.66 40.68 -10 40 Z M-32 24 C-32 27 -32 27 -32 27 Z " fill="#FB4342" transform="translate(165,148)"/>
<path d="M0 0 C-0.99 0.33 -1.98 0.66 -3 1 C-3 1.66 -3 2.32 -3 3 C-0.36 3.66 2.28 4.32 5 5 C4.34 6.65 3.68 8.3 3 10 C2.67 9.505 2.67 9.505 1 7 C-2.754 6.235 -6.167 6 -10 6 C-10.536 5.983 -10.536 5.983 -13.25 5.895 C-20.761 5.73 -27.437 6.225 -34.707 8.344 C-37 9 -37 9 -39 9 C-39 9.99 -39 10.98 -39 12 C-39.66 12 -40.32 12 -41 12 C-41 12.66 -41 13.32 -41 14 C-41.99 14.33 -42.98 14.66 -44 15 C-46.426 17.038 -47.71 19.122 -49 22 C-50.32 22 -51.64 22 -53 22 C-53 22.66 -53 23.32 -53 24 C-53.66 24 -54.32 24 -55 24 C-55 24.66 -55 25.32 -55 26 C-54.34 26.33 -53.68 26.66 -53 27 C-53.99 27.66 -54.98 28.32 -56 29 C-55.67 29.66 -55.34 30.32 -55 31 C-58 32 -58 32 -61 31 C-61 32.65 -61 34.3 -61 36 C-61.66 36 -62.32 36 -63 36 C-62.67 37.65 -62.34 39.3 -62 41 C-62.495 41.165 -62.495 41.165 -65 42 C-65 42.66 -65 43.32 -65 44 C-64.34 44.33 -63.68 44.66 -63 45 C-63.33 45.165 -63.33 45.165 -65 46 C-63.68 46 -62.36 46 -61 46 C-61 46.66 -61 47.32 -61 48 C-63.31 48.66 -65.62 49.32 -68 50 C-67.67 50.99 -67.34 51.98 -67 53 C-67.66 53.66 -68.32 54.32 -69 55 C-70.584 59.258 -71.763 63.631 -73 68 C-73.33 68.99 -73.66 69.98 -74 71 C-74.66 71 -75.32 71 -76 71 C-77.031 44.848 -77.031 44.848 -71 35 C-70.481 34.076 -69.961 33.151 -69.426 32.199 C-63.199 21.704 -55.447 13.333 -45 7 C-44.61 6.763 -44.61 6.763 -42.637 5.566 C-29.754 -1.539 -14.292 -2.702 0 0 Z " fill="#FC6663" transform="translate(120,61)"/>
<path d="M0 0 C0.699 -0.024 1.399 -0.049 2.119 -0.074 C7.225 -0.103 10.188 0.954 14.188 4.375 C15.324 6.305 15.324 6.305 15.875 8.25 C16.726 10.99 17.551 13.049 18.938 15.625 C20.324 18.676 20.15 19.331 19.188 22.375 C19.042 22.037 19.042 22.037 18.305 20.328 C13.928 10.804 13.928 10.804 8.188 8.375 C3.429 7.493 0.221 7.819 -4.062 10.125 C-10.274 16.164 -12.577 26.203 -12.958 34.56 C-12.982 38.248 -12.998 41.936 -13 45.625 C-13.012 46.897 -13.024 48.17 -13.037 49.48 C-13.053 59.821 -12.493 70.385 -6.812 79.375 C-3.75 81.812 -3.75 81.812 -0.812 83.375 C-0.317 83.705 -0.317 83.705 2.188 85.375 C-3.043 84.973 -5.36 84.32 -8.812 80.375 C-9.802 80.045 -10.793 79.715 -11.812 79.375 C-11.812 78.715 -11.812 78.055 -11.812 77.375 C-12.472 77.375 -13.132 77.375 -13.812 77.375 C-15.812 74.375 -15.812 74.375 -15.812 71.375 C-17.132 71.045 -18.453 70.715 -19.812 70.375 C-19.153 70.375 -18.493 70.375 -17.812 70.375 C-18.142 69.385 -18.472 68.395 -18.812 67.375 C-18.647 67.045 -18.647 67.045 -17.812 65.375 C-18.472 65.045 -19.132 64.715 -19.812 64.375 C-20.472 63.385 -21.132 62.395 -21.812 61.375 C-21.153 61.375 -20.493 61.375 -19.812 61.375 C-19.812 58.405 -19.812 55.435 -19.812 52.375 C-20.472 52.375 -21.132 52.375 -21.812 52.375 C-22.714 49.291 -22.947 46.522 -22.938 43.312 C-22.94 42.455 -22.943 41.598 -22.945 40.715 C-22.812 38.375 -22.812 38.375 -21.812 35.375 C-21.994 34.755 -22.176 34.135 -22.363 33.496 C-22.973 30.617 -22.166 29.111 -21 26.438 C-20.643 25.603 -20.286 24.769 -19.918 23.91 C-19.553 23.074 -19.188 22.237 -18.812 21.375 C-17.259 17.683 -16.368 14.354 -15.812 10.375 C-15.153 10.375 -14.493 10.375 -13.812 10.375 C-14.142 9.385 -14.472 8.395 -14.812 7.375 C-13.823 7.045 -12.832 6.715 -11.812 6.375 C-11.469 5.044 -11.136 3.711 -10.812 2.375 C-7.132 -0.079 -4.262 0.008 0 0 Z " fill="#F83835" transform="translate(102.8125,100.625)"/>
<path d="M0 0 C0.165 0.33 0.165 0.33 1 2 C1.66 2.33 2.32 2.66 3 3 C3 3.99 3 4.98 3 6 C3.66 6.33 4.32 6.66 5 7 C4.67 7.66 4.34 8.32 4 9 C4.99 9.33 5.98 9.66 7 10 C6.34 10 5.68 10 5 10 C5.165 10.66 5.165 10.66 6 14 C5.01 14 4.02 14 3 14 C3 14.66 3 15.32 3 16 C3.66 16.33 4.32 16.66 5 17 C4.67 17.66 4.34 18.32 4 19 C4.99 18.67 5.98 18.34 7 18 C7 18.66 7 19.32 7 20 C7.66 20 8.32 20 9 20 C9 20.66 9 21.32 9 22 C9.66 22 10.32 22 11 22 C11 22.66 11 23.32 11 24 C10.01 24 9.02 24 8 24 C8 24.66 8 25.32 8 26 C9.65 25.67 11.3 25.34 13 25 C10.79 26.801 9.122 27.962 6.375 28.812 C4 30 4 30 2.688 33.125 C2.461 34.074 2.234 35.023 2 36 C3.98 36 5.96 36 8 36 C7.361 36.701 6.721 37.403 6.062 38.125 C3.836 41.228 3.349 43.246 3 47 C3.66 47 4.32 47 5 47 C5.165 46.67 5.165 46.67 6 45 C5.812 47.312 5.812 47.312 5 50 C0.966 53 0.966 53 -2 53 C-1.794 53.557 -1.588 54.114 -1.375 54.688 C-0.892 57.669 -1.785 59.283 -3 62 C-3 62.66 -3 63.32 -3 64 C-3.66 64 -4.32 64 -5 64 C-5.33 65.32 -5.66 66.64 -6 68 C-6.66 68 -7.32 68 -8 68 C-8 68.66 -8 69.32 -8 70 C-8.402 70.134 -8.402 70.134 -10.438 70.812 C-10.86 71.008 -10.86 71.008 -13 72 C-13.33 72.99 -13.66 73.98 -14 75 C-15.652 75.702 -17.319 76.37 -19 77 C-19.165 77.33 -19.165 77.33 -20 79 C-20.66 79 -21.32 79 -22 79 C-23 78 -23 78 -24 76 C-26.066 75.586 -26.066 75.586 -28.562 75.375 C-29.389 75.3 -30.215 75.225 -31.066 75.148 C-31.385 75.124 -31.385 75.124 -33 75 C-32.835 74.67 -32.835 74.67 -32 73 C-32.66 72.67 -33.32 72.34 -34 72 C-33.67 71.01 -33.34 70.02 -33 69 C-30.2 68.067 -28.103 67.813 -25.188 67.625 C-20.12 67.145 -15.954 66.239 -12.473 62.25 C-8.009 55.43 -6.533 47.001 -6 39 C-5.67 39 -5.34 39 -5 39 C-4.685 37.625 -4.373 36.25 -4.062 34.875 C-3.975 34.492 -3.975 34.492 -3.535 32.555 C-3.359 31.712 -3.182 30.869 -3 30 C-2.902 29.577 -2.902 29.577 -2.406 27.438 C-1.8 22.309 -2.162 17.272 -2.438 12.125 C-2.464 11.59 -2.464 11.59 -2.596 8.883 C-2.725 6.255 -2.86 3.627 -3 1 C-2.01 0.67 -1.02 0.34 0 0 Z " fill="#FB5050" transform="translate(130,117)"/>
<path d="M0 0 C5.538 2.556 8.418 6.63 11 12 C11.938 15.375 11.938 15.375 12 18 C11.34 18.66 10.68 19.32 10 20 C9.876 19.361 9.752 18.721 9.625 18.062 C9.419 17.382 9.213 16.701 9 16 C8.34 15.67 7.68 15.34 7 15 C7.33 14.34 7.66 13.68 8 13 C7.34 13 6.68 13 6 13 C6 12.34 6 11.68 6 11 C4.081 11.229 2.165 11.484 0.25 11.75 C-0.817 11.889 -1.885 12.028 -2.984 12.172 C-7.311 13.36 -9.03 15.533 -11.449 19.191 C-11.858 19.974 -12.266 20.756 -12.688 21.562 C-13.104 22.327 -13.52 23.091 -13.949 23.879 C-16.925 32.717 -16.155 42.725 -16.125 51.938 C-16.129 53.142 -16.133 54.347 -16.137 55.588 C-16.135 56.744 -16.134 57.899 -16.133 59.09 C-16.132 59.61 -16.132 59.61 -16.129 62.242 C-16.016 64.664 -15.697 66.689 -15 69 C-15.99 69 -16.98 69 -18 69 C-18.487 67.649 -18.964 66.294 -19.438 64.938 C-19.704 64.183 -19.971 63.429 -20.246 62.652 C-22.462 54.858 -22.217 46.842 -22.25 38.812 C-22.271 37.561 -22.291 36.31 -22.312 35.021 C-22.366 22.168 -20.505 11.228 -11.75 1.5 C-7.781 -0.665 -4.421 -0.751 0 0 Z " fill="#E9CBAB" transform="translate(111,108)"/>
<path d="M0 0 C0.99 0.33 1.98 0.66 3 1 C3.101 11.51 1.517 21.056 -1.312 31.188 C-1.608 32.262 -1.904 33.336 -2.209 34.443 C-4.507 42.321 -7.193 47.193 -13 53 C-13.598 53.949 -14.196 54.898 -14.812 55.875 C-18.808 61.582 -24.193 65.249 -30 69 C-30.99 69.866 -31.98 70.733 -33 71.625 C-40.674 77.047 -52.067 76.184 -61.125 76.312 C-61.534 76.321 -61.534 76.321 -63.603 76.366 C-69.397 76.359 -69.397 76.359 -72.555 74.48 C-73.032 73.992 -73.509 73.503 -74 73 C-72.814 72.986 -71.628 72.972 -70.406 72.957 C-49.954 72.458 -33.538 67.053 -19 52 C-6.523 37.586 -2.121 18.468 0 0 Z " fill="#D4AF85" transform="translate(173,158)"/>
<path d="M0 0 C3.04 -0.078 5.413 0.261 8.008 1.883 C10.081 5.51 8.718 9.725 8.008 13.633 C8.668 13.633 9.328 13.633 10.008 13.633 C10.008 14.293 10.008 14.953 10.008 15.633 C10.833 15.798 10.833 15.798 15.008 16.633 C15.173 17.293 15.173 17.293 16.008 20.633 C16.668 20.633 17.328 20.633 18.008 20.633 C19.833 24.68 21.258 28.244 22.008 32.633 C22.338 33.747 22.668 34.86 23.008 36.008 C25.403 45.569 25.672 55.176 23.008 64.633 C22.609 66.962 22.307 69.288 22.008 71.633 C21.678 71.633 21.348 71.633 21.008 71.633 C20.998 71.309 20.998 71.309 20.948 69.668 C19.816 34.345 19.816 34.345 14.008 25.633 C13.698 24.395 13.389 23.158 13.07 21.883 C12.008 18.633 12.008 18.633 9.949 16.945 C6.212 15.278 2.89 15.266 -1.117 15.383 C-1.833 15.388 -2.548 15.393 -3.285 15.398 C-6.434 15.446 -8.987 15.631 -11.992 16.633 C-12.555 18.57 -12.555 18.57 -12.992 20.633 C-13.652 21.293 -14.312 21.953 -14.992 22.633 C-14.992 23.293 -14.992 23.953 -14.992 24.633 C-15.652 24.633 -16.312 24.633 -16.992 24.633 C-17.041 25.343 -17.09 26.053 -17.141 26.785 C-17.215 27.704 -17.29 28.623 -17.367 29.57 C-17.437 30.487 -17.506 31.403 -17.578 32.348 C-17.715 33.102 -17.851 33.856 -17.992 34.633 C-18.322 34.798 -18.322 34.798 -19.992 35.633 C-20.322 34.313 -20.652 32.993 -20.992 31.633 C-21.652 31.633 -22.312 31.633 -22.992 31.633 C-23.322 30.973 -23.652 30.313 -23.992 29.633 C-24.982 28.973 -25.972 28.313 -26.992 27.633 C-25.342 27.633 -23.692 27.633 -21.992 27.633 C-21.724 26.993 -21.456 26.354 -21.18 25.695 C-19.992 23.633 -19.992 23.633 -16.992 22.633 C-16.992 21.973 -16.992 21.313 -16.992 20.633 C-17.652 20.303 -18.312 19.973 -18.992 19.633 C-17.342 18.973 -15.692 18.313 -13.992 17.633 C-14.652 17.303 -15.312 16.973 -15.992 16.633 C-15.662 16.303 -15.332 15.973 -14.992 15.633 C-17.483 14.946 -19.371 14.633 -21.992 14.633 C-20.342 12.653 -18.692 10.673 -16.992 8.633 C-15.672 8.963 -14.352 9.293 -12.992 9.633 C-12.992 10.293 -12.992 10.953 -12.992 11.633 C-13.322 11.798 -13.322 11.798 -14.992 12.633 C-13.672 13.293 -12.352 13.953 -10.992 14.633 C-10.992 12.983 -10.992 11.333 -10.992 9.633 C-10.685 9.592 -10.685 9.592 -9.133 9.387 C-6.992 8.633 -6.992 8.633 -5.789 6.785 C-5.444 6.054 -5.098 5.323 -4.742 4.57 C-2.577 0.819 -2.577 0.819 0 0 Z M-21.992 35.633 C-21.332 35.963 -20.672 36.293 -19.992 36.633 C-20.982 36.633 -21.972 36.633 -22.992 36.633 C-22.662 36.303 -22.332 35.973 -21.992 35.633 Z " fill="#FA4444" transform="translate(103.9921875,86.3671875)"/>
<path d="M0 0 C0.619 0.639 1.237 1.279 1.875 1.938 C2.916 2.959 3.958 3.979 5 5 C5.659 5.678 6.317 6.356 6.996 7.055 C20.908 20.615 37.983 25.097 57 26 C57 26.33 57 26.66 57 27 C69.373 27.513 79.86 27.006 89.695 18.875 C91.764 17.192 93.614 16.137 96 15 C100.632 10.978 103.744 6.136 107 1 C107.165 1.33 107.165 1.33 108 3 C104.606 8.248 101.247 13.399 97 18 C96.34 18 95.68 18 95 18 C95 18.66 95 19.32 95 20 C92.988 21.473 92.988 21.473 90.312 23.062 C89.442 23.59 88.572 24.117 87.676 24.66 C85.066 25.967 82.874 26.581 80 27 C80 27.66 80 28.32 80 29 C68.175 32.041 58.234 33.966 46 32 C45.67 31.67 45.34 31.34 45 31 C42.713 30.718 40.426 30.552 38.129 30.379 C36 30 36 30 34 28 C32.333 27.521 30.664 27.047 28.988 26.603 C25.521 25.552 22.318 23.947 19.062 22.375 C18.721 22.213 18.721 22.213 16.99 21.391 C15.325 20.599 13.662 19.8 12 19 C12 18.34 12 17.68 12 17 C10.523 15.748 9.042 14.498 7.508 13.316 C4.85 10.996 3.228 7.788 1.375 4.812 C1.152 4.455 1.152 4.455 0.023 2.645 C-0.314 2.102 -0.652 1.559 -1 1 C-0.67 0.67 -0.34 0.34 0 0 Z " fill="#D5BA8E" transform="translate(55,206)"/>
<path d="M0 0 C2.375 0.5 2.375 0.5 5 2 C6.141 4.59 6.753 7.182 7 10 C6.67 10.66 6.34 11.32 6 12 C6.99 12.33 7.98 12.66 9 13 C9.99 13.66 10.98 14.32 12 15 C14.5 15.125 14.5 15.125 17 15 C17.99 15 18.98 15 20 15 C19.67 14.01 19.34 13.02 19 12 C19.66 12 20.32 12 21 12 C21.33 12.66 21.66 13.32 22 14 C22.99 14.66 23.98 15.32 25 16 C24.34 16 23.68 16 23 16 C23.99 16.99 24.98 17.98 26 19 C25.649 19.763 25.299 20.526 24.938 21.312 C24 24 24 24 25 27 C25.495 27.825 25.99 28.65 26.5 29.5 C28 32 28 32 29 35 C29.66 34.835 29.66 34.835 33 34 C32 36 31 38 30 40 C26.936 40.255 25.368 40.219 22.688 38.625 C22.131 38.089 21.574 37.553 21 37 C21 36.34 21 35.68 21 35 C20.381 34.959 19.763 34.917 19.125 34.875 C18.424 34.586 17.722 34.298 17 34 C15.875 31 15.875 31 15 28 C14.34 27.67 13.68 27.34 13 27 C10 22.5 10 22.5 10 20 C9.01 19.67 8.02 19.34 7 19 C8.039 24.501 9.432 28.987 12 34 C11.67 34.66 11.34 35.32 11 36 C4.951 24.819 -1.046 13.08 0 0 Z M11 16 C12 18 12 18 12 18 Z " fill="#FB4342" transform="translate(41,165)"/>
<path d="M0 0 C0.33 0 0.66 0 1 0 C0.114 21.3 -8.312 40.772 -23.562 55.625 C-35.69 66.167 -50.451 70.592 -66.312 70.5 C-66.858 70.499 -66.858 70.499 -69.618 70.491 C-78.4 70.316 -88.008 69.497 -94.852 63.332 C-95.231 62.892 -95.61 62.453 -96 62 C-94.987 62.307 -93.974 62.614 -92.93 62.93 C-78.477 67.041 -61.569 67.752 -47 64 C-46.192 63.872 -45.384 63.745 -44.551 63.613 C-41.597 62.903 -39.513 61.725 -36.938 60.125 C-36.101 59.612 -35.264 59.099 -34.402 58.57 C-32 57 -32 57 -29.816 55.305 C-28 54 -28 54 -26 54 C-26 53.34 -26 52.68 -26 52 C-25.34 52 -24.68 52 -24 52 C-23.979 51.423 -23.959 50.845 -23.938 50.25 C-23 48 -23 48 -19.875 46.5 C-11.458 42.05 -8.005 30.375 -5.133 21.891 C-2.949 14.718 -1.49 7.342 0 0 Z " fill="#952B17" transform="translate(172,161)"/>
<path d="M0 0 C0.66 0 1.32 0 2 0 C7.59 27.901 4.293 58.821 -11.125 83.188 C-13.086 86.084 -15.054 88.089 -18 90 C-18.66 90 -19.32 90 -20 90 C-18.965 87.671 -17.877 85.85 -16.25 83.875 C-10.516 76.548 -6.852 68.825 -4 60 C-4.66 59.34 -5.32 58.68 -6 58 C-5.807 57.394 -5.613 56.788 -5.414 56.164 C1.484 33.968 1.484 33.968 -2 27 C-1.67 26.01 -1.34 25.02 -1 24 C-1.66 23.34 -2.32 22.68 -3 22 C-2.67 21.34 -2.34 20.68 -2 20 C-1.974 16.642 -2.028 13.298 -2.127 9.941 C-2.187 6.115 -2.163 3.241 0 0 Z " fill="#D34634" transform="translate(170,119)"/>
<path d="M0 0 C0.66 0 1.32 0 2 0 C2.054 1.896 2.093 3.791 2.125 5.688 C2.148 6.743 2.171 7.799 2.195 8.887 C1.998 12.037 1.272 14.141 0 17 C0 17.66 0 18.32 0 19 C-0.66 19 -1.32 19 -2 19 C-2.33 20.32 -2.66 21.64 -3 23 C-3.66 23 -4.32 23 -5 23 C-5 23.66 -5 24.32 -5 25 C-5.804 25.268 -6.609 25.536 -7.438 25.812 C-8.283 26.204 -9.129 26.596 -10 27 C-10.33 27.99 -10.66 28.98 -11 30 C-12.652 30.702 -14.319 31.37 -16 32 C-16.33 32.66 -16.66 33.32 -17 34 C-17.66 34 -18.32 34 -19 34 C-20 33 -20 33 -21 31 C-23.066 30.586 -23.066 30.586 -25.562 30.375 C-26.389 30.3 -27.215 30.225 -28.066 30.148 C-28.704 30.099 -29.343 30.05 -30 30 C-29.67 29.34 -29.34 28.68 -29 28 C-29.66 27.67 -30.32 27.34 -31 27 C-30.67 26.01 -30.34 25.02 -30 24 C-27.2 23.067 -25.103 22.813 -22.188 22.625 C-17.033 22.137 -13.134 21.055 -9.312 17.375 C-7.323 13.774 -6.184 9.928 -5 6 C-4.34 6 -3.68 6 -3 6 C-2.691 5.196 -2.381 4.391 -2.062 3.562 C-1 1 -1 1 0 0 Z " fill="#FB4F4C" transform="translate(127,162)"/>
<path d="M0 0 C0.66 0 1.32 0 2 0 C3.605 4.524 2.33 7.574 0.758 11.871 C0 14 0 14 -0.5 16.562 C-1.248 20.208 -2.649 23.534 -4 27 C-4.66 27 -5.32 27 -6 27 C-6.062 27.289 -6.062 27.289 -6.375 28.75 C-7.028 31.099 -7.694 32.937 -9 35 C-11.062 36.125 -11.062 36.125 -13 37 C-13.165 37.33 -13.165 37.33 -14 39 C-14.66 39 -15.32 39 -16 39 C-16 39.66 -16 40.32 -16 41 C-18.639 42.783 -20.972 43.991 -24 45 C-24.294 45.614 -24.588 46.227 -24.891 46.859 C-27.072 51.068 -31.833 53.05 -36 55 C-39.625 55.375 -39.625 55.375 -42 55 C-42.33 55.66 -42.66 56.32 -43 57 C-47.503 58.507 -52.254 59.306 -57 59 C-57.33 58.34 -57.66 57.68 -58 57 C-57.34 57 -56.68 57 -56 57 C-56 56.34 -56 55.68 -56 55 C-53 54 -53 54 -50 55 C-50.165 54.505 -50.165 54.505 -51 52 C-50.361 51.711 -49.721 51.423 -49.062 51.125 C-47 50 -47 50 -46 48 C-43.03 48.33 -40.06 48.66 -37 49 C-37 49.66 -37 50.32 -37 51 C-36.457 50.723 -35.915 50.446 -35.355 50.16 C-34.998 49.979 -34.998 49.979 -33.188 49.062 C-32.834 48.883 -32.834 48.883 -31.043 47.973 C-29 47 -29 47 -26 46 C-26 45.34 -26 44.68 -26 44 C-24.333 42.333 -22.667 40.667 -21 39 C-20.67 38.01 -20.34 37.02 -20 36 C-19.67 36.66 -19.34 37.32 -19 38 C-16.207 35.362 -13.937 32.904 -11.812 29.688 C-11.214 28.801 -10.616 27.914 -10 27 C-9.34 27 -8.68 27 -8 27 C-8.165 26.34 -8.165 26.34 -9 23 C-8.01 22.67 -7.02 22.34 -6 22 C-5.67 20.35 -5.34 18.7 -5 17 C-4.34 17 -3.68 17 -3 17 C-3.041 16.278 -3.083 15.556 -3.125 14.812 C-2.989 11.744 -2.146 9.831 -1 7 C-0.619 4.674 -0.275 2.341 0 0 Z M-10 24 C-9.67 24.66 -9.34 25.32 -9 26 C-9.66 25.67 -10.32 25.34 -11 25 C-10.67 24.67 -10.34 24.34 -10 24 Z " fill="#F4332E" transform="translate(165,164)"/>
<path d="M0 0 C3.927 0.711 6.046 1.642 8.848 4.516 C9.825 6.479 10.538 8.398 11.188 10.492 C11.848 12.516 11.848 12.516 13.598 15.766 C14.984 18.816 14.81 19.472 13.848 22.516 C13.702 22.178 13.702 22.178 12.965 20.469 C8.588 10.944 8.588 10.944 2.848 8.516 C-1.911 7.634 -5.119 7.959 -9.402 10.266 C-15.759 16.445 -18.005 26.693 -18.266 35.226 C-18.266 36.591 -18.26 37.956 -18.25 39.32 C-18.249 40.044 -18.247 40.768 -18.246 41.514 C-18.24 43.806 -18.228 46.098 -18.215 48.391 C-18.21 49.953 -18.205 51.516 -18.201 53.078 C-18.19 56.891 -18.173 60.703 -18.152 64.516 C-24.778 54.578 -21.396 36.45 -19.84 25.266 C-19.722 24.397 -19.605 23.529 -19.483 22.635 C-18.697 17.467 -17.447 13.215 -15.152 8.516 C-14.762 7.713 -14.371 6.909 -13.969 6.082 C-10.274 0.178 -6.819 -0.507 0 0 Z " fill="#A12818" transform="translate(108.15234375,100.484375)"/>
<path d="M0 0 C0.165 0.33 0.165 0.33 1 2 C3.31 2 5.62 2 8 2 C8 2.99 8 3.98 8 5 C5.5 7.188 5.5 7.188 3 9 C2.835 8.67 2.835 8.67 2 7 C0.35 7.33 -1.3 7.66 -3 8 C-2.002 10.993 -1.248 11.948 1 14 C-1.375 13.688 -1.375 13.688 -4 13 C-4.66 12.01 -5.32 11.02 -6 10 C-7.32 10.99 -8.64 11.98 -10 13 C-10 12.01 -10 11.02 -10 10 C-11 9 -11 9 -14 7 C-16.688 7.375 -16.688 7.375 -19 8 C-19 7.34 -19 6.68 -19 6 C-19.33 6.165 -19.33 6.165 -21 7 C-21.625 9.562 -21.625 9.562 -22 12 C-22.66 12 -23.32 12 -24 12 C-24.289 11.361 -24.578 10.721 -24.875 10.062 C-26 8 -26 8 -28 7 C-28 8.32 -28 9.64 -28 11 C-29.32 10.67 -30.64 10.34 -32 10 C-32 10.66 -32 11.32 -32 12 C-32.66 12 -33.32 12 -34 12 C-34.66 13.65 -35.32 15.3 -36 17 C-37.65 16.67 -39.3 16.34 -41 16 C-40.67 15.01 -40.34 14.02 -40 13 C-39.34 13 -38.68 13 -38 13 C-37.67 12.01 -37.34 11.02 -37 10 C-36.01 10 -35.02 10 -34 10 C-34 9.34 -34 8.68 -34 8 C-33.34 8 -32.68 8 -32 8 C-32 7.01 -32 6.02 -32 5 C-22.706 1.747 -14.948 0.596 -5.203 0.957 C-2 1 -2 1 0 0 Z " fill="#FC5A59" transform="translate(113,65)"/>
<path d="M0 0 C1.259 -0.003 2.519 -0.005 3.816 -0.008 C7.12 0.113 10.196 0.496 13.438 1.125 C12.448 1.455 11.457 1.785 10.438 2.125 C10.438 2.785 10.438 3.445 10.438 4.125 C13.078 4.785 15.718 5.445 18.438 6.125 C17.778 7.775 17.118 9.425 16.438 11.125 C16.108 10.63 16.108 10.63 14.438 8.125 C10.684 7.36 7.271 7.125 3.438 7.125 C2.388 7.079 1.339 7.032 0.258 6.984 C-13.093 6.589 -24.491 9.32 -35.562 17.125 C-36.614 17.847 -37.666 18.569 -38.75 19.312 C-42.241 22.803 -44.557 26.65 -47.047 30.895 C-47.547 31.631 -48.047 32.367 -48.562 33.125 C-49.222 33.125 -49.883 33.125 -50.562 33.125 C-50.666 33.826 -50.769 34.528 -50.875 35.25 C-51.663 38.545 -52.891 41.184 -54.562 44.125 C-54.892 44.29 -54.892 44.29 -56.562 45.125 C-54.709 33.67 -47.685 24.987 -39.562 17.125 C-38.875 16.455 -38.188 15.784 -37.48 15.094 C-30.162 8.713 -19.962 5.203 -10.562 3.125 C-11.882 2.465 -13.203 1.805 -14.562 1.125 C-9.657 0.328 -4.986 -0.01 0 0 Z " fill="#FC6B67" transform="translate(106.5625,59.875)"/>
<path d="M0 0 C9.067 8 15.014 20.649 16.938 32.5 C17 36 17 36 16.012 38.242 C14.701 41.815 14.808 44.83 14.875 48.625 C14.884 49.281 14.884 49.281 14.93 52.602 C14.953 53.723 14.976 54.845 15 56 C15 56.99 15 57.98 15 59 C15.33 59.66 15.66 60.32 16 61 C15.34 61.66 14.68 62.32 14 63 C13.34 63 12.68 63 12 63 C11.505 63.165 11.505 63.165 9 64 C9 63.34 9 62.68 9 62 C8.34 61.34 7.68 60.68 7 60 C7.165 59.835 7.165 59.835 8 59 C6.68 58.67 5.36 58.34 4 58 C4.639 57.752 5.279 57.505 5.938 57.25 C8 56 8 56 8.75 54.125 C9 52 9 52 9 48 C8.381 48.206 7.762 48.412 7.125 48.625 C6.424 48.749 5.722 48.873 5 49 C4.34 48.34 3.68 47.68 3 47 C3.825 46.835 3.825 46.835 8 46 C7.01 45.34 6.02 44.68 5 44 C10.75 41 10.75 41 13 41 C13 40.34 13 39.68 13 39 C11.35 39 9.7 39 8 39 C8.309 38.113 8.619 37.226 8.938 36.312 C11.353 28.782 11.719 21.555 8.132 14.226 C6.472 11.294 4.654 8.514 2.777 5.715 C1 3 1 3 0 0 Z " fill="#FA3F3C" transform="translate(154,83)"/>
<path d="M0 0 C2.687 0.36 3.758 0.713 5.535 2.82 C6.039 3.581 6.543 4.341 7.062 5.125 C11.155 10.649 16.056 13.691 22 17 C22.34 17.2 22.34 17.2 24.062 18.215 C37.109 25.418 54.608 26.197 68.945 22.625 C69.623 22.419 70.301 22.213 71 22 C71.678 21.794 72.356 21.588 73.055 21.375 C80.464 18.838 86.959 14.942 93 10 C93.66 10 94.32 10 95 10 C95 10.66 95 11.32 95 12 C94.34 12 93.68 12 93 12 C93 12.66 93 13.32 93 14 C89.493 16.575 85.716 18.741 82 21 C81.349 21.433 80.698 21.866 80.027 22.312 C76.076 24.853 72.697 25.539 68.113 25.824 C66 26 66 26 64.219 26.508 C60.894 27.245 57.576 27.191 54.188 27.188 C53.814 27.187 53.814 27.187 51.924 27.185 C32.546 26.976 18.806 22.849 5 9 C0 3.118 0 3.118 0 0 Z " fill="#CE3C2D" transform="translate(53,201)"/>
<path d="M0 0 C3.803 2.005 5.618 3.427 8 7 C5.77 7 3.54 6.926 1.312 6.812 C-3.203 6.829 -7.067 7.742 -11 10 C-14.518 14.246 -15.987 20.086 -17.785 25.258 C-19.797 30.898 -19.797 30.898 -22 32 C-22.582 21.905 -20.417 11.992 -14 4 C-9.916 -0.537 -5.818 -1.035 0 0 Z " fill="#B77755" transform="translate(111,108)"/>
<path d="M0 0 C0.66 0.33 1.32 0.66 2 1 C1.67 1.66 1.34 2.32 1 3 C1.66 3 2.32 3 3 3 C3 3.66 3 4.32 3 5 C3.825 5.165 3.825 5.165 8 6 C8.33 7.32 8.66 8.64 9 10 C9.66 10 10.32 10 11 10 C12.825 14.048 14.251 17.611 15 22 C15.33 23.114 15.66 24.227 16 25.375 C18.395 34.936 18.664 44.543 16 54 C15.601 56.329 15.299 58.655 15 61 C14.67 61 14.34 61 14 61 C13.98 60.352 13.96 59.703 13.94 59.035 C12.808 23.712 12.808 23.712 7 15 C6.845 14.381 6.845 14.381 6.062 11.25 C5 8 5 8 2.828 6.34 C-0.364 4.827 -2.798 4.506 -6.312 4.312 C-6.847 4.28 -6.847 4.28 -9.551 4.113 C-10.359 4.076 -11.167 4.039 -12 4 C-12 3.01 -12 2.02 -12 1 C-11.218 1.012 -10.435 1.023 -9.629 1.035 C-8.617 1.044 -7.605 1.053 -6.562 1.062 C-6.058 1.068 -6.058 1.068 -3.504 1.098 C-1 1 -1 1 0 0 Z " fill="#F23231" transform="translate(111,97)"/>
<path d="M0 0 C0.66 0.66 1.32 1.32 2 2 C1.631 2.079 1.631 2.079 -0.238 2.48 C-16.4 6.198 -29.929 13.649 -39 28 C-41.141 31.939 -43.12 35.931 -45 40 C-45.66 40 -46.32 40 -47 40 C-47.144 40.949 -47.289 41.898 -47.438 42.875 C-48 46 -48 46 -49 48 C-49.66 48 -50.32 48 -51 48 C-49.495 33.178 -39.651 20.652 -28.688 11.188 C-20.14 4.482 -11.046 -0.614 0 0 Z " fill="#FA5D5C" transform="translate(96,62)"/>
<path d="M0 0 C0.66 0.33 1.32 0.66 2 1 C0.796 2.335 -0.409 3.669 -1.613 5.004 C-5.631 10.787 -6.762 16.907 -7.688 23.75 C-7.813 24.665 -7.938 25.579 -8.067 26.521 C-9.644 38.973 -10.356 51.318 -6.734 63.465 C-5.721 66.964 -5.348 70.381 -5 74 C-7.572 73.03 -8.758 72.472 -10.031 69.983 C-12.326 61.455 -12.507 53.134 -12.438 44.375 C-12.436 43.624 -12.435 42.873 -12.433 42.099 C-12.395 30.974 -11.66 20.598 -8 10 C-7.67 9.01 -7.34 8.02 -7 7 C-6.34 7 -5.68 7 -5 7 C-4.67 5.68 -4.34 4.36 -4 3 C-3.34 3 -2.68 3 -2 3 C-2 2.34 -2 1.68 -2 1 C-1.34 0.67 -0.68 0.34 0 0 Z " fill="#CE261F" transform="translate(97,102)"/>
<path d="M0 0 C0.66 0 1.32 0 2 0 C0.511 4.601 -1.746 7.502 -5 11 C-5.66 11 -6.32 11 -7 11 C-7.33 11.99 -7.66 12.98 -8 14 C-9.515 15.303 -9.515 15.303 -11.465 16.594 C-12.177 17.066 -12.889 17.538 -13.623 18.024 C-24.394 24.891 -32.02 28.169 -44.875 28.375 C-45.292 28.382 -45.292 28.382 -47.402 28.419 C-53.379 28.368 -53.379 28.368 -56.57 26.477 C-57.042 25.989 -57.514 25.502 -58 25 C-56.814 24.986 -55.628 24.972 -54.406 24.957 C-33.779 24.453 -17.806 18.942 -3 4 C-2.452 3.25 -1.904 2.5 -1.34 1.727 C-0.898 1.157 -0.456 0.587 0 0 Z " fill="#C59D72" transform="translate(157,206)"/>
<path d="M0 0 C0 0.66 0 1.32 0 2 C-1.32 2 -2.64 2 -4 2 C-9.329 2.581 -11.912 4.977 -15.402 8.891 C-19.087 13.756 -19.099 18.005 -18.934 23.844 C-19 26 -19 26 -20.062 29 C-21.17 32.543 -20.759 34.813 -20.219 38.422 C-19.876 42.465 -20.438 46.385 -20.941 50.398 C-21 53 -21 53 -19 56 C-18.875 58.688 -18.875 58.688 -19 61 C-19.99 61 -20.98 61 -22 61 C-22.687 58.509 -23 56.621 -23 54 C-23.012 52.062 -23.023 50.125 -23.035 48.188 C-23.044 45.792 -23.054 43.396 -23.062 41 C-23.071 39.818 -23.079 38.636 -23.088 37.418 C-23.145 16.602 -23.145 16.602 -19 10 C-18.34 8.948 -17.68 7.896 -17 6.812 C-13.22 1.497 -13.22 1.497 -10.312 0.312 C-6.861 -0.154 -3.482 -0.058 0 0 Z " fill="#F4DABC" transform="translate(117,119)"/>
<path d="M0 0 C0.66 0 1.32 0 2 0 C1.67 6.93 1.34 13.86 1 21 C1.66 21 2.32 21 3 21 C3.33 20.01 3.66 19.02 4 18 C4 32.5 4 32.5 3 37 C3.99 37 4.98 37 6 37 C6 37.66 6 38.32 6 39 C5.01 39 4.02 39 3 39 C3 39.66 3 40.32 3 41 C3.99 41.33 4.98 41.66 6 42 C5.649 42.928 5.299 43.856 4.938 44.812 C4 48 4 48 5 51 C4.34 51.66 3.68 52.32 3 53 C0.483 47.894 -0.422 43.822 -0.293 38.098 C-0.289 37.375 -0.284 36.653 -0.28 35.908 C-0.263 33.626 -0.226 31.344 -0.188 29.062 C-0.172 27.505 -0.159 25.947 -0.146 24.389 C-0.114 20.592 -0.062 16.796 0 13 C-0.66 13 -1.32 13 -2 13 C-1.858 11.583 -1.711 10.166 -1.562 8.75 C-1.481 7.961 -1.4 7.172 -1.316 6.359 C-1.024 4.176 -0.579 2.123 0 0 Z " fill="#FA5956" transform="translate(43,111)"/>
<path d="M0 0 C0.33 0 0.66 0 1 0 C1.054 1.896 1.093 3.791 1.125 5.688 C1.148 6.743 1.171 7.799 1.195 8.887 C0.998 12.037 0.272 14.141 -1 17 C-1 17.66 -1 18.32 -1 19 C-1.66 19 -2.32 19 -3 19 C-3.33 20.32 -3.66 21.64 -4 23 C-4.66 23 -5.32 23 -6 23 C-6 23.66 -6 24.32 -6 25 C-6.804 25.268 -7.609 25.536 -8.438 25.812 C-9.283 26.204 -10.129 26.596 -11 27 C-11.33 27.99 -11.66 28.98 -12 30 C-12.99 30 -13.98 30 -15 30 C-15 29.34 -15 28.68 -15 28 C-15.638 27.951 -16.276 27.902 -16.934 27.852 C-17.76 27.777 -18.586 27.702 -19.438 27.625 C-20.261 27.555 -21.085 27.486 -21.934 27.414 C-22.616 27.277 -23.297 27.141 -24 27 C-24.33 26.34 -24.66 25.68 -25 25 C-24.42 24.963 -23.84 24.925 -23.242 24.887 C-16.583 24.326 -12.107 23.313 -7.438 18.188 C-3.803 12.736 -2.015 6.181 0 0 Z " fill="#FC605D" transform="translate(128,162)"/>
<path d="M0 0 C0.33 0 0.66 0 1 0 C0.276 5.927 -0.503 11.843 -1.375 17.75 C-1.488 18.587 -1.602 19.423 -1.719 20.285 C-2.375 24.661 -2.913 27.645 -6 31 C-6.227 31.763 -6.454 32.526 -6.688 33.312 C-8.435 36.892 -10.991 38.765 -14.023 41.285 C-16.347 43.301 -18.193 45.516 -20 48 C-20.66 47.67 -21.32 47.34 -22 47 C-21.576 46.49 -21.152 45.979 -20.715 45.453 C-13.726 36.79 -7.994 27.767 -5 17 C-4.574 15.554 -4.145 14.109 -3.715 12.664 C-2.461 8.447 -1.227 4.225 0 0 Z M-24 48 C-23.67 48.165 -23.67 48.165 -22 49 C-22.33 49.165 -22.33 49.165 -24 50 C-24 49.34 -24 48.68 -24 48 Z M-26 50 C-25.34 50.33 -24.68 50.66 -24 51 C-24.99 51 -25.98 51 -27 51 C-26.67 50.67 -26.34 50.34 -26 50 Z " fill="#E4CEA6" transform="translate(174,176)"/>
<path d="M0 0 C0.33 0.66 0.66 1.32 1 2 C1.66 2 2.32 2 3 2 C3 2.66 3 3.32 3 4 C3.66 4 4.32 4 5 4 C5.33 4.99 5.66 5.98 6 7 C8.062 7.688 8.062 7.688 10 8 C10 8.66 10 9.32 10 10 C10.66 10 11.32 10 12 10 C12.33 10.495 12.33 10.495 14 13 C17.301 14.016 18.672 14.109 22 13 C25.188 13.938 25.188 13.938 28 15 C28 15.66 28 16.32 28 17 C27.34 17 26.68 17 26 17 C26 17.66 26 18.32 26 19 C26.66 19 27.32 19 28 19 C28 19.66 28 20.32 28 21 C28.66 21 29.32 21 30 21 C29.67 21.66 29.34 22.32 29 23 C27.539 22.549 26.082 22.089 24.625 21.625 C23.813 21.37 23.001 21.115 22.164 20.852 C20 20 20 20 18 18 C17.278 17.917 16.556 17.835 15.812 17.75 C10.468 16.325 5.844 11.685 3 7 C3 6.34 3 5.68 3 5 C2.34 5 1.68 5 1 5 C0.67 3.35 0.34 1.7 0 0 Z " fill="#F63733" transform="translate(54,197)"/>
<path d="M0 0 C-2.638 3.357 -5.51 3.838 -9.562 4.812 C-16.194 6.605 -21.405 9.056 -27 13 C-28.052 13.722 -29.104 14.444 -30.188 15.188 C-33.678 18.678 -35.995 22.525 -38.484 26.77 C-38.985 27.506 -39.485 28.242 -40 29 C-40.66 29 -41.32 29 -42 29 C-42.052 29.351 -42.052 29.351 -42.312 31.125 C-43.101 34.42 -44.329 37.059 -46 40 C-46.33 40.165 -46.33 40.165 -48 41 C-46.146 29.545 -39.123 20.862 -31 13 C-30.313 12.33 -29.626 11.659 -28.918 10.969 C-21.482 4.485 -9.935 -0.633 0 0 Z " fill="#FC7F7B" transform="translate(98,64)"/>
<path d="M0 0 C0.99 0.33 1.98 0.66 3 1 C2.67 3.31 2.34 5.62 2 8 C3.98 8 5.96 8 8 8 C7.361 8.701 6.721 9.403 6.062 10.125 C3.836 13.228 3.349 15.246 3 19 C3.66 19 4.32 19 5 19 C5.33 18.34 5.66 17.68 6 17 C5.875 19.312 5.875 19.312 5 22 C1.938 23.812 1.938 23.812 -1 25 C-2.273 16.727 -3.601 7.785 0 0 Z " fill="#FB5251" transform="translate(130,145)"/>
<path d="M0 0 C2.771 2.36 3.59 5.029 4.688 8.438 C4.375 11.375 4.375 11.375 3.688 13.438 C3.028 13.108 2.368 12.778 1.688 12.438 C1.688 11.448 1.688 10.457 1.688 9.438 C1.028 9.108 0.368 8.778 -0.312 8.438 C-0.312 7.118 -0.312 5.797 -0.312 4.438 C-12.023 3.884 -12.023 3.884 -16.312 7.438 C-16.849 7.871 -17.385 8.304 -17.938 8.75 C-19.416 9.955 -20.867 11.194 -22.312 12.438 C-21.743 8.452 -20.877 5.581 -18.312 2.438 C-12.591 -0.871 -6.408 -1.559 0 0 Z " fill="#D9AD89" transform="translate(118.3125,114.5625)"/>
<path d="M0 0 C2.375 0.5 2.375 0.5 5 2 C5.968 4.807 6.561 7.109 7 10 C7.122 10.749 7.245 11.498 7.371 12.27 C7.649 14.171 7.832 16.086 8 18 C7.67 18.33 7.34 18.66 7 19 C7.696 24.512 9.476 29.073 12 34 C11.67 34.66 11.34 35.32 11 36 C4.951 24.819 -1.046 13.08 0 0 Z " fill="#E7433C" transform="translate(41,165)"/>
<path d="M0 0 C0 0.99 0 1.98 0 3 C-0.66 2.67 -1.32 2.34 -2 2 C-7.867 1.595 -12.816 2.024 -18 5 C-21.518 9.246 -22.987 15.086 -24.785 20.258 C-26.797 25.898 -26.797 25.898 -29 27 C-29 24.36 -29 21.72 -29 19 C-28.01 18.67 -27.02 18.34 -26 18 C-25.445 16.215 -25.445 16.215 -25.125 13.938 C-24.066 8.867 -23.133 4.415 -19 1 C-5.453 -3.746 -5.453 -3.746 0 0 Z " fill="#C58E69" transform="translate(118,113)"/>
<path d="M0 0 C1.487 3.867 0.34 6.203 -1 10 C-2.297 16.617 -2.112 23.216 -2.062 29.938 C-2.058 31.098 -2.053 32.259 -2.049 33.455 C-2.037 36.303 -2.021 39.152 -2 42 C-2.99 41.67 -3.98 41.34 -5 41 C-6.03 35.043 -6.183 29.226 -6.188 23.188 C-6.2 22.234 -6.212 21.281 -6.225 20.299 C-6.227 19.389 -6.228 18.48 -6.23 17.543 C-6.235 16.718 -6.239 15.893 -6.243 15.044 C-6 13 -6 13 -4 11 C-3.311 8.673 -2.645 6.339 -2 4 C-1.375 2.646 -0.728 1.301 0 0 Z " fill="#DEB896" transform="translate(95,127)"/>
<path d="M0 0 C0.33 0.66 0.66 1.32 1 2 C2.32 1.34 3.64 0.68 5 0 C5.236 5.778 4.868 10.513 3 16 C2.01 16 1.02 16 0 16 C0 17.98 0 19.96 0 22 C-2 19 -2 19 -2 17 C-2.66 16.67 -3.32 16.34 -4 16 C-4 15.34 -4 14.68 -4 14 C-3.34 14 -2.68 14 -2 14 C-2.33 12.35 -2.66 10.7 -3 9 C-3.66 9 -4.32 9 -5 9 C-4 6 -4 6 -1 4 C-0.312 1.875 -0.312 1.875 0 0 Z " fill="#FA4340" transform="translate(165,148)"/>
<path d="M0 0 C4.75 0.048 8.438 0.171 12.855 2.031 C15.547 4.792 16.508 6.886 17.633 10.508 C18.293 12.531 18.293 12.531 20.043 15.781 C21.43 18.832 21.255 19.488 20.293 22.531 C19.473 20.973 18.662 19.409 17.855 17.844 C17.403 16.974 16.951 16.104 16.484 15.207 C15.293 12.531 15.293 12.531 14.945 9.824 C14.293 7.531 14.293 7.531 12.07 6.238 C6.099 4.718 0.322 4.706 -5.395 7.031 C-6.158 7.526 -6.921 8.021 -7.707 8.531 C-4.122 0.809 -4.122 0.809 0 0 Z " fill="#B42419" transform="translate(101.70703125,100.46875)"/>
<path d="M0 0 C2.499 0.463 4.18 1.109 6.375 2.438 C9.194 4.116 11.875 5.024 15 6 C15.763 6.351 16.526 6.701 17.312 7.062 C24.043 9.41 31.508 9.159 38.562 9.125 C38.962 9.127 38.962 9.127 40.982 9.137 C46.074 9.128 50.96 8.727 56 8 C55 10 55 10 53.383 10.633 C35.62 14.505 18.852 12.293 3.012 3.367 C1 2 1 2 0 0 Z " fill="#C8231A" transform="translate(69,214)"/>
<path d="M0 0 C0.33 0 0.66 0 1 0 C2.835 7.11 3.156 13.763 2.973 21.094 C3 24 3 24 4 26 C4.241 29.828 4.185 33.665 4.188 37.5 C4.2 38.571 4.212 39.642 4.225 40.746 C4.227 41.768 4.228 42.791 4.23 43.844 C4.235 44.784 4.239 45.724 4.243 46.693 C4 49 4 49 2 51 C1.945 49.942 1.889 48.884 1.832 47.794 C1.624 43.813 1.412 39.832 1.2 35.851 C1.11 34.139 1.019 32.426 0.93 30.713 C0.8 28.231 0.668 25.748 0.535 23.266 C0.492 22.461 0.449 21.657 0.405 20.828 C0.097 15.252 -0.342 9.699 -0.916 4.144 C-1 2 -1 2 0 0 Z " fill="#F3DEBF" transform="translate(176,119)"/>
<path d="M0 0 C0.619 0.639 1.237 1.279 1.875 1.938 C12.732 12.763 12.732 12.763 18.562 16.312 C21.346 18.24 21.371 18.853 22 22 C24.062 23.25 24.062 23.25 26 24 C20.93 23.346 16.58 21.145 12 19 C12 18.34 12 17.68 12 17 C10.523 15.748 9.042 14.498 7.508 13.316 C4.85 10.996 3.228 7.788 1.375 4.812 C1.152 4.455 1.152 4.455 0.023 2.645 C-0.314 2.102 -0.652 1.559 -1 1 C-0.67 0.67 -0.34 0.34 0 0 Z " fill="#E4C8A5" transform="translate(55,206)"/>
<path d="M0 0 C0.507 0.153 0.507 0.153 3.07 0.93 C17.332 4.987 34.633 5.954 49 2 C49.165 2.33 49.165 2.33 50 4 C44.791 5.688 40.082 6.36 34.625 6.562 C30.098 6.753 25.764 6.978 21.312 7.875 C15.101 8.68 8.518 5.582 3 3 C1.086 1.328 1.086 1.328 0 0 Z " fill="#B4301F" transform="translate(76,223)"/>
<path d="M0 0 C9.12 8.047 14.942 20.681 17 32.562 C17 36.411 16.377 37.171 14 40 C13.734 38.793 13.469 37.587 13.195 36.344 C12.839 34.729 12.482 33.115 12.125 31.5 C11.951 30.709 11.777 29.917 11.598 29.102 C11.245 27.508 10.888 25.916 10.526 24.325 C10.187 22.828 9.86 21.328 9.546 19.825 C8.545 15.317 7.04 11.986 4.438 8.188 C2.537 5.386 1.073 3.218 0 0 Z " fill="#EA3B33" transform="translate(154,83)"/>
<path d="M0 0 C0.99 0.33 1.98 0.66 3 1 C4.069 3.303 5.072 5.637 6 8 C6.33 8.33 6.66 8.66 7 9 C7.041 11 7.043 13 7 15 C7.66 15 8.32 15 9 15 C10.757 19.504 11.193 23.176 11 28 C10.01 28.33 9.02 28.66 8 29 C7.834 28.431 7.668 27.862 7.497 27.275 C6.732 24.661 5.96 22.049 5.188 19.438 C4.926 18.542 4.665 17.647 4.396 16.725 C3.201 12.696 1.982 8.801 0.238 4.973 C-0.17 3.992 -0.579 3.011 -1 2 C-0.67 1.34 -0.34 0.68 0 0 Z " fill="#F4DEC1" transform="translate(164,93)"/>
<path d="M0 0 C0.299 0.103 0.299 0.103 1.812 0.625 C0.493 0.955 -0.828 1.285 -2.188 1.625 C-2.188 2.285 -2.188 2.945 -2.188 3.625 C-2.847 3.625 -3.507 3.625 -4.188 3.625 C-4.517 4.945 -4.847 6.265 -5.188 7.625 C-5.847 7.625 -6.507 7.625 -7.188 7.625 C-7.309 8.231 -7.43 8.837 -7.555 9.461 C-7.722 10.299 -7.89 11.137 -8.062 12 C-8.244 12.928 -8.426 13.856 -8.613 14.812 C-8.955 16.486 -9.319 18.155 -9.73 19.812 C-11.889 28.902 -11.855 38.327 -12.188 47.625 C-12.847 47.295 -13.507 46.965 -14.188 46.625 C-14.176 45.638 -14.164 44.65 -14.152 43.633 C-14.143 42.351 -14.134 41.07 -14.125 39.75 C-14.113 38.474 -14.102 37.198 -14.09 35.883 C-14.188 32.625 -14.188 32.625 -15.188 30.625 C-15.137 28.531 -15.137 28.531 -14.875 26.125 C-14.796 25.331 -14.718 24.537 -14.637 23.719 C-14.188 21.625 -14.188 21.625 -12.188 19.625 C-11.555 17.242 -11.555 17.242 -11.062 14.5 C-10.979 14.045 -10.979 14.045 -10.555 11.742 C-10.434 11.044 -10.312 10.345 -10.188 9.625 C-9.528 9.625 -8.868 9.625 -8.188 9.625 C-8.517 8.635 -8.847 7.645 -9.188 6.625 C-8.198 6.295 -7.207 5.965 -6.188 5.625 C-5.844 4.294 -5.511 2.961 -5.188 1.625 C-2.188 -0.375 -2.188 -0.375 0 0 Z " fill="#EE2D2B" transform="translate(97.1875,101.375)"/>
<path d="M0 0 C0.33 0 0.66 0 1 0 C1.02 0.751 1.04 1.502 1.06 2.276 C1.156 5.705 1.265 9.134 1.375 12.562 C1.406 13.744 1.437 14.925 1.469 16.143 C1.669 22.108 1.973 27.374 4 33 C4.281 33.817 4.562 34.635 4.852 35.477 C5.107 36.186 5.362 36.895 5.625 37.625 C6.727 40.866 7.335 43.54 7 47 C4.457 46.035 3.246 45.469 1.96 43.02 C-0.488 34.113 -0.34 25.467 -0.188 16.312 C-0.172 14.725 -0.159 13.137 -0.146 11.549 C-0.114 7.699 -0.062 3.85 0 0 Z " fill="#E02521" transform="translate(85,129)"/>
<path d="M0 0 C0.66 0.33 1.32 0.66 2 1 C-8.902 10.331 -21.818 14.408 -36 14.125 C-36.87 14.116 -37.74 14.107 -38.637 14.098 C-40.758 14.074 -42.879 14.038 -45 14 C-41.821 11.881 -40.309 11.816 -36.605 11.774 C-29.132 11.69 -22.468 10.621 -15.375 8.25 C-14.642 8.01 -13.909 7.77 -13.154 7.522 C-8.106 5.729 -4.239 3.271 0 0 Z " fill="#91200E" transform="translate(144,217)"/>
<path d="M0 0 C3.282 3.282 2.834 7.582 3.25 12.062 C3.353 12.98 3.456 13.897 3.562 14.842 C4.082 20.23 3.931 24.781 2.525 30.019 C1.74 32.983 1.388 35.961 1 39 C0.67 39 0.34 39 0 39 C-1.4 10.642 -1.4 10.642 0 0 Z " fill="#F03C36" transform="translate(125,119)"/>
<path d="M0 0 C0.611 0.072 1.222 0.144 1.852 0.219 C16.421 1.696 31.451 1.719 46 0 C36.414 6.391 22.967 5.763 12 4 C11.67 3.67 11.34 3.34 11 3 C8.713 2.718 6.426 2.552 4.129 2.379 C2 2 2 2 0 0 Z " fill="#DFC79E" transform="translate(89,234)"/>
<path d="M0 0 C2.5 0.312 2.5 0.312 5 1 C5.33 1.66 5.66 2.32 6 3 C8.504 3.414 8.504 3.414 11.562 3.625 C12.068 3.662 12.068 3.662 14.629 3.852 C15.02 3.876 15.02 3.876 17 4 C16.67 4.165 16.67 4.165 15 5 C15 5.99 15 6.98 15 8 C13.625 9.688 13.625 9.688 12 11 C11.34 11 10.68 11 10 11 C9 10 9 10 8 8 C5.934 7.586 5.934 7.586 3.438 7.375 C2.611 7.3 1.785 7.225 0.934 7.148 C0.296 7.099 -0.343 7.05 -1 7 C-0.67 6.34 -0.34 5.68 0 5 C-0.66 4.67 -1.32 4.34 -2 4 C-1 1 -1 1 0 0 Z " fill="#FC5C59" transform="translate(98,185)"/>
<path d="M0 0 C0.33 0 0.66 0 1 0 C0.604 11.489 -4.59 23.212 -12 32 C-15.546 35 -15.546 35 -18 35 C-16.965 32.671 -15.877 30.85 -14.25 28.875 C-7.358 20.069 -3.653 10.441 0 0 Z " fill="#C93625" transform="translate(168,174)"/>
<path d="M0 0 C0.66 0 1.32 0 2 0 C2.263 8.272 1.275 15.358 -2 23 C-2.124 23.681 -2.248 24.361 -2.375 25.062 C-3.245 27.759 -4.929 29.13 -7 31 C-6.885 29.562 -6.758 28.124 -6.625 26.688 C-6.555 25.887 -6.486 25.086 -6.414 24.262 C-6 22 -6 22 -4 19 C-3.406 16.915 -3.406 16.915 -2.93 14.551 C-2.756 13.703 -2.582 12.856 -2.402 11.982 C-2.315 11.542 -2.315 11.542 -1.875 9.312 C-1.693 8.42 -1.511 7.527 -1.324 6.607 C-0.877 4.406 -0.436 2.204 0 0 Z " fill="#F3E0BF" transform="translate(178,171)"/>
<path d="M0 0 C0.33 0.66 0.66 1.32 1 2 C0.34 2 -0.32 2 -1 2 C-1 2.66 -1 3.32 -1 4 C-1.99 4.33 -2.98 4.66 -4 5 C-6.426 7.038 -7.71 9.122 -9 12 C-10.32 12 -11.64 12 -13 12 C-13 12.66 -13 13.32 -13 14 C-13.66 14 -14.32 14 -15 14 C-15 14.66 -15 15.32 -15 16 C-14.34 16.33 -13.68 16.66 -13 17 C-15.31 17.33 -17.62 17.66 -20 18 C-17.226 12.479 -14.42 9.223 -9.438 5.625 C-8.861 5.188 -8.284 4.751 -7.689 4.301 C-5.148 2.407 -3.026 1.009 0 0 Z " fill="#FB6969" transform="translate(80,71)"/>
<path d="M0 0 C0.248 0.639 0.495 1.279 0.75 1.938 C2 4 2 4 3.688 4.75 C8.958 5.32 13.168 5.343 18 3 C18.33 3.66 18.66 4.32 19 5 C19.66 4.67 20.32 4.34 21 4 C20.34 5.32 19.68 6.64 19 8 C18.01 8 17.02 8 16 8 C15.37 8.012 14.739 8.023 14.09 8.035 C8.332 8.108 2.717 7.668 -3 7 C-3 6.01 -3 5.02 -3 4 C-3.66 4 -4.32 4 -5 4 C-5 3.01 -5 2.02 -5 1 C-3.68 1 -2.36 1 -1 1 C-0.67 0.67 -0.34 0.34 0 0 Z M2 1 C4 2 4 2 4 2 Z " fill="#F53531" transform="translate(87,214)"/>
<path d="M0 0 C0 0.66 0 1.32 0 2 C-1.32 2 -2.64 2 -4 2 C-9.329 2.581 -11.904 4.984 -15.41 8.879 C-17.378 11.505 -18.304 13.798 -19 17 C-19.667 19 -20.333 21 -21 23 C-21.33 23 -21.66 23 -22 23 C-22.512 14.47 -18.845 8.646 -13.5 2.188 C-9.642 -0.867 -4.667 -0.078 0 0 Z " fill="#F0D3B3" transform="translate(117,119)"/>
<path d="M0 0 C0 3.517 -0.824 4.371 -3 7 C-3.66 6.67 -4.32 6.34 -5 6 C-3.35 4.02 -1.7 2.04 0 0 Z M-7 7 C-6.34 7.33 -5.68 7.66 -5 8 C-5.33 8.495 -5.33 8.495 -7 11 C-7.66 11 -8.32 11 -9 11 C-9.33 11.99 -9.66 12.98 -10 14 C-16.396 19.966 -22.168 23.307 -31 23 C-29 21 -29 21 -26.062 19.812 C-18.97 16.892 -12.25 12.594 -7 7 Z " fill="#CDAD80" transform="translate(157,210)"/>
<path d="M0 0 C2.313 0.307 4.626 0.621 6.938 0.938 C8.225 1.112 9.513 1.286 10.84 1.465 C14 2 14 2 15 3 C22.158 4.15 29.247 4.878 36.312 2.938 C39.815 2.047 40.77 1.98 44 3 C37.931 5.642 33.145 6.42 26.562 6.25 C25.768 6.245 24.973 6.24 24.154 6.234 C17.36 6.146 10.585 5.762 4 4 C4 3.34 4 2.68 4 2 C2.68 2 1.36 2 0 2 C0 1.34 0 0.68 0 0 Z " fill="#E8D4AD" transform="translate(86,234)"/>
<path d="M0 0 C0.33 0.66 0.66 1.32 1 2 C2.65 1.34 4.3 0.68 6 0 C6.66 0.66 7.32 1.32 8 2 C6.5 6.501 3.865 8.435 -0.062 11 C-2.758 12.835 -4.259 14.292 -6 17 C-5.524 12.712 -4.341 10.734 -1 8 C-0.34 8 0.32 8 1 8 C1 7.34 1 6.68 1 6 C-0.65 5.67 -2.3 5.34 -4 5 C-4 3.68 -4 2.36 -4 1 C-2.68 0.67 -1.36 0.34 0 0 Z " fill="#FB514E" transform="translate(90,182)"/>
<path d="M0 0 C0.33 0 0.66 0 1 0 C1.381 12.066 0.512 23.189 -2 35 C-2.495 35.165 -2.495 35.165 -5 36 C-6 34 -6 34 -5.512 31.969 C-5.24 31.154 -4.968 30.339 -4.688 29.5 C1.456 9.913 1.456 9.913 -2 3 C-1.34 2.01 -0.68 1.02 0 0 Z " fill="#E92C25" transform="translate(170,143)"/>
<path d="M0 0 C0.33 0 0.66 0 1 0 C1.877 33.254 1.877 33.254 -3 45 C-3.33 45.165 -3.33 45.165 -5 46 C-4.712 44.187 -4.419 42.375 -4.125 40.562 C-4.044 40.058 -4.044 40.058 -3.633 37.504 C-3.302 35.674 -2.961 33.844 -2.505 32.041 C-0.826 25.36 -0.565 18.805 -0.375 11.938 C-0.336 10.786 -0.298 9.634 -0.258 8.447 C-0.164 5.632 -0.079 2.816 0 0 Z " fill="#EBD4B0" transform="translate(177,147)"/>
<path d="M0 0 C0.538 0.139 0.538 0.139 3.262 0.84 C12.227 3.085 20.732 4.678 30 5 C30 5.33 30 5.66 30 6 C8.055 7.904 8.055 7.904 2 5 C0.715 2.414 0.715 2.414 0 0 Z " fill="#CCAB81" transform="translate(82,227)"/>
<path d="M0 0 C0.99 0.33 1.98 0.66 3 1 C2.885 3.709 2.759 6.417 2.625 9.125 C2.594 9.886 2.563 10.646 2.531 11.43 C2.298 15.946 1.673 19.742 0 24 C-2.431 20.354 -2.103 19.086 -1.688 14.812 C-1.579 13.66 -1.471 12.508 -1.359 11.32 C-0.95 7.539 -0.517 3.768 0 0 Z " fill="#DDBB92" transform="translate(173,158)"/>
<path d="M0 0 C0.994 0.009 1.988 0.018 3.012 0.027 C3.391 0.033 3.391 0.033 5.312 0.062 C5.642 1.052 5.972 2.043 6.312 3.062 C5.653 3.062 4.993 3.062 4.312 3.062 C4.312 2.403 4.312 1.743 4.312 1.062 C2.393 1.292 0.477 1.547 -1.438 1.812 C-2.505 1.952 -3.572 2.091 -4.672 2.234 C-9.021 3.429 -10.761 5.58 -13.102 9.324 C-15.876 14.882 -17.602 19.942 -18.688 26.062 C-19.017 26.062 -19.347 26.062 -19.688 26.062 C-20.144 19.066 -19.254 12.324 -14.812 6.68 C-9.97 1.712 -7.045 -0.083 0 0 Z " fill="#E7C4A2" transform="translate(112.6875,117.9375)"/>
<path d="M0 0 C0.33 0.66 0.66 1.32 1 2 C3.31 2 5.62 2 8 2 C8 2.99 8 3.98 8 5 C5.5 7.188 5.5 7.188 3 9 C2.67 8.34 2.34 7.68 2 7 C1.01 6.67 0.02 6.34 -1 6 C-0.67 5.34 -0.34 4.68 0 4 C-2.31 4.66 -4.62 5.32 -7 6 C-7.33 4.35 -7.66 2.7 -8 1 C-7.051 1.021 -6.103 1.041 -5.125 1.062 C-2 1 -2 1 0 0 Z " fill="#FC5F5B" transform="translate(113,65)"/>
<path d="M0 0 C0.99 0.33 1.98 0.66 3 1 C2.765 3.394 2.527 5.787 2.281 8.18 C2.1 9.996 1.932 11.814 1.781 13.633 C1.59 15.763 1.302 17.883 1 20 C0.34 20.33 -0.32 20.66 -1 21 C-2.004 17.649 -2.165 14.554 -2.188 11.062 C-2.202 10.043 -2.216 9.023 -2.23 7.973 C-1.994 4.928 -1.283 2.753 0 0 Z " fill="#FA605C" transform="translate(130,145)"/>
<path d="M0 0 C4.858 7.286 4.301 17.514 4 26 C3.01 26 2.02 26 1 26 C0.635 22.418 0.285 18.834 -0.062 15.25 C-0.166 14.234 -0.27 13.218 -0.377 12.172 C-0.47 11.192 -0.564 10.213 -0.66 9.203 C-0.749 8.302 -0.838 7.402 -0.93 6.474 C-0.998 4.083 -0.707 2.271 0 0 Z " fill="#EBD1AF" transform="translate(173,118)"/>
<path d="M0 0 C0.33 0.66 0.66 1.32 1 2 C1.66 2 2.32 2 3 2 C3 2.66 3 3.32 3 4 C3.66 4 4.32 4 5 4 C5.33 4.99 5.66 5.98 6 7 C8.062 7.688 8.062 7.688 10 8 C10 8.66 10 9.32 10 10 C10.66 10 11.32 10 12 10 C13.038 11.643 14.036 13.312 15 15 C15.66 15.66 16.32 16.32 17 17 C16.01 17.33 15.02 17.66 14 18 C12.062 16.707 12.062 16.707 10 14.812 C9.319 14.2 8.639 13.588 7.938 12.957 C3 7.97 3 7.97 3 5 C2.34 5 1.68 5 1 5 C0.67 3.35 0.34 1.7 0 0 Z " fill="#E92E29" transform="translate(54,197)"/>
<path d="M0 0 C2 2 2 2 2.047 5.625 C1.959 7.084 1.86 8.542 1.75 10 C1.71 10.737 1.67 11.475 1.629 12.234 C1.257 17.743 1.257 17.743 -1 20 C-1.714 21.984 -2.386 23.983 -3 26 C-3.33 26 -3.66 26 -4 26 C-3.67 21.38 -3.34 16.76 -3 12 C-2.67 12 -2.34 12 -2 12 C-1.663 10.563 -1.33 9.126 -1 7.688 C-0.814 6.887 -0.629 6.086 -0.438 5.262 C0 3 0 3 0 0 Z " fill="#F74943" transform="translate(127,144)"/>
<path d="M0 0 C0.33 0.66 0.66 1.32 1 2 C-2.394 7.248 -5.753 12.399 -10 17 C-10.66 17 -11.32 17 -12 17 C-12 17.66 -12 18.32 -12 19 C-13.68 20.324 -13.68 20.324 -15.875 21.688 C-16.594 22.145 -17.314 22.603 -18.055 23.074 C-18.376 23.227 -18.376 23.227 -20 24 C-20.66 23.67 -21.32 23.34 -22 23 C-21.154 22.505 -20.309 22.01 -19.438 21.5 C-15.895 19.152 -13.381 16.186 -10.664 12.949 C-9 11 -9 11 -6.312 8.375 C-3.749 5.742 -1.949 3.105 0 0 Z " fill="#DDC398" transform="translate(162,207)"/>
<path d="M0 0 C0.66 0 1.32 0 2 0 C2 0.66 2 1.32 2 2 C1.34 2 0.68 2 0 2 C-0.241 2.563 -0.482 3.127 -0.73 3.707 C-2.261 6.471 -4.098 8.436 -6.312 10.688 C-7.072 11.475 -7.831 12.263 -8.613 13.074 C-11.17 15.137 -12.772 15.663 -16 16 C-16 14 -16 14 -14.391 12.309 C-13.684 11.691 -12.978 11.074 -12.25 10.438 C-11.554 9.817 -10.858 9.197 -10.141 8.559 C-8.02 7.015 -6.561 6.421 -4 6 C-4 5.34 -4 4.68 -4 4 C-3.34 4 -2.68 4 -2 4 C-1.34 2.68 -0.68 1.36 0 0 Z " fill="#E82B26" transform="translate(153,199)"/>
<path d="M0 0 C1.034 0.019 2.068 0.039 3.133 0.059 C4.161 0.06 5.19 0.061 6.25 0.062 C9.574 0.542 11.523 1.594 14.258 3.496 C13.928 3.661 13.928 3.661 12.258 4.496 C11.598 4.166 10.938 3.836 10.258 3.496 C7.925 3.456 5.591 3.453 3.258 3.496 C3.258 3.826 3.258 4.156 3.258 4.496 C2.945 4.599 2.945 4.599 1.359 5.117 C0.542 5.387 -0.275 5.656 -1.117 5.934 C-1.929 6.2 -2.741 6.467 -3.578 6.742 C-5.742 7.496 -5.742 7.496 -7.742 8.496 C-4.146 0.75 -4.146 0.75 0 0 Z " fill="#C41C18" transform="translate(101.7421875,100.50390625)"/>
<path d="M0 0 C0.33 0 0.66 0 1 0 C1 7.59 1 15.18 1 23 C-0.32 22.67 -1.64 22.34 -3 22 C-2.67 21.34 -2.34 20.68 -2 20 C-1.974 16.642 -2.028 13.298 -2.127 9.941 C-2.187 6.115 -2.163 3.241 0 0 Z " fill="#ED322B" transform="translate(170,119)"/>
<path d="M0 0 C3 3.75 3 3.75 3 6 C3.66 6 4.32 6 5 6 C5 7.32 5 8.64 5 10 C5.66 10 6.32 10 7 10 C7.756 15.235 8.206 19.773 7 25 C6.67 25 6.34 25 6 25 C5.951 24.571 5.951 24.571 5.703 22.402 C4.331 11.91 4.331 11.91 1.875 8 C-0.052 4.917 -0.429 3.543 0 0 Z " fill="#E12E27" transform="translate(118,107)"/>
<path d="M0 0 C3.083 -0.029 6.167 -0.047 9.25 -0.062 C10.123 -0.071 10.995 -0.079 11.895 -0.088 C12.739 -0.091 13.583 -0.094 14.453 -0.098 C15.228 -0.103 16.003 -0.108 16.802 -0.114 C20.656 0.086 23.616 1.187 27 3 C17.77 3.249 9.081 2.689 0 1 C0 0.67 0 0.34 0 0 Z " fill="#E72924" transform="translate(85,221)"/>
<path d="M0 0 C0.33 0 0.66 0 1 0 C0.362 5.642 -0.521 11.144 -1.75 16.688 C-1.894 17.42 -2.039 18.153 -2.188 18.908 C-3.34 24.063 -4.946 26.597 -9 30 C-8.371 27.363 -7.625 24.893 -6.75 22.312 C-4.259 14.951 -2.167 7.461 0 0 Z " fill="#E1C79F" transform="translate(174,176)"/>
<path d="M0 0 C0.66 0 1.32 0 2 0 C1.352 3.497 0.098 6.126 -2 9 C-3.329 9.349 -4.663 9.68 -6 10 C-7.34 10.788 -8.653 11.625 -9.938 12.5 C-12.952 14.455 -15.355 15.658 -19 16 C-16.614 13.379 -14.042 11.677 -11 9.875 C-10.134 9.357 -9.268 8.839 -8.375 8.305 C-6 7 -6 7 -3 6 C-3 5.34 -3 4.68 -3 4 C-2.34 4 -1.68 4 -1 4 C-0.67 2.68 -0.34 1.36 0 0 Z " fill="#AB2917" transform="translate(149,209)"/>
<path d="M0 0 C0.33 1.32 0.66 2.64 1 4 C-1.962 5.671 -4.371 6.327 -7.75 6.625 C-8.549 6.7 -9.348 6.775 -10.172 6.852 C-10.775 6.901 -11.378 6.95 -12 7 C-12.33 6.34 -12.66 5.68 -13 5 C-12.34 5 -11.68 5 -11 5 C-11 4.34 -11 3.68 -11 3 C-3.571 0.857 -3.571 0.857 0 0 Z " fill="#F5302D" transform="translate(120,216)"/>
<path d="M0 0 C0.33 0.66 0.66 1.32 1 2 C-2.136 6.889 -4.277 10.129 -10 12 C-13.02 12.218 -15.979 12.181 -19 12 C-19.33 11.34 -19.66 10.68 -20 10 C-19.42 9.963 -18.84 9.925 -18.242 9.887 C-12.57 9.409 -7.673 8.772 -3.523 4.469 C-2.3 3.019 -1.144 1.513 0 0 Z " fill="#FC827C" transform="translate(123,177)"/>
<path d="M0 0 C3.551 1.42 4.401 2.613 6 6 C9.25 10.396 12.672 13.455 17.133 16.605 C18.931 17.948 20.457 19.375 22 21 C17.101 20.586 14.414 18.144 11 14.875 C10.472 14.379 9.944 13.884 9.399 13.373 C5.733 9.868 2.609 6.379 0 2 C0 1.34 0 0.68 0 0 Z " fill="#A73823" transform="translate(53,201)"/>
<path d="M0 0 C2.943 0.307 5.345 0.673 8 2 C8 2.66 8 3.32 8 4 C7.34 4 6.68 4 6 4 C6.33 5.32 6.66 6.64 7 8 C6.01 8.33 5.02 8.66 4 9 C4.33 7.35 4.66 5.7 5 4 C3.02 4.66 1.04 5.32 -1 6 C-1.625 4.125 -1.625 4.125 -2 2 C-1.34 1.34 -0.68 0.68 0 0 Z " fill="#FC5A59" transform="translate(125,67)"/>
<path d="M0 0 C2.875 1.25 2.875 1.25 6 3 C6.217 3.66 6.433 4.32 6.656 5 C8.324 7.483 9.053 7.463 11.914 8.047 C13.482 8.299 15.052 8.533 16.625 8.75 C17.427 8.875 18.229 9 19.055 9.129 C21.034 9.435 23.017 9.72 25 10 C25 10.33 25 10.66 25 11 C19.008 11.222 12.65 11.227 7 9 C5.844 6.969 5.844 6.969 5 5 C2.875 4.25 2.875 4.25 1 4 C0.67 2.68 0.34 1.36 0 0 Z " fill="#D8BD94" transform="translate(76,224)"/>
<path d="M0 0 C0.99 0 1.98 0 3 0 C4.688 2 4.688 2 6 4 C5.34 4.66 4.68 5.32 4 6 C3.67 7.176 3.34 8.351 3 9.562 C2.67 10.697 2.34 11.831 2 13 C1.67 13.165 1.67 13.165 0 14 C0 9.38 0 4.76 0 0 Z " fill="#FB635E" transform="translate(129,130)"/>
<path d="M0 0 C0.33 0 0.66 0 1 0 C0.859 2.896 0.712 5.792 0.562 8.688 C0.543 9.096 0.543 9.096 0.443 11.162 C0.231 15.197 -0.044 19.057 -1 23 C-1.33 23 -1.66 23 -2 23 C-2.058 19.542 -2.094 16.084 -2.125 12.625 C-2.142 11.64 -2.159 10.655 -2.176 9.641 C-2.182 8.7 -2.189 7.759 -2.195 6.789 C-2.206 5.92 -2.216 5.05 -2.227 4.155 C-2 2 -2 2 0 0 Z " fill="#D8AC87" transform="translate(91,138)"/>
<path d="M0 0 C0.33 0 0.66 0 1 0 C1.236 5.778 0.868 10.513 -1 16 C-1.33 15.34 -1.66 14.68 -2 14 C-2.66 13.67 -3.32 13.34 -4 13 C-3.34 13 -2.68 13 -2 13 C-2 12.34 -2 11.68 -2 11 C-2.66 10.67 -3.32 10.34 -4 10 C-3.34 10 -2.68 10 -2 10 C-2 9.34 -2 8.68 -2 8 C-2.66 7.67 -3.32 7.34 -4 7 C-3.34 7 -2.68 7 -2 7 C-2.041 6.216 -2.083 5.433 -2.125 4.625 C-2 2 -2 2 0 0 Z " fill="#F63631" transform="translate(169,148)"/>
<path d="M0 0 C0.66 0.33 1.32 0.66 2 1 C1.734 1.508 1.469 2.016 1.195 2.539 C-0.9 6.622 -2.676 10.587 -4 15 C-4.66 15 -5.32 15 -6 15 C-5.537 9.632 -4.863 5.695 -2 1 C-1.34 0.67 -0.68 0.34 0 0 Z " fill="#B77856" transform="translate(96,116)"/>
<path d="M0 0 C0.99 0.33 1.98 0.66 3 1 C4.753 4.573 6.218 8.088 7 12 C5.68 12 4.36 12 3 12 C2.303 10.379 1.618 8.753 0.938 7.125 C0.555 6.22 0.172 5.315 -0.223 4.383 C-1 2 -1 2 0 0 Z " fill="#F8E3C7" transform="translate(164,93)"/>
<path d="M0 0 C3.002 4.503 4.319 8.578 4 14 C2.125 13.375 2.125 13.375 0 12 C-1.346 9.052 -2.137 6.988 -1.688 3.75 C-1 2 -1 2 0 0 Z " fill="#DE3429" transform="translate(88,162)"/>
<path d="M0 0 C0.688 1.688 0.688 1.688 1 4 C0.041 5.69 -0.966 7.354 -2 9 C-2.351 10.238 -2.701 11.475 -3.062 12.75 C-3.217 13.286 -3.217 13.286 -4 16 C-4.66 16.33 -5.32 16.66 -6 17 C-6 14.36 -6 11.72 -6 9 C-5.01 8.67 -4.02 8.34 -3 8 C-2.257 5.69 -1.589 3.354 -1 1 C-0.67 0.67 -0.34 0.34 0 0 Z " fill="#CC9B77" transform="translate(95,123)"/>
<path d="M0 0 C0.33 0 0.66 0 1 0 C1 3.96 1 7.92 1 12 C0.01 12.33 -0.98 12.66 -2 13 C-3.188 15.062 -3.188 15.062 -4 17 C-5.327 13.018 -3.999 10.552 -2.562 6.812 C-2.441 6.485 -2.441 6.485 -1.826 4.83 C-1.226 3.217 -0.614 1.608 0 0 Z " fill="#FB6661" transform="translate(128,162)"/>
<path d="M0 0 C0.666 0.182 1.333 0.364 2.02 0.551 C2.48 0.676 2.48 0.676 4.812 1.312 C10.542 2.875 16.271 4.438 22 6 C22 6.33 22 6.66 22 7 C14.071 7.661 8.013 5.757 1 2 C0.67 1.34 0.34 0.68 0 0 Z " fill="#982C16" transform="translate(76,223)"/>
<path d="M0 0 C0.33 0 0.66 0 1 0 C0.626 7.6 -1.576 13.24 -5 20 C-5.66 20 -6.32 20 -7 20 C-4.81 13.28 -2.442 6.633 0 0 Z " fill="#D83C2E" transform="translate(168,174)"/>
<path d="M0 0 C0.703 1.742 0.703 1.742 1 4 C-0.328 6.07 -0.328 6.07 -2.25 8.125 C-2.874 8.808 -3.498 9.491 -4.141 10.195 C-6 12 -6 12 -9 14 C-7.75 10.347 -7.329 9.219 -4 7 C-3.298 5.348 -2.63 3.681 -2 2 C-1.34 1.34 -0.68 0.68 0 0 Z " fill="#F1DFBE" transform="translate(170,204)"/>
<path d="M0 0 C0.484 -0.013 0.484 -0.013 2.934 -0.078 C5.562 0.25 5.562 0.25 7.41 1.766 C7.79 2.255 8.171 2.745 8.562 3.25 C8.116 3.238 8.116 3.238 5.859 3.18 C5.274 3.171 5.274 3.171 2.312 3.125 C1.152 3.102 -0.008 3.079 -1.203 3.055 C-4.265 3.24 -5.88 3.642 -8.438 5.25 C-8.062 3.312 -8.062 3.312 -7.438 1.25 C-4.857 -0.04 -2.88 0.046 0 0 Z " fill="#A41C12" transform="translate(105.4375,104.75)"/>
<path d="M0 0 C-2 2 -2 2 -4.247 2.135 C-5.158 2.083 -6.069 2.031 -7.008 1.977 C-7.994 1.925 -8.98 1.873 -9.996 1.82 C-10.512 1.788 -10.512 1.788 -13.125 1.625 C-13.645 1.597 -13.645 1.597 -16.277 1.453 C-18.852 1.311 -21.426 1.16 -24 1 C-24 0.67 -24 0.34 -24 0 C-20.938 -0.195 -17.876 -0.382 -14.812 -0.562 C-14.38 -0.591 -14.38 -0.591 -12.193 -0.732 C-7.953 -0.976 -4.142 -1.158 0 0 Z " fill="#BA8A64" transform="translate(123,231)"/>
<path d="M0 0 C1.162 2.866 0.995 4.016 0.004 7.016 C-0.234 7.549 -0.234 7.549 -1.438 10.25 C-1.911 11.328 -2.384 12.405 -2.871 13.516 C-3.244 14.335 -3.616 15.155 -4 16 C-5.158 12.527 -5.069 9.639 -5 6 C-4.34 6 -3.68 6 -3 6 C-2.691 5.196 -2.381 4.391 -2.062 3.562 C-1 1 -1 1 0 0 Z " fill="#FB5854" transform="translate(127,162)"/>
<path d="M0 0 C0.299 0.103 0.299 0.103 1.812 0.625 C0.493 0.955 -0.828 1.285 -2.188 1.625 C-2.188 2.285 -2.188 2.945 -2.188 3.625 C-2.847 3.625 -3.507 3.625 -4.188 3.625 C-4.517 4.945 -4.847 6.265 -5.188 7.625 C-5.847 7.625 -6.507 7.625 -7.188 7.625 C-7.311 8.244 -7.435 8.862 -7.562 9.5 C-8.188 11.625 -8.188 11.625 -10.188 13.625 C-10.188 12.305 -10.188 10.985 -10.188 9.625 C-9.528 9.625 -8.868 9.625 -8.188 9.625 C-8.517 8.635 -8.847 7.645 -9.188 6.625 C-8.198 6.295 -7.207 5.965 -6.188 5.625 C-5.844 4.294 -5.511 2.961 -5.188 1.625 C-2.188 -0.375 -2.188 -0.375 0 0 Z " fill="#F23432" transform="translate(97.1875,101.375)"/>
<path d="M0 0 C2.499 0.463 4.18 1.109 6.375 2.438 C9 4 9 4 12.25 5 C13.157 5.33 14.065 5.66 15 6 C15.33 6.99 15.66 7.98 16 9 C10.598 7.476 5.685 5.077 1 2 C0.67 1.34 0.34 0.68 0 0 Z " fill="#D32820" transform="translate(69,214)"/>
<path d="M0 0 C2.246 1.774 2.951 2.584 3.293 5.48 C3.258 6.374 3.223 7.267 3.188 8.188 C3.16 9.089 3.133 9.99 3.105 10.918 C3.071 11.605 3.036 12.292 3 13 C2.34 12.34 1.68 11.68 1 11 C1 9.68 1 8.36 1 7 C0.34 7 -0.32 7 -1 7 C-1.33 5.68 -1.66 4.36 -2 3 C-1.34 3 -0.68 3 0 3 C0 2.01 0 1.02 0 0 Z " fill="#F83130" transform="translate(82,146)"/>
<path d="M0 0 C-7.846 5.846 -7.846 5.846 -12 7 C-12.99 6.67 -13.98 6.34 -15 6 C-13.02 5.34 -11.04 4.68 -9 4 C-9 3.34 -9 2.68 -9 2 C-3.375 -1.125 -3.375 -1.125 0 0 Z " fill="#D1241B" transform="translate(142,215)"/>
<path d="M0 0 C0.66 0.33 1.32 0.66 2 1 C1.257 1.866 0.515 2.733 -0.25 3.625 C-2.749 6.615 -4.894 9.724 -7 13 C-8 10 -8 10 -7 7 C-6.34 7 -5.68 7 -5 7 C-4.67 5.68 -4.34 4.36 -4 3 C-3.34 3 -2.68 3 -2 3 C-2 2.34 -2 1.68 -2 1 C-1.34 0.67 -0.68 0.34 0 0 Z " fill="#DA2420" transform="translate(97,102)"/>
<path d="M0 0 C1.049 3.148 0.987 3.987 0.188 7.062 C0.016 7.755 -0.155 8.447 -0.332 9.16 C-1 11 -1 11 -3 13 C-3.707 14.65 -4.379 16.316 -5 18 C-6 15 -6 15 -5.293 13.203 C-4.928 12.559 -4.563 11.914 -4.188 11.25 C-2.204 7.544 -1.018 4.071 0 0 Z " fill="#EAD6B1" transform="translate(171,194)"/>
<path d="M0 0 C-10.374 5.371 -10.374 5.371 -16 7 C-11.994 2.326 -6.275 -2.171 0 0 Z " fill="#FA5352" transform="translate(87,65)"/>
<path d="M0 0 C3.3 0.99 6.6 1.98 10 3 C8 5 8 5 4.875 5.125 C3.926 5.084 2.978 5.042 2 5 C1.34 3.35 0.68 1.7 0 0 Z " fill="#D1B389" transform="translate(82,227)"/>
<path d="M0 0 C0.33 0.66 0.66 1.32 1 2 C2.32 2 3.64 2 5 2 C5 2.66 5 3.32 5 4 C6.32 3.67 7.64 3.34 9 3 C9 3.66 9 4.32 9 5 C9.66 5 10.32 5 11 5 C10.67 5.66 10.34 6.32 10 7 C8.538 6.576 7.08 6.135 5.625 5.688 C4.813 5.444 4.001 5.2 3.164 4.949 C1 4 1 4 -1 1 C-0.67 0.67 -0.34 0.34 0 0 Z " fill="#EA2E29" transform="translate(73,213)"/>
<path d="M0 0 C0.66 0.33 1.32 0.66 2 1 C1.34 3.31 0.68 5.62 0 8 C-0.66 8 -1.32 8 -2 8 C-2 8.66 -2 9.32 -2 10 C-2.99 9.67 -3.98 9.34 -5 9 C-3.35 6.03 -1.7 3.06 0 0 Z " fill="#CB9A71" transform="translate(164,194)"/>
<path d="M0 0 C0.33 0.99 0.66 1.98 1 3 C-0.215 4.824 -0.215 4.824 -1.938 6.688 C-2.503 7.31 -3.069 7.933 -3.652 8.574 C-4.097 9.045 -4.542 9.515 -5 10 C-5.66 9.67 -6.32 9.34 -7 9 C-5.445 5.183 -2.964 2.808 0 0 Z " fill="#EFDEBC" transform="translate(160,218)"/>
<path d="M0 0 C0.404 0.009 0.404 0.009 2.449 0.055 C2.757 0.066 2.757 0.066 4.312 0.125 C2 2.438 0.833 2.621 -2.312 3.25 C-3.13 3.418 -3.947 3.585 -4.789 3.758 C-5.102 3.818 -5.102 3.818 -6.688 4.125 C-7.017 3.465 -7.347 2.805 -7.688 2.125 C-4.484 -0.011 -3.668 -0.106 0 0 Z " fill="#AE6648" transform="translate(106.6875,107.875)"/>
<path d="M0 0 C0.33 0.99 0.66 1.98 1 3 C0.67 3.495 0.67 3.495 -1 6 C-4.125 6.188 -4.125 6.188 -7 6 C-7.33 5.34 -7.66 4.68 -8 4 C-7.34 4 -6.68 4 -6 4 C-6 3.34 -6 2.68 -6 2 C-5.34 2 -4.68 2 -4 2 C-4 2.66 -4 3.32 -4 4 C-3.34 4 -2.68 4 -2 4 C-1.34 2.68 -0.68 1.36 0 0 Z " fill="#FA3E3C" transform="translate(109,93)"/>
<path d="M0 0 C4.11 1.45 7.433 3.511 11 6 C10.01 6.66 9.02 7.32 8 8 C6.664 6.858 5.331 5.711 4 4.562 C3.258 3.924 2.515 3.286 1.75 2.629 C1.172 2.091 0.595 1.554 0 1 C0 0.67 0 0.34 0 0 Z " fill="#DA2F26" transform="translate(60,207)"/>
<path d="M0 0 C0.66 0.33 1.32 0.66 2 1 C2.75 3.938 2.75 3.938 3 7 C2.34 7.66 1.68 8.32 1 9 C0.876 8.361 0.752 7.721 0.625 7.062 C0.522 6.722 0.522 6.722 0 5 C-0.66 4.67 -1.32 4.34 -2 4 C-1.34 2.68 -0.68 1.36 0 0 Z " fill="#E5C0A1" transform="translate(120,119)"/>
<path d="M0 0 C0.66 0.33 1.32 0.66 2 1 C0.218 3.301 -1.163 4.8 -4.047 5.488 C-6.025 5.723 -8.013 5.868 -10 6 C-8.033 4.033 -6.456 3.063 -4 1.812 C-3.299 1.448 -2.597 1.083 -1.875 0.707 C-1.256 0.474 -0.637 0.24 0 0 Z " fill="#E5D0A9" transform="translate(145,228)"/>
<path d="M0 0 C2.648 2.578 4.944 4.916 7 8 C6.01 8.33 5.02 8.66 4 9 C2.35 6.36 0.7 3.72 -1 1 C-0.67 0.67 -0.34 0.34 0 0 Z " fill="#EFD3B1" transform="translate(55,206)"/>
<path d="M0 0 C3.63 1.98 7.26 3.96 11 6 C7.084 7.305 5.961 6.322 2.312 4.562 C1.319 4.089 0.325 3.616 -0.699 3.129 C-1.458 2.756 -2.218 2.384 -3 2 C-2.01 1.34 -1.02 0.68 0 0 Z " fill="#E5D1AC" transform="translate(70,223)"/>
<path d="M0 0 C0.99 0 1.98 0 3 0 C3.082 3.044 2.976 5.072 2 8 C1.34 8 0.68 8 0 8 C-0.381 5.674 -0.713 3.339 -1 1 C-0.67 0.67 -0.34 0.34 0 0 Z " fill="#FC6762" transform="translate(44,134)"/>
<path d="M0 0 C0.99 0 1.98 0 3 0 C4.166 4.196 4.09 4.821 2 9 C1.34 6.03 0.68 3.06 0 0 Z " fill="#EED7BA" transform="translate(170,113)"/>
<path d="M0 0 C2.36 2.36 2.491 3.779 3 7 C2.67 7.165 2.67 7.165 1 8 C0.34 7.67 -0.32 7.34 -1 7 C-1.043 5 -1.041 3 -1 1 C-0.67 0.67 -0.34 0.34 0 0 Z " fill="#E8463B" transform="translate(165,100)"/>
<path d="M0 0 C3.375 -0.125 3.375 -0.125 7 0 C7.66 0.66 8.32 1.32 9 2 C7.515 2.165 7.515 2.165 0 3 C0 2.01 0 1.02 0 0 Z " fill="#FD5759" transform="translate(89,62)"/>
<path d="M0 0 C0.66 0 1.32 0 2 0 C0.557 3.366 -1.333 5.51 -4 8 C-4 6.35 -4 4.7 -4 3 C-2.68 2.67 -1.36 2.34 0 2 C0 1.34 0 0.68 0 0 Z " fill="#D0AA7D" transform="translate(162,202)"/>
<path d="M0 0 C0.688 1.688 0.688 1.688 1 4 C-0.438 6.75 -0.438 6.75 -2 9 C-2.66 8.01 -3.32 7.02 -4 6 C-3.01 5.67 -2.02 5.34 -1 5 C-0.67 3.35 -0.34 1.7 0 0 Z M-5 7 C-4.67 7.66 -4.34 8.32 -4 9 C-4.66 8.67 -5.32 8.34 -6 8 C-5.67 7.67 -5.34 7.34 -5 7 Z " fill="#FA3934" transform="translate(160,181)"/>
<path d="M0 0 C0.66 0 1.32 0 2 0 C1.436 3.27 0.5 4.826 -2 7 C-2.99 6.67 -3.98 6.34 -5 6 C-4.34 6 -3.68 6 -3 6 C-3 5.34 -3 4.68 -3 4 C-2.34 4 -1.68 4 -1 4 C-0.67 2.68 -0.34 1.36 0 0 Z " fill="#BA2F1E" transform="translate(149,209)"/>
<path d="M0 0 C2 2 2 2 2.125 4.625 C2.084 5.409 2.043 6.192 2 7 C1.01 7 0.02 7 -1 7 C-1.625 5.188 -1.625 5.188 -2 3 C-1.34 2.01 -0.68 1.02 0 0 Z " fill="#F7E0C7" transform="translate(96,173)"/>
<path d="M0 0 C0.33 0 0.66 0 1 0 C0.25 6.75 0.25 6.75 -2 9 C-3 6 -3 6 -1.562 2.812 C-1.047 1.884 -0.531 0.956 0 0 Z " fill="#FC7771" transform="translate(126,170)"/>
<path d="M0 0 C2.29 3.435 2.178 4.985 2 9 C1.01 9 0.02 9 -1 9 C-0.67 6.03 -0.34 3.06 0 0 Z " fill="#D7AC84" transform="translate(172,166)"/>
<path d="M0 0 C0 0.99 0 1.98 0 3 C-0.99 2.34 -1.98 1.68 -3 1 C-5.324 0.606 -7.658 0.265 -10 0 C-10 -0.33 -10 -0.66 -10 -1 C-5.922 -1.927 -3.578 -2.34 0 0 Z " fill="#C48A66" transform="translate(118,113)"/>
<path d="M0 0 C1.98 0 3.96 0 6 0 C6.33 0.99 6.66 1.98 7 3 C4 4 4 4 1.812 3.062 C1.214 2.712 0.616 2.361 0 2 C0 1.34 0 0.68 0 0 Z " fill="#FC5958" transform="translate(117,62)"/>
<path d="M0 0 C0.99 1.32 1.98 2.64 3 4 C2.67 4.66 2.34 5.32 2 6 C1.01 6 0.02 6 -1 6 C-1 5.34 -1 4.68 -1 4 C-1.66 3.67 -2.32 3.34 -3 3 C-2.01 2.67 -1.02 2.34 0 2 C0 1.34 0 0.68 0 0 Z " fill="#EE4638" transform="translate(92,174)"/>
<path d="M0 0 C0.66 0.33 1.32 0.66 2 1 C1.34 2.98 0.68 4.96 0 7 C-0.66 7 -1.32 7 -2 7 C-2.125 4.625 -2.125 4.625 -2 2 C-1.34 1.34 -0.68 0.68 0 0 Z " fill="#C08663" transform="translate(92,124)"/>
<path d="M0 0 C0.33 0.66 0.66 1.32 1 2 C1.66 2 2.32 2 3 2 C3.33 1.34 3.66 0.68 4 0 C3.25 5.75 3.25 5.75 1 8 C0.67 5.36 0.34 2.72 0 0 Z " fill="#FB6361" transform="translate(44,108)"/>
<path d="M0 0 C0.66 0 1.32 0 2 0 C1 3 1 3 -2.438 4.75 C-3.613 5.162 -4.789 5.575 -6 6 C-6.66 5.67 -7.32 5.34 -8 5 C-7.051 4.546 -6.103 4.093 -5.125 3.625 C-2 2 -2 2 0 0 Z " fill="#FD5453" transform="translate(85,103)"/>
<path d="M0 0 C0 0.66 0 1.32 0 2 C-0.567 2.144 -0.567 2.144 -3.438 2.875 C-4.613 3.246 -5.789 3.618 -7 4 C-7.33 4.66 -7.66 5.32 -8 6 C-8 4.68 -8 3.36 -8 2 C-2.25 0 -2.25 0 0 0 Z " fill="#F83D3C" transform="translate(99,99)"/>
</svg>
