<?xml version="1.0" encoding="UTF-8"?>
<!-- Generator: visioncortex VTracer 0.6.12 -->
<svg version="1.1" xmlns="http://www.w3.org/2000/svg" width="210" height="275">
<path d="M0 0 C69.3 0 138.6 0 210 0 C210 90.75 210 181.5 210 275 C140.7 275 71.4 275 0 275 C0 184.25 0 93.5 0 0 Z " fill="#FDF7E2" transform="translate(0,0)"/>
<path d="M0 0 C2.125 0.003 4.248 -0.02 6.372 -0.046 C7.739 -0.048 9.106 -0.049 10.474 -0.048 C11.704 -0.051 12.934 -0.054 14.202 -0.057 C20.8 0.633 25.462 3.155 29.763 8.316 C31.404 11.76 32.012 14.481 32.003 18.283 C32.006 19.257 32.009 20.232 32.012 21.236 C32.008 21.765 32.008 21.765 31.99 24.44 C31.99 25.562 31.99 26.685 31.991 27.841 C31.989 31.548 31.974 35.254 31.958 38.96 C31.954 41.531 31.951 44.103 31.949 46.674 C31.943 52.747 31.927 58.821 31.907 64.895 C31.884 71.811 31.873 78.728 31.863 85.644 C31.842 99.868 31.807 114.092 31.763 128.316 C32.583 128.298 33.402 128.279 34.247 128.261 C34.786 128.254 34.786 128.254 37.513 128.218 C38.58 128.2 39.647 128.182 40.747 128.163 C45.306 128.394 47.214 129.432 50.763 132.316 C54.856 138.045 55.36 142.437 55.2 149.378 C55.207 150.25 55.214 151.122 55.222 152.021 C55.156 158.659 53.798 162.895 49.45 168.066 C44.585 172.139 39.781 172.567 33.583 172.59 C32.891 172.595 32.199 172.601 31.487 172.606 C29.215 172.62 26.944 172.619 24.673 172.616 C23.084 172.62 21.495 172.625 19.906 172.629 C16.582 172.637 13.257 172.637 9.933 172.631 C5.685 172.626 1.437 172.642 -2.81 172.666 C-6.09 172.68 -9.37 172.681 -12.65 172.678 C-14.215 172.679 -15.781 172.684 -17.346 172.694 C-19.541 172.706 -21.734 172.7 -23.928 172.688 C-24.551 172.688 -24.551 172.688 -27.702 172.69 C-34.326 171.989 -38.868 169.434 -43.237 164.316 C-46.086 159.598 -45.605 154.804 -45.612 149.441 C-45.637 148.46 -45.661 147.479 -45.687 146.468 C-45.71 140.589 -45.391 136.829 -41.237 132.316 C-35.237 128.316 -35.237 128.316 -20.237 127.316 C-20.567 109.496 -20.897 91.676 -21.237 73.316 C-24.207 72.986 -27.177 72.656 -30.237 72.316 C-30.567 72.646 -30.567 72.646 -32.237 74.316 C-32.567 73.326 -32.897 72.336 -33.237 71.316 C-35.217 70.986 -37.197 70.656 -39.237 70.316 C-39.237 69.656 -39.237 68.996 -39.237 68.316 C-39.835 68.027 -40.434 67.738 -41.05 67.441 C-43.237 66.316 -43.237 66.316 -46.237 64.316 C-46.237 63.326 -46.237 62.336 -46.237 61.316 C-46.897 61.316 -47.557 61.316 -48.237 61.316 C-48.485 60.511 -48.732 59.707 -48.987 58.878 C-50.237 55.316 -50.237 55.316 -51.261 53.335 C-54.796 46.454 -55.666 39.567 -53.612 32.019 C-49.353 22.207 -38.381 16.408 -29.934 10.507 C-28.377 9.414 -26.832 8.303 -25.288 7.191 C-24.426 6.572 -23.563 5.953 -22.675 5.316 C-21.931 4.779 -21.187 4.243 -20.421 3.691 C-13.917 -0.405 -7.428 -0.023 0 0 Z " fill="#FCDF13" transform="translate(108.2373046875,58.684326171875)"/>
<path d="M0 0 C69.3 0 138.6 0 210 0 C210 90.75 210 181.5 210 275 C140.7 275 71.4 275 0 275 C0 184.25 0 93.5 0 0 Z M8 8 C8 93.8 8 179.6 8 268 C74 268 140 268 208 268 C208.04 203.044 208.04 203.044 208.049 175.982 C208.051 169.788 208.053 163.593 208.055 157.398 C208.055 156.622 208.055 155.845 208.056 155.045 C208.06 142.493 208.068 129.941 208.077 117.39 C208.086 104.518 208.092 91.646 208.094 78.774 C208.095 70.824 208.1 62.875 208.108 54.926 C208.114 48.841 208.114 42.756 208.113 36.671 C208.113 34.167 208.115 31.663 208.119 29.159 C208.124 25.757 208.123 22.355 208.12 18.953 C208.123 17.948 208.126 16.943 208.129 15.908 C208.127 15.004 208.125 14.1 208.123 13.168 C208.123 12.775 208.123 12.775 208.124 10.785 C208 9 208 9 207 8 C204.433 7.902 201.893 7.87 199.325 7.88 C198.513 7.879 197.702 7.878 196.866 7.877 C194.117 7.875 191.368 7.881 188.619 7.886 C186.626 7.887 184.634 7.887 182.641 7.886 C177.285 7.886 171.93 7.892 166.574 7.899 C161.556 7.904 156.538 7.905 151.52 7.905 C136.826 7.911 122.132 7.925 107.438 7.938 C91.03 7.948 91.03 7.948 8 8 Z " fill="#FDFDFC" transform="translate(0,0)"/>
<path d="M0 0 C1.532 0.032 3.064 0.053 4.597 0.063 C20.263 0.172 20.263 0.172 27.189 5.923 C27.002 8.298 27.002 8.298 26.189 10.923 C23.627 12.235 23.627 12.235 21.189 12.923 C21.849 11.603 22.509 10.283 23.189 8.923 C22.591 9.273 21.993 9.624 21.377 9.985 C19.189 10.923 19.189 10.923 16.189 9.923 C16.189 9.263 16.189 8.603 16.189 7.923 C8.404 8.821 8.404 8.821 5.189 10.923 C4.859 11.583 4.529 12.243 4.189 12.923 C3.529 12.923 2.869 12.923 2.189 12.923 C0.983 15.255 0.024 17.419 -0.811 19.923 C-0.151 20.253 0.509 20.583 1.189 20.923 C-1.811 20.923 -1.811 20.923 -4.811 18.923 C-6.811 25.548 -6.811 25.548 -6.811 28.923 C-6.151 29.253 -5.491 29.583 -4.811 29.923 C-4.811 30.913 -4.811 31.903 -4.811 32.923 C-6.461 32.923 -8.111 32.923 -9.811 32.923 C-9.811 32.263 -9.811 31.603 -9.811 30.923 C-10.801 31.088 -10.801 31.088 -15.811 31.923 C-16.561 34.173 -16.561 34.173 -16.811 36.923 C-14.873 39.048 -14.873 39.048 -12.811 40.923 C-12.811 41.913 -12.811 42.903 -12.811 43.923 C-12.151 43.923 -11.491 43.923 -10.811 43.923 C-10.481 42.273 -10.151 40.623 -9.811 38.923 C-8.821 39.253 -7.831 39.583 -6.811 39.923 C-5.821 39.263 -4.831 38.603 -3.811 37.923 C-1.123 37.798 -1.123 37.798 1.189 37.923 C1.189 38.583 1.189 39.243 1.189 39.923 C0.529 40.583 -0.131 41.243 -0.811 41.923 C-0.151 43.243 0.509 44.563 1.189 45.923 C1.849 44.933 2.509 43.943 3.189 42.923 C3.189 45.233 3.189 47.543 3.189 49.923 C2.529 49.923 1.869 49.923 1.189 49.923 C1.189 50.583 1.189 51.243 1.189 51.923 C-0.667 54.044 -2.43 55.336 -4.811 56.923 C-5.998 60.048 -5.998 60.048 -6.811 62.923 C-8.131 62.593 -9.451 62.263 -10.811 61.923 C-10.669 64.027 -10.523 66.131 -10.373 68.235 C-10.292 69.407 -10.211 70.579 -10.127 71.786 C-9.811 74.923 -9.811 74.923 -8.811 77.923 C-8.151 77.923 -7.491 77.923 -6.811 77.923 C-6.811 78.583 -6.811 79.243 -6.811 79.923 C-5.821 80.253 -4.831 80.583 -3.811 80.923 C-4.801 81.583 -5.791 82.243 -6.811 82.923 C-6.481 83.913 -6.151 84.903 -5.811 85.923 C-5.976 86.418 -5.976 86.418 -6.811 88.923 C-6.151 88.923 -5.491 88.923 -4.811 88.923 C-4.811 89.583 -4.811 90.243 -4.811 90.923 C-5.801 90.923 -6.791 90.923 -7.811 90.923 C-9.498 92.423 -9.498 92.423 -10.811 93.923 C-10.151 96.233 -9.491 98.543 -8.811 100.923 C-7.491 101.253 -6.171 101.583 -4.811 101.923 C-5.471 102.583 -6.131 103.243 -6.811 103.923 C-7.823 105.247 -8.825 106.579 -9.811 107.923 C-9.151 107.758 -9.151 107.758 -5.811 106.923 C-6.141 107.583 -6.471 108.243 -6.811 108.923 C-7.471 108.923 -8.131 108.923 -8.811 108.923 C-8.811 110.243 -8.811 111.563 -8.811 112.923 C-6.171 111.273 -3.531 109.623 -0.811 107.923 C-2.811 111.923 -2.811 111.923 -4.811 113.923 C-4.151 113.923 -3.491 113.923 -2.811 113.923 C-3.141 116.563 -3.471 119.203 -3.811 121.923 C-7.561 123.048 -7.561 123.048 -9.811 121.923 C-9.811 122.583 -9.811 123.243 -9.811 123.923 C-8.821 123.923 -7.831 123.923 -6.811 123.923 C-6.811 124.583 -6.811 125.243 -6.811 125.923 C-7.141 126.088 -7.141 126.088 -8.811 126.923 C-7.821 127.583 -6.831 128.243 -5.811 128.923 C-9.423 131.359 -13.055 133.714 -16.811 135.923 C-16.811 135.263 -16.811 134.603 -16.811 133.923 C-24.042 133.433 -24.042 133.433 -27.748 135.798 C-29.811 137.923 -29.811 137.923 -30.811 139.923 C-31.801 140.253 -32.791 140.583 -33.811 140.923 C-33.481 141.913 -33.151 142.903 -32.811 143.923 C-33.306 144.253 -33.306 144.253 -35.811 145.923 C-35.811 147.243 -35.811 148.563 -35.811 149.923 C-37.131 149.593 -38.451 149.263 -39.811 148.923 C-39.811 144.633 -39.811 140.343 -39.811 135.923 C-40.471 135.593 -41.131 135.263 -41.811 134.923 C-37.311 129.173 -37.311 129.173 -32.811 126.923 C-27.861 126.593 -22.911 126.263 -17.811 125.923 C-18.141 108.103 -18.471 90.283 -18.811 71.923 C-21.781 71.593 -24.751 71.263 -27.811 70.923 C-28.141 71.253 -28.141 71.253 -29.811 72.923 C-30.141 71.933 -30.471 70.943 -30.811 69.923 C-32.791 69.593 -34.771 69.263 -36.811 68.923 C-36.811 68.263 -36.811 67.603 -36.811 66.923 C-37.409 66.634 -38.007 66.345 -38.623 66.048 C-40.811 64.923 -40.811 64.923 -43.811 62.923 C-43.811 61.933 -43.811 60.943 -43.811 59.923 C-44.471 59.923 -45.131 59.923 -45.811 59.923 C-46.058 59.118 -46.306 58.314 -46.561 57.485 C-47.811 53.923 -47.811 53.923 -48.834 51.942 C-52.369 45.061 -53.239 38.174 -51.186 30.626 C-46.928 20.819 -35.962 15.019 -27.521 9.119 C-25.929 8.005 -24.342 6.884 -22.756 5.763 C-14.643 0.037 -9.722 -0.228 0 0 Z " fill="#FCE017" transform="translate(105.810546875,60.0771484375)"/>
<path d="M0 0 C0.33 0 0.66 0 1 0 C1.165 1.98 1.165 1.98 2 12 C2.33 9.36 2.66 6.72 3 4 C3.66 4 4.32 4 5 4 C5.695 7.737 6 11.208 6 15 C6.165 15.165 6.165 15.165 7 16 C7.857 20.627 7.782 22.805 5.168 26.801 C2.861 29.629 0.5 32.341 -2 35 C-2.713 35.87 -3.426 36.739 -4.16 37.635 C-7.752 40.626 -10.431 40.634 -14.891 40.453 C-15.636 40.444 -16.381 40.434 -17.149 40.424 C-19.517 40.39 -21.883 40.321 -24.25 40.25 C-26.631 40.2 -29.013 40.157 -31.394 40.118 C-32.873 40.092 -34.352 40.058 -35.831 40.015 C-37.554 39.973 -39.277 39.981 -41 40 C-41.33 40.33 -41.66 40.66 -42 41 C-43.575 41.263 -45.162 41.461 -46.75 41.625 C-47.181 41.673 -47.181 41.673 -49.359 41.914 C-52.102 42.003 -54.329 41.593 -57 41 C-58.748 40.809 -60.498 40.643 -62.25 40.5 C-67.178 40.079 -72.086 39.564 -77 39 C-77 38.34 -77 37.68 -77 37 C-77.485 36.938 -77.485 36.938 -79.938 36.625 C-80.948 36.419 -81.959 36.213 -83 36 C-83.33 35.34 -83.66 34.68 -84 34 C-85.461 33.505 -86.945 33.077 -88.438 32.688 C-92.8 31.344 -92.8 31.344 -94.562 28.312 C-94.707 27.549 -94.851 26.786 -95 26 C-92 26 -92 26 -89.259 26.983 C-85.625 28.117 -82.656 28.261 -78.852 28.275 C-78.508 28.277 -78.508 28.277 -76.765 28.29 C-74.504 28.304 -72.242 28.303 -69.98 28.301 C-68.396 28.305 -66.812 28.309 -65.228 28.314 C-61.912 28.321 -58.596 28.321 -55.28 28.316 C-51.05 28.31 -46.821 28.327 -42.591 28.35 C-39.32 28.365 -36.049 28.366 -32.777 28.363 C-31.219 28.363 -29.661 28.368 -28.102 28.378 C-12.227 28.469 -12.227 28.469 -5 25 C-3.843 23.031 -3.843 23.031 -3 21 C-2.642 20.264 -2.283 19.528 -1.914 18.77 C-0.694 15.073 -0.541 11.557 -0.375 7.688 C-0.336 6.947 -0.298 6.206 -0.258 5.443 C-0.164 3.629 -0.081 1.815 0 0 Z " fill="#ECDEB5" transform="translate(163,202)"/>
<path d="M0 0 C1.532 0.032 3.064 0.053 4.597 0.063 C20.263 0.172 20.263 0.172 27.189 5.923 C27.002 8.298 27.002 8.298 26.189 10.923 C23.627 12.235 23.627 12.235 21.189 12.923 C21.849 11.603 22.509 10.283 23.189 8.923 C22.591 9.273 21.993 9.624 21.377 9.985 C19.189 10.923 19.189 10.923 16.189 9.923 C16.189 9.263 16.189 8.603 16.189 7.923 C8.404 8.821 8.404 8.821 5.189 10.923 C4.859 11.583 4.529 12.243 4.189 12.923 C3.529 12.923 2.869 12.923 2.189 12.923 C0.983 15.255 0.024 17.419 -0.811 19.923 C-0.151 20.253 0.509 20.583 1.189 20.923 C-1.811 20.923 -1.811 20.923 -4.811 18.923 C-5.471 20.573 -6.131 22.223 -6.811 23.923 C-7.471 23.593 -8.131 23.263 -8.811 22.923 C-8.481 21.273 -8.151 19.623 -7.811 17.923 C-8.801 17.593 -9.791 17.263 -10.811 16.923 C-10.811 17.583 -10.811 18.243 -10.811 18.923 C-14.111 20.573 -17.411 22.223 -20.811 23.923 C-21.801 23.263 -22.791 22.603 -23.811 21.923 C-24.801 21.923 -25.791 21.923 -26.811 21.923 C-28.477 21.923 -30.144 21.923 -31.811 21.923 C-32.141 22.913 -32.471 23.903 -32.811 24.923 C-33.471 24.923 -34.131 24.923 -34.811 24.923 C-34.934 25.521 -35.058 26.119 -35.186 26.735 C-35.811 28.923 -35.811 28.923 -37.811 31.923 C-37.481 32.583 -37.151 33.243 -36.811 33.923 C-37.141 34.15 -37.141 34.15 -38.811 35.298 C-39.471 35.834 -40.131 36.37 -40.811 36.923 C-40.811 37.583 -40.811 38.243 -40.811 38.923 C-41.141 39.088 -41.141 39.088 -42.811 39.923 C-42.811 40.583 -42.811 41.243 -42.811 41.923 C-44.791 41.593 -46.771 41.263 -48.811 40.923 C-51.044 33.038 -51.044 33.038 -50.248 29.235 C-46.229 22.77 -41.295 18.79 -35.123 14.485 C-34.324 13.919 -33.526 13.353 -32.703 12.77 C-30.411 11.147 -28.111 9.534 -25.811 7.923 C-24.699 7.136 -23.588 6.348 -22.479 5.56 C-14.53 -0.061 -9.534 -0.223 0 0 Z " fill="#FCE52A" transform="translate(105.810546875,60.0771484375)"/>
<path d="M0 0 C0.33 0.165 0.33 0.165 2 1 C2.088 4.208 2.141 7.416 2.188 10.625 C2.213 11.529 2.238 12.432 2.264 13.363 C2.339 20.224 1.196 24.389 -3.312 29.75 C-8.177 33.823 -12.981 34.252 -19.179 34.275 C-19.871 34.28 -20.563 34.285 -21.276 34.29 C-23.547 34.304 -25.818 34.303 -28.09 34.301 C-29.679 34.305 -31.268 34.309 -32.857 34.314 C-36.181 34.321 -39.505 34.321 -42.83 34.316 C-47.078 34.31 -51.325 34.327 -55.573 34.35 C-58.853 34.365 -62.133 34.366 -65.412 34.363 C-66.978 34.363 -68.544 34.368 -70.109 34.378 C-72.303 34.391 -74.497 34.384 -76.691 34.372 C-77.314 34.373 -77.314 34.373 -80.465 34.374 C-87.089 33.673 -91.631 31.118 -96 26 C-97.981 22.887 -98 21.901 -98 18 C-97.34 18 -96.68 18 -96 18 C-95.67 19.32 -95.34 20.64 -95 22 C-94.34 22 -93.68 22 -93 22 C-93 22.66 -93 23.32 -93 24 C-90.36 24 -87.72 24 -85 24 C-85 24.66 -85 25.32 -85 26 C-84.196 25.67 -83.391 25.34 -82.562 25 C-77.576 23.6 -72.719 23.42 -67.637 24.504 C-64.507 25.093 -61.558 25.132 -58.375 25.125 C-57.248 25.128 -56.122 25.13 -54.961 25.133 C-52 25 -52 25 -49 24 C-49 24.66 -49 25.32 -49 26 C-46 25.858 -43 25.711 -40 25.562 C-39.161 25.523 -38.322 25.484 -37.457 25.443 C-33.479 25.243 -29.556 24.976 -25.609 24.434 C-21.825 23.979 -18.747 24.424 -15 25 C-12.625 24.688 -12.625 24.688 -11 24 C-10.67 23.34 -10.34 22.68 -10 22 C-9.01 21.67 -8.02 21.34 -7 21 C-6.67 20.34 -6.34 19.68 -6 19 C-5.34 19 -4.68 19 -4 19 C-4 18.01 -4 17.02 -4 16 C-3.01 16 -2.02 16 -1 16 C-1.012 15.348 -1.023 14.695 -1.035 14.023 C-1.085 9.224 -0.994 4.722 0 0 Z " fill="#C38F07" transform="translate(161,197)"/>
<path d="M0 0 C0.66 0 1.32 0 2 0 C2 0.66 2 1.32 2 2 C2.66 2 3.32 2 4 2 C5.424 8.803 6.11 15.056 6 22 C6.33 22.66 6.66 23.32 7 24 C6.886 26.025 6.712 28.046 6.5 30.062 C6.293 32.038 6.117 34.017 6 36 C6.33 36.33 6.66 36.66 7 37 C7.367 43.039 6.978 49.002 6.227 54.992 C5.448 61.895 5.448 61.895 7 65 C7.098 67.102 7.13 69.208 7.125 71.312 C7.128 72.443 7.13 73.574 7.133 74.738 C7 78 7 78 6.498 80.304 C5.928 83.388 5.887 86.259 5.902 89.395 C5.906 90.597 5.909 91.799 5.912 93.037 C5.92 94.283 5.929 95.529 5.938 96.812 C5.942 98.078 5.947 99.343 5.951 100.646 C5.963 103.764 5.979 106.882 6 110 C6.66 110 7.32 110 8 110 C8 110.66 8 111.32 8 112 C5.03 112 2.06 112 -1 112 C-1.023 97.545 -1.041 83.089 -1.052 68.634 C-1.057 61.923 -1.064 55.211 -1.075 48.5 C-1.086 42.029 -1.092 35.558 -1.095 29.087 C-1.097 26.612 -1.1 24.137 -1.106 21.662 C-1.113 18.209 -1.114 14.756 -1.114 11.303 C-1.117 10.269 -1.121 9.234 -1.124 8.169 C-1.123 7.233 -1.122 6.298 -1.12 5.334 C-1.121 4.517 -1.122 3.699 -1.123 2.857 C-1 1 -1 1 0 0 Z " fill="#F1E0B7" transform="translate(141,75)"/>
<path d="M0 0 C0.33 0.66 0.66 1.32 1 2 C1.66 2 2.32 2 3 2 C3.763 2.804 4.526 3.609 5.312 4.438 C8.266 7.254 9.058 7.65 13 8 C13.791 8.112 14.583 8.224 15.398 8.34 C23.325 9.374 23.325 9.374 27 7 C29.25 4.375 29.25 4.375 31 2 C33.915 3.074 35.778 3.778 38 6 C38.163 8.401 38.203 10.681 38.151 13.08 C38.143 13.809 38.135 14.537 38.127 15.288 C38.099 17.703 38.055 20.117 38.012 22.531 C37.988 24.205 37.965 25.879 37.943 27.553 C37.894 31.064 37.839 34.574 37.779 38.084 C37.701 42.591 37.637 47.097 37.577 51.603 C37.53 55.06 37.478 58.517 37.425 61.974 C37.399 63.636 37.375 65.298 37.352 66.96 C37.319 69.28 37.279 71.6 37.237 73.92 C37.228 74.611 37.219 75.302 37.21 76.014 C37.114 80.771 37.114 80.771 36 83 C35.34 83 34.68 83 34 83 C34 61.88 34 40.76 34 19 C27.4 19 20.8 19 14 19 C1.821 11.388 1.821 11.388 0.477 5.84 C0.224 3.903 0.101 1.95 0 0 Z " fill="#FCDA0E" transform="translate(55,103)"/>
<path d="M0 0 C0.209 0.175 0.209 0.175 1.266 1.059 C10.387 7.397 16.443 5.372 29 6 C29 27.12 29 48.24 29 70 C29.66 70 30.32 70 31 70 C31.33 68.35 31.66 66.7 32 65 C32.99 64.67 33.98 64.34 35 64 C35.293 66.925 35.511 69.151 35 72 C31.73 75.27 29.135 76.218 24.625 76.25 C23.429 76.168 22.233 76.085 21 76 C20.67 76.99 20.34 77.98 20 79 C15.682 83.773 15.682 83.773 12 85 C12.33 85.99 12.66 86.98 13 88 C12.505 88.33 12.505 88.33 10 90 C10 91.32 10 92.64 10 94 C8.68 93.67 7.36 93.34 6 93 C6 88.71 6 84.42 6 80 C5.34 79.67 4.68 79.34 4 79 C8.5 73.25 8.5 73.25 13 71 C17.95 70.67 22.9 70.34 28 70 C27.67 52.18 27.34 34.36 27 16 C24.03 15.67 21.06 15.34 18 15 C17.34 15.66 16.68 16.32 16 17 C15.67 16.01 15.34 15.02 15 14 C14.01 13.835 14.01 13.835 9 13 C9 12.34 9 11.68 9 11 C8.701 10.856 8.701 10.856 7.188 10.125 C5 9 5 9 2 7 C2 6.01 2 5.02 2 4 C1.34 4 0.68 4 0 4 C0 2.68 0 1.36 0 0 Z " fill="#FADF43" transform="translate(60,116)"/>
<path d="M0 0 C0.33 0 0.66 0 1 0 C1.385 3.997 1.701 7.996 2 12 C2.092 12.882 2.183 13.763 2.277 14.672 C2.668 20.653 1.15 24.659 -1.711 29.871 C-8.055 35.772 -17.696 35.425 -25.859 35.328 C-26.966 35.326 -28.073 35.324 -29.213 35.322 C-31.543 35.316 -33.873 35.302 -36.202 35.281 C-39.726 35.25 -43.249 35.24 -46.773 35.234 C-57.884 35.195 -68.934 35.086 -80 34 C-80 33.34 -80 32.68 -80 32 C-82.31 31.67 -84.62 31.34 -87 31 C-87.33 30.01 -87.66 29.02 -88 28 C-87.093 28.007 -86.186 28.013 -85.251 28.02 C-76.675 28.08 -68.098 28.126 -59.521 28.155 C-55.112 28.171 -50.704 28.192 -46.295 28.226 C-42.035 28.259 -37.775 28.277 -33.515 28.285 C-31.896 28.29 -30.276 28.301 -28.656 28.317 C-12.144 28.476 -12.144 28.476 -5 25 C-3.845 23.031 -3.845 23.031 -3 21 C-2.642 20.264 -2.283 19.528 -1.914 18.77 C-0.694 15.073 -0.541 11.557 -0.375 7.688 C-0.336 6.947 -0.298 6.206 -0.258 5.443 C-0.164 3.629 -0.081 1.815 0 0 Z " fill="#D1B97D" transform="translate(163,202)"/>
<path d="M0 0 C1.32 0.66 2.64 1.32 4 2 C3.67 2.33 3.34 2.66 3 3 C2.901 4.526 2.869 6.057 2.867 7.586 C2.866 8.517 2.865 9.447 2.863 10.406 C2.867 11.386 2.871 12.366 2.875 13.375 C2.871 14.347 2.867 15.319 2.863 16.32 C2.864 16.787 2.864 16.787 2.867 19.148 C2.868 20.006 2.869 20.864 2.871 21.748 C3 24 3 24 4 27 C4.66 27 5.32 27 6 27 C6 27.66 6 28.32 6 29 C6.99 29.33 7.98 29.66 9 30 C8.01 30.66 7.02 31.32 6 32 C6.33 32.99 6.66 33.98 7 35 C6.67 35.99 6.34 36.98 6 38 C6.66 38 7.32 38 8 38 C8 38.66 8 39.32 8 40 C7.01 40 6.02 40 5 40 C3.312 41.5 3.312 41.5 2 43 C2.66 45.31 3.32 47.62 4 50 C5.32 50.33 6.64 50.66 8 51 C7.34 51.66 6.68 52.32 6 53 C4.988 54.324 3.986 55.656 3 57 C3.66 56.835 3.66 56.835 7 56 C6.67 56.66 6.34 57.32 6 58 C5.34 58 4.68 58 4 58 C4 59.32 4 60.64 4 62 C6.64 60.35 9.28 58.7 12 57 C10 61 10 61 8 63 C8.66 63 9.32 63 10 63 C9.67 65.64 9.34 68.28 9 71 C5.25 72.125 5.25 72.125 3 71 C3 71.66 3 72.32 3 73 C3.99 73 4.98 73 6 73 C6 73.66 6 74.32 6 75 C5.67 75.165 5.67 75.165 4 76 C4.495 76.33 4.495 76.33 7 78 C3.388 80.436 -0.244 82.791 -4 85 C-4 84.34 -4 83.68 -4 83 C-5.32 82.835 -5.32 82.835 -12 82 C-12 81.67 -12 81.34 -12 81 C-11.313 80.879 -10.626 80.758 -9.918 80.633 C-9.017 80.465 -8.116 80.298 -7.188 80.125 C-6.294 79.963 -5.401 79.8 -4.48 79.633 C-2 79 -2 79 1 77 C1.188 73.375 1.188 73.375 1 70 C0.34 70 -0.32 70 -1 70 C-1.023 61.021 -1.041 52.042 -1.052 43.062 C-1.057 38.893 -1.064 34.724 -1.075 30.555 C-1.086 26.535 -1.092 22.515 -1.095 18.495 C-1.097 16.958 -1.1 15.421 -1.106 13.884 C-1.113 11.739 -1.114 9.593 -1.114 7.448 C-1.116 6.224 -1.118 5 -1.12 3.74 C-1 1 -1 1 0 0 Z " fill="#FCE326" transform="translate(93,111)"/>
<path d="M0 0 C0.66 0.33 1.32 0.66 2 1 C2 38.62 2 76.24 2 115 C1.01 114.34 0.02 113.68 -1 113 C-1.358 110.462 -1.513 108.161 -1.547 105.613 C-1.568 104.832 -1.588 104.051 -1.61 103.247 C-1.673 100.602 -1.713 97.958 -1.75 95.312 C-1.767 94.399 -1.785 93.485 -1.803 92.543 C-2.159 73.777 -1.916 55.014 -1.625 36.25 C-1.614 35.548 -1.604 34.845 -1.593 34.121 C-1.521 29.398 -1.439 24.676 -1.352 19.953 C-1.332 18.748 -1.312 17.542 -1.291 16.3 C-1.178 10.78 -0.966 5.44 0 0 Z " fill="#DFA80D" transform="translate(138,71)"/>
<path d="M0 0 C2.913 2.913 3.125 5.407 3.158 9.347 C3.168 10.235 3.178 11.122 3.188 12.037 C3.194 13.008 3.199 13.979 3.205 14.979 C3.215 16.004 3.225 17.028 3.235 18.084 C3.267 21.477 3.292 24.869 3.316 28.262 C3.337 30.612 3.358 32.961 3.379 35.311 C3.435 41.501 3.484 47.69 3.532 53.88 C3.582 60.194 3.638 66.508 3.693 72.822 C3.801 85.215 3.902 97.607 4 110 C2.68 110 1.36 110 0 110 C0 73.7 0 37.4 0 0 Z " fill="#DBC58E" transform="translate(140,77)"/>
<path d="M0 0 C0.356 0.009 0.356 0.009 2.159 0.054 C3.664 0.095 5.169 0.142 6.673 0.194 C8.961 0.269 11.25 0.318 13.539 0.365 C15.005 0.409 16.471 0.453 17.938 0.5 C18.277 0.506 18.277 0.506 19.993 0.538 C24.529 0.722 27.69 1.811 31.602 4.082 C31.602 4.742 31.602 5.402 31.602 6.082 C30.805 6.01 30.008 5.938 29.188 5.863 C28.128 5.77 27.068 5.678 25.977 5.582 C24.932 5.489 23.888 5.396 22.812 5.301 C14.801 4.755 14.801 4.755 11.539 5.645 C8.996 6.219 7.133 5.638 4.602 5.082 C2.935 5.045 1.268 5.034 -0.398 5.082 C-0.398 5.742 -0.398 6.402 -0.398 7.082 C-0.967 7.313 -1.535 7.544 -2.121 7.781 C-6.768 9.744 -10.716 11.792 -14.598 15.031 C-16.398 16.082 -16.398 16.082 -19.227 16.461 C-23.192 17.237 -25.286 18.858 -28.461 21.332 C-29.463 22.1 -30.464 22.869 -31.496 23.66 C-34.318 26.015 -36.848 28.443 -39.398 31.082 C-38.621 24.855 -34.996 22.022 -30.398 18.082 C-26.625 15.291 -22.687 12.843 -18.648 10.457 C-16.398 9.082 -16.398 9.082 -13.711 6.895 C-11.398 5.082 -11.398 5.082 -9.398 5.082 C-9.398 4.422 -9.398 3.762 -9.398 3.082 C-10.058 2.752 -10.718 2.422 -11.398 2.082 C-7.72 -0.298 -4.224 -0.141 0 0 Z " fill="#FDE942" transform="translate(99.3984375,59.91796875)"/>
<path d="M0 0 C0.66 0.66 1.32 1.32 2 2 C8.775 5.324 15.507 5.979 23 5 C24.674 4.012 26.341 3.013 28 2 C29.65 2 31.3 2 33 2 C33 5.96 33 9.92 33 14 C29.832 14.136 26.67 14.235 23.5 14.312 C23.057 14.333 23.057 14.333 20.812 14.439 C14.248 14.56 10.074 13.207 5 9 C3.019 7.076 1.594 5.292 0 3 C0 2.01 0 1.02 0 0 Z " fill="#E0A906" transform="translate(56,108)"/>
<path d="M0 0 C0.33 0 0.66 0 1 0 C1.385 3.997 1.701 7.996 2 12 C2.092 12.882 2.183 13.763 2.277 14.672 C2.668 20.653 1.15 24.659 -1.711 29.871 C-8.055 35.772 -17.696 35.425 -25.859 35.328 C-26.966 35.326 -28.073 35.324 -29.213 35.322 C-31.543 35.316 -33.873 35.302 -36.202 35.281 C-39.726 35.25 -43.249 35.24 -46.773 35.234 C-57.884 35.195 -68.934 35.086 -80 34 C-80 33.34 -80 32.68 -80 32 C-82.31 31.67 -84.62 31.34 -87 31 C-87.33 30.01 -87.66 29.02 -88 28 C-87.343 28.205 -86.685 28.41 -86.008 28.621 C-79.93 30.342 -74.038 31.294 -67.734 31.59 C-66.957 31.629 -66.179 31.669 -65.377 31.71 C-57.417 32.082 -49.461 32.152 -41.493 32.13 C-39.105 32.125 -36.717 32.13 -34.328 32.137 C-10.432 32.154 -10.432 32.154 -7.274 29.61 C-5.937 27.937 -5.937 27.937 -4 25 C-3.01 25 -2.02 25 -1 25 C-0.67 16.75 -0.34 8.5 0 0 Z " fill="#DDCA96" transform="translate(163,202)"/>
<path d="M0 0 C0.33 0 0.66 0 1 0 C0.985 0.889 0.971 1.778 0.955 2.694 C0.815 11.249 0.682 19.803 0.557 28.357 C0.493 32.75 0.426 37.144 0.352 41.537 C0.046 59.84 -0.122 78.114 0.41 96.414 C0.431 97.15 0.451 97.886 0.472 98.644 C0.817 110.635 0.817 110.635 2 113 C0.68 113 -0.64 113 -2 113 C-2.061 111.915 -2.121 110.829 -2.184 109.711 C-2.268 108.266 -2.353 106.82 -2.438 105.375 C-2.457 105.019 -2.457 105.019 -2.557 103.215 C-2.749 99.986 -3.015 96.916 -3.598 93.727 C-4.012 90.917 -3.675 89.692 -3 87 C-2.653 82.862 -2.533 78.712 -2.375 74.562 C-2.323 73.449 -2.272 72.336 -2.219 71.189 C-2 65.643 -1.996 60.256 -2.508 54.727 C-3.219 46.73 -2.835 38.819 -2.5 30.812 C-2.377 27.861 -2.262 24.909 -2.156 21.957 C-2.13 21.257 -2.104 20.557 -2.077 19.836 C-1.936 15.114 -2.216 10.632 -3.057 5.987 C-2.978 3.226 -1.823 1.999 0 0 Z " fill="#F7C903" transform="translate(137,73)"/>
<path d="M0 0 C0.215 0.175 0.215 0.175 1.301 1.059 C9.358 6.581 18.589 5.895 28 6 C28.195 12.055 28.195 12.055 28 14 C27.34 14.66 26.68 15.32 26 16 C23.901 15.895 21.938 15.488 19.875 15.094 C19.256 15.063 18.638 15.032 18 15 C17.34 15.66 16.68 16.32 16 17 C15.67 16.01 15.34 15.02 15 14 C14.01 13.835 14.01 13.835 9 13 C9 12.34 9 11.68 9 11 C8.701 10.856 8.701 10.856 7.188 10.125 C5 9 5 9 2 7 C2 6.01 2 5.02 2 4 C1.34 4 0.68 4 0 4 C0 2.68 0 1.36 0 0 Z " fill="#EAD8AB" transform="translate(60,116)"/>
<path d="M0 0 C0.33 0 0.66 0 1 0 C1.667 6.889 0.665 11.081 -3.156 16.895 C-5.993 20.134 -8.845 21.213 -13 22 C-13.886 22.171 -14.773 22.341 -15.686 22.517 C-19.22 23.032 -22.574 23.13 -26.145 23.133 C-26.824 23.134 -27.503 23.136 -28.202 23.137 C-30.406 23.139 -32.609 23.133 -34.812 23.125 C-35.189 23.124 -35.189 23.124 -37.091 23.121 C-47.13 23.102 -57.156 22.958 -67.188 22.562 C-68.188 22.523 -69.189 22.484 -70.22 22.444 C-77.128 22.132 -83.787 21.726 -90.312 19.25 C-90.733 19.098 -90.733 19.098 -92.863 18.328 C-95.603 16.625 -96.091 15.032 -97 12 C-93.401 12 -91.905 12.958 -89 15 C-89 15.66 -89 16.32 -89 17 C-86.69 17.33 -84.38 17.66 -82 18 C-82 18.66 -82 19.32 -82 20 C-73.567 20.047 -65.135 20.082 -56.702 20.104 C-52.786 20.114 -48.869 20.128 -44.953 20.151 C-41.166 20.173 -37.379 20.185 -33.593 20.19 C-32.155 20.193 -30.718 20.201 -29.28 20.211 C-12.351 20.334 -12.351 20.334 -6 18 C-4.562 15.688 -4.562 15.688 -4 13 C-3.484 12.237 -2.969 11.474 -2.438 10.688 C-0.509 7.082 -0.344 4.062 0 0 Z " fill="#E5D3A4" transform="translate(165,216)"/>
<path d="M0 0 C0.66 0.003 1.32 0.006 2.001 0.009 C4.1 0.02 6.198 0.045 8.297 0.07 C9.724 0.08 11.151 0.089 12.578 0.098 C16.068 0.12 19.557 0.154 23.047 0.195 C23.047 0.525 23.047 0.855 23.047 1.195 C28.526 2.342 33.853 2.347 39.422 2.32 C40.387 2.318 41.352 2.316 42.346 2.314 C50.609 2.265 58.811 1.856 67.047 1.195 C63.508 4.616 60.199 4.607 55.524 4.536 C54.773 4.536 54.021 4.537 53.247 4.537 C50.768 4.535 48.291 4.512 45.812 4.488 C44.092 4.483 42.371 4.478 40.651 4.475 C36.126 4.464 31.602 4.435 27.078 4.401 C22.46 4.371 17.841 4.357 13.223 4.342 C4.164 4.31 -4.895 4.258 -13.953 4.195 C-8.931 0.847 -6.148 -0.052 0 0 Z " fill="#D19C02" transform="translate(87.953125,224.8046875)"/>
<path d="M0 0 C0.66 0 1.32 0 2 0 C1.52 4.32 0.385 6.273 -3 9 C-7.142 11.09 -10.945 11.291 -15.497 11.275 C-16.234 11.28 -16.971 11.285 -17.73 11.29 C-20.156 11.304 -22.582 11.303 -25.008 11.301 C-26.697 11.305 -28.387 11.309 -30.077 11.314 C-33.612 11.321 -37.148 11.321 -40.683 11.316 C-45.217 11.31 -49.751 11.327 -54.285 11.35 C-57.772 11.365 -61.258 11.366 -64.744 11.363 C-66.416 11.363 -68.089 11.368 -69.761 11.378 C-72.095 11.391 -74.428 11.384 -76.762 11.372 C-77.454 11.38 -78.146 11.388 -78.859 11.395 C-81.817 11.363 -83.576 11.331 -85.952 9.477 C-86.298 8.989 -86.644 8.502 -87 8 C-85.02 8 -83.04 8 -81 8 C-81 8.66 -81 9.32 -81 10 C-80.196 9.67 -79.391 9.34 -78.562 9 C-73.576 7.6 -68.719 7.42 -63.637 8.504 C-60.507 9.093 -57.558 9.132 -54.375 9.125 C-53.248 9.128 -52.122 9.13 -50.961 9.133 C-48 9 -48 9 -45 8 C-45 8.66 -45 9.32 -45 10 C-42 9.858 -39 9.711 -36 9.562 C-35.161 9.523 -34.322 9.484 -33.457 9.443 C-29.479 9.243 -25.556 8.976 -21.609 8.434 C-17.825 7.979 -14.747 8.424 -11 9 C-8.625 8.688 -8.625 8.688 -7 8 C-6.67 7.34 -6.34 6.68 -6 6 C-5.01 5.67 -4.02 5.34 -3 5 C-2.67 4.34 -2.34 3.68 -2 3 C-1.34 3 -0.68 3 0 3 C0 2.01 0 1.02 0 0 Z " fill="#F4C402" transform="translate(157,213)"/>
<path d="M0 0 C21.45 0 42.9 0 65 0 C65 0.33 65 0.66 65 1 C52.933 2.484 41.16 3.34 29 3 C28.487 2.988 28.487 2.988 25.889 2.925 C22.488 2.839 19.088 2.735 15.688 2.625 C14.595 2.594 13.502 2.564 12.376 2.532 C11.349 2.493 10.321 2.454 9.262 2.414 C8.803 2.398 8.803 2.398 6.479 2.319 C4 2 4 2 0 0 Z " fill="#C9AC69" transform="translate(81,231)"/>
<path d="M0 0 C0.33 0.66 0.66 1.32 1 2 C1.66 2 2.32 2 3 2 C3.763 2.804 4.526 3.609 5.312 4.438 C8.266 7.254 9.058 7.65 13 8 C13.791 8.112 14.583 8.224 15.398 8.34 C23.325 9.374 23.325 9.374 27 7 C29.25 4.375 29.25 4.375 31 2 C33.915 3.074 35.778 3.778 38 6 C37.87 8.712 37.627 11.26 37.25 13.938 C37.162 14.666 37.075 15.395 36.984 16.146 C36.508 19.754 36.047 21.929 34 25 C34 19.06 34 13.12 34 7 C28 9 28 9 26.012 10.102 C20.747 12.453 13.528 11.797 8.148 10.102 C6.033 9.155 4.005 8.161 2 7 C2 6.34 2 5.68 2 5 C1.34 5 0.68 5 0 5 C0 3.35 0 1.7 0 0 Z " fill="#F9CD03" transform="translate(55,103)"/>
<path d="M0 0 C-0.66 0 -1.32 0 -2 0 C-2 0.66 -2 1.32 -2 2 C-2.99 2 -3.98 2 -5 2 C-5.99 4.97 -6.98 7.94 -8 11 C-7.34 10.67 -6.68 10.34 -6 10 C-5.67 9.01 -5.34 8.02 -5 7 C-2.365 4.264 -1.127 4.006 2.75 3.812 C3.823 3.874 4.895 3.936 6 4 C5.07 5.152 4.131 6.297 3.188 7.438 C2.926 7.757 2.926 7.757 1.605 9.371 C0 11 0 11 -3 12 C-2.67 12.99 -2.34 13.98 -2 15 C-2.99 15.66 -3.98 16.32 -5 17 C-5 18.32 -5 19.64 -5 21 C-6.32 20.67 -7.64 20.34 -9 20 C-9 15.71 -9 11.42 -9 7 C-9.66 6.67 -10.32 6.34 -11 6 C-4.949 -1.485 -4.949 -1.485 0 0 Z " fill="#FCE42D" transform="translate(75,189)"/>
<path d="M0 0 C0 3.63 0 7.26 0 11 C-3.168 11.136 -6.33 11.235 -9.5 11.312 C-9.943 11.333 -9.943 11.333 -12.188 11.439 C-18.766 11.56 -22.904 10.188 -28 6 C-29.016 5.016 -30.021 4.02 -31 3 C-30.67 2.34 -30.34 1.68 -30 1 C-29.518 1.422 -29.036 1.843 -28.539 2.277 C-27.907 2.825 -27.276 3.373 -26.625 3.938 C-25.999 4.483 -25.372 5.028 -24.727 5.59 C-21.55 8.184 -19.408 8.109 -15.375 8.062 C-14.372 8.053 -13.369 8.044 -12.336 8.035 C-11.951 8.029 -11.951 8.029 -10 8 C-10 7.34 -10 6.68 -10 6 C-9.34 6 -8.68 6 -8 6 C-8 5.34 -8 4.68 -8 4 C-2.588 0 -2.588 0 0 0 Z " fill="#9F6E0E" transform="translate(89,111)"/>
<path d="M0 0 C-0.33 0.66 -0.66 1.32 -1 2 C-3.556 2.847 -6.138 3.472 -8.75 4.121 C-9.493 4.411 -10.235 4.701 -11 5 C-11.33 5.99 -11.66 6.98 -12 8 C-13.637 9.048 -15.313 10.035 -17 11 C-19.711 12.899 -22.353 14.888 -25 16.875 C-25.349 17.133 -25.349 17.133 -27.117 18.441 C-31.059 21.394 -34.618 24.419 -38 28 C-37.223 21.773 -33.597 18.94 -29 15 C-25.226 12.209 -21.288 9.761 -17.25 7.375 C-15 6 -15 6 -12.5 3.938 C-8.419 0.774 -5.15 -0.294 0 0 Z " fill="#FDEE5C" transform="translate(98,63)"/>
<path d="M0 0 C0.329 0.102 0.329 0.102 1.992 0.621 C7.933 2.304 13.713 3.293 19.875 3.594 C20.258 3.614 20.258 3.614 22.194 3.714 C33.164 4.219 44.146 4.106 55.125 4.062 C57.355 4.057 59.586 4.053 61.816 4.049 C67.211 4.038 72.605 4.021 78 4 C78 4.33 78 4.66 78 5 C72.631 6.112 67.439 6.145 61.984 6.133 C61.015 6.134 60.045 6.135 59.045 6.136 C56.991 6.136 54.937 6.135 52.883 6.13 C49.802 6.125 46.721 6.13 43.641 6.137 C34.405 6.141 25.179 6.068 15.953 5.617 C15.245 5.587 14.536 5.556 13.807 5.525 C9.235 5.264 5.269 4.6 1 3 C0.67 2.01 0.34 1.02 0 0 Z " fill="#D7C187" transform="translate(75,230)"/>
<path d="M0 0 C0.623 0.317 1.245 0.634 1.887 0.961 C6.183 2.395 10.31 2.464 14.812 2.625 C15.696 2.664 16.58 2.702 17.49 2.742 C19.66 2.836 21.83 2.919 24 3 C23.67 4.65 23.34 6.3 23 8 C14.375 8.251 7.228 8.315 0 3 C0 2.01 0 1.02 0 0 Z " fill="#D5BD81" transform="translate(64,119)"/>
<path d="M0 0 C1.65 0 3.3 0 5 0 C5 0.66 5 1.32 5 2 C6.32 2.66 7.64 3.32 9 4 C6.75 6.5 6.75 6.5 4 9 C2 9 0 9 -2 9 C-1.67 8.01 -1.34 7.02 -1 6 C-3.64 5.67 -6.28 5.34 -9 5 C-8.67 4.01 -8.34 3.02 -8 2 C-5.36 2 -2.72 2 0 2 C0 1.34 0 0.68 0 0 Z " fill="#FCE739" transform="translate(147,187)"/>
<path d="M0 0 C4.305 -0.05 8.61 -0.086 12.915 -0.11 C14.378 -0.12 15.84 -0.133 17.303 -0.151 C19.413 -0.175 21.523 -0.187 23.633 -0.195 C24.9 -0.206 26.167 -0.216 27.473 -0.227 C30.99 -0.001 33.729 0.728 37 2 C36.34 2.33 35.68 2.66 35 3 C34.67 3.66 34.34 4.32 34 5 C33.488 4.679 32.976 4.357 32.448 4.026 C29.177 2.655 26.371 2.673 22.828 2.586 C22.146 2.567 21.463 2.547 20.76 2.527 C18.59 2.468 16.42 2.421 14.25 2.375 C12.775 2.337 11.299 2.298 9.824 2.258 C6.216 2.162 2.608 2.078 -1 2 C-0.67 1.34 -0.34 0.68 0 0 Z " fill="#FCE328" transform="translate(95,59)"/>
<path d="M0 0 C8.119 -0.147 16.101 0.299 24.188 1 C24.759 1.048 24.759 1.048 27.65 1.289 C30.434 1.522 33.217 1.759 36 2 C35.67 2.66 35.34 3.32 35 4 C32.891 4.449 32.891 4.449 30.25 4.688 C29.389 4.774 28.528 4.86 27.641 4.949 C24.914 5.002 22.656 4.585 20 4 C18.252 3.809 16.502 3.643 14.75 3.5 C9.822 3.079 4.914 2.564 0 2 C0 1.34 0 0.68 0 0 Z " fill="#F1E4C0" transform="translate(86,239)"/>
<path d="M0 0 C1.312 2.623 0.896 4.23 0.562 7.125 C0.461 8.035 0.359 8.945 0.254 9.883 C0.212 10.232 0.212 10.232 0 12 C3.055 9.963 3.603 9.194 5 6 C5.33 5.34 5.66 4.68 6 4 C7.938 4.312 7.938 4.312 10 5 C10.33 5.99 10.66 6.98 11 8 C10.34 8.454 9.68 8.907 9 9.375 C8.34 9.911 7.68 10.448 7 11 C7 11.66 7 12.32 7 13 C6.67 13.165 6.67 13.165 5 14 C5 14.66 5 15.32 5 16 C4.01 15.835 4.01 15.835 -1 15 C-3.268 6.991 -3.268 6.991 -2.188 3 C-1 1 -1 1 0 0 Z " fill="#FDE225" transform="translate(58,86)"/>
<path d="M0 0 C0 0.66 0 1.32 0 2 C-1.979 3.364 -3.982 4.694 -6 6 C-6.485 6.501 -6.969 7.003 -7.469 7.52 C-9.138 9.134 -10.564 9.837 -12.688 10.75 C-17.503 13.037 -21.155 16.359 -25 20 C-25.33 19.01 -25.66 18.02 -26 17 C-19.853 12.211 -13.698 7.43 -7.375 2.875 C-6.599 2.316 -5.823 1.756 -5.023 1.18 C-3 0 -3 0 0 0 Z " fill="#FDE524" transform="translate(90,63)"/>
<path d="M0 0 C0.66 0 1.32 0 2 0 C2.33 7.59 2.66 15.18 3 23 C2.34 21.68 1.68 20.36 1 19 C0.34 19 -0.32 19 -1 19 C-1.027 16.021 -1.047 13.042 -1.062 10.062 C-1.071 9.212 -1.079 8.362 -1.088 7.486 C-1.091 6.677 -1.094 5.869 -1.098 5.035 C-1.103 4.286 -1.108 3.537 -1.114 2.766 C-1 1 -1 1 0 0 Z " fill="#FBCE07" transform="translate(64,196)"/>
<path d="M0 0 C0.66 0.33 1.32 0.66 2 1 C2.054 3.563 2.094 6.124 2.125 8.688 C2.142 9.409 2.159 10.13 2.176 10.873 C2.214 15.049 1.879 18.249 0 22 C-1.32 21.67 -2.64 21.34 -4 21 C-3.693 20.346 -3.386 19.693 -3.07 19.02 C-1.737 15.257 -1.306 11.64 -0.875 7.688 C-0.789 6.947 -0.702 6.206 -0.613 5.443 C-0.403 3.63 -0.2 1.815 0 0 Z " fill="#E3AD13" transform="translate(161,197)"/>
<path d="M0 0 C0.33 0 0.66 0 1 0 C1.058 3.083 1.094 6.166 1.125 9.25 C1.142 10.123 1.159 10.995 1.176 11.895 C1.182 12.739 1.189 13.583 1.195 14.453 C1.206 15.228 1.216 16.003 1.227 16.802 C0.973 19.259 0.224 20.873 -1 23 C-1 22.01 -1 21.02 -1 20 C-1.66 19.67 -2.32 19.34 -3 19 C-2.67 15.7 -2.34 12.4 -2 9 C-2.66 8.67 -3.32 8.34 -4 8 C-4 7.34 -4 6.68 -4 6 C-3.34 5.67 -2.68 5.34 -2 5 C-1.278 3.356 -0.606 1.689 0 0 Z " fill="#FCD807" transform="translate(134,138)"/>
<path d="M0 0 C0.66 0 1.32 0 2 0 C2.695 3.737 3 7.208 3 11 C3.33 11.33 3.66 11.66 4 12 C4.475 19.366 4.475 19.366 2.5 22 C2.005 22.33 1.51 22.66 1 23 C0.039 20.117 -0.117 18.323 -0.098 15.332 C-0.094 14.439 -0.091 13.547 -0.088 12.627 C-0.08 11.698 -0.071 10.769 -0.062 9.812 C-0.058 8.872 -0.053 7.932 -0.049 6.963 C-0.037 4.642 -0.021 2.321 0 0 Z " fill="#F3E5C1" transform="translate(166,206)"/>
<path d="M0 0 C0.33 0 0.66 0 1 0 C0.67 2.97 0.34 5.94 0 9 C-1.65 9.33 -3.3 9.66 -5 10 C-5.33 10.99 -5.66 11.98 -6 13 C-9.448 15.52 -12.866 15.159 -17 15 C-15.597 12.194 -13.949 11.993 -11.062 10.875 C-10.167 10.522 -9.271 10.169 -8.348 9.805 C-6 9 -6 9 -4 9 C-2.477 6.063 -1.199 3.083 0 0 Z " fill="#CBB173" transform="translate(162,218)"/>
<path d="M0 0 C0.901 0.009 1.802 0.018 2.73 0.027 C3.418 0.039 4.105 0.051 4.812 0.062 C4.812 0.393 4.812 0.722 4.812 1.062 C4.186 1.088 3.56 1.114 2.914 1.141 C2.097 1.197 1.28 1.254 0.438 1.312 C-0.375 1.359 -1.187 1.405 -2.023 1.453 C-4.188 2.062 -4.188 2.062 -5.477 4.109 C-5.711 4.754 -5.946 5.398 -6.188 6.062 C-6.847 6.062 -7.507 6.062 -8.188 6.062 C-8.517 7.382 -8.847 8.702 -9.188 10.062 C-9.847 10.062 -10.507 10.062 -11.188 10.062 C-11.438 7.06 -11.413 5.449 -9.875 2.812 C-6.943 -0.228 -3.993 -0.052 0 0 Z " fill="#FDED5E" transform="translate(78.1875,189.9375)"/>
<path d="M0 0 C0.33 0 0.66 0 1 0 C1.098 0.557 1.196 1.114 1.297 1.688 C2.413 7.381 4.222 11.908 7 17 C5.68 16.34 4.36 15.68 3 15 C3 14.34 3 13.68 3 13 C1.68 13 0.36 13 -1 13 C-1.027 11.021 -1.046 9.042 -1.062 7.062 C-1.074 5.96 -1.086 4.858 -1.098 3.723 C-1 1 -1 1 0 0 Z " fill="#FBD319" transform="translate(55,92)"/>
<path d="M0 0 C0 1.98 0 3.96 0 6 C-6.27 6 -12.54 6 -19 6 C-19 5.67 -19 5.34 -19 5 C-18.56 4.945 -18.56 4.945 -16.332 4.668 C-15.751 4.589 -15.751 4.589 -12.812 4.188 C-11.664 4.037 -10.515 3.886 -9.332 3.73 C-6.305 3.067 -2.792 0 0 0 Z " fill="#BA984E" transform="translate(88,116)"/>
<path d="M0 0 C1.509 1.249 1.509 1.249 3 3 C3.157 4.901 3.157 4.901 2.855 7.012 C2.806 7.39 2.806 7.39 2.553 9.307 C2.432 10.092 2.312 10.878 2.188 11.688 C2.079 12.485 1.97 13.282 1.857 14.104 C1.586 16.071 1.295 18.036 1 20 C-1.072 16.593 -1.242 13.952 -1.188 10 C-1.181 8.969 -1.175 7.938 -1.168 6.875 C-1.024 4.419 -0.705 2.345 0 0 Z " fill="#F8C809" transform="translate(159,193)"/>
<path d="M0 0 C6.27 0 12.54 0 19 0 C18.34 1.32 17.68 2.64 17 4 C14.982 3.674 12.964 3.349 10.945 3.023 C10.303 3.016 9.661 3.008 9 3 C8.34 3.66 7.68 4.32 7 5 C6.67 4.01 6.34 3.02 6 2 C5.01 1.835 5.01 1.835 0 1 C0 0.67 0 0.34 0 0 Z " fill="#EEDFB5" transform="translate(69,128)"/>
<path d="M0 0 C0 3.63 0 7.26 0 11 C-0.33 11 -0.66 11 -1 11 C-1.33 8.69 -1.66 6.38 -2 4 C-2.474 4.33 -2.474 4.33 -4.875 6 C-8 8 -8 8 -10 8 C-10 7.34 -10 6.68 -10 6 C-9.34 6 -8.68 6 -8 6 C-8 5.34 -8 4.68 -8 4 C-2.588 0 -2.588 0 0 0 Z " fill="#B98005" transform="translate(89,111)"/>
<path d="M0 0 C2.25 0.125 2.25 0.125 5 1 C7.438 3.75 7.438 3.75 9 7 C8.25 9.875 8.25 9.875 7 12 C5.755 9.509 6.223 8.589 7 6 C6.01 6.33 5.02 6.66 4 7 C0 2.25 0 2.25 0 0 Z " fill="#FAD31B" transform="translate(130,62)"/>
<path d="M0 0 C0.33 0.66 0.66 1.32 1 2 C1.66 2 2.32 2 3 2 C3.833 2.833 3.833 2.833 8 7 C9.634 8.053 11.292 9.073 13 10 C12.67 10.165 12.67 10.165 11 11 C8.836 10.223 8.836 10.223 6.375 9.062 C5.558 8.682 4.74 8.302 3.898 7.91 C3.585 7.76 3.585 7.76 2 7 C2 6.34 2 5.68 2 5 C1.34 5 0.68 5 0 5 C0 3.35 0 1.7 0 0 Z " fill="#F2C008" transform="translate(55,103)"/>
<path d="M0 0 C0.66 0 1.32 0 2 0 C2.33 1.32 2.66 2.64 3 4 C3.66 4 4.32 4 5 4 C5 4.66 5 5.32 5 6 C5.66 6.33 6.32 6.66 7 7 C7 7.99 7 8.98 7 10 C6.34 10 5.68 10 5 10 C5 9.34 5 8.68 5 8 C4.01 8 3.02 8 2 8 C0.235 4.912 0 3.767 0 0 Z " fill="#E7B514" transform="translate(63,215)"/>
<path d="M0 0 C0.99 0.33 1.98 0.66 3 1 C0.75 3.5 0.75 3.5 -2 6 C-4 6 -6 6 -8 6 C-7.312 4.062 -7.312 4.062 -6 2 C-3.438 1.312 -3.438 1.312 -1 1 C-0.67 0.67 -0.34 0.34 0 0 Z " fill="#FDE52B" transform="translate(153,190)"/>
<path d="M0 0 C0 0.66 0 1.32 0 2 C-1.47 3.274 -2.945 4.544 -4.465 5.758 C-6.091 7.073 -7.562 8.482 -9 10 C-8.691 6.398 -8.006 5.007 -5.625 2.188 C-3 0 -3 0 0 0 Z " fill="#FDEF69" transform="translate(69,81)"/>
<path d="M0 0 C0.33 0 0.66 0 1 0 C1.054 1.625 1.093 3.25 1.125 4.875 C1.148 5.78 1.171 6.685 1.195 7.617 C1 10 1 10 -1 12 C-1.99 11.67 -2.98 11.34 -4 11 C-3.526 10.113 -3.051 9.226 -2.562 8.312 C-1.203 5.43 -0.459 3.124 0 0 Z " fill="#E6AD04" transform="translate(161,207)"/>
<path d="M0 0 C3 0 3 0 5 1 C4.361 1.248 3.721 1.495 3.062 1.75 C1 3 1 3 0.25 5.125 C0.168 5.744 0.085 6.363 0 7 C-0.66 7 -1.32 7 -2 7 C-2.125 4.625 -2.125 4.625 -2 2 C-1.34 1.34 -0.68 0.68 0 0 Z " fill="#FCE94D" transform="translate(69,193)"/>
<path d="M0 0 C1.98 0.66 3.96 1.32 6 2 C4 5 4 5 1.875 5.688 C1.256 5.791 0.638 5.894 0 6 C0 4.02 0 2.04 0 0 Z " fill="#FCE222" transform="translate(95,125)"/>
<path d="M0 0 C0.66 0 1.32 0 2 0 C2 2.97 2 5.94 2 9 C0.438 7.312 0.438 7.312 -1 5 C-0.688 2.25 -0.688 2.25 0 0 Z " fill="#FCD914" transform="translate(64,196)"/>
<path d="M0 0 C-0.66 0 -1.32 0 -2 0 C-2 0.66 -2 1.32 -2 2 C-4.405 3.203 -5.95 3.101 -8.625 3.062 C-9.034 3.058 -9.034 3.058 -11.102 3.035 C-11.415 3.029 -11.415 3.029 -13 3 C-13 2.67 -13 2.34 -13 2 C-10.69 2 -8.38 2 -6 2 C-6 1.34 -6 0.68 -6 0 C-3 -1 -3 -1 0 0 Z " fill="#CE9603" transform="translate(81,117)"/>
<path d="M0 0 C0.33 1.32 0.66 2.64 1 4 C-0.485 4.165 -0.485 4.165 -8 5 C-5.374 3.249 -2.712 1.613 0 0 Z " fill="#AF8B40" transform="translate(87,116)"/>
<path d="M0 0 C0.66 0 1.32 0 2 0 C2.33 2.97 2.66 5.94 3 9 C0.537 6.537 0.002 4.293 -1 1 C-0.67 0.67 -0.34 0.34 0 0 Z " fill="#F3E3BA" transform="translate(141,75)"/>
</svg>
