<?xml version="1.0" encoding="UTF-8"?>
<!-- Generator: visioncortex VTracer 0.6.12 -->
<svg version="1.1" xmlns="http://www.w3.org/2000/svg" width="213" height="265">
<path d="M0 0 C70.29 0 140.58 0 213 0 C213 87.45 213 174.9 213 265 C142.71 265 72.42 265 0 265 C0 177.55 0 90.1 0 0 Z " fill="#FDF6E1" transform="translate(0,0)"/>
<path d="M0 0 C15.101 10.352 23.131 26.49 27 44.062 C28.502 52.704 28.443 61.505 28.5 70.25 C28.508 70.942 28.516 71.634 28.524 72.348 C28.726 95.272 23.609 119.206 7.648 136.467 C-1.971 146.202 -13.392 149.578 -26.688 150.062 C-40.746 149.803 -52.741 144.239 -62.562 134.25 C-79.567 114.284 -82.485 85.88 -80.875 60.688 C-78.96 37.764 -72.948 17.204 -54.875 1.688 C-38.884 -11.043 -16.952 -10.24 0 0 Z " fill="#FB4341" transform="translate(167.875,61.3125)"/>
<path d="M0 0 C1.046 -0.021 2.092 -0.041 3.17 -0.062 C4.182 -0.068 5.195 -0.073 6.238 -0.078 C6.701 -0.083 6.701 -0.083 9.04 -0.106 C13.381 0.478 15.976 2.499 18.938 5.625 C21.533 9.518 21.813 13.237 21.808 17.837 C21.808 18.283 21.808 18.283 21.812 20.536 C21.81 21.017 21.81 21.017 21.801 23.456 C21.801 24.481 21.801 25.506 21.801 26.562 C21.801 29.944 21.793 33.325 21.785 36.707 C21.783 39.054 21.782 41.401 21.781 43.748 C21.777 49.921 21.767 56.094 21.756 62.267 C21.746 68.568 21.741 74.869 21.736 81.17 C21.726 93.53 21.709 105.89 21.688 118.25 C22.97 118.387 24.252 118.525 25.573 118.666 C29.458 119.083 29.458 119.083 31.527 120.59 C35.195 125.928 35.894 129.095 35.938 135.5 C35.958 136.252 35.979 137.003 36 137.777 C36.045 144.158 34.676 148.051 30.306 152.884 C25.766 156.543 20.514 155.947 14.938 155.879 C13.806 155.881 12.675 155.884 11.509 155.886 C9.122 155.885 6.735 155.872 4.348 155.847 C0.7 155.813 -2.946 155.826 -6.594 155.846 C-8.917 155.839 -11.24 155.829 -13.562 155.816 C-14.65 155.821 -15.738 155.826 -16.858 155.831 C-22.983 155.736 -26.656 155.352 -31.312 151.25 C-35.181 146.793 -34.795 141.927 -34.75 136.312 C-34.77 135.431 -34.79 134.55 -34.811 133.643 C-34.806 128.035 -34.163 124.622 -30.312 120.25 C-26.28 118.09 -23.904 117.25 -19.312 117.25 C-19.312 98.11 -19.312 78.97 -19.312 59.25 C-20.962 59.25 -22.612 59.25 -24.312 59.25 C-24.972 58.26 -25.633 57.27 -26.312 56.25 C-28.266 55.547 -28.266 55.547 -30.562 55 C-36.498 53.194 -39.274 49.546 -42.445 44.418 C-44.559 39.133 -44.285 32.314 -42.578 26.938 C-39.401 21.228 -34.074 17.424 -28.966 13.521 C-27.147 12.123 -25.35 10.698 -23.555 9.27 C-15.08 2.539 -10.98 0.054 0 0 Z " fill="#FCDD0F" transform="translate(57.3125,54.75)"/>
<path d="M0 0 C8.017 2.255 13.727 9.214 18 16 C19.188 18.562 19.188 18.562 20 21 C20.371 22.011 20.743 23.021 21.125 24.062 C22.73 29.45 21.805 34.764 20 40 C17.875 42.062 17.875 42.062 16 43 C17.152 45.468 18.048 47.048 20 49 C19.01 49 18.02 49 17 49 C15.986 50.658 14.989 52.327 14 54 C9.94 57.94 5.162 59.886 0 62 C0.99 62.99 1.98 63.98 3 65 C2.01 65 1.02 65 0 65 C-0.66 68.3 -1.32 71.6 -2 75 C0.64 75.33 3.28 75.66 6 76 C6 76.66 6 77.32 6 78 C7.98 78 9.96 78 12 78 C12 78.66 12 79.32 12 80 C11.34 79.835 11.34 79.835 8 79 C8 79.66 8 80.32 8 81 C8.66 81.165 8.66 81.165 12 82 C12 84.31 12 86.62 12 89 C11.01 89 10.02 89 9 89 C9.33 88.34 9.66 87.68 10 87 C7.69 87 5.38 87 3 87 C3.33 87.99 3.66 88.98 4 90 C3.34 90.99 2.68 91.98 2 93 C2 93.66 2 94.32 2 95 C1.01 95 0.02 95 -1 95 C-1.33 95.66 -1.66 96.32 -2 97 C-2.66 97 -3.32 97 -4 97 C-3.67 98.65 -3.34 100.3 -3 102 C-3.66 102 -4.32 102 -5 102 C-5.33 102.66 -5.66 103.32 -6 104 C-5.34 104 -4.68 104 -4 104 C-4 104.66 -4 105.32 -4 106 C-4.66 106.33 -4.66 106.33 -8 108 C-8 108.66 -8 109.32 -8 110 C-8.66 110.165 -8.66 110.165 -12 111 C-12 111.66 -12 112.32 -12 113 C-12.66 113 -13.32 113 -14 113 C-14.66 114.32 -15.32 115.64 -16 117 C-16.99 116.34 -17.98 115.68 -19 115 C-19.165 115.66 -19.165 115.66 -20 119 C-21.32 119 -22.64 119 -24 119 C-24.165 119.495 -24.165 119.495 -25 122 C-25.99 120.68 -26.98 119.36 -28 118 C-29.32 119.32 -30.64 120.64 -32 122 C-32.66 121.67 -33.32 121.34 -34 121 C-33.67 120.34 -33.34 119.68 -33 119 C-34.32 119 -35.64 119 -37 119 C-37 118.34 -37 117.68 -37 117 C-36.484 116.567 -35.969 116.134 -35.438 115.688 C-34.963 115.131 -34.489 114.574 -34 114 C-34.375 111.438 -34.375 111.438 -35 109 C-34.67 108.34 -34.34 107.68 -34 107 C-33.34 107.33 -32.68 107.66 -32 108 C-32.349 107.082 -32.699 106.164 -33.059 105.219 C-33.514 103.992 -33.969 102.764 -34.438 101.5 C-34.89 100.293 -35.342 99.087 -35.809 97.844 C-38.663 89.257 -38.215 80.196 -38.25 71.25 C-38.271 69.956 -38.291 68.662 -38.312 67.328 C-38.359 55.68 -37.443 44.903 -29.25 36.125 C-25.859 34.429 -22.663 34.371 -19 35 C-14.544 37.329 -12.71 40.712 -10.844 45.211 C-9.462 49.777 -8.935 54.427 -8.395 59.156 C-8 62 -8 62 -7 63 C-6.273 44.455 -6.273 44.455 -10.027 36.945 C-11.013 34.975 -11.542 33.148 -12 31 C-12.66 31 -13.32 31 -14 31 C-14.66 29.68 -15.32 28.36 -16 27 C-28.883 27.21 -28.883 27.21 -32.562 30.125 C-35.725 33.855 -37.814 37.628 -40 42 C-40.99 42 -41.98 42 -43 42 C-43 42.99 -43 43.98 -43 45 C-43.66 45 -44.32 45 -45 45 C-45.082 41.956 -44.976 39.928 -44 37 C-42.68 37 -41.36 37 -40 37 C-40 36.01 -40 35.02 -40 34 C-41.32 33.67 -42.64 33.34 -44 33 C-44 32.34 -44 31.68 -44 31 C-43.34 31 -42.68 31 -42 31 C-41.34 29.68 -40.68 28.36 -40 27 C-40.99 26.34 -41.98 25.68 -43 25 C-41.35 24.67 -39.7 24.34 -38 24 C-38.33 23.67 -38.66 23.34 -39 23 C-40.675 23.286 -42.344 23.618 -44 24 C-44.33 24.99 -44.66 25.98 -45 27 C-45.66 27 -46.32 27 -47 27 C-47 27.99 -47 28.98 -47 30 C-47.66 30 -48.32 30 -49 30 C-49 29.34 -49 28.68 -49 28 C-49.928 28.66 -50.856 29.32 -51.812 30 C-55 32 -55 32 -58 32 C-58 29 -58 29 -57 28 C-57.66 27.34 -58.32 26.68 -59 26 C-57.35 25.34 -55.7 24.68 -54 24 C-54 22.35 -54 20.7 -54 19 C-53.01 19 -52.02 19 -51 19 C-51 19.66 -51 20.32 -51 21 C-47.262 19.562 -45.089 17.152 -42.465 14.242 C-41 13 -41 13 -38 13 C-37.67 12.34 -37.34 11.68 -37 11 C-39.962 11.613 -41.381 12.254 -44 14 C-43.34 12.35 -42.68 10.7 -42 9 C-39.69 9 -37.38 9 -35 9 C-34.67 9.66 -34.34 10.32 -34 11 C-33.34 10.34 -32.68 9.68 -32 9 C-31.67 9.33 -31.34 9.66 -31 10 C-30.67 9.34 -30.34 8.68 -30 8 C-27.03 8 -24.06 8 -21 8 C-21.33 8.66 -21.66 9.32 -22 10 C-21.34 10.33 -20.68 10.66 -20 11 C-19.67 9.68 -19.34 8.36 -19 7 C-18.34 7.66 -17.68 8.32 -17 9 C-16.67 7.35 -16.34 5.7 -16 4 C-15.34 4 -14.68 4 -14 4 C-13.835 4.99 -13.835 4.99 -13 10 C-13 8.35 -13 6.7 -13 5 C-12.34 4.67 -11.68 4.34 -11 4 C-11 4.66 -11 5.32 -11 6 C-10.252 5.977 -9.505 5.954 -8.734 5.93 C-7.75 5.912 -6.765 5.894 -5.75 5.875 C-4.775 5.852 -3.801 5.829 -2.797 5.805 C0.02 6.001 1.609 6.554 4 8 C4 7.34 4 6.68 4 6 C3.01 5.67 2.02 5.34 1 5 C0.835 4.175 0.835 4.175 0 0 Z " fill="#FB4948" transform="translate(165,61)"/>
<path d="M0 0 C70.29 0 140.58 0 213 0 C213 87.45 213 174.9 213 265 C142.71 265 72.42 265 0 265 C0 177.55 0 90.1 0 0 Z M4 5 C3.75 6.857 3.75 6.857 3.751 9.163 C3.747 10.041 3.742 10.919 3.737 11.823 C3.742 12.793 3.747 13.763 3.753 14.763 C3.75 15.789 3.748 16.815 3.745 17.872 C3.74 21.332 3.748 24.792 3.757 28.252 C3.756 30.724 3.754 33.195 3.751 35.667 C3.747 41.696 3.752 47.725 3.761 53.755 C3.772 60.77 3.771 67.784 3.771 74.799 C3.771 87.311 3.78 99.823 3.794 112.335 C3.808 124.488 3.815 136.642 3.815 148.796 C3.815 149.544 3.815 150.293 3.815 151.064 C3.815 151.812 3.814 152.559 3.814 153.329 C3.814 167.148 3.82 180.967 3.829 194.786 C3.832 199.681 3.833 204.576 3.833 209.471 C3.834 216.053 3.84 222.635 3.85 229.217 C3.853 231.64 3.854 234.063 3.854 236.486 C3.853 239.779 3.859 243.072 3.866 246.364 C3.865 247.337 3.863 248.309 3.862 249.311 C3.865 250.186 3.868 251.061 3.871 251.963 C3.872 252.724 3.873 253.485 3.874 254.269 C4 256 4 256 5 257 C7.641 257.1 10.255 257.134 12.896 257.127 C13.733 257.129 14.571 257.13 15.433 257.132 C18.261 257.136 21.088 257.133 23.916 257.129 C25.934 257.131 27.952 257.133 29.971 257.135 C35.468 257.139 40.966 257.137 46.464 257.134 C52.204 257.132 57.943 257.134 63.683 257.136 C73.324 257.138 82.965 257.135 92.606 257.13 C103.77 257.125 114.933 257.127 126.097 257.132 C135.663 257.137 145.229 257.137 154.795 257.135 C160.516 257.133 166.238 257.133 171.96 257.136 C177.337 257.139 182.715 257.137 188.093 257.131 C190.073 257.13 192.052 257.13 194.032 257.133 C196.723 257.135 199.413 257.132 202.104 257.127 C202.898 257.129 203.692 257.131 204.51 257.134 C209.886 257.114 209.886 257.114 211 256 C211.097 254.651 211.126 253.297 211.126 251.944 C211.128 251.065 211.131 250.186 211.134 249.28 C211.132 248.303 211.129 247.326 211.127 246.32 C211.129 245.29 211.13 244.261 211.132 243.201 C211.136 239.724 211.133 236.247 211.129 232.77 C211.131 230.288 211.133 227.807 211.135 225.326 C211.139 219.269 211.138 213.212 211.135 207.155 C211.133 202.235 211.133 197.315 211.134 192.394 C211.134 192.045 211.134 192.045 211.134 190.276 C211.135 188.856 211.135 187.437 211.135 186.017 C211.138 172.689 211.135 159.36 211.129 146.032 C211.125 134.584 211.126 123.135 211.13 111.687 C211.136 98.408 211.138 85.129 211.135 71.85 C211.134 70.435 211.134 69.02 211.134 67.606 C211.134 66.91 211.134 66.214 211.133 65.496 C211.132 60.579 211.134 55.662 211.136 50.745 C211.139 44.132 211.137 37.52 211.131 30.908 C211.13 28.473 211.13 26.039 211.133 23.604 C211.135 20.296 211.132 16.988 211.127 13.68 C211.129 12.703 211.131 11.727 211.134 10.72 C211.131 9.841 211.129 8.962 211.126 8.056 C211.126 7.291 211.126 6.527 211.125 5.739 C211 4 211 4 210 3 C207.374 2.898 204.775 2.861 202.149 2.866 C201.316 2.864 200.484 2.862 199.626 2.859 C196.814 2.853 194.003 2.854 191.192 2.855 C189.185 2.852 187.178 2.848 185.171 2.845 C179.705 2.836 174.238 2.833 168.771 2.833 C164.215 2.832 159.66 2.828 155.105 2.825 C144.362 2.816 133.619 2.814 122.876 2.815 C111.775 2.815 100.674 2.805 89.573 2.789 C80.059 2.776 70.544 2.771 61.03 2.771 C55.34 2.771 49.651 2.769 43.961 2.758 C38.612 2.748 33.263 2.748 27.914 2.755 C25.946 2.757 23.978 2.754 22.01 2.748 C19.332 2.74 16.656 2.745 13.978 2.753 C13.585 2.75 13.585 2.75 11.593 2.737 C6.228 2.772 6.228 2.772 4 5 Z " fill="#FDFDFC" transform="translate(0,0)"/>
<path d="M0 0 C2.204 2.004 2.225 3.65 2.68 6.527 C3.01 6.692 3.01 6.692 4.68 7.527 C4.68 8.187 4.68 8.847 4.68 9.527 C3.504 9.383 2.328 9.239 1.117 9.09 C0.393 9.001 -0.332 8.912 -1.078 8.82 C-3.143 8.551 -5.201 8.229 -7.258 7.902 C-8.268 7.779 -9.279 7.655 -10.32 7.527 C-11.961 9.168 -11.921 11.305 -12.32 13.527 C-12.65 13.527 -12.98 13.527 -13.32 13.527 C-14.445 7.777 -14.445 7.777 -13.32 5.527 C-13.98 5.527 -14.64 5.527 -15.32 5.527 C-15.65 7.837 -15.98 10.147 -16.32 12.527 C-16.98 11.537 -17.64 10.547 -18.32 9.527 C-18.65 10.517 -18.98 11.507 -19.32 12.527 C-20.31 12.197 -21.3 11.867 -22.32 11.527 C-22.155 11.362 -22.155 11.362 -21.32 10.527 C-21.795 10.538 -21.795 10.538 -24.195 10.59 C-27.32 10.527 -27.32 10.527 -29.32 9.527 C-29.65 10.517 -29.98 11.507 -30.32 12.527 C-30.98 12.527 -31.64 12.527 -32.32 12.527 C-32.98 13.187 -33.64 13.847 -34.32 14.527 C-34.32 13.207 -34.32 11.887 -34.32 10.527 C-36.63 10.527 -38.94 10.527 -41.32 10.527 C-41.32 11.517 -41.32 12.507 -41.32 13.527 C-40.66 12.867 -40 12.207 -39.32 11.527 C-38.33 11.857 -37.34 12.187 -36.32 12.527 C-36.98 13.847 -37.64 15.167 -38.32 16.527 C-38.32 15.867 -38.32 15.207 -38.32 14.527 C-39.613 15.651 -40.904 16.777 -42.195 17.902 C-42.915 18.529 -43.634 19.155 -44.375 19.801 C-45.728 21.002 -47.041 22.248 -48.32 23.527 C-49.31 23.197 -50.3 22.867 -51.32 22.527 C-50.99 21.867 -50.66 21.207 -50.32 20.527 C-50.98 20.857 -51.64 21.187 -52.32 21.527 C-52.32 23.177 -52.32 24.827 -52.32 26.527 C-53.145 26.692 -53.145 26.692 -57.32 27.527 C-56.66 27.857 -56 28.187 -55.32 28.527 C-55.32 29.187 -55.32 29.847 -55.32 30.527 C-55.98 30.527 -56.64 30.527 -57.32 30.527 C-57.32 31.517 -57.32 32.507 -57.32 33.527 C-56.207 32.867 -55.093 32.207 -53.945 31.527 C-50.57 29.527 -50.57 29.527 -48.32 29.527 C-48.32 30.187 -48.32 30.847 -48.32 31.527 C-47.66 31.527 -47 31.527 -46.32 31.527 C-46.32 30.537 -46.32 29.547 -46.32 28.527 C-45.99 28.362 -45.99 28.362 -44.32 27.527 C-44.65 26.867 -44.98 26.207 -45.32 25.527 C-42.68 24.867 -40.04 24.207 -37.32 23.527 C-37.32 24.187 -37.32 24.847 -37.32 25.527 C-37.65 25.692 -37.65 25.692 -39.32 26.527 C-38.66 27.187 -38 27.847 -37.32 28.527 C-38.61 29.903 -39.947 31.235 -41.32 32.527 C-41.98 32.527 -42.64 32.527 -43.32 32.527 C-43.32 33.187 -43.32 33.847 -43.32 34.527 C-41.67 34.527 -40.02 34.527 -38.32 34.527 C-38.65 35.847 -38.98 37.167 -39.32 38.527 C-40.64 38.527 -41.96 38.527 -43.32 38.527 C-42.99 39.517 -42.66 40.507 -42.32 41.527 C-42.633 44.152 -42.633 44.152 -43.32 46.527 C-43.65 46.692 -43.65 46.692 -45.32 47.527 C-44.99 47.692 -44.99 47.692 -43.32 48.527 C-43.32 49.187 -43.32 49.847 -43.32 50.527 C-43.98 50.527 -44.64 50.527 -45.32 50.527 C-44.99 51.517 -44.66 52.507 -44.32 53.527 C-43.99 53.692 -43.99 53.692 -42.32 54.527 C-42.461 56.153 -42.608 57.778 -42.758 59.402 C-42.839 60.307 -42.92 61.212 -43.004 62.145 C-43.32 64.527 -43.32 64.527 -44.32 66.527 C-45.97 66.197 -47.62 65.867 -49.32 65.527 C-48.99 66.517 -48.66 67.507 -48.32 68.527 C-48.815 68.692 -48.815 68.692 -51.32 69.527 C-51.32 68.537 -51.32 67.547 -51.32 66.527 C-51.877 66.672 -52.434 66.816 -53.008 66.965 C-55.434 67.555 -57.869 68.051 -60.32 68.527 C-60.32 67.867 -60.32 67.207 -60.32 66.527 C-60.65 66.857 -60.98 67.187 -61.32 67.527 C-61.32 68.187 -61.32 68.847 -61.32 69.527 C-59.01 69.527 -56.7 69.527 -54.32 69.527 C-53.99 68.867 -53.66 68.207 -53.32 67.527 C-53.65 68.847 -53.98 70.167 -54.32 71.527 C-55.393 71.486 -56.465 71.445 -57.57 71.402 C-61.076 71.519 -62.389 71.899 -65.32 73.527 C-65.98 73.197 -66.64 72.867 -67.32 72.527 C-66.99 74.177 -66.66 75.827 -66.32 77.527 C-66.815 77.692 -66.815 77.692 -69.32 78.527 C-68.66 78.857 -68 79.187 -67.32 79.527 C-67.32 80.187 -67.32 80.847 -67.32 81.527 C-67.98 81.527 -68.64 81.527 -69.32 81.527 C-69.32 83.507 -69.32 85.487 -69.32 87.527 C-71.258 87.215 -71.258 87.215 -73.32 86.527 C-73.65 85.537 -73.98 84.547 -74.32 83.527 C-74.65 85.177 -74.98 86.827 -75.32 88.527 C-75.65 88.527 -75.98 88.527 -76.32 88.527 C-81.714 67.301 -76.397 38.357 -65.633 19.715 C-51.748 -1.543 -23.745 -15.071 0 0 Z " fill="#FB494A" transform="translate(164.3203125,59.47265625)"/>
<path d="M0 0 C1.32 0.33 2.64 0.66 4 1 C4 3.97 4 6.94 4 10 C4.99 10 5.98 10 7 10 C6.979 10.784 6.959 11.567 6.938 12.375 C7 15 7 15 8 17 C7.879 19.023 7.879 19.023 7.562 21.375 C7.021 25.474 6.989 29.428 7.07 33.566 C7.088 34.885 7.106 36.204 7.125 37.562 C7.142 38.235 7.159 38.907 7.176 39.6 C7.213 43.313 7.118 44.823 5 48 C4.835 48.825 4.67 49.65 4.5 50.5 C4 53 4 53 2 56 C2.66 56.33 3.32 56.66 4 57 C4 65.237 2.804 71.054 -3 77 C-3.557 77.784 -4.114 78.567 -4.688 79.375 C-5.121 79.911 -5.554 80.447 -6 81 C-6.66 81 -7.32 81 -8 81 C-8 81.66 -8 82.32 -8 83 C-8.99 83 -9.98 83 -11 83 C-11 82.34 -11 81.68 -11 81 C-11.33 81.165 -11.33 81.165 -13 82 C-13.165 82.495 -13.165 82.495 -14 85 C-17.062 86.188 -17.062 86.188 -20 87 C-20 86.34 -20 85.68 -20 85 C-20.928 85 -21.856 85 -22.812 85 C-24.875 85 -26.938 85 -29 85 C-28.67 83.02 -28.34 81.04 -28 79 C-28.928 79.66 -29.856 80.32 -30.812 81 C-34 83 -34 83 -37 83 C-37 83.66 -37 84.32 -37 85 C-38.531 86.289 -38.531 86.289 -40.5 87.625 C-41.15 88.071 -41.799 88.517 -42.469 88.977 C-42.721 89.145 -42.721 89.145 -44 90 C-43.175 89.67 -43.175 89.67 -39 88 C-39 88.66 -39 89.32 -39 90 C-39.33 90.165 -39.33 90.165 -41 91 C-41.33 91.99 -41.66 92.98 -42 94 C-43.333 94.333 -44.667 94.667 -46 95 C-46.33 95.99 -46.66 96.98 -47 98 C-48.32 98 -49.64 98 -51 98 C-51 96.35 -51 94.7 -51 93 C-52.65 93 -54.3 93 -56 93 C-56.165 93.33 -56.165 93.33 -57 95 C-57.66 94.34 -58.32 93.68 -59 93 C-59 92.01 -59 91.02 -59 90 C-59.66 90 -60.32 90 -61 90 C-60.34 88.68 -59.68 87.36 -59 86 C-57.68 86 -56.36 86 -55 86 C-55 85.34 -55 84.68 -55 84 C-53.369 82.942 -51.697 81.947 -50 81 C-49.505 80.67 -49.505 80.67 -47 79 C-47 79.66 -47 80.32 -47 81 C-46.34 81.33 -45.68 81.66 -45 82 C-44.67 81.67 -44.34 81.34 -44 81 C-42.68 81 -41.36 81 -40 81 C-39.67 79.68 -39.34 78.36 -39 77 C-37.68 77 -36.36 77 -35 77 C-34.67 76.34 -34.34 75.68 -34 75 C-33.34 75 -32.68 75 -32 75 C-32 74.34 -32 73.68 -32 73 C-31.34 72.835 -31.34 72.835 -28 72 C-28.33 71.01 -28.66 70.02 -29 69 C-28.175 68.835 -28.175 68.835 -24 68 C-24 67.34 -24 66.68 -24 66 C-24.66 66 -25.32 66 -26 66 C-25.835 65.505 -25.835 65.505 -25 63 C-24.67 63.165 -24.67 63.165 -23 64 C-23 63.34 -23 62.68 -23 62 C-23.33 61.835 -23.33 61.835 -25 61 C-24.835 60.67 -24.835 60.67 -24 59 C-23.34 59 -22.68 59 -22 59 C-21.67 58.01 -21.34 57.02 -21 56 C-20.01 56.33 -19.02 56.66 -18 57 C-18.33 56.01 -18.66 55.02 -19 54 C-18.34 53.01 -17.68 52.02 -17 51 C-17 50.01 -17 49.02 -17 48 C-14.657 48.256 -12.322 48.593 -10 49 C-9.67 49.66 -9.34 50.32 -9 51 C-8.67 48.69 -8.34 46.38 -8 44 C-9.32 43.67 -10.64 43.34 -12 43 C-12 42.34 -12 41.68 -12 41 C-10.68 41.33 -9.36 41.66 -8 42 C-8 41.34 -8 40.68 -8 40 C-9.98 40 -11.96 40 -14 40 C-14 39.34 -14 38.68 -14 38 C-16.64 38 -19.28 38 -22 38 C-23.118 34.645 -22.915 34.029 -21.688 30.875 C-21.423 30.171 -21.159 29.467 -20.887 28.742 C-20 27 -20 27 -18 26 C-18.99 25.34 -19.98 24.68 -21 24 C-20.096 23.529 -19.193 23.059 -18.262 22.574 C-17.07 21.946 -15.879 21.317 -14.688 20.688 C-14.39 20.533 -14.39 20.533 -12.885 19.752 C-7.993 17.156 -5.262 15.046 -3 10 C-3.66 9.01 -4.32 8.02 -5 7 C-4.188 5.062 -4.188 5.062 -3 3 C-2.01 2.67 -1.02 2.34 0 2 C0 1.34 0 0.68 0 0 Z M-58 88 C-54 89 -54 89 -54 89 Z " fill="#FB4342" transform="translate(185,99)"/>
<path d="M0 0 C5.249 2.744 7.213 7.585 9 13 C9.923 17.572 10.16 22.022 10.168 26.672 C10.171 27.394 10.175 28.117 10.178 28.861 C10.183 30.384 10.185 31.907 10.185 33.43 C10.187 35.729 10.206 38.029 10.225 40.328 C10.27 51.916 10.156 63.704 2.312 73 C-1.452 74.628 -4.981 74.735 -9 74 C-14.217 70.522 -16.327 64.865 -18 59 C-19.315 51.463 -19.22 43.883 -19.25 36.25 C-19.271 34.956 -19.291 33.662 -19.312 32.328 C-19.359 20.68 -18.443 9.903 -10.25 1.125 C-6.859 -0.571 -3.663 -0.629 0 0 Z " fill="#FBECD4" transform="translate(146,96)"/>
<path d="M0 0 C0.99 0 1.98 0 3 0 C7.649 5.957 7.31 11.419 7.043 18.672 C7 22 7 22 8 25 C7.67 25.66 7.34 26.32 7 27 C6.848 29.764 6.769 32.485 6.75 35.25 C6.729 36.002 6.709 36.753 6.688 37.527 C6.662 41.227 6.706 43.464 8.516 46.766 C10.862 51.878 10.175 56.957 10 62.5 C9.734 81.29 11.66 97.663 19 115 C19.686 116.993 20.36 118.991 21 121 C20.01 121.66 19.02 122.32 18 123 C18.228 123.918 18.456 124.836 18.691 125.781 C21.833 139.194 21.833 139.194 20 145 C17.04 149.257 14.402 151.667 9.312 152.875 C8.219 152.916 7.126 152.958 6 153 C4.665 153.328 3.332 153.662 2 154 C-5.143 155.039 -12.235 155.098 -19.438 155 C-21.374 154.975 -23.31 154.953 -25.246 154.938 C-25.667 154.932 -25.667 154.932 -27.799 154.902 C-30 155 -30 155 -33 156 C-35.688 154.812 -35.688 154.812 -38 153 C-38 151.68 -38 150.36 -38 149 C-38.464 148.938 -38.464 148.938 -40.812 148.625 C-44 148 -44 148 -47 146 C-46.67 145.01 -46.34 144.02 -46 143 C-45.681 143.006 -45.681 143.006 -44.066 143.034 C-37.415 143.144 -30.764 143.22 -24.113 143.275 C-21.632 143.3 -19.15 143.334 -16.669 143.377 C-13.1 143.438 -9.531 143.466 -5.961 143.488 C-4.854 143.514 -3.748 143.54 -2.608 143.566 C6.001 143.57 6.001 143.57 9.663 140.612 C14.173 135.571 14.364 131.052 14.375 124.562 C14.387 124.194 14.387 124.194 14.449 122.326 C14.477 117.134 13.729 113.896 10 110 C7.03 109.01 4.06 108.02 1 107 C0.835 89.345 0.835 89.345 0 0 Z " fill="#F2DFC2" transform="translate(78,66)"/>
<path d="M0 0 C3.871 2.457 3.871 2.457 4.625 5.625 C4.749 6.409 4.873 7.192 5 8 C5.33 8.165 5.33 8.165 7 9 C7 9.66 7 10.32 7 11 C5.824 10.856 4.649 10.711 3.438 10.562 C2.713 10.474 1.989 10.385 1.242 10.293 C-0.823 10.023 -2.881 9.701 -4.938 9.375 C-5.948 9.251 -6.959 9.127 -8 9 C-9.641 10.641 -9.601 12.778 -10 15 C-10.33 15 -10.66 15 -11 15 C-12.125 9.25 -12.125 9.25 -11 7 C-11.66 7 -12.32 7 -13 7 C-13.33 9.31 -13.66 11.62 -14 14 C-14.66 13.01 -15.32 12.02 -16 11 C-16.33 11.99 -16.66 12.98 -17 14 C-17.99 13.67 -18.98 13.34 -20 13 C-19.835 12.835 -19.835 12.835 -19 12 C-19.474 12.01 -19.474 12.01 -21.875 12.062 C-25 12 -25 12 -27 11 C-27.33 11.99 -27.66 12.98 -28 14 C-28.66 14 -29.32 14 -30 14 C-30.66 14.66 -31.32 15.32 -32 16 C-32 14.68 -32 13.36 -32 12 C-34.31 12 -36.62 12 -39 12 C-39 12.99 -39 13.98 -39 15 C-38.34 14.34 -37.68 13.68 -37 13 C-36.01 13.33 -35.02 13.66 -34 14 C-34.66 15.32 -35.32 16.64 -36 18 C-36 17.34 -36 16.68 -36 16 C-37.292 17.124 -38.584 18.249 -39.875 19.375 C-40.594 20.001 -41.314 20.628 -42.055 21.273 C-43.408 22.474 -44.721 23.721 -46 25 C-46.99 24.67 -47.98 24.34 -49 24 C-48.67 23.34 -48.34 22.68 -48 22 C-48.66 22.33 -49.32 22.66 -50 23 C-50 24.65 -50 26.3 -50 28 C-51.485 28.165 -51.485 28.165 -59 29 C-59 29.66 -59 30.32 -59 31 C-58.01 31.33 -57.02 31.66 -56 32 C-56.639 32.433 -57.279 32.866 -57.938 33.312 C-60 35 -60 35 -61 38 C-60.34 38.33 -59.68 38.66 -59 39 C-59.825 39.165 -59.825 39.165 -64 40 C-64 40.66 -64 41.32 -64 42 C-63.34 42.33 -62.68 42.66 -62 43 C-62.825 43.165 -62.825 43.165 -67 44 C-67.33 45.32 -67.66 46.64 -68 48 C-68.082 43.839 -67.982 40.053 -67 36 C-67.66 36 -68.32 36 -69 36 C-67.248 25.068 -60.7 16.578 -53 9 C-52.412 8.413 -51.824 7.827 -51.219 7.223 C-37.283 -5.694 -17.015 -7.438 0 0 Z " fill="#FC5351" transform="translate(162,58)"/>
<path d="M0 0 C10.699 9.592 13.466 28.232 14.211 41.867 C14.372 46.161 14.419 50.453 14.438 54.75 C14.444 55.437 14.45 56.124 14.456 56.831 C14.592 80.387 9.078 105.038 -7.938 122.258 C-18.275 131.986 -30.691 134.562 -44.414 134.309 C-58.353 133.109 -69.934 126.385 -78.914 115.832 C-82.533 110.919 -85.724 105.675 -88 100 C-87.67 99.01 -87.34 98.02 -87 97 C-86.481 98.06 -85.961 99.119 -85.426 100.211 C-84.722 101.599 -84.018 102.987 -83.312 104.375 C-82.973 105.074 -82.633 105.772 -82.283 106.492 C-79.62 111.67 -79.62 111.67 -76.23 113.477 C-75.494 113.649 -74.758 113.822 -74 114 C-74.33 114.165 -74.33 114.165 -76 115 C-73.612 118.582 -72.366 118.475 -68.352 119.336 C-64.813 120.335 -61.72 122.046 -58.492 123.781 C-51.895 127.007 -46.348 127.252 -39.125 127.125 C-38.15 127.116 -37.176 127.107 -36.172 127.098 C-33.781 127.074 -31.391 127.041 -29 127 C-28.34 125.02 -27.68 123.04 -27 121 C-26.196 120.876 -25.391 120.752 -24.562 120.625 C-24.14 120.522 -24.14 120.522 -22 120 C-21.67 119.34 -21.34 118.68 -21 118 C-19.633 117.18 -18.231 116.417 -16.812 115.688 C-12.71 113.456 -9.311 111.311 -6 108 C-5.375 105.438 -5.375 105.438 -5 103 C-3.715 101.62 -2.37 100.296 -1 99 C2.753 94.637 5.857 90.994 6 85 C5.67 84.34 5.34 83.68 5 83 C5.66 83 6.32 83 7 83 C7 82.34 7 81.68 7 81 C6.34 80.67 5.68 80.34 5 80 C7 69 7 69 9 67 C9.073 64.47 9.092 61.967 9.062 59.438 C9.058 58.727 9.053 58.016 9.049 57.283 C9.037 55.522 9.019 53.761 9 52 C7.68 51.34 6.36 50.68 5 50 C6.65 50 8.3 50 10 50 C9.814 49.299 9.629 48.597 9.438 47.875 C8.949 44.662 9.435 42.178 10 39 C9.67 38.34 9.34 37.68 9 37 C9 35.68 9 34.36 9 33 C7.68 32.34 6.36 31.68 5 31 C5.66 31 6.32 31 7 31 C6.897 29.721 6.794 28.442 6.688 27.125 C6.629 26.406 6.571 25.686 6.512 24.945 C6 23 6 23 3 21 C3.206 20.134 3.412 19.267 3.625 18.375 C4.04 14.636 3.397 12.451 2 9 C2.66 9 3.32 9 4 9 C3.67 8.443 3.67 8.443 2 5.625 C0 2.25 0 2.25 0 0 Z " fill="#E43028" transform="translate(182,77)"/>
<path d="M0 0 C0.33 0 0.66 0 1 0 C2.059 8.443 2.186 16.829 2.185 25.323 C2.188 27.693 2.206 30.062 2.225 32.432 C2.228 33.958 2.23 35.485 2.23 37.012 C2.238 37.71 2.245 38.408 2.252 39.127 C2.231 43.74 1.391 47.618 0 52 C-0.303 54.058 -0.574 56.121 -0.812 58.188 C-1.783 64.992 -4.079 70.812 -7 77 C-7.66 77 -8.32 77 -9 77 C-9.103 77.763 -9.206 78.526 -9.312 79.312 C-10.087 82.339 -10.858 82.858 -13 85 C-13.433 86.134 -13.866 87.269 -14.312 88.438 C-16.308 92.65 -18.038 93.67 -22 96 C-22.928 96.825 -23.856 97.65 -24.812 98.5 C-32.742 105.1 -40.902 105.653 -50.938 105.562 C-51.543 105.574 -51.543 105.574 -54.607 105.635 C-61.696 105.623 -66.782 104.808 -72.916 101.172 C-74.961 100.022 -76.711 99.453 -79 99 C-79 98.34 -79 97.68 -79 97 C-79.701 96.732 -80.403 96.464 -81.125 96.188 C-82.074 95.796 -83.023 95.404 -84 95 C-85.031 94.608 -86.062 94.216 -87.125 93.812 C-91.014 91.361 -91.427 89.248 -93 85 C-93.66 84.67 -94.32 84.34 -95 84 C-95.625 80.938 -95.625 80.938 -96 78 C-95.34 78.681 -94.68 79.361 -94 80.062 C-93.003 81.045 -92.003 82.024 -91 83 C-90.442 83.554 -89.884 84.109 -89.309 84.68 C-78.643 94.7 -66.772 98.465 -52.449 98.176 C-41.046 97.595 -30.619 93.671 -22.125 85.75 C-6.822 68.743 -2.211 45.898 -1.5 23.75 C-1.241 15.8 -0.813 7.915 0 0 Z " fill="#DFC59D" transform="translate(197,112)"/>
<path d="M0 0 C0.99 0 1.98 0 3 0 C3.33 0.99 3.33 0.99 5 6 C4.01 6.66 3.02 7.32 2 8 C2.114 8.459 2.114 8.459 2.691 10.781 C5.833 24.194 5.833 24.194 4 30 C1.04 34.257 -1.598 36.667 -6.688 37.875 C-7.234 37.896 -7.234 37.896 -10 38 C-11.335 38.328 -12.668 38.662 -14 39 C-21.143 40.039 -28.235 40.098 -35.438 40 C-37.374 39.975 -39.31 39.953 -41.246 39.938 C-41.667 39.932 -41.667 39.932 -43.799 39.902 C-46 40 -46 40 -49 41 C-51.688 39.812 -51.688 39.812 -54 38 C-54 36.68 -54 35.36 -54 34 C-54.464 33.938 -54.464 33.938 -56.812 33.625 C-60 33 -60 33 -63 31 C-62.67 30.01 -62.34 29.02 -62 28 C-61.362 28.011 -60.724 28.022 -60.066 28.034 C-53.415 28.144 -46.764 28.22 -40.113 28.275 C-37.632 28.3 -35.15 28.334 -32.669 28.377 C-29.1 28.438 -25.531 28.466 -21.961 28.488 C-20.854 28.514 -19.748 28.54 -18.608 28.566 C-9.999 28.57 -9.999 28.57 -6.336 25.615 C-2.02 20.783 -1.733 16.749 -1.438 10.375 C-1.096 3.289 -1.096 3.289 0 0 Z " fill="#DBC594" transform="translate(94,181)"/>
<path d="M0 0 C0.165 0.825 0.165 0.825 1 5 C1.66 5 2.32 5 3 5 C13.162 17.813 9.051 38.829 8 54 C7.67 54 7.34 54 7 54 C6.95 53.26 6.9 52.519 6.848 51.756 C6.614 48.358 6.37 44.96 6.125 41.562 C6.046 40.398 5.968 39.233 5.887 38.033 C5.186 28.462 4.444 20.083 -1 12 C-4.703 9.531 -7.704 9.336 -12 10 C-16.643 12.58 -18.438 16.081 -20 21 C-22.236 28.987 -22.299 36.612 -22.25 44.875 C-22.258 46.173 -22.265 47.471 -22.273 48.809 C-22.252 59.32 -20.674 68.878 -18 79 C-19.32 78.67 -20.64 78.34 -22 78 C-22 77.34 -22 76.68 -22 76 C-22.66 76 -23.32 76 -24 76 C-25.969 70.179 -27.273 64.722 -27.758 58.598 C-28.028 55.703 -28.452 52.866 -28.938 50 C-29.091 49.093 -29.244 48.185 -29.402 47.25 C-30 45 -30 45 -32 43 C-31.505 42.835 -31.505 42.835 -29 42 C-28.926 38.657 -28.935 36.196 -30 33 C-29.724 30.991 -29.398 28.988 -29 27 C-29.66 27.33 -30.32 27.66 -31 28 C-31 27.34 -31 26.68 -31 26 C-31.66 25.67 -32.32 25.34 -33 25 C-32.34 25 -31.68 25 -31 25 C-31 24.34 -31 23.68 -31 23 C-30.67 22.67 -30.34 22.34 -30 22 C-30.33 21.34 -30.66 20.68 -31 20 C-30.34 19.67 -29.68 19.34 -29 19 C-28.67 18.01 -28.34 17.02 -28 16 C-27.01 15.34 -26.02 14.68 -25 14 C-24.711 13.464 -24.711 13.464 -23.25 10.75 C-20.945 6.561 -18.067 3.534 -14 1 C-9.334 -0.167 -4.797 -0.098 0 0 Z " fill="#ED312E" transform="translate(150,87)"/>
<path d="M0 0 C6.209 5.5 7.491 14.114 8 22 C8.66 22 9.32 22 10 22 C11.123 29.698 12.153 37.202 12 45 C12.33 45.66 12.66 46.32 13 47 C13.388 52.392 12.84 57.66 12.145 63 C12 65 12 65 12.625 67.75 C13 70 13 70 11.5 72.312 C9.697 75.542 10.24 77.091 10.863 80.617 C11.788 96.734 -0.134 111.652 -9.973 123.02 C-12.165 125.161 -14.326 126.516 -17 128 C-17.73 128.446 -18.459 128.892 -19.211 129.352 C-23.895 132.108 -27.512 133.492 -33 134 C-34.093 134.351 -35.186 134.701 -36.312 135.062 C-40.949 136.241 -45.245 136.172 -50 136 C-50 135.34 -50 134.68 -50 134 C-50.626 134.012 -51.253 134.023 -51.898 134.035 C-52.716 134.044 -53.533 134.053 -54.375 134.062 C-55.187 134.074 -55.999 134.086 -56.836 134.098 C-59 134 -59 134 -61 133 C-61 132.34 -61 131.68 -61 131 C-60.113 130.996 -59.227 130.992 -58.313 130.988 C-54.976 130.96 -51.641 130.911 -48.305 130.847 C-46.87 130.824 -45.434 130.81 -43.999 130.804 C-32.534 130.752 -24.155 128.792 -15.062 121.375 C-14.352 120.805 -13.642 120.235 -12.91 119.648 C-9.329 116.558 -7.728 114.427 -6 110 C-5.013 108.657 -4.014 107.323 -3 106 C-2.835 105.505 -2.835 105.505 -2 103 C-1.34 103 -0.68 103 0 103 C0.193 102.287 0.387 101.574 0.586 100.84 C0.846 99.882 1.107 98.924 1.375 97.938 C1.65 96.924 1.924 95.911 2.207 94.867 C2.791 92.756 3.416 90.655 4.062 88.562 C5.193 84.268 5.869 79.962 6.535 75.574 C7 73 7 73 8 71 C8.087 68.374 8.116 65.774 8.098 63.148 C8.096 62.374 8.095 61.6 8.093 60.803 C8.088 58.327 8.075 55.851 8.062 53.375 C8.057 51.698 8.053 50.021 8.049 48.344 C8.038 44.229 8.021 40.115 8 36 C7.67 36.165 7.67 36.165 6 37 C5.895 36.295 5.789 35.59 5.68 34.864 C5.19 31.616 4.689 28.371 4.188 25.125 C4.022 24.016 3.856 22.908 3.686 21.766 C2.727 15.616 1.506 9.813 -0.518 3.921 C-1 2 -1 2 0 0 Z " fill="#EAD5B1" transform="translate(190,86)"/>
<path d="M0 0 C0.103 0.536 0.206 1.073 0.312 1.625 C1 4 1 4 2.522 6.71 C4.198 10.442 4.363 12.941 4.341 17.015 C4.341 17.352 4.341 17.352 4.342 19.057 C4.34 21.265 4.317 23.472 4.293 25.68 C4.287 27.218 4.283 28.757 4.28 30.295 C4.269 34.329 4.239 38.363 4.206 42.398 C4.175 46.52 4.162 50.643 4.146 54.766 C4.114 62.844 4.063 70.922 4 79 C3.34 79 2.68 79 2 79 C1.67 79.99 1.34 80.98 1 82 C0.835 72.43 0.835 72.43 0 24 C-1.65 24 -3.3 24 -5 24 C-5.66 23.01 -6.32 22.02 -7 21 C-8.953 20.297 -8.953 20.297 -11.25 19.75 C-16.428 18.188 -19.024 15.411 -22 11 C-23.478 8.043 -23.06 5.258 -23 2 C-22.01 2 -21.02 2 -20 2 C-19.34 2.66 -18.68 3.32 -18 4 C-16.02 3.34 -14.04 2.68 -12 2 C-11.67 2.495 -11.67 2.495 -10 5 C-6.875 5.688 -6.875 5.688 -4 6 C-2.68 4.02 -1.36 2.04 0 0 Z " fill="#FBD40A" transform="translate(38,90)"/>
<path d="M0 0 C3.373 2.938 4.442 4.593 5 9 C5.134 12.372 5.126 15.74 5.114 19.115 C5.114 20.13 5.114 21.145 5.114 22.191 C5.113 25.54 5.105 28.889 5.098 32.238 C5.096 34.563 5.094 36.887 5.093 39.212 C5.09 45.326 5.08 51.44 5.069 57.554 C5.058 63.794 5.054 70.035 5.049 76.275 C5.038 88.517 5.021 100.758 5 113 C3.35 112.67 1.7 112.34 0 112 C-2.185 92.526 -2.185 92.526 -0.465 85.957 C0.147 83.382 -0.152 81.257 -0.438 78.625 C-1.597 65.284 -1.55 51.681 -0.121 38.363 C0 36 0 36 -1 33 C-0.829 29.921 -0.487 26.878 -0.156 23.812 C0 21 0 21 -1 18 C-0.835 17.196 -0.67 16.391 -0.5 15.562 C0 13 0 13 -0.562 10.875 C-0.707 10.256 -0.851 9.638 -1 9 C-0.34 8.01 0.32 7.02 1 6 C0.625 2.812 0.625 2.812 0 0 Z " fill="#DA9E1A" transform="translate(74,59)"/>
<path d="M0 0 C1.729 6.914 -2.304 12.899 -5.613 18.949 C-12.692 30.617 -21.467 38.393 -34.566 42.879 C-48.552 46.174 -62.409 44.136 -74.75 36.875 C-84.476 30.203 -91.616 20.929 -96 10 C-95.67 9.01 -95.34 8.02 -95 7 C-94.74 7.53 -94.74 7.53 -93.426 10.211 C-92.722 11.599 -92.018 12.987 -91.312 14.375 C-90.973 15.074 -90.633 15.772 -90.283 16.492 C-87.62 21.67 -87.62 21.67 -84.23 23.477 C-83.494 23.649 -82.758 23.822 -82 24 C-82.66 24.33 -83.32 24.66 -84 25 C-81.612 28.582 -80.366 28.475 -76.352 29.336 C-72.813 30.335 -69.72 32.046 -66.492 33.781 C-56.131 38.848 -44.539 38.041 -33.652 34.914 C-27.253 32.709 -19.196 29.391 -16 23 C-15.34 23 -14.68 23 -14 23 C-13.773 22.443 -13.546 21.886 -13.312 21.312 C-12 19 -12 19 -9.562 16.625 C-6.913 13.911 -5.524 11.448 -4 8 C-3.34 8 -2.68 8 -2 8 C-1.34 5.36 -0.68 2.72 0 0 Z " fill="#C83728" transform="translate(190,167)"/>
<path d="M0 0 C0.698 -0.008 1.396 -0.015 2.115 -0.023 C5.814 -0.009 8.733 0.086 11.812 2.25 C13.062 4.375 13.062 4.375 13.812 6.25 C9.138 7.746 4.456 7.798 -0.188 6.25 C-1.178 6.58 -2.167 6.91 -3.188 7.25 C-5.875 6.812 -5.875 6.812 -8.188 6.25 C-8.188 6.91 -8.188 7.57 -8.188 8.25 C-9.507 7.92 -10.827 7.59 -12.188 7.25 C-12.188 7.91 -12.188 8.57 -12.188 9.25 C-12.806 9.312 -13.425 9.374 -14.062 9.438 C-16.188 10.25 -16.188 10.25 -17.438 12.812 C-17.685 13.617 -17.933 14.421 -18.188 15.25 C-19.178 15.085 -19.178 15.085 -24.188 14.25 C-24.188 14.91 -24.188 15.57 -24.188 16.25 C-24.847 16.25 -25.507 16.25 -26.188 16.25 C-26.188 16.91 -26.188 17.57 -26.188 18.25 C-26.847 18.25 -27.507 18.25 -28.188 18.25 C-28.188 18.91 -28.188 19.57 -28.188 20.25 C-28.847 20.25 -29.507 20.25 -30.188 20.25 C-30.188 21.57 -30.188 22.89 -30.188 24.25 C-30.847 24.25 -31.507 24.25 -32.188 24.25 C-32.517 25.24 -32.847 26.23 -33.188 27.25 C-34.136 27.456 -35.085 27.662 -36.062 27.875 C-39.188 29.25 -39.188 29.25 -40.109 30.883 C-40.918 33.318 -41.56 35.762 -42.188 38.25 C-42.728 40.129 -43.269 42.008 -43.816 43.886 C-44.624 46.669 -45.406 49.459 -46.188 52.25 C-46.517 52.25 -46.847 52.25 -47.188 52.25 C-47.269 48.089 -47.17 44.303 -46.188 40.25 C-46.847 40.25 -47.507 40.25 -48.188 40.25 C-46.435 29.318 -39.888 20.828 -32.188 13.25 C-31.6 12.663 -31.012 12.077 -30.406 11.473 C-21.998 3.679 -11.359 -0.128 0 0 Z " fill="#FC6C69" transform="translate(141.1875,53.75)"/>
<path d="M0 0 C3.117 2.982 3.957 4.224 4.203 8.703 C4.224 10.219 4.24 11.734 4.25 13.25 C4.271 14.002 4.291 14.753 4.312 15.527 C4.357 21.908 2.989 25.801 -1.382 30.634 C-5.921 34.293 -11.173 33.697 -16.75 33.629 C-17.881 33.631 -19.013 33.634 -20.179 33.636 C-22.566 33.635 -24.953 33.622 -27.34 33.597 C-30.988 33.563 -34.633 33.576 -38.281 33.596 C-40.604 33.589 -42.927 33.579 -45.25 33.566 C-45.794 33.569 -45.794 33.569 -48.546 33.581 C-54.632 33.487 -58.417 33.164 -63 29 C-64.375 26.25 -64.375 26.25 -65 24 C-63.35 24.33 -61.7 24.66 -60 25 C-60 25.66 -60 26.32 -60 27 C-53.632 26.907 -47.264 26.8 -40.896 26.683 C-38.733 26.645 -36.571 26.61 -34.408 26.578 C-31.285 26.532 -28.162 26.474 -25.039 26.414 C-24.084 26.403 -23.13 26.391 -22.146 26.379 C-6.092 26.032 -6.092 26.032 -2.468 22.512 C0.571 18.06 0.482 13.267 0.25 8.062 C0.232 7.283 0.214 6.504 0.195 5.701 C0.149 3.8 0.077 1.9 0 0 Z " fill="#DBA003" transform="translate(89,177)"/>
<path d="M0 0 C0.33 0 0.66 0 1 0 C1.188 5.081 0.617 9.251 -0.812 14.125 C-1.149 15.303 -1.485 16.481 -1.832 17.695 C-2.926 20.79 -4.244 23.245 -6 26 C-6.309 26.846 -6.619 27.691 -6.938 28.562 C-8.177 31.406 -9.786 32.853 -12 35 C-12.433 35.763 -12.866 36.526 -13.312 37.312 C-17.974 44.736 -23.659 48.506 -32 51 C-33.662 51.356 -35.328 51.696 -37 52 C-37 52.66 -37 53.32 -37 54 C-40.604 54.029 -44.208 54.047 -47.812 54.062 C-48.325 54.067 -48.325 54.067 -50.916 54.088 C-51.407 54.09 -51.407 54.09 -53.895 54.098 C-54.801 54.103 -55.706 54.108 -56.64 54.114 C-59 54 -59 54 -62 53 C-63.188 50.938 -63.188 50.938 -64 49 C-60.406 47.858 -57.125 47.967 -53.375 48.062 C-40.352 48.089 -28.944 44.907 -19.125 35.75 C-11.266 27.016 -5.861 16.18 -2.812 4.875 C-2 2 -2 2 0 0 Z " fill="#D7BD92" transform="translate(194,162)"/>
<path d="M0 0 C4.551 2.379 6.325 5.883 8.219 10.473 C9.491 14.589 9.821 18.712 10 23 C9.01 22.67 8.02 22.34 7 22 C6.34 18.7 5.68 15.4 5 12 C0.482 10.871 -0.84 11.132 -5 13 C-7.75 15.5 -7.75 15.5 -10 18 C-10.66 18.66 -11.32 19.32 -12 20 C-15.561 28.64 -15.362 37.504 -15.188 46.688 C-15.172 48.083 -15.159 49.478 -15.146 50.873 C-15.111 54.249 -15.062 57.624 -15 61 C-15.33 61.165 -15.33 61.165 -17 62 C-18.968 53.322 -19.335 44.94 -19.312 36.062 C-19.329 34.782 -19.345 33.501 -19.361 32.182 C-19.367 20.601 -18.39 9.846 -10.25 1.125 C-6.859 -0.571 -3.663 -0.629 0 0 Z " fill="#E3C4A1" transform="translate(146,96)"/>
<path d="M0 0 C0.33 0 0.66 0 1 0 C1.33 8.91 1.66 17.82 2 27 C2.66 23.04 3.32 19.08 4 15 C4.99 15.33 5.98 15.66 7 16 C7.354 23.126 6.957 28.471 4 35 C3.34 35 2.68 35 2 35 C2.021 36.031 2.041 37.062 2.062 38.125 C2.007 41.552 1.654 44.646 1 48 C0.34 48.165 0.34 48.165 -3 49 C-3 49.66 -3 50.32 -3 51 C-3.66 51 -4.32 51 -5 51 C-5.66 52.32 -6.32 53.64 -7 55 C-7.99 54.34 -8.98 53.68 -10 53 C-10.33 54.32 -10.66 55.64 -11 57 C-12.32 57 -13.64 57 -15 57 C-15.33 57.99 -15.66 58.98 -16 60 C-16.99 58.68 -17.98 57.36 -19 56 C-20.32 57.32 -21.64 58.64 -23 60 C-23.66 59.67 -24.32 59.34 -25 59 C-24.67 58.34 -24.34 57.68 -24 57 C-25.32 57 -26.64 57 -28 57 C-28 56.34 -28 55.68 -28 55 C-27.484 54.567 -26.969 54.134 -26.438 53.688 C-25.963 53.131 -25.489 52.574 -25 52 C-25.375 49.438 -25.375 49.438 -26 47 C-25.67 46.34 -25.34 45.68 -25 45 C-24.34 45.33 -23.68 45.66 -23 46 C-22.67 45.34 -22.34 44.68 -22 44 C-21.01 44.66 -20.02 45.32 -19 46 C-14.38 46.822 -11.015 46.706 -7.125 44 C-0.458 34.588 -0.807 23.68 -0.438 12.562 C-0.394 11.354 -0.351 10.146 -0.307 8.9 C-0.201 5.934 -0.099 2.967 0 0 Z " fill="#FB4D4A" transform="translate(156,123)"/>
<path d="M0 0 C0 0.66 0 1.32 0 2 C6.27 2 12.54 2 19 2 C19 2.99 19 3.98 19 5 C18.566 5.019 18.566 5.019 16.367 5.113 C3.503 5.847 3.503 5.847 -1.875 10.688 C-2.246 11.121 -2.617 11.554 -3 12 C-3 11.34 -3 10.68 -3 10 C-5 11 -5 11 -5.812 13 C-6.204 13.66 -6.596 14.32 -7 15 C-7.378 15.062 -7.378 15.062 -9.289 15.375 C-12.689 16.159 -14.081 17.583 -16.562 20 C-21.137 24.439 -21.137 24.439 -25 25 C-25 25.66 -25 26.32 -25 27 C-25.66 27 -26.32 27 -27 27 C-27.268 27.619 -27.536 28.237 -27.812 28.875 C-29 31 -29 31 -32 33 C-32 29.333 -32 25.667 -32 22 C-30.149 20.179 -28.324 18.564 -26.312 16.938 C-25.734 16.459 -25.155 15.981 -24.559 15.489 C-5.686 0 -5.686 0 0 0 Z " fill="#FDE73A" transform="translate(50,55)"/>
<path d="M0 0 C2.199 3.298 2.482 5.18 3 9.062 C3.805 14.759 4.806 20.373 6 26 C6.99 26.33 7.98 26.66 9 27 C10.062 28.961 10.062 28.961 11 31.375 C12.278 34.645 13.487 36.577 16 39 C16.625 41.438 16.625 41.438 17 44 C17.325 45.335 17.655 46.67 18 48 C18.66 48 19.32 48 20 48 C20.33 49.32 20.66 50.64 21 52 C23.64 52 26.28 52 29 52 C29.33 52.99 29.66 53.98 30 55 C30.99 55.33 31.98 55.66 33 56 C33 56.66 33 57.32 33 58 C34.98 58.66 36.96 59.32 39 60 C39 60.66 39 61.32 39 62 C45.582 63.463 53.147 63.888 59.746 62.367 C60.49 62.246 61.234 62.125 62 62 C62.66 62.66 63.32 63.32 64 64 C50.741 66.47 39.047 65.485 27.371 58.406 C24.377 56.631 21.358 55.856 18 55 C18 53.68 18 52.36 18 51 C17.404 50.932 16.809 50.863 16.195 50.793 C11.794 49.203 10.037 43.972 8 40 C6.625 36.375 6.625 36.375 6 34 C5.34 34 4.68 34 4 34 C-0.233 22.455 -1.461 12.242 0 0 Z " fill="#EC302B" transform="translate(89,140)"/>
<path d="M0 0 C0.66 0 1.32 0 2 0 C2.931 12.07 3.134 24.055 3.098 36.156 C3.096 38.039 3.094 39.922 3.093 41.805 C3.09 46.704 3.08 51.603 3.069 56.501 C3.058 61.523 3.054 66.545 3.049 71.566 C3.038 81.378 3.021 91.189 3 101 C2.01 101 1.02 101 0 101 C0 67.67 0 34.34 0 0 Z " fill="#DCC193" transform="translate(79,72)"/>
<path d="M0 0 C0.33 0 0.66 0 1 0 C1.33 15.51 1.66 31.02 2 47 C2.495 47.165 2.495 47.165 5 48 C5.058 51.083 5.094 54.166 5.125 57.25 C5.142 58.123 5.159 58.995 5.176 59.895 C5.182 60.739 5.189 61.583 5.195 62.453 C5.206 63.228 5.216 64.003 5.227 64.802 C4.973 67.259 4.224 68.873 3 71 C2.34 71 1.68 71 1 71 C1 71.66 1 72.32 1 73 C-0.625 73.336 -2.25 73.668 -3.875 74 C-4.78 74.186 -5.685 74.371 -6.617 74.562 C-9 75 -9 75 -11 75 C-11 75.66 -11 76.32 -11 77 C-11.66 77 -12.32 77 -13 77 C-13.33 78.32 -13.66 79.64 -14 81 C-14.33 81 -14.66 81 -15 81 C-15.25 78.188 -15.25 78.188 -15 75 C-12.368 72.173 -9.76 71.522 -6 71 C-6.66 70.34 -7.32 69.68 -8 69 C-6.68 69 -5.36 69 -4 69 C-4 50.85 -4 32.7 -4 14 C-3.67 14 -3.34 14 -3 14 C-2.67 31.16 -2.34 48.32 -2 66 C-1.34 66 -0.68 66 0 66 C0 44.22 0 22.44 0 0 Z " fill="#FDE01F" transform="translate(42,103)"/>
<path d="M0 0 C4.246 2.095 7.352 4.028 10 8 C10.42 9.798 10.768 11.614 11.062 13.438 C11.942 18.778 11.942 18.778 12.555 21.113 C13.251 24.063 13.058 26.985 13 30 C11.482 27.221 10.667 24.8 10.125 21.688 C8.922 15.946 7.032 11.355 2 8 C-2.489 7.566 -4.865 7.37 -8.812 9.562 C-17.506 19.25 -16.258 33.422 -16.125 45.562 C-16.115 47.159 -16.106 48.757 -16.098 50.354 C-16.076 54.236 -16.041 58.118 -16 62 C-16.66 62 -17.32 62 -18 62 C-18.05 57.308 -18.086 52.617 -18.11 47.925 C-18.12 46.337 -18.133 44.749 -18.151 43.161 C-18.5 10.726 -18.5 10.726 -11.387 3.32 C-7.506 0.591 -4.88 -0.996 0 0 Z " fill="#A41F14" transform="translate(144,89)"/>
<path d="M0 0 C0.99 0 1.98 0 3 0 C7.649 5.957 7.31 11.419 7.043 18.672 C7 22 7 22 8 25 C7.67 25.66 7.34 26.32 7 27 C6.925 29.85 6.909 32.675 6.938 35.523 C6.941 36.38 6.945 37.237 6.949 38.119 C6.965 41.784 6.993 45.45 7.021 49.115 C7.039 51.793 7.053 54.47 7.062 57.148 C7.066 58.016 7.069 58.883 7.072 59.776 C7.068 65.418 6.729 70.949 6.153 76.563 C6.009 78.86 6.142 80.827 6.496 83.094 C7.135 88.044 6.64 92.565 6.062 97.5 C6.013 97.959 6.013 97.959 5.76 100.281 C5.515 102.522 5.261 104.761 5 107 C4.67 107 4.34 107 4 107 C3.67 73.67 3.34 40.34 3 6 C2.34 6 1.68 6 1 6 C0.67 4.02 0.34 2.04 0 0 Z " fill="#ECD2AE" transform="translate(78,66)"/>
<path d="M0 0 C1.102 1.746 1.102 1.746 2 4 C1.461 6.035 1.461 6.035 0.375 8.062 C0.032 8.734 -0.311 9.406 -0.664 10.098 C-2.651 12.927 -4.683 14.767 -8.149 15.381 C-8.921 15.383 -9.694 15.386 -10.49 15.388 C-10.93 15.393 -10.93 15.393 -13.16 15.417 C-14.105 15.411 -15.05 15.405 -16.023 15.398 C-17.002 15.401 -17.981 15.404 -18.99 15.407 C-21.059 15.409 -23.129 15.404 -25.198 15.391 C-28.357 15.375 -31.514 15.391 -34.672 15.41 C-36.685 15.408 -38.698 15.404 -40.711 15.398 C-41.181 15.401 -41.181 15.401 -43.562 15.417 C-48.812 15.361 -52.419 14.867 -57 12 C-57 11.67 -57 11.34 -57 11 C-56.399 10.999 -55.799 10.997 -55.18 10.996 C-48.918 10.976 -42.656 10.922 -36.395 10.847 C-34.059 10.824 -31.723 10.81 -29.388 10.804 C-26.026 10.795 -22.666 10.754 -19.305 10.707 C-18.264 10.711 -17.223 10.715 -16.151 10.719 C-8.038 10.556 -8.038 10.556 -4.379 7.632 C-2.091 5.1 -0.931 3.258 0 0 Z " fill="#C7AB6E" transform="translate(92,199)"/>
<path d="M0 0 C10.699 9.592 13.466 28.232 14.211 41.867 C14.372 46.161 14.419 50.453 14.438 54.75 C14.444 55.437 14.45 56.124 14.456 56.831 C14.599 81.601 14.599 81.601 9 90 C9.818 81.952 9.818 81.952 10.512 78.316 C12.58 67.271 12.187 56.196 12 45 C11.01 45 10.02 45 9 45 C9.093 44.526 9.093 44.526 9.562 42.125 C10 39 10 39 9 37 C9 35.68 9 34.36 9 33 C7.68 32.34 6.36 31.68 5 31 C5.66 31 6.32 31 7 31 C6.897 29.721 6.794 28.442 6.688 27.125 C6.658 26.765 6.658 26.765 6.512 24.945 C6 23 6 23 3 21 C3.206 20.134 3.412 19.267 3.625 18.375 C4.04 14.636 3.397 12.451 2 9 C2.66 9 3.32 9 4 9 C3.34 7.886 2.68 6.772 2 5.625 C0 2.25 0 2.25 0 0 Z " fill="#D94234" transform="translate(182,77)"/>
<path d="M0 0 C0.99 0.33 1.98 0.66 3 1 C3.354 8.126 2.957 13.471 0 20 C-0.66 20 -1.32 20 -2 20 C-1.979 21.031 -1.959 22.062 -1.938 23.125 C-1.993 26.552 -2.346 29.646 -3 33 C-3.66 33.165 -3.66 33.165 -7 34 C-7 34.66 -7 35.32 -7 36 C-7.66 36 -8.32 36 -9 36 C-9.66 37.32 -10.32 38.64 -11 40 C-11.495 39.835 -11.99 39.67 -12.5 39.5 C-16.034 38.793 -19.397 38.94 -23 39 C-23 38.01 -23 37.02 -23 36 C-23.639 35.876 -24.279 35.752 -24.938 35.625 C-25.618 35.419 -26.299 35.213 -27 35 C-27.33 34.34 -27.66 33.68 -28 33 C-27.499 33.046 -27.499 33.046 -24.965 33.281 C-14.5 33.962 -14.5 33.962 -10.551 31.43 C-8.732 29.354 -7.339 27.412 -6 25 C-5.471 24.089 -4.943 23.177 -4.398 22.238 C-2.735 18.386 -2.265 14.957 -1.875 10.812 C-1.098 3.294 -1.098 3.294 0 0 Z " fill="#FC5756" transform="translate(160,138)"/>
<path d="M0 0 C1.813 3.158 2.409 5.823 2.75 9.438 C2.799 9.901 2.799 9.901 3.047 12.246 C2.97 16.758 1.414 20.022 -1.688 23.25 C-4.886 26.308 -7.571 26.754 -12 27 C-13.334 27.33 -14.667 27.663 -16 28 C-23.143 29.039 -30.235 29.098 -37.438 29 C-39.374 28.975 -41.31 28.953 -43.246 28.938 C-43.667 28.932 -43.667 28.932 -45.799 28.902 C-48 29 -48 29 -51 30 C-53.688 28.688 -53.688 28.688 -56 27 C-56 26.34 -56 25.68 -56 25 C-54.906 25.01 -53.813 25.021 -52.686 25.032 C-48.581 25.068 -44.475 25.091 -40.369 25.11 C-38.601 25.12 -36.833 25.133 -35.065 25.151 C-10.125 25.391 -10.125 25.391 -4.991 21.463 C0.59 15.763 -0.019 7.474 0 0 Z " fill="#EDDCB5" transform="translate(96,192)"/>
<path d="M0 0 C6.209 5.5 7.491 14.114 8 22 C8.66 22 9.32 22 10 22 C11.123 29.698 12.153 37.202 12 45 C12.33 45.66 12.66 46.32 13 47 C13.332 51.612 13.028 56.173 12.438 60.75 C12.019 64.067 12.055 66.745 13 70 C12.505 70.33 12.505 70.33 10 72 C9.987 71.415 9.987 71.415 9.924 68.452 C9.83 64.117 9.73 59.782 9.628 55.447 C9.584 53.569 9.543 51.691 9.503 49.813 C9.445 47.118 9.381 44.422 9.316 41.727 C9.3 40.884 9.283 40.041 9.266 39.173 C9.114 33.228 9.114 33.228 8 31 C7.67 32.98 7.34 34.96 7 37 C6.67 37 6.34 37 6 37 C5.895 36.295 5.789 35.59 5.68 34.864 C5.19 31.616 4.689 28.371 4.188 25.125 C4.022 24.016 3.856 22.908 3.686 21.766 C2.727 15.616 1.506 9.813 -0.518 3.921 C-1 2 -1 2 0 0 Z " fill="#F5E3C6" transform="translate(190,86)"/>
<path d="M0 0 C1.825 4.826 -0.442 8.301 -2.418 12.77 C-9.24 26.699 -17.682 35.735 -32 42 C-44.003 46.111 -57.473 44.929 -69 40 C-77.283 35.433 -77.283 35.433 -79 32 C-76.367 32.962 -74.096 33.935 -71.766 35.508 C-61.46 42.133 -48.788 41.571 -37 40 C-24.758 37.142 -15.6 30.313 -8.812 19.875 C-5.055 13.494 -2.384 7.004 0 0 Z " fill="#9B2D18" transform="translate(190,167)"/>
<path d="M0 0 C0.825 0.33 0.825 0.33 5 2 C4.928 2.615 4.856 3.23 4.781 3.863 C4.688 4.672 4.596 5.48 4.5 6.312 C4.407 7.113 4.314 7.914 4.219 8.738 C4 11 4 11 4 14 C4.99 13.67 5.98 13.34 7 13 C6 15 5 17 4 19 C4.99 19.33 5.98 19.66 7 20 C6.505 20.516 6.01 21.031 5.5 21.562 C3.504 24.807 3.784 27.262 4 31 C4.66 31 5.32 31 6 31 C6 30.34 6 29.68 6 29 C6.66 29 7.32 29 8 29 C7.34 30.32 6.68 31.64 6 33 C5.34 33 4.68 33 4 33 C4.103 33.433 4.103 33.433 4.625 35.625 C5.048 39.428 4.574 41.537 3 45 C2.01 45.66 1.02 46.32 0 47 C0 31.49 0 15.98 0 0 Z " fill="#FCE12A" transform="translate(43,102)"/>
<path d="M0 0 C0.299 0.103 0.299 0.103 1.812 0.625 C1.27 1.084 0.727 1.543 0.168 2.016 C-0.547 2.629 -1.263 3.243 -2 3.875 C-2.708 4.478 -3.415 5.082 -4.145 5.703 C-6.139 7.579 -7.733 9.306 -9.188 11.625 C-9.23 13.958 -9.228 16.292 -9.188 18.625 C-9.538 19.429 -9.889 20.234 -10.25 21.062 C-11.341 24.046 -10.979 26.108 -10.473 29.195 C-10.125 32.154 -10.19 35.022 -10.25 38 C-10.304 43.808 -9.544 49.001 -8.188 54.625 C-7.848 56.29 -7.513 57.957 -7.188 59.625 C-7.683 59.79 -7.683 59.79 -10.188 60.625 C-13.551 55.473 -14.692 52.189 -14.684 45.891 C-14.685 45.172 -14.687 44.453 -14.688 43.713 C-14.686 42.2 -14.675 40.687 -14.654 39.175 C-14.625 36.894 -14.633 34.616 -14.646 32.336 C-14.632 21.595 -14.392 11.171 -6.688 2.965 C-2.826 -0.484 -2.826 -0.484 0 0 Z " fill="#F0D6B6" transform="translate(144.1875,107.375)"/>
<path d="M0 0 C0.66 0.66 1.32 1.32 2 2 C0.732 3.295 -0.539 4.586 -1.812 5.875 C-2.52 6.594 -3.228 7.314 -3.957 8.055 C-6 10 -6 10 -9 12 C-9.688 15.125 -9.688 15.125 -10 18 C-9.34 18.33 -8.68 18.66 -8 19 C-9.74 20.203 -11.492 21.387 -13.25 22.562 C-13.737 22.893 -13.737 22.893 -16.203 24.566 C-19 26 -19 26 -21.359 25.715 C-21.901 25.479 -22.442 25.243 -23 25 C-23.66 25.99 -24.32 26.98 -25 28 C-25.082 25.938 -25.139 23.875 -25.188 21.812 C-25.222 20.664 -25.257 19.515 -25.293 18.332 C-24.976 14.73 -24.085 12.906 -22 10 C-21.34 10.33 -20.68 10.66 -20 11 C-20 13.31 -20 15.62 -20 18 C-19.381 17.175 -18.762 16.35 -18.125 15.5 C-17.424 14.675 -16.723 13.85 -16 13 C-15.34 13 -14.68 13 -14 13 C-14 12.34 -14 11.68 -14 11 C-12.634 10.078 -11.262 9.163 -9.867 8.285 C-6.321 5.844 -3.19 2.882 0 0 Z " fill="#FDE020" transform="translate(39,69)"/>
<path d="M0 0 C0.66 0.33 1.32 0.66 2 1 C1.51 5.005 0.969 7.107 -2.043 9.883 C-6.737 13.245 -11.53 15.944 -16.895 18.078 C-19 19 -19 19 -21.291 20.533 C-24.298 22.162 -26.059 22.386 -29.449 22.398 C-30.462 22.402 -31.474 22.406 -32.518 22.41 C-33.564 22.399 -34.61 22.387 -35.688 22.375 C-36.216 22.381 -36.216 22.381 -38.893 22.41 C-39.901 22.406 -40.91 22.402 -41.949 22.398 C-42.87 22.395 -43.792 22.392 -44.741 22.388 C-45.486 22.26 -46.232 22.132 -47 22 C-47.66 21.01 -48.32 20.02 -49 19 C-45.406 17.858 -42.125 17.967 -38.375 18.062 C-25.093 18.09 -13.528 14.785 -3.75 5.188 C-2.153 3.46 -1.053 2.106 0 0 Z " fill="#C9A67C" transform="translate(179,192)"/>
<path d="M0 0 C0.99 0 1.98 0 3 0 C2.858 1.417 2.711 2.834 2.562 4.25 C2.481 5.039 2.4 5.828 2.316 6.641 C2.024 8.824 1.579 10.877 1 13 C0.34 13 -0.32 13 -1 13 C-0.67 25.87 -0.34 38.74 0 52 C-0.66 51.01 -1.32 50.02 -2 49 C-2.33 50.65 -2.66 52.3 -3 54 C-3.33 54 -3.66 54 -4 54 C-8.225 37.371 -5.011 16.164 0 0 Z " fill="#EE4941" transform="translate(92,94)"/>
<path d="M0 0 C1.385 2.77 0.667 4.943 0.293 7.933 C-0.378 14.948 -0.389 22.02 -0.562 29.062 C-0.606 30.708 -0.649 32.353 -0.693 33.998 C-0.8 37.999 -0.901 41.999 -1 46 C-0.34 46 0.32 46 1 46 C1.696 48.122 2.382 50.248 3.062 52.375 C3.445 53.558 3.828 54.742 4.223 55.961 C5 59 5 59 4 61 C3.01 60.67 2.02 60.34 1 60 C1 59.34 1 58.68 1 58 C0.34 58 -0.32 58 -1 58 C-3.664 51.482 -4.391 45.089 -4.75 38.125 C-4.772 37.709 -4.772 37.709 -4.885 35.602 C-5.043 31.79 -4.953 28.699 -4 25 C-3.814 23.304 -3.662 21.604 -3.535 19.902 C-3.457 18.936 -3.379 17.97 -3.299 16.975 C-3.141 14.946 -2.987 12.918 -2.838 10.889 C-2.759 9.924 -2.679 8.959 -2.598 7.965 C-2.531 7.084 -2.464 6.204 -2.395 5.297 C-2 3 -2 3 0 0 Z " fill="#E82C28" transform="translate(127,105)"/>
<path d="M0 0 C3.228 3.088 3.981 4.243 4.098 8.914 C4.091 10.484 4.079 12.055 4.062 13.625 C4.058 14.427 4.053 15.229 4.049 16.055 C4.037 18.036 4.019 20.018 4 22 C3.278 22.248 2.556 22.495 1.812 22.75 C-1 24 -1 24 -2.968 26.042 C-7.574 29.016 -11.947 28.584 -17.32 28.574 C-18.416 28.588 -19.512 28.603 -20.64 28.617 C-24.135 28.659 -27.63 28.674 -31.125 28.688 C-34.627 28.717 -38.129 28.751 -41.631 28.79 C-43.809 28.812 -45.987 28.828 -48.165 28.837 C-49.15 28.844 -50.134 28.851 -51.149 28.858 C-52.015 28.862 -52.882 28.865 -53.775 28.869 C-56 29 -56 29 -59 30 C-59.99 29.34 -60.98 28.68 -62 28 C-62 27.34 -62 26.68 -62 26 C-62.99 26 -63.98 26 -65 26 C-64.67 25.34 -64.34 24.68 -64 24 C-62.68 24.33 -61.36 24.66 -60 25 C-60 25.66 -60 26.32 -60 27 C-53.632 26.907 -47.264 26.8 -40.896 26.683 C-38.733 26.645 -36.571 26.61 -34.408 26.578 C-31.285 26.532 -28.162 26.474 -25.039 26.414 C-24.084 26.403 -23.13 26.391 -22.146 26.379 C-6.092 26.032 -6.092 26.032 -2.468 22.512 C0.571 18.06 0.482 13.267 0.25 8.062 C0.232 7.283 0.214 6.504 0.195 5.701 C0.149 3.8 0.077 1.9 0 0 Z " fill="#E6AD0B" transform="translate(89,177)"/>
<path d="M0 0 C1.32 0.33 2.64 0.66 4 1 C2.881 2.816 1.755 4.628 0.625 6.438 C0.312 6.942 0.312 6.942 -1.273 9.496 C-3 12 -3 12 -5 13 C-5 14.65 -5 16.3 -5 18 C-7.97 18.33 -10.94 18.66 -14 19 C-14 19.66 -14 20.32 -14 21 C-13.01 21.33 -12.02 21.66 -11 22 C-11.639 22.433 -12.279 22.866 -12.938 23.312 C-15 25 -15 25 -16 28 C-15.34 28.33 -14.68 28.66 -14 29 C-15.65 29.33 -17.3 29.66 -19 30 C-19 30.66 -19 31.32 -19 32 C-18.34 32.33 -17.68 32.66 -17 33 C-17.66 33.165 -17.66 33.165 -21 34 C-17.682 19.668 -17.682 19.668 -15 15 C-11.875 13.188 -11.875 13.188 -9 12 C-8.67 11.34 -8.34 10.68 -8 10 C-7.34 10 -6.68 10 -6 10 C-6 8.68 -6 7.36 -6 6 C-5.34 6 -4.68 6 -4 6 C-4 5.34 -4 4.68 -4 4 C-3.34 4 -2.68 4 -2 4 C-2 3.34 -2 2.68 -2 2 C-1.34 2 -0.68 2 0 2 C0 1.34 0 0.68 0 0 Z " fill="#FB5656" transform="translate(117,68)"/>
<path d="M0 0 C1.65 0 3.3 0 5 0 C3.35 1.65 1.7 3.3 0 5 C0 4.34 0 3.68 0 3 C-2 4 -2 4 -2.812 6 C-3.204 6.66 -3.596 7.32 -4 8 C-4.378 8.062 -4.378 8.062 -6.289 8.375 C-9.689 9.159 -11.081 10.583 -13.562 13 C-18.137 17.439 -18.137 17.439 -22 18 C-22 18.66 -22 19.32 -22 20 C-22.66 20 -23.32 20 -24 20 C-24.268 20.619 -24.536 21.237 -24.812 21.875 C-26 24 -26 24 -29 26 C-29 22.333 -29 18.667 -29 15 C-26.594 12.738 -26.594 12.738 -23.5 10.312 C-22.99 9.908 -22.99 9.908 -20.406 7.863 C-20.009 7.556 -20.009 7.556 -18 6 C-17.34 6.33 -16.68 6.66 -16 7 C-18.058 9.82 -19.646 11.794 -22.688 13.562 C-25 15 -25 15 -25.812 17.188 C-25.874 17.786 -25.936 18.384 -26 19 C-25.31 18.282 -24.621 17.564 -23.91 16.824 C-20.956 13.872 -17.757 11.338 -14.438 8.812 C-13.874 8.375 -13.31 7.937 -12.729 7.486 C-5.567 2 -5.567 2 0 2 C0 1.34 0 0.68 0 0 Z " fill="#FDE637" transform="translate(47,62)"/>
<path d="M0 0 C0.676 1.77 0.676 1.77 1 4 C-0.145 5.887 -0.145 5.887 -1.812 7.688 C-2.084 7.988 -2.084 7.988 -3.457 9.512 C-6.198 12.155 -8.211 12.137 -11.905 12.177 C-12.927 12.19 -13.948 12.203 -15.001 12.216 C-15.555 12.22 -15.555 12.22 -18.359 12.238 C-19.497 12.246 -20.634 12.254 -21.805 12.263 C-24.216 12.277 -26.627 12.287 -29.038 12.295 C-32.721 12.312 -36.403 12.356 -40.086 12.4 C-42.427 12.411 -44.768 12.419 -47.109 12.426 C-47.659 12.435 -47.659 12.435 -50.443 12.479 C-56.56 12.462 -60.43 12.257 -65 8 C-65.33 7.01 -65.66 6.02 -66 5 C-65.34 5 -64.68 5 -64 5 C-63.497 5.65 -62.993 6.301 -62.475 6.971 C-58.702 10.064 -55.143 9.536 -50.406 9.461 C-49.464 9.46 -48.521 9.459 -47.55 9.458 C-45.553 9.452 -43.556 9.436 -41.559 9.412 C-38.539 9.375 -35.52 9.371 -32.5 9.371 C-9.985 9.293 -9.985 9.293 -4 7 C-1.862 4.674 -1.007 3.02 0 0 Z " fill="#AA7910" transform="translate(91,198)"/>
<path d="M0 0 C3.443 2.124 4.716 3.149 6 7 C3.509 8.245 1.958 8 -0.812 7.875 C-6.092 7.822 -8.751 9.001 -12.688 12.5 C-14 14 -14 14 -16 17 C-16.957 14.448 -17.209 12.637 -16.352 10.027 C-12.901 2.643 -8.505 -1.735 0 0 Z " fill="#CB9D77" transform="translate(146,96)"/>
<path d="M0 0 C4.62 0.66 9.24 1.32 14 2 C14 1.34 14 0.68 14 0 C15.65 0 17.3 0 19 0 C18.67 4.95 18.34 9.9 18 15 C17.67 14.01 17.34 13.02 17 12 C16.608 12.031 16.608 12.031 14.625 12.188 C14.192 12.157 14.192 12.157 12 12 C11.34 11.01 10.68 10.02 10 9 C7.941 8.191 7.941 8.191 5.562 7.562 C2.449 6.622 1.215 6.228 -1.062 3.812 C-1.372 3.214 -1.681 2.616 -2 2 C-1.34 2 -0.68 2 0 2 C0 1.34 0 0.68 0 0 Z " fill="#DFA608" transform="translate(21,102)"/>
<path d="M0 0 C0.66 0.33 1.32 0.66 2 1 C2.25 6.625 2.25 6.625 0 10 C-0.395 12.281 -0.395 12.281 -0.598 14.93 C-0.637 15.41 -0.637 15.41 -0.838 17.84 C-0.912 18.841 -0.986 19.843 -1.062 20.875 C-1.218 22.852 -1.375 24.828 -1.535 26.805 C-1.601 27.681 -1.667 28.557 -1.735 29.46 C-2.002 32.021 -2.481 34.48 -3 37 C-3.063 38.436 -3.087 39.875 -3.062 41.312 C-3.042 42.529 -3.021 43.746 -3 45 C-3.33 45 -3.66 45 -4 45 C-4.121 44.229 -4.242 43.458 -4.367 42.664 C-4.535 41.661 -4.702 40.658 -4.875 39.625 C-5.037 38.627 -5.2 37.63 -5.367 36.602 C-6 34 -6 34 -8 32 C-7.01 31.67 -6.02 31.34 -5 31 C-4.926 27.657 -4.935 25.196 -6 22 C-5.724 19.991 -5.398 17.988 -5 16 C-5.66 16.33 -6.32 16.66 -7 17 C-7 16.34 -7 15.68 -7 15 C-7.66 14.67 -8.32 14.34 -9 14 C-8.34 14 -7.68 14 -7 14 C-7 13.34 -7 12.68 -7 12 C-6.67 11.67 -6.34 11.34 -6 11 C-6.33 10.34 -6.66 9.68 -7 9 C-6.34 8.67 -5.68 8.34 -5 8 C-4.67 7.01 -4.34 6.02 -4 5 C-3.01 4.34 -2.02 3.68 -1 3 C-0.67 2.01 -0.34 1.02 0 0 Z " fill="#F63634" transform="translate(126,98)"/>
<path d="M0 0 C1.078 0.018 2.155 0.036 3.266 0.055 C3.676 0.066 3.676 0.066 5.75 0.125 C8.927 5.374 9.407 10.14 9.75 16.125 C8.76 15.795 7.77 15.465 6.75 15.125 C6.629 14.426 6.508 13.728 6.383 13.008 C6.215 12.098 6.048 11.188 5.875 10.25 C5.713 9.345 5.55 8.44 5.383 7.508 C4.75 5.125 4.75 5.125 2.75 3.125 C-2.217 2.656 -5.326 2.964 -9.25 6.125 C-10.938 8.562 -10.938 8.562 -12.25 11.125 C-12.642 11.888 -13.034 12.651 -13.438 13.438 C-13.572 13.716 -13.572 13.716 -14.25 15.125 C-14.91 15.125 -15.57 15.125 -16.25 15.125 C-16.374 16.094 -16.498 17.064 -16.625 18.062 C-16.831 19.073 -17.037 20.084 -17.25 21.125 C-17.91 21.455 -18.57 21.785 -19.25 22.125 C-19.573 12.77 -19.573 12.77 -17.25 8.125 C-12.046 2.645 -7.67 -0.167 0 0 Z " fill="#DCB693" transform="translate(146.25,102.875)"/>
<path d="M0 0 C0.33 0 0.66 0 1 0 C1.875 16.243 2.103 32.424 2 48.688 C1.973 53.025 1.953 57.362 1.938 61.699 C1.929 62.678 1.921 63.657 1.912 64.666 C1.909 65.572 1.906 66.479 1.902 67.413 C1.897 68.205 1.892 68.997 1.886 69.814 C2 72 2.395 73.901 3 76 C2.01 75.67 1.02 75.34 0 75 C-2.185 55.526 -2.185 55.526 -0.465 48.957 C0.147 46.382 -0.152 44.257 -0.438 41.625 C-1.635 27.857 -1.622 13.733 0 0 Z " fill="#F8C603" transform="translate(74,96)"/>
<path d="M0 0 C0.33 0 0.66 0 1 0 C1.33 17.82 1.66 35.64 2 54 C3.65 53.01 5.3 52.02 7 51 C7 52.98 7 54.96 7 57 C6.34 57 5.68 57 5 57 C5 57.66 5 58.32 5 59 C3.375 59.336 1.75 59.668 0.125 60 C-0.78 60.186 -1.685 60.371 -2.617 60.562 C-5 61 -5 61 -7 61 C-7 61.66 -7 62.32 -7 63 C-7.66 63 -8.32 63 -9 63 C-9.33 64.32 -9.66 65.64 -10 67 C-10.33 67 -10.66 67 -11 67 C-11.25 64.188 -11.25 64.188 -11 61 C-8.368 58.173 -5.76 57.522 -2 57 C-2.66 56.34 -3.32 55.68 -4 55 C-2.68 55 -1.36 55 0 55 C0 36.85 0 18.7 0 0 Z " fill="#F6E470" transform="translate(38,117)"/>
<path d="M0 0 C0.33 0.165 0.33 0.165 2 1 C1.67 1.165 1.67 1.165 0 2 C0 1.34 0 0.68 0 0 Z M-5 -1 C-7.683 1.683 -10.387 2.015 -14 3 C-15 4 -15 4 -15.062 6.562 C-15.042 7.367 -15.021 8.171 -15 9 C-14.67 8.01 -14.34 7.02 -14 6 C-13.34 6 -12.68 6 -12 6 C-12 5.34 -12 4.68 -12 4 C-10.377 3.638 -8.751 3.285 -7.125 2.938 C-6.22 2.74 -5.315 2.543 -4.383 2.34 C-2 2 -2 2 0 3 C0 3.99 0 4.98 0 6 C-3.613 7.848 -7.209 9.55 -11 11 C-10.67 11.66 -10.34 12.32 -10 13 C-11.32 13 -12.64 13 -14 13 C-14 14.32 -14 15.64 -14 17 C-14.99 16.67 -15.98 16.34 -17 16 C-17 12.7 -17 9.4 -17 6 C-17.66 5.67 -18.32 5.34 -19 5 C-13.963 -0.169 -12.242 -1.134 -5 -1 Z " fill="#FCE022" transform="translate(43,174)"/>
<path d="M0 0 C0 0.66 0 1.32 0 2 C-0.629 2.219 -1.258 2.438 -1.906 2.664 C-7.451 4.718 -11.847 7.054 -16.406 10.828 C-18 12 -18 12 -20 12 C-20.227 12.887 -20.454 13.774 -20.688 14.688 C-22 18 -22 18 -24.312 20.188 C-31.325 27.526 -33.496 38.419 -36 48 C-36.33 48 -36.66 48 -37 48 C-38.254 34.203 -29.566 21.987 -21.965 11.285 C-20.001 9.001 -18.689 8.207 -16 7 C-14.994 6.007 -13.993 5.006 -13 4 C-8.839 1.397 -5.025 -0.628 0 0 Z " fill="#FD8582" transform="translate(131,58)"/>
<path d="M0 0 C0.33 0 0.66 0 1 0 C1.358 10.828 -1.734 21.771 -9 30 C-10.305 31.037 -11.632 32.048 -13 33 C-13.668 31.289 -13.668 31.289 -14 29 C-12.926 26.773 -12.926 26.773 -11.312 24.375 C-7.433 18.264 -4.755 11.986 -2.875 5 C-2 2 -2 2 0 0 Z " fill="#D6B68B" transform="translate(194,162)"/>
<path d="M0 0 C2.199 3.298 2.482 5.18 3 9.062 C3.805 14.759 4.806 20.373 6 26 C6.99 26.33 7.98 26.66 9 27 C10.188 30.562 10.188 30.562 11 34 C9.35 33.34 7.7 32.68 6 32 C5.34 32.66 4.68 33.32 4 34 C-0.233 22.455 -1.461 12.242 0 0 Z " fill="#F43B36" transform="translate(89,140)"/>
<path d="M0 0 C4.246 2.095 7.352 4.028 10 8 C10.42 9.798 10.768 11.614 11.062 13.438 C11.942 18.778 11.942 18.778 12.555 21.113 C13.251 24.063 13.058 26.985 13 30 C11.509 27.253 10.642 24.816 10.062 21.75 C7.547 10.116 7.547 10.116 3.312 7.062 C-0.601 5.807 -3.889 5.206 -8 5 C-8.66 5.66 -9.32 6.32 -10 7 C-10.99 7 -11.98 7 -13 7 C-13 6.34 -13 5.68 -13 5 C-9.172 1.263 -5.431 -1.108 0 0 Z " fill="#C9201B" transform="translate(144,89)"/>
<path d="M0 0 C0 4.953 -3.64 7.614 -7 11 C-16.909 20.303 -28.156 22.702 -41.318 22.526 C-51.669 22.127 -59.937 19.597 -68 13 C-67.34 12.67 -66.68 12.34 -66 12 C-64.306 12.953 -62.644 13.963 -61 15 C-48.677 21.093 -36.834 21.7 -23.652 17.914 C-17.253 15.709 -9.196 12.391 -6 6 C-5.34 6 -4.68 6 -4 6 C-3.711 5.381 -3.423 4.762 -3.125 4.125 C-2 2 -2 2 0 0 Z " fill="#C91E18" transform="translate(180,184)"/>
<path d="M0 0 C2.477 3.716 2.303 5.6 2 10 C1.37 11.681 0.702 13.348 0 15 C-0.144 16.155 -0.289 17.31 -0.438 18.5 C-1.024 22.152 -1.975 23.962 -4 27 C-4.433 27.928 -4.866 28.856 -5.312 29.812 C-9.339 37.417 -15.234 43.678 -21 50 C-21.99 49.67 -22.98 49.34 -24 49 C-23.504 48.539 -23.007 48.077 -22.496 47.602 C-9.328 34.958 -2.517 20.206 -1 2 C-0.67 1.34 -0.34 0.68 0 0 Z " fill="#F2E1C0" transform="translate(199,161)"/>
<path d="M0 0 C0.33 0 0.66 0 1 0 C2.059 8.443 2.186 16.829 2.185 25.323 C2.188 27.693 2.206 30.062 2.225 32.432 C2.228 33.958 2.23 35.485 2.23 37.012 C2.238 37.71 2.245 38.408 2.252 39.127 C2.231 43.813 1.447 47.595 0 52 C-0.33 52 -0.66 52 -1 52 C-0.67 47.05 -0.34 42.1 0 37 C-0.33 37 -0.66 37 -1 37 C-1.029 32.896 -1.047 28.792 -1.062 24.688 C-1.071 23.54 -1.079 22.392 -1.088 21.209 C-1.108 14.079 -0.797 7.087 0 0 Z " fill="#E5CDA9" transform="translate(197,112)"/>
<path d="M0 0 C0.99 0.33 1.98 0.66 3 1 C2.598 1.134 2.598 1.134 0.562 1.812 C-0.283 2.204 -1.129 2.596 -2 3 C-2.33 3.99 -2.66 4.98 -3 6 C-3.753 6.424 -4.506 6.848 -5.281 7.285 C-8.675 9.426 -10.436 12.094 -12.5 15.438 C-12.887 16.051 -13.275 16.664 -13.674 17.295 C-17.133 22.92 -19.739 28.797 -22 35 C-22.99 34.67 -23.98 34.34 -25 34 C-22.755 19.996 -12.69 9.509 -2 1 C-1.34 0.67 -0.68 0.34 0 0 Z " fill="#FA5858" transform="translate(118,60)"/>
<path d="M0 0 C0.289 0.309 0.289 0.309 1.75 1.875 C3.802 3.813 5.434 4.9 8 6 C7.67 6.33 7.34 6.66 7 7 C7.99 7.66 8.98 8.32 10 9 C10.33 9.99 10.66 10.98 11 12 C13.31 12 15.62 12 18 12 C18 11.34 18 10.68 18 10 C18.99 10 19.98 10 21 10 C21.33 10.99 21.66 11.98 22 13 C20.226 14.774 17.711 14.173 15.312 14.188 C10.847 14.15 7.086 13.988 3 12 C2.67 11.34 2.34 10.68 2 10 C1.175 9.691 0.35 9.381 -0.5 9.062 C-1.325 8.712 -2.15 8.361 -3 8 C-3.33 7.01 -3.66 6.02 -4 5 C-2.062 2.312 -2.062 2.312 0 0 Z " fill="#F83736" transform="translate(125,190)"/>
<path d="M0 0 C1.65 0.33 3.3 0.66 5 1 C4.961 10.562 1.637 15.358 -4.875 22 C-5.576 22.66 -6.278 23.32 -7 24 C-7.66 22.68 -8.32 21.36 -9 20 C-8.01 20.33 -7.02 20.66 -6 21 C-5.67 19.68 -5.34 18.36 -5 17 C-4.34 17 -3.68 17 -3 17 C-3 16.34 -3 15.68 -3 15 C-3.66 14.67 -4.32 14.34 -5 14 C-4.01 13.67 -3.02 13.34 -2 13 C-2 11.35 -2 9.7 -2 8 C-2.99 7.67 -3.98 7.34 -5 7 C-3.68 6.67 -2.36 6.34 -1 6 C-1 5.01 -1 4.02 -1 3 C-0.34 3 0.32 3 1 3 C0.67 2.01 0.34 1.02 0 0 Z " fill="#F93C38" transform="translate(184,157)"/>
<path d="M0 0 C0.66 0.33 1.32 0.66 2 1 C-1.793 5.41 -6.432 5.479 -12 6 C-24.676 6.539 -37.358 5.928 -50 5 C-50 4.34 -50 3.68 -50 3 C-48.972 3.005 -47.945 3.01 -46.886 3.016 C-43.017 3.034 -39.147 3.046 -35.278 3.055 C-33.614 3.06 -31.95 3.067 -30.286 3.075 C-8.235 3.188 -8.235 3.188 -2 2 C-1.34 1.34 -0.68 0.68 0 0 Z " fill="#E3D0A2" transform="translate(90,212)"/>
<path d="M0 0 C1.102 1.746 1.102 1.746 2 4 C1.461 6.035 1.461 6.035 0.375 8.062 C0.032 8.734 -0.311 9.406 -0.664 10.098 C-2.659 12.938 -4.689 14.77 -8.169 15.381 C-8.951 15.383 -9.732 15.386 -10.537 15.388 C-11.428 15.398 -12.319 15.407 -13.237 15.417 C-14.191 15.411 -15.146 15.405 -16.129 15.398 C-17.115 15.401 -18.101 15.404 -19.117 15.407 C-21.199 15.409 -23.281 15.404 -25.363 15.391 C-28.554 15.375 -31.744 15.391 -34.936 15.41 C-36.958 15.408 -38.981 15.404 -41.004 15.398 C-41.482 15.401 -41.482 15.401 -43.902 15.417 C-44.79 15.407 -45.677 15.398 -46.592 15.388 C-47.373 15.386 -48.153 15.383 -48.958 15.381 C-51.488 14.909 -52.383 13.949 -54 12 C-51.69 12 -49.38 12 -47 12 C-47 12.66 -47 13.32 -47 14 C-42.607 13.881 -38.215 13.756 -33.823 13.628 C-32.332 13.585 -30.841 13.543 -29.351 13.503 C-7.028 12.897 -7.028 12.897 -3.562 9.875 C-1.767 6.571 -0.86 3.654 0 0 Z " fill="#D2B981" transform="translate(92,199)"/>
<path d="M0 0 C1.159 3.478 0.708 5.459 0 9 C-1.32 9.33 -2.64 9.66 -4 10 C-4 10.66 -4 11.32 -4 12 C-4.66 12 -5.32 12 -6 12 C-6.66 13.32 -7.32 14.64 -8 16 C-8.495 15.835 -8.99 15.67 -9.5 15.5 C-13.034 14.793 -16.397 14.94 -20 15 C-20 14.01 -20 13.02 -20 12 C-20.639 11.876 -21.279 11.752 -21.938 11.625 C-22.618 11.419 -23.299 11.213 -24 11 C-24.33 10.34 -24.66 9.68 -25 9 C-18.486 8.749 -18.486 8.749 -15.938 10.062 C-12.946 11.51 -11.128 10.958 -8 10 C-4.504 7.073 -2.169 3.995 0 0 Z " fill="#FC5958" transform="translate(157,162)"/>
<path d="M0 0 C0.949 0.041 1.898 0.083 2.875 0.125 C1.508 2.859 -0.586 3.525 -3.182 4.957 C-6.348 6.861 -9.045 9.255 -11.812 11.688 C-21.538 20.125 -21.538 20.125 -24.125 20.125 C-24.414 20.929 -24.703 21.734 -25 22.562 C-26.125 25.125 -26.125 25.125 -28.125 26.125 C-27.621 21.716 -26.163 19.337 -23.125 16.125 C-22.444 15.816 -21.764 15.506 -21.062 15.188 C-19.125 14.125 -19.125 14.125 -17.75 11.062 C-17.214 10.093 -16.678 9.124 -16.125 8.125 C-14.135 7.736 -12.133 7.406 -10.125 7.125 C-7.375 4.688 -7.375 4.688 -5.125 2.125 C-3.125 0.125 -3.125 0.125 0 0 Z " fill="#FDEC57" transform="translate(47.125,57.875)"/>
<path d="M0 0 C0.99 0.763 1.98 1.526 3 2.312 C5.713 4.278 8.204 5.555 11.375 6.625 C11.973 6.852 11.973 6.852 15 8 C15.33 8.99 15.66 9.98 16 11 C17.65 11 19.3 11 21 11 C20.67 11.99 20.34 12.98 20 14 C15.71 13.34 11.42 12.68 7 12 C7 11.34 7 10.68 7 10 C6.402 9.959 5.804 9.918 5.188 9.875 C3 9 3 9 1.25 6.125 C0 3 0 3 0 0 Z " fill="#ECDAAF" transform="translate(17,103)"/>
<path d="M0 0 C1.32 0 2.64 0 4 0 C4 1.98 4 3.96 4 6 C5.32 6.33 6.64 6.66 8 7 C8 7.66 8 8.32 8 9 C7.34 9 6.68 9 6 9 C6.186 9.969 6.371 10.939 6.562 11.938 C6.707 12.948 6.851 13.959 7 15 C6.67 15.33 6.34 15.66 6 16 C6.66 16.33 7.32 16.66 8 17 C7.67 17.66 7.34 18.32 7 19 C4.625 18.438 4.625 18.438 2 17 C-0.428 11.45 -0.217 5.98 0 0 Z " fill="#FB4D4B" transform="translate(93,149)"/>
<path d="M0 0 C2 3.75 2 3.75 2 6 C1.34 6 0.68 6 0 6 C0 8.97 0 11.94 0 15 C-0.66 15 -1.32 15 -2 15 C-2 21.93 -2 28.86 -2 36 C-2.33 36 -2.66 36 -3 36 C-3.768 31.925 -4.119 28.09 -4.098 23.945 C-4.094 22.837 -4.091 21.728 -4.088 20.586 C-4.08 19.444 -4.071 18.302 -4.062 17.125 C-4.058 15.96 -4.053 14.794 -4.049 13.594 C-4.037 10.729 -4.021 7.865 -4 5 C-3.34 5 -2.68 5 -2 5 C-1.928 4.68 -1.928 4.68 -1.562 3.062 C-1 1 -1 1 0 0 Z " fill="#FA5C5B" transform="translate(95,102)"/>
<path d="M0 0 C1.825 4.826 -0.442 8.301 -2.418 12.77 C-7.943 24.052 -15.644 35.54 -28 40 C-28.99 39.67 -29.98 39.34 -31 39 C-29.886 38.34 -28.773 37.68 -27.625 37 C-12.859 27.608 -5.591 16.424 0 0 Z " fill="#8C2D17" transform="translate(190,167)"/>
<path d="M0 0 C1.412 2.825 0.673 5.139 0.293 8.183 C-0.291 13.79 -0.38 19.431 -0.562 25.062 C-0.606 26.31 -0.649 27.557 -0.693 28.842 C-0.799 31.894 -0.901 34.947 -1 38 C-1.66 37.67 -2.32 37.34 -3 37 C-5.219 29.875 -5.219 29.875 -4.546 27.187 C-3.935 24.741 -3.723 22.416 -3.535 19.902 C-3.457 18.936 -3.379 17.97 -3.299 16.975 C-3.141 14.946 -2.987 12.918 -2.838 10.889 C-2.759 9.924 -2.679 8.959 -2.598 7.965 C-2.531 7.084 -2.464 6.204 -2.395 5.297 C-2 3 -2 3 0 0 Z " fill="#DB2620" transform="translate(127,105)"/>
<path d="M0 0 C0.99 0 1.98 0 3 0 C7.649 5.957 7.31 11.419 7.043 18.672 C7 22 7 22 8 25 C7.67 25.66 7.34 26.32 7 27 C6.929 29.374 6.916 31.75 6.938 34.125 C6.947 35.406 6.956 36.688 6.965 38.008 C6.976 38.995 6.988 39.983 7 41 C6.34 41 5.68 41 5 41 C4.835 35.225 4.835 35.225 4 6 C3.01 6 2.02 6 1 6 C0.67 4.02 0.34 2.04 0 0 Z " fill="#F5E1C2" transform="translate(78,66)"/>
<path d="M0 0 C2.008 1.438 2.008 1.438 4 4 C4.424 7.031 4.146 9.961 3.875 13 C3.814 13.844 3.752 14.688 3.689 15.558 C2.593 29.525 2.593 29.525 1 35 C0.67 35.165 0.67 35.165 -1 36 C-0.916 34.952 -0.832 33.904 -0.746 32.824 C-0.643 31.445 -0.54 30.066 -0.438 28.688 C-0.381 27.997 -0.325 27.307 -0.268 26.596 C-0.034 23.375 0.032 21.097 -1 18 C-0.835 17.196 -0.67 16.391 -0.5 15.562 C0 13 0 13 -0.562 10.875 C-0.707 10.256 -0.851 9.638 -1 9 C-0.34 8.01 0.32 7.02 1 6 C0.625 2.812 0.625 2.812 0 0 Z " fill="#F9C50B" transform="translate(74,59)"/>
<path d="M0 0 C-3.122 3.301 -5.995 5.851 -10 8 C-10.505 8.289 -10.505 8.289 -13.062 9.75 C-16 11 -16 11 -18.375 10.688 C-18.911 10.461 -19.447 10.234 -20 10 C-17.935 6.902 -16.376 5.501 -13 4 C-11.886 3.299 -10.773 2.597 -9.625 1.875 C-6.327 -0.048 -3.85 -0.376 0 0 Z " fill="#E72722" transform="translate(173,192)"/>
<path d="M0 0 C-3 2 -3 2 -6 2 C-6 2.66 -6 3.32 -6 4 C-4.02 3.34 -2.04 2.68 0 2 C0 2.66 0 3.32 0 4 C-0.66 4.33 -0.66 4.33 -4 6 C-3.01 6.99 -2.02 7.98 -1 9 C-1.99 9 -2.98 9 -4 9 C-4.103 9.639 -4.206 10.279 -4.312 10.938 C-4.539 11.618 -4.766 12.299 -5 13 C-5.99 13.33 -6.98 13.66 -8 14 C-9 13 -9 13 -9.098 10.059 C-9.086 8.864 -9.074 7.669 -9.062 6.438 C-9.053 5.24 -9.044 4.042 -9.035 2.809 C-9.024 1.882 -9.012 0.955 -9 0 C-2.25 -1.125 -2.25 -1.125 0 0 Z " fill="#FC5352" transform="translate(169,117)"/>
<path d="M0 0 C0.33 0 0.66 0 1 0 C1.199 4.125 1.382 8.25 1.562 12.375 C1.619 13.531 1.675 14.688 1.732 15.879 C2.534 34.789 2.534 34.789 -3 43 C-4.487 39.133 -3.34 36.797 -2 33 C-0.736 26.244 -0.666 19.418 -0.438 12.562 C-0.394 11.354 -0.351 10.146 -0.307 8.9 C-0.201 5.934 -0.099 2.967 0 0 Z " fill="#EE594F" transform="translate(156,123)"/>
<path d="M0 0 C0.248 0.578 0.495 1.155 0.75 1.75 C3.053 5.895 5.392 8.04 9.938 9.375 C13.631 10.167 15.565 9.627 19 8 C22.312 7.875 22.312 7.875 25 8 C25 8.66 25 9.32 25 10 C23.35 10 21.7 10 20 10 C20 10.66 20 11.32 20 12 C18.417 12.054 16.834 12.093 15.25 12.125 C14.368 12.148 13.487 12.171 12.578 12.195 C9.886 11.991 8.301 11.366 6 10 C6 10.66 6 11.32 6 12 C3.481 11.664 2.328 11.426 0.75 9.375 C-0.253 6.199 -0.127 3.308 0 0 Z " fill="#EFB803" transform="translate(15,92)"/>
<path d="M0 0 C14.52 0 29.04 0 44 0 C43.67 0.66 43.34 1.32 43 2 C34.072 3.705 24.475 3.076 15.429 2.963 C14.511 2.955 13.594 2.946 12.648 2.938 C11.825 2.926 11.002 2.914 10.154 2.902 C8 3 8 3 5 4 C2.312 2.625 2.312 2.625 0 1 C0 0.67 0 0.34 0 0 Z " fill="#F0E1BC" transform="translate(40,218)"/>
<path d="M0 0 C3.104 -0.058 6.208 -0.094 9.312 -0.125 C10.194 -0.142 11.075 -0.159 11.982 -0.176 C12.83 -0.182 13.678 -0.189 14.551 -0.195 C14.941 -0.201 14.941 -0.201 16.915 -0.227 C19 0 19 0 22 2 C22.33 2.99 22.66 3.98 23 5 C22.67 5.165 22.67 5.165 21 6 C20.34 5.67 19.68 5.34 19 5 C19 4.01 19 3.02 19 2 C12.73 2 6.46 2 0 2 C0 1.34 0 0.68 0 0 Z M9 5 C12.3 5 15.6 5 19 5 C15.366 6.817 12.927 7.402 9 8 C8.67 8.165 8.67 8.165 7 9 C7.66 7.68 8.32 6.36 9 5 Z " fill="#FCE11E" transform="translate(50,55)"/>
<path d="M0 0 C3.26 3.17 6.222 6.399 9 10 C8.67 10.66 8.34 11.32 8 12 C8.562 12.266 9.124 12.531 9.703 12.805 C12.179 14.093 14.438 15.561 16.75 17.125 C17.549 17.664 18.348 18.203 19.172 18.758 C19.775 19.168 20.378 19.578 21 20 C19.68 20.33 18.36 20.66 17 21 C17 20.34 17 19.68 17 19 C16.299 18.732 15.597 18.464 14.875 18.188 C13.926 17.796 12.977 17.404 12 17 C10.969 16.608 9.938 16.216 8.875 15.812 C4.986 13.361 4.573 11.248 3 7 C2.34 6.67 1.68 6.34 1 6 C0.375 2.938 0.375 2.938 0 0 Z " fill="#E8D0AB" transform="translate(101,190)"/>
<path d="M0 0 C3.428 0.645 5.826 2.003 8.75 3.875 C11.975 5.881 14.951 7.454 18.562 8.625 C19.697 9.079 20.831 9.532 22 10 C22.715 12.086 22.715 12.086 23 14 C14.365 12.273 6.873 7.316 0 2 C0 1.34 0 0.68 0 0 Z " fill="#DBBC93" transform="translate(109,200)"/>
<path d="M0 0 C0.892 0.018 1.784 0.036 2.703 0.055 C3.041 0.066 3.041 0.066 4.75 0.125 C4.75 0.455 4.75 0.785 4.75 1.125 C4.34 1.174 4.34 1.174 2.266 1.422 C1.727 1.497 1.727 1.497 -1 1.875 C-2.067 2.014 -3.135 2.153 -4.234 2.297 C-7.723 3.255 -9.026 4.311 -11.25 7.125 C-12.191 9.02 -12.191 9.02 -12.812 10.938 C-14.118 14.761 -15.631 18.424 -17.25 22.125 C-17.58 22.125 -17.91 22.125 -18.25 22.125 C-18.573 12.77 -18.573 12.77 -16.25 8.125 C-11.488 3.111 -7.078 -0.186 0 0 Z " fill="#D2A882" transform="translate(145.25,102.875)"/>
<path d="M0 0 C3.397 0.414 5.953 0.976 9.031 2.52 C13.883 4.647 18.72 4.438 23.938 4.375 C24.888 4.387 25.839 4.398 26.818 4.41 C31.388 4.391 35.182 4.144 39.441 2.414 C43.039 0.985 43.595 0.873 47 2 C39.489 6.344 32.603 6.64 24.062 6.562 C23.457 6.574 23.457 6.574 20.393 6.635 C12.41 6.622 6.763 5.29 0 1 C0 0.67 0 0.34 0 0 Z " fill="#E2CDA5" transform="translate(122,211)"/>
<path d="M0 0 C3 2.5 3 2.5 5 5 C4.01 5 3.02 5 2 5 C1.67 4.67 1.34 4.34 1 4 C-5.473 3.207 -8.963 5.337 -14 9 C-14.33 8.34 -14.66 7.68 -15 7 C-10.477 1.406 -7.748 -1.393 0 0 Z " fill="#B67A56" transform="translate(146,96)"/>
<path d="M0 0 C1.354 0.144 2.708 0.291 4.062 0.438 C4.885 0.526 5.707 0.615 6.555 0.707 C8.607 0.953 10.65 1.28 12.688 1.625 C16.109 2.012 18.632 1.619 22 1 C24.674 0.913 27.324 0.954 30 1 C28.272 3.207 27.175 3.953 24.438 4.688 C19.949 5.096 15.503 5.08 11 5 C11 4.34 11 3.68 11 3 C10.374 3.012 9.747 3.023 9.102 3.035 C8.284 3.044 7.467 3.053 6.625 3.062 C5.813 3.074 5.001 3.086 4.164 3.098 C2 3 2 3 0 2 C0 1.34 0 0.68 0 0 Z " fill="#EFDEBC" transform="translate(129,217)"/>
<path d="M0 0 C2.643 0.092 5.285 0.198 7.927 0.319 C8.384 0.333 8.384 0.333 10.702 0.401 C11.144 0.421 11.144 0.421 13.384 0.522 C14.194 0.555 15.005 0.588 15.84 0.621 C18.57 1.159 20.025 2.273 22.114 4.069 C18.322 4.156 14.531 4.21 10.739 4.257 C9.659 4.282 8.579 4.307 7.466 4.333 C6.95 4.338 6.95 4.338 4.341 4.362 C3.387 4.378 2.434 4.394 1.452 4.41 C0.681 4.298 -0.091 4.185 -0.886 4.069 C-1.546 3.079 -2.206 2.089 -2.886 1.069 C-1.886 0.069 -1.886 0.069 0 0 Z " fill="#CDAE7F" transform="translate(132.885986328125,209.9306640625)"/>
<path d="M0 0 C1.32 0 2.64 0 4 0 C4 0.66 4 1.32 4 2 C5.98 2.66 7.96 3.32 10 4 C10 4.66 10 5.32 10 6 C16.582 7.463 24.147 7.888 30.746 6.367 C31.49 6.246 32.234 6.125 33 6 C33.66 6.66 34.32 7.32 35 8 C22.712 10.322 12.464 9.976 2 3 C2 2.34 2 1.68 2 1 C1.34 0.67 0.68 0.34 0 0 Z " fill="#E42620" transform="translate(118,196)"/>
<path d="M0 0 C8.095 2.277 13.588 9.243 18 16 C14.273 17.086 14.273 17.086 11.812 16.312 C9.552 14.675 9.502 13.675 9 11 C8.34 10.34 7.68 9.68 7 9 C7 8.01 7 7.02 7 6 C5.469 4.648 5.469 4.648 3.5 3.375 C2.32 2.603 1.15 1.816 0 1 C0 0.67 0 0.34 0 0 Z " fill="#F94341" transform="translate(165,61)"/>
<path d="M0 0 C0.99 0 1.98 0 3 0 C3.66 1.98 4.32 3.96 5 6 C4.01 6.66 3.02 7.32 2 8 C1.707 9.832 1.707 9.832 1.812 12.027 C1.836 12.819 1.859 13.612 1.883 14.428 C1.961 16.097 2.039 17.766 2.117 19.436 C2.14 20.229 2.164 21.022 2.188 21.84 C2.205 22.203 2.205 22.203 2.293 24.039 C1.917 26.555 0.917 27.402 -1 29 C-0.838 28.444 -0.675 27.889 -0.508 27.316 C1.051 20.207 -0.037 12.465 -0.879 5.312 C-1 3 -1 3 0 0 Z " fill="#E5CAA4" transform="translate(94,181)"/>
<path d="M0 0 C0.66 0.66 1.32 1.32 2 2 C0.118 7.745 -1.764 11.655 -6 16 C-6.66 16 -7.32 16 -8 16 C-8 16.66 -8 17.32 -8 18 C-9.65 18 -11.3 18 -13 18 C-8.284 12.265 -8.284 12.265 -6.188 10.312 C-5 9 -5 9 -5 6 C-3.709 4.626 -2.374 3.291 -1 2 C-0.67 1.34 -0.34 0.68 0 0 Z " fill="#EC2E29" transform="translate(182,174)"/>
<path d="M0 0 C0.66 0 1.32 0 2 0 C1.857 0.66 1.714 1.321 1.567 2.001 C-0.232 11.3 -0.23 20.327 -0.125 29.75 C-0.115 31.333 -0.106 32.917 -0.098 34.5 C-0.076 38.333 -0.042 42.167 0 46 C-0.66 46 -1.32 46 -2 46 C-2.025 41.18 -2.043 36.361 -2.055 31.541 C-2.06 29.905 -2.067 28.269 -2.075 26.633 C-2.191 4.382 -2.191 4.382 0 0 Z " fill="#B4402D" transform="translate(128,105)"/>
<path d="M0 0 C0.33 0 0.66 0 1 0 C2.682 8.168 4.061 15.754 2 24 C1.01 24 0.02 24 -1 24 C-0.814 23.051 -0.629 22.102 -0.438 21.125 C0 18 0 18 -1 16 C-0.911 13.276 -0.766 10.59 -0.562 7.875 C-0.51 7.121 -0.458 6.367 -0.404 5.59 C-0.275 3.726 -0.138 1.863 0 0 Z " fill="#E03C32" transform="translate(192,98)"/>
<path d="M0 0 C0.66 0.66 1.32 1.32 2 2 C1.699 3.832 1.699 3.832 1 6 C0.821 6.746 0.642 7.493 0.457 8.262 C-1.264 14.737 -4.003 19.645 -8 25 C-8.99 24.67 -9.98 24.34 -11 24 C-10.613 23.394 -10.227 22.788 -9.828 22.164 C-5.473 15.157 -1.863 8.08 0 0 Z " fill="#D2A57A" transform="translate(191,167)"/>
<path d="M0 0 C1.279 -0.062 2.558 -0.124 3.875 -0.188 C4.235 -0.205 4.235 -0.205 6.055 -0.293 C6.697 -0.196 7.339 -0.1 8 0 C10.069 3.103 10.479 4.825 11.062 8.438 C11.942 13.778 11.942 13.778 12.555 16.113 C13.251 19.063 13.058 21.985 13 25 C11.509 22.253 10.642 19.816 10.062 16.75 C8.045 7.416 8.045 7.416 6 4 C2.812 2 2.812 2 0 1 C0 0.67 0 0.34 0 0 Z " fill="#BF281F" transform="translate(144,94)"/>
<path d="M0 0 C0.66 0.66 1.32 1.32 2 2 C1.613 2.704 1.227 3.408 0.828 4.133 C-3.29 11.941 -5.851 19.453 -8 28 C-8.33 28 -8.66 28 -9 28 C-9.922 17.861 -5.201 8.441 0 0 Z " fill="#FC7E77" transform="translate(103,78)"/>
<path d="M0 0 C1.412 4.236 -0.109 7.167 -2 11 C-4.325 14.53 -6.854 17.704 -11 19 C-13.75 19.125 -13.75 19.125 -16 19 C-15.67 18.34 -15.34 17.68 -15 17 C-14.278 16.773 -13.556 16.546 -12.812 16.312 C-6.105 13.182 -2.946 6.459 0 0 Z " fill="#FC7E78" transform="translate(158,155)"/>
<path d="M0 0 C2.02 0.184 2.02 0.184 4.645 -0.379 C7.867 -0.973 10.021 -0.002 13.02 1.184 C13.02 1.514 13.02 1.844 13.02 2.184 C3.45 2.184 -6.12 2.184 -15.98 2.184 C-15.65 1.524 -15.32 0.864 -14.98 0.184 C-13.867 0.204 -12.753 0.225 -11.605 0.246 C-7.295 0.172 -4.447 -0.649 0 0 Z " fill="#F8C702" transform="translate(44.98046875,201.81640625)"/>
<path d="M0 0 C0 0.99 0 1.98 0 3 C-0.66 3 -1.32 3 -2 3 C-2 3.66 -2 4.32 -2 5 C-2.66 5 -3.32 5 -4 5 C-4 5.99 -4 6.98 -4 8 C-4.99 8.33 -5.98 8.66 -7 9 C-7 8.34 -7 7.68 -7 7 C-6.34 7 -5.68 7 -5 7 C-5 6.34 -5 5.68 -5 5 C-5.99 4.835 -5.99 4.835 -11 4 C-11 3.01 -11 2.02 -11 1 C-6.926 -1.037 -4.411 -1.026 0 0 Z " fill="#FBDD1C" transform="translate(87,174)"/>
<path d="M0 0 C0.66 0.33 1.32 0.66 2 1 C1.939 2.897 1.851 4.793 1.75 6.688 C1.704 7.743 1.657 8.799 1.609 9.887 C0.893 13.548 -0.491 15.295 -3 18 C-3.082 15.938 -3.139 13.875 -3.188 11.812 C-3.222 10.664 -3.257 9.515 -3.293 8.332 C-2.976 4.73 -2.085 2.906 0 0 Z " fill="#F9D825" transform="translate(17,79)"/>
<path d="M0 0 C1.607 3.215 1.057 6.436 1 10 C0.67 9.01 0.34 8.02 0 7 C-0.784 7.062 -1.568 7.124 -2.375 7.188 C-3.241 7.126 -4.108 7.064 -5 7 C-5.66 6.01 -6.32 5.02 -7 4 C-9.125 2.812 -9.125 2.812 -11 2 C-3.375 0 -3.375 0 0 0 Z " fill="#C9AB69" transform="translate(38,107)"/>
<path d="M0 0 C0.33 0 0.66 0 1 0 C1.33 9.24 1.66 18.48 2 28 C1.34 28.33 0.68 28.66 0 29 C-2.916 20.251 -0.687 9.088 0 0 Z " fill="#E6C9A7" transform="translate(129,129)"/>
<path d="M0 0 C0.66 0.33 1.32 0.66 2 1 C2 2.32 2 3.64 2 5 C1.618 5.041 1.618 5.041 -0.312 5.25 C-3.524 6.146 -4.294 7.216 -6 10 C-6.99 9.835 -6.99 9.835 -12 9 C-9.863 5.687 -8.746 4.881 -5 4 C-3.293 2.719 -1.617 1.393 0 0 Z " fill="#F5332E" transform="translate(159,193)"/>
<path d="M0 0 C0.33 0 0.66 0 1 0 C0.67 4.29 0.34 8.58 0 13 C-0.66 13 -1.32 13 -2 13 C-2.268 13.928 -2.536 14.856 -2.812 15.812 C-3.945 18.852 -4.699 19.901 -7 22 C-6.133 15.483 -5.457 11.032 -1 6 C-0.25 2.688 -0.25 2.688 0 0 Z " fill="#DC2721" transform="translate(188,162)"/>
<path d="M0 0 C0.33 0 0.66 0 1 0 C1.66 5.61 2.32 11.22 3 17 C3.66 17 4.32 17 5 17 C5.625 19.875 5.625 19.875 6 23 C5.34 23.66 4.68 24.32 4 25 C0.977 16.445 -0.161 9.073 0 0 Z " fill="#D93B2F" transform="translate(89,149)"/>
<path d="M0 0 C2 3.75 2 3.75 2 6 C1.34 6 0.68 6 0 6 C0 8.97 0 11.94 0 15 C-0.66 15 -1.32 15 -2 15 C-2.33 15.99 -2.66 16.98 -3 18 C-3.104 12.249 -3.201 6.645 -2 1 C-1.34 0.67 -0.68 0.34 0 0 Z " fill="#FC6663" transform="translate(95,102)"/>
<path d="M0 0 C0 3 0 3 -1.539 4.719 C-9.103 11.178 -9.103 11.178 -14 13 C-14.99 12.67 -15.98 12.34 -17 12 C-16.527 11.72 -16.054 11.441 -15.566 11.152 C-10.058 7.813 -5.019 4.032 0 0 Z " fill="#932312" transform="translate(176,194)"/>
<path d="M0 0 C1.65 0 3.3 0 5 0 C5 0.66 5 1.32 5 2 C8.3 2 11.6 2 15 2 C15 1.34 15 0.68 15 0 C15.99 0 16.98 0 18 0 C18.33 0.99 18.66 1.98 19 3 C17.226 4.774 14.711 4.173 12.312 4.188 C7.823 4.161 4.161 3.849 0 2 C0 1.34 0 0.68 0 0 Z " fill="#F1302B" transform="translate(128,200)"/>
<path d="M0 0 C0.66 0.33 1.32 0.66 2 1 C2.074 5.658 2.043 10.129 1.438 14.75 C1.019 18.067 1.055 20.745 2 24 C1.505 24.33 1.505 24.33 -1 26 C-0.67 17.42 -0.34 8.84 0 0 Z " fill="#F6E6C7" transform="translate(201,132)"/>
<path d="M0 0 C2.5 1.312 2.5 1.312 5 3 C5 3.99 5 4.98 5 6 C5.825 6.33 5.825 6.33 10 8 C10 8.33 10 8.66 10 9 C7.69 9 5.38 9 3 9 C-0.223 3.727 -0.223 3.727 -1 2 C-0.67 1.34 -0.34 0.68 0 0 Z " fill="#EFDFBA" transform="translate(26,206)"/>
<path d="M0 0 C7.564 -0.291 7.564 -0.291 11 2 C11.66 2.66 12.32 3.32 13 4 C10.36 4.66 7.72 5.32 5 6 C5 5.01 5 4.02 5 3 C4.361 2.876 3.721 2.752 3.062 2.625 C2.382 2.419 1.701 2.213 1 2 C0.67 1.34 0.34 0.68 0 0 Z " fill="#FC6261" transform="translate(132,171)"/>
<path d="M0 0 C3.012 3.012 2.961 5.281 3.188 9.5 C3.01 12.823 2.557 14.194 1 17 C0.637 14.731 0.285 12.459 -0.062 10.188 C-0.26 8.923 -0.457 7.658 -0.66 6.355 C-1 3 -1 3 0 0 Z " fill="#F1D7B7" transform="translate(194,98)"/>
<path d="M0 0 C1.623 3.246 0.547 6.638 0.062 10.125 C-0.037 10.879 -0.137 11.633 -0.24 12.41 C-0.488 14.274 -0.743 16.137 -1 18 C-1.99 17.34 -2.98 16.68 -4 16 C-3.34 16 -2.68 16 -2 16 C-2 15.34 -2 14.68 -2 14 C-2.66 13.67 -3.32 13.34 -4 13 C-2 2 -2 2 0 0 Z " fill="#F23230" transform="translate(191,144)"/>
<path d="M0 0 C0.33 0 0.66 0 1 0 C1.33 4.62 1.66 9.24 2 14 C1.67 14.165 1.67 14.165 0 15 C0 10.05 0 5.1 0 0 Z M-1 15 C-0.67 15.99 -0.34 16.98 0 18 C-1.404 20.264 -3.197 22.021 -5 24 C-5.66 23.67 -6.32 23.34 -7 23 C-5.02 20.36 -3.04 17.72 -1 15 Z " fill="#EAD7AF" transform="translate(96,192)"/>
<path d="M0 0 C0.33 0 0.66 0 1 0 C1 3.63 1 7.26 1 11 C1.66 11 2.32 11 3 11 C3.33 11.495 3.33 11.495 5 14 C4.67 14.99 4.34 15.98 4 17 C2.68 16.67 1.36 16.34 0 16 C0 10.72 0 5.44 0 0 Z " fill="#F6C40F" transform="translate(23,185)"/>
<path d="M0 0 C0.99 0.33 1.98 0.66 3 1 C1.61 2.132 0.213 3.256 -1.188 4.375 C-1.965 5.001 -2.742 5.628 -3.543 6.273 C-5.969 7.978 -8.213 9.02 -11 10 C-11.66 9.34 -12.32 8.68 -13 8 C-12.313 7.674 -11.626 7.348 -10.918 7.012 C-10.017 6.575 -9.116 6.138 -8.188 5.688 C-7.294 5.258 -6.401 4.829 -5.48 4.387 C-3.211 3.118 -1.708 1.934 0 0 Z " fill="#BE3024" transform="translate(173,194)"/>
<path d="M0 0 C2.301 1.782 3.8 3.163 4.488 6.047 C4.723 8.025 4.868 10.013 5 12 C4.34 12 3.68 12 3 12 C2.298 10.758 1.614 9.506 0.938 8.25 C0.746 7.902 0.746 7.902 -0.223 6.141 C-1.131 3.639 -0.883 2.467 0 0 Z " fill="#EB2723" transform="translate(95,170)"/>
<path d="M0 0 C0.66 0.33 1.32 0.66 2 1 C1.01 1.33 0.02 1.66 -1 2 C-1.33 2.99 -1.66 3.98 -2 5 C-4.31 5.33 -6.62 5.66 -9 6 C-9 6.66 -9 7.32 -9 8 C-10.812 9.062 -10.812 9.062 -13 10 C-13.99 9.67 -14.98 9.34 -16 9 C-15.432 8.685 -14.863 8.371 -14.277 8.047 C-13.891 7.833 -13.891 7.833 -11.938 6.75 C-11.529 6.524 -11.529 6.524 -9.461 5.383 C-7.301 4.169 -5.183 2.905 -3.062 1.625 C-2.052 1.089 -1.041 0.553 0 0 Z " fill="#CFB388" transform="translate(173,203)"/>
<path d="M0 0 C1.65 0 3.3 0 5 0 C3.35 1.65 1.7 3.3 0 5 C0 4.34 0 3.68 0 3 C-2.511 4.255 -2.871 5.501 -4 8 C-4.66 8 -5.32 8 -6 8 C-5.67 6.35 -5.34 4.7 -5 3 C-3.35 2.67 -1.7 2.34 0 2 C0 1.34 0 0.68 0 0 Z " fill="#FCE325" transform="translate(47,62)"/>
<path d="M0 0 C0.66 0.33 1.32 0.66 2 1 C-0.556 3.982 -3.476 5.346 -7 7 C-7.361 7.206 -7.361 7.206 -9.188 8.25 C-11 9 -11 9 -14 8 C-9.615 4.93 -5.052 1.855 0 0 Z " fill="#EFDEBD" transform="translate(173,211)"/>
<path d="M0 0 C1.484 0.423 2.962 0.864 4.438 1.312 C4.849 1.434 4.849 1.434 6.934 2.051 C7.616 2.364 8.297 2.677 9 3 C9.33 3.99 9.66 4.98 10 6 C7.69 5.67 5.38 5.34 3 5 C3 4.34 3 3.68 3 3 C2.01 2.67 1.02 2.34 0 2 C0 1.34 0 0.68 0 0 Z " fill="#E0C895" transform="translate(23,108)"/>
<path d="M0 0 C0 1.98 0 3.96 0 6 C-0.33 5.34 -0.66 4.68 -1 4 C-1.639 4.33 -2.279 4.66 -2.938 5 C-6.918 6.3 -10.85 6.723 -15 6 C-16.773 4.48 -16.773 4.48 -18 3 C-17.484 3.165 -16.969 3.33 -16.438 3.5 C-11.416 4.53 -8.112 4.659 -3.625 2 C-1 0 -1 0 0 0 Z " fill="#A57217" transform="translate(39,103)"/>
<path d="M0 0 C0.66 0 1.32 0 2 0 C1.886 1.792 1.759 3.584 1.625 5.375 C1.59 5.874 1.59 5.874 1.414 8.398 C1 11 1 11 -1 13 C-2.429 4.571 -2.429 4.571 0 0 Z " fill="#FC6764" transform="translate(160,145)"/>
<path d="M0 0 C0.33 0.66 0.66 1.32 1 2 C1.99 1.67 2.98 1.34 4 1 C3 3 2 5 1 7 C1.99 7.33 2.98 7.66 4 8 C2.68 9.32 1.36 10.64 0 12 C-1.161 7.744 -0.762 4.316 0 0 Z " fill="#FDE21F" transform="translate(46,114)"/>
<path d="M0 0 C3.325 2.981 5.424 5.798 7 10 C6.188 12.375 6.188 12.375 5 14 C4.01 12.68 3.02 11.36 2 10 C2.66 9.67 3.32 9.34 4 9 C3.34 7.886 2.68 6.772 2 5.625 C0 2.25 0 2.25 0 0 Z " fill="#F43C35" transform="translate(182,77)"/>
<path d="M0 0 C0 0.66 0 1.32 0 2 C-2.525 3.262 -4.312 3.099 -7.125 3.062 C-8.035 3.053 -8.945 3.044 -9.883 3.035 C-10.581 3.024 -11.28 3.012 -12 3 C-8.417 -0.863 -5.065 -1.688 0 0 Z " fill="#C39D71" transform="translate(157,210)"/>
<path d="M0 0 C1.65 0 3.3 0 5 0 C4.67 0.99 4.34 1.98 4 3 C3.34 3 2.68 3 2 3 C1.278 3.495 0.556 3.99 -0.188 4.5 C-3.65 6.347 -6.131 6.228 -10 6 C-10 5.67 -10 5.34 -10 5 C-8.907 4.691 -7.814 4.381 -6.688 4.062 C-4.446 3.417 -2.213 2.738 0 2 C0 1.34 0 0.68 0 0 Z " fill="#D59804" transform="translate(35,102)"/>
<path d="M0 0 C0.33 0.99 0.66 1.98 1 3 C-2.164 7.582 -2.164 7.582 -5 9 C-7.333 9.04 -9.667 9.043 -12 9 C-12 8.67 -12 8.34 -12 8 C-10.948 7.794 -9.896 7.588 -8.812 7.375 C-4.356 6.143 -2.642 3.682 0 0 Z " fill="#FDF1E9" transform="translate(151,161)"/>
<path d="M0 0 C0.99 0.33 1.98 0.66 3 1 C3 3.64 3 6.28 3 9 C2.01 9 1.02 9 0 9 C0 6.03 0 3.06 0 0 Z " fill="#FD5D5A" transform="translate(160,121)"/>
<path d="M0 0 C0.99 0.33 1.98 0.66 3 1 C3.33 4.3 3.66 7.6 4 11 C3.01 10.67 2.02 10.34 1 10 C0.67 6.7 0.34 3.4 0 0 Z " fill="#E8C7A8" transform="translate(152,108)"/>
<path d="M0 0 C1.98 0 3.96 0 6 0 C6.688 1.812 6.688 1.812 7 4 C5.562 5.75 5.562 5.75 4 7 C3.34 5.35 2.68 3.7 2 2 C1.34 2 0.68 2 0 2 C0 1.34 0 0.68 0 0 Z " fill="#F94343" transform="translate(151,90)"/>
<path d="M0 0 C0.33 1.32 0.66 2.64 1 4 C1.66 4 2.32 4 3 4 C4.688 5.812 4.688 5.812 6 8 C5.67 8.99 5.34 9.98 5 11 C-0.745 5.697 -0.745 5.697 -1 2 C-0.67 1.34 -0.34 0.68 0 0 Z " fill="#E33228" transform="translate(100,180)"/>
<path d="M0 0 C0 0.99 0 1.98 0 3 C-2.64 3 -5.28 3 -8 3 C-8 2.01 -8 1.02 -8 0 C-4.71 -1.097 -3.287 -0.8 0 0 Z " fill="#FDE829" transform="translate(84,175)"/>
<path d="M0 0 C0 1.98 0 3.96 0 6 C-7.429 6.286 -7.429 6.286 -11 4 C-9.907 3.711 -8.814 3.423 -7.688 3.125 C-5.484 2.453 -2.089 0 0 0 Z " fill="#FDE63D" transform="translate(45,168)"/>
<path d="M0 0 C0.66 0 1.32 0 2 0 C1.555 5.273 0.916 10.018 -1 15 C-2.202 11.469 -1.795 8.871 -1.062 5.25 C-0.868 4.265 -0.673 3.28 -0.473 2.266 C-0.317 1.518 -0.161 0.77 0 0 Z " fill="#DB3B2D" transform="translate(190,158)"/>
<path d="M0 0 C0.66 0.33 1.32 0.66 2 1 C0 4 -2 7 -4 10 C-4.773 7.216 -5.176 5.527 -4.25 2.75 C-3 1 -3 1 0 0 Z " fill="#C18F6A" transform="translate(134,103)"/>
<path d="M0 0 C0 3 0 3 -1.625 5.688 C-4 8 -4 8 -7.25 8.312 C-8.157 8.209 -9.065 8.106 -10 8 C-10 7.34 -10 6.68 -10 6 C-8.907 5.567 -7.814 5.134 -6.688 4.688 C-3.906 3.505 -1.936 2.392 0 0 Z " fill="#C6AA6F" transform="translate(90,204)"/>
<path d="M0 0 C0.33 0.165 0.33 0.165 2 1 C3.393 5.877 2.611 9.261 1 14 C0.064 10.845 -0.106 8.034 -0.062 4.75 C-0.053 3.858 -0.044 2.966 -0.035 2.047 C-0.024 1.371 -0.012 0.696 0 0 Z " fill="#FACB06" transform="translate(87,175)"/>
<path d="M0 0 C0.268 0.619 0.536 1.237 0.812 1.875 C2 4 2 4 5 6 C4.67 7.98 4.34 9.96 4 12 C2.292 10.366 1.065 9.131 0 7 C-0.04 4.667 -0.043 2.333 0 0 Z " fill="#E5B312" transform="translate(15,92)"/>
<path d="M0 0 C1.945 2.918 2.453 4.625 3 8 C2.505 8.33 2.505 8.33 0 10 C-1.603 6.882 -2.19 5.61 -1.125 2.188 C-0.754 1.466 -0.382 0.744 0 0 Z " fill="#EDD3B3" transform="translate(93,174)"/>
<path d="M0 0 C-3.288 2.912 -5.599 4.497 -10 5 C-10 4.34 -10 3.68 -10 3 C-9.34 3 -8.68 3 -8 3 C-8 2.34 -8 1.68 -8 1 C-5.291 -0.354 -2.991 -0.065 0 0 Z " fill="#FDE632" transform="translate(39,177)"/>
<path d="M0 0 C1.072 0.082 2.145 0.165 3.25 0.25 C3.58 0.91 3.91 1.57 4.25 2.25 C0.29 2.91 -3.67 3.57 -7.75 4.25 C-3.75 0.25 -3.75 0.25 0 0 Z " fill="#C18E68" transform="translate(143.75,98.75)"/>
<path d="M0 0 C1.945 2.918 2.453 4.625 3 8 C1.68 7.67 0.36 7.34 -1 7 C-1 6.34 -1 5.68 -1 5 C-1.66 5 -2.32 5 -3 5 C-2.67 3.68 -2.34 2.36 -2 1 C-2 1.66 -2 2.32 -2 3 C-1.34 3 -0.68 3 0 3 C0 2.01 0 1.02 0 0 Z " fill="#EB3730" transform="translate(129,158)"/>
<path d="M0 0 C0.33 0 0.66 0 1 0 C0.67 3.63 0.34 7.26 0 11 C-0.99 11 -1.98 11 -3 11 C-2.328 7.194 -1.273 3.648 0 0 Z " fill="#DBB994" transform="translate(130,118)"/>
<path d="M0 0 C0.66 0.33 1.32 0.66 2 1 C-0.865 5.078 -3.43 7.027 -8 9 C-6.417 4.726 -3.494 2.735 0 0 Z " fill="#FDE226" transform="translate(29,68)"/>
<path d="M0 0 C1.32 0.33 2.64 0.66 4 1 C2.845 1.99 2.845 1.99 -3 7 C-3.66 6.67 -4.32 6.34 -5 6 C-4.67 5.34 -4.34 4.68 -4 4 C-3.34 4 -2.68 4 -2 4 C-1.34 2.68 -0.68 1.36 0 0 Z " fill="#E2211D" transform="translate(169,192)"/>
<path d="M0 0 C1.32 0 2.64 0 4 0 C4 0.66 4 1.32 4 2 C3.34 2 2.68 2 2 2 C1.34 3.32 0.68 4.64 0 6 C-0.382 4.344 -0.714 2.675 -1 1 C-0.67 0.67 -0.34 0.34 0 0 Z M-2 6 C-1.34 6 -0.68 6 0 6 C-0.33 6.99 -0.66 7.98 -1 9 C-1.33 8.01 -1.66 7.02 -2 6 Z " fill="#FC5152" transform="translate(97,102)"/>
<path d="M0 0 C0 3 0 3 -1 6 C-3.562 7.688 -3.562 7.688 -6 9 C-4.839 4.645 -3.923 2.354 0 0 Z " fill="#FD9289" transform="translate(110,70)"/>
<path d="M0 0 C2.64 0 5.28 0 8 0 C8.33 0.99 8.66 1.98 9 3 C7.312 3.688 7.312 3.688 5 4 C2.25 2.625 2.25 2.625 0 1 C0 0.67 0 0.34 0 0 Z " fill="#F32F2E" transform="translate(110,192)"/>
<path d="M0 0 C0.99 0.33 1.98 0.66 3 1 C2.67 1.165 2.67 1.165 1 2 C1.825 2.763 2.65 3.526 3.5 4.312 C6 7 6 7 6 10 C1.772 6.917 1.772 6.917 0 5 C-0.375 2.188 -0.375 2.188 0 0 Z " fill="#B3402C" transform="translate(105,190)"/>
<path d="M0 0 C1.125 1.75 1.125 1.75 2 4 C0.948 7.473 -1.041 9.027 -4 11 C-3.523 9.541 -3.043 8.083 -2.562 6.625 C-2.296 5.813 -2.029 5.001 -1.754 4.164 C-1 2 -1 2 0 0 Z " fill="#FC615F" transform="translate(102,83)"/>
<path d="M0 0 C0.66 0.33 1.32 0.66 2 1 C-0.528 3.799 -2.204 5.458 -6 6 C-6 5.01 -6 4.02 -6 3 C-4.035 1.932 -2.031 0.934 0 0 Z " fill="#F42A25" transform="translate(167,192)"/>
<path d="M0 0 C0.66 0.33 1.32 0.66 2 1 C2 1.66 2 2.32 2 3 C1.34 3 0.68 3 0 3 C-0.248 3.639 -0.495 4.279 -0.75 4.938 C-2 7 -2 7 -6 8 C-4.02 5.36 -2.04 2.72 0 0 Z " fill="#C69A70" transform="translate(179,192)"/>
<path d="M0 0 C2.36 2.36 2.491 3.779 3 7 C2.01 7.33 1.02 7.66 0 8 C-1.125 5.688 -1.125 5.688 -2 3 C-1.34 2.01 -0.68 1.02 0 0 Z " fill="#F7DCC1" transform="translate(134,160)"/>
<path d="M0 0 C1.984 2.917 1.988 4.124 1.625 7.75 C1.419 8.823 1.213 9.895 1 11 C-1.304 7.543 -1.259 6.051 -1 2 C-0.67 1.34 -0.34 0.68 0 0 Z " fill="#F7EAD4" transform="translate(87,105)"/>
<path d="M0 0 C1.32 0 2.64 0 4 0 C4.33 1.32 4.66 2.64 5 4 C3.68 4.33 2.36 4.66 1 5 C1 5.66 1 6.32 1 7 C0.34 6.67 -0.32 6.34 -1 6 C-1 5.01 -1 4.02 -1 3 C-0.34 3 0.32 3 1 3 C1.33 2.34 1.66 1.68 2 1 C1.34 0.67 0.68 0.34 0 0 Z " fill="#FB4341" transform="translate(181,82)"/>
<path d="M0 0 C-0.33 1.32 -0.66 2.64 -1 4 C-2.65 4.33 -4.3 4.66 -6 5 C-6.33 4.01 -6.66 3.02 -7 2 C-4 0 -4 0 0 0 Z " fill="#FA4F50" transform="translate(112,82)"/>
<path d="M0 0 C0.66 0.33 1.32 0.66 2 1 C-1.323 5.8 -1.323 5.8 -4.75 6.812 C-5.492 6.874 -6.235 6.936 -7 7 C-4.781 4.092 -3.07 2.047 0 0 Z " fill="#FDE122" transform="translate(39,60)"/>
<path d="M0 0 C0 3 0 3 -2.375 5.688 C-5 8 -5 8 -7 8 C-5.509 4.205 -3.243 2.39 0 0 Z " fill="#822010" transform="translate(176,194)"/>
<path d="M0 0 C-1.25 3.653 -1.671 4.781 -5 7 C-5.188 4.625 -5.188 4.625 -5 2 C-2 0 -2 0 0 0 Z " fill="#F3342F" transform="translate(188,166)"/>
<path d="M0 0 C0.66 0.33 1.32 0.66 2 1 C1.67 2.65 1.34 4.3 1 6 C0.34 6 -0.32 6 -1 6 C-1.66 7.32 -2.32 8.64 -3 10 C-3.125 7.625 -3.125 7.625 -3 5 C-2.34 4.34 -1.68 3.68 -1 3 C-0.67 2.01 -0.34 1.02 0 0 Z " fill="#F63735" transform="translate(126,98)"/>
<path d="M0 0 C0.33 0.99 0.66 1.98 1 3 C-2.053 3.981 -3.947 3.981 -7 3 C-7 2.34 -7 1.68 -7 1 C-2.25 0 -2.25 0 0 0 Z " fill="#FC6B67" transform="translate(154,57)"/>
<path d="M0 0 C1.98 0.66 3.96 1.32 6 2 C6.33 1.34 6.66 0.68 7 0 C6.67 1.98 6.34 3.96 6 6 C3.979 4.358 1.98 2.691 0 1 C0 0.67 0 0.34 0 0 Z " fill="#F8ECC7" transform="translate(86,173)"/>
<path d="M0 0 C0.99 0 1.98 0 3 0 C3.33 1.98 3.66 3.96 4 6 C3.01 6 2.02 6 1 6 C0.67 4.02 0.34 2.04 0 0 Z " fill="#F3DEB9" transform="translate(78,66)"/>
<path d="M0 0 C1.32 0 2.64 0 4 0 C4 0.66 4 1.32 4 2 C5.65 2.33 7.3 2.66 9 3 C8.67 3.66 8.34 4.32 8 5 C6.02 4.34 4.04 3.68 2 3 C2 2.34 2 1.68 2 1 C1.34 0.67 0.68 0.34 0 0 Z " fill="#EE2A26" transform="translate(118,196)"/>
<path d="M0 0 C0 3.932 -1.394 5.164 -4 8 C-4.66 8 -5.32 8 -6 8 C-6 7.34 -6 6.68 -6 6 C-5.34 6 -4.68 6 -4 6 C-3.711 5.381 -3.423 4.762 -3.125 4.125 C-2 2 -2 2 0 0 Z " fill="#D5251D" transform="translate(180,184)"/>
<path d="M0 0 C0.66 0.33 1.32 0.66 2 1 C2 2.98 2 4.96 2 7 C1.34 7 0.68 7 0 7 C-0.381 5.009 -0.713 3.007 -1 1 C-0.67 0.67 -0.34 0.34 0 0 Z " fill="#F54444" transform="translate(91,100)"/>
<path d="M0 0 C0.66 0.33 1.32 0.66 2 1 C0.845 1.99 0.845 1.99 -5 7 C-5.66 6.67 -6.32 6.34 -7 6 C-4.69 4.02 -2.38 2.04 0 0 Z " fill="#FDEF6C" transform="translate(31,70)"/>
<path d="M0 0 C0.66 0.33 1.32 0.66 2 1 C0.35 2.98 -1.3 4.96 -3 7 C-3.99 6.67 -4.98 6.34 -6 6 C-4.02 4.02 -2.04 2.04 0 0 Z " fill="#F94C4B" transform="translate(110,66)"/>
</svg>
