<?xml version="1.0" encoding="UTF-8"?>
<!-- Generator: visioncortex VTracer 0.6.12 -->
<svg version="1.1" xmlns="http://www.w3.org/2000/svg" width="213" height="265">
<path d="M0 0 C70.29 0 140.58 0 213 0 C213 87.45 213 174.9 213 265 C142.71 265 72.42 265 0 265 C0 177.55 0 90.1 0 0 Z " fill="#FDF7E0" transform="translate(0,0)"/>
<path d="M0 0 C3.93 2.518 6.252 5.568 7.591 10.028 C8.05 12.265 8.166 14.296 8.185 16.578 C8.195 17.459 8.204 18.339 8.214 19.247 C8.22 20.205 8.226 21.163 8.232 22.15 C8.242 23.165 8.252 24.18 8.262 25.226 C8.294 28.58 8.318 31.935 8.343 35.29 C8.364 37.616 8.385 39.942 8.406 42.268 C8.461 48.39 8.511 54.512 8.559 60.634 C8.609 66.881 8.665 73.128 8.72 79.375 C8.828 91.633 8.929 103.891 9.027 116.149 C9.647 116.342 10.267 116.535 10.906 116.734 C11.719 116.994 12.531 117.254 13.368 117.522 C14.174 117.777 14.98 118.031 15.811 118.294 C19.207 119.604 20.41 120.885 22.027 124.149 C22.579 127.646 22.585 131.053 22.527 134.586 C22.534 135.051 22.534 135.051 22.573 137.401 C22.541 143.096 22.061 146.799 18.027 151.149 C12.401 154.953 6.821 154.6 0.277 154.583 C-0.289 154.585 -0.289 154.585 -3.152 154.598 C-5.539 154.605 -7.926 154.604 -10.313 154.595 C-13.961 154.586 -17.607 154.615 -21.255 154.647 C-23.578 154.649 -25.9 154.648 -28.223 154.645 C-29.311 154.656 -30.399 154.667 -31.519 154.679 C-37.64 154.623 -41.348 154.3 -45.973 150.149 C-49.318 145.283 -49.463 140.852 -49.411 135.149 C-49.421 134.758 -49.421 134.758 -49.471 132.782 C-49.466 126.474 -47.565 122.926 -43.223 118.274 C-40.973 117.149 -40.973 117.149 -32.973 117.149 C-33.303 99.989 -33.633 82.829 -33.973 65.149 C-35.623 64.819 -37.273 64.489 -38.973 64.149 C-41.286 62.461 -41.286 62.461 -43.973 60.149 C-45.346 59.167 -46.722 58.188 -48.098 57.211 C-52.369 54.002 -54.531 51.359 -55.598 46.024 C-55.722 45.075 -55.846 44.126 -55.973 43.149 C-56.138 42.654 -56.138 42.654 -56.973 40.149 C-57.169 38.259 -57.285 36.36 -57.348 34.461 C-57.397 33.468 -57.446 32.474 -57.497 31.45 C-56.172 23.097 -50.149 18.072 -43.786 13.086 C-43.019 12.483 -42.252 11.88 -41.462 11.258 C-39.956 10.076 -38.447 8.899 -36.934 7.726 C-34.973 6.149 -34.973 6.149 -32.446 3.692 C-25.162 -2.968 -9.028 -3.893 0 0 Z " fill="#FDDE13" transform="translate(161.973388671875,55.85107421875)"/>
<path d="M0 0 C1.038 -0.029 2.075 -0.058 3.145 -0.088 C9.345 -0.139 13.067 0.106 17.75 4.312 C20.894 8.649 21.864 12.456 21.908 17.742 C21.918 18.622 21.928 19.503 21.938 20.41 C21.944 21.368 21.949 22.326 21.955 23.313 C21.965 24.328 21.975 25.343 21.985 26.389 C22.017 29.744 22.042 33.098 22.066 36.453 C22.087 38.779 22.108 41.105 22.129 43.431 C22.185 49.553 22.234 55.675 22.282 61.798 C22.332 68.045 22.388 74.292 22.443 80.539 C22.551 92.797 22.652 105.055 22.75 117.312 C23.299 117.505 23.848 117.698 24.414 117.896 C25.135 118.156 25.855 118.416 26.598 118.684 C27.312 118.938 28.026 119.193 28.762 119.455 C32.127 120.907 34.133 123.078 35.75 126.312 C36.042 129.556 36.028 132.808 36.062 136.062 C36.077 136.51 36.077 136.51 36.15 138.773 C36.205 144.435 35.763 147.973 31.75 152.312 C26.164 156.07 20.709 155.764 14.219 155.746 C13.109 155.751 12 155.757 10.857 155.762 C8.517 155.768 6.177 155.767 3.837 155.759 C0.262 155.75 -3.312 155.779 -6.887 155.811 C-9.164 155.812 -11.441 155.812 -13.719 155.809 C-14.785 155.82 -15.85 155.831 -16.948 155.843 C-23.038 155.786 -26.616 155.38 -31.25 151.312 C-35.118 146.855 -34.732 141.99 -34.688 136.375 C-34.707 135.494 -34.727 134.613 -34.748 133.705 C-34.744 127.927 -34.013 124.745 -30.25 120.312 C-26.52 117.483 -24.469 118.312 -19.25 118.312 C-19.25 101.153 -19.25 83.993 -19.25 66.312 C-19.745 66.148 -19.745 66.148 -22.25 65.312 C-22.498 64.673 -22.745 64.034 -23 63.375 C-24.25 61.312 -24.25 61.312 -27.562 60.188 C-28.779 59.899 -29.996 59.61 -31.25 59.312 C-34.75 58.091 -37.374 56.656 -40.25 54.312 C-40.002 53.797 -39.755 53.281 -39.5 52.75 C-39.25 50.312 -39.25 50.312 -41.188 47.5 C-44.687 41.891 -44.178 34.641 -43.25 28.312 C-40.761 23.609 -37.396 20.38 -33.312 17.062 C-32.752 16.598 -32.191 16.133 -31.614 15.655 C-12.732 0.117 -12.732 0.117 0 0 Z " fill="#FDDF13" transform="translate(72.25,54.6875)"/>
<path d="M0 0 C70.29 0 140.58 0 213 0 C213 87.45 213 174.9 213 265 C142.71 265 72.42 265 0 265 C0 177.55 0 90.1 0 0 Z M7 3 C7 86.82 7 170.64 7 257 C73 257 139 257 207 257 C208.155 254.69 208.124 253.389 208.123 250.818 C208.125 249.937 208.127 249.055 208.129 248.146 C208.128 247.659 208.128 247.659 208.12 245.193 C208.121 244.162 208.122 243.131 208.123 242.069 C208.124 238.593 208.119 235.116 208.114 231.64 C208.113 229.157 208.113 226.674 208.114 224.191 C208.114 218.834 208.111 213.476 208.106 208.119 C208.098 200.373 208.095 192.628 208.094 184.882 C208.092 172.316 208.085 159.749 208.075 147.183 C208.066 134.974 208.059 122.765 208.055 110.556 C208.055 109.796 208.054 109.036 208.054 108.254 C208.052 102.311 208.05 96.369 208.048 90.426 C208.039 61.284 208.019 32.142 208 3 C141.67 3 75.34 3 7 3 Z " fill="#FDFDFC" transform="translate(0,0)"/>
<path d="M0 0 C0.99 0 1.98 0 3 0 C3 1.65 3 3.3 3 5 C3.66 5 4.32 5 5 5 C7.817 10.633 8.048 20.733 6.125 26.727 C4.899 28.711 3.609 30.316 2 32 C1.639 32.474 1.639 32.474 -0.188 34.875 C-7.184 40.162 -17.642 39.42 -26.062 39.688 C-26.622 39.711 -26.622 39.711 -29.455 39.83 C-35.775 40.056 -41.733 39.823 -48 39 C-48.928 39.062 -49.856 39.124 -50.812 39.188 C-53.948 38.919 -54.776 37.224 -57 35 C-58.715 34.178 -60.446 33.389 -62.188 32.625 C-64.848 31.371 -64.848 31.371 -67 30 C-68.125 26.688 -68.125 26.688 -68 24 C-67.626 24.243 -67.626 24.243 -65.734 25.475 C-60.852 27.897 -55.581 27.428 -50.25 27.398 C-49.684 27.4 -49.684 27.4 -46.821 27.407 C-44.434 27.409 -42.047 27.404 -39.66 27.391 C-36.013 27.375 -32.366 27.391 -28.719 27.41 C-26.396 27.408 -24.073 27.404 -21.75 27.398 C-20.662 27.405 -19.575 27.411 -18.454 27.417 C-12.906 27.365 -8.754 27.205 -4 24 C-0.173 19.667 -0.456 14.693 -0.312 9.188 C-0.278 8.304 -0.244 7.42 -0.209 6.51 C-0.127 4.34 -0.062 2.17 0 0 Z " fill="#E5D3A6" transform="translate(184,182)"/>
<path d="M0 0 C1.961 1.012 1.961 1.012 4 3 C4.409 5.717 4.605 8.093 4.625 10.812 C4.718 15.872 5.13 20.236 7 25 C6.505 25.165 6.505 25.165 4 26 C2.944 27.632 1.956 29.308 1 31 C-3.069 37.698 -3.069 37.698 -6.5 38.812 C-6.912 38.843 -6.912 38.843 -9 39 C-9.825 39.371 -10.65 39.743 -11.5 40.125 C-14.542 41.19 -15.862 40.628 -19 40 C-21.375 39.931 -23.753 39.915 -26.129 39.938 C-26.465 39.939 -26.465 39.939 -28.164 39.949 C-30.297 39.961 -32.43 39.98 -34.562 40 C-37.376 40.027 -40.19 40.047 -43.004 40.062 C-44.25 40.074 -45.496 40.086 -46.78 40.098 C-49.415 40.018 -51.507 39.791 -54 39 C-54 38.34 -54 37.68 -54 37 C-54.66 37 -55.32 37 -56 37 C-56 36.34 -56 35.68 -56 35 C-56.722 34.897 -57.444 34.794 -58.188 34.688 C-61.354 33.913 -63.399 32.968 -66 31 C-67.312 28.312 -67.312 28.312 -68 26 C-65.831 26.506 -64 27 -62 28 C-60.398 28.105 -58.792 28.149 -57.187 28.161 C-56.185 28.171 -55.183 28.18 -54.152 28.19 C-53.065 28.194 -51.979 28.199 -50.859 28.203 C-49.744 28.209 -48.629 28.215 -47.481 28.22 C-45.117 28.23 -42.753 28.236 -40.389 28.24 C-36.779 28.25 -33.169 28.281 -29.559 28.312 C-27.263 28.319 -24.967 28.324 -22.672 28.328 C-21.594 28.34 -20.515 28.353 -19.404 28.366 C-13.862 28.349 -9.749 28.208 -5 25 C-1.309 20.751 -1.495 16.18 -1.375 10.812 C-1.104 2.208 -1.104 2.208 0 0 Z " fill="#D8C38E" transform="translate(109,181)"/>
<path d="M0 0 C3.108 3.108 3.123 6.21 3.158 10.467 C3.168 11.356 3.178 12.245 3.188 13.161 C3.194 14.129 3.199 15.096 3.205 16.093 C3.215 17.117 3.225 18.142 3.235 19.198 C3.267 22.585 3.292 25.972 3.316 29.359 C3.337 31.708 3.358 34.056 3.379 36.405 C3.435 42.586 3.484 48.767 3.532 54.949 C3.582 61.256 3.638 67.564 3.693 73.871 C3.801 86.247 3.902 98.624 4 111 C2.02 110.67 0.04 110.34 -2 110 C-2.794 104.382 -3.182 98.922 -3.188 93.25 C-3.2 92.509 -3.212 91.768 -3.225 91.004 C-3.235 87.182 -3.155 84.237 -1 81 C-1.66 81 -2.32 81 -3 81 C-3 80.34 -3 79.68 -3 79 C-3.66 79 -4.32 79 -5 79 C-4 74 -4 74 -3.375 71.562 C-3 69 -3 69 -3.562 66.25 C-4.152 61.868 -3.136 58.226 -2 54 C-2.66 54 -3.32 54 -4 54 C-3.838 52.873 -3.675 51.747 -3.508 50.586 C-2.926 45.921 -2.852 41.321 -2.875 36.625 C-2.871 35.819 -2.867 35.014 -2.863 34.184 C-2.873 28.254 -2.873 28.254 -4 26 C-3.765 23.883 -3.524 21.766 -3.254 19.652 C-2.894 15.888 -2.976 12.16 -3.062 8.383 C-3 6 -3 6 -2 3 C-1.34 3 -0.68 3 0 3 C0 2.01 0 1.02 0 0 Z " fill="#E1AC19" transform="translate(91,62)"/>
<path d="M0 0 C0.33 0 0.66 0 1 0 C1.026 0.892 1.052 1.784 1.078 2.703 C1.135 3.874 1.192 5.044 1.25 6.25 C1.296 7.41 1.343 8.57 1.391 9.766 C2.098 13.521 3.235 14.501 6 17 C6 17.99 6 18.98 6 20 C6.855 19.988 7.709 19.977 8.59 19.965 C9.695 19.956 10.799 19.947 11.938 19.938 C13.04 19.926 14.142 19.914 15.277 19.902 C18 20 18 20 19 21 C26.141 21.234 26.141 21.234 29.062 20.438 C32.091 19.754 34.951 20.564 38 21 C39.338 20.685 40.672 20.354 42 20 C42.763 20.165 43.526 20.33 44.312 20.5 C48.343 21.25 52.312 20.844 56 19 C58.008 19.281 60.01 19.611 62 20 C62 19.34 62 18.68 62 18 C63.311 16.645 64.647 15.313 66 14 C68.097 10.854 68.52 8.985 69.125 5.312 C69.293 4.319 69.46 3.325 69.633 2.301 C69.693 1.921 69.693 1.921 70 0 C70.33 0 70.66 0 71 0 C71.108 3.043 71.188 6.081 71.25 9.125 C71.284 9.981 71.317 10.837 71.352 11.719 C71.438 17.306 70.943 20.705 67 25 C61.377 28.806 55.792 28.451 49.25 28.434 C48.119 28.439 46.987 28.444 45.821 28.449 C43.434 28.456 41.047 28.455 38.66 28.446 C35.012 28.438 31.366 28.466 27.719 28.498 C25.396 28.5 23.073 28.499 20.75 28.496 C19.662 28.507 18.575 28.519 17.454 28.53 C11.332 28.474 7.628 28.149 3 24 C-0.487 19.014 -0.369 14.47 -0.188 8.625 C-0.174 7.794 -0.16 6.962 -0.146 6.105 C-0.111 4.07 -0.058 2.035 0 0 Z " fill="#DCA204" transform="translate(113,182)"/>
<path d="M0 0 C2.949 1.671 3.91 2.761 5.119 5.975 C6.36 10.734 6.264 15.452 6.227 20.342 C6.227 21.357 6.228 22.372 6.228 23.419 C6.227 26.757 6.211 30.095 6.195 33.434 C6.192 35.755 6.189 38.077 6.187 40.399 C6.179 46.496 6.159 52.594 6.137 58.691 C6.117 64.918 6.108 71.146 6.098 77.373 C6.076 89.582 6.042 101.791 6 114 C4.35 113.67 2.7 113.34 1 113 C1.003 112.708 1.003 112.708 1.016 111.228 C1.037 108.568 1.05 105.909 1.062 103.25 C1.067 102.79 1.067 102.79 1.088 100.461 C1.091 99.571 1.094 98.682 1.098 97.766 C1.1 97.357 1.1 97.357 1.114 95.29 C1.003 93.059 0.543 91.157 0 89 C0.083 88.639 0.083 88.639 0.5 86.812 C1.388 81.818 0.595 76.786 -1 72 C-1.295 70.592 -1.541 69.173 -1.75 67.75 C-1.869 67.023 -1.987 66.296 -2.109 65.547 C-2 63 -2 63 -0.531 60.152 C1.976 54.729 1.371 48.725 1.281 42.874 C1.25 40.807 1.24 38.741 1.234 36.674 C1.152 26.179 1.152 26.179 0 22 C0 17.831 0.384 13.69 0.732 9.537 C0.984 6.154 1.116 3.233 0 0 Z " fill="#E3B21A" transform="translate(164,58)"/>
<path d="M0 0 C1.054 -0.021 2.109 -0.041 3.195 -0.062 C4.211 -0.068 5.227 -0.073 6.273 -0.078 C7.203 -0.087 8.133 -0.097 9.091 -0.106 C12.05 0.31 13.417 1.289 15.625 3.25 C14.965 5.23 14.305 7.21 13.625 9.25 C13.46 8.92 13.46 8.92 12.625 7.25 C10.062 6.625 10.062 6.625 7.625 6.25 C7.295 6.91 6.965 7.57 6.625 8.25 C2.625 7.25 2.625 7.25 0.766 6.535 C-2.297 6.127 -3.437 7.313 -5.875 9.125 C-8.716 11.217 -10.877 12.63 -14.375 13.25 C-14.375 13.91 -14.375 14.57 -14.375 15.25 C-15.138 15.477 -15.901 15.704 -16.688 15.938 C-19.375 17.25 -19.375 17.25 -20.812 19.812 C-21.328 20.617 -21.844 21.421 -22.375 22.25 C-24.365 22.639 -26.367 22.969 -28.375 23.25 C-32.901 26.302 -35.918 29.088 -37.062 34.5 C-37.114 34.954 -37.114 34.954 -37.375 37.25 C-38.365 36.92 -39.355 36.59 -40.375 36.25 C-40.705 34.6 -41.035 32.95 -41.375 31.25 C-42.035 31.25 -42.695 31.25 -43.375 31.25 C-41.237 23.59 -36.865 19.576 -30.75 14.938 C-29.502 13.976 -28.255 13.013 -27.008 12.051 C-26.395 11.58 -25.781 11.109 -25.149 10.624 C-21.812 8.04 -18.543 5.37 -15.266 2.711 C-10.669 -0.841 -5.598 0.027 0 0 Z " fill="#FDE630" transform="translate(148.375,54.75)"/>
<path d="M0 0 C1.031 0.003 2.062 0.006 3.125 0.01 C4.205 0.018 5.285 0.027 6.398 0.035 C6.942 0.037 6.942 0.037 9.695 0.049 C12.388 0.061 15.081 0.077 17.773 0.098 C17.773 1.418 17.773 2.738 17.773 4.098 C18.433 4.098 19.093 4.098 19.773 4.098 C19.443 5.418 19.113 6.738 18.773 8.098 C18.052 7.891 17.33 7.685 16.586 7.473 C13.327 7.038 11.69 7.681 8.773 9.098 C8.113 8.438 7.453 7.778 6.773 7.098 C3.773 6.098 3.773 6.098 1.871 7.023 C1.535 7.252 1.535 7.252 -0.164 8.41 C-2.211 9.786 -4.167 11.068 -6.379 12.164 C-8.227 13.098 -8.227 13.098 -9.852 14.723 C-10.078 14.95 -10.078 14.95 -11.227 16.098 C-11.887 16.098 -12.547 16.098 -13.227 16.098 C-14.594 17.488 -14.594 17.488 -16.102 19.348 C-16.635 19.986 -17.169 20.624 -17.719 21.281 C-17.968 21.581 -17.968 21.581 -19.227 23.098 C-22.276 26.624 -24.72 27.869 -29.227 29.098 C-28.897 30.418 -28.567 31.738 -28.227 33.098 C-28.887 33.098 -29.547 33.098 -30.227 33.098 C-30.227 33.758 -30.227 34.418 -30.227 35.098 C-30.887 35.263 -30.887 35.263 -34.227 36.098 C-36.246 33.069 -37.06 31.682 -37.227 28.098 C-34.591 23.481 -31.375 20.167 -27.289 16.848 C-26.729 16.383 -26.168 15.919 -25.591 15.44 C-6.782 -0.037 -6.782 -0.037 0 0 Z " fill="#FDE72F" transform="translate(66.2265625,54.90234375)"/>
<path d="M0 0 C1.966 1.63 2.91 2.534 3.404 5.081 C3.436 7.659 3.458 10.234 3.438 12.812 C3.457 13.703 3.477 14.593 3.498 15.51 C3.494 21.132 2.964 24.693 -1 29 C-6.585 32.758 -12.041 32.451 -18.531 32.434 C-19.641 32.439 -20.75 32.444 -21.893 32.449 C-24.233 32.456 -26.573 32.455 -28.913 32.446 C-32.488 32.438 -36.062 32.466 -39.637 32.498 C-41.914 32.5 -44.191 32.499 -46.469 32.496 C-47.002 32.502 -47.002 32.502 -49.698 32.53 C-55.781 32.473 -59.384 32.087 -64 28 C-65.938 25.5 -65.938 25.5 -67 23 C-66.688 20.688 -66.688 20.688 -66 19 C-66 19.99 -66 20.98 -66 22 C-59.405 23.184 -52.716 24.217 -46 24 C-46 24.66 -46 25.32 -46 26 C-45.573 25.917 -45.573 25.917 -43.41 25.5 C-40.012 25.002 -36.867 24.935 -33.438 25 C-29.423 25.076 -25.918 24.838 -22 24 C-20.626 23.937 -19.25 23.913 -17.875 23.938 C-15.584 23.974 -13.292 24 -11 24 C-9.866 24.124 -8.731 24.248 -7.562 24.375 C-4 24 -4 24 -1.793 21.562 C0.494 17.018 0.457 13.618 0.25 8.625 C0.232 7.794 0.214 6.962 0.195 6.105 C0.149 4.07 0.077 2.035 0 0 Z " fill="#D9A102" transform="translate(105,178)"/>
<path d="M0 0 C4.75 0.875 4.75 0.875 7 2 C12.968 2.303 15.89 1.746 22 0 C22.33 21.45 22.66 42.9 23 65 C25.178 62.822 24.261 57.749 24.316 54.715 C24.337 53.784 24.358 52.853 24.379 51.894 C24.445 48.909 24.504 45.923 24.562 42.938 C24.606 40.919 24.649 38.9 24.693 36.881 C24.801 31.921 24.902 26.96 25 22 C25.33 22 25.66 22 26 22 C26.165 24.64 26.165 24.64 27 38 C27.495 38.165 27.495 38.165 30 39 C31.396 42.257 30.694 44.627 30 48 C29.741 49.892 29.512 51.788 29.312 53.688 C29.206 54.64 29.099 55.593 28.988 56.574 C29 59 29 59 31 61 C30.01 61.66 29.02 62.32 28 63 C27.305 64.91 27.305 64.91 26.875 67.062 C26.08 70.92 26.08 70.92 25 72 C23.526 72.208 22.045 72.367 20.562 72.5 C16.219 72.89 16.219 72.89 14 74 C12.988 75.659 11.987 77.326 11 79 C10.67 79 10.34 79 10 79 C10.591 71.909 10.591 71.909 12.125 68.5 C14 67 14 67 21 67 C21 49.84 21 32.68 21 15 C20.01 14.67 19.02 14.34 18 14 C17.752 13.361 17.505 12.721 17.25 12.062 C16 10 16 10 12.688 8.875 C11.471 8.586 10.254 8.297 9 8 C5.539 6.793 2.71 5.509 0 3 C0 2.01 0 1.02 0 0 Z " fill="#FDE426" transform="translate(32,106)"/>
<path d="M0 0 C0.66 0.33 1.32 0.66 2 1 C2 1.66 2 2.32 2 3 C7 5 7 5 22 6 C22 26.46 22 46.92 22 68 C23.98 68 25.96 68 28 68 C28 70.31 28 72.62 28 75 C27.34 75.165 27.34 75.165 24 76 C24 76.66 24 77.32 24 78 C23.526 78.031 23.526 78.031 21.125 78.188 C20.609 78.322 20.609 78.322 18 79 C16.875 81.5 16.875 81.5 16 84 C13.875 84.812 13.875 84.812 12 85 C12 86.65 12 88.3 12 90 C11.01 90 10.02 90 9 90 C8.946 87.917 8.907 85.834 8.875 83.75 C8.852 82.59 8.829 81.43 8.805 80.234 C9.063 75.957 10.006 73.994 13 71 C13 70.67 13 70.34 13 70 C15.64 70 18.28 70 21 70 C20.67 52.84 20.34 35.68 20 18 C18.35 17.67 16.7 17.34 15 17 C12.688 15.312 12.688 15.312 10 13 C8.627 12.018 7.252 11.039 5.875 10.062 C2.742 7.723 0.539 5.694 -1 2 C-0.67 1.34 -0.34 0.68 0 0 Z " fill="#F8DB32" transform="translate(108,103)"/>
<path d="M0 0 C0.66 0 1.32 0 2 0 C3.234 4.792 3.134 9.47 3.114 14.38 C3.114 15.317 3.114 16.254 3.114 17.22 C3.113 20.309 3.105 23.399 3.098 26.488 C3.096 28.633 3.094 30.779 3.093 32.924 C3.09 38.564 3.08 44.205 3.069 49.845 C3.058 55.603 3.054 61.361 3.049 67.119 C3.038 78.413 3.021 89.706 3 101 C1.68 100.67 0.36 100.34 -1 100 C-1.023 87.109 -1.041 74.219 -1.052 61.328 C-1.057 55.343 -1.064 49.358 -1.075 43.373 C-1.086 37.602 -1.092 31.832 -1.095 26.061 C-1.097 23.854 -1.1 21.647 -1.106 19.44 C-1.113 16.361 -1.114 13.281 -1.114 10.201 C-1.117 9.279 -1.121 8.357 -1.124 7.407 C-1.114 1.114 -1.114 1.114 0 0 Z " fill="#E2CD9E" transform="translate(171,72)"/>
<path d="M0 0 C0.33 0 0.66 0 1 0 C2.544 6.641 3.286 12.863 3.227 19.672 C3.227 20.581 3.228 21.489 3.228 22.426 C3.227 25.391 3.211 28.355 3.195 31.32 C3.192 33.391 3.189 35.462 3.187 37.533 C3.179 42.954 3.16 48.376 3.137 53.798 C3.117 59.342 3.108 64.886 3.098 70.43 C3.076 81.287 3.042 92.143 3 103 C1.68 102.67 0.36 102.34 -1 102 C-1.023 88.849 -1.041 75.697 -1.052 62.546 C-1.057 56.439 -1.064 50.333 -1.075 44.227 C-1.086 38.34 -1.092 32.453 -1.095 26.565 C-1.097 24.314 -1.1 22.062 -1.106 19.811 C-1.113 16.669 -1.114 13.527 -1.114 10.385 C-1.117 9.444 -1.121 8.503 -1.124 7.534 C-1.114 1.114 -1.114 1.114 0 0 Z " fill="#E3CE9C" transform="translate(95,70)"/>
<path d="M0 0 C0.33 0 0.66 0 1 0 C1.286 3.54 1.522 7.081 1.75 10.625 C1.831 11.624 1.912 12.623 1.996 13.652 C2.369 19.901 2.174 23.237 -2 28 C-2.309 28.382 -2.309 28.382 -3.875 30.312 C-8.535 34.013 -15.38 33.16 -21.09 33.168 C-21.953 33.171 -22.815 33.175 -23.704 33.178 C-25.522 33.183 -27.34 33.185 -29.158 33.185 C-31.925 33.187 -34.692 33.206 -37.459 33.225 C-39.232 33.228 -41.005 33.23 -42.777 33.23 C-43.597 33.238 -44.417 33.245 -45.262 33.252 C-50.221 33.233 -54.296 32.586 -59 31 C-59.33 29.68 -59.66 28.36 -60 27 C-59.387 26.994 -58.774 26.988 -58.142 26.982 C-51.75 26.918 -45.359 26.834 -38.967 26.738 C-36.583 26.704 -34.199 26.676 -31.815 26.654 C-28.384 26.62 -24.954 26.568 -21.523 26.512 C-20.461 26.505 -19.398 26.499 -18.303 26.492 C-12.815 26.384 -8.709 26.146 -4 23 C-0.293 18.74 -0.461 14.076 -0.312 8.688 C-0.278 7.852 -0.244 7.016 -0.209 6.154 C-0.127 4.103 -0.062 2.052 0 0 Z " fill="#D9C48F" transform="translate(184,183)"/>
<path d="M0 0 C0.33 0 0.66 0 1 0 C1.481 1.416 1.96 2.833 2.438 4.25 C2.571 4.644 2.571 4.644 3.246 6.641 C4 9 4 9 4.41 11.234 C4.507 11.526 4.507 11.526 5 13 C7.948 13.983 9.927 14.134 13 14.125 C13.433 14.126 13.433 14.126 15.625 14.133 C18 14 18 14 21 13 C21 12.34 21 11.68 21 11 C23.31 11 25.62 11 28 11 C27.975 11.714 27.95 12.428 27.924 13.163 C27.094 37.105 26.526 61.05 26 85 C25.67 85 25.34 85 25 85 C24.67 63.55 24.34 42.1 24 20 C22.02 20.66 20.04 21.32 18 22 C13.694 22.681 10.704 22.339 6.75 20.438 C2.558 16.721 0.224 13.679 -0.242 8.102 C-0.249 5.388 -0.176 2.707 0 0 Z " fill="#FCCD0A" transform="translate(29,87)"/>
<path d="M0 0 C0.99 0.33 1.98 0.66 3 1 C2.106 8.532 2.106 8.532 1.375 11.75 C1 14 1 14 1.508 15.73 C2.17 18.784 1.811 21.46 1.5 24.562 C0.89 30.67 0.89 30.67 2 34 C1.34 34 0.68 34 0 34 C0.33 37.3 0.66 40.6 1 44 C0.01 44.66 -0.98 45.32 -2 46 C-2.432 48.522 -2.432 48.522 -2.512 51.664 C-2.547 52.786 -2.583 53.907 -2.619 55.062 C-2.63 55.65 -2.63 55.65 -2.688 58.625 C-2.722 59.808 -2.756 60.992 -2.791 62.211 C-2.874 65.141 -2.943 68.07 -3 71 C-3.33 71.165 -3.33 71.165 -5 72 C-5.19 29.908 -5.19 29.908 -4.625 17.312 C-4.594 16.534 -4.563 15.755 -4.531 14.952 C-4.242 9.641 -3.902 3.902 0 0 Z " fill="#FDE021" transform="translate(60,99)"/>
<path d="M0 0 C0.66 0 1.32 0 2 0 C2 0.66 2 1.32 2 2 C2.99 2.33 3.98 2.66 5 3 C4.67 4.32 4.34 5.64 4 7 C3.34 6.34 2.68 5.68 2 5 C0.761 7.974 -0.301 10.853 -1 14 C0.65 13.67 2.3 13.34 4 13 C4 14.98 4 16.96 4 19 C4.66 19.33 5.32 19.66 6 20 C5.505 20.392 5.01 20.784 4.5 21.188 C2.544 23.551 2.758 25.014 3 28 C3.66 28.33 4.32 28.66 5 29 C4.34 29.66 3.68 30.32 3 31 C2.01 31 1.02 31 0 31 C-0.33 32.65 -0.66 34.3 -1 36 C-0.01 36.66 0.98 37.32 2 38 C1.34 38.165 1.34 38.165 -2 39 C-1.897 39.351 -1.897 39.351 -1.375 41.125 C-0.921 44.602 -1.725 46.774 -3 50 C-3.33 50 -3.66 50 -4 50 C-4.876 34.987 -5.128 20.037 -5 5 C-3.35 4.67 -1.7 4.34 0 4 C0 2.68 0 1.36 0 0 Z " fill="#FDE32A" transform="translate(138,97)"/>
<path d="M0 0 C2.418 0.672 2.418 0.672 5 2 C7.772 8.971 7.168 17.398 6.973 24.773 C7 28 7 28 7.527 31.098 C7.997 33.983 7.901 36.184 7.5 39.062 C7.137 41.67 6.926 43.656 7.482 46.238 C8.08 49.428 8.13 52.41 8.133 55.656 C8.133 56.291 8.133 56.291 8.137 59.504 C8.133 60.823 8.129 62.141 8.125 63.5 C8.129 64.819 8.133 66.137 8.137 67.496 C8.135 68.766 8.134 70.036 8.133 71.344 C8.132 72.501 8.131 73.658 8.129 74.85 C8.013 77.689 7.651 80.24 7 83 C7.66 83 8.32 83 9 83 C8.836 84.134 8.673 85.269 8.504 86.438 C7.937 90.974 7.886 95.434 7.938 100 C7.94 100.387 7.94 100.387 7.951 102.348 C7.963 104.232 7.981 106.116 8 108 C7.01 107.67 6.02 107.34 5 107 C4.992 105.855 4.984 104.71 4.975 103.53 C4.898 92.716 4.81 81.903 4.712 71.089 C4.663 65.53 4.616 59.972 4.578 54.413 C4.541 49.044 4.495 43.675 4.442 38.307 C4.423 36.263 4.408 34.219 4.397 32.175 C4.38 29.303 4.351 26.431 4.319 23.559 C4.317 22.722 4.315 21.884 4.312 21.022 C4.218 14.31 3.792 7.688 0 2 C0 1.34 0 0.68 0 0 Z " fill="#F3E4BE" transform="translate(93,66)"/>
<path d="M0 0 C2.31 0 4.62 0 7 0 C6.966 0.423 6.966 0.423 6.792 2.561 C6.133 11.14 5.802 19.669 5.684 28.273 C5.663 29.563 5.642 30.853 5.621 32.182 C5.566 35.558 5.516 38.935 5.468 42.311 C5.417 45.778 5.362 49.244 5.307 52.711 C5.2 59.474 5.098 66.237 5 73 C4.67 73 4.34 73 4 73 C3.67 52.87 3.34 32.74 3 12 C0.69 11.835 0.69 11.835 -11 11 C-16.625 7.625 -16.625 7.625 -18 3 C-16.845 2.835 -16.845 2.835 -11 2 C-11 2.66 -11 3.32 -11 4 C-10.113 3.67 -9.226 3.34 -8.312 3 C-5.291 2.088 -3.116 1.817 0 2 C0 1.34 0 0.68 0 0 Z " fill="#FBCF06" transform="translate(126,98)"/>
<path d="M0 0 C0.33 0 0.66 0 1 0 C3.034 18.667 3.034 18.667 -1.676 25.469 C-4.067 28.234 -5.399 29.389 -9 30 C-11.056 30.093 -13.114 30.131 -15.172 30.133 C-15.779 30.134 -15.779 30.134 -18.854 30.139 C-20.14 30.134 -21.425 30.13 -22.75 30.125 C-24.056 30.122 -25.361 30.118 -26.707 30.115 C-53.055 29.974 -53.055 29.974 -58 27 C-58 26.67 -58 26.34 -58 26 C-57.412 25.994 -56.824 25.988 -56.218 25.982 C-50.086 25.918 -43.954 25.834 -37.822 25.738 C-35.535 25.704 -33.248 25.676 -30.96 25.654 C-27.669 25.62 -24.377 25.568 -21.086 25.512 C-20.067 25.505 -19.048 25.499 -17.998 25.492 C-12.606 25.381 -8.638 25.067 -4 22 C-0.416 17.819 -0.467 13.452 -0.312 8.188 C-0.278 7.399 -0.244 6.611 -0.209 5.799 C-0.127 3.866 -0.062 1.933 0 0 Z " fill="#CDB276" transform="translate(108,184)"/>
<path d="M0 0 C0.33 0 0.66 0 1 0 C1.108 3.043 1.188 6.081 1.25 9.125 C1.284 9.981 1.317 10.837 1.352 11.719 C1.438 17.306 0.943 20.705 -3 25 C-8.623 28.806 -14.208 28.451 -20.75 28.434 C-21.881 28.439 -23.013 28.444 -24.179 28.449 C-26.566 28.456 -28.953 28.455 -31.34 28.446 C-34.988 28.438 -38.634 28.466 -42.281 28.498 C-44.604 28.5 -46.927 28.499 -49.25 28.496 C-50.338 28.507 -51.425 28.519 -52.546 28.53 C-58.667 28.474 -62.361 28.132 -67 24 C-68.438 21.938 -68.438 21.938 -69 20 C-68.67 19.01 -68.34 18.02 -68 17 C-67.567 17.949 -67.134 18.898 -66.688 19.875 C-65 23 -65 23 -62 25 C-60.012 25.281 -60.012 25.281 -57.719 25.322 C-57.288 25.332 -57.288 25.332 -55.107 25.38 C-54.176 25.389 -53.245 25.397 -52.285 25.406 C-51.319 25.418 -50.353 25.429 -49.358 25.441 C-47.307 25.46 -45.257 25.473 -43.207 25.48 C-40.105 25.5 -37.006 25.562 -33.904 25.625 C-13.362 25.845 -13.362 25.845 -5 19 C-3.171 16.352 -2.521 14.161 -2 11 C-1.803 10.024 -1.606 9.048 -1.402 8.043 C-0.884 5.367 -0.421 2.692 0 0 Z " fill="#B07D0C" transform="translate(183,182)"/>
<path d="M0 0 C1.087 0.12 2.173 0.24 3.293 0.363 C4.124 0.47 4.956 0.577 5.812 0.688 C4.146 2.021 2.479 3.354 0.812 4.688 C-0.054 5.43 -0.92 6.172 -1.812 6.938 C-4.188 8.688 -4.188 8.688 -7.188 8.688 C-7.188 9.347 -7.188 10.007 -7.188 10.688 C-7.951 10.914 -8.714 11.141 -9.5 11.375 C-12.188 12.688 -12.188 12.688 -13.625 15.25 C-14.141 16.054 -14.656 16.859 -15.188 17.688 C-17.177 18.077 -19.179 18.406 -21.188 18.688 C-23.948 20.549 -25.879 22.277 -27.875 24.938 C-28.308 25.515 -28.741 26.093 -29.188 26.688 C-29.847 26.688 -30.507 26.688 -31.188 26.688 C-31.188 19.777 -31.188 19.777 -28.797 17.172 C-26.642 15.597 -24.418 14.153 -22.188 12.688 C-19.89 10.992 -17.633 9.247 -15.375 7.5 C-14.812 7.072 -14.249 6.643 -13.669 6.202 C-9.374 2.914 -9.374 2.914 -7.688 0.867 C-5.233 -1.063 -2.997 -0.355 0 0 Z " fill="#FDE632" transform="translate(141.1875,59.3125)"/>
<path d="M0 0 C1.895 0.273 1.895 0.273 4 1 C9.001 11.742 8.06 24.224 8.055 35.836 C8.055 36.355 8.055 36.355 8.054 38.98 C8.024 52.514 7.682 66.044 7.352 79.573 C7.27 82.977 7.195 86.381 7.121 89.785 C7.094 90.811 7.067 91.837 7.039 92.894 C6.931 98.068 7.076 102.905 8 108 C7.01 107.67 6.02 107.34 5 107 C4.67 73.67 4.34 40.34 4 6 C3.01 6.33 2.02 6.66 1 7 C0.67 4.69 0.34 2.38 0 0 Z " fill="#F5E6C1" transform="translate(169,66)"/>
<path d="M0 0 C0.99 0 1.98 0 3 0 C3 1.65 3 3.3 3 5 C3.66 5 4.32 5 5 5 C7.817 10.633 8.048 20.733 6.125 26.727 C4.899 28.711 3.609 30.316 2 32 C1.278 32.949 0.556 33.898 -0.188 34.875 C-7.184 40.162 -17.642 39.42 -26.062 39.688 C-26.622 39.711 -26.622 39.711 -29.455 39.83 C-35.775 40.056 -41.734 39.828 -48 39 C-48.949 39.041 -49.898 39.083 -50.875 39.125 C-53.616 38.964 -54.198 37.966 -56 36 C-54.745 36.016 -53.489 36.031 -52.196 36.048 C-47.505 36.102 -42.814 36.136 -38.123 36.165 C-36.099 36.18 -34.075 36.2 -32.051 36.226 C-29.129 36.263 -26.207 36.28 -23.285 36.293 C-22.838 36.301 -22.838 36.301 -20.576 36.34 C-13.63 36.342 -7.699 34.992 -1.562 31.688 C0.582 29.371 1.167 27.011 2 24 C2.33 23.34 2.66 22.68 3 22 C3.353 14.701 3.353 14.701 2.027 12.07 C0.79 9.576 0.593 7.517 0.375 4.75 C0.3 3.858 0.225 2.966 0.148 2.047 C0.099 1.371 0.05 0.696 0 0 Z " fill="#F1E2BD" transform="translate(184,182)"/>
<path d="M0 0 C4.75 0.875 4.75 0.875 7 2 C12.968 2.303 15.89 1.746 22 0 C22 21.78 22 43.56 22 66 C21.67 66 21.34 66 21 66 C21 49.17 21 32.34 21 15 C20.01 14.67 19.02 14.34 18 14 C17.752 13.361 17.505 12.721 17.25 12.062 C16 10 16 10 12.688 8.875 C11.471 8.586 10.254 8.297 9 8 C5.539 6.793 2.71 5.509 0 3 C0 2.01 0 1.02 0 0 Z " fill="#E7D5A5" transform="translate(32,106)"/>
<path d="M0 0 C-2.167 2.275 -4.396 4.236 -7 6 C-7.66 6 -8.32 6 -9 6 C-10.367 7.391 -10.367 7.391 -11.875 9.25 C-12.409 9.888 -12.942 10.526 -13.492 11.184 C-13.99 11.783 -14.487 12.382 -15 13 C-18.05 16.526 -20.493 17.771 -25 19 C-24.67 20.32 -24.34 21.64 -24 23 C-24.66 23 -25.32 23 -26 23 C-26 23.66 -26 24.32 -26 25 C-27.32 25.33 -28.64 25.66 -30 26 C-32.019 22.971 -32.833 21.584 -33 18 C-30.225 12.449 -25.743 8.891 -21 5 C-20.34 5.33 -19.68 5.66 -19 6 C-19.505 6.471 -20.011 6.941 -20.531 7.426 C-21.181 8.048 -21.831 8.671 -22.5 9.312 C-23.15 9.927 -23.799 10.542 -24.469 11.176 C-26 13 -26 13 -26 16 C-25.312 15.294 -24.623 14.587 -23.914 13.859 C-20.874 10.821 -17.653 8.027 -14.375 5.25 C-13.803 4.756 -13.23 4.263 -12.641 3.754 C-8.109 -0.093 -5.821 -1.416 0 0 Z " fill="#FDE530" transform="translate(62,65)"/>
<path d="M0 0 C0.812 1.625 0.812 1.625 1 4 C-1.955 8.346 -3.907 10.45 -9 12 C-12.446 12.273 -15.878 12.233 -19.332 12.195 C-19.828 12.194 -19.828 12.194 -22.337 12.187 C-25.496 12.176 -28.654 12.15 -31.812 12.125 C-33.958 12.115 -36.103 12.106 -38.248 12.098 C-43.499 12.076 -48.749 12.042 -54 12 C-54 11.34 -54 10.68 -54 10 C-55.32 9.67 -56.64 9.34 -58 9 C-57.399 8.994 -56.799 8.988 -56.18 8.982 C-49.918 8.918 -43.656 8.834 -37.395 8.738 C-35.059 8.704 -32.723 8.676 -30.388 8.654 C-27.026 8.62 -23.666 8.568 -20.305 8.512 C-19.784 8.509 -19.784 8.509 -17.151 8.492 C-11.729 8.383 -7.634 8.145 -3 5 C-1.125 2.312 -1.125 2.312 0 0 Z " fill="#C3A769" transform="translate(183,201)"/>
<path d="M0 0 C0.33 0 0.66 0 1 0 C1.026 0.892 1.052 1.784 1.078 2.703 C1.135 3.874 1.192 5.044 1.25 6.25 C1.296 7.41 1.343 8.57 1.391 9.766 C2.098 13.521 3.235 14.501 6 17 C6 17.99 6 18.98 6 20 C6.855 19.988 7.709 19.977 8.59 19.965 C9.695 19.956 10.799 19.947 11.938 19.938 C13.04 19.926 14.142 19.914 15.277 19.902 C18 20 18 20 19 21 C26.141 21.234 26.141 21.234 29.062 20.438 C32.091 19.754 34.951 20.564 38 21 C39.338 20.685 40.672 20.354 42 20 C42.763 20.165 43.526 20.33 44.312 20.5 C48.343 21.25 52.312 20.844 56 19 C58.008 19.281 60.01 19.611 62 20 C62 19.34 62 18.68 62 18 C63.29 16.624 64.627 15.292 66 14 C66.66 13.34 67.32 12.68 68 12 C67.819 15.984 67.477 17.558 64.5 20.312 C57.64 23.62 49.721 23.173 42.215 23.238 C41.765 23.242 41.765 23.242 39.486 23.263 C37.596 23.276 35.706 23.287 33.816 23.295 C31.895 23.307 29.974 23.327 28.053 23.357 C25.253 23.399 22.453 23.416 19.652 23.426 C18.803 23.443 17.954 23.461 17.079 23.479 C11.123 23.457 7.091 22.036 2 19 C1.34 18.67 0.68 18.34 0 18 C0 12.06 0 6.12 0 0 Z " fill="#EEB902" transform="translate(113,182)"/>
<path d="M0 0 C0.66 0.33 1.32 0.66 2 1 C-2.315 6.795 -2.315 6.795 -5.5 7.75 C-6.325 7.833 -7.15 7.915 -8 8 C-8.825 8.371 -9.65 8.743 -10.5 9.125 C-13.542 10.19 -14.862 9.628 -18 9 C-20.375 8.931 -22.753 8.915 -25.129 8.938 C-25.465 8.939 -25.465 8.939 -27.164 8.949 C-29.297 8.961 -31.43 8.98 -33.562 9 C-36.376 9.027 -39.19 9.047 -42.004 9.062 C-43.25 9.074 -44.496 9.086 -45.78 9.098 C-48.415 9.018 -50.507 8.791 -53 8 C-53 7.34 -53 6.68 -53 6 C-53.66 6 -54.32 6 -55 6 C-55 5.34 -55 4.68 -55 4 C-54.394 4.071 -53.787 4.141 -53.163 4.214 C-45.415 5.026 -37.717 5.154 -29.938 5.13 C-27.805 5.125 -25.673 5.13 -23.541 5.137 C-16.954 5.14 -10.511 5.064 -4 4 C-4 3.34 -4 2.68 -4 2 C-2.125 0.938 -2.125 0.938 0 0 Z " fill="#EDDDB5" transform="translate(108,212)"/>
<path d="M0 0 C0.66 0.33 1.32 0.66 2 1 C2 1.66 2 2.32 2 3 C5.617 4.624 8.677 5.307 12.625 5.562 C15.709 5.77 18.052 6.017 21 7 C21.027 8.458 21.046 9.917 21.062 11.375 C21.074 12.187 21.086 12.999 21.098 13.836 C21 16 21 16 20 18 C15.508 17.487 13.391 15.918 10 13 C8.627 12.018 7.252 11.039 5.875 10.062 C2.742 7.723 0.539 5.694 -1 2 C-0.67 1.34 -0.34 0.68 0 0 Z " fill="#E6D3A2" transform="translate(108,103)"/>
<path d="M0 0 C0.66 0.33 1.32 0.66 2 1 C1.67 26.41 1.34 51.82 1 78 C0.34 78 -0.32 78 -1 78 C-1 77.34 -1 76.68 -1 76 C-1.66 76 -2.32 76 -3 76 C-2 71 -2 71 -1.375 68.562 C-1 66 -1 66 -1.562 63.25 C-2.152 58.868 -1.136 55.226 0 51 C-0.66 51 -1.32 51 -2 51 C-1.838 49.873 -1.675 48.747 -1.508 47.586 C-0.926 42.921 -0.852 38.321 -0.875 33.625 C-0.871 32.819 -0.867 32.014 -0.863 31.184 C-0.873 25.254 -0.873 25.254 -2 23 C-1.765 20.883 -1.524 18.766 -1.254 16.652 C-0.894 12.888 -0.976 9.16 -1.062 5.383 C-1 3 -1 3 0 0 Z " fill="#FAD004" transform="translate(89,65)"/>
<path d="M0 0 C0.33 0 0.66 0 1 0 C0.588 5.254 -0.177 8.283 -4 12 C-7.487 13.682 -10.3 14.257 -14.154 14.291 C-14.655 14.297 -14.655 14.297 -17.188 14.329 C-17.724 14.33 -17.724 14.33 -20.434 14.336 C-21.544 14.343 -22.655 14.349 -23.799 14.356 C-26.145 14.366 -28.491 14.371 -30.837 14.371 C-34.421 14.375 -38.004 14.411 -41.588 14.449 C-43.87 14.455 -46.152 14.459 -48.434 14.461 C-48.968 14.468 -48.968 14.468 -51.673 14.504 C-57.7 14.468 -61.476 14.164 -66 10 C-66 9.34 -66 8.68 -66 8 C-62.125 9.875 -62.125 9.875 -61 11 C-59.339 11.12 -57.674 11.17 -56.009 11.193 C-55.476 11.201 -55.476 11.201 -52.782 11.242 C-47.897 11.286 -43.013 11.327 -38.128 11.35 C-35.55 11.367 -32.972 11.394 -30.394 11.432 C-26.684 11.487 -22.976 11.509 -19.266 11.523 C-18.69 11.535 -18.69 11.535 -15.774 11.592 C-7.782 11.571 -7.782 11.571 -3.815 8.674 C-1.89 5.838 -0.848 3.313 0 0 Z " fill="#A1720C" transform="translate(107,196)"/>
<path d="M0 0 C0.33 0.99 0.66 1.98 1 3 C7.595 4.184 14.284 5.217 21 5 C21 5.66 21 6.32 21 7 C21.855 6.835 22.709 6.67 23.59 6.5 C26.988 6.002 30.133 5.935 33.562 6 C37.577 6.076 41.082 5.838 45 5 C46.374 4.937 47.75 4.913 49.125 4.938 C51.416 4.974 53.708 5 56 5 C58.187 6 58.187 6 60 7 C59 8 59 8 56.964 8.12 C56.069 8.118 55.174 8.116 54.252 8.114 C53.241 8.113 52.23 8.113 51.188 8.113 C50.637 8.111 50.637 8.111 47.852 8.098 C46.728 8.096 45.605 8.095 44.447 8.093 C40.84 8.088 37.232 8.075 33.625 8.062 C31.198 8.057 28.771 8.053 26.344 8.049 C20.993 8.039 15.641 8.025 10.29 8.007 C8.527 8.002 6.763 8 5 8 C2.875 7.375 2.875 7.375 1 6 C0.25 2.875 0.25 2.875 0 0 Z " fill="#EDB801" transform="translate(38,197)"/>
<path d="M0 0 C0.33 1.32 0.66 2.64 1 4 C1.664 3.856 2.328 3.711 3.012 3.562 C3.895 3.377 4.778 3.191 5.688 3 C6.558 2.814 7.428 2.629 8.324 2.438 C10.937 2.01 13.358 1.924 16 2 C16 4.31 16 6.62 16 9 C10.141 10.82 3.555 10.043 -2.062 7.75 C-4.347 5.687 -5.13 3.927 -6 1 C-4.02 0.67 -2.04 0.34 0 0 Z " fill="#DBA107" transform="translate(114,100)"/>
<path d="M0 0 C4.644 0.995 7.307 1.961 10 6 C12.62 6.873 14.486 7.202 17.196 7.389 C17.616 7.419 17.616 7.419 19.743 7.571 C20.647 7.631 21.55 7.692 22.48 7.754 C23.408 7.819 24.336 7.884 25.293 7.951 C28.257 8.159 31.222 8.361 34.188 8.562 C36.197 8.702 38.207 8.842 40.217 8.982 C45.144 9.326 50.072 9.664 55 10 C55 10.33 55 10.66 55 11 C50.699 11.05 46.398 11.086 42.097 11.11 C40.641 11.12 39.184 11.133 37.728 11.151 C10.139 11.475 10.139 11.475 2 5 C0.562 2.25 0.562 2.25 0 0 Z " fill="#E4D2A3" transform="translate(41,207)"/>
<path d="M0 0 C1.052 0.103 2.104 0.206 3.188 0.312 C0.814 3.061 -1.476 3.995 -4.812 5.312 C-5.142 5.972 -5.472 6.632 -5.812 7.312 C-6.782 7.828 -7.751 8.344 -8.75 8.875 C-13.348 11.365 -16.905 14.904 -20.676 18.484 C-22.812 20.312 -22.812 20.312 -24.812 20.312 C-25.101 20.931 -25.39 21.55 -25.688 22.188 C-26.812 24.312 -26.812 24.312 -28.812 26.312 C-28.7 21.709 -27.465 19.655 -24.25 16.562 C-23.609 15.99 -22.969 15.418 -22.309 14.828 C-20.812 13.312 -20.812 13.312 -20.812 11.312 C-20.256 11.271 -20.256 11.271 -17.438 11.062 C-16.241 10.815 -15.045 10.567 -13.812 10.312 C-12.562 8.312 -12.562 8.312 -11.812 6.312 C-10.823 5.983 -9.832 5.653 -8.812 5.312 C-8.07 4.467 -7.328 3.621 -6.562 2.75 C-3.812 0.312 -3.812 0.312 0 0 Z " fill="#FEEF5A" transform="translate(62.8125,57.6875)"/>
<path d="M0 0 C0.33 0 0.66 0 1 0 C1.286 3.54 1.522 7.081 1.75 10.625 C1.831 11.624 1.912 12.623 1.996 13.652 C2.276 18.35 2.377 21.234 0.266 25.523 C-4.538 30.775 -4.538 30.775 -8.341 31.361 C-9.203 31.354 -10.064 31.347 -10.952 31.341 C-11.933 31.34 -12.914 31.34 -13.924 31.34 C-14.975 31.324 -16.026 31.309 -17.109 31.293 C-18.191 31.289 -19.273 31.284 -20.388 31.28 C-23.842 31.263 -27.296 31.226 -30.75 31.188 C-33.092 31.172 -35.435 31.159 -37.777 31.146 C-43.518 31.113 -49.259 31.063 -55 31 C-55 30.67 -55 30.34 -55 30 C-54.447 29.99 -53.895 29.979 -53.325 29.969 C-47.566 29.86 -41.807 29.746 -36.049 29.628 C-33.9 29.584 -31.752 29.543 -29.603 29.503 C-26.513 29.445 -23.422 29.381 -20.332 29.316 C-19.374 29.3 -18.415 29.283 -17.427 29.266 C-16.527 29.246 -15.626 29.226 -14.698 29.205 C-13.91 29.19 -13.122 29.174 -12.31 29.158 C-9.781 28.985 -7.451 28.654 -5 28 C-3.812 26.062 -3.812 26.062 -3 24 C-2.34 23.34 -1.68 22.68 -1 22 C-0.681 19.753 -0.681 19.753 -0.586 16.992 C-0.547 16.006 -0.509 15.02 -0.469 14.004 C-0.438 12.971 -0.407 11.939 -0.375 10.875 C-0.336 9.835 -0.298 8.794 -0.258 7.723 C-0.163 5.149 -0.078 2.575 0 0 Z " fill="#D2B981" transform="translate(184,183)"/>
<path d="M0 0 C0.552 0.49 1.103 0.98 1.672 1.484 C4.468 3.305 5.947 3.344 9.25 3.25 C10.21 3.224 11.171 3.198 12.16 3.172 C15.814 2.951 19.381 2.546 23 2 C22.67 3.65 22.34 5.3 22 7 C17.288 8.885 13.024 9.811 8 9 C4.298 7.149 2.482 5.965 0.625 2.25 C0.419 1.507 0.212 0.765 0 0 Z " fill="#D9A00F" transform="translate(31,100)"/>
<path d="M0 0 C0 21.78 0 43.56 0 66 C-0.33 66 -0.66 66 -1 66 C-1 46.2 -1 26.4 -1 6 C-3.31 5.67 -5.62 5.34 -8 5 C-9.669 4.68 -11.337 4.353 -13 4 C-13 3.67 -13 3.34 -13 3 C-11.021 2.499 -9.042 1.999 -7.062 1.5 C-5.96 1.222 -4.858 0.943 -3.723 0.656 C-1 0 -1 0 0 0 Z " fill="#EDC85C" transform="translate(54,106)"/>
<path d="M0 0 C0.33 0 0.66 0 1 0 C1 8.91 1 17.82 1 27 C-0.32 27 -1.64 27 -3 27 C-3 24.36 -3 21.72 -3 19 C-4.32 18.67 -5.64 18.34 -7 18 C-6.01 17.34 -5.02 16.68 -4 16 C-3.312 13.875 -3.312 13.875 -3 12 C-3.66 11.67 -4.32 11.34 -5 11 C-4.361 10.299 -3.721 9.597 -3.062 8.875 C-0.836 5.772 -0.349 3.754 0 0 Z " fill="#FDD808" transform="translate(165,86)"/>
<path d="M0 0 C1.961 1.012 1.961 1.012 4 3 C4.409 5.717 4.605 8.093 4.625 10.812 C4.718 15.872 5.13 20.236 7 25 C6.01 25.33 5.02 25.66 4 26 C2.628 27.294 1.288 28.623 0 30 C0.082 29.433 0.082 29.433 0.5 26.562 C1.076 22.029 1.095 17.563 1 13 C0.67 13 0.34 13 0 13 C-0.195 11.209 -0.381 9.417 -0.562 7.625 C-0.667 6.627 -0.771 5.63 -0.879 4.602 C-1 2 -1 2 0 0 Z " fill="#E8D7A4" transform="translate(109,181)"/>
<path d="M0 0 C2.53 2.227 2.964 2.733 3.434 6.258 C3.442 14.9 3.207 22.372 -2.875 29.062 C-5.674 30.297 -7.977 30.206 -11 30 C-11.33 29.01 -11.66 28.02 -12 27 C-10.047 26.414 -8.094 25.828 -6.141 25.242 C-2.875 23.347 -1.697 21.365 0 18 C0.454 14.852 0.382 11.797 0.25 8.625 C0.241 8.209 0.241 8.209 0.195 6.105 C0.149 4.07 0.077 2.035 0 0 Z " fill="#DEA40C" transform="translate(105,178)"/>
<path d="M0 0 C0.33 0 0.66 0 1 0 C1.01 0.924 1.021 1.848 1.031 2.8 C1.129 11.525 1.232 20.249 1.339 28.974 C1.394 33.459 1.448 37.943 1.497 42.428 C1.545 46.76 1.598 51.091 1.653 55.422 C1.673 57.072 1.692 58.721 1.709 60.37 C1.733 62.687 1.763 65.004 1.795 67.321 C1.81 68.637 1.826 69.954 1.842 71.311 C1.998 74.961 2.419 78.398 3 82 C2.01 81.67 1.02 81.34 0 81 C0 54.27 0 27.54 0 0 Z " fill="#F1E0B7" transform="translate(174,92)"/>
<path d="M0 0 C6.103 0.891 10.094 1.834 14 7 C14 7.99 14 8.98 14 10 C12.35 8.35 10.7 6.7 9 5 C8.67 5.495 8.67 5.495 7 8 C4.398 8.512 4.398 8.512 1.375 8.688 C0.874 8.72 0.874 8.72 -1.664 8.887 C-2.435 8.924 -3.206 8.961 -4 9 C-4 5 -4 5 -3 3 C-2.01 2.34 -1.02 1.68 0 1 C0 0.67 0 0.34 0 0 Z " fill="#FDE527" transform="translate(169,172)"/>
<path d="M0 0 C0.33 0 0.66 0 1 0 C1.498 13.263 1.498 13.263 -1 19 C-3.625 20.562 -3.625 20.562 -6 21 C-6 21.66 -6 22.32 -6 23 C-9.059 24.02 -11.124 24.115 -14.324 24.098 C-15.352 24.094 -16.38 24.091 -17.439 24.088 C-18.511 24.08 -19.583 24.071 -20.688 24.062 C-21.771 24.058 -22.854 24.053 -23.971 24.049 C-26.647 24.037 -29.324 24.021 -32 24 C-32 23.67 -32 23.34 -32 23 C-30.854 22.939 -29.708 22.879 -28.527 22.816 C-26.997 22.732 -25.467 22.647 -23.938 22.562 C-23.185 22.523 -22.433 22.484 -21.658 22.443 C-19.437 22.318 -17.219 22.162 -15 22 C-14.365 21.961 -14.365 21.961 -11.152 21.762 C-8 21 -8 21 -6.039 18.891 C-5.806 18.455 -5.806 18.455 -4.625 16.25 C-4.143 15.389 -3.661 14.528 -3.164 13.641 C-1.613 10.123 -1 7.083 -1 3.25 C-1 1 -1 1 0 0 Z " fill="#E1CF9F" transform="translate(110,193)"/>
<path d="M0 0 C0.33 0 0.66 0 1 0 C1.481 1.416 1.96 2.833 2.438 4.25 C2.571 4.644 2.571 4.644 3.246 6.641 C4 9 4 9 4.41 11.234 C4.507 11.526 4.507 11.526 5 13 C7.979 13.993 10.016 14.134 13.125 14.125 C14.014 14.128 14.904 14.13 15.82 14.133 C18 14 18 14 19 13 C22 12.875 22 12.875 25 13 C26 14 26 14 26.062 17.062 C26.042 18.032 26.021 19.001 26 20 C25.67 20 25.34 20 25 20 C25 18.35 25 16.7 25 15 C24.464 15.165 24.464 15.165 21.75 16 C16.19 17.348 10.676 17.888 5 17 C1.073 14.205 1.073 14.205 0 11 C-0.371 7.291 -0.297 3.712 0 0 Z " fill="#EFBB0B" transform="translate(29,87)"/>
<path d="M0 0 C0.33 0 0.66 0 1 0 C3.034 18.667 3.034 18.667 -1.676 25.469 C-4.07 28.238 -5.391 29.401 -9 30 C-11.244 30.082 -13.489 30.108 -15.734 30.098 C-17.03 30.094 -18.325 30.091 -19.66 30.088 C-21.023 30.08 -22.387 30.071 -23.75 30.062 C-25.129 30.057 -26.508 30.053 -27.887 30.049 C-31.258 30.037 -34.629 30.021 -38 30 C-38 29.67 -38 29.34 -38 29 C-37.178 28.98 -36.356 28.96 -35.509 28.94 C-31.777 28.845 -28.045 28.735 -24.312 28.625 C-23.019 28.594 -21.725 28.563 -20.393 28.531 C-19.769 28.512 -19.769 28.512 -16.613 28.414 C-15.466 28.383 -14.32 28.351 -13.138 28.319 C-9.991 27.999 -7.776 27.508 -5 26 C-3.25 22.5 -3.25 22.5 -2 19 C-1.67 18.34 -1.34 17.68 -1 17 C-0.767 14.121 -0.58 11.259 -0.438 8.375 C-0.416 7.974 -0.416 7.974 -0.307 5.945 C-0.2 3.964 -0.1 1.982 0 0 Z " fill="#D1B980" transform="translate(108,184)"/>
<path d="M0 0 C1.079 0.046 2.158 0.093 3.27 0.141 C4.356 0.177 5.443 0.213 6.562 0.25 C7.394 0.296 8.225 0.343 9.082 0.391 C8.752 2.041 8.422 3.691 8.082 5.391 C7.769 5.421 7.769 5.421 6.184 5.574 C5.366 5.658 4.549 5.742 3.707 5.828 C2.895 5.909 2.083 5.991 1.246 6.074 C-0.918 6.391 -0.918 6.391 -2.918 7.391 C-3.93 9.05 -4.931 10.716 -5.918 12.391 C-6.248 12.391 -6.578 12.391 -6.918 12.391 C-5.952 0.797 -5.952 0.797 0 0 Z " fill="#FDEA4C" transform="translate(48.91796875,172.609375)"/>
<path d="M0 0 C2.188 0.312 2.188 0.312 4 1 C2.969 1.763 1.938 2.526 0.875 3.312 C-1.967 5.435 -4.769 7.602 -7.543 9.812 C-8.163 10.306 -8.784 10.799 -9.423 11.307 C-10.673 12.303 -11.919 13.301 -13.163 14.304 C-15.761 16.372 -17.823 17.941 -21 19 C-21.717 20.982 -22.383 22.984 -23 25 C-23.66 25.66 -24.32 26.32 -25 27 C-25 20.09 -25 20.09 -22.609 17.484 C-20.455 15.909 -18.231 14.466 -16 13 C-13.703 11.305 -11.446 9.559 -9.188 7.812 C-8.625 7.384 -8.062 6.956 -7.481 6.514 C-5.277 4.827 -3.2 3.228 -1.363 1.137 C-0.913 0.762 -0.464 0.386 0 0 Z " fill="#FDED5F" transform="translate(135,59)"/>
<path d="M0 0 C0.273 0.159 0.273 0.159 1.652 0.965 C4.379 2.167 6.595 2.373 9.562 2.562 C12.666 2.769 15.034 3.011 18 4 C18 5.65 18 7.3 18 9 C16.541 8.859 15.083 8.712 13.625 8.562 C13.219 8.522 13.219 8.522 11.164 8.316 C9 8 9 8 7 7 C7 6.34 7 5.68 7 5 C6.01 4.835 6.01 4.835 1 4 C0.67 2.68 0.34 1.36 0 0 Z " fill="#DCC58E" transform="translate(111,106)"/>
<path d="M0 0 C0.409 0.005 0.409 0.005 2.477 0.027 C2.79 0.033 2.79 0.033 4.375 0.062 C4.705 1.053 5.035 2.042 5.375 3.062 C1.68 4.013 -0.93 4.013 -4.625 3.062 C-5.285 5.042 -5.945 7.023 -6.625 9.062 C-7.285 9.062 -7.945 9.062 -8.625 9.062 C-8.625 10.382 -8.625 11.702 -8.625 13.062 C-9.615 12.732 -10.605 12.403 -11.625 12.062 C-11.625 8.433 -11.625 4.803 -11.625 1.062 C-11.295 1.227 -11.295 1.227 -9.625 2.062 C-9.625 3.382 -9.625 4.702 -9.625 6.062 C-9.171 5.258 -8.718 4.454 -8.25 3.625 C-5.854 -0.153 -4.237 -0.061 0 0 Z " fill="#FDE327" transform="translate(52.625,177.9375)"/>
<path d="M0 0 C0.165 0.495 0.165 0.495 1 3 C-1 5 -1 5 -3.139 5.203 C-3.581 5.191 -3.581 5.191 -5.817 5.135 C-6.818 5.115 -7.819 5.095 -8.85 5.074 C-9.933 5.042 -11.017 5.01 -12.133 4.977 C-13.24 4.952 -14.347 4.927 -15.487 4.901 C-19.033 4.818 -22.579 4.722 -26.125 4.625 C-28.525 4.567 -30.924 4.509 -33.324 4.453 C-39.216 4.313 -45.108 4.161 -51 4 C-51 3.67 -51 3.34 -51 3 C-50.435 2.992 -49.87 2.984 -49.287 2.975 C-43.398 2.889 -37.51 2.79 -31.621 2.683 C-29.424 2.644 -27.228 2.61 -25.031 2.578 C-21.87 2.532 -18.711 2.474 -15.551 2.414 C-14.57 2.403 -13.59 2.391 -12.58 2.379 C-4.151 2.197 -4.151 2.197 0 0 Z " fill="#BD9F5D" transform="translate(103,207)"/>
<path d="M0 0 C0.66 0.33 1.32 0.66 2 1 C1.196 1.66 0.391 2.32 -0.438 3 C-4.734 8.03 -4.16 13.581 -4 20 C-4.99 19.67 -5.98 19.34 -7 19 C-7.33 17.35 -7.66 15.7 -8 14 C-8.66 14 -9.32 14 -10 14 C-8.24 7.694 -5.421 3.679 0 0 Z " fill="#FCDF27" transform="translate(115,72)"/>
<path d="M0 0 C-0.375 1.938 -0.375 1.938 -1 4 C-3.284 5.142 -4.838 5.165 -7.375 5.312 C-10.799 5.643 -11.789 5.83 -14.562 8.062 C-15.037 8.702 -15.511 9.341 -16 10 C-16.188 7.125 -16.188 7.125 -16 4 C-12.885 1.923 -11.069 1.484 -7.438 0.875 C-6.467 0.707 -5.496 0.54 -4.496 0.367 C-2 0 -2 0 0 0 Z " fill="#FDEC4F" transform="translate(134,173)"/>
<path d="M0 0 C0.33 0 0.66 0 1 0 C1.026 0.892 1.052 1.784 1.078 2.703 C1.135 3.874 1.192 5.044 1.25 6.25 C1.296 7.41 1.343 8.57 1.391 9.766 C2.098 13.521 3.235 14.501 6 17 C6 17.99 6 18.98 6 20 C9.96 20 13.92 20 18 20 C18.33 20.66 18.66 21.32 19 22 C17.147 22.11 15.292 22.186 13.438 22.25 C12.405 22.296 11.372 22.343 10.309 22.391 C7 22 7 22 0 18 C0 12.06 0 6.12 0 0 Z " fill="#F3C010" transform="translate(113,182)"/>
<path d="M0 0 C0.99 0.33 1.98 0.66 3 1 C2.414 7.152 2.414 7.152 2 9 C1.67 9.165 1.67 9.165 0 10 C-0.33 8.68 -0.66 7.36 -1 6 C-1.33 12.93 -1.66 19.86 -2 27 C-2.33 27 -2.66 27 -3 27 C-3.087 23.063 -3.14 19.126 -3.188 15.188 C-3.213 14.068 -3.238 12.948 -3.264 11.795 C-3.273 10.722 -3.283 9.649 -3.293 8.543 C-3.309 7.553 -3.324 6.563 -3.341 5.544 C-2.95 2.63 -2.28 1.775 0 0 Z " fill="#FDE225" transform="translate(60,99)"/>
<path d="M0 0 C0.33 0 0.66 0 1 0 C1 7.92 1 15.84 1 24 C-1.057 20.915 -1.455 19.58 -2 16 C-2.128 15.314 -2.255 14.628 -2.387 13.922 C-3.281 8.267 -2.689 5.056 0 0 Z " fill="#FBD405" transform="translate(165,114)"/>
<path d="M0 0 C2 1 4 2 6 3 C11.094 3.384 13.801 2.879 18 0 C18.66 0 19.32 0 20 0 C20 1.65 20 3.3 20 5 C14.078 6.839 7.405 6.084 1.812 3.562 C1.513 3.305 1.513 3.305 0 2 C0 1.34 0 0.68 0 0 Z " fill="#AA7C22" transform="translate(110,104)"/>
<path d="M0 0 C-0.33 1.32 -0.66 2.64 -1 4 C-1 3.34 -1 2.68 -1 2 C-1.588 2.165 -1.588 2.165 -4.562 3 C-8.501 3.997 -11.951 4.169 -16 4 C-16 3.34 -16 2.68 -16 2 C-10.605 -0.271 -5.738 -0.204 0 0 Z " fill="#F2BC03" transform="translate(131,100)"/>
<path d="M0 0 C1 3 1 3 -0.188 5.562 C-2.135 8.181 -3.003 8.874 -6 10 C-9.016 10.195 -9.016 10.195 -12.25 10.125 C-13.328 10.107 -14.405 10.089 -15.516 10.07 C-16.335 10.047 -17.155 10.024 -18 10 C-15.562 7.562 -14.389 7.385 -11 7 C-7.688 7.438 -7.688 7.438 -5 8 C-5 7.34 -5 6.68 -5 6 C-3.688 4.646 -2.354 3.313 -1 2 C-0.67 1.34 -0.34 0.68 0 0 Z " fill="#F7C301" transform="translate(180,194)"/>
<path d="M0 0 C0.66 0 1.32 0 2 0 C1.836 1.134 1.673 2.269 1.504 3.438 C0.937 7.974 0.886 12.434 0.938 17 C0.942 17.775 0.947 18.549 0.951 19.348 C0.963 21.232 0.981 23.116 1 25 C0.01 24.67 -0.98 24.34 -2 24 C-1.862 20.187 -1.713 16.375 -1.562 12.562 C-1.523 11.474 -1.484 10.385 -1.443 9.264 C-1.401 8.229 -1.36 7.195 -1.316 6.129 C-1.28 5.171 -1.243 4.212 -1.205 3.225 C-1 1 -1 1 0 0 Z " fill="#F6E8BF" transform="translate(100,149)"/>
<path d="M0 0 C0.66 0 1.32 0 2 0 C2.688 13.957 2.688 13.957 0.188 17.875 C-2 20 -2 20 -5 20 C-4.361 19.34 -3.721 18.68 -3.062 18 C-0.371 14.085 -0.228 11.719 0 7 C-0.33 6.01 -0.66 5.02 -1 4 C-0.562 1.812 -0.562 1.812 0 0 Z " fill="#F7C502" transform="translate(104,182)"/>
<path d="M0 0 C-0.33 1.32 -0.66 2.64 -1 4 C-2.65 4.33 -4.3 4.66 -6 5 C-6 4.34 -6 3.68 -6 3 C-6.825 2.67 -6.825 2.67 -11 1 C-7.23 -1.564 -4.326 -0.832 0 0 Z " fill="#FDE62C" transform="translate(100,175)"/>
<path d="M0 0 C0.66 0.66 1.32 1.32 2 2 C1.216 2.887 0.432 3.774 -0.375 4.688 C-5.035 10.361 -5.473 15.854 -6 23 C-6.33 23 -6.66 23 -7 23 C-7.689 9.037 -7.689 9.037 -5.125 5.125 C-4.424 4.424 -3.723 3.722 -3 3 C-2.34 3 -1.68 3 -1 3 C-0.67 2.01 -0.34 1.02 0 0 Z " fill="#FCFBEF" transform="translate(34,73)"/>
<path d="M0 0 C0.33 0 0.66 0 1 0 C1.25 2.895 1.475 5.789 1.688 8.688 C1.76 9.504 1.833 10.321 1.908 11.162 C2.238 15.96 2.302 19.149 -1 23 C-1.66 23 -2.32 23 -3 23 C-3.33 23.66 -3.66 24.32 -4 25 C-3.552 22.911 -3.142 21.227 -2 19.406 C-0.489 15.771 -0.53 12.151 -0.375 8.25 C-0.336 7.457 -0.298 6.664 -0.258 5.848 C-0.164 3.899 -0.081 1.949 0 0 Z " fill="#D0B174" transform="translate(108,184)"/>
<path d="M0 0 C6.103 0.891 10.094 1.834 14 7 C14 7.99 14 8.98 14 10 C12.35 8.35 10.7 6.7 9 5 C8.67 5.495 8.67 5.495 7 8 C6.01 7.67 5.02 7.34 4 7 C4.66 6.01 5.32 5.02 6 4 C4.02 3.01 2.04 2.02 0 1 C0 0.67 0 0.34 0 0 Z " fill="#F8D328" transform="translate(169,172)"/>
<path d="M0 0 C3 0.125 3 0.125 4 1.125 C4.041 3.125 4.043 5.125 4 7.125 C3.67 7.125 3.34 7.125 3 7.125 C3 5.475 3 3.825 3 2.125 C2.412 2.29 2.412 2.29 -0.562 3.125 C-4.501 4.122 -7.951 4.294 -12 4.125 C-12 3.465 -12 2.805 -12 2.125 C-9.949 1.897 -7.898 1.669 -5.848 1.441 C-3.034 0.96 -3.271 0.136 0 0 Z " fill="#F0B904" transform="translate(51,99.875)"/>
<path d="M0 0 C15.375 0 15.375 0 19 2 C18 3 18 3 14.062 3.125 C9.005 3.076 4.02 2.587 -1 2 C-0.67 1.34 -0.34 0.68 0 0 Z " fill="#F3C201" transform="translate(79,202)"/>
<path d="M0 0 C0.33 0 0.66 0 1 0 C1.494 6.693 1.332 12.545 -3 18 C-5.141 19.219 -5.141 19.219 -7 20 C-6.567 19.299 -6.134 18.597 -5.688 17.875 C-2.15 11.848 -0.354 7.979 -1 1 C-0.67 0.67 -0.34 0.34 0 0 Z " fill="#DDC792" transform="translate(110,193)"/>
<path d="M0 0 C1 4 1 4 0 6 C-4.03 5.447 -8.02 4.844 -12 4 C-12 3.67 -12 3.34 -12 3 C-8.04 2.01 -4.08 1.02 0 0 Z " fill="#C6A55F" transform="translate(53,106)"/>
<path d="M0 0 C2 0.938 2 0.938 4 3 C4.365 6.025 4.229 8.967 4 12 C2.062 10.938 2.062 10.938 0 9 C-1.41 2.819 -1.41 2.819 0 0 Z " fill="#F3E9B9" transform="translate(109,181)"/>
<path d="M0 0 C0.33 0 0.66 0 1 0 C1 4.95 1 9.9 1 15 C0.34 15.33 0.34 15.33 -3 17 C-2.01 11.39 -1.02 5.78 0 0 Z " fill="#E5A90A" transform="translate(183,182)"/>
<path d="M0 0 C2.085 0.621 4.168 1.247 6.25 1.875 C6.83 2.049 6.83 2.049 9.766 2.93 C12.351 3.785 14.623 4.694 17 6 C10.541 6.404 5.939 5.592 0 3 C0 2.01 0 1.02 0 0 Z " fill="#DEC692" transform="translate(36,107)"/>
<path d="M0 0 C0.33 0 0.66 0 1 0 C2.658 4.875 3.003 7.985 2 13 C2.438 15.375 2.438 15.375 3 17 C2.34 17 1.68 17 1 17 C-0.187 13.44 -0.097 10.562 -0.062 6.812 C-0.053 5.54 -0.044 4.268 -0.035 2.957 C-0.024 1.981 -0.012 1.005 0 0 Z " fill="#FACB0A" transform="translate(38,183)"/>
<path d="M0 0 C-0.722 0.392 -1.444 0.784 -2.188 1.188 C-5.228 3.147 -7.484 5.416 -10 8 C-10.33 8.165 -10.33 8.165 -12 9 C-10.075 2.337 -10.075 2.337 -7 0 C-3.867 -1.044 -3.01 -0.934 0 0 Z " fill="#FDE42F" transform="translate(123,77)"/>
<path d="M0 0 C0.33 0.99 0.66 1.98 1 3 C1.99 3.165 1.99 3.165 7 4 C7.33 5.32 7.66 6.64 8 8 C4.809 8 3.547 7.868 1 6 C0.25 2.875 0.25 2.875 0 0 Z " fill="#E3B011" transform="translate(38,197)"/>
<path d="M0 0 C0.701 0.144 1.403 0.289 2.125 0.438 C5.076 1.015 8.033 1.517 11 2 C10.67 3.32 10.34 4.64 10 6 C5.167 5.586 3.173 3.536 0 0 Z " fill="#F0DFB5" transform="translate(118,115)"/>
<path d="M0 0 C0.66 0 1.32 0 2 0 C1.875 1.875 1.875 1.875 1 4 C-3.669 6.277 -7.921 6.416 -13 6 C-14.738 4.48 -14.738 4.48 -16 3 C-15.668 3.053 -15.668 3.053 -13.988 3.324 C-6.699 4.314 -6.699 4.314 -2.938 2.625 C-1.931 1.781 -0.929 0.929 0 0 Z " fill="#A87312" transform="translate(52,103)"/>
<path d="M0 0 C0.99 0.33 1.98 0.66 3 1 C3 1.66 3 2.32 3 3 C1.584 3.054 0.167 3.093 -1.25 3.125 C-2.039 3.148 -2.828 3.171 -3.641 3.195 C-6.207 2.983 -7.792 2.287 -10 1 C-6.857 -0.572 -3.442 -0.232 0 0 Z " fill="#FDEB45" transform="translate(145,57)"/>
<path d="M0 0 C0.99 0.33 1.98 0.66 3 1 C3.688 3.062 3.688 3.062 4 5 C3.01 5.33 2.02 5.66 1 6 C-0.372 7.294 -1.712 8.623 -3 10 C-2.213 6.59 -1.129 3.311 0 0 Z " fill="#ECDAB1" transform="translate(112,201)"/>
<path d="M0 0 C2.248 2.052 3.002 3.007 4 6 C4.32 6.155 4.32 6.155 5.938 6.938 C8.455 8.234 8.969 9.422 10 12 C5.567 10.125 0.958 7.298 -0.938 2.75 C-0.958 2.172 -0.979 1.595 -1 1 C-0.67 0.67 -0.34 0.34 0 0 Z " fill="#F0DFB7" transform="translate(108,103)"/>
<path d="M0 0 C0 0.99 0 1.98 0 3 C-0.66 3 -1.32 3 -2 3 C-2 3.66 -2 4.32 -2 5 C-2.66 5 -3.32 5 -4 5 C-4 5.66 -4 6.32 -4 7 C-5.32 6.67 -6.64 6.34 -8 6 C-3.385 0 -3.385 0 0 0 Z " fill="#FDE93A" transform="translate(138,61)"/>
<path d="M0 0 C1.938 0.312 1.938 0.312 4 1 C4.33 1.99 4.66 2.98 5 4 C6.294 5.372 7.623 6.712 9 8 C3.5 6.533 3.5 6.533 1.125 4 C0 2 0 2 0 0 Z " fill="#ECDBB3" transform="translate(41,207)"/>
<path d="M0 0 C0.33 0.99 0.66 1.98 1 3 C-1 5 -1 5 -4.125 5.125 C-4.599 5.104 -4.599 5.104 -7 5 C-7.33 4.34 -7.66 3.68 -8 3 C-5.36 2.01 -2.72 1.02 0 0 Z " fill="#C3A768" transform="translate(103,207)"/>
<path d="M0 0 C3.875 1.875 3.875 1.875 5 3 C6.515 3.232 8.038 3.412 9.562 3.562 C10.389 3.646 11.215 3.73 12.066 3.816 C12.704 3.877 13.343 3.938 14 4 C10.219 6.111 8.238 6.148 4 5 C1.625 3.562 1.625 3.562 0 2 C0 1.34 0 0.68 0 0 Z " fill="#B3851E" transform="translate(41,204)"/>
<path d="M0 0 C0.66 0 1.32 0 2 0 C1.875 2.812 1.875 2.812 1 6 C-2.062 7.875 -2.062 7.875 -5 9 C-5.66 8.34 -6.32 7.68 -7 7 C-6.216 6.588 -5.433 6.175 -4.625 5.75 C-1.941 3.961 -1.119 2.95 0 0 Z " fill="#E1A703" transform="translate(105,196)"/>
<path d="M0 0 C0.66 0.33 1.32 0.66 2 1 C1.67 1.33 1.34 1.66 1 2 C1.66 2.66 2.32 3.32 3 4 C2.361 4.309 1.721 4.619 1.062 4.938 C-1.83 6.427 -2.064 7.096 -4 10 C-4.25 7.25 -4.25 7.25 -4 4 C-2 1.625 -2 1.625 0 0 Z " fill="#FDE221" transform="translate(140,142)"/>
<path d="M0 0 C1.062 1.875 1.062 1.875 2 4 C1.67 4.66 1.34 5.32 1 6 C-0.98 5.34 -2.96 4.68 -5 4 C-5 3.01 -5 2.02 -5 1 C-3.35 0.67 -1.7 0.34 0 0 Z " fill="#E4AD0C" transform="translate(114,100)"/>
<path d="M0 0 C1.32 0.33 2.64 0.66 4 1 C4 1.99 4 2.98 4 4 C5.32 4.33 6.64 4.66 8 5 C8 5.66 8 6.32 8 7 C4.66 6.404 2.495 5.317 0 3 C0 2.01 0 1.02 0 0 Z " fill="#F3E1B8" transform="translate(32,106)"/>
<path d="M0 0 C0.33 0 0.66 0 1 0 C1.99 3.63 2.98 7.26 4 11 C2.68 11 1.36 11 0 11 C0 7.37 0 3.74 0 0 Z " fill="#F6C60F" transform="translate(29,87)"/>
<path d="M0 0 C-2.062 2.062 -2.062 2.062 -5 4 C-8.812 3.75 -8.812 3.75 -12 3 C-12 2.34 -12 1.68 -12 1 C-7.959 0.366 -4.093 -0.124 0 0 Z " fill="#F0E1BB" transform="translate(102,218)"/>
<path d="M0 0 C0.33 0 0.66 0 1 0 C2.102 4.409 2.077 8.484 2 13 C1.67 13 1.34 13 1 13 C-0.586 8.837 -1.311 5.461 -1 1 C-0.67 0.67 -0.34 0.34 0 0 Z " fill="#E4D1A5" transform="translate(186,191)"/>
<path d="M0 0 C1.296 0.425 2.587 0.865 3.875 1.312 C4.594 1.556 5.314 1.8 6.055 2.051 C8 3 8 3 10 6 C6.059 5.437 3.249 4.321 0 2 C0 1.34 0 0.68 0 0 Z " fill="#EBD9B0" transform="translate(117,210)"/>
<path d="M0 0 C0.33 0 0.66 0 1 0 C1.293 5.673 1.006 8.991 -2 14 C-2.33 14 -2.66 14 -3 14 C-3.201 10.284 -3.152 9.228 -1 6 C-0.61 4.01 -0.268 2.01 0 0 Z " fill="#ECDBB3" transform="translate(188,198)"/>
<path d="M0 0 C1.258 -0.021 2.516 -0.041 3.812 -0.062 C4.52 -0.074 5.228 -0.086 5.957 -0.098 C8 0 8 0 11 1 C11 1.66 11 2.32 11 3 C6.781 3.196 3.83 2.802 0 1 C0 0.67 0 0.34 0 0 Z " fill="#C6A765" transform="translate(118,109)"/>
<path d="M0 0 C1.65 0 3.3 0 5 0 C5 0.66 5 1.32 5 2 C0.615 5 0.615 5 -2 5 C-1.34 3.35 -0.68 1.7 0 0 Z " fill="#CE9405" transform="translate(125,102)"/>
<path d="M0 0 C0.33 0 0.66 0 1 0 C0.67 3.96 0.34 7.92 0 12 C-0.33 12 -0.66 12 -1 12 C-1.223 10.565 -1.428 9.127 -1.625 7.688 C-1.741 6.887 -1.857 6.086 -1.977 5.262 C-2 3 -2 3 0 0 Z " fill="#F8C604" transform="translate(182,181)"/>
<path d="M0 0 C1.98 0 3.96 0 6 0 C5.34 1.32 4.68 2.64 4 4 C2.35 3.67 0.7 3.34 -1 3 C-0.67 2.01 -0.34 1.02 0 0 Z " fill="#FCE836" transform="translate(170,175)"/>
<path d="M0 0 C4 3 4 3 4.875 5.562 C4.896 5.965 4.896 5.965 5 8 C4.34 8.66 3.68 9.32 3 10 C2.01 6.7 1.02 3.4 0 0 Z " fill="#FAC820" transform="translate(164,58)"/>
<path d="M0 0 C0.33 0 0.66 0 1 0 C1.39 1.6 1.762 3.206 2.125 4.812 C2.334 5.706 2.543 6.599 2.758 7.52 C3 10 3 10 1 13 C-0.005 9.985 -0.103 7.958 -0.062 4.812 C-0.053 3.911 -0.044 3.01 -0.035 2.082 C-0.024 1.395 -0.012 0.708 0 0 Z " fill="#EEBB17" transform="translate(105,86)"/>
<path d="M0 0 C0.971 3.021 1.136 5.005 0 8 C-0.33 8.165 -0.33 8.165 -2 9 C-1.125 1.125 -1.125 1.125 0 0 Z " fill="#FDE744" transform="translate(44,176)"/>
<path d="M0 0 C1.98 0 3.96 0 6 0 C6 2.31 6 4.62 6 7 C5.752 6.361 5.505 5.721 5.25 5.062 C4 3 4 3 1.875 2.25 C1.566 2.209 1.566 2.209 0 2 C0 1.34 0 0.68 0 0 Z " fill="#F9CC03" transform="translate(50,98)"/>
</svg>
