<?xml version="1.0" encoding="UTF-8"?>
<!-- Generator: visioncortex VTracer 0.6.12 -->
<svg version="1.1" xmlns="http://www.w3.org/2000/svg" width="286" height="210">
<path d="M0 0 C94.38 0 188.76 0 286 0 C286 69.3 286 138.6 286 210 C191.62 210 97.24 210 0 210 C0 140.7 0 71.4 0 0 Z " fill="#FDF6E1" transform="translate(0,0)"/>
<path d="M0 0 C0.532 -0.014 0.532 -0.014 3.223 -0.086 C10.208 -0.103 14 0.64 19.125 5.5 C20.937 8.436 21.374 10.615 21.366 14.043 C21.368 14.949 21.371 15.855 21.374 16.788 C21.37 17.281 21.37 17.281 21.352 19.776 C21.352 20.821 21.353 21.865 21.353 22.941 C21.352 26.393 21.336 29.845 21.32 33.297 C21.317 35.69 21.314 38.083 21.312 40.477 C21.304 46.776 21.284 53.076 21.262 59.376 C21.242 65.804 21.233 72.232 21.223 78.66 C21.201 91.273 21.167 103.887 21.125 116.5 C22.222 116.617 23.319 116.735 24.449 116.855 C28.945 117.644 30.284 119.01 33.125 122.5 C33.817 123.82 34.49 125.152 35.125 126.5 C35.139 125.871 35.153 125.242 35.168 124.594 C35.532 118.064 36.847 113.52 41.125 108.5 C45.067 105.006 48.662 103.695 53.832 103.34 C60.365 103.796 65.331 108.332 70.324 112.172 C74.942 115.578 79.488 116.164 85.125 115.5 C89.501 114.26 92.146 113.02 94.562 109.188 C96.205 105.903 96.484 103.184 96.125 99.5 C95.651 99.428 95.651 99.428 93.25 99.062 C90.125 98.5 90.125 98.5 88.125 97.5 C88.125 98.16 88.125 98.82 88.125 99.5 C87.135 99.83 86.145 100.16 85.125 100.5 C85.125 99.84 85.125 99.18 85.125 98.5 C79.365 97.489 75.766 97.584 70.125 99.5 C65.424 100.649 65.424 100.649 63.125 99.5 C61.459 99.46 59.791 99.456 58.125 99.5 C58.125 98.18 58.125 96.86 58.125 95.5 C56.475 95.5 54.825 95.5 53.125 95.5 C53.125 94.84 53.125 94.18 53.125 93.5 C51.475 93.17 49.825 92.84 48.125 92.5 C48.125 91.84 48.125 91.18 48.125 90.5 C47.135 90.5 46.145 90.5 45.125 90.5 C44.795 89.51 44.465 88.52 44.125 87.5 C43.877 87.283 43.877 87.283 42.625 86.188 C38.953 82.057 39.979 74.801 39.992 69.535 C39.991 69.104 39.991 69.104 39.988 66.922 C39.985 64.135 39.992 61.349 40 58.562 C40.001 58.09 40.001 58.09 40.007 55.699 C40.024 49.299 40.065 42.9 40.125 36.5 C40.128 36.146 40.128 36.146 40.144 34.357 C40.182 30.528 40.26 26.702 40.375 22.875 C40.389 22.009 40.403 21.143 40.417 20.25 C40.64 14.786 41.662 9.871 45.125 5.5 C49.668 1.912 52.655 0.997 58.412 0.982 C59.115 0.975 59.819 0.968 60.543 0.961 C62.852 0.944 65.16 0.955 67.469 0.969 C69.082 0.966 70.696 0.962 72.31 0.957 C75.686 0.951 79.061 0.96 82.437 0.979 C86.755 1.001 91.071 0.988 95.389 0.964 C98.719 0.95 102.05 0.954 105.38 0.965 C106.972 0.967 108.563 0.964 110.155 0.955 C112.383 0.945 114.61 0.96 116.838 0.982 C118.103 0.986 119.369 0.989 120.672 0.992 C125.501 1.702 128.543 3.894 131.926 7.328 C133.545 10.26 133.882 12.939 134.312 16.25 C134.471 17.42 134.63 18.591 134.793 19.797 C134.903 20.689 135.012 21.581 135.125 22.5 C135.455 22.5 135.785 22.5 136.125 22.5 C136.455 20.19 136.785 17.88 137.125 15.5 C137.455 15.5 137.785 15.5 138.125 15.5 C138.515 18.249 138.888 20.998 139.25 23.75 C139.306 24.139 139.306 24.139 139.59 26.105 C140.466 32.942 140.466 32.942 138.125 36.5 C138.012 37.067 138.012 37.067 137.438 39.938 C136.088 43.602 134.824 45.386 131.523 47.496 C125.825 49.881 118.443 51.285 112.383 49.852 C111.638 49.736 110.893 49.62 110.125 49.5 C108.312 50.938 108.312 50.938 107.125 52.5 C107.91 52.936 108.695 53.371 109.504 53.82 C122.437 61.152 131.026 69.102 136.125 83.5 C136.125 84.49 136.125 85.48 136.125 86.5 C137.445 86.17 138.765 85.84 140.125 85.5 C140.455 87.315 140.455 87.315 142.125 96.5 C142.455 96.5 142.785 96.5 143.125 96.5 C143.152 98.875 143.172 101.25 143.188 103.625 C143.196 104.29 143.204 104.955 143.213 105.641 C143.233 109.707 142.914 113.512 142.125 117.5 C142.785 117.5 143.445 117.5 144.125 117.5 C143.561 120.881 142.686 123.469 141.125 126.5 C140.446 128.496 139.779 130.496 139.125 132.5 C135.088 143.724 125.085 152.599 115.035 158.613 C112.166 159.945 109.245 160.147 106.125 160.5 C104.445 161.477 102.776 162.474 101.125 163.5 C99.805 163.5 98.485 163.5 97.125 163.5 C96.795 163.83 96.465 164.16 96.125 164.5 C94.065 164.6 92 164.63 89.938 164.625 C88.81 164.628 87.682 164.63 86.52 164.633 C83.125 164.5 83.125 164.5 79.824 163.93 C77.125 163.5 77.125 163.5 75.125 164.5 C74.63 164.17 74.63 164.17 72.125 162.5 C72.125 161.84 72.125 161.18 72.125 160.5 C71.305 160.33 70.485 160.16 69.641 159.984 C69.102 159.863 69.102 159.863 66.375 159.25 C65.841 159.134 65.841 159.134 63.141 158.547 C59.824 157.395 58.427 156.09 56.125 153.5 C53.875 152.25 53.875 152.25 52.125 151.5 C52.125 150.84 52.125 150.18 52.125 149.5 C51.341 149.417 50.558 149.335 49.75 149.25 C47.125 148.5 47.125 148.5 45.812 146.438 C45.586 145.798 45.359 145.159 45.125 144.5 C44.465 144.5 43.805 144.5 43.125 144.5 C42.148 142.71 41.172 140.919 40.195 139.129 C39.125 137.5 39.125 137.5 37.125 136.5 C37.293 137.297 37.46 138.093 37.633 138.914 C39.743 149.892 39.743 149.892 37.125 154.5 C34.908 157.283 32.574 159.92 30.125 162.5 C29.403 162.294 28.681 162.088 27.938 161.875 C24.612 161.432 23.179 162.227 20.125 163.5 C17.223 163.66 17.223 163.66 14.188 163.562 C10.001 163.486 6.248 163.733 2.125 164.5 C-2.603 164.844 -5.554 164.356 -9.797 162.273 C-12.452 161.285 -15 161.068 -17.812 160.75 C-23.32 159.927 -26.39 158.189 -30.449 154.449 C-32.146 152.129 -32.427 150.313 -32.875 147.5 C-33.391 146.531 -33.906 145.561 -34.438 144.562 C-36.927 138.994 -36.571 132.443 -35.875 126.5 C-33.776 121.391 -31.822 119.069 -26.875 116.5 C-25.72 116.335 -25.72 116.335 -19.875 115.5 C-19.875 96.69 -19.875 77.88 -19.875 58.5 C-21.855 58.5 -23.835 58.5 -25.875 58.5 C-32.181 57.113 -38.563 54.833 -42.352 49.371 C-45.634 43.512 -47.195 38.178 -45.875 31.5 C-39.905 15.53 -16.1 -0.039 0 0 Z " fill="#FB7BA7" transform="translate(104.875,28.5)"/>
<path d="M0 0 C0.532 -0.014 0.532 -0.014 3.223 -0.086 C10.208 -0.103 14 0.64 19.125 5.5 C20.937 8.436 21.374 10.615 21.366 14.043 C21.368 14.949 21.371 15.855 21.374 16.788 C21.37 17.281 21.37 17.281 21.352 19.776 C21.352 20.821 21.353 21.865 21.353 22.941 C21.352 26.393 21.336 29.845 21.32 33.297 C21.317 35.69 21.314 38.083 21.312 40.477 C21.304 46.776 21.284 53.076 21.262 59.376 C21.242 65.804 21.233 72.232 21.223 78.66 C21.201 91.273 21.167 103.887 21.125 116.5 C22.221 116.615 23.316 116.729 24.445 116.848 C28.9 117.637 30.284 119.074 33.125 122.5 C34.868 125.986 34.394 129.909 34.438 133.75 C34.452 134.173 34.452 134.173 34.525 136.316 C34.582 141.886 33.977 145.182 30.125 149.5 C24.714 154.18 20.066 154.073 13.25 153.996 C12.729 153.997 12.729 153.997 10.09 154.001 C7.892 153.999 5.693 153.987 3.494 153.967 C0.136 153.938 -3.22 153.946 -6.578 153.959 C-8.719 153.953 -10.859 153.944 -13 153.934 C-14 153.937 -15 153.939 -16.031 153.942 C-22.145 153.86 -26.764 153.271 -31.52 149.035 C-35.681 143.788 -36.04 140.243 -36.125 133.625 C-36.151 132.431 -36.177 131.238 -36.203 130.008 C-35.712 124.762 -34.149 121.571 -30.125 118.188 C-26.875 116.5 -26.875 116.5 -19.875 115.5 C-19.875 96.69 -19.875 77.88 -19.875 58.5 C-21.855 58.5 -23.835 58.5 -25.875 58.5 C-32.181 57.113 -38.563 54.833 -42.352 49.371 C-45.634 43.512 -47.195 38.178 -45.875 31.5 C-39.905 15.53 -16.1 -0.039 0 0 Z " fill="#FDDC0D" transform="translate(104.875,28.5)"/>
<path d="M0 0 C0.703 -0.007 1.405 -0.013 2.129 -0.02 C4.46 -0.04 6.79 -0.051 9.12 -0.061 C9.916 -0.065 10.712 -0.069 11.532 -0.074 C15.747 -0.094 19.962 -0.109 24.177 -0.118 C28.526 -0.129 32.875 -0.164 37.224 -0.203 C40.571 -0.23 43.919 -0.238 47.266 -0.241 C48.869 -0.246 50.472 -0.258 52.074 -0.276 C54.322 -0.301 56.569 -0.3 58.816 -0.293 C59.455 -0.296 59.455 -0.296 62.688 -0.311 C67.545 0.37 70.57 2.556 73.968 6.005 C75.587 8.937 75.924 11.616 76.354 14.927 C76.513 16.097 76.672 17.268 76.835 18.474 C76.89 18.92 76.89 18.92 77.167 21.177 C77.497 21.177 77.827 21.177 78.167 21.177 C78.497 18.867 78.827 16.557 79.167 14.177 C79.497 14.177 79.827 14.177 80.167 14.177 C80.557 16.926 80.929 19.675 81.292 22.427 C81.348 22.816 81.348 22.816 81.632 24.782 C82.508 31.619 82.508 31.619 80.167 35.177 C79.94 36.311 79.713 37.446 79.479 38.615 C78.13 42.279 76.866 44.063 73.565 46.173 C66.777 49.014 59.305 49.645 52.167 48.177 C50.354 49.615 50.354 49.615 49.167 51.177 C52.133 54.369 55.217 56.636 58.917 58.927 C59.902 59.541 60.887 60.154 61.901 60.786 C62.649 61.245 63.397 61.704 64.167 62.177 C63.837 63.497 63.507 64.817 63.167 66.177 C62.012 66.507 62.012 66.507 56.167 68.177 C55.507 66.857 54.847 65.537 54.167 64.177 C53.837 64.177 53.507 64.177 53.167 64.177 C52.672 64.012 52.672 64.012 50.167 63.177 C50.827 62.187 51.487 61.197 52.167 60.177 C51.177 60.177 50.187 60.177 49.167 60.177 C49.167 60.837 49.167 61.497 49.167 62.177 C48.507 62.837 47.847 63.497 47.167 64.177 C47.002 64.672 47.002 64.672 46.167 67.177 C43.781 68.246 42.513 68.266 39.979 67.615 C38.167 66.177 38.167 66.177 37.417 63.052 C37.334 62.103 37.252 61.155 37.167 60.177 C36.507 60.177 35.847 60.177 35.167 60.177 C35.167 60.837 35.167 61.497 35.167 62.177 C34.177 62.507 33.187 62.837 32.167 63.177 C32.167 64.497 32.167 65.817 32.167 67.177 C31.177 67.837 30.187 68.497 29.167 69.177 C28.899 69.837 28.631 70.497 28.354 71.177 C26.607 74.12 24.368 74.342 21.167 75.177 C21.167 74.187 21.167 73.197 21.167 72.177 C19.594 70.318 18.351 69.269 16.167 68.177 C16.497 67.682 16.497 67.682 18.167 65.177 C16.187 65.177 14.207 65.177 12.167 65.177 C11.837 65.837 11.507 66.497 11.167 67.177 C10.507 65.527 9.847 63.877 9.167 62.177 C8.507 62.177 7.847 62.177 7.167 62.177 C6.507 63.497 5.847 64.817 5.167 66.177 C4.507 66.177 3.847 66.177 3.167 66.177 C2.837 67.167 2.507 68.157 2.167 69.177 C-2.166 72.177 -2.166 72.177 -4.833 72.177 C-4.833 72.837 -4.833 73.497 -4.833 74.177 C-5.493 74.177 -6.153 74.177 -6.833 74.177 C-6.833 73.517 -6.833 72.857 -6.833 72.177 C-7.596 72.693 -8.359 73.208 -9.146 73.74 C-10.032 74.214 -10.919 74.688 -11.833 75.177 C-12.823 74.847 -13.813 74.517 -14.833 74.177 C-18.213 67.417 -15.719 55.758 -15.396 48.286 C-15.351 47.216 -15.307 46.145 -15.261 45.042 C-15.121 41.67 -14.977 38.299 -14.833 34.927 C-14.736 32.621 -14.64 30.315 -14.544 28.009 C-14.31 22.398 -14.072 16.788 -13.833 11.177 C-14.493 11.177 -15.153 11.177 -15.833 11.177 C-14.438 6.737 -12.272 4.272 -8.833 1.177 C-5.897 -0.291 -3.278 0.025 0 0 Z " fill="#FB7FAB" transform="translate(162.8330078125,29.822998046875)"/>
<path d="M0 0 C0.532 -0.014 0.532 -0.014 3.223 -0.086 C10.222 -0.103 13.89 0.787 19.125 5.5 C19.045 5.791 19.045 5.791 18.638 7.262 C17.833 10.776 17.885 14.332 17.809 17.922 C17.788 18.741 17.767 19.56 17.746 20.403 C17.68 23.019 17.621 25.634 17.562 28.25 C17.519 29.995 17.476 31.74 17.432 33.484 C17.39 35.172 17.349 36.859 17.309 38.547 C17.29 39.324 17.271 40.102 17.252 40.903 C17.17 44.556 17.123 48.202 17.149 51.856 C17.125 55.5 17.125 55.5 16.562 58.75 C16.125 61.5 16.125 61.5 16.641 63.301 C17.894 68.992 16.194 75.776 13.188 80.625 C11.125 82.5 11.125 82.5 8.125 84.5 C8.125 85.16 8.125 85.82 8.125 86.5 C7.135 86.562 6.145 86.624 5.125 86.688 C1.1 87.243 -1.664 88.983 -4.98 91.246 C-6.875 92.5 -6.875 92.5 -9.066 93.496 C-9.663 93.827 -10.26 94.159 -10.875 94.5 C-11.625 97.125 -11.625 97.125 -11.875 99.5 C-13.208 99.5 -14.542 99.5 -15.875 99.5 C-16.511 86.98 -16.978 74.475 -17 61.938 C-17.005 60.899 -17.009 59.86 -17.014 58.789 C-17.003 53.584 -16.781 48.628 -15.875 43.5 C-19.5 43.299 -21.74 43.642 -24.875 45.5 C-24.875 46.16 -24.875 46.82 -24.875 47.5 C-30.103 47.835 -34.553 48.001 -39.5 46.125 C-42.971 42.289 -42.856 38.528 -42.875 33.5 C-43.535 33.5 -44.195 33.5 -44.875 33.5 C-44.875 36.14 -44.875 38.78 -44.875 41.5 C-45.205 41.5 -45.535 41.5 -45.875 41.5 C-46.448 35.285 -46.305 30.648 -42.598 25.484 C-31.629 12.849 -16.997 -0.041 0 0 Z " fill="#FDDF15" transform="translate(104.875,28.5)"/>
<path d="M0 0 C0.99 0.33 1.98 0.66 3 1 C2.979 2.114 2.959 3.228 2.938 4.375 C3 8 3 8 4 10 C6.062 11.125 6.062 11.125 8 12 C7.649 12.598 7.299 13.196 6.938 13.812 C6 16 6 16 7 19 C7.266 18.867 7.266 18.867 8.609 18.195 C12.073 16.464 15.536 14.732 19 13 C19.165 13.33 19.165 13.33 20 15 C22.5 13.625 22.5 13.625 25 12 C25 11.34 25 10.68 25 10 C25.99 10 26.98 10 28 10 C28 10.66 28 11.32 28 12 C28.66 12 29.32 12 30 12 C30 12.66 30 13.32 30 14 C29.34 14 28.68 14 28 14 C28.041 14.784 28.082 15.567 28.125 16.375 C28 19 28 19 26 21 C25.196 22.011 24.391 23.021 23.562 24.062 C21 27 21 27 18 28 C18.33 28.66 18.33 28.66 20 32 C19.216 32.248 18.433 32.495 17.625 32.75 C14.591 34.195 14.33 35.056 13 38 C12.505 38.165 12.505 38.165 10 39 C10 38.01 10 37.02 10 36 C9.34 36 8.68 36 8 36 C8 36.66 8 37.32 8 38 C7.34 38 6.68 38 6 38 C6 38.66 6 39.32 6 40 C2.683 41.422 -0.442 42.39 -4 43 C-4.33 44.32 -4.66 45.64 -5 47 C-5.33 46.835 -5.33 46.835 -7 46 C-7.66 46 -8.32 46 -9 46 C-9 45.34 -9 44.68 -9 44 C-10.98 44 -12.96 44 -15 44 C-15.33 45.32 -15.66 46.64 -16 48 C-18 47 -18 47 -21 45 C-21.165 45.33 -21.165 45.33 -22 47 C-24.582 47.703 -24.582 47.703 -27.812 48.25 C-28.871 48.441 -29.929 48.632 -31.02 48.828 C-34.122 49.007 -35.434 48.665 -38 47 C-37.67 45.35 -37.34 43.7 -37 42 C-38.32 41.67 -39.64 41.34 -41 41 C-40.34 40.01 -39.68 39.02 -39 38 C-40.32 37.67 -41.64 37.34 -43 37 C-43.33 37.99 -43.66 38.98 -44 40 C-47.96 39.34 -51.92 38.68 -56 38 C-56.33 36.68 -56.66 35.36 -57 34 C-58.325 33.316 -59.659 32.65 -61 32 C-63.449 27.921 -64.189 23.723 -64 19 C-61.706 14.136 -58.771 11.43 -54 9 C-49.295 7.647 -45.419 7.458 -40.938 9.562 C-37.328 11.626 -34.091 14.142 -30.801 16.672 C-26.183 20.078 -21.637 20.664 -16 20 C-9.939 18.283 -9.939 18.283 -7.816 15.383 C-6.838 13.61 -5.918 11.805 -5 10 C-4.278 9.319 -3.556 8.639 -2.812 7.938 C-0.453 5.415 -0.307 3.377 0 0 Z " fill="#FB7DA8" transform="translate(206,124)"/>
<path d="M0 0 C2.64 0 5.28 0 8 0 C8.33 68.31 8.66 136.62 9 207 C100.08 207.33 191.16 207.66 285 208 C285.33 207.01 285.66 206.02 286 205 C286 206.65 286 208.3 286 210 C191.62 210 97.24 210 0 210 C0 140.7 0 71.4 0 0 Z " fill="#FDFDFC" transform="translate(0,0)"/>
<path d="M0 0 C0.33 0.165 0.33 0.165 2 1 C2.633 3.941 2.633 3.941 3.125 7.562 C3.293 8.76 3.46 9.958 3.633 11.191 C3.754 12.118 3.875 13.045 4 14 C4.33 14 4.66 14 5 14 C5.33 11.69 5.66 9.38 6 7 C6.33 7 6.66 7 7 7 C7.39 9.749 7.763 12.498 8.125 15.25 C8.181 15.639 8.181 15.639 8.465 17.605 C9.341 24.442 9.341 24.442 7 28 C6.773 29.134 6.546 30.269 6.312 31.438 C4.963 35.102 3.699 36.886 0.398 38.996 C-6.164 41.743 -14.086 42.8 -21 41 C-21.433 41.846 -21.866 42.691 -22.312 43.562 C-25 46 -25 46 -26.977 46.109 C-28.753 45.895 -30.526 45.655 -32.297 45.398 C-37.269 44.863 -42.191 44.905 -47.188 44.938 C-48.145 44.942 -49.103 44.946 -50.09 44.95 C-52.393 44.963 -54.697 44.979 -57 45 C-58.081 41.329 -57.654 38.762 -57 35 C-57.33 34.34 -57.66 33.68 -58 33 C-60 35 -60 35 -61 37 C-64 36 -64 36 -65 35 C-65.495 34.835 -65.495 34.835 -68 34 C-67.67 34.99 -67.34 35.98 -67 37 C-67.33 37.165 -67.33 37.165 -69 38 C-66.03 38 -63.06 38 -60 38 C-61 40 -61 40 -63.375 41.188 C-66 42 -66 42 -69 41 C-69.33 41.165 -69.33 41.165 -71 42 C-71 40.35 -71 38.7 -71 37 C-71.33 37.165 -71.33 37.165 -73 38 C-72.67 38.66 -72.34 39.32 -72 40 C-72.66 40.66 -73.32 41.32 -74 42 C-77.875 40.25 -77.875 40.25 -79 38 C-79.33 38.165 -79.33 38.165 -81 39 C-81.33 37.02 -81.66 35.04 -82 33 C-81.34 33 -80.68 33 -80 33 C-79.39 30.122 -78.945 27.376 -78.688 24.438 C-77.922 20.612 -77.07 19.326 -74 17 C-73.34 17 -72.68 17 -72 17 C-72 16.34 -72 15.68 -72 15 C-71.34 15 -70.68 15 -70 15 C-69.67 15.495 -69.67 15.495 -68 18 C-65.375 18.688 -65.375 18.688 -63 19 C-63 19.66 -63 20.32 -63 21 C-62.34 21.33 -61.68 21.66 -61 22 C-61.99 22.33 -62.98 22.66 -64 23 C-60.25 25 -60.25 25 -58 25 C-58 24.34 -58 23.68 -58 23 C-56.667 21.667 -55.333 20.333 -54 19 C-53.67 20.32 -53.34 21.64 -53 23 C-52.299 22.67 -51.597 22.34 -50.875 22 C-47.725 20.904 -45.311 20.928 -42 21 C-41.01 20.67 -40.02 20.34 -39 20 C-37.287 20.571 -35.577 21.149 -33.875 21.75 C-29.646 22.118 -25.762 20.959 -22 19 C-21.835 18.505 -21.835 18.505 -21 16 C-20.01 16.33 -19.02 16.66 -18 17 C-18 16.34 -18 15.68 -18 15 C-17.34 15 -16.68 15 -16 15 C-16 14.34 -16 13.68 -16 13 C-14.35 13.33 -12.7 13.66 -11 14 C-11.66 14.33 -12.32 14.66 -13 15 C-12.835 15.66 -12.835 15.66 -12 19 C-11.34 19.165 -11.34 19.165 -8 20 C-6.68 17.69 -5.36 15.38 -4 13 C-3.34 13 -2.68 13 -2 13 C-2.186 12.113 -2.371 11.226 -2.562 10.312 C-2.98 7.148 -2.808 5.052 -2 2 C-1.34 2 -0.68 2 0 2 C0 1.34 0 0.68 0 0 Z " fill="#FA7AA7" transform="translate(236,37)"/>
<path d="M0 0 C2.12 3.534 2.532 6.944 3 11 C3.33 11 3.66 11 4 11 C4.027 13.375 4.047 15.75 4.062 18.125 C4.071 18.79 4.079 19.455 4.088 20.141 C4.108 24.207 3.789 28.012 3 32 C3.66 32 4.32 32 5 32 C4.436 35.381 3.561 37.969 2 41 C1.321 42.996 0.654 44.996 0 47 C-4.037 58.224 -14.04 67.099 -24.09 73.113 C-26.959 74.445 -29.88 74.647 -33 75 C-34.68 75.977 -36.349 76.974 -38 78 C-39.32 78 -40.64 78 -42 78 C-42.33 78.33 -42.66 78.66 -43 79 C-45.06 79.1 -47.125 79.13 -49.188 79.125 C-50.315 79.128 -51.443 79.13 -52.605 79.133 C-56 79 -56 79 -59.301 78.43 C-62 78 -62 78 -64 79 C-64.495 78.67 -64.495 78.67 -67 77 C-67 76.34 -67 75.68 -67 75 C-67.82 74.83 -68.64 74.66 -69.484 74.484 C-70.023 74.363 -70.023 74.363 -72.75 73.75 C-73.817 73.518 -74.885 73.286 -75.984 73.047 C-79.301 71.895 -80.698 70.59 -83 68 C-85.25 66.75 -85.25 66.75 -87 66 C-87 65.34 -87 64.68 -87 64 C-87.784 63.917 -88.567 63.835 -89.375 63.75 C-92 63 -92 63 -93.312 60.938 C-93.539 60.298 -93.766 59.659 -94 59 C-94.66 59 -95.32 59 -96 59 C-96.488 58.105 -96.488 58.105 -98.93 53.629 C-100 52 -100 52 -102 51 C-101.832 51.797 -101.665 52.593 -101.492 53.414 C-99.382 64.392 -99.382 64.392 -102 69 C-104.217 71.783 -106.551 74.42 -109 77 C-109.361 76.897 -109.361 76.897 -111.188 76.375 C-114.513 75.932 -115.946 76.727 -119 78 C-121.902 78.16 -121.902 78.16 -124.938 78.062 C-129.124 77.986 -132.877 78.233 -137 79 C-141.728 79.344 -144.679 78.856 -148.922 76.773 C-151.577 75.785 -154.125 75.568 -156.938 75.25 C-163.301 74.337 -166.745 71.681 -171 67 C-170.67 66.01 -170.34 65.02 -170 64 C-169.536 64.243 -169.536 64.243 -167.186 65.473 C-162.219 67.588 -157.354 67.449 -152.027 67.434 C-151.507 67.436 -151.507 67.436 -148.872 67.449 C-146.679 67.456 -144.486 67.455 -142.294 67.446 C-138.945 67.438 -135.597 67.466 -132.248 67.498 C-130.112 67.5 -127.976 67.499 -125.84 67.496 C-124.843 67.507 -123.846 67.519 -122.819 67.53 C-116.889 67.471 -113.533 66.918 -109 63 C-105.459 58.749 -105.468 54.491 -105.312 49.188 C-105.278 48.399 -105.244 47.611 -105.209 46.799 C-105.127 44.866 -105.062 42.933 -105 41 C-102 42 -102 42 -101.008 43.891 C-100.716 44.669 -100.425 45.448 -100.125 46.25 C-96.58 54.687 -88.724 60.418 -80.562 64.25 C-64.474 70.772 -46.287 69.338 -30.355 62.938 C-18.137 56.775 -9.54 46.175 -4.852 33.504 C-2.671 26.747 -2.338 20.308 -2.25 13.25 C-2.22 12.064 -2.191 10.878 -2.16 9.656 C-2.09 6.771 -2.037 3.886 -2 1 C-1.34 0.67 -0.68 0.34 0 0 Z " fill="#EDDEB6" transform="translate(244,114)"/>
<path d="M0 0 C0.66 0 1.32 0 2 0 C2.097 15.038 2.159 30.019 1.227 45.035 C0.385 59.769 0.385 59.769 2 63 C4.31 62.34 6.62 61.68 9 61 C9 61.66 9 62.32 9 63 C9.66 63 10.32 63 11 63 C11 62.34 11 61.68 11 61 C12.052 60.464 13.104 59.928 14.188 59.375 C16.94 57.824 18.796 56.293 20.75 53.812 C23 51 23 51 26 50 C26.66 51.32 27.32 52.64 28 54 C30.31 53.67 32.62 53.34 35 53 C34.907 53.299 34.907 53.299 34.438 54.812 C34 57 34 57 35 60 C35.99 60.33 36.98 60.66 38 61 C37.835 61.33 37.835 61.33 37 63 C37.99 62.835 37.99 62.835 43 62 C43.33 60.35 43.66 58.7 44 57 C44.66 56.835 44.66 56.835 48 56 C47.835 55.34 47.835 55.34 47 52 C47.66 51.835 47.66 51.835 51 51 C51 50.34 51 49.68 51 49 C51.66 49 52.32 49 53 49 C53.248 49.969 53.495 50.939 53.75 51.938 C55 55 55 55 56.938 55.938 C59 56 59 56 62 55 C62.688 52.937 62.688 52.937 63 51 C63.66 51 64.32 51 65 51 C64.67 50.01 64.34 49.02 64 48 C64.66 47.67 65.32 47.34 66 47 C66 47.66 66 48.32 66 49 C66.66 49 67.32 49 68 49 C67.67 49.99 67.34 50.98 67 52 C67.66 52.33 68.32 52.66 69 53 C69 52.34 69 51.68 69 51 C69.66 51.33 70.32 51.66 71 52 C71.625 54.062 71.625 54.062 72 56 C73.155 55.835 73.155 55.835 79 55 C79.33 54.01 79.66 53.02 80 52 C83.494 54.867 85.288 56.842 85.812 61.312 C85.874 62.529 85.936 63.746 86 65 C85.299 64.918 84.597 64.835 83.875 64.75 C79.277 65.15 76.306 67.886 72.875 70.812 C71 72 71 72 68.75 71.688 C68.173 71.461 67.595 71.234 67 71 C67.66 70.34 68.32 69.68 69 69 C69.33 69 69.66 69 70 69 C70 68.34 70 67.68 70 67 C64.631 66.675 60.039 68.32 55 70 C54.67 69.835 54.67 69.835 53 69 C53 68.34 53 67.68 53 67 C52.34 67.66 51.68 68.32 51 69 C51 69.66 51 70.32 51 71 C51.99 71.33 52.98 71.66 54 72 C56.457 76.268 56.162 80.221 56 85 C55.423 84.257 54.845 83.515 54.25 82.75 C50.358 77.994 47.405 74.498 41.031 73.777 C36.786 73.605 33.382 74.093 29.375 75.5 C21.973 77.921 11.999 79.031 4.812 75.438 C1.117 72.235 -1.529 68.784 -2.353 63.911 C-2.477 61.577 -2.476 59.275 -2.426 56.938 C-2.423 56.076 -2.42 55.215 -2.417 54.327 C-2.402 51.551 -2.358 48.776 -2.312 46 C-2.295 44.098 -2.279 42.197 -2.263 40.295 C-1.896 1.896 -1.896 1.896 0 0 Z M36 55 C38 56 38 56 38 56 Z " fill="#FB7CA9" transform="translate(147,41)"/>
<path d="M0 0 C5.109 4.713 6.151 10.349 6.434 17.047 C6.451 19.281 6.452 21.516 6.438 23.75 C6.457 24.853 6.477 25.957 6.498 27.094 C6.49 41.611 1.096 53.763 -8.812 64.312 C-21.623 76.336 -37.461 79.462 -54.449 79.211 C-67.056 78.789 -78.938 73.846 -88 65 C-94.409 57.41 -95.313 50.759 -95 41 C-94.34 41 -93.68 41 -93 41 C-92.914 41.58 -92.827 42.16 -92.738 42.758 C-91.68 48.643 -90.043 51.638 -86 56 C-86 56.66 -86 57.32 -86 58 C-82.7 58 -79.4 58 -76 58 C-76 58.66 -76 59.32 -76 60 C-75.34 60 -74.68 60 -74 60 C-73.67 58.68 -73.34 57.36 -73 56 C-72.505 56.165 -72.505 56.165 -70 57 C-70 58.32 -70 59.64 -70 61 C-68.68 61.33 -67.36 61.66 -66 62 C-66.33 62.825 -66.33 62.825 -68 67 C-67.505 66.835 -67.505 66.835 -65 66 C-64.34 66.66 -63.68 67.32 -63 68 C-60.398 67.977 -60.398 67.977 -57.375 67.625 C-56.372 67.514 -55.369 67.403 -54.336 67.289 C-53.565 67.194 -52.794 67.098 -52 67 C-51.835 66.505 -51.835 66.505 -51 64 C-50.67 64.66 -50.34 65.32 -50 66 C-49.01 65.67 -48.02 65.34 -47 65 C-46.67 65.99 -46.34 66.98 -46 68 C-46 66.35 -46 64.7 -46 63 C-44.907 63.165 -43.814 63.33 -42.688 63.5 C-39 64 -39 64 -36 64 C-35.67 64.66 -35.34 65.32 -35 66 C-34.835 65.505 -34.835 65.505 -34 63 C-30.767 61.383 -27.55 60.609 -24 60 C-24 59.34 -24 58.68 -24 58 C-23.34 58 -22.68 58 -22 58 C-22 57.34 -22 56.68 -22 56 C-21.34 56 -20.68 56 -20 56 C-19.67 56.66 -19.34 57.32 -19 58 C-17.661 56.882 -16.329 55.755 -15 54.625 C-14.257 53.999 -13.515 53.372 -12.75 52.727 C-12.173 52.157 -11.595 51.587 -11 51 C-11 50.34 -11 49.68 -11 49 C-11.66 48.67 -12.32 48.34 -13 48 C-12.722 47.907 -12.722 47.907 -11.312 47.438 C-8.361 45.603 -7.003 43.355 -5.148 40.461 C-4.959 40.22 -4.959 40.22 -4 39 C-3.34 39 -2.68 39 -2 39 C-2 37.35 -2 35.7 -2 34 C-1.34 34 -0.68 34 0 34 C0 33.34 0 32.68 0 32 C-0.66 31.67 -1.32 31.34 -2 31 C-1.35 30.601 -0.699 30.201 -0.029 29.79 C2 28 2 28 2.486 25.843 C2.478 25.023 2.469 24.204 2.461 23.359 C2.457 22.453 2.453 21.547 2.449 20.613 C2.425 19.668 2.4 18.724 2.375 17.75 C2.374 16.821 2.372 15.891 2.371 14.934 C2.303 9.591 1.745 5.053 0 0 Z M-50 63 C-48 64 -48 64 -48 64 Z " fill="#F9719C" transform="translate(236,104)"/>
<path d="M0 0 C0.703 -0.007 1.405 -0.013 2.129 -0.02 C4.46 -0.04 6.79 -0.051 9.12 -0.061 C9.916 -0.065 10.712 -0.069 11.532 -0.074 C15.747 -0.094 19.962 -0.109 24.177 -0.118 C28.526 -0.129 32.875 -0.164 37.224 -0.203 C40.571 -0.23 43.919 -0.238 47.266 -0.241 C48.869 -0.246 50.472 -0.258 52.074 -0.276 C54.322 -0.301 56.569 -0.3 58.816 -0.293 C59.455 -0.296 59.455 -0.296 62.688 -0.311 C66.818 0.268 68.947 1.57 72.167 4.177 C72.497 4.672 72.497 4.672 74.167 7.177 C73.837 7.837 73.507 8.497 73.167 9.177 C72.507 9.177 71.847 9.177 71.167 9.177 C71.167 12.807 71.167 16.437 71.167 20.177 C70.507 20.177 69.847 20.177 69.167 20.177 C69.043 20.651 69.043 20.651 68.417 23.052 C67.167 26.177 67.167 26.177 65.042 27.552 C64.423 27.758 63.804 27.965 63.167 28.177 C60.167 26.177 60.167 26.177 59.604 23.615 C59.532 23.212 59.532 23.212 59.167 21.177 C58.507 20.847 57.847 20.517 57.167 20.177 C57.167 20.837 57.167 21.497 57.167 22.177 C56.507 22.177 55.847 22.177 55.167 22.177 C55.167 22.837 55.167 23.497 55.167 24.177 C52.197 23.847 49.227 23.517 46.167 23.177 C46.497 22.517 46.827 21.857 47.167 21.177 C45.847 19.857 44.527 18.537 43.167 17.177 C43.497 16.517 43.827 15.857 44.167 15.177 C44.827 15.177 45.487 15.177 46.167 15.177 C46.167 14.517 46.167 13.857 46.167 13.177 C44.847 13.177 43.527 13.177 42.167 13.177 C40.152 12.557 38.148 11.897 36.167 11.177 C35.837 12.167 35.507 13.157 35.167 14.177 C33.229 14.99 33.229 14.99 31.167 15.177 C30.507 14.517 29.847 13.857 29.167 13.177 C30.817 11.857 32.467 10.537 34.167 9.177 C33.383 9.383 32.599 9.59 31.792 9.802 C30.926 9.926 30.059 10.05 29.167 10.177 C28.507 9.517 27.847 8.857 27.167 8.177 C26.177 8.507 25.187 8.837 24.167 9.177 C23.507 8.847 22.847 8.517 22.167 8.177 C22.167 7.517 22.167 6.857 22.167 6.177 C20.517 6.837 18.867 7.497 17.167 8.177 C17.167 7.847 17.167 7.517 17.167 7.177 C16.177 7.012 16.177 7.012 11.167 6.177 C10.837 6.837 10.507 7.497 10.167 8.177 C10.167 7.517 10.167 6.857 10.167 6.177 C9.878 6.352 9.878 6.352 8.417 7.24 C6.167 8.177 6.167 8.177 4.354 7.615 C0.809 6.905 -1.63 8.637 -4.833 10.177 C-4.833 11.167 -4.833 12.157 -4.833 13.177 C-5.493 13.507 -5.493 13.507 -8.833 15.177 C-8.833 15.837 -8.833 16.497 -8.833 17.177 C-9.493 17.177 -10.153 17.177 -10.833 17.177 C-10.833 24.767 -10.833 32.357 -10.833 40.177 C-11.493 40.177 -12.153 40.177 -12.833 40.177 C-12.482 40.94 -12.132 41.703 -11.771 42.49 C-10.485 47.545 -11.158 52.053 -11.833 57.177 C-12.493 57.177 -13.153 57.177 -13.833 57.177 C-13.833 41.997 -13.833 26.817 -13.833 11.177 C-14.493 11.177 -15.153 11.177 -15.833 11.177 C-14.438 6.737 -12.272 4.272 -8.833 1.177 C-5.897 -0.291 -3.278 0.025 0 0 Z " fill="#FC82AE" transform="translate(162.8330078125,29.822998046875)"/>
<path d="M0 0 C0.66 0 1.32 0 2 0 C2.097 15.038 2.159 30.019 1.227 45.035 C0.385 59.769 0.385 59.769 2 63 C4.31 62.34 6.62 61.68 9 61 C9 61.66 9 62.32 9 63 C9.66 63 10.32 63 11 63 C11 62.34 11 61.68 11 61 C11.278 61.144 11.278 61.144 12.688 61.875 C15.085 63.041 17.516 64.034 20 65 C20 65.66 20 66.32 20 67 C21.729 66.688 23.458 66.375 25.188 66.062 C25.669 65.975 25.669 65.975 28.105 65.535 C29.916 65.2 31.72 64.822 33.508 64.379 C36.469 63.929 38.757 64.291 41.688 64.875 C42.164 64.967 42.164 64.967 44.574 65.43 C47 66 47 66 49 67 C49 67.66 49 68.32 49 69 C49.66 69 50.32 69 51 69 C51 69.66 51 70.32 51 71 C51.99 71.33 52.98 71.66 54 72 C56.457 76.268 56.162 80.221 56 85 C55.423 84.257 54.845 83.515 54.25 82.75 C50.358 77.994 47.405 74.498 41.031 73.777 C36.786 73.605 33.382 74.093 29.375 75.5 C21.973 77.921 11.999 79.031 4.812 75.438 C1.117 72.235 -1.529 68.784 -2.353 63.911 C-2.477 61.577 -2.476 59.275 -2.426 56.938 C-2.423 56.076 -2.42 55.215 -2.417 54.327 C-2.402 51.551 -2.358 48.776 -2.312 46 C-2.295 44.098 -2.279 42.197 -2.263 40.295 C-1.896 1.896 -1.896 1.896 0 0 Z " fill="#FA719E" transform="translate(147,41)"/>
<path d="M0 0 C2 2 2 2 2.125 4.625 C2.084 5.409 2.042 6.193 2 7 C2.66 7 3.32 7 4 7 C4.889 12.461 5.346 17.916 5.742 23.434 C5.921 25.906 6.115 28.377 6.32 30.848 C6.421 32.094 6.521 33.341 6.625 34.625 C6.72 35.772 6.816 36.92 6.914 38.102 C7 41 7 41 6 44 C5.909 45.401 5.872 46.805 5.871 48.208 C5.867 49.053 5.864 49.898 5.861 50.768 C5.863 51.677 5.865 52.586 5.867 53.523 C5.867 53.993 5.867 53.993 5.864 56.367 C5.864 58.352 5.865 60.338 5.87 62.323 C5.875 65.356 5.87 68.389 5.863 71.422 C5.864 73.352 5.865 75.281 5.867 77.211 C5.865 78.116 5.863 79.022 5.861 79.954 C5.877 84.128 6.074 87.912 7 92 C6.835 92.763 6.67 93.526 6.5 94.312 C5.713 98.542 6.055 103.11 8 107 C7.67 107.33 7.67 107.33 6 109 C3.69 108.34 1.38 107.68 -1 107 C-1.023 93.344 -1.041 79.688 -1.052 66.033 C-1.057 59.692 -1.064 53.352 -1.075 47.012 C-1.086 40.897 -1.092 34.783 -1.095 28.669 C-1.097 26.332 -1.1 23.994 -1.106 21.657 C-1.113 18.393 -1.114 15.13 -1.114 11.866 C-1.115 11.378 -1.115 11.378 -1.124 8.912 C-1.123 8.026 -1.122 7.14 -1.12 6.227 C-1.121 5.454 -1.122 4.682 -1.123 3.886 C-1 2 -1 2 0 0 Z " fill="#F0DDB8" transform="translate(127,38)"/>
<path d="M0 0 C0.66 0.33 1.32 0.66 2 1 C2.786 22.583 2.786 22.583 -3.25 29.625 C-8.957 32.478 -15.772 32.251 -22.062 32.562 C-22.887 32.605 -23.712 32.647 -24.562 32.691 C-31.713 33.035 -38.841 33.105 -46 33 C-46 33.66 -46 34.32 -46 35 C-46.99 35.66 -47.98 36.32 -49 37 C-49.33 37.99 -49.66 38.98 -50 40 C-51.65 40 -53.3 40 -55 40 C-55.054 37.375 -55.094 34.751 -55.125 32.125 C-55.142 31.379 -55.159 30.632 -55.176 29.863 C-55.193 27.908 -55.103 25.953 -55 24 C-52.605 21.605 -52.077 21.747 -48.813 21.729 C-48.381 21.724 -48.381 21.724 -46.193 21.698 C-45.725 21.697 -45.725 21.697 -43.355 21.691 C-41.38 21.666 -39.404 21.641 -37.428 21.615 C-34.307 21.587 -31.187 21.562 -28.066 21.544 C-25.058 21.522 -22.051 21.483 -19.043 21.441 C-18.113 21.441 -17.182 21.441 -16.224 21.441 C-11.351 21.367 -7.926 21.219 -4 18 C-0.14 12.623 -0.3 6.394 0 0 Z " fill="#AA3F49" transform="translate(237,40)"/>
<path d="M0 0 C0.33 0 0.66 0 1 0 C1.644 18.57 0.471 32.44 -11.879 47.254 C-21.817 57.834 -35.636 63.669 -50.102 64.203 C-65.306 64.468 -78.017 62.115 -90.375 52.562 C-95.166 47.886 -98.495 43.9 -99 37 C-97 39 -97 39 -96 42 C-93.938 42.688 -93.938 42.688 -92 43 C-92 43.66 -92 44.32 -92 45 C-91.34 45 -90.68 45 -90 45 C-89.505 45.557 -89.01 46.114 -88.5 46.688 C-78.004 56.396 -63.253 57.666 -49.637 57.285 C-34.052 56.524 -22.431 50.455 -12 39 C-11.312 36.824 -11.312 36.824 -11 35 C-9.708 33.627 -8.376 32.29 -7 31 C-6.67 30.34 -6.34 29.68 -6 29 C-5.34 29 -4.68 29 -4 29 C-3.876 28.464 -3.752 27.928 -3.625 27.375 C-3 25 -3 25 -2 22.469 C-0.712 18 -0.542 13.753 -0.375 9.125 C-0.336 8.246 -0.298 7.367 -0.258 6.461 C-0.164 4.308 -0.081 2.154 0 0 Z " fill="#CA5764" transform="translate(241,119)"/>
<path d="M0 0 C2.12 3.534 2.532 6.944 3 11 C3.33 11 3.66 11 4 11 C4.027 13.375 4.047 15.75 4.062 18.125 C4.071 18.79 4.079 19.455 4.088 20.141 C4.108 24.207 3.789 28.012 3 32 C3.66 32 4.32 32 5 32 C4.436 35.381 3.561 37.969 2 41 C1.321 42.996 0.654 44.996 0 47 C-4.037 58.224 -14.04 67.099 -24.09 73.113 C-26.959 74.445 -29.88 74.647 -33 75 C-34.68 75.977 -36.349 76.974 -38 78 C-39.32 78 -40.64 78 -42 78 C-42.33 78.33 -42.66 78.66 -43 79 C-45.06 79.1 -47.125 79.13 -49.188 79.125 C-50.315 79.128 -51.443 79.13 -52.605 79.133 C-56 79 -56 79 -59.301 78.43 C-62 78 -62 78 -64 79 C-64.495 78.67 -64.495 78.67 -67 77 C-67 76.34 -67 75.68 -67 75 C-67.82 74.83 -68.64 74.66 -69.484 74.484 C-70.023 74.363 -70.023 74.363 -72.75 73.75 C-73.817 73.518 -74.885 73.286 -75.984 73.047 C-79.301 71.895 -80.698 70.59 -83 68 C-85.25 66.75 -85.25 66.75 -87 66 C-86.835 65.67 -86.835 65.67 -86 64 C-85.505 64.289 -85.505 64.289 -83 65.75 C-78.022 68.28 -72.781 69.445 -67.373 70.692 C-62.085 71.915 -62.085 71.915 -61 73 C-58.628 73.127 -56.251 73.176 -53.875 73.188 C-53.224 73.195 -53.224 73.195 -49.93 73.23 C-45.984 72.999 -42.762 72.16 -39 71 C-37.484 70.808 -35.962 70.655 -34.438 70.562 C-24.929 69.597 -18.243 62.749 -12 56 C-11.278 54.907 -10.556 53.814 -9.812 52.688 C-9.214 51.801 -8.616 50.914 -8 50 C-7.34 50 -6.68 50 -6 50 C-1.456 33.155 -0.984 18.414 -2 1 C-1.34 0.67 -0.68 0.34 0 0 Z " fill="#F1E0C0" transform="translate(244,114)"/>
<path d="M0 0 C0.33 0 0.66 0 1 0 C1.999 11.048 2.615 21.705 0.312 32.625 C0.152 33.411 -0.009 34.197 -0.175 35.007 C-1.231 39.479 -2.483 42.053 -6 45 C-7.012 46.659 -8.013 48.326 -9 50 C-10.562 51.812 -10.562 51.812 -12 53 C-12.66 53 -13.32 53 -14 53 C-14.262 53.596 -14.523 54.191 -14.793 54.805 C-17.133 59.06 -21.173 61.991 -25.375 64.312 C-28.424 65.111 -31.384 65.428 -34.523 65.656 C-37 66 -37 66 -40.328 67.012 C-48.615 69.242 -57.89 69.074 -65.887 65.852 C-68.263 64.894 -70.654 64.237 -73.125 63.562 C-77.545 62.264 -81.11 60.452 -85 58 C-84.34 57.34 -83.68 56.68 -83 56 C-82.455 56.266 -81.909 56.531 -81.348 56.805 C-65.17 64.382 -47.72 63.692 -31 58 C-18.282 52.89 -9.589 42.416 -3.719 30.371 C0.125 20.72 -0.167 10.248 0 0 Z " fill="#D7BE95" transform="translate(242,120)"/>
<path d="M0 0 C0 0.66 0 1.32 0 2 C0.87 1.993 1.741 1.987 2.637 1.98 C10.833 1.92 19.029 1.874 27.225 1.845 C31.439 1.829 35.653 1.808 39.866 1.774 C43.932 1.741 47.997 1.723 52.063 1.715 C53.615 1.71 55.167 1.699 56.719 1.683 C58.891 1.661 61.062 1.658 63.234 1.659 C63.852 1.656 63.852 1.656 66.982 1.639 C70 2 70 2 71.942 3.385 C73 5 73 5 72.688 7.188 C72.461 7.786 72.234 8.384 72 9 C71.835 8.67 71.835 8.67 71 7 C67.716 6.049 66.303 5.899 63 7 C62.67 6.835 62.67 6.835 61 6 C61 5.34 61 4.68 61 4 C60.447 4.036 59.893 4.071 59.323 4.108 C39.821 5.323 39.821 5.323 31 4 C30.67 5.65 30.34 7.3 30 9 C28.68 8.67 27.36 8.34 26 8 C26 7.34 26 6.68 26 6 C24.35 6.66 22.7 7.32 21 8 C21 7.67 21 7.34 21 7 C20.01 6.835 20.01 6.835 15 6 C14.67 6.66 14.34 7.32 14 8 C14 7.34 14 6.68 14 6 C13.711 6.175 13.711 6.175 12.25 7.062 C10 8 10 8 8.188 7.438 C4.642 6.728 2.203 8.46 -1 10 C-1 10.99 -1 11.98 -1 13 C-1.66 13.33 -1.66 13.33 -5 15 C-5 15.66 -5 16.32 -5 17 C-5.66 17 -6.32 17 -7 17 C-7 24.59 -7 32.18 -7 40 C-7.66 40 -8.32 40 -9 40 C-8.649 40.763 -8.299 41.526 -7.938 42.312 C-6.652 47.368 -7.325 51.876 -8 57 C-8.66 57 -9.32 57 -10 57 C-10 41.82 -10 26.64 -10 11 C-10.66 11 -11.32 11 -12 11 C-10.605 6.56 -8.439 4.095 -5 1 C-3 0 -3 0 0 0 Z " fill="#FB90B8" transform="translate(159,30)"/>
<path d="M0 0 C0.495 0.33 0.495 0.33 3 2 C3 2.66 3 3.32 3 4 C3.392 4.155 3.392 4.155 5.375 4.938 C8 6 8 6 10 7 C18.002 7.52 25.118 7.319 32.734 4.684 C38.181 3.04 43.12 3.331 48.312 5.625 C52.039 7.727 54.129 10.095 56 14 C55.75 16.375 55.75 16.375 55 18 C49.25 17.125 49.25 17.125 47 16 C47 16.66 47 17.32 47 18 C46.01 18.33 45.02 18.66 44 19 C44 18.34 44 17.68 44 17 C38.24 15.989 34.641 16.084 29 18 C24.299 19.149 24.299 19.149 22 18 C20.334 17.96 18.666 17.956 17 18 C17 16.68 17 15.36 17 14 C15.35 14 13.7 14 12 14 C12 13.34 12 12.68 12 12 C10.35 11.67 8.7 11.34 7 11 C7 10.34 7 9.68 7 9 C6.01 9 5.02 9 4 9 C3.67 8.01 3.34 7.02 3 6 C2.484 5.505 1.969 5.01 1.438 4.5 C0 3 0 3 0 0 Z " fill="#E3C8A5" transform="translate(146,110)"/>
<path d="M0 0 C0.33 0 0.66 0 1 0 C1.39 2.749 1.763 5.498 2.125 8.25 C2.237 9.027 2.349 9.805 2.465 10.605 C3.341 17.442 3.341 17.442 1 21 C0.773 22.134 0.546 23.269 0.312 24.438 C-1.037 28.102 -2.301 29.886 -5.602 31.996 C-11.364 34.408 -18.66 35.697 -24.809 34.414 C-25.532 34.277 -26.255 34.141 -27 34 C-27.639 34.66 -28.279 35.32 -28.938 36 C-29.618 36.66 -30.299 37.32 -31 38 C-33.01 37.731 -35.008 37.38 -37 37 C-40.121 36.736 -43.247 36.59 -46.375 36.438 C-47.206 36.394 -48.038 36.351 -48.895 36.307 C-50.93 36.201 -52.965 36.1 -55 36 C-54.688 34.062 -54.688 34.062 -54 32 C-53.01 31.67 -52.02 31.34 -51 31 C-51 30.34 -51 29.68 -51 29 C-50.037 28.945 -49.074 28.889 -48.082 28.832 C-44.483 28.625 -40.884 28.413 -37.285 28.2 C-35.733 28.109 -34.18 28.019 -32.627 27.93 C-30.385 27.801 -28.144 27.668 -25.902 27.535 C-25.217 27.497 -24.531 27.458 -23.824 27.418 C-11.801 26.69 -11.801 26.69 -9.188 24.438 C-8.796 23.963 -8.404 23.489 -8 23 C-7.34 23 -6.68 23 -6 23 C-5.897 22.031 -5.794 21.061 -5.688 20.062 C-5.054 15.514 -3.552 11.306 -2 7 C-1.67 7 -1.34 7 -1 7 C-0.67 4.69 -0.34 2.38 0 0 Z " fill="#E6CFAB" transform="translate(242,44)"/>
<path d="M0 0 C0.33 0 0.66 0 1 0 C1.108 3.043 1.188 6.081 1.25 9.125 C1.284 9.981 1.317 10.837 1.352 11.719 C1.438 17.334 0.9 20.648 -3 25 C-8.412 29.679 -13.058 29.573 -19.875 29.496 C-20.396 29.497 -20.396 29.497 -23.035 29.501 C-25.233 29.499 -27.432 29.487 -29.631 29.467 C-32.989 29.438 -36.345 29.446 -39.703 29.459 C-41.844 29.453 -43.984 29.444 -46.125 29.434 C-47.125 29.437 -48.125 29.439 -49.156 29.442 C-55.283 29.36 -60.041 28.829 -64.68 24.395 C-65.786 22.93 -66.893 21.465 -68 20 C-67.67 19.34 -67.34 18.68 -67 18 C-66.091 18.65 -65.182 19.3 -64.245 19.969 C-59.083 22.899 -53.88 22.556 -48.082 22.496 C-47.515 22.497 -47.515 22.497 -44.643 22.501 C-42.254 22.499 -39.864 22.487 -37.475 22.467 C-33.814 22.438 -30.155 22.446 -26.494 22.459 C-24.169 22.453 -21.844 22.444 -19.52 22.434 C-18.425 22.437 -17.33 22.439 -16.202 22.442 C-15.693 22.436 -15.693 22.436 -13.116 22.404 C-12.223 22.399 -11.329 22.393 -10.408 22.388 C-7.513 21.922 -6.136 20.976 -4 19 C-3.172 16.957 -3.172 16.957 -2.75 14.812 C-2.626 14.183 -2.626 14.183 -2 11 C-1.34 11 -0.68 11 0 11 C0 7.37 0 3.74 0 0 Z " fill="#CF9807" transform="translate(138,153)"/>
<path d="M0 0 C2 2 2 2 2.246 3.917 C2.244 4.704 2.242 5.492 2.241 6.303 C2.243 7.206 2.246 8.109 2.249 9.039 C2.242 10.033 2.234 11.026 2.227 12.049 C2.227 13.093 2.228 14.137 2.228 15.213 C2.227 18.676 2.211 22.139 2.195 25.602 C2.192 27.998 2.189 30.394 2.187 32.79 C2.179 39.106 2.159 45.422 2.137 51.738 C2.117 58.18 2.108 64.621 2.098 71.062 C2.076 83.708 2.042 96.354 2 109 C0.68 109 -0.64 109 -2 109 C-3.578 103.25 -4.073 98.958 -3 93 C-3.33 92.01 -3.66 91.02 -4 90 C-4.096 87.302 -4.139 84.635 -4.125 81.938 C-4.129 81.205 -4.133 80.472 -4.137 79.717 C-4.127 74.253 -4.127 74.253 -3 72 C-2.798 70.337 -2.636 68.669 -2.5 67 C-2.111 62.222 -2.111 62.222 -1 60 C-0.915 58.449 -0.893 56.895 -0.902 55.342 C-0.906 54.373 -0.909 53.405 -0.912 52.407 C-0.921 51.355 -0.929 50.303 -0.938 49.219 C-0.941 48.135 -0.945 47.052 -0.949 45.936 C-0.965 41.293 -0.993 36.65 -1.021 32.007 C-1.039 28.619 -1.051 25.231 -1.062 21.844 C-1.071 20.808 -1.079 19.772 -1.088 18.705 C-1.109 12.405 -0.765 6.254 0 0 Z " fill="#E8A90B" transform="translate(124,36)"/>
<path d="M0 0 C0.66 0 1.32 0 2 0 C2.086 0.687 2.173 1.374 2.262 2.082 C3.407 9.423 3.407 9.423 6.188 12.125 C9.584 13.182 12.458 13.129 16 13 C18.438 13.5 18.438 13.5 20 14 C20 13.34 20 12.68 20 12 C21.688 10.312 21.688 10.312 24 9 C26.645 9.418 26.645 9.418 29 10 C28.934 10.973 28.869 11.946 28.801 12.949 C27.889 27.331 27.671 41.718 27.438 56.125 C27.394 58.645 27.351 61.164 27.307 63.684 C27.201 69.789 27.099 75.894 27 82 C26.67 82 26.34 82 26 82 C25.67 63.19 25.34 44.38 25 25 C23.02 25 21.04 25 19 25 C11.97 23.454 6.102 20.711 1.625 14.938 C-0.858 10.238 -0.336 5.166 0 0 Z " fill="#F9C906" transform="translate(60,62)"/>
<path d="M0 0 C3.77 2.558 6.619 4.724 9.16 8.535 C9.418 11.23 9.249 13.821 9.16 16.535 C8.583 15.793 8.005 15.05 7.41 14.285 C3.518 9.529 0.565 6.033 -5.809 5.312 C-10.054 5.141 -13.458 5.629 -17.465 7.035 C-24.62 9.375 -33.01 9.97 -40.285 7.809 C-43.266 6.274 -44.73 4.746 -46.277 1.785 C-46.463 1.043 -46.649 0.3 -46.84 -0.465 C-46.246 -0.32 -45.651 -0.176 -45.039 -0.027 C-36.305 1.929 -28.534 2.405 -19.84 0.035 C-12.993 -1.787 -6.565 -3.386 0 0 Z " fill="#D44B69" transform="translate(193.83984375,109.46484375)"/>
<path d="M0 0 C0.99 0.33 1.98 0.66 3 1 C2.979 2.114 2.959 3.228 2.938 4.375 C3 8 3 8 4 10 C6.062 11.125 6.062 11.125 8 12 C4.25 13.125 4.25 13.125 2 12 C1.67 14.97 1.34 17.94 1 21 C0.01 20.67 -0.98 20.34 -2 20 C-2.165 20.495 -2.165 20.495 -3 23 C-4.333 24.333 -5.667 25.667 -7 27 C-9 27 -11 27 -13 27 C-16.375 28 -16.375 28 -19 29 C-19.33 28.34 -19.66 27.68 -20 27 C-20.949 27.021 -21.898 27.041 -22.875 27.062 C-26 27 -26 27 -28 26 C-28 25.34 -28 24.68 -28 24 C-28.66 24 -29.32 24 -30 24 C-30.33 24.66 -30.66 25.32 -31 26 C-31.33 25.01 -31.66 24.02 -32 23 C-33.32 23.33 -34.64 23.66 -36 24 C-36 22.35 -36 20.7 -36 19 C-36.99 18.67 -37.98 18.34 -39 18 C-39 17.01 -39 16.02 -39 15 C-35.788 15.626 -33.608 16.793 -30.875 18.562 C-25.961 21.373 -21.573 21.914 -16 21 C-10.707 18.819 -7.254 14.585 -4 10 C-3.464 9.381 -2.928 8.762 -2.375 8.125 C-0.651 5.46 -0.355 3.124 0 0 Z " fill="#FC91B6" transform="translate(206,124)"/>
<path d="M0 0 C0 0.33 0 0.66 0 1 C0.524 1.007 0.524 1.007 3.176 1.043 C4.555 1.09 5.934 1.138 7.312 1.188 C8.003 1.193 8.693 1.199 9.404 1.205 C11.426 1.293 11.426 1.293 15 2 C16.98 4.551 16.98 4.551 18 7 C17.526 6.969 17.526 6.969 15.125 6.812 C14.609 6.843 14.609 6.843 12 7 C11.34 7.99 10.68 8.98 10 10 C9.34 9.67 8.68 9.34 8 9 C8.33 8.34 8.66 7.68 9 7 C7.721 7.186 6.442 7.371 5.125 7.562 C1.25 8.125 1.25 8.125 -1 7 C-1.66 7.66 -2.32 8.32 -3 9 C-5.625 9.625 -5.625 9.625 -8 10 C-8 9.01 -8 8.02 -8 7 C-11.147 8.049 -11.773 8.726 -14 11 C-15.713 12.273 -17.444 13.52 -19.188 14.75 C-33.232 24.907 -33.232 24.907 -36 32 C-36.33 32 -36.66 32 -37 32 C-37.312 29.312 -37.312 29.312 -37 26 C-34.875 23.438 -34.875 23.438 -32 21 C-31.473 20.531 -30.946 20.062 -30.402 19.578 C-26.312 16 -26.312 16 -24 16 C-23.794 15.109 -23.588 14.219 -23.375 13.301 C-21.653 9.166 -19.634 7.751 -16 5.188 C-15.453 4.794 -14.907 4.4 -14.344 3.994 C-9 0.176 -6.45 -0.104 0 0 Z " fill="#FDE73C" transform="translate(101,29)"/>
<path d="M0 0 C0.33 0 0.66 0 1 0 C3.509 10.977 3.256 21.894 3.195 33.078 C3.192 35.101 3.189 37.124 3.187 39.147 C3.179 44.434 3.16 49.721 3.137 55.008 C3.117 60.418 3.108 65.828 3.098 71.238 C3.076 81.826 3.042 92.413 3 103 C2.01 103 1.02 103 0 103 C0 69.01 0 35.02 0 0 Z " fill="#D9BC8B" transform="translate(126,42)"/>
<path d="M0 0 C0.33 0 0.66 0 1 0 C1.027 2.979 1.047 5.958 1.062 8.938 C1.071 9.788 1.079 10.638 1.088 11.514 C1.091 12.323 1.094 13.131 1.098 13.965 C1.103 14.714 1.108 15.463 1.114 16.234 C1 18 1 18 0 19 C-0.243 21.255 -0.383 23.509 -0.523 25.773 C-1.084 28.391 -1.97 29.317 -4 31 C-3.491 26.505 -2.836 22.121 -1.938 17.688 C-1.002 12.77 -0.865 8.112 -1.027 3.117 C-1 1 -1 1 0 0 Z M-5 31 C-4.835 31.33 -4.835 31.33 -4 33 C-6.309 38.923 -9.008 42.29 -13.914 46.266 C-16.586 48.487 -18.909 50.968 -21.262 53.52 C-29.321 60.384 -47.029 61.433 -57.148 60.883 C-63.333 60.285 -69.146 59.103 -75 57 C-75.887 56.691 -76.774 56.381 -77.688 56.062 C-80.061 54.972 -81.217 53.861 -83 52 C-85.188 50.812 -85.188 50.812 -87 50 C-86.67 49.34 -86.34 48.68 -86 48 C-85.505 48.289 -85.505 48.289 -83 49.75 C-78.022 52.28 -72.781 53.445 -67.373 54.692 C-62.085 55.915 -62.085 55.915 -61 57 C-58.628 57.127 -56.251 57.176 -53.875 57.188 C-52.573 57.202 -51.271 57.216 -49.93 57.23 C-45.984 56.999 -42.762 56.16 -39 55 C-37.484 54.808 -35.962 54.655 -34.438 54.562 C-24.929 53.597 -18.243 46.749 -12 40 C-11.278 38.907 -10.556 37.814 -9.812 36.688 C-9.214 35.801 -8.616 34.914 -8 34 C-7.34 34 -6.68 34 -6 34 C-5.67 33.01 -5.34 32.02 -5 31 Z " fill="#E2CDA7" transform="translate(244,130)"/>
<path d="M0 0 C0.66 0.33 1.32 0.66 2 1 C1.749 17.235 1.749 17.235 -4 23 C-6.915 24.729 -9.028 25.247 -12.401 25.227 C-12.832 25.227 -12.832 25.227 -15.009 25.227 C-15.929 25.216 -16.849 25.206 -17.797 25.195 C-18.746 25.192 -19.694 25.19 -20.672 25.187 C-23.698 25.176 -26.724 25.15 -29.75 25.125 C-31.803 25.115 -33.857 25.106 -35.91 25.098 C-40.94 25.076 -45.97 25.041 -51 25 C-49 23 -49 23 -45.945 22.945 C-44.685 23.005 -43.424 23.064 -42.125 23.125 C-34.993 23.309 -28.409 22.41 -22 19 C-21.67 18.01 -21.34 17.02 -21 16 C-20.01 16.33 -19.02 16.66 -18 17 C-18 16.34 -18 15.68 -18 15 C-17.34 15 -16.68 15 -16 15 C-16 14.34 -16 13.68 -16 13 C-15.175 13.165 -15.175 13.165 -11 14 C-11.66 14.33 -12.32 14.66 -13 15 C-12.835 15.66 -12.835 15.66 -12 19 C-10.68 19.33 -9.36 19.66 -8 20 C-6.68 17.69 -5.36 15.38 -4 13 C-3.34 13 -2.68 13 -2 13 C-2.186 12.113 -2.371 11.226 -2.562 10.312 C-2.98 7.148 -2.808 5.052 -2 2 C-1.34 2 -0.68 2 0 2 C0 1.34 0 0.68 0 0 Z " fill="#FC79A5" transform="translate(236,37)"/>
<path d="M0 0 C0.33 0 0.66 0 1 0 C1.195 2.437 1.381 4.874 1.562 7.312 C1.591 7.658 1.591 7.658 1.732 9.404 C1.966 12.625 2.032 14.903 1 18 C0.34 18 -0.32 18 -1 18 C-1.144 18.299 -1.144 18.299 -1.875 19.812 C-4.435 24.79 -4.435 24.79 -6.94 25.722 C-15.39 27.238 -23.751 27.305 -32.308 27.261 C-34.825 27.25 -37.341 27.261 -39.857 27.273 C-41.474 27.272 -43.09 27.27 -44.707 27.266 C-45.451 27.27 -46.195 27.274 -46.961 27.278 C-51.348 27.239 -54.921 26.616 -59 25 C-58.67 24.01 -58.34 23.02 -58 22 C-57.706 22.004 -57.706 22.004 -56.218 22.027 C-50.086 22.116 -43.954 22.176 -37.822 22.22 C-35.535 22.24 -33.247 22.267 -30.96 22.302 C-27.669 22.35 -24.378 22.373 -21.086 22.391 C-20.576 22.401 -20.576 22.401 -17.998 22.453 C-11.992 22.455 -8.572 22.004 -4 18 C-0.985 14.175 -0.555 10.993 -0.312 6.188 C-0.247 5.026 -0.181 3.865 -0.113 2.668 C-0.076 1.788 -0.039 0.907 0 0 Z " fill="#CDB47C" transform="translate(139,159)"/>
<path d="M0 0 C0.66 0.33 1.32 0.66 2 1 C1.505 1.33 1.505 1.33 -1 3 C-0.67 2.01 -0.34 1.02 0 0 Z M-3 3 C-2.34 3.33 -1.68 3.66 -1 4 C-2.628 7.351 -4.239 9.313 -7.312 11.312 C-11.465 14.095 -14.521 17.66 -17 22 C-17 22.99 -17 23.98 -17 25 C-19.647 26.461 -20.894 27 -24 27 C-24 27.66 -24 28.32 -24 29 C-23.01 29.33 -22.02 29.66 -21 30 C-22.65 30.99 -24.3 31.98 -26 33 C-27.461 30.353 -28 29.106 -28 26 C-28.66 26 -29.32 26 -30 26 C-30 28.64 -30 31.28 -30 34 C-30.33 34 -30.66 34 -31 34 C-31.571 27.805 -31.426 23.181 -27.762 18.016 C-23.119 12.704 -17.682 8.16 -12 4 C-11.34 4.33 -10.68 4.66 -10 5 C-13.046 8.242 -16.111 10.804 -19.75 13.375 C-23.761 16.401 -23.761 16.401 -24.801 19.004 C-25.062 20.938 -25.062 20.938 -25 24 C-24.845 23.587 -24.845 23.587 -24.062 21.5 C-19.935 13.302 -10.393 7.939 -3 3 Z " fill="#FDE128" transform="translate(90,36)"/>
<path d="M0 0 C0.66 0 1.32 0 2 0 C2 2.97 2 5.94 2 9 C4.97 9 7.94 9 11 9 C11 8.34 11 7.68 11 7 C11.66 7 12.32 7 13 7 C13.33 6.01 13.66 5.02 14 4 C14.66 4.33 15.32 4.66 16 5 C15.814 5.969 15.629 6.939 15.438 7.938 C15.293 8.948 15.149 9.959 15 11 C15.33 11.33 15.66 11.66 16 12 C16.33 11.34 16.66 10.68 17 10 C17.66 10.33 18.32 10.66 19 11 C18.67 11.66 18.34 12.32 18 13 C19.32 13.33 20.64 13.66 22 14 C21.67 14.165 21.67 14.165 20 15 C20.99 15.66 21.98 16.32 23 17 C22.526 17.433 22.051 17.866 21.562 18.312 C20 20 20 20 19 23 C17.02 22.67 17.02 22.67 7 21 C6.67 19.68 6.34 18.36 6 17 C4.675 16.316 3.341 15.65 2 15 C0.261 12.16 -0.352 9.667 -0.688 6.375 C-0.774 5.599 -0.86 4.823 -0.949 4.023 C-1 2 -1 2 0 0 Z " fill="#FB77A4" transform="translate(143,141)"/>
<path d="M0 0 C0.99 0 1.98 0 3 0 C3 0.66 3 1.32 3 2 C3.87 1.993 4.741 1.987 5.637 1.98 C13.833 1.92 22.029 1.874 30.225 1.845 C34.439 1.829 38.653 1.808 42.866 1.774 C46.932 1.741 50.997 1.723 55.063 1.715 C56.615 1.71 58.167 1.699 59.719 1.683 C61.891 1.661 64.062 1.658 66.234 1.659 C66.852 1.656 66.852 1.656 69.982 1.639 C73 2 73 2 74.942 3.385 C76 5 76 5 75.688 7.188 C75.461 7.786 75.234 8.384 75 9 C74.835 8.67 74.835 8.67 74 7 C70.716 6.049 69.303 5.899 66 7 C65.67 6.835 65.67 6.835 64 6 C64 5.34 64 4.68 64 4 C63.447 4.036 62.893 4.071 62.323 4.108 C42.821 5.323 42.821 5.323 34 4 C33.67 4.66 33.34 5.32 33 6 C33 5.34 33 4.68 33 4 C32.713 4.036 32.713 4.036 31.262 4.219 C26.564 4.732 21.94 5.034 17.215 4.961 C16.377 4.949 15.539 4.936 14.675 4.924 C12.996 4.892 11.318 4.846 9.639 4.787 C3.816 4.677 0.551 5.625 -3.812 9.688 C-4.204 10.121 -4.596 10.554 -5 11 C-4.694 7.326 -4.242 6.219 -1.438 3.688 C-0.633 3.131 0.171 2.574 1 2 C0.67 1.34 0.34 0.68 0 0 Z " fill="#FDA4C8" transform="translate(156,30)"/>
<path d="M0 0 C0.66 0 1.32 0 2 0 C2.086 0.58 2.173 1.16 2.262 1.758 C3.297 7.512 4.874 10.682 9 15 C9.681 16.011 10.361 17.021 11.062 18.062 C14.198 21.891 18.646 23.214 23.16 24.922 C26 26 26 26 28.031 27.105 C30.534 28.243 32.701 28.384 35.438 28.562 C40.697 28.921 40.697 28.921 43.277 29.594 C47.338 30.2 51.089 29.567 55.125 28.938 C55.969 28.808 56.812 28.679 57.682 28.546 C63.848 27.479 68.715 25.601 73.969 22.109 C74.639 21.743 75.309 21.377 76 21 C76.495 21.165 76.495 21.165 79 22 C72.788 29.032 61.951 31.538 52.936 32.137 C37.908 32.901 23.575 31.156 11 22 C10.67 21.01 10.34 20.02 10 19 C9.34 19 8.68 19 8 19 C8 18.34 8 17.68 8 17 C6.35 16.67 4.7 16.34 3 16 C2.67 14.35 2.34 12.7 2 11 C1.34 11 0.68 11 0 11 C0 7.37 0 3.74 0 0 Z " fill="#EE5981" transform="translate(141,145)"/>
<path d="M0 0 C0.165 0.66 0.165 0.66 1 4 C-5.005 9.641 -12.244 9.175 -20.062 9.562 C-20.887 9.605 -21.712 9.647 -22.562 9.691 C-29.713 10.035 -36.841 10.105 -44 10 C-44 10.66 -44 11.32 -44 12 C-44.99 12.66 -45.98 13.32 -47 14 C-47.33 14.99 -47.66 15.98 -48 17 C-48.99 17 -49.98 17 -51 17 C-51 13.37 -51 9.74 -51 6 C-50.364 5.993 -50.364 5.993 -47.148 5.956 C-42.418 5.898 -37.688 5.82 -32.958 5.738 C-30.913 5.704 -28.869 5.676 -26.824 5.654 C-23.88 5.62 -20.936 5.568 -17.992 5.512 C-17.083 5.505 -16.173 5.499 -15.236 5.492 C-9.099 5.351 -4.521 4.521 0 0 Z " fill="#C8A27B" transform="translate(235,63)"/>
<path d="M0 0 C0.66 0.66 1.32 1.32 2 2 C-0.65 8.291 -4.573 13.008 -9.312 17.812 C-9.579 18.088 -9.579 18.088 -10.927 19.481 C-17.433 25.894 -23.907 28.506 -32.938 29.25 C-33.685 29.327 -34.432 29.405 -35.201 29.484 C-49.896 30.904 -49.896 30.904 -55 28 C-53.489 26.489 -52.058 26.753 -49.949 26.605 C-33.441 25.304 -18.409 22.452 -6.539 9.879 C-4.012 6.794 -1.955 3.469 0 0 Z " fill="#CDAD85" transform="translate(235,156)"/>
<path d="M0 0 C2 2 2 2 2.188 3.953 C1.744 9.384 0.631 12.233 -3.43 15.906 C-7.932 19.042 -13.858 18.309 -19.133 18.43 C-24.434 18.641 -28.098 19.841 -33 22 C-36.859 22.477 -36.859 22.477 -40.75 22.625 C-47.754 22.918 -47.754 22.918 -51 24 C-50.688 22.062 -50.688 22.062 -50 20 C-49.01 19.67 -48.02 19.34 -47 19 C-47 18.34 -47 17.68 -47 17 C-46.037 16.945 -45.074 16.889 -44.082 16.832 C-40.483 16.625 -36.884 16.413 -33.285 16.2 C-31.733 16.109 -30.18 16.019 -28.627 15.93 C-26.385 15.801 -24.144 15.668 -21.902 15.535 C-21.217 15.497 -20.531 15.458 -19.824 15.418 C-7.801 14.69 -7.801 14.69 -5.188 12.438 C-4.796 11.963 -4.404 11.489 -4 11 C-3.34 11 -2.68 11 -2 11 C-1.856 9.927 -1.711 8.855 -1.562 7.75 C-1.163 5.083 -0.724 2.586 0 0 Z " fill="#E1C6A1" transform="translate(238,56)"/>
<path d="M0 0 C0.66 0.33 1.32 0.66 2 1 C2.054 3.375 2.094 5.749 2.125 8.125 C2.142 8.79 2.159 9.455 2.176 10.141 C2.218 14.488 1.722 18 0 22 C-1.938 23.25 -1.938 23.25 -4 24 C-4.99 24.66 -5.98 25.32 -7 26 C-9.48 26.195 -9.48 26.195 -12.188 26.125 C-13.089 26.107 -13.99 26.089 -14.918 26.07 C-15.605 26.047 -16.292 26.024 -17 26 C-17 25.34 -17 24.68 -17 24 C-20.979 23.971 -24.958 23.953 -28.938 23.938 C-30.074 23.929 -31.21 23.921 -32.381 23.912 C-33.46 23.909 -34.54 23.906 -35.652 23.902 C-36.653 23.897 -37.653 23.892 -38.683 23.886 C-41 24 -41 24 -42 25 C-43.849 25.234 -45.705 25.413 -47.562 25.562 C-48.46 25.635 -48.46 25.635 -53 26 C-53 30.62 -53 35.24 -53 40 C-53.66 40 -54.32 40 -55 40 C-55.054 37.375 -55.094 34.751 -55.125 32.125 C-55.142 31.379 -55.159 30.632 -55.176 29.863 C-55.193 27.908 -55.103 25.953 -55 24 C-52.605 21.605 -52.077 21.747 -48.813 21.729 C-48.381 21.724 -48.381 21.724 -46.193 21.698 C-45.725 21.697 -45.725 21.697 -43.355 21.691 C-41.38 21.666 -39.404 21.641 -37.428 21.615 C-34.307 21.587 -31.187 21.562 -28.066 21.544 C-25.058 21.522 -22.051 21.483 -19.043 21.441 C-18.113 21.441 -17.182 21.441 -16.224 21.441 C-11.351 21.367 -7.926 21.219 -4 18 C-0.14 12.623 -0.3 6.394 0 0 Z " fill="#CD5268" transform="translate(237,40)"/>
<path d="M0 0 C0.392 0.382 0.392 0.382 2.375 2.312 C6.43 5.706 10.952 6.742 16 8 C18.367 8.607 20.67 9.256 23 10 C24.286 12.571 24.12 14.397 24.114 17.276 C24.113 18.377 24.113 19.478 24.113 20.612 C24.108 21.805 24.103 22.998 24.098 24.227 C24.096 25.445 24.095 26.662 24.093 27.917 C24.088 31.82 24.075 35.722 24.062 39.625 C24.057 42.266 24.053 44.906 24.049 47.547 C24.038 54.031 24.021 60.516 24 67 C23.67 67 23.34 67 23 67 C22.67 50.83 22.34 34.66 22 18 C20.02 17.67 18.04 17.34 16 17 C16 16.34 16 15.68 16 15 C15.34 15 14.68 15 14 15 C14 14.34 14 13.68 14 13 C11.36 12.67 8.72 12.34 6 12 C5.67 10.68 5.34 9.36 5 8 C4.34 8 3.68 8 3 8 C3 7.34 3 6.68 3 6 C2.34 6 1.68 6 1 6 C0.34 4.35 -0.32 2.7 -1 1 C-0.67 0.67 -0.34 0.34 0 0 Z " fill="#E5C77D" transform="translate(62,77)"/>
<path d="M0 0 C9.9 0 19.8 0 30 0 C30 0.66 30 1.32 30 2 C30.99 2.33 31.98 2.66 33 3 C32.67 3.66 32.34 4.32 32 5 C30.762 4.794 29.525 4.587 28.25 4.375 C24.881 3.939 22.872 3.966 20 6 C20.66 6.66 21.32 7.32 22 8 C18.585 8.854 16.351 9.081 13 8 C12.257 7.814 11.515 7.629 10.75 7.438 C10.173 7.293 9.595 7.149 9 7 C8.67 7.99 8.34 8.98 8 10 C6.062 10.812 6.062 10.812 4 11 C3.34 10.34 2.68 9.68 2 9 C3.65 7.68 5.3 6.36 7 5 C5.35 5.33 3.7 5.66 2 6 C0 2.25 0 2.25 0 0 Z " fill="#FC88B2" transform="translate(190,34)"/>
<path d="M0 0 C0.567 0.33 0.567 0.33 3.438 2 C3.438 2.99 3.438 3.98 3.438 5 C2.822 4.995 2.207 4.99 1.573 4.984 C-1.222 4.963 -4.017 4.95 -6.812 4.938 C-7.781 4.929 -8.749 4.921 -9.746 4.912 C-10.681 4.909 -11.615 4.906 -12.578 4.902 C-13.008 4.9 -13.008 4.9 -15.181 4.886 C-17.462 4.995 -19.362 5.429 -21.562 6 C-26.104 6.144 -30.133 6.107 -34.562 5 C-34.562 4.01 -34.562 3.02 -34.562 2 C-34.223 1.981 -34.223 1.981 -32.508 1.887 C-27.591 1.539 -23.126 1 -18.438 -0.562 C-11.783 -2.689 -6.374 -3.148 0 0 Z " fill="#BE8E6E" transform="translate(194.5625,116)"/>
<path d="M0 0 C0 3.559 -0.454 3.885 -2.875 6.312 C-15.588 18.389 -31.52 21.461 -48.449 21.211 C-61.067 20.788 -72.913 15.842 -82 7 C-82 6.34 -82 5.68 -82 5 C-79.639 6.049 -77.851 7.127 -75.875 8.812 C-62.85 18.723 -47.761 19.192 -32 18 C-27.633 17.218 -23.98 15.933 -20 14 C-18.891 13.479 -17.783 12.958 -16.641 12.422 C-10.077 9.125 -4.729 5.658 0 0 Z " fill="#96473D" transform="translate(230,162)"/>
<path d="M0 0 C0.33 0.99 0.66 1.98 1 3 C-0.438 5.688 -0.438 5.688 -2 8 C-2.33 7.34 -2.66 6.68 -3 6 C-2.066 3.969 -1.068 1.965 0 0 Z M-6 10 C-5.34 10.33 -4.68 10.66 -4 11 C-5.967 12.967 -7.935 14.934 -9.906 16.898 C-11.519 18.517 -13.109 20.16 -14.688 21.812 C-19.318 26.193 -22.771 27.11 -29 28 C-30.68 28.977 -32.349 29.974 -34 31 C-35.32 31 -36.64 31 -38 31 C-38.33 31.33 -38.66 31.66 -39 32 C-41.06 32.1 -43.125 32.13 -45.188 32.125 C-46.315 32.128 -47.443 32.13 -48.605 32.133 C-52 32 -52 32 -55.301 31.43 C-58 31 -58 31 -60 32 C-60.99 31.34 -61.98 30.68 -63 30 C-63 29.34 -63 28.68 -63 28 C-58.991 27.928 -55.412 27.929 -51.445 28.613 C-45.949 29.331 -40.78 28.25 -35.375 27.25 C-34.364 27.08 -33.354 26.91 -32.312 26.734 C-23.318 25.129 -17.891 22.38 -11.625 15.812 C-11.08 15.254 -10.534 14.695 -9.973 14.119 C-8.641 12.753 -7.32 11.377 -6 10 Z " fill="#ECDAB6" transform="translate(240,161)"/>
<path d="M0 0 C2 2 2 2 3 5 C5.062 5.688 5.062 5.688 7 6 C7 6.66 7 7.32 7 8 C7.66 8 8.32 8 9 8 C9.495 8.557 9.99 9.114 10.5 9.688 C20.957 19.36 35.627 20.638 49.195 20.305 C55.962 19.986 62.439 18.648 69 17 C63.824 22.572 56.174 22.908 48.906 23.238 C33.38 23.63 21.203 20.596 8 12 C7.102 11.496 6.203 10.992 5.277 10.473 C2.207 8.487 1.328 6.355 0 3 C0 2.01 0 1.02 0 0 Z " fill="#D34465" transform="translate(142,156)"/>
<path d="M0 0 C0.165 0.66 0.165 0.66 1 4 C-6.622 10.152 -13.118 12.769 -23 13 C-23.66 12.67 -24.32 12.34 -25 12 C-25 11.34 -25 10.68 -25 10 C-25.66 10 -26.32 10 -27 10 C-27.33 10.66 -27.66 11.32 -28 12 C-28.33 11.01 -28.66 10.02 -29 9 C-30.32 9.33 -31.64 9.66 -33 10 C-33 8.35 -33 6.7 -33 5 C-33.99 4.67 -34.98 4.34 -36 4 C-36 3.01 -36 2.02 -36 1 C-32.788 1.626 -30.608 2.793 -27.875 4.562 C-22.91 7.415 -18.622 7.71 -13 7 C-12.01 6.67 -11.02 6.34 -10 6 C-9.515 5.959 -9.515 5.959 -7.062 5.75 C-3.2 4.804 -2.161 3.241 0 0 Z " fill="#FC89B4" transform="translate(203,138)"/>
<path d="M0 0 C4.1 3.776 5.818 8.194 6.174 13.692 C6.144 16.66 6.002 19.6 5.812 22.562 C5.79 23.064 5.79 23.064 5.678 25.6 C5.317 32.367 4.838 38.243 1 44 C0.34 44 -0.32 44 -1 44 C-1.268 44.804 -1.536 45.609 -1.812 46.438 C-2.204 47.283 -2.596 48.129 -3 49 C-3.495 49.165 -3.495 49.165 -6 50 C-6.021 50.681 -6.041 51.361 -6.062 52.062 C-7.449 56.408 -10.475 59.175 -14 62 C-14.66 62 -15.32 62 -16 62 C-16 61.34 -16 60.68 -16 60 C-15.34 60 -14.68 60 -14 60 C-13.67 58.68 -13.34 57.36 -13 56 C-12.34 56 -11.68 56 -11 56 C-11 55.34 -11 54.68 -11 54 C-10.01 54 -9.02 54 -8 54 C-7.876 53.031 -7.752 52.061 -7.625 51.062 C-7.419 50.052 -7.213 49.041 -7 48 C-6.67 47.835 -6.67 47.835 -5 47 C-4.278 45.356 -3.606 43.689 -3 42 C-2.01 42 -1.02 42 0 42 C0.03 41.662 0.03 41.662 0.184 39.953 C0.267 39.061 0.351 38.169 0.438 37.25 C0.478 36.809 0.478 36.809 0.684 34.578 C1 32 1 32 1.509 30.135 C2.447 26.056 2.185 21.854 2.188 17.688 C2.194 17.225 2.194 17.225 2.225 14.885 C2.236 9.518 1.77 5.073 0 0 Z " fill="#EB637F" transform="translate(236,104)"/>
<path d="M0 0 C0.66 0.33 1.32 0.66 2 1 C2 5.29 2 9.58 2 14 C1.34 14 0.68 14 0 14 C-0.031 14.619 -0.031 14.619 -0.188 17.75 C-0.336 20.725 -0.842 21.816 -2.812 24.101 C-7.645 26.98 -12.196 26.572 -17.723 26.531 C-18.291 26.533 -18.291 26.533 -21.17 26.543 C-23.571 26.546 -25.973 26.538 -28.374 26.521 C-32.053 26.5 -35.73 26.521 -39.408 26.547 C-41.742 26.544 -44.076 26.539 -46.41 26.531 C-47.511 26.539 -48.612 26.547 -49.747 26.556 C-50.771 26.543 -51.796 26.531 -52.852 26.518 C-53.752 26.514 -54.651 26.511 -55.579 26.508 C-58.724 25.848 -59.95 24.403 -62 22 C-58.284 21.799 -57.228 21.848 -54 24 C-48.871 24.442 -43.7 24.283 -38.625 23.438 C-35.056 23.007 -32.072 23.184 -28.5 23.5 C-20.876 24.148 -13.603 23.692 -6 23 C-5.734 22.374 -5.469 21.747 -5.195 21.102 C-4.842 20.284 -4.489 19.467 -4.125 18.625 C-3.777 17.813 -3.429 17.001 -3.07 16.164 C-2 14 -2 14 0 12 C0.195 9.18 0.195 9.18 0.125 5.875 C0.107 4.779 0.089 3.684 0.07 2.555 C0.047 1.712 0.024 0.869 0 0 Z " fill="#F3BF03" transform="translate(136,150)"/>
<path d="M0 0 C0.33 0 0.66 0 1 0 C1 8.25 1 16.5 1 25 C2.65 25 4.3 25 6 25 C6.639 25.486 7.279 25.972 7.938 26.473 C12.161 29.6 18.002 28.542 23 28 C25.001 27.357 26.983 26.649 28.938 25.875 C35.848 23.245 41.935 24.317 49 26 C49.66 26.33 50.32 26.66 51 27 C51 27.66 51 28.32 51 29 C51.66 29 52.32 29 53 29 C53 29.66 53 30.32 53 31 C53.99 31.33 54.98 31.66 56 32 C55.835 32.33 55.835 32.33 55 34 C54.478 33.567 53.956 33.134 53.418 32.688 C48.193 28.734 44.447 27.233 37.887 27.59 C33.82 28.168 29.941 29.242 25.984 30.328 C18.074 32.109 8.692 31.564 1 29 C-0.079 25.762 -0.114 23.422 -0.098 20.02 C-0.094 18.856 -0.091 17.693 -0.088 16.494 C-0.08 15.279 -0.071 14.064 -0.062 12.812 C-0.058 11.586 -0.053 10.359 -0.049 9.096 C-0.037 6.064 -0.021 3.032 0 0 Z " fill="#F16089" transform="translate(145,81)"/>
<path d="M0 0 C8.895 -0.199 17.329 -0.334 26 2 C25.34 3.32 24.68 4.64 24 6 C22.907 5.794 21.814 5.588 20.688 5.375 C17 5 17 5 14 7 C9.404 7.753 5.366 7.638 1.438 5 C0.633 4.34 -0.171 3.68 -1 3 C-0.67 2.01 -0.34 1.02 0 0 Z M7 7 C7.66 7.33 7.66 7.33 11 9 C10.67 9.165 10.67 9.165 9 10 C8.34 9.67 7.68 9.34 7 9 C7 8.34 7 7.68 7 7 Z " fill="#FB8DB6" transform="translate(184,81)"/>
<path d="M0 0 C0.33 0 0.66 0 1 0 C1.494 4.15 1.189 5.719 -1.188 9.25 C-5.794 13.754 -9.607 14.228 -15.818 14.227 C-16.689 14.216 -17.56 14.206 -18.457 14.195 C-19.36 14.192 -20.263 14.19 -21.193 14.187 C-24.066 14.176 -26.939 14.15 -29.812 14.125 C-31.765 14.115 -33.717 14.106 -35.67 14.098 C-40.447 14.076 -45.223 14.041 -50 14 C-50 13.34 -50 12.68 -50 12 C-49.058 11.98 -48.116 11.96 -47.145 11.94 C-43.598 11.861 -40.052 11.774 -36.505 11.683 C-34.98 11.645 -33.454 11.61 -31.929 11.578 C-8.111 11.078 -8.111 11.078 -4.522 7.545 C-3.438 5.875 -3.438 5.875 -2 3 C-1.34 3 -0.68 3 0 3 C0 2.01 0 1.02 0 0 Z " fill="#DFCB9C" transform="translate(140,174)"/>
<path d="M0 0 C2.602 1.301 4.986 2.871 7.438 4.438 C8.406 5.055 9.374 5.672 10.371 6.309 C12.258 7.523 14.133 8.755 16 10 C15.67 11.32 15.34 12.64 15 14 C12.69 14.66 10.38 15.32 8 16 C7.34 14.68 6.68 13.36 6 12 C5.67 12 5.34 12 5 12 C4.01 11.67 3.02 11.34 2 11 C2.66 10.01 3.32 9.02 4 8 C2.68 8 1.36 8 0 8 C-1.687 7.387 -3.36 6.729 -5 6 C-3.35 4.02 -1.7 2.04 0 0 Z " fill="#FC88B3" transform="translate(211,82)"/>
<path d="M0 0 C0.33 0 0.66 0 1 0 C1.07 7.815 1.123 15.63 1.155 23.446 C1.171 27.075 1.192 30.705 1.226 34.334 C1.259 37.842 1.277 41.35 1.285 44.858 C1.293 46.836 1.316 48.815 1.34 50.793 C1.341 57.595 0.934 62.827 -2 69 C-2.33 69 -2.66 69 -3 69 C-2.916 68.252 -2.832 67.505 -2.746 66.734 C-2.695 66.242 -2.695 66.242 -2.438 63.75 C-2.333 62.775 -2.229 61.801 -2.121 60.797 C-2.008 58.185 -2.36 56.49 -3 54 C-2.914 52.371 -2.762 50.744 -2.562 49.125 C-2.14 45.033 -1.954 41.051 -2 36.938 C-2.057 29.721 -1.827 22.524 -1.562 15.312 C-1.523 14.153 -1.484 12.993 -1.443 11.799 C-1.422 11.252 -1.422 11.252 -1.316 8.488 C-1.28 7.504 -1.243 6.519 -1.205 5.505 C-1 3 -1 3 0 0 Z " fill="#FBCA03" transform="translate(123,35)"/>
<path d="M0 0 C0.33 0 0.66 0 1 0 C1.537 6.013 0.753 9.271 -2.516 14.336 C-4.69 16.774 -6.857 17.87 -10.113 18.241 C-10.868 18.236 -11.623 18.232 -12.401 18.227 C-12.832 18.227 -12.832 18.227 -15.009 18.227 C-15.929 18.216 -16.849 18.206 -17.797 18.195 C-18.746 18.192 -19.694 18.19 -20.672 18.187 C-23.698 18.176 -26.724 18.15 -29.75 18.125 C-31.803 18.115 -33.857 18.106 -35.91 18.098 C-40.94 18.076 -45.97 18.041 -51 18 C-49 16 -49 16 -45.734 15.84 C-45.077 15.856 -45.077 15.856 -41.75 15.938 C-34.582 16.1 -34.582 16.1 -31.078 15.496 C-26.275 14.722 -21.483 15.031 -16.633 15.215 C-11.652 15.307 -8.302 14.813 -4 12 C-1.495 8.113 -0.544 4.567 0 0 Z " fill="#F0638B" transform="translate(236,44)"/>
<path d="M0 0 C3 1 3 1 3.992 2.891 C4.284 3.669 4.575 4.448 4.875 5.25 C6.635 9.454 8.5 11.989 12 15 C12.619 15.539 13.238 16.078 13.875 16.633 C15.571 18.103 17.28 19.557 19 21 C18.67 21.66 18.34 22.32 18 23 C15.625 22.75 15.625 22.75 13 22 C11.688 19.938 11.688 19.938 11 18 C10.34 18 9.68 18 9 18 C8.023 16.21 7.047 14.419 6.07 12.629 C5 11 5 11 3 10 C3.168 10.82 3.335 11.64 3.508 12.484 C3.711 13.562 3.915 14.64 4.125 15.75 C4.334 16.817 4.543 17.885 4.758 18.984 C5.011 22.137 4.704 23.4 3 26 C2.01 26 1.02 26 0 26 C0.33 25.67 0.66 25.34 1 25 C1.624 16.736 0.615 8.242 0 0 Z " fill="#EAD7AE" transform="translate(139,155)"/>
<path d="M0 0 C0 3.571 -0.592 4.446 -3 7 C-11.209 10.301 -21.591 9.305 -30.308 9.261 C-32.825 9.25 -35.341 9.261 -37.857 9.273 C-39.474 9.272 -41.09 9.27 -42.707 9.266 C-43.451 9.27 -44.195 9.274 -44.961 9.278 C-49.348 9.239 -52.921 8.616 -57 7 C-56.67 6.01 -56.34 5.02 -56 4 C-53.36 4.33 -50.72 4.66 -48 5 C-48 5.33 -48 5.66 -48 6 C-42.216 6.025 -36.432 6.043 -30.648 6.055 C-28.68 6.06 -26.712 6.067 -24.743 6.075 C-21.916 6.088 -19.089 6.093 -16.262 6.098 C-15.38 6.103 -14.499 6.108 -13.591 6.113 C-13.181 6.113 -13.181 6.113 -11.104 6.114 C-10.383 6.116 -9.661 6.118 -8.917 6.12 C-7 6 -7 6 -4 5 C-2.614 3.377 -1.274 1.713 0 0 Z " fill="#D5BE8A" transform="translate(137,177)"/>
<path d="M0 0 C-0.33 0.99 -0.66 1.98 -1 3 C-2.654 3.697 -4.323 4.361 -6 5 C-7.004 5.996 -8.004 6.996 -9 8 C-10.713 9.273 -12.444 10.52 -14.188 11.75 C-28.232 21.907 -28.232 21.907 -31 29 C-31.33 29 -31.66 29 -32 29 C-32.312 26.312 -32.312 26.312 -32 23 C-29.875 20.438 -29.875 20.438 -27 18 C-26.473 17.531 -25.946 17.062 -25.402 16.578 C-21.312 13 -21.312 13 -19 13 C-18.814 12.072 -18.629 11.144 -18.438 10.188 C-17 7 -17 7 -13.812 5.375 C-13.195 5.16 -12.578 4.944 -11.941 4.723 C-9.872 3.953 -8.133 2.96 -6.25 1.812 C-3 0 -3 0 0 0 Z " fill="#FDEC56" transform="translate(96,32)"/>
<path d="M0 0 C0 3 0 3 -1.25 4.562 C-4.686 7.385 -7.43 8.25 -11.86 8.227 C-12.821 8.227 -13.782 8.227 -14.772 8.227 C-15.801 8.216 -16.83 8.206 -17.891 8.195 C-18.95 8.192 -20.01 8.19 -21.102 8.187 C-24.485 8.176 -27.867 8.15 -31.25 8.125 C-33.544 8.115 -35.839 8.106 -38.133 8.098 C-43.755 8.076 -49.378 8.042 -55 8 C-55.33 7.34 -55.66 6.68 -56 6 C-55.41 5.992 -54.82 5.984 -54.211 5.975 C-48.063 5.889 -41.915 5.79 -35.767 5.683 C-33.473 5.644 -31.179 5.609 -28.885 5.578 C-25.586 5.532 -22.287 5.474 -18.988 5.414 C-18.476 5.408 -18.476 5.408 -15.885 5.379 C-14.924 5.359 -13.964 5.339 -12.974 5.319 C-12.132 5.306 -11.291 5.292 -10.424 5.278 C-6.037 4.774 -2.888 3.344 0 0 Z " fill="#9F7522" transform="translate(136,174)"/>
<path d="M0 0 C6.875 2.875 6.875 2.875 8 4 C10.664 4.16 13.306 4.259 15.973 4.316 C16.77 4.337 17.568 4.358 18.39 4.379 C20.947 4.445 23.505 4.504 26.062 4.562 C27.792 4.606 29.522 4.649 31.252 4.693 C35.501 4.801 39.751 4.902 44 5 C44 5.33 44 5.66 44 6 C43.145 6.061 42.291 6.121 41.41 6.184 C40.305 6.267 39.201 6.351 38.062 6.438 C36.96 6.519 35.858 6.6 34.723 6.684 C32 7 32 7 31 8 C27.112 8.31 23.211 8.279 19.312 8.312 C18.223 8.342 17.133 8.371 16.01 8.4 C9.731 8.45 5.701 8.363 1 4 C0.125 1.75 0.125 1.75 0 0 Z " fill="#DBA302" transform="translate(70,171)"/>
<path d="M0 0 C1.938 0.812 1.938 0.812 4 2 C4.33 2.99 4.66 3.98 5 5 C7.831 6.416 9.851 6.242 13 6 C15.008 5.016 17.009 4.017 19 3 C20.65 3 22.3 3 24 3 C24 6.63 24 10.26 24 14 C23.67 13.34 23.34 12.68 23 12 C22.196 12.062 21.391 12.124 20.562 12.188 C13.669 11.825 7.337 9.426 2 5 C0.625 2.25 0.625 2.25 0 0 Z " fill="#C79315" transform="translate(62,75)"/>
<path d="M0 0 C1.32 0 2.64 0 4 0 C4 0.66 4 1.32 4 2 C-0.159 3.386 -4.222 2.975 -8.551 2.785 C-11.284 2.726 -13.468 2.725 -15.926 3.996 C-17.653 7.218 -17.578 10.611 -17.688 14.188 C-17.722 14.937 -17.756 15.687 -17.791 16.459 C-17.873 18.305 -17.938 20.153 -18 22 C-17.335 21.99 -16.669 21.979 -15.984 21.968 C-12.948 21.926 -9.911 21.901 -6.875 21.875 C-6.352 21.867 -6.352 21.867 -3.703 21.824 C1.593 21.791 6.057 21.828 11 24 C11 24.33 11 24.66 11 25 C1.1 24.34 -8.8 23.68 -19 23 C-19.889 18.554 -20.034 15.34 -19.75 10.875 C-19.683 9.656 -19.616 8.436 -19.547 7.18 C-19 4 -19 4 -17.77 2.109 C-15.447 0.653 -13.663 0.528 -10.938 0.375 C-0.918 -0.243 -0.918 -0.243 0 0 Z " fill="#F57099" transform="translate(200,58)"/>
<path d="M0 0 C2 3 2 3 1.812 5.562 C1 8 1 8 -2 10 C-3.668 9.674 -5.335 9.342 -7 9 C-7.66 9.66 -8.32 10.32 -9 11 C-12.125 11.125 -12.125 11.125 -15 11 C-15 9.35 -15 7.7 -15 6 C-13.35 5.34 -11.7 4.68 -10 4 C-10.66 3.34 -11.32 2.68 -12 2 C-11.381 2.021 -11.381 2.021 -8.25 2.125 C-4.984 2.137 -2.785 1.857 0 0 Z " fill="#FCE534" transform="translate(90,143)"/>
<path d="M0 0 C0.33 0 0.66 0 1 0 C1.39 2.749 1.763 5.498 2.125 8.25 C2.237 9.027 2.349 9.805 2.465 10.605 C3.341 17.442 3.341 17.442 1 21 C0.773 22.134 0.546 23.269 0.312 24.438 C-1.037 28.099 -2.298 29.885 -5.598 31.992 C-11.039 34.275 -18.795 36.275 -24.426 34.035 C-24.945 33.694 -25.465 33.352 -26 33 C-25.01 32.925 -24.02 32.85 -23 32.773 C-16.022 32.128 -10.092 31.372 -4.418 26.926 C-0.526 21.641 -0.619 14.869 -0.375 8.562 C-0.336 7.736 -0.298 6.909 -0.258 6.057 C-0.164 4.038 -0.081 2.019 0 0 Z " fill="#EFDCBC" transform="translate(242,44)"/>
<path d="M0 0 C1.98 0.99 3.96 1.98 6 3 C6 3.99 6 4.98 6 6 C9.3 6.66 12.6 7.32 16 8 C16 8.66 16 9.32 16 10 C27.55 10 39.1 10 51 10 C51 10.33 51 10.66 51 11 C45.556 11.05 40.111 11.086 34.667 11.11 C32.816 11.12 30.966 11.134 29.115 11.151 C26.449 11.175 23.783 11.187 21.117 11.195 C20.295 11.206 19.473 11.216 18.626 11.227 C12.171 11.228 7.031 10.388 2.125 5.875 C1.529 5.336 0.934 4.797 0.32 4.242 C-0.115 3.832 -0.551 3.422 -1 3 C-0.67 2.01 -0.34 1.02 0 0 Z " fill="#E7D6AB" transform="translate(74,178)"/>
<path d="M0 0 C0.66 0.33 1.32 0.66 2 1 C1.505 1.33 1.505 1.33 -1 3 C-0.67 2.01 -0.34 1.02 0 0 Z M-3 3 C-2.34 3.33 -1.68 3.66 -1 4 C-3.102 7.983 -5.241 10.494 -9 13 C-11.812 13.75 -11.812 13.75 -14 14 C-14 14.66 -14 15.32 -14 16 C-14.66 16 -15.32 16 -16 16 C-16.248 16.619 -16.495 17.237 -16.75 17.875 C-18.229 20.389 -19.379 20.853 -22 22 C-22.66 22.66 -23.32 23.32 -24 24 C-23.412 18.12 -20.138 15.983 -15.855 12.293 C-11.718 8.971 -7.424 5.927 -3 3 Z " fill="#FDE637" transform="translate(90,36)"/>
<path d="M0 0 C-2.139 2.139 -3.133 2.427 -6 3 C-5.814 3.949 -5.629 4.898 -5.438 5.875 C-5 9 -5 9 -6 11 C-8.062 11.625 -8.062 11.625 -10 12 C-10.054 13.77 -10.093 15.541 -10.125 17.312 C-10.137 17.806 -10.137 17.806 -10.195 20.301 C-10 23 -10 23 -8 26 C-9.938 25.625 -9.938 25.625 -12 25 C-13.455 22.09 -13.209 19.491 -13.25 16.25 C-13.276 15.038 -13.302 13.827 -13.328 12.578 C-12.897 7.879 -11.474 4.525 -8.188 1.125 C-5.348 -0.335 -3.147 -0.215 0 0 Z " fill="#FDE22D" transform="translate(82,146)"/>
<path d="M0 0 C0.66 0 1.32 0 2 0 C2.106 16.364 2.152 32.666 1 49 C0.67 49 0.34 49 0 49 C-0.168 42.183 -0.328 35.365 -0.482 28.547 C-0.536 26.226 -0.591 23.904 -0.648 21.583 C-0.73 18.255 -0.805 14.926 -0.879 11.598 C-0.906 10.553 -0.933 9.508 -0.961 8.432 C-0.981 7.471 -1.001 6.51 -1.022 5.52 C-1.042 4.669 -1.062 3.819 -1.082 2.943 C-1 1 -1 1 0 0 Z " fill="#F976A0" transform="translate(147,41)"/>
<path d="M0 0 C0.99 0.33 1.98 0.66 3 1 C-2.674 7.423 -12.686 10.277 -21 11 C-27.334 11.201 -33.665 11.117 -40 11 C-40 10.67 -40 10.34 -40 10 C-39.295 9.93 -38.59 9.86 -37.864 9.788 C-34.616 9.457 -31.371 9.104 -28.125 8.75 C-27.016 8.64 -25.908 8.531 -24.766 8.418 C-16.419 7.485 -9.248 5.621 -2.062 1.188 C-1.382 0.796 -0.701 0.404 0 0 Z " fill="#E7557C" transform="translate(217,166)"/>
<path d="M0 0 C0.227 0.639 0.454 1.279 0.688 1.938 C2 4 2 4 4.625 4.75 C5.409 4.832 6.192 4.915 7 5 C7 5.66 7 6.32 7 7 C8.729 7.054 10.458 7.093 12.188 7.125 C12.669 7.137 12.669 7.137 15.105 7.195 C18.148 6.99 20.239 6.248 23 5 C24.327 4.641 25.658 4.298 27 4 C27 5.65 27 7.3 27 9 C26.567 8.969 26.567 8.969 24.375 8.812 C21 9 21 9 18 10.5 C14.649 12.175 12.695 12.411 9 12 C8.01 11.34 7.02 10.68 6 10 C6 9.01 6 8.02 6 7 C5.196 6.773 4.391 6.546 3.562 6.312 C2.717 5.879 1.871 5.446 1 5 C0.188 2.375 0.188 2.375 0 0 Z " fill="#E1AB0B" transform="translate(60,70)"/>
<path d="M0 0 C0.742 0.004 1.483 0.009 2.248 0.013 C2.668 0.014 2.668 0.014 4.795 0.014 C5.249 0.019 5.249 0.019 7.548 0.045 C8.477 0.048 9.407 0.051 10.364 0.054 C13.34 0.065 16.315 0.09 19.29 0.116 C21.304 0.126 23.319 0.135 25.333 0.143 C30.277 0.165 35.221 0.199 40.165 0.241 C40.165 0.571 40.165 0.901 40.165 1.241 C39.261 1.266 38.358 1.291 37.427 1.316 C34.085 1.411 30.744 1.511 27.403 1.613 C25.954 1.656 24.506 1.698 23.058 1.738 C20.98 1.795 18.903 1.859 16.825 1.924 C15.574 1.961 14.322 1.997 13.032 2.035 C10.165 2.241 10.165 2.241 9.165 3.241 C7.316 3.474 5.46 3.654 3.603 3.803 C2.705 3.875 2.705 3.875 -1.835 4.241 C-1.835 8.861 -1.835 13.481 -1.835 18.241 C-2.495 18.241 -3.155 18.241 -3.835 18.241 C-3.889 15.615 -3.929 12.991 -3.96 10.366 C-3.977 9.619 -3.994 8.873 -4.011 8.104 C-4.028 6.149 -3.938 4.193 -3.835 2.241 C-1.835 0.241 -1.835 0.241 0 0 Z " fill="#D74A6D" transform="translate(185.83499145507813,61.759490966796875)"/>
<path d="M0 0 C0.336 0.162 0.336 0.162 2.039 0.984 C5.622 2.213 8.591 2.265 12.375 2.25 C13.641 2.255 14.907 2.26 16.211 2.266 C20.079 1.994 23.29 1.082 27 0 C35.348 -0.809 41.866 -0.566 49 4 C48.67 4.66 48.34 5.32 48 6 C47.433 5.67 47.433 5.67 44.562 4 C39.244 1.373 34.443 0.961 28.734 2.684 C27.956 2.953 27.177 3.222 26.375 3.5 C19.798 5.654 12.835 5.964 6 5 C2.547 3.035 2.547 3.035 0 1 C0 0.67 0 0.34 0 0 Z " fill="#A14340" transform="translate(150,113)"/>
<path d="M0 0 C0.33 0 0.66 0 1 0 C1.228 3.52 1.429 7.041 1.625 10.562 C1.689 11.553 1.754 12.544 1.82 13.564 C2.119 19.185 1.93 23.626 0 29 C-0.307 30.057 -0.614 31.114 -0.93 32.203 C-1.242 33.209 -1.554 34.214 -1.875 35.25 C-2.182 36.266 -2.489 37.282 -2.805 38.328 C-4.116 41.259 -5.294 42.347 -8 44 C-7.691 42.928 -7.381 41.855 -7.062 40.75 C-6.529 38.867 -5.996 36.982 -5.559 35.074 C-5 33 -5 33 -4.062 30.723 C-0.084 20.761 -0.173 10.603 0 0 Z " fill="#D7B591" transform="translate(242,120)"/>
<path d="M0 0 C2 2 2 2 2.188 3.953 C2.157 4.332 2.157 4.332 2 6.25 C1.959 6.998 1.917 7.745 1.875 8.516 C0.479 12.479 -1.339 15.013 -5 17 C-9.812 17.736 -14.521 17.565 -19.375 17.375 C-20.683 17.348 -21.992 17.321 -23.34 17.293 C-26.562 17.222 -29.78 17.124 -33 17 C-33 16.67 -33 16.34 -33 16 C-31.71 15.939 -30.419 15.879 -29.09 15.816 C-27.372 15.732 -25.655 15.647 -23.938 15.562 C-23.09 15.523 -22.242 15.484 -21.369 15.443 C-7.889 14.767 -7.889 14.767 -5.188 12.438 C-4.796 11.963 -4.404 11.489 -4 11 C-3.34 11 -2.68 11 -2 11 C-1.856 9.927 -1.711 8.855 -1.562 7.75 C-1.163 5.083 -0.724 2.586 0 0 Z " fill="#D8BC95" transform="translate(238,56)"/>
<path d="M0 0 C0.33 0 0.66 0 1 0 C1.028 0.37 1.028 0.37 1.168 2.244 C1.423 5.642 1.68 9.04 1.938 12.438 C2.025 13.602 2.112 14.767 2.201 15.967 C3.586 34.172 3.586 34.172 5 37 C3.68 37 2.36 37 1 37 C-0.578 31.25 -1.073 26.958 0 21 C-0.33 20.01 -0.66 19.02 -1 18 C-1.096 15.302 -1.139 12.635 -1.125 9.938 C-1.129 9.205 -1.133 8.472 -1.137 7.717 C-1.127 2.253 -1.127 2.253 0 0 Z " fill="#FBCA03" transform="translate(121,108)"/>
<path d="M0 0 C0.33 0 0.66 0 1 0 C1.008 0.643 1.016 1.285 1.025 1.947 C1.111 8.631 1.21 15.314 1.317 21.997 C1.356 24.492 1.391 26.987 1.422 29.481 C1.468 33.066 1.526 36.65 1.586 40.234 C1.592 40.793 1.592 40.793 1.621 43.619 C1.641 44.659 1.661 45.7 1.681 46.772 C1.694 47.687 1.708 48.602 1.722 49.545 C2.013 52.118 2.7 53.78 4 56 C2.68 56 1.36 56 0 56 C-0.843 37.254 -1.507 18.726 0 0 Z " fill="#F56A91" transform="translate(146,50)"/>
<path d="M0 0 C0.33 0.99 0.66 1.98 1 3 C0.036 3.061 -0.928 3.121 -1.922 3.184 C-3.185 3.267 -4.448 3.351 -5.75 3.438 C-7.003 3.519 -8.256 3.6 -9.547 3.684 C-12.206 3.927 -14.446 4.327 -17 5 C-21.541 5.144 -25.57 5.107 -30 4 C-30 3.01 -30 2.02 -30 1 C-29.613 1.048 -29.613 1.048 -27.656 1.289 C-22.024 1.889 -17.435 2.182 -12.023 0.48 C-8.086 -0.454 -4.02 -0.148 0 0 Z " fill="#D0AE88" transform="translate(190,117)"/>
<path d="M0 0 C0.79 0.195 1.58 0.389 2.395 0.59 C2.986 0.746 3.578 0.902 4.188 1.062 C4.188 2.052 4.188 3.043 4.188 4.062 C3.197 4.393 2.208 4.722 1.188 5.062 C1.188 4.403 1.188 3.743 1.188 3.062 C-4.573 2.052 -8.171 2.147 -13.812 4.062 C-18.514 5.212 -18.514 5.212 -20.812 4.062 C-22.479 4.023 -24.146 4.019 -25.812 4.062 C-25.812 3.073 -25.812 2.082 -25.812 1.062 C-25.264 1.032 -25.264 1.032 -22.488 0.879 C-21.034 0.794 -19.579 0.71 -18.125 0.625 C-17.404 0.586 -16.683 0.546 -15.939 0.506 C-12.911 0.326 -10.064 0.117 -7.094 -0.531 C-4.429 -1.006 -2.611 -0.663 0 0 Z " fill="#F1DCBD" transform="translate(188.8125,123.9375)"/>
<path d="M0 0 C2.361 1.049 4.149 2.127 6.125 3.812 C17.718 12.633 30.021 13.348 44 14 C44 14.33 44 14.66 44 15 C29.052 17.491 16.421 14.378 3.98 5.57 C2.312 4.25 2.312 4.25 0 2 C0 1.34 0 0.68 0 0 Z " fill="#A24D43" transform="translate(148,167)"/>
<path d="M0 0 C0 0.66 0 1.32 0 2 C1.32 2.33 2.64 2.66 4 3 C2.375 5.062 2.375 5.062 0 7 C-2.01 6.737 -4.01 6.387 -6 6 C-8.788 5.742 -11.58 5.592 -14.375 5.438 C-14.743 5.416 -14.743 5.416 -16.605 5.307 C-18.403 5.202 -20.202 5.1 -22 5 C-21.67 4.34 -21.34 3.68 -21 3 C-18.538 2.739 -16.157 2.579 -13.688 2.5 C-8.867 2.344 -4.395 0 0 0 Z " fill="#F3D3BC" transform="translate(211,75)"/>
<path d="M0 0 C0.66 0 1.32 0 2 0 C2.98 2.941 3.116 4.825 3.098 7.887 C3.096 8.356 3.096 8.356 3.088 10.729 C3.08 11.705 3.071 12.681 3.062 13.688 C3.058 14.676 3.053 15.664 3.049 16.682 C3.037 19.121 3.021 21.561 3 24 C2.34 24 1.68 24 1 24 C0.867 23.301 0.734 22.603 0.598 21.883 C0.421 20.973 0.244 20.063 0.062 19.125 C-0.112 18.22 -0.286 17.315 -0.465 16.383 C-0.965 14.154 -1.37 12.63 -3 11 C-2.67 10.34 -2.34 9.68 -2 9 C-1.34 9 -0.68 9 0 9 C-0.33 8.01 -0.66 7.02 -1 6 C-0.724 3.991 -0.398 1.988 0 0 Z " fill="#F86E99" transform="translate(236,108)"/>
<path d="M0 0 C0 0.66 0 1.32 0 2 C1.98 2 3.96 2 6 2 C7.28 5.839 6.269 7.212 5 11 C4.649 14.653 4.498 18.287 4.344 21.953 C4 25 4 25 2 27 C2.023 25.831 2.046 24.662 2.07 23.457 C2.089 21.909 2.107 20.361 2.125 18.812 C2.142 18.044 2.159 17.275 2.176 16.482 C2.212 12.234 2.119 8.816 0 5 C-0.66 4.67 -1.32 4.34 -2 4 C-2 3.34 -2 2.68 -2 2 C-2.66 1.67 -3.32 1.34 -4 1 C-2 0 -2 0 0 0 Z " fill="#F47098" transform="translate(200,108)"/>
<path d="M0 0 C2.953 1.203 4.466 1.905 6.375 4.375 C5.385 4.375 4.395 4.375 3.375 4.375 C1.188 6.375 1.188 6.375 -0.625 8.375 C-0.625 7.715 -0.625 7.055 -0.625 6.375 C-2.935 6.375 -5.245 6.375 -7.625 6.375 C-7.955 5.055 -8.285 3.735 -8.625 2.375 C-5.366 -0.193 -4.181 -0.721 0 0 Z " fill="#FBE023" transform="translate(130.625,145.625)"/>
<path d="M0 0 C0.33 1.32 0.66 2.64 1 4 C-4.803 8.683 -9.524 12.483 -17.312 11.75 C-18.529 11.502 -19.746 11.255 -21 11 C-21.33 10.34 -21.66 9.68 -22 9 C-20.975 8.902 -20.975 8.902 -15.848 8.414 C-15.238 8.277 -14.628 8.141 -14 8 C-13.67 7.34 -13.34 6.68 -13 6 C-11.074 5.762 -11.074 5.762 -8.688 5.688 C-4.895 5.373 -4.271 5.271 -1.438 2.438 C-0.963 1.633 -0.489 0.829 0 0 Z " fill="#FCA7C7" transform="translate(203,138)"/>
<path d="M0 0 C-0.33 1.32 -0.66 2.64 -1 4 C-2.031 3.814 -3.062 3.629 -4.125 3.438 C-7.761 3.027 -10.454 3.222 -14 4 C-14.99 6.97 -15.98 9.94 -17 13 C-17.66 13 -18.32 13 -19 13 C-18.726 8.426 -18.074 4.615 -14.941 1.09 C-10.531 -1.386 -4.882 -0.386 0 0 Z " fill="#FCA9C8" transform="translate(164,135)"/>
<path d="M0 0 C9.57 0 19.14 0 29 0 C28.67 0.66 28.34 1.32 28 2 C25.531 2.668 25.531 2.668 22.5 3.188 C21.5 3.367 20.499 3.546 19.469 3.73 C18.654 3.819 17.839 3.908 17 4 C16.67 3.67 16.34 3.34 16 3 C11.191 1.922 8.341 1.421 4 3.938 C3.01 4.618 2.02 5.299 1 6 C0.67 4.02 0.34 2.04 0 0 Z " fill="#FC93BB" transform="translate(190,34)"/>
<path d="M0 0 C0.66 0 1.32 0 2 0 C2.086 0.58 2.173 1.16 2.262 1.758 C3.327 7.681 4.919 10.62 9 15 C10.037 16.644 11.052 18.303 12 20 C10.68 19.67 9.36 19.34 8 19 C8 18.34 8 17.68 8 17 C6.35 16.67 4.7 16.34 3 16 C2.67 14.35 2.34 12.7 2 11 C1.34 11 0.68 11 0 11 C0 7.37 0 3.74 0 0 Z " fill="#EE6789" transform="translate(141,145)"/>
<path d="M0 0 C0.33 0 0.66 0 1 0 C1 8.25 1 16.5 1 25 C2.65 25 4.3 25 6 25 C7.359 25.965 8.691 26.969 10 28 C11.98 28.724 13.978 29.403 16 30 C11.12 31.83 5.801 30.6 1 29 C-0.079 25.762 -0.114 23.422 -0.098 20.02 C-0.094 18.856 -0.091 17.693 -0.088 16.494 C-0.08 15.279 -0.071 14.064 -0.062 12.812 C-0.058 11.586 -0.053 10.359 -0.049 9.096 C-0.037 6.064 -0.021 3.032 0 0 Z " fill="#EF5882" transform="translate(145,81)"/>
<path d="M0 0 C0.66 0.33 1.32 0.66 2 1 C-0.993 17.11 -0.993 17.11 -7 22 C-9.812 22.812 -9.812 22.812 -12 23 C-11 21 -11 21 -9.125 20.25 C-6.115 18.479 -5.363 16.134 -4 13 C-3.34 13 -2.68 13 -2 13 C-2.186 12.113 -2.371 11.226 -2.562 10.312 C-2.98 7.148 -2.808 5.052 -2 2 C-1.34 2 -0.68 2 0 2 C0 1.34 0 0.68 0 0 Z " fill="#F7739A" transform="translate(236,37)"/>
<path d="M0 0 C2.584 -0.054 5.166 -0.094 7.75 -0.125 C8.115 -0.133 8.115 -0.133 9.961 -0.176 C13.804 -0.211 16.746 -0.175 20 2 C15.524 4.313 11.561 4.061 6.688 3.625 C5.947 3.568 5.206 3.512 4.443 3.453 C2.628 3.313 0.814 3.158 -1 3 C-0.67 2.01 -0.34 1.02 0 0 Z " fill="#FDA4CA" transform="translate(184,81)"/>
<path d="M0 0 C0.66 0 1.32 0 2 0 C2 1.32 2 2.64 2 4 C2.99 4.33 3.98 4.66 5 5 C1.016 6.846 -2.444 7.36 -6.812 7.625 C-7.393 7.662 -7.393 7.662 -10.332 7.852 C-10.772 7.876 -10.772 7.876 -13 8 C-10.637 5.474 -9.335 4.112 -6 3 C-4.659 2.349 -3.324 1.685 -2 1 C-1.67 1.66 -1.34 2.32 -1 3 C-0.67 2.01 -0.34 1.02 0 0 Z " fill="#F76895" transform="translate(202,167)"/>
<path d="M0 0 C0.66 0 1.32 0 2 0 C1.75 2.875 1.75 2.875 1 6 C-0.316 6.699 -1.65 7.367 -3 8 C-3.052 8.361 -3.052 8.361 -3.312 10.188 C-4.378 14.545 -7.553 17.238 -11 20 C-11.66 20 -12.32 20 -13 20 C-13 19.34 -13 18.68 -13 18 C-12.34 18 -11.68 18 -11 18 C-10.67 16.68 -10.34 15.36 -10 14 C-9.34 14 -8.68 14 -8 14 C-8 13.34 -8 12.68 -8 12 C-7.01 12 -6.02 12 -5 12 C-4.876 11.031 -4.752 10.061 -4.625 9.062 C-4.419 8.052 -4.213 7.041 -4 6 C-3.34 5.67 -2.68 5.34 -2 5 C-1.278 3.356 -0.606 1.689 0 0 Z " fill="#EE5C84" transform="translate(233,146)"/>
<path d="M0 0 C3.63 0 7.26 0 11 0 C10.67 1.32 10.34 2.64 10 4 C5.05 4.33 0.1 4.66 -5 5 C-5.33 4.34 -5.66 3.68 -6 3 C-5.01 2.67 -4.02 2.34 -3 2 C-2.34 2.33 -1.68 2.66 -1 3 C-0.67 2.01 -0.34 1.02 0 0 Z " fill="#CE4561" transform="translate(179,109)"/>
<path d="M0 0 C3.96 0 7.92 0 12 0 C12 0.66 12 1.32 12 2 C9.69 2.33 7.38 2.66 5 3 C5 3.66 5 4.32 5 5 C4.505 5.33 4.505 5.33 2 7 C1.34 8.32 0.68 9.64 0 11 C0 7.37 0 3.74 0 0 Z " fill="#B28363" transform="translate(184,69)"/>
<path d="M0 0 C0.436 0.375 0.871 0.75 1.32 1.137 C5.186 4.459 9.077 7.746 13 11 C12.67 11.66 12.34 12.32 12 13 C9.625 12.75 9.625 12.75 7 12 C5.688 9.938 5.688 9.938 5 8 C4.34 8 3.68 8 3 8 C0.958 5.095 0 3.599 0 0 Z " fill="#E2C6A3" transform="translate(145,165)"/>
<path d="M0 0 C0.75 0.398 1.5 0.797 2.273 1.207 C8.108 4.227 13.66 6.749 20.039 8.359 C22 9 22 9 24 11 C19.505 11.214 16.195 10.606 12 9 C11.113 8.691 10.226 8.381 9.312 8.062 C6.939 6.972 5.783 5.861 4 4 C1.812 2.812 1.812 2.812 0 2 C0 1.34 0 0.68 0 0 Z " fill="#E5D0AA" transform="translate(157,178)"/>
<path d="M0 0 C0.33 0 0.66 0 1 0 C1.029 3.125 1.047 6.25 1.062 9.375 C1.071 10.264 1.079 11.154 1.088 12.07 C1.091 12.921 1.094 13.772 1.098 14.648 C1.103 15.434 1.108 16.219 1.114 17.029 C1 19 1 19 0 21 C-1.65 21 -3.3 21 -5 21 C-4.01 17.7 -3.02 14.4 -2 11 C-1.34 11 -0.68 11 0 11 C0 7.37 0 3.74 0 0 Z " fill="#D09512" transform="translate(138,153)"/>
<path d="M0 0 C6.463 -0.454 9.609 0.406 15 4 C14.67 4.66 14.34 5.32 14 6 C11.69 5.67 9.38 5.34 7 5 C6.67 4.01 6.34 3.02 6 2 C3.69 2 1.38 2 -1 2 C-0.67 1.34 -0.34 0.68 0 0 Z " fill="#C7A07A" transform="translate(184,115)"/>
<path d="M0 0 C0 2.97 0 5.94 0 9 C-0.33 8.34 -0.66 7.68 -1 7 C-1.433 7.021 -1.433 7.021 -3.625 7.125 C-7.124 6.995 -9.746 6.24 -13 5 C-13 4.67 -13 4.34 -13 4 C-12.385 3.879 -11.77 3.758 -11.137 3.633 C-10.328 3.465 -9.52 3.298 -8.688 3.125 C-7.887 2.963 -7.086 2.8 -6.262 2.633 C-4.014 2.004 -2.199 0 0 0 Z " fill="#BF9C50" transform="translate(86,80)"/>
<path d="M0 0 C0.33 0 0.66 0 1 0 C1.39 2.749 1.763 5.498 2.125 8.25 C2.237 9.027 2.349 9.805 2.465 10.605 C3.354 17.543 3.354 17.543 1 21 C0.67 21.99 0.34 22.98 0 24 C-0.66 24 -1.32 24 -2 24 C-1.923 23.602 -1.923 23.602 -1.535 21.586 C-0.89 17.266 -0.65 12.985 -0.438 8.625 C-0.394 7.794 -0.351 6.962 -0.307 6.105 C-0.201 4.07 -0.1 2.035 0 0 Z " fill="#F4E2C4" transform="translate(242,44)"/>
<path d="M0 0 C5.61 0 11.22 0 17 0 C16.01 0.33 15.02 0.66 14 1 C14 1.66 14 2.32 14 3 C9.71 3 5.42 3 1 3 C0.67 2.01 0.34 1.02 0 0 Z " fill="#CD4361" transform="translate(206,63)"/>
<path d="M0 0 C1.132 0.908 2.255 1.827 3.375 2.75 C4.001 3.26 4.628 3.771 5.273 4.297 C7.095 6.094 7.941 7.693 9 10 C10.625 11.75 10.625 11.75 12 13 C11.01 12.835 11.01 12.835 6 12 C5.67 10.68 5.34 9.36 5 8 C4.34 8 3.68 8 3 8 C3 7.34 3 6.68 3 6 C2.34 6 1.68 6 1 6 C0.34 4.35 -0.32 2.7 -1 1 C-0.67 0.67 -0.34 0.34 0 0 Z " fill="#EEDBB4" transform="translate(62,77)"/>
<path d="M0 0 C2.875 -0.125 2.875 -0.125 6 0 C6.66 0.66 7.32 1.32 8 2 C10.338 1.702 12.672 1.368 15 1 C15.99 1.33 16.98 1.66 18 2 C18 2.66 18 3.32 18 4 C19.32 4.33 20.64 4.66 22 5 C19.414 6.293 18.448 5.772 15.688 5.062 C13.065 4.426 11.022 3.999 8.312 4.062 C5.05 3.974 2.81 2.569 0 1 C0 0.67 0 0.34 0 0 Z " fill="#F86792" transform="translate(165,170)"/>
<path d="M0 0 C0.495 0.33 0.495 0.33 3 2 C3 2.66 3 3.32 3 4 C3.743 4.248 4.485 4.495 5.25 4.75 C8.23 6.105 9.899 7.51 12 10 C12 10.66 12 11.32 12 12 C10.35 11.67 8.7 11.34 7 11 C7 10.34 7 9.68 7 9 C6.01 9 5.02 9 4 9 C3.67 8.01 3.34 7.02 3 6 C2.484 5.505 1.969 5.01 1.438 4.5 C0 3 0 3 0 0 Z " fill="#ECD4B6" transform="translate(146,110)"/>
<path d="M0 0 C1.32 0.33 2.64 0.66 4 1 C3.67 1.99 3.34 2.98 3 4 C3.99 4 4.98 4 6 4 C6 4.66 6 5.32 6 6 C5.01 6 4.02 6 3 6 C2.67 7.98 2.34 9.96 2 12 C1.34 11.67 0.68 11.34 0 11 C0 7.37 0 3.74 0 0 Z " fill="#FC8EB5" transform="translate(148,89)"/>
<path d="M0 0 C4.62 0 9.24 0 14 0 C9.914 2.043 6.687 2.661 2.242 3.34 C0 4 0 4 -2 7 C-2.66 7 -3.32 7 -4 7 C-3.688 5.062 -3.688 5.062 -3 3 C-2.01 2.67 -1.02 2.34 0 2 C0 1.34 0 0.68 0 0 Z " fill="#D7B793" transform="translate(191,73)"/>
<path d="M0 0 C0.66 0.33 1.32 0.66 2 1 C2 5.95 2 10.9 2 16 C1.34 16 0.68 16 0 16 C-0.33 16.66 -0.66 17.32 -1 18 C-2.125 14.25 -2.125 14.25 -1 12 C-0.771 9.963 -0.59 7.92 -0.438 5.875 C-0.354 4.779 -0.27 3.684 -0.184 2.555 C-0.123 1.712 -0.062 0.869 0 0 Z " fill="#D96674" transform="translate(237,40)"/>
<path d="M0 0 C-0.568 0.278 -1.137 0.557 -1.723 0.844 C-4.001 2.001 -6.216 3.237 -8.438 4.5 C-11.56 6.247 -14.619 7.8 -18 9 C-12.871 1.898 -8.587 -0.592 0 0 Z " fill="#FDE31F" transform="translate(99,30)"/>
<path d="M0 0 C0.33 0.66 0.66 1.32 1 2 C-1.806 6.749 -4.251 9.194 -9 12 C-9.66 11.67 -10.32 11.34 -11 11 C-10.003 8.507 -9.349 7.225 -7.062 5.75 C-5 5 -5 5 -2 5 C-1.34 3.35 -0.68 1.7 0 0 Z " fill="#B74C56" transform="translate(235,154)"/>
<path d="M0 0 C2 2 2 2 3 5 C5.062 5.688 5.062 5.688 7 6 C7 6.66 7 7.32 7 8 C7.66 8 8.32 8 9 8 C9.33 9.65 9.66 11.3 10 13 C6.002 11.223 3.125 9.915 1 6 C0.312 2.75 0.312 2.75 0 0 Z " fill="#CD5066" transform="translate(142,156)"/>
<path d="M0 0 C0.33 0 0.66 0 1 0 C1.049 1.048 1.098 2.096 1.148 3.176 C1.223 4.555 1.299 5.934 1.375 7.312 C1.406 8.003 1.437 8.693 1.469 9.404 C1.681 13.07 1.919 14.879 4 18 C2.062 17.625 2.062 17.625 0 17 C-1.493 14.013 -1.132 11.256 -1.125 7.938 C-1.128 6.668 -1.13 5.398 -1.133 4.09 C-1 1 -1 1 0 0 Z " fill="#F8CB24" transform="translate(70,154)"/>
<path d="M0 0 C0.66 0.33 1.32 0.66 2 1 C1.34 3.64 0.68 6.28 0 9 C-0.66 9 -1.32 9 -2 9 C-1.67 9.99 -1.34 10.98 -1 12 C-2.65 11.67 -4.3 11.34 -6 11 C-6 8.69 -6 6.38 -6 4 C-5.67 4 -5.34 4 -5 4 C-5 5.65 -5 7.3 -5 9 C-4.34 9 -3.68 9 -3 9 C-2.01 6.03 -1.02 3.06 0 0 Z " fill="#FB8DB4" transform="translate(150,139)"/>
<path d="M0 0 C0.33 0 0.66 0 1 0 C1.235 6.708 0.842 12.238 -3 18 C-3.66 18 -4.32 18 -5 18 C-3.539 11.931 -1.834 5.967 0 0 Z " fill="#E25D76" transform="translate(240,130)"/>
<path d="M0 0 C0.33 0.99 0.66 1.98 1 3 C-2.333 6.333 -5.667 9.667 -9 13 C-9.66 12.67 -10.32 12.34 -11 12 C-10.374 11.385 -9.747 10.77 -9.102 10.137 C-8.284 9.328 -7.467 8.52 -6.625 7.688 C-6.219 7.287 -6.219 7.287 -4.164 5.262 C-2 3 -2 3 0 0 Z M-16 16 C-14 17 -14 17 -14 17 Z M-18 17 C-16 18 -16 18 -16 18 Z M-20 18 C-18 19 -18 19 -18 19 Z " fill="#D5BB92" transform="translate(233,164)"/>
<path d="M0 0 C0.84 2.363 1.196 3.529 0.215 5.887 C-3.264 10.792 -3.264 10.792 -7.312 11.938 C-8.199 11.958 -9.086 11.979 -10 12 C-9.602 11.541 -9.203 11.082 -8.793 10.609 C-6.087 7.475 -3.445 4.345 -1 1 C-0.67 0.67 -0.34 0.34 0 0 Z " fill="#FB88A8" transform="translate(203,133)"/>
<path d="M0 0 C0.66 0.33 1.32 0.66 2 1 C-2.566 5.871 -7.75 9.892 -13 14 C-13.66 13.67 -14.32 13.34 -15 13 C-13.252 11.394 -11.502 9.79 -9.75 8.188 C-9.259 7.736 -8.768 7.284 -8.262 6.818 C-5.605 4.392 -2.925 2.097 0 0 Z " fill="#FCDD1F" transform="translate(78,40)"/>
<path d="M0 0 C-0.66 1.32 -1.32 2.64 -2 4 C-5.63 3.67 -9.26 3.34 -13 3 C-13 2.34 -13 1.68 -13 1 C-12.608 0.928 -12.608 0.928 -10.625 0.562 C-4.182 -0.818 -4.182 -0.818 0 0 Z " fill="#FC98BE" transform="translate(210,83)"/>
<path d="M0 0 C1.969 0.97 3.915 1.952 5.824 3.035 C10.854 5.808 15.283 6.735 21 7 C21 7.33 21 7.66 21 8 C13.256 8.651 7.177 8.1 1 3 C0.67 2.01 0.34 1.02 0 0 Z " fill="#FB729A" transform="translate(170,138)"/>
<path d="M0 0 C0.597 0.006 0.597 0.006 3.621 0.035 C4.22 0.04 4.22 0.04 7.25 0.062 C8.177 0.074 9.104 0.086 10.059 0.098 C9.729 1.418 9.399 2.738 9.059 4.098 C7.641 3.983 6.225 3.855 4.809 3.723 C4.02 3.653 3.231 3.583 2.418 3.512 C-0.027 3.083 -1.79 2.312 -3.941 1.098 C-2.941 0.098 -2.941 0.098 0 0 Z " fill="#FD95BE" transform="translate(153.94140625,134.90234375)"/>
<path d="M0 0 C5.28 0.66 10.56 1.32 16 2 C15.67 2.66 15.34 3.32 15 4 C5.236 4.383 5.236 4.383 1 2 C0.67 1.34 0.34 0.68 0 0 Z " fill="#D25C6A" transform="translate(149,112)"/>
<path d="M0 0 C1.32 0.99 2.64 1.98 4 3 C3.01 4.65 2.02 6.3 1 8 C0.34 7.67 -0.32 7.34 -1 7 C-0.67 6.67 -0.34 6.34 0 6 C-0.99 5.835 -0.99 5.835 -6 5 C-3.993 1.989 -3.161 1.37 0 0 Z " fill="#FCE323" transform="translate(100,35)"/>
<path d="M0 0 C-0.33 0.99 -0.66 1.98 -1 3 C-1.687 3.11 -2.374 3.219 -3.082 3.332 C-3.983 3.491 -4.884 3.649 -5.812 3.812 C-6.706 3.963 -7.599 4.114 -8.52 4.27 C-11.183 5.054 -12.257 5.886 -14 8 C-14.043 6.334 -14.041 4.666 -14 3 C-12.282 1.282 -9.897 1.347 -7.562 0.938 C-6.574 0.761 -5.585 0.584 -4.566 0.402 C-2 0 -2 0 0 0 Z " fill="#FCED5A" transform="translate(89,146)"/>
<path d="M0 0 C0.99 0 1.98 0 3 0 C3 1.65 3 3.3 3 5 C-1.95 5 -6.9 5 -12 5 C-12 4.67 -12 4.34 -12 4 C-11.651 3.939 -11.651 3.939 -9.883 3.633 C-9.428 3.549 -9.428 3.549 -7.125 3.125 C-6.673 3.044 -6.673 3.044 -4.383 2.633 C-2 2 -2 2 0 0 Z " fill="#E8AE02" transform="translate(84,74)"/>
<path d="M0 0 C3.96 0 7.92 0 12 0 C12 0.33 12 0.66 12 1 C9.69 1.33 7.38 1.66 5 2 C6.32 2.66 7.64 3.32 9 4 C6.188 4.688 6.188 4.688 3 5 C1.125 3.688 1.125 3.688 0 2 C0 1.34 0 0.68 0 0 Z " fill="#FD96BC" transform="translate(177,146)"/>
<path d="M0 0 C0.33 0 0.66 0 1 0 C1 3.3 1 6.6 1 10 C0.67 9.01 0.34 8.02 0 7 C-0.66 7 -1.32 7 -2 7 C-2 9.64 -2 12.28 -2 15 C-2.33 15 -2.66 15 -3 15 C-3.562 4.275 -3.562 4.275 0 0 Z " fill="#F8DA3C" transform="translate(62,55)"/>
<path d="M0 0 C0.33 0 0.66 0 1 0 C1.25 2.729 1.475 5.456 1.688 8.188 C1.76 8.956 1.833 9.725 1.908 10.518 C2.256 15.282 2.068 18.064 -1 22 C-1.562 20.062 -1.562 20.062 -2 18 C-1.67 17.67 -1.34 17.34 -1 17 C-0.763 14.141 -0.578 11.301 -0.438 8.438 C-0.394 7.631 -0.351 6.825 -0.307 5.994 C-0.2 3.996 -0.1 1.998 0 0 Z " fill="#EDD9B8" transform="translate(245,131)"/>
<path d="M0 0 C0.66 0.66 1.32 1.32 2 2 C1.625 4.125 1.625 4.125 1 6 C0.67 5.34 0.34 4.68 0 4 C-3.284 3.049 -4.697 2.899 -8 4 C-8.66 3.67 -9.32 3.34 -10 3 C-10 2.34 -10 1.68 -10 1 C-2.25 0.875 -2.25 0.875 0 2 C0 1.34 0 0.68 0 0 Z " fill="#FD97BE" transform="translate(230,33)"/>
<path d="M0 0 C5.373 -0.44 5.373 -0.44 8 0 C10 2.5 10 2.5 11 5 C4.6 4.508 4.6 4.508 1.562 1.938 C1.047 1.298 0.531 0.659 0 0 Z " fill="#D7B491" transform="translate(191,120)"/>
<path d="M0 0 C0.33 0.66 0.66 1.32 1 2 C0.67 2.66 0.34 3.32 0 4 C-3.375 4.75 -3.375 4.75 -7 5 C-7.99 4.34 -8.98 3.68 -10 3 C-8.35 2.505 -8.35 2.505 0 0 Z " fill="#C4A27B" transform="translate(211,178)"/>
<path d="M0 0 C0.66 0.33 1.32 0.66 2 1 C-1.424 4.827 -4.007 6.723 -9 8 C-8 5 -8 5 -5.062 3.438 C-4.052 2.963 -3.041 2.489 -2 2 C-1.34 1.34 -0.68 0.68 0 0 Z " fill="#D04D67" transform="translate(220,166)"/>
<path d="M0 0 C1.32 0 2.64 0 4 0 C4 0.66 4 1.32 4 2 C5.134 2.289 6.269 2.577 7.438 2.875 C8.613 3.246 9.789 3.618 11 4 C11.33 4.66 11.66 5.32 12 6 C7.012 5.525 3.977 4.03 0 1 C0 0.67 0 0.34 0 0 Z " fill="#F76A95" transform="translate(153,164)"/>
<path d="M0 0 C0.99 0.33 1.98 0.66 3 1 C3.949 3.285 3.949 3.285 4.688 6.062 C4.939 6.982 5.19 7.901 5.449 8.848 C5.631 9.558 5.813 10.268 6 11 C5.01 10.34 4.02 9.68 3 9 C2.34 8.67 1.68 8.34 1 8 C0.406 5.351 0.258 2.708 0 0 Z " fill="#F0E1BE" transform="translate(139,155)"/>
<path d="M0 0 C0.99 0.33 1.98 0.66 3 1 C0.69 3.64 -1.62 6.28 -4 9 C-5.32 8.67 -6.64 8.34 -8 8 C-7.711 7.897 -7.711 7.897 -6.25 7.375 C-3.186 5.502 -1.845 3.03 0 0 Z " fill="#F0E0BD" transform="translate(139,182)"/>
<path d="M0 0 C1.485 0.66 1.485 0.66 9 4 C8.67 4.99 8.34 5.98 8 7 C5.03 5.35 2.06 3.7 -1 2 C-0.67 1.34 -0.34 0.68 0 0 Z " fill="#DABE96" transform="translate(158,176)"/>
<path d="M0 0 C2.094 3.402 2.179 6.053 2 10 C1.67 9.01 1.34 8.02 1 7 C0.01 6.67 -0.98 6.34 -2 6 C-2 4.35 -2 2.7 -2 1 C-1.34 0.67 -0.68 0.34 0 0 Z " fill="#F6E6C9" transform="translate(244,114)"/>
<path d="M0 0 C4.75 0.75 4.75 0.75 7 3 C7.4 5.323 7.74 7.657 8 10 C6.5 8.75 6.5 8.75 5 7 C5 5.68 5 4.36 5 3 C4.175 2.67 4.175 2.67 0 1 C0 0.67 0 0.34 0 0 Z " fill="#C24558" transform="translate(194,114)"/>
<path d="M0 0 C-1 3 -1 3 -3.625 4.688 C-7.329 6.128 -10.061 6.236 -14 6 C-14 5.67 -14 5.34 -14 5 C-12.763 4.732 -11.525 4.464 -10.25 4.188 C-6.576 3.285 -3.462 0 0 0 Z " fill="#98670D" transform="translate(86,78)"/>
<path d="M0 0 C0 0.66 0 1.32 0 2 C-1.651 3.026 -3.32 4.023 -5 5 C-6.812 6.688 -6.812 6.688 -8 8 C-7.664 4.893 -7.41 3.396 -5.125 1.188 C-3 0 -3 0 0 0 Z " fill="#FDB2CF" transform="translate(159,33)"/>
<path d="M0 0 C2.438 1.188 2.438 1.188 5 3 C5.812 5.688 5.812 5.688 6 8 C2.665 6.888 1.363 5.526 -1 3 C-0.67 2.01 -0.34 1.02 0 0 Z " fill="#EEDEBA" transform="translate(74,178)"/>
<path d="M0 0 C-3.452 2.301 -4.235 2.138 -8.188 1.625 C-8.638 1.57 -8.638 1.57 -10.918 1.289 C-11.605 1.194 -12.292 1.098 -13 1 C-13 0.67 -13 0.34 -13 0 C-11.585 -0.197 -10.168 -0.382 -8.75 -0.562 C-7.961 -0.667 -7.172 -0.771 -6.359 -0.879 C-3.995 -1 -2.249 -0.696 0 0 Z " fill="#C29975" transform="translate(175,118)"/>
<path d="M0 0 C0.33 1.32 0.66 2.64 1 4 C-1.312 6.062 -1.312 6.062 -4 8 C-4.99 7.67 -5.98 7.34 -7 7 C-4.667 4.667 -2.333 2.333 0 0 Z " fill="#FCBBD1" transform="translate(203,138)"/>
<path d="M0 0 C1.281 0.102 2.563 0.204 3.883 0.309 C4.87 0.392 5.858 0.476 6.875 0.562 C6.875 0.892 6.875 1.222 6.875 1.562 C1.925 1.892 -3.025 2.222 -8.125 2.562 C-8.455 1.903 -8.785 1.243 -9.125 0.562 C-6.072 -0.964 -3.367 -0.275 0 0 Z " fill="#BF4555" transform="translate(182.125,111.4375)"/>
<path d="M0 0 C2.97 0.33 5.94 0.66 9 1 C8.67 1.99 8.34 2.98 8 4 C7.01 3.835 7.01 3.835 2 3 C2 2.34 2 1.68 2 1 C1.34 0.67 0.68 0.34 0 0 Z " fill="#EEE0B9" transform="translate(76,91)"/>
<path d="M0 0 C0.33 1.32 0.66 2.64 1 4 C0.175 4.495 0.175 4.495 -4 7 C-3.436 3.73 -2.5 2.174 0 0 Z M-7 7 C-4 8 -4 8 -4 8 Z " fill="#CCAB84" transform="translate(235,63)"/>
<path d="M0 0 C1.155 0.495 1.155 0.495 7 3 C6.34 3.66 5.68 4.32 5 5 C2.875 4.625 2.875 4.625 1 4 C0.67 2.68 0.34 1.36 0 0 Z " fill="#DDA712" transform="translate(70,171)"/>
<path d="M0 0 C2.5 2.312 2.5 2.312 5 5 C5 5.99 5 6.98 5 8 C4.34 8 3.68 8 3 8 C0.958 5.095 0 3.599 0 0 Z " fill="#E8CEAC" transform="translate(145,165)"/>
<path d="M0 0 C1 2 1 2 0.312 4.562 C-1 7 -1 7 -3.125 7.812 C-3.744 7.874 -4.363 7.936 -5 8 C-3.375 2.25 -3.375 2.25 0 0 Z " fill="#D94E6E" transform="translate(233,152)"/>
<path d="M0 0 C2 3.75 2 3.75 2 6 C3.65 6.33 5.3 6.66 7 7 C6.01 7.66 5.02 8.32 4 9 C3.01 8.67 2.02 8.34 1 8 C0.67 5.36 0.34 2.72 0 0 Z " fill="#E15978" transform="translate(145,102)"/>
<path d="M0 0 C2.5 2.312 2.5 2.312 5 5 C5 5.99 5 6.98 5 8 C4.34 8 3.68 8 3 8 C3 7.34 3 6.68 3 6 C2.34 6 1.68 6 1 6 C0.34 4.35 -0.32 2.7 -1 1 C-0.67 0.67 -0.34 0.34 0 0 Z " fill="#F2E2C1" transform="translate(62,77)"/>
<path d="M0 0 C0.66 0.33 1.32 0.66 2 1 C2 4.3 2 7.6 2 11 C1.67 11 1.34 11 1 11 C0.928 10.546 0.928 10.546 0.562 8.25 C0 5 0 5 -0.625 2.688 C-0.749 2.131 -0.873 1.574 -1 1 C-0.67 0.67 -0.34 0.34 0 0 Z " fill="#EAD6B2" transform="translate(240,51)"/>
<path d="M0 0 C-2.937 1.523 -5.917 2.801 -9 4 C-9.33 3.01 -9.66 2.02 -10 1 C-6.785 -0.607 -3.564 -0.057 0 0 Z " fill="#FEE72F" transform="translate(99,30)"/>
<path d="M0 0 C0.99 2.31 1.98 4.62 3 7 C1 7 1 7 -0.625 5.625 C-2 4 -2 4 -2 2 C-2.66 1.67 -3.32 1.34 -4 1 C-2 0 -2 0 0 0 Z " fill="#F76F9A" transform="translate(200,108)"/>
<path d="M0 0 C2.812 -0.188 2.812 -0.188 6 0 C6.99 0.99 7.98 1.98 9 3 C6.03 2.67 3.06 2.34 0 2 C0 1.34 0 0.68 0 0 Z " fill="#F96D9B" transform="translate(183,104)"/>
</svg>
