<?xml version="1.0" encoding="UTF-8"?>
<!-- Generator: visioncortex VTracer 0.6.12 -->
<svg version="1.1" xmlns="http://www.w3.org/2000/svg" width="275" height="210">
<path d="M0 0 C90.75 0 181.5 0 275 0 C275 69.3 275 138.6 275 210 C184.25 210 93.5 210 0 210 C0 140.7 0 71.4 0 0 Z " fill="#FCF6E1" transform="translate(0,0)"/>
<path d="M0 0 C3.868 2.153 6.523 4.195 8.344 8.305 C9.272 14.124 9.276 19.292 6.781 24.68 C4.315 27.336 1.809 29.926 -0.793 32.449 C-5.765 37.4 -10.194 42.896 -14.656 48.305 C-13.701 48.33 -12.746 48.356 -11.762 48.383 C2.968 49.029 14.67 52.997 25.094 63.992 C32.974 73.586 36.749 84.771 36.656 97.055 C36.651 97.842 36.645 98.629 36.639 99.44 C36.333 114.268 31.072 127.305 20.758 138.051 C8.529 149.468 -4.322 152.691 -20.656 152.305 C-21.677 152.288 -22.698 152.271 -23.75 152.254 C-37.547 151.618 -49.457 145.014 -58.906 135.117 C-69.032 123.089 -72.221 109.466 -72.094 94.117 C-72.085 92.827 -72.076 91.536 -72.066 90.206 C-71.898 80.935 -71.184 72.963 -67.656 64.305 C-67.398 63.663 -67.141 63.021 -66.875 62.359 C-58.72 42.501 -46.211 24.942 -31.656 9.305 C-30.973 8.556 -30.29 7.807 -29.586 7.035 C-20.753 -2.3 -12.138 -5.432 0 0 Z " fill="#1DD3DB" transform="translate(198.65625,30.6953125)"/>
<path d="M0 0 C0.571 -0.01 0.571 -0.01 3.459 -0.062 C4.562 -0.068 5.665 -0.073 6.801 -0.078 C7.809 -0.087 8.818 -0.097 9.857 -0.106 C13.309 0.328 14.971 1.064 17.688 3.25 C21.824 9.067 22.271 13.562 22.233 20.592 C22.244 21.607 22.254 22.622 22.265 23.669 C22.294 27.007 22.296 30.345 22.297 33.684 C22.312 36.005 22.329 38.327 22.347 40.649 C22.391 46.746 22.411 52.843 22.426 58.941 C22.445 65.169 22.487 71.396 22.527 77.623 C22.603 89.832 22.653 102.041 22.688 114.25 C23.386 114.576 24.085 114.902 24.805 115.238 C25.715 115.675 26.625 116.112 27.562 116.562 C28.467 116.992 29.372 117.421 30.305 117.863 C32.688 119.25 32.688 119.25 34.688 122.25 C35.142 125.484 35.058 128.737 35.062 132 C35.087 132.882 35.111 133.763 35.137 134.672 C35.164 140.715 34.485 144.457 30.688 149.25 C24.853 152.495 19.775 152.691 13.188 152.648 C12.69 152.65 12.69 152.65 10.174 152.657 C8.079 152.659 5.985 152.654 3.891 152.641 C0.697 152.625 -2.494 152.641 -5.688 152.66 C-7.729 152.658 -9.771 152.654 -11.812 152.648 C-12.761 152.655 -13.709 152.661 -14.686 152.667 C-21.817 152.592 -26.658 151.558 -32.188 146.75 C-37.056 141.022 -35.811 132.381 -35.312 125.25 C-34.445 121.898 -33.717 120.902 -31.312 118.25 C-26.847 115.733 -24.506 115.25 -19.312 115.25 C-19.477 105.68 -19.477 105.68 -20.312 57.25 C-25.263 56.26 -30.212 55.27 -35.312 54.25 C-40.554 51.018 -43.165 47.246 -44.863 41.332 C-46.025 35.95 -46.173 31.063 -43.375 26.188 C-33.361 12.118 -17.019 0.076 0 0 Z " fill="#FDDD0F" transform="translate(92.3125,29.75)"/>
<path d="M0 0 C2.64 0 5.28 0 8 0 C8.33 68.31 8.66 136.62 9 207 C96.78 207.33 184.56 207.66 275 208 C275 208.66 275 209.32 275 210 C184.25 210 93.5 210 0 210 C0 140.7 0 71.4 0 0 Z " fill="#FDFDFD" transform="translate(0,0)"/>
<path d="M0 0 C3.061 3.42 3.779 6.536 4.625 11 C4.75 11.656 4.875 12.311 5.003 12.987 C6.092 18.957 6.673 24.94 7 31 C6.34 31.33 5.68 31.66 5 32 C4.918 35.044 5.024 37.072 6 40 C4.718 42.033 3.378 44.031 2 46 C1.319 47.661 0.653 49.328 0 51 C-0.938 52.715 -1.881 54.428 -2.879 56.109 C-3.642 57.396 -4.378 58.7 -5.09 60.016 C-9.475 67.752 -16.657 72.971 -25 76 C-26.389 76.214 -27.787 76.382 -29.188 76.5 C-33 77 -33 77 -35.305 78.977 C-38.652 81.489 -40.792 81.65 -44.938 81.875 C-45.53 81.915 -45.53 81.915 -48.527 82.117 C-52.074 81.998 -54.714 81.294 -58 80 C-58 79.34 -58 78.68 -58 78 C-58.309 77.938 -58.309 77.938 -59.875 77.625 C-62 77 -62 77 -64 75 C-66.357 74.384 -68.736 73.853 -71.125 73.375 C-72.406 73.115 -73.688 72.854 -75.008 72.586 C-75.995 72.393 -76.983 72.199 -78 72 C-78 71.67 -78 71.34 -78 71 C-78.557 70.938 -78.557 70.938 -81.375 70.625 C-85 70 -85 70 -87 68 C-87.144 67.588 -87.144 67.588 -87.875 65.5 C-89.217 62.518 -90.079 62.239 -93 61 C-94.812 59.625 -94.812 59.625 -96 58 C-95.574 55.898 -95.574 55.898 -95 54 C-94.539 54.364 -94.077 54.727 -93.602 55.102 C-81.846 64.162 -71.908 69.382 -57 70 C-55.943 70.064 -54.886 70.129 -53.797 70.195 C-40.689 70.67 -28.011 66.453 -17.75 58.188 C-8.197 49.214 -1.497 36.148 -0.908 22.935 C-0.866 20.622 -0.864 18.313 -0.875 16 C-0.871 15.219 -0.867 14.438 -0.863 13.633 C-0.871 9.31 -1.141 5.256 -2 1 C-1.34 0.67 -0.68 0.34 0 0 Z " fill="#CEC296" transform="translate(235,112)"/>
<path d="M0 0 C4.994 7.49 3.705 18.751 2.539 27.434 C-0.902 42.675 -9.357 54.918 -22.379 63.531 C-32.666 69.296 -42.433 70.274 -54 70 C-55.021 69.983 -56.042 69.966 -57.094 69.949 C-70.891 69.314 -82.8 62.71 -92.25 52.812 C-102.115 41.094 -105.527 27.855 -105.188 12.875 C-105.181 12.301 -105.181 12.301 -105.146 9.398 C-105.111 6.598 -105.062 3.799 -105 1 C-104.67 1 -104.34 1 -104 1 C-103.98 1.58 -103.96 2.159 -103.94 2.757 C-103.844 5.401 -103.735 8.044 -103.625 10.688 C-103.594 11.6 -103.563 12.512 -103.531 13.451 C-103.33 18.054 -103.068 21.803 -101 26 C-100.531 27.434 -100.073 28.872 -99.625 30.312 C-98.582 33.51 -97.351 36.447 -95.812 39.438 C-94 43 -94 43 -94 45 C-91.69 45.66 -89.38 46.32 -87 47 C-87 47.66 -87 48.32 -87 49 C-85.68 48.34 -84.36 47.68 -83 47 C-83.33 48.32 -83.66 49.64 -84 51 C-83.01 51 -82.02 51 -81 51 C-79 54 -79 54 -79 57 C-72.375 58.25 -72.375 58.25 -69 56 C-66.812 56.375 -66.812 56.375 -65 57 C-65 57.33 -65 57.66 -65 58 C-63.35 58.33 -61.7 58.66 -60 59 C-60 59.66 -60 60.32 -60 61 C-57.69 60.67 -55.38 60.34 -53 60 C-53 60.66 -53 61.32 -53 62 C-52.71 61.964 -52.71 61.964 -51.242 61.781 C-46.799 61.253 -42.484 60.885 -38 61 C-38 60.34 -38 59.68 -38 59 C-36.417 58.52 -34.834 58.041 -33.25 57.562 C-32.368 57.296 -31.487 57.029 -30.578 56.754 C-28.394 56.115 -26.212 55.532 -24 55 C-24 54.34 -24 53.68 -24 53 C-23.072 52.567 -22.144 52.134 -21.188 51.688 C-18.483 50.255 -17.046 49.148 -15 47 C-14.34 47 -13.68 47 -13 47 C-12.709 46.415 -12.417 45.83 -12.117 45.227 C-11.443 43.884 -10.763 42.544 -10.07 41.211 C-3.076 27.627 -0.844 15.216 0 0 Z " fill="#279B94" transform="translate(232,113)"/>
<path d="M0 0 C0.66 0 1.32 0 2 0 C2.66 0.99 3.32 1.98 4 3 C4.887 2.814 5.774 2.629 6.688 2.438 C9.89 2.015 11.907 2.248 15 3 C15.99 3 16.98 3 18 3 C18 2.34 18 1.68 18 1 C19.65 1 21.3 1 23 1 C23.023 9.849 23.041 18.698 23.052 27.546 C23.057 31.655 23.064 35.763 23.075 39.872 C23.086 43.833 23.092 47.795 23.095 51.757 C23.097 53.271 23.1 54.786 23.106 56.301 C23.113 58.415 23.114 60.53 23.114 62.644 C23.116 63.85 23.118 65.056 23.12 66.298 C23 69 23 69 22 70 C19.667 70.041 17.333 70.042 15 70 C13.937 72.375 13.937 72.375 13 75 C13.33 75.66 13.66 76.32 14 77 C13.562 79.125 13.562 79.125 13 81 C12.01 81 11.02 81 10 81 C9.67 79.68 9.34 78.36 9 77 C8.865 79.419 8.766 81.829 8.688 84.25 C8.646 84.932 8.604 85.614 8.561 86.316 C8.471 90.013 8.685 91.649 11.188 94.438 C14.137 96.076 15.97 96.576 19.312 96.75 C19.792 96.777 19.792 96.777 22.219 96.914 C23.137 96.942 24.054 96.971 25 97 C25.753 97.028 26.506 97.057 27.281 97.086 C30.216 97.142 32.931 97.014 35.812 96.438 C38.789 96.029 41.035 96.126 44 96.438 C63.314 98.451 63.314 98.451 68 95 C71.798 88.864 72.191 83.906 71 77 C71.938 74.5 71.938 74.5 73 73 C72.34 73 71.68 73 71 73 C71.33 72.34 71.66 71.68 72 71 C74.437 72.716 75.832 74.11 76.395 77.092 C76.54 79.676 76.545 82.225 76.5 84.812 C76.508 85.251 76.508 85.251 76.547 87.471 C76.511 93.462 75.749 97.247 72 102 C66.166 105.246 61.087 105.441 54.5 105.398 C54.003 105.4 54.003 105.4 51.486 105.407 C49.392 105.409 47.297 105.404 45.203 105.391 C42.01 105.375 38.818 105.391 35.625 105.41 C33.583 105.408 31.542 105.404 29.5 105.398 C28.552 105.405 27.604 105.411 26.627 105.417 C19.495 105.342 14.654 104.308 9.125 99.5 C4.256 93.772 5.501 85.131 6 78 C6.868 74.648 7.595 73.652 10 71 C14.465 68.483 16.807 68 22 68 C21.835 58.43 21.835 58.43 21 10 C16.05 9.01 11.1 8.02 6 7 C2.062 4.438 2.062 4.438 0 2 C0 1.34 0 0.68 0 0 Z " fill="#F3C205" transform="translate(51,77)"/>
<path d="M0 0 C0.99 0.66 1.98 1.32 3 2 C3.188 4.625 3.188 4.625 3 7 C3.66 7 4.32 7 5 7 C5.366 8.727 5.717 10.457 6.062 12.188 C6.26 13.15 6.457 14.113 6.66 15.105 C7.206 19.756 6.122 23.857 4 28 C1.023 31.627 -1.298 34.106 -6 35 C-8.092 35.487 -10.044 36.017 -12.051 36.789 C-20.388 39.87 -29.722 39.801 -38.148 36.926 C-41.104 35.966 -42.838 35.915 -45.875 36.375 C-46.656 36.486 -47.437 36.597 -48.242 36.711 C-48.822 36.806 -49.402 36.902 -50 37 C-50 36.34 -50 35.68 -50 35 C-50.29 34.921 -50.29 34.921 -51.758 34.52 C-57.276 32.871 -60.822 30.964 -65 27 C-64.67 25.68 -64.34 24.36 -64 23 C-63.062 23.487 -62.123 23.974 -61.156 24.475 C-56.327 26.532 -51.682 26.432 -46.5 26.398 C-45.505 26.401 -44.511 26.404 -43.486 26.407 C-41.392 26.409 -39.297 26.404 -37.203 26.391 C-34.01 26.375 -30.818 26.391 -27.625 26.41 C-25.583 26.408 -23.542 26.404 -21.5 26.398 C-20.552 26.405 -19.604 26.411 -18.627 26.417 C-12.998 26.358 -8.957 25.744 -4 23 C-0.639 18.329 -0.477 13.682 -0.312 8.125 C-0.278 7.341 -0.244 6.558 -0.209 5.75 C-0.127 3.834 -0.062 1.917 0 0 Z " fill="#E9DAB3" transform="translate(127,155)"/>
<path d="M0 0 C3.269 2.48 4.622 5.21 5.23 9.23 C5.239 15.837 4.939 20.102 0.797 25.363 C-2.934 28.765 -6.832 28.94 -11.699 28.773 C-15.789 28.104 -18.435 26.408 -21.203 23.363 C-24.232 18.185 -24.759 14.199 -24.203 8.363 C-22.486 3.663 -20.337 1.154 -16.203 -1.637 C-10.103 -3.67 -5.596 -2.72 0 0 Z " fill="#EEEBD2" transform="translate(190.203125,116.63671875)"/>
<path d="M0 0 C1.968 1.336 3.879 2.718 5.75 4.188 C5.42 5.178 5.09 6.168 4.75 7.188 C4.279 7.218 4.279 7.218 1.898 7.371 C1.276 7.413 1.276 7.413 -1.875 7.625 C-3.105 7.706 -4.335 7.787 -5.602 7.871 C-8.865 8.154 -12.029 8.598 -15.25 9.188 C-15.25 9.847 -15.25 10.508 -15.25 11.188 C-15.91 11.188 -16.57 11.188 -17.25 11.188 C-17.25 11.847 -17.25 12.508 -17.25 13.188 C-17.91 13.188 -18.57 13.188 -19.25 13.188 C-19.25 13.847 -19.25 14.508 -19.25 15.188 C-19.91 15.188 -20.57 15.188 -21.25 15.188 C-21.25 15.847 -21.25 16.508 -21.25 17.188 C-21.91 17.188 -22.57 17.188 -23.25 17.188 C-23.25 17.847 -23.25 18.508 -23.25 19.188 C-23.91 19.188 -24.57 19.188 -25.25 19.188 C-25.198 19.528 -25.198 19.528 -24.938 21.25 C-25.375 25.366 -27.417 28.209 -30.25 31.188 C-30.91 31.188 -31.57 31.188 -32.25 31.188 C-32.58 32.178 -32.91 33.167 -33.25 34.188 C-35.312 34.875 -35.312 34.875 -37.25 35.188 C-37.25 36.507 -37.25 37.828 -37.25 39.188 C-37.91 39.188 -38.57 39.188 -39.25 39.188 C-39.25 39.847 -39.25 40.507 -39.25 41.188 C-39.91 41.188 -40.57 41.188 -41.25 41.188 C-41.233 41.495 -41.233 41.495 -41.145 43.051 C-41.117 43.859 -41.09 44.667 -41.062 45.5 C-41.045 45.9 -41.045 45.9 -40.957 47.926 C-41.317 50.701 -42.171 51.403 -44.25 53.188 C-44.559 53.827 -44.869 54.466 -45.188 55.125 C-46.51 57.692 -48.053 59.324 -50.25 61.188 C-51.24 61.188 -52.23 61.188 -53.25 61.188 C-53.002 61.765 -52.755 62.343 -52.5 62.938 C-52.417 63.68 -52.335 64.422 -52.25 65.188 C-52.848 65.724 -53.446 66.26 -54.062 66.812 C-56.904 69.898 -57.076 72.382 -57.746 76.438 C-58.545 80.795 -59.905 84.972 -61.25 89.188 C-61.58 89.188 -61.91 89.188 -62.25 89.188 C-62.425 83.092 -61.858 77.48 -60.688 71.5 C-60.518 70.63 -60.348 69.76 -60.173 68.864 C-58.504 61.095 -55.571 54.839 -51.25 48.188 C-50.59 48.188 -49.93 48.188 -49.25 48.188 C-49.147 47.61 -49.147 47.61 -48.625 44.688 C-47.361 39.578 -44.513 36.208 -41.25 32.188 C-37.25 26.785 -37.25 26.785 -37.25 23.188 C-35.451 21.002 -33.643 18.973 -31.688 16.938 C-31.136 16.356 -30.585 15.774 -30.017 15.174 C-28.922 14.023 -27.825 12.874 -26.724 11.729 C-25.525 10.475 -24.347 9.199 -23.176 7.918 C-16.941 1.247 -9.296 -3.357 0 0 Z " fill="#70EAEF" transform="translate(193.25,28.8125)"/>
<path d="M0 0 C3.231 4.846 3.213 9.039 3.25 14.688 C3.271 15.465 3.291 16.243 3.312 17.045 C3.35 22.692 2.25 26.819 0 32 C-0.66 32 -1.32 32 -2 32 C-1.897 32.804 -1.794 33.609 -1.688 34.438 C-2.486 43.539 -9.57 51.006 -16 57 C-25.817 64.289 -32.708 66.399 -44.812 65.938 C-46.017 65.894 -47.221 65.851 -48.462 65.807 C-57.955 65.332 -66.244 63.634 -75 60 C-69 56 -69 56 -66.812 56.375 C-66.214 56.581 -65.616 56.787 -65 57 C-65 57.33 -65 57.66 -65 58 C-63.35 58.33 -61.7 58.66 -60 59 C-60 59.66 -60 60.32 -60 61 C-58.845 60.835 -58.845 60.835 -53 60 C-53 60.66 -53 61.32 -53 62 C-52.71 61.964 -52.71 61.964 -51.242 61.781 C-46.799 61.253 -42.484 60.885 -38 61 C-38 60.34 -38 59.68 -38 59 C-36.417 58.52 -34.834 58.041 -33.25 57.562 C-32.368 57.296 -31.487 57.029 -30.578 56.754 C-28.394 56.115 -26.212 55.532 -24 55 C-24 54.34 -24 53.68 -24 53 C-23.072 52.567 -22.144 52.134 -21.188 51.688 C-18.483 50.255 -17.046 49.148 -15 47 C-14.34 47 -13.68 47 -13 47 C-12.854 46.707 -12.854 46.707 -12.117 45.227 C-11.443 43.884 -10.763 42.544 -10.07 41.211 C-3.076 27.627 -0.844 15.216 0 0 Z " fill="#0C9D9F" transform="translate(232,113)"/>
<path d="M0 0 C0.563 0.005 0.563 0.005 3.414 0.031 C11.659 0.189 11.659 0.189 15.125 2.5 C14.795 3.49 14.465 4.48 14.125 5.5 C14.085 7.833 14.081 10.167 14.125 12.5 C13.465 12.83 12.805 13.16 12.125 13.5 C11.96 12.84 11.96 12.84 11.125 9.5 C10.465 9.5 9.805 9.5 9.125 9.5 C9.125 8.18 9.125 6.86 9.125 5.5 C8.465 5.5 7.805 5.5 7.125 5.5 C7.125 6.16 7.125 6.82 7.125 7.5 C5.145 8.16 3.165 8.82 1.125 9.5 C1.455 8.51 1.785 7.52 2.125 6.5 C1.403 6.974 0.681 7.449 -0.062 7.938 C-3.352 9.765 -6.125 10.5 -9.875 10.5 C-16.659 13.43 -21.169 17.146 -24.875 23.5 C-25.865 23.83 -26.855 24.16 -27.875 24.5 C-29.062 27.562 -29.062 27.562 -29.875 30.5 C-30.535 30.5 -31.195 30.5 -31.875 30.5 C-31.545 28.52 -31.215 26.54 -30.875 24.5 C-31.535 24.5 -32.195 24.5 -32.875 24.5 C-33.205 25.49 -33.535 26.48 -33.875 27.5 C-37.319 30.5 -37.319 30.5 -39.875 30.5 C-39.875 31.16 -39.875 31.82 -39.875 32.5 C-40.535 32.5 -41.195 32.5 -41.875 32.5 C-40.709 24.356 -40.709 24.356 -37.5 21.062 C-35.325 19.768 -33.136 18.631 -30.875 17.5 C-30.545 16.84 -30.215 16.18 -29.875 15.5 C-29.091 15.087 -28.308 14.675 -27.5 14.25 C-24.875 12.5 -24.875 12.5 -23.625 9.688 C-18.497 0.346 -9.743 -0.364 0 0 Z " fill="#FDE428" transform="translate(92.875,29.5)"/>
<path d="M0 0 C3.061 3.42 3.779 6.536 4.625 11 C4.75 11.656 4.875 12.311 5.003 12.987 C6.092 18.957 6.673 24.94 7 31 C6.67 31.165 6.67 31.165 5 32 C4.918 35.044 5.024 37.072 6 40 C4.718 42.033 3.378 44.031 2 46 C1.319 47.661 0.653 49.328 0 51 C-0.938 52.715 -1.881 54.428 -2.879 56.109 C-3.642 57.396 -4.378 58.7 -5.09 60.016 C-9.517 67.826 -16.653 72.831 -25 76 C-27.366 76.534 -29.574 76.798 -32 77 C-29.591 73.167 -27.205 71.465 -23.188 69.625 C-18.774 67.571 -15.815 65.252 -12.57 61.648 C-11 60 -11 60 -8.938 58.586 C-5.386 55.679 -4.464 51.228 -3 47 C-2.608 45.886 -2.216 44.773 -1.812 43.625 C1.214 30.12 0.643 14.574 -2 1 C-1.34 0.67 -0.68 0.34 0 0 Z " fill="#E1D5B1" transform="translate(235,112)"/>
<path d="M0 0 C3.413 1.859 5.209 3.654 6.75 7.312 C6.75 7.972 6.75 8.632 6.75 9.312 C6.304 9.301 6.304 9.301 4.047 9.242 C2.876 9.224 1.706 9.206 0.5 9.188 C-0.66 9.164 -1.82 9.141 -3.016 9.117 C-7.129 9.366 -9.098 10.064 -11.883 13.082 C-14.525 16.699 -16.897 19.983 -18.25 24.312 C-22.038 19.536 -22.882 15.367 -22.25 9.312 C-20.533 4.613 -18.384 2.103 -14.25 -0.688 C-9.126 -2.396 -4.896 -2.236 0 0 Z " fill="#C4C19A" transform="translate(188.25,115.6875)"/>
<path d="M0 0 C0.66 0.33 1.32 0.66 2 1 C2.33 35.65 2.66 70.3 3 106 C1.35 106 -0.3 106 -2 106 C-2 104.35 -2 102.7 -2 101 C-2.66 101 -3.32 101 -4 101 C-3.928 100.357 -3.856 99.714 -3.781 99.051 C-1.769 79.462 -1.769 79.462 -4 75 C-4.07 73.46 -4.085 71.917 -4.062 70.375 C-4.053 69.558 -4.044 68.74 -4.035 67.898 C-4.024 67.272 -4.012 66.645 -4 66 C-3.505 65.835 -3.505 65.835 -1 65 C-0.67 43.55 -0.34 22.1 0 0 Z " fill="#D8A815" transform="translate(112,39)"/>
<path d="M0 0 C7.113 -0.237 10.367 0.574 16 5 C15.67 5.99 15.34 6.98 15 8 C14.529 8.03 14.529 8.03 12.148 8.184 C11.526 8.225 11.526 8.225 8.375 8.438 C7.145 8.519 5.915 8.6 4.648 8.684 C1.385 8.967 -1.779 9.41 -5 10 C-5 10.66 -5 11.32 -5 12 C-5.66 12 -6.32 12 -7 12 C-7 12.66 -7 13.32 -7 14 C-7.66 14 -8.32 14 -9 14 C-9 14.66 -9 15.32 -9 16 C-9.66 16 -10.32 16 -11 16 C-11 16.66 -11 17.32 -11 18 C-11.66 18 -12.32 18 -13 18 C-13 18.66 -13 19.32 -13 20 C-13.66 20 -14.32 20 -15 20 C-14.897 20.681 -14.794 21.361 -14.688 22.062 C-15.125 26.178 -17.167 29.021 -20 32 C-20.66 32 -21.32 32 -22 32 C-22.33 32.99 -22.66 33.98 -23 35 C-25.062 35.688 -25.062 35.688 -27 36 C-27 37.32 -27 38.64 -27 40 C-27.66 40 -28.32 40 -29 40 C-29 40.66 -29 41.32 -29 42 C-29.66 42 -30.32 42 -31 42 C-30.965 42.615 -30.93 43.23 -30.895 43.863 C-30.867 44.672 -30.84 45.48 -30.812 46.312 C-30.778 47.113 -30.743 47.914 -30.707 48.738 C-31.067 51.516 -31.923 52.211 -34 54 C-34.165 54.34 -34.165 54.34 -35 56.062 C-36 58 -36 58 -39 60 C-39.33 59.67 -39.66 59.34 -40 59 C-39.657 53.212 -37.886 49.376 -34.938 44.562 C-34.56 43.926 -34.183 43.29 -33.795 42.635 C-32.874 41.084 -31.938 39.541 -31 38 C-30.34 38 -29.68 38 -29 38 C-28.795 37.171 -28.59 36.342 -28.379 35.488 C-26.609 31.011 -24.011 27.851 -20.938 24.188 C-20.353 23.484 -19.769 22.781 -19.167 22.056 C-6.108 6.484 -6.108 6.484 3 4 C2.01 3.67 1.02 3.34 0 3 C0 2.01 0 1.02 0 0 Z " fill="#41DDE6" transform="translate(183,28)"/>
<path d="M0 0 C2.738 4.107 3.108 7.76 3.205 12.615 C3.225 13.507 3.245 14.4 3.266 15.32 C3.282 16.283 3.299 17.246 3.316 18.238 C3.337 19.256 3.358 20.274 3.38 21.323 C3.446 24.653 3.504 27.983 3.562 31.312 C3.584 32.443 3.605 33.574 3.627 34.738 C4.027 56.16 4.119 77.575 4 99 C2.68 98.34 1.36 97.68 0 97 C0 64.99 0 32.98 0 0 Z " fill="#D8CA9A" transform="translate(114,47)"/>
<path d="M0 0 C3.457 2.634 3.984 5.928 4.688 10 C4.814 10.723 4.941 11.447 5.071 12.192 C7.088 25.433 6.806 39.514 5.457 52.816 C5.003 57.355 5.075 61.516 5.438 66.062 C6.083 75.122 6.062 84.15 5.963 93.229 C5.954 94.294 5.946 95.359 5.938 96.457 C5.926 97.406 5.914 98.354 5.902 99.331 C6 101.992 6.403 104.409 7 107 C5.68 106.67 4.36 106.34 3 106 C2.99 105.439 2.99 105.439 2.938 102.599 C2.742 92.006 2.536 81.413 2.321 70.82 C2.211 65.374 2.104 59.929 2.005 54.483 C1.91 49.224 1.805 43.966 1.694 38.708 C1.653 36.705 1.616 34.702 1.582 32.699 C1.533 29.886 1.473 27.074 1.411 24.262 C1.399 23.44 1.388 22.617 1.376 21.77 C1.278 17.906 0.948 14.414 -0.049 10.671 C-1.133 6.486 -0.867 4.162 0 0 Z " fill="#ECE2BD" transform="translate(115,40)"/>
<path d="M0 0 C0.66 0.33 1.32 0.66 2 1 C1.541 1.652 1.082 2.305 0.609 2.977 C-0.658 4.782 -1.922 6.589 -3.184 8.398 C-4.55 10.356 -5.929 12.305 -7.312 14.25 C-9.064 17.104 -10.083 19.789 -11 23 C-11.66 23 -12.32 23 -13 23 C-13.248 23.66 -13.495 24.32 -13.75 25 C-14.714 27.314 -15.742 29.361 -16.938 31.547 C-19.322 36.29 -20.31 41.055 -21.25 46.25 C-21.423 47.134 -21.595 48.019 -21.773 48.93 C-22.498 52.738 -23 56.1 -23 60 C-21.341 55.496 -20.417 51.087 -19.66 46.367 C-18.907 43.666 -17.892 42.058 -16 40 C-15.34 40 -14.68 40 -14 40 C-14.33 38.68 -14.66 37.36 -15 36 C-14.34 36 -13.68 36 -13 36 C-12.312 38.25 -12.312 38.25 -12 41 C-13.438 43.312 -13.438 43.312 -15 45 C-14.67 45.66 -14.34 46.32 -14 47 C-14.99 47.66 -15.98 48.32 -17 49 C-17.043 50.666 -17.041 52.334 -17 54 C-17.66 54.99 -18.32 55.98 -19 57 C-19.37 59.869 -19.505 62.713 -19.656 65.602 C-19.77 66.393 -19.883 67.185 -20 68 C-20.33 68.165 -20.33 68.165 -22 69 C-22 70.32 -22 71.64 -22 73 C-22.33 73.165 -22.33 73.165 -24 74 C-25.422 71.155 -25.378 68.336 -25.621 65.191 C-26 63 -26 63 -28 60 C-27.643 38.578 -13.077 16.073 0 0 Z " fill="#37DBE2" transform="translate(155,54)"/>
<path d="M0 0 C0.66 0 1.32 0 2 0 C2.66 0.99 3.32 1.98 4 3 C4.887 2.814 5.774 2.629 6.688 2.438 C9.89 2.015 11.907 2.248 15 3 C15.99 3 16.98 3 18 3 C18 2.34 18 1.68 18 1 C19.65 1 21.3 1 23 1 C23.023 9.849 23.041 18.698 23.052 27.546 C23.057 31.655 23.064 35.763 23.075 39.872 C23.086 43.833 23.092 47.795 23.095 51.757 C23.097 53.271 23.1 54.786 23.106 56.301 C23.113 58.415 23.114 60.53 23.114 62.644 C23.116 63.85 23.118 65.056 23.12 66.298 C23 69 23 69 22 70 C19.667 70.041 17.333 70.042 15 70 C13.937 72.375 13.937 72.375 13 75 C13.33 75.66 13.66 76.32 14 77 C13.562 79.125 13.562 79.125 13 81 C12.01 81 11.02 81 10 81 C9.67 79.68 9.34 78.36 9 77 C8.946 79.438 8.906 81.874 8.875 84.312 C8.858 85.003 8.841 85.693 8.824 86.404 C8.788 90.171 8.856 91.784 11 95 C9.35 94.67 7.7 94.34 6 94 C5.233 76.256 5.233 76.256 10 71 C14.465 68.483 16.807 68 22 68 C21.835 58.43 21.835 58.43 21 10 C16.05 9.01 11.1 8.02 6 7 C2.062 4.438 2.062 4.438 0 2 C0 1.34 0 0.68 0 0 Z " fill="#F7CD28" transform="translate(51,77)"/>
<path d="M0 0 C3.976 5.963 2.635 15.036 2 22 C1.136 25.384 -0.274 27.99 -2 31 C-2.94 33.178 -3.856 35.366 -4.75 37.562 C-5.178 38.595 -5.606 39.628 -6.047 40.691 C-6.204 41.072 -6.204 41.072 -7 43 C-7.66 43 -8.32 43 -9 43 C-9.227 43.536 -9.454 44.072 -9.688 44.625 C-14.929 54.109 -23.366 58.742 -33.324 62.238 C-38.859 63.814 -44.147 64.135 -49.875 64.062 C-50.563 64.058 -51.252 64.053 -51.961 64.049 C-53.641 64.037 -55.32 64.019 -57 64 C-56.67 63.01 -56.34 62.02 -56 61 C-55.505 60.835 -55.505 60.835 -53 60 C-53 60.66 -53 61.32 -53 62 C-52.71 61.964 -52.71 61.964 -51.242 61.781 C-46.799 61.253 -42.484 60.885 -38 61 C-38 60.34 -38 59.68 -38 59 C-36.417 58.52 -34.834 58.041 -33.25 57.562 C-32.368 57.296 -31.487 57.029 -30.578 56.754 C-28.394 56.115 -26.212 55.532 -24 55 C-24 54.34 -24 53.68 -24 53 C-23.072 52.567 -22.144 52.134 -21.188 51.688 C-18.483 50.255 -17.046 49.148 -15 47 C-14.34 47 -13.68 47 -13 47 C-12.854 46.707 -12.854 46.707 -12.117 45.227 C-11.443 43.884 -10.763 42.544 -10.07 41.211 C-3.076 27.627 -0.844 15.216 0 0 Z " fill="#04B6BB" transform="translate(232,113)"/>
<path d="M0 0 C0.33 0 0.66 0 1 0 C1.165 2.805 1.165 2.805 2 17 C1.01 17.33 0.02 17.66 -1 18 C-0.979 18.568 -0.959 19.137 -0.938 19.723 C-1.038 23.49 -1.213 26.07 -3.707 29.016 C-5.113 30.216 -6.555 31.375 -8.027 32.492 C-10 34 -10 34 -11.875 36.438 C-15.491 39.096 -19.678 38.247 -24 38 C-19.254 31.337 -13.896 25.515 -8.215 19.648 C-7.572 18.976 -6.928 18.303 -6.266 17.609 C-5.686 17.011 -5.106 16.412 -4.509 15.796 C-1.566 12.293 -0.731 9.263 -0.375 4.75 C-0.3 3.858 -0.225 2.966 -0.148 2.047 C-0.099 1.371 -0.05 0.696 0 0 Z " fill="#C1C29D" transform="translate(207,42)"/>
<path d="M0 0 C9.708 -0.622 9.708 -0.622 14.375 1.625 C21.758 8.305 21.758 8.305 22.309 12.164 C22.312 14.375 22.312 14.375 22 18 C20 15 20 15 18.812 12.5 C16.319 9.061 14.016 8.272 10 7 C4.755 6.448 1.455 7.165 -3 10 C-6.676 14.056 -7.162 17.578 -7.102 22.992 C-6.98 25.398 -6.584 27.665 -6 30 C-9.76 27.493 -9.988 26.357 -11 22 C-11.155 18.659 -11.119 15.342 -11 12 C-10.34 12 -9.68 12 -9 12 C-8.917 11.443 -8.835 10.886 -8.75 10.312 C-7.747 7.22 -6.225 5.352 -4 3 C-1.75 2.188 -1.75 2.188 0 2 C0 1.34 0 0.68 0 0 Z " fill="#02999D" transform="translate(174,108)"/>
<path d="M0 0 C0.33 0 0.66 0 1 0 C1.109 2.855 1.188 5.706 1.25 8.562 C1.284 9.362 1.317 10.162 1.352 10.986 C1.447 16.855 0.655 20.325 -3 25 C-8.832 28.249 -13.914 28.441 -20.5 28.398 C-20.997 28.4 -20.997 28.4 -23.514 28.407 C-25.608 28.409 -27.703 28.404 -29.797 28.391 C-32.99 28.375 -36.182 28.391 -39.375 28.41 C-41.417 28.408 -43.458 28.404 -45.5 28.398 C-46.448 28.405 -47.396 28.411 -48.373 28.417 C-55.172 28.345 -60.21 27.504 -65.438 22.812 C-65.953 22.214 -66.469 21.616 -67 21 C-66.34 20.67 -65.68 20.34 -65 20 C-65 20.66 -65 21.32 -65 22 C-61.748 23.929 -59.347 24.245 -55.589 24.227 C-55.048 24.227 -55.048 24.227 -52.314 24.227 C-51.733 24.221 -51.733 24.221 -48.797 24.195 C-47.604 24.192 -46.411 24.19 -45.182 24.187 C-41.371 24.176 -37.561 24.15 -33.75 24.125 C-31.167 24.115 -28.583 24.106 -26 24.098 C-19.667 24.076 -13.333 24.042 -7 24 C-6.713 23.365 -6.426 22.73 -6.13 22.075 C-5 20 -5 20 -2.922 18.793 C-0.235 16.286 -0.445 14.257 -0.293 10.693 C-0.279 9.908 -0.265 9.122 -0.25 8.312 C-0.22 7.515 -0.191 6.718 -0.16 5.896 C-0.09 3.932 -0.043 1.966 0 0 Z " fill="#B18418" transform="translate(126,154)"/>
<path d="M0 0 C0.33 0 0.66 0 1 0 C2.934 14.879 2.934 14.879 -0.375 19.25 C-1.241 20.157 -2.108 21.065 -3 22 C-3.165 22.495 -3.165 22.495 -4 25 C-6.399 26.2 -7.892 26.127 -10.57 26.129 C-11.518 26.133 -12.466 26.136 -13.442 26.139 C-13.956 26.138 -13.956 26.138 -16.555 26.133 C-17.608 26.134 -18.661 26.135 -19.746 26.136 C-21.977 26.136 -24.208 26.135 -26.439 26.13 C-29.854 26.125 -33.269 26.13 -36.684 26.137 C-38.849 26.136 -41.014 26.135 -43.18 26.133 C-43.691 26.134 -43.691 26.134 -46.28 26.139 C-46.757 26.137 -46.757 26.137 -49.171 26.129 C-50.009 26.129 -50.847 26.128 -51.71 26.127 C-53.934 26.004 -55.866 25.618 -58 25 C-57.67 24.01 -57.34 23.02 -57 22 C-56.439 22.007 -55.879 22.013 -55.301 22.02 C-49.444 22.087 -43.588 22.132 -37.731 22.165 C-35.548 22.18 -33.365 22.2 -31.181 22.226 C-28.036 22.263 -24.891 22.28 -21.746 22.293 C-21.261 22.301 -21.261 22.301 -18.807 22.34 C-13.087 22.341 -9.036 21.787 -4 19 C0.206 13.672 -0.281 6.521 0 0 Z " fill="#C9B178" transform="translate(127,159)"/>
<path d="M0 0 C1.488 0.007 2.977 0.019 4.465 0.035 C5.223 0.04 5.982 0.044 6.764 0.049 C8.643 0.061 10.523 0.079 12.402 0.098 C13.062 1.418 13.722 2.738 14.402 4.098 C15.392 4.098 16.382 4.098 17.402 4.098 C17.402 4.758 17.402 5.418 17.402 6.098 C18.062 6.098 18.722 6.098 19.402 6.098 C23.582 13.063 22.675 19.46 21.402 27.098 C20.742 27.098 20.082 27.098 19.402 27.098 C19.402 21.488 19.402 15.878 19.402 10.098 C18.082 9.438 16.762 8.778 15.402 8.098 C14.049 6.784 12.714 5.453 11.402 4.098 C8.833 2.813 6.637 2.768 3.777 2.535 C2.774 2.451 1.772 2.368 0.738 2.281 C-0.033 2.221 -0.803 2.16 -1.598 2.098 C-1.598 2.758 -1.598 3.418 -1.598 4.098 C-1.969 4.294 -1.969 4.294 -3.848 5.285 C-7.53 7.712 -8.61 10.195 -10.598 14.098 C-11.258 14.098 -11.918 14.098 -12.598 14.098 C-12.314 16.161 -12.02 18.223 -11.723 20.285 C-11.56 21.434 -11.398 22.582 -11.23 23.766 C-10.657 26.785 -9.85 29.303 -8.598 32.098 C-9.588 32.098 -10.578 32.098 -11.598 32.098 C-15.586 25.047 -16.086 19.112 -15.598 11.098 C-14.278 10.768 -12.958 10.438 -11.598 10.098 C-11.536 9.479 -11.474 8.86 -11.41 8.223 C-11.142 7.521 -10.874 6.82 -10.598 6.098 C-8.946 5.396 -7.278 4.728 -5.598 4.098 C-5.268 3.108 -4.938 2.118 -4.598 1.098 C-3.598 0.098 -3.598 0.098 0 0 Z " fill="#07BFC6" transform="translate(175.59765625,105.90234375)"/>
<path d="M0 0 C1.65 5.208 0.279 9.159 -2 14 C-3.662 16.585 -5.483 19.017 -7.375 21.438 C-7.61 21.739 -7.61 21.739 -8.8 23.265 C-11.577 26.672 -14.101 28.868 -18 31 C-18.496 31.536 -18.993 32.072 -19.504 32.625 C-21.54 34.497 -23.226 34.609 -25.938 35 C-29.854 35.567 -31.932 36.515 -35 39 C-38.985 40.185 -42.865 40.081 -47 40 C-47 39.67 -47 39.34 -47 39 C-51.95 38.34 -56.9 37.68 -62 37 C-62 36.67 -62 36.34 -62 36 C-61.432 36.021 -60.864 36.042 -60.279 36.063 C-43.416 36.602 -28.428 35.206 -14.75 24.188 C-7.562 17.435 -3.094 9.283 0 0 Z " fill="#B9B183" transform="translate(232,146)"/>
<path d="M0 0 C0.66 0 1.32 0 2 0 C2 2.97 2 5.94 2 9 C1.34 9 0.68 9 0 9 C-1.523 11.937 -2.801 14.917 -4 18 C-5.32 17.67 -6.64 17.34 -8 17 C-8.33 17.66 -8.66 18.32 -9 19 C-9.577 18.814 -10.155 18.629 -10.75 18.438 C-13.207 17.96 -14.644 18.243 -17 19 C-17 18.34 -17 17.68 -17 17 C-17.619 17.186 -18.238 17.371 -18.875 17.562 C-21 18 -21 18 -23 17 C-23 16.34 -23 15.68 -23 15 C-23.66 15 -24.32 15 -25 15 C-24.67 13.68 -24.34 12.36 -24 11 C-23.31 11.046 -22.621 11.093 -21.91 11.141 C-15.23 11.397 -9.564 11.005 -4 7 C-2.19 4.716 -1.192 2.696 0 0 Z " fill="#32DCE3" transform="translate(198,135)"/>
<path d="M0 0 C0.66 0 1.32 0 2 0 C1.812 2.375 1.812 2.375 1 5 C-1.562 6.312 -1.562 6.312 -4 7 C-2.796 4.506 -1.546 2.319 0 0 Z M-62 6 C-60.331 6.323 -58.665 6.658 -57 7 C-55.191 7.083 -53.378 7.118 -51.567 7.114 C-51.037 7.113 -51.037 7.113 -48.353 7.113 C-47.219 7.108 -46.086 7.103 -44.918 7.098 C-44.333 7.097 -44.333 7.097 -41.375 7.093 C-37.646 7.088 -33.917 7.075 -30.188 7.062 C-27.657 7.057 -25.126 7.053 -22.596 7.049 C-16.397 7.038 -10.199 7.021 -4 7 C-4.33 7.99 -4.66 8.98 -5 10 C-7.937 10.979 -9.896 11.143 -12.959 11.177 C-13.463 11.183 -13.463 11.183 -16.013 11.216 C-16.557 11.22 -16.557 11.22 -19.309 11.238 C-20.427 11.246 -21.545 11.254 -22.697 11.263 C-25.064 11.277 -27.43 11.287 -29.796 11.295 C-33.42 11.312 -37.043 11.356 -40.666 11.4 C-42.964 11.411 -45.261 11.419 -47.559 11.426 C-48.644 11.443 -49.73 11.461 -50.848 11.479 C-51.859 11.476 -52.87 11.473 -53.912 11.47 C-54.8 11.476 -55.688 11.482 -56.603 11.488 C-59.741 10.849 -60.958 9.392 -63 7 C-62.67 6.67 -62.34 6.34 -62 6 Z " fill="#DEA602" transform="translate(124,168)"/>
<path d="M0 0 C3 2 3 2 3.676 4.176 C4.061 7.53 4.17 10.811 4.188 14.188 C4.202 15.419 4.216 16.65 4.23 17.918 C4 21 4 21 2 23 C1.732 23.784 1.464 24.567 1.188 25.375 C-0.396 28.875 -1.687 29.998 -5 32 C-8.522 32.571 -11.998 32.513 -15.559 32.461 C-16.581 32.46 -17.602 32.459 -18.655 32.458 C-20.813 32.452 -22.971 32.436 -25.128 32.412 C-28.422 32.375 -31.715 32.371 -35.01 32.371 C-37.109 32.361 -39.209 32.35 -41.309 32.336 C-42.29 32.334 -43.271 32.331 -44.283 32.329 C-49.245 32.261 -53.349 31.953 -58 30 C-54.914 29.097 -52.166 28.878 -48.956 28.886 C-47.955 28.887 -46.955 28.887 -45.924 28.887 C-45.387 28.889 -45.387 28.889 -42.672 28.902 C-41.568 28.904 -40.464 28.905 -39.326 28.907 C-35.801 28.912 -32.275 28.925 -28.75 28.938 C-26.359 28.943 -23.969 28.947 -21.578 28.951 C-15.719 28.962 -9.859 28.979 -4 29 C-3.878 28.22 -3.756 27.441 -3.63 26.637 C-3 24 -3 24 -0.922 21.801 C1.937 17.634 1.209 14.071 0.75 9.188 C0.684 8.304 0.619 7.42 0.551 6.51 C0.386 4.338 0.196 2.169 0 0 Z " fill="#DBC898" transform="translate(127,155)"/>
<path d="M0 0 C0.66 0.33 1.32 0.66 2 1 C1.916 9.667 1.821 18.333 1.712 27 C1.663 31.024 1.616 35.048 1.578 39.073 C1.541 42.957 1.495 46.841 1.442 50.724 C1.423 52.206 1.408 53.687 1.397 55.169 C1.38 57.245 1.351 59.32 1.319 61.396 C1.306 62.577 1.292 63.758 1.278 64.975 C1.012 67.869 0.51 69.554 -1 72 C-1.144 70.907 -1.289 69.814 -1.438 68.688 C-2 65 -2 65 -3 62 C-2.814 61.031 -2.629 60.061 -2.438 59.062 C-1.947 55.63 -2.482 54.942 -4 52 C-3.625 49.25 -3.625 49.25 -3 47 C-2.34 47 -1.68 47 -1 47 C-1.33 46.134 -1.66 45.267 -2 44.375 C-3.22 40.257 -3.406 36.896 -2.506 32.694 C-1.953 29.751 -1.806 26.958 -1.719 23.965 C-1.681 22.826 -1.644 21.687 -1.605 20.514 C-1.535 18.126 -1.465 15.738 -1.395 13.35 C-1.376 12.781 -1.376 12.781 -1.281 9.902 C-1.251 8.866 -1.221 7.829 -1.189 6.761 C-1.025 4.364 -0.679 2.296 0 0 Z " fill="#F5C404" transform="translate(111,36)"/>
<path d="M0 0 C2.5 1.375 2.5 1.375 5 3 C5 3.66 5 4.32 5 5 C9.29 5.66 13.58 6.32 18 7 C18 6.34 18 5.68 18 5 C20.97 3.68 23.94 2.36 27 1 C28.7 4.4 28.121 8.273 28.094 12.012 C28.09 12.939 28.087 13.867 28.083 14.823 C28.018 26.488 27.758 38.15 27.5 49.812 C27.452 52.077 27.403 54.342 27.355 56.607 C27.239 62.072 27.121 67.536 27 73 C26.67 73 26.34 73 26 73 C26 51.22 26 29.44 26 7 C24.35 7 22.7 7 21 7 C21 7.66 21 8.32 21 9 C16.992 9.694 13.901 10.211 10 9 C8.68 9 7.36 9 6 9 C5.67 8.01 5.34 7.02 5 6 C2.938 5.312 2.938 5.312 1 5 C0.67 3.35 0.34 1.7 0 0 Z " fill="#FCD005" transform="translate(48,71)"/>
<path d="M0 0 C1.829 5.488 -1.711 10.932 -4 16 C-11.041 29.034 -21.529 36.598 -35.375 41.375 C-42.033 43.274 -48.129 43.404 -55 43 C-55.505 42.99 -55.505 42.99 -58.062 42.938 C-65.996 42.607 -74.773 40.823 -80.84 35.336 C-81.223 34.895 -81.606 34.454 -82 34 C-79.081 34.95 -76.199 35.92 -73.352 37.07 C-64.786 40.383 -56.999 40.434 -48 40 C-46.922 39.979 -45.845 39.959 -44.734 39.938 C-31.055 39.365 -20.329 32.94 -11.188 23.062 C-6.639 17.607 -3.715 12.148 -3 5 C-2.34 5 -1.68 5 -1 5 C-0.67 3.35 -0.34 1.7 0 0 Z " fill="#297369" transform="translate(233,140)"/>
<path d="M0 0 C0.66 0.33 1.32 0.66 2 1 C-1.613 5.688 -1.613 5.688 -3 7 C-3.99 7 -4.98 7 -6 7 C-6.186 7.578 -6.371 8.155 -6.562 8.75 C-8 11 -8 11 -11.438 12.688 C-14.856 14.447 -15.756 16.119 -16.938 19.75 C-17.317 21.16 -17.68 22.575 -18 24 C-17.34 24 -16.68 24 -16 24 C-16 23.34 -16 22.68 -16 22 C-14.021 20.636 -12.018 19.306 -10 18 C-8.125 16.25 -8.125 16.25 -7 15 C-7 19.033 -8.772 20.913 -11.004 24.16 C-11.333 24.767 -11.661 25.374 -12 26 C-11.67 26.66 -11.34 27.32 -11 28 C-13.31 28.99 -15.62 29.98 -18 31 C-18.33 30.01 -18.66 29.02 -19 28 C-19.33 29.65 -19.66 31.3 -20 33 C-22.338 30.662 -22.343 30.067 -22.438 26.875 C-22.251 20.4 -19.417 16.431 -14.945 11.934 C-10.22 7.626 -5.188 3.732 0 0 Z " fill="#FDE225" transform="translate(69,38)"/>
<path d="M0 0 C0.33 0 0.66 0 1 0 C1.511 5.367 0.331 7.815 -3 12 C-4.676 13.755 -6.395 15.455 -8.137 17.145 C-13.109 22.096 -17.538 27.592 -22 33 C-22.66 32.67 -23.32 32.34 -24 32 C-22.582 26.842 -20.326 22.2 -17 18 C-16.34 18 -15.68 18 -15 18 C-15 17.34 -15 16.68 -15 16 C-13.38 14.288 -11.704 12.628 -10 11 C-9.175 10.093 -8.35 9.185 -7.5 8.25 C-4.868 5.881 -3.472 5.298 0 5 C0 3.35 0 1.7 0 0 Z " fill="#089EA1" transform="translate(206,46)"/>
<path d="M0 0 C7.113 -0.237 10.367 0.574 16 5 C15.67 5.99 15.34 6.98 15 8 C14.529 8.03 14.529 8.03 12.148 8.184 C10.903 8.267 9.658 8.351 8.375 8.438 C7.145 8.519 5.915 8.6 4.648 8.684 C1.385 8.967 -1.779 9.41 -5 10 C-5 10.66 -5 11.32 -5 12 C-5.66 12 -6.32 12 -7 12 C-7 12.66 -7 13.32 -7 14 C-7.66 14 -8.32 14 -9 14 C-9 14.66 -9 15.32 -9 16 C-9.66 16 -10.32 16 -11 16 C-11 16.66 -11 17.32 -11 18 C-11.66 18 -12.32 18 -13 18 C-13 18.66 -13 19.32 -13 20 C-13.66 20 -14.32 20 -15 20 C-15 20.66 -15 21.32 -15 22 C-16.65 22.66 -18.3 23.32 -20 24 C-13.902 15.224 -7.642 6.902 3 4 C2.01 3.67 1.02 3.34 0 3 C0 2.01 0 1.02 0 0 Z " fill="#51E3E9" transform="translate(183,28)"/>
<path d="M0 0 C5.22 0.842 9.916 2.317 14.875 4.125 C24.04 7.226 31.578 6.538 40.688 3.559 C43 3 43 3 46 4 C42.667 7.965 39.712 10.623 34.562 11.758 C28.47 12.261 23.755 12.23 18 10 C18 9.34 18 8.68 18 8 C17.381 7.876 16.762 7.752 16.125 7.625 C14 7 14 7 12 5 C9.643 4.384 7.264 3.853 4.875 3.375 C4.234 3.245 4.234 3.245 0.992 2.586 C0.005 2.393 -0.983 2.199 -2 2 C-1.34 1.34 -0.68 0.68 0 0 Z " fill="#DCCFA7" transform="translate(159,182)"/>
<path d="M0 0 C1.027 0.014 2.053 0.027 3.111 0.041 C5.637 0.076 8.162 0.126 10.688 0.188 C10.852 0.517 10.852 0.517 11.688 2.188 C10.542 2.236 9.396 2.285 8.215 2.336 C6.685 2.411 5.155 2.487 3.625 2.562 C2.873 2.593 2.121 2.624 1.346 2.656 C-7.624 3.122 -13.44 5.547 -20.438 11.062 C-21.127 11.592 -21.817 12.122 -22.527 12.668 C-23.865 13.699 -25.198 14.737 -26.524 15.783 C-28.039 16.973 -29.581 18.127 -31.129 19.273 C-33.48 21.334 -34.701 23.17 -36.125 25.938 C-36.544 26.737 -36.963 27.536 -37.395 28.359 C-37.697 28.963 -38 29.566 -38.312 30.188 C-38.972 30.188 -39.633 30.188 -40.312 30.188 C-39.147 22.044 -39.147 22.044 -35.938 18.75 C-33.762 17.455 -31.574 16.318 -29.312 15.188 C-28.983 14.528 -28.653 13.867 -28.312 13.188 C-27.529 12.775 -26.745 12.362 -25.938 11.938 C-23.312 10.188 -23.312 10.188 -21.75 7.062 C-20.312 4.188 -20.312 4.188 -18.438 3.5 C-17.736 3.397 -17.035 3.294 -16.312 3.188 C-15.677 2.69 -15.041 2.192 -14.387 1.68 C-9.687 -0.601 -5.146 -0.128 0 0 Z " fill="#FDEE63" transform="translate(91.3125,31.8125)"/>
<path d="M0 0 C0 0.66 0 1.32 0 2 C-0.66 2.33 -0.66 2.33 -4 4 C-3.67 4.66 -3.34 5.32 -3 6 C-8.292 9.077 -8.292 9.077 -11.875 8.688 C-12.576 8.461 -13.278 8.234 -14 8 C-14 7.34 -14 6.68 -14 6 C-17.311 4.871 -20.59 3.787 -24 3 C-24 1.68 -24 0.36 -24 -1 C-6.979 -2.724 -6.979 -2.724 0 0 Z " fill="#3DE1EB" transform="translate(205,82)"/>
<path d="M0 0 C0.667 1.333 1.333 2.667 2 4 C2.348 4.605 2.696 5.209 3.055 5.832 C4.156 8.357 4.267 10.191 4.25 12.938 C4.255 13.772 4.26 14.606 4.266 15.465 C3.612 21.703 0.177 25.633 -3.75 30.25 C-4.263 30.887 -4.776 31.524 -5.305 32.18 C-7.968 35.324 -9.315 36.814 -13.391 37.922 C-14.252 37.948 -15.113 37.973 -16 38 C-15.67 37.34 -15.34 36.68 -15 36 C-14.34 36 -13.68 36 -13 36 C-12.794 35.443 -12.588 34.886 -12.375 34.312 C-11 32 -11 32 -8 29.812 C-4.462 27.073 -4.02 24.191 -3.422 19.891 C-3.283 19.267 -3.143 18.643 -3 18 C-2.34 17.67 -1.68 17.34 -1 17 C-1.006 16.47 -1.006 16.47 -1.035 13.789 C-1.045 12.401 -1.054 11.013 -1.062 9.625 C-1.071 8.926 -1.079 8.228 -1.088 7.508 C-1.113 2.227 -1.113 2.227 0 0 Z " fill="#E3E0C1" transform="translate(209,42)"/>
<path d="M0 0 C0.99 0.66 1.98 1.32 3 2 C3.315 6.172 2.984 9.942 2 14 C1.34 14 0.68 14 0 14 C-0.33 14.99 -0.66 15.98 -1 17 C-1 16.34 -1 15.68 -1 15 C-4.787 18.113 -8.095 21.025 -11 25 C-11.66 25 -12.32 25 -13 25 C-13 25.66 -13 26.32 -13 27 C-14.333 28.333 -15.667 29.667 -17 31 C-19.848 34.902 -20.531 38.218 -21 43 C-22.32 43 -23.64 43 -25 43 C-25.33 41.02 -25.66 39.04 -26 37 C-25.34 37 -24.68 37 -24 37 C-23.732 36.402 -23.464 35.804 -23.188 35.188 C-22.007 33.013 -20.732 31.732 -19 30 C-18.67 29.01 -18.34 28.02 -18 27 C-17.34 27 -16.68 27 -16 27 C-16 26.34 -16 25.68 -16 25 C-15.34 25 -14.68 25 -14 25 C-13.34 23.68 -12.68 22.36 -12 21 C-11.34 21 -10.68 21 -10 21 C-10 20.34 -10 19.68 -10 19 C-9.34 19 -8.68 19 -8 19 C-8 18.34 -8 17.68 -8 17 C-7.34 17 -6.68 17 -6 17 C-6 16.34 -6 15.68 -6 15 C-5.34 15 -4.68 15 -4 15 C-4 14.34 -4 13.68 -4 13 C-3.34 13 -2.68 13 -2 13 C-1.34 8.71 -0.68 4.42 0 0 Z " fill="#09BBC2" transform="translate(204,37)"/>
<path d="M0 0 C0.33 1.32 0.66 2.64 1 4 C2.32 3.67 3.64 3.34 5 3 C5 3.66 5 4.32 5 5 C4.34 5 3.68 5 3 5 C2.67 5.66 2.34 6.32 2 7 C-0.256 8.211 -2.501 9.343 -4.812 10.438 C-8.815 12.342 -12.466 14.306 -16 17 C-16.66 17 -17.32 17 -18 17 C-18 16.34 -18 15.68 -18 15 C-17.01 15 -16.02 15 -15 15 C-15 14.237 -15 13.474 -15 12.688 C-15 7 -15 7 -13 4 C-10.678 3.593 -8.343 3.256 -6 3 C-5.67 2.67 -5.34 2.34 -5 2 C-3.334 1.959 -1.666 1.957 0 2 C0 1.34 0 0.68 0 0 Z " fill="#FCE224" transform="translate(79,143)"/>
<path d="M0 0 C2.626 0.643 5.251 1.289 7.875 1.938 C8.248 2.029 8.248 2.029 10.137 2.49 C15.773 3.887 15.773 3.887 18 5 C20.92 5.209 23.826 5.375 26.75 5.5 C31.911 5.725 36.913 6.015 42 7 C42 7.33 42 7.66 42 8 C10.951 11.293 10.951 11.293 -0.328 3.363 C-0.88 2.913 -1.432 2.464 -2 2 C-1.34 2 -0.68 2 0 2 C0 1.34 0 0.68 0 0 Z " fill="#149C99" transform="translate(155,172)"/>
<path d="M0 0 C0.66 0.33 1.32 0.66 2 1 C1.541 1.652 1.082 2.305 0.609 2.977 C-0.658 4.782 -1.922 6.589 -3.184 8.398 C-4.55 10.356 -5.929 12.305 -7.312 14.25 C-9.064 17.104 -10.083 19.789 -11 23 C-11.66 23 -12.32 23 -13 23 C-13.248 23.66 -13.495 24.32 -13.75 25 C-14.708 27.3 -15.725 29.425 -16.875 31.625 C-21.928 41.731 -24.169 51.945 -26 63 C-28.314 59.528 -28.169 57.853 -27.586 53.82 C-23.495 34.128 -12.587 15.47 0 0 Z " fill="#35CBD6" transform="translate(155,54)"/>
<path d="M0 0 C3.061 3.42 3.779 6.536 4.625 11 C4.75 11.656 4.875 12.311 5.003 12.987 C6.092 18.957 6.673 24.94 7 31 C6.34 31.33 5.68 31.66 5 32 C4.918 35.044 5.024 37.072 6 40 C3.959 43.571 2.442 45.705 -1 48 C-0.67 46.35 -0.34 44.7 0 43 C0.66 43 1.32 43 2 43 C4.036 18.753 4.036 18.753 2 12 C1.34 12 0.68 12 0 12 C-0.66 8.37 -1.32 4.74 -2 1 C-1.34 0.67 -0.68 0.34 0 0 Z " fill="#ECE3C5" transform="translate(235,112)"/>
<path d="M0 0 C1.155 0.495 1.155 0.495 7 3 C7 4.32 7 5.64 7 7 C12.412 8.1 17.712 8.218 23.211 8.316 C24.179 8.337 25.147 8.358 26.145 8.379 C29.221 8.444 32.298 8.504 35.375 8.562 C37.467 8.606 39.56 8.649 41.652 8.693 C46.768 8.8 51.884 8.902 57 9 C54.151 10.609 52.083 11.256 48.817 11.291 C48.003 11.303 47.188 11.316 46.348 11.329 C45.912 11.33 45.912 11.33 43.703 11.336 C42.796 11.343 41.888 11.349 40.953 11.356 C39.033 11.366 37.113 11.371 35.193 11.371 C32.274 11.375 29.356 11.411 26.438 11.449 C24.568 11.455 22.698 11.459 20.828 11.461 C19.963 11.475 19.098 11.49 18.207 11.504 C11.524 11.455 6.514 9.824 1.277 5.615 C0 4 0 4 0 0 Z " fill="#E3D1A3" transform="translate(62,178)"/>
<path d="M0 0 C0.536 0.309 0.536 0.309 3.25 1.875 C7.875 4.225 12.453 4.922 17.559 5.605 C20 6 20 6 21 7 C21.041 9 21.043 11 21 13 C18.69 13 16.38 13 14 13 C14 12.34 14 11.68 14 11 C12.515 10.67 12.515 10.67 5 9 C5 8.34 5 7.68 5 7 C4.691 6.969 4.691 6.969 3.125 6.812 C1 6 1 6 -0.25 3.438 C-0.498 2.633 -0.745 1.829 -1 1 C-0.67 0.67 -0.34 0.34 0 0 Z " fill="#E7D6AD" transform="translate(52,80)"/>
<path d="M0 0 C0.33 1.32 0.66 2.64 1 4 C1.99 3.67 2.98 3.34 4 3 C4.33 3.99 4.66 4.98 5 6 C4.34 6.33 4.34 6.33 1 8 C1.248 8.578 1.495 9.155 1.75 9.75 C1.791 10.121 1.791 10.121 2 12 C1.402 12.536 0.804 13.073 0.188 13.625 C-2.654 16.71 -2.826 19.195 -3.496 23.25 C-4.295 27.608 -5.655 31.785 -7 36 C-7.33 36 -7.66 36 -8 36 C-8.202 29.762 -7.49 24.107 -6.25 18 C-6.093 17.149 -5.935 16.298 -5.773 15.422 C-4.634 9.705 -2.814 5.108 0 0 Z " fill="#5FE5EC" transform="translate(139,82)"/>
<path d="M0 0 C1.958 0.982 3.872 2.004 5.766 3.105 C5.106 3.765 4.446 4.425 3.766 5.105 C3.436 4.775 3.106 4.445 2.766 4.105 C-1.947 3.624 -6.531 3.504 -11.234 4.105 C-13.859 6.98 -13.859 6.98 -15.234 10.105 C-17.484 11.48 -17.484 11.48 -19.234 12.105 C-19.234 14.085 -19.234 16.065 -19.234 18.105 C-19.564 18.105 -19.894 18.105 -20.234 18.105 C-20.524 12.508 -20.419 8.937 -17.234 4.105 C-12.188 -0.562 -6.748 -2.702 0 0 Z " fill="#8E956D" transform="translate(186.234375,114.89453125)"/>
<path d="M0 0 C0.66 0 1.32 0 2 0 C2.66 0.99 3.32 1.98 4 3 C4.887 2.814 5.774 2.629 6.688 2.438 C9.89 2.015 11.907 2.248 15 3 C15.99 3 16.98 3 18 3 C18 2.34 18 1.68 18 1 C19.65 1 21.3 1 23 1 C22.67 3.97 22.34 6.94 22 10 C19.453 9.628 16.915 9.228 14.375 8.812 C13.662 8.711 12.949 8.61 12.215 8.506 C6.811 7.589 3.864 5.918 0 2 C0 1.34 0 0.68 0 0 Z " fill="#B9850E" transform="translate(51,77)"/>
<path d="M0 0 C-0.125 1.875 -0.125 1.875 -1 4 C-3.722 5.149 -6.278 5.876 -9.188 6.375 C-11.793 7.273 -12.678 8.634 -14 11 C-13.67 11.99 -13.34 12.98 -13 14 C-14.98 14.66 -16.96 15.32 -19 16 C-19 15.34 -19 14.68 -19 14 C-19.66 14 -20.32 14 -21 14 C-21 13.34 -21 12.68 -21 12 C-20.34 12 -19.68 12 -19 12 C-19 11.34 -19 10.68 -19 10 C-18.34 10 -17.68 10 -17 10 C-17 9.34 -17 8.68 -17 8 C-16.34 8 -15.68 8 -15 8 C-15 7.34 -15 6.68 -15 6 C-14.34 6 -13.68 6 -13 6 C-13 5.34 -13 4.68 -13 4 C-12.34 4 -11.68 4 -11 4 C-11 3.34 -11 2.68 -11 2 C-7.177 0.577 -4.087 -0.24 0 0 Z " fill="#2ED9E2" transform="translate(189,36)"/>
<path d="M0 0 C2 3 2 3 2 5 C3.32 4.67 4.64 4.34 6 4 C5.683 4.25 5.683 4.25 4.078 5.516 C1.383 8.737 1.116 11.711 0.75 15.75 C0.711 16.099 0.711 16.099 0.516 17.863 C0.328 19.574 0.162 21.287 0 23 C-1.32 23 -2.64 23 -4 23 C-3.67 15.74 -3.34 8.48 -3 1 C-2.01 0.67 -1.02 0.34 0 0 Z M-2 2 C-1 4 -1 4 -1 4 Z " fill="#FDE124" transform="translate(80,91)"/>
<path d="M0 0 C2.5 1.375 2.5 1.375 5 3 C5 3.66 5 4.32 5 5 C9.29 5.66 13.58 6.32 18 7 C18 6.34 18 5.68 18 5 C21.228 2.848 22.284 2.799 26 3 C26.33 4.65 26.66 6.3 27 8 C26.01 7.835 26.01 7.835 21 7 C21 7.66 21 8.32 21 9 C16.992 9.694 13.901 10.211 10 9 C8.68 9 7.36 9 6 9 C5.67 8.01 5.34 7.02 5 6 C2.938 5.312 2.938 5.312 1 5 C0.67 3.35 0.34 1.7 0 0 Z " fill="#E9AE02" transform="translate(48,71)"/>
<path d="M0 0 C1.854 5.216 -0.846 9.226 -3 14 C-3.325 14.744 -3.65 15.488 -3.984 16.254 C-7.162 23.117 -12.231 27.304 -18 32 C-18.33 31.34 -18.66 30.68 -19 30 C-18.506 29.613 -18.013 29.227 -17.504 28.828 C-16.863 28.307 -16.223 27.787 -15.562 27.25 C-14.924 26.74 -14.286 26.229 -13.629 25.703 C-11.772 23.762 -11.524 22.585 -11 20 C-10.34 19.01 -9.68 18.02 -9 17 C-8.34 17 -7.68 17 -7 17 C-7.021 16.629 -7.021 16.629 -7.125 14.75 C-6.995 11.881 -6.539 10.394 -5 8 C-4.34 7.67 -3.68 7.34 -3 7 C-1.946 4.69 -0.943 2.357 0 0 Z " fill="#0AC7CE" transform="translate(229,134)"/>
<path d="M0 0 C13.217 1.898 24.557 2.856 37.52 -0.664 C35.52 2.336 35.52 2.336 33.496 3.031 C32.72 3.173 31.944 3.315 31.145 3.461 C30.374 3.608 29.603 3.755 28.809 3.906 C28.053 4.048 27.298 4.19 26.52 4.336 C25.916 4.525 25.313 4.715 24.691 4.91 C21.46 5.544 18.423 5.243 15.145 5.023 C14.501 4.984 14.501 4.984 11.246 4.785 C7.52 4.336 7.52 4.336 4.348 3.27 C1.4 2.296 -0.322 2.251 -3.355 2.711 C-4.137 2.822 -4.918 2.933 -5.723 3.047 C-6.013 3.095 -6.013 3.095 -7.48 3.336 C-7.48 2.676 -7.48 2.016 -7.48 1.336 C-8.14 1.006 -8.8 0.676 -9.48 0.336 C-6.077 -0.776 -3.516 -0.549 0 0 Z " fill="#EFE1BC" transform="translate(84.48046875,188.6640625)"/>
<path d="M0 0 C0.75 1.75 0.75 1.75 1 4 C-0.812 6.25 -0.812 6.25 -3 8 C-3.66 8 -4.32 8 -5 8 C-5.248 8.578 -5.495 9.155 -5.75 9.75 C-7 12 -7 12 -9 13.875 C-11 16 -11 16 -12 19.125 C-13 22 -13 22 -14.875 23.438 C-17.331 24.088 -18.599 23.688 -21 23 C-20.287 22.227 -19.574 21.453 -18.84 20.656 C-13.973 15.367 -9.126 10.071 -4.438 4.621 C-3.014 3.016 -1.532 1.5 0 0 Z " fill="#ADAB83" transform="translate(204,56)"/>
<path d="M0 0 C0.496 0.375 0.993 0.75 1.504 1.137 C2.183 1.648 2.863 2.16 3.562 2.688 C4.288 3.237 5.014 3.786 5.762 4.352 C7.762 5.825 9.803 7.193 11.875 8.562 C14.992 10.994 16.033 12.24 17 16 C13.625 16.125 13.625 16.125 10 16 C8 14 8 14 7.125 11.5 C5.783 8.518 4.921 8.239 2 7 C0.188 5.625 0.188 5.625 -1 4 C-0.574 1.898 -0.574 1.898 0 0 Z " fill="#E1D3AE" transform="translate(140,166)"/>
<path d="M0 0 C0.99 1.32 1.98 2.64 3 4 C4.32 3.67 5.64 3.34 7 3 C7.99 5.97 8.98 8.94 10 12 C12.31 12.33 14.62 12.66 17 13 C17 13.33 17 13.66 17 14 C11.673 14.579 7.296 14.859 2.875 11.5 C0.927 9.593 0.099 8.508 -0.426 5.82 C-0.438 3.625 -0.438 3.625 0 0 Z " fill="#FDDB10" transform="translate(49,64)"/>
<path d="M0 0 C3.457 2.634 3.984 5.928 4.688 10 C4.814 10.722 4.941 11.444 5.071 12.188 C7.248 26.459 6.877 41.71 5 56 C4.67 56 4.34 56 4 56 C3.98 54.78 3.96 53.56 3.94 52.303 C3.863 47.737 3.775 43.171 3.683 38.605 C3.645 36.636 3.61 34.668 3.578 32.699 C3.532 29.854 3.474 27.009 3.414 24.164 C3.403 23.297 3.391 22.43 3.379 21.537 C3.239 15.629 2.815 9.66 1 4 C0.34 3.67 -0.32 3.34 -1 3 C-0.67 2.01 -0.34 1.02 0 0 Z " fill="#F3E9C8" transform="translate(115,40)"/>
<path d="M0 0 C1.525 0.089 3.047 0.245 4.562 0.438 C5.389 0.539 6.215 0.641 7.066 0.746 C7.704 0.83 8.343 0.914 9 1 C9 1.33 9 1.66 9 2 C7.783 2.227 6.566 2.454 5.312 2.688 C1.006 3.76 -1.131 5.557 -4 9 C-4.557 9.66 -5.114 10.32 -5.688 11 C-7.158 13.241 -8.091 15.483 -9 18 C-12 14.375 -12 14.375 -12 11 C-11.34 11 -10.68 11 -10 11 C-9.67 10.01 -9.34 9.02 -9 8 C-7.188 6.211 -7.188 6.211 -5 4.375 C-4.278 3.764 -3.556 3.153 -2.812 2.523 C-2.214 2.021 -1.616 1.518 -1 1 C-0.67 0.67 -0.34 0.34 0 0 Z " fill="#D4CFAA" transform="translate(179,122)"/>
<path d="M0 0 C0.66 0 1.32 0 2 0 C4.017 3.354 4.244 5.894 4.227 9.778 C4.227 10.939 4.227 12.1 4.227 13.296 C4.216 14.544 4.206 15.792 4.195 17.078 C4.192 18.36 4.19 19.642 4.187 20.962 C4.179 24.362 4.159 27.762 4.137 31.161 C4.117 34.634 4.108 38.106 4.098 41.578 C4.076 48.385 4.042 55.193 4 62 C3.67 62 3.34 62 3 62 C2.992 61.385 2.984 60.771 2.975 60.138 C2.889 53.697 2.789 47.256 2.683 40.815 C2.645 38.416 2.61 36.018 2.578 33.619 C2.532 30.156 2.474 26.693 2.414 23.23 C2.403 22.172 2.391 21.113 2.379 20.022 C2.246 13.17 1.434 6.701 0 0 Z " fill="#E9DCB4" transform="translate(114,44)"/>
<path d="M0 0 C4.848 4.156 8.296 8.778 10 15 C10.313 20.689 9.661 26.356 9 32 C8.67 32.165 8.67 32.165 7 33 C6.34 32.34 5.68 31.68 5 31 C5.66 31 6.32 31 7 31 C6.814 29.804 6.629 28.608 6.438 27.375 C5.969 23.717 6.185 20.621 7 17 C6.34 17 5.68 17 5 17 C4.987 16.71 4.987 16.71 4.922 15.242 C4.51 9.572 3.413 6.514 0 2 C0 1.34 0 0.68 0 0 Z " fill="#1AC3CB" transform="translate(223,96)"/>
<path d="M0 0 C9.708 -0.622 9.708 -0.622 14.375 1.625 C21.758 8.305 21.758 8.305 22.309 12.164 C22.312 14.375 22.312 14.375 22 18 C20.801 16.201 19.64 14.374 18.562 12.5 C17 10 17 10 15.312 8.438 C14 7 14 7 14 3 C11.69 2.835 11.69 2.835 0 2 C0 1.34 0 0.68 0 0 Z " fill="#07969B" transform="translate(174,108)"/>
<path d="M0 0 C2.31 0.33 4.62 0.66 7 1 C7 1.33 7 1.66 7 2 C12.89 2.05 18.78 2.086 24.67 2.11 C26.673 2.12 28.676 2.134 30.678 2.151 C33.56 2.175 36.442 2.186 39.324 2.195 C40.217 2.206 41.11 2.216 42.03 2.227 C46.472 2.227 49.963 2.104 54 0 C54 0.99 54 1.98 54 3 C51.601 4.2 50.108 4.127 47.43 4.129 C46.482 4.133 45.534 4.136 44.558 4.139 C44.044 4.138 44.044 4.138 41.445 4.133 C40.392 4.134 39.339 4.135 38.254 4.136 C36.023 4.136 33.792 4.135 31.561 4.13 C28.146 4.125 24.731 4.13 21.316 4.137 C19.151 4.136 16.986 4.135 14.82 4.133 C14.309 4.134 14.309 4.134 11.72 4.139 C11.243 4.137 11.243 4.137 8.829 4.129 C7.991 4.129 7.153 4.128 6.29 4.127 C4.066 4.004 2.134 3.618 0 3 C0 2.01 0 1.02 0 0 Z " fill="#D1BA85" transform="translate(69,181)"/>
<path d="M0 0 C0.33 0 0.66 0 1 0 C1.33 8.91 1.66 17.82 2 27 C2.66 27 3.32 27 4 27 C4.33 29.97 4.66 32.94 5 36 C2.178 34.589 2.062 32.921 1 30 C0.653 29.29 0.306 28.579 -0.051 27.848 C-1.296 24.111 -1.253 20.577 -1.188 16.688 C-1.187 15.966 -1.186 15.245 -1.186 14.502 C-1.146 9.596 -0.686 4.857 0 0 Z " fill="#11CCD1" transform="translate(129,109)"/>
<path d="M0 0 C0.61 0.015 0.61 0.015 3.695 0.094 C4.91 0.104 6.124 0.114 7.375 0.125 C10.982 0.616 12.945 1.401 15.82 3.594 C16.633 5.781 16.633 5.781 16.82 7.594 C15.83 7.594 14.84 7.594 13.82 7.594 C13.49 6.274 13.16 4.954 12.82 3.594 C0.645 2.363 0.645 2.363 -3.82 5.375 C-5.93 7.594 -5.93 7.594 -7.727 9.844 C-8.206 10.421 -8.686 10.999 -9.18 11.594 C-9.84 11.594 -10.5 11.594 -11.18 11.594 C-11.18 10.934 -11.18 10.274 -11.18 9.594 C-10.417 8.996 -9.653 8.397 -8.867 7.781 C-6.18 5.594 -6.18 5.594 -4.941 2.988 C-3.18 0.594 -3.18 0.594 0 0 Z " fill="#B1B086" transform="translate(178.1796875,117.40625)"/>
<path d="M0 0 C1.771 -0.027 3.542 -0.046 5.312 -0.062 C6.299 -0.074 7.285 -0.086 8.301 -0.098 C11 0 11 0 14 1 C14.33 2.65 14.66 4.3 15 6 C14.319 5.835 13.639 5.67 12.938 5.5 C7.823 4.629 3.038 4.779 -2 6 C-1.494 3.831 -1 2 0 0 Z " fill="#0A7C7D" transform="translate(174,110)"/>
<path d="M0 0 C0.33 0 0.66 0 1 0 C1.5 2.562 1.5 2.562 1 6 C-1.412 8.664 -4.187 10.778 -7 13 C-8.016 13.984 -9.022 14.979 -10 16 C-10.66 15.67 -11.32 15.34 -12 15 C-11.094 11.013 -10.509 9.365 -7.125 6.938 C-6.094 6.298 -5.062 5.659 -4 5 C-2.626 3.366 -1.281 1.707 0 0 Z " fill="#D2CCA6" transform="translate(204,63)"/>
<path d="M0 0 C0.66 0 1.32 0 2 0 C3.98 5.28 5.96 10.56 8 16 C7.34 16 6.68 16 6 16 C5.67 17.65 5.34 19.3 5 21 C-0.389 14.876 -0.28 7.718 0 0 Z " fill="#F2EACC" transform="translate(126,141)"/>
<path d="M0 0 C0.299 0.103 0.299 0.103 1.812 0.625 C1.812 0.955 1.812 1.285 1.812 1.625 C3.463 1.955 5.113 2.285 6.812 2.625 C6.812 3.285 6.812 3.945 6.812 4.625 C7.803 4.625 8.792 4.625 9.812 4.625 C9.812 5.285 9.812 5.945 9.812 6.625 C3.239 6.99 -1.982 5.761 -8.188 3.625 C-2.188 -0.375 -2.188 -0.375 0 0 Z " fill="#07BEC6" transform="translate(165.1875,169.375)"/>
<path d="M0 0 C0 0.66 0 1.32 0 2 C-0.66 2 -1.32 2 -2 2 C-2 2.66 -2 3.32 -2 4 C-2.66 4 -3.32 4 -4 4 C-4 4.66 -4 5.32 -4 6 C-4.66 6 -5.32 6 -6 6 C-6 6.66 -6 7.32 -6 8 C-7.875 10.125 -7.875 10.125 -10 12 C-10.66 12 -11.32 12 -12 12 C-12 12.66 -12 13.32 -12 14 C-12.66 14 -13.32 14 -14 14 C-14.33 15.32 -14.66 16.64 -15 18 C-15.66 17.01 -16.32 16.02 -17 15 C-15.578 11.565 -13.927 10.196 -11 8 C-10.691 7.361 -10.381 6.721 -10.062 6.062 C-7.744 1.561 -4.943 0 0 0 Z " fill="#14CCD3" transform="translate(200,50)"/>
<path d="M0 0 C0.33 0.99 0.66 1.98 1 3 C-6.604 10.828 -13.773 17.064 -25 18 C-22.636 14.454 -21.514 14.259 -17.562 13 C-13.86 11.817 -11.59 10.901 -9 8 C-8.196 7.546 -7.391 7.093 -6.562 6.625 C-3.669 4.79 -2.008 2.751 0 0 Z " fill="#E6DBB7" transform="translate(228,171)"/>
<path d="M0 0 C-0.33 0.66 -0.66 1.32 -1 2 C-2.98 2 -4.96 2 -7 2 C-7 2.66 -7 3.32 -7 4 C-7.99 3.67 -8.98 3.34 -10 3 C-6.682 -0.063 -4.448 -0.303 0 0 Z M-34 3 C-31.398 3.023 -31.398 3.023 -28.375 3.375 C-27.372 3.486 -26.369 3.597 -25.336 3.711 C-24.951 3.759 -24.951 3.759 -23 4 C-23 4.33 -23 4.66 -23 5 C-20.855 4.835 -20.855 4.835 -10 4 C-10.33 4.66 -10.66 5.32 -11 6 C-15.117 7.206 -19.235 7.166 -23.5 7.188 C-24.789 7.202 -26.078 7.216 -27.406 7.23 C-30.771 7.015 -32.995 6.462 -36 5 C-35.34 4.34 -34.68 3.68 -34 3 Z " fill="#C5B88A" transform="translate(209,180)"/>
<path d="M0 0 C-0.578 1.945 -0.578 1.945 -2 4 C-5.047 4.68 -5.047 4.68 -8.75 4.875 C-9.356 4.915 -9.356 4.915 -12.422 5.117 C-16.019 4.999 -18.671 4.317 -22 3 C-22 2.67 -22 2.34 -22 2 C-19.459 1.662 -16.917 1.329 -14.375 1 C-13.662 0.905 -12.949 0.809 -12.215 0.711 C-8.112 0.184 -4.148 -0.105 0 0 Z " fill="#E8DDB9" transform="translate(199,189)"/>
<path d="M0 0 C0.66 0 1.32 0 2 0 C1.446 3.955 1.037 6.099 -2.031 8.766 C-6.835 11.979 -10.686 14.139 -16.562 14.188 C-16.955 14.195 -16.955 14.195 -18.941 14.23 C-21 14 -21 14 -23 12 C-22.131 11.89 -21.262 11.781 -20.367 11.668 C-7.987 9.965 -7.987 9.965 -4 7 C-2.394 4.73 -1.233 2.513 0 0 Z " fill="#63EAEE" transform="translate(198,135)"/>
<path d="M0 0 C0.667 1.333 1.333 2.667 2 4 C2.348 4.605 2.696 5.209 3.055 5.832 C5.09 10.501 4.485 16.099 3.25 20.938 C1.818 23.301 0.321 24.53 -2 26 C-0.125 20.125 -0.125 20.125 1 19 C1.072 17.314 1.084 15.625 1.062 13.938 C1.058 13.478 1.058 13.478 1.035 11.152 C1.024 10.442 1.012 9.732 1 9 C0.34 8.67 -0.32 8.34 -1 8 C-1.125 2.25 -1.125 2.25 0 0 Z " fill="#EDE3C5" transform="translate(209,42)"/>
<path d="M0 0 C2.97 1.32 5.94 2.64 9 4 C5.797 6.834 3.219 7.521 -1 8 C-1.33 7.01 -1.66 6.02 -2 5 C-4.062 3.812 -4.062 3.812 -6 3 C-5.34 2.34 -4.68 1.68 -4 1 C-3.01 1.99 -2.02 2.98 -1 4 C-0.67 2.68 -0.34 1.36 0 0 Z " fill="#33DAE3" transform="translate(193,83)"/>
<path d="M0 0 C-0.99 0.33 -1.98 0.66 -3 1 C-2.67 1.99 -2.34 2.98 -2 4 C-2 6.333 -2 8.667 -2 11 C-2.66 11 -3.32 11 -4 11 C-4 10.34 -4 9.68 -4 9 C-7 8 -7 8 -9.188 8.938 C-9.786 9.288 -10.384 9.639 -11 10 C-11 9.01 -11 8.02 -11 7 C-10.34 7 -9.68 7 -9 7 C-8.876 6.526 -8.876 6.526 -8.25 4.125 C-7 1 -7 1 -5.062 -0.438 C-3 -1 -3 -1 0 0 Z " fill="#2DD7E1" transform="translate(163,63)"/>
<path d="M0 0 C0.66 0 1.32 0 2 0 C2 0.66 2 1.32 2 2 C3.32 1.34 4.64 0.68 6 0 C5.67 1.32 5.34 2.64 5 4 C5.99 4 6.98 4 8 4 C10 7 10 7 10 10 C11.32 10.66 12.64 11.32 14 12 C13.34 12 12.68 12 12 12 C12 12.66 12 13.32 12 14 C8.418 12.806 8.141 12.014 6 9 C4.417 7.182 2.817 5.38 1.207 3.586 C0 2 0 2 0 0 Z " fill="#05B9BF" transform="translate(143,160)"/>
<path d="M0 0 C0.33 0 0.66 0 1 0 C1.082 2.834 1.141 5.665 1.188 8.5 C1.2 8.896 1.2 8.896 1.264 10.898 C1.334 16.621 0.293 20.752 -2 26 C-2.66 26 -3.32 26 -4 26 C-3.979 26.949 -3.959 27.898 -3.938 28.875 C-4 32 -4 32 -5 34 C-5.99 33.67 -6.98 33.34 -8 33 C-7.662 32.192 -7.325 31.384 -6.977 30.551 C-6.754 30.016 -6.754 30.016 -5.625 27.312 C-5.184 26.257 -4.743 25.201 -4.289 24.113 C-4.076 23.6 -4.076 23.6 -3 21 C-2.629 20.216 -2.257 19.433 -1.875 18.625 C-0.665 14.994 -0.538 11.492 -0.375 7.688 C-0.356 7.317 -0.356 7.317 -0.258 5.443 C-0.164 3.629 -0.081 1.815 0 0 Z " fill="#20A29F" transform="translate(234,119)"/>
<path d="M0 0 C0.299 0.103 0.299 0.103 1.812 0.625 C1.54 0.789 1.54 0.789 0.16 1.621 C-8.732 7.23 -15.513 14.582 -22.188 22.625 C-22.188 18.643 -20.865 17.819 -18.188 14.938 C-17.37 14.057 -16.553 13.177 -15.711 12.27 C-3.44 -0.59 -3.44 -0.59 0 0 Z " fill="#40D7E3" transform="translate(180.1875,30.375)"/>
<path d="M0 0 C-1.049 2.622 -1.649 3.794 -4.125 5.25 C-4.744 5.498 -5.363 5.745 -6 6 C-6 4 -6 4 -4.125 1.875 C-2 0 -2 0 0 0 Z M-8 6 C-7.34 6.33 -6.68 6.66 -6 7 C-10.774 12.628 -15.717 16.268 -23 18 C-23.99 17.67 -24.98 17.34 -26 17 C-25.408 16.758 -24.817 16.515 -24.207 16.266 C-19.583 14.304 -15.795 12.362 -12 9 C-10.671 7.994 -9.339 6.992 -8 6 Z " fill="#D4C9A0" transform="translate(229,167)"/>
<path d="M0 0 C0 0.99 0 1.98 0 3 C-0.66 2.67 -1.32 2.34 -2 2 C-4.371 1.77 -6.747 1.589 -9.125 1.438 C-10.406 1.354 -11.688 1.27 -13.008 1.184 C-13.502 1.153 -13.502 1.153 -16 1 C-16 0.67 -16 0.34 -16 0 C-14.272 -0.197 -12.542 -0.382 -10.812 -0.562 C-9.85 -0.667 -8.887 -0.771 -7.895 -0.879 C-5.058 -0.998 -2.746 -0.678 0 0 Z M-18 1 C-17.34 1.33 -16.68 1.66 -16 2 C-20 8.571 -20 8.571 -24 10 C-24 11.98 -24 13.96 -24 16 C-24.33 16 -24.66 16 -25 16 C-25.438 10.655 -25.438 10.655 -25 8 C-22.625 6.25 -22.625 6.25 -20 5 C-18.688 2.812 -18.688 2.812 -18 1 Z " fill="#9FA279" transform="translate(191,117)"/>
<path d="M0 0 C4.75 0.75 4.75 0.75 7 3 C6.67 3.66 6.34 4.32 6 5 C6.66 5 7.32 5 8 5 C8 8 8 11 8 14 C6.35 14 4.7 14 3 14 C3 13.01 3 12.02 3 11 C2.689 9.329 2.359 7.661 2 6 C2.66 5.67 3.32 5.34 4 5 C4 4.34 4 3.68 4 3 C2 1.375 2 1.375 0 0 Z " fill="#25D5DE" transform="translate(194,30)"/>
<path d="M0 0 C0.66 0.33 1.32 0.66 2 1 C1.67 1.33 1.34 1.66 1 2 C0.078 9.483 1.801 15.287 5 22 C4.01 22 3.02 22 2 22 C-1.988 14.949 -2.488 9.014 -2 1 C-1.34 0.67 -0.68 0.34 0 0 Z " fill="#09C7CD" transform="translate(162,116)"/>
<path d="M0 0 C1.5 1.375 1.5 1.375 3 3 C3 3.66 3 4.32 3 5 C5.31 5.33 7.62 5.66 10 6 C9.526 6.784 9.051 7.567 8.562 8.375 C7.661 9.889 6.788 11.424 6 13 C2.185 9.711 0.644 6.672 -1 2 C-0.67 1.34 -0.34 0.68 0 0 Z " fill="#06C5CC" transform="translate(135,147)"/>
<path d="M0 0 C1.32 0 2.64 0 4 0 C3.625 1.938 3.625 1.938 3 4 C0.155 5.422 -2.664 5.378 -5.809 5.621 C-8 6 -8 6 -11 8 C-10 6 -9 4 -8 2 C-5.673 1.626 -3.339 1.292 -1 1 C-0.67 0.67 -0.34 0.34 0 0 Z " fill="#FDE951" transform="translate(74,145)"/>
<path d="M0 0 C1.32 0.33 2.64 0.66 4 1 C1.459 6.746 -0.857 9.128 -6.738 11.422 C-9.744 12.19 -12.055 11.906 -15 11 C-15 10.67 -15 10.34 -15 10 C-14.408 9.914 -13.817 9.827 -13.207 9.738 C-7.678 8.755 -4.592 7.602 -1 3 C-0.67 2.01 -0.34 1.02 0 0 Z " fill="#39D7E1" transform="translate(194,135)"/>
<path d="M0 0 C0 3 0 3 0 3 Z M-1 3 C-1.125 5.25 -1.125 5.25 -2 8 C-2.99 8.619 -3.98 9.237 -5 9.875 C-8 12 -8 12 -8.875 15.75 C-8.916 16.823 -8.958 17.895 -9 19 C-10.98 19 -12.96 19 -15 19 C-14.361 18.794 -13.721 18.588 -13.062 18.375 C-12.382 17.921 -11.701 17.468 -11 17 C-10.948 16.567 -10.948 16.567 -10.688 14.375 C-9.817 10.103 -5.954 3 -1 3 Z " fill="#B4B994" transform="translate(202,61)"/>
<path d="M0 0 C0.33 0 0.66 0 1 0 C1.511 5.367 0.331 7.815 -3 12 C-5.268 14.404 -7.603 16.724 -10 19 C-10.672 17.203 -10.672 17.203 -11 15 C-9.891 13.297 -9.891 13.297 -8.25 11.75 C-7.719 11.229 -7.188 10.708 -6.641 10.172 C-5 9 -5 9 -2 9 C-2 7.68 -2 6.36 -2 5 C-1.34 5 -0.68 5 0 5 C0 3.35 0 1.7 0 0 Z " fill="#1B8D8A" transform="translate(206,46)"/>
<path d="M0 0 C0.33 0.66 0.66 1.32 1 2 C1.66 2 2.32 2 3 2 C7.179 8.966 6.273 15.362 5 23 C4.34 23 3.68 23 3 23 C3.035 21.975 3.07 20.95 3.105 19.895 C3.134 18.534 3.161 17.173 3.188 15.812 C3.213 15.139 3.238 14.465 3.264 13.771 C3.33 9.22 2.524 6.73 0 3 C0 2.01 0 1.02 0 0 Z " fill="#17BBC3" transform="translate(192,110)"/>
<path d="M0 0 C0.99 0.33 1.98 0.66 3 1 C3.688 10.676 3.688 10.676 1.125 14.625 C0.774 15.017 0.774 15.017 -1 17 C-1.66 17 -2.32 17 -3 17 C-2.744 14.657 -2.407 12.322 -2 10 C-1.34 9.67 -0.68 9.34 0 9 C0 6.03 0 3.06 0 0 Z " fill="#DFD6B3" transform="translate(208,50)"/>
<path d="M0 0 C1.155 0.495 1.155 0.495 7 3 C7 4.32 7 5.64 7 7 C7.66 7 8.32 7 9 7 C9 7.66 9 8.32 9 9 C11.64 9.33 14.28 9.66 17 10 C17 10.33 17 10.66 17 11 C10.505 10.59 6.373 9.675 1.188 5.562 C0 4 0 4 0 0 Z " fill="#EBDAB1" transform="translate(62,178)"/>
<path d="M0 0 C3.767 0.549 5.267 2.008 7.688 4.875 C7.988 5.224 7.988 5.224 9.512 6.992 C11 9 11 9 12 12 C8.838 10.569 6.377 8.825 3.75 6.562 C3.044 5.966 2.337 5.369 1.609 4.754 C0 3 0 3 0 0 Z " fill="#22A39F" transform="translate(141,162)"/>
<path d="M0 0 C0.66 0.33 1.32 0.66 2 1 C1.541 1.652 1.082 2.305 0.609 2.977 C-0.658 4.782 -1.922 6.589 -3.184 8.398 C-4.55 10.356 -5.929 12.305 -7.312 14.25 C-9.064 17.104 -10.083 19.789 -11 23 C-12.258 21.434 -12.258 21.434 -13 19 C-11.735 16.462 -10.485 14.363 -8.875 12.062 C-8.47 11.455 -8.065 10.847 -7.648 10.221 C-5.261 6.675 -2.719 3.302 0 0 Z " fill="#42D7E4" transform="translate(155,54)"/>
<path d="M0 0 C7.26 0 14.52 0 22 0 C22.33 0.66 22.66 1.32 23 2 C19.543 2.254 16.085 2.474 12.625 2.688 C11.64 2.76 10.655 2.833 9.641 2.908 C9.17 2.936 9.17 2.936 6.789 3.074 C5.92 3.132 5.05 3.189 4.155 3.249 C3.799 3.208 3.799 3.208 2 3 C1.34 2.01 0.68 1.02 0 0 Z " fill="#FDE944" transform="translate(80,32)"/>
<path d="M0 0 C8.25 0 16.5 0 25 0 C24.01 1.32 23.02 2.64 22 4 C18.312 4.25 18.312 4.25 15 4 C15 3.67 15 3.34 15 3 C12.525 2.67 12.525 2.67 0 1 C0 0.67 0 0.34 0 0 Z " fill="#A7A479" transform="translate(170,182)"/>
<path d="M0 0 C0.33 1.32 0.66 2.64 1 4 C1.99 3.67 2.98 3.34 4 3 C4.33 3.99 4.66 4.98 5 6 C4.34 6.33 4.34 6.33 1 8 C1.33 9.32 1.66 10.64 2 12 C1.01 12.33 0.02 12.66 -1 13 C-1 11.02 -1 9.04 -1 7 C-1.99 8.32 -2.98 9.64 -4 11 C-3.393 6.872 -1.962 3.668 0 0 Z " fill="#4BE1E9" transform="translate(139,82)"/>
<path d="M0 0 C4.29 0.66 8.58 1.32 13 2 C13.33 3.32 13.66 4.64 14 6 C12.415 5.716 10.832 5.422 9.25 5.125 C8.368 4.963 7.487 4.8 6.578 4.633 C4.131 4.032 2.194 3.22 0 2 C0 1.34 0 0.68 0 0 Z " fill="#D2BA83" transform="translate(59,84)"/>
<path d="M0 0 C0.33 0 0.66 0 1 0 C1 3.63 1 7.26 1 11 C0.67 11 0.34 11 0 11 C-0.33 12.65 -0.66 14.3 -1 16 C-3.394 13.606 -3.296 12.962 -3.312 9.688 C-3.235 5.698 -2.565 3.18 0 0 Z " fill="#FAD328" transform="translate(50,55)"/>
<path d="M0 0 C0 3 0 3 -1.426 4.684 C-2.048 5.262 -2.671 5.841 -3.312 6.438 C-5.811 8.825 -8.048 11.129 -10 14 C-10.66 13.67 -11.32 13.34 -12 13 C-10.375 7.25 -10.375 7.25 -7 5 C-6.34 5 -5.68 5 -5 5 C-3.293 3.374 -1.623 1.709 0 0 Z " fill="#227B74" transform="translate(194,65)"/>
<path d="M0 0 C0.33 0 0.66 0 1 0 C1.049 1.048 1.098 2.096 1.148 3.176 C1.223 4.555 1.299 5.934 1.375 7.312 C1.406 8.003 1.437 8.693 1.469 9.404 C1.681 13.07 1.919 14.879 4 18 C2.35 17.67 0.7 17.34 -1 17 C-1.027 14.354 -1.047 11.708 -1.062 9.062 C-1.071 8.308 -1.079 7.553 -1.088 6.775 C-1.097 4.85 -1.052 2.925 -1 1 C-0.67 0.67 -0.34 0.34 0 0 Z " fill="#F7C826" transform="translate(58,154)"/>
<path d="M0 0 C0.613 1.859 0.613 1.859 1 4 C-0.812 6.25 -0.812 6.25 -3 8 C-3.66 8 -4.32 8 -5 8 C-5.268 8.639 -5.536 9.279 -5.812 9.938 C-7 12 -7 12 -10 13 C-8.655 8.958 -6.949 6.613 -3.875 3.688 C-3.151 2.99 -2.426 2.293 -1.68 1.574 C-1.125 1.055 -0.571 0.535 0 0 Z " fill="#ABAA83" transform="translate(204,56)"/>
<path d="M0 0 C1.184 3.449 0.813 5.608 -0.25 9.062 C-0.503 9.92 -0.755 10.777 -1.016 11.66 C-2.037 14.087 -2.94 15.381 -5 17 C-5.66 17 -6.32 17 -7 17 C-5.496 13.213 -3.945 9.448 -2.375 5.688 C-1.929 4.619 -1.483 3.55 -1.023 2.449 C-0.686 1.641 -0.348 0.833 0 0 Z " fill="#C2B889" transform="translate(232,146)"/>
<path d="M0 0 C1.65 0.33 3.3 0.66 5 1 C4.67 1.495 4.67 1.495 3 4 C2.544 6.577 2.171 9.093 1.875 11.688 C1.789 12.389 1.702 13.091 1.613 13.814 C1.402 15.542 1.2 17.271 1 19 C0.34 19 -0.32 19 -1 19 C-1.33 19.66 -1.66 20.32 -2 21 C-2 19.68 -2 18.36 -2 17 C-1.34 17 -0.68 17 0 17 C0 11.39 0 5.78 0 0 Z " fill="#18CDD6" transform="translate(197,116)"/>
<path d="M0 0 C0 3.75 -0.831 4.346 -3.375 7 C-7.762 11.277 -12.067 12.833 -18 14 C-16.638 11.276 -15.137 11.035 -12.375 9.812 C-7.238 7.348 -3.717 4.271 0 0 Z " fill="#DDD2AA" transform="translate(224,172)"/>
<path d="M0 0 C0 1.32 0 2.64 0 4 C-2.64 4 -5.28 4 -8 4 C-8.33 3.01 -8.66 2.02 -9 1 C-6.043 -0.478 -3.258 -0.06 0 0 Z " fill="#FDE725" transform="translate(119,147)"/>
<path d="M0 0 C0.99 0.33 1.98 0.66 3 1 C2.988 1.362 2.988 1.362 2.93 3.195 C2.83 8.546 2.835 12.994 5 18 C1.24 15.493 1.012 14.357 0 10 C-0.155 6.659 -0.119 3.342 0 0 Z " fill="#0BA5A8" transform="translate(163,120)"/>
<path d="M0 0 C2.5 1.375 2.5 1.375 5 3 C5 3.66 5 4.32 5 5 C6.98 5.66 8.96 6.32 11 7 C10.67 7.495 10.67 7.495 9 10 C7.68 9.34 6.36 8.68 5 8 C5 7.34 5 6.68 5 6 C3.68 5.67 2.36 5.34 1 5 C0.67 3.35 0.34 1.7 0 0 Z " fill="#E5B010" transform="translate(48,71)"/>
<path d="M0 0 C1.938 0.688 1.938 0.688 4 2 C5.867 6.534 4.299 10.492 3 15 C2.67 15 2.34 15 2 15 C0.984 10.301 0.984 6.699 2 2 C1.34 2 0.68 2 0 2 C0 1.34 0 0.68 0 0 Z " fill="#1ACBD5" transform="translate(200,33)"/>
<path d="M0 0 C0.66 0.33 1.32 0.66 2 1 C1.795 1.248 1.795 1.248 0.758 2.504 C-2.761 6.94 -4.844 10.449 -6 16 C-6.66 15.67 -7.32 15.34 -8 15 C-6.839 8.381 -4.721 4.751 0 0 Z " fill="#E4E0C0" transform="translate(178,126)"/>
<path d="M0 0 C-0.33 0.99 -0.66 1.98 -1 3 C-5.62 3 -10.24 3 -15 3 C-12.222 1.148 -10.666 0.514 -7.5 -0.188 C-6.727 -0.367 -5.953 -0.546 -5.156 -0.73 C-3 -1 -3 -1 0 0 Z " fill="#40E1E7" transform="translate(199,33)"/>
<path d="M0 0 C0.66 0 1.32 0 2 0 C1.812 2.375 1.812 2.375 1 5 C-1.562 6.312 -1.562 6.312 -4 7 C-2.796 4.506 -1.546 2.319 0 0 Z M-4 8 C-4.33 8.66 -4.66 9.32 -5 10 C-7.649 10.594 -10.292 10.742 -13 11 C-12 9 -12 9 -9.062 7.812 C-6 7 -6 7 -4 8 Z " fill="#D6A105" transform="translate(124,168)"/>
<path d="M0 0 C-0.33 0.165 -0.33 0.165 -2 1 C-1.67 1.66 -1.34 2.32 -1 3 C-5.625 5.125 -5.625 5.125 -9 4 C-9.99 3.34 -10.98 2.68 -12 2 C-10.756 1.465 -9.504 0.948 -8.25 0.438 C-7.554 0.147 -6.858 -0.143 -6.141 -0.441 C-3.7 -1.078 -2.36 -0.802 0 0 Z " fill="#089494" transform="translate(206,174)"/>
<path d="M0 0 C0.641 0.144 0.641 0.144 3.883 0.871 C4.377 0.985 4.377 0.985 6.875 1.562 C6.875 1.893 6.875 2.222 6.875 2.562 C6.562 2.557 6.562 2.557 4.977 2.527 C4.568 2.523 4.568 2.523 2.5 2.5 C2.094 2.494 2.094 2.494 0.039 2.465 C-2.125 2.562 -2.125 2.562 -4.125 3.562 C-6.75 2.625 -6.75 2.625 -9.125 1.562 C-9.125 0.903 -9.125 0.243 -9.125 -0.438 C-5.96 -2.02 -3.381 -0.768 0 0 Z " fill="#26D8E1" transform="translate(176.125,144.4375)"/>
<path d="M0 0 C3.759 2.506 3.726 3.819 4.688 8.125 C4.939 9.221 5.19 10.316 5.449 11.445 C5.631 12.288 5.813 13.131 6 14 C3 13 3 13 2.051 11.328 C0.668 7.437 -0.394 4.198 0 0 Z " fill="#04BABC" transform="translate(129,138)"/>
<path d="M0 0 C0 1.98 0 3.96 0 6 C-4.29 5.34 -8.58 4.68 -13 4 C-13 3.67 -13 3.34 -13 3 C-12.374 2.867 -11.747 2.734 -11.102 2.598 C-10.284 2.421 -9.467 2.244 -8.625 2.062 C-7.813 1.888 -7.001 1.714 -6.164 1.535 C-3.887 0.972 -2.353 0 0 0 Z " fill="#B89957" transform="translate(73,81)"/>
<path d="M0 0 C-0.616 4.005 -2.551 6.83 -5 10 C-5.99 10 -6.98 10 -8 10 C-7.67 8.68 -7.34 7.36 -7 6 C-6.01 6 -5.02 6 -4 6 C-4.33 4.68 -4.66 3.36 -5 2 C-2 0 -2 0 0 0 Z " fill="#3ADCE4" transform="translate(168,50)"/>
<path d="M0 0 C1.65 0.33 3.3 0.66 5 1 C5 1.66 5 2.32 5 3 C7.31 3.33 9.62 3.66 12 4 C12 4.33 12 4.66 12 5 C10.396 5.054 8.792 5.093 7.188 5.125 C6.294 5.148 5.401 5.171 4.48 5.195 C2 5 2 5 -1 3 C-0.67 2.01 -0.34 1.02 0 0 Z " fill="#F9C902" transform="translate(54,73)"/>
<path d="M0 0 C0 0.66 0 1.32 0 2 C2.64 2.33 5.28 2.66 8 3 C8 3.66 8 4.32 8 5 C3.029 4.588 -1.445 4.204 -6 2 C-3 0 -3 0 0 0 Z " fill="#02AEB6" transform="translate(163,171)"/>
<path d="M0 0 C0.99 0 1.98 0 3 0 C2.67 1.32 2.34 2.64 2 4 C1.01 3.67 0.02 3.34 -1 3 C-0.67 2.01 -0.34 1.02 0 0 Z M-3 4 C-2.34 4.165 -2.34 4.165 1 5 C-0.375 7.5 -0.375 7.5 -2 10 C-2.66 10 -3.32 10 -4 10 C-3.67 8.02 -3.34 6.04 -3 4 Z " fill="#16CDD5" transform="translate(217,150)"/>
<path d="M0 0 C1.251 3.547 0.723 5.723 -0.438 9.25 C-0.725 10.142 -1.012 11.034 -1.309 11.953 C-1.537 12.629 -1.765 13.304 -2 14 C-2.33 14 -2.66 14 -3 14 C-3.156 4.814 -3.156 4.814 -2 1 C-1.34 0.67 -0.68 0.34 0 0 Z " fill="#4DE2E7" transform="translate(134,104)"/>
<path d="M0 0 C3.63 1.32 7.26 2.64 11 4 C10.67 4.66 10.34 5.32 10 6 C2.25 5.25 2.25 5.25 0 3 C0 2.01 0 1.02 0 0 Z " fill="#CBBF90" transform="translate(155,177)"/>
<path d="M0 0 C2.97 1.65 5.94 3.3 9 5 C9 5.33 9 5.66 9 6 C5.625 6.125 5.625 6.125 2 6 C1.34 5.34 0.68 4.68 0 4 C0 2.68 0 1.36 0 0 Z " fill="#E4D8B1" transform="translate(148,176)"/>
<path d="M0 0 C0.33 0 0.66 0 1 0 C1 2.31 1 4.62 1 7 C-1.812 8.562 -1.812 8.562 -5 10 C-5.99 9.67 -6.98 9.34 -8 9 C-3.25 5 -3.25 5 -1 5 C-0.67 3.35 -0.34 1.7 0 0 Z " fill="#44DFE7" transform="translate(199,137)"/>
<path d="M0 0 C0 3.95 -1.555 4.98 -4 8 C-5.25 10.812 -5.25 10.812 -6 13 C-6.66 12.34 -7.32 11.68 -8 11 C-7.708 7.38 -6.004 5.676 -3.438 3.25 C-2.797 2.636 -2.156 2.023 -1.496 1.391 C-1.002 0.932 -0.509 0.473 0 0 Z " fill="#DBD6B1" transform="translate(176,127)"/>
<path d="M0 0 C0 0.66 0 1.32 0 2 C-0.33 2.165 -0.33 2.165 -2 3 C-2.237 3.423 -2.237 3.423 -3.438 5.562 C-3.953 6.367 -4.469 7.171 -5 8 C-5.99 8 -6.98 8 -8 8 C-5.189 0 -5.189 0 0 0 Z " fill="#989A71" transform="translate(175,116)"/>
<path d="M0 0 C8.571 -0.143 8.571 -0.143 12 1 C11.67 1.99 11.34 2.98 11 4 C7.051 3.449 3.651 2.611 0 1 C0 0.67 0 0.34 0 0 Z " fill="#48E2EB" transform="translate(190,82)"/>
<path d="M0 0 C0.66 0.66 1.32 1.32 2 2 C0.714 3.173 -0.579 4.338 -1.875 5.5 C-2.594 6.15 -3.314 6.799 -4.055 7.469 C-6 9 -6 9 -8 9 C-8 8.34 -8 7.68 -8 7 C-7.34 7 -6.68 7 -6 7 C-6 6.34 -6 5.68 -6 5 C-5.34 5 -4.68 5 -4 5 C-4 4.34 -4 3.68 -4 3 C-3.34 3 -2.68 3 -2 3 C-2 2.34 -2 1.68 -2 1 C-1.34 0.67 -0.68 0.34 0 0 Z " fill="#3ADCE4" transform="translate(180,37)"/>
<path d="M0 0 C0.33 0.99 0.66 1.98 1 3 C-2 6 -5 9 -8 12 C-8.66 11.67 -9.32 11.34 -10 11 C-9.723 10.729 -9.723 10.729 -8.32 9.355 C-7.596 8.64 -6.871 7.925 -6.125 7.188 C-5.406 6.48 -4.686 5.772 -3.945 5.043 C-2 3 -2 3 0 0 Z " fill="#EBE0BE" transform="translate(228,171)"/>
<path d="M0 0 C0.66 0.33 1.32 0.66 2 1 C-0.622 3.154 -2.644 4.401 -6 5 C-6 4.34 -6 3.68 -6 3 C-8.31 3 -10.62 3 -13 3 C-13.33 2.34 -13.66 1.68 -14 1 C-13.62 1.006 -13.62 1.006 -11.699 1.035 C-10.705 1.044 -9.711 1.053 -8.688 1.062 C-7.701 1.074 -6.715 1.086 -5.699 1.098 C-3 1 -3 1 0 0 Z " fill="#48E2E8" transform="translate(189,147)"/>
<path d="M0 0 C0.825 0.165 0.825 0.165 5 1 C4.34 3.31 3.68 5.62 3 8 C2.67 7.34 2.34 6.68 2 6 C1.34 6 0.68 6 0 6 C0 4.02 0 2.04 0 0 Z " fill="#3AE1E7" transform="translate(198,129)"/>
<path d="M0 0 C0.66 0.33 1.32 0.66 2 1 C1.381 1.619 0.762 2.237 0.125 2.875 C-2.71 7.045 -3.273 11.076 -4 16 C-4.33 16 -4.66 16 -5 16 C-5.286 11.961 -5.456 8.03 -5 4 C-2.5 1.25 -2.5 1.25 0 0 Z " fill="#197775" transform="translate(170,116)"/>
<path d="M0 0 C1.261 2.98 0.991 4.023 -0.188 7.125 C-1.994 9.99 -2.868 10.92 -6 12 C-4.742 8.517 -3.243 5.926 -1 3 C-0.67 2.01 -0.34 1.02 0 0 Z " fill="#D4C392" transform="translate(129,171)"/>
<path d="M0 0 C0.33 0.99 0.66 1.98 1 3 C0.34 3 -0.32 3 -1 3 C-1.33 4.65 -1.66 6.3 -2 8 C-4.154 5.378 -5.401 3.356 -6 0 C-3 -1 -3 -1 0 0 Z " fill="#ECDFB9" transform="translate(133,154)"/>
<path d="M0 0 C0.66 0 1.32 0 2 0 C0.839 4.355 -0.077 6.646 -4 9 C-4.33 8.01 -4.66 7.02 -5 6 C-4.34 5.01 -3.68 4.02 -3 3 C-2.34 3 -1.68 3 -1 3 C-0.67 2.01 -0.34 1.02 0 0 Z " fill="#0A9FA2" transform="translate(226,153)"/>
<path d="M0 0 C0.66 0 1.32 0 2 0 C2 0.66 2 1.32 2 2 C2.66 2 3.32 2 4 2 C4.33 3.65 4.66 5.3 5 7 C4.34 7.33 4.34 7.33 1 9 C0.67 6.03 0.34 3.06 0 0 Z " fill="#FDDF1F" transform="translate(76,119)"/>
<path d="M0 0 C3 2 3 2 4 5 C5.623 6.386 7.287 7.726 9 9 C7.68 9 6.36 9 5 9 C5 8.34 5 7.68 5 7 C4.691 6.969 4.691 6.969 3.125 6.812 C1 6 1 6 -0.25 3.438 C-0.498 2.633 -0.745 1.829 -1 1 C-0.67 0.67 -0.34 0.34 0 0 Z " fill="#F1E0B9" transform="translate(52,80)"/>
<path d="M0 0 C0.66 0.99 1.32 1.98 2 3 C1.211 5.489 0.165 7.67 -1 10 C-1.66 10 -2.32 10 -3 10 C-2.692 8.52 -2.378 7.041 -2.062 5.562 C-1.975 5.151 -1.975 5.151 -1.535 3.066 C-1 1 -1 1 0 0 Z " fill="#FDE848" transform="translate(54,52)"/>
<path d="M0 0 C1.155 0.66 1.155 0.66 7 4 C6.67 4.99 6.34 5.98 6 7 C3.69 5.68 1.38 4.36 -1 3 C-0.67 2.01 -0.34 1.02 0 0 Z " fill="#D6C9A0" transform="translate(148,173)"/>
<path d="M0 0 C0.99 0.33 1.98 0.66 3 1 C1.625 3.5 1.625 3.5 0 6 C-0.66 6 -1.32 6 -2 6 C-2 8.64 -2 11.28 -2 14 C-2.33 14 -2.66 14 -3 14 C-3.082 12.418 -3.139 10.834 -3.188 9.25 C-3.222 8.368 -3.257 7.487 -3.293 6.578 C-2.949 3.553 -1.998 2.244 0 0 Z " fill="#04B7BE" transform="translate(165,114)"/>
<path d="M0 0 C4.824 -0.193 8.496 0.243 13 2 C13 2.66 13 3.32 13 4 C11.582 3.715 10.166 3.422 8.75 3.125 C7.961 2.963 7.172 2.8 6.359 2.633 C4.032 2.008 2.11 1.152 0 0 Z " fill="#31D9E3" transform="translate(192,80)"/>
<path d="M0 0 C0.66 0.99 1.32 1.98 2 3 C1.125 6.188 1.125 6.188 0 9 C-0.66 9 -1.32 9 -2 9 C-2.25 3.375 -2.25 3.375 0 0 Z " fill="#62E6EC" transform="translate(142,77)"/>
<path d="M0 0 C1.155 0.495 1.155 0.495 7 3 C7 3.99 7 4.98 7 6 C2.25 5.125 2.25 5.125 0 4 C0 2.68 0 1.36 0 0 Z " fill="#E6D4A9" transform="translate(62,178)"/>
<path d="M0 0 C0.33 0.99 0.66 1.98 1 3 C3.062 4.188 3.062 4.188 5 5 C4.34 5 3.68 5 3 5 C3 5.66 3 6.32 3 7 C-0.399 5.867 -1.053 4.875 -3 2 C-2.01 1.34 -1.02 0.68 0 0 Z " fill="#09AEB1" transform="translate(152,167)"/>
<path d="M0 0 C2.379 0.176 3.702 0.697 5.379 2.402 C6.621 3.906 7.814 5.451 9 7 C5.406 5.665 2.245 4.04 -1 2 C-0.67 1.34 -0.34 0.68 0 0 Z " fill="#069C9C" transform="translate(141,162)"/>
<path d="M0 0 C0.66 0.33 1.32 0.66 2 1 C0.02 3.31 -1.96 5.62 -4 8 C-5.32 7.67 -6.64 7.34 -8 7 C-5.36 4.69 -2.72 2.38 0 0 Z " fill="#FDE73C" transform="translate(68,44)"/>
<path d="M0 0 C0.66 0.33 1.32 0.66 2 1 C-1.3 3.64 -4.6 6.28 -8 9 C-8 6 -8 6 -7 3 C-5.125 2.438 -5.125 2.438 -3 2 C-2.01 1.34 -1.02 0.68 0 0 Z " fill="#FEEB49" transform="translate(78,33)"/>
<path d="M0 0 C0.33 0 0.66 0 1 0 C0.385 6.523 0.385 6.523 -1.562 8.938 C-2.037 9.288 -2.511 9.639 -3 10 C-2.25 3.375 -2.25 3.375 0 0 Z " fill="#29D9E2" transform="translate(203,131)"/>
<path d="M0 0 C1.327 3.981 1.069 7.85 1 12 C0.67 12.165 0.67 12.165 -1 13 C-1.66 12.34 -2.32 11.68 -3 11 C-2.34 11 -1.68 11 -1 11 C-1.206 9.742 -1.412 8.484 -1.625 7.188 C-2.213 3.599 -2.166 3.249 0 0 Z " fill="#09C3CB" transform="translate(231,116)"/>
<path d="M0 0 C0.66 0 1.32 0 2 0 C2.125 3.375 2.125 3.375 2 7 C1.34 7.66 0.68 8.32 0 9 C-1.108 5.675 -0.845 3.378 0 0 Z " fill="#FBD303" transform="translate(108,83)"/>
<path d="M0 0 C0.66 0.33 1.32 0.66 2 1 C1 3 0 5 -1 7 C-2.32 6.67 -3.64 6.34 -5 6 C-3.35 4.02 -1.7 2.04 0 0 Z " fill="#919972" transform="translate(188,73)"/>
<path d="M0 0 C3.875 1.75 3.875 1.75 5 4 C6.644 4.722 8.311 5.394 10 6 C8.375 6.75 8.375 6.75 6 7 C2.75 5.25 2.75 5.25 0 3 C0 2.01 0 1.02 0 0 Z " fill="#E2CD9F" transform="translate(55,82)"/>
<path d="M0 0 C0.66 0.33 1.32 0.66 2 1 C1.34 3.31 0.68 5.62 0 8 C-0.99 8 -1.98 8 -3 8 C-2.453 4.625 -1.945 2.918 0 0 Z " fill="#049EA4" transform="translate(183,71)"/>
<path d="M0 0 C0.66 0.99 1.32 1.98 2 3 C-0.625 7.875 -0.625 7.875 -4 9 C-2.941 5.597 -1.991 2.986 0 0 Z " fill="#4FE0E8" transform="translate(149,71)"/>
<path d="M0 0 C2.262 2.262 3.039 3.97 4 7 C3.67 7.99 3.34 8.98 3 10 C2.01 9.34 1.02 8.68 0 8 C-0.408 5.288 -0.133 2.756 0 0 Z " fill="#FBD008" transform="translate(49,64)"/>
<path d="M0 0 C-3.445 2.296 -5.938 2.54 -10 3 C-10 2.34 -10 1.68 -10 1 C-6.785 -0.607 -3.564 -0.057 0 0 Z " fill="#01B0B6" transform="translate(202,173)"/>
<path d="M0 0 C1.376 1.29 2.708 2.627 4 4 C4 4.66 4 5.32 4 6 C3.01 6 2.02 6 1 6 C0.897 5.361 0.794 4.721 0.688 4.062 C0.461 3.382 0.234 2.701 0 2 C-0.99 1.67 -1.98 1.34 -3 1 C-2.01 0.67 -1.02 0.34 0 0 Z " fill="#AEB08E" transform="translate(191,119)"/>
<path d="M0 0 C4.75 0.75 4.75 0.75 7 3 C6.625 5.125 6.625 5.125 6 7 C4.68 6.67 3.36 6.34 2 6 C2.66 5.67 3.32 5.34 4 5 C4 4.34 4 3.68 4 3 C2 1.375 2 1.375 0 0 Z " fill="#33D8E0" transform="translate(194,30)"/>
<path d="M0 0 C2.352 0.599 4.686 1.269 7 2 C7.33 2.66 7.66 3.32 8 4 C5.36 3.67 2.72 3.34 0 3 C0 2.01 0 1.02 0 0 Z " fill="#ECB912" transform="translate(58,171)"/>
</svg>
