<?xml version="1.0" encoding="UTF-8"?>
<!-- Generator: visioncortex VTracer 0.6.12 -->
<svg version="1.1" xmlns="http://www.w3.org/2000/svg" width="300" height="224">
<path d="M0 0 C99 0 198 0 300 0 C300 73.92 300 147.84 300 224 C201 224 102 224 0 224 C0 150.08 0 76.16 0 0 Z " fill="#FDF6E1" transform="translate(0,0)"/>
<path d="M0 0 C11.314 7.348 19.121 18.492 23.04 31.416 C26.013 45.799 24.37 62.848 19.496 76.621 C19.072 77.842 18.648 79.063 18.211 80.32 C12.069 96.693 3.507 111.071 -7.504 124.621 C-8.277 125.58 -9.051 126.539 -9.848 127.527 C-17.006 135.93 -26.9 145.699 -38.348 146.926 C-46.458 147.267 -50.604 145.888 -56.816 140.684 C-60.071 136.706 -61.034 132.881 -60.878 127.713 C-59.568 120.392 -53.008 114.769 -47.879 109.871 C-46.551 108.587 -45.226 107.301 -43.902 106.012 C-43.321 105.455 -42.741 104.899 -42.142 104.325 C-40.417 102.53 -38.958 100.64 -37.504 98.621 C-38.447 98.535 -39.391 98.448 -40.363 98.359 C-56.067 96.641 -68.562 91.309 -78.871 78.914 C-88.271 65.714 -89.889 51.392 -88.504 35.621 C-87.662 31.326 -86.339 27.586 -84.504 23.621 C-84.303 23.162 -84.303 23.162 -83.289 20.836 C-75.968 5.748 -63.432 -2.058 -48.215 -7.57 C-31.491 -11.214 -14.684 -8.546 0 0 Z " fill="#96CB10" transform="translate(224.50390625,44.37890625)"/>
<path d="M0 0 C0.929 -0.021 1.859 -0.041 2.816 -0.062 C8.593 -0.095 12.667 0.441 17.75 3.25 C21.186 6.957 22.866 9.425 22.908 14.439 C22.918 15.317 22.928 16.194 22.938 17.099 C22.944 18.064 22.949 19.029 22.955 20.024 C22.965 21.039 22.975 22.053 22.985 23.099 C23.017 26.464 23.042 29.83 23.066 33.195 C23.087 35.524 23.108 37.853 23.129 40.182 C23.185 46.32 23.234 52.459 23.282 58.598 C23.332 64.858 23.388 71.119 23.443 77.379 C23.551 89.669 23.652 101.96 23.75 114.25 C24.365 114.36 24.98 114.469 25.613 114.582 C26.017 114.661 26.017 114.661 28.062 115.062 C28.463 115.138 28.463 115.138 30.488 115.52 C34.268 116.74 35.584 119.001 37.75 122.25 C39.418 125.585 39.019 129.274 39.062 132.938 C39.077 133.333 39.077 133.333 39.15 135.334 C39.21 140.911 38.473 144.976 34.75 149.25 C28.618 153.793 22.212 153.837 14.84 153.781 C13.714 153.785 12.587 153.789 11.427 153.793 C9.056 153.796 6.685 153.788 4.314 153.771 C0.695 153.75 -2.922 153.771 -6.541 153.797 C-8.852 153.794 -11.162 153.789 -13.473 153.781 C-14.549 153.789 -15.625 153.797 -16.734 153.806 C-24.02 153.715 -28.515 152.64 -34.027 147.637 C-38.492 141.098 -38.151 133.891 -37.25 126.25 C-36.086 122.063 -34.308 119.217 -31.062 116.25 C-28.25 115.25 -28.25 115.25 -19.25 115.25 C-19.25 96.11 -19.25 76.97 -19.25 57.25 C-21.56 57.085 -21.56 57.085 -33.25 56.25 C-39.528 53.835 -42.345 50.095 -45.25 44.25 C-46.244 41.268 -46.48 39.061 -46.562 35.938 C-46.6 35.013 -46.637 34.089 -46.676 33.137 C-45.233 23.355 -34.064 16.312 -26.633 10.75 C-17.21 3.831 -11.846 0.065 0 0 Z " fill="#FCDD12" transform="translate(95.25,35.75)"/>
<path d="M0 0 C0.509 0 0.509 0 3.083 0.003 C11.186 0.13 20.08 0.574 26.703 5.824 C27.875 7.375 27.875 7.375 27.875 10.375 C22.611 12.217 19.008 12.859 13.812 10.5 C12.487 9.816 11.17 9.116 9.875 8.375 C9.875 9.695 9.875 11.015 9.875 12.375 C10.205 12.705 10.205 12.705 11.875 14.375 C12.887 15.699 13.889 17.031 14.875 18.375 C13.562 20.375 13.562 20.375 11.875 22.375 C10.885 22.375 9.895 22.375 8.875 22.375 C8.545 23.035 8.215 23.695 7.875 24.375 C6.209 24.418 4.541 24.416 2.875 24.375 C2.545 24.045 2.215 23.715 1.875 23.375 C1.875 24.695 1.875 26.015 1.875 27.375 C-0.887 30.137 -3.332 29.954 -7.125 30.375 C-7.125 31.035 -7.125 31.695 -7.125 32.375 C-8.77 33.742 -8.77 33.742 -10.938 35.25 C-13.942 37.34 -16.263 39.187 -18.125 42.375 C-19.472 51.5 -17.249 59.341 -13.125 67.375 C-12.135 67.045 -11.145 66.715 -10.125 66.375 C-10.641 65.859 -11.156 65.344 -11.688 64.812 C-13.757 61.304 -13.036 59.285 -12.125 55.375 C-8.851 50.331 -4.89 46.011 1.102 44.633 C8.858 44.463 8.858 44.463 11.535 46.863 C11.977 47.362 12.419 47.861 12.875 48.375 C13.37 48.54 13.37 48.54 15.875 49.375 C16.449 56.26 15.35 60.402 11.875 66.375 C12.865 66.045 13.855 65.715 14.875 65.375 C15.605 63.527 15.605 63.527 16.062 61.312 C16.221 60.579 16.38 59.846 16.543 59.09 C16.653 58.524 16.762 57.958 16.875 57.375 C17.535 57.375 18.195 57.375 18.875 57.375 C19.205 56.055 19.535 54.735 19.875 53.375 C21.525 53.705 23.175 54.035 24.875 54.375 C24.545 54.54 24.545 54.54 22.875 55.375 C23.04 56.324 23.205 57.273 23.375 58.25 C23.875 61.375 23.875 61.375 23.875 63.375 C23.545 63.54 23.545 63.54 21.875 64.375 C21.875 65.365 21.875 66.355 21.875 67.375 C19.729 70.409 17.985 72.302 14.875 74.375 C15.535 74.705 16.195 75.035 16.875 75.375 C16.875 76.035 16.875 76.695 16.875 77.375 C15.885 78.035 14.895 78.695 13.875 79.375 C12.824 81.01 11.815 82.674 10.875 84.375 C10.545 83.715 10.215 83.055 9.875 82.375 C7.813 81.75 7.813 81.75 5.875 81.375 C6.205 80.88 6.205 80.88 7.875 78.375 C7.875 77.715 7.875 77.055 7.875 76.375 C7.256 76.726 6.637 77.076 6 77.438 C5.299 77.747 4.597 78.056 3.875 78.375 C3.545 78.21 3.545 78.21 1.875 77.375 C1.875 78.035 1.875 78.695 1.875 79.375 C-0.125 81 -0.125 81 -2.125 82.375 C-1.795 84.025 -1.465 85.675 -1.125 87.375 C-3.791 89.152 -6.153 90.25 -9.125 91.375 C-8.795 91.54 -8.795 91.54 -7.125 92.375 C-7.125 93.035 -7.125 93.695 -7.125 94.375 C-8.445 94.375 -9.765 94.375 -11.125 94.375 C-11.29 94.87 -11.29 94.87 -12.125 97.375 C-13.709 97.26 -15.292 97.133 -16.875 97 C-17.757 96.93 -18.638 96.861 -19.547 96.789 C-22.125 96.375 -22.125 96.375 -24.266 95.273 C-26.125 94.375 -26.125 94.375 -29.125 95.375 C-32.125 93.375 -32.125 93.375 -33.125 90.375 C-33.62 90.045 -33.62 90.045 -36.125 88.375 C-36.125 87.715 -36.125 87.055 -36.125 86.375 C-37.445 85.715 -38.765 85.055 -40.125 84.375 C-40.125 83.715 -40.125 83.055 -40.125 82.375 C-40.424 82.282 -40.424 82.282 -41.938 81.812 C-44.125 80.375 -44.125 80.375 -45.562 76.875 C-45.82 76.297 -45.82 76.297 -47.125 73.375 C-47.548 73.22 -47.548 73.22 -49.688 72.438 C-52.125 71.375 -52.125 71.375 -52.891 69.488 C-53.384 67.469 -53.762 65.422 -54.125 63.375 C-54.455 63.375 -54.785 63.375 -55.125 63.375 C-55.54 52.364 -55.854 42.59 -51.125 32.375 C-50.925 31.915 -50.925 31.915 -49.91 29.59 C-42.589 14.502 -30.053 6.696 -14.836 1.184 C-9.859 0.099 -5.081 -0.008 0 0 Z M5.875 24.375 C6.535 24.705 7.195 25.035 7.875 25.375 C6.885 25.375 5.895 25.375 4.875 25.375 C5.205 25.045 5.535 24.715 5.875 24.375 Z " fill="#98CB13" transform="translate(191.125,35.625)"/>
<path d="M0 0 C99 0 198 0 300 0 C300 73.92 300 147.84 300 224 C201 224 102 224 0 224 C0 222.02 0 220.04 0 218 C98.67 218 197.34 218 299 218 C299 148.37 299 78.74 299 7 C200.33 7 101.66 7 0 7 C0 4.69 0 2.38 0 0 Z " fill="#FDFDFC" transform="translate(0,0)"/>
<path d="M0 0 C1.32 0 2.64 0 4 0 C8.539 9.696 9.322 18.589 9.25 29.25 C9.254 29.829 9.254 29.829 9.273 32.758 C9.271 33.874 9.268 34.99 9.266 36.141 C9.263 37.146 9.261 38.152 9.259 39.188 C8.985 42.158 8.223 44.295 7 47 C5.927 50.085 4.952 53.169 4.062 56.312 C1.698 64.518 -1.069 72.4 -5 80 C-5.298 80.602 -5.596 81.204 -5.902 81.824 C-7.059 84.117 -8.265 86.374 -9.5 88.625 C-9.923 89.401 -10.346 90.177 -10.781 90.977 C-12 93 -12 93 -14 95 C-14.289 95.776 -14.578 96.553 -14.875 97.353 C-16.161 100.379 -17.669 102.042 -19.992 104.355 C-20.78 105.142 -21.567 105.929 -22.379 106.74 C-23.203 107.548 -24.026 108.355 -24.875 109.188 C-25.691 110.007 -26.507 110.826 -27.348 111.67 C-33.858 118.122 -33.858 118.122 -38 120 C-39.438 121.013 -40.855 122.055 -42.25 123.125 C-42.956 123.664 -43.663 124.203 -44.391 124.758 C-44.922 125.168 -45.453 125.578 -46 126 C-46.99 125.34 -47.98 124.68 -49 124 C-49.516 124.495 -50.031 124.99 -50.562 125.5 C-54.406 127.865 -58.121 127.386 -62.438 126.5 C-62.953 126.335 -63.469 126.17 -64 126 C-64 125.34 -64 124.68 -64 124 C-65.238 123.711 -66.475 123.423 -67.75 123.125 C-70.724 122.387 -73.334 121.555 -76 120 C-76 119.01 -76 118.02 -76 117 C-76.66 117 -77.32 117 -78 117 C-78.66 115.35 -79.32 113.7 -80 112 C-76.068 112 -74.97 113.549 -72 116 C-65.534 118.155 -58.295 118.018 -52.062 115.188 C-39.94 108.232 -30.971 98.282 -23 87 C-22.598 86.434 -22.196 85.868 -21.782 85.285 C-10.003 68.459 1.111 46.59 1.133 25.684 C1.134 24.507 1.135 23.331 1.137 22.119 C1.133 20.904 1.129 19.689 1.125 18.438 C1.129 17.219 1.133 16 1.137 14.744 C1.135 13.569 1.134 12.394 1.133 11.184 C1.132 10.65 1.132 10.65 1.129 7.951 C1.008 5.19 0.625 2.687 0 0 Z " fill="#EBDEB7" transform="translate(246,73)"/>
<path d="M0 0 C2.84 0.713 3.669 1.504 5.566 3.645 C6.556 3.975 7.546 4.305 8.566 4.645 C9.14 11.529 8.042 15.671 4.566 21.645 C5.556 21.315 6.546 20.985 7.566 20.645 C8.297 18.797 8.297 18.797 8.754 16.582 C8.912 15.849 9.071 15.115 9.234 14.359 C9.344 13.793 9.454 13.228 9.566 12.645 C10.226 12.645 10.886 12.645 11.566 12.645 C11.896 11.325 12.226 10.005 12.566 8.645 C13.391 8.81 13.391 8.81 17.566 9.645 C16.906 9.975 16.246 10.305 15.566 10.645 C15.649 11.119 15.649 11.119 16.066 13.52 C16.566 16.645 16.566 16.645 16.566 18.645 C16.236 18.81 16.236 18.81 14.566 19.645 C14.566 20.635 14.566 21.625 14.566 22.645 C12.42 25.679 10.676 27.571 7.566 29.645 C8.226 29.975 8.886 30.305 9.566 30.645 C9.566 31.305 9.566 31.965 9.566 32.645 C8.576 33.305 7.586 33.965 6.566 34.645 C5.515 36.279 4.507 37.943 3.566 39.645 C3.236 38.985 2.906 38.325 2.566 37.645 C0.504 37.02 0.504 37.02 -1.434 36.645 C-0.774 35.655 -0.114 34.665 0.566 33.645 C0.566 32.985 0.566 32.325 0.566 31.645 C-0.052 31.995 -0.671 32.346 -1.309 32.707 C-2.01 33.016 -2.711 33.326 -3.434 33.645 C-3.764 33.48 -3.764 33.48 -5.434 32.645 C-5.434 33.305 -5.434 33.965 -5.434 34.645 C-7.434 36.27 -7.434 36.27 -9.434 37.645 C-9.269 38.47 -9.269 38.47 -8.434 42.645 C-11.099 44.422 -13.462 45.52 -16.434 46.645 C-15.774 46.975 -15.114 47.305 -14.434 47.645 C-14.434 48.305 -14.434 48.965 -14.434 49.645 C-15.754 49.645 -17.074 49.645 -18.434 49.645 C-18.764 50.635 -19.094 51.625 -19.434 52.645 C-21.018 52.53 -22.601 52.402 -24.184 52.27 C-25.065 52.2 -25.947 52.13 -26.855 52.059 C-29.434 51.645 -29.434 51.645 -31.574 50.543 C-33.434 49.645 -33.434 49.645 -36.434 50.645 C-39.434 48.645 -39.434 48.645 -40.434 45.645 C-41.424 44.985 -42.414 44.325 -43.434 43.645 C-43.434 42.985 -43.434 42.325 -43.434 41.645 C-44.094 41.645 -44.754 41.645 -45.434 41.645 C-45.434 39.995 -45.434 38.345 -45.434 36.645 C-44.609 36.48 -44.609 36.48 -40.434 35.645 C-41.094 37.625 -41.754 39.605 -42.434 41.645 C-36.34 42.699 -32.79 42.68 -27.434 39.645 C-26.774 38.985 -26.114 38.325 -25.434 37.645 C-24.444 37.645 -23.454 37.645 -22.434 37.645 C-22.64 37.026 -22.846 36.407 -23.059 35.77 C-23.182 35.068 -23.306 34.367 -23.434 33.645 C-22.774 32.985 -22.114 32.325 -21.434 31.645 C-21.434 30.655 -21.434 29.665 -21.434 28.645 C-21.434 27.985 -21.434 27.325 -21.434 26.645 C-20.774 26.645 -20.114 26.645 -19.434 26.645 C-19.764 25.325 -20.094 24.005 -20.434 22.645 C-19.444 22.315 -18.454 21.985 -17.434 21.645 C-17.949 21.129 -18.465 20.613 -18.996 20.082 C-21.065 16.574 -20.345 14.554 -19.434 10.645 C-14.427 2.929 -9.187 -0.515 0 0 Z " fill="#97CB14" transform="translate(198.43359375,80.35546875)"/>
<path d="M0 0 C0.509 0 0.509 0 3.083 0.003 C11.186 0.13 20.08 0.574 26.703 5.824 C27.875 7.375 27.875 7.375 27.875 10.375 C23.923 11.758 20.492 12.919 16.414 11.547 C14.89 10.788 13.389 9.982 11.918 9.125 C9.875 8.375 9.875 8.375 7.801 9.25 C7.165 9.621 6.53 9.992 5.875 10.375 C4.885 10.375 3.895 10.375 2.875 10.375 C0.875 8.375 0.875 8.375 -0.125 6.375 C-1.115 6.705 -2.105 7.035 -3.125 7.375 C-3.125 6.715 -3.125 6.055 -3.125 5.375 C-5.765 5.705 -8.405 6.035 -11.125 6.375 C-11.125 7.035 -11.125 7.695 -11.125 8.375 C-11.785 8.375 -12.445 8.375 -13.125 8.375 C-13.125 9.365 -13.125 10.355 -13.125 11.375 C-13.847 11.127 -14.569 10.88 -15.312 10.625 C-18.125 10.375 -18.125 10.375 -20.875 12.188 C-23.125 14.375 -23.125 14.375 -24.125 16.375 C-24.785 16.375 -25.445 16.375 -26.125 16.375 C-26.455 17.365 -26.785 18.355 -27.125 19.375 C-27.909 19.478 -28.692 19.581 -29.5 19.688 C-32.125 20.375 -32.125 20.375 -34.125 23.375 C-33.795 24.365 -33.465 25.355 -33.125 26.375 C-34.115 26.375 -35.105 26.375 -36.125 26.375 C-36.414 26.953 -36.702 27.53 -37 28.125 C-37.371 28.868 -37.743 29.61 -38.125 30.375 C-38.455 31.097 -38.785 31.819 -39.125 32.562 C-40.125 34.375 -40.125 34.375 -42.125 35.375 C-41.96 36.118 -41.795 36.86 -41.625 37.625 C-41.125 40.375 -41.125 40.375 -41.125 44.375 C-40.465 44.705 -39.805 45.035 -39.125 45.375 C-39.455 46.303 -39.785 47.231 -40.125 48.188 C-41.125 51.375 -41.125 51.375 -41.125 54.375 C-41.785 54.375 -42.445 54.375 -43.125 54.375 C-42.795 56.025 -42.465 57.675 -42.125 59.375 C-43.445 60.035 -44.765 60.695 -46.125 61.375 C-45.795 63.025 -45.465 64.675 -45.125 66.375 C-46.445 66.375 -47.765 66.375 -49.125 66.375 C-54.926 57.58 -53.225 44.4 -52.125 34.375 C-50.962 29.253 -48.464 25.394 -45.125 21.375 C-44.349 20.408 -43.573 19.441 -42.773 18.445 C-31.679 6.077 -16.432 -0.025 0 0 Z " fill="#A4D52A" transform="translate(191.125,35.625)"/>
<path d="M0 0 C0.165 0.33 0.165 0.33 1 2 C1.825 2.248 2.65 2.495 3.5 2.75 C4.325 3.162 5.15 3.575 6 4 C6.812 6.438 6.812 6.438 7 10 C7.085 10.833 7.17 11.665 7.258 12.523 C7.674 18.987 6.648 22.882 2.723 28.051 C0.305 30.786 -1.985 32.923 -5 35 C-5.99 35 -6.98 35 -8 35 C-10.06 35.735 -12.051 36.584 -14.062 37.441 C-16 38 -16 38 -19 37 C-22.783 36.647 -26.58 36.534 -30.375 36.375 C-31.417 36.323 -32.458 36.272 -33.531 36.219 C-34.539 36.175 -35.547 36.131 -36.586 36.086 C-37.504 36.045 -38.423 36.004 -39.369 35.962 C-42.039 36.001 -44.396 36.44 -47 37 C-49.457 36.879 -49.457 36.879 -51.812 36.562 C-52.603 36.461 -53.393 36.359 -54.207 36.254 C-54.799 36.17 -55.39 36.086 -56 36 C-56.165 35.505 -56.165 35.505 -57 33 C-59.066 32.051 -59.066 32.051 -61.562 31.312 C-62.389 31.061 -63.215 30.81 -64.066 30.551 C-64.704 30.369 -65.343 30.187 -66 30 C-66 29.34 -66 28.68 -66 28 C-66.66 28 -67.32 28 -68 28 C-69.625 26.625 -69.625 26.625 -71 25 C-71 24.34 -71 23.68 -71 23 C-68.614 23.576 -66.333 24.222 -64 25 C-62.34 25.107 -60.676 25.159 -59.013 25.177 C-57.998 25.19 -56.983 25.203 -55.937 25.216 C-54.84 25.223 -53.743 25.231 -52.613 25.238 C-51.482 25.246 -50.351 25.254 -49.186 25.263 C-46.79 25.277 -44.393 25.287 -41.996 25.295 C-38.344 25.312 -34.693 25.356 -31.041 25.4 C-28.711 25.411 -26.381 25.419 -24.051 25.426 C-22.964 25.443 -21.877 25.461 -20.758 25.479 C-14.045 25.46 -9.699 24.63 -4 21 C-0.905 16.639 -0.49 12.344 -0.312 7.125 C-0.278 6.437 -0.244 5.748 -0.209 5.039 C-0.127 3.36 -0.062 1.68 0 0 Z " fill="#EADAB0" transform="translate(134,163)"/>
<path d="M0 0 C0.33 0.495 0.33 0.495 2 3 C2.66 2.34 3.32 1.68 4 1 C6.833 7.232 7.123 13.346 6.938 20.082 C7 22 7 22 8 24 C8.088 26.395 8.115 28.761 8.098 31.156 C8.096 31.893 8.095 32.629 8.093 33.389 C8.089 34.991 8.083 36.593 8.075 38.195 C8.062 40.729 8.056 43.263 8.051 45.797 C8.038 52.091 8.013 58.385 7.99 64.68 C7.97 69.996 7.954 75.312 7.944 80.627 C7.938 83.126 7.925 85.625 7.912 88.124 C7.909 89.654 7.905 91.184 7.902 92.715 C7.897 93.411 7.892 94.108 7.887 94.826 C7.886 97.841 8.038 100.113 9 103 C1.125 102.125 1.125 102.125 0 101 C-0.095 97.864 -0.126 94.751 -0.114 91.615 C-0.114 90.63 -0.114 89.644 -0.114 88.629 C-0.113 85.356 -0.105 82.082 -0.098 78.809 C-0.096 76.546 -0.094 74.283 -0.093 72.02 C-0.09 66.05 -0.08 60.081 -0.069 54.112 C-0.058 48.026 -0.054 41.94 -0.049 35.854 C-0.038 23.902 -0.021 11.951 0 0 Z " fill="#F4E5BF" transform="translate(118,49)"/>
<path d="M0 0 C0.938 -0.012 1.876 -0.024 2.842 -0.037 C7.864 -0.048 11.984 0.194 16.688 2.188 C15.697 2.517 14.708 2.847 13.688 3.188 C13.852 4.178 13.852 4.178 14.688 9.188 C13.016 10.738 13.016 10.738 10.688 12.188 C8.109 12.043 8.109 12.043 5.438 11.375 C4.545 11.162 3.653 10.95 2.734 10.73 C2.059 10.551 1.383 10.372 0.688 10.188 C0.028 11.508 -0.632 12.828 -1.312 14.188 C-1.972 14.188 -2.632 14.188 -3.312 14.188 C-3.312 13.528 -3.312 12.867 -3.312 12.188 C-3.972 12.188 -4.632 12.188 -5.312 12.188 C-5.312 14.828 -5.312 17.468 -5.312 20.188 C-5.972 19.858 -6.632 19.528 -7.312 19.188 C-7.312 17.867 -7.312 16.547 -7.312 15.188 C-7.869 15.517 -8.426 15.847 -9 16.188 C-11.701 17.356 -13.398 17.561 -16.312 17.188 C-18.125 15.688 -18.125 15.688 -19.312 14.188 C-19.312 14.847 -19.312 15.508 -19.312 16.188 C-19.972 16.188 -20.632 16.188 -21.312 16.188 C-21.467 16.497 -21.467 16.497 -22.25 18.062 C-24.26 22.083 -25.067 22.526 -29.312 24.188 C-34.926 26.794 -37.349 29.116 -40.27 34.578 C-40.614 35.109 -40.958 35.64 -41.312 36.188 C-41.972 36.188 -42.633 36.188 -43.312 36.188 C-43.863 31.048 -43.759 28.209 -40.625 24 C-35.414 17.603 -29.312 12.775 -22.688 7.938 C-21.829 7.301 -20.97 6.664 -20.086 6.008 C-13.019 0.818 -8.666 0.006 0 0 Z " fill="#FDE630" transform="translate(95.3125,35.8125)"/>
<path d="M0 0 C0.33 0 0.66 0 1 0 C2.144 33.466 -8.993 61.15 -30 87 C-30.773 87.959 -31.547 88.918 -32.344 89.906 C-39.502 98.309 -49.396 108.078 -60.844 109.305 C-67.465 109.583 -71.695 109.037 -77 105 C-77.66 104.01 -78.32 103.02 -79 102 C-78.835 101.67 -78.835 101.67 -78 100 C-76.762 100.33 -75.525 100.66 -74.25 101 C-65.551 102.841 -58.658 103.54 -50.938 98.562 C-50.06 97.924 -49.182 97.286 -48.277 96.629 C-46 95 -46 95 -43 94 C-42.311 92.678 -41.646 91.344 -41 90 C-39.52 88.613 -39.52 88.613 -37.812 87.312 C-30.71 81.416 -26.186 73.874 -21.695 65.91 C-20.18 63.309 -18.557 60.888 -16.812 58.438 C-13.533 53.623 -11.816 48.498 -10 43 C-9.507 41.706 -9.007 40.414 -8.5 39.125 C-6.737 34.481 -5.37 29.715 -3.965 24.953 C-3 22 -3 22 -1.966 20.086 C-0.91 17.805 -0.693 16.171 -0.586 13.672 C-0.547 12.873 -0.509 12.073 -0.469 11.25 C-0.438 10.425 -0.407 9.6 -0.375 8.75 C-0.336 7.91 -0.298 7.069 -0.258 6.203 C-0.164 4.136 -0.081 2.068 0 0 Z " fill="#689704" transform="translate(247,82)"/>
<path d="M0 0 C0.33 0 0.66 0 1 0 C1.2 4.104 1.382 8.208 1.562 12.312 C1.591 12.886 1.591 12.886 1.732 15.791 C2.14 25.388 2.415 34.674 -1.312 43.688 C-1.757 44.777 -2.202 45.866 -2.66 46.988 C-4.066 50.149 -5.623 53.192 -7.242 56.246 C-8 58 -8 58 -8.375 61.438 C-9.43 67.453 -13.372 73.004 -18 77 C-18.66 77 -19.32 77 -20 77 C-20.227 77.516 -20.454 78.031 -20.688 78.562 C-22.154 81.285 -23.894 83.66 -25.727 86.145 C-27 88 -27 88 -28.75 91.5 C-30.937 95.496 -34.236 97.793 -37.879 100.422 C-40 102 -40 102 -41.652 103.703 C-43 105 -43 105 -45 105 C-45 105.66 -45 106.32 -45 107 C-51.356 110.715 -56.556 113.158 -64 112 C-67.062 111 -67.062 111 -69 110 C-69 109.34 -69 108.68 -69 108 C-68.394 107.986 -67.788 107.972 -67.164 107.957 C-53.7 107.191 -43.345 99.033 -34.494 89.353 C-31.099 85.402 -28.004 81.252 -25 77 C-24.598 76.434 -24.196 75.868 -23.782 75.285 C-10.34 56.085 -1.361 34.103 -0.438 10.625 C-0.416 10.114 -0.416 10.114 -0.307 7.527 C-0.201 5.018 -0.099 2.509 0 0 Z " fill="#C4B67A" transform="translate(248,83)"/>
<path d="M0 0 C2.84 0.713 3.669 1.504 5.566 3.645 C6.556 3.975 7.546 4.305 8.566 4.645 C9.102 11.07 8.737 16.469 4.566 21.645 C0.94 24.437 -2.492 25.512 -6.996 26.145 C-12.158 25.394 -15.535 23.365 -19.434 19.832 C-20.959 16.494 -20.228 14.178 -19.434 10.645 C-14.427 2.929 -9.187 -0.515 0 0 Z " fill="#F6F0D1" transform="translate(198.43359375,80.35546875)"/>
<path d="M0 0 C0.33 0.66 0.66 1.32 1 2 C0.365 3.679 -0.307 5.344 -1 7 C-1.356 8.662 -1.692 10.328 -2 12 C-2.33 12.99 -2.66 13.98 -3 15 C-1.68 15.33 -0.36 15.66 1 16 C1 16.66 1 17.32 1 18 C0.01 18.33 -0.98 18.66 -2 19 C-2 18.34 -2 17.68 -2 17 C-2.99 17 -3.98 17 -5 17 C-4.918 17.474 -4.918 17.474 -4.5 19.875 C-4 23 -4 23 -4 25 C-3.34 25.33 -2.68 25.66 -2 26 C-2 29.63 -2 33.26 -2 37 C-2.33 37.165 -2.33 37.165 -4 38 C-3.453 41.375 -2.945 43.082 -1 46 C-1.66 46.578 -2.32 47.155 -3 47.75 C-5 50 -5 50 -5 54 C-4.34 54.33 -3.68 54.66 -3 55 C-3.351 55.557 -3.701 56.114 -4.062 56.688 C-5.241 59.594 -4.734 60.993 -4 64 C-3.963 65.666 -3.952 67.334 -4 69 C-4.66 69 -5.32 69 -6 69 C-6 69.66 -6 70.32 -6 71 C-5.34 71.33 -4.68 71.66 -4 72 C-4.313 76.121 -4.753 80.049 -6 84 C-8.282 85.913 -10.046 86.209 -13 87 C-13.66 87.99 -14.32 88.98 -15 90 C-17.125 91.188 -17.125 91.188 -19 92 C-18.505 91.835 -18.505 91.835 -16 91 C-16.75 92.938 -16.75 92.938 -18 95 C-20.062 95.625 -20.062 95.625 -22 96 C-22.165 96.33 -22.165 96.33 -23 98 C-23.66 98 -24.32 98 -25 98 C-25.33 97.01 -25.33 97.01 -27 92 C-27.33 95.96 -27.66 99.92 -28 104 C-27.34 104 -26.68 104 -26 104 C-26 104.66 -26 105.32 -26 106 C-24.68 106 -23.36 106 -22 106 C-22 106.66 -22 107.32 -22 108 C-21.34 108.33 -20.68 108.66 -20 109 C-21.668 108.676 -23.335 108.341 -25 108 C-25.742 107.856 -26.485 107.711 -27.25 107.562 C-27.539 107.47 -27.539 107.47 -29 107 C-31.586 101.829 -30.767 92.841 -29.281 87.336 C-27.92 84.404 -26.221 82.208 -23.875 80 C-20.247 78.738 -17.117 78.818 -13.305 78.992 C-11 79 -11 79 -8 78 C-8 56.55 -8 35.1 -8 13 C-6.68 13 -5.36 13 -4 13 C-4.204 12.426 -4.407 11.853 -4.617 11.262 C-5.097 8.424 -4.485 7.312 -3.125 4.812 C-2.941 4.465 -2.941 4.465 -2.008 2.707 C-1 1 -1 1 0 0 Z " fill="#FDE224" transform="translate(88,72)"/>
<path d="M0 0 C4.765 3.232 6.814 6.71 9.25 11.75 C9.601 12.428 9.951 13.106 10.312 13.805 C14.865 23.014 13.946 31.508 13.062 41.5 C13.013 42.102 13.013 42.102 12.76 45.148 C12.514 48.1 12.26 51.05 12 54 C11.34 54 10.68 54 10 54 C9.843 54.531 9.843 54.531 9.047 57.219 C6.858 64.49 4.659 71.313 1 78 C0.711 78.763 0.423 79.526 0.125 80.312 C-1.226 83.539 -2.956 86.349 -4.812 89.312 C-5.172 89.887 -5.532 90.462 -5.902 91.054 C-6.934 92.703 -7.967 94.351 -9 96 C-9.447 96.75 -9.895 97.5 -10.355 98.273 C-13.703 103.871 -17.559 109.216 -22 114 C-22.66 114 -23.32 114 -24 114 C-24.165 114.495 -24.165 114.495 -25 117 C-30.639 123.092 -38.763 130.139 -47.09 131.508 C-53.043 131.613 -58.293 130.557 -64 129 C-64.99 129.33 -65.98 129.66 -67 130 C-67.33 128.68 -67.66 127.36 -68 126 C-67.615 126.042 -67.615 126.042 -65.664 126.254 C-64.661 126.356 -63.658 126.458 -62.625 126.562 C-61.627 126.667 -60.63 126.771 -59.602 126.879 C-57 127 -57 127 -55 126 C-55 126.66 -55 127.32 -55 128 C-48.279 127.421 -42.401 126.134 -36 124 C-36 123.34 -36 122.68 -36 122 C-35.34 122 -34.68 122 -34 122 C-33.835 121.34 -33.835 121.34 -33 118 C-32.01 118 -31.02 118 -30 118 C-30 117.34 -30 116.68 -30 116 C-29.34 116 -28.68 116 -28 116 C-28 115.34 -28 114.68 -28 114 C-27.34 114 -26.68 114 -26 114 C-26 113.34 -26 112.68 -26 112 C-25.01 112 -24.02 112 -23 112 C-22.835 111.34 -22.835 111.34 -22 108 C-21.34 108 -20.68 108 -20 108 C-20 107.34 -20 106.68 -20 106 C-19.34 106 -18.68 106 -18 106 C-17.711 105.257 -17.423 104.515 -17.125 103.75 C-14.5 97.333 -14.5 97.333 -11 95 C-9.812 92.375 -9.812 92.375 -9 90 C-8.34 90 -7.68 90 -7 90 C-6.807 89.408 -6.613 88.817 -6.414 88.207 C-5.056 84.085 -3.679 80.005 -2 76 C-1.34 76 -0.68 76 0 76 C0.131 75.288 0.263 74.577 0.398 73.844 C1.198 70.064 2.346 66.411 3.477 62.719 C4 60 4 60 3.398 57.344 C3.333 56.957 3.333 56.957 3 55 C3.966 53.967 4.969 52.968 6 52 C6.477 49.59 6.477 49.59 6.625 46.938 C6.92 42.161 6.92 42.161 8 40 C8.66 40 9.32 40 10 40 C9.044 28.567 9.044 28.567 8 23 C7.928 22.566 7.928 22.566 7.562 20.371 C7.397 19.403 7.233 18.435 7.062 17.438 C6.909 16.529 6.756 15.62 6.598 14.684 C5.427 9.426 3.368 6.154 0 2 C0 1.34 0 0.68 0 0 Z " fill="#80AF0F" transform="translate(234,54)"/>
<path d="M0 0 C3.058 3.058 2.368 6.592 2.375 10.688 C2.399 11.478 2.424 12.269 2.449 13.084 C2.477 18.645 1.707 22.738 -2 27 C-8.132 31.544 -14.539 31.587 -21.91 31.531 C-23.036 31.535 -24.163 31.539 -25.323 31.543 C-27.694 31.546 -30.065 31.538 -32.436 31.521 C-36.055 31.5 -39.672 31.521 -43.291 31.547 C-45.602 31.544 -47.912 31.539 -50.223 31.531 C-51.299 31.539 -52.375 31.547 -53.484 31.556 C-59.875 31.476 -63.794 30.789 -69 27 C-72 23.71 -72 23.71 -72 21 C-69.038 21.613 -67.619 22.254 -65 24 C-62.509 24.267 -62.509 24.267 -59.506 24.291 C-58.944 24.297 -58.944 24.297 -56.098 24.329 C-54.882 24.331 -53.667 24.334 -52.414 24.336 C-51.165 24.343 -49.916 24.349 -48.629 24.356 C-45.984 24.366 -43.34 24.372 -40.695 24.371 C-37.313 24.37 -33.932 24.398 -30.551 24.432 C-27.318 24.46 -24.085 24.459 -20.852 24.461 C-19.64 24.475 -18.428 24.49 -17.18 24.504 C-16.049 24.498 -14.918 24.492 -13.752 24.486 C-12.76 24.489 -11.768 24.492 -10.745 24.494 C-7.234 23.862 -5.548 22.447 -3 20 C-2.109 17.773 -2.109 17.773 -1.75 15.375 C-1.613 14.509 -1.477 13.643 -1.336 12.75 C-0.817 8.505 -0.345 4.263 0 0 Z " fill="#B98813" transform="translate(132,158)"/>
<path d="M0 0 C1.284 2.311 1.997 3.972 2.312 6.625 C2.539 7.409 2.766 8.192 3 9 C3.763 9.268 4.526 9.536 5.312 9.812 C8.459 11.203 8.597 11.793 9.938 14.812 C11.895 19.205 14.164 21.143 18 24 C19.018 24.982 20.025 25.976 21 27 C21.66 27.66 22.32 28.32 23 29 C23 29.66 23 30.32 23 31 C25.491 31.687 27.379 32 30 32 C30.887 32.33 31.774 32.66 32.688 33 C36.691 34.208 39.835 34.144 44 34 C44 34.66 44 35.32 44 36 C45.258 36.144 46.516 36.289 47.812 36.438 C50.427 36.737 52.474 37.158 55 38 C54.625 40.438 54.625 40.438 54 43 C47.922 46.039 38.281 43.757 32 42 C18.895 36.992 9.46 28.418 3 16 C0.581 10.575 -0.378 5.92 0 0 Z " fill="#72A404" transform="translate(137,98)"/>
<path d="M0 0 C0 0.66 0 1.32 0 2 C-0.66 2 -1.32 2 -2 2 C-2 2.99 -2 3.98 -2 5 C-2.722 4.752 -3.444 4.505 -4.188 4.25 C-7 4 -7 4 -9.75 5.812 C-12 8 -12 8 -13 10 C-13.66 10 -14.32 10 -15 10 C-15.33 10.99 -15.66 11.98 -16 13 C-16.784 13.103 -17.567 13.206 -18.375 13.312 C-21 14 -21 14 -23 17 C-22.67 17.99 -22.34 18.98 -22 20 C-22.99 20 -23.98 20 -25 20 C-25.289 20.578 -25.577 21.155 -25.875 21.75 C-26.246 22.493 -26.618 23.235 -27 24 C-27.33 24.722 -27.66 25.444 -28 26.188 C-29 28 -29 28 -31 29 C-30.835 29.743 -30.67 30.485 -30.5 31.25 C-30 34 -30 34 -30 38 C-29.34 38.33 -28.68 38.66 -28 39 C-28.33 39.928 -28.66 40.856 -29 41.812 C-30 45 -30 45 -30 48 C-30.66 48 -31.32 48 -32 48 C-31.67 49.65 -31.34 51.3 -31 53 C-32.32 53.66 -33.64 54.32 -35 55 C-34.67 56.65 -34.34 58.3 -34 60 C-35.32 60 -36.64 60 -38 60 C-41.582 54.415 -41.356 49.517 -41.188 43.125 C-41.174 42.15 -41.16 41.176 -41.146 40.172 C-41.111 37.781 -41.062 35.391 -41 33 C-40.67 33 -40.34 33 -40 33 C-40 36.3 -40 39.6 -40 43 C-38.68 43 -37.36 43 -36 43 C-36.204 42.17 -36.407 41.34 -36.617 40.484 C-37.067 36.39 -36.276 33.131 -35.125 29.25 C-34.938 28.578 -34.751 27.907 -34.559 27.215 C-33.852 24.714 -33.165 22.33 -32 20 C-31.34 20 -30.68 20 -30 20 C-30 19.34 -30 18.68 -30 18 C-29.34 18 -28.68 18 -28 18 C-27.938 17.443 -27.876 16.886 -27.812 16.312 C-25.623 10.082 -18.523 6.115 -13 3 C-8.529 1.083 -4.889 0 0 0 Z " fill="#9FD01B" transform="translate(180,42)"/>
<path d="M0 0 C0.66 0.33 1.32 0.66 2 1 C1.01 2.98 0.02 4.96 -1 7 C-1.66 7 -2.32 7 -3 7 C-2.625 8.938 -2.625 8.938 -2 11 C-1.34 11.33 -0.68 11.66 0 12 C-1.25 15.653 -1.671 16.781 -5 19 C-4.01 19.33 -3.02 19.66 -2 20 C-3.25 21.562 -3.25 21.562 -5 23 C-7.188 22.688 -7.188 22.688 -9 22 C-9.433 22.639 -9.866 23.279 -10.312 23.938 C-12 26 -12 26 -15 27 C-16.395 28.594 -16.395 28.594 -17.812 30.5 C-20.107 33.312 -20.725 33.924 -24.375 34.938 C-25.241 34.958 -26.107 34.979 -27 35 C-27 35.66 -27 36.32 -27 37 C-26.01 37 -25.02 37 -24 37 C-24 37.99 -24 38.98 -24 40 C-25.938 39.625 -25.938 39.625 -28 39 C-29.63 35.739 -29.53 32.523 -29 29 C-26.242 22.152 -19.568 14.236 -12.941 10.992 C-10.48 9.734 -9.232 8.141 -7.5 6 C-5.23 3.194 -3.444 1.242 0 0 Z " fill="#9CCD19" transform="translate(193,141)"/>
<path d="M0 0 C0.165 0.33 0.165 0.33 1 2 C0.059 4.29 -0.933 6.43 -2.062 8.625 C-2.223 8.941 -2.223 8.941 -3.032 10.539 C-5.245 14.803 -7.705 18.651 -10.73 22.395 C-12 24 -12 24 -13.562 26.75 C-15.308 29.482 -17.438 31.045 -20 33 C-20.165 33.33 -20.165 33.33 -21 35 C-21.722 35.412 -22.444 35.825 -23.188 36.25 C-26 38 -26 38 -28.75 40.875 C-31.743 44 -35.018 45.867 -38.852 47.824 C-41 49 -41 49 -43.055 50.629 C-46 52.705 -48.489 52.251 -52 52 C-54.437 51.5 -54.437 51.5 -56 51 C-56 50.34 -56 49.68 -56 49 C-56.619 48.856 -56.619 48.856 -59.75 48.125 C-62.724 47.387 -65.334 46.555 -68 45 C-68 44.01 -68 43.02 -68 42 C-68.66 42 -69.32 42 -70 42 C-70.66 40.35 -71.32 38.7 -72 37 C-68.05 37 -67.02 38.555 -64 41 C-61.187 42.25 -61.187 42.25 -59 43 C-59 43.66 -59 44.32 -59 45 C-51.502 46.935 -45.358 46.79 -38.629 42.875 C-37 42 -37 42 -35 42 C-35 41.34 -35 40.68 -35 40 C-33.321 38.504 -31.58 37.077 -29.812 35.688 C-24.164 31.234 -19.489 27.204 -16.023 20.828 C-13.527 16.37 -10.911 12.744 -6.938 9.5 C-3.485 6.562 -2.042 4.005 0 0 Z " fill="#E0D3A6" transform="translate(238,148)"/>
<path d="M0 0 C3.918 3.747 3.918 3.747 4.123 6.87 C4.122 7.635 4.121 8.4 4.12 9.189 C4.122 10.067 4.123 10.944 4.124 11.849 C4.121 12.814 4.117 13.779 4.114 14.774 C4.114 15.789 4.114 16.803 4.114 17.849 C4.113 21.214 4.105 24.58 4.098 27.945 C4.096 30.274 4.094 32.603 4.093 34.932 C4.09 41.071 4.08 47.209 4.069 53.348 C4.058 59.608 4.054 65.869 4.049 72.129 C4.038 84.419 4.021 96.71 4 109 C3.34 109 2.68 109 2 109 C1.236 106.271 0.867 103.822 0.835 100.991 C0.824 100.203 0.813 99.415 0.801 98.604 C0.794 97.748 0.786 96.893 0.779 96.012 C0.767 95.104 0.756 94.197 0.744 93.261 C0.707 90.26 0.678 87.259 0.648 84.258 C0.625 82.17 0.602 80.083 0.578 77.996 C0.53 73.619 0.485 69.243 0.442 64.867 C0.388 59.262 0.324 53.658 0.257 48.054 C0.207 43.742 0.162 39.43 0.118 35.119 C0.097 33.053 0.074 30.987 0.049 28.921 C0.015 26.029 -0.012 23.138 -0.038 20.247 C-0.043 19.821 -0.043 19.821 -0.072 17.667 C-0.103 13.306 0.222 9.307 1 5 C0.562 2.125 0.562 2.125 0 0 Z " fill="#D79E0C" transform="translate(114,41)"/>
<path d="M0 0 C0.486 -0.006 0.486 -0.006 2.943 -0.037 C3.407 -0.038 3.407 -0.038 5.754 -0.043 C6.179 -0.045 6.179 -0.045 8.33 -0.055 C10.438 0.188 10.438 0.188 12.438 2.188 C12.062 4.312 12.062 4.312 11.438 6.188 C6.688 6.312 6.688 6.312 4.438 5.188 C3.778 5.517 3.118 5.847 2.438 6.188 C0.585 6.318 -1.27 6.417 -3.125 6.5 C-13.412 7.322 -19.772 11.761 -27.562 18.188 C-28.46 18.877 -29.357 19.567 -30.281 20.277 C-31.178 20.97 -32.076 21.662 -33 22.375 C-33.824 23.008 -34.647 23.641 -35.496 24.293 C-37.544 26.171 -38.527 27.636 -39.562 30.188 C-40.222 30.188 -40.883 30.188 -41.562 30.188 C-40.773 23.242 -37.607 19.762 -32.562 15.188 C-29.416 12.685 -26.184 10.308 -22.938 7.938 C-22.079 7.301 -21.22 6.664 -20.336 6.008 C-13.191 0.761 -8.765 0.006 0 0 Z " fill="#FDE736" transform="translate(95.5625,35.8125)"/>
<path d="M0 0 C2.61 2.61 2.638 4.375 3 8 C2.672 9.335 2.338 10.668 2 12 C1.926 13.386 1.902 14.775 1.918 16.164 C1.925 16.985 1.932 17.807 1.939 18.653 C1.952 19.546 1.965 20.439 1.978 21.358 C1.988 22.305 1.997 23.252 2.007 24.227 C2.04 27.355 2.081 30.482 2.121 33.609 C2.145 35.778 2.169 37.947 2.193 40.117 C2.255 45.824 2.325 51.532 2.395 57.24 C2.466 63.065 2.53 68.89 2.596 74.715 C2.725 86.143 2.86 97.572 3 109 C3.99 109.33 4.98 109.66 6 110 C4.35 110 2.7 110 1 110 C-0.913 102.78 -1.274 96.137 -1.188 88.688 C-1.187 87.617 -1.186 86.546 -1.186 85.443 C-1.161 81.097 -1.102 77.211 0 73 C-0.086 71.017 -0.24 69.037 -0.438 67.062 C-1.129 59.081 -1.592 51.077 -0.438 43.125 C0 40 0 40 -0.5 36.5 C-1.037 32.743 -0.682 29.715 0 26 C-0.33 26 -0.66 26 -1 26 C-1.029 21.854 -1.047 17.708 -1.062 13.562 C-1.071 12.378 -1.079 11.194 -1.088 9.975 C-1.091 8.85 -1.094 7.725 -1.098 6.566 C-1.103 5.524 -1.108 4.482 -1.114 3.408 C-1 1 -1 1 0 0 Z " fill="#F6C804" transform="translate(113,41)"/>
<path d="M0 0 C0.33 0 0.66 0 1 0 C2.884 13.433 2.884 13.433 -0.75 19.414 C-3.069 22.356 -5.673 24.337 -9 26 C-10.562 26.095 -12.128 26.128 -13.693 26.129 C-14.181 26.131 -14.181 26.131 -16.646 26.139 C-17.174 26.138 -17.174 26.138 -19.844 26.133 C-20.384 26.133 -20.384 26.133 -23.117 26.136 C-25.403 26.136 -27.69 26.135 -29.976 26.13 C-33.485 26.125 -36.995 26.13 -40.504 26.137 C-42.721 26.136 -44.939 26.135 -47.156 26.133 C-48.211 26.135 -49.267 26.137 -50.354 26.139 C-51.328 26.136 -52.303 26.133 -53.307 26.129 C-54.167 26.129 -55.027 26.128 -55.913 26.127 C-58 26 -58 26 -60 25 C-59.67 24.01 -59.34 23.02 -59 22 C-58.429 21.996 -57.858 21.993 -57.27 21.989 C-51.299 21.947 -45.329 21.878 -39.359 21.792 C-37.134 21.764 -34.909 21.743 -32.684 21.729 C-29.476 21.707 -26.27 21.661 -23.062 21.609 C-22.076 21.608 -21.089 21.607 -20.072 21.606 C-13.954 21.477 -9.068 20.608 -4 17 C-0.224 12.005 -0.313 6.056 0 0 Z " fill="#CDB47B" transform="translate(134,167)"/>
<path d="M0 0 C0.825 0.165 0.825 0.165 5 1 C4.67 1.165 4.67 1.165 3 2 C3.083 2.474 3.083 2.474 3.5 4.875 C4 8 4 8 4 10 C3.67 10.165 3.67 10.165 2 11 C2 11.99 2 12.98 2 14 C-0.146 17.034 -1.89 18.927 -5 21 C-4.34 21.33 -3.68 21.66 -3 22 C-3 22.66 -3 23.32 -3 24 C-3.99 24.66 -4.98 25.32 -6 26 C-7.051 27.635 -8.06 29.299 -9 31 C-9.33 30.34 -9.66 29.68 -10 29 C-12.062 28.375 -12.062 28.375 -14 28 C-13.34 27.01 -12.68 26.02 -12 25 C-12 24.34 -12 23.68 -12 23 C-12.552 23.388 -13.103 23.776 -13.672 24.176 C-16 25 -16 25 -18.578 23.918 C-19.46 23.347 -20.342 22.776 -21.25 22.188 C-22.142 21.624 -23.034 21.061 -23.953 20.48 C-24.629 19.992 -25.304 19.503 -26 19 C-26 18.67 -26 18.34 -26 18 C-25.313 17.951 -24.626 17.902 -23.918 17.852 C-23.017 17.777 -22.116 17.702 -21.188 17.625 C-20.294 17.555 -19.401 17.486 -18.48 17.414 C-16 17 -16 17 -13 15 C-12.423 14.907 -12.423 14.907 -9.5 14.438 C-6 13 -6 13 -4.879 10.871 C-4.134 8.593 -3.506 6.342 -3 4 C-2.34 4 -1.68 4 -1 4 C-0.67 2.68 -0.34 1.36 0 0 Z " fill="#A3D420" transform="translate(211,89)"/>
<path d="M0 0 C0.516 0.681 1.031 1.361 1.562 2.062 C11.135 13.598 22.369 20.47 37.375 22.125 C38.111 22.211 38.847 22.298 39.605 22.387 C41.403 22.597 43.201 22.799 45 23 C44.094 24.299 43.175 25.589 42.25 26.875 C41.995 27.235 41.995 27.235 40.703 29.055 C38.925 31.086 37.473 31.979 35 33 C34.34 32.34 33.68 31.68 33 31 C31.845 30.711 30.69 30.423 29.5 30.125 C28.345 29.754 27.19 29.382 26 29 C25.704 28.376 25.407 27.752 25.102 27.109 C23.585 24.206 21.786 23.56 18.875 22.125 C5.745 15.283 5.745 15.283 4.289 10.82 C4.194 10.22 4.098 9.619 4 9 C3.34 9 2.68 9 2 9 C2 8.01 2 7.02 2 6 C1.34 6 0.68 6 0 6 C-0.382 4.344 -0.714 2.675 -1 1 C-0.67 0.67 -0.34 0.34 0 0 Z " fill="#E1D8A8" transform="translate(143,119)"/>
<path d="M0 0 C4.322 3.324 6.586 7.28 7.406 12.668 C7.438 15.125 7.438 15.125 7 19 C5 17 5 17 3.188 13.562 C1.238 10.161 -0.205 8.403 -4 7 C-8.99 6.331 -12.823 6.465 -17.438 8.562 C-23.197 14.041 -23.558 20.43 -24 28 C-27.158 21.685 -28.158 16.86 -26.062 9.875 C-19.463 0.675 -11.328 -2.841 0 0 Z " fill="#5E8E01" transform="translate(201,68)"/>
<path d="M0 0 C0.33 0 0.66 0 1 0 C3.048 20.267 3.252 40.355 3.137 60.698 C3.116 64.809 3.108 68.92 3.098 73.031 C3.077 81.021 3.043 89.01 3 97 C2.01 97 1.02 97 0 97 C0 64.99 0 32.98 0 0 Z " fill="#D3BC81" transform="translate(118,53)"/>
<path d="M0 0 C0.66 0 1.32 0 2 0 C-1.168 10.296 -6.262 18.926 -12 28 C-12.222 28.373 -12.222 28.373 -13.348 30.258 C-16.695 35.863 -20.555 41.212 -25 46 C-25.66 46 -26.32 46 -27 46 C-27.33 46.99 -27.66 47.98 -28 49 C-33.639 55.092 -41.763 62.139 -50.09 63.508 C-56.043 63.613 -61.293 62.557 -67 61 C-67.495 61.165 -67.495 61.165 -70 62 C-70.33 60.68 -70.66 59.36 -71 58 C-70.229 58.084 -69.458 58.168 -68.664 58.254 C-67.661 58.356 -66.658 58.458 -65.625 58.562 C-64.627 58.667 -63.63 58.771 -62.602 58.879 C-60 59 -60 59 -58 58 C-58 58.66 -58 59.32 -58 60 C-51.279 59.421 -45.401 58.134 -39 56 C-39 55.34 -39 54.68 -39 54 C-38.34 54 -37.68 54 -37 54 C-36.67 52.68 -36.34 51.36 -36 50 C-35.01 50 -34.02 50 -33 50 C-33 49.34 -33 48.68 -33 48 C-32.34 48 -31.68 48 -31 48 C-31 47.34 -31 46.68 -31 46 C-30.34 46 -29.68 46 -29 46 C-29 45.34 -29 44.68 -29 44 C-28.01 44 -27.02 44 -26 44 C-25.67 42.68 -25.34 41.36 -25 40 C-24.34 40 -23.68 40 -23 40 C-23 39.34 -23 38.68 -23 38 C-22.34 38 -21.68 38 -21 38 C-20.856 37.629 -20.856 37.629 -20.125 35.75 C-17.5 29.333 -17.5 29.333 -14 27 C-12.812 24.375 -12.812 24.375 -12 22 C-11.34 22 -10.68 22 -10 22 C-9.807 21.408 -9.613 20.817 -9.414 20.207 C-8.056 16.085 -6.679 12.005 -5 8 C-4.34 8 -3.68 8 -3 8 C-2.938 7.618 -2.938 7.618 -2.625 5.688 C-2 3 -2 3 0 0 Z " fill="#7BB003" transform="translate(237,122)"/>
<path d="M0 0 C0.33 0 0.66 0 1 0 C1.535 15.641 1.124 29.379 -5 44 C-5.66 44 -6.32 44 -7 44 C-7.169 44.553 -7.337 45.106 -7.511 45.677 C-9.258 51.182 -11.398 56.226 -14.125 61.312 C-14.319 61.676 -14.319 61.676 -15.299 63.518 C-24.412 80.206 -24.412 80.206 -30 83 C-29.852 82.71 -29.852 82.71 -29.102 81.242 C-28.111 79.225 -27.238 77.199 -26.375 75.125 C-24.462 70.785 -22.22 66.679 -19.875 62.562 C-19.526 61.947 -19.177 61.332 -18.818 60.698 C-17.372 58.191 -16.055 56.055 -14 54 C-13.299 52.314 -12.661 50.601 -12.062 48.875 C-10.915 45.606 -9.762 42.351 -8.5 39.125 C-6.737 34.481 -5.37 29.715 -3.965 24.953 C-3 22 -3 22 -1.966 20.086 C-0.91 17.805 -0.693 16.171 -0.586 13.672 C-0.547 12.873 -0.509 12.073 -0.469 11.25 C-0.438 10.425 -0.407 9.6 -0.375 8.75 C-0.336 7.91 -0.298 7.069 -0.258 6.203 C-0.164 4.136 -0.081 2.068 0 0 Z " fill="#6D9C06" transform="translate(247,82)"/>
<path d="M0 0 C7.536 9.081 5.259 23.973 5.195 35.105 C5.192 37.04 5.189 38.975 5.187 40.91 C5.179 45.968 5.16 51.027 5.137 56.085 C5.117 61.261 5.108 66.436 5.098 71.611 C5.076 81.741 5.042 91.87 5 102 C3.68 101.67 2.36 101.34 1 101 C1.66 101 2.32 101 3 101 C2.914 92.261 2.819 83.522 2.712 74.783 C2.663 70.721 2.617 66.659 2.578 62.598 C2.375 41.661 1.678 20.875 0 0 Z " fill="#E7D5A5" transform="translate(118,49)"/>
<path d="M0 0 C3.88 1.975 6.881 4.136 9 8 C8.67 8.99 8.34 9.98 8 11 C6.68 10.34 5.36 9.68 4 9 C4 8.34 4 7.68 4 7 C-1.433 6.77 -6.154 6.678 -10.695 9.93 C-14.132 13.389 -17.116 17.074 -20 21 C-20.369 14.975 -20.183 10.339 -17 5 C-12.237 -0.226 -6.839 -1.23 0 0 Z " fill="#BBAF70" transform="translate(197,74)"/>
<path d="M0 0 C0.99 0.66 1.98 1.32 3 2 C3.981 8.668 3.825 17.779 1 24 C-1.772 27.207 -3.504 28.752 -7.731 29.452 C-11.159 29.612 -14.553 29.614 -17.984 29.559 C-19.236 29.556 -20.488 29.554 -21.778 29.552 C-24.418 29.542 -27.056 29.523 -29.696 29.487 C-33.081 29.442 -36.465 29.427 -39.851 29.423 C-43.083 29.418 -46.315 29.394 -49.547 29.371 C-50.765 29.366 -51.982 29.36 -53.237 29.355 C-54.358 29.339 -55.48 29.323 -56.636 29.306 C-57.626 29.296 -58.616 29.285 -59.636 29.274 C-62 29 -62 29 -64 27 C-55.375 26.04 -46.795 25.89 -38.125 25.875 C-37.044 25.87 -35.962 25.866 -34.848 25.861 C-26.178 25.877 -26.178 25.877 -21.895 26.566 C-18.762 27.036 -17.581 26.755 -15 25 C-14.67 25.33 -14.34 25.66 -14 26 C-6.01 26.452 -6.01 26.452 -3 24 C-1.812 21.125 -1.812 21.125 -1 18 C-0.82 17.425 -0.639 16.85 -0.453 16.258 C0.186 13.071 0.093 9.996 0.062 6.75 C0.053 5.487 0.044 4.223 0.035 2.922 C0.024 1.958 0.012 0.993 0 0 Z " fill="#F5C303" transform="translate(129,154)"/>
<path d="M0 0 C0.66 0 1.32 0 2 0 C3.01 17.04 3.01 17.04 -3 24 C-5.241 26.48 -7.025 27.853 -10.372 28.357 C-13.389 28.48 -16.38 28.475 -19.398 28.426 C-20.507 28.422 -21.615 28.419 -22.757 28.416 C-26.297 28.4 -29.836 28.356 -33.375 28.312 C-35.75 28.301 -38.125 28.291 -40.5 28.283 C-42.779 28.27 -45.057 28.255 -47.336 28.238 C-48.4 28.231 -49.463 28.224 -50.559 28.216 C-55.804 28.149 -60.832 27.905 -66 27 C-66.33 26.01 -66.66 25.02 -67 24 C-67.66 24 -68.32 24 -69 24 C-70.625 22.625 -70.625 22.625 -72 21 C-72 20.34 -72 19.68 -72 19 C-70.667 19.333 -69.333 19.667 -68 20 C-67.294 20.177 -66.587 20.353 -65.859 20.535 C-63.906 21.023 -61.953 21.512 -60 22 C-60.33 22.99 -60.66 23.98 -61 25 C-53.847 25.102 -46.694 25.172 -39.54 25.22 C-37.107 25.24 -34.675 25.267 -32.242 25.302 C-28.742 25.35 -25.243 25.373 -21.742 25.391 C-21.2 25.401 -21.2 25.401 -18.456 25.453 C-12.304 25.455 -8.677 25.128 -4 21 C1.183 15.027 0.408 7.442 0 0 Z " fill="#DECB9B" transform="translate(135,167)"/>
<path d="M0 0 C12.86 6.824 12.86 6.824 14.695 11.938 C15.19 15.285 15.41 17.385 13.5 20.25 C13.005 20.828 12.51 21.405 12 22 C12.66 22.33 13.32 22.66 14 23 C13.34 23.99 12.68 24.98 12 26 C11.34 26 10.68 26 10 26 C9.938 25.691 9.938 25.691 9.625 24.125 C9 22 9 22 7 20 C7 19.67 7 19.34 7 19 C5 22 5 22 4 25 C4 24.34 4 23.68 4 23 C3.34 23 2.68 23 2 23 C1.67 21.02 1.34 19.04 1 17 C1.99 16.67 2.98 16.34 4 16 C5.188 13.938 5.188 13.938 6 12 C4.68 11.67 3.36 11.34 2 11 C2.33 10.01 2.66 9.02 3 8 C2.01 7.67 1.02 7.34 0 7 C0 4.69 0 2.38 0 0 Z " fill="#9CD118" transform="translate(221,43)"/>
<path d="M0 0 C0.33 0 0.66 0 1 0 C1.2 4.104 1.382 8.208 1.562 12.312 C1.619 13.46 1.675 14.608 1.732 15.791 C2.147 25.539 2.336 34.825 -1.375 44 C-1.795 45.072 -2.215 46.145 -2.648 47.25 C-3.876 49.748 -4.895 51.227 -7 53 C-6.316 47.434 -6.316 47.434 -6 45 C-5.865 43.899 -5.729 42.798 -5.59 41.664 C-4.994 37.963 -4.047 34.535 -3 30.938 C-0.237 20.8 -0.168 10.448 0 0 Z M-8 53 C-6.54 57.379 -7.499 60.7 -9 65 C-11.416 69.391 -14.185 73.695 -18 77 C-18.66 77 -19.32 77 -20 77 C-18.717 73.668 -17.29 70.509 -15.617 67.355 C-15.172 66.514 -14.728 65.673 -14.27 64.807 C-14.039 64.374 -14.039 64.374 -12.875 62.188 C-12.407 61.304 -11.939 60.42 -11.457 59.51 C-10.307 57.339 -9.155 55.169 -8 53 Z " fill="#D2C48F" transform="translate(248,83)"/>
<path d="M0 0 C2.84 0.713 3.669 1.504 5.566 3.645 C6.556 3.975 7.546 4.305 8.566 4.645 C8.236 5.965 7.906 7.285 7.566 8.645 C6.576 7.985 5.586 7.325 4.566 6.645 C1.181 6.04 -1.994 5.645 -5.434 5.645 C-7.695 7.402 -7.695 7.402 -10.121 9.77 C-10.929 10.535 -11.738 11.301 -12.57 12.09 C-14.827 15.183 -14.808 16.9 -14.434 20.645 C-15.424 20.975 -16.414 21.305 -17.434 21.645 C-18.996 20.082 -18.996 20.082 -20.434 17.645 C-20.132 10.537 -17.416 7.383 -12.41 2.637 C-8.201 -0.181 -4.956 -0.278 0 0 Z " fill="#E9E0B6" transform="translate(198.43359375,80.35546875)"/>
<path d="M0 0 C6.239 -0.398 12.737 0.379 17.766 4.418 C19 6 19 6 19 9 C15.048 10.383 11.617 11.544 7.539 10.172 C6.015 9.413 4.514 8.607 3.043 7.75 C1 7 1 7 -1.074 7.875 C-1.71 8.246 -2.345 8.617 -3 9 C-3.99 9 -4.98 9 -6 9 C-8 7 -8 7 -9 5 C-9.99 5.33 -10.98 5.66 -12 6 C-12 5.34 -12 4.68 -12 4 C-12.66 3.67 -13.32 3.34 -14 3 C-9.05 3 -4.1 3 1 3 C0.67 2.01 0.34 1.02 0 0 Z " fill="#A5D526" transform="translate(200,37)"/>
<path d="M0 0 C0.66 0.33 1.32 0.66 2 1 C-3.912 13.956 -3.912 13.956 -10 17 C-8.68 12.318 -6.802 8.996 -3.875 5.125 C-3.151 4.158 -2.426 3.191 -1.68 2.195 C-1.125 1.471 -0.571 0.746 0 0 Z M-13 18 C-12.34 18.33 -11.68 18.66 -11 19 C-15.553 25.261 -21.619 31.316 -29 34 C-31.375 33.688 -31.375 33.688 -33 33 C-27.25 30 -27.25 30 -25 30 C-25 29.34 -25 28.68 -25 28 C-23.239 26.419 -21.416 24.908 -19.562 23.438 C-18.553 22.632 -17.544 21.826 -16.504 20.996 C-15.678 20.337 -14.851 19.679 -14 19 C-13.67 18.67 -13.34 18.34 -13 18 Z M-61 24 C-60.474 24.392 -60.474 24.392 -57.812 26.375 C-54.983 28.405 -52.327 29.891 -49 31 C-49 31.66 -49 32.32 -49 33 C-45.326 33.853 -41.955 34.108 -38.188 34.062 C-37.212 34.053 -36.236 34.044 -35.23 34.035 C-34.494 34.024 -33.758 34.012 -33 34 C-33.33 34.66 -33.66 35.32 -34 36 C-36.876 36.081 -39.749 36.141 -42.625 36.188 C-43.029 36.2 -43.029 36.2 -45.074 36.264 C-50.177 36.326 -53.531 35.755 -58 33 C-58 32.01 -58 31.02 -58 30 C-58.66 30 -59.32 30 -60 30 C-60.66 28.35 -61.32 26.7 -62 25 C-61.67 24.67 -61.34 24.34 -61 24 Z " fill="#D7C997" transform="translate(228,160)"/>
<path d="M0 0 C1.157 3.472 0.898 3.867 -0.59 7.027 C-0.958 7.814 -1.326 8.6 -1.705 9.41 C-1.909 9.827 -1.909 9.827 -2.938 11.938 C-3.35 12.793 -3.762 13.648 -4.187 14.529 C-9.508 25.34 -16.264 34.772 -24 44 C-24.614 44.761 -25.227 45.521 -25.859 46.305 C-32.838 54.638 -42.592 64.099 -53.844 65.305 C-60.465 65.583 -64.695 65.037 -70 61 C-70.66 60.01 -71.32 59.02 -72 58 C-68 60 -68 60 -66.277 61.043 C-60.617 63.422 -52.969 63.062 -47.258 61.02 C-45.039 59.806 -43.028 58.507 -41 57 C-40.01 56.299 -39.02 55.597 -38 54.875 C-36 53 -36 53 -35 50 C-34.01 50 -33.02 50 -32 50 C-31.917 49.381 -31.835 48.762 -31.75 48.125 C-30.756 45.309 -29.614 45.297 -27 44 C-14.244 32.481 -6.888 15.327 0 0 Z " fill="#5E7113" transform="translate(240,126)"/>
<path d="M0 0 C0.33 0.66 0.66 1.32 1 2 C0.365 3.679 -0.307 5.344 -1 7 C-1.356 8.662 -1.692 10.328 -2 12 C-2.33 12.99 -2.66 13.98 -3 15 C-1.68 15.33 -0.36 15.66 1 16 C1 16.66 1 17.32 1 18 C0.01 18.33 -0.98 18.66 -2 19 C-2 18.34 -2 17.68 -2 17 C-2.99 17 -3.98 17 -5 17 C-4.835 17.949 -4.67 18.898 -4.5 19.875 C-4 23 -4 23 -4 25 C-3.34 25.33 -2.68 25.66 -2 26 C-2 29.63 -2 33.26 -2 37 C-2.33 37.165 -2.33 37.165 -4 38 C-4 39.98 -4 41.96 -4 44 C-5.32 43.67 -6.64 43.34 -8 43 C-8 33.1 -8 23.2 -8 13 C-6.68 13 -5.36 13 -4 13 C-4.204 12.426 -4.407 11.853 -4.617 11.262 C-5.097 8.424 -4.485 7.312 -3.125 4.812 C-2.756 4.118 -2.388 3.423 -2.008 2.707 C-1 1 -1 1 0 0 Z " fill="#FCE229" transform="translate(88,72)"/>
<path d="M0 0 C1.65 0 3.3 0 5 0 C4.01 0.33 3.02 0.66 2 1 C2.66 2.32 3.32 3.64 4 5 C3.031 4.954 2.061 4.907 1.062 4.859 C-13.349 4.384 -26.842 6.665 -39 15 C-39.55 15.556 -40.101 16.111 -40.668 16.684 C-42 18 -42 18 -44 18 C-44.66 19.98 -45.32 21.96 -46 24 C-46.66 24 -47.32 24 -48 24 C-48 24.66 -48 25.32 -48 26 C-48.66 26 -49.32 26 -50 26 C-50.66 27.98 -51.32 29.96 -52 32 C-53 29 -53 29 -52.18 26.949 C-45.187 14.828 -45.187 14.828 -40.688 13.125 C-40.409 13.104 -40.409 13.104 -39 13 C-39 12.34 -39 11.68 -39 11 C-38.457 10.734 -37.915 10.469 -37.355 10.195 C-36.64 9.842 -35.925 9.489 -35.188 9.125 C-34.48 8.777 -33.772 8.429 -33.043 8.07 C-31 7 -31 7 -28 5 C-18.871 1.301 -9.648 1.695 0 2 C0 1.34 0 0.68 0 0 Z " fill="#BDE14C" transform="translate(198,36)"/>
<path d="M0 0 C0.66 0.66 1.32 1.32 2 2 C1.771 7.464 -0.664 11.641 -3.25 16.312 C-3.663 17.07 -4.075 17.828 -4.5 18.608 C-5.31 20.094 -6.123 21.577 -6.94 23.059 C-7.769 24.577 -8.568 26.112 -9.355 27.652 C-14.166 36.979 -20.847 46.628 -30 52 C-30.66 51.67 -31.32 51.34 -32 51 C-31.478 50.464 -30.956 49.928 -30.418 49.375 C-17.567 35.692 -5.362 18.143 0 0 Z " fill="#C2B677" transform="translate(241,126)"/>
<path d="M0 0 C0.66 0 1.32 0 2 0 C2.66 1.65 3.32 3.3 4 5 C4.846 4.835 5.691 4.67 6.562 4.5 C10.096 3.986 13.434 4 17 4 C19.006 3.708 21.01 3.388 23 3 C23 2.34 23 1.68 23 1 C23.99 1 24.98 1 26 1 C26 5.29 26 9.58 26 14 C25.67 13.34 25.34 12.68 25 12 C22.798 11.793 20.586 11.686 18.375 11.625 C12.312 11.261 8.74 10.812 4 7 C0 2.195 0 2.195 0 0 Z " fill="#DCA60E" transform="translate(51,81)"/>
<path d="M0 0 C0 0.66 0 1.32 0 2 C-0.66 2 -1.32 2 -2 2 C-2 2.99 -2 3.98 -2 5 C-2.722 4.752 -3.444 4.505 -4.188 4.25 C-7 4 -7 4 -9.75 5.812 C-12 8 -12 8 -13 10 C-13.66 10 -14.32 10 -15 10 C-15.33 10.99 -15.66 11.98 -16 13 C-16.763 13.082 -17.526 13.165 -18.312 13.25 C-21.555 14.155 -22.163 15.288 -24 18 C-24.66 18 -25.32 18 -26 18 C-26 18.66 -26 19.32 -26 20 C-27.875 22.125 -27.875 22.125 -30 24 C-30.66 24 -31.32 24 -32 24 C-32 24.66 -32 25.32 -32 26 C-32.66 26 -33.32 26 -34 26 C-33.34 24.02 -32.68 22.04 -32 20 C-31.34 20 -30.68 20 -30 20 C-30 19.34 -30 18.68 -30 18 C-29.34 18 -28.68 18 -28 18 C-27.938 17.443 -27.876 16.886 -27.812 16.312 C-25.623 10.082 -18.523 6.115 -13 3 C-8.529 1.083 -4.889 0 0 0 Z " fill="#ABD631" transform="translate(180,42)"/>
<path d="M0 0 C0.911 0.01 1.822 0.021 2.761 0.032 C3.747 0.038 4.733 0.045 5.75 0.051 C6.266 0.06 6.266 0.06 8.878 0.102 C9.919 0.111 10.959 0.12 12.031 0.129 C14.605 0.153 17.179 0.186 19.753 0.227 C19.918 0.557 19.918 0.557 20.753 2.227 C19.805 2.206 18.856 2.186 17.878 2.165 C14.753 2.227 14.753 2.227 12.753 3.227 C10.901 3.357 9.046 3.457 7.191 3.54 C-3.096 4.362 -9.456 8.8 -17.247 15.227 C-18.144 15.917 -19.041 16.606 -19.965 17.317 C-20.863 18.009 -21.76 18.701 -22.684 19.415 C-23.508 20.047 -24.332 20.68 -25.18 21.333 C-27.228 23.21 -28.211 24.675 -29.247 27.227 C-29.907 27.227 -30.567 27.227 -31.247 27.227 C-31.122 24.477 -31.122 24.477 -30.247 21.227 C-27.559 19.165 -27.559 19.165 -24.247 17.227 C-23.147 16.33 -22.063 15.413 -20.997 14.477 C-18.247 12.227 -18.247 12.227 -16.247 12.227 C-16.247 11.567 -16.247 10.907 -16.247 10.227 C-15.587 10.227 -14.927 10.227 -14.247 10.227 C-14.247 9.567 -14.247 8.907 -14.247 8.227 C-12.927 7.897 -11.607 7.567 -10.247 7.227 C-10.247 6.567 -10.247 5.907 -10.247 5.227 C-9.298 4.773 -8.349 4.32 -7.372 3.852 C-4.571 2.396 -3.056 0.309 0 0 Z " fill="#FDEE5B" transform="translate(85.24658203125,38.77294921875)"/>
<path d="M0 0 C0.433 0.227 0.433 0.227 2.625 1.375 C8.405 3.9 14.794 4.268 21 5 C21 8.96 21 12.92 21 17 C20.34 17 19.68 17 19 17 C19 16.34 19 15.68 19 15 C18.01 14.67 17.02 14.34 16 14 C16 13.01 16 12.02 16 11 C15.252 10.902 14.505 10.804 13.734 10.703 C5.7 9.483 5.7 9.483 2.375 7.188 C0.85 4.762 0.315 2.835 0 0 Z " fill="#EDDBB1" transform="translate(55,88)"/>
<path d="M0 0 C0.33 0 0.66 0 1 0 C2.884 13.433 2.884 13.433 -0.75 19.414 C-3.069 22.356 -5.673 24.337 -9 26 C-10.562 26.1 -12.128 26.138 -13.693 26.145 C-14.668 26.152 -15.642 26.158 -16.646 26.165 C-17.701 26.166 -18.757 26.167 -19.844 26.168 C-20.924 26.171 -22.004 26.175 -23.117 26.178 C-25.403 26.183 -27.69 26.185 -29.976 26.185 C-33.485 26.187 -36.995 26.206 -40.504 26.225 C-42.721 26.228 -44.939 26.23 -47.156 26.23 C-48.211 26.238 -49.267 26.245 -50.354 26.252 C-51.328 26.249 -52.303 26.246 -53.307 26.243 C-54.167 26.244 -55.027 26.246 -55.913 26.247 C-58 26 -58 26 -60 24 C-59.547 24.003 -59.547 24.003 -57.256 24.016 C-26.826 24.169 -26.826 24.169 -16.062 23.625 C-15.35 23.594 -14.637 23.563 -13.903 23.531 C-9.248 23.248 -9.248 23.248 -7 21 C-7 20.34 -7 19.68 -7 19 C-5.333 17.333 -3.667 15.667 -2 14 C-0.997 10.992 -0.697 8.462 -0.438 5.312 C-0.354 4.319 -0.27 3.325 -0.184 2.301 C-0.153 1.921 -0.153 1.921 0 0 Z " fill="#D4BD87" transform="translate(134,167)"/>
<path d="M0 0 C0 0.66 0 1.32 0 2 C-0.978 1.991 -1.957 1.982 -2.965 1.973 C-10.771 2.149 -16.239 2.743 -22.363 8.016 C-26.38 12.885 -26.539 17.959 -26 24 C-24.953 27.623 -23.288 30.044 -21 33 C-20.304 34.318 -19.628 35.648 -19 37 C-20.32 37 -21.64 37 -23 37 C-28.405 30.482 -29.64 23.217 -29.516 14.949 C-28.646 9.977 -25.879 7.062 -22 4 C-19.062 2.5 -19.062 2.5 -17 2 C-17 1.34 -17 0.68 -17 0 C-14.542 -0.194 -12.084 -0.381 -9.625 -0.562 C-8.926 -0.619 -8.228 -0.675 -7.508 -0.732 C-2.227 -1.113 -2.227 -1.113 0 0 Z " fill="#7EB503" transform="translate(201,66)"/>
<path d="M0 0 C0.66 0.33 1.32 0.66 2 1 C-0.004 5.641 -1.96 8.018 -6 11 C-8.862 13.715 -11.474 16.54 -14 19.562 C-16.424 22.436 -18.983 24.737 -22 27 C-22.66 27.66 -23.32 28.32 -24 29 C-24.048 23.795 -22.884 21.458 -19.254 17.703 C-17.705 16.203 -16.141 14.719 -14.562 13.25 C-12.999 11.757 -11.438 10.262 -9.879 8.766 C-9.531 8.44 -9.531 8.44 -7.772 6.79 C-6 5 -6 5 -4 2 C-2 0.75 -2 0.75 0 0 Z " fill="#B5DD3C" transform="translate(193,141)"/>
<path d="M0 0 C0.99 0.33 1.98 0.66 3 1 C3.177 16.063 2.617 31.076 2 46.125 C1.903 48.548 1.807 50.971 1.711 53.395 C1.478 59.263 1.24 65.132 1 71 C0.67 71 0.34 71 0 71 C-0.026 63.405 -0.043 55.81 -0.055 48.216 C-0.06 45.637 -0.067 43.058 -0.075 40.479 C-0.088 36.753 -0.093 33.027 -0.098 29.301 C-0.103 28.165 -0.108 27.029 -0.113 25.858 C-0.114 18.196 0.309 10.631 1 3 C0.01 3 -0.98 3 -2 3 C-2 2.34 -2 1.68 -2 1 C-1.34 0.67 -0.68 0.34 0 0 Z " fill="#F6C91E" transform="translate(76,79)"/>
<path d="M0 0 C1.284 2.311 1.997 3.972 2.312 6.625 C2.539 7.409 2.766 8.192 3 9 C3.763 9.268 4.526 9.536 5.312 9.812 C8.459 11.203 8.597 11.793 9.938 14.812 C11.895 19.205 14.164 21.143 18 24 C19.018 24.982 20.025 25.976 21 27 C21.66 27.66 22.32 28.32 23 29 C22.34 29.66 21.68 30.32 21 31 C19.681 30.072 18.37 29.132 17.062 28.188 C16.332 27.665 15.601 27.143 14.848 26.605 C13 25 13 25 12 22 C11.01 22.33 10.02 22.66 9 23 C9 22.34 9 21.68 9 21 C8.397 20.961 7.793 20.923 7.172 20.883 C5 20 5 20 3.516 17.305 C-0.688 5.914 -0.688 5.914 0 0 Z " fill="#7FB003" transform="translate(137,98)"/>
<path d="M0 0 C0.33 0 0.66 0 1 0 C1 1.65 1 3.3 1 5 C0.34 5 -0.32 5 -1 5 C-1.083 5.949 -1.165 6.897 -1.25 7.875 C-1.498 8.906 -1.745 9.938 -2 11 C-4 12.188 -4 12.188 -6 13 C-6.33 13.99 -6.66 14.98 -7 16 C-9.315 16.729 -11.651 17.392 -14 18 C-14.99 18.66 -15.98 19.32 -17 20 C-19.97 18.35 -22.94 16.7 -26 15 C-26 14.67 -26 14.34 -26 14 C-25.313 13.951 -24.626 13.902 -23.918 13.852 C-23.017 13.777 -22.116 13.702 -21.188 13.625 C-20.294 13.555 -19.401 13.486 -18.48 13.414 C-16 13 -16 13 -13 11 C-11.907 10.814 -10.814 10.629 -9.688 10.438 C-4.949 8.59 -3.682 6.167 -1.164 1.898 C-0.972 1.585 -0.972 1.585 0 0 Z " fill="#B0DD38" transform="translate(211,93)"/>
<path d="M0 0 C1.32 0 2.64 0 4 0 C8.578 9.779 9.301 18.685 9.188 29.438 C9.187 30.62 9.186 31.803 9.186 33.021 C9.141 41.719 9.141 41.719 8 44 C7.34 43.67 6.68 43.34 6 43 C6 32.44 6 21.88 6 11 C5.34 11 4.68 11 4 11 C4 12.98 4 14.96 4 17 C3.67 17 3.34 17 3 17 C2.01 11.39 1.02 5.78 0 0 Z " fill="#F2E8C5" transform="translate(246,73)"/>
<path d="M0 0 C0.33 0 0.66 0 1 0 C1.535 15.641 1.124 29.379 -5 44 C-5.66 44 -6.32 44 -7 44 C-7.33 44.66 -7.66 45.32 -8 46 C-8.254 40.039 -7.53 35.38 -5.625 29.75 C-5.403 29.056 -5.182 28.363 -4.953 27.648 C-4.098 25.022 -3.259 22.481 -1.945 20.045 C-0.901 17.787 -0.692 16.147 -0.586 13.672 C-0.547 12.873 -0.509 12.073 -0.469 11.25 C-0.453 10.838 -0.453 10.838 -0.375 8.75 C-0.336 7.91 -0.298 7.069 -0.258 6.203 C-0.164 4.136 -0.081 2.068 0 0 Z " fill="#719211" transform="translate(247,82)"/>
<path d="M0 0 C2.962 0.613 4.381 1.254 7 3 C10.003 3.319 10.003 3.319 13.637 3.414 C14.935 3.453 16.234 3.491 17.572 3.531 C18.944 3.563 20.316 3.594 21.688 3.625 C23.071 3.663 24.454 3.702 25.838 3.742 C29.225 3.837 32.612 3.922 36 4 C35.67 4.99 35.34 5.98 35 7 C30.438 7.116 25.876 7.187 21.312 7.25 C20.019 7.284 18.725 7.317 17.393 7.352 C16.145 7.364 14.898 7.377 13.613 7.391 C12.466 7.412 11.32 7.433 10.138 7.454 C6.341 6.905 4.679 5.697 2 3 C2 2.34 2 1.68 2 1 C1.34 0.67 0.68 0.34 0 0 Z " fill="#D9A307" transform="translate(60,179)"/>
<path d="M0 0 C0.66 0 1.32 0 2 0 C2.608 10.261 2.325 17.36 -4.273 25.587 C-6.605 27.495 -8.032 27.363 -11.022 27.341 C-12.043 27.34 -13.064 27.34 -14.116 27.34 C-15.216 27.324 -16.316 27.309 -17.449 27.293 C-18.013 27.291 -18.013 27.291 -20.867 27.28 C-24.474 27.263 -28.08 27.226 -31.688 27.188 C-34.131 27.172 -36.574 27.159 -39.018 27.146 C-45.012 27.113 -51.006 27.063 -57 27 C-57 26.67 -57 26.34 -57 26 C-56.425 25.996 -55.849 25.993 -55.256 25.989 C-49.253 25.947 -43.251 25.878 -37.249 25.792 C-35.01 25.764 -32.772 25.743 -30.533 25.729 C-27.311 25.708 -24.089 25.661 -20.867 25.609 C-20.369 25.609 -20.369 25.609 -17.846 25.606 C-11.927 25.482 -8.539 24.89 -4 21 C1.183 15.027 0.408 7.442 0 0 Z " fill="#DDCA98" transform="translate(135,167)"/>
<path d="M0 0 C0 0.99 0 1.98 0 3 C-0.33 3.165 -0.33 3.165 -2 4 C-1.34 2.68 -0.68 1.36 0 0 Z M-3 4 C-3 9.458 -6.767 13.784 -10 18 C-12.234 20.053 -14.5 21.825 -16.984 23.562 C-19 25 -19 25 -20.641 26.688 C-22 28 -22 28 -24 28 C-24 28.66 -24 29.32 -24 30 C-30.628 33.874 -35.297 35.621 -43 35 C-43 34.67 -43 34.34 -43 34 C-41.014 33.837 -39.029 33.674 -37.043 33.512 C-34.535 32.884 -33.77 31.842 -32 30 C-30.459 29.226 -28.894 28.5 -27.312 27.812 C-22.435 25.485 -19.193 22.565 -15.594 18.574 C-14 17 -14 17 -12 17 C-11.872 16.719 -11.872 16.719 -11.227 15.297 C-9.843 12.706 -8.201 10.549 -6.375 8.25 C-5.743 7.451 -5.112 6.652 -4.461 5.828 C-3.979 5.225 -3.497 4.622 -3 4 Z " fill="#CFC08B" transform="translate(227,160)"/>
<path d="M0 0 C2.309 1.523 2.309 1.523 4 3 C1.882 5.118 -3.461 4.3 -6.453 4.342 C-11.539 4.555 -11.539 4.555 -13.902 6.84 C-15.247 9.486 -16.16 12.156 -17 15 C-17.99 15 -18.98 15 -20 15 C-19.586 9.715 -18.778 6.778 -15 3 C-10.656 -0.706 -5.479 -0.909 0 0 Z " fill="#AEA35F" transform="translate(197,74)"/>
<path d="M0 0 C3.438 1.5 3.438 1.5 6 3 C5.67 3.165 5.67 3.165 4 4 C3.34 3.67 2.68 3.34 2 3 C-2.922 2.46 -6.894 2.497 -11.438 4.562 C-17.197 10.041 -17.558 16.43 -18 24 C-20.642 18.715 -21.915 15.004 -21 9 C-19.61 6.354 -18.27 5.059 -16 3 C-15.01 3 -14.02 3 -13 3 C-12.546 2.752 -12.546 2.752 -10.25 1.5 C-6.445 -0.256 -4.151 -0.445 0 0 Z " fill="#587B0A" transform="translate(195,72)"/>
<path d="M0 0 C2.55 2.218 3.382 3.701 4 7 C4.057 8.405 4.061 9.812 4.022 11.218 C4.002 12.038 3.982 12.859 3.961 13.704 C3.934 14.58 3.907 15.457 3.879 16.359 C3.855 17.264 3.832 18.168 3.807 19.1 C3.731 21.983 3.647 24.867 3.562 27.75 C3.509 29.707 3.457 31.664 3.404 33.621 C3.275 38.414 3.139 43.207 3 48 C2.67 48.165 2.67 48.165 1 49 C0.832 43.698 0.671 38.396 0.518 33.094 C0.465 31.292 0.409 29.49 0.352 27.688 C0.269 25.092 0.195 22.495 0.121 19.898 C0.094 19.098 0.067 18.298 0.039 17.473 C-0.075 13.158 0.219 9.264 1 5 C0.562 2.125 0.562 2.125 0 0 Z " fill="#EFB905" transform="translate(114,41)"/>
<path d="M0 0 C0.464 0.031 0.464 0.031 2.812 0.188 C2.483 1.178 2.153 2.167 1.812 3.188 C2.472 3.188 3.132 3.188 3.812 3.188 C3.483 4.508 3.153 5.828 2.812 7.188 C2.153 7.188 1.493 7.188 0.812 7.188 C0.812 6.528 0.812 5.867 0.812 5.188 C0.153 5.188 -0.507 5.188 -1.188 5.188 C-1.188 7.828 -1.188 10.468 -1.188 13.188 C-1.847 12.858 -2.507 12.528 -3.188 12.188 C-3.188 10.867 -3.188 9.547 -3.188 8.188 C-3.744 8.517 -4.301 8.847 -4.875 9.188 C-7.49 10.318 -9.368 10.344 -12.188 10.188 C-12.517 8.867 -12.847 7.547 -13.188 6.188 C-12.094 5.754 -11.001 5.321 -9.875 4.875 C-7.588 3.915 -6.327 3.338 -4.625 1.5 C-3.188 0.188 -3.188 0.188 0 0 Z " fill="#FDE320" transform="translate(91.1875,42.8125)"/>
<path d="M0 0 C1.497 0.124 2.988 0.325 4.473 0.559 C5.372 0.697 6.271 0.836 7.197 0.979 C8.143 1.13 9.088 1.281 10.062 1.438 C11.012 1.585 11.961 1.733 12.939 1.885 C15.294 2.252 17.647 2.623 20 3 C19.34 3.99 19.34 3.99 16 9 C13.536 8.436 11.08 7.85 8.625 7.25 C7.926 7.093 7.228 6.935 6.508 6.773 C1.33 5.479 1.33 5.479 -0.477 2.859 C-0.563 2.553 -0.563 2.553 -1 1 C-0.67 0.67 -0.34 0.34 0 0 Z " fill="#C9BF82" transform="translate(168,139)"/>
<path d="M0 0 C0.33 0 0.66 0 1 0 C2.344 6.996 2.163 13.906 2 21 C1.972 22.234 1.943 23.467 1.914 24.738 C1.571 32.216 0.331 38.276 -3 45 C-3.943 42.454 -4.14 41.345 -3.102 38.785 C-1.606 35.004 -1.537 31.471 -1.375 27.438 C-1.336 26.641 -1.298 25.845 -1.258 25.024 C-1.008 19.491 -0.97 13.976 -1.031 8.438 C-0.994 5.551 -0.626 2.817 0 0 Z " fill="#E2D5A7" transform="translate(250,84)"/>
<path d="M0 0 C0 3.106 -0.539 4.353 -2 7 C-2.66 7 -3.32 7 -4 7 C-4.598 8.093 -5.196 9.186 -5.812 10.312 C-7.289 12.89 -8.616 15.157 -11 17 C-11.66 17 -12.32 17 -13 17 C-13 17.66 -13 18.32 -13 19 C-13.66 19 -14.32 19 -15 19 C-15 19.66 -15 20.32 -15 21 C-18 23 -18 23 -21 23 C-21.625 21.125 -21.625 21.125 -22 19 C-21.34 18.34 -20.68 17.68 -20 17 C-19.67 17.66 -19.34 18.32 -19 19 C-14.288 15.065 -10.029 11.118 -6.227 6.285 C-6.024 6.073 -6.024 6.073 -5 5 C-4.34 5 -3.68 5 -3 5 C-2.691 4.361 -2.381 3.721 -2.062 3.062 C-1 1 -1 1 0 0 Z " fill="#A6D327" transform="translate(189,149)"/>
<path d="M0 0 C2.84 0.713 3.669 1.504 5.566 3.645 C6.556 3.975 7.546 4.305 8.566 4.645 C8.236 5.965 7.906 7.285 7.566 8.645 C6.576 7.985 5.586 7.325 4.566 6.645 C4.566 5.985 4.566 5.325 4.566 4.645 C2.673 4.394 0.777 4.17 -1.121 3.957 C-2.177 3.829 -3.233 3.702 -4.32 3.57 C-7.984 3.658 -9.544 4.44 -12.434 6.645 C-13.945 8.328 -13.945 8.328 -15.121 10.082 C-15.531 10.69 -15.941 11.299 -16.363 11.926 C-17.518 13.78 -18.553 15.644 -19.434 17.645 C-19.764 17.645 -20.094 17.645 -20.434 17.645 C-19.913 10.503 -17.489 7.452 -12.41 2.637 C-8.201 -0.181 -4.956 -0.278 0 0 Z " fill="#D5CB97" transform="translate(198.43359375,80.35546875)"/>
<path d="M0 0 C2.858 1.305 4.963 2.733 7.25 4.875 C10.865 8.055 14.615 10.069 19 12 C19.825 12.392 20.65 12.784 21.5 13.188 C28.464 15.451 35.764 15.12 43 15 C42.67 15.99 42.34 16.98 42 18 C27.326 18.481 15.417 15.078 4.25 5.188 C2.8 3.826 1.371 2.441 0 1 C0 0.67 0 0.34 0 0 Z " fill="#667C16" transform="translate(147,124)"/>
<path d="M0 0 C1.427 2.854 0.71 5.26 0.324 8.336 C-0.029 11.241 -0.303 14.147 -0.562 17.062 C-0.604 17.532 -0.604 17.532 -0.816 19.91 C-0.877 20.6 -0.938 21.289 -1 22 C-2.32 22 -3.64 22 -5 22 C-5.546 13.358 -5.888 6.771 0 0 Z " fill="#AAD72B" transform="translate(145,63)"/>
<path d="M0 0 C0 3.3 0 6.6 0 10 C-0.33 9.34 -0.66 8.68 -1 8 C-3.325 7.744 -5.663 7.594 -8 7.5 C-10.337 7.406 -12.675 7.256 -15 7 C-15.33 6.34 -15.66 5.68 -16 5 C-13.69 5 -11.38 5 -9 5 C-8.67 4.01 -8.34 3.02 -8 2 C-5.015 0.045 -3.736 0 0 0 Z " fill="#BA8510" transform="translate(77,85)"/>
<path d="M0 0 C4.875 1.75 4.875 1.75 6 4 C6.543 9.536 5.601 14.445 4.25 19.812 C4.093 20.471 3.936 21.129 3.775 21.807 C2.942 24.917 2.265 26.758 -0.141 28.949 C-0.754 29.296 -1.368 29.643 -2 30 C-2.66 29.67 -3.32 29.34 -4 29 C-3.381 28.216 -2.762 27.433 -2.125 26.625 C2.039 20.349 2.976 11.379 2 4 C0.984 1.742 0.984 1.742 0 0 Z " fill="#87BB07" transform="translate(205,74)"/>
<path d="M0 0 C1.32 0 2.64 0 4 0 C4 0.66 4 1.32 4 2 C3.01 2 2.02 2 1 2 C0.856 2.289 0.856 2.289 0.125 3.75 C-0.061 4.121 -0.061 4.121 -1 6 C-1.33 6.722 -1.66 7.444 -2 8.188 C-3 10 -3 10 -5 11 C-4.67 12.65 -4.34 14.3 -4 16 C-5.98 16.66 -7.96 17.32 -10 18 C-9.125 10.25 -9.125 10.25 -8 8 C-7.34 8 -6.68 8 -6 8 C-6 7.34 -6 6.68 -6 6 C-5.34 6 -4.68 6 -4 6 C-3.34 4.68 -2.68 3.36 -2 2 C-1.34 2 -0.68 2 0 2 C0 1.34 0 0.68 0 0 Z " fill="#A5D328" transform="translate(154,60)"/>
<path d="M0 0 C0 3 0 3 -1.426 4.648 C-2.048 5.218 -2.671 5.788 -3.312 6.375 C-7.416 10.346 -9.896 12.893 -10.188 18.812 C-10.126 19.864 -10.064 20.916 -10 22 C-9.34 22.33 -8.68 22.66 -8 23 C-9.32 23 -10.64 23 -12 23 C-12 23.66 -12 24.32 -12 25 C-11.01 25 -10.02 25 -9 25 C-9 25.99 -9 26.98 -9 28 C-10.938 27.625 -10.938 27.625 -13 27 C-14.63 23.739 -14.53 20.523 -14 17 C-11.206 10.062 -5.334 5.021 0 0 Z " fill="#97C61B" transform="translate(178,153)"/>
<path d="M0 0 C0 3.701 -0.736 6.524 -2 10 C-4.125 11.438 -4.125 11.438 -6 12 C-6 11.01 -6 10.02 -6 9 C-9.63 8.34 -13.26 7.68 -17 7 C-17.33 5.68 -17.66 4.36 -18 3 C-15.36 2.67 -12.72 2.34 -10 2 C-13 4 -13 4 -15 4 C-15 4.66 -15 5.32 -15 6 C-14.278 5.814 -13.556 5.629 -12.812 5.438 C-9.852 4.977 -7.899 5.39 -5 6 C-4.01 5.67 -3.02 5.34 -2 5 C-2.33 4.01 -2.66 3.02 -3 2 C-2.01 1.34 -1.02 0.68 0 0 Z " fill="#83BA05" transform="translate(198,127)"/>
<path d="M0 0 C-0.687 0.398 -1.374 0.797 -2.082 1.207 C-2.983 1.737 -3.884 2.267 -4.812 2.812 C-5.706 3.335 -6.599 3.857 -7.52 4.395 C-10 6 -10 6 -11.699 7.699 C-12.128 8.128 -12.558 8.558 -13 9 C-13.66 9 -14.32 9 -15 9 C-15.66 10.98 -16.32 12.96 -17 15 C-17.66 15 -18.32 15 -19 15 C-19 15.66 -19 16.32 -19 17 C-19.66 17 -20.32 17 -21 17 C-21.66 18.98 -22.32 20.96 -23 23 C-24 20 -24 20 -23.18 17.949 C-16.187 5.828 -16.187 5.828 -11.688 4.125 C-11.409 4.104 -11.409 4.104 -10 4 C-10 3.34 -10 2.68 -10 2 C-3.375 -1.125 -3.375 -1.125 0 0 Z " fill="#C5E65C" transform="translate(169,45)"/>
<path d="M0 0 C0.516 0.681 1.031 1.361 1.562 2.062 C8.964 10.982 8.964 10.982 13 13 C13.727 14.979 14.398 16.98 15 19 C5.656 14.688 5.656 14.688 4.125 10.75 C4.084 10.173 4.042 9.595 4 9 C3.34 9 2.68 9 2 9 C2 8.01 2 7.02 2 6 C1.34 6 0.68 6 0 6 C-0.382 4.344 -0.714 2.675 -1 1 C-0.67 0.67 -0.34 0.34 0 0 Z " fill="#E5DAAC" transform="translate(143,119)"/>
<path d="M0 0 C0.33 0 0.66 0 1 0 C2.637 7.572 3.699 15.112 -0.625 21.875 C-3.368 25.513 -6.343 28.301 -10 31 C-10 27.061 -8.713 26.265 -6.062 23.438 C-1.498 18.535 -0.876 16.122 -1 9.5 C-1.135 2.27 -1.135 2.27 0 0 Z " fill="#F2E4BF" transform="translate(139,167)"/>
<path d="M0 0 C0.33 0.66 0.66 1.32 1 2 C0.34 2 -0.32 2 -1 2 C-1.083 2.639 -1.165 3.279 -1.25 3.938 C-2.295 8.205 -4.141 12.031 -6 16 C-6.66 16 -7.32 16 -8 16 C-8.66 17.98 -9.32 19.96 -10 22 C-10.66 21.34 -11.32 20.68 -12 20 C-11.938 17 -11.938 17 -11 14 C-8.438 12.625 -8.438 12.625 -6 12 C-6.33 10.68 -6.66 9.36 -7 8 C-6.34 8 -5.68 8 -5 8 C-5.33 7.01 -5.66 6.02 -6 5 C-3.993 1.989 -3.161 1.37 0 0 Z " fill="#8CC306" transform="translate(233,128)"/>
<path d="M0 0 C0.33 0.99 0.66 1.98 1 3 C1.66 3 2.32 3 3 3 C3 3.66 3 4.32 3 5 C3.66 5 4.32 5 5 5 C5 5.66 5 6.32 5 7 C2.36 7 -0.28 7 -3 7 C-3 7.99 -3 8.98 -3 10 C-3.99 10.33 -4.98 10.66 -6 11 C-6.33 10.01 -6.66 9.02 -7 8 C-7.66 7.67 -8.32 7.34 -9 7 C-7.812 5.062 -7.812 5.062 -6 3 C-3.375 2.375 -3.375 2.375 -1 2 C-0.67 1.34 -0.34 0.68 0 0 Z M-10 10 C-9.01 10.33 -8.02 10.66 -7 11 C-7.66 11 -8.32 11 -9 11 C-9.33 11.66 -9.66 12.32 -10 13 C-10 12.01 -10 11.02 -10 10 Z " fill="#9FCF1C" transform="translate(165,52)"/>
<path d="M0 0 C1.238 0.13 2.475 0.26 3.75 0.395 C4.988 0.512 6.225 0.629 7.5 0.75 C10.75 1.207 10.75 1.207 13.75 2.207 C13.42 3.527 13.09 4.847 12.75 6.207 C12.75 5.547 12.75 4.887 12.75 4.207 C12.42 4.372 12.42 4.372 10.75 5.207 C5.022 5.611 -0.587 5.031 -6.25 4.207 C-4.492 0.879 -3.853 0.245 0 0 Z " fill="#629003" transform="translate(177.25,134.79296875)"/>
<path d="M0 0 C0.577 0.248 0.577 0.248 3.5 1.5 C7.853 3.156 11.375 3.248 16 3 C16 3.66 16 4.32 16 5 C17.258 5.144 18.516 5.289 19.812 5.438 C22.427 5.737 24.474 6.158 27 7 C26.67 8.32 26.34 9.64 26 11 C26 10.01 26 9.02 26 8 C25.068 7.974 24.136 7.948 23.176 7.922 C14.132 7.52 6.567 6.106 -2 3 C-1.34 2.01 -0.68 1.02 0 0 Z " fill="#7BAE03" transform="translate(165,129)"/>
<path d="M0 0 C0.66 0 1.32 0 2 0 C2.042 2.333 2.041 4.667 2 7 C1.67 7.33 1.34 7.66 1 8 C0.635 9.481 0.319 10.975 0.027 12.473 C-0.15 13.372 -0.327 14.271 -0.51 15.197 C-0.692 16.143 -0.875 17.088 -1.062 18.062 C-1.249 19.012 -1.435 19.961 -1.627 20.939 C-2.088 23.292 -2.546 25.646 -3 28 C-3.66 28 -4.32 28 -5 28 C-5.33 28.66 -5.66 29.32 -6 30 C-5.856 29.154 -5.711 28.309 -5.562 27.438 C-4 17.889 -4 17.889 -4 14 C-3.333 12.667 -2.667 11.333 -2 10 C-1.573 8.262 -1.199 6.51 -0.875 4.75 C-0.791 4.304 -0.791 4.304 -0.367 2.047 C-0.246 1.371 -0.125 0.696 0 0 Z " fill="#8BC105" transform="translate(242,94)"/>
<path d="M0 0 C0.99 0 1.98 0 3 0 C2.67 1.65 2.34 3.3 2 5 C1.674 5.061 1.674 5.061 0.023 5.367 C-4.786 6.289 -9.39 7.302 -14 9 C-13.427 6.133 -13.139 5.139 -11 3 C-8.617 2.805 -8.617 2.805 -5.875 2.875 C-5.42 2.884 -5.42 2.884 -3.117 2.93 C-2.419 2.953 -1.72 2.976 -1 3 C-0.67 2.01 -0.34 1.02 0 0 Z " fill="#FDEC52" transform="translate(78,150)"/>
<path d="M0 0 C1.272 2.29 2.001 4.008 2.375 6.625 C2.581 7.409 2.787 8.192 3 9 C3.66 9.33 4.32 9.66 5 10 C5.66 10.33 6.32 10.66 7 11 C7.562 13.25 7.562 13.25 8 16 C8.954 18.022 9.945 20.028 11 22 C10.34 22.33 9.68 22.66 9 23 C9 22.34 9 21.68 9 21 C8.397 20.961 7.793 20.923 7.172 20.883 C5 20 5 20 3.516 17.305 C-0.688 5.914 -0.688 5.914 0 0 Z " fill="#7FAA14" transform="translate(137,98)"/>
<path d="M0 0 C7.26 0 14.52 0 22 0 C22.33 0.66 22.66 1.32 23 2 C22.051 1.979 21.102 1.959 20.125 1.938 C17 2 17 2 15 3 C13.066 3.206 11.128 3.366 9.188 3.5 C5.373 3.765 1.735 4.172 -2 5 C-1.01 4.01 -0.02 3.02 1 2 C0.67 1.34 0.34 0.68 0 0 Z " fill="#FDEC4B" transform="translate(83,39)"/>
<path d="M0 0 C-0.33 1.98 -0.66 3.96 -1 6 C-2.98 5.67 -2.98 5.67 -13 4 C-13 3.01 -13 2.02 -13 1 C-4.571 -1.429 -4.571 -1.429 0 0 Z " fill="#FCE42C" transform="translate(128,152)"/>
<path d="M0 0 C1.273 0.934 2.543 1.873 3.812 2.812 C4.52 3.335 5.228 3.857 5.957 4.395 C8 6 8 6 9.594 7.625 C11.485 9.474 13.53 10.132 16 11 C16 11.33 16 11.66 16 12 C10.739 12.316 7.554 11.666 3 9 C3 8.01 3 7.02 3 6 C2.34 6 1.68 6 1 6 C0.34 4.35 -0.32 2.7 -1 1 C-0.67 0.67 -0.34 0.34 0 0 Z " fill="#E7DBB2" transform="translate(167,184)"/>
<path d="M0 0 C3.96 0.33 7.92 0.66 12 1 C12 2.65 12 4.3 12 6 C10.395 5.886 8.791 5.758 7.188 5.625 C6.294 5.555 5.401 5.486 4.48 5.414 C2 5 2 5 -1 3 C-0.67 2.01 -0.34 1.02 0 0 Z " fill="#D8C18B" transform="translate(64,92)"/>
<path d="M0 0 C4 0 4 0 5.922 1.871 C10.238 7.93 11.841 11.555 11 19 C7.751 15.751 5.36 11.889 4.5 7.375 C3.827 4.177 2.136 2.412 0 0 Z " fill="#6BA102" transform="translate(197,68)"/>
<path d="M0 0 C0.66 0 1.32 0 2 0 C6.572 9.263 6.148 17.054 5 27 C4.67 27 4.34 27 4 27 C3.939 26.348 3.879 25.695 3.816 25.023 C3.365 20.311 2.856 15.659 2 11 C1.832 10.073 1.665 9.146 1.492 8.191 C0.998 5.46 0.5 2.73 0 0 Z " fill="#86BB07" transform="translate(240,66)"/>
<path d="M0 0 C2 2 2 2 2.082 5.738 C2.003 7.264 1.913 8.788 1.812 10.312 C1.797 10.692 1.797 10.692 1.717 12.615 C1.443 17.181 0.802 20.216 -2 24 C-2.99 23.34 -3.98 22.68 -5 22 C-4.34 21.34 -3.68 20.68 -3 20 C-1.097 13.533 -0.541 6.694 0 0 Z " fill="#DFA90D" transform="translate(132,158)"/>
<path d="M0 0 C0 0.66 0 1.32 0 2 C-1.186 3.152 -2.373 4.302 -3.57 5.441 C-5.71 7.774 -7.191 10.44 -8.809 13.148 C-10.268 15.417 -12.066 17.131 -14 19 C-15.043 20.64 -16.056 22.301 -17 24 C-17.33 23.34 -17.66 22.68 -18 22 C-15.298 15.416 -8.176 0 0 0 Z " fill="#A1D024" transform="translate(157,48)"/>
<path d="M0 0 C0.941 2.824 1.073 4.142 0.879 7.012 C0.831 7.769 0.782 8.526 0.732 9.307 C0.676 10.092 0.62 10.878 0.562 11.688 C0.51 12.485 0.458 13.282 0.404 14.104 C0.275 16.069 0.138 18.035 0 20 C-0.66 20 -1.32 20 -2 20 C-2 22.31 -2 24.62 -2 27 C-2.33 27 -2.66 27 -3 27 C-3.082 23.999 -3.141 21.001 -3.188 18 C-3.213 17.161 -3.238 16.322 -3.264 15.457 C-3.332 9.596 -2.367 5.368 0 0 Z " fill="#95C022" transform="translate(139,72)"/>
<path d="M0 0 C0.33 0 0.66 0 1 0 C1 4.95 1 9.9 1 15 C1.66 15 2.32 15 3 15 C3 15.66 3 16.32 3 17 C4.32 17 5.64 17 7 17 C7 17.66 7 18.32 7 19 C7.66 19.33 8.32 19.66 9 20 C7.332 19.676 5.665 19.341 4 19 C3.258 18.856 2.515 18.711 1.75 18.562 C1.172 18.377 0.595 18.191 0 18 C-1.525 14.95 -1.144 11.779 -1.125 8.438 C-1.129 7.739 -1.133 7.041 -1.137 6.322 C-1.127 1.127 -1.127 1.127 0 0 Z " fill="#F6C929" transform="translate(59,161)"/>
<path d="M0 0 C-2 3 -2 3 -4.5 3.688 C-9.01 4.09 -13.476 4.08 -18 4 C-16 1 -16 1 -13.688 0.523 C-12.801 0.474 -11.914 0.425 -11 0.375 C-0.821 -0.246 -0.821 -0.246 0 0 Z " fill="#D6A009" transform="translate(130,182)"/>
<path d="M0 0 C0.66 0.33 1.32 0.66 2 1 C0.027 5.57 -1.922 8.135 -6 11 C-7.32 10.34 -8.64 9.68 -10 9 C-9.092 7.868 -8.173 6.745 -7.25 5.625 C-6.74 4.999 -6.229 4.372 -5.703 3.727 C-3.891 1.89 -2.415 0.893 0 0 Z " fill="#B1DF34" transform="translate(193,141)"/>
<path d="M0 0 C1.234 3.552 0.776 5.968 -0.188 9.562 C-0.429 10.513 -0.67 11.463 -0.918 12.441 C-2.145 15.344 -3.35 16.37 -6 18 C-6.36 13.002 -5.344 10.02 -3 5.625 C-2.443 4.565 -1.886 3.506 -1.312 2.414 C-0.879 1.617 -0.446 0.821 0 0 Z " fill="#DDD0A2" transform="translate(245,129)"/>
<path d="M0 0 C1.196 0.516 2.392 1.031 3.625 1.562 C7.476 3.021 9.957 3.034 14 2 C15.667 2 17.333 2 19 2 C19 2.66 19 3.32 19 4 C13.12 6.295 8.463 7.075 2.562 4.5 C1.717 4.005 0.871 3.51 0 3 C0 2.01 0 1.02 0 0 Z " fill="#F6C501" transform="translate(55,80)"/>
<path d="M0 0 C1.65 0 3.3 0 5 0 C4.01 0.33 3.02 0.66 2 1 C2.66 2.32 3.32 3.64 4 5 C1.437 4.858 -1.125 4.712 -3.688 4.562 C-4.409 4.523 -5.13 4.484 -5.873 4.443 C-9.667 4.218 -13.287 3.872 -17 3 C-17 2.67 -17 2.34 -17 2 C-11.39 2 -5.78 2 0 2 C0 1.34 0 0.68 0 0 Z " fill="#B7DF3F" transform="translate(198,36)"/>
<path d="M0 0 C0.66 0.33 1.32 0.66 2 1 C1.691 1.433 1.691 1.433 0.125 3.625 C-1.847 6.756 -2.99 9.464 -4 13 C-4.99 13 -5.98 13 -7 13 C-6.586 7.726 -5.71 4.823 -2 1 C-1.34 0.67 -0.68 0.34 0 0 Z " fill="#B2A869" transform="translate(184,76)"/>
<path d="M0 0 C-0.33 0.495 -0.33 0.495 -2 3 C-4.531 3.328 -4.531 3.328 -7.5 3.25 C-7.99 3.242 -7.99 3.242 -10.469 3.203 C-13 3 -13 3 -15 2 C-15 1.34 -15 0.68 -15 0 C-4.442 -1.333 -4.442 -1.333 0 0 Z " fill="#C9BA83" transform="translate(194,191)"/>
<path d="M0 0 C0 0.33 0 0.66 0 1 C-0.699 1.026 -1.397 1.052 -2.117 1.078 C-3.027 1.135 -3.937 1.192 -4.875 1.25 C-5.78 1.296 -6.685 1.343 -7.617 1.391 C-10 2 -10 2 -11.32 4.047 C-11.545 4.691 -11.769 5.336 -12 6 C-11.67 6 -11.34 6 -11 6 C-11 7.65 -11 9.3 -11 11 C-12.32 11 -13.64 11 -15 11 C-15.288 7.949 -15.404 5.044 -15 2 C-11.033 -2.496 -5.365 -0.865 0 0 Z " fill="#FDE836" transform="translate(77,152)"/>
<path d="M0 0 C0.66 0 1.32 0 2 0 C3.32 5.28 4.64 10.56 6 16 C4.68 15.67 3.36 15.34 2 15 C0.737 9.925 -0.27 5.272 0 0 Z " fill="#87BA04" transform="translate(137,92)"/>
<path d="M0 0 C0.33 0 0.66 0 1 0 C1 1.65 1 3.3 1 5 C0.34 5 -0.32 5 -1 5 C-1.186 5.722 -1.371 6.444 -1.562 7.188 C-3.467 10.913 -6.2 13.223 -10 15 C-10.99 14.67 -11.98 14.34 -13 14 C-12.74 13.83 -12.74 13.83 -11.426 12.969 C-6.691 9.678 -3.702 6.593 -0.91 1.539 C-0.61 1.031 -0.309 0.523 0 0 Z " fill="#BEE44E" transform="translate(211,93)"/>
<path d="M0 0 C1.32 0 2.64 0 4 0 C5.231 3.684 4.908 6.915 4.562 10.75 C4.461 11.92 4.359 13.091 4.254 14.297 C4.212 14.743 4.212 14.743 4 17 C3.67 17 3.34 17 3 17 C2.01 11.39 1.02 5.78 0 0 Z " fill="#EFE6C1" transform="translate(246,73)"/>
<path d="M0 0 C1.738 3.476 0.729 7.281 0 11 C-1.562 14.562 -1.562 14.562 -3 17 C-3.33 17 -3.66 17 -4 17 C-4.375 11.128 -3.252 6.436 -1 1 C-0.67 0.67 -0.34 0.34 0 0 Z " fill="#B4DD3E" transform="translate(145,63)"/>
<path d="M0 0 C2.125 0.375 2.125 0.375 4 1 C3.385 1.603 2.77 2.207 2.137 2.828 C1.328 3.627 0.52 4.427 -0.312 5.25 C-1.113 6.039 -1.914 6.828 -2.738 7.641 C-4.687 9.674 -6.374 11.706 -8 14 C-8 12.02 -8 10.04 -8 8 C-7.01 7.67 -6.02 7.34 -5 7 C-3.951 5.364 -2.951 3.695 -2 2 C-1.34 1.34 -0.68 0.68 0 0 Z " fill="#C9BF86" transform="translate(185,81)"/>
<path d="M0 0 C4.193 0.067 6.827 0.624 10.188 3.312 C9.858 4.302 9.528 5.293 9.188 6.312 C7.868 5.653 6.548 4.993 5.188 4.312 C5.188 3.653 5.188 2.993 5.188 2.312 C1.227 2.312 -2.732 2.312 -6.812 2.312 C-4.322 -0.178 -3.438 0.015 0 0 Z " fill="#C8BD82" transform="translate(195.8125,78.6875)"/>
<path d="M0 0 C3.96 1.98 7.92 3.96 12 6 C12 6.99 12 7.98 12 9 C11.01 9 10.02 9 9 9 C9 8.34 9 7.68 9 7 C7.886 6.897 6.773 6.794 5.625 6.688 C5.027 6.574 5.027 6.574 2 6 C0 3 0 3 0 0 Z " fill="#D5CB93" transform="translate(156,133)"/>
<path d="M0 0 C0.33 0 0.66 0 1 0 C1.33 8.58 1.66 17.16 2 26 C1.01 26 0.02 26 -1 26 C-0.67 17.42 -0.34 8.84 0 0 Z " fill="#BEBC78" transform="translate(248,83)"/>
<path d="M0 0 C0.99 0.33 1.98 0.66 3 1 C2.618 1.268 2.618 1.268 0.688 2.625 C-3.767 6.561 -5.275 11.427 -7 17 C-8.133 15.281 -8.133 15.281 -9 13 C-7.289 7.991 -4.018 3.422 0 0 Z " fill="#E1D9A9" transform="translate(188,84)"/>
<path d="M0 0 C2.553 2.22 3.434 3.678 4 7 C3.965 8.898 3.857 10.796 3.688 12.688 C3.609 13.661 3.53 14.634 3.449 15.637 C3.301 16.417 3.153 17.196 3 18 C2.34 18.33 1.68 18.66 1 19 C0.208 13.897 0.092 10.107 1 5 C0.562 2.125 0.562 2.125 0 0 Z " fill="#F2BE0F" transform="translate(114,41)"/>
<path d="M0 0 C2.962 0.613 4.381 1.254 7 3 C8.99 3.39 10.99 3.732 13 4 C13.33 4.99 13.66 5.98 14 7 C9.838 7.326 7.637 7.407 4.062 5.125 C2 3 2 3 2 1 C1.34 0.67 0.68 0.34 0 0 Z " fill="#E4AC08" transform="translate(60,179)"/>
<path d="M0 0 C0.99 0.33 1.98 0.66 3 1 C2.812 3.312 2.812 3.312 2 6 C-0.375 7.875 -0.375 7.875 -3 9 C-3.99 8.67 -4.98 8.34 -6 8 C-5.546 7.588 -5.093 7.175 -4.625 6.75 C-2.936 4.931 -2.043 3.235 -1 1 C-0.67 0.67 -0.34 0.34 0 0 Z " fill="#89BE07" transform="translate(196,172)"/>
<path d="M0 0 C0.33 0.66 0.66 1.32 1 2 C0.775 2.204 0.775 2.204 -0.363 3.238 C-2.117 5.125 -3.085 6.868 -4.188 9.188 C-4.532 9.903 -4.876 10.618 -5.23 11.355 C-5.484 11.898 -5.738 12.441 -6 13 C-6.66 13 -7.32 13 -8 13 C-8 13.66 -8 14.32 -8 15 C-8.66 15 -9.32 15 -10 15 C-9.34 13.02 -8.68 11.04 -8 9 C-7.34 9 -6.68 9 -6 9 C-6 8.34 -6 7.68 -6 7 C-5.34 7 -4.68 7 -4 7 C-3.948 6.701 -3.948 6.701 -3.688 5.188 C-2.911 2.718 -1.929 1.677 0 0 Z " fill="#B4DB3F" transform="translate(156,53)"/>
<path d="M0 0 C0.66 0.66 1.32 1.32 2 2 C1.73 6.767 0.837 10.142 -2 14 C-2.33 14.165 -2.33 14.165 -4 15 C-3.522 13.062 -3.043 11.125 -2.562 9.188 C-2.296 8.109 -2.029 7.03 -1.754 5.918 C-1.239 3.926 -0.651 1.952 0 0 Z " fill="#C8BD7F" transform="translate(246,111)"/>
<path d="M0 0 C4.675 0.024 7.81 0.654 11.812 3.25 C11.483 4.57 11.153 5.89 10.812 7.25 C9.822 6.59 8.833 5.93 7.812 5.25 C7.812 4.59 7.812 3.93 7.812 3.25 C6.969 3.189 6.126 3.129 5.258 3.066 C4.71 3.025 4.71 3.025 1.938 2.812 C0.847 2.731 -0.244 2.65 -1.367 2.566 C-4.188 2.25 -4.188 2.25 -6.188 1.25 C-4.482 -0.456 -2.328 0.038 0 0 Z " fill="#DAD1A0" transform="translate(195.1875,81.75)"/>
<path d="M0 0 C4.62 0 9.24 0 14 0 C11 3 11 3 7.562 3.25 C4.849 3.06 2.57 2.822 0 2 C0 1.34 0 0.68 0 0 Z " fill="#E7DBB1" transform="translate(182,197)"/>
<path d="M0 0 C3.461 0.288 4.706 0.671 7.062 3.312 C7.702 4.199 8.341 5.086 9 6 C10.315 7.351 11.643 8.691 13 10 C8.964 8.78 5.391 7.543 2 5 C0.688 2.312 0.688 2.312 0 0 Z " fill="#709B0A" transform="translate(144,119)"/>
<path d="M0 0 C2.062 0.438 2.062 0.438 4 1 C3.34 2.65 2.68 4.3 2 6 C3.32 6.66 4.64 7.32 6 8 C5.34 8.66 4.68 9.32 4 10 C3.01 9.34 2.02 8.68 1 8 C1 7.34 1 6.68 1 6 C0.34 6 -0.32 6 -1 6 C-1.043 4.334 -1.041 2.666 -1 1 C-0.67 0.67 -0.34 0.34 0 0 Z " fill="#90C20E" transform="translate(154,116)"/>
<path d="M0 0 C0.66 0.33 1.32 0.66 2 1 C0.691 2.67 -0.622 4.336 -1.938 6 C-2.668 6.928 -3.399 7.856 -4.152 8.812 C-4.762 9.534 -5.372 10.256 -6 11 C-6.33 11 -6.66 11 -7 11 C-6.875 7.75 -6.875 7.75 -6 4 C-2.938 1.562 -2.938 1.562 0 0 Z " fill="#BBE04A" transform="translate(176,159)"/>
<path d="M0 0 C0.33 0 0.66 0 1 0 C1.397 11.348 1.397 11.348 -1 15 C-2.646 15.717 -4.312 16.389 -6 17 C-5.651 16.359 -5.301 15.719 -4.941 15.059 C-2.254 9.951 -0.377 5.777 0 0 Z " fill="#8DBF1B" transform="translate(207,87)"/>
<path d="M0 0 C2.169 0.506 4 1 6 2 C6 2.99 6 3.98 6 5 C6.639 5.124 7.279 5.248 7.938 5.375 C8.618 5.581 9.299 5.787 10 6 C10.33 6.66 10.66 7.32 11 8 C9.35 8 7.7 8 6 8 C5.67 7.01 5.34 6.02 5 5 C4.34 5 3.68 5 3 5 C1.375 3.625 1.375 3.625 0 2 C0 1.34 0 0.68 0 0 Z " fill="#E9D8B2" transform="translate(63,186)"/>
<path d="M0 0 C0.66 0.33 1.32 0.66 2 1 C1.01 2.32 0.02 3.64 -1 5 C-0.01 5.33 0.98 5.66 2 6 C0.68 7.32 -0.64 8.64 -2 10 C-2.99 9.01 -3.98 8.02 -5 7 C-4.34 6.67 -3.68 6.34 -3 6 C-3.66 5.34 -4.32 4.68 -5 4 C-3.35 2.68 -1.7 1.36 0 0 Z " fill="#8FC509" transform="translate(209,155)"/>
<path d="M0 0 C0.672 1.711 0.672 1.711 1 4 C-0.109 6.289 -0.109 6.289 -1.75 8.625 C-2.281 9.401 -2.812 10.177 -3.359 10.977 C-5 13 -5 13 -8 15 C-6.381 11.699 -4.641 8.474 -2.875 5.25 C-2.336 4.265 -1.797 3.28 -1.242 2.266 C-0.832 1.518 -0.422 0.77 0 0 Z " fill="#D6C896" transform="translate(238,144)"/>
<path d="M0 0 C0.66 0 1.32 0 2 0 C2.266 0.566 2.531 1.132 2.805 1.715 C3.158 2.448 3.511 3.182 3.875 3.938 C4.223 4.668 4.571 5.399 4.93 6.152 C6 8 6 8 8 9 C8 9.66 8 10.32 8 11 C6.25 10.938 6.25 10.938 4 10 C1.553 6.784 0 4.076 0 0 Z " fill="#8ABE06" transform="translate(143,109)"/>
<path d="M0 0 C0 1.32 0 2.64 0 4 C-2.31 3.835 -2.31 3.835 -14 3 C-14 2.67 -14 2.34 -14 2 C-13.687 1.97 -13.687 1.97 -12.102 1.816 C-11.693 1.775 -11.693 1.775 -9.625 1.562 C-8.813 1.481 -8.001 1.4 -7.164 1.316 C-4.391 0.911 -2.912 0 0 0 Z " fill="#BC9B55" transform="translate(76,89)"/>
<path d="M0 0 C1.979 2.968 2.342 4.098 2.688 7.5 C2.774 8.273 2.86 9.047 2.949 9.844 C3 12 3 12 2 15 C1.34 15 0.68 15 0 15 C0 10.05 0 5.1 0 0 Z " fill="#FDD706" transform="translate(60,161)"/>
<path d="M0 0 C5 2 10 4 15 6 C15 6.33 15 6.66 15 7 C8.376 6.651 5.107 5.256 0 1 C0 0.67 0 0.34 0 0 Z " fill="#7BAC0A" transform="translate(156,130)"/>
<path d="M0 0 C0 3.672 -0.803 6.535 -2 10 C-2.495 10.33 -2.495 10.33 -5 12 C-5 10.02 -5 8.04 -5 6 C-4.01 5.67 -3.02 5.34 -2 5 C-2.33 4.01 -2.66 3.02 -3 2 C-2.01 1.34 -1.02 0.68 0 0 Z " fill="#8CC409" transform="translate(198,127)"/>
<path d="M0 0 C2.31 0.165 2.31 0.165 14 1 C14 1.33 14 1.66 14 2 C10.7 2.33 7.4 2.66 4 3 C4.66 3.66 5.32 4.32 6 5 C4.35 4.67 2.7 4.34 1 4 C0.67 2.68 0.34 1.36 0 0 Z " fill="#9CD11F" transform="translate(183,105)"/>
<path d="M0 0 C0.91 0.009 1.82 0.018 2.758 0.027 C3.456 0.039 4.155 0.051 4.875 0.062 C2.02 1.966 0.456 2.524 -2.812 3.188 C-3.621 3.355 -4.429 3.523 -5.262 3.695 C-5.877 3.816 -6.491 3.938 -7.125 4.062 C-7.125 3.073 -7.125 2.082 -7.125 1.062 C-4.6 -0.2 -2.813 -0.036 0 0 Z " fill="#A09954" transform="translate(192.125,73.9375)"/>
<path d="M0 0 C0.66 0 1.32 0 2 0 C2 2.64 2 5.28 2 8 C2.99 8 3.98 8 5 8 C5 8.99 5 9.98 5 11 C3.062 10.625 3.062 10.625 1 10 C-0.607 6.785 -0.057 3.564 0 0 Z " fill="#91BD2E" transform="translate(164,170)"/>
<path d="M0 0 C0 3.737 -1.261 5.722 -3 9 C-3.351 9.763 -3.701 10.526 -4.062 11.312 C-5 13 -5 13 -7 14 C-6.01 10.7 -5.02 7.4 -4 4 C-3.34 4 -2.68 4 -2 4 C-1.34 2.68 -0.68 1.36 0 0 Z " fill="#EFE3BF" transform="translate(244,144)"/>
<path d="M0 0 C3.96 0.33 7.92 0.66 12 1 C11.67 1.495 11.67 1.495 10 4 C7.36 3.67 4.72 3.34 2 3 C2 2.34 2 1.68 2 1 C1.34 0.67 0.68 0.34 0 0 Z " fill="#B0AB65" transform="translate(176,141)"/>
<path d="M0 0 C0 3.96 -1.408 5.145 -3.875 8.188 C-4.235 8.638 -4.235 8.638 -6.055 10.918 C-6.376 11.262 -6.376 11.262 -8 13 C-8.66 13 -9.32 13 -10 13 C-8.484 9.522 -6.423 7.044 -3.875 4.25 C-3.151 3.451 -2.426 2.652 -1.68 1.828 C-1.403 1.526 -1.403 1.526 0 0 Z " fill="#52650C" transform="translate(220,162)"/>
<path d="M0 0 C0 3.719 -0.874 4.361 -3.312 7.062 C-3.927 7.755 -4.542 8.447 -5.176 9.16 C-7 11 -7 11 -10 13 C-8.484 9.522 -6.423 7.044 -3.875 4.25 C-3.151 3.451 -2.426 2.652 -1.68 1.828 C-1.403 1.526 -1.403 1.526 0 0 Z " fill="#82B10E" transform="translate(189,141)"/>
<path d="M0 0 C-0.33 0.99 -0.66 1.98 -1 3 C-2.416 3.054 -3.833 3.093 -5.25 3.125 C-6.039 3.148 -6.828 3.171 -7.641 3.195 C-10.207 2.983 -11.792 2.287 -14 1 C-12.042 0.832 -10.083 0.666 -8.125 0.5 C-7.58 0.454 -7.58 0.454 -4.82 0.219 C-3.217 0.094 -1.608 0 0 0 Z " fill="#48650A" transform="translate(190,139)"/>
<path d="M0 0 C0.99 0.33 1.98 0.66 3 1 C2.34 1 1.68 1 1 1 C1 1.66 1 2.32 1 3 C2.98 3 4.96 3 7 3 C7 3.66 7 4.32 7 5 C7.66 5.33 8.32 5.66 9 6 C1.492 5.385 1.492 5.385 -1 3.438 C-1.33 2.963 -1.66 2.489 -2 2 C-1.34 1.34 -0.68 0.68 0 0 Z " fill="#8DC00A" transform="translate(168,127)"/>
<path d="M0 0 C1.32 0 2.64 0 4 0 C3.67 3.3 3.34 6.6 3 10 C2.34 10 1.68 10 1 10 C0.67 6.7 0.34 3.4 0 0 Z " fill="#A7D52D" transform="translate(140,86)"/>
<path d="M0 0 C3.166 2.111 4.196 3.735 6 7 C5.34 7.66 4.68 8.32 4 9 C2.68 8.34 1.36 7.68 0 7 C0 4.69 0 2.38 0 0 Z " fill="#A4D525" transform="translate(221,43)"/>
<path d="M0 0 C1.32 0 2.64 0 4 0 C4 1.98 4 3.96 4 6 C3.01 6.33 2.02 6.66 1 7 C1.33 5.68 1.66 4.36 2 3 C0.68 3.33 -0.64 3.66 -2 4 C-1.34 2.68 -0.68 1.36 0 0 Z " fill="#A2D521" transform="translate(192,139)"/>
<path d="M0 0 C0 0.66 0 1.32 0 2 C-5.61 1.67 -11.22 1.34 -17 1 C-17 0.67 -17 0.34 -17 0 C-14.542 -0.194 -12.084 -0.381 -9.625 -0.562 C-8.926 -0.619 -8.228 -0.675 -7.508 -0.732 C-2.227 -1.113 -2.227 -1.113 0 0 Z " fill="#83B605" transform="translate(201,66)"/>
<path d="M0 0 C1.65 0 3.3 0 5 0 C5 1.98 5 3.96 5 6 C4.34 6 3.68 6 3 6 C3 5.34 3 4.68 3 4 C2.01 3.67 1.02 3.34 0 3 C0 2.01 0 1.02 0 0 Z " fill="#EEE1BA" transform="translate(71,99)"/>
<path d="M0 0 C2.011 2.56 3.628 5.046 5 8 C3.68 8 2.36 8 1 8 C-0.75 5.5 -0.75 5.5 -2 3 C-1.34 2.01 -0.68 1.02 0 0 Z " fill="#81B20F" transform="translate(177,95)"/>
<path d="M0 0 C4.98 1.509 8.243 4.557 12 8 C11.34 8.66 10.68 9.32 10 10 C6.667 6.667 3.333 3.333 0 0 Z " fill="#96C822" transform="translate(223,45)"/>
<path d="M0 0 C-1.275 2.55 -2.403 2.931 -5 4 C-5.99 4 -6.98 4 -8 4 C-8 4.66 -8 5.32 -8 6 C-8.99 5.67 -9.98 5.34 -11 5 C-7.179 1.052 -5.523 -0.145 0 0 Z " fill="#ADD731" transform="translate(167,43)"/>
<path d="M0 0 C4 4.5 4 4.5 4 9 C3.34 9 2.68 9 2 9 C2 8.01 2 7.02 2 6 C1.34 6 0.68 6 0 6 C-0.382 4.344 -0.714 2.675 -1 1 C-0.67 0.67 -0.34 0.34 0 0 Z " fill="#EDE4C0" transform="translate(143,119)"/>
<path d="M0 0 C0.99 0 1.98 0 3 0 C2.718 1.46 2.424 2.918 2.125 4.375 C1.963 5.187 1.8 5.999 1.633 6.836 C1 9 1 9 -1 11 C-1.125 3.375 -1.125 3.375 0 0 Z " fill="#73A209" transform="translate(240,117)"/>
<path d="M0 0 C1.98 0 3.96 0 6 0 C6.33 0.66 6.66 1.32 7 2 C6.062 4.125 6.062 4.125 5 6 C4.67 5.01 4.34 4.02 4 3 C2.35 2.67 0.7 2.34 -1 2 C-0.67 1.34 -0.34 0.68 0 0 Z " fill="#9CD017" transform="translate(206,109)"/>
<path d="M0 0 C3.438 1.312 3.438 1.312 7 3 C7.33 3.99 7.66 4.98 8 6 C5.125 5.812 5.125 5.812 2 5 C0.625 2.438 0.625 2.438 0 0 Z " fill="#E5CE9C" transform="translate(57,89)"/>
<path d="M0 0 C6.055 -0.195 6.055 -0.195 8 0 C8.66 0.66 9.32 1.32 10 2 C8.35 2.66 6.7 3.32 5 4 C5 3.34 5 2.68 5 2 C4.01 2.33 3.02 2.66 2 3 C2 2.34 2 1.68 2 1 C1.34 0.67 0.68 0.34 0 0 Z " fill="#A9D52A" transform="translate(186,40)"/>
<path d="M0 0 C0.66 0 1.32 0 2 0 C0.375 6.75 0.375 6.75 -3 9 C-2.443 5.656 -1.648 2.967 0 0 Z " fill="#EDE1BC" transform="translate(246,135)"/>
<path d="M0 0 C1.875 0.625 1.875 0.625 4 2 C5.25 5.125 5.25 5.125 6 8 C2.171 6.547 0.879 4.571 -1 1 C-0.67 0.67 -0.34 0.34 0 0 Z " fill="#DFD4A2" transform="translate(152,130)"/>
<path d="M0 0 C0.66 0 1.32 0 2 0 C2.66 2.97 3.32 5.94 4 9 C3.01 8.67 2.02 8.34 1 8 C-0.354 5.291 -0.065 2.991 0 0 Z " fill="#92C707" transform="translate(137,92)"/>
<path d="M0 0 C2 1 4 2 6 3 C6.594 5.649 6.742 8.292 7 11 C5.174 9.174 4.177 7.725 2.938 5.5 C2.596 4.892 2.254 4.283 1.902 3.656 C1.245 2.45 0.614 1.229 0 0 Z " fill="#597C0E" transform="translate(201,76)"/>
<path d="M0 0 C1.559 3.118 0.666 5.671 0 9 C-0.33 9.165 -0.33 9.165 -2 10 C-2.195 3.945 -2.195 3.945 -2 2 C-1.34 1.34 -0.68 0.68 0 0 Z " fill="#BAE147" transform="translate(145,63)"/>
<path d="M0 0 C0.33 0.66 0.66 1.32 1 2 C1.66 2 2.32 2 3 2 C3.33 3.32 3.66 4.64 4 6 C1.69 6 -0.62 6 -3 6 C-2.34 5.34 -1.68 4.68 -1 4 C-0.375 1.875 -0.375 1.875 0 0 Z " fill="#8DC10A" transform="translate(192,60)"/>
<path d="M0 0 C0.66 0.66 1.32 1.32 2 2 C1.758 4.164 1.758 4.164 1.125 6.625 C0.921 7.442 0.718 8.26 0.508 9.102 C0.34 9.728 0.173 10.355 0 11 C-0.935 7.577 -1.158 4.559 -1 1 C-0.67 0.67 -0.34 0.34 0 0 Z " fill="#FCD709" transform="translate(113,41)"/>
<path d="M0 0 C0.66 1.32 1.32 2.64 2 4 C0.68 4.99 -0.64 5.98 -2 7 C-2.66 6.67 -3.32 6.34 -4 6 C-4 5.34 -4 4.68 -4 4 C-3.01 4 -2.02 4 -1 4 C-0.67 2.68 -0.34 1.36 0 0 Z " fill="#658110" transform="translate(209,172)"/>
<path d="M0 0 C0.66 0.66 1.32 1.32 2 2 C1.977 4.383 1.977 4.383 1.625 7.125 C1.514 8.035 1.403 8.945 1.289 9.883 C1.194 10.581 1.098 11.28 1 12 C0.67 12 0.34 12 0 12 C-0.196 10.564 -0.381 9.126 -0.562 7.688 C-0.667 6.887 -0.771 6.086 -0.879 5.262 C-1 3 -1 3 0 0 Z " fill="#EAE0B5" transform="translate(249,78)"/>
<path d="M0 0 C0 0.66 0 1.32 0 2 C-1.32 2.66 -1.32 2.66 -8 6 C-8 5.01 -8 4.02 -8 3 C-2.25 0 -2.25 0 0 0 Z " fill="#538302" transform="translate(188,71)"/>
<path d="M0 0 C1.98 0 3.96 0 6 0 C6.33 1.32 6.66 2.64 7 4 C5.35 4 3.7 4 2 4 C2 3.34 2 2.68 2 2 C1.34 1.34 0.68 0.68 0 0 Z " fill="#6C9B02" transform="translate(168,134)"/>
<path d="M0 0 C0.66 0.33 1.32 0.66 2 1 C-0.53 4.092 -3.225 4.909 -7 6 C-2.25 1.125 -2.25 1.125 0 0 Z " fill="#B4DB43" transform="translate(164,47)"/>
</svg>
