<?xml version="1.0" encoding="UTF-8"?>
<!-- Generator: visioncortex VTracer 0.6.12 -->
<svg version="1.1" xmlns="http://www.w3.org/2000/svg" width="213" height="275">
<path d="M0 0 C70.29 0 140.58 0 213 0 C213 90.75 213 181.5 213 275 C142.71 275 72.42 275 0 275 C0 184.25 0 93.5 0 0 Z " fill="#FDF7E1" transform="translate(0,0)"/>
<path d="M0 0 C8.348 6.829 16.269 15.855 17.446 27.044 C18.165 40.192 17.937 52.44 8.961 62.934 C8.053 63.882 7.146 64.831 6.211 65.809 C6.046 66.304 6.046 66.304 5.211 68.809 C5.803 69.082 6.394 69.355 7.004 69.637 C15.604 74.203 19.607 83.196 23.211 91.809 C27.044 105.411 24.259 120.895 17.523 132.996 C8.236 147.311 -4.753 156.227 -21.469 159.926 C-41.564 163.697 -62.393 160.733 -79.789 149.809 C-88.56 143.121 -95.612 135.89 -97.789 124.809 C-98.593 117.802 -96.965 112.546 -92.789 106.809 C-86.716 101.625 -81.671 99.375 -73.738 99.469 C-67.276 100.213 -62.705 103.671 -58.352 108.309 C-53.466 113.465 -47.377 117.023 -40.164 117.309 C-34.794 116.966 -29.666 115.746 -25.852 111.809 C-24.789 109.809 -24.789 109.809 -23.789 106.809 C-25.439 106.809 -27.089 106.809 -28.789 106.809 C-28.789 105.489 -28.789 104.169 -28.789 102.809 C-30.439 102.479 -32.089 102.149 -33.789 101.809 C-33.789 100.489 -33.789 99.169 -33.789 97.809 C-36.099 97.809 -38.409 97.809 -40.789 97.809 C-41.119 96.819 -41.449 95.829 -41.789 94.809 C-44.109 93.778 -46.443 92.779 -48.789 91.809 C-51.159 89.728 -53.02 87.322 -54.914 84.809 C-55.432 84.128 -55.95 83.447 -56.484 82.746 C-60.164 77.282 -59.311 70.105 -58.789 63.809 C-56.696 59.313 -53.967 56.468 -49.789 53.809 C-46.414 52.813 -43.126 52.053 -39.672 51.422 C-34.639 50.387 -31.791 49.031 -28.789 44.809 C-28.103 40.542 -28.289 38.602 -30.602 34.934 C-34.459 31.186 -38.728 31.354 -43.863 31.395 C-49.82 32.237 -54.209 35.797 -57.852 40.434 C-61.5 44.906 -65.45 46.514 -71.141 47.23 C-77.545 47.477 -82.966 47.437 -88.168 43.398 C-93.352 38.314 -95.11 34.303 -95.414 26.934 C-94.962 16.578 -90.873 10.019 -83.569 2.79 C-61.366 -17.483 -23.622 -17.773 0 0 Z " fill="#9CD017" transform="translate(144.7890625,71.19140625)"/>
<path d="M0 0 C70.29 0 140.58 0 213 0 C213 90.75 213 181.5 213 275 C142.71 275 72.42 275 0 275 C0 184.25 0 93.5 0 0 Z M4 9 C3.903 10.38 3.874 11.766 3.874 13.15 C3.872 14.05 3.869 14.95 3.866 15.877 C3.868 16.877 3.871 17.878 3.873 18.908 C3.871 19.962 3.87 21.016 3.868 22.101 C3.864 25.661 3.867 29.221 3.871 32.781 C3.869 35.322 3.867 37.862 3.865 40.402 C3.861 46.604 3.862 52.805 3.865 59.006 C3.867 64.044 3.867 69.081 3.866 74.119 C3.866 74.835 3.866 75.55 3.866 76.287 C3.865 77.741 3.865 79.195 3.865 80.648 C3.862 94.294 3.865 107.94 3.871 121.586 C3.875 133.307 3.874 145.029 3.87 156.75 C3.864 170.345 3.862 183.941 3.865 197.536 C3.866 198.984 3.866 200.433 3.866 201.881 C3.866 202.594 3.866 203.307 3.867 204.041 C3.868 209.075 3.866 214.11 3.864 219.144 C3.861 225.914 3.863 232.684 3.869 239.454 C3.87 241.946 3.87 244.439 3.867 246.931 C3.865 250.318 3.868 253.705 3.873 257.092 C3.871 258.092 3.869 259.092 3.866 260.123 C3.869 261.023 3.871 261.923 3.874 262.85 C3.874 263.633 3.874 264.416 3.875 265.223 C4 267 4 267 5 268 C7.643 268.098 10.26 268.13 12.903 268.12 C13.322 268.121 13.322 268.121 15.442 268.123 C18.272 268.125 21.102 268.119 23.932 268.114 C25.952 268.113 27.972 268.113 29.991 268.114 C35.493 268.114 40.995 268.108 46.497 268.101 C52.24 268.095 57.983 268.095 63.726 268.093 C74.609 268.09 85.492 268.082 96.375 268.072 C108.762 268.061 121.149 268.055 133.536 268.05 C159.024 268.04 184.512 268.022 210 268 C211.162 265.677 211.125 264.348 211.126 261.761 C211.128 260.867 211.131 259.972 211.134 259.051 C211.132 258.062 211.129 257.073 211.127 256.054 C211.129 255.009 211.13 253.963 211.132 252.885 C211.136 249.359 211.133 245.832 211.129 242.305 C211.131 239.786 211.133 237.266 211.135 234.747 C211.139 228.601 211.138 222.455 211.135 216.309 C211.133 211.316 211.133 206.323 211.134 201.33 C211.134 200.975 211.134 200.975 211.134 199.179 C211.135 197.738 211.135 196.296 211.135 194.855 C211.138 181.326 211.135 167.798 211.129 154.269 C211.125 142.651 211.126 131.034 211.13 119.416 C211.136 105.937 211.138 92.458 211.135 78.979 C211.134 77.543 211.134 76.107 211.134 74.67 C211.134 73.964 211.134 73.257 211.133 72.529 C211.132 67.539 211.134 62.55 211.136 57.56 C211.139 50.85 211.137 44.139 211.131 37.428 C211.13 34.959 211.13 32.489 211.133 30.02 C211.135 26.662 211.132 23.304 211.127 19.946 C211.129 18.957 211.131 17.968 211.134 16.949 C211.131 16.055 211.129 15.16 211.126 14.239 C211.126 13.463 211.126 12.687 211.125 11.888 C211 10 211 10 210 8 C183.289 7.977 156.577 7.959 129.866 7.948 C117.464 7.943 105.063 7.936 92.661 7.925 C81.856 7.915 71.051 7.908 60.246 7.906 C54.521 7.905 48.796 7.902 43.071 7.894 C37.689 7.888 32.307 7.885 26.925 7.887 C24.944 7.887 22.963 7.885 20.981 7.881 C18.288 7.876 15.596 7.877 12.903 7.88 C12.108 7.877 11.313 7.874 10.495 7.871 C5.114 7.886 5.114 7.886 4 9 Z " fill="#FDFDFD" transform="translate(0,0)"/>
<path d="M0 0 C3.098 0.334 6.139 1.053 9.188 1.688 C10.039 1.849 10.89 2.011 11.768 2.178 C18.059 3.477 22.782 5.094 26.812 10.375 C28.119 13.263 28.635 15.861 29 19 C29.248 18.237 29.495 17.474 29.75 16.688 C31.11 13.764 32.316 12.7 35 11 C36.993 16.979 36.949 20.152 35 26 C35.66 26.33 36.32 26.66 37 27 C36.526 27.454 36.051 27.907 35.562 28.375 C34 30 34 30 33 32 C32.01 32 31.02 32 30 32 C30 32.66 30 33.32 30 34 C29.257 34.124 28.515 34.248 27.75 34.375 C25 35 25 35 23.062 36 C20.428 37.277 17.885 37.607 15 38 C14.67 39.32 14.34 40.64 14 42 C13.443 42.062 12.886 42.124 12.312 42.188 C9.072 43.326 7.369 45.569 5 48 C4.34 48 3.68 48 3 48 C3 48.66 3 49.32 3 50 C1.063 49.688 1.063 49.688 -1 49 C-1.33 48.01 -1.66 47.02 -2 46 C-2.99 46 -3.98 46 -5 46 C-4.01 46.33 -3.02 46.66 -2 47 C-3.186 50.375 -4.276 52.647 -7 55 C-6.67 53.68 -6.34 52.36 -6 51 C-6.66 51 -7.32 51 -8 51 C-8.33 51.99 -8.66 52.98 -9 54 C-12.062 55.188 -12.062 55.188 -15 56 C-15.33 55.01 -15.66 54.02 -16 53 C-18.695 52.086 -18.695 52.086 -22.125 51.375 C-22.713 51.25 -22.713 51.25 -25.688 50.617 C-28.176 50.153 -30.612 49.771 -33.125 49.5 C-36 49 -36 49 -37.938 47.562 C-39 46 -39 46 -39 44 C-39.66 44.165 -39.66 44.165 -43 45 C-43.33 43.35 -43.66 41.7 -44 40 C-44.66 40 -45.32 40 -46 40 C-47.967 34.1 -47.525 29.486 -45.062 23.875 C-41.831 17.849 -36.965 14.982 -31 12 C-23.102 11.055 -17.35 12.156 -11 17 C-9.828 18.141 -8.682 19.308 -7.562 20.5 C-2.677 25.656 3.412 29.214 10.625 29.5 C15.995 29.157 21.123 27.938 24.938 24 C26 22 26 22 27 19 C25.35 19 23.7 19 22 19 C22 17.68 22 16.36 22 15 C20.35 14.67 18.7 14.34 17 14 C17 12.68 17 11.36 17 10 C14.69 10 12.38 10 10 10 C9.835 9.505 9.835 9.505 9 7 C6.68 5.969 4.346 4.971 2 4 C0.062 2.312 0.062 2.312 -1 1 C-0.67 0.67 -0.34 0.34 0 0 Z M-20 53 C-18.68 53.33 -17.36 53.66 -16 54 C-16.33 54.66 -16.66 55.32 -17 56 C-17.99 55.67 -18.98 55.34 -20 55 C-20 54.34 -20 53.68 -20 53 Z " fill="#9FD11B" transform="translate(94,159)"/>
<path d="M0 0 C-1.312 1.5 -1.312 1.5 -3 3 C-3.99 3 -4.98 3 -6 3 C-5.835 3.495 -5.835 3.495 -5 6 C-5.949 5.794 -6.898 5.588 -7.875 5.375 C-8.391 5.313 -8.391 5.313 -11 5 C-13 7 -13 7 -13.125 9.625 C-13.084 10.409 -13.042 11.192 -13 12 C-12.67 11.67 -12.34 11.34 -12 11 C-11.34 10.67 -10.68 10.34 -10 10 C-10.309 11.196 -10.619 12.392 -10.938 13.625 C-11.583 16.18 -12.098 18.638 -12.5 21.25 C-13.161 24.886 -14.016 27.052 -16.688 29.625 C-19.662 31.394 -22.657 32.164 -26 33 C-26 32.34 -26 31.68 -26 31 C-26.66 31 -27.32 31 -28 31 C-27.835 31.495 -27.835 31.495 -27 34 C-27.66 34 -28.32 34 -29 34 C-29.33 35.32 -29.66 36.64 -30 38 C-30.33 37.835 -30.33 37.835 -32 37 C-33 38 -33 38 -33.875 41 C-34.246 41.99 -34.618 42.98 -35 44 C-35.495 44.165 -35.495 44.165 -38 45 C-39.687 46.562 -39.687 46.562 -41 48 C-41.66 47.67 -42.32 47.34 -43 47 C-43.516 47.536 -44.031 48.072 -44.562 48.625 C-47 50 -47 50 -50.688 49.312 C-54 48 -54 48 -55 46 C-55.763 45.856 -56.526 45.711 -57.312 45.562 C-60.426 44.911 -61.723 44.211 -64 42 C-65.48 36.912 -65.943 31.47 -64.031 26.461 C-62.525 24.093 -60.879 22.083 -59 20 C-58.392 19.251 -57.783 18.502 -57.156 17.73 C-42.348 1.014 -20.877 -0.577 0 0 Z " fill="#9FD01C" transform="translate(116,59)"/>
<path d="M0 0 C5.406 4.441 7.995 11.206 9 18 C10.086 36.095 6.657 50.16 -5.25 64.25 C-15.968 75.684 -31.949 81.685 -47.445 82.336 C-69.102 82.682 -87.53 78.58 -103.891 63.43 C-105.998 61.002 -107.026 59.041 -108 56 C-107.216 56.804 -106.433 57.609 -105.625 58.438 C-103 61 -103 61 -101 62 C-100.67 61.34 -100.34 60.68 -100 60 C-99.113 60.598 -98.226 61.196 -97.312 61.812 C-90.48 66.324 -84.639 68.325 -76.688 70.188 C-75.585 70.46 -74.482 70.733 -73.346 71.014 C-67.415 72.426 -62.096 73.334 -56 73 C-55.67 72.34 -55.34 71.68 -55 71 C-53.02 71 -51.04 71 -49 71 C-49 71.66 -49 72.32 -49 73 C-35.83 70.879 -22.584 67.455 -12 59 C-11.835 58.67 -11.835 58.67 -11 57 C-10.34 57 -9.68 57 -9 57 C-9 56.34 -9 55.68 -9 55 C-8.34 55 -7.68 55 -7 55 C-4.916 51.153 -3.503 47.099 -2 43 C-1.34 43 -0.68 43 0 43 C0.33 41.68 0.66 40.36 1 39 C1.66 39 2.32 39 3 39 C3 38.34 3 37.68 3 37 C3.66 37 4.32 37 5 37 C5.259 33.689 5.476 30.377 5.688 27.062 C5.724 26.599 5.724 26.599 5.908 24.256 C6.422 15.648 4.624 9.267 0 2 C0 1.34 0 0.68 0 0 Z " fill="#77AD01" transform="translate(160,150)"/>
<path d="M0 0 C1.98 0.66 3.96 1.32 6 2 C5.67 2.66 5.34 3.32 5 4 C6.812 4.625 6.812 4.625 9 5 C9.99 4.34 10.98 3.68 12 3 C11.5 4 11.5 4 9 9 C8.34 9 7.68 9 7 9 C7 9.66 7 10.32 7 11 C6.34 11 5.68 11 5 11 C4.776 11.589 4.551 12.178 4.32 12.785 C0.273 19.575 -10.009 22.618 -17.25 24.938 C-17.574 25.043 -17.574 25.043 -19.215 25.578 C-23.978 26.999 -28.091 27.18 -33 27 C-33 26.34 -33 25.68 -33 25 C-39.75 26.875 -39.75 26.875 -42 28 C-49.071 27.867 -55.97 26.28 -62.812 24.625 C-63.27 24.521 -63.27 24.521 -65.584 23.992 C-70.213 22.888 -74.068 21.797 -78 19 C-79.093 18.278 -80.186 17.556 -81.312 16.812 C-82.199 16.214 -83.086 15.616 -84 15 C-84 15.66 -84 16.32 -84 17 C-88.735 14.971 -92.375 11.421 -95 7 C-94.688 4.75 -94.688 4.75 -94 3 C-93.67 3.99 -93.34 4.98 -93 6 C-92.34 5.67 -91.68 5.34 -91 5 C-91 5.66 -91 6.32 -91 7 C-90.34 7 -89.68 7 -89 7 C-88.711 7.32 -88.711 7.32 -87.25 8.938 C-84.399 11.551 -82.825 11.575 -79 12 C-77.289 12.295 -75.58 12.609 -73.875 12.938 C-73.047 13.091 -72.22 13.244 -71.367 13.402 C-67.847 14.291 -65.571 15.429 -63 18 C-59.125 16.25 -59.125 16.25 -58 14 C-57.34 14 -56.68 14 -56 14 C-56 14.99 -56 15.98 -56 17 C-54.68 14.69 -53.36 12.38 -52 10 C-52.825 9.835 -52.825 9.835 -57 9 C-56.01 8.34 -55.02 7.68 -54 7 C-52 8.375 -52 8.375 -50 10 C-50 10.66 -50 11.32 -50 12 C-49.01 12.33 -48.02 12.66 -47 13 C-47 12.34 -47 11.68 -47 11 C-45.68 10.34 -44.36 9.68 -43 9 C-42.835 9.495 -42.835 9.495 -42 12 C-35.375 11.25 -35.375 11.25 -32 9 C-32.66 11.31 -33.32 13.62 -34 16 C-34.66 16 -35.32 16 -36 16 C-36 16.66 -36 17.32 -36 18 C-34.742 18.041 -33.484 18.083 -32.188 18.125 C-31.48 18.148 -30.772 18.171 -30.043 18.195 C-28 18 -28 18 -25 16 C-23.763 16.041 -22.525 16.083 -21.25 16.125 C-16.454 16.258 -13.877 14.769 -10 12 C-9.67 11.01 -9.34 10.02 -9 9 C-8.67 9.33 -8.67 9.33 -7 11 C-2.224 8.551 -2.224 8.551 -1.188 6 C-1 4 -1 4 -1 1 C-0.67 0.67 -0.34 0.34 0 0 Z M-70 16 C-70 16.99 -70 17.98 -70 19 C-68.68 18.67 -67.36 18.34 -66 18 C-66.33 17.34 -66.66 16.68 -67 16 C-67.99 16 -68.98 16 -70 16 Z " fill="#96CB0E" transform="translate(144,196)"/>
<path d="M0 0 C0.33 0 0.66 0 1 0 C1.061 0.638 1.121 1.276 1.184 1.934 C1.267 2.76 1.351 3.586 1.438 4.438 C1.519 5.261 1.6 6.085 1.684 6.934 C2 9 2 9 3 10 C3.954 19.66 2.492 28.972 -1 38 C-1.99 38.66 -2.98 39.32 -4 40 C-4.33 40.99 -4.66 41.98 -5 43 C-5.66 43 -6.32 43 -7 43 C-7.125 43.287 -7.125 43.287 -7.758 44.738 C-9.173 47.315 -10.804 49.105 -12.875 51.188 C-13.553 51.882 -14.231 52.577 -14.93 53.293 C-17.031 55.025 -18.341 55.601 -21 56 C-21 56.99 -21 57.98 -21 59 C-33.912 64.352 -45.23 66.044 -59.125 66.312 C-59.96 66.342 -60.795 66.372 -61.655 66.403 C-67.161 66.454 -71.02 65.419 -75.946 62.982 C-78.658 61.685 -81.384 61.019 -84.312 60.375 C-87.836 59.592 -90.838 58.758 -94 57 C-94 56.01 -94 55.02 -94 54 C-92.891 54.277 -91.783 54.554 -90.641 54.84 C-90.289 54.928 -90.289 54.928 -88.508 55.373 C-87.018 55.745 -85.529 56.118 -84.039 56.49 C-83.685 56.579 -83.685 56.579 -81.891 57.027 C-78 58 -78 58 -76.069 58.548 C-64.678 61.036 -49.848 60.036 -39 56 C-37.989 55.636 -36.979 55.273 -35.938 54.898 C-20.726 49.004 -11.215 40.114 -4.406 25.277 C-0.846 16.981 -0.48 8.992 0 0 Z " fill="#D6C996" transform="translate(169,172)"/>
<path d="M0 0 C1.32 0.33 2.64 0.66 4 1 C4 2.98 4 4.96 4 7 C4.99 6.67 5.98 6.34 7 6 C8.562 11.773 9.175 16.951 8.875 22.934 C9 25 9 25 11 27 C11.373 31.855 10.73 35.482 9 40 C8.67 41.031 8.34 42.062 8 43.125 C7.15 45.567 6.151 47.697 5 50 C4.866 50.474 4.866 50.474 4.188 52.875 C2.772 56.601 0.62 59.089 -2 62 C-2.443 62.557 -2.887 63.114 -3.344 63.688 C-9.266 71.057 -15.248 76.3 -24.789 77.68 C-27.425 78.062 -29.573 78.914 -32 80 C-33.371 80.552 -34.746 81.093 -36.125 81.625 C-36.788 81.885 -37.45 82.146 -38.133 82.414 C-40 83 -40 83 -43 83 C-44.74 83.078 -46.479 83.164 -48.219 83.254 C-49.233 83.304 -50.248 83.353 -51.293 83.404 C-53.431 83.51 -55.569 83.619 -57.707 83.732 C-58.722 83.781 -59.736 83.829 -60.781 83.879 C-61.246 83.902 -61.246 83.902 -63.596 84.022 C-66 84 -66 84 -69 83 C-69 82.34 -69 81.68 -69 81 C-69.743 80.897 -70.485 80.794 -71.25 80.688 C-74.17 79.957 -75.732 78.932 -78 77 C-78 77.66 -78 78.32 -78 79 C-78.66 79 -79.32 79 -80 79 C-80 78.34 -80 77.68 -80 77 C-80.66 77.165 -80.66 77.165 -84 78 C-84.268 77.361 -84.536 76.721 -84.812 76.062 C-86 74 -86 74 -89 73 C-91.467 71.804 -93.666 70.47 -96 69 C-96.33 68.01 -96.66 67.02 -97 66 C-99.253 65.087 -101.517 64.542 -103.871 63.941 C-106 63 -106 63 -107.285 60.902 C-107.521 60.275 -107.757 59.647 -108 59 C-108.66 59 -109.32 59 -110 59 C-110.66 58.34 -111.32 57.68 -112 57 C-112 55.68 -112 54.36 -112 53 C-112.66 52.67 -113.32 52.34 -114 52 C-113.34 51.34 -112.68 50.68 -112 50 C-111.657 50.473 -111.314 50.946 -110.961 51.434 C-106.573 56.978 -101.666 60.423 -95.625 63.941 C-94.037 64.888 -92.512 65.937 -91 67 C-91 67.99 -91 68.98 -91 70 C-90.492 70.126 -89.984 70.253 -89.461 70.383 C-89.055 70.485 -89.055 70.485 -87 71 C-85.858 71.286 -84.716 71.572 -83.539 71.867 C-82.234 72.203 -80.93 72.539 -79.625 72.875 C-78.978 73.036 -78.331 73.197 -77.664 73.363 C-74.564 74.17 -71.928 75.041 -69.129 76.617 C-64.795 78.533 -60.993 78.368 -56.312 78.25 C-55.418 78.235 -54.523 78.221 -53.601 78.206 C-51.066 78.155 -48.534 78.08 -46 78 C-44.935 77.981 -43.87 77.961 -42.773 77.941 C-35.806 77.594 -29.599 75.403 -23.09 73.059 C-20 72 -20 72 -18 72 C-18 71.01 -18 70.02 -18 69 C-16.616 68.055 -15.225 67.119 -13.797 66.242 C-10.034 63.641 -6.061 60.122 -4 56 C-3.34 56 -2.68 56 -2 56 C-1.938 55.68 -1.938 55.68 -1.625 54.062 C-1.419 53.382 -1.213 52.701 -1 52 C-0.34 51.67 0.32 51.34 1 51 C4.349 41.858 5.962 32.748 5 23 C4.67 22.67 4.34 22.34 4 22 C3.647 20.007 3.343 18.005 3.062 16 C2.269 10.59 1.262 5.318 0 0 Z " fill="#DFD2A3" transform="translate(166,159)"/>
<path d="M0 0 C3.549 3.105 4.894 4.518 5.312 9.375 C5 12.75 5 12.75 3 14.75 C3 14.09 3 13.43 3 12.75 C1.68 13.08 0.36 13.41 -1 13.75 C-1.165 13.42 -1.165 13.42 -2 11.75 C-2.928 11.915 -3.856 12.08 -4.812 12.25 C-8 12.75 -8 12.75 -11 12.75 C-12.597 14.125 -14.131 15.576 -15.625 17.062 C-22.832 23.726 -29.436 24.991 -39 25.75 C-39 25.09 -39 24.43 -39 23.75 C-40.65 23.42 -42.3 23.09 -44 22.75 C-44 22.09 -44 21.43 -44 20.75 C-44.638 20.617 -45.276 20.484 -45.934 20.348 C-46.76 20.171 -47.586 19.994 -48.438 19.812 C-48.849 19.725 -48.849 19.725 -50.934 19.285 C-53 18.75 -53 18.75 -54 17.75 C-54.041 15.75 -54.043 13.75 -54 11.75 C-53.316 12.072 -52.631 12.395 -51.926 12.727 C-45.409 15.006 -36.859 15.054 -30.5 12.188 C-27.112 10.166 -24.925 7.478 -22.477 4.434 C-16.713 -2.138 -7.966 -3.319 0 0 Z " fill="#DAD19D" transform="translate(112,103.25)"/>
<path d="M0 0 C-1.312 1.5 -1.312 1.5 -3 3 C-3.99 3 -4.98 3 -6 3 C-5.835 3.495 -5.835 3.495 -5 6 C-5.454 5.876 -5.454 5.876 -7.75 5.25 C-11 5 -11 5 -13.375 6.938 C-13.911 7.618 -14.447 8.299 -15 9 C-15.165 8.67 -15.165 8.67 -16 7 C-17.65 8.32 -19.3 9.64 -21 11 C-21.66 10.34 -22.32 9.68 -23 9 C-26.411 9.359 -28.999 10.406 -32 12 C-32.846 12.268 -33.691 12.536 -34.562 12.812 C-37.632 14.308 -38.498 15.997 -40 19 C-41.32 18.67 -42.64 18.34 -44 18 C-43.67 19.32 -43.34 20.64 -43 22 C-44.32 22 -45.64 22 -47 22 C-46.67 22.99 -46.34 23.98 -46 25 C-48.31 25.99 -50.62 26.98 -53 28 C-52.67 28.33 -52.34 28.66 -52 29 C-51.67 29 -51.34 29 -51 29 C-51 31.31 -51 33.62 -51 36 C-51.99 36 -52.98 36 -54 36 C-54.33 35.67 -54.66 35.34 -55 35 C-55.578 35.681 -56.155 36.361 -56.75 37.062 C-57.492 37.702 -58.235 38.341 -59 39 C-61.141 38.621 -61.141 38.621 -63 38 C-64.517 34.133 -65.665 30.713 -64.113 26.715 C-62.562 24.305 -60.871 22.172 -59 20 C-58.39 19.246 -57.781 18.492 -57.152 17.715 C-42.299 1.03 -20.9 -0.578 0 0 Z " fill="#B0DA36" transform="translate(116,59)"/>
<path d="M0 0 C10.705 2.533 21.858 7.235 29.203 15.758 C29.038 18.404 28.571 19.433 26.578 21.195 C26.124 21.711 25.671 22.227 25.203 22.758 C25.578 25.32 25.578 25.32 26.203 27.758 C24.811 30.542 23.047 30.737 20.203 31.758 C19.213 30.768 18.223 29.778 17.203 28.758 C16.543 29.418 15.883 30.078 15.203 30.758 C14.873 30.098 14.543 29.438 14.203 28.758 C13.543 28.758 12.883 28.758 12.203 28.758 C12.203 29.418 12.203 30.078 12.203 30.758 C11.543 31.418 10.883 32.078 10.203 32.758 C9.213 32.758 8.223 32.758 7.203 32.758 C7.533 31.603 7.533 31.603 9.203 25.758 C9.863 25.758 10.523 25.758 11.203 25.758 C11.203 26.418 11.203 27.078 11.203 27.758 C11.863 27.758 12.523 27.758 13.203 27.758 C13.533 27.098 13.863 26.438 14.203 25.758 C13.688 25.345 13.172 24.933 12.641 24.508 C12.166 23.93 11.692 23.353 11.203 22.758 C11.516 20.57 11.516 20.57 12.203 18.758 C11.213 19.088 10.223 19.418 9.203 19.758 C9.533 18.438 9.863 17.118 10.203 15.758 C10.203 16.418 10.203 17.078 10.203 17.758 C10.863 17.758 11.523 17.758 12.203 17.758 C12.203 17.098 12.203 16.438 12.203 15.758 C6.453 13.758 6.453 13.758 4.203 13.758 C3.543 13.098 2.883 12.438 2.203 11.758 C0.078 11.133 0.078 11.133 -1.797 10.758 C-2.127 11.418 -2.457 12.078 -2.797 12.758 C-3.065 12.118 -3.333 11.479 -3.609 10.82 C-4.797 8.758 -4.797 8.758 -7.797 7.758 C-5.471 -0.474 -5.471 -0.474 0 0 Z " fill="#9FD11E" transform="translate(120.796875,60.2421875)"/>
<path d="M0 0 C3.098 0.334 6.139 1.053 9.188 1.688 C10.039 1.849 10.89 2.011 11.768 2.178 C18.059 3.477 22.782 5.094 26.812 10.375 C28.119 13.263 28.635 15.861 29 19 C29.248 18.237 29.495 17.474 29.75 16.688 C31.11 13.764 32.316 12.7 35 11 C36.993 16.979 36.949 20.152 35 26 C35.66 26.33 36.32 26.66 37 27 C36.526 27.454 36.051 27.907 35.562 28.375 C34 30 34 30 33 32 C32.01 32 31.02 32 30 32 C30 32.66 30 33.32 30 34 C29.257 34.124 28.515 34.248 27.75 34.375 C25 35 25 35 23.188 36.125 C20.216 37.314 17.999 36.722 14.891 36.227 C12.69 35.963 11.097 36.326 9 37 C7.333 37 5.667 37 4 37 C3.957 35.334 3.959 33.666 4 32 C5.988 30.012 9.762 30.566 12.457 30.379 C17.277 29.661 21.166 26.917 25 24 C26.375 21.25 26.375 21.25 27 19 C25.35 19 23.7 19 22 19 C22 17.68 22 16.36 22 15 C21.175 14.835 21.175 14.835 17 14 C17 12.68 17 11.36 17 10 C14.69 10 12.38 10 10 10 C9.67 9.01 9.34 8.02 9 7 C6.68 5.969 4.346 4.971 2 4 C0.062 2.312 0.062 2.312 -1 1 C-0.67 0.67 -0.34 0.34 0 0 Z " fill="#A9D92C" transform="translate(94,159)"/>
<path d="M0 0 C4.423 2.396 6.034 5.447 8 10 C5 11 5 11 2.625 10.5 C-0.261 9.95 -2.162 10.386 -5 11 C-5.66 10.67 -6.32 10.34 -7 10 C-7 10.99 -7 11.98 -7 13 C-6.34 13.33 -5.68 13.66 -5 14 C-5.66 15.32 -6.32 16.64 -7 18 C-7.33 17.34 -7.66 16.68 -8 16 C-14.75 16.75 -14.75 16.75 -17 19 C-17.33 19.99 -17.66 20.98 -18 22 C-19.656 22.382 -21.325 22.714 -23 23 C-23.33 22.67 -23.66 22.34 -24 22 C-24.33 23.98 -24.66 25.96 -25 28 C-27.522 24.218 -27.693 21.369 -27 17 C-24.467 9.019 -20.288 4.88 -13 1 C-9.055 -0.972 -4.3 -0.442 0 0 Z " fill="#A6D527" transform="translate(74,171)"/>
<path d="M0 0 C1.863 0.125 1.863 0.125 4 1 C7.235 7.901 8.393 15.467 9 23 C9.33 23.99 9.66 24.98 10 26 C9.238 33.152 7.242 40.464 3.375 46.562 C1.625 49.665 1.345 52.484 1 56 C-1.992 54.636 -4.29 53.051 -6.75 50.875 C-7.364 50.336 -7.977 49.797 -8.609 49.242 C-9.068 48.832 -9.527 48.422 -10 48 C-9.403 44.727 -8.332 42.952 -6.188 40.438 C2.06 29.507 2.06 17.216 1 4 C0.698 2.659 0.375 1.322 0 0 Z " fill="#DDD1A2" transform="translate(160,92)"/>
<path d="M0 0 C0.336 -0.01 0.336 -0.01 2.039 -0.062 C5.161 -0.087 7.329 0.091 10.102 1.578 C11.625 3.25 11.625 3.25 11.625 6.25 C12.615 6.25 13.605 6.25 14.625 6.25 C16.232 9.465 15.682 12.686 15.625 16.25 C15.068 15.487 14.511 14.724 13.938 13.938 C10.907 10.415 8.855 8.606 4.176 7.859 C-2.332 7.46 -6.323 8.693 -11.523 12.598 C-13.375 14.25 -13.375 14.25 -15.438 16.875 C-19.115 21.383 -23.072 23.016 -28.832 23.602 C-39.314 23.843 -39.314 23.843 -44.375 20.25 C-41.912 19.019 -40.095 19.178 -37.375 19.25 C-37.375 18.59 -37.375 17.93 -37.375 17.25 C-36.651 17.224 -35.926 17.198 -35.18 17.172 C-28.411 16.775 -23.771 16.065 -19.047 10.758 C-17.813 9.264 -16.593 7.757 -15.375 6.25 C-11.875 3.25 -11.875 3.25 -9.375 3.25 C-9.375 2.59 -9.375 1.93 -9.375 1.25 C-6.372 -0.251 -3.291 0.025 0 0 Z " fill="#558304" transform="translate(102.375,94.75)"/>
<path d="M0 0 C0.66 1.32 1.32 2.64 2 4 C2.99 4 3.98 4 5 4 C5 4.66 5 5.32 5 6 C5.825 6.33 5.825 6.33 10 8 C10 9.32 10 10.64 10 12 C12.867 11.427 13.861 11.139 16 9 C16 10.65 16 12.3 16 14 C16.598 13.67 17.196 13.34 17.812 13 C20 12 20 12 23 12 C22.67 11.01 22.34 10.02 22 9 C25.006 5.994 27.824 6.404 32 6 C32.66 6.99 33.32 7.98 34 9 C34.99 9.33 35.98 9.66 37 10 C36.67 10.66 36.34 11.32 36 12 C38.31 12.99 40.62 13.98 43 15 C41.814 18.375 40.724 20.647 38 23 C38.33 21.68 38.66 20.36 39 19 C38.34 19 37.68 19 37 19 C36.835 19.495 36.835 19.495 36 22 C32.937 23.188 32.937 23.188 30 24 C29.67 23.01 29.34 22.02 29 21 C26.305 20.086 26.305 20.086 22.875 19.375 C21.699 19.125 20.524 18.875 19.312 18.617 C16.824 18.153 14.388 17.771 11.875 17.5 C9 17 9 17 7.062 15.562 C6 14 6 14 6 12 C4.68 12.33 3.36 12.66 2 13 C-0.248 8.503 -0.167 4.921 0 0 Z M25 21 C26.32 21.33 27.64 21.66 29 22 C28.67 22.66 28.34 23.32 28 24 C27.01 23.67 26.02 23.34 25 23 C25 22.34 25 21.68 25 21 Z " fill="#9ACE15" transform="translate(49,191)"/>
<path d="M0 0 C1.65 0 3.3 0 5 0 C5 0.99 5 1.98 5 3 C5.66 3 6.32 3 7 3 C7 3.66 7 4.32 7 5 C6.34 5 5.68 5 5 5 C5 5.66 5 6.32 5 7 C4.34 7 3.68 7 3 7 C2.67 9.97 2.34 12.94 2 16 C1.34 16 0.68 16 0 16 C-0.165 16.495 -0.165 16.495 -1 19 C-3.066 20.168 -3.066 20.168 -5.562 21.188 C-6.389 21.532 -7.215 21.876 -8.066 22.23 C-8.385 22.357 -8.385 22.357 -10 23 C-10 22.34 -10 21.68 -10 21 C-10.99 21.66 -11.98 22.32 -13 23 C-14.655 23.385 -16.322 23.728 -18 24 C-18.33 25.32 -18.66 26.64 -19 28 C-19.66 28 -20.32 28 -21 28 C-21.33 28.99 -21.66 29.98 -22 31 C-22.99 31 -23.98 31 -25 31 C-24.67 31.99 -24.34 32.98 -24 34 C-25.75 36.062 -25.75 36.062 -28 38 C-30.125 38 -30.125 38 -32 37 C-34.054 34.458 -34 32.855 -34 29.562 C-32.987 25.953 -31.98 24.241 -28.965 22 C-25.214 20.091 -21.137 19.548 -17 19 C-17.66 18.34 -18.32 17.68 -19 17 C-17.948 17.062 -16.896 17.124 -15.812 17.188 C-10.538 16.928 -8.354 15.071 -4.312 11.875 C-1.299 8.128 -0.683 4.68 0 0 Z " fill="#ADDA31" transform="translate(122,106)"/>
<path d="M0 0 C0.33 0.33 0.33 0.33 2 2 C1.817 11.856 -2.717 21.528 -9 29 C-9.66 29 -10.32 29 -11 29 C-11.206 29.557 -11.412 30.114 -11.625 30.688 C-13.503 33.846 -16.188 35.667 -19 38 C-19.33 38.99 -19.66 39.98 -20 41 C-30.613 48.364 -43.545 49.183 -56 49.125 C-56.857 49.129 -57.714 49.133 -58.598 49.137 C-64.873 49.127 -64.873 49.127 -66 48 C-67.682 47.767 -69.371 47.587 -71.062 47.438 C-71.982 47.354 -72.901 47.27 -73.848 47.184 C-74.203 47.153 -74.203 47.153 -76 47 C-76 46.34 -76 45.68 -76 45 C-75.638 45.008 -75.638 45.008 -73.804 45.048 C-70.453 45.111 -67.102 45.149 -63.75 45.188 C-63.18 45.2 -63.18 45.2 -60.297 45.264 C-43.885 45.404 -27.236 40.277 -14.914 29.109 C-7.297 21.229 -1.943 10.793 0 0 Z " fill="#BEB170" transform="translate(168,186)"/>
<path d="M0 0 C1 3 1 3 0.102 5.129 C-9.022 20.165 -20.953 30.114 -38.21 34.571 C-58.939 39.158 -80.94 36.366 -99 25 C-104.561 20.881 -109.836 16.757 -112 10 C-111.34 10.681 -110.68 11.361 -110 12.062 C-109.005 13.047 -108.004 14.025 -107 15 C-106.43 15.554 -105.86 16.109 -105.273 16.68 C-99.519 22.008 -92.039 28.358 -83.812 28.375 C-82.884 28.251 -81.956 28.127 -81 28 C-81 27.67 -81 27.34 -81 27 C-75.473 26.806 -71.244 27.252 -66 29 C-66 29.33 -66 29.66 -66 30 C-66.99 30.165 -66.99 30.165 -72 31 C-71 32 -71 32 -68.07 32.133 C-33.162 32.064 -33.162 32.064 -25 28 C-24.835 27.505 -24.835 27.505 -24 25 C-22.019 23.767 -19.989 22.612 -17.938 21.5 C-9.071 16.397 -4.407 9.107 0 0 Z " fill="#4E6D0A" transform="translate(164,196)"/>
<path d="M0 0 C4.691 4.293 6.094 9.749 6.469 15.918 C6.503 17.674 6.513 19.431 6.5 21.188 C6.494 22.11 6.489 23.033 6.483 23.983 C6.206 34.616 3.36 43.8 -4.152 51.676 C-7.075 53.77 -9.562 53.561 -13 53 C-12.633 46.876 -11.213 44.213 -7 40 C-6.34 40 -5.68 40 -5 40 C-4.897 39.072 -4.794 38.144 -4.688 37.188 C-3.95 33.769 -3.386 33.287 -1 31 C-0.375 28.688 -0.375 28.688 0 26 C0.093 25.546 0.093 25.546 0.562 23.25 C1.023 19.829 1.034 16.591 0.938 13.148 C1 11 1 11 1.559 8.961 C2.282 5.749 1 3.057 0 0 Z " fill="#6B9F04" transform="translate(156,85)"/>
<path d="M0 0 C1.32 0.33 2.64 0.66 4 1 C4 2.98 4 4.96 4 7 C4.99 6.67 5.98 6.34 7 6 C8.562 11.773 9.175 16.951 8.875 22.934 C9 25 9 25 11 27 C11.373 31.855 10.73 35.482 9 40 C8.67 41.031 8.34 42.062 8 43.125 C7.15 45.567 6.151 47.697 5 50 C4.732 50.949 4.464 51.898 4.188 52.875 C2.772 56.601 0.62 59.089 -2 62 C-2.443 62.557 -2.887 63.114 -3.344 63.688 C-7.299 68.61 -11.916 72.283 -17 76 C-17 73 -17 73 -15.823 71.514 C-15.553 71.259 -15.553 71.259 -14.191 69.969 C-13.9 69.687 -13.9 69.687 -12.428 68.262 C-11.812 67.68 -11.197 67.099 -10.562 66.5 C-9.351 65.348 -8.144 64.192 -6.941 63.031 C-6.402 62.521 -5.863 62.012 -5.307 61.486 C-4 60 -4 60 -3 57 C-2.67 56.835 -2.67 56.835 -1 56 C-0.055 53.587 0.78 51.215 1.562 48.75 C1.784 48.081 2.005 47.412 2.232 46.723 C4.188 40.707 5.139 35.576 5.125 29.25 C5.128 28.1 5.13 26.95 5.133 25.766 C5 23 5 23 4 22 C3.647 20.007 3.343 18.005 3.062 16 C2.269 10.59 1.262 5.318 0 0 Z " fill="#EBDFB9" transform="translate(166,159)"/>
<path d="M0 0 C6.275 -0.303 11.453 0.58 16.699 4.191 C20.661 8.313 21.13 12.738 21.035 18.273 C20.699 20.191 20.699 20.191 18.699 22.191 C18.369 17.901 18.039 13.611 17.699 9.191 C16.709 9.191 15.719 9.191 14.699 9.191 C14.41 8.552 14.122 7.913 13.824 7.254 C12.699 5.191 12.699 5.191 10.699 4.191 C7.816 4.119 4.957 4.098 2.074 4.129 C1.673 4.131 1.673 4.131 -0.355 4.143 C-2.337 4.154 -4.319 4.172 -6.301 4.191 C-6.301 4.851 -6.301 5.511 -6.301 6.191 C-9.762 9.191 -9.762 9.191 -12.301 9.191 C-12.559 9.786 -12.816 10.38 -13.082 10.992 C-14.399 13.369 -15.714 14.659 -17.801 16.379 C-18.409 16.888 -19.018 17.397 -19.645 17.922 C-23.248 20.684 -26.68 20.515 -31.086 20.812 C-31.817 20.938 -32.548 21.063 -33.301 21.191 C-33.631 21.851 -33.961 22.511 -34.301 23.191 C-39.351 23.888 -39.351 23.888 -42.301 23.191 C-44.951 20.906 -46.9 18.403 -48.301 15.191 C-47.953 12.926 -47.953 12.926 -47.301 11.191 C-46.971 11.686 -46.971 11.686 -45.301 14.191 C-41.692 16.69 -37.556 16.844 -33.301 17.191 C-32.574 17.292 -31.847 17.392 -31.098 17.496 C-26.127 17.931 -23.443 17.006 -19.426 14.004 C-16.322 11.348 -14.186 8.851 -12.301 5.191 C-11.641 5.191 -10.981 5.191 -10.301 5.191 C-10.095 4.552 -9.888 3.913 -9.676 3.254 C-8.301 1.191 -8.301 1.191 -5.801 0.441 C-3.867 0.303 -1.933 0.161 0 0 Z " fill="#7EB603" transform="translate(99.30078125,91.80859375)"/>
<path d="M0 0 C0.66 0.33 1.32 0.66 2 1 C0.88 2.006 -0.246 3.005 -1.375 4 C-2.001 4.557 -2.628 5.114 -3.273 5.688 C-5 7 -5 7 -7 7 C-7 7.99 -7 8.98 -7 10 C-13.09 16.287 -21.697 17.445 -30.062 17.688 C-30.875 17.719 -31.688 17.75 -32.525 17.782 C-35.017 17.87 -37.508 17.936 -40 18 C-40.786 18.027 -41.572 18.054 -42.382 18.083 C-44.588 18.157 -46.793 18.208 -49 18.25 C-50.279 18.276 -51.558 18.302 -52.875 18.328 C-56 18 -56 18 -57.938 16.484 C-58.113 16.239 -58.113 16.239 -59 15 C-53.795 14.262 -48.693 13.869 -43.44 13.71 C-27.471 13.203 -12.798 10.289 0 0 Z " fill="#6B9C02" transform="translate(149,211)"/>
<path d="M0 0 C5.399 4.435 8.008 11.21 9 18 C9.623 27.59 10.093 38.09 6 47 C5.031 48.03 4.029 49.03 3 50 C1.991 51.438 1.013 52.898 0.062 54.375 C-0.466 55.173 -0.995 55.971 -1.539 56.793 C-2.021 57.521 -2.503 58.25 -3 59 C-6.356 63.977 -10.81 67.085 -16 70 C-16.66 70 -17.32 70 -18 70 C-18 69.34 -18 68.68 -18 68 C-17.093 67.423 -16.185 66.845 -15.25 66.25 C-11.706 63.797 -10.252 61.632 -8 58 C-7.598 57.546 -7.598 57.546 -5.562 55.25 C-1.131 50.05 1.897 43.728 3 37 C3.66 37 4.32 37 5 37 C5.259 33.689 5.476 30.377 5.688 27.062 C5.76 26.136 5.833 25.21 5.908 24.256 C6.422 15.648 4.624 9.267 0 2 C0 1.34 0 0.68 0 0 Z " fill="#719115" transform="translate(160,150)"/>
<path d="M0 0 C0 0.99 0 1.98 0 3 C0.66 3.33 1.32 3.66 2 4 C1.432 4.049 0.863 4.098 0.277 4.148 C-4.701 4.63 -9.276 5.327 -14 7 C-14.33 7.66 -14.66 8.32 -15 9 C-15.66 9 -16.32 9 -17 9 C-17.093 9.351 -17.093 9.351 -17.562 11.125 C-20.036 16.071 -24.471 18.981 -29 22 C-31.961 22.266 -31.961 22.266 -35.375 22.25 C-35.936 22.253 -35.936 22.253 -38.773 22.266 C-41.961 22.003 -44.123 21.341 -47 20 C-47.443 19.825 -47.443 19.825 -49.688 18.938 C-52 18 -52 18 -54 17 C-54 12.38 -54 7.76 -54 3 C-53.34 2.67 -52.68 2.34 -52 2 C-52 5.63 -52 9.26 -52 13 C-48.713 14.644 -46.521 15.413 -43 16 C-42.67 16.99 -42.34 17.98 -42 19 C-35.67 20.365 -35.67 20.365 -32.25 18.5 C-31.507 18.005 -30.765 17.51 -30 17 C-29.01 17.33 -28.02 17.66 -27 18 C-26.67 17.01 -26.34 16.02 -26 15 C-25.01 15 -24.02 15 -23 15 C-21.875 11.25 -21.875 11.25 -23 9 C-22.34 9 -21.68 9 -21 9 C-21 8.34 -21 7.68 -21 7 C-20.34 7.33 -19.68 7.66 -19 8 C-17.348 6.348 -16.827 4.151 -16 2 C-15.34 2 -14.68 2 -14 2 C-14 2.66 -14 3.32 -14 4 C-13.01 3.34 -12.02 2.68 -11 2 C-9.333 2 -7.667 2 -6 2 C-3 0 -3 0 0 0 Z " fill="#93C80E" transform="translate(104,88)"/>
<path d="M0 0 C1.65 0.99 3.3 1.98 5 3 C4.67 2.01 4.34 1.02 4 0 C10.489 -0.312 15.308 -0.493 21 3 C22.176 3.454 23.351 3.907 24.562 4.375 C28.758 6.358 31.895 8.791 34 13 C34.134 15.672 34.043 18.323 34 21 C33.608 20.443 33.216 19.886 32.812 19.312 C28.47 13.772 24.918 10.618 17.879 9.508 C16.784 9.381 15.69 9.255 14.562 9.125 C9.259 8.357 5.955 7.634 2 4 C0.625 1.75 0.625 1.75 0 0 Z " fill="#669903" transform="translate(89,153)"/>
<path d="M0 0 C1.938 1.688 1.938 1.688 3.938 4.688 C2.875 4.725 1.813 4.762 0.719 4.801 C-9.454 5.24 -16.954 5.827 -25.062 12.688 C-29.68 15.863 -33.477 17.232 -39.062 17.688 C-39.062 17.358 -39.062 17.028 -39.062 16.688 C-41.373 16.358 -43.683 16.028 -46.062 15.688 C-46.062 15.358 -46.062 15.028 -46.062 14.688 C-45.361 14.662 -44.66 14.636 -43.938 14.609 C-36.848 14.186 -30.548 13.398 -25.484 8.008 C-24.499 6.799 -23.517 5.587 -22.539 4.371 C-16.761 -2.218 -7.957 -3.41 0 0 Z " fill="#B3AE67" transform="translate(112.0625,103.3125)"/>
<path d="M0 0 C0.33 0.495 0.33 0.495 2 3 C2.66 2.67 3.32 2.34 4 2 C4 2.66 4 3.32 4 4 C4.66 4 5.32 4 6 4 C6.289 4.32 6.289 4.32 7.75 5.938 C10.601 8.551 12.175 8.575 16 9 C17.711 9.295 19.42 9.609 21.125 9.938 C21.953 10.091 22.78 10.244 23.633 10.402 C25.983 10.996 27.883 11.834 30 13 C29.34 13.33 29.34 13.33 26 15 C26.66 15.33 27.32 15.66 28 16 C28 16.66 28 17.32 28 18 C32.425 19.39 36.739 18.933 41.32 18.742 C42.205 18.827 43.089 18.912 44 19 C44.66 19.99 45.32 20.98 46 22 C46.99 21.67 47.98 21.34 49 21 C49 21.66 49 22.32 49 23 C49.66 23.33 50.32 23.66 51 24 C47.429 25.236 44.953 24.759 41.316 23.891 C40.224 23.63 39.131 23.37 38.006 23.102 C36.87 22.821 35.733 22.54 34.562 22.25 C33.43 21.984 32.298 21.719 31.131 21.445 C23.189 19.517 17.77 16.566 11 12 C11 12.66 11 13.32 11 14 C6.205 11.945 2.749 8.399 0 4 C0 2.68 0 1.36 0 0 Z " fill="#85BB04" transform="translate(49,199)"/>
<path d="M0 0 C0.165 0.33 0.165 0.33 1 2 C-6.286 5.429 -6.286 5.429 -11 5 C-11 5.66 -11 6.32 -11 7 C-12.32 7 -13.64 7 -15 7 C-15 7.66 -15 8.32 -15 9 C-15.66 9 -16.32 9 -17 9 C-17.33 9.99 -17.66 10.98 -18 12 C-22.333 15 -22.333 15 -25 15 C-25.33 15.99 -25.66 16.98 -26 18 C-26.99 18.33 -27.98 18.66 -29 19 C-30.188 21.062 -30.188 21.062 -31 23 C-31.66 23 -32.32 23 -33 23 C-33.66 24.32 -34.32 25.64 -35 27 C-35.66 27 -36.32 27 -37 27 C-37.33 27.99 -37.66 28.98 -38 30 C-38.33 30 -38.66 30 -39 30 C-39.361 25.154 -38.662 22.732 -35.812 18.812 C-35.221 17.973 -34.629 17.134 -34.02 16.27 C-31.878 13.863 -29.779 12.584 -27 11 C-26.67 10.34 -26.34 9.68 -26 9 C-23.973 8.126 -21.909 7.47 -19.812 6.781 C-18 6 -18 6 -17 4 C-14.143 3.199 -11.333 2.503 -8.438 1.875 C-7.631 1.693 -6.825 1.511 -5.994 1.324 C-3.998 0.875 -1.999 0.437 0 0 Z " fill="#C2E555" transform="translate(94,62)"/>
<path d="M0 0 C3.098 0.334 6.139 1.053 9.188 1.688 C10.039 1.849 10.89 2.011 11.768 2.178 C18.089 3.483 22.691 5.152 26.875 10.312 C28.282 13.674 28.212 16.392 28 20 C26.02 19.67 24.04 19.34 22 19 C22 17.68 22 16.36 22 15 C21.175 14.835 21.175 14.835 17 14 C17 12.68 17 11.36 17 10 C14.69 10 12.38 10 10 10 C9.67 9.01 9.34 8.02 9 7 C6.68 5.969 4.346 4.971 2 4 C0.062 2.312 0.062 2.312 -1 1 C-0.67 0.67 -0.34 0.34 0 0 Z " fill="#D7CD95" transform="translate(94,159)"/>
<path d="M0 0 C0.66 0.33 1.32 0.66 2 1 C1.567 1.436 1.134 1.871 0.688 2.32 C-4.013 7.347 -4.013 7.347 -3.938 11.125 C-4 14 -4 14 -5.43 15.449 C-10.556 19.161 -14.502 20.169 -20.875 20.25 C-22.089 20.276 -23.304 20.302 -24.555 20.328 C-28.207 19.98 -30.059 19.125 -33 17 C-30.537 15.769 -28.72 15.928 -26 16 C-26 15.34 -26 14.68 -26 14 C-25.276 13.974 -24.551 13.948 -23.805 13.922 C-17.036 13.525 -12.396 12.815 -7.672 7.508 C-6.438 6.014 -5.218 4.507 -4 3 C-1.688 1.125 -1.688 1.125 0 0 Z " fill="#629303" transform="translate(91,98)"/>
<path d="M0 0 C0.99 0.33 1.98 0.66 3 1 C5.688 0.562 5.688 0.562 8 0 C8.33 0.99 8.66 1.98 9 3 C10.32 2.67 11.64 2.34 13 2 C12.812 3.812 12.812 3.812 12 6 C8.41 8.595 5.487 9.433 1.125 9.938 C-2.699 10.486 -5.606 11.046 -8.875 13.125 C-12.289 15.173 -14.097 15.381 -18 15 C-15.631 11.447 -13.77 10.885 -10 9 C-8.158 7.498 -6.364 5.934 -4.625 4.312 C-3.751 3.504 -2.877 2.696 -1.977 1.863 C-1.324 1.248 -0.672 0.634 0 0 Z " fill="#F4F0CF" transform="translate(102,114)"/>
<path d="M0 0 C0.368 0.005 0.368 0.005 2.23 0.027 C4.029 0.051 5.827 0.087 7.625 0.125 C7.79 0.785 7.79 0.785 8.625 4.125 C8.223 4.043 8.223 4.043 6.188 3.625 C-0.722 2.655 -6.315 2.173 -12.375 6.125 C-14.118 7.617 -15.816 9.131 -17.469 10.723 C-24.03 15.549 -32.655 14.704 -40.375 14.125 C-43.094 13.399 -44.936 12.553 -47.375 11.125 C-46.715 10.465 -46.055 9.805 -45.375 9.125 C-42.844 9.332 -42.844 9.332 -39.875 9.938 C-39.385 10.034 -39.385 10.034 -36.906 10.52 C-34.375 11.125 -34.375 11.125 -32.375 12.125 C-26.298 10.389 -21.876 7.565 -16.867 3.746 C-11.368 0.169 -6.344 -0.149 0 0 Z " fill="#CEC488" transform="translate(108.375,107.875)"/>
<path d="M0 0 C0.33 0 0.66 0 1 0 C1.11 0.675 1.219 1.351 1.332 2.047 C1.491 2.939 1.649 3.831 1.812 4.75 C1.963 5.632 2.114 6.513 2.27 7.422 C3.073 10.257 3.948 11.89 6 14 C9.757 14.335 12.42 14.193 16 13 C16 13.66 16 14.32 16 15 C17.32 14.67 18.64 14.34 20 14 C20 14.66 20 15.32 20 16 C23.3 16 26.6 16 30 16 C30.33 17.32 30.66 18.64 31 20 C32.65 20.33 34.3 20.66 36 21 C36.165 21.495 36.165 21.495 37 24 C37.66 24.66 38.32 25.32 39 26 C39.266 28.645 39.266 28.645 39.25 31.812 C39.253 32.331 39.253 32.331 39.266 34.957 C38.998 38.019 38.291 40.229 37 43 C36.67 43 36.34 43 36 43 C36.023 42.047 36.046 41.095 36.07 40.113 C36.088 38.859 36.106 37.605 36.125 36.312 C36.148 35.071 36.171 33.83 36.195 32.551 C36.009 29.161 35.583 26.978 34 24 C31.937 22.938 31.937 22.938 29 22 C27.431 21.327 25.869 20.638 24.312 19.938 C23.546 19.596 22.779 19.254 21.988 18.902 C20.647 18.294 19.317 17.659 18 17 C16.293 16.93 14.583 16.916 12.875 16.938 C11.965 16.947 11.055 16.956 10.117 16.965 C9.768 16.971 9.768 16.971 8 17 C8 17.66 8 18.32 8 19 C5.125 18.312 5.125 18.312 2 17 C-0.062 13.202 -0.219 9.956 -0.125 5.688 C-0.107 4.619 -0.089 3.55 -0.07 2.449 C-0.047 1.641 -0.024 0.833 0 0 Z " fill="#81B509" transform="translate(86,137)"/>
<path d="M0 0 C2.606 0.618 5.21 1.244 7.812 1.875 C8.55 2.049 9.288 2.223 10.049 2.402 C13.497 3.245 16.019 4.013 19 6 C21.008 6.379 21.008 6.379 23.125 6.562 C27 7 27 7 28 8 C31.009 8.102 33.991 8.139 37 8.125 C37.413 8.127 37.413 8.127 39.504 8.137 C53.778 8.114 53.778 8.114 58.117 5.938 C60 5 60 5 62.25 5.375 C62.827 5.581 63.405 5.787 64 6 C62.335 6.63 60.668 7.254 59 7.875 C58.536 8.049 58.536 8.049 56.188 8.93 C48.965 11.355 42.65 12.363 35.062 12.375 C34.641 12.387 34.641 12.387 32.51 12.449 C26.952 12.475 23.017 11.44 18.047 8.98 C15.338 7.683 12.613 7.018 9.688 6.375 C6.164 5.592 3.162 4.758 0 3 C0 2.01 0 1.02 0 0 Z " fill="#D2C58E" transform="translate(75,226)"/>
<path d="M0 0 C0.33 0.34 0.33 0.34 2 2.062 C2.995 3.047 3.996 4.025 5 5 C5.285 5.277 5.285 5.277 6.727 6.68 C12.481 12.008 19.961 18.358 28.188 18.375 C29.116 18.251 30.044 18.127 31 18 C31 17.67 31 17.34 31 17 C36.527 16.806 40.756 17.252 46 19 C46 19.33 46 19.66 46 20 C45.01 20.165 45.01 20.165 40 21 C41 22 41 22 43.317 22.114 C43.817 22.111 43.817 22.111 46.348 22.098 C47.427 22.094 48.507 22.091 49.619 22.088 C50.755 22.08 51.892 22.071 53.062 22.062 C54.203 22.058 55.343 22.053 56.518 22.049 C59.345 22.037 62.173 22.021 65 22 C65 22.33 65 22.66 65 23 C46.31 26.531 29.372 25.545 13 15 C7.432 10.905 2.16 6.745 0 0 Z " fill="#5F8C03" transform="translate(52,206)"/>
<path d="M0 0 C3.459 3.148 4.942 6.477 6 11 C5.593 17.407 5.593 17.407 4 19 C3.919 20.603 3.861 22.208 3.812 23.812 C3.127 32.033 -0.272 39.784 -6.375 45.438 C-9 48 -9 48 -9.375 50.875 C-9.313 51.226 -9.313 51.226 -9 53 C-10.32 53 -11.64 53 -13 53 C-12.633 46.876 -11.213 44.213 -7 40 C-6.34 40 -5.68 40 -5 40 C-4.897 39.072 -4.794 38.144 -4.688 37.188 C-3.95 33.769 -3.386 33.287 -1 31 C-0.375 28.688 -0.375 28.688 0 26 C0.093 25.546 0.093 25.546 0.562 23.25 C1.023 19.829 1.034 16.591 0.938 13.148 C1 11 1 11 1.559 8.961 C2.282 5.749 1 3.057 0 0 Z " fill="#81B704" transform="translate(156,85)"/>
<path d="M0 0 C-0.33 0.66 -0.66 1.32 -1 2 C-3.562 2.625 -3.562 2.625 -6 3 C-6.33 4.32 -6.66 5.64 -7 7 C-7.66 7 -8.32 7 -9 7 C-9.33 7.99 -9.66 8.98 -10 10 C-10.99 10 -11.98 10 -13 10 C-12.67 10.99 -12.34 11.98 -12 13 C-13.75 15.062 -13.75 15.062 -16 17 C-18.125 17 -18.125 17 -20 16 C-22.118 13.378 -21.994 11.843 -21.875 8.438 C-21 5 -21 5 -18.938 3.062 C-18.298 2.712 -17.659 2.361 -17 2 C-17.33 3.65 -17.66 5.3 -18 7 C-17.564 6.578 -17.129 6.157 -16.68 5.723 C-11.284 0.759 -7.324 -0.215 0 0 Z " fill="#A5D428" transform="translate(110,127)"/>
<path d="M0 0 C0.66 0 1.32 0 2 0 C1.416 6.23 -1.781 11.036 -6.379 15.105 C-13.09 20.117 -13.09 20.117 -16.684 19.656 C-17.448 19.44 -18.212 19.223 -19 19 C-21.062 19.438 -21.062 19.438 -23 20 C-24.667 20 -26.333 20 -28 20 C-28.043 18.334 -28.041 16.666 -28 15 C-26.366 13.366 -24.372 13.682 -22.125 13.5 C-19.151 13.257 -16.849 12.95 -14 12 C-13.526 11.959 -13.526 11.959 -11.125 11.75 C-7.064 10.775 -5.632 9.201 -3 6 C-1.188 2.688 -1.188 2.688 0 0 Z " fill="#B9E23E" transform="translate(126,176)"/>
<path d="M0 0 C0.536 -0.001 0.536 -0.001 3.25 -0.008 C6 0.125 6 0.125 8 1.125 C7.67 3.105 7.34 5.085 7 7.125 C6.835 6.795 6.835 6.795 6 5.125 C4.68 5.455 3.36 5.785 2 6.125 C1.835 5.795 1.835 5.795 1 4.125 C0.536 4.207 0.536 4.207 -1.812 4.625 C-5 5.125 -5 5.125 -8 5.125 C-9.597 6.5 -11.131 7.951 -12.625 9.438 C-19.832 16.101 -26.436 17.366 -36 18.125 C-36 17.465 -36 16.805 -36 16.125 C-37.65 15.795 -39.3 15.465 -41 15.125 C-41 14.465 -41 13.805 -41 13.125 C-39.926 13.232 -38.852 13.339 -37.746 13.449 C-36.31 13.571 -34.874 13.692 -33.438 13.812 C-32.733 13.885 -32.029 13.958 -31.303 14.033 C-26.119 14.439 -22.653 13.716 -18 11.125 C-15.199 8.68 -15.199 8.68 -12.688 6 C-8.16 1.216 -6.609 -0.016 0 0 Z " fill="#ECE4BC" transform="translate(109,110.875)"/>
<path d="M0 0 C7.181 0.653 13.924 1.949 20 6 C25.38 7.306 30.812 7.148 36.312 7.125 C36.762 7.127 36.762 7.127 39.037 7.137 C44.769 7.128 50.315 6.73 56 6 C55 8 55 8 52.125 9.125 C49 10 49 10 46 10 C44.26 10.078 42.521 10.164 40.781 10.254 C39.767 10.304 38.752 10.353 37.707 10.404 C35.569 10.51 33.431 10.619 31.293 10.732 C30.786 10.757 30.786 10.757 28.219 10.879 C27.29 10.926 26.361 10.973 25.404 11.022 C23 11 23 11 20 10 C20 9.34 20 8.68 20 8 C19.257 7.897 18.515 7.794 17.75 7.688 C14.83 6.957 13.268 5.932 11 4 C11 4.66 11 5.32 11 6 C10.34 6 9.68 6 9 6 C9 5.34 9 4.68 9 4 C7.68 4.33 6.36 4.66 5 5 C4.732 4.361 4.464 3.721 4.188 3.062 C3 1 3 1 0 0 Z " fill="#E5D9AD" transform="translate(77,232)"/>
<path d="M0 0 C1.32 0.33 2.64 0.66 4 1 C4 2.98 4 4.96 4 7 C4.99 6.67 5.98 6.34 7 6 C8.562 11.773 9.175 16.951 8.875 22.934 C9 25 9 25 11 27 C11.373 31.855 10.73 35.482 9 40 C8.67 41.093 8.34 42.186 8 43.312 C7 46 7 46 5 47 C5.16 46.051 5.32 45.102 5.484 44.125 C6.152 39.42 6.222 34.746 6.25 30 C6.271 29.136 6.291 28.273 6.312 27.383 C6.346 21.822 5.445 18.088 3 13 C2.382 10.702 1.816 8.389 1.312 6.062 C1.061 4.919 0.81 3.776 0.551 2.598 C0.369 1.74 0.187 0.883 0 0 Z " fill="#EEE3BD" transform="translate(166,159)"/>
<path d="M0 0 C0.33 0 0.66 0 1 0 C1.683 8.351 2.154 16.62 2 25 C1.34 25 0.68 25 0 25 C0 25.66 0 26.32 0 27 C-0.66 27 -1.32 27 -2 27 C-2.098 27.831 -2.196 28.663 -2.297 29.52 C-2.446 30.606 -2.596 31.693 -2.75 32.812 C-2.889 33.891 -3.028 34.97 -3.172 36.082 C-4.12 39.424 -5.049 40.29 -8 42 C-9.32 41.01 -10.64 40.02 -12 39 C-11.403 35.727 -10.332 33.952 -8.188 31.438 C-0.893 21.881 -0.29 11.572 0 0 Z " fill="#C7BD7F" transform="translate(162,101)"/>
<path d="M0 0 C0.66 0.33 1.32 0.66 2 1 C1.529 1.519 1.059 2.039 0.574 2.574 C-7.869 12.031 -7.869 12.031 -8.188 16.812 C-8.126 17.534 -8.064 18.256 -8 19 C-7.629 18.505 -7.258 18.01 -6.875 17.5 C-4.253 15.402 -2.262 15.783 1 16 C1 18.31 1 20.62 1 23 C0.01 23 -0.98 23 -2 23 C-2.33 22.67 -2.66 22.34 -3 22 C-3.578 22.681 -4.155 23.361 -4.75 24.062 C-5.492 24.702 -6.235 25.341 -7 26 C-9.141 25.621 -9.141 25.621 -11 25 C-12.541 21.074 -13.684 17.682 -12.043 13.645 C-8.686 8.499 -4.509 4.149 0 0 Z " fill="#A8D52D" transform="translate(64,72)"/>
<path d="M0 0 C3.225 1.806 4.563 2.789 5.812 6.25 C5.874 6.827 5.936 7.405 6 8 C-1.629 7.095 -1.629 7.095 -4.688 6.312 C-7.654 5.912 -9.275 6.842 -12 8 C-14.812 8.125 -14.812 8.125 -17 8 C-17.289 8.804 -17.578 9.609 -17.875 10.438 C-19 13 -19 13 -21 14 C-20.493 9.562 -19.012 7.263 -16 4 C-15.319 3.237 -14.639 2.474 -13.938 1.688 C-9.424 -0.905 -5.081 -0.763 0 0 Z " fill="#A8D634" transform="translate(74,171)"/>
<path d="M0 0 C0.33 0 0.66 0 1 0 C2.099 4.273 1.952 8.052 1.625 12.438 C1.535 13.715 1.445 14.992 1.352 16.309 C1.04 19.58 0.589 22.769 0 26 C-0.66 26 -1.32 26 -2 26 C-2 26.66 -2 27.32 -2 28 C-2.66 28 -3.32 28 -4 28 C-4.052 28.32 -4.052 28.32 -4.312 29.938 C-4.539 30.618 -4.766 31.299 -5 32 C-5.495 32.165 -5.495 32.165 -8 33 C-8.66 32.34 -9.32 31.68 -10 31 C-10 30.01 -10 29.02 -10 28 C-9.34 28 -8.68 28 -8 28 C-7.856 27.691 -7.856 27.691 -7.125 26.125 C-6 24 -6 24 -4 22 C-3.6 19.677 -3.26 17.343 -3 15 C-2.34 15 -1.68 15 -1 15 C-1 14.34 -1 13.68 -1 13 C-1.99 12.67 -2.98 12.34 -4 12 C-3.335 7.611 -1.812 4.019 0 0 Z " fill="#8FC60A" transform="translate(165,161)"/>
<path d="M0 0 C3.487 0.996 4.704 2.191 7.062 4.875 C8.053 5.535 9.042 6.195 10.062 6.875 C9.403 7.205 9.403 7.205 6.062 8.875 C6.062 9.535 6.062 10.195 6.062 10.875 C0.312 12 0.312 12 -1.938 10.875 C-2.267 11.535 -2.597 12.195 -2.938 12.875 C-3.206 12.236 -3.474 11.596 -3.75 10.938 C-4.938 8.875 -4.938 8.875 -7.938 7.875 C-5.644 -0.24 -5.644 -0.24 0 0 Z " fill="#A9D727" transform="translate(120.9375,60.125)"/>
<path d="M0 0 C0 3 0 3 -2 6 C-2.66 6 -3.32 6 -4 6 C-4 6.66 -4 7.32 -4 8 C-4.66 8 -5.32 8 -6 8 C-6.112 8.295 -6.112 8.295 -6.68 9.785 C-10.756 16.624 -21.088 19.634 -28.375 21.938 C-28.708 22.043 -28.708 22.043 -30.391 22.578 C-34.358 23.75 -37.872 24.211 -42 24 C-39 22 -39 22 -36 22 C-36 21.34 -36 20.68 -36 20 C-35.072 19.856 -34.144 19.711 -33.188 19.562 C-30 19 -30 19 -27 18 C-27 17.34 -27 16.68 -27 16 C-25.35 15.34 -23.7 14.68 -22 14 C-22 14.66 -22 15.32 -22 16 C-20.515 15.241 -19.037 14.467 -17.562 13.688 C-17.151 13.473 -17.151 13.473 -15.066 12.387 C-13 11 -13 11 -12 8 C-10.68 8 -9.36 8 -8 8 C-5.438 5.688 -5.438 5.688 -3 3 C-2 2 -1 1 0 0 Z " fill="#87BE04" transform="translate(155,199)"/>
<path d="M0 0 C0.413 0.454 0.825 0.907 1.25 1.375 C6.883 6.606 14.75 6.089 22.02 6.23 C24 6 24 6 27 4 C29.188 4.375 29.188 4.375 31 5 C26.391 8.76 22.998 9.496 17.074 9.727 C16.39 9.817 15.705 9.907 15 10 C14.67 10.66 14.34 11.32 14 12 C8.947 12.697 8.947 12.697 6 12 C3.379 9.697 1.513 7.14 0 4 C0 2.68 0 1.36 0 0 Z " fill="#78AC04" transform="translate(51,103)"/>
<path d="M0 0 C0.66 0.33 1.32 0.66 2 1 C0.88 2.006 -0.246 3.005 -1.375 4 C-2.001 4.557 -2.628 5.114 -3.273 5.688 C-5 7 -5 7 -7 7 C-7 7.99 -7 8.98 -7 10 C-10.833 13.957 -15.655 15.929 -21 17 C-21.99 16.67 -22.98 16.34 -24 16 C-20.37 14.68 -16.74 13.36 -13 12 C-13.639 12.144 -13.639 12.144 -16.875 12.875 C-17.697 13.055 -18.52 13.236 -19.367 13.422 C-21.083 13.799 -22.796 14.184 -24.508 14.578 C-30.131 15.812 -35.243 16.186 -41 16 C-37.88 13.92 -35.797 13.608 -32.147 13.164 C-20.228 11.688 -9.454 7.601 0 0 Z " fill="#5F8F01" transform="translate(149,211)"/>
<path d="M0 0 C0.643 0.364 1.286 0.727 1.949 1.102 C8.313 4.642 14.747 7.745 21.445 10.605 C24 12 24 12 25 15 C16.85 16.097 11.586 12.545 5 8 C2.955 6.397 1.607 5.066 0 3 C0 2.01 0 1.02 0 0 Z " fill="#6B9B04" transform="translate(59,210)"/>
<path d="M0 0 C0.33 0 0.66 0 1 0 C1.061 0.638 1.121 1.276 1.184 1.934 C1.267 2.76 1.351 3.586 1.438 4.438 C1.519 5.261 1.6 6.085 1.684 6.934 C2 9 2 9 3 10 C3.954 19.66 2.492 28.972 -1 38 C-1.99 38.66 -2.98 39.32 -4 40 C-4.33 40.99 -4.66 41.98 -5 43 C-5.66 43 -6.32 43 -7 43 C-4.441 31.716 -4.441 31.716 -1.812 26.562 C1.696 18.491 0.309 8.614 0 0 Z " fill="#D9CD9B" transform="translate(169,172)"/>
<path d="M0 0 C1.417 4.251 0.193 6.719 -1 11 C-1.66 11 -2.32 11 -3 11 C-3.103 11.402 -3.103 11.402 -3.625 13.438 C-5.407 18.055 -7.862 22.162 -11 26 C-11.66 26 -12.32 26 -13 26 C-12.67 26.99 -12.34 27.98 -12 29 C-15.259 32.52 -18.886 35.528 -23 38 C-23.66 38 -24.32 38 -25 38 C-25 37.34 -25 36.68 -25 36 C-24.093 35.423 -23.185 34.845 -22.25 34.25 C-18.706 31.797 -17.252 29.632 -15 26 C-14.196 25.093 -13.391 24.185 -12.562 23.25 C-8.131 18.05 -5.103 11.728 -4 5 C-3.34 5 -2.68 5 -2 5 C-1.856 4.361 -1.711 3.721 -1.562 3.062 C-1 1 -1 1 0 0 Z " fill="#6C9D05" transform="translate(167,182)"/>
<path d="M0 0 C0.33 0.495 0.33 0.495 2 3 C2.66 2.67 3.32 2.34 4 2 C4 2.66 4 3.32 4 4 C4.66 4 5.32 4 6 4 C8.089 5.899 9.732 7.464 11 10 C12.667 10.333 14.333 10.667 16 11 C18.022 11.954 20.028 12.945 22 14 C22 14.66 22 15.32 22 16 C23.65 16.66 25.3 17.32 27 18 C26.67 18.66 26.34 19.32 26 20 C22.301 18.627 19.049 16.936 15.688 14.875 C14.804 14.336 13.921 13.797 13.012 13.242 C12.348 12.832 11.684 12.422 11 12 C11 12.66 11 13.32 11 14 C6.205 11.945 2.749 8.399 0 4 C0 2.68 0 1.36 0 0 Z " fill="#7CB004" transform="translate(49,199)"/>
<path d="M0 0 C-2.129 4.87 -5.329 7.543 -10 10 C-13.043 10.637 -16.059 11 -19.145 11.367 C-23.665 12.369 -25.847 14.704 -29 18 C-29.33 17.01 -29.66 16.02 -30 15 C-28.688 12.438 -28.688 12.438 -26 10 C-22.706 8.99 -19.413 8.436 -16 8 C-16.66 7.34 -17.32 6.68 -18 6 C-16.948 6.062 -15.896 6.124 -14.812 6.188 C-9.872 5.945 -7.626 4.254 -3.812 1.312 C-2 0 -2 0 0 0 Z " fill="#B8E046" transform="translate(121,117)"/>
<path d="M0 0 C1.938 1.688 1.938 1.688 3.938 4.688 C2.948 4.358 1.957 4.028 0.938 3.688 C-7.922 3.108 -17.114 3.388 -25.062 7.688 C-19.033 -0.995 -9.96 -4.269 0 0 Z " fill="#ABA55C" transform="translate(112.0625,103.3125)"/>
<path d="M0 0 C0.99 0 1.98 0 3 0 C0.79 15.6 0.79 15.6 -3.625 22.562 C-5.375 25.665 -5.655 28.484 -6 32 C-7.32 31.34 -8.64 30.68 -10 30 C-9.546 28.415 -9.087 26.832 -8.625 25.25 C-8.37 24.368 -8.115 23.487 -7.852 22.578 C-7.079 20.239 -6.164 18.166 -5 16 C-4.34 16 -3.68 16 -3 16 C-2.01 10.72 -1.02 5.44 0 0 Z " fill="#EBE0B9" transform="translate(167,116)"/>
<path d="M0 0 C0 0.66 0 1.32 0 2 C-0.66 2 -1.32 2 -2 2 C-2.33 2.99 -2.66 3.98 -3 5 C-7.333 8 -7.333 8 -10 8 C-10.33 8.99 -10.66 9.98 -11 11 C-11.99 11.33 -12.98 11.66 -14 12 C-15.188 14.062 -15.188 14.062 -16 16 C-16.66 16 -17.32 16 -18 16 C-18.66 17.32 -19.32 18.64 -20 20 C-20.66 20 -21.32 20 -22 20 C-22.33 20.99 -22.66 21.98 -23 23 C-23.33 23 -23.66 23 -24 23 C-24.365 17.529 -24.365 17.529 -22.75 15.188 C-21 14 -21 14 -18.938 13.5 C-17 13 -17 13 -15 10 C-14.01 10 -13.02 10 -12 10 C-11.752 9.422 -11.505 8.845 -11.25 8.25 C-8.88 3.983 -5.167 0 0 0 Z " fill="#B7DF40" transform="translate(79,69)"/>
<path d="M0 0 C0.99 0.33 1.98 0.66 3 1 C2.381 1.083 1.763 1.165 1.125 1.25 C-1 2 -1 2 -2 3.625 C-2.33 4.409 -2.66 5.192 -3 6 C-3.701 7.093 -4.403 8.186 -5.125 9.312 C-7.228 12.911 -7.34 15.829 -7 20 C-7.66 20 -8.32 20 -9 20 C-9.33 21.98 -9.66 23.96 -10 26 C-12.518 22.223 -12.705 19.364 -12 15 C-9.624 8.019 -6.523 3.503 0 0 Z " fill="#A0CD2B" transform="translate(59,173)"/>
<path d="M0 0 C0.33 0.34 0.33 0.34 2 2.062 C2.999 3.042 3.999 4.022 5 5 C5.512 5.531 6.024 6.062 6.551 6.609 C10.92 10.833 15.684 13.645 21.062 16.375 C21.399 16.548 21.399 16.548 23.101 17.423 C27.419 19.532 31.184 20.434 36 21 C38.438 22.562 38.438 22.562 40 24 C27.707 24.63 16.023 17.916 7 10 C4.467 7.48 2.028 4.949 0 2 C0 1.34 0 0.68 0 0 Z " fill="#617C17" transform="translate(52,206)"/>
<path d="M0 0 C5.28 0 10.56 0 16 0 C16.33 1.32 16.66 2.64 17 4 C16.598 3.918 16.598 3.918 14.562 3.5 C7.653 2.53 2.06 2.048 -4 6 C-6.407 7.923 -8.726 9.921 -11 12 C-11.66 11.67 -12.32 11.34 -13 11 C-9.159 5.737 -6.488 3.168 0 2 C0 1.34 0 0.68 0 0 Z " fill="#CFC68E" transform="translate(100,108)"/>
<path d="M0 0 C0 0.99 0 1.98 0 3 C-0.66 3 -1.32 3 -2 3 C-2 2.34 -2 1.68 -2 1 C-1.34 0.67 -0.68 0.34 0 0 Z M-4 3 C-3.34 3 -2.68 3 -2 3 C-3.443 6.366 -5.333 8.51 -8 11 C-8.66 10.67 -9.32 10.34 -10 10 C-9.049 8.827 -8.089 7.662 -7.125 6.5 C-6.591 5.85 -6.058 5.201 -5.508 4.531 C-5.259 4.279 -5.259 4.279 -4 3 Z M-12 12 C-11.67 12.99 -11.34 13.98 -11 15 C-25.254 22.516 -25.254 22.516 -30.266 21.574 C-30.838 21.385 -31.41 21.195 -32 21 C-25.571 15.777 -25.571 15.777 -20.875 15.375 C-16.984 14.998 -15.124 14.246 -12 12 Z " fill="#C5B67D" transform="translate(159,212)"/>
<path d="M0 0 C0.99 0 1.98 0 3 0 C3.33 1.32 3.66 2.64 4 4 C5.65 4.33 7.3 4.66 9 5 C9.33 5.99 9.66 6.98 10 8 C10.66 8.66 11.32 9.32 12 10 C12.266 12.645 12.266 12.645 12.25 15.812 C12.255 16.85 12.26 17.888 12.266 18.957 C11.998 22.019 11.291 24.229 10 27 C9.67 27 9.34 27 9 27 C9.012 26.524 9.012 26.524 9.07 24.113 C9.088 22.859 9.106 21.605 9.125 20.312 C9.148 19.071 9.171 17.83 9.195 16.551 C9.008 13.151 8.657 10.957 7 8 C6.01 7.67 5.02 7.34 4 7 C3.301 5.684 2.633 4.35 2 3 C1.34 2.67 0.68 2.34 0 2 C0 1.34 0 0.68 0 0 Z " fill="#8BBF09" transform="translate(113,153)"/>
<path d="M0 0 C0.66 0 1.32 0 2 0 C0.125 4.75 0.125 4.75 -1 7 C-2.32 6.67 -3.64 6.34 -5 6 C-4.67 7.32 -4.34 8.64 -4 10 C-5.32 10 -6.64 10 -8 10 C-7.67 10.99 -7.34 11.98 -7 13 C-13.625 16 -13.625 16 -17 16 C-16.67 15.34 -16.34 14.68 -16 14 C-15.34 14 -14.68 14 -14 14 C-13.732 13.196 -13.464 12.391 -13.188 11.562 C-12.796 10.717 -12.404 9.871 -12 9 C-11.01 8.67 -10.02 8.34 -9 8 C-8.175 7.175 -7.35 6.35 -6.5 5.5 C-4 3 -4 3 -1 2 C-0.67 1.34 -0.34 0.68 0 0 Z " fill="#AAD62C" transform="translate(77,71)"/>
<path d="M0 0 C0.66 1.32 1.32 2.64 2 4 C2.99 4 3.98 4 5 4 C5 4.66 5 5.32 5 6 C5.99 6.33 6.98 6.66 8 7 C8.124 7.743 8.248 8.485 8.375 9.25 C8.955 11.801 9.737 13.727 11 16 C10.01 16 9.02 16 8 16 C7.34 14.68 6.68 13.36 6 12 C4.68 12.33 3.36 12.66 2 13 C-0.248 8.503 -0.167 4.921 0 0 Z " fill="#8FC30B" transform="translate(49,191)"/>
<path d="M0 0 C5.698 0.465 9.213 1.84 14 5 C15.478 7.957 15.06 10.742 15 14 C14.01 13.835 14.01 13.835 9 13 C9 11.68 9 10.36 9 9 C7.35 8.67 5.7 8.34 4 8 C5.32 7.34 6.64 6.68 8 6 C5.647 3.276 3.375 2.186 0 1 C0 0.67 0 0.34 0 0 Z " fill="#CBC381" transform="translate(107,165)"/>
<path d="M0 0 C0.66 0.66 1.32 1.32 2 2 C1.856 9.802 -0.839 18.559 -6.168 24.359 C-6.773 24.901 -7.377 25.442 -8 26 C-8.332 21.143 -7.472 18.359 -5.125 14.125 C-2.623 9.393 -1.008 5.242 0 0 Z " fill="#C0B575" transform="translate(168,186)"/>
<path d="M0 0 C0.33 0 0.66 0 1 0 C1.704 13.071 1.17 24.369 -7.812 34.812 C-8.857 35.893 -9.913 36.963 -11 38 C-11.66 37.67 -12.32 37.34 -13 37 C-12.59 36.564 -12.18 36.129 -11.758 35.68 C-8.357 31.921 -6.329 28.983 -5 24 C-4.362 22.653 -3.707 21.313 -3 20 C-2.34 20 -1.68 20 -1 20 C-0.67 13.4 -0.34 6.8 0 0 Z " fill="#678411" transform="translate(161,100)"/>
<path d="M0 0 C0.532 0.003 0.532 0.003 3.223 0.02 C5.938 0.188 5.938 0.188 7.938 1.188 C7.608 3.168 7.278 5.147 6.938 7.188 C6.608 6.528 6.278 5.868 5.938 5.188 C4.618 5.517 3.297 5.847 1.938 6.188 C1.608 5.528 1.278 4.868 0.938 4.188 C0.03 4.414 -0.877 4.641 -1.812 4.875 C-5.062 5.188 -5.062 5.188 -7.438 3.75 C-7.974 3.234 -8.51 2.719 -9.062 2.188 C-5.573 -0.139 -4.113 -0.055 0 0 Z " fill="#E0D9A9" transform="translate(109.0625,110.8125)"/>
<path d="M0 0 C1 3 1 3 0.102 5.129 C-4.713 13.064 -10.338 20.609 -18 26 C-19.32 25.34 -20.64 24.68 -22 24 C-21.299 23.622 -20.597 23.245 -19.875 22.855 C-10.15 17.213 -4.832 10.032 0 0 Z " fill="#596D10" transform="translate(164,196)"/>
<path d="M0 0 C0.66 0.33 1.32 0.66 2 1 C0.638 2.471 -0.74 3.926 -2.125 5.375 C-2.891 6.187 -3.656 6.999 -4.445 7.836 C-9.189 11.854 -13.933 12.418 -20 12 C-22.714 11.447 -25.33 10.75 -28 10 C-25.404 9.274 -23.562 9.009 -20.812 9.062 C-11.565 8.911 -6.509 6.633 0 0 Z " fill="#E5DBAD" transform="translate(97,114)"/>
<path d="M0 0 C0.66 0 1.32 0 2 0 C2 0.66 2 1.32 2 2 C-5.022 6.494 -11.754 7.094 -20 6 C-22.926 4.473 -22.926 4.473 -25 3 C-23 2 -23 2 -20.25 2.5 C-14.263 3.479 -7.969 2.89 -2 2 C-1.34 1.34 -0.68 0.68 0 0 Z " fill="#57790A" transform="translate(83,112)"/>
<path d="M0 0 C5.326 4.375 7.883 10.72 8.812 17.438 C9.159 22.238 9.237 27.327 8 32 C7.01 32.66 6.02 33.32 5 34 C5.053 33.403 5.053 33.403 5.324 30.379 C6.204 19.306 6.107 11.597 0 2 C0 1.34 0 0.68 0 0 Z " fill="#7EAB14" transform="translate(160,150)"/>
<path d="M0 0 C0.33 0.66 0.66 1.32 1 2 C-1.367 7.105 -4.896 11.204 -9 15 C-9.887 15.928 -10.774 16.856 -11.688 17.812 C-14 20 -14 20 -16 20 C-15.44 16.528 -14.446 15.195 -11.688 13.062 C-8.673 10.614 -6.328 8.131 -4 5 C-2.667 3.333 -1.333 1.667 0 0 Z " fill="#CDC08A" transform="translate(164,207)"/>
<path d="M0 0 C1.863 0.125 1.863 0.125 4 1 C7.217 7.863 8.491 15.488 9 23 C8.34 23 7.68 23 7 23 C6.879 22.29 6.758 21.579 6.633 20.848 C6.465 19.929 6.298 19.009 6.125 18.062 C6.044 17.604 6.044 17.604 5.633 15.285 C5.424 14.531 5.215 13.777 5 13 C4.34 12.67 3.68 12.34 3 12 C2.148 9.277 2.148 9.277 1.375 5.938 C1.245 5.385 1.245 5.385 0.586 2.59 C0.393 1.735 0.199 0.881 0 0 Z " fill="#EDE3BC" transform="translate(160,92)"/>
<path d="M0 0 C-1 2 -1 2 -3.875 3.125 C-7 4 -7 4 -10 4 C-11.74 4.078 -13.479 4.164 -15.219 4.254 C-16.233 4.304 -17.248 4.353 -18.293 4.404 C-20.431 4.51 -22.569 4.619 -24.707 4.732 C-25.214 4.757 -25.214 4.757 -27.781 4.879 C-28.71 4.926 -29.639 4.973 -30.596 5.022 C-33 5 -33 5 -36 4 C-36 3.34 -36 2.68 -36 2 C-35.652 2.005 -35.652 2.005 -33.892 2.032 C-30.72 2.073 -27.547 2.099 -24.375 2.125 C-23.281 2.142 -22.186 2.159 -21.059 2.176 C-13.721 2.22 -7.16 -0.341 0 0 Z " fill="#EBE0B8" transform="translate(133,238)"/>
<path d="M0 0 C-0.33 0.66 -0.66 1.32 -1 2 C-2.926 2.203 -2.926 2.203 -5.312 2.25 C-7.777 2.453 -7.777 2.453 -10 3 C-12.375 6 -12.375 6 -14 9 C-14.99 9.33 -15.98 9.66 -17 10 C-17.33 10.66 -17.66 11.32 -18 12 C-18.66 12 -19.32 12 -20 12 C-20.293 5.945 -20.293 5.945 -20 4 C-19.01 3.34 -18.02 2.68 -17 2 C-17.33 3.65 -17.66 5.3 -18 7 C-17.564 6.578 -17.129 6.157 -16.68 5.723 C-11.284 0.759 -7.324 -0.215 0 0 Z " fill="#AFD933" transform="translate(110,127)"/>
<path d="M0 0 C-0.33 1.65 -0.66 3.3 -1 5 C-1.66 5 -2.32 5 -3 5 C-3.268 5.557 -3.536 6.114 -3.812 6.688 C-5.577 10.123 -7.258 13.258 -10 16 C-10.33 15.01 -10.66 14.02 -11 13 C-11.66 12.67 -12.32 12.34 -13 12 C-12.01 11.67 -11.02 11.34 -10 11 C-8.812 8.938 -8.812 8.938 -8 7 C-7.34 7 -6.68 7 -6 7 C-6.33 5.68 -6.66 4.36 -7 3 C-5.68 3.33 -4.36 3.66 -3 4 C-3 3.34 -3 2.68 -3 2 C-3.66 1.67 -4.32 1.34 -5 1 C-2 0 -2 0 0 0 Z " fill="#92C80D" transform="translate(152,120)"/>
<path d="M0 0 C0.33 0.66 0.66 1.32 1 2 C0.082 2.037 -0.836 2.075 -1.781 2.113 C-10.477 2.579 -18.166 3.021 -25 9 C-23.125 4.25 -23.125 4.25 -22 2 C-14.899 -0.412 -7.4 -0.229 0 0 Z " fill="#BBB272" transform="translate(113,106)"/>
<path d="M0 0 C0.91 0.009 1.82 0.018 2.758 0.027 C3.456 0.039 4.155 0.051 4.875 0.062 C1.646 3.469 -1.164 4.975 -5.938 5.188 C-6.298 5.167 -6.298 5.167 -8.125 5.062 C-8.414 5.867 -8.703 6.671 -9 7.5 C-10.125 10.062 -10.125 10.062 -12.125 11.062 C-11.622 6.661 -10.101 4.309 -7.125 1.062 C-4.6 -0.2 -2.813 -0.036 0 0 Z " fill="#C1E44C" transform="translate(65.125,173.9375)"/>
<path d="M0 0 C0.33 0 0.66 0 1 0 C1 3.63 1 7.26 1 11 C2.32 11.66 3.64 12.32 5 13 C7.25 16.125 7.25 16.125 9 19 C5.505 17.888 2.255 16.684 -1 15 C-1.027 12.688 -1.046 10.375 -1.062 8.062 C-1.074 6.775 -1.086 5.487 -1.098 4.16 C-1 1 -1 1 0 0 Z " fill="#8DBD18" transform="translate(51,90)"/>
<path d="M0 0 C0.33 0.99 0.66 1.98 1 3 C7.277 4.354 7.277 4.354 10.938 2.562 C11.618 2.047 12.299 1.531 13 1 C13 1.66 13 2.32 13 3 C14.32 3.33 15.64 3.66 17 4 C13.454 6.364 11.767 6.298 7.562 6.312 C6.996 6.321 6.996 6.321 4.129 6.363 C0.765 5.973 -0.638 5.386 -3 3 C-3 2.34 -3 1.68 -3 1 C-2.01 0.67 -1.02 0.34 0 0 Z " fill="#8CC109" transform="translate(61,104)"/>
<path d="M0 0 C0.278 0.289 0.278 0.289 1.688 1.75 C5.511 5.47 8.912 8.255 14 10 C14 10.33 14 10.66 14 11 C12.02 11 10.04 11 8 11 C8 10.34 8 9.68 8 9 C5.69 8.67 3.38 8.34 1 8 C0.67 6.68 0.34 5.36 0 4 C-0.66 4 -1.32 4 -2 4 C-2 3.01 -2 2.02 -2 1 C-1.34 0.67 -0.68 0.34 0 0 Z " fill="#E8DEB2" transform="translate(90,156)"/>
<path d="M0 0 C0.66 0 1.32 0 2 0 C0.601 6.297 -1.493 12.061 -4 18 C-4.99 18 -5.98 18 -7 18 C-6.691 17.505 -6.381 17.01 -6.062 16.5 C-5.061 14.144 -4.758 12.511 -4.5 10 C-4.185 6.935 -3.661 4.658 -2 2 C-1.34 2 -0.68 2 0 2 C0 1.34 0 0.68 0 0 Z " fill="#D8CB97" transform="translate(162,126)"/>
<path d="M0 0 C2.577 4.533 2.368 8.582 2.375 13.688 C2.399 14.548 2.424 15.408 2.449 16.295 C2.478 22.691 1.016 27.379 -2 33 C-3.159 29.522 -2.798 28.93 -1.562 25.625 C0.429 19.469 0.504 13.421 0 7 C-0.33 6.67 -0.66 6.34 -1 6 C-1.125 3.5 -1.125 3.5 -1 1 C-0.67 0.67 -0.34 0.34 0 0 Z " fill="#E4D7AB" transform="translate(171,175)"/>
<path d="M0 0 C6.652 0.273 12.459 1.062 18 5 C18.33 5.495 18.33 5.495 20 8 C17.824 7.516 15.866 6.943 13.812 6.062 C9.964 4.609 6.024 3.824 2 3 C2 2.34 2 1.68 2 1 C1.34 0.67 0.68 0.34 0 0 Z " fill="#BBB76E" transform="translate(100,161)"/>
<path d="M0 0 C4.345 1.418 8.673 2.852 12.938 4.5 C16.791 5.983 20.716 7.09 24.703 8.156 C27.209 9.077 28.95 10.308 31 12 C26.594 11.435 22.669 10.278 18.504 8.812 C15.779 7.928 13.037 7.285 10.25 6.625 C5.433 5.362 3.056 3.9 0 0 Z " fill="#DBCE9B" transform="translate(69,226)"/>
<path d="M0 0 C0.742 0.289 1.485 0.577 2.25 0.875 C7.422 2.426 12.669 3.189 18 4 C16 6 16 6 14 7 C14.33 7.66 14.66 8.32 15 9 C13.35 8.67 11.7 8.34 10 8 C10 7.34 10 6.68 10 6 C9.484 5.897 8.969 5.794 8.438 5.688 C5.14 4.757 2.134 3.386 -1 2 C-0.67 1.34 -0.34 0.68 0 0 Z " fill="#8FC30C" transform="translate(61,207)"/>
<path d="M0 0 C9.283 0.573 18.678 1.834 26 8 C26 8.99 26 9.98 26 11 C25.278 10.381 24.556 9.762 23.812 9.125 C18.265 4.933 12.721 4.457 5.961 3.66 C2.916 2.981 1.866 2.429 0 0 Z " fill="#57770C" transform="translate(94,158)"/>
<path d="M0 0 C0.66 0 1.32 0 2 0 C2 0.66 2 1.32 2 2 C2.584 2.26 3.168 2.521 3.77 2.789 C6.143 4.078 7.775 5.475 9.688 7.375 C10.289 7.96 10.891 8.545 11.512 9.148 C13.132 11.164 13.544 12.486 14 15 C14.33 15.99 14.66 16.98 15 18 C14.01 18 13.02 18 12 18 C12 17.34 12 16.68 12 16 C11.01 15.67 10.02 15.34 9 15 C9.268 14.443 9.536 13.886 9.812 13.312 C10 11 10 11 7.812 8.25 C5 6 5 6 1 6 C0.67 4.02 0.34 2.04 0 0 Z " fill="#8FBF17" transform="translate(148,138)"/>
<path d="M0 0 C-2.991 3.738 -5.533 4.622 -10.027 5.562 C-12.476 6.106 -14.706 6.997 -17 8 C-17.66 7.34 -18.32 6.68 -19 6 C-3.912 -1.956 -3.912 -1.956 0 0 Z " fill="#E5D9AE" transform="translate(151,231)"/>
<path d="M0 0 C0.816 2.352 1.117 3.626 0.363 6.035 C-3.333 13.166 -3.333 13.166 -7 15 C-10.25 15.688 -10.25 15.688 -13 16 C-5 8 -5 8 -3.312 6.5 C-1.588 4.529 -0.862 2.452 0 0 Z " fill="#A3D622" transform="translate(125,173)"/>
<path d="M0 0 C1.65 0 3.3 0 5 0 C5 0.99 5 1.98 5 3 C5.66 3 6.32 3 7 3 C7 3.66 7 4.32 7 5 C6.34 5 5.68 5 5 5 C5 5.66 5 6.32 5 7 C4.34 7 3.68 7 3 7 C2.67 9.97 2.34 12.94 2 16 C1.01 15.67 0.02 15.34 -1 15 C0.875 7.375 0.875 7.375 2 4 C1.34 4 0.68 4 0 4 C0 2.68 0 1.36 0 0 Z " fill="#A6D627" transform="translate(122,106)"/>
<path d="M0 0 C3.399 1.133 4.053 2.125 6 5 C4.68 5 3.36 5 2 5 C1.01 5.186 0.02 5.371 -1 5.562 C-3.842 5.977 -5.388 6.119 -8 5 C-8.66 4.01 -9.32 3.02 -10 2 C-9.093 2.227 -8.185 2.454 -7.25 2.688 C-4 3 -4 3 -1.812 1.5 C-1.214 1.005 -0.616 0.51 0 0 Z " fill="#93C70F" transform="translate(99,146)"/>
<path d="M0 0 C3.357 0.455 5.469 0.378 8.688 -0.5 C8.358 -0.335 8.358 -0.335 6.688 0.5 C6.688 1.49 6.688 2.48 6.688 3.5 C4.188 5.188 4.188 5.188 1.688 6.5 C1.688 4.85 1.688 3.2 1.688 1.5 C-0.623 2.16 -2.933 2.82 -5.312 3.5 C-5.312 2.51 -5.312 1.52 -5.312 0.5 C-3.312 -0.5 -3.312 -0.5 0 0 Z M0.688 6.5 C0.688 7.49 0.688 8.48 0.688 9.5 C0.358 9.665 0.358 9.665 -1.312 10.5 C-0.653 9.18 0.007 7.86 0.688 6.5 Z " fill="#A2D51E" transform="translate(118.3125,127.5)"/>
<path d="M0 0 C3.463 3.151 4.933 6.476 6 11 C5.812 14.938 5.812 14.938 5 18 C4.34 18.33 3.68 18.66 3 19 C0.866 11.467 0.866 11.467 2 7 C1.411 4.646 0.754 2.307 0 0 Z " fill="#80B016" transform="translate(156,85)"/>
<path d="M0 0 C4.058 0.655 7.54 1.946 11.312 3.562 C11.847 3.79 11.847 3.79 14.551 4.941 C14.955 5.116 14.955 5.116 17 6 C17 6.33 17 6.66 17 7 C9.925 7.643 5.905 5.827 0 2 C0 1.34 0 0.68 0 0 Z " fill="#73A506" transform="translate(67,218)"/>
<path d="M0 0 C-0.588 0.268 -0.588 0.268 -3.562 1.625 C-6.678 3.15 -8.958 4.772 -11.438 7.188 C-15.244 10.685 -18.967 10.977 -24 11 C-23.432 10.719 -22.863 10.438 -22.277 10.148 C-16.459 7.215 -10.99 4.234 -6 0 C-3.509 -1.245 -2.589 -0.777 0 0 Z " fill="#C5BB7E" transform="translate(100,110)"/>
<path d="M0 0 C0.33 0.66 0.66 1.32 1 2 C-6.286 5.429 -6.286 5.429 -11 5 C-11 5.66 -11 6.32 -11 7 C-13.867 6.427 -14.861 6.139 -17 4 C-11.39 2.68 -5.78 1.36 0 0 Z " fill="#C0E450" transform="translate(94,62)"/>
<path d="M0 0 C0.784 0.474 1.567 0.949 2.375 1.438 C3.889 2.339 5.424 3.212 7 4 C6.34 4.66 5.68 5.32 5 6 C5 6.99 5 7.98 5 9 C4.053 10.697 3.058 12.369 2 14 C1.34 13.67 0.68 13.34 0 13 C0.093 12.608 0.093 12.608 0.562 10.625 C1 8 1 8 0 6 C-0.04 4 -0.043 2 0 0 Z " fill="#A1D420" transform="translate(129,169)"/>
<path d="M0 0 C0.95 -0.005 1.9 -0.01 2.879 -0.016 C5.438 0.25 5.438 0.25 8.438 2.25 C4.372 3.236 0.607 3.25 -3.562 3.25 C-5.238 3.535 -6.911 3.85 -8.562 4.25 C-8.892 3.59 -9.222 2.93 -9.562 2.25 C-6.286 0.298 -3.792 -0.021 0 0 Z " fill="#99954E" transform="translate(103.5625,101.75)"/>
<path d="M0 0 C0.66 0.33 1.32 0.66 2 1 C1.541 1.496 1.082 1.993 0.609 2.504 C-3.257 6.785 -6.335 10.884 -9 16 C-9.66 14.68 -10.32 13.36 -11 12 C-9.542 10.374 -8.084 8.75 -6.625 7.125 C-5.813 6.22 -5.001 5.315 -4.164 4.383 C-2.809 2.891 -1.425 1.425 0 0 Z " fill="#A6D424" transform="translate(64,72)"/>
<path d="M0 0 C5.28 1.32 10.56 2.64 16 4 C12.729 6.18 12.236 6.221 8.562 5.75 C7.801 5.662 7.039 5.575 6.254 5.484 C3.906 4.98 2.092 4.163 0 3 C0 2.01 0 1.02 0 0 Z " fill="#C8BD7C" transform="translate(75,226)"/>
<path d="M0 0 C0.33 0 0.66 0 1 0 C0.858 2.375 0.711 4.75 0.562 7.125 C0.543 7.458 0.543 7.458 0.443 9.141 C0.188 13.15 -0.268 17.05 -1 21 C-2.32 21.33 -3.64 21.66 -5 22 C-4.795 21.49 -4.59 20.979 -4.379 20.453 C-2.266 14.75 -1.533 9.471 -1.211 3.406 C-1 1 -1 1 0 0 Z " fill="#82BA06" transform="translate(166,166)"/>
<path d="M0 0 C0.33 0.66 0.66 1.32 1 2 C1.99 1.34 2.98 0.68 4 0 C5.32 0.66 6.64 1.32 8 2 C7.526 2.454 7.051 2.907 6.562 3.375 C5 5 5 5 4 7 C1.69 6.34 -0.62 5.68 -3 5 C-2.625 3.062 -2.625 3.062 -2 1 C-1.34 0.67 -0.68 0.34 0 0 Z " fill="#95C812" transform="translate(65,102)"/>
<path d="M0 0 C0 3 0 3 -1.938 5.188 C-6.049 7.621 -9.34 7.366 -14 7 C-11.155 5.103 -8.427 3.767 -5.312 2.375 C-4.319 1.929 -3.325 1.483 -2.301 1.023 C-1.542 0.686 -0.782 0.348 0 0 Z " fill="#B4AA64" transform="translate(144,222)"/>
<path d="M0 0 C0.289 0.093 0.289 0.093 1.75 0.562 C4 1 4 1 6.062 0.375 C6.702 0.251 7.341 0.127 8 0 C9.75 1.438 9.75 1.438 11 3 C10.01 3 9.02 3 8 3 C7.67 3.99 7.34 4.98 7 6 C6.67 5.01 6.34 4.02 6 3 C3.69 3.66 1.38 4.32 -1 5 C-0.67 3.35 -0.34 1.7 0 0 Z " fill="#A9D828" transform="translate(101,194)"/>
<path d="M0 0 C5.802 5.645 5.802 5.645 8 9 C8 9.66 8 10.32 8 11 C8.33 11.66 8.66 12.32 9 13 C7.68 12.34 6.36 11.68 5 11 C5 10.34 5 9.68 5 9 C4.34 9 3.68 9 3 9 C2.34 8.34 1.68 7.68 1 7 C1 5.68 1 4.36 1 3 C0.34 2.67 -0.32 2.34 -1 2 C-0.67 1.34 -0.34 0.68 0 0 Z " fill="#E7DEB4" transform="translate(53,209)"/>
<path d="M0 0 C0.66 0 1.32 0 2 0 C1.467 4.53 -0.16 7.45 -3 11 C-5.75 12.375 -5.75 12.375 -8 13 C-8 12.34 -8 11.68 -8 11 C-7.237 10.257 -6.474 9.515 -5.688 8.75 C-2.974 5.973 -1.558 3.526 0 0 Z " fill="#C1E653" transform="translate(126,176)"/>
<path d="M0 0 C0.409 0.005 0.409 0.005 2.477 0.027 C2.79 0.033 2.79 0.033 4.375 0.062 C4.045 0.722 3.715 1.382 3.375 2.062 C0.905 2.67 -1.569 3.02 -4.082 3.402 C-6.869 4.126 -8.454 5.205 -10.625 7.062 C-11.285 6.732 -11.945 6.403 -12.625 6.062 C-5.384 -0.077 -5.384 -0.077 0 0 Z " fill="#A2D322" transform="translate(101.625,123.9375)"/>
<path d="M0 0 C0.33 0 0.66 0 1 0 C2.471 6.471 1.764 12.618 0 19 C-1.578 21.363 -1.578 21.363 -3 23 C-2.86 21.354 -2.713 19.708 -2.562 18.062 C-2.481 17.146 -2.4 16.229 -2.316 15.285 C-2 13 -2 13 -1 12 C-0.766 9.984 -0.587 7.962 -0.438 5.938 C-0.396 5.385 -0.396 5.385 -0.184 2.59 C-0.123 1.735 -0.062 0.881 0 0 Z " fill="#E4D8AC" transform="translate(166,109)"/>
<path d="M0 0 C0.66 0.66 1.32 1.32 2 2 C1.688 6.759 1.039 10.649 -1 15 C-1.66 14.67 -2.32 14.34 -3 14 C-2.689 12.416 -2.376 10.833 -2.062 9.25 C-1.888 8.368 -1.714 7.487 -1.535 6.578 C-1.076 4.368 -0.567 2.185 0 0 Z " fill="#C8BD80" transform="translate(168,186)"/>
<path d="M0 0 C7.429 -0.286 7.429 -0.286 11 2 C11 3.65 11 5.3 11 7 C10.01 6.835 10.01 6.835 5 6 C5 4.68 5 3.36 5 2 C3.35 1.67 1.7 1.34 0 1 C0 0.67 0 0.34 0 0 Z " fill="#E5DFAC" transform="translate(111,172)"/>
<path d="M0 0 C4.29 0 8.58 0 13 0 C13.33 1.65 13.66 3.3 14 5 C13.67 4.34 13.34 3.68 13 3 C11.68 3.33 10.36 3.66 9 4 C8.67 3.34 8.34 2.68 8 2 C6.02 2.33 4.04 2.66 2 3 C1.34 2.01 0.68 1.02 0 0 Z " fill="#EBE4B9" transform="translate(102,113)"/>
<path d="M0 0 C1.959 0.114 3.917 0.241 5.875 0.375 C6.966 0.445 8.056 0.514 9.18 0.586 C12 1 12 1 14 3 C14 3.99 14 4.98 14 6 C11.133 5.427 10.139 5.139 8 3 C6.824 2.835 5.649 2.67 4.438 2.5 C3.303 2.335 2.169 2.17 1 2 C0.67 1.34 0.34 0.68 0 0 Z " fill="#B5DD3B" transform="translate(61,172)"/>
<path d="M0 0 C0 0.33 0 0.66 0 1 C-0.58 1.037 -1.16 1.075 -1.758 1.113 C-6.817 1.539 -10.543 2.371 -15 5 C-15 4.01 -15 3.02 -15 2 C-13.447 1.27 -11.882 0.567 -10.312 -0.125 C-9.442 -0.519 -8.572 -0.914 -7.676 -1.32 C-4.395 -2.154 -2.956 -1.523 0 0 Z " fill="#507F02" transform="translate(107,99)"/>
<path d="M0 0 C0.66 0.33 1.32 0.66 2 1 C1.759 1.193 1.759 1.193 0.539 2.172 C-0.093 2.693 -0.724 3.213 -1.375 3.75 C-1.688 4.005 -1.688 4.005 -3.273 5.297 C-5 7 -5 7 -6.039 9.141 C-7 11 -7 11 -10 12 C-9.396 8.619 -8.304 6.55 -6 4 C-4.365 2.949 -2.701 1.94 -1 1 C-0.67 0.67 -0.34 0.34 0 0 Z " fill="#CAE864" transform="translate(68,72)"/>
<path d="M0 0 C2.333 -0.042 4.667 -0.041 7 0 C7.33 0.33 7.66 0.66 8 1 C10.183 1.235 12.372 1.414 14.562 1.562 C15.76 1.646 16.958 1.73 18.191 1.816 C19.118 1.877 20.045 1.938 21 2 C21 2.33 21 2.66 21 3 C18.249 3.081 15.501 3.141 12.75 3.188 C12.361 3.2 12.361 3.2 10.395 3.264 C4.57 3.338 4.57 3.338 1.453 1.488 C1.213 1.243 1.213 1.243 0 0 Z " fill="#C9BB81" transform="translate(95,233)"/>
<path d="M0 0 C1.919 0.256 3.835 0.531 5.75 0.812 C6.817 0.963 7.885 1.114 8.984 1.27 C12.055 2.013 13.661 2.928 16 5 C9.741 5.533 5.549 3.818 0 1 C0 0.67 0 0.34 0 0 Z " fill="#53700D" transform="translate(76,225)"/>
<path d="M0 0 C0.66 0.66 1.32 1.32 2 2 C0.845 2.99 0.845 2.99 -5 8 C-6.32 7.34 -7.64 6.68 -9 6 C-6.03 4.02 -3.06 2.04 0 0 Z " fill="#5C780B" transform="translate(151,214)"/>
<path d="M0 0 C0.33 0.495 0.33 0.495 2 3 C2.66 2.67 3.32 2.34 4 2 C4 2.66 4 3.32 4 4 C4.66 4 5.32 4 6 4 C6.66 5.32 7.32 6.64 8 8 C7.34 8.66 6.68 9.32 6 10 C3.549 9.02 2.232 8.349 0.75 6.125 C0 4 0 4 0 0 Z " fill="#83AF15" transform="translate(49,199)"/>
<path d="M0 0 C0.934 3.01 1.044 3.867 0 7 C-2.562 8.188 -2.562 8.188 -5 9 C-4.67 6.69 -4.34 4.38 -4 2 C-3.01 2 -2.02 2 -1 2 C-0.67 1.34 -0.34 0.68 0 0 Z " fill="#B2DB3B" transform="translate(56,181)"/>
<path d="M0 0 C0.382 0.041 0.382 0.041 2.312 0.25 C1.383 1.402 0.443 2.547 -0.5 3.688 C-0.761 4.007 -0.761 4.007 -2.082 5.621 C-3.688 7.25 -3.688 7.25 -6.688 8.25 C-5.917 3.934 -4.73 0.44 0 0 Z " fill="#C2E45B" transform="translate(97.6875,126.75)"/>
<path d="M0 0 C3.509 1.404 4.427 2.644 6 6 C6.99 6.66 7.98 7.32 9 8 C1.125 7.125 1.125 7.125 0 6 C-0.041 4 -0.043 2 0 0 Z " fill="#E2D9AB" transform="translate(58,115)"/>
<path d="M0 0 C-5.625 3 -5.625 3 -9 3 C-9.66 4.32 -10.32 5.64 -11 7 C-11.99 7 -12.98 7 -14 7 C-12.499 3.998 -11.595 2.305 -8.562 0.75 C-7.717 0.502 -6.871 0.255 -6 0 C-5.639 -0.113 -5.639 -0.113 -3.812 -0.688 C-2 -1 -2 -1 0 0 Z " fill="#B5DE3B" transform="translate(77,68)"/>
<path d="M0 0 C2.25 -0.25 2.25 -0.25 5 0 C7.312 2 7.312 2 9 4 C5.895 4.887 3.263 5 0 5 C0 3.35 0 1.7 0 0 Z " fill="#B3DE34" transform="translate(98,191)"/>
<path d="M0 0 C-1.488 3.787 -3.62 5.774 -7 8 C-7.99 7.67 -8.98 7.34 -10 7 C-8.714 5.827 -7.421 4.662 -6.125 3.5 C-5.765 3.175 -5.765 3.175 -3.945 1.531 C-2 0 -2 0 0 0 Z " fill="#C0E556" transform="translate(121,117)"/>
<path d="M0 0 C1.312 3.937 0.243 6.125 -1 10 C-2.32 9.67 -3.64 9.34 -5 9 C-4.426 5.129 -2.513 2.918 0 0 Z " fill="#B3AB65" transform="translate(155,131)"/>
<path d="M0 0 C0.985 0.027 1.97 0.054 2.984 0.082 C3.732 0.117 4.48 0.152 5.25 0.188 C4.92 0.847 4.59 1.507 4.25 2.188 C1.09 2.602 1.09 2.602 -2.812 2.812 C-4.103 2.887 -5.393 2.962 -6.723 3.039 C-7.722 3.088 -8.721 3.137 -9.75 3.188 C-6.477 0.218 -4.369 -0.156 0 0 Z " fill="#6C9B04" transform="translate(71.75,112.8125)"/>
<path d="M0 0 C-0.99 0 -1.98 0 -3 0 C-3 0.66 -3 1.32 -3 2 C-2.01 2.33 -1.02 2.66 0 3 C-0.33 3.99 -0.66 4.98 -1 6 C-3.438 5.25 -3.438 5.25 -6 4 C-6.812 1.875 -6.812 1.875 -7 0 C-3.867 -1.044 -3.01 -0.934 0 0 Z " fill="#B2DC38" transform="translate(122,61)"/>
<path d="M0 0 C0.33 0 0.66 0 1 0 C0.65 9.173 0.65 9.173 -2.062 12.625 C-2.702 13.079 -3.341 13.532 -4 14 C-3.368 8.947 -1.865 4.704 0 0 Z " fill="#D3C590" transform="translate(169,193)"/>
<path d="M0 0 C-4.335 3.324 -6.471 4.12 -12 4 C-12 3.34 -12 2.68 -12 2 C-10.378 1.47 -8.752 0.951 -7.125 0.438 C-6.22 0.147 -5.315 -0.143 -4.383 -0.441 C-2 -1 -2 -1 0 0 Z " fill="#B3DD39" transform="translate(69,177)"/>
<path d="M0 0 C0.454 0.474 0.907 0.949 1.375 1.438 C3 3 3 3 5 4 C5 5.32 5 6.64 5 8 C6.5 9.75 6.5 9.75 8 11 C7.01 11 6.02 11 5 11 C3.613 9.609 3.613 9.609 2.312 7.75 C1.876 7.147 1.439 6.543 0.988 5.922 C0 4 0 4 0 0 Z " fill="#75971C" transform="translate(51,103)"/>
<path d="M0 0 C0.99 0 1.98 0 3 0 C2.67 1.98 2.34 3.96 2 6 C1.34 6 0.68 6 0 6 C-0.33 6.99 -0.66 7.98 -1 9 C-1.33 9 -1.66 9 -2 9 C-2.25 3.375 -2.25 3.375 0 0 Z " fill="#BEE150" transform="translate(57,83)"/>
<path d="M0 0 C-2.422 2.873 -4.597 3.708 -8.188 4.688 C-9.089 4.939 -9.99 5.19 -10.918 5.449 C-11.605 5.631 -12.292 5.813 -13 6 C-13 5.34 -13 4.68 -13 4 C-4.738 -0.592 -4.738 -0.592 0 0 Z " fill="#ABD92C" transform="translate(84,63)"/>
<path d="M0 0 C2.31 0 4.62 0 7 0 C6.67 0.99 6.34 1.98 6 3 C2.7 3.33 -0.6 3.66 -4 4 C-2.68 3.34 -1.36 2.68 0 2 C0 1.34 0 0.68 0 0 Z " fill="#85BC02" transform="translate(104,221)"/>
<path d="M0 0 C1 2 1 2 0.441 3.945 C0.151 4.665 -0.139 5.384 -0.438 6.125 C-0.725 6.849 -1.012 7.574 -1.309 8.32 C-1.537 8.875 -1.765 9.429 -2 10 C-2.99 10 -3.98 10 -5 10 C-4.711 9.443 -4.423 8.886 -4.125 8.312 C-3 6 -3 6 -1.938 3.312 C-1 1 -1 1 0 0 Z " fill="#DED3A2" transform="translate(160,134)"/>
<path d="M0 0 C0 2 0 2 -1.812 3.938 C-2.534 4.618 -3.256 5.299 -4 6 C-4.578 6.578 -5.155 7.155 -5.75 7.75 C-5.956 7.956 -5.956 7.956 -7 9 C-7.373 5.647 -7.311 4.396 -5.188 1.688 C-3 0 -3 0 0 0 Z " fill="#A2D320" transform="translate(121,84)"/>
<path d="M0 0 C0.33 0.66 0.66 1.32 1 2 C1.66 2.33 2.32 2.66 3 3 C-1.521 4.456 -4.516 3.27 -9 2 C-9 1.67 -9 1.34 -9 1 C-7.886 1.021 -6.772 1.041 -5.625 1.062 C-2 1 -2 1 0 0 Z " fill="#81B405" transform="translate(97,220)"/>
<path d="M0 0 C3.688 0.498 5.605 1.101 8 4 C7.34 4.66 6.68 5.32 6 6 C2.264 4.755 1.812 3.366 0 0 Z " fill="#DDD2A0" transform="translate(59,218)"/>
<path d="M0 0 C4.274 1.583 6.265 4.506 9 8 C5.082 6.694 2.674 5.169 0 2 C0 1.34 0 0.68 0 0 Z " fill="#87BD1B" transform="translate(81,176)"/>
<path d="M0 0 C0.99 0.33 1.98 0.66 3 1 C2.691 1.113 2.691 1.113 1.125 1.688 C-1.623 3.385 -1.932 5.025 -3 8 C-3.33 8.165 -3.33 8.165 -5 9 C-4.521 4.686 -3.254 2.834 0 0 Z " fill="#C7E75F" transform="translate(58,176)"/>
<path d="M0 0 C1.478 2.957 1.06 5.742 1 9 C-0.32 9 -1.64 9 -3 9 C-2.25 2.25 -2.25 2.25 0 0 Z " fill="#84B905" transform="translate(146,129)"/>
<path d="M0 0 C0 0.66 0 1.32 0 2 C-2.405 3.203 -3.95 3.101 -6.625 3.062 C-7.034 3.058 -7.034 3.058 -9.102 3.035 C-9.415 3.029 -9.415 3.029 -11 3 C-10.67 2.34 -10.34 1.68 -10 1 C-6.62 0.374 -3.438 0 0 0 Z " fill="#F5F7E0" transform="translate(111,120)"/>
<path d="M0 0 C0.66 0 1.32 0 2 0 C1.34 3.3 0.68 6.6 0 10 C-0.99 10 -1.98 10 -3 10 C-2.39 6.442 -1.422 3.317 0 0 Z " fill="#B4DC41" transform="translate(122,110)"/>
<path d="M0 0 C0.99 0.66 1.98 1.32 3 2 C1.35 3.32 -0.3 4.64 -2 6 C-2.33 4.35 -2.66 2.7 -3 1 C-2.01 0.67 -1.02 0.34 0 0 Z " fill="#609002" transform="translate(149,132)"/>
<path d="M0 0 C0.99 0.33 1.98 0.66 3 1 C1.688 3 1.688 3 0 5 C-0.99 5 -1.98 5 -3 5 C-3 5.66 -3 6.32 -3 7 C-3.66 6.67 -4.32 6.34 -5 6 C-4.67 5.34 -4.34 4.68 -4 4 C-3.34 4 -2.68 4 -2 4 C-1.34 2.68 -0.68 1.36 0 0 Z " fill="#89BE06" transform="translate(91,93)"/>
<path d="M0 0 C0.99 0.33 1.98 0.66 3 1 C2.381 1.083 1.763 1.165 1.125 1.25 C-1 2 -1 2 -2.125 4 C-2.414 4.66 -2.703 5.32 -3 6 C-3.33 6.165 -3.33 6.165 -5 7 C-5.33 6.01 -5.66 5.02 -6 4 C-3.188 1.938 -3.188 1.938 0 0 Z " fill="#A9D82D" transform="translate(59,173)"/>
<path d="M0 0 C0 0.99 0 1.98 0 3 C0.093 3.423 0.093 3.423 0.562 5.562 C1 8 1 8 0 10 C-0.66 10 -1.32 10 -2 10 C-2.195 3.945 -2.195 3.945 -2 2 C-1.34 1.34 -0.68 0.68 0 0 Z " fill="#B7DF46" transform="translate(92,129)"/>
<path d="M0 0 C0.99 0.33 1.98 0.66 3 1 C1.02 3.31 -0.96 5.62 -3 8 C-3.66 7.67 -4.32 7.34 -5 7 C-4.67 6.34 -4.34 5.68 -4 5 C-3.34 5 -2.68 5 -2 5 C-1.34 3.35 -0.68 1.7 0 0 Z " fill="#AED833" transform="translate(65,80)"/>
<path d="M0 0 C1.32 0 2.64 0 4 0 C4 0.66 4 1.32 4 2 C1.188 3.562 1.188 3.562 -2 5 C-2.99 4.67 -3.98 4.34 -5 4 C-4.68 3.948 -4.68 3.948 -3.062 3.688 C-2.382 3.461 -1.701 3.234 -1 3 C-0.67 2.01 -0.34 1.02 0 0 Z " fill="#506B06" transform="translate(140,221)"/>
<path d="M0 0 C0.66 1.32 1.32 2.64 2 4 C-0.763 4.597 -3.16 5 -6 5 C-3.993 1.989 -3.161 1.37 0 0 Z " fill="#8CC306" transform="translate(132,213)"/>
<path d="M0 0 C2 2 2 2 2.195 3.945 C2.13 5.964 2.065 7.982 2 10 C0.438 8.375 0.438 8.375 -1 6 C-0.688 2.75 -0.688 2.75 0 0 Z " fill="#74A30B" transform="translate(121,164)"/>
<path d="M0 0 C0.763 0.206 1.526 0.412 2.312 0.625 C1.983 1.285 1.653 1.945 1.312 2.625 C-0.998 2.295 -3.308 1.965 -5.688 1.625 C-2.688 -0.375 -2.688 -0.375 0 0 Z " fill="#8DC10B" transform="translate(91.6875,218.375)"/>
<path d="M0 0 C1.32 0.33 2.64 0.66 4 1 C4 2.65 4 4.3 4 6 C3.67 6.165 3.67 6.165 2 7 C1.34 4.69 0.68 2.38 0 0 Z " fill="#F0E9C4" transform="translate(166,159)"/>
<path d="M0 0 C1.32 0 2.64 0 4 0 C2.926 2.915 2.222 4.778 0 7 C-1.333 4.333 -0.671 2.833 0 0 Z " fill="#F2F5DC" transform="translate(86,128)"/>
<path d="M0 0 C0.33 0.495 0.33 0.495 2 3 C2.66 2.34 3.32 1.68 4 1 C4.33 2.32 4.66 3.64 5 5 C3.35 5.33 1.7 5.66 0 6 C0 4.02 0 2.04 0 0 Z " fill="#B3DB3E" transform="translate(54,88)"/>
</svg>
