<?xml version="1.0" encoding="UTF-8"?>
<!-- Generator: visioncortex VTracer 0.6.12 -->
<svg version="1.1" xmlns="http://www.w3.org/2000/svg" width="213" height="275">
<path d="M0 0 C70.29 0 140.58 0 213 0 C213 90.75 213 181.5 213 275 C142.71 275 72.42 275 0 275 C0 184.25 0 93.5 0 0 Z " fill="#FDF6E2" transform="translate(0,0)"/>
<path d="M0 0 C0.754 -0.003 1.508 -0.006 2.285 -0.009 C3.872 -0.011 5.459 -0.005 7.045 0.007 C9.462 0.023 11.877 0.007 14.293 -0.012 C15.841 -0.01 17.389 -0.006 18.938 0 C19.653 -0.006 20.369 -0.012 21.107 -0.018 C26.638 0.058 30.738 1.34 34.832 5.117 C35.31 5.705 35.789 6.293 36.281 6.898 C36.527 7.192 36.527 7.192 37.77 8.68 C40.485 12.572 40.139 16.724 40.174 21.266 C40.184 22.067 40.194 22.867 40.204 23.691 C40.236 26.337 40.26 28.983 40.285 31.629 C40.306 33.463 40.327 35.297 40.348 37.131 C40.403 41.96 40.453 46.788 40.501 51.617 C40.551 56.543 40.607 61.47 40.662 66.396 C40.77 76.064 40.871 85.731 40.969 95.398 C41.645 95.445 42.321 95.492 43.018 95.54 C43.91 95.613 44.803 95.686 45.723 95.762 C46.605 95.829 47.488 95.897 48.397 95.966 C52.354 96.631 55.304 98.422 57.969 101.398 C61.285 106.54 61.427 110.918 61.344 116.836 C61.355 117.656 61.367 118.477 61.379 119.322 C61.348 125.788 60.375 130.855 55.781 135.711 C50.72 138.747 45.819 139.52 39.969 139.398 C40.015 140.689 40.062 141.979 40.109 143.309 C40.147 145.026 40.183 146.743 40.219 148.461 C40.252 149.308 40.286 150.156 40.32 151.029 C40.426 157.854 39.083 162.002 34.371 167.141 C28.717 171.513 24.523 171.633 17.656 171.711 C16.814 171.74 15.971 171.769 15.104 171.799 C9.529 171.855 6.388 171.117 1.969 167.398 C-3.69 161.269 -4.321 156.103 -4.156 148.086 C-4.147 147.25 -4.138 146.414 -4.129 145.553 C-4.105 143.501 -4.07 141.45 -4.031 139.398 C-4.703 139.407 -5.374 139.416 -6.065 139.425 C-13.074 139.514 -20.082 139.574 -27.09 139.618 C-29.703 139.638 -32.316 139.666 -34.929 139.7 C-38.692 139.749 -42.455 139.771 -46.219 139.789 C-47.381 139.81 -48.542 139.83 -49.739 139.852 C-56.361 139.853 -61.556 139.349 -67.031 135.398 C-73.353 129.077 -75.412 123.11 -75.49 114.402 C-75.483 113.452 -75.476 112.502 -75.469 111.523 C-75.489 110.581 -75.509 109.639 -75.529 108.668 C-75.525 102.018 -74.191 97.221 -71.031 91.398 C-70.499 90.376 -69.966 89.354 -69.418 88.301 C-55.724 64.406 -40.575 41.252 -25.406 18.273 C-24.946 17.57 -24.485 16.866 -24.011 16.141 C-17.565 6.455 -12.552 -0.106 0 0 Z " fill="#B554C4" transform="translate(110.03125,59.6015625)"/>
<path d="M0 0 C70.29 0 140.58 0 213 0 C213 90.75 213 181.5 213 275 C142.71 275 72.42 275 0 275 C0 184.25 0 93.5 0 0 Z M7 8 C7 93.8 7 179.6 7 268 C23.49 268.01 23.49 268.01 106.938 268.062 C112.154 268.067 112.154 268.067 138.551 268.09 C151.241 268.095 151.241 268.095 157.173 268.095 C161.336 268.096 165.5 268.1 169.663 268.106 C174.963 268.112 180.263 268.114 185.563 268.113 C187.514 268.113 189.466 268.115 191.418 268.119 C194.041 268.124 196.664 268.123 199.287 268.12 C200.062 268.123 200.837 268.126 201.636 268.129 C206.886 268.114 206.886 268.114 208 267 C208.097 265.62 208.126 264.234 208.126 262.85 C208.128 261.95 208.131 261.05 208.134 260.123 C208.132 259.123 208.129 258.122 208.127 257.092 C208.129 256.038 208.13 254.984 208.132 253.899 C208.136 250.339 208.133 246.779 208.129 243.219 C208.131 240.678 208.133 238.138 208.135 235.598 C208.139 229.396 208.138 223.195 208.135 216.994 C208.133 211.956 208.133 206.919 208.134 201.881 C208.134 201.523 208.134 201.523 208.134 199.713 C208.135 198.259 208.135 196.805 208.135 195.352 C208.138 181.706 208.135 168.06 208.129 154.414 C208.125 142.693 208.126 130.971 208.13 119.25 C208.136 105.655 208.138 92.059 208.135 78.464 C208.134 77.016 208.134 75.567 208.134 74.119 C208.134 73.406 208.134 72.693 208.133 71.959 C208.132 66.925 208.134 61.89 208.136 56.856 C208.139 50.086 208.137 43.316 208.131 36.546 C208.13 34.054 208.13 31.561 208.133 29.069 C208.135 25.682 208.132 22.295 208.127 18.908 C208.129 17.908 208.131 16.908 208.134 15.877 C208.131 14.977 208.129 14.077 208.126 13.15 C208.126 12.367 208.126 11.584 208.125 10.777 C208 9 208 9 207 8 C204.42 7.902 201.867 7.87 199.287 7.88 C198.471 7.879 197.656 7.878 196.816 7.877 C194.053 7.875 191.29 7.881 188.527 7.886 C186.525 7.887 184.522 7.887 182.519 7.886 C177.137 7.886 171.754 7.892 166.371 7.899 C161.328 7.904 156.285 7.905 151.241 7.905 C136.473 7.911 121.705 7.925 106.938 7.938 C90.448 7.948 90.448 7.948 7 8 Z " fill="#FDFDFC" transform="translate(0,0)"/>
<path d="M0 0 C1.65 0.33 3.3 0.66 5 1 C4.34 15.85 3.68 30.7 3 46 C-8.687 46.375 -8.687 46.375 -12.346 46.478 C-13.308 46.514 -14.271 46.549 -15.262 46.586 C-16.241 46.617 -17.22 46.649 -18.229 46.681 C-21.132 47.015 -23.319 47.879 -26 49 C-26.99 49 -27.98 49 -29 49 C-29 49.66 -29 50.32 -29 51 C-28.175 50.835 -28.175 50.835 -24 50 C-25.375 51.5 -25.375 51.5 -27 53 C-27.66 53 -28.32 53 -29 53 C-28 54 -28 54 -25 55 C-24.67 55.99 -24.34 56.98 -24 58 C-21.938 59.188 -21.938 59.188 -20 60 C-20 60.33 -20 60.66 -20 61 C-21.65 61 -23.3 61 -25 61 C-24.67 61.33 -24.34 61.66 -24 62 C-24.33 62.619 -24.66 63.238 -25 63.875 C-26 66 -26 66 -26 68 C-25.34 68 -24.68 68 -24 68 C-23.67 66.35 -23.34 64.7 -23 63 C-21.68 63 -20.36 63 -19 63 C-18.897 61.886 -18.794 60.773 -18.688 59.625 C-18.461 58.429 -18.234 57.233 -18 56 C-17.01 55.34 -16.02 54.68 -15 54 C-14.67 54.66 -14.34 55.32 -14 56 C-12.68 55.34 -11.36 54.68 -10 54 C-10.165 54.969 -10.33 55.939 -10.5 56.938 C-11.11 60.671 -11.11 60.671 -10 64 C-9.257 63.505 -8.515 63.01 -7.75 62.5 C-5 61 -5 61 -1 61 C-1 61.66 -1 62.32 -1 63 C-1.495 63.165 -1.495 63.165 -4 64 C-2.02 64.33 -0.04 64.66 2 65 C1.67 64.01 1.67 64.01 0 59 C-2.64 59 -5.28 59 -8 59 C-5.37 56.37 -3.673 56.22 0 56 C2.125 57.375 2.125 57.375 4 59 C6.25 59.688 6.25 59.688 8 60 C8 59.01 8 58.02 8 57 C8.66 57 9.32 57 10 57 C10 56.34 10 55.68 10 55 C9.34 54.835 9.34 54.835 6 54 C7.155 53.835 7.155 53.835 13 53 C13.33 53.66 13.66 54.32 14 55 C14.66 54.67 15.32 54.34 16 54 C16.495 54.33 16.495 54.33 19 56 C18.34 56.99 17.68 57.98 17 59 C17.33 58.67 17.66 58.34 18 58 C18.66 58 19.32 58 20 58 C20 57.34 20 56.68 20 56 C20.66 56 21.32 56 22 56 C22.165 55.67 22.165 55.67 23 54 C24.65 54.33 26.3 54.66 28 55 C27.67 55.165 27.67 55.165 26 56 C26.227 56.763 26.454 57.526 26.688 58.312 C26.791 59.199 26.894 60.086 27 61 C26.505 61.474 26.01 61.949 25.5 62.438 C25.005 62.953 24.51 63.469 24 64 C24.312 67.188 24.312 67.188 25 70 C23.715 70.864 22.422 71.716 21.125 72.562 C20.406 73.038 19.686 73.514 18.945 74.004 C18.303 74.333 17.661 74.661 17 75 C16.34 74.67 15.68 74.34 15 74 C15.33 73.67 15.66 73.34 16 73 C12.84 73.287 10.543 73.65 7.855 75.383 C4.941 79.494 5.205 83.698 5.062 88.625 C5.008 89.592 4.953 90.559 4.896 91.555 C4.684 96.886 4.684 96.886 5 99 C8.457 101.304 9.949 101.259 14 101 C14.66 100.67 15.32 100.34 16 100 C18.125 100.938 18.125 100.938 20 102 C20 102.66 20 103.32 20 104 C20.722 103.959 21.444 103.918 22.188 103.875 C25.242 104.011 27.216 104.786 30 106 C31.327 106.359 32.658 106.702 34 107 C34.33 106.505 34.33 106.505 36 104 C36.66 104 37.32 104 38 104 C38 103.34 38 102.68 38 102 C39.32 102 40.64 102 42 102 C42 101.01 42 100.02 42 99 C41.34 98.67 40.68 98.34 40 98 C40.66 98 41.32 98 42 98 C41.82 97.301 41.639 96.603 41.453 95.883 C40.943 92.636 41.215 90.112 41.75 86.875 C41.91 85.841 42.07 84.807 42.234 83.742 C43.062 80.778 43.419 79.65 46 78 C49.137 77.488 49.137 77.488 52.688 77.312 C53.867 77.247 55.046 77.181 56.262 77.113 C57.165 77.076 58.069 77.039 59 77 C59 74.69 59 72.38 59 70 C60.65 70 62.3 70 64 70 C63.959 68.948 63.917 67.896 63.875 66.812 C63.991 63.26 64.472 61.151 66 58 C66.33 58 66.66 58 67 58 C67.082 60.688 67.141 63.374 67.188 66.062 C67.213 66.815 67.238 67.567 67.264 68.342 C67.346 74.685 66.321 79.547 61.812 84.312 C56.752 87.349 51.851 88.122 46 88 C46.046 89.29 46.093 90.581 46.141 91.91 C46.178 93.628 46.215 95.345 46.25 97.062 C46.284 97.91 46.317 98.758 46.352 99.631 C46.457 106.456 45.115 110.604 40.402 115.742 C34.748 120.115 30.554 120.235 23.688 120.312 C22.845 120.342 22.003 120.371 21.135 120.4 C15.56 120.457 12.42 119.718 8 116 C2.342 109.87 1.71 104.704 1.875 96.688 C1.884 95.852 1.893 95.016 1.902 94.154 C1.926 92.103 1.962 90.051 2 88 C1.664 88.004 1.664 88.004 -0.034 88.027 C-7.042 88.116 -14.05 88.176 -21.059 88.22 C-23.672 88.24 -26.285 88.267 -28.898 88.302 C-32.661 88.35 -36.424 88.373 -40.188 88.391 C-41.349 88.411 -42.511 88.432 -43.708 88.453 C-51.071 88.455 -56.916 87.71 -62.516 82.623 C-65.423 79.419 -67.171 76.235 -68 72 C-67.125 69.625 -67.125 69.625 -66 68 C-65.794 68.639 -65.588 69.279 -65.375 69.938 C-64 72 -64 72 -61.125 72.812 C-58.343 72.979 -56.621 72.749 -54 72 C-53.34 72.33 -52.68 72.66 -52 73 C-52 72.34 -52 71.68 -52 71 C-51.505 70.835 -51.505 70.835 -49 70 C-48.67 69.34 -48.34 68.68 -48 68 C-47.505 68.165 -47.505 68.165 -45 69 C-45.66 69 -46.32 69 -47 69 C-47 69.99 -47 70.98 -47 72 C-46.34 72.33 -45.68 72.66 -45 73 C-45.495 73.165 -45.495 73.165 -48 74 C-47.835 74.165 -47.835 74.165 -47 75 C-44.937 74.562 -44.937 74.562 -43 74 C-43.33 73.01 -43.66 72.02 -44 71 C-42.02 71.33 -40.04 71.66 -38 72 C-38.165 71.67 -38.165 71.67 -39 70 C-40.65 70 -42.3 70 -44 70 C-44 69.34 -44 68.68 -44 68 C-42.845 67.67 -42.845 67.67 -37 66 C-37.495 65.835 -37.495 65.835 -40 65 C-40 64.01 -40 63.02 -40 62 C-42.97 61.34 -45.94 60.68 -49 60 C-48.67 60.66 -48.34 61.32 -48 62 C-49.32 62.66 -50.64 63.32 -52 64 C-51.835 64.33 -51.835 64.33 -51 66 C-53 68 -53 68 -56 69 C-56.66 68.67 -57.32 68.34 -58 68 C-58 67.34 -58 66.68 -58 66 C-58.99 65.67 -59.98 65.34 -61 65 C-58.75 62.438 -58.75 62.438 -56 60 C-53.688 60.188 -53.688 60.188 -52 61 C-52 60.34 -52 59.68 -52 59 C-52.66 58.67 -53.32 58.34 -54 58 C-53.34 58 -52.68 58 -52 58 C-51.67 57.01 -51.34 56.02 -51 55 C-50.505 55.165 -50.505 55.165 -48 56 C-48.33 56.66 -48.66 57.32 -49 58 C-47.845 57.835 -47.845 57.835 -42 57 C-42 56.34 -42 55.68 -42 55 C-41.34 55 -40.68 55 -40 55 C-40.33 54.01 -40.66 53.02 -41 52 C-39.562 49.312 -39.562 49.312 -38 47 C-37.34 47.33 -36.68 47.66 -36 48 C-36 48.66 -36 49.32 -36 50 C-35.34 49.835 -35.34 49.835 -32 49 C-32.33 48.835 -32.33 48.835 -34 48 C-34 47.34 -34 46.68 -34 46 C-33.175 45.835 -33.175 45.835 -29 45 C-29.75 40.25 -29.75 40.25 -32 38 C-31.01 37.67 -30.02 37.34 -29 37 C-28.01 37.66 -27.02 38.32 -26 39 C-24.754 35.262 -25.56 33.57 -26.723 29.938 C-27 28 -27 28 -25 25 C-23.35 25.33 -21.7 25.66 -20 26 C-20 25.01 -20 24.02 -20 23 C-18.048 21.048 -16.468 20.152 -14 19 C-14 17.68 -14 16.36 -14 15 C-12.68 15.33 -11.36 15.66 -10 16 C-10 15.01 -10 14.02 -10 13 C-9.34 13 -8.68 13 -8 13 C-8 12.34 -8 11.68 -8 11 C-8.66 10.67 -9.32 10.34 -10 10 C-8.68 9.67 -7.36 9.34 -6 9 C-6 8.34 -6 7.68 -6 7 C-6.66 6.67 -7.32 6.34 -8 6 C-7.34 5.67 -6.68 5.34 -6 5 C-6.66 4.34 -7.32 3.68 -8 3 C-5.614 3.576 -3.333 4.222 -1 5 C-0.67 3.35 -0.34 1.7 0 0 Z M-23 26 C-23 27.32 -23 28.64 -23 30 C-22.34 29.34 -21.68 28.68 -21 28 C-21.66 27.34 -22.32 26.68 -23 26 Z M-10 4 C-8 5 -8 5 -8 5 Z M16 52 C16.33 52.165 16.33 52.165 18 53 C17.67 53.165 17.67 53.165 16 54 C16 53.34 16 52.68 16 52 Z M-25 54 C-23 55 -23 55 -23 55 Z " fill="#B451C2" transform="translate(104,111)"/>
<path d="M0 0 C4.047 3.839 5.898 5.771 6.158 11.474 C6.179 12.938 6.194 14.403 6.205 15.868 C6.215 16.668 6.225 17.468 6.235 18.293 C6.267 20.939 6.292 23.585 6.316 26.23 C6.337 28.065 6.358 29.899 6.379 31.733 C6.435 36.561 6.484 41.39 6.532 46.218 C6.582 51.145 6.638 56.071 6.693 60.998 C6.801 70.665 6.902 80.333 7 90 C7.676 90.047 8.352 90.094 9.049 90.142 C9.942 90.215 10.834 90.288 11.754 90.363 C12.636 90.431 13.519 90.498 14.428 90.568 C18.385 91.233 21.335 93.024 24 96 C26.341 99.584 27.066 101.341 26.637 105.648 C26.323 106.878 26.01 108.108 25.688 109.375 C25.382 110.62 25.076 111.865 24.762 113.148 C24.51 114.089 24.259 115.03 24 116 C22.35 116 20.7 116 19 116 C19.186 116.598 19.371 117.196 19.562 117.812 C20 120 20 120 19 123 C18.085 123.121 17.17 123.242 16.227 123.367 C15.038 123.535 13.85 123.702 12.625 123.875 C11.442 124.037 10.258 124.2 9.039 124.367 C6 125 6 125 4 127 C2.411 133.924 1.722 140.91 2 148 C0.68 148 -0.64 148 -2 148 C-2 148.66 -2 149.32 -2 150 C-2.66 150 -3.32 150 -4 150 C-4.33 150.66 -4.33 150.66 -6 154 C-6.557 153.856 -7.114 153.711 -7.688 153.562 C-10.114 152.972 -12.549 152.477 -15 152 C-15 151.34 -15 150.68 -15 150 C-16.65 150.33 -18.3 150.66 -20 151 C-20.33 150.01 -20.66 149.02 -21 148 C-22.938 147.188 -22.938 147.188 -25 147 C-25.33 147.33 -25.33 147.33 -27 149 C-30.819 148.699 -33.241 147.642 -36 145 C-36.362 142.64 -36.362 142.64 -36.172 139.895 C-36.114 138.912 -36.056 137.929 -35.996 136.916 C-35.915 135.892 -35.834 134.868 -35.75 133.812 C-35.684 132.777 -35.619 131.741 -35.551 130.674 C-35.386 128.114 -35.201 125.557 -35 123 C-34.34 123 -33.68 123 -33 123 C-32.67 122.01 -32.34 121.02 -32 120 C-28.514 118.116 -26.722 117.919 -23 119 C-19.951 118.538 -18.662 117.775 -16 116 C-16.33 113.69 -16.66 111.38 -17 109 C-16.505 108.67 -16.505 108.67 -14 107 C-13.812 104.375 -13.812 104.375 -14 102 C-15.32 102 -16.64 102 -18 102 C-18.66 102 -19.32 102 -20 102 C-20 102.66 -20 103.32 -20 104 C-20.66 104 -21.32 104 -22 104 C-22 104.66 -22 105.32 -22 106 C-22.66 105.67 -23.32 105.34 -24 105 C-23.505 104.093 -23.01 103.185 -22.5 102.25 C-21 99 -21 99 -21 95 C-21.66 94.67 -22.32 94.34 -23 94 C-23.33 93.67 -23.66 93.34 -24 93 C-24.99 92.34 -25.98 91.68 -27 91 C-26.01 89.68 -25.02 88.36 -24 87 C-25.32 86.34 -26.64 85.68 -28 85 C-26.68 85 -25.36 85 -24 85 C-24 84.34 -24 83.68 -24 83 C-24.309 83.103 -24.309 83.103 -25.875 83.625 C-26.576 83.749 -27.278 83.873 -28 84 C-28.66 83.34 -29.32 82.68 -30 82 C-28.254 81.609 -26.503 81.237 -24.75 80.875 C-24.263 80.771 -24.263 80.771 -21.797 80.242 C-18.766 79.98 -17.52 80.38 -15 82 C-15.495 82.165 -15.495 82.165 -18 83 C-18.688 85.062 -18.688 85.062 -19 87 C-18.34 86.67 -18.34 86.67 -15 85 C-15 85.99 -15 86.98 -15 88 C-14.67 87.67 -14.67 87.67 -13 86 C-13.375 83.375 -13.375 83.375 -14 81 C-13.381 80.918 -12.762 80.835 -12.125 80.75 C-10 80 -10 80 -8.75 77.938 C-8.502 77.298 -8.255 76.659 -8 76 C-6.68 76.66 -5.36 77.32 -4 78 C-3.01 77.34 -2.02 76.68 -1 76 C-1.99 75.01 -2.98 74.02 -4 73 C-2.68 73 -1.36 73 0 73 C0 72.34 0 71.68 0 71 C-0.639 70.856 -1.279 70.711 -1.938 70.562 C-4 70 -4 70 -5 69 C-6.326 68.638 -7.659 68.303 -9 68 C-8.34 67.67 -8.34 67.67 -5 66 C-5.495 65.67 -5.495 65.67 -8 64 C-8 63.01 -8 62.02 -8 61 C-8.66 61 -9.32 61 -10 61 C-10 60.34 -10 59.68 -10 59 C-10.299 59.082 -10.299 59.082 -11.812 59.5 C-14 60 -14 60 -17 60 C-16 57 -16 57 -13.938 55.812 C-13.298 55.544 -12.659 55.276 -12 55 C-11.67 55.99 -11.34 56.98 -11 58 C-10.67 57.835 -10.67 57.835 -9 57 C-9.33 56.01 -9.66 55.02 -10 54 C-10.66 53.67 -11.32 53.34 -12 53 C-10.02 52.34 -8.04 51.68 -6 51 C-6 50.34 -6 49.68 -6 49 C-5.34 49 -4.68 49 -4 49 C-4 49.66 -4 50.32 -4 51 C-3.67 51.165 -3.67 51.165 -2 52 C-1.67 51.01 -1.34 50.02 -1 49 C-0.34 48.67 0.32 48.34 1 48 C1.33 41.4 1.66 34.8 2 28 C1.34 27.67 0.68 27.34 0 27 C-0.027 25.271 -0.047 23.542 -0.062 21.812 C-0.074 20.85 -0.086 19.887 -0.098 18.895 C-0.004 16.131 0.377 13.687 1 11 C2.019 6.552 2.058 4.116 0 0 Z M-2 27 C-1.34 27 -0.68 27 0 27 C0 27.66 0 28.32 0 29 C-0.66 29 -1.32 29 -2 29 C-2 28.34 -2 27.68 -2 27 Z " fill="#B553C3" transform="translate(144,65)"/>
<path d="M0 0 C0.33 0 0.66 0 1 0 C1.082 2.688 1.141 5.374 1.188 8.062 C1.213 8.815 1.238 9.567 1.264 10.342 C1.346 16.685 0.321 21.547 -4.188 26.312 C-9.248 29.349 -14.149 30.122 -20 30 C-19.954 31.29 -19.907 32.581 -19.859 33.91 C-19.822 35.628 -19.785 37.345 -19.75 39.062 C-19.716 39.91 -19.683 40.758 -19.648 41.631 C-19.543 48.456 -20.885 52.604 -25.598 57.742 C-31.252 62.115 -35.446 62.235 -42.312 62.312 C-42.734 62.327 -42.734 62.327 -44.865 62.4 C-50.44 62.457 -53.58 61.718 -58 58 C-63.658 51.87 -64.29 46.704 -64.125 38.688 C-64.116 37.852 -64.107 37.016 -64.098 36.154 C-64.074 34.103 -64.038 32.051 -64 30 C-64.336 30.004 -64.336 30.004 -66.034 30.027 C-73.042 30.116 -80.05 30.176 -87.059 30.22 C-89.672 30.24 -92.285 30.267 -94.898 30.302 C-98.661 30.35 -102.424 30.373 -106.188 30.391 C-107.349 30.411 -108.511 30.432 -109.708 30.453 C-117.1 30.455 -122.938 29.698 -128.551 24.588 C-131.268 21.598 -132.645 19.023 -133 15 C-132.753 15.634 -132.507 16.269 -132.252 16.923 C-131 19 -131 19 -129.228 19.822 C-121.488 21.244 -113.779 21.27 -105.939 21.206 C-103.609 21.187 -101.279 21.185 -98.949 21.186 C-97.458 21.181 -95.967 21.175 -94.477 21.168 C-94.131 21.167 -94.131 21.167 -92.381 21.165 C-89.085 21.132 -86.168 20.888 -83 20 C-81.487 19.859 -79.971 19.755 -78.453 19.684 C-77.609 19.642 -76.764 19.6 -75.895 19.557 C-75.458 19.537 -75.458 19.537 -73.25 19.438 C-72.806 19.416 -72.806 19.416 -70.559 19.307 C-68.373 19.201 -66.186 19.099 -64 19 C-63.835 19.495 -63.835 19.495 -63 22 C-62.34 22 -61.68 22 -61 22 C-61.016 22.565 -61.031 23.13 -61.048 23.712 C-61.11 26.267 -61.149 28.82 -61.188 31.375 C-61.213 32.264 -61.238 33.154 -61.264 34.07 C-61.273 34.921 -61.283 35.772 -61.293 36.648 C-61.309 37.434 -61.324 38.219 -61.341 39.029 C-61.228 39.679 -61.116 40.33 -61 41 C-57.543 43.304 -56.051 43.259 -52 43 C-51.34 42.67 -50.68 42.34 -50 42 C-47.875 42.938 -47.875 42.938 -46 44 C-46 44.66 -46 45.32 -46 46 C-45.278 45.959 -44.556 45.917 -43.812 45.875 C-40.758 46.011 -38.784 46.786 -36 48 C-34.673 48.359 -33.342 48.702 -32 49 C-31.34 48.01 -30.68 47.02 -30 46 C-29.34 46 -28.68 46 -28 46 C-28 45.34 -28 44.68 -28 44 C-26.68 44 -25.36 44 -24 44 C-24 43.01 -24 42.02 -24 41 C-24.66 40.67 -25.32 40.34 -26 40 C-25.34 40 -24.68 40 -24 40 C-24.09 39.651 -24.09 39.651 -24.547 37.883 C-25.057 34.636 -24.785 32.112 -24.25 28.875 C-24.09 27.841 -23.93 26.807 -23.766 25.742 C-22.938 22.778 -22.581 21.65 -20 20 C-16.863 19.488 -16.863 19.488 -13.312 19.312 C-12.133 19.247 -10.954 19.181 -9.738 19.113 C-8.835 19.076 -7.931 19.039 -7 19 C-7 16.69 -7 14.38 -7 12 C-5.35 12 -3.7 12 -2 12 C-2.041 10.948 -2.083 9.896 -2.125 8.812 C-2.009 5.26 -1.528 3.151 0 0 Z " fill="#AE4EBE" transform="translate(170,169)"/>
<path d="M0 0 C0.754 -0.003 1.508 -0.006 2.285 -0.009 C3.872 -0.011 5.459 -0.005 7.045 0.007 C9.462 0.023 11.877 0.007 14.293 -0.012 C15.841 -0.01 17.389 -0.006 18.938 0 C19.653 -0.006 20.369 -0.012 21.107 -0.018 C25.773 0.046 29.043 0.854 32.969 3.398 C34.344 6.586 34.344 6.586 34.969 9.398 C33.319 10.718 31.669 12.038 29.969 13.398 C29.804 12.408 29.804 12.408 28.969 7.398 C27.319 7.068 25.669 6.738 23.969 6.398 C23.639 7.388 23.309 8.378 22.969 9.398 C22.309 9.398 21.649 9.398 20.969 9.398 C20.969 8.738 20.969 8.078 20.969 7.398 C20.309 7.398 19.649 7.398 18.969 7.398 C18.804 7.068 18.804 7.068 17.969 5.398 C17.525 5.708 17.525 5.708 15.281 7.273 C12.468 9.078 10.066 10.237 6.969 11.398 C5.979 11.914 4.989 12.43 3.969 12.961 C1.186 14.294 -1.026 14.859 -4.031 15.398 C-5.701 16.058 -7.368 16.724 -9.031 17.398 C-9.691 17.398 -10.351 17.398 -11.031 17.398 C-11.361 18.718 -11.691 20.038 -12.031 21.398 C-12.691 21.068 -13.351 20.738 -14.031 20.398 C-17.001 23.368 -18.118 26.354 -19.031 30.398 C-19.196 30.893 -19.196 30.893 -20.031 33.398 C-20.691 33.398 -21.351 33.398 -22.031 33.398 C-21.866 34.223 -21.866 34.223 -21.031 38.398 C-21.856 38.563 -21.856 38.563 -26.031 39.398 C-26.031 40.058 -26.031 40.718 -26.031 41.398 C-26.691 41.398 -27.351 41.398 -28.031 41.398 C-28.031 42.058 -28.031 42.718 -28.031 43.398 C-28.031 44.398 -28.031 44.398 -29.031 47.398 C-31.634 49.047 -32.894 49.398 -36.031 49.398 C-36.031 50.058 -36.031 50.718 -36.031 51.398 C-36.691 51.398 -37.351 51.398 -38.031 51.398 C-38.031 52.058 -38.031 52.718 -38.031 53.398 C-38.691 53.398 -39.351 53.398 -40.031 53.398 C-39.701 54.388 -39.371 55.378 -39.031 56.398 C-39.361 56.728 -39.691 57.058 -40.031 57.398 C-39.371 58.058 -38.711 58.718 -38.031 59.398 C-39.351 59.398 -40.671 59.398 -42.031 59.398 C-42.031 60.058 -42.031 60.718 -42.031 61.398 C-42.691 61.398 -43.351 61.398 -44.031 61.398 C-44.656 64.273 -44.656 64.273 -45.031 67.398 C-44.371 68.058 -43.711 68.718 -43.031 69.398 C-45.011 70.388 -46.991 71.378 -49.031 72.398 C-49.031 74.048 -49.031 75.698 -49.031 77.398 C-48.206 77.233 -48.206 77.233 -44.031 76.398 C-45.048 79.449 -45.753 80.302 -48.031 82.398 C-48.361 82.728 -48.361 82.728 -50.031 84.398 C-50.196 84.068 -50.196 84.068 -51.031 82.398 C-50.701 81.738 -50.371 81.078 -50.031 80.398 C-50.691 80.398 -51.351 80.398 -52.031 80.398 C-52.031 81.058 -52.031 81.718 -52.031 82.398 C-52.691 82.563 -52.691 82.563 -56.031 83.398 C-55.371 84.058 -54.711 84.718 -54.031 85.398 C-54.691 85.563 -54.691 85.563 -58.031 86.398 C-58.093 87.182 -58.155 87.966 -58.219 88.773 C-58.487 89.64 -58.755 90.506 -59.031 91.398 C-60.692 92.08 -62.359 92.746 -64.031 93.398 C-65.344 96.023 -65.344 96.023 -66.031 98.398 C-66.691 98.398 -67.351 98.398 -68.031 98.398 C-68.031 100.378 -68.031 102.358 -68.031 104.398 C-67.371 104.728 -66.711 105.058 -66.031 105.398 C-66.691 105.398 -67.351 105.398 -68.031 105.398 C-67.701 106.388 -67.371 107.378 -67.031 108.398 C-67.196 108.728 -67.196 108.728 -68.031 110.398 C-67.371 110.398 -66.711 110.398 -66.031 110.398 C-66.031 111.718 -66.031 113.038 -66.031 114.398 C-66.691 114.563 -66.691 114.563 -70.031 115.398 C-70.031 114.408 -70.031 113.418 -70.031 112.398 C-70.361 112.068 -70.691 111.738 -71.031 111.398 C-71.159 108.657 -71.216 105.953 -71.219 103.211 C-71.231 102.455 -71.243 101.699 -71.256 100.92 C-71.29 87.812 -62.93 77.004 -56.156 66.273 C-55.511 65.247 -54.866 64.221 -54.202 63.164 C-44.731 48.12 -35.2 33.11 -25.406 18.273 C-24.946 17.57 -24.485 16.866 -24.011 16.141 C-17.565 6.455 -12.552 -0.106 0 0 Z " fill="#B863CA" transform="translate(110.03125,59.6015625)"/>
<path d="M0 0 C0.825 0.165 0.825 0.165 5 1 C4.34 15.85 3.68 30.7 3 46 C-8.687 46.375 -8.687 46.375 -12.346 46.478 C-13.308 46.514 -14.271 46.549 -15.262 46.586 C-16.241 46.617 -17.22 46.649 -18.229 46.681 C-21.134 47.015 -23.319 47.871 -26 49 C-31.368 49.316 -31.368 49.316 -34 48 C-34 47.34 -34 46.68 -34 46 C-33.175 45.835 -33.175 45.835 -29 45 C-29.75 40.25 -29.75 40.25 -32 38 C-31.505 37.835 -31.505 37.835 -29 37 C-28.01 37.66 -27.02 38.32 -26 39 C-24.754 35.262 -25.56 33.57 -26.723 29.938 C-27 28 -27 28 -25 25 C-23.35 25.33 -21.7 25.66 -20 26 C-20 25.01 -20 24.02 -20 23 C-18.048 21.048 -16.468 20.152 -14 19 C-14 17.68 -14 16.36 -14 15 C-12.68 15.33 -11.36 15.66 -10 16 C-10 15.01 -10 14.02 -10 13 C-9.34 13 -8.68 13 -8 13 C-8 12.34 -8 11.68 -8 11 C-8.66 10.67 -9.32 10.34 -10 10 C-8.68 9.67 -7.36 9.34 -6 9 C-6 8.34 -6 7.68 -6 7 C-6.66 6.67 -7.32 6.34 -8 6 C-7.34 5.67 -6.68 5.34 -6 5 C-6.66 4.34 -7.32 3.68 -8 3 C-5.614 3.576 -3.333 4.222 -1 5 C-0.67 3.35 -0.34 1.7 0 0 Z M-23 26 C-23 27.32 -23 28.64 -23 30 C-22.34 29.34 -21.68 28.68 -21 28 C-21.66 27.34 -22.32 26.68 -23 26 Z M-10 4 C-8 5 -8 5 -8 5 Z " fill="#B251BF" transform="translate(104,111)"/>
<path d="M0 0 C4.047 3.84 5.922 5.76 6.12 11.474 C6.123 12.939 6.12 14.403 6.114 15.868 C6.114 16.668 6.114 17.468 6.114 18.293 C6.113 20.939 6.105 23.585 6.098 26.23 C6.096 28.065 6.094 29.899 6.093 31.733 C6.09 36.561 6.08 41.39 6.069 46.218 C6.058 51.145 6.054 56.071 6.049 60.998 C6.038 70.665 6.021 80.333 6 90 C3.03 89.34 0.06 88.68 -3 88 C-2.67 85.69 -2.34 83.38 -2 81 C-3.65 81 -5.3 81 -7 81 C-7 81.66 -7 82.32 -7 83 C-6.505 82.835 -6.505 82.835 -4 82 C-4.33 83.65 -4.66 85.3 -5 87 C-5.66 87 -6.32 87 -7 87 C-7 87.66 -7 88.32 -7 89 C-6.505 89.165 -6.505 89.165 -4 90 C-5.125 91.5 -5.125 91.5 -7 93 C-10.188 93.188 -10.188 93.188 -13 93 C-12.34 94.32 -11.68 95.64 -11 97 C-13.31 97 -15.62 97 -18 97 C-18.33 98.32 -18.66 99.64 -19 101 C-19.66 101 -20.32 101 -21 101 C-21 99.02 -21 97.04 -21 95 C-21.66 94.67 -22.32 94.34 -23 94 C-23.33 93.67 -23.66 93.34 -24 93 C-24.99 92.34 -25.98 91.68 -27 91 C-26.01 89.68 -25.02 88.36 -24 87 C-25.32 86.34 -26.64 85.68 -28 85 C-26.68 85 -25.36 85 -24 85 C-24 84.34 -24 83.68 -24 83 C-24.619 83.206 -25.237 83.412 -25.875 83.625 C-26.576 83.749 -27.278 83.873 -28 84 C-28.66 83.34 -29.32 82.68 -30 82 C-28.254 81.609 -26.503 81.237 -24.75 80.875 C-24.263 80.771 -24.263 80.771 -21.797 80.242 C-18.766 79.98 -17.52 80.38 -15 82 C-15.495 82.165 -15.495 82.165 -18 83 C-18.688 85.062 -18.688 85.062 -19 87 C-18.34 86.67 -18.34 86.67 -15 85 C-15 85.99 -15 86.98 -15 88 C-14.67 87.67 -14.67 87.67 -13 86 C-13.375 83.375 -13.375 83.375 -14 81 C-13.381 80.918 -12.762 80.835 -12.125 80.75 C-10 80 -10 80 -8.75 77.938 C-8.502 77.298 -8.255 76.659 -8 76 C-6.68 76.66 -5.36 77.32 -4 78 C-3.505 77.67 -3.505 77.67 -1 76 C-1.99 75.01 -2.98 74.02 -4 73 C-2.68 73 -1.36 73 0 73 C0 72.34 0 71.68 0 71 C-0.639 70.856 -1.279 70.711 -1.938 70.562 C-4 70 -4 70 -5 69 C-6.326 68.638 -7.659 68.303 -9 68 C-8.34 67.67 -8.34 67.67 -5 66 C-5.495 65.67 -5.495 65.67 -8 64 C-8 63.01 -8 62.02 -8 61 C-8.66 61 -9.32 61 -10 61 C-10 60.34 -10 59.68 -10 59 C-10.299 59.082 -10.299 59.082 -11.812 59.5 C-14 60 -14 60 -17 60 C-16 57 -16 57 -13.938 55.812 C-13.298 55.544 -12.659 55.276 -12 55 C-11.67 55.99 -11.34 56.98 -11 58 C-10.67 57.835 -10.67 57.835 -9 57 C-9.33 56.01 -9.66 55.02 -10 54 C-10.66 53.67 -11.32 53.34 -12 53 C-10.02 52.34 -8.04 51.68 -6 51 C-6 50.34 -6 49.68 -6 49 C-5.34 49 -4.68 49 -4 49 C-4 49.66 -4 50.32 -4 51 C-3.34 51.33 -2.68 51.66 -2 52 C-1.67 51.01 -1.34 50.02 -1 49 C-0.67 48.835 -0.67 48.835 1 48 C1.33 41.4 1.66 34.8 2 28 C1.34 27.67 0.68 27.34 0 27 C-0.027 25.271 -0.047 23.542 -0.062 21.812 C-0.074 20.85 -0.086 19.887 -0.098 18.895 C-0.004 16.131 0.377 13.687 1 11 C2.019 6.552 2.058 4.116 0 0 Z M-2 27 C-1.34 27 -0.68 27 0 27 C0 27.66 0 28.32 0 29 C-0.66 29 -1.32 29 -2 29 C-2 28.34 -2 27.68 -2 27 Z " fill="#B350C1" transform="translate(144,65)"/>
<path d="M0 0 C-0.66 1.98 -1.32 3.96 -2 6 C-2.66 6 -3.32 6 -4 6 C-4 6.66 -4 7.32 -4 8 C-2.68 8.66 -1.36 9.32 0 10 C-0.66 10.33 -0.66 10.33 -4 12 C-4 13.32 -4 14.64 -4 16 C-3.34 16 -2.68 16 -2 16 C-2.33 17.32 -2.66 18.64 -3 20 C0 22 0 22 2 22 C2 21.34 2 20.68 2 20 C5.875 20.875 5.875 20.875 7 22 C7.062 21.598 7.062 21.598 7.375 19.562 C7.581 18.717 7.787 17.871 8 17 C10.862 15.569 12.934 16.4 16 17 C16 17.66 16 18.32 16 19 C14.02 19 12.04 19 10 19 C10 19.66 10 20.32 10 21 C10.99 21.33 11.98 21.66 13 22 C13 22.99 13 23.98 13 25 C14.65 25.33 16.3 25.66 18 26 C17 28 17 28 15 29 C15.165 29.825 15.165 29.825 16 34 C15.01 34 14.02 34 13 34 C12.67 33.34 12.34 32.68 12 32 C11.01 32.33 10.02 32.66 9 33 C9.375 31.062 9.375 31.062 10 29 C10.66 28.67 11.32 28.34 12 28 C7.589 26.974 5.074 26.963 1 29 C1.99 29 2.98 29 4 29 C4.687 31.491 5 33.379 5 36 C4.01 36.33 3.02 36.66 2 37 C4 38 5.831 38.494 8 39 C8 41.658 7.382 44.374 7 47 C5.845 47.165 5.845 47.165 0 48 C0.33 47.01 0.66 46.02 1 45 C0.01 45.66 -0.98 46.32 -2 47 C-2 47.66 -2 48.32 -2 49 C-2.66 49 -3.32 49 -4 49 C-4 49.99 -4 50.98 -4 52 C-7.233 52.277 -8.7 52.188 -11.5 50.438 C-14 49 -14 49 -16.812 49.312 C-17.173 49.426 -17.173 49.426 -19 50 C-17.845 50.165 -17.845 50.165 -12 51 C-12 51.66 -12 52.32 -12 53 C-11.34 53.33 -10.68 53.66 -10 54 C-10 54.99 -10 55.98 -10 57 C-11.98 56.67 -13.96 56.34 -16 56 C-15.67 55.34 -15.34 54.68 -15 54 C-14.34 54.33 -13.68 54.66 -13 55 C-13 54.34 -13 53.68 -13 53 C-13.928 53.309 -14.856 53.619 -15.812 53.938 C-17.875 54.625 -19.938 55.312 -22 56 C-23.333 54.667 -24.667 53.333 -26 52 C-25.01 52 -24.02 52 -23 52 C-23 51.34 -23 50.68 -23 50 C-23.66 49.67 -24.32 49.34 -25 49 C-24.01 48.01 -23.02 47.02 -22 46 C-23.65 46.99 -25.3 47.98 -27 49 C-27.33 48.34 -27.66 47.68 -28 47 C-28.309 47.949 -28.619 48.898 -28.938 49.875 C-30 53 -30 53 -31 55 C-32.32 55 -33.64 55 -35 55 C-34.67 55.99 -34.34 56.98 -34 58 C-34.66 58 -35.32 58 -36 58 C-36 58.66 -36 59.32 -36 60 C-36.66 60 -37.32 60 -38 60 C-38.931 57.394 -39.149 56.358 -38.062 53.75 C-37.712 53.173 -37.361 52.595 -37 52 C-35.68 52 -34.36 52 -33 52 C-33.639 51.732 -34.279 51.464 -34.938 51.188 C-37 50 -37 50 -38 47 C-38.66 46.67 -39.32 46.34 -40 46 C-40 46.66 -40 47.32 -40 48 C-40.66 47.67 -41.32 47.34 -42 47 C-40.667 45.667 -39.333 44.333 -38 43 C-38.99 43 -39.98 43 -41 43 C-41 42.34 -41 41.68 -41 41 C-34.052 37.787 -28.084 37.636 -20.5 37.812 C-19.946 37.819 -19.946 37.819 -17.141 37.854 C-14.427 37.889 -11.714 37.938 -9 38 C-7.211 33.361 -6.705 29.373 -6.586 24.414 C-6.567 23.712 -6.547 23.01 -6.527 22.287 C-6.468 20.067 -6.421 17.846 -6.375 15.625 C-6.337 14.111 -6.298 12.596 -6.258 11.082 C-6.162 7.388 -6.078 3.694 -6 0 C-3 -1 -3 -1 0 0 Z M4 44 C4.33 44.66 4.66 45.32 5 46 C5.33 45.34 5.66 44.68 6 44 C5.34 44 4.68 44 4 44 Z M5 31 C7 32 7 32 7 32 Z " fill="#B958C7" transform="translate(116,119)"/>
<path d="M0 0 C0.99 0.33 1.98 0.66 3 1 C5.768 7.409 5.186 14.134 5 21 C5.66 21 6.32 21 7 21 C5.494 30.038 0.172 33.785 -6.652 39.203 C-9.542 41.536 -11.909 43.897 -14 47 C-14.25 50.125 -14.25 50.125 -14 53 C-14 58.167 -16.967 61.927 -20 66 C-22.625 67.75 -22.625 67.75 -25 69 C-25.66 69.66 -26.32 70.32 -27 71 C-28.994 71.366 -30.995 71.701 -33 72 C-33.33 72.33 -33.66 72.66 -34 73 C-39.083 73.391 -41.827 72.898 -46 70 C-46.495 69.835 -46.495 69.835 -49 69 C-49 68.34 -49 67.68 -49 67 C-49.722 66.732 -50.444 66.464 -51.188 66.188 C-53.998 65.001 -56.484 63.725 -59 62 C-59 61.34 -59 60.68 -59 60 C-59.619 59.773 -60.237 59.546 -60.875 59.312 C-63.614 57.621 -64.05 56.008 -65 53 C-64.34 52.34 -63.68 51.68 -63 51 C-62.154 52.432 -61.307 53.865 -60.461 55.297 C-57.794 58.406 -54.961 60.652 -50.846 61.382 C-48.405 61.538 -46.007 61.546 -43.562 61.5 C-42.742 61.515 -41.922 61.531 -41.076 61.547 C-35.232 61.51 -31.799 60.349 -27 57 C-23.3 53.008 -21.937 49.935 -21.684 44.551 C-21.663 44.127 -21.663 44.127 -21.557 41.982 C-21.517 41.101 -21.478 40.22 -21.438 39.312 C-21.416 38.866 -21.416 38.866 -21.307 36.607 C-21.201 34.405 -21.099 32.203 -21 30 C-20.12 29.841 -19.239 29.683 -18.332 29.52 C-6.559 27.154 -6.559 27.154 -3 22 C-0.703 17.481 -0.575 13.154 -0.375 8.188 C-0.336 7.399 -0.298 6.611 -0.258 5.799 C-0.164 3.866 -0.081 1.933 0 0 Z " fill="#CEB993" transform="translate(171,169)"/>
<path d="M0 0 C3.536 0.884 5.024 2.027 7.5 4.75 C10.552 10.431 7.642 17.197 6 23 C4.35 23 2.7 23 1 23 C1.186 23.598 1.371 24.196 1.562 24.812 C2 27 2 27 1 30 C0.085 30.121 -0.83 30.242 -1.773 30.367 C-2.962 30.535 -4.15 30.702 -5.375 30.875 C-6.558 31.037 -7.742 31.2 -8.961 31.367 C-12 32 -12 32 -14 34 C-15.589 40.924 -16.278 47.91 -16 55 C-17.32 55 -18.64 55 -20 55 C-20 55.66 -20 56.32 -20 57 C-20.66 57 -21.32 57 -22 57 C-22.66 58.32 -23.32 59.64 -24 61 C-24.557 60.856 -25.114 60.711 -25.688 60.562 C-28.114 59.972 -30.549 59.477 -33 59 C-32.67 57.68 -32.34 56.36 -32 55 C-32.66 55 -33.32 55 -34 55 C-33.67 54.01 -33.34 53.02 -33 52 C-32.505 51.835 -32.505 51.835 -30 51 C-29.67 50.34 -29.34 49.68 -29 49 C-29.33 48.67 -29.66 48.34 -30 48 C-30 47.34 -30 46.68 -30 46 C-29.01 45.835 -29.01 45.835 -24 45 C-24 44.34 -24 43.68 -24 43 C-25.155 43.165 -25.155 43.165 -31 44 C-31.33 45.32 -31.66 46.64 -32 48 C-32.66 48 -33.32 48 -34 48 C-34 47.01 -34 46.02 -34 45 C-35.32 45 -36.64 45 -38 45 C-37.67 45.99 -37.34 46.98 -37 48 C-37.938 50.188 -37.938 50.188 -39 52 C-41 51 -41 51 -42 49 C-41.34 49 -40.68 49 -40 49 C-40.66 47.02 -41.32 45.04 -42 43 C-40.886 43.021 -39.772 43.041 -38.625 43.062 C-35 43 -35 43 -33 42 C-33.99 41.01 -34.98 40.02 -36 39 C-35.67 38.01 -35.34 37.02 -35 36 C-33.68 36.99 -32.36 37.98 -31 39 C-30.01 38.01 -29.02 37.02 -28 36 C-26.68 36.66 -25.36 37.32 -24 38 C-25.65 38.99 -27.3 39.98 -29 41 C-25.877 40.514 -23.004 40.001 -20 39 C-20.99 38.34 -21.98 37.68 -23 37 C-22.01 36.01 -21.02 35.02 -20 34 C-20.165 33.835 -20.165 33.835 -21 33 C-20.398 30.98 -19.727 28.979 -19 27 C-18.34 26.67 -17.68 26.34 -17 26 C-16.67 25.01 -16.34 24.02 -16 23 C-15.34 23.33 -14.68 23.66 -14 24 C-13.67 24 -13.34 24 -13 24 C-10.666 24.328 -8.332 24.661 -6 25 C-5.835 24.505 -5.835 24.505 -5 22 C-3.35 22.33 -1.7 22.66 0 23 C-0.165 22.67 -0.165 22.67 -1 21 C-3.562 20.375 -3.562 20.375 -6 20 C-5.34 17.03 -4.68 14.06 -4 11 C-3.835 11.33 -3.835 11.33 -3 13 C-1 14 -1 14 1 14 C1.33 13.34 1.66 12.68 2 12 C1.34 12 0.68 12 0 12 C0 11.34 0 10.68 0 10 C-0.66 9.67 -1.32 9.34 -2 9 C-1.01 8.34 -0.02 7.68 1 7 C1.281 4.194 1.267 2.534 0 0 Z M-44 45 C-42 46 -42 46 -42 46 Z " fill="#AF50BE" transform="translate(162,158)"/>
<path d="M0 0 C0.543 0.349 1.085 0.699 1.645 1.059 C2.36 1.514 3.075 1.969 3.812 2.438 C4.166 2.664 4.166 2.664 5.957 3.809 C9.492 5.87 12.378 6.141 16.389 6.205 C16.94 6.215 16.94 6.215 19.726 6.266 C20.319 6.274 20.319 6.274 23.324 6.316 C24.541 6.337 25.757 6.358 27.011 6.379 C30.903 6.445 34.795 6.504 38.688 6.562 C41.324 6.606 43.96 6.649 46.596 6.693 C53.064 6.801 59.532 6.902 66 7 C66.225 10.291 66.427 13.582 66.625 16.875 C66.689 17.812 66.754 18.749 66.82 19.715 C66.846 20.163 66.846 20.163 66.977 22.43 C67.029 23.257 67.081 24.085 67.135 24.937 C67 27 67 27 65 29 C64.832 27.542 64.666 26.083 64.5 24.625 C64.407 23.813 64.314 23.001 64.219 22.164 C64 20 64 20 64 18 C62.02 18 60.04 18 58 18 C57.67 18.66 57.34 19.32 57 20 C56.294 19.844 55.587 19.688 54.859 19.527 C46.62 17.964 39.055 18.025 30.718 18.631 C29.891 18.689 29.063 18.748 28.211 18.809 C27.471 18.868 26.732 18.928 25.97 18.99 C24 19 24 19 21 18 C21 17.34 21 16.68 21 16 C19.68 16 18.36 16 17 16 C17 15.34 17 14.68 17 14 C16.34 14 15.68 14 15 14 C15 13.34 15 12.68 15 12 C10.71 11.34 6.42 10.68 2 10 C2 8.35 2 6.7 2 5 C1.34 5 0.68 5 0 5 C-0.562 3.062 -0.562 3.062 -1 1 C-0.67 0.67 -0.34 0.34 0 0 Z " fill="#CFB996" transform="translate(40,192)"/>
<path d="M0 0 C0.99 0.33 1.98 0.66 3 1 C3.875 2.875 3.875 2.875 4 5 C2.158 7.486 0.995 8.002 -2 9 C-2 9.99 -2 10.98 -2 12 C-0.02 12.33 1.96 12.66 4 13 C4 12.34 4 11.68 4 11 C4.99 11 5.98 11 7 11 C7.66 11.66 8.32 12.32 9 13 C11.562 12.75 11.562 12.75 14 12 C14.33 11.34 14.66 10.68 15 10 C17.97 10 20.94 10 24 10 C23.01 10.99 22.02 11.98 21 13 C21.99 13.33 22.98 13.66 24 14 C24.66 12.35 25.32 10.7 26 9 C26.99 9.33 27.98 9.66 29 10 C28.34 10 27.68 10 27 10 C27 10.66 27 11.32 27 12 C27.99 12.33 28.98 12.66 30 13 C30.33 13.165 30.33 13.165 32 14 C32 13.34 32 12.68 32 12 C32.66 12 33.32 12 34 12 C34 12.66 34 13.32 34 14 C36.784 12.608 36.979 10.844 38 8 C38.99 8.33 39.98 8.66 41 9 C40.67 9.99 40.34 10.98 40 12 C40.866 11.649 41.733 11.299 42.625 10.938 C46.285 9.921 48.334 10.267 52 11 C52.99 10.67 53.98 10.34 55 10 C54.505 9.546 54.01 9.093 53.5 8.625 C52 7 52 7 52 5 C53.32 5.33 54.64 5.66 56 6 C56.165 6.66 56.165 6.66 57 10 C55.715 10.864 54.422 11.716 53.125 12.562 C52.406 13.038 51.686 13.514 50.945 14.004 C50.624 14.168 50.624 14.168 49 15 C48.67 14.835 48.67 14.835 47 14 C47.33 13.67 47.66 13.34 48 13 C44.441 13.324 42.465 13.61 39.688 15.938 C38 18 38 18 37 20 C36.34 20 35.68 20 35 20 C34.835 19.67 34.835 19.67 34 18 C30.354 18.138 26.708 18.287 23.062 18.438 C22.022 18.477 20.981 18.516 19.908 18.557 C18.919 18.599 17.929 18.64 16.91 18.684 C15.994 18.72 15.077 18.757 14.133 18.795 C12 19 12 19 11 20 C8.561 20.101 6.151 20.14 3.711 20.133 C2.974 20.134 2.238 20.135 1.479 20.136 C-0.087 20.136 -1.652 20.135 -3.217 20.13 C-5.594 20.125 -7.971 20.13 -10.348 20.137 C-11.87 20.136 -13.392 20.135 -14.914 20.133 C-15.619 20.135 -16.323 20.137 -17.049 20.139 C-21.475 20.118 -25.646 19.715 -30 19 C-30 18.34 -30 17.68 -30 17 C-30.99 17 -31.98 17 -33 17 C-34.688 15.5 -34.688 15.5 -36 14 C-35.34 12.02 -34.68 10.04 -34 8 C-33.794 8.639 -33.587 9.279 -33.375 9.938 C-32 12 -32 12 -29.125 12.812 C-26.343 12.979 -24.621 12.749 -22 12 C-21.34 12.33 -20.68 12.66 -20 13 C-20 12.34 -20 11.68 -20 11 C-19.01 10.67 -18.02 10.34 -17 10 C-16.67 9.34 -16.34 8.68 -16 8 C-15.01 8.33 -14.02 8.66 -13 9 C-13.66 9 -14.32 9 -15 9 C-15 9.99 -15 10.98 -15 12 C-14.34 12.33 -13.68 12.66 -13 13 C-13.99 13.33 -14.98 13.66 -16 14 C-15.67 14.33 -15.34 14.66 -15 15 C-12.938 14.562 -12.938 14.562 -11 14 C-11.33 13.01 -11.66 12.02 -12 11 C-11.01 11.165 -11.01 11.165 -6 12 C-6.33 11.34 -6.66 10.68 -7 10 C-8.65 10 -10.3 10 -12 10 C-12 9.34 -12 8.68 -12 8 C-8.37 7.34 -4.74 6.68 -1 6 C-0.67 4.02 -0.34 2.04 0 0 Z M7 10 C9 11 9 11 9 11 Z " fill="#B04DBD" transform="translate(72,171)"/>
<path d="M0 0 C0.241 0.635 0.483 1.269 0.731 1.923 C2 4 2 4 3.92 4.815 C11.014 6.04 17.965 6.327 25.156 6.379 C25.768 6.387 25.768 6.387 28.866 6.43 C32.744 6.483 36.622 6.524 40.5 6.562 C44.407 6.606 48.313 6.653 52.22 6.705 C54.644 6.737 57.068 6.764 59.492 6.786 C60.581 6.799 61.669 6.813 62.791 6.826 C63.271 6.831 63.271 6.831 65.701 6.855 C68 7 68 7 70 8 C70 11.3 70 14.6 70 18 C69.835 17.505 69.835 17.505 69 15 C68.664 15.004 68.664 15.004 66.966 15.027 C59.958 15.116 52.95 15.176 45.941 15.22 C43.328 15.24 40.715 15.267 38.102 15.302 C34.339 15.35 30.576 15.373 26.812 15.391 C25.651 15.411 24.489 15.432 23.292 15.453 C15.9 15.455 10.062 14.698 4.449 9.588 C1.732 6.598 0.355 4.023 0 0 Z " fill="#74317A" transform="translate(37,184)"/>
<path d="M0 0 C3 1 3 1 5 4 C5.379 6.094 5.379 6.094 5.562 8.5 C5.633 9.379 5.704 10.258 5.777 11.164 C5.851 12.1 5.924 13.036 6 14 C6.104 14.977 6.209 15.954 6.316 16.961 C6.418 17.923 6.52 18.884 6.625 19.875 C6.72 20.759 6.816 21.644 6.914 22.555 C7 25 7 25 6.496 26.961 C5.835 29.68 6.152 31.969 6.438 34.75 C6.894 39.994 7.116 45.178 7.125 50.438 C7.128 51.736 7.13 53.034 7.133 54.371 C7 58 7 58 6.43 61.348 C6 64 6 64 7 66 C6.667 68.333 6.333 70.667 6 73 C6.33 73.66 6.66 74.32 7 75 C7.04 76.666 7.044 78.334 7 80 C5 80.043 3 80.041 1 80 C-0.708 78.292 -0.12 76.14 -0.124 73.862 C-0.121 73.127 -0.117 72.392 -0.114 71.635 C-0.114 70.864 -0.114 70.093 -0.114 69.299 C-0.113 66.74 -0.105 64.18 -0.098 61.621 C-0.096 59.851 -0.094 58.082 -0.093 56.312 C-0.09 51.644 -0.08 46.977 -0.069 42.31 C-0.058 37.551 -0.054 32.792 -0.049 28.033 C-0.038 18.689 -0.021 9.344 0 0 Z " fill="#E4D3B8" transform="translate(150,76)"/>
<path d="M0 0 C-1 3 -1 3 -3 4.75 C-7.198 6.499 -10.61 5.794 -15 5 C-15 5.66 -15 6.32 -15 7 C-15.66 7 -16.32 7 -17 7 C-17 7.66 -17 8.32 -17 9 C-17.66 9.33 -18.32 9.66 -19 10 C-19.722 11.644 -20.394 13.311 -21 15 C-21.66 15 -22.32 15 -23 15 C-23.182 15.615 -23.364 16.23 -23.551 16.863 C-23.676 17.267 -23.676 17.267 -24.312 19.312 C-24.556 20.113 -24.8 20.914 -25.051 21.738 C-26.054 24.129 -27.153 25.232 -29 27 C-29.165 27.495 -29.165 27.495 -30 30 C-31 31 -32 32 -33 33 C-33 33.66 -33 34.32 -33 35 C-33.66 35 -34.32 35 -35 35 C-35 35.66 -35 36.32 -35 37 C-35.66 37 -36.32 37 -37 37 C-37.66 38.98 -38.32 40.96 -39 43 C-39.66 43 -40.32 43 -41 43 C-41 44.32 -41 45.64 -41 47 C-41.66 47 -42.32 47 -43 47 C-43 47.66 -43 48.32 -43 49 C-43.66 49 -44.32 49 -45 49 C-45 49.66 -45 50.32 -45 51 C-45.66 51 -46.32 51 -47 51 C-46.67 51.99 -46.34 52.98 -46 54 C-46.474 54.031 -46.474 54.031 -48.875 54.188 C-49.906 54.456 -50.938 54.724 -52 55 C-53.062 57 -53.062 57 -54 60 C-54.848 61.618 -55.726 63.222 -56.625 64.812 C-56.848 65.208 -56.848 65.208 -57.977 67.207 C-58.314 67.799 -58.652 68.39 -59 69 C-59.66 69 -60.32 69 -61 69 C-61.144 69.454 -61.144 69.454 -61.875 71.75 C-62.765 74.322 -63.715 76.613 -65 79 C-65.66 79 -66.32 79 -67 79 C-67.248 79.866 -67.495 80.733 -67.75 81.625 C-69.07 85.188 -70.885 87.861 -73 91 C-73.75 93.375 -73.75 93.375 -74 95 C-74.66 95 -75.32 95 -76 95 C-75.498 89.983 -73.783 86.434 -71.125 82.25 C-70.728 81.608 -70.331 80.966 -69.922 80.305 C-69.066 78.922 -68.207 77.541 -67.344 76.162 C-65.98 73.968 -64.641 71.76 -63.309 69.547 C-58.612 61.759 -53.796 54.085 -48.704 46.55 C-45.659 42.031 -42.745 37.444 -39.875 32.812 C-21.949 3.924 -21.949 3.924 -15.562 0.812 C-10.378 -0.37 -5.294 -0.154 0 0 Z " fill="#C470D4" transform="translate(117,62)"/>
<path d="M0 0 C0.99 0.33 1.98 0.66 3 1 C5.768 7.409 5.186 14.134 5 21 C5.66 21 6.32 21 7 21 C5.494 30.038 0.172 33.785 -6.652 39.203 C-9.542 41.536 -11.909 43.897 -14 47 C-14.25 50.125 -14.25 50.125 -14 53 C-14 58.167 -16.967 61.927 -20 66 C-22.625 67.75 -22.625 67.75 -25 69 C-25.33 69.33 -25.33 69.33 -27 71 C-28.994 71.366 -30.995 71.701 -33 72 C-33.165 72.165 -33.165 72.165 -34 73 C-39.083 73.391 -41.827 72.898 -46 70 C-46.99 69.67 -47.98 69.34 -49 69 C-49 68.34 -49 67.68 -49 67 C-48.39 66.966 -47.78 66.931 -47.152 66.896 C-44.37 66.725 -41.592 66.519 -38.812 66.312 C-38.333 66.286 -38.333 66.286 -35.904 66.15 C-31.302 65.784 -28.723 65.564 -25.012 62.668 C-24.348 61.788 -23.684 60.907 -23 60 C-22.712 59.691 -22.712 59.691 -21.254 58.125 C-19.496 55.146 -19.311 52.422 -18.938 49 C-18.025 40.793 -18.025 40.793 -16 38 C-13.758 36.656 -13.758 36.656 -11.125 35.5 C-7.366 33.751 -4.783 32.131 -2 29 C-1.34 29 -0.68 29 0 29 C1.326 24.195 2.368 20.031 2 15 C1.835 14.835 1.835 14.835 1 14 C0.765 11.65 0.586 9.294 0.438 6.938 C0.354 5.647 0.27 4.357 0.184 3.027 C0.123 2.028 0.062 1.029 0 0 Z " fill="#DFCDA9" transform="translate(171,169)"/>
<path d="M0 0 C4.047 3.84 5.922 5.76 6.12 11.474 C6.123 12.939 6.12 14.403 6.114 15.868 C6.114 16.668 6.114 17.468 6.114 18.293 C6.113 20.939 6.105 23.585 6.098 26.23 C6.096 28.065 6.094 29.899 6.093 31.733 C6.09 36.561 6.08 41.39 6.069 46.218 C6.058 51.145 6.054 56.071 6.049 60.998 C6.038 70.665 6.021 80.333 6 90 C4.012 88.746 4.012 88.746 2 87 C1.812 83.062 1.812 83.062 1.926 80.641 C2.005 77.814 1.782 75.125 1.5 72.312 C-0.127 54.254 -0.127 54.254 2 50 C1.34 49.67 0.68 49.34 0 49 C0.165 48.835 0.165 48.835 1 48 C1.157 46.514 1.251 45.021 1.316 43.527 C1.358 42.628 1.4 41.729 1.443 40.803 C1.483 39.857 1.522 38.912 1.562 37.938 C1.584 37.463 1.584 37.463 1.693 35.061 C1.8 32.707 1.902 30.354 2 28 C1.34 27.67 0.68 27.34 0 27 C-0.027 25.271 -0.047 23.542 -0.062 21.812 C-0.074 20.85 -0.086 19.887 -0.098 18.895 C-0.004 16.131 0.377 13.687 1 11 C2.019 6.552 2.058 4.116 0 0 Z M-2 27 C-1.34 27 -0.68 27 0 27 C0 27.66 0 28.32 0 29 C-0.66 29 -1.32 29 -2 29 C-2 28.34 -2 27.68 -2 27 Z " fill="#8E3A9C" transform="translate(144,65)"/>
<path d="M0 0 C2.222 3.334 2.247 4.404 2.23 8.289 C2.229 9.313 2.227 10.336 2.225 11.391 C2.218 11.924 2.218 11.924 2.188 14.625 C2.187 15.7 2.186 16.775 2.186 17.883 C2.14 25.86 2.14 25.86 1 27 C-0.416 27.087 -1.836 27.107 -3.254 27.098 C-4.108 27.094 -4.962 27.091 -5.842 27.088 C-6.74 27.08 -7.637 27.071 -8.562 27.062 C-9.464 27.058 -10.366 27.053 -11.295 27.049 C-13.53 27.037 -15.765 27.021 -18 27 C-17.115 21.244 -14.332 17.219 -11.25 12.375 C-10.724 11.516 -10.198 10.658 -9.656 9.773 C-4.8 2.08 -4.8 2.08 0 0 Z " fill="#B69A89" transform="translate(104,129)"/>
<path d="M0 0 C4.688 3.516 4.688 3.516 6 5 C6 6.32 6 7.64 6 9 C7.98 9 9.96 9 12 9 C12 10.98 12 12.96 12 15 C7.378 17.504 2.3 20 -3 20 C-3 20.66 -3 21.32 -3 22 C-2.34 22.33 -1.68 22.66 -1 23 C-1.66 23 -2.32 23 -3 23 C-2.992 23.429 -2.992 23.429 -2.952 25.599 C-2.901 28.789 -2.864 31.98 -2.835 35.17 C-2.82 36.55 -2.8 37.929 -2.774 39.308 C-2.737 41.294 -2.722 43.28 -2.707 45.266 C-2.699 45.863 -2.699 45.863 -2.659 48.884 C-3.026 52.235 -3.725 53.576 -6 56 C-6.254 21.144 -6.254 21.144 -4 13 C-5.65 12.67 -7.3 12.34 -9 12 C-9.33 13.65 -9.66 15.3 -10 17 C-10.99 17 -11.98 17 -13 17 C-13.33 16.01 -13.66 15.02 -14 14 C-14.66 13.34 -15.32 12.68 -16 12 C-13.03 10.68 -10.06 9.36 -7 8 C-7.33 7.34 -7.66 6.68 -8 6 C-7.67 5.34 -7.34 4.68 -7 4 C-6.34 4 -5.68 4 -5 4 C-5 4.66 -5 5.32 -5 6 C-4.01 6.33 -3.02 6.66 -2 7 C-1.67 7.66 -1.34 8.32 -1 9 C-1 8.34 -1 7.68 -1 7 C-1 6.01 -1 5.02 -1 4 C-0.34 4 0.32 4 1 4 C0.67 2.68 0.34 1.36 0 0 Z " fill="#B14FC1" transform="translate(113,99)"/>
<path d="M0 0 C0.165 0.33 0.165 0.33 1 2 C-1.949 6.959 -5.177 8.04 -10.465 9.52 C-13.039 10.007 -15.386 10.089 -18 10 C-17.954 11.29 -17.907 12.581 -17.859 13.91 C-17.822 15.628 -17.785 17.345 -17.75 19.062 C-17.733 19.486 -17.733 19.486 -17.648 21.631 C-17.543 28.456 -18.885 32.604 -23.598 37.742 C-29.252 42.115 -33.446 42.235 -40.312 42.312 C-40.734 42.327 -40.734 42.327 -42.865 42.4 C-48.442 42.457 -51.577 41.715 -56 38 C-59.063 34.772 -60.493 32.439 -61 28 C-60.588 28.557 -60.175 29.114 -59.75 29.688 C-59.172 30.451 -58.595 31.214 -58 32 C-57.381 32.907 -56.763 33.815 -56.125 34.75 C-54 37 -54 37 -51.25 37.312 C-50.879 37.261 -50.879 37.261 -49 37 C-49.969 36.732 -50.939 36.464 -51.938 36.188 C-52.948 35.796 -53.959 35.404 -55 35 C-55.165 34.505 -55.165 34.505 -56 32 C-55.392 32.217 -54.783 32.433 -54.156 32.656 C-45.677 35.35 -37.784 35.298 -29 35 C-29.33 35.66 -29.66 36.32 -30 37 C-26.02 36.186 -24.342 35.446 -21.84 32.18 C-19.06 26.998 -19.364 21.437 -19.312 15.688 C-19.271 13.525 -19.225 11.362 -19.176 9.199 C-19.165 8.249 -19.153 7.298 -19.142 6.319 C-19 4 -19 4 -18 2 C-14.84 1.586 -14.84 1.586 -10.938 1.375 C-9.647 1.3 -8.357 1.225 -7.027 1.148 C-6.028 1.099 -5.029 1.05 -4 1 C-4.33 1.66 -4.66 2.32 -5 3 C-4.01 3 -3.02 3 -2 3 C-1.34 2.01 -0.68 1.02 0 0 Z " fill="#7D3980" transform="translate(168,189)"/>
<path d="M0 0 C1 3 1 3 1 6 C1.99 6.33 2.98 6.66 4 7 C0.182 8.374 -3.073 7.68 -7 7 C-7 6.34 -7 5.68 -7 5 C-6.34 5 -5.68 5 -5 5 C-5 4.34 -5 3.68 -5 3 C-4.34 3 -3.68 3 -3 3 C-3 3.66 -3 4.32 -3 5 C-2.34 5 -1.68 5 -1 5 C-1.33 4.01 -1.66 3.02 -2 2 C-1.34 1.34 -0.68 0.68 0 0 Z M-6 8 C-5.01 8.33 -4.02 8.66 -3 9 C-4.152 11.468 -5.048 13.048 -7 15 C-5.02 15.66 -3.04 16.32 -1 17 C-1.33 17.66 -1.66 18.32 -2 19 C-2.825 18.835 -2.825 18.835 -7 18 C-7 18.66 -7 19.32 -7 20 C-8.98 20.33 -10.96 20.66 -13 21 C-12.34 21 -11.68 21 -11 21 C-10.34 21 -9.68 21 -9 21 C-9.33 21.99 -9.66 22.98 -10 24 C-10.66 24 -11.32 24 -12 24 C-11.835 24.361 -11.835 24.361 -11 26.188 C-9.994 29.017 -9.83 31.029 -10 34 C-13.325 35.108 -13.933 34.943 -17.062 33.75 C-17.755 33.497 -18.447 33.245 -19.16 32.984 C-21 32 -21 32 -23 29 C-21.68 28.67 -20.36 28.34 -19 28 C-19 27.34 -19 26.68 -19 26 C-20.98 26.66 -22.96 27.32 -25 28 C-24.333 26.333 -23.667 24.667 -23 23 C-22.691 22.093 -22.381 21.185 -22.062 20.25 C-21.712 19.507 -21.361 18.765 -21 18 C-20.01 17.67 -19.02 17.34 -18 17 C-18.99 16.34 -19.98 15.68 -21 15 C-19.02 14.67 -17.04 14.34 -15 14 C-15 13.34 -15 12.68 -15 12 C-14.34 12 -13.68 12 -13 12 C-13 12.99 -13 13.98 -13 15 C-12.216 14.216 -11.432 13.433 -10.625 12.625 C-9.083 11.083 -7.542 9.542 -6 8 Z M-17 34 C-17 34.66 -17 35.32 -17 36 C-17.32 36.052 -17.32 36.052 -18.938 36.312 C-19.618 36.539 -20.299 36.766 -21 37 C-21.33 37.99 -21.66 38.98 -22 40 C-22.99 39.67 -23.98 39.34 -25 39 C-24.34 39 -23.68 39 -23 39 C-23 38.34 -23 37.68 -23 37 C-23.99 36.67 -24.98 36.34 -26 36 C-22.565 33.71 -21.015 33.822 -17 34 Z " fill="#B350C0" transform="translate(73,128)"/>
<path d="M0 0 C0.33 0 0.66 0 1 0 C1.054 2.75 1.094 5.499 1.125 8.25 C1.142 9.027 1.159 9.805 1.176 10.605 C1.219 15.69 0.745 18.7 -2.375 22.812 C-4 24 -4 24 -6.188 23.688 C-6.786 23.461 -7.384 23.234 -8 23 C-8 22.67 -8 22.34 -8 22 C-11.96 22 -15.92 22 -20 22 C-20.014 23.784 -20.028 25.568 -20.043 27.406 C-20.09 29.771 -20.138 32.135 -20.188 34.5 C-20.193 35.673 -20.199 36.846 -20.205 38.055 C-20.383 45.103 -20.961 50.724 -26 56 C-29.735 57.867 -32.857 58.244 -37 58 C-35.68 57.34 -34.36 56.68 -33 56 C-33.964 56.023 -34.928 56.046 -35.922 56.07 C-37.185 56.088 -38.448 56.106 -39.75 56.125 C-41.003 56.148 -42.256 56.171 -43.547 56.195 C-46.728 56.015 -48.365 55.69 -51 54 C-43.974 52.494 -37.105 53.359 -30 54 C-30 52.68 -30 51.36 -30 50 C-29.34 50 -28.68 50 -28 50 C-28 49.34 -28 48.68 -28 48 C-27.34 48 -26.68 48 -26 48 C-26 47.01 -26 46.02 -26 45 C-25.34 45 -24.68 45 -24 45 C-24 43.68 -24 42.36 -24 41 C-24.66 40.67 -25.32 40.34 -26 40 C-25.34 40 -24.68 40 -24 40 C-24.18 39.301 -24.361 38.603 -24.547 37.883 C-25.057 34.636 -24.785 32.112 -24.25 28.875 C-24.09 27.841 -23.93 26.807 -23.766 25.742 C-22.938 22.778 -22.581 21.65 -20 20 C-16.863 19.488 -16.863 19.488 -13.312 19.312 C-12.133 19.247 -10.954 19.181 -9.738 19.113 C-8.835 19.076 -7.931 19.039 -7 19 C-7 16.69 -7 14.38 -7 12 C-5.35 12 -3.7 12 -2 12 C-2.041 10.948 -2.083 9.896 -2.125 8.812 C-2.009 5.26 -1.528 3.151 0 0 Z " fill="#9942A6" transform="translate(170,169)"/>
<path d="M0 0 C2.188 1.438 2.188 1.438 4 3 C2.68 3 1.36 3 0 3 C0 3.66 0 4.32 0 5 C-0.66 5 -1.32 5 -2 5 C-2.625 7.875 -2.625 7.875 -3 11 C-2.34 11.66 -1.68 12.32 -1 13 C-2.98 13.99 -4.96 14.98 -7 16 C-7 17.65 -7 19.3 -7 21 C-5.35 20.67 -3.7 20.34 -2 20 C-3.017 23.051 -3.721 23.904 -6 26 C-6.66 26.66 -7.32 27.32 -8 28 C-8.33 27.34 -8.66 26.68 -9 26 C-8.67 25.34 -8.34 24.68 -8 24 C-8.66 24 -9.32 24 -10 24 C-10 24.66 -10 25.32 -10 26 C-11.32 26.33 -12.64 26.66 -14 27 C-13.34 27.66 -12.68 28.32 -12 29 C-13.32 29.33 -14.64 29.66 -16 30 C-16.062 30.784 -16.124 31.567 -16.188 32.375 C-16.456 33.241 -16.724 34.108 -17 35 C-18.661 35.681 -20.328 36.347 -22 37 C-23.312 39.625 -23.312 39.625 -24 42 C-24.66 42 -25.32 42 -26 42 C-26 43.98 -26 45.96 -26 48 C-25.34 48.33 -24.68 48.66 -24 49 C-24.66 49 -25.32 49 -26 49 C-25.67 49.99 -25.34 50.98 -25 52 C-25.33 52.66 -25.66 53.32 -26 54 C-25.34 54 -24.68 54 -24 54 C-24 55.32 -24 56.64 -24 58 C-24.66 58.165 -24.66 58.165 -28 59 C-28 58.01 -28 57.02 -28 56 C-28.33 55.67 -28.66 55.34 -29 55 C-29.128 52.259 -29.185 49.554 -29.188 46.812 C-29.2 46.056 -29.212 45.3 -29.225 44.521 C-29.24 38.554 -28.376 34.064 -25 29 C-25 29.66 -25 30.32 -25 31 C-24.34 31.33 -23.68 31.66 -23 32 C-23.474 32.743 -23.949 33.485 -24.438 34.25 C-25.779 36.611 -26.512 38.366 -27 41 C-26.34 41 -25.68 41 -25 41 C-24.898 40.295 -24.796 39.59 -24.691 38.863 C-23.901 35.589 -22.595 33.114 -20.938 30.188 C-20.39 29.212 -19.842 28.236 -19.277 27.23 C-18.856 26.494 -18.434 25.758 -18 25 C-17.34 25 -16.68 25 -16 25 C-15.897 24.464 -15.794 23.928 -15.688 23.375 C-14.819 20.375 -13.444 17.762 -12 15 C-11.34 15 -10.68 15 -10 15 C-9.773 14.175 -9.546 13.35 -9.312 12.5 C-7.749 8.33 -5.802 4.484 -3 1 C-2.01 0.67 -1.02 0.34 0 0 Z " fill="#BF66CE" transform="translate(68,116)"/>
<path d="M0 0 C0.99 0 1.98 0 3 0 C2.34 14.19 1.68 28.38 1 43 C0.67 43 0.34 43 0 43 C-0.025 42.314 -0.05 41.627 -0.076 40.92 C-0.192 37.822 -0.315 34.723 -0.438 31.625 C-0.477 30.545 -0.516 29.465 -0.557 28.352 C-0.599 27.32 -0.64 26.289 -0.684 25.227 C-0.72 24.273 -0.757 23.32 -0.795 22.338 C-1 20 -1 20 -2 18 C-6.258 19.514 -7.643 22.199 -9.875 26 C-10.219 26.576 -10.564 27.152 -10.919 27.745 C-12.565 30.504 -14.162 33.287 -15.746 36.082 C-16.263 36.983 -16.78 37.884 -17.312 38.812 C-17.762 39.623 -18.212 40.434 -18.676 41.27 C-19.113 41.841 -19.55 42.412 -20 43 C-20.99 43 -21.98 43 -23 43 C-22.63 38.069 -20.987 35.082 -18.328 31.078 C-17.038 29.059 -15.975 27.033 -14.938 24.875 C-13.213 21.343 -11.362 18.149 -9 15 C-8.34 15 -7.68 15 -7 15 C-6.83 14.42 -6.66 13.84 -6.484 13.242 C-4.929 8.23 -3.347 4.08 0 0 Z " fill="#6A2270" transform="translate(106,112)"/>
<path d="M0 0 C9.532 -0.374 9.532 -0.374 14 2 C15 3 15 3 15.188 5.375 C15 8 15 8 13 11 C13 11.66 13 12.32 13 13 C13.66 13 14.32 13 15 13 C14.34 14.32 13.68 15.64 13 17 C12.01 16.01 11.02 15.02 10 14 C9.01 16.31 8.02 18.62 7 21 C8.65 21 10.3 21 12 21 C12.33 21.99 12.66 22.98 13 24 C12.381 24.124 11.762 24.248 11.125 24.375 C9 25 9 25 7 27 C4.661 26.708 2.327 26.374 0 26 C-0.66 26.33 -1.32 26.66 -2 27 C-0.902 24.007 -0.323 23.154 2.625 21.75 C3.409 21.502 4.192 21.255 5 21 C3.866 20.546 2.731 20.093 1.562 19.625 C-2 18 -2 18 -3 16 C-2.618 16.103 -2.618 16.103 -0.688 16.625 C2 17 2 17 5 15 C4.196 14.711 3.391 14.423 2.562 14.125 C0 13 0 13 -1 11 C-0.175 11.33 -0.175 11.33 4 13 C4 10.03 4 7.06 4 4 C3.01 4 2.02 4 1 4 C0.67 2.68 0.34 1.36 0 0 Z " fill="#B656C5" transform="translate(149,157)"/>
<path d="M0 0 C0 0.66 0 1.32 0 2 C-0.906 2.379 -1.812 2.758 -2.746 3.148 C-6.438 5.249 -7.818 7.057 -10.062 10.625 C-10.398 11.155 -10.398 11.155 -12.098 13.836 C-14.503 17.837 -16.829 21.867 -19 26 C-19.66 26 -20.32 26 -21 26 C-21.66 27.98 -22.32 29.96 -23 32 C-23.66 32 -24.32 32 -25 32 C-25.66 33.98 -26.32 35.96 -27 38 C-27.66 38 -28.32 38 -29 38 C-29.66 39.98 -30.32 41.96 -31 44 C-31.66 44 -32.32 44 -33 44 C-33.66 46.97 -34.32 49.94 -35 53 C-35.66 53.165 -35.66 53.165 -39 54 C-39.938 56 -39.938 56 -41 59 C-42.602 62.037 -44.298 65.018 -46 68 C-46.66 68 -47.32 68 -48 68 C-48.144 68.454 -48.144 68.454 -48.875 70.75 C-49.765 73.322 -50.715 75.613 -52 78 C-52.66 78 -53.32 78 -54 78 C-54.248 78.866 -54.495 79.733 -54.75 80.625 C-56.07 84.188 -57.885 86.861 -60 90 C-60.75 92.375 -60.75 92.375 -61 94 C-61.66 94 -62.32 94 -63 94 C-62.498 88.983 -60.783 85.434 -58.125 81.25 C-57.728 80.608 -57.331 79.966 -56.922 79.305 C-56.066 77.922 -55.207 76.541 -54.344 75.162 C-52.98 72.968 -51.641 70.76 -50.309 68.547 C-45.612 60.759 -40.796 53.085 -35.704 45.55 C-32.659 41.031 -29.745 36.444 -26.875 31.812 C-7.135 0 -7.135 0 0 0 Z " fill="#D58AE2" transform="translate(104,63)"/>
<path d="M0 0 C16.83 0 33.66 0 51 0 C51 1.98 51 3.96 51 6 C44.558 5.764 38.117 5.514 31.676 5.255 C29.486 5.169 27.296 5.086 25.106 5.005 C21.953 4.889 18.801 4.762 15.648 4.633 C14.673 4.599 13.698 4.566 12.693 4.532 C7.781 4.319 3.61 3.897 -1 2 C-0.67 1.34 -0.34 0.68 0 0 Z " fill="#B69B78" transform="translate(55,199)"/>
<path d="M0 0 C0.103 0.32 0.103 0.32 0.625 1.938 C2 4 2 4 4.875 4.812 C7.657 4.979 9.379 4.749 12 4 C12.66 4.33 13.32 4.66 14 5 C14 4.34 14 3.68 14 3 C14.99 2.67 15.98 2.34 17 2 C17.33 1.34 17.66 0.68 18 0 C18.99 0.33 19.98 0.66 21 1 C20.34 1 19.68 1 19 1 C19 1.99 19 2.98 19 4 C19.66 4.33 20.32 4.66 21 5 C20.01 5.33 19.02 5.66 18 6 C18 6.66 18 7.32 18 8 C18.619 7.814 19.237 7.629 19.875 7.438 C22 7 22 7 24 8 C24 8.66 24 9.32 24 10 C24.66 10 25.32 10 26 10 C26.33 9.01 26.66 8.02 27 7 C27.302 7.036 27.302 7.036 28.828 7.219 C29.228 7.265 29.228 7.265 31.25 7.5 C31.644 7.546 31.644 7.546 33.641 7.781 C36 8 36 8 40 8 C40 8.66 40 9.32 40 10 C41.32 9.67 42.64 9.34 44 9 C43.67 9.99 43.34 10.98 43 12 C38.571 12.025 34.142 12.043 29.713 12.055 C28.208 12.06 26.704 12.067 25.2 12.075 C23.028 12.088 20.856 12.093 18.684 12.098 C17.38 12.103 16.076 12.108 14.732 12.114 C11.048 12.001 7.63 11.594 4 11 C4 10.34 4 9.68 4 9 C3.01 9 2.02 9 1 9 C-0.688 7.5 -0.688 7.5 -2 6 C-1.34 4.02 -0.68 2.04 0 0 Z " fill="#AF4FBC" transform="translate(38,179)"/>
<path d="M0 0 C3 3 3 3 3.361 6.056 C3.354 7.311 3.347 8.565 3.341 9.858 C3.341 10.551 3.341 11.244 3.342 11.958 C3.34 14.247 3.316 16.535 3.293 18.824 C3.287 20.412 3.283 21.999 3.28 23.587 C3.269 27.764 3.239 31.942 3.206 36.119 C3.175 40.382 3.162 44.645 3.146 48.908 C3.114 57.272 3.063 65.636 3 74 C2.505 74.165 2.505 74.165 0 75 C0 50.25 0 25.5 0 0 Z " fill="#D0BB9D" transform="translate(150,80)"/>
<path d="M0 0 C0.416 0.426 0.832 0.853 1.261 1.292 C7.68 7.03 13.597 6.788 21.906 6.586 C23.24 6.575 24.574 6.566 25.908 6.56 C29.393 6.537 32.878 6.479 36.363 6.412 C39.929 6.35 43.496 6.323 47.062 6.293 C54.042 6.229 61.021 6.127 68 6 C68 8.31 68 10.62 68 13 C67.835 12.505 67.835 12.505 67 10 C66.664 10.004 66.664 10.004 64.966 10.027 C57.958 10.116 50.95 10.176 43.941 10.22 C41.328 10.24 38.715 10.267 36.102 10.302 C32.339 10.35 28.576 10.373 24.812 10.391 C23.651 10.411 22.489 10.432 21.292 10.453 C13.129 10.455 7.861 9.282 1.5 3.875 C0 2 0 2 0 0 Z " fill="#5E2F56" transform="translate(39,189)"/>
<path d="M0 0 C0.557 0.743 1.114 1.485 1.688 2.25 C4.401 5.477 7.21 8.105 11 10 C23.152 10.954 31.467 10.423 42 4 C42.66 4 43.32 4 44 4 C44.33 3.34 44.66 2.68 45 2 C44.264 6.784 41.552 10.5 38.125 13.812 C30.958 17.818 18.746 16.859 11 15 C7.562 13.062 7.562 13.062 5 11 C5 10.34 5 9.68 5 9 C4.381 8.773 3.763 8.546 3.125 8.312 C0.354 6.601 -0.15 5.092 -1 2 C-0.67 1.34 -0.34 0.68 0 0 Z " fill="#D2BE99" transform="translate(107,220)"/>
<path d="M0 0 C0.33 0 0.66 0 1 0 C1.33 3.3 1.66 6.6 2 10 C0.35 10.66 -1.3 11.32 -3 12 C-3 12.66 -3 13.32 -3 14 C-3.66 14 -4.32 14 -5 14 C-5 13.34 -5 12.68 -5 12 C-5.598 12.33 -6.196 12.66 -6.812 13 C-9 14 -9 14 -12 14 C-12 13.34 -12 12.68 -12 12 C-12.66 12 -13.32 12 -14 12 C-14 11.34 -14 10.68 -14 10 C-14.99 10.33 -15.98 10.66 -17 11 C-17.66 10.67 -18.32 10.34 -19 10 C-19 10.66 -19 11.32 -19 12 C-26.429 11 -26.429 11 -30 10 C-29.34 8.68 -28.68 7.36 -28 6 C-27.283 5.975 -26.567 5.95 -25.829 5.924 C-22.594 5.808 -19.359 5.685 -16.125 5.562 C-14.997 5.523 -13.869 5.484 -12.707 5.443 C-11.631 5.401 -10.554 5.36 -9.445 5.316 C-8.948 5.298 -8.948 5.298 -6.43 5.205 C-4 5 -4 5 -2 4 C-0.875 1.938 -0.875 1.938 0 0 Z " fill="#C062D0" transform="translate(111,151)"/>
<path d="M0 0 C0.027 2.479 0.047 4.958 0.062 7.438 C0.071 8.145 0.079 8.852 0.088 9.58 C0.097 11.387 0.052 13.194 0 15 C-1 16 -1 16 -3.941 16.098 C-5.136 16.086 -6.331 16.074 -7.562 16.062 C-8.161 16.058 -8.161 16.058 -11.191 16.035 C-12.118 16.024 -13.045 16.012 -14 16 C-14 12.03 -13.145 10.38 -11 7 C-3.325 0 -3.325 0 0 0 Z " fill="#CEAFAF" transform="translate(106,140)"/>
<path d="M0 0 C0.881 0.001 1.762 0.003 2.669 0.004 C5.471 0.01 8.272 0.022 11.074 0.035 C12.979 0.04 14.883 0.045 16.787 0.049 C21.445 0.06 26.104 0.077 30.762 0.098 C30.983 2.055 31.188 4.013 31.387 5.973 C31.503 7.063 31.619 8.154 31.738 9.277 C31.742 9.743 31.742 9.743 31.762 12.098 C31.102 12.758 30.442 13.418 29.762 14.098 C29.594 12.639 29.427 11.181 29.262 9.723 C29.169 8.911 29.076 8.098 28.98 7.262 C28.762 5.098 28.762 5.098 28.762 3.098 C26.782 3.098 24.802 3.098 22.762 3.098 C22.432 3.758 22.102 4.418 21.762 5.098 C21.409 5.02 21.409 5.02 19.621 4.625 C11.382 3.062 3.817 3.122 -4.521 3.728 C-4.934 3.758 -4.934 3.758 -7.027 3.906 C-7.397 3.936 -7.397 3.936 -9.268 4.088 C-11.238 4.098 -11.238 4.098 -14.238 3.098 C-14.238 2.438 -14.238 1.778 -14.238 1.098 C-9.488 -0.123 -4.867 -0.03 0 0 Z " fill="#E2CFAE" transform="translate(75.23828125,206.90234375)"/>
<path d="M0 0 C0.99 0.33 1.98 0.66 3 1 C5.768 7.409 5.186 14.134 5 21 C5.66 21 6.32 21 7 21 C5.494 30.038 0.172 33.785 -6.652 39.203 C-9.548 41.525 -11.779 44.011 -14 47 C-14.66 47.66 -15.32 48.32 -16 49 C-15.502 45.265 -15.125 43.188 -13 40 C-11.349 38.974 -9.68 37.977 -8 37 C-3.231 33.64 -3.231 33.64 -2.188 30.75 C-2.126 30.173 -2.064 29.595 -2 29 C-1.34 29 -0.68 29 0 29 C1.326 24.195 2.368 20.031 2 15 C1.67 14.67 1.34 14.34 1 14 C0.765 11.65 0.586 9.294 0.438 6.938 C0.354 5.647 0.27 4.357 0.184 3.027 C0.123 2.028 0.062 1.029 0 0 Z " fill="#E9D8B8" transform="translate(171,169)"/>
<path d="M0 0 C0.33 0.66 0.66 1.32 1 2 C0.847 2.29 0.847 2.29 0.075 3.759 C-1.29 6.605 -1.227 8.711 -1.195 11.859 C-1.189 12.974 -1.182 14.089 -1.176 15.238 C-1.159 16.397 -1.142 17.556 -1.125 18.75 C-1.12 19.337 -1.12 19.337 -1.098 22.309 C-1.074 25.206 -1.041 28.103 -1 31 C-0.01 30.67 0.98 30.34 2 30 C2.66 30.66 3.32 31.32 4 32 C3.34 32 2.68 32 2 32 C2 32.66 2 33.32 2 34 C2.825 33.835 2.825 33.835 7 33 C6.67 33.66 6.34 34.32 6 35 C5.34 35 4.68 35 4 35 C4 35.66 4 36.32 4 37 C0.347 35.75 -0.781 35.329 -3 32 C-3.66 32.99 -4.32 33.98 -5 35 C-7.389 32.611 -6.282 26.702 -6.312 23.5 C-6.342 22.531 -6.371 21.561 -6.4 20.562 C-6.472 12.42 -4.49 6.735 0 0 Z " fill="#B161BB" transform="translate(41,148)"/>
<path d="M0 0 C0.863 3.127 1.539 5.696 0.25 8.812 C-2.622 13.838 -4.797 17.261 -10 20 C-10.66 20.66 -11.32 21.32 -12 22 C-13.994 22.366 -15.995 22.701 -18 23 C-18.33 23.33 -18.66 23.66 -19 24 C-24.083 24.391 -26.827 23.898 -31 21 C-31.99 20.67 -32.98 20.34 -34 20 C-34 19.34 -34 18.68 -34 18 C-26.41 18.33 -18.82 18.66 -11 19 C-10.34 17.68 -9.68 16.36 -9 15 C-8.051 13.89 -7.07 12.807 -6.062 11.75 C-2.822 8.097 -1.463 4.633 0 0 Z " fill="#E9DABA" transform="translate(156,218)"/>
<path d="M0 0 C0.99 0.33 1.98 0.66 3 1 C2.711 1.402 2.711 1.402 1.25 3.438 C-1.391 7.371 -3.179 11.642 -5 16 C-5.66 16 -6.32 16 -7 16 C-7.124 16.351 -7.124 16.351 -7.75 18.125 C-9.163 21.375 -11.008 24.075 -13 27 C-13.694 28.319 -14.375 29.646 -15 31 C-15.33 31 -15.66 31 -16 31 C-16 28.03 -16 25.06 -16 22 C-16.66 21.67 -17.32 21.34 -18 21 C-16.68 20.34 -15.36 19.68 -14 19 C-14 17.68 -14 16.36 -14 15 C-12.68 15.33 -11.36 15.66 -10 16 C-10 15.01 -10 14.02 -10 13 C-9.34 13 -8.68 13 -8 13 C-8 12.34 -8 11.68 -8 11 C-8.66 10.67 -9.32 10.34 -10 10 C-8.68 9.67 -7.36 9.34 -6 9 C-6 8.34 -6 7.68 -6 7 C-6.66 6.67 -7.32 6.34 -8 6 C-7.34 5.67 -6.68 5.34 -6 5 C-6.66 4.34 -7.32 3.68 -8 3 C-5.614 3.576 -3.333 4.222 -1 5 C-0.67 3.35 -0.34 1.7 0 0 Z M-10 4 C-8 5 -8 5 -8 5 Z " fill="#A444B1" transform="translate(104,111)"/>
<path d="M0 0 C3.573 3.023 5.363 5.021 5.881 9.71 C6.151 14.914 5.939 20.109 5.75 25.312 C5.736 25.908 5.736 25.908 5.668 28.924 C5.628 30.059 5.588 31.194 5.547 32.363 C5.514 33.398 5.482 34.432 5.448 35.497 C5.3 36.323 5.152 37.149 5 38 C4.01 38.66 3.02 39.32 2 40 C2 36.04 2 32.08 2 28 C1.34 27.67 0.68 27.34 0 27 C-0.027 25.271 -0.047 23.542 -0.062 21.812 C-0.074 20.85 -0.086 19.887 -0.098 18.895 C-0.004 16.131 0.377 13.687 1 11 C2.019 6.552 2.058 4.116 0 0 Z M-2 27 C-1.34 27 -0.68 27 0 27 C0 27.66 0 28.32 0 29 C-0.66 29 -1.32 29 -2 29 C-2 28.34 -2 27.68 -2 27 Z " fill="#9742A8" transform="translate(144,65)"/>
<path d="M0 0 C0.241 0.635 0.483 1.269 0.731 1.923 C2 4 2 4 3.92 4.815 C11.014 6.04 17.965 6.327 25.156 6.379 C25.768 6.387 25.768 6.387 28.866 6.43 C32.744 6.483 36.622 6.524 40.5 6.562 C44.407 6.606 48.313 6.653 52.22 6.705 C54.644 6.737 57.068 6.764 59.492 6.786 C60.581 6.799 61.669 6.813 62.791 6.826 C63.271 6.831 63.271 6.831 65.701 6.855 C68 7 68 7 70 8 C69.67 8.99 69.34 9.98 69 11 C68.203 10.674 67.405 10.348 66.583 10.012 C62.164 8.764 58.228 8.749 53.664 8.805 C52.785 8.808 51.905 8.81 50.999 8.813 C48.208 8.824 45.416 8.849 42.625 8.875 C40.725 8.885 38.826 8.894 36.926 8.902 C32.284 8.924 27.642 8.959 23 9 C23 9.66 23 10.32 23 11 C15.699 11.264 9.507 11.211 3.125 7.188 C0.749 4.741 0.279 3.351 0 0 Z " fill="#7F3289" transform="translate(37,184)"/>
<path d="M0 0 C3 1 3 1 5 4 C5.379 6.094 5.379 6.094 5.562 8.5 C5.633 9.379 5.704 10.258 5.777 11.164 C5.851 12.1 5.924 13.036 6 14 C6.104 14.977 6.209 15.954 6.316 16.961 C6.418 17.923 6.52 18.884 6.625 19.875 C6.72 20.759 6.816 21.644 6.914 22.555 C7 25 7 25 6.496 26.961 C5.835 29.68 6.152 31.969 6.438 34.75 C6.892 40.03 7.144 45.266 7.188 50.562 C7.2 51.241 7.213 51.919 7.226 52.618 C7.234 56.349 6.789 58.76 5 62 C4.977 61.444 4.954 60.887 4.931 60.314 C4.691 54.49 4.447 48.665 4.2 42.841 C4.109 40.672 4.019 38.502 3.93 36.332 C3.801 33.202 3.669 30.072 3.535 26.941 C3.497 25.982 3.458 25.022 3.418 24.033 C2.726 8.089 2.726 8.089 0 4 C0 2.68 0 1.36 0 0 Z " fill="#EDDEC3" transform="translate(150,76)"/>
<path d="M0 0 C0.412 0.557 0.825 1.114 1.25 1.688 C1.828 2.451 2.405 3.214 3 4 C3.619 4.907 4.237 5.815 4.875 6.75 C7 9 7 9 9.75 9.312 C10.493 9.209 11.235 9.106 12 9 C11.031 8.732 10.061 8.464 9.062 8.188 C8.052 7.796 7.041 7.404 6 7 C5.67 6.01 5.34 5.02 5 4 C5.304 4.108 5.304 4.108 6.844 4.656 C15.323 7.35 23.216 7.298 32 7 C31.67 7.66 31.34 8.32 31 9 C32.32 9.33 33.64 9.66 35 10 C30.874 12.063 25.85 11.965 21.312 12.438 C20.235 12.579 19.158 12.72 18.049 12.865 C10.252 13.644 10.252 13.644 6.74 11.836 C3.626 9.273 1.552 6.746 0 3 C0 2.01 0 1.02 0 0 Z " fill="#763878" transform="translate(107,217)"/>
<path d="M0 0 C2.521 -0.027 5.042 -0.047 7.562 -0.062 C7.915 -0.067 7.915 -0.067 9.697 -0.088 C21.563 -0.143 21.563 -0.143 25.438 2.938 C27 5 27 5 27 7 C25.374 8.382 23.707 9.719 22 11 C21.67 9.02 21.34 7.04 21 5 C20.175 4.835 20.175 4.835 16 4 C15.67 4.99 15.34 5.98 15 7 C14.34 7 13.68 7 13 7 C13 6.34 13 5.68 13 5 C12.34 5 11.68 5 11 5 C10.67 4.34 10.34 3.68 10 3 C9.175 3.495 9.175 3.495 5 6 C5 5.34 5 4.68 5 4 C3.35 3.67 1.7 3.34 0 3 C0 2.01 0 1.02 0 0 Z " fill="#BB60CA" transform="translate(118,62)"/>
<path d="M0 0 C0.64 5.118 -0.713 8.159 -3.508 12.297 C-5.725 14.827 -7.726 15.454 -11 16 C-13.875 16.125 -13.875 16.125 -16 16 C-14.68 15.34 -13.36 14.68 -12 14 C-12.964 14.023 -13.928 14.046 -14.922 14.07 C-16.185 14.088 -17.448 14.106 -18.75 14.125 C-20.003 14.148 -21.256 14.171 -22.547 14.195 C-25.728 14.015 -27.365 13.69 -30 12 C-22.974 10.494 -16.105 11.359 -9 12 C-9 10.68 -9 9.36 -9 8 C-8.34 8 -7.68 8 -7 8 C-7 7.34 -7 6.68 -7 6 C-6.34 6 -5.68 6 -5 6 C-5 5.01 -5 4.02 -5 3 C-1.556 0 -1.556 0 0 0 Z " fill="#813B88" transform="translate(149,211)"/>
<path d="M0 0 C2.64 0 5.28 0 8 0 C8 0.33 8 0.66 8 1 C9.095 1.05 10.189 1.1 11.317 1.152 C15.39 1.341 19.462 1.541 23.533 1.745 C25.294 1.831 27.054 1.914 28.815 1.995 C31.35 2.111 33.884 2.238 36.418 2.367 C36.81 2.384 36.81 2.384 38.792 2.468 C42.907 2.69 46.282 3.182 50 5 C47.189 5.937 45.772 6.088 42.899 5.962 C42.489 5.945 42.489 5.945 40.41 5.86 C39.968 5.838 39.968 5.838 37.73 5.73 C37.274 5.71 37.274 5.71 34.962 5.606 C33.027 5.517 31.093 5.425 29.159 5.331 C26.21 5.189 23.26 5.062 20.311 4.936 C18.43 4.847 16.549 4.758 14.668 4.668 C13.79 4.631 12.911 4.595 12.006 4.557 C7.337 4.315 3.395 3.758 -1 2 C-0.67 1.34 -0.34 0.68 0 0 Z " fill="#C1AA87" transform="translate(55,199)"/>
<path d="M0 0 C0.302 0.036 0.302 0.036 1.828 0.219 C2.228 0.265 2.228 0.265 4.25 0.5 C5.039 0.593 5.828 0.686 6.641 0.781 C9 1 9 1 13 1 C13 1.66 13 2.32 13 3 C14.32 2.67 15.64 2.34 17 2 C16.67 2.99 16.34 3.98 16 5 C11.571 5.025 7.142 5.043 2.713 5.055 C1.208 5.06 -0.296 5.067 -1.8 5.075 C-3.972 5.088 -6.144 5.093 -8.316 5.098 C-9.62 5.103 -10.924 5.108 -12.268 5.114 C-15.952 5.001 -19.37 4.594 -23 4 C-23.33 3.01 -23.66 2.02 -24 1 C-20.205 1.33 -20.205 1.33 -1 3 C-0.67 2.01 -0.34 1.02 0 0 Z " fill="#9C42A9" transform="translate(65,186)"/>
<path d="M0 0 C-0.268 0.495 -0.536 0.99 -0.812 1.5 C-2.429 4.904 -3.677 8.472 -5 12 C2.92 12 10.84 12 19 12 C19 12.66 19 13.32 19 14 C18.299 14.02 17.598 14.04 16.876 14.06 C13.688 14.156 10.5 14.265 7.312 14.375 C6.21 14.406 5.107 14.437 3.971 14.469 C3.437 14.488 3.437 14.488 0.738 14.586 C0.249 14.602 0.249 14.602 -2.229 14.681 C-5.134 15.015 -7.319 15.871 -10 17 C-15.368 17.316 -15.368 17.316 -18 16 C-18 15.34 -18 14.68 -18 14 C-16.35 13.67 -14.7 13.34 -13 13 C-13.33 12.34 -13.66 11.68 -14 11 C-12.35 11.33 -10.7 11.66 -9 12 C-8.588 10.762 -8.175 9.525 -7.75 8.25 C-6.336 4.472 -4.594 0 0 0 Z " fill="#AE51BA" transform="translate(88,143)"/>
<path d="M0 0 C0.33 0 0.66 0 1 0 C1 12.87 1 25.74 1 39 C0.67 39 0.34 39 0 39 C-0.025 38.314 -0.05 37.627 -0.076 36.92 C-0.192 33.822 -0.315 30.723 -0.438 27.625 C-0.477 26.545 -0.516 25.465 -0.557 24.352 C-0.599 23.32 -0.64 22.289 -0.684 21.227 C-0.72 20.273 -0.757 19.32 -0.795 18.338 C-1 16 -1 16 -2 14 C-5.686 15.459 -7.161 17.302 -9.25 20.625 C-9.771 21.442 -10.292 22.26 -10.828 23.102 C-11.215 23.728 -11.602 24.355 -12 25 C-12.33 24.34 -12.66 23.68 -13 23 C-11.651 20.532 -10.256 18.182 -8.75 15.812 C-5.703 10.983 -3.175 6.283 -1 1 C-0.67 0.67 -0.34 0.34 0 0 Z " fill="#471543" transform="translate(106,116)"/>
<path d="M0 0 C-0.66 1.98 -1.32 3.96 -2 6 C-2.66 6 -3.32 6 -4 6 C-4 6.66 -4 7.32 -4 8 C-2.68 8.66 -1.36 9.32 0 10 C-0.66 10.33 -0.66 10.33 -4 12 C-4 13.32 -4 14.64 -4 16 C-3.34 16 -2.68 16 -2 16 C-2.33 17.32 -2.66 18.64 -3 20 C-2.01 20.66 -1.02 21.32 0 22 C-0.99 22.33 -1.98 22.66 -3 23 C-2.773 23.763 -2.546 24.526 -2.312 25.312 C-2.209 26.199 -2.106 27.086 -2 28 C-3.438 29.812 -3.438 29.812 -5 31 C-6 30 -6 30 -6.114 27.133 C-6.108 25.881 -6.103 24.629 -6.098 23.34 C-6.096 22.675 -6.095 22.011 -6.093 21.326 C-6.088 19.197 -6.075 17.067 -6.062 14.938 C-6.057 13.497 -6.053 12.056 -6.049 10.615 C-6.038 7.077 -6.021 3.538 -6 0 C-3 -1 -3 -1 0 0 Z " fill="#BC60CE" transform="translate(116,119)"/>
<path d="M0 0 C16.83 0.66 33.66 1.32 51 2 C50.67 2.66 50.34 3.32 50 4 C34.16 4 18.32 4 2 4 C2 3.34 2 2.68 2 2 C1.34 2 0.68 2 0 2 C0 1.34 0 0.68 0 0 Z " fill="#DAC7A3" transform="translate(55,204)"/>
<path d="M0 0 C-2.693 3.02 -5.006 5.19 -8.75 6.688 C-12 8 -12 8 -13 10 C-13.66 10 -14.32 10 -15 10 C-15 11.98 -15 13.96 -15 16 C-15.33 16 -15.66 16 -16 16 C-16 11.05 -16 6.1 -16 1 C-3.375 -2.25 -3.375 -2.25 0 0 Z " fill="#BEA582" transform="translate(166,198)"/>
<path d="M0 0 C9.532 -0.374 9.532 -0.374 14 2 C15 3 15 3 15.188 5.438 C15 8 15 8 13 10 C10.938 9.812 10.938 9.812 9 9 C8.67 8.01 8.34 7.02 8 6 C8.33 5.34 8.66 4.68 9 4 C8.34 4 7.68 4 7 4 C6.67 4.99 6.34 5.98 6 7 C5.34 6.67 4.68 6.34 4 6 C4 5.34 4 4.68 4 4 C3.01 4 2.02 4 1 4 C0.67 2.68 0.34 1.36 0 0 Z " fill="#BD61CD" transform="translate(149,157)"/>
<path d="M0 0 C0.33 0 0.66 0 1 0 C2.121 7.096 2.221 14.018 2.25 21.188 C2.271 22.458 2.291 23.728 2.312 25.037 C2.318 26.256 2.323 27.475 2.328 28.73 C2.337 29.838 2.347 30.946 2.356 32.087 C1.964 35.298 1.162 36.649 -1 39 C-1.206 10.642 -1.206 10.642 0 0 Z " fill="#A242B3" transform="translate(108,116)"/>
<path d="M0 0 C0.33 0 0.66 0 1 0 C1.054 2.75 1.094 5.499 1.125 8.25 C1.133 8.639 1.133 8.639 1.176 10.605 C1.219 15.69 0.745 18.7 -2.375 22.812 C-4 24 -4 24 -6.188 23.688 C-6.786 23.461 -7.384 23.234 -8 23 C-8 22.01 -8 21.02 -8 20 C-7.01 19.34 -6.02 18.68 -5 18 C-4.312 14.875 -4.312 14.875 -4 12 C-3.34 12 -2.68 12 -2 12 C-2.021 11.474 -2.021 11.474 -2.125 8.812 C-2.009 5.26 -1.528 3.151 0 0 Z " fill="#873C95" transform="translate(170,169)"/>
<path d="M0 0 C0.66 0.99 1.32 1.98 2 3 C1 5 1 5 -1.188 6.062 C-7.297 10.271 -10.544 17.757 -13.824 24.25 C-15 26 -15 26 -18 27 C-17.115 21.244 -14.332 17.219 -11.25 12.375 C-10.724 11.516 -10.198 10.658 -9.656 9.773 C-4.8 2.08 -4.8 2.08 0 0 Z " fill="#95746C" transform="translate(104,129)"/>
<path d="M0 0 C0.625 1.812 0.625 1.812 1 4 C0.67 4.495 0.67 4.495 -1 7 C-2.939 7.356 -2.939 7.356 -5.281 7.328 C-6.123 7.323 -6.965 7.318 -7.832 7.312 C-8.272 7.302 -8.272 7.302 -10.5 7.25 C-11.38 7.245 -12.261 7.24 -13.168 7.234 C-19.691 7.154 -19.691 7.154 -22 6 C-22 5.34 -22 4.68 -22 4 C-21.457 3.981 -21.457 3.981 -18.711 3.887 C-17.266 3.821 -15.82 3.755 -14.375 3.688 C-13.662 3.665 -12.949 3.642 -12.215 3.619 C-7.474 3.38 -4.177 2.457 0 0 Z " fill="#CAB189" transform="translate(143,227)"/>
<path d="M0 0 C0.33 0 0.66 0 1 0 C1.026 0.915 1.052 1.83 1.078 2.773 C1.135 3.962 1.192 5.15 1.25 6.375 C1.296 7.558 1.343 8.742 1.391 9.961 C2 13 2 13 4.047 14.414 C4.691 14.607 5.336 14.801 6 15 C6 15.66 6 16.32 6 17 C6.392 17.072 6.392 17.072 8.375 17.438 C11 18 11 18 13 19 C13 19.66 13 20.32 13 21 C11.02 20.67 9.04 20.34 7 20 C7 20.66 7 21.32 7 22 C8.815 22.33 8.815 22.33 18 24 C18 24.33 18 24.66 18 25 C9.326 25.91 9.326 25.91 6.258 23.805 C4.009 21.156 2.401 18.475 2 15 C1.34 15 0.68 15 0 15 C0 10.05 0 5.1 0 0 Z " fill="#904299" transform="translate(106,202)"/>
<path d="M0 0 C0 2.97 0 5.94 0 9 C-4.29 9 -8.58 9 -13 9 C-5.667 0 -5.667 0 0 0 Z " fill="#ECDBCA" transform="translate(106,146)"/>
<path d="M0 0 C0.33 0.99 0.66 1.98 1 3 C-2.169 5.682 -4.95 7.054 -9 8 C-11.783 7.511 -14.207 6.957 -16.875 6.125 C-17.219 6.025 -17.219 6.025 -18.961 5.52 C-20.645 5.028 -22.323 4.516 -24 4 C-24 3.67 -24 3.34 -24 3 C-23.38 2.98 -22.759 2.96 -22.12 2.94 C-19.309 2.845 -16.498 2.735 -13.688 2.625 C-12.711 2.594 -11.735 2.563 -10.729 2.531 C-10.26 2.512 -10.26 2.512 -7.887 2.414 C-7.023 2.383 -6.159 2.351 -5.268 2.319 C-3 2 -3 2 0 0 Z " fill="#CD77DE" transform="translate(110,154)"/>
<path d="M0 0 C0.33 0.99 0.66 1.98 1 3 C1.66 3 2.32 3 3 3 C2.67 6.63 2.34 10.26 2 14 C1.67 14 1.34 14 1 14 C1 10.7 1 7.4 1 4 C-6.92 3.67 -14.84 3.34 -23 3 C-22.67 2.34 -22.34 1.68 -22 1 C-19.409 0.683 -16.914 0.486 -14.312 0.375 C-13.604 0.336 -12.896 0.298 -12.166 0.258 C-8.107 0.048 -4.065 -0.038 0 0 Z " fill="#973BA4" transform="translate(106,188)"/>
<path d="M0 0 C0.33 0.66 0.66 1.32 1 2 C-2.337 6.417 -4.68 8.969 -10 11 C-13.304 11.343 -16.558 11.285 -19.875 11.188 C-20.315 11.181 -20.315 11.181 -22.539 11.146 C-24.693 11.111 -26.847 11.058 -29 11 C-29 10.34 -29 9.68 -29 9 C-28.36 8.96 -27.719 8.921 -27.06 8.88 C-24.142 8.689 -21.228 8.47 -18.312 8.25 C-17.305 8.188 -16.298 8.126 -15.26 8.062 C-5.931 7.324 -5.931 7.324 -2 3 C-1.34 2.01 -0.68 1.02 0 0 Z " fill="#5A2F51" transform="translate(147,220)"/>
<path d="M0 0 C4.774 3.739 4.774 3.739 5.351 6.958 C5.339 9.208 5.176 11.388 4.938 13.625 C4.884 14.388 4.831 15.151 4.775 15.938 C4.464 19.676 4.112 21.832 2 25 C2 25.66 2 26.32 2 27 C1.34 27 0.68 27 0 27 C-0.027 25.271 -0.047 23.542 -0.062 21.812 C-0.074 20.85 -0.086 19.887 -0.098 18.895 C-0.004 16.131 0.377 13.687 1 11 C2.019 6.552 2.058 4.116 0 0 Z M-2 27 C-1.34 27 -0.68 27 0 27 C0 27.66 0 28.32 0 29 C-0.66 29 -1.32 29 -2 29 C-2 28.34 -2 27.68 -2 27 Z " fill="#A14AB2" transform="translate(144,65)"/>
<path d="M0 0 C2.188 1.438 2.188 1.438 4 3 C2.68 3 1.36 3 0 3 C0 3.66 0 4.32 0 5 C-0.66 5 -1.32 5 -2 5 C-2.268 5.949 -2.536 6.897 -2.812 7.875 C-4 11 -4 11 -7 13 C-8.188 15.625 -8.188 15.625 -9 18 C-10.32 17.67 -11.64 17.34 -13 17 C-12.67 16.34 -12.34 15.68 -12 15 C-11.34 15 -10.68 15 -10 15 C-9.773 14.175 -9.546 13.35 -9.312 12.5 C-7.749 8.33 -5.802 4.484 -3 1 C-2.01 0.67 -1.02 0.34 0 0 Z " fill="#C36CD2" transform="translate(68,116)"/>
<path d="M0 0 C1.32 0.33 2.64 0.66 4 1 C3.34 1 2.68 1 2 1 C2 1.99 2 2.98 2 4 C1.34 4 0.68 4 0 4 C0 4.66 0 5.32 0 6 C-0.66 6 -1.32 6 -2 6 C-2 7.32 -2 8.64 -2 10 C-6.62 10 -11.24 10 -16 10 C-14 8 -14 8 -10.688 7.688 C-6.255 6.861 -4.949 5.286 -2 2 C-1.34 2 -0.68 2 0 2 C0 1.34 0 0.68 0 0 Z " fill="#9E45AC" transform="translate(142,213)"/>
<path d="M0 0 C4.163 -0.075 8.325 -0.129 12.488 -0.165 C13.902 -0.18 15.316 -0.2 16.73 -0.226 C18.771 -0.263 20.811 -0.28 22.852 -0.293 C24.077 -0.309 25.302 -0.324 26.565 -0.341 C30.364 0.036 32.761 1.011 36 3 C36.165 3.33 36.165 3.33 37 5 C35.416 4.689 33.833 4.376 32.25 4.062 C31.368 3.888 30.487 3.714 29.578 3.535 C28.102 3.229 26.629 2.895 25.178 2.486 C22.619 1.915 20.198 1.785 17.578 1.684 C17.066 1.663 17.066 1.663 14.473 1.557 C13.409 1.517 12.346 1.478 11.25 1.438 C10.171 1.394 9.092 1.351 7.98 1.307 C5.32 1.201 2.66 1.099 0 1 C0 0.67 0 0.34 0 0 Z " fill="#AB56BC" transform="translate(107,60)"/>
<path d="M0 0 C0.33 0.66 0.66 1.32 1 2 C-1.949 6.959 -5.177 8.04 -10.465 9.52 C-13.039 10.007 -15.386 10.089 -18 10 C-18 8.68 -18 7.36 -18 6 C-17.56 5.993 -17.56 5.993 -15.332 5.957 C-4.665 5.519 -4.665 5.519 -1.688 2.438 C-1.131 1.633 -0.574 0.829 0 0 Z " fill="#592C50" transform="translate(168,189)"/>
<path d="M0 0 C0.66 0.33 1.32 0.66 2 1 C2 3.64 2 6.28 2 9 C0.68 9 -0.64 9 -2 9 C-2 9.66 -2 10.32 -2 11 C-3.98 11.66 -5.96 12.32 -8 13 C-8.66 12.34 -9.32 11.68 -10 11 C-8.68 11 -7.36 11 -6 11 C-6 10.34 -6 9.68 -6 9 C-5.34 9 -4.68 9 -4 9 C-3.948 8.629 -3.948 8.629 -3.688 6.75 C-2.957 3.83 -1.932 2.268 0 0 Z " fill="#AA4EB8" transform="translate(144,204)"/>
<path d="M0 0 C5.28 0 10.56 0 16 0 C16 0.66 16 1.32 16 2 C13.5 3.625 13.5 3.625 11 5 C10.67 4.34 10.34 3.68 10 3 C9.175 3.495 9.175 3.495 5 6 C5 5.34 5 4.68 5 4 C3.35 3.67 1.7 3.34 0 3 C0 2.01 0 1.02 0 0 Z " fill="#C773D5" transform="translate(118,62)"/>
<path d="M0 0 C0.66 0 1.32 0 2 0 C0.125 5.75 0.125 5.75 -1 8 C-1.66 8 -2.32 8 -3 8 C-3.248 8.701 -3.495 9.403 -3.75 10.125 C-5.163 13.375 -7.008 16.075 -9 19 C-9.694 20.319 -10.375 21.646 -11 23 C-11.33 23 -11.66 23 -12 23 C-12.428 19.36 -11.974 17.954 -10.125 14.688 C-9.774 14.244 -9.774 14.244 -8 12 C-7.34 12 -6.68 12 -6 12 C-5.711 11.278 -5.422 10.556 -5.125 9.812 C-4.083 7.208 -3.042 4.604 -2 2 C-1.34 2 -0.68 2 0 2 C0 1.34 0 0.68 0 0 Z " fill="#8A3397" transform="translate(100,119)"/>
<path d="M0 0 C1.32 0.33 2.64 0.66 4 1 C3.67 2.32 3.34 3.64 3 5 C3.99 5.66 4.98 6.32 6 7 C5.01 7.33 4.02 7.66 3 8 C3.227 8.763 3.454 9.526 3.688 10.312 C3.791 11.199 3.894 12.086 4 13 C2.562 14.812 2.562 14.812 1 16 C0 15 0 15 -0.098 11.621 C-0.091 10.227 -0.079 8.832 -0.062 7.438 C-0.058 6.727 -0.053 6.016 -0.049 5.283 C-0.037 3.522 -0.019 1.761 0 0 Z " fill="#C167D3" transform="translate(110,134)"/>
<path d="M0 0 C0.557 0.743 1.114 1.485 1.688 2.25 C4.507 5.603 7.638 8.027 11.188 10.562 C13 12 13 12 15 15 C11.059 14.437 8.249 13.321 5 11 C5 10.34 5 9.68 5 9 C4.381 8.773 3.763 8.546 3.125 8.312 C0.354 6.601 -0.15 5.092 -1 2 C-0.67 1.34 -0.34 0.68 0 0 Z " fill="#EBD9C2" transform="translate(107,220)"/>
<path d="M0 0 C2.507 1.897 4.692 3.581 6.562 6.125 C8.177 8.231 9.574 8.996 12 10 C12 10.33 12 10.66 12 11 C5.375 11.125 5.375 11.125 2 10 C2 8.35 2 6.7 2 5 C1.34 5 0.68 5 0 5 C-0.562 3.062 -0.562 3.062 -1 1 C-0.67 0.67 -0.34 0.34 0 0 Z " fill="#E3CFB3" transform="translate(40,192)"/>
<path d="M0 0 C8.58 0.66 17.16 1.32 26 2 C26 2.66 26 3.32 26 4 C23.146 4.027 20.292 4.047 17.438 4.062 C17.038 4.067 17.038 4.067 15.014 4.088 C10.228 4.107 5.719 3.804 1 3 C0.67 2.01 0.34 1.02 0 0 Z " fill="#933E9E" transform="translate(41,187)"/>
<path d="M0 0 C0.66 1.32 1.32 2.64 2 4 C2.99 4 3.98 4 5 4 C5 4.66 5 5.32 5 6 C10.827 8.428 16.776 8.617 23 9 C23 9.66 23 10.32 23 11 C15.699 11.264 9.507 11.211 3.125 7.188 C0.749 4.741 0.279 3.351 0 0 Z " fill="#87428C" transform="translate(37,184)"/>
<path d="M0 0 C0 0.99 0 1.98 0 3 C-6.532 5.889 -6.532 5.889 -9.375 6.562 C-9.911 6.707 -10.447 6.851 -11 7 C-11.33 7.66 -11.66 8.32 -12 9 C-12 6.69 -12 4.38 -12 2 C-10.375 1.664 -8.75 1.332 -7.125 1 C-6.22 0.814 -5.315 0.629 -4.383 0.438 C-2 0 -2 0 0 0 Z " fill="#AE906F" transform="translate(162,197)"/>
<path d="M0 0 C0.206 0.619 0.413 1.238 0.625 1.875 C2.555 4.857 4.661 4.998 8 6 C9.359 6.965 10.698 7.96 12 9 C10.23 9.081 8.459 9.139 6.688 9.188 C5.701 9.222 4.715 9.257 3.699 9.293 C1 9 1 9 -0.855 7.488 C-1.233 6.997 -1.611 6.506 -2 6 C-1.34 4.02 -0.68 2.04 0 0 Z " fill="#A348AE" transform="translate(38,179)"/>
<path d="M0 0 C0.33 0 0.66 0 1 0 C1.061 0.855 1.121 1.709 1.184 2.59 C1.267 3.695 1.351 4.799 1.438 5.938 C1.519 7.04 1.6 8.142 1.684 9.277 C2 12 2 12 3 13 C2.962 14.794 2.845 16.587 2.688 18.375 C2.648 18.864 2.648 18.864 2.449 21.336 C2 24 2 24 0 27 C-0.66 27 -1.32 27 -2 27 C-1.856 26.475 -1.711 25.951 -1.562 25.41 C0.461 16.965 0.18 8.621 0 0 Z " fill="#D7C2A3" transform="translate(171,171)"/>
<path d="M0 0 C1.458 -0.027 2.917 -0.046 4.375 -0.062 C5.187 -0.074 5.999 -0.086 6.836 -0.098 C9 0 9 0 11 1 C11 1.66 11 2.32 11 3 C10.68 3.052 10.68 3.052 9.062 3.312 C8.382 3.539 7.701 3.766 7 4 C6.67 4.99 6.34 5.98 6 7 C5.34 6.67 4.68 6.34 4 6 C4 5.34 4 4.68 4 4 C3.01 4 2.02 4 1 4 C0.67 2.68 0.34 1.36 0 0 Z " fill="#C367D3" transform="translate(149,157)"/>
<path d="M0 0 C0.33 0 0.66 0 1 0 C1.712 5.074 2 9.868 2 15 C2.33 15.66 2.66 16.32 3 17 C0.69 16.67 -1.62 16.34 -4 16 C-3.691 14.928 -3.381 13.855 -3.062 12.75 C-1.862 8.513 -0.84 4.322 0 0 Z " fill="#AA49B7" transform="translate(145,137)"/>
<path d="M0 0 C2.144 4.288 3.122 6.793 3.098 11.664 C3.094 12.786 3.091 13.907 3.088 15.062 C3.08 16.238 3.071 17.414 3.062 18.625 C3.058 19.808 3.053 20.992 3.049 22.211 C3.037 25.141 3.021 28.07 3 31 C2.67 31 2.34 31 2 31 C1.975 30.314 1.95 29.627 1.924 28.92 C1.808 25.822 1.685 22.723 1.562 19.625 C1.523 18.545 1.484 17.465 1.443 16.352 C1.401 15.32 1.36 14.289 1.316 13.227 C1.28 12.273 1.243 11.32 1.205 10.338 C1 8 1 8 0 6 C-1.32 6.33 -2.64 6.66 -4 7 C-2.68 4.69 -1.36 2.38 0 0 Z " fill="#6F2374" transform="translate(104,124)"/>
<path d="M0 0 C0.33 0 0.66 0 1 0 C0.977 0.892 0.954 1.784 0.93 2.703 C0.912 3.874 0.894 5.044 0.875 6.25 C0.852 7.41 0.829 8.57 0.805 9.766 C0.991 12.847 1.283 14.479 3 17 C3.66 17.33 4.32 17.66 5 18 C5 18.66 5 19.32 5 20 C5.66 20 6.32 20 7 20 C7 20.66 7 21.32 7 22 C6.01 22 5.02 22 4 22 C4 21.34 4 20.68 4 20 C3.175 19.67 3.175 19.67 -1 18 C-1.027 15.938 -1.046 13.875 -1.062 11.812 C-1.074 10.664 -1.086 9.515 -1.098 8.332 C-1.012 5.407 -0.678 2.837 0 0 Z " fill="#A246B2" transform="translate(108,197)"/>
<path d="M0 0 C0.59 1.891 0.59 1.891 1 4 C-0.438 5.75 -0.438 5.75 -2 7 C-1.01 7.66 -0.02 8.32 1 9 C0.381 9.062 -0.237 9.124 -0.875 9.188 C-1.576 9.456 -2.278 9.724 -3 10 C-3.697 11.654 -4.361 13.323 -5 15 C-7.125 16.812 -7.125 16.812 -9 18 C-9 16.02 -9 14.04 -9 12 C-8.67 12.66 -8.34 13.32 -8 14 C-7.34 14 -6.68 14 -6 14 C-5.888 13.274 -5.776 12.549 -5.66 11.801 C-4.97 8.874 -3.945 6.777 -2.438 4.188 C-1.982 3.397 -1.527 2.607 -1.059 1.793 C-0.709 1.201 -0.36 0.61 0 0 Z " fill="#C873D7" transform="translate(49,143)"/>
<path d="M0 0 C0.66 0.33 1.32 0.66 2 1 C2 2.32 2 3.64 2 5 C0.031 6.922 0.031 6.922 -2.5 8.75 C-2.918 9.057 -2.918 9.057 -5.031 10.609 C-5.681 11.068 -6.331 11.527 -7 12 C-7.33 11.34 -7.66 10.68 -8 10 C-7.67 9.01 -7.34 8.02 -7 7 C-6.34 7 -5.68 7 -5 7 C-4.732 6.216 -4.464 5.433 -4.188 4.625 C-3 2 -3 2 0 0 Z " fill="#C3A895" transform="translate(104,135)"/>
<path d="M0 0 C0.99 0 1.98 0 3 0 C2.67 5.61 2.34 11.22 2 17 C1.67 17 1.34 17 1 17 C0.67 13.04 0.34 9.08 0 5 C-1.32 6.98 -2.64 8.96 -4 11 C-4.33 10.34 -4.66 9.68 -5 9 C-4.258 7.09 -4.258 7.09 -3.125 4.938 C-2.756 4.225 -2.388 3.512 -2.008 2.777 C-1 1 -1 1 0 0 Z " fill="#782386" transform="translate(106,112)"/>
<path d="M0 0 C0.66 0 1.32 0 2 0 C1.732 0.495 1.464 0.99 1.188 1.5 C-0.439 4.924 -1.695 8.441 -3 12 C-2.01 12.33 -1.02 12.66 0 13 C-1.98 13 -3.96 13 -6 13 C-6.568 8.173 -4.864 5.791 -2 2 C-1.34 1.34 -0.68 0.68 0 0 Z " fill="#983CA2" transform="translate(86,143)"/>
<path d="M0 0 C2.804 2.687 3.266 4.877 3.375 8.625 C3.398 10.977 3.398 10.977 3 13 C2.505 13.33 2.505 13.33 0 15 C0 14.01 0 13.02 0 12 C-0.66 11.67 -1.32 11.34 -2 11 C-1.34 11 -0.68 11 0 11 C-0.186 10.299 -0.371 9.597 -0.562 8.875 C-1.052 5.661 -0.662 3.164 0 0 Z " fill="#9D43A9" transform="translate(146,198)"/>
<path d="M0 0 C0.66 0 1.32 0 2 0 C2.33 1.32 2.66 2.64 3 4 C3.99 3.67 4.98 3.34 6 3 C6.66 3.66 7.32 4.32 8 5 C7.34 5 6.68 5 6 5 C6 5.66 6 6.32 6 7 C7.65 6.67 9.3 6.34 11 6 C10.67 6.66 10.34 7.32 10 8 C9.34 8 8.68 8 8 8 C8 8.66 8 9.32 8 10 C2.047 7.908 2.047 7.908 0 5 C-0.188 2.312 -0.188 2.312 0 0 Z " fill="#AD4FBB" transform="translate(37,175)"/>
<path d="M0 0 C3 2 3 2 3.812 4.312 C4.034 7.492 3.247 9.09 2 12 C1.619 14.326 1.275 16.659 1 19 C0.34 19 -0.32 19 -1 19 C-1.082 14.804 -0.819 11.096 0 7 C0.038 4.667 0.046 2.333 0 0 Z " fill="#9949AA" transform="translate(167,162)"/>
<path d="M0 0 C5.28 0 10.56 0 16 0 C16.33 0.66 16.66 1.32 17 2 C15.105 2.196 13.209 2.382 11.312 2.562 C10.785 2.615 10.785 2.615 8.113 2.879 C5.186 2.993 2.829 2.708 0 2 C0 1.34 0 0.68 0 0 Z " fill="#ECDBBB" transform="translate(61,208)"/>
<path d="M0 0 C0.125 2.875 0.125 2.875 0 6 C-0.66 6.66 -1.32 7.32 -2 8 C-2.33 7.34 -2.66 6.68 -3 6 C-3.309 6.412 -3.309 6.412 -4.875 8.5 C-5.576 9.325 -6.278 10.15 -7 11 C-7.66 11 -8.32 11 -9 11 C-9 10.01 -9 9.02 -9 8 C-8.34 8 -7.68 8 -7 8 C-7 7.34 -7 6.68 -7 6 C-6.34 6 -5.68 6 -5 6 C-5 5.01 -5 4.02 -5 3 C-1.556 0 -1.556 0 0 0 Z " fill="#8F3E99" transform="translate(149,211)"/>
<path d="M0 0 C2.923 0.395 5.519 0.562 8.5 0.562 C8.5 1.222 8.5 1.882 8.5 2.562 C8.06 2.593 8.06 2.593 5.832 2.746 C5.251 2.788 5.251 2.788 2.312 3 C1.738 3.041 1.738 3.041 -1.168 3.246 C-4.016 3.517 -6.712 3.938 -9.5 4.562 C-9.17 3.243 -8.84 1.923 -8.5 0.562 C-5.45 -0.373 -3.15 -0.437 0 0 Z " fill="#A746B4" transform="translate(90.5,186.4375)"/>
<path d="M0 0 C0.66 0 1.32 0 2 0 C0.684 4.604 -1.092 8.183 -4 12 C-4.66 12 -5.32 12 -6 12 C-5.559 7.154 -3.255 3.519 0 0 Z " fill="#A08174" transform="translate(92,144)"/>
<path d="M0 0 C3.125 0.375 3.125 0.375 6 1 C6 1.33 6 1.66 6 2 C4.02 2 2.04 2 0 2 C-0.33 5.63 -0.66 9.26 -1 13 C-1.99 11.68 -2.98 10.36 -4 9 C-3.277 5.186 -2.771 2.771 0 0 Z " fill="#953AA1" transform="translate(150,189)"/>
<path d="M0 0 C2.041 -0.055 4.083 -0.093 6.125 -0.125 C6.693 -0.137 6.693 -0.137 9.57 -0.195 C13.058 0.003 15.755 0.748 19 2 C18.67 2.66 18.34 3.32 18 4 C15.937 3.689 13.875 3.376 11.812 3.062 C10.664 2.888 9.515 2.714 8.332 2.535 C5.537 2.086 2.771 1.579 0 1 C0 0.67 0 0.34 0 0 Z " fill="#EAD9B9" transform="translate(79,208)"/>
<path d="M0 0 C-0.33 1.32 -0.66 2.64 -1 4 C-1.66 3.67 -2.32 3.34 -3 3 C-5.371 2.77 -7.747 2.589 -10.125 2.438 C-11.406 2.354 -12.688 2.27 -14.008 2.184 C-14.502 2.153 -14.502 2.153 -17 2 C-17 1.67 -17 1.34 -17 1 C-11.293 0.007 -5.786 -0.105 0 0 Z " fill="#A4896B" transform="translate(106,199)"/>
<path d="M0 0 C0.33 0 0.66 0 1 0 C1.054 2.083 1.093 4.166 1.125 6.25 C1.148 7.41 1.171 8.57 1.195 9.766 C1.01 12.828 0.608 14.442 -1 17 C-2 16 -2 16 -2.062 13.625 C-2.042 12.759 -2.021 11.893 -2 11 C-2 10.01 -2 9.02 -2 8 C-1.67 7.67 -1.34 7.34 -1 7 C-0.632 4.672 -0.298 2.338 0 0 Z " fill="#7C3F7F" transform="translate(170,173)"/>
<path d="M0 0 C0.99 0.165 0.99 0.165 6 1 C5.67 1.66 5.34 2.32 5 3 C4.01 3 3.02 3 2 3 C1.67 4.65 1.34 6.3 1 8 C-0.65 8 -2.3 8 -4 8 C-3.67 7.34 -3.34 6.68 -3 6 C-2.34 6 -1.68 6 -1 6 C-0.67 4.02 -0.34 2.04 0 0 Z " fill="#BE61CD" transform="translate(50,143)"/>
<path d="M0 0 C1.675 0.286 3.344 0.618 5 1 C2.681 2.546 0.494 3.796 -2 5 C-1.125 1.125 -1.125 1.125 0 0 Z M-3 5 C-2.34 5.66 -1.68 6.32 -1 7 C-1.33 7.495 -1.33 7.495 -3 10 C-4.32 9.67 -5.64 9.34 -7 9 C-7 8.34 -7 7.68 -7 7 C-5.68 7 -4.36 7 -3 7 C-3 6.34 -3 5.68 -3 5 Z " fill="#BC61CC" transform="translate(62,127)"/>
<path d="M0 0 C0.99 0.33 1.98 0.66 3 1 C4.489 5.075 5.263 8.665 5 13 C4.34 12.67 3.68 12.34 3 12 C3 10.35 3 8.7 3 7 C2.34 7 1.68 7 1 7 C0.67 4.69 0.34 2.38 0 0 Z " fill="#F1E2C6" transform="translate(171,169)"/>
<path d="M0 0 C0 0.66 0 1.32 0 2 C-0.531 2.242 -1.062 2.485 -1.609 2.734 C-5.74 4.694 -8.971 6.466 -12 10 C-10.262 3.916 -6.511 0 0 0 Z " fill="#DBC6B0" transform="translate(106,144)"/>
<path d="M0 0 C1.32 0.33 2.64 0.66 4 1 C1.65 3.721 -0.557 4.967 -4 6 C-4.99 5.67 -5.98 5.34 -7 5 C-6.67 4.01 -6.34 3.02 -6 2 C-4.35 2 -2.7 2 -1 2 C-0.67 1.34 -0.34 0.68 0 0 Z " fill="#C46DD3" transform="translate(113,62)"/>
<path d="M0 0 C0.346 0.026 0.346 0.026 2.1 0.158 C3.796 0.287 5.492 0.424 7.188 0.562 C7.188 0.893 7.188 1.222 7.188 1.562 C4.605 1.785 2.022 1.991 -0.562 2.188 C-1.292 2.252 -2.022 2.316 -2.773 2.383 C-6.672 2.666 -9.519 2.833 -12.812 0.562 C-8.468 -0.576 -4.426 -0.369 0 0 Z " fill="#8E3C9B" transform="translate(131.8125,222.4375)"/>
<path d="M0 0 C0.99 0.33 1.98 0.66 3 1 C3 1.99 3 2.98 3 4 C3.66 4.33 4.32 4.66 5 5 C4 6 4 6 1.438 6.062 C1.035 6.052 1.035 6.052 -1 6 C-1 5.34 -1 4.68 -1 4 C-1.66 3.67 -2.32 3.34 -3 3 C-2.01 2.01 -1.02 1.02 0 0 Z " fill="#A446B2" transform="translate(120,217)"/>
<path d="M0 0 C4.875 1.75 4.875 1.75 6 4 C5.25 6.562 5.25 6.562 4 9 C3.01 9.33 2.02 9.66 1 10 C1.033 7.982 1.065 5.964 1.098 3.945 C1 2 1 2 0 0 Z " fill="#B25EC1" transform="translate(162,158)"/>
<path d="M0 0 C0.66 0.33 1.32 0.66 2 1 C1.67 1.66 1.34 2.32 1 3 C0.01 3.33 -0.98 3.66 -2 4 C-3.012 5.659 -4.013 7.326 -5 9 C-5.66 9 -6.32 9 -7 9 C-7 9.66 -7 10.32 -7 11 C-7.66 11 -8.32 11 -9 11 C-7.203 6.754 -4.184 2.092 0 0 Z " fill="#A98A7C" transform="translate(104,133)"/>
<path d="M0 0 C1.32 0.66 2.64 1.32 4 2 C2.68 4.64 1.36 7.28 0 10 C-0.66 9.67 -1.32 9.34 -2 9 C-2 8.34 -2 7.68 -2 7 C-2.66 6.67 -3.32 6.34 -4 6 C-2.68 5.34 -1.36 4.68 0 4 C0 2.68 0 1.36 0 0 Z " fill="#AA4BB5" transform="translate(90,126)"/>
<path d="M0 0 C0.66 0.33 1.32 0.66 2 1 C1.333 2.333 0.667 3.667 0 5 C-0.454 6.052 -0.907 7.104 -1.375 8.188 C-3 11 -3 11 -5.188 11.875 C-5.487 11.896 -5.487 11.896 -7 12 C-6.34 11.237 -5.68 10.474 -5 9.688 C-3 7 -3 7 -3 4 C-1.5 1.812 -1.5 1.812 0 0 Z " fill="#C9B18D" transform="translate(168,191)"/>
<path d="M0 0 C0.33 0 0.66 0 1 0 C1.33 3.3 1.66 6.6 2 10 C0.02 10 -1.96 10 -4 10 C-4 9.34 -4 8.68 -4 8 C-3.01 7.34 -2.02 6.68 -1 6 C-0.875 3.438 -0.875 3.438 -1 1 C-0.67 0.67 -0.34 0.34 0 0 Z " fill="#C268D2" transform="translate(111,151)"/>
<path d="M0 0 C-0.33 0.66 -0.66 1.32 -1 2 C-6.61 1.67 -12.22 1.34 -18 1 C-18 0.67 -18 0.34 -18 0 C-15.563 -0.195 -13.126 -0.381 -10.688 -0.562 C-9.997 -0.619 -9.307 -0.675 -8.596 -0.732 C-5.375 -0.966 -3.097 -1.032 0 0 Z " fill="#B39679" transform="translate(140,231)"/>
<path d="M0 0 C0.99 0 1.98 0 3 0 C3 0.66 3 1.32 3 2 C4.815 2.33 4.815 2.33 14 4 C14 4.33 14 4.66 14 5 C10.619 5.29 7.371 5.449 4 5 C1.375 2.5 1.375 2.5 0 0 Z " fill="#8A488E" transform="translate(110,222)"/>
<path d="M0 0 C0.66 0 1.32 0 2 0 C2 0.66 2 1.32 2 2 C2.66 2 3.32 2 4 2 C3.67 4.31 3.34 6.62 3 9 C2.01 8.67 1.02 8.34 0 8 C-1.097 4.71 -0.8 3.287 0 0 Z " fill="#BE65D0" transform="translate(110,202)"/>
<path d="M0 0 C-0.619 0.248 -1.237 0.495 -1.875 0.75 C-4.351 2.206 -4.951 3.378 -6 6 C-8.31 5.67 -10.62 5.34 -13 5 C-12.381 4.876 -11.763 4.752 -11.125 4.625 C-9 4 -9 4 -7 2 C-6.67 1.34 -6.34 0.68 -6 0 C-3 -1 -3 -1 0 0 Z " fill="#BA59C9" transform="translate(102,179)"/>
<path d="M0 0 C0.33 0.99 0.66 1.98 1 3 C-0.262 5.046 -1.603 7.044 -3 9 C-3.694 10.319 -4.375 11.646 -5 13 C-5.33 13 -5.66 13 -6 13 C-6.428 9.36 -5.974 7.954 -4.125 4.688 C-3.424 3.801 -2.722 2.914 -2 2 C-1.34 2 -0.68 2 0 2 C0 1.34 0 0.68 0 0 Z " fill="#963AA0" transform="translate(94,129)"/>
<path d="M0 0 C0.66 0 1.32 0 2 0 C0.125 5.75 0.125 5.75 -1 8 C-1.66 8 -2.32 8 -3 8 C-3.66 9.32 -4.32 10.64 -5 12 C-5 8.556 -4.204 7.252 -2.5 4.312 C-2.036 3.504 -1.572 2.696 -1.094 1.863 C-0.733 1.248 -0.372 0.634 0 0 Z " fill="#DA91E6" transform="translate(78,93)"/>
<path d="M0 0 C2.812 -0.25 2.812 -0.25 6 0 C7.875 2 7.875 2 9 4 C6.69 4 4.38 4 2 4 C2 3.34 2 2.68 2 2 C1.34 2 0.68 2 0 2 C0 1.34 0 0.68 0 0 Z " fill="#E0CFAD" transform="translate(55,204)"/>
<path d="M0 0 C0.66 0.66 1.32 1.32 2 2 C0.726 4.038 -0.611 6.039 -2 8 C-2.66 8 -3.32 8 -4 8 C-4.33 8.99 -4.66 9.98 -5 11 C-4.547 6.126 -3.291 3.61 0 0 Z " fill="#73247D" transform="translate(88,144)"/>
<path d="M0 0 C0.66 0 1.32 0 2 0 C2 1.98 2 3.96 2 6 C1.34 6.33 1.34 6.33 -2 8 C-2.125 5.125 -2.125 5.125 -2 2 C-1.34 1.34 -0.68 0.68 0 0 Z " fill="#A849B3" transform="translate(86,137)"/>
<path d="M0 0 C0.371 0.113 0.371 0.113 2.25 0.688 C1.92 1.677 1.59 2.668 1.25 3.688 C-0.07 3.358 -1.39 3.028 -2.75 2.688 C-3.08 3.677 -3.41 4.668 -3.75 5.688 C-4.41 5.688 -5.07 5.688 -5.75 5.688 C-6.08 4.698 -6.41 3.707 -6.75 2.688 C-4.295 0.414 -3.412 -0.388 0 0 Z " fill="#C165D1" transform="translate(136.75,63.3125)"/>
<path d="M0 0 C0.66 0.33 1.32 0.66 2 1 C-0.712 3.603 -1.891 3.995 -5.75 4.188 C-6.822 4.126 -7.895 4.064 -9 4 C-9.33 3.01 -9.66 2.02 -10 1 C-7.982 1.033 -5.964 1.065 -3.945 1.098 C-2 1 -2 1 0 0 Z " fill="#EEE0C1" transform="translate(139,238)"/>
<path d="M0 0 C2.018 0.293 4.036 0.586 6.055 0.879 C8 1 8 1 10 0 C10.99 0.66 11.98 1.32 13 2 C9.985 3.005 7.958 3.103 4.812 3.062 C4.362 3.058 4.362 3.058 2.082 3.035 C1.395 3.024 0.708 3.012 0 3 C0 2.01 0 1.02 0 0 Z " fill="#A547B3" transform="translate(150,186)"/>
<path d="M0 0 C2.97 0 5.94 0 9 0 C8.34 1.32 7.68 2.64 7 4 C4.375 4.75 4.375 4.75 2 5 C2 4.01 2 3.02 2 2 C1.34 1.34 0.68 0.68 0 0 Z " fill="#B352C5" transform="translate(112,126)"/>
<path d="M0 0 C0.66 0 1.32 0 2 0 C2.222 1.623 2.427 3.249 2.625 4.875 C2.741 5.78 2.857 6.685 2.977 7.617 C2.984 8.404 2.992 9.19 3 10 C2.34 10.66 1.68 11.32 1 12 C0.831 10.563 0.665 9.125 0.5 7.688 C0.407 6.887 0.314 6.086 0.219 5.262 C0 3 0 3 0 0 Z " fill="#EDDBBF" transform="translate(104,209)"/>
<path d="M0 0 C0.495 0.33 0.495 0.33 3 2 C3 2.66 3 3.32 3 4 C5.31 4.33 7.62 4.66 10 5 C10 5.33 10 5.66 10 6 C3.375 6.125 3.375 6.125 0 5 C0 3.35 0 1.7 0 0 Z " fill="#ECDABC" transform="translate(42,197)"/>
<path d="M0 0 C0.66 0.33 1.32 0.66 2 1 C2 1.66 2 2.32 2 3 C-2.471 7 -2.471 7 -5 7 C-3.75 3.347 -3.329 2.219 0 0 Z " fill="#B99C8B" transform="translate(104,135)"/>
<path d="M0 0 C2.029 3.315 2.127 5.432 1.625 9.25 C1.514 10.142 1.403 11.034 1.289 11.953 C1.194 12.629 1.098 13.304 1 14 C-1.401 9.767 -1.233 6.806 -1 2 C-0.67 1.34 -0.34 0.68 0 0 Z " fill="#A648B5" transform="translate(145,97)"/>
<path d="M0 0 C0.825 0.33 0.825 0.33 5 2 C5 2.66 5 3.32 5 4 C5.66 4.66 6.32 5.32 7 6 C3.625 5.453 1.918 4.945 -1 3 C-0.67 2.01 -0.34 1.02 0 0 Z " fill="#E2CEAE" transform="translate(115,229)"/>
<path d="M0 0 C1.32 0.33 2.64 0.66 4 1 C4 1.66 4 2.32 4 3 C0.04 3 -3.92 3 -8 3 C-4 1 -4 1 -1.75 1.375 C-1.172 1.581 -0.595 1.787 0 2 C0 1.34 0 0.68 0 0 Z " fill="#A446B1" transform="translate(58,186)"/>
<path d="M0 0 C0.99 0.33 1.98 0.66 3 1 C1.35 2.98 -0.3 4.96 -2 7 C-3.32 6.67 -4.64 6.34 -6 6 C-4 4 -2 2 0 0 Z " fill="#E4D2BF" transform="translate(99,148)"/>
<path d="M0 0 C0.625 1.875 0.625 1.875 1 4 C0.34 4.66 -0.32 5.32 -1 6 C-1.99 5.67 -2.98 5.34 -4 5 C-2.25 1.125 -2.25 1.125 0 0 Z " fill="#C2AA84" transform="translate(143,227)"/>
<path d="M0 0 C2.97 0 5.94 0 9 0 C8.34 0.33 8.34 0.33 5 2 C4.67 2.33 4.34 2.66 4 3 C2.334 3.041 0.666 3.043 -1 3 C-0.67 2.01 -0.34 1.02 0 0 Z " fill="#702A77" transform="translate(151,192)"/>
<path d="M0 0 C0.33 0.66 0.66 1.32 1 2 C1.66 2.33 2.32 2.66 3 3 C2.67 3.165 2.67 3.165 1 4 C1 4.66 1 5.32 1 6 C-0.65 6 -2.3 6 -4 6 C-4 5.34 -4 4.68 -4 4 C-3.34 4 -2.68 4 -2 4 C-2 3.34 -2 2.68 -2 2 C-1.34 2 -0.68 2 0 2 C0 1.34 0 0.68 0 0 Z " fill="#B34EC0" transform="translate(126,165)"/>
<path d="M0 0 C0 1.32 0 2.64 0 4 C-2.31 4.66 -4.62 5.32 -7 6 C-5.816 2.449 -3.994 0 0 0 Z " fill="#D3BAA6" transform="translate(106,140)"/>
<path d="M0 0 C0 0.66 0 1.32 0 2 C-0.99 2.33 -1.98 2.66 -3 3 C-3.66 3.66 -4.32 4.32 -5 5 C-6.32 4.34 -7.64 3.68 -9 3 C-7.042 -0.916 -3.951 -0.086 0 0 Z " fill="#BB59C9" transform="translate(82,134)"/>
<path d="M0 0 C1.429 2.354 2.087 3.48 1.625 6.25 C1.522 6.539 1.522 6.539 1 8 C0.67 7.34 0.34 6.68 0 6 C-1.32 6.33 -2.64 6.66 -4 7 C-2.68 4.69 -1.36 2.38 0 0 Z " fill="#755255" transform="translate(104,124)"/>
<path d="M0 0 C0 2.719 -0.056 4.483 -1 7 C-3.062 8.75 -3.062 8.75 -5 10 C-4.497 5.599 -2.912 3.288 0 0 Z " fill="#AE5EC4" transform="translate(64,111)"/>
<path d="M0 0 C0.825 0.165 0.825 0.165 5 1 C4.67 1.66 4.34 2.32 4 3 C3.01 3 2.02 3 1 3 C0.67 4.32 0.34 5.64 0 7 C0 4.69 0 2.38 0 0 Z " fill="#9C7B65" transform="translate(150,199)"/>
<path d="M0 0 C1.98 0 3.96 0 6 0 C6.33 0.99 6.66 1.98 7 3 C5.02 3 3.04 3 1 3 C0.67 2.01 0.34 1.02 0 0 Z " fill="#A041B0" transform="translate(100,188)"/>
<path d="M0 0 C0.99 0.33 1.98 0.66 3 1 C2.01 2.65 1.02 4.3 0 6 C-1.65 5.67 -3.3 5.34 -5 5 C-4.361 4.546 -3.721 4.093 -3.062 3.625 C-1 2 -1 2 0 0 Z " fill="#B04CBE" transform="translate(128,101)"/>
</svg>
