<?xml version="1.0" encoding="UTF-8"?>
<!-- Generator: visioncortex VTracer 0.6.12 -->
<svg version="1.1" xmlns="http://www.w3.org/2000/svg" width="210" height="265">
<path d="M0 0 C69.3 0 138.6 0 210 0 C210 87.45 210 174.9 210 265 C140.7 265 71.4 265 0 265 C0 177.55 0 90.1 0 0 Z " fill="#FDF7E1" transform="translate(0,0)"/>
<path d="M0 0 C13.17 10.045 20.594 23.695 23 40 C23.276 43.381 23.335 46.733 23.312 50.125 C23.307 51.037 23.301 51.95 23.295 52.89 C22.683 87.558 3.648 120.386 -20.758 144.004 C-29.183 151.932 -37.354 156.967 -49.062 157.438 C-55.544 157.24 -60.085 155.806 -64.785 151.281 C-69.024 146.552 -70.464 142.752 -70.32 136.383 C-69.1 127.308 -59.512 119.772 -53 114 C-52.34 114 -51.68 114 -51 114 C-51.33 112.35 -51.66 110.7 -52 109 C-52.949 109.041 -53.898 109.082 -54.875 109.125 C-58 109 -58 109 -60 107 C-61.883 106.762 -61.883 106.762 -64.125 106.688 C-68.632 106.284 -71.277 104.882 -74.949 102.336 C-77.818 100.467 -80.866 99.206 -84.02 97.895 C-86 97 -86 97 -89 95 C-89.73 92.836 -89.73 92.836 -90.188 90.375 C-90.267 89.966 -90.267 89.966 -90.668 87.898 C-90.723 87.585 -90.723 87.585 -91 86 C-91.66 86 -92.32 86 -93 86 C-93.227 85.216 -93.454 84.433 -93.688 83.625 C-95.046 79.873 -96.762 76.539 -98.684 73.051 C-102.381 64.483 -103.503 56.274 -103.438 47 C-103.457 45.997 -103.477 44.994 -103.498 43.961 C-103.493 36.592 -101.9 30.74 -99 24 C-98.643 23.132 -98.285 22.263 -97.917 21.368 C-91.94 7.296 -78.648 -3.086 -64.906 -8.934 C-43.005 -16.97 -19.024 -13.434 0 0 Z " fill="#98CE13" transform="translate(141,62)"/>
<path d="M0 0 C69.3 0 138.6 0 210 0 C210 87.45 210 174.9 210 265 C140.7 265 71.4 265 0 265 C0 177.55 0 90.1 0 0 Z M7 4 C6.904 5.355 6.876 6.716 6.877 8.074 C6.875 8.958 6.873 9.841 6.871 10.751 C6.874 11.732 6.877 12.714 6.88 13.725 C6.879 14.759 6.878 15.793 6.877 16.858 C6.875 20.352 6.881 23.845 6.886 27.338 C6.887 29.831 6.887 32.324 6.886 34.816 C6.886 40.198 6.889 45.579 6.894 50.96 C6.902 58.741 6.905 66.521 6.906 74.302 C6.908 86.924 6.915 99.546 6.925 112.169 C6.934 124.433 6.941 136.697 6.945 148.962 C6.945 149.725 6.946 150.488 6.946 151.274 C6.948 157.242 6.95 163.21 6.952 169.178 C6.961 198.452 6.981 227.726 7 257 C72.34 257 137.68 257 205 257 C205.04 193.55 205.04 193.55 205.049 167.115 C205.051 161.064 205.053 155.013 205.055 148.962 C205.055 148.203 205.055 147.445 205.056 146.663 C205.06 134.402 205.068 122.141 205.077 109.88 C205.086 97.307 205.092 84.733 205.094 72.159 C205.095 64.395 205.1 56.63 205.108 48.865 C205.114 42.921 205.114 36.977 205.113 31.033 C205.113 28.587 205.115 26.141 205.119 23.695 C205.124 20.372 205.123 17.048 205.12 13.725 C205.123 12.744 205.126 11.762 205.129 10.751 C205.127 9.868 205.125 8.984 205.123 8.074 C205.123 7.69 205.123 7.69 205.124 5.746 C205 4 205 4 204 3 C201.473 2.9 198.973 2.866 196.446 2.873 C195.645 2.871 194.845 2.87 194.02 2.868 C191.317 2.864 188.613 2.867 185.91 2.871 C183.981 2.869 182.051 2.867 180.122 2.865 C174.866 2.861 169.609 2.863 164.353 2.866 C158.866 2.868 153.378 2.866 147.891 2.864 C138.674 2.862 129.456 2.865 120.239 2.87 C109.566 2.875 98.894 2.873 88.221 2.868 C79.075 2.863 69.929 2.863 60.784 2.865 C55.314 2.867 49.844 2.867 44.374 2.864 C39.232 2.861 34.091 2.863 28.949 2.869 C27.057 2.87 25.164 2.87 23.271 2.867 C20.699 2.865 18.127 2.868 15.554 2.873 C14.795 2.871 14.036 2.869 13.254 2.866 C8.114 2.886 8.114 2.886 7 4 Z " fill="#FDFDFC" transform="translate(0,0)"/>
<path d="M0 0 C0.33 0.33 0.33 0.33 2 2 C5.125 1.625 5.125 1.625 8 1 C8.165 1.33 8.165 1.33 9 3 C8.67 3.66 8.34 4.32 8 5 C8.99 5.33 9.98 5.66 11 6 C11.391 10.436 10.45 13.283 8 17 C6.333 17.333 4.667 17.667 3 18 C2.67 18.969 2.34 19.939 2 20.938 C0 24 0 24 -3.074 24.84 C-6.382 25.33 -9.668 25.724 -13 26 C-13 26.99 -13 27.98 -13 29 C-14.98 29.99 -16.96 30.98 -19 32 C-19 32.99 -19 33.98 -19 35 C-18.567 34.505 -18.134 34.01 -17.688 33.5 C-16 32 -16 32 -13 32 C-13 31.34 -13 30.68 -13 30 C-6.581 26.077 -2.356 25.471 5 27 C8.887 28.296 9.77 30.064 12.125 33.375 C12.829 34.352 13.533 35.329 14.258 36.336 C16.609 39.932 17.123 42.485 17.062 46.688 C17.053 47.496 17.044 48.304 17.035 49.137 C17.024 49.752 17.012 50.366 17 51 C15 48 15 48 13.957 46.062 C11.911 42.375 10.445 40.28 6.812 38 C0.655 36.385 -4.573 35.787 -10.375 38.688 C-15.204 42.941 -17.76 46.173 -18.312 52.688 C-18.216 57.457 -16.934 61.219 -14 65 C-11.479 66.987 -8.862 68.555 -6 70 C-9.489 71.163 -10.241 70.77 -13.562 69.5 C-15.941 68.594 -15.941 68.594 -18 68 C-18.33 68.165 -18.33 68.165 -20 69 C-19.67 69.66 -19.34 70.32 -19 71 C-18.01 70.67 -17.02 70.34 -16 70 C-14 73 -14 73 -14.125 75.562 C-15 78 -15 78 -16.793 79.027 C-17.521 79.348 -18.25 79.669 -19 80 C-20.397 80.664 -21.793 81.33 -23.188 82 C-23.882 82.33 -24.577 82.66 -25.293 83 C-27 84 -27 84 -28 86 C-29.32 86 -30.64 86 -32 86 C-32.33 86.33 -32.33 86.33 -34 88 C-34 87.34 -34 86.68 -34 86 C-34.99 86 -35.98 86 -37 86 C-37 86.66 -37 87.32 -37 88 C-38.333 87.333 -39.667 86.667 -41 86 C-41 87.32 -41 88.64 -41 90 C-39.02 90.33 -37.04 90.66 -35 91 C-35.33 91.99 -35.66 92.98 -36 94 C-35.093 93.484 -34.185 92.969 -33.25 92.438 C-30 91 -30 91 -27.625 91.312 C-27.089 91.539 -26.553 91.766 -26 92 C-26 92.66 -26 93.32 -26 94 C-25.34 94 -24.68 94 -24 94 C-24 94.66 -24 95.32 -24 96 C-23.34 96 -22.68 96 -22 96 C-21.67 96.66 -21.34 97.32 -21 98 C-20.237 97.67 -19.474 97.34 -18.688 97 C-16 96 -16 96 -13 96 C-13.33 95.01 -13.66 94.02 -14 93 C-13.01 93 -12.02 93 -11 93 C-10.375 94.812 -10.375 94.812 -10 97 C-10.66 97.99 -11.32 98.98 -12 100 C-11.157 100.133 -10.314 100.266 -9.445 100.402 C-8.35 100.579 -7.254 100.756 -6.125 100.938 C-5.034 101.112 -3.944 101.286 -2.82 101.465 C-0 102 -0 102 2 103 C0.703 105.894 -0.488 108.033 -3 110 C-16.549 111.972 -29.568 108.036 -41 101 C-52.775 92.181 -59.765 81.876 -63.629 67.691 C-64.181 63.689 -64.104 59.722 -64.062 55.688 C-64.058 54.852 -64.053 54.016 -64.049 53.154 C-64.037 51.103 -64.019 49.051 -64 47 C-62.35 47 -60.7 47 -59 47 C-58.856 46.237 -58.711 45.474 -58.562 44.688 C-57.488 39.555 -55.669 37.669 -52 34 C-49.545 30.795 -48.1 28.846 -47.625 24.812 C-47 22 -47 22 -44.062 20.062 C-43.052 19.712 -42.041 19.361 -41 19 C-40.34 19.33 -39.68 19.66 -39 20 C-39.041 19.237 -39.082 18.474 -39.125 17.688 C-39 15 -39 15 -37 12 C-36.34 12 -35.68 12 -35 12 C-35 11.34 -35 10.68 -35 10 C-34.34 10 -33.68 10 -33 10 C-33 9.34 -33 8.68 -33 8 C-32.66 8.021 -32.66 8.021 -30.938 8.125 C-27.401 7.975 -24.367 7.056 -21 6 C-20.34 7.98 -19.68 9.96 -19 12 C-19 11.01 -19 10.02 -19 9 C-18.75 6.937 -18.75 6.937 -18 5 C-15.51 3.369 -12.929 2.505 -10 2 C-9.835 2.165 -9.835 2.165 -9 3 C-2.4 2.4 -2.4 2.4 0 0 Z " fill="#9BCF17" transform="translate(102,56)"/>
<path d="M0 0 C1.32 0.33 2.64 0.66 4 1 C4 2.65 4 4.3 4 6 C4.33 5.67 4.66 5.34 5 5 C10.631 10.631 9.982 21.544 10.006 28.977 C9.977 32.215 9.926 35.45 9.84 38.688 C9.998 41.968 10.724 44.021 12 47 C10.963 51.561 8.8 55.733 6.805 59.949 C6 62 6 62 6 65 C5.425 66.829 4.793 68.64 4.125 70.438 C3.777 71.385 3.429 72.332 3.07 73.309 C2 76 2 76 0.926 78.129 C0 80 0 80 -0.938 83.5 C-1.939 86.8 -2.9 88.375 -5 91 C-5.697 92.654 -6.361 94.323 -7 96 C-8.668 99.626 -10.139 102.258 -13 105 C-13.36 105.688 -13.719 106.377 -14.09 107.086 C-16.858 111.309 -20.44 114.568 -24.062 118.062 C-25.516 119.465 -26.966 120.873 -28.41 122.285 C-29.051 122.903 -29.692 123.52 -30.352 124.156 C-32.011 126.013 -33.004 127.73 -34 130 C-34.99 129.67 -35.98 129.34 -37 129 C-37.229 129.241 -37.229 129.241 -38.391 130.461 C-39.004 131.093 -39.618 131.724 -40.25 132.375 C-40.853 133.001 -41.457 133.628 -42.078 134.273 C-43.985 135.986 -45.682 136.945 -48 138 C-48.743 138.495 -49.485 138.99 -50.25 139.5 C-54.283 141.7 -58.445 143.675 -63.07 142.453 C-65 141.625 -65 141.625 -68 140 C-68 139.34 -68 138.68 -68 138 C-68.313 137.976 -68.313 137.976 -69.898 137.852 C-70.716 137.777 -71.533 137.702 -72.375 137.625 C-73.187 137.555 -73.999 137.486 -74.836 137.414 C-77 137 -77 137 -79 135 C-79 133.68 -79 132.36 -79 131 C-79.66 131 -80.32 131 -81 131 C-81.66 129.35 -82.32 127.7 -83 126 C-82.49 126.289 -81.979 126.577 -81.453 126.875 C-74.185 130.587 -67.155 131.421 -59.223 129.234 C-49.911 125.706 -43.199 119.704 -36 113 C-35.34 112.417 -34.68 111.835 -34 111.234 C-13.762 92.515 1.669 60.09 3.126 32.615 C3.473 21.329 3.086 10.93 0 0 Z " fill="#E7DBB1" transform="translate(160,88)"/>
<path d="M0 0 C2 1 2 1 2 1 Z M42 -24 C42 -23.34 42 -22.68 42 -22 C42.66 -21.34 43.32 -20.68 44 -20 C43.34 -18.35 42.68 -16.7 42 -15 C42.99 -14.67 43.98 -14.34 45 -14 C45.33 -15.32 45.66 -16.64 46 -18 C46.99 -17.67 47.98 -17.34 49 -17 C48.34 -17 47.68 -17 47 -17 C46.856 -16.216 46.711 -15.433 46.562 -14.625 C46 -12 46 -12 45 -10 C44.01 -10.33 43.02 -10.66 42 -11 C42 -11.66 42 -12.32 42 -13 C41.34 -12.67 40.68 -12.34 40 -12 C39.641 -10.339 39.311 -8.671 39 -7 C37.938 -4.688 37.938 -4.688 37 -3 C37.99 -2.01 38.98 -1.02 40 0 C39.67 0.66 39.34 1.32 39 2 C39.604 3.588 40.283 5.147 41 6.688 C42.92 11.302 43.28 14.062 42 19 C41.872 19.67 41.745 20.341 41.613 21.031 C40.09 28.522 35.85 32.422 30 37 C25.516 39.242 19.853 38.59 15 38 C10.198 35.925 7.64 33.079 5 28.625 C3.533 23.309 3.245 19.22 5.062 13.875 C7.862 9.721 11.488 6.256 16 4 C21.883 3.333 27.021 3.658 32.238 6.578 C35.383 9.116 37.199 12.433 39 16 C38.885 8.748 37.27 5.294 32.496 -0.152 C31 -2 31 -2 31 -4 C17.433 -5.671 17.433 -5.671 12 -2 C11.34 -2 10.68 -2 10 -2 C10 -1.34 10 -0.68 10 0 C8.349 1.026 6.68 2.023 5 3 C3.188 4.688 3.188 4.688 2 6 C2.506 3.831 3 2 4 0 C3.34 -0.33 2.68 -0.66 2 -1 C4.906 -2.257 6.796 -3 10 -3 C10 -3.99 10 -4.98 10 -6 C13.524 -7.057 16.572 -7.967 20.25 -8.25 C23 -9 23 -9 24.875 -12.062 C25.061 -12.547 25.061 -12.547 26 -15 C27.65 -15 29.3 -15 31 -15 C31.124 -15.743 31.248 -16.485 31.375 -17.25 C31.971 -19.873 32.492 -21.778 34 -24 C36.946 -25.277 38.991 -24.967 42 -24 Z " fill="#99CE15" transform="translate(79,88)"/>
<path d="M0 0 C2.831 2.831 2.287 4.956 2.33 8.829 C2.324 9.752 2.318 10.674 2.312 11.625 C2.307 12.573 2.301 13.522 2.295 14.499 C1.702 49.361 -17.189 82.229 -41.758 106.004 C-50.183 113.932 -58.354 118.967 -70.062 119.438 C-76.58 119.239 -81.024 117.753 -85.82 113.316 C-90 108.797 -90 108.797 -90 104 C-88.02 104 -86.04 104 -84 104 C-83.732 104.804 -83.464 105.609 -83.188 106.438 C-82.796 107.283 -82.404 108.129 -82 109 C-78.703 110.099 -77.595 109.871 -74.312 109.062 C-73.504 108.868 -72.696 108.673 -71.863 108.473 C-71.248 108.317 -70.634 108.161 -70 108 C-70 108.66 -70 109.32 -70 110 C-68.538 109.576 -67.08 109.135 -65.625 108.688 C-64.813 108.444 -64.001 108.2 -63.164 107.949 C-61 107 -61 107 -59 104 C-56.082 102.579 -54.268 102 -51 102 C-51 101.34 -51 100.68 -51 100 C-50.34 100 -49.68 100 -49 100 C-49 99.34 -49 98.68 -49 98 C-48.34 98 -47.68 98 -47 98 C-47 97.34 -47 96.68 -47 96 C-45.32 94.816 -45.32 94.816 -43.125 93.562 C-40.089 91.827 -39.009 91.013 -37 88 C-36.34 88 -35.68 88 -35 88 C-35 87.34 -35 86.68 -35 86 C-34.34 86 -33.68 86 -33 86 C-32.917 85.051 -32.835 84.103 -32.75 83.125 C-32.502 82.094 -32.255 81.062 -32 80 C-31.34 79.691 -30.68 79.381 -30 79.062 C-29.34 78.712 -28.68 78.361 -28 78 C-27.635 75.671 -27.306 73.337 -27 71 C-25.839 68.515 -24.472 66.326 -23 64 C-22.34 64 -21.68 64 -21 64 C-21.33 63.01 -21.66 62.02 -22 61 C-21.68 60.948 -21.68 60.948 -20.062 60.688 C-19.382 60.461 -18.701 60.234 -18 60 C-17.67 59.01 -17.34 58.02 -17 57 C-16.526 56.608 -16.051 56.216 -15.562 55.812 C-13.434 53.344 -13.181 50.906 -12.625 47.742 C-12.419 47.167 -12.213 46.592 -12 46 C-11.01 45.67 -10.02 45.34 -9 45 C-8.484 42.902 -7.99 40.796 -7.594 38.672 C-6.988 35.944 -6.078 33.538 -5.062 30.938 C-1.615 21.06 -1.089 10.346 0 0 Z " fill="#79B102" transform="translate(162,100)"/>
<path d="M0 0 C0.66 0 1.32 0 2 0 C2.165 0.66 2.165 0.66 3 4 C4.98 4.33 6.96 4.66 9 5 C9 5.66 9 6.32 9 7 C9.99 7 10.98 7 12 7 C11.01 8.98 10.02 10.96 9 13 C9.66 13 10.32 13 11 13 C11.66 12.01 12.32 11.02 13 10 C13.66 10.66 14.32 11.32 15 12 C14.01 14.31 13.02 16.62 12 19 C11.34 19 10.68 19 10 19 C10 19.66 10 20.32 10 21 C9.34 21 8.68 21 8 21 C7.794 21.577 7.588 22.155 7.375 22.75 C5.484 25.845 3.1 27.192 0 29 C-0.66 29 -1.32 29 -2 29 C-2 29.66 -2 30.32 -2 31 C-2.66 31 -3.32 31 -4 31 C-4 31.66 -4 32.32 -4 33 C-4.66 33 -5.32 33 -6 33 C-6 33.66 -6 34.32 -6 35 C-9.088 36.765 -10.233 37 -14 37 C-14.248 37.619 -14.495 38.238 -14.75 38.875 C-16.258 41.438 -17.209 42.043 -20 43 C-22.562 43.125 -22.562 43.125 -25 43 C-28 43 -28 43 -31.5 43.625 C-35 44 -35 44 -38 42 C-38.688 39.375 -38.688 39.375 -39 37 C-40.32 36.67 -41.64 36.34 -43 36 C-42.34 35.34 -41.68 34.68 -41 34 C-39.68 34 -38.36 34 -37 34 C-37 34.66 -37 35.32 -37 36 C-35.02 36.66 -33.04 37.32 -31 38 C-31.312 36.062 -31.312 36.062 -32 34 C-32.99 33.67 -33.98 33.34 -35 33 C-33.68 32.34 -32.36 31.68 -31 31 C-31.33 30.01 -31.66 29.02 -32 28 C-30.68 26.68 -29.36 25.36 -28 24 C-27.67 24.66 -27.34 25.32 -27 26 C-26.402 25.814 -25.804 25.629 -25.188 25.438 C-23 25 -23 25 -20 26 C-20 25.34 -20 24.68 -20 24 C-21.98 23.34 -23.96 22.68 -26 22 C-25.812 19.688 -25.812 19.688 -25 17 C-22.37 15.062 -20.099 14.033 -17 13 C-17.33 12.01 -17.66 11.02 -18 10 C-15.809 6.257 -14.386 5.135 -10.25 3.688 C-9.178 3.461 -8.105 3.234 -7 3 C-7 3.99 -7 4.98 -7 6 C-5.188 5.812 -5.188 5.812 -3 5 C-1.959 3.359 -0.955 1.693 0 0 Z M1 3 C0.67 3.99 0.34 4.98 0 6 C0.99 6 1.98 6 3 6 C2.67 5.01 2.34 4.02 2 3 C1.67 3 1.34 3 1 3 Z " fill="#95CB10" transform="translate(117,167)"/>
<path d="M0 0 C0.969 0.846 1.939 1.691 2.938 2.562 C4.289 3.711 5.644 4.857 7 6 C7.687 6.588 8.374 7.176 9.082 7.781 C20.972 17.551 33.324 20.015 48.406 20.461 C51.723 19.871 52.746 18.415 55 16 C58.25 15.75 58.25 15.75 61 16 C61 15.34 61 14.68 61 14 C61.99 14.33 62.98 14.66 64 15 C65.347 19.042 64.32 21.04 63 25 C60.104 26.448 58.258 27 55 27 C53.911 29.033 53.046 30.708 52.688 33 C51.344 36.907 47.305 38.797 44 41 C43.67 41.99 43.34 42.98 43 44 C44.98 44.66 46.96 45.32 49 46 C49 46.66 49 47.32 49 48 C45.377 49.208 44.359 48.543 41 47 C39.5 48.312 39.5 48.312 38 50 C38 50.99 38 51.98 38 53 C37.01 53.66 36.02 54.32 35 55 C35.495 55.454 35.99 55.907 36.5 56.375 C38 58 38 58 38 60 C35.69 59.67 33.38 59.34 31 59 C31 58.34 31 57.68 31 57 C28.063 57.629 25.662 58.624 23 60 C22.399 54.234 22.735 50.067 26.098 45.262 C30.371 40.181 35.032 35.403 40 31 C40.66 31 41.32 31 42 31 C41.67 29.35 41.34 27.7 41 26 C40.051 26.041 39.102 26.083 38.125 26.125 C35 26 35 26 33 24 C31.117 23.762 31.117 23.762 28.875 23.688 C24.368 23.284 21.723 21.882 18.051 19.336 C15.182 17.467 12.134 16.206 8.98 14.895 C7 14 7 14 4 12 C3.27 9.836 3.27 9.836 2.812 7.375 C2.654 6.558 2.495 5.74 2.332 4.898 C2.277 4.585 2.277 4.585 2 3 C1.34 3 0.68 3 0 3 C0 2.01 0 1.02 0 0 Z " fill="#9ED11C" transform="translate(48,145)"/>
<path d="M0 0 C3.851 6.018 1.774 13.384 0.375 19.938 C0.288 20.349 0.288 20.349 -0.152 22.43 C-2.276 31.944 -5.45 41.355 -10 50 C-10.66 50 -11.32 50 -12 50 C-12.037 50.278 -12.037 50.278 -12.227 51.688 C-13.188 57.268 -14.906 60.668 -18.484 65.02 C-20.02 67.026 -21.06 68.964 -22.125 71.25 C-23.648 74.498 -25.411 76.495 -28 79 C-28.454 79.969 -28.907 80.939 -29.375 81.938 C-31.4 85.754 -33.618 87.354 -37 90 C-37.33 90.66 -37.66 91.32 -38 92 C-41.493 94.435 -45.103 95.821 -49.074 97.242 C-51.563 98.222 -53.74 99.579 -56 101 C-62.197 103.066 -69.518 102.822 -75.688 100.688 C-79 99 -79 99 -80 96 C-76.792 94.931 -74.788 95.026 -71.438 95.188 C-57.69 95.304 -48.567 86.909 -39 78 C-38.34 77.417 -37.68 76.835 -37 76.234 C-17.095 57.822 -2.532 26.844 0 0 Z " fill="#CDBF88" transform="translate(163,123)"/>
<path d="M0 0 C4 6 4 6 5 8 C5.66 8 6.32 8 7 8 C7.66 9.98 8.32 11.96 9 14 C9.99 14 10.98 14 12 14 C12.536 15.134 13.072 16.269 13.625 17.438 C15.367 20.546 15.623 20.891 19.25 21.938 C19.704 21.948 19.704 21.948 22 22 C22 22.66 22 23.32 22 24 C23.98 24.33 25.96 24.66 28 25 C27.67 25.99 27.34 26.98 27 28 C27.907 27.484 28.815 26.969 29.75 26.438 C33 25 33 25 35.375 25.312 C35.911 25.539 36.447 25.766 37 26 C37 26.66 37 27.32 37 28 C37.66 28 38.32 28 39 28 C39 28.66 39 29.32 39 30 C39.66 30 40.32 30 41 30 C41.165 30.33 41.165 30.33 42 32 C42.763 31.67 43.526 31.34 44.312 31 C47 30 47 30 50 30 C49.835 29.505 49.835 29.505 49 27 C49.99 27 50.98 27 52 27 C52.625 28.812 52.625 28.812 53 31 C52.34 31.99 51.68 32.98 51 34 C51.843 34.133 52.686 34.266 53.555 34.402 C54.65 34.579 55.746 34.756 56.875 34.938 C57.966 35.112 59.056 35.286 60.18 35.465 C63 36 63 36 65 37 C63.703 39.894 62.512 42.033 60 44 C46.451 45.972 33.432 42.036 22 35 C11.049 26.798 3.831 17.189 0 4 C0 2.68 0 1.36 0 0 Z " fill="#82B706" transform="translate(39,122)"/>
<path d="M0 0 C0.623 0.005 0.623 0.005 3.773 0.027 C4.244 0.033 4.244 0.033 6.625 0.062 C6.625 0.392 6.625 0.722 6.625 1.062 C2.335 1.062 -1.955 1.062 -6.375 1.062 C-6.375 1.722 -6.375 2.383 -6.375 3.062 C-3.735 3.062 -1.095 3.062 1.625 3.062 C1.625 3.722 1.625 4.383 1.625 5.062 C0.305 5.062 -1.015 5.062 -2.375 5.062 C-2.375 5.722 -2.375 6.383 -2.375 7.062 C-4.685 7.062 -6.995 7.062 -9.375 7.062 C-9.705 7.722 -10.035 8.383 -10.375 9.062 C-10.375 8.403 -10.375 7.742 -10.375 7.062 C-11.035 7.062 -11.695 7.062 -12.375 7.062 C-12.375 7.722 -12.375 8.383 -12.375 9.062 C-13.509 9.186 -14.644 9.31 -15.812 9.438 C-16.988 9.644 -18.164 9.85 -19.375 10.062 C-19.705 10.722 -20.035 11.383 -20.375 12.062 C-23.438 12.688 -23.438 12.688 -26.375 13.062 C-26.705 14.053 -27.035 15.043 -27.375 16.062 C-28.365 15.733 -29.355 15.403 -30.375 15.062 C-30.375 15.722 -30.375 16.382 -30.375 17.062 C-31.035 17.062 -31.695 17.062 -32.375 17.062 C-32.375 17.722 -32.375 18.382 -32.375 19.062 C-33.035 19.062 -33.695 19.062 -34.375 19.062 C-34.705 19.888 -34.705 19.888 -36.375 24.062 C-35.715 24.392 -35.055 24.722 -34.375 25.062 C-35.035 25.062 -35.695 25.062 -36.375 25.062 C-36.375 25.722 -36.375 26.382 -36.375 27.062 C-37.138 27.207 -37.901 27.351 -38.688 27.5 C-41.375 28.062 -41.375 28.062 -44.375 29.062 C-44.295 29.931 -44.215 30.8 -44.133 31.695 C-44.433 35.871 -45.734 37.633 -48.25 40.938 C-48.969 41.904 -49.689 42.871 -50.43 43.867 C-51.072 44.592 -51.714 45.316 -52.375 46.062 C-53.035 46.062 -53.695 46.062 -54.375 46.062 C-54.272 47.135 -54.169 48.208 -54.062 49.312 C-54.375 53.062 -54.375 53.062 -56.875 55.5 C-57.288 55.758 -57.288 55.758 -59.375 57.062 C-59.375 56.072 -59.375 55.083 -59.375 54.062 C-60.035 54.062 -60.695 54.062 -61.375 54.062 C-61.312 40.141 -53.596 27.505 -44.375 17.5 C-32.536 6.118 -16.331 -0.154 0 0 Z " fill="#B6DE42" transform="translate(99.375,48.9375)"/>
<path d="M0 0 C14.608 -0.413 26.226 0.483 39.562 6.875 C40.254 7.202 40.946 7.53 41.659 7.867 C45.84 9.989 47.921 11.823 50 16 C51.628 17.704 53.288 19.38 55 21 C54.67 21.495 54.67 21.495 53 24 C51.68 23.34 50.36 22.68 49 22 C49 21.34 49 20.68 49 20 C48.01 20 47.02 20 46 20 C45.67 20.495 45.67 20.495 44 23 C43.34 22.67 42.68 22.34 42 22 C42.33 20.68 42.66 19.36 43 18 C37.25 18.75 37.25 18.75 35 21 C34.01 20.67 33.02 20.34 32 20 C31.67 21.32 31.34 22.64 31 24 C29.68 23.67 28.36 23.34 27 23 C27.371 22.257 27.743 21.515 28.125 20.75 C29 18 29 18 28.125 15.688 C27.754 15.131 27.382 14.574 27 14 C24.36 14.33 21.72 14.66 19 15 C19 14.01 19 13.02 19 12 C18.34 11.67 17.68 11.34 17 11 C17 10.01 17 9.02 17 8 C14.69 8.33 12.38 8.66 10 9 C9.67 8.34 9.34 7.68 9 7 C8.34 7.66 7.68 8.32 7 9 C2.884 9.664 -0.828 10 -5 10 C-7.188 10.812 -7.188 10.812 -9 12 C-9.33 12.99 -9.66 13.98 -10 15 C-9.34 15.33 -8.68 15.66 -8 16 C-8.66 16.99 -9.32 17.98 -10 19 C-11.461 16.353 -12 15.106 -12 12 C-14.64 12.99 -17.28 13.98 -20 15 C-20 14.01 -20 13.02 -20 12 C-18.02 11.67 -16.04 11.34 -14 11 C-13.67 10.01 -13.34 9.02 -13 8 C-10.69 8 -8.38 8 -6 8 C-6 7.34 -6 6.68 -6 6 C-2.7 6 0.6 6 4 6 C4 5.34 4 4.68 4 4 C5.32 4 6.64 4 8 4 C8 3.34 8 2.68 8 2 C5.36 2 2.72 2 0 2 C0 1.34 0 0.68 0 0 Z M33 21 C33.66 21 34.32 21 35 21 C35 21.66 35 22.32 35 23 C34.34 23 33.68 23 33 23 C33 22.34 33 21.68 33 21 Z " fill="#A1D320" transform="translate(93,50)"/>
<path d="M0 0 C1.25 3.062 1.25 3.062 2 6 C2.66 6 3.32 6 4 6 C3.972 12.246 2.922 15.964 -1.332 20.59 C-6.098 24.619 -10.725 24.464 -16.781 24.402 C-21.462 23.817 -23.591 22.171 -27 19 C-26.373 11.928 -25.364 7.052 -19.855 2.305 C-14.829 -1.229 -5.698 -3.068 0 0 Z " fill="#F5EFCF" transform="translate(114,102)"/>
<path d="M0 0 C2.008 2.398 2.008 2.398 4.125 5.375 C4.829 6.352 5.533 7.329 6.258 8.336 C8.609 11.932 9.123 14.485 9.062 18.688 C9.053 19.496 9.044 20.304 9.035 21.137 C9.024 21.752 9.012 22.366 9 23 C7 20 7 20 5.957 18.062 C3.911 14.375 2.445 12.28 -1.188 10 C-7.345 8.385 -12.573 7.787 -18.375 10.688 C-23.204 14.941 -25.76 18.173 -26.312 24.688 C-26.277 29.486 -24.376 32.935 -22 37 C-21.67 37.66 -21.34 38.32 -21 39 C-26.75 37.375 -26.75 37.375 -29 34 C-30.945 33.488 -30.945 33.488 -33.125 33.312 C-34.404 33.209 -35.683 33.106 -37 33 C-36.67 32.34 -36.34 31.68 -36 31 C-37.188 29.812 -38.391 28.639 -39.625 27.5 C-41 26 -41 26 -41 24 C-41.33 23.34 -41.66 22.68 -42 22 C-41.01 22 -40.02 22 -39 22 C-39 21.34 -39 20.68 -39 20 C-38.34 20 -37.68 20 -37 20 C-37 19.34 -37 18.68 -37 18 C-37.66 17.67 -38.32 17.34 -39 17 C-38.01 17 -37.02 17 -36 17 C-35.67 16.34 -35.34 15.68 -35 15 C-32.562 12.375 -32.562 12.375 -30 10 C-29.34 10 -28.68 10 -28 10 C-27.711 9.381 -27.422 8.763 -27.125 8.125 C-26 6 -26 6 -24 4 C-23.01 4 -22.02 4 -21 4 C-21 3.34 -21 2.68 -21 2 C-13.676 -2.476 -8.129 -2.71 0 0 Z " fill="#96CC0E" transform="translate(110,84)"/>
<path d="M0 0 C4.774 2.064 7.441 4.899 9.973 9.414 C10.995 12.049 10.794 13.788 9.738 16.387 C9.078 16.057 8.418 15.727 7.738 15.387 C7.113 12.324 7.113 12.324 6.738 9.387 C-2.098 8.995 -7.865 9.065 -15.074 14.512 C-17.619 17.856 -18.188 20.406 -18.805 24.496 C-18.956 25.12 -19.106 25.744 -19.262 26.387 C-19.922 26.717 -20.582 27.047 -21.262 27.387 C-23.942 22.026 -24.834 18.392 -24.262 12.387 C-20.581 1.562 -10.712 -2.905 0 0 Z " fill="#CEC48B" transform="translate(107.26171875,92.61328125)"/>
<path d="M0 0 C0.66 0.33 1.32 0.66 2 1 C1.138 8.25 -0.657 13.803 -6 19 C-6.66 19 -7.32 19 -8 19 C-8 19.66 -8 20.32 -8 21 C-14.419 23.839 -18.863 25.137 -26 25 C-26 25.66 -26 26.32 -26 27 C-26.66 27 -27.32 27 -28 27 C-28 27.66 -28 28.32 -28 29 C-31.875 28.125 -31.875 28.125 -33 27 C-33.701 26.402 -34.403 25.804 -35.125 25.188 C-35.744 24.466 -36.362 23.744 -37 23 C-36.75 20.75 -36.75 20.75 -36 19 C-36.66 18.67 -37.32 18.34 -38 18 C-38.99 18.33 -39.98 18.66 -41 19 C-40.67 17.35 -40.34 15.7 -40 14 C-39.441 14.228 -38.881 14.456 -38.305 14.691 C-30.503 17.488 -21.764 18.25 -13.879 15.172 C-10.946 13.329 -8.862 10.886 -7 8 C-5.667 6 -4.333 4 -3 2 C-2.01 2 -1.02 2 0 2 C0 1.34 0 0.68 0 0 Z " fill="#A2D523" transform="translate(123,109)"/>
<path d="M0 0 C1.448 4.345 -0.505 7.221 -2.312 11.188 C-2.674 11.986 -3.035 12.785 -3.406 13.608 C-13.221 34.725 -30.822 61.336 -53.562 69.938 C-58.098 71.266 -62.3 71.224 -67 71 C-66.835 70.67 -66.835 70.67 -66 69 C-63.629 68.543 -63.629 68.543 -60.562 68.188 C-54.457 67.233 -48.94 65.874 -44 62 C-42.935 60.028 -42.395 58.202 -41.824 56.039 C-40.476 52.705 -37.822 51.006 -35.066 48.809 C-32.276 46.366 -30.302 43.558 -28.227 40.504 C-27.822 40.008 -27.417 39.511 -27 39 C-26.34 39 -25.68 39 -25 39 C-24.67 38.01 -24.34 37.02 -24 36 C-23.34 36 -22.68 36 -22 36 C-21.773 35.134 -21.546 34.267 -21.312 33.375 C-20.062 30.16 -18.65 28.321 -16.375 25.789 C-13.639 22.229 -11.884 18.056 -10 14 C-9.34 14 -8.68 14 -8 14 C-8.33 15.65 -8.66 17.3 -9 19 C-7.872 16.772 -6.748 14.543 -5.625 12.312 C-5.466 12 -5.466 12 -4.664 10.416 C-2.945 6.996 -1.355 3.58 0 0 Z " fill="#669604" transform="translate(156,148)"/>
<path d="M0 0 C0.66 0 1.32 0 2 0 C3.048 1.146 4.038 2.344 5 3.562 C9.928 9.32 15.836 14.945 23.625 15.938 C24.739 15.958 25.852 15.979 27 16 C26.192 15.674 25.384 15.348 24.551 15.012 C24.016 14.793 24.016 14.793 21.312 13.688 C20.257 13.258 19.201 12.829 18.113 12.387 C15.246 11.11 12.649 9.676 10 8 C11.613 7.297 11.613 7.297 14 7 C16.104 8 18.16 9.102 20.188 10.25 C30.64 15.72 42.43 16.076 54 17 C53.427 19.867 53.139 20.861 51 23 C36.139 24.646 21.783 20.887 9.996 11.645 C7.585 9.494 5.268 7.3 3 5 C2.416 4.459 1.832 3.917 1.23 3.359 C0 2 0 2 0 0 Z " fill="#658E0B" transform="translate(48,143)"/>
<path d="M0 0 C8.178 2.697 13.162 9.978 17.028 17.364 C21.561 26.451 23.417 33.218 22.25 43.25 C22.199 43.719 22.199 43.719 21.94 46.095 C21.645 48.732 21.327 51.366 21 54 C20.876 55.062 20.752 56.124 20.625 57.219 C19.766 63.02 17.959 68.469 16.062 74 C15.81 74.743 15.557 75.487 15.296 76.253 C13.982 79.918 12.768 82.325 10 85 C9.27 87.043 9.27 87.043 8.812 89.188 C8.544 90.446 8.276 91.704 8 93 C6.247 90.319 5.987 89.131 6.312 85.875 C7 83 7 83 8 81 C8.99 81 9.98 81 11 81 C10.67 80.01 10.34 79.02 10 78 C10.926 75.871 10.926 75.871 12.312 73.438 C14.99 68.388 16.197 63.63 17 58 C16.34 58 15.68 58 15 58 C15 57.34 15 56.68 15 56 C15.66 56 16.32 56 17 56 C17.144 55.402 17.289 54.804 17.438 54.188 C17.887 52.438 18.429 50.713 19 49 C19.188 45.438 19.188 45.438 19 42 C18.34 41.34 17.68 40.68 17 40 C15.933 36.8 15.9 35.293 17 32.062 C18.452 27.615 17.624 24.424 15.766 20.184 C12.937 15.058 10.322 10.941 6 7 C6 6.34 6 5.68 6 5 C5.381 4.732 4.762 4.464 4.125 4.188 C2 3 2 3 0 0 Z " fill="#8AC107" transform="translate(140,63)"/>
<path d="M0 0 C3.042 -0.027 6.083 -0.047 9.125 -0.062 C9.981 -0.071 10.837 -0.079 11.719 -0.088 C16.267 -0.105 20.524 0.068 25 1 C24.34 1.66 23.68 2.32 23 3 C23.825 3.165 23.825 3.165 28 4 C28 4.99 28 5.98 28 7 C27.237 6.979 26.474 6.959 25.688 6.938 C23 7 23 7 20 8 C19.67 8.99 19.34 9.98 19 11 C18.34 11 17.68 11 17 11 C17 10.01 17 9.02 17 8 C14.69 8.33 12.38 8.66 10 9 C9.67 8.34 9.34 7.68 9 7 C8.34 7.66 7.68 8.32 7 9 C2.884 9.664 -0.828 10 -5 10 C-7.188 10.812 -7.188 10.812 -9 12 C-9.33 12.99 -9.66 13.98 -10 15 C-9.34 15.33 -8.68 15.66 -8 16 C-8.66 16.99 -9.32 17.98 -10 19 C-11.461 16.353 -12 15.106 -12 12 C-14.64 12.99 -17.28 13.98 -20 15 C-20 14.01 -20 13.02 -20 12 C-18.02 11.67 -16.04 11.34 -14 11 C-13.67 10.01 -13.34 9.02 -13 8 C-10.69 8 -8.38 8 -6 8 C-6 7.34 -6 6.68 -6 6 C-2.7 6 0.6 6 4 6 C4 5.34 4 4.68 4 4 C5.32 4 6.64 4 8 4 C8 3.34 8 2.68 8 2 C5.36 2 2.72 2 0 2 C0 1.34 0 0.68 0 0 Z " fill="#A7D627" transform="translate(93,50)"/>
<path d="M0 0 C1.98 0 3.96 0 6 0 C6.124 0.392 6.124 0.392 6.75 2.375 C8.239 5.501 8.81 5.842 12 7 C22.918 8.105 32.217 6.919 41 0 C41.66 0.33 42.32 0.66 43 1 C42.051 4.418 41.168 5.864 38.375 8.125 C32.348 11.473 26.97 13.268 20.078 13.789 C18 14 18 14 15.977 14.617 C12.154 15.357 9.089 13.083 6 11 C3.672 8.878 1.583 6.734 0 4 C0 2.68 0 1.36 0 0 Z " fill="#6C9F03" transform="translate(72,204)"/>
<path d="M0 0 C2.832 2.832 2.287 4.957 2.329 8.831 C2.323 9.753 2.318 10.675 2.312 11.625 C2.311 12.096 2.311 12.096 2.302 14.481 C2.124 26.11 0.094 37.083 -4 48 C-4.66 48 -5.32 48 -6 48 C-6.371 49.238 -6.743 50.475 -7.125 51.75 C-9.127 57.765 -11.808 63.523 -15 69 C-15.33 69.165 -15.33 69.165 -17 70 C-15.125 64.25 -15.125 64.25 -14 62 C-14.66 62 -15.32 62 -16 62 C-16.33 62.66 -16.66 63.32 -17 64 C-17 62.68 -17 61.36 -17 60 C-16.34 60 -15.68 60 -15 60 C-5.246 40.885 -5.246 40.885 -5.168 32.211 C-5 30 -5 30 -4.09 27.5 C-2.472 22.303 -1.998 17.02 -1.375 11.625 C-1.308 11.066 -1.308 11.066 -0.969 8.238 C-0.64 5.493 -0.317 2.747 0 0 Z " fill="#6DA005" transform="translate(162,100)"/>
<path d="M0 0 C3.5 1.312 3.5 1.312 6 3 C6.33 3.99 6.66 4.98 7 6 C6.67 6.66 6.34 7.32 6 8 C6.619 8.248 7.237 8.495 7.875 8.75 C10.375 10.22 10.833 11.414 12 14 C11.457 13.651 10.915 13.301 10.355 12.941 C9.64 12.486 8.925 12.031 8.188 11.562 C7.48 11.11 6.772 10.658 6.043 10.191 C1.275 7.411 -3.631 7.397 -9 8 C-13.387 10.193 -16.527 12.76 -19 17 C-19.914 20.973 -20.51 24.954 -21 29 C-24.302 25.698 -23.891 21.506 -24 17 C-23.688 12.556 -22.703 10.669 -19.484 7.605 C-12.671 1.943 -8.896 -0.851 0 0 Z " fill="#528402" transform="translate(104,85)"/>
<path d="M0 0 C3.871 6.048 1.779 13.359 0.375 19.938 C0.201 20.76 0.027 21.583 -0.152 22.43 C-2.276 31.944 -5.45 41.355 -10 50 C-10.66 50 -11.32 50 -12 50 C-12 50.66 -12 51.32 -12 52 C-13.643 53.69 -15.315 55.352 -17 57 C-18.712 58.966 -20.354 60.977 -22 63 C-22.66 62.01 -23.32 61.02 -24 60 C-23.588 59.392 -23.175 58.783 -22.75 58.156 C-11.321 40.809 -1.869 20.907 0 0 Z " fill="#C3B777" transform="translate(163,123)"/>
<path d="M0 0 C0.969 0.846 1.939 1.691 2.938 2.562 C4.289 3.711 5.644 4.857 7 6 C7.687 6.588 8.374 7.176 9.082 7.781 C21.142 17.69 33.849 19.726 49 21 C47.478 23.629 46.156 25.844 44 28 C43.01 28 42.02 28 41 28 C41 27.34 41 26.68 41 26 C40.051 26.041 39.102 26.083 38.125 26.125 C35 26 35 26 33 24 C31.117 23.762 31.117 23.762 28.875 23.688 C24.368 23.284 21.723 21.882 18.051 19.336 C15.182 17.467 12.134 16.206 8.98 14.895 C7 14 7 14 4 12 C3.27 9.836 3.27 9.836 2.812 7.375 C2.654 6.558 2.495 5.74 2.332 4.898 C2.277 4.585 2.277 4.585 2 3 C1.34 3 0.68 3 0 3 C0 2.01 0 1.02 0 0 Z " fill="#DED6A4" transform="translate(48,145)"/>
<path d="M0 0 C0.825 0.165 0.825 0.165 5 1 C5 1.66 5 2.32 5 3 C4.01 3.66 3.02 4.32 2 5 C2.66 6.65 3.32 8.3 4 10 C2.68 10.99 1.36 11.98 0 13 C-0.66 12.34 -1.32 11.68 -2 11 C-4.31 12.98 -6.62 14.96 -9 17 C-8.01 16.67 -7.02 16.34 -6 16 C-6.33 16.99 -6.66 17.98 -7 19 C-7.99 19.33 -8.98 19.66 -10 20 C-9.34 20.66 -8.68 21.32 -8 22 C-8.619 22.041 -9.237 22.082 -9.875 22.125 C-10.576 22.414 -11.278 22.703 -12 23 C-12.709 24.985 -13.367 26.989 -14 29 C-16.1 32.748 -17.943 35.46 -21.812 37.438 C-22.534 37.623 -23.256 37.809 -24 38 C-24.703 35.785 -24.703 35.785 -25 33 C-23.672 30.684 -23.672 30.684 -21.75 28.438 C-21.438 28.066 -21.438 28.066 -19.859 26.184 C-19.246 25.463 -18.632 24.742 -18 24 C-15.041 20.401 -15.041 20.401 -14.688 16.938 C-14 14 -14 14 -11.062 12.062 C-10.052 11.712 -9.041 11.361 -8 11 C-7.34 11.33 -6.68 11.66 -6 12 C-6.041 11.237 -6.082 10.474 -6.125 9.688 C-6 7 -6 7 -4 4 C-3.34 4 -2.68 4 -2 4 C-2 3.34 -2 2.68 -2 2 C-1.34 2 -0.68 2 0 2 C0 1.34 0 0.68 0 0 Z " fill="#A3D322" transform="translate(69,64)"/>
<path d="M0 0 C0.66 0 1.32 0 2 0 C1.483 4.126 0.378 6.096 -2.5 9.062 C-5.096 11.749 -6.175 13.393 -7 17 C-8.633 18.375 -10.302 19.706 -12 21 C-12.495 21.681 -12.99 22.361 -13.5 23.062 C-15.371 25.479 -17.329 26.537 -20 28 C-20.804 28.495 -21.609 28.99 -22.438 29.5 C-25.232 31.136 -28.105 32.552 -31 34 C-31.99 34.66 -32.98 35.32 -34 36 C-36.043 36.195 -36.043 36.195 -38.188 36.125 C-39.446 36.084 -40.704 36.042 -42 36 C-42 35.67 -42 35.34 -42 35 C-43.98 34.67 -45.96 34.34 -48 34 C-48 33.67 -48 33.34 -48 33 C-47.178 32.914 -46.355 32.827 -45.508 32.738 C-31.251 30.944 -23.389 25.183 -13.424 15.398 C-12.227 14.222 -11.012 13.064 -9.793 11.91 C-6.906 9.137 -4.466 6.359 -2.188 3.062 C-1.466 2.052 -0.744 1.041 0 0 Z " fill="#C1B576" transform="translate(137,186)"/>
<path d="M0 0 C-2.214 2.214 -3.216 2.482 -6.184 3.227 C-19.232 6.688 -29.203 10.446 -37.781 21.457 C-39 23 -39 23 -40.469 24.324 C-46.508 30.933 -49.049 41.458 -51 50 C-51.66 50 -52.32 50 -53 50 C-54.29 39.038 -47.612 28.378 -41 20 C-30.922 7.877 -15.962 -0.883 0 0 Z " fill="#A7D927" transform="translate(92,51)"/>
<path d="M0 0 C0.33 1.32 0.66 2.64 1 4 C1.66 4 2.32 4 3 4 C3 5.65 3 7.3 3 9 C3.66 9.33 4.32 9.66 5 10 C4.01 10 3.02 10 2 10 C1.67 10.66 1.34 11.32 1 12 C2.32 12.33 3.64 12.66 5 13 C4.34 13.33 4.34 13.33 1 15 C1.66 15.33 2.32 15.66 3 16 C3 16.66 3 17.32 3 18 C2.34 18.33 1.68 18.66 1 19 C1.66 19.66 2.32 20.32 3 21 C2 22 2 22 -0.562 22.062 C-1.367 22.042 -2.171 22.021 -3 22 C-3.33 22.99 -3.66 23.98 -4 25 C-5.328 25.354 -6.662 25.685 -8 26 C-9.75 27.438 -9.75 27.438 -11 29 C-11 29.66 -11 30.32 -11 31 C-11.66 31 -12.32 31 -13 31 C-13 31.66 -13 32.32 -13 33 C-13.66 33 -14.32 33 -15 33 C-15 34.65 -15 36.3 -15 38 C-16.32 37.67 -17.64 37.34 -19 37 C-19.33 37.99 -19.66 38.98 -20 40 C-21 38 -21 38 -20.375 36.062 C-20.251 35.382 -20.127 34.701 -20 34 C-21.438 32.25 -21.438 32.25 -23 31 C-20.777 28.444 -19.266 27.715 -16 27 C-15.01 26.34 -14.02 25.68 -13 25 C-11.68 25 -10.36 25 -9 25 C-9 24.34 -9 23.68 -9 23 C-8.237 22.278 -7.474 21.556 -6.688 20.812 C-2.294 16.214 -0.76 11.229 0 5 C-0.33 5.165 -0.33 5.165 -2 6 C-1.125 1.125 -1.125 1.125 0 0 Z " fill="#A5D524" transform="translate(124,105)"/>
<path d="M0 0 C0.623 0.005 0.623 0.005 3.773 0.027 C4.244 0.033 4.244 0.033 6.625 0.062 C6.625 0.392 6.625 0.722 6.625 1.062 C2.335 1.062 -1.955 1.062 -6.375 1.062 C-6.375 1.722 -6.375 2.383 -6.375 3.062 C-3.735 3.062 -1.095 3.062 1.625 3.062 C1.625 3.722 1.625 4.383 1.625 5.062 C0.305 5.062 -1.015 5.062 -2.375 5.062 C-2.375 5.722 -2.375 6.383 -2.375 7.062 C-4.685 7.062 -6.995 7.062 -9.375 7.062 C-9.705 7.722 -10.035 8.383 -10.375 9.062 C-10.375 8.403 -10.375 7.742 -10.375 7.062 C-19.749 9.018 -27.869 10.772 -35.375 17.062 C-36.081 17.634 -36.788 18.205 -37.516 18.793 C-41.612 22.229 -45.088 25.851 -48.375 30.062 C-49.188 28.375 -49.188 28.375 -49.375 26.062 C-47.776 24.143 -46.249 22.689 -44.375 21.062 C-43.707 20.428 -43.04 19.794 -42.352 19.141 C-32.422 9.873 -22.243 6.534 -9.375 3.062 C-10.695 2.403 -12.015 1.742 -13.375 1.062 C-8.857 0.18 -4.6 -0.043 0 0 Z " fill="#C5E65E" transform="translate(99.375,48.9375)"/>
<path d="M0 0 C0 0.66 0 1.32 0 2 C0.66 2 1.32 2 2 2 C2 2.66 2 3.32 2 4 C2.66 4 3.32 4 4 4 C4.33 4.66 4.66 5.32 5 6 C5.763 5.67 6.526 5.34 7.312 5 C10 4 10 4 13 4 C12.67 3.01 12.34 2.02 12 1 C12.99 1 13.98 1 15 1 C15.625 2.812 15.625 2.812 16 5 C15.67 5.495 15.67 5.495 14 8 C14.843 8.133 15.686 8.266 16.555 8.402 C17.65 8.579 18.746 8.756 19.875 8.938 C20.966 9.112 22.056 9.286 23.18 9.465 C26 10 26 10 28 11 C27.67 11.99 27.34 12.98 27 14 C26.835 13.67 26.835 13.67 26 12 C24.845 12.041 23.69 12.083 22.5 12.125 C17.894 12.103 13.33 11.776 8.75 11.312 C8.407 11.286 8.407 11.286 6.674 11.151 C1.533 10.573 -0.713 8.896 -4 5 C-4.598 4.443 -5.196 3.886 -5.812 3.312 C-7 2 -7 2 -7 0 C-3.867 -1.044 -3.01 -0.934 0 0 Z " fill="#90C70B" transform="translate(76,148)"/>
<path d="M0 0 C3.634 1.744 5.342 2.775 7.633 6.211 C4.633 6.211 4.633 6.211 1.633 4.211 C-5.127 3.521 -12.184 5.008 -17.805 8.898 C-19.658 11.641 -20.664 14.358 -21.656 17.504 C-22.367 19.211 -22.367 19.211 -24.367 20.211 C-24.657 14.614 -24.6 11.008 -21.367 6.211 C-14.993 -0.089 -9.045 -3.015 0 0 Z " fill="#ADA862" transform="translate(107.3671875,92.7890625)"/>
<path d="M0 0 C2.008 2.398 2.008 2.398 4.125 5.375 C4.829 6.352 5.533 7.329 6.258 8.336 C8.609 11.932 9.123 14.485 9.062 18.688 C9.053 19.496 9.044 20.304 9.035 21.137 C9.024 21.752 9.012 22.366 9 23 C7.205 20.308 6.166 17.987 5 15 C3.598 11.729 3.117 11.078 0 9 C-0.124 8.175 -0.248 7.35 -0.375 6.5 C-1 4 -1 4 -3 2.688 C-8.458 1.437 -13.062 0.992 -18.125 3.625 C-19.074 4.409 -20.023 5.192 -21 6 C-21.623 6.459 -22.245 6.918 -22.887 7.391 C-26.206 9.949 -27.787 11.235 -28.938 15.375 C-28.958 16.241 -28.979 17.108 -29 18 C-31 16 -31 16 -31.125 13.375 C-31.084 12.591 -31.043 11.808 -31 11 C-30.01 10.67 -29.02 10.34 -28 10 C-26.938 8.062 -26.938 8.062 -26 6 C-25.34 5.34 -24.68 4.68 -24 4 C-23.01 4 -22.02 4 -21 4 C-21 3.34 -21 2.68 -21 2 C-13.676 -2.476 -8.129 -2.71 0 0 Z " fill="#76AD03" transform="translate(110,84)"/>
<path d="M0 0 C0.66 0.33 1.32 0.66 2 1 C1.138 8.25 -0.657 13.803 -6 19 C-6.66 19 -7.32 19 -8 19 C-8 19.66 -8 20.32 -8 21 C-18.111 25.472 -18.111 25.472 -24 24 C-24 23.34 -24 22.68 -24 22 C-24.99 21.67 -25.98 21.34 -27 21 C-27 20.67 -27 20.34 -27 20 C-25.987 19.841 -24.974 19.683 -23.93 19.52 C-10.137 17.198 -10.137 17.198 -6 12 C-3.805 8.081 -1.842 4.095 0 0 Z " fill="#B0DC33" transform="translate(123,109)"/>
<path d="M0 0 C0 0.99 0 1.98 0 3 C-1.333 4.333 -2.667 5.667 -4 7 C-4.454 7.969 -4.907 8.939 -5.375 9.938 C-7.4 13.754 -9.618 15.354 -13 18 C-13.33 18.66 -13.66 19.32 -14 20 C-17.493 22.435 -21.103 23.821 -25.074 25.242 C-27.563 26.222 -29.74 27.579 -32 29 C-38.197 31.066 -45.518 30.822 -51.688 28.688 C-55 27 -55 27 -56 24 C-55.01 23.67 -54.02 23.34 -53 23 C-52.34 23.66 -51.68 24.32 -51 25 C-46.073 28.285 -40.753 27.642 -35 27 C-29.214 25.12 -24.182 22.132 -19 19 C-18.093 18.505 -17.185 18.01 -16.25 17.5 C-12.06 14.721 -9.214 10.572 -6.148 6.656 C-4.218 4.269 -2.213 2.123 0 0 Z " fill="#D7C996" transform="translate(139,195)"/>
<path d="M0 0 C0.711 1.754 0.711 1.754 1 4 C-0.398 5.965 -0.398 5.965 -2.375 7.938 C-5.335 10.903 -6.49 12.808 -7 17 C-7.66 17 -8.32 17 -9 17 C-9 17.66 -9 18.32 -9 19 C-9.743 19.248 -10.485 19.495 -11.25 19.75 C-14 21 -14 21 -16 23 C-18 25 -18 25 -20.625 26 C-23 27 -23 27 -24.312 29.125 C-24.539 29.744 -24.766 30.363 -25 31 C-25.66 31 -26.32 31 -27 31 C-26.347 27.473 -25.107 24.906 -23 22 C-22.093 21.402 -21.185 20.804 -20.25 20.188 C-16.707 17.802 -14.453 15.198 -11.73 11.953 C-10.179 10.202 -8.638 8.766 -6.812 7.312 C-4.098 5.08 -2.089 2.812 0 0 Z " fill="#B9E047" transform="translate(104,163)"/>
<path d="M0 0 C1.32 0.33 2.64 0.66 4 1 C4 2.65 4 4.3 4 6 C4.33 5.67 4.66 5.34 5 5 C10.631 10.631 9.982 21.544 10.006 28.977 C9.977 32.215 9.926 35.45 9.84 38.688 C9.998 41.968 10.73 44.019 12 47 C11.312 49.812 11.312 49.812 10 53 C9.455 54.457 8.913 55.915 8.375 57.375 C8.148 57.973 8.148 57.973 7 61 C5.916 57.747 6.064 56.062 6.43 52.691 C7.079 45.762 7.148 38.893 7.125 31.938 C7.129 30.729 7.133 29.521 7.137 28.275 C7.136 27.698 7.136 27.698 7.133 24.777 C7.132 24.258 7.132 24.258 7.129 21.629 C7 19 7 19 6 16 C5.96 13.667 5.956 11.333 6 9 C5.34 9 4.68 9 4 9 C3.67 9.66 3.34 10.32 3 11 C2.505 9.185 2.505 9.185 0 0 Z " fill="#EBDFB8" transform="translate(160,88)"/>
<path d="M0 0 C0.99 0 1.98 0 3 0 C3 0.99 3 1.98 3 3 C2.34 3 1.68 3 1 3 C1 3.66 1 4.32 1 5 C0.34 5 -0.32 5 -1 5 C-2.089 7.033 -2.954 8.708 -3.312 11 C-4.936 15.722 -11.028 18.352 -15 21 C-15.66 21 -16.32 21 -17 21 C-17 21.66 -17 22.32 -17 23 C-18.875 25.125 -18.875 25.125 -21 27 C-21.66 27 -22.32 27 -23 27 C-23 27.66 -23 28.32 -23 29 C-23.99 29 -24.98 29 -26 29 C-26 29.66 -26 30.32 -26 31 C-26.66 31 -27.32 31 -28 31 C-28.293 24.945 -28.293 24.945 -28 23 C-27.01 22.34 -26.02 21.68 -25 21 C-25.66 22.98 -26.32 24.96 -27 27 C-26.34 27 -25.68 27 -25 27 C-24.887 26.598 -24.887 26.598 -24.312 24.562 C-23.879 23.717 -23.446 22.871 -23 22 C-20.375 21.188 -20.375 21.188 -18 21 C-17.67 20.01 -17.34 19.02 -17 18 C-14.028 15.233 -13.258 15 -9 15 C-9 14.34 -9 13.68 -9 13 C-8.34 13 -7.68 13 -7 13 C-7.33 12.01 -7.66 11.02 -8 10 C-6.855 8.027 -6.855 8.027 -5.188 5.938 C-4.645 5.245 -4.102 4.553 -3.543 3.84 C-2 2 -2 2 0 0 Z " fill="#A6D629" transform="translate(104,167)"/>
<path d="M0 0 C0 0.66 0 1.32 0 2 C-1.134 2.124 -2.269 2.248 -3.438 2.375 C-4.613 2.581 -5.789 2.788 -7 3 C-7.33 3.66 -7.66 4.32 -8 5 C-11.062 5.625 -11.062 5.625 -14 6 C-14.33 6.99 -14.66 7.98 -15 9 C-15.99 8.67 -16.98 8.34 -18 8 C-18 8.66 -18 9.32 -18 10 C-18.66 10 -19.32 10 -20 10 C-20 10.66 -20 11.32 -20 12 C-21.32 12 -22.64 12 -24 12 C-24.66 13.32 -25.32 14.64 -26 16 C-26.66 16 -27.32 16 -28 16 C-28.227 16.578 -28.454 17.155 -28.688 17.75 C-30.329 20.564 -32.436 22.027 -35 24 C-35.33 24.66 -35.66 25.32 -36 26 C-36.66 26 -37.32 26 -38 26 C-38.33 27.32 -38.66 28.64 -39 30 C-39.66 30 -40.32 30 -41 30 C-40.01 27.03 -39.02 24.06 -38 21 C-37.01 21 -36.02 21 -35 21 C-33.465 19.469 -33.465 19.469 -31.938 17.5 C-30.402 15.531 -30.402 15.531 -29 14 C-28.34 14 -27.68 14 -27 14 C-26.67 13.01 -26.34 12.02 -26 11 C-19.095 4.641 -9.505 0 0 0 Z " fill="#B8DE3F" transform="translate(87,56)"/>
<path d="M0 0 C3.851 6.018 1.774 13.384 0.375 19.938 C0.201 20.76 0.027 21.583 -0.152 22.43 C-2.276 31.944 -5.45 41.355 -10 50 C-10.66 50 -11.32 50 -12 50 C-12.33 50.66 -12.66 51.32 -13 52 C-13 50.68 -13 49.36 -13 48 C-12.34 48 -11.68 48 -11 48 C-10.807 47.276 -10.613 46.551 -10.414 45.805 C-9.071 40.82 -7.713 35.874 -6 31 C-5.34 31 -4.68 31 -4 31 C-3.871 26.363 -3.871 26.363 -4.621 24.25 C-5.181 20.923 -4.136 18.445 -3.125 15.25 C-1.568 10.106 -0.428 5.349 0 0 Z " fill="#D0C28A" transform="translate(163,123)"/>
<path d="M0 0 C0.99 0.165 0.99 0.165 6 1 C5.67 1.99 5.34 2.98 5 4 C6.65 3.67 8.3 3.34 10 3 C10 3.99 10 4.98 10 6 C10.66 6.66 11.32 7.32 12 8 C11.67 8.66 11.34 9.32 11 10 C11.604 11.588 12.283 13.147 13 14.688 C14.92 19.302 15.28 22.062 14 27 C13.826 27.728 13.652 28.457 13.473 29.207 C13.008 31.144 12.507 33.073 12 35 C11.67 35 11.34 35 11 35 C11.058 33.877 11.116 32.754 11.176 31.598 C11.742 15.891 11.742 15.891 6 9 C5.45 8.471 4.899 7.943 4.332 7.398 C3 6 3 6 3 4 C1.68 3.67 0.36 3.34 -1 3 C-0.67 2.01 -0.34 1.02 0 0 Z " fill="#86BD08" transform="translate(107,80)"/>
<path d="M0 0 C0.519 0.102 0.519 0.102 3.148 0.621 C10.748 2.097 18.264 3.461 26 4 C24.478 6.629 23.156 8.844 21 11 C20.01 11 19.02 11 18 11 C18 10.34 18 9.68 18 9 C17.567 9.041 17.567 9.041 15.375 9.25 C11.188 8.94 9.39 7.402 6 5 C2.625 3.75 2.625 3.75 0 3 C0 2.01 0 1.02 0 0 Z " fill="#C6BE7F" transform="translate(71,162)"/>
<path d="M0 0 C1.155 0.66 1.155 0.66 7 4 C7 5.32 7 6.64 7 8 C14.569 10.329 23.386 11.82 30.938 8.688 C32.909 7.601 34.851 6.458 36.75 5.25 C37.121 5.044 37.121 5.044 39 4 C39.99 4.33 40.98 4.66 42 5 C40.076 6.219 38.147 7.428 36.207 8.621 C34.871 9.456 33.55 10.316 32.262 11.223 C27.37 14.48 22.683 14.819 17 14 C15.655 13.357 14.321 12.691 13 12 C11.804 11.835 10.608 11.67 9.375 11.5 C6 11 6 11 4 9 C4 7.68 4 6.36 4 5 C3.34 5 2.68 5 2 5 C1.34 3.35 0.68 1.7 0 0 Z " fill="#E1D5A8" transform="translate(77,214)"/>
<path d="M0 0 C0.33 0 0.66 0 1 0 C3.04 16.867 2.54 33.105 -2.375 49.438 C-2.572 50.1 -2.769 50.763 -2.971 51.446 C-4.394 55.903 -6.282 59.258 -9 63 C-9.33 62.34 -9.66 61.68 -10 61 C-9.335 59.424 -8.661 57.852 -7.957 56.293 C-5.885 51.33 -4.438 46.176 -3 41 C-2.696 39.924 -2.392 38.847 -2.078 37.738 C0.924 25.321 0.281 12.691 0 0 Z " fill="#D8CC98" transform="translate(164,108)"/>
<path d="M0 0 C0 2 0 2 -1.75 4.125 C-4 6 -4 6 -8 6 C-8 5.34 -8 4.68 -8 4 C-7.34 4 -6.68 4 -6 4 C-6 3.34 -6 2.68 -6 2 C-2.25 0 -2.25 0 0 0 Z M-10 6 C-9.34 6.33 -8.68 6.66 -8 7 C-15.782 16.958 -15.782 16.958 -22 18 C-27.016 18.223 -31.984 18.174 -37 18 C-37.33 17.34 -37.66 16.68 -38 16 C-35.03 15.34 -32.06 14.68 -29 14 C-29 14.66 -29 15.32 -29 16 C-27.538 15.576 -26.08 15.135 -24.625 14.688 C-24.219 14.566 -24.219 14.566 -22.164 13.949 C-20 13 -20 13 -18 10 C-15.082 8.579 -13.268 8 -10 8 C-10 7.34 -10 6.68 -10 6 Z " fill="#80B703" transform="translate(121,194)"/>
<path d="M0 0 C0.66 0.33 1.32 0.66 2 1 C0.994 4.622 0.364 5.783 -2.938 7.75 C-7.764 11.296 -8.514 15.844 -9.398 21.586 C-9.647 23.719 -9.83 25.859 -10 28 C-13.302 24.698 -12.891 20.506 -13 16 C-12.685 11.509 -11.687 9.646 -8.414 6.57 C-5.662 4.299 -2.872 2.118 0 0 Z " fill="#5A8F01" transform="translate(93,86)"/>
<path d="M0 0 C0 3.708 -1.241 4.627 -3.759 7.176 C-4.292 7.695 -4.825 8.215 -5.375 8.75 C-5.919 9.284 -6.464 9.818 -7.025 10.369 C-15.391 18.421 -24.036 25.112 -36.062 25.188 C-37.362 25.126 -38.661 25.064 -40 25 C-39.67 24.34 -39.34 23.68 -39 23 C-36.629 22.543 -36.629 22.543 -33.562 22.188 C-27.467 21.235 -21.922 19.885 -17 16 C-15.579 13.394 -14.89 10.857 -14 8 C-11.312 6.5 -11.312 6.5 -9 6 C-9.33 6.495 -9.33 6.495 -11 9 C-7.785 7.592 -5.678 5.897 -3.25 3.375 C-2.636 2.743 -2.023 2.112 -1.391 1.461 C-0.932 0.979 -0.473 0.497 0 0 Z " fill="#537208" transform="translate(129,194)"/>
<path d="M0 0 C0 0.66 0 1.32 0 2 C-0.866 2.124 -1.733 2.248 -2.625 2.375 C-9.053 3.565 -12.747 4.935 -16.887 10.059 C-18.573 12.999 -18.191 15.69 -18 19 C-19.5 20.938 -19.5 20.938 -21 22 C-22.81 18.952 -23.261 17.169 -22.562 13.688 C-21.206 8.384 -18.342 5.218 -14 2 C-9.304 -0.298 -5.123 -0.177 0 0 Z " fill="#E6DEB2" transform="translate(110,101)"/>
<path d="M0 0 C0.33 0 0.66 0 1 0 C1.061 0.355 1.061 0.355 1.367 2.152 C1.535 3.071 1.702 3.991 1.875 4.938 C1.956 5.396 1.956 5.396 2.367 7.715 C2.576 8.469 2.785 9.223 3 10 C3.66 10.33 4.32 10.66 5 11 C6.035 12.777 6.035 12.777 7.062 14.938 C7.404 15.648 7.746 16.358 8.098 17.09 C8.395 17.72 8.693 18.351 9 19 C9.33 19.66 9.66 20.32 10 21 C4.25 19.375 4.25 19.375 2 16 C0.055 15.488 0.055 15.488 -2.125 15.312 C-3.404 15.209 -4.683 15.106 -6 15 C-5.01 14.01 -4.02 13.02 -3 12 C-3.33 11.34 -3.66 10.68 -4 10 C-3.34 10 -2.68 10 -2 10 C-2.021 9.361 -2.021 9.361 -2.125 6.125 C-2.195 3.945 -2.195 3.945 -2 2 C-1.34 1.34 -0.68 0.68 0 0 Z " fill="#92C90B" transform="translate(79,102)"/>
<path d="M0 0 C8.178 2.697 13.162 9.978 17.028 17.364 C20.684 24.691 23.558 31.133 22.625 39.438 C22.514 40.488 22.403 41.539 22.289 42.621 C22.194 43.406 22.098 44.191 22 45 C21.67 45 21.34 45 21 45 C20.948 43.958 20.897 42.917 20.844 41.844 C20.259 33.624 18.943 26.644 15.188 19.25 C14.856 18.596 14.525 17.942 14.184 17.268 C11.97 13.176 9.358 10.258 6 7 C6 6.34 6 5.68 6 5 C5.381 4.732 4.762 4.464 4.125 4.188 C2 3 2 3 0 0 Z " fill="#85B11E" transform="translate(140,63)"/>
<path d="M0 0 C0.66 0 1.32 0 2 0 C3.358 5.614 4.285 10.973 4.656 16.738 C5.026 19.171 5.879 20.831 7 23 C6.75 25.188 6.75 25.188 6 27 C5.34 27.33 4.68 27.66 4 28 C-1.064 19.002 -0.391 9.98 0 0 Z " fill="#8EBF0E" transform="translate(38,103)"/>
<path d="M0 0 C0.681 0.639 1.361 1.279 2.062 1.938 C5.464 4.326 7.904 4.679 12 5 C11.34 4.34 10.68 3.68 10 3 C12.459 2.919 14.915 2.86 17.375 2.812 C18.074 2.787 18.772 2.762 19.492 2.736 C21.523 2.707 21.523 2.707 25 3 C25.33 3.495 25.33 3.495 27 6 C26.59 6.066 26.59 6.066 24.516 6.402 C23.977 6.491 23.977 6.491 21.25 6.938 C20.716 7.025 20.716 7.025 18.016 7.465 C15 8 15 8 12.863 8.676 C10.353 9.113 9.165 8.435 6.938 7.25 C6.266 6.905 5.594 6.559 4.902 6.203 C2.952 4.97 1.488 3.762 0 2 C0 1.34 0 0.68 0 0 Z " fill="#638A0B" transform="translate(75,210)"/>
<path d="M0 0 C-0.66 0.454 -1.32 0.907 -2 1.375 C-2.66 1.911 -3.32 2.448 -4 3 C-4 3.66 -4 4.32 -4 5 C-4.33 5.165 -4.33 5.165 -6 6 C-6 6.66 -6 7.32 -6 8 C-5.34 8.33 -4.68 8.66 -4 9 C-3.375 11.562 -3.375 11.562 -3 14 C-4.98 14.33 -6.96 14.66 -9 15 C-9.917 9.615 -10.111 4.458 -10 -1 C-6.063 -2.312 -3.875 -1.243 0 0 Z " fill="#A5D427" transform="translate(51,104)"/>
<path d="M0 0 C0.66 0 1.32 0 2 0 C1.34 1.65 0.68 3.3 0 5 C0.66 5.33 1.32 5.66 2 6 C1.34 6 0.68 6 0 6 C0 6.66 0 7.32 0 8 C-0.763 8.144 -1.526 8.289 -2.312 8.438 C-5 9 -5 9 -8 10 C-7.959 10.434 -7.959 10.434 -7.75 12.633 C-8.063 16.843 -9.425 18.576 -12 21.875 C-12.742 22.842 -13.485 23.809 -14.25 24.805 C-14.828 25.529 -15.405 26.254 -16 27 C-17.044 23.867 -16.934 23.01 -16 20 C-15.01 20 -14.02 20 -13 20 C-11.875 16.25 -11.875 16.25 -13 14 C-9.791 9.916 -6.493 6.564 -2.453 3.297 C-1 2 -1 2 0 0 Z " fill="#ADD932" transform="translate(63,68)"/>
<path d="M0 0 C1.675 0.286 3.344 0.618 5 1 C4.67 2.32 4.34 3.64 4 5 C3.34 5 2.68 5 2 5 C2 5.66 2 6.32 2 7 C1.34 7 0.68 7 0 7 C0 8.65 0 10.3 0 12 C-1.32 11.67 -2.64 11.34 -4 11 C-4.33 11.99 -4.66 12.98 -5 14 C-6 12 -6 12 -5.375 10.062 C-5.251 9.382 -5.127 8.701 -5 8 C-6.438 6.25 -6.438 6.25 -8 5 C-5.801 2.471 -4.264 1.653 -1 1 C-0.67 0.67 -0.34 0.34 0 0 Z " fill="#9FD11C" transform="translate(109,131)"/>
<path d="M0 0 C2.832 2.832 2.287 4.958 2.329 8.833 C2.323 9.754 2.318 10.676 2.312 11.625 C2.31 12.563 2.307 13.502 2.304 14.468 C2.008 34.487 2.008 34.487 -3 42 C-2.114 34.402 -2.114 34.402 -1.484 32.174 C-0.941 29.736 -0.903 27.575 -0.938 25.078 C-0.945 24.135 -0.953 23.191 -0.961 22.219 C-0.987 20.255 -1.013 18.292 -1.039 16.328 C-1.084 10.775 -0.833 5.493 0 0 Z " fill="#739615" transform="translate(162,100)"/>
<path d="M0 0 C1.449 4.346 -0.505 7.22 -2.312 11.188 C-2.671 11.983 -3.03 12.779 -3.4 13.599 C-5.985 19.171 -8.876 24.476 -12.125 29.688 C-12.52 30.321 -12.915 30.955 -13.322 31.608 C-16.193 36.065 -19.466 40.053 -23 44 C-23.33 43.34 -23.66 42.68 -24 42 C-23.371 41.152 -22.742 40.304 -22.094 39.43 C-13.005 27.035 -5.73 14.281 0 0 Z " fill="#5D7114" transform="translate(156,148)"/>
<path d="M0 0 C0.66 0.33 1.32 0.66 2 1 C1.457 2.027 0.915 3.055 0.355 4.113 C-3.697 11.915 -7.233 19.312 -9 28 C-9.66 28 -10.32 28 -11 28 C-12.168 18.072 -6.838 8.784 -1 1 C-0.67 0.67 -0.34 0.34 0 0 Z " fill="#A3D228" transform="translate(50,73)"/>
<path d="M0 0 C5.5 -0.337 9.208 0.212 14 3 C18.47 7.822 21.16 11.992 21.062 18.688 C21.053 19.496 21.044 20.304 21.035 21.137 C21.024 21.752 21.012 22.366 21 23 C19.205 20.308 18.166 17.987 17 15 C15.598 11.729 15.117 11.078 12 9 C11.938 8.588 11.938 8.588 11.625 6.5 C11.419 5.675 11.213 4.85 11 4 C7.549 2.028 3.905 1.545 0 1 C0 0.67 0 0.34 0 0 Z " fill="#679E04" transform="translate(98,84)"/>
<path d="M0 0 C0.66 0.66 1.32 1.32 2 2 C-1.63 2 -5.26 2 -9 2 C-9 2.66 -9 3.32 -9 4 C-9.626 4.193 -10.253 4.387 -10.898 4.586 C-11.716 4.846 -12.533 5.107 -13.375 5.375 C-14.187 5.63 -14.999 5.885 -15.836 6.148 C-18 7 -18 7 -20 9 C-20.627 12.103 -21.02 15.21 -21.438 18.348 C-21.623 19.223 -21.809 20.098 -22 21 C-22.66 21.33 -23.32 21.66 -24 22 C-25.594 16.821 -24.471 13.7 -22.152 9.047 C-19.563 4.448 -17.128 2.879 -12.188 1.25 C-7.951 0.105 -4.368 -0.455 0 0 Z " fill="#C2B979" transform="translate(109,96)"/>
<path d="M0 0 C0.625 1.812 0.625 1.812 1 4 C0.67 4.495 0.67 4.495 -1 7 C-1.66 7 -2.32 7 -3 7 C-3.33 7.99 -3.66 8.98 -4 10 C-9.495 14.306 -14.971 17.123 -22 17 C-23.723 15.496 -23.723 15.496 -25 14 C-23.987 13.841 -22.974 13.683 -21.93 13.52 C-7.814 11.133 -7.814 11.133 -2.77 4.344 C-1.793 2.931 -0.889 1.469 0 0 Z " fill="#C4E753" transform="translate(121,115)"/>
<path d="M0 0 C-0.66 1.32 -1.32 2.64 -2 4 C-8.769 4.102 -15.303 4.03 -22 3 C-22 2.34 -22 1.68 -22 1 C-14.662 -0.174 -7.418 -0.094 0 0 Z " fill="#517508" transform="translate(101,162)"/>
<path d="M0 0 C-0.33 0.99 -0.66 1.98 -1 3 C-2.031 2.938 -3.062 2.876 -4.125 2.812 C-8.258 3.012 -10.436 4.011 -14 6 C-14.66 6 -15.32 6 -16 6 C-16 6.66 -16 7.32 -16 8 C-17.651 9.026 -19.32 10.023 -21 11 C-22.812 12.688 -22.812 12.688 -24 14 C-23.494 11.831 -23 10 -22 8 C-22.66 7.67 -23.32 7.34 -24 7 C-21.094 5.743 -19.204 5 -16 5 C-16 4.01 -16 3.02 -16 2 C-10.605 -0.271 -5.738 -0.204 0 0 Z M-26 8 C-24 9 -24 9 -24 9 Z " fill="#8CC30B" transform="translate(105,80)"/>
<path d="M0 0 C1.462 0.424 2.92 0.865 4.375 1.312 C5.187 1.556 5.999 1.8 6.836 2.051 C9 3 9 3 11 6 C9.68 6 8.36 6 7 6 C8.729 6.793 10.458 7.584 12.188 8.375 C12.669 8.595 12.669 8.595 15.105 9.711 C17.715 10.873 20.34 11.959 23 13 C23 13.33 23 13.66 23 14 C15.087 14.842 9.618 11.162 3.5 6.438 C0.984 3.985 0.606 3.259 0 0 Z " fill="#74A608" transform="translate(54,146)"/>
<path d="M0 0 C3.76 2.241 5.888 3.932 7.637 8.023 C7.094 7.674 6.551 7.325 5.992 6.965 C5.277 6.51 4.561 6.055 3.824 5.586 C3.117 5.133 2.409 4.681 1.68 4.215 C-3.079 1.44 -8.003 1.405 -13.363 2.023 C-16.738 3.836 -16.738 3.836 -19.363 6.023 C-19.755 6.312 -19.755 6.312 -21.738 7.773 C-22.006 7.98 -22.006 7.98 -23.363 9.023 C-22.006 4.136 -19.693 2.498 -15.363 0.023 C-10.316 -1.659 -4.996 -2.064 0 0 Z " fill="#48660A" transform="translate(108.36328125,90.9765625)"/>
<path d="M0 0 C1.98 0 3.96 0 6 0 C8 5.75 8 5.75 8 8 C10.97 8.99 13.94 9.98 17 11 C17 11.33 17 11.66 17 12 C11.121 11.744 7.337 11.337 3 7 C2.402 6.505 1.804 6.01 1.188 5.5 C0 4 0 4 0 0 Z " fill="#77A80D" transform="translate(72,204)"/>
<path d="M0 0 C4 6 4 6 5 8 C5.66 8 6.32 8 7 8 C8.32 12.29 9.64 16.58 11 21 C7 20 7 20 5.586 17.926 C5.186 17.063 4.787 16.201 4.375 15.312 C3.956 14.409 3.537 13.505 3.105 12.574 C1.206 8.151 0 4.843 0 0 Z " fill="#7EA913" transform="translate(39,122)"/>
<path d="M0 0 C0.66 0.66 1.32 1.32 2 2 C1.215 1.965 0.43 1.93 -0.379 1.895 C-8.484 1.686 -13.243 2.161 -19.812 7.125 C-22.357 10.469 -22.927 13.019 -23.543 17.109 C-23.694 17.733 -23.845 18.357 -24 19 C-24.66 19.33 -25.32 19.66 -26 20 C-25.771 17.914 -25.516 15.831 -25.25 13.75 C-25.111 12.59 -24.972 11.43 -24.828 10.234 C-23.891 6.574 -22.954 5.291 -20 3 C-13.887 -0.244 -6.798 -0.895 0 0 Z " fill="#D8D09C" transform="translate(112,100)"/>
<path d="M0 0 C0.892 0.018 1.784 0.036 2.703 0.055 C3.041 0.066 3.041 0.066 4.75 0.125 C4.42 0.785 4.09 1.445 3.75 2.125 C2.451 2.125 1.151 2.125 -0.188 2.125 C-7.125 2.649 -10.943 8.17 -15.25 13.125 C-15.58 12.135 -15.91 11.145 -16.25 10.125 C-14.957 8.152 -14.957 8.152 -13.062 6.062 C-12.45 5.37 -11.838 4.678 -11.207 3.965 C-7.594 0.568 -4.92 -0.129 0 0 Z " fill="#A29D54" transform="translate(100.25,91.875)"/>
<path d="M0 0 C0.66 0.33 1.32 0.66 2 1 C-0.329 6.716 -4.758 10.06 -10 13 C-12.006 14.325 -14.007 15.656 -16 17 C-16.66 16.34 -17.32 15.68 -18 15 C-17.216 14.526 -16.433 14.051 -15.625 13.562 C-9.896 9.766 -4.848 4.848 0 0 Z " fill="#B9AD6C" transform="translate(126,199)"/>
<path d="M0 0 C0 0.99 0 1.98 0 3 C-1.333 4.333 -2.667 5.667 -4 7 C-4.454 7.969 -4.907 8.939 -5.375 9.938 C-7.4 13.754 -9.618 15.354 -13 18 C-13.33 18.66 -13.66 19.32 -14 20 C-15.644 20.722 -17.311 21.394 -19 22 C-17.428 18.141 -14.939 15.906 -12 13 C-9.874 10.749 -7.781 8.469 -5.688 6.188 C-5.413 5.889 -5.413 5.889 -4.021 4.377 C-2.68 2.919 -1.34 1.46 0 0 Z " fill="#DED1A3" transform="translate(139,195)"/>
<path d="M0 0 C0.33 0 0.66 0 1 0 C1.561 5.607 -0.041 9.371 -3 14 C-5.545 16.856 -7.821 18.881 -11 21 C-9.603 18.141 -8.087 15.382 -6.5 12.625 C-4.561 9.165 -3.081 5.834 -2 2 C-1.34 2 -0.68 2 0 2 C0 1.34 0 0.68 0 0 Z " fill="#DDD1A2" transform="translate(153,171)"/>
<path d="M0 0 C1.32 0.66 1.32 0.66 8 4 C8 4.99 8 5.98 8 7 C8.474 7.062 8.474 7.062 10.875 7.375 C14 8 14 8 16 10 C10.402 10.583 7.421 9.49 2.699 6.484 C0.796 4.822 -0.027 3.311 -1 1 C-0.67 0.67 -0.34 0.34 0 0 Z " fill="#D6CD95" transform="translate(63,158)"/>
<path d="M0 0 C9.706 0.665 19.575 1.462 29 4 C28.67 4.99 28.34 5.98 28 7 C27.67 6.34 27.34 5.68 27 5 C25.845 5.041 24.69 5.083 23.5 5.125 C18.801 5.133 14.218 4.641 9.562 4.062 C8.852 3.976 8.142 3.889 7.41 3.799 C2.259 3.129 2.259 3.129 0 2 C0 1.34 0 0.68 0 0 Z " fill="#7DB602" transform="translate(75,155)"/>
<path d="M0 0 C2.915 5.179 2.696 10.108 1.324 15.809 C0.6 18.227 -0.165 20.618 -1 23 C-2 20 -2 20 -1 17 C-1.66 17 -2.32 17 -3 17 C-2.079 11.319 -1.037 5.661 0 0 Z " fill="#74A906" transform="translate(160,117)"/>
<path d="M0 0 C2.362 3.69 2.353 6.688 2 11 C0.715 16.553 -0.733 20.094 -5 24 C-4.723 22.938 -4.446 21.876 -4.16 20.781 C-3.794 19.354 -3.428 17.927 -3.062 16.5 C-2.88 15.804 -2.698 15.108 -2.51 14.391 C-1.29 9.602 -0.526 4.915 0 0 Z " fill="#C5BA7D" transform="translate(163,123)"/>
<path d="M0 0 C2 1 2 1 2 1 Z M-2 2 C-1 5 -1 5 -1 7 C-1.99 7.66 -2.98 8.32 -4 9 C-3.505 9.454 -3.01 9.907 -2.5 10.375 C-1 12 -1 12 -1 14 C-3.31 13.67 -5.62 13.34 -8 13 C-8.375 10.312 -8.375 10.312 -8 7 C-6.176 4.936 -4.272 3.61 -2 2 Z " fill="#9CCF17" transform="translate(87,191)"/>
<path d="M0 0 C0.99 0.165 0.99 0.165 6 1 C5.67 1.99 5.34 2.98 5 4 C6.65 3.67 8.3 3.34 10 3 C10 3.99 10 4.98 10 6 C10.66 6.66 11.32 7.32 12 8 C11.01 8.66 10.02 9.32 9 10 C6.962 8.726 4.961 7.389 3 6 C3 5.34 3 4.68 3 4 C1.68 3.67 0.36 3.34 -1 3 C-0.67 2.01 -0.34 1.02 0 0 Z " fill="#8FC70C" transform="translate(107,80)"/>
<path d="M0 0 C0 3 0 3 -1 6 C-0.34 6 0.32 6 1 6 C1.113 5.598 1.113 5.598 1.688 3.562 C2.121 2.717 2.554 1.871 3 1 C5.625 0.188 5.625 0.188 8 0 C7.01 1.98 6.02 3.96 5 6 C4.34 6 3.68 6 3 6 C3 6.66 3 7.32 3 8 C2.01 8 1.02 8 0 8 C0 8.66 0 9.32 0 10 C-0.66 10 -1.32 10 -2 10 C-2.195 3.945 -2.195 3.945 -2 2 C-1.34 1.34 -0.68 0.68 0 0 Z " fill="#ADD832" transform="translate(78,188)"/>
<path d="M0 0 C0.99 0.33 1.98 0.66 3 1 C-1.333 12 -1.333 12 -4 16 C-4.66 16 -5.32 16 -6 16 C-6.615 10.924 -4.617 8.17 -2 4 C-1.34 4 -0.68 4 0 4 C-0.33 3.01 -0.66 2.02 -1 1 C-0.67 0.67 -0.34 0.34 0 0 Z " fill="#8AC105" transform="translate(141,160)"/>
<path d="M0 0 C0.33 0.99 0.66 1.98 1 3 C0.237 3.577 -0.526 4.155 -1.312 4.75 C-4 7 -4 7 -5.5 9.062 C-7.371 11.479 -9.329 12.537 -12 14 C-12.928 14.557 -13.856 15.114 -14.812 15.688 C-15.534 16.121 -16.256 16.554 -17 17 C-17 16.01 -17 15.02 -17 14 C-14.266 11.457 -11.73 9.42 -8.5 7.562 C-5.14 5.462 -2.736 2.863 0 0 Z " fill="#C6B67E" transform="translate(129,200)"/>
<path d="M0 0 C0.66 0.33 1.32 0.66 2 1 C1.835 1.268 1.835 1.268 1 2.625 C-0.227 5.539 -0.142 7.869 0 11 C0.66 11.33 1.32 11.66 2 12 C1.34 12 0.68 12 0 12 C-0.33 12.99 -0.66 13.98 -1 15 C-1.99 15.33 -2.98 15.66 -4 16 C-4.543 9.345 -3.773 5.542 0 0 Z " fill="#9DCF20" transform="translate(75,189)"/>
<path d="M0 0 C2.875 2.562 2.875 2.562 5 5 C2 5 2 5 -1 3 C-3.699 2.805 -3.699 2.805 -6.688 2.875 C-7.681 2.893 -8.675 2.911 -9.699 2.93 C-10.458 2.953 -11.218 2.976 -12 3 C-11.34 2.67 -10.68 2.34 -10 2 C-10 1.34 -10 0.68 -10 0 C-6.384 -1.252 -3.667 -1.048 0 0 Z M-15 3 C-14.01 3.33 -13.02 3.66 -12 4 C-13.32 4.33 -14.64 4.66 -16 5 C-15.67 4.34 -15.34 3.68 -15 3 Z " fill="#B6AF68" transform="translate(110,94)"/>
<path d="M0 0 C0.33 0.99 0.66 1.98 1 3 C0.492 3.496 -0.016 3.993 -0.539 4.504 C-4.928 8.836 -9.052 13.263 -13 18 C-13 13.944 -11.494 13.038 -8.75 10.125 C-5.682 6.847 -2.765 3.539 0 0 Z M-15 18 C-15 18.99 -15 19.98 -15 21 C-15.66 21.33 -15.66 21.33 -19 23 C-17.68 21.35 -16.36 19.7 -15 18 Z " fill="#D6C895" transform="translate(141,190)"/>
<path d="M0 0 C1.32 0.33 2.64 0.66 4 1 C4 2.65 4 4.3 4 6 C4.33 5.67 4.66 5.34 5 5 C7.737 7.737 8.162 10.26 9 14 C8.625 16.438 8.625 16.438 8 18 C6.142 14.865 5.799 12.625 6 9 C5.34 9 4.68 9 4 9 C3.67 9.66 3.34 10.32 3 11 C2.505 9.185 2.505 9.185 0 0 Z " fill="#F1E8C4" transform="translate(160,88)"/>
<path d="M0 0 C-0.188 1.812 -0.188 1.812 -1 4 C-4.373 6.623 -6.757 7.364 -11 7 C-9.968 4.421 -9.35 3.212 -6.938 1.75 C-5 1 -5 1 -4 1 C-2 0 -2 0 0 0 Z " fill="#8EC508" transform="translate(103,203)"/>
<path d="M0 0 C0.965 2.577 1.124 3.681 0.109 6.289 C-0.339 7.06 -0.788 7.831 -1.25 8.625 C-1.469 9.013 -1.469 9.013 -2.578 10.977 C-4 13 -4 13 -7 15 C-6.037 8.535 -4.585 4.706 0 0 Z " fill="#D2C48F" transform="translate(149,175)"/>
<path d="M0 0 C0.289 0.639 0.578 1.279 0.875 1.938 C2 4 2 4 4 5 C5.035 6.777 5.035 6.777 6.062 8.938 C6.404 9.648 6.746 10.358 7.098 11.09 C7.395 11.72 7.693 12.351 8 13 C8.33 13.66 8.66 14.32 9 15 C5.146 14.144 3.423 13.607 1.125 10.312 C-0.11 6.677 -0.229 3.814 0 0 Z " fill="#77A80D" transform="translate(80,108)"/>
<path d="M0 0 C3 2 3 2 3.5 4.375 C3 7 3 7 0.5 9.312 C0.087 9.591 0.087 9.591 -2 11 C-2 10.01 -2 9.02 -2 8 C-2.66 8 -3.32 8 -4 8 C-4 6.02 -4 4.04 -4 2 C-3.67 3.32 -3.34 4.64 -3 6 C-2.34 6 -1.68 6 -1 6 C-0.67 4.02 -0.34 2.04 0 0 Z " fill="#B0DA39" transform="translate(42,95)"/>
<path d="M0 0 C2.188 0.312 2.188 0.312 4 1 C3.773 1.175 3.773 1.175 2.625 2.062 C-1.426 6.893 -1.478 13.938 -2 20 C-2.33 20 -2.66 20 -3 20 C-3.081 17.229 -3.14 14.46 -3.188 11.688 C-3.2 11.295 -3.2 11.295 -3.264 9.307 C-3.273 8.549 -3.283 7.792 -3.293 7.012 C-3.309 6.315 -3.324 5.619 -3.341 4.901 C-2.895 2.413 -1.989 1.511 0 0 Z " fill="#578006" transform="translate(85,94)"/>
<path d="M0 0 C0.557 0.227 1.114 0.454 1.688 0.688 C1.358 0.852 1.358 0.852 -0.312 1.688 C1.338 2.017 2.987 2.347 4.688 2.688 C4.688 3.678 4.688 4.668 4.688 5.688 C3.062 5.574 1.437 5.446 -0.188 5.312 C-1.092 5.243 -1.997 5.173 -2.93 5.102 C-5.312 4.688 -5.312 4.688 -7.312 2.688 C-2.882 -0.389 -2.882 -0.389 0 0 Z " fill="#AFDB38" transform="translate(116.3125,51.3125)"/>
<path d="M0 0 C-2.571 2.571 -4.605 2.801 -8.125 3.625 C-8.673 3.755 -8.673 3.755 -11.445 4.414 C-12.288 4.607 -13.131 4.801 -14 5 C-14 4.34 -14 3.68 -14 3 C-14.66 2.67 -15.32 2.34 -16 2 C-10.605 -0.271 -5.738 -0.204 0 0 Z " fill="#ACDC32" transform="translate(92,51)"/>
<path d="M0 0 C0.66 0.33 1.32 0.66 2 1 C0.988 4.403 0.352 5.757 -2.625 7.812 C-3.409 8.204 -4.192 8.596 -5 9 C-5 8.34 -5 7.68 -5 7 C-5.99 6.67 -6.98 6.34 -8 6 C-5.36 4.02 -2.72 2.04 0 0 Z " fill="#5F9203" transform="translate(113,204)"/>
<path d="M0 0 C2.97 0.33 5.94 0.66 9 1 C9 1.66 9 2.32 9 3 C9.66 3.33 10.32 3.66 11 4 C10.34 4.66 9.68 5.32 9 6 C6.836 5.758 6.836 5.758 4.375 5.125 C3.966 5.023 3.966 5.023 1.898 4.508 C1.272 4.34 0.645 4.173 0 4 C0 2.68 0 1.36 0 0 Z " fill="#E0D8A8" transform="translate(80,170)"/>
<path d="M0 0 C4.348 0.659 7.996 2.213 12 4 C13.664 4.673 15.33 5.342 17 6 C16.01 6.66 15.02 7.32 14 8 C9.38 5.69 4.76 3.38 0 1 C0 0.67 0 0.34 0 0 Z " fill="#6B9F02" transform="translate(58,150)"/>
<path d="M0 0 C0 3.57 -0.605 4.021 -2.938 6.562 C-5.921 9.843 -5.921 9.843 -7 12 C-7.66 12 -8.32 12 -9 12 C-8.349 8.486 -7.084 5.902 -5 3 C-2.312 1.188 -2.312 1.188 0 0 Z " fill="#BFE256" transform="translate(86,182)"/>
<path d="M0 0 C1.087 0.018 2.173 0.036 3.293 0.055 C3.709 0.066 3.709 0.066 5.812 0.125 C3.188 2.75 1.325 2.708 -2.312 3.25 C-3.408 3.418 -4.504 3.585 -5.633 3.758 C-6.054 3.818 -6.054 3.818 -8.188 4.125 C-8.517 3.465 -8.847 2.805 -9.188 2.125 C-5.661 -0.226 -4.159 -0.089 0 0 Z " fill="#A8DC31" transform="translate(102.1875,125.875)"/>
<path d="M0 0 C1.792 0.114 3.584 0.241 5.375 0.375 C5.874 0.41 5.874 0.41 8.398 0.586 C11 1 11 1 13 3 C8.614 3.702 4.442 4.108 0 4 C0.66 3.67 1.32 3.34 2 3 C2 2.34 2 1.68 2 1 C1.34 0.67 0.68 0.34 0 0 Z " fill="#5C8E02" transform="translate(81,159)"/>
<path d="M0 0 C0 3.869 -1.15 4.716 -3.688 7.562 C-4.372 8.348 -5.056 9.133 -5.762 9.941 C-8.097 12.09 -10.004 13.029 -13 14 C-12.34 13.01 -11.68 12.02 -11 11 C-10.34 11 -9.68 11 -9 11 C-8.773 10.464 -8.546 9.928 -8.312 9.375 C-6.305 5.743 -3.772 1.886 0 0 Z " fill="#92C11C" transform="translate(99,165)"/>
<path d="M0 0 C0.33 0.165 0.33 0.165 2 1 C3.091 6.651 2.91 11.337 2 17 C1.67 17 1.34 17 1 17 C0.096 13.163 -0.106 9.625 -0.062 5.688 C-0.053 4.619 -0.044 3.55 -0.035 2.449 C-0.024 1.641 -0.012 0.833 0 0 Z " fill="#7DAE16" transform="translate(160,91)"/>
<path d="M0 0 C5.738 -0.204 10.605 -0.271 16 2 C16 2.33 16 2.66 16 3 C14.185 3.33 14.185 3.33 5 5 C4.67 4.34 4.34 3.68 4 3 C5.32 3 6.64 3 8 3 C8 2.34 8 1.68 8 1 C5.36 1 2.72 1 0 1 C0 0.67 0 0.34 0 0 Z " fill="#B3DE36" transform="translate(93,51)"/>
<path d="M0 0 C2 0 2 0 4.312 2.25 C4.756 2.704 4.756 2.704 7 5 C8.649 6.356 10.31 7.696 12 9 C8.493 9.413 6.942 8.97 3.75 7.312 C1 5 1 5 0.125 2.25 C0.084 1.507 0.042 0.765 0 0 Z " fill="#EADFB3" transform="translate(51,152)"/>
<path d="M0 0 C0 5.831 -1.907 10.631 -4 16 C-5.097 12.71 -4.906 11.339 -4.25 8 C-4.09 7.134 -3.93 6.268 -3.766 5.375 C-2.94 2.813 -2.042 1.705 0 0 Z " fill="#EFE4C0" transform="translate(171,133)"/>
<path d="M0 0 C1.155 0.66 1.155 0.66 7 4 C6.67 5.65 6.34 7.3 6 9 C6.99 9.33 7.98 9.66 9 10 C8.01 10.33 7.02 10.66 6 11 C5.34 10.34 4.68 9.68 4 9 C4 7.68 4 6.36 4 5 C3.34 5 2.68 5 2 5 C1.34 3.35 0.68 1.7 0 0 Z " fill="#E6DBB0" transform="translate(77,214)"/>
<path d="M0 0 C0.33 0 0.66 0 1 0 C1 1.98 1 3.96 1 6 C1.66 6 2.32 6 3 6 C3 5.34 3 4.68 3 4 C3.66 4 4.32 4 5 4 C5.33 5.32 5.66 6.64 6 8 C5.34 8 4.68 8 4 8 C4 8.66 4 9.32 4 10 C1 9 1 9 -1 6 C-0.625 2.812 -0.625 2.812 0 0 Z " fill="#A7D625" transform="translate(75,192)"/>
<path d="M0 0 C0.33 1.32 0.66 2.64 1 4 C-0.215 5.922 -0.215 5.922 -1.938 7.75 C-2.503 8.364 -3.069 8.977 -3.652 9.609 C-3.875 9.839 -3.875 9.839 -5 11 C-5.99 10.34 -6.98 9.68 -8 9 C-5.36 6.03 -2.72 3.06 0 0 Z " fill="#B7E141" transform="translate(104,163)"/>
<path d="M0 0 C0.66 0 1.32 0 2 0 C2.027 1.771 2.046 3.542 2.062 5.312 C2.074 6.299 2.086 7.285 2.098 8.301 C2 11 2 11 1 14 C0.34 14 -0.32 14 -1 14 C-1.083 9.167 -0.953 4.763 0 0 Z " fill="#689607" transform="translate(157,134)"/>
<path d="M0 0 C-0.99 0.66 -1.98 1.32 -3 2 C-3 2.33 -3 2.66 -3 3 C-8.957 4.074 -8.957 4.074 -11 4 C-12.762 2.52 -12.762 2.52 -14 1 C-12.419 0.635 -10.835 0.283 -9.25 -0.062 C-8.368 -0.26 -7.487 -0.457 -6.578 -0.66 C-4.013 -0.998 -2.429 -0.812 0 0 Z " fill="#BAE544" transform="translate(110,128)"/>
<path d="M0 0 C2.19 3.285 2.353 4.831 2.625 8.688 C2.7 9.681 2.775 10.675 2.852 11.699 C2.876 12.079 2.876 12.079 3 14 C2.01 13.67 1.02 13.34 0 13 C0 8.71 0 4.42 0 0 Z " fill="#9ACB13" transform="translate(39,103)"/>
<path d="M0 0 C2.31 0.165 2.31 0.165 14 1 C13.34 2.32 12.68 3.64 12 5 C10.561 4.547 9.124 4.088 7.688 3.625 C6.887 3.37 6.086 3.115 5.262 2.852 C3 2 3 2 0 0 Z " fill="#A6A458" transform="translate(83,165)"/>
<path d="M0 0 C0.66 0.33 1.32 0.66 2 1 C1.578 1.436 1.157 1.871 0.723 2.32 C-2.764 6.11 -4.739 8.646 -5 14 C-7 12 -7 12 -7.125 9.375 C-7.084 8.591 -7.043 7.808 -7 7 C-6.01 6.67 -5.02 6.34 -4 6 C-2.938 4.062 -2.938 4.062 -2 2 C-1.34 1.34 -0.68 0.68 0 0 Z " fill="#7FB604" transform="translate(86,88)"/>
<path d="M0 0 C1.549 3.098 0.832 6.262 0.562 9.625 C0.51 10.331 0.458 11.038 0.404 11.766 C0.275 13.511 0.138 15.255 0 17 C-2.233 13.466 -2.102 10.911 -1.688 6.812 C-1.588 5.746 -1.489 4.68 -1.387 3.582 C-1 1 -1 1 0 0 Z " fill="#669F02" transform="translate(82,95)"/>
<path d="M0 0 C0.892 0.009 1.784 0.018 2.703 0.027 C3.379 0.039 4.054 0.051 4.75 0.062 C1.604 2.16 -0.265 2.583 -3.938 3.188 C-4.434 3.271 -4.434 3.271 -6.949 3.695 C-7.708 3.816 -8.468 3.938 -9.25 4.062 C-9.25 3.072 -9.25 2.083 -9.25 1.062 C-6.095 0.126 -3.284 -0.043 0 0 Z " fill="#C0E44F" transform="translate(91.25,52.9375)"/>
<path d="M0 0 C0.33 0.99 0.66 1.98 1 3 C-0.652 5.48 -0.652 5.48 -2.938 8.188 C-3.689 9.089 -4.441 9.99 -5.215 10.918 C-5.804 11.605 -6.393 12.292 -7 13 C-7.33 12.34 -7.66 11.68 -8 11 C-5.36 7.37 -2.72 3.74 0 0 Z " fill="#536C0D" transform="translate(140,179)"/>
<path d="M0 0 C1.98 0.66 3.96 1.32 6 2 C6 2.66 6 3.32 6 4 C6.66 4.66 7.32 5.32 8 6 C7.34 6.66 6.68 7.32 6 8 C2.521 5.681 1.706 3.736 0 0 Z " fill="#8FC40B" transform="translate(51,137)"/>
<path d="M0 0 C0.66 0 1.32 0 2 0 C1.747 3.421 0.692 4.308 -1.812 6.812 C-5 9 -5 9 -7.375 8.812 C-7.911 8.544 -8.448 8.276 -9 8 C-8.536 7.804 -8.536 7.804 -6.188 6.812 C-2.741 4.853 -1.839 3.402 0 0 Z " fill="#F7F9E6" transform="translate(114,116)"/>
<path d="M0 0 C0.99 0 1.98 0 3 0 C2.5 1.812 2.5 1.812 1 4 C-1.586 5.262 -4.252 6.156 -7 7 C-7 6.01 -7 5.02 -7 4 C-5.02 3.67 -3.04 3.34 -1 3 C-0.67 2.01 -0.34 1.02 0 0 Z " fill="#AED831" transform="translate(80,58)"/>
<path d="M0 0 C0.652 1.734 0.652 1.734 1 4 C0.004 6.141 0.004 6.141 -1.438 8.25 C-1.911 8.956 -2.384 9.663 -2.871 10.391 C-3.244 10.922 -3.616 11.453 -4 12 C-4.652 10.266 -4.652 10.266 -5 8 C-4.004 5.859 -4.004 5.859 -2.562 3.75 C-2.089 3.044 -1.616 2.337 -1.129 1.609 C-0.756 1.078 -0.384 0.547 0 0 Z " fill="#E3D7AB" transform="translate(159,163)"/>
<path d="M0 0 C2.119 4.239 2.43 6.355 2 11 C1.505 11.33 1.505 11.33 -1 13 C-0.67 8.71 -0.34 4.42 0 0 Z " fill="#CBC183" transform="translate(163,123)"/>
<path d="M0 0 C0.33 0 0.66 0 1 0 C1 3.63 1 7.26 1 11 C-1.144 7.784 -1.676 5.809 -2 2 C-1.34 1.34 -0.68 0.68 0 0 Z " fill="#84BF05" transform="translate(79,102)"/>
<path d="M0 0 C0.99 0.33 1.98 0.66 3 1 C2.67 2.32 2.34 3.64 2 5 C1.34 5 0.68 5 0 5 C-0.33 6.32 -0.66 7.64 -1 9 C-1.66 9 -2.32 9 -3 9 C-2.01 6.03 -1.02 3.06 0 0 Z " fill="#BFE350" transform="translate(49,77)"/>
<path d="M0 0 C0.66 0.66 1.32 1.32 2 2 C1.505 2.33 1.505 2.33 -1 4 C-1 1 -1 1 0 0 Z " fill="#ECE0BA" transform="translate(126,214)"/>
<path d="M0 0 C0.66 0 1.32 0 2 0 C2.66 2.31 3.32 4.62 4 7 C3.34 7.33 3.34 7.33 0 9 C0 6.03 0 3.06 0 0 Z " fill="#97C430" transform="translate(71,196)"/>
<path d="M0 0 C0.34 0.144 0.34 0.144 2.062 0.875 C5.329 2.126 8.628 3.074 12 4 C11.67 4.66 11.34 5.32 11 6 C9.541 5.523 8.083 5.043 6.625 4.562 C5.813 4.296 5.001 4.029 4.164 3.754 C2 3 2 3 0 2 C0 1.34 0 0.68 0 0 Z " fill="#BBB46F" transform="translate(82,165)"/>
<path d="M0 0 C0.33 0 0.66 0 1 0 C0.886 1.48 0.759 2.959 0.625 4.438 C0.59 4.849 0.59 4.849 0.414 6.934 C0.277 7.616 0.141 8.297 0 9 C-0.33 9.165 -0.33 9.165 -2 10 C-2.33 8.02 -2.66 6.04 -3 4 C-2.01 3.67 -1.02 3.34 0 3 C0 2.01 0 1.02 0 0 Z " fill="#C7C286" transform="translate(87,108)"/>
<path d="M0 0 C5.011 1.432 6.945 3.984 10 8 C9.01 8 8.02 8 7 8 C6.67 7.01 6.34 6.02 6 5 C4.675 4.316 3.341 3.65 2 3 C1.34 2.01 0.68 1.02 0 0 Z " fill="#91C120" transform="translate(140,63)"/>
<path d="M0 0 C3.96 0.33 7.92 0.66 12 1 C11.67 1.99 11.34 2.98 11 4 C10.01 4 9.02 4 8 4 C8 3.34 8 2.68 8 2 C7.051 2.041 6.103 2.083 5.125 2.125 C2 2 2 2 0 0 Z " fill="#D0C98F" transform="translate(81,169)"/>
<path d="M0 0 C1.562 1.188 1.562 1.188 3 3 C2.688 5.688 2.688 5.688 2 8 C1.34 7.67 0.68 7.34 0 7 C-0.688 4 -0.688 4 -1 1 C-0.67 0.67 -0.34 0.34 0 0 Z " fill="#D4CF9A" transform="translate(115,101)"/>
<path d="M0 0 C0.66 0 1.32 0 2 0 C3.32 2.31 4.64 4.62 6 7 C5.01 7 4.02 7 3 7 C0.812 4 0.812 4 -1 1 C-0.67 0.67 -0.34 0.34 0 0 Z " fill="#87BB04" transform="translate(49,136)"/>
<path d="M0 0 C1.65 0 3.3 0 5 0 C5.33 1.65 5.66 3.3 6 5 C5.381 4.67 4.763 4.34 4.125 4 C2 3 2 3 0 3 C0 2.01 0 1.02 0 0 Z " fill="#80B106" transform="translate(73,204)"/>
<path d="M0 0 C0 3 0 3 -1 6 C-0.34 6 0.32 6 1 6 C0.67 7.32 0.34 8.64 0 10 C-0.66 10 -1.32 10 -2 10 C-2.195 3.945 -2.195 3.945 -2 2 C-1.34 1.34 -0.68 0.68 0 0 Z " fill="#B3DC3B" transform="translate(78,188)"/>
<path d="M0 0 C0.99 0.33 1.98 0.66 3 1 C1.845 1.99 1.845 1.99 -4 7 C-4 6.01 -4 5.02 -4 4 C-3.01 3.67 -2.02 3.34 -1 3 C-0.67 2.01 -0.34 1.02 0 0 Z " fill="#EFF0CB" transform="translate(86,175)"/>
<path d="M0 0 C1.149 0.954 2.294 1.914 3.438 2.875 C3.757 3.142 3.757 3.142 5.371 4.492 C7 6 7 6 8 8 C2.25 6.375 2.25 6.375 0 3 C0 2.01 0 1.02 0 0 Z " fill="#82B90B" transform="translate(81,115)"/>
<path d="M0 0 C-1.155 0.99 -1.155 0.99 -7 6 C-6.75 3.625 -6.75 3.625 -6 1 C-2.693 -1.347 -2.693 -1.347 0 0 Z " fill="#A7D827" transform="translate(91,178)"/>
<path d="M0 0 C0.33 1.32 0.66 2.64 1 4 C1.66 4 2.32 4 3 4 C3.33 3.34 3.66 2.68 4 2 C3.67 4.31 3.34 6.62 3 9 C2.67 8.01 2.34 7.02 2 6 C1.34 6 0.68 6 0 6 C0 4.02 0 2.04 0 0 Z " fill="#A9D23B" transform="translate(38,97)"/>
<path d="M0 0 C0.66 0 1.32 0 2 0 C2.66 1.98 3.32 3.96 4 6 C3.175 5.67 3.175 5.67 -1 4 C-0.67 2.68 -0.34 1.36 0 0 Z " fill="#8FC70D" transform="translate(153,80)"/>
</svg>
